<?xml version="1.0" encoding="UTF-8" standalone="no"?>
<!DOCTYPE svg PUBLIC "-//W3C//DTD SVG 1.1//EN"
 "http://www.w3.org/Graphics/SVG/1.1/DTD/svg11.dtd">
<!-- Generated by graphviz version 2.38.0 (20140413.2041)
 -->
<!-- Title: libraries/AC_PID/AC_P.h Pages: 1 -->
<svg width="821pt" height="287pt"
 viewBox="0.00 0.00 820.73 287.00" xmlns="http://www.w3.org/2000/svg" xmlns:xlink="http://www.w3.org/1999/xlink">
<g id="graph0" class="graph" transform="scale(1 1) rotate(0) translate(4 283)">
<title>libraries/AC_PID/AC_P.h</title>
<polygon fill="white" stroke="none" points="-4,4 -4,-283 816.729,-283 816.729,4 -4,4"/>
<!-- Node1 -->
<g id="node1" class="node"><title>Node1</title>
<polygon fill="#bfbfbf" stroke="black" points="501.103,-260.5 501.103,-278.5 626.966,-278.5 626.966,-260.5 501.103,-260.5"/>
<text text-anchor="middle" x="564.034" y="-266.5" font-family="Helvetica,sans-Serif" font-size="10.00">libraries/AC_PID/AC_P.h</text>
</g>
<!-- Node2 -->
<g id="node2" class="node"><title>Node2</title>
<g id="a_node2"><a xlink:href="$AC__AttitudeControl_8h.html" xlink:title="ArduCopter attitude control library. ">
<polygon fill="white" stroke="black" points="347.34,-195.5 347.34,-223.5 486.729,-223.5 486.729,-195.5 347.34,-195.5"/>
<text text-anchor="start" x="355.34" y="-211.5" font-family="Helvetica,sans-Serif" font-size="10.00">libraries/AC_AttitudeControl</text>
<text text-anchor="middle" x="417.034" y="-201.5" font-family="Helvetica,sans-Serif" font-size="10.00">/AC_AttitudeControl.h</text>
</a>
</g>
</g>
<!-- Node1&#45;&gt;Node2 -->
<g id="edge1" class="edge"><title>Node1&#45;&gt;Node2</title>
<path fill="none" stroke="midnightblue" d="M534.123,-256.698C509.699,-247.062 475.223,-233.459 450.007,-223.51"/>
<polygon fill="midnightblue" stroke="midnightblue" points="533.008,-260.021 543.594,-260.435 535.577,-253.509 533.008,-260.021"/>
</g>
<!-- Node8 -->
<g id="node8" class="node"><title>Node8</title>
<g id="a_node8"><a xlink:href="$AC__PosControl_8h.html" xlink:title="libraries/AC_AttitudeControl\l/AC_PosControl.h">
<polygon fill="white" stroke="black" points="519.34,-130.5 519.34,-158.5 658.729,-158.5 658.729,-130.5 519.34,-130.5"/>
<text text-anchor="start" x="527.34" y="-146.5" font-family="Helvetica,sans-Serif" font-size="10.00">libraries/AC_AttitudeControl</text>
<text text-anchor="middle" x="589.034" y="-136.5" font-family="Helvetica,sans-Serif" font-size="10.00">/AC_PosControl.h</text>
</a>
</g>
</g>
<!-- Node1&#45;&gt;Node8 -->
<g id="edge14" class="edge"><title>Node1&#45;&gt;Node8</title>
<path fill="none" stroke="midnightblue" d="M567.695,-250.488C572.769,-225.526 581.821,-180.987 586.329,-158.809"/>
<polygon fill="midnightblue" stroke="midnightblue" points="564.237,-249.933 565.674,-260.43 571.096,-251.327 564.237,-249.933"/>
</g>
<!-- Node14 -->
<g id="node14" class="node"><title>Node14</title>
<g id="a_node14"><a xlink:href="$AC__P_8cpp.html" xlink:title="Generic P algorithm. ">
<polygon fill="white" stroke="black" points="591.744,-195.5 591.744,-223.5 698.325,-223.5 698.325,-195.5 591.744,-195.5"/>
<text text-anchor="start" x="599.744" y="-211.5" font-family="Helvetica,sans-Serif" font-size="10.00">libraries/AC_PID/AC</text>
<text text-anchor="middle" x="645.034" y="-201.5" font-family="Helvetica,sans-Serif" font-size="10.00">_P.cpp</text>
</a>
</g>
</g>
<!-- Node1&#45;&gt;Node14 -->
<g id="edge15" class="edge"><title>Node1&#45;&gt;Node14</title>
<path fill="none" stroke="midnightblue" d="M583.627,-254.471C596.737,-245.083 613.873,-232.813 626.711,-223.62"/>
<polygon fill="midnightblue" stroke="midnightblue" points="581.39,-251.768 575.297,-260.435 585.465,-257.459 581.39,-251.768"/>
</g>
<!-- Node3 -->
<g id="node3" class="node"><title>Node3</title>
<g id="a_node3"><a xlink:href="$AC__AttitudeControl_8cpp.html" xlink:title="libraries/AC_AttitudeControl\l/AC_AttitudeControl.cpp">
<polygon fill="white" stroke="black" points="323.34,-130.5 323.34,-158.5 462.729,-158.5 462.729,-130.5 323.34,-130.5"/>
<text text-anchor="start" x="331.34" y="-146.5" font-family="Helvetica,sans-Serif" font-size="10.00">libraries/AC_AttitudeControl</text>
<text text-anchor="middle" x="393.034" y="-136.5" font-family="Helvetica,sans-Serif" font-size="10.00">/AC_AttitudeControl.cpp</text>
</a>
</g>
</g>
<!-- Node2&#45;&gt;Node3 -->
<g id="edge2" class="edge"><title>Node2&#45;&gt;Node3</title>
<path fill="none" stroke="midnightblue" d="M408.482,-186.051C404.969,-176.828 401.024,-166.474 398.001,-158.537"/>
<polygon fill="midnightblue" stroke="midnightblue" points="405.231,-187.347 412.061,-195.446 411.772,-184.855 405.231,-187.347"/>
</g>
<!-- Node4 -->
<g id="node4" class="node"><title>Node4</title>
<g id="a_node4"><a xlink:href="$AC__AttitudeControl__Heli_8h.html" xlink:title="ArduCopter attitude control library for traditional helicopters. ">
<polygon fill="white" stroke="black" points="5.33984,-130.5 5.33984,-158.5 144.729,-158.5 144.729,-130.5 5.33984,-130.5"/>
<text text-anchor="start" x="13.3398" y="-146.5" font-family="Helvetica,sans-Serif" font-size="10.00">libraries/AC_AttitudeControl</text>
<text text-anchor="middle" x="75.0342" y="-136.5" font-family="Helvetica,sans-Serif" font-size="10.00">/AC_AttitudeControl_Heli.h</text>
</a>
</g>
</g>
<!-- Node2&#45;&gt;Node4 -->
<g id="edge3" class="edge"><title>Node2&#45;&gt;Node4</title>
<path fill="none" stroke="midnightblue" d="M337.101,-193.776C278.868,-183.048 200.74,-168.656 144.975,-158.384"/>
<polygon fill="midnightblue" stroke="midnightblue" points="336.531,-197.229 347,-195.599 337.8,-190.345 336.531,-197.229"/>
</g>
<!-- Node6 -->
<g id="node6" class="node"><title>Node6</title>
<g id="a_node6"><a xlink:href="$AC__AttitudeControl__Multi_8h.html" xlink:title="ArduCopter attitude control library. ">
<polygon fill="white" stroke="black" points="166.337,-130.5 166.337,-158.5 305.731,-158.5 305.731,-130.5 166.337,-130.5"/>
<text text-anchor="start" x="174.337" y="-146.5" font-family="Helvetica,sans-Serif" font-size="10.00">libraries/AC_AttitudeControl</text>
<text text-anchor="middle" x="236.034" y="-136.5" font-family="Helvetica,sans-Serif" font-size="10.00">/AC_AttitudeControl_Multi.h</text>
</a>
</g>
</g>
<!-- Node2&#45;&gt;Node6 -->
<g id="edge5" class="edge"><title>Node2&#45;&gt;Node6</title>
<path fill="none" stroke="midnightblue" d="M370.086,-192.159C340.01,-181.691 301.508,-168.289 273.489,-158.537"/>
<polygon fill="midnightblue" stroke="midnightblue" points="368.936,-195.465 379.531,-195.446 371.237,-188.854 368.936,-195.465"/>
</g>
<!-- Node2&#45;&gt;Node8 -->
<g id="edge7" class="edge"><title>Node2&#45;&gt;Node8</title>
<path fill="none" stroke="midnightblue" d="M462.392,-191.886C490.861,-181.459 527.047,-168.205 553.441,-158.537"/>
<polygon fill="midnightblue" stroke="midnightblue" points="460.859,-188.72 452.673,-195.446 463.266,-195.293 460.859,-188.72"/>
</g>
<!-- Node12 -->
<g id="node12" class="node"><title>Node12</title>
<g id="a_node12"><a xlink:href="$AC__WPNav_8h.html" xlink:title="libraries/AC_WPNav\l/AC_WPNav.h">
<polygon fill="white" stroke="black" points="423.468,-65.5 423.468,-93.5 530.601,-93.5 530.601,-65.5 423.468,-65.5"/>
<text text-anchor="start" x="431.468" y="-81.5" font-family="Helvetica,sans-Serif" font-size="10.00">libraries/AC_WPNav</text>
<text text-anchor="middle" x="477.034" y="-71.5" font-family="Helvetica,sans-Serif" font-size="10.00">/AC_WPNav.h</text>
</a>
</g>
</g>
<!-- Node2&#45;&gt;Node12 -->
<g id="edge13" class="edge"><title>Node2&#45;&gt;Node12</title>
<path fill="none" stroke="midnightblue" d="M446.501,-189.198C456.368,-181.117 466.306,-170.834 472.034,-159 482.208,-137.981 481.021,-110.017 479.111,-93.764"/>
<polygon fill="midnightblue" stroke="midnightblue" points="444.139,-186.598 438.323,-195.454 448.392,-192.158 444.139,-186.598"/>
</g>
<!-- Node5 -->
<g id="node5" class="node"><title>Node5</title>
<g id="a_node5"><a xlink:href="$AC__AttitudeControl__Heli_8cpp.html" xlink:title="libraries/AC_AttitudeControl\l/AC_AttitudeControl_Heli.cpp">
<polygon fill="white" stroke="black" points="0,-65.5 0,-93.5 146.068,-93.5 146.068,-65.5 0,-65.5"/>
<text text-anchor="start" x="8" y="-81.5" font-family="Helvetica,sans-Serif" font-size="10.00">libraries/AC_AttitudeControl</text>
<text text-anchor="middle" x="73.0342" y="-71.5" font-family="Helvetica,sans-Serif" font-size="10.00">/AC_AttitudeControl_Heli.cpp</text>
</a>
</g>
</g>
<!-- Node4&#45;&gt;Node5 -->
<g id="edge4" class="edge"><title>Node4&#45;&gt;Node5</title>
<path fill="none" stroke="midnightblue" d="M74.2934,-120.164C74.0078,-111.169 73.692,-101.221 73.4481,-93.5369"/>
<polygon fill="midnightblue" stroke="midnightblue" points="70.8041,-120.562 74.6198,-130.446 77.8006,-120.34 70.8041,-120.562"/>
</g>
<!-- Node7 -->
<g id="node7" class="node"><title>Node7</title>
<g id="a_node7"><a xlink:href="$AC__AttitudeControl__Multi_8cpp.html" xlink:title="libraries/AC_AttitudeControl\l/AC_AttitudeControl_Multi.cpp">
<polygon fill="white" stroke="black" points="164.057,-65.5 164.057,-93.5 314.012,-93.5 314.012,-65.5 164.057,-65.5"/>
<text text-anchor="start" x="172.057" y="-81.5" font-family="Helvetica,sans-Serif" font-size="10.00">libraries/AC_AttitudeControl</text>
<text text-anchor="middle" x="239.034" y="-71.5" font-family="Helvetica,sans-Serif" font-size="10.00">/AC_AttitudeControl_Multi.cpp</text>
</a>
</g>
</g>
<!-- Node6&#45;&gt;Node7 -->
<g id="edge6" class="edge"><title>Node6&#45;&gt;Node7</title>
<path fill="none" stroke="midnightblue" d="M237.145,-120.164C237.574,-111.169 238.047,-101.221 238.413,-93.5369"/>
<polygon fill="midnightblue" stroke="midnightblue" points="233.635,-120.291 236.656,-130.446 240.628,-120.624 233.635,-120.291"/>
</g>
<!-- Node9 -->
<g id="node9" class="node"><title>Node9</title>
<g id="a_node9"><a xlink:href="$AC__PosControl_8cpp.html" xlink:title="libraries/AC_AttitudeControl\l/AC_PosControl.cpp">
<polygon fill="white" stroke="black" points="673.34,-65.5 673.34,-93.5 812.729,-93.5 812.729,-65.5 673.34,-65.5"/>
<text text-anchor="start" x="681.34" y="-81.5" font-family="Helvetica,sans-Serif" font-size="10.00">libraries/AC_AttitudeControl</text>
<text text-anchor="middle" x="743.034" y="-71.5" font-family="Helvetica,sans-Serif" font-size="10.00">/AC_PosControl.cpp</text>
</a>
</g>
</g>
<!-- Node8&#45;&gt;Node9 -->
<g id="edge8" class="edge"><title>Node8&#45;&gt;Node9</title>
<path fill="none" stroke="midnightblue" d="M630.315,-126.613C655.7,-116.228 687.74,-103.12 711.166,-93.5369"/>
<polygon fill="midnightblue" stroke="midnightblue" points="628.873,-123.421 620.943,-130.446 631.524,-129.899 628.873,-123.421"/>
</g>
<!-- Node10 -->
<g id="node10" class="node"><title>Node10</title>
<g id="a_node10"><a xlink:href="$AC__Circle_8h.html" xlink:title="libraries/AC_WPNav\l/AC_Circle.h">
<polygon fill="white" stroke="black" points="548.468,-65.5 548.468,-93.5 655.601,-93.5 655.601,-65.5 548.468,-65.5"/>
<text text-anchor="start" x="556.468" y="-81.5" font-family="Helvetica,sans-Serif" font-size="10.00">libraries/AC_WPNav</text>
<text text-anchor="middle" x="602.034" y="-71.5" font-family="Helvetica,sans-Serif" font-size="10.00">/AC_Circle.h</text>
</a>
</g>
</g>
<!-- Node8&#45;&gt;Node10 -->
<g id="edge9" class="edge"><title>Node8&#45;&gt;Node10</title>
<path fill="none" stroke="midnightblue" d="M593.788,-120.46C595.66,-111.388 597.741,-101.305 599.344,-93.5369"/>
<polygon fill="midnightblue" stroke="midnightblue" points="590.321,-119.945 591.728,-130.446 597.177,-121.36 590.321,-119.945"/>
</g>
<!-- Node8&#45;&gt;Node12 -->
<g id="edge11" class="edge"><title>Node8&#45;&gt;Node12</title>
<path fill="none" stroke="midnightblue" d="M556.794,-125.365C538.712,-115.194 516.573,-102.74 500.211,-93.5369"/>
<polygon fill="midnightblue" stroke="midnightblue" points="555.396,-128.594 565.828,-130.446 558.828,-122.493 555.396,-128.594"/>
</g>
<!-- Node11 -->
<g id="node11" class="node"><title>Node11</title>
<g id="a_node11"><a xlink:href="$AC__Circle_8cpp.html" xlink:title="libraries/AC_WPNav\l/AC_Circle.cpp">
<polygon fill="white" stroke="black" points="548.468,-0.5 548.468,-28.5 655.601,-28.5 655.601,-0.5 548.468,-0.5"/>
<text text-anchor="start" x="556.468" y="-16.5" font-family="Helvetica,sans-Serif" font-size="10.00">libraries/AC_WPNav</text>
<text text-anchor="middle" x="602.034" y="-6.5" font-family="Helvetica,sans-Serif" font-size="10.00">/AC_Circle.cpp</text>
</a>
</g>
</g>
<!-- Node10&#45;&gt;Node11 -->
<g id="edge10" class="edge"><title>Node10&#45;&gt;Node11</title>
<path fill="none" stroke="midnightblue" d="M602.034,-55.1641C602.034,-46.1693 602.034,-36.2205 602.034,-28.5369"/>
<polygon fill="midnightblue" stroke="midnightblue" points="598.534,-55.4463 602.034,-65.4464 605.534,-55.4464 598.534,-55.4463"/>
</g>
<!-- Node13 -->
<g id="node13" class="node"><title>Node13</title>
<g id="a_node13"><a xlink:href="$AC__WPNav_8cpp.html" xlink:title="libraries/AC_WPNav\l/AC_WPNav.cpp">
<polygon fill="white" stroke="black" points="423.468,-0.5 423.468,-28.5 530.601,-28.5 530.601,-0.5 423.468,-0.5"/>
<text text-anchor="start" x="431.468" y="-16.5" font-family="Helvetica,sans-Serif" font-size="10.00">libraries/AC_WPNav</text>
<text text-anchor="middle" x="477.034" y="-6.5" font-family="Helvetica,sans-Serif" font-size="10.00">/AC_WPNav.cpp</text>
</a>
</g>
</g>
<!-- Node12&#45;&gt;Node13 -->
<g id="edge12" class="edge"><title>Node12&#45;&gt;Node13</title>
<path fill="none" stroke="midnightblue" d="M477.034,-55.1641C477.034,-46.1693 477.034,-36.2205 477.034,-28.5369"/>
<polygon fill="midnightblue" stroke="midnightblue" points="473.534,-55.4463 477.034,-65.4464 480.534,-55.4464 473.534,-55.4463"/>
</g>
</g>
</svg>
