<?xml version="1.0" encoding="UTF-8" standalone="no"?>
<!DOCTYPE svg PUBLIC "-//W3C//DTD SVG 1.1//EN"
 "http://www.w3.org/Graphics/SVG/1.1/DTD/svg11.dtd">
<!-- Generated by graphviz version 2.38.0 (20140413.2041)
 -->
<!-- Title: libraries/AC_InputManager/AC_InputManager_Heli.h Pages: 1 -->
<svg width="150pt" height="102pt"
 viewBox="0.00 0.00 149.63 102.00" xmlns="http://www.w3.org/2000/svg" xmlns:xlink="http://www.w3.org/1999/xlink">
<g id="graph0" class="graph" transform="scale(1 1) rotate(0) translate(4 98)">
<title>libraries/AC_InputManager/AC_InputManager_Heli.h</title>
<polygon fill="white" stroke="none" points="-4,4 -4,-98 145.63,-98 145.63,4 -4,4"/>
<!-- Node1 -->
<g id="node1" class="node"><title>Node1</title>
<polygon fill="#bfbfbf" stroke="black" points="3.33984,-65.5 3.33984,-93.5 138.29,-93.5 138.29,-65.5 3.33984,-65.5"/>
<text text-anchor="start" x="11.3398" y="-81.5" font-family="Helvetica,sans-Serif" font-size="10.00">libraries/AC_InputManager</text>
<text text-anchor="middle" x="70.8149" y="-71.5" font-family="Helvetica,sans-Serif" font-size="10.00">/AC_InputManager_Heli.h</text>
</g>
<!-- Node2 -->
<g id="node2" class="node"><title>Node2</title>
<g id="a_node2"><a xlink:href="$AC__InputManager__Heli_8cpp.html" xlink:title="libraries/AC_InputManager\l/AC_InputManager_Heli.cpp">
<polygon fill="white" stroke="black" points="0,-0.5 0,-28.5 141.63,-28.5 141.63,-0.5 0,-0.5"/>
<text text-anchor="start" x="8" y="-16.5" font-family="Helvetica,sans-Serif" font-size="10.00">libraries/AC_InputManager</text>
<text text-anchor="middle" x="70.8149" y="-6.5" font-family="Helvetica,sans-Serif" font-size="10.00">/AC_InputManager_Heli.cpp</text>
</a>
</g>
</g>
<!-- Node1&#45;&gt;Node2 -->
<g id="edge1" class="edge"><title>Node1&#45;&gt;Node2</title>
<path fill="none" stroke="midnightblue" d="M70.8149,-55.1641C70.8149,-46.1693 70.8149,-36.2205 70.8149,-28.5369"/>
<polygon fill="midnightblue" stroke="midnightblue" points="67.315,-55.4463 70.8149,-65.4464 74.315,-55.4464 67.315,-55.4463"/>
</g>
</g>
</svg>
