<?xml version="1.0" encoding="UTF-8" standalone="no"?>
<!DOCTYPE svg PUBLIC "-//W3C//DTD SVG 1.1//EN"
 "http://www.w3.org/Graphics/SVG/1.1/DTD/svg11.dtd">
<!-- Generated by graphviz version 2.38.0 (20140413.2041)
 -->
<!-- Title: libraries/AC_AttitudeControl/AC_PosControl.h Pages: 1 -->
<svg width="397pt" height="167pt"
 viewBox="0.00 0.00 397.26 167.00" xmlns="http://www.w3.org/2000/svg" xmlns:xlink="http://www.w3.org/1999/xlink">
<g id="graph0" class="graph" transform="scale(1 1) rotate(0) translate(4 163)">
<title>libraries/AC_AttitudeControl/AC_PosControl.h</title>
<polygon fill="white" stroke="none" points="-4,4 -4,-163 393.261,-163 393.261,4 -4,4"/>
<!-- Node1 -->
<g id="node1" class="node"><title>Node1</title>
<polygon fill="#bfbfbf" stroke="black" points="141,-130.5 141,-158.5 280.389,-158.5 280.389,-130.5 141,-130.5"/>
<text text-anchor="start" x="149" y="-146.5" font-family="Helvetica,sans-Serif" font-size="10.00">libraries/AC_AttitudeControl</text>
<text text-anchor="middle" x="210.694" y="-136.5" font-family="Helvetica,sans-Serif" font-size="10.00">/AC_PosControl.h</text>
</g>
<!-- Node2 -->
<g id="node2" class="node"><title>Node2</title>
<g id="a_node2"><a xlink:href="$AC__PosControl_8cpp.html" xlink:title="libraries/AC_AttitudeControl\l/AC_PosControl.cpp">
<polygon fill="white" stroke="black" points="0,-65.5 0,-93.5 139.389,-93.5 139.389,-65.5 0,-65.5"/>
<text text-anchor="start" x="8" y="-81.5" font-family="Helvetica,sans-Serif" font-size="10.00">libraries/AC_AttitudeControl</text>
<text text-anchor="middle" x="69.6943" y="-71.5" font-family="Helvetica,sans-Serif" font-size="10.00">/AC_PosControl.cpp</text>
</a>
</g>
</g>
<!-- Node1&#45;&gt;Node2 -->
<g id="edge1" class="edge"><title>Node1&#45;&gt;Node2</title>
<path fill="none" stroke="midnightblue" d="M172.283,-126.337C149.14,-115.997 120.132,-103.036 98.8722,-93.5369"/>
<polygon fill="midnightblue" stroke="midnightblue" points="170.921,-129.562 181.479,-130.446 173.777,-123.171 170.921,-129.562"/>
</g>
<!-- Node3 -->
<g id="node3" class="node"><title>Node3</title>
<g id="a_node3"><a xlink:href="$AC__Circle_8h.html" xlink:title="libraries/AC_WPNav\l/AC_Circle.h">
<polygon fill="white" stroke="black" points="157.128,-65.5 157.128,-93.5 264.261,-93.5 264.261,-65.5 157.128,-65.5"/>
<text text-anchor="start" x="165.128" y="-81.5" font-family="Helvetica,sans-Serif" font-size="10.00">libraries/AC_WPNav</text>
<text text-anchor="middle" x="210.694" y="-71.5" font-family="Helvetica,sans-Serif" font-size="10.00">/AC_Circle.h</text>
</a>
</g>
</g>
<!-- Node1&#45;&gt;Node3 -->
<g id="edge2" class="edge"><title>Node1&#45;&gt;Node3</title>
<path fill="none" stroke="midnightblue" d="M210.694,-120.164C210.694,-111.169 210.694,-101.221 210.694,-93.5369"/>
<polygon fill="midnightblue" stroke="midnightblue" points="207.194,-120.446 210.694,-130.446 214.194,-120.446 207.194,-120.446"/>
</g>
<!-- Node5 -->
<g id="node5" class="node"><title>Node5</title>
<g id="a_node5"><a xlink:href="$AC__WPNav_8h.html" xlink:title="libraries/AC_WPNav\l/AC_WPNav.h">
<polygon fill="white" stroke="black" points="282.128,-65.5 282.128,-93.5 389.261,-93.5 389.261,-65.5 282.128,-65.5"/>
<text text-anchor="start" x="290.128" y="-81.5" font-family="Helvetica,sans-Serif" font-size="10.00">libraries/AC_WPNav</text>
<text text-anchor="middle" x="335.694" y="-71.5" font-family="Helvetica,sans-Serif" font-size="10.00">/AC_WPNav.h</text>
</a>
</g>
</g>
<!-- Node1&#45;&gt;Node5 -->
<g id="edge4" class="edge"><title>Node1&#45;&gt;Node5</title>
<path fill="none" stroke="midnightblue" d="M245.571,-125.922C265.949,-115.652 291.232,-102.909 309.827,-93.5369"/>
<polygon fill="midnightblue" stroke="midnightblue" points="243.949,-122.82 236.594,-130.446 247.1,-129.071 243.949,-122.82"/>
</g>
<!-- Node4 -->
<g id="node4" class="node"><title>Node4</title>
<g id="a_node4"><a xlink:href="$AC__Circle_8cpp.html" xlink:title="libraries/AC_WPNav\l/AC_Circle.cpp">
<polygon fill="white" stroke="black" points="157.128,-0.5 157.128,-28.5 264.261,-28.5 264.261,-0.5 157.128,-0.5"/>
<text text-anchor="start" x="165.128" y="-16.5" font-family="Helvetica,sans-Serif" font-size="10.00">libraries/AC_WPNav</text>
<text text-anchor="middle" x="210.694" y="-6.5" font-family="Helvetica,sans-Serif" font-size="10.00">/AC_Circle.cpp</text>
</a>
</g>
</g>
<!-- Node3&#45;&gt;Node4 -->
<g id="edge3" class="edge"><title>Node3&#45;&gt;Node4</title>
<path fill="none" stroke="midnightblue" d="M210.694,-55.1641C210.694,-46.1693 210.694,-36.2205 210.694,-28.5369"/>
<polygon fill="midnightblue" stroke="midnightblue" points="207.194,-55.4463 210.694,-65.4464 214.194,-55.4464 207.194,-55.4463"/>
</g>
<!-- Node6 -->
<g id="node6" class="node"><title>Node6</title>
<g id="a_node6"><a xlink:href="$AC__WPNav_8cpp.html" xlink:title="libraries/AC_WPNav\l/AC_WPNav.cpp">
<polygon fill="white" stroke="black" points="282.128,-0.5 282.128,-28.5 389.261,-28.5 389.261,-0.5 282.128,-0.5"/>
<text text-anchor="start" x="290.128" y="-16.5" font-family="Helvetica,sans-Serif" font-size="10.00">libraries/AC_WPNav</text>
<text text-anchor="middle" x="335.694" y="-6.5" font-family="Helvetica,sans-Serif" font-size="10.00">/AC_WPNav.cpp</text>
</a>
</g>
</g>
<!-- Node5&#45;&gt;Node6 -->
<g id="edge5" class="edge"><title>Node5&#45;&gt;Node6</title>
<path fill="none" stroke="midnightblue" d="M335.694,-55.1641C335.694,-46.1693 335.694,-36.2205 335.694,-28.5369"/>
<polygon fill="midnightblue" stroke="midnightblue" points="332.194,-55.4463 335.694,-65.4464 339.194,-55.4464 332.194,-55.4463"/>
</g>
</g>
</svg>
