<?xml version="1.0" encoding="UTF-8" standalone="no"?>
<!DOCTYPE svg PUBLIC "-//W3C//DTD SVG 1.1//EN"
 "http://www.w3.org/Graphics/SVG/1.1/DTD/svg11.dtd">
<!-- Generated by graphviz version 2.38.0 (20140413.2041)
 -->
<!-- Title: libraries/AC_AttitudeControl/AC_AttitudeControl.h Pages: 1 -->
<svg width="871pt" height="232pt"
 viewBox="0.00 0.00 871.26 232.00" xmlns="http://www.w3.org/2000/svg" xmlns:xlink="http://www.w3.org/1999/xlink">
<g id="graph0" class="graph" transform="scale(1 1) rotate(0) translate(4 228)">
<title>libraries/AC_AttitudeControl/AC_AttitudeControl.h</title>
<polygon fill="white" stroke="none" points="-4,4 -4,-228 867.261,-228 867.261,4 -4,4"/>
<!-- Node1 -->
<g id="node1" class="node"><title>Node1</title>
<polygon fill="#bfbfbf" stroke="black" points="314,-195.5 314,-223.5 453.389,-223.5 453.389,-195.5 314,-195.5"/>
<text text-anchor="start" x="322" y="-211.5" font-family="Helvetica,sans-Serif" font-size="10.00">libraries/AC_AttitudeControl</text>
<text text-anchor="middle" x="383.694" y="-201.5" font-family="Helvetica,sans-Serif" font-size="10.00">/AC_AttitudeControl.h</text>
</g>
<!-- Node2 -->
<g id="node2" class="node"><title>Node2</title>
<g id="a_node2"><a xlink:href="$AC__AttitudeControl_8cpp.html" xlink:title="libraries/AC_AttitudeControl\l/AC_AttitudeControl.cpp">
<polygon fill="white" stroke="black" points="0,-130.5 0,-158.5 139.389,-158.5 139.389,-130.5 0,-130.5"/>
<text text-anchor="start" x="8" y="-146.5" font-family="Helvetica,sans-Serif" font-size="10.00">libraries/AC_AttitudeControl</text>
<text text-anchor="middle" x="69.6943" y="-136.5" font-family="Helvetica,sans-Serif" font-size="10.00">/AC_AttitudeControl.cpp</text>
</a>
</g>
</g>
<!-- Node1&#45;&gt;Node2 -->
<g id="edge1" class="edge"><title>Node1&#45;&gt;Node2</title>
<path fill="none" stroke="midnightblue" d="M308.609,-193.435C255.597,-182.799 185.278,-168.69 134.672,-158.537"/>
<polygon fill="midnightblue" stroke="midnightblue" points="308.14,-196.911 318.633,-195.446 309.517,-190.048 308.14,-196.911"/>
</g>
<!-- Node3 -->
<g id="node3" class="node"><title>Node3</title>
<g id="a_node3"><a xlink:href="$AC__AttitudeControl__Heli_8h.html" xlink:title="ArduCopter attitude control library for traditional helicopters. ">
<polygon fill="white" stroke="black" points="157,-130.5 157,-158.5 296.389,-158.5 296.389,-130.5 157,-130.5"/>
<text text-anchor="start" x="165" y="-146.5" font-family="Helvetica,sans-Serif" font-size="10.00">libraries/AC_AttitudeControl</text>
<text text-anchor="middle" x="226.694" y="-136.5" font-family="Helvetica,sans-Serif" font-size="10.00">/AC_AttitudeControl_Heli.h</text>
</a>
</g>
</g>
<!-- Node1&#45;&gt;Node3 -->
<g id="edge2" class="edge"><title>Node1&#45;&gt;Node3</title>
<path fill="none" stroke="midnightblue" d="M341.61,-191.613C315.73,-181.228 283.066,-168.12 259.183,-158.537"/>
<polygon fill="midnightblue" stroke="midnightblue" points="340.58,-194.97 351.164,-195.446 343.187,-188.474 340.58,-194.97"/>
</g>
<!-- Node5 -->
<g id="node5" class="node"><title>Node5</title>
<g id="a_node5"><a xlink:href="$AC__AttitudeControl__Multi_8h.html" xlink:title="ArduCopter attitude control library. ">
<polygon fill="white" stroke="black" points="313.998,-130.5 313.998,-158.5 453.391,-158.5 453.391,-130.5 313.998,-130.5"/>
<text text-anchor="start" x="321.998" y="-146.5" font-family="Helvetica,sans-Serif" font-size="10.00">libraries/AC_AttitudeControl</text>
<text text-anchor="middle" x="383.694" y="-136.5" font-family="Helvetica,sans-Serif" font-size="10.00">/AC_AttitudeControl_Multi.h</text>
</a>
</g>
</g>
<!-- Node1&#45;&gt;Node5 -->
<g id="edge4" class="edge"><title>Node1&#45;&gt;Node5</title>
<path fill="none" stroke="midnightblue" d="M383.694,-185.164C383.694,-176.169 383.694,-166.221 383.694,-158.537"/>
<polygon fill="midnightblue" stroke="midnightblue" points="380.194,-185.446 383.694,-195.446 387.194,-185.446 380.194,-185.446"/>
</g>
<!-- Node7 -->
<g id="node7" class="node"><title>Node7</title>
<g id="a_node7"><a xlink:href="$AC__PosControl_8h.html" xlink:title="libraries/AC_AttitudeControl\l/AC_PosControl.h">
<polygon fill="white" stroke="black" points="516,-130.5 516,-158.5 655.389,-158.5 655.389,-130.5 516,-130.5"/>
<text text-anchor="start" x="524" y="-146.5" font-family="Helvetica,sans-Serif" font-size="10.00">libraries/AC_AttitudeControl</text>
<text text-anchor="middle" x="585.694" y="-136.5" font-family="Helvetica,sans-Serif" font-size="10.00">/AC_PosControl.h</text>
</a>
</g>
</g>
<!-- Node1&#45;&gt;Node7 -->
<g id="edge6" class="edge"><title>Node1&#45;&gt;Node7</title>
<path fill="none" stroke="midnightblue" d="M435.22,-192.43C468.91,-181.923 512.353,-168.374 543.893,-158.537"/>
<polygon fill="midnightblue" stroke="midnightblue" points="434.053,-189.128 425.549,-195.446 436.137,-195.81 434.053,-189.128"/>
</g>
<!-- Node11 -->
<g id="node11" class="node"><title>Node11</title>
<g id="a_node11"><a xlink:href="$AC__WPNav_8h.html" xlink:title="libraries/AC_WPNav\l/AC_WPNav.h">
<polygon fill="white" stroke="black" points="756.128,-65.5 756.128,-93.5 863.261,-93.5 863.261,-65.5 756.128,-65.5"/>
<text text-anchor="start" x="764.128" y="-81.5" font-family="Helvetica,sans-Serif" font-size="10.00">libraries/AC_WPNav</text>
<text text-anchor="middle" x="809.694" y="-71.5" font-family="Helvetica,sans-Serif" font-size="10.00">/AC_WPNav.h</text>
</a>
</g>
</g>
<!-- Node1&#45;&gt;Node11 -->
<g id="edge12" class="edge"><title>Node1&#45;&gt;Node11</title>
<path fill="none" stroke="midnightblue" d="M463.47,-201.357C520.682,-194.585 598.944,-181.91 664.694,-159 712.541,-142.328 763.541,-111.184 790.461,-93.5499"/>
<polygon fill="midnightblue" stroke="midnightblue" points="462.935,-197.896 453.4,-202.514 463.734,-204.85 462.935,-197.896"/>
</g>
<!-- Node4 -->
<g id="node4" class="node"><title>Node4</title>
<g id="a_node4"><a xlink:href="$AC__AttitudeControl__Heli_8cpp.html" xlink:title="libraries/AC_AttitudeControl\l/AC_AttitudeControl_Heli.cpp">
<polygon fill="white" stroke="black" points="141.66,-65.5 141.66,-93.5 287.729,-93.5 287.729,-65.5 141.66,-65.5"/>
<text text-anchor="start" x="149.66" y="-81.5" font-family="Helvetica,sans-Serif" font-size="10.00">libraries/AC_AttitudeControl</text>
<text text-anchor="middle" x="214.694" y="-71.5" font-family="Helvetica,sans-Serif" font-size="10.00">/AC_AttitudeControl_Heli.cpp</text>
</a>
</g>
</g>
<!-- Node3&#45;&gt;Node4 -->
<g id="edge3" class="edge"><title>Node3&#45;&gt;Node4</title>
<path fill="none" stroke="midnightblue" d="M222.306,-120.46C220.578,-111.388 218.657,-101.305 217.178,-93.5369"/>
<polygon fill="midnightblue" stroke="midnightblue" points="218.899,-121.278 224.208,-130.446 225.775,-119.968 218.899,-121.278"/>
</g>
<!-- Node6 -->
<g id="node6" class="node"><title>Node6</title>
<g id="a_node6"><a xlink:href="$AC__AttitudeControl__Multi_8cpp.html" xlink:title="libraries/AC_AttitudeControl\l/AC_AttitudeControl_Multi.cpp">
<polygon fill="white" stroke="black" points="305.717,-65.5 305.717,-93.5 455.672,-93.5 455.672,-65.5 305.717,-65.5"/>
<text text-anchor="start" x="313.717" y="-81.5" font-family="Helvetica,sans-Serif" font-size="10.00">libraries/AC_AttitudeControl</text>
<text text-anchor="middle" x="380.694" y="-71.5" font-family="Helvetica,sans-Serif" font-size="10.00">/AC_AttitudeControl_Multi.cpp</text>
</a>
</g>
</g>
<!-- Node5&#45;&gt;Node6 -->
<g id="edge5" class="edge"><title>Node5&#45;&gt;Node6</title>
<path fill="none" stroke="midnightblue" d="M382.583,-120.164C382.155,-111.169 381.681,-101.221 381.315,-93.5369"/>
<polygon fill="midnightblue" stroke="midnightblue" points="379.101,-120.624 383.073,-130.446 386.093,-120.291 379.101,-120.624"/>
</g>
<!-- Node8 -->
<g id="node8" class="node"><title>Node8</title>
<g id="a_node8"><a xlink:href="$AC__PosControl_8cpp.html" xlink:title="libraries/AC_AttitudeControl\l/AC_PosControl.cpp">
<polygon fill="white" stroke="black" points="474,-65.5 474,-93.5 613.389,-93.5 613.389,-65.5 474,-65.5"/>
<text text-anchor="start" x="482" y="-81.5" font-family="Helvetica,sans-Serif" font-size="10.00">libraries/AC_AttitudeControl</text>
<text text-anchor="middle" x="543.694" y="-71.5" font-family="Helvetica,sans-Serif" font-size="10.00">/AC_PosControl.cpp</text>
</a>
</g>
</g>
<!-- Node7&#45;&gt;Node8 -->
<g id="edge7" class="edge"><title>Node7&#45;&gt;Node8</title>
<path fill="none" stroke="midnightblue" d="M571.314,-121.93C565.022,-112.491 557.846,-101.727 552.386,-93.5369"/>
<polygon fill="midnightblue" stroke="midnightblue" points="568.533,-124.067 576.992,-130.446 574.357,-120.184 568.533,-124.067"/>
</g>
<!-- Node9 -->
<g id="node9" class="node"><title>Node9</title>
<g id="a_node9"><a xlink:href="$AC__Circle_8h.html" xlink:title="libraries/AC_WPNav\l/AC_Circle.h">
<polygon fill="white" stroke="black" points="631.128,-65.5 631.128,-93.5 738.261,-93.5 738.261,-65.5 631.128,-65.5"/>
<text text-anchor="start" x="639.128" y="-81.5" font-family="Helvetica,sans-Serif" font-size="10.00">libraries/AC_WPNav</text>
<text text-anchor="middle" x="684.694" y="-71.5" font-family="Helvetica,sans-Serif" font-size="10.00">/AC_Circle.h</text>
</a>
</g>
</g>
<!-- Node7&#45;&gt;Node9 -->
<g id="edge8" class="edge"><title>Node7&#45;&gt;Node9</title>
<path fill="none" stroke="midnightblue" d="M615.076,-124.803C630.892,-114.738 650.011,-102.572 664.208,-93.5369"/>
<polygon fill="midnightblue" stroke="midnightblue" points="612.765,-122.125 606.207,-130.446 616.523,-128.03 612.765,-122.125"/>
</g>
<!-- Node7&#45;&gt;Node11 -->
<g id="edge10" class="edge"><title>Node7&#45;&gt;Node11</title>
<path fill="none" stroke="midnightblue" d="M641.872,-127.7C679.363,-117.156 728.066,-103.458 763.341,-93.5369"/>
<polygon fill="midnightblue" stroke="midnightblue" points="640.786,-124.37 632.107,-130.446 642.681,-131.108 640.786,-124.37"/>
</g>
<!-- Node10 -->
<g id="node10" class="node"><title>Node10</title>
<g id="a_node10"><a xlink:href="$AC__Circle_8cpp.html" xlink:title="libraries/AC_WPNav\l/AC_Circle.cpp">
<polygon fill="white" stroke="black" points="631.128,-0.5 631.128,-28.5 738.261,-28.5 738.261,-0.5 631.128,-0.5"/>
<text text-anchor="start" x="639.128" y="-16.5" font-family="Helvetica,sans-Serif" font-size="10.00">libraries/AC_WPNav</text>
<text text-anchor="middle" x="684.694" y="-6.5" font-family="Helvetica,sans-Serif" font-size="10.00">/AC_Circle.cpp</text>
</a>
</g>
</g>
<!-- Node9&#45;&gt;Node10 -->
<g id="edge9" class="edge"><title>Node9&#45;&gt;Node10</title>
<path fill="none" stroke="midnightblue" d="M684.694,-55.1641C684.694,-46.1693 684.694,-36.2205 684.694,-28.5369"/>
<polygon fill="midnightblue" stroke="midnightblue" points="681.194,-55.4463 684.694,-65.4464 688.194,-55.4464 681.194,-55.4463"/>
</g>
<!-- Node12 -->
<g id="node12" class="node"><title>Node12</title>
<g id="a_node12"><a xlink:href="$AC__WPNav_8cpp.html" xlink:title="libraries/AC_WPNav\l/AC_WPNav.cpp">
<polygon fill="white" stroke="black" points="756.128,-0.5 756.128,-28.5 863.261,-28.5 863.261,-0.5 756.128,-0.5"/>
<text text-anchor="start" x="764.128" y="-16.5" font-family="Helvetica,sans-Serif" font-size="10.00">libraries/AC_WPNav</text>
<text text-anchor="middle" x="809.694" y="-6.5" font-family="Helvetica,sans-Serif" font-size="10.00">/AC_WPNav.cpp</text>
</a>
</g>
</g>
<!-- Node11&#45;&gt;Node12 -->
<g id="edge11" class="edge"><title>Node11&#45;&gt;Node12</title>
<path fill="none" stroke="midnightblue" d="M809.694,-55.1641C809.694,-46.1693 809.694,-36.2205 809.694,-28.5369"/>
<polygon fill="midnightblue" stroke="midnightblue" points="806.194,-55.4463 809.694,-65.4464 813.194,-55.4464 806.194,-55.4463"/>
</g>
</g>
</svg>
