<?xml version="1.0" encoding="UTF-8" standalone="no"?>
<!DOCTYPE svg PUBLIC "-//W3C//DTD SVG 1.1//EN"
 "http://www.w3.org/Graphics/SVG/1.1/DTD/svg11.dtd">
<!-- Generated by graphviz version 2.38.0 (20140413.2041)
 -->
<!-- Title: libraries/AC_PrecLand/AC_PrecLand_Backend.h Pages: 1 -->
<svg width="453pt" height="167pt"
 viewBox="0.00 0.00 452.63 167.00" xmlns="http://www.w3.org/2000/svg" xmlns:xlink="http://www.w3.org/1999/xlink">
<g id="graph0" class="graph" transform="scale(1 1) rotate(0) translate(4 163)">
<title>libraries/AC_PrecLand/AC_PrecLand_Backend.h</title>
<polygon fill="white" stroke="none" points="-4,4 -4,-163 448.635,-163 448.635,4 -4,4"/>
<!-- Node1 -->
<g id="node1" class="node"><title>Node1</title>
<polygon fill="#bfbfbf" stroke="black" points="165.394,-130.5 165.394,-158.5 299.25,-158.5 299.25,-130.5 165.394,-130.5"/>
<text text-anchor="start" x="173.394" y="-146.5" font-family="Helvetica,sans-Serif" font-size="10.00">libraries/AC_PrecLand</text>
<text text-anchor="middle" x="232.322" y="-136.5" font-family="Helvetica,sans-Serif" font-size="10.00">/AC_PrecLand_Backend.h</text>
</g>
<!-- Node2 -->
<g id="node2" class="node"><title>Node2</title>
<g id="a_node2"><a xlink:href="$AC__PrecLand_8cpp.html" xlink:title="libraries/AC_PrecLand\l/AC_PrecLand.cpp">
<polygon fill="white" stroke="black" points="174.298,-0.5 174.298,-28.5 290.347,-28.5 290.347,-0.5 174.298,-0.5"/>
<text text-anchor="start" x="182.298" y="-16.5" font-family="Helvetica,sans-Serif" font-size="10.00">libraries/AC_PrecLand</text>
<text text-anchor="middle" x="232.322" y="-6.5" font-family="Helvetica,sans-Serif" font-size="10.00">/AC_PrecLand.cpp</text>
</a>
</g>
</g>
<!-- Node1&#45;&gt;Node2 -->
<g id="edge1" class="edge"><title>Node1&#45;&gt;Node2</title>
<path fill="none" stroke="midnightblue" d="M232.322,-120.25C232.322,-93.4951 232.322,-50.4729 232.322,-28.836"/>
<polygon fill="midnightblue" stroke="midnightblue" points="228.822,-120.284 232.322,-130.284 235.822,-120.284 228.822,-120.284"/>
</g>
<!-- Node3 -->
<g id="node3" class="node"><title>Node3</title>
<g id="a_node3"><a xlink:href="$AC__PrecLand__Companion_8h.html" xlink:title="libraries/AC_PrecLand\l/AC_PrecLand_Companion.h">
<polygon fill="white" stroke="black" points="58.2808,-65.5 58.2808,-93.5 204.364,-93.5 204.364,-65.5 58.2808,-65.5"/>
<text text-anchor="start" x="66.2808" y="-81.5" font-family="Helvetica,sans-Serif" font-size="10.00">libraries/AC_PrecLand</text>
<text text-anchor="middle" x="131.322" y="-71.5" font-family="Helvetica,sans-Serif" font-size="10.00">/AC_PrecLand_Companion.h</text>
</a>
</g>
</g>
<!-- Node1&#45;&gt;Node3 -->
<g id="edge2" class="edge"><title>Node1&#45;&gt;Node3</title>
<path fill="none" stroke="midnightblue" d="M202.799,-125.084C186.576,-114.965 166.842,-102.656 152.223,-93.5369"/>
<polygon fill="midnightblue" stroke="midnightblue" points="201.058,-128.124 211.395,-130.446 204.763,-122.184 201.058,-128.124"/>
</g>
<!-- Node5 -->
<g id="node5" class="node"><title>Node5</title>
<g id="a_node5"><a xlink:href="$AC__PrecLand__IRLock_8h.html" xlink:title="libraries/AC_PrecLand\l/AC_PrecLand_IRLock.h">
<polygon fill="white" stroke="black" points="260.291,-65.5 260.291,-93.5 386.354,-93.5 386.354,-65.5 260.291,-65.5"/>
<text text-anchor="start" x="268.291" y="-81.5" font-family="Helvetica,sans-Serif" font-size="10.00">libraries/AC_PrecLand</text>
<text text-anchor="middle" x="323.322" y="-71.5" font-family="Helvetica,sans-Serif" font-size="10.00">/AC_PrecLand_IRLock.h</text>
</a>
</g>
</g>
<!-- Node1&#45;&gt;Node5 -->
<g id="edge5" class="edge"><title>Node1&#45;&gt;Node5</title>
<path fill="none" stroke="midnightblue" d="M259.738,-124.52C274.196,-114.511 291.563,-102.487 304.491,-93.5369"/>
<polygon fill="midnightblue" stroke="midnightblue" points="257.407,-121.877 251.178,-130.446 261.392,-127.632 257.407,-121.877"/>
</g>
<!-- Node3&#45;&gt;Node2 -->
<g id="edge3" class="edge"><title>Node3&#45;&gt;Node2</title>
<path fill="none" stroke="midnightblue" d="M160.846,-60.0843C177.068,-49.9655 196.802,-37.6559 211.422,-28.5369"/>
<polygon fill="midnightblue" stroke="midnightblue" points="158.882,-57.1842 152.25,-65.4464 162.587,-63.1235 158.882,-57.1842"/>
</g>
<!-- Node4 -->
<g id="node4" class="node"><title>Node4</title>
<g id="a_node4"><a xlink:href="$AC__PrecLand__Companion_8cpp.html" xlink:title="libraries/AC_PrecLand\l/AC_PrecLand_Companion.cpp">
<polygon fill="white" stroke="black" points="0,-0.5 0,-28.5 156.645,-28.5 156.645,-0.5 0,-0.5"/>
<text text-anchor="start" x="8" y="-16.5" font-family="Helvetica,sans-Serif" font-size="10.00">libraries/AC_PrecLand</text>
<text text-anchor="middle" x="78.3223" y="-6.5" font-family="Helvetica,sans-Serif" font-size="10.00">/AC_PrecLand_Companion.cpp</text>
</a>
</g>
</g>
<!-- Node3&#45;&gt;Node4 -->
<g id="edge4" class="edge"><title>Node3&#45;&gt;Node4</title>
<path fill="none" stroke="midnightblue" d="M113.666,-57.5121C105.61,-47.9361 96.3221,-36.896 89.2898,-28.5369"/>
<polygon fill="midnightblue" stroke="midnightblue" points="111.225,-60.0473 120.341,-65.4464 116.581,-55.5409 111.225,-60.0473"/>
</g>
<!-- Node5&#45;&gt;Node2 -->
<g id="edge6" class="edge"><title>Node5&#45;&gt;Node2</title>
<path fill="none" stroke="midnightblue" d="M295.907,-59.52C281.449,-49.5107 264.081,-37.4871 251.153,-28.5369"/>
<polygon fill="midnightblue" stroke="midnightblue" points="294.253,-62.6319 304.467,-65.4464 298.237,-56.8765 294.253,-62.6319"/>
</g>
<!-- Node6 -->
<g id="node6" class="node"><title>Node6</title>
<g id="a_node6"><a xlink:href="$AC__PrecLand__IRLock_8cpp.html" xlink:title="libraries/AC_PrecLand\l/AC_PrecLand_IRLock.cpp">
<polygon fill="white" stroke="black" points="308.01,-0.5 308.01,-28.5 444.635,-28.5 444.635,-0.5 308.01,-0.5"/>
<text text-anchor="start" x="316.01" y="-16.5" font-family="Helvetica,sans-Serif" font-size="10.00">libraries/AC_PrecLand</text>
<text text-anchor="middle" x="376.322" y="-6.5" font-family="Helvetica,sans-Serif" font-size="10.00">/AC_PrecLand_IRLock.cpp</text>
</a>
</g>
</g>
<!-- Node5&#45;&gt;Node6 -->
<g id="edge7" class="edge"><title>Node5&#45;&gt;Node6</title>
<path fill="none" stroke="midnightblue" d="M340.979,-57.5121C349.035,-47.9361 358.322,-36.896 365.355,-28.5369"/>
<polygon fill="midnightblue" stroke="midnightblue" points="338.063,-55.5409 334.304,-65.4464 343.42,-60.0473 338.063,-55.5409"/>
</g>
</g>
</svg>
