<?xml version="1.0" encoding="UTF-8" standalone="no"?>
<!DOCTYPE svg PUBLIC "-//W3C//DTD SVG 1.1//EN"
 "http://www.w3.org/Graphics/SVG/1.1/DTD/svg11.dtd">
<!-- Generated by graphviz version 2.38.0 (20140413.2041)
 -->
<!-- Title: setup Pages: 1 -->
<svg width="1021pt" height="319pt"
 viewBox="0.00 0.00 1020.82 319.00" xmlns="http://www.w3.org/2000/svg" xmlns:xlink="http://www.w3.org/1999/xlink">
<g id="graph0" class="graph" transform="scale(1 1) rotate(0) translate(4 315)">
<title>setup</title>
<polygon fill="white" stroke="none" points="-4,4 -4,-315 1016.82,-315 1016.82,4 -4,4"/>
<!-- Node1 -->
<g id="node1" class="node"><title>Node1</title>
<polygon fill="#bfbfbf" stroke="black" points="0,-131.5 0,-149.5 40.4629,-149.5 40.4629,-131.5 0,-131.5"/>
<text text-anchor="middle" x="20.2314" y="-137.5" font-family="Helvetica,sans-Serif" font-size="10.00">setup</text>
</g>
<!-- Node2 -->
<g id="node2" class="node"><title>Node2</title>
<g id="a_node2"><a xlink:href="$classAP__HAL_1_1Print.html#ad337ce3f7977411b7d34d47a51e5737e" xlink:title="AP_HAL::Print::println">
<polygon fill="white" stroke="black" points="417.836,-160.5 417.836,-178.5 531.102,-178.5 531.102,-160.5 417.836,-160.5"/>
<text text-anchor="middle" x="474.469" y="-166.5" font-family="Helvetica,sans-Serif" font-size="10.00">AP_HAL::Print::println</text>
</a>
</g>
</g>
<!-- Node1&#45;&gt;Node2 -->
<g id="edge1" class="edge"><title>Node1&#45;&gt;Node2</title>
<path fill="none" stroke="midnightblue" d="M40.5306,-141.827C77.3865,-144.355 160.341,-150.007 230.187,-154.5 290.113,-158.355 358.356,-162.545 407.282,-165.515"/>
<polygon fill="midnightblue" stroke="midnightblue" points="407.226,-169.017 417.419,-166.129 407.649,-162.03 407.226,-169.017"/>
</g>
<!-- Node6 -->
<g id="node6" class="node"><title>Node6</title>
<g id="a_node6"><a xlink:href="$classAP__Param.html#a7a2885d74aa1c400b62b7464a53ae933" xlink:title="AP_Param::set_object\l_value">
<polygon fill="white" stroke="black" points="77.5762,-35.5 77.5762,-63.5 193.073,-63.5 193.073,-35.5 77.5762,-35.5"/>
<text text-anchor="start" x="85.5762" y="-51.5" font-family="Helvetica,sans-Serif" font-size="10.00">AP_Param::set_object</text>
<text text-anchor="middle" x="135.325" y="-41.5" font-family="Helvetica,sans-Serif" font-size="10.00">_value</text>
</a>
</g>
</g>
<!-- Node1&#45;&gt;Node6 -->
<g id="edge6" class="edge"><title>Node1&#45;&gt;Node6</title>
<path fill="none" stroke="midnightblue" d="M31.6753,-131.315C42.6755,-121.712 60.572,-106.287 76.4629,-93.5 86.3486,-85.545 97.3947,-77.0513 107.165,-69.6692"/>
<polygon fill="midnightblue" stroke="midnightblue" points="109.469,-72.3155 115.361,-63.5096 105.264,-66.7196 109.469,-72.3155"/>
</g>
<!-- Node8 -->
<g id="node8" class="node"><title>Node8</title>
<g id="a_node8"><a xlink:href="$classAP__Airspeed.html#a7499575104f24c6502e1148c353d9637" xlink:title="AP_Airspeed::init">
<polygon fill="white" stroke="black" points="88.9702,-219.5 88.9702,-237.5 181.679,-237.5 181.679,-219.5 88.9702,-219.5"/>
<text text-anchor="middle" x="135.325" y="-225.5" font-family="Helvetica,sans-Serif" font-size="10.00">AP_Airspeed::init</text>
</a>
</g>
</g>
<!-- Node1&#45;&gt;Node8 -->
<g id="edge8" class="edge"><title>Node1&#45;&gt;Node8</title>
<path fill="none" stroke="midnightblue" d="M32.9084,-149.586C52.2095,-164.605 90.9757,-194.769 114.591,-213.145"/>
<polygon fill="midnightblue" stroke="midnightblue" points="112.5,-215.953 122.542,-219.331 116.799,-210.428 112.5,-215.953"/>
</g>
<!-- Node13 -->
<g id="node13" class="node"><title>Node13</title>
<g id="a_node13"><a xlink:href="$classAP__Airspeed.html#afb7c91590b3efc00ee2d72cc6bcc856f" xlink:title="AP_Airspeed::calibrate">
<polygon fill="white" stroke="black" points="76.4629,-103.5 76.4629,-121.5 194.187,-121.5 194.187,-103.5 76.4629,-103.5"/>
<text text-anchor="middle" x="135.325" y="-109.5" font-family="Helvetica,sans-Serif" font-size="10.00">AP_Airspeed::calibrate</text>
</a>
</g>
</g>
<!-- Node1&#45;&gt;Node13 -->
<g id="edge14" class="edge"><title>Node1&#45;&gt;Node13</title>
<path fill="none" stroke="midnightblue" d="M40.6729,-135.687C53.6432,-132.475 71.2767,-128.11 87.7454,-124.032"/>
<polygon fill="midnightblue" stroke="midnightblue" points="88.9311,-127.344 97.7969,-121.544 87.2488,-120.55 88.9311,-127.344"/>
</g>
<!-- Node3 -->
<g id="node3" class="node"><title>Node3</title>
<g id="a_node3"><a xlink:href="$classAP__HAL_1_1Print.html#acfe80773011eb17dfb52c2fba517a093" xlink:title="AP_HAL::Print::print">
<polygon fill="white" stroke="black" points="764.194,-160.5 764.194,-178.5 869.677,-178.5 869.677,-160.5 764.194,-160.5"/>
<text text-anchor="middle" x="816.936" y="-166.5" font-family="Helvetica,sans-Serif" font-size="10.00">AP_HAL::Print::print</text>
</a>
</g>
</g>
<!-- Node2&#45;&gt;Node3 -->
<g id="edge2" class="edge"><title>Node2&#45;&gt;Node3</title>
<path fill="none" stroke="midnightblue" d="M531.309,-169.5C592.425,-169.5 690.154,-169.5 753.694,-169.5"/>
<polygon fill="midnightblue" stroke="midnightblue" points="753.976,-173 763.976,-169.5 753.976,-166 753.976,-173"/>
</g>
<!-- Node5 -->
<g id="node5" class="node"><title>Node5</title>
<g id="a_node5"><a xlink:href="$classAP__HAL_1_1Print.html#a169b128f9e22f0c15883768f580541a2" xlink:title="AP_HAL::Print::println">
<polygon fill="white" stroke="black" points="597.692,-141.5 597.692,-159.5 710.958,-159.5 710.958,-141.5 597.692,-141.5"/>
<text text-anchor="middle" x="654.325" y="-147.5" font-family="Helvetica,sans-Serif" font-size="10.00">AP_HAL::Print::println</text>
</a>
</g>
</g>
<!-- Node2&#45;&gt;Node5 -->
<g id="edge4" class="edge"><title>Node2&#45;&gt;Node5</title>
<path fill="none" stroke="midnightblue" d="M531.256,-163.54C549.049,-161.64 568.907,-159.518 587.351,-157.548"/>
<polygon fill="midnightblue" stroke="midnightblue" points="587.859,-161.014 597.431,-156.471 587.115,-154.053 587.859,-161.014"/>
</g>
<!-- Node4 -->
<g id="node4" class="node"><title>Node4</title>
<g id="a_node4"><a xlink:href="$classAP__HAL_1_1Print.html#acc65391952a43334f8f5c9bef341f501" xlink:title="AP_HAL::Print::write">
<polygon fill="white" stroke="black" points="905.677,-160.5 905.677,-178.5 1012.82,-178.5 1012.82,-160.5 905.677,-160.5"/>
<text text-anchor="middle" x="959.248" y="-166.5" font-family="Helvetica,sans-Serif" font-size="10.00">AP_HAL::Print::write</text>
</a>
</g>
</g>
<!-- Node3&#45;&gt;Node4 -->
<g id="edge3" class="edge"><title>Node3&#45;&gt;Node4</title>
<path fill="none" stroke="midnightblue" d="M869.784,-169.5C878.201,-169.5 886.995,-169.5 895.635,-169.5"/>
<polygon fill="midnightblue" stroke="midnightblue" points="895.675,-173 905.675,-169.5 895.675,-166 895.675,-173"/>
</g>
<!-- Node5&#45;&gt;Node3 -->
<g id="edge5" class="edge"><title>Node5&#45;&gt;Node3</title>
<path fill="none" stroke="midnightblue" d="M711.048,-157.092C724.9,-158.731 739.832,-160.497 753.964,-162.169"/>
<polygon fill="midnightblue" stroke="midnightblue" points="753.744,-165.667 764.086,-163.366 754.567,-158.716 753.744,-165.667"/>
</g>
<!-- Node7 -->
<g id="node7" class="node"><title>Node7</title>
<g id="a_node7"><a xlink:href="$classAP__Param.html#acd4b14f793c37f162e298761d2155ca6" xlink:title="AP_Param::set_value">
<polygon fill="white" stroke="black" points="242.975,-0.5 242.975,-18.5 355.693,-18.5 355.693,-0.5 242.975,-0.5"/>
<text text-anchor="middle" x="299.334" y="-6.5" font-family="Helvetica,sans-Serif" font-size="10.00">AP_Param::set_value</text>
</a>
</g>
</g>
<!-- Node6&#45;&gt;Node7 -->
<g id="edge7" class="edge"><title>Node6&#45;&gt;Node7</title>
<path fill="none" stroke="midnightblue" d="M193.443,-35.3975C212.506,-30.6909 233.507,-25.5058 251.678,-21.0194"/>
<polygon fill="midnightblue" stroke="midnightblue" points="252.582,-24.4014 261.451,-18.6063 250.904,-17.6055 252.582,-24.4014"/>
</g>
<!-- Node9 -->
<g id="node9" class="node"><title>Node9</title>
<g id="a_node9"><a xlink:href="$classAirspeed__Calibration.html#ae88c0e8719c02f942e6cafeb7cf46d1e" xlink:title="Airspeed_Calibration\l::init">
<polygon fill="white" stroke="black" points="244.918,-235.5 244.918,-263.5 353.75,-263.5 353.75,-235.5 244.918,-235.5"/>
<text text-anchor="start" x="252.918" y="-251.5" font-family="Helvetica,sans-Serif" font-size="10.00">Airspeed_Calibration</text>
<text text-anchor="middle" x="299.334" y="-241.5" font-family="Helvetica,sans-Serif" font-size="10.00">::init</text>
</a>
</g>
</g>
<!-- Node8&#45;&gt;Node9 -->
<g id="edge9" class="edge"><title>Node8&#45;&gt;Node9</title>
<path fill="none" stroke="midnightblue" d="M181.884,-234.406C198.236,-236.525 216.987,-238.956 234.597,-241.238"/>
<polygon fill="midnightblue" stroke="midnightblue" points="234.439,-244.747 244.806,-242.562 235.339,-237.805 234.439,-244.747"/>
</g>
<!-- Node10 -->
<g id="node10" class="node"><title>Node10</title>
<g id="a_node10"><a xlink:href="$classAP__Airspeed__Analog.html#a378d85fdc155c83dcee1858040712904" xlink:title="AP_Airspeed_Analog\l::init">
<polygon fill="white" stroke="black" points="243.8,-282.5 243.8,-310.5 354.868,-310.5 354.868,-282.5 243.8,-282.5"/>
<text text-anchor="start" x="251.8" y="-298.5" font-family="Helvetica,sans-Serif" font-size="10.00">AP_Airspeed_Analog</text>
<text text-anchor="middle" x="299.334" y="-288.5" font-family="Helvetica,sans-Serif" font-size="10.00">::init</text>
</a>
</g>
</g>
<!-- Node8&#45;&gt;Node10 -->
<g id="edge10" class="edge"><title>Node8&#45;&gt;Node10</title>
<path fill="none" stroke="midnightblue" d="M153.683,-237.608C172.309,-247.193 202.9,-262.403 230.187,-273.5 234.839,-275.392 239.711,-277.257 244.619,-279.057"/>
<polygon fill="midnightblue" stroke="midnightblue" points="243.461,-282.36 254.055,-282.429 245.816,-275.768 243.461,-282.36"/>
</g>
<!-- Node12 -->
<g id="node12" class="node"><title>Node12</title>
<g id="a_node12"><a xlink:href="$classAP__Airspeed__PX4.html#a0adbea999d3007107b1949ba08cb38d1" xlink:title="AP_Airspeed_PX4::init">
<polygon fill="white" stroke="black" points="240.748,-198.5 240.748,-216.5 357.92,-216.5 357.92,-198.5 240.748,-198.5"/>
<text text-anchor="middle" x="299.334" y="-204.5" font-family="Helvetica,sans-Serif" font-size="10.00">AP_Airspeed_PX4::init</text>
</a>
</g>
</g>
<!-- Node8&#45;&gt;Node12 -->
<g id="edge12" class="edge"><title>Node8&#45;&gt;Node12</title>
<path fill="none" stroke="midnightblue" d="M181.884,-222.594C196.998,-220.635 214.162,-218.411 230.579,-216.283"/>
<polygon fill="midnightblue" stroke="midnightblue" points="231.213,-219.73 240.68,-214.973 230.313,-212.788 231.213,-219.73"/>
</g>
<!-- Node11 -->
<g id="node11" class="node"><title>Node11</title>
<g id="a_node11"><a xlink:href="$classAP__HAL_1_1AnalogIn.html#aa1287db18a7b6b27286091af1f4bd5e5" xlink:title="AP_HAL::AnalogIn::channel">
<polygon fill="white" stroke="black" points="404.481,-287.5 404.481,-305.5 544.456,-305.5 544.456,-287.5 404.481,-287.5"/>
<text text-anchor="middle" x="474.469" y="-293.5" font-family="Helvetica,sans-Serif" font-size="10.00">AP_HAL::AnalogIn::channel</text>
</a>
</g>
</g>
<!-- Node10&#45;&gt;Node11 -->
<g id="edge11" class="edge"><title>Node10&#45;&gt;Node11</title>
<path fill="none" stroke="midnightblue" d="M355.115,-296.5C367.588,-296.5 381.084,-296.5 394.345,-296.5"/>
<polygon fill="midnightblue" stroke="midnightblue" points="394.419,-300 404.419,-296.5 394.419,-293 394.419,-300"/>
</g>
<!-- Node12&#45;&gt;Node2 -->
<g id="edge13" class="edge"><title>Node12&#45;&gt;Node2</title>
<path fill="none" stroke="midnightblue" d="M341.365,-198.495C365.641,-193.166 396.597,-186.372 422.44,-180.7"/>
<polygon fill="midnightblue" stroke="midnightblue" points="423.416,-184.069 432.433,-178.507 421.915,-177.232 423.416,-184.069"/>
</g>
<!-- Node13&#45;&gt;Node2 -->
<g id="edge21" class="edge"><title>Node13&#45;&gt;Node2</title>
<path fill="none" stroke="midnightblue" d="M189.746,-121.532C249.582,-131.648 346.495,-148.033 410.106,-158.787"/>
<polygon fill="midnightblue" stroke="midnightblue" points="409.575,-162.247 420.019,-160.463 410.742,-155.345 409.575,-162.247"/>
</g>
<!-- Node14 -->
<g id="node14" class="node"><title>Node14</title>
<g id="a_node14"><a xlink:href="$classAP__Airspeed.html#a2d265701a127bd336882e930cb996e86" xlink:title="AP_Airspeed::get_pressure">
<polygon fill="white" stroke="black" points="230.187,-84.5 230.187,-102.5 368.481,-102.5 368.481,-84.5 230.187,-84.5"/>
<text text-anchor="middle" x="299.334" y="-90.5" font-family="Helvetica,sans-Serif" font-size="10.00">AP_Airspeed::get_pressure</text>
</a>
</g>
</g>
<!-- Node13&#45;&gt;Node14 -->
<g id="edge15" class="edge"><title>Node13&#45;&gt;Node14</title>
<path fill="none" stroke="midnightblue" d="M194.356,-105.694C202.644,-104.722 211.282,-103.709 219.881,-102.701"/>
<polygon fill="midnightblue" stroke="midnightblue" points="220.411,-106.163 229.935,-101.522 219.595,-99.2104 220.411,-106.163"/>
</g>
<!-- Node19 -->
<g id="node19" class="node"><title>Node19</title>
<g id="a_node19"><a xlink:href="$classAP__HAL_1_1Scheduler.html#ab3175e2e6223ccfe82f957e41cc12b26" xlink:title="AP_HAL::Scheduler::\ldelay">
<polygon fill="white" stroke="black" points="244.085,-37.5 244.085,-65.5 354.583,-65.5 354.583,-37.5 244.085,-37.5"/>
<text text-anchor="start" x="252.085" y="-53.5" font-family="Helvetica,sans-Serif" font-size="10.00">AP_HAL::Scheduler::</text>
<text text-anchor="middle" x="299.334" y="-43.5" font-family="Helvetica,sans-Serif" font-size="10.00">delay</text>
</a>
</g>
</g>
<!-- Node13&#45;&gt;Node19 -->
<g id="edge20" class="edge"><title>Node13&#45;&gt;Node19</title>
<path fill="none" stroke="midnightblue" d="M157.806,-103.381C176.739,-95.4451 205.132,-83.7906 230.187,-74.5 235.236,-72.6278 240.517,-70.7337 245.81,-68.8781"/>
<polygon fill="midnightblue" stroke="midnightblue" points="246.996,-72.1714 255.301,-65.593 244.707,-65.5564 246.996,-72.1714"/>
</g>
<!-- Node15 -->
<g id="node15" class="node"><title>Node15</title>
<g id="a_node15"><a xlink:href="$classAP__Airspeed__PX4.html#ad85ff702141a4b835205d9aa1fb4b4f6" xlink:title="AP_Airspeed_PX4::get\l_differential_pressure">
<polygon fill="white" stroke="black" points="415.324,-113.5 415.324,-141.5 533.614,-141.5 533.614,-113.5 415.324,-113.5"/>
<text text-anchor="start" x="423.324" y="-129.5" font-family="Helvetica,sans-Serif" font-size="10.00">AP_Airspeed_PX4::get</text>
<text text-anchor="middle" x="474.469" y="-119.5" font-family="Helvetica,sans-Serif" font-size="10.00">_differential_pressure</text>
</a>
</g>
</g>
<!-- Node14&#45;&gt;Node15 -->
<g id="edge16" class="edge"><title>Node14&#45;&gt;Node15</title>
<path fill="none" stroke="midnightblue" d="M346.276,-102.522C364.359,-106.073 385.501,-110.225 405.296,-114.112"/>
<polygon fill="midnightblue" stroke="midnightblue" points="404.706,-117.563 415.194,-116.056 406.055,-110.695 404.706,-117.563"/>
</g>
<!-- Node16 -->
<g id="node16" class="node"><title>Node16</title>
<g id="a_node16"><a xlink:href="$classAP__Airspeed__Analog.html#a33da45ef81801b4971ed1afe3e2183fb" xlink:title="AP_Airspeed_Analog\l::get_differential_pressure">
<polygon fill="white" stroke="black" points="408.744,-66.5 408.744,-94.5 540.193,-94.5 540.193,-66.5 408.744,-66.5"/>
<text text-anchor="start" x="416.744" y="-82.5" font-family="Helvetica,sans-Serif" font-size="10.00">AP_Airspeed_Analog</text>
<text text-anchor="middle" x="474.469" y="-72.5" font-family="Helvetica,sans-Serif" font-size="10.00">::get_differential_pressure</text>
</a>
</g>
</g>
<!-- Node14&#45;&gt;Node16 -->
<g id="edge17" class="edge"><title>Node14&#45;&gt;Node16</title>
<path fill="none" stroke="midnightblue" d="M368.761,-88.3621C378.512,-87.6299 388.585,-86.8736 398.454,-86.1326"/>
<polygon fill="midnightblue" stroke="midnightblue" points="398.932,-89.6066 408.642,-85.3676 398.408,-82.6263 398.932,-89.6066"/>
</g>
<!-- Node17 -->
<g id="node17" class="node"><title>Node17</title>
<g id="a_node17"><a xlink:href="$classAP__HAL_1_1AnalogSource.html#add563a28e58fdd4af48ed983bbbecec8" xlink:title="AP_HAL::AnalogSource\l::set_pin">
<polygon fill="white" stroke="black" points="592.958,-80.5 592.958,-108.5 715.692,-108.5 715.692,-80.5 592.958,-80.5"/>
<text text-anchor="start" x="600.958" y="-96.5" font-family="Helvetica,sans-Serif" font-size="10.00">AP_HAL::AnalogSource</text>
<text text-anchor="middle" x="654.325" y="-86.5" font-family="Helvetica,sans-Serif" font-size="10.00">::set_pin</text>
</a>
</g>
</g>
<!-- Node16&#45;&gt;Node17 -->
<g id="edge18" class="edge"><title>Node16&#45;&gt;Node17</title>
<path fill="none" stroke="midnightblue" d="M540.434,-85.6137C554.168,-86.6949 568.727,-87.8408 582.66,-88.9376"/>
<polygon fill="midnightblue" stroke="midnightblue" points="582.431,-92.4303 592.675,-89.7259 582.98,-85.4519 582.431,-92.4303"/>
</g>
<!-- Node18 -->
<g id="node18" class="node"><title>Node18</title>
<g id="a_node18"><a xlink:href="$classAP__HAL_1_1AnalogSource.html#a0704aad3bf08570c35299a562202ed97" xlink:title="AP_HAL::AnalogSource\l::voltage_average_ratiometric">
<polygon fill="white" stroke="black" points="580.456,-33.5 580.456,-61.5 728.194,-61.5 728.194,-33.5 580.456,-33.5"/>
<text text-anchor="start" x="588.456" y="-49.5" font-family="Helvetica,sans-Serif" font-size="10.00">AP_HAL::AnalogSource</text>
<text text-anchor="middle" x="654.325" y="-39.5" font-family="Helvetica,sans-Serif" font-size="10.00">::voltage_average_ratiometric</text>
</a>
</g>
</g>
<!-- Node16&#45;&gt;Node18 -->
<g id="edge19" class="edge"><title>Node16&#45;&gt;Node18</title>
<path fill="none" stroke="midnightblue" d="M540.434,-68.4462C550.184,-66.6372 560.348,-64.7512 570.41,-62.8843"/>
<polygon fill="midnightblue" stroke="midnightblue" points="571.225,-66.293 580.418,-61.0273 569.948,-59.4105 571.225,-66.293"/>
</g>
</g>
</svg>
