<?xml version="1.0" encoding="UTF-8" standalone="no"?>
<!DOCTYPE svg PUBLIC "-//W3C//DTD SVG 1.1//EN"
 "http://www.w3.org/Graphics/SVG/1.1/DTD/svg11.dtd">
<!-- Generated by graphviz version 2.38.0 (20140413.2041)
 -->
<!-- Title: libraries/AP_HAL/AnalogIn.h Pages: 1 -->
<svg width="226pt" height="137pt"
 viewBox="0.00 0.00 226.36 137.00" xmlns="http://www.w3.org/2000/svg" xmlns:xlink="http://www.w3.org/1999/xlink">
<g id="graph0" class="graph" transform="scale(1 1) rotate(0) translate(4 133)">
<title>libraries/AP_HAL/AnalogIn.h</title>
<polygon fill="white" stroke="none" points="-4,4 -4,-133 222.364,-133 222.364,4 -4,4"/>
<!-- Node1 -->
<g id="node1" class="node"><title>Node1</title>
<polygon fill="#bfbfbf" stroke="black" points="12.0322,-110.5 12.0322,-128.5 154.771,-128.5 154.771,-110.5 12.0322,-110.5"/>
<text text-anchor="middle" x="83.4014" y="-116.5" font-family="Helvetica,sans-Serif" font-size="10.00">libraries/AP_HAL/AnalogIn.h</text>
</g>
<!-- Node2 -->
<g id="node2" class="node"><title>Node2</title>
<polygon fill="white" stroke="#bfbfbf" points="0,-55.5 0,-73.5 58.8027,-73.5 58.8027,-55.5 0,-55.5"/>
<text text-anchor="middle" x="29.4014" y="-61.5" font-family="Helvetica,sans-Serif" font-size="10.00">inttypes.h</text>
</g>
<!-- Node1&#45;&gt;Node2 -->
<g id="edge1" class="edge"><title>Node1&#45;&gt;Node2</title>
<path fill="none" stroke="midnightblue" d="M74.9639,-110.219C66.9122,-102.316 54.5919,-90.2241 44.792,-80.6057"/>
<polygon fill="midnightblue" stroke="midnightblue" points="47.1913,-78.0564 37.6028,-73.5496 42.288,-83.0522 47.1913,-78.0564"/>
</g>
<!-- Node3 -->
<g id="node3" class="node"><title>Node3</title>
<g id="a_node3"><a xlink:href="$AP__HAL__Namespace_8h.html" xlink:title="AP_HAL_Namespace.h">
<polygon fill="white" stroke="black" points="76.5938,-55.5 76.5938,-73.5 198.209,-73.5 198.209,-55.5 76.5938,-55.5"/>
<text text-anchor="middle" x="137.401" y="-61.5" font-family="Helvetica,sans-Serif" font-size="10.00">AP_HAL_Namespace.h</text>
</a>
</g>
</g>
<!-- Node1&#45;&gt;Node3 -->
<g id="edge2" class="edge"><title>Node1&#45;&gt;Node3</title>
<path fill="none" stroke="midnightblue" d="M91.8389,-110.219C99.8905,-102.316 112.211,-90.2241 122.011,-80.6057"/>
<polygon fill="midnightblue" stroke="midnightblue" points="124.515,-83.0522 129.2,-73.5496 119.611,-78.0564 124.515,-83.0522"/>
</g>
<!-- Node4 -->
<g id="node4" class="node"><title>Node4</title>
<polygon fill="white" stroke="#bfbfbf" points="72.0049,-0.5 72.0049,-18.5 120.798,-18.5 120.798,-0.5 72.0049,-0.5"/>
<text text-anchor="middle" x="96.4014" y="-6.5" font-family="Helvetica,sans-Serif" font-size="10.00">string.h</text>
</g>
<!-- Node3&#45;&gt;Node4 -->
<g id="edge3" class="edge"><title>Node3&#45;&gt;Node4</title>
<path fill="none" stroke="midnightblue" d="M130.995,-55.2188C125.063,-47.5509 116.08,-35.9387 108.755,-26.4691"/>
<polygon fill="midnightblue" stroke="midnightblue" points="111.516,-24.3176 102.628,-18.5496 105.979,-28.6007 111.516,-24.3176"/>
</g>
<!-- Node5 -->
<g id="node5" class="node"><title>Node5</title>
<g id="a_node5"><a xlink:href="$functor_8h.html" xlink:title="utility/functor.h">
<polygon fill="white" stroke="black" points="138.438,-0.5 138.438,-18.5 218.364,-18.5 218.364,-0.5 138.438,-0.5"/>
<text text-anchor="middle" x="178.401" y="-6.5" font-family="Helvetica,sans-Serif" font-size="10.00">utility/functor.h</text>
</a>
</g>
</g>
<!-- Node3&#45;&gt;Node5 -->
<g id="edge4" class="edge"><title>Node3&#45;&gt;Node5</title>
<path fill="none" stroke="midnightblue" d="M143.808,-55.2188C149.739,-47.5509 158.722,-35.9387 166.048,-26.4691"/>
<polygon fill="midnightblue" stroke="midnightblue" points="168.824,-28.6007 172.174,-18.5496 163.287,-24.3176 168.824,-28.6007"/>
</g>
</g>
</svg>
