<?xml version="1.0" encoding="UTF-8" standalone="no"?>
<!DOCTYPE svg PUBLIC "-//W3C//DTD SVG 1.1//EN"
 "http://www.w3.org/Graphics/SVG/1.1/DTD/svg11.dtd">
<!-- Generated by graphviz version 2.38.0 (20140413.2041)
 -->
<!-- Title: libraries/AP_HAL_Linux/AnalogIn_ADS1115.cpp Pages: 1 -->
<svg width="1627pt" height="697pt"
 viewBox="0.00 0.00 1626.54 697.00" xmlns="http://www.w3.org/2000/svg" xmlns:xlink="http://www.w3.org/1999/xlink">
<g id="graph0" class="graph" transform="scale(1 1) rotate(0) translate(4 693)">
<title>libraries/AP_HAL_Linux/AnalogIn_ADS1115.cpp</title>
<polygon fill="white" stroke="none" points="-4,4 -4,-693 1622.54,-693 1622.54,4 -4,4"/>
<!-- Node1 -->
<g id="node1" class="node"><title>Node1</title>
<polygon fill="#bfbfbf" stroke="black" points="213.974,-660.5 213.974,-688.5 338.026,-688.5 338.026,-660.5 213.974,-660.5"/>
<text text-anchor="start" x="221.974" y="-676.5" font-family="Helvetica,sans-Serif" font-size="10.00">libraries/AP_HAL_Linux</text>
<text text-anchor="middle" x="276" y="-666.5" font-family="Helvetica,sans-Serif" font-size="10.00">/AnalogIn_ADS1115.cpp</text>
</g>
<!-- Node2 -->
<g id="node2" class="node"><title>Node2</title>
<g id="a_node2"><a xlink:href="$AP__HAL_8h.html" xlink:title="AP_HAL/AP_HAL.h">
<polygon fill="white" stroke="black" points="534.086,-440.5 534.086,-458.5 637.914,-458.5 637.914,-440.5 534.086,-440.5"/>
<text text-anchor="middle" x="586" y="-446.5" font-family="Helvetica,sans-Serif" font-size="10.00">AP_HAL/AP_HAL.h</text>
</a>
</g>
</g>
<!-- Node1&#45;&gt;Node2 -->
<g id="edge1" class="edge"><title>Node1&#45;&gt;Node2</title>
<path fill="none" stroke="midnightblue" d="M280.506,-660.235C292.601,-626.748 329.119,-538.38 391,-495 429.925,-467.712 482.983,-456.884 523.927,-452.714"/>
<polygon fill="midnightblue" stroke="midnightblue" points="524.418,-456.184 534.059,-451.792 523.783,-449.213 524.418,-456.184"/>
</g>
<!-- Node30 -->
<g id="node30" class="node"><title>Node30</title>
<g id="a_node30"><a xlink:href="$AnalogIn__ADS1115_8h.html" xlink:title="AnalogIn_ADS1115.h">
<polygon fill="white" stroke="black" points="400.644,-605.5 400.644,-623.5 511.356,-623.5 511.356,-605.5 400.644,-605.5"/>
<text text-anchor="middle" x="456" y="-611.5" font-family="Helvetica,sans-Serif" font-size="10.00">AnalogIn_ADS1115.h</text>
</a>
</g>
</g>
<!-- Node1&#45;&gt;Node30 -->
<g id="edge68" class="edge"><title>Node1&#45;&gt;Node30</title>
<path fill="none" stroke="midnightblue" d="M316.396,-660.484C347.965,-650.311 391.376,-636.323 421.369,-626.659"/>
<polygon fill="midnightblue" stroke="midnightblue" points="422.546,-629.957 430.99,-623.559 420.399,-623.294 422.546,-629.957"/>
</g>
<!-- Node3 -->
<g id="node3" class="node"><title>Node3</title>
<polygon fill="white" stroke="#bfbfbf" points="470.879,-110.5 470.879,-128.5 519.121,-128.5 519.121,-110.5 470.879,-110.5"/>
<text text-anchor="middle" x="495" y="-116.5" font-family="Helvetica,sans-Serif" font-size="10.00">stdint.h</text>
</g>
<!-- Node2&#45;&gt;Node3 -->
<g id="edge2" class="edge"><title>Node2&#45;&gt;Node3</title>
<path fill="none" stroke="midnightblue" d="M583.226,-440.177C575.575,-417.097 553.7,-350.273 538,-294 522.328,-237.828 506.494,-170.632 499.18,-138.866"/>
<polygon fill="midnightblue" stroke="midnightblue" points="502.531,-137.818 496.888,-128.852 495.708,-139.381 502.531,-137.818"/>
</g>
<!-- Node4 -->
<g id="node4" class="node"><title>Node4</title>
<polygon fill="white" stroke="#bfbfbf" points="994.707,-110.5 994.707,-128.5 1051.29,-128.5 1051.29,-110.5 994.707,-110.5"/>
<text text-anchor="middle" x="1023" y="-116.5" font-family="Helvetica,sans-Serif" font-size="10.00">stdbool.h</text>
</g>
<!-- Node2&#45;&gt;Node4 -->
<g id="edge3" class="edge"><title>Node2&#45;&gt;Node4</title>
<path fill="none" stroke="midnightblue" d="M638.206,-447.042C737.624,-443.626 950.175,-433.068 1017,-404 1124.74,-357.133 1195.21,-262.741 1130,-165 1114.86,-142.302 1085.73,-131.164 1061.68,-125.708"/>
<polygon fill="midnightblue" stroke="midnightblue" points="1062.24,-122.25 1051.74,-123.701 1060.85,-129.111 1062.24,-122.25"/>
</g>
<!-- Node5 -->
<g id="node5" class="node"><title>Node5</title>
<g id="a_node5"><a xlink:href="$AP__HAL__Namespace_8h.html" xlink:title="AP_HAL_Namespace.h">
<polygon fill="white" stroke="black" points="510.192,-55.5 510.192,-73.5 631.808,-73.5 631.808,-55.5 510.192,-55.5"/>
<text text-anchor="middle" x="571" y="-61.5" font-family="Helvetica,sans-Serif" font-size="10.00">AP_HAL_Namespace.h</text>
</a>
</g>
</g>
<!-- Node2&#45;&gt;Node5 -->
<g id="edge4" class="edge"><title>Node2&#45;&gt;Node5</title>
<path fill="none" stroke="midnightblue" d="M533.774,-446.61C455.859,-442.933 304.96,-432.49 180,-404 97.2902,-385.143 0,-425.332 0,-340.5 0,-340.5 0,-340.5 0,-173.5 0,-103.554 76.397,-127.954 144,-110 266.351,-77.507 414.308,-68.5416 500.038,-66.1874"/>
<polygon fill="midnightblue" stroke="midnightblue" points="500.27,-69.6827 510.179,-65.9319 500.094,-62.6849 500.27,-69.6827"/>
</g>
<!-- Node8 -->
<g id="node8" class="node"><title>Node8</title>
<g id="a_node8"><a xlink:href="$AP__HAL__Boards_8h.html" xlink:title="AP_HAL_Boards.h">
<polygon fill="white" stroke="black" points="839.03,-165.5 839.03,-183.5 938.97,-183.5 938.97,-165.5 839.03,-165.5"/>
<text text-anchor="middle" x="889" y="-171.5" font-family="Helvetica,sans-Serif" font-size="10.00">AP_HAL_Boards.h</text>
</a>
</g>
</g>
<!-- Node2&#45;&gt;Node8 -->
<g id="edge7" class="edge"><title>Node2&#45;&gt;Node8</title>
<path fill="none" stroke="midnightblue" d="M637.939,-441.723C694.498,-431.089 777,-404.593 777,-340.5 777,-340.5 777,-340.5 777,-283.5 777,-254.042 776.851,-242.386 796,-220 809.253,-204.507 829.124,-193.991 847.1,-187.09"/>
<polygon fill="midnightblue" stroke="midnightblue" points="848.593,-190.274 856.838,-183.62 846.243,-183.68 848.593,-190.274"/>
</g>
<!-- Node9 -->
<g id="node9" class="node"><title>Node9</title>
<g id="a_node9"><a xlink:href="$AP__HAL__Macros_8h.html" xlink:title="AP_HAL_Macros.h">
<polygon fill="white" stroke="black" points="1271.48,-385.5 1271.48,-403.5 1372.52,-403.5 1372.52,-385.5 1271.48,-385.5"/>
<text text-anchor="middle" x="1322" y="-391.5" font-family="Helvetica,sans-Serif" font-size="10.00">AP_HAL_Macros.h</text>
</a>
</g>
</g>
<!-- Node2&#45;&gt;Node9 -->
<g id="edge8" class="edge"><title>Node2&#45;&gt;Node9</title>
<path fill="none" stroke="midnightblue" d="M638.296,-446.17C751.362,-440.882 1026.95,-426.647 1257,-404 1258.31,-403.871 1259.63,-403.737 1260.96,-403.598"/>
<polygon fill="midnightblue" stroke="midnightblue" points="1261.74,-407.032 1271.29,-402.448 1260.97,-400.075 1261.74,-407.032"/>
</g>
<!-- Node10 -->
<g id="node10" class="node"><title>Node10</title>
<g id="a_node10"><a xlink:href="$AP__HAL__Main_8h.html" xlink:title="AP_HAL_Main.h">
<polygon fill="white" stroke="black" points="277.035,-385.5 277.035,-403.5 366.965,-403.5 366.965,-385.5 277.035,-385.5"/>
<text text-anchor="middle" x="322" y="-391.5" font-family="Helvetica,sans-Serif" font-size="10.00">AP_HAL_Main.h</text>
</a>
</g>
</g>
<!-- Node2&#45;&gt;Node10 -->
<g id="edge9" class="edge"><title>Node2&#45;&gt;Node10</title>
<path fill="none" stroke="midnightblue" d="M545.904,-440.45C499.347,-431.104 422.509,-415.678 372.07,-405.552"/>
<polygon fill="midnightblue" stroke="midnightblue" points="372.533,-402.075 362.04,-403.538 371.155,-408.938 372.533,-402.075"/>
</g>
<!-- Node11 -->
<g id="node11" class="node"><title>Node11</title>
<g id="a_node11"><a xlink:href="$HAL_8h.html" xlink:title="HAL.h">
<polygon fill="white" stroke="black" points="303.104,-330.5 303.104,-348.5 346.896,-348.5 346.896,-330.5 303.104,-330.5"/>
<text text-anchor="middle" x="325" y="-336.5" font-family="Helvetica,sans-Serif" font-size="10.00">HAL.h</text>
</a>
</g>
</g>
<!-- Node2&#45;&gt;Node11 -->
<g id="edge67" class="edge"><title>Node2&#45;&gt;Node11</title>
<path fill="none" stroke="midnightblue" d="M539.575,-440.463C505.25,-433.499 457.913,-421.718 419,-404 390.196,-390.885 360.513,-369.213 342.405,-354.895"/>
<polygon fill="midnightblue" stroke="midnightblue" points="344.484,-352.075 334.501,-348.527 340.092,-357.526 344.484,-352.075"/>
</g>
<!-- Node12 -->
<g id="node12" class="node"><title>Node12</title>
<g id="a_node12"><a xlink:href="$AnalogIn_8h.html" xlink:title="AnalogIn.h">
<polygon fill="white" stroke="black" points="1187.09,-220.5 1187.09,-238.5 1250.91,-238.5 1250.91,-220.5 1187.09,-220.5"/>
<text text-anchor="middle" x="1219" y="-226.5" font-family="Helvetica,sans-Serif" font-size="10.00">AnalogIn.h</text>
</a>
</g>
</g>
<!-- Node2&#45;&gt;Node12 -->
<g id="edge49" class="edge"><title>Node2&#45;&gt;Node12</title>
<path fill="none" stroke="midnightblue" d="M638.403,-447.863C773.943,-445.748 1128.36,-437.082 1169,-404 1216.39,-365.43 1220.6,-285.02 1219.91,-248.838"/>
<polygon fill="midnightblue" stroke="midnightblue" points="1223.41,-248.627 1219.57,-238.753 1216.41,-248.868 1223.41,-248.627"/>
</g>
<!-- Node14 -->
<g id="node14" class="node"><title>Node14</title>
<g id="a_node14"><a xlink:href="$GPIO_8h.html" xlink:title="GPIO.h">
<polygon fill="white" stroke="black" points="330.328,-220.5 330.328,-238.5 379.672,-238.5 379.672,-220.5 330.328,-220.5"/>
<text text-anchor="middle" x="355" y="-226.5" font-family="Helvetica,sans-Serif" font-size="10.00">GPIO.h</text>
</a>
</g>
</g>
<!-- Node2&#45;&gt;Node14 -->
<g id="edge51" class="edge"><title>Node2&#45;&gt;Node14</title>
<path fill="none" stroke="midnightblue" d="M571.044,-440.487C556.335,-432.271 533.593,-418.654 516,-404 454.527,-352.796 393.435,-279.123 367.701,-246.774"/>
<polygon fill="midnightblue" stroke="midnightblue" points="370.35,-244.482 361.409,-238.799 364.855,-248.818 370.35,-244.482"/>
</g>
<!-- Node15 -->
<g id="node15" class="node"><title>Node15</title>
<g id="a_node15"><a xlink:href="$RCInput_8h.html" xlink:title="RCInput.h">
<polygon fill="white" stroke="black" points="28.4878,-275.5 28.4878,-293.5 89.5122,-293.5 89.5122,-275.5 28.4878,-275.5"/>
<text text-anchor="middle" x="59" y="-281.5" font-family="Helvetica,sans-Serif" font-size="10.00">RCInput.h</text>
</a>
</g>
</g>
<!-- Node2&#45;&gt;Node15 -->
<g id="edge52" class="edge"><title>Node2&#45;&gt;Node15</title>
<path fill="none" stroke="midnightblue" d="M534.037,-445.367C447.437,-439.611 277.609,-425.898 222,-404 160.637,-379.836 101.265,-327.009 74.2222,-300.831"/>
<polygon fill="midnightblue" stroke="midnightblue" points="76.4827,-298.145 66.901,-293.624 71.5718,-303.133 76.4827,-298.145"/>
</g>
<!-- Node16 -->
<g id="node16" class="node"><title>Node16</title>
<g id="a_node16"><a xlink:href="$RCOutput_8h.html" xlink:title="RCOutput.h">
<polygon fill="white" stroke="black" points="107.599,-275.5 107.599,-293.5 176.401,-293.5 176.401,-275.5 107.599,-275.5"/>
<text text-anchor="middle" x="142" y="-281.5" font-family="Helvetica,sans-Serif" font-size="10.00">RCOutput.h</text>
</a>
</g>
</g>
<!-- Node2&#45;&gt;Node16 -->
<g id="edge53" class="edge"><title>Node2&#45;&gt;Node16</title>
<path fill="none" stroke="midnightblue" d="M533.986,-446.213C451.949,-441.85 296.909,-430.319 249,-404 211.394,-383.341 216.064,-361.564 187,-330 177.769,-319.975 166.92,-309.218 158.187,-300.792"/>
<polygon fill="midnightblue" stroke="midnightblue" points="160.516,-298.177 150.869,-293.797 155.679,-303.237 160.516,-298.177"/>
</g>
<!-- Node17 -->
<g id="node17" class="node"><title>Node17</title>
<g id="a_node17"><a xlink:href="$SPIDriver_8h.html" xlink:title="SPIDriver.h">
<polygon fill="white" stroke="black" points="194.712,-275.5 194.712,-293.5 261.288,-293.5 261.288,-275.5 194.712,-275.5"/>
<text text-anchor="middle" x="228" y="-281.5" font-family="Helvetica,sans-Serif" font-size="10.00">SPIDriver.h</text>
</a>
</g>
</g>
<!-- Node2&#45;&gt;Node17 -->
<g id="edge48" class="edge"><title>Node2&#45;&gt;Node17</title>
<path fill="none" stroke="midnightblue" d="M534.056,-447.687C454.489,-445.4 307.484,-436.731 268,-404 237.857,-379.013 230.332,-330.435 228.517,-303.896"/>
<polygon fill="midnightblue" stroke="midnightblue" points="232.004,-303.532 228.032,-293.71 225.012,-303.865 232.004,-303.532"/>
</g>
<!-- Node18 -->
<g id="node18" class="node"><title>Node18</title>
<g id="a_node18"><a xlink:href="$Storage_8h.html" xlink:title="Storage.h">
<polygon fill="white" stroke="black" points="431.318,-275.5 431.318,-293.5 490.682,-293.5 490.682,-275.5 431.318,-275.5"/>
<text text-anchor="middle" x="461" y="-281.5" font-family="Helvetica,sans-Serif" font-size="10.00">Storage.h</text>
</a>
</g>
</g>
<!-- Node2&#45;&gt;Node18 -->
<g id="edge50" class="edge"><title>Node2&#45;&gt;Node18</title>
<path fill="none" stroke="midnightblue" d="M574.081,-440.263C562.653,-431.981 545.362,-418.406 533,-404 505.143,-371.536 481.267,-327.043 469.268,-302.863"/>
<polygon fill="midnightblue" stroke="midnightblue" points="472.268,-301.03 464.747,-293.569 465.973,-304.092 472.268,-301.03"/>
</g>
<!-- Node19 -->
<g id="node19" class="node"><title>Node19</title>
<g id="a_node19"><a xlink:href="$UARTDriver_8h.html" xlink:title="UARTDriver.h">
<polygon fill="white" stroke="black" points="547.248,-275.5 547.248,-293.5 624.752,-293.5 624.752,-275.5 547.248,-275.5"/>
<text text-anchor="middle" x="586" y="-281.5" font-family="Helvetica,sans-Serif" font-size="10.00">UARTDriver.h</text>
</a>
</g>
</g>
<!-- Node2&#45;&gt;Node19 -->
<g id="edge44" class="edge"><title>Node2&#45;&gt;Node19</title>
<path fill="none" stroke="midnightblue" d="M586,-440.193C586,-415.013 586,-339.114 586,-303.862"/>
<polygon fill="midnightblue" stroke="midnightblue" points="589.5,-303.597 586,-293.597 582.5,-303.597 589.5,-303.597"/>
</g>
<!-- Node22 -->
<g id="node22" class="node"><title>Node22</title>
<g id="a_node22"><a xlink:href="$BetterStream_8h.html" xlink:title="utility/BetterStream.h">
<polygon fill="white" stroke="black" points="804.594,-220.5 804.594,-238.5 913.406,-238.5 913.406,-220.5 804.594,-220.5"/>
<text text-anchor="middle" x="859" y="-226.5" font-family="Helvetica,sans-Serif" font-size="10.00">utility/BetterStream.h</text>
</a>
</g>
</g>
<!-- Node2&#45;&gt;Node22 -->
<g id="edge66" class="edge"><title>Node2&#45;&gt;Node22</title>
<path fill="none" stroke="midnightblue" d="M638.074,-442.83C691.001,-436.103 768.335,-423.305 791,-404 838.796,-363.289 853.204,-284.599 857.378,-248.905"/>
<polygon fill="midnightblue" stroke="midnightblue" points="860.9,-248.869 858.435,-238.565 853.936,-248.157 860.9,-248.869"/>
</g>
<!-- Node24 -->
<g id="node24" class="node"><title>Node24</title>
<g id="a_node24"><a xlink:href="$Stream_8h.html" xlink:title="Stream.h">
<polygon fill="white" stroke="black" points="994.714,-165.5 994.714,-183.5 1051.29,-183.5 1051.29,-165.5 994.714,-165.5"/>
<text text-anchor="middle" x="1023" y="-171.5" font-family="Helvetica,sans-Serif" font-size="10.00">Stream.h</text>
</a>
</g>
</g>
<!-- Node2&#45;&gt;Node24 -->
<g id="edge65" class="edge"><title>Node2&#45;&gt;Node24</title>
<path fill="none" stroke="midnightblue" d="M638,-443.601C736.605,-432.867 941,-403.069 941,-340.5 941,-340.5 941,-340.5 941,-283.5 941,-243.033 977.969,-208.218 1002.26,-189.709"/>
<polygon fill="midnightblue" stroke="midnightblue" points="1004.54,-192.377 1010.55,-183.648 1000.41,-186.728 1004.54,-192.377"/>
</g>
<!-- Node25 -->
<g id="node25" class="node"><title>Node25</title>
<g id="a_node25"><a xlink:href="$Print_8h.html" xlink:title="Print.h">
<polygon fill="white" stroke="black" points="1290.55,-110.5 1290.55,-128.5 1335.45,-128.5 1335.45,-110.5 1290.55,-110.5"/>
<text text-anchor="middle" x="1313" y="-116.5" font-family="Helvetica,sans-Serif" font-size="10.00">Print.h</text>
</a>
</g>
</g>
<!-- Node2&#45;&gt;Node25 -->
<g id="edge64" class="edge"><title>Node2&#45;&gt;Node25</title>
<path fill="none" stroke="midnightblue" d="M638.036,-447.471C776.358,-444.345 1145.79,-433.319 1192,-404 1286.94,-343.759 1307.54,-191.433 1311.88,-138.757"/>
<polygon fill="midnightblue" stroke="midnightblue" points="1315.39,-138.823 1312.61,-128.598 1308.4,-138.321 1315.39,-138.823"/>
</g>
<!-- Node26 -->
<g id="node26" class="node"><title>Node26</title>
<g id="a_node26"><a xlink:href="$I2CDriver_8h.html" xlink:title="I2CDriver.h">
<polygon fill="white" stroke="black" points="248.99,-165.5 248.99,-183.5 315.01,-183.5 315.01,-165.5 248.99,-165.5"/>
<text text-anchor="middle" x="282" y="-171.5" font-family="Helvetica,sans-Serif" font-size="10.00">I2CDriver.h</text>
</a>
</g>
</g>
<!-- Node2&#45;&gt;Node26 -->
<g id="edge45" class="edge"><title>Node2&#45;&gt;Node26</title>
<path fill="none" stroke="midnightblue" d="M563.375,-440.374C543.386,-432.635 513.931,-419.832 491,-404 404.353,-344.177 386.842,-321.166 321,-239 309.267,-224.358 298.311,-205.925 291.017,-192.697"/>
<polygon fill="midnightblue" stroke="midnightblue" points="294.021,-190.893 286.201,-183.744 287.856,-194.209 294.021,-190.893"/>
</g>
<!-- Node27 -->
<g id="node27" class="node"><title>Node27</title>
<g id="a_node27"><a xlink:href="$Scheduler_8h.html" xlink:title="Scheduler.h">
<polygon fill="white" stroke="black" points="680.589,-220.5 680.589,-238.5 749.411,-238.5 749.411,-220.5 680.589,-220.5"/>
<text text-anchor="middle" x="715" y="-226.5" font-family="Helvetica,sans-Serif" font-size="10.00">Scheduler.h</text>
</a>
</g>
</g>
<!-- Node2&#45;&gt;Node27 -->
<g id="edge54" class="edge"><title>Node2&#45;&gt;Node27</title>
<path fill="none" stroke="midnightblue" d="M590.744,-440.483C609.507,-408.774 678.78,-291.709 704.924,-247.528"/>
<polygon fill="midnightblue" stroke="midnightblue" points="707.994,-249.212 710.075,-238.823 701.97,-245.647 707.994,-249.212"/>
</g>
<!-- Node28 -->
<g id="node28" class="node"><title>Node28</title>
<g id="a_node28"><a xlink:href="$Semaphores_8h.html" xlink:title="Semaphores.h">
<polygon fill="white" stroke="black" points="969.48,-330.5 969.48,-348.5 1050.52,-348.5 1050.52,-330.5 969.48,-330.5"/>
<text text-anchor="middle" x="1010" y="-336.5" font-family="Helvetica,sans-Serif" font-size="10.00">Semaphores.h</text>
</a>
</g>
</g>
<!-- Node2&#45;&gt;Node28 -->
<g id="edge59" class="edge"><title>Node2&#45;&gt;Node28</title>
<path fill="none" stroke="midnightblue" d="M638.233,-446.803C726.616,-443.178 901.297,-432.542 955,-404 974.861,-393.444 990.753,-372.562 1000.25,-357.625"/>
<polygon fill="midnightblue" stroke="midnightblue" points="1003.38,-359.209 1005.54,-348.837 997.386,-355.596 1003.38,-359.209"/>
</g>
<!-- Node29 -->
<g id="node29" class="node"><title>Node29</title>
<g id="a_node29"><a xlink:href="$Util_8h.html" xlink:title="Util.h">
<polygon fill="white" stroke="black" points="1075.61,-220.5 1075.61,-238.5 1114.39,-238.5 1114.39,-220.5 1075.61,-220.5"/>
<text text-anchor="middle" x="1095" y="-226.5" font-family="Helvetica,sans-Serif" font-size="10.00">Util.h</text>
</a>
</g>
</g>
<!-- Node2&#45;&gt;Node29 -->
<g id="edge61" class="edge"><title>Node2&#45;&gt;Node29</title>
<path fill="none" stroke="midnightblue" d="M638.262,-445.801C730.793,-440.497 919.486,-427.167 981,-404 1021.04,-388.922 1034.97,-383.697 1060,-349 1082.1,-318.361 1090.36,-273.798 1093.36,-248.967"/>
<polygon fill="midnightblue" stroke="midnightblue" points="1096.86,-249.098 1094.42,-238.789 1089.9,-248.37 1096.86,-249.098"/>
</g>
<!-- Node6 -->
<g id="node6" class="node"><title>Node6</title>
<polygon fill="white" stroke="#bfbfbf" points="802.604,-0.5 802.604,-18.5 851.396,-18.5 851.396,-0.5 802.604,-0.5"/>
<text text-anchor="middle" x="827" y="-6.5" font-family="Helvetica,sans-Serif" font-size="10.00">string.h</text>
</g>
<!-- Node5&#45;&gt;Node6 -->
<g id="edge5" class="edge"><title>Node5&#45;&gt;Node6</title>
<path fill="none" stroke="midnightblue" d="M609.881,-55.4504C659.66,-45.1446 745.139,-27.4479 792.637,-17.6142"/>
<polygon fill="midnightblue" stroke="midnightblue" points="793.367,-21.0373 802.45,-15.5826 791.948,-14.1827 793.367,-21.0373"/>
</g>
<!-- Node7 -->
<g id="node7" class="node"><title>Node7</title>
<g id="a_node7"><a xlink:href="$functor_8h.html" xlink:title="utility/functor.h">
<polygon fill="white" stroke="black" points="531.037,-0.5 531.037,-18.5 610.963,-18.5 610.963,-0.5 531.037,-0.5"/>
<text text-anchor="middle" x="571" y="-6.5" font-family="Helvetica,sans-Serif" font-size="10.00">utility/functor.h</text>
</a>
</g>
</g>
<!-- Node5&#45;&gt;Node7 -->
<g id="edge6" class="edge"><title>Node5&#45;&gt;Node7</title>
<path fill="none" stroke="midnightblue" d="M571,-55.2188C571,-48.1769 571,-37.8083 571,-28.8277"/>
<polygon fill="midnightblue" stroke="midnightblue" points="574.5,-28.5495 571,-18.5496 567.5,-28.5496 574.5,-28.5495"/>
</g>
<!-- Node10&#45;&gt;Node11 -->
<g id="edge10" class="edge"><title>Node10&#45;&gt;Node11</title>
<path fill="none" stroke="midnightblue" d="M322.469,-385.219C322.867,-378.177 323.454,-367.808 323.963,-358.828"/>
<polygon fill="midnightblue" stroke="midnightblue" points="327.474,-358.731 324.544,-348.55 320.485,-358.336 327.474,-358.731"/>
</g>
<!-- Node11&#45;&gt;Node5 -->
<g id="edge11" class="edge"><title>Node11&#45;&gt;Node5</title>
<path fill="none" stroke="midnightblue" d="M318.921,-330.359C297.072,-300.662 224.617,-198.167 240,-165 255.922,-130.67 270.665,-125.913 305,-110 366.888,-81.3162 444.481,-70.8677 499.862,-67.1891"/>
<polygon fill="midnightblue" stroke="midnightblue" points="500.166,-70.6772 509.936,-66.5782 499.742,-63.69 500.166,-70.6772"/>
</g>
<!-- Node11&#45;&gt;Node12 -->
<g id="edge12" class="edge"><title>Node11&#45;&gt;Node12</title>
<path fill="none" stroke="midnightblue" d="M347.099,-335.83C464.722,-321.621 1017.83,-254.803 1176.41,-235.645"/>
<polygon fill="midnightblue" stroke="midnightblue" points="1177.2,-239.076 1186.7,-234.402 1176.36,-232.126 1177.2,-239.076"/>
</g>
<!-- Node11&#45;&gt;Node14 -->
<g id="edge15" class="edge"><title>Node11&#45;&gt;Node14</title>
<path fill="none" stroke="midnightblue" d="M327.255,-330.382C332.054,-313.104 343.381,-272.329 349.983,-248.563"/>
<polygon fill="midnightblue" stroke="midnightblue" points="353.415,-249.284 352.719,-238.712 346.67,-247.41 353.415,-249.284"/>
</g>
<!-- Node11&#45;&gt;Node15 -->
<g id="edge18" class="edge"><title>Node11&#45;&gt;Node15</title>
<path fill="none" stroke="midnightblue" d="M302.843,-334.251C263.92,-326.763 180.489,-310.605 99.4348,-294.063"/>
<polygon fill="midnightblue" stroke="midnightblue" points="100.064,-290.619 89.565,-292.044 98.6609,-297.477 100.064,-290.619"/>
</g>
<!-- Node11&#45;&gt;Node16 -->
<g id="edge20" class="edge"><title>Node11&#45;&gt;Node16</title>
<path fill="none" stroke="midnightblue" d="M302.926,-332.107C272.426,-323.274 216.96,-307.21 179.794,-296.446"/>
<polygon fill="midnightblue" stroke="midnightblue" points="180.411,-292.981 169.832,-293.561 178.463,-299.704 180.411,-292.981"/>
</g>
<!-- Node11&#45;&gt;Node17 -->
<g id="edge22" class="edge"><title>Node11&#45;&gt;Node17</title>
<path fill="none" stroke="midnightblue" d="M310.268,-330.45C294.742,-321.968 270.052,-308.477 251.767,-298.486"/>
<polygon fill="midnightblue" stroke="midnightblue" points="253.325,-295.349 242.871,-293.625 249.968,-301.492 253.325,-295.349"/>
</g>
<!-- Node11&#45;&gt;Node18 -->
<g id="edge24" class="edge"><title>Node11&#45;&gt;Node18</title>
<path fill="none" stroke="midnightblue" d="M345.655,-330.45C368.322,-321.617 404.92,-307.355 430.805,-297.267"/>
<polygon fill="midnightblue" stroke="midnightblue" points="432.104,-300.518 440.15,-293.625 429.562,-293.995 432.104,-300.518"/>
</g>
<!-- Node11&#45;&gt;Node19 -->
<g id="edge27" class="edge"><title>Node11&#45;&gt;Node19</title>
<path fill="none" stroke="midnightblue" d="M347.253,-333.981C389.118,-325.48 480.486,-306.926 537.267,-295.396"/>
<polygon fill="midnightblue" stroke="midnightblue" points="537.998,-298.819 547.102,-293.399 536.605,-291.959 537.998,-298.819"/>
</g>
<!-- Node12&#45;&gt;Node5 -->
<g id="edge14" class="edge"><title>Node12&#45;&gt;Node5</title>
<path fill="none" stroke="midnightblue" d="M1222.61,-220.25C1231.36,-198.834 1250.94,-140.982 1222,-110 1183.1,-68.3548 803.2,-64.6835 642.356,-65.0197"/>
<polygon fill="midnightblue" stroke="midnightblue" points="642.075,-61.5203 632.085,-65.0473 642.094,-68.5203 642.075,-61.5203"/>
</g>
<!-- Node13 -->
<g id="node13" class="node"><title>Node13</title>
<polygon fill="white" stroke="#bfbfbf" points="1352.6,-55.5 1352.6,-73.5 1411.4,-73.5 1411.4,-55.5 1352.6,-55.5"/>
<text text-anchor="middle" x="1382" y="-61.5" font-family="Helvetica,sans-Serif" font-size="10.00">inttypes.h</text>
</g>
<!-- Node12&#45;&gt;Node13 -->
<g id="edge13" class="edge"><title>Node12&#45;&gt;Node13</title>
<path fill="none" stroke="midnightblue" d="M1232.39,-220.275C1256.85,-204.766 1309.41,-169.13 1344,-129 1356.16,-114.886 1366.74,-96.3833 1373.63,-82.9946"/>
<polygon fill="midnightblue" stroke="midnightblue" points="1376.82,-84.4237 1378.14,-73.9103 1370.56,-81.3109 1376.82,-84.4237"/>
</g>
<!-- Node14&#45;&gt;Node3 -->
<g id="edge16" class="edge"><title>Node14&#45;&gt;Node3</title>
<path fill="none" stroke="midnightblue" d="M365.523,-220.382C389.137,-202.166 446.606,-157.832 476.4,-134.848"/>
<polygon fill="midnightblue" stroke="midnightblue" points="478.575,-137.591 484.355,-128.712 474.299,-132.049 478.575,-137.591"/>
</g>
<!-- Node14&#45;&gt;Node5 -->
<g id="edge17" class="edge"><title>Node14&#45;&gt;Node5</title>
<path fill="none" stroke="midnightblue" d="M352.949,-220.342C348.152,-199.148 338.642,-141.786 367,-110 384.59,-90.2837 448.3,-78.5921 499.899,-72.1793"/>
<polygon fill="midnightblue" stroke="midnightblue" points="500.527,-75.6293 510.04,-70.9663 499.696,-68.6788 500.527,-75.6293"/>
</g>
<!-- Node15&#45;&gt;Node5 -->
<g id="edge19" class="edge"><title>Node15&#45;&gt;Node5</title>
<path fill="none" stroke="midnightblue" d="M61.445,-275.496C70.5736,-247.133 105.593,-150.924 172,-110 225.226,-77.1988 399.801,-68.5168 499.507,-66.258"/>
<polygon fill="midnightblue" stroke="midnightblue" points="499.878,-69.751 509.802,-66.0415 499.731,-62.7526 499.878,-69.751"/>
</g>
<!-- Node16&#45;&gt;Node5 -->
<g id="edge21" class="edge"><title>Node16&#45;&gt;Node5</title>
<path fill="none" stroke="midnightblue" d="M141.499,-275.324C140.269,-247.206 140.367,-153.804 192,-110 237.027,-71.8006 403.105,-65.2227 499.825,-64.7505"/>
<polygon fill="midnightblue" stroke="midnightblue" points="500.122,-68.2498 510.112,-64.722 500.103,-61.2498 500.122,-68.2498"/>
</g>
<!-- Node17&#45;&gt;Node5 -->
<g id="edge23" class="edge"><title>Node17&#45;&gt;Node5</title>
<path fill="none" stroke="midnightblue" d="M223.229,-275.333C207.962,-248.022 163.762,-158.846 207,-110 226.047,-88.4825 399.284,-75.1817 499.745,-69.2106"/>
<polygon fill="midnightblue" stroke="midnightblue" points="500.05,-72.6988 509.829,-68.6213 499.641,-65.7108 500.05,-72.6988"/>
</g>
<!-- Node18&#45;&gt;Node3 -->
<g id="edge25" class="edge"><title>Node18&#45;&gt;Node3</title>
<path fill="none" stroke="midnightblue" d="M461.979,-275.376C464.39,-256.068 471.146,-205.977 481,-165 483.159,-156.021 486.173,-146.211 488.851,-138.093"/>
<polygon fill="midnightblue" stroke="midnightblue" points="492.171,-139.202 492.079,-128.607 485.544,-136.947 492.171,-139.202"/>
</g>
<!-- Node18&#45;&gt;Node5 -->
<g id="edge26" class="edge"><title>Node18&#45;&gt;Node5</title>
<path fill="none" stroke="midnightblue" d="M458.157,-275.335C449.455,-248.763 425.897,-163.402 462,-110 473.113,-93.5615 491.472,-83.1912 509.984,-76.6507"/>
<polygon fill="midnightblue" stroke="midnightblue" points="511.179,-79.9433 519.64,-73.5677 509.05,-73.275 511.179,-79.9433"/>
</g>
<!-- Node19&#45;&gt;Node3 -->
<g id="edge28" class="edge"><title>Node19&#45;&gt;Node3</title>
<path fill="none" stroke="midnightblue" d="M580.417,-275.445C574.395,-266.642 564.643,-252.05 557,-239 536.446,-203.903 514.991,-161.354 503.492,-137.983"/>
<polygon fill="midnightblue" stroke="midnightblue" points="506.485,-136.137 498.948,-128.691 500.197,-139.212 506.485,-136.137"/>
</g>
<!-- Node19&#45;&gt;Node5 -->
<g id="edge33" class="edge"><title>Node19&#45;&gt;Node5</title>
<path fill="none" stroke="midnightblue" d="M585.448,-275.483C583.289,-244.107 575.38,-129.159 572.269,-83.9443"/>
<polygon fill="midnightblue" stroke="midnightblue" points="575.751,-83.5592 571.573,-73.8231 568.767,-84.0398 575.751,-83.5592"/>
</g>
<!-- Node20 -->
<g id="node20" class="node"><title>Node20</title>
<g id="a_node20"><a xlink:href="$AP__Common_8h.html" xlink:title="Common definitions and utility routines for the ArduPilot libraries. ">
<polygon fill="white" stroke="black" points="636.973,-165.5 636.973,-183.5 783.027,-183.5 783.027,-165.5 636.973,-165.5"/>
<text text-anchor="middle" x="710" y="-171.5" font-family="Helvetica,sans-Serif" font-size="10.00">AP_Common/AP_Common.h</text>
</a>
</g>
</g>
<!-- Node19&#45;&gt;Node20 -->
<g id="edge29" class="edge"><title>Node19&#45;&gt;Node20</title>
<path fill="none" stroke="midnightblue" d="M591.495,-275.379C600.423,-262.577 619.094,-237.374 639,-220 653.115,-207.68 670.998,-196.494 685.285,-188.418"/>
<polygon fill="midnightblue" stroke="midnightblue" points="687.004,-191.467 694.078,-183.58 683.63,-185.334 687.004,-191.467"/>
</g>
<!-- Node19&#45;&gt;Node22 -->
<g id="edge34" class="edge"><title>Node19&#45;&gt;Node22</title>
<path fill="none" stroke="midnightblue" d="M624.824,-275.963C672.813,-266.646 754.624,-250.763 807.735,-240.453"/>
<polygon fill="midnightblue" stroke="midnightblue" points="808.48,-243.873 817.629,-238.532 807.146,-237.002 808.48,-243.873"/>
</g>
<!-- Node20&#45;&gt;Node3 -->
<g id="edge30" class="edge"><title>Node20&#45;&gt;Node3</title>
<path fill="none" stroke="midnightblue" d="M677.346,-165.45C637.277,-155.573 569.667,-138.906 528.995,-128.88"/>
<polygon fill="midnightblue" stroke="midnightblue" points="529.815,-125.478 519.268,-126.482 528.14,-132.274 529.815,-125.478"/>
</g>
<!-- Node20&#45;&gt;Node4 -->
<g id="edge32" class="edge"><title>Node20&#45;&gt;Node4</title>
<path fill="none" stroke="midnightblue" d="M757.538,-165.45C819.683,-154.928 927.334,-136.699 984.593,-127.003"/>
<polygon fill="midnightblue" stroke="midnightblue" points="985.4,-130.417 994.676,-125.296 984.232,-123.515 985.4,-130.417"/>
</g>
<!-- Node21 -->
<g id="node21" class="node"><title>Node21</title>
<polygon fill="white" stroke="#bfbfbf" points="686.158,-110.5 686.158,-128.5 733.842,-128.5 733.842,-110.5 686.158,-110.5"/>
<text text-anchor="middle" x="710" y="-116.5" font-family="Helvetica,sans-Serif" font-size="10.00">stdlib.h</text>
</g>
<!-- Node20&#45;&gt;Node21 -->
<g id="edge31" class="edge"><title>Node20&#45;&gt;Node21</title>
<path fill="none" stroke="midnightblue" d="M710,-165.219C710,-158.177 710,-147.808 710,-138.828"/>
<polygon fill="midnightblue" stroke="midnightblue" points="713.5,-138.55 710,-128.55 706.5,-138.55 713.5,-138.55"/>
</g>
<!-- Node22&#45;&gt;Node5 -->
<g id="edge37" class="edge"><title>Node22&#45;&gt;Node5</title>
<path fill="none" stroke="midnightblue" d="M889.434,-220.438C922.128,-210.24 967.001,-190.845 948,-165 911.997,-116.028 740.986,-86.8001 642.099,-73.714"/>
<polygon fill="midnightblue" stroke="midnightblue" points="642.542,-70.2423 632.174,-72.4227 641.639,-77.1838 642.542,-70.2423"/>
</g>
<!-- Node22&#45;&gt;Node20 -->
<g id="edge36" class="edge"><title>Node22&#45;&gt;Node20</title>
<path fill="none" stroke="midnightblue" d="M836.37,-220.45C811.319,-211.539 770.733,-197.103 742.334,-187.001"/>
<polygon fill="midnightblue" stroke="midnightblue" points="743.438,-183.679 732.843,-183.625 741.092,-190.274 743.438,-183.679"/>
</g>
<!-- Node23 -->
<g id="node23" class="node"><title>Node23</title>
<polygon fill="white" stroke="#bfbfbf" points="1068.93,-165.5 1068.93,-183.5 1121.07,-183.5 1121.07,-165.5 1068.93,-165.5"/>
<text text-anchor="middle" x="1095" y="-171.5" font-family="Helvetica,sans-Serif" font-size="10.00">stdarg.h</text>
</g>
<!-- Node22&#45;&gt;Node23 -->
<g id="edge35" class="edge"><title>Node22&#45;&gt;Node23</title>
<path fill="none" stroke="midnightblue" d="M896.467,-220.444C934.824,-212.143 996.42,-198.668 1058.65,-184.279"/>
<polygon fill="midnightblue" stroke="midnightblue" points="1059.69,-187.631 1068.64,-181.962 1058.11,-180.812 1059.69,-187.631"/>
</g>
<!-- Node22&#45;&gt;Node24 -->
<g id="edge38" class="edge"><title>Node22&#45;&gt;Node24</title>
<path fill="none" stroke="midnightblue" d="M883.908,-220.45C911.803,-211.436 957.198,-196.765 988.499,-186.65"/>
<polygon fill="midnightblue" stroke="midnightblue" points="989.688,-189.944 998.127,-183.538 987.535,-183.283 989.688,-189.944"/>
</g>
<!-- Node24&#45;&gt;Node5 -->
<g id="edge39" class="edge"><title>Node24&#45;&gt;Node5</title>
<path fill="none" stroke="midnightblue" d="M1033.89,-165.371C1049.79,-152.556 1075.83,-127.337 1060,-110 1032.4,-79.7759 771.008,-69.8555 642.134,-66.7852"/>
<polygon fill="midnightblue" stroke="midnightblue" points="642.041,-63.2822 631.963,-66.5506 641.879,-70.2804 642.041,-63.2822"/>
</g>
<!-- Node24&#45;&gt;Node25 -->
<g id="edge40" class="edge"><title>Node24&#45;&gt;Node25</title>
<path fill="none" stroke="midnightblue" d="M1051.65,-166.764C1054.47,-166.148 1057.29,-165.55 1060,-165 1138.8,-149.031 1232.08,-133.485 1280.37,-125.686"/>
<polygon fill="midnightblue" stroke="midnightblue" points="1280.93,-129.14 1290.25,-124.097 1279.82,-122.229 1280.93,-129.14"/>
</g>
<!-- Node25&#45;&gt;Node5 -->
<g id="edge41" class="edge"><title>Node25&#45;&gt;Node5</title>
<path fill="none" stroke="midnightblue" d="M1290.26,-112.518C1285.88,-111.542 1281.32,-110.641 1277,-110 1046.65,-75.7975 770.215,-67.8482 642.334,-66.0254"/>
<polygon fill="midnightblue" stroke="midnightblue" points="642.321,-62.525 632.275,-65.8904 642.227,-69.5244 642.321,-62.525"/>
</g>
<!-- Node25&#45;&gt;Node6 -->
<g id="edge43" class="edge"><title>Node25&#45;&gt;Node6</title>
<path fill="none" stroke="midnightblue" d="M1290.54,-113.146C1286.06,-112.091 1281.38,-111.002 1277,-110 1122.05,-74.5782 936.602,-34.2144 861.297,-17.9089"/>
<polygon fill="midnightblue" stroke="midnightblue" points="861.931,-14.4651 851.417,-15.7708 860.451,-21.3067 861.931,-14.4651"/>
</g>
<!-- Node25&#45;&gt;Node13 -->
<g id="edge42" class="edge"><title>Node25&#45;&gt;Node13</title>
<path fill="none" stroke="midnightblue" d="M1323.48,-110.45C1334.02,-102.357 1350.49,-89.7042 1363.28,-79.8822"/>
<polygon fill="midnightblue" stroke="midnightblue" points="1365.62,-82.4926 1371.42,-73.6253 1361.36,-76.9412 1365.62,-82.4926"/>
</g>
<!-- Node26&#45;&gt;Node3 -->
<g id="edge46" class="edge"><title>Node26&#45;&gt;Node3</title>
<path fill="none" stroke="midnightblue" d="M314.35,-165.45C353.855,-155.621 420.383,-139.067 460.737,-129.025"/>
<polygon fill="midnightblue" stroke="midnightblue" points="461.787,-132.371 470.646,-126.56 460.096,-125.578 461.787,-132.371"/>
</g>
<!-- Node26&#45;&gt;Node5 -->
<g id="edge47" class="edge"><title>Node26&#45;&gt;Node5</title>
<path fill="none" stroke="midnightblue" d="M285.556,-165.328C292.03,-151.496 307.122,-123.647 329,-110 356.982,-92.545 439.244,-79.9575 500.13,-72.7156"/>
<polygon fill="midnightblue" stroke="midnightblue" points="500.559,-76.1894 510.087,-71.556 499.749,-69.2364 500.559,-76.1894"/>
</g>
<!-- Node27&#45;&gt;Node3 -->
<g id="edge55" class="edge"><title>Node27&#45;&gt;Node3</title>
<path fill="none" stroke="midnightblue" d="M698.464,-220.382C660.387,-201.69 566.294,-155.499 520.651,-133.092"/>
<polygon fill="midnightblue" stroke="midnightblue" points="521.947,-129.829 511.428,-128.564 518.862,-136.113 521.947,-129.829"/>
</g>
<!-- Node27&#45;&gt;Node5 -->
<g id="edge58" class="edge"><title>Node27&#45;&gt;Node5</title>
<path fill="none" stroke="midnightblue" d="M742.593,-220.469C760.119,-213.777 781.428,-202.321 792,-184 796.221,-176.686 795.005,-172.892 792,-165 769.584,-106.141 697.827,-82.0953 642.092,-72.2745"/>
<polygon fill="midnightblue" stroke="midnightblue" points="642.321,-68.7655 631.887,-70.6011 641.188,-75.6732 642.321,-68.7655"/>
</g>
<!-- Node27&#45;&gt;Node8 -->
<g id="edge57" class="edge"><title>Node27&#45;&gt;Node8</title>
<path fill="none" stroke="midnightblue" d="M741.427,-220.45C771.151,-211.396 819.603,-196.638 852.826,-186.519"/>
<polygon fill="midnightblue" stroke="midnightblue" points="854.064,-189.8 862.61,-183.538 852.024,-183.104 854.064,-189.8"/>
</g>
<!-- Node27&#45;&gt;Node20 -->
<g id="edge56" class="edge"><title>Node27&#45;&gt;Node20</title>
<path fill="none" stroke="midnightblue" d="M714.219,-220.219C713.547,-213.099 712.554,-202.577 711.701,-193.529"/>
<polygon fill="midnightblue" stroke="midnightblue" points="715.183,-193.177 710.759,-183.55 708.214,-193.834 715.183,-193.177"/>
</g>
<!-- Node28&#45;&gt;Node5 -->
<g id="edge60" class="edge"><title>Node28&#45;&gt;Node5</title>
<path fill="none" stroke="midnightblue" d="M1012.09,-330.342C1017.74,-309.632 1035.1,-254.243 1067,-220 1088.98,-196.404 1113.81,-211.893 1130,-184 1152.09,-145.934 1089.28,-115.868 1077,-110 1002.01,-74.1599 763.096,-66.9731 642.332,-65.6748"/>
<polygon fill="midnightblue" stroke="midnightblue" points="642.115,-62.1726 632.081,-65.5757 642.047,-69.1723 642.115,-62.1726"/>
</g>
<!-- Node29&#45;&gt;Node5 -->
<g id="edge63" class="edge"><title>Node29&#45;&gt;Node5</title>
<path fill="none" stroke="midnightblue" d="M1114.74,-226.63C1139.71,-223.086 1181.78,-212.921 1201,-184 1219.21,-156.61 1223.42,-134.061 1201,-110 1163.56,-69.8209 798.85,-65.2757 642.059,-65.1983"/>
<polygon fill="midnightblue" stroke="midnightblue" points="642.037,-61.6982 632.038,-65.1994 642.038,-68.6982 642.037,-61.6982"/>
</g>
<!-- Node29&#45;&gt;Node23 -->
<g id="edge62" class="edge"><title>Node29&#45;&gt;Node23</title>
<path fill="none" stroke="midnightblue" d="M1095,-220.219C1095,-213.177 1095,-202.808 1095,-193.828"/>
<polygon fill="midnightblue" stroke="midnightblue" points="1098.5,-193.55 1095,-183.55 1091.5,-193.55 1098.5,-193.55"/>
</g>
<!-- Node31 -->
<g id="node31" class="node"><title>Node31</title>
<g id="a_node31"><a xlink:href="$AP__HAL__Linux_8h.html" xlink:title="AP_HAL_Linux.h">
<polygon fill="white" stroke="black" points="623.919,-550.5 623.919,-568.5 716.081,-568.5 716.081,-550.5 623.919,-550.5"/>
<text text-anchor="middle" x="670" y="-556.5" font-family="Helvetica,sans-Serif" font-size="10.00">AP_HAL_Linux.h</text>
</a>
</g>
</g>
<!-- Node30&#45;&gt;Node31 -->
<g id="edge69" class="edge"><title>Node30&#45;&gt;Node31</title>
<path fill="none" stroke="midnightblue" d="M488.502,-605.45C525.69,-596.24 586.711,-581.128 627.607,-570.999"/>
<polygon fill="midnightblue" stroke="midnightblue" points="628.678,-574.34 637.543,-568.538 626.995,-567.545 628.678,-574.34"/>
</g>
<!-- Node34 -->
<g id="node34" class="node"><title>Node34</title>
<g id="a_node34"><a xlink:href="$AP__ADC_8h.html" xlink:title="AP_ADC/AP_ADC.h">
<polygon fill="white" stroke="black" points="402.426,-550.5 402.426,-568.5 509.574,-568.5 509.574,-550.5 402.426,-550.5"/>
<text text-anchor="middle" x="456" y="-556.5" font-family="Helvetica,sans-Serif" font-size="10.00">AP_ADC/AP_ADC.h</text>
</a>
</g>
</g>
<!-- Node30&#45;&gt;Node34 -->
<g id="edge74" class="edge"><title>Node30&#45;&gt;Node34</title>
<path fill="none" stroke="midnightblue" d="M456,-605.219C456,-598.177 456,-587.808 456,-578.828"/>
<polygon fill="midnightblue" stroke="midnightblue" points="459.5,-578.55 456,-568.55 452.5,-578.55 459.5,-578.55"/>
</g>
<!-- Node31&#45;&gt;Node2 -->
<g id="edge70" class="edge"><title>Node31&#45;&gt;Node2</title>
<path fill="none" stroke="midnightblue" d="M669.299,-550.315C667.838,-537.424 663.484,-512.101 651,-495 641.267,-481.668 626.262,-471.015 613.12,-463.479"/>
<polygon fill="midnightblue" stroke="midnightblue" points="614.445,-460.217 603.982,-458.548 611.121,-466.377 614.445,-460.217"/>
</g>
<!-- Node32 -->
<g id="node32" class="node"><title>Node32</title>
<g id="a_node32"><a xlink:href="$HAL__Linux__Class_8h.html" xlink:title="HAL_Linux_Class.h">
<polygon fill="white" stroke="black" points="698.086,-495.5 698.086,-513.5 801.914,-513.5 801.914,-495.5 698.086,-495.5"/>
<text text-anchor="middle" x="750" y="-501.5" font-family="Helvetica,sans-Serif" font-size="10.00">HAL_Linux_Class.h</text>
</a>
</g>
</g>
<!-- Node31&#45;&gt;Node32 -->
<g id="edge71" class="edge"><title>Node31&#45;&gt;Node32</title>
<path fill="none" stroke="midnightblue" d="M682.15,-550.45C694.602,-542.201 714.203,-529.216 729.142,-519.319"/>
<polygon fill="midnightblue" stroke="midnightblue" points="731.332,-522.066 737.735,-513.625 727.466,-516.231 731.332,-522.066"/>
</g>
<!-- Node32&#45;&gt;Node2 -->
<g id="edge72" class="edge"><title>Node32&#45;&gt;Node2</title>
<path fill="none" stroke="midnightblue" d="M725.092,-495.45C697.197,-486.436 651.802,-471.765 620.501,-461.65"/>
<polygon fill="midnightblue" stroke="midnightblue" points="621.465,-458.283 610.873,-458.538 619.312,-464.944 621.465,-458.283"/>
</g>
<!-- Node33 -->
<g id="node33" class="node"><title>Node33</title>
<g id="a_node33"><a xlink:href="$AP__HAL__Linux__Namespace_8h.html" xlink:title="AP_HAL_Linux_Namespace.h">
<polygon fill="white" stroke="black" points="1467.46,-440.5 1467.46,-458.5 1618.54,-458.5 1618.54,-440.5 1467.46,-440.5"/>
<text text-anchor="middle" x="1543" y="-446.5" font-family="Helvetica,sans-Serif" font-size="10.00">AP_HAL_Linux_Namespace.h</text>
</a>
</g>
</g>
<!-- Node32&#45;&gt;Node33 -->
<g id="edge73" class="edge"><title>Node32&#45;&gt;Node33</title>
<path fill="none" stroke="midnightblue" d="M802.072,-500.757C918.707,-494.491 1209.78,-478.179 1453,-459 1454.32,-458.896 1455.65,-458.789 1456.99,-458.681"/>
<polygon fill="midnightblue" stroke="midnightblue" points="1457.72,-462.132 1467.39,-457.812 1457.14,-455.157 1457.72,-462.132"/>
</g>
<!-- Node34&#45;&gt;Node20 -->
<g id="edge75" class="edge"><title>Node34&#45;&gt;Node20</title>
<path fill="none" stroke="midnightblue" d="M433.535,-550.498C372.312,-527.493 210.827,-458.129 268,-385 293.81,-351.987 601.155,-320.024 634,-294 662.978,-271.04 651.412,-250.709 672,-220 678.873,-209.747 687.782,-199.203 695.246,-190.953"/>
<polygon fill="midnightblue" stroke="midnightblue" points="697.865,-193.276 702.099,-183.564 692.733,-188.516 697.865,-193.276"/>
</g>
<!-- Node35 -->
<g id="node35" class="node"><title>Node35</title>
<g id="a_node35"><a xlink:href="$AP__ADC__ADS7844_8h.html" xlink:title="AP_ADC_ADS7844.h">
<polygon fill="white" stroke="black" points="399.638,-495.5 399.638,-513.5 512.362,-513.5 512.362,-495.5 399.638,-495.5"/>
<text text-anchor="middle" x="456" y="-501.5" font-family="Helvetica,sans-Serif" font-size="10.00">AP_ADC_ADS7844.h</text>
</a>
</g>
</g>
<!-- Node34&#45;&gt;Node35 -->
<g id="edge76" class="edge"><title>Node34&#45;&gt;Node35</title>
<path fill="none" stroke="midnightblue" d="M450.938,-550.219C449.325,-543.099 448.868,-532.577 449.566,-523.529"/>
<polygon fill="midnightblue" stroke="midnightblue" points="453.043,-523.944 450.991,-513.55 446.113,-522.955 453.043,-523.944"/>
</g>
<!-- Node36 -->
<g id="node36" class="node"><title>Node36</title>
<g id="a_node36"><a xlink:href="$AP__ADC__ADS1115_8h.html" xlink:title="AP_ADC_ADS1115.h">
<polygon fill="white" stroke="black" points="530.375,-495.5 530.375,-513.5 641.625,-513.5 641.625,-495.5 530.375,-495.5"/>
<text text-anchor="middle" x="586" y="-501.5" font-family="Helvetica,sans-Serif" font-size="10.00">AP_ADC_ADS1115.h</text>
</a>
</g>
</g>
<!-- Node34&#45;&gt;Node36 -->
<g id="edge80" class="edge"><title>Node34&#45;&gt;Node36</title>
<path fill="none" stroke="midnightblue" d="M470.735,-550.45C490.348,-541.617 525.095,-527.355 551.417,-517.267"/>
<polygon fill="midnightblue" stroke="midnightblue" points="552.928,-520.437 561.043,-513.625 550.452,-513.89 552.928,-520.437"/>
</g>
<!-- Node35&#45;&gt;Node2 -->
<g id="edge79" class="edge"><title>Node35&#45;&gt;Node2</title>
<path fill="none" stroke="midnightblue" d="M475.744,-495.45C497.315,-486.656 532.086,-472.48 556.81,-462.401"/>
<polygon fill="midnightblue" stroke="midnightblue" points="558.131,-465.642 566.07,-458.625 555.489,-459.16 558.131,-465.642"/>
</g>
<!-- Node35&#45;&gt;Node13 -->
<g id="edge77" class="edge"><title>Node35&#45;&gt;Node13</title>
<path fill="none" stroke="midnightblue" d="M512.71,-496C515.512,-495.656 518.287,-495.321 521,-495 618.72,-483.448 1401,-493.901 1401,-395.5 1401,-395.5 1401,-395.5 1401,-173.5 1401,-141.386 1392.75,-104.702 1387.12,-83.4139"/>
<polygon fill="midnightblue" stroke="midnightblue" points="1390.43,-82.2562 1384.41,-73.5437 1383.69,-84.114 1390.43,-82.2562"/>
</g>
<!-- Node35&#45;&gt;Node34 -->
<g id="edge78" class="edge"><title>Node35&#45;&gt;Node34</title>
<path fill="none" stroke="midnightblue" d="M461.009,-513.55C462.647,-520.595 463.129,-531.094 462.456,-540.175"/>
<polygon fill="midnightblue" stroke="midnightblue" points="458.97,-539.833 461.062,-550.219 465.904,-540.795 458.97,-539.833"/>
</g>
<!-- Node36&#45;&gt;Node2 -->
<g id="edge83" class="edge"><title>Node36&#45;&gt;Node2</title>
<path fill="none" stroke="midnightblue" d="M586,-495.219C586,-488.177 586,-477.808 586,-468.828"/>
<polygon fill="midnightblue" stroke="midnightblue" points="589.5,-468.55 586,-458.55 582.5,-468.55 589.5,-468.55"/>
</g>
<!-- Node36&#45;&gt;Node13 -->
<g id="edge81" class="edge"><title>Node36&#45;&gt;Node13</title>
<path fill="none" stroke="midnightblue" d="M641.836,-498.556C657.12,-497.295 673.692,-496.011 689,-495 769.59,-489.678 1349.71,-506.55 1415,-459 1439.39,-441.237 1439,-425.671 1439,-395.5 1439,-395.5 1439,-395.5 1439,-173.5 1439,-137.302 1413.65,-101.349 1396.76,-81.4152"/>
<polygon fill="midnightblue" stroke="midnightblue" points="1399.17,-78.8536 1389.93,-73.669 1393.92,-83.4839 1399.17,-78.8536"/>
</g>
<!-- Node36&#45;&gt;Node34 -->
<g id="edge82" class="edge"><title>Node36&#45;&gt;Node34</title>
<path fill="none" stroke="midnightblue" d="M571.097,-513.625C551.397,-522.489 516.631,-536.756 490.358,-546.819"/>
<polygon fill="midnightblue" stroke="midnightblue" points="488.87,-543.64 480.754,-550.45 491.345,-550.188 488.87,-543.64"/>
</g>
</g>
</svg>
