<?xml version="1.0" encoding="UTF-8" standalone="no"?>
<!DOCTYPE svg PUBLIC "-//W3C//DTD SVG 1.1//EN"
 "http://www.w3.org/Graphics/SVG/1.1/DTD/svg11.dtd">
<!-- Generated by graphviz version 2.38.0 (20140413.2041)
 -->
<!-- Title: libraries/AP_HAL_Linux/AnalogIn_ADS1115.h Pages: 1 -->
<svg width="282pt" height="167pt"
 viewBox="0.00 0.00 281.84 167.00" xmlns="http://www.w3.org/2000/svg" xmlns:xlink="http://www.w3.org/1999/xlink">
<g id="graph0" class="graph" transform="scale(1 1) rotate(0) translate(4 163)">
<title>libraries/AP_HAL_Linux/AnalogIn_ADS1115.h</title>
<polygon fill="white" stroke="none" points="-4,4 -4,-163 277.838,-163 277.838,4 -4,4"/>
<!-- Node1 -->
<g id="node1" class="node"><title>Node1</title>
<polygon fill="#bfbfbf" stroke="black" points="74.2207,-130.5 74.2207,-158.5 195.831,-158.5 195.831,-130.5 74.2207,-130.5"/>
<text text-anchor="start" x="82.2207" y="-146.5" font-family="Helvetica,sans-Serif" font-size="10.00">libraries/AP_HAL_Linux</text>
<text text-anchor="middle" x="135.026" y="-136.5" font-family="Helvetica,sans-Serif" font-size="10.00">/AnalogIn_ADS1115.h</text>
</g>
<!-- Node2 -->
<g id="node2" class="node"><title>Node2</title>
<g id="a_node2"><a xlink:href="$AnalogIn__ADS1115_8cpp.html" xlink:title="libraries/AP_HAL_Linux\l/AnalogIn_ADS1115.cpp">
<polygon fill="white" stroke="black" points="0,-65.5 0,-93.5 124.052,-93.5 124.052,-65.5 0,-65.5"/>
<text text-anchor="start" x="8" y="-81.5" font-family="Helvetica,sans-Serif" font-size="10.00">libraries/AP_HAL_Linux</text>
<text text-anchor="middle" x="62.0259" y="-71.5" font-family="Helvetica,sans-Serif" font-size="10.00">/AnalogIn_ADS1115.cpp</text>
</a>
</g>
</g>
<!-- Node1&#45;&gt;Node2 -->
<g id="edge1" class="edge"><title>Node1&#45;&gt;Node2</title>
<path fill="none" stroke="midnightblue" d="M112.043,-123.665C100.649,-113.833 87.2095,-102.234 77.1321,-93.5369"/>
<polygon fill="midnightblue" stroke="midnightblue" points="110.043,-126.563 119.9,-130.446 114.616,-121.263 110.043,-126.563"/>
</g>
<!-- Node3 -->
<g id="node3" class="node"><title>Node3</title>
<g id="a_node3"><a xlink:href="$AP__HAL__Linux__Private_8h.html" xlink:title="libraries/AP_HAL_Linux\l/AP_HAL_Linux_Private.h">
<polygon fill="white" stroke="black" points="142.213,-65.5 142.213,-93.5 273.838,-93.5 273.838,-65.5 142.213,-65.5"/>
<text text-anchor="start" x="150.213" y="-81.5" font-family="Helvetica,sans-Serif" font-size="10.00">libraries/AP_HAL_Linux</text>
<text text-anchor="middle" x="208.026" y="-71.5" font-family="Helvetica,sans-Serif" font-size="10.00">/AP_HAL_Linux_Private.h</text>
</a>
</g>
</g>
<!-- Node1&#45;&gt;Node3 -->
<g id="edge2" class="edge"><title>Node1&#45;&gt;Node3</title>
<path fill="none" stroke="midnightblue" d="M158.009,-123.665C169.402,-113.833 182.842,-102.234 192.92,-93.5369"/>
<polygon fill="midnightblue" stroke="midnightblue" points="155.435,-121.263 150.152,-130.446 160.009,-126.563 155.435,-121.263"/>
</g>
<!-- Node4 -->
<g id="node4" class="node"><title>Node4</title>
<g id="a_node4"><a xlink:href="$HAL__Linux__Class_8cpp.html" xlink:title="libraries/AP_HAL_Linux\l/HAL_Linux_Class.cpp">
<polygon fill="white" stroke="black" points="147.221,-0.5 147.221,-28.5 268.831,-28.5 268.831,-0.5 147.221,-0.5"/>
<text text-anchor="start" x="155.221" y="-16.5" font-family="Helvetica,sans-Serif" font-size="10.00">libraries/AP_HAL_Linux</text>
<text text-anchor="middle" x="208.026" y="-6.5" font-family="Helvetica,sans-Serif" font-size="10.00">/HAL_Linux_Class.cpp</text>
</a>
</g>
</g>
<!-- Node3&#45;&gt;Node4 -->
<g id="edge3" class="edge"><title>Node3&#45;&gt;Node4</title>
<path fill="none" stroke="midnightblue" d="M208.026,-55.1641C208.026,-46.1693 208.026,-36.2205 208.026,-28.5369"/>
<polygon fill="midnightblue" stroke="midnightblue" points="204.526,-55.4463 208.026,-65.4464 211.526,-55.4464 204.526,-55.4463"/>
</g>
</g>
</svg>
