<?xml version="1.0" encoding="UTF-8" standalone="no"?>
<!DOCTYPE svg PUBLIC "-//W3C//DTD SVG 1.1//EN"
 "http://www.w3.org/Graphics/SVG/1.1/DTD/svg11.dtd">
<!-- Generated by graphviz version 2.38.0 (20140413.2041)
 -->
<!-- Title: libraries/AP_InertialNav/AP_InertialNav.h Pages: 1 -->
<svg width="951pt" height="297pt"
 viewBox="0.00 0.00 950.88 297.00" xmlns="http://www.w3.org/2000/svg" xmlns:xlink="http://www.w3.org/1999/xlink">
<g id="graph0" class="graph" transform="scale(1 1) rotate(0) translate(4 293)">
<title>libraries/AP_InertialNav/AP_InertialNav.h</title>
<polygon fill="white" stroke="none" points="-4,4 -4,-293 946.879,-293 946.879,4 -4,4"/>
<!-- Node1 -->
<g id="node1" class="node"><title>Node1</title>
<polygon fill="#bfbfbf" stroke="black" points="420.323,-260.5 420.323,-288.5 540.81,-288.5 540.81,-260.5 420.323,-260.5"/>
<text text-anchor="start" x="428.323" y="-276.5" font-family="Helvetica,sans-Serif" font-size="10.00">libraries/AP_InertialNav</text>
<text text-anchor="middle" x="480.566" y="-266.5" font-family="Helvetica,sans-Serif" font-size="10.00">/AP_InertialNav.h</text>
</g>
<!-- Node2 -->
<g id="node2" class="node"><title>Node2</title>
<g id="a_node2"><a xlink:href="$AC__PosControl_8h.html" xlink:title="libraries/AC_AttitudeControl\l/AC_PosControl.h">
<polygon fill="white" stroke="black" points="145.872,-195.5 145.872,-223.5 285.261,-223.5 285.261,-195.5 145.872,-195.5"/>
<text text-anchor="start" x="153.872" y="-211.5" font-family="Helvetica,sans-Serif" font-size="10.00">libraries/AC_AttitudeControl</text>
<text text-anchor="middle" x="215.566" y="-201.5" font-family="Helvetica,sans-Serif" font-size="10.00">/AC_PosControl.h</text>
</a>
</g>
</g>
<!-- Node1&#45;&gt;Node2 -->
<g id="edge1" class="edge"><title>Node1&#45;&gt;Node2</title>
<path fill="none" stroke="midnightblue" d="M415.798,-258.102C371.227,-247.506 312.669,-233.585 270.404,-223.537"/>
<polygon fill="midnightblue" stroke="midnightblue" points="415.12,-261.538 425.658,-260.446 416.739,-254.728 415.12,-261.538"/>
</g>
<!-- Node4 -->
<g id="node4" class="node"><title>Node4</title>
<g id="a_node4"><a xlink:href="$AC__Circle_8h.html" xlink:title="libraries/AC_WPNav\l/AC_Circle.h">
<polygon fill="white" stroke="black" points="0,-130.5 0,-158.5 107.133,-158.5 107.133,-130.5 0,-130.5"/>
<text text-anchor="start" x="8" y="-146.5" font-family="Helvetica,sans-Serif" font-size="10.00">libraries/AC_WPNav</text>
<text text-anchor="middle" x="53.5664" y="-136.5" font-family="Helvetica,sans-Serif" font-size="10.00">/AC_Circle.h</text>
</a>
</g>
</g>
<!-- Node1&#45;&gt;Node4 -->
<g id="edge22" class="edge"><title>Node1&#45;&gt;Node4</title>
<path fill="none" stroke="midnightblue" d="M410.208,-268.415C323.979,-261.317 183.531,-246.7 136.566,-224 104.781,-208.637 77.0698,-176.686 63.1343,-158.643"/>
<polygon fill="midnightblue" stroke="midnightblue" points="409.936,-271.904 420.186,-269.222 410.501,-264.927 409.936,-271.904"/>
</g>
<!-- Node6 -->
<g id="node6" class="node"><title>Node6</title>
<g id="a_node6"><a xlink:href="$AC__WPNav_8h.html" xlink:title="libraries/AC_WPNav\l/AC_WPNav.h">
<polygon fill="white" stroke="black" points="282,-130.5 282,-158.5 389.133,-158.5 389.133,-130.5 282,-130.5"/>
<text text-anchor="start" x="290" y="-146.5" font-family="Helvetica,sans-Serif" font-size="10.00">libraries/AC_WPNav</text>
<text text-anchor="middle" x="335.566" y="-136.5" font-family="Helvetica,sans-Serif" font-size="10.00">/AC_WPNav.h</text>
</a>
</g>
</g>
<!-- Node1&#45;&gt;Node6 -->
<g id="edge23" class="edge"><title>Node1&#45;&gt;Node6</title>
<path fill="none" stroke="midnightblue" d="M410.626,-257.781C391.17,-250.385 371.561,-239.615 357.566,-224 341.036,-205.555 336.825,-175.645 335.815,-158.564"/>
<polygon fill="midnightblue" stroke="midnightblue" points="409.545,-261.111 420.139,-261.147 411.88,-254.512 409.545,-261.111"/>
</g>
<!-- Node8 -->
<g id="node8" class="node"><title>Node8</title>
<g id="a_node8"><a xlink:href="$AC__Fence_8h.html" xlink:title="libraries/AC_Fence\l/AC_Fence.h">
<polygon fill="white" stroke="black" points="367.049,-195.5 367.049,-223.5 468.083,-223.5 468.083,-195.5 367.049,-195.5"/>
<text text-anchor="start" x="375.049" y="-211.5" font-family="Helvetica,sans-Serif" font-size="10.00">libraries/AC_Fence</text>
<text text-anchor="middle" x="417.566" y="-201.5" font-family="Helvetica,sans-Serif" font-size="10.00">/AC_Fence.h</text>
</a>
</g>
</g>
<!-- Node1&#45;&gt;Node8 -->
<g id="edge7" class="edge"><title>Node1&#45;&gt;Node8</title>
<path fill="none" stroke="midnightblue" d="M460.157,-253.091C450.45,-243.383 439.131,-232.065 430.603,-223.537"/>
<polygon fill="midnightblue" stroke="midnightblue" points="457.967,-255.85 467.513,-260.446 462.917,-250.9 457.967,-255.85"/>
</g>
<!-- Node10 -->
<g id="node10" class="node"><title>Node10</title>
<g id="a_node10"><a xlink:href="$AC__PrecLand_8h.html" xlink:title="libraries/AC_PrecLand\l/AC_PrecLand.h">
<polygon fill="white" stroke="black" points="486.542,-195.5 486.542,-223.5 602.591,-223.5 602.591,-195.5 486.542,-195.5"/>
<text text-anchor="start" x="494.542" y="-211.5" font-family="Helvetica,sans-Serif" font-size="10.00">libraries/AC_PrecLand</text>
<text text-anchor="middle" x="544.566" y="-201.5" font-family="Helvetica,sans-Serif" font-size="10.00">/AC_PrecLand.h</text>
</a>
</g>
</g>
<!-- Node1&#45;&gt;Node10 -->
<g id="edge9" class="edge"><title>Node1&#45;&gt;Node10</title>
<path fill="none" stroke="midnightblue" d="M501.007,-253.379C510.933,-243.608 522.573,-232.149 531.323,-223.537"/>
<polygon fill="midnightblue" stroke="midnightblue" points="498.498,-250.937 493.827,-260.446 503.409,-255.925 498.498,-250.937"/>
</g>
<!-- Node12 -->
<g id="node12" class="node"><title>Node12</title>
<g id="a_node12"><a xlink:href="$AC__PrecLand__Backend_8h.html" xlink:title="libraries/AC_PrecLand\l/AC_PrecLand_Backend.h">
<polygon fill="white" stroke="black" points="564.638,-130.5 564.638,-158.5 698.495,-158.5 698.495,-130.5 564.638,-130.5"/>
<text text-anchor="start" x="572.638" y="-146.5" font-family="Helvetica,sans-Serif" font-size="10.00">libraries/AC_PrecLand</text>
<text text-anchor="middle" x="631.566" y="-136.5" font-family="Helvetica,sans-Serif" font-size="10.00">/AC_PrecLand_Backend.h</text>
</a>
</g>
</g>
<!-- Node1&#45;&gt;Node12 -->
<g id="edge19" class="edge"><title>Node1&#45;&gt;Node12</title>
<path fill="none" stroke="midnightblue" d="M550.823,-260.408C572.972,-253.078 595.757,-241.683 611.566,-224 627.97,-205.652 631.293,-175.706 631.753,-158.593"/>
<polygon fill="midnightblue" stroke="midnightblue" points="549.591,-257.125 541.057,-263.403 551.643,-263.818 549.591,-257.125"/>
</g>
<!-- Node17 -->
<g id="node17" class="node"><title>Node17</title>
<g id="a_node17"><a xlink:href="$AC__Sprayer_8h.html" xlink:title="Crop sprayer library. ">
<polygon fill="white" stroke="black" points="658.438,-195.5 658.438,-223.5 766.694,-223.5 766.694,-195.5 658.438,-195.5"/>
<text text-anchor="start" x="666.438" y="-211.5" font-family="Helvetica,sans-Serif" font-size="10.00">libraries/AC_Sprayer</text>
<text text-anchor="middle" x="712.566" y="-201.5" font-family="Helvetica,sans-Serif" font-size="10.00">/AC_Sprayer.h</text>
</a>
</g>
</g>
<!-- Node1&#45;&gt;Node17 -->
<g id="edge20" class="edge"><title>Node1&#45;&gt;Node17</title>
<path fill="none" stroke="midnightblue" d="M538.75,-257.7C577.58,-247.156 628.022,-233.458 664.557,-223.537"/>
<polygon fill="midnightblue" stroke="midnightblue" points="537.37,-254.448 528.637,-260.446 539.205,-261.203 537.37,-254.448"/>
</g>
<!-- Node19 -->
<g id="node19" class="node"><title>Node19</title>
<g id="a_node19"><a xlink:href="$AP__InertialNav__NavEKF_8cpp.html" xlink:title="libraries/AP_InertialNav\l/AP_InertialNav_NavEKF.cpp">
<polygon fill="white" stroke="black" points="784.535,-195.5 784.535,-223.5 930.598,-223.5 930.598,-195.5 784.535,-195.5"/>
<text text-anchor="start" x="792.535" y="-211.5" font-family="Helvetica,sans-Serif" font-size="10.00">libraries/AP_InertialNav</text>
<text text-anchor="middle" x="857.566" y="-201.5" font-family="Helvetica,sans-Serif" font-size="10.00">/AP_InertialNav_NavEKF.cpp</text>
</a>
</g>
</g>
<!-- Node1&#45;&gt;Node19 -->
<g id="edge24" class="edge"><title>Node1&#45;&gt;Node19</title>
<path fill="none" stroke="midnightblue" d="M551.11,-261.712C617.598,-250.601 716.821,-234.02 784.213,-222.758"/>
<polygon fill="midnightblue" stroke="midnightblue" points="550.424,-258.278 541.138,-263.378 551.578,-265.182 550.424,-258.278"/>
</g>
<!-- Node3 -->
<g id="node3" class="node"><title>Node3</title>
<g id="a_node3"><a xlink:href="$AC__PosControl_8cpp.html" xlink:title="libraries/AC_AttitudeControl\l/AC_PosControl.cpp">
<polygon fill="white" stroke="black" points="124.872,-130.5 124.872,-158.5 264.261,-158.5 264.261,-130.5 124.872,-130.5"/>
<text text-anchor="start" x="132.872" y="-146.5" font-family="Helvetica,sans-Serif" font-size="10.00">libraries/AC_AttitudeControl</text>
<text text-anchor="middle" x="194.566" y="-136.5" font-family="Helvetica,sans-Serif" font-size="10.00">/AC_PosControl.cpp</text>
</a>
</g>
</g>
<!-- Node2&#45;&gt;Node3 -->
<g id="edge2" class="edge"><title>Node2&#45;&gt;Node3</title>
<path fill="none" stroke="midnightblue" d="M207.985,-185.756C204.936,-176.608 201.53,-166.389 198.912,-158.537"/>
<polygon fill="midnightblue" stroke="midnightblue" points="204.732,-187.066 211.215,-195.446 211.373,-184.853 204.732,-187.066"/>
</g>
<!-- Node2&#45;&gt;Node4 -->
<g id="edge3" class="edge"><title>Node2&#45;&gt;Node4</title>
<path fill="none" stroke="midnightblue" d="M172.494,-191.75C145.734,-181.343 111.842,-168.163 87.0899,-158.537"/>
<polygon fill="midnightblue" stroke="midnightblue" points="171.411,-195.084 182,-195.446 173.948,-188.56 171.411,-195.084"/>
</g>
<!-- Node2&#45;&gt;Node6 -->
<g id="edge5" class="edge"><title>Node2&#45;&gt;Node6</title>
<path fill="none" stroke="midnightblue" d="M249.312,-190.783C268.829,-180.537 292.963,-167.867 310.734,-158.537"/>
<polygon fill="midnightblue" stroke="midnightblue" points="247.658,-187.699 240.43,-195.446 250.911,-193.897 247.658,-187.699"/>
</g>
<!-- Node5 -->
<g id="node5" class="node"><title>Node5</title>
<g id="a_node5"><a xlink:href="$AC__Circle_8cpp.html" xlink:title="libraries/AC_WPNav\l/AC_Circle.cpp">
<polygon fill="white" stroke="black" points="0,-65.5 0,-93.5 107.133,-93.5 107.133,-65.5 0,-65.5"/>
<text text-anchor="start" x="8" y="-81.5" font-family="Helvetica,sans-Serif" font-size="10.00">libraries/AC_WPNav</text>
<text text-anchor="middle" x="53.5664" y="-71.5" font-family="Helvetica,sans-Serif" font-size="10.00">/AC_Circle.cpp</text>
</a>
</g>
</g>
<!-- Node4&#45;&gt;Node5 -->
<g id="edge4" class="edge"><title>Node4&#45;&gt;Node5</title>
<path fill="none" stroke="midnightblue" d="M53.5664,-120.164C53.5664,-111.169 53.5664,-101.221 53.5664,-93.5369"/>
<polygon fill="midnightblue" stroke="midnightblue" points="50.0665,-120.446 53.5664,-130.446 57.0665,-120.446 50.0665,-120.446"/>
</g>
<!-- Node7 -->
<g id="node7" class="node"><title>Node7</title>
<g id="a_node7"><a xlink:href="$AC__WPNav_8cpp.html" xlink:title="libraries/AC_WPNav\l/AC_WPNav.cpp">
<polygon fill="white" stroke="black" points="282,-65.5 282,-93.5 389.133,-93.5 389.133,-65.5 282,-65.5"/>
<text text-anchor="start" x="290" y="-81.5" font-family="Helvetica,sans-Serif" font-size="10.00">libraries/AC_WPNav</text>
<text text-anchor="middle" x="335.566" y="-71.5" font-family="Helvetica,sans-Serif" font-size="10.00">/AC_WPNav.cpp</text>
</a>
</g>
</g>
<!-- Node6&#45;&gt;Node7 -->
<g id="edge6" class="edge"><title>Node6&#45;&gt;Node7</title>
<path fill="none" stroke="midnightblue" d="M335.566,-120.164C335.566,-111.169 335.566,-101.221 335.566,-93.5369"/>
<polygon fill="midnightblue" stroke="midnightblue" points="332.067,-120.446 335.566,-130.446 339.067,-120.446 332.067,-120.446"/>
</g>
<!-- Node9 -->
<g id="node9" class="node"><title>Node9</title>
<g id="a_node9"><a xlink:href="$AC__Fence_8cpp.html" xlink:title="libraries/AC_Fence\l/AC_Fence.cpp">
<polygon fill="white" stroke="black" points="407.049,-130.5 407.049,-158.5 508.083,-158.5 508.083,-130.5 407.049,-130.5"/>
<text text-anchor="start" x="415.049" y="-146.5" font-family="Helvetica,sans-Serif" font-size="10.00">libraries/AC_Fence</text>
<text text-anchor="middle" x="457.566" y="-136.5" font-family="Helvetica,sans-Serif" font-size="10.00">/AC_Fence.cpp</text>
</a>
</g>
</g>
<!-- Node8&#45;&gt;Node9 -->
<g id="edge8" class="edge"><title>Node8&#45;&gt;Node9</title>
<path fill="none" stroke="midnightblue" d="M431.262,-186.93C437.255,-177.491 444.089,-166.727 449.289,-158.537"/>
<polygon fill="midnightblue" stroke="midnightblue" points="428.26,-185.128 425.854,-195.446 434.169,-188.88 428.26,-185.128"/>
</g>
<!-- Node11 -->
<g id="node11" class="node"><title>Node11</title>
<g id="a_node11"><a xlink:href="$AC__PrecLand_8cpp.html" xlink:title="libraries/AC_PrecLand\l/AC_PrecLand.cpp">
<polygon fill="white" stroke="black" points="497.542,-0.5 497.542,-28.5 613.591,-28.5 613.591,-0.5 497.542,-0.5"/>
<text text-anchor="start" x="505.542" y="-16.5" font-family="Helvetica,sans-Serif" font-size="10.00">libraries/AC_PrecLand</text>
<text text-anchor="middle" x="555.566" y="-6.5" font-family="Helvetica,sans-Serif" font-size="10.00">/AC_PrecLand.cpp</text>
</a>
</g>
</g>
<!-- Node10&#45;&gt;Node11 -->
<g id="edge10" class="edge"><title>Node10&#45;&gt;Node11</title>
<path fill="none" stroke="midnightblue" d="M545.899,-185.115C548.233,-144.174 552.984,-60.807 554.82,-28.6033"/>
<polygon fill="midnightblue" stroke="midnightblue" points="542.397,-185.051 545.322,-195.234 549.386,-185.45 542.397,-185.051"/>
</g>
<!-- Node10&#45;&gt;Node12 -->
<g id="edge11" class="edge"><title>Node10&#45;&gt;Node12</title>
<path fill="none" stroke="midnightblue" d="M570.777,-189.52C584.599,-179.511 601.203,-167.487 613.563,-158.537"/>
<polygon fill="midnightblue" stroke="midnightblue" points="568.64,-186.746 562.593,-195.446 572.745,-192.416 568.64,-186.746"/>
</g>
<!-- Node12&#45;&gt;Node11 -->
<g id="edge12" class="edge"><title>Node12&#45;&gt;Node11</title>
<path fill="none" stroke="midnightblue" d="M613.735,-122.256C607.005,-113.748 599.539,-103.682 593.566,-94 580.052,-72.0933 567.729,-44.6646 560.975,-28.7082"/>
<polygon fill="midnightblue" stroke="midnightblue" points="611.126,-124.597 620.136,-130.172 616.569,-120.195 611.126,-124.597"/>
</g>
<!-- Node13 -->
<g id="node13" class="node"><title>Node13</title>
<g id="a_node13"><a xlink:href="$AC__PrecLand__Companion_8h.html" xlink:title="libraries/AC_PrecLand\l/AC_PrecLand_Companion.h">
<polygon fill="white" stroke="black" points="602.525,-65.5 602.525,-93.5 748.608,-93.5 748.608,-65.5 602.525,-65.5"/>
<text text-anchor="start" x="610.525" y="-81.5" font-family="Helvetica,sans-Serif" font-size="10.00">libraries/AC_PrecLand</text>
<text text-anchor="middle" x="675.566" y="-71.5" font-family="Helvetica,sans-Serif" font-size="10.00">/AC_PrecLand_Companion.h</text>
</a>
</g>
</g>
<!-- Node12&#45;&gt;Node13 -->
<g id="edge13" class="edge"><title>Node12&#45;&gt;Node13</title>
<path fill="none" stroke="midnightblue" d="M646.428,-122.221C653.068,-112.713 660.682,-101.812 666.461,-93.5369"/>
<polygon fill="midnightblue" stroke="midnightblue" points="643.54,-120.244 640.683,-130.446 649.279,-124.252 643.54,-120.244"/>
</g>
<!-- Node15 -->
<g id="node15" class="node"><title>Node15</title>
<g id="a_node15"><a xlink:href="$AC__PrecLand__IRLock_8h.html" xlink:title="libraries/AC_PrecLand\l/AC_PrecLand_IRLock.h">
<polygon fill="white" stroke="black" points="766.535,-65.5 766.535,-93.5 892.598,-93.5 892.598,-65.5 766.535,-65.5"/>
<text text-anchor="start" x="774.535" y="-81.5" font-family="Helvetica,sans-Serif" font-size="10.00">libraries/AC_PrecLand</text>
<text text-anchor="middle" x="829.566" y="-71.5" font-family="Helvetica,sans-Serif" font-size="10.00">/AC_PrecLand_IRLock.h</text>
</a>
</g>
</g>
<!-- Node12&#45;&gt;Node15 -->
<g id="edge16" class="edge"><title>Node12&#45;&gt;Node15</title>
<path fill="none" stroke="midnightblue" d="M682.497,-127.295C715.46,-116.807 757.81,-103.331 788.593,-93.5369"/>
<polygon fill="midnightblue" stroke="midnightblue" points="681.06,-124.079 672.592,-130.446 683.183,-130.749 681.06,-124.079"/>
</g>
<!-- Node13&#45;&gt;Node11 -->
<g id="edge14" class="edge"><title>Node13&#45;&gt;Node11</title>
<path fill="none" stroke="midnightblue" d="M641.821,-60.7834C622.304,-50.5371 598.17,-37.867 580.399,-28.5369"/>
<polygon fill="midnightblue" stroke="midnightblue" points="640.221,-63.8969 650.702,-65.4464 643.475,-57.6991 640.221,-63.8969"/>
</g>
<!-- Node14 -->
<g id="node14" class="node"><title>Node14</title>
<g id="a_node14"><a xlink:href="$AC__PrecLand__Companion_8cpp.html" xlink:title="libraries/AC_PrecLand\l/AC_PrecLand_Companion.cpp">
<polygon fill="white" stroke="black" points="631.244,-0.5 631.244,-28.5 787.889,-28.5 787.889,-0.5 631.244,-0.5"/>
<text text-anchor="start" x="639.244" y="-16.5" font-family="Helvetica,sans-Serif" font-size="10.00">libraries/AC_PrecLand</text>
<text text-anchor="middle" x="709.566" y="-6.5" font-family="Helvetica,sans-Serif" font-size="10.00">/AC_PrecLand_Companion.cpp</text>
</a>
</g>
</g>
<!-- Node13&#45;&gt;Node14 -->
<g id="edge15" class="edge"><title>Node13&#45;&gt;Node14</title>
<path fill="none" stroke="midnightblue" d="M687.365,-56.6376C692.421,-47.2694 698.156,-36.6427 702.531,-28.5369"/>
<polygon fill="midnightblue" stroke="midnightblue" points="684.281,-54.9838 682.611,-65.4464 690.441,-58.3084 684.281,-54.9838"/>
</g>
<!-- Node15&#45;&gt;Node11 -->
<g id="edge17" class="edge"><title>Node15&#45;&gt;Node11</title>
<path fill="none" stroke="midnightblue" d="M762.889,-63.1691C716.768,-52.5646 656.058,-38.6058 612.267,-28.5369"/>
<polygon fill="midnightblue" stroke="midnightblue" points="762.263,-66.6165 772.793,-65.4464 763.832,-59.7945 762.263,-66.6165"/>
</g>
<!-- Node16 -->
<g id="node16" class="node"><title>Node16</title>
<g id="a_node16"><a xlink:href="$AC__PrecLand__IRLock_8cpp.html" xlink:title="libraries/AC_PrecLand\l/AC_PrecLand_IRLock.cpp">
<polygon fill="white" stroke="black" points="806.254,-0.5 806.254,-28.5 942.879,-28.5 942.879,-0.5 806.254,-0.5"/>
<text text-anchor="start" x="814.254" y="-16.5" font-family="Helvetica,sans-Serif" font-size="10.00">libraries/AC_PrecLand</text>
<text text-anchor="middle" x="874.566" y="-6.5" font-family="Helvetica,sans-Serif" font-size="10.00">/AC_PrecLand_IRLock.cpp</text>
</a>
</g>
</g>
<!-- Node15&#45;&gt;Node16 -->
<g id="edge18" class="edge"><title>Node15&#45;&gt;Node16</title>
<path fill="none" stroke="midnightblue" d="M844.765,-57.2215C851.557,-47.7133 859.344,-36.8116 865.254,-28.5369"/>
<polygon fill="midnightblue" stroke="midnightblue" points="841.855,-55.2747 838.89,-65.4464 847.551,-59.3434 841.855,-55.2747"/>
</g>
<!-- Node18 -->
<g id="node18" class="node"><title>Node18</title>
<g id="a_node18"><a xlink:href="$AC__Sprayer_8cpp.html" xlink:title="libraries/AC_Sprayer\l/AC_Sprayer.cpp">
<polygon fill="white" stroke="black" points="716.438,-130.5 716.438,-158.5 824.694,-158.5 824.694,-130.5 716.438,-130.5"/>
<text text-anchor="start" x="724.438" y="-146.5" font-family="Helvetica,sans-Serif" font-size="10.00">libraries/AC_Sprayer</text>
<text text-anchor="middle" x="770.566" y="-136.5" font-family="Helvetica,sans-Serif" font-size="10.00">/AC_Sprayer.cpp</text>
</a>
</g>
</g>
<!-- Node17&#45;&gt;Node18 -->
<g id="edge21" class="edge"><title>Node17&#45;&gt;Node18</title>
<path fill="none" stroke="midnightblue" d="M731.622,-187.802C740.499,-178.159 750.791,-166.98 758.564,-158.537"/>
<polygon fill="midnightblue" stroke="midnightblue" points="728.782,-185.719 724.584,-195.446 733.932,-190.46 728.782,-185.719"/>
</g>
</g>
</svg>
