<?xml version="1.0" encoding="UTF-8" standalone="no"?>
<!DOCTYPE svg PUBLIC "-//W3C//DTD SVG 1.1//EN"
 "http://www.w3.org/Graphics/SVG/1.1/DTD/svg11.dtd">
<!-- Generated by graphviz version 2.38.0 (20140413.2041)
 -->
<!-- Title: get_bearing_cd Pages: 1 -->
<svg width="423pt" height="168pt"
 viewBox="0.00 0.00 423.33 168.00" xmlns="http://www.w3.org/2000/svg" xmlns:xlink="http://www.w3.org/1999/xlink">
<g id="graph0" class="graph" transform="scale(1 1) rotate(0) translate(4 164)">
<title>get_bearing_cd</title>
<polygon fill="white" stroke="none" points="-4,4 -4,-164 419.335,-164 419.335,4 -4,4"/>
<!-- Node1 -->
<g id="node1" class="node"><title>Node1</title>
<polygon fill="#bfbfbf" stroke="black" points="0,-73.5 0,-91.5 84.9453,-91.5 84.9453,-73.5 0,-73.5"/>
<text text-anchor="middle" x="42.4727" y="-79.5" font-family="Helvetica,sans-Serif" font-size="10.00">get_bearing_cd</text>
</g>
<!-- Node2 -->
<g id="node2" class="node"><title>Node2</title>
<g id="a_node2"><a xlink:href="$classAP__Mission.html#a338b12fad6aa74b9c8a34d65850f6b40" xlink:title="AP_Mission::get_next\l_ground_course_cd">
<polygon fill="white" stroke="black" points="124.568,-131.5 124.568,-159.5 237.287,-159.5 237.287,-131.5 124.568,-131.5"/>
<text text-anchor="start" x="132.568" y="-147.5" font-family="Helvetica,sans-Serif" font-size="10.00">AP_Mission::get_next</text>
<text text-anchor="middle" x="180.928" y="-137.5" font-family="Helvetica,sans-Serif" font-size="10.00">_ground_course_cd</text>
</a>
</g>
</g>
<!-- Node1&#45;&gt;Node2 -->
<g id="edge1" class="edge"><title>Node1&#45;&gt;Node2</title>
<path fill="none" stroke="midnightblue" d="M68.9764,-96.5246C83.9285,-104.53 103.292,-114.527 120.945,-122.5 127.757,-125.576 135.111,-128.641 142.24,-131.483"/>
<polygon fill="midnightblue" stroke="midnightblue" points="70.3115,-93.2678 59.8499,-91.5929 66.9837,-99.4262 70.3115,-93.2678"/>
</g>
<!-- Node3 -->
<g id="node3" class="node"><title>Node3</title>
<g id="a_node3"><a xlink:href="$examples_2location_2location_8cpp.html#af4c4a815e04b2917f9e189120d8b2ad1" xlink:title="test_one_offset">
<polygon fill="white" stroke="black" points="138.824,-94.5 138.824,-112.5 223.032,-112.5 223.032,-94.5 138.824,-94.5"/>
<text text-anchor="middle" x="180.928" y="-100.5" font-family="Helvetica,sans-Serif" font-size="10.00">test_one_offset</text>
</a>
</g>
</g>
<!-- Node1&#45;&gt;Node3 -->
<g id="edge2" class="edge"><title>Node1&#45;&gt;Node3</title>
<path fill="none" stroke="midnightblue" d="M95.3316,-90.4809C109.607,-92.6779 124.899,-95.0312 138.501,-97.1245"/>
<polygon fill="midnightblue" stroke="midnightblue" points="95.5712,-86.9767 85.1551,-88.9148 94.5064,-93.8952 95.5712,-86.9767"/>
</g>
<!-- Node6 -->
<g id="node6" class="node"><title>Node6</title>
<g id="a_node6"><a xlink:href="$classAP__L1__Control.html#acc0860ec530ec9c9bec50a5701bb709e" xlink:title="AP_L1_Control::update\l_loiter">
<polygon fill="white" stroke="black" points="120.945,-47.5 120.945,-75.5 240.91,-75.5 240.91,-47.5 120.945,-47.5"/>
<text text-anchor="start" x="128.945" y="-63.5" font-family="Helvetica,sans-Serif" font-size="10.00">AP_L1_Control::update</text>
<text text-anchor="middle" x="180.928" y="-53.5" font-family="Helvetica,sans-Serif" font-size="10.00">_loiter</text>
</a>
</g>
</g>
<!-- Node1&#45;&gt;Node6 -->
<g id="edge5" class="edge"><title>Node1&#45;&gt;Node6</title>
<path fill="none" stroke="midnightblue" d="M95.1931,-74.5404C103.597,-73.247 112.357,-71.8989 120.92,-70.5811"/>
<polygon fill="midnightblue" stroke="midnightblue" points="94.5064,-71.1048 85.1551,-76.0852 95.5712,-78.0233 94.5064,-71.1048"/>
</g>
<!-- Node7 -->
<g id="node7" class="node"><title>Node7</title>
<g id="a_node7"><a xlink:href="$classAP__L1__Control.html#a9052f01ea019fb51432d3104cce0b6e8" xlink:title="AP_L1_Control::update\l_waypoint">
<polygon fill="white" stroke="black" points="120.945,-0.5 120.945,-28.5 240.91,-28.5 240.91,-0.5 120.945,-0.5"/>
<text text-anchor="start" x="128.945" y="-16.5" font-family="Helvetica,sans-Serif" font-size="10.00">AP_L1_Control::update</text>
<text text-anchor="middle" x="180.928" y="-6.5" font-family="Helvetica,sans-Serif" font-size="10.00">_waypoint</text>
</a>
</g>
</g>
<!-- Node1&#45;&gt;Node7 -->
<g id="edge6" class="edge"><title>Node1&#45;&gt;Node7</title>
<path fill="none" stroke="midnightblue" d="M66.7272,-68.2387C81.8953,-59.2018 102.273,-47.5537 120.945,-38.5 128.008,-35.0754 135.69,-31.7043 143.105,-28.6205"/>
<polygon fill="midnightblue" stroke="midnightblue" points="64.7803,-65.3254 58.018,-73.4815 68.3906,-71.3226 64.7803,-65.3254"/>
</g>
<!-- Node4 -->
<g id="node4" class="node"><title>Node4</title>
<g id="a_node4"><a xlink:href="$examples_2location_2location_8cpp.html#ac7efc0072d2ac5bca8b847032980a1dd" xlink:title="test_offset">
<polygon fill="white" stroke="black" points="276.91,-94.5 276.91,-112.5 338.872,-112.5 338.872,-94.5 276.91,-94.5"/>
<text text-anchor="middle" x="307.891" y="-100.5" font-family="Helvetica,sans-Serif" font-size="10.00">test_offset</text>
</a>
</g>
</g>
<!-- Node3&#45;&gt;Node4 -->
<g id="edge3" class="edge"><title>Node3&#45;&gt;Node4</title>
<path fill="none" stroke="midnightblue" d="M233.252,-103.5C248.044,-103.5 263.698,-103.5 276.752,-103.5"/>
<polygon fill="midnightblue" stroke="midnightblue" points="233.192,-100 223.192,-103.5 233.192,-107 233.192,-100"/>
</g>
<!-- Node5 -->
<g id="node5" class="node"><title>Node5</title>
<g id="a_node5"><a xlink:href="$examples_2location_2location_8cpp.html#a7dfd9b79bc5a37d7df40207afbc5431f" xlink:title="setup">
<polygon fill="white" stroke="black" points="374.872,-94.5 374.872,-112.5 415.335,-112.5 415.335,-94.5 374.872,-94.5"/>
<text text-anchor="middle" x="395.104" y="-100.5" font-family="Helvetica,sans-Serif" font-size="10.00">setup</text>
</a>
</g>
</g>
<!-- Node4&#45;&gt;Node5 -->
<g id="edge4" class="edge"><title>Node4&#45;&gt;Node5</title>
<path fill="none" stroke="midnightblue" d="M349.423,-103.5C358.278,-103.5 367.254,-103.5 374.814,-103.5"/>
<polygon fill="midnightblue" stroke="midnightblue" points="349.174,-100 339.174,-103.5 349.174,-107 349.174,-100"/>
</g>
</g>
</svg>
