<?xml version="1.0" encoding="UTF-8" standalone="no"?>
<!DOCTYPE svg PUBLIC "-//W3C//DTD SVG 1.1//EN"
 "http://www.w3.org/Graphics/SVG/1.1/DTD/svg11.dtd">
<!-- Generated by graphviz version 2.38.0 (20140413.2041)
 -->
<!-- Title: location_update Pages: 1 -->
<svg width="442pt" height="353pt"
 viewBox="0.00 0.00 442.06 353.00" xmlns="http://www.w3.org/2000/svg" xmlns:xlink="http://www.w3.org/1999/xlink">
<g id="graph0" class="graph" transform="scale(1 1) rotate(0) translate(4 349)">
<title>location_update</title>
<polygon fill="white" stroke="none" points="-4,4 -4,-349 438.058,-349 438.058,4 -4,4"/>
<!-- Node1 -->
<g id="node1" class="node"><title>Node1</title>
<polygon fill="#bfbfbf" stroke="black" points="0,-215.5 0,-233.5 86.6152,-233.5 86.6152,-215.5 0,-215.5"/>
<text text-anchor="middle" x="43.3076" y="-221.5" font-family="Helvetica,sans-Serif" font-size="10.00">location_update</text>
</g>
<!-- Node2 -->
<g id="node2" class="node"><title>Node2</title>
<g id="a_node2"><a xlink:href="$classAP__AHRS__DCM.html#ac8f908b8d8551b3201a104d03a5c31b7" xlink:title="AP_AHRS_DCM::get_position">
<polygon fill="white" stroke="black" points="122.615,-274.5 122.615,-292.5 273.122,-292.5 273.122,-274.5 122.615,-274.5"/>
<text text-anchor="middle" x="197.869" y="-280.5" font-family="Helvetica,sans-Serif" font-size="10.00">AP_AHRS_DCM::get_position</text>
</a>
</g>
</g>
<!-- Node1&#45;&gt;Node2 -->
<g id="edge1" class="edge"><title>Node1&#45;&gt;Node2</title>
<path fill="none" stroke="midnightblue" d="M77.5171,-237.343C106.548,-248.57 147.96,-264.586 173.589,-274.497"/>
<polygon fill="midnightblue" stroke="midnightblue" points="78.4002,-233.932 67.8109,-233.589 75.8753,-240.461 78.4002,-233.932"/>
</g>
<!-- Node5 -->
<g id="node5" class="node"><title>Node5</title>
<g id="a_node5"><a xlink:href="$classSITL_1_1Aircraft.html#a4a72b2c0617cf55b24b062daaae685b9" xlink:title="SITL::Aircraft::update\l_position">
<polygon fill="white" stroke="black" points="142.625,-134.5 142.625,-162.5 253.112,-162.5 253.112,-134.5 142.625,-134.5"/>
<text text-anchor="start" x="150.625" y="-150.5" font-family="Helvetica,sans-Serif" font-size="10.00">SITL::Aircraft::update</text>
<text text-anchor="middle" x="197.869" y="-140.5" font-family="Helvetica,sans-Serif" font-size="10.00">_position</text>
</a>
</g>
</g>
<!-- Node1&#45;&gt;Node5 -->
<g id="edge4" class="edge"><title>Node1&#45;&gt;Node5</title>
<path fill="none" stroke="midnightblue" d="M71.4332,-210.987C98.8215,-197.343 140.936,-176.363 168.694,-162.536"/>
<polygon fill="midnightblue" stroke="midnightblue" points="69.7977,-207.892 62.4075,-215.483 72.919,-214.157 69.7977,-207.892"/>
</g>
<!-- Node3 -->
<g id="node3" class="node"><title>Node3</title>
<g id="a_node3"><a xlink:href="$classAP__AHRS__NavEKF.html#ab2bc37cda9f3338c1738cc21a533ab24" xlink:title="AP_AHRS_NavEKF::get\l_position">
<polygon fill="white" stroke="black" points="309.122,-316.5 309.122,-344.5 434.058,-344.5 434.058,-316.5 309.122,-316.5"/>
<text text-anchor="start" x="317.122" y="-332.5" font-family="Helvetica,sans-Serif" font-size="10.00">AP_AHRS_NavEKF::get</text>
<text text-anchor="middle" x="371.59" y="-322.5" font-family="Helvetica,sans-Serif" font-size="10.00">_position</text>
</a>
</g>
</g>
<!-- Node2&#45;&gt;Node3 -->
<g id="edge2" class="edge"><title>Node2&#45;&gt;Node3</title>
<path fill="none" stroke="midnightblue" d="M241.679,-295.217C265.216,-301.659 294.577,-309.695 319.329,-316.47"/>
<polygon fill="midnightblue" stroke="midnightblue" points="242.547,-291.826 231.978,-292.562 240.699,-298.578 242.547,-291.826"/>
</g>
<!-- Node4 -->
<g id="node4" class="node"><title>Node4</title>
<g id="a_node4"><a xlink:href="$classAP__AHRS__NavEKF.html#a044e8a655c79b6b957047387b6fc0bbb" xlink:title="AP_AHRS_NavEKF::get\l_secondary_position">
<polygon fill="white" stroke="black" points="309.122,-269.5 309.122,-297.5 434.058,-297.5 434.058,-269.5 309.122,-269.5"/>
<text text-anchor="start" x="317.122" y="-285.5" font-family="Helvetica,sans-Serif" font-size="10.00">AP_AHRS_NavEKF::get</text>
<text text-anchor="middle" x="371.59" y="-275.5" font-family="Helvetica,sans-Serif" font-size="10.00">_secondary_position</text>
</a>
</g>
</g>
<!-- Node2&#45;&gt;Node4 -->
<g id="edge3" class="edge"><title>Node2&#45;&gt;Node4</title>
<path fill="none" stroke="midnightblue" d="M283.336,-283.5C292.005,-283.5 300.692,-283.5 309.046,-283.5"/>
<polygon fill="midnightblue" stroke="midnightblue" points="283.189,-280 273.189,-283.5 283.189,-287 283.189,-280"/>
</g>
<!-- Node6 -->
<g id="node6" class="node"><title>Node6</title>
<g id="a_node6"><a xlink:href="$classSITL_1_1Balloon.html#a34f5716a3c9ba0805d89dc36656ae90c" xlink:title="SITL::Balloon::update">
<polygon fill="white" stroke="black" points="315.501,-232.5 315.501,-250.5 427.678,-250.5 427.678,-232.5 315.501,-232.5"/>
<text text-anchor="middle" x="371.59" y="-238.5" font-family="Helvetica,sans-Serif" font-size="10.00">SITL::Balloon::update</text>
</a>
</g>
</g>
<!-- Node5&#45;&gt;Node6 -->
<g id="edge5" class="edge"><title>Node5&#45;&gt;Node6</title>
<path fill="none" stroke="midnightblue" d="M223.738,-168.776C245.232,-185.449 277.704,-208.667 309.122,-223.5 316.563,-227.013 324.838,-229.999 332.844,-232.469"/>
<polygon fill="midnightblue" stroke="midnightblue" points="225.81,-165.952 215.788,-162.517 221.48,-171.452 225.81,-165.952"/>
</g>
<!-- Node7 -->
<g id="node7" class="node"><title>Node7</title>
<g id="a_node7"><a xlink:href="$classSITL_1_1CRRCSim.html#ada236d396837feb2c5efe885ea504f87" xlink:title="SITL::CRRCSim::update">
<polygon fill="white" stroke="black" points="309.127,-195.5 309.127,-213.5 434.053,-213.5 434.053,-195.5 309.127,-195.5"/>
<text text-anchor="middle" x="371.59" y="-201.5" font-family="Helvetica,sans-Serif" font-size="10.00">SITL::CRRCSim::update</text>
</a>
</g>
</g>
<!-- Node5&#45;&gt;Node7 -->
<g id="edge6" class="edge"><title>Node5&#45;&gt;Node7</title>
<path fill="none" stroke="midnightblue" d="M247.926,-165.961C266.968,-172.594 288.998,-180.089 309.122,-186.5 318.658,-189.538 329.086,-192.664 338.6,-195.442"/>
<polygon fill="midnightblue" stroke="midnightblue" points="248.862,-162.581 238.267,-162.582 246.55,-169.188 248.862,-162.581"/>
</g>
<!-- Node8 -->
<g id="node8" class="node"><title>Node8</title>
<g id="a_node8"><a xlink:href="$classSITL_1_1Gazebo.html#a120a541070549b98ba4740c91abf97a7" xlink:title="SITL::Gazebo::update">
<polygon fill="white" stroke="black" points="314.669,-158.5 314.669,-176.5 428.511,-176.5 428.511,-158.5 314.669,-158.5"/>
<text text-anchor="middle" x="371.59" y="-164.5" font-family="Helvetica,sans-Serif" font-size="10.00">SITL::Gazebo::update</text>
</a>
</g>
</g>
<!-- Node5&#45;&gt;Node8 -->
<g id="edge7" class="edge"><title>Node5&#45;&gt;Node8</title>
<path fill="none" stroke="midnightblue" d="M263.484,-155.649C280.278,-157.507 298.228,-159.494 314.54,-161.298"/>
<polygon fill="midnightblue" stroke="midnightblue" points="263.527,-152.133 253.202,-154.512 262.757,-159.09 263.527,-152.133"/>
</g>
<!-- Node9 -->
<g id="node9" class="node"><title>Node9</title>
<g id="a_node9"><a xlink:href="$classSITL_1_1Helicopter.html#a0e8602ead0fe804552ab7ade9a1b171e" xlink:title="SITL::Helicopter::update">
<polygon fill="white" stroke="black" points="309.671,-121.5 309.671,-139.5 433.508,-139.5 433.508,-121.5 309.671,-121.5"/>
<text text-anchor="middle" x="371.59" y="-127.5" font-family="Helvetica,sans-Serif" font-size="10.00">SITL::Helicopter::update</text>
</a>
</g>
</g>
<!-- Node5&#45;&gt;Node9 -->
<g id="edge8" class="edge"><title>Node5&#45;&gt;Node9</title>
<path fill="none" stroke="midnightblue" d="M263.46,-141.729C278.528,-140.15 294.529,-138.473 309.443,-136.909"/>
<polygon fill="midnightblue" stroke="midnightblue" points="262.783,-138.281 253.202,-142.805 263.513,-145.243 262.783,-138.281"/>
</g>
<!-- Node10 -->
<g id="node10" class="node"><title>Node10</title>
<g id="a_node10"><a xlink:href="$classSITL_1_1MultiCopter.html#a1c12d5064cc2851e9861353e694805bc" xlink:title="SITL::MultiCopter::\lupdate">
<polygon fill="white" stroke="black" points="321.91,-74.5 321.91,-102.5 421.27,-102.5 421.27,-74.5 321.91,-74.5"/>
<text text-anchor="start" x="329.91" y="-90.5" font-family="Helvetica,sans-Serif" font-size="10.00">SITL::MultiCopter::</text>
<text text-anchor="middle" x="371.59" y="-80.5" font-family="Helvetica,sans-Serif" font-size="10.00">update</text>
</a>
</g>
</g>
<!-- Node5&#45;&gt;Node10 -->
<g id="edge9" class="edge"><title>Node5&#45;&gt;Node10</title>
<path fill="none" stroke="midnightblue" d="M248.774,-131.063C274.684,-122.01 305.927,-111.094 330.284,-102.583"/>
<polygon fill="midnightblue" stroke="midnightblue" points="247.415,-127.83 239.13,-134.433 249.724,-134.438 247.415,-127.83"/>
</g>
<!-- Node11 -->
<g id="node11" class="node"><title>Node11</title>
<g id="a_node11"><a xlink:href="$classSITL_1_1SimRover.html#a0692a116e9c7cff78adb0b08b0d571b2" xlink:title="SITL::SimRover::update">
<polygon fill="white" stroke="black" points="310.233,-37.5 310.233,-55.5 432.947,-55.5 432.947,-37.5 310.233,-37.5"/>
<text text-anchor="middle" x="371.59" y="-43.5" font-family="Helvetica,sans-Serif" font-size="10.00">SITL::SimRover::update</text>
</a>
</g>
</g>
<!-- Node5&#45;&gt;Node11 -->
<g id="edge10" class="edge"><title>Node5&#45;&gt;Node11</title>
<path fill="none" stroke="midnightblue" d="M221.664,-127.573C242.919,-109.018 276.207,-82.3251 309.122,-65.5 316.88,-61.5346 325.616,-58.2217 334.015,-55.5319"/>
<polygon fill="midnightblue" stroke="midnightblue" points="219.294,-124.996 214.132,-134.248 223.938,-130.235 219.294,-124.996"/>
</g>
<!-- Node12 -->
<g id="node12" class="node"><title>Node12</title>
<g id="a_node12"><a xlink:href="$classSITL_1_1Tracker.html#aa2d26c0841ead98b60a9291eb4d74b71" xlink:title="SITL::Tracker::update">
<polygon fill="white" stroke="black" points="315.418,-0.5 315.418,-18.5 427.761,-18.5 427.761,-0.5 315.418,-0.5"/>
<text text-anchor="middle" x="371.59" y="-6.5" font-family="Helvetica,sans-Serif" font-size="10.00">SITL::Tracker::update</text>
</a>
</g>
</g>
<!-- Node5&#45;&gt;Node12 -->
<g id="edge11" class="edge"><title>Node5&#45;&gt;Node12</title>
<path fill="none" stroke="midnightblue" d="M213.836,-126.007C232.897,-99.0531 268.301,-54.3065 309.122,-28.5 315.637,-24.3817 323.105,-21.1031 330.539,-18.5108"/>
<polygon fill="midnightblue" stroke="midnightblue" points="210.831,-124.198 208.015,-134.412 216.586,-128.184 210.831,-124.198"/>
</g>
</g>
</svg>
