<?xml version="1.0" encoding="UTF-8" standalone="no"?>
<!DOCTYPE svg PUBLIC "-//W3C//DTD SVG 1.1//EN"
 "http://www.w3.org/Graphics/SVG/1.1/DTD/svg11.dtd">
<!-- Generated by graphviz version 2.38.0 (20140413.2041)
 -->
<!-- Title: libraries/AP_ServoRelayEvents/AP_ServoRelayEvents.cpp Pages: 1 -->
<svg width="1586pt" height="752pt"
 viewBox="0.00 0.00 1585.66 752.00" xmlns="http://www.w3.org/2000/svg" xmlns:xlink="http://www.w3.org/1999/xlink">
<g id="graph0" class="graph" transform="scale(1 1) rotate(0) translate(4 748)">
<title>libraries/AP_ServoRelayEvents/AP_ServoRelayEvents.cpp</title>
<polygon fill="white" stroke="none" points="-4,4 -4,-748 1581.66,-748 1581.66,4 -4,4"/>
<!-- Node1 -->
<g id="node1" class="node"><title>Node1</title>
<polygon fill="#bfbfbf" stroke="black" points="464.189,-715.5 464.189,-743.5 619.139,-743.5 619.139,-715.5 464.189,-715.5"/>
<text text-anchor="start" x="472.189" y="-731.5" font-family="Helvetica,sans-Serif" font-size="10.00">libraries/AP_ServoRelayEvents</text>
<text text-anchor="middle" x="541.664" y="-721.5" font-family="Helvetica,sans-Serif" font-size="10.00">/AP_ServoRelayEvents.cpp</text>
</g>
<!-- Node2 -->
<g id="node2" class="node"><title>Node2</title>
<g id="a_node2"><a xlink:href="$AP__HAL_8h.html" xlink:title="AP_HAL/AP_HAL.h">
<polygon fill="white" stroke="black" points="841.751,-440.5 841.751,-458.5 945.578,-458.5 945.578,-440.5 841.751,-440.5"/>
<text text-anchor="middle" x="893.664" y="-446.5" font-family="Helvetica,sans-Serif" font-size="10.00">AP_HAL/AP_HAL.h</text>
</a>
</g>
</g>
<!-- Node1&#45;&gt;Node2 -->
<g id="edge1" class="edge"><title>Node1&#45;&gt;Node2</title>
<path fill="none" stroke="midnightblue" d="M619.348,-719.391C723.008,-705.031 893.664,-672.703 893.664,-615.5 893.664,-615.5 893.664,-615.5 893.664,-558.5 893.664,-527.018 893.664,-490.373 893.664,-468.881"/>
<polygon fill="midnightblue" stroke="midnightblue" points="897.164,-468.629 893.664,-458.629 890.164,-468.629 897.164,-468.629"/>
</g>
<!-- Node20 -->
<g id="node20" class="node"><title>Node20</title>
<g id="a_node20"><a xlink:href="$AP__Common_8h.html" xlink:title="Common definitions and utility routines for the ArduPilot libraries. ">
<polygon fill="white" stroke="black" points="261.637,-165.5 261.637,-183.5 407.691,-183.5 407.691,-165.5 261.637,-165.5"/>
<text text-anchor="middle" x="334.664" y="-171.5" font-family="Helvetica,sans-Serif" font-size="10.00">AP_Common/AP_Common.h</text>
</a>
</g>
</g>
<!-- Node1&#45;&gt;Node20 -->
<g id="edge68" class="edge"><title>Node1&#45;&gt;Node20</title>
<path fill="none" stroke="midnightblue" d="M463.956,-721.485C351.75,-709.174 157.664,-678.739 157.664,-615.5 157.664,-615.5 157.664,-615.5 157.664,-448.5 157.664,-333.166 207.456,-309.121 280.664,-220 290.278,-208.297 303.335,-197.439 314.201,-189.378"/>
<polygon fill="midnightblue" stroke="midnightblue" points="316.246,-192.218 322.339,-183.55 312.171,-186.527 316.246,-192.218"/>
</g>
<!-- Node30 -->
<g id="node30" class="node"><title>Node30</title>
<g id="a_node30"><a xlink:href="$AP__ServoRelayEvents_8h.html" xlink:title="AP_ServoRelayEvents.h">
<polygon fill="white" stroke="black" points="431.913,-660.5 431.913,-678.5 557.415,-678.5 557.415,-660.5 431.913,-660.5"/>
<text text-anchor="middle" x="494.664" y="-666.5" font-family="Helvetica,sans-Serif" font-size="10.00">AP_ServoRelayEvents.h</text>
</a>
</g>
</g>
<!-- Node1&#45;&gt;Node30 -->
<g id="edge69" class="edge"><title>Node1&#45;&gt;Node30</title>
<path fill="none" stroke="midnightblue" d="M530.999,-715.339C524.103,-706.829 515.079,-695.693 507.75,-686.649"/>
<polygon fill="midnightblue" stroke="midnightblue" points="510.382,-684.337 501.367,-678.771 504.944,-688.744 510.382,-684.337"/>
</g>
<!-- Node38 -->
<g id="node38" class="node"><title>Node38</title>
<g id="a_node38"><a xlink:href="$RC__Channel_8h.html" xlink:title="RC_Channel manager, with EEPROM&#45;backed storage of constants. ">
<polygon fill="white" stroke="black" points="522.849,-605.5 522.849,-623.5 664.479,-623.5 664.479,-605.5 522.849,-605.5"/>
<text text-anchor="middle" x="593.664" y="-611.5" font-family="Helvetica,sans-Serif" font-size="10.00">RC_Channel/RC_Channel.h</text>
</a>
</g>
</g>
<!-- Node1&#45;&gt;Node38 -->
<g id="edge84" class="edge"><title>Node1&#45;&gt;Node38</title>
<path fill="none" stroke="midnightblue" d="M548.695,-715.171C553.843,-705.273 560.905,-691.399 566.664,-679 573.761,-663.722 581.208,-646.068 586.48,-633.258"/>
<polygon fill="midnightblue" stroke="midnightblue" points="589.803,-634.377 590.34,-623.796 583.322,-631.733 589.803,-634.377"/>
</g>
<!-- Node3 -->
<g id="node3" class="node"><title>Node3</title>
<polygon fill="white" stroke="#bfbfbf" points="643.544,-110.5 643.544,-128.5 691.785,-128.5 691.785,-110.5 643.544,-110.5"/>
<text text-anchor="middle" x="667.664" y="-116.5" font-family="Helvetica,sans-Serif" font-size="10.00">stdint.h</text>
</g>
<!-- Node2&#45;&gt;Node3 -->
<g id="edge2" class="edge"><title>Node2&#45;&gt;Node3</title>
<path fill="none" stroke="midnightblue" d="M841.531,-445.901C774.788,-439.445 667.664,-417.144 667.664,-340.5 667.664,-340.5 667.664,-340.5 667.664,-228.5 667.664,-197.018 667.664,-160.373 667.664,-138.881"/>
<polygon fill="midnightblue" stroke="midnightblue" points="671.164,-138.629 667.664,-128.629 664.164,-138.629 671.164,-138.629"/>
</g>
<!-- Node4 -->
<g id="node4" class="node"><title>Node4</title>
<polygon fill="white" stroke="#bfbfbf" points="207.371,-110.5 207.371,-128.5 263.957,-128.5 263.957,-110.5 207.371,-110.5"/>
<text text-anchor="middle" x="235.664" y="-116.5" font-family="Helvetica,sans-Serif" font-size="10.00">stdbool.h</text>
</g>
<!-- Node2&#45;&gt;Node4 -->
<g id="edge3" class="edge"><title>Node2&#45;&gt;Node4</title>
<path fill="none" stroke="midnightblue" d="M841.461,-448.732C767.868,-447.631 630.252,-440.294 519.664,-404 395.978,-363.407 363.928,-336.491 277.664,-239 258.923,-217.82 255.137,-210.647 245.664,-184 240.455,-169.347 237.954,-151.832 236.756,-138.912"/>
<polygon fill="midnightblue" stroke="midnightblue" points="240.218,-138.264 235.982,-128.553 233.237,-138.786 240.218,-138.264"/>
</g>
<!-- Node5 -->
<g id="node5" class="node"><title>Node5</title>
<g id="a_node5"><a xlink:href="$AP__HAL__Namespace_8h.html" xlink:title="AP_HAL_Namespace.h">
<polygon fill="white" stroke="black" points="1092.86,-55.5 1092.86,-73.5 1214.47,-73.5 1214.47,-55.5 1092.86,-55.5"/>
<text text-anchor="middle" x="1153.66" y="-61.5" font-family="Helvetica,sans-Serif" font-size="10.00">AP_HAL_Namespace.h</text>
</a>
</g>
</g>
<!-- Node2&#45;&gt;Node5 -->
<g id="edge4" class="edge"><title>Node2&#45;&gt;Node5</title>
<path fill="none" stroke="midnightblue" d="M945.787,-447.274C1067.54,-443.952 1367.57,-432.997 1463.66,-404 1519.19,-387.246 1577.66,-398.497 1577.66,-340.5 1577.66,-340.5 1577.66,-340.5 1577.66,-173.5 1577.66,-101.627 1345.98,-76.9982 1225.14,-69.0402"/>
<polygon fill="midnightblue" stroke="midnightblue" points="1225.07,-65.5286 1214.86,-68.3861 1224.62,-72.5144 1225.07,-65.5286"/>
</g>
<!-- Node8 -->
<g id="node8" class="node"><title>Node8</title>
<g id="a_node8"><a xlink:href="$AP__HAL__Boards_8h.html" xlink:title="AP_HAL_Boards.h">
<polygon fill="white" stroke="black" points="463.694,-165.5 463.694,-183.5 563.634,-183.5 563.634,-165.5 463.694,-165.5"/>
<text text-anchor="middle" x="513.664" y="-171.5" font-family="Helvetica,sans-Serif" font-size="10.00">AP_HAL_Boards.h</text>
</a>
</g>
</g>
<!-- Node2&#45;&gt;Node8 -->
<g id="edge7" class="edge"><title>Node2&#45;&gt;Node8</title>
<path fill="none" stroke="midnightblue" d="M841.547,-444.307C739.168,-434.628 521.664,-406.321 521.664,-340.5 521.664,-340.5 521.664,-340.5 521.664,-283.5 521.664,-251.785 518.191,-214.974 515.821,-193.553"/>
<polygon fill="midnightblue" stroke="midnightblue" points="519.298,-193.148 514.677,-183.614 512.344,-193.948 519.298,-193.148"/>
</g>
<!-- Node9 -->
<g id="node9" class="node"><title>Node9</title>
<g id="a_node9"><a xlink:href="$AP__HAL__Macros_8h.html" xlink:title="AP_HAL_Macros.h">
<polygon fill="white" stroke="black" points="979.145,-385.5 979.145,-403.5 1080.18,-403.5 1080.18,-385.5 979.145,-385.5"/>
<text text-anchor="middle" x="1029.66" y="-391.5" font-family="Helvetica,sans-Serif" font-size="10.00">AP_HAL_Macros.h</text>
</a>
</g>
</g>
<!-- Node2&#45;&gt;Node9 -->
<g id="edge8" class="edge"><title>Node2&#45;&gt;Node9</title>
<path fill="none" stroke="midnightblue" d="M914.32,-440.45C936.986,-431.617 973.584,-417.355 999.47,-407.267"/>
<polygon fill="midnightblue" stroke="midnightblue" points="1000.77,-410.518 1008.81,-403.625 998.226,-403.995 1000.77,-410.518"/>
</g>
<!-- Node10 -->
<g id="node10" class="node"><title>Node10</title>
<g id="a_node10"><a xlink:href="$AP__HAL__Main_8h.html" xlink:title="AP_HAL_Main.h">
<polygon fill="white" stroke="black" points="1174.7,-385.5 1174.7,-403.5 1264.63,-403.5 1264.63,-385.5 1174.7,-385.5"/>
<text text-anchor="middle" x="1219.66" y="-391.5" font-family="Helvetica,sans-Serif" font-size="10.00">AP_HAL_Main.h</text>
</a>
</g>
</g>
<!-- Node2&#45;&gt;Node10 -->
<g id="edge9" class="edge"><title>Node2&#45;&gt;Node10</title>
<path fill="none" stroke="midnightblue" d="M943.177,-440.45C1002.82,-430.754 1102.71,-414.513 1164.7,-404.437"/>
<polygon fill="midnightblue" stroke="midnightblue" points="1165.37,-407.873 1174.68,-402.813 1164.25,-400.963 1165.37,-407.873"/>
</g>
<!-- Node11 -->
<g id="node11" class="node"><title>Node11</title>
<g id="a_node11"><a xlink:href="$HAL_8h.html" xlink:title="HAL.h">
<polygon fill="white" stroke="black" points="1171.77,-330.5 1171.77,-348.5 1215.56,-348.5 1215.56,-330.5 1171.77,-330.5"/>
<text text-anchor="middle" x="1193.66" y="-336.5" font-family="Helvetica,sans-Serif" font-size="10.00">HAL.h</text>
</a>
</g>
</g>
<!-- Node2&#45;&gt;Node11 -->
<g id="edge67" class="edge"><title>Node2&#45;&gt;Node11</title>
<path fill="none" stroke="midnightblue" d="M945.752,-446.258C993.882,-442.407 1066.25,-432.005 1122.66,-404 1145.94,-392.443 1167.4,-371.145 1180.49,-356.421"/>
<polygon fill="midnightblue" stroke="midnightblue" points="1183.32,-358.498 1187.19,-348.635 1178.02,-353.934 1183.32,-358.498"/>
</g>
<!-- Node12 -->
<g id="node12" class="node"><title>Node12</title>
<g id="a_node12"><a xlink:href="$AnalogIn_8h.html" xlink:title="AnalogIn.h">
<polygon fill="white" stroke="black" points="1031.76,-220.5 1031.76,-238.5 1095.57,-238.5 1095.57,-220.5 1031.76,-220.5"/>
<text text-anchor="middle" x="1063.66" y="-226.5" font-family="Helvetica,sans-Serif" font-size="10.00">AnalogIn.h</text>
</a>
</g>
</g>
<!-- Node2&#45;&gt;Node12 -->
<g id="edge49" class="edge"><title>Node2&#45;&gt;Node12</title>
<path fill="none" stroke="midnightblue" d="M895.86,-440.196C903.369,-413.198 930.376,-326.682 980.664,-275 994.58,-260.698 1014.09,-249.919 1030.7,-242.554"/>
<polygon fill="midnightblue" stroke="midnightblue" points="1032.22,-245.713 1040.08,-238.611 1029.51,-239.26 1032.22,-245.713"/>
</g>
<!-- Node14 -->
<g id="node14" class="node"><title>Node14</title>
<g id="a_node14"><a xlink:href="$GPIO_8h.html" xlink:title="GPIO.h">
<polygon fill="white" stroke="black" points="1151.99,-220.5 1151.99,-238.5 1201.34,-238.5 1201.34,-220.5 1151.99,-220.5"/>
<text text-anchor="middle" x="1176.66" y="-226.5" font-family="Helvetica,sans-Serif" font-size="10.00">GPIO.h</text>
</a>
</g>
</g>
<!-- Node2&#45;&gt;Node14 -->
<g id="edge51" class="edge"><title>Node2&#45;&gt;Node14</title>
<path fill="none" stroke="midnightblue" d="M945.885,-448.508C988.656,-445.946 1048.6,-436.174 1089.66,-404 1141.36,-363.493 1164.77,-284.096 1173,-248.507"/>
<polygon fill="midnightblue" stroke="midnightblue" points="1176.45,-249.111 1175.15,-238.596 1169.61,-247.624 1176.45,-249.111"/>
</g>
<!-- Node15 -->
<g id="node15" class="node"><title>Node15</title>
<g id="a_node15"><a xlink:href="$RCInput_8h.html" xlink:title="RCInput.h">
<polygon fill="white" stroke="black" points="1241.15,-275.5 1241.15,-293.5 1302.18,-293.5 1302.18,-275.5 1241.15,-275.5"/>
<text text-anchor="middle" x="1271.66" y="-281.5" font-family="Helvetica,sans-Serif" font-size="10.00">RCInput.h</text>
</a>
</g>
</g>
<!-- Node2&#45;&gt;Node15 -->
<g id="edge52" class="edge"><title>Node2&#45;&gt;Node15</title>
<path fill="none" stroke="midnightblue" d="M945.584,-446.188C1044.53,-441.247 1252.22,-428.099 1273.66,-404 1298.32,-376.292 1287.26,-328.855 1278.56,-303.208"/>
<polygon fill="midnightblue" stroke="midnightblue" points="1281.8,-301.87 1275.09,-293.671 1275.22,-304.265 1281.8,-301.87"/>
</g>
<!-- Node16 -->
<g id="node16" class="node"><title>Node16</title>
<g id="a_node16"><a xlink:href="$RCOutput_8h.html" xlink:title="RCOutput.h">
<polygon fill="white" stroke="black" points="1358.26,-275.5 1358.26,-293.5 1427.07,-293.5 1427.07,-275.5 1358.26,-275.5"/>
<text text-anchor="middle" x="1392.66" y="-281.5" font-family="Helvetica,sans-Serif" font-size="10.00">RCOutput.h</text>
</a>
</g>
</g>
<!-- Node2&#45;&gt;Node16 -->
<g id="edge53" class="edge"><title>Node2&#45;&gt;Node16</title>
<path fill="none" stroke="midnightblue" d="M945.7,-446.37C1057.54,-441.364 1313.28,-427.473 1344.66,-404 1376.87,-379.913 1387.53,-330.562 1391.01,-303.774"/>
<polygon fill="midnightblue" stroke="midnightblue" points="1394.53,-303.84 1392.13,-293.519 1387.57,-303.08 1394.53,-303.84"/>
</g>
<!-- Node17 -->
<g id="node17" class="node"><title>Node17</title>
<g id="a_node17"><a xlink:href="$SPIDriver_8h.html" xlink:title="SPIDriver.h">
<polygon fill="white" stroke="black" points="1445.38,-275.5 1445.38,-293.5 1511.95,-293.5 1511.95,-275.5 1445.38,-275.5"/>
<text text-anchor="middle" x="1478.66" y="-281.5" font-family="Helvetica,sans-Serif" font-size="10.00">SPIDriver.h</text>
</a>
</g>
</g>
<!-- Node2&#45;&gt;Node17 -->
<g id="edge48" class="edge"><title>Node2&#45;&gt;Node17</title>
<path fill="none" stroke="midnightblue" d="M945.941,-448.209C1053.28,-446.872 1294.56,-439.839 1367.66,-404 1391.98,-392.079 1442.32,-331.308 1465.92,-301.724"/>
<polygon fill="midnightblue" stroke="midnightblue" points="1468.87,-303.645 1472.33,-293.633 1463.38,-299.298 1468.87,-303.645"/>
</g>
<!-- Node18 -->
<g id="node18" class="node"><title>Node18</title>
<g id="a_node18"><a xlink:href="$Storage_8h.html" xlink:title="Storage.h">
<polygon fill="white" stroke="black" points="989.982,-275.5 989.982,-293.5 1049.35,-293.5 1049.35,-275.5 989.982,-275.5"/>
<text text-anchor="middle" x="1019.66" y="-281.5" font-family="Helvetica,sans-Serif" font-size="10.00">Storage.h</text>
</a>
</g>
</g>
<!-- Node2&#45;&gt;Node18 -->
<g id="edge50" class="edge"><title>Node2&#45;&gt;Node18</title>
<path fill="none" stroke="midnightblue" d="M900.086,-440.193C919.973,-414.466 980.789,-335.79 1007.2,-301.622"/>
<polygon fill="midnightblue" stroke="midnightblue" points="1010.06,-303.649 1013.41,-293.597 1004.52,-299.368 1010.06,-303.649"/>
</g>
<!-- Node19 -->
<g id="node19" class="node"><title>Node19</title>
<g id="a_node19"><a xlink:href="$UARTDriver_8h.html" xlink:title="UARTDriver.h">
<polygon fill="white" stroke="black" points="733.912,-275.5 733.912,-293.5 811.416,-293.5 811.416,-275.5 733.912,-275.5"/>
<text text-anchor="middle" x="772.664" y="-281.5" font-family="Helvetica,sans-Serif" font-size="10.00">UARTDriver.h</text>
</a>
</g>
</g>
<!-- Node2&#45;&gt;Node19 -->
<g id="edge44" class="edge"><title>Node2&#45;&gt;Node19</title>
<path fill="none" stroke="midnightblue" d="M874.501,-440.477C858.752,-433.039 836.807,-420.618 822.664,-404 796.937,-373.77 782.83,-328.381 776.61,-303.464"/>
<polygon fill="midnightblue" stroke="midnightblue" points="779.984,-302.522 774.294,-293.585 773.169,-304.12 779.984,-302.522"/>
</g>
<!-- Node22 -->
<g id="node22" class="node"><title>Node22</title>
<g id="a_node22"><a xlink:href="$BetterStream_8h.html" xlink:title="utility/BetterStream.h">
<polygon fill="white" stroke="black" points="771.258,-220.5 771.258,-238.5 880.07,-238.5 880.07,-220.5 771.258,-220.5"/>
<text text-anchor="middle" x="825.664" y="-226.5" font-family="Helvetica,sans-Serif" font-size="10.00">utility/BetterStream.h</text>
</a>
</g>
</g>
<!-- Node2&#45;&gt;Node22 -->
<g id="edge66" class="edge"><title>Node2&#45;&gt;Node22</title>
<path fill="none" stroke="midnightblue" d="M891.163,-440.483C881.335,-408.974 845.216,-293.181 831.239,-248.372"/>
<polygon fill="midnightblue" stroke="midnightblue" points="834.579,-247.327 828.26,-238.823 827.897,-249.412 834.579,-247.327"/>
</g>
<!-- Node24 -->
<g id="node24" class="node"><title>Node24</title>
<g id="a_node24"><a xlink:href="$Stream_8h.html" xlink:title="Stream.h">
<polygon fill="white" stroke="black" points="733.379,-165.5 733.379,-183.5 789.95,-183.5 789.95,-165.5 733.379,-165.5"/>
<text text-anchor="middle" x="761.664" y="-171.5" font-family="Helvetica,sans-Serif" font-size="10.00">Stream.h</text>
</a>
</g>
</g>
<!-- Node2&#45;&gt;Node24 -->
<g id="edge65" class="edge"><title>Node2&#45;&gt;Node24</title>
<path fill="none" stroke="midnightblue" d="M870.98,-440.46C852.113,-433.013 825.27,-420.585 805.664,-404 759.311,-364.788 743.61,-351.682 724.664,-294 712.777,-257.808 734.942,-215.104 749.804,-192.133"/>
<polygon fill="midnightblue" stroke="midnightblue" points="752.893,-193.814 755.606,-183.572 747.099,-189.886 752.893,-193.814"/>
</g>
<!-- Node25 -->
<g id="node25" class="node"><title>Node25</title>
<g id="a_node25"><a xlink:href="$Print_8h.html" xlink:title="Print.h">
<polygon fill="white" stroke="black" points="519.213,-110.5 519.213,-128.5 564.115,-128.5 564.115,-110.5 519.213,-110.5"/>
<text text-anchor="middle" x="541.664" y="-116.5" font-family="Helvetica,sans-Serif" font-size="10.00">Print.h</text>
</a>
</g>
</g>
<!-- Node2&#45;&gt;Node25 -->
<g id="edge64" class="edge"><title>Node2&#45;&gt;Node25</title>
<path fill="none" stroke="midnightblue" d="M841.606,-448.997C775.094,-447.963 657.474,-440.458 564.664,-404 485.701,-372.982 291.713,-259.315 252.664,-184 248.777,-176.503 247.166,-171.409 252.664,-165 269.209,-145.713 436.657,-129.375 508.84,-123.17"/>
<polygon fill="midnightblue" stroke="midnightblue" points="509.501,-126.627 519.17,-122.296 508.91,-119.652 509.501,-126.627"/>
</g>
<!-- Node26 -->
<g id="node26" class="node"><title>Node26</title>
<g id="a_node26"><a xlink:href="$I2CDriver_8h.html" xlink:title="I2CDriver.h">
<polygon fill="white" stroke="black" points="1295.65,-165.5 1295.65,-183.5 1361.67,-183.5 1361.67,-165.5 1295.65,-165.5"/>
<text text-anchor="middle" x="1328.66" y="-171.5" font-family="Helvetica,sans-Serif" font-size="10.00">I2CDriver.h</text>
</a>
</g>
</g>
<!-- Node2&#45;&gt;Node26 -->
<g id="edge45" class="edge"><title>Node2&#45;&gt;Node26</title>
<path fill="none" stroke="midnightblue" d="M945.623,-448.408C1040.56,-447.327 1237.45,-440.592 1293.66,-404 1321.04,-386.182 1330.66,-373.164 1330.66,-340.5 1330.66,-340.5 1330.66,-340.5 1330.66,-283.5 1330.66,-252.012 1329.8,-215.369 1329.21,-193.879"/>
<polygon fill="midnightblue" stroke="midnightblue" points="1332.7,-193.523 1328.92,-183.628 1325.71,-193.724 1332.7,-193.523"/>
</g>
<!-- Node27 -->
<g id="node27" class="node"><title>Node27</title>
<g id="a_node27"><a xlink:href="$Scheduler_8h.html" xlink:title="Scheduler.h">
<polygon fill="white" stroke="black" points="557.253,-220.5 557.253,-238.5 626.075,-238.5 626.075,-220.5 557.253,-220.5"/>
<text text-anchor="middle" x="591.664" y="-226.5" font-family="Helvetica,sans-Serif" font-size="10.00">Scheduler.h</text>
</a>
</g>
</g>
<!-- Node2&#45;&gt;Node27 -->
<g id="edge54" class="edge"><title>Node2&#45;&gt;Node27</title>
<path fill="none" stroke="midnightblue" d="M841.523,-444.857C779.638,-439.525 681.329,-427.561 653.664,-404 606.406,-363.752 595.168,-284.823 592.497,-248.986"/>
<polygon fill="midnightblue" stroke="midnightblue" points="595.967,-248.377 591.88,-238.603 588.979,-248.793 595.967,-248.377"/>
</g>
<!-- Node28 -->
<g id="node28" class="node"><title>Node28</title>
<g id="a_node28"><a xlink:href="$Semaphores_8h.html" xlink:title="Semaphores.h">
<polygon fill="white" stroke="black" points="1453.14,-330.5 1453.14,-348.5 1534.18,-348.5 1534.18,-330.5 1453.14,-330.5"/>
<text text-anchor="middle" x="1493.66" y="-336.5" font-family="Helvetica,sans-Serif" font-size="10.00">Semaphores.h</text>
</a>
</g>
</g>
<!-- Node2&#45;&gt;Node28 -->
<g id="edge59" class="edge"><title>Node2&#45;&gt;Node28</title>
<path fill="none" stroke="midnightblue" d="M945.85,-449.069C1064.62,-449.594 1351.4,-446.299 1436.66,-404 1457.13,-393.847 1473.62,-372.882 1483.5,-357.816"/>
<polygon fill="midnightblue" stroke="midnightblue" points="1486.71,-359.282 1489.02,-348.941 1480.77,-355.589 1486.71,-359.282"/>
</g>
<!-- Node29 -->
<g id="node29" class="node"><title>Node29</title>
<g id="a_node29"><a xlink:href="$Util_8h.html" xlink:title="Util.h">
<polygon fill="white" stroke="black" points="935.273,-220.5 935.273,-238.5 974.056,-238.5 974.056,-220.5 935.273,-220.5"/>
<text text-anchor="middle" x="954.664" y="-226.5" font-family="Helvetica,sans-Serif" font-size="10.00">Util.h</text>
</a>
</g>
</g>
<!-- Node2&#45;&gt;Node29 -->
<g id="edge61" class="edge"><title>Node2&#45;&gt;Node29</title>
<path fill="none" stroke="midnightblue" d="M891.835,-440.322C886.481,-414.41 872.954,-332.453 901.664,-275 908.063,-262.195 919.987,-251.67 930.906,-244.076"/>
<polygon fill="midnightblue" stroke="midnightblue" points="932.83,-247 939.323,-238.627 929.026,-241.123 932.83,-247"/>
</g>
<!-- Node6 -->
<g id="node6" class="node"><title>Node6</title>
<polygon fill="white" stroke="#bfbfbf" points="252.268,-0.5 252.268,-18.5 301.061,-18.5 301.061,-0.5 252.268,-0.5"/>
<text text-anchor="middle" x="276.664" y="-6.5" font-family="Helvetica,sans-Serif" font-size="10.00">string.h</text>
</g>
<!-- Node5&#45;&gt;Node6 -->
<g id="edge5" class="edge"><title>Node5&#45;&gt;Node6</title>
<path fill="none" stroke="midnightblue" d="M1092.69,-59.8152C922.122,-49.5071 443.908,-20.6071 311.202,-12.5872"/>
<polygon fill="midnightblue" stroke="midnightblue" points="311.386,-9.09207 301.193,-11.9824 310.964,-16.0793 311.386,-9.09207"/>
</g>
<!-- Node7 -->
<g id="node7" class="node"><title>Node7</title>
<g id="a_node7"><a xlink:href="$functor_8h.html" xlink:title="utility/functor.h">
<polygon fill="white" stroke="black" points="1113.7,-0.5 1113.7,-18.5 1193.63,-18.5 1193.63,-0.5 1113.7,-0.5"/>
<text text-anchor="middle" x="1153.66" y="-6.5" font-family="Helvetica,sans-Serif" font-size="10.00">utility/functor.h</text>
</a>
</g>
</g>
<!-- Node5&#45;&gt;Node7 -->
<g id="edge6" class="edge"><title>Node5&#45;&gt;Node7</title>
<path fill="none" stroke="midnightblue" d="M1153.66,-55.2188C1153.66,-48.1769 1153.66,-37.8083 1153.66,-28.8277"/>
<polygon fill="midnightblue" stroke="midnightblue" points="1157.16,-28.5495 1153.66,-18.5496 1150.16,-28.5496 1157.16,-28.5495"/>
</g>
<!-- Node10&#45;&gt;Node11 -->
<g id="edge10" class="edge"><title>Node10&#45;&gt;Node11</title>
<path fill="none" stroke="midnightblue" d="M1215.6,-385.219C1211.99,-377.864 1206.61,-366.88 1202.07,-357.639"/>
<polygon fill="midnightblue" stroke="midnightblue" points="1205.16,-355.986 1197.61,-348.55 1198.88,-359.069 1205.16,-355.986"/>
</g>
<!-- Node11&#45;&gt;Node5 -->
<g id="edge11" class="edge"><title>Node11&#45;&gt;Node5</title>
<path fill="none" stroke="midnightblue" d="M1195.55,-330.305C1199.34,-313.368 1207.76,-273.225 1210.66,-239 1215.61,-180.634 1207.38,-163.558 1183.66,-110 1179.22,-99.9727 1172.52,-89.7589 1166.58,-81.6499"/>
<polygon fill="midnightblue" stroke="midnightblue" points="1169.21,-79.3269 1160.36,-73.511 1163.65,-83.5801 1169.21,-79.3269"/>
</g>
<!-- Node11&#45;&gt;Node12 -->
<g id="edge12" class="edge"><title>Node11&#45;&gt;Node12</title>
<path fill="none" stroke="midnightblue" d="M1183.89,-330.382C1162.06,-312.244 1109.06,-268.212 1081.29,-245.145"/>
<polygon fill="midnightblue" stroke="midnightblue" points="1083.48,-242.41 1073.55,-238.712 1079,-247.794 1083.48,-242.41"/>
</g>
<!-- Node11&#45;&gt;Node14 -->
<g id="edge15" class="edge"><title>Node11&#45;&gt;Node14</title>
<path fill="none" stroke="midnightblue" d="M1192.39,-330.382C1189.68,-313.182 1183.31,-272.698 1179.56,-248.887"/>
<polygon fill="midnightblue" stroke="midnightblue" points="1182.97,-248.046 1177.96,-238.712 1176.05,-249.134 1182.97,-248.046"/>
</g>
<!-- Node11&#45;&gt;Node15 -->
<g id="edge18" class="edge"><title>Node11&#45;&gt;Node15</title>
<path fill="none" stroke="midnightblue" d="M1205.51,-330.45C1217.65,-322.201 1236.76,-309.216 1251.33,-299.319"/>
<polygon fill="midnightblue" stroke="midnightblue" points="1253.4,-302.14 1259.71,-293.625 1249.47,-296.351 1253.4,-302.14"/>
</g>
<!-- Node11&#45;&gt;Node16 -->
<g id="edge20" class="edge"><title>Node11&#45;&gt;Node16</title>
<path fill="none" stroke="midnightblue" d="M1215.72,-332.626C1248.72,-323.836 1311.47,-307.125 1352.68,-296.149"/>
<polygon fill="midnightblue" stroke="midnightblue" points="1353.64,-299.515 1362.4,-293.559 1351.84,-292.751 1353.64,-299.515"/>
</g>
<!-- Node11&#45;&gt;Node17 -->
<g id="edge22" class="edge"><title>Node11&#45;&gt;Node17</title>
<path fill="none" stroke="midnightblue" d="M1215.7,-334.548C1256.72,-327.173 1347.78,-310.698 1435.49,-294.01"/>
<polygon fill="midnightblue" stroke="midnightblue" points="1436.17,-297.444 1445.34,-292.133 1434.86,-290.568 1436.17,-297.444"/>
</g>
<!-- Node11&#45;&gt;Node18 -->
<g id="edge24" class="edge"><title>Node11&#45;&gt;Node18</title>
<path fill="none" stroke="midnightblue" d="M1171.63,-331.788C1142.5,-322.914 1090.79,-307.164 1055.87,-296.53"/>
<polygon fill="midnightblue" stroke="midnightblue" points="1056.65,-293.107 1046.06,-293.541 1054.61,-299.803 1056.65,-293.107"/>
</g>
<!-- Node11&#45;&gt;Node19 -->
<g id="edge27" class="edge"><title>Node11&#45;&gt;Node19</title>
<path fill="none" stroke="midnightblue" d="M1171.62,-335.725C1106.38,-327.511 913.085,-303.178 821.649,-291.667"/>
<polygon fill="midnightblue" stroke="midnightblue" points="821.904,-288.171 811.545,-290.395 821.029,-295.116 821.904,-288.171"/>
</g>
<!-- Node12&#45;&gt;Node5 -->
<g id="edge14" class="edge"><title>Node12&#45;&gt;Node5</title>
<path fill="none" stroke="midnightblue" d="M1069.02,-220.417C1074.81,-211.59 1084.2,-196.977 1091.66,-184 1111.94,-148.741 1133.5,-106.251 1145.09,-82.9348"/>
<polygon fill="midnightblue" stroke="midnightblue" points="1148.38,-84.1813 1149.67,-73.6661 1142.1,-81.0779 1148.38,-84.1813"/>
</g>
<!-- Node13 -->
<g id="node13" class="node"><title>Node13</title>
<polygon fill="white" stroke="#bfbfbf" points="621.263,-55.5 621.263,-73.5 680.066,-73.5 680.066,-55.5 621.263,-55.5"/>
<text text-anchor="middle" x="650.664" y="-61.5" font-family="Helvetica,sans-Serif" font-size="10.00">inttypes.h</text>
</g>
<!-- Node12&#45;&gt;Node13 -->
<g id="edge13" class="edge"><title>Node12&#45;&gt;Node13</title>
<path fill="none" stroke="midnightblue" d="M1049.47,-220.393C1026.76,-207.608 980.612,-182.43 939.664,-165 851.413,-127.435 743.712,-93.3139 688.021,-76.5001"/>
<polygon fill="midnightblue" stroke="midnightblue" points="688.828,-73.0881 678.243,-73.5651 686.815,-79.7925 688.828,-73.0881"/>
</g>
<!-- Node14&#45;&gt;Node3 -->
<g id="edge16" class="edge"><title>Node14&#45;&gt;Node3</title>
<path fill="none" stroke="midnightblue" d="M1160.2,-220.414C1131.56,-206.712 1070.38,-179.054 1015.66,-165 903.293,-136.136 765.481,-125.589 702.299,-122.08"/>
<polygon fill="midnightblue" stroke="midnightblue" points="702.274,-118.574 692.103,-121.54 701.903,-125.565 702.274,-118.574"/>
</g>
<!-- Node14&#45;&gt;Node5 -->
<g id="edge17" class="edge"><title>Node14&#45;&gt;Node5</title>
<path fill="none" stroke="midnightblue" d="M1176.68,-220.369C1176.59,-201.045 1175.55,-150.925 1167.66,-110 1165.92,-100.931 1162.95,-91.1123 1160.19,-83.0108"/>
<polygon fill="midnightblue" stroke="midnightblue" points="1163.48,-81.7964 1156.82,-73.5574 1156.88,-84.152 1163.48,-81.7964"/>
</g>
<!-- Node15&#45;&gt;Node5 -->
<g id="edge19" class="edge"><title>Node15&#45;&gt;Node5</title>
<path fill="none" stroke="midnightblue" d="M1272.78,-275.265C1275.95,-248.478 1282.44,-162.535 1243.66,-110 1232.05,-94.2618 1213.32,-83.7705 1195.95,-76.9503"/>
<polygon fill="midnightblue" stroke="midnightblue" points="1197.09,-73.6397 1186.49,-73.529 1194.71,-80.2222 1197.09,-73.6397"/>
</g>
<!-- Node16&#45;&gt;Node5 -->
<g id="edge21" class="edge"><title>Node16&#45;&gt;Node5</title>
<path fill="none" stroke="midnightblue" d="M1392.96,-275.388C1393.34,-255.245 1392.1,-201.915 1370.66,-165 1340.18,-112.498 1273.53,-87.5013 1222.09,-75.7232"/>
<polygon fill="midnightblue" stroke="midnightblue" points="1222.53,-72.2381 1212.02,-73.5395 1221.05,-79.0791 1222.53,-72.2381"/>
</g>
<!-- Node17&#45;&gt;Node5 -->
<g id="edge23" class="edge"><title>Node17&#45;&gt;Node5</title>
<path fill="none" stroke="midnightblue" d="M1474.87,-275.253C1461.38,-246.9 1412.65,-152.824 1341.66,-110 1306.49,-88.7782 1261.94,-77.6768 1225.03,-71.8697"/>
<polygon fill="midnightblue" stroke="midnightblue" points="1225.24,-68.3631 1214.84,-70.3681 1224.22,-75.2884 1225.24,-68.3631"/>
</g>
<!-- Node18&#45;&gt;Node3 -->
<g id="edge25" class="edge"><title>Node18&#45;&gt;Node3</title>
<path fill="none" stroke="midnightblue" d="M1016.27,-275.386C1010.64,-262.592 998.424,-237.401 982.664,-220 954.674,-189.096 944.982,-181.439 906.664,-165 837.97,-135.529 749.935,-125.537 702.198,-122.177"/>
<polygon fill="midnightblue" stroke="midnightblue" points="702.289,-118.676 692.084,-121.523 701.837,-125.661 702.289,-118.676"/>
</g>
<!-- Node18&#45;&gt;Node5 -->
<g id="edge26" class="edge"><title>Node18&#45;&gt;Node5</title>
<path fill="none" stroke="midnightblue" d="M1046.97,-275.372C1065.66,-268.496 1089.67,-256.862 1104.66,-239 1143.35,-192.906 1151.57,-118.185 1153.26,-83.8361"/>
<polygon fill="midnightblue" stroke="midnightblue" points="1156.76,-83.9538 1153.62,-73.8349 1149.76,-83.7031 1156.76,-83.9538"/>
</g>
<!-- Node19&#45;&gt;Node3 -->
<g id="edge28" class="edge"><title>Node19&#45;&gt;Node3</title>
<path fill="none" stroke="midnightblue" d="M767.313,-275.193C750.811,-249.575 700.491,-171.459 678.332,-137.06"/>
<polygon fill="midnightblue" stroke="midnightblue" points="681.238,-135.108 672.88,-128.597 675.353,-138.899 681.238,-135.108"/>
</g>
<!-- Node19&#45;&gt;Node5 -->
<g id="edge33" class="edge"><title>Node19&#45;&gt;Node5</title>
<path fill="none" stroke="midnightblue" d="M798.774,-275.465C822.802,-267.615 859.088,-254.59 888.664,-239 977.984,-191.92 990.181,-163.733 1075.66,-110 1093.37,-98.8693 1113.94,-87.1838 1129.51,-78.5817"/>
<polygon fill="midnightblue" stroke="midnightblue" points="1131.4,-81.5352 1138.49,-73.6567 1128.04,-75.3981 1131.4,-81.5352"/>
</g>
<!-- Node19&#45;&gt;Node20 -->
<g id="edge29" class="edge"><title>Node19&#45;&gt;Node20</title>
<path fill="none" stroke="midnightblue" d="M733.575,-276.864C688.682,-268.983 612.944,-254.886 548.664,-239 484.539,-223.152 410.938,-200.258 368.906,-186.726"/>
<polygon fill="midnightblue" stroke="midnightblue" points="369.768,-183.326 359.176,-183.579 367.613,-189.987 369.768,-183.326"/>
</g>
<!-- Node19&#45;&gt;Node22 -->
<g id="edge34" class="edge"><title>Node19&#45;&gt;Node22</title>
<path fill="none" stroke="midnightblue" d="M780.945,-275.219C788.77,-267.394 800.701,-255.463 810.272,-245.892"/>
<polygon fill="midnightblue" stroke="midnightblue" points="813.018,-248.096 817.615,-238.55 808.069,-243.146 813.018,-248.096"/>
</g>
<!-- Node20&#45;&gt;Node3 -->
<g id="edge30" class="edge"><title>Node20&#45;&gt;Node3</title>
<path fill="none" stroke="midnightblue" d="M385.24,-165.45C453.895,-154.523 574.757,-135.287 633.581,-125.925"/>
<polygon fill="midnightblue" stroke="midnightblue" points="634.155,-129.377 643.481,-124.349 633.055,-122.464 634.155,-129.377"/>
</g>
<!-- Node20&#45;&gt;Node4 -->
<g id="edge32" class="edge"><title>Node20&#45;&gt;Node4</title>
<path fill="none" stroke="midnightblue" d="M319.628,-165.45C303.71,-156.929 278.352,-143.353 259.665,-133.349"/>
<polygon fill="midnightblue" stroke="midnightblue" points="261.31,-130.259 250.842,-128.625 258.006,-136.431 261.31,-130.259"/>
</g>
<!-- Node21 -->
<g id="node21" class="node"><title>Node21</title>
<polygon fill="white" stroke="#bfbfbf" points="310.822,-110.5 310.822,-128.5 358.506,-128.5 358.506,-110.5 310.822,-110.5"/>
<text text-anchor="middle" x="334.664" y="-116.5" font-family="Helvetica,sans-Serif" font-size="10.00">stdlib.h</text>
</g>
<!-- Node20&#45;&gt;Node21 -->
<g id="edge31" class="edge"><title>Node20&#45;&gt;Node21</title>
<path fill="none" stroke="midnightblue" d="M334.664,-165.219C334.664,-158.177 334.664,-147.808 334.664,-138.828"/>
<polygon fill="midnightblue" stroke="midnightblue" points="338.164,-138.55 334.664,-128.55 331.164,-138.55 338.164,-138.55"/>
</g>
<!-- Node22&#45;&gt;Node5 -->
<g id="edge37" class="edge"><title>Node22&#45;&gt;Node5</title>
<path fill="none" stroke="midnightblue" d="M825.212,-220.409C824.882,-207.647 825.82,-182.499 836.664,-165 858.438,-129.864 873.71,-126.374 911.664,-110 966.341,-86.4112 1033.23,-75.3172 1082.81,-70.1048"/>
<polygon fill="midnightblue" stroke="midnightblue" points="1083.2,-73.5835 1092.8,-69.1091 1082.51,-66.618 1083.2,-73.5835"/>
</g>
<!-- Node22&#45;&gt;Node20 -->
<g id="edge36" class="edge"><title>Node22&#45;&gt;Node20</title>
<path fill="none" stroke="midnightblue" d="M771.243,-222.626C685.669,-213.388 519.035,-195.401 418.207,-184.518"/>
<polygon fill="midnightblue" stroke="midnightblue" points="418.376,-181.016 408.058,-183.422 417.624,-187.975 418.376,-181.016"/>
</g>
<!-- Node23 -->
<g id="node23" class="node"><title>Node23</title>
<polygon fill="white" stroke="#bfbfbf" points="845.598,-165.5 845.598,-183.5 897.731,-183.5 897.731,-165.5 845.598,-165.5"/>
<text text-anchor="middle" x="871.664" y="-171.5" font-family="Helvetica,sans-Serif" font-size="10.00">stdarg.h</text>
</g>
<!-- Node22&#45;&gt;Node23 -->
<g id="edge35" class="edge"><title>Node22&#45;&gt;Node23</title>
<path fill="none" stroke="midnightblue" d="M832.852,-220.219C839.575,-212.473 849.791,-200.701 858.055,-191.18"/>
<polygon fill="midnightblue" stroke="midnightblue" points="860.766,-193.396 864.678,-183.55 855.48,-188.808 860.766,-193.396"/>
</g>
<!-- Node22&#45;&gt;Node24 -->
<g id="edge38" class="edge"><title>Node22&#45;&gt;Node24</title>
<path fill="none" stroke="midnightblue" d="M815.944,-220.45C806.264,-212.434 791.185,-199.947 779.374,-190.166"/>
<polygon fill="midnightblue" stroke="midnightblue" points="781.41,-187.308 771.476,-183.625 776.945,-192.699 781.41,-187.308"/>
</g>
<!-- Node24&#45;&gt;Node5 -->
<g id="edge39" class="edge"><title>Node24&#45;&gt;Node5</title>
<path fill="none" stroke="midnightblue" d="M764.514,-165.217C769.804,-151.218 782.564,-123.125 803.664,-110 848.817,-81.914 993.719,-71.4558 1082.29,-67.6333"/>
<polygon fill="midnightblue" stroke="midnightblue" points="1082.69,-71.1199 1092.54,-67.2098 1082.41,-64.1259 1082.69,-71.1199"/>
</g>
<!-- Node24&#45;&gt;Node25 -->
<g id="edge40" class="edge"><title>Node24&#45;&gt;Node25</title>
<path fill="none" stroke="midnightblue" d="M733.353,-166.68C692.506,-156.839 617.228,-138.704 574.163,-128.329"/>
<polygon fill="midnightblue" stroke="midnightblue" points="574.747,-124.87 564.205,-125.93 573.107,-131.675 574.747,-124.87"/>
</g>
<!-- Node25&#45;&gt;Node5 -->
<g id="edge41" class="edge"><title>Node25&#45;&gt;Node5</title>
<path fill="none" stroke="midnightblue" d="M564.412,-112.568C568.787,-111.587 573.349,-110.672 577.664,-110 758.157,-81.8928 973.364,-71.2554 1082.54,-67.4566"/>
<polygon fill="midnightblue" stroke="midnightblue" points="1082.89,-70.9467 1092.77,-67.1099 1082.66,-63.9507 1082.89,-70.9467"/>
</g>
<!-- Node25&#45;&gt;Node6 -->
<g id="edge43" class="edge"><title>Node25&#45;&gt;Node6</title>
<path fill="none" stroke="midnightblue" d="M521.746,-110.382C475.4,-91.4942 360.158,-44.5275 305.852,-22.3956"/>
<polygon fill="midnightblue" stroke="midnightblue" points="307.033,-19.0974 296.452,-18.5644 304.391,-25.5797 307.033,-19.0974"/>
</g>
<!-- Node25&#45;&gt;Node13 -->
<g id="edge42" class="edge"><title>Node25&#45;&gt;Node13</title>
<path fill="none" stroke="midnightblue" d="M558.219,-110.45C575.905,-101.851 604.175,-88.1048 624.801,-78.0755"/>
<polygon fill="midnightblue" stroke="midnightblue" points="626.491,-81.1459 633.954,-73.6253 623.43,-74.8506 626.491,-81.1459"/>
</g>
<!-- Node26&#45;&gt;Node3 -->
<g id="edge46" class="edge"><title>Node26&#45;&gt;Node3</title>
<path fill="none" stroke="midnightblue" d="M1295.43,-170.835C1182.83,-161.807 816.373,-132.424 702.051,-123.257"/>
<polygon fill="midnightblue" stroke="midnightblue" points="702.04,-119.745 691.792,-122.435 701.48,-126.723 702.04,-119.745"/>
</g>
<!-- Node26&#45;&gt;Node5 -->
<g id="edge47" class="edge"><title>Node26&#45;&gt;Node5</title>
<path fill="none" stroke="midnightblue" d="M1324.65,-165.243C1317.71,-151.787 1302.22,-125.114 1281.66,-110 1259.43,-93.6452 1230.68,-82.9342 1206.07,-76.1292"/>
<polygon fill="midnightblue" stroke="midnightblue" points="1206.72,-72.6815 1196.16,-73.5343 1204.95,-79.4532 1206.72,-72.6815"/>
</g>
<!-- Node27&#45;&gt;Node3 -->
<g id="edge55" class="edge"><title>Node27&#45;&gt;Node3</title>
<path fill="none" stroke="midnightblue" d="M597.377,-220.382C609.811,-202.713 639.535,-160.472 656.07,-136.976"/>
<polygon fill="midnightblue" stroke="midnightblue" points="658.993,-138.904 661.886,-128.712 653.268,-134.876 658.993,-138.904"/>
</g>
<!-- Node27&#45;&gt;Node5 -->
<g id="edge58" class="edge"><title>Node27&#45;&gt;Node5</title>
<path fill="none" stroke="midnightblue" d="M591.822,-220.486C592.73,-198.615 598.539,-137.698 634.664,-110 669.418,-83.3532 948.72,-71.5538 1082.6,-67.3891"/>
<polygon fill="midnightblue" stroke="midnightblue" points="1082.87,-70.8826 1092.76,-67.0791 1082.65,-63.8858 1082.87,-70.8826"/>
</g>
<!-- Node27&#45;&gt;Node8 -->
<g id="edge57" class="edge"><title>Node27&#45;&gt;Node8</title>
<path fill="none" stroke="midnightblue" d="M579.818,-220.45C567.677,-212.201 548.567,-199.216 534.001,-189.319"/>
<polygon fill="midnightblue" stroke="midnightblue" points="535.861,-186.351 525.622,-183.625 531.926,-192.14 535.861,-186.351"/>
</g>
<!-- Node27&#45;&gt;Node20 -->
<g id="edge56" class="edge"><title>Node27&#45;&gt;Node20</title>
<path fill="none" stroke="midnightblue" d="M557.004,-221.352C512.397,-212.153 434.618,-196.113 383.89,-185.652"/>
<polygon fill="midnightblue" stroke="midnightblue" points="384.311,-182.165 373.811,-183.573 382.897,-189.021 384.311,-182.165"/>
</g>
<!-- Node28&#45;&gt;Node5 -->
<g id="edge60" class="edge"><title>Node28&#45;&gt;Node5</title>
<path fill="none" stroke="midnightblue" d="M1499.87,-330.332C1512.42,-312.961 1539.66,-270.648 1539.66,-230.5 1539.66,-230.5 1539.66,-230.5 1539.66,-173.5 1539.66,-108.887 1336.55,-81.1844 1225,-70.8423"/>
<polygon fill="midnightblue" stroke="midnightblue" points="1225.1,-67.3375 1214.83,-69.9238 1224.47,-74.3091 1225.1,-67.3375"/>
</g>
<!-- Node29&#45;&gt;Node5 -->
<g id="edge63" class="edge"><title>Node29&#45;&gt;Node5</title>
<path fill="none" stroke="midnightblue" d="M964.533,-220.417C996.163,-194.509 1095.32,-113.291 1135.99,-79.9767"/>
<polygon fill="midnightblue" stroke="midnightblue" points="1138.22,-82.6763 1143.74,-73.632 1133.78,-77.261 1138.22,-82.6763"/>
</g>
<!-- Node29&#45;&gt;Node23 -->
<g id="edge62" class="edge"><title>Node29&#45;&gt;Node23</title>
<path fill="none" stroke="midnightblue" d="M942.058,-220.45C929.017,-212.123 908.42,-198.97 892.867,-189.039"/>
<polygon fill="midnightblue" stroke="midnightblue" points="894.701,-186.057 884.389,-183.625 890.933,-191.957 894.701,-186.057"/>
</g>
<!-- Node31 -->
<g id="node31" class="node"><title>Node31</title>
<g id="a_node31"><a xlink:href="$AP__Param_8h.html" xlink:title="A system for managing and storing variables that are of general interest to the system. ">
<polygon fill="white" stroke="black" points="416.751,-550.5 416.751,-568.5 540.578,-568.5 540.578,-550.5 416.751,-550.5"/>
<text text-anchor="middle" x="478.664" y="-556.5" font-family="Helvetica,sans-Serif" font-size="10.00">AP_Param/AP_Param.h</text>
</a>
</g>
</g>
<!-- Node30&#45;&gt;Node31 -->
<g id="edge70" class="edge"><title>Node30&#45;&gt;Node31</title>
<path fill="none" stroke="midnightblue" d="M493.462,-660.382C490.913,-643.182 484.916,-602.698 481.388,-578.887"/>
<polygon fill="midnightblue" stroke="midnightblue" points="484.809,-578.091 479.881,-568.712 477.884,-579.117 484.809,-578.091"/>
</g>
<!-- Node37 -->
<g id="node37" class="node"><title>Node37</title>
<g id="a_node37"><a xlink:href="$AP__Relay_8h.html" xlink:title="APM relay control class. ">
<polygon fill="white" stroke="black" points="351.006,-605.5 351.006,-623.5 466.322,-623.5 466.322,-605.5 351.006,-605.5"/>
<text text-anchor="middle" x="408.664" y="-611.5" font-family="Helvetica,sans-Serif" font-size="10.00">AP_Relay/AP_Relay.h</text>
</a>
</g>
</g>
<!-- Node30&#45;&gt;Node37 -->
<g id="edge82" class="edge"><title>Node30&#45;&gt;Node37</title>
<path fill="none" stroke="midnightblue" d="M481.603,-660.45C468.09,-652.123 446.748,-638.97 430.634,-629.039"/>
<polygon fill="midnightblue" stroke="midnightblue" points="432.198,-625.892 421.849,-623.625 428.526,-631.851 432.198,-625.892"/>
</g>
<!-- Node31&#45;&gt;Node2 -->
<g id="edge71" class="edge"><title>Node31&#45;&gt;Node2</title>
<path fill="none" stroke="midnightblue" d="M540.801,-550.585C630.462,-539.06 786.755,-518.533 798.664,-514 814.541,-507.957 851.694,-481.579 874.549,-464.779"/>
<polygon fill="midnightblue" stroke="midnightblue" points="876.854,-467.427 882.811,-458.665 872.691,-461.8 876.854,-467.427"/>
</g>
<!-- Node31&#45;&gt;Node3 -->
<g id="edge74" class="edge"><title>Node31&#45;&gt;Node3</title>
<path fill="none" stroke="midnightblue" d="M458.951,-550.428C443.418,-543.104 422.337,-530.866 409.664,-514 391.969,-490.448 390.664,-479.958 390.664,-450.5 390.664,-450.5 390.664,-450.5 390.664,-338.5 390.664,-256.31 392.425,-218.679 454.664,-165 481.082,-142.216 580.242,-129.146 633.437,-123.632"/>
<polygon fill="midnightblue" stroke="midnightblue" points="633.828,-127.11 643.428,-122.629 633.129,-120.145 633.828,-127.11"/>
</g>
<!-- Node31&#45;&gt;Node6 -->
<g id="edge73" class="edge"><title>Node31&#45;&gt;Node6</title>
<path fill="none" stroke="midnightblue" d="M444.133,-550.472C417.613,-543.367 380.729,-531.402 351.664,-514 245.936,-450.697 106.792,-419.755 6.66418,-184 -37.775,-79.3664 160.112,-31.3121 242.298,-16.1122"/>
<polygon fill="midnightblue" stroke="midnightblue" points="242.955,-19.5503 252.181,-14.3404 241.72,-12.6602 242.955,-19.5503"/>
</g>
<!-- Node32 -->
<g id="node32" class="node"><title>Node32</title>
<polygon fill="white" stroke="#bfbfbf" points="418.874,-495.5 418.874,-513.5 470.455,-513.5 470.455,-495.5 418.874,-495.5"/>
<text text-anchor="middle" x="444.664" y="-501.5" font-family="Helvetica,sans-Serif" font-size="10.00">stddef.h</text>
</g>
<!-- Node31&#45;&gt;Node32 -->
<g id="edge72" class="edge"><title>Node31&#45;&gt;Node32</title>
<path fill="none" stroke="midnightblue" d="M473.352,-550.219C468.533,-542.707 461.286,-531.411 455.282,-522.052"/>
<polygon fill="midnightblue" stroke="midnightblue" points="458.174,-520.077 449.828,-513.55 452.282,-523.856 458.174,-520.077"/>
</g>
<!-- Node33 -->
<g id="node33" class="node"><title>Node33</title>
<polygon fill="white" stroke="#bfbfbf" points="488.379,-495.5 488.379,-513.5 534.95,-513.5 534.95,-495.5 488.379,-495.5"/>
<text text-anchor="middle" x="511.664" y="-501.5" font-family="Helvetica,sans-Serif" font-size="10.00">math.h</text>
</g>
<!-- Node31&#45;&gt;Node33 -->
<g id="edge75" class="edge"><title>Node31&#45;&gt;Node33</title>
<path fill="none" stroke="midnightblue" d="M483.82,-550.219C488.497,-542.707 495.531,-531.411 501.359,-522.052"/>
<polygon fill="midnightblue" stroke="midnightblue" points="504.338,-523.889 506.652,-513.55 498.395,-520.189 504.338,-523.889"/>
</g>
<!-- Node34 -->
<g id="node34" class="node"><title>Node34</title>
<polygon fill="white" stroke="#bfbfbf" points="553.044,-495.5 553.044,-513.5 596.285,-513.5 596.285,-495.5 553.044,-495.5"/>
<text text-anchor="middle" x="574.664" y="-501.5" font-family="Helvetica,sans-Serif" font-size="10.00">float.h</text>
</g>
<!-- Node31&#45;&gt;Node34 -->
<g id="edge76" class="edge"><title>Node31&#45;&gt;Node34</title>
<path fill="none" stroke="midnightblue" d="M493.245,-550.45C508.61,-541.968 533.045,-528.477 551.142,-518.486"/>
<polygon fill="midnightblue" stroke="midnightblue" points="552.884,-521.523 559.947,-513.625 549.501,-515.394 552.884,-521.523"/>
</g>
<!-- Node35 -->
<g id="node35" class="node"><title>Node35</title>
<g id="a_node35"><a xlink:href="$AP__Progmem_8h.html" xlink:title="AP_Progmem/AP_Progmem.h">
<polygon fill="white" stroke="black" points="15.859,-165.5 15.859,-183.5 167.469,-183.5 167.469,-165.5 15.859,-165.5"/>
<text text-anchor="middle" x="91.6642" y="-171.5" font-family="Helvetica,sans-Serif" font-size="10.00">AP_Progmem/AP_Progmem.h</text>
</a>
</g>
</g>
<!-- Node31&#45;&gt;Node35 -->
<g id="edge77" class="edge"><title>Node31&#45;&gt;Node35</title>
<path fill="none" stroke="midnightblue" d="M451.315,-550.407C429.678,-543.139 399.424,-530.988 376.664,-514 245.1,-415.802 134.59,-245.672 101.661,-192.129"/>
<polygon fill="midnightblue" stroke="midnightblue" points="104.617,-190.254 96.4273,-183.532 98.6373,-193.893 104.617,-190.254"/>
</g>
<!-- Node36 -->
<g id="node36" class="node"><title>Node36</title>
<g id="a_node36"><a xlink:href="$StorageManager_8h.html" xlink:title="StorageManager/StorageManager.h">
<polygon fill="white" stroke="black" points="613.886,-495.5 613.886,-513.5 789.442,-513.5 789.442,-495.5 613.886,-495.5"/>
<text text-anchor="middle" x="701.664" y="-501.5" font-family="Helvetica,sans-Serif" font-size="10.00">StorageManager/StorageManager.h</text>
</a>
</g>
</g>
<!-- Node31&#45;&gt;Node36 -->
<g id="edge80" class="edge"><title>Node31&#45;&gt;Node36</title>
<path fill="none" stroke="midnightblue" d="M512.533,-550.45C551.449,-541.201 615.412,-525.999 658.029,-515.871"/>
<polygon fill="midnightblue" stroke="midnightblue" points="658.923,-519.256 667.843,-513.538 657.304,-512.446 658.923,-519.256"/>
</g>
<!-- Node35&#45;&gt;Node3 -->
<g id="edge79" class="edge"><title>Node35&#45;&gt;Node3</title>
<path fill="none" stroke="midnightblue" d="M167.558,-166.517C293.915,-154.89 542.501,-132.017 633.364,-123.656"/>
<polygon fill="midnightblue" stroke="midnightblue" points="633.761,-127.134 643.398,-122.733 633.119,-120.164 633.761,-127.134"/>
</g>
<!-- Node35&#45;&gt;Node6 -->
<g id="edge78" class="edge"><title>Node35&#45;&gt;Node6</title>
<path fill="none" stroke="midnightblue" d="M100.838,-165.417C130.12,-139.617 221.653,-58.9697 259.756,-25.3973"/>
<polygon fill="midnightblue" stroke="midnightblue" points="262.245,-27.869 267.435,-18.632 257.618,-22.6168 262.245,-27.869"/>
</g>
<!-- Node36&#45;&gt;Node2 -->
<g id="edge81" class="edge"><title>Node36&#45;&gt;Node2</title>
<path fill="none" stroke="midnightblue" d="M730.825,-495.45C763.907,-486.318 818.012,-471.383 854.692,-461.258"/>
<polygon fill="midnightblue" stroke="midnightblue" points="855.836,-464.573 864.544,-458.538 853.973,-457.825 855.836,-464.573"/>
</g>
<!-- Node37&#45;&gt;Node31 -->
<g id="edge83" class="edge"><title>Node37&#45;&gt;Node31</title>
<path fill="none" stroke="midnightblue" d="M419.296,-605.45C429.986,-597.357 446.696,-584.704 459.669,-574.882"/>
<polygon fill="midnightblue" stroke="midnightblue" points="462.073,-577.452 467.933,-568.625 457.847,-571.871 462.073,-577.452"/>
</g>
<!-- Node38&#45;&gt;Node20 -->
<g id="edge85" class="edge"><title>Node38&#45;&gt;Node20</title>
<path fill="none" stroke="midnightblue" d="M522.756,-609.67C485.501,-604.605 440.826,-593.402 407.664,-569 312.475,-498.956 271.664,-458.682 271.664,-340.5 271.664,-340.5 271.664,-340.5 271.664,-283.5 271.664,-246.106 300.191,-210.134 318.853,-190.603"/>
<polygon fill="midnightblue" stroke="midnightblue" points="321.339,-193.067 325.904,-183.506 316.373,-188.133 321.339,-193.067"/>
</g>
<!-- Node38&#45;&gt;Node31 -->
<g id="edge86" class="edge"><title>Node38&#45;&gt;Node31</title>
<path fill="none" stroke="midnightblue" d="M576.198,-605.45C557.454,-596.812 527.442,-582.98 505.656,-572.94"/>
<polygon fill="midnightblue" stroke="midnightblue" points="506.841,-569.632 496.295,-568.625 503.912,-575.99 506.841,-569.632"/>
</g>
<!-- Node39 -->
<g id="node39" class="node"><title>Node39</title>
<g id="a_node39"><a xlink:href="$RC__Channel__aux_8h.html" xlink:title="RC_Channel manager for auxiliary channels (5..8), with EEPROM&#45;backed storage of constants. ">
<polygon fill="white" stroke="black" points="559.024,-550.5 559.024,-568.5 662.304,-568.5 662.304,-550.5 559.024,-550.5"/>
<text text-anchor="middle" x="610.664" y="-556.5" font-family="Helvetica,sans-Serif" font-size="10.00">RC_Channel_aux.h</text>
</a>
</g>
</g>
<!-- Node38&#45;&gt;Node39 -->
<g id="edge87" class="edge"><title>Node38&#45;&gt;Node39</title>
<path fill="none" stroke="midnightblue" d="M591.258,-605.219C591.952,-597.864 595.042,-586.88 598.806,-577.639"/>
<polygon fill="midnightblue" stroke="midnightblue" points="601.992,-579.089 603.073,-568.55 595.655,-576.114 601.992,-579.089"/>
</g>
<!-- Node39&#45;&gt;Node2 -->
<g id="edge88" class="edge"><title>Node39&#45;&gt;Node2</title>
<path fill="none" stroke="midnightblue" d="M662.741,-556.648C709.494,-553.047 778.713,-542.792 831.664,-514 852.738,-502.541 871.11,-481.534 882.273,-466.831"/>
<polygon fill="midnightblue" stroke="midnightblue" points="885.187,-468.774 888.251,-458.632 879.531,-464.65 885.187,-468.774"/>
</g>
<!-- Node39&#45;&gt;Node38 -->
<g id="edge89" class="edge"><title>Node39&#45;&gt;Node38</title>
<path fill="none" stroke="midnightblue" d="M613.092,-568.55C612.449,-575.827 609.391,-586.791 605.641,-596.068"/>
<polygon fill="midnightblue" stroke="midnightblue" points="602.429,-594.676 601.383,-605.219 608.775,-597.629 602.429,-594.676"/>
</g>
</g>
</svg>
