<?xml version="1.0" encoding="UTF-8" standalone="no"?>
<!DOCTYPE svg PUBLIC "-//W3C//DTD SVG 1.1//EN"
 "http://www.w3.org/Graphics/SVG/1.1/DTD/svg11.dtd">
<!-- Generated by graphviz version 2.38.0 (20140413.2041)
 -->
<!-- Title: libraries/AP_Scheduler/AP_Scheduler.h Pages: 1 -->
<svg width="1084pt" height="112pt"
 viewBox="0.00 0.00 1084.43 112.00" xmlns="http://www.w3.org/2000/svg" xmlns:xlink="http://www.w3.org/1999/xlink">
<g id="graph0" class="graph" transform="scale(1 1) rotate(0) translate(4 108)">
<title>libraries/AP_Scheduler/AP_Scheduler.h</title>
<polygon fill="white" stroke="none" points="-4,4 -4,-108 1080.43,-108 1080.43,4 -4,4"/>
<!-- Node1 -->
<g id="node1" class="node"><title>Node1</title>
<polygon fill="#bfbfbf" stroke="black" points="493.041,-75.5 493.041,-103.5 610.76,-103.5 610.76,-75.5 493.041,-75.5"/>
<text text-anchor="start" x="501.041" y="-91.5" font-family="Helvetica,sans-Serif" font-size="10.00">libraries/AP_Scheduler</text>
<text text-anchor="middle" x="551.9" y="-81.5" font-family="Helvetica,sans-Serif" font-size="10.00">/AP_Scheduler.h</text>
</g>
<!-- Node2 -->
<g id="node2" class="node"><title>Node2</title>
<g id="a_node2"><a xlink:href="$GPS__AUTO__test_8cpp.html" xlink:title="libraries/AP_GPS/examples\l/GPS_AUTO_test/GPS_AUTO\l_test.cpp">
<polygon fill="white" stroke="black" points="0,-0.5 0,-38.5 151.801,-38.5 151.801,-0.5 0,-0.5"/>
<text text-anchor="start" x="8" y="-26.5" font-family="Helvetica,sans-Serif" font-size="10.00">libraries/AP_GPS/examples</text>
<text text-anchor="start" x="8" y="-16.5" font-family="Helvetica,sans-Serif" font-size="10.00">/GPS_AUTO_test/GPS_AUTO</text>
<text text-anchor="middle" x="75.9004" y="-6.5" font-family="Helvetica,sans-Serif" font-size="10.00">_test.cpp</text>
</a>
</g>
</g>
<!-- Node1&#45;&gt;Node2 -->
<g id="edge1" class="edge"><title>Node1&#45;&gt;Node2</title>
<path fill="none" stroke="midnightblue" d="M482.811,-81.62C404.464,-73.3857 273.036,-58.2623 160.9,-39 157.924,-38.4886 154.893,-37.9443 151.835,-37.3752"/>
<polygon fill="midnightblue" stroke="midnightblue" points="482.727,-85.1302 493.036,-82.6872 483.454,-78.168 482.727,-85.1302"/>
</g>
<!-- Node3 -->
<g id="node3" class="node"><title>Node3</title>
<g id="a_node3"><a xlink:href="$GPS__UBLOX__passthrough_8cpp.html" xlink:title="libraries/AP_GPS/examples\l/GPS_UBLOX_passthrough\l/GPS_UBLOX_passthrough.cpp">
<polygon fill="white" stroke="black" points="169.47,-0.5 169.47,-38.5 328.331,-38.5 328.331,-0.5 169.47,-0.5"/>
<text text-anchor="start" x="177.47" y="-26.5" font-family="Helvetica,sans-Serif" font-size="10.00">libraries/AP_GPS/examples</text>
<text text-anchor="start" x="177.47" y="-16.5" font-family="Helvetica,sans-Serif" font-size="10.00">/GPS_UBLOX_passthrough</text>
<text text-anchor="middle" x="248.9" y="-6.5" font-family="Helvetica,sans-Serif" font-size="10.00">/GPS_UBLOX_passthrough.cpp</text>
</a>
</g>
</g>
<!-- Node1&#45;&gt;Node3 -->
<g id="edge2" class="edge"><title>Node1&#45;&gt;Node3</title>
<path fill="none" stroke="midnightblue" d="M483.953,-73.2511C437.899,-62.9156 376.857,-49.2164 328.522,-38.3688"/>
<polygon fill="midnightblue" stroke="midnightblue" points="483.314,-76.6946 493.837,-75.4694 484.847,-69.8645 483.314,-76.6946"/>
</g>
<!-- Node4 -->
<g id="node4" class="node"><title>Node4</title>
<g id="a_node4"><a xlink:href="$AP__HAL__PX4_2Scheduler_8cpp.html" xlink:title="libraries/AP_HAL_PX4\l/Scheduler.cpp">
<polygon fill="white" stroke="black" points="346.598,-5.5 346.598,-33.5 463.203,-33.5 463.203,-5.5 346.598,-5.5"/>
<text text-anchor="start" x="354.598" y="-21.5" font-family="Helvetica,sans-Serif" font-size="10.00">libraries/AP_HAL_PX4</text>
<text text-anchor="middle" x="404.9" y="-11.5" font-family="Helvetica,sans-Serif" font-size="10.00">/Scheduler.cpp</text>
</a>
</g>
</g>
<!-- Node1&#45;&gt;Node4 -->
<g id="edge3" class="edge"><title>Node1&#45;&gt;Node4</title>
<path fill="none" stroke="midnightblue" d="M514.272,-71.0937C488.993,-59.4 456.214,-44.2367 433.156,-33.5708"/>
<polygon fill="midnightblue" stroke="midnightblue" points="513.012,-74.367 523.557,-75.3889 515.951,-68.0139 513.012,-74.367"/>
</g>
<!-- Node5 -->
<g id="node5" class="node"><title>Node5</title>
<g id="a_node5"><a xlink:href="$AP__HAL__VRBRAIN_2Scheduler_8cpp.html" xlink:title="libraries/AP_HAL_VRBRAIN\l/Scheduler.cpp">
<polygon fill="white" stroke="black" points="480.822,-5.5 480.822,-33.5 622.979,-33.5 622.979,-5.5 480.822,-5.5"/>
<text text-anchor="start" x="488.822" y="-21.5" font-family="Helvetica,sans-Serif" font-size="10.00">libraries/AP_HAL_VRBRAIN</text>
<text text-anchor="middle" x="551.9" y="-11.5" font-family="Helvetica,sans-Serif" font-size="10.00">/Scheduler.cpp</text>
</a>
</g>
</g>
<!-- Node1&#45;&gt;Node5 -->
<g id="edge4" class="edge"><title>Node1&#45;&gt;Node5</title>
<path fill="none" stroke="midnightblue" d="M551.9,-65.1336C551.9,-54.5764 551.9,-42.4982 551.9,-33.5708"/>
<polygon fill="midnightblue" stroke="midnightblue" points="548.4,-65.3889 551.9,-75.3889 555.4,-65.389 548.4,-65.3889"/>
</g>
<!-- Node6 -->
<g id="node6" class="node"><title>Node6</title>
<g id="a_node6"><a xlink:href="$VibTest_8cpp.html" xlink:title="libraries/AP_InertialSensor\l/examples/VibTest/VibTest.cpp">
<polygon fill="white" stroke="black" points="641.266,-5.5 641.266,-33.5 792.535,-33.5 792.535,-5.5 641.266,-5.5"/>
<text text-anchor="start" x="649.266" y="-21.5" font-family="Helvetica,sans-Serif" font-size="10.00">libraries/AP_InertialSensor</text>
<text text-anchor="middle" x="716.9" y="-11.5" font-family="Helvetica,sans-Serif" font-size="10.00">/examples/VibTest/VibTest.cpp</text>
</a>
</g>
</g>
<!-- Node1&#45;&gt;Node6 -->
<g id="edge5" class="edge"><title>Node1&#45;&gt;Node6</title>
<path fill="none" stroke="midnightblue" d="M593.016,-71.5555C621.536,-59.8015 658.962,-44.3777 685.184,-33.5708"/>
<polygon fill="midnightblue" stroke="midnightblue" points="591.626,-68.3426 583.714,-75.3889 594.293,-74.8145 591.626,-68.3426"/>
</g>
<!-- Node7 -->
<g id="node7" class="node"><title>Node7</title>
<g id="a_node7"><a xlink:href="$AP__Scheduler_8cpp.html" xlink:title="libraries/AP_Scheduler\l/AP_Scheduler.cpp">
<polygon fill="white" stroke="black" points="810.041,-5.5 810.041,-33.5 927.76,-33.5 927.76,-5.5 810.041,-5.5"/>
<text text-anchor="start" x="818.041" y="-21.5" font-family="Helvetica,sans-Serif" font-size="10.00">libraries/AP_Scheduler</text>
<text text-anchor="middle" x="868.9" y="-11.5" font-family="Helvetica,sans-Serif" font-size="10.00">/AP_Scheduler.cpp</text>
</a>
</g>
</g>
<!-- Node1&#45;&gt;Node7 -->
<g id="edge6" class="edge"><title>Node1&#45;&gt;Node7</title>
<path fill="none" stroke="midnightblue" d="M620.884,-76.2603C671.253,-66.979 741.077,-53.398 801.9,-39 808.829,-37.36 816.122,-35.4933 823.244,-33.5914"/>
<polygon fill="midnightblue" stroke="midnightblue" points="619.965,-72.8703 610.76,-78.1162 621.227,-79.7556 619.965,-72.8703"/>
</g>
<!-- Node8 -->
<g id="node8" class="node"><title>Node8</title>
<g id="a_node8"><a xlink:href="$Scheduler__test_8cpp.html" xlink:title="libraries/AP_Scheduler\l/examples/Scheduler_test\l/Scheduler_test.cpp">
<polygon fill="white" stroke="black" points="945.369,-0.5 945.369,-38.5 1076.43,-38.5 1076.43,-0.5 945.369,-0.5"/>
<text text-anchor="start" x="953.369" y="-26.5" font-family="Helvetica,sans-Serif" font-size="10.00">libraries/AP_Scheduler</text>
<text text-anchor="start" x="953.369" y="-16.5" font-family="Helvetica,sans-Serif" font-size="10.00">/examples/Scheduler_test</text>
<text text-anchor="middle" x="1010.9" y="-6.5" font-family="Helvetica,sans-Serif" font-size="10.00">/Scheduler_test.cpp</text>
</a>
</g>
</g>
<!-- Node1&#45;&gt;Node8 -->
<g id="edge7" class="edge"><title>Node1&#45;&gt;Node8</title>
<path fill="none" stroke="midnightblue" d="M621.042,-82.0749C698.4,-74.3156 827.258,-59.6802 936.9,-39 939.633,-38.4846 942.416,-37.9292 945.221,-37.3439"/>
<polygon fill="midnightblue" stroke="midnightblue" points="620.545,-78.607 610.94,-83.0784 621.237,-85.5727 620.545,-78.607"/>
</g>
</g>
</svg>
