<?xml version="1.0" encoding="UTF-8" standalone="no"?>
<!DOCTYPE svg PUBLIC "-//W3C//DTD SVG 1.1//EN"
 "http://www.w3.org/Graphics/SVG/1.1/DTD/svg11.dtd">
<!-- Generated by graphviz version 2.38.0 (20140413.2041)
 -->
<!-- Title: libraries/AP_Parachute/AP_Parachute.h Pages: 1 -->
<svg width="290pt" height="112pt"
 viewBox="0.00 0.00 289.90 112.00" xmlns="http://www.w3.org/2000/svg" xmlns:xlink="http://www.w3.org/1999/xlink">
<g id="graph0" class="graph" transform="scale(1 1) rotate(0) translate(4 108)">
<title>libraries/AP_Parachute/AP_Parachute.h</title>
<polygon fill="white" stroke="none" points="-4,4 -4,-108 285.901,-108 285.901,4 -4,4"/>
<!-- Node1 -->
<g id="node1" class="node"><title>Node1</title>
<polygon fill="#bfbfbf" stroke="black" points="75,-75.5 75,-103.5 193.275,-103.5 193.275,-75.5 75,-75.5"/>
<text text-anchor="start" x="83" y="-91.5" font-family="Helvetica,sans-Serif" font-size="10.00">libraries/AP_Parachute</text>
<text text-anchor="middle" x="134.138" y="-81.5" font-family="Helvetica,sans-Serif" font-size="10.00">/AP_Parachute.h</text>
</g>
<!-- Node2 -->
<g id="node2" class="node"><title>Node2</title>
<g id="a_node2"><a xlink:href="$AP__Parachute_8cpp.html" xlink:title="libraries/AP_Parachute\l/AP_Parachute.cpp">
<polygon fill="white" stroke="black" points="0,-5.5 0,-33.5 118.275,-33.5 118.275,-5.5 0,-5.5"/>
<text text-anchor="start" x="8" y="-21.5" font-family="Helvetica,sans-Serif" font-size="10.00">libraries/AP_Parachute</text>
<text text-anchor="middle" x="59.1377" y="-11.5" font-family="Helvetica,sans-Serif" font-size="10.00">/AP_Parachute.cpp</text>
</a>
</g>
</g>
<!-- Node1&#45;&gt;Node2 -->
<g id="edge1" class="edge"><title>Node1&#45;&gt;Node2</title>
<path fill="none" stroke="midnightblue" d="M111.981,-68.4114C99.5649,-57.154 84.4369,-43.438 73.5541,-33.5708"/>
<polygon fill="midnightblue" stroke="midnightblue" points="109.918,-71.2649 119.677,-75.3889 114.62,-66.0791 109.918,-71.2649"/>
</g>
<!-- Node3 -->
<g id="node3" class="node"><title>Node3</title>
<g id="a_node3"><a xlink:href="$AP__Parachute__test_8cpp.html" xlink:title="libraries/AP_Parachute\l/examples/AP_Parachute\l_test/AP_Parachute_test.cpp">
<polygon fill="white" stroke="black" points="136.375,-0.5 136.375,-38.5 281.901,-38.5 281.901,-0.5 136.375,-0.5"/>
<text text-anchor="start" x="144.375" y="-26.5" font-family="Helvetica,sans-Serif" font-size="10.00">libraries/AP_Parachute</text>
<text text-anchor="start" x="144.375" y="-16.5" font-family="Helvetica,sans-Serif" font-size="10.00">/examples/AP_Parachute</text>
<text text-anchor="middle" x="209.138" y="-6.5" font-family="Helvetica,sans-Serif" font-size="10.00">_test/AP_Parachute_test.cpp</text>
</a>
</g>
</g>
<!-- Node1&#45;&gt;Node3 -->
<g id="edge2" class="edge"><title>Node1&#45;&gt;Node3</title>
<path fill="none" stroke="midnightblue" d="M156.117,-68.5721C166.533,-59.1283 178.889,-47.9256 189.051,-38.7116"/>
<polygon fill="midnightblue" stroke="midnightblue" points="153.656,-66.0791 148.598,-75.3889 158.358,-71.2649 153.656,-66.0791"/>
</g>
</g>
</svg>
