<?xml version="1.0" encoding="UTF-8" standalone="no"?>
<!DOCTYPE svg PUBLIC "-//W3C//DTD SVG 1.1//EN"
 "http://www.w3.org/Graphics/SVG/1.1/DTD/svg11.dtd">
<!-- Generated by graphviz version 2.38.0 (20140413.2041)
 -->
<!-- Title: libraries/AP_ADC_AnalogSource/AP_ADC_AnalogSource.h Pages: 1 -->
<svg width="1452pt" height="642pt"
 viewBox="0.00 0.00 1451.51 642.00" xmlns="http://www.w3.org/2000/svg" xmlns:xlink="http://www.w3.org/1999/xlink">
<g id="graph0" class="graph" transform="scale(1 1) rotate(0) translate(4 638)">
<title>libraries/AP_ADC_AnalogSource/AP_ADC_AnalogSource.h</title>
<polygon fill="white" stroke="none" points="-4,4 -4,-638 1447.51,-638 1447.51,4 -4,4"/>
<!-- Node1 -->
<g id="node1" class="node"><title>Node1</title>
<polygon fill="#bfbfbf" stroke="black" points="890.419,-605.5 890.419,-633.5 1052.61,-633.5 1052.61,-605.5 890.419,-605.5"/>
<text text-anchor="start" x="898.419" y="-621.5" font-family="Helvetica,sans-Serif" font-size="10.00">libraries/AP_ADC_AnalogSource</text>
<text text-anchor="middle" x="971.512" y="-611.5" font-family="Helvetica,sans-Serif" font-size="10.00">/AP_ADC_AnalogSource.h</text>
</g>
<!-- Node2 -->
<g id="node2" class="node"><title>Node2</title>
<g id="a_node2"><a xlink:href="$AP__ADC_8h.html" xlink:title="AP_ADC/AP_ADC.h">
<polygon fill="white" stroke="black" points="1130.94,-550.5 1130.94,-568.5 1238.09,-568.5 1238.09,-550.5 1130.94,-550.5"/>
<text text-anchor="middle" x="1184.51" y="-556.5" font-family="Helvetica,sans-Serif" font-size="10.00">AP_ADC/AP_ADC.h</text>
</a>
</g>
</g>
<!-- Node1&#45;&gt;Node2 -->
<g id="edge1" class="edge"><title>Node1&#45;&gt;Node2</title>
<path fill="none" stroke="midnightblue" d="M1019.31,-605.484C1057.16,-595.179 1109.38,-580.958 1144.91,-571.283"/>
<polygon fill="midnightblue" stroke="midnightblue" points="1146.19,-574.563 1154.92,-568.559 1144.35,-567.809 1146.19,-574.563"/>
</g>
<!-- Node9 -->
<g id="node9" class="node"><title>Node9</title>
<g id="a_node9"><a xlink:href="$AP__HAL_8h.html" xlink:title="AP_HAL/AP_HAL.h">
<polygon fill="white" stroke="black" points="776.599,-440.5 776.599,-458.5 880.426,-458.5 880.426,-440.5 776.599,-440.5"/>
<text text-anchor="middle" x="828.512" y="-446.5" font-family="Helvetica,sans-Serif" font-size="10.00">AP_HAL/AP_HAL.h</text>
</a>
</g>
</g>
<!-- Node1&#45;&gt;Node9 -->
<g id="edge77" class="edge"><title>Node1&#45;&gt;Node9</title>
<path fill="none" stroke="midnightblue" d="M960.291,-605.317C934.302,-574.784 870.061,-499.312 841.995,-466.34"/>
<polygon fill="midnightblue" stroke="midnightblue" points="844.538,-463.928 835.391,-458.582 839.208,-468.465 844.538,-463.928"/>
</g>
<!-- Node3 -->
<g id="node3" class="node"><title>Node3</title>
<g id="a_node3"><a xlink:href="$AP__Common_8h.html" xlink:title="Common definitions and utility routines for the ArduPilot libraries. ">
<polygon fill="white" stroke="black" points="783.485,-165.5 783.485,-183.5 929.539,-183.5 929.539,-165.5 783.485,-165.5"/>
<text text-anchor="middle" x="856.512" y="-171.5" font-family="Helvetica,sans-Serif" font-size="10.00">AP_Common/AP_Common.h</text>
</a>
</g>
</g>
<!-- Node2&#45;&gt;Node3 -->
<g id="edge2" class="edge"><title>Node2&#45;&gt;Node3</title>
<path fill="none" stroke="midnightblue" d="M1238.18,-554.526C1265.77,-549.439 1297.17,-538.26 1314.51,-514 1342.47,-474.879 1547.84,-619.003 1310.51,-330 1192.88,-186.755 1058.88,-340.082 903.512,-239 885.951,-227.575 872.614,-207.176 864.711,-192.581"/>
<polygon fill="midnightblue" stroke="midnightblue" points="867.785,-190.903 860.124,-183.584 861.549,-194.083 867.785,-190.903"/>
</g>
<!-- Node7 -->
<g id="node7" class="node"><title>Node7</title>
<g id="a_node7"><a xlink:href="$AP__ADC__ADS7844_8h.html" xlink:title="AP_ADC_ADS7844.h">
<polygon fill="white" stroke="black" points="1063.15,-495.5 1063.15,-513.5 1175.87,-513.5 1175.87,-495.5 1063.15,-495.5"/>
<text text-anchor="middle" x="1119.51" y="-501.5" font-family="Helvetica,sans-Serif" font-size="10.00">AP_ADC_ADS7844.h</text>
</a>
</g>
</g>
<!-- Node2&#45;&gt;Node7 -->
<g id="edge6" class="edge"><title>Node2&#45;&gt;Node7</title>
<path fill="none" stroke="midnightblue" d="M1169.63,-550.45C1158.16,-542.59 1142.86,-530.43 1132.03,-520.739"/>
<polygon fill="midnightblue" stroke="midnightblue" points="1134.14,-517.92 1124.45,-513.625 1129.34,-523.022 1134.14,-517.92"/>
</g>
<!-- Node32 -->
<g id="node32" class="node"><title>Node32</title>
<g id="a_node32"><a xlink:href="$AP__ADC__ADS1115_8h.html" xlink:title="AP_ADC_ADS1115.h">
<polygon fill="white" stroke="black" points="1193.89,-495.5 1193.89,-513.5 1305.14,-513.5 1305.14,-495.5 1193.89,-495.5"/>
<text text-anchor="middle" x="1249.51" y="-501.5" font-family="Helvetica,sans-Serif" font-size="10.00">AP_ADC_ADS1115.h</text>
</a>
</g>
</g>
<!-- Node2&#45;&gt;Node32 -->
<g id="edge73" class="edge"><title>Node2&#45;&gt;Node32</title>
<path fill="none" stroke="midnightblue" d="M1189.61,-550.219C1197.82,-542.003 1213.13,-529.26 1226.34,-519.475"/>
<polygon fill="midnightblue" stroke="midnightblue" points="1228.53,-522.213 1234.63,-513.55 1224.46,-516.519 1228.53,-522.213"/>
</g>
<!-- Node4 -->
<g id="node4" class="node"><title>Node4</title>
<polygon fill="white" stroke="#bfbfbf" points="475.392,-110.5 475.392,-128.5 523.633,-128.5 523.633,-110.5 475.392,-110.5"/>
<text text-anchor="middle" x="499.512" y="-116.5" font-family="Helvetica,sans-Serif" font-size="10.00">stdint.h</text>
</g>
<!-- Node3&#45;&gt;Node4 -->
<g id="edge3" class="edge"><title>Node3&#45;&gt;Node4</title>
<path fill="none" stroke="midnightblue" d="M802.292,-165.45C727.798,-154.391 595.974,-134.821 533.794,-125.589"/>
<polygon fill="midnightblue" stroke="midnightblue" points="534.131,-122.101 523.726,-124.095 533.103,-129.025 534.131,-122.101"/>
</g>
<!-- Node5 -->
<g id="node5" class="node"><title>Node5</title>
<polygon fill="white" stroke="#bfbfbf" points="832.67,-110.5 832.67,-128.5 880.354,-128.5 880.354,-110.5 832.67,-110.5"/>
<text text-anchor="middle" x="856.512" y="-116.5" font-family="Helvetica,sans-Serif" font-size="10.00">stdlib.h</text>
</g>
<!-- Node3&#45;&gt;Node5 -->
<g id="edge4" class="edge"><title>Node3&#45;&gt;Node5</title>
<path fill="none" stroke="midnightblue" d="M856.512,-165.219C856.512,-158.177 856.512,-147.808 856.512,-138.828"/>
<polygon fill="midnightblue" stroke="midnightblue" points="860.012,-138.55 856.512,-128.55 853.012,-138.55 860.012,-138.55"/>
</g>
<!-- Node6 -->
<g id="node6" class="node"><title>Node6</title>
<polygon fill="white" stroke="#bfbfbf" points="1040.22,-110.5 1040.22,-128.5 1096.81,-128.5 1096.81,-110.5 1040.22,-110.5"/>
<text text-anchor="middle" x="1068.51" y="-116.5" font-family="Helvetica,sans-Serif" font-size="10.00">stdbool.h</text>
</g>
<!-- Node3&#45;&gt;Node6 -->
<g id="edge5" class="edge"><title>Node3&#45;&gt;Node6</title>
<path fill="none" stroke="midnightblue" d="M888.71,-165.45C926.725,-155.947 989.881,-140.158 1030.33,-130.046"/>
<polygon fill="midnightblue" stroke="midnightblue" points="1031.24,-133.426 1040.09,-127.605 1029.54,-126.635 1031.24,-133.426"/>
</g>
<!-- Node7&#45;&gt;Node2 -->
<g id="edge8" class="edge"><title>Node7&#45;&gt;Node2</title>
<path fill="none" stroke="midnightblue" d="M1134.39,-513.55C1145.8,-521.369 1161,-533.444 1171.83,-543.11"/>
<polygon fill="midnightblue" stroke="midnightblue" points="1169.73,-545.936 1179.42,-550.219 1174.51,-540.828 1169.73,-545.936"/>
</g>
<!-- Node8 -->
<g id="node8" class="node"><title>Node8</title>
<polygon fill="white" stroke="#bfbfbf" points="1357.11,-55.5 1357.11,-73.5 1415.91,-73.5 1415.91,-55.5 1357.11,-55.5"/>
<text text-anchor="middle" x="1386.51" y="-61.5" font-family="Helvetica,sans-Serif" font-size="10.00">inttypes.h</text>
</g>
<!-- Node7&#45;&gt;Node8 -->
<g id="edge7" class="edge"><title>Node7&#45;&gt;Node8</title>
<path fill="none" stroke="midnightblue" d="M1151.76,-495.481C1226.56,-474.746 1405.51,-411.926 1405.51,-285.5 1405.51,-285.5 1405.51,-285.5 1405.51,-173.5 1405.51,-141.386 1397.26,-104.702 1391.64,-83.4139"/>
<polygon fill="midnightblue" stroke="midnightblue" points="1394.95,-82.2562 1388.92,-73.5437 1388.2,-84.114 1394.95,-82.2562"/>
</g>
<!-- Node7&#45;&gt;Node9 -->
<g id="edge9" class="edge"><title>Node7&#45;&gt;Node9</title>
<path fill="none" stroke="midnightblue" d="M1075.32,-495.45C1023.68,-486.045 938.239,-470.485 882.662,-460.362"/>
<polygon fill="midnightblue" stroke="midnightblue" points="883.112,-456.887 872.647,-458.538 881.858,-463.774 883.112,-456.887"/>
</g>
<!-- Node9&#45;&gt;Node4 -->
<g id="edge10" class="edge"><title>Node9&#45;&gt;Node4</title>
<path fill="none" stroke="midnightblue" d="M776.516,-444.265C695.289,-434.366 542.421,-401.608 492.512,-294 468.345,-241.893 484.03,-171.24 493.632,-138.512"/>
<polygon fill="midnightblue" stroke="midnightblue" points="497.083,-139.198 496.699,-128.61 490.397,-137.127 497.083,-139.198"/>
</g>
<!-- Node9&#45;&gt;Node6 -->
<g id="edge11" class="edge"><title>Node9&#45;&gt;Node6</title>
<path fill="none" stroke="midnightblue" d="M880.552,-443.611C940.95,-437.105 1036.04,-424.038 1065.51,-404 1093.09,-385.245 1105.51,-373.855 1105.51,-340.5 1105.51,-340.5 1105.51,-340.5 1105.51,-283.5 1105.51,-230.013 1098.28,-216.686 1084.51,-165 1082.1,-155.953 1078.67,-146.137 1075.59,-138.031"/>
<polygon fill="midnightblue" stroke="midnightblue" points="1078.79,-136.602 1071.88,-128.57 1072.28,-139.157 1078.79,-136.602"/>
</g>
<!-- Node10 -->
<g id="node10" class="node"><title>Node10</title>
<g id="a_node10"><a xlink:href="$AP__HAL__Namespace_8h.html" xlink:title="AP_HAL_Namespace.h">
<polygon fill="white" stroke="black" points="694.705,-55.5 694.705,-73.5 816.32,-73.5 816.32,-55.5 694.705,-55.5"/>
<text text-anchor="middle" x="755.512" y="-61.5" font-family="Helvetica,sans-Serif" font-size="10.00">AP_HAL_Namespace.h</text>
</a>
</g>
</g>
<!-- Node9&#45;&gt;Node10 -->
<g id="edge12" class="edge"><title>Node9&#45;&gt;Node10</title>
<path fill="none" stroke="midnightblue" d="M829.793,-440.462C834.94,-409.835 856.169,-298.227 903.512,-220 915.066,-200.909 930.118,-204.676 938.512,-184 941.689,-176.176 941.518,-172.892 938.512,-165 918.967,-113.679 858.216,-88.2328 812.023,-76.0225"/>
<polygon fill="midnightblue" stroke="midnightblue" points="812.663,-72.5746 802.112,-73.5434 810.964,-79.3654 812.663,-72.5746"/>
</g>
<!-- Node13 -->
<g id="node13" class="node"><title>Node13</title>
<g id="a_node13"><a xlink:href="$AP__HAL__Boards_8h.html" xlink:title="AP_HAL_Boards.h">
<polygon fill="white" stroke="black" points="589.542,-165.5 589.542,-183.5 689.482,-183.5 689.482,-165.5 589.542,-165.5"/>
<text text-anchor="middle" x="639.512" y="-171.5" font-family="Helvetica,sans-Serif" font-size="10.00">AP_HAL_Boards.h</text>
</a>
</g>
</g>
<!-- Node9&#45;&gt;Node13 -->
<g id="edge15" class="edge"><title>Node9&#45;&gt;Node13</title>
<path fill="none" stroke="midnightblue" d="M797.974,-440.469C755.704,-427.292 684.512,-396.75 684.512,-340.5 684.512,-340.5 684.512,-340.5 684.512,-283.5 684.512,-248.955 664.653,-212.645 651.32,-192.161"/>
<polygon fill="midnightblue" stroke="midnightblue" points="654.087,-190.005 645.581,-183.689 648.292,-193.931 654.087,-190.005"/>
</g>
<!-- Node14 -->
<g id="node14" class="node"><title>Node14</title>
<g id="a_node14"><a xlink:href="$AP__HAL__Macros_8h.html" xlink:title="AP_HAL_Macros.h">
<polygon fill="white" stroke="black" points="933.993,-385.5 933.993,-403.5 1035.03,-403.5 1035.03,-385.5 933.993,-385.5"/>
<text text-anchor="middle" x="984.512" y="-391.5" font-family="Helvetica,sans-Serif" font-size="10.00">AP_HAL_Macros.h</text>
</a>
</g>
</g>
<!-- Node9&#45;&gt;Node14 -->
<g id="edge16" class="edge"><title>Node9&#45;&gt;Node14</title>
<path fill="none" stroke="midnightblue" d="M852.205,-440.45C878.625,-431.475 921.547,-416.892 951.307,-406.781"/>
<polygon fill="midnightblue" stroke="midnightblue" points="952.51,-410.069 960.852,-403.538 950.258,-403.441 952.51,-410.069"/>
</g>
<!-- Node15 -->
<g id="node15" class="node"><title>Node15</title>
<g id="a_node15"><a xlink:href="$AP__HAL__Main_8h.html" xlink:title="AP_HAL_Main.h">
<polygon fill="white" stroke="black" points="288.547,-385.5 288.547,-403.5 378.478,-403.5 378.478,-385.5 288.547,-385.5"/>
<text text-anchor="middle" x="333.512" y="-391.5" font-family="Helvetica,sans-Serif" font-size="10.00">AP_HAL_Main.h</text>
</a>
</g>
</g>
<!-- Node9&#45;&gt;Node15 -->
<g id="edge17" class="edge"><title>Node9&#45;&gt;Node15</title>
<path fill="none" stroke="midnightblue" d="M776.421,-443.886C694.572,-436.477 530.9,-421.023 392.512,-404 391.241,-403.844 389.955,-403.683 388.658,-403.518"/>
<polygon fill="midnightblue" stroke="midnightblue" points="388.956,-400.027 378.584,-402.189 388.041,-406.966 388.956,-400.027"/>
</g>
<!-- Node16 -->
<g id="node16" class="node"><title>Node16</title>
<g id="a_node16"><a xlink:href="$HAL_8h.html" xlink:title="HAL.h">
<polygon fill="white" stroke="black" points="320.616,-330.5 320.616,-348.5 364.409,-348.5 364.409,-330.5 320.616,-330.5"/>
<text text-anchor="middle" x="342.512" y="-336.5" font-family="Helvetica,sans-Serif" font-size="10.00">HAL.h</text>
</a>
</g>
</g>
<!-- Node9&#45;&gt;Node16 -->
<g id="edge72" class="edge"><title>Node9&#45;&gt;Node16</title>
<path fill="none" stroke="midnightblue" d="M776.548,-445.973C683.519,-440.908 492.461,-427.9 430.512,-404 402.372,-393.143 375.012,-371.032 358.462,-355.988"/>
<polygon fill="midnightblue" stroke="midnightblue" points="360.54,-353.138 350.846,-348.862 355.757,-358.25 360.54,-353.138"/>
</g>
<!-- Node17 -->
<g id="node17" class="node"><title>Node17</title>
<g id="a_node17"><a xlink:href="$AnalogIn_8h.html" xlink:title="AnalogIn.h">
<polygon fill="white" stroke="black" points="1192.6,-220.5 1192.6,-238.5 1256.42,-238.5 1256.42,-220.5 1192.6,-220.5"/>
<text text-anchor="middle" x="1224.51" y="-226.5" font-family="Helvetica,sans-Serif" font-size="10.00">AnalogIn.h</text>
</a>
</g>
</g>
<!-- Node9&#45;&gt;Node17 -->
<g id="edge54" class="edge"><title>Node9&#45;&gt;Node17</title>
<path fill="none" stroke="midnightblue" d="M880.739,-447.754C962.487,-445.566 1115.67,-437.039 1157.51,-404 1206.91,-365 1219.92,-284.815 1223.33,-248.764"/>
<polygon fill="midnightblue" stroke="midnightblue" points="1226.82,-248.965 1224.13,-238.718 1219.84,-248.409 1226.82,-248.965"/>
</g>
<!-- Node18 -->
<g id="node18" class="node"><title>Node18</title>
<g id="a_node18"><a xlink:href="$GPIO_8h.html" xlink:title="GPIO.h">
<polygon fill="white" stroke="black" points="327.84,-220.5 327.84,-238.5 377.185,-238.5 377.185,-220.5 327.84,-220.5"/>
<text text-anchor="middle" x="352.512" y="-226.5" font-family="Helvetica,sans-Serif" font-size="10.00">GPIO.h</text>
</a>
</g>
</g>
<!-- Node9&#45;&gt;Node18 -->
<g id="edge56" class="edge"><title>Node9&#45;&gt;Node18</title>
<path fill="none" stroke="midnightblue" d="M776.473,-447.322C689.437,-444.497 518.91,-435.054 468.512,-404 408.127,-366.793 372.265,-285.043 358.729,-248.624"/>
<polygon fill="midnightblue" stroke="midnightblue" points="361.906,-247.114 355.243,-238.877 355.315,-249.471 361.906,-247.114"/>
</g>
<!-- Node19 -->
<g id="node19" class="node"><title>Node19</title>
<g id="a_node19"><a xlink:href="$RCInput_8h.html" xlink:title="RCInput.h">
<polygon fill="white" stroke="black" points="0,-275.5 0,-293.5 61.0244,-293.5 61.0244,-275.5 0,-275.5"/>
<text text-anchor="middle" x="30.5122" y="-281.5" font-family="Helvetica,sans-Serif" font-size="10.00">RCInput.h</text>
</a>
</g>
</g>
<!-- Node9&#45;&gt;Node19 -->
<g id="edge57" class="edge"><title>Node9&#45;&gt;Node19</title>
<path fill="none" stroke="midnightblue" d="M776.586,-448.525C644.79,-448.007 300.208,-442.861 193.512,-404 131.545,-381.43 72.4589,-327.85 45.6085,-301.163"/>
<polygon fill="midnightblue" stroke="midnightblue" points="47.8608,-298.463 38.343,-293.809 42.8811,-303.383 47.8608,-298.463"/>
</g>
<!-- Node20 -->
<g id="node20" class="node"><title>Node20</title>
<g id="a_node20"><a xlink:href="$RCOutput_8h.html" xlink:title="RCOutput.h">
<polygon fill="white" stroke="black" points="79.1108,-275.5 79.1108,-293.5 147.914,-293.5 147.914,-275.5 79.1108,-275.5"/>
<text text-anchor="middle" x="113.512" y="-281.5" font-family="Helvetica,sans-Serif" font-size="10.00">RCOutput.h</text>
</a>
</g>
</g>
<!-- Node9&#45;&gt;Node20 -->
<g id="edge58" class="edge"><title>Node9&#45;&gt;Node20</title>
<path fill="none" stroke="midnightblue" d="M776.179,-446.78C638.885,-441.966 275.546,-427.172 226.512,-404 178.9,-381.499 141.023,-329.511 123.724,-302.494"/>
<polygon fill="midnightblue" stroke="midnightblue" points="126.554,-300.416 118.302,-293.771 120.609,-304.112 126.554,-300.416"/>
</g>
<!-- Node21 -->
<g id="node21" class="node"><title>Node21</title>
<g id="a_node21"><a xlink:href="$SPIDriver_8h.html" xlink:title="SPIDriver.h">
<polygon fill="white" stroke="black" points="166.224,-275.5 166.224,-293.5 232.8,-293.5 232.8,-275.5 166.224,-275.5"/>
<text text-anchor="middle" x="199.512" y="-281.5" font-family="Helvetica,sans-Serif" font-size="10.00">SPIDriver.h</text>
</a>
</g>
</g>
<!-- Node9&#45;&gt;Node21 -->
<g id="edge53" class="edge"><title>Node9&#45;&gt;Node21</title>
<path fill="none" stroke="midnightblue" d="M776.373,-447.632C641.492,-444.952 288.637,-435.022 246.512,-404 214.223,-380.221 204.096,-330.742 200.935,-303.853"/>
<polygon fill="midnightblue" stroke="midnightblue" points="204.386,-303.174 199.94,-293.557 197.418,-303.847 204.386,-303.174"/>
</g>
<!-- Node22 -->
<g id="node22" class="node"><title>Node22</title>
<g id="a_node22"><a xlink:href="$Storage_8h.html" xlink:title="Storage.h">
<polygon fill="white" stroke="black" points="596.83,-275.5 596.83,-293.5 656.194,-293.5 656.194,-275.5 596.83,-275.5"/>
<text text-anchor="middle" x="626.512" y="-281.5" font-family="Helvetica,sans-Serif" font-size="10.00">Storage.h</text>
</a>
</g>
</g>
<!-- Node9&#45;&gt;Node22 -->
<g id="edge55" class="edge"><title>Node9&#45;&gt;Node22</title>
<path fill="none" stroke="midnightblue" d="M776.436,-445.749C742.446,-441.35 699.214,-430.466 670.512,-404 641.562,-377.304 631.578,-329.81 628.196,-303.791"/>
<polygon fill="midnightblue" stroke="midnightblue" points="631.668,-303.342 627.089,-293.788 624.711,-304.113 631.668,-303.342"/>
</g>
<!-- Node23 -->
<g id="node23" class="node"><title>Node23</title>
<g id="a_node23"><a xlink:href="$UARTDriver_8h.html" xlink:title="UARTDriver.h">
<polygon fill="white" stroke="black" points="501.76,-275.5 501.76,-293.5 579.264,-293.5 579.264,-275.5 501.76,-275.5"/>
<text text-anchor="middle" x="540.512" y="-281.5" font-family="Helvetica,sans-Serif" font-size="10.00">UARTDriver.h</text>
</a>
</g>
</g>
<!-- Node9&#45;&gt;Node23 -->
<g id="edge49" class="edge"><title>Node9&#45;&gt;Node23</title>
<path fill="none" stroke="midnightblue" d="M776.361,-443.293C739.442,-437.787 689.873,-426.589 651.512,-404 606.731,-377.63 568.881,-327.784 551.204,-301.951"/>
<polygon fill="midnightblue" stroke="midnightblue" points="554.095,-299.978 545.629,-293.608 548.275,-303.867 554.095,-299.978"/>
</g>
<!-- Node24 -->
<g id="node24" class="node"><title>Node24</title>
<g id="a_node24"><a xlink:href="$BetterStream_8h.html" xlink:title="utility/BetterStream.h">
<polygon fill="white" stroke="black" points="912.106,-220.5 912.106,-238.5 1020.92,-238.5 1020.92,-220.5 912.106,-220.5"/>
<text text-anchor="middle" x="966.512" y="-226.5" font-family="Helvetica,sans-Serif" font-size="10.00">utility/BetterStream.h</text>
</a>
</g>
</g>
<!-- Node9&#45;&gt;Node24 -->
<g id="edge71" class="edge"><title>Node9&#45;&gt;Node24</title>
<path fill="none" stroke="midnightblue" d="M841.168,-440.191C852.808,-432.057 869.962,-418.761 881.512,-404 921.067,-353.447 948.983,-281.522 960.558,-248.426"/>
<polygon fill="midnightblue" stroke="midnightblue" points="963.933,-249.373 963.85,-238.778 957.308,-247.112 963.933,-249.373"/>
</g>
<!-- Node26 -->
<g id="node26" class="node"><title>Node26</title>
<g id="a_node26"><a xlink:href="$Stream_8h.html" xlink:title="Stream.h">
<polygon fill="white" stroke="black" points="1169.23,-165.5 1169.23,-183.5 1225.8,-183.5 1225.8,-165.5 1169.23,-165.5"/>
<text text-anchor="middle" x="1197.51" y="-171.5" font-family="Helvetica,sans-Serif" font-size="10.00">Stream.h</text>
</a>
</g>
</g>
<!-- Node9&#45;&gt;Node26 -->
<g id="edge70" class="edge"><title>Node9&#45;&gt;Node26</title>
<path fill="none" stroke="midnightblue" d="M880.467,-446.73C954.061,-443.214 1083.71,-432.984 1119.51,-404 1142.96,-385.015 1143.51,-370.671 1143.51,-340.5 1143.51,-340.5 1143.51,-340.5 1143.51,-283.5 1143.51,-247.709 1167.53,-211.62 1183.53,-191.55"/>
<polygon fill="midnightblue" stroke="midnightblue" points="1186.31,-193.678 1190,-183.746 1180.93,-189.209 1186.31,-193.678"/>
</g>
<!-- Node27 -->
<g id="node27" class="node"><title>Node27</title>
<g id="a_node27"><a xlink:href="$Print_8h.html" xlink:title="Print.h">
<polygon fill="white" stroke="black" points="1295.06,-110.5 1295.06,-128.5 1339.96,-128.5 1339.96,-110.5 1295.06,-110.5"/>
<text text-anchor="middle" x="1317.51" y="-116.5" font-family="Helvetica,sans-Serif" font-size="10.00">Print.h</text>
</a>
</g>
</g>
<!-- Node9&#45;&gt;Node27 -->
<g id="edge69" class="edge"><title>Node9&#45;&gt;Node27</title>
<path fill="none" stroke="midnightblue" d="M880.72,-445.939C974.714,-440.801 1168.49,-427.654 1231.51,-404 1271.57,-388.966 1290.13,-386.614 1310.51,-349 1348.37,-279.149 1331.3,-178.822 1322.06,-138.391"/>
<polygon fill="midnightblue" stroke="midnightblue" points="1325.46,-137.553 1319.71,-128.651 1318.65,-139.193 1325.46,-137.553"/>
</g>
<!-- Node28 -->
<g id="node28" class="node"><title>Node28</title>
<g id="a_node28"><a xlink:href="$I2CDriver_8h.html" xlink:title="I2CDriver.h">
<polygon fill="white" stroke="black" points="201.502,-165.5 201.502,-183.5 267.522,-183.5 267.522,-165.5 201.502,-165.5"/>
<text text-anchor="middle" x="234.512" y="-171.5" font-family="Helvetica,sans-Serif" font-size="10.00">I2CDriver.h</text>
</a>
</g>
</g>
<!-- Node9&#45;&gt;Node28 -->
<g id="edge50" class="edge"><title>Node9&#45;&gt;Node28</title>
<path fill="none" stroke="midnightblue" d="M776.363,-447.577C646.736,-444.821 317.605,-434.834 279.512,-404 256.615,-385.466 260.512,-369.958 260.512,-340.5 260.512,-340.5 260.512,-340.5 260.512,-283.5 260.512,-250.983 249.234,-214.449 241.533,-193.296"/>
<polygon fill="midnightblue" stroke="midnightblue" points="244.728,-191.849 237.911,-183.739 238.182,-194.33 244.728,-191.849"/>
</g>
<!-- Node29 -->
<g id="node29" class="node"><title>Node29</title>
<g id="a_node29"><a xlink:href="$Scheduler_8h.html" xlink:title="Scheduler.h">
<polygon fill="white" stroke="black" points="712.101,-220.5 712.101,-238.5 780.923,-238.5 780.923,-220.5 712.101,-220.5"/>
<text text-anchor="middle" x="746.512" y="-226.5" font-family="Helvetica,sans-Serif" font-size="10.00">Scheduler.h</text>
</a>
</g>
</g>
<!-- Node9&#45;&gt;Node29 -->
<g id="edge59" class="edge"><title>Node9&#45;&gt;Node29</title>
<path fill="none" stroke="midnightblue" d="M825.497,-440.483C813.645,-408.974 770.089,-293.181 753.235,-248.372"/>
<polygon fill="midnightblue" stroke="midnightblue" points="756.44,-246.951 749.643,-238.823 749.888,-249.415 756.44,-246.951"/>
</g>
<!-- Node30 -->
<g id="node30" class="node"><title>Node30</title>
<g id="a_node30"><a xlink:href="$Semaphores_8h.html" xlink:title="Semaphores.h">
<polygon fill="white" stroke="black" points="1219.99,-330.5 1219.99,-348.5 1301.03,-348.5 1301.03,-330.5 1219.99,-330.5"/>
<text text-anchor="middle" x="1260.51" y="-336.5" font-family="Helvetica,sans-Serif" font-size="10.00">Semaphores.h</text>
</a>
</g>
</g>
<!-- Node9&#45;&gt;Node30 -->
<g id="edge64" class="edge"><title>Node9&#45;&gt;Node30</title>
<path fill="none" stroke="midnightblue" d="M880.443,-446.97C970.269,-443.573 1150.33,-433.237 1205.51,-404 1225.39,-393.469 1241.28,-372.582 1250.77,-357.637"/>
<polygon fill="midnightblue" stroke="midnightblue" points="1253.9,-359.216 1256.06,-348.844 1247.91,-355.607 1253.9,-359.216"/>
</g>
<!-- Node31 -->
<g id="node31" class="node"><title>Node31</title>
<g id="a_node31"><a xlink:href="$Util_8h.html" xlink:title="Util.h">
<polygon fill="white" stroke="black" points="1039.12,-220.5 1039.12,-238.5 1077.9,-238.5 1077.9,-220.5 1039.12,-220.5"/>
<text text-anchor="middle" x="1058.51" y="-226.5" font-family="Helvetica,sans-Serif" font-size="10.00">Util.h</text>
</a>
</g>
</g>
<!-- Node9&#45;&gt;Node31 -->
<g id="edge66" class="edge"><title>Node9&#45;&gt;Node31</title>
<path fill="none" stroke="midnightblue" d="M880.491,-444.835C937.355,-439.659 1023.27,-428.021 1044.51,-404 1083.18,-360.272 1071.47,-283.753 1063.38,-248.824"/>
<polygon fill="midnightblue" stroke="midnightblue" points="1066.67,-247.54 1060.86,-238.68 1059.88,-249.229 1066.67,-247.54"/>
</g>
<!-- Node11 -->
<g id="node11" class="node"><title>Node11</title>
<polygon fill="white" stroke="#bfbfbf" points="942.116,-0.5 942.116,-18.5 990.909,-18.5 990.909,-0.5 942.116,-0.5"/>
<text text-anchor="middle" x="966.512" y="-6.5" font-family="Helvetica,sans-Serif" font-size="10.00">string.h</text>
</g>
<!-- Node10&#45;&gt;Node11 -->
<g id="edge13" class="edge"><title>Node10&#45;&gt;Node11</title>
<path fill="none" stroke="midnightblue" d="M787.559,-55.4504C826.587,-45.6472 892.239,-29.1563 932.246,-19.1072"/>
<polygon fill="midnightblue" stroke="midnightblue" points="933.23,-22.4688 942.076,-16.638 931.524,-15.6797 933.23,-22.4688"/>
</g>
<!-- Node12 -->
<g id="node12" class="node"><title>Node12</title>
<g id="a_node12"><a xlink:href="$functor_8h.html" xlink:title="utility/functor.h">
<polygon fill="white" stroke="black" points="715.549,-0.5 715.549,-18.5 795.475,-18.5 795.475,-0.5 715.549,-0.5"/>
<text text-anchor="middle" x="755.512" y="-6.5" font-family="Helvetica,sans-Serif" font-size="10.00">utility/functor.h</text>
</a>
</g>
</g>
<!-- Node10&#45;&gt;Node12 -->
<g id="edge14" class="edge"><title>Node10&#45;&gt;Node12</title>
<path fill="none" stroke="midnightblue" d="M755.512,-55.2188C755.512,-48.1769 755.512,-37.8083 755.512,-28.8277"/>
<polygon fill="midnightblue" stroke="midnightblue" points="759.012,-28.5495 755.512,-18.5496 752.012,-28.5496 759.012,-28.5495"/>
</g>
<!-- Node15&#45;&gt;Node16 -->
<g id="edge18" class="edge"><title>Node15&#45;&gt;Node16</title>
<path fill="none" stroke="midnightblue" d="M334.918,-385.219C336.128,-378.099 337.914,-367.577 339.451,-358.529"/>
<polygon fill="midnightblue" stroke="midnightblue" points="342.922,-358.994 341.145,-348.55 336.02,-357.822 342.922,-358.994"/>
</g>
<!-- Node16&#45;&gt;Node10 -->
<g id="edge19" class="edge"><title>Node16&#45;&gt;Node10</title>
<path fill="none" stroke="midnightblue" d="M337.993,-330.284C327.873,-310.775 305.281,-260.284 318.512,-220 337.458,-162.318 347.135,-140.704 399.512,-110 446.402,-82.5128 594.814,-71.8217 684.533,-67.8007"/>
<polygon fill="midnightblue" stroke="midnightblue" points="684.796,-71.2927 694.636,-67.3649 684.494,-64.2992 684.796,-71.2927"/>
</g>
<!-- Node16&#45;&gt;Node17 -->
<g id="edge20" class="edge"><title>Node16&#45;&gt;Node17</title>
<path fill="none" stroke="midnightblue" d="M364.756,-335.776C481.625,-321.466 1025.22,-254.903 1182.05,-235.699"/>
<polygon fill="midnightblue" stroke="midnightblue" points="1182.74,-239.141 1192.24,-234.452 1181.89,-232.193 1182.74,-239.141"/>
</g>
<!-- Node16&#45;&gt;Node18 -->
<g id="edge23" class="edge"><title>Node16&#45;&gt;Node18</title>
<path fill="none" stroke="midnightblue" d="M343.264,-330.382C344.856,-313.182 348.605,-272.698 350.81,-248.887"/>
<polygon fill="midnightblue" stroke="midnightblue" points="354.315,-248.992 351.752,-238.712 347.345,-248.346 354.315,-248.992"/>
</g>
<!-- Node16&#45;&gt;Node19 -->
<g id="edge26" class="edge"><title>Node16&#45;&gt;Node19</title>
<path fill="none" stroke="midnightblue" d="M320.591,-335.273C275.779,-328.6 170.25,-312.495 70.9537,-294.001"/>
<polygon fill="midnightblue" stroke="midnightblue" points="71.531,-290.548 61.0573,-292.146 70.2412,-297.429 71.531,-290.548"/>
</g>
<!-- Node16&#45;&gt;Node20 -->
<g id="edge28" class="edge"><title>Node16&#45;&gt;Node20</title>
<path fill="none" stroke="midnightblue" d="M320.555,-333.418C283.244,-324.783 206.774,-307.085 157.938,-295.782"/>
<polygon fill="midnightblue" stroke="midnightblue" points="158.492,-292.318 147.96,-293.473 156.914,-299.137 158.492,-292.318"/>
</g>
<!-- Node16&#45;&gt;Node21 -->
<g id="edge30" class="edge"><title>Node16&#45;&gt;Node21</title>
<path fill="none" stroke="midnightblue" d="M320.794,-330.45C296.856,-321.578 258.139,-307.229 230.902,-297.134"/>
<polygon fill="midnightblue" stroke="midnightblue" points="232.028,-293.819 221.435,-293.625 229.596,-300.383 232.028,-293.819"/>
</g>
<!-- Node16&#45;&gt;Node22 -->
<g id="edge32" class="edge"><title>Node16&#45;&gt;Node22</title>
<path fill="none" stroke="midnightblue" d="M364.622,-334.814C406.214,-327.813 499.156,-311.853 586.831,-294.28"/>
<polygon fill="midnightblue" stroke="midnightblue" points="587.555,-297.705 596.666,-292.298 586.172,-290.843 587.555,-297.705"/>
</g>
<!-- Node16&#45;&gt;Node23 -->
<g id="edge35" class="edge"><title>Node16&#45;&gt;Node23</title>
<path fill="none" stroke="midnightblue" d="M364.458,-332.626C397.293,-323.836 459.724,-307.125 500.728,-296.149"/>
<polygon fill="midnightblue" stroke="midnightblue" points="501.65,-299.526 510.405,-293.559 499.84,-292.764 501.65,-299.526"/>
</g>
<!-- Node17&#45;&gt;Node8 -->
<g id="edge21" class="edge"><title>Node17&#45;&gt;Node8</title>
<path fill="none" stroke="midnightblue" d="M1237.36,-220.444C1261.35,-204.943 1313.69,-168.949 1348.51,-129 1360.89,-114.8 1371.55,-96.0348 1378.41,-82.5927"/>
<polygon fill="midnightblue" stroke="midnightblue" points="1381.6,-84.0329 1382.87,-73.5146 1375.32,-80.9444 1381.6,-84.0329"/>
</g>
<!-- Node17&#45;&gt;Node10 -->
<g id="edge22" class="edge"><title>Node17&#45;&gt;Node10</title>
<path fill="none" stroke="midnightblue" d="M1228.48,-220.354C1233.95,-207.944 1242.29,-183.765 1234.51,-165 1221.28,-133.062 1210.72,-124.88 1179.51,-110 1118.82,-81.0558 930.685,-70.7811 826.591,-67.2552"/>
<polygon fill="midnightblue" stroke="midnightblue" points="826.589,-63.7533 816.48,-66.925 826.36,-70.7496 826.589,-63.7533"/>
</g>
<!-- Node18&#45;&gt;Node4 -->
<g id="edge24" class="edge"><title>Node18&#45;&gt;Node4</title>
<path fill="none" stroke="midnightblue" d="M356.115,-220.389C362.367,-207.141 376.412,-180.762 395.512,-165 415.911,-148.166 443.629,-136.729 465.32,-129.668"/>
<polygon fill="midnightblue" stroke="midnightblue" points="466.599,-132.937 475.119,-126.639 464.532,-126.249 466.599,-132.937"/>
</g>
<!-- Node18&#45;&gt;Node10 -->
<g id="edge25" class="edge"><title>Node18&#45;&gt;Node10</title>
<path fill="none" stroke="midnightblue" d="M354.061,-220.111C356.696,-207.384 362.929,-182.797 374.512,-165 394.068,-134.955 401.137,-125.393 433.512,-110 476.645,-89.4918 603.504,-76.6493 684.519,-70.301"/>
<polygon fill="midnightblue" stroke="midnightblue" points="684.95,-73.7783 694.652,-69.522 684.413,-66.7989 684.95,-73.7783"/>
</g>
<!-- Node19&#45;&gt;Node10 -->
<g id="edge27" class="edge"><title>Node19&#45;&gt;Node10</title>
<path fill="none" stroke="midnightblue" d="M34.9099,-275.353C50.987,-246.504 109.823,-148.861 189.512,-110 274.886,-68.3675 552.51,-64.1992 684.526,-64.6818"/>
<polygon fill="midnightblue" stroke="midnightblue" points="684.525,-68.1818 694.541,-64.7284 684.558,-61.1818 684.525,-68.1818"/>
</g>
<!-- Node20&#45;&gt;Node10 -->
<g id="edge29" class="edge"><title>Node20&#45;&gt;Node10</title>
<path fill="none" stroke="midnightblue" d="M115.461,-275.442C122.837,-246.895 151.963,-150.144 216.512,-110 255.357,-85.8421 547.392,-72.6773 684.64,-67.7677"/>
<polygon fill="midnightblue" stroke="midnightblue" points="684.776,-71.2652 694.647,-67.4146 684.529,-64.2696 684.776,-71.2652"/>
</g>
<!-- Node21&#45;&gt;Node10 -->
<g id="edge31" class="edge"><title>Node21&#45;&gt;Node10</title>
<path fill="none" stroke="midnightblue" d="M196.473,-275.246C189.625,-255.227 174.91,-202.953 192.512,-165 208.435,-130.67 222.593,-124.586 257.512,-110 332.713,-78.5871 565.532,-69.3149 684.281,-66.6039"/>
<polygon fill="midnightblue" stroke="midnightblue" points="684.446,-70.1012 694.367,-66.3832 684.293,-63.1029 684.446,-70.1012"/>
</g>
<!-- Node22&#45;&gt;Node4 -->
<g id="edge33" class="edge"><title>Node22&#45;&gt;Node4</title>
<path fill="none" stroke="midnightblue" d="M603.696,-275.472C586.251,-268.305 562.69,-256.258 547.512,-239 521.454,-209.369 508.44,-163.747 502.919,-138.632"/>
<polygon fill="midnightblue" stroke="midnightblue" points="506.315,-137.768 500.89,-128.667 499.456,-139.164 506.315,-137.768"/>
</g>
<!-- Node22&#45;&gt;Node10 -->
<g id="edge34" class="edge"><title>Node22&#45;&gt;Node10</title>
<path fill="none" stroke="midnightblue" d="M618.517,-275.345C600.109,-255.546 557.984,-203.723 580.512,-165 608.741,-116.477 670.439,-89.6735 712.494,-76.4366"/>
<polygon fill="midnightblue" stroke="midnightblue" points="713.638,-79.7474 722.203,-73.5104 711.618,-73.0452 713.638,-79.7474"/>
</g>
<!-- Node23&#45;&gt;Node3 -->
<g id="edge37" class="edge"><title>Node23&#45;&gt;Node3</title>
<path fill="none" stroke="midnightblue" d="M579.494,-276.442C582.207,-275.953 584.9,-275.469 587.512,-275 677.27,-258.886 708.104,-280.094 789.512,-239 811.786,-227.756 831.748,-206.703 843.972,-191.93"/>
<polygon fill="midnightblue" stroke="midnightblue" points="847.044,-193.69 850.535,-183.687 841.568,-189.33 847.044,-193.69"/>
</g>
<!-- Node23&#45;&gt;Node4 -->
<g id="edge36" class="edge"><title>Node23&#45;&gt;Node4</title>
<path fill="none" stroke="midnightblue" d="M532.861,-275.398C525.457,-267.011 514.626,-253.17 509.512,-239 497.286,-205.121 497.079,-162.387 498.188,-138.599"/>
<polygon fill="midnightblue" stroke="midnightblue" points="501.685,-138.757 498.791,-128.565 494.697,-138.337 501.685,-138.757"/>
</g>
<!-- Node23&#45;&gt;Node10 -->
<g id="edge38" class="edge"><title>Node23&#45;&gt;Node10</title>
<path fill="none" stroke="midnightblue" d="M531.506,-275.317C503.252,-248.693 420.886,-163.19 466.512,-110 494.032,-77.9184 608.033,-68.7447 684.362,-66.2511"/>
<polygon fill="midnightblue" stroke="midnightblue" points="684.512,-69.7483 694.404,-65.9541 684.305,-62.7513 684.512,-69.7483"/>
</g>
<!-- Node23&#45;&gt;Node24 -->
<g id="edge39" class="edge"><title>Node23&#45;&gt;Node24</title>
<path fill="none" stroke="midnightblue" d="M579.465,-276.263C582.185,-275.817 584.888,-275.391 587.512,-275 697.503,-258.613 826.196,-244.584 901.778,-236.866"/>
<polygon fill="midnightblue" stroke="midnightblue" points="902.488,-240.312 912.083,-235.819 901.78,-233.348 902.488,-240.312"/>
</g>
<!-- Node24&#45;&gt;Node3 -->
<g id="edge41" class="edge"><title>Node24&#45;&gt;Node3</title>
<path fill="none" stroke="midnightblue" d="M949.806,-220.45C931.957,-211.851 903.428,-198.105 882.612,-188.075"/>
<polygon fill="midnightblue" stroke="midnightblue" points="883.904,-184.813 873.376,-183.625 880.866,-191.119 883.904,-184.813"/>
</g>
<!-- Node24&#45;&gt;Node10 -->
<g id="edge42" class="edge"><title>Node24&#45;&gt;Node10</title>
<path fill="none" stroke="midnightblue" d="M970.077,-220.467C978.742,-199.576 998.31,-142.881 971.512,-110 953.381,-87.7525 882.408,-76.3008 826.702,-70.6303"/>
<polygon fill="midnightblue" stroke="midnightblue" points="826.786,-67.1221 816.495,-69.6375 826.109,-74.0892 826.786,-67.1221"/>
</g>
<!-- Node25 -->
<g id="node25" class="node"><title>Node25</title>
<polygon fill="white" stroke="#bfbfbf" points="1023.45,-165.5 1023.45,-183.5 1075.58,-183.5 1075.58,-165.5 1023.45,-165.5"/>
<text text-anchor="middle" x="1049.51" y="-171.5" font-family="Helvetica,sans-Serif" font-size="10.00">stdarg.h</text>
</g>
<!-- Node24&#45;&gt;Node25 -->
<g id="edge40" class="edge"><title>Node24&#45;&gt;Node25</title>
<path fill="none" stroke="midnightblue" d="M979.118,-220.45C992.159,-212.123 1012.76,-198.97 1028.31,-189.039"/>
<polygon fill="midnightblue" stroke="midnightblue" points="1030.24,-191.957 1036.79,-183.625 1026.48,-186.057 1030.24,-191.957"/>
</g>
<!-- Node24&#45;&gt;Node26 -->
<g id="edge43" class="edge"><title>Node24&#45;&gt;Node26</title>
<path fill="none" stroke="midnightblue" d="M1001.6,-220.45C1044.01,-210.719 1115.15,-194.397 1159.03,-184.328"/>
<polygon fill="midnightblue" stroke="midnightblue" points="1160.07,-187.682 1169.03,-182.034 1158.5,-180.859 1160.07,-187.682"/>
</g>
<!-- Node26&#45;&gt;Node10 -->
<g id="edge44" class="edge"><title>Node26&#45;&gt;Node10</title>
<path fill="none" stroke="midnightblue" d="M1194.68,-165.182C1189.43,-151.13 1176.71,-122.959 1155.51,-110 1101.91,-77.2368 926.243,-68.5447 826.447,-66.2727"/>
<polygon fill="midnightblue" stroke="midnightblue" points="826.514,-62.7735 816.442,-66.0607 826.365,-69.7719 826.514,-62.7735"/>
</g>
<!-- Node26&#45;&gt;Node27 -->
<g id="edge45" class="edge"><title>Node26&#45;&gt;Node27</title>
<path fill="none" stroke="midnightblue" d="M1215.74,-165.45C1235.47,-156.734 1267.18,-142.731 1289.96,-132.669"/>
<polygon fill="midnightblue" stroke="midnightblue" points="1291.38,-135.867 1299.12,-128.625 1288.55,-129.464 1291.38,-135.867"/>
</g>
<!-- Node27&#45;&gt;Node8 -->
<g id="edge47" class="edge"><title>Node27&#45;&gt;Node8</title>
<path fill="none" stroke="midnightblue" d="M1327.99,-110.45C1338.53,-102.357 1355,-89.7042 1367.79,-79.8822"/>
<polygon fill="midnightblue" stroke="midnightblue" points="1370.14,-82.4926 1375.93,-73.6253 1365.87,-76.9412 1370.14,-82.4926"/>
</g>
<!-- Node27&#45;&gt;Node10 -->
<g id="edge46" class="edge"><title>Node27&#45;&gt;Node10</title>
<path fill="none" stroke="midnightblue" d="M1294.76,-112.593C1290.39,-111.61 1285.82,-110.688 1281.51,-110 1120.08,-84.2574 928.242,-72.7839 826.744,-68.1927"/>
<polygon fill="midnightblue" stroke="midnightblue" points="826.756,-64.6899 816.611,-67.7437 826.446,-71.683 826.756,-64.6899"/>
</g>
<!-- Node27&#45;&gt;Node11 -->
<g id="edge48" class="edge"><title>Node27&#45;&gt;Node11</title>
<path fill="none" stroke="midnightblue" d="M1295.02,-111.58C1235.32,-93.2091 1072.52,-43.1168 1000.99,-21.1096"/>
<polygon fill="midnightblue" stroke="midnightblue" points="1001.71,-17.6692 991.126,-18.0735 999.655,-24.3597 1001.71,-17.6692"/>
</g>
<!-- Node28&#45;&gt;Node4 -->
<g id="edge51" class="edge"><title>Node28&#45;&gt;Node4</title>
<path fill="none" stroke="midnightblue" d="M267.539,-166.895C318.032,-156.796 413.945,-137.613 465.198,-127.363"/>
<polygon fill="midnightblue" stroke="midnightblue" points="466.007,-130.771 475.126,-125.377 464.634,-123.906 466.007,-130.771"/>
</g>
<!-- Node28&#45;&gt;Node10 -->
<g id="edge52" class="edge"><title>Node28&#45;&gt;Node10</title>
<path fill="none" stroke="midnightblue" d="M237.945,-165.121C244.234,-150.976 259.054,-122.669 281.512,-110 348.597,-72.1564 569.234,-65.8291 684.286,-65.1866"/>
<polygon fill="midnightblue" stroke="midnightblue" points="684.423,-68.6862 694.408,-65.1433 684.393,-61.6863 684.423,-68.6862"/>
</g>
<!-- Node29&#45;&gt;Node3 -->
<g id="edge61" class="edge"><title>Node29&#45;&gt;Node3</title>
<path fill="none" stroke="midnightblue" d="M763.219,-220.45C781.067,-211.851 809.597,-198.105 830.412,-188.075"/>
<polygon fill="midnightblue" stroke="midnightblue" points="832.159,-191.119 839.648,-183.625 829.12,-184.813 832.159,-191.119"/>
</g>
<!-- Node29&#45;&gt;Node4 -->
<g id="edge60" class="edge"><title>Node29&#45;&gt;Node4</title>
<path fill="none" stroke="midnightblue" d="M742.776,-220.415C736.006,-206.715 720.361,-179.059 698.512,-165 647.601,-132.241 575.909,-123.391 533.917,-121.125"/>
<polygon fill="midnightblue" stroke="midnightblue" points="534.057,-117.628 523.911,-120.681 533.746,-124.621 534.057,-117.628"/>
</g>
<!-- Node29&#45;&gt;Node10 -->
<g id="edge63" class="edge"><title>Node29&#45;&gt;Node10</title>
<path fill="none" stroke="midnightblue" d="M746.971,-220.193C748.361,-195.013 752.552,-119.114 754.498,-83.8621"/>
<polygon fill="midnightblue" stroke="midnightblue" points="758.008,-83.7749 755.065,-73.5971 751.019,-83.3889 758.008,-83.7749"/>
</g>
<!-- Node29&#45;&gt;Node13 -->
<g id="edge62" class="edge"><title>Node29&#45;&gt;Node13</title>
<path fill="none" stroke="midnightblue" d="M730.261,-220.45C712.9,-211.851 685.148,-198.105 664.9,-188.075"/>
<polygon fill="midnightblue" stroke="midnightblue" points="666.431,-184.928 655.916,-183.625 663.324,-191.2 666.431,-184.928"/>
</g>
<!-- Node30&#45;&gt;Node10 -->
<g id="edge65" class="edge"><title>Node30&#45;&gt;Node10</title>
<path fill="none" stroke="midnightblue" d="M1262.12,-330.309C1268.56,-294.875 1288.44,-154.562 1209.51,-110 1145.81,-74.0366 937.636,-66.8043 826.666,-65.5646"/>
<polygon fill="midnightblue" stroke="midnightblue" points="826.599,-62.0639 816.565,-65.4653 826.53,-69.0635 826.599,-62.0639"/>
</g>
<!-- Node31&#45;&gt;Node10 -->
<g id="edge68" class="edge"><title>Node31&#45;&gt;Node10</title>
<path fill="none" stroke="midnightblue" d="M1066.94,-220.318C1087.32,-199.553 1135.5,-144.045 1105.51,-110 1087.4,-89.441 923.645,-75.8829 826.672,-69.5821"/>
<polygon fill="midnightblue" stroke="midnightblue" points="826.84,-66.0857 816.637,-68.9404 826.394,-73.0715 826.84,-66.0857"/>
</g>
<!-- Node31&#45;&gt;Node25 -->
<g id="edge67" class="edge"><title>Node31&#45;&gt;Node25</title>
<path fill="none" stroke="midnightblue" d="M1057.11,-220.219C1055.9,-213.099 1054.11,-202.577 1052.57,-193.529"/>
<polygon fill="midnightblue" stroke="midnightblue" points="1056,-192.822 1050.88,-183.55 1049.1,-193.994 1056,-192.822"/>
</g>
<!-- Node32&#45;&gt;Node2 -->
<g id="edge75" class="edge"><title>Node32&#45;&gt;Node2</title>
<path fill="none" stroke="midnightblue" d="M1244.57,-513.625C1236.41,-521.826 1221.02,-534.649 1207.73,-544.492"/>
<polygon fill="midnightblue" stroke="midnightblue" points="1205.49,-541.786 1199.39,-550.45 1209.56,-547.48 1205.49,-541.786"/>
</g>
<!-- Node32&#45;&gt;Node8 -->
<g id="edge74" class="edge"><title>Node32&#45;&gt;Node8</title>
<path fill="none" stroke="midnightblue" d="M1301.71,-495.439C1328.05,-489.168 1359.08,-478.164 1381.51,-459 1426.71,-420.393 1443.51,-399.94 1443.51,-340.5 1443.51,-340.5 1443.51,-340.5 1443.51,-173.5 1443.51,-137.302 1418.16,-101.349 1401.27,-81.4152"/>
<polygon fill="midnightblue" stroke="midnightblue" points="1403.68,-78.8536 1394.44,-73.669 1398.43,-83.4839 1403.68,-78.8536"/>
</g>
<!-- Node32&#45;&gt;Node9 -->
<g id="edge76" class="edge"><title>Node32&#45;&gt;Node9</title>
<path fill="none" stroke="midnightblue" d="M1193.85,-496.199C1190.69,-495.792 1187.56,-495.39 1184.51,-495 1081.61,-481.84 961.909,-466.967 890.83,-458.181"/>
<polygon fill="midnightblue" stroke="midnightblue" points="891.058,-454.683 880.704,-456.93 890.199,-461.63 891.058,-454.683"/>
</g>
</g>
</svg>
