<?xml version="1.0" encoding="UTF-8" standalone="no"?>
<!DOCTYPE svg PUBLIC "-//W3C//DTD SVG 1.1//EN"
 "http://www.w3.org/Graphics/SVG/1.1/DTD/svg11.dtd">
<!-- Generated by graphviz version 2.38.0 (20140413.2041)
 -->
<!-- Title: libraries/AP_Terrain/AP_Terrain.h Pages: 1 -->
<svg width="2800pt" height="382pt"
 viewBox="0.00 0.00 2800.18 382.00" xmlns="http://www.w3.org/2000/svg" xmlns:xlink="http://www.w3.org/1999/xlink">
<g id="graph0" class="graph" transform="scale(1 1) rotate(0) translate(4 378)">
<title>libraries/AP_Terrain/AP_Terrain.h</title>
<polygon fill="white" stroke="none" points="-4,4 -4,-378 2796.18,-378 2796.18,4 -4,4"/>
<!-- Node1 -->
<g id="node1" class="node"><title>Node1</title>
<polygon fill="#bfbfbf" stroke="black" points="1734.84,-345.5 1734.84,-373.5 1838.1,-373.5 1838.1,-345.5 1734.84,-345.5"/>
<text text-anchor="start" x="1742.84" y="-361.5" font-family="Helvetica,sans-Serif" font-size="10.00">libraries/AP_Terrain</text>
<text text-anchor="middle" x="1786.47" y="-351.5" font-family="Helvetica,sans-Serif" font-size="10.00">/AP_Terrain.h</text>
</g>
<!-- Node2 -->
<g id="node2" class="node"><title>Node2</title>
<g id="a_node2"><a xlink:href="$GPS__AUTO__test_8cpp.html" xlink:title="libraries/AP_GPS/examples\l/GPS_AUTO_test/GPS_AUTO\l_test.cpp">
<polygon fill="white" stroke="black" points="618.572,-265.5 618.572,-303.5 770.373,-303.5 770.373,-265.5 618.572,-265.5"/>
<text text-anchor="start" x="626.572" y="-291.5" font-family="Helvetica,sans-Serif" font-size="10.00">libraries/AP_GPS/examples</text>
<text text-anchor="start" x="626.572" y="-281.5" font-family="Helvetica,sans-Serif" font-size="10.00">/GPS_AUTO_test/GPS_AUTO</text>
<text text-anchor="middle" x="694.473" y="-271.5" font-family="Helvetica,sans-Serif" font-size="10.00">_test.cpp</text>
</a>
</g>
</g>
<!-- Node1&#45;&gt;Node2 -->
<g id="edge1" class="edge"><title>Node1&#45;&gt;Node2</title>
<path fill="none" stroke="midnightblue" d="M1724.61,-357.246C1534.88,-353.119 962.956,-338.502 779.473,-309 770.856,-307.615 761.863,-305.681 753.088,-303.512"/>
<polygon fill="midnightblue" stroke="midnightblue" points="1724.62,-360.747 1734.69,-357.463 1724.77,-353.749 1724.62,-360.747"/>
</g>
<!-- Node3 -->
<g id="node3" class="node"><title>Node3</title>
<g id="a_node3"><a xlink:href="$GPS__UBLOX__passthrough_8cpp.html" xlink:title="libraries/AP_GPS/examples\l/GPS_UBLOX_passthrough\l/GPS_UBLOX_passthrough.cpp">
<polygon fill="white" stroke="black" points="788.042,-265.5 788.042,-303.5 946.903,-303.5 946.903,-265.5 788.042,-265.5"/>
<text text-anchor="start" x="796.042" y="-291.5" font-family="Helvetica,sans-Serif" font-size="10.00">libraries/AP_GPS/examples</text>
<text text-anchor="start" x="796.042" y="-281.5" font-family="Helvetica,sans-Serif" font-size="10.00">/GPS_UBLOX_passthrough</text>
<text text-anchor="middle" x="867.473" y="-271.5" font-family="Helvetica,sans-Serif" font-size="10.00">/GPS_UBLOX_passthrough.cpp</text>
</a>
</g>
</g>
<!-- Node1&#45;&gt;Node3 -->
<g id="edge2" class="edge"><title>Node1&#45;&gt;Node3</title>
<path fill="none" stroke="midnightblue" d="M1724.6,-358.988C1586.08,-359.171 1240.84,-354.559 956.473,-309 947.636,-307.584 938.407,-305.663 929.379,-303.526"/>
<polygon fill="midnightblue" stroke="midnightblue" points="1724.61,-362.488 1734.61,-358.966 1724.6,-355.488 1724.61,-362.488"/>
</g>
<!-- Node4 -->
<g id="node4" class="node"><title>Node4</title>
<g id="a_node4"><a xlink:href="$AP__Baro__BMP085__test_8cpp.html" xlink:title="libraries/AP_HAL_FLYMAPLE\l/examples/AP_Baro_BMP085\l_test/AP_Baro_BMP085_test.cpp">
<polygon fill="white" stroke="black" points="964.983,-265.5 964.983,-303.5 1129.96,-303.5 1129.96,-265.5 964.983,-265.5"/>
<text text-anchor="start" x="972.983" y="-291.5" font-family="Helvetica,sans-Serif" font-size="10.00">libraries/AP_HAL_FLYMAPLE</text>
<text text-anchor="start" x="972.983" y="-281.5" font-family="Helvetica,sans-Serif" font-size="10.00">/examples/AP_Baro_BMP085</text>
<text text-anchor="middle" x="1047.47" y="-271.5" font-family="Helvetica,sans-Serif" font-size="10.00">_test/AP_Baro_BMP085_test.cpp</text>
</a>
</g>
</g>
<!-- Node1&#45;&gt;Node4 -->
<g id="edge3" class="edge"><title>Node1&#45;&gt;Node4</title>
<path fill="none" stroke="midnightblue" d="M1724.44,-357.331C1608.7,-354.361 1352.31,-344.051 1139.47,-309 1130.61,-307.54 1121.35,-305.637 1112.26,-303.545"/>
<polygon fill="midnightblue" stroke="midnightblue" points="1724.45,-360.833 1734.53,-357.581 1724.62,-353.835 1724.45,-360.833"/>
</g>
<!-- Node5 -->
<g id="node5" class="node"><title>Node5</title>
<g id="a_node5"><a xlink:href="$SITL__State_8h.html" xlink:title="libraries/AP_HAL_SITL\l/SITL_State.h">
<polygon fill="white" stroke="black" points="1148.06,-270.5 1148.06,-298.5 1266.88,-298.5 1266.88,-270.5 1148.06,-270.5"/>
<text text-anchor="start" x="1156.06" y="-286.5" font-family="Helvetica,sans-Serif" font-size="10.00">libraries/AP_HAL_SITL</text>
<text text-anchor="middle" x="1207.47" y="-276.5" font-family="Helvetica,sans-Serif" font-size="10.00">/SITL_State.h</text>
</a>
</g>
</g>
<!-- Node1&#45;&gt;Node5 -->
<g id="edge4" class="edge"><title>Node1&#45;&gt;Node5</title>
<path fill="none" stroke="midnightblue" d="M1724.52,-357.2C1627.65,-354.118 1434.91,-343.759 1275.47,-309 1263.76,-306.446 1251.27,-302.503 1240.23,-298.571"/>
<polygon fill="midnightblue" stroke="midnightblue" points="1724.62,-360.704 1734.72,-357.509 1724.83,-353.708 1724.62,-360.704"/>
</g>
<!-- Node24 -->
<g id="node24" class="node"><title>Node24</title>
<g id="a_node24"><a xlink:href="$VibTest_8cpp.html" xlink:title="libraries/AP_InertialSensor\l/examples/VibTest/VibTest.cpp">
<polygon fill="white" stroke="black" points="1284.84,-270.5 1284.84,-298.5 1436.11,-298.5 1436.11,-270.5 1284.84,-270.5"/>
<text text-anchor="start" x="1292.84" y="-286.5" font-family="Helvetica,sans-Serif" font-size="10.00">libraries/AP_InertialSensor</text>
<text text-anchor="middle" x="1360.47" y="-276.5" font-family="Helvetica,sans-Serif" font-size="10.00">/examples/VibTest/VibTest.cpp</text>
</a>
</g>
</g>
<!-- Node1&#45;&gt;Node24 -->
<g id="edge36" class="edge"><title>Node1&#45;&gt;Node24</title>
<path fill="none" stroke="midnightblue" d="M1724.5,-351.875C1655.85,-343.987 1542.09,-329.285 1445.47,-309 1431.69,-306.106 1416.83,-302.257 1403.46,-298.513"/>
<polygon fill="midnightblue" stroke="midnightblue" points="1724.37,-355.383 1734.7,-353.035 1725.16,-348.428 1724.37,-355.383"/>
</g>
<!-- Node25 -->
<g id="node25" class="node"><title>Node25</title>
<g id="a_node25"><a xlink:href="$AP__Mission_8cpp.html" xlink:title="Handles the MAVLINK command mission stack. Reads and writes mission to storage. ">
<polygon fill="white" stroke="black" points="1454.18,-270.5 1454.18,-298.5 1560.77,-298.5 1560.77,-270.5 1454.18,-270.5"/>
<text text-anchor="start" x="1462.18" y="-286.5" font-family="Helvetica,sans-Serif" font-size="10.00">libraries/AP_Mission</text>
<text text-anchor="middle" x="1507.47" y="-276.5" font-family="Helvetica,sans-Serif" font-size="10.00">/AP_Mission.cpp</text>
</a>
</g>
</g>
<!-- Node1&#45;&gt;Node25 -->
<g id="edge37" class="edge"><title>Node1&#45;&gt;Node25</title>
<path fill="none" stroke="midnightblue" d="M1724.61,-346.583C1681.11,-337.655 1621.76,-324.368 1570.47,-309 1560.41,-305.984 1549.63,-302.184 1539.89,-298.524"/>
<polygon fill="midnightblue" stroke="midnightblue" points="1723.98,-350.026 1734.47,-348.588 1725.37,-343.166 1723.98,-350.026"/>
</g>
<!-- Node26 -->
<g id="node26" class="node"><title>Node26</title>
<g id="a_node26"><a xlink:href="$AP__Motors__test_8cpp.html" xlink:title="libraries/AP_Motors\l/examples/AP_Motors\l_test/AP_Motors_test.cpp">
<polygon fill="white" stroke="black" points="1579.22,-265.5 1579.22,-303.5 1709.72,-303.5 1709.72,-265.5 1579.22,-265.5"/>
<text text-anchor="start" x="1587.22" y="-291.5" font-family="Helvetica,sans-Serif" font-size="10.00">libraries/AP_Motors</text>
<text text-anchor="start" x="1587.22" y="-281.5" font-family="Helvetica,sans-Serif" font-size="10.00">/examples/AP_Motors</text>
<text text-anchor="middle" x="1644.47" y="-271.5" font-family="Helvetica,sans-Serif" font-size="10.00">_test/AP_Motors_test.cpp</text>
</a>
</g>
</g>
<!-- Node1&#45;&gt;Node26 -->
<g id="edge38" class="edge"><title>Node1&#45;&gt;Node26</title>
<path fill="none" stroke="midnightblue" d="M1752.09,-340.824C1730.09,-329.515 1701.63,-314.885 1679.51,-303.511"/>
<polygon fill="midnightblue" stroke="midnightblue" points="1750.59,-343.99 1761.09,-345.449 1753.79,-337.764 1750.59,-343.99"/>
</g>
<!-- Node27 -->
<g id="node27" class="node"><title>Node27</title>
<g id="a_node27"><a xlink:href="$AP__Motors__Time__test_8cpp.html" xlink:title="libraries/AP_Motors\l/examples/AP_Motors\l_Time_test/AP_Motors\l_Time_test.cpp">
<polygon fill="white" stroke="black" points="1727.8,-260.5 1727.8,-308.5 1845.14,-308.5 1845.14,-260.5 1727.8,-260.5"/>
<text text-anchor="start" x="1735.8" y="-296.5" font-family="Helvetica,sans-Serif" font-size="10.00">libraries/AP_Motors</text>
<text text-anchor="start" x="1735.8" y="-286.5" font-family="Helvetica,sans-Serif" font-size="10.00">/examples/AP_Motors</text>
<text text-anchor="start" x="1735.8" y="-276.5" font-family="Helvetica,sans-Serif" font-size="10.00">_Time_test/AP_Motors</text>
<text text-anchor="middle" x="1786.47" y="-266.5" font-family="Helvetica,sans-Serif" font-size="10.00">_Time_test.cpp</text>
</a>
</g>
</g>
<!-- Node1&#45;&gt;Node27 -->
<g id="edge39" class="edge"><title>Node1&#45;&gt;Node27</title>
<path fill="none" stroke="midnightblue" d="M1786.47,-335.446C1786.47,-326.937 1786.47,-317.295 1786.47,-308.767"/>
<polygon fill="midnightblue" stroke="midnightblue" points="1782.97,-335.449 1786.47,-345.449 1789.97,-335.449 1782.97,-335.449"/>
</g>
<!-- Node28 -->
<g id="node28" class="node"><title>Node28</title>
<g id="a_node28"><a xlink:href="$trivial__AP__Mount_8cpp.html" xlink:title="libraries/AP_Mount\l/examples/trivial_AP\l_Mount/trivial_AP_Mount.cpp">
<polygon fill="white" stroke="black" points="1863.16,-265.5 1863.16,-303.5 2009.79,-303.5 2009.79,-265.5 1863.16,-265.5"/>
<text text-anchor="start" x="1871.16" y="-291.5" font-family="Helvetica,sans-Serif" font-size="10.00">libraries/AP_Mount</text>
<text text-anchor="start" x="1871.16" y="-281.5" font-family="Helvetica,sans-Serif" font-size="10.00">/examples/trivial_AP</text>
<text text-anchor="middle" x="1936.47" y="-271.5" font-family="Helvetica,sans-Serif" font-size="10.00">_Mount/trivial_AP_Mount.cpp</text>
</a>
</g>
</g>
<!-- Node1&#45;&gt;Node28 -->
<g id="edge40" class="edge"><title>Node1&#45;&gt;Node28</title>
<path fill="none" stroke="midnightblue" d="M1822.48,-340.976C1845.76,-329.645 1875.99,-314.936 1899.46,-303.511"/>
<polygon fill="midnightblue" stroke="midnightblue" points="1820.75,-337.926 1813.29,-345.449 1823.81,-344.22 1820.75,-337.926"/>
</g>
<!-- Node29 -->
<g id="node29" class="node"><title>Node29</title>
<g id="a_node29"><a xlink:href="$AP__Terrain_8cpp.html" xlink:title="libraries/AP_Terrain\l/AP_Terrain.cpp">
<polygon fill="white" stroke="black" points="2027.84,-270.5 2027.84,-298.5 2131.1,-298.5 2131.1,-270.5 2027.84,-270.5"/>
<text text-anchor="start" x="2035.84" y="-286.5" font-family="Helvetica,sans-Serif" font-size="10.00">libraries/AP_Terrain</text>
<text text-anchor="middle" x="2079.47" y="-276.5" font-family="Helvetica,sans-Serif" font-size="10.00">/AP_Terrain.cpp</text>
</a>
</g>
</g>
<!-- Node1&#45;&gt;Node29 -->
<g id="edge41" class="edge"><title>Node1&#45;&gt;Node29</title>
<path fill="none" stroke="midnightblue" d="M1848.25,-348.06C1895.38,-339.438 1961.65,-325.893 2018.47,-309 2028.37,-306.057 2038.94,-302.237 2048.45,-298.535"/>
<polygon fill="midnightblue" stroke="midnightblue" points="1847.42,-344.654 1838.2,-349.877 1848.66,-351.542 1847.42,-344.654"/>
</g>
<!-- Node30 -->
<g id="node30" class="node"><title>Node30</title>
<g id="a_node30"><a xlink:href="$TerrainGCS_8cpp.html" xlink:title="libraries/AP_Terrain\l/TerrainGCS.cpp">
<polygon fill="white" stroke="black" points="2148.84,-270.5 2148.84,-298.5 2252.1,-298.5 2252.1,-270.5 2148.84,-270.5"/>
<text text-anchor="start" x="2156.84" y="-286.5" font-family="Helvetica,sans-Serif" font-size="10.00">libraries/AP_Terrain</text>
<text text-anchor="middle" x="2200.47" y="-276.5" font-family="Helvetica,sans-Serif" font-size="10.00">/TerrainGCS.cpp</text>
</a>
</g>
</g>
<!-- Node1&#45;&gt;Node30 -->
<g id="edge42" class="edge"><title>Node1&#45;&gt;Node30</title>
<path fill="none" stroke="midnightblue" d="M1848.38,-354.26C1919.73,-348.362 2040.06,-335.296 2140.47,-309 2150.65,-306.336 2161.44,-302.46 2171.02,-298.621"/>
<polygon fill="midnightblue" stroke="midnightblue" points="1847.9,-350.787 1838.22,-355.079 1848.47,-357.764 1847.9,-350.787"/>
</g>
<!-- Node31 -->
<g id="node31" class="node"><title>Node31</title>
<g id="a_node31"><a xlink:href="$TerrainIO_8cpp.html" xlink:title="libraries/AP_Terrain\l/TerrainIO.cpp">
<polygon fill="white" stroke="black" points="2269.84,-270.5 2269.84,-298.5 2373.1,-298.5 2373.1,-270.5 2269.84,-270.5"/>
<text text-anchor="start" x="2277.84" y="-286.5" font-family="Helvetica,sans-Serif" font-size="10.00">libraries/AP_Terrain</text>
<text text-anchor="middle" x="2321.47" y="-276.5" font-family="Helvetica,sans-Serif" font-size="10.00">/TerrainIO.cpp</text>
</a>
</g>
</g>
<!-- Node1&#45;&gt;Node31 -->
<g id="edge43" class="edge"><title>Node1&#45;&gt;Node31</title>
<path fill="none" stroke="midnightblue" d="M1848.41,-357.342C1939.95,-354.446 2116.22,-344.327 2261.47,-309 2271.91,-306.462 2282.95,-302.523 2292.69,-298.59"/>
<polygon fill="midnightblue" stroke="midnightblue" points="1848.1,-353.849 1838.21,-357.645 1848.31,-360.846 1848.1,-353.849"/>
</g>
<!-- Node32 -->
<g id="node32" class="node"><title>Node32</title>
<g id="a_node32"><a xlink:href="$TerrainMission_8cpp.html" xlink:title="libraries/AP_Terrain\l/TerrainMission.cpp">
<polygon fill="white" stroke="black" points="2390.84,-270.5 2390.84,-298.5 2494.1,-298.5 2494.1,-270.5 2390.84,-270.5"/>
<text text-anchor="start" x="2398.84" y="-286.5" font-family="Helvetica,sans-Serif" font-size="10.00">libraries/AP_Terrain</text>
<text text-anchor="middle" x="2442.47" y="-276.5" font-family="Helvetica,sans-Serif" font-size="10.00">/TerrainMission.cpp</text>
</a>
</g>
</g>
<!-- Node1&#45;&gt;Node32 -->
<g id="edge44" class="edge"><title>Node1&#45;&gt;Node32</title>
<path fill="none" stroke="midnightblue" d="M1848.46,-359.221C1957.79,-359.2 2191.41,-353.349 2382.47,-309 2393.04,-306.546 2404.22,-302.578 2414.02,-298.596"/>
<polygon fill="midnightblue" stroke="midnightblue" points="1848.28,-355.721 1838.27,-359.206 1848.27,-362.721 1848.28,-355.721"/>
</g>
<!-- Node33 -->
<g id="node33" class="node"><title>Node33</title>
<g id="a_node33"><a xlink:href="$TerrainUtil_8cpp.html" xlink:title="libraries/AP_Terrain\l/TerrainUtil.cpp">
<polygon fill="white" stroke="black" points="2511.84,-270.5 2511.84,-298.5 2615.1,-298.5 2615.1,-270.5 2511.84,-270.5"/>
<text text-anchor="start" x="2519.84" y="-286.5" font-family="Helvetica,sans-Serif" font-size="10.00">libraries/AP_Terrain</text>
<text text-anchor="middle" x="2563.47" y="-276.5" font-family="Helvetica,sans-Serif" font-size="10.00">/TerrainUtil.cpp</text>
</a>
</g>
</g>
<!-- Node1&#45;&gt;Node33 -->
<g id="edge45" class="edge"><title>Node1&#45;&gt;Node33</title>
<path fill="none" stroke="midnightblue" d="M1848.69,-356.63C1999.17,-351.716 2379.54,-336.86 2503.47,-309 2514.17,-306.596 2525.47,-302.588 2535.34,-298.557"/>
<polygon fill="midnightblue" stroke="midnightblue" points="1848.14,-353.146 1838.26,-356.966 1848.37,-360.142 1848.14,-353.146"/>
</g>
<!-- Node34 -->
<g id="node34" class="node"><title>Node34</title>
<g id="a_node34"><a xlink:href="$GCS__Console_2examples_2Console_2Console_8cpp.html" xlink:title="libraries/GCS_Console\l/examples/Console/Console.cpp">
<polygon fill="white" stroke="black" points="2632.77,-270.5 2632.77,-298.5 2792.18,-298.5 2792.18,-270.5 2632.77,-270.5"/>
<text text-anchor="start" x="2640.77" y="-286.5" font-family="Helvetica,sans-Serif" font-size="10.00">libraries/GCS_Console</text>
<text text-anchor="middle" x="2712.47" y="-276.5" font-family="Helvetica,sans-Serif" font-size="10.00">/examples/Console/Console.cpp</text>
</a>
</g>
</g>
<!-- Node1&#45;&gt;Node34 -->
<g id="edge46" class="edge"><title>Node1&#45;&gt;Node34</title>
<path fill="none" stroke="midnightblue" d="M1848.44,-359.097C1987.97,-359.516 2337.07,-355.374 2624.47,-309 2639.62,-306.557 2655.92,-302.591 2670.33,-298.607"/>
<polygon fill="midnightblue" stroke="midnightblue" points="1848.38,-355.597 1838.36,-359.058 1848.35,-362.597 1848.38,-355.597"/>
</g>
<!-- Node6 -->
<g id="node6" class="node"><title>Node6</title>
<g id="a_node6"><a xlink:href="$HAL__SITL__Class_8h.html" xlink:title="libraries/AP_HAL_SITL\l/HAL_SITL_Class.h">
<polygon fill="white" stroke="black" points="1148.06,-195.5 1148.06,-223.5 1266.88,-223.5 1266.88,-195.5 1148.06,-195.5"/>
<text text-anchor="start" x="1156.06" y="-211.5" font-family="Helvetica,sans-Serif" font-size="10.00">libraries/AP_HAL_SITL</text>
<text text-anchor="middle" x="1207.47" y="-201.5" font-family="Helvetica,sans-Serif" font-size="10.00">/HAL_SITL_Class.h</text>
</a>
</g>
</g>
<!-- Node5&#45;&gt;Node6 -->
<g id="edge5" class="edge"><title>Node5&#45;&gt;Node6</title>
<path fill="none" stroke="midnightblue" d="M1201.13,-260.245C1200.36,-248.265 1200.68,-234.082 1202.1,-223.932"/>
<polygon fill="midnightblue" stroke="midnightblue" points="1197.68,-260.848 1202.16,-270.449 1204.64,-260.15 1197.68,-260.848"/>
</g>
<!-- Node9 -->
<g id="node9" class="node"><title>Node9</title>
<g id="a_node9"><a xlink:href="$HAL__SITL__Class_8cpp.html" xlink:title="libraries/AP_HAL_SITL\l/HAL_SITL_Class.cpp">
<polygon fill="white" stroke="black" points="625.062,-0.5 625.062,-28.5 743.884,-28.5 743.884,-0.5 625.062,-0.5"/>
<text text-anchor="start" x="633.062" y="-16.5" font-family="Helvetica,sans-Serif" font-size="10.00">libraries/AP_HAL_SITL</text>
<text text-anchor="middle" x="684.473" y="-6.5" font-family="Helvetica,sans-Serif" font-size="10.00">/HAL_SITL_Class.cpp</text>
</a>
</g>
</g>
<!-- Node5&#45;&gt;Node9 -->
<g id="edge33" class="edge"><title>Node5&#45;&gt;Node9</title>
<path fill="none" stroke="midnightblue" d="M1163.6,-267.222C1155.33,-264.536 1146.7,-261.986 1138.47,-260 891.33,-200.323 172.699,-286.38 6.47275,-94 -1.95401,-84.2474 -2.30299,-74.4398 6.47275,-65 48.1334,-20.1869 467.199,-15.4946 624.892,-15.3289"/>
<polygon fill="midnightblue" stroke="midnightblue" points="1162.5,-270.544 1173.09,-270.411 1164.72,-263.908 1162.5,-270.544"/>
</g>
<!-- Node19 -->
<g id="node19" class="node"><title>Node19</title>
<g id="a_node19"><a xlink:href="$sitl__ins_8cpp.html" xlink:title="libraries/AP_HAL_SITL\l/sitl_ins.cpp">
<polygon fill="white" stroke="black" points="1459.06,-65.5 1459.06,-93.5 1577.88,-93.5 1577.88,-65.5 1459.06,-65.5"/>
<text text-anchor="start" x="1467.06" y="-81.5" font-family="Helvetica,sans-Serif" font-size="10.00">libraries/AP_HAL_SITL</text>
<text text-anchor="middle" x="1518.47" y="-71.5" font-family="Helvetica,sans-Serif" font-size="10.00">/sitl_ins.cpp</text>
</a>
</g>
</g>
<!-- Node5&#45;&gt;Node19 -->
<g id="edge34" class="edge"><title>Node5&#45;&gt;Node19</title>
<path fill="none" stroke="midnightblue" d="M1252.27,-266.787C1319.48,-241.052 1442.23,-191.319 1476.47,-159 1496.14,-140.434 1508.55,-110.568 1514.43,-93.5274"/>
<polygon fill="midnightblue" stroke="midnightblue" points="1250.87,-263.574 1242.77,-270.405 1253.36,-270.116 1250.87,-263.574"/>
</g>
<!-- Node22 -->
<g id="node22" class="node"><title>Node22</title>
<g id="a_node22"><a xlink:href="$AP__HAL__SITL__Private_8h.html" xlink:title="libraries/AP_HAL_SITL\l/AP_HAL_SITL_Private.h">
<polygon fill="white" stroke="black" points="1535.05,-195.5 1535.05,-223.5 1663.89,-223.5 1663.89,-195.5 1535.05,-195.5"/>
<text text-anchor="start" x="1543.05" y="-211.5" font-family="Helvetica,sans-Serif" font-size="10.00">libraries/AP_HAL_SITL</text>
<text text-anchor="middle" x="1599.47" y="-201.5" font-family="Helvetica,sans-Serif" font-size="10.00">/AP_HAL_SITL_Private.h</text>
</a>
</g>
</g>
<!-- Node5&#45;&gt;Node22 -->
<g id="edge32" class="edge"><title>Node5&#45;&gt;Node22</title>
<path fill="none" stroke="midnightblue" d="M1250.97,-267.12C1259.03,-264.468 1267.45,-261.955 1275.47,-260 1382.83,-233.839 1412.36,-241.424 1521.47,-224 1525.82,-223.307 1530.29,-222.576 1534.8,-221.827"/>
<polygon fill="midnightblue" stroke="midnightblue" points="1249.68,-263.859 1241.34,-270.396 1251.94,-270.486 1249.68,-263.859"/>
</g>
<!-- Node23 -->
<g id="node23" class="node"><title>Node23</title>
<g id="a_node23"><a xlink:href="$SITL_2UARTDriver_8cpp.html" xlink:title="libraries/AP_HAL_SITL\l/UARTDriver.cpp">
<polygon fill="white" stroke="black" points="1682.06,-195.5 1682.06,-223.5 1800.88,-223.5 1800.88,-195.5 1682.06,-195.5"/>
<text text-anchor="start" x="1690.06" y="-211.5" font-family="Helvetica,sans-Serif" font-size="10.00">libraries/AP_HAL_SITL</text>
<text text-anchor="middle" x="1741.47" y="-201.5" font-family="Helvetica,sans-Serif" font-size="10.00">/UARTDriver.cpp</text>
</a>
</g>
</g>
<!-- Node5&#45;&gt;Node23 -->
<g id="edge35" class="edge"><title>Node5&#45;&gt;Node23</title>
<path fill="none" stroke="midnightblue" d="M1249.83,-267.099C1258.22,-264.351 1267.05,-261.81 1275.47,-260 1448.69,-222.793 1497.08,-249.042 1672.47,-224 1675.49,-223.569 1678.58,-223.093 1681.7,-222.585"/>
<polygon fill="midnightblue" stroke="midnightblue" points="1248.55,-263.838 1240.22,-270.387 1250.81,-270.461 1248.55,-263.838"/>
</g>
<!-- Node6&#45;&gt;Node5 -->
<g id="edge25" class="edge"><title>Node6&#45;&gt;Node5</title>
<path fill="none" stroke="midnightblue" d="M1213.84,-234.208C1214.59,-246.243 1214.24,-260.401 1212.79,-270.449"/>
<polygon fill="midnightblue" stroke="midnightblue" points="1217.29,-233.547 1212.84,-223.932 1210.33,-234.223 1217.29,-233.547"/>
</g>
<!-- Node7 -->
<g id="node7" class="node"><title>Node7</title>
<g id="a_node7"><a xlink:href="$AP__HAL__SITL_8h.html" xlink:title="libraries/AP_HAL_SITL\l/AP_HAL_SITL.h">
<polygon fill="white" stroke="black" points="874.062,-130.5 874.062,-158.5 992.884,-158.5 992.884,-130.5 874.062,-130.5"/>
<text text-anchor="start" x="882.062" y="-146.5" font-family="Helvetica,sans-Serif" font-size="10.00">libraries/AP_HAL_SITL</text>
<text text-anchor="middle" x="933.473" y="-136.5" font-family="Helvetica,sans-Serif" font-size="10.00">/AP_HAL_SITL.h</text>
</a>
</g>
</g>
<!-- Node6&#45;&gt;Node7 -->
<g id="edge6" class="edge"><title>Node6&#45;&gt;Node7</title>
<path fill="none" stroke="midnightblue" d="M1137.88,-193.835C1090.16,-183.167 1027.97,-168.85 984.728,-158.572"/>
<polygon fill="midnightblue" stroke="midnightblue" points="1137.31,-197.294 1147.84,-196.053 1138.84,-190.461 1137.31,-197.294"/>
</g>
<!-- Node6&#45;&gt;Node9 -->
<g id="edge26" class="edge"><title>Node6&#45;&gt;Node9</title>
<path fill="none" stroke="midnightblue" d="M1266.97,-192.534C1344.94,-168.919 1465.82,-121.344 1412.47,-65 1362.05,-11.7514 826.242,-38.062 753.473,-29 750.445,-28.6229 747.35,-28.1907 744.23,-27.7178"/>
<polygon fill="midnightblue" stroke="midnightblue" points="1265.81,-189.228 1257.22,-195.432 1267.81,-195.938 1265.81,-189.228"/>
</g>
<!-- Node16 -->
<g id="node16" class="node"><title>Node16</title>
<g id="a_node16"><a xlink:href="$SITL__cmdline_8cpp.html" xlink:title="libraries/AP_HAL_SITL\l/SITL_cmdline.cpp">
<polygon fill="white" stroke="black" points="874.062,-65.5 874.062,-93.5 992.884,-93.5 992.884,-65.5 874.062,-65.5"/>
<text text-anchor="start" x="882.062" y="-81.5" font-family="Helvetica,sans-Serif" font-size="10.00">libraries/AP_HAL_SITL</text>
<text text-anchor="middle" x="933.473" y="-71.5" font-family="Helvetica,sans-Serif" font-size="10.00">/SITL_cmdline.cpp</text>
</a>
</g>
</g>
<!-- Node6&#45;&gt;Node16 -->
<g id="edge27" class="edge"><title>Node6&#45;&gt;Node16</title>
<path fill="none" stroke="midnightblue" d="M1170.3,-191.136C1114.79,-165.202 1011.43,-116.919 961.673,-93.6739"/>
<polygon fill="midnightblue" stroke="midnightblue" points="1168.9,-194.342 1179.44,-195.403 1171.86,-188 1168.9,-194.342"/>
</g>
<!-- Node17 -->
<g id="node17" class="node"><title>Node17</title>
<g id="a_node17"><a xlink:href="$sitl__compass_8cpp.html" xlink:title="libraries/AP_HAL_SITL\l/sitl_compass.cpp">
<polygon fill="white" stroke="black" points="1011.06,-65.5 1011.06,-93.5 1129.88,-93.5 1129.88,-65.5 1011.06,-65.5"/>
<text text-anchor="start" x="1019.06" y="-81.5" font-family="Helvetica,sans-Serif" font-size="10.00">libraries/AP_HAL_SITL</text>
<text text-anchor="middle" x="1070.47" y="-71.5" font-family="Helvetica,sans-Serif" font-size="10.00">/sitl_compass.cpp</text>
</a>
</g>
</g>
<!-- Node6&#45;&gt;Node17 -->
<g id="edge28" class="edge"><title>Node6&#45;&gt;Node17</title>
<path fill="none" stroke="midnightblue" d="M1185.94,-188.38C1157.67,-161.971 1108.83,-116.338 1084.75,-93.836"/>
<polygon fill="midnightblue" stroke="midnightblue" points="1183.63,-191.014 1193.33,-195.284 1188.41,-185.899 1183.63,-191.014"/>
</g>
<!-- Node18 -->
<g id="node18" class="node"><title>Node18</title>
<g id="a_node18"><a xlink:href="$sitl__gps_8cpp.html" xlink:title="libraries/AP_HAL_SITL\l/sitl_gps.cpp">
<polygon fill="white" stroke="black" points="1148.06,-65.5 1148.06,-93.5 1266.88,-93.5 1266.88,-65.5 1148.06,-65.5"/>
<text text-anchor="start" x="1156.06" y="-81.5" font-family="Helvetica,sans-Serif" font-size="10.00">libraries/AP_HAL_SITL</text>
<text text-anchor="middle" x="1207.47" y="-71.5" font-family="Helvetica,sans-Serif" font-size="10.00">/sitl_gps.cpp</text>
</a>
</g>
</g>
<!-- Node6&#45;&gt;Node18 -->
<g id="edge29" class="edge"><title>Node6&#45;&gt;Node18</title>
<path fill="none" stroke="midnightblue" d="M1207.47,-185.25C1207.47,-158.495 1207.47,-115.473 1207.47,-93.836"/>
<polygon fill="midnightblue" stroke="midnightblue" points="1203.97,-185.284 1207.47,-195.284 1210.97,-185.284 1203.97,-185.284"/>
</g>
<!-- Node6&#45;&gt;Node19 -->
<g id="edge30" class="edge"><title>Node6&#45;&gt;Node19</title>
<path fill="none" stroke="midnightblue" d="M1276.99,-205.204C1326.67,-200.279 1393.62,-188.232 1445.47,-159 1474.17,-142.822 1498.08,-111.489 1510.11,-93.691"/>
<polygon fill="midnightblue" stroke="midnightblue" points="1276.62,-201.723 1266.98,-206.123 1277.26,-208.694 1276.62,-201.723"/>
</g>
<!-- Node21 -->
<g id="node21" class="node"><title>Node21</title>
<g id="a_node21"><a xlink:href="$SITL__State_8cpp.html" xlink:title="libraries/AP_HAL_SITL\l/SITL_State.cpp">
<polygon fill="white" stroke="black" points="1285.06,-65.5 1285.06,-93.5 1403.88,-93.5 1403.88,-65.5 1285.06,-65.5"/>
<text text-anchor="start" x="1293.06" y="-81.5" font-family="Helvetica,sans-Serif" font-size="10.00">libraries/AP_HAL_SITL</text>
<text text-anchor="middle" x="1344.47" y="-71.5" font-family="Helvetica,sans-Serif" font-size="10.00">/SITL_State.cpp</text>
</a>
</g>
</g>
<!-- Node6&#45;&gt;Node21 -->
<g id="edge31" class="edge"><title>Node6&#45;&gt;Node21</title>
<path fill="none" stroke="midnightblue" d="M1229.01,-188.38C1257.27,-161.971 1306.11,-116.338 1330.2,-93.836"/>
<polygon fill="midnightblue" stroke="midnightblue" points="1226.54,-185.899 1221.62,-195.284 1231.31,-191.014 1226.54,-185.899"/>
</g>
<!-- Node7&#45;&gt;Node5 -->
<g id="edge9" class="edge"><title>Node7&#45;&gt;Node5</title>
<path fill="none" stroke="midnightblue" d="M968.805,-163.295C1024.56,-191.377 1131.69,-245.333 1181.2,-270.268"/>
<polygon fill="midnightblue" stroke="midnightblue" points="970.171,-160.064 959.665,-158.692 967.022,-166.316 970.171,-160.064"/>
</g>
<!-- Node7&#45;&gt;Node6 -->
<g id="edge8" class="edge"><title>Node7&#45;&gt;Node6</title>
<path fill="none" stroke="midnightblue" d="M1003.3,-160.219C1051.02,-170.888 1113.12,-185.184 1156.29,-195.446"/>
<polygon fill="midnightblue" stroke="midnightblue" points="1003.87,-156.76 993.351,-158 1002.35,-163.593 1003.87,-156.76"/>
</g>
<!-- Node8 -->
<g id="node8" class="node"><title>Node8</title>
<g id="a_node8"><a xlink:href="$SITL_2AnalogIn_8cpp.html" xlink:title="libraries/AP_HAL_SITL\l/AnalogIn.cpp">
<polygon fill="white" stroke="black" points="289.062,-65.5 289.062,-93.5 407.884,-93.5 407.884,-65.5 289.062,-65.5"/>
<text text-anchor="start" x="297.062" y="-81.5" font-family="Helvetica,sans-Serif" font-size="10.00">libraries/AP_HAL_SITL</text>
<text text-anchor="middle" x="348.473" y="-71.5" font-family="Helvetica,sans-Serif" font-size="10.00">/AnalogIn.cpp</text>
</a>
</g>
</g>
<!-- Node7&#45;&gt;Node8 -->
<g id="edge7" class="edge"><title>Node7&#45;&gt;Node8</title>
<path fill="none" stroke="midnightblue" d="M863.834,-138.986C764.455,-132.053 576.383,-117.111 417.473,-94 414.453,-93.5608 411.365,-93.0787 408.251,-92.5661"/>
<polygon fill="midnightblue" stroke="midnightblue" points="863.828,-142.494 874.046,-139.692 864.311,-135.511 863.828,-142.494"/>
</g>
<!-- Node7&#45;&gt;Node9 -->
<g id="edge10" class="edge"><title>Node7&#45;&gt;Node9</title>
<path fill="none" stroke="midnightblue" d="M863.71,-140.55C820.979,-135.593 767.241,-123.375 728.473,-94 706.432,-77.2993 693.836,-46.1662 688.16,-28.5416"/>
<polygon fill="midnightblue" stroke="midnightblue" points="863.45,-144.042 873.761,-141.607 864.182,-137.08 863.45,-144.042"/>
</g>
<!-- Node10 -->
<g id="node10" class="node"><title>Node10</title>
<g id="a_node10"><a xlink:href="$SITL_2RCInput_8h.html" xlink:title="libraries/AP_HAL_SITL\l/RCInput.h">
<polygon fill="white" stroke="black" points="15.0616,-65.5 15.0616,-93.5 133.884,-93.5 133.884,-65.5 15.0616,-65.5"/>
<text text-anchor="start" x="23.0616" y="-81.5" font-family="Helvetica,sans-Serif" font-size="10.00">libraries/AP_HAL_SITL</text>
<text text-anchor="middle" x="74.4727" y="-71.5" font-family="Helvetica,sans-Serif" font-size="10.00">/RCInput.h</text>
</a>
</g>
</g>
<!-- Node7&#45;&gt;Node10 -->
<g id="edge11" class="edge"><title>Node7&#45;&gt;Node10</title>
<path fill="none" stroke="midnightblue" d="M863.736,-142.187C725.696,-138.913 408.087,-128.028 143.473,-94 140.446,-93.6108 137.353,-93.1688 134.234,-92.6882"/>
<polygon fill="midnightblue" stroke="midnightblue" points="863.681,-145.686 873.759,-142.418 863.842,-138.688 863.681,-145.686"/>
</g>
<!-- Node12 -->
<g id="node12" class="node"><title>Node12</title>
<g id="a_node12"><a xlink:href="$SITL_2RCOutput_8h.html" xlink:title="libraries/AP_HAL_SITL\l/RCOutput.h">
<polygon fill="white" stroke="black" points="737.062,-65.5 737.062,-93.5 855.884,-93.5 855.884,-65.5 737.062,-65.5"/>
<text text-anchor="start" x="745.062" y="-81.5" font-family="Helvetica,sans-Serif" font-size="10.00">libraries/AP_HAL_SITL</text>
<text text-anchor="middle" x="796.473" y="-71.5" font-family="Helvetica,sans-Serif" font-size="10.00">/RCOutput.h</text>
</a>
</g>
</g>
<!-- Node7&#45;&gt;Node12 -->
<g id="edge14" class="edge"><title>Node7&#45;&gt;Node12</title>
<path fill="none" stroke="midnightblue" d="M895.851,-126.199C873.414,-115.882 845.388,-102.994 824.823,-93.5369"/>
<polygon fill="midnightblue" stroke="midnightblue" points="894.539,-129.448 905.086,-130.446 897.463,-123.088 894.539,-129.448"/>
</g>
<!-- Node14 -->
<g id="node14" class="node"><title>Node14</title>
<g id="a_node14"><a xlink:href="$AP__HAL__SITL_2Scheduler_8cpp.html" xlink:title="libraries/AP_HAL_SITL\l/Scheduler.cpp">
<polygon fill="white" stroke="black" points="426.062,-65.5 426.062,-93.5 544.884,-93.5 544.884,-65.5 426.062,-65.5"/>
<text text-anchor="start" x="434.062" y="-81.5" font-family="Helvetica,sans-Serif" font-size="10.00">libraries/AP_HAL_SITL</text>
<text text-anchor="middle" x="485.473" y="-71.5" font-family="Helvetica,sans-Serif" font-size="10.00">/Scheduler.cpp</text>
</a>
</g>
</g>
<!-- Node7&#45;&gt;Node14 -->
<g id="edge17" class="edge"><title>Node7&#45;&gt;Node14</title>
<path fill="none" stroke="midnightblue" d="M863.941,-135.757C787.781,-126.965 662.124,-111.543 554.473,-94 551.34,-93.4896 548.133,-92.9435 544.897,-92.3744"/>
<polygon fill="midnightblue" stroke="midnightblue" points="863.56,-139.237 873.894,-136.901 864.359,-132.282 863.56,-139.237"/>
</g>
<!-- Node15 -->
<g id="node15" class="node"><title>Node15</title>
<g id="a_node15"><a xlink:href="$sitl__barometer_8cpp.html" xlink:title="libraries/AP_HAL_SITL\l/sitl_barometer.cpp">
<polygon fill="white" stroke="black" points="563.062,-65.5 563.062,-93.5 681.884,-93.5 681.884,-65.5 563.062,-65.5"/>
<text text-anchor="start" x="571.062" y="-81.5" font-family="Helvetica,sans-Serif" font-size="10.00">libraries/AP_HAL_SITL</text>
<text text-anchor="middle" x="622.473" y="-71.5" font-family="Helvetica,sans-Serif" font-size="10.00">/sitl_barometer.cpp</text>
</a>
</g>
</g>
<!-- Node7&#45;&gt;Node15 -->
<g id="edge18" class="edge"><title>Node7&#45;&gt;Node15</title>
<path fill="none" stroke="midnightblue" d="M863.927,-129.412C809.3,-118.346 734.038,-103.1 682.132,-92.5852"/>
<polygon fill="midnightblue" stroke="midnightblue" points="863.381,-132.872 873.877,-131.428 864.771,-126.012 863.381,-132.872"/>
</g>
<!-- Node7&#45;&gt;Node16 -->
<g id="edge19" class="edge"><title>Node7&#45;&gt;Node16</title>
<path fill="none" stroke="midnightblue" d="M933.473,-120.164C933.473,-111.169 933.473,-101.221 933.473,-93.5369"/>
<polygon fill="midnightblue" stroke="midnightblue" points="929.973,-120.446 933.473,-130.446 936.973,-120.446 929.973,-120.446"/>
</g>
<!-- Node7&#45;&gt;Node17 -->
<g id="edge20" class="edge"><title>Node7&#45;&gt;Node17</title>
<path fill="none" stroke="midnightblue" d="M971.095,-126.199C993.532,-115.882 1021.56,-102.994 1042.12,-93.5369"/>
<polygon fill="midnightblue" stroke="midnightblue" points="969.482,-123.088 961.859,-130.446 972.407,-129.448 969.482,-123.088"/>
</g>
<!-- Node7&#45;&gt;Node18 -->
<g id="edge21" class="edge"><title>Node7&#45;&gt;Node18</title>
<path fill="none" stroke="midnightblue" d="M1000.15,-128.169C1046.27,-117.565 1106.98,-103.606 1150.77,-93.5369"/>
<polygon fill="midnightblue" stroke="midnightblue" points="999.207,-124.794 990.246,-130.446 1000.78,-131.616 999.207,-124.794"/>
</g>
<!-- Node7&#45;&gt;Node19 -->
<g id="edge22" class="edge"><title>Node7&#45;&gt;Node19</title>
<path fill="none" stroke="midnightblue" d="M1003.05,-136.832C1096.31,-127.774 1266.98,-110.78 1412.47,-94 1427.49,-92.2677 1443.69,-90.2701 1458.8,-88.3518"/>
<polygon fill="midnightblue" stroke="midnightblue" points="1002.5,-133.368 992.889,-137.817 1003.18,-140.335 1002.5,-133.368"/>
</g>
<!-- Node20 -->
<g id="node20" class="node"><title>Node20</title>
<g id="a_node20"><a xlink:href="$sitl__optical__flow_8cpp.html" xlink:title="libraries/AP_HAL_SITL\l/sitl_optical_flow.cpp">
<polygon fill="white" stroke="black" points="152.062,-65.5 152.062,-93.5 270.884,-93.5 270.884,-65.5 152.062,-65.5"/>
<text text-anchor="start" x="160.062" y="-81.5" font-family="Helvetica,sans-Serif" font-size="10.00">libraries/AP_HAL_SITL</text>
<text text-anchor="middle" x="211.473" y="-71.5" font-family="Helvetica,sans-Serif" font-size="10.00">/sitl_optical_flow.cpp</text>
</a>
</g>
</g>
<!-- Node7&#45;&gt;Node20 -->
<g id="edge23" class="edge"><title>Node7&#45;&gt;Node20</title>
<path fill="none" stroke="midnightblue" d="M863.674,-140.904C743.914,-135.849 491.763,-122.577 280.473,-94 277.449,-93.591 274.357,-93.1331 271.24,-92.6398"/>
<polygon fill="midnightblue" stroke="midnightblue" points="863.667,-144.407 873.803,-141.325 863.958,-137.413 863.667,-144.407"/>
</g>
<!-- Node7&#45;&gt;Node21 -->
<g id="edge24" class="edge"><title>Node7&#45;&gt;Node21</title>
<path fill="none" stroke="midnightblue" d="M1002.84,-134.485C1072.04,-125.249 1181.33,-110.012 1275.47,-94 1278.6,-93.4678 1281.81,-92.9045 1285.04,-92.3219"/>
<polygon fill="midnightblue" stroke="midnightblue" points="1002.38,-131.015 992.925,-135.803 1003.3,-137.954 1002.38,-131.015"/>
</g>
<!-- Node10&#45;&gt;Node9 -->
<g id="edge12" class="edge"><title>Node10&#45;&gt;Node9</title>
<path fill="none" stroke="midnightblue" d="M144.209,-65.0007C325.06,-39.5319 526.948,-25.0778 625.002,-18.951"/>
<polygon fill="midnightblue" stroke="midnightblue" points="143.656,-61.544 134.248,-66.4177 144.642,-68.4742 143.656,-61.544"/>
</g>
<!-- Node11 -->
<g id="node11" class="node"><title>Node11</title>
<g id="a_node11"><a xlink:href="$SITL_2RCInput_8cpp.html" xlink:title="libraries/AP_HAL_SITL\l/RCInput.cpp">
<polygon fill="white" stroke="black" points="15.0616,-0.5 15.0616,-28.5 133.884,-28.5 133.884,-0.5 15.0616,-0.5"/>
<text text-anchor="start" x="23.0616" y="-16.5" font-family="Helvetica,sans-Serif" font-size="10.00">libraries/AP_HAL_SITL</text>
<text text-anchor="middle" x="74.4727" y="-6.5" font-family="Helvetica,sans-Serif" font-size="10.00">/RCInput.cpp</text>
</a>
</g>
</g>
<!-- Node10&#45;&gt;Node11 -->
<g id="edge13" class="edge"><title>Node10&#45;&gt;Node11</title>
<path fill="none" stroke="midnightblue" d="M74.4727,-55.1641C74.4727,-46.1693 74.4727,-36.2205 74.4727,-28.5369"/>
<polygon fill="midnightblue" stroke="midnightblue" points="70.9728,-55.4463 74.4727,-65.4464 77.9728,-55.4464 70.9728,-55.4463"/>
</g>
<!-- Node12&#45;&gt;Node9 -->
<g id="edge15" class="edge"><title>Node12&#45;&gt;Node9</title>
<path fill="none" stroke="midnightblue" d="M764.232,-60.3648C746.15,-50.1937 724.011,-37.7404 707.649,-28.5369"/>
<polygon fill="midnightblue" stroke="midnightblue" points="762.835,-63.5942 773.266,-65.4464 766.266,-57.4932 762.835,-63.5942"/>
</g>
<!-- Node13 -->
<g id="node13" class="node"><title>Node13</title>
<g id="a_node13"><a xlink:href="$SITL_2RCOutput_8cpp.html" xlink:title="libraries/AP_HAL_SITL\l/RCOutput.cpp">
<polygon fill="white" stroke="black" points="762.062,-0.5 762.062,-28.5 880.884,-28.5 880.884,-0.5 762.062,-0.5"/>
<text text-anchor="start" x="770.062" y="-16.5" font-family="Helvetica,sans-Serif" font-size="10.00">libraries/AP_HAL_SITL</text>
<text text-anchor="middle" x="821.473" y="-6.5" font-family="Helvetica,sans-Serif" font-size="10.00">/RCOutput.cpp</text>
</a>
</g>
</g>
<!-- Node12&#45;&gt;Node13 -->
<g id="edge16" class="edge"><title>Node12&#45;&gt;Node13</title>
<path fill="none" stroke="midnightblue" d="M805.381,-56.0505C809.041,-46.8277 813.15,-36.4738 816.299,-28.5369"/>
<polygon fill="midnightblue" stroke="midnightblue" points="802.088,-54.8605 801.653,-65.4464 808.595,-57.4424 802.088,-54.8605"/>
</g>
</g>
</svg>
