<?xml version="1.0" encoding="UTF-8" standalone="no"?>
<!DOCTYPE svg PUBLIC "-//W3C//DTD SVG 1.1//EN"
 "http://www.w3.org/Graphics/SVG/1.1/DTD/svg11.dtd">
<!-- Generated by graphviz version 2.38.0 (20140413.2041)
 -->
<!-- Title: libraries/AP_Mount/AP_Mount_SToRM32_serial.h Pages: 1 -->
<svg width="290pt" height="102pt"
 viewBox="0.00 0.00 289.89 102.00" xmlns="http://www.w3.org/2000/svg" xmlns:xlink="http://www.w3.org/1999/xlink">
<g id="graph0" class="graph" transform="scale(1 1) rotate(0) translate(4 98)">
<title>libraries/AP_Mount/AP_Mount_SToRM32_serial.h</title>
<polygon fill="white" stroke="none" points="-4,4 -4,-98 285.891,-98 285.891,4 -4,4"/>
<!-- Node1 -->
<g id="node1" class="node"><title>Node1</title>
<polygon fill="#bfbfbf" stroke="black" points="48.8721,-65.5 48.8721,-93.5 201.61,-93.5 201.61,-65.5 48.8721,-65.5"/>
<text text-anchor="start" x="56.8721" y="-81.5" font-family="Helvetica,sans-Serif" font-size="10.00">libraries/AP_Mount</text>
<text text-anchor="middle" x="125.241" y="-71.5" font-family="Helvetica,sans-Serif" font-size="10.00">/AP_Mount_SToRM32_serial.h</text>
</g>
<!-- Node2 -->
<g id="node2" class="node"><title>Node2</title>
<g id="a_node2"><a xlink:href="$AP__Mount_8cpp.html" xlink:title="libraries/AP_Mount\l/AP_Mount.cpp">
<polygon fill="white" stroke="black" points="0,-0.5 0,-28.5 100.482,-28.5 100.482,-0.5 0,-0.5"/>
<text text-anchor="start" x="8" y="-16.5" font-family="Helvetica,sans-Serif" font-size="10.00">libraries/AP_Mount</text>
<text text-anchor="middle" x="50.2412" y="-6.5" font-family="Helvetica,sans-Serif" font-size="10.00">/AP_Mount.cpp</text>
</a>
</g>
</g>
<!-- Node1&#45;&gt;Node2 -->
<g id="edge1" class="edge"><title>Node1&#45;&gt;Node2</title>
<path fill="none" stroke="midnightblue" d="M101.969,-58.9513C90.1913,-49.0581 76.2153,-37.3182 65.7614,-28.5369"/>
<polygon fill="midnightblue" stroke="midnightblue" points="99.7929,-61.6944 109.701,-65.4464 104.295,-56.3344 99.7929,-61.6944"/>
</g>
<!-- Node3 -->
<g id="node3" class="node"><title>Node3</title>
<g id="a_node3"><a xlink:href="$AP__Mount__SToRM32__serial_8cpp.html" xlink:title="libraries/AP_Mount\l/AP_Mount_SToRM32_serial.cpp">
<polygon fill="white" stroke="black" points="118.591,-0.5 118.591,-28.5 281.891,-28.5 281.891,-0.5 118.591,-0.5"/>
<text text-anchor="start" x="126.591" y="-16.5" font-family="Helvetica,sans-Serif" font-size="10.00">libraries/AP_Mount</text>
<text text-anchor="middle" x="200.241" y="-6.5" font-family="Helvetica,sans-Serif" font-size="10.00">/AP_Mount_SToRM32_serial.cpp</text>
</a>
</g>
</g>
<!-- Node1&#45;&gt;Node3 -->
<g id="edge2" class="edge"><title>Node1&#45;&gt;Node3</title>
<path fill="none" stroke="midnightblue" d="M148.513,-58.9513C160.291,-49.0581 174.267,-37.3182 184.721,-28.5369"/>
<polygon fill="midnightblue" stroke="midnightblue" points="146.187,-56.3344 140.781,-65.4464 150.69,-61.6944 146.187,-56.3344"/>
</g>
</g>
</svg>
