<?xml version="1.0" encoding="UTF-8" standalone="no"?>
<!DOCTYPE svg PUBLIC "-//W3C//DTD SVG 1.1//EN"
 "http://www.w3.org/Graphics/SVG/1.1/DTD/svg11.dtd">
<!-- Generated by graphviz version 2.38.0 (20140413.2041)
 -->
<!-- Title: libraries/AP_Limits/AP_Limit_GPSLock.h Pages: 1 -->
<svg width="393pt" height="232pt"
 viewBox="0.00 0.00 393.05 232.00" xmlns="http://www.w3.org/2000/svg" xmlns:xlink="http://www.w3.org/1999/xlink">
<g id="graph0" class="graph" transform="scale(1 1) rotate(0) translate(4 228)">
<title>libraries/AP_Limits/AP_Limit_GPSLock.h</title>
<polygon fill="white" stroke="none" points="-4,4 -4,-228 389.054,-228 389.054,4 -4,4"/>
<!-- Node1 -->
<g id="node1" class="node"><title>Node1</title>
<polygon fill="#bfbfbf" stroke="black" points="134.837,-195.5 134.837,-223.5 249.773,-223.5 249.773,-195.5 134.837,-195.5"/>
<text text-anchor="start" x="142.837" y="-211.5" font-family="Helvetica,sans-Serif" font-size="10.00">libraries/AP_Limits</text>
<text text-anchor="middle" x="192.305" y="-201.5" font-family="Helvetica,sans-Serif" font-size="10.00">/AP_Limit_GPSLock.h</text>
</g>
<!-- Node2 -->
<g id="node2" class="node"><title>Node2</title>
<g id="a_node2"><a xlink:href="$AP__Limits_8h.html" xlink:title="libraries/AP_Limits\l/AP_Limits.h">
<polygon fill="white" stroke="black" points="142.904,-130.5 142.904,-158.5 241.707,-158.5 241.707,-130.5 142.904,-130.5"/>
<text text-anchor="start" x="150.904" y="-146.5" font-family="Helvetica,sans-Serif" font-size="10.00">libraries/AP_Limits</text>
<text text-anchor="middle" x="192.305" y="-136.5" font-family="Helvetica,sans-Serif" font-size="10.00">/AP_Limits.h</text>
</a>
</g>
</g>
<!-- Node1&#45;&gt;Node2 -->
<g id="edge1" class="edge"><title>Node1&#45;&gt;Node2</title>
<path fill="none" stroke="midnightblue" d="M185.776,-185.46C185.291,-176.388 185.604,-166.305 186.715,-158.537"/>
<polygon fill="midnightblue" stroke="midnightblue" points="182.294,-185.817 186.712,-195.446 189.264,-185.163 182.294,-185.817"/>
</g>
<!-- Node8 -->
<g id="node8" class="node"><title>Node8</title>
<g id="a_node8"><a xlink:href="$AP__Limit__GPSLock_8cpp.html" xlink:title="libraries/AP_Limits\l/AP_Limit_GPSLock.cpp">
<polygon fill="white" stroke="black" points="259.557,-130.5 259.557,-158.5 385.054,-158.5 385.054,-130.5 259.557,-130.5"/>
<text text-anchor="start" x="267.557" y="-146.5" font-family="Helvetica,sans-Serif" font-size="10.00">libraries/AP_Limits</text>
<text text-anchor="middle" x="322.305" y="-136.5" font-family="Helvetica,sans-Serif" font-size="10.00">/AP_Limit_GPSLock.cpp</text>
</a>
</g>
</g>
<!-- Node1&#45;&gt;Node8 -->
<g id="edge10" class="edge"><title>Node1&#45;&gt;Node8</title>
<path fill="none" stroke="midnightblue" d="M228.29,-191.061C249.533,-180.767 275.977,-167.951 295.404,-158.537"/>
<polygon fill="midnightblue" stroke="midnightblue" points="226.714,-187.936 219.241,-195.446 229.767,-194.235 226.714,-187.936"/>
</g>
<!-- Node2&#45;&gt;Node1 -->
<g id="edge8" class="edge"><title>Node2&#45;&gt;Node1</title>
<path fill="none" stroke="midnightblue" d="M198.833,-168.52C199.319,-177.591 199.008,-187.675 197.898,-195.446"/>
<polygon fill="midnightblue" stroke="midnightblue" points="202.315,-168.166 197.896,-158.537 195.346,-168.82 202.315,-168.166"/>
</g>
<!-- Node3 -->
<g id="node3" class="node"><title>Node3</title>
<g id="a_node3"><a xlink:href="$AP__Limit__Altitude_8h.html" xlink:title="libraries/AP_Limits\l/AP_Limit_Altitude.h">
<polygon fill="white" stroke="black" points="10.2808,-65.5 10.2808,-93.5 116.33,-93.5 116.33,-65.5 10.2808,-65.5"/>
<text text-anchor="start" x="18.2808" y="-81.5" font-family="Helvetica,sans-Serif" font-size="10.00">libraries/AP_Limits</text>
<text text-anchor="middle" x="63.3052" y="-71.5" font-family="Helvetica,sans-Serif" font-size="10.00">/AP_Limit_Altitude.h</text>
</a>
</g>
</g>
<!-- Node2&#45;&gt;Node3 -->
<g id="edge2" class="edge"><title>Node2&#45;&gt;Node3</title>
<path fill="none" stroke="midnightblue" d="M150.781,-126.199C128.641,-115.882 102.421,-102.994 84.4095,-93.5369"/>
<polygon fill="midnightblue" stroke="midnightblue" points="149.437,-129.434 159.984,-130.446 152.37,-123.078 149.437,-129.434"/>
</g>
<!-- Node5 -->
<g id="node5" class="node"><title>Node5</title>
<g id="a_node5"><a xlink:href="$AP__Limit__Geofence_8h.html" xlink:title="libraries/AP_Limits\l/AP_Limit_Geofence.h">
<polygon fill="white" stroke="black" points="134.276,-65.5 134.276,-93.5 250.334,-93.5 250.334,-65.5 134.276,-65.5"/>
<text text-anchor="start" x="142.276" y="-81.5" font-family="Helvetica,sans-Serif" font-size="10.00">libraries/AP_Limits</text>
<text text-anchor="middle" x="192.305" y="-71.5" font-family="Helvetica,sans-Serif" font-size="10.00">/AP_Limit_Geofence.h</text>
</a>
</g>
</g>
<!-- Node2&#45;&gt;Node5 -->
<g id="edge5" class="edge"><title>Node2&#45;&gt;Node5</title>
<path fill="none" stroke="midnightblue" d="M185.776,-120.46C185.291,-111.388 185.604,-101.305 186.715,-93.5369"/>
<polygon fill="midnightblue" stroke="midnightblue" points="182.294,-120.817 186.712,-130.446 189.264,-120.163 182.294,-120.817"/>
</g>
<!-- Node7 -->
<g id="node7" class="node"><title>Node7</title>
<g id="a_node7"><a xlink:href="$AP__Limits_8cpp.html" xlink:title="Imposes limits on location (geofence), altitude and other parameters Each breach will trigger an acti...">
<polygon fill="white" stroke="black" points="267.904,-65.5 267.904,-93.5 366.707,-93.5 366.707,-65.5 267.904,-65.5"/>
<text text-anchor="start" x="275.904" y="-81.5" font-family="Helvetica,sans-Serif" font-size="10.00">libraries/AP_Limits</text>
<text text-anchor="middle" x="317.305" y="-71.5" font-family="Helvetica,sans-Serif" font-size="10.00">/AP_Limits.cpp</text>
</a>
</g>
</g>
<!-- Node2&#45;&gt;Node7 -->
<g id="edge9" class="edge"><title>Node2&#45;&gt;Node7</title>
<path fill="none" stroke="midnightblue" d="M227.181,-125.922C247.559,-115.652 272.842,-102.909 291.438,-93.5369"/>
<polygon fill="midnightblue" stroke="midnightblue" points="225.56,-122.82 218.205,-130.446 228.71,-129.071 225.56,-122.82"/>
</g>
<!-- Node3&#45;&gt;Node2 -->
<g id="edge4" class="edge"><title>Node3&#45;&gt;Node2</title>
<path fill="none" stroke="midnightblue" d="M104.79,-97.7824C126.925,-108.097 153.148,-120.986 171.169,-130.446"/>
<polygon fill="midnightblue" stroke="midnightblue" points="106.137,-94.5489 95.5902,-93.5369 103.204,-100.905 106.137,-94.5489"/>
</g>
<!-- Node4 -->
<g id="node4" class="node"><title>Node4</title>
<g id="a_node4"><a xlink:href="$AP__Limit__Altitude_8cpp.html" xlink:title="libraries/AP_Limits\l/AP_Limit_Altitude.cpp">
<polygon fill="white" stroke="black" points="0,-0.5 0,-28.5 116.61,-28.5 116.61,-0.5 0,-0.5"/>
<text text-anchor="start" x="8" y="-16.5" font-family="Helvetica,sans-Serif" font-size="10.00">libraries/AP_Limits</text>
<text text-anchor="middle" x="58.3052" y="-6.5" font-family="Helvetica,sans-Serif" font-size="10.00">/AP_Limit_Altitude.cpp</text>
</a>
</g>
</g>
<!-- Node3&#45;&gt;Node4 -->
<g id="edge3" class="edge"><title>Node3&#45;&gt;Node4</title>
<path fill="none" stroke="midnightblue" d="M61.4766,-55.4603C60.7566,-46.3882 59.9564,-36.305 59.3399,-28.5369"/>
<polygon fill="midnightblue" stroke="midnightblue" points="57.9889,-55.7546 62.2692,-65.4464 64.9669,-55.2008 57.9889,-55.7546"/>
</g>
<!-- Node5&#45;&gt;Node2 -->
<g id="edge6" class="edge"><title>Node5&#45;&gt;Node2</title>
<path fill="none" stroke="midnightblue" d="M198.833,-103.52C199.319,-112.591 199.008,-122.675 197.898,-130.446"/>
<polygon fill="midnightblue" stroke="midnightblue" points="202.315,-103.166 197.896,-93.5369 195.346,-103.82 202.315,-103.166"/>
</g>
<!-- Node6 -->
<g id="node6" class="node"><title>Node6</title>
<g id="a_node6"><a xlink:href="$AP__Limit__Geofence_8cpp.html" xlink:title="libraries/AP_Limits\l/AP_Limit_Geofence.cpp">
<polygon fill="white" stroke="black" points="134.995,-0.5 134.995,-28.5 261.615,-28.5 261.615,-0.5 134.995,-0.5"/>
<text text-anchor="start" x="142.995" y="-16.5" font-family="Helvetica,sans-Serif" font-size="10.00">libraries/AP_Limits</text>
<text text-anchor="middle" x="198.305" y="-6.5" font-family="Helvetica,sans-Serif" font-size="10.00">/AP_Limit_Geofence.cpp</text>
</a>
</g>
</g>
<!-- Node5&#45;&gt;Node6 -->
<g id="edge7" class="edge"><title>Node5&#45;&gt;Node6</title>
<path fill="none" stroke="midnightblue" d="M194.499,-55.4603C195.363,-46.3882 196.324,-36.305 197.064,-28.5369"/>
<polygon fill="midnightblue" stroke="midnightblue" points="191.012,-55.1595 193.548,-65.4464 197.981,-55.8233 191.012,-55.1595"/>
</g>
</g>
</svg>
