<?xml version="1.0" encoding="UTF-8" standalone="no"?>
<!DOCTYPE svg PUBLIC "-//W3C//DTD SVG 1.1//EN"
 "http://www.w3.org/Graphics/SVG/1.1/DTD/svg11.dtd">
<!-- Generated by graphviz version 2.38.0 (20140413.2041)
 -->
<!-- Title: libraries/AP_Limits/AP_Limit_Module.h Pages: 1 -->
<svg width="521pt" height="232pt"
 viewBox="0.00 0.00 521.33 232.00" xmlns="http://www.w3.org/2000/svg" xmlns:xlink="http://www.w3.org/1999/xlink">
<g id="graph0" class="graph" transform="scale(1 1) rotate(0) translate(4 228)">
<title>libraries/AP_Limits/AP_Limit_Module.h</title>
<polygon fill="white" stroke="none" points="-4,4 -4,-228 517.332,-228 517.332,4 -4,4"/>
<!-- Node1 -->
<g id="node1" class="node"><title>Node1</title>
<polygon fill="#bfbfbf" stroke="black" points="239.559,-195.5 239.559,-223.5 345.051,-223.5 345.051,-195.5 239.559,-195.5"/>
<text text-anchor="start" x="247.559" y="-211.5" font-family="Helvetica,sans-Serif" font-size="10.00">libraries/AP_Limits</text>
<text text-anchor="middle" x="292.305" y="-201.5" font-family="Helvetica,sans-Serif" font-size="10.00">/AP_Limit_Module.h</text>
</g>
<!-- Node2 -->
<g id="node2" class="node"><title>Node2</title>
<g id="a_node2"><a xlink:href="$AP__Limits_8h.html" xlink:title="libraries/AP_Limits\l/AP_Limits.h">
<polygon fill="white" stroke="black" points="204.904,-130.5 204.904,-158.5 303.707,-158.5 303.707,-130.5 204.904,-130.5"/>
<text text-anchor="start" x="212.904" y="-146.5" font-family="Helvetica,sans-Serif" font-size="10.00">libraries/AP_Limits</text>
<text text-anchor="middle" x="254.305" y="-136.5" font-family="Helvetica,sans-Serif" font-size="10.00">/AP_Limits.h</text>
</a>
</g>
</g>
<!-- Node1&#45;&gt;Node2 -->
<g id="edge1" class="edge"><title>Node1&#45;&gt;Node2</title>
<path fill="none" stroke="midnightblue" d="M279.118,-186.638C273.468,-177.269 267.058,-166.643 262.169,-158.537"/>
<polygon fill="midnightblue" stroke="midnightblue" points="276.27,-188.691 284.432,-195.446 282.264,-185.076 276.27,-188.691"/>
</g>
<!-- Node3 -->
<g id="node3" class="node"><title>Node3</title>
<g id="a_node3"><a xlink:href="$AP__Limit__Altitude_8h.html" xlink:title="libraries/AP_Limits\l/AP_Limit_Altitude.h">
<polygon fill="white" stroke="black" points="16.2808,-65.5 16.2808,-93.5 122.33,-93.5 122.33,-65.5 16.2808,-65.5"/>
<text text-anchor="start" x="24.2808" y="-81.5" font-family="Helvetica,sans-Serif" font-size="10.00">libraries/AP_Limits</text>
<text text-anchor="middle" x="69.3052" y="-71.5" font-family="Helvetica,sans-Serif" font-size="10.00">/AP_Limit_Altitude.h</text>
</a>
</g>
</g>
<!-- Node1&#45;&gt;Node3 -->
<g id="edge14" class="edge"><title>Node1&#45;&gt;Node3</title>
<path fill="none" stroke="midnightblue" d="M251.461,-191.465C231.18,-182.542 206.537,-170.991 185.305,-159 148.887,-138.432 109.041,-110.066 86.8139,-93.6654"/>
<polygon fill="midnightblue" stroke="midnightblue" points="250.172,-194.721 260.738,-195.498 252.963,-188.301 250.172,-194.721"/>
</g>
<!-- Node5 -->
<g id="node5" class="node"><title>Node5</title>
<g id="a_node5"><a xlink:href="$AP__Limit__Geofence_8h.html" xlink:title="libraries/AP_Limits\l/AP_Limit_Geofence.h">
<polygon fill="white" stroke="black" points="140.276,-65.5 140.276,-93.5 256.334,-93.5 256.334,-65.5 140.276,-65.5"/>
<text text-anchor="start" x="148.276" y="-81.5" font-family="Helvetica,sans-Serif" font-size="10.00">libraries/AP_Limits</text>
<text text-anchor="middle" x="198.305" y="-71.5" font-family="Helvetica,sans-Serif" font-size="10.00">/AP_Limit_Geofence.h</text>
</a>
</g>
</g>
<!-- Node1&#45;&gt;Node5 -->
<g id="edge12" class="edge"><title>Node1&#45;&gt;Node5</title>
<path fill="none" stroke="midnightblue" d="M234.563,-191.194C219.513,-183.773 205.074,-173.387 196.305,-159 184.031,-138.861 189.259,-110.092 193.94,-93.5536"/>
<polygon fill="midnightblue" stroke="midnightblue" points="233.412,-194.515 243.967,-195.44 236.293,-188.135 233.412,-194.515"/>
</g>
<!-- Node7 -->
<g id="node7" class="node"><title>Node7</title>
<g id="a_node7"><a xlink:href="$AP__Limit__GPSLock_8h.html" xlink:title="libraries/AP_Limits\l/AP_Limit_GPSLock.h">
<polygon fill="white" stroke="black" points="273.837,-65.5 273.837,-93.5 388.773,-93.5 388.773,-65.5 273.837,-65.5"/>
<text text-anchor="start" x="281.837" y="-81.5" font-family="Helvetica,sans-Serif" font-size="10.00">libraries/AP_Limits</text>
<text text-anchor="middle" x="331.305" y="-71.5" font-family="Helvetica,sans-Serif" font-size="10.00">/AP_Limit_GPSLock.h</text>
</a>
</g>
</g>
<!-- Node1&#45;&gt;Node7 -->
<g id="edge13" class="edge"><title>Node1&#45;&gt;Node7</title>
<path fill="none" stroke="midnightblue" d="M302.279,-185.826C305.73,-177.489 309.444,-167.909 312.305,-159 319.551,-136.438 325.51,-109.454 328.724,-93.7191"/>
<polygon fill="midnightblue" stroke="midnightblue" points="298.965,-184.677 298.277,-195.249 305.408,-187.413 298.965,-184.677"/>
</g>
<!-- Node9 -->
<g id="node9" class="node"><title>Node9</title>
<g id="a_node9"><a xlink:href="$AP__Limits_8cpp.html" xlink:title="Imposes limits on location (geofence), altitude and other parameters Each breach will trigger an acti...">
<polygon fill="white" stroke="black" points="406.904,-65.5 406.904,-93.5 505.707,-93.5 505.707,-65.5 406.904,-65.5"/>
<text text-anchor="start" x="414.904" y="-81.5" font-family="Helvetica,sans-Serif" font-size="10.00">libraries/AP_Limits</text>
<text text-anchor="middle" x="456.305" y="-71.5" font-family="Helvetica,sans-Serif" font-size="10.00">/AP_Limits.cpp</text>
</a>
</g>
</g>
<!-- Node1&#45;&gt;Node9 -->
<g id="edge16" class="edge"><title>Node1&#45;&gt;Node9</title>
<path fill="none" stroke="midnightblue" d="M315.387,-189.014C334.651,-172.899 362.954,-149.568 388.305,-130 404.72,-117.331 423.846,-103.486 437.626,-93.6685"/>
<polygon fill="midnightblue" stroke="midnightblue" points="313.131,-186.338 307.719,-195.446 317.63,-191.701 313.131,-186.338"/>
</g>
<!-- Node10 -->
<g id="node10" class="node"><title>Node10</title>
<g id="a_node10"><a xlink:href="$AP__Limit__Module_8cpp.html" xlink:title="libraries/AP_Limits\l/AP_Limit_Module.cpp">
<polygon fill="white" stroke="black" points="397.278,-130.5 397.278,-158.5 513.332,-158.5 513.332,-130.5 397.278,-130.5"/>
<text text-anchor="start" x="405.278" y="-146.5" font-family="Helvetica,sans-Serif" font-size="10.00">libraries/AP_Limits</text>
<text text-anchor="middle" x="455.305" y="-136.5" font-family="Helvetica,sans-Serif" font-size="10.00">/AP_Limit_Module.cpp</text>
</a>
</g>
</g>
<!-- Node1&#45;&gt;Node10 -->
<g id="edge15" class="edge"><title>Node1&#45;&gt;Node10</title>
<path fill="none" stroke="midnightblue" d="M335.644,-191.75C362.568,-181.343 396.67,-168.163 421.575,-158.537"/>
<polygon fill="midnightblue" stroke="midnightblue" points="334.145,-188.577 326.079,-195.446 336.668,-195.106 334.145,-188.577"/>
</g>
<!-- Node2&#45;&gt;Node3 -->
<g id="edge2" class="edge"><title>Node2&#45;&gt;Node3</title>
<path fill="none" stroke="midnightblue" d="M200.732,-127.295C168.797,-116.807 129.359,-103.331 101.998,-93.5369"/>
<polygon fill="midnightblue" stroke="midnightblue" points="199.788,-130.668 210.38,-130.446 201.961,-124.014 199.788,-130.668"/>
</g>
<!-- Node2&#45;&gt;Node5 -->
<g id="edge5" class="edge"><title>Node2&#45;&gt;Node5</title>
<path fill="none" stroke="midnightblue" d="M229.8,-123.091C220.467,-113.383 210.664,-102.065 204.303,-93.5369"/>
<polygon fill="midnightblue" stroke="midnightblue" points="227.578,-125.82 237.109,-130.446 232.543,-120.886 227.578,-125.82"/>
</g>
<!-- Node2&#45;&gt;Node7 -->
<g id="edge8" class="edge"><title>Node2&#45;&gt;Node7</title>
<path fill="none" stroke="midnightblue" d="M272.227,-123.665C283.488,-113.833 297.908,-102.234 309.781,-93.5369"/>
<polygon fill="midnightblue" stroke="midnightblue" points="269.774,-121.164 264.667,-130.446 274.448,-126.375 269.774,-121.164"/>
</g>
<!-- Node2&#45;&gt;Node9 -->
<g id="edge11" class="edge"><title>Node2&#45;&gt;Node9</title>
<path fill="none" stroke="midnightblue" d="M305.831,-127.43C339.521,-116.923 382.964,-103.374 414.504,-93.5369"/>
<polygon fill="midnightblue" stroke="midnightblue" points="304.664,-124.128 296.16,-130.446 306.748,-130.81 304.664,-124.128"/>
</g>
<!-- Node3&#45;&gt;Node2 -->
<g id="edge4" class="edge"><title>Node3&#45;&gt;Node2</title>
<path fill="none" stroke="midnightblue" d="M122.824,-96.6874C154.75,-107.172 194.191,-120.648 221.566,-130.446"/>
<polygon fill="midnightblue" stroke="midnightblue" points="123.771,-93.3149 113.179,-93.5369 121.598,-99.9689 123.771,-93.3149"/>
</g>
<!-- Node4 -->
<g id="node4" class="node"><title>Node4</title>
<g id="a_node4"><a xlink:href="$AP__Limit__Altitude_8cpp.html" xlink:title="libraries/AP_Limits\l/AP_Limit_Altitude.cpp">
<polygon fill="white" stroke="black" points="0,-0.5 0,-28.5 116.61,-28.5 116.61,-0.5 0,-0.5"/>
<text text-anchor="start" x="8" y="-16.5" font-family="Helvetica,sans-Serif" font-size="10.00">libraries/AP_Limits</text>
<text text-anchor="middle" x="58.3052" y="-6.5" font-family="Helvetica,sans-Serif" font-size="10.00">/AP_Limit_Altitude.cpp</text>
</a>
</g>
</g>
<!-- Node3&#45;&gt;Node4 -->
<g id="edge3" class="edge"><title>Node3&#45;&gt;Node4</title>
<path fill="none" stroke="midnightblue" d="M65.2824,-55.4603C63.6984,-46.3882 61.9378,-36.305 60.5815,-28.5369"/>
<polygon fill="midnightblue" stroke="midnightblue" points="61.858,-56.1974 67.026,-65.4464 68.7537,-54.9934 61.858,-56.1974"/>
</g>
<!-- Node5&#45;&gt;Node2 -->
<g id="edge6" class="edge"><title>Node5&#45;&gt;Node2</title>
<path fill="none" stroke="midnightblue" d="M222.792,-100.89C232.124,-110.596 241.929,-121.915 248.295,-130.446"/>
<polygon fill="midnightblue" stroke="midnightblue" points="225.016,-98.1626 215.484,-93.5369 220.051,-103.097 225.016,-98.1626"/>
</g>
<!-- Node6 -->
<g id="node6" class="node"><title>Node6</title>
<g id="a_node6"><a xlink:href="$AP__Limit__Geofence_8cpp.html" xlink:title="libraries/AP_Limits\l/AP_Limit_Geofence.cpp">
<polygon fill="white" stroke="black" points="134.995,-0.5 134.995,-28.5 261.615,-28.5 261.615,-0.5 134.995,-0.5"/>
<text text-anchor="start" x="142.995" y="-16.5" font-family="Helvetica,sans-Serif" font-size="10.00">libraries/AP_Limits</text>
<text text-anchor="middle" x="198.305" y="-6.5" font-family="Helvetica,sans-Serif" font-size="10.00">/AP_Limit_Geofence.cpp</text>
</a>
</g>
</g>
<!-- Node5&#45;&gt;Node6 -->
<g id="edge7" class="edge"><title>Node5&#45;&gt;Node6</title>
<path fill="none" stroke="midnightblue" d="M198.305,-55.1641C198.305,-46.1693 198.305,-36.2205 198.305,-28.5369"/>
<polygon fill="midnightblue" stroke="midnightblue" points="194.805,-55.4463 198.305,-65.4464 201.805,-55.4464 194.805,-55.4463"/>
</g>
<!-- Node7&#45;&gt;Node2 -->
<g id="edge9" class="edge"><title>Node7&#45;&gt;Node2</title>
<path fill="none" stroke="midnightblue" d="M313.405,-100.316C302.148,-110.146 287.729,-121.746 275.852,-130.446"/>
<polygon fill="midnightblue" stroke="midnightblue" points="315.855,-102.82 320.962,-93.5369 311.181,-97.6093 315.855,-102.82"/>
</g>
<!-- Node8 -->
<g id="node8" class="node"><title>Node8</title>
<g id="a_node8"><a xlink:href="$AP__Limit__GPSLock_8cpp.html" xlink:title="libraries/AP_Limits\l/AP_Limit_GPSLock.cpp">
<polygon fill="white" stroke="black" points="279.557,-0.5 279.557,-28.5 405.054,-28.5 405.054,-0.5 279.557,-0.5"/>
<text text-anchor="start" x="287.557" y="-16.5" font-family="Helvetica,sans-Serif" font-size="10.00">libraries/AP_Limits</text>
<text text-anchor="middle" x="342.305" y="-6.5" font-family="Helvetica,sans-Serif" font-size="10.00">/AP_Limit_GPSLock.cpp</text>
</a>
</g>
</g>
<!-- Node7&#45;&gt;Node8 -->
<g id="edge10" class="edge"><title>Node7&#45;&gt;Node8</title>
<path fill="none" stroke="midnightblue" d="M335.328,-55.4603C336.912,-46.3882 338.673,-36.305 340.029,-28.5369"/>
<polygon fill="midnightblue" stroke="midnightblue" points="331.857,-54.9934 333.584,-65.4464 338.752,-56.1974 331.857,-54.9934"/>
</g>
</g>
</svg>
