<?xml version="1.0" encoding="UTF-8" standalone="no"?>
<!DOCTYPE svg PUBLIC "-//W3C//DTD SVG 1.1//EN"
 "http://www.w3.org/Graphics/SVG/1.1/DTD/svg11.dtd">
<!-- Generated by graphviz version 2.38.0 (20140413.2041)
 -->
<!-- Title: libraries/AP_HAL_Empty/Scheduler.cpp Pages: 1 -->
<svg width="1350pt" height="697pt"
 viewBox="0.00 0.00 1350.07 697.00" xmlns="http://www.w3.org/2000/svg" xmlns:xlink="http://www.w3.org/1999/xlink">
<g id="graph0" class="graph" transform="scale(1 1) rotate(0) translate(4 693)">
<title>libraries/AP_HAL_Empty/Scheduler.cpp</title>
<polygon fill="white" stroke="none" points="-4,4 -4,-693 1346.07,-693 1346.07,4 -4,4"/>
<!-- Node1 -->
<g id="node1" class="node"><title>Node1</title>
<polygon fill="#bfbfbf" stroke="black" points="1011.98,-660.5 1011.98,-688.5 1138.02,-688.5 1138.02,-660.5 1011.98,-660.5"/>
<text text-anchor="start" x="1019.98" y="-676.5" font-family="Helvetica,sans-Serif" font-size="10.00">libraries/AP_HAL_Empty</text>
<text text-anchor="middle" x="1075" y="-666.5" font-family="Helvetica,sans-Serif" font-size="10.00">/Scheduler.cpp</text>
</g>
<!-- Node2 -->
<g id="node2" class="node"><title>Node2</title>
<g id="a_node2"><a xlink:href="$Empty_2Scheduler_8h.html" xlink:title="Scheduler.h">
<polygon fill="white" stroke="black" points="797.589,-605.5 797.589,-623.5 866.411,-623.5 866.411,-605.5 797.589,-605.5"/>
<text text-anchor="middle" x="832" y="-611.5" font-family="Helvetica,sans-Serif" font-size="10.00">Scheduler.h</text>
</a>
</g>
</g>
<!-- Node1&#45;&gt;Node2 -->
<g id="edge1" class="edge"><title>Node1&#45;&gt;Node2</title>
<path fill="none" stroke="midnightblue" d="M1020.47,-660.484C976.736,-650.046 916.174,-635.591 875.62,-625.911"/>
<polygon fill="midnightblue" stroke="midnightblue" points="876.303,-622.476 865.763,-623.559 874.677,-629.285 876.303,-622.476"/>
</g>
<!-- Node25 -->
<g id="node25" class="node"><title>Node25</title>
<polygon fill="white" stroke="#bfbfbf" points="1289.93,-165.5 1289.93,-183.5 1342.07,-183.5 1342.07,-165.5 1289.93,-165.5"/>
<text text-anchor="middle" x="1316" y="-171.5" font-family="Helvetica,sans-Serif" font-size="10.00">stdarg.h</text>
</g>
<!-- Node1&#45;&gt;Node25 -->
<g id="edge75" class="edge"><title>Node1&#45;&gt;Node25</title>
<path fill="none" stroke="midnightblue" d="M1138.21,-670.651C1210.21,-663.612 1318,-639.827 1318,-560.5 1318,-560.5 1318,-560.5 1318,-283.5 1318,-252.012 1317.14,-215.369 1316.55,-193.879"/>
<polygon fill="midnightblue" stroke="midnightblue" points="1320.04,-193.523 1316.25,-183.628 1313.04,-193.724 1320.04,-193.523"/>
</g>
<!-- Node3 -->
<g id="node3" class="node"><title>Node3</title>
<g id="a_node3"><a xlink:href="$AP__HAL__Empty_8h.html" xlink:title="AP_HAL_Empty.h">
<polygon fill="white" stroke="black" points="441.071,-550.5 441.071,-568.5 536.929,-568.5 536.929,-550.5 441.071,-550.5"/>
<text text-anchor="middle" x="489" y="-556.5" font-family="Helvetica,sans-Serif" font-size="10.00">AP_HAL_Empty.h</text>
</a>
</g>
</g>
<!-- Node2&#45;&gt;Node3 -->
<g id="edge2" class="edge"><title>Node2&#45;&gt;Node3</title>
<path fill="none" stroke="midnightblue" d="M797.541,-608.175C738.926,-599.118 619.195,-580.618 547.336,-569.514"/>
<polygon fill="midnightblue" stroke="midnightblue" points="547.512,-566 537.095,-567.932 546.443,-572.918 547.512,-566"/>
</g>
<!-- Node4 -->
<g id="node4" class="node"><title>Node4</title>
<g id="a_node4"><a xlink:href="$AP__HAL_8h.html" xlink:title="AP_HAL/AP_HAL.h">
<polygon fill="white" stroke="black" points="510.086,-440.5 510.086,-458.5 613.914,-458.5 613.914,-440.5 510.086,-440.5"/>
<text text-anchor="middle" x="562" y="-446.5" font-family="Helvetica,sans-Serif" font-size="10.00">AP_HAL/AP_HAL.h</text>
</a>
</g>
</g>
<!-- Node3&#45;&gt;Node4 -->
<g id="edge3" class="edge"><title>Node3&#45;&gt;Node4</title>
<path fill="none" stroke="midnightblue" d="M494.487,-550.382C506.377,-532.791 534.729,-490.846 550.652,-467.289"/>
<polygon fill="midnightblue" stroke="midnightblue" points="553.749,-468.957 556.449,-458.712 547.95,-465.037 553.749,-468.957"/>
</g>
<!-- Node32 -->
<g id="node32" class="node"><title>Node32</title>
<g id="a_node32"><a xlink:href="$HAL__Empty__Class_8h.html" xlink:title="HAL_Empty_Class.h">
<polygon fill="white" stroke="black" points="378.87,-495.5 378.87,-513.5 487.13,-513.5 487.13,-495.5 378.87,-495.5"/>
<text text-anchor="middle" x="433" y="-501.5" font-family="Helvetica,sans-Serif" font-size="10.00">HAL_Empty_Class.h</text>
</a>
</g>
</g>
<!-- Node3&#45;&gt;Node32 -->
<g id="edge70" class="edge"><title>Node3&#45;&gt;Node32</title>
<path fill="none" stroke="midnightblue" d="M480.25,-550.219C471.9,-542.316 459.124,-530.224 448.961,-520.606"/>
<polygon fill="midnightblue" stroke="midnightblue" points="451.174,-517.881 441.505,-513.55 446.362,-522.965 451.174,-517.881"/>
</g>
<!-- Node5 -->
<g id="node5" class="node"><title>Node5</title>
<polygon fill="white" stroke="#bfbfbf" points="769.879,-110.5 769.879,-128.5 818.121,-128.5 818.121,-110.5 769.879,-110.5"/>
<text text-anchor="middle" x="794" y="-116.5" font-family="Helvetica,sans-Serif" font-size="10.00">stdint.h</text>
</g>
<!-- Node4&#45;&gt;Node5 -->
<g id="edge4" class="edge"><title>Node4&#45;&gt;Node5</title>
<path fill="none" stroke="midnightblue" d="M614.263,-446.999C709.889,-443.571 908.903,-433.08 971,-404 1080.02,-352.947 1096.35,-299.87 1129,-184 1131.29,-175.872 1134.56,-171.352 1129,-165 1109.37,-142.588 909.974,-127.725 828.452,-122.542"/>
<polygon fill="midnightblue" stroke="midnightblue" points="828.409,-119.033 818.211,-121.903 827.973,-126.019 828.409,-119.033"/>
</g>
<!-- Node6 -->
<g id="node6" class="node"><title>Node6</title>
<polygon fill="white" stroke="#bfbfbf" points="550.707,-110.5 550.707,-128.5 607.293,-128.5 607.293,-110.5 550.707,-110.5"/>
<text text-anchor="middle" x="579" y="-116.5" font-family="Helvetica,sans-Serif" font-size="10.00">stdbool.h</text>
</g>
<!-- Node4&#45;&gt;Node6 -->
<g id="edge5" class="edge"><title>Node4&#45;&gt;Node6</title>
<path fill="none" stroke="midnightblue" d="M569.031,-440.186C587.132,-418.157 635.028,-355.735 651,-294 660.26,-258.207 637.414,-247.764 613,-220 597.206,-202.039 582.731,-205.849 573,-184 566.594,-169.617 569.155,-151.622 572.698,-138.464"/>
<polygon fill="midnightblue" stroke="midnightblue" points="576.097,-139.324 575.73,-128.735 569.414,-137.241 576.097,-139.324"/>
</g>
<!-- Node7 -->
<g id="node7" class="node"><title>Node7</title>
<g id="a_node7"><a xlink:href="$AP__HAL__Namespace_8h.html" xlink:title="AP_HAL_Namespace.h">
<polygon fill="white" stroke="black" points="341.192,-55.5 341.192,-73.5 462.808,-73.5 462.808,-55.5 341.192,-55.5"/>
<text text-anchor="middle" x="402" y="-61.5" font-family="Helvetica,sans-Serif" font-size="10.00">AP_HAL_Namespace.h</text>
</a>
</g>
</g>
<!-- Node4&#45;&gt;Node7 -->
<g id="edge6" class="edge"><title>Node4&#45;&gt;Node7</title>
<path fill="none" stroke="midnightblue" d="M614.157,-447.647C735.207,-445.143 1032.05,-435.849 1126,-404 1175.15,-387.338 1224,-392.4 1224,-340.5 1224,-340.5 1224,-340.5 1224,-173.5 1224,-101.515 1145.02,-126.722 1075,-110 962.456,-83.1204 622.583,-71.2216 473.451,-67.1931"/>
<polygon fill="midnightblue" stroke="midnightblue" points="473.139,-63.6836 463.049,-66.9165 472.953,-70.6812 473.139,-63.6836"/>
</g>
<!-- Node10 -->
<g id="node10" class="node"><title>Node10</title>
<g id="a_node10"><a xlink:href="$AP__HAL__Boards_8h.html" xlink:title="AP_HAL_Boards.h">
<polygon fill="white" stroke="black" points="1020.03,-165.5 1020.03,-183.5 1119.97,-183.5 1119.97,-165.5 1020.03,-165.5"/>
<text text-anchor="middle" x="1070" y="-171.5" font-family="Helvetica,sans-Serif" font-size="10.00">AP_HAL_Boards.h</text>
</a>
</g>
</g>
<!-- Node4&#45;&gt;Node10 -->
<g id="edge9" class="edge"><title>Node4&#45;&gt;Node10</title>
<path fill="none" stroke="midnightblue" d="M614.292,-446.97C733.272,-442.071 1014,-421.887 1014,-340.5 1014,-340.5 1014,-340.5 1014,-283.5 1014,-247.44 1038.91,-211.441 1055.5,-191.461"/>
<polygon fill="midnightblue" stroke="midnightblue" points="1058.32,-193.549 1062.21,-183.695 1053.03,-188.972 1058.32,-193.549"/>
</g>
<!-- Node11 -->
<g id="node11" class="node"><title>Node11</title>
<g id="a_node11"><a xlink:href="$AP__HAL__Macros_8h.html" xlink:title="AP_HAL_Macros.h">
<polygon fill="white" stroke="black" points="104.48,-385.5 104.48,-403.5 205.52,-403.5 205.52,-385.5 104.48,-385.5"/>
<text text-anchor="middle" x="155" y="-391.5" font-family="Helvetica,sans-Serif" font-size="10.00">AP_HAL_Macros.h</text>
</a>
</g>
</g>
<!-- Node4&#45;&gt;Node11 -->
<g id="edge10" class="edge"><title>Node4&#45;&gt;Node11</title>
<path fill="none" stroke="midnightblue" d="M509.762,-441.182C506.798,-440.779 503.862,-440.383 501,-440 376.201,-423.311 344.868,-420.163 220,-404 218.699,-403.832 217.382,-403.661 216.056,-403.489"/>
<polygon fill="midnightblue" stroke="midnightblue" points="216.108,-399.966 205.74,-402.148 215.206,-406.908 216.108,-399.966"/>
</g>
<!-- Node12 -->
<g id="node12" class="node"><title>Node12</title>
<g id="a_node12"><a xlink:href="$AP__HAL__Main_8h.html" xlink:title="AP_HAL_Main.h">
<polygon fill="white" stroke="black" points="349.035,-385.5 349.035,-403.5 438.965,-403.5 438.965,-385.5 349.035,-385.5"/>
<text text-anchor="middle" x="394" y="-391.5" font-family="Helvetica,sans-Serif" font-size="10.00">AP_HAL_Main.h</text>
</a>
</g>
</g>
<!-- Node4&#45;&gt;Node12 -->
<g id="edge11" class="edge"><title>Node4&#45;&gt;Node12</title>
<path fill="none" stroke="midnightblue" d="M536.484,-440.45C507.909,-431.436 461.407,-416.765 429.342,-406.65"/>
<polygon fill="midnightblue" stroke="midnightblue" points="430.07,-403.209 419.48,-403.538 427.964,-409.885 430.07,-403.209"/>
</g>
<!-- Node13 -->
<g id="node13" class="node"><title>Node13</title>
<g id="a_node13"><a xlink:href="$HAL_8h.html" xlink:title="HAL.h">
<polygon fill="white" stroke="black" points="385.104,-330.5 385.104,-348.5 428.896,-348.5 428.896,-330.5 385.104,-330.5"/>
<text text-anchor="middle" x="407" y="-336.5" font-family="Helvetica,sans-Serif" font-size="10.00">HAL.h</text>
</a>
</g>
</g>
<!-- Node4&#45;&gt;Node13 -->
<g id="edge69" class="edge"><title>Node4&#45;&gt;Node13</title>
<path fill="none" stroke="midnightblue" d="M548.427,-440.477C533.968,-431.82 510.522,-417.459 491,-404 467.673,-387.918 441.803,-368.035 425.019,-354.847"/>
<polygon fill="midnightblue" stroke="midnightblue" points="427.149,-352.069 417.132,-348.616 422.809,-357.561 427.149,-352.069"/>
</g>
<!-- Node14 -->
<g id="node14" class="node"><title>Node14</title>
<g id="a_node14"><a xlink:href="$AnalogIn_8h.html" xlink:title="AnalogIn.h">
<polygon fill="white" stroke="black" points="242.091,-220.5 242.091,-238.5 305.909,-238.5 305.909,-220.5 242.091,-220.5"/>
<text text-anchor="middle" x="274" y="-226.5" font-family="Helvetica,sans-Serif" font-size="10.00">AnalogIn.h</text>
</a>
</g>
</g>
<!-- Node4&#45;&gt;Node14 -->
<g id="edge51" class="edge"><title>Node4&#45;&gt;Node14</title>
<path fill="none" stroke="midnightblue" d="M512.337,-440.457C444.746,-429.33 331.292,-409.941 324,-404 276.633,-365.408 272.409,-285.01 273.091,-248.834"/>
<polygon fill="midnightblue" stroke="midnightblue" points="276.592,-248.865 273.436,-238.751 269.596,-248.626 276.592,-248.865"/>
</g>
<!-- Node16 -->
<g id="node16" class="node"><title>Node16</title>
<g id="a_node16"><a xlink:href="$GPIO_8h.html" xlink:title="GPIO.h">
<polygon fill="white" stroke="black" points="777.328,-220.5 777.328,-238.5 826.672,-238.5 826.672,-220.5 777.328,-220.5"/>
<text text-anchor="middle" x="802" y="-226.5" font-family="Helvetica,sans-Serif" font-size="10.00">GPIO.h</text>
</a>
</g>
</g>
<!-- Node4&#45;&gt;Node16 -->
<g id="edge53" class="edge"><title>Node4&#45;&gt;Node16</title>
<path fill="none" stroke="midnightblue" d="M614.075,-445.186C648.209,-440.542 691.917,-429.598 722,-404 771.009,-362.299 791.682,-284.161 798.82,-248.761"/>
<polygon fill="midnightblue" stroke="midnightblue" points="802.271,-249.344 800.681,-238.869 795.392,-248.05 802.271,-249.344"/>
</g>
<!-- Node17 -->
<g id="node17" class="node"><title>Node17</title>
<g id="a_node17"><a xlink:href="$RCInput_8h.html" xlink:title="RCInput.h">
<polygon fill="white" stroke="black" points="46.4878,-275.5 46.4878,-293.5 107.512,-293.5 107.512,-275.5 46.4878,-275.5"/>
<text text-anchor="middle" x="77" y="-281.5" font-family="Helvetica,sans-Serif" font-size="10.00">RCInput.h</text>
</a>
</g>
</g>
<!-- Node4&#45;&gt;Node17 -->
<g id="edge54" class="edge"><title>Node4&#45;&gt;Node17</title>
<path fill="none" stroke="midnightblue" d="M509.779,-441.04C506.811,-440.673 503.869,-440.323 501,-440 454.677,-434.781 115.375,-437.54 83,-404 57.2128,-377.285 64.7646,-329.443 71.4916,-303.469"/>
<polygon fill="midnightblue" stroke="midnightblue" points="74.8722,-304.376 74.2245,-293.801 68.1362,-302.472 74.8722,-304.376"/>
</g>
<!-- Node18 -->
<g id="node18" class="node"><title>Node18</title>
<g id="a_node18"><a xlink:href="$RCOutput_8h.html" xlink:title="RCOutput.h">
<polygon fill="white" stroke="black" points="125.599,-275.5 125.599,-293.5 194.401,-293.5 194.401,-275.5 125.599,-275.5"/>
<text text-anchor="middle" x="160" y="-281.5" font-family="Helvetica,sans-Serif" font-size="10.00">RCOutput.h</text>
</a>
</g>
</g>
<!-- Node4&#45;&gt;Node18 -->
<g id="edge55" class="edge"><title>Node4&#45;&gt;Node18</title>
<path fill="none" stroke="midnightblue" d="M509.778,-441.048C506.81,-440.679 503.868,-440.327 501,-440 456.003,-434.873 125.577,-437.408 95,-404 65.5679,-371.843 113.086,-323.951 141.369,-300.097"/>
<polygon fill="midnightblue" stroke="midnightblue" points="143.897,-302.551 149.422,-293.51 139.465,-297.132 143.897,-302.551"/>
</g>
<!-- Node19 -->
<g id="node19" class="node"><title>Node19</title>
<g id="a_node19"><a xlink:href="$SPIDriver_8h.html" xlink:title="SPIDriver.h">
<polygon fill="white" stroke="black" points="287.712,-275.5 287.712,-293.5 354.288,-293.5 354.288,-275.5 287.712,-275.5"/>
<text text-anchor="middle" x="321" y="-281.5" font-family="Helvetica,sans-Serif" font-size="10.00">SPIDriver.h</text>
</a>
</g>
</g>
<!-- Node4&#45;&gt;Node19 -->
<g id="edge50" class="edge"><title>Node4&#45;&gt;Node19</title>
<path fill="none" stroke="midnightblue" d="M510.034,-441.245C448.184,-432.129 351.735,-416.2 340,-404 314.081,-377.054 315.163,-329.66 318.127,-303.724"/>
<polygon fill="midnightblue" stroke="midnightblue" points="321.604,-304.136 319.486,-293.755 314.668,-303.191 321.604,-304.136"/>
</g>
<!-- Node20 -->
<g id="node20" class="node"><title>Node20</title>
<g id="a_node20"><a xlink:href="$Storage_8h.html" xlink:title="Storage.h">
<polygon fill="white" stroke="black" points="448.318,-275.5 448.318,-293.5 507.682,-293.5 507.682,-275.5 448.318,-275.5"/>
<text text-anchor="middle" x="478" y="-281.5" font-family="Helvetica,sans-Serif" font-size="10.00">Storage.h</text>
</a>
</g>
</g>
<!-- Node4&#45;&gt;Node20 -->
<g id="edge52" class="edge"><title>Node4&#45;&gt;Node20</title>
<path fill="none" stroke="midnightblue" d="M555.063,-440.369C547.923,-431.737 536.773,-417.504 529,-404 509.421,-369.982 492.748,-327.007 484.178,-303.28"/>
<polygon fill="midnightblue" stroke="midnightblue" points="487.375,-301.824 480.736,-293.567 480.777,-304.162 487.375,-301.824"/>
</g>
<!-- Node21 -->
<g id="node21" class="node"><title>Node21</title>
<g id="a_node21"><a xlink:href="$UARTDriver_8h.html" xlink:title="UARTDriver.h">
<polygon fill="white" stroke="black" points="564.248,-275.5 564.248,-293.5 641.752,-293.5 641.752,-275.5 564.248,-275.5"/>
<text text-anchor="middle" x="603" y="-281.5" font-family="Helvetica,sans-Serif" font-size="10.00">UARTDriver.h</text>
</a>
</g>
</g>
<!-- Node4&#45;&gt;Node21 -->
<g id="edge46" class="edge"><title>Node4&#45;&gt;Node21</title>
<path fill="none" stroke="midnightblue" d="M564.09,-440.193C570.451,-414.903 589.68,-338.453 598.496,-303.405"/>
<polygon fill="midnightblue" stroke="midnightblue" points="601.918,-304.149 600.963,-293.597 595.13,-302.441 601.918,-304.149"/>
</g>
<!-- Node24 -->
<g id="node24" class="node"><title>Node24</title>
<g id="a_node24"><a xlink:href="$BetterStream_8h.html" xlink:title="utility/BetterStream.h">
<polygon fill="white" stroke="black" points="477.594,-220.5 477.594,-238.5 586.406,-238.5 586.406,-220.5 477.594,-220.5"/>
<text text-anchor="middle" x="532" y="-226.5" font-family="Helvetica,sans-Serif" font-size="10.00">utility/BetterStream.h</text>
</a>
</g>
</g>
<!-- Node4&#45;&gt;Node24 -->
<g id="edge68" class="edge"><title>Node4&#45;&gt;Node24</title>
<path fill="none" stroke="midnightblue" d="M560.897,-440.483C556.579,-409.107 540.76,-294.159 534.538,-248.944"/>
<polygon fill="midnightblue" stroke="midnightblue" points="537.976,-248.253 533.145,-238.823 531.041,-249.207 537.976,-248.253"/>
</g>
<!-- Node26 -->
<g id="node26" class="node"><title>Node26</title>
<g id="a_node26"><a xlink:href="$Stream_8h.html" xlink:title="Stream.h">
<polygon fill="white" stroke="black" points="203.714,-165.5 203.714,-183.5 260.286,-183.5 260.286,-165.5 203.714,-165.5"/>
<text text-anchor="middle" x="232" y="-171.5" font-family="Helvetica,sans-Serif" font-size="10.00">Stream.h</text>
</a>
</g>
</g>
<!-- Node4&#45;&gt;Node26 -->
<g id="edge67" class="edge"><title>Node4&#45;&gt;Node26</title>
<path fill="none" stroke="midnightblue" d="M510.045,-440.791C437.076,-429.783 312.164,-410.206 304,-404 286.84,-390.955 241.066,-278.381 233,-239 229.951,-224.114 229.895,-206.853 230.493,-194.088"/>
<polygon fill="midnightblue" stroke="midnightblue" points="234.004,-194.032 231.159,-183.826 227.019,-193.578 234.004,-194.032"/>
</g>
<!-- Node27 -->
<g id="node27" class="node"><title>Node27</title>
<g id="a_node27"><a xlink:href="$Print_8h.html" xlink:title="Print.h">
<polygon fill="white" stroke="black" points="65.5493,-110.5 65.5493,-128.5 110.451,-128.5 110.451,-110.5 65.5493,-110.5"/>
<text text-anchor="middle" x="88" y="-116.5" font-family="Helvetica,sans-Serif" font-size="10.00">Print.h</text>
</a>
</g>
</g>
<!-- Node4&#45;&gt;Node27 -->
<g id="edge66" class="edge"><title>Node4&#45;&gt;Node27</title>
<path fill="none" stroke="midnightblue" d="M509.78,-441.029C506.812,-440.665 503.869,-440.319 501,-440 405.037,-429.333 156.278,-443.113 68,-404 30.1939,-387.25 0,-381.851 0,-340.5 0,-340.5 0,-340.5 0,-228.5 0,-186.96 39.6092,-152.547 65.6801,-134.395"/>
<polygon fill="midnightblue" stroke="midnightblue" points="67.8806,-137.134 74.25,-128.668 63.991,-131.315 67.8806,-137.134"/>
</g>
<!-- Node28 -->
<g id="node28" class="node"><title>Node28</title>
<g id="a_node28"><a xlink:href="$I2CDriver_8h.html" xlink:title="I2CDriver.h">
<polygon fill="white" stroke="black" points="821.99,-165.5 821.99,-183.5 888.01,-183.5 888.01,-165.5 821.99,-165.5"/>
<text text-anchor="middle" x="855" y="-171.5" font-family="Helvetica,sans-Serif" font-size="10.00">I2CDriver.h</text>
</a>
</g>
</g>
<!-- Node4&#45;&gt;Node28 -->
<g id="edge47" class="edge"><title>Node4&#45;&gt;Node28</title>
<path fill="none" stroke="midnightblue" d="M613.037,-440.475C696.983,-425.818 855,-391.461 855,-340.5 855,-340.5 855,-340.5 855,-283.5 855,-252.018 855,-215.373 855,-193.881"/>
<polygon fill="midnightblue" stroke="midnightblue" points="858.5,-193.629 855,-183.629 851.5,-193.629 858.5,-193.629"/>
</g>
<!-- Node29 -->
<g id="node29" class="node"><title>Node29</title>
<g id="a_node29"><a xlink:href="$Scheduler_8h.html" xlink:title="Scheduler.h">
<polygon fill="white" stroke="black" points="882.589,-220.5 882.589,-238.5 951.411,-238.5 951.411,-220.5 882.589,-220.5"/>
<text text-anchor="middle" x="917" y="-226.5" font-family="Helvetica,sans-Serif" font-size="10.00">Scheduler.h</text>
</a>
</g>
</g>
<!-- Node4&#45;&gt;Node29 -->
<g id="edge56" class="edge"><title>Node4&#45;&gt;Node29</title>
<path fill="none" stroke="midnightblue" d="M613.953,-447.647C691.424,-445.298 832.082,-436.538 869,-404 914.5,-363.898 918.6,-284.893 917.921,-249.012"/>
<polygon fill="midnightblue" stroke="midnightblue" points="921.405,-248.487 917.56,-238.615 914.409,-248.73 921.405,-248.487"/>
</g>
<!-- Node30 -->
<g id="node30" class="node"><title>Node30</title>
<g id="a_node30"><a xlink:href="$Semaphores_8h.html" xlink:title="Semaphores.h">
<polygon fill="white" stroke="black" points="1114.48,-330.5 1114.48,-348.5 1195.52,-348.5 1195.52,-330.5 1114.48,-330.5"/>
<text text-anchor="middle" x="1155" y="-336.5" font-family="Helvetica,sans-Serif" font-size="10.00">Semaphores.h</text>
</a>
</g>
</g>
<!-- Node4&#45;&gt;Node30 -->
<g id="edge61" class="edge"><title>Node4&#45;&gt;Node30</title>
<path fill="none" stroke="midnightblue" d="M614.198,-449.125C732.251,-449.754 1016.01,-446.638 1100,-404 1120.06,-393.818 1135.91,-372.859 1145.34,-357.803"/>
<polygon fill="midnightblue" stroke="midnightblue" points="1148.51,-359.321 1150.59,-348.934 1142.49,-355.754 1148.51,-359.321"/>
</g>
<!-- Node31 -->
<g id="node31" class="node"><title>Node31</title>
<g id="a_node31"><a xlink:href="$Util_8h.html" xlink:title="Util.h">
<polygon fill="white" stroke="black" points="1251.61,-220.5 1251.61,-238.5 1290.39,-238.5 1290.39,-220.5 1251.61,-220.5"/>
<text text-anchor="middle" x="1271" y="-226.5" font-family="Helvetica,sans-Serif" font-size="10.00">Util.h</text>
</a>
</g>
</g>
<!-- Node4&#45;&gt;Node31 -->
<g id="edge63" class="edge"><title>Node4&#45;&gt;Node31</title>
<path fill="none" stroke="midnightblue" d="M614.079,-448.669C764.464,-448.666 1191.64,-445.012 1238,-404 1282.76,-364.402 1278.49,-284.53 1273.91,-248.662"/>
<polygon fill="midnightblue" stroke="midnightblue" points="1277.36,-248.069 1272.47,-238.67 1270.43,-249.066 1277.36,-248.069"/>
</g>
<!-- Node8 -->
<g id="node8" class="node"><title>Node8</title>
<polygon fill="white" stroke="#bfbfbf" points="250.604,-0.5 250.604,-18.5 299.396,-18.5 299.396,-0.5 250.604,-0.5"/>
<text text-anchor="middle" x="275" y="-6.5" font-family="Helvetica,sans-Serif" font-size="10.00">string.h</text>
</g>
<!-- Node7&#45;&gt;Node8 -->
<g id="edge7" class="edge"><title>Node7&#45;&gt;Node8</title>
<path fill="none" stroke="midnightblue" d="M382.711,-55.4504C361.732,-46.6951 327.97,-32.6055 303.838,-22.5346"/>
<polygon fill="midnightblue" stroke="midnightblue" points="305.047,-19.2467 294.47,-18.6253 302.351,-25.7067 305.047,-19.2467"/>
</g>
<!-- Node9 -->
<g id="node9" class="node"><title>Node9</title>
<g id="a_node9"><a xlink:href="$functor_8h.html" xlink:title="utility/functor.h">
<polygon fill="white" stroke="black" points="362.037,-0.5 362.037,-18.5 441.963,-18.5 441.963,-0.5 362.037,-0.5"/>
<text text-anchor="middle" x="402" y="-6.5" font-family="Helvetica,sans-Serif" font-size="10.00">utility/functor.h</text>
</a>
</g>
</g>
<!-- Node7&#45;&gt;Node9 -->
<g id="edge8" class="edge"><title>Node7&#45;&gt;Node9</title>
<path fill="none" stroke="midnightblue" d="M402,-55.2188C402,-48.1769 402,-37.8083 402,-28.8277"/>
<polygon fill="midnightblue" stroke="midnightblue" points="405.5,-28.5495 402,-18.5496 398.5,-28.5496 405.5,-28.5495"/>
</g>
<!-- Node12&#45;&gt;Node13 -->
<g id="edge12" class="edge"><title>Node12&#45;&gt;Node13</title>
<path fill="none" stroke="midnightblue" d="M396.031,-385.219C397.778,-378.099 400.358,-367.577 402.578,-358.529"/>
<polygon fill="midnightblue" stroke="midnightblue" points="406.043,-359.095 405.026,-348.55 399.244,-357.428 406.043,-359.095"/>
</g>
<!-- Node13&#45;&gt;Node7 -->
<g id="edge13" class="edge"><title>Node13&#45;&gt;Node7</title>
<path fill="none" stroke="midnightblue" d="M406.85,-330.33C406.165,-292.888 403.314,-137.234 402.333,-83.689"/>
<polygon fill="midnightblue" stroke="midnightblue" points="405.832,-83.5727 402.149,-73.6385 398.833,-83.7009 405.832,-83.5727"/>
</g>
<!-- Node13&#45;&gt;Node14 -->
<g id="edge14" class="edge"><title>Node13&#45;&gt;Node14</title>
<path fill="none" stroke="midnightblue" d="M402.941,-330.093C396.219,-316.897 381.647,-291.166 363,-275 346.7,-260.869 325.125,-249.936 307.3,-242.443"/>
<polygon fill="midnightblue" stroke="midnightblue" points="308.424,-239.122 297.84,-238.635 305.81,-245.616 308.424,-239.122"/>
</g>
<!-- Node13&#45;&gt;Node16 -->
<g id="edge17" class="edge"><title>Node13&#45;&gt;Node16</title>
<path fill="none" stroke="midnightblue" d="M428.914,-336.126C472.094,-331.096 570.934,-317.826 651,-294 696.795,-280.372 747.518,-257.282 776.976,-243.019"/>
<polygon fill="midnightblue" stroke="midnightblue" points="778.67,-246.087 786.113,-238.547 775.593,-239.799 778.67,-246.087"/>
</g>
<!-- Node13&#45;&gt;Node17 -->
<g id="edge20" class="edge"><title>Node13&#45;&gt;Node17</title>
<path fill="none" stroke="midnightblue" d="M385.101,-335.575C338.106,-329.206 223.907,-313.236 117.482,-293.989"/>
<polygon fill="midnightblue" stroke="midnightblue" points="118.005,-290.527 107.539,-292.177 116.75,-297.414 118.005,-290.527"/>
</g>
<!-- Node13&#45;&gt;Node18 -->
<g id="edge22" class="edge"><title>Node13&#45;&gt;Node18</title>
<path fill="none" stroke="midnightblue" d="M385.08,-333.797C344.706,-325.133 257.859,-306.498 204.627,-295.076"/>
<polygon fill="midnightblue" stroke="midnightblue" points="205.287,-291.638 194.775,-292.962 203.819,-298.482 205.287,-291.638"/>
</g>
<!-- Node13&#45;&gt;Node19 -->
<g id="edge24" class="edge"><title>Node13&#45;&gt;Node19</title>
<path fill="none" stroke="midnightblue" d="M393.938,-330.45C380.426,-322.123 359.084,-308.97 342.97,-299.039"/>
<polygon fill="midnightblue" stroke="midnightblue" points="344.534,-295.892 334.184,-293.625 340.861,-301.851 344.534,-295.892"/>
</g>
<!-- Node13&#45;&gt;Node20 -->
<g id="edge26" class="edge"><title>Node13&#45;&gt;Node20</title>
<path fill="none" stroke="midnightblue" d="M417.783,-330.45C428.626,-322.357 445.576,-309.704 458.733,-299.882"/>
<polygon fill="midnightblue" stroke="midnightblue" points="461.195,-302.412 467.115,-293.625 457.008,-296.803 461.195,-302.412"/>
</g>
<!-- Node13&#45;&gt;Node21 -->
<g id="edge29" class="edge"><title>Node13&#45;&gt;Node21</title>
<path fill="none" stroke="midnightblue" d="M429.103,-332.523C461.682,-323.713 523.097,-307.106 563.532,-296.173"/>
<polygon fill="midnightblue" stroke="midnightblue" points="564.589,-299.512 573.329,-293.523 562.762,-292.755 564.589,-299.512"/>
</g>
<!-- Node14&#45;&gt;Node7 -->
<g id="edge16" class="edge"><title>Node14&#45;&gt;Node7</title>
<path fill="none" stroke="midnightblue" d="M274.482,-220.261C276.117,-199.36 283.098,-143.56 312,-110 325.244,-94.6211 345.059,-84.026 362.728,-77.0446"/>
<polygon fill="midnightblue" stroke="midnightblue" points="364.094,-80.2713 372.268,-73.5303 361.674,-73.7028 364.094,-80.2713"/>
</g>
<!-- Node15 -->
<g id="node15" class="node"><title>Node15</title>
<polygon fill="white" stroke="#bfbfbf" points="33.5986,-55.5 33.5986,-73.5 92.4014,-73.5 92.4014,-55.5 33.5986,-55.5"/>
<text text-anchor="middle" x="63" y="-61.5" font-family="Helvetica,sans-Serif" font-size="10.00">inttypes.h</text>
</g>
<!-- Node14&#45;&gt;Node15 -->
<g id="edge15" class="edge"><title>Node14&#45;&gt;Node15</title>
<path fill="none" stroke="midnightblue" d="M241.932,-224.547C192.266,-216.506 98.18,-193.185 57,-129 48.3183,-115.468 51.4139,-96.8608 55.7206,-83.2873"/>
<polygon fill="midnightblue" stroke="midnightblue" points="59.0886,-84.2678 59.2322,-73.6739 52.5135,-81.866 59.0886,-84.2678"/>
</g>
<!-- Node16&#45;&gt;Node5 -->
<g id="edge18" class="edge"><title>Node16&#45;&gt;Node5</title>
<path fill="none" stroke="midnightblue" d="M801.399,-220.382C800.125,-203.182 797.126,-162.698 795.362,-138.887"/>
<polygon fill="midnightblue" stroke="midnightblue" points="798.838,-138.426 794.608,-128.712 791.857,-138.943 798.838,-138.426"/>
</g>
<!-- Node16&#45;&gt;Node7 -->
<g id="edge19" class="edge"><title>Node16&#45;&gt;Node7</title>
<path fill="none" stroke="midnightblue" d="M826.75,-224.508C849.403,-219.4 881.657,-208.129 897,-184 919.204,-149.08 864.756,-118.128 849,-110 785.297,-77.1395 582.608,-68.526 473.374,-66.2811"/>
<polygon fill="midnightblue" stroke="midnightblue" points="473.169,-62.7765 463.103,-66.0831 473.034,-69.7752 473.169,-62.7765"/>
</g>
<!-- Node17&#45;&gt;Node7 -->
<g id="edge21" class="edge"><title>Node17&#45;&gt;Node7</title>
<path fill="none" stroke="midnightblue" d="M81.1999,-275.403C96.0915,-247.543 149.343,-154.882 221,-110 253.823,-89.4419 295.517,-78.3798 330.614,-72.4281"/>
<polygon fill="midnightblue" stroke="midnightblue" points="331.472,-75.8358 340.799,-70.8108 330.374,-68.9224 331.472,-75.8358"/>
</g>
<!-- Node18&#45;&gt;Node7 -->
<g id="edge23" class="edge"><title>Node18&#45;&gt;Node7</title>
<path fill="none" stroke="midnightblue" d="M160.916,-275.438C163.489,-255.409 172.143,-202.317 195,-165 213.555,-134.706 222.251,-127.791 253,-110 281.428,-93.5514 316.486,-82.6866 345.453,-75.8132"/>
<polygon fill="midnightblue" stroke="midnightblue" points="346.449,-79.1761 355.424,-73.5458 344.897,-72.3504 346.449,-79.1761"/>
</g>
<!-- Node19&#45;&gt;Node7 -->
<g id="edge25" class="edge"><title>Node19&#45;&gt;Node7</title>
<path fill="none" stroke="midnightblue" d="M320.471,-275.253C319.174,-249.135 318.001,-166.634 350,-110 356.941,-97.7151 368.632,-87.2522 379.172,-79.5642"/>
<polygon fill="midnightblue" stroke="midnightblue" points="381.349,-82.3155 387.626,-73.78 377.396,-76.5383 381.349,-82.3155"/>
</g>
<!-- Node20&#45;&gt;Node5 -->
<g id="edge27" class="edge"><title>Node20&#45;&gt;Node5</title>
<path fill="none" stroke="midnightblue" d="M473.756,-275.421C467.703,-262.676 458.429,-237.549 469,-220 495.98,-175.211 523.75,-182.564 573,-165 636.855,-142.227 715.478,-129.898 759.649,-124.306"/>
<polygon fill="midnightblue" stroke="midnightblue" points="760.344,-127.747 769.845,-123.058 759.494,-120.799 760.344,-127.747"/>
</g>
<!-- Node20&#45;&gt;Node7 -->
<g id="edge28" class="edge"><title>Node20&#45;&gt;Node7</title>
<path fill="none" stroke="midnightblue" d="M474.775,-275.332C471.286,-266.432 465.604,-251.758 461,-239 440.615,-182.515 418.217,-115.008 407.856,-83.4365"/>
<polygon fill="midnightblue" stroke="midnightblue" points="411.153,-82.2597 404.716,-73.8449 404.501,-84.4376 411.153,-82.2597"/>
</g>
<!-- Node21&#45;&gt;Node5 -->
<g id="edge30" class="edge"><title>Node21&#45;&gt;Node5</title>
<path fill="none" stroke="midnightblue" d="M615.461,-275.481C639.921,-259.48 695.45,-221.862 737,-184 753.348,-169.103 770.014,-149.984 781.068,-136.635"/>
<polygon fill="midnightblue" stroke="midnightblue" points="783.852,-138.759 787.461,-128.798 778.427,-134.334 783.852,-138.759"/>
</g>
<!-- Node21&#45;&gt;Node7 -->
<g id="edge35" class="edge"><title>Node21&#45;&gt;Node7</title>
<path fill="none" stroke="midnightblue" d="M604.028,-275.372C605.225,-262.558 605.83,-237.341 595,-220 579.524,-195.221 563.026,-201.982 540,-184 501.827,-154.189 497.03,-141.219 460,-110 447.596,-99.5429 433.118,-88.4337 421.731,-79.9309"/>
<polygon fill="midnightblue" stroke="midnightblue" points="423.478,-76.8701 413.359,-73.7329 419.313,-82.4961 423.478,-76.8701"/>
</g>
<!-- Node22 -->
<g id="node22" class="node"><title>Node22</title>
<g id="a_node22"><a xlink:href="$AP__Common_8h.html" xlink:title="Common definitions and utility routines for the ArduPilot libraries. ">
<polygon fill="white" stroke="black" points="581.973,-165.5 581.973,-183.5 728.027,-183.5 728.027,-165.5 581.973,-165.5"/>
<text text-anchor="middle" x="655" y="-171.5" font-family="Helvetica,sans-Serif" font-size="10.00">AP_Common/AP_Common.h</text>
</a>
</g>
</g>
<!-- Node21&#45;&gt;Node22 -->
<g id="edge31" class="edge"><title>Node21&#45;&gt;Node22</title>
<path fill="none" stroke="midnightblue" d="M607.881,-275.442C613.131,-266.637 621.588,-252.042 628,-239 635.433,-223.882 642.847,-206.212 648.02,-193.356"/>
<polygon fill="midnightblue" stroke="midnightblue" points="651.357,-194.436 651.789,-183.85 644.85,-191.856 651.357,-194.436"/>
</g>
<!-- Node21&#45;&gt;Node24 -->
<g id="edge36" class="edge"><title>Node21&#45;&gt;Node24</title>
<path fill="none" stroke="midnightblue" d="M592.217,-275.45C581.374,-267.357 564.424,-254.704 551.267,-244.882"/>
<polygon fill="midnightblue" stroke="midnightblue" points="552.992,-241.803 542.885,-238.625 548.805,-247.412 552.992,-241.803"/>
</g>
<!-- Node22&#45;&gt;Node5 -->
<g id="edge32" class="edge"><title>Node22&#45;&gt;Node5</title>
<path fill="none" stroke="midnightblue" d="M676.111,-165.45C699.277,-156.617 736.683,-142.355 763.139,-132.267"/>
<polygon fill="midnightblue" stroke="midnightblue" points="764.593,-135.458 772.69,-128.625 762.099,-128.918 764.593,-135.458"/>
</g>
<!-- Node22&#45;&gt;Node6 -->
<g id="edge34" class="edge"><title>Node22&#45;&gt;Node6</title>
<path fill="none" stroke="midnightblue" d="M643.457,-165.45C631.739,-157.279 613.358,-144.46 599.218,-134.6"/>
<polygon fill="midnightblue" stroke="midnightblue" points="600.856,-131.475 590.651,-128.625 596.852,-137.216 600.856,-131.475"/>
</g>
<!-- Node23 -->
<g id="node23" class="node"><title>Node23</title>
<polygon fill="white" stroke="#bfbfbf" points="631.158,-110.5 631.158,-128.5 678.842,-128.5 678.842,-110.5 631.158,-110.5"/>
<text text-anchor="middle" x="655" y="-116.5" font-family="Helvetica,sans-Serif" font-size="10.00">stdlib.h</text>
</g>
<!-- Node22&#45;&gt;Node23 -->
<g id="edge33" class="edge"><title>Node22&#45;&gt;Node23</title>
<path fill="none" stroke="midnightblue" d="M655,-165.219C655,-158.177 655,-147.808 655,-138.828"/>
<polygon fill="midnightblue" stroke="midnightblue" points="658.5,-138.55 655,-128.55 651.5,-138.55 658.5,-138.55"/>
</g>
<!-- Node24&#45;&gt;Node7 -->
<g id="edge39" class="edge"><title>Node24&#45;&gt;Node7</title>
<path fill="none" stroke="midnightblue" d="M525.375,-220.193C504.856,-194.466 442.109,-115.79 414.858,-81.6216"/>
<polygon fill="midnightblue" stroke="midnightblue" points="417.429,-79.2328 408.458,-73.5971 411.957,-83.5975 417.429,-79.2328"/>
</g>
<!-- Node24&#45;&gt;Node22 -->
<g id="edge38" class="edge"><title>Node24&#45;&gt;Node22</title>
<path fill="none" stroke="midnightblue" d="M550.681,-220.45C570.91,-211.734 603.408,-197.731 626.758,-187.669"/>
<polygon fill="midnightblue" stroke="midnightblue" points="628.344,-190.797 636.143,-183.625 625.574,-184.368 628.344,-190.797"/>
</g>
<!-- Node24&#45;&gt;Node25 -->
<g id="edge37" class="edge"><title>Node24&#45;&gt;Node25</title>
<path fill="none" stroke="midnightblue" d="M586.507,-224.815C736.658,-214.665 1153.49,-186.486 1279.47,-177.969"/>
<polygon fill="midnightblue" stroke="midnightblue" points="1279.99,-181.442 1289.73,-177.276 1279.52,-174.458 1279.99,-181.442"/>
</g>
<!-- Node24&#45;&gt;Node26 -->
<g id="edge40" class="edge"><title>Node24&#45;&gt;Node26</title>
<path fill="none" stroke="midnightblue" d="M486.436,-220.45C427.458,-210.031 325.717,-192.057 270.444,-182.292"/>
<polygon fill="midnightblue" stroke="midnightblue" points="270.817,-178.804 260.36,-180.51 269.599,-185.697 270.817,-178.804"/>
</g>
<!-- Node26&#45;&gt;Node7 -->
<g id="edge41" class="edge"><title>Node26&#45;&gt;Node7</title>
<path fill="none" stroke="midnightblue" d="M235.349,-165.236C241.211,-151.77 254.586,-125.083 274,-110 295.309,-93.4444 323.218,-82.791 347.535,-76.0744"/>
<polygon fill="midnightblue" stroke="midnightblue" points="348.56,-79.4243 357.355,-73.5172 346.796,-72.6502 348.56,-79.4243"/>
</g>
<!-- Node26&#45;&gt;Node27 -->
<g id="edge42" class="edge"><title>Node26&#45;&gt;Node27</title>
<path fill="none" stroke="midnightblue" d="M210.129,-165.45C186.024,-156.578 147.037,-142.229 119.609,-132.134"/>
<polygon fill="midnightblue" stroke="midnightblue" points="120.67,-128.795 110.076,-128.625 118.252,-135.364 120.67,-128.795"/>
</g>
<!-- Node27&#45;&gt;Node7 -->
<g id="edge43" class="edge"><title>Node27&#45;&gt;Node7</title>
<path fill="none" stroke="midnightblue" d="M110.798,-112.852C115.168,-111.844 119.716,-110.847 124,-110 195.208,-95.9139 277.353,-83.1954 333.782,-74.9981"/>
<polygon fill="midnightblue" stroke="midnightblue" points="334.614,-78.4144 344.011,-73.5208 333.614,-71.4863 334.614,-78.4144"/>
</g>
<!-- Node27&#45;&gt;Node8 -->
<g id="edge45" class="edge"><title>Node27&#45;&gt;Node8</title>
<path fill="none" stroke="midnightblue" d="M102.055,-110.382C134.082,-91.8861 212.729,-46.4642 251.963,-23.8047"/>
<polygon fill="midnightblue" stroke="midnightblue" points="254.127,-26.5966 261.037,-18.5644 250.627,-20.5349 254.127,-26.5966"/>
</g>
<!-- Node27&#45;&gt;Node15 -->
<g id="edge44" class="edge"><title>Node27&#45;&gt;Node15</title>
<path fill="none" stroke="midnightblue" d="M84.0938,-110.219C80.6245,-102.864 75.4434,-91.8801 71.0844,-82.639"/>
<polygon fill="midnightblue" stroke="midnightblue" points="74.2287,-81.1007 66.797,-73.5496 67.8977,-84.0871 74.2287,-81.1007"/>
</g>
<!-- Node28&#45;&gt;Node5 -->
<g id="edge48" class="edge"><title>Node28&#45;&gt;Node5</title>
<path fill="none" stroke="midnightblue" d="M845.735,-165.45C836.599,-157.512 822.416,-145.189 811.209,-135.452"/>
<polygon fill="midnightblue" stroke="midnightblue" points="813.196,-132.542 803.352,-128.625 808.605,-137.826 813.196,-132.542"/>
</g>
<!-- Node28&#45;&gt;Node7 -->
<g id="edge49" class="edge"><title>Node28&#45;&gt;Node7</title>
<path fill="none" stroke="midnightblue" d="M853.997,-165.263C851.825,-151.335 845.304,-123.343 827,-110 772.246,-70.0852 579.244,-64.4754 473.164,-64.5367"/>
<polygon fill="midnightblue" stroke="midnightblue" points="472.856,-61.0373 462.864,-64.5607 472.872,-68.0373 472.856,-61.0373"/>
</g>
<!-- Node29&#45;&gt;Node5 -->
<g id="edge57" class="edge"><title>Node29&#45;&gt;Node5</title>
<path fill="none" stroke="midnightblue" d="M916.562,-220.433C915.434,-207.25 911.401,-180.962 897,-165 879.008,-145.058 850.517,-133.689 828.057,-127.442"/>
<polygon fill="midnightblue" stroke="midnightblue" points="828.776,-124.014 818.22,-124.92 827.038,-130.794 828.776,-124.014"/>
</g>
<!-- Node29&#45;&gt;Node7 -->
<g id="edge60" class="edge"><title>Node29&#45;&gt;Node7</title>
<path fill="none" stroke="midnightblue" d="M917.945,-220.44C919.096,-208.142 920.192,-184.108 914,-165 904.993,-137.208 903.025,-125.076 878,-110 811.663,-70.0348 589.093,-64.6893 473.322,-64.7275"/>
<polygon fill="midnightblue" stroke="midnightblue" points="473.133,-61.2277 463.139,-64.7448 473.145,-68.2277 473.133,-61.2277"/>
</g>
<!-- Node29&#45;&gt;Node10 -->
<g id="edge59" class="edge"><title>Node29&#45;&gt;Node10</title>
<path fill="none" stroke="midnightblue" d="M940.237,-220.45C965.962,-211.539 1007.64,-197.103 1036.8,-187.001"/>
<polygon fill="midnightblue" stroke="midnightblue" points="1038.24,-190.206 1046.54,-183.625 1035.95,-183.591 1038.24,-190.206"/>
</g>
<!-- Node29&#45;&gt;Node22 -->
<g id="edge58" class="edge"><title>Node29&#45;&gt;Node22</title>
<path fill="none" stroke="midnightblue" d="M882.479,-221.517C837.015,-212.32 756.762,-196.085 704.749,-185.564"/>
<polygon fill="midnightblue" stroke="midnightblue" points="705.237,-182.092 694.742,-183.539 703.849,-188.953 705.237,-182.092"/>
</g>
<!-- Node30&#45;&gt;Node7 -->
<g id="edge62" class="edge"><title>Node30&#45;&gt;Node7</title>
<path fill="none" stroke="midnightblue" d="M1159.05,-330.329C1167.46,-312.608 1186,-269.124 1186,-230.5 1186,-230.5 1186,-230.5 1186,-173.5 1186,-101.876 665.851,-75.2781 472.905,-67.8758"/>
<polygon fill="midnightblue" stroke="midnightblue" points="472.992,-64.3767 462.867,-67.4968 472.728,-71.3717 472.992,-64.3767"/>
</g>
<!-- Node31&#45;&gt;Node7 -->
<g id="edge65" class="edge"><title>Node31&#45;&gt;Node7</title>
<path fill="none" stroke="midnightblue" d="M1271.61,-220.496C1272.78,-198.653 1272.65,-137.799 1238,-110 1208.38,-86.2355 669.862,-71.6129 473.166,-67.0455"/>
<polygon fill="midnightblue" stroke="midnightblue" points="473.019,-63.5412 462.941,-66.81 472.857,-70.5394 473.019,-63.5412"/>
</g>
<!-- Node31&#45;&gt;Node25 -->
<g id="edge64" class="edge"><title>Node31&#45;&gt;Node25</title>
<path fill="none" stroke="midnightblue" d="M1278.03,-220.219C1284.61,-212.473 1294.6,-200.701 1302.69,-191.18"/>
<polygon fill="midnightblue" stroke="midnightblue" points="1305.36,-193.438 1309.17,-183.55 1300.03,-188.907 1305.36,-193.438"/>
</g>
<!-- Node32&#45;&gt;Node4 -->
<g id="edge71" class="edge"><title>Node32&#45;&gt;Node4</title>
<path fill="none" stroke="midnightblue" d="M452.592,-495.45C473.902,-486.695 508.196,-472.606 532.708,-462.535"/>
<polygon fill="midnightblue" stroke="midnightblue" points="534.304,-465.663 542.223,-458.625 531.643,-459.188 534.304,-465.663"/>
</g>
<!-- Node33 -->
<g id="node33" class="node"><title>Node33</title>
<g id="a_node33"><a xlink:href="$AP__HAL__Empty__Namespace_8h.html" xlink:title="AP_HAL_Empty_Namespace.h">
<polygon fill="white" stroke="black" points="336.242,-440.5 336.242,-458.5 491.758,-458.5 491.758,-440.5 336.242,-440.5"/>
<text text-anchor="middle" x="414" y="-446.5" font-family="Helvetica,sans-Serif" font-size="10.00">AP_HAL_Empty_Namespace.h</text>
</a>
</g>
</g>
<!-- Node32&#45;&gt;Node33 -->
<g id="edge72" class="edge"><title>Node32&#45;&gt;Node33</title>
<path fill="none" stroke="midnightblue" d="M430.031,-495.219C427.451,-488.02 423.624,-477.346 420.356,-468.231"/>
<polygon fill="midnightblue" stroke="midnightblue" points="423.555,-466.782 416.886,-458.55 416.966,-469.144 423.555,-466.782"/>
</g>
<!-- Node34 -->
<g id="node34" class="node"><title>Node34</title>
<g id="a_node34"><a xlink:href="$PrivateMember_8h.html" xlink:title="PrivateMember.h">
<polygon fill="white" stroke="black" points="226.205,-440.5 226.205,-458.5 317.795,-458.5 317.795,-440.5 226.205,-440.5"/>
<text text-anchor="middle" x="272" y="-446.5" font-family="Helvetica,sans-Serif" font-size="10.00">PrivateMember.h</text>
</a>
</g>
</g>
<!-- Node32&#45;&gt;Node34 -->
<g id="edge73" class="edge"><title>Node32&#45;&gt;Node34</title>
<path fill="none" stroke="midnightblue" d="M408.548,-495.45C381.281,-486.475 336.984,-471.892 306.269,-461.781"/>
<polygon fill="midnightblue" stroke="midnightblue" points="307.011,-458.341 296.418,-458.538 304.822,-464.99 307.011,-458.341"/>
</g>
<!-- Node34&#45;&gt;Node3 -->
<g id="edge74" class="edge"><title>Node34&#45;&gt;Node3</title>
<path fill="none" stroke="midnightblue" d="M282.703,-458.552C300.239,-471.483 336.5,-497.135 370,-514 396.72,-527.452 428.528,-539.14 452.534,-547.158"/>
<polygon fill="midnightblue" stroke="midnightblue" points="451.714,-550.573 462.307,-550.364 453.896,-543.922 451.714,-550.573"/>
</g>
</g>
</svg>
