<?xml version="1.0" encoding="UTF-8" standalone="no"?>
<!DOCTYPE svg PUBLIC "-//W3C//DTD SVG 1.1//EN"
 "http://www.w3.org/Graphics/SVG/1.1/DTD/svg11.dtd">
<!-- Generated by graphviz version 2.38.0 (20140413.2041)
 -->
<!-- Title: libraries/AP_BattMonitor/AP_BattMonitor_SMBus.h Pages: 1 -->
<svg width="494pt" height="167pt"
 viewBox="0.00 0.00 494.23 167.00" xmlns="http://www.w3.org/2000/svg" xmlns:xlink="http://www.w3.org/1999/xlink">
<g id="graph0" class="graph" transform="scale(1 1) rotate(0) translate(4 163)">
<title>libraries/AP_BattMonitor/AP_BattMonitor_SMBus.h</title>
<polygon fill="white" stroke="none" points="-4,4 -4,-163 490.226,-163 490.226,4 -4,4"/>
<!-- Node1 -->
<g id="node1" class="node"><title>Node1</title>
<polygon fill="#bfbfbf" stroke="black" points="154.438,-130.5 154.438,-158.5 289.384,-158.5 289.384,-130.5 154.438,-130.5"/>
<text text-anchor="start" x="162.438" y="-146.5" font-family="Helvetica,sans-Serif" font-size="10.00">libraries/AP_BattMonitor</text>
<text text-anchor="middle" x="221.911" y="-136.5" font-family="Helvetica,sans-Serif" font-size="10.00">/AP_BattMonitor_SMBus.h</text>
</g>
<!-- Node2 -->
<g id="node2" class="node"><title>Node2</title>
<g id="a_node2"><a xlink:href="$AP__BattMonitor_8cpp.html" xlink:title="libraries/AP_BattMonitor\l/AP_BattMonitor.cpp">
<polygon fill="white" stroke="black" points="0,-65.5 0,-93.5 123.822,-93.5 123.822,-65.5 0,-65.5"/>
<text text-anchor="start" x="8" y="-81.5" font-family="Helvetica,sans-Serif" font-size="10.00">libraries/AP_BattMonitor</text>
<text text-anchor="middle" x="61.9111" y="-71.5" font-family="Helvetica,sans-Serif" font-size="10.00">/AP_BattMonitor.cpp</text>
</a>
</g>
</g>
<!-- Node1&#45;&gt;Node2 -->
<g id="edge1" class="edge"><title>Node1&#45;&gt;Node2</title>
<path fill="none" stroke="midnightblue" d="M179.37,-126.75C152.941,-116.343 119.467,-103.163 95.0208,-93.5369"/>
<polygon fill="midnightblue" stroke="midnightblue" points="178.172,-130.039 188.759,-130.446 180.737,-123.526 178.172,-130.039"/>
</g>
<!-- Node3 -->
<g id="node3" class="node"><title>Node3</title>
<g id="a_node3"><a xlink:href="$AP__BattMonitor__SMBus__PX4_8h.html" xlink:title="libraries/AP_BattMonitor\l/AP_BattMonitor_SMBus_PX4.h">
<polygon fill="white" stroke="black" points="142.207,-65.5 142.207,-93.5 301.615,-93.5 301.615,-65.5 142.207,-65.5"/>
<text text-anchor="start" x="150.207" y="-81.5" font-family="Helvetica,sans-Serif" font-size="10.00">libraries/AP_BattMonitor</text>
<text text-anchor="middle" x="221.911" y="-71.5" font-family="Helvetica,sans-Serif" font-size="10.00">/AP_BattMonitor_SMBus_PX4.h</text>
</a>
</g>
</g>
<!-- Node1&#45;&gt;Node3 -->
<g id="edge2" class="edge"><title>Node1&#45;&gt;Node3</title>
<path fill="none" stroke="midnightblue" d="M215.382,-120.46C214.897,-111.388 215.21,-101.305 216.321,-93.5369"/>
<polygon fill="midnightblue" stroke="midnightblue" points="211.9,-120.817 216.318,-130.446 218.87,-120.163 211.9,-120.817"/>
</g>
<!-- Node5 -->
<g id="node5" class="node"><title>Node5</title>
<g id="a_node5"><a xlink:href="$AP__BattMonitor__SMBus__I2C_8h.html" xlink:title="libraries/AP_BattMonitor\l/AP_BattMonitor_SMBus_I2C.h">
<polygon fill="white" stroke="black" points="319.877,-65.5 319.877,-93.5 475.945,-93.5 475.945,-65.5 319.877,-65.5"/>
<text text-anchor="start" x="327.877" y="-81.5" font-family="Helvetica,sans-Serif" font-size="10.00">libraries/AP_BattMonitor</text>
<text text-anchor="middle" x="397.911" y="-71.5" font-family="Helvetica,sans-Serif" font-size="10.00">/AP_BattMonitor_SMBus_I2C.h</text>
</a>
</g>
</g>
<!-- Node1&#45;&gt;Node5 -->
<g id="edge5" class="edge"><title>Node1&#45;&gt;Node5</title>
<path fill="none" stroke="midnightblue" d="M262.294,-126.886C290.336,-116.459 327.509,-103.205 355.9,-93.5369"/>
<polygon fill="midnightblue" stroke="midnightblue" points="260.924,-123.662 252.786,-130.446 263.378,-130.218 260.924,-123.662"/>
</g>
<!-- Node3&#45;&gt;Node1 -->
<g id="edge3" class="edge"><title>Node3&#45;&gt;Node1</title>
<path fill="none" stroke="midnightblue" d="M228.439,-103.52C228.925,-112.591 228.613,-122.675 227.504,-130.446"/>
<polygon fill="midnightblue" stroke="midnightblue" points="231.921,-103.166 227.501,-93.5369 224.952,-103.82 231.921,-103.166"/>
</g>
<!-- Node4 -->
<g id="node4" class="node"><title>Node4</title>
<g id="a_node4"><a xlink:href="$AP__BattMonitor__SMBus__PX4_8cpp.html" xlink:title="libraries/AP_BattMonitor\l/AP_BattMonitor_SMBus_PX4.cpp">
<polygon fill="white" stroke="black" points="131.926,-0.5 131.926,-28.5 301.896,-28.5 301.896,-0.5 131.926,-0.5"/>
<text text-anchor="start" x="139.926" y="-16.5" font-family="Helvetica,sans-Serif" font-size="10.00">libraries/AP_BattMonitor</text>
<text text-anchor="middle" x="216.911" y="-6.5" font-family="Helvetica,sans-Serif" font-size="10.00">/AP_BattMonitor_SMBus_PX4.cpp</text>
</a>
</g>
</g>
<!-- Node3&#45;&gt;Node4 -->
<g id="edge4" class="edge"><title>Node3&#45;&gt;Node4</title>
<path fill="none" stroke="midnightblue" d="M220.083,-55.4603C219.363,-46.3882 218.562,-36.305 217.946,-28.5369"/>
<polygon fill="midnightblue" stroke="midnightblue" points="216.595,-55.7546 220.875,-65.4464 223.573,-55.2008 216.595,-55.7546"/>
</g>
<!-- Node5&#45;&gt;Node1 -->
<g id="edge6" class="edge"><title>Node5&#45;&gt;Node1</title>
<path fill="none" stroke="midnightblue" d="M357.577,-97.0956C329.546,-107.52 292.372,-120.774 263.971,-130.446"/>
<polygon fill="midnightblue" stroke="midnightblue" points="358.943,-100.321 367.081,-93.5369 356.489,-93.7658 358.943,-100.321"/>
</g>
<!-- Node6 -->
<g id="node6" class="node"><title>Node6</title>
<g id="a_node6"><a xlink:href="$AP__BattMonitor__SMBus__I2C_8cpp.html" xlink:title="libraries/AP_BattMonitor\l/AP_BattMonitor_SMBus_I2C.cpp">
<polygon fill="white" stroke="black" points="319.596,-0.5 319.596,-28.5 486.226,-28.5 486.226,-0.5 319.596,-0.5"/>
<text text-anchor="start" x="327.596" y="-16.5" font-family="Helvetica,sans-Serif" font-size="10.00">libraries/AP_BattMonitor</text>
<text text-anchor="middle" x="402.911" y="-6.5" font-family="Helvetica,sans-Serif" font-size="10.00">/AP_BattMonitor_SMBus_I2C.cpp</text>
</a>
</g>
</g>
<!-- Node5&#45;&gt;Node6 -->
<g id="edge7" class="edge"><title>Node5&#45;&gt;Node6</title>
<path fill="none" stroke="midnightblue" d="M399.74,-55.4603C400.46,-46.3882 401.26,-36.305 401.876,-28.5369"/>
<polygon fill="midnightblue" stroke="midnightblue" points="396.249,-55.2008 398.947,-65.4464 403.227,-55.7546 396.249,-55.2008"/>
</g>
</g>
</svg>
