<?xml version="1.0" encoding="UTF-8" standalone="no"?>
<!DOCTYPE svg PUBLIC "-//W3C//DTD SVG 1.1//EN"
 "http://www.w3.org/Graphics/SVG/1.1/DTD/svg11.dtd">
<!-- Generated by graphviz version 2.38.0 (20140413.2041)
 -->
<!-- Title: libraries/AP_NavEKF/AP_NavEKF_core.h Pages: 1 -->
<svg width="254pt" height="102pt"
 viewBox="0.00 0.00 254.37 102.00" xmlns="http://www.w3.org/2000/svg" xmlns:xlink="http://www.w3.org/1999/xlink">
<g id="graph0" class="graph" transform="scale(1 1) rotate(0) translate(4 98)">
<title>libraries/AP_NavEKF/AP_NavEKF_core.h</title>
<polygon fill="white" stroke="none" points="-4,4 -4,-98 250.374,-98 250.374,4 -4,4"/>
<!-- Node1 -->
<g id="node1" class="node"><title>Node1</title>
<polygon fill="#bfbfbf" stroke="black" points="66,-65.5 66,-93.5 175.921,-93.5 175.921,-65.5 66,-65.5"/>
<text text-anchor="start" x="74" y="-81.5" font-family="Helvetica,sans-Serif" font-size="10.00">libraries/AP_NavEKF</text>
<text text-anchor="middle" x="120.96" y="-71.5" font-family="Helvetica,sans-Serif" font-size="10.00">/AP_NavEKF_core.h</text>
</g>
<!-- Node2 -->
<g id="node2" class="node"><title>Node2</title>
<g id="a_node2"><a xlink:href="$AP__NavEKF_8cpp.html" xlink:title="libraries/AP_NavEKF\l/AP_NavEKF.cpp">
<polygon fill="white" stroke="black" points="0,-0.5 0,-28.5 109.921,-28.5 109.921,-0.5 0,-0.5"/>
<text text-anchor="start" x="8" y="-16.5" font-family="Helvetica,sans-Serif" font-size="10.00">libraries/AP_NavEKF</text>
<text text-anchor="middle" x="54.9604" y="-6.5" font-family="Helvetica,sans-Serif" font-size="10.00">/AP_NavEKF.cpp</text>
</a>
</g>
</g>
<!-- Node1&#45;&gt;Node2 -->
<g id="edge1" class="edge"><title>Node1&#45;&gt;Node2</title>
<path fill="none" stroke="midnightblue" d="M99.8808,-58.3785C89.6446,-48.6076 77.6407,-37.1493 68.6182,-28.5369"/>
<polygon fill="midnightblue" stroke="midnightblue" points="97.6349,-61.0733 107.285,-65.4464 102.468,-56.0098 97.6349,-61.0733"/>
</g>
<!-- Node3 -->
<g id="node3" class="node"><title>Node3</title>
<g id="a_node3"><a xlink:href="$AP__NavEKF__core_8cpp.html" xlink:title="libraries/AP_NavEKF\l/AP_NavEKF_core.cpp">
<polygon fill="white" stroke="black" points="127.547,-0.5 127.547,-28.5 246.374,-28.5 246.374,-0.5 127.547,-0.5"/>
<text text-anchor="start" x="135.547" y="-16.5" font-family="Helvetica,sans-Serif" font-size="10.00">libraries/AP_NavEKF</text>
<text text-anchor="middle" x="186.96" y="-6.5" font-family="Helvetica,sans-Serif" font-size="10.00">/AP_NavEKF_core.cpp</text>
</a>
</g>
</g>
<!-- Node1&#45;&gt;Node3 -->
<g id="edge2" class="edge"><title>Node1&#45;&gt;Node3</title>
<path fill="none" stroke="midnightblue" d="M142.04,-58.3785C152.276,-48.6076 164.28,-37.1493 173.303,-28.5369"/>
<polygon fill="midnightblue" stroke="midnightblue" points="139.453,-56.0098 134.636,-65.4464 144.286,-61.0733 139.453,-56.0098"/>
</g>
</g>
</svg>
