<?xml version="1.0" encoding="UTF-8" standalone="no"?>
<!DOCTYPE svg PUBLIC "-//W3C//DTD SVG 1.1//EN"
 "http://www.w3.org/Graphics/SVG/1.1/DTD/svg11.dtd">
<!-- Generated by graphviz version 2.38.0 (20140413.2041)
 -->
<!-- Title: libraries/AP_InertialSensor/AP_InertialSensor_UserInteract_Stream.cpp Pages: 1 -->
<svg width="1464pt" height="607pt"
 viewBox="0.00 0.00 1463.88 607.00" xmlns="http://www.w3.org/2000/svg" xmlns:xlink="http://www.w3.org/1999/xlink">
<g id="graph0" class="graph" transform="scale(1 1) rotate(0) translate(4 603)">
<title>libraries/AP_InertialSensor/AP_InertialSensor_UserInteract_Stream.cpp</title>
<polygon fill="white" stroke="none" points="-4,4 -4,-603 1459.88,-603 1459.88,4 -4,4"/>
<!-- Node1 -->
<g id="node1" class="node"><title>Node1</title>
<polygon fill="#bfbfbf" stroke="black" points="1069.7,-560.5 1069.7,-598.5 1229.1,-598.5 1229.1,-560.5 1069.7,-560.5"/>
<text text-anchor="start" x="1077.7" y="-586.5" font-family="Helvetica,sans-Serif" font-size="10.00">libraries/AP_InertialSensor</text>
<text text-anchor="start" x="1077.7" y="-576.5" font-family="Helvetica,sans-Serif" font-size="10.00">/AP_InertialSensor_UserInteract</text>
<text text-anchor="middle" x="1149.4" y="-566.5" font-family="Helvetica,sans-Serif" font-size="10.00">_Stream.cpp</text>
</g>
<!-- Node2 -->
<g id="node2" class="node"><title>Node2</title>
<polygon fill="white" stroke="#bfbfbf" points="809.335,-165.5 809.335,-183.5 861.468,-183.5 861.468,-165.5 809.335,-165.5"/>
<text text-anchor="middle" x="835.401" y="-171.5" font-family="Helvetica,sans-Serif" font-size="10.00">stdarg.h</text>
</g>
<!-- Node1&#45;&gt;Node2 -->
<g id="edge1" class="edge"><title>Node1&#45;&gt;Node2</title>
<path fill="none" stroke="midnightblue" d="M1142.66,-560.346C1120.6,-503.076 1045.18,-323.873 929.401,-220 912.692,-205.009 890.042,-194.083 871.162,-186.809"/>
<polygon fill="midnightblue" stroke="midnightblue" points="872.278,-183.491 861.684,-183.337 869.87,-190.063 872.278,-183.491"/>
</g>
<!-- Node3 -->
<g id="node3" class="node"><title>Node3</title>
<g id="a_node3"><a xlink:href="$AP__HAL_8h.html" xlink:title="AP_HAL/AP_HAL.h">
<polygon fill="white" stroke="black" points="636.488,-440.5 636.488,-458.5 740.315,-458.5 740.315,-440.5 636.488,-440.5"/>
<text text-anchor="middle" x="688.401" y="-446.5" font-family="Helvetica,sans-Serif" font-size="10.00">AP_HAL/AP_HAL.h</text>
</a>
</g>
</g>
<!-- Node1&#45;&gt;Node3 -->
<g id="edge2" class="edge"><title>Node1&#45;&gt;Node3</title>
<path fill="none" stroke="midnightblue" d="M1084.33,-560.432C987.061,-533.425 806.726,-483.354 727.478,-461.35"/>
<polygon fill="midnightblue" stroke="midnightblue" points="728.004,-457.864 717.432,-458.561 726.131,-464.608 728.004,-457.864"/>
</g>
<!-- Node30 -->
<g id="node30" class="node"><title>Node30</title>
<g id="a_node30"><a xlink:href="$AP__InertialSensor__UserInteract__Stream_8h.html" xlink:title="AP_InertialSensor_UserInteract\l_Stream.h">
<polygon fill="white" stroke="black" points="1177.09,-495.5 1177.09,-523.5 1333.71,-523.5 1333.71,-495.5 1177.09,-495.5"/>
<text text-anchor="start" x="1185.09" y="-511.5" font-family="Helvetica,sans-Serif" font-size="10.00">AP_InertialSensor_UserInteract</text>
<text text-anchor="middle" x="1255.4" y="-501.5" font-family="Helvetica,sans-Serif" font-size="10.00">_Stream.h</text>
</a>
</g>
</g>
<!-- Node1&#45;&gt;Node30 -->
<g id="edge69" class="edge"><title>Node1&#45;&gt;Node30</title>
<path fill="none" stroke="midnightblue" d="M1177.53,-560.456C1192.6,-550.786 1211.15,-538.889 1226.36,-529.131"/>
<polygon fill="midnightblue" stroke="midnightblue" points="1228.35,-532.011 1234.88,-523.666 1224.57,-526.12 1228.35,-532.011"/>
</g>
<!-- Node4 -->
<g id="node4" class="node"><title>Node4</title>
<polygon fill="white" stroke="#bfbfbf" points="667.281,-110.5 667.281,-128.5 715.522,-128.5 715.522,-110.5 667.281,-110.5"/>
<text text-anchor="middle" x="691.401" y="-116.5" font-family="Helvetica,sans-Serif" font-size="10.00">stdint.h</text>
</g>
<!-- Node3&#45;&gt;Node4 -->
<g id="edge3" class="edge"><title>Node3&#45;&gt;Node4</title>
<path fill="none" stroke="midnightblue" d="M697.227,-440.449C724.814,-414.576 809.138,-329.923 835.401,-239 837.745,-230.887 839.324,-227.478 835.401,-220 822.324,-195.068 752.735,-154.099 715.294,-133.371"/>
<polygon fill="midnightblue" stroke="midnightblue" points="716.972,-130.3 706.521,-128.56 713.606,-136.438 716.972,-130.3"/>
</g>
<!-- Node5 -->
<g id="node5" class="node"><title>Node5</title>
<polygon fill="white" stroke="#bfbfbf" points="1233.11,-110.5 1233.11,-128.5 1289.69,-128.5 1289.69,-110.5 1233.11,-110.5"/>
<text text-anchor="middle" x="1261.4" y="-116.5" font-family="Helvetica,sans-Serif" font-size="10.00">stdbool.h</text>
</g>
<!-- Node3&#45;&gt;Node5 -->
<g id="edge4" class="edge"><title>Node3&#45;&gt;Node5</title>
<path fill="none" stroke="midnightblue" d="M740.32,-446.753C829.647,-443.024 1008.14,-432.197 1063.4,-404 1181.91,-343.528 1217.97,-307.914 1266.4,-184 1272.13,-169.355 1269.95,-151.389 1266.88,-138.309"/>
<polygon fill="midnightblue" stroke="midnightblue" points="1270.26,-137.379 1264.25,-128.651 1263.5,-139.22 1270.26,-137.379"/>
</g>
<!-- Node6 -->
<g id="node6" class="node"><title>Node6</title>
<g id="a_node6"><a xlink:href="$AP__HAL__Namespace_8h.html" xlink:title="AP_HAL_Namespace.h">
<polygon fill="white" stroke="black" points="325.594,-55.5 325.594,-73.5 447.209,-73.5 447.209,-55.5 325.594,-55.5"/>
<text text-anchor="middle" x="386.401" y="-61.5" font-family="Helvetica,sans-Serif" font-size="10.00">AP_HAL_Namespace.h</text>
</a>
</g>
</g>
<!-- Node3&#45;&gt;Node6 -->
<g id="edge5" class="edge"><title>Node3&#45;&gt;Node6</title>
<path fill="none" stroke="midnightblue" d="M740.657,-445.726C835.28,-440.219 1031.15,-426.461 1095.4,-404 1245.29,-351.596 1407.91,-224.984 1298.4,-110 1269.54,-79.6974 667.656,-69.107 457.809,-66.3278"/>
<polygon fill="midnightblue" stroke="midnightblue" points="457.566,-62.8244 447.521,-66.1937 457.475,-69.8238 457.566,-62.8244"/>
</g>
<!-- Node9 -->
<g id="node9" class="node"><title>Node9</title>
<g id="a_node9"><a xlink:href="$AP__HAL__Boards_8h.html" xlink:title="AP_HAL_Boards.h">
<polygon fill="white" stroke="black" points="993.431,-165.5 993.431,-183.5 1093.37,-183.5 1093.37,-165.5 993.431,-165.5"/>
<text text-anchor="middle" x="1043.4" y="-171.5" font-family="Helvetica,sans-Serif" font-size="10.00">AP_HAL_Boards.h</text>
</a>
</g>
</g>
<!-- Node3&#45;&gt;Node9 -->
<g id="edge8" class="edge"><title>Node3&#45;&gt;Node9</title>
<path fill="none" stroke="midnightblue" d="M740.46,-447.479C825.615,-444.897 989.976,-435.818 1037.4,-404 1064.34,-385.925 1073.4,-372.942 1073.4,-340.5 1073.4,-340.5 1073.4,-340.5 1073.4,-283.5 1073.4,-250.538 1060.27,-213.914 1051.38,-192.904"/>
<polygon fill="midnightblue" stroke="midnightblue" points="1054.56,-191.429 1047.32,-183.686 1048.15,-194.248 1054.56,-191.429"/>
</g>
<!-- Node10 -->
<g id="node10" class="node"><title>Node10</title>
<g id="a_node10"><a xlink:href="$AP__HAL__Macros_8h.html" xlink:title="AP_HAL_Macros.h">
<polygon fill="white" stroke="black" points="905.882,-385.5 905.882,-403.5 1006.92,-403.5 1006.92,-385.5 905.882,-385.5"/>
<text text-anchor="middle" x="956.401" y="-391.5" font-family="Helvetica,sans-Serif" font-size="10.00">AP_HAL_Macros.h</text>
</a>
</g>
</g>
<!-- Node3&#45;&gt;Node10 -->
<g id="edge9" class="edge"><title>Node3&#45;&gt;Node10</title>
<path fill="none" stroke="midnightblue" d="M729.105,-440.45C776.466,-431.084 854.695,-415.614 905.893,-405.489"/>
<polygon fill="midnightblue" stroke="midnightblue" points="906.624,-408.912 915.755,-403.538 905.266,-402.045 906.624,-408.912"/>
</g>
<!-- Node11 -->
<g id="node11" class="node"><title>Node11</title>
<g id="a_node11"><a xlink:href="$AP__HAL__Main_8h.html" xlink:title="AP_HAL_Main.h">
<polygon fill="white" stroke="black" points="394.436,-385.5 394.436,-403.5 484.367,-403.5 484.367,-385.5 394.436,-385.5"/>
<text text-anchor="middle" x="439.401" y="-391.5" font-family="Helvetica,sans-Serif" font-size="10.00">AP_HAL_Main.h</text>
</a>
</g>
</g>
<!-- Node3&#45;&gt;Node11 -->
<g id="edge10" class="edge"><title>Node3&#45;&gt;Node11</title>
<path fill="none" stroke="midnightblue" d="M650.584,-440.45C606.855,-431.143 534.805,-415.807 487.224,-405.679"/>
<polygon fill="midnightblue" stroke="midnightblue" points="487.676,-402.197 477.166,-403.538 486.218,-409.044 487.676,-402.197"/>
</g>
<!-- Node12 -->
<g id="node12" class="node"><title>Node12</title>
<g id="a_node12"><a xlink:href="$HAL_8h.html" xlink:title="HAL.h">
<polygon fill="white" stroke="black" points="393.505,-330.5 393.505,-348.5 437.298,-348.5 437.298,-330.5 393.505,-330.5"/>
<text text-anchor="middle" x="415.401" y="-336.5" font-family="Helvetica,sans-Serif" font-size="10.00">HAL.h</text>
</a>
</g>
</g>
<!-- Node3&#45;&gt;Node12 -->
<g id="edge68" class="edge"><title>Node3&#45;&gt;Node12</title>
<path fill="none" stroke="midnightblue" d="M636.296,-448.689C558.372,-447.735 417.204,-440.815 385.401,-404 373.142,-389.808 386.444,-369.747 399.017,-355.992"/>
<polygon fill="midnightblue" stroke="midnightblue" points="401.645,-358.31 406.137,-348.715 396.642,-353.415 401.645,-358.31"/>
</g>
<!-- Node13 -->
<g id="node13" class="node"><title>Node13</title>
<g id="a_node13"><a xlink:href="$AnalogIn_8h.html" xlink:title="AnalogIn.h">
<polygon fill="white" stroke="black" points="180.493,-220.5 180.493,-238.5 244.31,-238.5 244.31,-220.5 180.493,-220.5"/>
<text text-anchor="middle" x="212.401" y="-226.5" font-family="Helvetica,sans-Serif" font-size="10.00">AnalogIn.h</text>
</a>
</g>
</g>
<!-- Node3&#45;&gt;Node13 -->
<g id="edge50" class="edge"><title>Node3&#45;&gt;Node13</title>
<path fill="none" stroke="midnightblue" d="M636.441,-446.006C549.893,-441.209 380.379,-428.895 326.401,-404 260.702,-373.699 235.534,-360.226 206.401,-294 200.061,-279.588 202.615,-261.596 206.139,-248.447"/>
<polygon fill="midnightblue" stroke="midnightblue" points="209.534,-249.314 209.153,-238.726 202.848,-247.241 209.534,-249.314"/>
</g>
<!-- Node15 -->
<g id="node15" class="node"><title>Node15</title>
<g id="a_node15"><a xlink:href="$GPIO_8h.html" xlink:title="GPIO.h">
<polygon fill="white" stroke="black" points="776.729,-220.5 776.729,-238.5 826.074,-238.5 826.074,-220.5 776.729,-220.5"/>
<text text-anchor="middle" x="801.401" y="-226.5" font-family="Helvetica,sans-Serif" font-size="10.00">GPIO.h</text>
</a>
</g>
</g>
<!-- Node3&#45;&gt;Node15 -->
<g id="edge52" class="edge"><title>Node3&#45;&gt;Node15</title>
<path fill="none" stroke="midnightblue" d="M692.557,-440.483C708.959,-408.841 769.419,-292.2 792.43,-247.808"/>
<polygon fill="midnightblue" stroke="midnightblue" points="795.592,-249.312 797.087,-238.823 789.378,-246.091 795.592,-249.312"/>
</g>
<!-- Node16 -->
<g id="node16" class="node"><title>Node16</title>
<g id="a_node16"><a xlink:href="$RCInput_8h.html" xlink:title="RCInput.h">
<polygon fill="white" stroke="black" points="97.8892,-275.5 97.8892,-293.5 158.914,-293.5 158.914,-275.5 97.8892,-275.5"/>
<text text-anchor="middle" x="128.401" y="-281.5" font-family="Helvetica,sans-Serif" font-size="10.00">RCInput.h</text>
</a>
</g>
</g>
<!-- Node3&#45;&gt;Node16 -->
<g id="edge53" class="edge"><title>Node3&#45;&gt;Node16</title>
<path fill="none" stroke="midnightblue" d="M636.449,-447.112C513.025,-443.379 209.785,-431.489 173.401,-404 141.588,-379.964 132.265,-330.591 129.534,-303.787"/>
<polygon fill="midnightblue" stroke="midnightblue" points="132.998,-303.21 128.702,-293.526 126.021,-303.776 132.998,-303.21"/>
</g>
<!-- Node17 -->
<g id="node17" class="node"><title>Node17</title>
<g id="a_node17"><a xlink:href="$RCOutput_8h.html" xlink:title="RCOutput.h">
<polygon fill="white" stroke="black" points="215,-275.5 215,-293.5 283.803,-293.5 283.803,-275.5 215,-275.5"/>
<text text-anchor="middle" x="249.401" y="-281.5" font-family="Helvetica,sans-Serif" font-size="10.00">RCOutput.h</text>
</a>
</g>
</g>
<!-- Node3&#45;&gt;Node17 -->
<g id="edge54" class="edge"><title>Node3&#45;&gt;Node17</title>
<path fill="none" stroke="midnightblue" d="M636.293,-445.775C555.815,-440.852 405.626,-428.621 358.401,-404 312.485,-380.061 275.944,-328.716 259.254,-302.165"/>
<polygon fill="midnightblue" stroke="midnightblue" points="262.223,-300.31 254.023,-293.601 256.249,-303.959 262.223,-300.31"/>
</g>
<!-- Node18 -->
<g id="node18" class="node"><title>Node18</title>
<g id="a_node18"><a xlink:href="$SPIDriver_8h.html" xlink:title="SPIDriver.h">
<polygon fill="white" stroke="black" points="302.113,-275.5 302.113,-293.5 368.689,-293.5 368.689,-275.5 302.113,-275.5"/>
<text text-anchor="middle" x="335.401" y="-281.5" font-family="Helvetica,sans-Serif" font-size="10.00">SPIDriver.h</text>
</a>
</g>
</g>
<!-- Node3&#45;&gt;Node18 -->
<g id="edge49" class="edge"><title>Node3&#45;&gt;Node18</title>
<path fill="none" stroke="midnightblue" d="M636.377,-447.421C558.344,-444.772 416.014,-435.619 377.401,-404 346.951,-379.065 338.559,-330.465 336.259,-303.909"/>
<polygon fill="midnightblue" stroke="midnightblue" points="339.738,-303.464 335.586,-293.716 332.753,-303.925 339.738,-303.464"/>
</g>
<!-- Node19 -->
<g id="node19" class="node"><title>Node19</title>
<g id="a_node19"><a xlink:href="$Storage_8h.html" xlink:title="Storage.h">
<polygon fill="white" stroke="black" points="462.719,-275.5 462.719,-293.5 522.083,-293.5 522.083,-275.5 462.719,-275.5"/>
<text text-anchor="middle" x="492.401" y="-281.5" font-family="Helvetica,sans-Serif" font-size="10.00">Storage.h</text>
</a>
</g>
</g>
<!-- Node3&#45;&gt;Node19 -->
<g id="edge51" class="edge"><title>Node3&#45;&gt;Node19</title>
<path fill="none" stroke="midnightblue" d="M636.471,-444.979C604.044,-440.213 563.46,-429.21 536.401,-404 507.589,-377.156 497.55,-329.721 494.122,-303.751"/>
<polygon fill="midnightblue" stroke="midnightblue" points="497.595,-303.313 492.996,-293.769 490.639,-304.098 497.595,-303.313"/>
</g>
<!-- Node20 -->
<g id="node20" class="node"><title>Node20</title>
<g id="a_node20"><a xlink:href="$UARTDriver_8h.html" xlink:title="UARTDriver.h">
<polygon fill="white" stroke="black" points="617.649,-275.5 617.649,-293.5 695.153,-293.5 695.153,-275.5 617.649,-275.5"/>
<text text-anchor="middle" x="656.401" y="-281.5" font-family="Helvetica,sans-Serif" font-size="10.00">UARTDriver.h</text>
</a>
</g>
</g>
<!-- Node3&#45;&gt;Node20 -->
<g id="edge45" class="edge"><title>Node3&#45;&gt;Node20</title>
<path fill="none" stroke="midnightblue" d="M687.457,-440.387C685.134,-421.102 678.652,-371.059 669.401,-330 667.407,-321.147 664.647,-311.46 662.184,-303.391"/>
<polygon fill="midnightblue" stroke="midnightblue" points="665.449,-302.109 659.107,-293.622 658.773,-304.211 665.449,-302.109"/>
</g>
<!-- Node23 -->
<g id="node23" class="node"><title>Node23</title>
<g id="a_node23"><a xlink:href="$BetterStream_8h.html" xlink:title="utility/BetterStream.h">
<polygon fill="white" stroke="black" points="649.995,-220.5 649.995,-238.5 758.808,-238.5 758.808,-220.5 649.995,-220.5"/>
<text text-anchor="middle" x="704.401" y="-226.5" font-family="Helvetica,sans-Serif" font-size="10.00">utility/BetterStream.h</text>
</a>
</g>
</g>
<!-- Node3&#45;&gt;Node23 -->
<g id="edge67" class="edge"><title>Node3&#45;&gt;Node23</title>
<path fill="none" stroke="midnightblue" d="M689.875,-440.324C691.436,-431.416 693.881,-416.735 695.401,-404 701.217,-355.294 702.4,-343.011 704.401,-294 705.021,-278.82 704.974,-261.581 704.798,-248.9"/>
<polygon fill="midnightblue" stroke="midnightblue" points="708.294,-248.66 704.615,-238.724 701.295,-248.785 708.294,-248.66"/>
</g>
<!-- Node24 -->
<g id="node24" class="node"><title>Node24</title>
<g id="a_node24"><a xlink:href="$Stream_8h.html" xlink:title="Stream.h">
<polygon fill="white" stroke="black" points="63.1157,-165.5 63.1157,-183.5 119.687,-183.5 119.687,-165.5 63.1157,-165.5"/>
<text text-anchor="middle" x="91.4014" y="-171.5" font-family="Helvetica,sans-Serif" font-size="10.00">Stream.h</text>
</a>
</g>
</g>
<!-- Node3&#45;&gt;Node24 -->
<g id="edge66" class="edge"><title>Node3&#45;&gt;Node24</title>
<path fill="none" stroke="midnightblue" d="M636.174,-447.837C519.416,-445.763 240.677,-437.364 153.401,-404 109.686,-387.288 69.4014,-387.3 69.4014,-340.5 69.4014,-340.5 69.4014,-340.5 69.4014,-283.5 69.4014,-251.074 79.0415,-214.253 85.559,-193.064"/>
<polygon fill="midnightblue" stroke="midnightblue" points="88.9004,-194.106 88.6151,-183.515 82.2335,-191.972 88.9004,-194.106"/>
</g>
<!-- Node25 -->
<g id="node25" class="node"><title>Node25</title>
<g id="a_node25"><a xlink:href="$Print_8h.html" xlink:title="Print.h">
<polygon fill="white" stroke="black" points="41.9507,-110.5 41.9507,-128.5 86.8521,-128.5 86.8521,-110.5 41.9507,-110.5"/>
<text text-anchor="middle" x="64.4014" y="-116.5" font-family="Helvetica,sans-Serif" font-size="10.00">Print.h</text>
</a>
</g>
</g>
<!-- Node3&#45;&gt;Node25 -->
<g id="edge65" class="edge"><title>Node3&#45;&gt;Node25</title>
<path fill="none" stroke="midnightblue" d="M636.334,-449.153C510.097,-450.016 191.083,-447.672 95.4014,-404 58.9492,-387.362 31.4014,-380.57 31.4014,-340.5 31.4014,-340.5 31.4014,-340.5 31.4014,-228.5 31.4014,-195.291 45.8482,-158.747 55.6243,-137.82"/>
<polygon fill="midnightblue" stroke="midnightblue" points="58.862,-139.165 60.0872,-128.641 52.5667,-136.104 58.862,-139.165"/>
</g>
<!-- Node26 -->
<g id="node26" class="node"><title>Node26</title>
<g id="a_node26"><a xlink:href="$I2CDriver_8h.html" xlink:title="I2CDriver.h">
<polygon fill="white" stroke="black" points="414.392,-165.5 414.392,-183.5 480.411,-183.5 480.411,-165.5 414.392,-165.5"/>
<text text-anchor="middle" x="447.401" y="-171.5" font-family="Helvetica,sans-Serif" font-size="10.00">I2CDriver.h</text>
</a>
</g>
</g>
<!-- Node3&#45;&gt;Node26 -->
<g id="edge46" class="edge"><title>Node3&#45;&gt;Node26</title>
<path fill="none" stroke="midnightblue" d="M675.494,-440.284C651.954,-424.789 601.52,-389.176 569.401,-349 546.315,-320.122 551.902,-305.767 531.401,-275 510.108,-243.043 480.089,-209.688 462.299,-190.86"/>
<polygon fill="midnightblue" stroke="midnightblue" points="464.712,-188.319 455.273,-183.507 459.651,-193.155 464.712,-188.319"/>
</g>
<!-- Node27 -->
<g id="node27" class="node"><title>Node27</title>
<g id="a_node27"><a xlink:href="$Scheduler_8h.html" xlink:title="Scheduler.h">
<polygon fill="white" stroke="black" points="976.99,-220.5 976.99,-238.5 1045.81,-238.5 1045.81,-220.5 976.99,-220.5"/>
<text text-anchor="middle" x="1011.4" y="-226.5" font-family="Helvetica,sans-Serif" font-size="10.00">Scheduler.h</text>
</a>
</g>
</g>
<!-- Node3&#45;&gt;Node27 -->
<g id="edge55" class="edge"><title>Node3&#45;&gt;Node27</title>
<path fill="none" stroke="midnightblue" d="M740.34,-449.366C823.602,-449.517 981.196,-444.305 1016.4,-404 1054.86,-359.971 1032.16,-283.033 1018.91,-248.351"/>
<polygon fill="midnightblue" stroke="midnightblue" points="1021.99,-246.65 1015.02,-238.671 1015.5,-249.255 1021.99,-246.65"/>
</g>
<!-- Node28 -->
<g id="node28" class="node"><title>Node28</title>
<g id="a_node28"><a xlink:href="$Semaphores_8h.html" xlink:title="Semaphores.h">
<polygon fill="white" stroke="black" points="578.882,-330.5 578.882,-348.5 659.921,-348.5 659.921,-330.5 578.882,-330.5"/>
<text text-anchor="middle" x="619.401" y="-336.5" font-family="Helvetica,sans-Serif" font-size="10.00">Semaphores.h</text>
</a>
</g>
</g>
<!-- Node3&#45;&gt;Node28 -->
<g id="edge60" class="edge"><title>Node3&#45;&gt;Node28</title>
<path fill="none" stroke="midnightblue" d="M683.215,-440.382C671.976,-422.791 645.178,-380.846 630.128,-357.289"/>
<polygon fill="midnightblue" stroke="midnightblue" points="632.981,-355.254 624.648,-348.712 627.082,-359.023 632.981,-355.254"/>
</g>
<!-- Node29 -->
<g id="node29" class="node"><title>Node29</title>
<g id="a_node29"><a xlink:href="$Util_8h.html" xlink:title="Util.h">
<polygon fill="white" stroke="black" points="882.01,-220.5 882.01,-238.5 920.793,-238.5 920.793,-220.5 882.01,-220.5"/>
<text text-anchor="middle" x="901.401" y="-226.5" font-family="Helvetica,sans-Serif" font-size="10.00">Util.h</text>
</a>
</g>
</g>
<!-- Node3&#45;&gt;Node29 -->
<g id="edge62" class="edge"><title>Node3&#45;&gt;Node29</title>
<path fill="none" stroke="midnightblue" d="M740.41,-447.478C776.684,-443.99 823.725,-433.485 853.401,-404 896.227,-361.451 901.753,-284.332 901.886,-249.037"/>
<polygon fill="midnightblue" stroke="midnightblue" points="905.383,-248.741 901.77,-238.781 898.383,-248.82 905.383,-248.741"/>
</g>
<!-- Node7 -->
<g id="node7" class="node"><title>Node7</title>
<polygon fill="white" stroke="#bfbfbf" points="233.005,-0.5 233.005,-18.5 281.798,-18.5 281.798,-0.5 233.005,-0.5"/>
<text text-anchor="middle" x="257.401" y="-6.5" font-family="Helvetica,sans-Serif" font-size="10.00">string.h</text>
</g>
<!-- Node6&#45;&gt;Node7 -->
<g id="edge6" class="edge"><title>Node6&#45;&gt;Node7</title>
<path fill="none" stroke="midnightblue" d="M366.809,-55.4504C345.499,-46.6951 311.205,-32.6055 286.693,-22.5346"/>
<polygon fill="midnightblue" stroke="midnightblue" points="287.758,-19.1882 277.178,-18.6253 285.098,-25.6631 287.758,-19.1882"/>
</g>
<!-- Node8 -->
<g id="node8" class="node"><title>Node8</title>
<g id="a_node8"><a xlink:href="$functor_8h.html" xlink:title="utility/functor.h">
<polygon fill="white" stroke="black" points="346.438,-0.5 346.438,-18.5 426.364,-18.5 426.364,-0.5 346.438,-0.5"/>
<text text-anchor="middle" x="386.401" y="-6.5" font-family="Helvetica,sans-Serif" font-size="10.00">utility/functor.h</text>
</a>
</g>
</g>
<!-- Node6&#45;&gt;Node8 -->
<g id="edge7" class="edge"><title>Node6&#45;&gt;Node8</title>
<path fill="none" stroke="midnightblue" d="M386.401,-55.2188C386.401,-48.1769 386.401,-37.8083 386.401,-28.8277"/>
<polygon fill="midnightblue" stroke="midnightblue" points="389.901,-28.5495 386.401,-18.5496 382.901,-28.5496 389.901,-28.5495"/>
</g>
<!-- Node11&#45;&gt;Node12 -->
<g id="edge11" class="edge"><title>Node11&#45;&gt;Node12</title>
<path fill="none" stroke="midnightblue" d="M435.651,-385.219C432.356,-377.942 427.453,-367.113 423.296,-357.934"/>
<polygon fill="midnightblue" stroke="midnightblue" points="426.36,-356.215 419.046,-348.55 419.983,-359.103 426.36,-356.215"/>
</g>
<!-- Node12&#45;&gt;Node6 -->
<g id="edge12" class="edge"><title>Node12&#45;&gt;Node6</title>
<path fill="none" stroke="midnightblue" d="M413.717,-330.167C408.125,-302.021 390.203,-207.837 384.401,-129 383.286,-113.841 383.951,-96.6005 384.803,-83.913"/>
<polygon fill="midnightblue" stroke="midnightblue" points="388.309,-83.9721 385.592,-73.7315 381.33,-83.4311 388.309,-83.9721"/>
</g>
<!-- Node12&#45;&gt;Node13 -->
<g id="edge13" class="edge"><title>Node12&#45;&gt;Node13</title>
<path fill="none" stroke="midnightblue" d="M412.707,-330.086C407.885,-316.404 396.461,-289.414 377.401,-275 341.54,-247.88 290.317,-237.275 254.486,-233.135"/>
<polygon fill="midnightblue" stroke="midnightblue" points="254.661,-229.634 244.355,-232.088 253.942,-236.597 254.661,-229.634"/>
</g>
<!-- Node12&#45;&gt;Node15 -->
<g id="edge16" class="edge"><title>Node12&#45;&gt;Node15</title>
<path fill="none" stroke="midnightblue" d="M437.601,-338.253C487.151,-337.032 609.841,-330.264 704.401,-294 734.902,-282.303 765.716,-259.915 784.187,-245.093"/>
<polygon fill="midnightblue" stroke="midnightblue" points="786.475,-247.743 791.984,-238.693 782.034,-242.332 786.475,-247.743"/>
</g>
<!-- Node12&#45;&gt;Node16 -->
<g id="edge19" class="edge"><title>Node12&#45;&gt;Node16</title>
<path fill="none" stroke="midnightblue" d="M393.358,-334.429C345.338,-325.562 230.669,-304.386 169.112,-293.018"/>
<polygon fill="midnightblue" stroke="midnightblue" points="169.454,-289.522 158.985,-291.148 168.183,-296.406 169.454,-289.522"/>
</g>
<!-- Node12&#45;&gt;Node17 -->
<g id="edge21" class="edge"><title>Node12&#45;&gt;Node17</title>
<path fill="none" stroke="midnightblue" d="M393.358,-331.462C365.464,-322.556 317.098,-307.114 284.198,-296.61"/>
<polygon fill="midnightblue" stroke="midnightblue" points="285.115,-293.228 274.524,-293.521 282.985,-299.897 285.115,-293.228"/>
</g>
<!-- Node12&#45;&gt;Node18 -->
<g id="edge23" class="edge"><title>Node12&#45;&gt;Node18</title>
<path fill="none" stroke="midnightblue" d="M403.251,-330.45C390.799,-322.201 371.199,-309.216 356.26,-299.319"/>
<polygon fill="midnightblue" stroke="midnightblue" points="357.936,-296.231 347.666,-293.625 354.069,-302.066 357.936,-296.231"/>
</g>
<!-- Node12&#45;&gt;Node19 -->
<g id="edge25" class="edge"><title>Node12&#45;&gt;Node19</title>
<path fill="none" stroke="midnightblue" d="M427.096,-330.45C439.081,-322.201 457.946,-309.216 472.325,-299.319"/>
<polygon fill="midnightblue" stroke="midnightblue" points="474.344,-302.178 480.597,-293.625 470.375,-296.412 474.344,-302.178"/>
</g>
<!-- Node12&#45;&gt;Node20 -->
<g id="edge28" class="edge"><title>Node12&#45;&gt;Node20</title>
<path fill="none" stroke="midnightblue" d="M437.642,-333.609C476.642,-325.032 558.132,-307.111 609.896,-295.727"/>
<polygon fill="midnightblue" stroke="midnightblue" points="610.817,-299.109 619.831,-293.542 609.313,-292.272 610.817,-299.109"/>
</g>
<!-- Node13&#45;&gt;Node6 -->
<g id="edge15" class="edge"><title>Node13&#45;&gt;Node6</title>
<path fill="none" stroke="midnightblue" d="M213.236,-220.317C215.836,-199.062 225.687,-141.567 258.401,-110 275.804,-93.2079 299.867,-82.7263 322.437,-76.1948"/>
<polygon fill="midnightblue" stroke="midnightblue" points="323.577,-79.5131 332.332,-73.5471 321.768,-72.7509 323.577,-79.5131"/>
</g>
<!-- Node14 -->
<g id="node14" class="node"><title>Node14</title>
<polygon fill="white" stroke="#bfbfbf" points="0,-55.5 0,-73.5 58.8027,-73.5 58.8027,-55.5 0,-55.5"/>
<text text-anchor="middle" x="29.4014" y="-61.5" font-family="Helvetica,sans-Serif" font-size="10.00">inttypes.h</text>
</g>
<!-- Node13&#45;&gt;Node14 -->
<g id="edge14" class="edge"><title>Node13&#45;&gt;Node14</title>
<path fill="none" stroke="midnightblue" d="M180.179,-227.675C145.055,-225.091 89.2209,-215.812 54.4014,-184 26.4115,-158.427 25.4485,-110.089 27.3254,-83.7423"/>
<polygon fill="midnightblue" stroke="midnightblue" points="30.8242,-83.9173 28.2669,-73.6357 23.8544,-83.2679 30.8242,-83.9173"/>
</g>
<!-- Node15&#45;&gt;Node4 -->
<g id="edge17" class="edge"><title>Node15&#45;&gt;Node4</title>
<path fill="none" stroke="midnightblue" d="M783.479,-220.461C767.82,-212.779 745.185,-200.011 729.401,-184 716.177,-170.585 705.635,-151.706 699.042,-138.023"/>
<polygon fill="midnightblue" stroke="midnightblue" points="702.139,-136.38 694.79,-128.748 695.776,-139.297 702.139,-136.38"/>
</g>
<!-- Node15&#45;&gt;Node6 -->
<g id="edge18" class="edge"><title>Node15&#45;&gt;Node6</title>
<path fill="none" stroke="midnightblue" d="M798.848,-220.436C791.419,-198.438 767.564,-137.226 724.401,-110 681.287,-82.8051 543.172,-72.0601 457.417,-67.9401"/>
<polygon fill="midnightblue" stroke="midnightblue" points="457.379,-64.4348 447.228,-67.4699 457.056,-71.4273 457.379,-64.4348"/>
</g>
<!-- Node16&#45;&gt;Node6 -->
<g id="edge20" class="edge"><title>Node16&#45;&gt;Node6</title>
<path fill="none" stroke="midnightblue" d="M131.313,-275.145C141.472,-247.236 178.096,-156.392 239.401,-110 261.932,-92.9503 290.996,-82.3908 317.325,-75.8699"/>
<polygon fill="midnightblue" stroke="midnightblue" points="318.313,-79.2337 327.263,-73.5633 316.73,-72.415 318.313,-79.2337"/>
</g>
<!-- Node17&#45;&gt;Node6 -->
<g id="edge22" class="edge"><title>Node17&#45;&gt;Node6</title>
<path fill="none" stroke="midnightblue" d="M251.238,-275.438C257.536,-249.184 280.346,-164.687 324.401,-110 334.635,-97.2969 349.365,-86.5199 361.9,-78.7545"/>
<polygon fill="midnightblue" stroke="midnightblue" points="363.715,-81.7478 370.544,-73.6478 360.154,-75.721 363.715,-81.7478"/>
</g>
<!-- Node18&#45;&gt;Node6 -->
<g id="edge24" class="edge"><title>Node18&#45;&gt;Node6</title>
<path fill="none" stroke="midnightblue" d="M333.055,-275.392C326.08,-249.688 307.569,-168.279 334.401,-110 340.225,-97.3517 351.613,-86.9584 362.251,-79.406"/>
<polygon fill="midnightblue" stroke="midnightblue" points="364.436,-82.1587 370.872,-73.7431 360.593,-76.308 364.436,-82.1587"/>
</g>
<!-- Node19&#45;&gt;Node4 -->
<g id="edge26" class="edge"><title>Node19&#45;&gt;Node4</title>
<path fill="none" stroke="midnightblue" d="M502.27,-275.417C533.9,-249.509 633.055,-168.291 673.727,-134.977"/>
<polygon fill="midnightblue" stroke="midnightblue" points="675.955,-137.676 681.473,-128.632 671.519,-132.261 675.955,-137.676"/>
</g>
<!-- Node19&#45;&gt;Node6 -->
<g id="edge27" class="edge"><title>Node19&#45;&gt;Node6</title>
<path fill="none" stroke="midnightblue" d="M482.317,-275.431C463.696,-259.911 424.116,-223.885 405.401,-184 389.961,-151.094 386.741,-108.007 386.257,-83.8951"/>
<polygon fill="midnightblue" stroke="midnightblue" points="389.756,-83.69 386.197,-73.7107 382.756,-83.7311 389.756,-83.69"/>
</g>
<!-- Node20&#45;&gt;Node4 -->
<g id="edge29" class="edge"><title>Node20&#45;&gt;Node4</title>
<path fill="none" stroke="midnightblue" d="M651.976,-275.279C646.024,-263.173 636.697,-239.84 641.401,-220 648.842,-188.62 667.817,-155.887 680.134,-136.888"/>
<polygon fill="midnightblue" stroke="midnightblue" points="683.086,-138.77 685.719,-128.508 677.261,-134.888 683.086,-138.77"/>
</g>
<!-- Node20&#45;&gt;Node6 -->
<g id="edge34" class="edge"><title>Node20&#45;&gt;Node6</title>
<path fill="none" stroke="midnightblue" d="M652.335,-275.206C638.329,-247.492 589.251,-157.19 522.401,-110 498.826,-93.3577 468.644,-82.6562 442.706,-75.9307"/>
<polygon fill="midnightblue" stroke="midnightblue" points="443.541,-72.532 432.995,-73.5437 441.87,-79.3296 443.541,-72.532"/>
</g>
<!-- Node21 -->
<g id="node21" class="node"><title>Node21</title>
<g id="a_node21"><a xlink:href="$AP__Common_8h.html" xlink:title="Common definitions and utility routines for the ArduPilot libraries. ">
<polygon fill="white" stroke="black" points="1111.37,-165.5 1111.37,-183.5 1257.43,-183.5 1257.43,-165.5 1111.37,-165.5"/>
<text text-anchor="middle" x="1184.4" y="-171.5" font-family="Helvetica,sans-Serif" font-size="10.00">AP_Common/AP_Common.h</text>
</a>
</g>
</g>
<!-- Node20&#45;&gt;Node21 -->
<g id="edge30" class="edge"><title>Node20&#45;&gt;Node21</title>
<path fill="none" stroke="midnightblue" d="M695.4,-283.522C767.68,-282.61 926.714,-276.113 1054.4,-239 1094.82,-227.251 1138.03,-203.671 1163.06,-188.786"/>
<polygon fill="midnightblue" stroke="midnightblue" points="1164.97,-191.72 1171.72,-183.549 1161.35,-185.73 1164.97,-191.72"/>
</g>
<!-- Node20&#45;&gt;Node23 -->
<g id="edge35" class="edge"><title>Node20&#45;&gt;Node23</title>
<path fill="none" stroke="midnightblue" d="M663.901,-275.219C670.917,-267.473 681.578,-255.701 690.201,-246.18"/>
<polygon fill="midnightblue" stroke="midnightblue" points="692.993,-248.311 697.111,-238.55 687.804,-243.612 692.993,-248.311"/>
</g>
<!-- Node21&#45;&gt;Node4 -->
<g id="edge31" class="edge"><title>Node21&#45;&gt;Node4</title>
<path fill="none" stroke="midnightblue" d="M1111.13,-165.623C1003.05,-154.004 805.152,-132.729 725.726,-124.19"/>
<polygon fill="midnightblue" stroke="midnightblue" points="726.08,-120.708 715.763,-123.119 725.332,-127.668 726.08,-120.708"/>
</g>
<!-- Node21&#45;&gt;Node5 -->
<g id="edge33" class="edge"><title>Node21&#45;&gt;Node5</title>
<path fill="none" stroke="midnightblue" d="M1196.1,-165.45C1208.08,-157.201 1226.95,-144.216 1241.33,-134.319"/>
<polygon fill="midnightblue" stroke="midnightblue" points="1243.34,-137.178 1249.6,-128.625 1239.37,-131.412 1243.34,-137.178"/>
</g>
<!-- Node22 -->
<g id="node22" class="node"><title>Node22</title>
<polygon fill="white" stroke="#bfbfbf" points="1160.56,-110.5 1160.56,-128.5 1208.24,-128.5 1208.24,-110.5 1160.56,-110.5"/>
<text text-anchor="middle" x="1184.4" y="-116.5" font-family="Helvetica,sans-Serif" font-size="10.00">stdlib.h</text>
</g>
<!-- Node21&#45;&gt;Node22 -->
<g id="edge32" class="edge"><title>Node21&#45;&gt;Node22</title>
<path fill="none" stroke="midnightblue" d="M1184.4,-165.219C1184.4,-158.177 1184.4,-147.808 1184.4,-138.828"/>
<polygon fill="midnightblue" stroke="midnightblue" points="1187.9,-138.55 1184.4,-128.55 1180.9,-138.55 1187.9,-138.55"/>
</g>
<!-- Node23&#45;&gt;Node2 -->
<g id="edge36" class="edge"><title>Node23&#45;&gt;Node2</title>
<path fill="none" stroke="midnightblue" d="M724.297,-220.45C746.034,-211.656 781.073,-197.48 805.987,-187.401"/>
<polygon fill="midnightblue" stroke="midnightblue" points="807.361,-190.62 815.318,-183.625 804.735,-184.131 807.361,-190.62"/>
</g>
<!-- Node23&#45;&gt;Node6 -->
<g id="edge38" class="edge"><title>Node23&#45;&gt;Node6</title>
<path fill="none" stroke="midnightblue" d="M699.675,-220.28C686.645,-198.421 647.874,-138.587 598.401,-110 555.595,-85.2648 500.847,-74.1989 457.711,-69.2861"/>
<polygon fill="midnightblue" stroke="midnightblue" points="457.884,-65.785 447.572,-68.2193 457.151,-72.7466 457.884,-65.785"/>
</g>
<!-- Node23&#45;&gt;Node21 -->
<g id="edge37" class="edge"><title>Node23&#45;&gt;Node21</title>
<path fill="none" stroke="midnightblue" d="M759.025,-221.036C761.857,-220.678 764.662,-220.331 767.401,-220 799.557,-216.116 988.487,-196.131 1100.71,-184.305"/>
<polygon fill="midnightblue" stroke="midnightblue" points="1101.41,-187.751 1110.99,-183.222 1100.68,-180.789 1101.41,-187.751"/>
</g>
<!-- Node23&#45;&gt;Node24 -->
<g id="edge39" class="edge"><title>Node23&#45;&gt;Node24</title>
<path fill="none" stroke="midnightblue" d="M649.732,-223.773C527.599,-213.214 235.08,-187.922 129.896,-178.828"/>
<polygon fill="midnightblue" stroke="midnightblue" points="130,-175.324 119.736,-177.95 129.397,-182.298 130,-175.324"/>
</g>
<!-- Node24&#45;&gt;Node6 -->
<g id="edge40" class="edge"><title>Node24&#45;&gt;Node6</title>
<path fill="none" stroke="midnightblue" d="M94.9511,-165.318C101.416,-151.471 116.494,-123.6 138.401,-110 167.313,-92.0514 252.688,-79.4825 315.214,-72.3839"/>
<polygon fill="midnightblue" stroke="midnightblue" points="315.878,-75.8318 325.43,-71.2493 315.105,-68.8746 315.878,-75.8318"/>
</g>
<!-- Node24&#45;&gt;Node25 -->
<g id="edge41" class="edge"><title>Node24&#45;&gt;Node25</title>
<path fill="none" stroke="midnightblue" d="M87.1826,-165.219C83.4358,-157.864 77.8403,-146.88 73.1325,-137.639"/>
<polygon fill="midnightblue" stroke="midnightblue" points="76.16,-135.871 68.5021,-128.55 69.9228,-139.049 76.16,-135.871"/>
</g>
<!-- Node25&#45;&gt;Node6 -->
<g id="edge42" class="edge"><title>Node25&#45;&gt;Node6</title>
<path fill="none" stroke="midnightblue" d="M87.1967,-112.836C91.5667,-111.831 96.1157,-110.838 100.401,-110 173.442,-95.717 257.697,-83.066 315.741,-74.9393"/>
<polygon fill="midnightblue" stroke="midnightblue" points="316.483,-78.3699 325.905,-73.525 315.518,-71.4367 316.483,-78.3699"/>
</g>
<!-- Node25&#45;&gt;Node7 -->
<g id="edge44" class="edge"><title>Node25&#45;&gt;Node7</title>
<path fill="none" stroke="midnightblue" d="M78.9077,-110.382C112.102,-91.8077 193.821,-46.0788 234.138,-23.5179"/>
<polygon fill="midnightblue" stroke="midnightblue" points="235.972,-26.5021 242.99,-18.5644 232.554,-20.3934 235.972,-26.5021"/>
</g>
<!-- Node25&#45;&gt;Node14 -->
<g id="edge43" class="edge"><title>Node25&#45;&gt;Node14</title>
<path fill="none" stroke="midnightblue" d="M58.9326,-110.219C53.9723,-102.707 46.5124,-91.411 40.3316,-82.0515"/>
<polygon fill="midnightblue" stroke="midnightblue" points="43.1484,-79.9655 34.7171,-73.5496 37.3071,-83.823 43.1484,-79.9655"/>
</g>
<!-- Node26&#45;&gt;Node4 -->
<g id="edge47" class="edge"><title>Node26&#45;&gt;Node4</title>
<path fill="none" stroke="midnightblue" d="M480.562,-166.297C526.837,-156.245 610.357,-138.104 657.189,-127.931"/>
<polygon fill="midnightblue" stroke="midnightblue" points="658.124,-131.31 667.153,-125.767 656.638,-124.469 658.124,-131.31"/>
</g>
<!-- Node26&#45;&gt;Node6 -->
<g id="edge48" class="edge"><title>Node26&#45;&gt;Node6</title>
<path fill="none" stroke="midnightblue" d="M442.816,-165.382C432.925,-147.869 409.4,-106.218 396.062,-82.6045"/>
<polygon fill="midnightblue" stroke="midnightblue" points="399.005,-80.6976 391.039,-73.7118 392.91,-84.1402 399.005,-80.6976"/>
</g>
<!-- Node27&#45;&gt;Node4 -->
<g id="edge56" class="edge"><title>Node27&#45;&gt;Node4</title>
<path fill="none" stroke="midnightblue" d="M995.71,-220.307C970.069,-207.178 917.333,-181.254 870.401,-165 821.104,-147.927 762.057,-134.562 725.635,-127.1"/>
<polygon fill="midnightblue" stroke="midnightblue" points="726.036,-123.61 715.541,-125.065 724.652,-130.472 726.036,-123.61"/>
</g>
<!-- Node27&#45;&gt;Node6 -->
<g id="edge59" class="edge"><title>Node27&#45;&gt;Node6</title>
<path fill="none" stroke="midnightblue" d="M1001.03,-220.498C971.323,-198.113 882.606,-134.865 797.401,-110 681.493,-76.1745 540.431,-67.5888 457.332,-65.6776"/>
<polygon fill="midnightblue" stroke="midnightblue" points="457.311,-62.1765 447.242,-65.4719 457.169,-69.1751 457.311,-62.1765"/>
</g>
<!-- Node27&#45;&gt;Node9 -->
<g id="edge58" class="edge"><title>Node27&#45;&gt;Node9</title>
<path fill="none" stroke="midnightblue" d="M1016.4,-220.219C1020.89,-212.786 1027.62,-201.646 1033.23,-192.345"/>
<polygon fill="midnightblue" stroke="midnightblue" points="1036.37,-193.919 1038.54,-183.55 1030.38,-190.301 1036.37,-193.919"/>
</g>
<!-- Node27&#45;&gt;Node21 -->
<g id="edge57" class="edge"><title>Node27&#45;&gt;Node21</title>
<path fill="none" stroke="midnightblue" d="M1037.68,-220.45C1067.23,-211.396 1115.4,-196.638 1148.44,-186.519"/>
<polygon fill="midnightblue" stroke="midnightblue" points="1149.63,-189.814 1158.16,-183.538 1147.58,-183.121 1149.63,-189.814"/>
</g>
<!-- Node28&#45;&gt;Node6 -->
<g id="edge61" class="edge"><title>Node28&#45;&gt;Node6</title>
<path fill="none" stroke="midnightblue" d="M613.879,-330.189C596.7,-304.554 542.188,-224.839 489.401,-165 461.087,-132.903 424.277,-98.9799 403.2,-80.201"/>
<polygon fill="midnightblue" stroke="midnightblue" points="405.505,-77.5666 395.696,-73.5629 400.867,-82.8099 405.505,-77.5666"/>
</g>
<!-- Node29&#45;&gt;Node2 -->
<g id="edge63" class="edge"><title>Node29&#45;&gt;Node2</title>
<path fill="none" stroke="midnightblue" d="M891.377,-220.45C881.395,-212.434 865.845,-199.947 853.665,-190.166"/>
<polygon fill="midnightblue" stroke="midnightblue" points="855.508,-187.158 845.52,-183.625 851.125,-192.616 855.508,-187.158"/>
</g>
<!-- Node29&#45;&gt;Node6 -->
<g id="edge64" class="edge"><title>Node29&#45;&gt;Node6</title>
<path fill="none" stroke="midnightblue" d="M899.384,-220.422C895.71,-207.223 886.757,-180.911 870.401,-165 828.06,-123.808 806.266,-126.001 749.401,-110 650.459,-82.1578 531.493,-71.7335 457.394,-67.8319"/>
<polygon fill="midnightblue" stroke="midnightblue" points="457.405,-64.3282 447.243,-67.3236 457.055,-71.3195 457.405,-64.3282"/>
</g>
<!-- Node30&#45;&gt;Node3 -->
<g id="edge71" class="edge"><title>Node30&#45;&gt;Node3</title>
<path fill="none" stroke="midnightblue" d="M1176.86,-500.466C1062.99,-488.817 854.34,-467.474 750.505,-456.853"/>
<polygon fill="midnightblue" stroke="midnightblue" points="750.793,-453.364 740.489,-455.828 750.08,-460.328 750.793,-453.364"/>
</g>
<!-- Node30&#45;&gt;Node21 -->
<g id="edge70" class="edge"><title>Node30&#45;&gt;Node21</title>
<path fill="none" stroke="midnightblue" d="M1240.98,-495.433C1221.02,-475.836 1187.4,-436.713 1187.4,-395.5 1187.4,-395.5 1187.4,-395.5 1187.4,-283.5 1187.4,-252.005 1186.11,-215.365 1185.22,-193.877"/>
<polygon fill="midnightblue" stroke="midnightblue" points="1188.71,-193.467 1184.78,-183.627 1181.71,-193.768 1188.71,-193.467"/>
</g>
<!-- Node31 -->
<g id="node31" class="node"><title>Node31</title>
<g id="a_node31"><a xlink:href="$AP__InertialSensor__UserInteract_8h.html" xlink:title="AP_InertialSensor_UserInteract.h">
<polygon fill="white" stroke="black" points="1290.92,-330.5 1290.92,-348.5 1455.88,-348.5 1455.88,-330.5 1290.92,-330.5"/>
<text text-anchor="middle" x="1373.4" y="-336.5" font-family="Helvetica,sans-Serif" font-size="10.00">AP_InertialSensor_UserInteract.h</text>
</a>
</g>
</g>
<!-- Node30&#45;&gt;Node31 -->
<g id="edge72" class="edge"><title>Node30&#45;&gt;Node31</title>
<path fill="none" stroke="midnightblue" d="M1264.66,-495.317C1285.92,-465.044 1338.22,-390.594 1361.68,-357.191"/>
<polygon fill="midnightblue" stroke="midnightblue" points="1364.84,-358.777 1367.72,-348.582 1359.11,-354.753 1364.84,-358.777"/>
</g>
<!-- Node31&#45;&gt;Node21 -->
<g id="edge73" class="edge"><title>Node31&#45;&gt;Node21</title>
<path fill="none" stroke="midnightblue" d="M1364.03,-330.417C1334.11,-304.617 1240.6,-223.97 1201.67,-190.397"/>
<polygon fill="midnightblue" stroke="midnightblue" points="1203.69,-187.513 1193.83,-183.632 1199.12,-192.813 1203.69,-187.513"/>
</g>
</g>
</svg>
