<?xml version="1.0" encoding="UTF-8" standalone="no"?>
<!DOCTYPE svg PUBLIC "-//W3C//DTD SVG 1.1//EN"
 "http://www.w3.org/Graphics/SVG/1.1/DTD/svg11.dtd">
<!-- Generated by graphviz version 2.38.0 (20140413.2041)
 -->
<!-- Title: libraries/AP_BattMonitor/AP_BattMonitor_Backend.h Pages: 1 -->
<svg width="829pt" height="232pt"
 viewBox="0.00 0.00 829.41 232.00" xmlns="http://www.w3.org/2000/svg" xmlns:xlink="http://www.w3.org/1999/xlink">
<g id="graph0" class="graph" transform="scale(1 1) rotate(0) translate(4 228)">
<title>libraries/AP_BattMonitor/AP_BattMonitor_Backend.h</title>
<polygon fill="white" stroke="none" points="-4,4 -4,-228 825.411,-228 825.411,4 -4,4"/>
<!-- Node1 -->
<g id="node1" class="node"><title>Node1</title>
<polygon fill="#bfbfbf" stroke="black" points="437.5,-195.5 437.5,-223.5 579.13,-223.5 579.13,-195.5 437.5,-195.5"/>
<text text-anchor="start" x="445.5" y="-211.5" font-family="Helvetica,sans-Serif" font-size="10.00">libraries/AP_BattMonitor</text>
<text text-anchor="middle" x="508.315" y="-201.5" font-family="Helvetica,sans-Serif" font-size="10.00">/AP_BattMonitor_Backend.h</text>
</g>
<!-- Node2 -->
<g id="node2" class="node"><title>Node2</title>
<g id="a_node2"><a xlink:href="$AP__BattMonitor__Analog_8h.html" xlink:title="libraries/AP_BattMonitor\l/AP_BattMonitor_Analog.h">
<polygon fill="white" stroke="black" points="517.389,-130.5 517.389,-158.5 651.241,-158.5 651.241,-130.5 517.389,-130.5"/>
<text text-anchor="start" x="525.389" y="-146.5" font-family="Helvetica,sans-Serif" font-size="10.00">libraries/AP_BattMonitor</text>
<text text-anchor="middle" x="584.315" y="-136.5" font-family="Helvetica,sans-Serif" font-size="10.00">/AP_BattMonitor_Analog.h</text>
</a>
</g>
</g>
<!-- Node1&#45;&gt;Node2 -->
<g id="edge1" class="edge"><title>Node1&#45;&gt;Node2</title>
<path fill="none" stroke="midnightblue" d="M531.898,-188.951C543.832,-179.058 557.995,-167.318 568.588,-158.537"/>
<polygon fill="midnightblue" stroke="midnightblue" points="529.527,-186.37 524.062,-195.446 533.995,-191.759 529.527,-186.37"/>
</g>
<!-- Node5 -->
<g id="node5" class="node"><title>Node5</title>
<g id="a_node5"><a xlink:href="$AP__BattMonitor__SMBus_8h.html" xlink:title="libraries/AP_BattMonitor\l/AP_BattMonitor_SMBus.h">
<polygon fill="white" stroke="black" points="196.842,-130.5 196.842,-158.5 331.788,-158.5 331.788,-130.5 196.842,-130.5"/>
<text text-anchor="start" x="204.842" y="-146.5" font-family="Helvetica,sans-Serif" font-size="10.00">libraries/AP_BattMonitor</text>
<text text-anchor="middle" x="264.315" y="-136.5" font-family="Helvetica,sans-Serif" font-size="10.00">/AP_BattMonitor_SMBus.h</text>
</a>
</g>
</g>
<!-- Node1&#45;&gt;Node5 -->
<g id="edge4" class="edge"><title>Node1&#45;&gt;Node5</title>
<path fill="none" stroke="midnightblue" d="M447.902,-192.902C406.961,-182.331 353.477,-168.521 314.807,-158.537"/>
<polygon fill="midnightblue" stroke="midnightblue" points="447.2,-196.335 457.758,-195.446 448.951,-189.557 447.2,-196.335"/>
</g>
<!-- Node10 -->
<g id="node10" class="node"><title>Node10</title>
<g id="a_node10"><a xlink:href="$AP__BattMonitor__Bebop_8h.html" xlink:title="libraries/AP_BattMonitor\l/AP_BattMonitor_Bebop.h">
<polygon fill="white" stroke="black" points="367.5,-130.5 367.5,-158.5 499.13,-158.5 499.13,-130.5 367.5,-130.5"/>
<text text-anchor="start" x="375.5" y="-146.5" font-family="Helvetica,sans-Serif" font-size="10.00">libraries/AP_BattMonitor</text>
<text text-anchor="middle" x="433.315" y="-136.5" font-family="Helvetica,sans-Serif" font-size="10.00">/AP_BattMonitor_Bebop.h</text>
</a>
</g>
</g>
<!-- Node1&#45;&gt;Node10 -->
<g id="edge12" class="edge"><title>Node1&#45;&gt;Node10</title>
<path fill="none" stroke="midnightblue" d="M485.043,-188.951C473.265,-179.058 459.289,-167.318 448.835,-158.537"/>
<polygon fill="midnightblue" stroke="midnightblue" points="482.867,-191.694 492.775,-195.446 487.369,-186.334 482.867,-191.694"/>
</g>
<!-- Node12 -->
<g id="node12" class="node"><title>Node12</title>
<g id="a_node12"><a xlink:href="$AP__BattMonitor__Backend_8cpp.html" xlink:title="libraries/AP_BattMonitor\l/AP_BattMonitor_Backend.cpp">
<polygon fill="white" stroke="black" points="669.219,-130.5 669.219,-158.5 821.411,-158.5 821.411,-130.5 669.219,-130.5"/>
<text text-anchor="start" x="677.219" y="-146.5" font-family="Helvetica,sans-Serif" font-size="10.00">libraries/AP_BattMonitor</text>
<text text-anchor="middle" x="745.315" y="-136.5" font-family="Helvetica,sans-Serif" font-size="10.00">/AP_BattMonitor_Backend.cpp</text>
</a>
</g>
</g>
<!-- Node1&#45;&gt;Node12 -->
<g id="edge15" class="edge"><title>Node1&#45;&gt;Node12</title>
<path fill="none" stroke="midnightblue" d="M567.247,-192.835C606.981,-182.272 658.79,-168.5 696.271,-158.537"/>
<polygon fill="midnightblue" stroke="midnightblue" points="566.187,-189.495 557.421,-195.446 567.985,-196.26 566.187,-189.495"/>
</g>
<!-- Node3 -->
<g id="node3" class="node"><title>Node3</title>
<g id="a_node3"><a xlink:href="$AP__BattMonitor_8cpp.html" xlink:title="libraries/AP_BattMonitor\l/AP_BattMonitor.cpp">
<polygon fill="white" stroke="black" points="522.404,-65.5 522.404,-93.5 646.226,-93.5 646.226,-65.5 522.404,-65.5"/>
<text text-anchor="start" x="530.404" y="-81.5" font-family="Helvetica,sans-Serif" font-size="10.00">libraries/AP_BattMonitor</text>
<text text-anchor="middle" x="584.315" y="-71.5" font-family="Helvetica,sans-Serif" font-size="10.00">/AP_BattMonitor.cpp</text>
</a>
</g>
</g>
<!-- Node2&#45;&gt;Node3 -->
<g id="edge2" class="edge"><title>Node2&#45;&gt;Node3</title>
<path fill="none" stroke="midnightblue" d="M584.315,-120.164C584.315,-111.169 584.315,-101.221 584.315,-93.5369"/>
<polygon fill="midnightblue" stroke="midnightblue" points="580.815,-120.446 584.315,-130.446 587.815,-120.446 580.815,-120.446"/>
</g>
<!-- Node4 -->
<g id="node4" class="node"><title>Node4</title>
<g id="a_node4"><a xlink:href="$AP__BattMonitor__Analog_8cpp.html" xlink:title="libraries/AP_BattMonitor\l/AP_BattMonitor_Analog.cpp">
<polygon fill="white" stroke="black" points="664.108,-65.5 664.108,-93.5 808.521,-93.5 808.521,-65.5 664.108,-65.5"/>
<text text-anchor="start" x="672.108" y="-81.5" font-family="Helvetica,sans-Serif" font-size="10.00">libraries/AP_BattMonitor</text>
<text text-anchor="middle" x="736.315" y="-71.5" font-family="Helvetica,sans-Serif" font-size="10.00">/AP_BattMonitor_Analog.cpp</text>
</a>
</g>
</g>
<!-- Node2&#45;&gt;Node4 -->
<g id="edge3" class="edge"><title>Node2&#45;&gt;Node4</title>
<path fill="none" stroke="midnightblue" d="M625.059,-126.613C650.115,-116.228 681.739,-103.12 704.861,-93.5369"/>
<polygon fill="midnightblue" stroke="midnightblue" points="623.707,-123.384 615.809,-130.446 626.388,-129.851 623.707,-123.384"/>
</g>
<!-- Node5&#45;&gt;Node3 -->
<g id="edge5" class="edge"><title>Node5&#45;&gt;Node3</title>
<path fill="none" stroke="midnightblue" d="M340.751,-128.452C396.222,-117.531 470.323,-102.942 522.17,-92.7349"/>
<polygon fill="midnightblue" stroke="midnightblue" points="339.755,-125.081 330.619,-130.446 341.107,-131.949 339.755,-125.081"/>
</g>
<!-- Node6 -->
<g id="node6" class="node"><title>Node6</title>
<g id="a_node6"><a xlink:href="$AP__BattMonitor__SMBus__PX4_8h.html" xlink:title="libraries/AP_BattMonitor\l/AP_BattMonitor_SMBus_PX4.h">
<polygon fill="white" stroke="black" points="184.611,-65.5 184.611,-93.5 344.019,-93.5 344.019,-65.5 184.611,-65.5"/>
<text text-anchor="start" x="192.611" y="-81.5" font-family="Helvetica,sans-Serif" font-size="10.00">libraries/AP_BattMonitor</text>
<text text-anchor="middle" x="264.315" y="-71.5" font-family="Helvetica,sans-Serif" font-size="10.00">/AP_BattMonitor_SMBus_PX4.h</text>
</a>
</g>
</g>
<!-- Node5&#45;&gt;Node6 -->
<g id="edge6" class="edge"><title>Node5&#45;&gt;Node6</title>
<path fill="none" stroke="midnightblue" d="M257.786,-120.46C257.301,-111.388 257.614,-101.305 258.725,-93.5369"/>
<polygon fill="midnightblue" stroke="midnightblue" points="254.304,-120.817 258.722,-130.446 261.274,-120.163 254.304,-120.817"/>
</g>
<!-- Node8 -->
<g id="node8" class="node"><title>Node8</title>
<g id="a_node8"><a xlink:href="$AP__BattMonitor__SMBus__I2C_8h.html" xlink:title="libraries/AP_BattMonitor\l/AP_BattMonitor_SMBus_I2C.h">
<polygon fill="white" stroke="black" points="10.2808,-65.5 10.2808,-93.5 166.349,-93.5 166.349,-65.5 10.2808,-65.5"/>
<text text-anchor="start" x="18.2808" y="-81.5" font-family="Helvetica,sans-Serif" font-size="10.00">libraries/AP_BattMonitor</text>
<text text-anchor="middle" x="88.3149" y="-71.5" font-family="Helvetica,sans-Serif" font-size="10.00">/AP_BattMonitor_SMBus_I2C.h</text>
</a>
</g>
</g>
<!-- Node5&#45;&gt;Node8 -->
<g id="edge9" class="edge"><title>Node5&#45;&gt;Node8</title>
<path fill="none" stroke="midnightblue" d="M212.663,-127.159C182.297,-116.691 144.995,-103.289 119.145,-93.5369"/>
<polygon fill="midnightblue" stroke="midnightblue" points="211.66,-130.515 222.255,-130.446 213.93,-123.893 211.66,-130.515"/>
</g>
<!-- Node6&#45;&gt;Node5 -->
<g id="edge7" class="edge"><title>Node6&#45;&gt;Node5</title>
<path fill="none" stroke="midnightblue" d="M270.843,-103.52C271.329,-112.591 271.017,-122.675 269.908,-130.446"/>
<polygon fill="midnightblue" stroke="midnightblue" points="274.325,-103.166 269.905,-93.5369 267.356,-103.82 274.325,-103.166"/>
</g>
<!-- Node7 -->
<g id="node7" class="node"><title>Node7</title>
<g id="a_node7"><a xlink:href="$AP__BattMonitor__SMBus__PX4_8cpp.html" xlink:title="libraries/AP_BattMonitor\l/AP_BattMonitor_SMBus_PX4.cpp">
<polygon fill="white" stroke="black" points="184.33,-0.5 184.33,-28.5 354.3,-28.5 354.3,-0.5 184.33,-0.5"/>
<text text-anchor="start" x="192.33" y="-16.5" font-family="Helvetica,sans-Serif" font-size="10.00">libraries/AP_BattMonitor</text>
<text text-anchor="middle" x="269.315" y="-6.5" font-family="Helvetica,sans-Serif" font-size="10.00">/AP_BattMonitor_SMBus_PX4.cpp</text>
</a>
</g>
</g>
<!-- Node6&#45;&gt;Node7 -->
<g id="edge8" class="edge"><title>Node6&#45;&gt;Node7</title>
<path fill="none" stroke="midnightblue" d="M266.143,-55.4603C266.863,-46.3882 267.664,-36.305 268.28,-28.5369"/>
<polygon fill="midnightblue" stroke="midnightblue" points="262.653,-55.2008 265.351,-65.4464 269.631,-55.7546 262.653,-55.2008"/>
</g>
<!-- Node8&#45;&gt;Node5 -->
<g id="edge10" class="edge"><title>Node8&#45;&gt;Node5</title>
<path fill="none" stroke="midnightblue" d="M139.915,-96.8231C170.273,-107.288 207.577,-120.69 233.44,-130.446"/>
<polygon fill="midnightblue" stroke="midnightblue" points="140.92,-93.468 130.326,-93.5369 138.651,-100.09 140.92,-93.468"/>
</g>
<!-- Node9 -->
<g id="node9" class="node"><title>Node9</title>
<g id="a_node9"><a xlink:href="$AP__BattMonitor__SMBus__I2C_8cpp.html" xlink:title="libraries/AP_BattMonitor\l/AP_BattMonitor_SMBus_I2C.cpp">
<polygon fill="white" stroke="black" points="0,-0.5 0,-28.5 166.63,-28.5 166.63,-0.5 0,-0.5"/>
<text text-anchor="start" x="8" y="-16.5" font-family="Helvetica,sans-Serif" font-size="10.00">libraries/AP_BattMonitor</text>
<text text-anchor="middle" x="83.3149" y="-6.5" font-family="Helvetica,sans-Serif" font-size="10.00">/AP_BattMonitor_SMBus_I2C.cpp</text>
</a>
</g>
</g>
<!-- Node8&#45;&gt;Node9 -->
<g id="edge11" class="edge"><title>Node8&#45;&gt;Node9</title>
<path fill="none" stroke="midnightblue" d="M86.4864,-55.4603C85.7664,-46.3882 84.9661,-36.305 84.3496,-28.5369"/>
<polygon fill="midnightblue" stroke="midnightblue" points="82.9987,-55.7546 87.2789,-65.4464 89.9767,-55.2008 82.9987,-55.7546"/>
</g>
<!-- Node10&#45;&gt;Node3 -->
<g id="edge13" class="edge"><title>Node10&#45;&gt;Node3</title>
<path fill="none" stroke="midnightblue" d="M474.121,-126.475C498.959,-116.112 530.199,-103.078 553.068,-93.5369"/>
<polygon fill="midnightblue" stroke="midnightblue" points="472.484,-123.366 464.602,-130.446 475.179,-129.826 472.484,-123.366"/>
</g>
<!-- Node11 -->
<g id="node11" class="node"><title>Node11</title>
<g id="a_node11"><a xlink:href="$AP__BattMonitor__Bebop_8cpp.html" xlink:title="libraries/AP_BattMonitor\l/AP_BattMonitor_Bebop.cpp">
<polygon fill="white" stroke="black" points="362.219,-65.5 362.219,-93.5 504.411,-93.5 504.411,-65.5 362.219,-65.5"/>
<text text-anchor="start" x="370.219" y="-81.5" font-family="Helvetica,sans-Serif" font-size="10.00">libraries/AP_BattMonitor</text>
<text text-anchor="middle" x="433.315" y="-71.5" font-family="Helvetica,sans-Serif" font-size="10.00">/AP_BattMonitor_Bebop.cpp</text>
</a>
</g>
</g>
<!-- Node10&#45;&gt;Node11 -->
<g id="edge14" class="edge"><title>Node10&#45;&gt;Node11</title>
<path fill="none" stroke="midnightblue" d="M433.315,-120.164C433.315,-111.169 433.315,-101.221 433.315,-93.5369"/>
<polygon fill="midnightblue" stroke="midnightblue" points="429.815,-120.446 433.315,-130.446 436.815,-120.446 429.815,-120.446"/>
</g>
</g>
</svg>
