<?xml version="1.0" encoding="UTF-8" standalone="no"?>
<!DOCTYPE svg PUBLIC "-//W3C//DTD SVG 1.1//EN"
 "http://www.w3.org/Graphics/SVG/1.1/DTD/svg11.dtd">
<!-- Generated by graphviz version 2.38.0 (20140413.2041)
 -->
<!-- Title: libraries/AP_Relay/AP_Relay.h Pages: 1 -->
<svg width="804pt" height="177pt"
 viewBox="0.00 0.00 803.60 177.00" xmlns="http://www.w3.org/2000/svg" xmlns:xlink="http://www.w3.org/1999/xlink">
<g id="graph0" class="graph" transform="scale(1 1) rotate(0) translate(4 173)">
<title>libraries/AP_Relay/AP_Relay.h</title>
<polygon fill="white" stroke="none" points="-4,4 -4,-173 799.603,-173 799.603,4 -4,4"/>
<!-- Node1 -->
<g id="node1" class="node"><title>Node1</title>
<polygon fill="#bfbfbf" stroke="black" points="316,-140.5 316,-168.5 414.256,-168.5 414.256,-140.5 316,-140.5"/>
<text text-anchor="start" x="324" y="-156.5" font-family="Helvetica,sans-Serif" font-size="10.00">libraries/AP_Relay</text>
<text text-anchor="middle" x="365.128" y="-146.5" font-family="Helvetica,sans-Serif" font-size="10.00">/AP_Relay.h</text>
</g>
<!-- Node2 -->
<g id="node2" class="node"><title>Node2</title>
<g id="a_node2"><a xlink:href="$AP__Camera_8h.html" xlink:title="Photo or video camera manager, with EEPROM&#45;backed storage of constants. ">
<polygon fill="white" stroke="black" points="0,-75.5 0,-103.5 108.256,-103.5 108.256,-75.5 0,-75.5"/>
<text text-anchor="start" x="8" y="-91.5" font-family="Helvetica,sans-Serif" font-size="10.00">libraries/AP_Camera</text>
<text text-anchor="middle" x="54.1279" y="-81.5" font-family="Helvetica,sans-Serif" font-size="10.00">/AP_Camera.h</text>
</a>
</g>
</g>
<!-- Node1&#45;&gt;Node2 -->
<g id="edge1" class="edge"><title>Node1&#45;&gt;Node2</title>
<path fill="none" stroke="midnightblue" d="M305.912,-141.505C248.971,-129.97 163.626,-112.681 108.403,-101.495"/>
<polygon fill="midnightblue" stroke="midnightblue" points="305.353,-144.962 315.849,-143.517 306.743,-138.102 305.353,-144.962"/>
</g>
<!-- Node3 -->
<g id="node3" class="node"><title>Node3</title>
<g id="a_node3"><a xlink:href="$AP__Camera_8cpp.html" xlink:title="libraries/AP_Camera\l/AP_Camera.cpp">
<polygon fill="white" stroke="black" points="41,-5.5 41,-33.5 149.256,-33.5 149.256,-5.5 41,-5.5"/>
<text text-anchor="start" x="49" y="-21.5" font-family="Helvetica,sans-Serif" font-size="10.00">libraries/AP_Camera</text>
<text text-anchor="middle" x="95.1279" y="-11.5" font-family="Helvetica,sans-Serif" font-size="10.00">/AP_Camera.cpp</text>
</a>
</g>
</g>
<!-- Node1&#45;&gt;Node3 -->
<g id="edge3" class="edge"><title>Node1&#45;&gt;Node3</title>
<path fill="none" stroke="midnightblue" d="M305.7,-150.614C261.023,-145.948 200.041,-134.046 155.128,-104 128.57,-86.233 109.817,-52.4883 100.939,-33.7961"/>
<polygon fill="midnightblue" stroke="midnightblue" points="305.542,-154.114 315.829,-151.578 306.205,-147.146 305.542,-154.114"/>
</g>
<!-- Node4 -->
<g id="node4" class="node"><title>Node4</title>
<g id="a_node4"><a xlink:href="$AP__LandingGear_8cpp.html" xlink:title="libraries/AP_LandingGear\l/AP_LandingGear.cpp">
<polygon fill="white" stroke="black" points="163.872,-75.5 163.872,-103.5 294.384,-103.5 294.384,-75.5 163.872,-75.5"/>
<text text-anchor="start" x="171.872" y="-91.5" font-family="Helvetica,sans-Serif" font-size="10.00">libraries/AP_LandingGear</text>
<text text-anchor="middle" x="229.128" y="-81.5" font-family="Helvetica,sans-Serif" font-size="10.00">/AP_LandingGear.cpp</text>
</a>
</g>
</g>
<!-- Node1&#45;&gt;Node4 -->
<g id="edge4" class="edge"><title>Node1&#45;&gt;Node4</title>
<path fill="none" stroke="midnightblue" d="M327.781,-136.199C305.507,-125.882 277.686,-112.994 257.271,-103.537"/>
<polygon fill="midnightblue" stroke="midnightblue" points="326.404,-139.419 336.949,-140.446 329.346,-133.067 326.404,-139.419"/>
</g>
<!-- Node5 -->
<g id="node5" class="node"><title>Node5</title>
<g id="a_node5"><a xlink:href="$AP__Parachute_8h.html" xlink:title="Parachute release library. ">
<polygon fill="white" stroke="black" points="349.99,-75.5 349.99,-103.5 468.266,-103.5 468.266,-75.5 349.99,-75.5"/>
<text text-anchor="start" x="357.99" y="-91.5" font-family="Helvetica,sans-Serif" font-size="10.00">libraries/AP_Parachute</text>
<text text-anchor="middle" x="409.128" y="-81.5" font-family="Helvetica,sans-Serif" font-size="10.00">/AP_Parachute.h</text>
</a>
</g>
</g>
<!-- Node1&#45;&gt;Node5 -->
<g id="edge5" class="edge"><title>Node1&#45;&gt;Node5</title>
<path fill="none" stroke="midnightblue" d="M379.989,-132.221C386.63,-122.713 394.244,-111.812 400.023,-103.537"/>
<polygon fill="midnightblue" stroke="midnightblue" points="377.101,-130.244 374.245,-140.446 382.84,-134.252 377.101,-130.244"/>
</g>
<!-- Node6 -->
<g id="node6" class="node"><title>Node6</title>
<g id="a_node6"><a xlink:href="$AP__Parachute_8cpp.html" xlink:title="libraries/AP_Parachute\l/AP_Parachute.cpp">
<polygon fill="white" stroke="black" points="268.99,-5.5 268.99,-33.5 387.266,-33.5 387.266,-5.5 268.99,-5.5"/>
<text text-anchor="start" x="276.99" y="-21.5" font-family="Helvetica,sans-Serif" font-size="10.00">libraries/AP_Parachute</text>
<text text-anchor="middle" x="328.128" y="-11.5" font-family="Helvetica,sans-Serif" font-size="10.00">/AP_Parachute.cpp</text>
</a>
</g>
</g>
<!-- Node1&#45;&gt;Node6 -->
<g id="edge8" class="edge"><title>Node1&#45;&gt;Node6</title>
<path fill="none" stroke="midnightblue" d="M352.685,-131.422C348.44,-123.057 344.036,-113.304 341.128,-104 333.556,-79.7747 330.281,-50.1586 328.954,-33.5009"/>
<polygon fill="midnightblue" stroke="midnightblue" points="349.719,-133.3 357.496,-140.495 355.903,-130.021 349.719,-133.3"/>
</g>
<!-- Node7 -->
<g id="node7" class="node"><title>Node7</title>
<g id="a_node7"><a xlink:href="$AP__Parachute__test_8cpp.html" xlink:title="libraries/AP_Parachute\l/examples/AP_Parachute\l_test/AP_Parachute_test.cpp">
<polygon fill="white" stroke="black" points="417.365,-0.5 417.365,-38.5 562.891,-38.5 562.891,-0.5 417.365,-0.5"/>
<text text-anchor="start" x="425.365" y="-26.5" font-family="Helvetica,sans-Serif" font-size="10.00">libraries/AP_Parachute</text>
<text text-anchor="start" x="425.365" y="-16.5" font-family="Helvetica,sans-Serif" font-size="10.00">/examples/AP_Parachute</text>
<text text-anchor="middle" x="490.128" y="-6.5" font-family="Helvetica,sans-Serif" font-size="10.00">_test/AP_Parachute_test.cpp</text>
</a>
</g>
</g>
<!-- Node1&#45;&gt;Node7 -->
<g id="edge9" class="edge"><title>Node1&#45;&gt;Node7</title>
<path fill="none" stroke="midnightblue" d="M423.971,-139.858C443.703,-132.423 464.004,-121.102 477.128,-104 491.508,-85.2612 492.943,-57.0661 492.027,-38.7206"/>
<polygon fill="midnightblue" stroke="midnightblue" points="422.656,-136.61 414.363,-143.204 424.958,-143.22 422.656,-136.61"/>
</g>
<!-- Node8 -->
<g id="node8" class="node"><title>Node8</title>
<g id="a_node8"><a xlink:href="$AP__Relay_8cpp.html" xlink:title="libraries/AP_Relay\l/AP_Relay.cpp">
<polygon fill="white" stroke="black" points="524,-75.5 524,-103.5 622.256,-103.5 622.256,-75.5 524,-75.5"/>
<text text-anchor="start" x="532" y="-91.5" font-family="Helvetica,sans-Serif" font-size="10.00">libraries/AP_Relay</text>
<text text-anchor="middle" x="573.128" y="-81.5" font-family="Helvetica,sans-Serif" font-size="10.00">/AP_Relay.cpp</text>
</a>
</g>
</g>
<!-- Node1&#45;&gt;Node8 -->
<g id="edge10" class="edge"><title>Node1&#45;&gt;Node8</title>
<path fill="none" stroke="midnightblue" d="M418.184,-137.43C452.875,-126.923 497.609,-113.374 530.085,-103.537"/>
<polygon fill="midnightblue" stroke="midnightblue" points="416.782,-134.198 408.226,-140.446 418.811,-140.897 416.782,-134.198"/>
</g>
<!-- Node9 -->
<g id="node9" class="node"><title>Node9</title>
<g id="a_node9"><a xlink:href="$AP__ServoRelayEvents_8h.html" xlink:title="libraries/AP_ServoRelayEvents\l/AP_ServoRelayEvents.h">
<polygon fill="white" stroke="black" points="640.653,-75.5 640.653,-103.5 795.603,-103.5 795.603,-75.5 640.653,-75.5"/>
<text text-anchor="start" x="648.653" y="-91.5" font-family="Helvetica,sans-Serif" font-size="10.00">libraries/AP_ServoRelayEvents</text>
<text text-anchor="middle" x="718.128" y="-81.5" font-family="Helvetica,sans-Serif" font-size="10.00">/AP_ServoRelayEvents.h</text>
</a>
</g>
</g>
<!-- Node1&#45;&gt;Node9 -->
<g id="edge11" class="edge"><title>Node1&#45;&gt;Node9</title>
<path fill="none" stroke="midnightblue" d="M424.781,-142.854C485.555,-132.007 579.889,-115.172 645.097,-103.534"/>
<polygon fill="midnightblue" stroke="midnightblue" points="423.812,-139.471 414.583,-144.674 425.042,-146.362 423.812,-139.471"/>
</g>
<!-- Node2&#45;&gt;Node3 -->
<g id="edge2" class="edge"><title>Node2&#45;&gt;Node3</title>
<path fill="none" stroke="midnightblue" d="M67.2195,-66.7872C73.8101,-55.8565 81.581,-42.9681 87.247,-33.5708"/>
<polygon fill="midnightblue" stroke="midnightblue" points="64.1993,-65.0179 62.0331,-75.3889 70.194,-68.6323 64.1993,-65.0179"/>
</g>
<!-- Node5&#45;&gt;Node6 -->
<g id="edge6" class="edge"><title>Node5&#45;&gt;Node6</title>
<path fill="none" stroke="midnightblue" d="M385.581,-68.7324C372.101,-57.4156 355.563,-43.5319 343.698,-33.5708"/>
<polygon fill="midnightblue" stroke="midnightblue" points="383.601,-71.6398 393.51,-75.3889 388.102,-66.2786 383.601,-71.6398"/>
</g>
<!-- Node5&#45;&gt;Node7 -->
<g id="edge7" class="edge"><title>Node5&#45;&gt;Node7</title>
<path fill="none" stroke="midnightblue" d="M432.535,-68.8493C443.853,-59.3481 457.352,-48.016 468.435,-38.7116"/>
<polygon fill="midnightblue" stroke="midnightblue" points="430.154,-66.2786 424.746,-75.3889 434.655,-71.6398 430.154,-66.2786"/>
</g>
<!-- Node10 -->
<g id="node10" class="node"><title>Node10</title>
<g id="a_node10"><a xlink:href="$AP__ServoRelayEvents_8cpp.html" xlink:title="libraries/AP_ServoRelayEvents\l/AP_ServoRelayEvents.cpp">
<polygon fill="white" stroke="black" points="640.653,-5.5 640.653,-33.5 795.603,-33.5 795.603,-5.5 640.653,-5.5"/>
<text text-anchor="start" x="648.653" y="-21.5" font-family="Helvetica,sans-Serif" font-size="10.00">libraries/AP_ServoRelayEvents</text>
<text text-anchor="middle" x="718.128" y="-11.5" font-family="Helvetica,sans-Serif" font-size="10.00">/AP_ServoRelayEvents.cpp</text>
</a>
</g>
</g>
<!-- Node9&#45;&gt;Node10 -->
<g id="edge12" class="edge"><title>Node9&#45;&gt;Node10</title>
<path fill="none" stroke="midnightblue" d="M718.128,-65.1336C718.128,-54.5764 718.128,-42.4982 718.128,-33.5708"/>
<polygon fill="midnightblue" stroke="midnightblue" points="714.628,-65.3889 718.128,-75.3889 721.628,-65.389 714.628,-65.3889"/>
</g>
</g>
</svg>
