<?xml version="1.0" encoding="UTF-8" standalone="no"?>
<!DOCTYPE svg PUBLIC "-//W3C//DTD SVG 1.1//EN"
 "http://www.w3.org/Graphics/SVG/1.1/DTD/svg11.dtd">
<!-- Generated by graphviz version 2.38.0 (20140413.2041)
 -->
<!-- Title: setup Pages: 1 -->
<svg width="628pt" height="200pt"
 viewBox="0.00 0.00 627.54 200.00" xmlns="http://www.w3.org/2000/svg" xmlns:xlink="http://www.w3.org/1999/xlink">
<g id="graph0" class="graph" transform="scale(1 1) rotate(0) translate(4 196)">
<title>setup</title>
<polygon fill="white" stroke="none" points="-4,4 -4,-196 623.537,-196 623.537,4 -4,4"/>
<!-- Node1 -->
<g id="node1" class="node"><title>Node1</title>
<polygon fill="#bfbfbf" stroke="black" points="0,-75.5 0,-93.5 40.4629,-93.5 40.4629,-75.5 0,-75.5"/>
<text text-anchor="middle" x="20.2314" y="-81.5" font-family="Helvetica,sans-Serif" font-size="10.00">setup</text>
</g>
<!-- Node2 -->
<g id="node2" class="node"><title>Node2</title>
<g id="a_node2"><a xlink:href="$classAP__HAL_1_1Scheduler.html#ab3175e2e6223ccfe82f957e41cc12b26" xlink:title="AP_HAL::Scheduler::\ldelay">
<polygon fill="white" stroke="black" points="94.2461,-141.5 94.2461,-169.5 204.743,-169.5 204.743,-141.5 94.2461,-141.5"/>
<text text-anchor="start" x="102.246" y="-157.5" font-family="Helvetica,sans-Serif" font-size="10.00">AP_HAL::Scheduler::</text>
<text text-anchor="middle" x="149.495" y="-147.5" font-family="Helvetica,sans-Serif" font-size="10.00">delay</text>
</a>
</g>
</g>
<!-- Node1&#45;&gt;Node2 -->
<g id="edge1" class="edge"><title>Node1&#45;&gt;Node2</title>
<path fill="none" stroke="midnightblue" d="M29.3696,-93.5275C39.4593,-104.221 57.6385,-121.914 76.4629,-132.5 79.6847,-134.312 83.0691,-136.003 86.5414,-137.579"/>
<polygon fill="midnightblue" stroke="midnightblue" points="85.3104,-140.858 95.8868,-141.482 88.0085,-134.398 85.3104,-140.858"/>
</g>
<!-- Node3 -->
<g id="node3" class="node"><title>Node3</title>
<g id="a_node3"><a xlink:href="$classAP__HAL_1_1UARTDriver.html#a65c7824b8877f7a2f79365c8ffae8f56" xlink:title="AP_HAL::UARTDriver\l::printf">
<polygon fill="white" stroke="black" points="92.6836,-94.5 92.6836,-122.5 206.306,-122.5 206.306,-94.5 92.6836,-94.5"/>
<text text-anchor="start" x="100.684" y="-110.5" font-family="Helvetica,sans-Serif" font-size="10.00">AP_HAL::UARTDriver</text>
<text text-anchor="middle" x="149.495" y="-100.5" font-family="Helvetica,sans-Serif" font-size="10.00">::printf</text>
</a>
</g>
</g>
<!-- Node1&#45;&gt;Node3 -->
<g id="edge2" class="edge"><title>Node1&#45;&gt;Node3</title>
<path fill="none" stroke="midnightblue" d="M40.56,-88.1451C51.9679,-90.2965 67.1474,-93.1591 82.51,-96.0563"/>
<polygon fill="midnightblue" stroke="midnightblue" points="82.1187,-99.5441 92.5941,-97.958 83.416,-92.6653 82.1187,-99.5441"/>
</g>
<!-- Node11 -->
<g id="node11" class="node"><title>Node11</title>
<g id="a_node11"><a xlink:href="$classAP__HAL_1_1SPIDeviceManager.html#a572a9273615ae0cb5fc859417161ade1" xlink:title="AP_HAL::SPIDeviceManager\l::device">
<polygon fill="white" stroke="black" points="76.4629,-47.5 76.4629,-75.5 222.526,-75.5 222.526,-47.5 76.4629,-47.5"/>
<text text-anchor="start" x="84.4629" y="-63.5" font-family="Helvetica,sans-Serif" font-size="10.00">AP_HAL::SPIDeviceManager</text>
<text text-anchor="middle" x="149.495" y="-53.5" font-family="Helvetica,sans-Serif" font-size="10.00">::device</text>
</a>
</g>
</g>
<!-- Node1&#45;&gt;Node11 -->
<g id="edge10" class="edge"><title>Node1&#45;&gt;Node11</title>
<path fill="none" stroke="midnightblue" d="M40.56,-81.0068C47.8882,-79.6824 56.7728,-78.0767 66.2625,-76.3616"/>
<polygon fill="midnightblue" stroke="midnightblue" points="67.1129,-79.7647 76.331,-74.542 65.8679,-72.8763 67.1129,-79.7647"/>
</g>
<!-- Node12 -->
<g id="node12" class="node"><title>Node12</title>
<g id="a_node12"><a xlink:href="$classAP__HAL_1_1Scheduler.html#ac08c02070405b6cc1d7241025acb5101" xlink:title="AP_HAL::Scheduler::\lpanic">
<polygon fill="white" stroke="black" points="94.2461,-0.5 94.2461,-28.5 204.743,-28.5 204.743,-0.5 94.2461,-0.5"/>
<text text-anchor="start" x="102.246" y="-16.5" font-family="Helvetica,sans-Serif" font-size="10.00">AP_HAL::Scheduler::</text>
<text text-anchor="middle" x="149.495" y="-6.5" font-family="Helvetica,sans-Serif" font-size="10.00">panic</text>
</a>
</g>
</g>
<!-- Node1&#45;&gt;Node12 -->
<g id="edge11" class="edge"><title>Node1&#45;&gt;Node12</title>
<path fill="none" stroke="midnightblue" d="M30.2,-75.1778C40.514,-64.9271 58.3642,-48.5771 76.4629,-38.5 80.3911,-36.3128 84.5513,-34.2824 88.812,-32.4058"/>
<polygon fill="midnightblue" stroke="midnightblue" points="90.3204,-35.5703 98.2486,-28.5422 87.668,-29.0922 90.3204,-35.5703"/>
</g>
<!-- Node4 -->
<g id="node4" class="node"><title>Node4</title>
<g id="a_node4"><a xlink:href="$classAP__HAL_1_1UARTDriver.html#aa8abfb6d6641299472c29ac1edde559f" xlink:title="AP_HAL::UARTDriver\l::vprintf">
<polygon fill="white" stroke="black" points="258.526,-94.5 258.526,-122.5 372.148,-122.5 372.148,-94.5 258.526,-94.5"/>
<text text-anchor="start" x="266.526" y="-110.5" font-family="Helvetica,sans-Serif" font-size="10.00">AP_HAL::UARTDriver</text>
<text text-anchor="middle" x="315.337" y="-100.5" font-family="Helvetica,sans-Serif" font-size="10.00">::vprintf</text>
</a>
</g>
</g>
<!-- Node3&#45;&gt;Node4 -->
<g id="edge3" class="edge"><title>Node3&#45;&gt;Node4</title>
<path fill="none" stroke="midnightblue" d="M206.422,-108.5C219.793,-108.5 234.194,-108.5 247.985,-108.5"/>
<polygon fill="midnightblue" stroke="midnightblue" points="248.384,-112 258.384,-108.5 248.384,-105 248.384,-112"/>
</g>
<!-- Node5 -->
<g id="node5" class="node"><title>Node5</title>
<g id="a_node5"><a xlink:href="$print__vprintf_8cpp.html#a473b9349f4b086b552a21eb8fe057016" xlink:title="print_vprintf">
<polygon fill="white" stroke="black" points="408.148,-99.5 408.148,-117.5 476.395,-117.5 476.395,-99.5 408.148,-99.5"/>
<text text-anchor="middle" x="442.271" y="-105.5" font-family="Helvetica,sans-Serif" font-size="10.00">print_vprintf</text>
</a>
</g>
</g>
<!-- Node4&#45;&gt;Node5 -->
<g id="edge4" class="edge"><title>Node4&#45;&gt;Node5</title>
<path fill="none" stroke="midnightblue" d="M372.227,-108.5C380.815,-108.5 389.571,-108.5 397.835,-108.5"/>
<polygon fill="midnightblue" stroke="midnightblue" points="397.991,-112 407.991,-108.5 397.991,-105 397.991,-112"/>
</g>
<!-- Node6 -->
<g id="node6" class="node"><title>Node6</title>
<g id="a_node6"><a xlink:href="$classAP__HAL_1_1Print.html#acc65391952a43334f8f5c9bef341f501" xlink:title="AP_HAL::Print::write">
<polygon fill="white" stroke="black" points="512.395,-173.5 512.395,-191.5 619.537,-191.5 619.537,-173.5 512.395,-173.5"/>
<text text-anchor="middle" x="565.966" y="-179.5" font-family="Helvetica,sans-Serif" font-size="10.00">AP_HAL::Print::write</text>
</a>
</g>
</g>
<!-- Node5&#45;&gt;Node6 -->
<g id="edge5" class="edge"><title>Node5&#45;&gt;Node6</title>
<path fill="none" stroke="midnightblue" d="M452.335,-117.633C464.858,-129.806 488.61,-151.34 512.395,-164.5 515.857,-166.416 519.559,-168.18 523.335,-169.791"/>
<polygon fill="midnightblue" stroke="midnightblue" points="522.194,-173.103 532.782,-173.483 524.742,-166.583 522.194,-173.103"/>
</g>
<!-- Node7 -->
<g id="node7" class="node"><title>Node7</title>
<g id="a_node7"><a xlink:href="$ftoa__engine_8cpp.html#a1c28234da8f20b43c85890d4bb452947" xlink:title="ftoa_engine">
<polygon fill="white" stroke="black" points="531.831,-136.5 531.831,-154.5 600.101,-154.5 600.101,-136.5 531.831,-136.5"/>
<text text-anchor="middle" x="565.966" y="-142.5" font-family="Helvetica,sans-Serif" font-size="10.00">ftoa_engine</text>
</a>
</g>
</g>
<!-- Node5&#45;&gt;Node7 -->
<g id="edge6" class="edge"><title>Node5&#45;&gt;Node7</title>
<path fill="none" stroke="midnightblue" d="M473.041,-117.551C488.805,-122.344 508.374,-128.294 525.399,-133.47"/>
<polygon fill="midnightblue" stroke="midnightblue" points="524.496,-136.854 535.082,-136.414 526.532,-130.156 524.496,-136.854"/>
</g>
<!-- Node8 -->
<g id="node8" class="node"><title>Node8</title>
<g id="a_node8"><a xlink:href="$AP__Progmem_8h.html#a1514e0408e036062b4af844baaf567da" xlink:title="pgm_read_byte">
<polygon fill="white" stroke="black" points="523.22,-99.5 523.22,-117.5 608.712,-117.5 608.712,-99.5 523.22,-99.5"/>
<text text-anchor="middle" x="565.966" y="-105.5" font-family="Helvetica,sans-Serif" font-size="10.00">pgm_read_byte</text>
</a>
</g>
</g>
<!-- Node5&#45;&gt;Node8 -->
<g id="edge7" class="edge"><title>Node5&#45;&gt;Node8</title>
<path fill="none" stroke="midnightblue" d="M476.525,-108.5C487.741,-108.5 500.544,-108.5 512.859,-108.5"/>
<polygon fill="midnightblue" stroke="midnightblue" points="513.043,-112 523.043,-108.5 513.043,-105 513.043,-112"/>
</g>
<!-- Node9 -->
<g id="node9" class="node"><title>Node9</title>
<g id="a_node9"><a xlink:href="$utoa__invert_8cpp.html#a34926f552460b47c414ec4d83b32815c" xlink:title="ulltoa_invert">
<polygon fill="white" stroke="black" points="531.005,-62.5 531.005,-80.5 600.926,-80.5 600.926,-62.5 531.005,-62.5"/>
<text text-anchor="middle" x="565.966" y="-68.5" font-family="Helvetica,sans-Serif" font-size="10.00">ulltoa_invert</text>
</a>
</g>
</g>
<!-- Node5&#45;&gt;Node9 -->
<g id="edge8" class="edge"><title>Node5&#45;&gt;Node9</title>
<path fill="none" stroke="midnightblue" d="M473.041,-99.4488C488.805,-94.6558 508.374,-88.7062 525.399,-83.5298"/>
<polygon fill="midnightblue" stroke="midnightblue" points="526.532,-86.8437 535.082,-80.586 524.496,-80.1464 526.532,-86.8437"/>
</g>
<!-- Node10 -->
<g id="node10" class="node"><title>Node10</title>
<g id="a_node10"><a xlink:href="$utoa__invert_8cpp.html#a5d99bba8e697c1e11da489d88fca8559" xlink:title="ultoa_invert">
<polygon fill="white" stroke="black" points="532.116,-25.5 532.116,-43.5 599.815,-43.5 599.815,-25.5 532.116,-25.5"/>
<text text-anchor="middle" x="565.966" y="-31.5" font-family="Helvetica,sans-Serif" font-size="10.00">ultoa_invert</text>
</a>
</g>
</g>
<!-- Node5&#45;&gt;Node10 -->
<g id="edge9" class="edge"><title>Node5&#45;&gt;Node10</title>
<path fill="none" stroke="midnightblue" d="M452.834,-99.1918C465.538,-87.2457 489.099,-66.514 512.395,-53.5 516.411,-51.2563 520.743,-49.192 525.135,-47.3176"/>
<polygon fill="midnightblue" stroke="midnightblue" points="526.733,-50.4496 534.749,-43.5217 524.162,-43.9387 526.733,-50.4496"/>
</g>
</g>
</svg>
