<?xml version="1.0" encoding="UTF-8" standalone="no"?>
<!DOCTYPE svg PUBLIC "-//W3C//DTD SVG 1.1//EN"
 "http://www.w3.org/Graphics/SVG/1.1/DTD/svg11.dtd">
<!-- Generated by graphviz version 2.38.0 (20140413.2041)
 -->
<!-- Title: libraries/AP_RangeFinder/AP_RangeFinder_MaxsonarI2CXL.h Pages: 1 -->
<svg width="348pt" height="102pt"
 viewBox="0.00 0.00 348.08 102.00" xmlns="http://www.w3.org/2000/svg" xmlns:xlink="http://www.w3.org/1999/xlink">
<g id="graph0" class="graph" transform="scale(1 1) rotate(0) translate(4 98)">
<title>libraries/AP_RangeFinder/AP_RangeFinder_MaxsonarI2CXL.h</title>
<polygon fill="white" stroke="none" points="-4,4 -4,-98 344.078,-98 344.078,4 -4,4"/>
<!-- Node1 -->
<g id="node1" class="node"><title>Node1</title>
<polygon fill="#bfbfbf" stroke="black" points="94.2808,-65.5 94.2808,-93.5 275.374,-93.5 275.374,-65.5 94.2808,-65.5"/>
<text text-anchor="start" x="102.281" y="-81.5" font-family="Helvetica,sans-Serif" font-size="10.00">libraries/AP_RangeFinder</text>
<text text-anchor="middle" x="184.827" y="-71.5" font-family="Helvetica,sans-Serif" font-size="10.00">/AP_RangeFinder_MaxsonarI2CXL.h</text>
</g>
<!-- Node2 -->
<g id="node2" class="node"><title>Node2</title>
<g id="a_node2"><a xlink:href="$AP__RangeFinder__MaxsonarI2CXL_8cpp.html" xlink:title="libraries/AP_RangeFinder\l/AP_RangeFinder_MaxsonarI2CXL.cpp">
<polygon fill="white" stroke="black" points="0,-0.5 0,-28.5 191.654,-28.5 191.654,-0.5 0,-0.5"/>
<text text-anchor="start" x="8" y="-16.5" font-family="Helvetica,sans-Serif" font-size="10.00">libraries/AP_RangeFinder</text>
<text text-anchor="middle" x="95.8271" y="-6.5" font-family="Helvetica,sans-Serif" font-size="10.00">/AP_RangeFinder_MaxsonarI2CXL.cpp</text>
</a>
</g>
</g>
<!-- Node1&#45;&gt;Node2 -->
<g id="edge1" class="edge"><title>Node1&#45;&gt;Node2</title>
<path fill="none" stroke="midnightblue" d="M158.014,-59.52C143.874,-49.5107 126.888,-37.4871 114.244,-28.5369"/>
<polygon fill="midnightblue" stroke="midnightblue" points="156.202,-62.5254 166.386,-65.4464 160.246,-56.812 156.202,-62.5254"/>
</g>
<!-- Node3 -->
<g id="node3" class="node"><title>Node3</title>
<g id="a_node3"><a xlink:href="$RangeFinder_8cpp.html" xlink:title="libraries/AP_RangeFinder\l/RangeFinder.cpp">
<polygon fill="white" stroke="black" points="209.576,-0.5 209.576,-28.5 340.078,-28.5 340.078,-0.5 209.576,-0.5"/>
<text text-anchor="start" x="217.576" y="-16.5" font-family="Helvetica,sans-Serif" font-size="10.00">libraries/AP_RangeFinder</text>
<text text-anchor="middle" x="274.827" y="-6.5" font-family="Helvetica,sans-Serif" font-size="10.00">/RangeFinder.cpp</text>
</a>
</g>
</g>
<!-- Node1&#45;&gt;Node3 -->
<g id="edge2" class="edge"><title>Node1&#45;&gt;Node3</title>
<path fill="none" stroke="midnightblue" d="M211.941,-59.52C226.24,-49.5107 243.417,-37.4871 256.203,-28.5369"/>
<polygon fill="midnightblue" stroke="midnightblue" points="209.66,-56.8444 203.475,-65.4464 213.675,-62.579 209.66,-56.8444"/>
</g>
</g>
</svg>
