<?xml version="1.0" encoding="UTF-8" standalone="no"?>
<!DOCTYPE svg PUBLIC "-//W3C//DTD SVG 1.1//EN"
 "http://www.w3.org/Graphics/SVG/1.1/DTD/svg11.dtd">
<!-- Generated by graphviz version 2.38.0 (20140413.2041)
 -->
<!-- Title: wgsecef2llh Pages: 1 -->
<svg width="298pt" height="37pt"
 viewBox="0.00 0.00 298.10 37.00" xmlns="http://www.w3.org/2000/svg" xmlns:xlink="http://www.w3.org/1999/xlink">
<g id="graph0" class="graph" transform="scale(1 1) rotate(0) translate(4 33)">
<title>wgsecef2llh</title>
<polygon fill="white" stroke="none" points="-4,4 -4,-33 294.098,-33 294.098,4 -4,4"/>
<!-- Node1 -->
<g id="node1" class="node"><title>Node1</title>
<polygon fill="#bfbfbf" stroke="black" points="0,-5.5 0,-23.5 68.251,-23.5 68.251,-5.5 0,-5.5"/>
<text text-anchor="middle" x="34.1255" y="-11.5" font-family="Helvetica,sans-Serif" font-size="10.00">wgsecef2llh</text>
</g>
<!-- Node2 -->
<g id="node2" class="node"><title>Node2</title>
<g id="a_node2"><a xlink:href="$examples_2location_2location_8cpp.html#a630a3e10ff505da8c4e7dbcfdbd1ff76" xlink:title="test_wgs_conversion\l_functions">
<polygon fill="white" stroke="black" points="104.251,-0.5 104.251,-28.5 213.635,-28.5 213.635,-0.5 104.251,-0.5"/>
<text text-anchor="start" x="112.251" y="-16.5" font-family="Helvetica,sans-Serif" font-size="10.00">test_wgs_conversion</text>
<text text-anchor="middle" x="158.943" y="-6.5" font-family="Helvetica,sans-Serif" font-size="10.00">_functions</text>
</a>
</g>
</g>
<!-- Node1&#45;&gt;Node2 -->
<g id="edge1" class="edge"><title>Node1&#45;&gt;Node2</title>
<path fill="none" stroke="midnightblue" d="M78.4582,-14.5C86.6683,-14.5 95.3517,-14.5 103.846,-14.5"/>
<polygon fill="midnightblue" stroke="midnightblue" points="78.3617,-11.0001 68.3616,-14.5 78.3616,-18.0001 78.3617,-11.0001"/>
</g>
<!-- Node3 -->
<g id="node3" class="node"><title>Node3</title>
<g id="a_node3"><a xlink:href="$examples_2location_2location_8cpp.html#a7dfd9b79bc5a37d7df40207afbc5431f" xlink:title="setup">
<polygon fill="white" stroke="black" points="249.635,-5.5 249.635,-23.5 290.098,-23.5 290.098,-5.5 249.635,-5.5"/>
<text text-anchor="middle" x="269.866" y="-11.5" font-family="Helvetica,sans-Serif" font-size="10.00">setup</text>
</a>
</g>
</g>
<!-- Node2&#45;&gt;Node3 -->
<g id="edge2" class="edge"><title>Node2&#45;&gt;Node3</title>
<path fill="none" stroke="midnightblue" d="M223.973,-14.5C233.289,-14.5 242.22,-14.5 249.628,-14.5"/>
<polygon fill="midnightblue" stroke="midnightblue" points="223.766,-11.0001 213.766,-14.5 223.766,-18.0001 223.766,-11.0001"/>
</g>
</g>
</svg>
