<?xml version="1.0" encoding="UTF-8" standalone="no"?>
<!DOCTYPE svg PUBLIC "-//W3C//DTD SVG 1.1//EN"
 "http://www.w3.org/Graphics/SVG/1.1/DTD/svg11.dtd">
<!-- Generated by graphviz version 2.38.0 (20140413.2041)
 -->
<!-- Title: libraries/AP_HAL/AP_HAL.h Pages: 1 -->
<svg width="1376pt" height="477pt"
 viewBox="0.00 0.00 1375.92 477.00" xmlns="http://www.w3.org/2000/svg" xmlns:xlink="http://www.w3.org/1999/xlink">
<g id="graph0" class="graph" transform="scale(1 1) rotate(0) translate(4 473)">
<title>libraries/AP_HAL/AP_HAL.h</title>
<polygon fill="white" stroke="none" points="-4,4 -4,-473 1371.92,-473 1371.92,4 -4,4"/>
<!-- Node1 -->
<g id="node1" class="node"><title>Node1</title>
<polygon fill="#bfbfbf" stroke="black" points="570.271,-440.5 570.271,-468.5 678.532,-468.5 678.532,-440.5 570.271,-440.5"/>
<text text-anchor="start" x="578.271" y="-456.5" font-family="Helvetica,sans-Serif" font-size="10.00">libraries/AP_HAL/AP</text>
<text text-anchor="middle" x="624.401" y="-446.5" font-family="Helvetica,sans-Serif" font-size="10.00">_HAL.h</text>
</g>
<!-- Node2 -->
<g id="node2" class="node"><title>Node2</title>
<polygon fill="white" stroke="#bfbfbf" points="766.281,-110.5 766.281,-128.5 814.522,-128.5 814.522,-110.5 766.281,-110.5"/>
<text text-anchor="middle" x="790.401" y="-116.5" font-family="Helvetica,sans-Serif" font-size="10.00">stdint.h</text>
</g>
<!-- Node1&#45;&gt;Node2 -->
<g id="edge1" class="edge"><title>Node1&#45;&gt;Node2</title>
<path fill="none" stroke="midnightblue" d="M650.515,-440.403C665.236,-431.839 682.921,-419.391 694.401,-404 727.393,-359.772 771.713,-193.825 785.861,-138.544"/>
<polygon fill="midnightblue" stroke="midnightblue" points="789.274,-139.324 788.342,-128.77 782.489,-137.601 789.274,-139.324"/>
</g>
<!-- Node3 -->
<g id="node3" class="node"><title>Node3</title>
<polygon fill="white" stroke="#bfbfbf" points="426.108,-110.5 426.108,-128.5 482.694,-128.5 482.694,-110.5 426.108,-110.5"/>
<text text-anchor="middle" x="454.401" y="-116.5" font-family="Helvetica,sans-Serif" font-size="10.00">stdbool.h</text>
</g>
<!-- Node1&#45;&gt;Node3 -->
<g id="edge2" class="edge"><title>Node1&#45;&gt;Node3</title>
<path fill="none" stroke="midnightblue" d="M596.873,-440.395C581.614,-431.901 563.364,-419.526 551.401,-404 485.993,-319.107 463.04,-187.251 456.571,-138.995"/>
<polygon fill="midnightblue" stroke="midnightblue" points="460.013,-138.322 455.292,-128.837 453.068,-139.196 460.013,-138.322"/>
</g>
<!-- Node4 -->
<g id="node4" class="node"><title>Node4</title>
<g id="a_node4"><a xlink:href="$AP__HAL__Namespace_8h.html" xlink:title="AP_HAL_Namespace.h">
<polygon fill="white" stroke="black" points="449.594,-55.5 449.594,-73.5 571.209,-73.5 571.209,-55.5 449.594,-55.5"/>
<text text-anchor="middle" x="510.401" y="-61.5" font-family="Helvetica,sans-Serif" font-size="10.00">AP_HAL_Namespace.h</text>
</a>
</g>
</g>
<!-- Node1&#45;&gt;Node4 -->
<g id="edge3" class="edge"><title>Node1&#45;&gt;Node4</title>
<path fill="none" stroke="midnightblue" d="M678.857,-451.187C794.17,-445.824 1059.45,-430.903 1145.4,-404 1200.38,-386.791 1258.4,-398.109 1258.4,-340.5 1258.4,-340.5 1258.4,-340.5 1258.4,-173.5 1258.4,-125.27 1215.77,-126.366 1170.4,-110 1063.78,-71.5401 729.202,-65.9331 581.584,-65.3817"/>
<polygon fill="midnightblue" stroke="midnightblue" points="581.295,-61.8809 571.284,-65.3504 581.273,-68.8809 581.295,-61.8809"/>
</g>
<!-- Node7 -->
<g id="node7" class="node"><title>Node7</title>
<g id="a_node7"><a xlink:href="$AP__HAL__Boards_8h.html" xlink:title="AP_HAL_Boards.h">
<polygon fill="white" stroke="black" points="970.431,-165.5 970.431,-183.5 1070.37,-183.5 1070.37,-165.5 970.431,-165.5"/>
<text text-anchor="middle" x="1020.4" y="-171.5" font-family="Helvetica,sans-Serif" font-size="10.00">AP_HAL_Boards.h</text>
</a>
</g>
</g>
<!-- Node1&#45;&gt;Node7 -->
<g id="edge6" class="edge"><title>Node1&#45;&gt;Node7</title>
<path fill="none" stroke="midnightblue" d="M678.644,-451.136C797.504,-444.476 1070.4,-420.477 1070.4,-340.5 1070.4,-340.5 1070.4,-340.5 1070.4,-283.5 1070.4,-248.202 1048.14,-211.919 1033.32,-191.685"/>
<polygon fill="midnightblue" stroke="midnightblue" points="1035.99,-189.413 1027.14,-183.579 1030.42,-193.655 1035.99,-189.413"/>
</g>
<!-- Node8 -->
<g id="node8" class="node"><title>Node8</title>
<g id="a_node8"><a xlink:href="$AP__HAL__Macros_8h.html" xlink:title="AP_HAL_Macros.h">
<polygon fill="white" stroke="black" points="230.882,-385.5 230.882,-403.5 331.921,-403.5 331.921,-385.5 230.882,-385.5"/>
<text text-anchor="middle" x="281.401" y="-391.5" font-family="Helvetica,sans-Serif" font-size="10.00">AP_HAL_Macros.h</text>
</a>
</g>
</g>
<!-- Node1&#45;&gt;Node8 -->
<g id="edge7" class="edge"><title>Node1&#45;&gt;Node8</title>
<path fill="none" stroke="midnightblue" d="M570.052,-444.31C506.936,-433.637 403.269,-416.107 338.857,-405.216"/>
<polygon fill="midnightblue" stroke="midnightblue" points="339.312,-401.743 328.869,-403.527 338.145,-408.645 339.312,-401.743"/>
</g>
<!-- Node9 -->
<g id="node9" class="node"><title>Node9</title>
<g id="a_node9"><a xlink:href="$AP__HAL__Main_8h.html" xlink:title="AP_HAL_Main.h">
<polygon fill="white" stroke="black" points="579.436,-385.5 579.436,-403.5 669.367,-403.5 669.367,-385.5 579.436,-385.5"/>
<text text-anchor="middle" x="624.401" y="-391.5" font-family="Helvetica,sans-Serif" font-size="10.00">AP_HAL_Main.h</text>
</a>
</g>
</g>
<!-- Node1&#45;&gt;Node9 -->
<g id="edge8" class="edge"><title>Node1&#45;&gt;Node9</title>
<path fill="none" stroke="midnightblue" d="M624.401,-440.339C624.401,-432.531 624.401,-422.512 624.401,-413.927"/>
<polygon fill="midnightblue" stroke="midnightblue" points="627.901,-413.771 624.401,-403.771 620.901,-413.772 627.901,-413.771"/>
</g>
<!-- Node10 -->
<g id="node10" class="node"><title>Node10</title>
<g id="a_node10"><a xlink:href="$HAL_8h.html" xlink:title="HAL.h">
<polygon fill="white" stroke="black" points="568.505,-330.5 568.505,-348.5 612.298,-348.5 612.298,-330.5 568.505,-330.5"/>
<text text-anchor="middle" x="590.401" y="-336.5" font-family="Helvetica,sans-Serif" font-size="10.00">HAL.h</text>
</a>
</g>
</g>
<!-- Node1&#45;&gt;Node10 -->
<g id="edge66" class="edge"><title>Node1&#45;&gt;Node10</title>
<path fill="none" stroke="midnightblue" d="M602.872,-440.328C590.88,-431.662 577.059,-419.134 570.401,-404 563.652,-388.656 570.969,-370.317 578.581,-357.301"/>
<polygon fill="midnightblue" stroke="midnightblue" points="581.761,-358.826 584.231,-348.523 575.875,-355.038 581.761,-358.826"/>
</g>
<!-- Node11 -->
<g id="node11" class="node"><title>Node11</title>
<g id="a_node11"><a xlink:href="$AnalogIn_8h.html" xlink:title="AnalogIn.h">
<polygon fill="white" stroke="black" points="71.4927,-220.5 71.4927,-238.5 135.31,-238.5 135.31,-220.5 71.4927,-220.5"/>
<text text-anchor="middle" x="103.401" y="-226.5" font-family="Helvetica,sans-Serif" font-size="10.00">AnalogIn.h</text>
</a>
</g>
</g>
<!-- Node1&#45;&gt;Node11 -->
<g id="edge48" class="edge"><title>Node1&#45;&gt;Node11</title>
<path fill="none" stroke="midnightblue" d="M570.237,-451.279C452.419,-445.966 180.862,-430.917 149.401,-404 103.251,-364.514 100.71,-284.583 102.125,-248.681"/>
<polygon fill="midnightblue" stroke="midnightblue" points="105.621,-248.855 102.674,-238.679 98.6313,-248.472 105.621,-248.855"/>
</g>
<!-- Node13 -->
<g id="node13" class="node"><title>Node13</title>
<g id="a_node13"><a xlink:href="$GPIO_8h.html" xlink:title="GPIO.h">
<polygon fill="white" stroke="black" points="502.729,-220.5 502.729,-238.5 552.074,-238.5 552.074,-220.5 502.729,-220.5"/>
<text text-anchor="middle" x="527.401" y="-226.5" font-family="Helvetica,sans-Serif" font-size="10.00">GPIO.h</text>
</a>
</g>
</g>
<!-- Node1&#45;&gt;Node13 -->
<g id="edge50" class="edge"><title>Node1&#45;&gt;Node13</title>
<path fill="none" stroke="midnightblue" d="M602.021,-440.436C589.077,-431.73 573.581,-419.122 564.401,-404 533.951,-353.836 528.332,-282.233 527.449,-248.893"/>
<polygon fill="midnightblue" stroke="midnightblue" points="530.947,-248.742 527.301,-238.794 523.948,-248.844 530.947,-248.742"/>
</g>
<!-- Node14 -->
<g id="node14" class="node"><title>Node14</title>
<g id="a_node14"><a xlink:href="$RCInput_8h.html" xlink:title="RCInput.h">
<polygon fill="white" stroke="black" points="347.889,-275.5 347.889,-293.5 408.914,-293.5 408.914,-275.5 347.889,-275.5"/>
<text text-anchor="middle" x="378.401" y="-281.5" font-family="Helvetica,sans-Serif" font-size="10.00">RCInput.h</text>
</a>
</g>
</g>
<!-- Node1&#45;&gt;Node14 -->
<g id="edge51" class="edge"><title>Node1&#45;&gt;Node14</title>
<path fill="none" stroke="midnightblue" d="M569.871,-453.419C525.42,-450.515 463.629,-439.616 423.401,-404 393.691,-377.696 383.509,-329.656 380.085,-303.55"/>
<polygon fill="midnightblue" stroke="midnightblue" points="383.556,-303.093 378.968,-293.543 376.599,-303.87 383.556,-303.093"/>
</g>
<!-- Node15 -->
<g id="node15" class="node"><title>Node15</title>
<g id="a_node15"><a xlink:href="$RCOutput_8h.html" xlink:title="RCOutput.h">
<polygon fill="white" stroke="black" points="765,-275.5 765,-293.5 833.803,-293.5 833.803,-275.5 765,-275.5"/>
<text text-anchor="middle" x="799.401" y="-281.5" font-family="Helvetica,sans-Serif" font-size="10.00">RCOutput.h</text>
</a>
</g>
</g>
<!-- Node1&#45;&gt;Node15 -->
<g id="edge52" class="edge"><title>Node1&#45;&gt;Node15</title>
<path fill="none" stroke="midnightblue" d="M678.637,-442.768C703.474,-435.459 731.695,-423.448 751.401,-404 779.624,-376.148 791.832,-329.464 796.633,-303.793"/>
<polygon fill="midnightblue" stroke="midnightblue" points="800.136,-304.063 798.348,-293.62 793.234,-302.899 800.136,-304.063"/>
</g>
<!-- Node16 -->
<g id="node16" class="node"><title>Node16</title>
<g id="a_node16"><a xlink:href="$SPIDriver_8h.html" xlink:title="SPIDriver.h">
<polygon fill="white" stroke="black" points="1136.11,-275.5 1136.11,-293.5 1202.69,-293.5 1202.69,-275.5 1136.11,-275.5"/>
<text text-anchor="middle" x="1169.4" y="-281.5" font-family="Helvetica,sans-Serif" font-size="10.00">SPIDriver.h</text>
</a>
</g>
</g>
<!-- Node1&#45;&gt;Node16 -->
<g id="edge47" class="edge"><title>Node1&#45;&gt;Node16</title>
<path fill="none" stroke="midnightblue" d="M678.657,-451.267C800.421,-445.811 1087.54,-430.288 1122.4,-404 1154.42,-379.855 1164.66,-330.528 1167.91,-303.759"/>
<polygon fill="midnightblue" stroke="midnightblue" points="1171.42,-303.813 1168.94,-293.512 1164.46,-303.111 1171.42,-303.813"/>
</g>
<!-- Node17 -->
<g id="node17" class="node"><title>Node17</title>
<g id="a_node17"><a xlink:href="$Storage_8h.html" xlink:title="Storage.h">
<polygon fill="white" stroke="black" points="851.719,-275.5 851.719,-293.5 911.083,-293.5 911.083,-275.5 851.719,-275.5"/>
<text text-anchor="middle" x="881.401" y="-281.5" font-family="Helvetica,sans-Serif" font-size="10.00">Storage.h</text>
</a>
</g>
</g>
<!-- Node1&#45;&gt;Node17 -->
<g id="edge49" class="edge"><title>Node1&#45;&gt;Node17</title>
<path fill="none" stroke="midnightblue" d="M678.721,-442.556C708.347,-434.9 744.716,-422.639 773.401,-404 816.036,-376.296 852.814,-327.796 870.387,-302.282"/>
<polygon fill="midnightblue" stroke="midnightblue" points="873.47,-303.969 876.154,-293.72 867.664,-300.059 873.47,-303.969"/>
</g>
<!-- Node18 -->
<g id="node18" class="node"><title>Node18</title>
<g id="a_node18"><a xlink:href="$UARTDriver_8h.html" xlink:title="UARTDriver.h">
<polygon fill="white" stroke="black" points="579.649,-275.5 579.649,-293.5 657.153,-293.5 657.153,-275.5 579.649,-275.5"/>
<text text-anchor="middle" x="618.401" y="-281.5" font-family="Helvetica,sans-Serif" font-size="10.00">UARTDriver.h</text>
</a>
</g>
</g>
<!-- Node1&#45;&gt;Node18 -->
<g id="edge43" class="edge"><title>Node1&#45;&gt;Node18</title>
<path fill="none" stroke="midnightblue" d="M645.93,-440.328C657.923,-431.662 671.744,-419.134 678.401,-404 681.802,-396.27 680.664,-393.136 678.401,-385 669.388,-352.6 646.668,-320.201 631.916,-301.543"/>
<polygon fill="midnightblue" stroke="midnightblue" points="634.436,-299.094 625.409,-293.547 629.006,-303.513 634.436,-299.094"/>
</g>
<!-- Node21 -->
<g id="node21" class="node"><title>Node21</title>
<g id="a_node21"><a xlink:href="$BetterStream_8h.html" xlink:title="utility/BetterStream.h">
<polygon fill="white" stroke="black" points="247.995,-220.5 247.995,-238.5 356.808,-238.5 356.808,-220.5 247.995,-220.5"/>
<text text-anchor="middle" x="302.401" y="-226.5" font-family="Helvetica,sans-Serif" font-size="10.00">utility/BetterStream.h</text>
</a>
</g>
</g>
<!-- Node1&#45;&gt;Node21 -->
<g id="edge65" class="edge"><title>Node1&#45;&gt;Node21</title>
<path fill="none" stroke="midnightblue" d="M570.261,-452.978C522.5,-449.986 453.106,-439.202 404.401,-404 349.206,-364.107 318.932,-284.388 307.626,-248.611"/>
<polygon fill="midnightblue" stroke="midnightblue" points="310.857,-247.206 304.614,-238.646 304.157,-249.231 310.857,-247.206"/>
</g>
<!-- Node23 -->
<g id="node23" class="node"><title>Node23</title>
<g id="a_node23"><a xlink:href="$Stream_8h.html" xlink:title="Stream.h">
<polygon fill="white" stroke="black" points="130.116,-165.5 130.116,-183.5 186.687,-183.5 186.687,-165.5 130.116,-165.5"/>
<text text-anchor="middle" x="158.401" y="-171.5" font-family="Helvetica,sans-Serif" font-size="10.00">Stream.h</text>
</a>
</g>
</g>
<!-- Node1&#45;&gt;Node23 -->
<g id="edge64" class="edge"><title>Node1&#45;&gt;Node23</title>
<path fill="none" stroke="midnightblue" d="M569.992,-452.756C470.559,-450.486 264.217,-441.285 204.401,-404 175.892,-386.23 163.401,-374.094 163.401,-340.5 163.401,-340.5 163.401,-340.5 163.401,-283.5 163.401,-251.984 161.25,-215.35 159.77,-193.869"/>
<polygon fill="midnightblue" stroke="midnightblue" points="163.242,-193.347 159.035,-183.623 156.26,-193.848 163.242,-193.347"/>
</g>
<!-- Node24 -->
<g id="node24" class="node"><title>Node24</title>
<g id="a_node24"><a xlink:href="$Print_8h.html" xlink:title="Print.h">
<polygon fill="white" stroke="black" points="31.9507,-110.5 31.9507,-128.5 76.8521,-128.5 76.8521,-110.5 31.9507,-110.5"/>
<text text-anchor="middle" x="54.4014" y="-116.5" font-family="Helvetica,sans-Serif" font-size="10.00">Print.h</text>
</a>
</g>
</g>
<!-- Node1&#45;&gt;Node24 -->
<g id="edge63" class="edge"><title>Node1&#45;&gt;Node24</title>
<path fill="none" stroke="midnightblue" d="M570.264,-454.346C426.031,-455.154 43.4014,-447.24 43.4014,-340.5 43.4014,-340.5 43.4014,-340.5 43.4014,-228.5 43.4014,-196.708 48.1773,-159.922 51.4353,-138.526"/>
<polygon fill="midnightblue" stroke="midnightblue" points="54.8999,-139.025 53.0082,-128.6 47.9861,-137.929 54.8999,-139.025"/>
</g>
<!-- Node25 -->
<g id="node25" class="node"><title>Node25</title>
<g id="a_node25"><a xlink:href="$I2CDriver_8h.html" xlink:title="I2CDriver.h">
<polygon fill="white" stroke="black" points="1126.39,-165.5 1126.39,-183.5 1192.41,-183.5 1192.41,-165.5 1126.39,-165.5"/>
<text text-anchor="middle" x="1159.4" y="-171.5" font-family="Helvetica,sans-Serif" font-size="10.00">I2CDriver.h</text>
</a>
</g>
</g>
<!-- Node1&#45;&gt;Node25 -->
<g id="edge44" class="edge"><title>Node1&#45;&gt;Node25</title>
<path fill="none" stroke="midnightblue" d="M678.981,-452.204C805.56,-447.721 1108.4,-427.866 1108.4,-340.5 1108.4,-340.5 1108.4,-340.5 1108.4,-283.5 1108.4,-248.076 1131.11,-211.836 1146.22,-191.644"/>
<polygon fill="midnightblue" stroke="midnightblue" points="1149.14,-193.596 1152.52,-183.556 1143.62,-189.295 1149.14,-193.596"/>
</g>
<!-- Node26 -->
<g id="node26" class="node"><title>Node26</title>
<g id="a_node26"><a xlink:href="$Scheduler_8h.html" xlink:title="Scheduler.h">
<polygon fill="white" stroke="black" points="919.99,-220.5 919.99,-238.5 988.812,-238.5 988.812,-220.5 919.99,-220.5"/>
<text text-anchor="middle" x="954.401" y="-226.5" font-family="Helvetica,sans-Serif" font-size="10.00">Scheduler.h</text>
</a>
</g>
</g>
<!-- Node1&#45;&gt;Node26 -->
<g id="edge53" class="edge"><title>Node1&#45;&gt;Node26</title>
<path fill="none" stroke="midnightblue" d="M678.904,-444.99C715.023,-437.751 762.547,-425.078 800.401,-404 863.613,-368.803 876.03,-351.146 920.401,-294 931.415,-279.815 940.772,-261.562 946.864,-248.269"/>
<polygon fill="midnightblue" stroke="midnightblue" points="950.188,-249.406 951.02,-238.844 943.783,-246.582 950.188,-249.406"/>
</g>
<!-- Node27 -->
<g id="node27" class="node"><title>Node27</title>
<g id="a_node27"><a xlink:href="$Semaphores_8h.html" xlink:title="Semaphores.h">
<polygon fill="white" stroke="black" points="1286.88,-330.5 1286.88,-348.5 1367.92,-348.5 1367.92,-330.5 1286.88,-330.5"/>
<text text-anchor="middle" x="1327.4" y="-336.5" font-family="Helvetica,sans-Serif" font-size="10.00">Semaphores.h</text>
</a>
</g>
</g>
<!-- Node1&#45;&gt;Node27 -->
<g id="edge58" class="edge"><title>Node1&#45;&gt;Node27</title>
<path fill="none" stroke="midnightblue" d="M678.676,-451.716C824.971,-446.576 1220,-430.394 1272.4,-404 1292.49,-393.881 1308.33,-372.909 1317.76,-357.833"/>
<polygon fill="midnightblue" stroke="midnightblue" points="1320.93,-359.34 1323,-348.95 1314.91,-355.781 1320.93,-359.34"/>
</g>
<!-- Node28 -->
<g id="node28" class="node"><title>Node28</title>
<g id="a_node28"><a xlink:href="$Util_8h.html" xlink:title="Util.h">
<polygon fill="white" stroke="black" points="191.01,-220.5 191.01,-238.5 229.793,-238.5 229.793,-220.5 191.01,-220.5"/>
<text text-anchor="middle" x="210.401" y="-226.5" font-family="Helvetica,sans-Serif" font-size="10.00">Util.h</text>
</a>
</g>
</g>
<!-- Node1&#45;&gt;Node28 -->
<g id="edge60" class="edge"><title>Node1&#45;&gt;Node28</title>
<path fill="none" stroke="midnightblue" d="M569.873,-450.62C465.328,-444.557 244.914,-428.94 221.401,-404 181.234,-361.395 195.629,-283.723 204.957,-248.602"/>
<polygon fill="midnightblue" stroke="midnightblue" points="208.378,-249.367 207.732,-238.792 201.642,-247.462 208.378,-249.367"/>
</g>
<!-- Node5 -->
<g id="node5" class="node"><title>Node5</title>
<polygon fill="white" stroke="#bfbfbf" points="323.005,-0.5 323.005,-18.5 371.798,-18.5 371.798,-0.5 323.005,-0.5"/>
<text text-anchor="middle" x="347.401" y="-6.5" font-family="Helvetica,sans-Serif" font-size="10.00">string.h</text>
</g>
<!-- Node4&#45;&gt;Node5 -->
<g id="edge4" class="edge"><title>Node4&#45;&gt;Node5</title>
<path fill="none" stroke="midnightblue" d="M485.645,-55.4504C457.84,-46.4094 412.54,-31.6802 381.422,-21.5618"/>
<polygon fill="midnightblue" stroke="midnightblue" points="382.449,-18.2154 371.856,-18.4517 380.284,-24.8724 382.449,-18.2154"/>
</g>
<!-- Node6 -->
<g id="node6" class="node"><title>Node6</title>
<g id="a_node6"><a xlink:href="$functor_8h.html" xlink:title="utility/functor.h">
<polygon fill="white" stroke="black" points="470.438,-0.5 470.438,-18.5 550.364,-18.5 550.364,-0.5 470.438,-0.5"/>
<text text-anchor="middle" x="510.401" y="-6.5" font-family="Helvetica,sans-Serif" font-size="10.00">utility/functor.h</text>
</a>
</g>
</g>
<!-- Node4&#45;&gt;Node6 -->
<g id="edge5" class="edge"><title>Node4&#45;&gt;Node6</title>
<path fill="none" stroke="midnightblue" d="M510.401,-55.2188C510.401,-48.1769 510.401,-37.8083 510.401,-28.8277"/>
<polygon fill="midnightblue" stroke="midnightblue" points="513.901,-28.5495 510.401,-18.5496 506.901,-28.5496 513.901,-28.5495"/>
</g>
<!-- Node9&#45;&gt;Node10 -->
<g id="edge9" class="edge"><title>Node9&#45;&gt;Node10</title>
<path fill="none" stroke="midnightblue" d="M619.089,-385.219C614.27,-377.707 607.024,-366.411 601.019,-357.052"/>
<polygon fill="midnightblue" stroke="midnightblue" points="603.911,-355.077 595.565,-348.55 598.019,-358.856 603.911,-355.077"/>
</g>
<!-- Node10&#45;&gt;Node4 -->
<g id="edge10" class="edge"><title>Node10&#45;&gt;Node4</title>
<path fill="none" stroke="midnightblue" d="M578.991,-330.163C545.344,-304.725 447.032,-224.015 417.401,-129 414.887,-120.938 412.9,-117.144 417.401,-110 427.545,-93.9005 445.303,-83.4982 462.601,-76.8378"/>
<polygon fill="midnightblue" stroke="midnightblue" points="463.829,-80.1161 472.113,-73.51 461.518,-73.5088 463.829,-80.1161"/>
</g>
<!-- Node10&#45;&gt;Node11 -->
<g id="edge11" class="edge"><title>Node10&#45;&gt;Node11</title>
<path fill="none" stroke="midnightblue" d="M568.361,-335.285C524.389,-328.721 422.741,-312.802 338.401,-294 267.456,-278.184 185.766,-254.957 139.792,-241.417"/>
<polygon fill="midnightblue" stroke="midnightblue" points="140.576,-237.999 129.994,-238.518 138.59,-244.711 140.576,-237.999"/>
</g>
<!-- Node10&#45;&gt;Node13 -->
<g id="edge14" class="edge"><title>Node10&#45;&gt;Node13</title>
<path fill="none" stroke="midnightblue" d="M585.666,-330.382C575.45,-312.869 551.154,-271.218 537.379,-247.605"/>
<polygon fill="midnightblue" stroke="midnightblue" points="540.254,-245.586 532.192,-238.712 534.207,-249.113 540.254,-245.586"/>
</g>
<!-- Node10&#45;&gt;Node14 -->
<g id="edge17" class="edge"><title>Node10&#45;&gt;Node14</title>
<path fill="none" stroke="midnightblue" d="M568.114,-332.928C532.806,-324.101 463.475,-306.768 419.12,-295.68"/>
<polygon fill="midnightblue" stroke="midnightblue" points="419.787,-292.239 409.237,-293.209 418.089,-299.03 419.787,-292.239"/>
</g>
<!-- Node10&#45;&gt;Node15 -->
<g id="edge19" class="edge"><title>Node10&#45;&gt;Node15</title>
<path fill="none" stroke="midnightblue" d="M612.373,-332.928C646.793,-324.2 714.008,-307.155 757.784,-296.054"/>
<polygon fill="midnightblue" stroke="midnightblue" points="758.728,-299.425 767.561,-293.574 757.008,-292.64 758.728,-299.425"/>
</g>
<!-- Node10&#45;&gt;Node16 -->
<g id="edge21" class="edge"><title>Node10&#45;&gt;Node16</title>
<path fill="none" stroke="midnightblue" d="M612.392,-336.487C698.025,-328.648 1010.16,-300.077 1125.86,-289.486"/>
<polygon fill="midnightblue" stroke="midnightblue" points="1126.47,-292.944 1136.11,-288.547 1125.83,-285.974 1126.47,-292.944"/>
</g>
<!-- Node10&#45;&gt;Node17 -->
<g id="edge23" class="edge"><title>Node10&#45;&gt;Node17</title>
<path fill="none" stroke="midnightblue" d="M612.366,-334.924C654.662,-327.973 750.564,-311.9 841.678,-294.075"/>
<polygon fill="midnightblue" stroke="midnightblue" points="842.48,-297.484 851.616,-292.119 841.129,-290.616 842.48,-297.484"/>
</g>
<!-- Node10&#45;&gt;Node18 -->
<g id="edge26" class="edge"><title>Node10&#45;&gt;Node18</title>
<path fill="none" stroke="midnightblue" d="M594.776,-330.219C598.662,-322.864 604.465,-311.88 609.347,-302.639"/>
<polygon fill="midnightblue" stroke="midnightblue" points="612.572,-304.026 614.149,-293.55 606.383,-300.757 612.572,-304.026"/>
</g>
<!-- Node11&#45;&gt;Node4 -->
<g id="edge13" class="edge"><title>Node11&#45;&gt;Node4</title>
<path fill="none" stroke="midnightblue" d="M104.377,-220.146C106.153,-207.465 110.763,-182.937 121.401,-165 139.197,-134.995 146.059,-125.319 177.401,-110 222.172,-88.1178 355.534,-75.6215 439.277,-69.7304"/>
<polygon fill="midnightblue" stroke="midnightblue" points="439.751,-73.2062 449.487,-69.0275 439.27,-66.2227 439.751,-73.2062"/>
</g>
<!-- Node12 -->
<g id="node12" class="node"><title>Node12</title>
<polygon fill="white" stroke="#bfbfbf" points="0,-55.5 0,-73.5 58.8027,-73.5 58.8027,-55.5 0,-55.5"/>
<text text-anchor="middle" x="29.4014" y="-61.5" font-family="Helvetica,sans-Serif" font-size="10.00">inttypes.h</text>
</g>
<!-- Node11&#45;&gt;Node12 -->
<g id="edge12" class="edge"><title>Node11&#45;&gt;Node12</title>
<path fill="none" stroke="midnightblue" d="M93.5519,-220.48C75.4693,-205.039 37.5373,-169.141 23.4014,-129 18.2238,-114.297 20.5543,-96.5644 23.7014,-83.5789"/>
<polygon fill="midnightblue" stroke="midnightblue" points="27.1739,-84.159 26.5091,-73.5851 20.4348,-82.2657 27.1739,-84.159"/>
</g>
<!-- Node13&#45;&gt;Node2 -->
<g id="edge15" class="edge"><title>Node13&#45;&gt;Node2</title>
<path fill="none" stroke="midnightblue" d="M552.187,-224.581C585.745,-218.69 647.002,-205.851 695.401,-184 724.458,-170.882 754.471,-149.21 772.789,-134.893"/>
<polygon fill="midnightblue" stroke="midnightblue" points="775.143,-137.493 780.786,-128.526 770.783,-132.016 775.143,-137.493"/>
</g>
<!-- Node13&#45;&gt;Node4 -->
<g id="edge16" class="edge"><title>Node13&#45;&gt;Node4</title>
<path fill="none" stroke="midnightblue" d="M519.998,-220.387C512.881,-211.99 502.603,-198.143 498.401,-184 488.132,-149.434 497.422,-106.974 504.389,-83.414"/>
<polygon fill="midnightblue" stroke="midnightblue" points="507.767,-84.3384 507.437,-73.7487 501.091,-82.2328 507.767,-84.3384"/>
</g>
<!-- Node14&#45;&gt;Node4 -->
<g id="edge18" class="edge"><title>Node14&#45;&gt;Node4</title>
<path fill="none" stroke="midnightblue" d="M377.518,-275.342C374.367,-244.664 364.88,-136.61 384.401,-110 397.61,-91.9946 418.7,-81.238 439.877,-74.8247"/>
<polygon fill="midnightblue" stroke="midnightblue" points="440.86,-78.1844 449.584,-72.1732 439.016,-71.4317 440.86,-78.1844"/>
</g>
<!-- Node15&#45;&gt;Node4 -->
<g id="edge20" class="edge"><title>Node15&#45;&gt;Node4</title>
<path fill="none" stroke="midnightblue" d="M804.348,-275.374C820.199,-248.192 866.254,-159.376 823.401,-110 792.708,-74.6343 663.875,-66.6436 581.365,-65.247"/>
<polygon fill="midnightblue" stroke="midnightblue" points="581.342,-61.7464 571.293,-65.1051 581.243,-68.7457 581.342,-61.7464"/>
</g>
<!-- Node16&#45;&gt;Node4 -->
<g id="edge22" class="edge"><title>Node16&#45;&gt;Node4</title>
<path fill="none" stroke="midnightblue" d="M1175.27,-275.421C1188.75,-255.791 1219.45,-204.313 1201.4,-165 1185.75,-130.916 1172.08,-124.272 1137.4,-110 1038.58,-69.3341 723.992,-64.845 581.614,-64.9805"/>
<polygon fill="midnightblue" stroke="midnightblue" points="581.249,-61.4811 571.255,-64.9989 581.261,-68.481 581.249,-61.4811"/>
</g>
<!-- Node17&#45;&gt;Node2 -->
<g id="edge24" class="edge"><title>Node17&#45;&gt;Node2</title>
<path fill="none" stroke="midnightblue" d="M876.764,-275.193C862.523,-249.684 819.223,-172.126 799.894,-137.504"/>
<polygon fill="midnightblue" stroke="midnightblue" points="802.853,-135.622 794.922,-128.597 796.74,-139.035 802.853,-135.622"/>
</g>
<!-- Node17&#45;&gt;Node4 -->
<g id="edge25" class="edge"><title>Node17&#45;&gt;Node4</title>
<path fill="none" stroke="midnightblue" d="M911.16,-278.663C976.791,-266.666 1124.67,-231.594 1079.4,-165 1024.3,-83.9364 721.569,-68.6562 581.521,-65.962"/>
<polygon fill="midnightblue" stroke="midnightblue" points="581.379,-62.459 571.319,-65.7825 581.256,-69.4579 581.379,-62.459"/>
</g>
<!-- Node18&#45;&gt;Node2 -->
<g id="edge27" class="edge"><title>Node18&#45;&gt;Node2</title>
<path fill="none" stroke="midnightblue" d="M627.466,-275.356C646.164,-258.512 690.284,-218.532 726.401,-184 743.265,-167.876 762.189,-149 775.056,-136.044"/>
<polygon fill="midnightblue" stroke="midnightblue" points="777.662,-138.386 782.213,-128.819 772.689,-133.46 777.662,-138.386"/>
</g>
<!-- Node18&#45;&gt;Node4 -->
<g id="edge32" class="edge"><title>Node18&#45;&gt;Node4</title>
<path fill="none" stroke="midnightblue" d="M610.943,-275.217C590.34,-252.304 533.992,-189.406 531.401,-184 515.648,-151.131 511.613,-108.03 510.641,-83.9063"/>
<polygon fill="midnightblue" stroke="midnightblue" points="514.135,-83.6203 510.372,-73.7162 507.137,-83.8052 514.135,-83.6203"/>
</g>
<!-- Node19 -->
<g id="node19" class="node"><title>Node19</title>
<g id="a_node19"><a xlink:href="$AP__Common_8h.html" xlink:title="Common definitions and utility routines for the ArduPilot libraries. ">
<polygon fill="white" stroke="black" points="540.375,-165.5 540.375,-183.5 686.428,-183.5 686.428,-165.5 540.375,-165.5"/>
<text text-anchor="middle" x="613.401" y="-171.5" font-family="Helvetica,sans-Serif" font-size="10.00">AP_Common/AP_Common.h</text>
</a>
</g>
</g>
<!-- Node18&#45;&gt;Node19 -->
<g id="edge28" class="edge"><title>Node18&#45;&gt;Node19</title>
<path fill="none" stroke="midnightblue" d="M618.026,-275.382C617.229,-258.182 615.355,-217.698 614.253,-193.887"/>
<polygon fill="midnightblue" stroke="midnightblue" points="617.74,-193.539 613.782,-183.712 610.748,-193.863 617.74,-193.539"/>
</g>
<!-- Node18&#45;&gt;Node21 -->
<g id="edge33" class="edge"><title>Node18&#45;&gt;Node21</title>
<path fill="none" stroke="midnightblue" d="M579.337,-276.948C524.32,-267.72 423.636,-250.834 360.017,-240.163"/>
<polygon fill="midnightblue" stroke="midnightblue" points="360.578,-236.709 350.137,-238.506 359.42,-243.612 360.578,-236.709"/>
</g>
<!-- Node19&#45;&gt;Node2 -->
<g id="edge29" class="edge"><title>Node19&#45;&gt;Node2</title>
<path fill="none" stroke="midnightblue" d="M640.284,-165.45C671.309,-156.16 722.392,-140.864 756.216,-130.736"/>
<polygon fill="midnightblue" stroke="midnightblue" points="757.542,-133.993 766.118,-127.771 755.534,-127.287 757.542,-133.993"/>
</g>
<!-- Node19&#45;&gt;Node3 -->
<g id="edge31" class="edge"><title>Node19&#45;&gt;Node3</title>
<path fill="none" stroke="midnightblue" d="M589.253,-165.45C562.325,-156.475 518.578,-141.892 488.245,-131.781"/>
<polygon fill="midnightblue" stroke="midnightblue" points="489.11,-128.38 478.516,-128.538 486.896,-135.021 489.11,-128.38"/>
</g>
<!-- Node20 -->
<g id="node20" class="node"><title>Node20</title>
<polygon fill="white" stroke="#bfbfbf" points="589.559,-110.5 589.559,-128.5 637.244,-128.5 637.244,-110.5 589.559,-110.5"/>
<text text-anchor="middle" x="613.401" y="-116.5" font-family="Helvetica,sans-Serif" font-size="10.00">stdlib.h</text>
</g>
<!-- Node19&#45;&gt;Node20 -->
<g id="edge30" class="edge"><title>Node19&#45;&gt;Node20</title>
<path fill="none" stroke="midnightblue" d="M613.401,-165.219C613.401,-158.177 613.401,-147.808 613.401,-138.828"/>
<polygon fill="midnightblue" stroke="midnightblue" points="616.901,-138.55 613.401,-128.55 609.901,-138.55 616.901,-138.55"/>
</g>
<!-- Node21&#45;&gt;Node4 -->
<g id="edge36" class="edge"><title>Node21&#45;&gt;Node4</title>
<path fill="none" stroke="midnightblue" d="M302.961,-220.193C304.871,-198.64 313.021,-140.487 346.401,-110 371.562,-87.0211 407.402,-75.7188 439.164,-70.2343"/>
<polygon fill="midnightblue" stroke="midnightblue" points="439.973,-73.6505 449.314,-68.6506 438.894,-66.7342 439.973,-73.6505"/>
</g>
<!-- Node21&#45;&gt;Node19 -->
<g id="edge35" class="edge"><title>Node21&#45;&gt;Node19</title>
<path fill="none" stroke="midnightblue" d="M349.636,-220.45C405.053,-211.006 496.892,-195.355 556.268,-185.237"/>
<polygon fill="midnightblue" stroke="midnightblue" points="556.963,-188.669 566.233,-183.538 555.787,-181.768 556.963,-188.669"/>
</g>
<!-- Node22 -->
<g id="node22" class="node"><title>Node22</title>
<polygon fill="white" stroke="#bfbfbf" points="242.335,-165.5 242.335,-183.5 294.468,-183.5 294.468,-165.5 242.335,-165.5"/>
<text text-anchor="middle" x="268.401" y="-171.5" font-family="Helvetica,sans-Serif" font-size="10.00">stdarg.h</text>
</g>
<!-- Node21&#45;&gt;Node22 -->
<g id="edge34" class="edge"><title>Node21&#45;&gt;Node22</title>
<path fill="none" stroke="midnightblue" d="M297.089,-220.219C292.27,-212.707 285.024,-201.411 279.019,-192.052"/>
<polygon fill="midnightblue" stroke="midnightblue" points="281.911,-190.077 273.565,-183.55 276.019,-193.856 281.911,-190.077"/>
</g>
<!-- Node21&#45;&gt;Node23 -->
<g id="edge37" class="edge"><title>Node21&#45;&gt;Node23</title>
<path fill="none" stroke="midnightblue" d="M280.531,-220.45C256.426,-211.578 217.438,-197.229 190.011,-187.134"/>
<polygon fill="midnightblue" stroke="midnightblue" points="191.071,-183.795 180.478,-183.625 188.653,-190.364 191.071,-183.795"/>
</g>
<!-- Node23&#45;&gt;Node4 -->
<g id="edge38" class="edge"><title>Node23&#45;&gt;Node4</title>
<path fill="none" stroke="midnightblue" d="M161.273,-165.253C166.598,-151.308 179.408,-123.294 200.401,-110 238.923,-85.6065 360.03,-74.0754 438.975,-69.0233"/>
<polygon fill="midnightblue" stroke="midnightblue" points="439.578,-72.4928 449.343,-68.3815 439.145,-65.5062 439.578,-72.4928"/>
</g>
<!-- Node23&#45;&gt;Node24 -->
<g id="edge39" class="edge"><title>Node23&#45;&gt;Node24</title>
<path fill="none" stroke="midnightblue" d="M142.606,-165.45C125.808,-156.89 99.0018,-143.229 79.3454,-133.212"/>
<polygon fill="midnightblue" stroke="midnightblue" points="80.8443,-130.047 70.3454,-128.625 77.6659,-136.284 80.8443,-130.047"/>
</g>
<!-- Node24&#45;&gt;Node4 -->
<g id="edge40" class="edge"><title>Node24&#45;&gt;Node4</title>
<path fill="none" stroke="midnightblue" d="M77.1657,-112.667C81.5386,-111.677 86.0965,-110.733 90.4014,-110 212.18,-89.2573 355.573,-76.5434 439.39,-70.2744"/>
<polygon fill="midnightblue" stroke="midnightblue" points="439.846,-73.7504 449.561,-69.5235 439.331,-66.7694 439.846,-73.7504"/>
</g>
<!-- Node24&#45;&gt;Node5 -->
<g id="edge42" class="edge"><title>Node24&#45;&gt;Node5</title>
<path fill="none" stroke="midnightblue" d="M76.424,-110.382C127.88,-91.4158 256.145,-44.1372 315.873,-22.1213"/>
<polygon fill="midnightblue" stroke="midnightblue" points="317.35,-25.307 325.523,-18.5644 314.929,-18.739 317.35,-25.307"/>
</g>
<!-- Node24&#45;&gt;Node12 -->
<g id="edge41" class="edge"><title>Node24&#45;&gt;Node12</title>
<path fill="none" stroke="midnightblue" d="M50.4951,-110.219C47.0258,-102.864 41.8448,-91.8801 37.4858,-82.639"/>
<polygon fill="midnightblue" stroke="midnightblue" points="40.6301,-81.1007 33.1983,-73.5496 34.2991,-84.0871 40.6301,-81.1007"/>
</g>
<!-- Node25&#45;&gt;Node2 -->
<g id="edge45" class="edge"><title>Node25&#45;&gt;Node2</title>
<path fill="none" stroke="midnightblue" d="M1126.33,-168.75C1056.67,-158.745 895.45,-135.588 824.716,-125.429"/>
<polygon fill="midnightblue" stroke="midnightblue" points="824.958,-121.928 814.562,-123.97 823.963,-128.857 824.958,-121.928"/>
</g>
<!-- Node25&#45;&gt;Node4 -->
<g id="edge46" class="edge"><title>Node25&#45;&gt;Node4</title>
<path fill="none" stroke="midnightblue" d="M1155.99,-165.074C1149.75,-150.858 1134.98,-122.446 1112.4,-110 1066.94,-84.9459 731.288,-72.0184 581.834,-67.4535"/>
<polygon fill="midnightblue" stroke="midnightblue" points="581.503,-63.942 571.402,-67.1392 581.292,-70.9388 581.503,-63.942"/>
</g>
<!-- Node26&#45;&gt;Node2 -->
<g id="edge54" class="edge"><title>Node26&#45;&gt;Node2</title>
<path fill="none" stroke="midnightblue" d="M942.075,-220.382C914.175,-202.009 845.932,-157.069 811.298,-134.261"/>
<polygon fill="midnightblue" stroke="midnightblue" points="813.148,-131.289 802.871,-128.712 809.298,-137.135 813.148,-131.289"/>
</g>
<!-- Node26&#45;&gt;Node4 -->
<g id="edge57" class="edge"><title>Node26&#45;&gt;Node4</title>
<path fill="none" stroke="midnightblue" d="M954.715,-220.26C955.055,-198.353 952.664,-138.408 918.401,-110 893.036,-88.9688 691.313,-75.0971 581.333,-69.0188"/>
<polygon fill="midnightblue" stroke="midnightblue" points="581.485,-65.5219 571.309,-68.4723 581.104,-72.5116 581.485,-65.5219"/>
</g>
<!-- Node26&#45;&gt;Node7 -->
<g id="edge56" class="edge"><title>Node26&#45;&gt;Node7</title>
<path fill="none" stroke="midnightblue" d="M964.425,-220.45C974.408,-212.434 989.958,-199.947 1002.14,-190.166"/>
<polygon fill="midnightblue" stroke="midnightblue" points="1004.68,-192.616 1010.28,-183.625 1000.29,-187.158 1004.68,-192.616"/>
</g>
<!-- Node26&#45;&gt;Node19 -->
<g id="edge55" class="edge"><title>Node26&#45;&gt;Node19</title>
<path fill="none" stroke="midnightblue" d="M919.828,-223.126C862.456,-214.209 746.816,-196.236 675.158,-185.098"/>
<polygon fill="midnightblue" stroke="midnightblue" points="675.335,-181.584 664.916,-183.507 674.26,-188.501 675.335,-181.584"/>
</g>
<!-- Node27&#45;&gt;Node4 -->
<g id="edge59" class="edge"><title>Node27&#45;&gt;Node4</title>
<path fill="none" stroke="midnightblue" d="M1325.37,-330.432C1321.07,-312.558 1311.4,-268.22 1311.4,-230.5 1311.4,-230.5 1311.4,-230.5 1311.4,-173.5 1311.4,-140.38 1300.82,-127.005 1272.4,-110 1214.05,-75.0853 759.373,-67.5515 581.448,-65.9367"/>
<polygon fill="midnightblue" stroke="midnightblue" points="581.434,-62.4365 571.404,-65.8492 581.373,-69.4362 581.434,-62.4365"/>
</g>
<!-- Node28&#45;&gt;Node4 -->
<g id="edge62" class="edge"><title>Node28&#45;&gt;Node4</title>
<path fill="none" stroke="midnightblue" d="M211.56,-220.191C213.753,-207.129 219.595,-181.578 233.401,-165 284.308,-103.876 375.731,-80.2976 439.571,-71.2043"/>
<polygon fill="midnightblue" stroke="midnightblue" points="440.122,-74.6618 449.57,-69.8657 439.194,-67.7237 440.122,-74.6618"/>
</g>
<!-- Node28&#45;&gt;Node22 -->
<g id="edge61" class="edge"><title>Node28&#45;&gt;Node22</title>
<path fill="none" stroke="midnightblue" d="M219.464,-220.219C228.198,-212.238 241.607,-199.984 252.182,-190.321"/>
<polygon fill="midnightblue" stroke="midnightblue" points="254.571,-192.879 259.592,-183.55 249.849,-187.712 254.571,-192.879"/>
</g>
</g>
</svg>
