<?xml version="1.0" encoding="UTF-8" standalone="no"?>
<!DOCTYPE svg PUBLIC "-//W3C//DTD SVG 1.1//EN"
 "http://www.w3.org/Graphics/SVG/1.1/DTD/svg11.dtd">
<!-- Generated by graphviz version 2.38.0 (20140413.2041)
 -->
<!-- Title: libraries/AP_PerfMon/AP_PerfMon.h Pages: 1 -->
<svg width="294pt" height="112pt"
 viewBox="0.00 0.00 293.55 112.00" xmlns="http://www.w3.org/2000/svg" xmlns:xlink="http://www.w3.org/1999/xlink">
<g id="graph0" class="graph" transform="scale(1 1) rotate(0) translate(4 108)">
<title>libraries/AP_PerfMon/AP_PerfMon.h</title>
<polygon fill="white" stroke="none" points="-4,4 -4,-108 289.554,-108 289.554,4 -4,4"/>
<!-- Node1 -->
<g id="node1" class="node"><title>Node1</title>
<polygon fill="#bfbfbf" stroke="black" points="76,-75.5 76,-103.5 186.482,-103.5 186.482,-75.5 76,-75.5"/>
<text text-anchor="start" x="84" y="-91.5" font-family="Helvetica,sans-Serif" font-size="10.00">libraries/AP_PerfMon</text>
<text text-anchor="middle" x="131.241" y="-81.5" font-family="Helvetica,sans-Serif" font-size="10.00">/AP_PerfMon.h</text>
</g>
<!-- Node2 -->
<g id="node2" class="node"><title>Node2</title>
<g id="a_node2"><a xlink:href="$AP__PerfMon_8cpp.html" xlink:title="libraries/AP_PerfMon\l/AP_PerfMon.cpp">
<polygon fill="white" stroke="black" points="0,-5.5 0,-33.5 110.482,-33.5 110.482,-5.5 0,-5.5"/>
<text text-anchor="start" x="8" y="-21.5" font-family="Helvetica,sans-Serif" font-size="10.00">libraries/AP_PerfMon</text>
<text text-anchor="middle" x="55.2412" y="-11.5" font-family="Helvetica,sans-Serif" font-size="10.00">/AP_PerfMon.cpp</text>
</a>
</g>
</g>
<!-- Node1&#45;&gt;Node2 -->
<g id="edge1" class="edge"><title>Node1&#45;&gt;Node2</title>
<path fill="none" stroke="midnightblue" d="M108.789,-68.4114C96.2075,-57.154 80.8778,-43.438 69.8498,-33.5708"/>
<polygon fill="midnightblue" stroke="midnightblue" points="106.801,-71.3293 116.588,-75.3889 111.469,-66.1126 106.801,-71.3293"/>
</g>
<!-- Node3 -->
<g id="node3" class="node"><title>Node3</title>
<g id="a_node3"><a xlink:href="$AP__PerfMon__test_8cpp.html" xlink:title="libraries/AP_PerfMon\l/AP_PerfMon_test/AP_PerfMon\l_test.cpp">
<polygon fill="white" stroke="black" points="128.929,-0.5 128.929,-38.5 285.554,-38.5 285.554,-0.5 128.929,-0.5"/>
<text text-anchor="start" x="136.929" y="-26.5" font-family="Helvetica,sans-Serif" font-size="10.00">libraries/AP_PerfMon</text>
<text text-anchor="start" x="136.929" y="-16.5" font-family="Helvetica,sans-Serif" font-size="10.00">/AP_PerfMon_test/AP_PerfMon</text>
<text text-anchor="middle" x="207.241" y="-6.5" font-family="Helvetica,sans-Serif" font-size="10.00">_test.cpp</text>
</a>
</g>
</g>
<!-- Node1&#45;&gt;Node3 -->
<g id="edge2" class="edge"><title>Node1&#45;&gt;Node3</title>
<path fill="none" stroke="midnightblue" d="M153.514,-68.5721C164.068,-59.1283 176.589,-47.9256 186.887,-38.7116"/>
<polygon fill="midnightblue" stroke="midnightblue" points="151.013,-66.1126 145.895,-75.3889 155.681,-71.3293 151.013,-66.1126"/>
</g>
</g>
</svg>
