<?xml version="1.0" encoding="UTF-8" standalone="no"?>
<!DOCTYPE svg PUBLIC "-//W3C//DTD SVG 1.1//EN"
 "http://www.w3.org/Graphics/SVG/1.1/DTD/svg11.dtd">
<!-- Generated by graphviz version 2.38.0 (20140413.2041)
 -->
<!-- Title: libraries/AP_HAL_FLYMAPLE/AP_HAL_FLYMAPLE.h Pages: 1 -->
<svg width="4505pt" height="307pt"
 viewBox="0.00 0.00 4505.21 307.00" xmlns="http://www.w3.org/2000/svg" xmlns:xlink="http://www.w3.org/1999/xlink">
<g id="graph0" class="graph" transform="scale(1 1) rotate(0) translate(4 303)">
<title>libraries/AP_HAL_FLYMAPLE/AP_HAL_FLYMAPLE.h</title>
<polygon fill="white" stroke="none" points="-4,4 -4,-303 4501.21,-303 4501.21,4 -4,4"/>
<!-- Node1 -->
<g id="node1" class="node"><title>Node1</title>
<polygon fill="#bfbfbf" stroke="black" points="2159,-270.5 2159,-298.5 2308.21,-298.5 2308.21,-270.5 2159,-270.5"/>
<text text-anchor="start" x="2167" y="-286.5" font-family="Helvetica,sans-Serif" font-size="10.00">libraries/AP_HAL_FLYMAPLE</text>
<text text-anchor="middle" x="2233.6" y="-276.5" font-family="Helvetica,sans-Serif" font-size="10.00">/AP_HAL_FLYMAPLE.h</text>
</g>
<!-- Node2 -->
<g id="node2" class="node"><title>Node2</title>
<g id="a_node2"><a xlink:href="$FLYMAPLE_2AnalogIn_8h.html" xlink:title="libraries/AP_HAL_FLYMAPLE\l/AnalogIn.h">
<polygon fill="white" stroke="black" points="218,-200.5 218,-228.5 367.208,-228.5 367.208,-200.5 218,-200.5"/>
<text text-anchor="start" x="226" y="-216.5" font-family="Helvetica,sans-Serif" font-size="10.00">libraries/AP_HAL_FLYMAPLE</text>
<text text-anchor="middle" x="292.604" y="-206.5" font-family="Helvetica,sans-Serif" font-size="10.00">/AnalogIn.h</text>
</a>
</g>
</g>
<!-- Node1&#45;&gt;Node2 -->
<g id="edge1" class="edge"><title>Node1&#45;&gt;Node2</title>
<path fill="none" stroke="midnightblue" d="M2148.27,-283.464C1892.86,-282.851 1112.17,-277.295 466.604,-234 434.02,-231.815 398.12,-228.203 367.433,-224.747"/>
<polygon fill="midnightblue" stroke="midnightblue" points="2148.58,-286.965 2158.58,-283.487 2148.59,-279.965 2148.58,-286.965"/>
</g>
<!-- Node7 -->
<g id="node7" class="node"><title>Node7</title>
<g id="a_node7"><a xlink:href="$FLYMAPLE_2UARTDriver_8h.html" xlink:title="libraries/AP_HAL_FLYMAPLE\l/UARTDriver.h">
<polygon fill="white" stroke="black" points="1300,-200.5 1300,-228.5 1449.21,-228.5 1449.21,-200.5 1300,-200.5"/>
<text text-anchor="start" x="1308" y="-216.5" font-family="Helvetica,sans-Serif" font-size="10.00">libraries/AP_HAL_FLYMAPLE</text>
<text text-anchor="middle" x="1374.6" y="-206.5" font-family="Helvetica,sans-Serif" font-size="10.00">/UARTDriver.h</text>
</a>
</g>
</g>
<!-- Node1&#45;&gt;Node7 -->
<g id="edge6" class="edge"><title>Node1&#45;&gt;Node7</title>
<path fill="none" stroke="midnightblue" d="M2148.8,-282.399C2005.64,-279.58 1707.21,-269.558 1457.6,-234 1447.81,-232.605 1437.46,-230.673 1427.51,-228.581"/>
<polygon fill="midnightblue" stroke="midnightblue" points="2148.78,-285.899 2158.84,-282.59 2148.91,-278.9 2148.78,-285.899"/>
</g>
<!-- Node9 -->
<g id="node9" class="node"><title>Node9</title>
<g id="a_node9"><a xlink:href="$FLYMAPLE_2I2CDriver_8h.html" xlink:title="libraries/AP_HAL_FLYMAPLE\l/I2CDriver.h">
<polygon fill="white" stroke="black" points="682,-200.5 682,-228.5 831.208,-228.5 831.208,-200.5 682,-200.5"/>
<text text-anchor="start" x="690" y="-216.5" font-family="Helvetica,sans-Serif" font-size="10.00">libraries/AP_HAL_FLYMAPLE</text>
<text text-anchor="middle" x="756.604" y="-206.5" font-family="Helvetica,sans-Serif" font-size="10.00">/I2CDriver.h</text>
</a>
</g>
</g>
<!-- Node1&#45;&gt;Node9 -->
<g id="edge9" class="edge"><title>Node1&#45;&gt;Node9</title>
<path fill="none" stroke="midnightblue" d="M2148.7,-282.356C1887.76,-278.544 1099.84,-264.733 845.604,-234 834.637,-232.674 823.013,-230.69 811.911,-228.507"/>
<polygon fill="midnightblue" stroke="midnightblue" points="2148.83,-285.859 2158.88,-282.504 2148.93,-278.859 2148.83,-285.859"/>
</g>
<!-- Node11 -->
<g id="node11" class="node"><title>Node11</title>
<g id="a_node11"><a xlink:href="$FLYMAPLE_2SPIDriver_8h.html" xlink:title="libraries/AP_HAL_FLYMAPLE\l/SPIDriver.h">
<polygon fill="white" stroke="black" points="785,-130.5 785,-158.5 934.208,-158.5 934.208,-130.5 785,-130.5"/>
<text text-anchor="start" x="793" y="-146.5" font-family="Helvetica,sans-Serif" font-size="10.00">libraries/AP_HAL_FLYMAPLE</text>
<text text-anchor="middle" x="859.604" y="-136.5" font-family="Helvetica,sans-Serif" font-size="10.00">/SPIDriver.h</text>
</a>
</g>
</g>
<!-- Node1&#45;&gt;Node11 -->
<g id="edge12" class="edge"><title>Node1&#45;&gt;Node11</title>
<path fill="none" stroke="midnightblue" d="M2148.52,-283.245C1859.01,-282.008 927.315,-274.856 878.604,-234 856.691,-215.621 856.332,-178.644 857.956,-158.802"/>
<polygon fill="midnightblue" stroke="midnightblue" points="2148.53,-286.745 2158.54,-283.286 2148.56,-279.745 2148.53,-286.745"/>
</g>
<!-- Node13 -->
<g id="node13" class="node"><title>Node13</title>
<g id="a_node13"><a xlink:href="$FLYMAPLE_2Semaphores_8h.html" xlink:title="libraries/AP_HAL_FLYMAPLE\l/Semaphores.h">
<polygon fill="white" stroke="black" points="888,-200.5 888,-228.5 1037.21,-228.5 1037.21,-200.5 888,-200.5"/>
<text text-anchor="start" x="896" y="-216.5" font-family="Helvetica,sans-Serif" font-size="10.00">libraries/AP_HAL_FLYMAPLE</text>
<text text-anchor="middle" x="962.604" y="-206.5" font-family="Helvetica,sans-Serif" font-size="10.00">/Semaphores.h</text>
</a>
</g>
</g>
<!-- Node1&#45;&gt;Node13 -->
<g id="edge15" class="edge"><title>Node1&#45;&gt;Node13</title>
<path fill="none" stroke="midnightblue" d="M2148.66,-281.744C1914.67,-276.619 1264.12,-260.358 1051.6,-234 1040.8,-232.66 1029.35,-230.698 1018.39,-228.547"/>
<polygon fill="midnightblue" stroke="midnightblue" points="2148.74,-285.246 2158.81,-281.965 2148.89,-278.248 2148.74,-285.246"/>
</g>
<!-- Node14 -->
<g id="node14" class="node"><title>Node14</title>
<g id="a_node14"><a xlink:href="$AP__HAL__FLYMAPLE_2Semaphores_8cpp.html" xlink:title="libraries/AP_HAL_FLYMAPLE\l/Semaphores.cpp">
<polygon fill="white" stroke="black" points="991,-130.5 991,-158.5 1140.21,-158.5 1140.21,-130.5 991,-130.5"/>
<text text-anchor="start" x="999" y="-146.5" font-family="Helvetica,sans-Serif" font-size="10.00">libraries/AP_HAL_FLYMAPLE</text>
<text text-anchor="middle" x="1065.6" y="-136.5" font-family="Helvetica,sans-Serif" font-size="10.00">/Semaphores.cpp</text>
</a>
</g>
</g>
<!-- Node1&#45;&gt;Node14 -->
<g id="edge49" class="edge"><title>Node1&#45;&gt;Node14</title>
<path fill="none" stroke="midnightblue" d="M2148.5,-282.233C1892.82,-278.105 1146.41,-263.567 1103.6,-234 1078.43,-216.609 1069.83,-178.858 1066.97,-158.742"/>
<polygon fill="midnightblue" stroke="midnightblue" points="2148.79,-285.738 2158.85,-282.399 2148.91,-278.739 2148.79,-285.738"/>
</g>
<!-- Node15 -->
<g id="node15" class="node"><title>Node15</title>
<g id="a_node15"><a xlink:href="$FLYMAPLE_2Storage_8h.html" xlink:title="libraries/AP_HAL_FLYMAPLE\l/Storage.h">
<polygon fill="white" stroke="black" points="476,-200.5 476,-228.5 625.208,-228.5 625.208,-200.5 476,-200.5"/>
<text text-anchor="start" x="484" y="-216.5" font-family="Helvetica,sans-Serif" font-size="10.00">libraries/AP_HAL_FLYMAPLE</text>
<text text-anchor="middle" x="550.604" y="-206.5" font-family="Helvetica,sans-Serif" font-size="10.00">/Storage.h</text>
</a>
</g>
</g>
<!-- Node1&#45;&gt;Node15 -->
<g id="edge19" class="edge"><title>Node1&#45;&gt;Node15</title>
<path fill="none" stroke="midnightblue" d="M2148.52,-282.136C1866.35,-277.403 962.832,-260.512 672.604,-234 657.244,-232.597 640.873,-230.52 625.276,-228.258"/>
<polygon fill="midnightblue" stroke="midnightblue" points="2148.64,-285.638 2158.7,-282.306 2148.76,-278.639 2148.64,-285.638"/>
</g>
<!-- Node17 -->
<g id="node17" class="node"><title>Node17</title>
<g id="a_node17"><a xlink:href="$FLYMAPLE_2GPIO_8h.html" xlink:title="libraries/AP_HAL_FLYMAPLE\l/GPIO.h">
<polygon fill="white" stroke="black" points="1467,-200.5 1467,-228.5 1616.21,-228.5 1616.21,-200.5 1467,-200.5"/>
<text text-anchor="start" x="1475" y="-216.5" font-family="Helvetica,sans-Serif" font-size="10.00">libraries/AP_HAL_FLYMAPLE</text>
<text text-anchor="middle" x="1541.6" y="-206.5" font-family="Helvetica,sans-Serif" font-size="10.00">/GPIO.h</text>
</a>
</g>
</g>
<!-- Node1&#45;&gt;Node17 -->
<g id="edge22" class="edge"><title>Node1&#45;&gt;Node17</title>
<path fill="none" stroke="midnightblue" d="M2148.63,-280.302C2030.53,-275.017 1810.34,-262.11 1624.6,-234 1614.97,-232.542 1604.79,-230.606 1594.98,-228.536"/>
<polygon fill="midnightblue" stroke="midnightblue" points="2148.54,-283.802 2158.69,-280.745 2148.85,-276.809 2148.54,-283.802"/>
</g>
<!-- Node19 -->
<g id="node19" class="node"><title>Node19</title>
<g id="a_node19"><a xlink:href="$FLYMAPLE_2RCInput_8h.html" xlink:title="libraries/AP_HAL_FLYMAPLE\l/RCInput.h">
<polygon fill="white" stroke="black" points="1634,-200.5 1634,-228.5 1783.21,-228.5 1783.21,-200.5 1634,-200.5"/>
<text text-anchor="start" x="1642" y="-216.5" font-family="Helvetica,sans-Serif" font-size="10.00">libraries/AP_HAL_FLYMAPLE</text>
<text text-anchor="middle" x="1708.6" y="-206.5" font-family="Helvetica,sans-Serif" font-size="10.00">/RCInput.h</text>
</a>
</g>
</g>
<!-- Node1&#45;&gt;Node19 -->
<g id="edge25" class="edge"><title>Node1&#45;&gt;Node19</title>
<path fill="none" stroke="midnightblue" d="M2148.9,-276.746C2059.65,-268.993 1915.17,-254.629 1791.6,-234 1782.43,-232.468 1772.74,-230.57 1763.36,-228.579"/>
<polygon fill="midnightblue" stroke="midnightblue" points="2148.71,-280.242 2158.97,-277.613 2149.31,-273.268 2148.71,-280.242"/>
</g>
<!-- Node21 -->
<g id="node21" class="node"><title>Node21</title>
<g id="a_node21"><a xlink:href="$FLYMAPLE_2RCOutput_8h.html" xlink:title="libraries/AP_HAL_FLYMAPLE\l/RCOutput.h">
<polygon fill="white" stroke="black" points="1801,-200.5 1801,-228.5 1950.21,-228.5 1950.21,-200.5 1801,-200.5"/>
<text text-anchor="start" x="1809" y="-216.5" font-family="Helvetica,sans-Serif" font-size="10.00">libraries/AP_HAL_FLYMAPLE</text>
<text text-anchor="middle" x="1875.6" y="-206.5" font-family="Helvetica,sans-Serif" font-size="10.00">/RCOutput.h</text>
</a>
</g>
</g>
<!-- Node1&#45;&gt;Node21 -->
<g id="edge28" class="edge"><title>Node1&#45;&gt;Node21</title>
<path fill="none" stroke="midnightblue" d="M2148.83,-269.042C2094.61,-259.584 2022.85,-246.673 1959.6,-234 1951.11,-232.298 1942.16,-230.418 1933.38,-228.528"/>
<polygon fill="midnightblue" stroke="midnightblue" points="2148.29,-272.5 2158.74,-270.767 2149.49,-265.604 2148.29,-272.5"/>
</g>
<!-- Node23 -->
<g id="node23" class="node"><title>Node23</title>
<g id="a_node23"><a xlink:href="$FLYMAPLE_2Scheduler_8h.html" xlink:title="libraries/AP_HAL_FLYMAPLE\l/Scheduler.h">
<polygon fill="white" stroke="black" points="1113,-200.5 1113,-228.5 1262.21,-228.5 1262.21,-200.5 1113,-200.5"/>
<text text-anchor="start" x="1121" y="-216.5" font-family="Helvetica,sans-Serif" font-size="10.00">libraries/AP_HAL_FLYMAPLE</text>
<text text-anchor="middle" x="1187.6" y="-206.5" font-family="Helvetica,sans-Serif" font-size="10.00">/Scheduler.h</text>
</a>
</g>
</g>
<!-- Node1&#45;&gt;Node23 -->
<g id="edge31" class="edge"><title>Node1&#45;&gt;Node23</title>
<path fill="none" stroke="midnightblue" d="M2148.65,-282.601C1983.04,-280.062 1605.65,-270.416 1290.6,-234 1278.42,-232.592 1265.5,-230.64 1253.08,-228.529"/>
<polygon fill="midnightblue" stroke="midnightblue" points="2148.72,-286.102 2158.77,-282.751 2148.82,-279.103 2148.72,-286.102"/>
</g>
<!-- Node25 -->
<g id="node25" class="node"><title>Node25</title>
<g id="a_node25"><a xlink:href="$FLYMAPLE_2examples_2AnalogIn_2AnalogIn_8cpp.html" xlink:title="libraries/AP_HAL_FLYMAPLE\l/examples/AnalogIn/AnalogIn.cpp">
<polygon fill="white" stroke="black" points="1968.11,-200.5 1968.11,-228.5 2133.1,-228.5 2133.1,-200.5 1968.11,-200.5"/>
<text text-anchor="start" x="1976.11" y="-216.5" font-family="Helvetica,sans-Serif" font-size="10.00">libraries/AP_HAL_FLYMAPLE</text>
<text text-anchor="middle" x="2050.6" y="-206.5" font-family="Helvetica,sans-Serif" font-size="10.00">/examples/AnalogIn/AnalogIn.cpp</text>
</a>
</g>
</g>
<!-- Node1&#45;&gt;Node25 -->
<g id="edge35" class="edge"><title>Node1&#45;&gt;Node25</title>
<path fill="none" stroke="midnightblue" d="M2188.83,-266.861C2157.09,-255.07 2115.12,-239.472 2085.78,-228.571"/>
<polygon fill="midnightblue" stroke="midnightblue" points="2187.73,-270.187 2198.32,-270.389 2190.17,-263.625 2187.73,-270.187"/>
</g>
<!-- Node26 -->
<g id="node26" class="node"><title>Node26</title>
<g id="a_node26"><a xlink:href="$AP__Baro__BMP085__test_8cpp.html" xlink:title="libraries/AP_HAL_FLYMAPLE\l/examples/AP_Baro_BMP085\l_test/AP_Baro_BMP085_test.cpp">
<polygon fill="white" stroke="black" points="2151.11,-195.5 2151.11,-233.5 2316.09,-233.5 2316.09,-195.5 2151.11,-195.5"/>
<text text-anchor="start" x="2159.11" y="-221.5" font-family="Helvetica,sans-Serif" font-size="10.00">libraries/AP_HAL_FLYMAPLE</text>
<text text-anchor="start" x="2159.11" y="-211.5" font-family="Helvetica,sans-Serif" font-size="10.00">/examples/AP_Baro_BMP085</text>
<text text-anchor="middle" x="2233.6" y="-201.5" font-family="Helvetica,sans-Serif" font-size="10.00">_test/AP_Baro_BMP085_test.cpp</text>
</a>
</g>
</g>
<!-- Node1&#45;&gt;Node26 -->
<g id="edge36" class="edge"><title>Node1&#45;&gt;Node26</title>
<path fill="none" stroke="midnightblue" d="M2233.6,-260.172C2233.6,-251.52 2233.6,-241.842 2233.6,-233.712"/>
<polygon fill="midnightblue" stroke="midnightblue" points="2230.1,-260.389 2233.6,-270.389 2237.1,-260.389 2230.1,-260.389"/>
</g>
<!-- Node27 -->
<g id="node27" class="node"><title>Node27</title>
<g id="a_node27"><a xlink:href="$Blink_8cpp.html" xlink:title="libraries/AP_HAL_FLYMAPLE\l/examples/Blink/Blink.cpp">
<polygon fill="white" stroke="black" points="2334,-200.5 2334,-228.5 2483.21,-228.5 2483.21,-200.5 2334,-200.5"/>
<text text-anchor="start" x="2342" y="-216.5" font-family="Helvetica,sans-Serif" font-size="10.00">libraries/AP_HAL_FLYMAPLE</text>
<text text-anchor="middle" x="2408.6" y="-206.5" font-family="Helvetica,sans-Serif" font-size="10.00">/examples/Blink/Blink.cpp</text>
</a>
</g>
</g>
<!-- Node1&#45;&gt;Node27 -->
<g id="edge37" class="edge"><title>Node1&#45;&gt;Node27</title>
<path fill="none" stroke="midnightblue" d="M2276.82,-266.709C2307.11,-254.936 2347.03,-239.425 2374.97,-228.571"/>
<polygon fill="midnightblue" stroke="midnightblue" points="2275.4,-263.505 2267.35,-270.389 2277.93,-270.029 2275.4,-263.505"/>
</g>
<!-- Node28 -->
<g id="node28" class="node"><title>Node28</title>
<g id="a_node28"><a xlink:href="$AP__HAL__FLYMAPLE_2examples_2Console_2Console_8cpp.html" xlink:title="libraries/AP_HAL_FLYMAPLE\l/examples/Console/Console.cpp">
<polygon fill="white" stroke="black" points="2500.9,-200.5 2500.9,-228.5 2660.31,-228.5 2660.31,-200.5 2500.9,-200.5"/>
<text text-anchor="start" x="2508.9" y="-216.5" font-family="Helvetica,sans-Serif" font-size="10.00">libraries/AP_HAL_FLYMAPLE</text>
<text text-anchor="middle" x="2580.6" y="-206.5" font-family="Helvetica,sans-Serif" font-size="10.00">/examples/Console/Console.cpp</text>
</a>
</g>
</g>
<!-- Node1&#45;&gt;Node28 -->
<g id="edge38" class="edge"><title>Node1&#45;&gt;Node28</title>
<path fill="none" stroke="midnightblue" d="M2313.76,-268.573C2364.97,-258.941 2432.75,-246.011 2492.6,-234 2501.18,-232.28 2510.21,-230.427 2519.09,-228.582"/>
<polygon fill="midnightblue" stroke="midnightblue" points="2312.93,-265.168 2303.75,-270.454 2314.22,-272.047 2312.93,-265.168"/>
</g>
<!-- Node29 -->
<g id="node29" class="node"><title>Node29</title>
<g id="a_node29"><a xlink:href="$empty__example_8cpp.html" xlink:title="libraries/AP_HAL_FLYMAPLE\l/examples/empty_example\l/empty_example.cpp">
<polygon fill="white" stroke="black" points="2678,-195.5 2678,-233.5 2827.21,-233.5 2827.21,-195.5 2678,-195.5"/>
<text text-anchor="start" x="2686" y="-221.5" font-family="Helvetica,sans-Serif" font-size="10.00">libraries/AP_HAL_FLYMAPLE</text>
<text text-anchor="start" x="2686" y="-211.5" font-family="Helvetica,sans-Serif" font-size="10.00">/examples/empty_example</text>
<text text-anchor="middle" x="2752.6" y="-201.5" font-family="Helvetica,sans-Serif" font-size="10.00">/empty_example.cpp</text>
</a>
</g>
</g>
<!-- Node1&#45;&gt;Node29 -->
<g id="edge39" class="edge"><title>Node1&#45;&gt;Node29</title>
<path fill="none" stroke="midnightblue" d="M2318.6,-276.544C2406.75,-268.7 2548.37,-254.334 2669.6,-234 2672.22,-233.56 2674.89,-233.091 2677.57,-232.599"/>
<polygon fill="midnightblue" stroke="midnightblue" points="2318.04,-273.079 2308.39,-277.445 2318.66,-280.052 2318.04,-273.079"/>
</g>
<!-- Node30 -->
<g id="node30" class="node"><title>Node30</title>
<g id="a_node30"><a xlink:href="$I2CDriver__HMC5883L_8cpp.html" xlink:title="libraries/AP_HAL_FLYMAPLE\l/examples/I2CDriver_HMC5883L\l/I2CDriver_HMC5883L.cpp">
<polygon fill="white" stroke="black" points="2845.24,-195.5 2845.24,-233.5 3007.97,-233.5 3007.97,-195.5 2845.24,-195.5"/>
<text text-anchor="start" x="2853.24" y="-221.5" font-family="Helvetica,sans-Serif" font-size="10.00">libraries/AP_HAL_FLYMAPLE</text>
<text text-anchor="start" x="2853.24" y="-211.5" font-family="Helvetica,sans-Serif" font-size="10.00">/examples/I2CDriver_HMC5883L</text>
<text text-anchor="middle" x="2926.6" y="-201.5" font-family="Helvetica,sans-Serif" font-size="10.00">/I2CDriver_HMC5883L.cpp</text>
</a>
</g>
</g>
<!-- Node1&#45;&gt;Node30 -->
<g id="edge40" class="edge"><title>Node1&#45;&gt;Node30</title>
<path fill="none" stroke="midnightblue" d="M2319,-279.744C2436.17,-273.851 2653.16,-260.285 2836.6,-234 2839.29,-233.615 2842.01,-233.2 2844.76,-232.76"/>
<polygon fill="midnightblue" stroke="midnightblue" points="2318.48,-276.266 2308.66,-280.257 2318.83,-283.257 2318.48,-276.266"/>
</g>
<!-- Node31 -->
<g id="node31" class="node"><title>Node31</title>
<g id="a_node31"><a xlink:href="$FLYMAPLE_2examples_2RCInput_2RCInput_8cpp.html" xlink:title="libraries/AP_HAL_FLYMAPLE\l/examples/RCInput/RCInput.cpp">
<polygon fill="white" stroke="black" points="3025.9,-200.5 3025.9,-228.5 3185.31,-228.5 3185.31,-200.5 3025.9,-200.5"/>
<text text-anchor="start" x="3033.9" y="-216.5" font-family="Helvetica,sans-Serif" font-size="10.00">libraries/AP_HAL_FLYMAPLE</text>
<text text-anchor="middle" x="3105.6" y="-206.5" font-family="Helvetica,sans-Serif" font-size="10.00">/examples/RCInput/RCInput.cpp</text>
</a>
</g>
</g>
<!-- Node1&#45;&gt;Node31 -->
<g id="edge41" class="edge"><title>Node1&#45;&gt;Node31</title>
<path fill="none" stroke="midnightblue" d="M2318.55,-282.07C2462.7,-278.763 2764.16,-268.042 3016.6,-234 3027.08,-232.587 3038.17,-230.646 3048.84,-228.551"/>
<polygon fill="midnightblue" stroke="midnightblue" points="2318.36,-278.573 2308.44,-282.295 2318.52,-285.571 2318.36,-278.573"/>
</g>
<!-- Node32 -->
<g id="node32" class="node"><title>Node32</title>
<g id="a_node32"><a xlink:href="$RCPassthroughTest_8cpp.html" xlink:title="libraries/AP_HAL_FLYMAPLE\l/examples/RCPassthroughTest\l/RCPassthroughTest.cpp">
<polygon fill="white" stroke="black" points="3202.96,-195.5 3202.96,-233.5 3356.25,-233.5 3356.25,-195.5 3202.96,-195.5"/>
<text text-anchor="start" x="3210.96" y="-221.5" font-family="Helvetica,sans-Serif" font-size="10.00">libraries/AP_HAL_FLYMAPLE</text>
<text text-anchor="start" x="3210.96" y="-211.5" font-family="Helvetica,sans-Serif" font-size="10.00">/examples/RCPassthroughTest</text>
<text text-anchor="middle" x="3279.6" y="-201.5" font-family="Helvetica,sans-Serif" font-size="10.00">/RCPassthroughTest.cpp</text>
</a>
</g>
</g>
<!-- Node1&#45;&gt;Node32 -->
<g id="edge42" class="edge"><title>Node1&#45;&gt;Node32</title>
<path fill="none" stroke="midnightblue" d="M2318.46,-283.753C2486.49,-283.237 2873.1,-276.976 3194.6,-234 3197.3,-233.64 3200.03,-233.239 3202.79,-232.805"/>
<polygon fill="midnightblue" stroke="midnightblue" points="2318.43,-280.253 2308.44,-283.778 2318.45,-287.253 2318.43,-280.253"/>
</g>
<!-- Node33 -->
<g id="node33" class="node"><title>Node33</title>
<g id="a_node33"><a xlink:href="$AP__HAL__FLYMAPLE_2examples_2Scheduler_2Scheduler_8cpp.html" xlink:title="libraries/AP_HAL_FLYMAPLE\l/examples/Scheduler/Scheduler.cpp">
<polygon fill="white" stroke="black" points="3373.83,-200.5 3373.83,-228.5 3549.38,-228.5 3549.38,-200.5 3373.83,-200.5"/>
<text text-anchor="start" x="3381.83" y="-216.5" font-family="Helvetica,sans-Serif" font-size="10.00">libraries/AP_HAL_FLYMAPLE</text>
<text text-anchor="middle" x="3461.6" y="-206.5" font-family="Helvetica,sans-Serif" font-size="10.00">/examples/Scheduler/Scheduler.cpp</text>
</a>
</g>
</g>
<!-- Node1&#45;&gt;Node33 -->
<g id="edge43" class="edge"><title>Node1&#45;&gt;Node33</title>
<path fill="none" stroke="midnightblue" d="M2318.55,-284.029C2507.46,-284.276 2976.41,-279.76 3365.6,-234 3377.24,-232.632 3389.57,-230.658 3401.39,-228.503"/>
<polygon fill="midnightblue" stroke="midnightblue" points="2318.42,-280.528 2308.41,-284.01 2318.4,-287.528 2318.42,-280.528"/>
</g>
<!-- Node34 -->
<g id="node34" class="node"><title>Node34</title>
<g id="a_node34"><a xlink:href="$Semaphore_8cpp.html" xlink:title="libraries/AP_HAL_FLYMAPLE\l/examples/Semaphore/Semaphore.cpp">
<polygon fill="white" stroke="black" points="3566.89,-200.5 3566.89,-228.5 3756.32,-228.5 3756.32,-200.5 3566.89,-200.5"/>
<text text-anchor="start" x="3574.89" y="-216.5" font-family="Helvetica,sans-Serif" font-size="10.00">libraries/AP_HAL_FLYMAPLE</text>
<text text-anchor="middle" x="3661.6" y="-206.5" font-family="Helvetica,sans-Serif" font-size="10.00">/examples/Semaphore/Semaphore.cpp</text>
</a>
</g>
</g>
<!-- Node1&#45;&gt;Node34 -->
<g id="edge44" class="edge"><title>Node1&#45;&gt;Node34</title>
<path fill="none" stroke="midnightblue" d="M2318.5,-281.888C2571.34,-276.841 3316.78,-260.103 3558.6,-234 3571.07,-232.655 3584.3,-230.691 3596.97,-228.539"/>
<polygon fill="midnightblue" stroke="midnightblue" points="2318.2,-278.393 2308.27,-282.091 2318.34,-285.392 2318.2,-278.393"/>
</g>
<!-- Node35 -->
<g id="node35" class="node"><title>Node35</title>
<g id="a_node35"><a xlink:href="$AP__HAL__FLYMAPLE_2examples_2SPIDriver_2SPIDriver_8cpp.html" xlink:title="libraries/AP_HAL_FLYMAPLE\l/examples/SPIDriver/SPIDriver.cpp">
<polygon fill="white" stroke="black" points="3774.08,-200.5 3774.08,-228.5 3945.13,-228.5 3945.13,-200.5 3774.08,-200.5"/>
<text text-anchor="start" x="3782.08" y="-216.5" font-family="Helvetica,sans-Serif" font-size="10.00">libraries/AP_HAL_FLYMAPLE</text>
<text text-anchor="middle" x="3859.6" y="-206.5" font-family="Helvetica,sans-Serif" font-size="10.00">/examples/SPIDriver/SPIDriver.cpp</text>
</a>
</g>
</g>
<!-- Node1&#45;&gt;Node35 -->
<g id="edge45" class="edge"><title>Node1&#45;&gt;Node35</title>
<path fill="none" stroke="midnightblue" d="M2318.59,-282.568C2597.3,-279.227 3481.9,-266.285 3765.6,-234 3777.17,-232.684 3789.44,-230.704 3801.17,-228.522"/>
<polygon fill="midnightblue" stroke="midnightblue" points="2318.5,-279.069 2308.54,-282.688 2318.58,-286.068 2318.5,-279.069"/>
</g>
<!-- Node36 -->
<g id="node36" class="node"><title>Node36</title>
<g id="a_node36"><a xlink:href="$FLYMAPLE_2examples_2Storage_2Storage_8cpp.html" xlink:title="libraries/AP_HAL_FLYMAPLE\l/examples/Storage/Storage.cpp">
<polygon fill="white" stroke="black" points="3963.56,-200.5 3963.56,-228.5 4119.65,-228.5 4119.65,-200.5 3963.56,-200.5"/>
<text text-anchor="start" x="3971.56" y="-216.5" font-family="Helvetica,sans-Serif" font-size="10.00">libraries/AP_HAL_FLYMAPLE</text>
<text text-anchor="middle" x="4041.6" y="-206.5" font-family="Helvetica,sans-Serif" font-size="10.00">/examples/Storage/Storage.cpp</text>
</a>
</g>
</g>
<!-- Node1&#45;&gt;Node36 -->
<g id="edge46" class="edge"><title>Node1&#45;&gt;Node36</title>
<path fill="none" stroke="midnightblue" d="M2318.63,-283.089C2619.44,-281.316 3632.51,-272.556 3954.6,-234 3965.34,-232.715 3976.7,-230.75 3987.56,-228.572"/>
<polygon fill="midnightblue" stroke="midnightblue" points="2318.21,-279.591 2308.23,-283.149 2318.25,-286.591 2318.21,-279.591"/>
</g>
<!-- Node37 -->
<g id="node37" class="node"><title>Node37</title>
<g id="a_node37"><a xlink:href="$FLYMAPLE_2examples_2UARTDriver_2UARTDriver_8cpp.html" xlink:title="libraries/AP_HAL_FLYMAPLE\l/examples/UARTDriver/UARTDriver.cpp">
<polygon fill="white" stroke="black" points="4137.15,-200.5 4137.15,-228.5 4330.06,-228.5 4330.06,-200.5 4137.15,-200.5"/>
<text text-anchor="start" x="4145.15" y="-216.5" font-family="Helvetica,sans-Serif" font-size="10.00">libraries/AP_HAL_FLYMAPLE</text>
<text text-anchor="middle" x="4233.6" y="-206.5" font-family="Helvetica,sans-Serif" font-size="10.00">/examples/UARTDriver/UARTDriver.cpp</text>
</a>
</g>
</g>
<!-- Node1&#45;&gt;Node37 -->
<g id="edge47" class="edge"><title>Node1&#45;&gt;Node37</title>
<path fill="none" stroke="midnightblue" d="M2318.46,-282.957C2638.18,-280.651 3770.05,-270.069 4128.6,-234 4141.59,-232.694 4155.38,-230.704 4168.56,-228.506"/>
<polygon fill="midnightblue" stroke="midnightblue" points="2318.31,-279.458 2308.33,-283.029 2318.36,-286.458 2318.31,-279.458"/>
</g>
<!-- Node38 -->
<g id="node38" class="node"><title>Node38</title>
<g id="a_node38"><a xlink:href="$UtilityStringTest_8cpp.html" xlink:title="libraries/AP_HAL_FLYMAPLE\l/examples/UtilityStringTest\l/UtilityStringTest.cpp">
<polygon fill="white" stroke="black" points="4348,-195.5 4348,-233.5 4497.21,-233.5 4497.21,-195.5 4348,-195.5"/>
<text text-anchor="start" x="4356" y="-221.5" font-family="Helvetica,sans-Serif" font-size="10.00">libraries/AP_HAL_FLYMAPLE</text>
<text text-anchor="start" x="4356" y="-211.5" font-family="Helvetica,sans-Serif" font-size="10.00">/examples/UtilityStringTest</text>
<text text-anchor="middle" x="4422.6" y="-201.5" font-family="Helvetica,sans-Serif" font-size="10.00">/UtilityStringTest.cpp</text>
</a>
</g>
</g>
<!-- Node1&#45;&gt;Node38 -->
<g id="edge48" class="edge"><title>Node1&#45;&gt;Node38</title>
<path fill="none" stroke="midnightblue" d="M2318.33,-283.692C2660.01,-284.128 3937.55,-282.417 4338.6,-234 4341.57,-233.642 4344.58,-233.227 4347.62,-232.766"/>
<polygon fill="midnightblue" stroke="midnightblue" points="2318.26,-280.192 2308.25,-283.678 2318.25,-287.192 2318.26,-280.192"/>
</g>
<!-- Node3 -->
<g id="node3" class="node"><title>Node3</title>
<g id="a_node3"><a xlink:href="$FLYMAPLE_2AnalogIn_8cpp.html" xlink:title="libraries/AP_HAL_FLYMAPLE\l/AnalogIn.cpp">
<polygon fill="white" stroke="black" points="0,-130.5 0,-158.5 149.208,-158.5 149.208,-130.5 0,-130.5"/>
<text text-anchor="start" x="8" y="-146.5" font-family="Helvetica,sans-Serif" font-size="10.00">libraries/AP_HAL_FLYMAPLE</text>
<text text-anchor="middle" x="74.604" y="-136.5" font-family="Helvetica,sans-Serif" font-size="10.00">/AnalogIn.cpp</text>
</a>
</g>
</g>
<!-- Node2&#45;&gt;Node3 -->
<g id="edge2" class="edge"><title>Node2&#45;&gt;Node3</title>
<path fill="none" stroke="midnightblue" d="M240.985,-197.399C203.028,-185.559 152.085,-169.668 116.608,-158.602"/>
<polygon fill="midnightblue" stroke="midnightblue" points="240.241,-200.833 250.829,-200.469 242.325,-194.15 240.241,-200.833"/>
</g>
<!-- Node4 -->
<g id="node4" class="node"><title>Node4</title>
<g id="a_node4"><a xlink:href="$AnalogSource_8cpp.html" xlink:title="libraries/AP_HAL_FLYMAPLE\l/AnalogSource.cpp">
<polygon fill="white" stroke="black" points="167,-130.5 167,-158.5 316.208,-158.5 316.208,-130.5 167,-130.5"/>
<text text-anchor="start" x="175" y="-146.5" font-family="Helvetica,sans-Serif" font-size="10.00">libraries/AP_HAL_FLYMAPLE</text>
<text text-anchor="middle" x="241.604" y="-136.5" font-family="Helvetica,sans-Serif" font-size="10.00">/AnalogSource.cpp</text>
</a>
</g>
</g>
<!-- Node2&#45;&gt;Node4 -->
<g id="edge3" class="edge"><title>Node2&#45;&gt;Node4</title>
<path fill="none" stroke="midnightblue" d="M276.565,-192.115C268.315,-181.115 258.526,-168.062 251.407,-158.571"/>
<polygon fill="midnightblue" stroke="midnightblue" points="273.971,-194.489 282.771,-200.389 279.571,-190.289 273.971,-194.489"/>
</g>
<!-- Node5 -->
<g id="node5" class="node"><title>Node5</title>
<g id="a_node5"><a xlink:href="$AP__HAL__FLYMAPLE__Private_8h.html" xlink:title="libraries/AP_HAL_FLYMAPLE\l/AP_HAL_FLYMAPLE_Private.h">
<polygon fill="white" stroke="black" points="1019.99,-65.5 1019.99,-93.5 1179.22,-93.5 1179.22,-65.5 1019.99,-65.5"/>
<text text-anchor="start" x="1027.99" y="-81.5" font-family="Helvetica,sans-Serif" font-size="10.00">libraries/AP_HAL_FLYMAPLE</text>
<text text-anchor="middle" x="1099.6" y="-71.5" font-family="Helvetica,sans-Serif" font-size="10.00">/AP_HAL_FLYMAPLE_Private.h</text>
</a>
</g>
</g>
<!-- Node2&#45;&gt;Node5 -->
<g id="edge4" class="edge"><title>Node2&#45;&gt;Node5</title>
<path fill="none" stroke="midnightblue" d="M304.233,-191.74C316.206,-171.79 336.869,-143.381 363.604,-130 421.344,-101.1 879.213,-98.7838 943.604,-94 968.41,-92.1571 995.412,-89.907 1019.87,-87.7762"/>
<polygon fill="midnightblue" stroke="midnightblue" points="301.154,-190.073 299.209,-200.488 307.224,-193.56 301.154,-190.073"/>
</g>
<!-- Node6 -->
<g id="node6" class="node"><title>Node6</title>
<g id="a_node6"><a xlink:href="$HAL__FLYMAPLE__Class_8cpp.html" xlink:title="libraries/AP_HAL_FLYMAPLE\l/HAL_FLYMAPLE_Class.cpp">
<polygon fill="white" stroke="black" points="1025,-0.5 1025,-28.5 1174.21,-28.5 1174.21,-0.5 1025,-0.5"/>
<text text-anchor="start" x="1033" y="-16.5" font-family="Helvetica,sans-Serif" font-size="10.00">libraries/AP_HAL_FLYMAPLE</text>
<text text-anchor="middle" x="1099.6" y="-6.5" font-family="Helvetica,sans-Serif" font-size="10.00">/HAL_FLYMAPLE_Class.cpp</text>
</a>
</g>
</g>
<!-- Node5&#45;&gt;Node6 -->
<g id="edge5" class="edge"><title>Node5&#45;&gt;Node6</title>
<path fill="none" stroke="midnightblue" d="M1099.6,-55.1641C1099.6,-46.1693 1099.6,-36.2205 1099.6,-28.5369"/>
<polygon fill="midnightblue" stroke="midnightblue" points="1096.1,-55.4463 1099.6,-65.4464 1103.1,-55.4464 1096.1,-55.4463"/>
</g>
<!-- Node7&#45;&gt;Node5 -->
<g id="edge7" class="edge"><title>Node7&#45;&gt;Node5</title>
<path fill="none" stroke="midnightblue" d="M1375.77,-190.246C1375.38,-171.383 1371.59,-145.471 1355.6,-130 1330.84,-106.035 1244.99,-93.0672 1179.46,-86.4923"/>
<polygon fill="midnightblue" stroke="midnightblue" points="1372.27,-190.372 1375.67,-200.405 1379.27,-190.439 1372.27,-190.372"/>
</g>
<!-- Node8 -->
<g id="node8" class="node"><title>Node8</title>
<g id="a_node8"><a xlink:href="$FLYMAPLE_2UARTDriver_8cpp.html" xlink:title="libraries/AP_HAL_FLYMAPLE\l/UARTDriver.cpp">
<polygon fill="white" stroke="black" points="1403,-130.5 1403,-158.5 1552.21,-158.5 1552.21,-130.5 1403,-130.5"/>
<text text-anchor="start" x="1411" y="-146.5" font-family="Helvetica,sans-Serif" font-size="10.00">libraries/AP_HAL_FLYMAPLE</text>
<text text-anchor="middle" x="1477.6" y="-136.5" font-family="Helvetica,sans-Serif" font-size="10.00">/UARTDriver.cpp</text>
</a>
</g>
</g>
<!-- Node7&#45;&gt;Node8 -->
<g id="edge8" class="edge"><title>Node7&#45;&gt;Node8</title>
<path fill="none" stroke="midnightblue" d="M1403.1,-194.687C1420.49,-183.205 1442.29,-168.814 1457.81,-158.571"/>
<polygon fill="midnightblue" stroke="midnightblue" points="1400.88,-191.958 1394.46,-200.389 1404.74,-197.8 1400.88,-191.958"/>
</g>
<!-- Node9&#45;&gt;Node5 -->
<g id="edge10" class="edge"><title>Node9&#45;&gt;Node5</title>
<path fill="none" stroke="midnightblue" d="M755.283,-190.081C755.578,-171.119 759.317,-145.153 775.604,-130 793.258,-113.576 929.572,-97.2006 1019.68,-88.0097"/>
<polygon fill="midnightblue" stroke="midnightblue" points="751.787,-190.356 755.439,-200.302 758.786,-190.249 751.787,-190.356"/>
</g>
<!-- Node10 -->
<g id="node10" class="node"><title>Node10</title>
<g id="a_node10"><a xlink:href="$AP__HAL__FLYMAPLE_2I2CDriver_8cpp.html" xlink:title="libraries/AP_HAL_FLYMAPLE\l/I2CDriver.cpp">
<polygon fill="white" stroke="black" points="579,-130.5 579,-158.5 728.208,-158.5 728.208,-130.5 579,-130.5"/>
<text text-anchor="start" x="587" y="-146.5" font-family="Helvetica,sans-Serif" font-size="10.00">libraries/AP_HAL_FLYMAPLE</text>
<text text-anchor="middle" x="653.604" y="-136.5" font-family="Helvetica,sans-Serif" font-size="10.00">/I2CDriver.cpp</text>
</a>
</g>
</g>
<!-- Node9&#45;&gt;Node10 -->
<g id="edge11" class="edge"><title>Node9&#45;&gt;Node10</title>
<path fill="none" stroke="midnightblue" d="M728.108,-194.687C710.715,-183.205 688.918,-168.814 673.402,-158.571"/>
<polygon fill="midnightblue" stroke="midnightblue" points="726.471,-197.8 736.745,-200.389 730.328,-191.958 726.471,-197.8"/>
</g>
<!-- Node11&#45;&gt;Node5 -->
<g id="edge13" class="edge"><title>Node11&#45;&gt;Node5</title>
<path fill="none" stroke="midnightblue" d="M919.026,-127.902C959.296,-117.331 1011.9,-103.521 1049.94,-93.5369"/>
<polygon fill="midnightblue" stroke="midnightblue" points="918.116,-124.522 909.332,-130.446 919.893,-131.293 918.116,-124.522"/>
</g>
<!-- Node12 -->
<g id="node12" class="node"><title>Node12</title>
<g id="a_node12"><a xlink:href="$AP__HAL__FLYMAPLE_2SPIDriver_8cpp.html" xlink:title="libraries/AP_HAL_FLYMAPLE\l/SPIDriver.cpp">
<polygon fill="white" stroke="black" points="785,-65.5 785,-93.5 934.208,-93.5 934.208,-65.5 785,-65.5"/>
<text text-anchor="start" x="793" y="-81.5" font-family="Helvetica,sans-Serif" font-size="10.00">libraries/AP_HAL_FLYMAPLE</text>
<text text-anchor="middle" x="859.604" y="-71.5" font-family="Helvetica,sans-Serif" font-size="10.00">/SPIDriver.cpp</text>
</a>
</g>
</g>
<!-- Node11&#45;&gt;Node12 -->
<g id="edge14" class="edge"><title>Node11&#45;&gt;Node12</title>
<path fill="none" stroke="midnightblue" d="M859.604,-120.164C859.604,-111.169 859.604,-101.221 859.604,-93.5369"/>
<polygon fill="midnightblue" stroke="midnightblue" points="856.104,-120.446 859.604,-130.446 863.104,-120.446 856.104,-120.446"/>
</g>
<!-- Node13&#45;&gt;Node5 -->
<g id="edge17" class="edge"><title>Node13&#45;&gt;Node5</title>
<path fill="none" stroke="midnightblue" d="M962.354,-190.179C963.354,-171.874 967.521,-146.765 981.604,-130 996.393,-112.394 1018.51,-100.933 1039.62,-93.5262"/>
<polygon fill="midnightblue" stroke="midnightblue" points="958.851,-190.218 962.08,-200.309 965.849,-190.407 958.851,-190.218"/>
</g>
<!-- Node13&#45;&gt;Node11 -->
<g id="edge16" class="edge"><title>Node13&#45;&gt;Node11</title>
<path fill="none" stroke="midnightblue" d="M934.108,-194.687C916.715,-183.205 894.918,-168.814 879.402,-158.571"/>
<polygon fill="midnightblue" stroke="midnightblue" points="932.471,-197.8 942.745,-200.389 936.328,-191.958 932.471,-197.8"/>
</g>
<!-- Node13&#45;&gt;Node14 -->
<g id="edge18" class="edge"><title>Node13&#45;&gt;Node14</title>
<path fill="none" stroke="midnightblue" d="M991.1,-194.687C1008.49,-183.205 1030.29,-168.814 1045.81,-158.571"/>
<polygon fill="midnightblue" stroke="midnightblue" points="988.88,-191.958 982.463,-200.389 992.737,-197.8 988.88,-191.958"/>
</g>
<!-- Node15&#45;&gt;Node5 -->
<g id="edge20" class="edge"><title>Node15&#45;&gt;Node5</title>
<path fill="none" stroke="midnightblue" d="M549.054,-190.419C549.142,-171.255 552.709,-144.821 569.604,-130 571.7,-128.161 872.263,-100.926 1019.78,-87.6583"/>
<polygon fill="midnightblue" stroke="midnightblue" points="545.556,-190.552 549.314,-200.458 552.553,-190.37 545.556,-190.552"/>
</g>
<!-- Node16 -->
<g id="node16" class="node"><title>Node16</title>
<g id="a_node16"><a xlink:href="$FLYMAPLE_2Storage_8cpp.html" xlink:title="libraries/AP_HAL_FLYMAPLE\l/Storage.cpp">
<polygon fill="white" stroke="black" points="373,-130.5 373,-158.5 522.208,-158.5 522.208,-130.5 373,-130.5"/>
<text text-anchor="start" x="381" y="-146.5" font-family="Helvetica,sans-Serif" font-size="10.00">libraries/AP_HAL_FLYMAPLE</text>
<text text-anchor="middle" x="447.604" y="-136.5" font-family="Helvetica,sans-Serif" font-size="10.00">/Storage.cpp</text>
</a>
</g>
</g>
<!-- Node15&#45;&gt;Node16 -->
<g id="edge21" class="edge"><title>Node15&#45;&gt;Node16</title>
<path fill="none" stroke="midnightblue" d="M522.108,-194.687C504.715,-183.205 482.918,-168.814 467.402,-158.571"/>
<polygon fill="midnightblue" stroke="midnightblue" points="520.471,-197.8 530.745,-200.389 524.328,-191.958 520.471,-197.8"/>
</g>
<!-- Node17&#45;&gt;Node5 -->
<g id="edge23" class="edge"><title>Node17&#45;&gt;Node5</title>
<path fill="none" stroke="midnightblue" d="M1556.27,-191.799C1566.82,-173.225 1576.78,-146.884 1561.6,-130 1536.57,-102.137 1304.63,-88.6473 1179.22,-83.3421"/>
<polygon fill="midnightblue" stroke="midnightblue" points="1553.2,-190.105 1550.98,-200.465 1559.18,-193.749 1553.2,-190.105"/>
</g>
<!-- Node18 -->
<g id="node18" class="node"><title>Node18</title>
<g id="a_node18"><a xlink:href="$AP__HAL__FLYMAPLE_2GPIO_8cpp.html" xlink:title="libraries/AP_HAL_FLYMAPLE\l/GPIO.cpp">
<polygon fill="white" stroke="black" points="1609,-130.5 1609,-158.5 1758.21,-158.5 1758.21,-130.5 1609,-130.5"/>
<text text-anchor="start" x="1617" y="-146.5" font-family="Helvetica,sans-Serif" font-size="10.00">libraries/AP_HAL_FLYMAPLE</text>
<text text-anchor="middle" x="1683.6" y="-136.5" font-family="Helvetica,sans-Serif" font-size="10.00">/GPIO.cpp</text>
</a>
</g>
</g>
<!-- Node17&#45;&gt;Node18 -->
<g id="edge24" class="edge"><title>Node17&#45;&gt;Node18</title>
<path fill="none" stroke="midnightblue" d="M1578.28,-195.939C1602.65,-184.266 1634.13,-169.19 1656.31,-158.571"/>
<polygon fill="midnightblue" stroke="midnightblue" points="1576.49,-192.913 1568.98,-200.389 1579.51,-199.227 1576.49,-192.913"/>
</g>
<!-- Node19&#45;&gt;Node5 -->
<g id="edge26" class="edge"><title>Node19&#45;&gt;Node5</title>
<path fill="none" stroke="midnightblue" d="M1737.66,-194.168C1760.76,-176.508 1786.32,-150.156 1767.6,-130 1728.31,-87.686 1347.86,-81.2347 1179.3,-80.4684"/>
<polygon fill="midnightblue" stroke="midnightblue" points="1735.36,-191.521 1729.36,-200.253 1739.49,-197.168 1735.36,-191.521"/>
</g>
<!-- Node20 -->
<g id="node20" class="node"><title>Node20</title>
<g id="a_node20"><a xlink:href="$FLYMAPLE_2RCInput_8cpp.html" xlink:title="libraries/AP_HAL_FLYMAPLE\l/RCInput.cpp">
<polygon fill="white" stroke="black" points="1815,-130.5 1815,-158.5 1964.21,-158.5 1964.21,-130.5 1815,-130.5"/>
<text text-anchor="start" x="1823" y="-146.5" font-family="Helvetica,sans-Serif" font-size="10.00">libraries/AP_HAL_FLYMAPLE</text>
<text text-anchor="middle" x="1889.6" y="-136.5" font-family="Helvetica,sans-Serif" font-size="10.00">/RCInput.cpp</text>
</a>
</g>
</g>
<!-- Node19&#45;&gt;Node20 -->
<g id="edge27" class="edge"><title>Node19&#45;&gt;Node20</title>
<path fill="none" stroke="midnightblue" d="M1752.89,-196.861C1784.28,-185.07 1825.8,-169.472 1854.81,-158.571"/>
<polygon fill="midnightblue" stroke="midnightblue" points="1751.63,-193.596 1743.5,-200.389 1754.09,-200.148 1751.63,-193.596"/>
</g>
<!-- Node21&#45;&gt;Node5 -->
<g id="edge29" class="edge"><title>Node21&#45;&gt;Node5</title>
<path fill="none" stroke="midnightblue" d="M1920.67,-196.423C1956.62,-180.375 1997.35,-155.129 1973.6,-130 1946.55,-101.366 1389.81,-86.6408 1179.29,-82.08"/>
<polygon fill="midnightblue" stroke="midnightblue" points="1918.99,-193.332 1911.19,-200.498 1921.76,-199.762 1918.99,-193.332"/>
</g>
<!-- Node22 -->
<g id="node22" class="node"><title>Node22</title>
<g id="a_node22"><a xlink:href="$FLYMAPLE_2RCOutput_8cpp.html" xlink:title="libraries/AP_HAL_FLYMAPLE\l/RCOutput.cpp">
<polygon fill="white" stroke="black" points="2021,-130.5 2021,-158.5 2170.21,-158.5 2170.21,-130.5 2021,-130.5"/>
<text text-anchor="start" x="2029" y="-146.5" font-family="Helvetica,sans-Serif" font-size="10.00">libraries/AP_HAL_FLYMAPLE</text>
<text text-anchor="middle" x="2095.6" y="-136.5" font-family="Helvetica,sans-Serif" font-size="10.00">/RCOutput.cpp</text>
</a>
</g>
</g>
<!-- Node21&#45;&gt;Node22 -->
<g id="edge30" class="edge"><title>Node21&#45;&gt;Node22</title>
<path fill="none" stroke="midnightblue" d="M1927.7,-197.399C1966,-185.559 2017.41,-169.668 2053.21,-158.602"/>
<polygon fill="midnightblue" stroke="midnightblue" points="1926.28,-194.172 1917.76,-200.469 1928.35,-200.86 1926.28,-194.172"/>
</g>
<!-- Node23&#45;&gt;Node5 -->
<g id="edge32" class="edge"><title>Node23&#45;&gt;Node5</title>
<path fill="none" stroke="midnightblue" d="M1179.88,-190.868C1173.31,-173.369 1162.85,-149.005 1149.6,-130 1139.96,-116.171 1126.19,-102.868 1115.54,-93.5413"/>
<polygon fill="midnightblue" stroke="midnightblue" points="1176.59,-192.072 1183.28,-200.285 1183.17,-189.691 1176.59,-192.072"/>
</g>
<!-- Node23&#45;&gt;Node14 -->
<g id="edge34" class="edge"><title>Node23&#45;&gt;Node14</title>
<path fill="none" stroke="midnightblue" d="M1155.26,-195.472C1134.44,-183.867 1107.85,-169.049 1089.05,-158.571"/>
<polygon fill="midnightblue" stroke="midnightblue" points="1153.64,-198.577 1164.08,-200.389 1157.05,-192.463 1153.64,-198.577"/>
</g>
<!-- Node24 -->
<g id="node24" class="node"><title>Node24</title>
<g id="a_node24"><a xlink:href="$AP__HAL__FLYMAPLE_2Scheduler_8cpp.html" xlink:title="libraries/AP_HAL_FLYMAPLE\l/Scheduler.cpp">
<polygon fill="white" stroke="black" points="1197,-130.5 1197,-158.5 1346.21,-158.5 1346.21,-130.5 1197,-130.5"/>
<text text-anchor="start" x="1205" y="-146.5" font-family="Helvetica,sans-Serif" font-size="10.00">libraries/AP_HAL_FLYMAPLE</text>
<text text-anchor="middle" x="1271.6" y="-136.5" font-family="Helvetica,sans-Serif" font-size="10.00">/Scheduler.cpp</text>
</a>
</g>
</g>
<!-- Node23&#45;&gt;Node24 -->
<g id="edge33" class="edge"><title>Node23&#45;&gt;Node24</title>
<path fill="none" stroke="midnightblue" d="M1211.63,-194.052C1225.68,-182.678 1243.04,-168.626 1255.46,-158.571"/>
<polygon fill="midnightblue" stroke="midnightblue" points="1209.37,-191.377 1203.8,-200.389 1213.77,-196.817 1209.37,-191.377"/>
</g>
</g>
</svg>
