<?xml version="1.0" encoding="UTF-8" standalone="no"?>
<!DOCTYPE svg PUBLIC "-//W3C//DTD SVG 1.1//EN"
 "http://www.w3.org/Graphics/SVG/1.1/DTD/svg11.dtd">
<!-- Generated by graphviz version 2.38.0 (20140413.2041)
 -->
<!-- Title: libraries/AP_InertialSensor/AP_InertialSensor_UserInteract_Stream.h Pages: 1 -->
<svg width="1365pt" height="542pt"
 viewBox="0.00 0.00 1365.48 542.00" xmlns="http://www.w3.org/2000/svg" xmlns:xlink="http://www.w3.org/1999/xlink">
<g id="graph0" class="graph" transform="scale(1 1) rotate(0) translate(4 538)">
<title>libraries/AP_InertialSensor/AP_InertialSensor_UserInteract_Stream.h</title>
<polygon fill="white" stroke="none" points="-4,4 -4,-538 1361.48,-538 1361.48,4 -4,4"/>
<!-- Node1 -->
<g id="node1" class="node"><title>Node1</title>
<polygon fill="#bfbfbf" stroke="black" points="1085.3,-495.5 1085.3,-533.5 1244.7,-533.5 1244.7,-495.5 1085.3,-495.5"/>
<text text-anchor="start" x="1093.3" y="-521.5" font-family="Helvetica,sans-Serif" font-size="10.00">libraries/AP_InertialSensor</text>
<text text-anchor="start" x="1093.3" y="-511.5" font-family="Helvetica,sans-Serif" font-size="10.00">/AP_InertialSensor_UserInteract</text>
<text text-anchor="middle" x="1165" y="-501.5" font-family="Helvetica,sans-Serif" font-size="10.00">_Stream.h</text>
</g>
<!-- Node2 -->
<g id="node2" class="node"><title>Node2</title>
<g id="a_node2"><a xlink:href="$AP__Common_8h.html" xlink:title="Common definitions and utility routines for the ArduPilot libraries. ">
<polygon fill="white" stroke="black" points="1028.97,-165.5 1028.97,-183.5 1175.03,-183.5 1175.03,-165.5 1028.97,-165.5"/>
<text text-anchor="middle" x="1102" y="-171.5" font-family="Helvetica,sans-Serif" font-size="10.00">AP_Common/AP_Common.h</text>
</a>
</g>
</g>
<!-- Node1&#45;&gt;Node2 -->
<g id="edge1" class="edge"><title>Node1&#45;&gt;Node2</title>
<path fill="none" stroke="midnightblue" d="M1165,-495.105C1165,-471.891 1165,-430.736 1165,-395.5 1165,-395.5 1165,-395.5 1165,-283.5 1165,-246.106 1136.47,-210.134 1117.81,-190.603"/>
<polygon fill="midnightblue" stroke="midnightblue" points="1120.29,-188.133 1110.76,-183.506 1115.32,-193.067 1120.29,-188.133"/>
</g>
<!-- Node6 -->
<g id="node6" class="node"><title>Node6</title>
<g id="a_node6"><a xlink:href="$AP__HAL_8h.html" xlink:title="AP_HAL/AP_HAL.h">
<polygon fill="white" stroke="black" points="523.086,-440.5 523.086,-458.5 626.914,-458.5 626.914,-440.5 523.086,-440.5"/>
<text text-anchor="middle" x="575" y="-446.5" font-family="Helvetica,sans-Serif" font-size="10.00">AP_HAL/AP_HAL.h</text>
</a>
</g>
</g>
<!-- Node1&#45;&gt;Node6 -->
<g id="edge5" class="edge"><title>Node1&#45;&gt;Node6</title>
<path fill="none" stroke="midnightblue" d="M1085.12,-504.971C966.185,-492.271 745.008,-468.653 637.243,-457.146"/>
<polygon fill="midnightblue" stroke="midnightblue" points="637.491,-453.653 627.176,-456.071 636.747,-460.613 637.491,-453.653"/>
</g>
<!-- Node30 -->
<g id="node30" class="node"><title>Node30</title>
<g id="a_node30"><a xlink:href="$AP__InertialSensor__UserInteract_8h.html" xlink:title="AP_InertialSensor_UserInteract.h">
<polygon fill="white" stroke="black" points="1192.52,-440.5 1192.52,-458.5 1357.48,-458.5 1357.48,-440.5 1192.52,-440.5"/>
<text text-anchor="middle" x="1275" y="-446.5" font-family="Helvetica,sans-Serif" font-size="10.00">AP_InertialSensor_UserInteract.h</text>
</a>
</g>
</g>
<!-- Node1&#45;&gt;Node30 -->
<g id="edge69" class="edge"><title>Node1&#45;&gt;Node30</title>
<path fill="none" stroke="midnightblue" d="M1196.52,-495.447C1214.25,-485.295 1235.98,-472.849 1252.07,-463.63"/>
<polygon fill="midnightblue" stroke="midnightblue" points="1253.89,-466.624 1260.83,-458.617 1250.41,-460.549 1253.89,-466.624"/>
</g>
<!-- Node3 -->
<g id="node3" class="node"><title>Node3</title>
<polygon fill="white" stroke="#bfbfbf" points="636.879,-110.5 636.879,-128.5 685.121,-128.5 685.121,-110.5 636.879,-110.5"/>
<text text-anchor="middle" x="661" y="-116.5" font-family="Helvetica,sans-Serif" font-size="10.00">stdint.h</text>
</g>
<!-- Node2&#45;&gt;Node3 -->
<g id="edge2" class="edge"><title>Node2&#45;&gt;Node3</title>
<path fill="none" stroke="midnightblue" d="M1035.02,-165.45C939.713,-153.996 768.436,-133.412 695.454,-124.641"/>
<polygon fill="midnightblue" stroke="midnightblue" points="695.766,-121.153 685.42,-123.435 694.931,-128.103 695.766,-121.153"/>
</g>
<!-- Node4 -->
<g id="node4" class="node"><title>Node4</title>
<polygon fill="white" stroke="#bfbfbf" points="1053.16,-110.5 1053.16,-128.5 1100.84,-128.5 1100.84,-110.5 1053.16,-110.5"/>
<text text-anchor="middle" x="1077" y="-116.5" font-family="Helvetica,sans-Serif" font-size="10.00">stdlib.h</text>
</g>
<!-- Node2&#45;&gt;Node4 -->
<g id="edge3" class="edge"><title>Node2&#45;&gt;Node4</title>
<path fill="none" stroke="midnightblue" d="M1098.09,-165.219C1094.62,-157.864 1089.44,-146.88 1085.08,-137.639"/>
<polygon fill="midnightblue" stroke="midnightblue" points="1088.23,-136.101 1080.8,-128.55 1081.9,-139.087 1088.23,-136.101"/>
</g>
<!-- Node5 -->
<g id="node5" class="node"><title>Node5</title>
<polygon fill="white" stroke="#bfbfbf" points="1118.71,-110.5 1118.71,-128.5 1175.29,-128.5 1175.29,-110.5 1118.71,-110.5"/>
<text text-anchor="middle" x="1147" y="-116.5" font-family="Helvetica,sans-Serif" font-size="10.00">stdbool.h</text>
</g>
<!-- Node2&#45;&gt;Node5 -->
<g id="edge4" class="edge"><title>Node2&#45;&gt;Node5</title>
<path fill="none" stroke="midnightblue" d="M1109.03,-165.219C1115.61,-157.473 1125.6,-145.701 1133.69,-136.18"/>
<polygon fill="midnightblue" stroke="midnightblue" points="1136.36,-138.438 1140.17,-128.55 1131.03,-133.907 1136.36,-138.438"/>
</g>
<!-- Node6&#45;&gt;Node3 -->
<g id="edge6" class="edge"><title>Node6&#45;&gt;Node3</title>
<path fill="none" stroke="midnightblue" d="M586.518,-440.475C614.644,-420.038 686.195,-362.749 709,-294 727.823,-237.254 691.712,-168.435 672.256,-137.273"/>
<polygon fill="midnightblue" stroke="midnightblue" points="674.982,-135.041 666.615,-128.541 669.102,-138.84 674.982,-135.041"/>
</g>
<!-- Node6&#45;&gt;Node5 -->
<g id="edge7" class="edge"><title>Node6&#45;&gt;Node5</title>
<path fill="none" stroke="midnightblue" d="M626.978,-445.922C714.039,-440.984 885.196,-428.442 940,-404 969.369,-390.902 1161.34,-235.33 1184,-184 1191.6,-166.795 1178.18,-148.35 1165.43,-135.797"/>
<polygon fill="midnightblue" stroke="midnightblue" points="1167.51,-132.962 1157.77,-128.806 1162.79,-138.133 1167.51,-132.962"/>
</g>
<!-- Node7 -->
<g id="node7" class="node"><title>Node7</title>
<g id="a_node7"><a xlink:href="$AP__HAL__Namespace_8h.html" xlink:title="AP_HAL_Namespace.h">
<polygon fill="white" stroke="black" points="326.192,-55.5 326.192,-73.5 447.808,-73.5 447.808,-55.5 326.192,-55.5"/>
<text text-anchor="middle" x="387" y="-61.5" font-family="Helvetica,sans-Serif" font-size="10.00">AP_HAL_Namespace.h</text>
</a>
</g>
</g>
<!-- Node6&#45;&gt;Node7 -->
<g id="edge8" class="edge"><title>Node6&#45;&gt;Node7</title>
<path fill="none" stroke="midnightblue" d="M627.234,-446.499C736.531,-441.868 985.927,-428.864 1067,-404 1196.3,-364.344 1317,-365.747 1317,-230.5 1317,-230.5 1317,-230.5 1317,-173.5 1317,-130.162 1283.24,-126.097 1243,-110 1171.14,-81.2506 650.728,-69.8393 458.288,-66.573"/>
<polygon fill="midnightblue" stroke="midnightblue" points="458.061,-63.0688 448.004,-66.4009 457.944,-70.0678 458.061,-63.0688"/>
</g>
<!-- Node10 -->
<g id="node10" class="node"><title>Node10</title>
<g id="a_node10"><a xlink:href="$AP__HAL__Boards_8h.html" xlink:title="AP_HAL_Boards.h">
<polygon fill="white" stroke="black" points="835.03,-165.5 835.03,-183.5 934.97,-183.5 934.97,-165.5 835.03,-165.5"/>
<text text-anchor="middle" x="885" y="-171.5" font-family="Helvetica,sans-Serif" font-size="10.00">AP_HAL_Boards.h</text>
</a>
</g>
</g>
<!-- Node6&#45;&gt;Node10 -->
<g id="edge11" class="edge"><title>Node6&#45;&gt;Node10</title>
<path fill="none" stroke="midnightblue" d="M627.082,-440.669C712.747,-426.307 874,-392.381 874,-340.5 874,-340.5 874,-340.5 874,-283.5 874,-251.708 878.776,-214.922 882.034,-193.526"/>
<polygon fill="midnightblue" stroke="midnightblue" points="885.498,-194.025 883.607,-183.6 878.585,-192.929 885.498,-194.025"/>
</g>
<!-- Node11 -->
<g id="node11" class="node"><title>Node11</title>
<g id="a_node11"><a xlink:href="$AP__HAL__Macros_8h.html" xlink:title="AP_HAL_Macros.h">
<polygon fill="white" stroke="black" points="128.48,-385.5 128.48,-403.5 229.52,-403.5 229.52,-385.5 128.48,-385.5"/>
<text text-anchor="middle" x="179" y="-391.5" font-family="Helvetica,sans-Serif" font-size="10.00">AP_HAL_Macros.h</text>
</a>
</g>
</g>
<!-- Node6&#45;&gt;Node11 -->
<g id="edge12" class="edge"><title>Node6&#45;&gt;Node11</title>
<path fill="none" stroke="midnightblue" d="M522.823,-441.517C449.76,-431.738 317.254,-414.004 239.813,-403.639"/>
<polygon fill="midnightblue" stroke="midnightblue" points="240.102,-400.147 229.726,-402.289 239.173,-407.085 240.102,-400.147"/>
</g>
<!-- Node12 -->
<g id="node12" class="node"><title>Node12</title>
<g id="a_node12"><a xlink:href="$AP__HAL__Main_8h.html" xlink:title="AP_HAL_Main.h">
<polygon fill="white" stroke="black" points="362.035,-385.5 362.035,-403.5 451.965,-403.5 451.965,-385.5 362.035,-385.5"/>
<text text-anchor="middle" x="407" y="-391.5" font-family="Helvetica,sans-Serif" font-size="10.00">AP_HAL_Main.h</text>
</a>
</g>
</g>
<!-- Node6&#45;&gt;Node12 -->
<g id="edge13" class="edge"><title>Node6&#45;&gt;Node12</title>
<path fill="none" stroke="midnightblue" d="M549.484,-440.45C520.909,-431.436 474.407,-416.765 442.342,-406.65"/>
<polygon fill="midnightblue" stroke="midnightblue" points="443.07,-403.209 432.48,-403.538 440.964,-409.885 443.07,-403.209"/>
</g>
<!-- Node13 -->
<g id="node13" class="node"><title>Node13</title>
<g id="a_node13"><a xlink:href="$HAL_8h.html" xlink:title="HAL.h">
<polygon fill="white" stroke="black" points="382.104,-330.5 382.104,-348.5 425.896,-348.5 425.896,-330.5 382.104,-330.5"/>
<text text-anchor="middle" x="404" y="-336.5" font-family="Helvetica,sans-Serif" font-size="10.00">HAL.h</text>
</a>
</g>
</g>
<!-- Node6&#45;&gt;Node13 -->
<g id="edge68" class="edge"><title>Node6&#45;&gt;Node13</title>
<path fill="none" stroke="midnightblue" d="M562.159,-440.484C547.928,-431.591 524.301,-416.807 504,-404 476.699,-386.777 445.283,-366.802 425.062,-353.925"/>
<polygon fill="midnightblue" stroke="midnightblue" points="426.928,-350.964 416.614,-348.543 423.167,-356.868 426.928,-350.964"/>
</g>
<!-- Node14 -->
<g id="node14" class="node"><title>Node14</title>
<g id="a_node14"><a xlink:href="$AnalogIn_8h.html" xlink:title="AnalogIn.h">
<polygon fill="white" stroke="black" points="219.091,-220.5 219.091,-238.5 282.909,-238.5 282.909,-220.5 219.091,-220.5"/>
<text text-anchor="middle" x="251" y="-226.5" font-family="Helvetica,sans-Serif" font-size="10.00">AnalogIn.h</text>
</a>
</g>
</g>
<!-- Node6&#45;&gt;Node14 -->
<g id="edge50" class="edge"><title>Node6&#45;&gt;Node14</title>
<path fill="none" stroke="midnightblue" d="M523.035,-443.913C462.46,-437.688 366.942,-424.883 338,-404 284.74,-365.571 262.149,-285.087 254.4,-248.862"/>
<polygon fill="midnightblue" stroke="midnightblue" points="257.774,-247.886 252.385,-238.765 250.91,-249.256 257.774,-247.886"/>
</g>
<!-- Node16 -->
<g id="node16" class="node"><title>Node16</title>
<g id="a_node16"><a xlink:href="$GPIO_8h.html" xlink:title="GPIO.h">
<polygon fill="white" stroke="black" points="545.328,-220.5 545.328,-238.5 594.672,-238.5 594.672,-220.5 545.328,-220.5"/>
<text text-anchor="middle" x="570" y="-226.5" font-family="Helvetica,sans-Serif" font-size="10.00">GPIO.h</text>
</a>
</g>
</g>
<!-- Node6&#45;&gt;Node16 -->
<g id="edge52" class="edge"><title>Node6&#45;&gt;Node16</title>
<path fill="none" stroke="midnightblue" d="M574.816,-440.483C574.096,-409.107 571.46,-294.159 570.423,-248.944"/>
<polygon fill="midnightblue" stroke="midnightblue" points="573.919,-248.74 570.191,-238.823 566.921,-248.901 573.919,-248.74"/>
</g>
<!-- Node17 -->
<g id="node17" class="node"><title>Node17</title>
<g id="a_node17"><a xlink:href="$RCInput_8h.html" xlink:title="RCInput.h">
<polygon fill="white" stroke="black" points="28.4878,-275.5 28.4878,-293.5 89.5122,-293.5 89.5122,-275.5 28.4878,-275.5"/>
<text text-anchor="middle" x="59" y="-281.5" font-family="Helvetica,sans-Serif" font-size="10.00">RCInput.h</text>
</a>
</g>
</g>
<!-- Node6&#45;&gt;Node17 -->
<g id="edge53" class="edge"><title>Node6&#45;&gt;Node17</title>
<path fill="none" stroke="midnightblue" d="M522.787,-447.166C403.423,-443.637 118.36,-432.311 86,-404 57.365,-378.948 55.6734,-330.396 57.1759,-303.879"/>
<polygon fill="midnightblue" stroke="midnightblue" points="60.6814,-303.945 57.9759,-293.701 53.703,-303.396 60.6814,-303.945"/>
</g>
<!-- Node18 -->
<g id="node18" class="node"><title>Node18</title>
<g id="a_node18"><a xlink:href="$RCOutput_8h.html" xlink:title="RCOutput.h">
<polygon fill="white" stroke="black" points="145.599,-275.5 145.599,-293.5 214.401,-293.5 214.401,-275.5 145.599,-275.5"/>
<text text-anchor="middle" x="180" y="-281.5" font-family="Helvetica,sans-Serif" font-size="10.00">RCOutput.h</text>
</a>
</g>
</g>
<!-- Node6&#45;&gt;Node18 -->
<g id="edge54" class="edge"><title>Node6&#45;&gt;Node18</title>
<path fill="none" stroke="midnightblue" d="M522.968,-444.943C450.199,-439.24 322.404,-426.358 282,-404 238.194,-379.76 204.565,-328.939 189.186,-302.42"/>
<polygon fill="midnightblue" stroke="midnightblue" points="192.153,-300.556 184.203,-293.553 186.051,-303.985 192.153,-300.556"/>
</g>
<!-- Node19 -->
<g id="node19" class="node"><title>Node19</title>
<g id="a_node19"><a xlink:href="$SPIDriver_8h.html" xlink:title="SPIDriver.h">
<polygon fill="white" stroke="black" points="307.712,-275.5 307.712,-293.5 374.288,-293.5 374.288,-275.5 307.712,-275.5"/>
<text text-anchor="middle" x="341" y="-281.5" font-family="Helvetica,sans-Serif" font-size="10.00">SPIDriver.h</text>
</a>
</g>
</g>
<!-- Node6&#45;&gt;Node19 -->
<g id="edge49" class="edge"><title>Node6&#45;&gt;Node19</title>
<path fill="none" stroke="midnightblue" d="M522.983,-445.075C464.656,-440.078 375.289,-428.561 353,-404 328.064,-376.522 332.19,-329.342 336.888,-303.581"/>
<polygon fill="midnightblue" stroke="midnightblue" points="340.337,-304.185 338.918,-293.686 333.48,-302.778 340.337,-304.185"/>
</g>
<!-- Node20 -->
<g id="node20" class="node"><title>Node20</title>
<g id="a_node20"><a xlink:href="$Storage_8h.html" xlink:title="Storage.h">
<polygon fill="white" stroke="black" points="430.318,-275.5 430.318,-293.5 489.682,-293.5 489.682,-275.5 430.318,-275.5"/>
<text text-anchor="middle" x="460" y="-281.5" font-family="Helvetica,sans-Serif" font-size="10.00">Storage.h</text>
</a>
</g>
</g>
<!-- Node6&#45;&gt;Node20 -->
<g id="edge51" class="edge"><title>Node6&#45;&gt;Node20</title>
<path fill="none" stroke="midnightblue" d="M568.837,-440.357C562.146,-431.479 551.187,-416.822 542,-404 516.13,-367.894 486.704,-324.874 471.096,-301.896"/>
<polygon fill="midnightblue" stroke="midnightblue" points="473.987,-299.922 465.478,-293.61 468.193,-303.851 473.987,-299.922"/>
</g>
<!-- Node21 -->
<g id="node21" class="node"><title>Node21</title>
<g id="a_node21"><a xlink:href="$UARTDriver_8h.html" xlink:title="UARTDriver.h">
<polygon fill="white" stroke="black" points="622.248,-275.5 622.248,-293.5 699.752,-293.5 699.752,-275.5 622.248,-275.5"/>
<text text-anchor="middle" x="661" y="-281.5" font-family="Helvetica,sans-Serif" font-size="10.00">UARTDriver.h</text>
</a>
</g>
</g>
<!-- Node6&#45;&gt;Node21 -->
<g id="edge45" class="edge"><title>Node6&#45;&gt;Node21</title>
<path fill="none" stroke="midnightblue" d="M581.898,-440.347C589.007,-431.697 600.132,-417.449 608,-404 628.033,-369.756 645.577,-326.573 654.581,-302.938"/>
<polygon fill="midnightblue" stroke="midnightblue" points="657.865,-304.149 658.096,-293.557 651.31,-301.693 657.865,-304.149"/>
</g>
<!-- Node22 -->
<g id="node22" class="node"><title>Node22</title>
<g id="a_node22"><a xlink:href="$BetterStream_8h.html" xlink:title="utility/BetterStream.h">
<polygon fill="white" stroke="black" points="726.594,-220.5 726.594,-238.5 835.406,-238.5 835.406,-220.5 726.594,-220.5"/>
<text text-anchor="middle" x="781" y="-226.5" font-family="Helvetica,sans-Serif" font-size="10.00">utility/BetterStream.h</text>
</a>
</g>
</g>
<!-- Node6&#45;&gt;Node22 -->
<g id="edge67" class="edge"><title>Node6&#45;&gt;Node22</title>
<path fill="none" stroke="midnightblue" d="M627.288,-448.158C664.318,-445.046 712.47,-434.714 742,-404 783.332,-361.011 784.494,-284.116 782.575,-248.957"/>
<polygon fill="midnightblue" stroke="midnightblue" points="786.05,-248.474 781.859,-238.743 779.067,-248.964 786.05,-248.474"/>
</g>
<!-- Node24 -->
<g id="node24" class="node"><title>Node24</title>
<g id="a_node24"><a xlink:href="$Stream_8h.html" xlink:title="Stream.h">
<polygon fill="white" stroke="black" points="98.7144,-165.5 98.7144,-183.5 155.286,-183.5 155.286,-165.5 98.7144,-165.5"/>
<text text-anchor="middle" x="127" y="-171.5" font-family="Helvetica,sans-Serif" font-size="10.00">Stream.h</text>
</a>
</g>
</g>
<!-- Node6&#45;&gt;Node24 -->
<g id="edge66" class="edge"><title>Node6&#45;&gt;Node24</title>
<path fill="none" stroke="midnightblue" d="M522.922,-447.272C409.011,-444.048 145.722,-433.457 119,-404 91.3462,-373.516 113.744,-242.479 123.251,-193.8"/>
<polygon fill="midnightblue" stroke="midnightblue" points="126.727,-194.267 125.256,-183.775 119.863,-192.894 126.727,-194.267"/>
</g>
<!-- Node25 -->
<g id="node25" class="node"><title>Node25</title>
<g id="a_node25"><a xlink:href="$Print_8h.html" xlink:title="Print.h">
<polygon fill="white" stroke="black" points="42.5493,-110.5 42.5493,-128.5 87.4507,-128.5 87.4507,-110.5 42.5493,-110.5"/>
<text text-anchor="middle" x="65" y="-116.5" font-family="Helvetica,sans-Serif" font-size="10.00">Print.h</text>
</a>
</g>
</g>
<!-- Node6&#45;&gt;Node25 -->
<g id="edge65" class="edge"><title>Node6&#45;&gt;Node25</title>
<path fill="none" stroke="midnightblue" d="M522.731,-448.188C410.12,-446.831 148.299,-439.799 68,-404 30.2325,-387.163 0,-381.851 0,-340.5 0,-340.5 0,-340.5 0,-228.5 0,-190.994 29.1332,-155.301 48.3914,-135.804"/>
<polygon fill="midnightblue" stroke="midnightblue" points="50.9608,-138.187 55.6871,-128.705 46.0792,-133.17 50.9608,-138.187"/>
</g>
<!-- Node26 -->
<g id="node26" class="node"><title>Node26</title>
<g id="a_node26"><a xlink:href="$I2CDriver_8h.html" xlink:title="I2CDriver.h">
<polygon fill="white" stroke="black" points="414.99,-165.5 414.99,-183.5 481.01,-183.5 481.01,-165.5 414.99,-165.5"/>
<text text-anchor="middle" x="448" y="-171.5" font-family="Helvetica,sans-Serif" font-size="10.00">I2CDriver.h</text>
</a>
</g>
</g>
<!-- Node6&#45;&gt;Node26 -->
<g id="edge46" class="edge"><title>Node6&#45;&gt;Node26</title>
<path fill="none" stroke="midnightblue" d="M571.686,-440.467C561.398,-415.633 528.9,-337.978 499,-275 485.105,-245.732 467.649,-212.333 457.183,-192.631"/>
<polygon fill="midnightblue" stroke="midnightblue" points="460.198,-190.846 452.402,-183.671 454.022,-194.142 460.198,-190.846"/>
</g>
<!-- Node27 -->
<g id="node27" class="node"><title>Node27</title>
<g id="a_node27"><a xlink:href="$Scheduler_8h.html" xlink:title="Scheduler.h">
<polygon fill="white" stroke="black" points="920.589,-220.5 920.589,-238.5 989.411,-238.5 989.411,-220.5 920.589,-220.5"/>
<text text-anchor="middle" x="955" y="-226.5" font-family="Helvetica,sans-Serif" font-size="10.00">Scheduler.h</text>
</a>
</g>
</g>
<!-- Node6&#45;&gt;Node27 -->
<g id="edge55" class="edge"><title>Node6&#45;&gt;Node27</title>
<path fill="none" stroke="midnightblue" d="M626.928,-447.344C705.246,-444.59 848.636,-435.298 888,-404 937.261,-364.833 950.349,-284.735 953.79,-248.735"/>
<polygon fill="midnightblue" stroke="midnightblue" points="957.284,-248.954 954.602,-238.705 950.307,-248.39 957.284,-248.954"/>
</g>
<!-- Node28 -->
<g id="node28" class="node"><title>Node28</title>
<g id="a_node28"><a xlink:href="$Semaphores_8h.html" xlink:title="Semaphores.h">
<polygon fill="white" stroke="black" points="1055.48,-330.5 1055.48,-348.5 1136.52,-348.5 1136.52,-330.5 1055.48,-330.5"/>
<text text-anchor="middle" x="1096" y="-336.5" font-family="Helvetica,sans-Serif" font-size="10.00">Semaphores.h</text>
</a>
</g>
</g>
<!-- Node6&#45;&gt;Node28 -->
<g id="edge60" class="edge"><title>Node6&#45;&gt;Node28</title>
<path fill="none" stroke="midnightblue" d="M627.317,-448.337C733.455,-447.23 970.032,-440.596 1041,-404 1060.99,-393.691 1076.86,-372.758 1086.31,-357.743"/>
<polygon fill="midnightblue" stroke="midnightblue" points="1089.47,-359.283 1091.58,-348.901 1083.45,-355.701 1089.47,-359.283"/>
</g>
<!-- Node29 -->
<g id="node29" class="node"><title>Node29</title>
<g id="a_node29"><a xlink:href="$Util_8h.html" xlink:title="Util.h">
<polygon fill="white" stroke="black" points="1044.61,-220.5 1044.61,-238.5 1083.39,-238.5 1083.39,-220.5 1044.61,-220.5"/>
<text text-anchor="middle" x="1064" y="-226.5" font-family="Helvetica,sans-Serif" font-size="10.00">Util.h</text>
</a>
</g>
</g>
<!-- Node6&#45;&gt;Node29 -->
<g id="edge62" class="edge"><title>Node6&#45;&gt;Node29</title>
<path fill="none" stroke="midnightblue" d="M627.116,-446.04C708.89,-441.445 862.972,-429.611 911,-404 980.966,-366.691 1034.02,-283.731 1054.63,-247.727"/>
<polygon fill="midnightblue" stroke="midnightblue" points="1057.74,-249.33 1059.57,-238.894 1051.63,-245.914 1057.74,-249.33"/>
</g>
<!-- Node8 -->
<g id="node8" class="node"><title>Node8</title>
<polygon fill="white" stroke="#bfbfbf" points="159.604,-0.5 159.604,-18.5 208.396,-18.5 208.396,-0.5 159.604,-0.5"/>
<text text-anchor="middle" x="184" y="-6.5" font-family="Helvetica,sans-Serif" font-size="10.00">string.h</text>
</g>
<!-- Node7&#45;&gt;Node8 -->
<g id="edge9" class="edge"><title>Node7&#45;&gt;Node8</title>
<path fill="none" stroke="midnightblue" d="M356.169,-55.4504C319.006,-45.7478 256.75,-29.494 218.16,-19.4185"/>
<polygon fill="midnightblue" stroke="midnightblue" points="218.975,-16.0143 208.416,-16.8745 217.207,-22.7872 218.975,-16.0143"/>
</g>
<!-- Node9 -->
<g id="node9" class="node"><title>Node9</title>
<g id="a_node9"><a xlink:href="$functor_8h.html" xlink:title="utility/functor.h">
<polygon fill="white" stroke="black" points="347.037,-0.5 347.037,-18.5 426.963,-18.5 426.963,-0.5 347.037,-0.5"/>
<text text-anchor="middle" x="387" y="-6.5" font-family="Helvetica,sans-Serif" font-size="10.00">utility/functor.h</text>
</a>
</g>
</g>
<!-- Node7&#45;&gt;Node9 -->
<g id="edge10" class="edge"><title>Node7&#45;&gt;Node9</title>
<path fill="none" stroke="midnightblue" d="M387,-55.2188C387,-48.1769 387,-37.8083 387,-28.8277"/>
<polygon fill="midnightblue" stroke="midnightblue" points="390.5,-28.5495 387,-18.5496 383.5,-28.5496 390.5,-28.5495"/>
</g>
<!-- Node12&#45;&gt;Node13 -->
<g id="edge14" class="edge"><title>Node12&#45;&gt;Node13</title>
<path fill="none" stroke="midnightblue" d="M406.531,-385.219C406.133,-378.177 405.546,-367.808 405.037,-358.828"/>
<polygon fill="midnightblue" stroke="midnightblue" points="408.515,-358.336 404.456,-348.55 401.526,-358.731 408.515,-358.336"/>
</g>
<!-- Node13&#45;&gt;Node7 -->
<g id="edge15" class="edge"><title>Node13&#45;&gt;Node7</title>
<path fill="none" stroke="midnightblue" d="M403.076,-330.132C400.008,-301.878 390.175,-207.392 387,-129 386.385,-113.82 386.432,-96.5811 386.607,-83.8996"/>
<polygon fill="midnightblue" stroke="midnightblue" points="390.109,-83.7849 386.788,-73.7242 383.11,-83.6604 390.109,-83.7849"/>
</g>
<!-- Node13&#45;&gt;Node14 -->
<g id="edge16" class="edge"><title>Node13&#45;&gt;Node14</title>
<path fill="none" stroke="midnightblue" d="M381.739,-332.761C359.188,-326.147 324.139,-313.599 299,-294 282.529,-281.159 268.777,-261.35 260.274,-247.274"/>
<polygon fill="midnightblue" stroke="midnightblue" points="263.294,-245.505 255.257,-238.602 257.235,-249.01 263.294,-245.505"/>
</g>
<!-- Node13&#45;&gt;Node16 -->
<g id="edge19" class="edge"><title>Node13&#45;&gt;Node16</title>
<path fill="none" stroke="midnightblue" d="M425.695,-330.453C445.589,-322.593 475.447,-309.562 499,-294 520.222,-279.978 541.573,-259.882 555.237,-246.073"/>
<polygon fill="midnightblue" stroke="midnightblue" points="557.88,-248.376 562.335,-238.763 552.858,-243.5 557.88,-248.376"/>
</g>
<!-- Node13&#45;&gt;Node17 -->
<g id="edge22" class="edge"><title>Node13&#45;&gt;Node17</title>
<path fill="none" stroke="midnightblue" d="M381.894,-335.104C325.052,-326.372 173.142,-303.035 99.7738,-291.764"/>
<polygon fill="midnightblue" stroke="midnightblue" points="99.9551,-288.251 89.5396,-290.192 98.8921,-295.17 99.9551,-288.251"/>
</g>
<!-- Node13&#45;&gt;Node18 -->
<g id="edge24" class="edge"><title>Node13&#45;&gt;Node18</title>
<path fill="none" stroke="midnightblue" d="M381.703,-333.224C345.104,-324.565 271.624,-307.179 224.182,-295.954"/>
<polygon fill="midnightblue" stroke="midnightblue" points="224.722,-292.485 214.185,-293.588 223.11,-299.297 224.722,-292.485"/>
</g>
<!-- Node13&#45;&gt;Node19 -->
<g id="edge26" class="edge"><title>Node13&#45;&gt;Node19</title>
<path fill="none" stroke="midnightblue" d="M394.432,-330.45C384.903,-322.434 370.06,-309.947 358.433,-300.166"/>
<polygon fill="midnightblue" stroke="midnightblue" points="360.564,-297.385 350.658,-293.625 356.057,-302.741 360.564,-297.385"/>
</g>
<!-- Node13&#45;&gt;Node20 -->
<g id="edge28" class="edge"><title>Node13&#45;&gt;Node20</title>
<path fill="none" stroke="midnightblue" d="M412.75,-330.219C421.1,-322.316 433.876,-310.224 444.039,-300.606"/>
<polygon fill="midnightblue" stroke="midnightblue" points="446.638,-302.965 451.495,-293.55 441.826,-297.881 446.638,-302.965"/>
</g>
<!-- Node13&#45;&gt;Node21 -->
<g id="edge31" class="edge"><title>Node13&#45;&gt;Node21</title>
<path fill="none" stroke="midnightblue" d="M425.912,-333.981C466.936,-325.521 556.233,-307.106 612.199,-295.564"/>
<polygon fill="midnightblue" stroke="midnightblue" points="613.155,-298.941 622.242,-293.493 611.741,-292.085 613.155,-298.941"/>
</g>
<!-- Node14&#45;&gt;Node7 -->
<g id="edge18" class="edge"><title>Node14&#45;&gt;Node7</title>
<path fill="none" stroke="midnightblue" d="M252.114,-220.239C255.336,-199.288 266.463,-143.38 297,-110 310.898,-94.8081 331.132,-84.1614 348.897,-77.0999"/>
<polygon fill="midnightblue" stroke="midnightblue" points="350.306,-80.3099 358.456,-73.5396 347.863,-73.7501 350.306,-80.3099"/>
</g>
<!-- Node15 -->
<g id="node15" class="node"><title>Node15</title>
<polygon fill="white" stroke="#bfbfbf" points="89.5986,-55.5 89.5986,-73.5 148.401,-73.5 148.401,-55.5 89.5986,-55.5"/>
<text text-anchor="middle" x="119" y="-61.5" font-family="Helvetica,sans-Serif" font-size="10.00">inttypes.h</text>
</g>
<!-- Node14&#45;&gt;Node15 -->
<g id="edge17" class="edge"><title>Node14&#45;&gt;Node15</title>
<path fill="none" stroke="midnightblue" d="M244.273,-220.193C223.438,-194.466 159.726,-115.79 132.055,-81.6216"/>
<polygon fill="midnightblue" stroke="midnightblue" points="134.571,-79.1658 125.557,-73.5971 129.131,-83.5712 134.571,-79.1658"/>
</g>
<!-- Node16&#45;&gt;Node3 -->
<g id="edge20" class="edge"><title>Node16&#45;&gt;Node3</title>
<path fill="none" stroke="midnightblue" d="M576.84,-220.382C591.794,-202.635 627.635,-160.098 647.379,-136.666"/>
<polygon fill="midnightblue" stroke="midnightblue" points="650.314,-138.614 654.081,-128.712 644.961,-134.104 650.314,-138.614"/>
</g>
<!-- Node16&#45;&gt;Node7 -->
<g id="edge21" class="edge"><title>Node16&#45;&gt;Node7</title>
<path fill="none" stroke="midnightblue" d="M560.925,-220.417C531.96,-194.617 441.417,-113.97 403.725,-80.3973"/>
<polygon fill="midnightblue" stroke="midnightblue" points="405.925,-77.6697 396.13,-73.632 401.269,-82.8968 405.925,-77.6697"/>
</g>
<!-- Node17&#45;&gt;Node7 -->
<g id="edge23" class="edge"><title>Node17&#45;&gt;Node7</title>
<path fill="none" stroke="midnightblue" d="M59.0948,-275.423C59.7273,-254.904 63.9132,-199.927 90,-165 142.339,-94.925 246.147,-73.6272 316.091,-67.4763"/>
<polygon fill="midnightblue" stroke="midnightblue" points="316.464,-70.9577 326.154,-66.6747 315.908,-63.9798 316.464,-70.9577"/>
</g>
<!-- Node18&#45;&gt;Node7 -->
<g id="edge25" class="edge"><title>Node18&#45;&gt;Node7</title>
<path fill="none" stroke="midnightblue" d="M182.471,-275.276C191.14,-247.784 222.786,-158.102 280,-110 298.479,-94.4641 323.143,-83.7154 344.135,-76.6795"/>
<polygon fill="midnightblue" stroke="midnightblue" points="345.322,-79.975 353.793,-73.6118 343.202,-73.3035 345.322,-79.975"/>
</g>
<!-- Node19&#45;&gt;Node7 -->
<g id="edge27" class="edge"><title>Node19&#45;&gt;Node7</title>
<path fill="none" stroke="midnightblue" d="M338.277,-275.395C330.134,-249.7 308.152,-168.313 335,-110 340.823,-97.3517 352.212,-86.9584 362.85,-79.406"/>
<polygon fill="midnightblue" stroke="midnightblue" points="365.035,-82.1587 371.471,-73.7431 361.191,-76.308 365.035,-82.1587"/>
</g>
<!-- Node20&#45;&gt;Node3 -->
<g id="edge29" class="edge"><title>Node20&#45;&gt;Node3</title>
<path fill="none" stroke="midnightblue" d="M469.776,-275.205C484.186,-263.007 512.016,-239.561 536,-220 573.522,-189.398 617.993,-154.266 642.49,-135.011"/>
<polygon fill="midnightblue" stroke="midnightblue" points="644.859,-137.601 650.562,-128.673 640.535,-132.096 644.859,-137.601"/>
</g>
<!-- Node20&#45;&gt;Node7 -->
<g id="edge30" class="edge"><title>Node20&#45;&gt;Node7</title>
<path fill="none" stroke="midnightblue" d="M454.367,-275.424C443.217,-259.022 418.351,-220.281 406,-184 394.344,-149.76 389.759,-107.468 388.016,-83.7878"/>
<polygon fill="midnightblue" stroke="midnightblue" points="391.506,-83.5288 387.369,-73.7751 384.521,-83.9798 391.506,-83.5288"/>
</g>
<!-- Node21&#45;&gt;Node2 -->
<g id="edge33" class="edge"><title>Node21&#45;&gt;Node2</title>
<path fill="none" stroke="midnightblue" d="M699.855,-283.538C763.854,-282.476 894.645,-275.528 998,-239 1015.23,-232.91 1056.58,-206.115 1081.64,-189.337"/>
<polygon fill="midnightblue" stroke="midnightblue" points="1083.72,-192.155 1090.06,-183.666 1079.81,-186.349 1083.72,-192.155"/>
</g>
<!-- Node21&#45;&gt;Node3 -->
<g id="edge32" class="edge"><title>Node21&#45;&gt;Node3</title>
<path fill="none" stroke="midnightblue" d="M661,-275.193C661,-250.013 661,-174.114 661,-138.862"/>
<polygon fill="midnightblue" stroke="midnightblue" points="664.5,-138.597 661,-128.597 657.5,-138.597 664.5,-138.597"/>
</g>
<!-- Node21&#45;&gt;Node7 -->
<g id="edge34" class="edge"><title>Node21&#45;&gt;Node7</title>
<path fill="none" stroke="midnightblue" d="M654.414,-275.253C644.223,-262.711 623.743,-238.362 604,-220 545.544,-165.631 528.01,-154.898 462,-110 445.364,-98.6843 425.789,-87.1253 410.81,-78.6248"/>
<polygon fill="midnightblue" stroke="midnightblue" points="412.14,-75.3578 401.707,-73.5137 408.713,-81.4615 412.14,-75.3578"/>
</g>
<!-- Node21&#45;&gt;Node22 -->
<g id="edge35" class="edge"><title>Node21&#45;&gt;Node22</title>
<path fill="none" stroke="midnightblue" d="M679.225,-275.45C698.961,-266.734 730.666,-252.731 753.447,-242.669"/>
<polygon fill="midnightblue" stroke="midnightblue" points="754.87,-245.867 762.603,-238.625 752.041,-239.464 754.87,-245.867"/>
</g>
<!-- Node22&#45;&gt;Node2 -->
<g id="edge37" class="edge"><title>Node22&#45;&gt;Node2</title>
<path fill="none" stroke="midnightblue" d="M829.753,-220.45C887.071,-210.987 982.136,-195.291 1043.41,-185.174"/>
<polygon fill="midnightblue" stroke="midnightblue" points="1044.02,-188.621 1053.32,-183.538 1042.88,-181.714 1044.02,-188.621"/>
</g>
<!-- Node22&#45;&gt;Node7 -->
<g id="edge38" class="edge"><title>Node22&#45;&gt;Node7</title>
<path fill="none" stroke="midnightblue" d="M776.229,-220.436C761.637,-196.053 717.194,-123.926 694,-110 655.39,-86.8182 536.205,-74.9333 458.199,-69.4786"/>
<polygon fill="midnightblue" stroke="midnightblue" points="458.167,-65.9684 447.953,-68.7824 457.692,-72.9523 458.167,-65.9684"/>
</g>
<!-- Node23 -->
<g id="node23" class="node"><title>Node23</title>
<polygon fill="white" stroke="#bfbfbf" points="764.934,-165.5 764.934,-183.5 817.066,-183.5 817.066,-165.5 764.934,-165.5"/>
<text text-anchor="middle" x="791" y="-171.5" font-family="Helvetica,sans-Serif" font-size="10.00">stdarg.h</text>
</g>
<!-- Node22&#45;&gt;Node23 -->
<g id="edge36" class="edge"><title>Node22&#45;&gt;Node23</title>
<path fill="none" stroke="midnightblue" d="M782.562,-220.219C783.906,-213.099 785.891,-202.577 787.598,-193.529"/>
<polygon fill="midnightblue" stroke="midnightblue" points="791.066,-194.025 789.481,-183.55 784.188,-192.727 791.066,-194.025"/>
</g>
<!-- Node22&#45;&gt;Node24 -->
<g id="edge39" class="edge"><title>Node22&#45;&gt;Node24</title>
<path fill="none" stroke="midnightblue" d="M726.365,-224.072C597.441,-213.624 276.779,-187.638 165.649,-178.632"/>
<polygon fill="midnightblue" stroke="midnightblue" points="165.813,-175.134 155.562,-177.815 165.247,-182.111 165.813,-175.134"/>
</g>
<!-- Node24&#45;&gt;Node7 -->
<g id="edge40" class="edge"><title>Node24&#45;&gt;Node7</title>
<path fill="none" stroke="midnightblue" d="M136.026,-165.195C151.2,-151.669 183.282,-124.898 215,-110 250.041,-93.5408 292.069,-82.524 325.808,-75.5695"/>
<polygon fill="midnightblue" stroke="midnightblue" points="326.872,-78.9263 335.995,-73.5401 325.504,-72.0612 326.872,-78.9263"/>
</g>
<!-- Node24&#45;&gt;Node25 -->
<g id="edge41" class="edge"><title>Node24&#45;&gt;Node25</title>
<path fill="none" stroke="midnightblue" d="M117.584,-165.45C108.206,-157.434 93.5984,-144.947 82.1568,-135.166"/>
<polygon fill="midnightblue" stroke="midnightblue" points="84.3806,-132.463 74.5051,-128.625 79.8321,-137.784 84.3806,-132.463"/>
</g>
<!-- Node25&#45;&gt;Node7 -->
<g id="edge42" class="edge"><title>Node25&#45;&gt;Node7</title>
<path fill="none" stroke="midnightblue" d="M87.6424,-114.773C137.034,-106.643 255.803,-87.0945 328.014,-75.2089"/>
<polygon fill="midnightblue" stroke="midnightblue" points="329.018,-78.5909 338.316,-73.5131 327.881,-71.6838 329.018,-78.5909"/>
</g>
<!-- Node25&#45;&gt;Node8 -->
<g id="edge44" class="edge"><title>Node25&#45;&gt;Node8</title>
<path fill="none" stroke="midnightblue" d="M64.8613,-110.466C65.0605,-97.3294 67.2981,-71.1064 81,-55 98.4035,-34.5423 126.94,-23.2126 149.567,-17.1128"/>
<polygon fill="midnightblue" stroke="midnightblue" points="150.617,-20.4588 159.487,-14.6642 148.94,-13.6628 150.617,-20.4588"/>
</g>
<!-- Node25&#45;&gt;Node15 -->
<g id="edge43" class="edge"><title>Node25&#45;&gt;Node15</title>
<path fill="none" stroke="midnightblue" d="M73.4375,-110.219C81.4892,-102.316 93.8095,-90.2241 103.609,-80.6057"/>
<polygon fill="midnightblue" stroke="midnightblue" points="106.113,-83.0522 110.799,-73.5496 101.21,-78.0564 106.113,-83.0522"/>
</g>
<!-- Node26&#45;&gt;Node3 -->
<g id="edge47" class="edge"><title>Node26&#45;&gt;Node3</title>
<path fill="none" stroke="midnightblue" d="M480.35,-165.45C519.855,-155.621 586.383,-139.067 626.737,-129.025"/>
<polygon fill="midnightblue" stroke="midnightblue" points="627.787,-132.371 636.646,-126.56 626.096,-125.578 627.787,-132.371"/>
</g>
<!-- Node26&#45;&gt;Node7 -->
<g id="edge48" class="edge"><title>Node26&#45;&gt;Node7</title>
<path fill="none" stroke="midnightblue" d="M443.415,-165.382C433.524,-147.869 409.998,-106.218 396.661,-82.6045"/>
<polygon fill="midnightblue" stroke="midnightblue" points="399.604,-80.6976 391.638,-73.7118 393.509,-84.1402 399.604,-80.6976"/>
</g>
<!-- Node27&#45;&gt;Node2 -->
<g id="edge57" class="edge"><title>Node27&#45;&gt;Node2</title>
<path fill="none" stroke="midnightblue" d="M977.326,-220.45C1001.93,-211.578 1041.73,-197.229 1069.73,-187.134"/>
<polygon fill="midnightblue" stroke="midnightblue" points="1071.24,-190.31 1079.46,-183.625 1068.87,-183.725 1071.24,-190.31"/>
</g>
<!-- Node27&#45;&gt;Node3 -->
<g id="edge56" class="edge"><title>Node27&#45;&gt;Node3</title>
<path fill="none" stroke="midnightblue" d="M956.309,-220.128C957.917,-206.506 958.829,-179.6 944,-165 909.434,-130.967 763.235,-122.962 695.594,-121.079"/>
<polygon fill="midnightblue" stroke="midnightblue" points="695.526,-117.576 685.442,-120.826 695.352,-124.574 695.526,-117.576"/>
</g>
<!-- Node27&#45;&gt;Node7 -->
<g id="edge59" class="edge"><title>Node27&#45;&gt;Node7</title>
<path fill="none" stroke="midnightblue" d="M959.555,-220.479C966.33,-207.36 976.948,-181.163 964,-165 901.88,-87.4578 598.185,-70.3211 458.073,-66.5523"/>
<polygon fill="midnightblue" stroke="midnightblue" points="457.954,-63.0483 447.868,-66.2938 457.776,-70.046 457.954,-63.0483"/>
</g>
<!-- Node27&#45;&gt;Node10 -->
<g id="edge58" class="edge"><title>Node27&#45;&gt;Node10</title>
<path fill="none" stroke="midnightblue" d="M944.369,-220.45C933.679,-212.357 916.968,-199.704 903.995,-189.882"/>
<polygon fill="midnightblue" stroke="midnightblue" points="905.817,-186.871 895.732,-183.625 901.591,-192.452 905.817,-186.871"/>
</g>
<!-- Node28&#45;&gt;Node7 -->
<g id="edge61" class="edge"><title>Node28&#45;&gt;Node7</title>
<path fill="none" stroke="midnightblue" d="M1136.61,-332.82C1190.53,-322.729 1279,-296.166 1279,-230.5 1279,-230.5 1279,-230.5 1279,-173.5 1279,-130.162 1245.22,-126.146 1205,-110 1136.75,-82.6006 644.788,-70.4267 458.359,-66.7616"/>
<polygon fill="midnightblue" stroke="midnightblue" points="458.184,-63.2576 448.118,-66.5628 458.049,-70.2563 458.184,-63.2576"/>
</g>
<!-- Node29&#45;&gt;Node7 -->
<g id="edge64" class="edge"><title>Node29&#45;&gt;Node7</title>
<path fill="none" stroke="midnightblue" d="M1083.41,-227.743C1111.11,-225.494 1161.16,-216.832 1184,-184 1202.78,-157.002 1206.6,-133.895 1184,-110 1159.25,-83.8307 648.942,-70.8154 458.148,-66.85"/>
<polygon fill="midnightblue" stroke="midnightblue" points="458.016,-63.3466 447.946,-66.6402 457.872,-70.3451 458.016,-63.3466"/>
</g>
<!-- Node29&#45;&gt;Node23 -->
<g id="edge63" class="edge"><title>Node29&#45;&gt;Node23</title>
<path fill="none" stroke="midnightblue" d="M1044.49,-225.216C1005.28,-218.538 913.881,-202.587 827.322,-184.193"/>
<polygon fill="midnightblue" stroke="midnightblue" points="827.85,-180.727 817.339,-182.056 826.384,-187.572 827.85,-180.727"/>
</g>
<!-- Node30&#45;&gt;Node2 -->
<g id="edge70" class="edge"><title>Node30&#45;&gt;Node2</title>
<path fill="none" stroke="midnightblue" d="M1264.38,-440.257C1244.35,-423.698 1203,-384.217 1203,-340.5 1203,-340.5 1203,-340.5 1203,-283.5 1203,-253.329 1198.53,-242.997 1179,-220 1166.92,-205.771 1149.07,-195.056 1133.6,-187.71"/>
<polygon fill="midnightblue" stroke="midnightblue" points="1134.91,-184.46 1124.35,-183.57 1132.05,-190.85 1134.91,-184.46"/>
</g>
</g>
</svg>
