<?xml version="1.0" encoding="UTF-8" standalone="no"?>
<!DOCTYPE svg PUBLIC "-//W3C//DTD SVG 1.1//EN"
 "http://www.w3.org/Graphics/SVG/1.1/DTD/svg11.dtd">
<!-- Generated by graphviz version 2.38.0 (20140413.2041)
 -->
<!-- Title: libraries/AP_ADC/AP_ADC_ADS7844.h Pages: 1 -->
<svg width="2500pt" height="327pt"
 viewBox="0.00 0.00 2499.77 327.00" xmlns="http://www.w3.org/2000/svg" xmlns:xlink="http://www.w3.org/1999/xlink">
<g id="graph0" class="graph" transform="scale(1 1) rotate(0) translate(4 323)">
<title>libraries/AP_ADC/AP_ADC_ADS7844.h</title>
<polygon fill="white" stroke="none" points="-4,4 -4,-323 2495.77,-323 2495.77,4 -4,4"/>
<!-- Node1 -->
<g id="node1" class="node"><title>Node1</title>
<polygon fill="#bfbfbf" stroke="black" points="1260,-290.5 1260,-318.5 1369.92,-318.5 1369.92,-290.5 1260,-290.5"/>
<text text-anchor="start" x="1268" y="-306.5" font-family="Helvetica,sans-Serif" font-size="10.00">libraries/AP_ADC/AP</text>
<text text-anchor="middle" x="1314.96" y="-296.5" font-family="Helvetica,sans-Serif" font-size="10.00">_ADC_ADS7844.h</text>
</g>
<!-- Node2 -->
<g id="node2" class="node"><title>Node2</title>
<g id="a_node2"><a xlink:href="$AP__ADC_8h.html" xlink:title="libraries/AP_ADC/AP\l_ADC.h">
<polygon fill="white" stroke="black" points="1260,-225.5 1260,-253.5 1369.92,-253.5 1369.92,-225.5 1260,-225.5"/>
<text text-anchor="start" x="1268" y="-241.5" font-family="Helvetica,sans-Serif" font-size="10.00">libraries/AP_ADC/AP</text>
<text text-anchor="middle" x="1314.96" y="-231.5" font-family="Helvetica,sans-Serif" font-size="10.00">_ADC.h</text>
</a>
</g>
</g>
<!-- Node1&#45;&gt;Node2 -->
<g id="edge1" class="edge"><title>Node1&#45;&gt;Node2</title>
<path fill="none" stroke="midnightblue" d="M1308.43,-280.46C1307.95,-271.388 1308.26,-261.305 1309.37,-253.537"/>
<polygon fill="midnightblue" stroke="midnightblue" points="1304.95,-280.817 1309.37,-290.446 1311.92,-280.163 1304.95,-280.817"/>
</g>
<!-- Node31 -->
<g id="node31" class="node"><title>Node31</title>
<g id="a_node31"><a xlink:href="$AP__ADC__ADS7844_8cpp.html" xlink:title="libraries/AP_ADC/AP\l_ADC_ADS7844.cpp">
<polygon fill="white" stroke="black" points="1387.99,-225.5 1387.99,-253.5 1497.93,-253.5 1497.93,-225.5 1387.99,-225.5"/>
<text text-anchor="start" x="1395.99" y="-241.5" font-family="Helvetica,sans-Serif" font-size="10.00">libraries/AP_ADC/AP</text>
<text text-anchor="middle" x="1442.96" y="-231.5" font-family="Helvetica,sans-Serif" font-size="10.00">_ADC_ADS7844.cpp</text>
</a>
</g>
</g>
<!-- Node1&#45;&gt;Node31 -->
<g id="edge44" class="edge"><title>Node1&#45;&gt;Node31</title>
<path fill="none" stroke="midnightblue" d="M1350.67,-285.922C1371.54,-275.652 1397.43,-262.909 1416.47,-253.537"/>
<polygon fill="midnightblue" stroke="midnightblue" points="1348.91,-282.89 1341.48,-290.446 1352,-289.171 1348.91,-282.89"/>
</g>
<!-- Node2&#45;&gt;Node1 -->
<g id="edge3" class="edge"><title>Node2&#45;&gt;Node1</title>
<path fill="none" stroke="midnightblue" d="M1321.49,-263.52C1321.97,-272.591 1321.66,-282.675 1320.55,-290.446"/>
<polygon fill="midnightblue" stroke="midnightblue" points="1324.97,-263.166 1320.55,-253.537 1318,-263.82 1324.97,-263.166"/>
</g>
<!-- Node3 -->
<g id="node3" class="node"><title>Node3</title>
<g id="a_node3"><a xlink:href="$AP__ADC_8cpp.html" xlink:title="libraries/AP_ADC/AP\l_ADC.cpp">
<polygon fill="white" stroke="black" points="497,-155.5 497,-183.5 606.921,-183.5 606.921,-155.5 497,-155.5"/>
<text text-anchor="start" x="505" y="-171.5" font-family="Helvetica,sans-Serif" font-size="10.00">libraries/AP_ADC/AP</text>
<text text-anchor="middle" x="551.96" y="-161.5" font-family="Helvetica,sans-Serif" font-size="10.00">_ADC.cpp</text>
</a>
</g>
</g>
<!-- Node2&#45;&gt;Node3 -->
<g id="edge2" class="edge"><title>Node2&#45;&gt;Node3</title>
<path fill="none" stroke="midnightblue" d="M1249.53,-238.442C1125.13,-237.325 846.344,-229.982 615.96,-189 608.217,-187.623 600.072,-185.672 592.284,-183.549"/>
<polygon fill="midnightblue" stroke="midnightblue" points="1249.62,-241.943 1259.65,-238.522 1249.68,-234.943 1249.62,-241.943"/>
</g>
<!-- Node4 -->
<g id="node4" class="node"><title>Node4</title>
<g id="a_node4"><a xlink:href="$AP__ADC__ADS1115_8h.html" xlink:title="libraries/AP_ADC/AP\l_ADC_ADS1115.h">
<polygon fill="white" stroke="black" points="625,-155.5 625,-183.5 734.921,-183.5 734.921,-155.5 625,-155.5"/>
<text text-anchor="start" x="633" y="-171.5" font-family="Helvetica,sans-Serif" font-size="10.00">libraries/AP_ADC/AP</text>
<text text-anchor="middle" x="679.96" y="-161.5" font-family="Helvetica,sans-Serif" font-size="10.00">_ADC_ADS1115.h</text>
</a>
</g>
</g>
<!-- Node2&#45;&gt;Node4 -->
<g id="edge4" class="edge"><title>Node2&#45;&gt;Node4</title>
<path fill="none" stroke="midnightblue" d="M1249.72,-237.142C1141.6,-233.92 919.285,-223.291 734.96,-189 727.342,-187.583 719.327,-185.64 711.807,-183.544"/>
<polygon fill="midnightblue" stroke="midnightblue" points="1249.73,-240.643 1259.82,-237.431 1249.93,-233.646 1249.73,-240.643"/>
</g>
<!-- Node6 -->
<g id="node6" class="node"><title>Node6</title>
<g id="a_node6"><a xlink:href="$AP__ADC__test_8cpp.html" xlink:title="libraries/AP_ADC/examples\l/AP_ADC_test/AP_ADC_test.cpp">
<polygon fill="white" stroke="black" points="753.037,-155.5 753.037,-183.5 916.884,-183.5 916.884,-155.5 753.037,-155.5"/>
<text text-anchor="start" x="761.037" y="-171.5" font-family="Helvetica,sans-Serif" font-size="10.00">libraries/AP_ADC/examples</text>
<text text-anchor="middle" x="834.96" y="-161.5" font-family="Helvetica,sans-Serif" font-size="10.00">/AP_ADC_test/AP_ADC_test.cpp</text>
</a>
</g>
</g>
<!-- Node2&#45;&gt;Node6 -->
<g id="edge7" class="edge"><title>Node2&#45;&gt;Node6</title>
<path fill="none" stroke="midnightblue" d="M1249.83,-231.354C1173.3,-222.669 1042.59,-206.933 930.96,-189 920.822,-187.371 910.113,-185.479 899.671,-183.539"/>
<polygon fill="midnightblue" stroke="midnightblue" points="1249.47,-234.836 1259.8,-232.481 1250.26,-227.88 1249.47,-234.836"/>
</g>
<!-- Node7 -->
<g id="node7" class="node"><title>Node7</title>
<g id="a_node7"><a xlink:href="$AP__ADC__AnalogSource_8h.html" xlink:title="libraries/AP_ADC_AnalogSource\l/AP_ADC_AnalogSource.h">
<polygon fill="white" stroke="black" points="1124.87,-155.5 1124.87,-183.5 1287.05,-183.5 1287.05,-155.5 1124.87,-155.5"/>
<text text-anchor="start" x="1132.87" y="-171.5" font-family="Helvetica,sans-Serif" font-size="10.00">libraries/AP_ADC_AnalogSource</text>
<text text-anchor="middle" x="1205.96" y="-161.5" font-family="Helvetica,sans-Serif" font-size="10.00">/AP_ADC_AnalogSource.h</text>
</a>
</g>
</g>
<!-- Node2&#45;&gt;Node7 -->
<g id="edge8" class="edge"><title>Node2&#45;&gt;Node7</title>
<path fill="none" stroke="midnightblue" d="M1285.31,-220.002C1266.82,-208.469 1243.48,-193.908 1226.91,-183.571"/>
<polygon fill="midnightblue" stroke="midnightblue" points="1283.61,-223.065 1293.94,-225.389 1287.31,-217.126 1283.61,-223.065"/>
</g>
<!-- Node9 -->
<g id="node9" class="node"><title>Node9</title>
<g id="a_node9"><a xlink:href="$AHRS__Test_8cpp.html" xlink:title="libraries/AP_AHRS/examples\l/AHRS_Test/AHRS_Test.cpp">
<polygon fill="white" stroke="black" points="127.936,-75.5 127.936,-103.5 273.985,-103.5 273.985,-75.5 127.936,-75.5"/>
<text text-anchor="start" x="135.936" y="-91.5" font-family="Helvetica,sans-Serif" font-size="10.00">libraries/AP_AHRS/examples</text>
<text text-anchor="middle" x="200.96" y="-81.5" font-family="Helvetica,sans-Serif" font-size="10.00">/AHRS_Test/AHRS_Test.cpp</text>
</a>
</g>
</g>
<!-- Node2&#45;&gt;Node9 -->
<g id="edge23" class="edge"><title>Node2&#45;&gt;Node9</title>
<path fill="none" stroke="midnightblue" d="M1249.43,-234.971C1160.64,-229.249 1007.6,-215.782 958.96,-189 939.071,-178.048 946.284,-160.126 925.96,-150 797.866,-86.179 424.07,-137.862 282.96,-114 268.651,-111.58 253.28,-107.569 239.758,-103.54"/>
<polygon fill="midnightblue" stroke="midnightblue" points="1249.47,-238.48 1259.67,-235.614 1249.91,-231.493 1249.47,-238.48"/>
</g>
<!-- Node10 -->
<g id="node10" class="node"><title>Node10</title>
<g id="a_node10"><a xlink:href="$AP__Airspeed__analog_8cpp.html" xlink:title="libraries/AP_Airspeed\l/AP_Airspeed_analog.cpp">
<polygon fill="white" stroke="black" points="292.141,-75.5 292.141,-103.5 423.78,-103.5 423.78,-75.5 292.141,-75.5"/>
<text text-anchor="start" x="300.141" y="-91.5" font-family="Helvetica,sans-Serif" font-size="10.00">libraries/AP_Airspeed</text>
<text text-anchor="middle" x="357.96" y="-81.5" font-family="Helvetica,sans-Serif" font-size="10.00">/AP_Airspeed_analog.cpp</text>
</a>
</g>
</g>
<!-- Node2&#45;&gt;Node10 -->
<g id="edge25" class="edge"><title>Node2&#45;&gt;Node10</title>
<path fill="none" stroke="midnightblue" d="M1249.54,-233.221C1169.65,-225.934 1039.85,-211.131 996.96,-189 975.454,-177.902 980.924,-160.162 958.96,-150 852.629,-100.801 548.102,-135.666 432.96,-114 419.953,-111.552 406.035,-107.586 393.764,-103.603"/>
<polygon fill="midnightblue" stroke="midnightblue" points="1249.72,-236.751 1259.99,-234.157 1250.34,-229.779 1249.72,-236.751"/>
</g>
<!-- Node11 -->
<g id="node11" class="node"><title>Node11</title>
<g id="a_node11"><a xlink:href="$Airspeed_8cpp.html" xlink:title="libraries/AP_Airspeed\l/examples/Airspeed/Airspeed.cpp">
<polygon fill="white" stroke="black" points="441.476,-75.5 441.476,-103.5 606.445,-103.5 606.445,-75.5 441.476,-75.5"/>
<text text-anchor="start" x="449.476" y="-91.5" font-family="Helvetica,sans-Serif" font-size="10.00">libraries/AP_Airspeed</text>
<text text-anchor="middle" x="523.96" y="-81.5" font-family="Helvetica,sans-Serif" font-size="10.00">/examples/Airspeed/Airspeed.cpp</text>
</a>
</g>
</g>
<!-- Node2&#45;&gt;Node11 -->
<g id="edge26" class="edge"><title>Node2&#45;&gt;Node11</title>
<path fill="none" stroke="midnightblue" d="M1249.58,-238.147C1190.37,-235.312 1102.36,-224.665 1034.96,-189 1013.57,-177.681 1018.79,-160.443 996.96,-150 920.042,-113.207 698.948,-128.706 614.96,-114 599.692,-111.326 583.224,-107.401 568.549,-103.521"/>
<polygon fill="midnightblue" stroke="midnightblue" points="1249.78,-241.659 1259.92,-238.577 1250.08,-234.665 1249.78,-241.659"/>
</g>
<!-- Node12 -->
<g id="node12" class="node"><title>Node12</title>
<g id="a_node12"><a xlink:href="$AP__BattMonitor__Analog_8h.html" xlink:title="libraries/AP_BattMonitor\l/AP_BattMonitor_Analog.h">
<polygon fill="white" stroke="black" points="624.035,-75.5 624.035,-103.5 757.886,-103.5 757.886,-75.5 624.035,-75.5"/>
<text text-anchor="start" x="632.035" y="-91.5" font-family="Helvetica,sans-Serif" font-size="10.00">libraries/AP_BattMonitor</text>
<text text-anchor="middle" x="690.96" y="-81.5" font-family="Helvetica,sans-Serif" font-size="10.00">/AP_BattMonitor_Analog.h</text>
</a>
</g>
</g>
<!-- Node2&#45;&gt;Node12 -->
<g id="edge27" class="edge"><title>Node2&#45;&gt;Node12</title>
<path fill="none" stroke="midnightblue" d="M1249.69,-235.56C1198.84,-230.891 1127.88,-219.01 1072.96,-189 1051.72,-177.396 1056.58,-160.873 1034.96,-150 927.592,-96.0054 884.33,-139.841 766.96,-114 754.417,-111.238 740.957,-107.382 728.902,-103.59"/>
<polygon fill="midnightblue" stroke="midnightblue" points="1249.64,-239.068 1259.9,-236.425 1250.24,-232.093 1249.64,-239.068"/>
</g>
<!-- Node15 -->
<g id="node15" class="node"><title>Node15</title>
<g id="a_node15"><a xlink:href="$GPS__AUTO__test_8cpp.html" xlink:title="libraries/AP_GPS/examples\l/GPS_AUTO_test/GPS_AUTO\l_test.cpp">
<polygon fill="white" stroke="black" points="776.06,-70.5 776.06,-108.5 927.861,-108.5 927.861,-70.5 776.06,-70.5"/>
<text text-anchor="start" x="784.06" y="-96.5" font-family="Helvetica,sans-Serif" font-size="10.00">libraries/AP_GPS/examples</text>
<text text-anchor="start" x="784.06" y="-86.5" font-family="Helvetica,sans-Serif" font-size="10.00">/GPS_AUTO_test/GPS_AUTO</text>
<text text-anchor="middle" x="851.96" y="-76.5" font-family="Helvetica,sans-Serif" font-size="10.00">_test.cpp</text>
</a>
</g>
</g>
<!-- Node2&#45;&gt;Node15 -->
<g id="edge28" class="edge"><title>Node2&#45;&gt;Node15</title>
<path fill="none" stroke="midnightblue" d="M1249.99,-230.6C1209.62,-223.736 1157.66,-211.252 1115.96,-189 1093.2,-176.852 1095.63,-162.318 1072.96,-150 1018.02,-120.149 997.316,-130.331 936.96,-114 930.458,-112.24 923.679,-110.392 916.912,-108.536"/>
<polygon fill="midnightblue" stroke="midnightblue" points="1249.56,-234.076 1259.99,-232.227 1250.68,-227.167 1249.56,-234.076"/>
</g>
<!-- Node16 -->
<g id="node16" class="node"><title>Node16</title>
<g id="a_node16"><a xlink:href="$GPS__UBLOX__passthrough_8cpp.html" xlink:title="libraries/AP_GPS/examples\l/GPS_UBLOX_passthrough\l/GPS_UBLOX_passthrough.cpp">
<polygon fill="white" stroke="black" points="1126.53,-70.5 1126.53,-108.5 1285.39,-108.5 1285.39,-70.5 1126.53,-70.5"/>
<text text-anchor="start" x="1134.53" y="-96.5" font-family="Helvetica,sans-Serif" font-size="10.00">libraries/AP_GPS/examples</text>
<text text-anchor="start" x="1134.53" y="-86.5" font-family="Helvetica,sans-Serif" font-size="10.00">/GPS_UBLOX_passthrough</text>
<text text-anchor="middle" x="1205.96" y="-76.5" font-family="Helvetica,sans-Serif" font-size="10.00">/GPS_UBLOX_passthrough.cpp</text>
</a>
</g>
</g>
<!-- Node2&#45;&gt;Node16 -->
<g id="edge29" class="edge"><title>Node2&#45;&gt;Node16</title>
<path fill="none" stroke="midnightblue" d="M1314.69,-215.099C1313.42,-196.072 1309.15,-169.311 1295.96,-150 1283.81,-132.21 1264.42,-118.397 1246.74,-108.577"/>
<polygon fill="midnightblue" stroke="midnightblue" points="1311.2,-215.455 1315.14,-225.293 1318.2,-215.15 1311.2,-215.455"/>
</g>
<!-- Node17 -->
<g id="node17" class="node"><title>Node17</title>
<g id="a_node17"><a xlink:href="$INS__generic_8cpp.html" xlink:title="libraries/AP_InertialSensor\l/examples/INS_generic/INS\l_generic.cpp">
<polygon fill="white" stroke="black" points="1303.54,-70.5 1303.54,-108.5 1442.38,-108.5 1442.38,-70.5 1303.54,-70.5"/>
<text text-anchor="start" x="1311.54" y="-96.5" font-family="Helvetica,sans-Serif" font-size="10.00">libraries/AP_InertialSensor</text>
<text text-anchor="start" x="1311.54" y="-86.5" font-family="Helvetica,sans-Serif" font-size="10.00">/examples/INS_generic/INS</text>
<text text-anchor="middle" x="1372.96" y="-76.5" font-family="Helvetica,sans-Serif" font-size="10.00">_generic.cpp</text>
</a>
</g>
</g>
<!-- Node2&#45;&gt;Node17 -->
<g id="edge39" class="edge"><title>Node2&#45;&gt;Node17</title>
<path fill="none" stroke="midnightblue" d="M1323.8,-215.956C1335.29,-186.628 1355.15,-135.946 1365.77,-108.845"/>
<polygon fill="midnightblue" stroke="midnightblue" points="1320.5,-214.778 1320.11,-225.366 1327.02,-217.332 1320.5,-214.778"/>
</g>
<!-- Node18 -->
<g id="node18" class="node"><title>Node18</title>
<g id="a_node18"><a xlink:href="$VibTest_8cpp.html" xlink:title="libraries/AP_InertialSensor\l/examples/VibTest/VibTest.cpp">
<polygon fill="white" stroke="black" points="1460.33,-75.5 1460.33,-103.5 1611.59,-103.5 1611.59,-75.5 1460.33,-75.5"/>
<text text-anchor="start" x="1468.33" y="-91.5" font-family="Helvetica,sans-Serif" font-size="10.00">libraries/AP_InertialSensor</text>
<text text-anchor="middle" x="1535.96" y="-81.5" font-family="Helvetica,sans-Serif" font-size="10.00">/examples/VibTest/VibTest.cpp</text>
</a>
</g>
</g>
<!-- Node2&#45;&gt;Node18 -->
<g id="edge40" class="edge"><title>Node2&#45;&gt;Node18</title>
<path fill="none" stroke="midnightblue" d="M1334.9,-217.923C1354.19,-198.763 1384.84,-170.201 1414.96,-150 1443.25,-131.029 1478.47,-114.402 1503.6,-103.583"/>
<polygon fill="midnightblue" stroke="midnightblue" points="1332.18,-215.7 1327.61,-225.26 1337.14,-220.635 1332.18,-215.7"/>
</g>
<!-- Node19 -->
<g id="node19" class="node"><title>Node19</title>
<g id="a_node19"><a xlink:href="$AP__Motors__test_8cpp.html" xlink:title="libraries/AP_Motors\l/examples/AP_Motors\l_test/AP_Motors_test.cpp">
<polygon fill="white" stroke="black" points="1629.71,-70.5 1629.71,-108.5 1760.21,-108.5 1760.21,-70.5 1629.71,-70.5"/>
<text text-anchor="start" x="1637.71" y="-96.5" font-family="Helvetica,sans-Serif" font-size="10.00">libraries/AP_Motors</text>
<text text-anchor="start" x="1637.71" y="-86.5" font-family="Helvetica,sans-Serif" font-size="10.00">/examples/AP_Motors</text>
<text text-anchor="middle" x="1694.96" y="-76.5" font-family="Helvetica,sans-Serif" font-size="10.00">_test/AP_Motors_test.cpp</text>
</a>
</g>
</g>
<!-- Node2&#45;&gt;Node19 -->
<g id="edge41" class="edge"><title>Node2&#45;&gt;Node19</title>
<path fill="none" stroke="midnightblue" d="M1350.68,-220.745C1367.56,-211.884 1387.74,-200.597 1404.96,-189 1427.76,-173.648 1428.17,-161.874 1452.96,-150 1521.83,-117.012 1547.15,-133.579 1620.96,-114 1627.21,-112.341 1633.72,-110.478 1640.18,-108.546"/>
<polygon fill="midnightblue" stroke="midnightblue" points="1348.96,-217.698 1341.69,-225.405 1352.18,-223.914 1348.96,-217.698"/>
</g>
<!-- Node20 -->
<g id="node20" class="node"><title>Node20</title>
<g id="a_node20"><a xlink:href="$AP__Motors__Time__test_8cpp.html" xlink:title="libraries/AP_Motors\l/examples/AP_Motors\l_Time_test/AP_Motors\l_Time_test.cpp">
<polygon fill="white" stroke="black" points="1778.29,-65.5 1778.29,-113.5 1895.63,-113.5 1895.63,-65.5 1778.29,-65.5"/>
<text text-anchor="start" x="1786.29" y="-101.5" font-family="Helvetica,sans-Serif" font-size="10.00">libraries/AP_Motors</text>
<text text-anchor="start" x="1786.29" y="-91.5" font-family="Helvetica,sans-Serif" font-size="10.00">/examples/AP_Motors</text>
<text text-anchor="start" x="1786.29" y="-81.5" font-family="Helvetica,sans-Serif" font-size="10.00">_Time_test/AP_Motors</text>
<text text-anchor="middle" x="1836.96" y="-71.5" font-family="Helvetica,sans-Serif" font-size="10.00">_Time_test.cpp</text>
</a>
</g>
</g>
<!-- Node2&#45;&gt;Node20 -->
<g id="edge42" class="edge"><title>Node2&#45;&gt;Node20</title>
<path fill="none" stroke="midnightblue" d="M1368.12,-222.149C1391.82,-213.813 1419.59,-202.555 1442.96,-189 1466.74,-175.207 1465.7,-160.844 1490.96,-150 1605.44,-100.848 1647.68,-142.495 1768.96,-114 1772,-113.286 1775.1,-112.487 1778.2,-111.627"/>
<polygon fill="midnightblue" stroke="midnightblue" points="1366.9,-218.867 1358.58,-225.427 1369.18,-225.488 1366.9,-218.867"/>
</g>
<!-- Node21 -->
<g id="node21" class="node"><title>Node21</title>
<g id="a_node21"><a xlink:href="$trivial__AP__Mount_8cpp.html" xlink:title="libraries/AP_Mount\l/examples/trivial_AP\l_Mount/trivial_AP_Mount.cpp">
<polygon fill="white" stroke="black" points="1913.65,-70.5 1913.65,-108.5 2060.27,-108.5 2060.27,-70.5 1913.65,-70.5"/>
<text text-anchor="start" x="1921.65" y="-96.5" font-family="Helvetica,sans-Serif" font-size="10.00">libraries/AP_Mount</text>
<text text-anchor="start" x="1921.65" y="-86.5" font-family="Helvetica,sans-Serif" font-size="10.00">/examples/trivial_AP</text>
<text text-anchor="middle" x="1986.96" y="-76.5" font-family="Helvetica,sans-Serif" font-size="10.00">_Mount/trivial_AP_Mount.cpp</text>
</a>
</g>
</g>
<!-- Node2&#45;&gt;Node21 -->
<g id="edge43" class="edge"><title>Node2&#45;&gt;Node21</title>
<path fill="none" stroke="midnightblue" d="M1377.67,-222.89C1416.8,-212.56 1463.03,-199.107 1480.96,-189 1503.44,-176.332 1500.35,-160.413 1523.96,-150 1679.58,-81.3551 1737.83,-145.564 1904.96,-114 1912.82,-112.516 1921.01,-110.612 1929.04,-108.532"/>
<polygon fill="midnightblue" stroke="midnightblue" points="1376.69,-219.529 1367.9,-225.445 1378.46,-226.302 1376.69,-219.529"/>
</g>
<!-- Node22 -->
<g id="node22" class="node"><title>Node22</title>
<g id="a_node22"><a xlink:href="$AP__Airspeed_8cpp.html" xlink:title="libraries/AP_Airspeed\l/AP_Airspeed.cpp">
<polygon fill="white" stroke="black" points="1532.88,-155.5 1532.88,-183.5 1645.04,-183.5 1645.04,-155.5 1532.88,-155.5"/>
<text text-anchor="start" x="1540.88" y="-171.5" font-family="Helvetica,sans-Serif" font-size="10.00">libraries/AP_Airspeed</text>
<text text-anchor="middle" x="1588.96" y="-161.5" font-family="Helvetica,sans-Serif" font-size="10.00">/AP_Airspeed.cpp</text>
</a>
</g>
</g>
<!-- Node2&#45;&gt;Node22 -->
<g id="edge24" class="edge"><title>Node2&#45;&gt;Node22</title>
<path fill="none" stroke="midnightblue" d="M1379.94,-223.09C1420.05,-213.487 1472.55,-200.762 1518.96,-189 1525.78,-187.271 1532.97,-185.413 1540.04,-183.565"/>
<polygon fill="midnightblue" stroke="midnightblue" points="1378.93,-219.732 1370.02,-225.461 1380.56,-226.54 1378.93,-219.732"/>
</g>
<!-- Node23 -->
<g id="node23" class="node"><title>Node23</title>
<g id="a_node23"><a xlink:href="$AP__Baro__BMP085__test_8cpp.html" xlink:title="libraries/AP_HAL_FLYMAPLE\l/examples/AP_Baro_BMP085\l_test/AP_Baro_BMP085_test.cpp">
<polygon fill="white" stroke="black" points="1663.47,-150.5 1663.47,-188.5 1828.45,-188.5 1828.45,-150.5 1663.47,-150.5"/>
<text text-anchor="start" x="1671.47" y="-176.5" font-family="Helvetica,sans-Serif" font-size="10.00">libraries/AP_HAL_FLYMAPLE</text>
<text text-anchor="start" x="1671.47" y="-166.5" font-family="Helvetica,sans-Serif" font-size="10.00">/examples/AP_Baro_BMP085</text>
<text text-anchor="middle" x="1745.96" y="-156.5" font-family="Helvetica,sans-Serif" font-size="10.00">_test/AP_Baro_BMP085_test.cpp</text>
</a>
</g>
</g>
<!-- Node2&#45;&gt;Node23 -->
<g id="edge30" class="edge"><title>Node2&#45;&gt;Node23</title>
<path fill="none" stroke="midnightblue" d="M1380.18,-224.882C1502.21,-204.505 1535.56,-208.63 1653.96,-189 1657.01,-188.494 1660.12,-187.961 1663.26,-187.408"/>
<polygon fill="midnightblue" stroke="midnightblue" points="1379.34,-221.474 1370.07,-226.592 1380.51,-228.376 1379.34,-221.474"/>
</g>
<!-- Node24 -->
<g id="node24" class="node"><title>Node24</title>
<g id="a_node24"><a xlink:href="$AnalogIn__ADS1115_8h.html" xlink:title="libraries/AP_HAL_Linux\l/AnalogIn_ADS1115.h">
<polygon fill="white" stroke="black" points="2079.16,-155.5 2079.16,-183.5 2200.77,-183.5 2200.77,-155.5 2079.16,-155.5"/>
<text text-anchor="start" x="2087.16" y="-171.5" font-family="Helvetica,sans-Serif" font-size="10.00">libraries/AP_HAL_Linux</text>
<text text-anchor="middle" x="2139.96" y="-161.5" font-family="Helvetica,sans-Serif" font-size="10.00">/AnalogIn_ADS1115.h</text>
</a>
</g>
</g>
<!-- Node2&#45;&gt;Node24 -->
<g id="edge31" class="edge"><title>Node2&#45;&gt;Node24</title>
<path fill="none" stroke="midnightblue" d="M1380.21,-225.081C1481.44,-213.155 1917.04,-184.772 2079.06,-174.381"/>
<polygon fill="midnightblue" stroke="midnightblue" points="1379.51,-221.643 1370.03,-226.385 1380.4,-228.586 1379.51,-221.643"/>
</g>
<!-- Node28 -->
<g id="node28" class="node"><title>Node28</title>
<g id="a_node28"><a xlink:href="$RaspilotAnalogIn_8h.html" xlink:title="libraries/AP_HAL_Linux\l/RaspilotAnalogIn.h">
<polygon fill="white" stroke="black" points="2222.16,-155.5 2222.16,-183.5 2343.77,-183.5 2343.77,-155.5 2222.16,-155.5"/>
<text text-anchor="start" x="2230.16" y="-171.5" font-family="Helvetica,sans-Serif" font-size="10.00">libraries/AP_HAL_Linux</text>
<text text-anchor="middle" x="2282.96" y="-161.5" font-family="Helvetica,sans-Serif" font-size="10.00">/RaspilotAnalogIn.h</text>
</a>
</g>
</g>
<!-- Node2&#45;&gt;Node28 -->
<g id="edge35" class="edge"><title>Node2&#45;&gt;Node28</title>
<path fill="none" stroke="midnightblue" d="M1380.13,-225.022C1747.53,-179.84 1847.5,-242.204 2209.96,-189 2219.02,-187.671 2228.58,-185.685 2237.69,-183.502"/>
<polygon fill="midnightblue" stroke="midnightblue" points="1379.51,-221.573 1370.02,-226.285 1380.38,-228.519 1379.51,-221.573"/>
</g>
<!-- Node30 -->
<g id="node30" class="node"><title>Node30</title>
<g id="a_node30"><a xlink:href="$sitl__ins_8cpp.html" xlink:title="libraries/AP_HAL_SITL\l/sitl_ins.cpp">
<polygon fill="white" stroke="black" points="2361.55,-155.5 2361.55,-183.5 2480.37,-183.5 2480.37,-155.5 2361.55,-155.5"/>
<text text-anchor="start" x="2369.55" y="-171.5" font-family="Helvetica,sans-Serif" font-size="10.00">libraries/AP_HAL_SITL</text>
<text text-anchor="middle" x="2420.96" y="-161.5" font-family="Helvetica,sans-Serif" font-size="10.00">/sitl_ins.cpp</text>
</a>
</g>
</g>
<!-- Node2&#45;&gt;Node30 -->
<g id="edge38" class="edge"><title>Node2&#45;&gt;Node30</title>
<path fill="none" stroke="midnightblue" d="M1380.25,-225.018C1810.73,-173.378 1928.07,-253.775 2352.96,-189 2361.43,-187.709 2370.35,-185.741 2378.84,-183.563"/>
<polygon fill="midnightblue" stroke="midnightblue" points="1379.52,-221.58 1370.02,-226.263 1380.37,-228.529 1379.52,-221.58"/>
</g>
<!-- Node4&#45;&gt;Node2 -->
<g id="edge5" class="edge"><title>Node4&#45;&gt;Node2</title>
<path fill="none" stroke="midnightblue" d="M739.46,-186.087C744.019,-187.186 748.556,-188.181 752.96,-189 936.872,-223.214 1158.61,-233.872 1259.86,-237.12"/>
<polygon fill="midnightblue" stroke="midnightblue" points="740.039,-182.623 729.485,-183.544 738.31,-189.406 740.039,-182.623"/>
</g>
<!-- Node5 -->
<g id="node5" class="node"><title>Node5</title>
<g id="a_node5"><a xlink:href="$AP__ADC__ADS1115_8cpp.html" xlink:title="libraries/AP_ADC/AP\l_ADC_ADS1115.cpp">
<polygon fill="white" stroke="black" points="0,-75.5 0,-103.5 109.921,-103.5 109.921,-75.5 0,-75.5"/>
<text text-anchor="start" x="8" y="-91.5" font-family="Helvetica,sans-Serif" font-size="10.00">libraries/AP_ADC/AP</text>
<text text-anchor="middle" x="54.9604" y="-81.5" font-family="Helvetica,sans-Serif" font-size="10.00">_ADC_ADS1115.cpp</text>
</a>
</g>
</g>
<!-- Node4&#45;&gt;Node5 -->
<g id="edge6" class="edge"><title>Node4&#45;&gt;Node5</title>
<path fill="none" stroke="midnightblue" d="M629.645,-152.894C625.047,-151.79 620.436,-150.8 615.96,-150 397.947,-111.037 335.465,-160.623 118.96,-114 107.621,-111.558 95.584,-107.542 85.0458,-103.515"/>
<polygon fill="midnightblue" stroke="midnightblue" points="629.078,-156.362 639.635,-155.461 630.82,-149.582 629.078,-156.362"/>
</g>
<!-- Node8 -->
<g id="node8" class="node"><title>Node8</title>
<g id="a_node8"><a xlink:href="$AP__ADC__AnalogSource_8cpp.html" xlink:title="libraries/AP_ADC_AnalogSource\l/AP_ADC_AnalogSource.cpp">
<polygon fill="white" stroke="black" points="945.867,-75.5 945.867,-103.5 1108.05,-103.5 1108.05,-75.5 945.867,-75.5"/>
<text text-anchor="start" x="953.867" y="-91.5" font-family="Helvetica,sans-Serif" font-size="10.00">libraries/AP_ADC_AnalogSource</text>
<text text-anchor="middle" x="1026.96" y="-81.5" font-family="Helvetica,sans-Serif" font-size="10.00">/AP_ADC_AnalogSource.cpp</text>
</a>
</g>
</g>
<!-- Node7&#45;&gt;Node8 -->
<g id="edge9" class="edge"><title>Node7&#45;&gt;Node8</title>
<path fill="none" stroke="midnightblue" d="M1166.64,-151.367C1133.62,-136.977 1087.13,-116.718 1057.02,-103.598"/>
<polygon fill="midnightblue" stroke="midnightblue" points="1165.43,-154.658 1176,-155.445 1168.23,-148.241 1165.43,-154.658"/>
</g>
<!-- Node7&#45;&gt;Node9 -->
<g id="edge10" class="edge"><title>Node7&#45;&gt;Node9</title>
<path fill="none" stroke="midnightblue" d="M1114.71,-161.194C1068.12,-157.583 1010.54,-153.304 958.96,-150 658.706,-130.763 579.687,-163.761 282.96,-114 268.647,-111.6 253.276,-107.593 239.754,-103.562"/>
<polygon fill="midnightblue" stroke="midnightblue" points="1114.54,-164.691 1124.78,-161.977 1115.08,-157.712 1114.54,-164.691"/>
</g>
<!-- Node7&#45;&gt;Node10 -->
<g id="edge11" class="edge"><title>Node7&#45;&gt;Node10</title>
<path fill="none" stroke="midnightblue" d="M1114.47,-159.912C1077.94,-156.61 1035.47,-152.933 996.96,-150 746.509,-130.925 679.911,-159.881 432.96,-114 419.813,-111.557 405.741,-107.541 393.379,-103.514"/>
<polygon fill="midnightblue" stroke="midnightblue" points="1114.33,-163.414 1124.61,-160.832 1114.97,-156.442 1114.33,-163.414"/>
</g>
<!-- Node7&#45;&gt;Node11 -->
<g id="edge12" class="edge"><title>Node7&#45;&gt;Node11</title>
<path fill="none" stroke="midnightblue" d="M1114.55,-158.231C1088.82,-155.443 1060.81,-152.505 1034.96,-150 848.483,-131.923 799.639,-145.533 614.96,-114 599.681,-111.391 583.21,-107.482 568.536,-103.598"/>
<polygon fill="midnightblue" stroke="midnightblue" points="1114.35,-161.729 1124.67,-159.331 1115.11,-154.77 1114.35,-161.729"/>
</g>
<!-- Node7&#45;&gt;Node12 -->
<g id="edge13" class="edge"><title>Node7&#45;&gt;Node12</title>
<path fill="none" stroke="midnightblue" d="M1114.66,-155.541C1100.7,-153.635 1086.45,-151.732 1072.96,-150 937.137,-132.566 900.933,-142.345 766.96,-114 754.259,-111.313 740.639,-107.431 728.487,-103.593"/>
<polygon fill="midnightblue" stroke="midnightblue" points="1114.38,-159.035 1124.76,-156.928 1115.33,-152.1 1114.38,-159.035"/>
</g>
<!-- Node7&#45;&gt;Node15 -->
<g id="edge16" class="edge"><title>Node7&#45;&gt;Node15</title>
<path fill="none" stroke="midnightblue" d="M1128.99,-153.527C1062.85,-140.546 972.665,-122.542 936.96,-114 929.962,-112.326 922.668,-110.474 915.423,-108.567"/>
<polygon fill="midnightblue" stroke="midnightblue" points="1128.49,-156.995 1138.97,-155.484 1129.83,-150.126 1128.49,-156.995"/>
</g>
<!-- Node7&#45;&gt;Node16 -->
<g id="edge17" class="edge"><title>Node7&#45;&gt;Node16</title>
<path fill="none" stroke="midnightblue" d="M1205.96,-144.977C1205.96,-133.37 1205.96,-119.579 1205.96,-108.777"/>
<polygon fill="midnightblue" stroke="midnightblue" points="1202.46,-145.268 1205.96,-155.268 1209.46,-145.268 1202.46,-145.268"/>
</g>
<!-- Node7&#45;&gt;Node17 -->
<g id="edge18" class="edge"><title>Node7&#45;&gt;Node17</title>
<path fill="none" stroke="midnightblue" d="M1243.07,-151.168C1270.17,-138.512 1306.81,-121.395 1334.27,-108.569"/>
<polygon fill="midnightblue" stroke="midnightblue" points="1241.49,-148.042 1233.91,-155.445 1244.45,-154.384 1241.49,-148.042"/>
</g>
<!-- Node7&#45;&gt;Node18 -->
<g id="edge19" class="edge"><title>Node7&#45;&gt;Node18</title>
<path fill="none" stroke="midnightblue" d="M1278.45,-153.386C1327.34,-142.946 1393.21,-128.397 1450.96,-114 1463.74,-110.815 1477.52,-107.118 1490.2,-103.612"/>
<polygon fill="midnightblue" stroke="midnightblue" points="1277.65,-149.978 1268.6,-155.484 1279.11,-156.825 1277.65,-149.978"/>
</g>
<!-- Node7&#45;&gt;Node19 -->
<g id="edge20" class="edge"><title>Node7&#45;&gt;Node19</title>
<path fill="none" stroke="midnightblue" d="M1297.52,-161.165C1382.15,-153.282 1511.05,-138.466 1620.96,-114 1627.8,-112.477 1634.92,-110.603 1641.91,-108.584"/>
<polygon fill="midnightblue" stroke="midnightblue" points="1297.06,-157.693 1287.42,-162.093 1297.7,-164.663 1297.06,-157.693"/>
</g>
<!-- Node7&#45;&gt;Node20 -->
<g id="edge21" class="edge"><title>Node7&#45;&gt;Node20</title>
<path fill="none" stroke="midnightblue" d="M1297.68,-160.816C1445.43,-148.258 1724.19,-123.759 1768.96,-114 1772.01,-113.335 1775.12,-112.576 1778.23,-111.747"/>
<polygon fill="midnightblue" stroke="midnightblue" points="1296.94,-157.366 1287.27,-161.699 1297.53,-164.341 1296.94,-157.366"/>
</g>
<!-- Node7&#45;&gt;Node21 -->
<g id="edge22" class="edge"><title>Node7&#45;&gt;Node21</title>
<path fill="none" stroke="midnightblue" d="M1297.25,-162.412C1473.11,-150.534 1846.68,-124.512 1904.96,-114 1912.98,-112.554 1921.33,-110.645 1929.51,-108.538"/>
<polygon fill="midnightblue" stroke="midnightblue" points="1296.98,-158.922 1287.24,-163.088 1297.45,-165.907 1296.98,-158.922"/>
</g>
<!-- Node13 -->
<g id="node13" class="node"><title>Node13</title>
<g id="a_node13"><a xlink:href="$AP__BattMonitor_8cpp.html" xlink:title="libraries/AP_BattMonitor\l/AP_BattMonitor.cpp">
<polygon fill="white" stroke="black" points="705.049,-0.5 705.049,-28.5 828.872,-28.5 828.872,-0.5 705.049,-0.5"/>
<text text-anchor="start" x="713.049" y="-16.5" font-family="Helvetica,sans-Serif" font-size="10.00">libraries/AP_BattMonitor</text>
<text text-anchor="middle" x="766.96" y="-6.5" font-family="Helvetica,sans-Serif" font-size="10.00">/AP_BattMonitor.cpp</text>
</a>
</g>
</g>
<!-- Node12&#45;&gt;Node13 -->
<g id="edge14" class="edge"><title>Node12&#45;&gt;Node13</title>
<path fill="none" stroke="midnightblue" d="M711.846,-68.4386C725.035,-55.7704 741.701,-39.7627 753.235,-28.6841"/>
<polygon fill="midnightblue" stroke="midnightblue" points="709.335,-65.9975 704.548,-75.4491 714.184,-71.0459 709.335,-65.9975"/>
</g>
<!-- Node14 -->
<g id="node14" class="node"><title>Node14</title>
<g id="a_node14"><a xlink:href="$AP__BattMonitor__Analog_8cpp.html" xlink:title="libraries/AP_BattMonitor\l/AP_BattMonitor_Analog.cpp">
<polygon fill="white" stroke="black" points="542.754,-0.5 542.754,-28.5 687.167,-28.5 687.167,-0.5 542.754,-0.5"/>
<text text-anchor="start" x="550.754" y="-16.5" font-family="Helvetica,sans-Serif" font-size="10.00">libraries/AP_BattMonitor</text>
<text text-anchor="middle" x="614.96" y="-6.5" font-family="Helvetica,sans-Serif" font-size="10.00">/AP_BattMonitor_Analog.cpp</text>
</a>
</g>
</g>
<!-- Node12&#45;&gt;Node14 -->
<g id="edge15" class="edge"><title>Node12&#45;&gt;Node14</title>
<path fill="none" stroke="midnightblue" d="M670.075,-68.4386C656.886,-55.7704 640.22,-39.7627 628.686,-28.6841"/>
<polygon fill="midnightblue" stroke="midnightblue" points="667.737,-71.0459 677.373,-75.4491 672.586,-65.9975 667.737,-71.0459"/>
</g>
<!-- Node25 -->
<g id="node25" class="node"><title>Node25</title>
<g id="a_node25"><a xlink:href="$AnalogIn__ADS1115_8cpp.html" xlink:title="libraries/AP_HAL_Linux\l/AnalogIn_ADS1115.cpp">
<polygon fill="white" stroke="black" points="2077.93,-75.5 2077.93,-103.5 2201.99,-103.5 2201.99,-75.5 2077.93,-75.5"/>
<text text-anchor="start" x="2085.93" y="-91.5" font-family="Helvetica,sans-Serif" font-size="10.00">libraries/AP_HAL_Linux</text>
<text text-anchor="middle" x="2139.96" y="-81.5" font-family="Helvetica,sans-Serif" font-size="10.00">/AnalogIn_ADS1115.cpp</text>
</a>
</g>
</g>
<!-- Node24&#45;&gt;Node25 -->
<g id="edge32" class="edge"><title>Node24&#45;&gt;Node25</title>
<path fill="none" stroke="midnightblue" d="M2139.96,-145.16C2139.96,-131.539 2139.96,-114.861 2139.96,-103.536"/>
<polygon fill="midnightblue" stroke="midnightblue" points="2136.46,-145.268 2139.96,-155.268 2143.46,-145.268 2136.46,-145.268"/>
</g>
<!-- Node26 -->
<g id="node26" class="node"><title>Node26</title>
<g id="a_node26"><a xlink:href="$AP__HAL__Linux__Private_8h.html" xlink:title="libraries/AP_HAL_Linux\l/AP_HAL_Linux_Private.h">
<polygon fill="white" stroke="black" points="2220.15,-75.5 2220.15,-103.5 2351.77,-103.5 2351.77,-75.5 2220.15,-75.5"/>
<text text-anchor="start" x="2228.15" y="-91.5" font-family="Helvetica,sans-Serif" font-size="10.00">libraries/AP_HAL_Linux</text>
<text text-anchor="middle" x="2285.96" y="-81.5" font-family="Helvetica,sans-Serif" font-size="10.00">/AP_HAL_Linux_Private.h</text>
</a>
</g>
</g>
<!-- Node24&#45;&gt;Node26 -->
<g id="edge33" class="edge"><title>Node24&#45;&gt;Node26</title>
<path fill="none" stroke="midnightblue" d="M2173.43,-150.621C2200.26,-136.284 2237.31,-116.493 2261.44,-103.598"/>
<polygon fill="midnightblue" stroke="midnightblue" points="2171.57,-147.645 2164.4,-155.445 2174.87,-153.819 2171.57,-147.645"/>
</g>
<!-- Node27 -->
<g id="node27" class="node"><title>Node27</title>
<g id="a_node27"><a xlink:href="$HAL__Linux__Class_8cpp.html" xlink:title="libraries/AP_HAL_Linux\l/HAL_Linux_Class.cpp">
<polygon fill="white" stroke="black" points="2225.16,-0.5 2225.16,-28.5 2346.77,-28.5 2346.77,-0.5 2225.16,-0.5"/>
<text text-anchor="start" x="2233.16" y="-16.5" font-family="Helvetica,sans-Serif" font-size="10.00">libraries/AP_HAL_Linux</text>
<text text-anchor="middle" x="2285.96" y="-6.5" font-family="Helvetica,sans-Serif" font-size="10.00">/HAL_Linux_Class.cpp</text>
</a>
</g>
</g>
<!-- Node26&#45;&gt;Node27 -->
<g id="edge34" class="edge"><title>Node26&#45;&gt;Node27</title>
<path fill="none" stroke="midnightblue" d="M2285.96,-65.2448C2285.96,-53.2645 2285.96,-39.0818 2285.96,-28.9318"/>
<polygon fill="midnightblue" stroke="midnightblue" points="2282.46,-65.449 2285.96,-75.4491 2289.46,-65.4491 2282.46,-65.449"/>
</g>
<!-- Node28&#45;&gt;Node26 -->
<g id="edge36" class="edge"><title>Node28&#45;&gt;Node26</title>
<path fill="none" stroke="midnightblue" d="M2283.86,-145.16C2284.38,-131.539 2285.02,-114.861 2285.46,-103.536"/>
<polygon fill="midnightblue" stroke="midnightblue" points="2280.36,-145.141 2283.47,-155.268 2287.35,-145.41 2280.36,-145.141"/>
</g>
<!-- Node29 -->
<g id="node29" class="node"><title>Node29</title>
<g id="a_node29"><a xlink:href="$RaspilotAnalogIn_8cpp.html" xlink:title="libraries/AP_HAL_Linux\l/RaspilotAnalogIn.cpp">
<polygon fill="white" stroke="black" points="2370.16,-75.5 2370.16,-103.5 2491.77,-103.5 2491.77,-75.5 2370.16,-75.5"/>
<text text-anchor="start" x="2378.16" y="-91.5" font-family="Helvetica,sans-Serif" font-size="10.00">libraries/AP_HAL_Linux</text>
<text text-anchor="middle" x="2430.96" y="-81.5" font-family="Helvetica,sans-Serif" font-size="10.00">/RaspilotAnalogIn.cpp</text>
</a>
</g>
</g>
<!-- Node28&#45;&gt;Node29 -->
<g id="edge37" class="edge"><title>Node28&#45;&gt;Node29</title>
<path fill="none" stroke="midnightblue" d="M2316.88,-150.621C2344.09,-136.284 2381.64,-116.493 2406.11,-103.598"/>
<polygon fill="midnightblue" stroke="midnightblue" points="2314.95,-147.686 2307.73,-155.445 2318.21,-153.878 2314.95,-147.686"/>
</g>
</g>
</svg>
