<?xml version="1.0" encoding="UTF-8" standalone="no"?>
<!DOCTYPE svg PUBLIC "-//W3C//DTD SVG 1.1//EN"
 "http://www.w3.org/Graphics/SVG/1.1/DTD/svg11.dtd">
<!-- Generated by graphviz version 2.38.0 (20140413.2041)
 -->
<!-- Title: libmaple_pinMode Pages: 1 -->
<svg width="304pt" height="84pt"
 viewBox="0.00 0.00 304.27 84.00" xmlns="http://www.w3.org/2000/svg" xmlns:xlink="http://www.w3.org/1999/xlink">
<g id="graph0" class="graph" transform="scale(1 1) rotate(0) translate(4 80)">
<title>libmaple_pinMode</title>
<polygon fill="white" stroke="none" points="-4,4 -4,-80 300.267,-80 300.267,4 -4,4"/>
<!-- Node1 -->
<g id="node1" class="node"><title>Node1</title>
<polygon fill="#bfbfbf" stroke="black" points="0,-28.5 0,-46.5 97.1621,-46.5 97.1621,-28.5 0,-28.5"/>
<text text-anchor="middle" x="48.5811" y="-34.5" font-family="Helvetica,sans-Serif" font-size="10.00">libmaple_pinMode</text>
</g>
<!-- Node2 -->
<g id="node2" class="node"><title>Node2</title>
<g id="a_node2"><a xlink:href="$classAP__HAL__FLYMAPLE__NS_1_1FLYMAPLEDigitalSource.html#a166eb64704b935e7c4855464733b362f" xlink:title="AP_HAL_FLYMAPLE_NS\l::FLYMAPLEDigitalSource::mode">
<polygon fill="white" stroke="black" points="133.162,-47.5 133.162,-75.5 296.267,-75.5 296.267,-47.5 133.162,-47.5"/>
<text text-anchor="start" x="141.162" y="-63.5" font-family="Helvetica,sans-Serif" font-size="10.00">AP_HAL_FLYMAPLE_NS</text>
<text text-anchor="middle" x="214.714" y="-53.5" font-family="Helvetica,sans-Serif" font-size="10.00">::FLYMAPLEDigitalSource::mode</text>
</a>
</g>
</g>
<!-- Node1&#45;&gt;Node2 -->
<g id="edge1" class="edge"><title>Node1&#45;&gt;Node2</title>
<path fill="none" stroke="midnightblue" d="M107.41,-45.956C115.707,-47.1691 124.366,-48.4353 133.006,-49.6986"/>
<polygon fill="midnightblue" stroke="midnightblue" points="107.898,-42.4901 97.4964,-44.5063 106.885,-49.4164 107.898,-42.4901"/>
</g>
<!-- Node3 -->
<g id="node3" class="node"><title>Node3</title>
<g id="a_node3"><a xlink:href="$classAP__HAL__FLYMAPLE__NS_1_1FLYMAPLEGPIO.html#abc9c71bf975e06d082acb50c6e282285" xlink:title="AP_HAL_FLYMAPLE_NS\l::FLYMAPLEGPIO::pinMode">
<polygon fill="white" stroke="black" points="143.724,-0.5 143.724,-28.5 285.705,-28.5 285.705,-0.5 143.724,-0.5"/>
<text text-anchor="start" x="151.724" y="-16.5" font-family="Helvetica,sans-Serif" font-size="10.00">AP_HAL_FLYMAPLE_NS</text>
<text text-anchor="middle" x="214.714" y="-6.5" font-family="Helvetica,sans-Serif" font-size="10.00">::FLYMAPLEGPIO::pinMode</text>
</a>
</g>
</g>
<!-- Node1&#45;&gt;Node3 -->
<g id="edge2" class="edge"><title>Node1&#45;&gt;Node3</title>
<path fill="none" stroke="midnightblue" d="M107.508,-29.3827C119.138,-27.753 131.479,-26.0237 143.475,-24.3427"/>
<polygon fill="midnightblue" stroke="midnightblue" points="106.914,-25.9317 97.4964,-30.7856 107.885,-32.8639 106.914,-25.9317"/>
</g>
</g>
</svg>
