<?xml version="1.0" encoding="UTF-8" standalone="no"?>
<!DOCTYPE svg PUBLIC "-//W3C//DTD SVG 1.1//EN"
 "http://www.w3.org/Graphics/SVG/1.1/DTD/svg11.dtd">
<!-- Generated by graphviz version 2.38.0 (20140413.2041)
 -->
<!-- Title: libraries/AP_LandingGear/AP_LandingGear.h Pages: 1 -->
<svg width="139pt" height="102pt"
 viewBox="0.00 0.00 138.51 102.00" xmlns="http://www.w3.org/2000/svg" xmlns:xlink="http://www.w3.org/1999/xlink">
<g id="graph0" class="graph" transform="scale(1 1) rotate(0) translate(4 98)">
<title>libraries/AP_LandingGear/AP_LandingGear.h</title>
<polygon fill="white" stroke="none" points="-4,4 -4,-98 134.512,-98 134.512,4 -4,4"/>
<!-- Node1 -->
<g id="node1" class="node"><title>Node1</title>
<polygon fill="#bfbfbf" stroke="black" points="0,-65.5 0,-93.5 130.512,-93.5 130.512,-65.5 0,-65.5"/>
<text text-anchor="start" x="8" y="-81.5" font-family="Helvetica,sans-Serif" font-size="10.00">libraries/AP_LandingGear</text>
<text text-anchor="middle" x="65.2559" y="-71.5" font-family="Helvetica,sans-Serif" font-size="10.00">/AP_LandingGear.h</text>
</g>
<!-- Node2 -->
<g id="node2" class="node"><title>Node2</title>
<g id="a_node2"><a xlink:href="$AP__LandingGear_8cpp.html" xlink:title="libraries/AP_LandingGear\l/AP_LandingGear.cpp">
<polygon fill="white" stroke="black" points="0,-0.5 0,-28.5 130.512,-28.5 130.512,-0.5 0,-0.5"/>
<text text-anchor="start" x="8" y="-16.5" font-family="Helvetica,sans-Serif" font-size="10.00">libraries/AP_LandingGear</text>
<text text-anchor="middle" x="65.2559" y="-6.5" font-family="Helvetica,sans-Serif" font-size="10.00">/AP_LandingGear.cpp</text>
</a>
</g>
</g>
<!-- Node1&#45;&gt;Node2 -->
<g id="edge1" class="edge"><title>Node1&#45;&gt;Node2</title>
<path fill="none" stroke="midnightblue" d="M65.2559,-55.1641C65.2559,-46.1693 65.2559,-36.2205 65.2559,-28.5369"/>
<polygon fill="midnightblue" stroke="midnightblue" points="61.756,-55.4463 65.2559,-65.4464 68.756,-55.4464 61.756,-55.4463"/>
</g>
</g>
</svg>
