<?xml version="1.0" encoding="UTF-8" standalone="no"?>
<!DOCTYPE svg PUBLIC "-//W3C//DTD SVG 1.1//EN"
 "http://www.w3.org/Graphics/SVG/1.1/DTD/svg11.dtd">
<!-- Generated by graphviz version 2.38.0 (20140413.2041)
 -->
<!-- Title: libraries/AP_Parachute/AP_Parachute.h Pages: 1 -->
<svg width="1650pt" height="697pt"
 viewBox="0.00 0.00 1650.29 697.00" xmlns="http://www.w3.org/2000/svg" xmlns:xlink="http://www.w3.org/1999/xlink">
<g id="graph0" class="graph" transform="scale(1 1) rotate(0) translate(4 693)">
<title>libraries/AP_Parachute/AP_Parachute.h</title>
<polygon fill="white" stroke="none" points="-4,4 -4,-693 1646.29,-693 1646.29,4 -4,4"/>
<!-- Node1 -->
<g id="node1" class="node"><title>Node1</title>
<polygon fill="#bfbfbf" stroke="black" points="331.862,-660.5 331.862,-688.5 450.138,-688.5 450.138,-660.5 331.862,-660.5"/>
<text text-anchor="start" x="339.862" y="-676.5" font-family="Helvetica,sans-Serif" font-size="10.00">libraries/AP_Parachute</text>
<text text-anchor="middle" x="391" y="-666.5" font-family="Helvetica,sans-Serif" font-size="10.00">/AP_Parachute.h</text>
</g>
<!-- Node2 -->
<g id="node2" class="node"><title>Node2</title>
<g id="a_node2"><a xlink:href="$AP__Param_8h.html" xlink:title="A system for managing and storing variables that are of general interest to the system. ">
<polygon fill="white" stroke="black" points="243.086,-550.5 243.086,-568.5 366.914,-568.5 366.914,-550.5 243.086,-550.5"/>
<text text-anchor="middle" x="305" y="-556.5" font-family="Helvetica,sans-Serif" font-size="10.00">AP_Param/AP_Param.h</text>
</a>
</g>
</g>
<!-- Node1&#45;&gt;Node2 -->
<g id="edge1" class="edge"><title>Node1&#45;&gt;Node2</title>
<path fill="none" stroke="midnightblue" d="M390.095,-660.468C388.5,-645.75 384.101,-621.683 372,-605 362.141,-591.408 346.761,-580.766 333.222,-573.302"/>
<polygon fill="midnightblue" stroke="midnightblue" points="334.722,-570.138 324.233,-568.645 331.502,-576.353 334.722,-570.138"/>
</g>
<!-- Node21 -->
<g id="node21" class="node"><title>Node21</title>
<g id="a_node21"><a xlink:href="$AP__Common_8h.html" xlink:title="Common definitions and utility routines for the ArduPilot libraries. ">
<polygon fill="white" stroke="black" points="843.973,-165.5 843.973,-183.5 990.027,-183.5 990.027,-165.5 843.973,-165.5"/>
<text text-anchor="middle" x="917" y="-171.5" font-family="Helvetica,sans-Serif" font-size="10.00">AP_Common/AP_Common.h</text>
</a>
</g>
</g>
<!-- Node1&#45;&gt;Node21 -->
<g id="edge79" class="edge"><title>Node1&#45;&gt;Node21</title>
<path fill="none" stroke="midnightblue" d="M450.306,-671.008C630.448,-662.656 1159,-632.054 1159,-560.5 1159,-560.5 1159,-560.5 1159,-393.5 1159,-282.163 1015.85,-213.133 949.745,-187.192"/>
<polygon fill="midnightblue" stroke="midnightblue" points="950.794,-183.846 940.204,-183.538 948.291,-190.383 950.794,-183.846"/>
</g>
<!-- Node36 -->
<g id="node36" class="node"><title>Node36</title>
<g id="a_node36"><a xlink:href="$AP__Relay_8h.html" xlink:title="APM relay control class. ">
<polygon fill="white" stroke="black" points="247.342,-605.5 247.342,-623.5 362.658,-623.5 362.658,-605.5 247.342,-605.5"/>
<text text-anchor="middle" x="305" y="-611.5" font-family="Helvetica,sans-Serif" font-size="10.00">AP_Relay/AP_Relay.h</text>
</a>
</g>
</g>
<!-- Node1&#45;&gt;Node36 -->
<g id="edge80" class="edge"><title>Node1&#45;&gt;Node36</title>
<path fill="none" stroke="midnightblue" d="M371.485,-660.339C357.826,-651.127 339.606,-638.839 325.694,-629.456"/>
<polygon fill="midnightblue" stroke="midnightblue" points="327.512,-626.461 317.265,-623.771 323.598,-632.265 327.512,-626.461"/>
</g>
<!-- Node3 -->
<g id="node3" class="node"><title>Node3</title>
<g id="a_node3"><a xlink:href="$AP__HAL_8h.html" xlink:title="AP_HAL/AP_HAL.h">
<polygon fill="white" stroke="black" points="783.086,-440.5 783.086,-458.5 886.914,-458.5 886.914,-440.5 783.086,-440.5"/>
<text text-anchor="middle" x="835" y="-446.5" font-family="Helvetica,sans-Serif" font-size="10.00">AP_HAL/AP_HAL.h</text>
</a>
</g>
</g>
<!-- Node2&#45;&gt;Node3 -->
<g id="edge2" class="edge"><title>Node2&#45;&gt;Node3</title>
<path fill="none" stroke="midnightblue" d="M344.403,-550.471C439.476,-531.097 681.298,-481.82 785.732,-460.539"/>
<polygon fill="midnightblue" stroke="midnightblue" points="786.598,-463.935 795.698,-458.509 785.2,-457.076 786.598,-463.935"/>
</g>
<!-- Node4 -->
<g id="node4" class="node"><title>Node4</title>
<polygon fill="white" stroke="#bfbfbf" points="767.879,-110.5 767.879,-128.5 816.121,-128.5 816.121,-110.5 767.879,-110.5"/>
<text text-anchor="middle" x="792" y="-116.5" font-family="Helvetica,sans-Serif" font-size="10.00">stdint.h</text>
</g>
<!-- Node2&#45;&gt;Node4 -->
<g id="edge71" class="edge"><title>Node2&#45;&gt;Node4</title>
<path fill="none" stroke="midnightblue" d="M312.616,-550.385C319.993,-541.988 330.803,-528.14 336,-514 371.197,-418.238 358,-387.525 358,-285.5 358,-285.5 358,-285.5 358,-228.5 358,-190.575 381.333,-182.459 415,-165 474.283,-134.258 675.952,-124.302 757.431,-121.487"/>
<polygon fill="midnightblue" stroke="midnightblue" points="757.775,-124.978 767.655,-121.15 757.545,-117.981 757.775,-124.978"/>
</g>
<!-- Node7 -->
<g id="node7" class="node"><title>Node7</title>
<polygon fill="white" stroke="#bfbfbf" points="220.604,-0.5 220.604,-18.5 269.396,-18.5 269.396,-0.5 220.604,-0.5"/>
<text text-anchor="middle" x="245" y="-6.5" font-family="Helvetica,sans-Serif" font-size="10.00">string.h</text>
</g>
<!-- Node2&#45;&gt;Node7 -->
<g id="edge70" class="edge"><title>Node2&#45;&gt;Node7</title>
<path fill="none" stroke="midnightblue" d="M249.413,-550.467C161.44,-536.171 0,-502.811 0,-450.5 0,-450.5 0,-450.5 0,-118.5 0,-27.8262 142.247,-12.6292 209.965,-10.532"/>
<polygon fill="midnightblue" stroke="midnightblue" points="210.243,-14.0266 220.16,-10.2983 210.082,-7.02845 210.243,-14.0266"/>
</g>
<!-- Node31 -->
<g id="node31" class="node"><title>Node31</title>
<polygon fill="white" stroke="#bfbfbf" points="149.209,-495.5 149.209,-513.5 200.791,-513.5 200.791,-495.5 149.209,-495.5"/>
<text text-anchor="middle" x="175" y="-501.5" font-family="Helvetica,sans-Serif" font-size="10.00">stddef.h</text>
</g>
<!-- Node2&#45;&gt;Node31 -->
<g id="edge69" class="edge"><title>Node2&#45;&gt;Node31</title>
<path fill="none" stroke="midnightblue" d="M285.256,-550.45C263.685,-541.656 228.914,-527.48 204.19,-517.401"/>
<polygon fill="midnightblue" stroke="midnightblue" points="205.511,-514.16 194.93,-513.625 202.869,-520.642 205.511,-514.16"/>
</g>
<!-- Node32 -->
<g id="node32" class="node"><title>Node32</title>
<polygon fill="white" stroke="#bfbfbf" points="218.714,-495.5 218.714,-513.5 265.286,-513.5 265.286,-495.5 218.714,-495.5"/>
<text text-anchor="middle" x="242" y="-501.5" font-family="Helvetica,sans-Serif" font-size="10.00">math.h</text>
</g>
<!-- Node2&#45;&gt;Node32 -->
<g id="edge72" class="edge"><title>Node2&#45;&gt;Node32</title>
<path fill="none" stroke="midnightblue" d="M295.432,-550.45C285.903,-542.434 271.06,-529.947 259.433,-520.166"/>
<polygon fill="midnightblue" stroke="midnightblue" points="261.564,-517.385 251.658,-513.625 257.057,-522.741 261.564,-517.385"/>
</g>
<!-- Node33 -->
<g id="node33" class="node"><title>Node33</title>
<polygon fill="white" stroke="#bfbfbf" points="283.379,-495.5 283.379,-513.5 326.621,-513.5 326.621,-495.5 283.379,-495.5"/>
<text text-anchor="middle" x="305" y="-501.5" font-family="Helvetica,sans-Serif" font-size="10.00">float.h</text>
</g>
<!-- Node2&#45;&gt;Node33 -->
<g id="edge73" class="edge"><title>Node2&#45;&gt;Node33</title>
<path fill="none" stroke="midnightblue" d="M305,-550.219C305,-543.177 305,-532.808 305,-523.828"/>
<polygon fill="midnightblue" stroke="midnightblue" points="308.5,-523.55 305,-513.55 301.5,-523.55 308.5,-523.55"/>
</g>
<!-- Node34 -->
<g id="node34" class="node"><title>Node34</title>
<g id="a_node34"><a xlink:href="$AP__Progmem_8h.html" xlink:title="AP_Progmem/AP_Progmem.h">
<polygon fill="white" stroke="black" points="28.1948,-165.5 28.1948,-183.5 179.805,-183.5 179.805,-165.5 28.1948,-165.5"/>
<text text-anchor="middle" x="104" y="-171.5" font-family="Helvetica,sans-Serif" font-size="10.00">AP_Progmem/AP_Progmem.h</text>
</a>
</g>
</g>
<!-- Node2&#45;&gt;Node34 -->
<g id="edge74" class="edge"><title>Node2&#45;&gt;Node34</title>
<path fill="none" stroke="midnightblue" d="M242.753,-554.281C209.097,-549.136 168.678,-537.981 140,-514 116.055,-493.977 110,-481.713 110,-450.5 110,-450.5 110,-450.5 110,-283.5 110,-251.969 107.419,-215.34 105.643,-193.864"/>
<polygon fill="midnightblue" stroke="midnightblue" points="109.106,-193.283 104.76,-183.62 102.131,-193.884 109.106,-193.283"/>
</g>
<!-- Node35 -->
<g id="node35" class="node"><title>Node35</title>
<g id="a_node35"><a xlink:href="$StorageManager_8h.html" xlink:title="StorageManager/StorageManager.h">
<polygon fill="white" stroke="black" points="664.222,-495.5 664.222,-513.5 839.778,-513.5 839.778,-495.5 664.222,-495.5"/>
<text text-anchor="middle" x="752" y="-501.5" font-family="Helvetica,sans-Serif" font-size="10.00">StorageManager/StorageManager.h</text>
</a>
</g>
</g>
<!-- Node2&#45;&gt;Node35 -->
<g id="edge77" class="edge"><title>Node2&#45;&gt;Node35</title>
<path fill="none" stroke="midnightblue" d="M367.153,-551.131C447.34,-541.623 586.858,-525.081 674.059,-514.741"/>
<polygon fill="midnightblue" stroke="midnightblue" points="674.645,-518.196 684.163,-513.543 673.821,-511.245 674.645,-518.196"/>
</g>
<!-- Node3&#45;&gt;Node4 -->
<g id="edge3" class="edge"><title>Node3&#45;&gt;Node4</title>
<path fill="none" stroke="midnightblue" d="M823.786,-440.391C802.645,-424.067 759,-384.979 759,-340.5 759,-340.5 759,-340.5 759,-283.5 759,-229.736 776.46,-167.944 785.98,-138.25"/>
<polygon fill="midnightblue" stroke="midnightblue" points="789.379,-139.117 789.186,-128.524 782.731,-136.925 789.379,-139.117"/>
</g>
<!-- Node5 -->
<g id="node5" class="node"><title>Node5</title>
<polygon fill="white" stroke="#bfbfbf" points="1278.71,-110.5 1278.71,-128.5 1335.29,-128.5 1335.29,-110.5 1278.71,-110.5"/>
<text text-anchor="middle" x="1307" y="-116.5" font-family="Helvetica,sans-Serif" font-size="10.00">stdbool.h</text>
</g>
<!-- Node3&#45;&gt;Node5 -->
<g id="edge4" class="edge"><title>Node3&#45;&gt;Node5</title>
<path fill="none" stroke="midnightblue" d="M887.22,-447.639C1007.29,-445.118 1294.97,-435.79 1324,-404 1393.38,-328.015 1338.35,-187.52 1315.64,-138.185"/>
<polygon fill="midnightblue" stroke="midnightblue" points="1318.66,-136.399 1311.22,-128.858 1312.34,-139.394 1318.66,-136.399"/>
</g>
<!-- Node6 -->
<g id="node6" class="node"><title>Node6</title>
<g id="a_node6"><a xlink:href="$AP__HAL__Namespace_8h.html" xlink:title="AP_HAL_Namespace.h">
<polygon fill="white" stroke="black" points="679.192,-55.5 679.192,-73.5 800.808,-73.5 800.808,-55.5 679.192,-55.5"/>
<text text-anchor="middle" x="740" y="-61.5" font-family="Helvetica,sans-Serif" font-size="10.00">AP_HAL_Namespace.h</text>
</a>
</g>
</g>
<!-- Node3&#45;&gt;Node6 -->
<g id="edge5" class="edge"><title>Node3&#45;&gt;Node6</title>
<path fill="none" stroke="midnightblue" d="M887.082,-445.803C931.43,-441.62 995.619,-430.987 1045,-404 1140.87,-351.607 1224.31,-328.026 1208,-220 1200.3,-168.998 1211.67,-141.725 1171,-110 1143.29,-88.3864 926.402,-74.6163 811.269,-68.7548"/>
<polygon fill="midnightblue" stroke="midnightblue" points="811.293,-65.2517 801.13,-68.2457 810.942,-72.2429 811.293,-65.2517"/>
</g>
<!-- Node9 -->
<g id="node9" class="node"><title>Node9</title>
<g id="a_node9"><a xlink:href="$AP__HAL__Boards_8h.html" xlink:title="AP_HAL_Boards.h">
<polygon fill="white" stroke="black" points="1008.03,-165.5 1008.03,-183.5 1107.97,-183.5 1107.97,-165.5 1008.03,-165.5"/>
<text text-anchor="middle" x="1058" y="-171.5" font-family="Helvetica,sans-Serif" font-size="10.00">AP_HAL_Boards.h</text>
</a>
</g>
</g>
<!-- Node3&#45;&gt;Node9 -->
<g id="edge8" class="edge"><title>Node3&#45;&gt;Node9</title>
<path fill="none" stroke="midnightblue" d="M842.514,-440.422C850.661,-431.599 863.976,-416.989 875,-404 941.092,-326.125 1016.19,-229.699 1045.43,-191.842"/>
<polygon fill="midnightblue" stroke="midnightblue" points="1048.51,-193.582 1051.84,-183.526 1042.96,-189.308 1048.51,-193.582"/>
</g>
<!-- Node10 -->
<g id="node10" class="node"><title>Node10</title>
<g id="a_node10"><a xlink:href="$AP__HAL__Macros_8h.html" xlink:title="AP_HAL_Macros.h">
<polygon fill="white" stroke="black" points="459.48,-385.5 459.48,-403.5 560.52,-403.5 560.52,-385.5 459.48,-385.5"/>
<text text-anchor="middle" x="510" y="-391.5" font-family="Helvetica,sans-Serif" font-size="10.00">AP_HAL_Macros.h</text>
</a>
</g>
</g>
<!-- Node3&#45;&gt;Node10 -->
<g id="edge9" class="edge"><title>Node3&#45;&gt;Node10</title>
<path fill="none" stroke="midnightblue" d="M785.639,-440.45C727.607,-430.987 631.357,-415.291 569.322,-405.174"/>
<polygon fill="midnightblue" stroke="midnightblue" points="569.724,-401.694 559.292,-403.538 568.598,-408.602 569.724,-401.694"/>
</g>
<!-- Node11 -->
<g id="node11" class="node"><title>Node11</title>
<g id="a_node11"><a xlink:href="$AP__HAL__Main_8h.html" xlink:title="AP_HAL_Main.h">
<polygon fill="white" stroke="black" points="1225.03,-385.5 1225.03,-403.5 1314.97,-403.5 1314.97,-385.5 1225.03,-385.5"/>
<text text-anchor="middle" x="1270" y="-391.5" font-family="Helvetica,sans-Serif" font-size="10.00">AP_HAL_Main.h</text>
</a>
</g>
</g>
<!-- Node3&#45;&gt;Node11 -->
<g id="edge10" class="edge"><title>Node3&#45;&gt;Node11</title>
<path fill="none" stroke="midnightblue" d="M887.055,-442.76C959.674,-434.657 1095.48,-419.155 1211,-404 1212.27,-403.833 1213.55,-403.663 1214.85,-403.49"/>
<polygon fill="midnightblue" stroke="midnightblue" points="1215.48,-406.936 1224.92,-402.114 1214.54,-400 1215.48,-406.936"/>
</g>
<!-- Node12 -->
<g id="node12" class="node"><title>Node12</title>
<g id="a_node12"><a xlink:href="$HAL_8h.html" xlink:title="HAL.h">
<polygon fill="white" stroke="black" points="1248.1,-330.5 1248.1,-348.5 1291.9,-348.5 1291.9,-330.5 1248.1,-330.5"/>
<text text-anchor="middle" x="1270" y="-336.5" font-family="Helvetica,sans-Serif" font-size="10.00">HAL.h</text>
</a>
</g>
</g>
<!-- Node3&#45;&gt;Node12 -->
<g id="edge68" class="edge"><title>Node3&#45;&gt;Node12</title>
<path fill="none" stroke="midnightblue" d="M886.959,-445.411C947.586,-440.756 1050.32,-429.588 1135,-404 1176.51,-391.455 1221.47,-368.156 1247.61,-353.537"/>
<polygon fill="midnightblue" stroke="midnightblue" points="1249.38,-356.558 1256.35,-348.579 1245.93,-350.47 1249.38,-356.558"/>
</g>
<!-- Node13 -->
<g id="node13" class="node"><title>Node13</title>
<g id="a_node13"><a xlink:href="$AnalogIn_8h.html" xlink:title="AnalogIn.h">
<polygon fill="white" stroke="black" points="484.091,-220.5 484.091,-238.5 547.909,-238.5 547.909,-220.5 484.091,-220.5"/>
<text text-anchor="middle" x="516" y="-226.5" font-family="Helvetica,sans-Serif" font-size="10.00">AnalogIn.h</text>
</a>
</g>
</g>
<!-- Node3&#45;&gt;Node13 -->
<g id="edge50" class="edge"><title>Node3&#45;&gt;Node13</title>
<path fill="none" stroke="midnightblue" d="M801.882,-440.497C775.759,-433.313 739.017,-421.23 710,-404 633.321,-358.469 559.567,-280.02 529.803,-246.471"/>
<polygon fill="midnightblue" stroke="midnightblue" points="532.132,-243.819 522.907,-238.609 526.869,-248.435 532.132,-243.819"/>
</g>
<!-- Node15 -->
<g id="node15" class="node"><title>Node15</title>
<g id="a_node15"><a xlink:href="$GPIO_8h.html" xlink:title="GPIO.h">
<polygon fill="white" stroke="black" points="1149.33,-220.5 1149.33,-238.5 1198.67,-238.5 1198.67,-220.5 1149.33,-220.5"/>
<text text-anchor="middle" x="1174" y="-226.5" font-family="Helvetica,sans-Serif" font-size="10.00">GPIO.h</text>
</a>
</g>
</g>
<!-- Node3&#45;&gt;Node15 -->
<g id="edge52" class="edge"><title>Node3&#45;&gt;Node15</title>
<path fill="none" stroke="midnightblue" d="M886.993,-446.366C926.855,-442.441 981.544,-431.877 1021,-404 1053.02,-381.379 1043.93,-360.138 1069,-330 1096.51,-296.933 1134.2,-263.577 1156.15,-245.118"/>
<polygon fill="midnightblue" stroke="midnightblue" points="1158.54,-247.678 1163.99,-238.591 1154.06,-242.297 1158.54,-247.678"/>
</g>
<!-- Node16 -->
<g id="node16" class="node"><title>Node16</title>
<g id="a_node16"><a xlink:href="$RCInput_8h.html" xlink:title="RCInput.h">
<polygon fill="white" stroke="black" points="1409.49,-275.5 1409.49,-293.5 1470.51,-293.5 1470.51,-275.5 1409.49,-275.5"/>
<text text-anchor="middle" x="1440" y="-281.5" font-family="Helvetica,sans-Serif" font-size="10.00">RCInput.h</text>
</a>
</g>
</g>
<!-- Node3&#45;&gt;Node16 -->
<g id="edge53" class="edge"><title>Node3&#45;&gt;Node16</title>
<path fill="none" stroke="midnightblue" d="M887.255,-446.548C1011.45,-441.554 1316.95,-427.061 1357,-404 1396.97,-380.986 1422.3,-330.019 1433.43,-303.041"/>
<polygon fill="midnightblue" stroke="midnightblue" points="1436.71,-304.273 1437.12,-293.686 1430.2,-301.709 1436.71,-304.273"/>
</g>
<!-- Node17 -->
<g id="node17" class="node"><title>Node17</title>
<g id="a_node17"><a xlink:href="$RCOutput_8h.html" xlink:title="RCOutput.h">
<polygon fill="white" stroke="black" points="1488.6,-275.5 1488.6,-293.5 1557.4,-293.5 1557.4,-275.5 1488.6,-275.5"/>
<text text-anchor="middle" x="1523" y="-281.5" font-family="Helvetica,sans-Serif" font-size="10.00">RCOutput.h</text>
</a>
</g>
</g>
<!-- Node3&#45;&gt;Node17 -->
<g id="edge54" class="edge"><title>Node3&#45;&gt;Node17</title>
<path fill="none" stroke="midnightblue" d="M886.953,-448.33C1005.98,-447.295 1295.02,-440.932 1384,-404 1438.73,-381.283 1487.63,-328.587 1510.04,-301.785"/>
<polygon fill="midnightblue" stroke="midnightblue" points="1512.98,-303.725 1516.6,-293.769 1507.56,-299.294 1512.98,-303.725"/>
</g>
<!-- Node18 -->
<g id="node18" class="node"><title>Node18</title>
<g id="a_node18"><a xlink:href="$SPIDriver_8h.html" xlink:title="SPIDriver.h">
<polygon fill="white" stroke="black" points="1575.71,-275.5 1575.71,-293.5 1642.29,-293.5 1642.29,-275.5 1575.71,-275.5"/>
<text text-anchor="middle" x="1609" y="-281.5" font-family="Helvetica,sans-Serif" font-size="10.00">SPIDriver.h</text>
</a>
</g>
</g>
<!-- Node3&#45;&gt;Node18 -->
<g id="edge49" class="edge"><title>Node3&#45;&gt;Node18</title>
<path fill="none" stroke="midnightblue" d="M887.294,-447.631C1010.98,-445.072 1318.45,-435.631 1416,-404 1487.11,-380.943 1559.05,-326.773 1591.36,-300.421"/>
<polygon fill="midnightblue" stroke="midnightblue" points="1593.92,-302.848 1599.39,-293.775 1589.46,-297.455 1593.92,-302.848"/>
</g>
<!-- Node19 -->
<g id="node19" class="node"><title>Node19</title>
<g id="a_node19"><a xlink:href="$Storage_8h.html" xlink:title="Storage.h">
<polygon fill="white" stroke="black" points="1240.32,-275.5 1240.32,-293.5 1299.68,-293.5 1299.68,-275.5 1240.32,-275.5"/>
<text text-anchor="middle" x="1270" y="-281.5" font-family="Helvetica,sans-Serif" font-size="10.00">Storage.h</text>
</a>
</g>
</g>
<!-- Node3&#45;&gt;Node19 -->
<g id="edge51" class="edge"><title>Node3&#45;&gt;Node19</title>
<path fill="none" stroke="midnightblue" d="M887.007,-446.244C941.198,-442.404 1027.71,-432.029 1097,-404 1130.12,-390.603 1214.14,-328.097 1251.55,-299.656"/>
<polygon fill="midnightblue" stroke="midnightblue" points="1253.77,-302.365 1259.6,-293.516 1249.52,-296.799 1253.77,-302.365"/>
</g>
<!-- Node20 -->
<g id="node20" class="node"><title>Node20</title>
<g id="a_node20"><a xlink:href="$UARTDriver_8h.html" xlink:title="UARTDriver.h">
<polygon fill="white" stroke="black" points="873.248,-275.5 873.248,-293.5 950.752,-293.5 950.752,-275.5 873.248,-275.5"/>
<text text-anchor="middle" x="912" y="-281.5" font-family="Helvetica,sans-Serif" font-size="10.00">UARTDriver.h</text>
</a>
</g>
</g>
<!-- Node3&#45;&gt;Node20 -->
<g id="edge45" class="edge"><title>Node3&#45;&gt;Node20</title>
<path fill="none" stroke="midnightblue" d="M838.924,-440.193C850.922,-414.794 887.298,-337.791 903.756,-302.952"/>
<polygon fill="midnightblue" stroke="midnightblue" points="907.068,-304.134 908.175,-293.597 900.739,-301.144 907.068,-304.134"/>
</g>
<!-- Node23 -->
<g id="node23" class="node"><title>Node23</title>
<g id="a_node23"><a xlink:href="$BetterStream_8h.html" xlink:title="utility/BetterStream.h">
<polygon fill="white" stroke="black" points="622.594,-220.5 622.594,-238.5 731.406,-238.5 731.406,-220.5 622.594,-220.5"/>
<text text-anchor="middle" x="677" y="-226.5" font-family="Helvetica,sans-Serif" font-size="10.00">utility/BetterStream.h</text>
</a>
</g>
</g>
<!-- Node3&#45;&gt;Node23 -->
<g id="edge67" class="edge"><title>Node3&#45;&gt;Node23</title>
<path fill="none" stroke="midnightblue" d="M806.474,-440.444C786.87,-433.602 761.501,-421.978 745,-404 733.905,-391.911 697.691,-290.024 683.137,-248.255"/>
<polygon fill="midnightblue" stroke="midnightblue" points="686.373,-246.904 679.788,-238.604 679.76,-249.199 686.373,-246.904"/>
</g>
<!-- Node25 -->
<g id="node25" class="node"><title>Node25</title>
<g id="a_node25"><a xlink:href="$Stream_8h.html" xlink:title="Stream.h">
<polygon fill="white" stroke="black" points="273.714,-165.5 273.714,-183.5 330.286,-183.5 330.286,-165.5 273.714,-165.5"/>
<text text-anchor="middle" x="302" y="-171.5" font-family="Helvetica,sans-Serif" font-size="10.00">Stream.h</text>
</a>
</g>
</g>
<!-- Node3&#45;&gt;Node25 -->
<g id="edge66" class="edge"><title>Node3&#45;&gt;Node25</title>
<path fill="none" stroke="midnightblue" d="M782.792,-447.1C688.35,-443.853 493.332,-433.672 433,-404 348.467,-362.425 315.151,-239.786 305.364,-193.478"/>
<polygon fill="midnightblue" stroke="midnightblue" points="308.796,-192.791 303.408,-183.669 301.931,-194.16 308.796,-192.791"/>
</g>
<!-- Node26 -->
<g id="node26" class="node"><title>Node26</title>
<g id="a_node26"><a xlink:href="$Print_8h.html" xlink:title="Print.h">
<polygon fill="white" stroke="black" points="279.549,-110.5 279.549,-128.5 324.451,-128.5 324.451,-110.5 279.549,-110.5"/>
<text text-anchor="middle" x="302" y="-116.5" font-family="Helvetica,sans-Serif" font-size="10.00">Print.h</text>
</a>
</g>
</g>
<!-- Node3&#45;&gt;Node26 -->
<g id="edge65" class="edge"><title>Node3&#45;&gt;Node26</title>
<path fill="none" stroke="midnightblue" d="M782.889,-445.006C632.431,-434.226 208,-398.663 208,-340.5 208,-340.5 208,-340.5 208,-228.5 208,-185.844 250.237,-151.847 278.086,-134.067"/>
<polygon fill="midnightblue" stroke="midnightblue" points="280.198,-136.878 286.897,-128.67 276.542,-130.909 280.198,-136.878"/>
</g>
<!-- Node27 -->
<g id="node27" class="node"><title>Node27</title>
<g id="a_node27"><a xlink:href="$I2CDriver_8h.html" xlink:title="I2CDriver.h">
<polygon fill="white" stroke="black" points="423.99,-165.5 423.99,-183.5 490.01,-183.5 490.01,-165.5 423.99,-165.5"/>
<text text-anchor="middle" x="457" y="-171.5" font-family="Helvetica,sans-Serif" font-size="10.00">I2CDriver.h</text>
</a>
</g>
</g>
<!-- Node3&#45;&gt;Node27 -->
<g id="edge46" class="edge"><title>Node3&#45;&gt;Node27</title>
<path fill="none" stroke="midnightblue" d="M790.58,-440.437C758.652,-433.541 715.207,-421.854 680,-404 640.377,-383.906 489.32,-260.864 475,-239 465.975,-225.22 461.41,-206.894 459.142,-193.472"/>
<polygon fill="midnightblue" stroke="midnightblue" points="462.605,-192.964 457.729,-183.558 455.675,-193.952 462.605,-192.964"/>
</g>
<!-- Node28 -->
<g id="node28" class="node"><title>Node28</title>
<g id="a_node28"><a xlink:href="$Scheduler_8h.html" xlink:title="Scheduler.h">
<polygon fill="white" stroke="black" points="786.589,-220.5 786.589,-238.5 855.411,-238.5 855.411,-220.5 786.589,-220.5"/>
<text text-anchor="middle" x="821" y="-226.5" font-family="Helvetica,sans-Serif" font-size="10.00">Scheduler.h</text>
</a>
</g>
</g>
<!-- Node3&#45;&gt;Node28 -->
<g id="edge55" class="edge"><title>Node3&#45;&gt;Node28</title>
<path fill="none" stroke="midnightblue" d="M834.485,-440.483C832.47,-409.107 825.088,-294.159 822.184,-248.944"/>
<polygon fill="midnightblue" stroke="midnightblue" points="825.668,-248.578 821.535,-238.823 818.683,-249.027 825.668,-248.578"/>
</g>
<!-- Node29 -->
<g id="node29" class="node"><title>Node29</title>
<g id="a_node29"><a xlink:href="$Semaphores_8h.html" xlink:title="Semaphores.h">
<polygon fill="white" stroke="black" points="389.48,-330.5 389.48,-348.5 470.52,-348.5 470.52,-330.5 389.48,-330.5"/>
<text text-anchor="middle" x="430" y="-336.5" font-family="Helvetica,sans-Serif" font-size="10.00">Semaphores.h</text>
</a>
</g>
</g>
<!-- Node3&#45;&gt;Node29 -->
<g id="edge60" class="edge"><title>Node3&#45;&gt;Node29</title>
<path fill="none" stroke="midnightblue" d="M782.725,-449.265C689.471,-449.551 499.543,-444.921 450,-404 436.78,-393.081 432.166,-373.494 430.622,-358.951"/>
<polygon fill="midnightblue" stroke="midnightblue" points="434.092,-358.378 429.938,-348.632 427.108,-358.842 434.092,-358.378"/>
</g>
<!-- Node30 -->
<g id="node30" class="node"><title>Node30</title>
<g id="a_node30"><a xlink:href="$Util_8h.html" xlink:title="Util.h">
<polygon fill="white" stroke="black" points="565.608,-220.5 565.608,-238.5 604.392,-238.5 604.392,-220.5 565.608,-220.5"/>
<text text-anchor="middle" x="585" y="-226.5" font-family="Helvetica,sans-Serif" font-size="10.00">Util.h</text>
</a>
</g>
</g>
<!-- Node3&#45;&gt;Node30 -->
<g id="edge62" class="edge"><title>Node3&#45;&gt;Node30</title>
<path fill="none" stroke="midnightblue" d="M803.91,-440.489C781.932,-433.617 752.798,-421.94 732,-404 680.916,-359.935 698.955,-323.441 652,-275 639.76,-262.373 623.349,-251.4 609.832,-243.51"/>
<polygon fill="midnightblue" stroke="midnightblue" points="611.455,-240.407 601.023,-238.557 608.025,-246.509 611.455,-240.407"/>
</g>
<!-- Node6&#45;&gt;Node7 -->
<g id="edge6" class="edge"><title>Node6&#45;&gt;Node7</title>
<path fill="none" stroke="midnightblue" d="M678.807,-56.948C573.861,-45.7114 362.84,-23.1172 279.753,-14.221"/>
<polygon fill="midnightblue" stroke="midnightblue" points="279.9,-10.7168 269.584,-13.1322 279.154,-17.677 279.9,-10.7168"/>
</g>
<!-- Node8 -->
<g id="node8" class="node"><title>Node8</title>
<g id="a_node8"><a xlink:href="$functor_8h.html" xlink:title="utility/functor.h">
<polygon fill="white" stroke="black" points="700.037,-0.5 700.037,-18.5 779.963,-18.5 779.963,-0.5 700.037,-0.5"/>
<text text-anchor="middle" x="740" y="-6.5" font-family="Helvetica,sans-Serif" font-size="10.00">utility/functor.h</text>
</a>
</g>
</g>
<!-- Node6&#45;&gt;Node8 -->
<g id="edge7" class="edge"><title>Node6&#45;&gt;Node8</title>
<path fill="none" stroke="midnightblue" d="M740,-55.2188C740,-48.1769 740,-37.8083 740,-28.8277"/>
<polygon fill="midnightblue" stroke="midnightblue" points="743.5,-28.5495 740,-18.5496 736.5,-28.5496 743.5,-28.5495"/>
</g>
<!-- Node11&#45;&gt;Node12 -->
<g id="edge11" class="edge"><title>Node11&#45;&gt;Node12</title>
<path fill="none" stroke="midnightblue" d="M1270,-385.219C1270,-378.177 1270,-367.808 1270,-358.828"/>
<polygon fill="midnightblue" stroke="midnightblue" points="1273.5,-358.55 1270,-348.55 1266.5,-358.55 1273.5,-358.55"/>
</g>
<!-- Node12&#45;&gt;Node6 -->
<g id="edge12" class="edge"><title>Node12&#45;&gt;Node6</title>
<path fill="none" stroke="midnightblue" d="M1278.98,-330.207C1313.19,-297.677 1430.17,-177.285 1364,-110 1325.94,-71.2998 966.817,-65.9052 811.266,-65.3991"/>
<polygon fill="midnightblue" stroke="midnightblue" points="810.882,-61.8982 800.873,-65.3716 810.863,-68.8981 810.882,-61.8982"/>
</g>
<!-- Node12&#45;&gt;Node13 -->
<g id="edge13" class="edge"><title>Node12&#45;&gt;Node13</title>
<path fill="none" stroke="midnightblue" d="M1247.93,-336.614C1186.77,-331.271 1009.98,-315.051 864,-294 730.018,-274.679 694.737,-265.718 558.219,-239.204"/>
<polygon fill="midnightblue" stroke="midnightblue" points="558.696,-235.731 548.212,-237.264 557.364,-242.603 558.696,-235.731"/>
</g>
<!-- Node12&#45;&gt;Node15 -->
<g id="edge16" class="edge"><title>Node12&#45;&gt;Node15</title>
<path fill="none" stroke="midnightblue" d="M1262.78,-330.382C1246.94,-312.557 1208.86,-269.723 1188.1,-246.357"/>
<polygon fill="midnightblue" stroke="midnightblue" points="1190.56,-243.861 1181.3,-238.712 1185.33,-248.511 1190.56,-243.861"/>
</g>
<!-- Node12&#45;&gt;Node16 -->
<g id="edge19" class="edge"><title>Node12&#45;&gt;Node16</title>
<path fill="none" stroke="midnightblue" d="M1292.22,-331.571C1320.69,-322.697 1370.38,-307.206 1404.21,-296.659"/>
<polygon fill="midnightblue" stroke="midnightblue" points="1405.65,-299.875 1414.15,-293.558 1403.57,-293.193 1405.65,-299.875"/>
</g>
<!-- Node12&#45;&gt;Node17 -->
<g id="edge21" class="edge"><title>Node12&#45;&gt;Node17</title>
<path fill="none" stroke="midnightblue" d="M1292.01,-333.889C1333.46,-325.206 1423.83,-306.275 1478.44,-294.835"/>
<polygon fill="midnightblue" stroke="midnightblue" points="1479.46,-298.197 1488.53,-292.721 1478.03,-291.346 1479.46,-298.197"/>
</g>
<!-- Node12&#45;&gt;Node18 -->
<g id="edge23" class="edge"><title>Node12&#45;&gt;Node18</title>
<path fill="none" stroke="midnightblue" d="M1291.96,-335.55C1339.71,-329.062 1456.73,-312.756 1565.84,-293.95"/>
<polygon fill="midnightblue" stroke="midnightblue" points="1566.44,-297.398 1575.69,-292.241 1565.24,-290.501 1566.44,-297.398"/>
</g>
<!-- Node12&#45;&gt;Node19 -->
<g id="edge25" class="edge"><title>Node12&#45;&gt;Node19</title>
<path fill="none" stroke="midnightblue" d="M1270,-330.219C1270,-323.177 1270,-312.808 1270,-303.828"/>
<polygon fill="midnightblue" stroke="midnightblue" points="1273.5,-303.55 1270,-293.55 1266.5,-303.55 1273.5,-303.55"/>
</g>
<!-- Node12&#45;&gt;Node20 -->
<g id="edge28" class="edge"><title>Node12&#45;&gt;Node20</title>
<path fill="none" stroke="midnightblue" d="M1247.88,-335.225C1191.2,-326.833 1039.71,-304.407 961.007,-292.755"/>
<polygon fill="midnightblue" stroke="midnightblue" points="961.266,-289.256 950.861,-291.253 960.241,-296.18 961.266,-289.256"/>
</g>
<!-- Node13&#45;&gt;Node6 -->
<g id="edge15" class="edge"><title>Node13&#45;&gt;Node6</title>
<path fill="none" stroke="midnightblue" d="M519.709,-220.223C529.754,-198.74 559.61,-140.743 602,-110 625.129,-93.2257 654.876,-82.5782 680.825,-75.9221"/>
<polygon fill="midnightblue" stroke="midnightblue" points="681.669,-79.319 690.563,-73.562 680.02,-72.516 681.669,-79.319"/>
</g>
<!-- Node14 -->
<g id="node14" class="node"><title>Node14</title>
<polygon fill="white" stroke="#bfbfbf" points="216.599,-55.5 216.599,-73.5 275.401,-73.5 275.401,-55.5 216.599,-55.5"/>
<text text-anchor="middle" x="246" y="-61.5" font-family="Helvetica,sans-Serif" font-size="10.00">inttypes.h</text>
</g>
<!-- Node13&#45;&gt;Node14 -->
<g id="edge14" class="edge"><title>Node13&#45;&gt;Node14</title>
<path fill="none" stroke="midnightblue" d="M483.792,-227.296C423.063,-224.329 295.026,-214.525 265,-184 238.781,-157.345 239.983,-109.834 243.047,-83.8022"/>
<polygon fill="midnightblue" stroke="midnightblue" points="246.528,-84.1821 244.447,-73.7937 239.595,-83.2125 246.528,-84.1821"/>
</g>
<!-- Node15&#45;&gt;Node4 -->
<g id="edge17" class="edge"><title>Node15&#45;&gt;Node4</title>
<path fill="none" stroke="midnightblue" d="M1169.28,-220.202C1160.81,-206.179 1141.6,-178.05 1117,-165 1091.65,-151.556 904.818,-131.702 826.447,-123.862"/>
<polygon fill="midnightblue" stroke="midnightblue" points="826.433,-120.343 816.136,-122.837 825.741,-127.309 826.433,-120.343"/>
</g>
<!-- Node15&#45;&gt;Node6 -->
<g id="edge18" class="edge"><title>Node15&#45;&gt;Node6</title>
<path fill="none" stroke="midnightblue" d="M1175.23,-220.356C1177.98,-198.688 1182.1,-139.283 1150,-110 1125.51,-87.6564 921.836,-74.3502 811.081,-68.7002"/>
<polygon fill="midnightblue" stroke="midnightblue" points="811.152,-65.1994 800.989,-68.1934 810.8,-72.1906 811.152,-65.1994"/>
</g>
<!-- Node16&#45;&gt;Node6 -->
<g id="edge20" class="edge"><title>Node16&#45;&gt;Node6</title>
<path fill="none" stroke="midnightblue" d="M1441.95,-275.394C1448.11,-247.501 1464.08,-154.749 1416,-110 1372.47,-69.4807 975.727,-65.2105 811.094,-65.2031"/>
<polygon fill="midnightblue" stroke="midnightblue" points="811.062,-61.703 801.063,-65.2079 811.065,-68.703 811.062,-61.703"/>
</g>
<!-- Node17&#45;&gt;Node6 -->
<g id="edge22" class="edge"><title>Node17&#45;&gt;Node6</title>
<path fill="none" stroke="midnightblue" d="M1521.9,-275.464C1517.51,-246.992 1498.5,-150.463 1438,-110 1386.81,-75.7632 978.382,-67.8433 811.082,-66.0306"/>
<polygon fill="midnightblue" stroke="midnightblue" points="810.932,-62.5289 800.896,-65.9245 810.859,-69.5285 810.932,-62.5289"/>
</g>
<!-- Node18&#45;&gt;Node6 -->
<g id="edge24" class="edge"><title>Node18&#45;&gt;Node6</title>
<path fill="none" stroke="midnightblue" d="M1605.18,-275.321C1591.15,-246.367 1539.3,-148.412 1463,-110 1405.79,-81.2019 981.808,-70.0577 811.002,-66.7068"/>
<polygon fill="midnightblue" stroke="midnightblue" points="810.922,-63.2047 800.856,-66.5111 810.787,-70.2034 810.922,-63.2047"/>
</g>
<!-- Node19&#45;&gt;Node4 -->
<g id="edge26" class="edge"><title>Node19&#45;&gt;Node4</title>
<path fill="none" stroke="midnightblue" d="M1264.34,-275.227C1248.37,-252.695 1200.42,-190.243 1143,-165 1114.38,-152.419 909.315,-131.707 826.528,-123.751"/>
<polygon fill="midnightblue" stroke="midnightblue" points="826.66,-120.248 816.372,-122.78 825.994,-127.216 826.66,-120.248"/>
</g>
<!-- Node19&#45;&gt;Node6 -->
<g id="edge27" class="edge"><title>Node19&#45;&gt;Node6</title>
<path fill="none" stroke="midnightblue" d="M1279.17,-275.168C1307.94,-248.087 1391.7,-161.341 1344,-110 1308.39,-71.6667 962.992,-66.0415 811.084,-65.4357"/>
<polygon fill="midnightblue" stroke="midnightblue" points="810.937,-61.9353 800.925,-65.4016 810.914,-68.9353 810.937,-61.9353"/>
</g>
<!-- Node20&#45;&gt;Node4 -->
<g id="edge29" class="edge"><title>Node20&#45;&gt;Node4</title>
<path fill="none" stroke="midnightblue" d="M905.867,-275.218C896.817,-263.037 879.304,-239.61 864,-220 851.359,-203.803 847.215,-200.52 835,-184 823.646,-168.644 811.516,-150.561 803.044,-137.628"/>
<polygon fill="midnightblue" stroke="midnightblue" points="805.737,-135.348 797.352,-128.872 799.868,-139.163 805.737,-135.348"/>
</g>
<!-- Node20&#45;&gt;Node6 -->
<g id="edge34" class="edge"><title>Node20&#45;&gt;Node6</title>
<path fill="none" stroke="midnightblue" d="M951.028,-277.283C1022.65,-264.17 1163.63,-229.447 1117,-165 1081.32,-115.689 909.749,-86.5585 810.8,-73.5885"/>
<polygon fill="midnightblue" stroke="midnightblue" points="811.236,-70.1159 800.87,-72.3093 810.341,-77.0585 811.236,-70.1159"/>
</g>
<!-- Node20&#45;&gt;Node21 -->
<g id="edge30" class="edge"><title>Node20&#45;&gt;Node21</title>
<path fill="none" stroke="midnightblue" d="M912.376,-275.382C913.172,-258.182 915.046,-217.698 916.149,-193.887"/>
<polygon fill="midnightblue" stroke="midnightblue" points="919.654,-193.863 916.62,-183.712 912.661,-193.539 919.654,-193.863"/>
</g>
<!-- Node20&#45;&gt;Node23 -->
<g id="edge35" class="edge"><title>Node20&#45;&gt;Node23</title>
<path fill="none" stroke="midnightblue" d="M876.309,-275.45C835.125,-266.162 767.324,-250.871 722.416,-240.743"/>
<polygon fill="midnightblue" stroke="midnightblue" points="723.167,-237.324 712.642,-238.538 721.626,-244.153 723.167,-237.324"/>
</g>
<!-- Node21&#45;&gt;Node4 -->
<g id="edge31" class="edge"><title>Node21&#45;&gt;Node4</title>
<path fill="none" stroke="midnightblue" d="M898.015,-165.45C877.366,-156.695 844.136,-142.606 820.384,-132.535"/>
<polygon fill="midnightblue" stroke="midnightblue" points="821.736,-129.307 811.163,-128.625 819.004,-135.751 821.736,-129.307"/>
</g>
<!-- Node21&#45;&gt;Node5 -->
<g id="edge33" class="edge"><title>Node21&#45;&gt;Node5</title>
<path fill="none" stroke="midnightblue" d="M976.233,-165.45C1057.14,-154.455 1199.95,-135.048 1268.36,-125.751"/>
<polygon fill="midnightblue" stroke="midnightblue" points="1269.24,-129.164 1278.68,-124.349 1268.3,-122.228 1269.24,-129.164"/>
</g>
<!-- Node22 -->
<g id="node22" class="node"><title>Node22</title>
<polygon fill="white" stroke="#bfbfbf" points="893.158,-110.5 893.158,-128.5 940.842,-128.5 940.842,-110.5 893.158,-110.5"/>
<text text-anchor="middle" x="917" y="-116.5" font-family="Helvetica,sans-Serif" font-size="10.00">stdlib.h</text>
</g>
<!-- Node21&#45;&gt;Node22 -->
<g id="edge32" class="edge"><title>Node21&#45;&gt;Node22</title>
<path fill="none" stroke="midnightblue" d="M917,-165.219C917,-158.177 917,-147.808 917,-138.828"/>
<polygon fill="midnightblue" stroke="midnightblue" points="920.5,-138.55 917,-128.55 913.5,-138.55 920.5,-138.55"/>
</g>
<!-- Node23&#45;&gt;Node6 -->
<g id="edge38" class="edge"><title>Node23&#45;&gt;Node6</title>
<path fill="none" stroke="midnightblue" d="M677.589,-220.485C678.664,-208.245 681.468,-184.287 688,-165 698.43,-134.204 717.347,-101.294 729.262,-82.1008"/>
<polygon fill="midnightblue" stroke="midnightblue" points="732.236,-83.9458 734.626,-73.6241 726.321,-80.2024 732.236,-83.9458"/>
</g>
<!-- Node23&#45;&gt;Node21 -->
<g id="edge37" class="edge"><title>Node23&#45;&gt;Node21</title>
<path fill="none" stroke="midnightblue" d="M713.451,-220.45C755.51,-211.162 824.754,-195.871 870.617,-185.743"/>
<polygon fill="midnightblue" stroke="midnightblue" points="871.59,-189.112 880.6,-183.538 870.081,-182.277 871.59,-189.112"/>
</g>
<!-- Node24 -->
<g id="node24" class="node"><title>Node24</title>
<polygon fill="white" stroke="#bfbfbf" points="583.934,-165.5 583.934,-183.5 636.066,-183.5 636.066,-165.5 583.934,-165.5"/>
<text text-anchor="middle" x="610" y="-171.5" font-family="Helvetica,sans-Serif" font-size="10.00">stdarg.h</text>
</g>
<!-- Node23&#45;&gt;Node24 -->
<g id="edge36" class="edge"><title>Node23&#45;&gt;Node24</title>
<path fill="none" stroke="midnightblue" d="M666.824,-220.45C656.592,-212.357 640.598,-199.704 628.181,-189.882"/>
<polygon fill="midnightblue" stroke="midnightblue" points="630.286,-187.084 620.272,-183.625 625.943,-192.574 630.286,-187.084"/>
</g>
<!-- Node23&#45;&gt;Node25 -->
<g id="edge39" class="edge"><title>Node23&#45;&gt;Node25</title>
<path fill="none" stroke="midnightblue" d="M622.472,-220.793C545.729,-209.947 407.758,-190.447 340.697,-180.969"/>
<polygon fill="midnightblue" stroke="midnightblue" points="340.955,-177.471 330.564,-179.537 339.975,-184.402 340.955,-177.471"/>
</g>
<!-- Node25&#45;&gt;Node6 -->
<g id="edge40" class="edge"><title>Node25&#45;&gt;Node6</title>
<path fill="none" stroke="midnightblue" d="M309.428,-165.169C322.525,-151.098 351.26,-122.899 382,-110 432.257,-88.9118 579.647,-75.9294 668.869,-69.7783"/>
<polygon fill="midnightblue" stroke="midnightblue" points="669.176,-73.2656 678.917,-69.0975 668.703,-66.2816 669.176,-73.2656"/>
</g>
<!-- Node25&#45;&gt;Node26 -->
<g id="edge41" class="edge"><title>Node25&#45;&gt;Node26</title>
<path fill="none" stroke="midnightblue" d="M302,-165.219C302,-158.177 302,-147.808 302,-138.828"/>
<polygon fill="midnightblue" stroke="midnightblue" points="305.5,-138.55 302,-128.55 298.5,-138.55 305.5,-138.55"/>
</g>
<!-- Node26&#45;&gt;Node6 -->
<g id="edge42" class="edge"><title>Node26&#45;&gt;Node6</title>
<path fill="none" stroke="midnightblue" d="M324.609,-113.157C329.962,-112.008 335.666,-110.876 341,-110 455.106,-91.254 588.891,-78.1158 668.925,-71.19"/>
<polygon fill="midnightblue" stroke="midnightblue" points="669.229,-74.6769 678.894,-70.3355 668.631,-67.7025 669.229,-74.6769"/>
</g>
<!-- Node26&#45;&gt;Node7 -->
<g id="edge44" class="edge"><title>Node26&#45;&gt;Node7</title>
<path fill="none" stroke="midnightblue" d="M300.854,-110.243C298.856,-97.6876 293.96,-73.3225 284,-55 278.186,-44.3048 269.398,-33.9761 261.635,-25.9663"/>
<polygon fill="midnightblue" stroke="midnightblue" points="263.942,-23.326 254.362,-18.8017 259.03,-28.3128 263.942,-23.326"/>
</g>
<!-- Node26&#45;&gt;Node14 -->
<g id="edge43" class="edge"><title>Node26&#45;&gt;Node14</title>
<path fill="none" stroke="midnightblue" d="M293.25,-110.219C284.9,-102.316 272.124,-90.2241 261.961,-80.6057"/>
<polygon fill="midnightblue" stroke="midnightblue" points="264.174,-77.8814 254.505,-73.5496 259.362,-82.9655 264.174,-77.8814"/>
</g>
<!-- Node27&#45;&gt;Node4 -->
<g id="edge47" class="edge"><title>Node27&#45;&gt;Node4</title>
<path fill="none" stroke="midnightblue" d="M490.038,-168.273C553.678,-158.205 692.692,-136.211 757.482,-125.961"/>
<polygon fill="midnightblue" stroke="midnightblue" points="758.256,-129.382 767.587,-124.362 757.162,-122.468 758.256,-129.382"/>
</g>
<!-- Node27&#45;&gt;Node6 -->
<g id="edge48" class="edge"><title>Node27&#45;&gt;Node6</title>
<path fill="none" stroke="midnightblue" d="M460.562,-165.338C467.047,-151.522 482.153,-123.697 504,-110 530.966,-93.0941 609.701,-80.526 668.869,-73.1344"/>
<polygon fill="midnightblue" stroke="midnightblue" points="669.427,-76.5924 678.928,-71.9037 668.577,-69.6442 669.427,-76.5924"/>
</g>
<!-- Node28&#45;&gt;Node4 -->
<g id="edge56" class="edge"><title>Node28&#45;&gt;Node4</title>
<path fill="none" stroke="midnightblue" d="M816.717,-220.197C812.369,-211.425 805.759,-197.079 802,-184 797.752,-169.218 795.179,-151.949 793.71,-139.155"/>
<polygon fill="midnightblue" stroke="midnightblue" points="797.156,-138.452 792.654,-128.862 790.193,-139.167 797.156,-138.452"/>
</g>
<!-- Node28&#45;&gt;Node6 -->
<g id="edge59" class="edge"><title>Node28&#45;&gt;Node6</title>
<path fill="none" stroke="midnightblue" d="M814.898,-220.406C802.755,-203.971 775.328,-165.175 759,-129 752.336,-114.236 747.256,-96.5091 744.033,-83.5416"/>
<polygon fill="midnightblue" stroke="midnightblue" points="747.383,-82.4976 741.685,-73.5652 740.569,-84.101 747.383,-82.4976"/>
</g>
<!-- Node28&#45;&gt;Node9 -->
<g id="edge58" class="edge"><title>Node28&#45;&gt;Node9</title>
<path fill="none" stroke="midnightblue" d="M855.462,-220.793C896.759,-211.558 966.11,-196.049 1011.96,-185.795"/>
<polygon fill="midnightblue" stroke="midnightblue" points="1012.95,-189.162 1021.94,-183.564 1011.42,-182.33 1012.95,-189.162"/>
</g>
<!-- Node28&#45;&gt;Node21 -->
<g id="edge57" class="edge"><title>Node28&#45;&gt;Node21</title>
<path fill="none" stroke="midnightblue" d="M835.58,-220.45C850.946,-211.968 875.381,-198.477 893.478,-188.486"/>
<polygon fill="midnightblue" stroke="midnightblue" points="895.22,-191.523 902.282,-183.625 891.836,-185.394 895.22,-191.523"/>
</g>
<!-- Node29&#45;&gt;Node6 -->
<g id="edge61" class="edge"><title>Node29&#45;&gt;Node6</title>
<path fill="none" stroke="midnightblue" d="M425.555,-330.374C416.339,-312.742 396,-269.421 396,-230.5 396,-230.5 396,-230.5 396,-173.5 396,-126.7 437.049,-128.587 480,-110 540.509,-83.8153 615.192,-73.0081 668.968,-68.5638"/>
<polygon fill="midnightblue" stroke="midnightblue" points="669.395,-72.0413 679.096,-67.7814 668.856,-65.0621 669.395,-72.0413"/>
</g>
<!-- Node30&#45;&gt;Node6 -->
<g id="edge64" class="edge"><title>Node30&#45;&gt;Node6</title>
<path fill="none" stroke="midnightblue" d="M580.676,-220.5C574.486,-207.862 564.902,-182.881 575,-165 601.688,-117.74 660.826,-90.4181 700.56,-76.7446"/>
<polygon fill="midnightblue" stroke="midnightblue" points="701.814,-80.0167 710.212,-73.5585 699.619,-73.3694 701.814,-80.0167"/>
</g>
<!-- Node30&#45;&gt;Node24 -->
<g id="edge63" class="edge"><title>Node30&#45;&gt;Node24</title>
<path fill="none" stroke="midnightblue" d="M588.906,-220.219C592.376,-212.864 597.557,-201.88 601.916,-192.639"/>
<polygon fill="midnightblue" stroke="midnightblue" points="605.102,-194.087 606.203,-183.55 598.771,-191.101 605.102,-194.087"/>
</g>
<!-- Node34&#45;&gt;Node4 -->
<g id="edge76" class="edge"><title>Node34&#45;&gt;Node4</title>
<path fill="none" stroke="midnightblue" d="M179.926,-167.651C328.248,-156.225 651.261,-131.342 757.422,-123.164"/>
<polygon fill="midnightblue" stroke="midnightblue" points="757.875,-126.639 767.577,-122.381 757.337,-119.66 757.875,-126.639"/>
</g>
<!-- Node34&#45;&gt;Node7 -->
<g id="edge75" class="edge"><title>Node34&#45;&gt;Node7</title>
<path fill="none" stroke="midnightblue" d="M111.186,-165.193C133.536,-139.356 202.077,-60.12 231.43,-26.1878"/>
<polygon fill="midnightblue" stroke="midnightblue" points="234.101,-28.45 237.996,-18.5971 228.806,-23.8704 234.101,-28.45"/>
</g>
<!-- Node35&#45;&gt;Node3 -->
<g id="edge78" class="edge"><title>Node35&#45;&gt;Node3</title>
<path fill="none" stroke="midnightblue" d="M764.606,-495.45C777.647,-487.123 798.244,-473.97 813.797,-464.039"/>
<polygon fill="midnightblue" stroke="midnightblue" points="815.731,-466.957 822.275,-458.625 811.964,-461.057 815.731,-466.957"/>
</g>
<!-- Node36&#45;&gt;Node2 -->
<g id="edge81" class="edge"><title>Node36&#45;&gt;Node2</title>
<path fill="none" stroke="midnightblue" d="M305,-605.219C305,-598.177 305,-587.808 305,-578.828"/>
<polygon fill="midnightblue" stroke="midnightblue" points="308.5,-578.55 305,-568.55 301.5,-578.55 308.5,-578.55"/>
</g>
</g>
</svg>
