<?xml version="1.0" encoding="UTF-8" standalone="no"?>
<!DOCTYPE svg PUBLIC "-//W3C//DTD SVG 1.1//EN"
 "http://www.w3.org/Graphics/SVG/1.1/DTD/svg11.dtd">
<!-- Generated by graphviz version 2.38.0 (20140413.2041)
 -->
<!-- Title: libraries/AP_HAL_PX4/AP_HAL_PX4.h Pages: 1 -->
<svg width="1205pt" height="167pt"
 viewBox="0.00 0.00 1204.61 167.00" xmlns="http://www.w3.org/2000/svg" xmlns:xlink="http://www.w3.org/1999/xlink">
<g id="graph0" class="graph" transform="scale(1 1) rotate(0) translate(4 163)">
<title>libraries/AP_HAL_PX4/AP_HAL_PX4.h</title>
<polygon fill="white" stroke="none" points="-4,4 -4,-163 1200.61,-163 1200.61,4 -4,4"/>
<!-- Node1 -->
<g id="node1" class="node"><title>Node1</title>
<polygon fill="#bfbfbf" stroke="black" points="466,-130.5 466,-158.5 582.605,-158.5 582.605,-130.5 466,-130.5"/>
<text text-anchor="start" x="474" y="-146.5" font-family="Helvetica,sans-Serif" font-size="10.00">libraries/AP_HAL_PX4</text>
<text text-anchor="middle" x="524.303" y="-136.5" font-family="Helvetica,sans-Serif" font-size="10.00">/AP_HAL_PX4.h</text>
</g>
<!-- Node2 -->
<g id="node2" class="node"><title>Node2</title>
<g id="a_node2"><a xlink:href="$PX4_2AnalogIn_8h.html" xlink:title="libraries/AP_HAL_PX4\l/AnalogIn.h">
<polygon fill="white" stroke="black" points="337,-65.5 337,-93.5 453.605,-93.5 453.605,-65.5 337,-65.5"/>
<text text-anchor="start" x="345" y="-81.5" font-family="Helvetica,sans-Serif" font-size="10.00">libraries/AP_HAL_PX4</text>
<text text-anchor="middle" x="395.303" y="-71.5" font-family="Helvetica,sans-Serif" font-size="10.00">/AnalogIn.h</text>
</a>
</g>
</g>
<!-- Node1&#45;&gt;Node2 -->
<g id="edge1" class="edge"><title>Node1&#45;&gt;Node2</title>
<path fill="none" stroke="midnightblue" d="M488.31,-125.922C467.28,-115.652 441.188,-102.909 421.997,-93.5369"/>
<polygon fill="midnightblue" stroke="midnightblue" points="487.052,-129.203 497.574,-130.446 490.124,-122.913 487.052,-129.203"/>
</g>
<!-- Node4 -->
<g id="node4" class="node"><title>Node4</title>
<g id="a_node4"><a xlink:href="$HAL__PX4__Class_8cpp.html" xlink:title="libraries/AP_HAL_PX4\l/HAL_PX4_Class.cpp">
<polygon fill="white" stroke="black" points="405,-0.5 405,-28.5 521.605,-28.5 521.605,-0.5 405,-0.5"/>
<text text-anchor="start" x="413" y="-16.5" font-family="Helvetica,sans-Serif" font-size="10.00">libraries/AP_HAL_PX4</text>
<text text-anchor="middle" x="463.303" y="-6.5" font-family="Helvetica,sans-Serif" font-size="10.00">/HAL_PX4_Class.cpp</text>
</a>
</g>
</g>
<!-- Node1&#45;&gt;Node4 -->
<g id="edge13" class="edge"><title>Node1&#45;&gt;Node4</title>
<path fill="none" stroke="midnightblue" d="M513.438,-121.225C509.305,-112.716 504.566,-102.918 500.303,-94 489.32,-71.0279 476.713,-44.1754 469.413,-28.5772"/>
<polygon fill="midnightblue" stroke="midnightblue" points="510.425,-123.031 517.947,-130.491 516.719,-119.968 510.425,-123.031"/>
</g>
<!-- Node5 -->
<g id="node5" class="node"><title>Node5</title>
<g id="a_node5"><a xlink:href="$AP__HAL__PX4_2Scheduler_8cpp.html" xlink:title="libraries/AP_HAL_PX4\l/Scheduler.cpp">
<polygon fill="white" stroke="black" points="270,-0.5 270,-28.5 386.605,-28.5 386.605,-0.5 270,-0.5"/>
<text text-anchor="start" x="278" y="-16.5" font-family="Helvetica,sans-Serif" font-size="10.00">libraries/AP_HAL_PX4</text>
<text text-anchor="middle" x="328.303" y="-6.5" font-family="Helvetica,sans-Serif" font-size="10.00">/Scheduler.cpp</text>
</a>
</g>
</g>
<!-- Node1&#45;&gt;Node5 -->
<g id="edge30" class="edge"><title>Node1&#45;&gt;Node5</title>
<path fill="none" stroke="midnightblue" d="M455.502,-135.123C405.536,-127.461 344.04,-114.205 328.303,-94 313.732,-75.2914 318.968,-45.7497 323.818,-28.7441"/>
<polygon fill="midnightblue" stroke="midnightblue" points="455.241,-138.623 465.646,-136.628 456.268,-131.699 455.241,-138.623"/>
</g>
<!-- Node6 -->
<g id="node6" class="node"><title>Node6</title>
<g id="a_node6"><a xlink:href="$HAL__PX4__Class_8h.html" xlink:title="libraries/AP_HAL_PX4\l/HAL_PX4_Class.h">
<polygon fill="white" stroke="black" points="509,-65.5 509,-93.5 625.605,-93.5 625.605,-65.5 509,-65.5"/>
<text text-anchor="start" x="517" y="-81.5" font-family="Helvetica,sans-Serif" font-size="10.00">libraries/AP_HAL_PX4</text>
<text text-anchor="middle" x="567.303" y="-71.5" font-family="Helvetica,sans-Serif" font-size="10.00">/HAL_PX4_Class.h</text>
</a>
</g>
</g>
<!-- Node1&#45;&gt;Node6 -->
<g id="edge5" class="edge"><title>Node1&#45;&gt;Node6</title>
<path fill="none" stroke="midnightblue" d="M532.764,-121.638C538.579,-112.269 546.123,-101.643 552.814,-93.5369"/>
<polygon fill="midnightblue" stroke="midnightblue" points="529.64,-120.046 527.62,-130.446 535.685,-123.576 529.64,-120.046"/>
</g>
<!-- Node7 -->
<g id="node7" class="node"><title>Node7</title>
<g id="a_node7"><a xlink:href="$PX4_2GPIO_8h.html" xlink:title="libraries/AP_HAL_PX4\l/GPIO.h">
<polygon fill="white" stroke="black" points="779,-65.5 779,-93.5 895.605,-93.5 895.605,-65.5 779,-65.5"/>
<text text-anchor="start" x="787" y="-81.5" font-family="Helvetica,sans-Serif" font-size="10.00">libraries/AP_HAL_PX4</text>
<text text-anchor="middle" x="837.303" y="-71.5" font-family="Helvetica,sans-Serif" font-size="10.00">/GPIO.h</text>
</a>
</g>
</g>
<!-- Node1&#45;&gt;Node7 -->
<g id="edge8" class="edge"><title>Node1&#45;&gt;Node7</title>
<path fill="none" stroke="midnightblue" d="M592.93,-129.687C648.559,-118.49 726.105,-102.882 778.819,-92.2715"/>
<polygon fill="midnightblue" stroke="midnightblue" points="591.921,-126.32 582.808,-131.724 593.303,-133.182 591.921,-126.32"/>
</g>
<!-- Node10 -->
<g id="node10" class="node"><title>Node10</title>
<g id="a_node10"><a xlink:href="$PX4_2UARTDriver_8h.html" xlink:title="libraries/AP_HAL_PX4\l/UARTDriver.h">
<polygon fill="white" stroke="black" points="644,-65.5 644,-93.5 760.605,-93.5 760.605,-65.5 644,-65.5"/>
<text text-anchor="start" x="652" y="-81.5" font-family="Helvetica,sans-Serif" font-size="10.00">libraries/AP_HAL_PX4</text>
<text text-anchor="middle" x="702.303" y="-71.5" font-family="Helvetica,sans-Serif" font-size="10.00">/UARTDriver.h</text>
</a>
</g>
</g>
<!-- Node1&#45;&gt;Node10 -->
<g id="edge14" class="edge"><title>Node1&#45;&gt;Node10</title>
<path fill="none" stroke="midnightblue" d="M570.857,-127.023C600.378,-116.575 638.033,-103.247 665.468,-93.5369"/>
<polygon fill="midnightblue" stroke="midnightblue" points="569.444,-123.81 561.184,-130.446 571.779,-130.409 569.444,-123.81"/>
</g>
<!-- Node12 -->
<g id="node12" class="node"><title>Node12</title>
<g id="a_node12"><a xlink:href="$PX4_2RCInput_8h.html" xlink:title="libraries/AP_HAL_PX4\l/RCInput.h">
<polygon fill="white" stroke="black" points="30,-65.5 30,-93.5 146.605,-93.5 146.605,-65.5 30,-65.5"/>
<text text-anchor="start" x="38" y="-81.5" font-family="Helvetica,sans-Serif" font-size="10.00">libraries/AP_HAL_PX4</text>
<text text-anchor="middle" x="88.3027" y="-71.5" font-family="Helvetica,sans-Serif" font-size="10.00">/RCInput.h</text>
</a>
</g>
</g>
<!-- Node1&#45;&gt;Node12 -->
<g id="edge19" class="edge"><title>Node1&#45;&gt;Node12</title>
<path fill="none" stroke="midnightblue" d="M455.687,-135.566C381.63,-126.701 260.309,-111.302 156.303,-94 153.216,-93.4865 150.054,-92.938 146.866,-92.367"/>
<polygon fill="midnightblue" stroke="midnightblue" points="455.472,-139.065 465.816,-136.773 456.301,-132.114 455.472,-139.065"/>
</g>
<!-- Node14 -->
<g id="node14" class="node"><title>Node14</title>
<g id="a_node14"><a xlink:href="$PX4_2RCOutput_8h.html" xlink:title="libraries/AP_HAL_PX4\l/RCOutput.h">
<polygon fill="white" stroke="black" points="165,-65.5 165,-93.5 281.605,-93.5 281.605,-65.5 165,-65.5"/>
<text text-anchor="start" x="173" y="-81.5" font-family="Helvetica,sans-Serif" font-size="10.00">libraries/AP_HAL_PX4</text>
<text text-anchor="middle" x="223.303" y="-71.5" font-family="Helvetica,sans-Serif" font-size="10.00">/RCOutput.h</text>
</a>
</g>
</g>
<!-- Node1&#45;&gt;Node14 -->
<g id="edge23" class="edge"><title>Node1&#45;&gt;Node14</title>
<path fill="none" stroke="midnightblue" d="M456.006,-129.205C403.481,-118.212 331.686,-103.185 281.789,-92.7414"/>
<polygon fill="midnightblue" stroke="midnightblue" points="455.405,-132.655 465.91,-131.278 456.839,-125.804 455.405,-132.655"/>
</g>
<!-- Node16 -->
<g id="node16" class="node"><title>Node16</title>
<g id="a_node16"><a xlink:href="$PX4_2I2CDriver_8h.html" xlink:title="libraries/AP_HAL_PX4\l/I2CDriver.h">
<polygon fill="white" stroke="black" points="914,-65.5 914,-93.5 1030.61,-93.5 1030.61,-65.5 914,-65.5"/>
<text text-anchor="start" x="922" y="-81.5" font-family="Helvetica,sans-Serif" font-size="10.00">libraries/AP_HAL_PX4</text>
<text text-anchor="middle" x="972.303" y="-71.5" font-family="Helvetica,sans-Serif" font-size="10.00">/I2CDriver.h</text>
</a>
</g>
</g>
<!-- Node1&#45;&gt;Node16 -->
<g id="edge27" class="edge"><title>Node1&#45;&gt;Node16</title>
<path fill="none" stroke="midnightblue" d="M592.699,-135.977C668.93,-127.27 795.765,-111.823 904.303,-94 907.391,-93.4929 910.553,-92.9496 913.742,-92.3826"/>
<polygon fill="midnightblue" stroke="midnightblue" points="592.284,-132.502 582.743,-137.109 593.075,-139.457 592.284,-132.502"/>
</g>
<!-- Node3 -->
<g id="node3" class="node"><title>Node3</title>
<g id="a_node3"><a xlink:href="$PX4_2AnalogIn_8cpp.html" xlink:title="libraries/AP_HAL_PX4\l/AnalogIn.cpp">
<polygon fill="white" stroke="black" points="675,-0.5 675,-28.5 791.605,-28.5 791.605,-0.5 675,-0.5"/>
<text text-anchor="start" x="683" y="-16.5" font-family="Helvetica,sans-Serif" font-size="10.00">libraries/AP_HAL_PX4</text>
<text text-anchor="middle" x="733.303" y="-6.5" font-family="Helvetica,sans-Serif" font-size="10.00">/AnalogIn.cpp</text>
</a>
</g>
</g>
<!-- Node2&#45;&gt;Node3 -->
<g id="edge2" class="edge"><title>Node2&#45;&gt;Node3</title>
<path fill="none" stroke="midnightblue" d="M463.723,-66.2422C518.334,-56.3895 596.777,-42.083 665.303,-29 668.377,-28.4131 671.527,-27.8062 674.708,-27.1894"/>
<polygon fill="midnightblue" stroke="midnightblue" points="463.032,-62.8103 453.811,-68.0288 464.274,-69.6993 463.032,-62.8103"/>
</g>
<!-- Node2&#45;&gt;Node4 -->
<g id="edge3" class="edge"><title>Node2&#45;&gt;Node4</title>
<path fill="none" stroke="midnightblue" d="M417.021,-58.3785C427.568,-48.6076 439.935,-37.1493 449.231,-28.5369"/>
<polygon fill="midnightblue" stroke="midnightblue" points="414.349,-56.0826 409.392,-65.4464 419.107,-61.2176 414.349,-56.0826"/>
</g>
<!-- Node2&#45;&gt;Node5 -->
<g id="edge4" class="edge"><title>Node2&#45;&gt;Node5</title>
<path fill="none" stroke="midnightblue" d="M373.904,-58.3785C363.512,-48.6076 351.327,-37.1493 342.167,-28.5369"/>
<polygon fill="midnightblue" stroke="midnightblue" points="371.737,-61.1459 381.42,-65.4464 376.533,-56.0462 371.737,-61.1459"/>
</g>
<!-- Node6&#45;&gt;Node1 -->
<g id="edge6" class="edge"><title>Node6&#45;&gt;Node1</title>
<path fill="none" stroke="midnightblue" d="M558.854,-102.343C553.041,-111.71 545.498,-122.337 538.805,-130.446"/>
<polygon fill="midnightblue" stroke="midnightblue" points="561.976,-103.938 563.995,-93.5369 555.93,-100.408 561.976,-103.938"/>
</g>
<!-- Node6&#45;&gt;Node4 -->
<g id="edge7" class="edge"><title>Node6&#45;&gt;Node4</title>
<path fill="none" stroke="midnightblue" d="M536.902,-60.0843C520.198,-49.9655 499.878,-37.6559 484.824,-28.5369"/>
<polygon fill="midnightblue" stroke="midnightblue" points="535.387,-63.2587 545.754,-65.4464 539.014,-57.2715 535.387,-63.2587"/>
</g>
<!-- Node7&#45;&gt;Node3 -->
<g id="edge9" class="edge"><title>Node7&#45;&gt;Node3</title>
<path fill="none" stroke="midnightblue" d="M806.902,-60.0843C790.198,-49.9655 769.878,-37.6559 754.824,-28.5369"/>
<polygon fill="midnightblue" stroke="midnightblue" points="805.387,-63.2587 815.754,-65.4464 809.014,-57.2715 805.387,-63.2587"/>
</g>
<!-- Node7&#45;&gt;Node4 -->
<g id="edge11" class="edge"><title>Node7&#45;&gt;Node4</title>
<path fill="none" stroke="midnightblue" d="M768.86,-64.9793C662.257,-46.6118 633.598,-46.8813 531.303,-29 528.22,-28.4612 525.062,-27.8925 521.876,-27.3057"/>
<polygon fill="midnightblue" stroke="midnightblue" points="768.278,-68.4305 778.729,-66.6943 769.476,-61.5339 768.278,-68.4305"/>
</g>
<!-- Node8 -->
<g id="node8" class="node"><title>Node8</title>
<g id="a_node8"><a xlink:href="$AP__HAL__PX4_2GPIO_8cpp.html" xlink:title="libraries/AP_HAL_PX4\l/GPIO.cpp">
<polygon fill="white" stroke="black" points="945,-0.5 945,-28.5 1061.61,-28.5 1061.61,-0.5 945,-0.5"/>
<text text-anchor="start" x="953" y="-16.5" font-family="Helvetica,sans-Serif" font-size="10.00">libraries/AP_HAL_PX4</text>
<text text-anchor="middle" x="1003.3" y="-6.5" font-family="Helvetica,sans-Serif" font-size="10.00">/GPIO.cpp</text>
</a>
</g>
</g>
<!-- Node7&#45;&gt;Node8 -->
<g id="edge10" class="edge"><title>Node7&#45;&gt;Node8</title>
<path fill="none" stroke="midnightblue" d="M881.078,-61.8864C908.554,-51.4588 943.477,-38.2048 968.951,-28.5369"/>
<polygon fill="midnightblue" stroke="midnightblue" points="879.805,-58.6258 871.698,-65.4464 882.289,-65.1703 879.805,-58.6258"/>
</g>
<!-- Node9 -->
<g id="node9" class="node"><title>Node9</title>
<g id="a_node9"><a xlink:href="$PX4_2UARTDriver_8cpp.html" xlink:title="libraries/AP_HAL_PX4\l/UARTDriver.cpp">
<polygon fill="white" stroke="black" points="810,-0.5 810,-28.5 926.605,-28.5 926.605,-0.5 810,-0.5"/>
<text text-anchor="start" x="818" y="-16.5" font-family="Helvetica,sans-Serif" font-size="10.00">libraries/AP_HAL_PX4</text>
<text text-anchor="middle" x="868.303" y="-6.5" font-family="Helvetica,sans-Serif" font-size="10.00">/UARTDriver.cpp</text>
</a>
</g>
</g>
<!-- Node7&#45;&gt;Node9 -->
<g id="edge12" class="edge"><title>Node7&#45;&gt;Node9</title>
<path fill="none" stroke="midnightblue" d="M848.205,-56.3445C852.779,-47.0483 857.941,-36.5583 861.888,-28.5369"/>
<polygon fill="midnightblue" stroke="midnightblue" points="845.001,-54.9285 843.726,-65.4464 851.281,-58.0191 845.001,-54.9285"/>
</g>
<!-- Node10&#45;&gt;Node4 -->
<g id="edge15" class="edge"><title>Node10&#45;&gt;Node4</title>
<path fill="none" stroke="midnightblue" d="M642.873,-62.8345C602.804,-52.2724 550.558,-38.5003 512.76,-28.5369"/>
<polygon fill="midnightblue" stroke="midnightblue" points="642.22,-66.2818 652.782,-65.4464 644.004,-59.513 642.22,-66.2818"/>
</g>
<!-- Node10&#45;&gt;Node5 -->
<g id="edge16" class="edge"><title>Node10&#45;&gt;Node5</title>
<path fill="none" stroke="midnightblue" d="M633.86,-64.9793C527.257,-46.6118 498.598,-46.8813 396.303,-29 393.22,-28.4612 390.062,-27.8925 386.876,-27.3057"/>
<polygon fill="midnightblue" stroke="midnightblue" points="633.278,-68.4305 643.729,-66.6943 634.476,-61.5339 633.278,-68.4305"/>
</g>
<!-- Node10&#45;&gt;Node9 -->
<g id="edge17" class="edge"><title>Node10&#45;&gt;Node9</title>
<path fill="none" stroke="midnightblue" d="M746.078,-61.8864C773.554,-51.4588 808.477,-38.2048 833.951,-28.5369"/>
<polygon fill="midnightblue" stroke="midnightblue" points="744.805,-58.6258 736.698,-65.4464 747.289,-65.1703 744.805,-58.6258"/>
</g>
<!-- Node11 -->
<g id="node11" class="node"><title>Node11</title>
<g id="a_node11"><a xlink:href="$PX4_2Util_8cpp.html" xlink:title="libraries/AP_HAL_PX4\l/Util.cpp">
<polygon fill="white" stroke="black" points="540,-0.5 540,-28.5 656.605,-28.5 656.605,-0.5 540,-0.5"/>
<text text-anchor="start" x="548" y="-16.5" font-family="Helvetica,sans-Serif" font-size="10.00">libraries/AP_HAL_PX4</text>
<text text-anchor="middle" x="598.303" y="-6.5" font-family="Helvetica,sans-Serif" font-size="10.00">/Util.cpp</text>
</a>
</g>
</g>
<!-- Node10&#45;&gt;Node11 -->
<g id="edge18" class="edge"><title>Node10&#45;&gt;Node11</title>
<path fill="none" stroke="midnightblue" d="M671.902,-60.0843C655.198,-49.9655 634.878,-37.6559 619.824,-28.5369"/>
<polygon fill="midnightblue" stroke="midnightblue" points="670.387,-63.2587 680.754,-65.4464 674.014,-57.2715 670.387,-63.2587"/>
</g>
<!-- Node12&#45;&gt;Node4 -->
<g id="edge20" class="edge"><title>Node12&#45;&gt;Node4</title>
<path fill="none" stroke="midnightblue" d="M156.783,-64.9738C263.795,-46.5738 292.581,-46.923 395.303,-29 398.386,-28.4621 401.544,-27.8942 404.73,-27.308"/>
<polygon fill="midnightblue" stroke="midnightblue" points="156.131,-61.5346 146.876,-66.692 157.327,-68.4316 156.131,-61.5346"/>
</g>
<!-- Node12&#45;&gt;Node5 -->
<g id="edge22" class="edge"><title>Node12&#45;&gt;Node5</title>
<path fill="none" stroke="midnightblue" d="M147.725,-62.9016C187.995,-52.3308 240.602,-38.5214 278.638,-28.5369"/>
<polygon fill="midnightblue" stroke="midnightblue" points="146.815,-59.522 138.031,-65.4464 148.592,-66.2926 146.815,-59.522"/>
</g>
<!-- Node13 -->
<g id="node13" class="node"><title>Node13</title>
<g id="a_node13"><a xlink:href="$PX4_2RCInput_8cpp.html" xlink:title="libraries/AP_HAL_PX4\l/RCInput.cpp">
<polygon fill="white" stroke="black" points="0,-0.5 0,-28.5 116.605,-28.5 116.605,-0.5 0,-0.5"/>
<text text-anchor="start" x="8" y="-16.5" font-family="Helvetica,sans-Serif" font-size="10.00">libraries/AP_HAL_PX4</text>
<text text-anchor="middle" x="58.3027" y="-6.5" font-family="Helvetica,sans-Serif" font-size="10.00">/RCInput.cpp</text>
</a>
</g>
</g>
<!-- Node12&#45;&gt;Node13 -->
<g id="edge21" class="edge"><title>Node12&#45;&gt;Node13</title>
<path fill="none" stroke="midnightblue" d="M77.7525,-56.3445C73.3257,-47.0483 68.3305,-36.5583 64.5108,-28.5369"/>
<polygon fill="midnightblue" stroke="midnightblue" points="74.6273,-57.9225 82.0867,-65.4464 80.9473,-54.913 74.6273,-57.9225"/>
</g>
<!-- Node14&#45;&gt;Node4 -->
<g id="edge24" class="edge"><title>Node14&#45;&gt;Node4</title>
<path fill="none" stroke="midnightblue" d="M282.725,-62.9016C322.995,-52.3308 375.602,-38.5214 413.638,-28.5369"/>
<polygon fill="midnightblue" stroke="midnightblue" points="281.815,-59.522 273.031,-65.4464 283.592,-66.2926 281.815,-59.522"/>
</g>
<!-- Node14&#45;&gt;Node5 -->
<g id="edge26" class="edge"><title>Node14&#45;&gt;Node5</title>
<path fill="none" stroke="midnightblue" d="M253.996,-60.0843C270.86,-49.9655 291.376,-37.6559 306.575,-28.5369"/>
<polygon fill="midnightblue" stroke="midnightblue" points="251.833,-57.3001 245.059,-65.4464 255.434,-63.3026 251.833,-57.3001"/>
</g>
<!-- Node15 -->
<g id="node15" class="node"><title>Node15</title>
<g id="a_node15"><a xlink:href="$PX4_2RCOutput_8cpp.html" xlink:title="libraries/AP_HAL_PX4\l/RCOutput.cpp">
<polygon fill="white" stroke="black" points="135,-0.5 135,-28.5 251.605,-28.5 251.605,-0.5 135,-0.5"/>
<text text-anchor="start" x="143" y="-16.5" font-family="Helvetica,sans-Serif" font-size="10.00">libraries/AP_HAL_PX4</text>
<text text-anchor="middle" x="193.303" y="-6.5" font-family="Helvetica,sans-Serif" font-size="10.00">/RCOutput.cpp</text>
</a>
</g>
</g>
<!-- Node14&#45;&gt;Node15 -->
<g id="edge25" class="edge"><title>Node14&#45;&gt;Node15</title>
<path fill="none" stroke="midnightblue" d="M212.752,-56.3445C208.326,-47.0483 203.33,-36.5583 199.511,-28.5369"/>
<polygon fill="midnightblue" stroke="midnightblue" points="209.627,-57.9225 217.087,-65.4464 215.947,-54.913 209.627,-57.9225"/>
</g>
<!-- Node16&#45;&gt;Node4 -->
<g id="edge28" class="edge"><title>Node16&#45;&gt;Node4</title>
<path fill="none" stroke="midnightblue" d="M903.701,-65.0277C737.785,-41.2279 692.858,-52.7725 531.303,-29 528.207,-28.5444 525.038,-28.0421 521.844,-27.5073"/>
<polygon fill="midnightblue" stroke="midnightblue" points="903.362,-68.5152 913.762,-66.4927 904.37,-61.5883 903.362,-68.5152"/>
</g>
<!-- Node17 -->
<g id="node17" class="node"><title>Node17</title>
<g id="a_node17"><a xlink:href="$AP__HAL__PX4_2I2CDriver_8cpp.html" xlink:title="libraries/AP_HAL_PX4\l/I2CDriver.cpp">
<polygon fill="white" stroke="black" points="1080,-0.5 1080,-28.5 1196.61,-28.5 1196.61,-0.5 1080,-0.5"/>
<text text-anchor="start" x="1088" y="-16.5" font-family="Helvetica,sans-Serif" font-size="10.00">libraries/AP_HAL_PX4</text>
<text text-anchor="middle" x="1138.3" y="-6.5" font-family="Helvetica,sans-Serif" font-size="10.00">/I2CDriver.cpp</text>
</a>
</g>
</g>
<!-- Node16&#45;&gt;Node17 -->
<g id="edge29" class="edge"><title>Node16&#45;&gt;Node17</title>
<path fill="none" stroke="midnightblue" d="M1016.08,-61.8864C1043.55,-51.4588 1078.48,-38.2048 1103.95,-28.5369"/>
<polygon fill="midnightblue" stroke="midnightblue" points="1014.81,-58.6258 1006.7,-65.4464 1017.29,-65.1703 1014.81,-58.6258"/>
</g>
</g>
</svg>
