<?xml version="1.0" encoding="UTF-8" standalone="no"?>
<!DOCTYPE svg PUBLIC "-//W3C//DTD SVG 1.1//EN"
 "http://www.w3.org/Graphics/SVG/1.1/DTD/svg11.dtd">
<!-- Generated by graphviz version 2.38.0 (20140413.2041)
 -->
<!-- Title: libraries/AP_Limits/AP_Limit_Module.h Pages: 1 -->
<svg width="1601pt" height="642pt"
 viewBox="0.00 0.00 1600.68 642.00" xmlns="http://www.w3.org/2000/svg" xmlns:xlink="http://www.w3.org/1999/xlink">
<g id="graph0" class="graph" transform="scale(1 1) rotate(0) translate(4 638)">
<title>libraries/AP_Limits/AP_Limit_Module.h</title>
<polygon fill="white" stroke="none" points="-4,4 -4,-638 1596.68,-638 1596.68,4 -4,4"/>
<!-- Node1 -->
<g id="node1" class="node"><title>Node1</title>
<polygon fill="#bfbfbf" stroke="black" points="1212.25,-605.5 1212.25,-633.5 1317.75,-633.5 1317.75,-605.5 1212.25,-605.5"/>
<text text-anchor="start" x="1220.25" y="-621.5" font-family="Helvetica,sans-Serif" font-size="10.00">libraries/AP_Limits</text>
<text text-anchor="middle" x="1265" y="-611.5" font-family="Helvetica,sans-Serif" font-size="10.00">/AP_Limit_Module.h</text>
</g>
<!-- Node2 -->
<g id="node2" class="node"><title>Node2</title>
<g id="a_node2"><a xlink:href="$AP__Common_8h.html" xlink:title="Common definitions and utility routines for the ArduPilot libraries. ">
<polygon fill="white" stroke="black" points="719.973,-165.5 719.973,-183.5 866.027,-183.5 866.027,-165.5 719.973,-165.5"/>
<text text-anchor="middle" x="793" y="-171.5" font-family="Helvetica,sans-Serif" font-size="10.00">AP_Common/AP_Common.h</text>
</a>
</g>
</g>
<!-- Node1&#45;&gt;Node2 -->
<g id="edge1" class="edge"><title>Node1&#45;&gt;Node2</title>
<path fill="none" stroke="midnightblue" d="M1243.66,-605.336C1216.48,-586.738 1173,-550.024 1173,-505.5 1173,-505.5 1173,-505.5 1173,-393.5 1173,-390.919 899.529,-235.831 816.573,-188.846"/>
<polygon fill="midnightblue" stroke="midnightblue" points="817.859,-185.551 807.432,-183.669 814.409,-191.642 817.859,-185.551"/>
</g>
<!-- Node6 -->
<g id="node6" class="node"><title>Node6</title>
<g id="a_node6"><a xlink:href="$AP__Param_8h.html" xlink:title="A system for managing and storing variables that are of general interest to the system. ">
<polygon fill="white" stroke="black" points="1296.09,-550.5 1296.09,-568.5 1419.91,-568.5 1419.91,-550.5 1296.09,-550.5"/>
<text text-anchor="middle" x="1358" y="-556.5" font-family="Helvetica,sans-Serif" font-size="10.00">AP_Param/AP_Param.h</text>
</a>
</g>
</g>
<!-- Node1&#45;&gt;Node6 -->
<g id="edge5" class="edge"><title>Node1&#45;&gt;Node6</title>
<path fill="none" stroke="midnightblue" d="M1286.1,-605.339C1301.1,-595.984 1321.19,-583.456 1336.32,-574.021"/>
<polygon fill="midnightblue" stroke="midnightblue" points="1338.38,-576.863 1345.01,-568.602 1334.67,-570.924 1338.38,-576.863"/>
</g>
<!-- Node3 -->
<g id="node3" class="node"><title>Node3</title>
<polygon fill="white" stroke="#bfbfbf" points="455.879,-110.5 455.879,-128.5 504.121,-128.5 504.121,-110.5 455.879,-110.5"/>
<text text-anchor="middle" x="480" y="-116.5" font-family="Helvetica,sans-Serif" font-size="10.00">stdint.h</text>
</g>
<!-- Node2&#45;&gt;Node3 -->
<g id="edge2" class="edge"><title>Node2&#45;&gt;Node3</title>
<path fill="none" stroke="midnightblue" d="M745.462,-165.45C681.84,-154.677 570.521,-135.828 514.409,-126.327"/>
<polygon fill="midnightblue" stroke="midnightblue" points="514.72,-122.829 504.276,-124.611 513.551,-129.731 514.72,-122.829"/>
</g>
<!-- Node4 -->
<g id="node4" class="node"><title>Node4</title>
<polygon fill="white" stroke="#bfbfbf" points="769.158,-110.5 769.158,-128.5 816.842,-128.5 816.842,-110.5 769.158,-110.5"/>
<text text-anchor="middle" x="793" y="-116.5" font-family="Helvetica,sans-Serif" font-size="10.00">stdlib.h</text>
</g>
<!-- Node2&#45;&gt;Node4 -->
<g id="edge3" class="edge"><title>Node2&#45;&gt;Node4</title>
<path fill="none" stroke="midnightblue" d="M793,-165.219C793,-158.177 793,-147.808 793,-138.828"/>
<polygon fill="midnightblue" stroke="midnightblue" points="796.5,-138.55 793,-128.55 789.5,-138.55 796.5,-138.55"/>
</g>
<!-- Node5 -->
<g id="node5" class="node"><title>Node5</title>
<polygon fill="white" stroke="#bfbfbf" points="659.707,-110.5 659.707,-128.5 716.293,-128.5 716.293,-110.5 659.707,-110.5"/>
<text text-anchor="middle" x="688" y="-116.5" font-family="Helvetica,sans-Serif" font-size="10.00">stdbool.h</text>
</g>
<!-- Node2&#45;&gt;Node5 -->
<g id="edge4" class="edge"><title>Node2&#45;&gt;Node5</title>
<path fill="none" stroke="midnightblue" d="M777.053,-165.45C760.093,-156.89 733.029,-143.229 713.184,-133.212"/>
<polygon fill="midnightblue" stroke="midnightblue" points="714.602,-130.007 704.097,-128.625 711.447,-136.256 714.602,-130.007"/>
</g>
<!-- Node6&#45;&gt;Node3 -->
<g id="edge72" class="edge"><title>Node6&#45;&gt;Node3</title>
<path fill="none" stroke="midnightblue" d="M1295.67,-556.853C1029.3,-549.411 0,-516.39 0,-450.5 0,-450.5 0,-450.5 0,-338.5 0,-142.526 335.796,-121.872 445.664,-120.36"/>
<polygon fill="midnightblue" stroke="midnightblue" points="445.9,-123.858 455.868,-120.266 445.836,-116.858 445.9,-123.858"/>
</g>
<!-- Node7 -->
<g id="node7" class="node"><title>Node7</title>
<g id="a_node7"><a xlink:href="$AP__HAL_8h.html" xlink:title="AP_HAL/AP_HAL.h">
<polygon fill="white" stroke="black" points="602.086,-440.5 602.086,-458.5 705.914,-458.5 705.914,-440.5 602.086,-440.5"/>
<text text-anchor="middle" x="654" y="-446.5" font-family="Helvetica,sans-Serif" font-size="10.00">AP_HAL/AP_HAL.h</text>
</a>
</g>
</g>
<!-- Node6&#45;&gt;Node7 -->
<g id="edge6" class="edge"><title>Node6&#45;&gt;Node7</title>
<path fill="none" stroke="midnightblue" d="M1305.66,-550.471C1178.36,-530.941 852.964,-481.023 716.119,-460.03"/>
<polygon fill="midnightblue" stroke="midnightblue" points="716.621,-456.566 706.205,-458.509 715.559,-463.485 716.621,-456.566"/>
</g>
<!-- Node9 -->
<g id="node9" class="node"><title>Node9</title>
<polygon fill="white" stroke="#bfbfbf" points="1363.6,-0.5 1363.6,-18.5 1412.4,-18.5 1412.4,-0.5 1363.6,-0.5"/>
<text text-anchor="middle" x="1388" y="-6.5" font-family="Helvetica,sans-Serif" font-size="10.00">string.h</text>
</g>
<!-- Node6&#45;&gt;Node9 -->
<g id="edge71" class="edge"><title>Node6&#45;&gt;Node9</title>
<path fill="none" stroke="midnightblue" d="M1419.96,-552.724C1475.32,-546.339 1550.98,-534.19 1573,-514 1594.71,-494.091 1592,-479.958 1592,-450.5 1592,-450.5 1592,-450.5 1592,-118.5 1592,-42.8601 1481.1,-20.0487 1422.84,-13.2836"/>
<polygon fill="midnightblue" stroke="midnightblue" points="1422.92,-9.77313 1412.61,-12.1981 1422.18,-16.734 1422.92,-9.77313"/>
</g>
<!-- Node31 -->
<g id="node31" class="node"><title>Node31</title>
<polygon fill="white" stroke="#bfbfbf" points="1386.21,-495.5 1386.21,-513.5 1437.79,-513.5 1437.79,-495.5 1386.21,-495.5"/>
<text text-anchor="middle" x="1412" y="-501.5" font-family="Helvetica,sans-Serif" font-size="10.00">stddef.h</text>
</g>
<!-- Node6&#45;&gt;Node31 -->
<g id="edge70" class="edge"><title>Node6&#45;&gt;Node31</title>
<path fill="none" stroke="midnightblue" d="M1366.44,-550.219C1374.49,-542.316 1386.81,-530.224 1396.61,-520.606"/>
<polygon fill="midnightblue" stroke="midnightblue" points="1399.11,-523.052 1403.8,-513.55 1394.21,-518.056 1399.11,-523.052"/>
</g>
<!-- Node32 -->
<g id="node32" class="node"><title>Node32</title>
<polygon fill="white" stroke="#bfbfbf" points="1455.71,-495.5 1455.71,-513.5 1502.29,-513.5 1502.29,-495.5 1455.71,-495.5"/>
<text text-anchor="middle" x="1479" y="-501.5" font-family="Helvetica,sans-Serif" font-size="10.00">math.h</text>
</g>
<!-- Node6&#45;&gt;Node32 -->
<g id="edge73" class="edge"><title>Node6&#45;&gt;Node32</title>
<path fill="none" stroke="midnightblue" d="M1376.38,-550.45C1396.28,-541.734 1428.25,-527.731 1451.22,-517.669"/>
<polygon fill="midnightblue" stroke="midnightblue" points="1452.69,-520.843 1460.45,-513.625 1449.89,-514.432 1452.69,-520.843"/>
</g>
<!-- Node33 -->
<g id="node33" class="node"><title>Node33</title>
<polygon fill="white" stroke="#bfbfbf" points="1520.38,-495.5 1520.38,-513.5 1563.62,-513.5 1563.62,-495.5 1520.38,-495.5"/>
<text text-anchor="middle" x="1542" y="-501.5" font-family="Helvetica,sans-Serif" font-size="10.00">float.h</text>
</g>
<!-- Node6&#45;&gt;Node33 -->
<g id="edge74" class="edge"><title>Node6&#45;&gt;Node33</title>
<path fill="none" stroke="midnightblue" d="M1385.95,-550.45C1419.44,-540.804 1475.41,-524.682 1510.43,-514.594"/>
<polygon fill="midnightblue" stroke="midnightblue" points="1511.5,-517.927 1520.14,-511.795 1509.57,-511.2 1511.5,-517.927"/>
</g>
<!-- Node34 -->
<g id="node34" class="node"><title>Node34</title>
<g id="a_node34"><a xlink:href="$AP__Progmem_8h.html" xlink:title="AP_Progmem/AP_Progmem.h">
<polygon fill="white" stroke="black" points="1412.19,-165.5 1412.19,-183.5 1563.81,-183.5 1563.81,-165.5 1412.19,-165.5"/>
<text text-anchor="middle" x="1488" y="-171.5" font-family="Helvetica,sans-Serif" font-size="10.00">AP_Progmem/AP_Progmem.h</text>
</a>
</g>
</g>
<!-- Node6&#45;&gt;Node34 -->
<g id="edge75" class="edge"><title>Node6&#45;&gt;Node34</title>
<path fill="none" stroke="midnightblue" d="M1360.41,-550.159C1371.12,-512.877 1414,-362.383 1414,-340.5 1414,-340.5 1414,-340.5 1414,-283.5 1414,-244.401 1447.41,-209.082 1469.34,-190.118"/>
<polygon fill="midnightblue" stroke="midnightblue" points="1471.63,-192.762 1477.08,-183.677 1467.15,-187.38 1471.63,-192.762"/>
</g>
<!-- Node35 -->
<g id="node35" class="node"><title>Node35</title>
<g id="a_node35"><a xlink:href="$StorageManager_8h.html" xlink:title="StorageManager/StorageManager.h">
<polygon fill="white" stroke="black" points="657.222,-495.5 657.222,-513.5 832.778,-513.5 832.778,-495.5 657.222,-495.5"/>
<text text-anchor="middle" x="745" y="-501.5" font-family="Helvetica,sans-Serif" font-size="10.00">StorageManager/StorageManager.h</text>
</a>
</g>
</g>
<!-- Node6&#45;&gt;Node35 -->
<g id="edge78" class="edge"><title>Node6&#45;&gt;Node35</title>
<path fill="none" stroke="midnightblue" d="M1295.85,-553.126C1189.16,-543.902 970.388,-524.987 842.993,-513.973"/>
<polygon fill="midnightblue" stroke="midnightblue" points="843.113,-510.47 832.848,-513.095 842.51,-517.444 843.113,-510.47"/>
</g>
<!-- Node7&#45;&gt;Node3 -->
<g id="edge7" class="edge"><title>Node7&#45;&gt;Node3</title>
<path fill="none" stroke="midnightblue" d="M638.654,-440.429C624.156,-432.367 602.265,-419.037 586,-404 540.633,-362.058 524.618,-351.092 501,-294 479.101,-241.062 478.082,-171.833 479.055,-139.14"/>
<polygon fill="midnightblue" stroke="midnightblue" points="482.564,-138.979 479.469,-128.847 475.57,-138.698 482.564,-138.979"/>
</g>
<!-- Node7&#45;&gt;Node5 -->
<g id="edge8" class="edge"><title>Node7&#45;&gt;Node5</title>
<path fill="none" stroke="midnightblue" d="M654,-440.371C654,-422.376 654,-377.812 654,-340.5 654,-340.5 654,-340.5 654,-228.5 654,-195.204 668.885,-158.688 678.957,-137.79"/>
<polygon fill="midnightblue" stroke="midnightblue" points="682.199,-139.133 683.555,-128.626 675.942,-135.994 682.199,-139.133"/>
</g>
<!-- Node8 -->
<g id="node8" class="node"><title>Node8</title>
<g id="a_node8"><a xlink:href="$AP__HAL__Namespace_8h.html" xlink:title="AP_HAL_Namespace.h">
<polygon fill="white" stroke="black" points="532.192,-55.5 532.192,-73.5 653.808,-73.5 653.808,-55.5 532.192,-55.5"/>
<text text-anchor="middle" x="593" y="-61.5" font-family="Helvetica,sans-Serif" font-size="10.00">AP_HAL_Namespace.h</text>
</a>
</g>
</g>
<!-- Node7&#45;&gt;Node8 -->
<g id="edge9" class="edge"><title>Node7&#45;&gt;Node8</title>
<path fill="none" stroke="midnightblue" d="M601.906,-448.288C515.921,-446.868 339.434,-439.421 195,-404 121.897,-386.072 38,-415.769 38,-340.5 38,-340.5 38,-340.5 38,-173.5 38,-75.984 372.305,-64.7809 521.998,-64.6525"/>
<polygon fill="midnightblue" stroke="midnightblue" points="522.015,-68.1524 532.018,-64.6603 522.02,-61.1524 522.015,-68.1524"/>
</g>
<!-- Node11 -->
<g id="node11" class="node"><title>Node11</title>
<g id="a_node11"><a xlink:href="$AP__HAL__Boards_8h.html" xlink:title="AP_HAL_Boards.h">
<polygon fill="white" stroke="black" points="998.03,-165.5 998.03,-183.5 1097.97,-183.5 1097.97,-165.5 998.03,-165.5"/>
<text text-anchor="middle" x="1048" y="-171.5" font-family="Helvetica,sans-Serif" font-size="10.00">AP_HAL_Boards.h</text>
</a>
</g>
</g>
<!-- Node7&#45;&gt;Node11 -->
<g id="edge12" class="edge"><title>Node7&#45;&gt;Node11</title>
<path fill="none" stroke="midnightblue" d="M706.103,-446.583C810.179,-442.216 1035.84,-429.845 1059,-404 1086.48,-373.332 1062.22,-242.409 1052.01,-193.78"/>
<polygon fill="midnightblue" stroke="midnightblue" points="1055.39,-192.808 1049.86,-183.766 1048.54,-194.277 1055.39,-192.808"/>
</g>
<!-- Node12 -->
<g id="node12" class="node"><title>Node12</title>
<g id="a_node12"><a xlink:href="$AP__HAL__Macros_8h.html" xlink:title="AP_HAL_Macros.h">
<polygon fill="white" stroke="black" points="948.48,-385.5 948.48,-403.5 1049.52,-403.5 1049.52,-385.5 948.48,-385.5"/>
<text text-anchor="middle" x="999" y="-391.5" font-family="Helvetica,sans-Serif" font-size="10.00">AP_HAL_Macros.h</text>
</a>
</g>
</g>
<!-- Node7&#45;&gt;Node12 -->
<g id="edge13" class="edge"><title>Node7&#45;&gt;Node12</title>
<path fill="none" stroke="midnightblue" d="M706.024,-440.508C768.205,-430.956 872.101,-414.995 938.003,-404.871"/>
<polygon fill="midnightblue" stroke="midnightblue" points="938.889,-408.276 948.242,-403.298 937.826,-401.357 938.889,-408.276"/>
</g>
<!-- Node13 -->
<g id="node13" class="node"><title>Node13</title>
<g id="a_node13"><a xlink:href="$AP__HAL__Main_8h.html" xlink:title="AP_HAL_Main.h">
<polygon fill="white" stroke="black" points="278.035,-385.5 278.035,-403.5 367.965,-403.5 367.965,-385.5 278.035,-385.5"/>
<text text-anchor="middle" x="323" y="-391.5" font-family="Helvetica,sans-Serif" font-size="10.00">AP_HAL_Main.h</text>
</a>
</g>
</g>
<!-- Node7&#45;&gt;Node13 -->
<g id="edge14" class="edge"><title>Node7&#45;&gt;Node13</title>
<path fill="none" stroke="midnightblue" d="M603.728,-440.45C542.997,-430.726 441.17,-414.421 378.278,-404.351"/>
<polygon fill="midnightblue" stroke="midnightblue" points="378.578,-400.855 368.15,-402.73 377.471,-407.767 378.578,-400.855"/>
</g>
<!-- Node14 -->
<g id="node14" class="node"><title>Node14</title>
<g id="a_node14"><a xlink:href="$HAL_8h.html" xlink:title="HAL.h">
<polygon fill="white" stroke="black" points="301.104,-330.5 301.104,-348.5 344.896,-348.5 344.896,-330.5 301.104,-330.5"/>
<text text-anchor="middle" x="323" y="-336.5" font-family="Helvetica,sans-Serif" font-size="10.00">HAL.h</text>
</a>
</g>
</g>
<!-- Node7&#45;&gt;Node14 -->
<g id="edge69" class="edge"><title>Node7&#45;&gt;Node14</title>
<path fill="none" stroke="midnightblue" d="M601.963,-442.989C556.098,-436.987 488.046,-425.267 432,-404 398.646,-391.344 363.606,-369.084 342.53,-354.566"/>
<polygon fill="midnightblue" stroke="midnightblue" points="344.34,-351.56 334.142,-348.686 340.321,-357.292 344.34,-351.56"/>
</g>
<!-- Node15 -->
<g id="node15" class="node"><title>Node15</title>
<g id="a_node15"><a xlink:href="$AnalogIn_8h.html" xlink:title="AnalogIn.h">
<polygon fill="white" stroke="black" points="1254.09,-220.5 1254.09,-238.5 1317.91,-238.5 1317.91,-220.5 1254.09,-220.5"/>
<text text-anchor="middle" x="1286" y="-226.5" font-family="Helvetica,sans-Serif" font-size="10.00">AnalogIn.h</text>
</a>
</g>
</g>
<!-- Node7&#45;&gt;Node15 -->
<g id="edge51" class="edge"><title>Node7&#45;&gt;Node15</title>
<path fill="none" stroke="midnightblue" d="M706.3,-448.942C817.558,-449.064 1073.68,-444.758 1149,-404 1215.67,-367.923 1261.01,-284.243 1278.25,-247.886"/>
<polygon fill="midnightblue" stroke="midnightblue" points="1281.53,-249.141 1282.53,-238.593 1275.17,-246.213 1281.53,-249.141"/>
</g>
<!-- Node17 -->
<g id="node17" class="node"><title>Node17</title>
<g id="a_node17"><a xlink:href="$GPIO_8h.html" xlink:title="GPIO.h">
<polygon fill="white" stroke="black" points="376.328,-220.5 376.328,-238.5 425.672,-238.5 425.672,-220.5 376.328,-220.5"/>
<text text-anchor="middle" x="401" y="-226.5" font-family="Helvetica,sans-Serif" font-size="10.00">GPIO.h</text>
</a>
</g>
</g>
<!-- Node7&#45;&gt;Node17 -->
<g id="edge53" class="edge"><title>Node7&#45;&gt;Node17</title>
<path fill="none" stroke="midnightblue" d="M602.018,-444.186C568.709,-439.103 526.214,-428.045 496,-404 489.097,-398.506 432.047,-290.008 409.819,-247.435"/>
<polygon fill="midnightblue" stroke="midnightblue" points="412.915,-245.803 405.187,-238.554 406.708,-249.039 412.915,-245.803"/>
</g>
<!-- Node18 -->
<g id="node18" class="node"><title>Node18</title>
<g id="a_node18"><a xlink:href="$RCInput_8h.html" xlink:title="RCInput.h">
<polygon fill="white" stroke="black" points="720.488,-275.5 720.488,-293.5 781.512,-293.5 781.512,-275.5 720.488,-275.5"/>
<text text-anchor="middle" x="751" y="-281.5" font-family="Helvetica,sans-Serif" font-size="10.00">RCInput.h</text>
</a>
</g>
</g>
<!-- Node7&#45;&gt;Node18 -->
<g id="edge54" class="edge"><title>Node7&#45;&gt;Node18</title>
<path fill="none" stroke="midnightblue" d="M658.944,-440.193C674.123,-414.684 720.278,-337.126 740.881,-302.504"/>
<polygon fill="midnightblue" stroke="midnightblue" points="744.075,-303.981 746.181,-293.597 738.06,-300.401 744.075,-303.981"/>
</g>
<!-- Node19 -->
<g id="node19" class="node"><title>Node19</title>
<g id="a_node19"><a xlink:href="$RCOutput_8h.html" xlink:title="RCOutput.h">
<polygon fill="white" stroke="black" points="65.5986,-275.5 65.5986,-293.5 134.401,-293.5 134.401,-275.5 65.5986,-275.5"/>
<text text-anchor="middle" x="100" y="-281.5" font-family="Helvetica,sans-Serif" font-size="10.00">RCOutput.h</text>
</a>
</g>
</g>
<!-- Node7&#45;&gt;Node19 -->
<g id="edge55" class="edge"><title>Node7&#45;&gt;Node19</title>
<path fill="none" stroke="midnightblue" d="M601.957,-447.035C503.983,-443.624 296.147,-433.099 231,-404 178.673,-380.627 132.935,-328.233 112.05,-301.641"/>
<polygon fill="midnightblue" stroke="midnightblue" points="114.813,-299.492 105.947,-293.692 109.261,-303.755 114.813,-299.492"/>
</g>
<!-- Node20 -->
<g id="node20" class="node"><title>Node20</title>
<g id="a_node20"><a xlink:href="$SPIDriver_8h.html" xlink:title="SPIDriver.h">
<polygon fill="white" stroke="black" points="152.712,-275.5 152.712,-293.5 219.288,-293.5 219.288,-275.5 152.712,-275.5"/>
<text text-anchor="middle" x="186" y="-281.5" font-family="Helvetica,sans-Serif" font-size="10.00">SPIDriver.h</text>
</a>
</g>
</g>
<!-- Node7&#45;&gt;Node20 -->
<g id="edge50" class="edge"><title>Node7&#45;&gt;Node20</title>
<path fill="none" stroke="midnightblue" d="M602.018,-448.443C507.048,-447.42 310.097,-440.778 254,-404 217.898,-380.331 198.759,-330.422 190.711,-303.547"/>
<polygon fill="midnightblue" stroke="midnightblue" points="193.988,-302.27 187.924,-293.583 187.247,-304.156 193.988,-302.27"/>
</g>
<!-- Node21 -->
<g id="node21" class="node"><title>Node21</title>
<g id="a_node21"><a xlink:href="$Storage_8h.html" xlink:title="Storage.h">
<polygon fill="white" stroke="black" points="237.318,-275.5 237.318,-293.5 296.682,-293.5 296.682,-275.5 237.318,-275.5"/>
<text text-anchor="middle" x="267" y="-281.5" font-family="Helvetica,sans-Serif" font-size="10.00">Storage.h</text>
</a>
</g>
</g>
<!-- Node7&#45;&gt;Node21 -->
<g id="edge52" class="edge"><title>Node7&#45;&gt;Node21</title>
<path fill="none" stroke="midnightblue" d="M601.822,-446.227C501.795,-441.335 290.971,-428.242 269,-404 244.094,-376.519 253.269,-328.99 260.88,-303.268"/>
<polygon fill="midnightblue" stroke="midnightblue" points="264.227,-304.292 263.942,-293.701 257.56,-302.158 264.227,-304.292"/>
</g>
<!-- Node22 -->
<g id="node22" class="node"><title>Node22</title>
<g id="a_node22"><a xlink:href="$UARTDriver_8h.html" xlink:title="UARTDriver.h">
<polygon fill="white" stroke="black" points="510.248,-275.5 510.248,-293.5 587.752,-293.5 587.752,-275.5 510.248,-275.5"/>
<text text-anchor="middle" x="549" y="-281.5" font-family="Helvetica,sans-Serif" font-size="10.00">UARTDriver.h</text>
</a>
</g>
</g>
<!-- Node7&#45;&gt;Node22 -->
<g id="edge46" class="edge"><title>Node7&#45;&gt;Node22</title>
<path fill="none" stroke="midnightblue" d="M641.475,-440.231C629.978,-432.125 613.096,-418.848 602,-404 578.134,-372.063 561.943,-327.678 554.217,-303.299"/>
<polygon fill="midnightblue" stroke="midnightblue" points="557.531,-302.167 551.265,-293.623 550.835,-304.209 557.531,-302.167"/>
</g>
<!-- Node23 -->
<g id="node23" class="node"><title>Node23</title>
<g id="a_node23"><a xlink:href="$BetterStream_8h.html" xlink:title="utility/BetterStream.h">
<polygon fill="white" stroke="black" points="913.594,-220.5 913.594,-238.5 1022.41,-238.5 1022.41,-220.5 913.594,-220.5"/>
<text text-anchor="middle" x="968" y="-226.5" font-family="Helvetica,sans-Serif" font-size="10.00">utility/BetterStream.h</text>
</a>
</g>
</g>
<!-- Node7&#45;&gt;Node23 -->
<g id="edge68" class="edge"><title>Node7&#45;&gt;Node23</title>
<path fill="none" stroke="midnightblue" d="M667.031,-440.497C681.188,-431.738 704.405,-417.182 724,-404 809.002,-346.816 907.747,-274.843 948.69,-244.748"/>
<polygon fill="midnightblue" stroke="midnightblue" points="950.978,-247.41 956.957,-238.663 946.828,-241.773 950.978,-247.41"/>
</g>
<!-- Node25 -->
<g id="node25" class="node"><title>Node25</title>
<g id="a_node25"><a xlink:href="$Stream_8h.html" xlink:title="Stream.h">
<polygon fill="white" stroke="black" points="1223.71,-165.5 1223.71,-183.5 1280.29,-183.5 1280.29,-165.5 1223.71,-165.5"/>
<text text-anchor="middle" x="1252" y="-171.5" font-family="Helvetica,sans-Serif" font-size="10.00">Stream.h</text>
</a>
</g>
</g>
<!-- Node7&#45;&gt;Node25 -->
<g id="edge67" class="edge"><title>Node7&#45;&gt;Node25</title>
<path fill="none" stroke="midnightblue" d="M705.933,-448.12C804.738,-446.582 1015.5,-439.146 1078,-404 1167.14,-353.875 1225.13,-237.409 1244.67,-193.069"/>
<polygon fill="midnightblue" stroke="midnightblue" points="1247.98,-194.219 1248.71,-183.65 1241.55,-191.457 1247.98,-194.219"/>
</g>
<!-- Node26 -->
<g id="node26" class="node"><title>Node26</title>
<g id="a_node26"><a xlink:href="$Print_8h.html" xlink:title="Print.h">
<polygon fill="white" stroke="black" points="1299.55,-110.5 1299.55,-128.5 1344.45,-128.5 1344.45,-110.5 1299.55,-110.5"/>
<text text-anchor="middle" x="1322" y="-116.5" font-family="Helvetica,sans-Serif" font-size="10.00">Print.h</text>
</a>
</g>
</g>
<!-- Node7&#45;&gt;Node26 -->
<g id="edge66" class="edge"><title>Node7&#45;&gt;Node26</title>
<path fill="none" stroke="midnightblue" d="M705.924,-446.208C871.473,-438.219 1376,-408.307 1376,-340.5 1376,-340.5 1376,-340.5 1376,-283.5 1376,-227.766 1347.2,-166.503 1331.66,-137.512"/>
<polygon fill="midnightblue" stroke="midnightblue" points="1334.68,-135.736 1326.79,-128.665 1328.55,-139.113 1334.68,-135.736"/>
</g>
<!-- Node27 -->
<g id="node27" class="node"><title>Node27</title>
<g id="a_node27"><a xlink:href="$I2CDriver_8h.html" xlink:title="I2CDriver.h">
<polygon fill="white" stroke="black" points="559.99,-165.5 559.99,-183.5 626.01,-183.5 626.01,-165.5 559.99,-165.5"/>
<text text-anchor="middle" x="593" y="-171.5" font-family="Helvetica,sans-Serif" font-size="10.00">I2CDriver.h</text>
</a>
</g>
</g>
<!-- Node7&#45;&gt;Node27 -->
<g id="edge47" class="edge"><title>Node7&#45;&gt;Node27</title>
<path fill="none" stroke="midnightblue" d="M649.032,-440.441C638.732,-422.939 616,-379.856 616,-340.5 616,-340.5 616,-340.5 616,-283.5 616,-251.014 605.922,-214.212 599.108,-193.044"/>
<polygon fill="midnightblue" stroke="midnightblue" points="602.408,-191.875 595.913,-183.504 595.77,-194.098 602.408,-191.875"/>
</g>
<!-- Node28 -->
<g id="node28" class="node"><title>Node28</title>
<g id="a_node28"><a xlink:href="$Scheduler_8h.html" xlink:title="Scheduler.h">
<polygon fill="white" stroke="black" points="789.589,-220.5 789.589,-238.5 858.411,-238.5 858.411,-220.5 789.589,-220.5"/>
<text text-anchor="middle" x="824" y="-226.5" font-family="Helvetica,sans-Serif" font-size="10.00">Scheduler.h</text>
</a>
</g>
</g>
<!-- Node7&#45;&gt;Node28 -->
<g id="edge56" class="edge"><title>Node7&#45;&gt;Node28</title>
<path fill="none" stroke="midnightblue" d="M663.342,-440.298C673.074,-431.609 688.602,-417.329 701,-404 744.021,-357.748 756.251,-346.75 791,-294 800.815,-279.1 810.003,-260.934 816.179,-247.855"/>
<polygon fill="midnightblue" stroke="midnightblue" points="819.43,-249.163 820.44,-238.617 813.073,-246.231 819.43,-249.163"/>
</g>
<!-- Node29 -->
<g id="node29" class="node"><title>Node29</title>
<g id="a_node29"><a xlink:href="$Semaphores_8h.html" xlink:title="Semaphores.h">
<polygon fill="white" stroke="black" points="362.48,-330.5 362.48,-348.5 443.52,-348.5 443.52,-330.5 362.48,-330.5"/>
<text text-anchor="middle" x="403" y="-336.5" font-family="Helvetica,sans-Serif" font-size="10.00">Semaphores.h</text>
</a>
</g>
</g>
<!-- Node7&#45;&gt;Node29 -->
<g id="edge61" class="edge"><title>Node7&#45;&gt;Node29</title>
<path fill="none" stroke="midnightblue" d="M602.009,-445.558C560.484,-441.208 502.141,-430.467 458,-404 438.71,-392.433 422.701,-371.758 413.021,-357.146"/>
<polygon fill="midnightblue" stroke="midnightblue" points="415.905,-355.158 407.603,-348.576 409.988,-358.899 415.905,-355.158"/>
</g>
<!-- Node30 -->
<g id="node30" class="node"><title>Node30</title>
<g id="a_node30"><a xlink:href="$Util_8h.html" xlink:title="Util.h">
<polygon fill="white" stroke="black" points="1077.61,-220.5 1077.61,-238.5 1116.39,-238.5 1116.39,-220.5 1077.61,-220.5"/>
<text text-anchor="middle" x="1097" y="-226.5" font-family="Helvetica,sans-Serif" font-size="10.00">Util.h</text>
</a>
</g>
</g>
<!-- Node7&#45;&gt;Node30 -->
<g id="edge63" class="edge"><title>Node7&#45;&gt;Node30</title>
<path fill="none" stroke="midnightblue" d="M672.525,-440.351C692.306,-431.589 724.523,-417.141 752,-404 873.245,-346.014 1016.15,-272.453 1072.45,-243.266"/>
<polygon fill="midnightblue" stroke="midnightblue" points="1074.37,-246.215 1081.63,-238.502 1071.15,-240.002 1074.37,-246.215"/>
</g>
<!-- Node8&#45;&gt;Node9 -->
<g id="edge10" class="edge"><title>Node8&#45;&gt;Node9</title>
<path fill="none" stroke="midnightblue" d="M654.062,-59.4292C811.985,-48.901 1230.15,-21.0235 1353.37,-12.8089"/>
<polygon fill="midnightblue" stroke="midnightblue" points="1353.63,-16.2992 1363.37,-12.1417 1353.16,-9.31471 1353.63,-16.2992"/>
</g>
<!-- Node10 -->
<g id="node10" class="node"><title>Node10</title>
<g id="a_node10"><a xlink:href="$functor_8h.html" xlink:title="utility/functor.h">
<polygon fill="white" stroke="black" points="553.037,-0.5 553.037,-18.5 632.963,-18.5 632.963,-0.5 553.037,-0.5"/>
<text text-anchor="middle" x="593" y="-6.5" font-family="Helvetica,sans-Serif" font-size="10.00">utility/functor.h</text>
</a>
</g>
</g>
<!-- Node8&#45;&gt;Node10 -->
<g id="edge11" class="edge"><title>Node8&#45;&gt;Node10</title>
<path fill="none" stroke="midnightblue" d="M593,-55.2188C593,-48.1769 593,-37.8083 593,-28.8277"/>
<polygon fill="midnightblue" stroke="midnightblue" points="596.5,-28.5495 593,-18.5496 589.5,-28.5496 596.5,-28.5495"/>
</g>
<!-- Node13&#45;&gt;Node14 -->
<g id="edge15" class="edge"><title>Node13&#45;&gt;Node14</title>
<path fill="none" stroke="midnightblue" d="M323,-385.219C323,-378.177 323,-367.808 323,-358.828"/>
<polygon fill="midnightblue" stroke="midnightblue" points="326.5,-358.55 323,-348.55 319.5,-358.55 326.5,-358.55"/>
</g>
<!-- Node14&#45;&gt;Node8 -->
<g id="edge16" class="edge"><title>Node14&#45;&gt;Node8</title>
<path fill="none" stroke="midnightblue" d="M322.734,-330.253C322.128,-295.761 324.964,-162.426 402,-110 437.27,-85.9971 483.772,-74.8302 522.061,-69.6843"/>
<polygon fill="midnightblue" stroke="midnightblue" points="522.619,-73.1421 532.115,-68.4442 521.762,-66.1948 522.619,-73.1421"/>
</g>
<!-- Node14&#45;&gt;Node15 -->
<g id="edge17" class="edge"><title>Node14&#45;&gt;Node15</title>
<path fill="none" stroke="midnightblue" d="M345.2,-331.864C347.817,-331.184 350.459,-330.545 353,-330 460.181,-307.011 488.71,-311.011 597,-294 647.743,-286.029 660.011,-281.21 711,-275 909.544,-250.819 1148.35,-237.28 1243.69,-232.498"/>
<polygon fill="midnightblue" stroke="midnightblue" points="1243.98,-235.988 1253.8,-231.997 1243.64,-228.997 1243.98,-235.988"/>
</g>
<!-- Node14&#45;&gt;Node17 -->
<g id="edge20" class="edge"><title>Node14&#45;&gt;Node17</title>
<path fill="none" stroke="midnightblue" d="M328.863,-330.382C341.624,-312.713 372.131,-270.472 389.1,-246.976"/>
<polygon fill="midnightblue" stroke="midnightblue" points="392.052,-248.868 395.069,-238.712 386.377,-244.769 392.052,-248.868"/>
</g>
<!-- Node14&#45;&gt;Node18 -->
<g id="edge23" class="edge"><title>Node14&#45;&gt;Node18</title>
<path fill="none" stroke="midnightblue" d="M345.177,-331.751C347.798,-331.092 350.448,-330.488 353,-330 507.898,-300.392 549.933,-316.656 706,-294 707.283,-293.814 708.586,-293.617 709.9,-293.411"/>
<polygon fill="midnightblue" stroke="midnightblue" points="710.792,-296.81 720.073,-291.7 709.631,-289.907 710.792,-296.81"/>
</g>
<!-- Node14&#45;&gt;Node19 -->
<g id="edge25" class="edge"><title>Node14&#45;&gt;Node19</title>
<path fill="none" stroke="midnightblue" d="M300.803,-333.224C264.367,-324.565 191.215,-307.179 143.985,-295.954"/>
<polygon fill="midnightblue" stroke="midnightblue" points="144.57,-292.496 134.032,-293.588 142.952,-299.306 144.57,-292.496"/>
</g>
<!-- Node14&#45;&gt;Node20 -->
<g id="edge27" class="edge"><title>Node14&#45;&gt;Node20</title>
<path fill="none" stroke="midnightblue" d="M302.193,-330.45C279.36,-321.617 242.492,-307.355 216.417,-297.267"/>
<polygon fill="midnightblue" stroke="midnightblue" points="217.592,-293.969 207.003,-293.625 215.067,-300.498 217.592,-293.969"/>
</g>
<!-- Node14&#45;&gt;Node21 -->
<g id="edge29" class="edge"><title>Node14&#45;&gt;Node21</title>
<path fill="none" stroke="midnightblue" d="M314.25,-330.219C305.9,-322.316 293.124,-310.224 282.961,-300.606"/>
<polygon fill="midnightblue" stroke="midnightblue" points="285.174,-297.881 275.505,-293.55 280.362,-302.965 285.174,-297.881"/>
</g>
<!-- Node14&#45;&gt;Node22 -->
<g id="edge32" class="edge"><title>Node14&#45;&gt;Node22</title>
<path fill="none" stroke="midnightblue" d="M344.919,-332.145C347.635,-331.401 350.377,-330.669 353,-330 403.233,-317.191 461.174,-304.261 500.957,-295.666"/>
<polygon fill="midnightblue" stroke="midnightblue" points="501.877,-299.048 510.917,-293.522 500.404,-292.205 501.877,-299.048"/>
</g>
<!-- Node15&#45;&gt;Node8 -->
<g id="edge19" class="edge"><title>Node15&#45;&gt;Node8</title>
<path fill="none" stroke="midnightblue" d="M1288.53,-220.302C1291.93,-207.824 1296.69,-183.558 1289,-165 1275.77,-133.062 1265.46,-124.328 1234,-110 1183.23,-86.8793 820.452,-72.7214 664.245,-67.6358"/>
<polygon fill="midnightblue" stroke="midnightblue" points="663.918,-64.1235 653.81,-67.2996 663.693,-71.1199 663.918,-64.1235"/>
</g>
<!-- Node16 -->
<g id="node16" class="node"><title>Node16</title>
<polygon fill="white" stroke="#bfbfbf" points="1345.6,-55.5 1345.6,-73.5 1404.4,-73.5 1404.4,-55.5 1345.6,-55.5"/>
<text text-anchor="middle" x="1375" y="-61.5" font-family="Helvetica,sans-Serif" font-size="10.00">inttypes.h</text>
</g>
<!-- Node15&#45;&gt;Node16 -->
<g id="edge18" class="edge"><title>Node15&#45;&gt;Node16</title>
<path fill="none" stroke="midnightblue" d="M1293.34,-220.293C1300.94,-211.599 1312.95,-197.316 1322,-184 1337.77,-160.789 1341.47,-154.582 1353,-129 1359.67,-114.191 1365.59,-96.7095 1369.61,-83.8416"/>
<polygon fill="midnightblue" stroke="midnightblue" points="1373.07,-84.4894 1372.62,-73.9043 1366.37,-82.4619 1373.07,-84.4894"/>
</g>
<!-- Node17&#45;&gt;Node3 -->
<g id="edge21" class="edge"><title>Node17&#45;&gt;Node3</title>
<path fill="none" stroke="midnightblue" d="M405.721,-220.452C413.031,-208.169 427.736,-184.156 442,-165 449.372,-155.1 458.306,-144.573 465.659,-136.245"/>
<polygon fill="midnightblue" stroke="midnightblue" points="468.303,-138.538 472.368,-128.754 463.089,-133.868 468.303,-138.538"/>
</g>
<!-- Node17&#45;&gt;Node8 -->
<g id="edge22" class="edge"><title>Node17&#45;&gt;Node8</title>
<path fill="none" stroke="midnightblue" d="M401.748,-220.224C404.137,-198.746 413.523,-140.757 447,-110 467.504,-91.1624 495.773,-80.2917 521.978,-74.0214"/>
<polygon fill="midnightblue" stroke="midnightblue" points="522.887,-77.4053 531.9,-71.8365 521.382,-70.5691 522.887,-77.4053"/>
</g>
<!-- Node18&#45;&gt;Node8 -->
<g id="edge24" class="edge"><title>Node18&#45;&gt;Node8</title>
<path fill="none" stroke="midnightblue" d="M752.772,-275.312C756.068,-261.953 764.369,-235.419 781,-220 816.496,-187.092 892.227,-210.234 875,-165 863.348,-134.405 854.478,-126.15 826,-110 776.502,-81.9303 712.56,-71.1976 664.185,-67.2641"/>
<polygon fill="midnightblue" stroke="midnightblue" points="664.339,-63.7661 654.109,-66.5242 663.826,-70.7473 664.339,-63.7661"/>
</g>
<!-- Node19&#45;&gt;Node8 -->
<g id="edge26" class="edge"><title>Node19&#45;&gt;Node8</title>
<path fill="none" stroke="midnightblue" d="M104.085,-275.496C119.036,-247.134 173.903,-150.928 250,-110 295.656,-85.4443 435.757,-73.7693 522.135,-68.7703"/>
<polygon fill="midnightblue" stroke="midnightblue" points="522.346,-72.2641 532.133,-68.2076 521.952,-65.2752 522.346,-72.2641"/>
</g>
<!-- Node20&#45;&gt;Node8 -->
<g id="edge28" class="edge"><title>Node20&#45;&gt;Node8</title>
<path fill="none" stroke="midnightblue" d="M187.376,-275.223C192.579,-246.771 213.851,-152.414 273,-110 311.725,-82.2315 440.014,-71.7207 521.916,-67.7917"/>
<polygon fill="midnightblue" stroke="midnightblue" points="522.083,-71.2878 531.912,-67.3337 521.762,-64.2952 522.083,-71.2878"/>
</g>
<!-- Node21&#45;&gt;Node3 -->
<g id="edge30" class="edge"><title>Node21&#45;&gt;Node3</title>
<path fill="none" stroke="midnightblue" d="M277.563,-275.417C311.489,-249.454 417.994,-167.951 461.355,-134.768"/>
<polygon fill="midnightblue" stroke="midnightblue" points="463.559,-137.489 469.374,-128.632 459.305,-131.93 463.559,-137.489"/>
</g>
<!-- Node21&#45;&gt;Node8 -->
<g id="edge31" class="edge"><title>Node21&#45;&gt;Node8</title>
<path fill="none" stroke="midnightblue" d="M265.051,-275.154C259.085,-247.276 244.131,-156.517 290,-110 321.395,-78.1613 442.335,-68.9504 521.601,-66.3774"/>
<polygon fill="midnightblue" stroke="midnightblue" points="522.121,-69.8637 532.013,-66.0696 521.914,-62.8667 522.121,-69.8637"/>
</g>
<!-- Node22&#45;&gt;Node2 -->
<g id="edge34" class="edge"><title>Node22&#45;&gt;Node2</title>
<path fill="none" stroke="midnightblue" d="M567.34,-275.382C609.836,-256.573 715.244,-209.917 765.5,-187.672"/>
<polygon fill="midnightblue" stroke="midnightblue" points="767.053,-190.812 774.78,-183.564 764.219,-184.411 767.053,-190.812"/>
</g>
<!-- Node22&#45;&gt;Node3 -->
<g id="edge33" class="edge"><title>Node22&#45;&gt;Node3</title>
<path fill="none" stroke="midnightblue" d="M542.266,-275.437C535.381,-266.86 524.763,-252.672 518,-239 501.288,-205.217 489.707,-162.448 484.024,-138.628"/>
<polygon fill="midnightblue" stroke="midnightblue" points="487.365,-137.54 481.711,-128.58 480.543,-139.11 487.365,-137.54"/>
</g>
<!-- Node22&#45;&gt;Node8 -->
<g id="edge35" class="edge"><title>Node22&#45;&gt;Node8</title>
<path fill="none" stroke="midnightblue" d="M548.083,-275.335C546.131,-255.936 542.411,-205.666 551,-165 557.405,-134.676 573.048,-102.03 583.33,-82.702"/>
<polygon fill="midnightblue" stroke="midnightblue" points="586.546,-84.1162 588.269,-73.6625 580.403,-80.7596 586.546,-84.1162"/>
</g>
<!-- Node22&#45;&gt;Node23 -->
<g id="edge36" class="edge"><title>Node22&#45;&gt;Node23</title>
<path fill="none" stroke="midnightblue" d="M588.042,-278.561C660.25,-269.428 815.309,-249.814 903.392,-238.672"/>
<polygon fill="midnightblue" stroke="midnightblue" points="904.049,-242.117 913.531,-237.39 903.17,-235.173 904.049,-242.117"/>
</g>
<!-- Node23&#45;&gt;Node2 -->
<g id="edge38" class="edge"><title>Node23&#45;&gt;Node2</title>
<path fill="none" stroke="midnightblue" d="M941.421,-220.45C911.526,-211.396 862.796,-196.638 829.382,-186.519"/>
<polygon fill="midnightblue" stroke="midnightblue" points="830.127,-183.087 819.542,-183.538 828.098,-189.787 830.127,-183.087"/>
</g>
<!-- Node23&#45;&gt;Node8 -->
<g id="edge39" class="edge"><title>Node23&#45;&gt;Node8</title>
<path fill="none" stroke="midnightblue" d="M967.979,-220.277C967.438,-198.413 962.703,-138.564 928,-110 888.932,-77.8437 750.426,-68.8178 664.218,-66.3511"/>
<polygon fill="midnightblue" stroke="midnightblue" points="664.063,-62.8459 653.974,-66.0817 663.879,-69.8435 664.063,-62.8459"/>
</g>
<!-- Node24 -->
<g id="node24" class="node"><title>Node24</title>
<polygon fill="white" stroke="#bfbfbf" points="1115.93,-165.5 1115.93,-183.5 1168.07,-183.5 1168.07,-165.5 1115.93,-165.5"/>
<text text-anchor="middle" x="1142" y="-171.5" font-family="Helvetica,sans-Serif" font-size="10.00">stdarg.h</text>
</g>
<!-- Node23&#45;&gt;Node24 -->
<g id="edge37" class="edge"><title>Node23&#45;&gt;Node24</title>
<path fill="none" stroke="midnightblue" d="M994.427,-220.45C1024.24,-211.37 1072.88,-196.553 1106.11,-186.431"/>
<polygon fill="midnightblue" stroke="midnightblue" points="1107.35,-189.714 1115.89,-183.452 1105.31,-183.017 1107.35,-189.714"/>
</g>
<!-- Node23&#45;&gt;Node25 -->
<g id="edge40" class="edge"><title>Node23&#45;&gt;Node25</title>
<path fill="none" stroke="midnightblue" d="M1011.13,-220.45C1066.27,-210.161 1160.88,-192.505 1213.62,-182.662"/>
<polygon fill="midnightblue" stroke="midnightblue" points="1214.4,-186.077 1223.59,-180.802 1213.12,-179.196 1214.4,-186.077"/>
</g>
<!-- Node25&#45;&gt;Node8 -->
<g id="edge41" class="edge"><title>Node25&#45;&gt;Node8</title>
<path fill="none" stroke="midnightblue" d="M1249.22,-165.095C1244.05,-150.911 1231.45,-122.545 1210,-110 1163.87,-83.0186 816.452,-71.0921 664.166,-67.121"/>
<polygon fill="midnightblue" stroke="midnightblue" points="664.07,-63.6175 653.984,-66.8598 663.891,-70.6152 664.07,-63.6175"/>
</g>
<!-- Node25&#45;&gt;Node26 -->
<g id="edge42" class="edge"><title>Node25&#45;&gt;Node26</title>
<path fill="none" stroke="midnightblue" d="M1262.63,-165.45C1273.32,-157.357 1290.03,-144.704 1303,-134.882"/>
<polygon fill="midnightblue" stroke="midnightblue" points="1305.41,-137.452 1311.27,-128.625 1301.18,-131.871 1305.41,-137.452"/>
</g>
<!-- Node26&#45;&gt;Node8 -->
<g id="edge43" class="edge"><title>Node26&#45;&gt;Node8</title>
<path fill="none" stroke="midnightblue" d="M1299.26,-112.522C1294.88,-111.545 1290.32,-110.644 1286,-110 1060.71,-76.4119 790.484,-68.1632 664.37,-66.1465"/>
<polygon fill="midnightblue" stroke="midnightblue" points="664.132,-62.6426 654.08,-65.9908 664.026,-69.6418 664.132,-62.6426"/>
</g>
<!-- Node26&#45;&gt;Node9 -->
<g id="edge45" class="edge"><title>Node26&#45;&gt;Node9</title>
<path fill="none" stroke="midnightblue" d="M1322.34,-110.492C1323.2,-97.844 1326.24,-72.8486 1337,-55 1344.3,-42.8933 1356,-32.3374 1366.36,-24.5486"/>
<polygon fill="midnightblue" stroke="midnightblue" points="1368.49,-27.3288 1374.61,-18.6836 1364.43,-21.6225 1368.49,-27.3288"/>
</g>
<!-- Node26&#45;&gt;Node16 -->
<g id="edge44" class="edge"><title>Node26&#45;&gt;Node16</title>
<path fill="none" stroke="midnightblue" d="M1330.28,-110.219C1338.11,-102.394 1350.04,-90.4631 1359.61,-80.8921"/>
<polygon fill="midnightblue" stroke="midnightblue" points="1362.35,-83.0955 1366.95,-73.5496 1357.4,-78.1458 1362.35,-83.0955"/>
</g>
<!-- Node27&#45;&gt;Node3 -->
<g id="edge48" class="edge"><title>Node27&#45;&gt;Node3</title>
<path fill="none" stroke="midnightblue" d="M575.838,-165.45C557.42,-156.812 527.93,-142.98 506.522,-132.94"/>
<polygon fill="midnightblue" stroke="midnightblue" points="507.864,-129.703 497.324,-128.625 504.891,-136.041 507.864,-129.703"/>
</g>
<!-- Node27&#45;&gt;Node8 -->
<g id="edge49" class="edge"><title>Node27&#45;&gt;Node8</title>
<path fill="none" stroke="midnightblue" d="M593,-165.382C593,-148.182 593,-107.698 593,-83.8866"/>
<polygon fill="midnightblue" stroke="midnightblue" points="596.5,-83.7117 593,-73.7118 589.5,-83.7118 596.5,-83.7117"/>
</g>
<!-- Node28&#45;&gt;Node2 -->
<g id="edge58" class="edge"><title>Node28&#45;&gt;Node2</title>
<path fill="none" stroke="midnightblue" d="M819.156,-220.219C814.809,-212.786 808.293,-201.646 802.853,-192.345"/>
<polygon fill="midnightblue" stroke="midnightblue" points="805.778,-190.414 797.708,-183.55 799.736,-193.949 805.778,-190.414"/>
</g>
<!-- Node28&#45;&gt;Node3 -->
<g id="edge57" class="edge"><title>Node28&#45;&gt;Node3</title>
<path fill="none" stroke="midnightblue" d="M801.123,-220.447C765.687,-208.056 695.316,-183.781 635,-165 593.692,-152.138 545.776,-138.589 514.281,-129.869"/>
<polygon fill="midnightblue" stroke="midnightblue" points="514.833,-126.391 504.262,-127.105 512.971,-133.139 514.833,-126.391"/>
</g>
<!-- Node28&#45;&gt;Node8 -->
<g id="edge60" class="edge"><title>Node28&#45;&gt;Node8</title>
<path fill="none" stroke="midnightblue" d="M856.125,-220.43C874.784,-213.912 896.766,-202.664 908,-184 924.96,-155.822 929.568,-134.829 908,-110 877.055,-74.3764 747.081,-66.4828 664.063,-65.1721"/>
<polygon fill="midnightblue" stroke="midnightblue" points="663.976,-61.6707 653.931,-65.0409 663.885,-68.6702 663.976,-61.6707"/>
</g>
<!-- Node28&#45;&gt;Node11 -->
<g id="edge59" class="edge"><title>Node28&#45;&gt;Node11</title>
<path fill="none" stroke="midnightblue" d="M858.021,-220.45C897.111,-211.201 961.361,-195.999 1004.17,-185.871"/>
<polygon fill="midnightblue" stroke="midnightblue" points="1005.1,-189.247 1014.03,-183.538 1003.49,-182.435 1005.1,-189.247"/>
</g>
<!-- Node29&#45;&gt;Node8 -->
<g id="edge62" class="edge"><title>Node29&#45;&gt;Node8</title>
<path fill="none" stroke="midnightblue" d="M398.896,-330.254C390.836,-313.546 373.187,-274.284 367,-239 356.047,-176.533 378.052,-149.082 428,-110 454.777,-89.0479 490.645,-77.9368 522.099,-72.0547"/>
<polygon fill="midnightblue" stroke="midnightblue" points="522.879,-75.4718 532.139,-70.3228 521.69,-68.5737 522.879,-75.4718"/>
</g>
<!-- Node30&#45;&gt;Node8 -->
<g id="edge65" class="edge"><title>Node30&#45;&gt;Node8</title>
<path fill="none" stroke="midnightblue" d="M1116.73,-222.506C1146.47,-212.463 1197.28,-190.783 1177,-165 1114.73,-85.8415 805.935,-69.5658 664.261,-66.2876"/>
<polygon fill="midnightblue" stroke="midnightblue" points="664.018,-62.7817 653.945,-66.0652 663.867,-69.7801 664.018,-62.7817"/>
</g>
<!-- Node30&#45;&gt;Node24 -->
<g id="edge64" class="edge"><title>Node30&#45;&gt;Node24</title>
<path fill="none" stroke="midnightblue" d="M1104.03,-220.219C1110.61,-212.473 1120.6,-200.701 1128.69,-191.18"/>
<polygon fill="midnightblue" stroke="midnightblue" points="1131.36,-193.438 1135.17,-183.55 1126.03,-188.907 1131.36,-193.438"/>
</g>
<!-- Node34&#45;&gt;Node3 -->
<g id="edge77" class="edge"><title>Node34&#45;&gt;Node3</title>
<path fill="none" stroke="midnightblue" d="M1411.82,-169.495C1208.44,-158.801 658.359,-129.878 514.703,-122.325"/>
<polygon fill="midnightblue" stroke="midnightblue" points="514.486,-118.809 504.316,-121.779 514.119,-125.799 514.486,-118.809"/>
</g>
<!-- Node34&#45;&gt;Node9 -->
<g id="edge76" class="edge"><title>Node34&#45;&gt;Node9</title>
<path fill="none" stroke="midnightblue" d="M1482.9,-165.193C1467.25,-139.684 1419.67,-62.1258 1398.43,-27.5036"/>
<polygon fill="midnightblue" stroke="midnightblue" points="1401.18,-25.2906 1392.97,-18.5971 1395.21,-28.9512 1401.18,-25.2906"/>
</g>
<!-- Node35&#45;&gt;Node7 -->
<g id="edge79" class="edge"><title>Node35&#45;&gt;Node7</title>
<path fill="none" stroke="midnightblue" d="M731.179,-495.45C716.748,-487.045 693.875,-473.724 676.77,-463.762"/>
<polygon fill="midnightblue" stroke="midnightblue" points="678.354,-460.634 667.951,-458.625 674.831,-466.683 678.354,-460.634"/>
</g>
</g>
</svg>
