<?xml version="1.0" encoding="UTF-8" standalone="no"?>
<!DOCTYPE svg PUBLIC "-//W3C//DTD SVG 1.1//EN"
 "http://www.w3.org/Graphics/SVG/1.1/DTD/svg11.dtd">
<!-- Generated by graphviz version 2.38.0 (20140413.2041)
 -->
<!-- Title: libraries/AP_BattMonitor/AP_BattMonitor_Bebop.h Pages: 1 -->
<svg width="292pt" height="102pt"
 viewBox="0.00 0.00 292.01 102.00" xmlns="http://www.w3.org/2000/svg" xmlns:xlink="http://www.w3.org/1999/xlink">
<g id="graph0" class="graph" transform="scale(1 1) rotate(0) translate(4 98)">
<title>libraries/AP_BattMonitor/AP_BattMonitor_Bebop.h</title>
<polygon fill="white" stroke="none" points="-4,4 -4,-98 288.007,-98 288.007,4 -4,4"/>
<!-- Node1 -->
<g id="node1" class="node"><title>Node1</title>
<polygon fill="#bfbfbf" stroke="black" points="71.0962,-65.5 71.0962,-93.5 202.726,-93.5 202.726,-65.5 71.0962,-65.5"/>
<text text-anchor="start" x="79.0962" y="-81.5" font-family="Helvetica,sans-Serif" font-size="10.00">libraries/AP_BattMonitor</text>
<text text-anchor="middle" x="136.911" y="-71.5" font-family="Helvetica,sans-Serif" font-size="10.00">/AP_BattMonitor_Bebop.h</text>
</g>
<!-- Node2 -->
<g id="node2" class="node"><title>Node2</title>
<g id="a_node2"><a xlink:href="$AP__BattMonitor_8cpp.html" xlink:title="libraries/AP_BattMonitor\l/AP_BattMonitor.cpp">
<polygon fill="white" stroke="black" points="0,-0.5 0,-28.5 123.822,-28.5 123.822,-0.5 0,-0.5"/>
<text text-anchor="start" x="8" y="-16.5" font-family="Helvetica,sans-Serif" font-size="10.00">libraries/AP_BattMonitor</text>
<text text-anchor="middle" x="61.9111" y="-6.5" font-family="Helvetica,sans-Serif" font-size="10.00">/AP_BattMonitor.cpp</text>
</a>
</g>
</g>
<!-- Node1&#45;&gt;Node2 -->
<g id="edge1" class="edge"><title>Node1&#45;&gt;Node2</title>
<path fill="none" stroke="midnightblue" d="M113.639,-58.9513C101.861,-49.0581 87.8852,-37.3182 77.4313,-28.5369"/>
<polygon fill="midnightblue" stroke="midnightblue" points="111.463,-61.6944 121.371,-65.4464 115.965,-56.3344 111.463,-61.6944"/>
</g>
<!-- Node3 -->
<g id="node3" class="node"><title>Node3</title>
<g id="a_node3"><a xlink:href="$AP__BattMonitor__Bebop_8cpp.html" xlink:title="libraries/AP_BattMonitor\l/AP_BattMonitor_Bebop.cpp">
<polygon fill="white" stroke="black" points="141.815,-0.5 141.815,-28.5 284.007,-28.5 284.007,-0.5 141.815,-0.5"/>
<text text-anchor="start" x="149.815" y="-16.5" font-family="Helvetica,sans-Serif" font-size="10.00">libraries/AP_BattMonitor</text>
<text text-anchor="middle" x="212.911" y="-6.5" font-family="Helvetica,sans-Serif" font-size="10.00">/AP_BattMonitor_Bebop.cpp</text>
</a>
</g>
</g>
<!-- Node1&#45;&gt;Node3 -->
<g id="edge2" class="edge"><title>Node1&#45;&gt;Node3</title>
<path fill="none" stroke="midnightblue" d="M160.494,-58.9513C172.428,-49.0581 186.591,-37.3182 197.184,-28.5369"/>
<polygon fill="midnightblue" stroke="midnightblue" points="158.124,-56.3698 152.658,-65.4464 162.591,-61.759 158.124,-56.3698"/>
</g>
</g>
</svg>
