<?xml version="1.0" encoding="UTF-8" standalone="no"?>
<!DOCTYPE svg PUBLIC "-//W3C//DTD SVG 1.1//EN"
 "http://www.w3.org/Graphics/SVG/1.1/DTD/svg11.dtd">
<!-- Generated by graphviz version 2.38.0 (20140413.2041)
 -->
<!-- Title: libraries/AP_InertialSensor/AP_InertialSensor_UserInteract.h Pages: 1 -->
<svg width="196pt" height="147pt"
 viewBox="0.00 0.00 196.41 147.00" xmlns="http://www.w3.org/2000/svg" xmlns:xlink="http://www.w3.org/1999/xlink">
<g id="graph0" class="graph" transform="scale(1 1) rotate(0) translate(4 143)">
<title>libraries/AP_InertialSensor/AP_InertialSensor_UserInteract.h</title>
<polygon fill="white" stroke="none" points="-4,4 -4,-143 192.414,-143 192.414,4 -4,4"/>
<!-- Node1 -->
<g id="node1" class="node"><title>Node1</title>
<polygon fill="#bfbfbf" stroke="black" points="6.24902,-110.5 6.24902,-138.5 173.992,-138.5 173.992,-110.5 6.24902,-110.5"/>
<text text-anchor="start" x="14.249" y="-126.5" font-family="Helvetica,sans-Serif" font-size="10.00">libraries/AP_InertialSensor</text>
<text text-anchor="middle" x="90.1206" y="-116.5" font-family="Helvetica,sans-Serif" font-size="10.00">/AP_InertialSensor_UserInteract.h</text>
</g>
<!-- Node2 -->
<g id="node2" class="node"><title>Node2</title>
<g id="a_node2"><a xlink:href="$AP__Common_8h.html" xlink:title="Common definitions and utility routines for the ArduPilot libraries. ">
<polygon fill="white" stroke="black" points="17.0938,-55.5 17.0938,-73.5 163.147,-73.5 163.147,-55.5 17.0938,-55.5"/>
<text text-anchor="middle" x="90.1206" y="-61.5" font-family="Helvetica,sans-Serif" font-size="10.00">AP_Common/AP_Common.h</text>
</a>
</g>
</g>
<!-- Node1&#45;&gt;Node2 -->
<g id="edge1" class="edge"><title>Node1&#45;&gt;Node2</title>
<path fill="none" stroke="midnightblue" d="M90.1206,-110.339C90.1206,-102.531 90.1206,-92.5122 90.1206,-83.9265"/>
<polygon fill="midnightblue" stroke="midnightblue" points="93.6207,-83.7714 90.1206,-73.7715 86.6207,-83.7715 93.6207,-83.7714"/>
</g>
<!-- Node3 -->
<g id="node3" class="node"><title>Node3</title>
<polygon fill="white" stroke="#bfbfbf" points="0,-0.5 0,-18.5 48.2412,-18.5 48.2412,-0.5 0,-0.5"/>
<text text-anchor="middle" x="24.1206" y="-6.5" font-family="Helvetica,sans-Serif" font-size="10.00">stdint.h</text>
</g>
<!-- Node2&#45;&gt;Node3 -->
<g id="edge2" class="edge"><title>Node2&#45;&gt;Node3</title>
<path fill="none" stroke="midnightblue" d="M80.0966,-55.4504C70.1145,-47.4345 54.5641,-34.9471 42.3842,-25.1663"/>
<polygon fill="midnightblue" stroke="midnightblue" points="44.2276,-22.1577 34.2389,-18.6253 39.8446,-27.6157 44.2276,-22.1577"/>
</g>
<!-- Node4 -->
<g id="node4" class="node"><title>Node4</title>
<polygon fill="white" stroke="#bfbfbf" points="66.2783,-0.5 66.2783,-18.5 113.963,-18.5 113.963,-0.5 66.2783,-0.5"/>
<text text-anchor="middle" x="90.1206" y="-6.5" font-family="Helvetica,sans-Serif" font-size="10.00">stdlib.h</text>
</g>
<!-- Node2&#45;&gt;Node4 -->
<g id="edge3" class="edge"><title>Node2&#45;&gt;Node4</title>
<path fill="none" stroke="midnightblue" d="M90.1206,-55.2188C90.1206,-48.1769 90.1206,-37.8083 90.1206,-28.8277"/>
<polygon fill="midnightblue" stroke="midnightblue" points="93.6207,-28.5495 90.1206,-18.5496 86.6207,-28.5496 93.6207,-28.5495"/>
</g>
<!-- Node5 -->
<g id="node5" class="node"><title>Node5</title>
<polygon fill="white" stroke="#bfbfbf" points="131.828,-0.5 131.828,-18.5 188.414,-18.5 188.414,-0.5 131.828,-0.5"/>
<text text-anchor="middle" x="160.121" y="-6.5" font-family="Helvetica,sans-Serif" font-size="10.00">stdbool.h</text>
</g>
<!-- Node2&#45;&gt;Node5 -->
<g id="edge4" class="edge"><title>Node2&#45;&gt;Node5</title>
<path fill="none" stroke="midnightblue" d="M100.752,-55.4504C111.442,-47.3566 128.153,-34.7042 141.125,-24.8822"/>
<polygon fill="midnightblue" stroke="midnightblue" points="143.529,-27.4521 149.389,-18.6253 139.304,-21.8713 143.529,-27.4521"/>
</g>
</g>
</svg>
