<?xml version="1.0" encoding="UTF-8" standalone="no"?>
<!DOCTYPE svg PUBLIC "-//W3C//DTD SVG 1.1//EN"
 "http://www.w3.org/Graphics/SVG/1.1/DTD/svg11.dtd">
<!-- Generated by graphviz version 2.38.0 (20140413.2041)
 -->
<!-- Title: libraries/AP_HAL_FLYMAPLE/I2CDriver.cpp Pages: 1 -->
<svg width="1376pt" height="697pt"
 viewBox="0.00 0.00 1375.92 697.00" xmlns="http://www.w3.org/2000/svg" xmlns:xlink="http://www.w3.org/1999/xlink">
<g id="graph0" class="graph" transform="scale(1 1) rotate(0) translate(4 693)">
<title>libraries/AP_HAL_FLYMAPLE/I2CDriver.cpp</title>
<polygon fill="white" stroke="none" points="-4,4 -4,-693 1371.92,-693 1371.92,4 -4,4"/>
<!-- Node1 -->
<g id="node1" class="node"><title>Node1</title>
<polygon fill="#bfbfbf" stroke="black" points="633.797,-660.5 633.797,-688.5 783.005,-688.5 783.005,-660.5 633.797,-660.5"/>
<text text-anchor="start" x="641.797" y="-676.5" font-family="Helvetica,sans-Serif" font-size="10.00">libraries/AP_HAL_FLYMAPLE</text>
<text text-anchor="middle" x="708.401" y="-666.5" font-family="Helvetica,sans-Serif" font-size="10.00">/I2CDriver.cpp</text>
</g>
<!-- Node2 -->
<g id="node2" class="node"><title>Node2</title>
<g id="a_node2"><a xlink:href="$AP__HAL_8h.html" xlink:title="AP_HAL/AP_HAL.h">
<polygon fill="white" stroke="black" points="572.488,-440.5 572.488,-458.5 676.315,-458.5 676.315,-440.5 572.488,-440.5"/>
<text text-anchor="middle" x="624.401" y="-446.5" font-family="Helvetica,sans-Serif" font-size="10.00">AP_HAL/AP_HAL.h</text>
</a>
</g>
</g>
<!-- Node1&#45;&gt;Node2 -->
<g id="edge1" class="edge"><title>Node1&#45;&gt;Node2</title>
<path fill="none" stroke="midnightblue" d="M692.414,-660.324C671.912,-642.252 637.45,-607.588 624.401,-569 612.904,-535.001 617.077,-492.31 620.902,-468.562"/>
<polygon fill="midnightblue" stroke="midnightblue" points="624.378,-469.005 622.681,-458.547 617.486,-467.781 624.378,-469.005"/>
</g>
<!-- Node30 -->
<g id="node30" class="node"><title>Node30</title>
<g id="a_node30"><a xlink:href="$FLYMAPLE_2I2CDriver_8h.html" xlink:title="I2CDriver.h">
<polygon fill="white" stroke="black" points="675.392,-605.5 675.392,-623.5 741.411,-623.5 741.411,-605.5 675.392,-605.5"/>
<text text-anchor="middle" x="708.401" y="-611.5" font-family="Helvetica,sans-Serif" font-size="10.00">I2CDriver.h</text>
</a>
</g>
</g>
<!-- Node1&#45;&gt;Node30 -->
<g id="edge68" class="edge"><title>Node1&#45;&gt;Node30</title>
<path fill="none" stroke="midnightblue" d="M708.401,-660.339C708.401,-652.531 708.401,-642.512 708.401,-633.927"/>
<polygon fill="midnightblue" stroke="midnightblue" points="711.901,-633.771 708.401,-623.771 704.901,-633.772 711.901,-633.771"/>
</g>
<!-- Node35 -->
<g id="node35" class="node"><title>Node35</title>
<g id="a_node35"><a xlink:href="$FlymapleWirish_8h.html" xlink:title="FlymapleWirish.h">
<polygon fill="white" stroke="black" points="789.062,-605.5 789.062,-623.5 881.741,-623.5 881.741,-605.5 789.062,-605.5"/>
<text text-anchor="middle" x="835.401" y="-611.5" font-family="Helvetica,sans-Serif" font-size="10.00">FlymapleWirish.h</text>
</a>
</g>
</g>
<!-- Node1&#45;&gt;Node35 -->
<g id="edge75" class="edge"><title>Node1&#45;&gt;Node35</title>
<path fill="none" stroke="midnightblue" d="M736.903,-660.484C758.242,-650.738 787.25,-637.491 808.255,-627.898"/>
<polygon fill="midnightblue" stroke="midnightblue" points="809.928,-630.981 817.57,-623.643 807.02,-624.614 809.928,-630.981"/>
</g>
<!-- Node3 -->
<g id="node3" class="node"><title>Node3</title>
<polygon fill="white" stroke="#bfbfbf" points="766.281,-110.5 766.281,-128.5 814.522,-128.5 814.522,-110.5 766.281,-110.5"/>
<text text-anchor="middle" x="790.401" y="-116.5" font-family="Helvetica,sans-Serif" font-size="10.00">stdint.h</text>
</g>
<!-- Node2&#45;&gt;Node3 -->
<g id="edge2" class="edge"><title>Node2&#45;&gt;Node3</title>
<path fill="none" stroke="midnightblue" d="M644.238,-440.374C659.902,-433.018 681.241,-420.765 694.401,-404 760.503,-319.792 782.386,-187.519 788.411,-139.074"/>
<polygon fill="midnightblue" stroke="midnightblue" points="791.918,-139.211 789.594,-128.874 784.965,-138.404 791.918,-139.211"/>
</g>
<!-- Node4 -->
<g id="node4" class="node"><title>Node4</title>
<polygon fill="white" stroke="#bfbfbf" points="426.108,-110.5 426.108,-128.5 482.694,-128.5 482.694,-110.5 426.108,-110.5"/>
<text text-anchor="middle" x="454.401" y="-116.5" font-family="Helvetica,sans-Serif" font-size="10.00">stdbool.h</text>
</g>
<!-- Node2&#45;&gt;Node4 -->
<g id="edge3" class="edge"><title>Node2&#45;&gt;Node4</title>
<path fill="none" stroke="midnightblue" d="M603.125,-440.48C586.616,-433.253 564.275,-421.122 550.401,-404 482.853,-320.639 461.817,-187.326 456.206,-138.865"/>
<polygon fill="midnightblue" stroke="midnightblue" points="459.66,-138.255 455.115,-128.685 452.7,-139 459.66,-138.255"/>
</g>
<!-- Node5 -->
<g id="node5" class="node"><title>Node5</title>
<g id="a_node5"><a xlink:href="$AP__HAL__Namespace_8h.html" xlink:title="AP_HAL_Namespace.h">
<polygon fill="white" stroke="black" points="449.594,-55.5 449.594,-73.5 571.209,-73.5 571.209,-55.5 449.594,-55.5"/>
<text text-anchor="middle" x="510.401" y="-61.5" font-family="Helvetica,sans-Serif" font-size="10.00">AP_HAL_Namespace.h</text>
</a>
</g>
</g>
<!-- Node2&#45;&gt;Node5 -->
<g id="edge4" class="edge"><title>Node2&#45;&gt;Node5</title>
<path fill="none" stroke="midnightblue" d="M676.618,-441.008C679.588,-440.649 682.531,-440.31 685.401,-440 893.251,-417.563 955.461,-468.249 1154.4,-404 1205.94,-387.356 1258.4,-394.657 1258.4,-340.5 1258.4,-340.5 1258.4,-340.5 1258.4,-173.5 1258.4,-125.27 1215.77,-126.366 1170.4,-110 1063.78,-71.5401 729.202,-65.9331 581.584,-65.3817"/>
<polygon fill="midnightblue" stroke="midnightblue" points="581.295,-61.8809 571.284,-65.3504 581.273,-68.8809 581.295,-61.8809"/>
</g>
<!-- Node8 -->
<g id="node8" class="node"><title>Node8</title>
<g id="a_node8"><a xlink:href="$AP__HAL__Boards_8h.html" xlink:title="AP_HAL_Boards.h">
<polygon fill="white" stroke="black" points="970.431,-165.5 970.431,-183.5 1070.37,-183.5 1070.37,-165.5 970.431,-165.5"/>
<text text-anchor="middle" x="1020.4" y="-171.5" font-family="Helvetica,sans-Serif" font-size="10.00">AP_HAL_Boards.h</text>
</a>
</g>
</g>
<!-- Node2&#45;&gt;Node8 -->
<g id="edge7" class="edge"><title>Node2&#45;&gt;Node8</title>
<path fill="none" stroke="midnightblue" d="M668.029,-440.453C781.912,-419.155 1079.4,-361.507 1079.4,-340.5 1079.4,-340.5 1079.4,-340.5 1079.4,-283.5 1079.4,-246.858 1052.92,-210.841 1035.44,-191.056"/>
<polygon fill="midnightblue" stroke="midnightblue" points="1037.95,-188.611 1028.61,-183.616 1032.79,-193.347 1037.95,-188.611"/>
</g>
<!-- Node9 -->
<g id="node9" class="node"><title>Node9</title>
<g id="a_node9"><a xlink:href="$AP__HAL__Macros_8h.html" xlink:title="AP_HAL_Macros.h">
<polygon fill="white" stroke="black" points="229.882,-385.5 229.882,-403.5 330.921,-403.5 330.921,-385.5 229.882,-385.5"/>
<text text-anchor="middle" x="280.401" y="-391.5" font-family="Helvetica,sans-Serif" font-size="10.00">AP_HAL_Macros.h</text>
</a>
</g>
</g>
<!-- Node2&#45;&gt;Node9 -->
<g id="edge8" class="edge"><title>Node2&#45;&gt;Node9</title>
<path fill="none" stroke="midnightblue" d="M572.155,-440.45C510.158,-430.898 406.95,-414.997 341.364,-404.892"/>
<polygon fill="midnightblue" stroke="midnightblue" points="341.589,-401.386 331.173,-403.322 340.523,-408.304 341.589,-401.386"/>
</g>
<!-- Node10 -->
<g id="node10" class="node"><title>Node10</title>
<g id="a_node10"><a xlink:href="$AP__HAL__Main_8h.html" xlink:title="AP_HAL_Main.h">
<polygon fill="white" stroke="black" points="579.436,-385.5 579.436,-403.5 669.367,-403.5 669.367,-385.5 579.436,-385.5"/>
<text text-anchor="middle" x="624.401" y="-391.5" font-family="Helvetica,sans-Serif" font-size="10.00">AP_HAL_Main.h</text>
</a>
</g>
</g>
<!-- Node2&#45;&gt;Node10 -->
<g id="edge9" class="edge"><title>Node2&#45;&gt;Node10</title>
<path fill="none" stroke="midnightblue" d="M624.401,-440.219C624.401,-433.177 624.401,-422.808 624.401,-413.828"/>
<polygon fill="midnightblue" stroke="midnightblue" points="627.901,-413.55 624.401,-403.55 620.901,-413.55 627.901,-413.55"/>
</g>
<!-- Node11 -->
<g id="node11" class="node"><title>Node11</title>
<g id="a_node11"><a xlink:href="$HAL_8h.html" xlink:title="HAL.h">
<polygon fill="white" stroke="black" points="569.505,-330.5 569.505,-348.5 613.298,-348.5 613.298,-330.5 569.505,-330.5"/>
<text text-anchor="middle" x="591.401" y="-336.5" font-family="Helvetica,sans-Serif" font-size="10.00">HAL.h</text>
</a>
</g>
</g>
<!-- Node2&#45;&gt;Node11 -->
<g id="edge67" class="edge"><title>Node2&#45;&gt;Node11</title>
<path fill="none" stroke="midnightblue" d="M608.292,-440.407C595.379,-432.926 578.176,-420.481 570.401,-404 563.146,-388.62 571.065,-370.055 579.171,-356.983"/>
<polygon fill="midnightblue" stroke="midnightblue" points="582.169,-358.798 584.892,-348.559 576.378,-354.865 582.169,-358.798"/>
</g>
<!-- Node12 -->
<g id="node12" class="node"><title>Node12</title>
<g id="a_node12"><a xlink:href="$AnalogIn_8h.html" xlink:title="AnalogIn.h">
<polygon fill="white" stroke="black" points="71.4927,-220.5 71.4927,-238.5 135.31,-238.5 135.31,-220.5 71.4927,-220.5"/>
<text text-anchor="middle" x="103.401" y="-226.5" font-family="Helvetica,sans-Serif" font-size="10.00">AnalogIn.h</text>
</a>
</g>
</g>
<!-- Node2&#45;&gt;Node12 -->
<g id="edge49" class="edge"><title>Node2&#45;&gt;Node12</title>
<path fill="none" stroke="midnightblue" d="M572.446,-446.944C455.874,-442.988 181.167,-430.893 149.401,-404 103.046,-364.755 100.612,-284.698 102.09,-248.722"/>
<polygon fill="midnightblue" stroke="midnightblue" points="105.587,-248.88 102.657,-238.698 98.5979,-248.485 105.587,-248.88"/>
</g>
<!-- Node14 -->
<g id="node14" class="node"><title>Node14</title>
<g id="a_node14"><a xlink:href="$GPIO_8h.html" xlink:title="GPIO.h">
<polygon fill="white" stroke="black" points="502.729,-220.5 502.729,-238.5 552.074,-238.5 552.074,-220.5 502.729,-220.5"/>
<text text-anchor="middle" x="527.401" y="-226.5" font-family="Helvetica,sans-Serif" font-size="10.00">GPIO.h</text>
</a>
</g>
</g>
<!-- Node2&#45;&gt;Node14 -->
<g id="edge51" class="edge"><title>Node2&#45;&gt;Node14</title>
<path fill="none" stroke="midnightblue" d="M607.745,-440.496C593.964,-432.995 574.992,-420.472 564.401,-404 532.517,-354.407 527.628,-281.968 527.19,-248.58"/>
<polygon fill="midnightblue" stroke="midnightblue" points="530.69,-248.499 527.184,-238.501 523.69,-248.503 530.69,-248.499"/>
</g>
<!-- Node15 -->
<g id="node15" class="node"><title>Node15</title>
<g id="a_node15"><a xlink:href="$RCInput_8h.html" xlink:title="RCInput.h">
<polygon fill="white" stroke="black" points="347.889,-275.5 347.889,-293.5 408.914,-293.5 408.914,-275.5 347.889,-275.5"/>
<text text-anchor="middle" x="378.401" y="-281.5" font-family="Helvetica,sans-Serif" font-size="10.00">RCInput.h</text>
</a>
</g>
</g>
<!-- Node2&#45;&gt;Node15 -->
<g id="edge52" class="edge"><title>Node2&#45;&gt;Node15</title>
<path fill="none" stroke="midnightblue" d="M572.341,-442.628C520.437,-435.803 445.369,-422.992 423.401,-404 393.383,-378.048 383.327,-329.864 380.004,-303.643"/>
<polygon fill="midnightblue" stroke="midnightblue" points="383.472,-303.159 378.929,-293.588 376.512,-303.903 383.472,-303.159"/>
</g>
<!-- Node16 -->
<g id="node16" class="node"><title>Node16</title>
<g id="a_node16"><a xlink:href="$RCOutput_8h.html" xlink:title="RCOutput.h">
<polygon fill="white" stroke="black" points="777,-275.5 777,-293.5 845.803,-293.5 845.803,-275.5 777,-275.5"/>
<text text-anchor="middle" x="811.401" y="-281.5" font-family="Helvetica,sans-Serif" font-size="10.00">RCOutput.h</text>
</a>
</g>
</g>
<!-- Node2&#45;&gt;Node16 -->
<g id="edge53" class="edge"><title>Node2&#45;&gt;Node16</title>
<path fill="none" stroke="midnightblue" d="M661.108,-440.474C697.007,-431.984 748.401,-417.915 763.401,-404 792.603,-376.912 804.451,-329.575 808.925,-303.686"/>
<polygon fill="midnightblue" stroke="midnightblue" points="812.394,-304.153 810.46,-293.737 805.476,-303.086 812.394,-304.153"/>
</g>
<!-- Node17 -->
<g id="node17" class="node"><title>Node17</title>
<g id="a_node17"><a xlink:href="$SPIDriver_8h.html" xlink:title="SPIDriver.h">
<polygon fill="white" stroke="black" points="1145.11,-275.5 1145.11,-293.5 1211.69,-293.5 1211.69,-275.5 1145.11,-275.5"/>
<text text-anchor="middle" x="1178.4" y="-281.5" font-family="Helvetica,sans-Serif" font-size="10.00">SPIDriver.h</text>
</a>
</g>
</g>
<!-- Node2&#45;&gt;Node17 -->
<g id="edge48" class="edge"><title>Node2&#45;&gt;Node17</title>
<path fill="none" stroke="midnightblue" d="M676.62,-441.021C679.589,-440.659 682.532,-440.315 685.401,-440 734.82,-434.567 1091.43,-433.566 1131.4,-404 1163.64,-380.153 1173.79,-330.702 1176.97,-303.836"/>
<polygon fill="midnightblue" stroke="midnightblue" points="1180.48,-303.841 1177.97,-293.548 1173.51,-303.162 1180.48,-303.841"/>
</g>
<!-- Node18 -->
<g id="node18" class="node"><title>Node18</title>
<g id="a_node18"><a xlink:href="$Storage_8h.html" xlink:title="Storage.h">
<polygon fill="white" stroke="black" points="863.719,-275.5 863.719,-293.5 923.083,-293.5 923.083,-275.5 863.719,-275.5"/>
<text text-anchor="middle" x="893.401" y="-281.5" font-family="Helvetica,sans-Serif" font-size="10.00">Storage.h</text>
</a>
</g>
</g>
<!-- Node2&#45;&gt;Node18 -->
<g id="edge50" class="edge"><title>Node2&#45;&gt;Node18</title>
<path fill="none" stroke="midnightblue" d="M676.683,-441.668C709.727,-435.573 752.287,-424.334 785.401,-404 828.94,-377.265 865.566,-327.949 882.809,-302.177"/>
<polygon fill="midnightblue" stroke="midnightblue" points="885.906,-303.835 888.443,-293.548 880.045,-300.008 885.906,-303.835"/>
</g>
<!-- Node19 -->
<g id="node19" class="node"><title>Node19</title>
<g id="a_node19"><a xlink:href="$UARTDriver_8h.html" xlink:title="UARTDriver.h">
<polygon fill="white" stroke="black" points="579.649,-275.5 579.649,-293.5 657.153,-293.5 657.153,-275.5 579.649,-275.5"/>
<text text-anchor="middle" x="618.401" y="-281.5" font-family="Helvetica,sans-Serif" font-size="10.00">UARTDriver.h</text>
</a>
</g>
</g>
<!-- Node2&#45;&gt;Node19 -->
<g id="edge44" class="edge"><title>Node2&#45;&gt;Node19</title>
<path fill="none" stroke="midnightblue" d="M640.51,-440.407C653.424,-432.926 670.627,-420.481 678.401,-404 682.004,-396.363 680.664,-393.136 678.401,-385 669.388,-352.6 646.668,-320.201 631.916,-301.543"/>
<polygon fill="midnightblue" stroke="midnightblue" points="634.436,-299.094 625.409,-293.547 629.006,-303.513 634.436,-299.094"/>
</g>
<!-- Node22 -->
<g id="node22" class="node"><title>Node22</title>
<g id="a_node22"><a xlink:href="$BetterStream_8h.html" xlink:title="utility/BetterStream.h">
<polygon fill="white" stroke="black" points="247.995,-220.5 247.995,-238.5 356.808,-238.5 356.808,-220.5 247.995,-220.5"/>
<text text-anchor="middle" x="302.401" y="-226.5" font-family="Helvetica,sans-Serif" font-size="10.00">utility/BetterStream.h</text>
</a>
</g>
</g>
<!-- Node2&#45;&gt;Node22 -->
<g id="edge66" class="edge"><title>Node2&#45;&gt;Node22</title>
<path fill="none" stroke="midnightblue" d="M572.25,-442.849C515.99,-435.911 430.899,-422.716 404.401,-404 348.776,-364.709 318.727,-284.676 307.552,-248.714"/>
<polygon fill="midnightblue" stroke="midnightblue" points="310.779,-247.286 304.579,-238.695 304.068,-249.277 310.779,-247.286"/>
</g>
<!-- Node24 -->
<g id="node24" class="node"><title>Node24</title>
<g id="a_node24"><a xlink:href="$Stream_8h.html" xlink:title="Stream.h">
<polygon fill="white" stroke="black" points="130.116,-165.5 130.116,-183.5 186.687,-183.5 186.687,-165.5 130.116,-165.5"/>
<text text-anchor="middle" x="158.401" y="-171.5" font-family="Helvetica,sans-Serif" font-size="10.00">Stream.h</text>
</a>
</g>
</g>
<!-- Node2&#45;&gt;Node24 -->
<g id="edge65" class="edge"><title>Node2&#45;&gt;Node24</title>
<path fill="none" stroke="midnightblue" d="M572.167,-448.56C473.402,-447.779 263.762,-441.59 203.401,-404 175.088,-386.368 163.401,-373.855 163.401,-340.5 163.401,-340.5 163.401,-340.5 163.401,-283.5 163.401,-251.984 161.25,-215.35 159.77,-193.869"/>
<polygon fill="midnightblue" stroke="midnightblue" points="163.242,-193.347 159.035,-183.623 156.26,-193.848 163.242,-193.347"/>
</g>
<!-- Node25 -->
<g id="node25" class="node"><title>Node25</title>
<g id="a_node25"><a xlink:href="$Print_8h.html" xlink:title="Print.h">
<polygon fill="white" stroke="black" points="31.9507,-110.5 31.9507,-128.5 76.8521,-128.5 76.8521,-110.5 31.9507,-110.5"/>
<text text-anchor="middle" x="54.4014" y="-116.5" font-family="Helvetica,sans-Serif" font-size="10.00">Print.h</text>
</a>
</g>
</g>
<!-- Node2&#45;&gt;Node25 -->
<g id="edge64" class="edge"><title>Node2&#45;&gt;Node25</title>
<path fill="none" stroke="midnightblue" d="M572.404,-447.362C462.337,-444.384 209.362,-434.357 129.401,-404 84.9823,-387.136 43.4014,-388.012 43.4014,-340.5 43.4014,-340.5 43.4014,-340.5 43.4014,-228.5 43.4014,-196.708 48.1773,-159.922 51.4353,-138.526"/>
<polygon fill="midnightblue" stroke="midnightblue" points="54.8999,-139.025 53.0082,-128.6 47.9861,-137.929 54.8999,-139.025"/>
</g>
<!-- Node26 -->
<g id="node26" class="node"><title>Node26</title>
<g id="a_node26"><a xlink:href="$I2CDriver_8h.html" xlink:title="I2CDriver.h">
<polygon fill="white" stroke="black" points="1126.39,-165.5 1126.39,-183.5 1192.41,-183.5 1192.41,-165.5 1126.39,-165.5"/>
<text text-anchor="middle" x="1159.4" y="-171.5" font-family="Helvetica,sans-Serif" font-size="10.00">I2CDriver.h</text>
</a>
</g>
</g>
<!-- Node2&#45;&gt;Node26 -->
<g id="edge45" class="edge"><title>Node2&#45;&gt;Node26</title>
<path fill="none" stroke="midnightblue" d="M676.61,-440.892C753.57,-429.612 890.835,-409.219 913.401,-404 1005.92,-382.604 1117.4,-435.458 1117.4,-340.5 1117.4,-340.5 1117.4,-340.5 1117.4,-283.5 1117.4,-249.286 1135.94,-212.867 1148.38,-192.273"/>
<polygon fill="midnightblue" stroke="midnightblue" points="1151.38,-194.079 1153.74,-183.75 1145.45,-190.354 1151.38,-194.079"/>
</g>
<!-- Node27 -->
<g id="node27" class="node"><title>Node27</title>
<g id="a_node27"><a xlink:href="$Scheduler_8h.html" xlink:title="Scheduler.h">
<polygon fill="white" stroke="black" points="924.99,-220.5 924.99,-238.5 993.812,-238.5 993.812,-220.5 924.99,-220.5"/>
<text text-anchor="middle" x="959.401" y="-226.5" font-family="Helvetica,sans-Serif" font-size="10.00">Scheduler.h</text>
</a>
</g>
</g>
<!-- Node2&#45;&gt;Node27 -->
<g id="edge54" class="edge"><title>Node2&#45;&gt;Node27</title>
<path fill="none" stroke="midnightblue" d="M669.941,-440.459C717.349,-431.606 788.024,-416.915 812.401,-404 876.334,-370.13 890.632,-353.075 932.401,-294 942.235,-280.092 949.474,-262.044 953.968,-248.746"/>
<polygon fill="midnightblue" stroke="midnightblue" points="957.407,-249.478 957.093,-238.888 950.734,-247.363 957.407,-249.478"/>
</g>
<!-- Node28 -->
<g id="node28" class="node"><title>Node28</title>
<g id="a_node28"><a xlink:href="$Semaphores_8h.html" xlink:title="Semaphores.h">
<polygon fill="white" stroke="black" points="1286.88,-330.5 1286.88,-348.5 1367.92,-348.5 1367.92,-330.5 1286.88,-330.5"/>
<text text-anchor="middle" x="1327.4" y="-336.5" font-family="Helvetica,sans-Serif" font-size="10.00">Semaphores.h</text>
</a>
</g>
</g>
<!-- Node2&#45;&gt;Node28 -->
<g id="edge59" class="edge"><title>Node2&#45;&gt;Node28</title>
<path fill="none" stroke="midnightblue" d="M676.613,-440.955C679.584,-440.609 682.529,-440.288 685.401,-440 815.44,-426.972 1155.25,-461.917 1272.4,-404 1292.78,-393.926 1308.73,-372.581 1318.09,-357.424"/>
<polygon fill="midnightblue" stroke="midnightblue" points="1321.26,-358.939 1323.27,-348.537 1315.21,-355.413 1321.26,-358.939"/>
</g>
<!-- Node29 -->
<g id="node29" class="node"><title>Node29</title>
<g id="a_node29"><a xlink:href="$Util_8h.html" xlink:title="Util.h">
<polygon fill="white" stroke="black" points="191.01,-220.5 191.01,-238.5 229.793,-238.5 229.793,-220.5 191.01,-220.5"/>
<text text-anchor="middle" x="210.401" y="-226.5" font-family="Helvetica,sans-Serif" font-size="10.00">Util.h</text>
</a>
</g>
</g>
<!-- Node2&#45;&gt;Node29 -->
<g id="edge61" class="edge"><title>Node2&#45;&gt;Node29</title>
<path fill="none" stroke="midnightblue" d="M572.15,-446.445C468.377,-441.84 244.205,-429.078 220.401,-404 180.104,-361.546 195.141,-283.796 204.787,-248.628"/>
<polygon fill="midnightblue" stroke="midnightblue" points="208.212,-249.385 207.652,-238.805 201.492,-247.425 208.212,-249.385"/>
</g>
<!-- Node6 -->
<g id="node6" class="node"><title>Node6</title>
<polygon fill="white" stroke="#bfbfbf" points="323.005,-0.5 323.005,-18.5 371.798,-18.5 371.798,-0.5 323.005,-0.5"/>
<text text-anchor="middle" x="347.401" y="-6.5" font-family="Helvetica,sans-Serif" font-size="10.00">string.h</text>
</g>
<!-- Node5&#45;&gt;Node6 -->
<g id="edge5" class="edge"><title>Node5&#45;&gt;Node6</title>
<path fill="none" stroke="midnightblue" d="M485.645,-55.4504C457.84,-46.4094 412.54,-31.6802 381.422,-21.5618"/>
<polygon fill="midnightblue" stroke="midnightblue" points="382.449,-18.2154 371.856,-18.4517 380.284,-24.8724 382.449,-18.2154"/>
</g>
<!-- Node7 -->
<g id="node7" class="node"><title>Node7</title>
<g id="a_node7"><a xlink:href="$functor_8h.html" xlink:title="utility/functor.h">
<polygon fill="white" stroke="black" points="470.438,-0.5 470.438,-18.5 550.364,-18.5 550.364,-0.5 470.438,-0.5"/>
<text text-anchor="middle" x="510.401" y="-6.5" font-family="Helvetica,sans-Serif" font-size="10.00">utility/functor.h</text>
</a>
</g>
</g>
<!-- Node5&#45;&gt;Node7 -->
<g id="edge6" class="edge"><title>Node5&#45;&gt;Node7</title>
<path fill="none" stroke="midnightblue" d="M510.401,-55.2188C510.401,-48.1769 510.401,-37.8083 510.401,-28.8277"/>
<polygon fill="midnightblue" stroke="midnightblue" points="513.901,-28.5495 510.401,-18.5496 506.901,-28.5496 513.901,-28.5495"/>
</g>
<!-- Node10&#45;&gt;Node11 -->
<g id="edge10" class="edge"><title>Node10&#45;&gt;Node11</title>
<path fill="none" stroke="midnightblue" d="M619.245,-385.219C614.568,-377.707 607.535,-366.411 601.707,-357.052"/>
<polygon fill="midnightblue" stroke="midnightblue" points="604.67,-355.189 596.413,-348.55 598.728,-358.889 604.67,-355.189"/>
</g>
<!-- Node11&#45;&gt;Node5 -->
<g id="edge11" class="edge"><title>Node11&#45;&gt;Node5</title>
<path fill="none" stroke="midnightblue" d="M579.915,-330.184C546.048,-304.803 447.102,-224.238 417.401,-129 414.887,-120.938 412.9,-117.144 417.401,-110 427.545,-93.9005 445.303,-83.4982 462.601,-76.8378"/>
<polygon fill="midnightblue" stroke="midnightblue" points="463.829,-80.1161 472.113,-73.51 461.518,-73.5088 463.829,-80.1161"/>
</g>
<!-- Node11&#45;&gt;Node12 -->
<g id="edge12" class="edge"><title>Node11&#45;&gt;Node12</title>
<path fill="none" stroke="midnightblue" d="M569.273,-335.292C525.126,-328.742 423.072,-312.846 338.401,-294 267.451,-278.208 185.762,-254.973 139.79,-241.425"/>
<polygon fill="midnightblue" stroke="midnightblue" points="140.574,-238.007 129.992,-238.524 138.587,-244.719 140.574,-238.007"/>
</g>
<!-- Node11&#45;&gt;Node14 -->
<g id="edge15" class="edge"><title>Node11&#45;&gt;Node14</title>
<path fill="none" stroke="midnightblue" d="M586.591,-330.382C576.213,-312.869 551.531,-271.218 537.537,-247.605"/>
<polygon fill="midnightblue" stroke="midnightblue" points="540.377,-245.53 532.268,-238.712 534.355,-249.099 540.377,-245.53"/>
</g>
<!-- Node11&#45;&gt;Node15 -->
<g id="edge18" class="edge"><title>Node11&#45;&gt;Node15</title>
<path fill="none" stroke="midnightblue" d="M569.409,-333.028C534.008,-324.219 463.838,-306.759 419.114,-295.63"/>
<polygon fill="midnightblue" stroke="midnightblue" points="419.704,-292.171 409.155,-293.152 418.014,-298.963 419.704,-292.171"/>
</g>
<!-- Node11&#45;&gt;Node16 -->
<g id="edge20" class="edge"><title>Node11&#45;&gt;Node16</title>
<path fill="none" stroke="midnightblue" d="M613.3,-333.224C649.246,-324.565 721.413,-307.179 768.008,-295.954"/>
<polygon fill="midnightblue" stroke="midnightblue" points="768.925,-299.333 777.827,-293.588 767.286,-292.528 768.925,-299.333"/>
</g>
<!-- Node11&#45;&gt;Node17 -->
<g id="edge22" class="edge"><title>Node11&#45;&gt;Node17</title>
<path fill="none" stroke="midnightblue" d="M613.341,-336.519C699.813,-328.712 1018.01,-299.982 1134.93,-289.425"/>
<polygon fill="midnightblue" stroke="midnightblue" points="1135.31,-292.905 1144.96,-288.52 1134.68,-285.933 1135.31,-292.905"/>
</g>
<!-- Node11&#45;&gt;Node18 -->
<g id="edge24" class="edge"><title>Node11&#45;&gt;Node18</title>
<path fill="none" stroke="midnightblue" d="M613.632,-335.1C657.458,-328.32 758.307,-312.339 853.534,-294.087"/>
<polygon fill="midnightblue" stroke="midnightblue" points="854.465,-297.473 863.621,-292.141 853.139,-290.599 854.465,-297.473"/>
</g>
<!-- Node11&#45;&gt;Node19 -->
<g id="edge27" class="edge"><title>Node11&#45;&gt;Node19</title>
<path fill="none" stroke="midnightblue" d="M595.62,-330.219C599.367,-322.864 604.962,-311.88 609.67,-302.639"/>
<polygon fill="midnightblue" stroke="midnightblue" points="612.88,-304.049 614.301,-293.55 606.643,-300.871 612.88,-304.049"/>
</g>
<!-- Node12&#45;&gt;Node5 -->
<g id="edge14" class="edge"><title>Node12&#45;&gt;Node5</title>
<path fill="none" stroke="midnightblue" d="M104.377,-220.146C106.153,-207.465 110.763,-182.937 121.401,-165 139.197,-134.995 146.059,-125.319 177.401,-110 222.172,-88.1178 355.534,-75.6215 439.277,-69.7304"/>
<polygon fill="midnightblue" stroke="midnightblue" points="439.751,-73.2062 449.487,-69.0275 439.27,-66.2227 439.751,-73.2062"/>
</g>
<!-- Node13 -->
<g id="node13" class="node"><title>Node13</title>
<polygon fill="white" stroke="#bfbfbf" points="0,-55.5 0,-73.5 58.8027,-73.5 58.8027,-55.5 0,-55.5"/>
<text text-anchor="middle" x="29.4014" y="-61.5" font-family="Helvetica,sans-Serif" font-size="10.00">inttypes.h</text>
</g>
<!-- Node12&#45;&gt;Node13 -->
<g id="edge13" class="edge"><title>Node12&#45;&gt;Node13</title>
<path fill="none" stroke="midnightblue" d="M93.5519,-220.48C75.4693,-205.039 37.5373,-169.141 23.4014,-129 18.2238,-114.297 20.5543,-96.5644 23.7014,-83.5789"/>
<polygon fill="midnightblue" stroke="midnightblue" points="27.1739,-84.159 26.5091,-73.5851 20.4348,-82.2657 27.1739,-84.159"/>
</g>
<!-- Node14&#45;&gt;Node3 -->
<g id="edge16" class="edge"><title>Node14&#45;&gt;Node3</title>
<path fill="none" stroke="midnightblue" d="M552.187,-224.581C585.745,-218.69 647.002,-205.851 695.401,-184 724.458,-170.882 754.471,-149.21 772.789,-134.893"/>
<polygon fill="midnightblue" stroke="midnightblue" points="775.143,-137.493 780.786,-128.526 770.783,-132.016 775.143,-137.493"/>
</g>
<!-- Node14&#45;&gt;Node5 -->
<g id="edge17" class="edge"><title>Node14&#45;&gt;Node5</title>
<path fill="none" stroke="midnightblue" d="M519.998,-220.387C512.881,-211.99 502.603,-198.143 498.401,-184 488.132,-149.434 497.422,-106.974 504.389,-83.414"/>
<polygon fill="midnightblue" stroke="midnightblue" points="507.767,-84.3384 507.437,-73.7487 501.091,-82.2328 507.767,-84.3384"/>
</g>
<!-- Node15&#45;&gt;Node5 -->
<g id="edge19" class="edge"><title>Node15&#45;&gt;Node5</title>
<path fill="none" stroke="midnightblue" d="M377.518,-275.342C374.367,-244.664 364.88,-136.61 384.401,-110 397.61,-91.9946 418.7,-81.238 439.877,-74.8247"/>
<polygon fill="midnightblue" stroke="midnightblue" points="440.86,-78.1844 449.584,-72.1732 439.016,-71.4317 440.86,-78.1844"/>
</g>
<!-- Node16&#45;&gt;Node5 -->
<g id="edge21" class="edge"><title>Node16&#45;&gt;Node5</title>
<path fill="none" stroke="midnightblue" d="M815.5,-275.347C828.566,-248.08 865.951,-159.027 823.401,-110 792.708,-74.6343 663.875,-66.6436 581.365,-65.247"/>
<polygon fill="midnightblue" stroke="midnightblue" points="581.342,-61.7464 571.293,-65.1051 581.243,-68.7457 581.342,-61.7464"/>
</g>
<!-- Node17&#45;&gt;Node5 -->
<g id="edge23" class="edge"><title>Node17&#45;&gt;Node5</title>
<path fill="none" stroke="midnightblue" d="M1183.23,-275.337C1194.29,-255.521 1219.15,-203.662 1201.4,-165 1185.75,-130.916 1172.08,-124.272 1137.4,-110 1038.58,-69.3341 723.992,-64.845 581.614,-64.9805"/>
<polygon fill="midnightblue" stroke="midnightblue" points="581.249,-61.4811 571.255,-64.9989 581.261,-68.481 581.249,-61.4811"/>
</g>
<!-- Node18&#45;&gt;Node3 -->
<g id="edge25" class="edge"><title>Node18&#45;&gt;Node3</title>
<path fill="none" stroke="midnightblue" d="M888.152,-275.193C871.964,-249.575 822.603,-171.459 800.866,-137.06"/>
<polygon fill="midnightblue" stroke="midnightblue" points="803.819,-135.181 795.518,-128.597 797.901,-138.92 803.819,-135.181"/>
</g>
<!-- Node18&#45;&gt;Node5 -->
<g id="edge26" class="edge"><title>Node18&#45;&gt;Node5</title>
<path fill="none" stroke="midnightblue" d="M923.329,-277.864C986.083,-264.666 1122.24,-228.014 1079.4,-165 1024.3,-83.9364 721.569,-68.6562 581.521,-65.962"/>
<polygon fill="midnightblue" stroke="midnightblue" points="581.379,-62.459 571.319,-65.7825 581.256,-69.4579 581.379,-62.459"/>
</g>
<!-- Node19&#45;&gt;Node3 -->
<g id="edge28" class="edge"><title>Node19&#45;&gt;Node3</title>
<path fill="none" stroke="midnightblue" d="M627.466,-275.356C646.164,-258.512 690.284,-218.532 726.401,-184 743.265,-167.876 762.189,-149 775.056,-136.044"/>
<polygon fill="midnightblue" stroke="midnightblue" points="777.662,-138.386 782.213,-128.819 772.689,-133.46 777.662,-138.386"/>
</g>
<!-- Node19&#45;&gt;Node5 -->
<g id="edge33" class="edge"><title>Node19&#45;&gt;Node5</title>
<path fill="none" stroke="midnightblue" d="M610.943,-275.217C590.34,-252.304 533.992,-189.406 531.401,-184 515.648,-151.131 511.613,-108.03 510.641,-83.9063"/>
<polygon fill="midnightblue" stroke="midnightblue" points="514.135,-83.6203 510.372,-73.7162 507.137,-83.8052 514.135,-83.6203"/>
</g>
<!-- Node20 -->
<g id="node20" class="node"><title>Node20</title>
<g id="a_node20"><a xlink:href="$AP__Common_8h.html" xlink:title="Common definitions and utility routines for the ArduPilot libraries. ">
<polygon fill="white" stroke="black" points="540.375,-165.5 540.375,-183.5 686.428,-183.5 686.428,-165.5 540.375,-165.5"/>
<text text-anchor="middle" x="613.401" y="-171.5" font-family="Helvetica,sans-Serif" font-size="10.00">AP_Common/AP_Common.h</text>
</a>
</g>
</g>
<!-- Node19&#45;&gt;Node20 -->
<g id="edge29" class="edge"><title>Node19&#45;&gt;Node20</title>
<path fill="none" stroke="midnightblue" d="M618.026,-275.382C617.229,-258.182 615.355,-217.698 614.253,-193.887"/>
<polygon fill="midnightblue" stroke="midnightblue" points="617.74,-193.539 613.782,-183.712 610.748,-193.863 617.74,-193.539"/>
</g>
<!-- Node19&#45;&gt;Node22 -->
<g id="edge34" class="edge"><title>Node19&#45;&gt;Node22</title>
<path fill="none" stroke="midnightblue" d="M579.337,-276.948C524.32,-267.72 423.636,-250.834 360.017,-240.163"/>
<polygon fill="midnightblue" stroke="midnightblue" points="360.578,-236.709 350.137,-238.506 359.42,-243.612 360.578,-236.709"/>
</g>
<!-- Node20&#45;&gt;Node3 -->
<g id="edge30" class="edge"><title>Node20&#45;&gt;Node3</title>
<path fill="none" stroke="midnightblue" d="M640.284,-165.45C671.309,-156.16 722.392,-140.864 756.216,-130.736"/>
<polygon fill="midnightblue" stroke="midnightblue" points="757.542,-133.993 766.118,-127.771 755.534,-127.287 757.542,-133.993"/>
</g>
<!-- Node20&#45;&gt;Node4 -->
<g id="edge32" class="edge"><title>Node20&#45;&gt;Node4</title>
<path fill="none" stroke="midnightblue" d="M589.253,-165.45C562.325,-156.475 518.578,-141.892 488.245,-131.781"/>
<polygon fill="midnightblue" stroke="midnightblue" points="489.11,-128.38 478.516,-128.538 486.896,-135.021 489.11,-128.38"/>
</g>
<!-- Node21 -->
<g id="node21" class="node"><title>Node21</title>
<polygon fill="white" stroke="#bfbfbf" points="589.559,-110.5 589.559,-128.5 637.244,-128.5 637.244,-110.5 589.559,-110.5"/>
<text text-anchor="middle" x="613.401" y="-116.5" font-family="Helvetica,sans-Serif" font-size="10.00">stdlib.h</text>
</g>
<!-- Node20&#45;&gt;Node21 -->
<g id="edge31" class="edge"><title>Node20&#45;&gt;Node21</title>
<path fill="none" stroke="midnightblue" d="M613.401,-165.219C613.401,-158.177 613.401,-147.808 613.401,-138.828"/>
<polygon fill="midnightblue" stroke="midnightblue" points="616.901,-138.55 613.401,-128.55 609.901,-138.55 616.901,-138.55"/>
</g>
<!-- Node22&#45;&gt;Node5 -->
<g id="edge37" class="edge"><title>Node22&#45;&gt;Node5</title>
<path fill="none" stroke="midnightblue" d="M302.961,-220.193C304.871,-198.64 313.021,-140.487 346.401,-110 371.562,-87.0211 407.402,-75.7188 439.164,-70.2343"/>
<polygon fill="midnightblue" stroke="midnightblue" points="439.973,-73.6505 449.314,-68.6506 438.894,-66.7342 439.973,-73.6505"/>
</g>
<!-- Node22&#45;&gt;Node20 -->
<g id="edge36" class="edge"><title>Node22&#45;&gt;Node20</title>
<path fill="none" stroke="midnightblue" d="M349.636,-220.45C405.053,-211.006 496.892,-195.355 556.268,-185.237"/>
<polygon fill="midnightblue" stroke="midnightblue" points="556.963,-188.669 566.233,-183.538 555.787,-181.768 556.963,-188.669"/>
</g>
<!-- Node23 -->
<g id="node23" class="node"><title>Node23</title>
<polygon fill="white" stroke="#bfbfbf" points="242.335,-165.5 242.335,-183.5 294.468,-183.5 294.468,-165.5 242.335,-165.5"/>
<text text-anchor="middle" x="268.401" y="-171.5" font-family="Helvetica,sans-Serif" font-size="10.00">stdarg.h</text>
</g>
<!-- Node22&#45;&gt;Node23 -->
<g id="edge35" class="edge"><title>Node22&#45;&gt;Node23</title>
<path fill="none" stroke="midnightblue" d="M297.089,-220.219C292.27,-212.707 285.024,-201.411 279.019,-192.052"/>
<polygon fill="midnightblue" stroke="midnightblue" points="281.911,-190.077 273.565,-183.55 276.019,-193.856 281.911,-190.077"/>
</g>
<!-- Node22&#45;&gt;Node24 -->
<g id="edge38" class="edge"><title>Node22&#45;&gt;Node24</title>
<path fill="none" stroke="midnightblue" d="M280.531,-220.45C256.426,-211.578 217.438,-197.229 190.011,-187.134"/>
<polygon fill="midnightblue" stroke="midnightblue" points="191.071,-183.795 180.478,-183.625 188.653,-190.364 191.071,-183.795"/>
</g>
<!-- Node24&#45;&gt;Node5 -->
<g id="edge39" class="edge"><title>Node24&#45;&gt;Node5</title>
<path fill="none" stroke="midnightblue" d="M161.273,-165.253C166.598,-151.308 179.408,-123.294 200.401,-110 238.923,-85.6065 360.03,-74.0754 438.975,-69.0233"/>
<polygon fill="midnightblue" stroke="midnightblue" points="439.578,-72.4928 449.343,-68.3815 439.145,-65.5062 439.578,-72.4928"/>
</g>
<!-- Node24&#45;&gt;Node25 -->
<g id="edge40" class="edge"><title>Node24&#45;&gt;Node25</title>
<path fill="none" stroke="midnightblue" d="M142.606,-165.45C125.808,-156.89 99.0018,-143.229 79.3454,-133.212"/>
<polygon fill="midnightblue" stroke="midnightblue" points="80.8443,-130.047 70.3454,-128.625 77.6659,-136.284 80.8443,-130.047"/>
</g>
<!-- Node25&#45;&gt;Node5 -->
<g id="edge41" class="edge"><title>Node25&#45;&gt;Node5</title>
<path fill="none" stroke="midnightblue" d="M77.1657,-112.667C81.5386,-111.677 86.0965,-110.733 90.4014,-110 212.18,-89.2573 355.573,-76.5434 439.39,-70.2744"/>
<polygon fill="midnightblue" stroke="midnightblue" points="439.846,-73.7504 449.561,-69.5235 439.331,-66.7694 439.846,-73.7504"/>
</g>
<!-- Node25&#45;&gt;Node6 -->
<g id="edge43" class="edge"><title>Node25&#45;&gt;Node6</title>
<path fill="none" stroke="midnightblue" d="M76.424,-110.382C127.88,-91.4158 256.145,-44.1372 315.873,-22.1213"/>
<polygon fill="midnightblue" stroke="midnightblue" points="317.35,-25.307 325.523,-18.5644 314.929,-18.739 317.35,-25.307"/>
</g>
<!-- Node25&#45;&gt;Node13 -->
<g id="edge42" class="edge"><title>Node25&#45;&gt;Node13</title>
<path fill="none" stroke="midnightblue" d="M50.4951,-110.219C47.0258,-102.864 41.8448,-91.8801 37.4858,-82.639"/>
<polygon fill="midnightblue" stroke="midnightblue" points="40.6301,-81.1007 33.1983,-73.5496 34.2991,-84.0871 40.6301,-81.1007"/>
</g>
<!-- Node26&#45;&gt;Node3 -->
<g id="edge46" class="edge"><title>Node26&#45;&gt;Node3</title>
<path fill="none" stroke="midnightblue" d="M1126.33,-168.75C1056.67,-158.745 895.45,-135.588 824.716,-125.429"/>
<polygon fill="midnightblue" stroke="midnightblue" points="824.958,-121.928 814.562,-123.97 823.963,-128.857 824.958,-121.928"/>
</g>
<!-- Node26&#45;&gt;Node5 -->
<g id="edge47" class="edge"><title>Node26&#45;&gt;Node5</title>
<path fill="none" stroke="midnightblue" d="M1155.99,-165.074C1149.75,-150.858 1134.98,-122.446 1112.4,-110 1066.94,-84.9459 731.288,-72.0184 581.834,-67.4535"/>
<polygon fill="midnightblue" stroke="midnightblue" points="581.503,-63.942 571.402,-67.1392 581.292,-70.9388 581.503,-63.942"/>
</g>
<!-- Node27&#45;&gt;Node3 -->
<g id="edge55" class="edge"><title>Node27&#45;&gt;Node3</title>
<path fill="none" stroke="midnightblue" d="M946.699,-220.382C917.949,-202.009 847.625,-157.069 811.935,-134.261"/>
<polygon fill="midnightblue" stroke="midnightblue" points="813.562,-131.147 803.251,-128.712 809.793,-137.046 813.562,-131.147"/>
</g>
<!-- Node27&#45;&gt;Node5 -->
<g id="edge58" class="edge"><title>Node27&#45;&gt;Node5</title>
<path fill="none" stroke="midnightblue" d="M959.342,-220.226C958.696,-198.233 953.634,-138.095 918.401,-110 892.639,-89.4566 691.093,-75.3677 581.241,-69.1314"/>
<polygon fill="midnightblue" stroke="midnightblue" points="581.41,-65.6354 571.229,-68.5703 581.018,-72.6245 581.41,-65.6354"/>
</g>
<!-- Node27&#45;&gt;Node8 -->
<g id="edge57" class="edge"><title>Node27&#45;&gt;Node8</title>
<path fill="none" stroke="midnightblue" d="M968.666,-220.45C977.802,-212.512 991.986,-200.189 1003.19,-190.452"/>
<polygon fill="midnightblue" stroke="midnightblue" points="1005.8,-192.826 1011.05,-183.625 1001.21,-187.542 1005.8,-192.826"/>
</g>
<!-- Node27&#45;&gt;Node20 -->
<g id="edge56" class="edge"><title>Node27&#45;&gt;Node20</title>
<path fill="none" stroke="midnightblue" d="M924.961,-223.224C866.924,-214.334 748.849,-196.248 675.886,-185.071"/>
<polygon fill="midnightblue" stroke="midnightblue" points="676.316,-181.596 665.901,-183.542 675.256,-188.516 676.316,-181.596"/>
</g>
<!-- Node28&#45;&gt;Node5 -->
<g id="edge60" class="edge"><title>Node28&#45;&gt;Node5</title>
<path fill="none" stroke="midnightblue" d="M1325.37,-330.432C1321.07,-312.558 1311.4,-268.22 1311.4,-230.5 1311.4,-230.5 1311.4,-230.5 1311.4,-173.5 1311.4,-140.38 1300.82,-127.005 1272.4,-110 1214.05,-75.0853 759.373,-67.5515 581.448,-65.9367"/>
<polygon fill="midnightblue" stroke="midnightblue" points="581.434,-62.4365 571.404,-65.8492 581.373,-69.4362 581.434,-62.4365"/>
</g>
<!-- Node29&#45;&gt;Node5 -->
<g id="edge63" class="edge"><title>Node29&#45;&gt;Node5</title>
<path fill="none" stroke="midnightblue" d="M211.56,-220.191C213.753,-207.129 219.595,-181.578 233.401,-165 284.308,-103.876 375.731,-80.2976 439.571,-71.2043"/>
<polygon fill="midnightblue" stroke="midnightblue" points="440.122,-74.6618 449.57,-69.8657 439.194,-67.7237 440.122,-74.6618"/>
</g>
<!-- Node29&#45;&gt;Node23 -->
<g id="edge62" class="edge"><title>Node29&#45;&gt;Node23</title>
<path fill="none" stroke="midnightblue" d="M219.464,-220.219C228.198,-212.238 241.607,-199.984 252.182,-190.321"/>
<polygon fill="midnightblue" stroke="midnightblue" points="254.571,-192.879 259.592,-183.55 249.849,-187.712 254.571,-192.879"/>
</g>
<!-- Node31 -->
<g id="node31" class="node"><title>Node31</title>
<g id="a_node31"><a xlink:href="$AP__HAL__FLYMAPLE_8h.html" xlink:title="AP_HAL_FLYMAPLE.h">
<polygon fill="white" stroke="black" points="633.521,-550.5 633.521,-568.5 753.281,-568.5 753.281,-550.5 633.521,-550.5"/>
<text text-anchor="middle" x="693.401" y="-556.5" font-family="Helvetica,sans-Serif" font-size="10.00">AP_HAL_FLYMAPLE.h</text>
</a>
</g>
</g>
<!-- Node30&#45;&gt;Node31 -->
<g id="edge69" class="edge"><title>Node30&#45;&gt;Node31</title>
<path fill="none" stroke="midnightblue" d="M706.058,-605.219C704.02,-598.02 700.999,-587.346 698.42,-578.231"/>
<polygon fill="midnightblue" stroke="midnightblue" points="701.771,-577.218 695.68,-568.55 695.035,-579.125 701.771,-577.218"/>
</g>
<!-- Node34 -->
<g id="node34" class="node"><title>Node34</title>
<polygon fill="white" stroke="#bfbfbf" points="770.84,-550.5 770.84,-568.5 807.963,-568.5 807.963,-550.5 770.84,-550.5"/>
<text text-anchor="middle" x="789.401" y="-556.5" font-family="Helvetica,sans-Serif" font-size="10.00">i2c.h</text>
</g>
<!-- Node30&#45;&gt;Node34 -->
<g id="edge74" class="edge"><title>Node30&#45;&gt;Node34</title>
<path fill="none" stroke="midnightblue" d="M720.704,-605.45C733.311,-597.201 753.156,-584.216 768.282,-574.319"/>
<polygon fill="midnightblue" stroke="midnightblue" points="770.532,-577.029 776.983,-568.625 766.699,-571.172 770.532,-577.029"/>
</g>
<!-- Node31&#45;&gt;Node2 -->
<g id="edge70" class="edge"><title>Node31&#45;&gt;Node2</title>
<path fill="none" stroke="midnightblue" d="M687.516,-550.414C681.149,-541.583 670.784,-526.968 662.401,-514 652.397,-498.524 641.674,-480.455 634.178,-467.558"/>
<polygon fill="midnightblue" stroke="midnightblue" points="637.172,-465.742 629.141,-458.832 631.109,-469.242 637.172,-465.742"/>
</g>
<!-- Node32 -->
<g id="node32" class="node"><title>Node32</title>
<g id="a_node32"><a xlink:href="$HAL__FLYMAPLE__Class_8h.html" xlink:title="HAL_FLYMAPLE_Class.h">
<polygon fill="white" stroke="black" points="671.689,-495.5 671.689,-513.5 803.114,-513.5 803.114,-495.5 671.689,-495.5"/>
<text text-anchor="middle" x="737.401" y="-501.5" font-family="Helvetica,sans-Serif" font-size="10.00">HAL_FLYMAPLE_Class.h</text>
</a>
</g>
</g>
<!-- Node31&#45;&gt;Node32 -->
<g id="edge71" class="edge"><title>Node31&#45;&gt;Node32</title>
<path fill="none" stroke="midnightblue" d="M700.276,-550.219C706.642,-542.551 716.282,-530.939 724.144,-521.469"/>
<polygon fill="midnightblue" stroke="midnightblue" points="727.024,-523.479 730.719,-513.55 721.638,-519.008 727.024,-523.479"/>
</g>
<!-- Node32&#45;&gt;Node2 -->
<g id="edge72" class="edge"><title>Node32&#45;&gt;Node2</title>
<path fill="none" stroke="midnightblue" d="M720.239,-495.45C701.821,-486.812 672.331,-472.98 650.923,-462.94"/>
<polygon fill="midnightblue" stroke="midnightblue" points="652.265,-459.703 641.725,-458.625 649.293,-466.041 652.265,-459.703"/>
</g>
<!-- Node33 -->
<g id="node33" class="node"><title>Node33</title>
<g id="a_node33"><a xlink:href="$AP__HAL__FLYMAPLE__Namespace_8h.html" xlink:title="AP_HAL_FLYMAPLE_Namespace.h">
<polygon fill="white" stroke="black" points="694.061,-440.5 694.061,-458.5 872.742,-458.5 872.742,-440.5 694.061,-440.5"/>
<text text-anchor="middle" x="783.401" y="-446.5" font-family="Helvetica,sans-Serif" font-size="10.00">AP_HAL_FLYMAPLE_Namespace.h</text>
</a>
</g>
</g>
<!-- Node32&#45;&gt;Node33 -->
<g id="edge73" class="edge"><title>Node32&#45;&gt;Node33</title>
<path fill="none" stroke="midnightblue" d="M744.589,-495.219C751.312,-487.473 761.529,-475.701 769.792,-466.18"/>
<polygon fill="midnightblue" stroke="midnightblue" points="772.503,-468.396 776.415,-458.55 767.217,-463.808 772.503,-468.396"/>
</g>
<!-- Node36 -->
<g id="node36" class="node"><title>Node36</title>
<polygon fill="white" stroke="#bfbfbf" points="826.453,-550.5 826.453,-568.5 876.35,-568.5 876.35,-550.5 826.453,-550.5"/>
<text text-anchor="middle" x="851.401" y="-556.5" font-family="Helvetica,sans-Serif" font-size="10.00">wirish.h</text>
</g>
<!-- Node35&#45;&gt;Node36 -->
<g id="edge76" class="edge"><title>Node35&#45;&gt;Node36</title>
<path fill="none" stroke="midnightblue" d="M837.901,-605.219C840.074,-598.02 843.297,-587.346 846.049,-578.231"/>
<polygon fill="midnightblue" stroke="midnightblue" points="849.432,-579.134 848.971,-568.55 842.731,-577.111 849.432,-579.134"/>
</g>
</g>
</svg>
