<?xml version="1.0" encoding="UTF-8" standalone="no"?>
<!DOCTYPE svg PUBLIC "-//W3C//DTD SVG 1.1//EN"
 "http://www.w3.org/Graphics/SVG/1.1/DTD/svg11.dtd">
<!-- Generated by graphviz version 2.38.0 (20140413.2041)
 -->
<!-- Title: libraries/APM_Control/AP_SteerController.h Pages: 1 -->
<svg width="262pt" height="102pt"
 viewBox="0.00 0.00 262.27 102.00" xmlns="http://www.w3.org/2000/svg" xmlns:xlink="http://www.w3.org/1999/xlink">
<g id="graph0" class="graph" transform="scale(1 1) rotate(0) translate(4 98)">
<title>libraries/APM_Control/AP_SteerController.h</title>
<polygon fill="white" stroke="none" points="-4,4 -4,-98 258.271,-98 258.271,4 -4,4"/>
<!-- Node1 -->
<g id="node1" class="node"><title>Node1</title>
<polygon fill="#bfbfbf" stroke="black" points="73.0146,-65.5 73.0146,-93.5 186.271,-93.5 186.271,-65.5 73.0146,-65.5"/>
<text text-anchor="start" x="81.0146" y="-81.5" font-family="Helvetica,sans-Serif" font-size="10.00">libraries/APM_Control</text>
<text text-anchor="middle" x="129.643" y="-71.5" font-family="Helvetica,sans-Serif" font-size="10.00">/AP_SteerController.h</text>
</g>
<!-- Node2 -->
<g id="node2" class="node"><title>Node2</title>
<g id="a_node2"><a xlink:href="$AP__SteerController_8cpp.html" xlink:title="libraries/APM_Control\l/AP_SteerController.cpp">
<polygon fill="white" stroke="black" points="0,-0.5 0,-28.5 123.285,-28.5 123.285,-0.5 0,-0.5"/>
<text text-anchor="start" x="8" y="-16.5" font-family="Helvetica,sans-Serif" font-size="10.00">libraries/APM_Control</text>
<text text-anchor="middle" x="61.6426" y="-6.5" font-family="Helvetica,sans-Serif" font-size="10.00">/AP_SteerController.cpp</text>
</a>
</g>
</g>
<!-- Node1&#45;&gt;Node2 -->
<g id="edge1" class="edge"><title>Node1&#45;&gt;Node2</title>
<path fill="none" stroke="midnightblue" d="M107.924,-58.3785C97.3778,-48.6076 85.0101,-37.1493 75.7142,-28.5369"/>
<polygon fill="midnightblue" stroke="midnightblue" points="105.839,-61.2176 115.553,-65.4464 110.596,-56.0826 105.839,-61.2176"/>
</g>
<!-- Node3 -->
<g id="node3" class="node"><title>Node3</title>
<g id="a_node3"><a xlink:href="$APM__Control_8h.html" xlink:title="libraries/APM_Control\l/APM_Control.h">
<polygon fill="white" stroke="black" points="141.015,-0.5 141.015,-28.5 254.271,-28.5 254.271,-0.5 141.015,-0.5"/>
<text text-anchor="start" x="149.015" y="-16.5" font-family="Helvetica,sans-Serif" font-size="10.00">libraries/APM_Control</text>
<text text-anchor="middle" x="197.643" y="-6.5" font-family="Helvetica,sans-Serif" font-size="10.00">/APM_Control.h</text>
</a>
</g>
</g>
<!-- Node1&#45;&gt;Node3 -->
<g id="edge2" class="edge"><title>Node1&#45;&gt;Node3</title>
<path fill="none" stroke="midnightblue" d="M151.361,-58.3785C161.907,-48.6076 174.275,-37.1493 183.571,-28.5369"/>
<polygon fill="midnightblue" stroke="midnightblue" points="148.689,-56.0826 143.732,-65.4464 153.447,-61.2176 148.689,-56.0826"/>
</g>
</g>
</svg>
