<?xml version="1.0" encoding="UTF-8" standalone="no"?>
<!DOCTYPE svg PUBLIC "-//W3C//DTD SVG 1.1//EN"
 "http://www.w3.org/Graphics/SVG/1.1/DTD/svg11.dtd">
<!-- Generated by graphviz version 2.38.0 (20140413.2041)
 -->
<!-- Title: libraries/AP_ADC/AP_ADC.cpp Pages: 1 -->
<svg width="1488pt" height="642pt"
 viewBox="0.00 0.00 1488.29 642.00" xmlns="http://www.w3.org/2000/svg" xmlns:xlink="http://www.w3.org/1999/xlink">
<g id="graph0" class="graph" transform="scale(1 1) rotate(0) translate(4 638)">
<title>libraries/AP_ADC/AP_ADC.cpp</title>
<polygon fill="white" stroke="none" points="-4,4 -4,-638 1484.29,-638 1484.29,4 -4,4"/>
<!-- Node1 -->
<g id="node1" class="node"><title>Node1</title>
<polygon fill="#bfbfbf" stroke="black" points="29.0396,-605.5 29.0396,-633.5 138.96,-633.5 138.96,-605.5 29.0396,-605.5"/>
<text text-anchor="start" x="37.0396" y="-621.5" font-family="Helvetica,sans-Serif" font-size="10.00">libraries/AP_ADC/AP</text>
<text text-anchor="middle" x="84" y="-611.5" font-family="Helvetica,sans-Serif" font-size="10.00">_ADC.cpp</text>
</g>
<!-- Node2 -->
<g id="node2" class="node"><title>Node2</title>
<g id="a_node2"><a xlink:href="$AP__ADC_8h.html" xlink:title="AP_ADC.h">
<polygon fill="white" stroke="black" points="51.8228,-550.5 51.8228,-568.5 116.177,-568.5 116.177,-550.5 51.8228,-550.5"/>
<text text-anchor="middle" x="84" y="-556.5" font-family="Helvetica,sans-Serif" font-size="10.00">AP_ADC.h</text>
</a>
</g>
</g>
<!-- Node1&#45;&gt;Node2 -->
<g id="edge1" class="edge"><title>Node1&#45;&gt;Node2</title>
<path fill="none" stroke="midnightblue" d="M84,-605.339C84,-597.531 84,-587.512 84,-578.927"/>
<polygon fill="midnightblue" stroke="midnightblue" points="87.5001,-578.771 84,-568.771 80.5001,-578.772 87.5001,-578.771"/>
</g>
<!-- Node3 -->
<g id="node3" class="node"><title>Node3</title>
<g id="a_node3"><a xlink:href="$AP__Common_8h.html" xlink:title="Common definitions and utility routines for the ArduPilot libraries. ">
<polygon fill="white" stroke="black" points="483.973,-165.5 483.973,-183.5 630.027,-183.5 630.027,-165.5 483.973,-165.5"/>
<text text-anchor="middle" x="557" y="-171.5" font-family="Helvetica,sans-Serif" font-size="10.00">AP_Common/AP_Common.h</text>
</a>
</g>
</g>
<!-- Node2&#45;&gt;Node3 -->
<g id="edge2" class="edge"><title>Node2&#45;&gt;Node3</title>
<path fill="none" stroke="midnightblue" d="M62.8364,-550.403C47.6035,-543.323 28.1853,-531.42 19,-514 15.0614,-506.53 16.3727,-503.025 19,-495 47.2931,-408.575 65.3781,-381.975 140,-330 260.63,-245.98 324.042,-299.549 458,-239 487.877,-225.496 519.223,-203.95 538.441,-189.763"/>
<polygon fill="midnightblue" stroke="midnightblue" points="540.706,-192.439 546.605,-183.638 536.505,-186.84 540.706,-192.439"/>
</g>
<!-- Node7 -->
<g id="node7" class="node"><title>Node7</title>
<g id="a_node7"><a xlink:href="$AP__ADC__ADS7844_8h.html" xlink:title="AP_ADC_ADS7844.h">
<polygon fill="white" stroke="black" points="27.6382,-495.5 27.6382,-513.5 140.362,-513.5 140.362,-495.5 27.6382,-495.5"/>
<text text-anchor="middle" x="84" y="-501.5" font-family="Helvetica,sans-Serif" font-size="10.00">AP_ADC_ADS7844.h</text>
</a>
</g>
</g>
<!-- Node2&#45;&gt;Node7 -->
<g id="edge6" class="edge"><title>Node2&#45;&gt;Node7</title>
<path fill="none" stroke="midnightblue" d="M78.9375,-550.219C77.3254,-543.099 76.8683,-532.577 77.5664,-523.529"/>
<polygon fill="midnightblue" stroke="midnightblue" points="81.0425,-523.944 78.9906,-513.55 74.1128,-522.955 81.0425,-523.944"/>
</g>
<!-- Node32 -->
<g id="node32" class="node"><title>Node32</title>
<g id="a_node32"><a xlink:href="$AP__ADC__ADS1115_8h.html" xlink:title="AP_ADC_ADS1115.h">
<polygon fill="white" stroke="black" points="158.375,-495.5 158.375,-513.5 269.625,-513.5 269.625,-495.5 158.375,-495.5"/>
<text text-anchor="middle" x="214" y="-501.5" font-family="Helvetica,sans-Serif" font-size="10.00">AP_ADC_ADS1115.h</text>
</a>
</g>
</g>
<!-- Node2&#45;&gt;Node32 -->
<g id="edge73" class="edge"><title>Node2&#45;&gt;Node32</title>
<path fill="none" stroke="midnightblue" d="M98.7348,-550.45C118.348,-541.617 153.095,-527.355 179.417,-517.267"/>
<polygon fill="midnightblue" stroke="midnightblue" points="180.928,-520.437 189.043,-513.625 178.452,-513.89 180.928,-520.437"/>
</g>
<!-- Node4 -->
<g id="node4" class="node"><title>Node4</title>
<polygon fill="white" stroke="#bfbfbf" points="853.879,-110.5 853.879,-128.5 902.121,-128.5 902.121,-110.5 853.879,-110.5"/>
<text text-anchor="middle" x="878" y="-116.5" font-family="Helvetica,sans-Serif" font-size="10.00">stdint.h</text>
</g>
<!-- Node3&#45;&gt;Node4 -->
<g id="edge3" class="edge"><title>Node3&#45;&gt;Node4</title>
<path fill="none" stroke="midnightblue" d="M605.753,-165.45C671.302,-154.628 786.219,-135.654 843.503,-126.196"/>
<polygon fill="midnightblue" stroke="midnightblue" points="844.208,-129.627 853.504,-124.545 843.067,-122.72 844.208,-129.627"/>
</g>
<!-- Node5 -->
<g id="node5" class="node"><title>Node5</title>
<polygon fill="white" stroke="#bfbfbf" points="533.158,-110.5 533.158,-128.5 580.842,-128.5 580.842,-110.5 533.158,-110.5"/>
<text text-anchor="middle" x="557" y="-116.5" font-family="Helvetica,sans-Serif" font-size="10.00">stdlib.h</text>
</g>
<!-- Node3&#45;&gt;Node5 -->
<g id="edge4" class="edge"><title>Node3&#45;&gt;Node5</title>
<path fill="none" stroke="midnightblue" d="M557,-165.219C557,-158.177 557,-147.808 557,-138.828"/>
<polygon fill="midnightblue" stroke="midnightblue" points="560.5,-138.55 557,-128.55 553.5,-138.55 560.5,-138.55"/>
</g>
<!-- Node6 -->
<g id="node6" class="node"><title>Node6</title>
<polygon fill="white" stroke="#bfbfbf" points="304.707,-110.5 304.707,-128.5 361.293,-128.5 361.293,-110.5 304.707,-110.5"/>
<text text-anchor="middle" x="333" y="-116.5" font-family="Helvetica,sans-Serif" font-size="10.00">stdbool.h</text>
</g>
<!-- Node3&#45;&gt;Node6 -->
<g id="edge5" class="edge"><title>Node3&#45;&gt;Node6</title>
<path fill="none" stroke="midnightblue" d="M522.979,-165.45C482.162,-155.793 413.914,-139.645 371.288,-129.559"/>
<polygon fill="midnightblue" stroke="midnightblue" points="371.834,-126.092 361.297,-127.195 370.222,-132.904 371.834,-126.092"/>
</g>
<!-- Node7&#45;&gt;Node2 -->
<g id="edge8" class="edge"><title>Node7&#45;&gt;Node2</title>
<path fill="none" stroke="midnightblue" d="M89.0094,-513.55C90.6466,-520.595 91.1289,-531.094 90.4561,-540.175"/>
<polygon fill="midnightblue" stroke="midnightblue" points="86.9701,-539.833 89.0625,-550.219 93.9036,-540.795 86.9701,-539.833"/>
</g>
<!-- Node8 -->
<g id="node8" class="node"><title>Node8</title>
<polygon fill="white" stroke="#bfbfbf" points="61.5986,-55.5 61.5986,-73.5 120.401,-73.5 120.401,-55.5 61.5986,-55.5"/>
<text text-anchor="middle" x="91" y="-61.5" font-family="Helvetica,sans-Serif" font-size="10.00">inttypes.h</text>
</g>
<!-- Node7&#45;&gt;Node8 -->
<g id="edge7" class="edge"><title>Node7&#45;&gt;Node8</title>
<path fill="none" stroke="midnightblue" d="M76.248,-495.441C55.4531,-472.937 0,-406.717 0,-340.5 0,-340.5 0,-340.5 0,-173.5 0,-131.206 41.318,-96.8727 68.2716,-78.9755"/>
<polygon fill="midnightblue" stroke="midnightblue" points="70.232,-81.8765 76.7812,-73.5483 66.468,-75.9746 70.232,-81.8765"/>
</g>
<!-- Node9 -->
<g id="node9" class="node"><title>Node9</title>
<g id="a_node9"><a xlink:href="$AP__HAL_8h.html" xlink:title="AP_HAL/AP_HAL.h">
<polygon fill="white" stroke="black" points="792.086,-440.5 792.086,-458.5 895.914,-458.5 895.914,-440.5 792.086,-440.5"/>
<text text-anchor="middle" x="844" y="-446.5" font-family="Helvetica,sans-Serif" font-size="10.00">AP_HAL/AP_HAL.h</text>
</a>
</g>
</g>
<!-- Node7&#45;&gt;Node9 -->
<g id="edge9" class="edge"><title>Node7&#45;&gt;Node9</title>
<path fill="none" stroke="midnightblue" d="M140.695,-495.862C143.501,-495.554 146.281,-495.264 149,-495 381.984,-472.333 660.076,-458.499 781.792,-453.102"/>
<polygon fill="midnightblue" stroke="midnightblue" points="782.194,-456.588 792.03,-452.652 781.886,-449.595 782.194,-456.588"/>
</g>
<!-- Node9&#45;&gt;Node4 -->
<g id="edge10" class="edge"><title>Node9&#45;&gt;Node4</title>
<path fill="none" stroke="midnightblue" d="M838.521,-440.296C815.358,-404.502 729.359,-259.568 789,-165 801.14,-145.75 824.356,-134.528 844.032,-128.169"/>
<polygon fill="midnightblue" stroke="midnightblue" points="845.024,-131.525 853.631,-125.347 843.05,-124.809 845.024,-131.525"/>
</g>
<!-- Node9&#45;&gt;Node6 -->
<g id="edge11" class="edge"><title>Node9&#45;&gt;Node6</title>
<path fill="none" stroke="midnightblue" d="M791.925,-448.981C656.908,-448.835 306,-438.981 306,-340.5 306,-340.5 306,-340.5 306,-283.5 306,-256.587 269.745,-189.446 281,-165 286.823,-152.352 298.212,-141.958 308.85,-134.406"/>
<polygon fill="midnightblue" stroke="midnightblue" points="311.035,-137.159 317.471,-128.743 307.191,-131.308 311.035,-137.159"/>
</g>
<!-- Node10 -->
<g id="node10" class="node"><title>Node10</title>
<g id="a_node10"><a xlink:href="$AP__HAL__Namespace_8h.html" xlink:title="AP_HAL_Namespace.h">
<polygon fill="white" stroke="black" points="969.192,-55.5 969.192,-73.5 1090.81,-73.5 1090.81,-55.5 969.192,-55.5"/>
<text text-anchor="middle" x="1030" y="-61.5" font-family="Helvetica,sans-Serif" font-size="10.00">AP_HAL_Namespace.h</text>
</a>
</g>
</g>
<!-- Node9&#45;&gt;Node10 -->
<g id="edge12" class="edge"><title>Node9&#45;&gt;Node10</title>
<path fill="none" stroke="midnightblue" d="M896.347,-446.558C1017.62,-441.679 1310.37,-427.585 1348,-404 1375.87,-386.535 1386,-373.39 1386,-340.5 1386,-340.5 1386,-340.5 1386,-173.5 1386,-114.588 1205.22,-84.7954 1101.31,-72.5364"/>
<polygon fill="midnightblue" stroke="midnightblue" points="1101.53,-69.0386 1091.2,-71.3696 1100.73,-75.9925 1101.53,-69.0386"/>
</g>
<!-- Node13 -->
<g id="node13" class="node"><title>Node13</title>
<g id="a_node13"><a xlink:href="$AP__HAL__Boards_8h.html" xlink:title="AP_HAL_Boards.h">
<polygon fill="white" stroke="black" points="290.03,-165.5 290.03,-183.5 389.97,-183.5 389.97,-165.5 290.03,-165.5"/>
<text text-anchor="middle" x="340" y="-171.5" font-family="Helvetica,sans-Serif" font-size="10.00">AP_HAL_Boards.h</text>
</a>
</g>
</g>
<!-- Node9&#45;&gt;Node13 -->
<g id="edge15" class="edge"><title>Node9&#45;&gt;Node13</title>
<path fill="none" stroke="midnightblue" d="M792.067,-448.045C665.234,-445.534 350,-430.265 350,-340.5 350,-340.5 350,-340.5 350,-283.5 350,-251.737 345.658,-214.941 342.696,-193.536"/>
<polygon fill="midnightblue" stroke="midnightblue" points="346.156,-193.004 341.267,-183.605 339.228,-194.002 346.156,-193.004"/>
</g>
<!-- Node14 -->
<g id="node14" class="node"><title>Node14</title>
<g id="a_node14"><a xlink:href="$AP__HAL__Macros_8h.html" xlink:title="AP_HAL_Macros.h">
<polygon fill="white" stroke="black" points="1218.48,-385.5 1218.48,-403.5 1319.52,-403.5 1319.52,-385.5 1218.48,-385.5"/>
<text text-anchor="middle" x="1269" y="-391.5" font-family="Helvetica,sans-Serif" font-size="10.00">AP_HAL_Macros.h</text>
</a>
</g>
</g>
<!-- Node9&#45;&gt;Node14 -->
<g id="edge16" class="edge"><title>Node9&#45;&gt;Node14</title>
<path fill="none" stroke="midnightblue" d="M896.18,-442.167C966.223,-433.639 1094.52,-417.925 1204,-404 1205.3,-403.834 1206.62,-403.667 1207.95,-403.497"/>
<polygon fill="midnightblue" stroke="midnightblue" points="1208.79,-406.917 1218.26,-402.17 1207.9,-399.974 1208.79,-406.917"/>
</g>
<!-- Node15 -->
<g id="node15" class="node"><title>Node15</title>
<g id="a_node15"><a xlink:href="$AP__HAL__Main_8h.html" xlink:title="AP_HAL_Main.h">
<polygon fill="white" stroke="black" points="1034.03,-385.5 1034.03,-403.5 1123.97,-403.5 1123.97,-385.5 1034.03,-385.5"/>
<text text-anchor="middle" x="1079" y="-391.5" font-family="Helvetica,sans-Serif" font-size="10.00">AP_HAL_Main.h</text>
</a>
</g>
</g>
<!-- Node9&#45;&gt;Node15 -->
<g id="edge17" class="edge"><title>Node9&#45;&gt;Node15</title>
<path fill="none" stroke="midnightblue" d="M879.691,-440.45C920.875,-431.162 988.676,-415.871 1033.58,-405.743"/>
<polygon fill="midnightblue" stroke="midnightblue" points="1034.37,-409.153 1043.36,-403.538 1032.83,-402.324 1034.37,-409.153"/>
</g>
<!-- Node16 -->
<g id="node16" class="node"><title>Node16</title>
<g id="a_node16"><a xlink:href="$HAL_8h.html" xlink:title="HAL.h">
<polygon fill="white" stroke="black" points="1097.1,-330.5 1097.1,-348.5 1140.9,-348.5 1140.9,-330.5 1097.1,-330.5"/>
<text text-anchor="middle" x="1119" y="-336.5" font-family="Helvetica,sans-Serif" font-size="10.00">HAL.h</text>
</a>
</g>
</g>
<!-- Node9&#45;&gt;Node16 -->
<g id="edge72" class="edge"><title>Node9&#45;&gt;Node16</title>
<path fill="none" stroke="midnightblue" d="M896.179,-448.258C971.004,-446.677 1103.09,-438.871 1133,-404 1144.11,-391.051 1137.22,-371.261 1129.72,-357.22"/>
<polygon fill="midnightblue" stroke="midnightblue" points="1132.72,-355.42 1124.63,-348.572 1126.68,-358.967 1132.72,-355.42"/>
</g>
<!-- Node17 -->
<g id="node17" class="node"><title>Node17</title>
<g id="a_node17"><a xlink:href="$AnalogIn_8h.html" xlink:title="AnalogIn.h">
<polygon fill="white" stroke="black" points="214.091,-220.5 214.091,-238.5 277.909,-238.5 277.909,-220.5 214.091,-220.5"/>
<text text-anchor="middle" x="246" y="-226.5" font-family="Helvetica,sans-Serif" font-size="10.00">AnalogIn.h</text>
</a>
</g>
</g>
<!-- Node9&#45;&gt;Node17 -->
<g id="edge54" class="edge"><title>Node9&#45;&gt;Node17</title>
<path fill="none" stroke="midnightblue" d="M791.984,-447.676C661.844,-445.147 329.858,-435.632 292,-404 245.391,-365.057 243.089,-284.842 244.646,-248.774"/>
<polygon fill="midnightblue" stroke="midnightblue" points="248.143,-248.911 245.235,-238.723 241.155,-248.501 248.143,-248.911"/>
</g>
<!-- Node18 -->
<g id="node18" class="node"><title>Node18</title>
<g id="a_node18"><a xlink:href="$GPIO_8h.html" xlink:title="GPIO.h">
<polygon fill="white" stroke="black" points="990.328,-220.5 990.328,-238.5 1039.67,-238.5 1039.67,-220.5 990.328,-220.5"/>
<text text-anchor="middle" x="1015" y="-226.5" font-family="Helvetica,sans-Serif" font-size="10.00">GPIO.h</text>
</a>
</g>
</g>
<!-- Node9&#45;&gt;Node18 -->
<g id="edge56" class="edge"><title>Node9&#45;&gt;Node18</title>
<path fill="none" stroke="midnightblue" d="M851.135,-440.407C858.871,-431.571 871.518,-416.951 882,-404 927.873,-347.319 979.802,-277.994 1002.86,-246.928"/>
<polygon fill="midnightblue" stroke="midnightblue" points="1005.91,-248.69 1009.05,-238.571 1000.28,-244.523 1005.91,-248.69"/>
</g>
<!-- Node19 -->
<g id="node19" class="node"><title>Node19</title>
<g id="a_node19"><a xlink:href="$RCInput_8h.html" xlink:title="RCInput.h">
<polygon fill="white" stroke="black" points="1210.49,-275.5 1210.49,-293.5 1271.51,-293.5 1271.51,-275.5 1210.49,-275.5"/>
<text text-anchor="middle" x="1241" y="-281.5" font-family="Helvetica,sans-Serif" font-size="10.00">RCInput.h</text>
</a>
</g>
</g>
<!-- Node9&#45;&gt;Node19 -->
<g id="edge57" class="edge"><title>Node9&#45;&gt;Node19</title>
<path fill="none" stroke="midnightblue" d="M895.983,-445.647C971.723,-440.707 1107.97,-428.636 1150,-404 1191.09,-379.914 1220.05,-329.413 1233.15,-302.784"/>
<polygon fill="midnightblue" stroke="midnightblue" points="1236.4,-304.094 1237.51,-293.558 1230.07,-301.1 1236.4,-304.094"/>
</g>
<!-- Node20 -->
<g id="node20" class="node"><title>Node20</title>
<g id="a_node20"><a xlink:href="$RCOutput_8h.html" xlink:title="RCOutput.h">
<polygon fill="white" stroke="black" points="1289.6,-275.5 1289.6,-293.5 1358.4,-293.5 1358.4,-275.5 1289.6,-275.5"/>
<text text-anchor="middle" x="1324" y="-281.5" font-family="Helvetica,sans-Serif" font-size="10.00">RCOutput.h</text>
</a>
</g>
</g>
<!-- Node9&#45;&gt;Node20 -->
<g id="edge58" class="edge"><title>Node9&#45;&gt;Node20</title>
<path fill="none" stroke="midnightblue" d="M896.237,-447.596C1015.59,-444.99 1300.25,-435.504 1329,-404 1354.02,-376.582 1341.33,-329.027 1331.63,-303.284"/>
<polygon fill="midnightblue" stroke="midnightblue" points="1334.75,-301.678 1327.77,-293.71 1328.26,-304.293 1334.75,-301.678"/>
</g>
<!-- Node21 -->
<g id="node21" class="node"><title>Node21</title>
<g id="a_node21"><a xlink:href="$SPIDriver_8h.html" xlink:title="SPIDriver.h">
<polygon fill="white" stroke="black" points="1413.71,-275.5 1413.71,-293.5 1480.29,-293.5 1480.29,-275.5 1413.71,-275.5"/>
<text text-anchor="middle" x="1447" y="-281.5" font-family="Helvetica,sans-Serif" font-size="10.00">SPIDriver.h</text>
</a>
</g>
</g>
<!-- Node9&#45;&gt;Node21 -->
<g id="edge53" class="edge"><title>Node9&#45;&gt;Node21</title>
<path fill="none" stroke="midnightblue" d="M896.178,-447.429C1026.75,-444.316 1360.04,-433.536 1400,-404 1432.25,-380.164 1442.39,-330.708 1445.57,-303.839"/>
<polygon fill="midnightblue" stroke="midnightblue" points="1449.08,-303.842 1446.57,-293.55 1442.12,-303.164 1449.08,-303.842"/>
</g>
<!-- Node22 -->
<g id="node22" class="node"><title>Node22</title>
<g id="a_node22"><a xlink:href="$Storage_8h.html" xlink:title="Storage.h">
<polygon fill="white" stroke="black" points="1050.32,-275.5 1050.32,-293.5 1109.68,-293.5 1109.68,-275.5 1050.32,-275.5"/>
<text text-anchor="middle" x="1080" y="-281.5" font-family="Helvetica,sans-Serif" font-size="10.00">Storage.h</text>
</a>
</g>
</g>
<!-- Node9&#45;&gt;Node22 -->
<g id="edge55" class="edge"><title>Node9&#45;&gt;Node22</title>
<path fill="none" stroke="midnightblue" d="M869.3,-440.442C890.45,-432.984 920.793,-420.55 944,-404 980.611,-377.89 978.703,-359.083 1013,-330 1026.76,-318.333 1043.69,-307.109 1057.09,-298.852"/>
<polygon fill="midnightblue" stroke="midnightblue" points="1058.97,-301.805 1065.73,-293.64 1055.36,-295.813 1058.97,-301.805"/>
</g>
<!-- Node23 -->
<g id="node23" class="node"><title>Node23</title>
<g id="a_node23"><a xlink:href="$UARTDriver_8h.html" xlink:title="UARTDriver.h">
<polygon fill="white" stroke="black" points="796.248,-275.5 796.248,-293.5 873.752,-293.5 873.752,-275.5 796.248,-275.5"/>
<text text-anchor="middle" x="835" y="-281.5" font-family="Helvetica,sans-Serif" font-size="10.00">UARTDriver.h</text>
</a>
</g>
</g>
<!-- Node9&#45;&gt;Node23 -->
<g id="edge49" class="edge"><title>Node9&#45;&gt;Node23</title>
<path fill="none" stroke="midnightblue" d="M843.541,-440.193C842.151,-415.013 837.96,-339.114 836.014,-303.862"/>
<polygon fill="midnightblue" stroke="midnightblue" points="839.493,-303.389 835.447,-293.597 832.504,-303.775 839.493,-303.389"/>
</g>
<!-- Node24 -->
<g id="node24" class="node"><title>Node24</title>
<g id="a_node24"><a xlink:href="$BetterStream_8h.html" xlink:title="utility/BetterStream.h">
<polygon fill="white" stroke="black" points="633.594,-220.5 633.594,-238.5 742.406,-238.5 742.406,-220.5 633.594,-220.5"/>
<text text-anchor="middle" x="688" y="-226.5" font-family="Helvetica,sans-Serif" font-size="10.00">utility/BetterStream.h</text>
</a>
</g>
</g>
<!-- Node9&#45;&gt;Node24 -->
<g id="edge71" class="edge"><title>Node9&#45;&gt;Node24</title>
<path fill="none" stroke="midnightblue" d="M838.263,-440.483C815.477,-408.641 731.096,-290.724 699.79,-246.975"/>
<polygon fill="midnightblue" stroke="midnightblue" points="702.622,-244.919 693.956,-238.823 696.929,-248.992 702.622,-244.919"/>
</g>
<!-- Node26 -->
<g id="node26" class="node"><title>Node26</title>
<g id="a_node26"><a xlink:href="$Stream_8h.html" xlink:title="Stream.h">
<polygon fill="white" stroke="black" points="647.714,-165.5 647.714,-183.5 704.286,-183.5 704.286,-165.5 647.714,-165.5"/>
<text text-anchor="middle" x="676" y="-171.5" font-family="Helvetica,sans-Serif" font-size="10.00">Stream.h</text>
</a>
</g>
</g>
<!-- Node9&#45;&gt;Node26 -->
<g id="edge70" class="edge"><title>Node9&#45;&gt;Node26</title>
<path fill="none" stroke="midnightblue" d="M792.064,-447.089C722.035,-442.104 606,-421.607 606,-340.5 606,-340.5 606,-340.5 606,-283.5 606,-254.042 609.053,-244.769 625,-220 632.753,-207.959 644.683,-197.297 655.056,-189.43"/>
<polygon fill="midnightblue" stroke="midnightblue" points="657.207,-192.194 663.276,-183.51 653.116,-186.513 657.207,-192.194"/>
</g>
<!-- Node27 -->
<g id="node27" class="node"><title>Node27</title>
<g id="a_node27"><a xlink:href="$Print_8h.html" xlink:title="Print.h">
<polygon fill="white" stroke="black" points="137.549,-110.5 137.549,-128.5 182.451,-128.5 182.451,-110.5 137.549,-110.5"/>
<text text-anchor="middle" x="160" y="-116.5" font-family="Helvetica,sans-Serif" font-size="10.00">Print.h</text>
</a>
</g>
</g>
<!-- Node9&#45;&gt;Node27 -->
<g id="edge69" class="edge"><title>Node9&#45;&gt;Node27</title>
<path fill="none" stroke="midnightblue" d="M792.082,-448.285C662.005,-447.191 325.071,-440.783 220,-404 179.276,-389.743 160.087,-387.187 140,-349 102.809,-278.3 136.187,-178.09 152.372,-138.034"/>
<polygon fill="midnightblue" stroke="midnightblue" points="155.688,-139.179 156.323,-128.603 149.231,-136.474 155.688,-139.179"/>
</g>
<!-- Node28 -->
<g id="node28" class="node"><title>Node28</title>
<g id="a_node28"><a xlink:href="$I2CDriver_8h.html" xlink:title="I2CDriver.h">
<polygon fill="white" stroke="black" points="1133.99,-165.5 1133.99,-183.5 1200.01,-183.5 1200.01,-165.5 1133.99,-165.5"/>
<text text-anchor="middle" x="1167" y="-171.5" font-family="Helvetica,sans-Serif" font-size="10.00">I2CDriver.h</text>
</a>
</g>
</g>
<!-- Node9&#45;&gt;Node28 -->
<g id="edge50" class="edge"><title>Node9&#45;&gt;Node28</title>
<path fill="none" stroke="midnightblue" d="M874.067,-440.479C900.048,-432.928 938.165,-420.344 969,-404 1042.05,-365.284 1068.22,-359.236 1119,-294 1143.12,-263.014 1156.83,-218.265 1162.99,-193.572"/>
<polygon fill="midnightblue" stroke="midnightblue" points="1166.42,-194.295 1165.31,-183.759 1159.6,-192.689 1166.42,-194.295"/>
</g>
<!-- Node29 -->
<g id="node29" class="node"><title>Node29</title>
<g id="a_node29"><a xlink:href="$Scheduler_8h.html" xlink:title="Scheduler.h">
<polygon fill="white" stroke="black" points="380.589,-220.5 380.589,-238.5 449.411,-238.5 449.411,-220.5 380.589,-220.5"/>
<text text-anchor="middle" x="415" y="-226.5" font-family="Helvetica,sans-Serif" font-size="10.00">Scheduler.h</text>
</a>
</g>
</g>
<!-- Node9&#45;&gt;Node29 -->
<g id="edge59" class="edge"><title>Node9&#45;&gt;Node29</title>
<path fill="none" stroke="midnightblue" d="M791.924,-448.181C738.879,-445.884 655.605,-436.718 592,-404 516.129,-364.972 451.604,-282.318 426.365,-247.03"/>
<polygon fill="midnightblue" stroke="midnightblue" points="429.173,-244.939 420.56,-238.77 423.446,-248.964 429.173,-244.939"/>
</g>
<!-- Node30 -->
<g id="node30" class="node"><title>Node30</title>
<g id="a_node30"><a xlink:href="$Semaphores_8h.html" xlink:title="Semaphores.h">
<polygon fill="white" stroke="black" points="149.48,-330.5 149.48,-348.5 230.52,-348.5 230.52,-330.5 149.48,-330.5"/>
<text text-anchor="middle" x="190" y="-336.5" font-family="Helvetica,sans-Serif" font-size="10.00">Semaphores.h</text>
</a>
</g>
</g>
<!-- Node9&#45;&gt;Node30 -->
<g id="edge64" class="edge"><title>Node9&#45;&gt;Node30</title>
<path fill="none" stroke="midnightblue" d="M791.667,-446.797C655.296,-442.049 296.232,-427.452 248,-404 227.072,-393.824 210.128,-372.501 200.075,-357.377"/>
<polygon fill="midnightblue" stroke="midnightblue" points="202.782,-355.108 194.49,-348.512 196.859,-358.839 202.782,-355.108"/>
</g>
<!-- Node31 -->
<g id="node31" class="node"><title>Node31</title>
<g id="a_node31"><a xlink:href="$Util_8h.html" xlink:title="Util.h">
<polygon fill="white" stroke="black" points="933.608,-220.5 933.608,-238.5 972.392,-238.5 972.392,-220.5 933.608,-220.5"/>
<text text-anchor="middle" x="953" y="-226.5" font-family="Helvetica,sans-Serif" font-size="10.00">Util.h</text>
</a>
</g>
</g>
<!-- Node9&#45;&gt;Node31 -->
<g id="edge66" class="edge"><title>Node9&#45;&gt;Node31</title>
<path fill="none" stroke="midnightblue" d="M847.47,-440.399C858.265,-415.368 892.546,-337.205 926,-275 931.045,-265.619 937.169,-255.442 942.308,-247.192"/>
<polygon fill="midnightblue" stroke="midnightblue" points="945.383,-248.877 947.765,-238.554 939.465,-245.139 945.383,-248.877"/>
</g>
<!-- Node11 -->
<g id="node11" class="node"><title>Node11</title>
<polygon fill="white" stroke="#bfbfbf" points="725.604,-0.5 725.604,-18.5 774.396,-18.5 774.396,-0.5 725.604,-0.5"/>
<text text-anchor="middle" x="750" y="-6.5" font-family="Helvetica,sans-Serif" font-size="10.00">string.h</text>
</g>
<!-- Node10&#45;&gt;Node11 -->
<g id="edge13" class="edge"><title>Node10&#45;&gt;Node11</title>
<path fill="none" stroke="midnightblue" d="M987.474,-55.4504C931.941,-44.9388 835.787,-26.7383 784.523,-17.0347"/>
<polygon fill="midnightblue" stroke="midnightblue" points="785.072,-13.5765 774.595,-15.1555 783.77,-20.4543 785.072,-13.5765"/>
</g>
<!-- Node12 -->
<g id="node12" class="node"><title>Node12</title>
<g id="a_node12"><a xlink:href="$functor_8h.html" xlink:title="utility/functor.h">
<polygon fill="white" stroke="black" points="990.037,-0.5 990.037,-18.5 1069.96,-18.5 1069.96,-0.5 990.037,-0.5"/>
<text text-anchor="middle" x="1030" y="-6.5" font-family="Helvetica,sans-Serif" font-size="10.00">utility/functor.h</text>
</a>
</g>
</g>
<!-- Node10&#45;&gt;Node12 -->
<g id="edge14" class="edge"><title>Node10&#45;&gt;Node12</title>
<path fill="none" stroke="midnightblue" d="M1030,-55.2188C1030,-48.1769 1030,-37.8083 1030,-28.8277"/>
<polygon fill="midnightblue" stroke="midnightblue" points="1033.5,-28.5495 1030,-18.5496 1026.5,-28.5496 1033.5,-28.5495"/>
</g>
<!-- Node15&#45;&gt;Node16 -->
<g id="edge18" class="edge"><title>Node15&#45;&gt;Node16</title>
<path fill="none" stroke="midnightblue" d="M1085.25,-385.219C1090.98,-377.629 1099.62,-366.175 1106.73,-356.76"/>
<polygon fill="midnightblue" stroke="midnightblue" points="1109.69,-358.64 1112.92,-348.55 1104.11,-354.423 1109.69,-358.64"/>
</g>
<!-- Node16&#45;&gt;Node10 -->
<g id="edge19" class="edge"><title>Node16&#45;&gt;Node10</title>
<path fill="none" stroke="midnightblue" d="M1129.16,-330.323C1158.45,-305.7 1239.12,-229.953 1209,-165 1185.7,-114.772 1124.52,-88.834 1080.16,-76.2201"/>
<polygon fill="midnightblue" stroke="midnightblue" points="1080.97,-72.8146 1070.4,-73.582 1079.14,-79.5718 1080.97,-72.8146"/>
</g>
<!-- Node16&#45;&gt;Node17 -->
<g id="edge20" class="edge"><title>Node16&#45;&gt;Node17</title>
<path fill="none" stroke="midnightblue" d="M1096.98,-335.776C981.306,-321.466 443.257,-254.903 288.026,-235.699"/>
<polygon fill="midnightblue" stroke="midnightblue" points="288.296,-232.206 277.942,-234.452 287.437,-239.153 288.296,-232.206"/>
</g>
<!-- Node16&#45;&gt;Node18 -->
<g id="edge23" class="edge"><title>Node16&#45;&gt;Node18</title>
<path fill="none" stroke="midnightblue" d="M1096.84,-330.535C1079.59,-323.339 1056.12,-311.223 1041,-294 1029.59,-281.003 1022.76,-262.323 1018.98,-248.588"/>
<polygon fill="midnightblue" stroke="midnightblue" points="1022.37,-247.707 1016.58,-238.835 1015.57,-249.381 1022.37,-247.707"/>
</g>
<!-- Node16&#45;&gt;Node19 -->
<g id="edge26" class="edge"><title>Node16&#45;&gt;Node19</title>
<path fill="none" stroke="midnightblue" d="M1137.53,-330.45C1157.59,-321.734 1189.83,-307.731 1212.99,-297.669"/>
<polygon fill="midnightblue" stroke="midnightblue" points="1214.52,-300.82 1222.3,-293.625 1211.73,-294.4 1214.52,-300.82"/>
</g>
<!-- Node16&#45;&gt;Node20 -->
<g id="edge28" class="edge"><title>Node16&#45;&gt;Node20</title>
<path fill="none" stroke="midnightblue" d="M1140.94,-332.828C1174.79,-324.076 1240.31,-307.137 1283.09,-296.078"/>
<polygon fill="midnightblue" stroke="midnightblue" points="1284.1,-299.43 1292.91,-293.539 1282.35,-292.653 1284.1,-299.43"/>
</g>
<!-- Node16&#45;&gt;Node21 -->
<g id="edge30" class="edge"><title>Node16&#45;&gt;Node21</title>
<path fill="none" stroke="midnightblue" d="M1141.03,-334.94C1194.63,-326.28 1332.62,-303.982 1403.52,-292.525"/>
<polygon fill="midnightblue" stroke="midnightblue" points="1404.16,-295.967 1413.48,-290.917 1403.05,-289.057 1404.16,-295.967"/>
</g>
<!-- Node16&#45;&gt;Node22 -->
<g id="edge32" class="edge"><title>Node16&#45;&gt;Node22</title>
<path fill="none" stroke="midnightblue" d="M1112.91,-330.219C1107.32,-322.629 1098.89,-311.175 1091.96,-301.76"/>
<polygon fill="midnightblue" stroke="midnightblue" points="1094.67,-299.53 1085.92,-293.55 1089.03,-303.678 1094.67,-299.53"/>
</g>
<!-- Node16&#45;&gt;Node23 -->
<g id="edge35" class="edge"><title>Node16&#45;&gt;Node23</title>
<path fill="none" stroke="midnightblue" d="M1096.71,-334.341C1051.13,-325.835 946.3,-306.271 884.029,-294.65"/>
<polygon fill="midnightblue" stroke="midnightblue" points="884.514,-291.18 874.042,-292.786 883.23,-298.061 884.514,-291.18"/>
</g>
<!-- Node17&#45;&gt;Node8 -->
<g id="edge21" class="edge"><title>Node17&#45;&gt;Node8</title>
<path fill="none" stroke="midnightblue" d="M233.922,-220.279C211.355,-204.503 162.085,-168.069 129,-129 116.959,-114.781 106.364,-96.2921 99.4426,-82.9353"/>
<polygon fill="midnightblue" stroke="midnightblue" points="102.512,-81.2485 94.902,-73.8772 96.2544,-84.3854 102.512,-81.2485"/>
</g>
<!-- Node17&#45;&gt;Node10 -->
<g id="edge22" class="edge"><title>Node17&#45;&gt;Node10</title>
<path fill="none" stroke="midnightblue" d="M244.564,-220.333C242.744,-207.896 240.656,-183.683 248,-165 259.869,-134.804 266.884,-124.314 296,-110 354.453,-81.2644 786.177,-70.064 958.887,-66.7028"/>
<polygon fill="midnightblue" stroke="midnightblue" points="959.211,-70.1974 969.142,-66.5066 959.077,-63.1986 959.211,-70.1974"/>
</g>
<!-- Node18&#45;&gt;Node4 -->
<g id="edge24" class="edge"><title>Node18&#45;&gt;Node4</title>
<path fill="none" stroke="midnightblue" d="M998.709,-220.43C982.965,-212.273 958.803,-198.788 940,-184 921.72,-169.624 903.443,-150.125 891.52,-136.543"/>
<polygon fill="midnightblue" stroke="midnightblue" points="893.844,-133.878 884.666,-128.585 888.54,-138.446 893.844,-133.878"/>
</g>
<!-- Node18&#45;&gt;Node10 -->
<g id="edge25" class="edge"><title>Node18&#45;&gt;Node10</title>
<path fill="none" stroke="midnightblue" d="M1022.4,-220.387C1029.52,-211.99 1039.8,-198.143 1044,-184 1053.37,-152.473 1048.99,-142.508 1044,-110 1042.6,-100.872 1039.67,-91.0461 1036.85,-82.9557"/>
<polygon fill="midnightblue" stroke="midnightblue" points="1040.11,-81.679 1033.34,-73.5242 1033.55,-84.1171 1040.11,-81.679"/>
</g>
<!-- Node19&#45;&gt;Node10 -->
<g id="edge27" class="edge"><title>Node19&#45;&gt;Node10</title>
<path fill="none" stroke="midnightblue" d="M1244.21,-275.444C1254.37,-248.481 1282.82,-160.278 1242,-110 1224.34,-88.2518 1155.44,-76.7458 1100.92,-70.9264"/>
<polygon fill="midnightblue" stroke="midnightblue" points="1101.22,-67.4395 1090.92,-69.9048 1100.51,-74.4033 1101.22,-67.4395"/>
</g>
<!-- Node20&#45;&gt;Node10 -->
<g id="edge29" class="edge"><title>Node20&#45;&gt;Node10</title>
<path fill="none" stroke="midnightblue" d="M1323.72,-275.407C1322.31,-247.558 1313.66,-154.93 1261,-110 1237.28,-89.7637 1159.7,-77.8375 1100.93,-71.5066"/>
<polygon fill="midnightblue" stroke="midnightblue" points="1101.25,-68.0203 1090.94,-70.4635 1100.52,-74.9825 1101.25,-68.0203"/>
</g>
<!-- Node21&#45;&gt;Node10 -->
<g id="edge31" class="edge"><title>Node21&#45;&gt;Node10</title>
<path fill="none" stroke="midnightblue" d="M1447.65,-275.345C1449.39,-247.295 1450.99,-154.09 1400,-110 1356.62,-72.4866 1195.87,-65.5895 1101.12,-64.8946"/>
<polygon fill="midnightblue" stroke="midnightblue" points="1101.05,-61.3943 1091.03,-64.8421 1101.02,-68.3942 1101.05,-61.3943"/>
</g>
<!-- Node22&#45;&gt;Node4 -->
<g id="edge33" class="edge"><title>Node22&#45;&gt;Node4</title>
<path fill="none" stroke="midnightblue" d="M1077.67,-275.18C1073.66,-262.103 1064.37,-236.532 1049,-220 1009.39,-177.395 947.346,-147.613 909.888,-132.335"/>
<polygon fill="midnightblue" stroke="midnightblue" points="911.054,-129.032 900.469,-128.588 908.467,-135.537 911.054,-129.032"/>
</g>
<!-- Node22&#45;&gt;Node10 -->
<g id="edge34" class="edge"><title>Node22&#45;&gt;Node10</title>
<path fill="none" stroke="midnightblue" d="M1080.41,-275.229C1081.37,-249.711 1082.28,-170.295 1060,-110 1056.25,-99.8401 1049.71,-89.7312 1043.7,-81.722"/>
<polygon fill="midnightblue" stroke="midnightblue" points="1046.27,-79.3317 1037.31,-73.6808 1040.79,-83.6871 1046.27,-79.3317"/>
</g>
<!-- Node23&#45;&gt;Node3 -->
<g id="edge37" class="edge"><title>Node23&#45;&gt;Node3</title>
<path fill="none" stroke="midnightblue" d="M796.126,-281.493C752.316,-277.859 680.039,-267.654 625,-239 602.484,-227.278 581.986,-206.017 569.514,-191.347"/>
<polygon fill="midnightblue" stroke="midnightblue" points="572.196,-189.098 563.143,-183.593 566.787,-193.541 572.196,-189.098"/>
</g>
<!-- Node23&#45;&gt;Node4 -->
<g id="edge36" class="edge"><title>Node23&#45;&gt;Node4</title>
<path fill="none" stroke="midnightblue" d="M837.191,-275.193C843.863,-249.903 864.031,-173.453 873.277,-138.405"/>
<polygon fill="midnightblue" stroke="midnightblue" points="876.697,-139.159 875.864,-128.597 869.929,-137.374 876.697,-139.159"/>
</g>
<!-- Node23&#45;&gt;Node10 -->
<g id="edge38" class="edge"><title>Node23&#45;&gt;Node10</title>
<path fill="none" stroke="midnightblue" d="M842.171,-275.483C870.773,-243.508 977.014,-124.735 1015.75,-81.4299"/>
<polygon fill="midnightblue" stroke="midnightblue" points="1018.5,-83.6098 1022.56,-73.8231 1013.28,-78.943 1018.5,-83.6098"/>
</g>
<!-- Node23&#45;&gt;Node24 -->
<g id="edge39" class="edge"><title>Node23&#45;&gt;Node24</title>
<path fill="none" stroke="midnightblue" d="M812.674,-275.45C788.066,-266.578 748.267,-252.229 720.268,-242.134"/>
<polygon fill="midnightblue" stroke="midnightblue" points="721.131,-238.725 710.536,-238.625 718.756,-245.31 721.131,-238.725"/>
</g>
<!-- Node24&#45;&gt;Node3 -->
<g id="edge41" class="edge"><title>Node24&#45;&gt;Node3</title>
<path fill="none" stroke="midnightblue" d="M668.104,-220.45C646.367,-211.656 611.328,-197.48 586.415,-187.401"/>
<polygon fill="midnightblue" stroke="midnightblue" points="587.666,-184.131 577.083,-183.625 585.041,-190.62 587.666,-184.131"/>
</g>
<!-- Node24&#45;&gt;Node10 -->
<g id="edge42" class="edge"><title>Node24&#45;&gt;Node10</title>
<path fill="none" stroke="midnightblue" d="M695.905,-220.123C708.125,-207.412 732.639,-182.846 756,-165 792.951,-136.772 802.078,-127.884 845,-110 884.3,-93.6247 930.919,-82.4587 967.527,-75.4072"/>
<polygon fill="midnightblue" stroke="midnightblue" points="968.387,-78.807 977.572,-73.5265 967.099,-71.9266 968.387,-78.807"/>
</g>
<!-- Node25 -->
<g id="node25" class="node"><title>Node25</title>
<polygon fill="white" stroke="#bfbfbf" points="797.934,-165.5 797.934,-183.5 850.066,-183.5 850.066,-165.5 797.934,-165.5"/>
<text text-anchor="middle" x="824" y="-171.5" font-family="Helvetica,sans-Serif" font-size="10.00">stdarg.h</text>
</g>
<!-- Node24&#45;&gt;Node25 -->
<g id="edge40" class="edge"><title>Node24&#45;&gt;Node25</title>
<path fill="none" stroke="midnightblue" d="M708.655,-220.45C731.322,-211.617 767.92,-197.355 793.805,-187.267"/>
<polygon fill="midnightblue" stroke="midnightblue" points="795.104,-190.518 803.15,-183.625 792.562,-183.995 795.104,-190.518"/>
</g>
<!-- Node24&#45;&gt;Node26 -->
<g id="edge43" class="edge"><title>Node24&#45;&gt;Node26</title>
<path fill="none" stroke="midnightblue" d="M686.125,-220.219C684.513,-213.099 682.131,-202.577 680.082,-193.529"/>
<polygon fill="midnightblue" stroke="midnightblue" points="683.444,-192.53 677.823,-183.55 676.617,-194.076 683.444,-192.53"/>
</g>
<!-- Node26&#45;&gt;Node10 -->
<g id="edge44" class="edge"><title>Node26&#45;&gt;Node10</title>
<path fill="none" stroke="midnightblue" d="M678.871,-165.251C684.193,-151.303 697,-123.285 718,-110 756.831,-85.4347 879.011,-73.9483 958.455,-68.9532"/>
<polygon fill="midnightblue" stroke="midnightblue" points="959.117,-72.4195 968.886,-68.319 958.692,-65.4324 959.117,-72.4195"/>
</g>
<!-- Node26&#45;&gt;Node27 -->
<g id="edge45" class="edge"><title>Node26&#45;&gt;Node27</title>
<path fill="none" stroke="midnightblue" d="M647.391,-166.531C644.565,-165.963 641.733,-165.439 639,-165 552.453,-151.102 285.787,-130.077 192.572,-122.956"/>
<polygon fill="midnightblue" stroke="midnightblue" points="192.825,-119.466 182.588,-122.196 192.293,-126.445 192.825,-119.466"/>
</g>
<!-- Node27&#45;&gt;Node8 -->
<g id="edge47" class="edge"><title>Node27&#45;&gt;Node8</title>
<path fill="none" stroke="midnightblue" d="M149.52,-110.45C138.983,-102.357 122.511,-89.7042 109.724,-79.8822"/>
<polygon fill="midnightblue" stroke="midnightblue" points="111.641,-76.9412 101.578,-73.6253 107.377,-82.4926 111.641,-76.9412"/>
</g>
<!-- Node27&#45;&gt;Node10 -->
<g id="edge46" class="edge"><title>Node27&#45;&gt;Node10</title>
<path fill="none" stroke="midnightblue" d="M182.736,-112.485C187.111,-111.511 191.677,-110.621 196,-110 476.325,-69.7566 814.36,-65.0174 958.876,-65.032"/>
<polygon fill="midnightblue" stroke="midnightblue" points="958.94,-68.5319 968.943,-65.0408 958.946,-61.5319 958.94,-68.5319"/>
</g>
<!-- Node27&#45;&gt;Node11 -->
<g id="edge48" class="edge"><title>Node27&#45;&gt;Node11</title>
<path fill="none" stroke="midnightblue" d="M182.812,-112.917C187.18,-111.904 191.724,-110.888 196,-110 391.603,-69.3737 628.105,-30.1791 715.437,-16.0388"/>
<polygon fill="midnightblue" stroke="midnightblue" points="716.021,-19.4899 725.335,-14.4402 714.905,-12.5795 716.021,-19.4899"/>
</g>
<!-- Node28&#45;&gt;Node4 -->
<g id="edge51" class="edge"><title>Node28&#45;&gt;Node4</title>
<path fill="none" stroke="midnightblue" d="M1133.85,-167.42C1078.69,-157.305 968.611,-137.117 912.545,-126.835"/>
<polygon fill="midnightblue" stroke="midnightblue" points="912.874,-123.337 902.406,-124.976 911.611,-130.222 912.874,-123.337"/>
</g>
<!-- Node28&#45;&gt;Node10 -->
<g id="edge52" class="edge"><title>Node28&#45;&gt;Node10</title>
<path fill="none" stroke="midnightblue" d="M1162.53,-165.098C1155.17,-151.91 1139.36,-126.188 1120,-110 1103.19,-95.9432 1081.18,-84.9607 1063.14,-77.423"/>
<polygon fill="midnightblue" stroke="midnightblue" points="1064.17,-74.0637 1053.58,-73.5922 1061.56,-80.5612 1064.17,-74.0637"/>
</g>
<!-- Node29&#45;&gt;Node3 -->
<g id="edge61" class="edge"><title>Node29&#45;&gt;Node3</title>
<path fill="none" stroke="midnightblue" d="M436.567,-220.45C460.337,-211.578 498.783,-197.229 525.83,-187.134"/>
<polygon fill="midnightblue" stroke="midnightblue" points="527.085,-190.401 535.23,-183.625 524.638,-183.843 527.085,-190.401"/>
</g>
<!-- Node29&#45;&gt;Node4 -->
<g id="edge60" class="edge"><title>Node29&#45;&gt;Node4</title>
<path fill="none" stroke="midnightblue" d="M420.048,-220.129C429.081,-205.996 449.473,-177.706 475,-165 539.435,-132.927 758.097,-123.699 843.461,-121.284"/>
<polygon fill="midnightblue" stroke="midnightblue" points="843.757,-124.778 853.66,-121.01 843.57,-117.78 843.757,-124.778"/>
</g>
<!-- Node29&#45;&gt;Node10 -->
<g id="edge63" class="edge"><title>Node29&#45;&gt;Node10</title>
<path fill="none" stroke="midnightblue" d="M417.662,-220.349C422.153,-207.505 432.217,-182.246 447,-165 474.371,-133.07 484.552,-124.578 524,-110 601.864,-81.2252 838.858,-70.7062 958.823,-67.1541"/>
<polygon fill="midnightblue" stroke="midnightblue" points="959.113,-70.6474 969.008,-66.861 958.911,-63.6503 959.113,-70.6474"/>
</g>
<!-- Node29&#45;&gt;Node13 -->
<g id="edge62" class="edge"><title>Node29&#45;&gt;Node13</title>
<path fill="none" stroke="midnightblue" d="M403.609,-220.45C392.045,-212.279 373.906,-199.46 359.952,-189.6"/>
<polygon fill="midnightblue" stroke="midnightblue" points="361.685,-186.538 351.498,-183.625 357.645,-192.255 361.685,-186.538"/>
</g>
<!-- Node30&#45;&gt;Node10 -->
<g id="edge65" class="edge"><title>Node30&#45;&gt;Node10</title>
<path fill="none" stroke="midnightblue" d="M189.44,-330.115C187.626,-295.068 185.978,-159.818 264,-110 321.684,-73.168 780.401,-66.7937 959.098,-65.712"/>
<polygon fill="midnightblue" stroke="midnightblue" points="959.203,-69.2116 969.183,-65.6548 959.163,-62.2117 959.203,-69.2116"/>
</g>
<!-- Node31&#45;&gt;Node10 -->
<g id="edge68" class="edge"><title>Node31&#45;&gt;Node10</title>
<path fill="none" stroke="midnightblue" d="M967.516,-220.208C979.736,-212.444 996.672,-199.7 1006,-184 1024.88,-152.22 1029.14,-108.085 1029.96,-83.6337"/>
<polygon fill="midnightblue" stroke="midnightblue" points="1033.46,-83.6847 1030.14,-73.6248 1026.46,-83.5619 1033.46,-83.6847"/>
</g>
<!-- Node31&#45;&gt;Node25 -->
<g id="edge67" class="edge"><title>Node31&#45;&gt;Node25</title>
<path fill="none" stroke="midnightblue" d="M933.408,-220.45C912.098,-211.695 877.804,-197.606 853.292,-187.535"/>
<polygon fill="midnightblue" stroke="midnightblue" points="854.357,-184.188 843.777,-183.625 851.696,-190.663 854.357,-184.188"/>
</g>
<!-- Node32&#45;&gt;Node2 -->
<g id="edge75" class="edge"><title>Node32&#45;&gt;Node2</title>
<path fill="none" stroke="midnightblue" d="M199.097,-513.625C179.397,-522.489 144.631,-536.756 118.358,-546.819"/>
<polygon fill="midnightblue" stroke="midnightblue" points="116.87,-543.64 108.754,-550.45 119.345,-550.188 116.87,-543.64"/>
</g>
<!-- Node32&#45;&gt;Node8 -->
<g id="edge74" class="edge"><title>Node32&#45;&gt;Node8</title>
<path fill="none" stroke="midnightblue" d="M205.959,-495.372C175.919,-464.109 72,-347.499 72,-230.5 72,-230.5 72,-230.5 72,-173.5 72,-141.386 80.2493,-104.702 85.8767,-83.4139"/>
<polygon fill="midnightblue" stroke="midnightblue" points="89.3141,-84.114 88.5936,-73.5437 82.5651,-82.2562 89.3141,-84.114"/>
</g>
<!-- Node32&#45;&gt;Node9 -->
<g id="edge76" class="edge"><title>Node32&#45;&gt;Node9</title>
<path fill="none" stroke="midnightblue" d="M269.632,-498.82C386.916,-488.953 658.826,-466.078 781.716,-455.74"/>
<polygon fill="midnightblue" stroke="midnightblue" points="782.049,-459.224 791.72,-454.898 781.462,-452.249 782.049,-459.224"/>
</g>
</g>
</svg>
