<?xml version="1.0" encoding="UTF-8" standalone="no"?>
<!DOCTYPE svg PUBLIC "-//W3C//DTD SVG 1.1//EN"
 "http://www.w3.org/Graphics/SVG/1.1/DTD/svg11.dtd">
<!-- Generated by graphviz version 2.38.0 (20140413.2041)
 -->
<!-- Title: libraries/AP_HAL_SITL/AP_HAL_SITL.h Pages: 1 -->
<svg width="1596pt" height="232pt"
 viewBox="0.00 0.00 1595.82 232.00" xmlns="http://www.w3.org/2000/svg" xmlns:xlink="http://www.w3.org/1999/xlink">
<g id="graph0" class="graph" transform="scale(1 1) rotate(0) translate(4 228)">
<title>libraries/AP_HAL_SITL/AP_HAL_SITL.h</title>
<polygon fill="white" stroke="none" points="-4,4 -4,-228 1591.82,-228 1591.82,4 -4,4"/>
<!-- Node1 -->
<g id="node1" class="node"><title>Node1</title>
<polygon fill="#bfbfbf" stroke="black" points="659,-195.5 659,-223.5 777.822,-223.5 777.822,-195.5 659,-195.5"/>
<text text-anchor="start" x="667" y="-211.5" font-family="Helvetica,sans-Serif" font-size="10.00">libraries/AP_HAL_SITL</text>
<text text-anchor="middle" x="718.411" y="-201.5" font-family="Helvetica,sans-Serif" font-size="10.00">/AP_HAL_SITL.h</text>
</g>
<!-- Node2 -->
<g id="node2" class="node"><title>Node2</title>
<g id="a_node2"><a xlink:href="$SITL_2AnalogIn_8cpp.html" xlink:title="libraries/AP_HAL_SITL\l/AnalogIn.cpp">
<polygon fill="white" stroke="black" points="0,-130.5 0,-158.5 118.822,-158.5 118.822,-130.5 0,-130.5"/>
<text text-anchor="start" x="8" y="-146.5" font-family="Helvetica,sans-Serif" font-size="10.00">libraries/AP_HAL_SITL</text>
<text text-anchor="middle" x="59.4111" y="-136.5" font-family="Helvetica,sans-Serif" font-size="10.00">/AnalogIn.cpp</text>
</a>
</g>
</g>
<!-- Node1&#45;&gt;Node2 -->
<g id="edge1" class="edge"><title>Node1&#45;&gt;Node2</title>
<path fill="none" stroke="midnightblue" d="M648.415,-204.825C538.274,-198.539 317.927,-183.927 132.411,-159 128.068,-158.416 123.591,-157.75 119.092,-157.032"/>
<polygon fill="midnightblue" stroke="midnightblue" points="648.544,-208.337 658.725,-205.407 648.939,-201.349 648.544,-208.337"/>
</g>
<!-- Node3 -->
<g id="node3" class="node"><title>Node3</title>
<g id="a_node3"><a xlink:href="$HAL__SITL__Class_8h.html" xlink:title="libraries/AP_HAL_SITL\l/HAL_SITL_Class.h">
<polygon fill="white" stroke="black" points="479,-130.5 479,-158.5 597.822,-158.5 597.822,-130.5 479,-130.5"/>
<text text-anchor="start" x="487" y="-146.5" font-family="Helvetica,sans-Serif" font-size="10.00">libraries/AP_HAL_SITL</text>
<text text-anchor="middle" x="538.411" y="-136.5" font-family="Helvetica,sans-Serif" font-size="10.00">/HAL_SITL_Class.h</text>
</a>
</g>
</g>
<!-- Node1&#45;&gt;Node3 -->
<g id="edge2" class="edge"><title>Node1&#45;&gt;Node3</title>
<path fill="none" stroke="midnightblue" d="M665.722,-192.159C634.691,-181.691 596.538,-168.289 570.069,-158.537"/>
<polygon fill="midnightblue" stroke="midnightblue" points="664.928,-195.584 675.522,-195.446 667.154,-188.948 664.928,-195.584"/>
</g>
<!-- Node4 -->
<g id="node4" class="node"><title>Node4</title>
<g id="a_node4"><a xlink:href="$SITL__State_8h.html" xlink:title="libraries/AP_HAL_SITL\l/SITL_State.h">
<polygon fill="white" stroke="black" points="348,-65.5 348,-93.5 466.822,-93.5 466.822,-65.5 348,-65.5"/>
<text text-anchor="start" x="356" y="-81.5" font-family="Helvetica,sans-Serif" font-size="10.00">libraries/AP_HAL_SITL</text>
<text text-anchor="middle" x="407.411" y="-71.5" font-family="Helvetica,sans-Serif" font-size="10.00">/SITL_State.h</text>
</a>
</g>
</g>
<!-- Node1&#45;&gt;Node4 -->
<g id="edge16" class="edge"><title>Node1&#45;&gt;Node4</title>
<path fill="none" stroke="midnightblue" d="M648.724,-207.222C596.304,-203.399 524.503,-191.849 470.411,-159 443.974,-142.945 423.978,-111.565 414.154,-93.7262"/>
<polygon fill="midnightblue" stroke="midnightblue" points="648.732,-210.73 658.938,-207.887 649.187,-203.744 648.732,-210.73"/>
</g>
<!-- Node6 -->
<g id="node6" class="node"><title>Node6</title>
<g id="a_node6"><a xlink:href="$HAL__SITL__Class_8cpp.html" xlink:title="libraries/AP_HAL_SITL\l/HAL_SITL_Class.cpp">
<polygon fill="white" stroke="black" points="883,-0.5 883,-28.5 1001.82,-28.5 1001.82,-0.5 883,-0.5"/>
<text text-anchor="start" x="891" y="-16.5" font-family="Helvetica,sans-Serif" font-size="10.00">libraries/AP_HAL_SITL</text>
<text text-anchor="middle" x="942.411" y="-6.5" font-family="Helvetica,sans-Serif" font-size="10.00">/HAL_SITL_Class.cpp</text>
</a>
</g>
</g>
<!-- Node1&#45;&gt;Node6 -->
<g id="edge17" class="edge"><title>Node1&#45;&gt;Node6</title>
<path fill="none" stroke="midnightblue" d="M772.845,-191.969C819.741,-174.915 885.665,-143.709 923.411,-94 938.166,-74.5688 941.641,-45.2868 942.353,-28.5217"/>
<polygon fill="midnightblue" stroke="midnightblue" points="771.408,-188.765 763.144,-195.395 773.739,-195.365 771.408,-188.765"/>
</g>
<!-- Node7 -->
<g id="node7" class="node"><title>Node7</title>
<g id="a_node7"><a xlink:href="$sitl__ins_8cpp.html" xlink:title="libraries/AP_HAL_SITL\l/sitl_ins.cpp">
<polygon fill="white" stroke="black" points="206,-0.5 206,-28.5 324.822,-28.5 324.822,-0.5 206,-0.5"/>
<text text-anchor="start" x="214" y="-16.5" font-family="Helvetica,sans-Serif" font-size="10.00">libraries/AP_HAL_SITL</text>
<text text-anchor="middle" x="265.411" y="-6.5" font-family="Helvetica,sans-Serif" font-size="10.00">/sitl_ins.cpp</text>
</a>
</g>
</g>
<!-- Node1&#45;&gt;Node7 -->
<g id="edge29" class="edge"><title>Node1&#45;&gt;Node7</title>
<path fill="none" stroke="midnightblue" d="M648.407,-205.387C512.311,-197.629 220.522,-172.06 165.411,-94 145.234,-65.4218 188.376,-42.1396 224.164,-28.5506"/>
<polygon fill="midnightblue" stroke="midnightblue" points="648.542,-208.9 658.72,-205.958 648.929,-201.911 648.542,-208.9"/>
</g>
<!-- Node9 -->
<g id="node9" class="node"><title>Node9</title>
<g id="a_node9"><a xlink:href="$SITL__cmdline_8cpp.html" xlink:title="libraries/AP_HAL_SITL\l/SITL_cmdline.cpp">
<polygon fill="white" stroke="black" points="174,-65.5 174,-93.5 292.822,-93.5 292.822,-65.5 174,-65.5"/>
<text text-anchor="start" x="182" y="-81.5" font-family="Helvetica,sans-Serif" font-size="10.00">libraries/AP_HAL_SITL</text>
<text text-anchor="middle" x="233.411" y="-71.5" font-family="Helvetica,sans-Serif" font-size="10.00">/SITL_cmdline.cpp</text>
</a>
</g>
</g>
<!-- Node1&#45;&gt;Node9 -->
<g id="edge26" class="edge"><title>Node1&#45;&gt;Node9</title>
<path fill="none" stroke="midnightblue" d="M648.706,-200.125C591.115,-192.288 507.562,-178.797 436.411,-159 372.523,-141.224 300.827,-110.927 262.054,-93.6316"/>
<polygon fill="midnightblue" stroke="midnightblue" points="648.414,-203.617 658.79,-201.475 649.343,-196.679 648.414,-203.617"/>
</g>
<!-- Node10 -->
<g id="node10" class="node"><title>Node10</title>
<g id="a_node10"><a xlink:href="$sitl__compass_8cpp.html" xlink:title="libraries/AP_HAL_SITL\l/sitl_compass.cpp">
<polygon fill="white" stroke="black" points="522,-65.5 522,-93.5 640.822,-93.5 640.822,-65.5 522,-65.5"/>
<text text-anchor="start" x="530" y="-81.5" font-family="Helvetica,sans-Serif" font-size="10.00">libraries/AP_HAL_SITL</text>
<text text-anchor="middle" x="581.411" y="-71.5" font-family="Helvetica,sans-Serif" font-size="10.00">/sitl_compass.cpp</text>
</a>
</g>
</g>
<!-- Node1&#45;&gt;Node10 -->
<g id="edge27" class="edge"><title>Node1&#45;&gt;Node10</title>
<path fill="none" stroke="midnightblue" d="M696.877,-188.38C668.611,-161.971 619.769,-116.338 595.685,-93.836"/>
<polygon fill="midnightblue" stroke="midnightblue" points="694.569,-191.014 704.266,-195.284 699.348,-185.899 694.569,-191.014"/>
</g>
<!-- Node11 -->
<g id="node11" class="node"><title>Node11</title>
<g id="a_node11"><a xlink:href="$sitl__gps_8cpp.html" xlink:title="libraries/AP_HAL_SITL\l/sitl_gps.cpp">
<polygon fill="white" stroke="black" points="659,-65.5 659,-93.5 777.822,-93.5 777.822,-65.5 659,-65.5"/>
<text text-anchor="start" x="667" y="-81.5" font-family="Helvetica,sans-Serif" font-size="10.00">libraries/AP_HAL_SITL</text>
<text text-anchor="middle" x="718.411" y="-71.5" font-family="Helvetica,sans-Serif" font-size="10.00">/sitl_gps.cpp</text>
</a>
</g>
</g>
<!-- Node1&#45;&gt;Node11 -->
<g id="edge28" class="edge"><title>Node1&#45;&gt;Node11</title>
<path fill="none" stroke="midnightblue" d="M718.411,-185.25C718.411,-158.495 718.411,-115.473 718.411,-93.836"/>
<polygon fill="midnightblue" stroke="midnightblue" points="714.911,-185.284 718.411,-195.284 721.911,-185.284 714.911,-185.284"/>
</g>
<!-- Node12 -->
<g id="node12" class="node"><title>Node12</title>
<g id="a_node12"><a xlink:href="$SITL__State_8cpp.html" xlink:title="libraries/AP_HAL_SITL\l/SITL_State.cpp">
<polygon fill="white" stroke="black" points="796,-65.5 796,-93.5 914.822,-93.5 914.822,-65.5 796,-65.5"/>
<text text-anchor="start" x="804" y="-81.5" font-family="Helvetica,sans-Serif" font-size="10.00">libraries/AP_HAL_SITL</text>
<text text-anchor="middle" x="855.411" y="-71.5" font-family="Helvetica,sans-Serif" font-size="10.00">/SITL_State.cpp</text>
</a>
</g>
</g>
<!-- Node1&#45;&gt;Node12 -->
<g id="edge31" class="edge"><title>Node1&#45;&gt;Node12</title>
<path fill="none" stroke="midnightblue" d="M739.946,-188.38C768.212,-161.971 817.053,-116.338 841.137,-93.836"/>
<polygon fill="midnightblue" stroke="midnightblue" points="737.474,-185.899 732.557,-195.284 742.253,-191.014 737.474,-185.899"/>
</g>
<!-- Node13 -->
<g id="node13" class="node"><title>Node13</title>
<g id="a_node13"><a xlink:href="$SITL_2RCInput_8h.html" xlink:title="libraries/AP_HAL_SITL\l/RCInput.h">
<polygon fill="white" stroke="black" points="921,-130.5 921,-158.5 1039.82,-158.5 1039.82,-130.5 921,-130.5"/>
<text text-anchor="start" x="929" y="-146.5" font-family="Helvetica,sans-Serif" font-size="10.00">libraries/AP_HAL_SITL</text>
<text text-anchor="middle" x="980.411" y="-136.5" font-family="Helvetica,sans-Serif" font-size="10.00">/RCInput.h</text>
</a>
</g>
</g>
<!-- Node1&#45;&gt;Node13 -->
<g id="edge18" class="edge"><title>Node1&#45;&gt;Node13</title>
<path fill="none" stroke="midnightblue" d="M782.446,-193.102C826.513,-182.506 884.408,-168.585 926.194,-158.537"/>
<polygon fill="midnightblue" stroke="midnightblue" points="781.602,-189.705 772.698,-195.446 783.239,-196.511 781.602,-189.705"/>
</g>
<!-- Node15 -->
<g id="node15" class="node"><title>Node15</title>
<g id="a_node15"><a xlink:href="$SITL_2RCOutput_8h.html" xlink:title="libraries/AP_HAL_SITL\l/RCOutput.h">
<polygon fill="white" stroke="black" points="1058,-130.5 1058,-158.5 1176.82,-158.5 1176.82,-130.5 1058,-130.5"/>
<text text-anchor="start" x="1066" y="-146.5" font-family="Helvetica,sans-Serif" font-size="10.00">libraries/AP_HAL_SITL</text>
<text text-anchor="middle" x="1117.41" y="-136.5" font-family="Helvetica,sans-Serif" font-size="10.00">/RCOutput.h</text>
</a>
</g>
</g>
<!-- Node1&#45;&gt;Node15 -->
<g id="edge21" class="edge"><title>Node1&#45;&gt;Node15</title>
<path fill="none" stroke="midnightblue" d="M787.854,-198.996C854.733,-189.627 958.681,-174.5 1048.41,-159 1051.54,-158.46 1054.74,-157.89 1057.97,-157.302"/>
<polygon fill="midnightblue" stroke="midnightblue" points="787.273,-195.543 777.854,-200.392 788.242,-202.475 787.273,-195.543"/>
</g>
<!-- Node17 -->
<g id="node17" class="node"><title>Node17</title>
<g id="a_node17"><a xlink:href="$AP__HAL__SITL_2Scheduler_8cpp.html" xlink:title="libraries/AP_HAL_SITL\l/Scheduler.cpp">
<polygon fill="white" stroke="black" points="1195,-130.5 1195,-158.5 1313.82,-158.5 1313.82,-130.5 1195,-130.5"/>
<text text-anchor="start" x="1203" y="-146.5" font-family="Helvetica,sans-Serif" font-size="10.00">libraries/AP_HAL_SITL</text>
<text text-anchor="middle" x="1254.41" y="-136.5" font-family="Helvetica,sans-Serif" font-size="10.00">/Scheduler.cpp</text>
</a>
</g>
</g>
<!-- Node1&#45;&gt;Node17 -->
<g id="edge24" class="edge"><title>Node1&#45;&gt;Node17</title>
<path fill="none" stroke="midnightblue" d="M787.935,-203.046C879.384,-195.434 1044.95,-180.143 1185.41,-159 1188.43,-158.546 1191.51,-158.052 1194.63,-157.529"/>
<polygon fill="midnightblue" stroke="midnightblue" points="787.645,-199.558 777.968,-203.869 788.222,-206.534 787.645,-199.558"/>
</g>
<!-- Node18 -->
<g id="node18" class="node"><title>Node18</title>
<g id="a_node18"><a xlink:href="$sitl__barometer_8cpp.html" xlink:title="libraries/AP_HAL_SITL\l/sitl_barometer.cpp">
<polygon fill="white" stroke="black" points="1332,-130.5 1332,-158.5 1450.82,-158.5 1450.82,-130.5 1332,-130.5"/>
<text text-anchor="start" x="1340" y="-146.5" font-family="Helvetica,sans-Serif" font-size="10.00">libraries/AP_HAL_SITL</text>
<text text-anchor="middle" x="1391.41" y="-136.5" font-family="Helvetica,sans-Serif" font-size="10.00">/sitl_barometer.cpp</text>
</a>
</g>
</g>
<!-- Node1&#45;&gt;Node18 -->
<g id="edge25" class="edge"><title>Node1&#45;&gt;Node18</title>
<path fill="none" stroke="midnightblue" d="M788.459,-205.298C901.3,-199.571 1130.14,-185.604 1322.41,-159 1325.43,-158.582 1328.52,-158.116 1331.64,-157.617"/>
<polygon fill="midnightblue" stroke="midnightblue" points="788.047,-201.814 778.235,-205.811 788.398,-208.806 788.047,-201.814"/>
</g>
<!-- Node19 -->
<g id="node19" class="node"><title>Node19</title>
<g id="a_node19"><a xlink:href="$sitl__optical__flow_8cpp.html" xlink:title="libraries/AP_HAL_SITL\l/sitl_optical_flow.cpp">
<polygon fill="white" stroke="black" points="1469,-130.5 1469,-158.5 1587.82,-158.5 1587.82,-130.5 1469,-130.5"/>
<text text-anchor="start" x="1477" y="-146.5" font-family="Helvetica,sans-Serif" font-size="10.00">libraries/AP_HAL_SITL</text>
<text text-anchor="middle" x="1528.41" y="-136.5" font-family="Helvetica,sans-Serif" font-size="10.00">/sitl_optical_flow.cpp</text>
</a>
</g>
</g>
<!-- Node1&#45;&gt;Node19 -->
<g id="edge30" class="edge"><title>Node1&#45;&gt;Node19</title>
<path fill="none" stroke="midnightblue" d="M788.568,-206.769C920.462,-202.86 1214.2,-191.048 1459.41,-159 1462.44,-158.605 1465.53,-158.158 1468.65,-157.673"/>
<polygon fill="midnightblue" stroke="midnightblue" points="788.107,-203.281 778.213,-207.069 788.31,-210.278 788.107,-203.281"/>
</g>
<!-- Node3&#45;&gt;Node1 -->
<g id="edge3" class="edge"><title>Node3&#45;&gt;Node1</title>
<path fill="none" stroke="midnightblue" d="M591.048,-161.823C622.07,-172.288 660.225,-185.69 686.708,-195.446"/>
<polygon fill="midnightblue" stroke="midnightblue" points="591.844,-158.399 581.25,-158.537 589.618,-165.035 591.844,-158.399"/>
</g>
<!-- Node3&#45;&gt;Node4 -->
<g id="edge4" class="edge"><title>Node3&#45;&gt;Node4</title>
<path fill="none" stroke="midnightblue" d="M496.338,-126.199C473.87,-115.882 447.241,-102.994 428.929,-93.5369"/>
<polygon fill="midnightblue" stroke="midnightblue" points="495.123,-129.492 505.675,-130.446 498.021,-123.12 495.123,-129.492"/>
</g>
<!-- Node3&#45;&gt;Node6 -->
<g id="edge10" class="edge"><title>Node3&#45;&gt;Node6</title>
<path fill="none" stroke="midnightblue" d="M521.337,-121.872C509.908,-104.626 499.31,-80.8212 513.411,-65 537.573,-37.8895 770.893,-23.4618 882.935,-18.0482"/>
<polygon fill="midnightblue" stroke="midnightblue" points="518.619,-124.09 527.263,-130.216 524.326,-120.036 518.619,-124.09"/>
</g>
<!-- Node3&#45;&gt;Node7 -->
<g id="edge14" class="edge"><title>Node3&#45;&gt;Node7</title>
<path fill="none" stroke="midnightblue" d="M468.973,-136.102C428.962,-129.502 378.929,-117.12 339.411,-94 310.797,-77.2598 286.376,-46.1418 274.028,-28.5304"/>
<polygon fill="midnightblue" stroke="midnightblue" points="468.496,-139.569 478.917,-137.658 469.578,-132.654 468.496,-139.569"/>
</g>
<!-- Node3&#45;&gt;Node9 -->
<g id="edge11" class="edge"><title>Node3&#45;&gt;Node9</title>
<path fill="none" stroke="midnightblue" d="M468.872,-129.136C415.812,-118.176 343.49,-103.238 293.052,-92.8193"/>
<polygon fill="midnightblue" stroke="midnightblue" points="468.379,-132.608 478.88,-131.203 469.795,-125.753 468.379,-132.608"/>
</g>
<!-- Node3&#45;&gt;Node10 -->
<g id="edge12" class="edge"><title>Node3&#45;&gt;Node10</title>
<path fill="none" stroke="midnightblue" d="M553.134,-121.93C559.576,-112.491 566.923,-101.727 572.513,-93.5369"/>
<polygon fill="midnightblue" stroke="midnightblue" points="550.067,-120.214 547.321,-130.446 555.849,-124.16 550.067,-120.214"/>
</g>
<!-- Node3&#45;&gt;Node11 -->
<g id="edge13" class="edge"><title>Node3&#45;&gt;Node11</title>
<path fill="none" stroke="midnightblue" d="M585.489,-127.023C615.341,-116.575 653.42,-103.247 681.163,-93.5369"/>
<polygon fill="midnightblue" stroke="midnightblue" points="583.99,-123.839 575.707,-130.446 586.302,-130.446 583.99,-123.839"/>
</g>
<!-- Node3&#45;&gt;Node12 -->
<g id="edge15" class="edge"><title>Node3&#45;&gt;Node12</title>
<path fill="none" stroke="midnightblue" d="M607.911,-129.688C664.113,-118.518 742.404,-102.959 795.784,-92.3501"/>
<polygon fill="midnightblue" stroke="midnightblue" points="607.162,-126.268 598.036,-131.65 608.527,-133.134 607.162,-126.268"/>
</g>
<!-- Node4&#45;&gt;Node3 -->
<g id="edge5" class="edge"><title>Node4&#45;&gt;Node3</title>
<path fill="none" stroke="midnightblue" d="M449.445,-97.7824C471.907,-108.097 498.539,-120.986 516.861,-130.446"/>
<polygon fill="midnightblue" stroke="midnightblue" points="450.662,-94.4909 440.11,-93.5369 447.764,-100.863 450.662,-94.4909"/>
</g>
<!-- Node5 -->
<g id="node5" class="node"><title>Node5</title>
<g id="a_node5"><a xlink:href="$AP__HAL__SITL__Private_8h.html" xlink:title="libraries/AP_HAL_SITL\l/AP_HAL_SITL_Private.h">
<polygon fill="white" stroke="black" points="342.993,-0.5 342.993,-28.5 471.83,-28.5 471.83,-0.5 342.993,-0.5"/>
<text text-anchor="start" x="350.993" y="-16.5" font-family="Helvetica,sans-Serif" font-size="10.00">libraries/AP_HAL_SITL</text>
<text text-anchor="middle" x="407.411" y="-6.5" font-family="Helvetica,sans-Serif" font-size="10.00">/AP_HAL_SITL_Private.h</text>
</a>
</g>
</g>
<!-- Node4&#45;&gt;Node5 -->
<g id="edge6" class="edge"><title>Node4&#45;&gt;Node5</title>
<path fill="none" stroke="midnightblue" d="M407.411,-55.1641C407.411,-46.1693 407.411,-36.2205 407.411,-28.5369"/>
<polygon fill="midnightblue" stroke="midnightblue" points="403.911,-55.4463 407.411,-65.4464 410.911,-55.4464 403.911,-55.4463"/>
</g>
<!-- Node4&#45;&gt;Node6 -->
<g id="edge7" class="edge"><title>Node4&#45;&gt;Node6</title>
<path fill="none" stroke="midnightblue" d="M477.135,-65.4869C478.235,-65.3205 479.327,-65.1581 480.411,-65 624.292,-44.0191 794.6,-28.0435 882.79,-20.4262"/>
<polygon fill="midnightblue" stroke="midnightblue" points="476.436,-62.0541 467.107,-67.0777 477.532,-68.9676 476.436,-62.0541"/>
</g>
<!-- Node4&#45;&gt;Node7 -->
<g id="edge8" class="edge"><title>Node4&#45;&gt;Node7</title>
<path fill="none" stroke="midnightblue" d="M368.727,-61.3374C345.42,-50.9968 316.206,-38.0359 294.796,-28.5369"/>
<polygon fill="midnightblue" stroke="midnightblue" points="367.428,-64.5902 377.989,-65.4464 370.267,-58.1916 367.428,-64.5902"/>
</g>
<!-- Node8 -->
<g id="node8" class="node"><title>Node8</title>
<g id="a_node8"><a xlink:href="$SITL_2UARTDriver_8cpp.html" xlink:title="libraries/AP_HAL_SITL\l/UARTDriver.cpp">
<polygon fill="white" stroke="black" points="490,-0.5 490,-28.5 608.822,-28.5 608.822,-0.5 490,-0.5"/>
<text text-anchor="start" x="498" y="-16.5" font-family="Helvetica,sans-Serif" font-size="10.00">libraries/AP_HAL_SITL</text>
<text text-anchor="middle" x="549.411" y="-6.5" font-family="Helvetica,sans-Serif" font-size="10.00">/UARTDriver.cpp</text>
</a>
</g>
</g>
<!-- Node4&#45;&gt;Node8 -->
<g id="edge9" class="edge"><title>Node4&#45;&gt;Node8</title>
<path fill="none" stroke="midnightblue" d="M446.095,-61.3374C469.402,-50.9968 498.616,-38.0359 520.026,-28.5369"/>
<polygon fill="midnightblue" stroke="midnightblue" points="444.555,-58.1916 436.834,-65.4464 447.394,-64.5902 444.555,-58.1916"/>
</g>
<!-- Node13&#45;&gt;Node6 -->
<g id="edge19" class="edge"><title>Node13&#45;&gt;Node6</title>
<path fill="none" stroke="midnightblue" d="M973.614,-120.606C965.68,-93.8779 952.822,-50.5691 946.37,-28.836"/>
<polygon fill="midnightblue" stroke="midnightblue" points="970.286,-121.694 976.488,-130.284 976.997,-119.701 970.286,-121.694"/>
</g>
<!-- Node14 -->
<g id="node14" class="node"><title>Node14</title>
<g id="a_node14"><a xlink:href="$SITL_2RCInput_8cpp.html" xlink:title="libraries/AP_HAL_SITL\l/RCInput.cpp">
<polygon fill="white" stroke="black" points="1008,-65.5 1008,-93.5 1126.82,-93.5 1126.82,-65.5 1008,-65.5"/>
<text text-anchor="start" x="1016" y="-81.5" font-family="Helvetica,sans-Serif" font-size="10.00">libraries/AP_HAL_SITL</text>
<text text-anchor="middle" x="1067.41" y="-71.5" font-family="Helvetica,sans-Serif" font-size="10.00">/RCInput.cpp</text>
</a>
</g>
</g>
<!-- Node13&#45;&gt;Node14 -->
<g id="edge20" class="edge"><title>Node13&#45;&gt;Node14</title>
<path fill="none" stroke="midnightblue" d="M1006.62,-124.52C1020.44,-114.511 1037.05,-102.487 1049.41,-93.5369"/>
<polygon fill="midnightblue" stroke="midnightblue" points="1004.48,-121.746 998.438,-130.446 1008.59,-127.416 1004.48,-121.746"/>
</g>
<!-- Node15&#45;&gt;Node6 -->
<g id="edge22" class="edge"><title>Node15&#45;&gt;Node6</title>
<path fill="none" stroke="midnightblue" d="M1131.31,-121.692C1140.23,-104.652 1147.99,-81.2183 1135.41,-65 1119.08,-43.956 1052.56,-30.3177 1002.14,-22.7904"/>
<polygon fill="midnightblue" stroke="midnightblue" points="1128.25,-119.989 1126.36,-130.414 1134.34,-123.444 1128.25,-119.989"/>
</g>
<!-- Node16 -->
<g id="node16" class="node"><title>Node16</title>
<g id="a_node16"><a xlink:href="$SITL_2RCOutput_8cpp.html" xlink:title="libraries/AP_HAL_SITL\l/RCOutput.cpp">
<polygon fill="white" stroke="black" points="1182,-65.5 1182,-93.5 1300.82,-93.5 1300.82,-65.5 1182,-65.5"/>
<text text-anchor="start" x="1190" y="-81.5" font-family="Helvetica,sans-Serif" font-size="10.00">libraries/AP_HAL_SITL</text>
<text text-anchor="middle" x="1241.41" y="-71.5" font-family="Helvetica,sans-Serif" font-size="10.00">/RCOutput.cpp</text>
</a>
</g>
</g>
<!-- Node15&#45;&gt;Node16 -->
<g id="edge23" class="edge"><title>Node15&#45;&gt;Node16</title>
<path fill="none" stroke="midnightblue" d="M1152.28,-125.783C1172.45,-115.537 1197.39,-102.867 1215.75,-93.5369"/>
<polygon fill="midnightblue" stroke="midnightblue" points="1150.43,-122.796 1143.1,-130.446 1153.6,-129.037 1150.43,-122.796"/>
</g>
</g>
</svg>
