<?xml version="1.0" encoding="UTF-8" standalone="no"?>
<!DOCTYPE svg PUBLIC "-//W3C//DTD SVG 1.1//EN"
 "http://www.w3.org/Graphics/SVG/1.1/DTD/svg11.dtd">
<!-- Generated by graphviz version 2.38.0 (20140413.2041)
 -->
<!-- Title: libraries/AP_Motors/AP_Motors_Class.h Pages: 1 -->
<svg width="1725pt" height="577pt"
 viewBox="0.00 0.00 1724.88 577.00" xmlns="http://www.w3.org/2000/svg" xmlns:xlink="http://www.w3.org/1999/xlink">
<g id="graph0" class="graph" transform="scale(1 1) rotate(0) translate(4 573)">
<title>libraries/AP_Motors/AP_Motors_Class.h</title>
<polygon fill="white" stroke="none" points="-4,4 -4,-573 1720.88,-573 1720.88,4 -4,4"/>
<!-- Node1 -->
<g id="node1" class="node"><title>Node1</title>
<polygon fill="#bfbfbf" stroke="black" points="584.426,-540.5 584.426,-568.5 691.574,-568.5 691.574,-540.5 584.426,-540.5"/>
<text text-anchor="start" x="592.426" y="-556.5" font-family="Helvetica,sans-Serif" font-size="10.00">libraries/AP_Motors</text>
<text text-anchor="middle" x="638" y="-546.5" font-family="Helvetica,sans-Serif" font-size="10.00">/AP_Motors_Class.h</text>
</g>
<!-- Node2 -->
<g id="node2" class="node"><title>Node2</title>
<g id="a_node2"><a xlink:href="$AP__Motors_8h.html" xlink:title="libraries/AP_Motors\l/AP_Motors.h">
<polygon fill="white" stroke="black" points="682.375,-280.5 682.375,-308.5 785.625,-308.5 785.625,-280.5 682.375,-280.5"/>
<text text-anchor="start" x="690.375" y="-296.5" font-family="Helvetica,sans-Serif" font-size="10.00">libraries/AP_Motors</text>
<text text-anchor="middle" x="734" y="-286.5" font-family="Helvetica,sans-Serif" font-size="10.00">/AP_Motors.h</text>
</a>
</g>
</g>
<!-- Node1&#45;&gt;Node2 -->
<g id="edge1" class="edge"><title>Node1&#45;&gt;Node2</title>
<path fill="none" stroke="midnightblue" d="M630.098,-530.701C617.488,-489.952 597.725,-403.431 634,-345 644.83,-327.554 663.837,-316.069 682.391,-308.6"/>
<polygon fill="midnightblue" stroke="midnightblue" points="626.779,-531.815 633.186,-540.253 633.44,-529.661 626.779,-531.815"/>
</g>
<!-- Node17 -->
<g id="node17" class="node"><title>Node17</title>
<g id="a_node17"><a xlink:href="$AP__MotorsMulticopter_8h.html" xlink:title="Motor control class for Multicopters. ">
<polygon fill="white" stroke="black" points="285.53,-475.5 285.53,-503.5 410.47,-503.5 410.47,-475.5 285.53,-475.5"/>
<text text-anchor="start" x="293.53" y="-491.5" font-family="Helvetica,sans-Serif" font-size="10.00">libraries/AP_Motors</text>
<text text-anchor="middle" x="348" y="-481.5" font-family="Helvetica,sans-Serif" font-size="10.00">/AP_MotorsMulticopter.h</text>
</a>
</g>
</g>
<!-- Node1&#45;&gt;Node17 -->
<g id="edge18" class="edge"><title>Node1&#45;&gt;Node17</title>
<path fill="none" stroke="midnightblue" d="M574.183,-539.636C524.698,-528.886 456.599,-514.092 408.084,-503.553"/>
<polygon fill="midnightblue" stroke="midnightblue" points="573.618,-543.095 584.133,-541.798 575.104,-536.255 573.618,-543.095"/>
</g>
<!-- Node37 -->
<g id="node37" class="node"><title>Node37</title>
<g id="a_node37"><a xlink:href="$AP__MotorsHeli_8h.html" xlink:title="Motor control class for Traditional Heli. ">
<polygon fill="white" stroke="black" points="1507.37,-410.5 1507.37,-438.5 1610.63,-438.5 1610.63,-410.5 1507.37,-410.5"/>
<text text-anchor="start" x="1515.37" y="-426.5" font-family="Helvetica,sans-Serif" font-size="10.00">libraries/AP_Motors</text>
<text text-anchor="middle" x="1559" y="-416.5" font-family="Helvetica,sans-Serif" font-size="10.00">/AP_MotorsHeli.h</text>
</a>
</g>
</g>
<!-- Node1&#45;&gt;Node37 -->
<g id="edge49" class="edge"><title>Node1&#45;&gt;Node37</title>
<path fill="none" stroke="midnightblue" d="M642.548,-530.306C647.462,-511.987 657.254,-487.497 676,-475 710.713,-451.859 1323.12,-432.327 1507.13,-426.96"/>
<polygon fill="midnightblue" stroke="midnightblue" points="639.094,-529.704 640.188,-540.242 645.904,-531.321 639.094,-529.704"/>
</g>
<!-- Node41 -->
<g id="node41" class="node"><title>Node41</title>
<g id="a_node41"><a xlink:href="$AP__Motors__Class_8cpp.html" xlink:title="libraries/AP_Motors\l/AP_Motors_Class.cpp">
<polygon fill="white" stroke="black" points="685.146,-475.5 685.146,-503.5 802.854,-503.5 802.854,-475.5 685.146,-475.5"/>
<text text-anchor="start" x="693.146" y="-491.5" font-family="Helvetica,sans-Serif" font-size="10.00">libraries/AP_Motors</text>
<text text-anchor="middle" x="744" y="-481.5" font-family="Helvetica,sans-Serif" font-size="10.00">/AP_Motors_Class.cpp</text>
</a>
</g>
</g>
<!-- Node1&#45;&gt;Node41 -->
<g id="edge55" class="edge"><title>Node1&#45;&gt;Node41</title>
<path fill="none" stroke="midnightblue" d="M668.985,-535.084C686.01,-524.965 706.722,-512.656 722.065,-503.537"/>
<polygon fill="midnightblue" stroke="midnightblue" points="666.771,-532.328 659.963,-540.446 670.348,-538.346 666.771,-532.328"/>
</g>
<!-- Node3 -->
<g id="node3" class="node"><title>Node3</title>
<g id="a_node3"><a xlink:href="$AC__AttitudeControl_8h.html" xlink:title="ArduCopter attitude control library. ">
<polygon fill="white" stroke="black" points="615.306,-205.5 615.306,-233.5 754.694,-233.5 754.694,-205.5 615.306,-205.5"/>
<text text-anchor="start" x="623.306" y="-221.5" font-family="Helvetica,sans-Serif" font-size="10.00">libraries/AC_AttitudeControl</text>
<text text-anchor="middle" x="685" y="-211.5" font-family="Helvetica,sans-Serif" font-size="10.00">/AC_AttitudeControl.h</text>
</a>
</g>
</g>
<!-- Node2&#45;&gt;Node3 -->
<g id="edge2" class="edge"><title>Node2&#45;&gt;Node3</title>
<path fill="none" stroke="midnightblue" d="M719.609,-272.06C711.327,-259.722 701.176,-244.6 694.016,-233.932"/>
<polygon fill="midnightblue" stroke="midnightblue" points="716.76,-274.097 725.24,-280.449 722.573,-270.195 716.76,-274.097"/>
</g>
<!-- Node9 -->
<g id="node9" class="node"><title>Node9</title>
<g id="a_node9"><a xlink:href="$AC__PosControl_8h.html" xlink:title="libraries/AC_AttitudeControl\l/AC_PosControl.h">
<polygon fill="white" stroke="black" points="742.306,-130.5 742.306,-158.5 881.694,-158.5 881.694,-130.5 742.306,-130.5"/>
<text text-anchor="start" x="750.306" y="-146.5" font-family="Helvetica,sans-Serif" font-size="10.00">libraries/AC_AttitudeControl</text>
<text text-anchor="middle" x="812" y="-136.5" font-family="Helvetica,sans-Serif" font-size="10.00">/AC_PosControl.h</text>
</a>
</g>
</g>
<!-- Node2&#45;&gt;Node9 -->
<g id="edge15" class="edge"><title>Node2&#45;&gt;Node9</title>
<path fill="none" stroke="midnightblue" d="M747.836,-271.644C753.076,-263.119 758.984,-253.2 764,-244 780.3,-214.103 797.273,-177.858 806.009,-158.759"/>
<polygon fill="midnightblue" stroke="midnightblue" points="744.794,-269.907 742.485,-280.248 750.739,-273.604 744.794,-269.907"/>
</g>
<!-- Node15 -->
<g id="node15" class="node"><title>Node15</title>
<g id="a_node15"><a xlink:href="$AP__Motors__test_8cpp.html" xlink:title="libraries/AP_Motors\l/examples/AP_Motors\l_test/AP_Motors_test.cpp">
<polygon fill="white" stroke="black" points="810.749,-200.5 810.749,-238.5 941.251,-238.5 941.251,-200.5 810.749,-200.5"/>
<text text-anchor="start" x="818.749" y="-226.5" font-family="Helvetica,sans-Serif" font-size="10.00">libraries/AP_Motors</text>
<text text-anchor="start" x="818.749" y="-216.5" font-family="Helvetica,sans-Serif" font-size="10.00">/examples/AP_Motors</text>
<text text-anchor="middle" x="876" y="-206.5" font-family="Helvetica,sans-Serif" font-size="10.00">_test/AP_Motors_test.cpp</text>
</a>
</g>
</g>
<!-- Node2&#45;&gt;Node15 -->
<g id="edge16" class="edge"><title>Node2&#45;&gt;Node15</title>
<path fill="none" stroke="midnightblue" d="M768.383,-275.824C790.382,-264.515 818.84,-249.885 840.966,-238.511"/>
<polygon fill="midnightblue" stroke="midnightblue" points="766.68,-272.764 759.387,-280.449 769.881,-278.99 766.68,-272.764"/>
</g>
<!-- Node16 -->
<g id="node16" class="node"><title>Node16</title>
<g id="a_node16"><a xlink:href="$AP__Motors__Time__test_8cpp.html" xlink:title="libraries/AP_Motors\l/examples/AP_Motors\l_Time_test/AP_Motors\l_Time_test.cpp">
<polygon fill="white" stroke="black" points="480.331,-195.5 480.331,-243.5 597.669,-243.5 597.669,-195.5 480.331,-195.5"/>
<text text-anchor="start" x="488.331" y="-231.5" font-family="Helvetica,sans-Serif" font-size="10.00">libraries/AP_Motors</text>
<text text-anchor="start" x="488.331" y="-221.5" font-family="Helvetica,sans-Serif" font-size="10.00">/examples/AP_Motors</text>
<text text-anchor="start" x="488.331" y="-211.5" font-family="Helvetica,sans-Serif" font-size="10.00">_Time_test/AP_Motors</text>
<text text-anchor="middle" x="539" y="-201.5" font-family="Helvetica,sans-Serif" font-size="10.00">_Time_test.cpp</text>
</a>
</g>
</g>
<!-- Node2&#45;&gt;Node16 -->
<g id="edge17" class="edge"><title>Node2&#45;&gt;Node16</title>
<path fill="none" stroke="midnightblue" d="M689.53,-276.852C662.42,-266.703 627.447,-253.611 598.036,-242.601"/>
<polygon fill="midnightblue" stroke="midnightblue" points="688.546,-280.221 699.138,-280.449 691,-273.665 688.546,-280.221"/>
</g>
<!-- Node4 -->
<g id="node4" class="node"><title>Node4</title>
<g id="a_node4"><a xlink:href="$AC__AttitudeControl_8cpp.html" xlink:title="libraries/AC_AttitudeControl\l/AC_AttitudeControl.cpp">
<polygon fill="white" stroke="black" points="585.306,-130.5 585.306,-158.5 724.694,-158.5 724.694,-130.5 585.306,-130.5"/>
<text text-anchor="start" x="593.306" y="-146.5" font-family="Helvetica,sans-Serif" font-size="10.00">libraries/AC_AttitudeControl</text>
<text text-anchor="middle" x="655" y="-136.5" font-family="Helvetica,sans-Serif" font-size="10.00">/AC_AttitudeControl.cpp</text>
</a>
</g>
</g>
<!-- Node3&#45;&gt;Node4 -->
<g id="edge3" class="edge"><title>Node3&#45;&gt;Node4</title>
<path fill="none" stroke="midnightblue" d="M675.743,-195.975C670.758,-183.845 664.776,-169.289 660.52,-158.932"/>
<polygon fill="midnightblue" stroke="midnightblue" points="672.598,-197.53 679.637,-205.449 679.073,-194.869 672.598,-197.53"/>
</g>
<!-- Node5 -->
<g id="node5" class="node"><title>Node5</title>
<g id="a_node5"><a xlink:href="$AC__AttitudeControl__Heli_8h.html" xlink:title="ArduCopter attitude control library for traditional helicopters. ">
<polygon fill="white" stroke="black" points="1291.31,-130.5 1291.31,-158.5 1430.69,-158.5 1430.69,-130.5 1291.31,-130.5"/>
<text text-anchor="start" x="1299.31" y="-146.5" font-family="Helvetica,sans-Serif" font-size="10.00">libraries/AC_AttitudeControl</text>
<text text-anchor="middle" x="1361" y="-136.5" font-family="Helvetica,sans-Serif" font-size="10.00">/AC_AttitudeControl_Heli.h</text>
</a>
</g>
</g>
<!-- Node3&#45;&gt;Node5 -->
<g id="edge4" class="edge"><title>Node3&#45;&gt;Node5</title>
<path fill="none" stroke="midnightblue" d="M753.64,-203.403C769.466,-200.288 786.272,-197.269 802,-195 977.021,-169.752 1184.85,-155.423 1291,-149.222"/>
<polygon fill="midnightblue" stroke="midnightblue" points="752.518,-200.059 743.403,-205.458 753.896,-206.922 752.518,-200.059"/>
</g>
<!-- Node7 -->
<g id="node7" class="node"><title>Node7</title>
<g id="a_node7"><a xlink:href="$AC__AttitudeControl__Multi_8h.html" xlink:title="ArduCopter attitude control library. ">
<polygon fill="white" stroke="black" points="133.303,-130.5 133.303,-158.5 272.697,-158.5 272.697,-130.5 133.303,-130.5"/>
<text text-anchor="start" x="141.303" y="-146.5" font-family="Helvetica,sans-Serif" font-size="10.00">libraries/AC_AttitudeControl</text>
<text text-anchor="middle" x="203" y="-136.5" font-family="Helvetica,sans-Serif" font-size="10.00">/AC_AttitudeControl_Multi.h</text>
</a>
</g>
</g>
<!-- Node3&#45;&gt;Node7 -->
<g id="edge6" class="edge"><title>Node3&#45;&gt;Node7</title>
<path fill="none" stroke="midnightblue" d="M636.858,-202.597C627.056,-199.756 616.757,-197.052 607,-195 491.172,-170.642 353.962,-156.968 272.936,-150.424"/>
<polygon fill="midnightblue" stroke="midnightblue" points="635.872,-205.956 646.456,-205.465 637.876,-199.249 635.872,-205.956"/>
</g>
<!-- Node3&#45;&gt;Node9 -->
<g id="edge8" class="edge"><title>Node3&#45;&gt;Node9</title>
<path fill="none" stroke="midnightblue" d="M716.551,-200.365C739.055,-187.429 768.799,-170.332 789.063,-158.684"/>
<polygon fill="midnightblue" stroke="midnightblue" points="714.631,-197.431 707.705,-205.449 718.119,-203.5 714.631,-197.431"/>
</g>
<!-- Node13 -->
<g id="node13" class="node"><title>Node13</title>
<g id="a_node13"><a xlink:href="$AC__WPNav_8h.html" xlink:title="libraries/AC_WPNav\l/AC_WPNav.h">
<polygon fill="white" stroke="black" points="527.434,-65.5 527.434,-93.5 634.566,-93.5 634.566,-65.5 527.434,-65.5"/>
<text text-anchor="start" x="535.434" y="-81.5" font-family="Helvetica,sans-Serif" font-size="10.00">libraries/AC_WPNav</text>
<text text-anchor="middle" x="581" y="-71.5" font-family="Helvetica,sans-Serif" font-size="10.00">/AC_WPNav.h</text>
</a>
</g>
</g>
<!-- Node3&#45;&gt;Node13 -->
<g id="edge14" class="edge"><title>Node3&#45;&gt;Node13</title>
<path fill="none" stroke="midnightblue" d="M628.98,-201.569C608.614,-192.402 587.736,-178.776 576,-159 564.013,-138.8 570.391,-110.308 575.867,-93.7844"/>
<polygon fill="midnightblue" stroke="midnightblue" points="627.691,-204.824 638.266,-205.474 630.405,-198.372 627.691,-204.824"/>
</g>
<!-- Node6 -->
<g id="node6" class="node"><title>Node6</title>
<g id="a_node6"><a xlink:href="$AC__AttitudeControl__Heli_8cpp.html" xlink:title="libraries/AC_AttitudeControl\l/AC_AttitudeControl_Heli.cpp">
<polygon fill="white" stroke="black" points="1287.97,-65.5 1287.97,-93.5 1434.03,-93.5 1434.03,-65.5 1287.97,-65.5"/>
<text text-anchor="start" x="1295.97" y="-81.5" font-family="Helvetica,sans-Serif" font-size="10.00">libraries/AC_AttitudeControl</text>
<text text-anchor="middle" x="1361" y="-71.5" font-family="Helvetica,sans-Serif" font-size="10.00">/AC_AttitudeControl_Heli.cpp</text>
</a>
</g>
</g>
<!-- Node5&#45;&gt;Node6 -->
<g id="edge5" class="edge"><title>Node5&#45;&gt;Node6</title>
<path fill="none" stroke="midnightblue" d="M1361,-120.164C1361,-111.169 1361,-101.221 1361,-93.5369"/>
<polygon fill="midnightblue" stroke="midnightblue" points="1357.5,-120.446 1361,-130.446 1364.5,-120.446 1357.5,-120.446"/>
</g>
<!-- Node8 -->
<g id="node8" class="node"><title>Node8</title>
<g id="a_node8"><a xlink:href="$AC__AttitudeControl__Multi_8cpp.html" xlink:title="libraries/AC_AttitudeControl\l/AC_AttitudeControl_Multi.cpp">
<polygon fill="white" stroke="black" points="128.022,-65.5 128.022,-93.5 277.978,-93.5 277.978,-65.5 128.022,-65.5"/>
<text text-anchor="start" x="136.022" y="-81.5" font-family="Helvetica,sans-Serif" font-size="10.00">libraries/AC_AttitudeControl</text>
<text text-anchor="middle" x="203" y="-71.5" font-family="Helvetica,sans-Serif" font-size="10.00">/AC_AttitudeControl_Multi.cpp</text>
</a>
</g>
</g>
<!-- Node7&#45;&gt;Node8 -->
<g id="edge7" class="edge"><title>Node7&#45;&gt;Node8</title>
<path fill="none" stroke="midnightblue" d="M203,-120.164C203,-111.169 203,-101.221 203,-93.5369"/>
<polygon fill="midnightblue" stroke="midnightblue" points="199.5,-120.446 203,-130.446 206.5,-120.446 199.5,-120.446"/>
</g>
<!-- Node10 -->
<g id="node10" class="node"><title>Node10</title>
<g id="a_node10"><a xlink:href="$AC__PosControl_8cpp.html" xlink:title="libraries/AC_AttitudeControl\l/AC_PosControl.cpp">
<polygon fill="white" stroke="black" points="697.306,-65.5 697.306,-93.5 836.694,-93.5 836.694,-65.5 697.306,-65.5"/>
<text text-anchor="start" x="705.306" y="-81.5" font-family="Helvetica,sans-Serif" font-size="10.00">libraries/AC_AttitudeControl</text>
<text text-anchor="middle" x="767" y="-71.5" font-family="Helvetica,sans-Serif" font-size="10.00">/AC_PosControl.cpp</text>
</a>
</g>
</g>
<!-- Node9&#45;&gt;Node10 -->
<g id="edge9" class="edge"><title>Node9&#45;&gt;Node10</title>
<path fill="none" stroke="midnightblue" d="M796.801,-122.221C790.01,-112.713 782.223,-101.812 776.312,-93.5369"/>
<polygon fill="midnightblue" stroke="midnightblue" points="794.015,-124.343 802.676,-130.446 799.712,-120.275 794.015,-124.343"/>
</g>
<!-- Node11 -->
<g id="node11" class="node"><title>Node11</title>
<g id="a_node11"><a xlink:href="$AC__Circle_8h.html" xlink:title="libraries/AC_WPNav\l/AC_Circle.h">
<polygon fill="white" stroke="black" points="854.434,-65.5 854.434,-93.5 961.566,-93.5 961.566,-65.5 854.434,-65.5"/>
<text text-anchor="start" x="862.434" y="-81.5" font-family="Helvetica,sans-Serif" font-size="10.00">libraries/AC_WPNav</text>
<text text-anchor="middle" x="908" y="-71.5" font-family="Helvetica,sans-Serif" font-size="10.00">/AC_Circle.h</text>
</a>
</g>
</g>
<!-- Node9&#45;&gt;Node11 -->
<g id="edge10" class="edge"><title>Node9&#45;&gt;Node11</title>
<path fill="none" stroke="midnightblue" d="M840.491,-124.803C855.828,-114.738 874.367,-102.572 888.134,-93.5369"/>
<polygon fill="midnightblue" stroke="midnightblue" points="838.331,-122.034 831.891,-130.446 842.172,-127.886 838.331,-122.034"/>
</g>
<!-- Node9&#45;&gt;Node13 -->
<g id="edge12" class="edge"><title>Node9&#45;&gt;Node13</title>
<path fill="none" stroke="midnightblue" d="M754.067,-127.7C715.404,-117.156 665.18,-103.458 628.802,-93.5369"/>
<polygon fill="midnightblue" stroke="midnightblue" points="753.568,-131.192 764.137,-130.446 755.41,-124.438 753.568,-131.192"/>
</g>
<!-- Node12 -->
<g id="node12" class="node"><title>Node12</title>
<g id="a_node12"><a xlink:href="$AC__Circle_8cpp.html" xlink:title="libraries/AC_WPNav\l/AC_Circle.cpp">
<polygon fill="white" stroke="black" points="854.434,-0.5 854.434,-28.5 961.566,-28.5 961.566,-0.5 854.434,-0.5"/>
<text text-anchor="start" x="862.434" y="-16.5" font-family="Helvetica,sans-Serif" font-size="10.00">libraries/AC_WPNav</text>
<text text-anchor="middle" x="908" y="-6.5" font-family="Helvetica,sans-Serif" font-size="10.00">/AC_Circle.cpp</text>
</a>
</g>
</g>
<!-- Node11&#45;&gt;Node12 -->
<g id="edge11" class="edge"><title>Node11&#45;&gt;Node12</title>
<path fill="none" stroke="midnightblue" d="M908,-55.1641C908,-46.1693 908,-36.2205 908,-28.5369"/>
<polygon fill="midnightblue" stroke="midnightblue" points="904.5,-55.4463 908,-65.4464 911.5,-55.4464 904.5,-55.4463"/>
</g>
<!-- Node14 -->
<g id="node14" class="node"><title>Node14</title>
<g id="a_node14"><a xlink:href="$AC__WPNav_8cpp.html" xlink:title="libraries/AC_WPNav\l/AC_WPNav.cpp">
<polygon fill="white" stroke="black" points="527.434,-0.5 527.434,-28.5 634.566,-28.5 634.566,-0.5 527.434,-0.5"/>
<text text-anchor="start" x="535.434" y="-16.5" font-family="Helvetica,sans-Serif" font-size="10.00">libraries/AC_WPNav</text>
<text text-anchor="middle" x="581" y="-6.5" font-family="Helvetica,sans-Serif" font-size="10.00">/AC_WPNav.cpp</text>
</a>
</g>
</g>
<!-- Node13&#45;&gt;Node14 -->
<g id="edge13" class="edge"><title>Node13&#45;&gt;Node14</title>
<path fill="none" stroke="midnightblue" d="M581,-55.1641C581,-46.1693 581,-36.2205 581,-28.5369"/>
<polygon fill="midnightblue" stroke="midnightblue" points="577.5,-55.4463 581,-65.4464 584.5,-55.4464 577.5,-55.4463"/>
</g>
<!-- Node17&#45;&gt;Node2 -->
<g id="edge20" class="edge"><title>Node17&#45;&gt;Node2</title>
<path fill="none" stroke="midnightblue" d="M275.417,-481.671C247.806,-475.125 218.944,-462.635 202,-439 168.309,-392.003 254.401,-350.47 266,-345 348.123,-306.269 583.263,-322.839 673,-309 676.002,-308.537 679.076,-308.014 682.172,-307.449"/>
<polygon fill="midnightblue" stroke="midnightblue" points="274.998,-485.161 285.508,-483.824 276.458,-478.315 274.998,-485.161"/>
</g>
<!-- Node17&#45;&gt;Node7 -->
<g id="edge19" class="edge"><title>Node17&#45;&gt;Node7</title>
<path fill="none" stroke="midnightblue" d="M275.013,-484.101C196.63,-478.105 78.4171,-464.996 42,-439 9.79469,-416.011 0,-400.069 0,-360.5 0,-360.5 0,-360.5 0,-293.5 0,-218.373 91.904,-177.341 152.037,-158.534"/>
<polygon fill="midnightblue" stroke="midnightblue" points="275.088,-487.616 285.319,-484.866 275.606,-480.635 275.088,-487.616"/>
</g>
<!-- Node18 -->
<g id="node18" class="node"><title>Node18</title>
<g id="a_node18"><a xlink:href="$AP__MotorsMatrix_8h.html" xlink:title="Motor control class for Matrixcopters. ">
<polygon fill="white" stroke="black" points="868.099,-410.5 868.099,-438.5 971.901,-438.5 971.901,-410.5 868.099,-410.5"/>
<text text-anchor="start" x="876.099" y="-426.5" font-family="Helvetica,sans-Serif" font-size="10.00">libraries/AP_Motors</text>
<text text-anchor="middle" x="920" y="-416.5" font-family="Helvetica,sans-Serif" font-size="10.00">/AP_MotorsMatrix.h</text>
</a>
</g>
</g>
<!-- Node17&#45;&gt;Node18 -->
<g id="edge21" class="edge"><title>Node17&#45;&gt;Node18</title>
<path fill="none" stroke="midnightblue" d="M420.525,-480.512C537.599,-467.618 765.443,-442.523 867.893,-431.239"/>
<polygon fill="midnightblue" stroke="midnightblue" points="420.133,-477.034 410.576,-481.608 420.899,-483.992 420.133,-477.034"/>
</g>
<!-- Node30 -->
<g id="node30" class="node"><title>Node30</title>
<g id="a_node30"><a xlink:href="$AP__MotorsTri_8h.html" xlink:title="Motor control class for Tricopters. ">
<polygon fill="white" stroke="black" points="487.375,-410.5 487.375,-438.5 590.625,-438.5 590.625,-410.5 487.375,-410.5"/>
<text text-anchor="start" x="495.375" y="-426.5" font-family="Helvetica,sans-Serif" font-size="10.00">libraries/AP_Motors</text>
<text text-anchor="middle" x="539" y="-416.5" font-family="Helvetica,sans-Serif" font-size="10.00">/AP_MotorsTri.h</text>
</a>
</g>
</g>
<!-- Node17&#45;&gt;Node30 -->
<g id="edge39" class="edge"><title>Node17&#45;&gt;Node30</title>
<path fill="none" stroke="midnightblue" d="M397.13,-472.295C428.927,-461.807 469.781,-448.331 499.475,-438.537"/>
<polygon fill="midnightblue" stroke="midnightblue" points="395.976,-468.99 387.575,-475.446 398.168,-475.638 395.976,-468.99"/>
</g>
<!-- Node32 -->
<g id="node32" class="node"><title>Node32</title>
<g id="a_node32"><a xlink:href="$AP__MotorsSingle_8h.html" xlink:title="Motor and Servo control class for Singlecopters. ">
<polygon fill="white" stroke="black" points="364.811,-410.5 364.811,-438.5 469.189,-438.5 469.189,-410.5 364.811,-410.5"/>
<text text-anchor="start" x="372.811" y="-426.5" font-family="Helvetica,sans-Serif" font-size="10.00">libraries/AP_Motors</text>
<text text-anchor="middle" x="417" y="-416.5" font-family="Helvetica,sans-Serif" font-size="10.00">/AP_MotorsSingle.h</text>
</a>
</g>
</g>
<!-- Node17&#45;&gt;Node32 -->
<g id="edge42" class="edge"><title>Node17&#45;&gt;Node32</title>
<path fill="none" stroke="midnightblue" d="M369.724,-468.665C380.493,-458.833 393.196,-447.234 402.721,-438.537"/>
<polygon fill="midnightblue" stroke="midnightblue" points="367.322,-466.119 362.297,-475.446 372.042,-471.288 367.322,-466.119"/>
</g>
<!-- Node34 -->
<g id="node34" class="node"><title>Node34</title>
<g id="a_node34"><a xlink:href="$AP__MotorsCoax_8h.html" xlink:title="Motor and Servo control class for Co&#45;axial helicopters with two motors and two flaps. ">
<polygon fill="white" stroke="black" points="51.3745,-410.5 51.3745,-438.5 154.625,-438.5 154.625,-410.5 51.3745,-410.5"/>
<text text-anchor="start" x="59.3745" y="-426.5" font-family="Helvetica,sans-Serif" font-size="10.00">libraries/AP_Motors</text>
<text text-anchor="middle" x="103" y="-416.5" font-family="Helvetica,sans-Serif" font-size="10.00">/AP_MotorsCoax.h</text>
</a>
</g>
</g>
<!-- Node17&#45;&gt;Node34 -->
<g id="edge45" class="edge"><title>Node17&#45;&gt;Node34</title>
<path fill="none" stroke="midnightblue" d="M287.34,-472.902C246.231,-462.331 192.528,-448.521 153.699,-438.537"/>
<polygon fill="midnightblue" stroke="midnightblue" points="286.679,-476.346 297.236,-475.446 288.423,-469.566 286.679,-476.346"/>
</g>
<!-- Node36 -->
<g id="node36" class="node"><title>Node36</title>
<g id="a_node36"><a xlink:href="$AP__MotorsMulticopter_8cpp.html" xlink:title="libraries/AP_Motors\l/AP_MotorsMulticopter.cpp">
<polygon fill="white" stroke="black" points="211.249,-410.5 211.249,-438.5 346.751,-438.5 346.751,-410.5 211.249,-410.5"/>
<text text-anchor="start" x="219.249" y="-426.5" font-family="Helvetica,sans-Serif" font-size="10.00">libraries/AP_Motors</text>
<text text-anchor="middle" x="279" y="-416.5" font-family="Helvetica,sans-Serif" font-size="10.00">/AP_MotorsMulticopter.cpp</text>
</a>
</g>
</g>
<!-- Node17&#45;&gt;Node36 -->
<g id="edge48" class="edge"><title>Node17&#45;&gt;Node36</title>
<path fill="none" stroke="midnightblue" d="M326.276,-468.665C315.507,-458.833 302.804,-447.234 293.279,-438.537"/>
<polygon fill="midnightblue" stroke="midnightblue" points="323.958,-471.288 333.703,-475.446 328.678,-466.119 323.958,-471.288"/>
</g>
<!-- Node18&#45;&gt;Node2 -->
<g id="edge22" class="edge"><title>Node18&#45;&gt;Node2</title>
<path fill="none" stroke="midnightblue" d="M859.352,-407.165C837.398,-399.394 813.286,-388.548 794,-374 770.035,-355.923 750.797,-325.877 741.022,-308.674"/>
<polygon fill="midnightblue" stroke="midnightblue" points="858.339,-410.517 868.933,-410.415 860.588,-403.888 858.339,-410.517"/>
</g>
<!-- Node19 -->
<g id="node19" class="node"><title>Node19</title>
<g id="a_node19"><a xlink:href="$AP__MotorsQuad_8h.html" xlink:title="Motor control class for Quadcopters. ">
<polygon fill="white" stroke="black" points="1197.37,-345.5 1197.37,-373.5 1300.63,-373.5 1300.63,-345.5 1197.37,-345.5"/>
<text text-anchor="start" x="1205.37" y="-361.5" font-family="Helvetica,sans-Serif" font-size="10.00">libraries/AP_Motors</text>
<text text-anchor="middle" x="1249" y="-351.5" font-family="Helvetica,sans-Serif" font-size="10.00">/AP_MotorsQuad.h</text>
</a>
</g>
</g>
<!-- Node18&#45;&gt;Node19 -->
<g id="edge23" class="edge"><title>Node18&#45;&gt;Node19</title>
<path fill="none" stroke="midnightblue" d="M982.157,-412.658C1036.55,-403.018 1117.65,-388.277 1188,-374 1190.98,-373.396 1194.03,-372.763 1197.11,-372.113"/>
<polygon fill="midnightblue" stroke="midnightblue" points="981.22,-409.27 971.982,-414.457 982.439,-416.163 981.22,-409.27"/>
</g>
<!-- Node21 -->
<g id="node21" class="node"><title>Node21</title>
<g id="a_node21"><a xlink:href="$AP__MotorsHexa_8h.html" xlink:title="Motor control class for Hexacopters. ">
<polygon fill="white" stroke="black" points="1318.37,-345.5 1318.37,-373.5 1421.63,-373.5 1421.63,-345.5 1318.37,-345.5"/>
<text text-anchor="start" x="1326.37" y="-361.5" font-family="Helvetica,sans-Serif" font-size="10.00">libraries/AP_Motors</text>
<text text-anchor="middle" x="1370" y="-351.5" font-family="Helvetica,sans-Serif" font-size="10.00">/AP_MotorsHexa.h</text>
</a>
</g>
</g>
<!-- Node18&#45;&gt;Node21 -->
<g id="edge26" class="edge"><title>Node18&#45;&gt;Node21</title>
<path fill="none" stroke="midnightblue" d="M981.998,-417.47C1059.16,-409.542 1194.84,-394.217 1310,-374 1312.73,-373.52 1315.53,-372.998 1318.35,-372.448"/>
<polygon fill="midnightblue" stroke="midnightblue" points="981.559,-413.996 971.966,-418.493 982.269,-420.96 981.559,-413.996"/>
</g>
<!-- Node23 -->
<g id="node23" class="node"><title>Node23</title>
<g id="a_node23"><a xlink:href="$AP__MotorsY6_8h.html" xlink:title="Motor control class for Y6 frames. ">
<polygon fill="white" stroke="black" points="803.375,-345.5 803.375,-373.5 906.625,-373.5 906.625,-345.5 803.375,-345.5"/>
<text text-anchor="start" x="811.375" y="-361.5" font-family="Helvetica,sans-Serif" font-size="10.00">libraries/AP_Motors</text>
<text text-anchor="middle" x="855" y="-351.5" font-family="Helvetica,sans-Serif" font-size="10.00">/AP_MotorsY6.h</text>
</a>
</g>
</g>
<!-- Node18&#45;&gt;Node23 -->
<g id="edge29" class="edge"><title>Node18&#45;&gt;Node23</title>
<path fill="none" stroke="midnightblue" d="M899.24,-403.379C889.159,-393.608 877.337,-382.149 868.451,-373.537"/>
<polygon fill="midnightblue" stroke="midnightblue" points="896.915,-406 906.532,-410.446 901.787,-400.973 896.915,-406"/>
</g>
<!-- Node25 -->
<g id="node25" class="node"><title>Node25</title>
<g id="a_node25"><a xlink:href="$AP__MotorsOcta_8h.html" xlink:title="Motor control class for Octacopters. ">
<polygon fill="white" stroke="black" points="643.375,-345.5 643.375,-373.5 746.625,-373.5 746.625,-345.5 643.375,-345.5"/>
<text text-anchor="start" x="651.375" y="-361.5" font-family="Helvetica,sans-Serif" font-size="10.00">libraries/AP_Motors</text>
<text text-anchor="middle" x="695" y="-351.5" font-family="Helvetica,sans-Serif" font-size="10.00">/AP_MotorsOcta.h</text>
</a>
</g>
</g>
<!-- Node18&#45;&gt;Node25 -->
<g id="edge32" class="edge"><title>Node18&#45;&gt;Node25</title>
<path fill="none" stroke="midnightblue" d="M863.572,-407.7C825.913,-397.156 776.993,-383.458 741.56,-373.537"/>
<polygon fill="midnightblue" stroke="midnightblue" points="862.806,-411.12 873.38,-410.446 864.694,-404.38 862.806,-411.12"/>
</g>
<!-- Node27 -->
<g id="node27" class="node"><title>Node27</title>
<g id="a_node27"><a xlink:href="$AP__MotorsOctaQuad_8h.html" xlink:title="Motor control class for OctaQuadcopters. ">
<polygon fill="white" stroke="black" points="924.919,-345.5 924.919,-373.5 1047.08,-373.5 1047.08,-345.5 924.919,-345.5"/>
<text text-anchor="start" x="932.919" y="-361.5" font-family="Helvetica,sans-Serif" font-size="10.00">libraries/AP_Motors</text>
<text text-anchor="middle" x="986" y="-351.5" font-family="Helvetica,sans-Serif" font-size="10.00">/AP_MotorsOctaQuad.h</text>
</a>
</g>
</g>
<!-- Node18&#45;&gt;Node27 -->
<g id="edge35" class="edge"><title>Node18&#45;&gt;Node27</title>
<path fill="none" stroke="midnightblue" d="M941.08,-403.379C951.316,-393.608 963.32,-382.149 972.342,-373.537"/>
<polygon fill="midnightblue" stroke="midnightblue" points="938.492,-401.01 933.675,-410.446 943.326,-406.073 938.492,-401.01"/>
</g>
<!-- Node29 -->
<g id="node29" class="node"><title>Node29</title>
<g id="a_node29"><a xlink:href="$AP__MotorsMatrix_8cpp.html" xlink:title="libraries/AP_Motors\l/AP_MotorsMatrix.cpp">
<polygon fill="white" stroke="black" points="1064.82,-345.5 1064.82,-373.5 1179.18,-373.5 1179.18,-345.5 1064.82,-345.5"/>
<text text-anchor="start" x="1072.82" y="-361.5" font-family="Helvetica,sans-Serif" font-size="10.00">libraries/AP_Motors</text>
<text text-anchor="middle" x="1122" y="-351.5" font-family="Helvetica,sans-Serif" font-size="10.00">/AP_MotorsMatrix.cpp</text>
</a>
</g>
</g>
<!-- Node18&#45;&gt;Node29 -->
<g id="edge38" class="edge"><title>Node18&#45;&gt;Node29</title>
<path fill="none" stroke="midnightblue" d="M971.525,-407.43C1005.22,-396.923 1048.66,-383.374 1080.2,-373.537"/>
<polygon fill="midnightblue" stroke="midnightblue" points="970.359,-404.128 961.855,-410.446 972.443,-410.81 970.359,-404.128"/>
</g>
<!-- Node19&#45;&gt;Node2 -->
<g id="edge24" class="edge"><title>Node19&#45;&gt;Node2</title>
<path fill="none" stroke="midnightblue" d="M1187.13,-345.016C1012.48,-318.615 964.476,-335.85 794,-309 791.258,-308.568 788.454,-308.085 785.629,-307.565"/>
<polygon fill="midnightblue" stroke="midnightblue" points="1186.75,-348.5 1197.17,-346.561 1187.82,-341.581 1186.75,-348.5"/>
</g>
<!-- Node20 -->
<g id="node20" class="node"><title>Node20</title>
<g id="a_node20"><a xlink:href="$AP__MotorsQuad_8cpp.html" xlink:title="libraries/AP_Motors\l/AP_MotorsQuad.cpp">
<polygon fill="white" stroke="black" points="1189.2,-280.5 1189.2,-308.5 1300.8,-308.5 1300.8,-280.5 1189.2,-280.5"/>
<text text-anchor="start" x="1197.2" y="-296.5" font-family="Helvetica,sans-Serif" font-size="10.00">libraries/AP_Motors</text>
<text text-anchor="middle" x="1245" y="-286.5" font-family="Helvetica,sans-Serif" font-size="10.00">/AP_MotorsQuad.cpp</text>
</a>
</g>
</g>
<!-- Node19&#45;&gt;Node20 -->
<g id="edge25" class="edge"><title>Node19&#45;&gt;Node20</title>
<path fill="none" stroke="midnightblue" d="M1247.54,-335.46C1246.96,-326.388 1246.32,-316.305 1245.83,-308.537"/>
<polygon fill="midnightblue" stroke="midnightblue" points="1244.04,-335.688 1248.17,-345.446 1251.03,-335.245 1244.04,-335.688"/>
</g>
<!-- Node21&#45;&gt;Node2 -->
<g id="edge27" class="edge"><title>Node21&#45;&gt;Node2</title>
<path fill="none" stroke="midnightblue" d="M1308.16,-344.874C1080.77,-312.528 1018.24,-341.856 794,-309 791.359,-308.613 788.661,-308.173 785.944,-307.694"/>
<polygon fill="midnightblue" stroke="midnightblue" points="1307.66,-348.338 1318.06,-346.306 1308.66,-341.411 1307.66,-348.338"/>
</g>
<!-- Node22 -->
<g id="node22" class="node"><title>Node22</title>
<g id="a_node22"><a xlink:href="$AP__MotorsHexa_8cpp.html" xlink:title="libraries/AP_Motors\l/AP_MotorsHexa.cpp">
<polygon fill="white" stroke="black" points="1318.76,-280.5 1318.76,-308.5 1429.24,-308.5 1429.24,-280.5 1318.76,-280.5"/>
<text text-anchor="start" x="1326.76" y="-296.5" font-family="Helvetica,sans-Serif" font-size="10.00">libraries/AP_Motors</text>
<text text-anchor="middle" x="1374" y="-286.5" font-family="Helvetica,sans-Serif" font-size="10.00">/AP_MotorsHexa.cpp</text>
</a>
</g>
</g>
<!-- Node21&#45;&gt;Node22 -->
<g id="edge28" class="edge"><title>Node21&#45;&gt;Node22</title>
<path fill="none" stroke="midnightblue" d="M1371.46,-335.46C1372.04,-326.388 1372.68,-316.305 1373.17,-308.537"/>
<polygon fill="midnightblue" stroke="midnightblue" points="1367.97,-335.245 1370.83,-345.446 1374.96,-335.688 1367.97,-335.245"/>
</g>
<!-- Node23&#45;&gt;Node2 -->
<g id="edge30" class="edge"><title>Node23&#45;&gt;Node2</title>
<path fill="none" stroke="midnightblue" d="M820.973,-340.783C801.293,-330.537 776.959,-317.867 759.039,-308.537"/>
<polygon fill="midnightblue" stroke="midnightblue" points="819.443,-343.933 829.929,-345.446 822.675,-337.724 819.443,-343.933"/>
</g>
<!-- Node24 -->
<g id="node24" class="node"><title>Node24</title>
<g id="a_node24"><a xlink:href="$AP__MotorsY6_8cpp.html" xlink:title="libraries/AP_Motors\l/AP_MotorsY6.cpp">
<polygon fill="white" stroke="black" points="803.375,-280.5 803.375,-308.5 906.625,-308.5 906.625,-280.5 803.375,-280.5"/>
<text text-anchor="start" x="811.375" y="-296.5" font-family="Helvetica,sans-Serif" font-size="10.00">libraries/AP_Motors</text>
<text text-anchor="middle" x="855" y="-286.5" font-family="Helvetica,sans-Serif" font-size="10.00">/AP_MotorsY6.cpp</text>
</a>
</g>
</g>
<!-- Node23&#45;&gt;Node24 -->
<g id="edge31" class="edge"><title>Node23&#45;&gt;Node24</title>
<path fill="none" stroke="midnightblue" d="M855,-335.164C855,-326.169 855,-316.221 855,-308.537"/>
<polygon fill="midnightblue" stroke="midnightblue" points="851.5,-335.446 855,-345.446 858.5,-335.446 851.5,-335.446"/>
</g>
<!-- Node25&#45;&gt;Node2 -->
<g id="edge33" class="edge"><title>Node25&#45;&gt;Node2</title>
<path fill="none" stroke="midnightblue" d="M708.353,-336.93C714.196,-327.491 720.859,-316.727 725.93,-308.537"/>
<polygon fill="midnightblue" stroke="midnightblue" points="705.368,-335.101 703.081,-345.446 711.32,-338.786 705.368,-335.101"/>
</g>
<!-- Node26 -->
<g id="node26" class="node"><title>Node26</title>
<g id="a_node26"><a xlink:href="$AP__MotorsOcta_8cpp.html" xlink:title="libraries/AP_Motors\l/AP_MotorsOcta.cpp">
<polygon fill="white" stroke="black" points="555.87,-280.5 555.87,-308.5 664.13,-308.5 664.13,-280.5 555.87,-280.5"/>
<text text-anchor="start" x="563.87" y="-296.5" font-family="Helvetica,sans-Serif" font-size="10.00">libraries/AP_Motors</text>
<text text-anchor="middle" x="610" y="-286.5" font-family="Helvetica,sans-Serif" font-size="10.00">/AP_MotorsOcta.cpp</text>
</a>
</g>
</g>
<!-- Node25&#45;&gt;Node26 -->
<g id="edge34" class="edge"><title>Node25&#45;&gt;Node26</title>
<path fill="none" stroke="midnightblue" d="M669.009,-339.236C655.582,-329.284 639.551,-317.403 627.589,-308.537"/>
<polygon fill="midnightblue" stroke="midnightblue" points="667.27,-342.304 677.388,-345.446 671.438,-336.68 667.27,-342.304"/>
</g>
<!-- Node27&#45;&gt;Node2 -->
<g id="edge36" class="edge"><title>Node27&#45;&gt;Node2</title>
<path fill="none" stroke="midnightblue" d="M923.84,-342.96C881.375,-332.344 825.76,-318.44 785.716,-308.429"/>
<polygon fill="midnightblue" stroke="midnightblue" points="923.235,-346.416 933.785,-345.446 924.933,-339.625 923.235,-346.416"/>
</g>
<!-- Node28 -->
<g id="node28" class="node"><title>Node28</title>
<g id="a_node28"><a xlink:href="$AP__MotorsOctaQuad_8cpp.html" xlink:title="libraries/AP_Motors\l/AP_MotorsOctaQuad.cpp">
<polygon fill="white" stroke="black" points="924.638,-280.5 924.638,-308.5 1057.36,-308.5 1057.36,-280.5 924.638,-280.5"/>
<text text-anchor="start" x="932.638" y="-296.5" font-family="Helvetica,sans-Serif" font-size="10.00">libraries/AP_Motors</text>
<text text-anchor="middle" x="991" y="-286.5" font-family="Helvetica,sans-Serif" font-size="10.00">/AP_MotorsOctaQuad.cpp</text>
</a>
</g>
</g>
<!-- Node27&#45;&gt;Node28 -->
<g id="edge37" class="edge"><title>Node27&#45;&gt;Node28</title>
<path fill="none" stroke="midnightblue" d="M987.829,-335.46C988.549,-326.388 989.349,-316.305 989.965,-308.537"/>
<polygon fill="midnightblue" stroke="midnightblue" points="984.338,-335.201 987.036,-345.446 991.316,-335.755 984.338,-335.201"/>
</g>
<!-- Node30&#45;&gt;Node2 -->
<g id="edge40" class="edge"><title>Node30&#45;&gt;Node2</title>
<path fill="none" stroke="midnightblue" d="M551.776,-401.33C562.827,-383.89 580.269,-360.093 601,-345 625.101,-327.454 656.132,-315.436 682.157,-307.64"/>
<polygon fill="midnightblue" stroke="midnightblue" points="548.541,-399.911 546.314,-410.269 554.515,-403.561 548.541,-399.911"/>
</g>
<!-- Node31 -->
<g id="node31" class="node"><title>Node31</title>
<g id="a_node31"><a xlink:href="$AP__MotorsTri_8cpp.html" xlink:title="libraries/AP_Motors\l/AP_MotorsTri.cpp">
<polygon fill="white" stroke="black" points="445.375,-345.5 445.375,-373.5 548.625,-373.5 548.625,-345.5 445.375,-345.5"/>
<text text-anchor="start" x="453.375" y="-361.5" font-family="Helvetica,sans-Serif" font-size="10.00">libraries/AP_Motors</text>
<text text-anchor="middle" x="497" y="-351.5" font-family="Helvetica,sans-Serif" font-size="10.00">/AP_MotorsTri.cpp</text>
</a>
</g>
</g>
<!-- Node30&#45;&gt;Node31 -->
<g id="edge41" class="edge"><title>Node30&#45;&gt;Node31</title>
<path fill="none" stroke="midnightblue" d="M524.62,-401.93C518.327,-392.491 511.151,-381.727 505.691,-373.537"/>
<polygon fill="midnightblue" stroke="midnightblue" points="521.838,-404.067 530.298,-410.446 527.663,-400.184 521.838,-404.067"/>
</g>
<!-- Node32&#45;&gt;Node2 -->
<g id="edge43" class="edge"><title>Node32&#45;&gt;Node2</title>
<path fill="none" stroke="midnightblue" d="M416.143,-400.348C416.82,-382.609 420.85,-358.89 436,-345 475.266,-309 620.631,-318.761 673,-309 675.986,-308.444 679.048,-307.847 682.134,-307.227"/>
<polygon fill="midnightblue" stroke="midnightblue" points="412.642,-400.459 416.085,-410.479 419.642,-400.499 412.642,-400.459"/>
</g>
<!-- Node33 -->
<g id="node33" class="node"><title>Node33</title>
<g id="a_node33"><a xlink:href="$AP__MotorsSingle_8cpp.html" xlink:title="libraries/AP_Motors\l/AP_MotorsSingle.cpp">
<polygon fill="white" stroke="black" points="274.53,-345.5 274.53,-373.5 389.47,-373.5 389.47,-345.5 274.53,-345.5"/>
<text text-anchor="start" x="282.53" y="-361.5" font-family="Helvetica,sans-Serif" font-size="10.00">libraries/AP_Motors</text>
<text text-anchor="middle" x="332" y="-351.5" font-family="Helvetica,sans-Serif" font-size="10.00">/AP_MotorsSingle.cpp</text>
</a>
</g>
</g>
<!-- Node32&#45;&gt;Node33 -->
<g id="edge44" class="edge"><title>Node32&#45;&gt;Node33</title>
<path fill="none" stroke="midnightblue" d="M391.009,-404.236C377.582,-394.284 361.551,-382.403 349.589,-373.537"/>
<polygon fill="midnightblue" stroke="midnightblue" points="389.27,-407.304 399.388,-410.446 393.438,-401.68 389.27,-407.304"/>
</g>
<!-- Node34&#45;&gt;Node2 -->
<g id="edge46" class="edge"><title>Node34&#45;&gt;Node2</title>
<path fill="none" stroke="midnightblue" d="M122.402,-403.207C142.978,-382.216 174.591,-351.592 190,-345 288.956,-302.667 566.516,-324.669 673,-309 676.005,-308.558 679.082,-308.051 682.18,-307.499"/>
<polygon fill="midnightblue" stroke="midnightblue" points="119.83,-400.832 115.372,-410.443 124.851,-405.71 119.83,-400.832"/>
</g>
<!-- Node35 -->
<g id="node35" class="node"><title>Node35</title>
<g id="a_node35"><a xlink:href="$AP__MotorsCoax_8cpp.html" xlink:title="libraries/AP_Motors\l/AP_MotorsCoax.cpp">
<polygon fill="white" stroke="black" points="27.7563,-345.5 27.7563,-373.5 138.244,-373.5 138.244,-345.5 27.7563,-345.5"/>
<text text-anchor="start" x="35.7563" y="-361.5" font-family="Helvetica,sans-Serif" font-size="10.00">libraries/AP_Motors</text>
<text text-anchor="middle" x="83" y="-351.5" font-family="Helvetica,sans-Serif" font-size="10.00">/AP_MotorsCoax.cpp</text>
</a>
</g>
</g>
<!-- Node34&#45;&gt;Node35 -->
<g id="edge47" class="edge"><title>Node34&#45;&gt;Node35</title>
<path fill="none" stroke="midnightblue" d="M95.7796,-400.756C92.8755,-391.608 89.6316,-381.389 87.1387,-373.537"/>
<polygon fill="midnightblue" stroke="midnightblue" points="92.4942,-401.974 98.856,-410.446 99.1661,-399.856 92.4942,-401.974"/>
</g>
<!-- Node37&#45;&gt;Node5 -->
<g id="edge50" class="edge"><title>Node37&#45;&gt;Node5</title>
<path fill="none" stroke="midnightblue" d="M1620.85,-417.73C1649.57,-411.594 1681.23,-399.137 1699,-374 1723.12,-339.888 1722.45,-314.574 1699,-280 1639.08,-191.671 1510.97,-161.348 1430.82,-150.939"/>
<polygon fill="midnightblue" stroke="midnightblue" points="1620,-414.329 1610.84,-419.648 1621.32,-421.204 1620,-414.329"/>
</g>
<!-- Node38 -->
<g id="node38" class="node"><title>Node38</title>
<g id="a_node38"><a xlink:href="$AP__MotorsHeli__Single_8h.html" xlink:title="Motor control class for traditional heli. ">
<polygon fill="white" stroke="black" points="1562.42,-345.5 1562.42,-373.5 1689.58,-373.5 1689.58,-345.5 1562.42,-345.5"/>
<text text-anchor="start" x="1570.42" y="-361.5" font-family="Helvetica,sans-Serif" font-size="10.00">libraries/AP_Motors</text>
<text text-anchor="middle" x="1626" y="-351.5" font-family="Helvetica,sans-Serif" font-size="10.00">/AP_MotorsHeli_Single.h</text>
</a>
</g>
</g>
<!-- Node37&#45;&gt;Node38 -->
<g id="edge51" class="edge"><title>Node37&#45;&gt;Node38</title>
<path fill="none" stroke="midnightblue" d="M1580.4,-403.379C1590.79,-393.608 1602.98,-382.149 1612.14,-373.537"/>
<polygon fill="midnightblue" stroke="midnightblue" points="1577.77,-401.046 1572.88,-410.446 1582.57,-406.146 1577.77,-401.046"/>
</g>
<!-- Node40 -->
<g id="node40" class="node"><title>Node40</title>
<g id="a_node40"><a xlink:href="$AP__MotorsHeli_8cpp.html" xlink:title="libraries/AP_Motors\l/AP_MotorsHeli.cpp">
<polygon fill="white" stroke="black" points="1439.82,-345.5 1439.82,-373.5 1544.18,-373.5 1544.18,-345.5 1439.82,-345.5"/>
<text text-anchor="start" x="1447.82" y="-361.5" font-family="Helvetica,sans-Serif" font-size="10.00">libraries/AP_Motors</text>
<text text-anchor="middle" x="1492" y="-351.5" font-family="Helvetica,sans-Serif" font-size="10.00">/AP_MotorsHeli.cpp</text>
</a>
</g>
</g>
<!-- Node37&#45;&gt;Node40 -->
<g id="edge54" class="edge"><title>Node37&#45;&gt;Node40</title>
<path fill="none" stroke="midnightblue" d="M1537.6,-403.379C1527.21,-393.608 1515.02,-382.149 1505.86,-373.537"/>
<polygon fill="midnightblue" stroke="midnightblue" points="1535.43,-406.146 1545.12,-410.446 1540.23,-401.046 1535.43,-406.146"/>
</g>
<!-- Node38&#45;&gt;Node2 -->
<g id="edge52" class="edge"><title>Node38&#45;&gt;Node2</title>
<path fill="none" stroke="midnightblue" d="M1552.35,-345.062C1215.76,-307.134 1125.4,-353.795 794,-309 791.355,-308.642 788.654,-308.226 785.934,-307.766"/>
<polygon fill="midnightblue" stroke="midnightblue" points="1552.04,-348.55 1562.38,-346.209 1552.84,-341.596 1552.04,-348.55"/>
</g>
<!-- Node39 -->
<g id="node39" class="node"><title>Node39</title>
<g id="a_node39"><a xlink:href="$AP__MotorsHeli__Single_8cpp.html" xlink:title="libraries/AP_Motors\l/AP_MotorsHeli_Single.cpp">
<polygon fill="white" stroke="black" points="1552.14,-280.5 1552.14,-308.5 1689.86,-308.5 1689.86,-280.5 1552.14,-280.5"/>
<text text-anchor="start" x="1560.14" y="-296.5" font-family="Helvetica,sans-Serif" font-size="10.00">libraries/AP_Motors</text>
<text text-anchor="middle" x="1621" y="-286.5" font-family="Helvetica,sans-Serif" font-size="10.00">/AP_MotorsHeli_Single.cpp</text>
</a>
</g>
</g>
<!-- Node38&#45;&gt;Node39 -->
<g id="edge53" class="edge"><title>Node38&#45;&gt;Node39</title>
<path fill="none" stroke="midnightblue" d="M1624.17,-335.46C1623.45,-326.388 1622.65,-316.305 1622.03,-308.537"/>
<polygon fill="midnightblue" stroke="midnightblue" points="1620.68,-335.755 1624.96,-345.446 1627.66,-335.201 1620.68,-335.755"/>
</g>
</g>
</svg>
