<?xml version="1.0" encoding="UTF-8" standalone="no"?>
<!DOCTYPE svg PUBLIC "-//W3C//DTD SVG 1.1//EN"
 "http://www.w3.org/Graphics/SVG/1.1/DTD/svg11.dtd">
<!-- Generated by graphviz version 2.38.0 (20140413.2041)
 -->
<!-- Title: libraries/AP_HAL/AP_HAL_Namespace.h Pages: 1 -->
<svg width="154pt" height="92pt"
 viewBox="0.00 0.00 154.36 92.00" xmlns="http://www.w3.org/2000/svg" xmlns:xlink="http://www.w3.org/1999/xlink">
<g id="graph0" class="graph" transform="scale(1 1) rotate(0) translate(4 88)">
<title>libraries/AP_HAL/AP_HAL_Namespace.h</title>
<polygon fill="white" stroke="none" points="-4,4 -4,-88 150.359,-88 150.359,4 -4,4"/>
<!-- Node1 -->
<g id="node1" class="node"><title>Node1</title>
<polygon fill="#bfbfbf" stroke="black" points="11.2588,-55.5 11.2588,-83.5 119.534,-83.5 119.534,-55.5 11.2588,-55.5"/>
<text text-anchor="start" x="19.2588" y="-71.5" font-family="Helvetica,sans-Serif" font-size="10.00">libraries/AP_HAL/AP</text>
<text text-anchor="middle" x="65.3965" y="-61.5" font-family="Helvetica,sans-Serif" font-size="10.00">_HAL_Namespace.h</text>
</g>
<!-- Node2 -->
<g id="node2" class="node"><title>Node2</title>
<polygon fill="white" stroke="#bfbfbf" points="0,-0.5 0,-18.5 48.793,-18.5 48.793,-0.5 0,-0.5"/>
<text text-anchor="middle" x="24.3965" y="-6.5" font-family="Helvetica,sans-Serif" font-size="10.00">string.h</text>
</g>
<!-- Node1&#45;&gt;Node2 -->
<g id="edge1" class="edge"><title>Node1&#45;&gt;Node2</title>
<path fill="none" stroke="midnightblue" d="M56.0929,-55.3389C50.2011,-47.0041 42.5294,-36.1514 36.2092,-27.2107"/>
<polygon fill="midnightblue" stroke="midnightblue" points="38.874,-24.9169 30.2436,-18.7715 33.1579,-28.9576 38.874,-24.9169"/>
</g>
<!-- Node3 -->
<g id="node3" class="node"><title>Node3</title>
<g id="a_node3"><a xlink:href="$functor_8h.html" xlink:title="utility/functor.h">
<polygon fill="white" stroke="black" points="66.4336,-0.5 66.4336,-18.5 146.359,-18.5 146.359,-0.5 66.4336,-0.5"/>
<text text-anchor="middle" x="106.396" y="-6.5" font-family="Helvetica,sans-Serif" font-size="10.00">utility/functor.h</text>
</a>
</g>
</g>
<!-- Node1&#45;&gt;Node3 -->
<g id="edge2" class="edge"><title>Node1&#45;&gt;Node3</title>
<path fill="none" stroke="midnightblue" d="M74.7,-55.3389C80.5919,-47.0041 88.2636,-36.1514 94.5837,-27.2107"/>
<polygon fill="midnightblue" stroke="midnightblue" points="97.635,-28.9576 100.549,-18.7715 91.919,-24.9169 97.635,-28.9576"/>
</g>
</g>
</svg>
