<?xml version="1.0" encoding="UTF-8" standalone="no"?>
<!DOCTYPE svg PUBLIC "-//W3C//DTD SVG 1.1//EN"
 "http://www.w3.org/Graphics/SVG/1.1/DTD/svg11.dtd">
<!-- Generated by graphviz version 2.38.0 (20140413.2041)
 -->
<!-- Title: libraries/AP_Mount/AP_Mount_Servo.h Pages: 1 -->
<svg width="242pt" height="102pt"
 viewBox="0.00 0.00 242.27 102.00" xmlns="http://www.w3.org/2000/svg" xmlns:xlink="http://www.w3.org/1999/xlink">
<g id="graph0" class="graph" transform="scale(1 1) rotate(0) translate(4 98)">
<title>libraries/AP_Mount/AP_Mount_Servo.h</title>
<polygon fill="white" stroke="none" points="-4,4 -4,-98 238.271,-98 238.271,4 -4,4"/>
<!-- Node1 -->
<g id="node1" class="node"><title>Node1</title>
<polygon fill="#bfbfbf" stroke="black" points="60.4927,-65.5 60.4927,-93.5 165.99,-93.5 165.99,-65.5 60.4927,-65.5"/>
<text text-anchor="start" x="68.4927" y="-81.5" font-family="Helvetica,sans-Serif" font-size="10.00">libraries/AP_Mount</text>
<text text-anchor="middle" x="113.241" y="-71.5" font-family="Helvetica,sans-Serif" font-size="10.00">/AP_Mount_Servo.h</text>
</g>
<!-- Node2 -->
<g id="node2" class="node"><title>Node2</title>
<g id="a_node2"><a xlink:href="$AP__Mount_8cpp.html" xlink:title="libraries/AP_Mount\l/AP_Mount.cpp">
<polygon fill="white" stroke="black" points="0,-0.5 0,-28.5 100.482,-28.5 100.482,-0.5 0,-0.5"/>
<text text-anchor="start" x="8" y="-16.5" font-family="Helvetica,sans-Serif" font-size="10.00">libraries/AP_Mount</text>
<text text-anchor="middle" x="50.2412" y="-6.5" font-family="Helvetica,sans-Serif" font-size="10.00">/AP_Mount.cpp</text>
</a>
</g>
</g>
<!-- Node1&#45;&gt;Node2 -->
<g id="edge1" class="edge"><title>Node1&#45;&gt;Node2</title>
<path fill="none" stroke="midnightblue" d="M92.8319,-58.0906C83.1244,-48.3832 71.8061,-37.0649 63.2781,-28.5369"/>
<polygon fill="midnightblue" stroke="midnightblue" points="90.6416,-60.8501 100.188,-65.4464 95.5914,-55.9004 90.6416,-60.8501"/>
</g>
<!-- Node3 -->
<g id="node3" class="node"><title>Node3</title>
<g id="a_node3"><a xlink:href="$AP__Mount__Servo_8cpp.html" xlink:title="libraries/AP_Mount\l/AP_Mount_Servo.cpp">
<polygon fill="white" stroke="black" points="118.212,-0.5 118.212,-28.5 234.271,-28.5 234.271,-0.5 118.212,-0.5"/>
<text text-anchor="start" x="126.212" y="-16.5" font-family="Helvetica,sans-Serif" font-size="10.00">libraries/AP_Mount</text>
<text text-anchor="middle" x="176.241" y="-6.5" font-family="Helvetica,sans-Serif" font-size="10.00">/AP_Mount_Servo.cpp</text>
</a>
</g>
</g>
<!-- Node1&#45;&gt;Node3 -->
<g id="edge2" class="edge"><title>Node1&#45;&gt;Node3</title>
<path fill="none" stroke="midnightblue" d="M133.651,-58.0906C143.358,-48.3832 154.676,-37.0649 163.204,-28.5369"/>
<polygon fill="midnightblue" stroke="midnightblue" points="130.891,-55.9004 126.295,-65.4464 135.841,-60.8501 130.891,-55.9004"/>
</g>
</g>
</svg>
