<?xml version="1.0" encoding="UTF-8" standalone="no"?>
<!DOCTYPE svg PUBLIC "-//W3C//DTD SVG 1.1//EN"
 "http://www.w3.org/Graphics/SVG/1.1/DTD/svg11.dtd">
<!-- Generated by graphviz version 2.38.0 (20140413.2041)
 -->
<!-- Title: degrees Pages: 1 -->
<svg width="990pt" height="799pt"
 viewBox="0.00 0.00 990.49 799.00" xmlns="http://www.w3.org/2000/svg" xmlns:xlink="http://www.w3.org/1999/xlink">
<g id="graph0" class="graph" transform="scale(1 1) rotate(0) translate(4 795)">
<title>degrees</title>
<polygon fill="white" stroke="none" points="-4,4 -4,-795 986.489,-795 986.489,4 -4,4"/>
<!-- Node1 -->
<g id="node1" class="node"><title>Node1</title>
<polygon fill="#bfbfbf" stroke="black" points="0,-471.5 0,-489.5 52.1377,-489.5 52.1377,-471.5 0,-471.5"/>
<text text-anchor="middle" x="26.0688" y="-477.5" font-family="Helvetica,sans-Serif" font-size="10.00">degrees</text>
</g>
<!-- Node2 -->
<g id="node2" class="node"><title>Node2</title>
<g id="a_node2"><a xlink:href="$classAP__InertialSensor.html#ad85a0f7284984ab4bc7b6309ec61003f" xlink:title="AP_InertialSensor::\l_calculate_trim">
<polygon fill="white" stroke="black" points="105.091,-715.5 105.091,-743.5 207.248,-743.5 207.248,-715.5 105.091,-715.5"/>
<text text-anchor="start" x="113.091" y="-731.5" font-family="Helvetica,sans-Serif" font-size="10.00">AP_InertialSensor::</text>
<text text-anchor="middle" x="156.169" y="-721.5" font-family="Helvetica,sans-Serif" font-size="10.00">_calculate_trim</text>
</a>
</g>
</g>
<!-- Node1&#45;&gt;Node2 -->
<g id="edge1" class="edge"><title>Node1&#45;&gt;Node2</title>
<path fill="none" stroke="midnightblue" d="M26.7553,-499.617C27.1034,-542.054 33.8635,-645.059 88.1377,-704.5 92.8276,-709.636 98.6733,-713.722 104.945,-716.971"/>
<polygon fill="midnightblue" stroke="midnightblue" points="30.2554,-499.564 26.7896,-489.552 23.2554,-499.54 30.2554,-499.564"/>
</g>
<!-- Node7 -->
<g id="node7" class="node"><title>Node7</title>
<g id="a_node7"><a xlink:href="$classAP__TECS.html#a7854ecaf0d95d9da406568583f6e287f" xlink:title="AP_TECS::_update_pitch">
<polygon fill="white" stroke="black" points="91.1895,-676.5 91.1895,-694.5 221.149,-694.5 221.149,-676.5 91.1895,-676.5"/>
<text text-anchor="middle" x="156.169" y="-682.5" font-family="Helvetica,sans-Serif" font-size="10.00">AP_TECS::_update_pitch</text>
</a>
</g>
</g>
<!-- Node1&#45;&gt;Node7 -->
<g id="edge6" class="edge"><title>Node1&#45;&gt;Node7</title>
<path fill="none" stroke="midnightblue" d="M27.6211,-500.108C29.7839,-538.084 40.071,-621.93 88.1377,-667.5 91.9853,-671.148 96.4904,-674.073 101.313,-676.417"/>
<polygon fill="midnightblue" stroke="midnightblue" points="31.108,-499.727 27.1779,-489.888 24.1146,-500.03 31.108,-499.727"/>
</g>
<!-- Node9 -->
<g id="node9" class="node"><title>Node9</title>
<g id="a_node9"><a xlink:href="$classSITL_1_1JSBSim.html#aec306c89391f76a14577d56aaa71770c" xlink:title="SITL::JSBSim::create\l_templates">
<polygon fill="white" stroke="black" points="100.376,-424.5 100.376,-452.5 211.962,-452.5 211.962,-424.5 100.376,-424.5"/>
<text text-anchor="start" x="108.376" y="-440.5" font-family="Helvetica,sans-Serif" font-size="10.00">SITL::JSBSim::create</text>
<text text-anchor="middle" x="156.169" y="-430.5" font-family="Helvetica,sans-Serif" font-size="10.00">_templates</text>
</a>
</g>
</g>
<!-- Node1&#45;&gt;Node9 -->
<g id="edge8" class="edge"><title>Node1&#45;&gt;Node9</title>
<path fill="none" stroke="midnightblue" d="M62.0922,-469.017C77.5838,-463.938 95.9486,-457.917 112.255,-452.57"/>
<polygon fill="midnightblue" stroke="midnightblue" points="60.7893,-465.761 52.3774,-472.202 62.9702,-472.412 60.7893,-465.761"/>
</g>
<!-- Node11 -->
<g id="node11" class="node"><title>Node11</title>
<g id="a_node11"><a xlink:href="$classSITL_1_1Aircraft.html#a1d22719359cd767ab516b9f7ff30b278" xlink:title="SITL::Aircraft::fill_fdm">
<polygon fill="white" stroke="black" points="100.381,-602.5 100.381,-620.5 211.958,-620.5 211.958,-602.5 100.381,-602.5"/>
<text text-anchor="middle" x="156.169" y="-608.5" font-family="Helvetica,sans-Serif" font-size="10.00">SITL::Aircraft::fill_fdm</text>
</a>
</g>
</g>
<!-- Node1&#45;&gt;Node11 -->
<g id="edge10" class="edge"><title>Node1&#45;&gt;Node11</title>
<path fill="none" stroke="midnightblue" d="M32.2171,-499.596C40.0362,-524.899 57.3532,-569.169 88.1377,-593.5 92.7699,-597.161 98.0847,-600.08 103.651,-602.407"/>
<polygon fill="midnightblue" stroke="midnightblue" points="35.504,-498.363 29.3569,-489.734 28.7811,-500.313 35.504,-498.363"/>
</g>
<!-- Node12 -->
<g id="node12" class="node"><title>Node12</title>
<g id="a_node12"><a xlink:href="$classDataFlash__Class.html#ad81bca014959c6b0a6714ea0d83c409f" xlink:title="DataFlash_Class::Log\l_Write_AHRS2">
<polygon fill="white" stroke="black" points="98.9775,-555.5 98.9775,-583.5 213.361,-583.5 213.361,-555.5 98.9775,-555.5"/>
<text text-anchor="start" x="106.978" y="-571.5" font-family="Helvetica,sans-Serif" font-size="10.00">DataFlash_Class::Log</text>
<text text-anchor="middle" x="156.169" y="-561.5" font-family="Helvetica,sans-Serif" font-size="10.00">_Write_AHRS2</text>
</a>
</g>
</g>
<!-- Node1&#45;&gt;Node12 -->
<g id="edge11" class="edge"><title>Node1&#45;&gt;Node12</title>
<path fill="none" stroke="midnightblue" d="M39.1894,-497.806C50.3663,-512.607 68.2063,-533.517 88.1377,-546.5 93.3954,-549.925 99.2185,-552.898 105.173,-555.463"/>
<polygon fill="midnightblue" stroke="midnightblue" points="41.8541,-495.52 33.1321,-489.505 36.1996,-499.646 41.8541,-495.52"/>
</g>
<!-- Node13 -->
<g id="node13" class="node"><title>Node13</title>
<g id="a_node13"><a xlink:href="$classAP__L1__Control.html#a37f896585d902ad5b86787b3ce10ab6d" xlink:title="AP_L1_Control::nav\l_roll_cd">
<polygon fill="white" stroke="black" points="103.418,-508.5 103.418,-536.5 208.92,-536.5 208.92,-508.5 103.418,-508.5"/>
<text text-anchor="start" x="111.418" y="-524.5" font-family="Helvetica,sans-Serif" font-size="10.00">AP_L1_Control::nav</text>
<text text-anchor="middle" x="156.169" y="-514.5" font-family="Helvetica,sans-Serif" font-size="10.00">_roll_cd</text>
</a>
</g>
</g>
<!-- Node1&#45;&gt;Node13 -->
<g id="edge12" class="edge"><title>Node1&#45;&gt;Node13</title>
<path fill="none" stroke="midnightblue" d="M62.0922,-491.983C77.5838,-497.062 95.9486,-503.083 112.255,-508.43"/>
<polygon fill="midnightblue" stroke="midnightblue" points="62.9702,-488.588 52.3774,-488.798 60.7893,-495.239 62.9702,-488.588"/>
</g>
<!-- Node14 -->
<g id="node14" class="node"><title>Node14</title>
<g id="a_node14"><a xlink:href="$classAP__GPS__PX4.html#a1524e119c5802347062847fb5774507c" xlink:title="AP_GPS_PX4::read">
<polygon fill="white" stroke="black" points="103.143,-471.5 103.143,-489.5 209.196,-489.5 209.196,-471.5 103.143,-471.5"/>
<text text-anchor="middle" x="156.169" y="-477.5" font-family="Helvetica,sans-Serif" font-size="10.00">AP_GPS_PX4::read</text>
</a>
</g>
</g>
<!-- Node1&#45;&gt;Node14 -->
<g id="edge13" class="edge"><title>Node1&#45;&gt;Node14</title>
<path fill="none" stroke="midnightblue" d="M62.399,-480.5C74.9134,-480.5 89.2726,-480.5 102.896,-480.5"/>
<polygon fill="midnightblue" stroke="midnightblue" points="62.3774,-477 52.3774,-480.5 62.3774,-484 62.3774,-477"/>
</g>
<!-- Node15 -->
<g id="node15" class="node"><title>Node15</title>
<g id="a_node15"><a xlink:href="$classSITL_1_1JSBSim.html#ac3a7a04e8c830f9be50a8d2a953833a1" xlink:title="SITL::JSBSim::recv_fdm">
<polygon fill="white" stroke="black" points="93.7114,-639.5 93.7114,-657.5 218.627,-657.5 218.627,-639.5 93.7114,-639.5"/>
<text text-anchor="middle" x="156.169" y="-645.5" font-family="Helvetica,sans-Serif" font-size="10.00">SITL::JSBSim::recv_fdm</text>
</a>
</g>
</g>
<!-- Node1&#45;&gt;Node15 -->
<g id="edge14" class="edge"><title>Node1&#45;&gt;Node15</title>
<path fill="none" stroke="midnightblue" d="M29.3938,-499.717C34.2996,-531.683 48.7148,-595.696 88.1377,-630.5 92.293,-634.168 97.1192,-637.1 102.241,-639.44"/>
<polygon fill="midnightblue" stroke="midnightblue" points="32.819,-498.933 27.988,-489.504 25.8844,-499.888 32.819,-498.933"/>
</g>
<!-- Node16 -->
<g id="node16" class="node"><title>Node16</title>
<g id="a_node16"><a xlink:href="$classAP__GPS.html#a5c53cf2e41f3fcf833c74a77a3cc00ec" xlink:title="AP_GPS::setHIL">
<polygon fill="white" stroke="black" points="110.931,-387.5 110.931,-405.5 201.408,-405.5 201.408,-387.5 110.931,-387.5"/>
<text text-anchor="middle" x="156.169" y="-393.5" font-family="Helvetica,sans-Serif" font-size="10.00">AP_GPS::setHIL</text>
</a>
</g>
</g>
<!-- Node1&#45;&gt;Node16 -->
<g id="edge16" class="edge"><title>Node1&#45;&gt;Node16</title>
<path fill="none" stroke="midnightblue" d="M38.9775,-462.857C50.0174,-447.837 67.7753,-426.796 88.1377,-414.5 95.0487,-410.327 102.934,-407.105 110.809,-404.622"/>
<polygon fill="midnightblue" stroke="midnightblue" points="35.9243,-461.112 33.0086,-471.298 41.6398,-465.154 35.9243,-461.112"/>
</g>
<!-- Node17 -->
<g id="node17" class="node"><title>Node17</title>
<g id="a_node17"><a xlink:href="$classAP__Mount__Servo.html#af3b79839d37536f6bb7ab56104d77e2f" xlink:title="AP_Mount_Servo::stabilize">
<polygon fill="white" stroke="black" points="88.1377,-350.5 88.1377,-368.5 224.201,-368.5 224.201,-350.5 88.1377,-350.5"/>
<text text-anchor="middle" x="156.169" y="-356.5" font-family="Helvetica,sans-Serif" font-size="10.00">AP_Mount_Servo::stabilize</text>
</a>
</g>
</g>
<!-- Node1&#45;&gt;Node17 -->
<g id="edge17" class="edge"><title>Node1&#45;&gt;Node17</title>
<path fill="none" stroke="midnightblue" d="M33.1797,-461.755C41.7399,-438.476 59.5416,-399.193 88.1377,-377.5 92.9377,-373.859 98.4198,-370.953 104.134,-368.635"/>
<polygon fill="midnightblue" stroke="midnightblue" points="29.7776,-460.883 29.8019,-471.477 36.3899,-463.18 29.7776,-460.883"/>
</g>
<!-- Node19 -->
<g id="node19" class="node"><title>Node19</title>
<g id="a_node19"><a xlink:href="$classSITL_1_1Tracker.html#aa2d26c0841ead98b60a9291eb4d74b71" xlink:title="SITL::Tracker::update">
<polygon fill="white" stroke="black" points="269.291,-232.5 269.291,-250.5 381.633,-250.5 381.633,-232.5 269.291,-232.5"/>
<text text-anchor="middle" x="325.462" y="-238.5" font-family="Helvetica,sans-Serif" font-size="10.00">SITL::Tracker::update</text>
</a>
</g>
</g>
<!-- Node1&#45;&gt;Node19 -->
<g id="edge19" class="edge"><title>Node1&#45;&gt;Node19</title>
<path fill="none" stroke="midnightblue" d="M27.4142,-461.23C29.1942,-423.167 38.8117,-338.166 88.1377,-293.5 137.494,-248.806 216.325,-239.522 269.212,-238.934"/>
<polygon fill="midnightblue" stroke="midnightblue" points="23.9091,-461.33 27.0781,-471.439 30.9053,-461.56 23.9091,-461.33"/>
</g>
<!-- Node20 -->
<g id="node20" class="node"><title>Node20</title>
<g id="a_node20"><a xlink:href="$classAP__AHRS.html#a8bf3f8d2410b5456bc43b937c872e6bb" xlink:title="AP_AHRS::update_cd\l_values">
<polygon fill="white" stroke="black" points="98.6943,-303.5 98.6943,-331.5 213.645,-331.5 213.645,-303.5 98.6943,-303.5"/>
<text text-anchor="start" x="106.694" y="-319.5" font-family="Helvetica,sans-Serif" font-size="10.00">AP_AHRS::update_cd</text>
<text text-anchor="middle" x="156.169" y="-309.5" font-family="Helvetica,sans-Serif" font-size="10.00">_values</text>
</a>
</g>
</g>
<!-- Node1&#45;&gt;Node20 -->
<g id="edge20" class="edge"><title>Node1&#45;&gt;Node20</title>
<path fill="none" stroke="midnightblue" d="M30.377,-461.137C36.4922,-431.149 52.3591,-373.499 88.1377,-340.5 91.9362,-336.997 96.2926,-334.024 100.922,-331.501"/>
<polygon fill="midnightblue" stroke="midnightblue" points="26.8995,-460.692 28.4896,-471.166 33.7787,-461.986 26.8995,-460.692"/>
</g>
<!-- Node28 -->
<g id="node28" class="node"><title>Node28</title>
<g id="a_node28"><a xlink:href="$classSITL_1_1Aircraft.html#a4a72b2c0617cf55b24b062daaae685b9" xlink:title="SITL::Aircraft::update\l_position">
<polygon fill="white" stroke="black" points="100.926,-132.5 100.926,-160.5 211.413,-160.5 211.413,-132.5 100.926,-132.5"/>
<text text-anchor="start" x="108.926" y="-148.5" font-family="Helvetica,sans-Serif" font-size="10.00">SITL::Aircraft::update</text>
<text text-anchor="middle" x="156.169" y="-138.5" font-family="Helvetica,sans-Serif" font-size="10.00">_position</text>
</a>
</g>
</g>
<!-- Node1&#45;&gt;Node28 -->
<g id="edge31" class="edge"><title>Node1&#45;&gt;Node28</title>
<path fill="none" stroke="midnightblue" d="M29.7225,-460.947C35.8674,-419.383 53.285,-319.808 88.1377,-243.5 102.765,-211.474 127.996,-178.695 142.979,-160.633"/>
<polygon fill="midnightblue" stroke="midnightblue" points="26.2266,-460.671 28.2831,-471.064 33.1568,-461.657 26.2266,-460.671"/>
</g>
<!-- Node3 -->
<g id="node3" class="node"><title>Node3</title>
<g id="a_node3"><a xlink:href="$classAP__InertialSensor.html#a9a2e96ead5ec6958cc5428807318ee6b" xlink:title="AP_InertialSensor::\lcalibrate_accel">
<polygon fill="white" stroke="black" points="274.383,-762.5 274.383,-790.5 376.541,-790.5 376.541,-762.5 274.383,-762.5"/>
<text text-anchor="start" x="282.383" y="-778.5" font-family="Helvetica,sans-Serif" font-size="10.00">AP_InertialSensor::</text>
<text text-anchor="middle" x="325.462" y="-768.5" font-family="Helvetica,sans-Serif" font-size="10.00">calibrate_accel</text>
</a>
</g>
</g>
<!-- Node2&#45;&gt;Node3 -->
<g id="edge2" class="edge"><title>Node2&#45;&gt;Node3</title>
<path fill="none" stroke="midnightblue" d="M217.04,-746.32C235.896,-751.618 256.51,-757.409 274.593,-762.489"/>
<polygon fill="midnightblue" stroke="midnightblue" points="217.937,-742.937 207.363,-743.602 216.043,-749.676 217.937,-742.937"/>
</g>
<!-- Node6 -->
<g id="node6" class="node"><title>Node6</title>
<g id="a_node6"><a xlink:href="$classAP__InertialSensor.html#ad87496184e3c6a775a10b3b5eb069cd9" xlink:title="AP_InertialSensor::\lcalibrate_trim">
<polygon fill="white" stroke="black" points="274.383,-715.5 274.383,-743.5 376.541,-743.5 376.541,-715.5 274.383,-715.5"/>
<text text-anchor="start" x="282.383" y="-731.5" font-family="Helvetica,sans-Serif" font-size="10.00">AP_InertialSensor::</text>
<text text-anchor="middle" x="325.462" y="-721.5" font-family="Helvetica,sans-Serif" font-size="10.00">calibrate_trim</text>
</a>
</g>
</g>
<!-- Node2&#45;&gt;Node6 -->
<g id="edge5" class="edge"><title>Node2&#45;&gt;Node6</title>
<path fill="none" stroke="midnightblue" d="M217.513,-729.5C236.14,-729.5 256.442,-729.5 274.304,-729.5"/>
<polygon fill="midnightblue" stroke="midnightblue" points="217.363,-726 207.363,-729.5 217.363,-733 217.363,-726"/>
</g>
<!-- Node4 -->
<g id="node4" class="node"><title>Node4</title>
<g id="a_node4"><a xlink:href="$INS__generic_8cpp.html#a2678ad991b638bbaac0ea234cdc5d60b" xlink:title="run_calibration">
<polygon fill="white" stroke="black" points="472.021,-767.5 472.021,-785.5 553.616,-785.5 553.616,-767.5 472.021,-767.5"/>
<text text-anchor="middle" x="512.818" y="-773.5" font-family="Helvetica,sans-Serif" font-size="10.00">run_calibration</text>
</a>
</g>
</g>
<!-- Node3&#45;&gt;Node4 -->
<g id="edge3" class="edge"><title>Node3&#45;&gt;Node4</title>
<path fill="none" stroke="midnightblue" d="M386.686,-776.5C414.615,-776.5 447.044,-776.5 471.89,-776.5"/>
<polygon fill="midnightblue" stroke="midnightblue" points="386.622,-773 376.622,-776.5 386.622,-780 386.622,-773"/>
</g>
<!-- Node5 -->
<g id="node5" class="node"><title>Node5</title>
<g id="a_node5"><a xlink:href="$INS__generic_8cpp.html#a0b33edabd7f1c4e4a0bf32c67269be2f" xlink:title="loop">
<polygon fill="white" stroke="black" points="702.438,-767.5 702.438,-785.5 737.345,-785.5 737.345,-767.5 702.438,-767.5"/>
<text text-anchor="middle" x="719.892" y="-773.5" font-family="Helvetica,sans-Serif" font-size="10.00">loop</text>
</a>
</g>
</g>
<!-- Node4&#45;&gt;Node5 -->
<g id="edge4" class="edge"><title>Node4&#45;&gt;Node5</title>
<path fill="none" stroke="midnightblue" d="M563.982,-776.5C608.892,-776.5 672.126,-776.5 701.999,-776.5"/>
<polygon fill="midnightblue" stroke="midnightblue" points="563.845,-773 553.845,-776.5 563.845,-780 563.845,-773"/>
</g>
<!-- Node8 -->
<g id="node8" class="node"><title>Node8</title>
<g id="a_node8"><a xlink:href="$classAP__TECS.html#a6a4556c90f50ee613f1673b50fa71da5" xlink:title="AP_TECS::update_pitch\l_throttle">
<polygon fill="white" stroke="black" points="263.263,-668.5 263.263,-696.5 387.661,-696.5 387.661,-668.5 263.263,-668.5"/>
<text text-anchor="start" x="271.263" y="-684.5" font-family="Helvetica,sans-Serif" font-size="10.00">AP_TECS::update_pitch</text>
<text text-anchor="middle" x="325.462" y="-674.5" font-family="Helvetica,sans-Serif" font-size="10.00">_throttle</text>
</a>
</g>
</g>
<!-- Node7&#45;&gt;Node8 -->
<g id="edge7" class="edge"><title>Node7&#45;&gt;Node8</title>
<path fill="none" stroke="midnightblue" d="M231.453,-684.168C242.058,-683.978 252.867,-683.784 263.185,-683.599"/>
<polygon fill="midnightblue" stroke="midnightblue" points="231.306,-680.67 221.371,-684.349 231.432,-687.669 231.306,-680.67"/>
</g>
<!-- Node10 -->
<g id="node10" class="node"><title>Node10</title>
<g id="a_node10"><a xlink:href="$classSITL_1_1JSBSim.html#a63f34aa2eb8898513ab887f7c0c8b1bf" xlink:title="SITL::JSBSim::update">
<polygon fill="white" stroke="black" points="268.272,-551.5 268.272,-569.5 382.651,-569.5 382.651,-551.5 268.272,-551.5"/>
<text text-anchor="middle" x="325.462" y="-557.5" font-family="Helvetica,sans-Serif" font-size="10.00">SITL::JSBSim::update</text>
</a>
</g>
</g>
<!-- Node9&#45;&gt;Node10 -->
<g id="edge9" class="edge"><title>Node9&#45;&gt;Node10</title>
<path fill="none" stroke="midnightblue" d="M215.958,-456.895C218.802,-458.334 221.567,-459.868 224.201,-461.5 265.371,-487.014 302.833,-532.284 317.694,-551.486"/>
<polygon fill="midnightblue" stroke="midnightblue" points="217.215,-453.62 206.668,-452.618 214.288,-459.979 217.215,-453.62"/>
</g>
<!-- Node15&#45;&gt;Node10 -->
<g id="edge15" class="edge"><title>Node15&#45;&gt;Node10</title>
<path fill="none" stroke="midnightblue" d="M209.53,-636.355C214.574,-634.617 219.542,-632.67 224.201,-630.5 259.994,-613.827 296.703,-584.43 314.101,-569.599"/>
<polygon fill="midnightblue" stroke="midnightblue" points="208.271,-633.082 199.798,-639.442 210.388,-639.754 208.271,-633.082"/>
</g>
<!-- Node18 -->
<g id="node18" class="node"><title>Node18</title>
<g id="a_node18"><a xlink:href="$classAP__Mount__Servo.html#a8f4caa1ed68b0062d25e60c42b333995" xlink:title="AP_Mount_Servo::update">
<polygon fill="white" stroke="black" points="260.201,-432.5 260.201,-450.5 390.723,-450.5 390.723,-432.5 260.201,-432.5"/>
<text text-anchor="middle" x="325.462" y="-438.5" font-family="Helvetica,sans-Serif" font-size="10.00">AP_Mount_Servo::update</text>
</a>
</g>
</g>
<!-- Node17&#45;&gt;Node18 -->
<g id="edge18" class="edge"><title>Node17&#45;&gt;Node18</title>
<path fill="none" stroke="midnightblue" d="M214.175,-372.274C217.662,-373.824 221.036,-375.559 224.201,-377.5 244.589,-390.005 240.43,-404.04 260.201,-417.5 269.455,-423.8 280.577,-428.709 290.948,-432.399"/>
<polygon fill="midnightblue" stroke="midnightblue" points="215.334,-368.97 204.746,-368.589 212.786,-375.49 215.334,-368.97"/>
</g>
<!-- Node21 -->
<g id="node21" class="node"><title>Node21</title>
<g id="a_node21"><a xlink:href="$classAP__AHRS__DCM.html#a78be7bcd6145ccfea4499800fabc65e5" xlink:title="AP_AHRS_DCM::euler\l_angles">
<polygon fill="white" stroke="black" points="266.056,-346.5 266.056,-374.5 384.868,-374.5 384.868,-346.5 266.056,-346.5"/>
<text text-anchor="start" x="274.056" y="-362.5" font-family="Helvetica,sans-Serif" font-size="10.00">AP_AHRS_DCM::euler</text>
<text text-anchor="middle" x="325.462" y="-352.5" font-family="Helvetica,sans-Serif" font-size="10.00">_angles</text>
</a>
</g>
</g>
<!-- Node20&#45;&gt;Node21 -->
<g id="edge21" class="edge"><title>Node20&#45;&gt;Node21</title>
<path fill="none" stroke="midnightblue" d="M221.699,-334.086C237.597,-338.173 254.469,-342.509 269.847,-346.462"/>
<polygon fill="midnightblue" stroke="midnightblue" points="222.504,-330.679 211.947,-331.58 220.761,-337.459 222.504,-330.679"/>
</g>
<!-- Node23 -->
<g id="node23" class="node"><title>Node23</title>
<g id="a_node23"><a xlink:href="$classAP__AHRS__NavEKF.html#a95d351e1c2bc77147bb535a28261cf23" xlink:title="AP_AHRS_NavEKF::update_DCM">
<polygon fill="white" stroke="black" points="634.914,-386.5 634.914,-404.5 804.869,-404.5 804.869,-386.5 634.914,-386.5"/>
<text text-anchor="middle" x="719.892" y="-392.5" font-family="Helvetica,sans-Serif" font-size="10.00">AP_AHRS_NavEKF::update_DCM</text>
</a>
</g>
</g>
<!-- Node20&#45;&gt;Node23 -->
<g id="edge26" class="edge"><title>Node20&#45;&gt;Node23</title>
<path fill="none" stroke="midnightblue" d="M217.143,-336.139C219.585,-337.501 221.95,-338.953 224.201,-340.5 244.742,-354.618 237.758,-372.659 260.201,-383.5 402.051,-452.015 598.452,-421.84 680.487,-404.561"/>
<polygon fill="midnightblue" stroke="midnightblue" points="218.54,-332.925 208.029,-331.597 215.417,-339.19 218.54,-332.925"/>
</g>
<!-- Node26 -->
<g id="node26" class="node"><title>Node26</title>
<g id="a_node26"><a xlink:href="$classAP__AHRS__NavEKF.html#aff7b2c4f3428a48ab5ed210e89df4f76" xlink:title="AP_AHRS_NavEKF::update_EKF1">
<polygon fill="white" stroke="black" points="426.723,-308.5 426.723,-326.5 598.914,-326.5 598.914,-308.5 426.723,-308.5"/>
<text text-anchor="middle" x="512.818" y="-314.5" font-family="Helvetica,sans-Serif" font-size="10.00">AP_AHRS_NavEKF::update_EKF1</text>
</a>
</g>
</g>
<!-- Node20&#45;&gt;Node26 -->
<g id="edge27" class="edge"><title>Node20&#45;&gt;Node26</title>
<path fill="none" stroke="midnightblue" d="M223.809,-317.5C281.221,-317.5 364.428,-317.5 426.659,-317.5"/>
<polygon fill="midnightblue" stroke="midnightblue" points="223.757,-314 213.757,-317.5 223.757,-321 223.757,-314"/>
</g>
<!-- Node27 -->
<g id="node27" class="node"><title>Node27</title>
<g id="a_node27"><a xlink:href="$classAP__AHRS__NavEKF.html#a0187c6d3d4348b002a204c05d3e94b07" xlink:title="AP_AHRS_NavEKF::update_EKF2">
<polygon fill="white" stroke="black" points="426.723,-270.5 426.723,-288.5 598.914,-288.5 598.914,-270.5 426.723,-270.5"/>
<text text-anchor="middle" x="512.818" y="-276.5" font-family="Helvetica,sans-Serif" font-size="10.00">AP_AHRS_NavEKF::update_EKF2</text>
</a>
</g>
</g>
<!-- Node20&#45;&gt;Node27 -->
<g id="edge29" class="edge"><title>Node20&#45;&gt;Node27</title>
<path fill="none" stroke="midnightblue" d="M223.862,-310.354C281.583,-304.169 365.349,-295.194 427.669,-288.516"/>
<polygon fill="midnightblue" stroke="midnightblue" points="223.327,-306.891 213.757,-311.437 224.073,-313.851 223.327,-306.891"/>
</g>
<!-- Node22 -->
<g id="node22" class="node"><title>Node22</title>
<g id="a_node22"><a xlink:href="$classAP__AHRS__DCM.html#a6bf59b99999767fdbf4dfd363bc51bfd" xlink:title="AP_AHRS_DCM::update">
<polygon fill="white" stroke="black" points="449.237,-351.5 449.237,-369.5 576.399,-369.5 576.399,-351.5 449.237,-351.5"/>
<text text-anchor="middle" x="512.818" y="-357.5" font-family="Helvetica,sans-Serif" font-size="10.00">AP_AHRS_DCM::update</text>
</a>
</g>
</g>
<!-- Node21&#45;&gt;Node22 -->
<g id="edge22" class="edge"><title>Node21&#45;&gt;Node22</title>
<path fill="none" stroke="midnightblue" d="M395.317,-360.5C412.931,-360.5 431.776,-360.5 449.065,-360.5"/>
<polygon fill="midnightblue" stroke="midnightblue" points="395.11,-357 385.11,-360.5 395.11,-364 395.11,-357"/>
</g>
<!-- Node22&#45;&gt;Node23 -->
<g id="edge23" class="edge"><title>Node22&#45;&gt;Node23</title>
<path fill="none" stroke="midnightblue" d="M576.52,-371.201C605.111,-376.081 638.594,-381.795 665.903,-386.456"/>
<polygon fill="midnightblue" stroke="midnightblue" points="577.076,-367.746 566.63,-369.513 575.898,-374.646 577.076,-367.746"/>
</g>
<!-- Node25 -->
<g id="node25" class="node"><title>Node25</title>
<g id="a_node25"><a xlink:href="$AHRS__Test_8cpp.html#a0b33edabd7f1c4e4a0bf32c67269be2f" xlink:title="loop">
<polygon fill="white" stroke="black" points="702.438,-349.5 702.438,-367.5 737.345,-367.5 737.345,-349.5 702.438,-349.5"/>
<text text-anchor="middle" x="719.892" y="-355.5" font-family="Helvetica,sans-Serif" font-size="10.00">loop</text>
</a>
</g>
</g>
<!-- Node22&#45;&gt;Node25 -->
<g id="edge25" class="edge"><title>Node22&#45;&gt;Node25</title>
<path fill="none" stroke="midnightblue" d="M586.602,-359.79C628.257,-359.384 677.085,-358.908 702.159,-358.663"/>
<polygon fill="midnightblue" stroke="midnightblue" points="586.427,-356.292 576.461,-359.889 586.495,-363.291 586.427,-356.292"/>
</g>
<!-- Node24 -->
<g id="node24" class="node"><title>Node24</title>
<g id="a_node24"><a xlink:href="$classAP__AHRS__NavEKF.html#a9d5f47f1bc0e3864bbc4c6c6e2ca8b1c" xlink:title="AP_AHRS_NavEKF::update">
<polygon fill="white" stroke="black" points="840.869,-308.5 840.869,-326.5 982.489,-326.5 982.489,-308.5 840.869,-308.5"/>
<text text-anchor="middle" x="911.679" y="-314.5" font-family="Helvetica,sans-Serif" font-size="10.00">AP_AHRS_NavEKF::update</text>
</a>
</g>
</g>
<!-- Node23&#45;&gt;Node24 -->
<g id="edge24" class="edge"><title>Node23&#45;&gt;Node24</title>
<path fill="none" stroke="midnightblue" d="M781.46,-383.987C789.44,-381.836 797.426,-379.349 804.869,-376.5 840.03,-363.041 877.752,-339.558 897.263,-326.649"/>
<polygon fill="midnightblue" stroke="midnightblue" points="780.599,-380.595 771.767,-386.447 782.321,-387.38 780.599,-380.595"/>
</g>
<!-- Node26&#45;&gt;Node24 -->
<g id="edge28" class="edge"><title>Node26&#45;&gt;Node24</title>
<path fill="none" stroke="midnightblue" d="M609.283,-317.5C680.534,-317.5 776.284,-317.5 840.57,-317.5"/>
<polygon fill="midnightblue" stroke="midnightblue" points="608.955,-314 598.955,-317.5 608.955,-321 608.955,-314"/>
</g>
<!-- Node27&#45;&gt;Node24 -->
<g id="edge30" class="edge"><title>Node27&#45;&gt;Node24</title>
<path fill="none" stroke="midnightblue" d="M609.283,-288.641C680.534,-295.463 776.284,-304.631 840.57,-310.787"/>
<polygon fill="midnightblue" stroke="midnightblue" points="609.243,-285.121 598.955,-287.652 608.576,-292.089 609.243,-285.121"/>
</g>
<!-- Node28&#45;&gt;Node19 -->
<g id="edge38" class="edge"><title>Node28&#45;&gt;Node19</title>
<path fill="none" stroke="midnightblue" d="M180.414,-167.362C200.342,-184.296 230.465,-207.711 260.201,-222.5 268.222,-226.489 277.231,-229.797 285.909,-232.474"/>
<polygon fill="midnightblue" stroke="midnightblue" points="182.64,-164.66 172.785,-160.771 178.064,-169.957 182.64,-164.66"/>
</g>
<!-- Node29 -->
<g id="node29" class="node"><title>Node29</title>
<g id="a_node29"><a xlink:href="$classSITL_1_1Balloon.html#a34f5716a3c9ba0805d89dc36656ae90c" xlink:title="SITL::Balloon::update">
<polygon fill="white" stroke="black" points="269.374,-37.5 269.374,-55.5 381.55,-55.5 381.55,-37.5 269.374,-37.5"/>
<text text-anchor="middle" x="325.462" y="-43.5" font-family="Helvetica,sans-Serif" font-size="10.00">SITL::Balloon::update</text>
</a>
</g>
</g>
<!-- Node28&#45;&gt;Node29 -->
<g id="edge32" class="edge"><title>Node28&#45;&gt;Node29</title>
<path fill="none" stroke="midnightblue" d="M178.688,-125.067C198.367,-106.579 229.073,-80.4165 260.201,-64.5 267.216,-60.9133 275.038,-57.962 282.744,-55.5617"/>
<polygon fill="midnightblue" stroke="midnightblue" points="176.014,-122.781 171.209,-132.224 180.854,-127.838 176.014,-122.781"/>
</g>
<!-- Node30 -->
<g id="node30" class="node"><title>Node30</title>
<g id="a_node30"><a xlink:href="$classSITL_1_1CRRCSim.html#ada236d396837feb2c5efe885ea504f87" xlink:title="SITL::CRRCSim::update">
<polygon fill="white" stroke="black" points="262.999,-0.5 262.999,-18.5 387.925,-18.5 387.925,-0.5 262.999,-0.5"/>
<text text-anchor="middle" x="325.462" y="-6.5" font-family="Helvetica,sans-Serif" font-size="10.00">SITL::CRRCSim::update</text>
</a>
</g>
</g>
<!-- Node28&#45;&gt;Node30 -->
<g id="edge33" class="edge"><title>Node28&#45;&gt;Node30</title>
<path fill="none" stroke="midnightblue" d="M170.969,-123.639C188.422,-96.6721 220.977,-52.3738 260.201,-27.5 265.974,-23.8392 272.499,-20.9098 279.123,-18.569"/>
<polygon fill="midnightblue" stroke="midnightblue" points="167.82,-122.07 165.44,-132.394 173.739,-125.808 167.82,-122.07"/>
</g>
<!-- Node31 -->
<g id="node31" class="node"><title>Node31</title>
<g id="a_node31"><a xlink:href="$classSITL_1_1Gazebo.html#a120a541070549b98ba4740c91abf97a7" xlink:title="SITL::Gazebo::update">
<polygon fill="white" stroke="black" points="268.541,-195.5 268.541,-213.5 382.383,-213.5 382.383,-195.5 268.541,-195.5"/>
<text text-anchor="middle" x="325.462" y="-201.5" font-family="Helvetica,sans-Serif" font-size="10.00">SITL::Gazebo::update</text>
</a>
</g>
</g>
<!-- Node28&#45;&gt;Node31 -->
<g id="edge34" class="edge"><title>Node28&#45;&gt;Node31</title>
<path fill="none" stroke="midnightblue" d="M201.887,-164.256C219.896,-171.189 240.93,-179.014 260.201,-185.5 270.566,-188.988 281.983,-192.477 292.282,-195.495"/>
<polygon fill="midnightblue" stroke="midnightblue" points="202.812,-160.861 192.223,-160.51 200.282,-167.388 202.812,-160.861"/>
</g>
<!-- Node32 -->
<g id="node32" class="node"><title>Node32</title>
<g id="a_node32"><a xlink:href="$classSITL_1_1Helicopter.html#a0e8602ead0fe804552ab7ade9a1b171e" xlink:title="SITL::Helicopter::update">
<polygon fill="white" stroke="black" points="263.543,-158.5 263.543,-176.5 387.38,-176.5 387.38,-158.5 263.543,-158.5"/>
<text text-anchor="middle" x="325.462" y="-164.5" font-family="Helvetica,sans-Serif" font-size="10.00">SITL::Helicopter::update</text>
</a>
</g>
</g>
<!-- Node28&#45;&gt;Node32 -->
<g id="edge35" class="edge"><title>Node28&#45;&gt;Node32</title>
<path fill="none" stroke="midnightblue" d="M221.793,-154.612C235.491,-156.332 249.907,-158.141 263.465,-159.843"/>
<polygon fill="midnightblue" stroke="midnightblue" points="221.843,-151.091 211.485,-153.318 220.971,-158.036 221.843,-151.091"/>
</g>
<!-- Node33 -->
<g id="node33" class="node"><title>Node33</title>
<g id="a_node33"><a xlink:href="$classSITL_1_1MultiCopter.html#a1c12d5064cc2851e9861353e694805bc" xlink:title="SITL::MultiCopter::\lupdate">
<polygon fill="white" stroke="black" points="275.782,-111.5 275.782,-139.5 375.142,-139.5 375.142,-111.5 275.782,-111.5"/>
<text text-anchor="start" x="283.782" y="-127.5" font-family="Helvetica,sans-Serif" font-size="10.00">SITL::MultiCopter::</text>
<text text-anchor="middle" x="325.462" y="-117.5" font-family="Helvetica,sans-Serif" font-size="10.00">update</text>
</a>
</g>
</g>
<!-- Node28&#45;&gt;Node33 -->
<g id="edge36" class="edge"><title>Node28&#45;&gt;Node33</title>
<path fill="none" stroke="midnightblue" d="M221.571,-138.416C239.481,-136.168 258.637,-133.763 275.505,-131.646"/>
<polygon fill="midnightblue" stroke="midnightblue" points="220.971,-134.964 211.485,-139.682 221.843,-141.909 220.971,-134.964"/>
</g>
<!-- Node34 -->
<g id="node34" class="node"><title>Node34</title>
<g id="a_node34"><a xlink:href="$classSITL_1_1SimRover.html#a0692a116e9c7cff78adb0b08b0d571b2" xlink:title="SITL::SimRover::update">
<polygon fill="white" stroke="black" points="264.105,-74.5 264.105,-92.5 386.819,-92.5 386.819,-74.5 264.105,-74.5"/>
<text text-anchor="middle" x="325.462" y="-80.5" font-family="Helvetica,sans-Serif" font-size="10.00">SITL::SimRover::update</text>
</a>
</g>
</g>
<!-- Node28&#45;&gt;Node34 -->
<g id="edge37" class="edge"><title>Node28&#45;&gt;Node34</title>
<path fill="none" stroke="midnightblue" d="M195.77,-128.123C214.899,-119.409 238.496,-109.238 260.201,-101.5 269.368,-98.232 279.438,-95.1707 288.831,-92.5322"/>
<polygon fill="midnightblue" stroke="midnightblue" points="194.108,-125.035 186.488,-132.397 197.036,-131.394 194.108,-125.035"/>
</g>
</g>
</svg>
