<?xml version="1.0" encoding="UTF-8" standalone="no"?>
<!DOCTYPE svg PUBLIC "-//W3C//DTD SVG 1.1//EN"
 "http://www.w3.org/Graphics/SVG/1.1/DTD/svg11.dtd">
<!-- Generated by graphviz version 2.38.0 (20140413.2041)
 -->
<!-- Title: maxf Pages: 1 -->
<svg width="942pt" height="139pt"
 viewBox="0.00 0.00 942.04 139.00" xmlns="http://www.w3.org/2000/svg" xmlns:xlink="http://www.w3.org/1999/xlink">
<g id="graph0" class="graph" transform="scale(1 1) rotate(0) translate(4 135)">
<title>maxf</title>
<polygon fill="white" stroke="none" points="-4,4 -4,-135 938.042,-135 938.042,4 -4,4"/>
<!-- Node1 -->
<g id="node1" class="node"><title>Node1</title>
<polygon fill="#bfbfbf" stroke="black" points="0,-65.5 0,-83.5 37.6699,-83.5 37.6699,-65.5 0,-65.5"/>
<text text-anchor="middle" x="18.835" y="-71.5" font-family="Helvetica,sans-Serif" font-size="10.00">maxf</text>
</g>
<!-- Node2 -->
<g id="node2" class="node"><title>Node2</title>
<g id="a_node2"><a xlink:href="$classNavEKF__core.html#a0b8753dcc1d36c72406a21320e2d15e4" xlink:title="NavEKF_core::readIMUData">
<polygon fill="white" stroke="black" points="73.6699,-65.5 73.6699,-83.5 216.94,-83.5 216.94,-65.5 73.6699,-65.5"/>
<text text-anchor="middle" x="145.305" y="-71.5" font-family="Helvetica,sans-Serif" font-size="10.00">NavEKF_core::readIMUData</text>
</a>
</g>
</g>
<!-- Node1&#45;&gt;Node2 -->
<g id="edge1" class="edge"><title>Node1&#45;&gt;Node2</title>
<path fill="none" stroke="midnightblue" d="M48.0929,-74.5C55.8084,-74.5 64.5286,-74.5 73.4908,-74.5"/>
<polygon fill="midnightblue" stroke="midnightblue" points="47.934,-71.0001 37.934,-74.5 47.934,-78.0001 47.934,-71.0001"/>
</g>
<!-- Node3 -->
<g id="node3" class="node"><title>Node3</title>
<g id="a_node3"><a xlink:href="$classNavEKF__core.html#a88ff1e4a9bbafca3f735e3891b8fa2fa" xlink:title="NavEKF_core::InitialiseFilter\lDynamic">
<polygon fill="white" stroke="black" points="252.94,-102.5 252.94,-130.5 395.093,-130.5 395.093,-102.5 252.94,-102.5"/>
<text text-anchor="start" x="260.94" y="-118.5" font-family="Helvetica,sans-Serif" font-size="10.00">NavEKF_core::InitialiseFilter</text>
<text text-anchor="middle" x="324.017" y="-108.5" font-family="Helvetica,sans-Serif" font-size="10.00">Dynamic</text>
</a>
</g>
</g>
<!-- Node2&#45;&gt;Node3 -->
<g id="edge2" class="edge"><title>Node2&#45;&gt;Node3</title>
<path fill="none" stroke="midnightblue" d="M194.104,-85.8606C215.627,-90.9761 241.251,-97.0663 263.962,-102.464"/>
<polygon fill="midnightblue" stroke="midnightblue" points="194.753,-82.4173 184.214,-83.5101 193.134,-89.2276 194.753,-82.4173"/>
</g>
<!-- Node7 -->
<g id="node7" class="node"><title>Node7</title>
<g id="a_node7"><a xlink:href="$classNavEKF__core.html#ab5cf1fe4bc4140da298da0ca89f8e3ca" xlink:title="NavEKF_core::InitialiseFilter\lBootstrap">
<polygon fill="white" stroke="black" points="252.94,-18.5 252.94,-46.5 395.093,-46.5 395.093,-18.5 252.94,-18.5"/>
<text text-anchor="start" x="260.94" y="-34.5" font-family="Helvetica,sans-Serif" font-size="10.00">NavEKF_core::InitialiseFilter</text>
<text text-anchor="middle" x="324.017" y="-24.5" font-family="Helvetica,sans-Serif" font-size="10.00">Bootstrap</text>
</a>
</g>
</g>
<!-- Node2&#45;&gt;Node7 -->
<g id="edge6" class="edge"><title>Node2&#45;&gt;Node7</title>
<path fill="none" stroke="midnightblue" d="M194.104,-63.1394C215.627,-58.0239 241.251,-51.9337 263.962,-46.5358"/>
<polygon fill="midnightblue" stroke="midnightblue" points="193.134,-59.7724 184.214,-65.4899 194.753,-66.5827 193.134,-59.7724"/>
</g>
<!-- Node11 -->
<g id="node11" class="node"><title>Node11</title>
<g id="a_node11"><a xlink:href="$classNavEKF__core.html#addb3791473c00d6f49b485ae3ce22f26" xlink:title="NavEKF_core::UpdateFilter">
<polygon fill="white" stroke="black" points="254.881,-65.5 254.881,-83.5 393.152,-83.5 393.152,-65.5 254.881,-65.5"/>
<text text-anchor="middle" x="324.017" y="-71.5" font-family="Helvetica,sans-Serif" font-size="10.00">NavEKF_core::UpdateFilter</text>
</a>
</g>
</g>
<!-- Node2&#45;&gt;Node11 -->
<g id="edge10" class="edge"><title>Node2&#45;&gt;Node11</title>
<path fill="none" stroke="midnightblue" d="M227.409,-74.5C236.543,-74.5 245.781,-74.5 254.729,-74.5"/>
<polygon fill="midnightblue" stroke="midnightblue" points="227.162,-71.0001 217.162,-74.5 227.162,-78.0001 227.162,-71.0001"/>
</g>
<!-- Node4 -->
<g id="node4" class="node"><title>Node4</title>
<g id="a_node4"><a xlink:href="$classNavEKF.html#a12500a621febd8f914f6e16db4c28759" xlink:title="NavEKF::InitialiseFilter\lDynamic">
<polygon fill="white" stroke="black" points="431.093,-102.5 431.093,-130.5 548.23,-130.5 548.23,-102.5 431.093,-102.5"/>
<text text-anchor="start" x="439.093" y="-118.5" font-family="Helvetica,sans-Serif" font-size="10.00">NavEKF::InitialiseFilter</text>
<text text-anchor="middle" x="489.662" y="-108.5" font-family="Helvetica,sans-Serif" font-size="10.00">Dynamic</text>
</a>
</g>
</g>
<!-- Node3&#45;&gt;Node4 -->
<g id="edge3" class="edge"><title>Node3&#45;&gt;Node4</title>
<path fill="none" stroke="midnightblue" d="M405.435,-116.5C414.04,-116.5 422.665,-116.5 430.931,-116.5"/>
<polygon fill="midnightblue" stroke="midnightblue" points="405.367,-113 395.367,-116.5 405.366,-120 405.367,-113"/>
</g>
<!-- Node5 -->
<g id="node5" class="node"><title>Node5</title>
<g id="a_node5"><a xlink:href="$classAP__AHRS__NavEKF.html#aff7b2c4f3428a48ab5ed210e89df4f76" xlink:title="AP_AHRS_NavEKF::update_EKF1">
<polygon fill="white" stroke="black" points="584.23,-95.5 584.23,-113.5 756.422,-113.5 756.422,-95.5 584.23,-95.5"/>
<text text-anchor="middle" x="670.326" y="-101.5" font-family="Helvetica,sans-Serif" font-size="10.00">AP_AHRS_NavEKF::update_EKF1</text>
</a>
</g>
</g>
<!-- Node4&#45;&gt;Node5 -->
<g id="edge4" class="edge"><title>Node4&#45;&gt;Node5</title>
<path fill="none" stroke="midnightblue" d="M558.648,-111.934C566.953,-111.376 575.519,-110.801 584.036,-110.229"/>
<polygon fill="midnightblue" stroke="midnightblue" points="558.412,-108.442 548.669,-112.604 558.881,-115.426 558.412,-108.442"/>
</g>
<!-- Node6 -->
<g id="node6" class="node"><title>Node6</title>
<g id="a_node6"><a xlink:href="$classAP__AHRS__NavEKF.html#a9d5f47f1bc0e3864bbc4c6c6e2ca8b1c" xlink:title="AP_AHRS_NavEKF::update">
<polygon fill="white" stroke="black" points="792.422,-95.5 792.422,-113.5 934.042,-113.5 934.042,-95.5 792.422,-95.5"/>
<text text-anchor="middle" x="863.232" y="-101.5" font-family="Helvetica,sans-Serif" font-size="10.00">AP_AHRS_NavEKF::update</text>
</a>
</g>
</g>
<!-- Node5&#45;&gt;Node6 -->
<g id="edge5" class="edge"><title>Node5&#45;&gt;Node6</title>
<path fill="none" stroke="midnightblue" d="M766.552,-104.5C775.173,-104.5 783.796,-104.5 792.141,-104.5"/>
<polygon fill="midnightblue" stroke="midnightblue" points="766.45,-101 756.45,-104.5 766.45,-108 766.45,-101"/>
</g>
<!-- Node8 -->
<g id="node8" class="node"><title>Node8</title>
<g id="a_node8"><a xlink:href="$classNavEKF.html#a290932b02347c5247f036fbc3c7af9d8" xlink:title="NavEKF::InitialiseFilter\lBootstrap">
<polygon fill="white" stroke="black" points="431.093,-18.5 431.093,-46.5 548.23,-46.5 548.23,-18.5 431.093,-18.5"/>
<text text-anchor="start" x="439.093" y="-34.5" font-family="Helvetica,sans-Serif" font-size="10.00">NavEKF::InitialiseFilter</text>
<text text-anchor="middle" x="489.662" y="-24.5" font-family="Helvetica,sans-Serif" font-size="10.00">Bootstrap</text>
</a>
</g>
</g>
<!-- Node7&#45;&gt;Node8 -->
<g id="edge7" class="edge"><title>Node7&#45;&gt;Node8</title>
<path fill="none" stroke="midnightblue" d="M405.435,-32.5C414.04,-32.5 422.665,-32.5 430.931,-32.5"/>
<polygon fill="midnightblue" stroke="midnightblue" points="405.367,-29.0001 395.367,-32.5 405.366,-36.0001 405.367,-29.0001"/>
</g>
<!-- Node9 -->
<g id="node9" class="node"><title>Node9</title>
<g id="a_node9"><a xlink:href="$classAP__AHRS__NavEKF.html#abdb5e9bc0803f733ab1b0a423baad8d1" xlink:title="AP_AHRS_NavEKF::reset">
<polygon fill="white" stroke="black" points="603.693,-47.5 603.693,-65.5 736.959,-65.5 736.959,-47.5 603.693,-47.5"/>
<text text-anchor="middle" x="670.326" y="-53.5" font-family="Helvetica,sans-Serif" font-size="10.00">AP_AHRS_NavEKF::reset</text>
</a>
</g>
</g>
<!-- Node8&#45;&gt;Node9 -->
<g id="edge8" class="edge"><title>Node8&#45;&gt;Node9</title>
<path fill="none" stroke="midnightblue" d="M558.7,-41.6396C573.409,-43.6154 588.935,-45.7011 603.555,-47.665"/>
<polygon fill="midnightblue" stroke="midnightblue" points="559.046,-38.1547 548.669,-40.2921 558.114,-45.0924 559.046,-38.1547"/>
</g>
<!-- Node10 -->
<g id="node10" class="node"><title>Node10</title>
<g id="a_node10"><a xlink:href="$classAP__AHRS__NavEKF.html#ae76a84b4b941df4d8a4304ff242d18a5" xlink:title="AP_AHRS_NavEKF::reset\l_attitude">
<polygon fill="white" stroke="black" points="603.693,-0.5 603.693,-28.5 736.959,-28.5 736.959,-0.5 603.693,-0.5"/>
<text text-anchor="start" x="611.693" y="-16.5" font-family="Helvetica,sans-Serif" font-size="10.00">AP_AHRS_NavEKF::reset</text>
<text text-anchor="middle" x="670.326" y="-6.5" font-family="Helvetica,sans-Serif" font-size="10.00">_attitude</text>
</a>
</g>
</g>
<!-- Node8&#45;&gt;Node10 -->
<g id="edge9" class="edge"><title>Node8&#45;&gt;Node10</title>
<path fill="none" stroke="midnightblue" d="M558.7,-25.6453C573.409,-24.1634 588.935,-22.5992 603.555,-21.1263"/>
<polygon fill="midnightblue" stroke="midnightblue" points="558.268,-22.1711 548.669,-26.6559 558.969,-29.1358 558.268,-22.1711"/>
</g>
<!-- Node12 -->
<g id="node12" class="node"><title>Node12</title>
<g id="a_node12"><a xlink:href="$classNavEKF.html#a58d3c9694abab421e8eadd78e72ac67c" xlink:title="NavEKF::UpdateFilter">
<polygon fill="white" stroke="black" points="433.034,-65.5 433.034,-83.5 546.29,-83.5 546.29,-65.5 433.034,-65.5"/>
<text text-anchor="middle" x="489.662" y="-71.5" font-family="Helvetica,sans-Serif" font-size="10.00">NavEKF::UpdateFilter</text>
</a>
</g>
</g>
<!-- Node11&#45;&gt;Node12 -->
<g id="edge11" class="edge"><title>Node11&#45;&gt;Node12</title>
<path fill="none" stroke="midnightblue" d="M403.7,-74.5C413.562,-74.5 423.485,-74.5 432.895,-74.5"/>
<polygon fill="midnightblue" stroke="midnightblue" points="403.469,-71.0001 393.469,-74.5 403.469,-78.0001 403.469,-71.0001"/>
</g>
<!-- Node12&#45;&gt;Node5 -->
<g id="edge12" class="edge"><title>Node12&#45;&gt;Node5</title>
<path fill="none" stroke="midnightblue" d="M554.232,-85.1743C574.256,-88.5366 596.169,-92.2159 615.45,-95.4536"/>
<polygon fill="midnightblue" stroke="midnightblue" points="554.708,-81.7053 544.267,-83.501 553.549,-88.6087 554.708,-81.7053"/>
</g>
</g>
</svg>
