<?xml version="1.0" encoding="UTF-8" standalone="no"?>
<!DOCTYPE svg PUBLIC "-//W3C//DTD SVG 1.1//EN"
 "http://www.w3.org/Graphics/SVG/1.1/DTD/svg11.dtd">
<!-- Generated by graphviz version 2.38.0 (20140413.2041)
 -->
<!-- Title: libraries/AP_Airspeed/AP_Airspeed_I2C.h Pages: 1 -->
<svg width="1362pt" height="587pt"
 viewBox="0.00 0.00 1361.97 587.00" xmlns="http://www.w3.org/2000/svg" xmlns:xlink="http://www.w3.org/1999/xlink">
<g id="graph0" class="graph" transform="scale(1 1) rotate(0) translate(4 583)">
<title>libraries/AP_Airspeed/AP_Airspeed_I2C.h</title>
<polygon fill="white" stroke="none" points="-4,4 -4,-583 1357.97,-583 1357.97,4 -4,4"/>
<!-- Node1 -->
<g id="node1" class="node"><title>Node1</title>
<polygon fill="#bfbfbf" stroke="black" points="579.892,-550.5 579.892,-578.5 692.049,-578.5 692.049,-550.5 579.892,-550.5"/>
<text text-anchor="start" x="587.892" y="-566.5" font-family="Helvetica,sans-Serif" font-size="10.00">libraries/AP_Airspeed</text>
<text text-anchor="middle" x="635.97" y="-556.5" font-family="Helvetica,sans-Serif" font-size="10.00">/AP_Airspeed_I2C.h</text>
</g>
<!-- Node2 -->
<g id="node2" class="node"><title>Node2</title>
<g id="a_node2"><a xlink:href="$AP__HAL_8h.html" xlink:title="AP_HAL/AP_HAL.h">
<polygon fill="white" stroke="black" points="630.057,-440.5 630.057,-458.5 733.884,-458.5 733.884,-440.5 630.057,-440.5"/>
<text text-anchor="middle" x="681.97" y="-446.5" font-family="Helvetica,sans-Serif" font-size="10.00">AP_HAL/AP_HAL.h</text>
</a>
</g>
</g>
<!-- Node1&#45;&gt;Node2 -->
<g id="edge1" class="edge"><title>Node1&#45;&gt;Node2</title>
<path fill="none" stroke="midnightblue" d="M644.082,-550.427C649.898,-540.657 657.621,-526.83 662.97,-514 669.204,-499.049 674.327,-481.341 677.676,-468.428"/>
<polygon fill="midnightblue" stroke="midnightblue" points="681.127,-469.054 680.146,-458.505 674.334,-467.363 681.127,-469.054"/>
</g>
<!-- Node30 -->
<g id="node30" class="node"><title>Node30</title>
<g id="a_node30"><a xlink:href="$AP__Airspeed__Backend_8h.html" xlink:title="AP_Airspeed_Backend.h">
<polygon fill="white" stroke="black" points="526.377,-495.5 526.377,-513.5 653.563,-513.5 653.563,-495.5 526.377,-495.5"/>
<text text-anchor="middle" x="589.97" y="-501.5" font-family="Helvetica,sans-Serif" font-size="10.00">AP_Airspeed_Backend.h</text>
</a>
</g>
</g>
<!-- Node1&#45;&gt;Node30 -->
<g id="edge68" class="edge"><title>Node1&#45;&gt;Node30</title>
<path fill="none" stroke="midnightblue" d="M625.532,-550.339C618.783,-541.829 609.951,-530.693 602.778,-521.649"/>
<polygon fill="midnightblue" stroke="midnightblue" points="605.487,-519.432 596.53,-513.771 600.002,-523.781 605.487,-519.432"/>
</g>
<!-- Node3 -->
<g id="node3" class="node"><title>Node3</title>
<polygon fill="white" stroke="#bfbfbf" points="419.85,-110.5 419.85,-128.5 468.091,-128.5 468.091,-110.5 419.85,-110.5"/>
<text text-anchor="middle" x="443.97" y="-116.5" font-family="Helvetica,sans-Serif" font-size="10.00">stdint.h</text>
</g>
<!-- Node2&#45;&gt;Node3 -->
<g id="edge2" class="edge"><title>Node2&#45;&gt;Node3</title>
<path fill="none" stroke="midnightblue" d="M629.767,-441.534C540.48,-428.143 367.97,-395.194 367.97,-340.5 367.97,-340.5 367.97,-340.5 367.97,-283.5 367.97,-224.897 408.821,-164.609 430.623,-136.607"/>
<polygon fill="midnightblue" stroke="midnightblue" points="433.441,-138.687 436.957,-128.693 427.976,-134.314 433.441,-138.687"/>
</g>
<!-- Node4 -->
<g id="node4" class="node"><title>Node4</title>
<polygon fill="white" stroke="#bfbfbf" points="181.677,-110.5 181.677,-128.5 238.263,-128.5 238.263,-110.5 181.677,-110.5"/>
<text text-anchor="middle" x="209.97" y="-116.5" font-family="Helvetica,sans-Serif" font-size="10.00">stdbool.h</text>
</g>
<!-- Node2&#45;&gt;Node4 -->
<g id="edge3" class="edge"><title>Node2&#45;&gt;Node4</title>
<path fill="none" stroke="midnightblue" d="M629.958,-445.402C521.457,-437.514 280.97,-411.968 280.97,-340.5 280.97,-340.5 280.97,-340.5 280.97,-283.5 280.97,-232.313 241.234,-231.818 222.97,-184 217.318,-169.202 213.951,-151.479 212.065,-138.521"/>
<polygon fill="midnightblue" stroke="midnightblue" points="215.53,-138.019 210.769,-128.554 208.588,-138.922 215.53,-138.019"/>
</g>
<!-- Node5 -->
<g id="node5" class="node"><title>Node5</title>
<g id="a_node5"><a xlink:href="$AP__HAL__Namespace_8h.html" xlink:title="AP_HAL_Namespace.h">
<polygon fill="white" stroke="black" points="879.163,-55.5 879.163,-73.5 1000.78,-73.5 1000.78,-55.5 879.163,-55.5"/>
<text text-anchor="middle" x="939.97" y="-61.5" font-family="Helvetica,sans-Serif" font-size="10.00">AP_HAL_Namespace.h</text>
</a>
</g>
</g>
<!-- Node2&#45;&gt;Node5 -->
<g id="edge4" class="edge"><title>Node2&#45;&gt;Node5</title>
<path fill="none" stroke="midnightblue" d="M734.129,-447.766C844.51,-445.576 1098.06,-437 1176.97,-404 1217.26,-387.148 1251.97,-384.176 1251.97,-340.5 1251.97,-340.5 1251.97,-340.5 1251.97,-228.5 1251.97,-166.408 1232.9,-138.955 1177.97,-110 1126.24,-82.7329 1060.46,-71.9595 1011.17,-67.8059"/>
<polygon fill="midnightblue" stroke="midnightblue" points="1011.15,-64.2943 1000.91,-67.0166 1010.61,-71.2737 1011.15,-64.2943"/>
</g>
<!-- Node8 -->
<g id="node8" class="node"><title>Node8</title>
<g id="a_node8"><a xlink:href="$AP__HAL__Boards_8h.html" xlink:title="AP_HAL_Boards.h">
<polygon fill="white" stroke="black" points="0,-165.5 0,-183.5 99.9404,-183.5 99.9404,-165.5 0,-165.5"/>
<text text-anchor="middle" x="49.9702" y="-171.5" font-family="Helvetica,sans-Serif" font-size="10.00">AP_HAL_Boards.h</text>
</a>
</g>
</g>
<!-- Node2&#45;&gt;Node8 -->
<g id="edge7" class="edge"><title>Node2&#45;&gt;Node8</title>
<path fill="none" stroke="midnightblue" d="M629.775,-447.566C546.646,-445.113 379.519,-436.222 241.97,-404 163.847,-385.699 72.9702,-420.738 72.9702,-340.5 72.9702,-340.5 72.9702,-340.5 72.9702,-283.5 72.9702,-251.014 62.8919,-214.212 56.0781,-193.044"/>
<polygon fill="midnightblue" stroke="midnightblue" points="59.3779,-191.875 52.8832,-183.504 52.7403,-194.098 59.3779,-191.875"/>
</g>
<!-- Node9 -->
<g id="node9" class="node"><title>Node9</title>
<g id="a_node9"><a xlink:href="$AP__HAL__Macros_8h.html" xlink:title="AP_HAL_Macros.h">
<polygon fill="white" stroke="black" points="951.451,-385.5 951.451,-403.5 1052.49,-403.5 1052.49,-385.5 951.451,-385.5"/>
<text text-anchor="middle" x="1001.97" y="-391.5" font-family="Helvetica,sans-Serif" font-size="10.00">AP_HAL_Macros.h</text>
</a>
</g>
</g>
<!-- Node2&#45;&gt;Node9 -->
<g id="edge8" class="edge"><title>Node2&#45;&gt;Node9</title>
<path fill="none" stroke="midnightblue" d="M730.571,-440.45C787.711,-430.987 882.48,-415.291 943.561,-405.174"/>
<polygon fill="midnightblue" stroke="midnightblue" points="944.143,-408.625 953.437,-403.538 943,-401.719 944.143,-408.625"/>
</g>
<!-- Node10 -->
<g id="node10" class="node"><title>Node10</title>
<g id="a_node10"><a xlink:href="$AP__HAL__Main_8h.html" xlink:title="AP_HAL_Main.h">
<polygon fill="white" stroke="black" points="767.005,-385.5 767.005,-403.5 856.936,-403.5 856.936,-385.5 767.005,-385.5"/>
<text text-anchor="middle" x="811.97" y="-391.5" font-family="Helvetica,sans-Serif" font-size="10.00">AP_HAL_Main.h</text>
</a>
</g>
</g>
<!-- Node2&#45;&gt;Node10 -->
<g id="edge9" class="edge"><title>Node2&#45;&gt;Node10</title>
<path fill="none" stroke="midnightblue" d="M701.714,-440.45C723.285,-431.656 758.057,-417.48 782.78,-407.401"/>
<polygon fill="midnightblue" stroke="midnightblue" points="784.102,-410.642 792.04,-403.625 781.459,-404.16 784.102,-410.642"/>
</g>
<!-- Node11 -->
<g id="node11" class="node"><title>Node11</title>
<g id="a_node11"><a xlink:href="$HAL_8h.html" xlink:title="HAL.h">
<polygon fill="white" stroke="black" points="797.074,-330.5 797.074,-348.5 840.867,-348.5 840.867,-330.5 797.074,-330.5"/>
<text text-anchor="middle" x="818.97" y="-336.5" font-family="Helvetica,sans-Serif" font-size="10.00">HAL.h</text>
</a>
</g>
</g>
<!-- Node2&#45;&gt;Node11 -->
<g id="edge67" class="edge"><title>Node2&#45;&gt;Node11</title>
<path fill="none" stroke="midnightblue" d="M691.168,-440.479C705.3,-428.232 733.31,-404.264 757.97,-385 771.306,-374.582 786.704,-363.356 798.693,-354.785"/>
<polygon fill="midnightblue" stroke="midnightblue" points="800.982,-357.451 807.106,-348.806 796.927,-351.746 800.982,-357.451"/>
</g>
<!-- Node12 -->
<g id="node12" class="node"><title>Node12</title>
<g id="a_node12"><a xlink:href="$AnalogIn_8h.html" xlink:title="AnalogIn.h">
<polygon fill="white" stroke="black" points="1049.06,-220.5 1049.06,-238.5 1112.88,-238.5 1112.88,-220.5 1049.06,-220.5"/>
<text text-anchor="middle" x="1080.97" y="-226.5" font-family="Helvetica,sans-Serif" font-size="10.00">AnalogIn.h</text>
</a>
</g>
</g>
<!-- Node2&#45;&gt;Node12 -->
<g id="edge49" class="edge"><title>Node2&#45;&gt;Node12</title>
<path fill="none" stroke="midnightblue" d="M734.221,-445.719C832.712,-439.997 1038.13,-425.606 1061.97,-404 1105.73,-364.339 1093.87,-284.5 1085.72,-248.651"/>
<polygon fill="midnightblue" stroke="midnightblue" points="1089.05,-247.547 1083.28,-238.665 1082.25,-249.21 1089.05,-247.547"/>
</g>
<!-- Node14 -->
<g id="node14" class="node"><title>Node14</title>
<g id="a_node14"><a xlink:href="$GPIO_8h.html" xlink:title="GPIO.h">
<polygon fill="white" stroke="black" points="777.298,-220.5 777.298,-238.5 826.643,-238.5 826.643,-220.5 777.298,-220.5"/>
<text text-anchor="middle" x="801.97" y="-226.5" font-family="Helvetica,sans-Serif" font-size="10.00">GPIO.h</text>
</a>
</g>
</g>
<!-- Node2&#45;&gt;Node14 -->
<g id="edge51" class="edge"><title>Node2&#45;&gt;Node14</title>
<path fill="none" stroke="midnightblue" d="M676.021,-440.27C657.453,-413.502 604.133,-327.607 643.97,-275 651.532,-265.015 723.222,-247.757 767.396,-237.925"/>
<polygon fill="midnightblue" stroke="midnightblue" points="768.162,-241.34 777.174,-235.769 766.655,-234.504 768.162,-241.34"/>
</g>
<!-- Node15 -->
<g id="node15" class="node"><title>Node15</title>
<g id="a_node15"><a xlink:href="$RCInput_8h.html" xlink:title="RCInput.h">
<polygon fill="white" stroke="black" points="1015.46,-275.5 1015.46,-293.5 1076.48,-293.5 1076.48,-275.5 1015.46,-275.5"/>
<text text-anchor="middle" x="1045.97" y="-281.5" font-family="Helvetica,sans-Serif" font-size="10.00">RCInput.h</text>
</a>
</g>
</g>
<!-- Node2&#45;&gt;Node15 -->
<g id="edge52" class="edge"><title>Node2&#45;&gt;Node15</title>
<path fill="none" stroke="midnightblue" d="M734.126,-443.62C777.214,-438.126 839.167,-426.79 888.97,-404 947.223,-377.344 1004.41,-326.122 1030.81,-300.652"/>
<polygon fill="midnightblue" stroke="midnightblue" points="1033.28,-303.126 1037.98,-293.629 1028.39,-298.124 1033.28,-303.126"/>
</g>
<!-- Node16 -->
<g id="node16" class="node"><title>Node16</title>
<g id="a_node16"><a xlink:href="$RCOutput_8h.html" xlink:title="RCOutput.h">
<polygon fill="white" stroke="black" points="730.569,-275.5 730.569,-293.5 799.372,-293.5 799.372,-275.5 730.569,-275.5"/>
<text text-anchor="middle" x="764.97" y="-281.5" font-family="Helvetica,sans-Serif" font-size="10.00">RCOutput.h</text>
</a>
</g>
</g>
<!-- Node2&#45;&gt;Node16 -->
<g id="edge53" class="edge"><title>Node2&#45;&gt;Node16</title>
<path fill="none" stroke="midnightblue" d="M686.2,-440.193C699.133,-414.794 738.344,-337.791 756.084,-302.952"/>
<polygon fill="midnightblue" stroke="midnightblue" points="759.428,-304.097 760.847,-293.597 753.191,-300.92 759.428,-304.097"/>
</g>
<!-- Node17 -->
<g id="node17" class="node"><title>Node17</title>
<g id="a_node17"><a xlink:href="$SPIDriver_8h.html" xlink:title="SPIDriver.h">
<polygon fill="white" stroke="black" points="930.682,-275.5 930.682,-293.5 997.258,-293.5 997.258,-275.5 930.682,-275.5"/>
<text text-anchor="middle" x="963.97" y="-281.5" font-family="Helvetica,sans-Serif" font-size="10.00">SPIDriver.h</text>
</a>
</g>
</g>
<!-- Node2&#45;&gt;Node17 -->
<g id="edge48" class="edge"><title>Node2&#45;&gt;Node17</title>
<path fill="none" stroke="midnightblue" d="M734.205,-446.726C773.814,-442.984 827.771,-432.492 865.97,-404 896.461,-381.258 884.22,-358.885 908.97,-330 918.934,-318.372 932.237,-307.516 943.264,-299.437"/>
<polygon fill="midnightblue" stroke="midnightblue" points="945.377,-302.23 951.513,-293.592 941.33,-296.518 945.377,-302.23"/>
</g>
<!-- Node18 -->
<g id="node18" class="node"><title>Node18</title>
<g id="a_node18"><a xlink:href="$Storage_8h.html" xlink:title="Storage.h">
<polygon fill="white" stroke="black" points="653.288,-275.5 653.288,-293.5 712.652,-293.5 712.652,-275.5 653.288,-275.5"/>
<text text-anchor="middle" x="682.97" y="-281.5" font-family="Helvetica,sans-Serif" font-size="10.00">Storage.h</text>
</a>
</g>
</g>
<!-- Node2&#45;&gt;Node18 -->
<g id="edge50" class="edge"><title>Node2&#45;&gt;Node18</title>
<path fill="none" stroke="midnightblue" d="M682.021,-440.193C682.176,-415.013 682.641,-339.114 682.858,-303.862"/>
<polygon fill="midnightblue" stroke="midnightblue" points="686.359,-303.618 682.921,-293.597 679.359,-303.575 686.359,-303.618"/>
</g>
<!-- Node19 -->
<g id="node19" class="node"><title>Node19</title>
<g id="a_node19"><a xlink:href="$UARTDriver_8h.html" xlink:title="UARTDriver.h">
<polygon fill="white" stroke="black" points="405.218,-275.5 405.218,-293.5 482.722,-293.5 482.722,-275.5 405.218,-275.5"/>
<text text-anchor="middle" x="443.97" y="-281.5" font-family="Helvetica,sans-Serif" font-size="10.00">UARTDriver.h</text>
</a>
</g>
</g>
<!-- Node2&#45;&gt;Node19 -->
<g id="edge44" class="edge"><title>Node2&#45;&gt;Node19</title>
<path fill="none" stroke="midnightblue" d="M629.817,-448.012C589.402,-445.026 534.198,-434.922 496.97,-404 465.71,-378.034 452.192,-329.856 446.932,-303.639"/>
<polygon fill="midnightblue" stroke="midnightblue" points="450.337,-302.801 445.108,-293.586 443.449,-304.05 450.337,-302.801"/>
</g>
<!-- Node22 -->
<g id="node22" class="node"><title>Node22</title>
<g id="a_node22"><a xlink:href="$BetterStream_8h.html" xlink:title="utility/BetterStream.h">
<polygon fill="white" stroke="black" points="604.564,-220.5 604.564,-238.5 713.376,-238.5 713.376,-220.5 604.564,-220.5"/>
<text text-anchor="middle" x="658.97" y="-226.5" font-family="Helvetica,sans-Serif" font-size="10.00">utility/BetterStream.h</text>
</a>
</g>
</g>
<!-- Node2&#45;&gt;Node22 -->
<g id="edge66" class="edge"><title>Node2&#45;&gt;Node22</title>
<path fill="none" stroke="midnightblue" d="M630.559,-440.467C609.002,-434.281 585.965,-423.341 572.97,-404 540.996,-356.41 543.167,-323.978 572.97,-275 582.54,-259.273 599.659,-248.859 616.118,-242.089"/>
<polygon fill="midnightblue" stroke="midnightblue" points="617.532,-245.297 625.67,-238.512 615.077,-238.741 617.532,-245.297"/>
</g>
<!-- Node24 -->
<g id="node24" class="node"><title>Node24</title>
<g id="a_node24"><a xlink:href="$Stream_8h.html" xlink:title="Stream.h">
<polygon fill="white" stroke="black" points="1167.68,-165.5 1167.68,-183.5 1224.26,-183.5 1224.26,-165.5 1167.68,-165.5"/>
<text text-anchor="middle" x="1195.97" y="-171.5" font-family="Helvetica,sans-Serif" font-size="10.00">Stream.h</text>
</a>
</g>
</g>
<!-- Node2&#45;&gt;Node24 -->
<g id="edge65" class="edge"><title>Node2&#45;&gt;Node24</title>
<path fill="none" stroke="midnightblue" d="M733.949,-448.862C867.814,-448.403 1213.97,-437.808 1213.97,-340.5 1213.97,-340.5 1213.97,-340.5 1213.97,-283.5 1213.97,-251.436 1206.16,-214.736 1200.82,-193.431"/>
<polygon fill="midnightblue" stroke="midnightblue" points="1204.16,-192.347 1198.25,-183.552 1197.38,-194.112 1204.16,-192.347"/>
</g>
<!-- Node25 -->
<g id="node25" class="node"><title>Node25</title>
<g id="a_node25"><a xlink:href="$Print_8h.html" xlink:title="Print.h">
<polygon fill="white" stroke="black" points="1243.52,-110.5 1243.52,-128.5 1288.42,-128.5 1288.42,-110.5 1243.52,-110.5"/>
<text text-anchor="middle" x="1265.97" y="-116.5" font-family="Helvetica,sans-Serif" font-size="10.00">Print.h</text>
</a>
</g>
</g>
<!-- Node2&#45;&gt;Node25 -->
<g id="edge64" class="edge"><title>Node2&#45;&gt;Node25</title>
<path fill="none" stroke="midnightblue" d="M734.236,-448.125C858.616,-446.658 1169.04,-439.444 1265.97,-404 1311.27,-387.436 1353.97,-388.73 1353.97,-340.5 1353.97,-340.5 1353.97,-340.5 1353.97,-228.5 1353.97,-186.96 1314.36,-152.547 1288.29,-134.395"/>
<polygon fill="midnightblue" stroke="midnightblue" points="1289.98,-131.315 1279.72,-128.668 1286.09,-137.134 1289.98,-131.315"/>
</g>
<!-- Node26 -->
<g id="node26" class="node"><title>Node26</title>
<g id="a_node26"><a xlink:href="$I2CDriver_8h.html" xlink:title="I2CDriver.h">
<polygon fill="white" stroke="black" points="655.96,-165.5 655.96,-183.5 721.98,-183.5 721.98,-165.5 655.96,-165.5"/>
<text text-anchor="middle" x="688.97" y="-171.5" font-family="Helvetica,sans-Serif" font-size="10.00">I2CDriver.h</text>
</a>
</g>
</g>
<!-- Node2&#45;&gt;Node26 -->
<g id="edge45" class="edge"><title>Node2&#45;&gt;Node26</title>
<path fill="none" stroke="midnightblue" d="M672.327,-440.264C663.223,-431.984 649.828,-418.41 641.97,-404 625.905,-374.538 625.752,-363.536 626.97,-330 627.86,-305.507 616.465,-294.756 630.97,-275 656.712,-239.941 697.518,-274.97 721.97,-239 732.597,-223.368 718.937,-203.888 706.105,-190.656"/>
<polygon fill="midnightblue" stroke="midnightblue" points="708.468,-188.073 698.835,-183.663 703.616,-193.118 708.468,-188.073"/>
</g>
<!-- Node27 -->
<g id="node27" class="node"><title>Node27</title>
<g id="a_node27"><a xlink:href="$Scheduler_8h.html" xlink:title="Scheduler.h">
<polygon fill="white" stroke="black" points="146.559,-220.5 146.559,-238.5 215.381,-238.5 215.381,-220.5 146.559,-220.5"/>
<text text-anchor="middle" x="180.97" y="-226.5" font-family="Helvetica,sans-Serif" font-size="10.00">Scheduler.h</text>
</a>
</g>
</g>
<!-- Node2&#45;&gt;Node27 -->
<g id="edge54" class="edge"><title>Node2&#45;&gt;Node27</title>
<path fill="none" stroke="midnightblue" d="M629.745,-449.006C531.616,-448.985 324.41,-444.036 266.97,-404 213.214,-366.532 191.462,-285.546 184.142,-249.026"/>
<polygon fill="midnightblue" stroke="midnightblue" points="187.518,-248.035 182.25,-238.843 180.635,-249.314 187.518,-248.035"/>
</g>
<!-- Node28 -->
<g id="node28" class="node"><title>Node28</title>
<g id="a_node28"><a xlink:href="$Semaphores_8h.html" xlink:title="Semaphores.h">
<polygon fill="white" stroke="black" points="1104.45,-330.5 1104.45,-348.5 1185.49,-348.5 1185.49,-330.5 1104.45,-330.5"/>
<text text-anchor="middle" x="1144.97" y="-336.5" font-family="Helvetica,sans-Serif" font-size="10.00">Semaphores.h</text>
</a>
</g>
</g>
<!-- Node2&#45;&gt;Node28 -->
<g id="edge59" class="edge"><title>Node2&#45;&gt;Node28</title>
<path fill="none" stroke="midnightblue" d="M734.01,-447.857C830.792,-445.86 1034.16,-437.66 1094.97,-404 1113.72,-393.62 1127.9,-373.019 1136.28,-358.091"/>
<polygon fill="midnightblue" stroke="midnightblue" points="1139.58,-359.335 1141.15,-348.857 1133.39,-356.073 1139.58,-359.335"/>
</g>
<!-- Node29 -->
<g id="node29" class="node"><title>Node29</title>
<g id="a_node29"><a xlink:href="$Util_8h.html" xlink:title="Util.h">
<polygon fill="white" stroke="black" points="547.579,-220.5 547.579,-238.5 586.362,-238.5 586.362,-220.5 547.579,-220.5"/>
<text text-anchor="middle" x="566.97" y="-226.5" font-family="Helvetica,sans-Serif" font-size="10.00">Util.h</text>
</a>
</g>
</g>
<!-- Node2&#45;&gt;Node29 -->
<g id="edge61" class="edge"><title>Node2&#45;&gt;Node29</title>
<path fill="none" stroke="midnightblue" d="M629.752,-441.317C605.025,-435.302 577.024,-424.26 558.97,-404 519.883,-360.136 544.929,-282.537 559.127,-247.964"/>
<polygon fill="midnightblue" stroke="midnightblue" points="562.374,-249.271 563.101,-238.701 555.942,-246.51 562.374,-249.271"/>
</g>
<!-- Node6 -->
<g id="node6" class="node"><title>Node6</title>
<polygon fill="white" stroke="#bfbfbf" points="1058.57,-0.5 1058.57,-18.5 1107.37,-18.5 1107.37,-0.5 1058.57,-0.5"/>
<text text-anchor="middle" x="1082.97" y="-6.5" font-family="Helvetica,sans-Serif" font-size="10.00">string.h</text>
</g>
<!-- Node5&#45;&gt;Node6 -->
<g id="edge5" class="edge"><title>Node5&#45;&gt;Node6</title>
<path fill="none" stroke="midnightblue" d="M961.689,-55.4504C985.627,-46.5784 1024.34,-32.2288 1051.58,-22.134"/>
<polygon fill="midnightblue" stroke="midnightblue" points="1052.89,-25.3825 1061.05,-18.6253 1050.45,-18.8188 1052.89,-25.3825"/>
</g>
<!-- Node7 -->
<g id="node7" class="node"><title>Node7</title>
<g id="a_node7"><a xlink:href="$functor_8h.html" xlink:title="utility/functor.h">
<polygon fill="white" stroke="black" points="900.007,-0.5 900.007,-18.5 979.933,-18.5 979.933,-0.5 900.007,-0.5"/>
<text text-anchor="middle" x="939.97" y="-6.5" font-family="Helvetica,sans-Serif" font-size="10.00">utility/functor.h</text>
</a>
</g>
</g>
<!-- Node5&#45;&gt;Node7 -->
<g id="edge6" class="edge"><title>Node5&#45;&gt;Node7</title>
<path fill="none" stroke="midnightblue" d="M939.97,-55.2188C939.97,-48.1769 939.97,-37.8083 939.97,-28.8277"/>
<polygon fill="midnightblue" stroke="midnightblue" points="943.47,-28.5495 939.97,-18.5496 936.47,-28.5496 943.47,-28.5495"/>
</g>
<!-- Node10&#45;&gt;Node11 -->
<g id="edge10" class="edge"><title>Node10&#45;&gt;Node11</title>
<path fill="none" stroke="midnightblue" d="M813.064,-385.219C814.004,-378.099 815.394,-367.577 816.589,-358.529"/>
<polygon fill="midnightblue" stroke="midnightblue" points="820.067,-358.922 817.907,-348.55 813.128,-358.005 820.067,-358.922"/>
</g>
<!-- Node11&#45;&gt;Node5 -->
<g id="edge11" class="edge"><title>Node11&#45;&gt;Node5</title>
<path fill="none" stroke="midnightblue" d="M826.842,-330.369C842.165,-314.174 876.301,-276.229 896.97,-239 925.546,-187.53 935.383,-117.069 938.562,-84.0256"/>
<polygon fill="midnightblue" stroke="midnightblue" points="942.084,-83.9124 939.454,-73.6493 935.11,-83.3126 942.084,-83.9124"/>
</g>
<!-- Node11&#45;&gt;Node12 -->
<g id="edge12" class="edge"><title>Node11&#45;&gt;Node12</title>
<path fill="none" stroke="midnightblue" d="M829.833,-330.368C848.023,-317.091 886.177,-290.671 921.97,-275 960.118,-258.298 1006.17,-246.222 1038.88,-238.899"/>
<polygon fill="midnightblue" stroke="midnightblue" points="1039.98,-242.242 1049,-236.689 1038.48,-235.403 1039.98,-242.242"/>
</g>
<!-- Node11&#45;&gt;Node14 -->
<g id="edge15" class="edge"><title>Node11&#45;&gt;Node14</title>
<path fill="none" stroke="midnightblue" d="M817.692,-330.382C814.985,-313.182 808.612,-272.698 804.864,-248.887"/>
<polygon fill="midnightblue" stroke="midnightblue" points="808.275,-248.046 803.263,-238.712 801.36,-249.134 808.275,-248.046"/>
</g>
<!-- Node11&#45;&gt;Node15 -->
<g id="edge18" class="edge"><title>Node11&#45;&gt;Node15</title>
<path fill="none" stroke="midnightblue" d="M841.149,-333.322C879.165,-324.446 957.305,-306.202 1005.32,-294.991"/>
<polygon fill="midnightblue" stroke="midnightblue" points="1006.14,-298.393 1015.08,-292.711 1004.55,-291.577 1006.14,-298.393"/>
</g>
<!-- Node11&#45;&gt;Node16 -->
<g id="edge20" class="edge"><title>Node11&#45;&gt;Node16</title>
<path fill="none" stroke="midnightblue" d="M810.533,-330.219C802.481,-322.316 790.161,-310.224 780.361,-300.606"/>
<polygon fill="midnightblue" stroke="midnightblue" points="782.76,-298.056 773.172,-293.55 777.857,-303.052 782.76,-298.056"/>
</g>
<!-- Node11&#45;&gt;Node17 -->
<g id="edge22" class="edge"><title>Node11&#45;&gt;Node17</title>
<path fill="none" stroke="midnightblue" d="M840.993,-330.45C865.265,-321.578 904.523,-307.229 932.141,-297.134"/>
<polygon fill="midnightblue" stroke="midnightblue" points="933.55,-300.346 941.741,-293.625 931.147,-293.771 933.55,-300.346"/>
</g>
<!-- Node11&#45;&gt;Node18 -->
<g id="edge24" class="edge"><title>Node11&#45;&gt;Node18</title>
<path fill="none" stroke="midnightblue" d="M798.315,-330.45C775.649,-321.617 739.05,-307.355 713.165,-297.267"/>
<polygon fill="midnightblue" stroke="midnightblue" points="714.408,-293.995 703.82,-293.625 711.867,-300.518 714.408,-293.995"/>
</g>
<!-- Node11&#45;&gt;Node19 -->
<g id="edge27" class="edge"><title>Node11&#45;&gt;Node19</title>
<path fill="none" stroke="midnightblue" d="M796.912,-335.382C737.893,-327.041 575.275,-304.058 493.004,-292.43"/>
<polygon fill="midnightblue" stroke="midnightblue" points="493.295,-288.936 482.903,-291.003 492.315,-295.868 493.295,-288.936"/>
</g>
<!-- Node12&#45;&gt;Node5 -->
<g id="edge14" class="edge"><title>Node12&#45;&gt;Node5</title>
<path fill="none" stroke="midnightblue" d="M1079.64,-220.218C1075.87,-199.216 1063.28,-143.2 1031.97,-110 1017.69,-94.8625 997.187,-84.2551 979.158,-77.2042"/>
<polygon fill="midnightblue" stroke="midnightblue" points="980.045,-73.8017 969.451,-73.6467 977.636,-80.3742 980.045,-73.8017"/>
</g>
<!-- Node13 -->
<g id="node13" class="node"><title>Node13</title>
<polygon fill="white" stroke="#bfbfbf" points="1261.57,-55.5 1261.57,-73.5 1320.37,-73.5 1320.37,-55.5 1261.57,-55.5"/>
<text text-anchor="middle" x="1290.97" y="-61.5" font-family="Helvetica,sans-Serif" font-size="10.00">inttypes.h</text>
</g>
<!-- Node12&#45;&gt;Node13 -->
<g id="edge13" class="edge"><title>Node12&#45;&gt;Node13</title>
<path fill="none" stroke="midnightblue" d="M1113.05,-223.217C1144.91,-217.049 1194.43,-204.924 1232.97,-184 1265.93,-166.106 1281.32,-163.084 1296.97,-129 1303.54,-114.691 1300.96,-96.688 1297.37,-83.5084"/>
<polygon fill="midnightblue" stroke="midnightblue" points="1300.64,-82.2421 1294.29,-73.7591 1293.96,-84.3488 1300.64,-82.2421"/>
</g>
<!-- Node14&#45;&gt;Node3 -->
<g id="edge16" class="edge"><title>Node14&#45;&gt;Node3</title>
<path fill="none" stroke="midnightblue" d="M795.552,-220.253C784.192,-206.307 759.075,-178.292 730.97,-165 646.612,-125.104 534.228,-119.635 478.429,-119.667"/>
<polygon fill="midnightblue" stroke="midnightblue" points="478.344,-116.168 468.368,-119.734 478.391,-123.168 478.344,-116.168"/>
</g>
<!-- Node14&#45;&gt;Node5 -->
<g id="edge17" class="edge"><title>Node14&#45;&gt;Node5</title>
<path fill="none" stroke="midnightblue" d="M803.24,-220.235C806.855,-199.276 819.012,-143.349 849.97,-110 863.978,-94.9098 884.221,-84.271 901.963,-77.1884"/>
<polygon fill="midnightblue" stroke="midnightblue" points="903.369,-80.3992 911.506,-73.6139 900.914,-73.8439 903.369,-80.3992"/>
</g>
<!-- Node15&#45;&gt;Node5 -->
<g id="edge19" class="edge"><title>Node15&#45;&gt;Node5</title>
<path fill="none" stroke="midnightblue" d="M1042.99,-275.299C1033.64,-249.981 1003.58,-171.08 969.97,-110 964.683,-100.392 957.916,-90.2116 952.148,-82.0167"/>
<polygon fill="midnightblue" stroke="midnightblue" points="954.875,-79.8142 946.191,-73.7442 949.194,-83.9046 954.875,-79.8142"/>
</g>
<!-- Node16&#45;&gt;Node5 -->
<g id="edge21" class="edge"><title>Node16&#45;&gt;Node5</title>
<path fill="none" stroke="midnightblue" d="M799.584,-277.742C824.422,-271.925 857.067,-260.582 877.97,-239 883.651,-233.135 919.725,-126.213 934.085,-83.2014"/>
<polygon fill="midnightblue" stroke="midnightblue" points="937.466,-84.1245 937.307,-73.5309 930.825,-81.9118 937.466,-84.1245"/>
</g>
<!-- Node17&#45;&gt;Node5 -->
<g id="edge23" class="edge"><title>Node17&#45;&gt;Node5</title>
<path fill="none" stroke="midnightblue" d="M964.207,-275.462C964.79,-250.612 965.496,-172.917 953.97,-110 952.306,-100.916 949.347,-91.0951 946.576,-82.9964"/>
<polygon fill="midnightblue" stroke="midnightblue" points="949.854,-81.7675 943.168,-73.5488 943.269,-84.1431 949.854,-81.7675"/>
</g>
<!-- Node18&#45;&gt;Node3 -->
<g id="edge25" class="edge"><title>Node18&#45;&gt;Node3</title>
<path fill="none" stroke="midnightblue" d="M653.159,-279.551C622.374,-274.33 574.019,-262.843 538.97,-239 499.322,-212.028 468.063,-163.576 453.283,-137.774"/>
<polygon fill="midnightblue" stroke="midnightblue" points="456.209,-135.834 448.287,-128.799 450.093,-139.239 456.209,-135.834"/>
</g>
<!-- Node18&#45;&gt;Node5 -->
<g id="edge26" class="edge"><title>Node18&#45;&gt;Node5</title>
<path fill="none" stroke="midnightblue" d="M712.811,-276.073C754.476,-265.514 826.113,-246.602 835.97,-239 850.165,-228.054 907.867,-124.214 930.652,-82.6121"/>
<polygon fill="midnightblue" stroke="midnightblue" points="933.809,-84.1319 935.531,-73.678 927.666,-80.7764 933.809,-84.1319"/>
</g>
<!-- Node19&#45;&gt;Node3 -->
<g id="edge28" class="edge"><title>Node19&#45;&gt;Node3</title>
<path fill="none" stroke="midnightblue" d="M443.97,-275.193C443.97,-250.013 443.97,-174.114 443.97,-138.862"/>
<polygon fill="midnightblue" stroke="midnightblue" points="447.47,-138.597 443.97,-128.597 440.47,-138.597 447.47,-138.597"/>
</g>
<!-- Node19&#45;&gt;Node5 -->
<g id="edge33" class="edge"><title>Node19&#45;&gt;Node5</title>
<path fill="none" stroke="midnightblue" d="M449.799,-275.26C470.977,-246.097 547.384,-147.526 637.97,-110 712.758,-79.0192 805.814,-69.1663 868.713,-66.2582"/>
<polygon fill="midnightblue" stroke="midnightblue" points="869.083,-69.746 878.929,-65.8347 868.793,-62.752 869.083,-69.746"/>
</g>
<!-- Node20 -->
<g id="node20" class="node"><title>Node20</title>
<g id="a_node20"><a xlink:href="$AP__Common_8h.html" xlink:title="Common definitions and utility routines for the ArduPilot libraries. ">
<polygon fill="white" stroke="black" points="231.943,-165.5 231.943,-183.5 377.997,-183.5 377.997,-165.5 231.943,-165.5"/>
<text text-anchor="middle" x="304.97" y="-171.5" font-family="Helvetica,sans-Serif" font-size="10.00">AP_Common/AP_Common.h</text>
</a>
</g>
</g>
<!-- Node19&#45;&gt;Node20 -->
<g id="edge29" class="edge"><title>Node19&#45;&gt;Node20</title>
<path fill="none" stroke="midnightblue" d="M433.523,-275.382C410.077,-257.166 353.018,-212.832 323.437,-189.848"/>
<polygon fill="midnightblue" stroke="midnightblue" points="325.583,-187.083 315.539,-183.712 321.288,-192.611 325.583,-187.083"/>
</g>
<!-- Node19&#45;&gt;Node22 -->
<g id="edge34" class="edge"><title>Node19&#45;&gt;Node22</title>
<path fill="none" stroke="midnightblue" d="M476.624,-275.45C514.065,-266.221 575.552,-251.063 616.64,-240.935"/>
<polygon fill="midnightblue" stroke="midnightblue" points="617.49,-244.33 626.362,-238.538 615.815,-237.534 617.49,-244.33"/>
</g>
<!-- Node20&#45;&gt;Node3 -->
<g id="edge30" class="edge"><title>Node20&#45;&gt;Node3</title>
<path fill="none" stroke="midnightblue" d="M326.081,-165.45C349.248,-156.617 386.653,-142.355 413.11,-132.267"/>
<polygon fill="midnightblue" stroke="midnightblue" points="414.564,-135.458 422.66,-128.625 412.07,-128.918 414.564,-135.458"/>
</g>
<!-- Node20&#45;&gt;Node4 -->
<g id="edge32" class="edge"><title>Node20&#45;&gt;Node4</title>
<path fill="none" stroke="midnightblue" d="M290.542,-165.45C275.476,-157.045 251.598,-143.724 233.741,-133.762"/>
<polygon fill="midnightblue" stroke="midnightblue" points="234.973,-130.441 224.534,-128.625 231.562,-136.554 234.973,-130.441"/>
</g>
<!-- Node21 -->
<g id="node21" class="node"><title>Node21</title>
<polygon fill="white" stroke="#bfbfbf" points="281.128,-110.5 281.128,-128.5 328.812,-128.5 328.812,-110.5 281.128,-110.5"/>
<text text-anchor="middle" x="304.97" y="-116.5" font-family="Helvetica,sans-Serif" font-size="10.00">stdlib.h</text>
</g>
<!-- Node20&#45;&gt;Node21 -->
<g id="edge31" class="edge"><title>Node20&#45;&gt;Node21</title>
<path fill="none" stroke="midnightblue" d="M304.97,-165.219C304.97,-158.177 304.97,-147.808 304.97,-138.828"/>
<polygon fill="midnightblue" stroke="midnightblue" points="308.47,-138.55 304.97,-128.55 301.47,-138.55 308.47,-138.55"/>
</g>
<!-- Node22&#45;&gt;Node5 -->
<g id="edge37" class="edge"><title>Node22&#45;&gt;Node5</title>
<path fill="none" stroke="midnightblue" d="M672.696,-220.429C687.326,-211.732 711.075,-197.338 730.97,-184 777.49,-152.811 784.114,-137.384 832.97,-110 856.712,-96.6924 885.241,-85.0227 906.868,-76.976"/>
<polygon fill="midnightblue" stroke="midnightblue" points="908.084,-80.2582 916.278,-73.541 905.684,-73.6827 908.084,-80.2582"/>
</g>
<!-- Node22&#45;&gt;Node20 -->
<g id="edge36" class="edge"><title>Node22&#45;&gt;Node20</title>
<path fill="none" stroke="midnightblue" d="M605.205,-220.45C541.734,-210.948 436.291,-195.161 368.751,-185.049"/>
<polygon fill="midnightblue" stroke="midnightblue" points="369.068,-181.558 358.66,-183.538 368.032,-188.48 369.068,-181.558"/>
</g>
<!-- Node23 -->
<g id="node23" class="node"><title>Node23</title>
<polygon fill="white" stroke="#bfbfbf" points="585.904,-165.5 585.904,-183.5 638.037,-183.5 638.037,-165.5 585.904,-165.5"/>
<text text-anchor="middle" x="611.97" y="-171.5" font-family="Helvetica,sans-Serif" font-size="10.00">stdarg.h</text>
</g>
<!-- Node22&#45;&gt;Node23 -->
<g id="edge35" class="edge"><title>Node22&#45;&gt;Node23</title>
<path fill="none" stroke="midnightblue" d="M651.626,-220.219C644.757,-212.473 634.319,-200.701 625.875,-191.18"/>
<polygon fill="midnightblue" stroke="midnightblue" points="628.362,-188.709 619.109,-183.55 623.125,-193.354 628.362,-188.709"/>
</g>
<!-- Node22&#45;&gt;Node24 -->
<g id="edge38" class="edge"><title>Node22&#45;&gt;Node24</title>
<path fill="none" stroke="midnightblue" d="M713.416,-223.126C822.02,-212.408 1063.21,-188.603 1157.31,-179.315"/>
<polygon fill="midnightblue" stroke="midnightblue" points="1157.91,-182.773 1167.52,-178.308 1157.23,-175.807 1157.91,-182.773"/>
</g>
<!-- Node24&#45;&gt;Node5 -->
<g id="edge39" class="edge"><title>Node24&#45;&gt;Node5</title>
<path fill="none" stroke="midnightblue" d="M1193.01,-165.39C1187.55,-151.653 1174.54,-123.943 1153.97,-110 1112.01,-81.5541 1055.56,-70.6786 1011.18,-66.7819"/>
<polygon fill="midnightblue" stroke="midnightblue" points="1011.28,-63.2793 1001.04,-65.9933 1010.74,-70.2583 1011.28,-63.2793"/>
</g>
<!-- Node24&#45;&gt;Node25 -->
<g id="edge40" class="edge"><title>Node24&#45;&gt;Node25</title>
<path fill="none" stroke="midnightblue" d="M1206.6,-165.45C1217.29,-157.357 1234,-144.704 1246.97,-134.882"/>
<polygon fill="midnightblue" stroke="midnightblue" points="1249.38,-137.452 1255.24,-128.625 1245.15,-131.871 1249.38,-137.452"/>
</g>
<!-- Node25&#45;&gt;Node5 -->
<g id="edge41" class="edge"><title>Node25&#45;&gt;Node5</title>
<path fill="none" stroke="midnightblue" d="M1243.18,-112.829C1238.81,-111.824 1234.26,-110.834 1229.97,-110 1155.65,-95.5468 1069.86,-82.8743 1010.98,-74.7879"/>
<polygon fill="midnightblue" stroke="midnightblue" points="1011.42,-71.3156 1001.04,-73.431 1010.47,-78.2513 1011.42,-71.3156"/>
</g>
<!-- Node25&#45;&gt;Node6 -->
<g id="edge43" class="edge"><title>Node25&#45;&gt;Node6</title>
<path fill="none" stroke="midnightblue" d="M1252.22,-110.382C1220.95,-91.9313 1144.29,-46.6862 1105.8,-23.9713"/>
<polygon fill="midnightblue" stroke="midnightblue" points="1107.28,-20.7801 1096.88,-18.7118 1103.72,-26.8086 1107.28,-20.7801"/>
</g>
<!-- Node25&#45;&gt;Node13 -->
<g id="edge42" class="edge"><title>Node25&#45;&gt;Node13</title>
<path fill="none" stroke="midnightblue" d="M1269.88,-110.219C1273.35,-102.864 1278.53,-91.8801 1282.89,-82.639"/>
<polygon fill="midnightblue" stroke="midnightblue" points="1286.07,-84.0871 1287.17,-73.5496 1279.74,-81.1007 1286.07,-84.0871"/>
</g>
<!-- Node26&#45;&gt;Node3 -->
<g id="edge46" class="edge"><title>Node26&#45;&gt;Node3</title>
<path fill="none" stroke="midnightblue" d="M655.928,-166.352C609.542,-156.318 525.527,-138.143 478.402,-127.949"/>
<polygon fill="midnightblue" stroke="midnightblue" points="478.889,-124.473 468.375,-125.779 477.409,-131.315 478.889,-124.473"/>
</g>
<!-- Node26&#45;&gt;Node5 -->
<g id="edge47" class="edge"><title>Node26&#45;&gt;Node5</title>
<path fill="none" stroke="midnightblue" d="M697.646,-165.208C712.242,-151.701 743.146,-124.957 773.97,-110 807.785,-93.592 848.515,-82.5569 881.167,-75.5799"/>
<polygon fill="midnightblue" stroke="midnightblue" points="881.939,-78.9943 891.024,-73.5435 880.523,-72.1391 881.939,-78.9943"/>
</g>
<!-- Node27&#45;&gt;Node3 -->
<g id="edge55" class="edge"><title>Node27&#45;&gt;Node3</title>
<path fill="none" stroke="midnightblue" d="M183.923,-220.377C189.369,-206.619 202.358,-178.878 222.97,-165 253.026,-144.764 355.213,-130.521 409.469,-124.188"/>
<polygon fill="midnightblue" stroke="midnightblue" points="410.107,-127.638 419.646,-123.028 409.313,-120.684 410.107,-127.638"/>
</g>
<!-- Node27&#45;&gt;Node5 -->
<g id="edge58" class="edge"><title>Node27&#45;&gt;Node5</title>
<path fill="none" stroke="midnightblue" d="M173.567,-220.387C166.45,-211.99 156.172,-198.143 151.97,-184 142.234,-151.228 145.386,-130.197 172.97,-110 228.296,-69.4911 689.622,-65.3479 869.009,-65.2857"/>
<polygon fill="midnightblue" stroke="midnightblue" points="869.132,-68.7856 879.132,-65.2864 869.132,-61.7856 869.132,-68.7856"/>
</g>
<!-- Node27&#45;&gt;Node8 -->
<g id="edge57" class="edge"><title>Node27&#45;&gt;Node8</title>
<path fill="none" stroke="midnightblue" d="M161.074,-220.45C139.337,-211.656 104.299,-197.48 79.3849,-187.401"/>
<polygon fill="midnightblue" stroke="midnightblue" points="80.6363,-184.131 70.0535,-183.625 78.0109,-190.62 80.6363,-184.131"/>
</g>
<!-- Node27&#45;&gt;Node20 -->
<g id="edge56" class="edge"><title>Node27&#45;&gt;Node20</title>
<path fill="none" stroke="midnightblue" d="M199.803,-220.45C220.196,-211.734 252.959,-197.731 276.499,-187.669"/>
<polygon fill="midnightblue" stroke="midnightblue" points="278.14,-190.774 285.96,-183.625 275.389,-184.337 278.14,-190.774"/>
</g>
<!-- Node28&#45;&gt;Node5 -->
<g id="edge60" class="edge"><title>Node28&#45;&gt;Node5</title>
<path fill="none" stroke="midnightblue" d="M1144.43,-330.454C1142.9,-310.898 1137.59,-259.571 1121.97,-220 1100.78,-166.32 1097.37,-146.862 1052.97,-110 1033.77,-94.0584 1008.16,-83.345 986.183,-76.4332"/>
<polygon fill="midnightblue" stroke="midnightblue" points="986.958,-73.0123 976.375,-73.5199 984.964,-79.7225 986.958,-73.0123"/>
</g>
<!-- Node29&#45;&gt;Node5 -->
<g id="edge63" class="edge"><title>Node29&#45;&gt;Node5</title>
<path fill="none" stroke="midnightblue" d="M565.799,-220.409C564.363,-207.191 563.571,-180.854 576.97,-165 614.668,-120.399 776.678,-89.5745 871.035,-75.0311"/>
<polygon fill="midnightblue" stroke="midnightblue" points="871.71,-78.4688 881.071,-73.5063 870.659,-71.5483 871.71,-78.4688"/>
</g>
<!-- Node29&#45;&gt;Node23 -->
<g id="edge62" class="edge"><title>Node29&#45;&gt;Node23</title>
<path fill="none" stroke="midnightblue" d="M574.001,-220.219C580.578,-212.473 590.573,-200.701 598.657,-191.18"/>
<polygon fill="midnightblue" stroke="midnightblue" points="601.331,-193.438 605.136,-183.55 595.995,-188.907 601.331,-193.438"/>
</g>
<!-- Node30&#45;&gt;Node2 -->
<g id="edge70" class="edge"><title>Node30&#45;&gt;Node2</title>
<path fill="none" stroke="midnightblue" d="M603.943,-495.45C618.533,-487.045 641.657,-473.724 658.95,-463.762"/>
<polygon fill="midnightblue" stroke="midnightblue" points="660.948,-466.65 667.866,-458.625 657.454,-460.584 660.948,-466.65"/>
</g>
<!-- Node30&#45;&gt;Node20 -->
<g id="edge69" class="edge"><title>Node30&#45;&gt;Node20</title>
<path fill="none" stroke="midnightblue" d="M526.325,-496.853C426.149,-484.601 242.97,-454.177 242.97,-395.5 242.97,-395.5 242.97,-395.5 242.97,-283.5 242.97,-246.422 270.796,-210.553 289.165,-190.913"/>
<polygon fill="midnightblue" stroke="midnightblue" points="291.881,-193.14 296.349,-183.534 286.866,-188.257 291.881,-193.14"/>
</g>
</g>
</svg>
