<?xml version="1.0" encoding="UTF-8" standalone="no"?>
<!DOCTYPE svg PUBLIC "-//W3C//DTD SVG 1.1//EN"
 "http://www.w3.org/Graphics/SVG/1.1/DTD/svg11.dtd">
<!-- Generated by graphviz version 2.38.0 (20140413.2041)
 -->
<!-- Title: libraries/AP_Limits/AP_Limit_Geofence.h Pages: 1 -->
<svg width="394pt" height="232pt"
 viewBox="0.00 0.00 393.62 232.00" xmlns="http://www.w3.org/2000/svg" xmlns:xlink="http://www.w3.org/1999/xlink">
<g id="graph0" class="graph" transform="scale(1 1) rotate(0) translate(4 228)">
<title>libraries/AP_Limits/AP_Limit_Geofence.h</title>
<polygon fill="white" stroke="none" points="-4,4 -4,-228 389.615,-228 389.615,4 -4,4"/>
<!-- Node1 -->
<g id="node1" class="node"><title>Node1</title>
<polygon fill="#bfbfbf" stroke="black" points="133.276,-195.5 133.276,-223.5 249.334,-223.5 249.334,-195.5 133.276,-195.5"/>
<text text-anchor="start" x="141.276" y="-211.5" font-family="Helvetica,sans-Serif" font-size="10.00">libraries/AP_Limits</text>
<text text-anchor="middle" x="191.305" y="-201.5" font-family="Helvetica,sans-Serif" font-size="10.00">/AP_Limit_Geofence.h</text>
</g>
<!-- Node2 -->
<g id="node2" class="node"><title>Node2</title>
<g id="a_node2"><a xlink:href="$AP__Limits_8h.html" xlink:title="libraries/AP_Limits\l/AP_Limits.h">
<polygon fill="white" stroke="black" points="141.904,-130.5 141.904,-158.5 240.707,-158.5 240.707,-130.5 141.904,-130.5"/>
<text text-anchor="start" x="149.904" y="-146.5" font-family="Helvetica,sans-Serif" font-size="10.00">libraries/AP_Limits</text>
<text text-anchor="middle" x="191.305" y="-136.5" font-family="Helvetica,sans-Serif" font-size="10.00">/AP_Limits.h</text>
</a>
</g>
</g>
<!-- Node1&#45;&gt;Node2 -->
<g id="edge1" class="edge"><title>Node1&#45;&gt;Node2</title>
<path fill="none" stroke="midnightblue" d="M184.776,-185.46C184.291,-176.388 184.604,-166.305 185.715,-158.537"/>
<polygon fill="midnightblue" stroke="midnightblue" points="181.294,-185.817 185.712,-195.446 188.264,-185.163 181.294,-185.817"/>
</g>
<!-- Node8 -->
<g id="node8" class="node"><title>Node8</title>
<g id="a_node8"><a xlink:href="$AP__Limit__Geofence_8cpp.html" xlink:title="libraries/AP_Limits\l/AP_Limit_Geofence.cpp">
<polygon fill="white" stroke="black" points="258.995,-130.5 258.995,-158.5 385.615,-158.5 385.615,-130.5 258.995,-130.5"/>
<text text-anchor="start" x="266.995" y="-146.5" font-family="Helvetica,sans-Serif" font-size="10.00">libraries/AP_Limits</text>
<text text-anchor="middle" x="322.305" y="-136.5" font-family="Helvetica,sans-Serif" font-size="10.00">/AP_Limit_Geofence.cpp</text>
</a>
</g>
</g>
<!-- Node1&#45;&gt;Node8 -->
<g id="edge10" class="edge"><title>Node1&#45;&gt;Node8</title>
<path fill="none" stroke="midnightblue" d="M227.567,-191.061C248.973,-180.767 275.62,-167.951 295.197,-158.537"/>
<polygon fill="midnightblue" stroke="midnightblue" points="225.944,-187.958 218.448,-195.446 228.977,-194.266 225.944,-187.958"/>
</g>
<!-- Node2&#45;&gt;Node1 -->
<g id="edge5" class="edge"><title>Node2&#45;&gt;Node1</title>
<path fill="none" stroke="midnightblue" d="M197.833,-168.52C198.319,-177.591 198.008,-187.675 196.898,-195.446"/>
<polygon fill="midnightblue" stroke="midnightblue" points="201.315,-168.166 196.896,-158.537 194.346,-168.82 201.315,-168.166"/>
</g>
<!-- Node3 -->
<g id="node3" class="node"><title>Node3</title>
<g id="a_node3"><a xlink:href="$AP__Limit__Altitude_8h.html" xlink:title="libraries/AP_Limits\l/AP_Limit_Altitude.h">
<polygon fill="white" stroke="black" points="10.2808,-65.5 10.2808,-93.5 116.33,-93.5 116.33,-65.5 10.2808,-65.5"/>
<text text-anchor="start" x="18.2808" y="-81.5" font-family="Helvetica,sans-Serif" font-size="10.00">libraries/AP_Limits</text>
<text text-anchor="middle" x="63.3052" y="-71.5" font-family="Helvetica,sans-Serif" font-size="10.00">/AP_Limit_Altitude.h</text>
</a>
</g>
</g>
<!-- Node2&#45;&gt;Node3 -->
<g id="edge2" class="edge"><title>Node2&#45;&gt;Node3</title>
<path fill="none" stroke="midnightblue" d="M150.055,-126.199C128.08,-115.882 102.064,-102.994 84.2025,-93.5369"/>
<polygon fill="midnightblue" stroke="midnightblue" points="148.647,-129.404 159.191,-130.446 151.598,-123.057 148.647,-129.404"/>
</g>
<!-- Node5 -->
<g id="node5" class="node"><title>Node5</title>
<g id="a_node5"><a xlink:href="$AP__Limit__GPSLock_8h.html" xlink:title="libraries/AP_Limits\l/AP_Limit_GPSLock.h">
<polygon fill="white" stroke="black" points="133.837,-65.5 133.837,-93.5 248.773,-93.5 248.773,-65.5 133.837,-65.5"/>
<text text-anchor="start" x="141.837" y="-81.5" font-family="Helvetica,sans-Serif" font-size="10.00">libraries/AP_Limits</text>
<text text-anchor="middle" x="191.305" y="-71.5" font-family="Helvetica,sans-Serif" font-size="10.00">/AP_Limit_GPSLock.h</text>
</a>
</g>
</g>
<!-- Node2&#45;&gt;Node5 -->
<g id="edge6" class="edge"><title>Node2&#45;&gt;Node5</title>
<path fill="none" stroke="midnightblue" d="M184.776,-120.46C184.291,-111.388 184.604,-101.305 185.715,-93.5369"/>
<polygon fill="midnightblue" stroke="midnightblue" points="181.294,-120.817 185.712,-130.446 188.264,-120.163 181.294,-120.817"/>
</g>
<!-- Node7 -->
<g id="node7" class="node"><title>Node7</title>
<g id="a_node7"><a xlink:href="$AP__Limits_8cpp.html" xlink:title="Imposes limits on location (geofence), altitude and other parameters Each breach will trigger an acti...">
<polygon fill="white" stroke="black" points="266.904,-65.5 266.904,-93.5 365.707,-93.5 365.707,-65.5 266.904,-65.5"/>
<text text-anchor="start" x="274.904" y="-81.5" font-family="Helvetica,sans-Serif" font-size="10.00">libraries/AP_Limits</text>
<text text-anchor="middle" x="316.305" y="-71.5" font-family="Helvetica,sans-Serif" font-size="10.00">/AP_Limits.cpp</text>
</a>
</g>
</g>
<!-- Node2&#45;&gt;Node7 -->
<g id="edge9" class="edge"><title>Node2&#45;&gt;Node7</title>
<path fill="none" stroke="midnightblue" d="M226.181,-125.922C246.559,-115.652 271.842,-102.909 290.438,-93.5369"/>
<polygon fill="midnightblue" stroke="midnightblue" points="224.56,-122.82 217.205,-130.446 227.71,-129.071 224.56,-122.82"/>
</g>
<!-- Node3&#45;&gt;Node2 -->
<g id="edge4" class="edge"><title>Node3&#45;&gt;Node2</title>
<path fill="none" stroke="midnightblue" d="M104.516,-97.7824C126.487,-108.097 152.505,-120.986 170.376,-130.446"/>
<polygon fill="midnightblue" stroke="midnightblue" points="105.927,-94.5785 95.3832,-93.5369 102.976,-100.926 105.927,-94.5785"/>
</g>
<!-- Node4 -->
<g id="node4" class="node"><title>Node4</title>
<g id="a_node4"><a xlink:href="$AP__Limit__Altitude_8cpp.html" xlink:title="libraries/AP_Limits\l/AP_Limit_Altitude.cpp">
<polygon fill="white" stroke="black" points="0,-0.5 0,-28.5 116.61,-28.5 116.61,-0.5 0,-0.5"/>
<text text-anchor="start" x="8" y="-16.5" font-family="Helvetica,sans-Serif" font-size="10.00">libraries/AP_Limits</text>
<text text-anchor="middle" x="58.3052" y="-6.5" font-family="Helvetica,sans-Serif" font-size="10.00">/AP_Limit_Altitude.cpp</text>
</a>
</g>
</g>
<!-- Node3&#45;&gt;Node4 -->
<g id="edge3" class="edge"><title>Node3&#45;&gt;Node4</title>
<path fill="none" stroke="midnightblue" d="M61.4766,-55.4603C60.7566,-46.3882 59.9564,-36.305 59.3399,-28.5369"/>
<polygon fill="midnightblue" stroke="midnightblue" points="57.9889,-55.7546 62.2692,-65.4464 64.9669,-55.2008 57.9889,-55.7546"/>
</g>
<!-- Node5&#45;&gt;Node2 -->
<g id="edge7" class="edge"><title>Node5&#45;&gt;Node2</title>
<path fill="none" stroke="midnightblue" d="M197.833,-103.52C198.319,-112.591 198.008,-122.675 196.898,-130.446"/>
<polygon fill="midnightblue" stroke="midnightblue" points="201.315,-103.166 196.896,-93.5369 194.346,-103.82 201.315,-103.166"/>
</g>
<!-- Node6 -->
<g id="node6" class="node"><title>Node6</title>
<g id="a_node6"><a xlink:href="$AP__Limit__GPSLock_8cpp.html" xlink:title="libraries/AP_Limits\l/AP_Limit_GPSLock.cpp">
<polygon fill="white" stroke="black" points="134.557,-0.5 134.557,-28.5 260.054,-28.5 260.054,-0.5 134.557,-0.5"/>
<text text-anchor="start" x="142.557" y="-16.5" font-family="Helvetica,sans-Serif" font-size="10.00">libraries/AP_Limits</text>
<text text-anchor="middle" x="197.305" y="-6.5" font-family="Helvetica,sans-Serif" font-size="10.00">/AP_Limit_GPSLock.cpp</text>
</a>
</g>
</g>
<!-- Node5&#45;&gt;Node6 -->
<g id="edge8" class="edge"><title>Node5&#45;&gt;Node6</title>
<path fill="none" stroke="midnightblue" d="M193.499,-55.4603C194.363,-46.3882 195.324,-36.305 196.064,-28.5369"/>
<polygon fill="midnightblue" stroke="midnightblue" points="190.012,-55.1595 192.548,-65.4464 196.981,-55.8233 190.012,-55.1595"/>
</g>
</g>
</svg>
