<?xml version="1.0" encoding="UTF-8" standalone="no"?>
<!DOCTYPE svg PUBLIC "-//W3C//DTD SVG 1.1//EN"
 "http://www.w3.org/Graphics/SVG/1.1/DTD/svg11.dtd">
<!-- Generated by graphviz version 2.38.0 (20140413.2041)
 -->
<!-- Title: libraries/AP_IRLock/AP_IRLock_PX4.h Pages: 1 -->
<svg width="320pt" height="232pt"
 viewBox="0.00 0.00 320.11 232.00" xmlns="http://www.w3.org/2000/svg" xmlns:xlink="http://www.w3.org/1999/xlink">
<g id="graph0" class="graph" transform="scale(1 1) rotate(0) translate(4 228)">
<title>libraries/AP_IRLock/AP_IRLock_PX4.h</title>
<polygon fill="white" stroke="none" points="-4,4 -4,-228 316.108,-228 316.108,4 -4,4"/>
<!-- Node1 -->
<g id="node1" class="node"><title>Node1</title>
<polygon fill="#bfbfbf" stroke="black" points="141.118,-195.5 141.118,-223.5 244.931,-223.5 244.931,-195.5 141.118,-195.5"/>
<text text-anchor="start" x="149.118" y="-211.5" font-family="Helvetica,sans-Serif" font-size="10.00">libraries/AP_IRLock</text>
<text text-anchor="middle" x="193.024" y="-201.5" font-family="Helvetica,sans-Serif" font-size="10.00">/AP_IRLock_PX4.h</text>
</g>
<!-- Node2 -->
<g id="node2" class="node"><title>Node2</title>
<g id="a_node2"><a xlink:href="$AP__IRLock_8h.html" xlink:title="libraries/AP_IRLock\l/AP_IRLock.h">
<polygon fill="white" stroke="black" points="78.1182,-130.5 78.1182,-158.5 181.931,-158.5 181.931,-130.5 78.1182,-130.5"/>
<text text-anchor="start" x="86.1182" y="-146.5" font-family="Helvetica,sans-Serif" font-size="10.00">libraries/AP_IRLock</text>
<text text-anchor="middle" x="130.024" y="-136.5" font-family="Helvetica,sans-Serif" font-size="10.00">/AP_IRLock.h</text>
</a>
</g>
</g>
<!-- Node1&#45;&gt;Node2 -->
<g id="edge1" class="edge"><title>Node1&#45;&gt;Node2</title>
<path fill="none" stroke="midnightblue" d="M172.615,-188.091C162.908,-178.383 151.589,-167.065 143.061,-158.537"/>
<polygon fill="midnightblue" stroke="midnightblue" points="170.425,-190.85 179.971,-195.446 175.375,-185.9 170.425,-190.85"/>
</g>
<!-- Node6 -->
<g id="node6" class="node"><title>Node6</title>
<g id="a_node6"><a xlink:href="$AP__IRLock__PX4_8cpp.html" xlink:title="libraries/AP_IRLock\l/AP_IRLock_PX4.cpp">
<polygon fill="white" stroke="black" points="199.941,-130.5 199.941,-158.5 312.108,-158.5 312.108,-130.5 199.941,-130.5"/>
<text text-anchor="start" x="207.941" y="-146.5" font-family="Helvetica,sans-Serif" font-size="10.00">libraries/AP_IRLock</text>
<text text-anchor="middle" x="256.024" y="-136.5" font-family="Helvetica,sans-Serif" font-size="10.00">/AP_IRLock_PX4.cpp</text>
</a>
</g>
</g>
<!-- Node1&#45;&gt;Node6 -->
<g id="edge5" class="edge"><title>Node1&#45;&gt;Node6</title>
<path fill="none" stroke="midnightblue" d="M213.434,-188.091C223.141,-178.383 234.46,-167.065 242.987,-158.537"/>
<polygon fill="midnightblue" stroke="midnightblue" points="210.674,-185.9 206.078,-195.446 215.624,-190.85 210.674,-185.9"/>
</g>
<!-- Node3 -->
<g id="node3" class="node"><title>Node3</title>
<g id="a_node3"><a xlink:href="$AC__PrecLand__IRLock_8h.html" xlink:title="libraries/AC_PrecLand\l/AC_PrecLand_IRLock.h">
<polygon fill="white" stroke="black" points="66.9927,-65.5 66.9927,-93.5 193.056,-93.5 193.056,-65.5 66.9927,-65.5"/>
<text text-anchor="start" x="74.9927" y="-81.5" font-family="Helvetica,sans-Serif" font-size="10.00">libraries/AC_PrecLand</text>
<text text-anchor="middle" x="130.024" y="-71.5" font-family="Helvetica,sans-Serif" font-size="10.00">/AC_PrecLand_IRLock.h</text>
</a>
</g>
</g>
<!-- Node2&#45;&gt;Node3 -->
<g id="edge2" class="edge"><title>Node2&#45;&gt;Node3</title>
<path fill="none" stroke="midnightblue" d="M130.024,-120.164C130.024,-111.169 130.024,-101.221 130.024,-93.5369"/>
<polygon fill="midnightblue" stroke="midnightblue" points="126.525,-120.446 130.024,-130.446 133.525,-120.446 126.525,-120.446"/>
</g>
<!-- Node4 -->
<g id="node4" class="node"><title>Node4</title>
<g id="a_node4"><a xlink:href="$AC__PrecLand_8cpp.html" xlink:title="libraries/AC_PrecLand\l/AC_PrecLand.cpp">
<polygon fill="white" stroke="black" points="0,-0.5 0,-28.5 116.049,-28.5 116.049,-0.5 0,-0.5"/>
<text text-anchor="start" x="8" y="-16.5" font-family="Helvetica,sans-Serif" font-size="10.00">libraries/AC_PrecLand</text>
<text text-anchor="middle" x="58.0244" y="-6.5" font-family="Helvetica,sans-Serif" font-size="10.00">/AC_PrecLand.cpp</text>
</a>
</g>
</g>
<!-- Node3&#45;&gt;Node4 -->
<g id="edge3" class="edge"><title>Node3&#45;&gt;Node4</title>
<path fill="none" stroke="midnightblue" d="M107.356,-58.6654C96.1188,-48.8326 82.863,-37.2338 72.9237,-28.5369"/>
<polygon fill="midnightblue" stroke="midnightblue" points="105.275,-61.4953 115.106,-65.4464 109.885,-56.2273 105.275,-61.4953"/>
</g>
<!-- Node5 -->
<g id="node5" class="node"><title>Node5</title>
<g id="a_node5"><a xlink:href="$AC__PrecLand__IRLock_8cpp.html" xlink:title="libraries/AC_PrecLand\l/AC_PrecLand_IRLock.cpp">
<polygon fill="white" stroke="black" points="133.712,-0.5 133.712,-28.5 270.337,-28.5 270.337,-0.5 133.712,-0.5"/>
<text text-anchor="start" x="141.712" y="-16.5" font-family="Helvetica,sans-Serif" font-size="10.00">libraries/AC_PrecLand</text>
<text text-anchor="middle" x="202.024" y="-6.5" font-family="Helvetica,sans-Serif" font-size="10.00">/AC_PrecLand_IRLock.cpp</text>
</a>
</g>
</g>
<!-- Node3&#45;&gt;Node5 -->
<g id="edge4" class="edge"><title>Node3&#45;&gt;Node5</title>
<path fill="none" stroke="midnightblue" d="M152.693,-58.6654C163.93,-48.8326 177.186,-37.2338 187.125,-28.5369"/>
<polygon fill="midnightblue" stroke="midnightblue" points="150.164,-56.2273 144.943,-65.4464 154.773,-61.4953 150.164,-56.2273"/>
</g>
</g>
</svg>
