<?xml version="1.0" encoding="UTF-8" standalone="no"?>
<!DOCTYPE svg PUBLIC "-//W3C//DTD SVG 1.1//EN"
 "http://www.w3.org/Graphics/SVG/1.1/DTD/svg11.dtd">
<!-- Generated by graphviz version 2.38.0 (20140413.2041)
 -->
<!-- Title: libraries/AP_HAL_FLYMAPLE/Scheduler.cpp Pages: 1 -->
<svg width="1480pt" height="697pt"
 viewBox="0.00 0.00 1480.34 697.00" xmlns="http://www.w3.org/2000/svg" xmlns:xlink="http://www.w3.org/1999/xlink">
<g id="graph0" class="graph" transform="scale(1 1) rotate(0) translate(4 693)">
<title>libraries/AP_HAL_FLYMAPLE/Scheduler.cpp</title>
<polygon fill="white" stroke="none" points="-4,4 -4,-693 1476.34,-693 1476.34,4 -4,4"/>
<!-- Node1 -->
<g id="node1" class="node"><title>Node1</title>
<polygon fill="#bfbfbf" stroke="black" points="1194.4,-660.5 1194.4,-688.5 1343.6,-688.5 1343.6,-660.5 1194.4,-660.5"/>
<text text-anchor="start" x="1202.4" y="-676.5" font-family="Helvetica,sans-Serif" font-size="10.00">libraries/AP_HAL_FLYMAPLE</text>
<text text-anchor="middle" x="1269" y="-666.5" font-family="Helvetica,sans-Serif" font-size="10.00">/Scheduler.cpp</text>
</g>
<!-- Node2 -->
<g id="node2" class="node"><title>Node2</title>
<g id="a_node2"><a xlink:href="$AP__HAL_8h.html" xlink:title="AP_HAL/AP_HAL.h">
<polygon fill="white" stroke="black" points="838.086,-440.5 838.086,-458.5 941.914,-458.5 941.914,-440.5 838.086,-440.5"/>
<text text-anchor="middle" x="890" y="-446.5" font-family="Helvetica,sans-Serif" font-size="10.00">AP_HAL/AP_HAL.h</text>
</a>
</g>
</g>
<!-- Node1&#45;&gt;Node2 -->
<g id="edge1" class="edge"><title>Node1&#45;&gt;Node2</title>
<path fill="none" stroke="midnightblue" d="M1194.27,-664.286C1127.52,-652.532 1030.71,-626.341 967,-569 934.288,-539.56 909.614,-493.198 897.774,-468.081"/>
<polygon fill="midnightblue" stroke="midnightblue" points="900.839,-466.369 893.499,-458.729 894.473,-469.279 900.839,-466.369"/>
</g>
<!-- Node23 -->
<g id="node23" class="node"><title>Node23</title>
<polygon fill="white" stroke="#bfbfbf" points="1169.93,-165.5 1169.93,-183.5 1222.07,-183.5 1222.07,-165.5 1169.93,-165.5"/>
<text text-anchor="middle" x="1196" y="-171.5" font-family="Helvetica,sans-Serif" font-size="10.00">stdarg.h</text>
</g>
<!-- Node1&#45;&gt;Node23 -->
<g id="edge74" class="edge"><title>Node1&#45;&gt;Node23</title>
<path fill="none" stroke="midnightblue" d="M1287.42,-660.489C1311.87,-641.534 1352,-603.828 1352,-560.5 1352,-560.5 1352,-560.5 1352,-393.5 1352,-309.668 1334.43,-281.999 1278,-220 1264.79,-205.48 1245.7,-194.734 1229.27,-187.443"/>
<polygon fill="midnightblue" stroke="midnightblue" points="1230.54,-184.181 1219.96,-183.547 1227.84,-190.638 1230.54,-184.181"/>
</g>
<!-- Node30 -->
<g id="node30" class="node"><title>Node30</title>
<g id="a_node30"><a xlink:href="$FLYMAPLE_2Scheduler_8h.html" xlink:title="Scheduler.h">
<polygon fill="white" stroke="black" points="1083.59,-605.5 1083.59,-623.5 1152.41,-623.5 1152.41,-605.5 1083.59,-605.5"/>
<text text-anchor="middle" x="1118" y="-611.5" font-family="Helvetica,sans-Serif" font-size="10.00">Scheduler.h</text>
</a>
</g>
</g>
<!-- Node1&#45;&gt;Node30 -->
<g id="edge68" class="edge"><title>Node1&#45;&gt;Node30</title>
<path fill="none" stroke="midnightblue" d="M1235.11,-660.484C1209.17,-650.518 1173.69,-636.889 1148.6,-627.252"/>
<polygon fill="midnightblue" stroke="midnightblue" points="1149.79,-623.962 1139.2,-623.643 1147.28,-630.496 1149.79,-623.962"/>
</g>
<!-- Node34 -->
<g id="node34" class="node"><title>Node34</title>
<g id="a_node34"><a xlink:href="$FlymapleWirish_8h.html" xlink:title="FlymapleWirish.h">
<polygon fill="white" stroke="black" points="1379.66,-605.5 1379.66,-623.5 1472.34,-623.5 1472.34,-605.5 1379.66,-605.5"/>
<text text-anchor="middle" x="1426" y="-611.5" font-family="Helvetica,sans-Serif" font-size="10.00">FlymapleWirish.h</text>
</a>
</g>
</g>
<!-- Node1&#45;&gt;Node34 -->
<g id="edge75" class="edge"><title>Node1&#45;&gt;Node34</title>
<path fill="none" stroke="midnightblue" d="M1304.23,-660.484C1331.33,-650.474 1368.43,-636.769 1394.53,-627.125"/>
<polygon fill="midnightblue" stroke="midnightblue" points="1395.79,-630.392 1403.96,-623.643 1393.36,-623.826 1395.79,-630.392"/>
</g>
<!-- Node3 -->
<g id="node3" class="node"><title>Node3</title>
<polygon fill="white" stroke="#bfbfbf" points="367.879,-110.5 367.879,-128.5 416.121,-128.5 416.121,-110.5 367.879,-110.5"/>
<text text-anchor="middle" x="392" y="-116.5" font-family="Helvetica,sans-Serif" font-size="10.00">stdint.h</text>
</g>
<!-- Node2&#45;&gt;Node3 -->
<g id="edge2" class="edge"><title>Node2&#45;&gt;Node3</title>
<path fill="none" stroke="midnightblue" d="M837.63,-448.941C702.759,-448.675 354,-438.511 354,-340.5 354,-340.5 354,-340.5 354,-228.5 354,-194.678 370.788,-158.104 382.047,-137.378"/>
<polygon fill="midnightblue" stroke="midnightblue" points="385.158,-138.986 387.032,-128.559 379.065,-135.542 385.158,-138.986"/>
</g>
<!-- Node4 -->
<g id="node4" class="node"><title>Node4</title>
<polygon fill="white" stroke="#bfbfbf" points="699.707,-110.5 699.707,-128.5 756.293,-128.5 756.293,-110.5 699.707,-110.5"/>
<text text-anchor="middle" x="728" y="-116.5" font-family="Helvetica,sans-Serif" font-size="10.00">stdbool.h</text>
</g>
<!-- Node2&#45;&gt;Node4 -->
<g id="edge3" class="edge"><title>Node2&#45;&gt;Node4</title>
<path fill="none" stroke="midnightblue" d="M838.045,-444.285C808.592,-439.192 773.283,-428.087 751,-404 681.165,-328.514 709.728,-188.236 722.813,-138.532"/>
<polygon fill="midnightblue" stroke="midnightblue" points="726.192,-139.446 725.467,-128.876 719.442,-137.59 726.192,-139.446"/>
</g>
<!-- Node5 -->
<g id="node5" class="node"><title>Node5</title>
<g id="a_node5"><a xlink:href="$AP__HAL__Namespace_8h.html" xlink:title="AP_HAL_Namespace.h">
<polygon fill="white" stroke="black" points="799.192,-55.5 799.192,-73.5 920.808,-73.5 920.808,-55.5 799.192,-55.5"/>
<text text-anchor="middle" x="860" y="-61.5" font-family="Helvetica,sans-Serif" font-size="10.00">AP_HAL_Namespace.h</text>
</a>
</g>
</g>
<!-- Node2&#45;&gt;Node5 -->
<g id="edge4" class="edge"><title>Node2&#45;&gt;Node5</title>
<path fill="none" stroke="midnightblue" d="M838.017,-447.542C692.992,-444.521 286.089,-433.577 156,-404 83.0057,-387.404 0,-415.357 0,-340.5 0,-340.5 0,-340.5 0,-173.5 0,-123.083 46.2396,-126.15 94,-110 221.389,-66.9246 624.288,-64.1146 788.893,-64.8508"/>
<polygon fill="midnightblue" stroke="midnightblue" points="788.897,-68.3508 798.914,-64.9014 788.932,-61.3509 788.897,-68.3508"/>
</g>
<!-- Node8 -->
<g id="node8" class="node"><title>Node8</title>
<g id="a_node8"><a xlink:href="$AP__HAL__Boards_8h.html" xlink:title="AP_HAL_Boards.h">
<polygon fill="white" stroke="black" points="66.0298,-165.5 66.0298,-183.5 165.97,-183.5 165.97,-165.5 66.0298,-165.5"/>
<text text-anchor="middle" x="116" y="-171.5" font-family="Helvetica,sans-Serif" font-size="10.00">AP_HAL_Boards.h</text>
</a>
</g>
</g>
<!-- Node2&#45;&gt;Node8 -->
<g id="edge7" class="edge"><title>Node2&#45;&gt;Node8</title>
<path fill="none" stroke="midnightblue" d="M837.984,-448.246C710.175,-447.055 383.764,-440.428 282,-404 235.91,-387.501 192,-389.454 192,-340.5 192,-340.5 192,-340.5 192,-283.5 192,-244.06 157.683,-208.858 135.169,-190.008"/>
<polygon fill="midnightblue" stroke="midnightblue" points="137.2,-187.15 127.214,-183.609 132.812,-192.604 137.2,-187.15"/>
</g>
<!-- Node9 -->
<g id="node9" class="node"><title>Node9</title>
<g id="a_node9"><a xlink:href="$AP__HAL__Macros_8h.html" xlink:title="AP_HAL_Macros.h">
<polygon fill="white" stroke="black" points="1146.48,-385.5 1146.48,-403.5 1247.52,-403.5 1247.52,-385.5 1146.48,-385.5"/>
<text text-anchor="middle" x="1197" y="-391.5" font-family="Helvetica,sans-Serif" font-size="10.00">AP_HAL_Macros.h</text>
</a>
</g>
</g>
<!-- Node2&#45;&gt;Node9 -->
<g id="edge8" class="edge"><title>Node2&#45;&gt;Node9</title>
<path fill="none" stroke="midnightblue" d="M936.627,-440.45C991.219,-431.026 1081.61,-415.42 1140.24,-405.299"/>
<polygon fill="midnightblue" stroke="midnightblue" points="1141.18,-408.689 1150.44,-403.538 1139.99,-401.791 1141.18,-408.689"/>
</g>
<!-- Node10 -->
<g id="node10" class="node"><title>Node10</title>
<g id="a_node10"><a xlink:href="$AP__HAL__Main_8h.html" xlink:title="AP_HAL_Main.h">
<polygon fill="white" stroke="black" points="772.035,-385.5 772.035,-403.5 861.965,-403.5 861.965,-385.5 772.035,-385.5"/>
<text text-anchor="middle" x="817" y="-391.5" font-family="Helvetica,sans-Serif" font-size="10.00">AP_HAL_Main.h</text>
</a>
</g>
</g>
<!-- Node2&#45;&gt;Node10 -->
<g id="edge9" class="edge"><title>Node2&#45;&gt;Node10</title>
<path fill="none" stroke="midnightblue" d="M878.913,-440.45C867.658,-432.279 850.002,-419.46 836.42,-409.6"/>
<polygon fill="midnightblue" stroke="midnightblue" points="838.34,-406.668 828.191,-403.625 834.227,-412.333 838.34,-406.668"/>
</g>
<!-- Node11 -->
<g id="node11" class="node"><title>Node11</title>
<g id="a_node11"><a xlink:href="$HAL_8h.html" xlink:title="HAL.h">
<polygon fill="white" stroke="black" points="798.104,-330.5 798.104,-348.5 841.896,-348.5 841.896,-330.5 798.104,-330.5"/>
<text text-anchor="middle" x="820" y="-336.5" font-family="Helvetica,sans-Serif" font-size="10.00">HAL.h</text>
</a>
</g>
</g>
<!-- Node2&#45;&gt;Node11 -->
<g id="edge67" class="edge"><title>Node2&#45;&gt;Node11</title>
<path fill="none" stroke="midnightblue" d="M889.057,-440.481C887.263,-427.818 882.462,-402.802 871,-385 863.247,-372.959 851.317,-362.297 840.944,-354.43"/>
<polygon fill="midnightblue" stroke="midnightblue" points="842.884,-351.513 832.724,-348.51 838.793,-357.194 842.884,-351.513"/>
</g>
<!-- Node12 -->
<g id="node12" class="node"><title>Node12</title>
<g id="a_node12"><a xlink:href="$AnalogIn_8h.html" xlink:title="AnalogIn.h">
<polygon fill="white" stroke="black" points="1052.09,-220.5 1052.09,-238.5 1115.91,-238.5 1115.91,-220.5 1052.09,-220.5"/>
<text text-anchor="middle" x="1084" y="-226.5" font-family="Helvetica,sans-Serif" font-size="10.00">AnalogIn.h</text>
</a>
</g>
</g>
<!-- Node2&#45;&gt;Node12 -->
<g id="edge49" class="edge"><title>Node2&#45;&gt;Node12</title>
<path fill="none" stroke="midnightblue" d="M930.255,-440.495C961.873,-433.341 1006.5,-421.3 1043,-404 1081.99,-385.518 1102.91,-387.187 1123,-349 1141.07,-314.648 1114.73,-270.32 1097.3,-246.817"/>
<polygon fill="midnightblue" stroke="midnightblue" points="1099.85,-244.391 1090.95,-238.631 1094.31,-248.679 1099.85,-244.391"/>
</g>
<!-- Node14 -->
<g id="node14" class="node"><title>Node14</title>
<g id="a_node14"><a xlink:href="$GPIO_8h.html" xlink:title="GPIO.h">
<polygon fill="white" stroke="black" points="630.328,-220.5 630.328,-238.5 679.672,-238.5 679.672,-220.5 630.328,-220.5"/>
<text text-anchor="middle" x="655" y="-226.5" font-family="Helvetica,sans-Serif" font-size="10.00">GPIO.h</text>
</a>
</g>
</g>
<!-- Node2&#45;&gt;Node14 -->
<g id="edge51" class="edge"><title>Node2&#45;&gt;Node14</title>
<path fill="none" stroke="midnightblue" d="M837.635,-443.114C786.027,-436.721 712.069,-424.29 692,-404 650.164,-361.703 650.397,-284.455 653.032,-249.082"/>
<polygon fill="midnightblue" stroke="midnightblue" points="656.546,-249.077 653.96,-238.803 649.575,-248.447 656.546,-249.077"/>
</g>
<!-- Node15 -->
<g id="node15" class="node"><title>Node15</title>
<g id="a_node15"><a xlink:href="$RCInput_8h.html" xlink:title="RCInput.h">
<polygon fill="white" stroke="black" points="934.488,-275.5 934.488,-293.5 995.512,-293.5 995.512,-275.5 934.488,-275.5"/>
<text text-anchor="middle" x="965" y="-281.5" font-family="Helvetica,sans-Serif" font-size="10.00">RCInput.h</text>
</a>
</g>
</g>
<!-- Node2&#45;&gt;Node15 -->
<g id="edge52" class="edge"><title>Node2&#45;&gt;Node15</title>
<path fill="none" stroke="midnightblue" d="M893.822,-440.193C905.509,-414.794 940.94,-337.791 956.97,-302.952"/>
<polygon fill="midnightblue" stroke="midnightblue" points="960.274,-304.145 961.274,-293.597 953.915,-301.219 960.274,-304.145"/>
</g>
<!-- Node16 -->
<g id="node16" class="node"><title>Node16</title>
<g id="a_node16"><a xlink:href="$RCOutput_8h.html" xlink:title="RCOutput.h">
<polygon fill="white" stroke="black" points="95.5986,-275.5 95.5986,-293.5 164.401,-293.5 164.401,-275.5 95.5986,-275.5"/>
<text text-anchor="middle" x="130" y="-281.5" font-family="Helvetica,sans-Serif" font-size="10.00">RCOutput.h</text>
</a>
</g>
</g>
<!-- Node2&#45;&gt;Node16 -->
<g id="edge53" class="edge"><title>Node2&#45;&gt;Node16</title>
<path fill="none" stroke="midnightblue" d="M838.03,-448.404C682.99,-447.686 231.17,-442.295 178,-404 145.219,-380.39 134.788,-330.457 131.496,-303.562"/>
<polygon fill="midnightblue" stroke="midnightblue" points="134.976,-303.183 130.478,-293.59 128.012,-303.894 134.976,-303.183"/>
</g>
<!-- Node17 -->
<g id="node17" class="node"><title>Node17</title>
<g id="a_node17"><a xlink:href="$SPIDriver_8h.html" xlink:title="SPIDriver.h">
<polygon fill="white" stroke="black" points="849.712,-275.5 849.712,-293.5 916.288,-293.5 916.288,-275.5 849.712,-275.5"/>
<text text-anchor="middle" x="883" y="-281.5" font-family="Helvetica,sans-Serif" font-size="10.00">SPIDriver.h</text>
</a>
</g>
</g>
<!-- Node2&#45;&gt;Node17 -->
<g id="edge48" class="edge"><title>Node2&#45;&gt;Node17</title>
<path fill="none" stroke="midnightblue" d="M890.184,-440.277C890.414,-428.168 890.697,-404.832 890,-385 889.004,-356.645 886.415,-323.828 884.681,-303.875"/>
<polygon fill="midnightblue" stroke="midnightblue" points="888.152,-303.394 883.777,-293.745 881.18,-304.017 888.152,-303.394"/>
</g>
<!-- Node18 -->
<g id="node18" class="node"><title>Node18</title>
<g id="a_node18"><a xlink:href="$Storage_8h.html" xlink:title="Storage.h">
<polygon fill="white" stroke="black" points="734.318,-275.5 734.318,-293.5 793.682,-293.5 793.682,-275.5 734.318,-275.5"/>
<text text-anchor="middle" x="764" y="-281.5" font-family="Helvetica,sans-Serif" font-size="10.00">Storage.h</text>
</a>
</g>
</g>
<!-- Node2&#45;&gt;Node18 -->
<g id="edge50" class="edge"><title>Node2&#45;&gt;Node18</title>
<path fill="none" stroke="midnightblue" d="M837.863,-444.243C810.815,-439.078 779.962,-427.916 763,-404 741.746,-374.032 750.631,-328.213 757.949,-303.238"/>
<polygon fill="midnightblue" stroke="midnightblue" points="761.306,-304.229 760.992,-293.639 754.633,-302.114 761.306,-304.229"/>
</g>
<!-- Node19 -->
<g id="node19" class="node"><title>Node19</title>
<g id="a_node19"><a xlink:href="$UARTDriver_8h.html" xlink:title="UARTDriver.h">
<polygon fill="white" stroke="black" points="524.248,-275.5 524.248,-293.5 601.752,-293.5 601.752,-275.5 524.248,-275.5"/>
<text text-anchor="middle" x="563" y="-281.5" font-family="Helvetica,sans-Serif" font-size="10.00">UARTDriver.h</text>
</a>
</g>
</g>
<!-- Node2&#45;&gt;Node19 -->
<g id="edge44" class="edge"><title>Node2&#45;&gt;Node19</title>
<path fill="none" stroke="midnightblue" d="M838.073,-445.869C768.517,-441.385 649.903,-430.075 616,-404 583.788,-379.225 570.659,-330.561 565.712,-303.952"/>
<polygon fill="midnightblue" stroke="midnightblue" points="569.107,-303.029 564.018,-293.736 562.201,-304.174 569.107,-303.029"/>
</g>
<!-- Node22 -->
<g id="node22" class="node"><title>Node22</title>
<g id="a_node22"><a xlink:href="$BetterStream_8h.html" xlink:title="utility/BetterStream.h">
<polygon fill="white" stroke="black" points="925.594,-220.5 925.594,-238.5 1034.41,-238.5 1034.41,-220.5 925.594,-220.5"/>
<text text-anchor="middle" x="980" y="-226.5" font-family="Helvetica,sans-Serif" font-size="10.00">utility/BetterStream.h</text>
</a>
</g>
</g>
<!-- Node2&#45;&gt;Node22 -->
<g id="edge66" class="edge"><title>Node2&#45;&gt;Node22</title>
<path fill="none" stroke="midnightblue" d="M899.444,-440.339C923.125,-419.147 984.592,-359.439 1005,-294 1010.11,-277.617 1001.43,-259.445 992.937,-246.753"/>
<polygon fill="midnightblue" stroke="midnightblue" points="995.7,-244.602 986.981,-238.584 990.044,-248.726 995.7,-244.602"/>
</g>
<!-- Node24 -->
<g id="node24" class="node"><title>Node24</title>
<g id="a_node24"><a xlink:href="$Stream_8h.html" xlink:title="Stream.h">
<polygon fill="white" stroke="black" points="1055.71,-165.5 1055.71,-183.5 1112.29,-183.5 1112.29,-165.5 1055.71,-165.5"/>
<text text-anchor="middle" x="1084" y="-171.5" font-family="Helvetica,sans-Serif" font-size="10.00">Stream.h</text>
</a>
</g>
</g>
<!-- Node2&#45;&gt;Node24 -->
<g id="edge65" class="edge"><title>Node2&#45;&gt;Node24</title>
<path fill="none" stroke="midnightblue" d="M936.024,-440.497C983.935,-431.679 1055.36,-417.016 1080,-404 1111.99,-387.103 1122.8,-380.824 1140,-349 1167.53,-298.074 1186.5,-270.389 1158,-220 1149.59,-205.121 1133.99,-194.668 1119.27,-187.651"/>
<polygon fill="midnightblue" stroke="midnightblue" points="1120.38,-184.315 1109.81,-183.523 1117.58,-190.731 1120.38,-184.315"/>
</g>
<!-- Node25 -->
<g id="node25" class="node"><title>Node25</title>
<g id="a_node25"><a xlink:href="$Print_8h.html" xlink:title="Print.h">
<polygon fill="white" stroke="black" points="1129.55,-110.5 1129.55,-128.5 1174.45,-128.5 1174.45,-110.5 1129.55,-110.5"/>
<text text-anchor="middle" x="1152" y="-116.5" font-family="Helvetica,sans-Serif" font-size="10.00">Print.h</text>
</a>
</g>
</g>
<!-- Node2&#45;&gt;Node25 -->
<g id="edge64" class="edge"><title>Node2&#45;&gt;Node25</title>
<path fill="none" stroke="midnightblue" d="M942.23,-441.121C945.196,-440.734 948.135,-440.357 951,-440 1023.54,-430.954 1222.83,-451.962 1278,-404 1358.68,-333.868 1327.86,-239.296 1251,-165 1232.49,-147.104 1205.53,-135.635 1184.42,-128.83"/>
<polygon fill="midnightblue" stroke="midnightblue" points="1185.18,-125.401 1174.59,-125.856 1183.15,-132.101 1185.18,-125.401"/>
</g>
<!-- Node26 -->
<g id="node26" class="node"><title>Node26</title>
<g id="a_node26"><a xlink:href="$I2CDriver_8h.html" xlink:title="I2CDriver.h">
<polygon fill="white" stroke="black" points="221.99,-165.5 221.99,-183.5 288.01,-183.5 288.01,-165.5 221.99,-165.5"/>
<text text-anchor="middle" x="255" y="-171.5" font-family="Helvetica,sans-Serif" font-size="10.00">I2CDriver.h</text>
</a>
</g>
</g>
<!-- Node2&#45;&gt;Node26 -->
<g id="edge45" class="edge"><title>Node2&#45;&gt;Node26</title>
<path fill="none" stroke="midnightblue" d="M837.883,-447.42C708.319,-444.298 379.23,-433.52 340,-404 315.892,-385.859 316,-370.671 316,-340.5 316,-340.5 316,-340.5 316,-283.5 316,-254.042 311.73,-245.511 297,-220 290.64,-208.984 281.041,-198.539 272.625,-190.539"/>
<polygon fill="midnightblue" stroke="midnightblue" points="274.821,-187.806 265.063,-183.68 270.119,-192.991 274.821,-187.806"/>
</g>
<!-- Node27 -->
<g id="node27" class="node"><title>Node27</title>
<g id="a_node27"><a xlink:href="$Scheduler_8h.html" xlink:title="Scheduler.h">
<polygon fill="white" stroke="black" points="219.589,-220.5 219.589,-238.5 288.411,-238.5 288.411,-220.5 219.589,-220.5"/>
<text text-anchor="middle" x="254" y="-226.5" font-family="Helvetica,sans-Serif" font-size="10.00">Scheduler.h</text>
</a>
</g>
</g>
<!-- Node2&#45;&gt;Node27 -->
<g id="edge54" class="edge"><title>Node2&#45;&gt;Node27</title>
<path fill="none" stroke="midnightblue" d="M837.624,-447.925C701.246,-445.957 342.871,-437.61 302,-404 254.951,-365.31 251.72,-284.963 252.858,-248.817"/>
<polygon fill="midnightblue" stroke="midnightblue" points="256.358,-248.897 253.331,-238.743 249.365,-248.568 256.358,-248.897"/>
</g>
<!-- Node28 -->
<g id="node28" class="node"><title>Node28</title>
<g id="a_node28"><a xlink:href="$Semaphores_8h.html" xlink:title="Semaphores.h">
<polygon fill="white" stroke="black" points="1032.48,-330.5 1032.48,-348.5 1113.52,-348.5 1113.52,-330.5 1032.48,-330.5"/>
<text text-anchor="middle" x="1073" y="-336.5" font-family="Helvetica,sans-Serif" font-size="10.00">Semaphores.h</text>
</a>
</g>
</g>
<!-- Node2&#45;&gt;Node28 -->
<g id="edge59" class="edge"><title>Node2&#45;&gt;Node28</title>
<path fill="none" stroke="midnightblue" d="M929.387,-440.465C956.031,-433.727 991.127,-422.219 1018,-404 1036.42,-391.512 1052.42,-371.353 1062.34,-357.103"/>
<polygon fill="midnightblue" stroke="midnightblue" points="1065.29,-358.989 1067.95,-348.732 1059.48,-355.093 1065.29,-358.989"/>
</g>
<!-- Node29 -->
<g id="node29" class="node"><title>Node29</title>
<g id="a_node29"><a xlink:href="$Util_8h.html" xlink:title="Util.h">
<polygon fill="white" stroke="black" points="1230.61,-220.5 1230.61,-238.5 1269.39,-238.5 1269.39,-220.5 1230.61,-220.5"/>
<text text-anchor="middle" x="1250" y="-226.5" font-family="Helvetica,sans-Serif" font-size="10.00">Util.h</text>
</a>
</g>
</g>
<!-- Node2&#45;&gt;Node29 -->
<g id="edge61" class="edge"><title>Node2&#45;&gt;Node29</title>
<path fill="none" stroke="midnightblue" d="M942.234,-441.147C945.199,-440.753 948.137,-440.368 951,-440 1018.91,-431.275 1211.5,-455.165 1257,-404 1296.03,-360.107 1271.59,-282.522 1257.69,-247.959"/>
<polygon fill="midnightblue" stroke="midnightblue" points="1260.9,-246.559 1253.8,-238.698 1254.45,-249.273 1260.9,-246.559"/>
</g>
<!-- Node6 -->
<g id="node6" class="node"><title>Node6</title>
<polygon fill="white" stroke="#bfbfbf" points="969.604,-0.5 969.604,-18.5 1018.4,-18.5 1018.4,-0.5 969.604,-0.5"/>
<text text-anchor="middle" x="994" y="-6.5" font-family="Helvetica,sans-Serif" font-size="10.00">string.h</text>
</g>
<!-- Node5&#45;&gt;Node6 -->
<g id="edge5" class="edge"><title>Node5&#45;&gt;Node6</title>
<path fill="none" stroke="midnightblue" d="M880.352,-55.4504C902.586,-46.6562 938.428,-32.4802 963.912,-22.4006"/>
<polygon fill="midnightblue" stroke="midnightblue" points="965.445,-25.558 973.457,-18.6253 962.87,-19.0487 965.445,-25.558"/>
</g>
<!-- Node7 -->
<g id="node7" class="node"><title>Node7</title>
<g id="a_node7"><a xlink:href="$functor_8h.html" xlink:title="utility/functor.h">
<polygon fill="white" stroke="black" points="820.037,-0.5 820.037,-18.5 899.963,-18.5 899.963,-0.5 820.037,-0.5"/>
<text text-anchor="middle" x="860" y="-6.5" font-family="Helvetica,sans-Serif" font-size="10.00">utility/functor.h</text>
</a>
</g>
</g>
<!-- Node5&#45;&gt;Node7 -->
<g id="edge6" class="edge"><title>Node5&#45;&gt;Node7</title>
<path fill="none" stroke="midnightblue" d="M860,-55.2188C860,-48.1769 860,-37.8083 860,-28.8277"/>
<polygon fill="midnightblue" stroke="midnightblue" points="863.5,-28.5495 860,-18.5496 856.5,-28.5496 863.5,-28.5495"/>
</g>
<!-- Node10&#45;&gt;Node11 -->
<g id="edge10" class="edge"><title>Node10&#45;&gt;Node11</title>
<path fill="none" stroke="midnightblue" d="M817.469,-385.219C817.867,-378.177 818.454,-367.808 818.963,-358.828"/>
<polygon fill="midnightblue" stroke="midnightblue" points="822.474,-358.731 819.544,-348.55 815.485,-358.336 822.474,-358.731"/>
</g>
<!-- Node11&#45;&gt;Node5 -->
<g id="edge11" class="edge"><title>Node11&#45;&gt;Node5</title>
<path fill="none" stroke="midnightblue" d="M820.253,-330.372C820.791,-312.379 822,-267.819 822,-230.5 822,-230.5 822,-230.5 822,-173.5 822,-139.678 838.788,-103.104 850.047,-82.3784"/>
<polygon fill="midnightblue" stroke="midnightblue" points="853.158,-83.9865 855.032,-73.5586 847.065,-80.542 853.158,-83.9865"/>
</g>
<!-- Node11&#45;&gt;Node12 -->
<g id="edge12" class="edge"><title>Node11&#45;&gt;Node12</title>
<path fill="none" stroke="midnightblue" d="M842.139,-336.347C877.96,-332.184 950.146,-320.942 1005,-294 1029.79,-281.825 1053.87,-260.713 1068.8,-246.198"/>
<polygon fill="midnightblue" stroke="midnightblue" points="1071.5,-248.453 1076.1,-238.91 1066.55,-243.499 1071.5,-248.453"/>
</g>
<!-- Node11&#45;&gt;Node14 -->
<g id="edge15" class="edge"><title>Node11&#45;&gt;Node14</title>
<path fill="none" stroke="midnightblue" d="M798.279,-330.491C778.368,-322.658 748.498,-309.645 725,-294 703.993,-280.013 682.959,-259.91 669.515,-246.09"/>
<polygon fill="midnightblue" stroke="midnightblue" points="671.969,-243.592 662.533,-238.773 666.904,-248.424 671.969,-243.592"/>
</g>
<!-- Node11&#45;&gt;Node15 -->
<g id="edge18" class="edge"><title>Node11&#45;&gt;Node15</title>
<path fill="none" stroke="midnightblue" d="M842.022,-330.45C866.295,-321.578 905.553,-307.229 933.171,-297.134"/>
<polygon fill="midnightblue" stroke="midnightblue" points="934.58,-300.346 942.77,-293.625 932.177,-293.771 934.58,-300.346"/>
</g>
<!-- Node11&#45;&gt;Node16 -->
<g id="edge20" class="edge"><title>Node11&#45;&gt;Node16</title>
<path fill="none" stroke="midnightblue" d="M797.824,-336.797C700.352,-329.31 308.894,-299.241 175.097,-288.964"/>
<polygon fill="midnightblue" stroke="midnightblue" points="175.044,-285.45 164.805,-288.173 174.508,-292.429 175.044,-285.45"/>
</g>
<!-- Node11&#45;&gt;Node17 -->
<g id="edge22" class="edge"><title>Node11&#45;&gt;Node17</title>
<path fill="none" stroke="midnightblue" d="M829.568,-330.45C839.097,-322.434 853.94,-309.947 865.567,-300.166"/>
<polygon fill="midnightblue" stroke="midnightblue" points="867.943,-302.741 873.342,-293.625 863.436,-297.385 867.943,-302.741"/>
</g>
<!-- Node11&#45;&gt;Node18 -->
<g id="edge24" class="edge"><title>Node11&#45;&gt;Node18</title>
<path fill="none" stroke="midnightblue" d="M811.25,-330.219C802.9,-322.316 790.124,-310.224 779.961,-300.606"/>
<polygon fill="midnightblue" stroke="midnightblue" points="782.174,-297.881 772.505,-293.55 777.362,-302.965 782.174,-297.881"/>
</g>
<!-- Node11&#45;&gt;Node19 -->
<g id="edge27" class="edge"><title>Node11&#45;&gt;Node19</title>
<path fill="none" stroke="midnightblue" d="M798.088,-333.981C757.064,-325.521 667.767,-307.106 611.801,-295.564"/>
<polygon fill="midnightblue" stroke="midnightblue" points="612.259,-292.085 601.758,-293.493 610.845,-298.941 612.259,-292.085"/>
</g>
<!-- Node12&#45;&gt;Node5 -->
<g id="edge14" class="edge"><title>Node12&#45;&gt;Node5</title>
<path fill="none" stroke="midnightblue" d="M1069.33,-220.387C1054.6,-211.991 1031.48,-198.145 1013,-184 974.535,-154.567 971.647,-139.194 933,-110 917.456,-98.2577 898.662,-86.8587 884.036,-78.5376"/>
<polygon fill="midnightblue" stroke="midnightblue" points="885.539,-75.3681 875.103,-73.5412 882.122,-81.4774 885.539,-75.3681"/>
</g>
<!-- Node13 -->
<g id="node13" class="node"><title>Node13</title>
<polygon fill="white" stroke="#bfbfbf" points="1147.6,-55.5 1147.6,-73.5 1206.4,-73.5 1206.4,-55.5 1147.6,-55.5"/>
<text text-anchor="middle" x="1177" y="-61.5" font-family="Helvetica,sans-Serif" font-size="10.00">inttypes.h</text>
</g>
<!-- Node12&#45;&gt;Node13 -->
<g id="edge13" class="edge"><title>Node12&#45;&gt;Node13</title>
<path fill="none" stroke="midnightblue" d="M1097.18,-220.369C1119.84,-205.517 1165.43,-171.572 1183,-129 1189.01,-114.446 1186.49,-96.4699 1183.07,-83.363"/>
<polygon fill="midnightblue" stroke="midnightblue" points="1186.38,-82.2418 1180.14,-73.6804 1179.68,-84.2652 1186.38,-82.2418"/>
</g>
<!-- Node14&#45;&gt;Node3 -->
<g id="edge16" class="edge"><title>Node14&#45;&gt;Node3</title>
<path fill="none" stroke="midnightblue" d="M630.206,-227.526C590.592,-225.019 511.627,-216.054 454,-184 433.037,-172.34 414.641,-151.376 403.442,-136.738"/>
<polygon fill="midnightblue" stroke="midnightblue" points="406.186,-134.562 397.441,-128.58 400.548,-138.71 406.186,-134.562"/>
</g>
<!-- Node14&#45;&gt;Node5 -->
<g id="edge17" class="edge"><title>Node14&#45;&gt;Node5</title>
<path fill="none" stroke="midnightblue" d="M662.124,-220.296C669.024,-211.83 679.136,-197.93 684,-184 694.89,-152.811 669.621,-135.186 691,-110 704.377,-94.2405 751.396,-82.65 792.452,-75.2555"/>
<polygon fill="midnightblue" stroke="midnightblue" points="793.212,-78.6758 802.463,-73.512 792.011,-71.7796 793.212,-78.6758"/>
</g>
<!-- Node15&#45;&gt;Node5 -->
<g id="edge19" class="edge"><title>Node15&#45;&gt;Node5</title>
<path fill="none" stroke="midnightblue" d="M953,-275.347C942.078,-267.322 926.285,-254.101 917,-239 885.76,-188.191 900.5,-166.011 880,-110 876.643,-100.828 872.252,-90.8899 868.44,-82.737"/>
<polygon fill="midnightblue" stroke="midnightblue" points="871.519,-81.0631 864.043,-73.5566 865.206,-84.0873 871.519,-81.0631"/>
</g>
<!-- Node16&#45;&gt;Node5 -->
<g id="edge21" class="edge"><title>Node16&#45;&gt;Node5</title>
<path fill="none" stroke="midnightblue" d="M118.119,-275.408C90.6997,-255.749 27.5294,-204.211 57,-165 109.818,-94.7243 160.464,-125.489 247,-110 440.973,-75.2797 674.094,-67.4952 788.936,-65.8526"/>
<polygon fill="midnightblue" stroke="midnightblue" points="789.054,-69.3515 799.007,-65.7201 788.961,-62.3521 789.054,-69.3515"/>
</g>
<!-- Node17&#45;&gt;Node5 -->
<g id="edge23" class="edge"><title>Node17&#45;&gt;Node5</title>
<path fill="none" stroke="midnightblue" d="M882.154,-275.483C878.844,-244.107 866.716,-129.159 861.946,-83.9443"/>
<polygon fill="midnightblue" stroke="midnightblue" points="865.408,-83.4006 860.878,-73.8231 858.447,-84.1351 865.408,-83.4006"/>
</g>
<!-- Node18&#45;&gt;Node3 -->
<g id="edge25" class="edge"><title>Node18&#45;&gt;Node3</title>
<path fill="none" stroke="midnightblue" d="M757.08,-275.328C744.869,-261.496 718.027,-233.646 689,-220 606.473,-181.202 571.592,-218.061 487,-184 471.241,-177.655 434.049,-151.379 411.154,-134.68"/>
<polygon fill="midnightblue" stroke="midnightblue" points="413.009,-131.7 402.877,-128.605 408.868,-137.343 413.009,-131.7"/>
</g>
<!-- Node18&#45;&gt;Node5 -->
<g id="edge26" class="edge"><title>Node18&#45;&gt;Node5</title>
<path fill="none" stroke="midnightblue" d="M764.352,-275.219C765.81,-249 773.084,-166.232 808,-110 815.541,-97.855 827.479,-87.2968 838.016,-79.5163"/>
<polygon fill="midnightblue" stroke="midnightblue" points="840.211,-82.2525 846.41,-73.6602 836.206,-76.5115 840.211,-82.2525"/>
</g>
<!-- Node19&#45;&gt;Node3 -->
<g id="edge28" class="edge"><title>Node19&#45;&gt;Node3</title>
<path fill="none" stroke="midnightblue" d="M547.091,-275.3C519.324,-260.342 461.502,-226.237 425,-184 413.205,-170.352 404.175,-151.76 398.567,-138.222"/>
<polygon fill="midnightblue" stroke="midnightblue" points="401.72,-136.675 394.816,-128.639 395.202,-139.227 401.72,-136.675"/>
</g>
<!-- Node19&#45;&gt;Node5 -->
<g id="edge33" class="edge"><title>Node19&#45;&gt;Node5</title>
<path fill="none" stroke="midnightblue" d="M570.468,-275.401C590.583,-253.536 644.804,-194.267 651,-184 669.168,-153.892 652.681,-133.321 679,-110 708.886,-83.5182 752.016,-72.2267 788.677,-67.6343"/>
<polygon fill="midnightblue" stroke="midnightblue" points="789.276,-71.0895 798.83,-66.5096 788.505,-64.132 789.276,-71.0895"/>
</g>
<!-- Node20 -->
<g id="node20" class="node"><title>Node20</title>
<g id="a_node20"><a xlink:href="$AP__Common_8h.html" xlink:title="Common definitions and utility routines for the ArduPilot libraries. ">
<polygon fill="white" stroke="black" points="495.973,-165.5 495.973,-183.5 642.027,-183.5 642.027,-165.5 495.973,-165.5"/>
<text text-anchor="middle" x="569" y="-171.5" font-family="Helvetica,sans-Serif" font-size="10.00">AP_Common/AP_Common.h</text>
</a>
</g>
</g>
<!-- Node19&#45;&gt;Node20 -->
<g id="edge29" class="edge"><title>Node19&#45;&gt;Node20</title>
<path fill="none" stroke="midnightblue" d="M563.451,-275.382C564.407,-258.182 566.656,-217.698 567.979,-193.887"/>
<polygon fill="midnightblue" stroke="midnightblue" points="571.484,-193.891 568.544,-183.712 564.494,-193.502 571.484,-193.891"/>
</g>
<!-- Node19&#45;&gt;Node22 -->
<g id="edge34" class="edge"><title>Node19&#45;&gt;Node22</title>
<path fill="none" stroke="midnightblue" d="M601.856,-278.561C673.622,-269.44 827.62,-249.867 915.344,-238.718"/>
<polygon fill="midnightblue" stroke="midnightblue" points="915.965,-242.167 925.444,-237.434 915.082,-235.223 915.965,-242.167"/>
</g>
<!-- Node20&#45;&gt;Node3 -->
<g id="edge30" class="edge"><title>Node20&#45;&gt;Node3</title>
<path fill="none" stroke="midnightblue" d="M542.118,-165.45C511.092,-156.16 460.009,-140.864 426.185,-130.736"/>
<polygon fill="midnightblue" stroke="midnightblue" points="426.867,-127.287 416.283,-127.771 424.859,-133.993 426.867,-127.287"/>
</g>
<!-- Node20&#45;&gt;Node4 -->
<g id="edge32" class="edge"><title>Node20&#45;&gt;Node4</title>
<path fill="none" stroke="midnightblue" d="M593.149,-165.45C620.076,-156.475 663.823,-141.892 694.156,-131.781"/>
<polygon fill="midnightblue" stroke="midnightblue" points="695.505,-135.021 703.885,-128.538 693.291,-128.38 695.505,-135.021"/>
</g>
<!-- Node21 -->
<g id="node21" class="node"><title>Node21</title>
<polygon fill="white" stroke="#bfbfbf" points="545.158,-110.5 545.158,-128.5 592.842,-128.5 592.842,-110.5 545.158,-110.5"/>
<text text-anchor="middle" x="569" y="-116.5" font-family="Helvetica,sans-Serif" font-size="10.00">stdlib.h</text>
</g>
<!-- Node20&#45;&gt;Node21 -->
<g id="edge31" class="edge"><title>Node20&#45;&gt;Node21</title>
<path fill="none" stroke="midnightblue" d="M569,-165.219C569,-158.177 569,-147.808 569,-138.828"/>
<polygon fill="midnightblue" stroke="midnightblue" points="572.5,-138.55 569,-128.55 565.5,-138.55 572.5,-138.55"/>
</g>
<!-- Node22&#45;&gt;Node5 -->
<g id="edge37" class="edge"><title>Node22&#45;&gt;Node5</title>
<path fill="none" stroke="midnightblue" d="M976.544,-220.43C967.723,-200.385 942.874,-147.258 912,-110 902.642,-98.7064 890.218,-87.9578 879.862,-79.8543"/>
<polygon fill="midnightblue" stroke="midnightblue" points="881.845,-76.9657 871.76,-73.7157 877.617,-82.5448 881.845,-76.9657"/>
</g>
<!-- Node22&#45;&gt;Node20 -->
<g id="edge36" class="edge"><title>Node22&#45;&gt;Node20</title>
<path fill="none" stroke="midnightblue" d="M925.422,-221.462C852.341,-212.038 722.504,-195.295 641.339,-184.828"/>
<polygon fill="midnightblue" stroke="midnightblue" points="641.566,-181.329 631.201,-183.521 640.671,-188.271 641.566,-181.329"/>
</g>
<!-- Node22&#45;&gt;Node23 -->
<g id="edge35" class="edge"><title>Node22&#45;&gt;Node23</title>
<path fill="none" stroke="midnightblue" d="M1012.81,-220.45C1052.41,-210.733 1118.79,-194.445 1159.84,-184.373"/>
<polygon fill="midnightblue" stroke="midnightblue" points="1160.82,-187.736 1169.7,-181.954 1159.15,-180.938 1160.82,-187.736"/>
</g>
<!-- Node22&#45;&gt;Node24 -->
<g id="edge38" class="edge"><title>Node22&#45;&gt;Node24</title>
<path fill="none" stroke="midnightblue" d="M995.795,-220.45C1012.59,-211.89 1039.4,-198.229 1059.06,-188.212"/>
<polygon fill="midnightblue" stroke="midnightblue" points="1060.74,-191.284 1068.06,-183.625 1057.56,-185.047 1060.74,-191.284"/>
</g>
<!-- Node24&#45;&gt;Node5 -->
<g id="edge39" class="edge"><title>Node24&#45;&gt;Node5</title>
<path fill="none" stroke="midnightblue" d="M1080.73,-165.469C1074.76,-151.849 1060.76,-124.312 1040,-110 1008.16,-88.048 966.561,-76.8994 931.376,-71.2488"/>
<polygon fill="midnightblue" stroke="midnightblue" points="931.565,-67.7386 921.159,-69.7311 930.536,-74.6626 931.565,-67.7386"/>
</g>
<!-- Node24&#45;&gt;Node25 -->
<g id="edge40" class="edge"><title>Node24&#45;&gt;Node25</title>
<path fill="none" stroke="midnightblue" d="M1094.33,-165.45C1104.71,-157.357 1120.95,-144.704 1133.55,-134.882"/>
<polygon fill="midnightblue" stroke="midnightblue" points="1135.84,-137.533 1141.58,-128.625 1131.54,-132.012 1135.84,-137.533"/>
</g>
<!-- Node25&#45;&gt;Node5 -->
<g id="edge41" class="edge"><title>Node25&#45;&gt;Node5</title>
<path fill="none" stroke="midnightblue" d="M1129.19,-112.898C1124.82,-111.886 1120.28,-110.876 1116,-110 1049.92,-96.4675 973.69,-83.5613 921.717,-75.1668"/>
<polygon fill="midnightblue" stroke="midnightblue" points="922.084,-71.681 911.656,-73.5492 920.973,-78.5923 922.084,-71.681"/>
</g>
<!-- Node25&#45;&gt;Node6 -->
<g id="edge43" class="edge"><title>Node25&#45;&gt;Node6</title>
<path fill="none" stroke="midnightblue" d="M1140.12,-110.382C1113.36,-92.0876 1048.06,-47.4511 1014.56,-24.5536"/>
<polygon fill="midnightblue" stroke="midnightblue" points="1016.24,-21.4654 1006.01,-18.7118 1012.29,-27.2444 1016.24,-21.4654"/>
</g>
<!-- Node25&#45;&gt;Node13 -->
<g id="edge42" class="edge"><title>Node25&#45;&gt;Node13</title>
<path fill="none" stroke="midnightblue" d="M1155.91,-110.219C1159.38,-102.864 1164.56,-91.8801 1168.92,-82.639"/>
<polygon fill="midnightblue" stroke="midnightblue" points="1172.1,-84.0871 1173.2,-73.5496 1165.77,-81.1007 1172.1,-84.0871"/>
</g>
<!-- Node26&#45;&gt;Node3 -->
<g id="edge46" class="edge"><title>Node26&#45;&gt;Node3</title>
<path fill="none" stroke="midnightblue" d="M275.807,-165.45C298.64,-156.617 335.508,-142.355 361.583,-132.267"/>
<polygon fill="midnightblue" stroke="midnightblue" points="362.933,-135.498 370.997,-128.625 360.408,-128.969 362.933,-135.498"/>
</g>
<!-- Node26&#45;&gt;Node5 -->
<g id="edge47" class="edge"><title>Node26&#45;&gt;Node5</title>
<path fill="none" stroke="midnightblue" d="M264.839,-165.3C282.437,-151.162 321.026,-122.516 359,-110 436.865,-84.3368 670.054,-72.3794 788.811,-67.8289"/>
<polygon fill="midnightblue" stroke="midnightblue" points="789.035,-71.323 798.897,-67.4497 788.772,-64.328 789.035,-71.323"/>
</g>
<!-- Node27&#45;&gt;Node3 -->
<g id="edge55" class="edge"><title>Node27&#45;&gt;Node3</title>
<path fill="none" stroke="midnightblue" d="M264.372,-220.382C287.549,-202.244 343.812,-158.212 373.286,-135.145"/>
<polygon fill="midnightblue" stroke="midnightblue" points="375.789,-137.631 381.507,-128.712 371.475,-132.119 375.789,-137.631"/>
</g>
<!-- Node27&#45;&gt;Node5 -->
<g id="edge58" class="edge"><title>Node27&#45;&gt;Node5</title>
<path fill="none" stroke="midnightblue" d="M242.093,-220.389C226.057,-208.421 200.852,-185.258 213,-165 239.689,-120.493 266.213,-124.643 316,-110 402.655,-84.5142 661.93,-72.3084 788.673,-67.7371"/>
<polygon fill="midnightblue" stroke="midnightblue" points="789.171,-71.2217 799.041,-67.3695 788.923,-64.2261 789.171,-71.2217"/>
</g>
<!-- Node27&#45;&gt;Node8 -->
<g id="edge57" class="edge"><title>Node27&#45;&gt;Node8</title>
<path fill="none" stroke="midnightblue" d="M233.041,-220.45C210.041,-211.617 172.904,-197.355 146.639,-187.267"/>
<polygon fill="midnightblue" stroke="midnightblue" points="147.747,-183.943 137.156,-183.625 145.237,-190.478 147.747,-183.943"/>
</g>
<!-- Node27&#45;&gt;Node20 -->
<g id="edge56" class="edge"><title>Node27&#45;&gt;Node20</title>
<path fill="none" stroke="midnightblue" d="M288.612,-222.676C342.239,-213.653 446.004,-196.195 511.156,-185.232"/>
<polygon fill="midnightblue" stroke="midnightblue" points="511.987,-188.642 521.268,-183.531 510.825,-181.739 511.987,-188.642"/>
</g>
<!-- Node28&#45;&gt;Node5 -->
<g id="edge60" class="edge"><title>Node28&#45;&gt;Node5</title>
<path fill="none" stroke="midnightblue" d="M1081.92,-330.305C1102.48,-310.42 1149.58,-258.416 1125,-220 1104.42,-187.839 1079.29,-204.379 1047,-184 1003.5,-156.543 1001.59,-137.323 958,-110 937.007,-96.8402 911.469,-85.3743 891.727,-77.3781"/>
<polygon fill="midnightblue" stroke="midnightblue" points="892.853,-74.0596 882.267,-73.631 890.275,-80.5677 892.853,-74.0596"/>
</g>
<!-- Node29&#45;&gt;Node5 -->
<g id="edge63" class="edge"><title>Node29&#45;&gt;Node5</title>
<path fill="none" stroke="midnightblue" d="M1249.87,-220.291C1249.2,-206.903 1245.94,-180.327 1231,-165 1195.09,-128.164 1169.84,-145.134 1121,-129 1095.64,-120.625 1089.75,-117.078 1064,-110 1013.3,-96.0643 954.57,-83.6352 913.179,-75.4788"/>
<polygon fill="midnightblue" stroke="midnightblue" points="913.794,-72.033 903.309,-73.55 912.452,-78.903 913.794,-72.033"/>
</g>
<!-- Node29&#45;&gt;Node23 -->
<g id="edge62" class="edge"><title>Node29&#45;&gt;Node23</title>
<path fill="none" stroke="midnightblue" d="M1241.56,-220.219C1233.51,-212.316 1221.19,-200.224 1211.39,-190.606"/>
<polygon fill="midnightblue" stroke="midnightblue" points="1213.79,-188.056 1204.2,-183.55 1208.89,-193.052 1213.79,-188.056"/>
</g>
<!-- Node31 -->
<g id="node31" class="node"><title>Node31</title>
<g id="a_node31"><a xlink:href="$AP__HAL__FLYMAPLE_8h.html" xlink:title="AP_HAL_FLYMAPLE.h">
<polygon fill="white" stroke="black" points="976.12,-550.5 976.12,-568.5 1095.88,-568.5 1095.88,-550.5 976.12,-550.5"/>
<text text-anchor="middle" x="1036" y="-556.5" font-family="Helvetica,sans-Serif" font-size="10.00">AP_HAL_FLYMAPLE.h</text>
</a>
</g>
</g>
<!-- Node30&#45;&gt;Node31 -->
<g id="edge69" class="edge"><title>Node30&#45;&gt;Node31</title>
<path fill="none" stroke="midnightblue" d="M1105.55,-605.45C1092.78,-597.201 1072.69,-584.216 1057.38,-574.319"/>
<polygon fill="midnightblue" stroke="midnightblue" points="1058.87,-571.114 1048.57,-568.625 1055.07,-576.993 1058.87,-571.114"/>
</g>
<!-- Node31&#45;&gt;Node2 -->
<g id="edge70" class="edge"><title>Node31&#45;&gt;Node2</title>
<path fill="none" stroke="midnightblue" d="M1020.51,-550.462C1004.95,-542.125 980.537,-528.323 961,-514 940.709,-499.125 919.459,-479.502 905.557,-466.029"/>
<polygon fill="midnightblue" stroke="midnightblue" points="907.871,-463.397 898.283,-458.889 902.968,-468.392 907.871,-463.397"/>
</g>
<!-- Node32 -->
<g id="node32" class="node"><title>Node32</title>
<g id="a_node32"><a xlink:href="$HAL__FLYMAPLE__Class_8h.html" xlink:title="HAL_FLYMAPLE_Class.h">
<polygon fill="white" stroke="black" points="970.288,-495.5 970.288,-513.5 1101.71,-513.5 1101.71,-495.5 970.288,-495.5"/>
<text text-anchor="middle" x="1036" y="-501.5" font-family="Helvetica,sans-Serif" font-size="10.00">HAL_FLYMAPLE_Class.h</text>
</a>
</g>
</g>
<!-- Node31&#45;&gt;Node32 -->
<g id="edge71" class="edge"><title>Node31&#45;&gt;Node32</title>
<path fill="none" stroke="midnightblue" d="M1036,-550.219C1036,-543.177 1036,-532.808 1036,-523.828"/>
<polygon fill="midnightblue" stroke="midnightblue" points="1039.5,-523.55 1036,-513.55 1032.5,-523.55 1039.5,-523.55"/>
</g>
<!-- Node32&#45;&gt;Node2 -->
<g id="edge72" class="edge"><title>Node32&#45;&gt;Node2</title>
<path fill="none" stroke="midnightblue" d="M1013.83,-495.45C989.386,-486.578 949.857,-472.229 922.048,-462.134"/>
<polygon fill="midnightblue" stroke="midnightblue" points="922.977,-458.748 912.383,-458.625 920.588,-465.328 922.977,-458.748"/>
</g>
<!-- Node33 -->
<g id="node33" class="node"><title>Node33</title>
<g id="a_node33"><a xlink:href="$AP__HAL__FLYMAPLE__Namespace_8h.html" xlink:title="AP_HAL_FLYMAPLE_Namespace.h">
<polygon fill="white" stroke="black" points="959.66,-440.5 959.66,-458.5 1138.34,-458.5 1138.34,-440.5 959.66,-440.5"/>
<text text-anchor="middle" x="1049" y="-446.5" font-family="Helvetica,sans-Serif" font-size="10.00">AP_HAL_FLYMAPLE_Namespace.h</text>
</a>
</g>
</g>
<!-- Node32&#45;&gt;Node33 -->
<g id="edge73" class="edge"><title>Node32&#45;&gt;Node33</title>
<path fill="none" stroke="midnightblue" d="M1038.03,-495.219C1039.78,-488.099 1042.36,-477.577 1044.58,-468.529"/>
<polygon fill="midnightblue" stroke="midnightblue" points="1048.04,-469.095 1047.03,-458.55 1041.24,-467.428 1048.04,-469.095"/>
</g>
<!-- Node35 -->
<g id="node35" class="node"><title>Node35</title>
<polygon fill="white" stroke="#bfbfbf" points="1401.05,-550.5 1401.05,-568.5 1450.95,-568.5 1450.95,-550.5 1401.05,-550.5"/>
<text text-anchor="middle" x="1426" y="-556.5" font-family="Helvetica,sans-Serif" font-size="10.00">wirish.h</text>
</g>
<!-- Node34&#45;&gt;Node35 -->
<g id="edge76" class="edge"><title>Node34&#45;&gt;Node35</title>
<path fill="none" stroke="midnightblue" d="M1426,-605.219C1426,-598.177 1426,-587.808 1426,-578.828"/>
<polygon fill="midnightblue" stroke="midnightblue" points="1429.5,-578.55 1426,-568.55 1422.5,-578.55 1429.5,-578.55"/>
</g>
</g>
</svg>
