<?xml version="1.0" encoding="UTF-8" standalone="no"?>
<!DOCTYPE svg PUBLIC "-//W3C//DTD SVG 1.1//EN"
 "http://www.w3.org/Graphics/SVG/1.1/DTD/svg11.dtd">
<!-- Generated by graphviz version 2.38.0 (20140413.2041)
 -->
<!-- Title: libraries/AP_BoardConfig/AP_BoardConfig.h Pages: 1 -->
<svg width="1566pt" height="642pt"
 viewBox="0.00 0.00 1565.68 642.00" xmlns="http://www.w3.org/2000/svg" xmlns:xlink="http://www.w3.org/1999/xlink">
<g id="graph0" class="graph" transform="scale(1 1) rotate(0) translate(4 638)">
<title>libraries/AP_BoardConfig/AP_BoardConfig.h</title>
<polygon fill="white" stroke="none" points="-4,4 -4,-638 1561.68,-638 1561.68,4 -4,4"/>
<!-- Node1 -->
<g id="node1" class="node"><title>Node1</title>
<polygon fill="#bfbfbf" stroke="black" points="434.538,-605.5 434.538,-633.5 562.818,-633.5 562.818,-605.5 434.538,-605.5"/>
<text text-anchor="start" x="442.538" y="-621.5" font-family="Helvetica,sans-Serif" font-size="10.00">libraries/AP_BoardConfig</text>
<text text-anchor="middle" x="498.678" y="-611.5" font-family="Helvetica,sans-Serif" font-size="10.00">/AP_BoardConfig.h</text>
</g>
<!-- Node2 -->
<g id="node2" class="node"><title>Node2</title>
<g id="a_node2"><a xlink:href="$AP__HAL_8h.html" xlink:title="AP_HAL/AP_HAL.h">
<polygon fill="white" stroke="black" points="836.765,-440.5 836.765,-458.5 940.592,-458.5 940.592,-440.5 836.765,-440.5"/>
<text text-anchor="middle" x="888.678" y="-446.5" font-family="Helvetica,sans-Serif" font-size="10.00">AP_HAL/AP_HAL.h</text>
</a>
</g>
</g>
<!-- Node1&#45;&gt;Node2 -->
<g id="edge1" class="edge"><title>Node1&#45;&gt;Node2</title>
<path fill="none" stroke="midnightblue" d="M562.919,-608.125C632.553,-594.699 744.932,-566.529 828.678,-514 848.283,-501.703 865.832,-481.508 876.812,-467.197"/>
<polygon fill="midnightblue" stroke="midnightblue" points="879.901,-468.906 883.034,-458.785 874.273,-464.743 879.901,-468.906"/>
</g>
<!-- Node20 -->
<g id="node20" class="node"><title>Node20</title>
<g id="a_node20"><a xlink:href="$AP__Common_8h.html" xlink:title="Common definitions and utility routines for the ArduPilot libraries. ">
<polygon fill="white" stroke="black" points="768.651,-165.5 768.651,-183.5 914.705,-183.5 914.705,-165.5 768.651,-165.5"/>
<text text-anchor="middle" x="841.678" y="-171.5" font-family="Helvetica,sans-Serif" font-size="10.00">AP_Common/AP_Common.h</text>
</a>
</g>
</g>
<!-- Node1&#45;&gt;Node20 -->
<g id="edge68" class="edge"><title>Node1&#45;&gt;Node20</title>
<path fill="none" stroke="midnightblue" d="M498.678,-605.279C498.678,-584.181 498.678,-541.597 498.678,-505.5 498.678,-505.5 498.678,-505.5 498.678,-393.5 498.678,-260.992 683.268,-205.579 781.619,-185.459"/>
<polygon fill="midnightblue" stroke="midnightblue" points="782.309,-188.89 791.436,-183.509 780.945,-182.024 782.309,-188.89"/>
</g>
<!-- Node30 -->
<g id="node30" class="node"><title>Node30</title>
<g id="a_node30"><a xlink:href="$AP__Param_8h.html" xlink:title="A system for managing and storing variables that are of general interest to the system. ">
<polygon fill="white" stroke="black" points="172.765,-550.5 172.765,-568.5 296.592,-568.5 296.592,-550.5 172.765,-550.5"/>
<text text-anchor="middle" x="234.678" y="-556.5" font-family="Helvetica,sans-Serif" font-size="10.00">AP_Param/AP_Param.h</text>
</a>
</g>
</g>
<!-- Node1&#45;&gt;Node30 -->
<g id="edge69" class="edge"><title>Node1&#45;&gt;Node30</title>
<path fill="none" stroke="midnightblue" d="M439.431,-605.484C391.62,-594.98 325.289,-580.407 281.23,-570.727"/>
<polygon fill="midnightblue" stroke="midnightblue" points="281.877,-567.286 271.359,-568.559 280.375,-574.123 281.877,-567.286"/>
</g>
<!-- Node3 -->
<g id="node3" class="node"><title>Node3</title>
<polygon fill="white" stroke="#bfbfbf" points="716.558,-110.5 716.558,-128.5 764.799,-128.5 764.799,-110.5 716.558,-110.5"/>
<text text-anchor="middle" x="740.678" y="-116.5" font-family="Helvetica,sans-Serif" font-size="10.00">stdint.h</text>
</g>
<!-- Node2&#45;&gt;Node3 -->
<g id="edge2" class="edge"><title>Node2&#45;&gt;Node3</title>
<path fill="none" stroke="midnightblue" d="M882.561,-440.418C859.488,-409.38 777.58,-294.052 748.678,-184 744.789,-169.189 742.768,-151.922 741.732,-139.136"/>
<polygon fill="midnightblue" stroke="midnightblue" points="745.203,-138.591 741.032,-128.852 738.219,-139.067 745.203,-138.591"/>
</g>
<!-- Node4 -->
<g id="node4" class="node"><title>Node4</title>
<polygon fill="white" stroke="#bfbfbf" points="972.385,-110.5 972.385,-128.5 1028.97,-128.5 1028.97,-110.5 972.385,-110.5"/>
<text text-anchor="middle" x="1000.68" y="-116.5" font-family="Helvetica,sans-Serif" font-size="10.00">stdbool.h</text>
</g>
<!-- Node2&#45;&gt;Node4 -->
<g id="edge3" class="edge"><title>Node2&#45;&gt;Node4</title>
<path fill="none" stroke="midnightblue" d="M940.874,-445.835C1018.53,-441.09 1160.04,-429.207 1203.68,-404 1250.5,-376.953 1298.15,-237.231 1307.68,-184 1309.17,-175.688 1313.2,-171.385 1307.68,-165 1273.41,-125.411 1114.1,-120.289 1039.46,-120.114"/>
<polygon fill="midnightblue" stroke="midnightblue" points="1039.08,-116.614 1029.08,-120.121 1039.09,-123.614 1039.08,-116.614"/>
</g>
<!-- Node5 -->
<g id="node5" class="node"><title>Node5</title>
<g id="a_node5"><a xlink:href="$AP__HAL__Namespace_8h.html" xlink:title="AP_HAL_Namespace.h">
<polygon fill="white" stroke="black" points="883.871,-55.5 883.871,-73.5 1005.49,-73.5 1005.49,-55.5 883.871,-55.5"/>
<text text-anchor="middle" x="944.678" y="-61.5" font-family="Helvetica,sans-Serif" font-size="10.00">AP_HAL_Namespace.h</text>
</a>
</g>
</g>
<!-- Node2&#45;&gt;Node5 -->
<g id="edge4" class="edge"><title>Node2&#45;&gt;Node5</title>
<path fill="none" stroke="midnightblue" d="M940.789,-448.982C1067.96,-449.47 1390.92,-446.368 1488.68,-404 1526.92,-387.427 1557.68,-382.177 1557.68,-340.5 1557.68,-340.5 1557.68,-340.5 1557.68,-173.5 1557.68,-127.756 1519.26,-126.719 1476.68,-110 1394.65,-77.7922 1140.96,-68.8794 1015.88,-66.4252"/>
<polygon fill="midnightblue" stroke="midnightblue" points="1015.71,-62.9214 1005.64,-66.2332 1015.58,-69.9202 1015.71,-62.9214"/>
</g>
<!-- Node8 -->
<g id="node8" class="node"><title>Node8</title>
<g id="a_node8"><a xlink:href="$AP__HAL__Boards_8h.html" xlink:title="AP_HAL_Boards.h">
<polygon fill="white" stroke="black" points="1198.71,-165.5 1198.71,-183.5 1298.65,-183.5 1298.65,-165.5 1198.71,-165.5"/>
<text text-anchor="middle" x="1248.68" y="-171.5" font-family="Helvetica,sans-Serif" font-size="10.00">AP_HAL_Boards.h</text>
</a>
</g>
</g>
<!-- Node2&#45;&gt;Node8 -->
<g id="edge7" class="edge"><title>Node2&#45;&gt;Node8</title>
<path fill="none" stroke="midnightblue" d="M940.644,-444.237C1010.8,-437.815 1131.54,-424.221 1170.68,-404 1205.72,-385.893 1232.68,-379.944 1232.68,-340.5 1232.68,-340.5 1232.68,-340.5 1232.68,-283.5 1232.68,-251.527 1239.63,-214.798 1244.36,-193.463"/>
<polygon fill="midnightblue" stroke="midnightblue" points="1247.81,-194.1 1246.65,-183.568 1240.99,-192.523 1247.81,-194.1"/>
</g>
<!-- Node9 -->
<g id="node9" class="node"><title>Node9</title>
<g id="a_node9"><a xlink:href="$AP__HAL__Macros_8h.html" xlink:title="AP_HAL_Macros.h">
<polygon fill="white" stroke="black" points="1337.16,-385.5 1337.16,-403.5 1438.2,-403.5 1438.2,-385.5 1337.16,-385.5"/>
<text text-anchor="middle" x="1387.68" y="-391.5" font-family="Helvetica,sans-Serif" font-size="10.00">AP_HAL_Macros.h</text>
</a>
</g>
</g>
<!-- Node2&#45;&gt;Node9 -->
<g id="edge8" class="edge"><title>Node2&#45;&gt;Node9</title>
<path fill="none" stroke="midnightblue" d="M940.838,-443.625C1022.39,-435.897 1185,-420.057 1322.68,-404 1323.98,-403.848 1325.3,-403.692 1326.63,-403.534"/>
<polygon fill="midnightblue" stroke="midnightblue" points="1327.45,-406.959 1336.95,-402.272 1326.6,-400.011 1327.45,-406.959"/>
</g>
<!-- Node10 -->
<g id="node10" class="node"><title>Node10</title>
<g id="a_node10"><a xlink:href="$AP__HAL__Main_8h.html" xlink:title="AP_HAL_Main.h">
<polygon fill="white" stroke="black" points="1050.71,-385.5 1050.71,-403.5 1140.64,-403.5 1140.64,-385.5 1050.71,-385.5"/>
<text text-anchor="middle" x="1095.68" y="-391.5" font-family="Helvetica,sans-Serif" font-size="10.00">AP_HAL_Main.h</text>
</a>
</g>
</g>
<!-- Node2&#45;&gt;Node10 -->
<g id="edge9" class="edge"><title>Node2&#45;&gt;Node10</title>
<path fill="none" stroke="midnightblue" d="M920.117,-440.45C956.012,-431.26 1014.86,-416.192 1054.42,-406.064"/>
<polygon fill="midnightblue" stroke="midnightblue" points="1055.46,-409.409 1064.28,-403.538 1053.73,-402.628 1055.46,-409.409"/>
</g>
<!-- Node11 -->
<g id="node11" class="node"><title>Node11</title>
<g id="a_node11"><a xlink:href="$HAL_8h.html" xlink:title="HAL.h">
<polygon fill="white" stroke="black" points="1042.78,-330.5 1042.78,-348.5 1086.57,-348.5 1086.57,-330.5 1042.78,-330.5"/>
<text text-anchor="middle" x="1064.68" y="-336.5" font-family="Helvetica,sans-Serif" font-size="10.00">HAL.h</text>
</a>
</g>
</g>
<!-- Node2&#45;&gt;Node11 -->
<g id="edge67" class="edge"><title>Node2&#45;&gt;Node11</title>
<path fill="none" stroke="midnightblue" d="M916.767,-440.429C939.885,-433.035 972.923,-420.7 998.678,-404 1019.23,-390.675 1038.94,-370.396 1051.39,-356.356"/>
<polygon fill="midnightblue" stroke="midnightblue" points="1054.25,-358.394 1058.14,-348.538 1048.95,-353.819 1054.25,-358.394"/>
</g>
<!-- Node12 -->
<g id="node12" class="node"><title>Node12</title>
<g id="a_node12"><a xlink:href="$AnalogIn_8h.html" xlink:title="AnalogIn.h">
<polygon fill="white" stroke="black" points="473.77,-220.5 473.77,-238.5 537.587,-238.5 537.587,-220.5 473.77,-220.5"/>
<text text-anchor="middle" x="505.678" y="-226.5" font-family="Helvetica,sans-Serif" font-size="10.00">AnalogIn.h</text>
</a>
</g>
</g>
<!-- Node2&#45;&gt;Node12 -->
<g id="edge49" class="edge"><title>Node2&#45;&gt;Node12</title>
<path fill="none" stroke="midnightblue" d="M836.353,-443.504C796.509,-438.039 741.275,-426.8 697.678,-404 618.74,-362.717 546.901,-281.301 518.519,-246.686"/>
<polygon fill="midnightblue" stroke="midnightblue" points="520.985,-244.169 511.978,-238.59 515.54,-248.568 520.985,-244.169"/>
</g>
<!-- Node14 -->
<g id="node14" class="node"><title>Node14</title>
<g id="a_node14"><a xlink:href="$GPIO_8h.html" xlink:title="GPIO.h">
<polygon fill="white" stroke="black" points="920.006,-220.5 920.006,-238.5 969.351,-238.5 969.351,-220.5 920.006,-220.5"/>
<text text-anchor="middle" x="944.678" y="-226.5" font-family="Helvetica,sans-Serif" font-size="10.00">GPIO.h</text>
</a>
</g>
</g>
<!-- Node2&#45;&gt;Node14 -->
<g id="edge51" class="edge"><title>Node2&#45;&gt;Node14</title>
<path fill="none" stroke="midnightblue" d="M890.738,-440.483C898.815,-409.041 928.451,-293.67 940.014,-248.657"/>
<polygon fill="midnightblue" stroke="midnightblue" points="943.442,-249.379 942.54,-238.823 936.662,-247.638 943.442,-249.379"/>
</g>
<!-- Node15 -->
<g id="node15" class="node"><title>Node15</title>
<g id="a_node15"><a xlink:href="$RCInput_8h.html" xlink:title="RCInput.h">
<polygon fill="white" stroke="black" points="1468.17,-275.5 1468.17,-293.5 1529.19,-293.5 1529.19,-275.5 1468.17,-275.5"/>
<text text-anchor="middle" x="1498.68" y="-281.5" font-family="Helvetica,sans-Serif" font-size="10.00">RCInput.h</text>
</a>
</g>
</g>
<!-- Node2&#45;&gt;Node15 -->
<g id="edge52" class="edge"><title>Node2&#45;&gt;Node15</title>
<path fill="none" stroke="midnightblue" d="M940.88,-447.624C1075.02,-444.934 1424.17,-435.001 1465.68,-404 1496.82,-380.741 1500.36,-330.66 1499.81,-303.65"/>
<polygon fill="midnightblue" stroke="midnightblue" points="1503.3,-303.477 1499.39,-293.632 1496.31,-303.77 1503.3,-303.477"/>
</g>
<!-- Node16 -->
<g id="node16" class="node"><title>Node16</title>
<g id="a_node16"><a xlink:href="$RCOutput_8h.html" xlink:title="RCOutput.h">
<polygon fill="white" stroke="black" points="602.277,-275.5 602.277,-293.5 671.08,-293.5 671.08,-275.5 602.277,-275.5"/>
<text text-anchor="middle" x="636.678" y="-281.5" font-family="Helvetica,sans-Serif" font-size="10.00">RCOutput.h</text>
</a>
</g>
</g>
<!-- Node2&#45;&gt;Node16 -->
<g id="edge53" class="edge"><title>Node2&#45;&gt;Node16</title>
<path fill="none" stroke="midnightblue" d="M836.63,-443.666C801.861,-438.36 756.481,-427.248 722.678,-404 684.573,-377.793 657.193,-328.986 644.54,-302.937"/>
<polygon fill="midnightblue" stroke="midnightblue" points="647.571,-301.156 640.159,-293.585 641.232,-304.125 647.571,-301.156"/>
</g>
<!-- Node17 -->
<g id="node17" class="node"><title>Node17</title>
<g id="a_node17"><a xlink:href="$SPIDriver_8h.html" xlink:title="SPIDriver.h">
<polygon fill="white" stroke="black" points="1298.39,-275.5 1298.39,-293.5 1364.97,-293.5 1364.97,-275.5 1298.39,-275.5"/>
<text text-anchor="middle" x="1331.68" y="-281.5" font-family="Helvetica,sans-Serif" font-size="10.00">SPIDriver.h</text>
</a>
</g>
</g>
<!-- Node2&#45;&gt;Node17 -->
<g id="edge48" class="edge"><title>Node2&#45;&gt;Node17</title>
<path fill="none" stroke="midnightblue" d="M940.659,-449.108C1035.54,-449.196 1231.91,-444.329 1284.68,-404 1316.39,-379.767 1326.74,-330.881 1330.1,-304.094"/>
<polygon fill="midnightblue" stroke="midnightblue" points="1333.61,-304.114 1331.17,-293.805 1326.65,-303.387 1333.61,-304.114"/>
</g>
<!-- Node18 -->
<g id="node18" class="node"><title>Node18</title>
<g id="a_node18"><a xlink:href="$Storage_8h.html" xlink:title="Storage.h">
<polygon fill="white" stroke="black" points="1145,-275.5 1145,-293.5 1204.36,-293.5 1204.36,-275.5 1145,-275.5"/>
<text text-anchor="middle" x="1174.68" y="-281.5" font-family="Helvetica,sans-Serif" font-size="10.00">Storage.h</text>
</a>
</g>
</g>
<!-- Node2&#45;&gt;Node18 -->
<g id="edge50" class="edge"><title>Node2&#45;&gt;Node18</title>
<path fill="none" stroke="midnightblue" d="M940.671,-446.393C1008.09,-442.558 1120.52,-432.039 1149.68,-404 1177,-377.72 1178.24,-329.67 1176.58,-303.557"/>
<polygon fill="midnightblue" stroke="midnightblue" points="1180.06,-303.214 1175.73,-293.546 1173.09,-303.807 1180.06,-303.214"/>
</g>
<!-- Node19 -->
<g id="node19" class="node"><title>Node19</title>
<g id="a_node19"><a xlink:href="$UARTDriver_8h.html" xlink:title="UARTDriver.h">
<polygon fill="white" stroke="black" points="802.926,-275.5 802.926,-293.5 880.43,-293.5 880.43,-275.5 802.926,-275.5"/>
<text text-anchor="middle" x="841.678" y="-281.5" font-family="Helvetica,sans-Serif" font-size="10.00">UARTDriver.h</text>
</a>
</g>
</g>
<!-- Node2&#45;&gt;Node19 -->
<g id="edge44" class="edge"><title>Node2&#45;&gt;Node19</title>
<path fill="none" stroke="midnightblue" d="M886.283,-440.193C878.991,-414.903 856.947,-338.453 846.841,-303.405"/>
<polygon fill="midnightblue" stroke="midnightblue" points="850.147,-302.236 844.013,-293.597 843.421,-304.175 850.147,-302.236"/>
</g>
<!-- Node22 -->
<g id="node22" class="node"><title>Node22</title>
<g id="a_node22"><a xlink:href="$BetterStream_8h.html" xlink:title="utility/BetterStream.h">
<polygon fill="white" stroke="black" points="290.272,-220.5 290.272,-238.5 399.084,-238.5 399.084,-220.5 290.272,-220.5"/>
<text text-anchor="middle" x="344.678" y="-226.5" font-family="Helvetica,sans-Serif" font-size="10.00">utility/BetterStream.h</text>
</a>
</g>
</g>
<!-- Node2&#45;&gt;Node22 -->
<g id="edge66" class="edge"><title>Node2&#45;&gt;Node22</title>
<path fill="none" stroke="midnightblue" d="M836.735,-445.607C782.551,-441.247 695.879,-430.454 625.678,-404 517.486,-363.23 405.383,-279.033 362.664,-245.124"/>
<polygon fill="midnightblue" stroke="midnightblue" points="364.62,-242.207 354.628,-238.685 360.243,-247.67 364.62,-242.207"/>
</g>
<!-- Node24 -->
<g id="node24" class="node"><title>Node24</title>
<g id="a_node24"><a xlink:href="$Stream_8h.html" xlink:title="Stream.h">
<polygon fill="white" stroke="black" points="236.393,-165.5 236.393,-183.5 292.964,-183.5 292.964,-165.5 236.393,-165.5"/>
<text text-anchor="middle" x="264.678" y="-171.5" font-family="Helvetica,sans-Serif" font-size="10.00">Stream.h</text>
</a>
</g>
</g>
<!-- Node2&#45;&gt;Node24 -->
<g id="edge65" class="edge"><title>Node2&#45;&gt;Node24</title>
<path fill="none" stroke="midnightblue" d="M836.712,-446.59C774.425,-443.038 667.575,-432.9 580.678,-404 527.335,-386.259 307.291,-271.822 281.678,-239 271.586,-226.066 267.467,-207.636 265.796,-193.96"/>
<polygon fill="midnightblue" stroke="midnightblue" points="269.266,-193.464 264.89,-183.815 262.293,-194.086 269.266,-193.464"/>
</g>
<!-- Node25 -->
<g id="node25" class="node"><title>Node25</title>
<g id="a_node25"><a xlink:href="$Print_8h.html" xlink:title="Print.h">
<polygon fill="white" stroke="black" points="210.228,-110.5 210.228,-128.5 255.129,-128.5 255.129,-110.5 210.228,-110.5"/>
<text text-anchor="middle" x="232.678" y="-116.5" font-family="Helvetica,sans-Serif" font-size="10.00">Print.h</text>
</a>
</g>
</g>
<!-- Node2&#45;&gt;Node25 -->
<g id="edge64" class="edge"><title>Node2&#45;&gt;Node25</title>
<path fill="none" stroke="midnightblue" d="M836.535,-446.967C766.429,-443.782 638.479,-434.002 533.678,-404 309.62,-339.857 183.234,-380.347 57.6782,-184 24.0878,-131.47 140.504,-122.051 199.917,-120.598"/>
<polygon fill="midnightblue" stroke="midnightblue" points="200.023,-124.097 209.958,-120.415 199.896,-117.098 200.023,-124.097"/>
</g>
<!-- Node26 -->
<g id="node26" class="node"><title>Node26</title>
<g id="a_node26"><a xlink:href="$I2CDriver_8h.html" xlink:title="I2CDriver.h">
<polygon fill="white" stroke="black" points="570.668,-165.5 570.668,-183.5 636.688,-183.5 636.688,-165.5 570.668,-165.5"/>
<text text-anchor="middle" x="603.678" y="-171.5" font-family="Helvetica,sans-Serif" font-size="10.00">I2CDriver.h</text>
</a>
</g>
</g>
<!-- Node2&#45;&gt;Node26 -->
<g id="edge45" class="edge"><title>Node2&#45;&gt;Node26</title>
<path fill="none" stroke="midnightblue" d="M842.959,-440.467C816.739,-434.054 784.423,-422.903 760.678,-404 707.713,-361.836 718.265,-330.625 679.678,-275 658.62,-244.643 632.022,-210.735 616.524,-191.374"/>
<polygon fill="midnightblue" stroke="midnightblue" points="619.239,-189.165 610.244,-183.566 613.784,-193.552 619.239,-189.165"/>
</g>
<!-- Node27 -->
<g id="node27" class="node"><title>Node27</title>
<g id="a_node27"><a xlink:href="$Scheduler_8h.html" xlink:title="Scheduler.h">
<polygon fill="white" stroke="black" points="1060.27,-220.5 1060.27,-238.5 1129.09,-238.5 1129.09,-220.5 1060.27,-220.5"/>
<text text-anchor="middle" x="1094.68" y="-226.5" font-family="Helvetica,sans-Serif" font-size="10.00">Scheduler.h</text>
</a>
</g>
</g>
<!-- Node2&#45;&gt;Node27 -->
<g id="edge54" class="edge"><title>Node2&#45;&gt;Node27</title>
<path fill="none" stroke="midnightblue" d="M896.254,-440.483C926.532,-408.441 1039.17,-289.24 1079.88,-246.16"/>
<polygon fill="midnightblue" stroke="midnightblue" points="1082.49,-248.495 1086.81,-238.823 1077.4,-243.688 1082.49,-248.495"/>
</g>
<!-- Node28 -->
<g id="node28" class="node"><title>Node28</title>
<g id="a_node28"><a xlink:href="$Semaphores_8h.html" xlink:title="Semaphores.h">
<polygon fill="white" stroke="black" points="1396.16,-330.5 1396.16,-348.5 1477.2,-348.5 1477.2,-330.5 1396.16,-330.5"/>
<text text-anchor="middle" x="1436.68" y="-336.5" font-family="Helvetica,sans-Serif" font-size="10.00">Semaphores.h</text>
</a>
</g>
</g>
<!-- Node2&#45;&gt;Node28 -->
<g id="edge59" class="edge"><title>Node2&#45;&gt;Node28</title>
<path fill="none" stroke="midnightblue" d="M940.909,-448.282C1073.25,-447.187 1413.7,-440.788 1447.68,-404 1459.04,-391.698 1453.36,-372.075 1446.67,-357.897"/>
<polygon fill="midnightblue" stroke="midnightblue" points="1449.61,-355.949 1441.86,-348.718 1443.41,-359.2 1449.61,-355.949"/>
</g>
<!-- Node29 -->
<g id="node29" class="node"><title>Node29</title>
<g id="a_node29"><a xlink:href="$Util_8h.html" xlink:title="Util.h">
<polygon fill="white" stroke="black" points="417.287,-220.5 417.287,-238.5 456.07,-238.5 456.07,-220.5 417.287,-220.5"/>
<text text-anchor="middle" x="436.678" y="-226.5" font-family="Helvetica,sans-Serif" font-size="10.00">Util.h</text>
</a>
</g>
</g>
<!-- Node2&#45;&gt;Node29 -->
<g id="edge61" class="edge"><title>Node2&#45;&gt;Node29</title>
<path fill="none" stroke="midnightblue" d="M836.604,-444.949C789.641,-440.204 719.572,-429.224 663.678,-404 573.269,-363.199 485.595,-280.277 451.548,-245.932"/>
<polygon fill="midnightblue" stroke="midnightblue" points="453.918,-243.35 444.42,-238.656 448.917,-248.249 453.918,-243.35"/>
</g>
<!-- Node6 -->
<g id="node6" class="node"><title>Node6</title>
<polygon fill="white" stroke="#bfbfbf" points="165.282,-0.5 165.282,-18.5 214.075,-18.5 214.075,-0.5 165.282,-0.5"/>
<text text-anchor="middle" x="189.678" y="-6.5" font-family="Helvetica,sans-Serif" font-size="10.00">string.h</text>
</g>
<!-- Node5&#45;&gt;Node6 -->
<g id="edge5" class="edge"><title>Node5&#45;&gt;Node6</title>
<path fill="none" stroke="midnightblue" d="M883.852,-59.2301C732.606,-48.6128 343.196,-21.2767 224.523,-12.9461"/>
<polygon fill="midnightblue" stroke="midnightblue" points="224.437,-9.43148 214.216,-12.2225 223.946,-16.4143 224.437,-9.43148"/>
</g>
<!-- Node7 -->
<g id="node7" class="node"><title>Node7</title>
<g id="a_node7"><a xlink:href="$functor_8h.html" xlink:title="utility/functor.h">
<polygon fill="white" stroke="black" points="904.715,-0.5 904.715,-18.5 984.641,-18.5 984.641,-0.5 904.715,-0.5"/>
<text text-anchor="middle" x="944.678" y="-6.5" font-family="Helvetica,sans-Serif" font-size="10.00">utility/functor.h</text>
</a>
</g>
</g>
<!-- Node5&#45;&gt;Node7 -->
<g id="edge6" class="edge"><title>Node5&#45;&gt;Node7</title>
<path fill="none" stroke="midnightblue" d="M944.678,-55.2188C944.678,-48.1769 944.678,-37.8083 944.678,-28.8277"/>
<polygon fill="midnightblue" stroke="midnightblue" points="948.178,-28.5495 944.678,-18.5496 941.178,-28.5496 948.178,-28.5495"/>
</g>
<!-- Node10&#45;&gt;Node11 -->
<g id="edge10" class="edge"><title>Node10&#45;&gt;Node11</title>
<path fill="none" stroke="midnightblue" d="M1090.83,-385.219C1086.49,-377.786 1079.97,-366.646 1074.53,-357.345"/>
<polygon fill="midnightblue" stroke="midnightblue" points="1077.46,-355.414 1069.39,-348.55 1071.41,-358.949 1077.46,-355.414"/>
</g>
<!-- Node11&#45;&gt;Node5 -->
<g id="edge11" class="edge"><title>Node11&#45;&gt;Node5</title>
<path fill="none" stroke="midnightblue" d="M1075.69,-330.422C1098.86,-312.354 1149.56,-266.594 1137.68,-220 1123.92,-166.038 1120.37,-145.755 1077.68,-110 1057.58,-93.1688 1030.86,-82.6238 1006.65,-76.0546"/>
<polygon fill="midnightblue" stroke="midnightblue" points="1007.36,-72.6243 996.806,-73.5597 1005.64,-79.4097 1007.36,-72.6243"/>
</g>
<!-- Node11&#45;&gt;Node12 -->
<g id="edge12" class="edge"><title>Node11&#45;&gt;Node12</title>
<path fill="none" stroke="midnightblue" d="M1042.48,-335.272C996.113,-328.438 885.683,-311.683 793.678,-294 705.873,-277.124 603.845,-253.723 547.857,-240.553"/>
<polygon fill="midnightblue" stroke="midnightblue" points="548.489,-237.106 537.953,-238.216 546.882,-243.919 548.489,-237.106"/>
</g>
<!-- Node11&#45;&gt;Node14 -->
<g id="edge15" class="edge"><title>Node11&#45;&gt;Node14</title>
<path fill="none" stroke="midnightblue" d="M1055.66,-330.382C1035.59,-312.322 987.002,-268.591 961.284,-245.445"/>
<polygon fill="midnightblue" stroke="midnightblue" points="963.577,-242.8 953.802,-238.712 958.894,-248.003 963.577,-242.8"/>
</g>
<!-- Node11&#45;&gt;Node15 -->
<g id="edge18" class="edge"><title>Node11&#45;&gt;Node15</title>
<path fill="none" stroke="midnightblue" d="M1086.8,-335.799C1155.84,-327.368 1368.07,-301.449 1457.87,-290.483"/>
<polygon fill="midnightblue" stroke="midnightblue" points="1458.45,-293.939 1467.95,-289.253 1457.6,-286.991 1458.45,-293.939"/>
</g>
<!-- Node11&#45;&gt;Node16 -->
<g id="edge20" class="edge"><title>Node11&#45;&gt;Node16</title>
<path fill="none" stroke="midnightblue" d="M1042.77,-336.389C984.412,-330.667 820.384,-313.944 684.678,-294 683.59,-293.84 682.488,-293.674 681.377,-293.504"/>
<polygon fill="midnightblue" stroke="midnightblue" points="681.676,-290.007 671.247,-291.871 680.563,-296.918 681.676,-290.007"/>
</g>
<!-- Node11&#45;&gt;Node17 -->
<g id="edge22" class="edge"><title>Node11&#45;&gt;Node17</title>
<path fill="none" stroke="midnightblue" d="M1086.98,-334.072C1131.2,-325.295 1230.67,-305.55 1288.25,-294.12"/>
<polygon fill="midnightblue" stroke="midnightblue" points="1289.02,-297.536 1298.15,-292.156 1287.66,-290.67 1289.02,-297.536"/>
</g>
<!-- Node11&#45;&gt;Node18 -->
<g id="edge24" class="edge"><title>Node11&#45;&gt;Node18</title>
<path fill="none" stroke="midnightblue" d="M1081.38,-330.45C1099.23,-321.851 1127.76,-308.105 1148.58,-298.075"/>
<polygon fill="midnightblue" stroke="midnightblue" points="1150.32,-301.119 1157.81,-293.625 1147.29,-294.813 1150.32,-301.119"/>
</g>
<!-- Node11&#45;&gt;Node19 -->
<g id="edge27" class="edge"><title>Node11&#45;&gt;Node19</title>
<path fill="none" stroke="midnightblue" d="M1042.48,-333.224C1006.05,-324.565 932.893,-307.179 885.663,-295.954"/>
<polygon fill="midnightblue" stroke="midnightblue" points="886.248,-292.496 875.71,-293.588 884.63,-299.306 886.248,-292.496"/>
</g>
<!-- Node12&#45;&gt;Node5 -->
<g id="edge14" class="edge"><title>Node12&#45;&gt;Node5</title>
<path fill="none" stroke="midnightblue" d="M504.372,-220.363C501.408,-198.71 496.726,-139.341 528.678,-110 553.516,-87.1921 761.221,-74.0577 873.419,-68.5642"/>
<polygon fill="midnightblue" stroke="midnightblue" points="873.819,-72.0491 883.64,-68.072 873.483,-65.0572 873.819,-72.0491"/>
</g>
<!-- Node13 -->
<g id="node13" class="node"><title>Node13</title>
<polygon fill="white" stroke="#bfbfbf" points="322.277,-55.5 322.277,-73.5 381.08,-73.5 381.08,-55.5 322.277,-55.5"/>
<text text-anchor="middle" x="351.678" y="-61.5" font-family="Helvetica,sans-Serif" font-size="10.00">inttypes.h</text>
</g>
<!-- Node12&#45;&gt;Node13 -->
<g id="edge13" class="edge"><title>Node12&#45;&gt;Node13</title>
<path fill="none" stroke="midnightblue" d="M497.83,-220.193C473.42,-194.356 398.558,-115.12 366.5,-81.1878"/>
<polygon fill="midnightblue" stroke="midnightblue" points="368.74,-78.4624 359.328,-73.5971 363.652,-83.2697 368.74,-78.4624"/>
</g>
<!-- Node14&#45;&gt;Node3 -->
<g id="edge16" class="edge"><title>Node14&#45;&gt;Node3</title>
<path fill="none" stroke="midnightblue" d="M944.388,-220.137C943.446,-206.529 939.555,-179.642 923.678,-165 902.227,-145.216 821.719,-131.386 774.94,-124.826"/>
<polygon fill="midnightblue" stroke="midnightblue" points="775.327,-121.347 764.946,-123.463 774.381,-128.282 775.327,-121.347"/>
</g>
<!-- Node14&#45;&gt;Node5 -->
<g id="edge17" class="edge"><title>Node14&#45;&gt;Node5</title>
<path fill="none" stroke="midnightblue" d="M969.616,-222.975C990.147,-217.025 1018.15,-205.385 1032.68,-184 1051.2,-156.731 1055.25,-137.889 1037.68,-110 1027.53,-93.9005 1009.78,-83.4982 992.478,-76.8378"/>
<polygon fill="midnightblue" stroke="midnightblue" points="993.562,-73.5088 982.967,-73.51 991.25,-80.1161 993.562,-73.5088"/>
</g>
<!-- Node15&#45;&gt;Node5 -->
<g id="edge19" class="edge"><title>Node15&#45;&gt;Node5</title>
<path fill="none" stroke="midnightblue" d="M1499.54,-275.301C1501.98,-247.106 1505.81,-153.484 1454.68,-110 1421.97,-82.1875 1148.12,-71.0087 1015.76,-67.1983"/>
<polygon fill="midnightblue" stroke="midnightblue" points="1015.8,-63.6982 1005.71,-66.9153 1015.6,-70.6955 1015.8,-63.6982"/>
</g>
<!-- Node16&#45;&gt;Node5 -->
<g id="edge21" class="edge"><title>Node16&#45;&gt;Node5</title>
<path fill="none" stroke="midnightblue" d="M624.295,-275.253C597.099,-256.086 536.51,-206.97 561.678,-165 588.367,-120.493 615.484,-126.523 664.678,-110 733.565,-86.8629 816.121,-75.6121 873.67,-70.2331"/>
<polygon fill="midnightblue" stroke="midnightblue" points="874.11,-73.7077 883.757,-69.3264 873.484,-66.7358 874.11,-73.7077"/>
</g>
<!-- Node17&#45;&gt;Node5 -->
<g id="edge23" class="edge"><title>Node17&#45;&gt;Node5</title>
<path fill="none" stroke="midnightblue" d="M1333.83,-275.373C1336.06,-266.508 1339.39,-251.862 1340.68,-239 1344.02,-205.609 1345.34,-192.196 1325.68,-165 1299.75,-129.136 1283.99,-125.867 1242.68,-110 1168.55,-81.5282 1077.56,-71.1754 1015.76,-67.4647"/>
<polygon fill="midnightblue" stroke="midnightblue" points="1015.9,-63.967 1005.72,-66.9047 1015.51,-70.9562 1015.9,-63.967"/>
</g>
<!-- Node18&#45;&gt;Node3 -->
<g id="edge25" class="edge"><title>Node18&#45;&gt;Node3</title>
<path fill="none" stroke="midnightblue" d="M1145.96,-275.419C1120.46,-267.709 1082.56,-254.924 1051.68,-239 1000.29,-212.5 997.709,-188.043 944.678,-165 914.571,-151.917 824.954,-135.072 775.103,-126.337"/>
<polygon fill="midnightblue" stroke="midnightblue" points="775.556,-122.863 765.104,-124.6 774.358,-129.76 775.556,-122.863"/>
</g>
<!-- Node18&#45;&gt;Node5 -->
<g id="edge26" class="edge"><title>Node18&#45;&gt;Node5</title>
<path fill="none" stroke="midnightblue" d="M1198.6,-275.405C1245.17,-258.304 1340.65,-215.862 1307.68,-165 1275.97,-116.08 1112.11,-87.0161 1015.72,-73.8949"/>
<polygon fill="midnightblue" stroke="midnightblue" points="1016.13,-70.418 1005.75,-72.5616 1015.2,-77.3563 1016.13,-70.418"/>
</g>
<!-- Node19&#45;&gt;Node3 -->
<g id="edge28" class="edge"><title>Node19&#45;&gt;Node3</title>
<path fill="none" stroke="midnightblue" d="M832.918,-275.314C816.292,-259.315 780.01,-222.119 759.678,-184 752.055,-169.708 747.07,-151.934 744.128,-138.828"/>
<polygon fill="midnightblue" stroke="midnightblue" points="747.492,-137.81 742.052,-128.718 740.635,-139.218 747.492,-137.81"/>
</g>
<!-- Node19&#45;&gt;Node5 -->
<g id="edge33" class="edge"><title>Node19&#45;&gt;Node5</title>
<path fill="none" stroke="midnightblue" d="M851.114,-275.27C868.549,-259.481 905.671,-223.024 923.678,-184 938.95,-150.904 943.16,-107.886 944.292,-83.8374"/>
<polygon fill="midnightblue" stroke="midnightblue" points="947.795,-83.795 944.636,-73.6823 940.799,-83.5582 947.795,-83.795"/>
</g>
<!-- Node19&#45;&gt;Node20 -->
<g id="edge29" class="edge"><title>Node19&#45;&gt;Node20</title>
<path fill="none" stroke="midnightblue" d="M841.678,-275.382C841.678,-258.182 841.678,-217.698 841.678,-193.887"/>
<polygon fill="midnightblue" stroke="midnightblue" points="845.178,-193.712 841.678,-183.712 838.178,-193.712 845.178,-193.712"/>
</g>
<!-- Node19&#45;&gt;Node22 -->
<g id="edge34" class="edge"><title>Node19&#45;&gt;Node22</title>
<path fill="none" stroke="midnightblue" d="M802.822,-279.896C728.601,-272.928 561.293,-256.814 409.131,-239.018"/>
<polygon fill="midnightblue" stroke="midnightblue" points="409.472,-235.534 399.132,-237.844 408.655,-242.486 409.472,-235.534"/>
</g>
<!-- Node20&#45;&gt;Node3 -->
<g id="edge30" class="edge"><title>Node20&#45;&gt;Node3</title>
<path fill="none" stroke="midnightblue" d="M826.338,-165.45C810.099,-156.929 784.229,-143.353 765.163,-133.349"/>
<polygon fill="midnightblue" stroke="midnightblue" points="766.644,-130.173 756.162,-128.625 763.391,-136.371 766.644,-130.173"/>
</g>
<!-- Node20&#45;&gt;Node4 -->
<g id="edge32" class="edge"><title>Node20&#45;&gt;Node4</title>
<path fill="none" stroke="midnightblue" d="M865.827,-165.45C892.755,-156.475 936.502,-141.892 966.834,-131.781"/>
<polygon fill="midnightblue" stroke="midnightblue" points="968.183,-135.021 976.563,-128.538 965.97,-128.38 968.183,-135.021"/>
</g>
<!-- Node21 -->
<g id="node21" class="node"><title>Node21</title>
<polygon fill="white" stroke="#bfbfbf" points="817.836,-110.5 817.836,-128.5 865.52,-128.5 865.52,-110.5 817.836,-110.5"/>
<text text-anchor="middle" x="841.678" y="-116.5" font-family="Helvetica,sans-Serif" font-size="10.00">stdlib.h</text>
</g>
<!-- Node20&#45;&gt;Node21 -->
<g id="edge31" class="edge"><title>Node20&#45;&gt;Node21</title>
<path fill="none" stroke="midnightblue" d="M841.678,-165.219C841.678,-158.177 841.678,-147.808 841.678,-138.828"/>
<polygon fill="midnightblue" stroke="midnightblue" points="845.178,-138.55 841.678,-128.55 838.178,-138.55 845.178,-138.55"/>
</g>
<!-- Node22&#45;&gt;Node5 -->
<g id="edge37" class="edge"><title>Node22&#45;&gt;Node5</title>
<path fill="none" stroke="midnightblue" d="M340.967,-220.227C335.749,-207.216 328.101,-181.733 339.678,-165 379.131,-107.978 418.139,-125.704 485.678,-110 620.459,-78.6608 782.471,-69.3546 873.506,-66.6155"/>
<polygon fill="midnightblue" stroke="midnightblue" points="873.813,-70.1083 883.71,-66.3272 873.615,-63.1111 873.813,-70.1083"/>
</g>
<!-- Node22&#45;&gt;Node20 -->
<g id="edge36" class="edge"><title>Node22&#45;&gt;Node20</title>
<path fill="none" stroke="midnightblue" d="M399.132,-221.156C402.361,-220.756 405.561,-220.367 408.678,-220 530.142,-205.696 671.086,-191.692 758.334,-183.326"/>
<polygon fill="midnightblue" stroke="midnightblue" points="758.819,-186.796 768.44,-182.359 758.152,-179.828 758.819,-186.796"/>
</g>
<!-- Node23 -->
<g id="node23" class="node"><title>Node23</title>
<polygon fill="white" stroke="#bfbfbf" points="348.612,-165.5 348.612,-183.5 400.745,-183.5 400.745,-165.5 348.612,-165.5"/>
<text text-anchor="middle" x="374.678" y="-171.5" font-family="Helvetica,sans-Serif" font-size="10.00">stdarg.h</text>
</g>
<!-- Node22&#45;&gt;Node23 -->
<g id="edge35" class="edge"><title>Node22&#45;&gt;Node23</title>
<path fill="none" stroke="midnightblue" d="M349.366,-220.219C353.573,-212.786 359.879,-201.646 365.144,-192.345"/>
<polygon fill="midnightblue" stroke="midnightblue" points="368.242,-193.976 370.122,-183.55 362.15,-190.528 368.242,-193.976"/>
</g>
<!-- Node22&#45;&gt;Node24 -->
<g id="edge38" class="edge"><title>Node22&#45;&gt;Node24</title>
<path fill="none" stroke="midnightblue" d="M332.528,-220.45C320.076,-212.201 300.476,-199.216 285.537,-189.319"/>
<polygon fill="midnightblue" stroke="midnightblue" points="287.212,-186.231 276.943,-183.625 283.346,-192.066 287.212,-186.231"/>
</g>
<!-- Node24&#45;&gt;Node5 -->
<g id="edge39" class="edge"><title>Node24&#45;&gt;Node5</title>
<path fill="none" stroke="midnightblue" d="M267.451,-165.089C272.624,-150.897 285.214,-122.52 306.678,-110 354.64,-82.0246 717.168,-70.5986 873.399,-66.9396"/>
<polygon fill="midnightblue" stroke="midnightblue" points="873.918,-70.4286 883.835,-66.6995 873.757,-63.4305 873.918,-70.4286"/>
</g>
<!-- Node24&#45;&gt;Node25 -->
<g id="edge40" class="edge"><title>Node24&#45;&gt;Node25</title>
<path fill="none" stroke="midnightblue" d="M259.678,-165.219C255.19,-157.786 248.464,-146.646 242.849,-137.345"/>
<polygon fill="midnightblue" stroke="midnightblue" points="245.703,-135.301 237.538,-128.55 239.711,-138.919 245.703,-135.301"/>
</g>
<!-- Node25&#45;&gt;Node5 -->
<g id="edge41" class="edge"><title>Node25&#45;&gt;Node5</title>
<path fill="none" stroke="midnightblue" d="M255.42,-112.528C259.795,-111.551 264.36,-110.647 268.678,-110 487.594,-77.1829 750.002,-68.567 873.627,-66.3051"/>
<polygon fill="midnightblue" stroke="midnightblue" points="873.783,-69.803 883.72,-66.129 873.66,-62.8041 873.783,-69.803"/>
</g>
<!-- Node25&#45;&gt;Node6 -->
<g id="edge43" class="edge"><title>Node25&#45;&gt;Node6</title>
<path fill="none" stroke="midnightblue" d="M229.446,-110.382C222.536,-93.0258 206.185,-51.96 196.742,-28.2413"/>
<polygon fill="midnightblue" stroke="midnightblue" points="199.899,-26.7077 192.948,-18.7118 193.395,-29.2971 199.899,-26.7077"/>
</g>
<!-- Node25&#45;&gt;Node13 -->
<g id="edge42" class="edge"><title>Node25&#45;&gt;Node13</title>
<path fill="none" stroke="midnightblue" d="M250.752,-110.45C270.235,-101.773 301.484,-87.8556 324.052,-77.8041"/>
<polygon fill="midnightblue" stroke="midnightblue" points="325.724,-80.8911 333.435,-73.6253 322.876,-74.4966 325.724,-80.8911"/>
</g>
<!-- Node26&#45;&gt;Node3 -->
<g id="edge46" class="edge"><title>Node26&#45;&gt;Node3</title>
<path fill="none" stroke="midnightblue" d="M624.486,-165.45C647.318,-156.617 684.186,-142.355 710.262,-132.267"/>
<polygon fill="midnightblue" stroke="midnightblue" points="711.611,-135.498 719.675,-128.625 709.086,-128.969 711.611,-135.498"/>
</g>
<!-- Node26&#45;&gt;Node5 -->
<g id="edge47" class="edge"><title>Node26&#45;&gt;Node5</title>
<path fill="none" stroke="midnightblue" d="M613.935,-165.459C631.868,-151.825 670.553,-124.266 707.678,-110 761.309,-89.3907 825.55,-78.0893 873.612,-72.0391"/>
<polygon fill="midnightblue" stroke="midnightblue" points="874.106,-75.5048 883.612,-70.8262 873.264,-68.5557 874.106,-75.5048"/>
</g>
<!-- Node27&#45;&gt;Node3 -->
<g id="edge55" class="edge"><title>Node27&#45;&gt;Node3</title>
<path fill="none" stroke="midnightblue" d="M1084.89,-220.395C1067.76,-206.666 1030.73,-178.967 994.678,-165 955.1,-149.667 834.804,-132.635 775.076,-124.832"/>
<polygon fill="midnightblue" stroke="midnightblue" points="775.37,-121.341 765.003,-123.529 774.471,-128.283 775.37,-121.341"/>
</g>
<!-- Node27&#45;&gt;Node5 -->
<g id="edge58" class="edge"><title>Node27&#45;&gt;Node5</title>
<path fill="none" stroke="midnightblue" d="M1094.37,-220.426C1093.15,-199.435 1087.06,-142.52 1056.68,-110 1041.26,-93.5023 1018.94,-83.0061 998.28,-76.3832"/>
<polygon fill="midnightblue" stroke="midnightblue" points="999.202,-73.0063 988.62,-73.5196 997.213,-79.7176 999.202,-73.0063"/>
</g>
<!-- Node27&#45;&gt;Node8 -->
<g id="edge57" class="edge"><title>Node27&#45;&gt;Node8</title>
<path fill="none" stroke="midnightblue" d="M1118.07,-220.45C1144.04,-211.514 1186.15,-197.019 1215.51,-186.913"/>
<polygon fill="midnightblue" stroke="midnightblue" points="1217,-190.102 1225.32,-183.538 1214.73,-183.483 1217,-190.102"/>
</g>
<!-- Node27&#45;&gt;Node20 -->
<g id="edge56" class="edge"><title>Node27&#45;&gt;Node20</title>
<path fill="none" stroke="midnightblue" d="M1060.03,-221.242C1015.97,-212.012 939.655,-196.025 889.92,-185.606"/>
<polygon fill="midnightblue" stroke="midnightblue" points="890.544,-182.161 880.039,-183.536 889.109,-189.012 890.544,-182.161"/>
</g>
<!-- Node28&#45;&gt;Node5 -->
<g id="edge60" class="edge"><title>Node28&#45;&gt;Node5</title>
<path fill="none" stroke="midnightblue" d="M1434.42,-330.238C1424.15,-294.503 1377.97,-153.119 1279.68,-110 1233.73,-89.8426 1099.63,-76.7556 1015.69,-70.2896"/>
<polygon fill="midnightblue" stroke="midnightblue" points="1015.94,-66.7991 1005.71,-69.5339 1015.42,-73.7792 1015.94,-66.7991"/>
</g>
<!-- Node29&#45;&gt;Node5 -->
<g id="edge63" class="edge"><title>Node29&#45;&gt;Node5</title>
<path fill="none" stroke="midnightblue" d="M439.059,-220.376C446.021,-198.227 468.623,-136.663 511.678,-110 570.495,-73.5764 766.67,-66.491 873.636,-65.4094"/>
<polygon fill="midnightblue" stroke="midnightblue" points="873.732,-68.9088 883.702,-65.3227 873.672,-61.9091 873.732,-68.9088"/>
</g>
<!-- Node29&#45;&gt;Node23 -->
<g id="edge62" class="edge"><title>Node29&#45;&gt;Node23</title>
<path fill="none" stroke="midnightblue" d="M427.262,-220.45C417.885,-212.434 403.277,-199.947 391.835,-190.166"/>
<polygon fill="midnightblue" stroke="midnightblue" points="394.059,-187.463 384.183,-183.625 389.51,-192.784 394.059,-187.463"/>
</g>
<!-- Node30&#45;&gt;Node2 -->
<g id="edge70" class="edge"><title>Node30&#45;&gt;Node2</title>
<path fill="none" stroke="midnightblue" d="M283.3,-550.471C401.327,-530.98 702.636,-481.223 830.206,-460.156"/>
<polygon fill="midnightblue" stroke="midnightblue" points="830.884,-463.591 840.181,-458.509 829.744,-456.685 830.884,-463.591"/>
</g>
<!-- Node30&#45;&gt;Node3 -->
<g id="edge73" class="edge"><title>Node30&#45;&gt;Node3</title>
<path fill="none" stroke="midnightblue" d="M251.026,-550.303C279.145,-534.91 333.678,-498.828 333.678,-450.5 333.678,-450.5 333.678,-450.5 333.678,-393.5 333.678,-392.765 637.567,-189.463 720.169,-134.216"/>
<polygon fill="midnightblue" stroke="midnightblue" points="722.131,-137.115 728.498,-128.646 718.239,-131.296 722.131,-137.115"/>
</g>
<!-- Node30&#45;&gt;Node6 -->
<g id="edge72" class="edge"><title>Node30&#45;&gt;Node6</title>
<path fill="none" stroke="midnightblue" d="M172.717,-552.724C117.359,-546.339 41.6978,-534.19 19.6782,-514 -2.03463,-494.091 0.678208,-479.958 0.678208,-450.5 0.678208,-450.5 0.678208,-450.5 0.678208,-118.5 0.678208,-48.2028 100.463,-23.043 155.023,-14.5403"/>
<polygon fill="midnightblue" stroke="midnightblue" points="155.576,-17.9967 164.97,-13.0962 154.571,-11.0693 155.576,-17.9967"/>
</g>
<!-- Node31 -->
<g id="node31" class="node"><title>Node31</title>
<polygon fill="white" stroke="#bfbfbf" points="28.8877,-495.5 28.8877,-513.5 80.4687,-513.5 80.4687,-495.5 28.8877,-495.5"/>
<text text-anchor="middle" x="54.6782" y="-501.5" font-family="Helvetica,sans-Serif" font-size="10.00">stddef.h</text>
</g>
<!-- Node30&#45;&gt;Node31 -->
<g id="edge71" class="edge"><title>Node30&#45;&gt;Node31</title>
<path fill="none" stroke="midnightblue" d="M207.34,-550.45C176.011,-541.226 124.57,-526.079 90.1715,-515.951"/>
<polygon fill="midnightblue" stroke="midnightblue" points="91.1001,-512.576 80.5187,-513.109 89.1229,-519.291 91.1001,-512.576"/>
</g>
<!-- Node32 -->
<g id="node32" class="node"><title>Node32</title>
<polygon fill="white" stroke="#bfbfbf" points="98.3926,-495.5 98.3926,-513.5 144.964,-513.5 144.964,-495.5 98.3926,-495.5"/>
<text text-anchor="middle" x="121.678" y="-501.5" font-family="Helvetica,sans-Serif" font-size="10.00">math.h</text>
</g>
<!-- Node30&#45;&gt;Node32 -->
<g id="edge74" class="edge"><title>Node30&#45;&gt;Node32</title>
<path fill="none" stroke="midnightblue" d="M217.516,-550.45C199.098,-541.812 169.608,-527.98 148.2,-517.94"/>
<polygon fill="midnightblue" stroke="midnightblue" points="149.542,-514.703 139.002,-513.625 146.569,-521.041 149.542,-514.703"/>
</g>
<!-- Node33 -->
<g id="node33" class="node"><title>Node33</title>
<polygon fill="white" stroke="#bfbfbf" points="163.058,-495.5 163.058,-513.5 206.299,-513.5 206.299,-495.5 163.058,-495.5"/>
<text text-anchor="middle" x="184.678" y="-501.5" font-family="Helvetica,sans-Serif" font-size="10.00">float.h</text>
</g>
<!-- Node30&#45;&gt;Node33 -->
<g id="edge75" class="edge"><title>Node30&#45;&gt;Node33</title>
<path fill="none" stroke="midnightblue" d="M226.866,-550.219C219.484,-542.394 208.228,-530.463 199.199,-520.892"/>
<polygon fill="midnightblue" stroke="midnightblue" points="201.68,-518.422 192.272,-513.55 196.588,-523.225 201.68,-518.422"/>
</g>
<!-- Node34 -->
<g id="node34" class="node"><title>Node34</title>
<g id="a_node34"><a xlink:href="$AP__Progmem_8h.html" xlink:title="AP_Progmem/AP_Progmem.h">
<polygon fill="white" stroke="black" points="66.873,-165.5 66.873,-183.5 218.483,-183.5 218.483,-165.5 66.873,-165.5"/>
<text text-anchor="middle" x="142.678" y="-171.5" font-family="Helvetica,sans-Serif" font-size="10.00">AP_Progmem/AP_Progmem.h</text>
</a>
</g>
</g>
<!-- Node30&#45;&gt;Node34 -->
<g id="edge76" class="edge"><title>Node30&#45;&gt;Node34</title>
<path fill="none" stroke="midnightblue" d="M233.104,-550.22C227.764,-521.398 210.678,-422.744 210.678,-340.5 210.678,-340.5 210.678,-340.5 210.678,-283.5 210.678,-245.357 179.929,-209.676 159.785,-190.394"/>
<polygon fill="midnightblue" stroke="midnightblue" points="162.149,-187.812 152.421,-183.614 157.408,-192.962 162.149,-187.812"/>
</g>
<!-- Node35 -->
<g id="node35" class="node"><title>Node35</title>
<g id="a_node35"><a xlink:href="$StorageManager_8h.html" xlink:title="StorageManager/StorageManager.h">
<polygon fill="white" stroke="black" points="643.9,-495.5 643.9,-513.5 819.456,-513.5 819.456,-495.5 643.9,-495.5"/>
<text text-anchor="middle" x="731.678" y="-501.5" font-family="Helvetica,sans-Serif" font-size="10.00">StorageManager/StorageManager.h</text>
</a>
</g>
</g>
<!-- Node30&#45;&gt;Node35 -->
<g id="edge79" class="edge"><title>Node30&#45;&gt;Node35</title>
<path fill="none" stroke="midnightblue" d="M296.619,-551.895C384.795,-542.492 546.825,-525.213 646.325,-514.602"/>
<polygon fill="midnightblue" stroke="midnightblue" points="646.777,-518.074 656.35,-513.533 646.035,-511.113 646.777,-518.074"/>
</g>
<!-- Node34&#45;&gt;Node3 -->
<g id="edge78" class="edge"><title>Node34&#45;&gt;Node3</title>
<path fill="none" stroke="midnightblue" d="M218.673,-165.851C221.714,-165.56 224.725,-165.276 227.678,-165 407.816,-148.181 623.744,-130.144 706.296,-123.325"/>
<polygon fill="midnightblue" stroke="midnightblue" points="706.69,-126.805 716.369,-122.495 706.115,-119.829 706.69,-126.805"/>
</g>
<!-- Node34&#45;&gt;Node6 -->
<g id="edge77" class="edge"><title>Node34&#45;&gt;Node6</title>
<path fill="none" stroke="midnightblue" d="M145.074,-165.193C152.366,-139.903 174.409,-63.4535 184.516,-28.4046"/>
<polygon fill="midnightblue" stroke="midnightblue" points="187.936,-29.1754 187.343,-18.5971 181.21,-27.2359 187.936,-29.1754"/>
</g>
<!-- Node35&#45;&gt;Node2 -->
<g id="edge80" class="edge"><title>Node35&#45;&gt;Node2</title>
<path fill="none" stroke="midnightblue" d="M755.523,-495.45C782.112,-486.475 825.309,-471.892 855.26,-461.781"/>
<polygon fill="midnightblue" stroke="midnightblue" points="856.511,-465.053 864.867,-458.538 854.272,-458.421 856.511,-465.053"/>
</g>
</g>
</svg>
