<?xml version="1.0" encoding="UTF-8" standalone="no"?>
<!DOCTYPE svg PUBLIC "-//W3C//DTD SVG 1.1//EN"
 "http://www.w3.org/Graphics/SVG/1.1/DTD/svg11.dtd">
<!-- Generated by graphviz version 2.38.0 (20140413.2041)
 -->
<!-- Title: libraries/APM_Control/AP_YawController.h Pages: 1 -->
<svg width="258pt" height="102pt"
 viewBox="0.00 0.00 257.68 102.00" xmlns="http://www.w3.org/2000/svg" xmlns:xlink="http://www.w3.org/1999/xlink">
<g id="graph0" class="graph" transform="scale(1 1) rotate(0) translate(4 98)">
<title>libraries/APM_Control/AP_YawController.h</title>
<polygon fill="white" stroke="none" points="-4,4 -4,-98 253.678,-98 253.678,4 -4,4"/>
<!-- Node1 -->
<g id="node1" class="node"><title>Node1</title>
<polygon fill="#bfbfbf" stroke="black" points="69.4219,-65.5 69.4219,-93.5 182.678,-93.5 182.678,-65.5 69.4219,-65.5"/>
<text text-anchor="start" x="77.4219" y="-81.5" font-family="Helvetica,sans-Serif" font-size="10.00">libraries/APM_Control</text>
<text text-anchor="middle" x="126.05" y="-71.5" font-family="Helvetica,sans-Serif" font-size="10.00">/AP_YawController.h</text>
</g>
<!-- Node2 -->
<g id="node2" class="node"><title>Node2</title>
<g id="a_node2"><a xlink:href="$AP__YawController_8cpp.html" xlink:title="libraries/APM_Control\l/AP_YawController.cpp">
<polygon fill="white" stroke="black" points="0,-0.5 0,-28.5 118.1,-28.5 118.1,-0.5 0,-0.5"/>
<text text-anchor="start" x="8" y="-16.5" font-family="Helvetica,sans-Serif" font-size="10.00">libraries/APM_Control</text>
<text text-anchor="middle" x="59.0498" y="-6.5" font-family="Helvetica,sans-Serif" font-size="10.00">/AP_YawController.cpp</text>
</a>
</g>
</g>
<!-- Node1&#45;&gt;Node2 -->
<g id="edge1" class="edge"><title>Node1&#45;&gt;Node2</title>
<path fill="none" stroke="midnightblue" d="M104.651,-58.3785C94.2595,-48.6076 82.0737,-37.1493 72.9145,-28.5369"/>
<polygon fill="midnightblue" stroke="midnightblue" points="102.485,-61.1459 112.167,-65.4464 107.28,-56.0462 102.485,-61.1459"/>
</g>
<!-- Node3 -->
<g id="node3" class="node"><title>Node3</title>
<g id="a_node3"><a xlink:href="$APM__Control_8h.html" xlink:title="libraries/APM_Control\l/APM_Control.h">
<polygon fill="white" stroke="black" points="136.422,-0.5 136.422,-28.5 249.678,-28.5 249.678,-0.5 136.422,-0.5"/>
<text text-anchor="start" x="144.422" y="-16.5" font-family="Helvetica,sans-Serif" font-size="10.00">libraries/APM_Control</text>
<text text-anchor="middle" x="193.05" y="-6.5" font-family="Helvetica,sans-Serif" font-size="10.00">/APM_Control.h</text>
</a>
</g>
</g>
<!-- Node1&#45;&gt;Node3 -->
<g id="edge2" class="edge"><title>Node1&#45;&gt;Node3</title>
<path fill="none" stroke="midnightblue" d="M147.449,-58.3785C157.84,-48.6076 170.026,-37.1493 179.185,-28.5369"/>
<polygon fill="midnightblue" stroke="midnightblue" points="144.82,-56.0462 139.932,-65.4464 149.615,-61.1459 144.82,-56.0462"/>
</g>
</g>
</svg>
