<?xml version="1.0" encoding="UTF-8" standalone="no"?>
<!DOCTYPE svg PUBLIC "-//W3C//DTD SVG 1.1//EN"
 "http://www.w3.org/Graphics/SVG/1.1/DTD/svg11.dtd">
<!-- Generated by graphviz version 2.38.0 (20140413.2041)
 -->
<!-- Title: libraries/AP_Scheduler/AP_Scheduler.h Pages: 1 -->
<svg width="1622pt" height="697pt"
 viewBox="0.00 0.00 1622.29 697.00" xmlns="http://www.w3.org/2000/svg" xmlns:xlink="http://www.w3.org/1999/xlink">
<g id="graph0" class="graph" transform="scale(1 1) rotate(0) translate(4 693)">
<title>libraries/AP_Scheduler/AP_Scheduler.h</title>
<polygon fill="white" stroke="none" points="-4,4 -4,-693 1618.29,-693 1618.29,4 -4,4"/>
<!-- Node1 -->
<g id="node1" class="node"><title>Node1</title>
<polygon fill="#bfbfbf" stroke="black" points="863.429,-660.5 863.429,-688.5 981.147,-688.5 981.147,-660.5 863.429,-660.5"/>
<text text-anchor="start" x="871.429" y="-676.5" font-family="Helvetica,sans-Serif" font-size="10.00">libraries/AP_Scheduler</text>
<text text-anchor="middle" x="922.288" y="-666.5" font-family="Helvetica,sans-Serif" font-size="10.00">/AP_Scheduler.h</text>
</g>
<!-- Node2 -->
<g id="node2" class="node"><title>Node2</title>
<g id="a_node2"><a xlink:href="$AP__Param_8h.html" xlink:title="A system for managing and storing variables that are of general interest to the system. ">
<polygon fill="white" stroke="black" points="907.375,-550.5 907.375,-568.5 1031.2,-568.5 1031.2,-550.5 907.375,-550.5"/>
<text text-anchor="middle" x="969.288" y="-556.5" font-family="Helvetica,sans-Serif" font-size="10.00">AP_Param/AP_Param.h</text>
</a>
</g>
</g>
<!-- Node1&#45;&gt;Node2 -->
<g id="edge1" class="edge"><title>Node1&#45;&gt;Node2</title>
<path fill="none" stroke="midnightblue" d="M924.716,-660.491C927.611,-646.419 933.107,-623.513 941.288,-605 945.631,-595.173 951.899,-584.975 957.404,-576.825"/>
<polygon fill="midnightblue" stroke="midnightblue" points="960.28,-578.821 963.153,-568.623 954.547,-574.803 960.28,-578.821"/>
</g>
<!-- Node3 -->
<g id="node3" class="node"><title>Node3</title>
<g id="a_node3"><a xlink:href="$AP__HAL_8h.html" xlink:title="AP_HAL/AP_HAL.h">
<polygon fill="white" stroke="black" points="650.375,-440.5 650.375,-458.5 754.202,-458.5 754.202,-440.5 650.375,-440.5"/>
<text text-anchor="middle" x="702.288" y="-446.5" font-family="Helvetica,sans-Serif" font-size="10.00">AP_HAL/AP_HAL.h</text>
</a>
</g>
</g>
<!-- Node1&#45;&gt;Node3 -->
<g id="edge79" class="edge"><title>Node1&#45;&gt;Node3</title>
<path fill="none" stroke="midnightblue" d="M896.404,-660.419C852.953,-637.102 765.568,-584.147 719.288,-514 710.254,-500.306 706.005,-481.969 704.016,-468.521"/>
<polygon fill="midnightblue" stroke="midnightblue" points="707.49,-468.095 702.822,-458.584 700.54,-468.93 707.49,-468.095"/>
</g>
<!-- Node36 -->
<g id="node36" class="node"><title>Node36</title>
<g id="a_node36"><a xlink:href="$AP__Vehicle_8h.html" xlink:title="AP_Vehicle/AP_Vehicle.h">
<polygon fill="white" stroke="black" points="950.577,-605.5 950.577,-623.5 1080,-623.5 1080,-605.5 950.577,-605.5"/>
<text text-anchor="middle" x="1015.29" y="-611.5" font-family="Helvetica,sans-Serif" font-size="10.00">AP_Vehicle/AP_Vehicle.h</text>
</a>
</g>
</g>
<!-- Node1&#45;&gt;Node36 -->
<g id="edge80" class="edge"><title>Node1&#45;&gt;Node36</title>
<path fill="none" stroke="midnightblue" d="M943.391,-660.339C958.392,-650.984 978.479,-638.456 993.608,-629.021"/>
<polygon fill="midnightblue" stroke="midnightblue" points="995.664,-631.863 1002.3,-623.602 991.96,-625.924 995.664,-631.863"/>
</g>
<!-- Node2&#45;&gt;Node3 -->
<g id="edge2" class="edge"><title>Node2&#45;&gt;Node3</title>
<path fill="none" stroke="midnightblue" d="M907.199,-552.172C848.86,-545.219 766.689,-532.52 740.288,-514 724.377,-502.838 714.001,-482.693 708.174,-468.08"/>
<polygon fill="midnightblue" stroke="midnightblue" points="711.439,-466.818 704.722,-458.625 704.864,-469.219 711.439,-466.818"/>
</g>
<!-- Node4 -->
<g id="node4" class="node"><title>Node4</title>
<polygon fill="white" stroke="#bfbfbf" points="500.167,-110.5 500.167,-128.5 548.409,-128.5 548.409,-110.5 500.167,-110.5"/>
<text text-anchor="middle" x="524.288" y="-116.5" font-family="Helvetica,sans-Serif" font-size="10.00">stdint.h</text>
</g>
<!-- Node2&#45;&gt;Node4 -->
<g id="edge71" class="edge"><title>Node2&#45;&gt;Node4</title>
<path fill="none" stroke="midnightblue" d="M907.074,-556.733C717.402,-550.529 159.288,-525.868 159.288,-450.5 159.288,-450.5 159.288,-450.5 159.288,-393.5 159.288,-344.334 186.996,-202.714 231.288,-165 269.588,-132.388 420.324,-123.633 489.387,-121.317"/>
<polygon fill="midnightblue" stroke="midnightblue" points="489.853,-124.804 499.741,-120.998 489.637,-117.808 489.853,-124.804"/>
</g>
<!-- Node7 -->
<g id="node7" class="node"><title>Node7</title>
<polygon fill="white" stroke="#bfbfbf" points="1385.89,-0.5 1385.89,-18.5 1434.68,-18.5 1434.68,-0.5 1385.89,-0.5"/>
<text text-anchor="middle" x="1410.29" y="-6.5" font-family="Helvetica,sans-Serif" font-size="10.00">string.h</text>
</g>
<!-- Node2&#45;&gt;Node7 -->
<g id="edge70" class="edge"><title>Node2&#45;&gt;Node7</title>
<path fill="none" stroke="midnightblue" d="M1031.44,-550.543C1111.86,-540.163 1247.56,-522.346 1297.29,-514 1438.99,-490.219 1614.29,-594.188 1614.29,-450.5 1614.29,-450.5 1614.29,-450.5 1614.29,-118.5 1614.29,-42.8601 1503.39,-20.0487 1445.12,-13.2836"/>
<polygon fill="midnightblue" stroke="midnightblue" points="1445.21,-9.77313 1434.9,-12.1981 1444.47,-16.734 1445.21,-9.77313"/>
</g>
<!-- Node31 -->
<g id="node31" class="node"><title>Node31</title>
<polygon fill="white" stroke="#bfbfbf" points="943.498,-495.5 943.498,-513.5 995.079,-513.5 995.079,-495.5 943.498,-495.5"/>
<text text-anchor="middle" x="969.288" y="-501.5" font-family="Helvetica,sans-Serif" font-size="10.00">stddef.h</text>
</g>
<!-- Node2&#45;&gt;Node31 -->
<g id="edge69" class="edge"><title>Node2&#45;&gt;Node31</title>
<path fill="none" stroke="midnightblue" d="M969.288,-550.219C969.288,-543.177 969.288,-532.808 969.288,-523.828"/>
<polygon fill="midnightblue" stroke="midnightblue" points="972.788,-523.55 969.288,-513.55 965.788,-523.55 972.788,-523.55"/>
</g>
<!-- Node32 -->
<g id="node32" class="node"><title>Node32</title>
<polygon fill="white" stroke="#bfbfbf" points="1013,-495.5 1013,-513.5 1059.57,-513.5 1059.57,-495.5 1013,-495.5"/>
<text text-anchor="middle" x="1036.29" y="-501.5" font-family="Helvetica,sans-Serif" font-size="10.00">math.h</text>
</g>
<!-- Node2&#45;&gt;Node32 -->
<g id="edge72" class="edge"><title>Node2&#45;&gt;Node32</title>
<path fill="none" stroke="midnightblue" d="M979.464,-550.45C989.696,-542.357 1005.69,-529.704 1018.11,-519.882"/>
<polygon fill="midnightblue" stroke="midnightblue" points="1020.35,-522.574 1026.02,-513.625 1016,-517.084 1020.35,-522.574"/>
</g>
<!-- Node33 -->
<g id="node33" class="node"><title>Node33</title>
<polygon fill="white" stroke="#bfbfbf" points="1077.67,-495.5 1077.67,-513.5 1120.91,-513.5 1120.91,-495.5 1077.67,-495.5"/>
<text text-anchor="middle" x="1099.29" y="-501.5" font-family="Helvetica,sans-Serif" font-size="10.00">float.h</text>
</g>
<!-- Node2&#45;&gt;Node33 -->
<g id="edge73" class="edge"><title>Node2&#45;&gt;Node33</title>
<path fill="none" stroke="midnightblue" d="M989.032,-550.45C1010.6,-541.656 1045.37,-527.48 1070.1,-517.401"/>
<polygon fill="midnightblue" stroke="midnightblue" points="1071.42,-520.642 1079.36,-513.625 1068.78,-514.16 1071.42,-520.642"/>
</g>
<!-- Node34 -->
<g id="node34" class="node"><title>Node34</title>
<g id="a_node34"><a xlink:href="$AP__Progmem_8h.html" xlink:title="AP_Progmem/AP_Progmem.h">
<polygon fill="white" stroke="black" points="1434.48,-165.5 1434.48,-183.5 1586.09,-183.5 1586.09,-165.5 1434.48,-165.5"/>
<text text-anchor="middle" x="1510.29" y="-171.5" font-family="Helvetica,sans-Serif" font-size="10.00">AP_Progmem/AP_Progmem.h</text>
</a>
</g>
</g>
<!-- Node2&#45;&gt;Node34 -->
<g id="edge74" class="edge"><title>Node2&#45;&gt;Node34</title>
<path fill="none" stroke="midnightblue" d="M1019.39,-550.483C1147.55,-529.637 1477.29,-473.746 1477.29,-450.5 1477.29,-450.5 1477.29,-450.5 1477.29,-283.5 1477.29,-250.291 1491.73,-213.747 1501.51,-192.82"/>
<polygon fill="midnightblue" stroke="midnightblue" points="1504.75,-194.165 1505.97,-183.641 1498.45,-191.104 1504.75,-194.165"/>
</g>
<!-- Node35 -->
<g id="node35" class="node"><title>Node35</title>
<g id="a_node35"><a xlink:href="$StorageManager_8h.html" xlink:title="StorageManager/StorageManager.h">
<polygon fill="white" stroke="black" points="749.51,-495.5 749.51,-513.5 925.066,-513.5 925.066,-495.5 749.51,-495.5"/>
<text text-anchor="middle" x="837.288" y="-501.5" font-family="Helvetica,sans-Serif" font-size="10.00">StorageManager/StorageManager.h</text>
</a>
</g>
</g>
<!-- Node2&#45;&gt;Node35 -->
<g id="edge77" class="edge"><title>Node2&#45;&gt;Node35</title>
<path fill="none" stroke="midnightblue" d="M949.24,-550.45C927.338,-541.656 892.031,-527.48 866.927,-517.401"/>
<polygon fill="midnightblue" stroke="midnightblue" points="868.109,-514.103 857.525,-513.625 865.501,-520.599 868.109,-514.103"/>
</g>
<!-- Node3&#45;&gt;Node4 -->
<g id="edge3" class="edge"><title>Node3&#45;&gt;Node4</title>
<path fill="none" stroke="midnightblue" d="M691.664,-440.296C681.057,-431.829 664.605,-417.928 652.288,-404 612.924,-359.485 602.029,-347.558 576.288,-294 554.177,-247.996 557.937,-232.894 543.288,-184 538.69,-168.654 533.474,-151.219 529.672,-138.506"/>
<polygon fill="midnightblue" stroke="midnightblue" points="532.964,-137.299 526.746,-128.721 526.258,-139.304 532.964,-137.299"/>
</g>
<!-- Node5 -->
<g id="node5" class="node"><title>Node5</title>
<polygon fill="white" stroke="#bfbfbf" points="911.995,-110.5 911.995,-128.5 968.581,-128.5 968.581,-110.5 911.995,-110.5"/>
<text text-anchor="middle" x="940.288" y="-116.5" font-family="Helvetica,sans-Serif" font-size="10.00">stdbool.h</text>
</g>
<!-- Node3&#45;&gt;Node5 -->
<g id="edge4" class="edge"><title>Node3&#45;&gt;Node5</title>
<path fill="none" stroke="midnightblue" d="M754.493,-447.479C877.124,-443.668 1173.29,-425.651 1173.29,-340.5 1173.29,-340.5 1173.29,-340.5 1173.29,-283.5 1173.29,-226.337 1168.86,-199.505 1123.29,-165 1080.93,-132.932 1018.62,-123.644 978.753,-121.138"/>
<polygon fill="midnightblue" stroke="midnightblue" points="978.798,-117.636 968.632,-120.618 978.439,-124.627 978.798,-117.636"/>
</g>
<!-- Node6 -->
<g id="node6" class="node"><title>Node6</title>
<g id="a_node6"><a xlink:href="$AP__HAL__Namespace_8h.html" xlink:title="AP_HAL_Namespace.h">
<polygon fill="white" stroke="black" points="577.48,-55.5 577.48,-73.5 699.096,-73.5 699.096,-55.5 577.48,-55.5"/>
<text text-anchor="middle" x="638.288" y="-61.5" font-family="Helvetica,sans-Serif" font-size="10.00">AP_HAL_Namespace.h</text>
</a>
</g>
</g>
<!-- Node3&#45;&gt;Node6 -->
<g id="edge5" class="edge"><title>Node3&#45;&gt;Node6</title>
<path fill="none" stroke="midnightblue" d="M754.224,-447.028C872.553,-443.233 1159.06,-431.429 1251.29,-404 1308,-387.135 1368.29,-399.665 1368.29,-340.5 1368.29,-340.5 1368.29,-340.5 1368.29,-228.5 1368.29,-156.032 1322.2,-140.12 1256.29,-110 1207.63,-87.7649 861.425,-73.2155 709.481,-67.8336"/>
<polygon fill="midnightblue" stroke="midnightblue" points="709.438,-64.33 699.321,-67.4771 709.192,-71.3257 709.438,-64.33"/>
</g>
<!-- Node9 -->
<g id="node9" class="node"><title>Node9</title>
<g id="a_node9"><a xlink:href="$AP__HAL__Boards_8h.html" xlink:title="AP_HAL_Boards.h">
<polygon fill="white" stroke="black" points="666.318,-165.5 666.318,-183.5 766.258,-183.5 766.258,-165.5 666.318,-165.5"/>
<text text-anchor="middle" x="716.288" y="-171.5" font-family="Helvetica,sans-Serif" font-size="10.00">AP_HAL_Boards.h</text>
</a>
</g>
</g>
<!-- Node3&#45;&gt;Node9 -->
<g id="edge8" class="edge"><title>Node3&#45;&gt;Node9</title>
<path fill="none" stroke="midnightblue" d="M705.074,-440.485C710.994,-422.717 724.288,-378.579 724.288,-340.5 724.288,-340.5 724.288,-340.5 724.288,-283.5 724.288,-251.785 720.815,-214.974 718.445,-193.553"/>
<polygon fill="midnightblue" stroke="midnightblue" points="721.922,-193.148 717.301,-183.614 714.968,-193.948 721.922,-193.148"/>
</g>
<!-- Node10 -->
<g id="node10" class="node"><title>Node10</title>
<g id="a_node10"><a xlink:href="$AP__HAL__Macros_8h.html" xlink:title="AP_HAL_Macros.h">
<polygon fill="white" stroke="black" points="927.769,-385.5 927.769,-403.5 1028.81,-403.5 1028.81,-385.5 927.769,-385.5"/>
<text text-anchor="middle" x="978.288" y="-391.5" font-family="Helvetica,sans-Serif" font-size="10.00">AP_HAL_Macros.h</text>
</a>
</g>
</g>
<!-- Node3&#45;&gt;Node10 -->
<g id="edge9" class="edge"><title>Node3&#45;&gt;Node10</title>
<path fill="none" stroke="midnightblue" d="M744.207,-440.45C793.083,-431.065 873.882,-415.549 926.601,-405.425"/>
<polygon fill="midnightblue" stroke="midnightblue" points="927.268,-408.861 936.428,-403.538 925.948,-401.987 927.268,-408.861"/>
</g>
<!-- Node11 -->
<g id="node11" class="node"><title>Node11</title>
<g id="a_node11"><a xlink:href="$AP__HAL__Main_8h.html" xlink:title="AP_HAL_Main.h">
<polygon fill="white" stroke="black" points="363.323,-385.5 363.323,-403.5 453.253,-403.5 453.253,-385.5 363.323,-385.5"/>
<text text-anchor="middle" x="408.288" y="-391.5" font-family="Helvetica,sans-Serif" font-size="10.00">AP_HAL_Main.h</text>
</a>
</g>
</g>
<!-- Node3&#45;&gt;Node11 -->
<g id="edge10" class="edge"><title>Node3&#45;&gt;Node11</title>
<path fill="none" stroke="midnightblue" d="M657.636,-440.45C605.464,-431.045 519.146,-415.485 462.996,-405.362"/>
<polygon fill="midnightblue" stroke="midnightblue" points="463.34,-401.868 452.878,-403.538 462.098,-408.757 463.34,-401.868"/>
</g>
<!-- Node12 -->
<g id="node12" class="node"><title>Node12</title>
<g id="a_node12"><a xlink:href="$HAL_8h.html" xlink:title="HAL.h">
<polygon fill="white" stroke="black" points="399.392,-330.5 399.392,-348.5 443.185,-348.5 443.185,-330.5 399.392,-330.5"/>
<text text-anchor="middle" x="421.288" y="-336.5" font-family="Helvetica,sans-Serif" font-size="10.00">HAL.h</text>
</a>
</g>
</g>
<!-- Node3&#45;&gt;Node12 -->
<g id="edge68" class="edge"><title>Node3&#45;&gt;Node12</title>
<path fill="none" stroke="midnightblue" d="M650.146,-442.855C609.265,-437.002 551.719,-425.56 505.288,-404 479.025,-391.805 453.105,-370.392 437.157,-355.836"/>
<polygon fill="midnightblue" stroke="midnightblue" points="439.472,-353.209 429.777,-348.935 434.69,-358.321 439.472,-353.209"/>
</g>
<!-- Node13 -->
<g id="node13" class="node"><title>Node13</title>
<g id="a_node13"><a xlink:href="$AnalogIn_8h.html" xlink:title="AnalogIn.h">
<polygon fill="white" stroke="black" points="1201.38,-220.5 1201.38,-238.5 1265.2,-238.5 1265.2,-220.5 1201.38,-220.5"/>
<text text-anchor="middle" x="1233.29" y="-226.5" font-family="Helvetica,sans-Serif" font-size="10.00">AnalogIn.h</text>
</a>
</g>
</g>
<!-- Node3&#45;&gt;Node13 -->
<g id="edge50" class="edge"><title>Node3&#45;&gt;Node13</title>
<path fill="none" stroke="midnightblue" d="M754.449,-447.046C872.958,-443.275 1154.75,-431.491 1187.29,-404 1233.68,-364.8 1236.1,-284.719 1234.61,-248.73"/>
<polygon fill="midnightblue" stroke="midnightblue" points="1238.1,-248.487 1234.04,-238.702 1231.11,-248.885 1238.1,-248.487"/>
</g>
<!-- Node15 -->
<g id="node15" class="node"><title>Node15</title>
<g id="a_node15"><a xlink:href="$GPIO_8h.html" xlink:title="GPIO.h">
<polygon fill="white" stroke="black" points="408.616,-220.5 408.616,-238.5 457.96,-238.5 457.96,-220.5 408.616,-220.5"/>
<text text-anchor="middle" x="433.288" y="-226.5" font-family="Helvetica,sans-Serif" font-size="10.00">GPIO.h</text>
</a>
</g>
</g>
<!-- Node3&#45;&gt;Node15 -->
<g id="edge52" class="edge"><title>Node3&#45;&gt;Node15</title>
<path fill="none" stroke="midnightblue" d="M650.116,-443.548C616.861,-438.201 574.343,-427.089 543.288,-404 487.503,-362.525 452.9,-283.633 439.561,-248.341"/>
<polygon fill="midnightblue" stroke="midnightblue" points="442.693,-246.712 435.977,-238.517 436.116,-249.111 442.693,-246.712"/>
</g>
<!-- Node16 -->
<g id="node16" class="node"><title>Node16</title>
<g id="a_node16"><a xlink:href="$RCInput_8h.html" xlink:title="RCInput.h">
<polygon fill="white" stroke="black" points="84.7759,-275.5 84.7759,-293.5 145.8,-293.5 145.8,-275.5 84.7759,-275.5"/>
<text text-anchor="middle" x="115.288" y="-281.5" font-family="Helvetica,sans-Serif" font-size="10.00">RCInput.h</text>
</a>
</g>
</g>
<!-- Node3&#45;&gt;Node16 -->
<g id="edge53" class="edge"><title>Node3&#45;&gt;Node16</title>
<path fill="none" stroke="midnightblue" d="M650.105,-446.622C548.376,-442.418 327.288,-430.466 256.288,-404 200.027,-383.028 150.441,-329.068 128.006,-301.795"/>
<polygon fill="midnightblue" stroke="midnightblue" points="130.46,-299.26 121.469,-293.656 125.002,-303.644 130.46,-299.26"/>
</g>
<!-- Node17 -->
<g id="node17" class="node"><title>Node17</title>
<g id="a_node17"><a xlink:href="$RCOutput_8h.html" xlink:title="RCOutput.h">
<polygon fill="white" stroke="black" points="300.887,-275.5 300.887,-293.5 369.689,-293.5 369.689,-275.5 300.887,-275.5"/>
<text text-anchor="middle" x="335.288" y="-281.5" font-family="Helvetica,sans-Serif" font-size="10.00">RCOutput.h</text>
</a>
</g>
</g>
<!-- Node3&#45;&gt;Node17 -->
<g id="edge54" class="edge"><title>Node3&#45;&gt;Node17</title>
<path fill="none" stroke="midnightblue" d="M650.03,-449.181C563.366,-449.148 395.357,-443.783 354.288,-404 327.303,-377.86 328.906,-329.753 332.212,-303.593"/>
<polygon fill="midnightblue" stroke="midnightblue" points="335.695,-303.97 333.705,-293.564 328.771,-302.94 335.695,-303.97"/>
</g>
<!-- Node18 -->
<g id="node18" class="node"><title>Node18</title>
<g id="a_node18"><a xlink:href="$SPIDriver_8h.html" xlink:title="SPIDriver.h">
<polygon fill="white" stroke="black" points="0,-275.5 0,-293.5 66.5762,-293.5 66.5762,-275.5 0,-275.5"/>
<text text-anchor="middle" x="33.2881" y="-281.5" font-family="Helvetica,sans-Serif" font-size="10.00">SPIDriver.h</text>
</a>
</g>
</g>
<!-- Node3&#45;&gt;Node18 -->
<g id="edge49" class="edge"><title>Node3&#45;&gt;Node18</title>
<path fill="none" stroke="midnightblue" d="M650.251,-446.852C542.034,-442.918 296.231,-431.201 217.288,-404 148.989,-380.466 80.6497,-326.528 50.0015,-300.327"/>
<polygon fill="midnightblue" stroke="midnightblue" points="52.2348,-297.631 42.3879,-293.72 47.6472,-302.918 52.2348,-297.631"/>
</g>
<!-- Node19 -->
<g id="node19" class="node"><title>Node19</title>
<g id="a_node19"><a xlink:href="$Storage_8h.html" xlink:title="Storage.h">
<polygon fill="white" stroke="black" points="585.606,-275.5 585.606,-293.5 644.97,-293.5 644.97,-275.5 585.606,-275.5"/>
<text text-anchor="middle" x="615.288" y="-281.5" font-family="Helvetica,sans-Serif" font-size="10.00">Storage.h</text>
</a>
</g>
</g>
<!-- Node3&#45;&gt;Node19 -->
<g id="edge51" class="edge"><title>Node3&#45;&gt;Node19</title>
<path fill="none" stroke="midnightblue" d="M694.105,-440.214C686.007,-431.684 673.642,-417.735 665.288,-404 644.953,-370.567 629.028,-327.377 621.005,-303.455"/>
<polygon fill="midnightblue" stroke="midnightblue" points="624.235,-302.072 617.801,-293.655 617.581,-304.247 624.235,-302.072"/>
</g>
<!-- Node20 -->
<g id="node20" class="node"><title>Node20</title>
<g id="a_node20"><a xlink:href="$UARTDriver_8h.html" xlink:title="UARTDriver.h">
<polygon fill="white" stroke="black" points="755.536,-275.5 755.536,-293.5 833.04,-293.5 833.04,-275.5 755.536,-275.5"/>
<text text-anchor="middle" x="794.288" y="-281.5" font-family="Helvetica,sans-Serif" font-size="10.00">UARTDriver.h</text>
</a>
</g>
</g>
<!-- Node3&#45;&gt;Node20 -->
<g id="edge45" class="edge"><title>Node3&#45;&gt;Node20</title>
<path fill="none" stroke="midnightblue" d="M709.821,-440.421C717.584,-431.831 729.726,-417.632 738.288,-404 759.594,-370.079 778.078,-326.775 787.547,-303.033"/>
<polygon fill="midnightblue" stroke="midnightblue" points="790.851,-304.192 791.24,-293.605 784.334,-301.639 790.851,-304.192"/>
</g>
<!-- Node23 -->
<g id="node23" class="node"><title>Node23</title>
<g id="a_node23"><a xlink:href="$BetterStream_8h.html" xlink:title="utility/BetterStream.h">
<polygon fill="white" stroke="black" points="979.882,-220.5 979.882,-238.5 1088.69,-238.5 1088.69,-220.5 979.882,-220.5"/>
<text text-anchor="middle" x="1034.29" y="-226.5" font-family="Helvetica,sans-Serif" font-size="10.00">utility/BetterStream.h</text>
</a>
</g>
</g>
<!-- Node3&#45;&gt;Node23 -->
<g id="edge67" class="edge"><title>Node3&#45;&gt;Node23</title>
<path fill="none" stroke="midnightblue" d="M713.343,-440.347C724.877,-431.698 743.329,-417.451 758.288,-404 818.116,-350.207 816.352,-316.484 885.288,-275 912.912,-258.377 947.187,-247.579 975.897,-240.789"/>
<polygon fill="midnightblue" stroke="midnightblue" points="976.817,-244.169 985.8,-238.551 975.274,-237.342 976.817,-244.169"/>
</g>
<!-- Node25 -->
<g id="node25" class="node"><title>Node25</title>
<g id="a_node25"><a xlink:href="$Stream_8h.html" xlink:title="Stream.h">
<polygon fill="white" stroke="black" points="1246,-165.5 1246,-183.5 1302.57,-183.5 1302.57,-165.5 1246,-165.5"/>
<text text-anchor="middle" x="1274.29" y="-171.5" font-family="Helvetica,sans-Serif" font-size="10.00">Stream.h</text>
</a>
</g>
</g>
<!-- Node3&#45;&gt;Node25 -->
<g id="edge66" class="edge"><title>Node3&#45;&gt;Node25</title>
<path fill="none" stroke="midnightblue" d="M754.413,-447.604C866.753,-445.083 1128.17,-435.873 1210.29,-404 1253.59,-387.195 1293.29,-386.947 1293.29,-340.5 1293.29,-340.5 1293.29,-340.5 1293.29,-283.5 1293.29,-251.386 1285.04,-214.702 1279.41,-193.414"/>
<polygon fill="midnightblue" stroke="midnightblue" points="1282.72,-192.256 1276.69,-183.544 1275.97,-194.114 1282.72,-192.256"/>
</g>
<!-- Node26 -->
<g id="node26" class="node"><title>Node26</title>
<g id="a_node26"><a xlink:href="$Print_8h.html" xlink:title="Print.h">
<polygon fill="white" stroke="black" points="1321.84,-110.5 1321.84,-128.5 1366.74,-128.5 1366.74,-110.5 1321.84,-110.5"/>
<text text-anchor="middle" x="1344.29" y="-116.5" font-family="Helvetica,sans-Serif" font-size="10.00">Print.h</text>
</a>
</g>
</g>
<!-- Node3&#45;&gt;Node26 -->
<g id="edge65" class="edge"><title>Node3&#45;&gt;Node26</title>
<path fill="none" stroke="midnightblue" d="M754.353,-448.294C904.74,-447.258 1332.25,-441.051 1382.29,-404 1406.53,-386.045 1406.29,-370.671 1406.29,-340.5 1406.29,-340.5 1406.29,-340.5 1406.29,-228.5 1406.29,-191.422 1378.46,-155.553 1360.09,-135.913"/>
<polygon fill="midnightblue" stroke="midnightblue" points="1362.39,-133.257 1352.91,-128.534 1357.38,-138.14 1362.39,-133.257"/>
</g>
<!-- Node27 -->
<g id="node27" class="node"><title>Node27</title>
<g id="a_node27"><a xlink:href="$I2CDriver_8h.html" xlink:title="I2CDriver.h">
<polygon fill="white" stroke="black" points="240.278,-165.5 240.278,-183.5 306.298,-183.5 306.298,-165.5 240.278,-165.5"/>
<text text-anchor="middle" x="273.288" y="-171.5" font-family="Helvetica,sans-Serif" font-size="10.00">I2CDriver.h</text>
</a>
</g>
</g>
<!-- Node3&#45;&gt;Node27 -->
<g id="edge46" class="edge"><title>Node3&#45;&gt;Node27</title>
<path fill="none" stroke="midnightblue" d="M650.225,-448.472C561.336,-447.413 385.243,-440.6 337.288,-404 270.55,-353.065 269.509,-238.424 271.861,-193.781"/>
<polygon fill="midnightblue" stroke="midnightblue" points="275.367,-193.792 272.528,-183.585 268.382,-193.335 275.367,-193.792"/>
</g>
<!-- Node28 -->
<g id="node28" class="node"><title>Node28</title>
<g id="a_node28"><a xlink:href="$Scheduler_8h.html" xlink:title="Scheduler.h">
<polygon fill="white" stroke="black" points="627.877,-220.5 627.877,-238.5 696.699,-238.5 696.699,-220.5 627.877,-220.5"/>
<text text-anchor="middle" x="662.288" y="-226.5" font-family="Helvetica,sans-Serif" font-size="10.00">Scheduler.h</text>
</a>
</g>
</g>
<!-- Node3&#45;&gt;Node28 -->
<g id="edge55" class="edge"><title>Node3&#45;&gt;Node28</title>
<path fill="none" stroke="midnightblue" d="M700.817,-440.483C695.06,-409.107 673.969,-294.159 665.672,-248.944"/>
<polygon fill="midnightblue" stroke="midnightblue" points="669.063,-248.027 663.815,-238.823 662.178,-249.291 669.063,-248.027"/>
</g>
<!-- Node29 -->
<g id="node29" class="node"><title>Node29</title>
<g id="a_node29"><a xlink:href="$Semaphores_8h.html" xlink:title="Semaphores.h">
<polygon fill="white" stroke="black" points="187.769,-330.5 187.769,-348.5 268.808,-348.5 268.808,-330.5 187.769,-330.5"/>
<text text-anchor="middle" x="228.288" y="-336.5" font-family="Helvetica,sans-Serif" font-size="10.00">Semaphores.h</text>
</a>
</g>
</g>
<!-- Node3&#45;&gt;Node29 -->
<g id="edge60" class="edge"><title>Node3&#45;&gt;Node29</title>
<path fill="none" stroke="midnightblue" d="M650.019,-447.68C552.233,-445.38 345.857,-436.686 283.288,-404 263.352,-393.585 247.476,-372.674 238.003,-357.692"/>
<polygon fill="midnightblue" stroke="midnightblue" points="240.863,-355.656 232.724,-348.874 234.857,-359.251 240.863,-355.656"/>
</g>
<!-- Node30 -->
<g id="node30" class="node"><title>Node30</title>
<g id="a_node30"><a xlink:href="$Util_8h.html" xlink:title="Util.h">
<polygon fill="white" stroke="black" points="1106.9,-220.5 1106.9,-238.5 1145.68,-238.5 1145.68,-220.5 1106.9,-220.5"/>
<text text-anchor="middle" x="1126.29" y="-226.5" font-family="Helvetica,sans-Serif" font-size="10.00">Util.h</text>
</a>
</g>
</g>
<!-- Node3&#45;&gt;Node30 -->
<g id="edge62" class="edge"><title>Node3&#45;&gt;Node30</title>
<path fill="none" stroke="midnightblue" d="M717.881,-440.483C781.64,-407.701 1022.84,-283.689 1101.39,-243.3"/>
<polygon fill="midnightblue" stroke="midnightblue" points="1103.26,-246.275 1110.55,-238.59 1100.06,-240.05 1103.26,-246.275"/>
</g>
<!-- Node6&#45;&gt;Node7 -->
<g id="edge6" class="edge"><title>Node6&#45;&gt;Node7</title>
<path fill="none" stroke="midnightblue" d="M699.188,-59.3191C853.331,-48.7367 1255.23,-21.1453 1375.68,-12.876"/>
<polygon fill="midnightblue" stroke="midnightblue" points="1376.07,-16.3578 1385.8,-12.1811 1375.59,-9.37428 1376.07,-16.3578"/>
</g>
<!-- Node8 -->
<g id="node8" class="node"><title>Node8</title>
<g id="a_node8"><a xlink:href="$functor_8h.html" xlink:title="utility/functor.h">
<polygon fill="white" stroke="black" points="598.325,-0.5 598.325,-18.5 678.251,-18.5 678.251,-0.5 598.325,-0.5"/>
<text text-anchor="middle" x="638.288" y="-6.5" font-family="Helvetica,sans-Serif" font-size="10.00">utility/functor.h</text>
</a>
</g>
</g>
<!-- Node6&#45;&gt;Node8 -->
<g id="edge7" class="edge"><title>Node6&#45;&gt;Node8</title>
<path fill="none" stroke="midnightblue" d="M638.288,-55.2188C638.288,-48.1769 638.288,-37.8083 638.288,-28.8277"/>
<polygon fill="midnightblue" stroke="midnightblue" points="641.788,-28.5495 638.288,-18.5496 634.788,-28.5496 641.788,-28.5495"/>
</g>
<!-- Node11&#45;&gt;Node12 -->
<g id="edge11" class="edge"><title>Node11&#45;&gt;Node12</title>
<path fill="none" stroke="midnightblue" d="M410.319,-385.219C412.066,-378.099 414.646,-367.577 416.866,-358.529"/>
<polygon fill="midnightblue" stroke="midnightblue" points="420.331,-359.095 419.314,-348.55 413.532,-357.428 420.331,-359.095"/>
</g>
<!-- Node12&#45;&gt;Node6 -->
<g id="edge12" class="edge"><title>Node12&#45;&gt;Node6</title>
<path fill="none" stroke="midnightblue" d="M417.17,-330.318C407.945,-310.885 387.34,-260.544 399.288,-220 415.737,-164.185 423.211,-144.2 470.288,-110 498.372,-89.5973 535.145,-78.5453 567.124,-72.5601"/>
<polygon fill="midnightblue" stroke="midnightblue" points="568.068,-75.9487 577.321,-70.7895 566.87,-69.0519 568.068,-75.9487"/>
</g>
<!-- Node12&#45;&gt;Node13 -->
<g id="edge13" class="edge"><title>Node12&#45;&gt;Node13</title>
<path fill="none" stroke="midnightblue" d="M443.254,-336.613C505.779,-331.148 690.038,-314.393 842.288,-294 969.787,-276.922 1119.71,-250.9 1191.22,-238.121"/>
<polygon fill="midnightblue" stroke="midnightblue" points="1191.97,-241.544 1201.19,-236.335 1190.73,-234.653 1191.97,-241.544"/>
</g>
<!-- Node12&#45;&gt;Node15 -->
<g id="edge16" class="edge"><title>Node12&#45;&gt;Node15</title>
<path fill="none" stroke="midnightblue" d="M422.19,-330.382C424.101,-313.182 428.599,-272.698 431.245,-248.887"/>
<polygon fill="midnightblue" stroke="midnightblue" points="434.75,-249.037 432.376,-238.712 427.793,-248.264 434.75,-249.037"/>
</g>
<!-- Node12&#45;&gt;Node16 -->
<g id="edge19" class="edge"><title>Node12&#45;&gt;Node16</title>
<path fill="none" stroke="midnightblue" d="M399.281,-334.688C348.291,-325.857 221.421,-303.882 155.893,-292.533"/>
<polygon fill="midnightblue" stroke="midnightblue" points="156.374,-289.064 145.924,-290.806 155.18,-295.962 156.374,-289.064"/>
</g>
<!-- Node12&#45;&gt;Node17 -->
<g id="edge21" class="edge"><title>Node12&#45;&gt;Node17</title>
<path fill="none" stroke="midnightblue" d="M408.227,-330.45C394.714,-322.123 373.372,-308.97 357.258,-299.039"/>
<polygon fill="midnightblue" stroke="midnightblue" points="358.822,-295.892 348.473,-293.625 355.149,-301.851 358.822,-295.892"/>
</g>
<!-- Node12&#45;&gt;Node18 -->
<g id="edge23" class="edge"><title>Node12&#45;&gt;Node18</title>
<path fill="none" stroke="midnightblue" d="M399.348,-336.231C345.914,-330.59 204.608,-314.968 76.6875,-294.13"/>
<polygon fill="midnightblue" stroke="midnightblue" points="77.1542,-290.66 66.7188,-292.491 76.0184,-297.567 77.1542,-290.66"/>
</g>
<!-- Node12&#45;&gt;Node19 -->
<g id="edge25" class="edge"><title>Node12&#45;&gt;Node19</title>
<path fill="none" stroke="midnightblue" d="M443.542,-332.42C475.839,-323.597 536.185,-307.111 576.053,-296.219"/>
<polygon fill="midnightblue" stroke="midnightblue" points="576.994,-299.59 585.718,-293.578 575.149,-292.838 576.994,-299.59"/>
</g>
<!-- Node12&#45;&gt;Node20 -->
<g id="edge28" class="edge"><title>Node12&#45;&gt;Node20</title>
<path fill="none" stroke="midnightblue" d="M443.228,-335.382C501.858,-327.052 663.271,-304.116 745.202,-292.475"/>
<polygon fill="midnightblue" stroke="midnightblue" points="745.856,-295.917 755.264,-291.045 744.871,-288.987 745.856,-295.917"/>
</g>
<!-- Node13&#45;&gt;Node6 -->
<g id="edge15" class="edge"><title>Node13&#45;&gt;Node6</title>
<path fill="none" stroke="midnightblue" d="M1230.18,-220.426C1224.74,-207.231 1212.33,-180.927 1194.29,-165 1150.01,-125.901 1130.31,-125.431 1073.29,-110 948.171,-76.1414 796.449,-67.6522 709.266,-65.7532"/>
<polygon fill="midnightblue" stroke="midnightblue" points="709.286,-62.2531 699.22,-65.5575 709.149,-69.2517 709.286,-62.2531"/>
</g>
<!-- Node14 -->
<g id="node14" class="node"><title>Node14</title>
<polygon fill="white" stroke="#bfbfbf" points="1367.89,-55.5 1367.89,-73.5 1426.69,-73.5 1426.69,-55.5 1367.89,-55.5"/>
<text text-anchor="middle" x="1397.29" y="-61.5" font-family="Helvetica,sans-Serif" font-size="10.00">inttypes.h</text>
</g>
<!-- Node13&#45;&gt;Node14 -->
<g id="edge14" class="edge"><title>Node13&#45;&gt;Node14</title>
<path fill="none" stroke="midnightblue" d="M1252.77,-220.411C1283.76,-206.506 1343.97,-175.051 1375.29,-129 1384.72,-115.131 1390.5,-96.8157 1393.75,-83.4202"/>
<polygon fill="midnightblue" stroke="midnightblue" points="1397.19,-84.0478 1395.91,-73.5308 1390.35,-82.552 1397.19,-84.0478"/>
</g>
<!-- Node15&#45;&gt;Node4 -->
<g id="edge17" class="edge"><title>Node15&#45;&gt;Node4</title>
<path fill="none" stroke="midnightblue" d="M437.347,-220.138C443.735,-207.446 456.996,-182.905 472.288,-165 481.814,-153.847 494.243,-143.104 504.561,-134.968"/>
<polygon fill="midnightblue" stroke="midnightblue" points="506.81,-137.654 512.622,-128.795 502.554,-132.096 506.81,-137.654"/>
</g>
<!-- Node15&#45;&gt;Node6 -->
<g id="edge18" class="edge"><title>Node15&#45;&gt;Node6</title>
<path fill="none" stroke="midnightblue" d="M434.678,-220.261C438.836,-198.355 453.332,-138.413 491.288,-110 514.096,-92.9261 543.474,-82.3527 569.963,-75.8277"/>
<polygon fill="midnightblue" stroke="midnightblue" points="570.998,-79.1808 579.954,-73.5201 569.423,-72.3604 570.998,-79.1808"/>
</g>
<!-- Node16&#45;&gt;Node6 -->
<g id="edge20" class="edge"><title>Node16&#45;&gt;Node6</title>
<path fill="none" stroke="midnightblue" d="M116.136,-275.212C119.642,-245.891 135.899,-146.848 198.288,-110 258.969,-74.1605 458.885,-66.8387 567.14,-65.5643"/>
<polygon fill="midnightblue" stroke="midnightblue" points="567.359,-69.0623 577.322,-65.4591 567.286,-62.0627 567.359,-69.0623"/>
</g>
<!-- Node17&#45;&gt;Node6 -->
<g id="edge22" class="edge"><title>Node17&#45;&gt;Node6</title>
<path fill="none" stroke="midnightblue" d="M333.361,-275.175C327.461,-247.362 312.694,-156.786 358.288,-110 386.504,-81.046 493.804,-70.9274 567.074,-67.3935"/>
<polygon fill="midnightblue" stroke="midnightblue" points="567.343,-70.885 577.175,-66.9373 567.027,-63.8921 567.343,-70.885"/>
</g>
<!-- Node18&#45;&gt;Node6 -->
<g id="edge24" class="edge"><title>Node18&#45;&gt;Node6</title>
<path fill="none" stroke="midnightblue" d="M36.8525,-275.418C49.9614,-246.792 98.5987,-149.806 172.288,-110 238.595,-74.1819 453.402,-66.9059 566.746,-65.6156"/>
<polygon fill="midnightblue" stroke="midnightblue" points="567.092,-69.1123 577.057,-65.5115 567.022,-62.1127 567.092,-69.1123"/>
</g>
<!-- Node19&#45;&gt;Node4 -->
<g id="edge26" class="edge"><title>Node19&#45;&gt;Node4</title>
<path fill="none" stroke="midnightblue" d="M609.705,-275.445C603.683,-266.642 593.931,-252.05 586.288,-239 565.734,-203.903 544.279,-161.354 532.78,-137.983"/>
<polygon fill="midnightblue" stroke="midnightblue" points="535.773,-136.137 528.236,-128.691 529.485,-139.212 535.773,-136.137"/>
</g>
<!-- Node19&#45;&gt;Node6 -->
<g id="edge27" class="edge"><title>Node19&#45;&gt;Node6</title>
<path fill="none" stroke="midnightblue" d="M615.65,-275.268C616.218,-263.148 617.449,-239.798 619.288,-220 623.88,-170.57 631.665,-112.529 635.696,-83.6847"/>
<polygon fill="midnightblue" stroke="midnightblue" points="639.198,-83.9149 637.13,-73.5239 632.267,-82.9364 639.198,-83.9149"/>
</g>
<!-- Node20&#45;&gt;Node4 -->
<g id="edge29" class="edge"><title>Node20&#45;&gt;Node4</title>
<path fill="none" stroke="midnightblue" d="M795.841,-275.206C799.348,-253.684 805.387,-195.599 775.288,-165 745.584,-134.802 619.958,-124.884 558.472,-121.802"/>
<polygon fill="midnightblue" stroke="midnightblue" points="558.629,-118.305 548.476,-121.333 558.301,-125.297 558.629,-118.305"/>
</g>
<!-- Node20&#45;&gt;Node6 -->
<g id="edge34" class="edge"><title>Node20&#45;&gt;Node6</title>
<path fill="none" stroke="midnightblue" d="M830.963,-275.456C874.651,-263.693 945.686,-237.154 977.288,-184 994.096,-155.73 998.978,-134.723 977.288,-110 959.914,-90.1959 803.606,-76.4586 709.416,-69.8977"/>
<polygon fill="midnightblue" stroke="midnightblue" points="709.594,-66.4018 699.377,-69.2092 709.114,-73.3853 709.594,-66.4018"/>
</g>
<!-- Node21 -->
<g id="node21" class="node"><title>Node21</title>
<g id="a_node21"><a xlink:href="$AP__Common_8h.html" xlink:title="Common definitions and utility routines for the ArduPilot libraries. ">
<polygon fill="white" stroke="black" points="822.261,-165.5 822.261,-183.5 968.315,-183.5 968.315,-165.5 822.261,-165.5"/>
<text text-anchor="middle" x="895.288" y="-171.5" font-family="Helvetica,sans-Serif" font-size="10.00">AP_Common/AP_Common.h</text>
</a>
</g>
</g>
<!-- Node20&#45;&gt;Node21 -->
<g id="edge30" class="edge"><title>Node20&#45;&gt;Node21</title>
<path fill="none" stroke="midnightblue" d="M801.88,-275.382C818.623,-257.479 858.959,-214.347 880.745,-191.051"/>
<polygon fill="midnightblue" stroke="midnightblue" points="883.334,-193.406 887.609,-183.712 878.222,-188.625 883.334,-193.406"/>
</g>
<!-- Node20&#45;&gt;Node23 -->
<g id="edge35" class="edge"><title>Node20&#45;&gt;Node23</title>
<path fill="none" stroke="midnightblue" d="M830.739,-275.45C872.798,-266.162 942.042,-250.871 987.905,-240.743"/>
<polygon fill="midnightblue" stroke="midnightblue" points="988.878,-244.112 997.888,-238.538 987.369,-237.277 988.878,-244.112"/>
</g>
<!-- Node21&#45;&gt;Node4 -->
<g id="edge31" class="edge"><title>Node21&#45;&gt;Node4</title>
<path fill="none" stroke="midnightblue" d="M838.941,-165.45C760.982,-154.313 622.605,-134.545 558.563,-125.396"/>
<polygon fill="midnightblue" stroke="midnightblue" points="558.976,-121.92 548.581,-123.97 557.986,-128.85 558.976,-121.92"/>
</g>
<!-- Node21&#45;&gt;Node5 -->
<g id="edge33" class="edge"><title>Node21&#45;&gt;Node5</title>
<path fill="none" stroke="midnightblue" d="M902.319,-165.219C908.896,-157.473 918.891,-145.701 926.975,-136.18"/>
<polygon fill="midnightblue" stroke="midnightblue" points="929.649,-138.438 933.454,-128.55 924.313,-133.907 929.649,-138.438"/>
</g>
<!-- Node22 -->
<g id="node22" class="node"><title>Node22</title>
<polygon fill="white" stroke="#bfbfbf" points="846.446,-110.5 846.446,-128.5 894.13,-128.5 894.13,-110.5 846.446,-110.5"/>
<text text-anchor="middle" x="870.288" y="-116.5" font-family="Helvetica,sans-Serif" font-size="10.00">stdlib.h</text>
</g>
<!-- Node21&#45;&gt;Node22 -->
<g id="edge32" class="edge"><title>Node21&#45;&gt;Node22</title>
<path fill="none" stroke="midnightblue" d="M891.382,-165.219C887.913,-157.864 882.732,-146.88 878.373,-137.639"/>
<polygon fill="midnightblue" stroke="midnightblue" points="881.517,-136.101 874.085,-128.55 875.186,-139.087 881.517,-136.101"/>
</g>
<!-- Node23&#45;&gt;Node6 -->
<g id="edge38" class="edge"><title>Node23&#45;&gt;Node6</title>
<path fill="none" stroke="midnightblue" d="M1035.5,-220.375C1038.21,-198.755 1042.23,-139.459 1010.29,-110 988.62,-90.0152 811.114,-76.0202 709.333,-69.5529"/>
<polygon fill="midnightblue" stroke="midnightblue" points="709.323,-66.0455 699.124,-68.9132 708.885,-73.0318 709.323,-66.0455"/>
</g>
<!-- Node23&#45;&gt;Node21 -->
<g id="edge37" class="edge"><title>Node23&#45;&gt;Node21</title>
<path fill="none" stroke="midnightblue" d="M1013.18,-220.45C990.011,-211.617 952.605,-197.355 926.149,-187.267"/>
<polygon fill="midnightblue" stroke="midnightblue" points="927.189,-183.918 916.598,-183.625 924.695,-190.458 927.189,-183.918"/>
</g>
<!-- Node24 -->
<g id="node24" class="node"><title>Node24</title>
<polygon fill="white" stroke="#bfbfbf" points="1062.22,-165.5 1062.22,-183.5 1114.35,-183.5 1114.35,-165.5 1062.22,-165.5"/>
<text text-anchor="middle" x="1088.29" y="-171.5" font-family="Helvetica,sans-Serif" font-size="10.00">stdarg.h</text>
</g>
<!-- Node23&#45;&gt;Node24 -->
<g id="edge36" class="edge"><title>Node23&#45;&gt;Node24</title>
<path fill="none" stroke="midnightblue" d="M1042.73,-220.219C1050.78,-212.316 1063.1,-200.224 1072.9,-190.606"/>
<polygon fill="midnightblue" stroke="midnightblue" points="1075.4,-193.052 1080.09,-183.55 1070.5,-188.056 1075.4,-193.052"/>
</g>
<!-- Node23&#45;&gt;Node25 -->
<g id="edge39" class="edge"><title>Node23&#45;&gt;Node25</title>
<path fill="none" stroke="midnightblue" d="M1070.74,-220.45C1115.36,-210.597 1190.57,-193.987 1236.01,-183.953"/>
<polygon fill="midnightblue" stroke="midnightblue" points="1236.77,-187.369 1245.78,-181.795 1235.26,-180.534 1236.77,-187.369"/>
</g>
<!-- Node25&#45;&gt;Node6 -->
<g id="edge40" class="edge"><title>Node25&#45;&gt;Node6</title>
<path fill="none" stroke="midnightblue" d="M1271.51,-165.101C1266.32,-150.926 1253.72,-122.575 1232.29,-110 1188.19,-84.1272 857.771,-71.6726 709.696,-67.3446"/>
<polygon fill="midnightblue" stroke="midnightblue" points="709.453,-63.8362 699.356,-67.0469 709.252,-70.8333 709.453,-63.8362"/>
</g>
<!-- Node25&#45;&gt;Node26 -->
<g id="edge41" class="edge"><title>Node25&#45;&gt;Node26</title>
<path fill="none" stroke="midnightblue" d="M1284.92,-165.45C1295.61,-157.357 1312.32,-144.704 1325.29,-134.882"/>
<polygon fill="midnightblue" stroke="midnightblue" points="1327.7,-137.452 1333.56,-128.625 1323.47,-131.871 1327.7,-137.452"/>
</g>
<!-- Node26&#45;&gt;Node6 -->
<g id="edge42" class="edge"><title>Node26&#45;&gt;Node6</title>
<path fill="none" stroke="midnightblue" d="M1321.55,-112.53C1317.17,-111.552 1312.61,-110.649 1308.29,-110 1091.6,-77.4514 831.909,-68.7094 709.185,-66.3618"/>
<polygon fill="midnightblue" stroke="midnightblue" points="709.226,-62.862 699.163,-66.1785 709.097,-69.8609 709.226,-62.862"/>
</g>
<!-- Node26&#45;&gt;Node7 -->
<g id="edge44" class="edge"><title>Node26&#45;&gt;Node7</title>
<path fill="none" stroke="midnightblue" d="M1344.63,-110.492C1345.48,-97.844 1348.52,-72.8486 1359.29,-55 1366.59,-42.8933 1378.29,-32.3374 1388.65,-24.5486"/>
<polygon fill="midnightblue" stroke="midnightblue" points="1390.78,-27.3288 1396.9,-18.6836 1386.72,-21.6225 1390.78,-27.3288"/>
</g>
<!-- Node26&#45;&gt;Node14 -->
<g id="edge43" class="edge"><title>Node26&#45;&gt;Node14</title>
<path fill="none" stroke="midnightblue" d="M1352.57,-110.219C1360.39,-102.394 1372.32,-90.4631 1381.9,-80.8921"/>
<polygon fill="midnightblue" stroke="midnightblue" points="1384.64,-83.0955 1389.24,-73.5496 1379.69,-78.1458 1384.64,-83.0955"/>
</g>
<!-- Node27&#45;&gt;Node4 -->
<g id="edge47" class="edge"><title>Node27&#45;&gt;Node4</title>
<path fill="none" stroke="midnightblue" d="M306.36,-166.517C353.984,-156.461 441.453,-137.991 489.834,-127.775"/>
<polygon fill="midnightblue" stroke="midnightblue" points="490.76,-131.157 499.821,-125.666 489.314,-124.308 490.76,-131.157"/>
</g>
<!-- Node27&#45;&gt;Node6 -->
<g id="edge48" class="edge"><title>Node27&#45;&gt;Node6</title>
<path fill="none" stroke="midnightblue" d="M276.783,-165.228C283.166,-151.246 298.123,-123.176 320.288,-110 360.785,-85.9268 486.427,-74.2435 567.13,-69.0834"/>
<polygon fill="midnightblue" stroke="midnightblue" points="567.464,-72.5695 577.228,-68.4566 567.03,-65.5829 567.464,-72.5695"/>
</g>
<!-- Node28&#45;&gt;Node4 -->
<g id="edge56" class="edge"><title>Node28&#45;&gt;Node4</title>
<path fill="none" stroke="midnightblue" d="M651.916,-220.382C628.739,-202.244 572.476,-158.212 543.002,-135.145"/>
<polygon fill="midnightblue" stroke="midnightblue" points="544.813,-132.119 534.781,-128.712 540.499,-137.631 544.813,-132.119"/>
</g>
<!-- Node28&#45;&gt;Node6 -->
<g id="edge59" class="edge"><title>Node28&#45;&gt;Node6</title>
<path fill="none" stroke="midnightblue" d="M661.065,-220.193C657.357,-195.013 646.182,-119.114 640.992,-83.8621"/>
<polygon fill="midnightblue" stroke="midnightblue" points="644.4,-82.9806 639.48,-73.5971 637.474,-84.0003 644.4,-82.9806"/>
</g>
<!-- Node28&#45;&gt;Node9 -->
<g id="edge58" class="edge"><title>Node28&#45;&gt;Node9</title>
<path fill="none" stroke="midnightblue" d="M670.726,-220.219C678.777,-212.316 691.098,-200.224 700.897,-190.606"/>
<polygon fill="midnightblue" stroke="midnightblue" points="703.401,-193.052 708.087,-183.55 698.498,-188.056 703.401,-193.052"/>
</g>
<!-- Node28&#45;&gt;Node21 -->
<g id="edge57" class="edge"><title>Node28&#45;&gt;Node21</title>
<path fill="none" stroke="midnightblue" d="M696.919,-220.623C737.612,-211.366 805.251,-195.98 850.055,-185.789"/>
<polygon fill="midnightblue" stroke="midnightblue" points="851.111,-189.138 860.085,-183.508 849.558,-182.313 851.111,-189.138"/>
</g>
<!-- Node29&#45;&gt;Node6 -->
<g id="edge61" class="edge"><title>Node29&#45;&gt;Node6</title>
<path fill="none" stroke="midnightblue" d="M226.262,-330.432C221.956,-312.558 212.288,-268.22 212.288,-230.5 212.288,-230.5 212.288,-230.5 212.288,-173.5 212.288,-101.216 445.658,-76.7693 566.942,-68.9451"/>
<polygon fill="midnightblue" stroke="midnightblue" points="567.49,-72.4178 577.253,-68.3025 567.054,-65.4314 567.49,-72.4178"/>
</g>
<!-- Node30&#45;&gt;Node6 -->
<g id="edge64" class="edge"><title>Node30&#45;&gt;Node6</title>
<path fill="none" stroke="midnightblue" d="M1128.19,-220.391C1130.71,-207.604 1133.72,-182.422 1123.29,-165 1098.81,-124.13 1076.42,-125.247 1031.29,-110 973.406,-90.4462 806.097,-76.5747 709.46,-69.9341"/>
<polygon fill="midnightblue" stroke="midnightblue" points="709.688,-66.4416 699.474,-69.2563 709.214,-73.4255 709.688,-66.4416"/>
</g>
<!-- Node30&#45;&gt;Node24 -->
<g id="edge63" class="edge"><title>Node30&#45;&gt;Node24</title>
<path fill="none" stroke="midnightblue" d="M1120.35,-220.219C1114.91,-212.629 1106.7,-201.175 1099.95,-191.76"/>
<polygon fill="midnightblue" stroke="midnightblue" points="1102.73,-189.637 1094.06,-183.55 1097.04,-193.716 1102.73,-189.637"/>
</g>
<!-- Node34&#45;&gt;Node4 -->
<g id="edge76" class="edge"><title>Node34&#45;&gt;Node4</title>
<path fill="none" stroke="midnightblue" d="M1434.15,-169.407C1234.28,-158.664 700.337,-129.963 559.009,-122.366"/>
<polygon fill="midnightblue" stroke="midnightblue" points="558.949,-118.858 548.775,-121.816 558.573,-125.848 558.949,-118.858"/>
</g>
<!-- Node34&#45;&gt;Node7 -->
<g id="edge75" class="edge"><title>Node34&#45;&gt;Node7</title>
<path fill="none" stroke="midnightblue" d="M1505.19,-165.193C1489.54,-139.684 1441.96,-62.1258 1420.72,-27.5036"/>
<polygon fill="midnightblue" stroke="midnightblue" points="1423.47,-25.2906 1415.26,-18.5971 1417.5,-28.9512 1423.47,-25.2906"/>
</g>
<!-- Node35&#45;&gt;Node3 -->
<g id="edge78" class="edge"><title>Node35&#45;&gt;Node3</title>
<path fill="none" stroke="midnightblue" d="M816.784,-495.45C794.384,-486.656 758.275,-472.48 732.601,-462.401"/>
<polygon fill="midnightblue" stroke="midnightblue" points="733.572,-459.022 722.985,-458.625 731.014,-465.538 733.572,-459.022"/>
</g>
<!-- Node36&#45;&gt;Node2 -->
<g id="edge81" class="edge"><title>Node36&#45;&gt;Node2</title>
<path fill="none" stroke="midnightblue" d="M1008.1,-605.219C1001.38,-597.473 991.161,-585.701 982.897,-576.18"/>
<polygon fill="midnightblue" stroke="midnightblue" points="985.473,-573.808 976.274,-568.55 980.186,-578.396 985.473,-573.808"/>
</g>
<!-- Node37 -->
<g id="node37" class="node"><title>Node37</title>
<g id="a_node37"><a xlink:href="$AP__Vehicle__Type_8h.html" xlink:title="AP_Vehicle_Type.h">
<polygon fill="white" stroke="black" points="1048.92,-550.5 1048.92,-568.5 1151.66,-568.5 1151.66,-550.5 1048.92,-550.5"/>
<text text-anchor="middle" x="1100.29" y="-556.5" font-family="Helvetica,sans-Serif" font-size="10.00">AP_Vehicle_Type.h</text>
</a>
</g>
</g>
<!-- Node36&#45;&gt;Node37 -->
<g id="edge82" class="edge"><title>Node36&#45;&gt;Node37</title>
<path fill="none" stroke="midnightblue" d="M1028.2,-605.45C1041.55,-597.123 1062.65,-583.97 1078.57,-574.039"/>
<polygon fill="midnightblue" stroke="midnightblue" points="1080.62,-576.886 1087.26,-568.625 1076.92,-570.946 1080.62,-576.886"/>
</g>
</g>
</svg>
