<?xml version="1.0" encoding="UTF-8" standalone="no"?>
<!DOCTYPE svg PUBLIC "-//W3C//DTD SVG 1.1//EN"
 "http://www.w3.org/Graphics/SVG/1.1/DTD/svg11.dtd">
<!-- Generated by graphviz version 2.38.0 (20140413.2041)
 -->
<!-- Title: libraries/AP_ServoRelayEvents/AP_ServoRelayEvents.h Pages: 1 -->
<svg width="1606pt" height="697pt"
 viewBox="0.00 0.00 1606.00 697.00" xmlns="http://www.w3.org/2000/svg" xmlns:xlink="http://www.w3.org/1999/xlink">
<g id="graph0" class="graph" transform="scale(1 1) rotate(0) translate(4 693)">
<title>libraries/AP_ServoRelayEvents/AP_ServoRelayEvents.h</title>
<polygon fill="white" stroke="none" points="-4,4 -4,-693 1602,-693 1602,4 -4,4"/>
<!-- Node1 -->
<g id="node1" class="node"><title>Node1</title>
<polygon fill="#bfbfbf" stroke="black" points="807.525,-660.5 807.525,-688.5 962.475,-688.5 962.475,-660.5 807.525,-660.5"/>
<text text-anchor="start" x="815.525" y="-676.5" font-family="Helvetica,sans-Serif" font-size="10.00">libraries/AP_ServoRelayEvents</text>
<text text-anchor="middle" x="885" y="-666.5" font-family="Helvetica,sans-Serif" font-size="10.00">/AP_ServoRelayEvents.h</text>
</g>
<!-- Node2 -->
<g id="node2" class="node"><title>Node2</title>
<g id="a_node2"><a xlink:href="$AP__Param_8h.html" xlink:title="A system for managing and storing variables that are of general interest to the system. ">
<polygon fill="white" stroke="black" points="823.086,-550.5 823.086,-568.5 946.914,-568.5 946.914,-550.5 823.086,-550.5"/>
<text text-anchor="middle" x="885" y="-556.5" font-family="Helvetica,sans-Serif" font-size="10.00">AP_Param/AP_Param.h</text>
</a>
</g>
</g>
<!-- Node1&#45;&gt;Node2 -->
<g id="edge1" class="edge"><title>Node1&#45;&gt;Node2</title>
<path fill="none" stroke="midnightblue" d="M875.486,-660.328C866.807,-646.693 856.034,-624.671 861,-605 863.502,-595.09 868.693,-584.989 873.609,-576.921"/>
<polygon fill="midnightblue" stroke="midnightblue" points="876.557,-578.808 879.077,-568.517 870.69,-574.99 876.557,-578.808"/>
</g>
<!-- Node36 -->
<g id="node36" class="node"><title>Node36</title>
<g id="a_node36"><a xlink:href="$AP__Relay_8h.html" xlink:title="APM relay control class. ">
<polygon fill="white" stroke="black" points="870.342,-605.5 870.342,-623.5 985.658,-623.5 985.658,-605.5 870.342,-605.5"/>
<text text-anchor="middle" x="928" y="-611.5" font-family="Helvetica,sans-Serif" font-size="10.00">AP_Relay/AP_Relay.h</text>
</a>
</g>
</g>
<!-- Node1&#45;&gt;Node36 -->
<g id="edge79" class="edge"><title>Node1&#45;&gt;Node36</title>
<path fill="none" stroke="midnightblue" d="M894.757,-660.339C901.002,-651.916 909.152,-640.923 915.82,-631.929"/>
<polygon fill="midnightblue" stroke="midnightblue" points="918.724,-633.889 921.868,-623.771 913.1,-629.72 918.724,-633.889"/>
</g>
<!-- Node3 -->
<g id="node3" class="node"><title>Node3</title>
<g id="a_node3"><a xlink:href="$AP__HAL_8h.html" xlink:title="AP_HAL/AP_HAL.h">
<polygon fill="white" stroke="black" points="630.086,-440.5 630.086,-458.5 733.914,-458.5 733.914,-440.5 630.086,-440.5"/>
<text text-anchor="middle" x="682" y="-446.5" font-family="Helvetica,sans-Serif" font-size="10.00">AP_HAL/AP_HAL.h</text>
</a>
</g>
</g>
<!-- Node2&#45;&gt;Node3 -->
<g id="edge2" class="edge"><title>Node2&#45;&gt;Node3</title>
<path fill="none" stroke="midnightblue" d="M872.53,-550.418C852.974,-537.885 813.732,-513.299 779,-495 756.423,-483.105 730.063,-471.128 710.524,-462.601"/>
<polygon fill="midnightblue" stroke="midnightblue" points="711.824,-459.35 701.257,-458.592 709.045,-465.775 711.824,-459.35"/>
</g>
<!-- Node4 -->
<g id="node4" class="node"><title>Node4</title>
<polygon fill="white" stroke="#bfbfbf" points="593.879,-110.5 593.879,-128.5 642.121,-128.5 642.121,-110.5 593.879,-110.5"/>
<text text-anchor="middle" x="618" y="-116.5" font-family="Helvetica,sans-Serif" font-size="10.00">stdint.h</text>
</g>
<!-- Node2&#45;&gt;Node4 -->
<g id="edge71" class="edge"><title>Node2&#45;&gt;Node4</title>
<path fill="none" stroke="midnightblue" d="M822.769,-557.45C621.324,-553.234 0,-533.504 0,-450.5 0,-450.5 0,-450.5 0,-338.5 0,-151.222 202.104,-209.575 384,-165 454.239,-147.787 537.711,-133.325 583.56,-125.888"/>
<polygon fill="midnightblue" stroke="midnightblue" points="584.247,-129.323 593.565,-124.28 583.136,-122.411 584.247,-129.323"/>
</g>
<!-- Node7 -->
<g id="node7" class="node"><title>Node7</title>
<polygon fill="white" stroke="#bfbfbf" points="1369.6,-0.5 1369.6,-18.5 1418.4,-18.5 1418.4,-0.5 1369.6,-0.5"/>
<text text-anchor="middle" x="1394" y="-6.5" font-family="Helvetica,sans-Serif" font-size="10.00">string.h</text>
</g>
<!-- Node2&#45;&gt;Node7 -->
<g id="edge70" class="edge"><title>Node2&#45;&gt;Node7</title>
<path fill="none" stroke="midnightblue" d="M947.027,-555.595C1120.5,-546.65 1598,-516.072 1598,-450.5 1598,-450.5 1598,-450.5 1598,-118.5 1598,-42.8601 1487.1,-20.0487 1428.84,-13.2836"/>
<polygon fill="midnightblue" stroke="midnightblue" points="1428.92,-9.77313 1418.61,-12.1981 1428.18,-16.734 1428.92,-9.77313"/>
</g>
<!-- Node31 -->
<g id="node31" class="node"><title>Node31</title>
<polygon fill="white" stroke="#bfbfbf" points="826.209,-495.5 826.209,-513.5 877.791,-513.5 877.791,-495.5 826.209,-495.5"/>
<text text-anchor="middle" x="852" y="-501.5" font-family="Helvetica,sans-Serif" font-size="10.00">stddef.h</text>
</g>
<!-- Node2&#45;&gt;Node31 -->
<g id="edge69" class="edge"><title>Node2&#45;&gt;Node31</title>
<path fill="none" stroke="midnightblue" d="M879.844,-550.219C875.167,-542.707 868.133,-531.411 862.306,-522.052"/>
<polygon fill="midnightblue" stroke="midnightblue" points="865.269,-520.189 857.012,-513.55 859.326,-523.889 865.269,-520.189"/>
</g>
<!-- Node32 -->
<g id="node32" class="node"><title>Node32</title>
<polygon fill="white" stroke="#bfbfbf" points="895.714,-495.5 895.714,-513.5 942.286,-513.5 942.286,-495.5 895.714,-495.5"/>
<text text-anchor="middle" x="919" y="-501.5" font-family="Helvetica,sans-Serif" font-size="10.00">math.h</text>
</g>
<!-- Node2&#45;&gt;Node32 -->
<g id="edge72" class="edge"><title>Node2&#45;&gt;Node32</title>
<path fill="none" stroke="midnightblue" d="M890.312,-550.219C895.131,-542.707 902.378,-531.411 908.382,-522.052"/>
<polygon fill="midnightblue" stroke="midnightblue" points="911.382,-523.856 913.836,-513.55 905.491,-520.077 911.382,-523.856"/>
</g>
<!-- Node33 -->
<g id="node33" class="node"><title>Node33</title>
<polygon fill="white" stroke="#bfbfbf" points="960.379,-495.5 960.379,-513.5 1003.62,-513.5 1003.62,-495.5 960.379,-495.5"/>
<text text-anchor="middle" x="982" y="-501.5" font-family="Helvetica,sans-Serif" font-size="10.00">float.h</text>
</g>
<!-- Node2&#45;&gt;Node33 -->
<g id="edge73" class="edge"><title>Node2&#45;&gt;Node33</title>
<path fill="none" stroke="midnightblue" d="M899.732,-550.45C915.258,-541.968 939.948,-528.477 958.233,-518.486"/>
<polygon fill="midnightblue" stroke="midnightblue" points="960.032,-521.492 967.129,-513.625 956.675,-515.349 960.032,-521.492"/>
</g>
<!-- Node34 -->
<g id="node34" class="node"><title>Node34</title>
<g id="a_node34"><a xlink:href="$AP__Progmem_8h.html" xlink:title="AP_Progmem/AP_Progmem.h">
<polygon fill="white" stroke="black" points="1418.19,-165.5 1418.19,-183.5 1569.81,-183.5 1569.81,-165.5 1418.19,-165.5"/>
<text text-anchor="middle" x="1494" y="-171.5" font-family="Helvetica,sans-Serif" font-size="10.00">AP_Progmem/AP_Progmem.h</text>
</a>
</g>
</g>
<!-- Node2&#45;&gt;Node34 -->
<g id="edge74" class="edge"><title>Node2&#45;&gt;Node34</title>
<path fill="none" stroke="midnightblue" d="M946.915,-553.341C1095.68,-540.115 1461,-502.357 1461,-450.5 1461,-450.5 1461,-450.5 1461,-283.5 1461,-250.291 1475.45,-213.747 1485.22,-192.82"/>
<polygon fill="midnightblue" stroke="midnightblue" points="1488.46,-194.165 1489.69,-183.641 1482.17,-191.104 1488.46,-194.165"/>
</g>
<!-- Node35 -->
<g id="node35" class="node"><title>Node35</title>
<g id="a_node35"><a xlink:href="$StorageManager_8h.html" xlink:title="StorageManager/StorageManager.h">
<polygon fill="white" stroke="black" points="594.222,-495.5 594.222,-513.5 769.778,-513.5 769.778,-495.5 594.222,-495.5"/>
<text text-anchor="middle" x="682" y="-501.5" font-family="Helvetica,sans-Serif" font-size="10.00">StorageManager/StorageManager.h</text>
</a>
</g>
</g>
<!-- Node2&#45;&gt;Node35 -->
<g id="edge77" class="edge"><title>Node2&#45;&gt;Node35</title>
<path fill="none" stroke="midnightblue" d="M854.169,-550.45C819.042,-541.279 761.498,-526.256 722.708,-516.128"/>
<polygon fill="midnightblue" stroke="midnightblue" points="723.348,-512.678 712.788,-513.538 721.58,-519.451 723.348,-512.678"/>
</g>
<!-- Node3&#45;&gt;Node4 -->
<g id="edge3" class="edge"><title>Node3&#45;&gt;Node4</title>
<path fill="none" stroke="midnightblue" d="M630.008,-441.093C603.408,-434.992 572.073,-423.94 550,-404 490.225,-350.002 492.768,-317.57 475,-239 467.745,-206.918 454.475,-191.47 474,-165 498.948,-131.178 549.276,-122.279 583.315,-120.344"/>
<polygon fill="midnightblue" stroke="midnightblue" points="583.886,-123.824 593.742,-119.937 583.613,-116.829 583.886,-123.824"/>
</g>
<!-- Node5 -->
<g id="node5" class="node"><title>Node5</title>
<polygon fill="white" stroke="#bfbfbf" points="923.707,-110.5 923.707,-128.5 980.293,-128.5 980.293,-110.5 923.707,-110.5"/>
<text text-anchor="middle" x="952" y="-116.5" font-family="Helvetica,sans-Serif" font-size="10.00">stdbool.h</text>
</g>
<!-- Node3&#45;&gt;Node5 -->
<g id="edge4" class="edge"><title>Node3&#45;&gt;Node5</title>
<path fill="none" stroke="midnightblue" d="M734.04,-443.382C795.381,-436.588 892.914,-423.174 924,-404 954.111,-385.427 972,-375.878 972,-340.5 972,-340.5 972,-340.5 972,-283.5 972,-256.492 1009.68,-189.809 999,-165 993.778,-152.865 983.441,-142.491 973.787,-134.82"/>
<polygon fill="midnightblue" stroke="midnightblue" points="975.75,-131.919 965.625,-128.798 971.594,-137.551 975.75,-131.919"/>
</g>
<!-- Node6 -->
<g id="node6" class="node"><title>Node6</title>
<g id="a_node6"><a xlink:href="$AP__HAL__Namespace_8h.html" xlink:title="AP_HAL_Namespace.h">
<polygon fill="white" stroke="black" points="835.192,-55.5 835.192,-73.5 956.808,-73.5 956.808,-55.5 835.192,-55.5"/>
<text text-anchor="middle" x="896" y="-61.5" font-family="Helvetica,sans-Serif" font-size="10.00">AP_HAL_Namespace.h</text>
</a>
</g>
</g>
<!-- Node3&#45;&gt;Node6 -->
<g id="edge5" class="edge"><title>Node3&#45;&gt;Node6</title>
<path fill="none" stroke="midnightblue" d="M734.15,-448.141C853.646,-446.702 1143.89,-439.54 1234,-404 1276.23,-387.344 1314,-385.895 1314,-340.5 1314,-340.5 1314,-340.5 1314,-228.5 1314,-166.408 1295.72,-137.4 1240,-110 1193.41,-87.0904 1053.53,-74.8544 967.158,-69.3067"/>
<polygon fill="midnightblue" stroke="midnightblue" points="967.359,-65.8125 957.159,-68.6789 966.92,-72.7988 967.359,-65.8125"/>
</g>
<!-- Node9 -->
<g id="node9" class="node"><title>Node9</title>
<g id="a_node9"><a xlink:href="$AP__HAL__Boards_8h.html" xlink:title="AP_HAL_Boards.h">
<polygon fill="white" stroke="black" points="490.03,-165.5 490.03,-183.5 589.97,-183.5 589.97,-165.5 490.03,-165.5"/>
<text text-anchor="middle" x="540" y="-171.5" font-family="Helvetica,sans-Serif" font-size="10.00">AP_HAL_Boards.h</text>
</a>
</g>
</g>
<!-- Node3&#45;&gt;Node9 -->
<g id="edge8" class="edge"><title>Node3&#45;&gt;Node9</title>
<path fill="none" stroke="midnightblue" d="M665.157,-440.437C636.186,-425.258 580,-389.502 580,-340.5 580,-340.5 580,-340.5 580,-283.5 580,-249.478 562.328,-212.97 550.477,-192.311"/>
<polygon fill="midnightblue" stroke="midnightblue" points="553.361,-190.314 545.229,-183.523 547.351,-193.903 553.361,-190.314"/>
</g>
<!-- Node10 -->
<g id="node10" class="node"><title>Node10</title>
<g id="a_node10"><a xlink:href="$AP__HAL__Macros_8h.html" xlink:title="AP_HAL_Macros.h">
<polygon fill="white" stroke="black" points="1038.48,-385.5 1038.48,-403.5 1139.52,-403.5 1139.52,-385.5 1038.48,-385.5"/>
<text text-anchor="middle" x="1089" y="-391.5" font-family="Helvetica,sans-Serif" font-size="10.00">AP_HAL_Macros.h</text>
</a>
</g>
</g>
<!-- Node3&#45;&gt;Node10 -->
<g id="edge9" class="edge"><title>Node3&#45;&gt;Node10</title>
<path fill="none" stroke="midnightblue" d="M734.148,-441.725C801.211,-433.01 921.286,-417.398 1024,-404 1025.3,-403.83 1026.62,-403.659 1027.94,-403.485"/>
<polygon fill="midnightblue" stroke="midnightblue" points="1028.8,-406.904 1038.26,-402.139 1027.89,-399.963 1028.8,-406.904"/>
</g>
<!-- Node11 -->
<g id="node11" class="node"><title>Node11</title>
<g id="a_node11"><a xlink:href="$AP__HAL__Main_8h.html" xlink:title="AP_HAL_Main.h">
<polygon fill="white" stroke="black" points="348.035,-385.5 348.035,-403.5 437.965,-403.5 437.965,-385.5 348.035,-385.5"/>
<text text-anchor="middle" x="393" y="-391.5" font-family="Helvetica,sans-Serif" font-size="10.00">AP_HAL_Main.h</text>
</a>
</g>
</g>
<!-- Node3&#45;&gt;Node11 -->
<g id="edge10" class="edge"><title>Node3&#45;&gt;Node11</title>
<path fill="none" stroke="midnightblue" d="M638.107,-440.45C586.822,-431.045 501.972,-415.485 446.778,-405.362"/>
<polygon fill="midnightblue" stroke="midnightblue" points="447.299,-401.9 436.832,-403.538 446.036,-408.785 447.299,-401.9"/>
</g>
<!-- Node12 -->
<g id="node12" class="node"><title>Node12</title>
<g id="a_node12"><a xlink:href="$HAL_8h.html" xlink:title="HAL.h">
<polygon fill="white" stroke="black" points="326.104,-330.5 326.104,-348.5 369.896,-348.5 369.896,-330.5 326.104,-330.5"/>
<text text-anchor="middle" x="348" y="-336.5" font-family="Helvetica,sans-Serif" font-size="10.00">HAL.h</text>
</a>
</g>
</g>
<!-- Node3&#45;&gt;Node12 -->
<g id="edge68" class="edge"><title>Node3&#45;&gt;Node12</title>
<path fill="none" stroke="midnightblue" d="M629.835,-445.47C538.594,-439.635 357.876,-425.483 339,-404 328,-391.481 332.939,-371.895 338.939,-357.784"/>
<polygon fill="midnightblue" stroke="midnightblue" points="342.146,-359.191 343.283,-348.657 335.825,-356.183 342.146,-359.191"/>
</g>
<!-- Node13 -->
<g id="node13" class="node"><title>Node13</title>
<g id="a_node13"><a xlink:href="$AnalogIn_8h.html" xlink:title="AnalogIn.h">
<polygon fill="white" stroke="black" points="1183.09,-220.5 1183.09,-238.5 1246.91,-238.5 1246.91,-220.5 1183.09,-220.5"/>
<text text-anchor="middle" x="1215" y="-226.5" font-family="Helvetica,sans-Serif" font-size="10.00">AnalogIn.h</text>
</a>
</g>
</g>
<!-- Node3&#45;&gt;Node13 -->
<g id="edge50" class="edge"><title>Node3&#45;&gt;Node13</title>
<path fill="none" stroke="midnightblue" d="M733.996,-447.028C852.879,-443.205 1136.89,-431.291 1170,-404 1216.8,-365.425 1218.42,-285.018 1216.53,-248.837"/>
<polygon fill="midnightblue" stroke="midnightblue" points="1220.02,-248.493 1215.85,-238.753 1213.03,-248.967 1220.02,-248.493"/>
</g>
<!-- Node15 -->
<g id="node15" class="node"><title>Node15</title>
<g id="a_node15"><a xlink:href="$GPIO_8h.html" xlink:title="GPIO.h">
<polygon fill="white" stroke="black" points="332.328,-220.5 332.328,-238.5 381.672,-238.5 381.672,-220.5 332.328,-220.5"/>
<text text-anchor="middle" x="357" y="-226.5" font-family="Helvetica,sans-Serif" font-size="10.00">GPIO.h</text>
</a>
</g>
</g>
<!-- Node3&#45;&gt;Node15 -->
<g id="edge52" class="edge"><title>Node3&#45;&gt;Node15</title>
<path fill="none" stroke="midnightblue" d="M629.798,-445.94C588.928,-441.796 532.141,-431.146 490,-404 427.273,-363.594 382.453,-282.927 365.029,-247.665"/>
<polygon fill="midnightblue" stroke="midnightblue" points="368.171,-246.123 360.679,-238.632 361.864,-249.161 368.171,-246.123"/>
</g>
<!-- Node16 -->
<g id="node16" class="node"><title>Node16</title>
<g id="a_node16"><a xlink:href="$RCInput_8h.html" xlink:title="RCInput.h">
<polygon fill="white" stroke="black" points="237.488,-275.5 237.488,-293.5 298.512,-293.5 298.512,-275.5 237.488,-275.5"/>
<text text-anchor="middle" x="268" y="-281.5" font-family="Helvetica,sans-Serif" font-size="10.00">RCInput.h</text>
</a>
</g>
</g>
<!-- Node3&#45;&gt;Node16 -->
<g id="edge53" class="edge"><title>Node3&#45;&gt;Node16</title>
<path fill="none" stroke="midnightblue" d="M629.896,-447.776C543.758,-445.635 376.452,-437.193 329,-404 294.492,-379.861 278.219,-330.151 271.694,-303.429"/>
<polygon fill="midnightblue" stroke="midnightblue" points="275.076,-302.516 269.47,-293.526 268.246,-304.05 275.076,-302.516"/>
</g>
<!-- Node17 -->
<g id="node17" class="node"><title>Node17</title>
<g id="a_node17"><a xlink:href="$RCOutput_8h.html" xlink:title="RCOutput.h">
<polygon fill="white" stroke="black" points="27.5986,-275.5 27.5986,-293.5 96.4014,-293.5 96.4014,-275.5 27.5986,-275.5"/>
<text text-anchor="middle" x="62" y="-281.5" font-family="Helvetica,sans-Serif" font-size="10.00">RCOutput.h</text>
</a>
</g>
</g>
<!-- Node3&#45;&gt;Node17 -->
<g id="edge54" class="edge"><title>Node3&#45;&gt;Node17</title>
<path fill="none" stroke="midnightblue" d="M629.793,-447.828C520.635,-445.762 272.006,-437.42 195,-404 141.985,-380.992 95.4979,-328.429 74.2584,-301.721"/>
<polygon fill="midnightblue" stroke="midnightblue" points="76.951,-299.482 68.0504,-293.735 71.4243,-303.778 76.951,-299.482"/>
</g>
<!-- Node18 -->
<g id="node18" class="node"><title>Node18</title>
<g id="a_node18"><a xlink:href="$SPIDriver_8h.html" xlink:title="SPIDriver.h">
<polygon fill="white" stroke="black" points="114.712,-275.5 114.712,-293.5 181.288,-293.5 181.288,-275.5 114.712,-275.5"/>
<text text-anchor="middle" x="148" y="-281.5" font-family="Helvetica,sans-Serif" font-size="10.00">SPIDriver.h</text>
</a>
</g>
</g>
<!-- Node3&#45;&gt;Node18 -->
<g id="edge49" class="edge"><title>Node3&#45;&gt;Node18</title>
<path fill="none" stroke="midnightblue" d="M630.013,-446.562C529.249,-442.265 311.107,-430.178 241,-404 201.262,-389.162 186.751,-384.145 163,-349 153.882,-335.508 150.275,-317.146 148.864,-303.638"/>
<polygon fill="midnightblue" stroke="midnightblue" points="152.353,-303.359 148.123,-293.645 145.372,-303.877 152.353,-303.359"/>
</g>
<!-- Node19 -->
<g id="node19" class="node"><title>Node19</title>
<g id="a_node19"><a xlink:href="$Storage_8h.html" xlink:title="Storage.h">
<polygon fill="white" stroke="black" points="707.318,-275.5 707.318,-293.5 766.682,-293.5 766.682,-275.5 707.318,-275.5"/>
<text text-anchor="middle" x="737" y="-281.5" font-family="Helvetica,sans-Serif" font-size="10.00">Storage.h</text>
</a>
</g>
</g>
<!-- Node3&#45;&gt;Node19 -->
<g id="edge51" class="edge"><title>Node3&#45;&gt;Node19</title>
<path fill="none" stroke="midnightblue" d="M684.803,-440.193C693.336,-414.903 719.132,-338.453 730.959,-303.405"/>
<polygon fill="midnightblue" stroke="midnightblue" points="734.387,-304.191 734.268,-293.597 727.754,-301.953 734.387,-304.191"/>
</g>
<!-- Node20 -->
<g id="node20" class="node"><title>Node20</title>
<g id="a_node20"><a xlink:href="$UARTDriver_8h.html" xlink:title="UARTDriver.h">
<polygon fill="white" stroke="black" points="612.248,-275.5 612.248,-293.5 689.752,-293.5 689.752,-275.5 612.248,-275.5"/>
<text text-anchor="middle" x="651" y="-281.5" font-family="Helvetica,sans-Serif" font-size="10.00">UARTDriver.h</text>
</a>
</g>
</g>
<!-- Node3&#45;&gt;Node20 -->
<g id="edge45" class="edge"><title>Node3&#45;&gt;Node20</title>
<path fill="none" stroke="midnightblue" d="M680.42,-440.193C675.631,-415.013 661.197,-339.114 654.492,-303.862"/>
<polygon fill="midnightblue" stroke="midnightblue" points="657.847,-302.767 652.54,-293.597 650.97,-304.075 657.847,-302.767"/>
</g>
<!-- Node23 -->
<g id="node23" class="node"><title>Node23</title>
<g id="a_node23"><a xlink:href="$BetterStream_8h.html" xlink:title="utility/BetterStream.h">
<polygon fill="white" stroke="black" points="999.594,-220.5 999.594,-238.5 1108.41,-238.5 1108.41,-220.5 999.594,-220.5"/>
<text text-anchor="middle" x="1054" y="-226.5" font-family="Helvetica,sans-Serif" font-size="10.00">utility/BetterStream.h</text>
</a>
</g>
</g>
<!-- Node3&#45;&gt;Node23 -->
<g id="edge67" class="edge"><title>Node3&#45;&gt;Node23</title>
<path fill="none" stroke="midnightblue" d="M733.992,-447.063C810.376,-443.947 947.993,-434.192 986,-404 1035.37,-364.778 1048.98,-284.709 1052.67,-248.726"/>
<polygon fill="midnightblue" stroke="midnightblue" points="1056.16,-248.968 1053.55,-238.7 1049.19,-248.356 1056.16,-248.968"/>
</g>
<!-- Node25 -->
<g id="node25" class="node"><title>Node25</title>
<g id="a_node25"><a xlink:href="$Stream_8h.html" xlink:title="Stream.h">
<polygon fill="white" stroke="black" points="1229.71,-165.5 1229.71,-183.5 1286.29,-183.5 1286.29,-165.5 1229.71,-165.5"/>
<text text-anchor="middle" x="1258" y="-171.5" font-family="Helvetica,sans-Serif" font-size="10.00">Stream.h</text>
</a>
</g>
</g>
<!-- Node3&#45;&gt;Node25 -->
<g id="edge66" class="edge"><title>Node3&#45;&gt;Node25</title>
<path fill="none" stroke="midnightblue" d="M734.021,-447.674C846.815,-445.287 1110.38,-436.321 1193,-404 1235.93,-387.207 1275,-386.594 1275,-340.5 1275,-340.5 1275,-340.5 1275,-283.5 1275,-251.482 1267.62,-214.768 1262.58,-193.448"/>
<polygon fill="midnightblue" stroke="midnightblue" points="1265.94,-192.436 1260.15,-183.561 1259.14,-194.107 1265.94,-192.436"/>
</g>
<!-- Node26 -->
<g id="node26" class="node"><title>Node26</title>
<g id="a_node26"><a xlink:href="$Print_8h.html" xlink:title="Print.h">
<polygon fill="white" stroke="black" points="1305.55,-110.5 1305.55,-128.5 1350.45,-128.5 1350.45,-110.5 1305.55,-110.5"/>
<text text-anchor="middle" x="1328" y="-116.5" font-family="Helvetica,sans-Serif" font-size="10.00">Print.h</text>
</a>
</g>
</g>
<!-- Node3&#45;&gt;Node26 -->
<g id="edge65" class="edge"><title>Node3&#45;&gt;Node26</title>
<path fill="none" stroke="midnightblue" d="M733.937,-447.044C877.852,-442.711 1274.68,-428.65 1328,-404 1363.8,-387.447 1390,-379.944 1390,-340.5 1390,-340.5 1390,-340.5 1390,-228.5 1390,-191.422 1362.17,-155.553 1343.81,-135.913"/>
<polygon fill="midnightblue" stroke="midnightblue" points="1346.1,-133.257 1336.62,-128.534 1341.09,-138.14 1346.1,-133.257"/>
</g>
<!-- Node27 -->
<g id="node27" class="node"><title>Node27</title>
<g id="a_node27"><a xlink:href="$I2CDriver_8h.html" xlink:title="I2CDriver.h">
<polygon fill="white" stroke="black" points="923.99,-165.5 923.99,-183.5 990.01,-183.5 990.01,-165.5 923.99,-165.5"/>
<text text-anchor="middle" x="957" y="-171.5" font-family="Helvetica,sans-Serif" font-size="10.00">I2CDriver.h</text>
</a>
</g>
</g>
<!-- Node3&#45;&gt;Node27 -->
<g id="edge46" class="edge"><title>Node3&#45;&gt;Node27</title>
<path fill="none" stroke="midnightblue" d="M734.215,-448.306C808.027,-444.969 934,-426.653 934,-340.5 934,-340.5 934,-340.5 934,-283.5 934,-251.014 944.078,-214.212 950.892,-193.044"/>
<polygon fill="midnightblue" stroke="midnightblue" points="954.23,-194.098 954.087,-183.504 947.592,-191.875 954.23,-194.098"/>
</g>
<!-- Node28 -->
<g id="node28" class="node"><title>Node28</title>
<g id="a_node28"><a xlink:href="$Scheduler_8h.html" xlink:title="Scheduler.h">
<polygon fill="white" stroke="black" points="483.589,-220.5 483.589,-238.5 552.411,-238.5 552.411,-220.5 483.589,-220.5"/>
<text text-anchor="middle" x="518" y="-226.5" font-family="Helvetica,sans-Serif" font-size="10.00">Scheduler.h</text>
</a>
</g>
</g>
<!-- Node3&#45;&gt;Node28 -->
<g id="edge55" class="edge"><title>Node3&#45;&gt;Node28</title>
<path fill="none" stroke="midnightblue" d="M633.593,-440.47C610.197,-434.23 583.472,-423.243 566,-404 525.419,-359.305 518.75,-283.278 517.921,-248.649"/>
<polygon fill="midnightblue" stroke="midnightblue" points="521.421,-248.563 517.823,-238.597 514.421,-248.631 521.421,-248.563"/>
</g>
<!-- Node29 -->
<g id="node29" class="node"><title>Node29</title>
<g id="a_node29"><a xlink:href="$Semaphores_8h.html" xlink:title="Semaphores.h">
<polygon fill="white" stroke="black" points="172.48,-330.5 172.48,-348.5 253.52,-348.5 253.52,-330.5 172.48,-330.5"/>
<text text-anchor="middle" x="213" y="-336.5" font-family="Helvetica,sans-Serif" font-size="10.00">Semaphores.h</text>
</a>
</g>
</g>
<!-- Node3&#45;&gt;Node29 -->
<g id="edge60" class="edge"><title>Node3&#45;&gt;Node29</title>
<path fill="none" stroke="midnightblue" d="M629.976,-447.608C533.201,-445.187 329.73,-436.298 268,-404 248.071,-393.573 232.193,-372.664 222.718,-357.686"/>
<polygon fill="midnightblue" stroke="midnightblue" points="225.579,-355.651 217.438,-348.87 219.573,-359.248 225.579,-355.651"/>
</g>
<!-- Node30 -->
<g id="node30" class="node"><title>Node30</title>
<g id="a_node30"><a xlink:href="$Util_8h.html" xlink:title="Util.h">
<polygon fill="white" stroke="black" points="1126.61,-220.5 1126.61,-238.5 1165.39,-238.5 1165.39,-220.5 1126.61,-220.5"/>
<text text-anchor="middle" x="1146" y="-226.5" font-family="Helvetica,sans-Serif" font-size="10.00">Util.h</text>
</a>
</g>
</g>
<!-- Node3&#45;&gt;Node30 -->
<g id="edge62" class="edge"><title>Node3&#45;&gt;Node30</title>
<path fill="none" stroke="midnightblue" d="M734.025,-447.402C849.955,-444.419 1121.5,-434.242 1149,-404 1188.32,-360.757 1166.32,-283.414 1153.36,-248.489"/>
<polygon fill="midnightblue" stroke="midnightblue" points="1156.45,-246.784 1149.56,-238.738 1149.93,-249.326 1156.45,-246.784"/>
</g>
<!-- Node6&#45;&gt;Node7 -->
<g id="edge6" class="edge"><title>Node6&#45;&gt;Node7</title>
<path fill="none" stroke="midnightblue" d="M957.065,-57.0012C1062.67,-45.7618 1276.11,-23.0464 1359.51,-14.1711"/>
<polygon fill="midnightblue" stroke="midnightblue" points="1359.9,-17.6489 1369.47,-13.1102 1359.16,-10.6882 1359.9,-17.6489"/>
</g>
<!-- Node8 -->
<g id="node8" class="node"><title>Node8</title>
<g id="a_node8"><a xlink:href="$functor_8h.html" xlink:title="utility/functor.h">
<polygon fill="white" stroke="black" points="856.037,-0.5 856.037,-18.5 935.963,-18.5 935.963,-0.5 856.037,-0.5"/>
<text text-anchor="middle" x="896" y="-6.5" font-family="Helvetica,sans-Serif" font-size="10.00">utility/functor.h</text>
</a>
</g>
</g>
<!-- Node6&#45;&gt;Node8 -->
<g id="edge7" class="edge"><title>Node6&#45;&gt;Node8</title>
<path fill="none" stroke="midnightblue" d="M896,-55.2188C896,-48.1769 896,-37.8083 896,-28.8277"/>
<polygon fill="midnightblue" stroke="midnightblue" points="899.5,-28.5495 896,-18.5496 892.5,-28.5496 899.5,-28.5495"/>
</g>
<!-- Node11&#45;&gt;Node12 -->
<g id="edge11" class="edge"><title>Node11&#45;&gt;Node12</title>
<path fill="none" stroke="midnightblue" d="M385.969,-385.219C379.392,-377.473 369.397,-365.701 361.313,-356.18"/>
<polygon fill="midnightblue" stroke="midnightblue" points="363.975,-353.907 354.835,-348.55 358.639,-358.438 363.975,-353.907"/>
</g>
<!-- Node12&#45;&gt;Node6 -->
<g id="edge12" class="edge"><title>Node12&#45;&gt;Node6</title>
<path fill="none" stroke="midnightblue" d="M343.256,-330.256C332.635,-310.688 308.941,-260.078 323,-220 345.886,-154.758 369.192,-136.623 433,-110 501.927,-81.2411 712.975,-70.8091 824.776,-67.2343"/>
<polygon fill="midnightblue" stroke="midnightblue" points="825.063,-70.7272 834.949,-66.9192 824.846,-63.7305 825.063,-70.7272"/>
</g>
<!-- Node12&#45;&gt;Node13 -->
<g id="edge13" class="edge"><title>Node12&#45;&gt;Node13</title>
<path fill="none" stroke="midnightblue" d="M370.137,-336.669C465.287,-328.627 848.966,-294.42 1172.77,-239.112"/>
<polygon fill="midnightblue" stroke="midnightblue" points="1173.55,-242.529 1182.81,-237.386 1172.36,-235.63 1173.55,-242.529"/>
</g>
<!-- Node12&#45;&gt;Node15 -->
<g id="edge16" class="edge"><title>Node12&#45;&gt;Node15</title>
<path fill="none" stroke="midnightblue" d="M348.676,-330.382C350.11,-313.182 353.484,-272.698 355.468,-248.887"/>
<polygon fill="midnightblue" stroke="midnightblue" points="358.973,-248.968 356.316,-238.712 351.997,-248.387 358.973,-248.968"/>
</g>
<!-- Node12&#45;&gt;Node16 -->
<g id="edge19" class="edge"><title>Node12&#45;&gt;Node16</title>
<path fill="none" stroke="midnightblue" d="M335.85,-330.45C323.398,-322.201 303.797,-309.216 288.858,-299.319"/>
<polygon fill="midnightblue" stroke="midnightblue" points="290.534,-296.231 280.265,-293.625 286.668,-302.066 290.534,-296.231"/>
</g>
<!-- Node12&#45;&gt;Node17 -->
<g id="edge21" class="edge"><title>Node12&#45;&gt;Node17</title>
<path fill="none" stroke="midnightblue" d="M325.965,-334.517C285.002,-327.097 194.1,-310.562 106.671,-294.112"/>
<polygon fill="midnightblue" stroke="midnightblue" points="107.057,-290.623 96.5816,-292.211 105.761,-297.502 107.057,-290.623"/>
</g>
<!-- Node12&#45;&gt;Node18 -->
<g id="edge23" class="edge"><title>Node12&#45;&gt;Node18</title>
<path fill="none" stroke="midnightblue" d="M325.832,-332.626C292.666,-323.836 229.605,-307.125 188.186,-296.149"/>
<polygon fill="midnightblue" stroke="midnightblue" points="188.974,-292.737 178.411,-293.559 187.181,-299.504 188.974,-292.737"/>
</g>
<!-- Node12&#45;&gt;Node19 -->
<g id="edge25" class="edge"><title>Node12&#45;&gt;Node19</title>
<path fill="none" stroke="midnightblue" d="M370.284,-336.409C424.552,-331.162 568.028,-316.359 697.124,-294.195"/>
<polygon fill="midnightblue" stroke="midnightblue" points="697.929,-297.608 707.182,-292.448 696.731,-290.711 697.929,-297.608"/>
</g>
<!-- Node12&#45;&gt;Node20 -->
<g id="edge28" class="edge"><title>Node12&#45;&gt;Node20</title>
<path fill="none" stroke="midnightblue" d="M370.28,-334.603C418.863,-326.105 535.306,-305.737 601.959,-294.078"/>
<polygon fill="midnightblue" stroke="midnightblue" points="602.963,-297.456 612.21,-292.285 601.757,-290.56 602.963,-297.456"/>
</g>
<!-- Node13&#45;&gt;Node6 -->
<g id="edge15" class="edge"><title>Node13&#45;&gt;Node6</title>
<path fill="none" stroke="midnightblue" d="M1210.59,-220.194C1198.38,-198.122 1161.83,-137.803 1113,-110 1068.51,-84.6661 1011.61,-73.6469 967.233,-68.9052"/>
<polygon fill="midnightblue" stroke="midnightblue" points="967.399,-65.4046 957.104,-67.9076 966.713,-72.3709 967.399,-65.4046"/>
</g>
<!-- Node14 -->
<g id="node14" class="node"><title>Node14</title>
<polygon fill="white" stroke="#bfbfbf" points="1351.6,-55.5 1351.6,-73.5 1410.4,-73.5 1410.4,-55.5 1351.6,-55.5"/>
<text text-anchor="middle" x="1381" y="-61.5" font-family="Helvetica,sans-Serif" font-size="10.00">inttypes.h</text>
</g>
<!-- Node13&#45;&gt;Node14 -->
<g id="edge14" class="edge"><title>Node13&#45;&gt;Node14</title>
<path fill="none" stroke="midnightblue" d="M1235.05,-220.4C1266.59,-206.578 1327.47,-175.361 1359,-129 1368.43,-115.131 1374.21,-96.8157 1377.46,-83.4202"/>
<polygon fill="midnightblue" stroke="midnightblue" points="1380.91,-84.0478 1379.62,-73.5308 1374.07,-82.552 1380.91,-84.0478"/>
</g>
<!-- Node15&#45;&gt;Node4 -->
<g id="edge17" class="edge"><title>Node15&#45;&gt;Node4</title>
<path fill="none" stroke="midnightblue" d="M361.34,-220.392C369.138,-206.657 386.887,-178.95 410,-165 464.619,-132.035 540.243,-123.296 583.649,-121.099"/>
<polygon fill="midnightblue" stroke="midnightblue" points="583.854,-124.594 593.699,-120.679 583.561,-117.6 583.854,-124.594"/>
</g>
<!-- Node15&#45;&gt;Node6 -->
<g id="edge18" class="edge"><title>Node15&#45;&gt;Node6</title>
<path fill="none" stroke="midnightblue" d="M358.435,-220.404C361.172,-207.179 368.32,-180.831 384,-165 426.999,-121.588 451.001,-125.896 510,-110 617.374,-81.0705 746.522,-70.9464 824.877,-67.4045"/>
<polygon fill="midnightblue" stroke="midnightblue" points="825.276,-70.8907 835.118,-66.9661 824.977,-63.8971 825.276,-70.8907"/>
</g>
<!-- Node16&#45;&gt;Node6 -->
<g id="edge20" class="edge"><title>Node16&#45;&gt;Node6</title>
<path fill="none" stroke="midnightblue" d="M261.167,-275.349C239.145,-248.087 174.074,-159.049 220,-110 260.699,-66.534 660.027,-63.9893 825.125,-64.8236"/>
<polygon fill="midnightblue" stroke="midnightblue" points="825.162,-68.3237 835.182,-64.8801 825.201,-61.3238 825.162,-68.3237"/>
</g>
<!-- Node17&#45;&gt;Node6 -->
<g id="edge22" class="edge"><title>Node17&#45;&gt;Node6</title>
<path fill="none" stroke="midnightblue" d="M62.2185,-275.131C63.4695,-246.378 71.8587,-151.156 128,-110 183.374,-69.4063 645.316,-65.3146 824.943,-65.2758"/>
<polygon fill="midnightblue" stroke="midnightblue" points="825.079,-68.7757 835.08,-65.2779 825.081,-61.7757 825.079,-68.7757"/>
</g>
<!-- Node18&#45;&gt;Node6 -->
<g id="edge24" class="edge"><title>Node18&#45;&gt;Node6</title>
<path fill="none" stroke="midnightblue" d="M144.306,-275.202C132.589,-247.475 99.5682,-157.139 144,-110 167.152,-85.4375 642.127,-71.549 825.047,-67.0943"/>
<polygon fill="midnightblue" stroke="midnightblue" points="825.191,-70.592 835.104,-66.8518 825.022,-63.594 825.191,-70.592"/>
</g>
<!-- Node19&#45;&gt;Node4 -->
<g id="edge26" class="edge"><title>Node19&#45;&gt;Node4</title>
<path fill="none" stroke="midnightblue" d="M730.935,-275.193C712.233,-249.575 655.203,-171.459 630.09,-137.06"/>
<polygon fill="midnightblue" stroke="midnightblue" points="632.635,-134.61 623.911,-128.597 626.981,-138.738 632.635,-134.61"/>
</g>
<!-- Node19&#45;&gt;Node6 -->
<g id="edge27" class="edge"><title>Node19&#45;&gt;Node6</title>
<path fill="none" stroke="midnightblue" d="M766.733,-282.434C797.969,-279.606 846.085,-270.087 872,-239 909.611,-193.883 904.128,-118.071 899.17,-83.5727"/>
<polygon fill="midnightblue" stroke="midnightblue" points="902.604,-82.8844 897.572,-73.5611 895.692,-83.9879 902.604,-82.8844"/>
</g>
<!-- Node20&#45;&gt;Node4 -->
<g id="edge29" class="edge"><title>Node20&#45;&gt;Node4</title>
<path fill="none" stroke="midnightblue" d="M649.318,-275.193C644.198,-249.903 628.721,-173.453 621.625,-138.405"/>
<polygon fill="midnightblue" stroke="midnightblue" points="625.054,-137.704 619.639,-128.597 618.193,-139.093 625.054,-137.704"/>
</g>
<!-- Node20&#45;&gt;Node6 -->
<g id="edge34" class="edge"><title>Node20&#45;&gt;Node6</title>
<path fill="none" stroke="midnightblue" d="M677.691,-275.395C717.451,-262.124 792.526,-232.296 839,-184 867.267,-154.625 883.834,-108.571 891.269,-83.4007"/>
<polygon fill="midnightblue" stroke="midnightblue" points="894.654,-84.2934 893.978,-73.7201 887.913,-82.4068 894.654,-84.2934"/>
</g>
<!-- Node21 -->
<g id="node21" class="node"><title>Node21</title>
<g id="a_node21"><a xlink:href="$AP__Common_8h.html" xlink:title="Common definitions and utility routines for the ArduPilot libraries. ">
<polygon fill="white" stroke="black" points="683.973,-165.5 683.973,-183.5 830.027,-183.5 830.027,-165.5 683.973,-165.5"/>
<text text-anchor="middle" x="757" y="-171.5" font-family="Helvetica,sans-Serif" font-size="10.00">AP_Common/AP_Common.h</text>
</a>
</g>
</g>
<!-- Node20&#45;&gt;Node21 -->
<g id="edge30" class="edge"><title>Node20&#45;&gt;Node21</title>
<path fill="none" stroke="midnightblue" d="M658.967,-275.382C676.54,-257.479 718.873,-214.347 741.737,-191.051"/>
<polygon fill="midnightblue" stroke="midnightblue" points="744.434,-193.3 748.94,-183.712 739.438,-188.397 744.434,-193.3"/>
</g>
<!-- Node20&#45;&gt;Node23 -->
<g id="edge35" class="edge"><title>Node20&#45;&gt;Node23</title>
<path fill="none" stroke="midnightblue" d="M689.956,-276.286C692.675,-275.834 695.377,-275.401 698,-275 799.526,-259.486 917.959,-245.495 989.399,-237.502"/>
<polygon fill="midnightblue" stroke="midnightblue" points="990.04,-240.953 999.591,-236.367 989.265,-233.996 990.04,-240.953"/>
</g>
<!-- Node21&#45;&gt;Node4 -->
<g id="edge31" class="edge"><title>Node21&#45;&gt;Node4</title>
<path fill="none" stroke="midnightblue" d="M735.889,-165.45C712.723,-156.617 675.317,-142.355 648.861,-132.267"/>
<polygon fill="midnightblue" stroke="midnightblue" points="649.901,-128.918 639.31,-128.625 647.407,-135.458 649.901,-128.918"/>
</g>
<!-- Node21&#45;&gt;Node5 -->
<g id="edge33" class="edge"><title>Node21&#45;&gt;Node5</title>
<path fill="none" stroke="midnightblue" d="M786.616,-165.45C820.605,-156.213 876.442,-141.036 913.708,-130.908"/>
<polygon fill="midnightblue" stroke="midnightblue" points="914.961,-134.194 923.693,-128.194 913.125,-127.439 914.961,-134.194"/>
</g>
<!-- Node22 -->
<g id="node22" class="node"><title>Node22</title>
<polygon fill="white" stroke="#bfbfbf" points="733.158,-110.5 733.158,-128.5 780.842,-128.5 780.842,-110.5 733.158,-110.5"/>
<text text-anchor="middle" x="757" y="-116.5" font-family="Helvetica,sans-Serif" font-size="10.00">stdlib.h</text>
</g>
<!-- Node21&#45;&gt;Node22 -->
<g id="edge32" class="edge"><title>Node21&#45;&gt;Node22</title>
<path fill="none" stroke="midnightblue" d="M757,-165.219C757,-158.177 757,-147.808 757,-138.828"/>
<polygon fill="midnightblue" stroke="midnightblue" points="760.5,-138.55 757,-128.55 753.5,-138.55 760.5,-138.55"/>
</g>
<!-- Node23&#45;&gt;Node6 -->
<g id="edge38" class="edge"><title>Node23&#45;&gt;Node6</title>
<path fill="none" stroke="midnightblue" d="M1052.96,-220.286C1049.82,-198.956 1038.52,-141.295 1005,-110 987.78,-93.9252 963.974,-83.305 943.001,-76.4861"/>
<polygon fill="midnightblue" stroke="midnightblue" points="943.873,-73.093 933.287,-73.5258 941.833,-79.789 943.873,-73.093"/>
</g>
<!-- Node23&#45;&gt;Node21 -->
<g id="edge37" class="edge"><title>Node23&#45;&gt;Node21</title>
<path fill="none" stroke="midnightblue" d="M1008.89,-220.45C956.078,-211.026 868.627,-195.42 811.914,-185.299"/>
<polygon fill="midnightblue" stroke="midnightblue" points="812.504,-181.85 802.045,-183.538 811.274,-188.741 812.504,-181.85"/>
</g>
<!-- Node24 -->
<g id="node24" class="node"><title>Node24</title>
<polygon fill="white" stroke="#bfbfbf" points="1083.93,-165.5 1083.93,-183.5 1136.07,-183.5 1136.07,-165.5 1083.93,-165.5"/>
<text text-anchor="middle" x="1110" y="-171.5" font-family="Helvetica,sans-Serif" font-size="10.00">stdarg.h</text>
</g>
<!-- Node23&#45;&gt;Node24 -->
<g id="edge36" class="edge"><title>Node23&#45;&gt;Node24</title>
<path fill="none" stroke="midnightblue" d="M1062.75,-220.219C1071.1,-212.316 1083.88,-200.224 1094.04,-190.606"/>
<polygon fill="midnightblue" stroke="midnightblue" points="1096.64,-192.965 1101.49,-183.55 1091.83,-187.881 1096.64,-192.965"/>
</g>
<!-- Node23&#45;&gt;Node25 -->
<g id="edge39" class="edge"><title>Node23&#45;&gt;Node25</title>
<path fill="none" stroke="midnightblue" d="M1084.98,-220.45C1121.1,-211.067 1180.8,-195.556 1219.77,-185.432"/>
<polygon fill="midnightblue" stroke="midnightblue" points="1220.89,-188.757 1229.69,-182.855 1219.13,-181.982 1220.89,-188.757"/>
</g>
<!-- Node25&#45;&gt;Node6 -->
<g id="edge40" class="edge"><title>Node25&#45;&gt;Node6</title>
<path fill="none" stroke="midnightblue" d="M1255.13,-165.243C1249.82,-151.284 1237.02,-123.248 1216,-110 1175.78,-84.6564 1048.54,-73.365 967.139,-68.6279"/>
<polygon fill="midnightblue" stroke="midnightblue" points="967.137,-65.1224 956.956,-68.0555 966.744,-72.1113 967.137,-65.1224"/>
</g>
<!-- Node25&#45;&gt;Node26 -->
<g id="edge41" class="edge"><title>Node25&#45;&gt;Node26</title>
<path fill="none" stroke="midnightblue" d="M1268.63,-165.45C1279.32,-157.357 1296.03,-144.704 1309,-134.882"/>
<polygon fill="midnightblue" stroke="midnightblue" points="1311.41,-137.452 1317.27,-128.625 1307.18,-131.871 1311.41,-137.452"/>
</g>
<!-- Node26&#45;&gt;Node6 -->
<g id="edge42" class="edge"><title>Node26&#45;&gt;Node6</title>
<path fill="none" stroke="midnightblue" d="M1305.23,-112.689C1300.86,-111.697 1296.3,-110.747 1292,-110 1179.31,-90.4369 1047.01,-77.5823 967.432,-70.9305"/>
<polygon fill="midnightblue" stroke="midnightblue" points="967.293,-67.4072 957.039,-70.072 966.717,-74.3834 967.293,-67.4072"/>
</g>
<!-- Node26&#45;&gt;Node7 -->
<g id="edge44" class="edge"><title>Node26&#45;&gt;Node7</title>
<path fill="none" stroke="midnightblue" d="M1328.34,-110.492C1329.2,-97.844 1332.24,-72.8486 1343,-55 1350.3,-42.8933 1362,-32.3374 1372.36,-24.5486"/>
<polygon fill="midnightblue" stroke="midnightblue" points="1374.49,-27.3288 1380.61,-18.6836 1370.43,-21.6225 1374.49,-27.3288"/>
</g>
<!-- Node26&#45;&gt;Node14 -->
<g id="edge43" class="edge"><title>Node26&#45;&gt;Node14</title>
<path fill="none" stroke="midnightblue" d="M1336.28,-110.219C1344.11,-102.394 1356.04,-90.4631 1365.61,-80.8921"/>
<polygon fill="midnightblue" stroke="midnightblue" points="1368.35,-83.0955 1372.95,-73.5496 1363.4,-78.1458 1368.35,-83.0955"/>
</g>
<!-- Node27&#45;&gt;Node4 -->
<g id="edge47" class="edge"><title>Node27&#45;&gt;Node4</title>
<path fill="none" stroke="midnightblue" d="M923.878,-168.322C859.488,-158.255 718.018,-136.137 652.526,-125.898"/>
<polygon fill="midnightblue" stroke="midnightblue" points="652.741,-122.389 642.32,-124.302 651.66,-129.305 652.741,-122.389"/>
</g>
<!-- Node27&#45;&gt;Node6 -->
<g id="edge48" class="edge"><title>Node27&#45;&gt;Node6</title>
<path fill="none" stroke="midnightblue" d="M966.478,-165.415C979.751,-153.085 1000.98,-129.009 989,-110 978.856,-93.9005 961.098,-83.4982 943.8,-76.8378"/>
<polygon fill="midnightblue" stroke="midnightblue" points="944.884,-73.5088 934.289,-73.51 942.572,-80.1161 944.884,-73.5088"/>
</g>
<!-- Node28&#45;&gt;Node4 -->
<g id="edge56" class="edge"><title>Node28&#45;&gt;Node4</title>
<path fill="none" stroke="midnightblue" d="M507.091,-220.359C491.809,-207.956 467.35,-183.786 481,-165 504.245,-133.009 551.043,-123.561 583.429,-121.012"/>
<polygon fill="midnightblue" stroke="midnightblue" points="584.032,-124.482 593.805,-120.389 583.613,-117.495 584.032,-124.482"/>
</g>
<!-- Node28&#45;&gt;Node6 -->
<g id="edge59" class="edge"><title>Node28&#45;&gt;Node6</title>
<path fill="none" stroke="midnightblue" d="M505.303,-220.457C488.195,-208.573 461.271,-185.513 474,-165 503.03,-118.218 532.419,-126.327 585,-110 665.1,-85.1274 761.184,-74.0795 825.149,-69.2222"/>
<polygon fill="midnightblue" stroke="midnightblue" points="825.413,-72.7123 835.132,-68.4946 824.904,-65.7309 825.413,-72.7123"/>
</g>
<!-- Node28&#45;&gt;Node9 -->
<g id="edge58" class="edge"><title>Node28&#45;&gt;Node9</title>
<path fill="none" stroke="midnightblue" d="M521.438,-220.219C524.458,-212.942 528.953,-202.113 532.763,-192.934"/>
<polygon fill="midnightblue" stroke="midnightblue" points="536.057,-194.127 536.659,-183.55 529.592,-191.444 536.057,-194.127"/>
</g>
<!-- Node28&#45;&gt;Node21 -->
<g id="edge57" class="edge"><title>Node28&#45;&gt;Node21</title>
<path fill="none" stroke="midnightblue" d="M552.497,-220.85C594.167,-211.609 664.428,-196.029 710.762,-185.754"/>
<polygon fill="midnightblue" stroke="midnightblue" points="711.549,-189.164 720.554,-183.582 710.033,-182.33 711.549,-189.164"/>
</g>
<!-- Node29&#45;&gt;Node6 -->
<g id="edge61" class="edge"><title>Node29&#45;&gt;Node6</title>
<path fill="none" stroke="midnightblue" d="M211.177,-330.149C203.233,-292.772 173.434,-141.306 205,-110 248.318,-67.0397 657.436,-64.2302 824.98,-64.9082"/>
<polygon fill="midnightblue" stroke="midnightblue" points="825.165,-68.409 835.181,-64.955 825.197,-61.4091 825.165,-68.409"/>
</g>
<!-- Node30&#45;&gt;Node6 -->
<g id="edge64" class="edge"><title>Node30&#45;&gt;Node6</title>
<path fill="none" stroke="midnightblue" d="M1148.43,-220.296C1151.72,-207.38 1156.04,-182.023 1145,-165 1106.52,-105.642 1025.99,-81.6938 966.884,-72.0324"/>
<polygon fill="midnightblue" stroke="midnightblue" points="967.269,-68.5507 956.854,-70.495 966.208,-75.4699 967.269,-68.5507"/>
</g>
<!-- Node30&#45;&gt;Node24 -->
<g id="edge63" class="edge"><title>Node30&#45;&gt;Node24</title>
<path fill="none" stroke="midnightblue" d="M1140.38,-220.219C1135.27,-212.707 1127.6,-201.411 1121.24,-192.052"/>
<polygon fill="midnightblue" stroke="midnightblue" points="1123.98,-189.855 1115.47,-183.55 1118.19,-193.788 1123.98,-189.855"/>
</g>
<!-- Node34&#45;&gt;Node4 -->
<g id="edge76" class="edge"><title>Node34&#45;&gt;Node4</title>
<path fill="none" stroke="midnightblue" d="M1418.01,-169.671C1279.81,-162.583 978.148,-146.532 724,-129 700.16,-127.355 673.329,-125.201 652.627,-123.473"/>
<polygon fill="midnightblue" stroke="midnightblue" points="652.666,-119.964 642.407,-122.613 652.079,-126.939 652.666,-119.964"/>
</g>
<!-- Node34&#45;&gt;Node7 -->
<g id="edge75" class="edge"><title>Node34&#45;&gt;Node7</title>
<path fill="none" stroke="midnightblue" d="M1488.9,-165.193C1473.25,-139.684 1425.67,-62.1258 1404.43,-27.5036"/>
<polygon fill="midnightblue" stroke="midnightblue" points="1407.18,-25.2906 1398.97,-18.5971 1401.21,-28.9512 1407.18,-25.2906"/>
</g>
<!-- Node35&#45;&gt;Node3 -->
<g id="edge78" class="edge"><title>Node35&#45;&gt;Node3</title>
<path fill="none" stroke="midnightblue" d="M682,-495.219C682,-488.177 682,-477.808 682,-468.828"/>
<polygon fill="midnightblue" stroke="midnightblue" points="685.5,-468.55 682,-458.55 678.5,-468.55 685.5,-468.55"/>
</g>
<!-- Node36&#45;&gt;Node2 -->
<g id="edge80" class="edge"><title>Node36&#45;&gt;Node2</title>
<path fill="none" stroke="midnightblue" d="M921.281,-605.219C915.06,-597.551 905.639,-585.939 897.956,-576.469"/>
<polygon fill="midnightblue" stroke="midnightblue" points="900.549,-574.11 891.531,-568.55 895.113,-578.52 900.549,-574.11"/>
</g>
</g>
</svg>
