<?xml version="1.0" encoding="UTF-8" standalone="no"?>
<!DOCTYPE svg PUBLIC "-//W3C//DTD SVG 1.1//EN"
 "http://www.w3.org/Graphics/SVG/1.1/DTD/svg11.dtd">
<!-- Generated by graphviz version 2.38.0 (20140413.2041)
 -->
<!-- Title: libraries/AP_RangeFinder/AP_RangeFinder_analog.h Pages: 1 -->
<svg width="306pt" height="102pt"
 viewBox="0.00 0.00 306.24 102.00" xmlns="http://www.w3.org/2000/svg" xmlns:xlink="http://www.w3.org/1999/xlink">
<g id="graph0" class="graph" transform="scale(1 1) rotate(0) translate(4 98)">
<title>libraries/AP_RangeFinder/AP_RangeFinder_analog.h</title>
<polygon fill="white" stroke="none" points="-4,4 -4,-98 302.243,-98 302.243,4 -4,4"/>
<!-- Node1 -->
<g id="node1" class="node"><title>Node1</title>
<polygon fill="#bfbfbf" stroke="black" points="84.2808,-65.5 84.2808,-93.5 223.704,-93.5 223.704,-65.5 84.2808,-65.5"/>
<text text-anchor="start" x="92.2808" y="-81.5" font-family="Helvetica,sans-Serif" font-size="10.00">libraries/AP_RangeFinder</text>
<text text-anchor="middle" x="153.992" y="-71.5" font-family="Helvetica,sans-Serif" font-size="10.00">/AP_RangeFinder_analog.h</text>
</g>
<!-- Node2 -->
<g id="node2" class="node"><title>Node2</title>
<g id="a_node2"><a xlink:href="$AP__RangeFinder__analog_8cpp.html" xlink:title="libraries/AP_RangeFinder\l/AP_RangeFinder_analog.cpp">
<polygon fill="white" stroke="black" points="0,-0.5 0,-28.5 149.984,-28.5 149.984,-0.5 0,-0.5"/>
<text text-anchor="start" x="8" y="-16.5" font-family="Helvetica,sans-Serif" font-size="10.00">libraries/AP_RangeFinder</text>
<text text-anchor="middle" x="74.9922" y="-6.5" font-family="Helvetica,sans-Serif" font-size="10.00">/AP_RangeFinder_analog.cpp</text>
</a>
</g>
</g>
<!-- Node1&#45;&gt;Node2 -->
<g id="edge1" class="edge"><title>Node1&#45;&gt;Node2</title>
<path fill="none" stroke="midnightblue" d="M129.479,-58.9513C117.073,-49.0581 102.352,-37.3182 91.3401,-28.5369"/>
<polygon fill="midnightblue" stroke="midnightblue" points="127.623,-61.9479 137.623,-65.4464 131.987,-56.475 127.623,-61.9479"/>
</g>
<!-- Node3 -->
<g id="node3" class="node"><title>Node3</title>
<g id="a_node3"><a xlink:href="$RangeFinder_8cpp.html" xlink:title="libraries/AP_RangeFinder\l/RangeFinder.cpp">
<polygon fill="white" stroke="black" points="167.741,-0.5 167.741,-28.5 298.243,-28.5 298.243,-0.5 167.741,-0.5"/>
<text text-anchor="start" x="175.741" y="-16.5" font-family="Helvetica,sans-Serif" font-size="10.00">libraries/AP_RangeFinder</text>
<text text-anchor="middle" x="232.992" y="-6.5" font-family="Helvetica,sans-Serif" font-size="10.00">/RangeFinder.cpp</text>
</a>
</g>
</g>
<!-- Node1&#45;&gt;Node3 -->
<g id="edge2" class="edge"><title>Node1&#45;&gt;Node3</title>
<path fill="none" stroke="midnightblue" d="M178.506,-58.9513C190.911,-49.0581 205.633,-37.3182 216.644,-28.5369"/>
<polygon fill="midnightblue" stroke="midnightblue" points="175.997,-56.475 170.361,-65.4464 180.362,-61.9479 175.997,-56.475"/>
</g>
</g>
</svg>
