<?xml version="1.0" encoding="UTF-8" standalone="no"?>
<!DOCTYPE svg PUBLIC "-//W3C//DTD SVG 1.1//EN"
 "http://www.w3.org/Graphics/SVG/1.1/DTD/svg11.dtd">
<!-- Generated by graphviz version 2.38.0 (20140413.2041)
 -->
<!-- Title: libraries/AP_HAL_Linux/Semaphores.cpp Pages: 1 -->
<svg width="1267pt" height="697pt"
 viewBox="0.00 0.00 1267.00 697.00" xmlns="http://www.w3.org/2000/svg" xmlns:xlink="http://www.w3.org/1999/xlink">
<g id="graph0" class="graph" transform="scale(1 1) rotate(0) translate(4 693)">
<title>libraries/AP_HAL_Linux/Semaphores.cpp</title>
<polygon fill="white" stroke="none" points="-4,4 -4,-693 1263,-693 1263,4 -4,4"/>
<!-- Node1 -->
<g id="node1" class="node"><title>Node1</title>
<polygon fill="#bfbfbf" stroke="black" points="561.195,-660.5 561.195,-688.5 682.805,-688.5 682.805,-660.5 561.195,-660.5"/>
<text text-anchor="start" x="569.195" y="-676.5" font-family="Helvetica,sans-Serif" font-size="10.00">libraries/AP_HAL_Linux</text>
<text text-anchor="middle" x="622" y="-666.5" font-family="Helvetica,sans-Serif" font-size="10.00">/Semaphores.cpp</text>
</g>
<!-- Node2 -->
<g id="node2" class="node"><title>Node2</title>
<g id="a_node2"><a xlink:href="$AP__HAL_8h.html" xlink:title="AP_HAL/AP_HAL.h">
<polygon fill="white" stroke="black" points="499.086,-440.5 499.086,-458.5 602.914,-458.5 602.914,-440.5 499.086,-440.5"/>
<text text-anchor="middle" x="551" y="-446.5" font-family="Helvetica,sans-Serif" font-size="10.00">AP_HAL/AP_HAL.h</text>
</a>
</g>
</g>
<!-- Node1&#45;&gt;Node2 -->
<g id="edge1" class="edge"><title>Node1&#45;&gt;Node2</title>
<path fill="none" stroke="midnightblue" d="M617.771,-660.218C605.633,-622.093 570.663,-512.258 556.78,-468.654"/>
<polygon fill="midnightblue" stroke="midnightblue" points="560.032,-467.331 553.663,-458.864 553.362,-469.455 560.032,-467.331"/>
</g>
<!-- Node30 -->
<g id="node30" class="node"><title>Node30</title>
<g id="a_node30"><a xlink:href="$Linux_2Semaphores_8h.html" xlink:title="Semaphores.h">
<polygon fill="white" stroke="black" points="652.48,-605.5 652.48,-623.5 733.52,-623.5 733.52,-605.5 652.48,-605.5"/>
<text text-anchor="middle" x="693" y="-611.5" font-family="Helvetica,sans-Serif" font-size="10.00">Semaphores.h</text>
</a>
</g>
</g>
<!-- Node1&#45;&gt;Node30 -->
<g id="edge68" class="edge"><title>Node1&#45;&gt;Node30</title>
<path fill="none" stroke="midnightblue" d="M638.111,-660.339C649.066,-651.39 663.574,-639.538 674.923,-630.267"/>
<polygon fill="midnightblue" stroke="midnightblue" points="677.344,-632.808 682.875,-623.771 672.916,-627.387 677.344,-632.808"/>
</g>
<!-- Node3 -->
<g id="node3" class="node"><title>Node3</title>
<polygon fill="white" stroke="#bfbfbf" points="772.879,-110.5 772.879,-128.5 821.121,-128.5 821.121,-110.5 772.879,-110.5"/>
<text text-anchor="middle" x="797" y="-116.5" font-family="Helvetica,sans-Serif" font-size="10.00">stdint.h</text>
</g>
<!-- Node2&#45;&gt;Node3 -->
<g id="edge2" class="edge"><title>Node2&#45;&gt;Node3</title>
<path fill="none" stroke="midnightblue" d="M562.136,-440.254C573.281,-431.754 590.646,-417.828 604,-404 687.805,-317.219 701.104,-287.553 763,-184 772.113,-168.755 781.579,-150.88 788.202,-137.986"/>
<polygon fill="midnightblue" stroke="midnightblue" points="791.431,-139.358 792.843,-128.858 785.191,-136.186 791.431,-139.358"/>
</g>
<!-- Node4 -->
<g id="node4" class="node"><title>Node4</title>
<polygon fill="white" stroke="#bfbfbf" points="544.707,-110.5 544.707,-128.5 601.293,-128.5 601.293,-110.5 544.707,-110.5"/>
<text text-anchor="middle" x="573" y="-116.5" font-family="Helvetica,sans-Serif" font-size="10.00">stdbool.h</text>
</g>
<!-- Node2&#45;&gt;Node4 -->
<g id="edge3" class="edge"><title>Node2&#45;&gt;Node4</title>
<path fill="none" stroke="midnightblue" d="M546.299,-440.459C529.525,-410.706 475.028,-304.234 502,-220 512.775,-186.35 539.568,-154.382 556.985,-136.142"/>
<polygon fill="midnightblue" stroke="midnightblue" points="559.718,-138.354 564.236,-128.771 554.728,-133.445 559.718,-138.354"/>
</g>
<!-- Node5 -->
<g id="node5" class="node"><title>Node5</title>
<g id="a_node5"><a xlink:href="$AP__HAL__Namespace_8h.html" xlink:title="AP_HAL_Namespace.h">
<polygon fill="white" stroke="black" points="344.192,-55.5 344.192,-73.5 465.808,-73.5 465.808,-55.5 344.192,-55.5"/>
<text text-anchor="middle" x="405" y="-61.5" font-family="Helvetica,sans-Serif" font-size="10.00">AP_HAL_Namespace.h</text>
</a>
</g>
</g>
<!-- Node2&#45;&gt;Node5 -->
<g id="edge4" class="edge"><title>Node2&#45;&gt;Node5</title>
<path fill="none" stroke="midnightblue" d="M603.006,-440.904C605.708,-440.581 608.384,-440.277 611,-440 724.425,-427.993 1014.82,-440.157 1123,-404 1172.22,-387.548 1221,-392.4 1221,-340.5 1221,-340.5 1221,-340.5 1221,-173.5 1221,-124.546 1177.19,-126.225 1131,-110 1011.65,-68.0726 634.44,-64.5157 476.084,-64.9505"/>
<polygon fill="midnightblue" stroke="midnightblue" points="475.963,-61.4508 465.975,-64.9845 475.987,-68.4507 475.963,-61.4508"/>
</g>
<!-- Node8 -->
<g id="node8" class="node"><title>Node8</title>
<g id="a_node8"><a xlink:href="$AP__HAL__Boards_8h.html" xlink:title="AP_HAL_Boards.h">
<polygon fill="white" stroke="black" points="917.03,-330.5 917.03,-348.5 1016.97,-348.5 1016.97,-330.5 917.03,-330.5"/>
<text text-anchor="middle" x="967" y="-336.5" font-family="Helvetica,sans-Serif" font-size="10.00">AP_HAL_Boards.h</text>
</a>
</g>
</g>
<!-- Node2&#45;&gt;Node8 -->
<g id="edge7" class="edge"><title>Node2&#45;&gt;Node8</title>
<path fill="none" stroke="midnightblue" d="M603.203,-441.102C692.49,-428.448 865,-404 865,-404 897.13,-392.315 929.928,-369.564 949.369,-354.706"/>
<polygon fill="midnightblue" stroke="midnightblue" points="951.584,-357.417 957.311,-348.503 947.275,-351.9 951.584,-357.417"/>
</g>
<!-- Node9 -->
<g id="node9" class="node"><title>Node9</title>
<g id="a_node9"><a xlink:href="$AP__HAL__Macros_8h.html" xlink:title="AP_HAL_Macros.h">
<polygon fill="white" stroke="black" points="104.48,-385.5 104.48,-403.5 205.52,-403.5 205.52,-385.5 104.48,-385.5"/>
<text text-anchor="middle" x="155" y="-391.5" font-family="Helvetica,sans-Serif" font-size="10.00">AP_HAL_Macros.h</text>
</a>
</g>
</g>
<!-- Node2&#45;&gt;Node9 -->
<g id="edge8" class="edge"><title>Node2&#45;&gt;Node9</title>
<path fill="none" stroke="midnightblue" d="M498.823,-441.517C425.76,-431.738 293.254,-414.004 215.813,-403.639"/>
<polygon fill="midnightblue" stroke="midnightblue" points="216.102,-400.147 205.726,-402.289 215.173,-407.085 216.102,-400.147"/>
</g>
<!-- Node10 -->
<g id="node10" class="node"><title>Node10</title>
<g id="a_node10"><a xlink:href="$AP__HAL__Main_8h.html" xlink:title="AP_HAL_Main.h">
<polygon fill="white" stroke="black" points="338.035,-385.5 338.035,-403.5 427.965,-403.5 427.965,-385.5 338.035,-385.5"/>
<text text-anchor="middle" x="383" y="-391.5" font-family="Helvetica,sans-Serif" font-size="10.00">AP_HAL_Main.h</text>
</a>
</g>
</g>
<!-- Node2&#45;&gt;Node10 -->
<g id="edge9" class="edge"><title>Node2&#45;&gt;Node10</title>
<path fill="none" stroke="midnightblue" d="M525.484,-440.45C496.909,-431.436 450.407,-416.765 418.342,-406.65"/>
<polygon fill="midnightblue" stroke="midnightblue" points="419.07,-403.209 408.48,-403.538 416.964,-409.885 419.07,-403.209"/>
</g>
<!-- Node11 -->
<g id="node11" class="node"><title>Node11</title>
<g id="a_node11"><a xlink:href="$HAL_8h.html" xlink:title="HAL.h">
<polygon fill="white" stroke="black" points="373.104,-330.5 373.104,-348.5 416.896,-348.5 416.896,-330.5 373.104,-330.5"/>
<text text-anchor="middle" x="395" y="-336.5" font-family="Helvetica,sans-Serif" font-size="10.00">HAL.h</text>
</a>
</g>
</g>
<!-- Node2&#45;&gt;Node11 -->
<g id="edge67" class="edge"><title>Node2&#45;&gt;Node11</title>
<path fill="none" stroke="midnightblue" d="M537.442,-440.455C522.996,-431.779 499.561,-417.403 480,-404 456.45,-387.863 430.261,-367.991 413.259,-354.821"/>
<polygon fill="midnightblue" stroke="midnightblue" points="415.309,-351.981 405.269,-348.6 411.009,-357.505 415.309,-351.981"/>
</g>
<!-- Node12 -->
<g id="node12" class="node"><title>Node12</title>
<g id="a_node12"><a xlink:href="$AnalogIn_8h.html" xlink:title="AnalogIn.h">
<polygon fill="white" stroke="black" points="237.091,-220.5 237.091,-238.5 300.909,-238.5 300.909,-220.5 237.091,-220.5"/>
<text text-anchor="middle" x="269" y="-226.5" font-family="Helvetica,sans-Serif" font-size="10.00">AnalogIn.h</text>
</a>
</g>
</g>
<!-- Node2&#45;&gt;Node12 -->
<g id="edge49" class="edge"><title>Node2&#45;&gt;Node12</title>
<path fill="none" stroke="midnightblue" d="M498.839,-444.986C437.889,-439.819 342.039,-428.057 316,-404 271.517,-362.903 267.467,-284.412 268.111,-248.837"/>
<polygon fill="midnightblue" stroke="midnightblue" points="271.619,-248.646 268.457,-238.534 264.623,-248.41 271.619,-248.646"/>
</g>
<!-- Node14 -->
<g id="node14" class="node"><title>Node14</title>
<g id="a_node14"><a xlink:href="$GPIO_8h.html" xlink:title="GPIO.h">
<polygon fill="white" stroke="black" points="865.328,-220.5 865.328,-238.5 914.672,-238.5 914.672,-220.5 865.328,-220.5"/>
<text text-anchor="middle" x="890" y="-226.5" font-family="Helvetica,sans-Serif" font-size="10.00">GPIO.h</text>
</a>
</g>
</g>
<!-- Node2&#45;&gt;Node14 -->
<g id="edge51" class="edge"><title>Node2&#45;&gt;Node14</title>
<path fill="none" stroke="midnightblue" d="M603.027,-441.076C605.723,-440.708 608.393,-440.348 611,-440 704.585,-427.523 974.176,-427.919 1026,-349 1057.59,-300.9 973.762,-260.799 923.931,-241.995"/>
<polygon fill="midnightblue" stroke="midnightblue" points="925.056,-238.679 914.463,-238.522 922.646,-245.251 925.056,-238.679"/>
</g>
<!-- Node15 -->
<g id="node15" class="node"><title>Node15</title>
<g id="a_node15"><a xlink:href="$RCInput_8h.html" xlink:title="RCInput.h">
<polygon fill="white" stroke="black" points="33.4878,-275.5 33.4878,-293.5 94.5122,-293.5 94.5122,-275.5 33.4878,-275.5"/>
<text text-anchor="middle" x="64" y="-281.5" font-family="Helvetica,sans-Serif" font-size="10.00">RCInput.h</text>
</a>
</g>
</g>
<!-- Node2&#45;&gt;Node15 -->
<g id="edge52" class="edge"><title>Node2&#45;&gt;Node15</title>
<path fill="none" stroke="midnightblue" d="M498.756,-447.078C383.014,-443.431 112.841,-431.985 83,-404 55.5952,-378.3 57.3698,-330.013 60.8143,-303.709"/>
<polygon fill="midnightblue" stroke="midnightblue" points="64.3051,-304.035 62.364,-293.62 57.3863,-302.972 64.3051,-304.035"/>
</g>
<!-- Node16 -->
<g id="node16" class="node"><title>Node16</title>
<g id="a_node16"><a xlink:href="$RCOutput_8h.html" xlink:title="RCOutput.h">
<polygon fill="white" stroke="black" points="112.599,-275.5 112.599,-293.5 181.401,-293.5 181.401,-275.5 112.599,-275.5"/>
<text text-anchor="middle" x="147" y="-281.5" font-family="Helvetica,sans-Serif" font-size="10.00">RCOutput.h</text>
</a>
</g>
</g>
<!-- Node2&#45;&gt;Node16 -->
<g id="edge53" class="edge"><title>Node2&#45;&gt;Node16</title>
<path fill="none" stroke="midnightblue" d="M498.922,-447.272C385.011,-444.048 121.722,-433.457 95,-404 67.0771,-373.22 106.658,-325.05 130.767,-300.693"/>
<polygon fill="midnightblue" stroke="midnightblue" points="133.243,-303.167 137.947,-293.674 128.349,-298.162 133.243,-303.167"/>
</g>
<!-- Node17 -->
<g id="node17" class="node"><title>Node17</title>
<g id="a_node17"><a xlink:href="$SPIDriver_8h.html" xlink:title="SPIDriver.h">
<polygon fill="white" stroke="black" points="312.712,-275.5 312.712,-293.5 379.288,-293.5 379.288,-275.5 312.712,-275.5"/>
<text text-anchor="middle" x="346" y="-281.5" font-family="Helvetica,sans-Serif" font-size="10.00">SPIDriver.h</text>
</a>
</g>
</g>
<!-- Node2&#45;&gt;Node17 -->
<g id="edge48" class="edge"><title>Node2&#45;&gt;Node17</title>
<path fill="none" stroke="midnightblue" d="M499.063,-445.497C440.325,-440.889 350.084,-429.73 329,-404 305.15,-374.894 323.539,-327.685 336.35,-302.538"/>
<polygon fill="midnightblue" stroke="midnightblue" points="339.553,-303.971 341.202,-293.506 333.386,-300.659 339.553,-303.971"/>
</g>
<!-- Node18 -->
<g id="node18" class="node"><title>Node18</title>
<g id="a_node18"><a xlink:href="$Storage_8h.html" xlink:title="Storage.h">
<polygon fill="white" stroke="black" points="395.318,-220.5 395.318,-238.5 454.682,-238.5 454.682,-220.5 395.318,-220.5"/>
<text text-anchor="middle" x="425" y="-226.5" font-family="Helvetica,sans-Serif" font-size="10.00">Storage.h</text>
</a>
</g>
</g>
<!-- Node2&#45;&gt;Node18 -->
<g id="edge50" class="edge"><title>Node2&#45;&gt;Node18</title>
<path fill="none" stroke="midnightblue" d="M544.294,-440.229C537.342,-431.484 526.343,-417.159 518,-404 483.144,-349.024 448.673,-279.811 433.31,-247.979"/>
<polygon fill="midnightblue" stroke="midnightblue" points="436.337,-246.197 428.859,-238.691 430.025,-249.222 436.337,-246.197"/>
</g>
<!-- Node19 -->
<g id="node19" class="node"><title>Node19</title>
<g id="a_node19"><a xlink:href="$UARTDriver_8h.html" xlink:title="UARTDriver.h">
<polygon fill="white" stroke="black" points="603.248,-275.5 603.248,-293.5 680.752,-293.5 680.752,-275.5 603.248,-275.5"/>
<text text-anchor="middle" x="642" y="-281.5" font-family="Helvetica,sans-Serif" font-size="10.00">UARTDriver.h</text>
</a>
</g>
</g>
<!-- Node2&#45;&gt;Node19 -->
<g id="edge44" class="edge"><title>Node2&#45;&gt;Node19</title>
<path fill="none" stroke="midnightblue" d="M557.804,-440.291C564.837,-431.595 575.901,-417.311 584,-404 604.96,-369.554 624.52,-326.447 634.694,-302.879"/>
<polygon fill="midnightblue" stroke="midnightblue" points="637.979,-304.098 638.679,-293.527 631.539,-301.354 637.979,-304.098"/>
</g>
<!-- Node22 -->
<g id="node22" class="node"><title>Node22</title>
<g id="a_node22"><a xlink:href="$BetterStream_8h.html" xlink:title="utility/BetterStream.h">
<polygon fill="white" stroke="black" points="510.594,-220.5 510.594,-238.5 619.406,-238.5 619.406,-220.5 510.594,-220.5"/>
<text text-anchor="middle" x="565" y="-226.5" font-family="Helvetica,sans-Serif" font-size="10.00">utility/BetterStream.h</text>
</a>
</g>
</g>
<!-- Node2&#45;&gt;Node22 -->
<g id="edge66" class="edge"><title>Node2&#45;&gt;Node22</title>
<path fill="none" stroke="midnightblue" d="M551.515,-440.483C553.53,-409.107 560.912,-294.159 563.816,-248.944"/>
<polygon fill="midnightblue" stroke="midnightblue" points="567.317,-249.027 564.465,-238.823 560.332,-248.578 567.317,-249.027"/>
</g>
<!-- Node24 -->
<g id="node24" class="node"><title>Node24</title>
<g id="a_node24"><a xlink:href="$Stream_8h.html" xlink:title="Stream.h">
<polygon fill="white" stroke="black" points="203.714,-165.5 203.714,-183.5 260.286,-183.5 260.286,-165.5 203.714,-165.5"/>
<text text-anchor="middle" x="232" y="-171.5" font-family="Helvetica,sans-Serif" font-size="10.00">Stream.h</text>
</a>
</g>
</g>
<!-- Node2&#45;&gt;Node24 -->
<g id="edge65" class="edge"><title>Node2&#45;&gt;Node24</title>
<path fill="none" stroke="midnightblue" d="M498.88,-445.211C433.836,-440.132 327.43,-428.311 297,-404 234.898,-354.386 243.639,-316.934 228,-239 224.974,-223.922 226.422,-206.464 228.373,-193.674"/>
<polygon fill="midnightblue" stroke="midnightblue" points="231.822,-194.269 230.117,-183.812 224.929,-193.05 231.822,-194.269"/>
</g>
<!-- Node25 -->
<g id="node25" class="node"><title>Node25</title>
<g id="a_node25"><a xlink:href="$Print_8h.html" xlink:title="Print.h">
<polygon fill="white" stroke="black" points="72.5493,-110.5 72.5493,-128.5 117.451,-128.5 117.451,-110.5 72.5493,-110.5"/>
<text text-anchor="middle" x="95" y="-116.5" font-family="Helvetica,sans-Serif" font-size="10.00">Print.h</text>
</a>
</g>
</g>
<!-- Node2&#45;&gt;Node25 -->
<g id="edge64" class="edge"><title>Node2&#45;&gt;Node25</title>
<path fill="none" stroke="midnightblue" d="M498.906,-448.036C389.999,-446.372 142.035,-438.76 66,-404 28.9797,-387.076 0,-381.206 0,-340.5 0,-340.5 0,-340.5 0,-228.5 0,-185.648 42.6861,-151.718 70.8317,-134.003"/>
<polygon fill="midnightblue" stroke="midnightblue" points="72.9843,-136.792 79.7366,-128.627 69.3667,-130.799 72.9843,-136.792"/>
</g>
<!-- Node26 -->
<g id="node26" class="node"><title>Node26</title>
<g id="a_node26"><a xlink:href="$I2CDriver_8h.html" xlink:title="I2CDriver.h">
<polygon fill="white" stroke="black" points="900.99,-165.5 900.99,-183.5 967.01,-183.5 967.01,-165.5 900.99,-165.5"/>
<text text-anchor="middle" x="934" y="-171.5" font-family="Helvetica,sans-Serif" font-size="10.00">I2CDriver.h</text>
</a>
</g>
</g>
<!-- Node2&#45;&gt;Node26 -->
<g id="edge45" class="edge"><title>Node2&#45;&gt;Node26</title>
<path fill="none" stroke="midnightblue" d="M603.098,-440.836C683.046,-428.994 827.324,-407.265 832,-404 904.585,-353.311 926.245,-238.524 932.06,-193.811"/>
<polygon fill="midnightblue" stroke="midnightblue" points="935.569,-193.94 933.265,-183.599 928.617,-193.12 935.569,-193.94"/>
</g>
<!-- Node27 -->
<g id="node27" class="node"><title>Node27</title>
<g id="a_node27"><a xlink:href="$Scheduler_8h.html" xlink:title="Scheduler.h">
<polygon fill="white" stroke="black" points="754.589,-385.5 754.589,-403.5 823.411,-403.5 823.411,-385.5 754.589,-385.5"/>
<text text-anchor="middle" x="789" y="-391.5" font-family="Helvetica,sans-Serif" font-size="10.00">Scheduler.h</text>
</a>
</g>
</g>
<!-- Node2&#45;&gt;Node27 -->
<g id="edge54" class="edge"><title>Node2&#45;&gt;Node27</title>
<path fill="none" stroke="midnightblue" d="M587.147,-440.45C629.34,-431.055 699.119,-415.516 744.576,-405.393"/>
<polygon fill="midnightblue" stroke="midnightblue" points="745.45,-408.784 754.45,-403.194 743.929,-401.951 745.45,-408.784"/>
</g>
<!-- Node28 -->
<g id="node28" class="node"><title>Node28</title>
<g id="a_node28"><a xlink:href="$Semaphores_8h.html" xlink:title="Semaphores.h">
<polygon fill="white" stroke="black" points="1111.48,-330.5 1111.48,-348.5 1192.52,-348.5 1192.52,-330.5 1111.48,-330.5"/>
<text text-anchor="middle" x="1152" y="-336.5" font-family="Helvetica,sans-Serif" font-size="10.00">Semaphores.h</text>
</a>
</g>
</g>
<!-- Node2&#45;&gt;Node28 -->
<g id="edge59" class="edge"><title>Node2&#45;&gt;Node28</title>
<path fill="none" stroke="midnightblue" d="M603.007,-440.916C605.708,-440.59 608.385,-440.282 611,-440 718.673,-428.398 1000.23,-452.608 1097,-404 1117.31,-393.797 1133.28,-372.48 1142.66,-357.364"/>
<polygon fill="midnightblue" stroke="midnightblue" points="1145.82,-358.902 1147.86,-348.506 1139.78,-355.362 1145.82,-358.902"/>
</g>
<!-- Node29 -->
<g id="node29" class="node"><title>Node29</title>
<g id="a_node29"><a xlink:href="$Util_8h.html" xlink:title="Util.h">
<polygon fill="white" stroke="black" points="1067.61,-220.5 1067.61,-238.5 1106.39,-238.5 1106.39,-220.5 1067.61,-220.5"/>
<text text-anchor="middle" x="1087" y="-226.5" font-family="Helvetica,sans-Serif" font-size="10.00">Util.h</text>
</a>
</g>
</g>
<!-- Node2&#45;&gt;Node29 -->
<g id="edge61" class="edge"><title>Node2&#45;&gt;Node29</title>
<path fill="none" stroke="midnightblue" d="M603.018,-441.005C605.716,-440.656 608.389,-440.318 611,-440 767.105,-420.967 815.231,-457.808 963,-404 1003.89,-389.111 1017.28,-383.344 1044,-349 1067.78,-318.431 1079.23,-273.496 1084.04,-248.666"/>
<polygon fill="midnightblue" stroke="midnightblue" points="1087.54,-248.977 1085.84,-238.519 1080.64,-247.752 1087.54,-248.977"/>
</g>
<!-- Node6 -->
<g id="node6" class="node"><title>Node6</title>
<polygon fill="white" stroke="#bfbfbf" points="247.604,-0.5 247.604,-18.5 296.396,-18.5 296.396,-0.5 247.604,-0.5"/>
<text text-anchor="middle" x="272" y="-6.5" font-family="Helvetica,sans-Serif" font-size="10.00">string.h</text>
</g>
<!-- Node5&#45;&gt;Node6 -->
<g id="edge5" class="edge"><title>Node5&#45;&gt;Node6</title>
<path fill="none" stroke="midnightblue" d="M384.8,-55.4504C362.732,-46.6562 327.158,-32.4802 301.864,-22.4006"/>
<polygon fill="midnightblue" stroke="midnightblue" points="302.975,-19.0759 292.39,-18.6253 300.384,-25.5786 302.975,-19.0759"/>
</g>
<!-- Node7 -->
<g id="node7" class="node"><title>Node7</title>
<g id="a_node7"><a xlink:href="$functor_8h.html" xlink:title="utility/functor.h">
<polygon fill="white" stroke="black" points="365.037,-0.5 365.037,-18.5 444.963,-18.5 444.963,-0.5 365.037,-0.5"/>
<text text-anchor="middle" x="405" y="-6.5" font-family="Helvetica,sans-Serif" font-size="10.00">utility/functor.h</text>
</a>
</g>
</g>
<!-- Node5&#45;&gt;Node7 -->
<g id="edge6" class="edge"><title>Node5&#45;&gt;Node7</title>
<path fill="none" stroke="midnightblue" d="M405,-55.2188C405,-48.1769 405,-37.8083 405,-28.8277"/>
<polygon fill="midnightblue" stroke="midnightblue" points="408.5,-28.5495 405,-18.5496 401.5,-28.5496 408.5,-28.5495"/>
</g>
<!-- Node10&#45;&gt;Node11 -->
<g id="edge10" class="edge"><title>Node10&#45;&gt;Node11</title>
<path fill="none" stroke="midnightblue" d="M384.875,-385.219C386.487,-378.099 388.869,-367.577 390.918,-358.529"/>
<polygon fill="midnightblue" stroke="midnightblue" points="394.383,-359.076 393.177,-348.55 387.556,-357.53 394.383,-359.076"/>
</g>
<!-- Node11&#45;&gt;Node5 -->
<g id="edge11" class="edge"><title>Node11&#45;&gt;Node5</title>
<path fill="none" stroke="midnightblue" d="M394.001,-330.262C391.994,-313.244 387.533,-272.961 386,-239 383.433,-182.115 394.873,-115.253 401.139,-83.7148"/>
<polygon fill="midnightblue" stroke="midnightblue" points="404.596,-84.277 403.178,-73.7775 397.739,-82.8699 404.596,-84.277"/>
</g>
<!-- Node11&#45;&gt;Node12 -->
<g id="edge12" class="edge"><title>Node11&#45;&gt;Node12</title>
<path fill="none" stroke="midnightblue" d="M372.901,-331.963C352.937,-325.146 323.741,-312.798 304,-294 290.488,-281.134 280.89,-261.88 275.203,-247.948"/>
<polygon fill="midnightblue" stroke="midnightblue" points="278.445,-246.626 271.616,-238.525 271.903,-249.116 278.445,-246.626"/>
</g>
<!-- Node11&#45;&gt;Node14 -->
<g id="edge15" class="edge"><title>Node11&#45;&gt;Node14</title>
<path fill="none" stroke="midnightblue" d="M417.059,-336.375C466.421,-331.36 589.357,-317.414 690,-294 750.747,-279.868 819.691,-256.238 858.7,-242.135"/>
<polygon fill="midnightblue" stroke="midnightblue" points="860.216,-245.307 868.414,-238.595 857.82,-238.73 860.216,-245.307"/>
</g>
<!-- Node11&#45;&gt;Node15 -->
<g id="edge18" class="edge"><title>Node11&#45;&gt;Node15</title>
<path fill="none" stroke="midnightblue" d="M373.025,-335.581C325.867,-329.222 211.272,-313.27 104.512,-293.994"/>
<polygon fill="midnightblue" stroke="midnightblue" points="105.004,-290.526 94.539,-292.179 103.751,-297.413 105.004,-290.526"/>
</g>
<!-- Node11&#45;&gt;Node16 -->
<g id="edge20" class="edge"><title>Node11&#45;&gt;Node16</title>
<path fill="none" stroke="midnightblue" d="M372.992,-333.797C332.343,-325.11 244.776,-306.396 191.368,-294.982"/>
<polygon fill="midnightblue" stroke="midnightblue" points="192,-291.538 181.489,-292.871 190.537,-298.383 192,-291.538"/>
</g>
<!-- Node11&#45;&gt;Node17 -->
<g id="edge22" class="edge"><title>Node11&#45;&gt;Node17</title>
<path fill="none" stroke="midnightblue" d="M387.344,-330.219C380.182,-322.473 369.299,-310.701 360.497,-301.18"/>
<polygon fill="midnightblue" stroke="midnightblue" points="362.801,-298.516 353.442,-293.55 357.661,-303.268 362.801,-298.516"/>
</g>
<!-- Node11&#45;&gt;Node18 -->
<g id="edge24" class="edge"><title>Node11&#45;&gt;Node18</title>
<path fill="none" stroke="midnightblue" d="M401.466,-330.197C407.713,-321.654 416.826,-307.694 421,-294 425.487,-279.277 426.275,-261.768 426.061,-248.868"/>
<polygon fill="midnightblue" stroke="midnightblue" points="429.545,-248.386 425.66,-238.53 422.55,-248.658 429.545,-248.386"/>
</g>
<!-- Node11&#45;&gt;Node19 -->
<g id="edge27" class="edge"><title>Node11&#45;&gt;Node19</title>
<path fill="none" stroke="midnightblue" d="M416.92,-333.797C456.628,-325.276 541.29,-307.11 594.713,-295.647"/>
<polygon fill="midnightblue" stroke="midnightblue" points="595.59,-299.038 604.633,-293.518 594.121,-292.194 595.59,-299.038"/>
</g>
<!-- Node12&#45;&gt;Node5 -->
<g id="edge14" class="edge"><title>Node12&#45;&gt;Node5</title>
<path fill="none" stroke="midnightblue" d="M270.114,-220.239C273.336,-199.288 284.463,-143.38 315,-110 328.898,-94.8081 349.132,-84.1614 366.897,-77.0999"/>
<polygon fill="midnightblue" stroke="midnightblue" points="368.306,-80.3099 376.456,-73.5396 365.863,-73.7501 368.306,-80.3099"/>
</g>
<!-- Node13 -->
<g id="node13" class="node"><title>Node13</title>
<polygon fill="white" stroke="#bfbfbf" points="40.5986,-55.5 40.5986,-73.5 99.4014,-73.5 99.4014,-55.5 40.5986,-55.5"/>
<text text-anchor="middle" x="70" y="-61.5" font-family="Helvetica,sans-Serif" font-size="10.00">inttypes.h</text>
</g>
<!-- Node12&#45;&gt;Node13 -->
<g id="edge13" class="edge"><title>Node12&#45;&gt;Node13</title>
<path fill="none" stroke="midnightblue" d="M236.703,-223.586C189.225,-214.435 102.108,-189.856 64,-129 55.4673,-115.374 58.543,-96.7791 62.8043,-83.2342"/>
<polygon fill="midnightblue" stroke="midnightblue" points="66.1626,-84.2397 66.277,-73.6455 59.5809,-81.856 66.1626,-84.2397"/>
</g>
<!-- Node14&#45;&gt;Node3 -->
<g id="edge16" class="edge"><title>Node14&#45;&gt;Node3</title>
<path fill="none" stroke="midnightblue" d="M885.642,-220.158C878.808,-207.492 864.715,-182.985 849,-165 839.227,-153.815 826.6,-142.944 816.237,-134.746"/>
<polygon fill="midnightblue" stroke="midnightblue" points="818.235,-131.867 808.176,-128.54 813.965,-137.414 818.235,-131.867"/>
</g>
<!-- Node14&#45;&gt;Node5 -->
<g id="edge17" class="edge"><title>Node14&#45;&gt;Node5</title>
<path fill="none" stroke="midnightblue" d="M914.742,-221.976C945.879,-212.453 993.321,-192.803 976,-165 923.896,-81.3655 617.321,-67.4624 476.129,-65.5463"/>
<polygon fill="midnightblue" stroke="midnightblue" points="475.887,-62.0433 465.846,-65.424 475.803,-69.0428 475.887,-62.0433"/>
</g>
<!-- Node15&#45;&gt;Node5 -->
<g id="edge19" class="edge"><title>Node15&#45;&gt;Node5</title>
<path fill="none" stroke="midnightblue" d="M68.8233,-275.404C85.8653,-247.545 146.313,-154.89 222,-110 255.786,-89.9613 298.165,-78.9301 333.63,-72.8654"/>
<polygon fill="midnightblue" stroke="midnightblue" points="334.599,-76.2547 343.916,-71.2107 333.487,-69.3435 334.599,-76.2547"/>
</g>
<!-- Node16&#45;&gt;Node5 -->
<g id="edge21" class="edge"><title>Node16&#45;&gt;Node5</title>
<path fill="none" stroke="midnightblue" d="M148.94,-275.423C154.029,-255.359 169.177,-202.196 195,-165 215.63,-135.284 223.52,-127.823 255,-110 283.968,-93.599 319.577,-82.7028 348.829,-75.7996"/>
<polygon fill="midnightblue" stroke="midnightblue" points="349.909,-79.1437 358.89,-73.5219 348.364,-72.3165 349.909,-79.1437"/>
</g>
<!-- Node17&#45;&gt;Node5 -->
<g id="edge23" class="edge"><title>Node17&#45;&gt;Node5</title>
<path fill="none" stroke="midnightblue" d="M344.154,-275.349C338.74,-249.518 324.975,-167.773 353,-110 359.158,-97.3047 370.792,-86.812 381.497,-79.2103"/>
<polygon fill="midnightblue" stroke="midnightblue" points="383.707,-81.9458 390.13,-73.5199 379.854,-76.1013 383.707,-81.9458"/>
</g>
<!-- Node18&#45;&gt;Node3 -->
<g id="edge25" class="edge"><title>Node18&#45;&gt;Node3</title>
<path fill="none" stroke="midnightblue" d="M441.355,-220.341C468.639,-207.025 525.441,-180.551 576,-165 640.626,-145.123 718.671,-131.808 762.593,-125.251"/>
<polygon fill="midnightblue" stroke="midnightblue" points="763.348,-128.678 772.736,-123.766 762.334,-121.751 763.348,-128.678"/>
</g>
<!-- Node18&#45;&gt;Node5 -->
<g id="edge26" class="edge"><title>Node18&#45;&gt;Node5</title>
<path fill="none" stroke="midnightblue" d="M423.981,-220.193C420.891,-195.013 411.578,-119.114 407.253,-83.8621"/>
<polygon fill="midnightblue" stroke="midnightblue" points="410.685,-83.0964 405.994,-73.5971 403.738,-83.949 410.685,-83.0964"/>
</g>
<!-- Node19&#45;&gt;Node3 -->
<g id="edge28" class="edge"><title>Node19&#45;&gt;Node3</title>
<path fill="none" stroke="midnightblue" d="M650.262,-275.37C667.294,-258.553 707.445,-218.62 740,-184 754.985,-168.064 771.646,-149.387 783.065,-136.431"/>
<polygon fill="midnightblue" stroke="midnightblue" points="785.772,-138.653 789.742,-128.83 780.513,-134.034 785.772,-138.653"/>
</g>
<!-- Node19&#45;&gt;Node5 -->
<g id="edge33" class="edge"><title>Node19&#45;&gt;Node5</title>
<path fill="none" stroke="midnightblue" d="M642.048,-275.349C641.744,-262.506 639.576,-237.247 628,-220 612.335,-196.661 599.107,-200.005 576,-184 521.41,-146.189 457.034,-101.569 425.083,-79.4216"/>
<polygon fill="midnightblue" stroke="midnightblue" points="426.822,-76.3685 416.61,-73.5481 422.834,-82.1216 426.822,-76.3685"/>
</g>
<!-- Node20 -->
<g id="node20" class="node"><title>Node20</title>
<g id="a_node20"><a xlink:href="$AP__Common_8h.html" xlink:title="Common definitions and utility routines for the ArduPilot libraries. ">
<polygon fill="white" stroke="black" points="584.973,-165.5 584.973,-183.5 731.027,-183.5 731.027,-165.5 584.973,-165.5"/>
<text text-anchor="middle" x="658" y="-171.5" font-family="Helvetica,sans-Serif" font-size="10.00">AP_Common/AP_Common.h</text>
</a>
</g>
</g>
<!-- Node19&#45;&gt;Node20 -->
<g id="edge29" class="edge"><title>Node19&#45;&gt;Node20</title>
<path fill="none" stroke="midnightblue" d="M646.701,-275.3C651.389,-266.611 658.273,-252.333 661,-239 664.048,-224.099 662.945,-206.839 661.277,-194.078"/>
<polygon fill="midnightblue" stroke="midnightblue" points="664.678,-193.167 659.689,-183.821 657.76,-194.238 664.678,-193.167"/>
</g>
<!-- Node19&#45;&gt;Node22 -->
<g id="edge34" class="edge"><title>Node19&#45;&gt;Node22</title>
<path fill="none" stroke="midnightblue" d="M630.305,-275.45C618.32,-267.201 599.455,-254.216 585.076,-244.319"/>
<polygon fill="midnightblue" stroke="midnightblue" points="587.026,-241.412 576.805,-238.625 583.058,-247.178 587.026,-241.412"/>
</g>
<!-- Node20&#45;&gt;Node3 -->
<g id="edge30" class="edge"><title>Node20&#45;&gt;Node3</title>
<path fill="none" stroke="midnightblue" d="M679.111,-165.45C702.277,-156.617 739.683,-142.355 766.139,-132.267"/>
<polygon fill="midnightblue" stroke="midnightblue" points="767.593,-135.458 775.69,-128.625 765.099,-128.918 767.593,-135.458"/>
</g>
<!-- Node20&#45;&gt;Node4 -->
<g id="edge32" class="edge"><title>Node20&#45;&gt;Node4</title>
<path fill="none" stroke="midnightblue" d="M645.09,-165.45C631.735,-157.123 610.641,-143.97 594.714,-134.039"/>
<polygon fill="midnightblue" stroke="midnightblue" points="596.369,-130.946 586.031,-128.625 592.665,-136.886 596.369,-130.946"/>
</g>
<!-- Node21 -->
<g id="node21" class="node"><title>Node21</title>
<polygon fill="white" stroke="#bfbfbf" points="634.158,-110.5 634.158,-128.5 681.842,-128.5 681.842,-110.5 634.158,-110.5"/>
<text text-anchor="middle" x="658" y="-116.5" font-family="Helvetica,sans-Serif" font-size="10.00">stdlib.h</text>
</g>
<!-- Node20&#45;&gt;Node21 -->
<g id="edge31" class="edge"><title>Node20&#45;&gt;Node21</title>
<path fill="none" stroke="midnightblue" d="M658,-165.219C658,-158.177 658,-147.808 658,-138.828"/>
<polygon fill="midnightblue" stroke="midnightblue" points="661.5,-138.55 658,-128.55 654.5,-138.55 661.5,-138.55"/>
</g>
<!-- Node22&#45;&gt;Node5 -->
<g id="edge37" class="edge"><title>Node22&#45;&gt;Node5</title>
<path fill="none" stroke="midnightblue" d="M534.578,-220.442C513.534,-213.598 486.007,-201.975 467,-184 458.929,-176.367 428.279,-113.928 413.317,-82.8867"/>
<polygon fill="midnightblue" stroke="midnightblue" points="416.384,-81.1871 408.9,-73.6877 410.074,-84.2173 416.384,-81.1871"/>
</g>
<!-- Node22&#45;&gt;Node20 -->
<g id="edge36" class="edge"><title>Node22&#45;&gt;Node20</title>
<path fill="none" stroke="midnightblue" d="M579.125,-220.45C593.873,-212.045 617.248,-198.724 634.729,-188.762"/>
<polygon fill="midnightblue" stroke="midnightblue" points="636.787,-191.618 643.742,-183.625 633.321,-185.536 636.787,-191.618"/>
</g>
<!-- Node23 -->
<g id="node23" class="node"><title>Node23</title>
<polygon fill="white" stroke="#bfbfbf" points="1060.93,-165.5 1060.93,-183.5 1113.07,-183.5 1113.07,-165.5 1060.93,-165.5"/>
<text text-anchor="middle" x="1087" y="-171.5" font-family="Helvetica,sans-Serif" font-size="10.00">stdarg.h</text>
</g>
<!-- Node22&#45;&gt;Node23 -->
<g id="edge35" class="edge"><title>Node22&#45;&gt;Node23</title>
<path fill="none" stroke="midnightblue" d="M619.877,-222.928C726.888,-212.063 960.822,-188.311 1050.77,-179.179"/>
<polygon fill="midnightblue" stroke="midnightblue" points="1051.16,-182.657 1060.76,-178.164 1050.46,-175.693 1051.16,-182.657"/>
</g>
<!-- Node22&#45;&gt;Node24 -->
<g id="edge38" class="edge"><title>Node22&#45;&gt;Node24</title>
<path fill="none" stroke="midnightblue" d="M514.424,-220.45C447.485,-209.796 330.918,-191.244 270.61,-181.645"/>
<polygon fill="midnightblue" stroke="midnightblue" points="270.804,-178.132 260.378,-180.017 269.703,-185.045 270.804,-178.132"/>
</g>
<!-- Node24&#45;&gt;Node5 -->
<g id="edge39" class="edge"><title>Node24&#45;&gt;Node5</title>
<path fill="none" stroke="midnightblue" d="M235.611,-165.233C241.9,-151.761 256.118,-125.068 276,-110 297.739,-93.5247 326.018,-82.8677 350.556,-76.128"/>
<polygon fill="midnightblue" stroke="midnightblue" points="351.657,-79.4582 360.459,-73.5603 349.9,-72.6823 351.657,-79.4582"/>
</g>
<!-- Node24&#45;&gt;Node25 -->
<g id="edge40" class="edge"><title>Node24&#45;&gt;Node25</title>
<path fill="none" stroke="midnightblue" d="M211.193,-165.45C188.36,-156.617 151.492,-142.355 125.417,-132.267"/>
<polygon fill="midnightblue" stroke="midnightblue" points="126.592,-128.969 116.003,-128.625 124.067,-135.498 126.592,-128.969"/>
</g>
<!-- Node25&#45;&gt;Node5 -->
<g id="edge41" class="edge"><title>Node25&#45;&gt;Node5</title>
<path fill="none" stroke="midnightblue" d="M117.8,-112.86C122.169,-111.852 126.717,-110.852 131,-110 201.304,-96.0094 282.411,-83.2539 338.033,-75.0212"/>
<polygon fill="midnightblue" stroke="midnightblue" points="338.731,-78.4564 348.114,-73.5374 337.711,-71.531 338.731,-78.4564"/>
</g>
<!-- Node25&#45;&gt;Node6 -->
<g id="edge43" class="edge"><title>Node25&#45;&gt;Node6</title>
<path fill="none" stroke="midnightblue" d="M108.304,-110.382C138.543,-91.9313 212.695,-46.6862 249.922,-23.9713"/>
<polygon fill="midnightblue" stroke="midnightblue" points="251.828,-26.9082 258.542,-18.7118 248.182,-20.9327 251.828,-26.9082"/>
</g>
<!-- Node25&#45;&gt;Node13 -->
<g id="edge42" class="edge"><title>Node25&#45;&gt;Node13</title>
<path fill="none" stroke="midnightblue" d="M91.0938,-110.219C87.6245,-102.864 82.4434,-91.8801 78.0844,-82.639"/>
<polygon fill="midnightblue" stroke="midnightblue" points="81.2287,-81.1007 73.797,-73.5496 74.8977,-84.0871 81.2287,-81.1007"/>
</g>
<!-- Node26&#45;&gt;Node3 -->
<g id="edge46" class="edge"><title>Node26&#45;&gt;Node3</title>
<path fill="none" stroke="midnightblue" d="M913.193,-165.45C890.36,-156.617 853.492,-142.355 827.417,-132.267"/>
<polygon fill="midnightblue" stroke="midnightblue" points="828.592,-128.969 818.003,-128.625 826.067,-135.498 828.592,-128.969"/>
</g>
<!-- Node26&#45;&gt;Node5 -->
<g id="edge47" class="edge"><title>Node26&#45;&gt;Node5</title>
<path fill="none" stroke="midnightblue" d="M924.141,-165.361C906.511,-151.319 867.874,-122.814 830,-110 766.24,-88.4281 579.339,-75.0795 475.9,-69.1347"/>
<polygon fill="midnightblue" stroke="midnightblue" points="476.034,-65.6368 465.852,-68.5655 475.638,-72.6256 476.034,-65.6368"/>
</g>
<!-- Node27&#45;&gt;Node3 -->
<g id="edge55" class="edge"><title>Node27&#45;&gt;Node3</title>
<path fill="none" stroke="midnightblue" d="M791.659,-385.364C797.004,-368.537 808.888,-328.585 813,-294 819.77,-237.061 820.733,-221.508 811,-165 809.432,-155.899 806.483,-146.076 803.695,-137.981"/>
<polygon fill="midnightblue" stroke="midnightblue" points="806.966,-136.734 800.251,-128.539 800.39,-139.133 806.966,-136.734"/>
</g>
<!-- Node27&#45;&gt;Node5 -->
<g id="edge58" class="edge"><title>Node27&#45;&gt;Node5</title>
<path fill="none" stroke="midnightblue" d="M803.896,-385.429C856.872,-356.491 1033,-258.201 1033,-230.5 1033,-230.5 1033,-230.5 1033,-173.5 1033,-117.818 978.054,-126.904 925,-110 843.338,-83.9814 598.395,-72.116 476.094,-67.6946"/>
<polygon fill="midnightblue" stroke="midnightblue" points="476.194,-64.1961 466.076,-67.3392 475.946,-71.1917 476.194,-64.1961"/>
</g>
<!-- Node27&#45;&gt;Node8 -->
<g id="edge57" class="edge"><title>Node27&#45;&gt;Node8</title>
<path fill="none" stroke="midnightblue" d="M816.034,-385.45C846.442,-376.396 896.008,-361.638 929.994,-351.519"/>
<polygon fill="midnightblue" stroke="midnightblue" points="931.418,-354.747 940.003,-348.538 929.42,-348.038 931.418,-354.747"/>
</g>
<!-- Node27&#45;&gt;Node20 -->
<g id="edge56" class="edge"><title>Node27&#45;&gt;Node20</title>
<path fill="none" stroke="midnightblue" d="M784.182,-385.483C765.128,-353.774 694.781,-236.709 668.232,-192.528"/>
<polygon fill="midnightblue" stroke="midnightblue" points="671.152,-190.592 663.001,-183.823 665.152,-194.197 671.152,-190.592"/>
</g>
<!-- Node28&#45;&gt;Node5 -->
<g id="edge60" class="edge"><title>Node28&#45;&gt;Node5</title>
<path fill="none" stroke="midnightblue" d="M1155.53,-330.274C1162.85,-312.446 1179,-268.768 1179,-230.5 1179,-230.5 1179,-230.5 1179,-173.5 1179,-122.714 1132.09,-126.328 1084,-110 973.078,-72.3371 626.526,-66.3219 475.988,-65.5233"/>
<polygon fill="midnightblue" stroke="midnightblue" points="475.943,-62.0231 465.926,-65.4761 475.91,-69.023 475.943,-62.0231"/>
</g>
<!-- Node29&#45;&gt;Node5 -->
<g id="edge63" class="edge"><title>Node29&#45;&gt;Node5</title>
<path fill="none" stroke="midnightblue" d="M1097.13,-220.377C1110.78,-208.394 1132.24,-185.212 1122,-165 1103.32,-128.128 1085.82,-124.212 1047,-110 943.904,-72.2529 620.724,-66.2361 476.143,-65.4776"/>
<polygon fill="midnightblue" stroke="midnightblue" points="476.063,-61.9773 466.047,-65.4317 476.031,-68.9772 476.063,-61.9773"/>
</g>
<!-- Node29&#45;&gt;Node23 -->
<g id="edge62" class="edge"><title>Node29&#45;&gt;Node23</title>
<path fill="none" stroke="midnightblue" d="M1087,-220.219C1087,-213.177 1087,-202.808 1087,-193.828"/>
<polygon fill="midnightblue" stroke="midnightblue" points="1090.5,-193.55 1087,-183.55 1083.5,-193.55 1090.5,-193.55"/>
</g>
<!-- Node30&#45;&gt;Node8 -->
<g id="edge69" class="edge"><title>Node30&#45;&gt;Node8</title>
<path fill="none" stroke="midnightblue" d="M733.705,-610.055C863.484,-598.531 1259,-559.02 1259,-505.5 1259,-505.5 1259,-505.5 1259,-448.5 1259,-399.497 1112.51,-365.73 1027.05,-350.2"/>
<polygon fill="midnightblue" stroke="midnightblue" points="1027.66,-346.753 1017.2,-348.441 1026.43,-353.644 1027.66,-346.753"/>
</g>
<!-- Node31 -->
<g id="node31" class="node"><title>Node31</title>
<g id="a_node31"><a xlink:href="$AP__HAL__Linux_8h.html" xlink:title="AP_HAL_Linux.h">
<polygon fill="white" stroke="black" points="600.919,-550.5 600.919,-568.5 693.081,-568.5 693.081,-550.5 600.919,-550.5"/>
<text text-anchor="middle" x="647" y="-556.5" font-family="Helvetica,sans-Serif" font-size="10.00">AP_HAL_Linux.h</text>
</a>
</g>
</g>
<!-- Node30&#45;&gt;Node31 -->
<g id="edge70" class="edge"><title>Node30&#45;&gt;Node31</title>
<path fill="none" stroke="midnightblue" d="M685.812,-605.219C679.089,-597.473 668.873,-585.701 660.609,-576.18"/>
<polygon fill="midnightblue" stroke="midnightblue" points="663.184,-573.808 653.986,-568.55 657.898,-578.396 663.184,-573.808"/>
</g>
<!-- Node34 -->
<g id="node34" class="node"><title>Node34</title>
<polygon fill="white" stroke="#bfbfbf" points="710.872,-550.5 710.872,-568.5 769.128,-568.5 769.128,-550.5 710.872,-550.5"/>
<text text-anchor="middle" x="740" y="-556.5" font-family="Helvetica,sans-Serif" font-size="10.00">pthread.h</text>
</g>
<!-- Node30&#45;&gt;Node34 -->
<g id="edge75" class="edge"><title>Node30&#45;&gt;Node34</title>
<path fill="none" stroke="midnightblue" d="M700.344,-605.219C707.213,-597.473 717.652,-585.701 726.095,-576.18"/>
<polygon fill="midnightblue" stroke="midnightblue" points="728.845,-578.354 732.862,-568.55 723.608,-573.709 728.845,-578.354"/>
</g>
<!-- Node31&#45;&gt;Node2 -->
<g id="edge71" class="edge"><title>Node31&#45;&gt;Node2</title>
<path fill="none" stroke="midnightblue" d="M639.784,-550.382C623.939,-532.557 585.865,-489.723 565.095,-466.357"/>
<polygon fill="midnightblue" stroke="midnightblue" points="567.559,-463.861 558.299,-458.712 562.327,-468.511 567.559,-463.861"/>
</g>
<!-- Node32 -->
<g id="node32" class="node"><title>Node32</title>
<g id="a_node32"><a xlink:href="$HAL__Linux__Class_8h.html" xlink:title="HAL_Linux_Class.h">
<polygon fill="white" stroke="black" points="617.086,-495.5 617.086,-513.5 720.914,-513.5 720.914,-495.5 617.086,-495.5"/>
<text text-anchor="middle" x="669" y="-501.5" font-family="Helvetica,sans-Serif" font-size="10.00">HAL_Linux_Class.h</text>
</a>
</g>
</g>
<!-- Node31&#45;&gt;Node32 -->
<g id="edge72" class="edge"><title>Node31&#45;&gt;Node32</title>
<path fill="none" stroke="midnightblue" d="M650.438,-550.219C653.458,-542.942 657.953,-532.113 661.763,-522.934"/>
<polygon fill="midnightblue" stroke="midnightblue" points="665.057,-524.127 665.659,-513.55 658.592,-521.444 665.057,-524.127"/>
</g>
<!-- Node32&#45;&gt;Node2 -->
<g id="edge73" class="edge"><title>Node32&#45;&gt;Node2</title>
<path fill="none" stroke="midnightblue" d="M651.078,-495.45C631.759,-486.773 600.773,-472.856 578.394,-462.804"/>
<polygon fill="midnightblue" stroke="midnightblue" points="579.646,-459.53 569.09,-458.625 576.778,-465.915 579.646,-459.53"/>
</g>
<!-- Node33 -->
<g id="node33" class="node"><title>Node33</title>
<g id="a_node33"><a xlink:href="$AP__HAL__Linux__Namespace_8h.html" xlink:title="AP_HAL_Linux_Namespace.h">
<polygon fill="white" stroke="black" points="620.458,-440.5 620.458,-458.5 771.542,-458.5 771.542,-440.5 620.458,-440.5"/>
<text text-anchor="middle" x="696" y="-446.5" font-family="Helvetica,sans-Serif" font-size="10.00">AP_HAL_Linux_Namespace.h</text>
</a>
</g>
</g>
<!-- Node32&#45;&gt;Node33 -->
<g id="edge74" class="edge"><title>Node32&#45;&gt;Node33</title>
<path fill="none" stroke="midnightblue" d="M673.219,-495.219C676.966,-487.864 682.561,-476.88 687.269,-467.639"/>
<polygon fill="midnightblue" stroke="midnightblue" points="690.479,-469.049 691.899,-458.55 684.241,-465.871 690.479,-469.049"/>
</g>
</g>
</svg>
