<?xml version="1.0" encoding="UTF-8" standalone="no"?>
<!DOCTYPE svg PUBLIC "-//W3C//DTD SVG 1.1//EN"
 "http://www.w3.org/Graphics/SVG/1.1/DTD/svg11.dtd">
<!-- Generated by graphviz version 2.38.0 (20140413.2041)
 -->
<!-- Title: libraries/APM_Control/AP_AutoTune.h Pages: 1 -->
<svg width="453pt" height="167pt"
 viewBox="0.00 0.00 452.93 167.00" xmlns="http://www.w3.org/2000/svg" xmlns:xlink="http://www.w3.org/1999/xlink">
<g id="graph0" class="graph" transform="scale(1 1) rotate(0) translate(4 163)">
<title>libraries/APM_Control/AP_AutoTune.h</title>
<polygon fill="white" stroke="none" points="-4,4 -4,-163 448.933,-163 448.933,4 -4,4"/>
<!-- Node1 -->
<g id="node1" class="node"><title>Node1</title>
<polygon fill="#bfbfbf" stroke="black" points="131,-130.5 131,-158.5 244.256,-158.5 244.256,-130.5 131,-130.5"/>
<text text-anchor="start" x="139" y="-146.5" font-family="Helvetica,sans-Serif" font-size="10.00">libraries/APM_Control</text>
<text text-anchor="middle" x="187.628" y="-136.5" font-family="Helvetica,sans-Serif" font-size="10.00">/AP_AutoTune.h</text>
</g>
<!-- Node2 -->
<g id="node2" class="node"><title>Node2</title>
<g id="a_node2"><a xlink:href="$AP__AutoTune_8cpp.html" xlink:title="libraries/APM_Control\l/AP_AutoTune.cpp">
<polygon fill="white" stroke="black" points="0,-65.5 0,-93.5 113.256,-93.5 113.256,-65.5 0,-65.5"/>
<text text-anchor="start" x="8" y="-81.5" font-family="Helvetica,sans-Serif" font-size="10.00">libraries/APM_Control</text>
<text text-anchor="middle" x="56.6279" y="-71.5" font-family="Helvetica,sans-Serif" font-size="10.00">/AP_AutoTune.cpp</text>
</a>
</g>
</g>
<!-- Node1&#45;&gt;Node2 -->
<g id="edge1" class="edge"><title>Node1&#45;&gt;Node2</title>
<path fill="none" stroke="midnightblue" d="M151.366,-126.061C129.96,-115.767 103.313,-102.951 83.7364,-93.5369"/>
<polygon fill="midnightblue" stroke="midnightblue" points="149.956,-129.266 160.485,-130.446 152.99,-122.958 149.956,-129.266"/>
</g>
<!-- Node3 -->
<g id="node3" class="node"><title>Node3</title>
<g id="a_node3"><a xlink:href="$AP__PitchController_8h.html" xlink:title="libraries/APM_Control\l/AP_PitchController.h">
<polygon fill="white" stroke="black" points="131,-65.5 131,-93.5 244.256,-93.5 244.256,-65.5 131,-65.5"/>
<text text-anchor="start" x="139" y="-81.5" font-family="Helvetica,sans-Serif" font-size="10.00">libraries/APM_Control</text>
<text text-anchor="middle" x="187.628" y="-71.5" font-family="Helvetica,sans-Serif" font-size="10.00">/AP_PitchController.h</text>
</a>
</g>
</g>
<!-- Node1&#45;&gt;Node3 -->
<g id="edge2" class="edge"><title>Node1&#45;&gt;Node3</title>
<path fill="none" stroke="midnightblue" d="M187.628,-120.164C187.628,-111.169 187.628,-101.221 187.628,-93.5369"/>
<polygon fill="midnightblue" stroke="midnightblue" points="184.128,-120.446 187.628,-130.446 191.128,-120.446 184.128,-120.446"/>
</g>
<!-- Node6 -->
<g id="node6" class="node"><title>Node6</title>
<g id="a_node6"><a xlink:href="$AP__RollController_8h.html" xlink:title="libraries/APM_Control\l/AP_RollController.h">
<polygon fill="white" stroke="black" points="262,-65.5 262,-93.5 375.256,-93.5 375.256,-65.5 262,-65.5"/>
<text text-anchor="start" x="270" y="-81.5" font-family="Helvetica,sans-Serif" font-size="10.00">libraries/APM_Control</text>
<text text-anchor="middle" x="318.628" y="-71.5" font-family="Helvetica,sans-Serif" font-size="10.00">/AP_RollController.h</text>
</a>
</g>
</g>
<!-- Node1&#45;&gt;Node6 -->
<g id="edge5" class="edge"><title>Node1&#45;&gt;Node6</title>
<path fill="none" stroke="midnightblue" d="M223.89,-126.061C245.296,-115.767 271.943,-102.951 291.519,-93.5369"/>
<polygon fill="midnightblue" stroke="midnightblue" points="222.266,-122.958 214.771,-130.446 225.3,-129.266 222.266,-122.958"/>
</g>
<!-- Node4 -->
<g id="node4" class="node"><title>Node4</title>
<g id="a_node4"><a xlink:href="$AP__PitchController_8cpp.html" xlink:title="libraries/APM_Control\l/AP_PitchController.cpp">
<polygon fill="white" stroke="black" points="57.8203,-0.5 57.8203,-28.5 179.436,-28.5 179.436,-0.5 57.8203,-0.5"/>
<text text-anchor="start" x="65.8203" y="-16.5" font-family="Helvetica,sans-Serif" font-size="10.00">libraries/APM_Control</text>
<text text-anchor="middle" x="118.628" y="-6.5" font-family="Helvetica,sans-Serif" font-size="10.00">/AP_PitchController.cpp</text>
</a>
</g>
</g>
<!-- Node3&#45;&gt;Node4 -->
<g id="edge3" class="edge"><title>Node3&#45;&gt;Node4</title>
<path fill="none" stroke="midnightblue" d="M165.904,-58.6654C155.135,-48.8326 142.432,-37.2338 132.906,-28.5369"/>
<polygon fill="midnightblue" stroke="midnightblue" points="163.586,-61.2883 173.331,-65.4464 168.306,-56.1189 163.586,-61.2883"/>
</g>
<!-- Node5 -->
<g id="node5" class="node"><title>Node5</title>
<g id="a_node5"><a xlink:href="$APM__Control_8h.html" xlink:title="libraries/APM_Control\l/APM_Control.h">
<polygon fill="white" stroke="black" points="197,-0.5 197,-28.5 310.256,-28.5 310.256,-0.5 197,-0.5"/>
<text text-anchor="start" x="205" y="-16.5" font-family="Helvetica,sans-Serif" font-size="10.00">libraries/APM_Control</text>
<text text-anchor="middle" x="253.628" y="-6.5" font-family="Helvetica,sans-Serif" font-size="10.00">/APM_Control.h</text>
</a>
</g>
</g>
<!-- Node3&#45;&gt;Node5 -->
<g id="edge4" class="edge"><title>Node3&#45;&gt;Node5</title>
<path fill="none" stroke="midnightblue" d="M208.708,-58.3785C218.944,-48.6076 230.948,-37.1493 239.97,-28.5369"/>
<polygon fill="midnightblue" stroke="midnightblue" points="206.12,-56.0098 201.303,-65.4464 210.953,-61.0733 206.12,-56.0098"/>
</g>
<!-- Node6&#45;&gt;Node5 -->
<g id="edge7" class="edge"><title>Node6&#45;&gt;Node5</title>
<path fill="none" stroke="midnightblue" d="M297.868,-58.3785C287.787,-48.6076 275.965,-37.1493 267.079,-28.5369"/>
<polygon fill="midnightblue" stroke="midnightblue" points="295.543,-60.9998 305.16,-65.4464 300.415,-55.9733 295.543,-60.9998"/>
</g>
<!-- Node7 -->
<g id="node7" class="node"><title>Node7</title>
<g id="a_node7"><a xlink:href="$AP__RollController_8cpp.html" xlink:title="libraries/APM_Control\l/AP_RollController.cpp">
<polygon fill="white" stroke="black" points="328.323,-0.5 328.323,-28.5 444.933,-28.5 444.933,-0.5 328.323,-0.5"/>
<text text-anchor="start" x="336.323" y="-16.5" font-family="Helvetica,sans-Serif" font-size="10.00">libraries/APM_Control</text>
<text text-anchor="middle" x="386.628" y="-6.5" font-family="Helvetica,sans-Serif" font-size="10.00">/AP_RollController.cpp</text>
</a>
</g>
</g>
<!-- Node6&#45;&gt;Node7 -->
<g id="edge6" class="edge"><title>Node6&#45;&gt;Node7</title>
<path fill="none" stroke="midnightblue" d="M340.346,-58.3785C350.893,-48.6076 363.26,-37.1493 372.556,-28.5369"/>
<polygon fill="midnightblue" stroke="midnightblue" points="337.675,-56.0826 332.718,-65.4464 342.432,-61.2176 337.675,-56.0826"/>
</g>
</g>
</svg>
