<?xml version="1.0" encoding="UTF-8" standalone="no"?>
<!DOCTYPE svg PUBLIC "-//W3C//DTD SVG 1.1//EN"
 "http://www.w3.org/Graphics/SVG/1.1/DTD/svg11.dtd">
<!-- Generated by graphviz version 2.38.0 (20140413.2041)
 -->
<!-- Title: libraries/AP_Menu/AP_Menu.cpp Pages: 1 -->
<svg width="1562pt" height="587pt"
 viewBox="0.00 0.00 1562.00 587.00" xmlns="http://www.w3.org/2000/svg" xmlns:xlink="http://www.w3.org/1999/xlink">
<g id="graph0" class="graph" transform="scale(1 1) rotate(0) translate(4 583)">
<title>libraries/AP_Menu/AP_Menu.cpp</title>
<polygon fill="white" stroke="none" points="-4,4 -4,-583 1558,-583 1558,4 -4,4"/>
<!-- Node1 -->
<g id="node1" class="node"><title>Node1</title>
<polygon fill="#bfbfbf" stroke="black" points="330.089,-550.5 330.089,-578.5 443.911,-578.5 443.911,-550.5 330.089,-550.5"/>
<text text-anchor="start" x="338.089" y="-566.5" font-family="Helvetica,sans-Serif" font-size="10.00">libraries/AP_Menu/AP</text>
<text text-anchor="middle" x="387" y="-556.5" font-family="Helvetica,sans-Serif" font-size="10.00">_Menu.cpp</text>
</g>
<!-- Node2 -->
<g id="node2" class="node"><title>Node2</title>
<g id="a_node2"><a xlink:href="$AP__Common_8h.html" xlink:title="Common definitions and utility routines for the ArduPilot libraries. ">
<polygon fill="white" stroke="black" points="543.973,-165.5 543.973,-183.5 690.027,-183.5 690.027,-165.5 543.973,-165.5"/>
<text text-anchor="middle" x="617" y="-171.5" font-family="Helvetica,sans-Serif" font-size="10.00">AP_Common/AP_Common.h</text>
</a>
</g>
</g>
<!-- Node1&#45;&gt;Node2 -->
<g id="edge1" class="edge"><title>Node1&#45;&gt;Node2</title>
<path fill="none" stroke="midnightblue" d="M392.329,-550.377C398.143,-536.403 407.967,-513.763 418,-495 482.284,-374.773 573.956,-238.31 605.683,-191.922"/>
<polygon fill="midnightblue" stroke="midnightblue" points="608.585,-193.878 611.358,-183.652 602.814,-189.917 608.585,-193.878"/>
</g>
<!-- Node4 -->
<g id="node4" class="node"><title>Node4</title>
<polygon fill="white" stroke="#bfbfbf" points="170.158,-110.5 170.158,-128.5 217.842,-128.5 217.842,-110.5 170.158,-110.5"/>
<text text-anchor="middle" x="194" y="-116.5" font-family="Helvetica,sans-Serif" font-size="10.00">stdlib.h</text>
</g>
<!-- Node1&#45;&gt;Node4 -->
<g id="edge72" class="edge"><title>Node1&#45;&gt;Node4</title>
<path fill="none" stroke="midnightblue" d="M329.761,-556.956C230.75,-544.029 38,-511.082 38,-450.5 38,-450.5 38,-450.5 38,-228.5 38,-199.042 36.4141,-186.072 57,-165 84.1227,-137.237 128.712,-126.781 159.622,-122.852"/>
<polygon fill="midnightblue" stroke="midnightblue" points="160.376,-126.29 169.933,-121.716 159.61,-119.332 160.376,-126.29"/>
</g>
<!-- Node6 -->
<g id="node6" class="node"><title>Node6</title>
<g id="a_node6"><a xlink:href="$AP__Progmem_8h.html" xlink:title="AP_Progmem/AP_Progmem.h">
<polygon fill="white" stroke="black" points="66.1948,-165.5 66.1948,-183.5 217.805,-183.5 217.805,-165.5 66.1948,-165.5"/>
<text text-anchor="middle" x="142" y="-171.5" font-family="Helvetica,sans-Serif" font-size="10.00">AP_Progmem/AP_Progmem.h</text>
</a>
</g>
</g>
<!-- Node1&#45;&gt;Node6 -->
<g id="edge5" class="edge"><title>Node1&#45;&gt;Node6</title>
<path fill="none" stroke="midnightblue" d="M329.909,-557.596C267.118,-547.575 175,-520.881 175,-450.5 175,-450.5 175,-450.5 175,-283.5 175,-250.291 160.553,-213.747 150.777,-192.82"/>
<polygon fill="midnightblue" stroke="midnightblue" points="153.835,-191.104 146.314,-183.641 147.539,-194.165 153.835,-191.104"/>
</g>
<!-- Node7 -->
<g id="node7" class="node"><title>Node7</title>
<polygon fill="white" stroke="#bfbfbf" points="520.604,-0.5 520.604,-18.5 569.396,-18.5 569.396,-0.5 520.604,-0.5"/>
<text text-anchor="middle" x="545" y="-6.5" font-family="Helvetica,sans-Serif" font-size="10.00">string.h</text>
</g>
<!-- Node1&#45;&gt;Node7 -->
<g id="edge74" class="edge"><title>Node1&#45;&gt;Node7</title>
<path fill="none" stroke="midnightblue" d="M330.088,-563.127C266.118,-560.762 160.434,-550.918 78,-514 37.2025,-495.729 0,-495.202 0,-450.5 0,-450.5 0,-450.5 0,-118.5 0,-13.9832 390.546,-9.02519 510.427,-9.96525"/>
<polygon fill="midnightblue" stroke="midnightblue" points="510.49,-13.4659 520.524,-10.0639 510.558,-6.46626 510.49,-13.4659"/>
</g>
<!-- Node8 -->
<g id="node8" class="node"><title>Node8</title>
<g id="a_node8"><a xlink:href="$AP__HAL_8h.html" xlink:title="AP_HAL/AP_HAL.h">
<polygon fill="white" stroke="black" points="848.086,-440.5 848.086,-458.5 951.914,-458.5 951.914,-440.5 848.086,-440.5"/>
<text text-anchor="middle" x="900" y="-446.5" font-family="Helvetica,sans-Serif" font-size="10.00">AP_HAL/AP_HAL.h</text>
</a>
</g>
</g>
<!-- Node1&#45;&gt;Node8 -->
<g id="edge8" class="edge"><title>Node1&#45;&gt;Node8</title>
<path fill="none" stroke="midnightblue" d="M393.788,-550.237C402.837,-534.095 420.484,-507.454 444,-495 510.735,-459.658 729.329,-452.262 837.803,-450.799"/>
<polygon fill="midnightblue" stroke="midnightblue" points="837.991,-454.297 847.948,-450.676 837.906,-447.298 837.991,-454.297"/>
</g>
<!-- Node31 -->
<g id="node31" class="node"><title>Node31</title>
<polygon fill="white" stroke="#bfbfbf" points="452.879,-495.5 452.879,-513.5 501.121,-513.5 501.121,-495.5 452.879,-495.5"/>
<text text-anchor="middle" x="477" y="-501.5" font-family="Helvetica,sans-Serif" font-size="10.00">ctype.h</text>
</g>
<!-- Node1&#45;&gt;Node31 -->
<g id="edge73" class="edge"><title>Node1&#45;&gt;Node31</title>
<path fill="none" stroke="midnightblue" d="M407.422,-550.339C421.939,-540.984 441.378,-528.456 456.019,-519.021"/>
<polygon fill="midnightblue" stroke="midnightblue" points="457.918,-521.961 464.428,-513.602 454.126,-516.077 457.918,-521.961"/>
</g>
<!-- Node32 -->
<g id="node32" class="node"><title>Node32</title>
<g id="a_node32"><a xlink:href="$AP__Menu_8h.html" xlink:title="AP_Menu.h">
<polygon fill="white" stroke="black" points="865.872,-495.5 865.872,-513.5 934.128,-513.5 934.128,-495.5 865.872,-495.5"/>
<text text-anchor="middle" x="900" y="-501.5" font-family="Helvetica,sans-Serif" font-size="10.00">AP_Menu.h</text>
</a>
</g>
</g>
<!-- Node1&#45;&gt;Node32 -->
<g id="edge75" class="edge"><title>Node1&#45;&gt;Node32</title>
<path fill="none" stroke="midnightblue" d="M444.354,-557.015C547.573,-545.346 762.515,-521.044 855.521,-510.529"/>
<polygon fill="midnightblue" stroke="midnightblue" points="856.174,-513.977 865.717,-509.376 855.387,-507.022 856.174,-513.977"/>
</g>
<!-- Node3 -->
<g id="node3" class="node"><title>Node3</title>
<polygon fill="white" stroke="#bfbfbf" points="542.879,-110.5 542.879,-128.5 591.121,-128.5 591.121,-110.5 542.879,-110.5"/>
<text text-anchor="middle" x="567" y="-116.5" font-family="Helvetica,sans-Serif" font-size="10.00">stdint.h</text>
</g>
<!-- Node2&#45;&gt;Node3 -->
<g id="edge2" class="edge"><title>Node2&#45;&gt;Node3</title>
<path fill="none" stroke="midnightblue" d="M609.188,-165.219C601.806,-157.394 590.55,-145.463 581.521,-135.892"/>
<polygon fill="midnightblue" stroke="midnightblue" points="584.002,-133.422 574.594,-128.55 578.91,-138.225 584.002,-133.422"/>
</g>
<!-- Node2&#45;&gt;Node4 -->
<g id="edge3" class="edge"><title>Node2&#45;&gt;Node4</title>
<path fill="none" stroke="midnightblue" d="M552.755,-165.45C461.744,-154.047 298.513,-133.595 227.988,-124.759"/>
<polygon fill="midnightblue" stroke="midnightblue" points="228.24,-121.263 217.883,-123.492 227.37,-128.209 228.24,-121.263"/>
</g>
<!-- Node5 -->
<g id="node5" class="node"><title>Node5</title>
<polygon fill="white" stroke="#bfbfbf" points="683.707,-110.5 683.707,-128.5 740.293,-128.5 740.293,-110.5 683.707,-110.5"/>
<text text-anchor="middle" x="712" y="-116.5" font-family="Helvetica,sans-Serif" font-size="10.00">stdbool.h</text>
</g>
<!-- Node2&#45;&gt;Node5 -->
<g id="edge4" class="edge"><title>Node2&#45;&gt;Node5</title>
<path fill="none" stroke="midnightblue" d="M631.428,-165.45C646.494,-157.045 670.372,-143.724 688.229,-133.762"/>
<polygon fill="midnightblue" stroke="midnightblue" points="690.408,-136.554 697.436,-128.625 686.998,-130.441 690.408,-136.554"/>
</g>
<!-- Node6&#45;&gt;Node3 -->
<g id="edge7" class="edge"><title>Node6&#45;&gt;Node3</title>
<path fill="none" stroke="midnightblue" d="M206.548,-165.45C297.769,-154.075 461.201,-133.694 532.336,-124.823"/>
<polygon fill="midnightblue" stroke="midnightblue" points="533.049,-128.261 542.539,-123.55 532.183,-121.315 533.049,-128.261"/>
</g>
<!-- Node6&#45;&gt;Node7 -->
<g id="edge6" class="edge"><title>Node6&#45;&gt;Node7</title>
<path fill="none" stroke="midnightblue" d="M142.028,-165.184C142.541,-151.643 145.587,-124.85 161,-110 211.592,-61.2554 425.445,-27.0083 510.197,-15.1112"/>
<polygon fill="midnightblue" stroke="midnightblue" points="510.914,-18.5454 520.34,-13.7079 509.954,-11.6114 510.914,-18.5454"/>
</g>
<!-- Node8&#45;&gt;Node3 -->
<g id="edge9" class="edge"><title>Node8&#45;&gt;Node3</title>
<path fill="none" stroke="midnightblue" d="M847.722,-446.541C731.728,-440.773 463,-418.944 463,-340.5 463,-340.5 463,-340.5 463,-283.5 463,-220.292 519.265,-161.883 549.026,-135.409"/>
<polygon fill="midnightblue" stroke="midnightblue" points="551.377,-138.002 556.648,-128.811 546.796,-132.71 551.377,-138.002"/>
</g>
<!-- Node8&#45;&gt;Node5 -->
<g id="edge10" class="edge"><title>Node8&#45;&gt;Node5</title>
<path fill="none" stroke="midnightblue" d="M952.172,-445.542C1011.79,-440.964 1103.97,-429.82 1126,-404 1163.22,-360.373 1161.21,-322.449 1129,-275 1042.21,-147.149 836.228,-124.774 750.487,-121.097"/>
<polygon fill="midnightblue" stroke="midnightblue" points="750.525,-117.596 740.403,-120.728 750.269,-124.591 750.525,-117.596"/>
</g>
<!-- Node9 -->
<g id="node9" class="node"><title>Node9</title>
<g id="a_node9"><a xlink:href="$AP__HAL__Namespace_8h.html" xlink:title="AP_HAL_Namespace.h">
<polygon fill="white" stroke="black" points="969.192,-55.5 969.192,-73.5 1090.81,-73.5 1090.81,-55.5 969.192,-55.5"/>
<text text-anchor="middle" x="1030" y="-61.5" font-family="Helvetica,sans-Serif" font-size="10.00">AP_HAL_Namespace.h</text>
</a>
</g>
</g>
<!-- Node8&#45;&gt;Node9 -->
<g id="edge11" class="edge"><title>Node8&#45;&gt;Node9</title>
<path fill="none" stroke="midnightblue" d="M952.034,-447.805C1063.49,-445.687 1321.65,-437.235 1402,-404 1442.67,-387.175 1478,-384.516 1478,-340.5 1478,-340.5 1478,-340.5 1478,-228.5 1478,-155.726 1430.39,-141.931 1365,-110 1362.04,-108.557 1198.71,-87.2824 1101.23,-74.6804"/>
<polygon fill="midnightblue" stroke="midnightblue" points="1101.51,-71.1868 1091.14,-73.3763 1100.61,-78.1291 1101.51,-71.1868"/>
</g>
<!-- Node11 -->
<g id="node11" class="node"><title>Node11</title>
<g id="a_node11"><a xlink:href="$AP__HAL__Boards_8h.html" xlink:title="AP_HAL_Boards.h">
<polygon fill="white" stroke="black" points="350.03,-165.5 350.03,-183.5 449.97,-183.5 449.97,-165.5 350.03,-165.5"/>
<text text-anchor="middle" x="400" y="-171.5" font-family="Helvetica,sans-Serif" font-size="10.00">AP_HAL_Boards.h</text>
</a>
</g>
</g>
<!-- Node8&#45;&gt;Node11 -->
<g id="edge14" class="edge"><title>Node8&#45;&gt;Node11</title>
<path fill="none" stroke="midnightblue" d="M847.984,-444.158C778.472,-437.686 659.555,-424.078 621,-404 620.588,-403.785 464.304,-242.053 414.831,-190.851"/>
<polygon fill="midnightblue" stroke="midnightblue" points="417.314,-188.383 407.849,-183.624 412.28,-193.247 417.314,-188.383"/>
</g>
<!-- Node12 -->
<g id="node12" class="node"><title>Node12</title>
<g id="a_node12"><a xlink:href="$AP__HAL__Macros_8h.html" xlink:title="AP_HAL_Macros.h">
<polygon fill="white" stroke="black" points="889.48,-385.5 889.48,-403.5 990.52,-403.5 990.52,-385.5 889.48,-385.5"/>
<text text-anchor="middle" x="940" y="-391.5" font-family="Helvetica,sans-Serif" font-size="10.00">AP_HAL_Macros.h</text>
</a>
</g>
</g>
<!-- Node8&#45;&gt;Node12 -->
<g id="edge15" class="edge"><title>Node8&#45;&gt;Node12</title>
<path fill="none" stroke="midnightblue" d="M906.25,-440.219C911.978,-432.629 920.622,-421.175 927.729,-411.76"/>
<polygon fill="midnightblue" stroke="midnightblue" points="930.694,-413.64 933.925,-403.55 925.107,-409.423 930.694,-413.64"/>
</g>
<!-- Node13 -->
<g id="node13" class="node"><title>Node13</title>
<g id="a_node13"><a xlink:href="$AP__HAL__Main_8h.html" xlink:title="AP_HAL_Main.h">
<polygon fill="white" stroke="black" points="1008.03,-385.5 1008.03,-403.5 1097.97,-403.5 1097.97,-385.5 1008.03,-385.5"/>
<text text-anchor="middle" x="1053" y="-391.5" font-family="Helvetica,sans-Serif" font-size="10.00">AP_HAL_Main.h</text>
</a>
</g>
</g>
<!-- Node8&#45;&gt;Node13 -->
<g id="edge16" class="edge"><title>Node8&#45;&gt;Node13</title>
<path fill="none" stroke="midnightblue" d="M923.237,-440.45C948.962,-431.539 990.637,-417.103 1019.8,-407.001"/>
<polygon fill="midnightblue" stroke="midnightblue" points="1021.24,-410.206 1029.54,-403.625 1018.95,-403.591 1021.24,-410.206"/>
</g>
<!-- Node14 -->
<g id="node14" class="node"><title>Node14</title>
<g id="a_node14"><a xlink:href="$HAL_8h.html" xlink:title="HAL.h">
<polygon fill="white" stroke="black" points="989.104,-330.5 989.104,-348.5 1032.9,-348.5 1032.9,-330.5 989.104,-330.5"/>
<text text-anchor="middle" x="1011" y="-336.5" font-family="Helvetica,sans-Serif" font-size="10.00">HAL.h</text>
</a>
</g>
</g>
<!-- Node8&#45;&gt;Node14 -->
<g id="edge71" class="edge"><title>Node8&#45;&gt;Node14</title>
<path fill="none" stroke="midnightblue" d="M893.205,-440.359C883.365,-427.529 867.614,-402.288 880,-385 902.274,-353.91 947.518,-344.279 978.542,-341.441"/>
<polygon fill="midnightblue" stroke="midnightblue" points="979.139,-344.907 988.862,-340.696 978.636,-337.925 979.139,-344.907"/>
</g>
<!-- Node15 -->
<g id="node15" class="node"><title>Node15</title>
<g id="a_node15"><a xlink:href="$AnalogIn_8h.html" xlink:title="AnalogIn.h">
<polygon fill="white" stroke="black" points="1333.09,-220.5 1333.09,-238.5 1396.91,-238.5 1396.91,-220.5 1333.09,-220.5"/>
<text text-anchor="middle" x="1365" y="-226.5" font-family="Helvetica,sans-Serif" font-size="10.00">AnalogIn.h</text>
</a>
</g>
</g>
<!-- Node8&#45;&gt;Node15 -->
<g id="edge53" class="edge"><title>Node8&#45;&gt;Node15</title>
<path fill="none" stroke="midnightblue" d="M952.116,-446.13C1041.34,-441.447 1219.22,-429.202 1276,-404 1338.34,-376.329 1360.42,-358.358 1383,-294 1388.44,-278.491 1382.13,-260.426 1375.54,-247.538"/>
<polygon fill="midnightblue" stroke="midnightblue" points="1378.58,-245.814 1370.62,-238.821 1372.48,-249.251 1378.58,-245.814"/>
</g>
<!-- Node17 -->
<g id="node17" class="node"><title>Node17</title>
<g id="a_node17"><a xlink:href="$GPIO_8h.html" xlink:title="GPIO.h">
<polygon fill="white" stroke="black" points="914.328,-220.5 914.328,-238.5 963.672,-238.5 963.672,-220.5 914.328,-220.5"/>
<text text-anchor="middle" x="939" y="-226.5" font-family="Helvetica,sans-Serif" font-size="10.00">GPIO.h</text>
</a>
</g>
</g>
<!-- Node8&#45;&gt;Node17 -->
<g id="edge55" class="edge"><title>Node8&#45;&gt;Node17</title>
<path fill="none" stroke="midnightblue" d="M891.29,-440.273C883.22,-431.999 871.767,-418.43 867,-404 864.351,-395.982 866.168,-393.403 867,-385 871.913,-335.386 864.207,-318.255 889,-275 895.953,-262.87 907.414,-252.313 917.61,-244.529"/>
<polygon fill="midnightblue" stroke="midnightblue" points="919.679,-247.352 925.751,-238.67 915.59,-241.671 919.679,-247.352"/>
</g>
<!-- Node18 -->
<g id="node18" class="node"><title>Node18</title>
<g id="a_node18"><a xlink:href="$RCInput_8h.html" xlink:title="RCInput.h">
<polygon fill="white" stroke="black" points="1058.49,-275.5 1058.49,-293.5 1119.51,-293.5 1119.51,-275.5 1058.49,-275.5"/>
<text text-anchor="middle" x="1089" y="-281.5" font-family="Helvetica,sans-Serif" font-size="10.00">RCInput.h</text>
</a>
</g>
</g>
<!-- Node8&#45;&gt;Node18 -->
<g id="edge56" class="edge"><title>Node8&#45;&gt;Node18</title>
<path fill="none" stroke="midnightblue" d="M952.151,-444.619C1006.97,-439.328 1087.88,-427.661 1107,-404 1130.56,-374.835 1112.04,-328.025 1099,-302.853"/>
<polygon fill="midnightblue" stroke="midnightblue" points="1101.91,-300.884 1094.05,-293.784 1095.77,-304.239 1101.91,-300.884"/>
</g>
<!-- Node19 -->
<g id="node19" class="node"><title>Node19</title>
<g id="a_node19"><a xlink:href="$RCOutput_8h.html" xlink:title="RCOutput.h">
<polygon fill="white" stroke="black" points="1305.6,-275.5 1305.6,-293.5 1374.4,-293.5 1374.4,-275.5 1305.6,-275.5"/>
<text text-anchor="middle" x="1340" y="-281.5" font-family="Helvetica,sans-Serif" font-size="10.00">RCOutput.h</text>
</a>
</g>
</g>
<!-- Node8&#45;&gt;Node19 -->
<g id="edge57" class="edge"><title>Node8&#45;&gt;Node19</title>
<path fill="none" stroke="midnightblue" d="M952.099,-449.179C1020.62,-448.418 1143.72,-441.288 1241,-404 1281.29,-388.557 1295.59,-383.874 1321,-349 1330.74,-335.63 1335.53,-317.253 1337.86,-303.708"/>
<polygon fill="midnightblue" stroke="midnightblue" points="1341.35,-304.077 1339.3,-293.682 1334.42,-303.087 1341.35,-304.077"/>
</g>
<!-- Node20 -->
<g id="node20" class="node"><title>Node20</title>
<g id="a_node20"><a xlink:href="$SPIDriver_8h.html" xlink:title="SPIDriver.h">
<polygon fill="white" stroke="black" points="897.712,-275.5 897.712,-293.5 964.288,-293.5 964.288,-275.5 897.712,-275.5"/>
<text text-anchor="middle" x="931" y="-281.5" font-family="Helvetica,sans-Serif" font-size="10.00">SPIDriver.h</text>
</a>
</g>
</g>
<!-- Node8&#45;&gt;Node20 -->
<g id="edge52" class="edge"><title>Node8&#45;&gt;Node20</title>
<path fill="none" stroke="midnightblue" d="M892.206,-440.168C882.081,-428.303 866.329,-405.683 872,-385 880.854,-352.71 903.199,-320.277 917.708,-301.583"/>
<polygon fill="midnightblue" stroke="midnightblue" points="920.601,-303.568 924.107,-293.57 915.132,-299.199 920.601,-303.568"/>
</g>
<!-- Node21 -->
<g id="node21" class="node"><title>Node21</title>
<g id="a_node21"><a xlink:href="$Storage_8h.html" xlink:title="Storage.h">
<polygon fill="white" stroke="black" points="567.318,-275.5 567.318,-293.5 626.682,-293.5 626.682,-275.5 567.318,-275.5"/>
<text text-anchor="middle" x="597" y="-281.5" font-family="Helvetica,sans-Serif" font-size="10.00">Storage.h</text>
</a>
</g>
</g>
<!-- Node8&#45;&gt;Node21 -->
<g id="edge54" class="edge"><title>Node8&#45;&gt;Node21</title>
<path fill="none" stroke="midnightblue" d="M847.847,-445.611C781.471,-440.928 671.72,-429.495 641,-404 610.549,-378.729 601.166,-330.267 598.279,-303.821"/>
<polygon fill="midnightblue" stroke="midnightblue" points="601.749,-303.325 597.377,-293.674 594.776,-303.944 601.749,-303.325"/>
</g>
<!-- Node22 -->
<g id="node22" class="node"><title>Node22</title>
<g id="a_node22"><a xlink:href="$UARTDriver_8h.html" xlink:title="UARTDriver.h">
<polygon fill="white" stroke="black" points="683.248,-275.5 683.248,-293.5 760.752,-293.5 760.752,-275.5 683.248,-275.5"/>
<text text-anchor="middle" x="722" y="-281.5" font-family="Helvetica,sans-Serif" font-size="10.00">UARTDriver.h</text>
</a>
</g>
</g>
<!-- Node8&#45;&gt;Node22 -->
<g id="edge48" class="edge"><title>Node8&#45;&gt;Node22</title>
<path fill="none" stroke="midnightblue" d="M847.846,-441.201C804.571,-434.005 747.813,-421.534 733,-404 709.181,-375.805 713.248,-329.257 717.881,-303.699"/>
<polygon fill="midnightblue" stroke="midnightblue" points="721.377,-304.073 719.952,-293.575 714.519,-302.671 721.377,-304.073"/>
</g>
<!-- Node23 -->
<g id="node23" class="node"><title>Node23</title>
<g id="a_node23"><a xlink:href="$BetterStream_8h.html" xlink:title="utility/BetterStream.h">
<polygon fill="white" stroke="black" points="787.594,-220.5 787.594,-238.5 896.406,-238.5 896.406,-220.5 787.594,-220.5"/>
<text text-anchor="middle" x="842" y="-226.5" font-family="Helvetica,sans-Serif" font-size="10.00">utility/BetterStream.h</text>
</a>
</g>
</g>
<!-- Node8&#45;&gt;Node23 -->
<g id="edge70" class="edge"><title>Node8&#45;&gt;Node23</title>
<path fill="none" stroke="midnightblue" d="M890.375,-440.399C881.382,-432.218 868.41,-418.716 862,-404 839.031,-351.265 839.121,-281.413 840.708,-248.771"/>
<polygon fill="midnightblue" stroke="midnightblue" points="844.217,-248.72 841.32,-238.529 837.23,-248.302 844.217,-248.72"/>
</g>
<!-- Node25 -->
<g id="node25" class="node"><title>Node25</title>
<g id="a_node25"><a xlink:href="$Stream_8h.html" xlink:title="Stream.h">
<polygon fill="white" stroke="black" points="1355.71,-165.5 1355.71,-183.5 1412.29,-183.5 1412.29,-165.5 1355.71,-165.5"/>
<text text-anchor="middle" x="1384" y="-171.5" font-family="Helvetica,sans-Serif" font-size="10.00">Stream.h</text>
</a>
</g>
</g>
<!-- Node8&#45;&gt;Node25 -->
<g id="edge69" class="edge"><title>Node8&#45;&gt;Node25</title>
<path fill="none" stroke="midnightblue" d="M952.268,-449.02C1087.79,-448.97 1440,-439.333 1440,-340.5 1440,-340.5 1440,-340.5 1440,-283.5 1440,-247.44 1415.09,-211.441 1398.5,-191.461"/>
<polygon fill="midnightblue" stroke="midnightblue" points="1400.97,-188.972 1391.79,-183.695 1395.68,-193.549 1400.97,-188.972"/>
</g>
<!-- Node26 -->
<g id="node26" class="node"><title>Node26</title>
<g id="a_node26"><a xlink:href="$Print_8h.html" xlink:title="Print.h">
<polygon fill="white" stroke="black" points="1431.55,-110.5 1431.55,-128.5 1476.45,-128.5 1476.45,-110.5 1431.55,-110.5"/>
<text text-anchor="middle" x="1454" y="-116.5" font-family="Helvetica,sans-Serif" font-size="10.00">Print.h</text>
</a>
</g>
</g>
<!-- Node8&#45;&gt;Node26 -->
<g id="edge68" class="edge"><title>Node8&#45;&gt;Node26</title>
<path fill="none" stroke="midnightblue" d="M952.069,-447.745C1088.59,-445.325 1449.29,-435.948 1492,-404 1516.16,-385.928 1516,-370.671 1516,-340.5 1516,-340.5 1516,-340.5 1516,-228.5 1516,-191.422 1488.17,-155.553 1469.81,-135.913"/>
<polygon fill="midnightblue" stroke="midnightblue" points="1472.1,-133.257 1462.62,-128.534 1467.09,-138.14 1472.1,-133.257"/>
</g>
<!-- Node27 -->
<g id="node27" class="node"><title>Node27</title>
<g id="a_node27"><a xlink:href="$I2CDriver_8h.html" xlink:title="I2CDriver.h">
<polygon fill="white" stroke="black" points="707.99,-165.5 707.99,-183.5 774.01,-183.5 774.01,-165.5 707.99,-165.5"/>
<text text-anchor="middle" x="741" y="-171.5" font-family="Helvetica,sans-Serif" font-size="10.00">I2CDriver.h</text>
</a>
</g>
</g>
<!-- Node8&#45;&gt;Node27 -->
<g id="edge49" class="edge"><title>Node8&#45;&gt;Node27</title>
<path fill="none" stroke="midnightblue" d="M848.042,-447.719C776.124,-443.573 655,-424.171 655,-340.5 655,-340.5 655,-340.5 655,-283.5 655,-242.334 693.709,-207.793 719.187,-189.517"/>
<polygon fill="midnightblue" stroke="midnightblue" points="721.314,-192.302 727.562,-183.746 717.342,-186.538 721.314,-192.302"/>
</g>
<!-- Node28 -->
<g id="node28" class="node"><title>Node28</title>
<g id="a_node28"><a xlink:href="$Scheduler_8h.html" xlink:title="Scheduler.h">
<polygon fill="white" stroke="black" points="365.589,-220.5 365.589,-238.5 434.411,-238.5 434.411,-220.5 365.589,-220.5"/>
<text text-anchor="middle" x="400" y="-226.5" font-family="Helvetica,sans-Serif" font-size="10.00">Scheduler.h</text>
</a>
</g>
</g>
<!-- Node8&#45;&gt;Node28 -->
<g id="edge58" class="edge"><title>Node8&#45;&gt;Node28</title>
<path fill="none" stroke="midnightblue" d="M847.768,-446.618C735.532,-442.111 479.053,-429.157 449,-404 402.221,-364.842 398.269,-284.739 399.047,-248.737"/>
<polygon fill="midnightblue" stroke="midnightblue" points="402.546,-248.828 399.418,-238.705 395.551,-248.569 402.546,-248.828"/>
</g>
<!-- Node29 -->
<g id="node29" class="node"><title>Node29</title>
<g id="a_node29"><a xlink:href="$Semaphores_8h.html" xlink:title="Semaphores.h">
<polygon fill="white" stroke="black" points="1230.48,-330.5 1230.48,-348.5 1311.52,-348.5 1311.52,-330.5 1230.48,-330.5"/>
<text text-anchor="middle" x="1271" y="-336.5" font-family="Helvetica,sans-Serif" font-size="10.00">Semaphores.h</text>
</a>
</g>
</g>
<!-- Node8&#45;&gt;Node29 -->
<g id="edge63" class="edge"><title>Node8&#45;&gt;Node29</title>
<path fill="none" stroke="midnightblue" d="M952.207,-445.578C1029.91,-440.494 1171.6,-428.169 1216,-404 1235.76,-393.247 1251.67,-372.405 1261.2,-357.532"/>
<polygon fill="midnightblue" stroke="midnightblue" points="1264.31,-359.149 1266.52,-348.786 1258.33,-355.512 1264.31,-359.149"/>
</g>
<!-- Node30 -->
<g id="node30" class="node"><title>Node30</title>
<g id="a_node30"><a xlink:href="$Util_8h.html" xlink:title="Util.h">
<polygon fill="white" stroke="black" points="1182.61,-220.5 1182.61,-238.5 1221.39,-238.5 1221.39,-220.5 1182.61,-220.5"/>
<text text-anchor="middle" x="1202" y="-226.5" font-family="Helvetica,sans-Serif" font-size="10.00">Util.h</text>
</a>
</g>
</g>
<!-- Node8&#45;&gt;Node30 -->
<g id="edge65" class="edge"><title>Node8&#45;&gt;Node30</title>
<path fill="none" stroke="midnightblue" d="M952.016,-447.328C1023.67,-444.561 1147.4,-435.26 1178,-404 1219.27,-361.844 1211.77,-283.94 1205.72,-248.681"/>
<polygon fill="midnightblue" stroke="midnightblue" points="1209.16,-248.012 1203.87,-238.83 1202.28,-249.305 1209.16,-248.012"/>
</g>
<!-- Node9&#45;&gt;Node7 -->
<g id="edge12" class="edge"><title>Node9&#45;&gt;Node7</title>
<path fill="none" stroke="midnightblue" d="M969.066,-56.8412C866.193,-45.5995 661.322,-23.2114 579.716,-14.2937"/>
<polygon fill="midnightblue" stroke="midnightblue" points="579.811,-10.7834 569.49,-13.1762 579.051,-17.7419 579.811,-10.7834"/>
</g>
<!-- Node10 -->
<g id="node10" class="node"><title>Node10</title>
<g id="a_node10"><a xlink:href="$functor_8h.html" xlink:title="utility/functor.h">
<polygon fill="white" stroke="black" points="990.037,-0.5 990.037,-18.5 1069.96,-18.5 1069.96,-0.5 990.037,-0.5"/>
<text text-anchor="middle" x="1030" y="-6.5" font-family="Helvetica,sans-Serif" font-size="10.00">utility/functor.h</text>
</a>
</g>
</g>
<!-- Node9&#45;&gt;Node10 -->
<g id="edge13" class="edge"><title>Node9&#45;&gt;Node10</title>
<path fill="none" stroke="midnightblue" d="M1030,-55.2188C1030,-48.1769 1030,-37.8083 1030,-28.8277"/>
<polygon fill="midnightblue" stroke="midnightblue" points="1033.5,-28.5495 1030,-18.5496 1026.5,-28.5496 1033.5,-28.5495"/>
</g>
<!-- Node13&#45;&gt;Node14 -->
<g id="edge17" class="edge"><title>Node13&#45;&gt;Node14</title>
<path fill="none" stroke="midnightblue" d="M1046.44,-385.219C1040.36,-377.551 1031.16,-365.939 1023.65,-356.469"/>
<polygon fill="midnightblue" stroke="midnightblue" points="1026.33,-354.213 1017.38,-348.55 1020.85,-358.561 1026.33,-354.213"/>
</g>
<!-- Node14&#45;&gt;Node9 -->
<g id="edge18" class="edge"><title>Node14&#45;&gt;Node9</title>
<path fill="none" stroke="midnightblue" d="M1013.41,-330.456C1018.52,-312.631 1030,-268.386 1030,-230.5 1030,-230.5 1030,-230.5 1030,-173.5 1030,-142.018 1030,-105.373 1030,-83.881"/>
<polygon fill="midnightblue" stroke="midnightblue" points="1033.5,-83.6288 1030,-73.6289 1026.5,-83.6289 1033.5,-83.6288"/>
</g>
<!-- Node14&#45;&gt;Node15 -->
<g id="edge19" class="edge"><title>Node14&#45;&gt;Node15</title>
<path fill="none" stroke="midnightblue" d="M1033.14,-331.744C1092.56,-313.617 1255.93,-263.775 1328.94,-241.503"/>
<polygon fill="midnightblue" stroke="midnightblue" points="1330.07,-244.815 1338.62,-238.549 1328.03,-238.12 1330.07,-244.815"/>
</g>
<!-- Node14&#45;&gt;Node17 -->
<g id="edge22" class="edge"><title>Node14&#45;&gt;Node17</title>
<path fill="none" stroke="midnightblue" d="M1006.37,-330.094C999.492,-317.758 985.978,-294.14 973,-275 966.509,-265.426 958.708,-255.14 952.216,-246.872"/>
<polygon fill="midnightblue" stroke="midnightblue" points="954.775,-244.467 945.811,-238.82 949.298,-248.825 954.775,-244.467"/>
</g>
<!-- Node14&#45;&gt;Node18 -->
<g id="edge25" class="edge"><title>Node14&#45;&gt;Node18</title>
<path fill="none" stroke="midnightblue" d="M1022.85,-330.45C1034.99,-322.201 1054.1,-309.216 1068.66,-299.319"/>
<polygon fill="midnightblue" stroke="midnightblue" points="1070.74,-302.14 1077.04,-293.625 1066.8,-296.351 1070.74,-302.14"/>
</g>
<!-- Node14&#45;&gt;Node19 -->
<g id="edge27" class="edge"><title>Node14&#45;&gt;Node19</title>
<path fill="none" stroke="midnightblue" d="M1033.24,-335.118C1080.78,-327.86 1195.79,-310.135 1292,-294 1293.09,-293.818 1294.18,-293.633 1295.29,-293.445"/>
<polygon fill="midnightblue" stroke="midnightblue" points="1296.14,-296.849 1305.4,-291.704 1294.96,-289.951 1296.14,-296.849"/>
</g>
<!-- Node14&#45;&gt;Node20 -->
<g id="edge29" class="edge"><title>Node14&#45;&gt;Node20</title>
<path fill="none" stroke="midnightblue" d="M998.85,-330.45C986.398,-322.201 966.797,-309.216 951.858,-299.319"/>
<polygon fill="midnightblue" stroke="midnightblue" points="953.534,-296.231 943.265,-293.625 949.668,-302.066 953.534,-296.231"/>
</g>
<!-- Node14&#45;&gt;Node21 -->
<g id="edge31" class="edge"><title>Node14&#45;&gt;Node21</title>
<path fill="none" stroke="midnightblue" d="M989.034,-335.688C922.518,-327.173 722.611,-301.581 636.818,-290.598"/>
<polygon fill="midnightblue" stroke="midnightblue" points="637.06,-287.1 626.697,-289.302 636.171,-294.043 637.06,-287.1"/>
</g>
<!-- Node14&#45;&gt;Node22 -->
<g id="edge34" class="edge"><title>Node14&#45;&gt;Node22</title>
<path fill="none" stroke="midnightblue" d="M988.803,-334.429C942.477,-325.934 834.551,-306.141 771.069,-294.499"/>
<polygon fill="midnightblue" stroke="midnightblue" points="771.366,-290.995 760.898,-292.634 770.103,-297.88 771.366,-290.995"/>
</g>
<!-- Node15&#45;&gt;Node9 -->
<g id="edge21" class="edge"><title>Node15&#45;&gt;Node9</title>
<path fill="none" stroke="midnightblue" d="M1361.26,-220.206C1349.58,-194.467 1313.97,-117.241 1304,-110 1295.67,-103.952 1176.45,-86.1601 1098.04,-74.9909"/>
<polygon fill="midnightblue" stroke="midnightblue" points="1098.13,-71.469 1087.74,-73.5282 1097.15,-78.3994 1098.13,-71.469"/>
</g>
<!-- Node16 -->
<g id="node16" class="node"><title>Node16</title>
<polygon fill="white" stroke="#bfbfbf" points="1474.6,-55.5 1474.6,-73.5 1533.4,-73.5 1533.4,-55.5 1474.6,-55.5"/>
<text text-anchor="middle" x="1504" y="-61.5" font-family="Helvetica,sans-Serif" font-size="10.00">inttypes.h</text>
</g>
<!-- Node15&#45;&gt;Node16 -->
<g id="edge20" class="edge"><title>Node15&#45;&gt;Node16</title>
<path fill="none" stroke="midnightblue" d="M1379.63,-220.437C1405.01,-205.69 1457.15,-171.902 1485,-129 1494.01,-115.126 1498.89,-96.8108 1501.44,-83.417"/>
<polygon fill="midnightblue" stroke="midnightblue" points="1504.9,-83.9658 1503.07,-73.5291 1497.99,-82.8252 1504.9,-83.9658"/>
</g>
<!-- Node17&#45;&gt;Node3 -->
<g id="edge23" class="edge"><title>Node17&#45;&gt;Node3</title>
<path fill="none" stroke="midnightblue" d="M926.286,-220.291C904.575,-206.657 858.563,-179.422 816,-165 741.798,-139.856 650.085,-128.145 601.307,-123.356"/>
<polygon fill="midnightblue" stroke="midnightblue" points="601.571,-119.866 591.287,-122.411 600.914,-126.835 601.571,-119.866"/>
</g>
<!-- Node17&#45;&gt;Node9 -->
<g id="edge24" class="edge"><title>Node17&#45;&gt;Node9</title>
<path fill="none" stroke="midnightblue" d="M940.129,-220.361C943.241,-200.159 953.401,-146.702 978,-110 986.062,-97.9704 998.234,-87.309 1008.77,-79.4395"/>
<polygon fill="midnightblue" stroke="midnightblue" points="1010.99,-82.1591 1017.12,-73.5171 1006.94,-76.4507 1010.99,-82.1591"/>
</g>
<!-- Node18&#45;&gt;Node9 -->
<g id="edge26" class="edge"><title>Node18&#45;&gt;Node9</title>
<path fill="none" stroke="midnightblue" d="M1087,-275.152C1080.93,-250.054 1062.1,-173.115 1044,-110 1041.45,-101.122 1038.4,-91.3243 1035.79,-83.1871"/>
<polygon fill="midnightblue" stroke="midnightblue" points="1039.12,-82.0978 1032.71,-73.6639 1032.46,-84.2559 1039.12,-82.0978"/>
</g>
<!-- Node19&#45;&gt;Node9 -->
<g id="edge28" class="edge"><title>Node19&#45;&gt;Node9</title>
<path fill="none" stroke="midnightblue" d="M1337.02,-275.293C1325,-242.401 1280.1,-121.334 1266,-110 1252.93,-99.4937 1163.07,-84.6163 1098.1,-75.012"/>
<polygon fill="midnightblue" stroke="midnightblue" points="1098.31,-71.5047 1087.91,-73.5173 1097.29,-78.4307 1098.31,-71.5047"/>
</g>
<!-- Node20&#45;&gt;Node9 -->
<g id="edge30" class="edge"><title>Node20&#45;&gt;Node9</title>
<path fill="none" stroke="midnightblue" d="M940.978,-275.27C950.428,-266.993 964.414,-253.423 973,-239 977.122,-232.077 1010.65,-126.727 1024.27,-83.6487"/>
<polygon fill="midnightblue" stroke="midnightblue" points="1027.67,-84.5103 1027.35,-73.9204 1021,-82.4012 1027.67,-84.5103"/>
</g>
<!-- Node21&#45;&gt;Node3 -->
<g id="edge32" class="edge"><title>Node21&#45;&gt;Node3</title>
<path fill="none" stroke="midnightblue" d="M589.763,-275.499C575.866,-259.529 545.86,-221.963 535,-184 532.678,-175.881 532.41,-173.037 535,-165 538.386,-154.491 545.277,-144.366 551.799,-136.437"/>
<polygon fill="midnightblue" stroke="midnightblue" points="554.562,-138.596 558.549,-128.78 549.311,-133.967 554.562,-138.596"/>
</g>
<!-- Node21&#45;&gt;Node9 -->
<g id="edge33" class="edge"><title>Node21&#45;&gt;Node9</title>
<path fill="none" stroke="midnightblue" d="M567.064,-281.059C510.485,-275.951 390.521,-262.608 357,-239 327.704,-218.367 312.772,-198.681 325,-165 335.875,-135.046 342.601,-124.456 371,-110 422.342,-83.8652 799.179,-71.3398 958.838,-67.1622"/>
<polygon fill="midnightblue" stroke="midnightblue" points="959.128,-70.6559 969.035,-66.899 958.948,-63.6583 959.128,-70.6559"/>
</g>
<!-- Node22&#45;&gt;Node2 -->
<g id="edge36" class="edge"><title>Node22&#45;&gt;Node2</title>
<path fill="none" stroke="midnightblue" d="M714.108,-275.382C696.701,-257.479 654.768,-214.347 632.119,-191.051"/>
<polygon fill="midnightblue" stroke="midnightblue" points="634.464,-188.442 624.984,-183.712 629.445,-193.322 634.464,-188.442"/>
</g>
<!-- Node22&#45;&gt;Node3 -->
<g id="edge35" class="edge"><title>Node22&#45;&gt;Node3</title>
<path fill="none" stroke="midnightblue" d="M723.909,-275.147C727.072,-262.466 734.241,-237.939 746,-220 762.151,-195.361 801.612,-187.837 783,-165 760.447,-137.327 656.135,-126.357 601.145,-122.44"/>
<polygon fill="midnightblue" stroke="midnightblue" points="601.375,-118.948 591.163,-121.768 600.905,-125.932 601.375,-118.948"/>
</g>
<!-- Node22&#45;&gt;Node9 -->
<g id="edge37" class="edge"><title>Node22&#45;&gt;Node9</title>
<path fill="none" stroke="midnightblue" d="M728.444,-275.096C738.45,-262.348 758.692,-237.736 779,-220 844.55,-162.752 865.914,-154.002 941,-110 961.247,-98.135 985.067,-86.3319 1002.97,-77.8658"/>
<polygon fill="midnightblue" stroke="midnightblue" points="1004.67,-80.9345 1012.24,-73.5266 1001.7,-74.594 1004.67,-80.9345"/>
</g>
<!-- Node22&#45;&gt;Node23 -->
<g id="edge38" class="edge"><title>Node22&#45;&gt;Node23</title>
<path fill="none" stroke="midnightblue" d="M740.225,-275.45C759.961,-266.734 791.666,-252.731 814.447,-242.669"/>
<polygon fill="midnightblue" stroke="midnightblue" points="815.87,-245.867 823.603,-238.625 813.041,-239.464 815.87,-245.867"/>
</g>
<!-- Node23&#45;&gt;Node2 -->
<g id="edge40" class="edge"><title>Node23&#45;&gt;Node2</title>
<path fill="none" stroke="midnightblue" d="M807.827,-220.45C768.562,-211.201 704.026,-195.999 661.027,-185.871"/>
<polygon fill="midnightblue" stroke="midnightblue" points="661.661,-182.424 651.125,-183.538 660.056,-189.238 661.661,-182.424"/>
</g>
<!-- Node23&#45;&gt;Node9 -->
<g id="edge41" class="edge"><title>Node23&#45;&gt;Node9</title>
<path fill="none" stroke="midnightblue" d="M851.395,-220.493C861.581,-211.731 878.228,-197.173 892,-184 925.16,-152.281 928.79,-139.427 964,-110 977.652,-98.59 994.266,-87.4011 1007.41,-79.0969"/>
<polygon fill="midnightblue" stroke="midnightblue" points="1009.62,-81.8436 1016.27,-73.5981 1005.93,-75.895 1009.62,-81.8436"/>
</g>
<!-- Node24 -->
<g id="node24" class="node"><title>Node24</title>
<polygon fill="white" stroke="#bfbfbf" points="1133.93,-165.5 1133.93,-183.5 1186.07,-183.5 1186.07,-165.5 1133.93,-165.5"/>
<text text-anchor="middle" x="1160" y="-171.5" font-family="Helvetica,sans-Serif" font-size="10.00">stdarg.h</text>
</g>
<!-- Node23&#45;&gt;Node24 -->
<g id="edge39" class="edge"><title>Node23&#45;&gt;Node24</title>
<path fill="none" stroke="midnightblue" d="M890.297,-220.45C954.416,-209.764 1066.22,-191.131 1123.65,-181.558"/>
<polygon fill="midnightblue" stroke="midnightblue" points="1124.43,-184.976 1133.72,-179.879 1123.28,-178.071 1124.43,-184.976"/>
</g>
<!-- Node23&#45;&gt;Node25 -->
<g id="edge42" class="edge"><title>Node23&#45;&gt;Node25</title>
<path fill="none" stroke="midnightblue" d="M896.618,-220.99C899.452,-220.644 902.259,-220.312 905,-220 1068.4,-201.395 1263.82,-185.083 1345.34,-178.545"/>
<polygon fill="midnightblue" stroke="midnightblue" points="1345.92,-182.009 1355.61,-177.724 1345.37,-175.031 1345.92,-182.009"/>
</g>
<!-- Node25&#45;&gt;Node9 -->
<g id="edge43" class="edge"><title>Node25&#45;&gt;Node9</title>
<path fill="none" stroke="midnightblue" d="M1381.13,-165.251C1375.81,-151.303 1363,-123.285 1342,-110 1303.17,-85.4347 1180.99,-73.9483 1101.54,-68.9532"/>
<polygon fill="midnightblue" stroke="midnightblue" points="1101.31,-65.4324 1091.11,-68.319 1100.88,-72.4195 1101.31,-65.4324"/>
</g>
<!-- Node25&#45;&gt;Node26 -->
<g id="edge44" class="edge"><title>Node25&#45;&gt;Node26</title>
<path fill="none" stroke="midnightblue" d="M1394.63,-165.45C1405.32,-157.357 1422.03,-144.704 1435,-134.882"/>
<polygon fill="midnightblue" stroke="midnightblue" points="1437.41,-137.452 1443.27,-128.625 1433.18,-131.871 1437.41,-137.452"/>
</g>
<!-- Node26&#45;&gt;Node7 -->
<g id="edge47" class="edge"><title>Node26&#45;&gt;Node7</title>
<path fill="none" stroke="midnightblue" d="M1431.19,-112.895C1426.82,-111.884 1422.28,-110.874 1418,-110 1277.47,-81.2848 1242.3,-72.9727 1100,-55 903.909,-30.2335 666.998,-16.6411 579.571,-12.1727"/>
<polygon fill="midnightblue" stroke="midnightblue" points="579.589,-8.66926 569.426,-11.6611 579.237,-15.6604 579.589,-8.66926"/>
</g>
<!-- Node26&#45;&gt;Node9 -->
<g id="edge45" class="edge"><title>Node26&#45;&gt;Node9</title>
<path fill="none" stroke="midnightblue" d="M1431.23,-112.697C1426.86,-111.704 1422.3,-110.752 1418,-110 1308.22,-90.8125 1179.46,-77.9192 1101.35,-71.1475"/>
<polygon fill="midnightblue" stroke="midnightblue" points="1101.4,-67.6394 1091.14,-70.2724 1100.8,-74.6138 1101.4,-67.6394"/>
</g>
<!-- Node26&#45;&gt;Node16 -->
<g id="edge46" class="edge"><title>Node26&#45;&gt;Node16</title>
<path fill="none" stroke="midnightblue" d="M1461.81,-110.219C1469.19,-102.394 1480.45,-90.4631 1489.48,-80.8921"/>
<polygon fill="midnightblue" stroke="midnightblue" points="1492.09,-83.2253 1496.41,-73.5496 1487,-78.4217 1492.09,-83.2253"/>
</g>
<!-- Node27&#45;&gt;Node3 -->
<g id="edge50" class="edge"><title>Node27&#45;&gt;Node3</title>
<path fill="none" stroke="midnightblue" d="M714.573,-165.45C684.16,-156.187 634.14,-140.951 600.888,-130.822"/>
<polygon fill="midnightblue" stroke="midnightblue" points="601.733,-127.421 591.147,-127.855 599.693,-134.117 601.733,-127.421"/>
</g>
<!-- Node27&#45;&gt;Node9 -->
<g id="edge51" class="edge"><title>Node27&#45;&gt;Node9</title>
<path fill="none" stroke="midnightblue" d="M754.21,-165.472C776.272,-152.344 822.313,-126.132 864,-110 902.204,-95.2153 947.177,-83.4894 980.669,-75.7939"/>
<polygon fill="midnightblue" stroke="midnightblue" points="981.69,-79.1516 990.674,-73.5361 980.149,-72.3233 981.69,-79.1516"/>
</g>
<!-- Node28&#45;&gt;Node2 -->
<g id="edge60" class="edge"><title>Node28&#45;&gt;Node2</title>
<path fill="none" stroke="midnightblue" d="M432.958,-220.45C470.747,-211.221 532.806,-196.063 574.276,-185.935"/>
<polygon fill="midnightblue" stroke="midnightblue" points="575.204,-189.311 584.088,-183.538 573.544,-182.511 575.204,-189.311"/>
</g>
<!-- Node28&#45;&gt;Node3 -->
<g id="edge59" class="edge"><title>Node28&#45;&gt;Node3</title>
<path fill="none" stroke="midnightblue" d="M382.554,-220.368C359.554,-208.562 323.891,-185.806 341,-165 364.851,-135.995 475.344,-125.597 532.515,-122.116"/>
<polygon fill="midnightblue" stroke="midnightblue" points="532.752,-125.608 542.536,-121.544 532.353,-118.62 532.752,-125.608"/>
</g>
<!-- Node28&#45;&gt;Node9 -->
<g id="edge62" class="edge"><title>Node28&#45;&gt;Node9</title>
<path fill="none" stroke="midnightblue" d="M379.447,-220.341C353.973,-209.028 315.889,-187.423 333,-165 389.187,-91.3727 442.851,-126.425 534,-110 683.619,-83.0388 861.714,-72.1205 958.574,-67.9264"/>
<polygon fill="midnightblue" stroke="midnightblue" points="958.989,-71.4121 968.833,-67.4943 958.695,-64.4183 958.989,-71.4121"/>
</g>
<!-- Node28&#45;&gt;Node11 -->
<g id="edge61" class="edge"><title>Node28&#45;&gt;Node11</title>
<path fill="none" stroke="midnightblue" d="M400,-220.219C400,-213.177 400,-202.808 400,-193.828"/>
<polygon fill="midnightblue" stroke="midnightblue" points="403.5,-193.55 400,-183.55 396.5,-193.55 403.5,-193.55"/>
</g>
<!-- Node29&#45;&gt;Node9 -->
<g id="edge64" class="edge"><title>Node29&#45;&gt;Node9</title>
<path fill="none" stroke="midnightblue" d="M1270.14,-330.307C1266.05,-296.031 1245.24,-163.441 1164,-110 1139.21,-93.6948 1107.91,-82.8602 1081.79,-75.9682"/>
<polygon fill="midnightblue" stroke="midnightblue" points="1082.61,-72.5657 1072.06,-73.5166 1080.9,-79.3536 1082.61,-72.5657"/>
</g>
<!-- Node30&#45;&gt;Node9 -->
<g id="edge67" class="edge"><title>Node30&#45;&gt;Node9</title>
<path fill="none" stroke="midnightblue" d="M1203.26,-220.336C1204.8,-207.475 1205.99,-182.192 1195,-165 1165.47,-118.823 1106.14,-90.995 1067.26,-76.9449"/>
<polygon fill="midnightblue" stroke="midnightblue" points="1067.96,-73.4819 1057.36,-73.5051 1065.66,-80.094 1067.96,-73.4819"/>
</g>
<!-- Node30&#45;&gt;Node24 -->
<g id="edge66" class="edge"><title>Node30&#45;&gt;Node24</title>
<path fill="none" stroke="midnightblue" d="M1195.44,-220.219C1189.36,-212.551 1180.16,-200.939 1172.65,-191.469"/>
<polygon fill="midnightblue" stroke="midnightblue" points="1175.33,-189.213 1166.38,-183.55 1169.85,-193.561 1175.33,-189.213"/>
</g>
<!-- Node32&#45;&gt;Node8 -->
<g id="edge77" class="edge"><title>Node32&#45;&gt;Node8</title>
<path fill="none" stroke="midnightblue" d="M900,-495.219C900,-488.177 900,-477.808 900,-468.828"/>
<polygon fill="midnightblue" stroke="midnightblue" points="903.5,-468.55 900,-458.55 896.5,-468.55 903.5,-468.55"/>
</g>
<!-- Node32&#45;&gt;Node16 -->
<g id="edge76" class="edge"><title>Node32&#45;&gt;Node16</title>
<path fill="none" stroke="midnightblue" d="M934.241,-501.505C1068.81,-493.218 1554,-458.938 1554,-395.5 1554,-395.5 1554,-395.5 1554,-173.5 1554,-138.202 1531.73,-101.919 1516.92,-81.6855"/>
<polygon fill="midnightblue" stroke="midnightblue" points="1519.59,-79.4128 1510.74,-73.5793 1514.02,-83.6549 1519.59,-79.4128"/>
</g>
</g>
</svg>
