<?xml version="1.0" encoding="UTF-8" standalone="no"?>
<!DOCTYPE svg PUBLIC "-//W3C//DTD SVG 1.1//EN"
 "http://www.w3.org/Graphics/SVG/1.1/DTD/svg11.dtd">
<!-- Generated by graphviz version 2.38.0 (20140413.2041)
 -->
<!-- Title: pgm_read_float Pages: 1 -->
<svg width="663pt" height="196pt"
 viewBox="0.00 0.00 663.18 196.00" xmlns="http://www.w3.org/2000/svg" xmlns:xlink="http://www.w3.org/1999/xlink">
<g id="graph0" class="graph" transform="scale(1 1) rotate(0) translate(4 192)">
<title>pgm_read_float</title>
<polygon fill="white" stroke="none" points="-4,4 -4,-192 659.182,-192 659.182,4 -4,4"/>
<!-- Node1 -->
<g id="node1" class="node"><title>Node1</title>
<polygon fill="#bfbfbf" stroke="black" points="0,-73.5 0,-91.5 85.4922,-91.5 85.4922,-73.5 0,-73.5"/>
<text text-anchor="middle" x="42.7461" y="-79.5" font-family="Helvetica,sans-Serif" font-size="10.00">pgm_read_float</text>
</g>
<!-- Node2 -->
<g id="node2" class="node"><title>Node2</title>
<g id="a_node2"><a xlink:href="$classAP__AutoTune.html#a3e516a14471f759d1506f5d758043a14" xlink:title="AP_AutoTune::check\l_state_exit">
<polygon fill="white" stroke="black" points="121.492,-89.5 121.492,-117.5 231.071,-117.5 231.071,-89.5 121.492,-89.5"/>
<text text-anchor="start" x="129.492" y="-105.5" font-family="Helvetica,sans-Serif" font-size="10.00">AP_AutoTune::check</text>
<text text-anchor="middle" x="176.282" y="-95.5" font-family="Helvetica,sans-Serif" font-size="10.00">_state_exit</text>
</a>
</g>
</g>
<!-- Node1&#45;&gt;Node2 -->
<g id="edge1" class="edge"><title>Node1&#45;&gt;Node2</title>
<path fill="none" stroke="midnightblue" d="M95.7381,-90.8007C104.104,-92.1363 112.782,-93.5217 121.195,-94.865"/>
<polygon fill="midnightblue" stroke="midnightblue" points="96.1532,-87.3227 85.7264,-89.2023 95.0496,-94.2351 96.1532,-87.3227"/>
</g>
<!-- Node10 -->
<g id="node10" class="node"><title>Node10</title>
<g id="a_node10"><a xlink:href="$classAP__AutoTune.html#a110fe2abe9d166b62092a16d0fa2c70a" xlink:title="AP_AutoTune::start">
<polygon fill="white" stroke="black" points="124.83,-52.5 124.83,-70.5 227.734,-70.5 227.734,-52.5 124.83,-52.5"/>
<text text-anchor="middle" x="176.282" y="-58.5" font-family="Helvetica,sans-Serif" font-size="10.00">AP_AutoTune::start</text>
</a>
</g>
</g>
<!-- Node1&#45;&gt;Node10 -->
<g id="edge9" class="edge"><title>Node1&#45;&gt;Node10</title>
<path fill="none" stroke="midnightblue" d="M95.7859,-74.1917C105.236,-72.683 115.081,-71.1112 124.494,-69.6084"/>
<polygon fill="midnightblue" stroke="midnightblue" points="95.0496,-70.7649 85.7264,-75.7977 96.1532,-77.6773 95.0496,-70.7649"/>
</g>
<!-- Node3 -->
<g id="node3" class="node"><title>Node3</title>
<g id="a_node3"><a xlink:href="$classAP__AutoTune.html#af5c523db0ac4313e8098fec4b8f5f2f1" xlink:title="AP_AutoTune::update">
<polygon fill="white" stroke="black" points="267.071,-94.5 267.071,-112.5 381.113,-112.5 381.113,-94.5 267.071,-94.5"/>
<text text-anchor="middle" x="324.092" y="-100.5" font-family="Helvetica,sans-Serif" font-size="10.00">AP_AutoTune::update</text>
</a>
</g>
</g>
<!-- Node2&#45;&gt;Node3 -->
<g id="edge2" class="edge"><title>Node2&#45;&gt;Node3</title>
<path fill="none" stroke="midnightblue" d="M241.436,-103.5C249.951,-103.5 258.628,-103.5 266.992,-103.5"/>
<polygon fill="midnightblue" stroke="midnightblue" points="241.162,-100 231.162,-103.5 241.162,-107 241.162,-100"/>
</g>
<!-- Node4 -->
<g id="node4" class="node"><title>Node4</title>
<g id="a_node4"><a xlink:href="$classAP__PitchController.html#a4613b491d225c7ee7eac435f79d7c495" xlink:title="AP_PitchController\l::_get_rate_out">
<polygon fill="white" stroke="black" points="417.389,-112.5 417.389,-140.5 517.872,-140.5 517.872,-112.5 417.389,-112.5"/>
<text text-anchor="start" x="425.389" y="-128.5" font-family="Helvetica,sans-Serif" font-size="10.00">AP_PitchController</text>
<text text-anchor="middle" x="467.63" y="-118.5" font-family="Helvetica,sans-Serif" font-size="10.00">::_get_rate_out</text>
</a>
</g>
</g>
<!-- Node3&#45;&gt;Node4 -->
<g id="edge3" class="edge"><title>Node3&#45;&gt;Node4</title>
<path fill="none" stroke="midnightblue" d="M390.645,-114.152C399.589,-115.606 408.644,-117.077 417.236,-118.473"/>
<polygon fill="midnightblue" stroke="midnightblue" points="391.058,-110.674 380.626,-112.524 389.935,-117.583 391.058,-110.674"/>
</g>
<!-- Node7 -->
<g id="node7" class="node"><title>Node7</title>
<g id="a_node7"><a xlink:href="$classAP__RollController.html#a702a5fbdae8598e86dc2aa73b8f59089" xlink:title="AP_RollController::\l_get_rate_out">
<polygon fill="white" stroke="black" points="417.113,-65.5 417.113,-93.5 518.147,-93.5 518.147,-65.5 417.113,-65.5"/>
<text text-anchor="start" x="425.113" y="-81.5" font-family="Helvetica,sans-Serif" font-size="10.00">AP_RollController::</text>
<text text-anchor="middle" x="467.63" y="-71.5" font-family="Helvetica,sans-Serif" font-size="10.00">_get_rate_out</text>
</a>
</g>
</g>
<!-- Node3&#45;&gt;Node7 -->
<g id="edge6" class="edge"><title>Node3&#45;&gt;Node7</title>
<path fill="none" stroke="midnightblue" d="M388.158,-92.8062C397.812,-91.1692 407.66,-89.4994 416.97,-87.9206"/>
<polygon fill="midnightblue" stroke="midnightblue" points="387.473,-89.3724 378.199,-94.495 388.643,-96.2739 387.473,-89.3724"/>
</g>
<!-- Node5 -->
<g id="node5" class="node"><title>Node5</title>
<g id="a_node5"><a xlink:href="$classAP__PitchController.html#ad305f4274a77eaffb5b0dc064cfc31ba" xlink:title="AP_PitchController\l::get_rate_out">
<polygon fill="white" stroke="black" points="554.423,-159.5 554.423,-187.5 654.906,-187.5 654.906,-159.5 554.423,-159.5"/>
<text text-anchor="start" x="562.423" y="-175.5" font-family="Helvetica,sans-Serif" font-size="10.00">AP_PitchController</text>
<text text-anchor="middle" x="604.665" y="-165.5" font-family="Helvetica,sans-Serif" font-size="10.00">::get_rate_out</text>
</a>
</g>
</g>
<!-- Node4&#45;&gt;Node5 -->
<g id="edge4" class="edge"><title>Node4&#45;&gt;Node5</title>
<path fill="none" stroke="midnightblue" d="M518.594,-143.89C533.282,-149.003 549.161,-154.53 563.178,-159.408"/>
<polygon fill="midnightblue" stroke="midnightblue" points="519.74,-140.583 509.145,-140.602 517.439,-147.194 519.74,-140.583"/>
</g>
<!-- Node6 -->
<g id="node6" class="node"><title>Node6</title>
<g id="a_node6"><a xlink:href="$classAP__PitchController.html#a705d9814ebad894375332f012dd768df" xlink:title="AP_PitchController\l::get_servo_out">
<polygon fill="white" stroke="black" points="554.423,-112.5 554.423,-140.5 654.906,-140.5 654.906,-112.5 554.423,-112.5"/>
<text text-anchor="start" x="562.423" y="-128.5" font-family="Helvetica,sans-Serif" font-size="10.00">AP_PitchController</text>
<text text-anchor="middle" x="604.665" y="-118.5" font-family="Helvetica,sans-Serif" font-size="10.00">::get_servo_out</text>
</a>
</g>
</g>
<!-- Node4&#45;&gt;Node6 -->
<g id="edge5" class="edge"><title>Node4&#45;&gt;Node6</title>
<path fill="none" stroke="midnightblue" d="M528.204,-126.5C536.871,-126.5 545.716,-126.5 554.156,-126.5"/>
<polygon fill="midnightblue" stroke="midnightblue" points="528.145,-123 518.145,-126.5 528.145,-130 528.145,-123"/>
</g>
<!-- Node8 -->
<g id="node8" class="node"><title>Node8</title>
<g id="a_node8"><a xlink:href="$classAP__RollController.html#a8cf832c8a75c50c1fd4caf4eace7b34f" xlink:title="AP_RollController::\lget_rate_out">
<polygon fill="white" stroke="black" points="554.147,-65.5 554.147,-93.5 655.182,-93.5 655.182,-65.5 554.147,-65.5"/>
<text text-anchor="start" x="562.147" y="-81.5" font-family="Helvetica,sans-Serif" font-size="10.00">AP_RollController::</text>
<text text-anchor="middle" x="604.665" y="-71.5" font-family="Helvetica,sans-Serif" font-size="10.00">get_rate_out</text>
</a>
</g>
</g>
<!-- Node7&#45;&gt;Node8 -->
<g id="edge7" class="edge"><title>Node7&#45;&gt;Node8</title>
<path fill="none" stroke="midnightblue" d="M528.712,-79.5C537.154,-79.5 545.752,-79.5 553.972,-79.5"/>
<polygon fill="midnightblue" stroke="midnightblue" points="528.528,-76.0001 518.528,-79.5 528.528,-83.0001 528.528,-76.0001"/>
</g>
<!-- Node9 -->
<g id="node9" class="node"><title>Node9</title>
<g id="a_node9"><a xlink:href="$classAP__RollController.html#a8995f6c95b27e132a6aa49f5fe9512ae" xlink:title="AP_RollController::\lget_servo_out">
<polygon fill="white" stroke="black" points="554.147,-18.5 554.147,-46.5 655.182,-46.5 655.182,-18.5 554.147,-18.5"/>
<text text-anchor="start" x="562.147" y="-34.5" font-family="Helvetica,sans-Serif" font-size="10.00">AP_RollController::</text>
<text text-anchor="middle" x="604.665" y="-24.5" font-family="Helvetica,sans-Serif" font-size="10.00">get_servo_out</text>
</a>
</g>
</g>
<!-- Node7&#45;&gt;Node9 -->
<g id="edge8" class="edge"><title>Node7&#45;&gt;Node9</title>
<path fill="none" stroke="midnightblue" d="M518.594,-62.1097C533.282,-56.9974 549.161,-51.4705 563.178,-46.5916"/>
<polygon fill="midnightblue" stroke="midnightblue" points="517.439,-58.8057 509.145,-65.3985 519.74,-65.4167 517.439,-58.8057"/>
</g>
<!-- Node11 -->
<g id="node11" class="node"><title>Node11</title>
<g id="a_node11"><a xlink:href="$classAP__PitchController.html#a05c42812c984b58c06befc2c798dd8ad" xlink:title="AP_PitchController\l::autotune_start">
<polygon fill="white" stroke="black" points="273.851,-47.5 273.851,-75.5 374.333,-75.5 374.333,-47.5 273.851,-47.5"/>
<text text-anchor="start" x="281.851" y="-63.5" font-family="Helvetica,sans-Serif" font-size="10.00">AP_PitchController</text>
<text text-anchor="middle" x="324.092" y="-53.5" font-family="Helvetica,sans-Serif" font-size="10.00">::autotune_start</text>
</a>
</g>
</g>
<!-- Node10&#45;&gt;Node11 -->
<g id="edge10" class="edge"><title>Node10&#45;&gt;Node11</title>
<path fill="none" stroke="midnightblue" d="M238.11,-61.5C249.927,-61.5 262.179,-61.5 273.578,-61.5"/>
<polygon fill="midnightblue" stroke="midnightblue" points="237.87,-58.0001 227.87,-61.5 237.87,-65.0001 237.87,-58.0001"/>
</g>
<!-- Node12 -->
<g id="node12" class="node"><title>Node12</title>
<g id="a_node12"><a xlink:href="$classAP__RollController.html#a0486f738e1d44c9e620d97e663779620" xlink:title="AP_RollController::\lautotune_start">
<polygon fill="white" stroke="black" points="273.575,-0.5 273.575,-28.5 374.609,-28.5 374.609,-0.5 273.575,-0.5"/>
<text text-anchor="start" x="281.575" y="-16.5" font-family="Helvetica,sans-Serif" font-size="10.00">AP_RollController::</text>
<text text-anchor="middle" x="324.092" y="-6.5" font-family="Helvetica,sans-Serif" font-size="10.00">autotune_start</text>
</a>
</g>
</g>
<!-- Node10&#45;&gt;Node12 -->
<g id="edge11" class="edge"><title>Node10&#45;&gt;Node12</title>
<path fill="none" stroke="midnightblue" d="M214.978,-49.3492C234.729,-42.9826 259.018,-35.1536 279.566,-28.5299"/>
<polygon fill="midnightblue" stroke="midnightblue" points="213.839,-46.0387 205.395,-52.4379 215.987,-52.7012 213.839,-46.0387"/>
</g>
</g>
</svg>
