<?xml version="1.0" encoding="UTF-8" standalone="no"?>
<!DOCTYPE svg PUBLIC "-//W3C//DTD SVG 1.1//EN"
 "http://www.w3.org/Graphics/SVG/1.1/DTD/svg11.dtd">
<!-- Generated by graphviz version 2.38.0 (20140413.2041)
 -->
<!-- Title: libraries/AP_HAL_SITL/AP_HAL_SITL_Namespace.h Pages: 1 -->
<svg width="2148pt" height="297pt"
 viewBox="0.00 0.00 2147.57 297.00" xmlns="http://www.w3.org/2000/svg" xmlns:xlink="http://www.w3.org/1999/xlink">
<g id="graph0" class="graph" transform="scale(1 1) rotate(0) translate(4 293)">
<title>libraries/AP_HAL_SITL/AP_HAL_SITL_Namespace.h</title>
<polygon fill="white" stroke="none" points="-4,4 -4,-293 2143.57,-293 2143.57,4 -4,4"/>
<!-- Node1 -->
<g id="node1" class="node"><title>Node1</title>
<polygon fill="#bfbfbf" stroke="black" points="1447.62,-260.5 1447.62,-288.5 1598.69,-288.5 1598.69,-260.5 1447.62,-260.5"/>
<text text-anchor="start" x="1455.62" y="-276.5" font-family="Helvetica,sans-Serif" font-size="10.00">libraries/AP_HAL_SITL</text>
<text text-anchor="middle" x="1523.15" y="-266.5" font-family="Helvetica,sans-Serif" font-size="10.00">/AP_HAL_SITL_Namespace.h</text>
</g>
<!-- Node2 -->
<g id="node2" class="node"><title>Node2</title>
<g id="a_node2"><a xlink:href="$HAL__SITL__Class_8h.html" xlink:title="libraries/AP_HAL_SITL\l/HAL_SITL_Class.h">
<polygon fill="white" stroke="black" points="871.743,-195.5 871.743,-223.5 990.566,-223.5 990.566,-195.5 871.743,-195.5"/>
<text text-anchor="start" x="879.743" y="-211.5" font-family="Helvetica,sans-Serif" font-size="10.00">libraries/AP_HAL_SITL</text>
<text text-anchor="middle" x="931.155" y="-201.5" font-family="Helvetica,sans-Serif" font-size="10.00">/HAL_SITL_Class.h</text>
</a>
</g>
</g>
<!-- Node1&#45;&gt;Node2 -->
<g id="edge1" class="edge"><title>Node1&#45;&gt;Node2</title>
<path fill="none" stroke="midnightblue" d="M1437.55,-264.39C1315.9,-251.444 1096.08,-228.051 990.672,-216.834"/>
<polygon fill="midnightblue" stroke="midnightblue" points="1437.26,-267.879 1447.58,-265.457 1438,-260.918 1437.26,-267.879"/>
</g>
<!-- Node5 -->
<g id="node5" class="node"><title>Node5</title>
<g id="a_node5"><a xlink:href="$SITL__State_8h.html" xlink:title="libraries/AP_HAL_SITL\l/SITL_State.h">
<polygon fill="white" stroke="black" points="1095.74,-65.5 1095.74,-93.5 1214.57,-93.5 1214.57,-65.5 1095.74,-65.5"/>
<text text-anchor="start" x="1103.74" y="-81.5" font-family="Helvetica,sans-Serif" font-size="10.00">libraries/AP_HAL_SITL</text>
<text text-anchor="middle" x="1155.15" y="-71.5" font-family="Helvetica,sans-Serif" font-size="10.00">/SITL_State.h</text>
</a>
</g>
</g>
<!-- Node1&#45;&gt;Node5 -->
<g id="edge33" class="edge"><title>Node1&#45;&gt;Node5</title>
<path fill="none" stroke="midnightblue" d="M1508.73,-251.827C1484.25,-215.686 1434.73,-145.532 1409.15,-130 1337.56,-86.5156 1306.37,-110.042 1224.15,-94 1221.04,-93.3922 1217.85,-92.7686 1214.62,-92.1387"/>
<polygon fill="midnightblue" stroke="midnightblue" points="1505.9,-253.887 1514.39,-260.228 1511.71,-249.978 1505.9,-253.887"/>
</g>
<!-- Node6 -->
<g id="node6" class="node"><title>Node6</title>
<g id="a_node6"><a xlink:href="$AP__HAL__SITL__Private_8h.html" xlink:title="libraries/AP_HAL_SITL\l/AP_HAL_SITL_Private.h">
<polygon fill="white" stroke="black" points="1852.74,-0.5 1852.74,-28.5 1981.57,-28.5 1981.57,-0.5 1852.74,-0.5"/>
<text text-anchor="start" x="1860.74" y="-16.5" font-family="Helvetica,sans-Serif" font-size="10.00">libraries/AP_HAL_SITL</text>
<text text-anchor="middle" x="1917.15" y="-6.5" font-family="Helvetica,sans-Serif" font-size="10.00">/AP_HAL_SITL_Private.h</text>
</a>
</g>
</g>
<!-- Node1&#45;&gt;Node6 -->
<g id="edge37" class="edge"><title>Node1&#45;&gt;Node6</title>
<path fill="none" stroke="midnightblue" d="M1608.81,-269.994C1731.12,-264.094 1943.73,-250.178 1967.15,-224 2018.78,-166.298 1953.51,-64.7191 1927.21,-28.6557"/>
<polygon fill="midnightblue" stroke="midnightblue" points="1608.53,-266.503 1598.71,-270.472 1608.87,-273.495 1608.53,-266.503"/>
</g>
<!-- Node7 -->
<g id="node7" class="node"><title>Node7</title>
<g id="a_node7"><a xlink:href="$HAL__SITL__Class_8cpp.html" xlink:title="libraries/AP_HAL_SITL\l/HAL_SITL_Class.cpp">
<polygon fill="white" stroke="black" points="1319.74,-0.5 1319.74,-28.5 1438.57,-28.5 1438.57,-0.5 1319.74,-0.5"/>
<text text-anchor="start" x="1327.74" y="-16.5" font-family="Helvetica,sans-Serif" font-size="10.00">libraries/AP_HAL_SITL</text>
<text text-anchor="middle" x="1379.15" y="-6.5" font-family="Helvetica,sans-Serif" font-size="10.00">/HAL_SITL_Class.cpp</text>
</a>
</g>
</g>
<!-- Node1&#45;&gt;Node7 -->
<g id="edge56" class="edge"><title>Node1&#45;&gt;Node7</title>
<path fill="none" stroke="midnightblue" d="M1532.75,-251.001C1548.69,-209.722 1575.05,-120.993 1534.15,-65 1512.41,-35.2307 1472.56,-22.949 1438.71,-18.0617"/>
<polygon fill="midnightblue" stroke="midnightblue" points="1529.44,-249.841 1528.97,-260.425 1535.94,-252.448 1529.44,-249.841"/>
</g>
<!-- Node8 -->
<g id="node8" class="node"><title>Node8</title>
<g id="a_node8"><a xlink:href="$sitl__ins_8cpp.html" xlink:title="libraries/AP_HAL_SITL\l/sitl_ins.cpp">
<polygon fill="white" stroke="black" points="248.743,-0.5 248.743,-28.5 367.566,-28.5 367.566,-0.5 248.743,-0.5"/>
<text text-anchor="start" x="256.743" y="-16.5" font-family="Helvetica,sans-Serif" font-size="10.00">libraries/AP_HAL_SITL</text>
<text text-anchor="middle" x="308.155" y="-6.5" font-family="Helvetica,sans-Serif" font-size="10.00">/sitl_ins.cpp</text>
</a>
</g>
</g>
<!-- Node1&#45;&gt;Node8 -->
<g id="edge62" class="edge"><title>Node1&#45;&gt;Node8</title>
<path fill="none" stroke="midnightblue" d="M1437.05,-271.396C1228.37,-265.948 699.911,-249.964 525.155,-224 289.944,-189.054 152.453,-281.463 6.15455,-94 -1.77513,-83.8391 -2.18971,-74.8233 6.15455,-65 36.6384,-29.1129 169.686,-19.191 248.657,-16.4827"/>
<polygon fill="midnightblue" stroke="midnightblue" points="1437.26,-274.903 1447.35,-271.663 1437.44,-267.905 1437.26,-274.903"/>
</g>
<!-- Node16 -->
<g id="node16" class="node"><title>Node16</title>
<g id="a_node16"><a xlink:href="$SITL__cmdline_8cpp.html" xlink:title="libraries/AP_HAL_SITL\l/SITL_cmdline.cpp">
<polygon fill="white" stroke="black" points="161.743,-65.5 161.743,-93.5 280.566,-93.5 280.566,-65.5 161.743,-65.5"/>
<text text-anchor="start" x="169.743" y="-81.5" font-family="Helvetica,sans-Serif" font-size="10.00">libraries/AP_HAL_SITL</text>
<text text-anchor="middle" x="221.155" y="-71.5" font-family="Helvetica,sans-Serif" font-size="10.00">/SITL_cmdline.cpp</text>
</a>
</g>
</g>
<!-- Node1&#45;&gt;Node16 -->
<g id="edge59" class="edge"><title>Node1&#45;&gt;Node16</title>
<path fill="none" stroke="midnightblue" d="M1437.42,-269.995C1311.25,-264.176 1068.29,-250.448 863.155,-224 704.504,-203.545 665.127,-194.509 509.155,-159 421.736,-139.098 320.945,-110.245 264.778,-93.6283"/>
<polygon fill="midnightblue" stroke="midnightblue" points="1437.27,-273.492 1447.42,-270.451 1437.58,-266.499 1437.27,-273.492"/>
</g>
<!-- Node17 -->
<g id="node17" class="node"><title>Node17</title>
<g id="a_node17"><a xlink:href="$sitl__compass_8cpp.html" xlink:title="libraries/AP_HAL_SITL\l/sitl_compass.cpp">
<polygon fill="white" stroke="black" points="24.7434,-65.5 24.7434,-93.5 143.566,-93.5 143.566,-65.5 24.7434,-65.5"/>
<text text-anchor="start" x="32.7434" y="-81.5" font-family="Helvetica,sans-Serif" font-size="10.00">libraries/AP_HAL_SITL</text>
<text text-anchor="middle" x="84.1545" y="-71.5" font-family="Helvetica,sans-Serif" font-size="10.00">/sitl_compass.cpp</text>
</a>
</g>
</g>
<!-- Node1&#45;&gt;Node17 -->
<g id="edge60" class="edge"><title>Node1&#45;&gt;Node17</title>
<path fill="none" stroke="midnightblue" d="M1437.06,-273.282C1283.03,-271.828 950.453,-263.854 673.155,-224 546.272,-205.764 516.714,-189.276 392.155,-159 300.866,-136.811 194.777,-109.416 133.948,-93.5537"/>
<polygon fill="midnightblue" stroke="midnightblue" points="1437.36,-276.785 1447.39,-273.372 1437.43,-269.785 1437.36,-276.785"/>
</g>
<!-- Node18 -->
<g id="node18" class="node"><title>Node18</title>
<g id="a_node18"><a xlink:href="$sitl__gps_8cpp.html" xlink:title="libraries/AP_HAL_SITL\l/sitl_gps.cpp">
<polygon fill="white" stroke="black" points="1406.74,-65.5 1406.74,-93.5 1525.57,-93.5 1525.57,-65.5 1406.74,-65.5"/>
<text text-anchor="start" x="1414.74" y="-81.5" font-family="Helvetica,sans-Serif" font-size="10.00">libraries/AP_HAL_SITL</text>
<text text-anchor="middle" x="1466.15" y="-71.5" font-family="Helvetica,sans-Serif" font-size="10.00">/sitl_gps.cpp</text>
</a>
</g>
</g>
<!-- Node1&#45;&gt;Node18 -->
<g id="edge61" class="edge"><title>Node1&#45;&gt;Node18</title>
<path fill="none" stroke="midnightblue" d="M1516.4,-250.637C1504.37,-209.886 1479.58,-125.944 1470.02,-93.6033"/>
<polygon fill="midnightblue" stroke="midnightblue" points="1513.05,-251.635 1519.24,-260.234 1519.76,-249.652 1513.05,-251.635"/>
</g>
<!-- Node20 -->
<g id="node20" class="node"><title>Node20</title>
<g id="a_node20"><a xlink:href="$SITL__State_8cpp.html" xlink:title="libraries/AP_HAL_SITL\l/SITL_State.cpp">
<polygon fill="white" stroke="black" points="1694.74,-65.5 1694.74,-93.5 1813.57,-93.5 1813.57,-65.5 1694.74,-65.5"/>
<text text-anchor="start" x="1702.74" y="-81.5" font-family="Helvetica,sans-Serif" font-size="10.00">libraries/AP_HAL_SITL</text>
<text text-anchor="middle" x="1754.15" y="-71.5" font-family="Helvetica,sans-Serif" font-size="10.00">/SITL_State.cpp</text>
</a>
</g>
</g>
<!-- Node1&#45;&gt;Node20 -->
<g id="edge63" class="edge"><title>Node1&#45;&gt;Node20</title>
<path fill="none" stroke="midnightblue" d="M1572.94,-256.964C1618.69,-239.392 1685.4,-207.398 1726.15,-159 1742.37,-139.743 1749.48,-110.398 1752.37,-93.5752"/>
<polygon fill="midnightblue" stroke="midnightblue" points="1571.65,-253.71 1563.51,-260.496 1574.1,-260.265 1571.65,-253.71"/>
</g>
<!-- Node21 -->
<g id="node21" class="node"><title>Node21</title>
<g id="a_node21"><a xlink:href="$SITL_2AnalogIn_8h.html" xlink:title="libraries/AP_HAL_SITL\l/AnalogIn.h">
<polygon fill="white" stroke="black" points="1281.74,-130.5 1281.74,-158.5 1400.57,-158.5 1400.57,-130.5 1281.74,-130.5"/>
<text text-anchor="start" x="1289.74" y="-146.5" font-family="Helvetica,sans-Serif" font-size="10.00">libraries/AP_HAL_SITL</text>
<text text-anchor="middle" x="1341.15" y="-136.5" font-family="Helvetica,sans-Serif" font-size="10.00">/AnalogIn.h</text>
</a>
</g>
</g>
<!-- Node1&#45;&gt;Node21 -->
<g id="edge34" class="edge"><title>Node1&#45;&gt;Node21</title>
<path fill="none" stroke="midnightblue" d="M1495.92,-254.575C1482.69,-245.369 1466.58,-234.129 1452.15,-224 1419.51,-201.077 1381.59,-174.209 1359.59,-158.594"/>
<polygon fill="midnightblue" stroke="midnightblue" points="1493.94,-257.46 1504.15,-260.298 1497.94,-251.714 1493.94,-257.46"/>
</g>
<!-- Node22 -->
<g id="node22" class="node"><title>Node22</title>
<g id="a_node22"><a xlink:href="$SITL_2Scheduler_8h.html" xlink:title="libraries/AP_HAL_SITL\l/Scheduler.h">
<polygon fill="white" stroke="black" points="1569.74,-130.5 1569.74,-158.5 1688.57,-158.5 1688.57,-130.5 1569.74,-130.5"/>
<text text-anchor="start" x="1577.74" y="-146.5" font-family="Helvetica,sans-Serif" font-size="10.00">libraries/AP_HAL_SITL</text>
<text text-anchor="middle" x="1629.15" y="-136.5" font-family="Helvetica,sans-Serif" font-size="10.00">/Scheduler.h</text>
</a>
</g>
</g>
<!-- Node1&#45;&gt;Node22 -->
<g id="edge38" class="edge"><title>Node1&#45;&gt;Node22</title>
<path fill="none" stroke="midnightblue" d="M1540.67,-252.355C1562.65,-225.805 1599.71,-181.05 1618.11,-158.836"/>
<polygon fill="midnightblue" stroke="midnightblue" points="1537.78,-250.35 1534.1,-260.284 1543.17,-254.814 1537.78,-250.35"/>
</g>
<!-- Node23 -->
<g id="node23" class="node"><title>Node23</title>
<g id="a_node23"><a xlink:href="$SITL_2Storage_8h.html" xlink:title="libraries/AP_HAL_SITL\l/Storage.h">
<polygon fill="white" stroke="black" points="2020.74,-65.5 2020.74,-93.5 2139.57,-93.5 2139.57,-65.5 2020.74,-65.5"/>
<text text-anchor="start" x="2028.74" y="-81.5" font-family="Helvetica,sans-Serif" font-size="10.00">libraries/AP_HAL_SITL</text>
<text text-anchor="middle" x="2080.15" y="-71.5" font-family="Helvetica,sans-Serif" font-size="10.00">/Storage.h</text>
</a>
</g>
</g>
<!-- Node1&#45;&gt;Node23 -->
<g id="edge45" class="edge"><title>Node1&#45;&gt;Node23</title>
<path fill="none" stroke="midnightblue" d="M1608.85,-274.37C1730.21,-274.012 1944.39,-267.034 2007.15,-224 2053.26,-192.386 2071.88,-122.583 2077.82,-93.5576"/>
<polygon fill="midnightblue" stroke="midnightblue" points="1608.83,-270.87 1598.84,-274.385 1608.84,-277.87 1608.83,-270.87"/>
</g>
<!-- Node25 -->
<g id="node25" class="node"><title>Node25</title>
<g id="a_node25"><a xlink:href="$SITL_2UARTDriver_8h.html" xlink:title="libraries/AP_HAL_SITL\l/UARTDriver.h">
<polygon fill="white" stroke="black" points="1781.74,-130.5 1781.74,-158.5 1900.57,-158.5 1900.57,-130.5 1781.74,-130.5"/>
<text text-anchor="start" x="1789.74" y="-146.5" font-family="Helvetica,sans-Serif" font-size="10.00">libraries/AP_HAL_SITL</text>
<text text-anchor="middle" x="1841.15" y="-136.5" font-family="Helvetica,sans-Serif" font-size="10.00">/UARTDriver.h</text>
</a>
</g>
</g>
<!-- Node1&#45;&gt;Node25 -->
<g id="edge49" class="edge"><title>Node1&#45;&gt;Node25</title>
<path fill="none" stroke="midnightblue" d="M1608.84,-269.158C1658.06,-263.594 1719.54,-251.226 1768.15,-224 1796.9,-207.904 1820.79,-176.539 1832.8,-158.714"/>
<polygon fill="midnightblue" stroke="midnightblue" points="1608.43,-265.682 1598.86,-270.214 1609.17,-272.643 1608.43,-265.682"/>
</g>
<!-- Node26 -->
<g id="node26" class="node"><title>Node26</title>
<g id="a_node26"><a xlink:href="$SITL_2Util_8h.html" xlink:title="libraries/AP_HAL_SITL\l/Util.h">
<polygon fill="white" stroke="black" points="1839.74,-195.5 1839.74,-223.5 1958.57,-223.5 1958.57,-195.5 1839.74,-195.5"/>
<text text-anchor="start" x="1847.74" y="-211.5" font-family="Helvetica,sans-Serif" font-size="10.00">libraries/AP_HAL_SITL</text>
<text text-anchor="middle" x="1899.15" y="-201.5" font-family="Helvetica,sans-Serif" font-size="10.00">/Util.h</text>
</a>
</g>
</g>
<!-- Node1&#45;&gt;Node26 -->
<g id="edge57" class="edge"><title>Node1&#45;&gt;Node26</title>
<path fill="none" stroke="midnightblue" d="M1608.99,-259.118C1679.51,-247.303 1777.57,-230.872 1839.7,-220.463"/>
<polygon fill="midnightblue" stroke="midnightblue" points="1608.08,-255.722 1598.79,-260.827 1609.23,-262.626 1608.08,-255.722"/>
</g>
<!-- Node3 -->
<g id="node3" class="node"><title>Node3</title>
<g id="a_node3"><a xlink:href="$AP__HAL__SITL_8h.html" xlink:title="libraries/AP_HAL_SITL\l/AP_HAL_SITL.h">
<polygon fill="white" stroke="black" points="784.743,-130.5 784.743,-158.5 903.566,-158.5 903.566,-130.5 784.743,-130.5"/>
<text text-anchor="start" x="792.743" y="-146.5" font-family="Helvetica,sans-Serif" font-size="10.00">libraries/AP_HAL_SITL</text>
<text text-anchor="middle" x="844.155" y="-136.5" font-family="Helvetica,sans-Serif" font-size="10.00">/AP_HAL_SITL.h</text>
</a>
</g>
</g>
<!-- Node2&#45;&gt;Node3 -->
<g id="edge2" class="edge"><title>Node2&#45;&gt;Node3</title>
<path fill="none" stroke="midnightblue" d="M899.107,-189.803C884.341,-179.738 867.752,-167.572 856.568,-158.537"/>
<polygon fill="midnightblue" stroke="midnightblue" points="897.279,-192.791 907.535,-195.446 901.173,-186.974 897.279,-192.791"/>
</g>
<!-- Node2&#45;&gt;Node5 -->
<g id="edge26" class="edge"><title>Node2&#45;&gt;Node5</title>
<path fill="none" stroke="midnightblue" d="M958.56,-190.032C1001.75,-163.841 1084.72,-116.552 1127.85,-93.6442"/>
<polygon fill="midnightblue" stroke="midnightblue" points="956.679,-187.08 949.975,-195.284 960.332,-193.051 956.679,-187.08"/>
</g>
<!-- Node2&#45;&gt;Node7 -->
<g id="edge27" class="edge"><title>Node2&#45;&gt;Node7</title>
<path fill="none" stroke="midnightblue" d="M926.415,-184.911C921.501,-152.923 918.418,-96.2089 950.155,-65 976.014,-39.5702 1207.88,-24.3026 1319.55,-18.3635"/>
<polygon fill="midnightblue" stroke="midnightblue" points="923.026,-185.853 928.175,-195.112 929.924,-184.663 923.026,-185.853"/>
</g>
<!-- Node2&#45;&gt;Node8 -->
<g id="edge31" class="edge"><title>Node2&#45;&gt;Node8</title>
<path fill="none" stroke="midnightblue" d="M861.416,-205.196C656.901,-194.776 69.6712,-159.359 16.1545,-94 7.98907,-84.0276 7.83715,-74.846 16.1545,-65 45.312,-30.4837 172.059,-20.0299 248.658,-16.8676"/>
<polygon fill="midnightblue" stroke="midnightblue" points="861.278,-208.693 871.442,-205.702 861.631,-201.702 861.278,-208.693"/>
</g>
<!-- Node2&#45;&gt;Node16 -->
<g id="edge28" class="edge"><title>Node2&#45;&gt;Node16</title>
<path fill="none" stroke="midnightblue" d="M861.4,-195.925C722.017,-170.796 411.282,-114.777 280.732,-91.2407"/>
<polygon fill="midnightblue" stroke="midnightblue" points="861.075,-199.422 871.537,-197.752 862.317,-192.533 861.075,-199.422"/>
</g>
<!-- Node2&#45;&gt;Node17 -->
<g id="edge29" class="edge"><title>Node2&#45;&gt;Node17</title>
<path fill="none" stroke="midnightblue" d="M861.428,-201.699C777.603,-193.204 632.76,-177.514 509.155,-159 350.091,-135.175 311.191,-123.886 153.155,-94 150.036,-93.4103 146.84,-92.8011 143.613,-92.1825"/>
<polygon fill="midnightblue" stroke="midnightblue" points="861.291,-205.203 871.592,-202.724 861.994,-198.238 861.291,-205.203"/>
</g>
<!-- Node2&#45;&gt;Node18 -->
<g id="edge30" class="edge"><title>Node2&#45;&gt;Node18</title>
<path fill="none" stroke="midnightblue" d="M1000.79,-208.158C1116.26,-206.468 1341.36,-198.084 1409.15,-159 1435.13,-144.027 1452.54,-111.924 1460.74,-93.7516"/>
<polygon fill="midnightblue" stroke="midnightblue" points="1000.6,-204.66 990.645,-208.293 1000.69,-211.659 1000.6,-204.66"/>
</g>
<!-- Node2&#45;&gt;Node20 -->
<g id="edge32" class="edge"><title>Node2&#45;&gt;Node20</title>
<path fill="none" stroke="midnightblue" d="M1000.84,-207.357C1178.22,-203.977 1637.08,-192.103 1697.15,-159 1723.56,-144.45 1740.91,-111.868 1748.95,-93.5844"/>
<polygon fill="midnightblue" stroke="midnightblue" points="1000.76,-203.858 990.83,-207.545 1000.89,-210.857 1000.76,-203.858"/>
</g>
<!-- Node3&#45;&gt;Node2 -->
<g id="edge4" class="edge"><title>Node3&#45;&gt;Node2</title>
<path fill="none" stroke="midnightblue" d="M876.175,-164.179C890.939,-174.241 907.53,-186.408 918.721,-195.446"/>
<polygon fill="midnightblue" stroke="midnightblue" points="878.005,-161.192 867.748,-158.537 874.111,-167.009 878.005,-161.192"/>
</g>
<!-- Node4 -->
<g id="node4" class="node"><title>Node4</title>
<g id="a_node4"><a xlink:href="$SITL_2AnalogIn_8cpp.html" xlink:title="libraries/AP_HAL_SITL\l/AnalogIn.cpp">
<polygon fill="white" stroke="black" points="958.743,-65.5 958.743,-93.5 1077.57,-93.5 1077.57,-65.5 958.743,-65.5"/>
<text text-anchor="start" x="966.743" y="-81.5" font-family="Helvetica,sans-Serif" font-size="10.00">libraries/AP_HAL_SITL</text>
<text text-anchor="middle" x="1018.15" y="-71.5" font-family="Helvetica,sans-Serif" font-size="10.00">/AnalogIn.cpp</text>
</a>
</g>
</g>
<!-- Node3&#45;&gt;Node4 -->
<g id="edge3" class="edge"><title>Node3&#45;&gt;Node4</title>
<path fill="none" stroke="midnightblue" d="M889.663,-127.023C918.52,-116.575 955.33,-103.247 982.148,-93.5369"/>
<polygon fill="midnightblue" stroke="midnightblue" points="888.419,-123.751 880.207,-130.446 890.802,-130.333 888.419,-123.751"/>
</g>
<!-- Node3&#45;&gt;Node5 -->
<g id="edge5" class="edge"><title>Node3&#45;&gt;Node5</title>
<path fill="none" stroke="midnightblue" d="M913.7,-129.412C968.327,-118.346 1043.59,-103.1 1095.5,-92.5852"/>
<polygon fill="midnightblue" stroke="midnightblue" points="912.857,-126.012 903.75,-131.428 914.246,-132.872 912.857,-126.012"/>
</g>
<!-- Node3&#45;&gt;Node7 -->
<g id="edge11" class="edge"><title>Node3&#45;&gt;Node7</title>
<path fill="none" stroke="midnightblue" d="M857.74,-121.783C870.6,-103.288 891.699,-77.7458 917.155,-65 986.31,-30.3736 1211.07,-19.8479 1319.53,-16.7456"/>
<polygon fill="midnightblue" stroke="midnightblue" points="854.755,-119.951 852.106,-130.209 860.574,-123.841 854.755,-119.951"/>
</g>
<!-- Node3&#45;&gt;Node8 -->
<g id="edge23" class="edge"><title>Node3&#45;&gt;Node8</title>
<path fill="none" stroke="midnightblue" d="M774.701,-138.981C637.58,-129.767 343.831,-108.462 327.155,-94 308.404,-77.7397 306.499,-46.438 307.109,-28.6675"/>
<polygon fill="midnightblue" stroke="midnightblue" points="774.483,-142.474 784.694,-139.65 774.95,-135.49 774.483,-142.474"/>
</g>
<!-- Node10 -->
<g id="node10" class="node"><title>Node10</title>
<g id="a_node10"><a xlink:href="$SITL_2RCInput_8h.html" xlink:title="libraries/AP_HAL_SITL\l/RCInput.h">
<polygon fill="white" stroke="black" points="746.743,-65.5 746.743,-93.5 865.566,-93.5 865.566,-65.5 746.743,-65.5"/>
<text text-anchor="start" x="754.743" y="-81.5" font-family="Helvetica,sans-Serif" font-size="10.00">libraries/AP_HAL_SITL</text>
<text text-anchor="middle" x="806.155" y="-71.5" font-family="Helvetica,sans-Serif" font-size="10.00">/RCInput.h</text>
</a>
</g>
</g>
<!-- Node3&#45;&gt;Node10 -->
<g id="edge12" class="edge"><title>Node3&#45;&gt;Node10</title>
<path fill="none" stroke="midnightblue" d="M830.968,-121.638C825.317,-112.269 818.907,-101.643 814.018,-93.5369"/>
<polygon fill="midnightblue" stroke="midnightblue" points="828.119,-123.691 836.281,-130.446 834.113,-120.076 828.119,-123.691"/>
</g>
<!-- Node12 -->
<g id="node12" class="node"><title>Node12</title>
<g id="a_node12"><a xlink:href="$SITL_2RCOutput_8h.html" xlink:title="libraries/AP_HAL_SITL\l/RCOutput.h">
<polygon fill="white" stroke="black" points="472.743,-65.5 472.743,-93.5 591.566,-93.5 591.566,-65.5 472.743,-65.5"/>
<text text-anchor="start" x="480.743" y="-81.5" font-family="Helvetica,sans-Serif" font-size="10.00">libraries/AP_HAL_SITL</text>
<text text-anchor="middle" x="532.155" y="-71.5" font-family="Helvetica,sans-Serif" font-size="10.00">/RCOutput.h</text>
</a>
</g>
</g>
<!-- Node3&#45;&gt;Node12 -->
<g id="edge15" class="edge"><title>Node3&#45;&gt;Node12</title>
<path fill="none" stroke="midnightblue" d="M774.727,-129.481C719.761,-118.382 643.811,-103.046 591.618,-92.507"/>
<polygon fill="midnightblue" stroke="midnightblue" points="774.24,-132.953 784.735,-131.502 775.626,-126.092 774.24,-132.953"/>
</g>
<!-- Node14 -->
<g id="node14" class="node"><title>Node14</title>
<g id="a_node14"><a xlink:href="$AP__HAL__SITL_2Scheduler_8cpp.html" xlink:title="libraries/AP_HAL_SITL\l/Scheduler.cpp">
<polygon fill="white" stroke="black" points="1232.74,-65.5 1232.74,-93.5 1351.57,-93.5 1351.57,-65.5 1232.74,-65.5"/>
<text text-anchor="start" x="1240.74" y="-81.5" font-family="Helvetica,sans-Serif" font-size="10.00">libraries/AP_HAL_SITL</text>
<text text-anchor="middle" x="1292.15" y="-71.5" font-family="Helvetica,sans-Serif" font-size="10.00">/Scheduler.cpp</text>
</a>
</g>
</g>
<!-- Node3&#45;&gt;Node14 -->
<g id="edge18" class="edge"><title>Node3&#45;&gt;Node14</title>
<path fill="none" stroke="midnightblue" d="M913.686,-135.757C989.847,-126.965 1115.5,-111.543 1223.15,-94 1226.29,-93.4896 1229.49,-92.9435 1232.73,-92.3744"/>
<polygon fill="midnightblue" stroke="midnightblue" points="913.268,-132.282 903.733,-136.901 914.067,-139.237 913.268,-132.282"/>
</g>
<!-- Node15 -->
<g id="node15" class="node"><title>Node15</title>
<g id="a_node15"><a xlink:href="$sitl__barometer_8cpp.html" xlink:title="libraries/AP_HAL_SITL\l/sitl_barometer.cpp">
<polygon fill="white" stroke="black" points="335.743,-65.5 335.743,-93.5 454.566,-93.5 454.566,-65.5 335.743,-65.5"/>
<text text-anchor="start" x="343.743" y="-81.5" font-family="Helvetica,sans-Serif" font-size="10.00">libraries/AP_HAL_SITL</text>
<text text-anchor="middle" x="395.155" y="-71.5" font-family="Helvetica,sans-Serif" font-size="10.00">/sitl_barometer.cpp</text>
</a>
</g>
</g>
<!-- Node3&#45;&gt;Node15 -->
<g id="edge19" class="edge"><title>Node3&#45;&gt;Node15</title>
<path fill="none" stroke="midnightblue" d="M774.439,-135.768C698.077,-126.985 572.089,-111.57 464.155,-94 461.022,-93.4901 457.814,-92.9445 454.579,-92.3757"/>
<polygon fill="midnightblue" stroke="midnightblue" points="774.085,-139.25 784.418,-136.91 774.881,-132.296 774.085,-139.25"/>
</g>
<!-- Node3&#45;&gt;Node16 -->
<g id="edge20" class="edge"><title>Node3&#45;&gt;Node16</title>
<path fill="none" stroke="midnightblue" d="M774.416,-139.312C669.77,-132.557 466.048,-117.577 294.155,-94 289.813,-93.4045 285.337,-92.7291 280.839,-92.0054"/>
<polygon fill="midnightblue" stroke="midnightblue" points="774.333,-142.814 784.536,-139.96 774.78,-135.828 774.333,-142.814"/>
</g>
<!-- Node3&#45;&gt;Node17 -->
<g id="edge21" class="edge"><title>Node3&#45;&gt;Node17</title>
<path fill="none" stroke="midnightblue" d="M774.082,-141.299C648.946,-136.741 378.988,-124.068 153.155,-94 150.13,-93.5973 147.038,-93.1444 143.92,-92.6552"/>
<polygon fill="midnightblue" stroke="midnightblue" points="774.17,-144.804 784.289,-141.664 774.42,-137.808 774.17,-144.804"/>
</g>
<!-- Node3&#45;&gt;Node18 -->
<g id="edge22" class="edge"><title>Node3&#45;&gt;Node18</title>
<path fill="none" stroke="midnightblue" d="M914.009,-137.492C1013.27,-128.797 1200.78,-111.789 1360.15,-94 1375.18,-92.3228 1391.38,-90.3453 1406.49,-88.4286"/>
<polygon fill="midnightblue" stroke="midnightblue" points="913.465,-134.026 903.808,-138.383 914.075,-140.999 913.465,-134.026"/>
</g>
<!-- Node19 -->
<g id="node19" class="node"><title>Node19</title>
<g id="a_node19"><a xlink:href="$sitl__optical__flow_8cpp.html" xlink:title="libraries/AP_HAL_SITL\l/sitl_optical_flow.cpp">
<polygon fill="white" stroke="black" points="609.743,-65.5 609.743,-93.5 728.566,-93.5 728.566,-65.5 609.743,-65.5"/>
<text text-anchor="start" x="617.743" y="-81.5" font-family="Helvetica,sans-Serif" font-size="10.00">libraries/AP_HAL_SITL</text>
<text text-anchor="middle" x="669.155" y="-71.5" font-family="Helvetica,sans-Serif" font-size="10.00">/sitl_optical_flow.cpp</text>
</a>
</g>
</g>
<!-- Node3&#45;&gt;Node19 -->
<g id="edge24" class="edge"><title>Node3&#45;&gt;Node19</title>
<path fill="none" stroke="midnightblue" d="M798.385,-127.023C769.362,-116.575 732.341,-103.247 705.368,-93.5369"/>
<polygon fill="midnightblue" stroke="midnightblue" points="797.3,-130.352 807.894,-130.446 799.671,-123.766 797.3,-130.352"/>
</g>
<!-- Node3&#45;&gt;Node20 -->
<g id="edge25" class="edge"><title>Node3&#45;&gt;Node20</title>
<path fill="none" stroke="midnightblue" d="M913.863,-138.674C1086.73,-126.706 1532.85,-95.821 1694.52,-84.6283"/>
<polygon fill="midnightblue" stroke="midnightblue" points="913.597,-135.184 903.862,-139.366 914.08,-142.167 913.597,-135.184"/>
</g>
<!-- Node5&#45;&gt;Node2 -->
<g id="edge6" class="edge"><title>Node5&#45;&gt;Node2</title>
<path fill="none" stroke="midnightblue" d="M1127.88,-98.8862C1084.77,-125.032 1001.81,-172.325 958.59,-195.284"/>
<polygon fill="midnightblue" stroke="midnightblue" points="1129.75,-101.849 1136.45,-93.6442 1126.09,-95.8787 1129.75,-101.849"/>
</g>
<!-- Node5&#45;&gt;Node6 -->
<g id="edge7" class="edge"><title>Node5&#45;&gt;Node6</title>
<path fill="none" stroke="midnightblue" d="M1224.9,-65.2401C1301.4,-57.7077 1695.57,-30.6196 1852.61,-19.8965"/>
<polygon fill="midnightblue" stroke="midnightblue" points="1224.47,-61.7657 1214.92,-66.3441 1225.24,-68.7233 1224.47,-61.7657"/>
</g>
<!-- Node5&#45;&gt;Node7 -->
<g id="edge8" class="edge"><title>Node5&#45;&gt;Node7</title>
<path fill="none" stroke="midnightblue" d="M1211.33,-62.7001C1248.82,-52.1558 1297.53,-38.4581 1332.8,-28.5369"/>
<polygon fill="midnightblue" stroke="midnightblue" points="1210.25,-59.3696 1201.57,-65.4464 1212.14,-66.1081 1210.25,-59.3696"/>
</g>
<!-- Node5&#45;&gt;Node8 -->
<g id="edge9" class="edge"><title>Node5&#45;&gt;Node8</title>
<path fill="none" stroke="midnightblue" d="M1085.09,-65.0016C809.66,-30.7843 736.971,-48.6956 464.155,-29 432.296,-26.7 396.818,-23.6673 367.756,-21.0591"/>
<polygon fill="midnightblue" stroke="midnightblue" points="1085.04,-68.5223 1095.4,-66.2942 1085.91,-61.5767 1085.04,-68.5223"/>
</g>
<!-- Node9 -->
<g id="node9" class="node"><title>Node9</title>
<g id="a_node9"><a xlink:href="$SITL_2UARTDriver_8cpp.html" xlink:title="libraries/AP_HAL_SITL\l/UARTDriver.cpp">
<polygon fill="white" stroke="black" points="1586.74,-0.5 1586.74,-28.5 1705.57,-28.5 1705.57,-0.5 1586.74,-0.5"/>
<text text-anchor="start" x="1594.74" y="-16.5" font-family="Helvetica,sans-Serif" font-size="10.00">libraries/AP_HAL_SITL</text>
<text text-anchor="middle" x="1646.15" y="-6.5" font-family="Helvetica,sans-Serif" font-size="10.00">/UARTDriver.cpp</text>
</a>
</g>
</g>
<!-- Node5&#45;&gt;Node9 -->
<g id="edge10" class="edge"><title>Node5&#45;&gt;Node9</title>
<path fill="none" stroke="midnightblue" d="M1224.72,-64.9987C1360.16,-44.1293 1506.65,-28.7934 1586.56,-21.0415"/>
<polygon fill="midnightblue" stroke="midnightblue" points="1223.91,-61.5814 1214.57,-66.5758 1224.99,-68.4983 1223.91,-61.5814"/>
</g>
<!-- Node10&#45;&gt;Node7 -->
<g id="edge13" class="edge"><title>Node10&#45;&gt;Node7</title>
<path fill="none" stroke="midnightblue" d="M875.877,-65.4747C876.977,-65.3121 878.07,-65.1537 879.155,-65 1037.64,-42.5414 1225.82,-26.8463 1319.7,-19.7578"/>
<polygon fill="midnightblue" stroke="midnightblue" points="875.187,-62.0399 865.845,-67.0382 876.265,-68.9564 875.187,-62.0399"/>
</g>
<!-- Node11 -->
<g id="node11" class="node"><title>Node11</title>
<g id="a_node11"><a xlink:href="$SITL_2RCInput_8cpp.html" xlink:title="libraries/AP_HAL_SITL\l/RCInput.cpp">
<polygon fill="white" stroke="black" points="746.743,-0.5 746.743,-28.5 865.566,-28.5 865.566,-0.5 746.743,-0.5"/>
<text text-anchor="start" x="754.743" y="-16.5" font-family="Helvetica,sans-Serif" font-size="10.00">libraries/AP_HAL_SITL</text>
<text text-anchor="middle" x="806.155" y="-6.5" font-family="Helvetica,sans-Serif" font-size="10.00">/RCInput.cpp</text>
</a>
</g>
</g>
<!-- Node10&#45;&gt;Node11 -->
<g id="edge14" class="edge"><title>Node10&#45;&gt;Node11</title>
<path fill="none" stroke="midnightblue" d="M806.155,-55.1641C806.155,-46.1693 806.155,-36.2205 806.155,-28.5369"/>
<polygon fill="midnightblue" stroke="midnightblue" points="802.655,-55.4463 806.155,-65.4464 809.655,-55.4464 802.655,-55.4463"/>
</g>
<!-- Node12&#45;&gt;Node7 -->
<g id="edge16" class="edge"><title>Node12&#45;&gt;Node7</title>
<path fill="none" stroke="midnightblue" d="M602.032,-65.0188C875.407,-30.3431 1190.2,-19.7505 1319.36,-16.6645"/>
<polygon fill="midnightblue" stroke="midnightblue" points="601.39,-61.5723 591.916,-66.3154 602.28,-68.5155 601.39,-61.5723"/>
</g>
<!-- Node13 -->
<g id="node13" class="node"><title>Node13</title>
<g id="a_node13"><a xlink:href="$SITL_2RCOutput_8cpp.html" xlink:title="libraries/AP_HAL_SITL\l/RCOutput.cpp">
<polygon fill="white" stroke="black" points="472.743,-0.5 472.743,-28.5 591.566,-28.5 591.566,-0.5 472.743,-0.5"/>
<text text-anchor="start" x="480.743" y="-16.5" font-family="Helvetica,sans-Serif" font-size="10.00">libraries/AP_HAL_SITL</text>
<text text-anchor="middle" x="532.155" y="-6.5" font-family="Helvetica,sans-Serif" font-size="10.00">/RCOutput.cpp</text>
</a>
</g>
</g>
<!-- Node12&#45;&gt;Node13 -->
<g id="edge17" class="edge"><title>Node12&#45;&gt;Node13</title>
<path fill="none" stroke="midnightblue" d="M532.155,-55.1641C532.155,-46.1693 532.155,-36.2205 532.155,-28.5369"/>
<polygon fill="midnightblue" stroke="midnightblue" points="528.655,-55.4463 532.155,-65.4464 535.655,-55.4464 528.655,-55.4463"/>
</g>
<!-- Node21&#45;&gt;Node4 -->
<g id="edge35" class="edge"><title>Node21&#45;&gt;Node4</title>
<path fill="none" stroke="midnightblue" d="M1271.68,-129.976C1220.63,-120.034 1149.58,-106.189 1087.15,-94 1084.04,-93.3918 1080.85,-92.7679 1077.62,-92.1377"/>
<polygon fill="midnightblue" stroke="midnightblue" points="1271.13,-133.435 1281.62,-131.911 1272.47,-126.564 1271.13,-133.435"/>
</g>
<!-- Node21&#45;&gt;Node7 -->
<g id="edge36" class="edge"><title>Node21&#45;&gt;Node7</title>
<path fill="none" stroke="midnightblue" d="M1350.58,-120.786C1353.85,-112.445 1357.39,-102.872 1360.15,-94 1367.2,-71.3752 1373.23,-44.4114 1376.5,-28.6975"/>
<polygon fill="midnightblue" stroke="midnightblue" points="1347.27,-119.635 1346.79,-130.219 1353.77,-122.244 1347.27,-119.635"/>
</g>
<!-- Node22&#45;&gt;Node6 -->
<g id="edge39" class="edge"><title>Node22&#45;&gt;Node6</title>
<path fill="none" stroke="midnightblue" d="M1639.61,-121.121C1649.19,-103.147 1665.07,-78.7196 1686.15,-65 1736,-32.5615 1803.49,-20.9893 1852.64,-17.0527"/>
<polygon fill="midnightblue" stroke="midnightblue" points="1636.34,-119.83 1634.95,-130.333 1642.59,-122.992 1636.34,-119.83"/>
</g>
<!-- Node22&#45;&gt;Node7 -->
<g id="edge40" class="edge"><title>Node22&#45;&gt;Node7</title>
<path fill="none" stroke="midnightblue" d="M1628.13,-120.196C1626.09,-102.573 1620.43,-79.08 1605.15,-65 1581.27,-42.9799 1497.35,-29.0248 1438.79,-21.7339"/>
<polygon fill="midnightblue" stroke="midnightblue" points="1624.65,-120.608 1628.99,-130.274 1631.63,-120.013 1624.65,-120.608"/>
</g>
<!-- Node22&#45;&gt;Node8 -->
<g id="edge43" class="edge"><title>Node22&#45;&gt;Node8</title>
<path fill="none" stroke="midnightblue" d="M1611.78,-122.88C1594.36,-103.899 1565.67,-76.9372 1534.15,-65 1422.91,-22.8603 582.897,-36.1305 464.155,-29 432.27,-27.0853 396.791,-24.0843 367.733,-21.3975"/>
<polygon fill="midnightblue" stroke="midnightblue" points="1609.27,-125.319 1618.53,-130.459 1614.49,-120.664 1609.27,-125.319"/>
</g>
<!-- Node22&#45;&gt;Node14 -->
<g id="edge41" class="edge"><title>Node22&#45;&gt;Node14</title>
<path fill="none" stroke="midnightblue" d="M1559.69,-130.515C1498.32,-119.041 1409.76,-102.486 1351.6,-91.6127"/>
<polygon fill="midnightblue" stroke="midnightblue" points="1559.21,-133.985 1569.68,-132.382 1560.49,-127.104 1559.21,-133.985"/>
</g>
<!-- Node22&#45;&gt;Node18 -->
<g id="edge42" class="edge"><title>Node22&#45;&gt;Node18</title>
<path fill="none" stroke="midnightblue" d="M1585.82,-126.75C1558.89,-116.343 1524.79,-103.163 1499.88,-93.5369"/>
<polygon fill="midnightblue" stroke="midnightblue" points="1584.79,-130.106 1595.38,-130.446 1587.32,-123.577 1584.79,-130.106"/>
</g>
<!-- Node22&#45;&gt;Node20 -->
<g id="edge44" class="edge"><title>Node22&#45;&gt;Node20</title>
<path fill="none" stroke="midnightblue" d="M1664.03,-125.922C1684.41,-115.652 1709.69,-102.909 1728.29,-93.5369"/>
<polygon fill="midnightblue" stroke="midnightblue" points="1662.41,-122.82 1655.05,-130.446 1665.56,-129.071 1662.41,-122.82"/>
</g>
<!-- Node23&#45;&gt;Node6 -->
<g id="edge46" class="edge"><title>Node23&#45;&gt;Node6</title>
<path fill="none" stroke="midnightblue" d="M2036.82,-61.7496C2009.89,-51.3431 1975.79,-38.1626 1950.88,-28.5369"/>
<polygon fill="midnightblue" stroke="midnightblue" points="2035.79,-65.1058 2046.38,-65.4464 2038.32,-58.5765 2035.79,-65.1058"/>
</g>
<!-- Node23&#45;&gt;Node7 -->
<g id="edge47" class="edge"><title>Node23&#45;&gt;Node7</title>
<path fill="none" stroke="midnightblue" d="M2010.29,-69.5996C1996.66,-67.9771 1982.47,-66.3674 1969.15,-65 1775.39,-45.0954 1545.2,-27.5356 1438.68,-19.7558"/>
<polygon fill="midnightblue" stroke="midnightblue" points="2010.23,-73.1181 2020.58,-70.839 2011.07,-66.1683 2010.23,-73.1181"/>
</g>
<!-- Node24 -->
<g id="node24" class="node"><title>Node24</title>
<g id="a_node24"><a xlink:href="$SITL_2Storage_8cpp.html" xlink:title="libraries/AP_HAL_SITL\l/Storage.cpp">
<polygon fill="white" stroke="black" points="2020.74,-0.5 2020.74,-28.5 2139.57,-28.5 2139.57,-0.5 2020.74,-0.5"/>
<text text-anchor="start" x="2028.74" y="-16.5" font-family="Helvetica,sans-Serif" font-size="10.00">libraries/AP_HAL_SITL</text>
<text text-anchor="middle" x="2080.15" y="-6.5" font-family="Helvetica,sans-Serif" font-size="10.00">/Storage.cpp</text>
</a>
</g>
</g>
<!-- Node23&#45;&gt;Node24 -->
<g id="edge48" class="edge"><title>Node23&#45;&gt;Node24</title>
<path fill="none" stroke="midnightblue" d="M2080.15,-55.1641C2080.15,-46.1693 2080.15,-36.2205 2080.15,-28.5369"/>
<polygon fill="midnightblue" stroke="midnightblue" points="2076.65,-55.4463 2080.15,-65.4464 2083.65,-55.4464 2076.65,-55.4463"/>
</g>
<!-- Node25&#45;&gt;Node6 -->
<g id="edge50" class="edge"><title>Node25&#45;&gt;Node6</title>
<path fill="none" stroke="midnightblue" d="M1866.78,-123.883C1876.2,-115.554 1886.25,-105.184 1893.15,-94 1906.04,-73.1461 1912.44,-44.8785 1915.26,-28.5731"/>
<polygon fill="midnightblue" stroke="midnightblue" points="1864.48,-121.247 1859.1,-130.373 1869,-126.595 1864.48,-121.247"/>
</g>
<!-- Node25&#45;&gt;Node7 -->
<g id="edge51" class="edge"><title>Node25&#45;&gt;Node7</title>
<path fill="none" stroke="midnightblue" d="M1842.16,-120.183C1841.57,-102.351 1837.58,-78.588 1822.15,-65 1807.95,-52.4812 1556.45,-30.1653 1438.86,-20.3546"/>
<polygon fill="midnightblue" stroke="midnightblue" points="1838.66,-120.376 1842.16,-130.375 1845.66,-120.374 1838.66,-120.376"/>
</g>
<!-- Node25&#45;&gt;Node9 -->
<g id="edge55" class="edge"><title>Node25&#45;&gt;Node9</title>
<path fill="none" stroke="midnightblue" d="M1853.72,-121.063C1861.42,-103.982 1867.64,-80.7939 1855.15,-65 1836.8,-41.7845 1760.84,-28.3266 1705.77,-21.4521"/>
<polygon fill="midnightblue" stroke="midnightblue" points="1850.44,-119.798 1849.14,-130.313 1856.71,-122.902 1850.44,-119.798"/>
</g>
<!-- Node25&#45;&gt;Node16 -->
<g id="edge52" class="edge"><title>Node25&#45;&gt;Node16</title>
<path fill="none" stroke="midnightblue" d="M1771.42,-136.011C1747.86,-133.734 1721.39,-131.453 1697.15,-130 1089.15,-93.5526 934.473,-140.535 327.155,-94 312.079,-92.8449 295.859,-91.057 280.752,-89.1563"/>
<polygon fill="midnightblue" stroke="midnightblue" points="1771.38,-139.523 1781.67,-137.018 1772.06,-132.557 1771.38,-139.523"/>
</g>
<!-- Node25&#45;&gt;Node18 -->
<g id="edge53" class="edge"><title>Node25&#45;&gt;Node18</title>
<path fill="none" stroke="midnightblue" d="M1771.58,-131.812C1700.86,-119.93 1592.45,-101.717 1525.61,-90.4878"/>
<polygon fill="midnightblue" stroke="midnightblue" points="1771.29,-135.312 1781.73,-133.517 1772.45,-128.409 1771.29,-135.312"/>
</g>
<!-- Node25&#45;&gt;Node20 -->
<g id="edge54" class="edge"><title>Node25&#45;&gt;Node20</title>
<path fill="none" stroke="midnightblue" d="M1814.94,-124.52C1801.12,-114.511 1784.52,-102.487 1772.16,-93.5369"/>
<polygon fill="midnightblue" stroke="midnightblue" points="1812.98,-127.416 1823.13,-130.446 1817.08,-121.746 1812.98,-127.416"/>
</g>
<!-- Node26&#45;&gt;Node7 -->
<g id="edge58" class="edge"><title>Node26&#45;&gt;Node7</title>
<path fill="none" stroke="midnightblue" d="M1908,-185.776C1912.88,-169.641 1916.6,-147.776 1909.15,-130 1893.25,-92.0238 1880.37,-82.6114 1843.15,-65 1807.37,-48.0626 1555.64,-28.1263 1438.65,-19.6492"/>
<polygon fill="midnightblue" stroke="midnightblue" points="1904.62,-184.857 1904.73,-195.451 1911.25,-187.098 1904.62,-184.857"/>
</g>
</g>
</svg>
