<?xml version="1.0" encoding="UTF-8" standalone="no"?>
<!DOCTYPE svg PUBLIC "-//W3C//DTD SVG 1.1//EN"
 "http://www.w3.org/Graphics/SVG/1.1/DTD/svg11.dtd">
<!-- Generated by graphviz version 2.38.0 (20140413.2041)
 -->
<!-- Title: location_diff Pages: 1 -->
<svg width="1367pt" height="477pt"
 viewBox="0.00 0.00 1367.19 477.00" xmlns="http://www.w3.org/2000/svg" xmlns:xlink="http://www.w3.org/1999/xlink">
<g id="graph0" class="graph" transform="scale(1 1) rotate(0) translate(4 473)">
<title>location_diff</title>
<polygon fill="white" stroke="none" points="-4,4 -4,-473 1363.19,-473 1363.19,4 -4,4"/>
<!-- Node1 -->
<g id="node1" class="node"><title>Node1</title>
<polygon fill="#bfbfbf" stroke="black" points="0,-186.5 0,-204.5 69.1934,-204.5 69.1934,-186.5 0,-186.5"/>
<text text-anchor="middle" x="34.5967" y="-192.5" font-family="Helvetica,sans-Serif" font-size="10.00">location_diff</text>
</g>
<!-- Node2 -->
<g id="node2" class="node"><title>Node2</title>
<g id="a_node2"><a xlink:href="$classNavEKF__core.html#acab2d8eaf3c773c1ec8d27a79fd7f374" xlink:title="NavEKF_core::calcGpsGood\lToAlign">
<polygon fill="white" stroke="black" points="107.974,-328.5 107.974,-356.5 252.363,-356.5 252.363,-328.5 107.974,-328.5"/>
<text text-anchor="start" x="115.974" y="-344.5" font-family="Helvetica,sans-Serif" font-size="10.00">NavEKF_core::calcGpsGood</text>
<text text-anchor="middle" x="180.168" y="-334.5" font-family="Helvetica,sans-Serif" font-size="10.00">ToAlign</text>
</a>
</g>
</g>
<!-- Node1&#45;&gt;Node2 -->
<g id="edge1" class="edge"><title>Node1&#45;&gt;Node2</title>
<path fill="none" stroke="midnightblue" d="M42.1308,-214.203C51.9996,-239.914 73.039,-286.099 105.193,-313.5 112.333,-319.584 120.899,-324.482 129.63,-328.395"/>
<polygon fill="midnightblue" stroke="midnightblue" points="45.3191,-212.732 38.5854,-204.552 38.7484,-215.146 45.3191,-212.732"/>
</g>
<!-- Node3 -->
<g id="node3" class="node"><title>Node3</title>
<g id="a_node3"><a xlink:href="$classNavEKF__core.html#a93e62bbf5bd5071291db0515975e8124" xlink:title="NavEKF_core::readGpsData">
<polygon fill="white" stroke="black" points="293.924,-376.5 293.924,-394.5 437.205,-394.5 437.205,-376.5 293.924,-376.5"/>
<text text-anchor="middle" x="365.564" y="-382.5" font-family="Helvetica,sans-Serif" font-size="10.00">NavEKF_core::readGpsData</text>
</a>
</g>
</g>
<!-- Node1&#45;&gt;Node3 -->
<g id="edge39" class="edge"><title>Node1&#45;&gt;Node3</title>
<path fill="none" stroke="midnightblue" d="M37.0705,-214.804C40.9961,-251.319 55.1345,-330.101 105.193,-366.5 170.012,-413.631 269.637,-404.539 324.641,-394.531"/>
<polygon fill="midnightblue" stroke="midnightblue" points="40.5275,-214.176 36.1222,-204.541 33.5572,-214.82 40.5275,-214.176"/>
</g>
<!-- Node15 -->
<g id="node15" class="node"><title>Node15</title>
<g id="a_node15"><a xlink:href="$classNavEKF2__core.html#af17ad10645eedde6134e5988ed2b80b2" xlink:title="NavEKF2_core::calcGpsGood\lToAlign">
<polygon fill="white" stroke="black" points="105.193,-242.5 105.193,-270.5 255.144,-270.5 255.144,-242.5 105.193,-242.5"/>
<text text-anchor="start" x="113.193" y="-258.5" font-family="Helvetica,sans-Serif" font-size="10.00">NavEKF2_core::calcGpsGood</text>
<text text-anchor="middle" x="180.168" y="-248.5" font-family="Helvetica,sans-Serif" font-size="10.00">ToAlign</text>
</a>
</g>
</g>
<!-- Node1&#45;&gt;Node15 -->
<g id="edge15" class="edge"><title>Node1&#45;&gt;Node15</title>
<path fill="none" stroke="midnightblue" d="M59.0021,-209.798C72.2389,-217.494 89.2803,-226.761 105.193,-233.5 112.872,-236.752 121.17,-239.778 129.337,-242.496"/>
<polygon fill="midnightblue" stroke="midnightblue" points="60.4945,-206.615 50.1065,-204.531 56.9281,-212.638 60.4945,-206.615"/>
</g>
<!-- Node16 -->
<g id="node16" class="node"><title>Node16</title>
<g id="a_node16"><a xlink:href="$classNavEKF2__core.html#ae325dba2deac733f1de41c5e7ee4f707" xlink:title="NavEKF2_core::readGpsData">
<polygon fill="white" stroke="black" points="291.144,-271.5 291.144,-289.5 439.985,-289.5 439.985,-271.5 291.144,-271.5"/>
<text text-anchor="middle" x="365.564" y="-277.5" font-family="Helvetica,sans-Serif" font-size="10.00">NavEKF2_core::readGpsData</text>
</a>
</g>
</g>
<!-- Node1&#45;&gt;Node16 -->
<g id="edge40" class="edge"><title>Node1&#45;&gt;Node16</title>
<path fill="none" stroke="midnightblue" d="M44.2636,-213.704C55.2032,-234.295 76.1603,-266.748 105.193,-280.5 178.649,-315.293 277.463,-301.022 329.359,-289.579"/>
<polygon fill="midnightblue" stroke="midnightblue" points="47.3392,-212.03 39.7064,-204.682 41.0911,-215.186 47.3392,-212.03"/>
</g>
<!-- Node23 -->
<g id="node23" class="node"><title>Node23</title>
<g id="a_node23"><a xlink:href="$classNavEKF2__core.html#a75c69eecb8e29eb0d7e4f82d162d558d" xlink:title="NavEKF2_core::getPosNED">
<polygon fill="white" stroke="black" points="109.363,-205.5 109.363,-223.5 250.974,-223.5 250.974,-205.5 109.363,-205.5"/>
<text text-anchor="middle" x="180.168" y="-211.5" font-family="Helvetica,sans-Serif" font-size="10.00">NavEKF2_core::getPosNED</text>
</a>
</g>
</g>
<!-- Node1&#45;&gt;Node23 -->
<g id="edge27" class="edge"><title>Node1&#45;&gt;Node23</title>
<path fill="none" stroke="midnightblue" d="M79.3312,-201.288C89.3362,-202.612 100.204,-204.05 110.964,-205.474"/>
<polygon fill="midnightblue" stroke="midnightblue" points="79.6307,-197.797 69.2579,-199.955 78.7122,-204.736 79.6307,-197.797"/>
</g>
<!-- Node27 -->
<g id="node27" class="node"><title>Node27</title>
<g id="a_node27"><a xlink:href="$classNavEKF__core.html#a4806740bdd40117a9c78a58749e18130" xlink:title="NavEKF_core::getPosNED">
<polygon fill="white" stroke="black" points="112.144,-168.5 112.144,-186.5 248.193,-186.5 248.193,-168.5 112.144,-168.5"/>
<text text-anchor="middle" x="180.168" y="-174.5" font-family="Helvetica,sans-Serif" font-size="10.00">NavEKF_core::getPosNED</text>
</a>
</g>
</g>
<!-- Node1&#45;&gt;Node27 -->
<g id="edge31" class="edge"><title>Node1&#45;&gt;Node27</title>
<path fill="none" stroke="midnightblue" d="M79.2831,-190.023C89.6583,-188.722 100.963,-187.305 112.116,-185.907"/>
<polygon fill="midnightblue" stroke="midnightblue" points="78.7448,-186.563 69.2579,-191.28 79.6156,-193.509 78.7448,-186.563"/>
</g>
<!-- Node29 -->
<g id="node29" class="node"><title>Node29</title>
<g id="a_node29"><a xlink:href="$location_8cpp.html#ab0ccbafe7e2809759eea8d45d23e4ba0" xlink:title="location_path_proportion">
<polygon fill="white" stroke="black" points="117.127,-131.5 117.127,-149.5 243.21,-149.5 243.21,-131.5 117.127,-131.5"/>
<text text-anchor="middle" x="180.168" y="-137.5" font-family="Helvetica,sans-Serif" font-size="10.00">location_path_proportion</text>
</a>
</g>
</g>
<!-- Node1&#45;&gt;Node29 -->
<g id="edge35" class="edge"><title>Node1&#45;&gt;Node29</title>
<path fill="none" stroke="midnightblue" d="M59.4796,-181.438C72.6325,-174.135 89.4425,-165.508 105.193,-159.5 115.352,-155.625 126.593,-152.283 137.18,-149.53"/>
<polygon fill="midnightblue" stroke="midnightblue" points="57.5877,-178.487 50.616,-186.465 61.0411,-184.576 57.5877,-178.487"/>
</g>
<!-- Node33 -->
<g id="node33" class="node"><title>Node33</title>
<g id="a_node33"><a xlink:href="$classSITL_1_1CRRCSim.html#a710d8276d948bfc5b82c8b57f406b65e" xlink:title="SITL::CRRCSim::recv_fdm">
<polygon fill="white" stroke="black" points="112.437,-94.5 112.437,-112.5 247.9,-112.5 247.9,-94.5 112.437,-94.5"/>
<text text-anchor="middle" x="180.168" y="-100.5" font-family="Helvetica,sans-Serif" font-size="10.00">SITL::CRRCSim::recv_fdm</text>
</a>
</g>
</g>
<!-- Node1&#45;&gt;Node33 -->
<g id="edge41" class="edge"><title>Node1&#45;&gt;Node33</title>
<path fill="none" stroke="midnightblue" d="M47.7447,-177.948C60.2447,-161.216 81.2329,-136.55 105.193,-122.5 112.285,-118.342 120.281,-115.083 128.327,-112.532"/>
<polygon fill="midnightblue" stroke="midnightblue" points="44.724,-176.152 41.7086,-186.309 50.3996,-180.25 44.724,-176.152"/>
</g>
<!-- Node35 -->
<g id="node35" class="node"><title>Node35</title>
<g id="a_node35"><a xlink:href="$classAP__L1__Control.html#acc0860ec530ec9c9bec50a5701bb709e" xlink:title="AP_L1_Control::update\l_loiter">
<polygon fill="white" stroke="black" points="120.186,-47.5 120.186,-75.5 240.151,-75.5 240.151,-47.5 120.186,-47.5"/>
<text text-anchor="start" x="128.186" y="-63.5" font-family="Helvetica,sans-Serif" font-size="10.00">AP_L1_Control::update</text>
<text text-anchor="middle" x="180.168" y="-53.5" font-family="Helvetica,sans-Serif" font-size="10.00">_loiter</text>
</a>
</g>
</g>
<!-- Node1&#45;&gt;Node35 -->
<g id="edge43" class="edge"><title>Node1&#45;&gt;Node35</title>
<path fill="none" stroke="midnightblue" d="M42.6926,-176.753C52.8818,-152.295 73.9399,-109.766 105.193,-85.5 110.206,-81.6082 115.871,-78.3365 121.781,-75.5883"/>
<polygon fill="midnightblue" stroke="midnightblue" points="39.3361,-175.722 38.8854,-186.307 45.8388,-178.313 39.3361,-175.722"/>
</g>
<!-- Node36 -->
<g id="node36" class="node"><title>Node36</title>
<g id="a_node36"><a xlink:href="$classAP__L1__Control.html#a9052f01ea019fb51432d3104cce0b6e8" xlink:title="AP_L1_Control::update\l_waypoint">
<polygon fill="white" stroke="black" points="120.186,-0.5 120.186,-28.5 240.151,-28.5 240.151,-0.5 120.186,-0.5"/>
<text text-anchor="start" x="128.186" y="-16.5" font-family="Helvetica,sans-Serif" font-size="10.00">AP_L1_Control::update</text>
<text text-anchor="middle" x="180.168" y="-6.5" font-family="Helvetica,sans-Serif" font-size="10.00">_waypoint</text>
</a>
</g>
</g>
<!-- Node1&#45;&gt;Node36 -->
<g id="edge44" class="edge"><title>Node1&#45;&gt;Node36</title>
<path fill="none" stroke="midnightblue" d="M38.9228,-176.019C45.5705,-143.003 63.5934,-76.0011 105.193,-38.5 109.606,-34.5222 114.687,-31.2028 120.076,-28.433"/>
<polygon fill="midnightblue" stroke="midnightblue" points="35.4214,-175.702 37.0259,-186.175 42.3024,-176.988 35.4214,-175.702"/>
</g>
<!-- Node2&#45;&gt;Node3 -->
<g id="edge2" class="edge"><title>Node2&#45;&gt;Node3</title>
<path fill="none" stroke="midnightblue" d="M250.943,-358.86C276.364,-364.82 304.174,-371.34 325.917,-376.439"/>
<polygon fill="midnightblue" stroke="midnightblue" points="251.5,-355.396 240.965,-356.52 249.902,-362.211 251.5,-355.396"/>
</g>
<!-- Node4 -->
<g id="node4" class="node"><title>Node4</title>
<g id="a_node4"><a xlink:href="$classNavEKF__core.html#a88ff1e4a9bbafca3f735e3891b8fa2fa" xlink:title="NavEKF_core::InitialiseFilter\lDynamic">
<polygon fill="white" stroke="black" points="479.057,-393.5 479.057,-421.5 621.209,-421.5 621.209,-393.5 479.057,-393.5"/>
<text text-anchor="start" x="487.057" y="-409.5" font-family="Helvetica,sans-Serif" font-size="10.00">NavEKF_core::InitialiseFilter</text>
<text text-anchor="middle" x="550.133" y="-399.5" font-family="Helvetica,sans-Serif" font-size="10.00">Dynamic</text>
</a>
</g>
</g>
<!-- Node3&#45;&gt;Node4 -->
<g id="edge3" class="edge"><title>Node3&#45;&gt;Node4</title>
<path fill="none" stroke="midnightblue" d="M447.41,-395.242C457.917,-396.508 468.612,-397.797 478.927,-399.04"/>
<polygon fill="midnightblue" stroke="midnightblue" points="447.758,-391.759 437.411,-394.037 446.921,-398.709 447.758,-391.759"/>
</g>
<!-- Node8 -->
<g id="node8" class="node"><title>Node8</title>
<g id="a_node8"><a xlink:href="$classNavEKF__core.html#ab5cf1fe4bc4140da298da0ca89f8e3ca" xlink:title="NavEKF_core::InitialiseFilter\lBootstrap">
<polygon fill="white" stroke="black" points="479.057,-346.5 479.057,-374.5 621.209,-374.5 621.209,-346.5 479.057,-346.5"/>
<text text-anchor="start" x="487.057" y="-362.5" font-family="Helvetica,sans-Serif" font-size="10.00">NavEKF_core::InitialiseFilter</text>
<text text-anchor="middle" x="550.133" y="-352.5" font-family="Helvetica,sans-Serif" font-size="10.00">Bootstrap</text>
</a>
</g>
</g>
<!-- Node3&#45;&gt;Node8 -->
<g id="edge7" class="edge"><title>Node3&#45;&gt;Node8</title>
<path fill="none" stroke="midnightblue" d="M442.521,-375.099C454.607,-373.444 467.061,-371.739 479.004,-370.103"/>
<polygon fill="midnightblue" stroke="midnightblue" points="441.908,-371.65 432.476,-376.474 442.858,-378.585 441.908,-371.65"/>
</g>
<!-- Node12 -->
<g id="node12" class="node"><title>Node12</title>
<g id="a_node12"><a xlink:href="$classNavEKF__core.html#a20167ef21dc07706f5719ff38a2c60a5" xlink:title="NavEKF_core::SelectVelPos\lFusion">
<polygon fill="white" stroke="black" points="478.766,-440.5 478.766,-468.5 621.5,-468.5 621.5,-440.5 478.766,-440.5"/>
<text text-anchor="start" x="486.766" y="-456.5" font-family="Helvetica,sans-Serif" font-size="10.00">NavEKF_core::SelectVelPos</text>
<text text-anchor="middle" x="550.133" y="-446.5" font-family="Helvetica,sans-Serif" font-size="10.00">Fusion</text>
</a>
</g>
</g>
<!-- Node3&#45;&gt;Node12 -->
<g id="edge11" class="edge"><title>Node3&#45;&gt;Node12</title>
<path fill="none" stroke="midnightblue" d="M395.889,-398.707C417.755,-408.338 448.468,-421.415 475.985,-431.5 484.36,-434.569 493.361,-437.607 502.087,-440.42"/>
<polygon fill="midnightblue" stroke="midnightblue" points="397.068,-395.401 386.508,-394.547 394.231,-401.8 397.068,-395.401"/>
</g>
<!-- Node5 -->
<g id="node5" class="node"><title>Node5</title>
<g id="a_node5"><a xlink:href="$classNavEKF.html#a12500a621febd8f914f6e16db4c28759" xlink:title="NavEKF::InitialiseFilter\lDynamic">
<polygon fill="white" stroke="black" points="848.176,-395.5 848.176,-423.5 965.314,-423.5 965.314,-395.5 848.176,-395.5"/>
<text text-anchor="start" x="856.176" y="-411.5" font-family="Helvetica,sans-Serif" font-size="10.00">NavEKF::InitialiseFilter</text>
<text text-anchor="middle" x="906.745" y="-401.5" font-family="Helvetica,sans-Serif" font-size="10.00">Dynamic</text>
</a>
</g>
</g>
<!-- Node4&#45;&gt;Node5 -->
<g id="edge4" class="edge"><title>Node4&#45;&gt;Node5</title>
<path fill="none" stroke="midnightblue" d="M631.962,-407.956C697.845,-408.327 789.28,-408.843 847.986,-409.174"/>
<polygon fill="midnightblue" stroke="midnightblue" points="631.636,-404.454 621.617,-407.898 631.597,-411.454 631.636,-404.454"/>
</g>
<!-- Node6 -->
<g id="node6" class="node"><title>Node6</title>
<g id="a_node6"><a xlink:href="$classAP__AHRS__NavEKF.html#aff7b2c4f3428a48ab5ed210e89df4f76" xlink:title="AP_AHRS_NavEKF::update_EKF1">
<polygon fill="white" stroke="black" points="1009.38,-400.5 1009.38,-418.5 1181.57,-418.5 1181.57,-400.5 1009.38,-400.5"/>
<text text-anchor="middle" x="1095.47" y="-406.5" font-family="Helvetica,sans-Serif" font-size="10.00">AP_AHRS_NavEKF::update_EKF1</text>
</a>
</g>
</g>
<!-- Node5&#45;&gt;Node6 -->
<g id="edge5" class="edge"><title>Node5&#45;&gt;Node6</title>
<path fill="none" stroke="midnightblue" d="M975.781,-409.5C986.634,-409.5 997.981,-409.5 1009.17,-409.5"/>
<polygon fill="midnightblue" stroke="midnightblue" points="975.548,-406 965.548,-409.5 975.548,-413 975.548,-406"/>
</g>
<!-- Node7 -->
<g id="node7" class="node"><title>Node7</title>
<g id="a_node7"><a xlink:href="$classAP__AHRS__NavEKF.html#a9d5f47f1bc0e3864bbc4c6c6e2ca8b1c" xlink:title="AP_AHRS_NavEKF::update">
<polygon fill="white" stroke="black" points="1217.57,-336.5 1217.57,-354.5 1359.19,-354.5 1359.19,-336.5 1217.57,-336.5"/>
<text text-anchor="middle" x="1288.38" y="-342.5" font-family="Helvetica,sans-Serif" font-size="10.00">AP_AHRS_NavEKF::update</text>
</a>
</g>
</g>
<!-- Node6&#45;&gt;Node7 -->
<g id="edge6" class="edge"><title>Node6&#45;&gt;Node7</title>
<path fill="none" stroke="midnightblue" d="M1133.36,-397.135C1170.53,-384.673 1227.02,-365.736 1260.26,-354.591"/>
<polygon fill="midnightblue" stroke="midnightblue" points="1131.79,-393.969 1123.42,-400.466 1134.01,-400.606 1131.79,-393.969"/>
</g>
<!-- Node9 -->
<g id="node9" class="node"><title>Node9</title>
<g id="a_node9"><a xlink:href="$classNavEKF.html#a290932b02347c5247f036fbc3c7af9d8" xlink:title="NavEKF::InitialiseFilter\lBootstrap">
<polygon fill="white" stroke="black" points="673.627,-346.5 673.627,-374.5 790.765,-374.5 790.765,-346.5 673.627,-346.5"/>
<text text-anchor="start" x="681.627" y="-362.5" font-family="Helvetica,sans-Serif" font-size="10.00">NavEKF::InitialiseFilter</text>
<text text-anchor="middle" x="732.196" y="-352.5" font-family="Helvetica,sans-Serif" font-size="10.00">Bootstrap</text>
</a>
</g>
</g>
<!-- Node8&#45;&gt;Node9 -->
<g id="edge8" class="edge"><title>Node8&#45;&gt;Node9</title>
<path fill="none" stroke="midnightblue" d="M631.489,-360.5C645.634,-360.5 660.102,-360.5 673.474,-360.5"/>
<polygon fill="midnightblue" stroke="midnightblue" points="631.266,-357 621.266,-360.5 631.266,-364 631.266,-357"/>
</g>
<!-- Node10 -->
<g id="node10" class="node"><title>Node10</title>
<g id="a_node10"><a xlink:href="$classAP__AHRS__NavEKF.html#abdb5e9bc0803f733ab1b0a423baad8d1" xlink:title="AP_AHRS_NavEKF::reset">
<polygon fill="white" stroke="black" points="840.112,-358.5 840.112,-376.5 973.378,-376.5 973.378,-358.5 840.112,-358.5"/>
<text text-anchor="middle" x="906.745" y="-364.5" font-family="Helvetica,sans-Serif" font-size="10.00">AP_AHRS_NavEKF::reset</text>
</a>
</g>
</g>
<!-- Node9&#45;&gt;Node10 -->
<g id="edge9" class="edge"><title>Node9&#45;&gt;Node10</title>
<path fill="none" stroke="midnightblue" d="M801.21,-363.259C813.953,-363.776 827.253,-364.316 839.927,-364.83"/>
<polygon fill="midnightblue" stroke="midnightblue" points="801.266,-359.759 791.133,-362.85 800.982,-366.753 801.266,-359.759"/>
</g>
<!-- Node11 -->
<g id="node11" class="node"><title>Node11</title>
<g id="a_node11"><a xlink:href="$classAP__AHRS__NavEKF.html#ae76a84b4b941df4d8a4304ff242d18a5" xlink:title="AP_AHRS_NavEKF::reset\l_attitude">
<polygon fill="white" stroke="black" points="840.112,-311.5 840.112,-339.5 973.378,-339.5 973.378,-311.5 840.112,-311.5"/>
<text text-anchor="start" x="848.112" y="-327.5" font-family="Helvetica,sans-Serif" font-size="10.00">AP_AHRS_NavEKF::reset</text>
<text text-anchor="middle" x="906.745" y="-317.5" font-family="Helvetica,sans-Serif" font-size="10.00">_attitude</text>
</a>
</g>
</g>
<!-- Node9&#45;&gt;Node11 -->
<g id="edge10" class="edge"><title>Node9&#45;&gt;Node11</title>
<path fill="none" stroke="midnightblue" d="M801.21,-346.704C813.953,-344.119 827.253,-341.422 839.927,-338.851"/>
<polygon fill="midnightblue" stroke="midnightblue" points="800.237,-343.33 791.133,-348.748 801.629,-350.19 800.237,-343.33"/>
</g>
<!-- Node13 -->
<g id="node13" class="node"><title>Node13</title>
<g id="a_node13"><a xlink:href="$classNavEKF__core.html#addb3791473c00d6f49b485ae3ce22f26" xlink:title="NavEKF_core::UpdateFilter">
<polygon fill="white" stroke="black" points="663.061,-444.5 663.061,-462.5 801.332,-462.5 801.332,-444.5 663.061,-444.5"/>
<text text-anchor="middle" x="732.196" y="-450.5" font-family="Helvetica,sans-Serif" font-size="10.00">NavEKF_core::UpdateFilter</text>
</a>
</g>
</g>
<!-- Node12&#45;&gt;Node13 -->
<g id="edge12" class="edge"><title>Node12&#45;&gt;Node13</title>
<path fill="none" stroke="midnightblue" d="M631.83,-454.052C642.213,-453.994 652.763,-453.936 662.92,-453.879"/>
<polygon fill="midnightblue" stroke="midnightblue" points="631.504,-450.553 621.524,-454.109 631.543,-457.553 631.504,-450.553"/>
</g>
<!-- Node14 -->
<g id="node14" class="node"><title>Node14</title>
<g id="a_node14"><a xlink:href="$classNavEKF.html#a58d3c9694abab421e8eadd78e72ac67c" xlink:title="NavEKF::UpdateFilter">
<polygon fill="white" stroke="black" points="850.117,-442.5 850.117,-460.5 963.373,-460.5 963.373,-442.5 850.117,-442.5"/>
<text text-anchor="middle" x="906.745" y="-448.5" font-family="Helvetica,sans-Serif" font-size="10.00">NavEKF::UpdateFilter</text>
</a>
</g>
</g>
<!-- Node13&#45;&gt;Node14 -->
<g id="edge13" class="edge"><title>Node13&#45;&gt;Node14</title>
<path fill="none" stroke="midnightblue" d="M811.681,-452.59C824.6,-452.441 837.755,-452.288 849.973,-452.146"/>
<polygon fill="midnightblue" stroke="midnightblue" points="811.351,-449.094 801.392,-452.71 811.432,-456.093 811.351,-449.094"/>
</g>
<!-- Node14&#45;&gt;Node6 -->
<g id="edge14" class="edge"><title>Node14&#45;&gt;Node6</title>
<path fill="none" stroke="midnightblue" d="M957.719,-440.26C987.912,-433.468 1025.89,-424.926 1054.16,-418.568"/>
<polygon fill="midnightblue" stroke="midnightblue" points="956.791,-436.881 947.803,-442.49 958.327,-443.71 956.791,-436.881"/>
</g>
<!-- Node15&#45;&gt;Node16 -->
<g id="edge16" class="edge"><title>Node15&#45;&gt;Node16</title>
<path fill="none" stroke="midnightblue" d="M265.303,-267.51C275.432,-268.836 285.685,-270.178 295.563,-271.47"/>
<polygon fill="midnightblue" stroke="midnightblue" points="265.604,-264.02 255.234,-266.193 264.695,-270.961 265.604,-264.02"/>
</g>
<!-- Node17 -->
<g id="node17" class="node"><title>Node17</title>
<g id="a_node17"><a xlink:href="$classNavEKF2__core.html#a4a06ae47c3edebdecd2b179a0567f00b" xlink:title="NavEKF2_core::Initialise\lFilterBootstrap">
<polygon fill="white" stroke="black" points="487.387,-299.5 487.387,-327.5 612.879,-327.5 612.879,-299.5 487.387,-299.5"/>
<text text-anchor="start" x="495.387" y="-315.5" font-family="Helvetica,sans-Serif" font-size="10.00">NavEKF2_core::Initialise</text>
<text text-anchor="middle" x="550.133" y="-305.5" font-family="Helvetica,sans-Serif" font-size="10.00">FilterBootstrap</text>
</a>
</g>
</g>
<!-- Node16&#45;&gt;Node17 -->
<g id="edge17" class="edge"><title>Node16&#45;&gt;Node17</title>
<path fill="none" stroke="midnightblue" d="M426.427,-291.32C445.925,-294.845 467.601,-298.763 487.244,-302.313"/>
<polygon fill="midnightblue" stroke="midnightblue" points="426.915,-287.852 416.452,-289.517 425.67,-294.74 426.915,-287.852"/>
</g>
<!-- Node20 -->
<g id="node20" class="node"><title>Node20</title>
<g id="a_node20"><a xlink:href="$classNavEKF2__core.html#aff31047fa71772bca7ce574617ede0f6" xlink:title="NavEKF2_core::SelectVelPos\lFusion">
<polygon fill="white" stroke="black" points="475.985,-252.5 475.985,-280.5 624.28,-280.5 624.28,-252.5 475.985,-252.5"/>
<text text-anchor="start" x="483.985" y="-268.5" font-family="Helvetica,sans-Serif" font-size="10.00">NavEKF2_core::SelectVelPos</text>
<text text-anchor="middle" x="550.133" y="-258.5" font-family="Helvetica,sans-Serif" font-size="10.00">Fusion</text>
</a>
</g>
</g>
<!-- Node16&#45;&gt;Node20 -->
<g id="edge23" class="edge"><title>Node16&#45;&gt;Node20</title>
<path fill="none" stroke="midnightblue" d="M450.061,-274.097C458.655,-273.438 467.343,-272.772 475.815,-272.122"/>
<polygon fill="midnightblue" stroke="midnightblue" points="449.736,-270.612 440.033,-274.866 450.271,-277.591 449.736,-270.612"/>
</g>
<!-- Node18 -->
<g id="node18" class="node"><title>Node18</title>
<g id="a_node18"><a xlink:href="$classNavEKF2.html#a9c447b8d84abf2dfc845ddbbbad46a2b" xlink:title="NavEKF2::InitialiseFilter">
<polygon fill="white" stroke="black" points="670.847,-306.5 670.847,-324.5 793.546,-324.5 793.546,-306.5 670.847,-306.5"/>
<text text-anchor="middle" x="732.196" y="-312.5" font-family="Helvetica,sans-Serif" font-size="10.00">NavEKF2::InitialiseFilter</text>
</a>
</g>
</g>
<!-- Node17&#45;&gt;Node18 -->
<g id="edge18" class="edge"><title>Node17&#45;&gt;Node18</title>
<path fill="none" stroke="midnightblue" d="M623.287,-314.301C638.986,-314.476 655.441,-314.659 670.637,-314.827"/>
<polygon fill="midnightblue" stroke="midnightblue" points="623.139,-310.8 613.1,-314.188 623.061,-317.799 623.139,-310.8"/>
</g>
<!-- Node18&#45;&gt;Node10 -->
<g id="edge21" class="edge"><title>Node18&#45;&gt;Node10</title>
<path fill="none" stroke="midnightblue" d="M772.495,-327.531C782.796,-330.728 793.883,-334.209 804.112,-337.5 820.167,-342.666 823.974,-344.601 840.112,-349.5 850.175,-352.554 861.173,-355.661 871.241,-358.413"/>
<polygon fill="midnightblue" stroke="midnightblue" points="773.501,-324.178 762.913,-324.567 771.433,-330.866 773.501,-324.178"/>
</g>
<!-- Node18&#45;&gt;Node11 -->
<g id="edge22" class="edge"><title>Node18&#45;&gt;Node11</title>
<path fill="none" stroke="midnightblue" d="M804.267,-319.619C816.057,-320.302 828.238,-321.008 839.892,-321.683"/>
<polygon fill="midnightblue" stroke="midnightblue" points="804.216,-316.11 794.031,-319.026 803.811,-323.098 804.216,-316.11"/>
</g>
<!-- Node19 -->
<g id="node19" class="node"><title>Node19</title>
<g id="a_node19"><a xlink:href="$classAP__AHRS__NavEKF.html#a0187c6d3d4348b002a204c05d3e94b07" xlink:title="AP_AHRS_NavEKF::update_EKF2">
<polygon fill="white" stroke="black" points="1009.38,-273.5 1009.38,-291.5 1181.57,-291.5 1181.57,-273.5 1009.38,-273.5"/>
<text text-anchor="middle" x="1095.47" y="-279.5" font-family="Helvetica,sans-Serif" font-size="10.00">AP_AHRS_NavEKF::update_EKF2</text>
</a>
</g>
</g>
<!-- Node18&#45;&gt;Node19 -->
<g id="edge19" class="edge"><title>Node18&#45;&gt;Node19</title>
<path fill="none" stroke="midnightblue" d="M803.726,-306.493C815.852,-305.068 828.338,-303.678 840.112,-302.5 896.42,-296.866 959.872,-291.874 1009.32,-288.287"/>
<polygon fill="midnightblue" stroke="midnightblue" points="803.163,-303.036 793.647,-307.695 803.991,-309.986 803.163,-303.036"/>
</g>
<!-- Node19&#45;&gt;Node7 -->
<g id="edge20" class="edge"><title>Node19&#45;&gt;Node7</title>
<path fill="none" stroke="midnightblue" d="M1133.75,-294.803C1170.86,-307.049 1226.93,-325.551 1260.08,-336.49"/>
<polygon fill="midnightblue" stroke="midnightblue" points="1134.42,-291.337 1123.83,-291.526 1132.23,-297.984 1134.42,-291.337"/>
</g>
<!-- Node21 -->
<g id="node21" class="node"><title>Node21</title>
<g id="a_node21"><a xlink:href="$classNavEKF2__core.html#a5f5c815cbd5ebba30d731f89f87726c3" xlink:title="NavEKF2_core::UpdateFilter">
<polygon fill="white" stroke="black" points="660.28,-246.5 660.28,-264.5 804.112,-264.5 804.112,-246.5 660.28,-246.5"/>
<text text-anchor="middle" x="732.196" y="-252.5" font-family="Helvetica,sans-Serif" font-size="10.00">NavEKF2_core::UpdateFilter</text>
</a>
</g>
</g>
<!-- Node20&#45;&gt;Node21 -->
<g id="edge24" class="edge"><title>Node20&#45;&gt;Node21</title>
<path fill="none" stroke="midnightblue" d="M634.388,-261.414C642.968,-260.89 651.631,-260.361 660.063,-259.846"/>
<polygon fill="midnightblue" stroke="midnightblue" points="634.139,-257.923 624.372,-262.026 634.566,-264.91 634.139,-257.923"/>
</g>
<!-- Node22 -->
<g id="node22" class="node"><title>Node22</title>
<g id="a_node22"><a xlink:href="$classNavEKF2.html#a72815b1bbd9d7ceb0ff7ae52d14516df" xlink:title="NavEKF2::UpdateFilter">
<polygon fill="white" stroke="black" points="847.336,-235.5 847.336,-253.5 966.154,-253.5 966.154,-235.5 847.336,-235.5"/>
<text text-anchor="middle" x="906.745" y="-241.5" font-family="Helvetica,sans-Serif" font-size="10.00">NavEKF2::UpdateFilter</text>
</a>
</g>
</g>
<!-- Node21&#45;&gt;Node22 -->
<g id="edge25" class="edge"><title>Node21&#45;&gt;Node22</title>
<path fill="none" stroke="midnightblue" d="M814.434,-250.321C825.443,-249.619 836.562,-248.91 847.07,-248.241"/>
<polygon fill="midnightblue" stroke="midnightblue" points="814.132,-246.833 804.375,-250.962 814.577,-253.819 814.132,-246.833"/>
</g>
<!-- Node22&#45;&gt;Node19 -->
<g id="edge26" class="edge"><title>Node22&#45;&gt;Node19</title>
<path fill="none" stroke="midnightblue" d="M962.036,-255.548C990.054,-261.25 1023.8,-268.118 1050.22,-273.493"/>
<polygon fill="midnightblue" stroke="midnightblue" points="962.494,-252.07 951.997,-253.505 961.098,-258.929 962.494,-252.07"/>
</g>
<!-- Node24 -->
<g id="node24" class="node"><title>Node24</title>
<g id="a_node24"><a xlink:href="$classNavEKF2.html#aa63ef8fc437fe1cdf901b8a0cc56bf5e" xlink:title="NavEKF2::getPosNED">
<polygon fill="white" stroke="black" points="307.267,-205.5 307.267,-223.5 423.862,-223.5 423.862,-205.5 307.267,-205.5"/>
<text text-anchor="middle" x="365.564" y="-211.5" font-family="Helvetica,sans-Serif" font-size="10.00">NavEKF2::getPosNED</text>
</a>
</g>
</g>
<!-- Node23&#45;&gt;Node24 -->
<g id="edge28" class="edge"><title>Node23&#45;&gt;Node24</title>
<path fill="none" stroke="midnightblue" d="M261.115,-214.5C276.596,-214.5 292.532,-214.5 307.118,-214.5"/>
<polygon fill="midnightblue" stroke="midnightblue" points="261.026,-211 251.026,-214.5 261.026,-218 261.026,-211"/>
</g>
<!-- Node25 -->
<g id="node25" class="node"><title>Node25</title>
<g id="a_node25"><a xlink:href="$classAP__AHRS__NavEKF.html#ab2bc37cda9f3338c1738cc21a533ab24" xlink:title="AP_AHRS_NavEKF::get\l_position">
<polygon fill="white" stroke="black" points="487.665,-205.5 487.665,-233.5 612.601,-233.5 612.601,-205.5 487.665,-205.5"/>
<text text-anchor="start" x="495.665" y="-221.5" font-family="Helvetica,sans-Serif" font-size="10.00">AP_AHRS_NavEKF::get</text>
<text text-anchor="middle" x="550.133" y="-211.5" font-family="Helvetica,sans-Serif" font-size="10.00">_position</text>
</a>
</g>
</g>
<!-- Node24&#45;&gt;Node25 -->
<g id="edge29" class="edge"><title>Node24&#45;&gt;Node25</title>
<path fill="none" stroke="midnightblue" d="M434.437,-216.359C451.879,-216.837 470.543,-217.348 487.642,-217.816"/>
<polygon fill="midnightblue" stroke="midnightblue" points="434.422,-212.857 424.33,-216.082 434.231,-219.855 434.422,-212.857"/>
</g>
<!-- Node26 -->
<g id="node26" class="node"><title>Node26</title>
<g id="a_node26"><a xlink:href="$classAP__AHRS__NavEKF.html#ad21294a12f79979b9f434b26674cbde1" xlink:title="AP_AHRS_NavEKF::get\l_relative_position_NED">
<polygon fill="white" stroke="black" points="487.665,-158.5 487.665,-186.5 612.601,-186.5 612.601,-158.5 487.665,-158.5"/>
<text text-anchor="start" x="495.665" y="-174.5" font-family="Helvetica,sans-Serif" font-size="10.00">AP_AHRS_NavEKF::get</text>
<text text-anchor="middle" x="550.133" y="-164.5" font-family="Helvetica,sans-Serif" font-size="10.00">_relative_position_NED</text>
</a>
</g>
</g>
<!-- Node24&#45;&gt;Node26 -->
<g id="edge30" class="edge"><title>Node24&#45;&gt;Node26</title>
<path fill="none" stroke="midnightblue" d="M415.646,-203.209C437.944,-198.079 464.551,-191.958 488.121,-186.536"/>
<polygon fill="midnightblue" stroke="midnightblue" points="414.691,-199.837 405.73,-205.49 416.26,-206.659 414.691,-199.837"/>
</g>
<!-- Node28 -->
<g id="node28" class="node"><title>Node28</title>
<g id="a_node28"><a xlink:href="$classNavEKF.html#a90a1fa4f67a09d5af0a6d2a11580269f" xlink:title="NavEKF::getPosNED">
<polygon fill="white" stroke="black" points="310.047,-168.5 310.047,-186.5 421.082,-186.5 421.082,-168.5 310.047,-168.5"/>
<text text-anchor="middle" x="365.564" y="-174.5" font-family="Helvetica,sans-Serif" font-size="10.00">NavEKF::getPosNED</text>
</a>
</g>
</g>
<!-- Node27&#45;&gt;Node28 -->
<g id="edge32" class="edge"><title>Node27&#45;&gt;Node28</title>
<path fill="none" stroke="midnightblue" d="M258.499,-177.5C275.792,-177.5 293.783,-177.5 309.932,-177.5"/>
<polygon fill="midnightblue" stroke="midnightblue" points="258.417,-174 248.417,-177.5 258.417,-181 258.417,-174"/>
</g>
<!-- Node28&#45;&gt;Node25 -->
<g id="edge33" class="edge"><title>Node28&#45;&gt;Node25</title>
<path fill="none" stroke="midnightblue" d="M415.646,-188.791C437.944,-193.921 464.551,-200.042 488.121,-205.464"/>
<polygon fill="midnightblue" stroke="midnightblue" points="416.26,-185.341 405.73,-186.51 414.691,-192.163 416.26,-185.341"/>
</g>
<!-- Node28&#45;&gt;Node26 -->
<g id="edge34" class="edge"><title>Node28&#45;&gt;Node26</title>
<path fill="none" stroke="midnightblue" d="M431.544,-175.72C449.706,-175.223 469.388,-174.684 487.359,-174.192"/>
<polygon fill="midnightblue" stroke="midnightblue" points="431.241,-172.227 421.341,-176 431.433,-179.225 431.241,-172.227"/>
</g>
<!-- Node30 -->
<g id="node30" class="node"><title>Node30</title>
<g id="a_node30"><a xlink:href="$location_8cpp.html#ab6cd880d070717b4c3cc7a7278768e72" xlink:title="location_passed_point">
<polygon fill="white" stroke="black" points="307.804,-131.5 307.804,-149.5 423.325,-149.5 423.325,-131.5 307.804,-131.5"/>
<text text-anchor="middle" x="365.564" y="-137.5" font-family="Helvetica,sans-Serif" font-size="10.00">location_passed_point</text>
</a>
</g>
</g>
<!-- Node29&#45;&gt;Node30 -->
<g id="edge36" class="edge"><title>Node29&#45;&gt;Node30</title>
<path fill="none" stroke="midnightblue" d="M253.45,-140.5C271.501,-140.5 290.604,-140.5 307.785,-140.5"/>
<polygon fill="midnightblue" stroke="midnightblue" points="253.258,-137 243.258,-140.5 253.258,-144 253.258,-137"/>
</g>
<!-- Node31 -->
<g id="node31" class="node"><title>Node31</title>
<g id="a_node31"><a xlink:href="$examples_2location_2location_8cpp.html#aff2387ea872bdd079c8de9005c934319" xlink:title="test_passed_waypoint">
<polygon fill="white" stroke="black" points="492.655,-121.5 492.655,-139.5 607.61,-139.5 607.61,-121.5 492.655,-121.5"/>
<text text-anchor="middle" x="550.133" y="-127.5" font-family="Helvetica,sans-Serif" font-size="10.00">test_passed_waypoint</text>
</a>
</g>
</g>
<!-- Node30&#45;&gt;Node31 -->
<g id="edge37" class="edge"><title>Node30&#45;&gt;Node31</title>
<path fill="none" stroke="midnightblue" d="M433.572,-136.83C452.89,-135.772 473.773,-134.628 492.403,-133.607"/>
<polygon fill="midnightblue" stroke="midnightblue" points="433.123,-133.349 423.329,-137.391 433.506,-140.339 433.123,-133.349"/>
</g>
<!-- Node32 -->
<g id="node32" class="node"><title>Node32</title>
<g id="a_node32"><a xlink:href="$examples_2location_2location_8cpp.html#a7dfd9b79bc5a37d7df40207afbc5431f" xlink:title="setup">
<polygon fill="white" stroke="black" points="711.965,-121.5 711.965,-139.5 752.428,-139.5 752.428,-121.5 711.965,-121.5"/>
<text text-anchor="middle" x="732.196" y="-127.5" font-family="Helvetica,sans-Serif" font-size="10.00">setup</text>
</a>
</g>
</g>
<!-- Node31&#45;&gt;Node32 -->
<g id="edge38" class="edge"><title>Node31&#45;&gt;Node32</title>
<path fill="none" stroke="midnightblue" d="M617.842,-130.5C651.359,-130.5 689.507,-130.5 711.901,-130.5"/>
<polygon fill="midnightblue" stroke="midnightblue" points="617.612,-127 607.612,-130.5 617.612,-134 617.612,-127"/>
</g>
<!-- Node34 -->
<g id="node34" class="node"><title>Node34</title>
<g id="a_node34"><a xlink:href="$classSITL_1_1CRRCSim.html#ada236d396837feb2c5efe885ea504f87" xlink:title="SITL::CRRCSim::update">
<polygon fill="white" stroke="black" points="303.102,-94.5 303.102,-112.5 428.027,-112.5 428.027,-94.5 303.102,-94.5"/>
<text text-anchor="middle" x="365.564" y="-100.5" font-family="Helvetica,sans-Serif" font-size="10.00">SITL::CRRCSim::update</text>
</a>
</g>
</g>
<!-- Node33&#45;&gt;Node34 -->
<g id="edge42" class="edge"><title>Node33&#45;&gt;Node34</title>
<path fill="none" stroke="midnightblue" d="M258.353,-103.5C273.23,-103.5 288.629,-103.5 302.932,-103.5"/>
<polygon fill="midnightblue" stroke="midnightblue" points="258.157,-100 248.157,-103.5 258.157,-107 258.157,-100"/>
</g>
</g>
</svg>
