<?xml version="1.0" encoding="UTF-8" standalone="no"?>
<!DOCTYPE svg PUBLIC "-//W3C//DTD SVG 1.1//EN"
 "http://www.w3.org/Graphics/SVG/1.1/DTD/svg11.dtd">
<!-- Generated by graphviz version 2.38.0 (20140413.2041)
 -->
<!-- Title: libraries/AP_BoardConfig/AP_BoardConfig.h Pages: 1 -->
<svg width="136pt" height="102pt"
 viewBox="0.00 0.00 136.28 102.00" xmlns="http://www.w3.org/2000/svg" xmlns:xlink="http://www.w3.org/1999/xlink">
<g id="graph0" class="graph" transform="scale(1 1) rotate(0) translate(4 98)">
<title>libraries/AP_BoardConfig/AP_BoardConfig.h</title>
<polygon fill="white" stroke="none" points="-4,4 -4,-98 132.28,-98 132.28,4 -4,4"/>
<!-- Node1 -->
<g id="node1" class="node"><title>Node1</title>
<polygon fill="#bfbfbf" stroke="black" points="0,-65.5 0,-93.5 128.28,-93.5 128.28,-65.5 0,-65.5"/>
<text text-anchor="start" x="8" y="-81.5" font-family="Helvetica,sans-Serif" font-size="10.00">libraries/AP_BoardConfig</text>
<text text-anchor="middle" x="64.1401" y="-71.5" font-family="Helvetica,sans-Serif" font-size="10.00">/AP_BoardConfig.h</text>
</g>
<!-- Node2 -->
<g id="node2" class="node"><title>Node2</title>
<g id="a_node2"><a xlink:href="$AP__BoardConfig_8cpp.html" xlink:title="libraries/AP_BoardConfig\l/AP_BoardConfig.cpp">
<polygon fill="white" stroke="black" points="0,-0.5 0,-28.5 128.28,-28.5 128.28,-0.5 0,-0.5"/>
<text text-anchor="start" x="8" y="-16.5" font-family="Helvetica,sans-Serif" font-size="10.00">libraries/AP_BoardConfig</text>
<text text-anchor="middle" x="64.1401" y="-6.5" font-family="Helvetica,sans-Serif" font-size="10.00">/AP_BoardConfig.cpp</text>
</a>
</g>
</g>
<!-- Node1&#45;&gt;Node2 -->
<g id="edge1" class="edge"><title>Node1&#45;&gt;Node2</title>
<path fill="none" stroke="midnightblue" d="M64.1401,-55.1641C64.1401,-46.1693 64.1401,-36.2205 64.1401,-28.5369"/>
<polygon fill="midnightblue" stroke="midnightblue" points="60.6402,-55.4463 64.1401,-65.4464 67.6402,-55.4464 60.6402,-55.4463"/>
</g>
</g>
</svg>
