<?xml version="1.0" encoding="UTF-8" standalone="no"?>
<!DOCTYPE svg PUBLIC "-//W3C//DTD SVG 1.1//EN"
 "http://www.w3.org/Graphics/SVG/1.1/DTD/svg11.dtd">
<!-- Generated by graphviz version 2.38.0 (20140413.2041)
 -->
<!-- Title: loop Pages: 1 -->
<svg width="646pt" height="121pt"
 viewBox="0.00 0.00 646.06 121.00" xmlns="http://www.w3.org/2000/svg" xmlns:xlink="http://www.w3.org/1999/xlink">
<g id="graph0" class="graph" transform="scale(1 1) rotate(0) translate(4 117)">
<title>loop</title>
<polygon fill="white" stroke="none" points="-4,4 -4,-117 642.058,-117 642.058,4 -4,4"/>
<!-- Node1 -->
<g id="node1" class="node"><title>Node1</title>
<polygon fill="#bfbfbf" stroke="black" points="0,-47.5 0,-65.5 34.9062,-65.5 34.9062,-47.5 0,-47.5"/>
<text text-anchor="middle" x="17.4531" y="-53.5" font-family="Helvetica,sans-Serif" font-size="10.00">loop</text>
</g>
<!-- Node2 -->
<g id="node2" class="node"><title>Node2</title>
<g id="a_node2"><a xlink:href="$classAP__HAL_1_1SPIDeviceDriver.html#acb3739821064a2bebc3015b817978724" xlink:title="AP_HAL::SPIDeviceDriver\l::transaction">
<polygon fill="white" stroke="black" points="70.9062,-84.5 70.9062,-112.5 204.167,-112.5 204.167,-84.5 70.9062,-84.5"/>
<text text-anchor="start" x="78.9062" y="-100.5" font-family="Helvetica,sans-Serif" font-size="10.00">AP_HAL::SPIDeviceDriver</text>
<text text-anchor="middle" x="137.537" y="-90.5" font-family="Helvetica,sans-Serif" font-size="10.00">::transaction</text>
</a>
</g>
</g>
<!-- Node1&#45;&gt;Node2 -->
<g id="edge1" class="edge"><title>Node1&#45;&gt;Node2</title>
<path fill="none" stroke="midnightblue" d="M34.9741,-62.5344C45.2938,-66.2913 58.8631,-71.2087 70.9062,-75.5 76.0242,-77.3236 81.3707,-79.2168 86.7074,-81.0988"/>
<polygon fill="midnightblue" stroke="midnightblue" points="85.6564,-84.4393 96.2513,-84.4567 87.9798,-77.8361 85.6564,-84.4393"/>
</g>
<!-- Node3 -->
<g id="node3" class="node"><title>Node3</title>
<g id="a_node3"><a xlink:href="$classAP__HAL_1_1Print.html#ad337ce3f7977411b7d34d47a51e5737e" xlink:title="AP_HAL::Print::println">
<polygon fill="white" stroke="black" points="80.9038,-47.5 80.9038,-65.5 194.169,-65.5 194.169,-47.5 80.9038,-47.5"/>
<text text-anchor="middle" x="137.537" y="-53.5" font-family="Helvetica,sans-Serif" font-size="10.00">AP_HAL::Print::println</text>
</a>
</g>
</g>
<!-- Node1&#45;&gt;Node3 -->
<g id="edge2" class="edge"><title>Node1&#45;&gt;Node3</title>
<path fill="none" stroke="midnightblue" d="M35.1212,-56.5C44.696,-56.5 57.4132,-56.5 70.5955,-56.5"/>
<polygon fill="midnightblue" stroke="midnightblue" points="70.7225,-60.0001 80.7225,-56.5 70.7225,-53.0001 70.7225,-60.0001"/>
</g>
<!-- Node7 -->
<g id="node7" class="node"><title>Node7</title>
<g id="a_node7"><a xlink:href="$classAP__HAL_1_1Scheduler.html#ab3175e2e6223ccfe82f957e41cc12b26" xlink:title="AP_HAL::Scheduler::\ldelay">
<polygon fill="white" stroke="black" points="82.2881,-0.5 82.2881,-28.5 192.785,-28.5 192.785,-0.5 82.2881,-0.5"/>
<text text-anchor="start" x="90.2881" y="-16.5" font-family="Helvetica,sans-Serif" font-size="10.00">AP_HAL::Scheduler::</text>
<text text-anchor="middle" x="137.537" y="-6.5" font-family="Helvetica,sans-Serif" font-size="10.00">delay</text>
</a>
</g>
</g>
<!-- Node1&#45;&gt;Node7 -->
<g id="edge7" class="edge"><title>Node1&#45;&gt;Node7</title>
<path fill="none" stroke="midnightblue" d="M35.1212,-50.5715C48.7637,-45.7191 68.7858,-38.5976 87.4432,-31.9616"/>
<polygon fill="midnightblue" stroke="midnightblue" points="88.7855,-35.199 97.0344,-28.5502 86.4397,-28.6038 88.7855,-35.199"/>
</g>
<!-- Node4 -->
<g id="node4" class="node"><title>Node4</title>
<g id="a_node4"><a xlink:href="$classAP__HAL_1_1Print.html#acfe80773011eb17dfb52c2fba517a093" xlink:title="AP_HAL::Print::print">
<polygon fill="white" stroke="black" points="389.433,-47.5 389.433,-65.5 494.915,-65.5 494.915,-47.5 389.433,-47.5"/>
<text text-anchor="middle" x="442.174" y="-53.5" font-family="Helvetica,sans-Serif" font-size="10.00">AP_HAL::Print::print</text>
</a>
</g>
</g>
<!-- Node3&#45;&gt;Node4 -->
<g id="edge3" class="edge"><title>Node3&#45;&gt;Node4</title>
<path fill="none" stroke="midnightblue" d="M194.398,-56.5C246.705,-56.5 324.732,-56.5 378.995,-56.5"/>
<polygon fill="midnightblue" stroke="midnightblue" points="379.177,-60.0001 389.177,-56.5 379.177,-53.0001 379.177,-60.0001"/>
</g>
<!-- Node6 -->
<g id="node6" class="node"><title>Node6</title>
<g id="a_node6"><a xlink:href="$classAP__HAL_1_1Print.html#a169b128f9e22f0c15883768f580541a2" xlink:title="AP_HAL::Print::println">
<polygon fill="white" stroke="black" points="240.167,-28.5 240.167,-46.5 353.433,-46.5 353.433,-28.5 240.167,-28.5"/>
<text text-anchor="middle" x="296.8" y="-34.5" font-family="Helvetica,sans-Serif" font-size="10.00">AP_HAL::Print::println</text>
</a>
</g>
</g>
<!-- Node3&#45;&gt;Node6 -->
<g id="edge5" class="edge"><title>Node3&#45;&gt;Node6</title>
<path fill="none" stroke="midnightblue" d="M194.425,-49.7478C205.896,-48.3619 218.074,-46.8905 229.862,-45.4664"/>
<polygon fill="midnightblue" stroke="midnightblue" points="230.584,-48.9047 240.092,-44.2304 229.744,-41.9552 230.584,-48.9047"/>
</g>
<!-- Node5 -->
<g id="node5" class="node"><title>Node5</title>
<g id="a_node5"><a xlink:href="$classAP__HAL_1_1Print.html#acc65391952a43334f8f5c9bef341f501" xlink:title="AP_HAL::Print::write">
<polygon fill="white" stroke="black" points="530.915,-47.5 530.915,-65.5 638.058,-65.5 638.058,-47.5 530.915,-47.5"/>
<text text-anchor="middle" x="584.486" y="-53.5" font-family="Helvetica,sans-Serif" font-size="10.00">AP_HAL::Print::write</text>
</a>
</g>
</g>
<!-- Node4&#45;&gt;Node5 -->
<g id="edge4" class="edge"><title>Node4&#45;&gt;Node5</title>
<path fill="none" stroke="midnightblue" d="M495.022,-56.5C503.439,-56.5 512.233,-56.5 520.873,-56.5"/>
<polygon fill="midnightblue" stroke="midnightblue" points="520.913,-60.0001 530.913,-56.5 520.913,-53.0001 520.913,-60.0001"/>
</g>
<!-- Node6&#45;&gt;Node4 -->
<g id="edge6" class="edge"><title>Node6&#45;&gt;Node4</title>
<path fill="none" stroke="midnightblue" d="M353.642,-44.9003C361.916,-45.9966 370.485,-47.1323 378.879,-48.2447"/>
<polygon fill="midnightblue" stroke="midnightblue" points="378.627,-51.7418 389.001,-49.586 379.547,-44.8025 378.627,-51.7418"/>
</g>
</g>
</svg>
