<?xml version="1.0" encoding="UTF-8" standalone="no"?>
<!DOCTYPE svg PUBLIC "-//W3C//DTD SVG 1.1//EN"
 "http://www.w3.org/Graphics/SVG/1.1/DTD/svg11.dtd">
<!-- Generated by graphviz version 2.38.0 (20140413.2041)
 -->
<!-- Title: libraries/AP_HAL_FLYMAPLE/AP_HAL_FLYMAPLE_Namespace.h Pages: 1 -->
<svg width="4495pt" height="437pt"
 viewBox="0.00 0.00 4495.45 437.00" xmlns="http://www.w3.org/2000/svg" xmlns:xlink="http://www.w3.org/1999/xlink">
<g id="graph0" class="graph" transform="scale(1 1) rotate(0) translate(4 433)">
<title>libraries/AP_HAL_FLYMAPLE/AP_HAL_FLYMAPLE_Namespace.h</title>
<polygon fill="white" stroke="none" points="-4,4 -4,-433 4491.45,-433 4491.45,4 -4,4"/>
<!-- Node1 -->
<g id="node1" class="node"><title>Node1</title>
<polygon fill="#bfbfbf" stroke="black" points="2173.73,-400.5 2173.73,-428.5 2355.18,-428.5 2355.18,-400.5 2173.73,-400.5"/>
<text text-anchor="start" x="2181.73" y="-416.5" font-family="Helvetica,sans-Serif" font-size="10.00">libraries/AP_HAL_FLYMAPLE</text>
<text text-anchor="middle" x="2264.45" y="-406.5" font-family="Helvetica,sans-Serif" font-size="10.00">/AP_HAL_FLYMAPLE_Namespace.h</text>
</g>
<!-- Node2 -->
<g id="node2" class="node"><title>Node2</title>
<g id="a_node2"><a xlink:href="$HAL__FLYMAPLE__Class_8h.html" xlink:title="libraries/AP_HAL_FLYMAPLE\l/HAL_FLYMAPLE_Class.h">
<polygon fill="white" stroke="black" points="2257.85,-335.5 2257.85,-363.5 2407.06,-363.5 2407.06,-335.5 2257.85,-335.5"/>
<text text-anchor="start" x="2265.85" y="-351.5" font-family="Helvetica,sans-Serif" font-size="10.00">libraries/AP_HAL_FLYMAPLE</text>
<text text-anchor="middle" x="2332.45" y="-341.5" font-family="Helvetica,sans-Serif" font-size="10.00">/HAL_FLYMAPLE_Class.h</text>
</a>
</g>
</g>
<!-- Node1&#45;&gt;Node2 -->
<g id="edge1" class="edge"><title>Node1&#45;&gt;Node2</title>
<path fill="none" stroke="midnightblue" d="M2286.17,-393.379C2296.72,-383.608 2309.09,-372.149 2318.38,-363.537"/>
<polygon fill="midnightblue" stroke="midnightblue" points="2283.5,-391.083 2278.54,-400.446 2288.26,-396.218 2283.5,-391.083"/>
</g>
<!-- Node41 -->
<g id="node41" class="node"><title>Node41</title>
<g id="a_node41"><a xlink:href="$FLYMAPLE_2Util_8h.html" xlink:title="libraries/AP_HAL_FLYMAPLE\l/Util.h">
<polygon fill="white" stroke="black" points="1000.85,-270.5 1000.85,-298.5 1150.06,-298.5 1150.06,-270.5 1000.85,-270.5"/>
<text text-anchor="start" x="1008.85" y="-286.5" font-family="Helvetica,sans-Serif" font-size="10.00">libraries/AP_HAL_FLYMAPLE</text>
<text text-anchor="middle" x="1075.45" y="-276.5" font-family="Helvetica,sans-Serif" font-size="10.00">/Util.h</text>
</a>
</g>
</g>
<!-- Node1&#45;&gt;Node41 -->
<g id="edge53" class="edge"><title>Node1&#45;&gt;Node41</title>
<path fill="none" stroke="midnightblue" d="M2163.43,-402.624C1929.7,-377.463 1356,-315.701 1150.34,-293.561"/>
<polygon fill="midnightblue" stroke="midnightblue" points="2163.3,-406.131 2173.62,-403.721 2164.05,-399.171 2163.3,-406.131"/>
</g>
<!-- Node3 -->
<g id="node3" class="node"><title>Node3</title>
<g id="a_node3"><a xlink:href="$AP__HAL__FLYMAPLE_8h.html" xlink:title="libraries/AP_HAL_FLYMAPLE\l/AP_HAL_FLYMAPLE.h">
<polygon fill="white" stroke="black" points="2257.85,-270.5 2257.85,-298.5 2407.06,-298.5 2407.06,-270.5 2257.85,-270.5"/>
<text text-anchor="start" x="2265.85" y="-286.5" font-family="Helvetica,sans-Serif" font-size="10.00">libraries/AP_HAL_FLYMAPLE</text>
<text text-anchor="middle" x="2332.45" y="-276.5" font-family="Helvetica,sans-Serif" font-size="10.00">/AP_HAL_FLYMAPLE.h</text>
</a>
</g>
</g>
<!-- Node2&#45;&gt;Node3 -->
<g id="edge2" class="edge"><title>Node2&#45;&gt;Node3</title>
<path fill="none" stroke="midnightblue" d="M2332.45,-325.164C2332.45,-316.169 2332.45,-306.221 2332.45,-298.537"/>
<polygon fill="midnightblue" stroke="midnightblue" points="2328.95,-325.446 2332.45,-335.446 2335.95,-325.446 2328.95,-325.446"/>
</g>
<!-- Node8 -->
<g id="node8" class="node"><title>Node8</title>
<g id="a_node8"><a xlink:href="$HAL__FLYMAPLE__Class_8cpp.html" xlink:title="libraries/AP_HAL_FLYMAPLE\l/HAL_FLYMAPLE_Class.cpp">
<polygon fill="white" stroke="black" points="2772.85,-0.5 2772.85,-28.5 2922.06,-28.5 2922.06,-0.5 2772.85,-0.5"/>
<text text-anchor="start" x="2780.85" y="-16.5" font-family="Helvetica,sans-Serif" font-size="10.00">libraries/AP_HAL_FLYMAPLE</text>
<text text-anchor="middle" x="2847.45" y="-6.5" font-family="Helvetica,sans-Serif" font-size="10.00">/HAL_FLYMAPLE_Class.cpp</text>
</a>
</g>
</g>
<!-- Node2&#45;&gt;Node8 -->
<g id="edge52" class="edge"><title>Node2&#45;&gt;Node8</title>
<path fill="none" stroke="midnightblue" d="M2417.29,-347.782C2816.37,-343.859 4487.45,-321.127 4487.45,-215.5 4487.45,-215.5 4487.45,-215.5 4487.45,-143.5 4487.45,-63.8923 3243.02,-25.8492 2922.18,-17.364"/>
<polygon fill="midnightblue" stroke="midnightblue" points="2417.23,-344.282 2407.26,-347.879 2417.29,-351.282 2417.23,-344.282"/>
</g>
<!-- Node4 -->
<g id="node4" class="node"><title>Node4</title>
<g id="a_node4"><a xlink:href="$FLYMAPLE_2AnalogIn_8h.html" xlink:title="libraries/AP_HAL_FLYMAPLE\l/AnalogIn.h">
<polygon fill="white" stroke="black" points="328.851,-200.5 328.851,-228.5 478.059,-228.5 478.059,-200.5 328.851,-200.5"/>
<text text-anchor="start" x="336.851" y="-216.5" font-family="Helvetica,sans-Serif" font-size="10.00">libraries/AP_HAL_FLYMAPLE</text>
<text text-anchor="middle" x="403.455" y="-206.5" font-family="Helvetica,sans-Serif" font-size="10.00">/AnalogIn.h</text>
</a>
</g>
</g>
<!-- Node3&#45;&gt;Node4 -->
<g id="edge3" class="edge"><title>Node3&#45;&gt;Node4</title>
<path fill="none" stroke="midnightblue" d="M2247.52,-282.888C1996.75,-280.689 1237.79,-271.205 609.455,-234 565.903,-231.421 517.289,-227.123 478.228,-223.318"/>
<polygon fill="midnightblue" stroke="midnightblue" points="2247.62,-286.389 2257.65,-282.976 2247.68,-279.389 2247.62,-286.389"/>
</g>
<!-- Node9 -->
<g id="node9" class="node"><title>Node9</title>
<g id="a_node9"><a xlink:href="$FLYMAPLE_2UARTDriver_8h.html" xlink:title="libraries/AP_HAL_FLYMAPLE\l/UARTDriver.h">
<polygon fill="white" stroke="black" points="1724.85,-200.5 1724.85,-228.5 1874.06,-228.5 1874.06,-200.5 1724.85,-200.5"/>
<text text-anchor="start" x="1732.85" y="-216.5" font-family="Helvetica,sans-Serif" font-size="10.00">libraries/AP_HAL_FLYMAPLE</text>
<text text-anchor="middle" x="1799.45" y="-206.5" font-family="Helvetica,sans-Serif" font-size="10.00">/UARTDriver.h</text>
</a>
</g>
</g>
<!-- Node3&#45;&gt;Node9 -->
<g id="edge8" class="edge"><title>Node3&#45;&gt;Node9</title>
<path fill="none" stroke="midnightblue" d="M2247.63,-276.872C2157.07,-269.161 2009.56,-254.777 1883.45,-234 1874.17,-232.471 1864.37,-230.574 1854.87,-228.583"/>
<polygon fill="midnightblue" stroke="midnightblue" points="2247.58,-280.38 2257.84,-277.733 2248.17,-273.405 2247.58,-280.38"/>
</g>
<!-- Node11 -->
<g id="node11" class="node"><title>Node11</title>
<g id="a_node11"><a xlink:href="$FLYMAPLE_2I2CDriver_8h.html" xlink:title="libraries/AP_HAL_FLYMAPLE\l/I2CDriver.h">
<polygon fill="white" stroke="black" points="39.8509,-200.5 39.8509,-228.5 189.059,-228.5 189.059,-200.5 39.8509,-200.5"/>
<text text-anchor="start" x="47.8509" y="-216.5" font-family="Helvetica,sans-Serif" font-size="10.00">libraries/AP_HAL_FLYMAPLE</text>
<text text-anchor="middle" x="114.455" y="-206.5" font-family="Helvetica,sans-Serif" font-size="10.00">/I2CDriver.h</text>
</a>
</g>
</g>
<!-- Node3&#45;&gt;Node11 -->
<g id="edge11" class="edge"><title>Node3&#45;&gt;Node11</title>
<path fill="none" stroke="midnightblue" d="M2247.03,-283.397C1969.09,-282.633 1065.47,-276.788 319.455,-234 276.287,-231.524 228.128,-227.256 189.34,-223.442"/>
<polygon fill="midnightblue" stroke="midnightblue" points="2247.43,-286.898 2257.44,-283.424 2247.45,-279.898 2247.43,-286.898"/>
</g>
<!-- Node13 -->
<g id="node13" class="node"><title>Node13</title>
<g id="a_node13"><a xlink:href="$FLYMAPLE_2SPIDriver_8h.html" xlink:title="libraries/AP_HAL_FLYMAPLE\l/SPIDriver.h">
<polygon fill="white" stroke="black" points="1853.85,-130.5 1853.85,-158.5 2003.06,-158.5 2003.06,-130.5 1853.85,-130.5"/>
<text text-anchor="start" x="1861.85" y="-146.5" font-family="Helvetica,sans-Serif" font-size="10.00">libraries/AP_HAL_FLYMAPLE</text>
<text text-anchor="middle" x="1928.45" y="-136.5" font-family="Helvetica,sans-Serif" font-size="10.00">/SPIDriver.h</text>
</a>
</g>
</g>
<!-- Node3&#45;&gt;Node13 -->
<g id="edge14" class="edge"><title>Node3&#45;&gt;Node13</title>
<path fill="none" stroke="midnightblue" d="M2417.3,-283.102C2805.45,-281.086 4394.7,-270.604 4430.45,-234 4442.57,-221.6 4442.62,-207.347 4430.45,-195 4383.29,-147.129 2078.4,-164.91 2011.45,-159 2008.84,-158.769 2006.18,-158.504 2003.49,-158.21"/>
<polygon fill="midnightblue" stroke="midnightblue" points="2417.24,-279.603 2407.26,-283.154 2417.27,-286.603 2417.24,-279.603"/>
</g>
<!-- Node15 -->
<g id="node15" class="node"><title>Node15</title>
<g id="a_node15"><a xlink:href="$FLYMAPLE_2Semaphores_8h.html" xlink:title="libraries/AP_HAL_FLYMAPLE\l/Semaphores.h">
<polygon fill="white" stroke="black" points="1557.85,-200.5 1557.85,-228.5 1707.06,-228.5 1707.06,-200.5 1557.85,-200.5"/>
<text text-anchor="start" x="1565.85" y="-216.5" font-family="Helvetica,sans-Serif" font-size="10.00">libraries/AP_HAL_FLYMAPLE</text>
<text text-anchor="middle" x="1632.45" y="-206.5" font-family="Helvetica,sans-Serif" font-size="10.00">/Semaphores.h</text>
</a>
</g>
</g>
<!-- Node3&#45;&gt;Node15 -->
<g id="edge17" class="edge"><title>Node3&#45;&gt;Node15</title>
<path fill="none" stroke="midnightblue" d="M2247.34,-280.422C2127.94,-275.252 1904.15,-262.456 1715.45,-234 1705.82,-232.547 1695.64,-230.614 1685.83,-228.544"/>
<polygon fill="midnightblue" stroke="midnightblue" points="2247.37,-283.926 2257.51,-280.854 2247.67,-276.932 2247.37,-283.926"/>
</g>
<!-- Node16 -->
<g id="node16" class="node"><title>Node16</title>
<g id="a_node16"><a xlink:href="$AP__HAL__FLYMAPLE_2Semaphores_8cpp.html" xlink:title="libraries/AP_HAL_FLYMAPLE\l/Semaphores.cpp">
<polygon fill="white" stroke="black" points="1609.85,-130.5 1609.85,-158.5 1759.06,-158.5 1759.06,-130.5 1609.85,-130.5"/>
<text text-anchor="start" x="1617.85" y="-146.5" font-family="Helvetica,sans-Serif" font-size="10.00">libraries/AP_HAL_FLYMAPLE</text>
<text text-anchor="middle" x="1684.45" y="-136.5" font-family="Helvetica,sans-Serif" font-size="10.00">/Semaphores.cpp</text>
</a>
</g>
</g>
<!-- Node3&#45;&gt;Node16 -->
<g id="edge51" class="edge"><title>Node3&#45;&gt;Node16</title>
<path fill="none" stroke="midnightblue" d="M2247.44,-281.224C2049.37,-275.508 1572.1,-259.181 1548.45,-234 1536.59,-221.363 1538.51,-209.199 1548.45,-195 1558.33,-180.901 1596.58,-167.716 1630.01,-158.504"/>
<polygon fill="midnightblue" stroke="midnightblue" points="2247.42,-284.725 2257.52,-281.513 2247.62,-277.728 2247.42,-284.725"/>
</g>
<!-- Node17 -->
<g id="node17" class="node"><title>Node17</title>
<g id="a_node17"><a xlink:href="$FLYMAPLE_2Storage_8h.html" xlink:title="libraries/AP_HAL_FLYMAPLE\l/Storage.h">
<polygon fill="white" stroke="black" points="618.851,-200.5 618.851,-228.5 768.059,-228.5 768.059,-200.5 618.851,-200.5"/>
<text text-anchor="start" x="626.851" y="-216.5" font-family="Helvetica,sans-Serif" font-size="10.00">libraries/AP_HAL_FLYMAPLE</text>
<text text-anchor="middle" x="693.455" y="-206.5" font-family="Helvetica,sans-Serif" font-size="10.00">/Storage.h</text>
</a>
</g>
</g>
<!-- Node3&#45;&gt;Node17 -->
<g id="edge21" class="edge"><title>Node3&#45;&gt;Node17</title>
<path fill="none" stroke="midnightblue" d="M2247.34,-284.232C2016.45,-285.458 1359.13,-283.916 815.455,-234 800.095,-232.59 783.725,-230.509 768.127,-228.247"/>
<polygon fill="midnightblue" stroke="midnightblue" points="2247.7,-287.73 2257.68,-284.173 2247.66,-280.73 2247.7,-287.73"/>
</g>
<!-- Node19 -->
<g id="node19" class="node"><title>Node19</title>
<g id="a_node19"><a xlink:href="$FLYMAPLE_2GPIO_8h.html" xlink:title="libraries/AP_HAL_FLYMAPLE\l/GPIO.h">
<polygon fill="white" stroke="black" points="824.851,-200.5 824.851,-228.5 974.059,-228.5 974.059,-200.5 824.851,-200.5"/>
<text text-anchor="start" x="832.851" y="-216.5" font-family="Helvetica,sans-Serif" font-size="10.00">libraries/AP_HAL_FLYMAPLE</text>
<text text-anchor="middle" x="899.455" y="-206.5" font-family="Helvetica,sans-Serif" font-size="10.00">/GPIO.h</text>
</a>
</g>
</g>
<!-- Node3&#45;&gt;Node19 -->
<g id="edge24" class="edge"><title>Node3&#45;&gt;Node19</title>
<path fill="none" stroke="midnightblue" d="M2247.5,-284.164C2036.98,-284.976 1474.46,-282.049 1008.45,-234 995.281,-232.642 981.29,-230.672 967.879,-228.518"/>
<polygon fill="midnightblue" stroke="midnightblue" points="2247.58,-287.664 2257.56,-284.121 2247.55,-280.664 2247.58,-287.664"/>
</g>
<!-- Node21 -->
<g id="node21" class="node"><title>Node21</title>
<g id="a_node21"><a xlink:href="$FLYMAPLE_2RCInput_8h.html" xlink:title="libraries/AP_HAL_FLYMAPLE\l/RCInput.h">
<polygon fill="white" stroke="black" points="1017.85,-200.5 1017.85,-228.5 1167.06,-228.5 1167.06,-200.5 1017.85,-200.5"/>
<text text-anchor="start" x="1025.85" y="-216.5" font-family="Helvetica,sans-Serif" font-size="10.00">libraries/AP_HAL_FLYMAPLE</text>
<text text-anchor="middle" x="1092.45" y="-206.5" font-family="Helvetica,sans-Serif" font-size="10.00">/RCInput.h</text>
</a>
</g>
</g>
<!-- Node3&#45;&gt;Node21 -->
<g id="edge27" class="edge"><title>Node3&#45;&gt;Node21</title>
<path fill="none" stroke="midnightblue" d="M2247.65,-281.816C2017.19,-276.927 1382.79,-261.324 1175.45,-234 1165.36,-232.669 1154.67,-230.712 1144.45,-228.562"/>
<polygon fill="midnightblue" stroke="midnightblue" points="2247.59,-285.315 2257.66,-282.026 2247.74,-278.316 2247.59,-285.315"/>
</g>
<!-- Node23 -->
<g id="node23" class="node"><title>Node23</title>
<g id="a_node23"><a xlink:href="$FLYMAPLE_2RCOutput_8h.html" xlink:title="libraries/AP_HAL_FLYMAPLE\l/RCOutput.h">
<polygon fill="white" stroke="black" points="1184.85,-200.5 1184.85,-228.5 1334.06,-228.5 1334.06,-200.5 1184.85,-200.5"/>
<text text-anchor="start" x="1192.85" y="-216.5" font-family="Helvetica,sans-Serif" font-size="10.00">libraries/AP_HAL_FLYMAPLE</text>
<text text-anchor="middle" x="1259.45" y="-206.5" font-family="Helvetica,sans-Serif" font-size="10.00">/RCOutput.h</text>
</a>
</g>
</g>
<!-- Node3&#45;&gt;Node23 -->
<g id="edge30" class="edge"><title>Node3&#45;&gt;Node23</title>
<path fill="none" stroke="midnightblue" d="M2247.3,-284.08C2075.41,-284.187 1675.02,-279.047 1342.45,-234 1332.36,-232.633 1321.68,-230.658 1311.46,-228.504"/>
<polygon fill="midnightblue" stroke="midnightblue" points="2247.55,-287.58 2257.54,-284.067 2247.54,-280.58 2247.55,-287.58"/>
</g>
<!-- Node25 -->
<g id="node25" class="node"><title>Node25</title>
<g id="a_node25"><a xlink:href="$FLYMAPLE_2Scheduler_8h.html" xlink:title="libraries/AP_HAL_FLYMAPLE\l/Scheduler.h">
<polygon fill="white" stroke="black" points="1351.85,-200.5 1351.85,-228.5 1501.06,-228.5 1501.06,-200.5 1351.85,-200.5"/>
<text text-anchor="start" x="1359.85" y="-216.5" font-family="Helvetica,sans-Serif" font-size="10.00">libraries/AP_HAL_FLYMAPLE</text>
<text text-anchor="middle" x="1426.45" y="-206.5" font-family="Helvetica,sans-Serif" font-size="10.00">/Scheduler.h</text>
</a>
</g>
</g>
<!-- Node3&#45;&gt;Node25 -->
<g id="edge33" class="edge"><title>Node3&#45;&gt;Node25</title>
<path fill="none" stroke="midnightblue" d="M2247.33,-282.383C2098.35,-279.529 1780.93,-269.444 1515.45,-234 1504.97,-232.601 1493.88,-230.667 1483.22,-228.574"/>
<polygon fill="midnightblue" stroke="midnightblue" points="2247.7,-285.89 2257.76,-282.576 2247.83,-278.892 2247.7,-285.89"/>
</g>
<!-- Node27 -->
<g id="node27" class="node"><title>Node27</title>
<g id="a_node27"><a xlink:href="$FLYMAPLE_2examples_2AnalogIn_2AnalogIn_8cpp.html" xlink:title="libraries/AP_HAL_FLYMAPLE\l/examples/AnalogIn/AnalogIn.cpp">
<polygon fill="white" stroke="black" points="1891.96,-200.5 1891.96,-228.5 2056.95,-228.5 2056.95,-200.5 1891.96,-200.5"/>
<text text-anchor="start" x="1899.96" y="-216.5" font-family="Helvetica,sans-Serif" font-size="10.00">libraries/AP_HAL_FLYMAPLE</text>
<text text-anchor="middle" x="1974.45" y="-206.5" font-family="Helvetica,sans-Serif" font-size="10.00">/examples/AnalogIn/AnalogIn.cpp</text>
</a>
</g>
</g>
<!-- Node3&#45;&gt;Node27 -->
<g id="edge37" class="edge"><title>Node3&#45;&gt;Node27</title>
<path fill="none" stroke="midnightblue" d="M2251.03,-268.663C2198.35,-258.985 2128.3,-245.972 2066.45,-234 2057.5,-232.266 2048.06,-230.405 2038.77,-228.557"/>
<polygon fill="midnightblue" stroke="midnightblue" points="2250.53,-272.128 2260.99,-270.491 2251.79,-265.243 2250.53,-272.128"/>
</g>
<!-- Node28 -->
<g id="node28" class="node"><title>Node28</title>
<g id="a_node28"><a xlink:href="$AP__Baro__BMP085__test_8cpp.html" xlink:title="libraries/AP_HAL_FLYMAPLE\l/examples/AP_Baro_BMP085\l_test/AP_Baro_BMP085_test.cpp">
<polygon fill="white" stroke="black" points="2074.97,-195.5 2074.97,-233.5 2239.94,-233.5 2239.94,-195.5 2074.97,-195.5"/>
<text text-anchor="start" x="2082.97" y="-221.5" font-family="Helvetica,sans-Serif" font-size="10.00">libraries/AP_HAL_FLYMAPLE</text>
<text text-anchor="start" x="2082.97" y="-211.5" font-family="Helvetica,sans-Serif" font-size="10.00">/examples/AP_Baro_BMP085</text>
<text text-anchor="middle" x="2157.45" y="-201.5" font-family="Helvetica,sans-Serif" font-size="10.00">_test/AP_Baro_BMP085_test.cpp</text>
</a>
</g>
</g>
<!-- Node3&#45;&gt;Node28 -->
<g id="edge38" class="edge"><title>Node3&#45;&gt;Node28</title>
<path fill="none" stroke="midnightblue" d="M2289.17,-266.68C2263.29,-256.626 2230.42,-243.853 2203.99,-233.583"/>
<polygon fill="midnightblue" stroke="midnightblue" points="2288.12,-270.029 2298.71,-270.389 2290.66,-263.505 2288.12,-270.029"/>
</g>
<!-- Node29 -->
<g id="node29" class="node"><title>Node29</title>
<g id="a_node29"><a xlink:href="$Blink_8cpp.html" xlink:title="libraries/AP_HAL_FLYMAPLE\l/examples/Blink/Blink.cpp">
<polygon fill="white" stroke="black" points="2257.85,-200.5 2257.85,-228.5 2407.06,-228.5 2407.06,-200.5 2257.85,-200.5"/>
<text text-anchor="start" x="2265.85" y="-216.5" font-family="Helvetica,sans-Serif" font-size="10.00">libraries/AP_HAL_FLYMAPLE</text>
<text text-anchor="middle" x="2332.45" y="-206.5" font-family="Helvetica,sans-Serif" font-size="10.00">/examples/Blink/Blink.cpp</text>
</a>
</g>
</g>
<!-- Node3&#45;&gt;Node29 -->
<g id="edge39" class="edge"><title>Node3&#45;&gt;Node29</title>
<path fill="none" stroke="midnightblue" d="M2332.45,-260.134C2332.45,-249.576 2332.45,-237.498 2332.45,-228.571"/>
<polygon fill="midnightblue" stroke="midnightblue" points="2328.95,-260.389 2332.45,-270.389 2335.95,-260.389 2328.95,-260.389"/>
</g>
<!-- Node30 -->
<g id="node30" class="node"><title>Node30</title>
<g id="a_node30"><a xlink:href="$AP__HAL__FLYMAPLE_2examples_2Console_2Console_8cpp.html" xlink:title="libraries/AP_HAL_FLYMAPLE\l/examples/Console/Console.cpp">
<polygon fill="white" stroke="black" points="2424.75,-200.5 2424.75,-228.5 2584.16,-228.5 2584.16,-200.5 2424.75,-200.5"/>
<text text-anchor="start" x="2432.75" y="-216.5" font-family="Helvetica,sans-Serif" font-size="10.00">libraries/AP_HAL_FLYMAPLE</text>
<text text-anchor="middle" x="2504.45" y="-206.5" font-family="Helvetica,sans-Serif" font-size="10.00">/examples/Console/Console.cpp</text>
</a>
</g>
</g>
<!-- Node3&#45;&gt;Node30 -->
<g id="edge40" class="edge"><title>Node3&#45;&gt;Node30</title>
<path fill="none" stroke="midnightblue" d="M2374.93,-266.709C2404.71,-254.936 2443.94,-239.425 2471.39,-228.571"/>
<polygon fill="midnightblue" stroke="midnightblue" points="2373.63,-263.457 2365.62,-270.389 2376.2,-269.967 2373.63,-263.457"/>
</g>
<!-- Node31 -->
<g id="node31" class="node"><title>Node31</title>
<g id="a_node31"><a xlink:href="$empty__example_8cpp.html" xlink:title="libraries/AP_HAL_FLYMAPLE\l/examples/empty_example\l/empty_example.cpp">
<polygon fill="white" stroke="black" points="2601.85,-195.5 2601.85,-233.5 2751.06,-233.5 2751.06,-195.5 2601.85,-195.5"/>
<text text-anchor="start" x="2609.85" y="-221.5" font-family="Helvetica,sans-Serif" font-size="10.00">libraries/AP_HAL_FLYMAPLE</text>
<text text-anchor="start" x="2609.85" y="-211.5" font-family="Helvetica,sans-Serif" font-size="10.00">/examples/empty_example</text>
<text text-anchor="middle" x="2676.45" y="-201.5" font-family="Helvetica,sans-Serif" font-size="10.00">/empty_example.cpp</text>
</a>
</g>
</g>
<!-- Node3&#45;&gt;Node31 -->
<g id="edge41" class="edge"><title>Node3&#45;&gt;Node31</title>
<path fill="none" stroke="midnightblue" d="M2414.65,-268.605C2466.11,-259.108 2533.75,-246.313 2593.45,-234 2596.2,-233.433 2599,-232.849 2601.82,-232.253"/>
<polygon fill="midnightblue" stroke="midnightblue" points="2413.79,-265.205 2404.59,-270.459 2415.05,-272.09 2413.79,-265.205"/>
</g>
<!-- Node32 -->
<g id="node32" class="node"><title>Node32</title>
<g id="a_node32"><a xlink:href="$I2CDriver__HMC5883L_8cpp.html" xlink:title="libraries/AP_HAL_FLYMAPLE\l/examples/I2CDriver_HMC5883L\l/I2CDriver_HMC5883L.cpp">
<polygon fill="white" stroke="black" points="2769.09,-195.5 2769.09,-233.5 2931.82,-233.5 2931.82,-195.5 2769.09,-195.5"/>
<text text-anchor="start" x="2777.09" y="-221.5" font-family="Helvetica,sans-Serif" font-size="10.00">libraries/AP_HAL_FLYMAPLE</text>
<text text-anchor="start" x="2777.09" y="-211.5" font-family="Helvetica,sans-Serif" font-size="10.00">/examples/I2CDriver_HMC5883L</text>
<text text-anchor="middle" x="2850.45" y="-201.5" font-family="Helvetica,sans-Serif" font-size="10.00">/I2CDriver_HMC5883L.cpp</text>
</a>
</g>
</g>
<!-- Node3&#45;&gt;Node32 -->
<g id="edge42" class="edge"><title>Node3&#45;&gt;Node32</title>
<path fill="none" stroke="midnightblue" d="M2417.38,-275.891C2503.95,-267.615 2641.99,-252.989 2760.45,-234 2763.29,-233.546 2766.17,-233.064 2769.08,-232.56"/>
<polygon fill="midnightblue" stroke="midnightblue" points="2416.96,-272.414 2407.34,-276.844 2417.62,-279.383 2416.96,-272.414"/>
</g>
<!-- Node33 -->
<g id="node33" class="node"><title>Node33</title>
<g id="a_node33"><a xlink:href="$FLYMAPLE_2examples_2RCInput_2RCInput_8cpp.html" xlink:title="libraries/AP_HAL_FLYMAPLE\l/examples/RCInput/RCInput.cpp">
<polygon fill="white" stroke="black" points="2949.75,-200.5 2949.75,-228.5 3109.16,-228.5 3109.16,-200.5 2949.75,-200.5"/>
<text text-anchor="start" x="2957.75" y="-216.5" font-family="Helvetica,sans-Serif" font-size="10.00">libraries/AP_HAL_FLYMAPLE</text>
<text text-anchor="middle" x="3029.45" y="-206.5" font-family="Helvetica,sans-Serif" font-size="10.00">/examples/RCInput/RCInput.cpp</text>
</a>
</g>
</g>
<!-- Node3&#45;&gt;Node33 -->
<g id="edge43" class="edge"><title>Node3&#45;&gt;Node33</title>
<path fill="none" stroke="midnightblue" d="M2417.24,-279.913C2535.07,-274.175 2754.83,-260.745 2940.45,-234 2950.61,-232.537 2961.34,-230.625 2971.71,-228.585"/>
<polygon fill="midnightblue" stroke="midnightblue" points="2417.02,-276.42 2407.2,-280.395 2417.35,-283.412 2417.02,-276.42"/>
</g>
<!-- Node34 -->
<g id="node34" class="node"><title>Node34</title>
<g id="a_node34"><a xlink:href="$RCPassthroughTest_8cpp.html" xlink:title="libraries/AP_HAL_FLYMAPLE\l/examples/RCPassthroughTest\l/RCPassthroughTest.cpp">
<polygon fill="white" stroke="black" points="3126.81,-195.5 3126.81,-233.5 3280.1,-233.5 3280.1,-195.5 3126.81,-195.5"/>
<text text-anchor="start" x="3134.81" y="-221.5" font-family="Helvetica,sans-Serif" font-size="10.00">libraries/AP_HAL_FLYMAPLE</text>
<text text-anchor="start" x="3134.81" y="-211.5" font-family="Helvetica,sans-Serif" font-size="10.00">/examples/RCPassthroughTest</text>
<text text-anchor="middle" x="3203.45" y="-201.5" font-family="Helvetica,sans-Serif" font-size="10.00">/RCPassthroughTest.cpp</text>
</a>
</g>
</g>
<!-- Node3&#45;&gt;Node34 -->
<g id="edge44" class="edge"><title>Node3&#45;&gt;Node34</title>
<path fill="none" stroke="midnightblue" d="M2417.19,-282.361C2561.72,-279.482 2864.88,-269.372 3118.45,-234 3121.15,-233.624 3123.88,-233.21 3126.64,-232.765"/>
<polygon fill="midnightblue" stroke="midnightblue" points="2416.99,-278.864 2407.06,-282.556 2417.13,-285.863 2416.99,-278.864"/>
</g>
<!-- Node35 -->
<g id="node35" class="node"><title>Node35</title>
<g id="a_node35"><a xlink:href="$AP__HAL__FLYMAPLE_2examples_2Scheduler_2Scheduler_8cpp.html" xlink:title="libraries/AP_HAL_FLYMAPLE\l/examples/Scheduler/Scheduler.cpp">
<polygon fill="white" stroke="black" points="3297.68,-200.5 3297.68,-228.5 3473.23,-228.5 3473.23,-200.5 3297.68,-200.5"/>
<text text-anchor="start" x="3305.68" y="-216.5" font-family="Helvetica,sans-Serif" font-size="10.00">libraries/AP_HAL_FLYMAPLE</text>
<text text-anchor="middle" x="3385.45" y="-206.5" font-family="Helvetica,sans-Serif" font-size="10.00">/examples/Scheduler/Scheduler.cpp</text>
</a>
</g>
</g>
<!-- Node3&#45;&gt;Node35 -->
<g id="edge45" class="edge"><title>Node3&#45;&gt;Node35</title>
<path fill="none" stroke="midnightblue" d="M2417.44,-283.051C2584.92,-281.296 2969.16,-272.954 3289.45,-234 3300.91,-232.607 3313.06,-230.648 3324.71,-228.523"/>
<polygon fill="midnightblue" stroke="midnightblue" points="2417.18,-279.554 2407.21,-283.153 2417.25,-286.553 2417.18,-279.554"/>
</g>
<!-- Node36 -->
<g id="node36" class="node"><title>Node36</title>
<g id="a_node36"><a xlink:href="$Semaphore_8cpp.html" xlink:title="libraries/AP_HAL_FLYMAPLE\l/examples/Semaphore/Semaphore.cpp">
<polygon fill="white" stroke="black" points="3490.74,-200.5 3490.74,-228.5 3680.17,-228.5 3680.17,-200.5 3490.74,-200.5"/>
<text text-anchor="start" x="3498.74" y="-216.5" font-family="Helvetica,sans-Serif" font-size="10.00">libraries/AP_HAL_FLYMAPLE</text>
<text text-anchor="middle" x="3585.45" y="-206.5" font-family="Helvetica,sans-Serif" font-size="10.00">/examples/Semaphore/Semaphore.cpp</text>
</a>
</g>
</g>
<!-- Node3&#45;&gt;Node36 -->
<g id="edge46" class="edge"><title>Node3&#45;&gt;Node36</title>
<path fill="none" stroke="midnightblue" d="M2417.65,-283.748C2608.78,-283.449 3086.05,-277.929 3482.45,-234 3494.82,-232.629 3507.95,-230.668 3520.54,-228.529"/>
<polygon fill="midnightblue" stroke="midnightblue" points="2417.39,-280.248 2407.39,-283.759 2417.4,-287.248 2417.39,-280.248"/>
</g>
<!-- Node37 -->
<g id="node37" class="node"><title>Node37</title>
<g id="a_node37"><a xlink:href="$AP__HAL__FLYMAPLE_2examples_2SPIDriver_2SPIDriver_8cpp.html" xlink:title="libraries/AP_HAL_FLYMAPLE\l/examples/SPIDriver/SPIDriver.cpp">
<polygon fill="white" stroke="black" points="3697.93,-200.5 3697.93,-228.5 3868.98,-228.5 3868.98,-200.5 3697.93,-200.5"/>
<text text-anchor="start" x="3705.93" y="-216.5" font-family="Helvetica,sans-Serif" font-size="10.00">libraries/AP_HAL_FLYMAPLE</text>
<text text-anchor="middle" x="3783.45" y="-206.5" font-family="Helvetica,sans-Serif" font-size="10.00">/examples/SPIDriver/SPIDriver.cpp</text>
</a>
</g>
</g>
<!-- Node3&#45;&gt;Node37 -->
<g id="edge47" class="edge"><title>Node3&#45;&gt;Node37</title>
<path fill="none" stroke="midnightblue" d="M2417.23,-282.161C2674.1,-277.825 3441.32,-262.761 3689.45,-234 3700.94,-232.669 3713.11,-230.697 3724.76,-228.531"/>
<polygon fill="midnightblue" stroke="midnightblue" points="2417.15,-278.661 2407.21,-282.329 2417.27,-285.66 2417.15,-278.661"/>
</g>
<!-- Node38 -->
<g id="node38" class="node"><title>Node38</title>
<g id="a_node38"><a xlink:href="$FLYMAPLE_2examples_2Storage_2Storage_8cpp.html" xlink:title="libraries/AP_HAL_FLYMAPLE\l/examples/Storage/Storage.cpp">
<polygon fill="white" stroke="black" points="3887.41,-200.5 3887.41,-228.5 4043.5,-228.5 4043.5,-200.5 3887.41,-200.5"/>
<text text-anchor="start" x="3895.41" y="-216.5" font-family="Helvetica,sans-Serif" font-size="10.00">libraries/AP_HAL_FLYMAPLE</text>
<text text-anchor="middle" x="3965.45" y="-206.5" font-family="Helvetica,sans-Serif" font-size="10.00">/examples/Storage/Storage.cpp</text>
</a>
</g>
</g>
<!-- Node3&#45;&gt;Node38 -->
<g id="edge48" class="edge"><title>Node3&#45;&gt;Node38</title>
<path fill="none" stroke="midnightblue" d="M2417.27,-282.768C2697.5,-280.038 3592.08,-268.753 3878.45,-234 3889.19,-232.698 3900.55,-230.725 3911.41,-228.545"/>
<polygon fill="midnightblue" stroke="midnightblue" points="2417.13,-279.269 2407.17,-282.865 2417.2,-286.269 2417.13,-279.269"/>
</g>
<!-- Node39 -->
<g id="node39" class="node"><title>Node39</title>
<g id="a_node39"><a xlink:href="$FLYMAPLE_2examples_2UARTDriver_2UARTDriver_8cpp.html" xlink:title="libraries/AP_HAL_FLYMAPLE\l/examples/UARTDriver/UARTDriver.cpp">
<polygon fill="white" stroke="black" points="4061,-200.5 4061,-228.5 4253.91,-228.5 4253.91,-200.5 4061,-200.5"/>
<text text-anchor="start" x="4069" y="-216.5" font-family="Helvetica,sans-Serif" font-size="10.00">libraries/AP_HAL_FLYMAPLE</text>
<text text-anchor="middle" x="4157.45" y="-206.5" font-family="Helvetica,sans-Serif" font-size="10.00">/examples/UARTDriver/UARTDriver.cpp</text>
</a>
</g>
</g>
<!-- Node3&#45;&gt;Node39 -->
<g id="edge49" class="edge"><title>Node3&#45;&gt;Node39</title>
<path fill="none" stroke="midnightblue" d="M2417.9,-282.689C2719.02,-279.573 3730.11,-266.859 4052.45,-234 4065.35,-232.686 4079.04,-230.707 4092.13,-228.526"/>
<polygon fill="midnightblue" stroke="midnightblue" points="2417.45,-279.193 2407.49,-282.796 2417.52,-286.193 2417.45,-279.193"/>
</g>
<!-- Node40 -->
<g id="node40" class="node"><title>Node40</title>
<g id="a_node40"><a xlink:href="$UtilityStringTest_8cpp.html" xlink:title="libraries/AP_HAL_FLYMAPLE\l/examples/UtilityStringTest\l/UtilityStringTest.cpp">
<polygon fill="white" stroke="black" points="4271.85,-195.5 4271.85,-233.5 4421.06,-233.5 4421.06,-195.5 4271.85,-195.5"/>
<text text-anchor="start" x="4279.85" y="-221.5" font-family="Helvetica,sans-Serif" font-size="10.00">libraries/AP_HAL_FLYMAPLE</text>
<text text-anchor="start" x="4279.85" y="-211.5" font-family="Helvetica,sans-Serif" font-size="10.00">/examples/UtilityStringTest</text>
<text text-anchor="middle" x="4346.45" y="-201.5" font-family="Helvetica,sans-Serif" font-size="10.00">/UtilityStringTest.cpp</text>
</a>
</g>
</g>
<!-- Node3&#45;&gt;Node40 -->
<g id="edge50" class="edge"><title>Node3&#45;&gt;Node40</title>
<path fill="none" stroke="midnightblue" d="M2417.56,-283.48C2741.49,-283.066 3897.62,-278.44 4262.45,-234 4265.42,-233.639 4268.43,-233.221 4271.47,-232.758"/>
<polygon fill="midnightblue" stroke="midnightblue" points="2417.3,-279.98 2407.3,-283.492 2417.3,-286.98 2417.3,-279.98"/>
</g>
<!-- Node5 -->
<g id="node5" class="node"><title>Node5</title>
<g id="a_node5"><a xlink:href="$FLYMAPLE_2AnalogIn_8cpp.html" xlink:title="libraries/AP_HAL_FLYMAPLE\l/AnalogIn.cpp">
<polygon fill="white" stroke="black" points="412.851,-130.5 412.851,-158.5 562.059,-158.5 562.059,-130.5 412.851,-130.5"/>
<text text-anchor="start" x="420.851" y="-146.5" font-family="Helvetica,sans-Serif" font-size="10.00">libraries/AP_HAL_FLYMAPLE</text>
<text text-anchor="middle" x="487.455" y="-136.5" font-family="Helvetica,sans-Serif" font-size="10.00">/AnalogIn.cpp</text>
</a>
</g>
</g>
<!-- Node4&#45;&gt;Node5 -->
<g id="edge4" class="edge"><title>Node4&#45;&gt;Node5</title>
<path fill="none" stroke="midnightblue" d="M427.479,-194.052C441.529,-182.678 458.888,-168.626 471.309,-158.571"/>
<polygon fill="midnightblue" stroke="midnightblue" points="425.221,-191.377 419.651,-200.389 429.626,-196.817 425.221,-191.377"/>
</g>
<!-- Node6 -->
<g id="node6" class="node"><title>Node6</title>
<g id="a_node6"><a xlink:href="$AnalogSource_8cpp.html" xlink:title="libraries/AP_HAL_FLYMAPLE\l/AnalogSource.cpp">
<polygon fill="white" stroke="black" points="245.851,-130.5 245.851,-158.5 395.059,-158.5 395.059,-130.5 245.851,-130.5"/>
<text text-anchor="start" x="253.851" y="-146.5" font-family="Helvetica,sans-Serif" font-size="10.00">libraries/AP_HAL_FLYMAPLE</text>
<text text-anchor="middle" x="320.455" y="-136.5" font-family="Helvetica,sans-Serif" font-size="10.00">/AnalogSource.cpp</text>
</a>
</g>
</g>
<!-- Node4&#45;&gt;Node6 -->
<g id="edge5" class="edge"><title>Node4&#45;&gt;Node6</title>
<path fill="none" stroke="midnightblue" d="M379.327,-193.732C365.514,-182.416 348.567,-168.532 336.409,-158.571"/>
<polygon fill="midnightblue" stroke="midnightblue" points="377.498,-196.759 387.452,-200.389 381.934,-191.344 377.498,-196.759"/>
</g>
<!-- Node7 -->
<g id="node7" class="node"><title>Node7</title>
<g id="a_node7"><a xlink:href="$AP__HAL__FLYMAPLE__Private_8h.html" xlink:title="libraries/AP_HAL_FLYMAPLE\l/AP_HAL_FLYMAPLE_Private.h">
<polygon fill="white" stroke="black" points="1025.84,-65.5 1025.84,-93.5 1185.07,-93.5 1185.07,-65.5 1025.84,-65.5"/>
<text text-anchor="start" x="1033.84" y="-81.5" font-family="Helvetica,sans-Serif" font-size="10.00">libraries/AP_HAL_FLYMAPLE</text>
<text text-anchor="middle" x="1105.45" y="-71.5" font-family="Helvetica,sans-Serif" font-size="10.00">/AP_HAL_FLYMAPLE_Private.h</text>
</a>
</g>
</g>
<!-- Node4&#45;&gt;Node7 -->
<g id="edge6" class="edge"><title>Node4&#45;&gt;Node7</title>
<path fill="none" stroke="midnightblue" d="M318.61,-199.363C262.263,-186.503 204.117,-164.233 236.455,-130 263.338,-101.542 816.24,-86.7191 1025.84,-82.1055"/>
<polygon fill="midnightblue" stroke="midnightblue" points="318.203,-202.857 328.72,-201.578 319.701,-196.019 318.203,-202.857"/>
</g>
<!-- Node7&#45;&gt;Node8 -->
<g id="edge7" class="edge"><title>Node7&#45;&gt;Node8</title>
<path fill="none" stroke="midnightblue" d="M1195.23,-75.2531C1499.99,-64.2316 2491.54,-28.3718 2772.59,-18.2076"/>
<polygon fill="midnightblue" stroke="midnightblue" points="1194.99,-71.7597 1185.12,-75.6189 1195.24,-78.7551 1194.99,-71.7597"/>
</g>
<!-- Node9&#45;&gt;Node7 -->
<g id="edge9" class="edge"><title>Node9&#45;&gt;Node7</title>
<path fill="none" stroke="midnightblue" d="M1803.24,-190.238C1804.89,-171.187 1803.56,-145.012 1787.45,-130 1744.22,-89.7058 1355.62,-82.1472 1185.08,-80.7775"/>
<polygon fill="midnightblue" stroke="midnightblue" points="1799.76,-189.89 1802.06,-200.233 1806.71,-190.715 1799.76,-189.89"/>
</g>
<!-- Node10 -->
<g id="node10" class="node"><title>Node10</title>
<g id="a_node10"><a xlink:href="$FLYMAPLE_2UARTDriver_8cpp.html" xlink:title="libraries/AP_HAL_FLYMAPLE\l/UARTDriver.cpp">
<polygon fill="white" stroke="black" points="2020.85,-130.5 2020.85,-158.5 2170.06,-158.5 2170.06,-130.5 2020.85,-130.5"/>
<text text-anchor="start" x="2028.85" y="-146.5" font-family="Helvetica,sans-Serif" font-size="10.00">libraries/AP_HAL_FLYMAPLE</text>
<text text-anchor="middle" x="2095.45" y="-136.5" font-family="Helvetica,sans-Serif" font-size="10.00">/UARTDriver.cpp</text>
</a>
</g>
</g>
<!-- Node9&#45;&gt;Node10 -->
<g id="edge10" class="edge"><title>Node9&#45;&gt;Node10</title>
<path fill="none" stroke="midnightblue" d="M1865.97,-198.219C1917.94,-186.282 1989.37,-169.87 2038.67,-158.544"/>
<polygon fill="midnightblue" stroke="midnightblue" points="1865.14,-194.819 1856.18,-200.469 1866.71,-201.641 1865.14,-194.819"/>
</g>
<!-- Node11&#45;&gt;Node7 -->
<g id="edge12" class="edge"><title>Node11&#45;&gt;Node7</title>
<path fill="none" stroke="midnightblue" d="M75.6544,-195.733C44.1715,-179.01 8.35188,-153.144 30.4549,-130 64.7095,-94.1318 781.965,-83.7085 1025.43,-81.1977"/>
<polygon fill="midnightblue" stroke="midnightblue" points="74.2942,-198.969 84.791,-200.407 77.4822,-192.737 74.2942,-198.969"/>
</g>
<!-- Node12 -->
<g id="node12" class="node"><title>Node12</title>
<g id="a_node12"><a xlink:href="$AP__HAL__FLYMAPLE_2I2CDriver_8cpp.html" xlink:title="libraries/AP_HAL_FLYMAPLE\l/I2CDriver.cpp">
<polygon fill="white" stroke="black" points="39.8509,-130.5 39.8509,-158.5 189.059,-158.5 189.059,-130.5 39.8509,-130.5"/>
<text text-anchor="start" x="47.8509" y="-146.5" font-family="Helvetica,sans-Serif" font-size="10.00">libraries/AP_HAL_FLYMAPLE</text>
<text text-anchor="middle" x="114.455" y="-136.5" font-family="Helvetica,sans-Serif" font-size="10.00">/I2CDriver.cpp</text>
</a>
</g>
</g>
<!-- Node11&#45;&gt;Node12 -->
<g id="edge13" class="edge"><title>Node11&#45;&gt;Node12</title>
<path fill="none" stroke="midnightblue" d="M114.455,-190.134C114.455,-179.576 114.455,-167.498 114.455,-158.571"/>
<polygon fill="midnightblue" stroke="midnightblue" points="110.955,-190.389 114.455,-200.389 117.955,-190.389 110.955,-190.389"/>
</g>
<!-- Node13&#45;&gt;Node7 -->
<g id="edge15" class="edge"><title>Node13&#45;&gt;Node7</title>
<path fill="none" stroke="midnightblue" d="M1843.42,-130.445C1842.09,-130.292 1840.77,-130.143 1839.45,-130 1602.19,-104.051 1320.2,-89.6092 1185.21,-83.7022"/>
<polygon fill="midnightblue" stroke="midnightblue" points="1843.38,-133.967 1853.73,-131.705 1844.23,-127.019 1843.38,-133.967"/>
</g>
<!-- Node14 -->
<g id="node14" class="node"><title>Node14</title>
<g id="a_node14"><a xlink:href="$AP__HAL__FLYMAPLE_2SPIDriver_8cpp.html" xlink:title="libraries/AP_HAL_FLYMAPLE\l/SPIDriver.cpp">
<polygon fill="white" stroke="black" points="1853.85,-65.5 1853.85,-93.5 2003.06,-93.5 2003.06,-65.5 1853.85,-65.5"/>
<text text-anchor="start" x="1861.85" y="-81.5" font-family="Helvetica,sans-Serif" font-size="10.00">libraries/AP_HAL_FLYMAPLE</text>
<text text-anchor="middle" x="1928.45" y="-71.5" font-family="Helvetica,sans-Serif" font-size="10.00">/SPIDriver.cpp</text>
</a>
</g>
</g>
<!-- Node13&#45;&gt;Node14 -->
<g id="edge16" class="edge"><title>Node13&#45;&gt;Node14</title>
<path fill="none" stroke="midnightblue" d="M1928.45,-120.164C1928.45,-111.169 1928.45,-101.221 1928.45,-93.5369"/>
<polygon fill="midnightblue" stroke="midnightblue" points="1924.95,-120.446 1928.45,-130.446 1931.95,-120.446 1924.95,-120.446"/>
</g>
<!-- Node15&#45;&gt;Node7 -->
<g id="edge19" class="edge"><title>Node15&#45;&gt;Node7</title>
<path fill="none" stroke="midnightblue" d="M1699.27,-197.585C1746.34,-183.356 1796.4,-160.113 1768.45,-130 1729.51,-88.0431 1352.81,-81.3877 1185.19,-80.5175"/>
<polygon fill="midnightblue" stroke="midnightblue" points="1698.23,-194.241 1689.61,-200.397 1700.19,-200.962 1698.23,-194.241"/>
</g>
<!-- Node15&#45;&gt;Node13 -->
<g id="edge18" class="edge"><title>Node15&#45;&gt;Node13</title>
<path fill="none" stroke="midnightblue" d="M1698.97,-198.219C1750.94,-186.282 1822.37,-169.87 1871.67,-158.544"/>
<polygon fill="midnightblue" stroke="midnightblue" points="1698.14,-194.819 1689.18,-200.469 1699.71,-201.641 1698.14,-194.819"/>
</g>
<!-- Node15&#45;&gt;Node16 -->
<g id="edge20" class="edge"><title>Node15&#45;&gt;Node16</title>
<path fill="none" stroke="midnightblue" d="M1648.56,-192.441C1657.02,-181.373 1667.13,-168.156 1674.46,-158.571"/>
<polygon fill="midnightblue" stroke="midnightblue" points="1645.78,-190.319 1642.48,-200.389 1651.34,-194.571 1645.78,-190.319"/>
</g>
<!-- Node17&#45;&gt;Node7 -->
<g id="edge22" class="edge"><title>Node17&#45;&gt;Node7</title>
<path fill="none" stroke="midnightblue" d="M654.669,-195.856C623.454,-179.316 588.041,-153.657 609.455,-130 636.804,-99.7853 892.468,-87.2347 1025.63,-82.7123"/>
<polygon fill="midnightblue" stroke="midnightblue" points="653.232,-199.053 663.731,-200.477 656.412,-192.817 653.232,-199.053"/>
</g>
<!-- Node18 -->
<g id="node18" class="node"><title>Node18</title>
<g id="a_node18"><a xlink:href="$FLYMAPLE_2Storage_8cpp.html" xlink:title="libraries/AP_HAL_FLYMAPLE\l/Storage.cpp">
<polygon fill="white" stroke="black" points="618.851,-130.5 618.851,-158.5 768.059,-158.5 768.059,-130.5 618.851,-130.5"/>
<text text-anchor="start" x="626.851" y="-146.5" font-family="Helvetica,sans-Serif" font-size="10.00">libraries/AP_HAL_FLYMAPLE</text>
<text text-anchor="middle" x="693.455" y="-136.5" font-family="Helvetica,sans-Serif" font-size="10.00">/Storage.cpp</text>
</a>
</g>
</g>
<!-- Node17&#45;&gt;Node18 -->
<g id="edge23" class="edge"><title>Node17&#45;&gt;Node18</title>
<path fill="none" stroke="midnightblue" d="M693.455,-190.134C693.455,-179.576 693.455,-167.498 693.455,-158.571"/>
<polygon fill="midnightblue" stroke="midnightblue" points="689.955,-190.389 693.455,-200.389 696.955,-190.389 689.955,-190.389"/>
</g>
<!-- Node19&#45;&gt;Node7 -->
<g id="edge25" class="edge"><title>Node19&#45;&gt;Node7</title>
<path fill="none" stroke="midnightblue" d="M860.513,-195.908C829.701,-179.592 794.998,-154.245 815.455,-130 841.887,-98.6736 949.166,-87.1706 1025.53,-82.9478"/>
<polygon fill="midnightblue" stroke="midnightblue" points="858.967,-199.049 869.467,-200.467 862.143,-192.811 858.967,-199.049"/>
</g>
<!-- Node20 -->
<g id="node20" class="node"><title>Node20</title>
<g id="a_node20"><a xlink:href="$AP__HAL__FLYMAPLE_2GPIO_8cpp.html" xlink:title="libraries/AP_HAL_FLYMAPLE\l/GPIO.cpp">
<polygon fill="white" stroke="black" points="824.851,-130.5 824.851,-158.5 974.059,-158.5 974.059,-130.5 824.851,-130.5"/>
<text text-anchor="start" x="832.851" y="-146.5" font-family="Helvetica,sans-Serif" font-size="10.00">libraries/AP_HAL_FLYMAPLE</text>
<text text-anchor="middle" x="899.455" y="-136.5" font-family="Helvetica,sans-Serif" font-size="10.00">/GPIO.cpp</text>
</a>
</g>
</g>
<!-- Node19&#45;&gt;Node20 -->
<g id="edge26" class="edge"><title>Node19&#45;&gt;Node20</title>
<path fill="none" stroke="midnightblue" d="M899.455,-190.134C899.455,-179.576 899.455,-167.498 899.455,-158.571"/>
<polygon fill="midnightblue" stroke="midnightblue" points="895.955,-190.389 899.455,-200.389 902.955,-190.389 895.955,-190.389"/>
</g>
<!-- Node21&#45;&gt;Node7 -->
<g id="edge28" class="edge"><title>Node21&#45;&gt;Node7</title>
<path fill="none" stroke="midnightblue" d="M1058.43,-194.958C1033.88,-178.991 1007.35,-154.681 1021.45,-130 1031.11,-113.099 1049.04,-101.393 1065.87,-93.626"/>
<polygon fill="midnightblue" stroke="midnightblue" points="1056.62,-197.951 1066.96,-200.245 1060.3,-192.002 1056.62,-197.951"/>
</g>
<!-- Node22 -->
<g id="node22" class="node"><title>Node22</title>
<g id="a_node22"><a xlink:href="$FLYMAPLE_2RCInput_8cpp.html" xlink:title="libraries/AP_HAL_FLYMAPLE\l/RCInput.cpp">
<polygon fill="white" stroke="black" points="1030.85,-130.5 1030.85,-158.5 1180.06,-158.5 1180.06,-130.5 1030.85,-130.5"/>
<text text-anchor="start" x="1038.85" y="-146.5" font-family="Helvetica,sans-Serif" font-size="10.00">libraries/AP_HAL_FLYMAPLE</text>
<text text-anchor="middle" x="1105.45" y="-136.5" font-family="Helvetica,sans-Serif" font-size="10.00">/RCInput.cpp</text>
</a>
</g>
</g>
<!-- Node21&#45;&gt;Node22 -->
<g id="edge29" class="edge"><title>Node21&#45;&gt;Node22</title>
<path fill="none" stroke="midnightblue" d="M1096.86,-190.466C1098.89,-179.831 1101.23,-167.592 1102.96,-158.571"/>
<polygon fill="midnightblue" stroke="midnightblue" points="1093.4,-189.91 1094.96,-200.389 1100.28,-191.224 1093.4,-189.91"/>
</g>
<!-- Node23&#45;&gt;Node7 -->
<g id="edge31" class="edge"><title>Node23&#45;&gt;Node7</title>
<path fill="none" stroke="midnightblue" d="M1244.85,-192.289C1231.76,-174.282 1211.29,-148.493 1189.45,-130 1172.15,-115.339 1149.94,-102.464 1132.71,-93.5219"/>
<polygon fill="midnightblue" stroke="midnightblue" points="1242.01,-194.328 1250.66,-200.438 1247.71,-190.264 1242.01,-194.328"/>
</g>
<!-- Node24 -->
<g id="node24" class="node"><title>Node24</title>
<g id="a_node24"><a xlink:href="$FLYMAPLE_2RCOutput_8cpp.html" xlink:title="libraries/AP_HAL_FLYMAPLE\l/RCOutput.cpp">
<polygon fill="white" stroke="black" points="1236.85,-130.5 1236.85,-158.5 1386.06,-158.5 1386.06,-130.5 1236.85,-130.5"/>
<text text-anchor="start" x="1244.85" y="-146.5" font-family="Helvetica,sans-Serif" font-size="10.00">libraries/AP_HAL_FLYMAPLE</text>
<text text-anchor="middle" x="1311.45" y="-136.5" font-family="Helvetica,sans-Serif" font-size="10.00">/RCOutput.cpp</text>
</a>
</g>
</g>
<!-- Node23&#45;&gt;Node24 -->
<g id="edge32" class="edge"><title>Node23&#45;&gt;Node24</title>
<path fill="none" stroke="midnightblue" d="M1275.56,-192.441C1284.02,-181.373 1294.13,-168.156 1301.46,-158.571"/>
<polygon fill="midnightblue" stroke="midnightblue" points="1272.78,-190.319 1269.48,-200.389 1278.34,-194.571 1272.78,-190.319"/>
</g>
<!-- Node25&#45;&gt;Node7 -->
<g id="edge34" class="edge"><title>Node25&#45;&gt;Node7</title>
<path fill="none" stroke="midnightblue" d="M1424.17,-190.468C1421,-171.335 1413.45,-144.919 1395.45,-130 1364.2,-104.085 1259.9,-91.2663 1185.35,-85.2728"/>
<polygon fill="midnightblue" stroke="midnightblue" points="1420.72,-191.058 1425.55,-200.489 1427.65,-190.106 1420.72,-191.058"/>
</g>
<!-- Node25&#45;&gt;Node16 -->
<g id="edge36" class="edge"><title>Node25&#45;&gt;Node16</title>
<path fill="none" stroke="midnightblue" d="M1485.83,-197.85C1530.92,-185.965 1592.22,-169.809 1634.74,-158.602"/>
<polygon fill="midnightblue" stroke="midnightblue" points="1484.67,-194.536 1475.89,-200.469 1486.46,-201.305 1484.67,-194.536"/>
</g>
<!-- Node26 -->
<g id="node26" class="node"><title>Node26</title>
<g id="a_node26"><a xlink:href="$AP__HAL__FLYMAPLE_2Scheduler_8cpp.html" xlink:title="libraries/AP_HAL_FLYMAPLE\l/Scheduler.cpp">
<polygon fill="white" stroke="black" points="1442.85,-130.5 1442.85,-158.5 1592.06,-158.5 1592.06,-130.5 1442.85,-130.5"/>
<text text-anchor="start" x="1450.85" y="-146.5" font-family="Helvetica,sans-Serif" font-size="10.00">libraries/AP_HAL_FLYMAPLE</text>
<text text-anchor="middle" x="1517.45" y="-136.5" font-family="Helvetica,sans-Serif" font-size="10.00">/Scheduler.cpp</text>
</a>
</g>
</g>
<!-- Node25&#45;&gt;Node26 -->
<g id="edge35" class="edge"><title>Node25&#45;&gt;Node26</title>
<path fill="none" stroke="midnightblue" d="M1452.06,-194.37C1467.35,-182.941 1486.38,-168.72 1499.96,-158.571"/>
<polygon fill="midnightblue" stroke="midnightblue" points="1449.92,-191.599 1444,-200.389 1454.11,-197.207 1449.92,-191.599"/>
</g>
<!-- Node41&#45;&gt;Node7 -->
<g id="edge54" class="edge"><title>Node41&#45;&gt;Node7</title>
<path fill="none" stroke="midnightblue" d="M990.56,-282.415C747.763,-278.925 65.6116,-266.282 30.4549,-234 -3.74876,-202.594 -11.623,-163.575 20.4549,-130 55.0758,-93.7636 780.664,-83.5735 1025.55,-81.1608"/>
<polygon fill="midnightblue" stroke="midnightblue" points="990.698,-285.917 1000.75,-282.559 990.798,-278.918 990.698,-285.917"/>
</g>
</g>
</svg>
