<?xml version="1.0" encoding="UTF-8" standalone="no"?>
<!DOCTYPE svg PUBLIC "-//W3C//DTD SVG 1.1//EN"
 "http://www.w3.org/Graphics/SVG/1.1/DTD/svg11.dtd">
<!-- Generated by graphviz version 2.38.0 (20140413.2041)
 -->
<!-- Title: libraries/AP_ADC/AP_ADC_ADS1115.h Pages: 1 -->
<svg width="2500pt" height="327pt"
 viewBox="0.00 0.00 2499.78 327.00" xmlns="http://www.w3.org/2000/svg" xmlns:xlink="http://www.w3.org/1999/xlink">
<g id="graph0" class="graph" transform="scale(1 1) rotate(0) translate(4 323)">
<title>libraries/AP_ADC/AP_ADC_ADS1115.h</title>
<polygon fill="white" stroke="none" points="-4,4 -4,-323 2495.78,-323 2495.78,4 -4,4"/>
<!-- Node1 -->
<g id="node1" class="node"><title>Node1</title>
<polygon fill="#bfbfbf" stroke="black" points="1260.01,-290.5 1260.01,-318.5 1369.93,-318.5 1369.93,-290.5 1260.01,-290.5"/>
<text text-anchor="start" x="1268.01" y="-306.5" font-family="Helvetica,sans-Serif" font-size="10.00">libraries/AP_ADC/AP</text>
<text text-anchor="middle" x="1314.97" y="-296.5" font-family="Helvetica,sans-Serif" font-size="10.00">_ADC_ADS1115.h</text>
</g>
<!-- Node2 -->
<g id="node2" class="node"><title>Node2</title>
<g id="a_node2"><a xlink:href="$AP__ADC_8h.html" xlink:title="libraries/AP_ADC/AP\l_ADC.h">
<polygon fill="white" stroke="black" points="1260.01,-225.5 1260.01,-253.5 1369.93,-253.5 1369.93,-225.5 1260.01,-225.5"/>
<text text-anchor="start" x="1268.01" y="-241.5" font-family="Helvetica,sans-Serif" font-size="10.00">libraries/AP_ADC/AP</text>
<text text-anchor="middle" x="1314.97" y="-231.5" font-family="Helvetica,sans-Serif" font-size="10.00">_ADC.h</text>
</a>
</g>
</g>
<!-- Node1&#45;&gt;Node2 -->
<g id="edge1" class="edge"><title>Node1&#45;&gt;Node2</title>
<path fill="none" stroke="midnightblue" d="M1308.44,-280.46C1307.96,-271.388 1308.27,-261.305 1309.38,-253.537"/>
<polygon fill="midnightblue" stroke="midnightblue" points="1304.96,-280.817 1309.38,-290.446 1311.93,-280.163 1304.96,-280.817"/>
</g>
<!-- Node31 -->
<g id="node31" class="node"><title>Node31</title>
<g id="a_node31"><a xlink:href="$AP__ADC__ADS1115_8cpp.html" xlink:title="libraries/AP_ADC/AP\l_ADC_ADS1115.cpp">
<polygon fill="white" stroke="black" points="1388.01,-225.5 1388.01,-253.5 1497.93,-253.5 1497.93,-225.5 1388.01,-225.5"/>
<text text-anchor="start" x="1396.01" y="-241.5" font-family="Helvetica,sans-Serif" font-size="10.00">libraries/AP_ADC/AP</text>
<text text-anchor="middle" x="1442.97" y="-231.5" font-family="Helvetica,sans-Serif" font-size="10.00">_ADC_ADS1115.cpp</text>
</a>
</g>
</g>
<!-- Node1&#45;&gt;Node31 -->
<g id="edge44" class="edge"><title>Node1&#45;&gt;Node31</title>
<path fill="none" stroke="midnightblue" d="M1350.69,-285.922C1371.55,-275.652 1397.44,-262.909 1416.48,-253.537"/>
<polygon fill="midnightblue" stroke="midnightblue" points="1348.92,-282.89 1341.49,-290.446 1352.01,-289.171 1348.92,-282.89"/>
</g>
<!-- Node2&#45;&gt;Node1 -->
<g id="edge6" class="edge"><title>Node2&#45;&gt;Node1</title>
<path fill="none" stroke="midnightblue" d="M1321.5,-263.52C1321.99,-272.591 1321.68,-282.675 1320.57,-290.446"/>
<polygon fill="midnightblue" stroke="midnightblue" points="1324.98,-263.166 1320.56,-253.537 1318.01,-263.82 1324.98,-263.166"/>
</g>
<!-- Node3 -->
<g id="node3" class="node"><title>Node3</title>
<g id="a_node3"><a xlink:href="$AP__ADC_8cpp.html" xlink:title="libraries/AP_ADC/AP\l_ADC.cpp">
<polygon fill="white" stroke="black" points="497.012,-155.5 497.012,-183.5 606.933,-183.5 606.933,-155.5 497.012,-155.5"/>
<text text-anchor="start" x="505.012" y="-171.5" font-family="Helvetica,sans-Serif" font-size="10.00">libraries/AP_ADC/AP</text>
<text text-anchor="middle" x="551.973" y="-161.5" font-family="Helvetica,sans-Serif" font-size="10.00">_ADC.cpp</text>
</a>
</g>
</g>
<!-- Node2&#45;&gt;Node3 -->
<g id="edge2" class="edge"><title>Node2&#45;&gt;Node3</title>
<path fill="none" stroke="midnightblue" d="M1249.54,-238.442C1125.14,-237.325 846.356,-229.982 615.973,-189 608.229,-187.623 600.084,-185.672 592.297,-183.549"/>
<polygon fill="midnightblue" stroke="midnightblue" points="1249.63,-241.943 1259.66,-238.522 1249.69,-234.943 1249.63,-241.943"/>
</g>
<!-- Node4 -->
<g id="node4" class="node"><title>Node4</title>
<g id="a_node4"><a xlink:href="$AP__ADC__ADS7844_8h.html" xlink:title="libraries/AP_ADC/AP\l_ADC_ADS7844.h">
<polygon fill="white" stroke="black" points="625.012,-155.5 625.012,-183.5 734.933,-183.5 734.933,-155.5 625.012,-155.5"/>
<text text-anchor="start" x="633.012" y="-171.5" font-family="Helvetica,sans-Serif" font-size="10.00">libraries/AP_ADC/AP</text>
<text text-anchor="middle" x="679.973" y="-161.5" font-family="Helvetica,sans-Serif" font-size="10.00">_ADC_ADS7844.h</text>
</a>
</g>
</g>
<!-- Node2&#45;&gt;Node4 -->
<g id="edge3" class="edge"><title>Node2&#45;&gt;Node4</title>
<path fill="none" stroke="midnightblue" d="M1249.73,-237.142C1141.62,-233.92 919.297,-223.291 734.973,-189 727.354,-187.583 719.34,-185.64 711.82,-183.544"/>
<polygon fill="midnightblue" stroke="midnightblue" points="1249.74,-240.643 1259.83,-237.431 1249.94,-233.646 1249.74,-240.643"/>
</g>
<!-- Node6 -->
<g id="node6" class="node"><title>Node6</title>
<g id="a_node6"><a xlink:href="$AP__ADC__test_8cpp.html" xlink:title="libraries/AP_ADC/examples\l/AP_ADC_test/AP_ADC_test.cpp">
<polygon fill="white" stroke="black" points="753.049,-155.5 753.049,-183.5 916.896,-183.5 916.896,-155.5 753.049,-155.5"/>
<text text-anchor="start" x="761.049" y="-171.5" font-family="Helvetica,sans-Serif" font-size="10.00">libraries/AP_ADC/examples</text>
<text text-anchor="middle" x="834.973" y="-161.5" font-family="Helvetica,sans-Serif" font-size="10.00">/AP_ADC_test/AP_ADC_test.cpp</text>
</a>
</g>
</g>
<!-- Node2&#45;&gt;Node6 -->
<g id="edge7" class="edge"><title>Node2&#45;&gt;Node6</title>
<path fill="none" stroke="midnightblue" d="M1249.84,-231.354C1173.31,-222.669 1042.6,-206.933 930.973,-189 920.834,-187.371 910.125,-185.479 899.683,-183.539"/>
<polygon fill="midnightblue" stroke="midnightblue" points="1249.48,-234.836 1259.81,-232.481 1250.27,-227.88 1249.48,-234.836"/>
</g>
<!-- Node7 -->
<g id="node7" class="node"><title>Node7</title>
<g id="a_node7"><a xlink:href="$AP__ADC__AnalogSource_8h.html" xlink:title="libraries/AP_ADC_AnalogSource\l/AP_ADC_AnalogSource.h">
<polygon fill="white" stroke="black" points="1124.88,-155.5 1124.88,-183.5 1287.07,-183.5 1287.07,-155.5 1124.88,-155.5"/>
<text text-anchor="start" x="1132.88" y="-171.5" font-family="Helvetica,sans-Serif" font-size="10.00">libraries/AP_ADC_AnalogSource</text>
<text text-anchor="middle" x="1205.97" y="-161.5" font-family="Helvetica,sans-Serif" font-size="10.00">/AP_ADC_AnalogSource.h</text>
</a>
</g>
</g>
<!-- Node2&#45;&gt;Node7 -->
<g id="edge8" class="edge"><title>Node2&#45;&gt;Node7</title>
<path fill="none" stroke="midnightblue" d="M1285.32,-220.002C1266.83,-208.469 1243.49,-193.908 1226.92,-183.571"/>
<polygon fill="midnightblue" stroke="midnightblue" points="1283.62,-223.065 1293.96,-225.389 1287.32,-217.126 1283.62,-223.065"/>
</g>
<!-- Node9 -->
<g id="node9" class="node"><title>Node9</title>
<g id="a_node9"><a xlink:href="$AHRS__Test_8cpp.html" xlink:title="libraries/AP_AHRS/examples\l/AHRS_Test/AHRS_Test.cpp">
<polygon fill="white" stroke="black" points="127.948,-75.5 127.948,-103.5 273.997,-103.5 273.997,-75.5 127.948,-75.5"/>
<text text-anchor="start" x="135.948" y="-91.5" font-family="Helvetica,sans-Serif" font-size="10.00">libraries/AP_AHRS/examples</text>
<text text-anchor="middle" x="200.973" y="-81.5" font-family="Helvetica,sans-Serif" font-size="10.00">/AHRS_Test/AHRS_Test.cpp</text>
</a>
</g>
</g>
<!-- Node2&#45;&gt;Node9 -->
<g id="edge23" class="edge"><title>Node2&#45;&gt;Node9</title>
<path fill="none" stroke="midnightblue" d="M1249.44,-234.971C1160.65,-229.249 1007.61,-215.782 958.973,-189 939.083,-178.048 946.296,-160.126 925.973,-150 797.878,-86.179 424.082,-137.862 282.973,-114 268.663,-111.58 253.292,-107.569 239.77,-103.54"/>
<polygon fill="midnightblue" stroke="midnightblue" points="1249.48,-238.48 1259.68,-235.614 1249.92,-231.493 1249.48,-238.48"/>
</g>
<!-- Node10 -->
<g id="node10" class="node"><title>Node10</title>
<g id="a_node10"><a xlink:href="$AP__Airspeed__analog_8cpp.html" xlink:title="libraries/AP_Airspeed\l/AP_Airspeed_analog.cpp">
<polygon fill="white" stroke="black" points="292.153,-75.5 292.153,-103.5 423.792,-103.5 423.792,-75.5 292.153,-75.5"/>
<text text-anchor="start" x="300.153" y="-91.5" font-family="Helvetica,sans-Serif" font-size="10.00">libraries/AP_Airspeed</text>
<text text-anchor="middle" x="357.973" y="-81.5" font-family="Helvetica,sans-Serif" font-size="10.00">/AP_Airspeed_analog.cpp</text>
</a>
</g>
</g>
<!-- Node2&#45;&gt;Node10 -->
<g id="edge25" class="edge"><title>Node2&#45;&gt;Node10</title>
<path fill="none" stroke="midnightblue" d="M1249.56,-233.221C1169.66,-225.934 1039.86,-211.131 996.973,-189 975.467,-177.902 980.936,-160.162 958.973,-150 852.641,-100.801 548.114,-135.666 432.973,-114 419.965,-111.552 406.047,-107.586 393.776,-103.603"/>
<polygon fill="midnightblue" stroke="midnightblue" points="1249.73,-236.751 1260,-234.157 1250.35,-229.779 1249.73,-236.751"/>
</g>
<!-- Node11 -->
<g id="node11" class="node"><title>Node11</title>
<g id="a_node11"><a xlink:href="$Airspeed_8cpp.html" xlink:title="libraries/AP_Airspeed\l/examples/Airspeed/Airspeed.cpp">
<polygon fill="white" stroke="black" points="441.488,-75.5 441.488,-103.5 606.458,-103.5 606.458,-75.5 441.488,-75.5"/>
<text text-anchor="start" x="449.488" y="-91.5" font-family="Helvetica,sans-Serif" font-size="10.00">libraries/AP_Airspeed</text>
<text text-anchor="middle" x="523.973" y="-81.5" font-family="Helvetica,sans-Serif" font-size="10.00">/examples/Airspeed/Airspeed.cpp</text>
</a>
</g>
</g>
<!-- Node2&#45;&gt;Node11 -->
<g id="edge26" class="edge"><title>Node2&#45;&gt;Node11</title>
<path fill="none" stroke="midnightblue" d="M1249.59,-238.147C1190.39,-235.312 1102.37,-224.665 1034.97,-189 1013.58,-177.681 1018.8,-160.443 996.973,-150 920.055,-113.207 698.96,-128.706 614.973,-114 599.704,-111.326 583.236,-107.401 568.561,-103.521"/>
<polygon fill="midnightblue" stroke="midnightblue" points="1249.8,-241.659 1259.93,-238.577 1250.09,-234.665 1249.8,-241.659"/>
</g>
<!-- Node12 -->
<g id="node12" class="node"><title>Node12</title>
<g id="a_node12"><a xlink:href="$AP__BattMonitor__Analog_8h.html" xlink:title="libraries/AP_BattMonitor\l/AP_BattMonitor_Analog.h">
<polygon fill="white" stroke="black" points="624.047,-75.5 624.047,-103.5 757.898,-103.5 757.898,-75.5 624.047,-75.5"/>
<text text-anchor="start" x="632.047" y="-91.5" font-family="Helvetica,sans-Serif" font-size="10.00">libraries/AP_BattMonitor</text>
<text text-anchor="middle" x="690.973" y="-81.5" font-family="Helvetica,sans-Serif" font-size="10.00">/AP_BattMonitor_Analog.h</text>
</a>
</g>
</g>
<!-- Node2&#45;&gt;Node12 -->
<g id="edge27" class="edge"><title>Node2&#45;&gt;Node12</title>
<path fill="none" stroke="midnightblue" d="M1249.7,-235.56C1198.85,-230.891 1127.9,-219.01 1072.97,-189 1051.74,-177.396 1056.59,-160.873 1034.97,-150 927.604,-96.0054 884.343,-139.841 766.973,-114 754.429,-111.238 740.969,-107.382 728.914,-103.59"/>
<polygon fill="midnightblue" stroke="midnightblue" points="1249.66,-239.068 1259.92,-236.425 1250.25,-232.093 1249.66,-239.068"/>
</g>
<!-- Node15 -->
<g id="node15" class="node"><title>Node15</title>
<g id="a_node15"><a xlink:href="$GPS__AUTO__test_8cpp.html" xlink:title="libraries/AP_GPS/examples\l/GPS_AUTO_test/GPS_AUTO\l_test.cpp">
<polygon fill="white" stroke="black" points="776.072,-70.5 776.072,-108.5 927.873,-108.5 927.873,-70.5 776.072,-70.5"/>
<text text-anchor="start" x="784.072" y="-96.5" font-family="Helvetica,sans-Serif" font-size="10.00">libraries/AP_GPS/examples</text>
<text text-anchor="start" x="784.072" y="-86.5" font-family="Helvetica,sans-Serif" font-size="10.00">/GPS_AUTO_test/GPS_AUTO</text>
<text text-anchor="middle" x="851.973" y="-76.5" font-family="Helvetica,sans-Serif" font-size="10.00">_test.cpp</text>
</a>
</g>
</g>
<!-- Node2&#45;&gt;Node15 -->
<g id="edge28" class="edge"><title>Node2&#45;&gt;Node15</title>
<path fill="none" stroke="midnightblue" d="M1250,-230.6C1209.63,-223.736 1157.67,-211.252 1115.97,-189 1093.21,-176.852 1095.64,-162.318 1072.97,-150 1018.03,-120.149 997.328,-130.331 936.973,-114 930.47,-112.24 923.691,-110.392 916.924,-108.536"/>
<polygon fill="midnightblue" stroke="midnightblue" points="1249.57,-234.076 1260,-232.227 1250.69,-227.167 1249.57,-234.076"/>
</g>
<!-- Node16 -->
<g id="node16" class="node"><title>Node16</title>
<g id="a_node16"><a xlink:href="$GPS__UBLOX__passthrough_8cpp.html" xlink:title="libraries/AP_GPS/examples\l/GPS_UBLOX_passthrough\l/GPS_UBLOX_passthrough.cpp">
<polygon fill="white" stroke="black" points="1126.54,-70.5 1126.54,-108.5 1285.4,-108.5 1285.4,-70.5 1126.54,-70.5"/>
<text text-anchor="start" x="1134.54" y="-96.5" font-family="Helvetica,sans-Serif" font-size="10.00">libraries/AP_GPS/examples</text>
<text text-anchor="start" x="1134.54" y="-86.5" font-family="Helvetica,sans-Serif" font-size="10.00">/GPS_UBLOX_passthrough</text>
<text text-anchor="middle" x="1205.97" y="-76.5" font-family="Helvetica,sans-Serif" font-size="10.00">/GPS_UBLOX_passthrough.cpp</text>
</a>
</g>
</g>
<!-- Node2&#45;&gt;Node16 -->
<g id="edge29" class="edge"><title>Node2&#45;&gt;Node16</title>
<path fill="none" stroke="midnightblue" d="M1314.7,-215.099C1313.43,-196.072 1309.16,-169.311 1295.97,-150 1283.83,-132.21 1264.43,-118.397 1246.75,-108.577"/>
<polygon fill="midnightblue" stroke="midnightblue" points="1311.22,-215.455 1315.15,-225.293 1318.21,-215.15 1311.22,-215.455"/>
</g>
<!-- Node17 -->
<g id="node17" class="node"><title>Node17</title>
<g id="a_node17"><a xlink:href="$INS__generic_8cpp.html" xlink:title="libraries/AP_InertialSensor\l/examples/INS_generic/INS\l_generic.cpp">
<polygon fill="white" stroke="black" points="1303.56,-70.5 1303.56,-108.5 1442.39,-108.5 1442.39,-70.5 1303.56,-70.5"/>
<text text-anchor="start" x="1311.56" y="-96.5" font-family="Helvetica,sans-Serif" font-size="10.00">libraries/AP_InertialSensor</text>
<text text-anchor="start" x="1311.56" y="-86.5" font-family="Helvetica,sans-Serif" font-size="10.00">/examples/INS_generic/INS</text>
<text text-anchor="middle" x="1372.97" y="-76.5" font-family="Helvetica,sans-Serif" font-size="10.00">_generic.cpp</text>
</a>
</g>
</g>
<!-- Node2&#45;&gt;Node17 -->
<g id="edge39" class="edge"><title>Node2&#45;&gt;Node17</title>
<path fill="none" stroke="midnightblue" d="M1323.81,-215.956C1335.3,-186.628 1355.16,-135.946 1365.78,-108.845"/>
<polygon fill="midnightblue" stroke="midnightblue" points="1320.51,-214.778 1320.12,-225.366 1327.03,-217.332 1320.51,-214.778"/>
</g>
<!-- Node18 -->
<g id="node18" class="node"><title>Node18</title>
<g id="a_node18"><a xlink:href="$VibTest_8cpp.html" xlink:title="libraries/AP_InertialSensor\l/examples/VibTest/VibTest.cpp">
<polygon fill="white" stroke="black" points="1460.34,-75.5 1460.34,-103.5 1611.61,-103.5 1611.61,-75.5 1460.34,-75.5"/>
<text text-anchor="start" x="1468.34" y="-91.5" font-family="Helvetica,sans-Serif" font-size="10.00">libraries/AP_InertialSensor</text>
<text text-anchor="middle" x="1535.97" y="-81.5" font-family="Helvetica,sans-Serif" font-size="10.00">/examples/VibTest/VibTest.cpp</text>
</a>
</g>
</g>
<!-- Node2&#45;&gt;Node18 -->
<g id="edge40" class="edge"><title>Node2&#45;&gt;Node18</title>
<path fill="none" stroke="midnightblue" d="M1334.91,-217.923C1354.2,-198.763 1384.85,-170.201 1414.97,-150 1443.26,-131.029 1478.48,-114.402 1503.61,-103.583"/>
<polygon fill="midnightblue" stroke="midnightblue" points="1332.19,-215.7 1327.62,-225.26 1337.15,-220.635 1332.19,-215.7"/>
</g>
<!-- Node19 -->
<g id="node19" class="node"><title>Node19</title>
<g id="a_node19"><a xlink:href="$AP__Motors__test_8cpp.html" xlink:title="libraries/AP_Motors\l/examples/AP_Motors\l_test/AP_Motors_test.cpp">
<polygon fill="white" stroke="black" points="1629.72,-70.5 1629.72,-108.5 1760.22,-108.5 1760.22,-70.5 1629.72,-70.5"/>
<text text-anchor="start" x="1637.72" y="-96.5" font-family="Helvetica,sans-Serif" font-size="10.00">libraries/AP_Motors</text>
<text text-anchor="start" x="1637.72" y="-86.5" font-family="Helvetica,sans-Serif" font-size="10.00">/examples/AP_Motors</text>
<text text-anchor="middle" x="1694.97" y="-76.5" font-family="Helvetica,sans-Serif" font-size="10.00">_test/AP_Motors_test.cpp</text>
</a>
</g>
</g>
<!-- Node2&#45;&gt;Node19 -->
<g id="edge41" class="edge"><title>Node2&#45;&gt;Node19</title>
<path fill="none" stroke="midnightblue" d="M1350.7,-220.745C1367.57,-211.884 1387.75,-200.597 1404.97,-189 1427.77,-173.648 1428.18,-161.874 1452.97,-150 1521.84,-117.012 1547.16,-133.579 1620.97,-114 1627.23,-112.341 1633.74,-110.478 1640.19,-108.546"/>
<polygon fill="midnightblue" stroke="midnightblue" points="1348.97,-217.698 1341.7,-225.405 1352.19,-223.914 1348.97,-217.698"/>
</g>
<!-- Node20 -->
<g id="node20" class="node"><title>Node20</title>
<g id="a_node20"><a xlink:href="$AP__Motors__Time__test_8cpp.html" xlink:title="libraries/AP_Motors\l/examples/AP_Motors\l_Time_test/AP_Motors\l_Time_test.cpp">
<polygon fill="white" stroke="black" points="1778.3,-65.5 1778.3,-113.5 1895.64,-113.5 1895.64,-65.5 1778.3,-65.5"/>
<text text-anchor="start" x="1786.3" y="-101.5" font-family="Helvetica,sans-Serif" font-size="10.00">libraries/AP_Motors</text>
<text text-anchor="start" x="1786.3" y="-91.5" font-family="Helvetica,sans-Serif" font-size="10.00">/examples/AP_Motors</text>
<text text-anchor="start" x="1786.3" y="-81.5" font-family="Helvetica,sans-Serif" font-size="10.00">_Time_test/AP_Motors</text>
<text text-anchor="middle" x="1836.97" y="-71.5" font-family="Helvetica,sans-Serif" font-size="10.00">_Time_test.cpp</text>
</a>
</g>
</g>
<!-- Node2&#45;&gt;Node20 -->
<g id="edge42" class="edge"><title>Node2&#45;&gt;Node20</title>
<path fill="none" stroke="midnightblue" d="M1368.13,-222.149C1391.83,-213.813 1419.61,-202.555 1442.97,-189 1466.75,-175.207 1465.71,-160.844 1490.97,-150 1605.45,-100.848 1647.69,-142.495 1768.97,-114 1772.01,-113.286 1775.11,-112.487 1778.22,-111.627"/>
<polygon fill="midnightblue" stroke="midnightblue" points="1366.91,-218.867 1358.59,-225.427 1369.19,-225.488 1366.91,-218.867"/>
</g>
<!-- Node21 -->
<g id="node21" class="node"><title>Node21</title>
<g id="a_node21"><a xlink:href="$trivial__AP__Mount_8cpp.html" xlink:title="libraries/AP_Mount\l/examples/trivial_AP\l_Mount/trivial_AP_Mount.cpp">
<polygon fill="white" stroke="black" points="1913.66,-70.5 1913.66,-108.5 2060.29,-108.5 2060.29,-70.5 1913.66,-70.5"/>
<text text-anchor="start" x="1921.66" y="-96.5" font-family="Helvetica,sans-Serif" font-size="10.00">libraries/AP_Mount</text>
<text text-anchor="start" x="1921.66" y="-86.5" font-family="Helvetica,sans-Serif" font-size="10.00">/examples/trivial_AP</text>
<text text-anchor="middle" x="1986.97" y="-76.5" font-family="Helvetica,sans-Serif" font-size="10.00">_Mount/trivial_AP_Mount.cpp</text>
</a>
</g>
</g>
<!-- Node2&#45;&gt;Node21 -->
<g id="edge43" class="edge"><title>Node2&#45;&gt;Node21</title>
<path fill="none" stroke="midnightblue" d="M1377.69,-222.89C1416.82,-212.56 1463.04,-199.107 1480.97,-189 1503.45,-176.332 1500.37,-160.413 1523.97,-150 1679.59,-81.3551 1737.84,-145.564 1904.97,-114 1912.83,-112.516 1921.02,-110.612 1929.06,-108.532"/>
<polygon fill="midnightblue" stroke="midnightblue" points="1376.7,-219.529 1367.91,-225.445 1378.47,-226.302 1376.7,-219.529"/>
</g>
<!-- Node22 -->
<g id="node22" class="node"><title>Node22</title>
<g id="a_node22"><a xlink:href="$AP__Airspeed_8cpp.html" xlink:title="libraries/AP_Airspeed\l/AP_Airspeed.cpp">
<polygon fill="white" stroke="black" points="1532.89,-155.5 1532.89,-183.5 1645.05,-183.5 1645.05,-155.5 1532.89,-155.5"/>
<text text-anchor="start" x="1540.89" y="-171.5" font-family="Helvetica,sans-Serif" font-size="10.00">libraries/AP_Airspeed</text>
<text text-anchor="middle" x="1588.97" y="-161.5" font-family="Helvetica,sans-Serif" font-size="10.00">/AP_Airspeed.cpp</text>
</a>
</g>
</g>
<!-- Node2&#45;&gt;Node22 -->
<g id="edge24" class="edge"><title>Node2&#45;&gt;Node22</title>
<path fill="none" stroke="midnightblue" d="M1379.95,-223.09C1420.07,-213.487 1472.56,-200.762 1518.97,-189 1525.8,-187.271 1532.98,-185.413 1540.05,-183.565"/>
<polygon fill="midnightblue" stroke="midnightblue" points="1378.94,-219.732 1370.03,-225.461 1380.57,-226.54 1378.94,-219.732"/>
</g>
<!-- Node23 -->
<g id="node23" class="node"><title>Node23</title>
<g id="a_node23"><a xlink:href="$AP__Baro__BMP085__test_8cpp.html" xlink:title="libraries/AP_HAL_FLYMAPLE\l/examples/AP_Baro_BMP085\l_test/AP_Baro_BMP085_test.cpp">
<polygon fill="white" stroke="black" points="1663.48,-150.5 1663.48,-188.5 1828.46,-188.5 1828.46,-150.5 1663.48,-150.5"/>
<text text-anchor="start" x="1671.48" y="-176.5" font-family="Helvetica,sans-Serif" font-size="10.00">libraries/AP_HAL_FLYMAPLE</text>
<text text-anchor="start" x="1671.48" y="-166.5" font-family="Helvetica,sans-Serif" font-size="10.00">/examples/AP_Baro_BMP085</text>
<text text-anchor="middle" x="1745.97" y="-156.5" font-family="Helvetica,sans-Serif" font-size="10.00">_test/AP_Baro_BMP085_test.cpp</text>
</a>
</g>
</g>
<!-- Node2&#45;&gt;Node23 -->
<g id="edge30" class="edge"><title>Node2&#45;&gt;Node23</title>
<path fill="none" stroke="midnightblue" d="M1380.19,-224.882C1502.22,-204.505 1535.57,-208.63 1653.97,-189 1657.03,-188.494 1660.13,-187.961 1663.27,-187.408"/>
<polygon fill="midnightblue" stroke="midnightblue" points="1379.35,-221.474 1370.08,-226.592 1380.52,-228.376 1379.35,-221.474"/>
</g>
<!-- Node24 -->
<g id="node24" class="node"><title>Node24</title>
<g id="a_node24"><a xlink:href="$AnalogIn__ADS1115_8h.html" xlink:title="libraries/AP_HAL_Linux\l/AnalogIn_ADS1115.h">
<polygon fill="white" stroke="black" points="2079.17,-155.5 2079.17,-183.5 2200.78,-183.5 2200.78,-155.5 2079.17,-155.5"/>
<text text-anchor="start" x="2087.17" y="-171.5" font-family="Helvetica,sans-Serif" font-size="10.00">libraries/AP_HAL_Linux</text>
<text text-anchor="middle" x="2139.97" y="-161.5" font-family="Helvetica,sans-Serif" font-size="10.00">/AnalogIn_ADS1115.h</text>
</a>
</g>
</g>
<!-- Node2&#45;&gt;Node24 -->
<g id="edge31" class="edge"><title>Node2&#45;&gt;Node24</title>
<path fill="none" stroke="midnightblue" d="M1380.22,-225.081C1481.45,-213.155 1917.05,-184.772 2079.07,-174.381"/>
<polygon fill="midnightblue" stroke="midnightblue" points="1379.52,-221.643 1370.05,-226.385 1380.41,-228.586 1379.52,-221.643"/>
</g>
<!-- Node28 -->
<g id="node28" class="node"><title>Node28</title>
<g id="a_node28"><a xlink:href="$RaspilotAnalogIn_8h.html" xlink:title="libraries/AP_HAL_Linux\l/RaspilotAnalogIn.h">
<polygon fill="white" stroke="black" points="2222.17,-155.5 2222.17,-183.5 2343.78,-183.5 2343.78,-155.5 2222.17,-155.5"/>
<text text-anchor="start" x="2230.17" y="-171.5" font-family="Helvetica,sans-Serif" font-size="10.00">libraries/AP_HAL_Linux</text>
<text text-anchor="middle" x="2282.97" y="-161.5" font-family="Helvetica,sans-Serif" font-size="10.00">/RaspilotAnalogIn.h</text>
</a>
</g>
</g>
<!-- Node2&#45;&gt;Node28 -->
<g id="edge35" class="edge"><title>Node2&#45;&gt;Node28</title>
<path fill="none" stroke="midnightblue" d="M1380.15,-225.022C1747.54,-179.84 1847.52,-242.204 2209.97,-189 2219.03,-187.671 2228.59,-185.685 2237.7,-183.502"/>
<polygon fill="midnightblue" stroke="midnightblue" points="1379.52,-221.573 1370.03,-226.285 1380.39,-228.519 1379.52,-221.573"/>
</g>
<!-- Node30 -->
<g id="node30" class="node"><title>Node30</title>
<g id="a_node30"><a xlink:href="$sitl__ins_8cpp.html" xlink:title="libraries/AP_HAL_SITL\l/sitl_ins.cpp">
<polygon fill="white" stroke="black" points="2361.56,-155.5 2361.56,-183.5 2480.38,-183.5 2480.38,-155.5 2361.56,-155.5"/>
<text text-anchor="start" x="2369.56" y="-171.5" font-family="Helvetica,sans-Serif" font-size="10.00">libraries/AP_HAL_SITL</text>
<text text-anchor="middle" x="2420.97" y="-161.5" font-family="Helvetica,sans-Serif" font-size="10.00">/sitl_ins.cpp</text>
</a>
</g>
</g>
<!-- Node2&#45;&gt;Node30 -->
<g id="edge38" class="edge"><title>Node2&#45;&gt;Node30</title>
<path fill="none" stroke="midnightblue" d="M1380.26,-225.018C1810.74,-173.378 1928.08,-253.775 2352.97,-189 2361.44,-187.709 2370.36,-185.741 2378.85,-183.563"/>
<polygon fill="midnightblue" stroke="midnightblue" points="1379.53,-221.58 1370.03,-226.263 1380.38,-228.529 1379.53,-221.58"/>
</g>
<!-- Node4&#45;&gt;Node2 -->
<g id="edge4" class="edge"><title>Node4&#45;&gt;Node2</title>
<path fill="none" stroke="midnightblue" d="M739.472,-186.087C744.031,-187.186 748.568,-188.181 752.973,-189 936.884,-223.214 1158.62,-233.872 1259.88,-237.12"/>
<polygon fill="midnightblue" stroke="midnightblue" points="740.052,-182.623 729.497,-183.544 738.322,-189.406 740.052,-182.623"/>
</g>
<!-- Node5 -->
<g id="node5" class="node"><title>Node5</title>
<g id="a_node5"><a xlink:href="$AP__ADC__ADS7844_8cpp.html" xlink:title="libraries/AP_ADC/AP\l_ADC_ADS7844.cpp">
<polygon fill="white" stroke="black" points="0,-75.5 0,-103.5 109.945,-103.5 109.945,-75.5 0,-75.5"/>
<text text-anchor="start" x="8" y="-91.5" font-family="Helvetica,sans-Serif" font-size="10.00">libraries/AP_ADC/AP</text>
<text text-anchor="middle" x="54.9727" y="-81.5" font-family="Helvetica,sans-Serif" font-size="10.00">_ADC_ADS7844.cpp</text>
</a>
</g>
</g>
<!-- Node4&#45;&gt;Node5 -->
<g id="edge5" class="edge"><title>Node4&#45;&gt;Node5</title>
<path fill="none" stroke="midnightblue" d="M629.657,-152.894C625.059,-151.79 620.449,-150.8 615.973,-150 397.959,-111.037 335.477,-160.623 118.973,-114 107.633,-111.558 95.5962,-107.542 85.058,-103.515"/>
<polygon fill="midnightblue" stroke="midnightblue" points="629.09,-156.362 639.647,-155.461 630.833,-149.582 629.09,-156.362"/>
</g>
<!-- Node8 -->
<g id="node8" class="node"><title>Node8</title>
<g id="a_node8"><a xlink:href="$AP__ADC__AnalogSource_8cpp.html" xlink:title="libraries/AP_ADC_AnalogSource\l/AP_ADC_AnalogSource.cpp">
<polygon fill="white" stroke="black" points="945.879,-75.5 945.879,-103.5 1108.07,-103.5 1108.07,-75.5 945.879,-75.5"/>
<text text-anchor="start" x="953.879" y="-91.5" font-family="Helvetica,sans-Serif" font-size="10.00">libraries/AP_ADC_AnalogSource</text>
<text text-anchor="middle" x="1026.97" y="-81.5" font-family="Helvetica,sans-Serif" font-size="10.00">/AP_ADC_AnalogSource.cpp</text>
</a>
</g>
</g>
<!-- Node7&#45;&gt;Node8 -->
<g id="edge9" class="edge"><title>Node7&#45;&gt;Node8</title>
<path fill="none" stroke="midnightblue" d="M1166.66,-151.367C1133.63,-136.977 1087.14,-116.718 1057.03,-103.598"/>
<polygon fill="midnightblue" stroke="midnightblue" points="1165.45,-154.658 1176.01,-155.445 1168.24,-148.241 1165.45,-154.658"/>
</g>
<!-- Node7&#45;&gt;Node9 -->
<g id="edge10" class="edge"><title>Node7&#45;&gt;Node9</title>
<path fill="none" stroke="midnightblue" d="M1114.72,-161.194C1068.13,-157.583 1010.55,-153.304 958.973,-150 658.718,-130.763 579.699,-163.761 282.973,-114 268.66,-111.6 253.288,-107.593 239.766,-103.562"/>
<polygon fill="midnightblue" stroke="midnightblue" points="1114.55,-164.691 1124.79,-161.977 1115.09,-157.712 1114.55,-164.691"/>
</g>
<!-- Node7&#45;&gt;Node10 -->
<g id="edge11" class="edge"><title>Node7&#45;&gt;Node10</title>
<path fill="none" stroke="midnightblue" d="M1114.48,-159.912C1077.95,-156.61 1035.48,-152.933 996.973,-150 746.521,-130.925 679.924,-159.881 432.973,-114 419.825,-111.557 405.753,-107.541 393.391,-103.514"/>
<polygon fill="midnightblue" stroke="midnightblue" points="1114.35,-163.414 1124.62,-160.832 1114.98,-156.442 1114.35,-163.414"/>
</g>
<!-- Node7&#45;&gt;Node11 -->
<g id="edge12" class="edge"><title>Node7&#45;&gt;Node11</title>
<path fill="none" stroke="midnightblue" d="M1114.57,-158.231C1088.83,-155.443 1060.82,-152.505 1034.97,-150 848.496,-131.923 799.651,-145.533 614.973,-114 599.693,-111.391 583.222,-107.482 568.548,-103.598"/>
<polygon fill="midnightblue" stroke="midnightblue" points="1114.36,-161.729 1124.68,-159.331 1115.12,-154.77 1114.36,-161.729"/>
</g>
<!-- Node7&#45;&gt;Node12 -->
<g id="edge13" class="edge"><title>Node7&#45;&gt;Node12</title>
<path fill="none" stroke="midnightblue" d="M1114.67,-155.541C1100.71,-153.635 1086.46,-151.732 1072.97,-150 937.149,-132.566 900.945,-142.345 766.973,-114 754.272,-111.313 740.651,-107.431 728.499,-103.593"/>
<polygon fill="midnightblue" stroke="midnightblue" points="1114.39,-159.035 1124.77,-156.928 1115.34,-152.1 1114.39,-159.035"/>
</g>
<!-- Node7&#45;&gt;Node15 -->
<g id="edge16" class="edge"><title>Node7&#45;&gt;Node15</title>
<path fill="none" stroke="midnightblue" d="M1129,-153.527C1062.86,-140.546 972.677,-122.542 936.973,-114 929.974,-112.326 922.68,-110.474 915.436,-108.567"/>
<polygon fill="midnightblue" stroke="midnightblue" points="1128.5,-156.995 1138.99,-155.484 1129.85,-150.126 1128.5,-156.995"/>
</g>
<!-- Node7&#45;&gt;Node16 -->
<g id="edge17" class="edge"><title>Node7&#45;&gt;Node16</title>
<path fill="none" stroke="midnightblue" d="M1205.97,-144.977C1205.97,-133.37 1205.97,-119.579 1205.97,-108.777"/>
<polygon fill="midnightblue" stroke="midnightblue" points="1202.47,-145.268 1205.97,-155.268 1209.47,-145.268 1202.47,-145.268"/>
</g>
<!-- Node7&#45;&gt;Node17 -->
<g id="edge18" class="edge"><title>Node7&#45;&gt;Node17</title>
<path fill="none" stroke="midnightblue" d="M1243.08,-151.168C1270.18,-138.512 1306.83,-121.395 1334.29,-108.569"/>
<polygon fill="midnightblue" stroke="midnightblue" points="1241.5,-148.042 1233.92,-155.445 1244.47,-154.384 1241.5,-148.042"/>
</g>
<!-- Node7&#45;&gt;Node18 -->
<g id="edge19" class="edge"><title>Node7&#45;&gt;Node18</title>
<path fill="none" stroke="midnightblue" d="M1278.47,-153.386C1327.35,-142.946 1393.22,-128.397 1450.97,-114 1463.75,-110.815 1477.53,-107.118 1490.21,-103.612"/>
<polygon fill="midnightblue" stroke="midnightblue" points="1277.66,-149.978 1268.61,-155.484 1279.12,-156.825 1277.66,-149.978"/>
</g>
<!-- Node7&#45;&gt;Node19 -->
<g id="edge20" class="edge"><title>Node7&#45;&gt;Node19</title>
<path fill="none" stroke="midnightblue" d="M1297.53,-161.165C1382.17,-153.282 1511.06,-138.466 1620.97,-114 1627.81,-112.477 1634.93,-110.603 1641.93,-108.584"/>
<polygon fill="midnightblue" stroke="midnightblue" points="1297.07,-157.693 1287.44,-162.093 1297.71,-164.663 1297.07,-157.693"/>
</g>
<!-- Node7&#45;&gt;Node20 -->
<g id="edge21" class="edge"><title>Node7&#45;&gt;Node20</title>
<path fill="none" stroke="midnightblue" d="M1297.69,-160.816C1445.44,-148.258 1724.2,-123.759 1768.97,-114 1772.02,-113.335 1775.13,-112.576 1778.24,-111.747"/>
<polygon fill="midnightblue" stroke="midnightblue" points="1296.95,-157.366 1287.28,-161.699 1297.54,-164.341 1296.95,-157.366"/>
</g>
<!-- Node7&#45;&gt;Node21 -->
<g id="edge22" class="edge"><title>Node7&#45;&gt;Node21</title>
<path fill="none" stroke="midnightblue" d="M1297.26,-162.412C1473.12,-150.534 1846.7,-124.512 1904.97,-114 1912.99,-112.554 1921.34,-110.645 1929.53,-108.538"/>
<polygon fill="midnightblue" stroke="midnightblue" points="1296.99,-158.922 1287.25,-163.088 1297.46,-165.907 1296.99,-158.922"/>
</g>
<!-- Node13 -->
<g id="node13" class="node"><title>Node13</title>
<g id="a_node13"><a xlink:href="$AP__BattMonitor_8cpp.html" xlink:title="libraries/AP_BattMonitor\l/AP_BattMonitor.cpp">
<polygon fill="white" stroke="black" points="705.062,-0.5 705.062,-28.5 828.884,-28.5 828.884,-0.5 705.062,-0.5"/>
<text text-anchor="start" x="713.062" y="-16.5" font-family="Helvetica,sans-Serif" font-size="10.00">libraries/AP_BattMonitor</text>
<text text-anchor="middle" x="766.973" y="-6.5" font-family="Helvetica,sans-Serif" font-size="10.00">/AP_BattMonitor.cpp</text>
</a>
</g>
</g>
<!-- Node12&#45;&gt;Node13 -->
<g id="edge14" class="edge"><title>Node12&#45;&gt;Node13</title>
<path fill="none" stroke="midnightblue" d="M711.858,-68.4386C725.047,-55.7704 741.713,-39.7627 753.247,-28.6841"/>
<polygon fill="midnightblue" stroke="midnightblue" points="709.347,-65.9975 704.56,-75.4491 714.197,-71.0459 709.347,-65.9975"/>
</g>
<!-- Node14 -->
<g id="node14" class="node"><title>Node14</title>
<g id="a_node14"><a xlink:href="$AP__BattMonitor__Analog_8cpp.html" xlink:title="libraries/AP_BattMonitor\l/AP_BattMonitor_Analog.cpp">
<polygon fill="white" stroke="black" points="542.766,-0.5 542.766,-28.5 687.179,-28.5 687.179,-0.5 542.766,-0.5"/>
<text text-anchor="start" x="550.766" y="-16.5" font-family="Helvetica,sans-Serif" font-size="10.00">libraries/AP_BattMonitor</text>
<text text-anchor="middle" x="614.973" y="-6.5" font-family="Helvetica,sans-Serif" font-size="10.00">/AP_BattMonitor_Analog.cpp</text>
</a>
</g>
</g>
<!-- Node12&#45;&gt;Node14 -->
<g id="edge15" class="edge"><title>Node12&#45;&gt;Node14</title>
<path fill="none" stroke="midnightblue" d="M670.087,-68.4386C656.898,-55.7704 640.232,-39.7627 628.699,-28.6841"/>
<polygon fill="midnightblue" stroke="midnightblue" points="667.749,-71.0459 677.385,-75.4491 672.598,-65.9975 667.749,-71.0459"/>
</g>
<!-- Node25 -->
<g id="node25" class="node"><title>Node25</title>
<g id="a_node25"><a xlink:href="$AnalogIn__ADS1115_8cpp.html" xlink:title="libraries/AP_HAL_Linux\l/AnalogIn_ADS1115.cpp">
<polygon fill="white" stroke="black" points="2077.95,-75.5 2077.95,-103.5 2202,-103.5 2202,-75.5 2077.95,-75.5"/>
<text text-anchor="start" x="2085.95" y="-91.5" font-family="Helvetica,sans-Serif" font-size="10.00">libraries/AP_HAL_Linux</text>
<text text-anchor="middle" x="2139.97" y="-81.5" font-family="Helvetica,sans-Serif" font-size="10.00">/AnalogIn_ADS1115.cpp</text>
</a>
</g>
</g>
<!-- Node24&#45;&gt;Node25 -->
<g id="edge32" class="edge"><title>Node24&#45;&gt;Node25</title>
<path fill="none" stroke="midnightblue" d="M2139.97,-145.16C2139.97,-131.539 2139.97,-114.861 2139.97,-103.536"/>
<polygon fill="midnightblue" stroke="midnightblue" points="2136.47,-145.268 2139.97,-155.268 2143.47,-145.268 2136.47,-145.268"/>
</g>
<!-- Node26 -->
<g id="node26" class="node"><title>Node26</title>
<g id="a_node26"><a xlink:href="$AP__HAL__Linux__Private_8h.html" xlink:title="libraries/AP_HAL_Linux\l/AP_HAL_Linux_Private.h">
<polygon fill="white" stroke="black" points="2220.16,-75.5 2220.16,-103.5 2351.79,-103.5 2351.79,-75.5 2220.16,-75.5"/>
<text text-anchor="start" x="2228.16" y="-91.5" font-family="Helvetica,sans-Serif" font-size="10.00">libraries/AP_HAL_Linux</text>
<text text-anchor="middle" x="2285.97" y="-81.5" font-family="Helvetica,sans-Serif" font-size="10.00">/AP_HAL_Linux_Private.h</text>
</a>
</g>
</g>
<!-- Node24&#45;&gt;Node26 -->
<g id="edge33" class="edge"><title>Node24&#45;&gt;Node26</title>
<path fill="none" stroke="midnightblue" d="M2173.44,-150.621C2200.28,-136.284 2237.32,-116.493 2261.46,-103.598"/>
<polygon fill="midnightblue" stroke="midnightblue" points="2171.58,-147.645 2164.41,-155.445 2174.88,-153.819 2171.58,-147.645"/>
</g>
<!-- Node27 -->
<g id="node27" class="node"><title>Node27</title>
<g id="a_node27"><a xlink:href="$HAL__Linux__Class_8cpp.html" xlink:title="libraries/AP_HAL_Linux\l/HAL_Linux_Class.cpp">
<polygon fill="white" stroke="black" points="2225.17,-0.5 2225.17,-28.5 2346.78,-28.5 2346.78,-0.5 2225.17,-0.5"/>
<text text-anchor="start" x="2233.17" y="-16.5" font-family="Helvetica,sans-Serif" font-size="10.00">libraries/AP_HAL_Linux</text>
<text text-anchor="middle" x="2285.97" y="-6.5" font-family="Helvetica,sans-Serif" font-size="10.00">/HAL_Linux_Class.cpp</text>
</a>
</g>
</g>
<!-- Node26&#45;&gt;Node27 -->
<g id="edge34" class="edge"><title>Node26&#45;&gt;Node27</title>
<path fill="none" stroke="midnightblue" d="M2285.97,-65.2448C2285.97,-53.2645 2285.97,-39.0818 2285.97,-28.9318"/>
<polygon fill="midnightblue" stroke="midnightblue" points="2282.47,-65.449 2285.97,-75.4491 2289.47,-65.4491 2282.47,-65.449"/>
</g>
<!-- Node28&#45;&gt;Node26 -->
<g id="edge36" class="edge"><title>Node28&#45;&gt;Node26</title>
<path fill="none" stroke="midnightblue" d="M2283.87,-145.16C2284.39,-131.539 2285.04,-114.861 2285.47,-103.536"/>
<polygon fill="midnightblue" stroke="midnightblue" points="2280.37,-145.141 2283.48,-155.268 2287.36,-145.41 2280.37,-145.141"/>
</g>
<!-- Node29 -->
<g id="node29" class="node"><title>Node29</title>
<g id="a_node29"><a xlink:href="$RaspilotAnalogIn_8cpp.html" xlink:title="libraries/AP_HAL_Linux\l/RaspilotAnalogIn.cpp">
<polygon fill="white" stroke="black" points="2370.17,-75.5 2370.17,-103.5 2491.78,-103.5 2491.78,-75.5 2370.17,-75.5"/>
<text text-anchor="start" x="2378.17" y="-91.5" font-family="Helvetica,sans-Serif" font-size="10.00">libraries/AP_HAL_Linux</text>
<text text-anchor="middle" x="2430.97" y="-81.5" font-family="Helvetica,sans-Serif" font-size="10.00">/RaspilotAnalogIn.cpp</text>
</a>
</g>
</g>
<!-- Node28&#45;&gt;Node29 -->
<g id="edge37" class="edge"><title>Node28&#45;&gt;Node29</title>
<path fill="none" stroke="midnightblue" d="M2316.9,-150.621C2344.1,-136.284 2381.65,-116.493 2406.12,-103.598"/>
<polygon fill="midnightblue" stroke="midnightblue" points="2314.96,-147.686 2307.74,-155.445 2318.22,-153.878 2314.96,-147.686"/>
</g>
</g>
</svg>
