<?xml version="1.0" encoding="UTF-8" standalone="no"?>
<!DOCTYPE svg PUBLIC "-//W3C//DTD SVG 1.1//EN"
 "http://www.w3.org/Graphics/SVG/1.1/DTD/svg11.dtd">
<!-- Generated by graphviz version 2.38.0 (20140413.2041)
 -->
<!-- Title: libraries/AP_Mount/AP_Mount.h Pages: 1 -->
<svg width="3633pt" height="252pt"
 viewBox="0.00 0.00 3633.29 252.00" xmlns="http://www.w3.org/2000/svg" xmlns:xlink="http://www.w3.org/1999/xlink">
<g id="graph0" class="graph" transform="scale(1 1) rotate(0) translate(4 248)">
<title>libraries/AP_Mount/AP_Mount.h</title>
<polygon fill="white" stroke="none" points="-4,4 -4,-248 3629.29,-248 3629.29,4 -4,4"/>
<!-- Node1 -->
<g id="node1" class="node"><title>Node1</title>
<polygon fill="#bfbfbf" stroke="black" points="324.899,-215.5 324.899,-243.5 425.381,-243.5 425.381,-215.5 324.899,-215.5"/>
<text text-anchor="start" x="332.899" y="-231.5" font-family="Helvetica,sans-Serif" font-size="10.00">libraries/AP_Mount</text>
<text text-anchor="middle" x="375.14" y="-221.5" font-family="Helvetica,sans-Serif" font-size="10.00">/AP_Mount.h</text>
</g>
<!-- Node2 -->
<g id="node2" class="node"><title>Node2</title>
<g id="a_node2"><a xlink:href="$AP__Mount_8cpp.html" xlink:title="libraries/AP_Mount\l/AP_Mount.cpp">
<polygon fill="white" stroke="black" points="239.899,-0.5 239.899,-28.5 340.381,-28.5 340.381,-0.5 239.899,-0.5"/>
<text text-anchor="start" x="247.899" y="-16.5" font-family="Helvetica,sans-Serif" font-size="10.00">libraries/AP_Mount</text>
<text text-anchor="middle" x="290.14" y="-6.5" font-family="Helvetica,sans-Serif" font-size="10.00">/AP_Mount.cpp</text>
</a>
</g>
</g>
<!-- Node1&#45;&gt;Node2 -->
<g id="edge1" class="edge"><title>Node1&#45;&gt;Node2</title>
<path fill="none" stroke="midnightblue" d="M319.963,-212.136C270.817,-194.297 201.917,-160.476 170.14,-104 161.64,-88.8937 160.5,-79.4051 170.14,-65 185.682,-41.776 214.322,-29.4366 239.725,-22.8862"/>
<polygon fill="midnightblue" stroke="midnightblue" points="318.917,-215.478 329.512,-215.493 321.238,-208.875 318.917,-215.478"/>
</g>
<!-- Node3 -->
<g id="node3" class="node"><title>Node3</title>
<g id="a_node3"><a xlink:href="$AP__Mount__Backend_8h.html" xlink:title="libraries/AP_Mount\l/AP_Mount_Backend.h">
<polygon fill="white" stroke="black" points="315.995,-145.5 315.995,-173.5 434.285,-173.5 434.285,-145.5 315.995,-145.5"/>
<text text-anchor="start" x="323.995" y="-161.5" font-family="Helvetica,sans-Serif" font-size="10.00">libraries/AP_Mount</text>
<text text-anchor="middle" x="375.14" y="-151.5" font-family="Helvetica,sans-Serif" font-size="10.00">/AP_Mount_Backend.h</text>
</a>
</g>
</g>
<!-- Node1&#45;&gt;Node3 -->
<g id="edge2" class="edge"><title>Node1&#45;&gt;Node3</title>
<path fill="none" stroke="midnightblue" d="M375.14,-205.134C375.14,-194.576 375.14,-182.498 375.14,-173.571"/>
<polygon fill="midnightblue" stroke="midnightblue" points="371.64,-205.389 375.14,-215.389 378.64,-205.389 371.64,-205.389"/>
</g>
<!-- Node6 -->
<g id="node6" class="node"><title>Node6</title>
<g id="a_node6"><a xlink:href="$AP__Mount__Alexmos_8h.html" xlink:title="libraries/AP_Mount\l/AP_Mount_Alexmos.h">
<polygon fill="white" stroke="black" points="5.28076,-70.5 5.28076,-98.5 123,-98.5 123,-70.5 5.28076,-70.5"/>
<text text-anchor="start" x="13.2808" y="-86.5" font-family="Helvetica,sans-Serif" font-size="10.00">libraries/AP_Mount</text>
<text text-anchor="middle" x="64.1401" y="-76.5" font-family="Helvetica,sans-Serif" font-size="10.00">/AP_Mount_Alexmos.h</text>
</a>
</g>
</g>
<!-- Node1&#45;&gt;Node6 -->
<g id="edge17" class="edge"><title>Node1&#45;&gt;Node6</title>
<path fill="none" stroke="midnightblue" d="M314.323,-227.278C263.516,-223.709 190.95,-212.473 137.14,-179 104.964,-158.985 81.3293,-119.439 70.5798,-98.778"/>
<polygon fill="midnightblue" stroke="midnightblue" points="314.303,-230.783 324.501,-227.911 314.738,-223.797 314.303,-230.783"/>
</g>
<!-- Node13 -->
<g id="node13" class="node"><title>Node13</title>
<g id="a_node13"><a xlink:href="$trivial__AP__Mount_8cpp.html" xlink:title="libraries/AP_Mount\l/examples/trivial_AP\l_Mount/trivial_AP_Mount.cpp">
<polygon fill="white" stroke="black" points="2101.83,-140.5 2101.83,-178.5 2248.45,-178.5 2248.45,-140.5 2101.83,-140.5"/>
<text text-anchor="start" x="2109.83" y="-166.5" font-family="Helvetica,sans-Serif" font-size="10.00">libraries/AP_Mount</text>
<text text-anchor="start" x="2109.83" y="-156.5" font-family="Helvetica,sans-Serif" font-size="10.00">/examples/trivial_AP</text>
<text text-anchor="middle" x="2175.14" y="-146.5" font-family="Helvetica,sans-Serif" font-size="10.00">_Mount/trivial_AP_Mount.cpp</text>
</a>
</g>
</g>
<!-- Node1&#45;&gt;Node13 -->
<g id="edge18" class="edge"><title>Node1&#45;&gt;Node13</title>
<path fill="none" stroke="midnightblue" d="M436.01,-228.322C701.874,-227.301 1762.65,-220.645 2093.14,-179 2095.89,-178.653 2098.69,-178.256 2101.5,-177.818"/>
<polygon fill="midnightblue" stroke="midnightblue" points="435.771,-224.822 425.784,-228.36 435.797,-231.822 435.771,-224.822"/>
</g>
<!-- Node14 -->
<g id="node14" class="node"><title>Node14</title>
<g id="a_node14"><a xlink:href="$GCS_8h.html" xlink:title="Interface definition for the various Ground Control System. ">
<polygon fill="white" stroke="black" points="1963.99,-145.5 1963.99,-173.5 2084.29,-173.5 2084.29,-145.5 1963.99,-145.5"/>
<text text-anchor="start" x="1971.99" y="-161.5" font-family="Helvetica,sans-Serif" font-size="10.00">libraries/GCS_MAVLink</text>
<text text-anchor="middle" x="2024.14" y="-151.5" font-family="Helvetica,sans-Serif" font-size="10.00">/GCS.h</text>
</a>
</g>
</g>
<!-- Node1&#45;&gt;Node14 -->
<g id="edge19" class="edge"><title>Node1&#45;&gt;Node14</title>
<path fill="none" stroke="midnightblue" d="M435.713,-226.002C694.431,-215.333 1705.33,-173.647 1963.73,-162.991"/>
<polygon fill="midnightblue" stroke="midnightblue" points="435.239,-222.519 425.392,-226.428 435.528,-229.513 435.239,-222.519"/>
</g>
<!-- Node3&#45;&gt;Node2 -->
<g id="edge3" class="edge"><title>Node3&#45;&gt;Node2</title>
<path fill="none" stroke="midnightblue" d="M361.996,-136.388C344.082,-106.25 312.562,-53.222 297.965,-28.6649"/>
<polygon fill="midnightblue" stroke="midnightblue" points="359.178,-138.495 367.296,-145.303 365.195,-134.919 359.178,-138.495"/>
</g>
<!-- Node4 -->
<g id="node4" class="node"><title>Node4</title>
<g id="a_node4"><a xlink:href="$AP__Mount__Servo_8h.html" xlink:title="libraries/AP_Mount\l/AP_Mount_Servo.h">
<polygon fill="white" stroke="black" points="363.392,-70.5 363.392,-98.5 468.889,-98.5 468.889,-70.5 363.392,-70.5"/>
<text text-anchor="start" x="371.392" y="-86.5" font-family="Helvetica,sans-Serif" font-size="10.00">libraries/AP_Mount</text>
<text text-anchor="middle" x="416.14" y="-76.5" font-family="Helvetica,sans-Serif" font-size="10.00">/AP_Mount_Servo.h</text>
</a>
</g>
</g>
<!-- Node3&#45;&gt;Node4 -->
<g id="edge4" class="edge"><title>Node3&#45;&gt;Node4</title>
<path fill="none" stroke="midnightblue" d="M387.384,-136.7C394.276,-124.429 402.663,-109.496 408.596,-98.9318"/>
<polygon fill="midnightblue" stroke="midnightblue" points="384.315,-135.016 382.47,-145.449 390.419,-138.444 384.315,-135.016"/>
</g>
<!-- Node3&#45;&gt;Node6 -->
<g id="edge7" class="edge"><title>Node3&#45;&gt;Node6</title>
<path fill="none" stroke="midnightblue" d="M309.668,-143.132C253.363,-129.916 173.034,-111.06 119.783,-98.5608"/>
<polygon fill="midnightblue" stroke="midnightblue" points="309.004,-146.571 319.54,-145.449 310.604,-139.756 309.004,-146.571"/>
</g>
<!-- Node8 -->
<g id="node8" class="node"><title>Node8</title>
<g id="a_node8"><a xlink:href="$AP__Mount__SToRM32_8h.html" xlink:title="libraries/AP_Mount\l/AP_Mount_SToRM32.h">
<polygon fill="white" stroke="black" points="657.5,-70.5 657.5,-98.5 780.78,-98.5 780.78,-70.5 657.5,-70.5"/>
<text text-anchor="start" x="665.5" y="-86.5" font-family="Helvetica,sans-Serif" font-size="10.00">libraries/AP_Mount</text>
<text text-anchor="middle" x="719.14" y="-76.5" font-family="Helvetica,sans-Serif" font-size="10.00">/AP_Mount_SToRM32.h</text>
</a>
</g>
</g>
<!-- Node3&#45;&gt;Node8 -->
<g id="edge10" class="edge"><title>Node3&#45;&gt;Node8</title>
<path fill="none" stroke="midnightblue" d="M444.505,-145.8C499.825,-135.396 579.188,-119.852 648.14,-104 655.464,-102.316 663.184,-100.426 670.727,-98.5136"/>
<polygon fill="midnightblue" stroke="midnightblue" points="443.647,-142.4 434.463,-147.682 444.937,-149.28 443.647,-142.4"/>
</g>
<!-- Node10 -->
<g id="node10" class="node"><title>Node10</title>
<g id="a_node10"><a xlink:href="$AP__Mount__SToRM32__serial_8h.html" xlink:title="libraries/AP_Mount\l/AP_Mount_SToRM32_serial.h">
<polygon fill="white" stroke="black" points="486.771,-70.5 486.771,-98.5 639.509,-98.5 639.509,-70.5 486.771,-70.5"/>
<text text-anchor="start" x="494.771" y="-86.5" font-family="Helvetica,sans-Serif" font-size="10.00">libraries/AP_Mount</text>
<text text-anchor="middle" x="563.14" y="-76.5" font-family="Helvetica,sans-Serif" font-size="10.00">/AP_Mount_SToRM32_serial.h</text>
</a>
</g>
</g>
<!-- Node3&#45;&gt;Node10 -->
<g id="edge13" class="edge"><title>Node3&#45;&gt;Node10</title>
<path fill="none" stroke="midnightblue" d="M418.364,-141.716C452.153,-128.596 498.447,-110.62 529.504,-98.5608"/>
<polygon fill="midnightblue" stroke="midnightblue" points="416.806,-138.567 408.751,-145.449 419.34,-145.092 416.806,-138.567"/>
</g>
<!-- Node12 -->
<g id="node12" class="node"><title>Node12</title>
<g id="a_node12"><a xlink:href="$AP__Mount__Backend_8cpp.html" xlink:title="libraries/AP_Mount\l/AP_Mount_Backend.cpp">
<polygon fill="white" stroke="black" points="178.714,-70.5 178.714,-98.5 307.566,-98.5 307.566,-70.5 178.714,-70.5"/>
<text text-anchor="start" x="186.714" y="-86.5" font-family="Helvetica,sans-Serif" font-size="10.00">libraries/AP_Mount</text>
<text text-anchor="middle" x="243.14" y="-76.5" font-family="Helvetica,sans-Serif" font-size="10.00">/AP_Mount_Backend.cpp</text>
</a>
</g>
</g>
<!-- Node3&#45;&gt;Node12 -->
<g id="edge16" class="edge"><title>Node3&#45;&gt;Node12</title>
<path fill="none" stroke="midnightblue" d="M342.659,-140.537C319.232,-127.581 288.136,-110.384 266.98,-98.6841"/>
<polygon fill="midnightblue" stroke="midnightblue" points="341.096,-143.672 351.541,-145.449 344.484,-137.547 341.096,-143.672"/>
</g>
<!-- Node4&#45;&gt;Node2 -->
<g id="edge5" class="edge"><title>Node4&#45;&gt;Node2</title>
<path fill="none" stroke="midnightblue" d="M383.025,-65.6282C361.478,-54 333.862,-39.0958 314.36,-28.5708"/>
<polygon fill="midnightblue" stroke="midnightblue" points="381.384,-68.7196 391.846,-70.3889 384.708,-62.5595 381.384,-68.7196"/>
</g>
<!-- Node5 -->
<g id="node5" class="node"><title>Node5</title>
<g id="a_node5"><a xlink:href="$AP__Mount__Servo_8cpp.html" xlink:title="libraries/AP_Mount\l/AP_Mount_Servo.cpp">
<polygon fill="white" stroke="black" points="358.111,-0.5 358.111,-28.5 474.169,-28.5 474.169,-0.5 358.111,-0.5"/>
<text text-anchor="start" x="366.111" y="-16.5" font-family="Helvetica,sans-Serif" font-size="10.00">libraries/AP_Mount</text>
<text text-anchor="middle" x="416.14" y="-6.5" font-family="Helvetica,sans-Serif" font-size="10.00">/AP_Mount_Servo.cpp</text>
</a>
</g>
</g>
<!-- Node4&#45;&gt;Node5 -->
<g id="edge6" class="edge"><title>Node4&#45;&gt;Node5</title>
<path fill="none" stroke="midnightblue" d="M416.14,-60.1336C416.14,-49.5764 416.14,-37.4982 416.14,-28.5708"/>
<polygon fill="midnightblue" stroke="midnightblue" points="412.64,-60.3889 416.14,-70.3889 419.64,-60.389 412.64,-60.3889"/>
</g>
<!-- Node6&#45;&gt;Node2 -->
<g id="edge8" class="edge"><title>Node6&#45;&gt;Node2</title>
<path fill="none" stroke="midnightblue" d="M117.152,-67.5496C156.554,-55.6941 209.66,-39.7153 246.594,-28.6023"/>
<polygon fill="midnightblue" stroke="midnightblue" points="116.015,-64.2365 107.448,-70.4694 118.032,-70.9396 116.015,-64.2365"/>
</g>
<!-- Node7 -->
<g id="node7" class="node"><title>Node7</title>
<g id="a_node7"><a xlink:href="$AP__Mount__Alexmos_8cpp.html" xlink:title="libraries/AP_Mount\l/AP_Mount_Alexmos.cpp">
<polygon fill="white" stroke="black" points="0,-0.5 0,-28.5 128.28,-28.5 128.28,-0.5 0,-0.5"/>
<text text-anchor="start" x="8" y="-16.5" font-family="Helvetica,sans-Serif" font-size="10.00">libraries/AP_Mount</text>
<text text-anchor="middle" x="64.1401" y="-6.5" font-family="Helvetica,sans-Serif" font-size="10.00">/AP_Mount_Alexmos.cpp</text>
</a>
</g>
</g>
<!-- Node6&#45;&gt;Node7 -->
<g id="edge9" class="edge"><title>Node6&#45;&gt;Node7</title>
<path fill="none" stroke="midnightblue" d="M64.1401,-60.1336C64.1401,-49.5764 64.1401,-37.4982 64.1401,-28.5708"/>
<polygon fill="midnightblue" stroke="midnightblue" points="60.6402,-60.3889 64.1401,-70.3889 67.6402,-60.389 60.6402,-60.3889"/>
</g>
<!-- Node8&#45;&gt;Node2 -->
<g id="edge11" class="edge"><title>Node8&#45;&gt;Node2</title>
<path fill="none" stroke="midnightblue" d="M662.715,-68.0633C657.804,-66.9432 652.896,-65.9016 648.14,-65 516.634,-40.0686 481.005,-51.9591 349.14,-29 346.345,-28.5134 343.483,-27.9792 340.6,-27.4129"/>
<polygon fill="midnightblue" stroke="midnightblue" points="662.211,-71.5412 672.75,-70.4531 663.833,-64.7316 662.211,-71.5412"/>
</g>
<!-- Node9 -->
<g id="node9" class="node"><title>Node9</title>
<g id="a_node9"><a xlink:href="$AP__Mount__SToRM32_8cpp.html" xlink:title="libraries/AP_Mount\l/AP_Mount_SToRM32.cpp">
<polygon fill="white" stroke="black" points="674.219,-0.5 674.219,-28.5 808.061,-28.5 808.061,-0.5 674.219,-0.5"/>
<text text-anchor="start" x="682.219" y="-16.5" font-family="Helvetica,sans-Serif" font-size="10.00">libraries/AP_Mount</text>
<text text-anchor="middle" x="741.14" y="-6.5" font-family="Helvetica,sans-Serif" font-size="10.00">/AP_Mount_SToRM32.cpp</text>
</a>
</g>
</g>
<!-- Node8&#45;&gt;Node9 -->
<g id="edge12" class="edge"><title>Node8&#45;&gt;Node9</title>
<path fill="none" stroke="midnightblue" d="M726.485,-60.7983C729.95,-50.0863 733.962,-37.6862 736.911,-28.5708"/>
<polygon fill="midnightblue" stroke="midnightblue" points="723.13,-59.7971 723.382,-70.3889 729.79,-61.9519 723.13,-59.7971"/>
</g>
<!-- Node10&#45;&gt;Node2 -->
<g id="edge14" class="edge"><title>Node10&#45;&gt;Node2</title>
<path fill="none" stroke="midnightblue" d="M501.052,-68.0348C452.451,-55.929 385.724,-39.3085 340.433,-28.0272"/>
<polygon fill="midnightblue" stroke="midnightblue" points="500.277,-71.4485 510.826,-70.4694 501.968,-64.6561 500.277,-71.4485"/>
</g>
<!-- Node11 -->
<g id="node11" class="node"><title>Node11</title>
<g id="a_node11"><a xlink:href="$AP__Mount__SToRM32__serial_8cpp.html" xlink:title="libraries/AP_Mount\l/AP_Mount_SToRM32_serial.cpp">
<polygon fill="white" stroke="black" points="492.49,-0.5 492.49,-28.5 655.79,-28.5 655.79,-0.5 492.49,-0.5"/>
<text text-anchor="start" x="500.49" y="-16.5" font-family="Helvetica,sans-Serif" font-size="10.00">libraries/AP_Mount</text>
<text text-anchor="middle" x="574.14" y="-6.5" font-family="Helvetica,sans-Serif" font-size="10.00">/AP_Mount_SToRM32_serial.cpp</text>
</a>
</g>
</g>
<!-- Node10&#45;&gt;Node11 -->
<g id="edge15" class="edge"><title>Node10&#45;&gt;Node11</title>
<path fill="none" stroke="midnightblue" d="M566.866,-60.4664C568.587,-49.831 570.566,-37.5922 572.026,-28.5708"/>
<polygon fill="midnightblue" stroke="midnightblue" points="563.403,-59.9583 565.261,-70.3889 570.313,-61.0762 563.403,-59.9583"/>
</g>
<!-- Node14&#45;&gt;Node8 -->
<g id="edge27" class="edge"><title>Node14&#45;&gt;Node8</title>
<path fill="none" stroke="midnightblue" d="M1953.59,-157.338C1726.64,-153.294 1017,-138.174 790.14,-104 781.323,-102.672 772.019,-100.687 763.154,-98.5034"/>
<polygon fill="midnightblue" stroke="midnightblue" points="1953.65,-160.84 1963.71,-157.517 1953.78,-153.841 1953.65,-160.84"/>
</g>
<!-- Node15 -->
<g id="node15" class="node"><title>Node15</title>
<g id="a_node15"><a xlink:href="$AP__AHRS__NavEKF_8cpp.html" xlink:title="libraries/AP_AHRS/AP\l_AHRS_NavEKF.cpp">
<polygon fill="white" stroke="black" points="798.845,-70.5 798.845,-98.5 915.436,-98.5 915.436,-70.5 798.845,-70.5"/>
<text text-anchor="start" x="806.845" y="-86.5" font-family="Helvetica,sans-Serif" font-size="10.00">libraries/AP_AHRS/AP</text>
<text text-anchor="middle" x="857.14" y="-76.5" font-family="Helvetica,sans-Serif" font-size="10.00">_AHRS_NavEKF.cpp</text>
</a>
</g>
</g>
<!-- Node14&#45;&gt;Node15 -->
<g id="edge20" class="edge"><title>Node14&#45;&gt;Node15</title>
<path fill="none" stroke="midnightblue" d="M1953.51,-157.03C1743.23,-152.332 1123.59,-136.076 924.14,-104 915.919,-102.678 907.263,-100.725 899.002,-98.5763"/>
<polygon fill="midnightblue" stroke="midnightblue" points="1953.73,-160.535 1963.8,-157.258 1953.88,-153.537 1953.73,-160.535"/>
</g>
<!-- Node16 -->
<g id="node16" class="node"><title>Node16</title>
<g id="a_node16"><a xlink:href="$AP__Arming_8cpp.html" xlink:title="libraries/AP_Arming\l/AP_Arming.cpp">
<polygon fill="white" stroke="black" points="932.958,-70.5 932.958,-98.5 1037.32,-98.5 1037.32,-70.5 932.958,-70.5"/>
<text text-anchor="start" x="940.958" y="-86.5" font-family="Helvetica,sans-Serif" font-size="10.00">libraries/AP_Arming</text>
<text text-anchor="middle" x="985.14" y="-76.5" font-family="Helvetica,sans-Serif" font-size="10.00">/AP_Arming.cpp</text>
</a>
</g>
</g>
<!-- Node14&#45;&gt;Node16 -->
<g id="edge21" class="edge"><title>Node14&#45;&gt;Node16</title>
<path fill="none" stroke="midnightblue" d="M1953.71,-156.758C1759.76,-151.613 1220.73,-134.881 1046.14,-104 1038.62,-102.67 1030.72,-100.713 1023.2,-98.5636"/>
<polygon fill="midnightblue" stroke="midnightblue" points="1953.69,-160.259 1963.78,-157.023 1953.88,-153.261 1953.69,-160.259"/>
</g>
<!-- Node17 -->
<g id="node17" class="node"><title>Node17</title>
<g id="a_node17"><a xlink:href="$AP__Camera_8h.html" xlink:title="Photo or video camera manager, with EEPROM&#45;backed storage of constants. ">
<polygon fill="white" stroke="black" points="1055.01,-70.5 1055.01,-98.5 1163.27,-98.5 1163.27,-70.5 1055.01,-70.5"/>
<text text-anchor="start" x="1063.01" y="-86.5" font-family="Helvetica,sans-Serif" font-size="10.00">libraries/AP_Camera</text>
<text text-anchor="middle" x="1109.14" y="-76.5" font-family="Helvetica,sans-Serif" font-size="10.00">/AP_Camera.h</text>
</a>
</g>
</g>
<!-- Node14&#45;&gt;Node17 -->
<g id="edge22" class="edge"><title>Node14&#45;&gt;Node17</title>
<path fill="none" stroke="midnightblue" d="M1953.74,-159.243C1807.13,-159.644 1458.82,-154.615 1172.14,-104 1164.39,-102.632 1156.25,-100.658 1148.48,-98.5035"/>
<polygon fill="midnightblue" stroke="midnightblue" points="1953.96,-162.742 1963.95,-159.205 1953.93,-155.743 1953.96,-162.742"/>
</g>
<!-- Node19 -->
<g id="node19" class="node"><title>Node19</title>
<g id="a_node19"><a xlink:href="$AP__Compass__Calibration_8cpp.html" xlink:title="libraries/AP_Compass\l/AP_Compass_Calibration.cpp">
<polygon fill="white" stroke="black" points="1181.05,-70.5 1181.05,-98.5 1333.23,-98.5 1333.23,-70.5 1181.05,-70.5"/>
<text text-anchor="start" x="1189.05" y="-86.5" font-family="Helvetica,sans-Serif" font-size="10.00">libraries/AP_Compass</text>
<text text-anchor="middle" x="1257.14" y="-76.5" font-family="Helvetica,sans-Serif" font-size="10.00">/AP_Compass_Calibration.cpp</text>
</a>
</g>
</g>
<!-- Node14&#45;&gt;Node19 -->
<g id="edge24" class="edge"><title>Node14&#45;&gt;Node19</title>
<path fill="none" stroke="midnightblue" d="M1953.48,-155.988C1829.25,-150.875 1563.85,-136.834 1342.14,-104 1332.28,-102.54 1321.85,-100.603 1311.81,-98.5321"/>
<polygon fill="midnightblue" stroke="midnightblue" points="1953.49,-159.491 1963.62,-156.398 1953.77,-152.497 1953.49,-159.491"/>
</g>
<!-- Node20 -->
<g id="node20" class="node"><title>Node20</title>
<g id="a_node20"><a xlink:href="$AP__InertialSensor__UserInteract__MAVLink_8cpp.html" xlink:title="libraries/AP_InertialSensor\l/AP_InertialSensor_UserInteract\l_MAVLink.cpp">
<polygon fill="white" stroke="black" points="1351.44,-65.5 1351.44,-103.5 1510.84,-103.5 1510.84,-65.5 1351.44,-65.5"/>
<text text-anchor="start" x="1359.44" y="-91.5" font-family="Helvetica,sans-Serif" font-size="10.00">libraries/AP_InertialSensor</text>
<text text-anchor="start" x="1359.44" y="-81.5" font-family="Helvetica,sans-Serif" font-size="10.00">/AP_InertialSensor_UserInteract</text>
<text text-anchor="middle" x="1431.14" y="-71.5" font-family="Helvetica,sans-Serif" font-size="10.00">_MAVLink.cpp</text>
</a>
</g>
</g>
<!-- Node14&#45;&gt;Node20 -->
<g id="edge25" class="edge"><title>Node14&#45;&gt;Node20</title>
<path fill="none" stroke="midnightblue" d="M1953.71,-153.06C1856.02,-145.02 1674.01,-128.252 1520.14,-104 1517.18,-103.533 1514.17,-103.034 1511.13,-102.509"/>
<polygon fill="midnightblue" stroke="midnightblue" points="1953.51,-156.556 1963.76,-153.881 1954.08,-149.579 1953.51,-156.556"/>
</g>
<!-- Node21 -->
<g id="node21" class="node"><title>Node21</title>
<g id="a_node21"><a xlink:href="$AP__MotorsHeli_8cpp.html" xlink:title="libraries/AP_Motors\l/AP_MotorsHeli.cpp">
<polygon fill="white" stroke="black" points="1528.96,-70.5 1528.96,-98.5 1633.32,-98.5 1633.32,-70.5 1528.96,-70.5"/>
<text text-anchor="start" x="1536.96" y="-86.5" font-family="Helvetica,sans-Serif" font-size="10.00">libraries/AP_Motors</text>
<text text-anchor="middle" x="1581.14" y="-76.5" font-family="Helvetica,sans-Serif" font-size="10.00">/AP_MotorsHeli.cpp</text>
</a>
</g>
</g>
<!-- Node14&#45;&gt;Node21 -->
<g id="edge26" class="edge"><title>Node14&#45;&gt;Node21</title>
<path fill="none" stroke="midnightblue" d="M1953.67,-151.708C1876.58,-143.523 1749.65,-127.824 1642.14,-104 1635.23,-102.468 1627.96,-100.545 1620.94,-98.5234"/>
<polygon fill="midnightblue" stroke="midnightblue" points="1953.44,-155.203 1963.75,-152.766 1954.17,-148.241 1953.44,-155.203"/>
</g>
<!-- Node22 -->
<g id="node22" class="node"><title>Node22</title>
<g id="a_node22"><a xlink:href="$AP__NavEKF_8cpp.html" xlink:title="libraries/AP_NavEKF\l/AP_NavEKF.cpp">
<polygon fill="white" stroke="black" points="1651.18,-70.5 1651.18,-98.5 1761.1,-98.5 1761.1,-70.5 1651.18,-70.5"/>
<text text-anchor="start" x="1659.18" y="-86.5" font-family="Helvetica,sans-Serif" font-size="10.00">libraries/AP_NavEKF</text>
<text text-anchor="middle" x="1706.14" y="-76.5" font-family="Helvetica,sans-Serif" font-size="10.00">/AP_NavEKF.cpp</text>
</a>
</g>
</g>
<!-- Node14&#45;&gt;Node22 -->
<g id="edge28" class="edge"><title>Node14&#45;&gt;Node22</title>
<path fill="none" stroke="midnightblue" d="M1953.86,-144.797C1902.7,-134.487 1831.85,-119.52 1770.14,-104 1763.52,-102.336 1756.56,-100.456 1749.75,-98.5483"/>
<polygon fill="midnightblue" stroke="midnightblue" points="1953.33,-148.26 1963.82,-146.796 1954.7,-141.397 1953.33,-148.26"/>
</g>
<!-- Node23 -->
<g id="node23" class="node"><title>Node23</title>
<g id="a_node23"><a xlink:href="$AP__NavEKF2_8cpp.html" xlink:title="libraries/AP_NavEKF2\l/AP_NavEKF2.cpp">
<polygon fill="white" stroke="black" points="1779.4,-70.5 1779.4,-98.5 1894.88,-98.5 1894.88,-70.5 1779.4,-70.5"/>
<text text-anchor="start" x="1787.4" y="-86.5" font-family="Helvetica,sans-Serif" font-size="10.00">libraries/AP_NavEKF2</text>
<text text-anchor="middle" x="1837.14" y="-76.5" font-family="Helvetica,sans-Serif" font-size="10.00">/AP_NavEKF2.cpp</text>
</a>
</g>
</g>
<!-- Node14&#45;&gt;Node23 -->
<g id="edge29" class="edge"><title>Node14&#45;&gt;Node23</title>
<path fill="none" stroke="midnightblue" d="M1981.15,-141.716C1947.54,-128.596 1901.49,-110.62 1870.6,-98.5608"/>
<polygon fill="midnightblue" stroke="midnightblue" points="1980.12,-145.073 1990.71,-145.449 1982.67,-138.552 1980.12,-145.073"/>
</g>
<!-- Node24 -->
<g id="node24" class="node"><title>Node24</title>
<g id="a_node24"><a xlink:href="$AP__Param_8cpp.html" xlink:title="The AP variable store. ">
<polygon fill="white" stroke="black" points="1913.07,-70.5 1913.07,-98.5 2015.21,-98.5 2015.21,-70.5 1913.07,-70.5"/>
<text text-anchor="start" x="1921.07" y="-86.5" font-family="Helvetica,sans-Serif" font-size="10.00">libraries/AP_Param</text>
<text text-anchor="middle" x="1964.14" y="-76.5" font-family="Helvetica,sans-Serif" font-size="10.00">/AP_Param.cpp</text>
</a>
</g>
</g>
<!-- Node14&#45;&gt;Node24 -->
<g id="edge30" class="edge"><title>Node14&#45;&gt;Node24</title>
<path fill="none" stroke="midnightblue" d="M2006.81,-137.419C1996.62,-125.016 1984.03,-109.703 1975.18,-98.9318"/>
<polygon fill="midnightblue" stroke="midnightblue" points="2004.36,-139.946 2013.41,-145.449 2009.77,-135.501 2004.36,-139.946"/>
</g>
<!-- Node25 -->
<g id="node25" class="node"><title>Node25</title>
<g id="a_node25"><a xlink:href="$AP__Terrain_8cpp.html" xlink:title="libraries/AP_Terrain\l/AP_Terrain.cpp">
<polygon fill="white" stroke="black" points="2033.51,-70.5 2033.51,-98.5 2136.77,-98.5 2136.77,-70.5 2033.51,-70.5"/>
<text text-anchor="start" x="2041.51" y="-86.5" font-family="Helvetica,sans-Serif" font-size="10.00">libraries/AP_Terrain</text>
<text text-anchor="middle" x="2085.14" y="-76.5" font-family="Helvetica,sans-Serif" font-size="10.00">/AP_Terrain.cpp</text>
</a>
</g>
</g>
<!-- Node14&#45;&gt;Node25 -->
<g id="edge31" class="edge"><title>Node14&#45;&gt;Node25</title>
<path fill="none" stroke="midnightblue" d="M2041.76,-137.419C2052.12,-125.016 2064.92,-109.703 2073.92,-98.9318"/>
<polygon fill="midnightblue" stroke="midnightblue" points="2038.77,-135.531 2035.05,-145.449 2044.14,-140.02 2038.77,-135.531"/>
</g>
<!-- Node26 -->
<g id="node26" class="node"><title>Node26</title>
<g id="a_node26"><a xlink:href="$TerrainGCS_8cpp.html" xlink:title="libraries/AP_Terrain\l/TerrainGCS.cpp">
<polygon fill="white" stroke="black" points="2154.51,-70.5 2154.51,-98.5 2257.77,-98.5 2257.77,-70.5 2154.51,-70.5"/>
<text text-anchor="start" x="2162.51" y="-86.5" font-family="Helvetica,sans-Serif" font-size="10.00">libraries/AP_Terrain</text>
<text text-anchor="middle" x="2206.14" y="-76.5" font-family="Helvetica,sans-Serif" font-size="10.00">/TerrainGCS.cpp</text>
</a>
</g>
</g>
<!-- Node14&#45;&gt;Node26 -->
<g id="edge32" class="edge"><title>Node14&#45;&gt;Node26</title>
<path fill="none" stroke="midnightblue" d="M2065.98,-141.716C2098.69,-128.596 2143.51,-110.62 2173.58,-98.5608"/>
<polygon fill="midnightblue" stroke="midnightblue" points="2064.66,-138.478 2056.68,-145.449 2067.26,-144.975 2064.66,-138.478"/>
</g>
<!-- Node27 -->
<g id="node27" class="node"><title>Node27</title>
<g id="a_node27"><a xlink:href="$TerrainIO_8cpp.html" xlink:title="libraries/AP_Terrain\l/TerrainIO.cpp">
<polygon fill="white" stroke="black" points="2275.51,-70.5 2275.51,-98.5 2378.77,-98.5 2378.77,-70.5 2275.51,-70.5"/>
<text text-anchor="start" x="2283.51" y="-86.5" font-family="Helvetica,sans-Serif" font-size="10.00">libraries/AP_Terrain</text>
<text text-anchor="middle" x="2327.14" y="-76.5" font-family="Helvetica,sans-Serif" font-size="10.00">/TerrainIO.cpp</text>
</a>
</g>
</g>
<!-- Node14&#45;&gt;Node27 -->
<g id="edge33" class="edge"><title>Node14&#45;&gt;Node27</title>
<path fill="none" stroke="midnightblue" d="M2081.21,-142.925C2085.24,-141.909 2089.25,-140.924 2093.14,-140 2169.98,-121.767 2190.65,-123.656 2267.14,-104 2273.47,-102.372 2280.14,-100.491 2286.62,-98.5649"/>
<polygon fill="midnightblue" stroke="midnightblue" points="2080,-139.62 2071.19,-145.496 2081.74,-146.4 2080,-139.62"/>
</g>
<!-- Node28 -->
<g id="node28" class="node"><title>Node28</title>
<g id="a_node28"><a xlink:href="$TerrainMission_8cpp.html" xlink:title="libraries/AP_Terrain\l/TerrainMission.cpp">
<polygon fill="white" stroke="black" points="2396.51,-70.5 2396.51,-98.5 2499.77,-98.5 2499.77,-70.5 2396.51,-70.5"/>
<text text-anchor="start" x="2404.51" y="-86.5" font-family="Helvetica,sans-Serif" font-size="10.00">libraries/AP_Terrain</text>
<text text-anchor="middle" x="2448.14" y="-76.5" font-family="Helvetica,sans-Serif" font-size="10.00">/TerrainMission.cpp</text>
</a>
</g>
</g>
<!-- Node14&#45;&gt;Node28 -->
<g id="edge34" class="edge"><title>Node14&#45;&gt;Node28</title>
<path fill="none" stroke="midnightblue" d="M2078.97,-143.055C2083.74,-141.937 2088.51,-140.898 2093.14,-140 2222.8,-114.835 2258.97,-131.568 2388.14,-104 2395.07,-102.521 2402.35,-100.601 2409.35,-98.5581"/>
<polygon fill="midnightblue" stroke="midnightblue" points="2078.09,-139.666 2069.21,-145.443 2079.76,-146.465 2078.09,-139.666"/>
</g>
<!-- Node29 -->
<g id="node29" class="node"><title>Node29</title>
<g id="a_node29"><a xlink:href="$TerrainUtil_8cpp.html" xlink:title="libraries/AP_Terrain\l/TerrainUtil.cpp">
<polygon fill="white" stroke="black" points="2517.51,-70.5 2517.51,-98.5 2620.77,-98.5 2620.77,-70.5 2517.51,-70.5"/>
<text text-anchor="start" x="2525.51" y="-86.5" font-family="Helvetica,sans-Serif" font-size="10.00">libraries/AP_Terrain</text>
<text text-anchor="middle" x="2569.14" y="-76.5" font-family="Helvetica,sans-Serif" font-size="10.00">/TerrainUtil.cpp</text>
</a>
</g>
</g>
<!-- Node14&#45;&gt;Node29 -->
<g id="edge35" class="edge"><title>Node14&#45;&gt;Node29</title>
<path fill="none" stroke="midnightblue" d="M2077.87,-143.121C2083,-141.945 2088.15,-140.877 2093.14,-140 2275.91,-107.846 2327,-139.541 2509.14,-104 2516.31,-102.601 2523.83,-100.668 2531.04,-98.5746"/>
<polygon fill="midnightblue" stroke="midnightblue" points="2076.95,-139.741 2068.05,-145.492 2078.6,-146.545 2076.95,-139.741"/>
</g>
<!-- Node30 -->
<g id="node30" class="node"><title>Node30</title>
<g id="a_node30"><a xlink:href="$APM__OBC_8cpp.html" xlink:title="libraries/APM_OBC/APM\l_OBC.cpp">
<polygon fill="white" stroke="black" points="2638.57,-70.5 2638.57,-98.5 2765.71,-98.5 2765.71,-70.5 2638.57,-70.5"/>
<text text-anchor="start" x="2646.57" y="-86.5" font-family="Helvetica,sans-Serif" font-size="10.00">libraries/APM_OBC/APM</text>
<text text-anchor="middle" x="2702.14" y="-76.5" font-family="Helvetica,sans-Serif" font-size="10.00">_OBC.cpp</text>
</a>
</g>
</g>
<!-- Node14&#45;&gt;Node30 -->
<g id="edge36" class="edge"><title>Node14&#45;&gt;Node30</title>
<path fill="none" stroke="midnightblue" d="M2077.62,-143.07C2082.83,-141.895 2088.07,-140.841 2093.14,-140 2329.12,-100.841 2393.96,-141.925 2630.14,-104 2638.81,-102.609 2647.95,-100.651 2656.7,-98.5263"/>
<polygon fill="midnightblue" stroke="midnightblue" points="2076.57,-139.722 2067.66,-145.456 2078.2,-146.529 2076.57,-139.722"/>
</g>
<!-- Node31 -->
<g id="node31" class="node"><title>Node31</title>
<g id="a_node31"><a xlink:href="$routing_8cpp.html" xlink:title="libraries/GCS_MAVLink\l/examples/routing/routing.cpp">
<polygon fill="white" stroke="black" points="2783.55,-70.5 2783.55,-98.5 2930.73,-98.5 2930.73,-70.5 2783.55,-70.5"/>
<text text-anchor="start" x="2791.55" y="-86.5" font-family="Helvetica,sans-Serif" font-size="10.00">libraries/GCS_MAVLink</text>
<text text-anchor="middle" x="2857.14" y="-76.5" font-family="Helvetica,sans-Serif" font-size="10.00">/examples/routing/routing.cpp</text>
</a>
</g>
</g>
<!-- Node14&#45;&gt;Node31 -->
<g id="edge37" class="edge"><title>Node14&#45;&gt;Node31</title>
<path fill="none" stroke="midnightblue" d="M2077.38,-143.046C2082.67,-141.865 2087.99,-140.817 2093.14,-140 2392.92,-92.4371 2474.46,-145.549 2775.14,-104 2784.97,-102.642 2795.36,-100.7 2805.33,-98.5797"/>
<polygon fill="midnightblue" stroke="midnightblue" points="2076.19,-139.73 2067.27,-145.454 2077.81,-146.539 2076.19,-139.73"/>
</g>
<!-- Node32 -->
<g id="node32" class="node"><title>Node32</title>
<g id="a_node32"><a xlink:href="$GCS__Common_8cpp.html" xlink:title="libraries/GCS_MAVLink\l/GCS_Common.cpp">
<polygon fill="white" stroke="black" points="2948.99,-70.5 2948.99,-98.5 3069.29,-98.5 3069.29,-70.5 2948.99,-70.5"/>
<text text-anchor="start" x="2956.99" y="-86.5" font-family="Helvetica,sans-Serif" font-size="10.00">libraries/GCS_MAVLink</text>
<text text-anchor="middle" x="3009.14" y="-76.5" font-family="Helvetica,sans-Serif" font-size="10.00">/GCS_Common.cpp</text>
</a>
</g>
</g>
<!-- Node14&#45;&gt;Node32 -->
<g id="edge38" class="edge"><title>Node14&#45;&gt;Node32</title>
<path fill="none" stroke="midnightblue" d="M2076.72,-143.133C2082.23,-141.905 2087.78,-140.823 2093.14,-140 2465.57,-82.8686 2567.71,-161.131 2940.14,-104 2948.72,-102.684 2957.77,-100.704 2966.39,-98.5221"/>
<polygon fill="midnightblue" stroke="midnightblue" points="2075.81,-139.753 2066.89,-145.478 2077.43,-146.562 2075.81,-139.753"/>
</g>
<!-- Node33 -->
<g id="node33" class="node"><title>Node33</title>
<g id="a_node33"><a xlink:href="$GCS__Logs_8cpp.html" xlink:title="libraries/GCS_MAVLink\l/GCS_Logs.cpp">
<polygon fill="white" stroke="black" points="3086.99,-70.5 3086.99,-98.5 3207.29,-98.5 3207.29,-70.5 3086.99,-70.5"/>
<text text-anchor="start" x="3094.99" y="-86.5" font-family="Helvetica,sans-Serif" font-size="10.00">libraries/GCS_MAVLink</text>
<text text-anchor="middle" x="3147.14" y="-76.5" font-family="Helvetica,sans-Serif" font-size="10.00">/GCS_Logs.cpp</text>
</a>
</g>
</g>
<!-- Node14&#45;&gt;Node33 -->
<g id="edge39" class="edge"><title>Node14&#45;&gt;Node33</title>
<path fill="none" stroke="midnightblue" d="M2076.72,-143.1C2082.23,-141.878 2087.77,-140.807 2093.14,-140 2526.34,-74.8633 2644.94,-169.137 3078.14,-104 3086.73,-102.709 3095.77,-100.741 3104.39,-98.5625"/>
<polygon fill="midnightblue" stroke="midnightblue" points="2075.81,-139.719 2066.89,-145.438 2077.43,-146.529 2075.81,-139.719"/>
</g>
<!-- Node34 -->
<g id="node34" class="node"><title>Node34</title>
<g id="a_node34"><a xlink:href="$GCS__MAVLink_8cpp.html" xlink:title="libraries/GCS_MAVLink\l/GCS_MAVLink.cpp">
<polygon fill="white" stroke="black" points="3224.99,-70.5 3224.99,-98.5 3345.29,-98.5 3345.29,-70.5 3224.99,-70.5"/>
<text text-anchor="start" x="3232.99" y="-86.5" font-family="Helvetica,sans-Serif" font-size="10.00">libraries/GCS_MAVLink</text>
<text text-anchor="middle" x="3285.14" y="-76.5" font-family="Helvetica,sans-Serif" font-size="10.00">/GCS_MAVLink.cpp</text>
</a>
</g>
</g>
<!-- Node14&#45;&gt;Node34 -->
<g id="edge40" class="edge"><title>Node14&#45;&gt;Node34</title>
<path fill="none" stroke="midnightblue" d="M2076.71,-143.075C2082.22,-141.858 2087.77,-140.795 2093.14,-140 2587.12,-66.8568 2722.16,-177.143 3216.14,-104 3224.73,-102.728 3233.78,-100.769 3242.4,-98.593"/>
<polygon fill="midnightblue" stroke="midnightblue" points="2075.81,-139.693 2066.88,-145.407 2077.42,-146.504 2075.81,-139.693"/>
</g>
<!-- Node35 -->
<g id="node35" class="node"><title>Node35</title>
<g id="a_node35"><a xlink:href="$GCS__serial__control_8cpp.html" xlink:title="libraries/GCS_MAVLink\l/GCS_serial_control.cpp">
<polygon fill="white" stroke="black" points="3362.95,-70.5 3362.95,-98.5 3487.33,-98.5 3487.33,-70.5 3362.95,-70.5"/>
<text text-anchor="start" x="3370.95" y="-86.5" font-family="Helvetica,sans-Serif" font-size="10.00">libraries/GCS_MAVLink</text>
<text text-anchor="middle" x="3425.14" y="-76.5" font-family="Helvetica,sans-Serif" font-size="10.00">/GCS_serial_control.cpp</text>
</a>
</g>
</g>
<!-- Node14&#45;&gt;Node35 -->
<g id="edge41" class="edge"><title>Node14&#45;&gt;Node35</title>
<path fill="none" stroke="midnightblue" d="M2076.48,-143.108C2082.06,-141.873 2087.69,-140.797 2093.14,-140 2647.91,-58.8494 2799.09,-183.192 3354.14,-104 3363.09,-102.723 3372.54,-100.731 3381.52,-98.519"/>
<polygon fill="midnightblue" stroke="midnightblue" points="2075.43,-139.759 2066.51,-145.476 2077.05,-146.569 2075.43,-139.759"/>
</g>
<!-- Node36 -->
<g id="node36" class="node"><title>Node36</title>
<g id="a_node36"><a xlink:href="$MAVLink__routing_8cpp.html" xlink:title="libraries/GCS_MAVLink\l/MAVLink_routing.cpp">
<polygon fill="white" stroke="black" points="3504.99,-70.5 3504.99,-98.5 3625.29,-98.5 3625.29,-70.5 3504.99,-70.5"/>
<text text-anchor="start" x="3512.99" y="-86.5" font-family="Helvetica,sans-Serif" font-size="10.00">libraries/GCS_MAVLink</text>
<text text-anchor="middle" x="3565.14" y="-76.5" font-family="Helvetica,sans-Serif" font-size="10.00">/MAVLink_routing.cpp</text>
</a>
</g>
</g>
<!-- Node14&#45;&gt;Node36 -->
<g id="edge42" class="edge"><title>Node14&#45;&gt;Node36</title>
<path fill="none" stroke="midnightblue" d="M2076.47,-143.092C2082.06,-141.86 2087.69,-140.789 2093.14,-140 2710.46,-50.6093 2878.82,-193.391 3496.14,-104 3504.85,-102.738 3514.04,-100.753 3522.77,-98.5432"/>
<polygon fill="midnightblue" stroke="midnightblue" points="2075.43,-139.742 2066.51,-145.457 2077.05,-146.553 2075.43,-139.742"/>
</g>
<!-- Node18 -->
<g id="node18" class="node"><title>Node18</title>
<g id="a_node18"><a xlink:href="$AP__Camera_8cpp.html" xlink:title="libraries/AP_Camera\l/AP_Camera.cpp">
<polygon fill="white" stroke="black" points="1055.01,-0.5 1055.01,-28.5 1163.27,-28.5 1163.27,-0.5 1055.01,-0.5"/>
<text text-anchor="start" x="1063.01" y="-16.5" font-family="Helvetica,sans-Serif" font-size="10.00">libraries/AP_Camera</text>
<text text-anchor="middle" x="1109.14" y="-6.5" font-family="Helvetica,sans-Serif" font-size="10.00">/AP_Camera.cpp</text>
</a>
</g>
</g>
<!-- Node17&#45;&gt;Node18 -->
<g id="edge23" class="edge"><title>Node17&#45;&gt;Node18</title>
<path fill="none" stroke="midnightblue" d="M1109.14,-60.1336C1109.14,-49.5764 1109.14,-37.4982 1109.14,-28.5708"/>
<polygon fill="midnightblue" stroke="midnightblue" points="1105.64,-60.3889 1109.14,-70.3889 1112.64,-60.389 1105.64,-60.3889"/>
</g>
</g>
</svg>
