<?xml version="1.0" encoding="UTF-8" standalone="no"?>
<!DOCTYPE svg PUBLIC "-//W3C//DTD SVG 1.1//EN"
 "http://www.w3.org/Graphics/SVG/1.1/DTD/svg11.dtd">
<!-- Generated by graphviz version 2.38.0 (20140413.2041)
 -->
<!-- Title: location_passed_point Pages: 1 -->
<svg width="629pt" height="64pt"
 viewBox="0.00 0.00 629.33 64.00" xmlns="http://www.w3.org/2000/svg" xmlns:xlink="http://www.w3.org/1999/xlink">
<g id="graph0" class="graph" transform="scale(1 1) rotate(0) translate(4 60)">
<title>location_passed_point</title>
<polygon fill="white" stroke="none" points="-4,4 -4,-60 625.334,-60 625.334,4 -4,4"/>
<!-- Node1 -->
<g id="node1" class="node"><title>Node1</title>
<polygon fill="#bfbfbf" stroke="black" points="0,-18.5 0,-36.5 115.521,-36.5 115.521,-18.5 0,-18.5"/>
<text text-anchor="middle" x="57.7607" y="-24.5" font-family="Helvetica,sans-Serif" font-size="10.00">location_passed_point</text>
</g>
<!-- Node2 -->
<g id="node2" class="node"><title>Node2</title>
<g id="a_node2"><a xlink:href="$location_8cpp.html#ab0ccbafe7e2809759eea8d45d23e4ba0" xlink:title="location_path_proportion">
<polygon fill="white" stroke="black" points="151.521,-18.5 151.521,-36.5 277.604,-36.5 277.604,-18.5 151.521,-18.5"/>
<text text-anchor="middle" x="214.563" y="-24.5" font-family="Helvetica,sans-Serif" font-size="10.00">location_path_proportion</text>
</a>
</g>
</g>
<!-- Node1&#45;&gt;Node2 -->
<g id="edge1" class="edge"><title>Node1&#45;&gt;Node2</title>
<path fill="none" stroke="midnightblue" d="M115.524,-27.5C123.897,-27.5 132.618,-27.5 141.253,-27.5"/>
<polygon fill="midnightblue" stroke="midnightblue" points="141.326,-31.0001 151.326,-27.5 141.326,-24.0001 141.326,-31.0001"/>
</g>
<!-- Node3 -->
<g id="node3" class="node"><title>Node3</title>
<g id="a_node3"><a xlink:href="$location_8cpp.html#a527b26472ed6f2e0c141e109a0722a0a" xlink:title="location_diff">
<polygon fill="white" stroke="black" points="313.604,-37.5 313.604,-55.5 382.798,-55.5 382.798,-37.5 313.604,-37.5"/>
<text text-anchor="middle" x="348.201" y="-43.5" font-family="Helvetica,sans-Serif" font-size="10.00">location_diff</text>
</a>
</g>
</g>
<!-- Node2&#45;&gt;Node3 -->
<g id="edge2" class="edge"><title>Node2&#45;&gt;Node3</title>
<path fill="none" stroke="midnightblue" d="M277.913,-36.4992C286.51,-37.7401 295.187,-38.9925 303.354,-40.1713"/>
<polygon fill="midnightblue" stroke="midnightblue" points="302.984,-43.6541 313.381,-41.6186 303.984,-36.7259 302.984,-43.6541"/>
</g>
<!-- Node6 -->
<g id="node6" class="node"><title>Node6</title>
<g id="a_node6"><a xlink:href="$AP__Math_8h.html#a00f57739f8671cb41eae08a51b7cbf7c" xlink:title="sq">
<polygon fill="white" stroke="black" points="333.701,-0.5 333.701,-18.5 362.701,-18.5 362.701,-0.5 333.701,-0.5"/>
<text text-anchor="middle" x="348.201" y="-6.5" font-family="Helvetica,sans-Serif" font-size="10.00">sq</text>
</a>
</g>
</g>
<!-- Node2&#45;&gt;Node6 -->
<g id="edge5" class="edge"><title>Node2&#45;&gt;Node6</title>
<path fill="none" stroke="midnightblue" d="M277.913,-18.9744C294.052,-16.7676 310.469,-14.5226 323.27,-12.7722"/>
<polygon fill="midnightblue" stroke="midnightblue" points="324.057,-16.1973 333.491,-11.3747 323.109,-9.26185 324.057,-16.1973"/>
</g>
<!-- Node4 -->
<g id="node4" class="node"><title>Node4</title>
<g id="a_node4"><a xlink:href="$location_8cpp.html#ad2368c582f3e0c135e2a74772f4db61a" xlink:title="longitude_scale">
<polygon fill="white" stroke="black" points="418.798,-37.5 418.798,-55.5 504.295,-55.5 504.295,-37.5 418.798,-37.5"/>
<text text-anchor="middle" x="461.546" y="-43.5" font-family="Helvetica,sans-Serif" font-size="10.00">longitude_scale</text>
</a>
</g>
</g>
<!-- Node3&#45;&gt;Node4 -->
<g id="edge3" class="edge"><title>Node3&#45;&gt;Node4</title>
<path fill="none" stroke="midnightblue" d="M382.911,-46.5C391.008,-46.5 399.843,-46.5 408.557,-46.5"/>
<polygon fill="midnightblue" stroke="midnightblue" points="408.68,-50.0001 418.68,-46.5 408.68,-43.0001 408.68,-50.0001"/>
</g>
<!-- Node5 -->
<g id="node5" class="node"><title>Node5</title>
<g id="a_node5"><a xlink:href="$AP__Math_8h.html#a27149a7dfbb14319088e8332705c0046" xlink:title="constrain_float">
<polygon fill="white" stroke="black" points="540.295,-37.5 540.295,-55.5 621.334,-55.5 621.334,-37.5 540.295,-37.5"/>
<text text-anchor="middle" x="580.814" y="-43.5" font-family="Helvetica,sans-Serif" font-size="10.00">constrain_float</text>
</a>
</g>
</g>
<!-- Node4&#45;&gt;Node5 -->
<g id="edge4" class="edge"><title>Node4&#45;&gt;Node5</title>
<path fill="none" stroke="midnightblue" d="M504.552,-46.5C512.775,-46.5 521.474,-46.5 529.925,-46.5"/>
<polygon fill="midnightblue" stroke="midnightblue" points="530.062,-50.0001 540.062,-46.5 530.062,-43.0001 530.062,-50.0001"/>
</g>
</g>
</svg>
