<?xml version="1.0" encoding="UTF-8" standalone="no"?>
<!DOCTYPE svg PUBLIC "-//W3C//DTD SVG 1.1//EN"
 "http://www.w3.org/Graphics/SVG/1.1/DTD/svg11.dtd">
<!-- Generated by graphviz version 2.38.0 (20140413.2041)
 -->
<!-- Title: libraries/AP_Airspeed/AP_Airspeed_PX4.cpp Pages: 1 -->
<svg width="1378pt" height="652pt"
 viewBox="0.00 0.00 1378.44 652.00" xmlns="http://www.w3.org/2000/svg" xmlns:xlink="http://www.w3.org/1999/xlink">
<g id="graph0" class="graph" transform="scale(1 1) rotate(0) translate(4 648)">
<title>libraries/AP_Airspeed/AP_Airspeed_PX4.cpp</title>
<polygon fill="white" stroke="none" points="-4,4 -4,-648 1374.44,-648 1374.44,4 -4,4"/>
<!-- Node1 -->
<g id="node1" class="node"><title>Node1</title>
<polygon fill="#bfbfbf" stroke="black" points="1015.67,-615.5 1015.67,-643.5 1136.18,-643.5 1136.18,-615.5 1015.67,-615.5"/>
<text text-anchor="start" x="1023.67" y="-631.5" font-family="Helvetica,sans-Serif" font-size="10.00">libraries/AP_Airspeed</text>
<text text-anchor="middle" x="1075.93" y="-621.5" font-family="Helvetica,sans-Serif" font-size="10.00">/AP_Airspeed_PX4.cpp</text>
</g>
<!-- Node2 -->
<g id="node2" class="node"><title>Node2</title>
<g id="a_node2"><a xlink:href="$AP__HAL_8h.html" xlink:title="AP_HAL/AP_HAL.h">
<polygon fill="white" stroke="black" points="729.014,-440.5 729.014,-458.5 832.841,-458.5 832.841,-440.5 729.014,-440.5"/>
<text text-anchor="middle" x="780.928" y="-446.5" font-family="Helvetica,sans-Serif" font-size="10.00">AP_HAL/AP_HAL.h</text>
</a>
</g>
</g>
<!-- Node1&#45;&gt;Node2 -->
<g id="edge1" class="edge"><title>Node1&#45;&gt;Node2</title>
<path fill="none" stroke="midnightblue" d="M1015.42,-624.038C948.74,-617.909 847.154,-604.607 818.928,-579 787.418,-550.415 781.535,-497.095 780.745,-468.967"/>
<polygon fill="midnightblue" stroke="midnightblue" points="784.242,-468.57 780.658,-458.6 777.242,-468.629 784.242,-468.57"/>
</g>
<!-- Node30 -->
<g id="node30" class="node"><title>Node30</title>
<g id="a_node30"><a xlink:href="$AP__Airspeed__PX4_8h.html" xlink:title="AP_Airspeed_PX4.h">
<polygon fill="white" stroke="black" points="664.342,-555.5 664.342,-573.5 771.514,-573.5 771.514,-555.5 664.342,-555.5"/>
<text text-anchor="middle" x="717.928" y="-561.5" font-family="Helvetica,sans-Serif" font-size="10.00">AP_Airspeed_PX4.h</text>
</a>
</g>
</g>
<!-- Node1&#45;&gt;Node30 -->
<g id="edge68" class="edge"><title>Node1&#45;&gt;Node30</title>
<path fill="none" stroke="midnightblue" d="M1015.58,-618.686C956.863,-609.021 865.161,-593.624 785.928,-579 780.013,-577.908 773.817,-576.729 767.674,-575.537"/>
<polygon fill="midnightblue" stroke="midnightblue" points="767.933,-572.021 757.446,-573.532 766.587,-578.89 767.933,-572.021"/>
</g>
<!-- Node32 -->
<g id="node32" class="node"><title>Node32</title>
<polygon fill="white" stroke="#bfbfbf" points="827.46,-555.5 827.46,-573.5 942.395,-573.5 942.395,-555.5 827.46,-555.5"/>
<text text-anchor="middle" x="884.928" y="-561.5" font-family="Helvetica,sans-Serif" font-size="10.00">drivers/drv_airspeed.h</text>
</g>
<!-- Node1&#45;&gt;Node32 -->
<g id="edge73" class="edge"><title>Node1&#45;&gt;Node32</title>
<path fill="none" stroke="midnightblue" d="M1036.35,-615.446C1001.69,-604.015 951.863,-587.578 918.96,-576.725"/>
<polygon fill="midnightblue" stroke="midnightblue" points="919.92,-573.357 909.327,-573.548 917.728,-580.004 919.92,-573.357"/>
</g>
<!-- Node33 -->
<g id="node33" class="node"><title>Node33</title>
<polygon fill="white" stroke="#bfbfbf" points="960.491,-550.5 960.491,-578.5 1081.36,-578.5 1081.36,-550.5 960.491,-550.5"/>
<text text-anchor="start" x="968.491" y="-566.5" font-family="Helvetica,sans-Serif" font-size="10.00">uORB/topics/differential</text>
<text text-anchor="middle" x="1020.93" y="-556.5" font-family="Helvetica,sans-Serif" font-size="10.00">_pressure.h</text>
</g>
<!-- Node1&#45;&gt;Node33 -->
<g id="edge74" class="edge"><title>Node1&#45;&gt;Node33</title>
<path fill="none" stroke="midnightblue" d="M1064.53,-615.446C1057.16,-606.999 1047.4,-595.82 1038.98,-586.179"/>
<polygon fill="midnightblue" stroke="midnightblue" points="1041.52,-583.768 1032.31,-578.537 1036.25,-588.372 1041.52,-583.768"/>
</g>
<!-- Node34 -->
<g id="node34" class="node"><title>Node34</title>
<polygon fill="white" stroke="#bfbfbf" points="1098.92,-555.5 1098.92,-573.5 1164.94,-573.5 1164.94,-555.5 1098.92,-555.5"/>
<text text-anchor="middle" x="1131.93" y="-561.5" font-family="Helvetica,sans-Serif" font-size="10.00">sys/types.h</text>
</g>
<!-- Node1&#45;&gt;Node34 -->
<g id="edge75" class="edge"><title>Node1&#45;&gt;Node34</title>
<path fill="none" stroke="midnightblue" d="M1087.53,-615.446C1096.33,-605.55 1108.46,-591.902 1117.82,-581.374"/>
<polygon fill="midnightblue" stroke="midnightblue" points="1120.58,-583.529 1124.61,-573.73 1115.35,-578.879 1120.58,-583.529"/>
</g>
<!-- Node35 -->
<g id="node35" class="node"><title>Node35</title>
<polygon fill="white" stroke="#bfbfbf" points="1182.81,-555.5 1182.81,-573.5 1241.05,-573.5 1241.05,-555.5 1182.81,-555.5"/>
<text text-anchor="middle" x="1211.93" y="-561.5" font-family="Helvetica,sans-Serif" font-size="10.00">sys/stat.h</text>
</g>
<!-- Node1&#45;&gt;Node35 -->
<g id="edge76" class="edge"><title>Node1&#45;&gt;Node35</title>
<path fill="none" stroke="midnightblue" d="M1104.11,-615.446C1127.93,-604.409 1161.83,-588.706 1185.23,-577.867"/>
<polygon fill="midnightblue" stroke="midnightblue" points="1186.95,-580.927 1194.55,-573.548 1184.01,-574.576 1186.95,-580.927"/>
</g>
<!-- Node36 -->
<g id="node36" class="node"><title>Node36</title>
<polygon fill="white" stroke="#bfbfbf" points="1258.59,-555.5 1258.59,-573.5 1301.27,-573.5 1301.27,-555.5 1258.59,-555.5"/>
<text text-anchor="middle" x="1279.93" y="-561.5" font-family="Helvetica,sans-Serif" font-size="10.00">fcntl.h</text>
</g>
<!-- Node1&#45;&gt;Node36 -->
<g id="edge77" class="edge"><title>Node1&#45;&gt;Node36</title>
<path fill="none" stroke="midnightblue" d="M1129.49,-615.422C1164.23,-606.413 1210.25,-593.485 1249.93,-579 1251.17,-578.548 1252.42,-578.068 1253.69,-577.569"/>
<polygon fill="midnightblue" stroke="midnightblue" points="1255.44,-580.627 1263.29,-573.506 1252.71,-574.181 1255.44,-580.627"/>
</g>
<!-- Node37 -->
<g id="node37" class="node"><title>Node37</title>
<polygon fill="white" stroke="#bfbfbf" points="1319.42,-555.5 1319.42,-573.5 1370.44,-573.5 1370.44,-555.5 1319.42,-555.5"/>
<text text-anchor="middle" x="1344.93" y="-561.5" font-family="Helvetica,sans-Serif" font-size="10.00">unistd.h</text>
</g>
<!-- Node1&#45;&gt;Node37 -->
<g id="edge78" class="edge"><title>Node1&#45;&gt;Node37</title>
<path fill="none" stroke="midnightblue" d="M1136.22,-618.484C1183.87,-609.913 1251.8,-596.237 1309.93,-579 1311.85,-578.431 1313.81,-577.803 1315.78,-577.14"/>
<polygon fill="midnightblue" stroke="midnightblue" points="1317.28,-580.319 1325.5,-573.628 1314.9,-573.736 1317.28,-580.319"/>
</g>
<!-- Node3 -->
<g id="node3" class="node"><title>Node3</title>
<polygon fill="white" stroke="#bfbfbf" points="276.807,-110.5 276.807,-128.5 325.048,-128.5 325.048,-110.5 276.807,-110.5"/>
<text text-anchor="middle" x="300.928" y="-116.5" font-family="Helvetica,sans-Serif" font-size="10.00">stdint.h</text>
</g>
<!-- Node2&#45;&gt;Node3 -->
<g id="edge2" class="edge"><title>Node2&#45;&gt;Node3</title>
<path fill="none" stroke="midnightblue" d="M728.58,-447.204C612.233,-443.83 335.466,-432.933 246.928,-404 202.369,-389.439 183.551,-387.584 156.928,-349 109.83,-280.742 75.0232,-230.469 125.928,-165 134.622,-153.818 218.269,-136.244 266.699,-126.878"/>
<polygon fill="midnightblue" stroke="midnightblue" points="267.584,-130.272 276.748,-124.954 266.268,-123.397 267.584,-130.272"/>
</g>
<!-- Node4 -->
<g id="node4" class="node"><title>Node4</title>
<polygon fill="white" stroke="#bfbfbf" points="564.635,-110.5 564.635,-128.5 621.221,-128.5 621.221,-110.5 564.635,-110.5"/>
<text text-anchor="middle" x="592.928" y="-116.5" font-family="Helvetica,sans-Serif" font-size="10.00">stdbool.h</text>
</g>
<!-- Node2&#45;&gt;Node4 -->
<g id="edge3" class="edge"><title>Node2&#45;&gt;Node4</title>
<path fill="none" stroke="midnightblue" d="M741.357,-440.447C677.822,-425.015 556.025,-384.433 514.928,-294 492.607,-244.884 569.593,-257.112 597.928,-184 603.61,-169.339 601.437,-151.375 598.383,-138.299"/>
<polygon fill="midnightblue" stroke="midnightblue" points="601.76,-137.38 595.763,-128.646 595.004,-139.214 601.76,-137.38"/>
</g>
<!-- Node5 -->
<g id="node5" class="node"><title>Node5</title>
<g id="a_node5"><a xlink:href="$AP__HAL__Namespace_8h.html" xlink:title="AP_HAL_Namespace.h">
<polygon fill="white" stroke="black" points="784.12,-55.5 784.12,-73.5 905.735,-73.5 905.735,-55.5 784.12,-55.5"/>
<text text-anchor="middle" x="844.928" y="-61.5" font-family="Helvetica,sans-Serif" font-size="10.00">AP_HAL_Namespace.h</text>
</a>
</g>
</g>
<!-- Node2&#45;&gt;Node5 -->
<g id="edge4" class="edge"><title>Node2&#45;&gt;Node5</title>
<path fill="none" stroke="midnightblue" d="M792.563,-440.331C803.681,-432.099 820.409,-418.561 831.928,-404 866.218,-360.655 876.65,-347.65 889.928,-294 891.956,-285.803 892.526,-283.035 889.928,-275 883.855,-256.221 871.015,-257.42 863.928,-239 843.384,-185.602 842.809,-116.591 843.922,-84.0452"/>
<polygon fill="midnightblue" stroke="midnightblue" points="847.429,-83.9456 844.374,-73.8008 840.436,-83.6366 847.429,-83.9456"/>
</g>
<!-- Node8 -->
<g id="node8" class="node"><title>Node8</title>
<g id="a_node8"><a xlink:href="$AP__HAL__Boards_8h.html" xlink:title="AP_HAL_Boards.h">
<polygon fill="white" stroke="black" points="134.957,-165.5 134.957,-183.5 234.898,-183.5 234.898,-165.5 134.957,-165.5"/>
<text text-anchor="middle" x="184.928" y="-171.5" font-family="Helvetica,sans-Serif" font-size="10.00">AP_HAL_Boards.h</text>
</a>
</g>
</g>
<!-- Node2&#45;&gt;Node8 -->
<g id="edge7" class="edge"><title>Node2&#45;&gt;Node8</title>
<path fill="none" stroke="midnightblue" d="M728.867,-444.907C579.625,-433.917 160.928,-397.964 160.928,-340.5 160.928,-340.5 160.928,-340.5 160.928,-283.5 160.928,-251.115 171.339,-214.539 178.447,-193.342"/>
<polygon fill="midnightblue" stroke="midnightblue" points="181.799,-194.358 181.79,-183.763 175.19,-192.051 181.799,-194.358"/>
</g>
<!-- Node9 -->
<g id="node9" class="node"><title>Node9</title>
<g id="a_node9"><a xlink:href="$AP__HAL__Macros_8h.html" xlink:title="AP_HAL_Macros.h">
<polygon fill="white" stroke="black" points="1189.41,-385.5 1189.41,-403.5 1290.45,-403.5 1290.45,-385.5 1189.41,-385.5"/>
<text text-anchor="middle" x="1239.93" y="-391.5" font-family="Helvetica,sans-Serif" font-size="10.00">AP_HAL_Macros.h</text>
</a>
</g>
</g>
<!-- Node2&#45;&gt;Node9 -->
<g id="edge8" class="edge"><title>Node2&#45;&gt;Node9</title>
<path fill="none" stroke="midnightblue" d="M832.907,-442.923C908.316,-434.766 1052.44,-418.925 1174.93,-404 1176.23,-403.841 1177.55,-403.68 1178.88,-403.516"/>
<polygon fill="midnightblue" stroke="midnightblue" points="1179.71,-406.938 1189.2,-402.222 1178.84,-399.993 1179.71,-406.938"/>
</g>
<!-- Node10 -->
<g id="node10" class="node"><title>Node10</title>
<g id="a_node10"><a xlink:href="$AP__HAL__Main_8h.html" xlink:title="AP_HAL_Main.h">
<polygon fill="white" stroke="black" points="699.962,-385.5 699.962,-403.5 789.893,-403.5 789.893,-385.5 699.962,-385.5"/>
<text text-anchor="middle" x="744.928" y="-391.5" font-family="Helvetica,sans-Serif" font-size="10.00">AP_HAL_Main.h</text>
</a>
</g>
</g>
<!-- Node2&#45;&gt;Node10 -->
<g id="edge9" class="edge"><title>Node2&#45;&gt;Node10</title>
<path fill="none" stroke="midnightblue" d="M775.303,-440.219C770.201,-432.707 762.528,-421.411 756.17,-412.052"/>
<polygon fill="midnightblue" stroke="midnightblue" points="758.909,-409.855 750.395,-403.55 753.119,-413.788 758.909,-409.855"/>
</g>
<!-- Node11 -->
<g id="node11" class="node"><title>Node11</title>
<g id="a_node11"><a xlink:href="$HAL_8h.html" xlink:title="HAL.h">
<polygon fill="white" stroke="black" points="704.031,-330.5 704.031,-348.5 747.824,-348.5 747.824,-330.5 704.031,-330.5"/>
<text text-anchor="middle" x="725.928" y="-336.5" font-family="Helvetica,sans-Serif" font-size="10.00">HAL.h</text>
</a>
</g>
</g>
<!-- Node2&#45;&gt;Node11 -->
<g id="edge67" class="edge"><title>Node2&#45;&gt;Node11</title>
<path fill="none" stroke="midnightblue" d="M744.757,-440.465C725.2,-434.078 702.7,-422.953 690.928,-404 680.934,-387.91 694.78,-368.797 707.893,-355.773"/>
<polygon fill="midnightblue" stroke="midnightblue" points="710.382,-358.239 715.344,-348.878 705.628,-353.101 710.382,-358.239"/>
</g>
<!-- Node12 -->
<g id="node12" class="node"><title>Node12</title>
<g id="a_node12"><a xlink:href="$AnalogIn_8h.html" xlink:title="AnalogIn.h">
<polygon fill="white" stroke="black" points="999.019,-220.5 999.019,-238.5 1062.84,-238.5 1062.84,-220.5 999.019,-220.5"/>
<text text-anchor="middle" x="1030.93" y="-226.5" font-family="Helvetica,sans-Serif" font-size="10.00">AnalogIn.h</text>
</a>
</g>
</g>
<!-- Node2&#45;&gt;Node12 -->
<g id="edge49" class="edge"><title>Node2&#45;&gt;Node12</title>
<path fill="none" stroke="midnightblue" d="M832.959,-445.027C867.434,-440.32 911.864,-429.365 942.928,-404 993.917,-362.365 1018.27,-283.557 1027,-248.314"/>
<polygon fill="midnightblue" stroke="midnightblue" points="1030.42,-249.039 1029.29,-238.504 1023.61,-247.443 1030.42,-249.039"/>
</g>
<!-- Node14 -->
<g id="node14" class="node"><title>Node14</title>
<g id="a_node14"><a xlink:href="$GPIO_8h.html" xlink:title="GPIO.h">
<polygon fill="white" stroke="black" points="275.255,-220.5 275.255,-238.5 324.6,-238.5 324.6,-220.5 275.255,-220.5"/>
<text text-anchor="middle" x="299.928" y="-226.5" font-family="Helvetica,sans-Serif" font-size="10.00">GPIO.h</text>
</a>
</g>
</g>
<!-- Node2&#45;&gt;Node14 -->
<g id="edge51" class="edge"><title>Node2&#45;&gt;Node14</title>
<path fill="none" stroke="midnightblue" d="M728.738,-444.547C654.945,-438.315 524.363,-424.741 481.928,-404 404.161,-365.991 337.678,-282.777 311.652,-247.186"/>
<polygon fill="midnightblue" stroke="midnightblue" points="314.341,-244.931 305.664,-238.851 308.656,-249.015 314.341,-244.931"/>
</g>
<!-- Node15 -->
<g id="node15" class="node"><title>Node15</title>
<g id="a_node15"><a xlink:href="$RCInput_8h.html" xlink:title="RCInput.h">
<polygon fill="white" stroke="black" points="819.415,-275.5 819.415,-293.5 880.44,-293.5 880.44,-275.5 819.415,-275.5"/>
<text text-anchor="middle" x="849.928" y="-281.5" font-family="Helvetica,sans-Serif" font-size="10.00">RCInput.h</text>
</a>
</g>
</g>
<!-- Node2&#45;&gt;Node15 -->
<g id="edge52" class="edge"><title>Node2&#45;&gt;Node15</title>
<path fill="none" stroke="midnightblue" d="M788.449,-440.218C795.846,-431.691 807.006,-417.745 813.928,-404 830.799,-370.498 841.394,-327.627 846.432,-303.714"/>
<polygon fill="midnightblue" stroke="midnightblue" points="849.921,-304.115 848.462,-293.622 843.059,-302.735 849.921,-304.115"/>
</g>
<!-- Node16 -->
<g id="node16" class="node"><title>Node16</title>
<g id="a_node16"><a xlink:href="$RCOutput_8h.html" xlink:title="RCOutput.h">
<polygon fill="white" stroke="black" points="1150.53,-275.5 1150.53,-293.5 1219.33,-293.5 1219.33,-275.5 1150.53,-275.5"/>
<text text-anchor="middle" x="1184.93" y="-281.5" font-family="Helvetica,sans-Serif" font-size="10.00">RCOutput.h</text>
</a>
</g>
</g>
<!-- Node2&#45;&gt;Node16 -->
<g id="edge53" class="edge"><title>Node2&#45;&gt;Node16</title>
<path fill="none" stroke="midnightblue" d="M833.111,-448.299C920.27,-446.95 1090.5,-439.673 1136.93,-404 1168.67,-379.614 1179.51,-330.791 1183.14,-304.053"/>
<polygon fill="midnightblue" stroke="midnightblue" points="1186.66,-304.121 1184.33,-293.785 1179.71,-303.318 1186.66,-304.121"/>
</g>
<!-- Node17 -->
<g id="node17" class="node"><title>Node17</title>
<g id="a_node17"><a xlink:href="$SPIDriver_8h.html" xlink:title="SPIDriver.h">
<polygon fill="white" stroke="black" points="734.64,-275.5 734.64,-293.5 801.216,-293.5 801.216,-275.5 734.64,-275.5"/>
<text text-anchor="middle" x="767.928" y="-281.5" font-family="Helvetica,sans-Serif" font-size="10.00">SPIDriver.h</text>
</a>
</g>
</g>
<!-- Node2&#45;&gt;Node17 -->
<g id="edge48" class="edge"><title>Node2&#45;&gt;Node17</title>
<path fill="none" stroke="midnightblue" d="M785.383,-440.267C789.826,-431.552 796.349,-417.252 798.928,-404 806.008,-367.616 789.075,-325.842 777.547,-302.886"/>
<polygon fill="midnightblue" stroke="midnightblue" points="780.492,-300.967 772.736,-293.749 774.298,-304.228 780.492,-300.967"/>
</g>
<!-- Node18 -->
<g id="node18" class="node"><title>Node18</title>
<g id="a_node18"><a xlink:href="$Storage_8h.html" xlink:title="Storage.h">
<polygon fill="white" stroke="black" points="524.246,-275.5 524.246,-293.5 583.61,-293.5 583.61,-275.5 524.246,-275.5"/>
<text text-anchor="middle" x="553.928" y="-281.5" font-family="Helvetica,sans-Serif" font-size="10.00">Storage.h</text>
</a>
</g>
</g>
<!-- Node2&#45;&gt;Node18 -->
<g id="edge50" class="edge"><title>Node2&#45;&gt;Node18</title>
<path fill="none" stroke="midnightblue" d="M750.142,-440.481C726.148,-433.319 692.692,-421.275 666.928,-404 623.609,-374.954 584.342,-326.677 565.568,-301.652"/>
<polygon fill="midnightblue" stroke="midnightblue" points="568.358,-299.539 559.609,-293.563 562.723,-303.69 568.358,-299.539"/>
</g>
<!-- Node19 -->
<g id="node19" class="node"><title>Node19</title>
<g id="a_node19"><a xlink:href="$UARTDriver_8h.html" xlink:title="UARTDriver.h">
<polygon fill="white" stroke="black" points="601.176,-275.5 601.176,-293.5 678.68,-293.5 678.68,-275.5 601.176,-275.5"/>
<text text-anchor="middle" x="639.928" y="-281.5" font-family="Helvetica,sans-Serif" font-size="10.00">UARTDriver.h</text>
</a>
</g>
</g>
<!-- Node2&#45;&gt;Node19 -->
<g id="edge44" class="edge"><title>Node2&#45;&gt;Node19</title>
<path fill="none" stroke="midnightblue" d="M747.806,-440.361C726.987,-433.706 700.943,-422.334 683.928,-404 657.26,-375.265 646.385,-328.93 642.247,-303.551"/>
<polygon fill="midnightblue" stroke="midnightblue" points="645.689,-302.896 640.788,-293.503 638.762,-303.903 645.689,-302.896"/>
</g>
<!-- Node22 -->
<g id="node22" class="node"><title>Node22</title>
<g id="a_node22"><a xlink:href="$BetterStream_8h.html" xlink:title="utility/BetterStream.h">
<polygon fill="white" stroke="black" points="872.521,-220.5 872.521,-238.5 981.334,-238.5 981.334,-220.5 872.521,-220.5"/>
<text text-anchor="middle" x="926.928" y="-226.5" font-family="Helvetica,sans-Serif" font-size="10.00">utility/BetterStream.h</text>
</a>
</g>
</g>
<!-- Node2&#45;&gt;Node22 -->
<g id="edge66" class="edge"><title>Node2&#45;&gt;Node22</title>
<path fill="none" stroke="midnightblue" d="M833.109,-446.614C864.465,-442.476 902.19,-431.559 922.928,-404 957.758,-357.712 942.527,-283.088 932.784,-248.8"/>
<polygon fill="midnightblue" stroke="midnightblue" points="936.011,-247.379 929.771,-238.817 929.31,-249.402 936.011,-247.379"/>
</g>
<!-- Node24 -->
<g id="node24" class="node"><title>Node24</title>
<g id="a_node24"><a xlink:href="$Stream_8h.html" xlink:title="Stream.h">
<polygon fill="white" stroke="black" points="1228.64,-165.5 1228.64,-183.5 1285.21,-183.5 1285.21,-165.5 1228.64,-165.5"/>
<text text-anchor="middle" x="1256.93" y="-171.5" font-family="Helvetica,sans-Serif" font-size="10.00">Stream.h</text>
</a>
</g>
</g>
<!-- Node2&#45;&gt;Node24 -->
<g id="edge65" class="edge"><title>Node2&#45;&gt;Node24</title>
<path fill="none" stroke="midnightblue" d="M832.954,-447.316C957.331,-444.026 1264.23,-433.03 1299.93,-404 1322.78,-385.413 1318.93,-369.958 1318.93,-340.5 1318.93,-340.5 1318.93,-340.5 1318.93,-283.5 1318.93,-246.422 1291.1,-210.553 1272.73,-190.913"/>
<polygon fill="midnightblue" stroke="midnightblue" points="1275.03,-188.257 1265.55,-183.534 1270.02,-193.14 1275.03,-188.257"/>
</g>
<!-- Node25 -->
<g id="node25" class="node"><title>Node25</title>
<g id="a_node25"><a xlink:href="$Print_8h.html" xlink:title="Print.h">
<polygon fill="white" stroke="black" points="1250.48,-110.5 1250.48,-128.5 1295.38,-128.5 1295.38,-110.5 1250.48,-110.5"/>
<text text-anchor="middle" x="1272.93" y="-116.5" font-family="Helvetica,sans-Serif" font-size="10.00">Print.h</text>
</a>
</g>
</g>
<!-- Node2&#45;&gt;Node25 -->
<g id="edge64" class="edge"><title>Node2&#45;&gt;Node25</title>
<path fill="none" stroke="midnightblue" d="M833.244,-446.951C960.818,-442.784 1280.45,-429.865 1320.93,-404 1348.26,-386.53 1356.93,-372.942 1356.93,-340.5 1356.93,-340.5 1356.93,-340.5 1356.93,-228.5 1356.93,-187.67 1319.06,-152.979 1294.17,-134.592"/>
<polygon fill="midnightblue" stroke="midnightblue" points="1295.87,-131.503 1285.69,-128.574 1291.82,-137.213 1295.87,-131.503"/>
</g>
<!-- Node26 -->
<g id="node26" class="node"><title>Node26</title>
<g id="a_node26"><a xlink:href="$I2CDriver_8h.html" xlink:title="I2CDriver.h">
<polygon fill="white" stroke="black" points="12.9179,-165.5 12.9179,-183.5 78.9375,-183.5 78.9375,-165.5 12.9179,-165.5"/>
<text text-anchor="middle" x="45.9277" y="-171.5" font-family="Helvetica,sans-Serif" font-size="10.00">I2CDriver.h</text>
</a>
</g>
</g>
<!-- Node2&#45;&gt;Node26 -->
<g id="edge45" class="edge"><title>Node2&#45;&gt;Node26</title>
<path fill="none" stroke="midnightblue" d="M728.777,-448.465C579.228,-447.895 156.562,-442.832 108.928,-404 44.222,-351.251 42.5062,-238.607 44.581,-194.124"/>
<polygon fill="midnightblue" stroke="midnightblue" points="48.0878,-194.113 45.1858,-183.923 41.1,-193.699 48.0878,-194.113"/>
</g>
<!-- Node27 -->
<g id="node27" class="node"><title>Node27</title>
<g id="a_node27"><a xlink:href="$Scheduler_8h.html" xlink:title="Scheduler.h">
<polygon fill="white" stroke="black" points="188.517,-220.5 188.517,-238.5 257.339,-238.5 257.339,-220.5 188.517,-220.5"/>
<text text-anchor="middle" x="222.928" y="-226.5" font-family="Helvetica,sans-Serif" font-size="10.00">Scheduler.h</text>
</a>
</g>
</g>
<!-- Node2&#45;&gt;Node27 -->
<g id="edge54" class="edge"><title>Node2&#45;&gt;Node27</title>
<path fill="none" stroke="midnightblue" d="M728.811,-444.918C647.817,-438.793 495.85,-424.909 445.928,-404 355.452,-366.106 270.257,-281.549 237.297,-246.35"/>
<polygon fill="midnightblue" stroke="midnightblue" points="239.758,-243.856 230.401,-238.886 234.616,-248.606 239.758,-243.856"/>
</g>
<!-- Node28 -->
<g id="node28" class="node"><title>Node28</title>
<g id="a_node28"><a xlink:href="$Semaphores_8h.html" xlink:title="Semaphores.h">
<polygon fill="white" stroke="black" points="1013.41,-330.5 1013.41,-348.5 1094.45,-348.5 1094.45,-330.5 1013.41,-330.5"/>
<text text-anchor="middle" x="1053.93" y="-336.5" font-family="Helvetica,sans-Serif" font-size="10.00">Semaphores.h</text>
</a>
</g>
</g>
<!-- Node2&#45;&gt;Node28 -->
<g id="edge59" class="edge"><title>Node2&#45;&gt;Node28</title>
<path fill="none" stroke="midnightblue" d="M833.17,-447.207C879.563,-443.969 947.744,-433.933 998.928,-404 1018.34,-392.645 1034.33,-371.927 1043.97,-357.247"/>
<polygon fill="midnightblue" stroke="midnightblue" points="1047.02,-358.965 1049.36,-348.631 1041.09,-355.252 1047.02,-358.965"/>
</g>
<!-- Node29 -->
<g id="node29" class="node"><title>Node29</title>
<g id="a_node29"><a xlink:href="$Util_8h.html" xlink:title="Util.h">
<polygon fill="white" stroke="black" points="1118.54,-220.5 1118.54,-238.5 1157.32,-238.5 1157.32,-220.5 1118.54,-220.5"/>
<text text-anchor="middle" x="1137.93" y="-226.5" font-family="Helvetica,sans-Serif" font-size="10.00">Util.h</text>
</a>
</g>
</g>
<!-- Node2&#45;&gt;Node29 -->
<g id="edge61" class="edge"><title>Node2&#45;&gt;Node29</title>
<path fill="none" stroke="midnightblue" d="M833.207,-445.419C883.891,-440.961 962.113,-430.135 1024.93,-404 1064.43,-387.565 1079.03,-383.794 1103.93,-349 1125.86,-318.345 1133.71,-273.787 1136.47,-248.962"/>
<polygon fill="midnightblue" stroke="midnightblue" points="1139.97,-249.072 1137.43,-238.786 1133.01,-248.411 1139.97,-249.072"/>
</g>
<!-- Node6 -->
<g id="node6" class="node"><title>Node6</title>
<polygon fill="white" stroke="#bfbfbf" points="1066.53,-0.5 1066.53,-18.5 1115.32,-18.5 1115.32,-0.5 1066.53,-0.5"/>
<text text-anchor="middle" x="1090.93" y="-6.5" font-family="Helvetica,sans-Serif" font-size="10.00">string.h</text>
</g>
<!-- Node5&#45;&gt;Node6 -->
<g id="edge5" class="edge"><title>Node5&#45;&gt;Node6</title>
<path fill="none" stroke="midnightblue" d="M882.29,-55.4504C929.649,-45.247 1010.64,-27.7987 1056.54,-17.9096"/>
<polygon fill="midnightblue" stroke="midnightblue" points="1057.28,-21.3297 1066.32,-15.8019 1055.81,-14.4867 1057.28,-21.3297"/>
</g>
<!-- Node7 -->
<g id="node7" class="node"><title>Node7</title>
<g id="a_node7"><a xlink:href="$functor_8h.html" xlink:title="utility/functor.h">
<polygon fill="white" stroke="black" points="804.965,-0.5 804.965,-18.5 884.891,-18.5 884.891,-0.5 804.965,-0.5"/>
<text text-anchor="middle" x="844.928" y="-6.5" font-family="Helvetica,sans-Serif" font-size="10.00">utility/functor.h</text>
</a>
</g>
</g>
<!-- Node5&#45;&gt;Node7 -->
<g id="edge6" class="edge"><title>Node5&#45;&gt;Node7</title>
<path fill="none" stroke="midnightblue" d="M844.928,-55.2188C844.928,-48.1769 844.928,-37.8083 844.928,-28.8277"/>
<polygon fill="midnightblue" stroke="midnightblue" points="848.428,-28.5495 844.928,-18.5496 841.428,-28.5496 848.428,-28.5495"/>
</g>
<!-- Node10&#45;&gt;Node11 -->
<g id="edge10" class="edge"><title>Node10&#45;&gt;Node11</title>
<path fill="none" stroke="midnightblue" d="M741.959,-385.219C739.378,-378.02 735.552,-367.346 732.284,-358.231"/>
<polygon fill="midnightblue" stroke="midnightblue" points="735.483,-356.782 728.813,-348.55 728.893,-359.144 735.483,-356.782"/>
</g>
<!-- Node11&#45;&gt;Node5 -->
<g id="edge11" class="edge"><title>Node11&#45;&gt;Node5</title>
<path fill="none" stroke="midnightblue" d="M724.643,-330.12C723.043,-317.817 721.07,-294.24 725.928,-275 745.959,-195.667 804.857,-115.255 831.53,-81.7306"/>
<polygon fill="midnightblue" stroke="midnightblue" points="834.572,-83.5346 838.139,-73.5584 829.129,-79.1327 834.572,-83.5346"/>
</g>
<!-- Node11&#45;&gt;Node12 -->
<g id="edge12" class="edge"><title>Node11&#45;&gt;Node12</title>
<path fill="none" stroke="midnightblue" d="M748.021,-333.679C779.841,-326.472 840.214,-311.813 889.928,-294 931.753,-279.014 978.425,-256.867 1006.2,-243.08"/>
<polygon fill="midnightblue" stroke="midnightblue" points="1007.82,-246.183 1015.2,-238.578 1004.69,-239.923 1007.82,-246.183"/>
</g>
<!-- Node11&#45;&gt;Node14 -->
<g id="edge15" class="edge"><title>Node11&#45;&gt;Node14</title>
<path fill="none" stroke="midnightblue" d="M703.926,-334.456C665.408,-327.245 583.347,-311.29 514.928,-294 450.65,-277.757 376.719,-255.015 334.442,-241.614"/>
<polygon fill="midnightblue" stroke="midnightblue" points="335.496,-238.277 324.906,-238.58 333.373,-244.947 335.496,-238.277"/>
</g>
<!-- Node11&#45;&gt;Node15 -->
<g id="edge18" class="edge"><title>Node11&#45;&gt;Node15</title>
<path fill="none" stroke="midnightblue" d="M744.761,-330.45C765.154,-321.734 797.916,-307.731 821.456,-297.669"/>
<polygon fill="midnightblue" stroke="midnightblue" points="823.098,-300.774 830.918,-293.625 820.347,-294.337 823.098,-300.774"/>
</g>
<!-- Node11&#45;&gt;Node16 -->
<g id="edge20" class="edge"><title>Node11&#45;&gt;Node16</title>
<path fill="none" stroke="midnightblue" d="M748.066,-335.944C819.338,-327.714 1043.78,-301.798 1140.2,-290.665"/>
<polygon fill="midnightblue" stroke="midnightblue" points="1140.68,-294.132 1150.21,-289.508 1139.88,-287.179 1140.68,-294.132"/>
</g>
<!-- Node11&#45;&gt;Node17 -->
<g id="edge22" class="edge"><title>Node11&#45;&gt;Node17</title>
<path fill="none" stroke="midnightblue" d="M732.49,-330.219C738.567,-322.551 747.769,-310.939 755.273,-301.469"/>
<polygon fill="midnightblue" stroke="midnightblue" points="758.081,-303.561 761.549,-293.55 752.595,-299.213 758.081,-303.561"/>
</g>
<!-- Node11&#45;&gt;Node18 -->
<g id="edge24" class="edge"><title>Node11&#45;&gt;Node18</title>
<path fill="none" stroke="midnightblue" d="M703.794,-331.68C674.891,-322.774 623.94,-307.073 589.564,-296.481"/>
<polygon fill="midnightblue" stroke="midnightblue" points="590.494,-293.105 579.906,-293.505 588.432,-299.795 590.494,-293.105"/>
</g>
<!-- Node11&#45;&gt;Node19 -->
<g id="edge27" class="edge"><title>Node11&#45;&gt;Node19</title>
<path fill="none" stroke="midnightblue" d="M712.866,-330.45C699.354,-322.123 678.012,-308.97 661.897,-299.039"/>
<polygon fill="midnightblue" stroke="midnightblue" points="663.462,-295.892 653.112,-293.625 659.789,-301.851 663.462,-295.892"/>
</g>
<!-- Node12&#45;&gt;Node5 -->
<g id="edge14" class="edge"><title>Node12&#45;&gt;Node5</title>
<path fill="none" stroke="midnightblue" d="M1021.7,-220.417C992.264,-194.617 900.237,-113.97 861.927,-80.3973"/>
<polygon fill="midnightblue" stroke="midnightblue" points="864.035,-77.5905 854.207,-73.632 859.421,-82.8551 864.035,-77.5905"/>
</g>
<!-- Node13 -->
<g id="node13" class="node"><title>Node13</title>
<polygon fill="white" stroke="#bfbfbf" points="1134.53,-55.5 1134.53,-73.5 1193.33,-73.5 1193.33,-55.5 1134.53,-55.5"/>
<text text-anchor="middle" x="1163.93" y="-61.5" font-family="Helvetica,sans-Serif" font-size="10.00">inttypes.h</text>
</g>
<!-- Node12&#45;&gt;Node13 -->
<g id="edge13" class="edge"><title>Node12&#45;&gt;Node13</title>
<path fill="none" stroke="midnightblue" d="M1022.36,-220.475C1010.36,-208.224 991.16,-184.251 1001.93,-165 1028.11,-118.196 1086.31,-90.7222 1125.35,-76.8955"/>
<polygon fill="midnightblue" stroke="midnightblue" points="1126.97,-80.0405 1135.32,-73.5117 1124.72,-73.412 1126.97,-80.0405"/>
</g>
<!-- Node14&#45;&gt;Node3 -->
<g id="edge16" class="edge"><title>Node14&#45;&gt;Node3</title>
<path fill="none" stroke="midnightblue" d="M300.003,-220.382C300.162,-203.182 300.537,-162.698 300.757,-138.887"/>
<polygon fill="midnightblue" stroke="midnightblue" points="304.259,-138.744 300.852,-128.712 297.259,-138.679 304.259,-138.744"/>
</g>
<!-- Node14&#45;&gt;Node5 -->
<g id="edge17" class="edge"><title>Node14&#45;&gt;Node5</title>
<path fill="none" stroke="midnightblue" d="M309.012,-220.4C334.371,-198.31 408.932,-136.883 482.928,-110 579.557,-74.8939 699.23,-66.4185 773.848,-64.9151"/>
<polygon fill="midnightblue" stroke="midnightblue" points="774.129,-68.4111 784.07,-64.7472 774.014,-61.412 774.129,-68.4111"/>
</g>
<!-- Node15&#45;&gt;Node5 -->
<g id="edge19" class="edge"><title>Node15&#45;&gt;Node5</title>
<path fill="none" stroke="midnightblue" d="M845.227,-275.3C840.539,-266.611 833.655,-252.333 830.928,-239 819.438,-182.83 822.224,-166.669 830.928,-110 832.33,-100.872 835.261,-91.0461 838.08,-82.9557"/>
<polygon fill="midnightblue" stroke="midnightblue" points="841.382,-84.1171 841.584,-73.5242 834.82,-81.679 841.382,-84.1171"/>
</g>
<!-- Node16&#45;&gt;Node5 -->
<g id="edge21" class="edge"><title>Node16&#45;&gt;Node5</title>
<path fill="none" stroke="midnightblue" d="M1184.2,-275.482C1181.17,-247.069 1166.72,-150.716 1107.93,-110 1077.56,-88.9649 982.875,-76.8641 915.849,-70.7321"/>
<polygon fill="midnightblue" stroke="midnightblue" points="916.029,-67.2343 905.758,-69.8345 915.408,-74.2068 916.029,-67.2343"/>
</g>
<!-- Node17&#45;&gt;Node5 -->
<g id="edge23" class="edge"><title>Node17&#45;&gt;Node5</title>
<path fill="none" stroke="midnightblue" d="M770.247,-275.44C777.484,-250.527 800.628,-172.669 824.928,-110 828.459,-100.894 832.867,-90.962 836.645,-82.7964"/>
<polygon fill="midnightblue" stroke="midnightblue" points="839.885,-84.1308 840.981,-73.5927 833.553,-81.1475 839.885,-84.1308"/>
</g>
<!-- Node18&#45;&gt;Node3 -->
<g id="edge25" class="edge"><title>Node18&#45;&gt;Node3</title>
<path fill="none" stroke="midnightblue" d="M524.186,-278.409C494.744,-272.389 449.227,-260.375 414.928,-239 370.477,-211.299 331.187,-162.439 312.491,-136.976"/>
<polygon fill="midnightblue" stroke="midnightblue" points="315.244,-134.81 306.564,-128.736 309.562,-138.898 315.244,-134.81"/>
</g>
<!-- Node18&#45;&gt;Node5 -->
<g id="edge26" class="edge"><title>Node18&#45;&gt;Node5</title>
<path fill="none" stroke="midnightblue" d="M560.256,-275.328C585.684,-242.572 679.909,-121.961 697.928,-110 723.353,-93.1235 755.424,-82.4428 783.118,-75.791"/>
<polygon fill="midnightblue" stroke="midnightblue" points="784.128,-79.1506 793.102,-73.5186 782.575,-72.3252 784.128,-79.1506"/>
</g>
<!-- Node19&#45;&gt;Node3 -->
<g id="edge28" class="edge"><title>Node19&#45;&gt;Node3</title>
<path fill="none" stroke="midnightblue" d="M623.117,-275.417C568.22,-249.021 393.92,-165.213 327.229,-133.147"/>
<polygon fill="midnightblue" stroke="midnightblue" points="328.369,-129.811 317.84,-128.632 325.336,-136.12 328.369,-129.811"/>
</g>
<!-- Node19&#45;&gt;Node5 -->
<g id="edge33" class="edge"><title>Node19&#45;&gt;Node5</title>
<path fill="none" stroke="midnightblue" d="M646.066,-275.302C652.377,-266.617 662.204,-252.34 668.928,-239 696.463,-184.374 673.206,-152.786 716.928,-110 734.138,-93.1576 758.048,-82.6695 780.549,-76.1469"/>
<polygon fill="midnightblue" stroke="midnightblue" points="781.665,-79.4715 790.419,-73.504 779.854,-72.7097 781.665,-79.4715"/>
</g>
<!-- Node20 -->
<g id="node20" class="node"><title>Node20</title>
<g id="a_node20"><a xlink:href="$AP__Common_8h.html" xlink:title="Common definitions and utility routines for the ArduPilot libraries. ">
<polygon fill="white" stroke="black" points="442.901,-165.5 442.901,-183.5 588.955,-183.5 588.955,-165.5 442.901,-165.5"/>
<text text-anchor="middle" x="515.928" y="-171.5" font-family="Helvetica,sans-Serif" font-size="10.00">AP_Common/AP_Common.h</text>
</a>
</g>
</g>
<!-- Node19&#45;&gt;Node20 -->
<g id="edge29" class="edge"><title>Node19&#45;&gt;Node20</title>
<path fill="none" stroke="midnightblue" d="M630.608,-275.382C609.872,-257.322 559.662,-213.591 533.087,-190.445"/>
<polygon fill="midnightblue" stroke="midnightblue" points="535.196,-187.64 525.356,-183.712 530.598,-192.919 535.196,-187.64"/>
</g>
<!-- Node19&#45;&gt;Node22 -->
<g id="edge34" class="edge"><title>Node19&#45;&gt;Node22</title>
<path fill="none" stroke="midnightblue" d="M678.932,-276.297C729.143,-267.025 816.633,-250.868 873.138,-240.433"/>
<polygon fill="midnightblue" stroke="midnightblue" points="874.114,-243.812 883.312,-238.555 872.842,-236.929 874.114,-243.812"/>
</g>
<!-- Node20&#45;&gt;Node3 -->
<g id="edge30" class="edge"><title>Node20&#45;&gt;Node3</title>
<path fill="none" stroke="midnightblue" d="M483.274,-165.45C443.205,-155.573 375.595,-138.906 334.923,-128.88"/>
<polygon fill="midnightblue" stroke="midnightblue" points="335.743,-125.478 325.196,-126.482 334.067,-132.274 335.743,-125.478"/>
</g>
<!-- Node20&#45;&gt;Node4 -->
<g id="edge32" class="edge"><title>Node20&#45;&gt;Node4</title>
<path fill="none" stroke="midnightblue" d="M527.622,-165.45C539.607,-157.201 558.473,-144.216 572.851,-134.319"/>
<polygon fill="midnightblue" stroke="midnightblue" points="574.87,-137.178 581.123,-128.625 570.901,-131.412 574.87,-137.178"/>
</g>
<!-- Node21 -->
<g id="node21" class="node"><title>Node21</title>
<polygon fill="white" stroke="#bfbfbf" points="492.085,-110.5 492.085,-128.5 539.77,-128.5 539.77,-110.5 492.085,-110.5"/>
<text text-anchor="middle" x="515.928" y="-116.5" font-family="Helvetica,sans-Serif" font-size="10.00">stdlib.h</text>
</g>
<!-- Node20&#45;&gt;Node21 -->
<g id="edge31" class="edge"><title>Node20&#45;&gt;Node21</title>
<path fill="none" stroke="midnightblue" d="M515.928,-165.219C515.928,-158.177 515.928,-147.808 515.928,-138.828"/>
<polygon fill="midnightblue" stroke="midnightblue" points="519.428,-138.55 515.928,-128.55 512.428,-138.55 519.428,-138.55"/>
</g>
<!-- Node22&#45;&gt;Node5 -->
<g id="edge37" class="edge"><title>Node22&#45;&gt;Node5</title>
<path fill="none" stroke="midnightblue" d="M922.749,-220.193C909.971,-194.794 871.233,-117.791 853.707,-82.9517"/>
<polygon fill="midnightblue" stroke="midnightblue" points="856.622,-80.9575 849.001,-73.5971 850.369,-84.1033 856.622,-80.9575"/>
</g>
<!-- Node22&#45;&gt;Node20 -->
<g id="edge36" class="edge"><title>Node22&#45;&gt;Node20</title>
<path fill="none" stroke="midnightblue" d="M872.35,-221.462C799.268,-212.038 669.431,-195.295 588.267,-184.828"/>
<polygon fill="midnightblue" stroke="midnightblue" points="588.494,-181.329 578.128,-183.521 587.598,-188.271 588.494,-181.329"/>
</g>
<!-- Node23 -->
<g id="node23" class="node"><title>Node23</title>
<polygon fill="white" stroke="#bfbfbf" points="1010.86,-165.5 1010.86,-183.5 1062.99,-183.5 1062.99,-165.5 1010.86,-165.5"/>
<text text-anchor="middle" x="1036.93" y="-171.5" font-family="Helvetica,sans-Serif" font-size="10.00">stdarg.h</text>
</g>
<!-- Node22&#45;&gt;Node23 -->
<g id="edge35" class="edge"><title>Node22&#45;&gt;Node23</title>
<path fill="none" stroke="midnightblue" d="M943.634,-220.45C961.483,-211.851 990.012,-198.105 1010.83,-188.075"/>
<polygon fill="midnightblue" stroke="midnightblue" points="1012.57,-191.119 1020.06,-183.625 1009.54,-184.813 1012.57,-191.119"/>
</g>
<!-- Node22&#45;&gt;Node24 -->
<g id="edge38" class="edge"><title>Node22&#45;&gt;Node24</title>
<path fill="none" stroke="midnightblue" d="M977.048,-220.45C1043.21,-209.824 1158.31,-191.339 1218.21,-181.719"/>
<polygon fill="midnightblue" stroke="midnightblue" points="1219.06,-185.127 1228.37,-180.086 1217.95,-178.216 1219.06,-185.127"/>
</g>
<!-- Node24&#45;&gt;Node5 -->
<g id="edge39" class="edge"><title>Node24&#45;&gt;Node5</title>
<path fill="none" stroke="midnightblue" d="M1252.1,-165.171C1243.45,-151.104 1223.85,-122.908 1198.93,-110 1151.06,-85.2121 1004.66,-73.5605 915.827,-68.6407"/>
<polygon fill="midnightblue" stroke="midnightblue" points="915.995,-65.1448 905.821,-68.1015 915.619,-72.1347 915.995,-65.1448"/>
</g>
<!-- Node24&#45;&gt;Node25 -->
<g id="edge40" class="edge"><title>Node24&#45;&gt;Node25</title>
<path fill="none" stroke="midnightblue" d="M1259.43,-165.219C1261.6,-158.02 1264.82,-147.346 1267.57,-138.231"/>
<polygon fill="midnightblue" stroke="midnightblue" points="1270.96,-139.134 1270.5,-128.55 1264.26,-137.111 1270.96,-139.134"/>
</g>
<!-- Node25&#45;&gt;Node5 -->
<g id="edge41" class="edge"><title>Node25&#45;&gt;Node5</title>
<path fill="none" stroke="midnightblue" d="M1250.16,-112.693C1245.79,-111.7 1241.23,-110.749 1236.93,-110 1125.69,-90.6251 995.169,-77.7504 916.323,-71.0385"/>
<polygon fill="midnightblue" stroke="midnightblue" points="916.28,-67.5226 906.021,-70.1716 915.693,-74.4979 916.28,-67.5226"/>
</g>
<!-- Node25&#45;&gt;Node6 -->
<g id="edge43" class="edge"><title>Node25&#45;&gt;Node6</title>
<path fill="none" stroke="midnightblue" d="M1265.77,-110.492C1253.7,-97.3921 1228.06,-71.221 1201.93,-55 1177.8,-40.0261 1147.78,-28.3509 1125.04,-20.7234"/>
<polygon fill="midnightblue" stroke="midnightblue" points="1126.06,-17.3745 1115.46,-17.6056 1123.89,-24.0304 1126.06,-17.3745"/>
</g>
<!-- Node25&#45;&gt;Node13 -->
<g id="edge42" class="edge"><title>Node25&#45;&gt;Node13</title>
<path fill="none" stroke="midnightblue" d="M1256.37,-110.45C1238.69,-101.851 1210.42,-88.1048 1189.79,-78.0755"/>
<polygon fill="midnightblue" stroke="midnightblue" points="1191.16,-74.8506 1180.64,-73.6253 1188.1,-81.1459 1191.16,-74.8506"/>
</g>
<!-- Node26&#45;&gt;Node3 -->
<g id="edge46" class="edge"><title>Node26&#45;&gt;Node3</title>
<path fill="none" stroke="midnightblue" d="M79.0031,-166.626C127.566,-156.532 217.708,-137.797 266.841,-127.585"/>
<polygon fill="midnightblue" stroke="midnightblue" points="267.594,-131.003 276.673,-125.541 266.17,-124.149 267.594,-131.003"/>
</g>
<!-- Node26&#45;&gt;Node5 -->
<g id="edge47" class="edge"><title>Node26&#45;&gt;Node5</title>
<path fill="none" stroke="midnightblue" d="M68.2634,-165.481C107.891,-151.625 193.357,-123.399 267.928,-110 448.026,-77.6397 663.907,-68.8007 773.504,-66.394"/>
<polygon fill="midnightblue" stroke="midnightblue" points="773.848,-69.8877 783.773,-66.1806 773.703,-62.8892 773.848,-69.8877"/>
</g>
<!-- Node27&#45;&gt;Node3 -->
<g id="edge55" class="edge"><title>Node27&#45;&gt;Node3</title>
<path fill="none" stroke="midnightblue" d="M228.79,-220.382C241.552,-202.713 272.059,-160.472 289.028,-136.976"/>
<polygon fill="midnightblue" stroke="midnightblue" points="291.979,-138.868 294.997,-128.712 286.305,-134.769 291.979,-138.868"/>
</g>
<!-- Node27&#45;&gt;Node5 -->
<g id="edge58" class="edge"><title>Node27&#45;&gt;Node5</title>
<path fill="none" stroke="midnightblue" d="M188.331,-226.636C132.589,-222.828 26.8218,-212.014 3.9277,-184 -1.41595,-177.461 -1.09579,-171.788 3.9277,-165 53.6907,-97.7604 101.656,-125.131 183.928,-110 395.791,-71.0351 651.452,-65.2656 773.426,-64.9754"/>
<polygon fill="midnightblue" stroke="midnightblue" points="773.75,-68.4752 783.746,-64.9634 773.742,-61.4752 773.75,-68.4752"/>
</g>
<!-- Node27&#45;&gt;Node8 -->
<g id="edge57" class="edge"><title>Node27&#45;&gt;Node8</title>
<path fill="none" stroke="midnightblue" d="M216.99,-220.219C211.549,-212.629 203.336,-201.175 196.586,-191.76"/>
<polygon fill="midnightblue" stroke="midnightblue" points="199.37,-189.637 190.699,-183.55 193.682,-193.716 199.37,-189.637"/>
</g>
<!-- Node27&#45;&gt;Node20 -->
<g id="edge56" class="edge"><title>Node27&#45;&gt;Node20</title>
<path fill="none" stroke="midnightblue" d="M257.651,-221.577C260.45,-221.037 263.235,-220.506 265.928,-220 332.202,-207.552 408.531,-194.093 459.239,-185.274"/>
<polygon fill="midnightblue" stroke="midnightblue" points="460.089,-188.679 469.343,-183.52 458.891,-181.782 460.089,-188.679"/>
</g>
<!-- Node28&#45;&gt;Node5 -->
<g id="edge60" class="edge"><title>Node28&#45;&gt;Node5</title>
<path fill="none" stroke="midnightblue" d="M1058.09,-330.403C1070.98,-304.041 1107.38,-219.249 1071.93,-165 1037.48,-112.296 968.257,-87.3343 915.26,-75.6195"/>
<polygon fill="midnightblue" stroke="midnightblue" points="915.735,-72.1429 905.229,-73.5156 914.298,-78.9939 915.735,-72.1429"/>
</g>
<!-- Node29&#45;&gt;Node5 -->
<g id="edge63" class="edge"><title>Node29&#45;&gt;Node5</title>
<path fill="none" stroke="midnightblue" d="M1136.88,-220.309C1133.61,-198.523 1121.59,-138.852 1084.93,-110 1059.18,-89.7356 976.963,-77.7154 915.896,-71.3737"/>
<polygon fill="midnightblue" stroke="midnightblue" points="916.207,-67.8875 905.907,-70.3669 915.505,-74.8522 916.207,-67.8875"/>
</g>
<!-- Node29&#45;&gt;Node23 -->
<g id="edge62" class="edge"><title>Node29&#45;&gt;Node23</title>
<path fill="none" stroke="midnightblue" d="M1122.59,-220.45C1106.35,-211.929 1080.48,-198.353 1061.41,-188.349"/>
<polygon fill="midnightblue" stroke="midnightblue" points="1062.89,-185.173 1052.41,-183.625 1059.64,-191.371 1062.89,-185.173"/>
</g>
<!-- Node30&#45;&gt;Node2 -->
<g id="edge69" class="edge"><title>Node30&#45;&gt;Node2</title>
<path fill="none" stroke="midnightblue" d="M722.459,-555.373C732.675,-537.049 757.686,-492.187 771.455,-467.49"/>
<polygon fill="midnightblue" stroke="midnightblue" points="774.625,-468.992 776.438,-458.553 768.511,-465.583 774.625,-468.992"/>
</g>
<!-- Node31 -->
<g id="node31" class="node"><title>Node31</title>
<g id="a_node31"><a xlink:href="$AP__Airspeed__Backend_8h.html" xlink:title="AP_Airspeed_Backend.h">
<polygon fill="white" stroke="black" points="606.334,-495.5 606.334,-513.5 733.521,-513.5 733.521,-495.5 606.334,-495.5"/>
<text text-anchor="middle" x="669.928" y="-501.5" font-family="Helvetica,sans-Serif" font-size="10.00">AP_Airspeed_Backend.h</text>
</a>
</g>
</g>
<!-- Node30&#45;&gt;Node31 -->
<g id="edge70" class="edge"><title>Node30&#45;&gt;Node31</title>
<path fill="none" stroke="midnightblue" d="M711.254,-555.435C704.099,-546.79 692.545,-532.829 683.471,-521.864"/>
<polygon fill="midnightblue" stroke="midnightblue" points="685.928,-519.344 676.856,-513.872 680.535,-523.807 685.928,-519.344"/>
</g>
<!-- Node31&#45;&gt;Node2 -->
<g id="edge72" class="edge"><title>Node31&#45;&gt;Node2</title>
<path fill="none" stroke="midnightblue" d="M686.786,-495.45C704.878,-486.812 733.846,-472.98 754.875,-462.94"/>
<polygon fill="midnightblue" stroke="midnightblue" points="756.395,-466.093 763.911,-458.625 753.378,-459.776 756.395,-466.093"/>
</g>
<!-- Node31&#45;&gt;Node20 -->
<g id="edge71" class="edge"><title>Node31&#45;&gt;Node20</title>
<path fill="none" stroke="midnightblue" d="M611.675,-495.499C558.338,-484.747 482.338,-460.014 445.928,-404 400.083,-333.472 470.76,-231.335 502.149,-191.894"/>
<polygon fill="midnightblue" stroke="midnightblue" points="505.252,-193.627 508.86,-183.666 499.827,-189.203 505.252,-193.627"/>
</g>
</g>
</svg>
