<?xml version="1.0" encoding="UTF-8" standalone="no"?>
<!DOCTYPE svg PUBLIC "-//W3C//DTD SVG 1.1//EN"
 "http://www.w3.org/Graphics/SVG/1.1/DTD/svg11.dtd">
<!-- Generated by graphviz version 2.38.0 (20140413.2041)
 -->
<!-- Title: libraries/APM_PI/APM_PI.h Pages: 1 -->
<svg width="1568pt" height="632pt"
 viewBox="0.00 0.00 1568.03 632.00" xmlns="http://www.w3.org/2000/svg" xmlns:xlink="http://www.w3.org/1999/xlink">
<g id="graph0" class="graph" transform="scale(1 1) rotate(0) translate(4 628)">
<title>libraries/APM_PI/APM_PI.h</title>
<polygon fill="white" stroke="none" points="-4,4 -4,-628 1564.03,-628 1564.03,4 -4,4"/>
<!-- Node1 -->
<g id="node1" class="node"><title>Node1</title>
<polygon fill="#bfbfbf" stroke="black" points="226.894,-605.5 226.894,-623.5 365.16,-623.5 365.16,-605.5 226.894,-605.5"/>
<text text-anchor="middle" x="296.027" y="-611.5" font-family="Helvetica,sans-Serif" font-size="10.00">libraries/APM_PI/APM_PI.h</text>
</g>
<!-- Node2 -->
<g id="node2" class="node"><title>Node2</title>
<polygon fill="white" stroke="#bfbfbf" points="33.1848,-110.5 33.1848,-128.5 80.8693,-128.5 80.8693,-110.5 33.1848,-110.5"/>
<text text-anchor="middle" x="57.027" y="-116.5" font-family="Helvetica,sans-Serif" font-size="10.00">stdlib.h</text>
</g>
<!-- Node1&#45;&gt;Node2 -->
<g id="edge1" class="edge"><title>Node1&#45;&gt;Node2</title>
<path fill="none" stroke="midnightblue" d="M226.888,-612.991C150.465,-608.344 38.027,-587.563 38.027,-505.5 38.027,-505.5 38.027,-505.5 38.027,-228.5 38.027,-196.386 46.2764,-159.702 51.9038,-138.414"/>
<polygon fill="midnightblue" stroke="midnightblue" points="55.3412,-139.114 54.6207,-128.544 48.5922,-137.256 55.3412,-139.114"/>
</g>
<!-- Node3 -->
<g id="node3" class="node"><title>Node3</title>
<g id="a_node3"><a xlink:href="$AP__Param_8h.html" xlink:title="A system for managing and storing variables that are of general interest to the system. ">
<polygon fill="white" stroke="black" points="550.113,-550.5 550.113,-568.5 673.941,-568.5 673.941,-550.5 550.113,-550.5"/>
<text text-anchor="middle" x="612.027" y="-556.5" font-family="Helvetica,sans-Serif" font-size="10.00">AP_Param/AP_Param.h</text>
</a>
</g>
</g>
<!-- Node1&#45;&gt;Node3 -->
<g id="edge2" class="edge"><title>Node1&#45;&gt;Node3</title>
<path fill="none" stroke="midnightblue" d="M344.021,-605.45C400.33,-596.006 493.645,-580.355 553.975,-570.237"/>
<polygon fill="midnightblue" stroke="midnightblue" points="554.817,-573.644 564.101,-568.538 553.659,-566.741 554.817,-573.644"/>
</g>
<!-- Node4 -->
<g id="node4" class="node"><title>Node4</title>
<g id="a_node4"><a xlink:href="$AP__HAL_8h.html" xlink:title="AP_HAL/AP_HAL.h">
<polygon fill="white" stroke="black" points="745.113,-440.5 745.113,-458.5 848.941,-458.5 848.941,-440.5 745.113,-440.5"/>
<text text-anchor="middle" x="797.027" y="-446.5" font-family="Helvetica,sans-Serif" font-size="10.00">AP_HAL/AP_HAL.h</text>
</a>
</g>
</g>
<!-- Node3&#45;&gt;Node4 -->
<g id="edge3" class="edge"><title>Node3&#45;&gt;Node4</title>
<path fill="none" stroke="midnightblue" d="M674.135,-554.786C733.175,-549.806 815.87,-538.555 836.027,-514 848.702,-498.56 831.899,-478.644 816.567,-465.269"/>
<polygon fill="midnightblue" stroke="midnightblue" points="818.352,-462.207 808.397,-458.581 813.918,-467.624 818.352,-462.207"/>
</g>
<!-- Node5 -->
<g id="node5" class="node"><title>Node5</title>
<polygon fill="white" stroke="#bfbfbf" points="551.906,-110.5 551.906,-128.5 600.148,-128.5 600.148,-110.5 551.906,-110.5"/>
<text text-anchor="middle" x="576.027" y="-116.5" font-family="Helvetica,sans-Serif" font-size="10.00">stdint.h</text>
</g>
<!-- Node3&#45;&gt;Node5 -->
<g id="edge72" class="edge"><title>Node3&#45;&gt;Node5</title>
<path fill="none" stroke="midnightblue" d="M550.017,-558.906C408.926,-558.161 76.027,-546.256 76.027,-450.5 76.027,-450.5 76.027,-450.5 76.027,-228.5 76.027,-190.575 99.2096,-182.165 133.027,-165 204.466,-128.738 450.675,-122.024 541.778,-120.782"/>
<polygon fill="midnightblue" stroke="midnightblue" points="541.893,-124.281 551.849,-120.658 541.807,-117.281 541.893,-124.281"/>
</g>
<!-- Node8 -->
<g id="node8" class="node"><title>Node8</title>
<polygon fill="white" stroke="#bfbfbf" points="1354.63,-0.5 1354.63,-18.5 1403.42,-18.5 1403.42,-0.5 1354.63,-0.5"/>
<text text-anchor="middle" x="1379.03" y="-6.5" font-family="Helvetica,sans-Serif" font-size="10.00">string.h</text>
</g>
<!-- Node3&#45;&gt;Node8 -->
<g id="edge71" class="edge"><title>Node3&#45;&gt;Node8</title>
<path fill="none" stroke="midnightblue" d="M674.228,-557.965C885.133,-555.34 1560.03,-539.95 1560.03,-450.5 1560.03,-450.5 1560.03,-450.5 1560.03,-118.5 1560.03,-50.9184 1465.82,-24.6376 1413.34,-15.2401"/>
<polygon fill="midnightblue" stroke="midnightblue" points="1413.88,-11.782 1403.44,-13.5785 1412.72,-18.6855 1413.88,-11.782"/>
</g>
<!-- Node31 -->
<g id="node31" class="node"><title>Node31</title>
<polygon fill="white" stroke="#bfbfbf" points="456.237,-495.5 456.237,-513.5 507.818,-513.5 507.818,-495.5 456.237,-495.5"/>
<text text-anchor="middle" x="482.027" y="-501.5" font-family="Helvetica,sans-Serif" font-size="10.00">stddef.h</text>
</g>
<!-- Node3&#45;&gt;Node31 -->
<g id="edge70" class="edge"><title>Node3&#45;&gt;Node31</title>
<path fill="none" stroke="midnightblue" d="M592.283,-550.45C570.712,-541.656 535.941,-527.48 511.217,-517.401"/>
<polygon fill="midnightblue" stroke="midnightblue" points="512.538,-514.16 501.957,-513.625 509.896,-520.642 512.538,-514.16"/>
</g>
<!-- Node32 -->
<g id="node32" class="node"><title>Node32</title>
<polygon fill="white" stroke="#bfbfbf" points="525.741,-495.5 525.741,-513.5 572.313,-513.5 572.313,-495.5 525.741,-495.5"/>
<text text-anchor="middle" x="549.027" y="-501.5" font-family="Helvetica,sans-Serif" font-size="10.00">math.h</text>
</g>
<!-- Node3&#45;&gt;Node32 -->
<g id="edge73" class="edge"><title>Node3&#45;&gt;Node32</title>
<path fill="none" stroke="midnightblue" d="M602.459,-550.45C592.93,-542.434 578.087,-529.947 566.461,-520.166"/>
<polygon fill="midnightblue" stroke="midnightblue" points="568.591,-517.385 558.685,-513.625 564.085,-522.741 568.591,-517.385"/>
</g>
<!-- Node33 -->
<g id="node33" class="node"><title>Node33</title>
<polygon fill="white" stroke="#bfbfbf" points="590.406,-495.5 590.406,-513.5 633.648,-513.5 633.648,-495.5 590.406,-495.5"/>
<text text-anchor="middle" x="612.027" y="-501.5" font-family="Helvetica,sans-Serif" font-size="10.00">float.h</text>
</g>
<!-- Node3&#45;&gt;Node33 -->
<g id="edge74" class="edge"><title>Node3&#45;&gt;Node33</title>
<path fill="none" stroke="midnightblue" d="M612.027,-550.219C612.027,-543.177 612.027,-532.808 612.027,-523.828"/>
<polygon fill="midnightblue" stroke="midnightblue" points="615.527,-523.55 612.027,-513.55 608.527,-523.55 615.527,-523.55"/>
</g>
<!-- Node34 -->
<g id="node34" class="node"><title>Node34</title>
<g id="a_node34"><a xlink:href="$AP__Progmem_8h.html" xlink:title="AP_Progmem/AP_Progmem.h">
<polygon fill="white" stroke="black" points="1380.22,-165.5 1380.22,-183.5 1531.83,-183.5 1531.83,-165.5 1380.22,-165.5"/>
<text text-anchor="middle" x="1456.03" y="-171.5" font-family="Helvetica,sans-Serif" font-size="10.00">AP_Progmem/AP_Progmem.h</text>
</a>
</g>
</g>
<!-- Node3&#45;&gt;Node34 -->
<g id="edge75" class="edge"><title>Node3&#45;&gt;Node34</title>
<path fill="none" stroke="midnightblue" d="M673.983,-556.752C863.566,-550.589 1423.03,-526.004 1423.03,-450.5 1423.03,-450.5 1423.03,-450.5 1423.03,-283.5 1423.03,-250.291 1437.47,-213.747 1447.25,-192.82"/>
<polygon fill="midnightblue" stroke="midnightblue" points="1450.49,-194.165 1451.71,-183.641 1444.19,-191.104 1450.49,-194.165"/>
</g>
<!-- Node35 -->
<g id="node35" class="node"><title>Node35</title>
<g id="a_node35"><a xlink:href="$StorageManager_8h.html" xlink:title="StorageManager/StorageManager.h">
<polygon fill="white" stroke="black" points="651.249,-495.5 651.249,-513.5 826.805,-513.5 826.805,-495.5 651.249,-495.5"/>
<text text-anchor="middle" x="739.027" y="-501.5" font-family="Helvetica,sans-Serif" font-size="10.00">StorageManager/StorageManager.h</text>
</a>
</g>
</g>
<!-- Node3&#45;&gt;Node35 -->
<g id="edge78" class="edge"><title>Node3&#45;&gt;Node35</title>
<path fill="none" stroke="midnightblue" d="M631.316,-550.45C652.295,-541.695 686.057,-527.606 710.189,-517.535"/>
<polygon fill="midnightblue" stroke="midnightblue" points="711.676,-520.707 719.557,-513.625 708.98,-514.247 711.676,-520.707"/>
</g>
<!-- Node4&#45;&gt;Node5 -->
<g id="edge4" class="edge"><title>Node4&#45;&gt;Node5</title>
<path fill="none" stroke="midnightblue" d="M744.933,-445.381C679.596,-438.326 576.027,-415.34 576.027,-340.5 576.027,-340.5 576.027,-340.5 576.027,-228.5 576.027,-197.018 576.027,-160.373 576.027,-138.881"/>
<polygon fill="midnightblue" stroke="midnightblue" points="579.527,-138.629 576.027,-128.629 572.527,-138.629 579.527,-138.629"/>
</g>
<!-- Node6 -->
<g id="node6" class="node"><title>Node6</title>
<polygon fill="white" stroke="#bfbfbf" points="901.734,-110.5 901.734,-128.5 958.32,-128.5 958.32,-110.5 901.734,-110.5"/>
<text text-anchor="middle" x="930.027" y="-116.5" font-family="Helvetica,sans-Serif" font-size="10.00">stdbool.h</text>
</g>
<!-- Node4&#45;&gt;Node6 -->
<g id="edge5" class="edge"><title>Node4&#45;&gt;Node6</title>
<path fill="none" stroke="midnightblue" d="M802.669,-440.15C820.948,-412.689 879.034,-322.177 908.027,-239 919.983,-204.7 925.84,-162.429 928.372,-138.769"/>
<polygon fill="midnightblue" stroke="midnightblue" points="931.86,-139.061 929.36,-128.766 924.894,-138.373 931.86,-139.061"/>
</g>
<!-- Node7 -->
<g id="node7" class="node"><title>Node7</title>
<g id="a_node7"><a xlink:href="$AP__HAL__Namespace_8h.html" xlink:title="AP_HAL_Namespace.h">
<polygon fill="white" stroke="black" points="963.219,-55.5 963.219,-73.5 1084.83,-73.5 1084.83,-55.5 963.219,-55.5"/>
<text text-anchor="middle" x="1024.03" y="-61.5" font-family="Helvetica,sans-Serif" font-size="10.00">AP_HAL_Namespace.h</text>
</a>
</g>
</g>
<!-- Node4&#45;&gt;Node7 -->
<g id="edge6" class="edge"><title>Node4&#45;&gt;Node7</title>
<path fill="none" stroke="midnightblue" d="M745.041,-446.947C568.079,-440.979 0.0270483,-415.945 0.0270483,-340.5 0.0270483,-340.5 0.0270483,-340.5 0.0270483,-173.5 0.0270483,-143.329 -0.405724,-127.701 24.027,-110 61.5393,-82.8238 730.397,-70.0457 952.789,-66.5352"/>
<polygon fill="midnightblue" stroke="midnightblue" points="953.094,-70.031 963.038,-66.375 952.984,-63.0318 953.094,-70.031"/>
</g>
<!-- Node10 -->
<g id="node10" class="node"><title>Node10</title>
<g id="a_node10"><a xlink:href="$AP__HAL__Boards_8h.html" xlink:title="AP_HAL_Boards.h">
<polygon fill="white" stroke="black" points="296.057,-165.5 296.057,-183.5 395.997,-183.5 395.997,-165.5 296.057,-165.5"/>
<text text-anchor="middle" x="346.027" y="-171.5" font-family="Helvetica,sans-Serif" font-size="10.00">AP_HAL_Boards.h</text>
</a>
</g>
</g>
<!-- Node4&#45;&gt;Node10 -->
<g id="edge9" class="edge"><title>Node4&#45;&gt;Node10</title>
<path fill="none" stroke="midnightblue" d="M744.982,-446.064C632.343,-439.372 376.027,-415.863 376.027,-340.5 376.027,-340.5 376.027,-340.5 376.027,-283.5 376.027,-250.538 362.894,-213.914 354.006,-192.904"/>
<polygon fill="midnightblue" stroke="midnightblue" points="357.181,-191.429 349.949,-183.686 350.774,-194.248 357.181,-191.429"/>
</g>
<!-- Node11 -->
<g id="node11" class="node"><title>Node11</title>
<g id="a_node11"><a xlink:href="$AP__HAL__Macros_8h.html" xlink:title="AP_HAL_Macros.h">
<polygon fill="white" stroke="black" points="208.508,-385.5 208.508,-403.5 309.547,-403.5 309.547,-385.5 208.508,-385.5"/>
<text text-anchor="middle" x="259.027" y="-391.5" font-family="Helvetica,sans-Serif" font-size="10.00">AP_HAL_Macros.h</text>
</a>
</g>
</g>
<!-- Node4&#45;&gt;Node11 -->
<g id="edge10" class="edge"><title>Node4&#45;&gt;Node11</title>
<path fill="none" stroke="midnightblue" d="M744.819,-444.211C657.579,-436.904 476.686,-421.157 324.027,-404 322.723,-403.853 321.404,-403.703 320.075,-403.549"/>
<polygon fill="midnightblue" stroke="midnightblue" points="320.093,-400.026 309.748,-402.313 319.261,-406.976 320.093,-400.026"/>
</g>
<!-- Node12 -->
<g id="node12" class="node"><title>Node12</title>
<g id="a_node12"><a xlink:href="$AP__HAL__Main_8h.html" xlink:title="AP_HAL_Main.h">
<polygon fill="white" stroke="black" points="901.062,-385.5 901.062,-403.5 990.992,-403.5 990.992,-385.5 901.062,-385.5"/>
<text text-anchor="middle" x="946.027" y="-391.5" font-family="Helvetica,sans-Serif" font-size="10.00">AP_HAL_Main.h</text>
</a>
</g>
</g>
<!-- Node4&#45;&gt;Node12 -->
<g id="edge11" class="edge"><title>Node4&#45;&gt;Node12</title>
<path fill="none" stroke="midnightblue" d="M819.657,-440.45C844.709,-431.539 885.294,-417.103 913.693,-407.001"/>
<polygon fill="midnightblue" stroke="midnightblue" points="914.935,-410.274 923.184,-403.625 912.589,-403.679 914.935,-410.274"/>
</g>
<!-- Node13 -->
<g id="node13" class="node"><title>Node13</title>
<g id="a_node13"><a xlink:href="$HAL_8h.html" xlink:title="HAL.h">
<polygon fill="white" stroke="black" points="956.131,-330.5 956.131,-348.5 999.924,-348.5 999.924,-330.5 956.131,-330.5"/>
<text text-anchor="middle" x="978.027" y="-336.5" font-family="Helvetica,sans-Serif" font-size="10.00">HAL.h</text>
</a>
</g>
</g>
<!-- Node4&#45;&gt;Node13 -->
<g id="edge69" class="edge"><title>Node4&#45;&gt;Node13</title>
<path fill="none" stroke="midnightblue" d="M849.159,-444.371C902.909,-438.903 981.425,-427.122 1000.03,-404 1011.07,-390.279 1001.44,-370.664 991.68,-356.874"/>
<polygon fill="midnightblue" stroke="midnightblue" points="994.328,-354.576 985.462,-348.774 988.775,-358.838 994.328,-354.576"/>
</g>
<!-- Node14 -->
<g id="node14" class="node"><title>Node14</title>
<g id="a_node14"><a xlink:href="$AnalogIn_8h.html" xlink:title="AnalogIn.h">
<polygon fill="white" stroke="black" points="1222.12,-220.5 1222.12,-238.5 1285.94,-238.5 1285.94,-220.5 1222.12,-220.5"/>
<text text-anchor="middle" x="1254.03" y="-226.5" font-family="Helvetica,sans-Serif" font-size="10.00">AnalogIn.h</text>
</a>
</g>
</g>
<!-- Node4&#45;&gt;Node14 -->
<g id="edge51" class="edge"><title>Node4&#45;&gt;Node14</title>
<path fill="none" stroke="midnightblue" d="M849.056,-447.532C909.591,-444.87 1011.63,-435.572 1093.03,-404 1133.94,-388.131 1236.37,-332.72 1257.03,-294 1264.41,-280.154 1262.67,-262.099 1259.66,-248.783"/>
<polygon fill="midnightblue" stroke="midnightblue" points="1262.98,-247.656 1257,-238.907 1256.22,-249.473 1262.98,-247.656"/>
</g>
<!-- Node16 -->
<g id="node16" class="node"><title>Node16</title>
<g id="a_node16"><a xlink:href="$GPIO_8h.html" xlink:title="GPIO.h">
<polygon fill="white" stroke="black" points="849.355,-220.5 849.355,-238.5 898.699,-238.5 898.699,-220.5 849.355,-220.5"/>
<text text-anchor="middle" x="874.027" y="-226.5" font-family="Helvetica,sans-Serif" font-size="10.00">GPIO.h</text>
</a>
</g>
</g>
<!-- Node4&#45;&gt;Node16 -->
<g id="edge53" class="edge"><title>Node4&#45;&gt;Node16</title>
<path fill="none" stroke="midnightblue" d="M796.179,-440.257C793.887,-414.153 789.696,-331.688 821.027,-275 827.929,-262.513 839.831,-252.035 850.611,-244.39"/>
<polygon fill="midnightblue" stroke="midnightblue" points="852.866,-247.094 859.267,-238.652 848.998,-241.26 852.866,-247.094"/>
</g>
<!-- Node17 -->
<g id="node17" class="node"><title>Node17</title>
<g id="a_node17"><a xlink:href="$RCInput_8h.html" xlink:title="RCInput.h">
<polygon fill="white" stroke="black" points="977.515,-275.5 977.515,-293.5 1038.54,-293.5 1038.54,-275.5 977.515,-275.5"/>
<text text-anchor="middle" x="1008.03" y="-281.5" font-family="Helvetica,sans-Serif" font-size="10.00">RCInput.h</text>
</a>
</g>
</g>
<!-- Node4&#45;&gt;Node17 -->
<g id="edge54" class="edge"><title>Node4&#45;&gt;Node17</title>
<path fill="none" stroke="midnightblue" d="M849.018,-445.385C907.243,-440.684 996.21,-429.45 1017.03,-404 1040.57,-375.214 1026.5,-328.217 1016.11,-302.925"/>
<polygon fill="midnightblue" stroke="midnightblue" points="1019.22,-301.291 1012,-293.531 1012.8,-304.095 1019.22,-301.291"/>
</g>
<!-- Node18 -->
<g id="node18" class="node"><title>Node18</title>
<g id="a_node18"><a xlink:href="$RCOutput_8h.html" xlink:title="RCOutput.h">
<polygon fill="white" stroke="black" points="1094.63,-275.5 1094.63,-293.5 1163.43,-293.5 1163.43,-275.5 1094.63,-275.5"/>
<text text-anchor="middle" x="1129.03" y="-281.5" font-family="Helvetica,sans-Serif" font-size="10.00">RCOutput.h</text>
</a>
</g>
</g>
<!-- Node4&#45;&gt;Node18 -->
<g id="edge55" class="edge"><title>Node4&#45;&gt;Node18</title>
<path fill="none" stroke="midnightblue" d="M849.243,-449.153C900.336,-447.519 978.632,-438.775 1036.03,-404 1076.9,-379.235 1106.81,-329.443 1120.58,-302.974"/>
<polygon fill="midnightblue" stroke="midnightblue" points="1123.84,-304.286 1125.2,-293.779 1117.58,-301.144 1123.84,-304.286"/>
</g>
<!-- Node19 -->
<g id="node19" class="node"><title>Node19</title>
<g id="a_node19"><a xlink:href="$SPIDriver_8h.html" xlink:title="SPIDriver.h">
<polygon fill="white" stroke="black" points="1181.74,-275.5 1181.74,-293.5 1248.32,-293.5 1248.32,-275.5 1181.74,-275.5"/>
<text text-anchor="middle" x="1215.03" y="-281.5" font-family="Helvetica,sans-Serif" font-size="10.00">SPIDriver.h</text>
</a>
</g>
</g>
<!-- Node4&#45;&gt;Node19 -->
<g id="edge50" class="edge"><title>Node4&#45;&gt;Node19</title>
<path fill="none" stroke="midnightblue" d="M848.957,-447.223C903.983,-444.2 992.37,-434.498 1062.03,-404 1119.51,-378.83 1174.56,-327.305 1200.13,-301.283"/>
<polygon fill="midnightblue" stroke="midnightblue" points="1202.93,-303.421 1207.36,-293.797 1197.89,-298.559 1202.93,-303.421"/>
</g>
<!-- Node20 -->
<g id="node20" class="node"><title>Node20</title>
<g id="a_node20"><a xlink:href="$Storage_8h.html" xlink:title="Storage.h">
<polygon fill="white" stroke="black" points="488.345,-275.5 488.345,-293.5 547.709,-293.5 547.709,-275.5 488.345,-275.5"/>
<text text-anchor="middle" x="518.027" y="-281.5" font-family="Helvetica,sans-Serif" font-size="10.00">Storage.h</text>
</a>
</g>
</g>
<!-- Node4&#45;&gt;Node20 -->
<g id="edge52" class="edge"><title>Node4&#45;&gt;Node20</title>
<path fill="none" stroke="midnightblue" d="M744.948,-444.566C684.334,-438.994 589.074,-426.837 562.027,-404 531.792,-378.471 522.32,-330.115 519.362,-303.754"/>
<polygon fill="midnightblue" stroke="midnightblue" points="522.834,-303.278 518.431,-293.641 515.863,-303.92 522.834,-303.278"/>
</g>
<!-- Node21 -->
<g id="node21" class="node"><title>Node21</title>
<g id="a_node21"><a xlink:href="$UARTDriver_8h.html" xlink:title="UARTDriver.h">
<polygon fill="white" stroke="black" points="653.275,-275.5 653.275,-293.5 730.779,-293.5 730.779,-275.5 653.275,-275.5"/>
<text text-anchor="middle" x="692.027" y="-281.5" font-family="Helvetica,sans-Serif" font-size="10.00">UARTDriver.h</text>
</a>
</g>
</g>
<!-- Node4&#45;&gt;Node21 -->
<g id="edge46" class="edge"><title>Node4&#45;&gt;Node21</title>
<path fill="none" stroke="midnightblue" d="M784.502,-440.231C773.005,-432.125 756.123,-418.848 745.027,-404 721.161,-372.063 704.97,-327.678 697.244,-303.299"/>
<polygon fill="midnightblue" stroke="midnightblue" points="700.558,-302.167 694.292,-293.623 693.862,-304.209 700.558,-302.167"/>
</g>
<!-- Node23 -->
<g id="node23" class="node"><title>Node23</title>
<g id="a_node23"><a xlink:href="$BetterStream_8h.html" xlink:title="utility/BetterStream.h">
<polygon fill="white" stroke="black" points="722.621,-220.5 722.621,-238.5 831.433,-238.5 831.433,-220.5 722.621,-220.5"/>
<text text-anchor="middle" x="777.027" y="-226.5" font-family="Helvetica,sans-Serif" font-size="10.00">utility/BetterStream.h</text>
</a>
</g>
</g>
<!-- Node4&#45;&gt;Node23 -->
<g id="edge68" class="edge"><title>Node4&#45;&gt;Node23</title>
<path fill="none" stroke="midnightblue" d="M793.771,-440.462C790.385,-431.672 785.27,-417.092 783.027,-404 773.459,-348.156 774.708,-280.772 776.046,-248.908"/>
<polygon fill="midnightblue" stroke="midnightblue" points="779.561,-248.688 776.542,-238.533 772.569,-248.355 779.561,-248.688"/>
</g>
<!-- Node25 -->
<g id="node25" class="node"><title>Node25</title>
<g id="a_node25"><a xlink:href="$Stream_8h.html" xlink:title="Stream.h">
<polygon fill="white" stroke="black" points="995.741,-165.5 995.741,-183.5 1052.31,-183.5 1052.31,-165.5 995.741,-165.5"/>
<text text-anchor="middle" x="1024.03" y="-171.5" font-family="Helvetica,sans-Serif" font-size="10.00">Stream.h</text>
</a>
</g>
</g>
<!-- Node4&#45;&gt;Node25 -->
<g id="edge67" class="edge"><title>Node4&#45;&gt;Node25</title>
<path fill="none" stroke="midnightblue" d="M807.965,-440.243C818.909,-431.735 835.953,-417.803 849.027,-404 918.082,-331.093 986.565,-231.835 1012.82,-192.53"/>
<polygon fill="midnightblue" stroke="midnightblue" points="1015.94,-194.149 1018.56,-183.882 1010.11,-190.279 1015.94,-194.149"/>
</g>
<!-- Node26 -->
<g id="node26" class="node"><title>Node26</title>
<g id="a_node26"><a xlink:href="$Print_8h.html" xlink:title="Print.h">
<polygon fill="white" stroke="black" points="1297.58,-110.5 1297.58,-128.5 1342.48,-128.5 1342.48,-110.5 1297.58,-110.5"/>
<text text-anchor="middle" x="1320.03" y="-116.5" font-family="Helvetica,sans-Serif" font-size="10.00">Print.h</text>
</a>
</g>
</g>
<!-- Node4&#45;&gt;Node26 -->
<g id="edge66" class="edge"><title>Node4&#45;&gt;Node26</title>
<path fill="none" stroke="midnightblue" d="M849.24,-449.306C987.4,-450.043 1352.03,-442.343 1352.03,-340.5 1352.03,-340.5 1352.03,-340.5 1352.03,-228.5 1352.03,-195.376 1338.02,-158.805 1328.54,-137.849"/>
<polygon fill="midnightblue" stroke="midnightblue" points="1331.64,-136.213 1324.21,-128.657 1325.3,-139.195 1331.64,-136.213"/>
</g>
<!-- Node27 -->
<g id="node27" class="node"><title>Node27</title>
<g id="a_node27"><a xlink:href="$I2CDriver_8h.html" xlink:title="I2CDriver.h">
<polygon fill="white" stroke="black" points="212.017,-165.5 212.017,-183.5 278.037,-183.5 278.037,-165.5 212.017,-165.5"/>
<text text-anchor="middle" x="245.027" y="-171.5" font-family="Helvetica,sans-Serif" font-size="10.00">I2CDriver.h</text>
</a>
</g>
</g>
<!-- Node4&#45;&gt;Node27 -->
<g id="edge47" class="edge"><title>Node4&#45;&gt;Node27</title>
<path fill="none" stroke="midnightblue" d="M745.022,-446.023C654.992,-441.143 474.151,-428.559 416.027,-404 374.85,-386.601 338.027,-385.202 338.027,-340.5 338.027,-340.5 338.027,-340.5 338.027,-283.5 338.027,-241.039 296.24,-206.976 268.687,-189.13"/>
<polygon fill="midnightblue" stroke="midnightblue" points="270.31,-186.018 259.969,-183.712 266.614,-191.963 270.31,-186.018"/>
</g>
<!-- Node28 -->
<g id="node28" class="node"><title>Node28</title>
<g id="a_node28"><a xlink:href="$Scheduler_8h.html" xlink:title="Scheduler.h">
<polygon fill="white" stroke="black" points="403.616,-220.5 403.616,-238.5 472.438,-238.5 472.438,-220.5 403.616,-220.5"/>
<text text-anchor="middle" x="438.027" y="-226.5" font-family="Helvetica,sans-Serif" font-size="10.00">Scheduler.h</text>
</a>
</g>
</g>
<!-- Node4&#45;&gt;Node28 -->
<g id="edge56" class="edge"><title>Node4&#45;&gt;Node28</title>
<path fill="none" stroke="midnightblue" d="M744.878,-444.446C680.355,-438.574 575.081,-425.929 543.027,-404 486.145,-365.085 454.86,-284.239 443.285,-248.341"/>
<polygon fill="midnightblue" stroke="midnightblue" points="446.615,-247.26 440.319,-238.739 439.927,-249.326 446.615,-247.26"/>
</g>
<!-- Node29 -->
<g id="node29" class="node"><title>Node29</title>
<g id="a_node29"><a xlink:href="$Semaphores_8h.html" xlink:title="Semaphores.h">
<polygon fill="white" stroke="black" points="1242.51,-330.5 1242.51,-348.5 1323.55,-348.5 1323.55,-330.5 1242.51,-330.5"/>
<text text-anchor="middle" x="1283.03" y="-336.5" font-family="Helvetica,sans-Serif" font-size="10.00">Semaphores.h</text>
</a>
</g>
</g>
<!-- Node4&#45;&gt;Node29 -->
<g id="edge61" class="edge"><title>Node4&#45;&gt;Node29</title>
<path fill="none" stroke="midnightblue" d="M849.234,-447.862C949.162,-445.875 1163.3,-437.691 1228.03,-404 1247.98,-393.615 1263.85,-372.697 1273.32,-357.706"/>
<polygon fill="midnightblue" stroke="midnightblue" points="1276.47,-359.26 1278.59,-348.881 1270.46,-355.669 1276.47,-359.26"/>
</g>
<!-- Node30 -->
<g id="node30" class="node"><title>Node30</title>
<g id="a_node30"><a xlink:href="$Util_8h.html" xlink:title="Util.h">
<polygon fill="white" stroke="black" points="148.635,-220.5 148.635,-238.5 187.419,-238.5 187.419,-220.5 148.635,-220.5"/>
<text text-anchor="middle" x="168.027" y="-226.5" font-family="Helvetica,sans-Serif" font-size="10.00">Util.h</text>
</a>
</g>
</g>
<!-- Node4&#45;&gt;Node30 -->
<g id="edge63" class="edge"><title>Node4&#45;&gt;Node30</title>
<path fill="none" stroke="midnightblue" d="M745.086,-448.209C607.097,-446.945 239.121,-440.18 199.027,-404 154.751,-364.046 159.925,-284.359 164.916,-248.601"/>
<polygon fill="midnightblue" stroke="midnightblue" points="168.387,-249.06 166.467,-238.641 161.47,-247.983 168.387,-249.06"/>
</g>
<!-- Node7&#45;&gt;Node8 -->
<g id="edge7" class="edge"><title>Node7&#45;&gt;Node8</title>
<path fill="none" stroke="midnightblue" d="M1077.94,-55.4504C1151.84,-44.4185 1282.46,-24.9175 1344.48,-15.6581"/>
<polygon fill="midnightblue" stroke="midnightblue" points="1345.15,-19.0959 1354.53,-14.1576 1344.12,-12.1726 1345.15,-19.0959"/>
</g>
<!-- Node9 -->
<g id="node9" class="node"><title>Node9</title>
<g id="a_node9"><a xlink:href="$functor_8h.html" xlink:title="utility/functor.h">
<polygon fill="white" stroke="black" points="984.064,-0.5 984.064,-18.5 1063.99,-18.5 1063.99,-0.5 984.064,-0.5"/>
<text text-anchor="middle" x="1024.03" y="-6.5" font-family="Helvetica,sans-Serif" font-size="10.00">utility/functor.h</text>
</a>
</g>
</g>
<!-- Node7&#45;&gt;Node9 -->
<g id="edge8" class="edge"><title>Node7&#45;&gt;Node9</title>
<path fill="none" stroke="midnightblue" d="M1024.03,-55.2188C1024.03,-48.1769 1024.03,-37.8083 1024.03,-28.8277"/>
<polygon fill="midnightblue" stroke="midnightblue" points="1027.53,-28.5495 1024.03,-18.5496 1020.53,-28.5496 1027.53,-28.5495"/>
</g>
<!-- Node12&#45;&gt;Node13 -->
<g id="edge12" class="edge"><title>Node12&#45;&gt;Node13</title>
<path fill="none" stroke="midnightblue" d="M951.027,-385.219C955.515,-377.786 962.241,-366.646 967.857,-357.345"/>
<polygon fill="midnightblue" stroke="midnightblue" points="970.994,-358.919 973.167,-348.55 965.002,-355.301 970.994,-358.919"/>
</g>
<!-- Node13&#45;&gt;Node7 -->
<g id="edge13" class="edge"><title>Node13&#45;&gt;Node7</title>
<path fill="none" stroke="midnightblue" d="M974.029,-330.343C968.529,-317.919 960.152,-293.723 968.027,-275 990.447,-221.694 1038.61,-237.306 1061.03,-184 1075.86,-148.729 1052.33,-105.386 1036.5,-82.1311"/>
<polygon fill="midnightblue" stroke="midnightblue" points="1039.18,-79.851 1030.52,-73.7366 1033.48,-83.9122 1039.18,-79.851"/>
</g>
<!-- Node13&#45;&gt;Node14 -->
<g id="edge14" class="edge"><title>Node13&#45;&gt;Node14</title>
<path fill="none" stroke="midnightblue" d="M990.91,-330.324C1015.11,-315.069 1066.66,-283.081 1086.03,-275 1127.29,-257.787 1177.07,-245.592 1211.68,-238.372"/>
<polygon fill="midnightblue" stroke="midnightblue" points="1212.81,-241.715 1221.91,-236.292 1211.41,-234.855 1212.81,-241.715"/>
</g>
<!-- Node13&#45;&gt;Node16 -->
<g id="edge17" class="edge"><title>Node13&#45;&gt;Node16</title>
<path fill="none" stroke="midnightblue" d="M970.095,-330.305C961.461,-321.382 947.251,-306.688 935.027,-294 919.366,-277.745 901.478,-259.116 889.141,-246.259"/>
<polygon fill="midnightblue" stroke="midnightblue" points="891.364,-243.521 881.916,-238.727 886.313,-248.367 891.364,-243.521"/>
</g>
<!-- Node13&#45;&gt;Node17 -->
<g id="edge20" class="edge"><title>Node13&#45;&gt;Node17</title>
<path fill="none" stroke="midnightblue" d="M982.715,-330.219C986.922,-322.786 993.227,-311.646 998.492,-302.345"/>
<polygon fill="midnightblue" stroke="midnightblue" points="1001.59,-303.976 1003.47,-293.55 995.499,-300.528 1001.59,-303.976"/>
</g>
<!-- Node13&#45;&gt;Node18 -->
<g id="edge22" class="edge"><title>Node13&#45;&gt;Node18</title>
<path fill="none" stroke="midnightblue" d="M999.984,-330.793C1025.3,-321.907 1067.16,-307.213 1096.32,-296.98"/>
<polygon fill="midnightblue" stroke="midnightblue" points="1097.78,-300.178 1106.05,-293.564 1095.46,-293.573 1097.78,-300.178"/>
</g>
<!-- Node13&#45;&gt;Node19 -->
<g id="edge24" class="edge"><title>Node13&#45;&gt;Node19</title>
<path fill="none" stroke="midnightblue" d="M1000.32,-333.514C1039.46,-324.763 1121.14,-306.497 1171.7,-295.188"/>
<polygon fill="midnightblue" stroke="midnightblue" points="1172.69,-298.554 1181.69,-292.956 1171.17,-291.722 1172.69,-298.554"/>
</g>
<!-- Node13&#45;&gt;Node20 -->
<g id="edge26" class="edge"><title>Node13&#45;&gt;Node20</title>
<path fill="none" stroke="midnightblue" d="M955.84,-335.944C883.175,-327.571 651.638,-300.894 557.948,-290.1"/>
<polygon fill="midnightblue" stroke="midnightblue" points="558.082,-286.592 547.747,-288.924 557.281,-293.546 558.082,-286.592"/>
</g>
<!-- Node13&#45;&gt;Node21 -->
<g id="edge29" class="edge"><title>Node13&#45;&gt;Node21</title>
<path fill="none" stroke="midnightblue" d="M956.06,-334.429C910.339,-325.956 803.986,-306.248 741.097,-294.593"/>
<polygon fill="midnightblue" stroke="midnightblue" points="741.486,-291.106 731.016,-292.725 740.211,-297.989 741.486,-291.106"/>
</g>
<!-- Node14&#45;&gt;Node7 -->
<g id="edge16" class="edge"><title>Node14&#45;&gt;Node7</title>
<path fill="none" stroke="midnightblue" d="M1253.39,-220.444C1251.26,-198.995 1242.4,-140.084 1208.03,-110 1177.28,-83.094 1133.01,-71.8256 1095.59,-67.3523"/>
<polygon fill="midnightblue" stroke="midnightblue" points="1095.55,-63.8286 1085.24,-66.2634 1094.82,-70.7902 1095.55,-63.8286"/>
</g>
<!-- Node15 -->
<g id="node15" class="node"><title>Node15</title>
<polygon fill="white" stroke="#bfbfbf" points="1343.63,-55.5 1343.63,-73.5 1402.43,-73.5 1402.43,-55.5 1343.63,-55.5"/>
<text text-anchor="middle" x="1373.03" y="-61.5" font-family="Helvetica,sans-Serif" font-size="10.00">inttypes.h</text>
</g>
<!-- Node14&#45;&gt;Node15 -->
<g id="edge15" class="edge"><title>Node14&#45;&gt;Node15</title>
<path fill="none" stroke="midnightblue" d="M1264.62,-220.343C1284.3,-204.675 1326.69,-168.413 1351.03,-129 1359.74,-114.884 1365.56,-96.8595 1369.02,-83.6228"/>
<polygon fill="midnightblue" stroke="midnightblue" points="1372.44,-84.362 1371.37,-73.821 1365.63,-82.7264 1372.44,-84.362"/>
</g>
<!-- Node16&#45;&gt;Node5 -->
<g id="edge18" class="edge"><title>Node16&#45;&gt;Node5</title>
<path fill="none" stroke="midnightblue" d="M866.841,-220.402C854.18,-206.682 826.442,-178.998 797.027,-165 735.518,-135.73 655.494,-125.691 610.561,-122.262"/>
<polygon fill="midnightblue" stroke="midnightblue" points="610.678,-118.762 600.459,-121.559 610.191,-125.745 610.678,-118.762"/>
</g>
<!-- Node16&#45;&gt;Node7 -->
<g id="edge19" class="edge"><title>Node16&#45;&gt;Node7</title>
<path fill="none" stroke="midnightblue" d="M881.8,-220.297C897.839,-203.344 935.724,-163.175 967.027,-129 981.802,-112.87 998.496,-94.2218 1009.98,-81.3266"/>
<polygon fill="midnightblue" stroke="midnightblue" points="1012.67,-83.5663 1016.7,-73.7676 1007.44,-78.9147 1012.67,-83.5663"/>
</g>
<!-- Node17&#45;&gt;Node7 -->
<g id="edge21" class="edge"><title>Node17&#45;&gt;Node7</title>
<path fill="none" stroke="midnightblue" d="M1019.7,-275.344C1040.13,-260.204 1081.37,-225.494 1094.03,-184 1103.62,-152.542 1109.86,-138.827 1094.03,-110 1086.08,-95.5399 1071.23,-85.1101 1057.25,-77.9992"/>
<polygon fill="midnightblue" stroke="midnightblue" points="1058.34,-74.6473 1047.8,-73.5978 1055.38,-80.9928 1058.34,-74.6473"/>
</g>
<!-- Node18&#45;&gt;Node7 -->
<g id="edge23" class="edge"><title>Node18&#45;&gt;Node7</title>
<path fill="none" stroke="midnightblue" d="M1130.76,-275.338C1135.91,-248.779 1148.61,-163.451 1112.03,-110 1101.36,-94.4102 1083.54,-83.9922 1066.71,-77.184"/>
<polygon fill="midnightblue" stroke="midnightblue" points="1067.58,-73.7714 1056.98,-73.5808 1065.14,-80.3358 1067.58,-73.7714"/>
</g>
<!-- Node19&#45;&gt;Node7 -->
<g id="edge25" class="edge"><title>Node19&#45;&gt;Node7</title>
<path fill="none" stroke="midnightblue" d="M1213.33,-275.371C1207.27,-248.18 1184.18,-159.339 1132.03,-110 1115.05,-93.9377 1091.47,-83.3187 1070.67,-76.4973"/>
<polygon fill="midnightblue" stroke="midnightblue" points="1071.63,-73.1287 1061.04,-73.5356 1069.57,-79.8197 1071.63,-73.1287"/>
</g>
<!-- Node20&#45;&gt;Node5 -->
<g id="edge27" class="edge"><title>Node20&#45;&gt;Node5</title>
<path fill="none" stroke="midnightblue" d="M520.983,-275.193C529.982,-249.903 557.185,-173.453 569.656,-138.405"/>
<polygon fill="midnightblue" stroke="midnightblue" points="573.091,-139.192 573.146,-128.597 566.496,-136.845 573.091,-139.192"/>
</g>
<!-- Node20&#45;&gt;Node7 -->
<g id="edge28" class="edge"><title>Node20&#45;&gt;Node7</title>
<path fill="none" stroke="midnightblue" d="M516.178,-275.433C510.339,-247.668 495.379,-155.285 543.027,-110 572.102,-82.367 826.366,-71.1825 952.994,-67.2947"/>
<polygon fill="midnightblue" stroke="midnightblue" points="953.104,-70.7931 962.994,-66.9948 952.894,-63.7963 953.104,-70.7931"/>
</g>
<!-- Node21&#45;&gt;Node5 -->
<g id="edge30" class="edge"><title>Node21&#45;&gt;Node5</title>
<path fill="none" stroke="midnightblue" d="M686.115,-275.193C667.884,-249.575 612.292,-171.459 587.812,-137.06"/>
<polygon fill="midnightblue" stroke="midnightblue" points="590.439,-134.715 581.789,-128.597 584.736,-138.774 590.439,-134.715"/>
</g>
<!-- Node21&#45;&gt;Node7 -->
<g id="edge35" class="edge"><title>Node21&#45;&gt;Node7</title>
<path fill="none" stroke="midnightblue" d="M692.753,-275.423C694.345,-262.225 699.274,-235.915 714.027,-220 741.363,-190.512 764.016,-206.958 797.027,-184 834.447,-157.977 828.98,-133.511 868.027,-110 896.207,-93.032 931.146,-82.2841 960.81,-75.6125"/>
<polygon fill="midnightblue" stroke="midnightblue" points="961.606,-79.0215 970.65,-73.5032 960.138,-72.1769 961.606,-79.0215"/>
</g>
<!-- Node22 -->
<g id="node22" class="node"><title>Node22</title>
<g id="a_node22"><a xlink:href="$AP__Common_8h.html" xlink:title="Common definitions and utility routines for the ArduPilot libraries. ">
<polygon fill="white" stroke="black" points="642,-165.5 642,-183.5 788.054,-183.5 788.054,-165.5 642,-165.5"/>
<text text-anchor="middle" x="715.027" y="-171.5" font-family="Helvetica,sans-Serif" font-size="10.00">AP_Common/AP_Common.h</text>
</a>
</g>
</g>
<!-- Node21&#45;&gt;Node22 -->
<g id="edge31" class="edge"><title>Node21&#45;&gt;Node22</title>
<path fill="none" stroke="midnightblue" d="M688.165,-275.485C682.814,-263.246 674.502,-239.289 681.027,-220 684.681,-209.2 692.121,-198.957 699.113,-191.027"/>
<polygon fill="midnightblue" stroke="midnightblue" points="701.736,-193.347 706.058,-183.674 696.647,-188.54 701.736,-193.347"/>
</g>
<!-- Node21&#45;&gt;Node23 -->
<g id="edge36" class="edge"><title>Node21&#45;&gt;Node23</title>
<path fill="none" stroke="midnightblue" d="M704.937,-275.45C718.292,-267.123 739.386,-253.97 755.313,-244.039"/>
<polygon fill="midnightblue" stroke="midnightblue" points="757.362,-246.886 763.996,-238.625 753.658,-240.946 757.362,-246.886"/>
</g>
<!-- Node22&#45;&gt;Node2 -->
<g id="edge33" class="edge"><title>Node22&#45;&gt;Node2</title>
<path fill="none" stroke="midnightblue" d="M641.779,-167.6C500.071,-156.186 193.346,-131.48 91.0253,-123.238"/>
<polygon fill="midnightblue" stroke="midnightblue" points="91.1952,-119.741 80.9465,-122.427 90.6332,-126.718 91.1952,-119.741"/>
</g>
<!-- Node22&#45;&gt;Node5 -->
<g id="edge32" class="edge"><title>Node22&#45;&gt;Node5</title>
<path fill="none" stroke="midnightblue" d="M693.916,-165.45C670.75,-156.617 633.344,-142.355 606.888,-132.267"/>
<polygon fill="midnightblue" stroke="midnightblue" points="607.928,-128.918 597.337,-128.625 605.434,-135.458 607.928,-128.918"/>
</g>
<!-- Node22&#45;&gt;Node6 -->
<g id="edge34" class="edge"><title>Node22&#45;&gt;Node6</title>
<path fill="none" stroke="midnightblue" d="M747.681,-165.45C786.342,-155.92 850.643,-140.069 891.648,-129.961"/>
<polygon fill="midnightblue" stroke="midnightblue" points="892.669,-133.314 901.541,-127.522 890.994,-126.517 892.669,-133.314"/>
</g>
<!-- Node23&#45;&gt;Node7 -->
<g id="edge39" class="edge"><title>Node23&#45;&gt;Node7</title>
<path fill="none" stroke="midnightblue" d="M787.631,-220.454C798.661,-211.893 816.217,-197.716 830.027,-184 860.674,-153.562 857.293,-134.264 893.027,-110 916.885,-93.8003 947.179,-83.0077 972.624,-76.1136"/>
<polygon fill="midnightblue" stroke="midnightblue" points="973.667,-79.4593 982.474,-73.5707 971.917,-72.6815 973.667,-79.4593"/>
</g>
<!-- Node23&#45;&gt;Node22 -->
<g id="edge38" class="edge"><title>Node23&#45;&gt;Node22</title>
<path fill="none" stroke="midnightblue" d="M767.611,-220.45C758.233,-212.434 743.625,-199.947 732.184,-190.166"/>
<polygon fill="midnightblue" stroke="midnightblue" points="734.408,-187.463 724.532,-183.625 729.859,-192.784 734.408,-187.463"/>
</g>
<!-- Node24 -->
<g id="node24" class="node"><title>Node24</title>
<polygon fill="white" stroke="#bfbfbf" points="141.961,-165.5 141.961,-183.5 194.093,-183.5 194.093,-165.5 141.961,-165.5"/>
<text text-anchor="middle" x="168.027" y="-171.5" font-family="Helvetica,sans-Serif" font-size="10.00">stdarg.h</text>
</g>
<!-- Node23&#45;&gt;Node24 -->
<g id="edge37" class="edge"><title>Node23&#45;&gt;Node24</title>
<path fill="none" stroke="midnightblue" d="M722.475,-227.19C621.77,-224.136 399.831,-214.449 204.193,-183.926"/>
<polygon fill="midnightblue" stroke="midnightblue" points="204.733,-180.468 194.308,-182.363 203.639,-187.382 204.733,-180.468"/>
</g>
<!-- Node23&#45;&gt;Node25 -->
<g id="edge40" class="edge"><title>Node23&#45;&gt;Node25</title>
<path fill="none" stroke="midnightblue" d="M814.541,-220.45C860.713,-210.543 938.717,-193.805 985.395,-183.789"/>
<polygon fill="midnightblue" stroke="midnightblue" points="986.378,-187.158 995.421,-181.638 984.91,-180.314 986.378,-187.158"/>
</g>
<!-- Node25&#45;&gt;Node7 -->
<g id="edge41" class="edge"><title>Node25&#45;&gt;Node7</title>
<path fill="none" stroke="midnightblue" d="M1024.03,-165.382C1024.03,-148.182 1024.03,-107.698 1024.03,-83.8866"/>
<polygon fill="midnightblue" stroke="midnightblue" points="1027.53,-83.7117 1024.03,-73.7118 1020.53,-83.7118 1027.53,-83.7117"/>
</g>
<!-- Node25&#45;&gt;Node26 -->
<g id="edge42" class="edge"><title>Node25&#45;&gt;Node26</title>
<path fill="none" stroke="midnightblue" d="M1052.41,-168.418C1107.58,-158.54 1228.98,-136.802 1287.39,-126.345"/>
<polygon fill="midnightblue" stroke="midnightblue" points="1288.3,-129.737 1297.53,-124.529 1287.07,-122.846 1288.3,-129.737"/>
</g>
<!-- Node26&#45;&gt;Node7 -->
<g id="edge43" class="edge"><title>Node26&#45;&gt;Node7</title>
<path fill="none" stroke="midnightblue" d="M1297.22,-112.889C1292.85,-111.878 1288.31,-110.871 1284.03,-110 1216.99,-96.3637 1139.67,-83.4903 1086.88,-75.132"/>
<polygon fill="midnightblue" stroke="midnightblue" points="1087.41,-71.6728 1076.99,-73.5732 1086.32,-78.5874 1087.41,-71.6728"/>
</g>
<!-- Node26&#45;&gt;Node8 -->
<g id="edge45" class="edge"><title>Node26&#45;&gt;Node8</title>
<path fill="none" stroke="midnightblue" d="M1320.56,-110.171C1321.67,-97.5211 1325.04,-73.0344 1335.03,-55 1341.31,-43.6488 1351.31,-33.2031 1360.19,-25.2888"/>
<polygon fill="midnightblue" stroke="midnightblue" points="1362.51,-27.9081 1367.89,-18.7788 1357.99,-22.5627 1362.51,-27.9081"/>
</g>
<!-- Node26&#45;&gt;Node15 -->
<g id="edge44" class="edge"><title>Node26&#45;&gt;Node15</title>
<path fill="none" stroke="midnightblue" d="M1328.31,-110.219C1336.13,-102.394 1348.06,-90.4631 1357.63,-80.8921"/>
<polygon fill="midnightblue" stroke="midnightblue" points="1360.38,-83.0955 1364.98,-73.5496 1355.43,-78.1458 1360.38,-83.0955"/>
</g>
<!-- Node27&#45;&gt;Node5 -->
<g id="edge48" class="edge"><title>Node27&#45;&gt;Node5</title>
<path fill="none" stroke="midnightblue" d="M278.471,-166.584C281.361,-166.031 284.244,-165.496 287.027,-165 378.629,-148.688 487.201,-132.923 541.491,-125.283"/>
<polygon fill="midnightblue" stroke="midnightblue" points="542.187,-128.72 551.605,-123.866 541.216,-121.788 542.187,-128.72"/>
</g>
<!-- Node27&#45;&gt;Node7 -->
<g id="edge49" class="edge"><title>Node27&#45;&gt;Node7</title>
<path fill="none" stroke="midnightblue" d="M261.383,-165.328C290.458,-151.234 353.412,-122.652 410.027,-110 511.657,-87.2881 814.35,-73.3678 953.108,-68.0151"/>
<polygon fill="midnightblue" stroke="midnightblue" points="953.352,-71.5084 963.211,-67.6293 953.085,-64.5135 953.352,-71.5084"/>
</g>
<!-- Node28&#45;&gt;Node5 -->
<g id="edge57" class="edge"><title>Node28&#45;&gt;Node5</title>
<path fill="none" stroke="midnightblue" d="M448.399,-220.382C471.576,-202.244 527.839,-158.212 557.313,-135.145"/>
<polygon fill="midnightblue" stroke="midnightblue" points="559.816,-137.631 565.534,-128.712 555.502,-132.119 559.816,-137.631"/>
</g>
<!-- Node28&#45;&gt;Node7 -->
<g id="edge60" class="edge"><title>Node28&#45;&gt;Node7</title>
<path fill="none" stroke="midnightblue" d="M438.534,-220.45C440.393,-198.488 448.837,-137.358 486.027,-110 522.807,-82.9441 815.342,-71.2933 952.946,-67.2721"/>
<polygon fill="midnightblue" stroke="midnightblue" points="953.083,-70.7697 962.979,-66.9844 952.882,-63.7725 953.083,-70.7697"/>
</g>
<!-- Node28&#45;&gt;Node10 -->
<g id="edge59" class="edge"><title>Node28&#45;&gt;Node10</title>
<path fill="none" stroke="midnightblue" d="M424.054,-220.45C409.464,-212.045 386.341,-198.724 369.048,-188.762"/>
<polygon fill="midnightblue" stroke="midnightblue" points="370.544,-185.584 360.131,-183.625 367.049,-191.65 370.544,-185.584"/>
</g>
<!-- Node28&#45;&gt;Node22 -->
<g id="edge58" class="edge"><title>Node28&#45;&gt;Node22</title>
<path fill="none" stroke="midnightblue" d="M472.549,-221.895C520.335,-212.752 607.037,-196.162 662.777,-185.497"/>
<polygon fill="midnightblue" stroke="midnightblue" points="663.644,-188.895 672.808,-183.578 662.329,-182.02 663.644,-188.895"/>
</g>
<!-- Node29&#45;&gt;Node7 -->
<g id="edge62" class="edge"><title>Node29&#45;&gt;Node7</title>
<path fill="none" stroke="midnightblue" d="M1285.87,-330.285C1292.2,-310.778 1306.04,-260.291 1295.03,-220 1280.05,-165.224 1276.08,-143.222 1230.03,-110 1191.02,-81.86 1137.75,-70.8861 1095.15,-66.8687"/>
<polygon fill="midnightblue" stroke="midnightblue" points="1095.38,-63.3758 1085.13,-66.0313 1094.8,-70.3515 1095.38,-63.3758"/>
</g>
<!-- Node30&#45;&gt;Node7 -->
<g id="edge65" class="edge"><title>Node30&#45;&gt;Node7</title>
<path fill="none" stroke="midnightblue" d="M157.428,-220.19C142.606,-207.566 118.998,-183.112 133.027,-165 192.899,-87.7042 249.49,-125.492 346.027,-110 565.237,-74.8224 828.588,-67.3168 952.691,-65.8085"/>
<polygon fill="midnightblue" stroke="midnightblue" points="952.863,-69.3069 962.823,-65.695 952.785,-62.3073 952.863,-69.3069"/>
</g>
<!-- Node30&#45;&gt;Node24 -->
<g id="edge64" class="edge"><title>Node30&#45;&gt;Node24</title>
<path fill="none" stroke="midnightblue" d="M168.027,-220.219C168.027,-213.177 168.027,-202.808 168.027,-193.828"/>
<polygon fill="midnightblue" stroke="midnightblue" points="171.527,-193.55 168.027,-183.55 164.527,-193.55 171.527,-193.55"/>
</g>
<!-- Node34&#45;&gt;Node5 -->
<g id="edge77" class="edge"><title>Node34&#45;&gt;Node5</title>
<path fill="none" stroke="midnightblue" d="M1379.86,-168.912C1197.1,-157.906 739.366,-130.337 610.356,-122.568"/>
<polygon fill="midnightblue" stroke="midnightblue" points="610.46,-119.068 600.268,-121.96 610.04,-126.055 610.46,-119.068"/>
</g>
<!-- Node34&#45;&gt;Node8 -->
<g id="edge76" class="edge"><title>Node34&#45;&gt;Node8</title>
<path fill="none" stroke="midnightblue" d="M1453.76,-165.425C1448.08,-145.806 1432.18,-94.3494 1411.03,-55 1405.67,-45.0282 1398.38,-34.7142 1392.11,-26.5295"/>
<polygon fill="midnightblue" stroke="midnightblue" points="1394.79,-24.2802 1385.85,-18.601 1389.3,-28.6183 1394.79,-24.2802"/>
</g>
<!-- Node35&#45;&gt;Node4 -->
<g id="edge79" class="edge"><title>Node35&#45;&gt;Node4</title>
<path fill="none" stroke="midnightblue" d="M748.09,-495.219C756.823,-487.238 770.233,-474.984 780.808,-465.321"/>
<polygon fill="midnightblue" stroke="midnightblue" points="783.197,-467.879 788.218,-458.55 778.475,-462.712 783.197,-467.879"/>
</g>
</g>
</svg>
