<?xml version="1.0" encoding="UTF-8" standalone="no"?>
<!DOCTYPE svg PUBLIC "-//W3C//DTD SVG 1.1//EN"
 "http://www.w3.org/Graphics/SVG/1.1/DTD/svg11.dtd">
<!-- Generated by graphviz version 2.38.0 (20140413.2041)
 -->
<!-- Title: libraries/APM_OBC/APM_OBC.h Pages: 1 -->
<svg width="135pt" height="102pt"
 viewBox="0.00 0.00 135.14 102.00" xmlns="http://www.w3.org/2000/svg" xmlns:xlink="http://www.w3.org/1999/xlink">
<g id="graph0" class="graph" transform="scale(1 1) rotate(0) translate(4 98)">
<title>libraries/APM_OBC/APM_OBC.h</title>
<polygon fill="white" stroke="none" points="-4,4 -4,-98 131.138,-98 131.138,4 -4,4"/>
<!-- Node1 -->
<g id="node1" class="node"><title>Node1</title>
<polygon fill="#bfbfbf" stroke="black" points="0,-65.5 0,-93.5 127.138,-93.5 127.138,-65.5 0,-65.5"/>
<text text-anchor="start" x="8" y="-81.5" font-family="Helvetica,sans-Serif" font-size="10.00">libraries/APM_OBC/APM</text>
<text text-anchor="middle" x="63.5688" y="-71.5" font-family="Helvetica,sans-Serif" font-size="10.00">_OBC.h</text>
</g>
<!-- Node2 -->
<g id="node2" class="node"><title>Node2</title>
<g id="a_node2"><a xlink:href="$APM__OBC_8cpp.html" xlink:title="libraries/APM_OBC/APM\l_OBC.cpp">
<polygon fill="white" stroke="black" points="0,-0.5 0,-28.5 127.138,-28.5 127.138,-0.5 0,-0.5"/>
<text text-anchor="start" x="8" y="-16.5" font-family="Helvetica,sans-Serif" font-size="10.00">libraries/APM_OBC/APM</text>
<text text-anchor="middle" x="63.5688" y="-6.5" font-family="Helvetica,sans-Serif" font-size="10.00">_OBC.cpp</text>
</a>
</g>
</g>
<!-- Node1&#45;&gt;Node2 -->
<g id="edge1" class="edge"><title>Node1&#45;&gt;Node2</title>
<path fill="none" stroke="midnightblue" d="M63.5688,-55.1641C63.5688,-46.1693 63.5688,-36.2205 63.5688,-28.5369"/>
<polygon fill="midnightblue" stroke="midnightblue" points="60.0689,-55.4463 63.5688,-65.4464 67.0689,-55.4464 60.0689,-55.4463"/>
</g>
</g>
</svg>
