<?xml version="1.0" encoding="UTF-8" standalone="no"?>
<!DOCTYPE svg PUBLIC "-//W3C//DTD SVG 1.1//EN"
 "http://www.w3.org/Graphics/SVG/1.1/DTD/svg11.dtd">
<!-- Generated by graphviz version 2.38.0 (20140413.2041)
 -->
<!-- Title: libraries/Filter/AverageFilter.h Pages: 1 -->
<svg width="149pt" height="202pt"
 viewBox="0.00 0.00 149.19 202.00" xmlns="http://www.w3.org/2000/svg" xmlns:xlink="http://www.w3.org/1999/xlink">
<g id="graph0" class="graph" transform="scale(1 1) rotate(0) translate(4 198)">
<title>libraries/Filter/AverageFilter.h</title>
<polygon fill="white" stroke="none" points="-4,4 -4,-198 145.188,-198 145.188,4 -4,4"/>
<!-- Node1 -->
<g id="node1" class="node"><title>Node1</title>
<polygon fill="#bfbfbf" stroke="black" points="0,-165.5 0,-193.5 115.858,-193.5 115.858,-165.5 0,-165.5"/>
<text text-anchor="start" x="8" y="-181.5" font-family="Helvetica,sans-Serif" font-size="10.00">libraries/Filter/Average</text>
<text text-anchor="middle" x="57.9292" y="-171.5" font-family="Helvetica,sans-Serif" font-size="10.00">Filter.h</text>
</g>
<!-- Node2 -->
<g id="node2" class="node"><title>Node2</title>
<g id="a_node2"><a xlink:href="$FilterClass_8h.html" xlink:title="A pure virtual interface class. ">
<polygon fill="white" stroke="black" points="22.146,-55.5 22.146,-73.5 93.7124,-73.5 93.7124,-55.5 22.146,-55.5"/>
<text text-anchor="middle" x="57.9292" y="-61.5" font-family="Helvetica,sans-Serif" font-size="10.00">FilterClass.h</text>
</a>
</g>
</g>
<!-- Node1&#45;&gt;Node2 -->
<g id="edge1" class="edge"><title>Node1&#45;&gt;Node2</title>
<path fill="none" stroke="midnightblue" d="M50.8918,-165.484C44.3432,-151.79 36.1244,-129.553 39.9292,-110 41.7424,-100.682 45.5056,-90.8461 49.1246,-82.7979"/>
<polygon fill="midnightblue" stroke="midnightblue" points="52.3036,-84.263 53.4738,-73.733 45.9924,-81.2349 52.3036,-84.263"/>
</g>
<!-- Node4 -->
<g id="node4" class="node"><title>Node4</title>
<g id="a_node4"><a xlink:href="$FilterWithBuffer_8h.html" xlink:title="A filter with a buffer. This is implemented separately to the base Filter class to get around restric...">
<polygon fill="white" stroke="black" points="48.6699,-110.5 48.6699,-128.5 141.188,-128.5 141.188,-110.5 48.6699,-110.5"/>
<text text-anchor="middle" x="94.9292" y="-116.5" font-family="Helvetica,sans-Serif" font-size="10.00">FilterWithBuffer.h</text>
</a>
</g>
</g>
<!-- Node1&#45;&gt;Node4 -->
<g id="edge3" class="edge"><title>Node1&#45;&gt;Node4</title>
<path fill="none" stroke="midnightblue" d="M66.3251,-165.339C71.6421,-157.004 78.5654,-146.151 84.2689,-137.211"/>
<polygon fill="midnightblue" stroke="midnightblue" points="87.2251,-139.084 89.6526,-128.771 81.3236,-135.32 87.2251,-139.084"/>
</g>
<!-- Node3 -->
<g id="node3" class="node"><title>Node3</title>
<polygon fill="white" stroke="#bfbfbf" points="28.5278,-0.5 28.5278,-18.5 87.3306,-18.5 87.3306,-0.5 28.5278,-0.5"/>
<text text-anchor="middle" x="57.9292" y="-6.5" font-family="Helvetica,sans-Serif" font-size="10.00">inttypes.h</text>
</g>
<!-- Node2&#45;&gt;Node3 -->
<g id="edge2" class="edge"><title>Node2&#45;&gt;Node3</title>
<path fill="none" stroke="midnightblue" d="M57.9292,-55.2188C57.9292,-48.1769 57.9292,-37.8083 57.9292,-28.8277"/>
<polygon fill="midnightblue" stroke="midnightblue" points="61.4293,-28.5495 57.9292,-18.5496 54.4293,-28.5496 61.4293,-28.5495"/>
</g>
<!-- Node4&#45;&gt;Node2 -->
<g id="edge4" class="edge"><title>Node4&#45;&gt;Node2</title>
<path fill="none" stroke="midnightblue" d="M89.1479,-110.219C83.8496,-102.629 75.8534,-91.1753 69.2803,-81.7597"/>
<polygon fill="midnightblue" stroke="midnightblue" points="72.1428,-79.7457 63.5487,-73.5496 66.4031,-83.7527 72.1428,-79.7457"/>
</g>
</g>
</svg>
