<?xml version="1.0" encoding="UTF-8" standalone="no"?>
<!DOCTYPE svg PUBLIC "-//W3C//DTD SVG 1.1//EN"
 "http://www.w3.org/Graphics/SVG/1.1/DTD/svg11.dtd">
<!-- Generated by graphviz version 2.38.0 (20140413.2041)
 -->
<!-- Title: setup Pages: 1 -->
<svg width="213pt" height="195pt"
 viewBox="0.00 0.00 213.29 195.00" xmlns="http://www.w3.org/2000/svg" xmlns:xlink="http://www.w3.org/1999/xlink">
<g id="graph0" class="graph" transform="scale(1 1) rotate(0) translate(4 191)">
<title>setup</title>
<polygon fill="white" stroke="none" points="-4,4 -4,-191 209.295,-191 209.295,4 -4,4"/>
<!-- Node1 -->
<g id="node1" class="node"><title>Node1</title>
<polygon fill="#bfbfbf" stroke="black" points="0,-94.5 0,-112.5 40.4629,-112.5 40.4629,-94.5 0,-94.5"/>
<text text-anchor="middle" x="20.2314" y="-100.5" font-family="Helvetica,sans-Serif" font-size="10.00">setup</text>
</g>
<!-- Node2 -->
<g id="node2" class="node"><title>Node2</title>
<g id="a_node2"><a xlink:href="$classAP__HAL_1_1GPIO.html#a3dfc60214bd1aa4936d51ca72c045b95" xlink:title="AP_HAL::GPIO::pinMode">
<polygon fill="white" stroke="black" points="76.4629,-168.5 76.4629,-186.5 205.295,-186.5 205.295,-168.5 76.4629,-168.5"/>
<text text-anchor="middle" x="140.879" y="-174.5" font-family="Helvetica,sans-Serif" font-size="10.00">AP_HAL::GPIO::pinMode</text>
</a>
</g>
</g>
<!-- Node1&#45;&gt;Node2 -->
<g id="edge1" class="edge"><title>Node1&#45;&gt;Node2</title>
<path fill="none" stroke="midnightblue" d="M27.9823,-112.902C37.4312,-125.38 55.7809,-147.258 76.4629,-159.5 79.8561,-161.508 83.4846,-163.302 87.2236,-164.903"/>
<polygon fill="midnightblue" stroke="midnightblue" points="86.0831,-168.214 96.6742,-168.496 88.5708,-161.671 86.0831,-168.214"/>
</g>
<!-- Node3 -->
<g id="node3" class="node"><title>Node3</title>
<g id="a_node3"><a xlink:href="$classAP__HAL_1_1GPIO.html#a2b0664bdab1876e3b0bbcd9064eec88e" xlink:title="AP_HAL::GPIO::write">
<polygon fill="white" stroke="black" points="85.0859,-131.5 85.0859,-149.5 196.672,-149.5 196.672,-131.5 85.0859,-131.5"/>
<text text-anchor="middle" x="140.879" y="-137.5" font-family="Helvetica,sans-Serif" font-size="10.00">AP_HAL::GPIO::write</text>
</a>
</g>
</g>
<!-- Node1&#45;&gt;Node3 -->
<g id="edge2" class="edge"><title>Node1&#45;&gt;Node3</title>
<path fill="none" stroke="midnightblue" d="M40.5718,-110.444C51.132,-114.161 64.4653,-118.737 76.4629,-122.5 83.0661,-124.571 90.0881,-126.668 96.9625,-128.663"/>
<polygon fill="midnightblue" stroke="midnightblue" points="96.2858,-132.11 106.863,-131.499 98.213,-125.381 96.2858,-132.11"/>
</g>
<!-- Node4 -->
<g id="node4" class="node"><title>Node4</title>
<g id="a_node4"><a xlink:href="$classAP__HAL_1_1GPIO.html#a4e8955091af056240f447b68b76725bb" xlink:title="AP_HAL::GPIO::channel">
<polygon fill="white" stroke="black" points="78.1279,-94.5 78.1279,-112.5 203.63,-112.5 203.63,-94.5 78.1279,-94.5"/>
<text text-anchor="middle" x="140.879" y="-100.5" font-family="Helvetica,sans-Serif" font-size="10.00">AP_HAL::GPIO::channel</text>
</a>
</g>
</g>
<!-- Node1&#45;&gt;Node4 -->
<g id="edge3" class="edge"><title>Node1&#45;&gt;Node4</title>
<path fill="none" stroke="midnightblue" d="M40.5583,-103.5C48.3395,-103.5 57.8392,-103.5 67.845,-103.5"/>
<polygon fill="midnightblue" stroke="midnightblue" points="67.9747,-107 77.9747,-103.5 67.9747,-100 67.9747,-107"/>
</g>
<!-- Node5 -->
<g id="node5" class="node"><title>Node5</title>
<g id="a_node5"><a xlink:href="$classAP__HAL_1_1DigitalSource.html#af16b96dab1499f30659a1fd892df6c2d" xlink:title="AP_HAL::DigitalSource\l::mode">
<polygon fill="white" stroke="black" points="81.187,-47.5 81.187,-75.5 200.571,-75.5 200.571,-47.5 81.187,-47.5"/>
<text text-anchor="start" x="89.187" y="-63.5" font-family="Helvetica,sans-Serif" font-size="10.00">AP_HAL::DigitalSource</text>
<text text-anchor="middle" x="140.879" y="-53.5" font-family="Helvetica,sans-Serif" font-size="10.00">::mode</text>
</a>
</g>
</g>
<!-- Node1&#45;&gt;Node5 -->
<g id="edge4" class="edge"><title>Node1&#45;&gt;Node5</title>
<path fill="none" stroke="midnightblue" d="M40.5583,-96.6585C54.0769,-91.873 72.7825,-85.2515 90.3178,-79.0441"/>
<polygon fill="midnightblue" stroke="midnightblue" points="91.6401,-82.2889 99.8989,-75.6525 89.3042,-75.6902 91.6401,-82.2889"/>
</g>
<!-- Node6 -->
<g id="node6" class="node"><title>Node6</title>
<g id="a_node6"><a xlink:href="$classAP__HAL_1_1DigitalSource.html#a43392c05a7dae030a78dd1c4800bf5fe" xlink:title="AP_HAL::DigitalSource\l::write">
<polygon fill="white" stroke="black" points="81.187,-0.5 81.187,-28.5 200.571,-28.5 200.571,-0.5 81.187,-0.5"/>
<text text-anchor="start" x="89.187" y="-16.5" font-family="Helvetica,sans-Serif" font-size="10.00">AP_HAL::DigitalSource</text>
<text text-anchor="middle" x="140.879" y="-6.5" font-family="Helvetica,sans-Serif" font-size="10.00">::write</text>
</a>
</g>
</g>
<!-- Node1&#45;&gt;Node6 -->
<g id="edge5" class="edge"><title>Node1&#45;&gt;Node6</title>
<path fill="none" stroke="midnightblue" d="M26.8869,-94.2394C35.813,-80.3318 54.4362,-54.0307 76.4629,-38.5 79.1567,-36.6006 82.0199,-34.8296 84.9832,-33.1817"/>
<polygon fill="midnightblue" stroke="midnightblue" points="86.7382,-36.2169 94.104,-28.6014 83.5968,-29.9614 86.7382,-36.2169"/>
</g>
</g>
</svg>
