<?xml version="1.0" encoding="UTF-8" standalone="no"?>
<!DOCTYPE svg PUBLIC "-//W3C//DTD SVG 1.1//EN"
 "http://www.w3.org/Graphics/SVG/1.1/DTD/svg11.dtd">
<!-- Generated by graphviz version 2.38.0 (20140413.2041)
 -->
<!-- Title: libraries/DataFlash/DataFlash_Backend.h Pages: 1 -->
<svg width="567pt" height="232pt"
 viewBox="0.00 0.00 566.89 232.00" xmlns="http://www.w3.org/2000/svg" xmlns:xlink="http://www.w3.org/1999/xlink">
<g id="graph0" class="graph" transform="scale(1 1) rotate(0) translate(4 228)">
<title>libraries/DataFlash/DataFlash_Backend.h</title>
<polygon fill="white" stroke="none" points="-4,4 -4,-228 562.892,-228 562.892,4 -4,4"/>
<!-- Node1 -->
<g id="node1" class="node"><title>Node1</title>
<polygon fill="#bfbfbf" stroke="black" points="123.096,-195.5 123.096,-223.5 240.268,-223.5 240.268,-195.5 123.096,-195.5"/>
<text text-anchor="start" x="131.096" y="-211.5" font-family="Helvetica,sans-Serif" font-size="10.00">libraries/DataFlash</text>
<text text-anchor="middle" x="181.682" y="-201.5" font-family="Helvetica,sans-Serif" font-size="10.00">/DataFlash_Backend.h</text>
</g>
<!-- Node2 -->
<g id="node2" class="node"><title>Node2</title>
<g id="a_node2"><a xlink:href="$DataFlash_8cpp.html" xlink:title="libraries/DataFlash\l/DataFlash.cpp">
<polygon fill="white" stroke="black" points="0,-130.5 0,-158.5 99.3643,-158.5 99.3643,-130.5 0,-130.5"/>
<text text-anchor="start" x="8" y="-146.5" font-family="Helvetica,sans-Serif" font-size="10.00">libraries/DataFlash</text>
<text text-anchor="middle" x="49.6821" y="-136.5" font-family="Helvetica,sans-Serif" font-size="10.00">/DataFlash.cpp</text>
</a>
</g>
</g>
<!-- Node1&#45;&gt;Node2 -->
<g id="edge1" class="edge"><title>Node1&#45;&gt;Node2</title>
<path fill="none" stroke="midnightblue" d="M145.143,-191.061C123.574,-180.767 96.7233,-167.951 76.9976,-158.537"/>
<polygon fill="midnightblue" stroke="midnightblue" points="143.799,-194.298 154.332,-195.446 146.814,-187.98 143.799,-194.298"/>
</g>
<!-- Node3 -->
<g id="node3" class="node"><title>Node3</title>
<g id="a_node3"><a xlink:href="$DataFlash__Backend_8cpp.html" xlink:title="libraries/DataFlash\l/DataFlash_Backend.cpp">
<polygon fill="white" stroke="black" points="117.815,-130.5 117.815,-158.5 245.549,-158.5 245.549,-130.5 117.815,-130.5"/>
<text text-anchor="start" x="125.815" y="-146.5" font-family="Helvetica,sans-Serif" font-size="10.00">libraries/DataFlash</text>
<text text-anchor="middle" x="181.682" y="-136.5" font-family="Helvetica,sans-Serif" font-size="10.00">/DataFlash_Backend.cpp</text>
</a>
</g>
</g>
<!-- Node1&#45;&gt;Node3 -->
<g id="edge2" class="edge"><title>Node1&#45;&gt;Node3</title>
<path fill="none" stroke="midnightblue" d="M181.682,-185.164C181.682,-176.169 181.682,-166.221 181.682,-158.537"/>
<polygon fill="midnightblue" stroke="midnightblue" points="178.182,-185.446 181.682,-195.446 185.182,-185.446 178.182,-185.446"/>
</g>
<!-- Node4 -->
<g id="node4" class="node"><title>Node4</title>
<g id="a_node4"><a xlink:href="$DataFlash__Block_8h.html" xlink:title="libraries/DataFlash\l/DataFlash_Block.h">
<polygon fill="white" stroke="black" points="263.328,-130.5 263.328,-158.5 366.037,-158.5 366.037,-130.5 263.328,-130.5"/>
<text text-anchor="start" x="271.328" y="-146.5" font-family="Helvetica,sans-Serif" font-size="10.00">libraries/DataFlash</text>
<text text-anchor="middle" x="314.682" y="-136.5" font-family="Helvetica,sans-Serif" font-size="10.00">/DataFlash_Block.h</text>
</a>
</g>
</g>
<!-- Node1&#45;&gt;Node4 -->
<g id="edge3" class="edge"><title>Node1&#45;&gt;Node4</title>
<path fill="none" stroke="midnightblue" d="M218.498,-191.061C240.23,-180.767 267.285,-167.951 287.16,-158.537"/>
<polygon fill="midnightblue" stroke="midnightblue" points="216.779,-188.002 209.24,-195.446 219.776,-194.329 216.779,-188.002"/>
</g>
<!-- Node5 -->
<g id="node5" class="node"><title>Node5</title>
<g id="a_node5"><a xlink:href="$DataFlash__Block_8cpp.html" xlink:title="libraries/DataFlash\l/DataFlash_Block.cpp">
<polygon fill="white" stroke="black" points="134.047,-65.5 134.047,-93.5 247.317,-93.5 247.317,-65.5 134.047,-65.5"/>
<text text-anchor="start" x="142.047" y="-81.5" font-family="Helvetica,sans-Serif" font-size="10.00">libraries/DataFlash</text>
<text text-anchor="middle" x="190.682" y="-71.5" font-family="Helvetica,sans-Serif" font-size="10.00">/DataFlash_Block.cpp</text>
</a>
</g>
</g>
<!-- Node4&#45;&gt;Node5 -->
<g id="edge4" class="edge"><title>Node4&#45;&gt;Node5</title>
<path fill="none" stroke="midnightblue" d="M279.811,-125.783C259.644,-115.537 234.706,-102.867 216.342,-93.5369"/>
<polygon fill="midnightblue" stroke="midnightblue" points="278.489,-129.037 288.989,-130.446 281.659,-122.796 278.489,-129.037"/>
</g>
<!-- Node6 -->
<g id="node6" class="node"><title>Node6</title>
<g id="a_node6"><a xlink:href="$DataFlash__SITL_8h.html" xlink:title="libraries/DataFlash\l/DataFlash_SITL.h">
<polygon fill="white" stroke="black" points="264.995,-65.5 264.995,-93.5 364.369,-93.5 364.369,-65.5 264.995,-65.5"/>
<text text-anchor="start" x="272.995" y="-81.5" font-family="Helvetica,sans-Serif" font-size="10.00">libraries/DataFlash</text>
<text text-anchor="middle" x="314.682" y="-71.5" font-family="Helvetica,sans-Serif" font-size="10.00">/DataFlash_SITL.h</text>
</a>
</g>
</g>
<!-- Node4&#45;&gt;Node6 -->
<g id="edge5" class="edge"><title>Node4&#45;&gt;Node6</title>
<path fill="none" stroke="midnightblue" d="M308.153,-120.46C307.668,-111.388 307.981,-101.305 309.092,-93.5369"/>
<polygon fill="midnightblue" stroke="midnightblue" points="304.671,-120.817 309.089,-130.446 311.641,-120.163 304.671,-120.817"/>
</g>
<!-- Node9 -->
<g id="node9" class="node"><title>Node9</title>
<g id="a_node9"><a xlink:href="$DataFlash__Empty_8h.html" xlink:title="libraries/DataFlash\l/DataFlash_Empty.h">
<polygon fill="white" stroke="black" points="382.753,-65.5 382.753,-93.5 488.611,-93.5 488.611,-65.5 382.753,-65.5"/>
<text text-anchor="start" x="390.753" y="-81.5" font-family="Helvetica,sans-Serif" font-size="10.00">libraries/DataFlash</text>
<text text-anchor="middle" x="435.682" y="-71.5" font-family="Helvetica,sans-Serif" font-size="10.00">/DataFlash_Empty.h</text>
</a>
</g>
</g>
<!-- Node4&#45;&gt;Node9 -->
<g id="edge9" class="edge"><title>Node4&#45;&gt;Node9</title>
<path fill="none" stroke="midnightblue" d="M343.079,-125.505C361.725,-115.308 385.973,-102.783 405.053,-93.5369"/>
<polygon fill="midnightblue" stroke="midnightblue" points="341.211,-122.538 334.161,-130.446 344.604,-128.661 341.211,-122.538"/>
</g>
<!-- Node6&#45;&gt;Node4 -->
<g id="edge6" class="edge"><title>Node6&#45;&gt;Node4</title>
<path fill="none" stroke="midnightblue" d="M321.21,-103.52C321.696,-112.591 321.384,-122.675 320.275,-130.446"/>
<polygon fill="midnightblue" stroke="midnightblue" points="324.692,-103.166 320.272,-93.5369 317.723,-103.82 324.692,-103.166"/>
</g>
<!-- Node7 -->
<g id="node7" class="node"><title>Node7</title>
<g id="a_node7"><a xlink:href="$DataFlash__SITL_8cpp.html" xlink:title="libraries/DataFlash\l/DataFlash_SITL.cpp">
<polygon fill="white" stroke="black" points="196.714,-0.5 196.714,-28.5 306.65,-28.5 306.65,-0.5 196.714,-0.5"/>
<text text-anchor="start" x="204.714" y="-16.5" font-family="Helvetica,sans-Serif" font-size="10.00">libraries/DataFlash</text>
<text text-anchor="middle" x="251.682" y="-6.5" font-family="Helvetica,sans-Serif" font-size="10.00">/DataFlash_SITL.cpp</text>
</a>
</g>
</g>
<!-- Node6&#45;&gt;Node7 -->
<g id="edge7" class="edge"><title>Node6&#45;&gt;Node7</title>
<path fill="none" stroke="midnightblue" d="M294.273,-58.0906C284.565,-48.3832 273.247,-37.0649 264.719,-28.5369"/>
<polygon fill="midnightblue" stroke="midnightblue" points="292.083,-60.8501 301.628,-65.4464 297.032,-55.9004 292.083,-60.8501"/>
</g>
<!-- Node8 -->
<g id="node8" class="node"><title>Node8</title>
<g id="a_node8"><a xlink:href="$LogFile_8cpp.html" xlink:title="libraries/DataFlash\l/LogFile.cpp">
<polygon fill="white" stroke="black" points="325,-0.5 325,-28.5 424.364,-28.5 424.364,-0.5 325,-0.5"/>
<text text-anchor="start" x="333" y="-16.5" font-family="Helvetica,sans-Serif" font-size="10.00">libraries/DataFlash</text>
<text text-anchor="middle" x="374.682" y="-6.5" font-family="Helvetica,sans-Serif" font-size="10.00">/LogFile.cpp</text>
</a>
</g>
</g>
<!-- Node6&#45;&gt;Node8 -->
<g id="edge8" class="edge"><title>Node6&#45;&gt;Node8</title>
<path fill="none" stroke="midnightblue" d="M334.12,-58.0906C343.365,-48.3832 354.144,-37.0649 362.266,-28.5369"/>
<polygon fill="midnightblue" stroke="midnightblue" points="331.476,-55.7911 327.114,-65.4464 336.545,-60.6188 331.476,-55.7911"/>
</g>
<!-- Node9&#45;&gt;Node4 -->
<g id="edge10" class="edge"><title>Node9&#45;&gt;Node4</title>
<path fill="none" stroke="midnightblue" d="M407.319,-98.4769C388.68,-108.671 364.432,-121.197 345.346,-130.446"/>
<polygon fill="midnightblue" stroke="midnightblue" points="409.183,-101.445 416.233,-93.5369 405.79,-95.3226 409.183,-101.445"/>
</g>
<!-- Node9&#45;&gt;Node8 -->
<g id="edge12" class="edge"><title>Node9&#45;&gt;Node8</title>
<path fill="none" stroke="midnightblue" d="M415.921,-58.0906C406.521,-48.3832 395.562,-37.0649 387.305,-28.5369"/>
<polygon fill="midnightblue" stroke="midnightblue" points="413.572,-60.6968 423.043,-65.4464 418.601,-55.8275 413.572,-60.6968"/>
</g>
<!-- Node10 -->
<g id="node10" class="node"><title>Node10</title>
<g id="a_node10"><a xlink:href="$DataFlash__Empty_8cpp.html" xlink:title="libraries/DataFlash\l/DataFlash_Empty.cpp">
<polygon fill="white" stroke="black" points="442.472,-0.5 442.472,-28.5 558.892,-28.5 558.892,-0.5 442.472,-0.5"/>
<text text-anchor="start" x="450.472" y="-16.5" font-family="Helvetica,sans-Serif" font-size="10.00">libraries/DataFlash</text>
<text text-anchor="middle" x="500.682" y="-6.5" font-family="Helvetica,sans-Serif" font-size="10.00">/DataFlash_Empty.cpp</text>
</a>
</g>
</g>
<!-- Node9&#45;&gt;Node10 -->
<g id="edge11" class="edge"><title>Node9&#45;&gt;Node10</title>
<path fill="none" stroke="midnightblue" d="M456.442,-58.3785C466.523,-48.6076 478.346,-37.1493 487.231,-28.5369"/>
<polygon fill="midnightblue" stroke="midnightblue" points="453.895,-55.9733 449.15,-65.4464 458.767,-60.9998 453.895,-55.9733"/>
</g>
</g>
</svg>
