<?xml version="1.0" encoding="UTF-8" standalone="no"?>
<!DOCTYPE svg PUBLIC "-//W3C//DTD SVG 1.1//EN"
 "http://www.w3.org/Graphics/SVG/1.1/DTD/svg11.dtd">
<!-- Generated by graphviz version 2.38.0 (20140413.2041)
 -->
<!-- Title: libraries/DataFlash/DataFlash_Block.h Pages: 1 -->
<svg width="433pt" height="167pt"
 viewBox="0.00 0.00 432.85 167.00" xmlns="http://www.w3.org/2000/svg" xmlns:xlink="http://www.w3.org/1999/xlink">
<g id="graph0" class="graph" transform="scale(1 1) rotate(0) translate(4 163)">
<title>libraries/DataFlash/DataFlash_Block.h</title>
<polygon fill="white" stroke="none" points="-4,4 -4,-163 428.845,-163 428.845,4 -4,4"/>
<!-- Node1 -->
<g id="node1" class="node"><title>Node1</title>
<polygon fill="#bfbfbf" stroke="black" points="129.281,-130.5 129.281,-158.5 231.99,-158.5 231.99,-130.5 129.281,-130.5"/>
<text text-anchor="start" x="137.281" y="-146.5" font-family="Helvetica,sans-Serif" font-size="10.00">libraries/DataFlash</text>
<text text-anchor="middle" x="180.635" y="-136.5" font-family="Helvetica,sans-Serif" font-size="10.00">/DataFlash_Block.h</text>
</g>
<!-- Node2 -->
<g id="node2" class="node"><title>Node2</title>
<g id="a_node2"><a xlink:href="$DataFlash__Block_8cpp.html" xlink:title="libraries/DataFlash\l/DataFlash_Block.cpp">
<polygon fill="white" stroke="black" points="0,-65.5 0,-93.5 113.271,-93.5 113.271,-65.5 0,-65.5"/>
<text text-anchor="start" x="8" y="-81.5" font-family="Helvetica,sans-Serif" font-size="10.00">libraries/DataFlash</text>
<text text-anchor="middle" x="56.6353" y="-71.5" font-family="Helvetica,sans-Serif" font-size="10.00">/DataFlash_Block.cpp</text>
</a>
</g>
</g>
<!-- Node1&#45;&gt;Node2 -->
<g id="edge1" class="edge"><title>Node1&#45;&gt;Node2</title>
<path fill="none" stroke="midnightblue" d="M145.765,-125.783C125.597,-115.537 100.659,-102.867 82.2952,-93.5369"/>
<polygon fill="midnightblue" stroke="midnightblue" points="144.442,-129.037 154.942,-130.446 147.612,-122.796 144.442,-129.037"/>
</g>
<!-- Node3 -->
<g id="node3" class="node"><title>Node3</title>
<g id="a_node3"><a xlink:href="$DataFlash__SITL_8h.html" xlink:title="libraries/DataFlash\l/DataFlash_SITL.h">
<polygon fill="white" stroke="black" points="130.948,-65.5 130.948,-93.5 230.322,-93.5 230.322,-65.5 130.948,-65.5"/>
<text text-anchor="start" x="138.948" y="-81.5" font-family="Helvetica,sans-Serif" font-size="10.00">libraries/DataFlash</text>
<text text-anchor="middle" x="180.635" y="-71.5" font-family="Helvetica,sans-Serif" font-size="10.00">/DataFlash_SITL.h</text>
</a>
</g>
</g>
<!-- Node1&#45;&gt;Node3 -->
<g id="edge2" class="edge"><title>Node1&#45;&gt;Node3</title>
<path fill="none" stroke="midnightblue" d="M174.106,-120.46C173.621,-111.388 173.934,-101.305 175.045,-93.5369"/>
<polygon fill="midnightblue" stroke="midnightblue" points="170.624,-120.817 175.043,-130.446 177.594,-120.163 170.624,-120.817"/>
</g>
<!-- Node6 -->
<g id="node6" class="node"><title>Node6</title>
<g id="a_node6"><a xlink:href="$DataFlash__Empty_8h.html" xlink:title="libraries/DataFlash\l/DataFlash_Empty.h">
<polygon fill="white" stroke="black" points="248.706,-65.5 248.706,-93.5 354.564,-93.5 354.564,-65.5 248.706,-65.5"/>
<text text-anchor="start" x="256.706" y="-81.5" font-family="Helvetica,sans-Serif" font-size="10.00">libraries/DataFlash</text>
<text text-anchor="middle" x="301.635" y="-71.5" font-family="Helvetica,sans-Serif" font-size="10.00">/DataFlash_Empty.h</text>
</a>
</g>
</g>
<!-- Node1&#45;&gt;Node6 -->
<g id="edge6" class="edge"><title>Node1&#45;&gt;Node6</title>
<path fill="none" stroke="midnightblue" d="M209.032,-125.505C227.678,-115.308 251.926,-102.783 271.006,-93.5369"/>
<polygon fill="midnightblue" stroke="midnightblue" points="207.164,-122.538 200.114,-130.446 210.557,-128.661 207.164,-122.538"/>
</g>
<!-- Node3&#45;&gt;Node1 -->
<g id="edge3" class="edge"><title>Node3&#45;&gt;Node1</title>
<path fill="none" stroke="midnightblue" d="M187.163,-103.52C187.649,-112.591 187.338,-122.675 186.228,-130.446"/>
<polygon fill="midnightblue" stroke="midnightblue" points="190.645,-103.166 186.226,-93.5369 183.676,-103.82 190.645,-103.166"/>
</g>
<!-- Node4 -->
<g id="node4" class="node"><title>Node4</title>
<g id="a_node4"><a xlink:href="$DataFlash__SITL_8cpp.html" xlink:title="libraries/DataFlash\l/DataFlash_SITL.cpp">
<polygon fill="white" stroke="black" points="62.6675,-0.5 62.6675,-28.5 172.603,-28.5 172.603,-0.5 62.6675,-0.5"/>
<text text-anchor="start" x="70.6675" y="-16.5" font-family="Helvetica,sans-Serif" font-size="10.00">libraries/DataFlash</text>
<text text-anchor="middle" x="117.635" y="-6.5" font-family="Helvetica,sans-Serif" font-size="10.00">/DataFlash_SITL.cpp</text>
</a>
</g>
</g>
<!-- Node3&#45;&gt;Node4 -->
<g id="edge4" class="edge"><title>Node3&#45;&gt;Node4</title>
<path fill="none" stroke="midnightblue" d="M160.226,-58.0906C150.518,-48.3832 139.2,-37.0649 130.672,-28.5369"/>
<polygon fill="midnightblue" stroke="midnightblue" points="158.036,-60.8501 167.582,-65.4464 162.985,-55.9004 158.036,-60.8501"/>
</g>
<!-- Node5 -->
<g id="node5" class="node"><title>Node5</title>
<g id="a_node5"><a xlink:href="$LogFile_8cpp.html" xlink:title="libraries/DataFlash\l/LogFile.cpp">
<polygon fill="white" stroke="black" points="190.953,-0.5 190.953,-28.5 290.317,-28.5 290.317,-0.5 190.953,-0.5"/>
<text text-anchor="start" x="198.953" y="-16.5" font-family="Helvetica,sans-Serif" font-size="10.00">libraries/DataFlash</text>
<text text-anchor="middle" x="240.635" y="-6.5" font-family="Helvetica,sans-Serif" font-size="10.00">/LogFile.cpp</text>
</a>
</g>
</g>
<!-- Node3&#45;&gt;Node5 -->
<g id="edge5" class="edge"><title>Node3&#45;&gt;Node5</title>
<path fill="none" stroke="midnightblue" d="M200.073,-58.0906C209.318,-48.3832 220.097,-37.0649 228.219,-28.5369"/>
<polygon fill="midnightblue" stroke="midnightblue" points="197.429,-55.7911 193.067,-65.4464 202.498,-60.6188 197.429,-55.7911"/>
</g>
<!-- Node6&#45;&gt;Node1 -->
<g id="edge7" class="edge"><title>Node6&#45;&gt;Node1</title>
<path fill="none" stroke="midnightblue" d="M273.272,-98.4769C254.633,-108.671 230.385,-121.197 211.299,-130.446"/>
<polygon fill="midnightblue" stroke="midnightblue" points="275.136,-101.445 282.186,-93.5369 271.743,-95.3226 275.136,-101.445"/>
</g>
<!-- Node6&#45;&gt;Node5 -->
<g id="edge9" class="edge"><title>Node6&#45;&gt;Node5</title>
<path fill="none" stroke="midnightblue" d="M281.874,-58.0906C272.475,-48.3832 261.516,-37.0649 253.258,-28.5369"/>
<polygon fill="midnightblue" stroke="midnightblue" points="279.525,-60.6968 288.996,-65.4464 284.554,-55.8275 279.525,-60.6968"/>
</g>
<!-- Node7 -->
<g id="node7" class="node"><title>Node7</title>
<g id="a_node7"><a xlink:href="$DataFlash__Empty_8cpp.html" xlink:title="libraries/DataFlash\l/DataFlash_Empty.cpp">
<polygon fill="white" stroke="black" points="308.425,-0.5 308.425,-28.5 424.845,-28.5 424.845,-0.5 308.425,-0.5"/>
<text text-anchor="start" x="316.425" y="-16.5" font-family="Helvetica,sans-Serif" font-size="10.00">libraries/DataFlash</text>
<text text-anchor="middle" x="366.635" y="-6.5" font-family="Helvetica,sans-Serif" font-size="10.00">/DataFlash_Empty.cpp</text>
</a>
</g>
</g>
<!-- Node6&#45;&gt;Node7 -->
<g id="edge8" class="edge"><title>Node6&#45;&gt;Node7</title>
<path fill="none" stroke="midnightblue" d="M322.396,-58.3785C332.477,-48.6076 344.299,-37.1493 353.184,-28.5369"/>
<polygon fill="midnightblue" stroke="midnightblue" points="319.848,-55.9733 315.103,-65.4464 324.72,-60.9998 319.848,-55.9733"/>
</g>
</g>
</svg>
