<?xml version="1.0" encoding="UTF-8" standalone="no"?>
<!DOCTYPE svg PUBLIC "-//W3C//DTD SVG 1.1//EN"
 "http://www.w3.org/Graphics/SVG/1.1/DTD/svg11.dtd">
<!-- Generated by graphviz version 2.38.0 (20140413.2041)
 -->
<!-- Title: libraries/DataFlash/DataFlash_Empty.h Pages: 1 -->
<svg width="412pt" height="232pt"
 viewBox="0.00 0.00 411.85 232.00" xmlns="http://www.w3.org/2000/svg" xmlns:xlink="http://www.w3.org/1999/xlink">
<g id="graph0" class="graph" transform="scale(1 1) rotate(0) translate(4 228)">
<title>libraries/DataFlash/DataFlash_Empty.h</title>
<polygon fill="white" stroke="none" points="-4,4 -4,-228 407.845,-228 407.845,4 -4,4"/>
<!-- Node1 -->
<g id="node1" class="node"><title>Node1</title>
<polygon fill="#bfbfbf" stroke="black" points="166.706,-195.5 166.706,-223.5 272.564,-223.5 272.564,-195.5 166.706,-195.5"/>
<text text-anchor="start" x="174.706" y="-211.5" font-family="Helvetica,sans-Serif" font-size="10.00">libraries/DataFlash</text>
<text text-anchor="middle" x="219.635" y="-201.5" font-family="Helvetica,sans-Serif" font-size="10.00">/DataFlash_Empty.h</text>
</g>
<!-- Node2 -->
<g id="node2" class="node"><title>Node2</title>
<g id="a_node2"><a xlink:href="$DataFlash__Block_8h.html" xlink:title="libraries/DataFlash\l/DataFlash_Block.h">
<polygon fill="white" stroke="black" points="129.281,-130.5 129.281,-158.5 231.99,-158.5 231.99,-130.5 129.281,-130.5"/>
<text text-anchor="start" x="137.281" y="-146.5" font-family="Helvetica,sans-Serif" font-size="10.00">libraries/DataFlash</text>
<text text-anchor="middle" x="180.635" y="-136.5" font-family="Helvetica,sans-Serif" font-size="10.00">/DataFlash_Block.h</text>
</a>
</g>
</g>
<!-- Node1&#45;&gt;Node2 -->
<g id="edge1" class="edge"><title>Node1&#45;&gt;Node2</title>
<path fill="none" stroke="midnightblue" d="M200.039,-187.221C193.525,-177.713 187.055,-166.812 183.115,-158.537"/>
<polygon fill="midnightblue" stroke="midnightblue" points="197.278,-189.377 205.962,-195.446 202.958,-185.286 197.278,-189.377"/>
</g>
<!-- Node6 -->
<g id="node6" class="node"><title>Node6</title>
<g id="a_node6"><a xlink:href="$LogFile_8cpp.html" xlink:title="libraries/DataFlash\l/LogFile.cpp">
<polygon fill="white" stroke="black" points="209.953,-0.5 209.953,-28.5 309.317,-28.5 309.317,-0.5 209.953,-0.5"/>
<text text-anchor="start" x="217.953" y="-16.5" font-family="Helvetica,sans-Serif" font-size="10.00">libraries/DataFlash</text>
<text text-anchor="middle" x="259.635" y="-6.5" font-family="Helvetica,sans-Serif" font-size="10.00">/LogFile.cpp</text>
</a>
</g>
</g>
<!-- Node1&#45;&gt;Node6 -->
<g id="edge9" class="edge"><title>Node1&#45;&gt;Node6</title>
<path fill="none" stroke="midnightblue" d="M230.562,-186.301C234.28,-177.922 238.127,-168.191 240.635,-159 253.405,-112.209 257.72,-54.4084 259.07,-28.7933"/>
<polygon fill="midnightblue" stroke="midnightblue" points="227.373,-184.858 226.343,-195.402 233.724,-187.801 227.373,-184.858"/>
</g>
<!-- Node7 -->
<g id="node7" class="node"><title>Node7</title>
<g id="a_node7"><a xlink:href="$DataFlash__Empty_8cpp.html" xlink:title="libraries/DataFlash\l/DataFlash_Empty.cpp">
<polygon fill="white" stroke="black" points="287.425,-130.5 287.425,-158.5 403.845,-158.5 403.845,-130.5 287.425,-130.5"/>
<text text-anchor="start" x="295.425" y="-146.5" font-family="Helvetica,sans-Serif" font-size="10.00">libraries/DataFlash</text>
<text text-anchor="middle" x="345.635" y="-136.5" font-family="Helvetica,sans-Serif" font-size="10.00">/DataFlash_Empty.cpp</text>
</a>
</g>
</g>
<!-- Node1&#45;&gt;Node7 -->
<g id="edge8" class="edge"><title>Node1&#45;&gt;Node7</title>
<path fill="none" stroke="midnightblue" d="M254.79,-190.922C275.332,-180.652 300.817,-167.909 319.561,-158.537"/>
<polygon fill="midnightblue" stroke="midnightblue" points="253.122,-187.844 245.743,-195.446 256.252,-194.105 253.122,-187.844"/>
</g>
<!-- Node2&#45;&gt;Node1 -->
<g id="edge7" class="edge"><title>Node2&#45;&gt;Node1</title>
<path fill="none" stroke="midnightblue" d="M200.218,-166.759C206.732,-176.266 213.205,-187.168 217.147,-195.446"/>
<polygon fill="midnightblue" stroke="midnightblue" points="202.981,-164.606 194.296,-158.537 197.3,-168.697 202.981,-164.606"/>
</g>
<!-- Node3 -->
<g id="node3" class="node"><title>Node3</title>
<g id="a_node3"><a xlink:href="$DataFlash__Block_8cpp.html" xlink:title="libraries/DataFlash\l/DataFlash_Block.cpp">
<polygon fill="white" stroke="black" points="0,-65.5 0,-93.5 113.271,-93.5 113.271,-65.5 0,-65.5"/>
<text text-anchor="start" x="8" y="-81.5" font-family="Helvetica,sans-Serif" font-size="10.00">libraries/DataFlash</text>
<text text-anchor="middle" x="56.6353" y="-71.5" font-family="Helvetica,sans-Serif" font-size="10.00">/DataFlash_Block.cpp</text>
</a>
</g>
</g>
<!-- Node2&#45;&gt;Node3 -->
<g id="edge2" class="edge"><title>Node2&#45;&gt;Node3</title>
<path fill="none" stroke="midnightblue" d="M145.765,-125.783C125.597,-115.537 100.659,-102.867 82.2952,-93.5369"/>
<polygon fill="midnightblue" stroke="midnightblue" points="144.442,-129.037 154.942,-130.446 147.612,-122.796 144.442,-129.037"/>
</g>
<!-- Node4 -->
<g id="node4" class="node"><title>Node4</title>
<g id="a_node4"><a xlink:href="$DataFlash__SITL_8h.html" xlink:title="libraries/DataFlash\l/DataFlash_SITL.h">
<polygon fill="white" stroke="black" points="130.948,-65.5 130.948,-93.5 230.322,-93.5 230.322,-65.5 130.948,-65.5"/>
<text text-anchor="start" x="138.948" y="-81.5" font-family="Helvetica,sans-Serif" font-size="10.00">libraries/DataFlash</text>
<text text-anchor="middle" x="180.635" y="-71.5" font-family="Helvetica,sans-Serif" font-size="10.00">/DataFlash_SITL.h</text>
</a>
</g>
</g>
<!-- Node2&#45;&gt;Node4 -->
<g id="edge3" class="edge"><title>Node2&#45;&gt;Node4</title>
<path fill="none" stroke="midnightblue" d="M174.106,-120.46C173.621,-111.388 173.934,-101.305 175.045,-93.5369"/>
<polygon fill="midnightblue" stroke="midnightblue" points="170.624,-120.817 175.043,-130.446 177.594,-120.163 170.624,-120.817"/>
</g>
<!-- Node4&#45;&gt;Node2 -->
<g id="edge4" class="edge"><title>Node4&#45;&gt;Node2</title>
<path fill="none" stroke="midnightblue" d="M187.163,-103.52C187.649,-112.591 187.338,-122.675 186.228,-130.446"/>
<polygon fill="midnightblue" stroke="midnightblue" points="190.645,-103.166 186.226,-93.5369 183.676,-103.82 190.645,-103.166"/>
</g>
<!-- Node5 -->
<g id="node5" class="node"><title>Node5</title>
<g id="a_node5"><a xlink:href="$DataFlash__SITL_8cpp.html" xlink:title="libraries/DataFlash\l/DataFlash_SITL.cpp">
<polygon fill="white" stroke="black" points="81.6675,-0.5 81.6675,-28.5 191.603,-28.5 191.603,-0.5 81.6675,-0.5"/>
<text text-anchor="start" x="89.6675" y="-16.5" font-family="Helvetica,sans-Serif" font-size="10.00">libraries/DataFlash</text>
<text text-anchor="middle" x="136.635" y="-6.5" font-family="Helvetica,sans-Serif" font-size="10.00">/DataFlash_SITL.cpp</text>
</a>
</g>
</g>
<!-- Node4&#45;&gt;Node5 -->
<g id="edge5" class="edge"><title>Node4&#45;&gt;Node5</title>
<path fill="none" stroke="midnightblue" d="M165.774,-57.2215C159.133,-47.7133 151.52,-36.8116 145.74,-28.5369"/>
<polygon fill="midnightblue" stroke="midnightblue" points="162.923,-59.252 171.518,-65.4464 168.662,-55.2438 162.923,-59.252"/>
</g>
<!-- Node4&#45;&gt;Node6 -->
<g id="edge6" class="edge"><title>Node4&#45;&gt;Node6</title>
<path fill="none" stroke="midnightblue" d="M205.149,-58.9513C217.555,-49.0581 232.276,-37.3182 243.287,-28.5369"/>
<polygon fill="midnightblue" stroke="midnightblue" points="202.64,-56.475 197.004,-65.4464 207.005,-61.9479 202.64,-56.475"/>
</g>
</g>
</svg>
