<?xml version="1.0" encoding="UTF-8" standalone="no"?>
<!DOCTYPE svg PUBLIC "-//W3C//DTD SVG 1.1//EN"
 "http://www.w3.org/Graphics/SVG/1.1/DTD/svg11.dtd">
<!-- Generated by graphviz version 2.38.0 (20140413.2041)
 -->
<!-- Title: libraries/DataFlash/DataFlash_SITL.h Pages: 1 -->
<svg width="412pt" height="232pt"
 viewBox="0.00 0.00 411.60 232.00" xmlns="http://www.w3.org/2000/svg" xmlns:xlink="http://www.w3.org/1999/xlink">
<g id="graph0" class="graph" transform="scale(1 1) rotate(0) translate(4 228)">
<title>libraries/DataFlash/DataFlash_SITL.h</title>
<polygon fill="white" stroke="none" points="-4,4 -4,-228 407.603,-228 407.603,4 -4,4"/>
<!-- Node1 -->
<g id="node1" class="node"><title>Node1</title>
<polygon fill="#bfbfbf" stroke="black" points="174.948,-195.5 174.948,-223.5 274.322,-223.5 274.322,-195.5 174.948,-195.5"/>
<text text-anchor="start" x="182.948" y="-211.5" font-family="Helvetica,sans-Serif" font-size="10.00">libraries/DataFlash</text>
<text text-anchor="middle" x="224.635" y="-201.5" font-family="Helvetica,sans-Serif" font-size="10.00">/DataFlash_SITL.h</text>
</g>
<!-- Node2 -->
<g id="node2" class="node"><title>Node2</title>
<g id="a_node2"><a xlink:href="$DataFlash__Block_8h.html" xlink:title="libraries/DataFlash\l/DataFlash_Block.h">
<polygon fill="white" stroke="black" points="133.281,-130.5 133.281,-158.5 235.99,-158.5 235.99,-130.5 133.281,-130.5"/>
<text text-anchor="start" x="141.281" y="-146.5" font-family="Helvetica,sans-Serif" font-size="10.00">libraries/DataFlash</text>
<text text-anchor="middle" x="184.635" y="-136.5" font-family="Helvetica,sans-Serif" font-size="10.00">/DataFlash_Block.h</text>
</a>
</g>
</g>
<!-- Node1&#45;&gt;Node2 -->
<g id="edge1" class="edge"><title>Node1&#45;&gt;Node2</title>
<path fill="none" stroke="midnightblue" d="M204.701,-187.221C198.037,-177.713 191.393,-166.812 187.322,-158.537"/>
<polygon fill="midnightblue" stroke="midnightblue" points="202.008,-189.467 210.755,-195.446 207.646,-185.318 202.008,-189.467"/>
</g>
<!-- Node6 -->
<g id="node6" class="node"><title>Node6</title>
<g id="a_node6"><a xlink:href="$LogFile_8cpp.html" xlink:title="libraries/DataFlash\l/LogFile.cpp">
<polygon fill="white" stroke="black" points="215.953,-0.5 215.953,-28.5 315.317,-28.5 315.317,-0.5 215.953,-0.5"/>
<text text-anchor="start" x="223.953" y="-16.5" font-family="Helvetica,sans-Serif" font-size="10.00">libraries/DataFlash</text>
<text text-anchor="middle" x="265.635" y="-6.5" font-family="Helvetica,sans-Serif" font-size="10.00">/LogFile.cpp</text>
</a>
</g>
</g>
<!-- Node1&#45;&gt;Node6 -->
<g id="edge9" class="edge"><title>Node1&#45;&gt;Node6</title>
<path fill="none" stroke="midnightblue" d="M235.064,-185.961C238.56,-177.637 242.188,-168.031 244.635,-159 257.346,-112.097 262.827,-54.3533 264.755,-28.773"/>
<polygon fill="midnightblue" stroke="midnightblue" points="231.757,-184.787 230.953,-195.352 238.17,-187.595 231.757,-184.787"/>
</g>
<!-- Node7 -->
<g id="node7" class="node"><title>Node7</title>
<g id="a_node7"><a xlink:href="$DataFlash__SITL_8cpp.html" xlink:title="libraries/DataFlash\l/DataFlash_SITL.cpp">
<polygon fill="white" stroke="black" points="293.667,-130.5 293.667,-158.5 403.603,-158.5 403.603,-130.5 293.667,-130.5"/>
<text text-anchor="start" x="301.667" y="-146.5" font-family="Helvetica,sans-Serif" font-size="10.00">libraries/DataFlash</text>
<text text-anchor="middle" x="348.635" y="-136.5" font-family="Helvetica,sans-Serif" font-size="10.00">/DataFlash_SITL.cpp</text>
</a>
</g>
</g>
<!-- Node1&#45;&gt;Node7 -->
<g id="edge8" class="edge"><title>Node1&#45;&gt;Node7</title>
<path fill="none" stroke="midnightblue" d="M259.506,-190.783C279.673,-180.537 304.611,-167.867 322.975,-158.537"/>
<polygon fill="midnightblue" stroke="midnightblue" points="257.658,-187.796 250.328,-195.446 260.829,-194.037 257.658,-187.796"/>
</g>
<!-- Node2&#45;&gt;Node1 -->
<g id="edge3" class="edge"><title>Node2&#45;&gt;Node1</title>
<path fill="none" stroke="midnightblue" d="M204.556,-166.759C211.22,-176.266 217.866,-187.168 221.94,-195.446"/>
<polygon fill="midnightblue" stroke="midnightblue" points="207.25,-164.515 198.503,-158.537 201.613,-168.665 207.25,-164.515"/>
</g>
<!-- Node3 -->
<g id="node3" class="node"><title>Node3</title>
<g id="a_node3"><a xlink:href="$DataFlash__Block_8cpp.html" xlink:title="libraries/DataFlash\l/DataFlash_Block.cpp">
<polygon fill="white" stroke="black" points="0,-65.5 0,-93.5 113.271,-93.5 113.271,-65.5 0,-65.5"/>
<text text-anchor="start" x="8" y="-81.5" font-family="Helvetica,sans-Serif" font-size="10.00">libraries/DataFlash</text>
<text text-anchor="middle" x="56.6353" y="-71.5" font-family="Helvetica,sans-Serif" font-size="10.00">/DataFlash_Block.cpp</text>
</a>
</g>
</g>
<!-- Node2&#45;&gt;Node3 -->
<g id="edge2" class="edge"><title>Node2&#45;&gt;Node3</title>
<path fill="none" stroke="midnightblue" d="M148.922,-125.922C128.055,-115.652 102.165,-102.909 83.123,-93.5369"/>
<polygon fill="midnightblue" stroke="midnightblue" points="147.596,-129.171 158.114,-130.446 150.687,-122.89 147.596,-129.171"/>
</g>
<!-- Node4 -->
<g id="node4" class="node"><title>Node4</title>
<g id="a_node4"><a xlink:href="$DataFlash__Empty_8h.html" xlink:title="libraries/DataFlash\l/DataFlash_Empty.h">
<polygon fill="white" stroke="black" points="131.706,-65.5 131.706,-93.5 237.564,-93.5 237.564,-65.5 131.706,-65.5"/>
<text text-anchor="start" x="139.706" y="-81.5" font-family="Helvetica,sans-Serif" font-size="10.00">libraries/DataFlash</text>
<text text-anchor="middle" x="184.635" y="-71.5" font-family="Helvetica,sans-Serif" font-size="10.00">/DataFlash_Empty.h</text>
</a>
</g>
</g>
<!-- Node2&#45;&gt;Node4 -->
<g id="edge4" class="edge"><title>Node2&#45;&gt;Node4</title>
<path fill="none" stroke="midnightblue" d="M178.106,-120.46C177.621,-111.388 177.934,-101.305 179.045,-93.5369"/>
<polygon fill="midnightblue" stroke="midnightblue" points="174.624,-120.817 179.043,-130.446 181.594,-120.163 174.624,-120.817"/>
</g>
<!-- Node4&#45;&gt;Node2 -->
<g id="edge5" class="edge"><title>Node4&#45;&gt;Node2</title>
<path fill="none" stroke="midnightblue" d="M191.163,-103.52C191.649,-112.591 191.338,-122.675 190.228,-130.446"/>
<polygon fill="midnightblue" stroke="midnightblue" points="194.645,-103.166 190.226,-93.5369 187.676,-103.82 194.645,-103.166"/>
</g>
<!-- Node5 -->
<g id="node5" class="node"><title>Node5</title>
<g id="a_node5"><a xlink:href="$DataFlash__Empty_8cpp.html" xlink:title="libraries/DataFlash\l/DataFlash_Empty.cpp">
<polygon fill="white" stroke="black" points="81.4253,-0.5 81.4253,-28.5 197.845,-28.5 197.845,-0.5 81.4253,-0.5"/>
<text text-anchor="start" x="89.4253" y="-16.5" font-family="Helvetica,sans-Serif" font-size="10.00">libraries/DataFlash</text>
<text text-anchor="middle" x="139.635" y="-6.5" font-family="Helvetica,sans-Serif" font-size="10.00">/DataFlash_Empty.cpp</text>
</a>
</g>
</g>
<!-- Node4&#45;&gt;Node5 -->
<g id="edge6" class="edge"><title>Node4&#45;&gt;Node5</title>
<path fill="none" stroke="midnightblue" d="M169.436,-57.2215C162.645,-47.7133 154.858,-36.8116 148.947,-28.5369"/>
<polygon fill="midnightblue" stroke="midnightblue" points="166.651,-59.3434 175.311,-65.4464 172.347,-55.2747 166.651,-59.3434"/>
</g>
<!-- Node4&#45;&gt;Node6 -->
<g id="edge7" class="edge"><title>Node4&#45;&gt;Node6</title>
<path fill="none" stroke="midnightblue" d="M209.403,-59.2361C222.199,-49.2841 237.475,-37.4026 248.874,-28.5369"/>
<polygon fill="midnightblue" stroke="midnightblue" points="207.163,-56.5442 201.419,-65.4464 211.461,-62.0697 207.163,-56.5442"/>
</g>
</g>
</svg>
