<?xml version="1.0" encoding="UTF-8" standalone="no"?>
<!DOCTYPE svg PUBLIC "-//W3C//DTD SVG 1.1//EN"
 "http://www.w3.org/Graphics/SVG/1.1/DTD/svg11.dtd">
<!-- Generated by graphviz version 2.38.0 (20140413.2041)
 -->
<!-- Title: libraries/Filter/DerivativeFilter.h Pages: 1 -->
<svg width="153pt" height="202pt"
 viewBox="0.00 0.00 152.88 202.00" xmlns="http://www.w3.org/2000/svg" xmlns:xlink="http://www.w3.org/1999/xlink">
<g id="graph0" class="graph" transform="scale(1 1) rotate(0) translate(4 198)">
<title>libraries/Filter/DerivativeFilter.h</title>
<polygon fill="white" stroke="none" points="-4,4 -4,-198 148.882,-198 148.882,4 -4,4"/>
<!-- Node1 -->
<g id="node1" class="node"><title>Node1</title>
<polygon fill="#bfbfbf" stroke="black" points="0,-165.5 0,-193.5 123.246,-193.5 123.246,-165.5 0,-165.5"/>
<text text-anchor="start" x="8" y="-181.5" font-family="Helvetica,sans-Serif" font-size="10.00">libraries/Filter/Derivative</text>
<text text-anchor="middle" x="61.623" y="-171.5" font-family="Helvetica,sans-Serif" font-size="10.00">Filter.h</text>
</g>
<!-- Node2 -->
<g id="node2" class="node"><title>Node2</title>
<g id="a_node2"><a xlink:href="$FilterClass_8h.html" xlink:title="A pure virtual interface class. ">
<polygon fill="white" stroke="black" points="25.8398,-55.5 25.8398,-73.5 97.4062,-73.5 97.4062,-55.5 25.8398,-55.5"/>
<text text-anchor="middle" x="61.623" y="-61.5" font-family="Helvetica,sans-Serif" font-size="10.00">FilterClass.h</text>
</a>
</g>
</g>
<!-- Node1&#45;&gt;Node2 -->
<g id="edge1" class="edge"><title>Node1&#45;&gt;Node2</title>
<path fill="none" stroke="midnightblue" d="M54.5857,-165.484C48.037,-151.79 39.8183,-129.553 43.623,-110 45.4362,-100.682 49.1994,-90.8461 52.8184,-82.7979"/>
<polygon fill="midnightblue" stroke="midnightblue" points="55.9974,-84.263 57.1677,-73.733 49.6862,-81.2349 55.9974,-84.263"/>
</g>
<!-- Node4 -->
<g id="node4" class="node"><title>Node4</title>
<g id="a_node4"><a xlink:href="$FilterWithBuffer_8h.html" xlink:title="A filter with a buffer. This is implemented separately to the base Filter class to get around restric...">
<polygon fill="white" stroke="black" points="52.3638,-110.5 52.3638,-128.5 144.882,-128.5 144.882,-110.5 52.3638,-110.5"/>
<text text-anchor="middle" x="98.623" y="-116.5" font-family="Helvetica,sans-Serif" font-size="10.00">FilterWithBuffer.h</text>
</a>
</g>
</g>
<!-- Node1&#45;&gt;Node4 -->
<g id="edge3" class="edge"><title>Node1&#45;&gt;Node4</title>
<path fill="none" stroke="midnightblue" d="M70.0189,-165.339C75.3359,-157.004 82.2592,-146.151 87.9628,-137.211"/>
<polygon fill="midnightblue" stroke="midnightblue" points="90.9189,-139.084 93.3464,-128.771 85.0175,-135.32 90.9189,-139.084"/>
</g>
<!-- Node3 -->
<g id="node3" class="node"><title>Node3</title>
<polygon fill="white" stroke="#bfbfbf" points="32.2217,-0.5 32.2217,-18.5 91.0244,-18.5 91.0244,-0.5 32.2217,-0.5"/>
<text text-anchor="middle" x="61.623" y="-6.5" font-family="Helvetica,sans-Serif" font-size="10.00">inttypes.h</text>
</g>
<!-- Node2&#45;&gt;Node3 -->
<g id="edge2" class="edge"><title>Node2&#45;&gt;Node3</title>
<path fill="none" stroke="midnightblue" d="M61.623,-55.2188C61.623,-48.1769 61.623,-37.8083 61.623,-28.8277"/>
<polygon fill="midnightblue" stroke="midnightblue" points="65.1231,-28.5495 61.623,-18.5496 58.1231,-28.5496 65.1231,-28.5495"/>
</g>
<!-- Node4&#45;&gt;Node2 -->
<g id="edge4" class="edge"><title>Node4&#45;&gt;Node2</title>
<path fill="none" stroke="midnightblue" d="M92.8418,-110.219C87.5434,-102.629 79.5473,-91.1753 72.9741,-81.7597"/>
<polygon fill="midnightblue" stroke="midnightblue" points="75.8367,-79.7457 67.2426,-73.5496 70.097,-83.7527 75.8367,-79.7457"/>
</g>
</g>
</svg>
