<?xml version="1.0" encoding="UTF-8" standalone="no"?>
<!DOCTYPE svg PUBLIC "-//W3C//DTD SVG 1.1//EN"
 "http://www.w3.org/Graphics/SVG/1.1/DTD/svg11.dtd">
<!-- Generated by graphviz version 2.38.0 (20140413.2041)
 -->
<!-- Title: dsm_guess_format Pages: 1 -->
<svg width="706pt" height="178pt"
 viewBox="0.00 0.00 706.14 178.00" xmlns="http://www.w3.org/2000/svg" xmlns:xlink="http://www.w3.org/1999/xlink">
<g id="graph0" class="graph" transform="scale(1 1) rotate(0) translate(4 174)">
<title>dsm_guess_format</title>
<polygon fill="white" stroke="none" points="-4,4 -4,-174 702.136,-174 702.136,4 -4,4"/>
<!-- Node1 -->
<g id="node1" class="node"><title>Node1</title>
<polygon fill="#bfbfbf" stroke="black" points="0,-75.5 0,-93.5 101.039,-93.5 101.039,-75.5 0,-75.5"/>
<text text-anchor="middle" x="50.5195" y="-81.5" font-family="Helvetica,sans-Serif" font-size="10.00">dsm_guess_format</text>
</g>
<!-- Node2 -->
<g id="node2" class="node"><title>Node2</title>
<g id="a_node2"><a xlink:href="$dsm_8h.html#a7b7c65c600dd4eacc1eb714df3621192" xlink:title="dsm_decode">
<polygon fill="white" stroke="black" points="137.039,-75.5 137.039,-93.5 210.3,-93.5 210.3,-75.5 137.039,-75.5"/>
<text text-anchor="middle" x="173.669" y="-81.5" font-family="Helvetica,sans-Serif" font-size="10.00">dsm_decode</text>
</a>
</g>
</g>
<!-- Node1&#45;&gt;Node2 -->
<g id="edge1" class="edge"><title>Node1&#45;&gt;Node2</title>
<path fill="none" stroke="midnightblue" d="M111.388,-84.5C120.158,-84.5 128.948,-84.5 137.022,-84.5"/>
<polygon fill="midnightblue" stroke="midnightblue" points="111.145,-81.0001 101.145,-84.5 111.145,-88.0001 111.145,-81.0001"/>
</g>
<!-- Node3 -->
<g id="node3" class="node"><title>Node3</title>
<g id="a_node3"><a xlink:href="$classLinux_1_1RCInput.html#a8dcefc98cb9bdeaad8b1b2b0e9b9b678" xlink:title="Linux::RCInput::_process\l_dsm_pulse">
<polygon fill="white" stroke="black" points="246.3,-70.5 246.3,-98.5 374.58,-98.5 374.58,-70.5 246.3,-70.5"/>
<text text-anchor="start" x="254.3" y="-86.5" font-family="Helvetica,sans-Serif" font-size="10.00">Linux::RCInput::_process</text>
<text text-anchor="middle" x="310.44" y="-76.5" font-family="Helvetica,sans-Serif" font-size="10.00">_dsm_pulse</text>
</a>
</g>
</g>
<!-- Node2&#45;&gt;Node3 -->
<g id="edge2" class="edge"><title>Node2&#45;&gt;Node3</title>
<path fill="none" stroke="midnightblue" d="M220.566,-84.5C228.802,-84.5 237.517,-84.5 246.142,-84.5"/>
<polygon fill="midnightblue" stroke="midnightblue" points="220.432,-81.0001 210.432,-84.5 220.432,-88.0001 220.432,-81.0001"/>
</g>
<!-- Node4 -->
<g id="node4" class="node"><title>Node4</title>
<g id="a_node4"><a xlink:href="$classLinux_1_1RCInput.html#a9b269fac087807d362506805ebd18936" xlink:title="Linux::RCInput::_process\l_rc_pulse">
<polygon fill="white" stroke="black" points="410.58,-70.5 410.58,-98.5 538.86,-98.5 538.86,-70.5 410.58,-70.5"/>
<text text-anchor="start" x="418.58" y="-86.5" font-family="Helvetica,sans-Serif" font-size="10.00">Linux::RCInput::_process</text>
<text text-anchor="middle" x="474.72" y="-76.5" font-family="Helvetica,sans-Serif" font-size="10.00">_rc_pulse</text>
</a>
</g>
</g>
<!-- Node3&#45;&gt;Node4 -->
<g id="edge3" class="edge"><title>Node3&#45;&gt;Node4</title>
<path fill="none" stroke="midnightblue" d="M384.66,-84.5C393.257,-84.5 401.974,-84.5 410.419,-84.5"/>
<polygon fill="midnightblue" stroke="midnightblue" points="384.646,-81.0001 374.646,-84.5 384.646,-88.0001 384.646,-81.0001"/>
</g>
<!-- Node5 -->
<g id="node5" class="node"><title>Node5</title>
<g id="a_node5"><a xlink:href="$classLinux_1_1RCInput__AioPRU.html#a49ed287326adab88ddd7aa613b3ac3a6" xlink:title="Linux::RCInput_AioPRU\l::_timer_tick">
<polygon fill="white" stroke="black" points="574.86,-141.5 574.86,-169.5 698.136,-169.5 698.136,-141.5 574.86,-141.5"/>
<text text-anchor="start" x="582.86" y="-157.5" font-family="Helvetica,sans-Serif" font-size="10.00">Linux::RCInput_AioPRU</text>
<text text-anchor="middle" x="636.498" y="-147.5" font-family="Helvetica,sans-Serif" font-size="10.00">::_timer_tick</text>
</a>
</g>
</g>
<!-- Node4&#45;&gt;Node5 -->
<g id="edge4" class="edge"><title>Node4&#45;&gt;Node5</title>
<path fill="none" stroke="midnightblue" d="M512.196,-103.115C530.774,-112.351 553.826,-123.44 574.86,-132.5 581.892,-135.529 589.467,-138.571 596.799,-141.407"/>
<polygon fill="midnightblue" stroke="midnightblue" points="513.704,-99.9557 503.194,-98.6112 510.571,-106.216 513.704,-99.9557"/>
</g>
<!-- Node6 -->
<g id="node6" class="node"><title>Node6</title>
<g id="a_node6"><a xlink:href="$classLinux_1_1RCInput__PRU.html#ac951bed8e21d81f9b3e76d261b581f99" xlink:title="Linux::RCInput_PRU\l::_timer_tick">
<polygon fill="white" stroke="black" points="582.087,-94.5 582.087,-122.5 690.909,-122.5 690.909,-94.5 582.087,-94.5"/>
<text text-anchor="start" x="590.087" y="-110.5" font-family="Helvetica,sans-Serif" font-size="10.00">Linux::RCInput_PRU</text>
<text text-anchor="middle" x="636.498" y="-100.5" font-family="Helvetica,sans-Serif" font-size="10.00">::_timer_tick</text>
</a>
</g>
</g>
<!-- Node4&#45;&gt;Node6 -->
<g id="edge5" class="edge"><title>Node4&#45;&gt;Node6</title>
<path fill="none" stroke="midnightblue" d="M549.026,-95.5111C560.165,-97.1844 571.477,-98.8835 582.086,-100.477"/>
<polygon fill="midnightblue" stroke="midnightblue" points="549.278,-92.0098 538.869,-93.9854 548.238,-98.9321 549.278,-92.0098"/>
</g>
<!-- Node7 -->
<g id="node7" class="node"><title>Node7</title>
<g id="a_node7"><a xlink:href="$classLinux_1_1RCInput__RPI.html#ae2e63649584270728c71d7f49a8bb866" xlink:title="Linux::RCInput_RPI\l::_timer_tick">
<polygon fill="white" stroke="black" points="584.309,-47.5 584.309,-75.5 688.688,-75.5 688.688,-47.5 584.309,-47.5"/>
<text text-anchor="start" x="592.309" y="-63.5" font-family="Helvetica,sans-Serif" font-size="10.00">Linux::RCInput_RPI</text>
<text text-anchor="middle" x="636.498" y="-53.5" font-family="Helvetica,sans-Serif" font-size="10.00">::_timer_tick</text>
</a>
</g>
</g>
<!-- Node4&#45;&gt;Node7 -->
<g id="edge6" class="edge"><title>Node4&#45;&gt;Node7</title>
<path fill="none" stroke="midnightblue" d="M548.809,-73.9788C560.728,-72.2631 572.851,-70.518 584.105,-68.898"/>
<polygon fill="midnightblue" stroke="midnightblue" points="548.268,-70.5206 538.869,-75.4098 549.265,-77.4492 548.268,-70.5206"/>
</g>
<!-- Node8 -->
<g id="node8" class="node"><title>Node8</title>
<g id="a_node8"><a xlink:href="$classLinux_1_1RCInput__ZYNQ.html#a1ec51c6ebac3bbce45e2f386ee2d55fc" xlink:title="Linux::RCInput_ZYNQ\l::_timer_tick">
<polygon fill="white" stroke="black" points="578.754,-0.5 578.754,-28.5 694.242,-28.5 694.242,-0.5 578.754,-0.5"/>
<text text-anchor="start" x="586.754" y="-16.5" font-family="Helvetica,sans-Serif" font-size="10.00">Linux::RCInput_ZYNQ</text>
<text text-anchor="middle" x="636.498" y="-6.5" font-family="Helvetica,sans-Serif" font-size="10.00">::_timer_tick</text>
</a>
</g>
</g>
<!-- Node4&#45;&gt;Node8 -->
<g id="edge7" class="edge"><title>Node4&#45;&gt;Node8</title>
<path fill="none" stroke="midnightblue" d="M514.184,-66.0261C532.457,-57.4115 554.669,-47.1716 574.86,-38.5 582.663,-35.1491 591.098,-31.7017 599.126,-28.5019"/>
<polygon fill="midnightblue" stroke="midnightblue" points="512.559,-62.9228 505.019,-70.3659 515.555,-69.2494 512.559,-62.9228"/>
</g>
</g>
</svg>
