<?xml version="1.0" encoding="UTF-8" standalone="no"?>
<!DOCTYPE svg PUBLIC "-//W3C//DTD SVG 1.1//EN"
 "http://www.w3.org/Graphics/SVG/1.1/DTD/svg11.dtd">
<!-- Generated by graphviz version 2.38.0 (20140413.2041)
 -->
<!-- Title: dsm_decode_channel Pages: 1 -->
<svg width="856pt" height="178pt"
 viewBox="0.00 0.00 855.99 178.00" xmlns="http://www.w3.org/2000/svg" xmlns:xlink="http://www.w3.org/1999/xlink">
<g id="graph0" class="graph" transform="scale(1 1) rotate(0) translate(4 174)">
<title>dsm_decode_channel</title>
<polygon fill="white" stroke="none" points="-4,4 -4,-174 851.987,-174 851.987,4 -4,4"/>
<!-- Node1 -->
<g id="node1" class="node"><title>Node1</title>
<polygon fill="#bfbfbf" stroke="black" points="0,-75.5 0,-93.5 113.852,-93.5 113.852,-75.5 0,-75.5"/>
<text text-anchor="middle" x="56.9258" y="-81.5" font-family="Helvetica,sans-Serif" font-size="10.00">dsm_decode_channel</text>
</g>
<!-- Node2 -->
<g id="node2" class="node"><title>Node2</title>
<g id="a_node2"><a xlink:href="$dsm_8h.html#a7b7c65c600dd4eacc1eb714df3621192" xlink:title="dsm_decode">
<polygon fill="white" stroke="black" points="286.891,-75.5 286.891,-93.5 360.151,-93.5 360.151,-75.5 286.891,-75.5"/>
<text text-anchor="middle" x="323.521" y="-81.5" font-family="Helvetica,sans-Serif" font-size="10.00">dsm_decode</text>
</a>
</g>
</g>
<!-- Node1&#45;&gt;Node2 -->
<g id="edge1" class="edge"><title>Node1&#45;&gt;Node2</title>
<path fill="none" stroke="midnightblue" d="M124.092,-84.5C175.621,-84.5 245.17,-84.5 286.768,-84.5"/>
<polygon fill="midnightblue" stroke="midnightblue" points="124.04,-81.0001 114.04,-84.5 124.04,-88.0001 124.04,-81.0001"/>
</g>
<!-- Node9 -->
<g id="node9" class="node"><title>Node9</title>
<g id="a_node9"><a xlink:href="$dsm_8cpp.html#ac4b7f20336ae87e6426bfd94be23bb37" xlink:title="dsm_guess_format">
<polygon fill="white" stroke="black" points="149.852,-56.5 149.852,-74.5 250.891,-74.5 250.891,-56.5 149.852,-56.5"/>
<text text-anchor="middle" x="200.371" y="-62.5" font-family="Helvetica,sans-Serif" font-size="10.00">dsm_guess_format</text>
</a>
</g>
</g>
<!-- Node1&#45;&gt;Node9 -->
<g id="edge8" class="edge"><title>Node1&#45;&gt;Node9</title>
<path fill="none" stroke="midnightblue" d="M124.216,-75.5954C132.778,-74.4453 141.427,-73.2835 149.658,-72.1778"/>
<polygon fill="midnightblue" stroke="midnightblue" points="123.68,-72.1359 114.235,-76.9361 124.612,-79.0735 123.68,-72.1359"/>
</g>
<!-- Node3 -->
<g id="node3" class="node"><title>Node3</title>
<g id="a_node3"><a xlink:href="$classLinux_1_1RCInput.html#a8dcefc98cb9bdeaad8b1b2b0e9b9b678" xlink:title="Linux::RCInput::_process\l_dsm_pulse">
<polygon fill="white" stroke="black" points="396.151,-70.5 396.151,-98.5 524.432,-98.5 524.432,-70.5 396.151,-70.5"/>
<text text-anchor="start" x="404.151" y="-86.5" font-family="Helvetica,sans-Serif" font-size="10.00">Linux::RCInput::_process</text>
<text text-anchor="middle" x="460.292" y="-76.5" font-family="Helvetica,sans-Serif" font-size="10.00">_dsm_pulse</text>
</a>
</g>
</g>
<!-- Node2&#45;&gt;Node3 -->
<g id="edge2" class="edge"><title>Node2&#45;&gt;Node3</title>
<path fill="none" stroke="midnightblue" d="M370.417,-84.5C378.654,-84.5 387.368,-84.5 395.993,-84.5"/>
<polygon fill="midnightblue" stroke="midnightblue" points="370.283,-81.0001 360.283,-84.5 370.283,-88.0001 370.283,-81.0001"/>
</g>
<!-- Node4 -->
<g id="node4" class="node"><title>Node4</title>
<g id="a_node4"><a xlink:href="$classLinux_1_1RCInput.html#a9b269fac087807d362506805ebd18936" xlink:title="Linux::RCInput::_process\l_rc_pulse">
<polygon fill="white" stroke="black" points="560.432,-70.5 560.432,-98.5 688.712,-98.5 688.712,-70.5 560.432,-70.5"/>
<text text-anchor="start" x="568.432" y="-86.5" font-family="Helvetica,sans-Serif" font-size="10.00">Linux::RCInput::_process</text>
<text text-anchor="middle" x="624.572" y="-76.5" font-family="Helvetica,sans-Serif" font-size="10.00">_rc_pulse</text>
</a>
</g>
</g>
<!-- Node3&#45;&gt;Node4 -->
<g id="edge3" class="edge"><title>Node3&#45;&gt;Node4</title>
<path fill="none" stroke="midnightblue" d="M534.512,-84.5C543.109,-84.5 551.825,-84.5 560.271,-84.5"/>
<polygon fill="midnightblue" stroke="midnightblue" points="534.498,-81.0001 524.498,-84.5 534.498,-88.0001 534.498,-81.0001"/>
</g>
<!-- Node5 -->
<g id="node5" class="node"><title>Node5</title>
<g id="a_node5"><a xlink:href="$classLinux_1_1RCInput__AioPRU.html#a49ed287326adab88ddd7aa613b3ac3a6" xlink:title="Linux::RCInput_AioPRU\l::_timer_tick">
<polygon fill="white" stroke="black" points="724.712,-141.5 724.712,-169.5 847.987,-169.5 847.987,-141.5 724.712,-141.5"/>
<text text-anchor="start" x="732.712" y="-157.5" font-family="Helvetica,sans-Serif" font-size="10.00">Linux::RCInput_AioPRU</text>
<text text-anchor="middle" x="786.35" y="-147.5" font-family="Helvetica,sans-Serif" font-size="10.00">::_timer_tick</text>
</a>
</g>
</g>
<!-- Node4&#45;&gt;Node5 -->
<g id="edge4" class="edge"><title>Node4&#45;&gt;Node5</title>
<path fill="none" stroke="midnightblue" d="M662.048,-103.115C680.625,-112.351 703.677,-123.44 724.712,-132.5 731.744,-135.529 739.318,-138.571 746.651,-141.407"/>
<polygon fill="midnightblue" stroke="midnightblue" points="663.555,-99.9557 653.046,-98.6112 660.423,-106.216 663.555,-99.9557"/>
</g>
<!-- Node6 -->
<g id="node6" class="node"><title>Node6</title>
<g id="a_node6"><a xlink:href="$classLinux_1_1RCInput__PRU.html#ac951bed8e21d81f9b3e76d261b581f99" xlink:title="Linux::RCInput_PRU\l::_timer_tick">
<polygon fill="white" stroke="black" points="731.938,-94.5 731.938,-122.5 840.761,-122.5 840.761,-94.5 731.938,-94.5"/>
<text text-anchor="start" x="739.938" y="-110.5" font-family="Helvetica,sans-Serif" font-size="10.00">Linux::RCInput_PRU</text>
<text text-anchor="middle" x="786.35" y="-100.5" font-family="Helvetica,sans-Serif" font-size="10.00">::_timer_tick</text>
</a>
</g>
</g>
<!-- Node4&#45;&gt;Node6 -->
<g id="edge5" class="edge"><title>Node4&#45;&gt;Node6</title>
<path fill="none" stroke="midnightblue" d="M698.877,-95.5111C710.017,-97.1844 721.328,-98.8835 731.938,-100.477"/>
<polygon fill="midnightblue" stroke="midnightblue" points="699.129,-92.0098 688.72,-93.9854 698.089,-98.9321 699.129,-92.0098"/>
</g>
<!-- Node7 -->
<g id="node7" class="node"><title>Node7</title>
<g id="a_node7"><a xlink:href="$classLinux_1_1RCInput__RPI.html#ae2e63649584270728c71d7f49a8bb866" xlink:title="Linux::RCInput_RPI\l::_timer_tick">
<polygon fill="white" stroke="black" points="734.16,-47.5 734.16,-75.5 838.539,-75.5 838.539,-47.5 734.16,-47.5"/>
<text text-anchor="start" x="742.16" y="-63.5" font-family="Helvetica,sans-Serif" font-size="10.00">Linux::RCInput_RPI</text>
<text text-anchor="middle" x="786.35" y="-53.5" font-family="Helvetica,sans-Serif" font-size="10.00">::_timer_tick</text>
</a>
</g>
</g>
<!-- Node4&#45;&gt;Node7 -->
<g id="edge6" class="edge"><title>Node4&#45;&gt;Node7</title>
<path fill="none" stroke="midnightblue" d="M698.661,-73.9788C710.58,-72.2631 722.703,-70.518 733.957,-68.898"/>
<polygon fill="midnightblue" stroke="midnightblue" points="698.119,-70.5206 688.72,-75.4098 699.117,-77.4492 698.119,-70.5206"/>
</g>
<!-- Node8 -->
<g id="node8" class="node"><title>Node8</title>
<g id="a_node8"><a xlink:href="$classLinux_1_1RCInput__ZYNQ.html#a1ec51c6ebac3bbce45e2f386ee2d55fc" xlink:title="Linux::RCInput_ZYNQ\l::_timer_tick">
<polygon fill="white" stroke="black" points="728.606,-0.5 728.606,-28.5 844.093,-28.5 844.093,-0.5 728.606,-0.5"/>
<text text-anchor="start" x="736.606" y="-16.5" font-family="Helvetica,sans-Serif" font-size="10.00">Linux::RCInput_ZYNQ</text>
<text text-anchor="middle" x="786.35" y="-6.5" font-family="Helvetica,sans-Serif" font-size="10.00">::_timer_tick</text>
</a>
</g>
</g>
<!-- Node4&#45;&gt;Node8 -->
<g id="edge7" class="edge"><title>Node4&#45;&gt;Node8</title>
<path fill="none" stroke="midnightblue" d="M663.139,-65.819C681.539,-56.8932 704.117,-46.2708 724.712,-37.5 731.86,-34.456 739.559,-31.382 746.994,-28.5153"/>
<polygon fill="midnightblue" stroke="midnightblue" points="661.382,-62.7819 653.93,-70.3132 664.452,-69.0727 661.382,-62.7819"/>
</g>
<!-- Node9&#45;&gt;Node2 -->
<g id="edge9" class="edge"><title>Node9&#45;&gt;Node2</title>
<path fill="none" stroke="midnightblue" d="M260.953,-74.8443C269.818,-76.2346 278.711,-77.6293 286.873,-78.9093"/>
<polygon fill="midnightblue" stroke="midnightblue" points="261.419,-71.3746 250.997,-73.2828 260.334,-78.29 261.419,-71.3746"/>
</g>
</g>
</svg>
