<?xml version="1.0" encoding="UTF-8" standalone="no"?>
<!DOCTYPE svg PUBLIC "-//W3C//DTD SVG 1.1//EN"
 "http://www.w3.org/Graphics/SVG/1.1/DTD/svg11.dtd">
<!-- Generated by graphviz version 2.38.0 (20140413.2041)
 -->
<!-- Title: libraries/AP_HAL_Linux/dsm.cpp Pages: 1 -->
<svg width="289pt" height="147pt"
 viewBox="0.00 0.00 288.74 147.00" xmlns="http://www.w3.org/2000/svg" xmlns:xlink="http://www.w3.org/1999/xlink">
<g id="graph0" class="graph" transform="scale(1 1) rotate(0) translate(4 143)">
<title>libraries/AP_HAL_Linux/dsm.cpp</title>
<polygon fill="white" stroke="none" points="-4,4 -4,-143 284.736,-143 284.736,4 -4,4"/>
<!-- Node1 -->
<g id="node1" class="node"><title>Node1</title>
<polygon fill="#bfbfbf" stroke="black" points="97.3154,-110.5 97.3154,-138.5 218.926,-138.5 218.926,-110.5 97.3154,-110.5"/>
<text text-anchor="start" x="105.315" y="-126.5" font-family="Helvetica,sans-Serif" font-size="10.00">libraries/AP_HAL_Linux</text>
<text text-anchor="middle" x="158.121" y="-116.5" font-family="Helvetica,sans-Serif" font-size="10.00">/dsm.cpp</text>
</g>
<!-- Node2 -->
<g id="node2" class="node"><title>Node2</title>
<polygon fill="white" stroke="#bfbfbf" points="0,-0.5 0,-18.5 48.2412,-18.5 48.2412,-0.5 0,-0.5"/>
<text text-anchor="middle" x="24.1206" y="-6.5" font-family="Helvetica,sans-Serif" font-size="10.00">stdint.h</text>
</g>
<!-- Node1&#45;&gt;Node2 -->
<g id="edge1" class="edge"><title>Node1&#45;&gt;Node2</title>
<path fill="none" stroke="midnightblue" d="M97.0205,-115.814C70.8171,-109.192 42.5148,-96.8789 26.1206,-74 16.8855,-61.1119 17.3912,-42.6757 19.6103,-28.9858"/>
<polygon fill="midnightblue" stroke="midnightblue" points="23.1129,-29.329 21.7011,-18.8287 16.2567,-27.9176 23.1129,-29.329"/>
</g>
<!-- Node3 -->
<g id="node3" class="node"><title>Node3</title>
<polygon fill="white" stroke="#bfbfbf" points="164.828,-0.5 164.828,-18.5 221.414,-18.5 221.414,-0.5 164.828,-0.5"/>
<text text-anchor="middle" x="193.121" y="-6.5" font-family="Helvetica,sans-Serif" font-size="10.00">stdbool.h</text>
</g>
<!-- Node1&#45;&gt;Node3 -->
<g id="edge2" class="edge"><title>Node1&#45;&gt;Node3</title>
<path fill="none" stroke="midnightblue" d="M169.499,-110.215C176.844,-100.78 185.805,-87.4462 190.121,-74 194.82,-59.3568 195.292,-41.8411 194.747,-28.9183"/>
<polygon fill="midnightblue" stroke="midnightblue" points="198.213,-28.2993 194.052,-18.5559 191.229,-28.7677 198.213,-28.2993"/>
</g>
<!-- Node4 -->
<g id="node4" class="node"><title>Node4</title>
<g id="a_node4"><a xlink:href="$AP__Common_8h.html" xlink:title="Common definitions and utility routines for the ArduPilot libraries. ">
<polygon fill="white" stroke="black" points="35.0938,-55.5 35.0938,-73.5 181.147,-73.5 181.147,-55.5 35.0938,-55.5"/>
<text text-anchor="middle" x="108.121" y="-61.5" font-family="Helvetica,sans-Serif" font-size="10.00">AP_Common/AP_Common.h</text>
</a>
</g>
</g>
<!-- Node1&#45;&gt;Node4 -->
<g id="edge3" class="edge"><title>Node1&#45;&gt;Node4</title>
<path fill="none" stroke="midnightblue" d="M146.775,-110.339C139.363,-101.741 129.641,-90.4634 121.801,-81.3696"/>
<polygon fill="midnightblue" stroke="midnightblue" points="124.432,-79.0603 115.251,-73.7715 119.13,-83.6309 124.432,-79.0603"/>
</g>
<!-- Node6 -->
<g id="node6" class="node"><title>Node6</title>
<g id="a_node6"><a xlink:href="$dsm_8h.html" xlink:title="dsm.h">
<polygon fill="white" stroke="black" points="237.505,-55.5 237.505,-73.5 280.736,-73.5 280.736,-55.5 237.505,-55.5"/>
<text text-anchor="middle" x="259.121" y="-61.5" font-family="Helvetica,sans-Serif" font-size="10.00">dsm.h</text>
</a>
</g>
</g>
<!-- Node1&#45;&gt;Node6 -->
<g id="edge7" class="edge"><title>Node1&#45;&gt;Node6</title>
<path fill="none" stroke="midnightblue" d="M180.787,-110.484C197.22,-101.047 219.371,-88.3262 235.925,-78.82"/>
<polygon fill="midnightblue" stroke="midnightblue" points="238.011,-81.6585 244.94,-73.6434 234.525,-75.5882 238.011,-81.6585"/>
</g>
<!-- Node4&#45;&gt;Node2 -->
<g id="edge4" class="edge"><title>Node4&#45;&gt;Node2</title>
<path fill="none" stroke="midnightblue" d="M95.3628,-55.4504C82.1649,-47.1232 61.319,-33.9704 45.5793,-24.0394"/>
<polygon fill="midnightblue" stroke="midnightblue" points="47.3234,-21.0014 36.9985,-18.6253 43.5881,-26.9216 47.3234,-21.0014"/>
</g>
<!-- Node4&#45;&gt;Node3 -->
<g id="edge6" class="edge"><title>Node4&#45;&gt;Node3</title>
<path fill="none" stroke="midnightblue" d="M121.03,-55.4504C134.385,-47.1232 155.479,-33.9704 171.406,-24.0394"/>
<polygon fill="midnightblue" stroke="midnightblue" points="173.456,-26.8863 180.089,-18.6253 169.752,-20.9464 173.456,-26.8863"/>
</g>
<!-- Node5 -->
<g id="node5" class="node"><title>Node5</title>
<polygon fill="white" stroke="#bfbfbf" points="84.2783,-0.5 84.2783,-18.5 131.963,-18.5 131.963,-0.5 84.2783,-0.5"/>
<text text-anchor="middle" x="108.121" y="-6.5" font-family="Helvetica,sans-Serif" font-size="10.00">stdlib.h</text>
</g>
<!-- Node4&#45;&gt;Node5 -->
<g id="edge5" class="edge"><title>Node4&#45;&gt;Node5</title>
<path fill="none" stroke="midnightblue" d="M108.121,-55.2188C108.121,-48.1769 108.121,-37.8083 108.121,-28.8277"/>
<polygon fill="midnightblue" stroke="midnightblue" points="111.621,-28.5495 108.121,-18.5496 104.621,-28.5496 111.621,-28.5495"/>
</g>
</g>
</svg>
