<?xml version="1.0" encoding="UTF-8" standalone="no"?>
<!DOCTYPE svg PUBLIC "-//W3C//DTD SVG 1.1//EN"
 "http://www.w3.org/Graphics/SVG/1.1/DTD/svg11.dtd">
<!-- Generated by graphviz version 2.38.0 (20140413.2041)
 -->
<!-- Title: libraries/AP_Math/edc.cpp Pages: 1 -->
<svg width="218pt" height="137pt"
 viewBox="0.00 0.00 218.04 137.00" xmlns="http://www.w3.org/2000/svg" xmlns:xlink="http://www.w3.org/1999/xlink">
<g id="graph0" class="graph" transform="scale(1 1) rotate(0) translate(4 133)">
<title>libraries/AP_Math/edc.cpp</title>
<polygon fill="white" stroke="none" points="-4,4 -4,-133 214.037,-133 214.037,4 -4,4"/>
<!-- Node1 -->
<g id="node1" class="node"><title>Node1</title>
<polygon fill="#bfbfbf" stroke="black" points="10.8696,-110.5 10.8696,-128.5 143.593,-128.5 143.593,-110.5 10.8696,-110.5"/>
<text text-anchor="middle" x="77.2314" y="-116.5" font-family="Helvetica,sans-Serif" font-size="10.00">libraries/AP_Math/edc.cpp</text>
</g>
<!-- Node2 -->
<g id="node2" class="node"><title>Node2</title>
<g id="a_node2"><a xlink:href="$edc_8h.html" xlink:title="edc.h">
<polygon fill="white" stroke="black" points="0,-55.5 0,-73.5 40.4629,-73.5 40.4629,-55.5 0,-55.5"/>
<text text-anchor="middle" x="20.2314" y="-61.5" font-family="Helvetica,sans-Serif" font-size="10.00">edc.h</text>
</a>
</g>
</g>
<!-- Node1&#45;&gt;Node2 -->
<g id="edge1" class="edge"><title>Node1&#45;&gt;Node2</title>
<path fill="none" stroke="midnightblue" d="M68.3252,-110.219C59.8262,-102.316 46.8215,-90.2241 36.4772,-80.6057"/>
<polygon fill="midnightblue" stroke="midnightblue" points="38.5952,-77.7958 28.8885,-73.5496 33.8286,-82.9222 38.5952,-77.7958"/>
</g>
<!-- Node4 -->
<g id="node4" class="node"><title>Node4</title>
<g id="a_node4"><a xlink:href="$AP__Progmem_8h.html" xlink:title="AP_Progmem/AP_Progmem.h">
<polygon fill="white" stroke="black" points="58.4263,-55.5 58.4263,-73.5 210.037,-73.5 210.037,-55.5 58.4263,-55.5"/>
<text text-anchor="middle" x="134.231" y="-61.5" font-family="Helvetica,sans-Serif" font-size="10.00">AP_Progmem/AP_Progmem.h</text>
</a>
</g>
</g>
<!-- Node1&#45;&gt;Node4 -->
<g id="edge3" class="edge"><title>Node1&#45;&gt;Node4</title>
<path fill="none" stroke="midnightblue" d="M86.1377,-110.219C94.6367,-102.316 107.641,-90.2241 117.986,-80.6057"/>
<polygon fill="midnightblue" stroke="midnightblue" points="120.634,-82.9222 125.574,-73.5496 115.868,-77.7958 120.634,-82.9222"/>
</g>
<!-- Node3 -->
<g id="node3" class="node"><title>Node3</title>
<polygon fill="white" stroke="#bfbfbf" points="19.1108,-0.5 19.1108,-18.5 67.3521,-18.5 67.3521,-0.5 19.1108,-0.5"/>
<text text-anchor="middle" x="43.2314" y="-6.5" font-family="Helvetica,sans-Serif" font-size="10.00">stdint.h</text>
</g>
<!-- Node2&#45;&gt;Node3 -->
<g id="edge2" class="edge"><title>Node2&#45;&gt;Node3</title>
<path fill="none" stroke="midnightblue" d="M23.8252,-55.2188C26.983,-47.9421 31.6823,-37.1134 35.6655,-27.9345"/>
<polygon fill="midnightblue" stroke="midnightblue" points="38.968,-29.1164 39.7382,-18.5496 32.5465,-26.3297 38.968,-29.1164"/>
</g>
<!-- Node4&#45;&gt;Node3 -->
<g id="edge5" class="edge"><title>Node4&#45;&gt;Node3</title>
<path fill="none" stroke="midnightblue" d="M120.411,-55.4504C105.979,-47.0453 83.1069,-33.7241 66.0017,-23.7618"/>
<polygon fill="midnightblue" stroke="midnightblue" points="67.5852,-20.6337 57.1825,-18.6253 64.0622,-26.6826 67.5852,-20.6337"/>
</g>
<!-- Node5 -->
<g id="node5" class="node"><title>Node5</title>
<polygon fill="white" stroke="#bfbfbf" points="109.835,-0.5 109.835,-18.5 158.628,-18.5 158.628,-0.5 109.835,-0.5"/>
<text text-anchor="middle" x="134.231" y="-6.5" font-family="Helvetica,sans-Serif" font-size="10.00">string.h</text>
</g>
<!-- Node4&#45;&gt;Node5 -->
<g id="edge4" class="edge"><title>Node4&#45;&gt;Node5</title>
<path fill="none" stroke="midnightblue" d="M134.231,-55.2188C134.231,-48.1769 134.231,-37.8083 134.231,-28.8277"/>
<polygon fill="midnightblue" stroke="midnightblue" points="137.732,-28.5495 134.231,-18.5496 130.732,-28.5496 137.732,-28.5495"/>
</g>
</g>
</svg>
