<?xml version="1.0" encoding="UTF-8" standalone="no"?>
<!DOCTYPE svg PUBLIC "-//W3C//DTD SVG 1.1//EN"
 "http://www.w3.org/Graphics/SVG/1.1/DTD/svg11.dtd">
<!-- Generated by graphviz version 2.38.0 (20140413.2041)
 -->
<!-- Title: libraries/AP_Param/tools/eedump.c Pages: 1 -->
<svg width="186pt" height="92pt"
 viewBox="0.00 0.00 185.85 92.00" xmlns="http://www.w3.org/2000/svg" xmlns:xlink="http://www.w3.org/1999/xlink">
<g id="graph0" class="graph" transform="scale(1 1) rotate(0) translate(4 88)">
<title>libraries/AP_Param/tools/eedump.c</title>
<polygon fill="white" stroke="none" points="-4,4 -4,-88 181.852,-88 181.852,4 -4,4"/>
<!-- Node1 -->
<g id="node1" class="node"><title>Node1</title>
<polygon fill="#bfbfbf" stroke="black" points="36.6602,-55.5 36.6602,-83.5 138.803,-83.5 138.803,-55.5 36.6602,-55.5"/>
<text text-anchor="start" x="44.6602" y="-71.5" font-family="Helvetica,sans-Serif" font-size="10.00">libraries/AP_Param</text>
<text text-anchor="middle" x="87.7314" y="-61.5" font-family="Helvetica,sans-Serif" font-size="10.00">/tools/eedump.c</text>
</g>
<!-- Node2 -->
<g id="node2" class="node"><title>Node2</title>
<polygon fill="white" stroke="#bfbfbf" points="0,-0.5 0,-18.5 45.4629,-18.5 45.4629,-0.5 0,-0.5"/>
<text text-anchor="middle" x="22.7314" y="-6.5" font-family="Helvetica,sans-Serif" font-size="10.00">stdio.h</text>
</g>
<!-- Node1&#45;&gt;Node2 -->
<g id="edge1" class="edge"><title>Node1&#45;&gt;Node2</title>
<path fill="none" stroke="midnightblue" d="M72.9819,-55.3389C63.0513,-46.4777 49.9311,-34.7705 39.5874,-25.5407"/>
<polygon fill="midnightblue" stroke="midnightblue" points="41.7929,-22.8179 32.0012,-18.7715 37.1324,-28.0409 41.7929,-22.8179"/>
</g>
<!-- Node3 -->
<g id="node3" class="node"><title>Node3</title>
<polygon fill="white" stroke="#bfbfbf" points="63.8892,-0.5 63.8892,-18.5 111.574,-18.5 111.574,-0.5 63.8892,-0.5"/>
<text text-anchor="middle" x="87.7314" y="-6.5" font-family="Helvetica,sans-Serif" font-size="10.00">stdlib.h</text>
</g>
<!-- Node1&#45;&gt;Node3 -->
<g id="edge2" class="edge"><title>Node1&#45;&gt;Node3</title>
<path fill="none" stroke="midnightblue" d="M87.7314,-55.3389C87.7314,-47.5305 87.7314,-37.5122 87.7314,-28.9265"/>
<polygon fill="midnightblue" stroke="midnightblue" points="91.2315,-28.7714 87.7314,-18.7715 84.2315,-28.7715 91.2315,-28.7714"/>
</g>
<!-- Node4 -->
<g id="node4" class="node"><title>Node4</title>
<polygon fill="white" stroke="#bfbfbf" points="129.611,-0.5 129.611,-18.5 177.852,-18.5 177.852,-0.5 129.611,-0.5"/>
<text text-anchor="middle" x="153.731" y="-6.5" font-family="Helvetica,sans-Serif" font-size="10.00">stdint.h</text>
</g>
<!-- Node1&#45;&gt;Node4 -->
<g id="edge3" class="edge"><title>Node1&#45;&gt;Node4</title>
<path fill="none" stroke="midnightblue" d="M102.708,-55.3389C112.791,-46.4777 126.113,-34.7705 136.616,-25.5407"/>
<polygon fill="midnightblue" stroke="midnightblue" points="139.118,-28.0017 144.319,-18.7715 134.497,-22.7436 139.118,-28.0017"/>
</g>
</g>
</svg>
