<?xml version="1.0" encoding="UTF-8" standalone="no"?>
<!DOCTYPE svg PUBLIC "-//W3C//DTD SVG 1.1//EN"
 "http://www.w3.org/Graphics/SVG/1.1/DTD/svg11.dtd">
<!-- Generated by graphviz version 2.38.0 (20140413.2041)
 -->
<!-- Title: main Pages: 1 -->
<svg width="140pt" height="64pt"
 viewBox="0.00 0.00 139.92 64.00" xmlns="http://www.w3.org/2000/svg" xmlns:xlink="http://www.w3.org/1999/xlink">
<g id="graph0" class="graph" transform="scale(1 1) rotate(0) translate(4 60)">
<title>main</title>
<polygon fill="white" stroke="none" points="-4,4 -4,-60 135.921,-60 135.921,4 -4,4"/>
<!-- Node1 -->
<g id="node1" class="node"><title>Node1</title>
<polygon fill="#bfbfbf" stroke="black" points="0,-18.5 0,-36.5 37.6748,-36.5 37.6748,-18.5 0,-18.5"/>
<text text-anchor="middle" x="18.8374" y="-24.5" font-family="Helvetica,sans-Serif" font-size="10.00">main</text>
</g>
<!-- Node2 -->
<g id="node2" class="node"><title>Node2</title>
<g id="a_node2"><a xlink:href="$eedump__apparam_8c.html#a11fab3228d1d3ab1f79be9480422c759" xlink:title="fail">
<polygon fill="white" stroke="black" points="88.2979,-37.5 88.2979,-55.5 117.298,-55.5 117.298,-37.5 88.2979,-37.5"/>
<text text-anchor="middle" x="102.798" y="-43.5" font-family="Helvetica,sans-Serif" font-size="10.00">fail</text>
</a>
</g>
</g>
<!-- Node1&#45;&gt;Node2 -->
<g id="edge1" class="edge"><title>Node1&#45;&gt;Node2</title>
<path fill="none" stroke="midnightblue" d="M38.0271,-31.7167C49.8909,-34.467 65.4913,-38.0835 78.2925,-41.051"/>
<polygon fill="midnightblue" stroke="midnightblue" points="77.7115,-44.5091 88.2436,-43.3579 79.2924,-37.6899 77.7115,-44.5091"/>
</g>
<!-- Node3 -->
<g id="node3" class="node"><title>Node3</title>
<g id="a_node3"><a xlink:href="$eedump__apparam_8c.html#ad2d3eb05bbcd71120214ff3b557a50b3" xlink:title="type_size">
<polygon fill="white" stroke="black" points="73.6748,-0.5 73.6748,-18.5 131.921,-18.5 131.921,-0.5 73.6748,-0.5"/>
<text text-anchor="middle" x="102.798" y="-6.5" font-family="Helvetica,sans-Serif" font-size="10.00">type_size</text>
</a>
</g>
</g>
<!-- Node1&#45;&gt;Node3 -->
<g id="edge2" class="edge"><title>Node1&#45;&gt;Node3</title>
<path fill="none" stroke="midnightblue" d="M38.0271,-23.5052C45.6339,-21.8346 54.7769,-19.8266 63.7333,-17.8597"/>
<polygon fill="midnightblue" stroke="midnightblue" points="64.6577,-21.2401 73.6741,-15.6765 63.1561,-14.4031 64.6577,-21.2401"/>
</g>
</g>
</svg>
