<?xml version="1.0" encoding="UTF-8" standalone="no"?>
<!DOCTYPE svg PUBLIC "-//W3C//DTD SVG 1.1//EN"
 "http://www.w3.org/Graphics/SVG/1.1/DTD/svg11.dtd">
<!-- Generated by graphviz version 2.38.0 (20140413.2041)
 -->
<!-- Title: libraries/AP_HAL_FLYMAPLE/utility/EEPROM.h Pages: 1 -->
<svg width="163pt" height="92pt"
 viewBox="0.00 0.00 162.73 92.00" xmlns="http://www.w3.org/2000/svg" xmlns:xlink="http://www.w3.org/1999/xlink">
<g id="graph0" class="graph" transform="scale(1 1) rotate(0) translate(4 88)">
<title>libraries/AP_HAL_FLYMAPLE/utility/EEPROM.h</title>
<polygon fill="white" stroke="none" points="-4,4 -4,-88 158.732,-88 158.732,4 -4,4"/>
<!-- Node1 -->
<g id="node1" class="node"><title>Node1</title>
<polygon fill="#bfbfbf" stroke="black" points="0,-55.5 0,-83.5 149.208,-83.5 149.208,-55.5 0,-55.5"/>
<text text-anchor="start" x="8" y="-71.5" font-family="Helvetica,sans-Serif" font-size="10.00">libraries/AP_HAL_FLYMAPLE</text>
<text text-anchor="middle" x="74.604" y="-61.5" font-family="Helvetica,sans-Serif" font-size="10.00">/utility/EEPROM.h</text>
</g>
<!-- Node2 -->
<g id="node2" class="node"><title>Node2</title>
<polygon fill="white" stroke="#bfbfbf" points="8.65576,-0.5 8.65576,-18.5 58.5522,-18.5 58.5522,-0.5 8.65576,-0.5"/>
<text text-anchor="middle" x="33.604" y="-6.5" font-family="Helvetica,sans-Serif" font-size="10.00">wirish.h</text>
</g>
<!-- Node1&#45;&gt;Node2 -->
<g id="edge1" class="edge"><title>Node1&#45;&gt;Node2</title>
<path fill="none" stroke="midnightblue" d="M65.3005,-55.3389C59.4086,-47.0041 51.7369,-36.1514 45.4168,-27.2107"/>
<polygon fill="midnightblue" stroke="midnightblue" points="48.0815,-24.9169 39.4511,-18.7715 42.3654,-28.9576 48.0815,-24.9169"/>
</g>
<!-- Node3 -->
<g id="node3" class="node"><title>Node3</title>
<g id="a_node3"><a xlink:href="$flash__stm32_8h.html" xlink:title="flash_stm32.h">
<polygon fill="white" stroke="black" points="76.4761,-0.5 76.4761,-18.5 154.732,-18.5 154.732,-0.5 76.4761,-0.5"/>
<text text-anchor="middle" x="115.604" y="-6.5" font-family="Helvetica,sans-Serif" font-size="10.00">flash_stm32.h</text>
</a>
</g>
</g>
<!-- Node1&#45;&gt;Node3 -->
<g id="edge2" class="edge"><title>Node1&#45;&gt;Node3</title>
<path fill="none" stroke="midnightblue" d="M83.9075,-55.3389C89.7994,-47.0041 97.4711,-36.1514 103.791,-27.2107"/>
<polygon fill="midnightblue" stroke="midnightblue" points="106.843,-28.9576 109.757,-18.7715 101.127,-24.9169 106.843,-28.9576"/>
</g>
</g>
</svg>
