<?xml version="1.0" encoding="UTF-8" standalone="no"?>
<!DOCTYPE svg PUBLIC "-//W3C//DTD SVG 1.1//EN"
 "http://www.w3.org/Graphics/SVG/1.1/DTD/svg11.dtd">
<!-- Generated by graphviz version 2.38.0 (20140413.2041)
 -->
<!-- Title: libraries/AP_HAL_FLYMAPLE/utility/EEPROM.h Pages: 1 -->
<svg width="324pt" height="102pt"
 viewBox="0.00 0.00 324.21 102.00" xmlns="http://www.w3.org/2000/svg" xmlns:xlink="http://www.w3.org/1999/xlink">
<g id="graph0" class="graph" transform="scale(1 1) rotate(0) translate(4 98)">
<title>libraries/AP_HAL_FLYMAPLE/utility/EEPROM.h</title>
<polygon fill="white" stroke="none" points="-4,4 -4,-98 320.208,-98 320.208,4 -4,4"/>
<!-- Node1 -->
<g id="node1" class="node"><title>Node1</title>
<polygon fill="#bfbfbf" stroke="black" points="83,-65.5 83,-93.5 232.208,-93.5 232.208,-65.5 83,-65.5"/>
<text text-anchor="start" x="91" y="-81.5" font-family="Helvetica,sans-Serif" font-size="10.00">libraries/AP_HAL_FLYMAPLE</text>
<text text-anchor="middle" x="157.604" y="-71.5" font-family="Helvetica,sans-Serif" font-size="10.00">/utility/EEPROM.h</text>
</g>
<!-- Node2 -->
<g id="node2" class="node"><title>Node2</title>
<g id="a_node2"><a xlink:href="$FLYMAPLE_2Storage_8cpp.html" xlink:title="libraries/AP_HAL_FLYMAPLE\l/Storage.cpp">
<polygon fill="white" stroke="black" points="0,-0.5 0,-28.5 149.208,-28.5 149.208,-0.5 0,-0.5"/>
<text text-anchor="start" x="8" y="-16.5" font-family="Helvetica,sans-Serif" font-size="10.00">libraries/AP_HAL_FLYMAPLE</text>
<text text-anchor="middle" x="74.604" y="-6.5" font-family="Helvetica,sans-Serif" font-size="10.00">/Storage.cpp</text>
</a>
</g>
</g>
<!-- Node1&#45;&gt;Node2 -->
<g id="edge1" class="edge"><title>Node1&#45;&gt;Node2</title>
<path fill="none" stroke="midnightblue" d="M132.225,-59.2361C119.113,-49.2841 103.46,-37.4026 91.7796,-28.5369"/>
<polygon fill="midnightblue" stroke="midnightblue" points="130.325,-62.1882 140.406,-65.4464 134.557,-56.6125 130.325,-62.1882"/>
</g>
<!-- Node3 -->
<g id="node3" class="node"><title>Node3</title>
<g id="a_node3"><a xlink:href="$EEPROM_8cpp.html" xlink:title="libraries/AP_HAL_FLYMAPLE\l/utility/EEPROM.cpp">
<polygon fill="white" stroke="black" points="167,-0.5 167,-28.5 316.208,-28.5 316.208,-0.5 167,-0.5"/>
<text text-anchor="start" x="175" y="-16.5" font-family="Helvetica,sans-Serif" font-size="10.00">libraries/AP_HAL_FLYMAPLE</text>
<text text-anchor="middle" x="241.604" y="-6.5" font-family="Helvetica,sans-Serif" font-size="10.00">/utility/EEPROM.cpp</text>
</a>
</g>
</g>
<!-- Node1&#45;&gt;Node3 -->
<g id="edge2" class="edge"><title>Node1&#45;&gt;Node3</title>
<path fill="none" stroke="midnightblue" d="M183.289,-59.2361C196.559,-49.2841 212.4,-37.4026 224.221,-28.5369"/>
<polygon fill="midnightblue" stroke="midnightblue" points="180.909,-56.6463 175.009,-65.4464 185.109,-62.2463 180.909,-56.6463"/>
</g>
</g>
</svg>
