<?xml version="1.0" encoding="UTF-8" standalone="no"?>
<!DOCTYPE svg PUBLIC "-//W3C//DTD SVG 1.1//EN"
 "http://www.w3.org/Graphics/SVG/1.1/DTD/svg11.dtd">
<!-- Generated by graphviz version 2.38.0 (20140413.2041)
 -->
<!-- Title: libraries/AP_HAL_Empty/SPIDriver.h Pages: 1 -->
<svg width="743pt" height="232pt"
 viewBox="0.00 0.00 743.10 232.00" xmlns="http://www.w3.org/2000/svg" xmlns:xlink="http://www.w3.org/1999/xlink">
<g id="graph0" class="graph" transform="scale(1 1) rotate(0) translate(4 228)">
<title>libraries/AP_HAL_Empty/SPIDriver.h</title>
<polygon fill="white" stroke="none" points="-4,4 -4,-228 739.101,-228 739.101,4 -4,4"/>
<!-- Node1 -->
<g id="node1" class="node"><title>Node1</title>
<polygon fill="#bfbfbf" stroke="black" points="348,-195.5 348,-223.5 474.044,-223.5 474.044,-195.5 348,-195.5"/>
<text text-anchor="start" x="356" y="-211.5" font-family="Helvetica,sans-Serif" font-size="10.00">libraries/AP_HAL_Empty</text>
<text text-anchor="middle" x="411.022" y="-201.5" font-family="Helvetica,sans-Serif" font-size="10.00">/SPIDriver.h</text>
</g>
<!-- Node2 -->
<g id="node2" class="node"><title>Node2</title>
<g id="a_node2"><a xlink:href="$AP__HAL__Empty__Private_8h.html" xlink:title="libraries/AP_HAL_Empty\l/AP_HAL_Empty_Private.h">
<polygon fill="white" stroke="black" points="268.993,-130.5 268.993,-158.5 405.051,-158.5 405.051,-130.5 268.993,-130.5"/>
<text text-anchor="start" x="276.993" y="-146.5" font-family="Helvetica,sans-Serif" font-size="10.00">libraries/AP_HAL_Empty</text>
<text text-anchor="middle" x="337.022" y="-136.5" font-family="Helvetica,sans-Serif" font-size="10.00">/AP_HAL_Empty_Private.h</text>
</a>
</g>
</g>
<!-- Node1&#45;&gt;Node2 -->
<g id="edge1" class="edge"><title>Node1&#45;&gt;Node2</title>
<path fill="none" stroke="midnightblue" d="M388.06,-188.951C376.439,-179.058 362.65,-167.318 352.335,-158.537"/>
<polygon fill="midnightblue" stroke="midnightblue" points="385.806,-191.629 395.689,-195.446 390.344,-186.299 385.806,-191.629"/>
</g>
<!-- Node10 -->
<g id="node10" class="node"><title>Node10</title>
<g id="a_node10"><a xlink:href="$AP__HAL__Empty_2SPIDriver_8cpp.html" xlink:title="libraries/AP_HAL_Empty\l/SPIDriver.cpp">
<polygon fill="white" stroke="black" points="423,-130.5 423,-158.5 549.044,-158.5 549.044,-130.5 423,-130.5"/>
<text text-anchor="start" x="431" y="-146.5" font-family="Helvetica,sans-Serif" font-size="10.00">libraries/AP_HAL_Empty</text>
<text text-anchor="middle" x="486.022" y="-136.5" font-family="Helvetica,sans-Serif" font-size="10.00">/SPIDriver.cpp</text>
</a>
</g>
</g>
<!-- Node1&#45;&gt;Node10 -->
<g id="edge10" class="edge"><title>Node1&#45;&gt;Node10</title>
<path fill="none" stroke="midnightblue" d="M434.294,-188.951C446.072,-179.058 460.048,-167.318 470.502,-158.537"/>
<polygon fill="midnightblue" stroke="midnightblue" points="431.968,-186.334 426.562,-195.446 436.47,-191.694 431.968,-186.334"/>
</g>
<!-- Node3 -->
<g id="node3" class="node"><title>Node3</title>
<g id="a_node3"><a xlink:href="$HAL__Empty__Class_8cpp.html" xlink:title="libraries/AP_HAL_Empty\l/HAL_Empty_Class.cpp">
<polygon fill="white" stroke="black" points="0,-65.5 0,-93.5 126.044,-93.5 126.044,-65.5 0,-65.5"/>
<text text-anchor="start" x="8" y="-81.5" font-family="Helvetica,sans-Serif" font-size="10.00">libraries/AP_HAL_Empty</text>
<text text-anchor="middle" x="63.022" y="-71.5" font-family="Helvetica,sans-Serif" font-size="10.00">/HAL_Empty_Class.cpp</text>
</a>
</g>
</g>
<!-- Node2&#45;&gt;Node3 -->
<g id="edge2" class="edge"><title>Node2&#45;&gt;Node3</title>
<path fill="none" stroke="midnightblue" d="M270.345,-128.169C224.224,-117.565 163.514,-103.606 119.722,-93.5369"/>
<polygon fill="midnightblue" stroke="midnightblue" points="269.719,-131.616 280.249,-130.446 271.288,-124.794 269.719,-131.616"/>
</g>
<!-- Node4 -->
<g id="node4" class="node"><title>Node4</title>
<g id="a_node4"><a xlink:href="$HAL__Linux__Class_8cpp.html" xlink:title="libraries/AP_HAL_Linux\l/HAL_Linux_Class.cpp">
<polygon fill="white" stroke="black" points="144.217,-65.5 144.217,-93.5 265.827,-93.5 265.827,-65.5 144.217,-65.5"/>
<text text-anchor="start" x="152.217" y="-81.5" font-family="Helvetica,sans-Serif" font-size="10.00">libraries/AP_HAL_Linux</text>
<text text-anchor="middle" x="205.022" y="-71.5" font-family="Helvetica,sans-Serif" font-size="10.00">/HAL_Linux_Class.cpp</text>
</a>
</g>
</g>
<!-- Node2&#45;&gt;Node4 -->
<g id="edge3" class="edge"><title>Node2&#45;&gt;Node4</title>
<path fill="none" stroke="midnightblue" d="M300.483,-126.061C278.914,-115.767 252.063,-102.951 232.337,-93.5369"/>
<polygon fill="midnightblue" stroke="midnightblue" points="299.139,-129.298 309.671,-130.446 302.154,-122.98 299.139,-129.298"/>
</g>
<!-- Node5 -->
<g id="node5" class="node"><title>Node5</title>
<g id="a_node5"><a xlink:href="$PX4_2I2CDriver_8h.html" xlink:title="libraries/AP_HAL_PX4\l/I2CDriver.h">
<polygon fill="white" stroke="black" points="321.719,-65.5 321.719,-93.5 438.325,-93.5 438.325,-65.5 321.719,-65.5"/>
<text text-anchor="start" x="329.719" y="-81.5" font-family="Helvetica,sans-Serif" font-size="10.00">libraries/AP_HAL_PX4</text>
<text text-anchor="middle" x="380.022" y="-71.5" font-family="Helvetica,sans-Serif" font-size="10.00">/I2CDriver.h</text>
</a>
</g>
</g>
<!-- Node2&#45;&gt;Node5 -->
<g id="edge4" class="edge"><title>Node2&#45;&gt;Node5</title>
<path fill="none" stroke="midnightblue" d="M351.744,-121.93C358.187,-112.491 365.534,-101.727 371.124,-93.5369"/>
<polygon fill="midnightblue" stroke="midnightblue" points="348.678,-120.214 345.932,-130.446 354.46,-124.16 348.678,-120.214"/>
</g>
<!-- Node6 -->
<g id="node6" class="node"><title>Node6</title>
<g id="a_node6"><a xlink:href="$HAL__PX4__Class_8cpp.html" xlink:title="libraries/AP_HAL_PX4\l/HAL_PX4_Class.cpp">
<polygon fill="white" stroke="black" points="235.719,-0.5 235.719,-28.5 352.325,-28.5 352.325,-0.5 235.719,-0.5"/>
<text text-anchor="start" x="243.719" y="-16.5" font-family="Helvetica,sans-Serif" font-size="10.00">libraries/AP_HAL_PX4</text>
<text text-anchor="middle" x="294.022" y="-6.5" font-family="Helvetica,sans-Serif" font-size="10.00">/HAL_PX4_Class.cpp</text>
</a>
</g>
</g>
<!-- Node2&#45;&gt;Node6 -->
<g id="edge7" class="edge"><title>Node2&#45;&gt;Node6</title>
<path fill="none" stroke="midnightblue" d="M324.995,-121.283C320.795,-112.902 316.314,-103.175 313.022,-94 304.972,-71.5629 299.235,-44.3082 296.289,-28.5286"/>
<polygon fill="midnightblue" stroke="midnightblue" points="322.003,-123.116 329.707,-130.388 328.22,-119.899 322.003,-123.116"/>
</g>
<!-- Node8 -->
<g id="node8" class="node"><title>Node8</title>
<g id="a_node8"><a xlink:href="$HAL__SITL__Class_8cpp.html" xlink:title="libraries/AP_HAL_SITL\l/HAL_SITL_Class.cpp">
<polygon fill="white" stroke="black" points="456.611,-65.5 456.611,-93.5 575.433,-93.5 575.433,-65.5 456.611,-65.5"/>
<text text-anchor="start" x="464.611" y="-81.5" font-family="Helvetica,sans-Serif" font-size="10.00">libraries/AP_HAL_SITL</text>
<text text-anchor="middle" x="516.022" y="-71.5" font-family="Helvetica,sans-Serif" font-size="10.00">/HAL_SITL_Class.cpp</text>
</a>
</g>
</g>
<!-- Node2&#45;&gt;Node8 -->
<g id="edge8" class="edge"><title>Node2&#45;&gt;Node8</title>
<path fill="none" stroke="midnightblue" d="M383.838,-127.023C413.524,-116.575 451.392,-103.247 478.981,-93.5369"/>
<polygon fill="midnightblue" stroke="midnightblue" points="382.382,-123.825 374.111,-130.446 384.706,-130.428 382.382,-123.825"/>
</g>
<!-- Node9 -->
<g id="node9" class="node"><title>Node9</title>
<g id="a_node9"><a xlink:href="$HAL__VRBRAIN__Class_8cpp.html" xlink:title="libraries/AP_HAL_VRBRAIN\l/HAL_VRBRAIN_Class.cpp">
<polygon fill="white" stroke="black" points="592.943,-65.5 592.943,-93.5 735.101,-93.5 735.101,-65.5 592.943,-65.5"/>
<text text-anchor="start" x="600.943" y="-81.5" font-family="Helvetica,sans-Serif" font-size="10.00">libraries/AP_HAL_VRBRAIN</text>
<text text-anchor="middle" x="664.022" y="-71.5" font-family="Helvetica,sans-Serif" font-size="10.00">/HAL_VRBRAIN_Class.cpp</text>
</a>
</g>
</g>
<!-- Node2&#45;&gt;Node9 -->
<g id="edge9" class="edge"><title>Node2&#45;&gt;Node9</title>
<path fill="none" stroke="midnightblue" d="M414.872,-128.501C470.118,-117.858 543.544,-103.711 596.354,-93.5369"/>
<polygon fill="midnightblue" stroke="midnightblue" points="413.934,-125.118 404.777,-130.446 415.258,-131.991 413.934,-125.118"/>
</g>
<!-- Node5&#45;&gt;Node6 -->
<g id="edge5" class="edge"><title>Node5&#45;&gt;Node6</title>
<path fill="none" stroke="midnightblue" d="M354.113,-59.52C340.449,-49.5107 324.036,-37.4871 311.818,-28.5369"/>
<polygon fill="midnightblue" stroke="midnightblue" points="352.067,-62.3602 362.203,-65.4464 356.204,-56.7133 352.067,-62.3602"/>
</g>
<!-- Node7 -->
<g id="node7" class="node"><title>Node7</title>
<g id="a_node7"><a xlink:href="$AP__HAL__PX4_2I2CDriver_8cpp.html" xlink:title="libraries/AP_HAL_PX4\l/I2CDriver.cpp">
<polygon fill="white" stroke="black" points="370.719,-0.5 370.719,-28.5 487.325,-28.5 487.325,-0.5 370.719,-0.5"/>
<text text-anchor="start" x="378.719" y="-16.5" font-family="Helvetica,sans-Serif" font-size="10.00">libraries/AP_HAL_PX4</text>
<text text-anchor="middle" x="429.022" y="-6.5" font-family="Helvetica,sans-Serif" font-size="10.00">/I2CDriver.cpp</text>
</a>
</g>
</g>
<!-- Node5&#45;&gt;Node7 -->
<g id="edge6" class="edge"><title>Node5&#45;&gt;Node7</title>
<path fill="none" stroke="midnightblue" d="M396.346,-57.5121C403.794,-47.9361 412.381,-36.896 418.882,-28.5369"/>
<polygon fill="midnightblue" stroke="midnightblue" points="393.552,-55.404 390.175,-65.4464 399.077,-59.7016 393.552,-55.404"/>
</g>
</g>
</svg>
