<?xml version="1.0" encoding="UTF-8" standalone="no"?>
<!DOCTYPE svg PUBLIC "-//W3C//DTD SVG 1.1//EN"
 "http://www.w3.org/Graphics/SVG/1.1/DTD/svg11.dtd">
<!-- Generated by graphviz version 2.38.0 (20140413.2041)
 -->
<!-- Title: libraries/AP_HAL_Empty/Storage.cpp Pages: 1 -->
<svg width="1443pt" height="697pt"
 viewBox="0.00 0.00 1443.00 697.00" xmlns="http://www.w3.org/2000/svg" xmlns:xlink="http://www.w3.org/1999/xlink">
<g id="graph0" class="graph" transform="scale(1 1) rotate(0) translate(4 693)">
<title>libraries/AP_HAL_Empty/Storage.cpp</title>
<polygon fill="white" stroke="none" points="-4,4 -4,-693 1439,-693 1439,4 -4,4"/>
<!-- Node1 -->
<g id="node1" class="node"><title>Node1</title>
<polygon fill="#bfbfbf" stroke="black" points="157.978,-660.5 157.978,-688.5 284.022,-688.5 284.022,-660.5 157.978,-660.5"/>
<text text-anchor="start" x="165.978" y="-676.5" font-family="Helvetica,sans-Serif" font-size="10.00">libraries/AP_HAL_Empty</text>
<text text-anchor="middle" x="221" y="-666.5" font-family="Helvetica,sans-Serif" font-size="10.00">/Storage.cpp</text>
</g>
<!-- Node2 -->
<g id="node2" class="node"><title>Node2</title>
<polygon fill="white" stroke="#bfbfbf" points="25.6035,-0.5 25.6035,-18.5 74.3965,-18.5 74.3965,-0.5 25.6035,-0.5"/>
<text text-anchor="middle" x="50" y="-6.5" font-family="Helvetica,sans-Serif" font-size="10.00">string.h</text>
</g>
<!-- Node1&#45;&gt;Node2 -->
<g id="edge1" class="edge"><title>Node1&#45;&gt;Node2</title>
<path fill="none" stroke="midnightblue" d="M157.966,-667.901C92.6445,-658.231 0,-631.926 0,-560.5 0,-560.5 0,-560.5 0,-118.5 0,-83.202 22.2663,-46.9194 37.0811,-26.6855"/>
<polygon fill="midnightblue" stroke="midnightblue" points="39.9807,-28.6549 43.2568,-18.5793 34.4125,-24.4128 39.9807,-28.6549"/>
</g>
<!-- Node3 -->
<g id="node3" class="node"><title>Node3</title>
<g id="a_node3"><a xlink:href="$Empty_2Storage_8h.html" xlink:title="Storage.h">
<polygon fill="white" stroke="black" points="412.318,-605.5 412.318,-623.5 471.682,-623.5 471.682,-605.5 412.318,-605.5"/>
<text text-anchor="middle" x="442" y="-611.5" font-family="Helvetica,sans-Serif" font-size="10.00">Storage.h</text>
</a>
</g>
</g>
<!-- Node1&#45;&gt;Node3 -->
<g id="edge2" class="edge"><title>Node1&#45;&gt;Node3</title>
<path fill="none" stroke="midnightblue" d="M270.597,-660.484C310.38,-650.043 365.48,-635.582 402.362,-625.903"/>
<polygon fill="midnightblue" stroke="midnightblue" points="403.47,-629.231 412.254,-623.307 401.693,-622.46 403.47,-629.231"/>
</g>
<!-- Node4 -->
<g id="node4" class="node"><title>Node4</title>
<g id="a_node4"><a xlink:href="$AP__HAL__Empty_8h.html" xlink:title="AP_HAL_Empty.h">
<polygon fill="white" stroke="black" points="908.071,-550.5 908.071,-568.5 1003.93,-568.5 1003.93,-550.5 908.071,-550.5"/>
<text text-anchor="middle" x="956" y="-556.5" font-family="Helvetica,sans-Serif" font-size="10.00">AP_HAL_Empty.h</text>
</a>
</g>
</g>
<!-- Node3&#45;&gt;Node4 -->
<g id="edge3" class="edge"><title>Node3&#45;&gt;Node4</title>
<path fill="none" stroke="midnightblue" d="M471.857,-610.421C554.57,-601.893 787.794,-577.844 897.535,-566.528"/>
<polygon fill="midnightblue" stroke="midnightblue" points="898.172,-569.981 907.761,-565.474 897.454,-563.018 898.172,-569.981"/>
</g>
<!-- Node5 -->
<g id="node5" class="node"><title>Node5</title>
<g id="a_node5"><a xlink:href="$AP__HAL_8h.html" xlink:title="AP_HAL/AP_HAL.h">
<polygon fill="white" stroke="black" points="831.086,-440.5 831.086,-458.5 934.914,-458.5 934.914,-440.5 831.086,-440.5"/>
<text text-anchor="middle" x="883" y="-446.5" font-family="Helvetica,sans-Serif" font-size="10.00">AP_HAL/AP_HAL.h</text>
</a>
</g>
</g>
<!-- Node4&#45;&gt;Node5 -->
<g id="edge4" class="edge"><title>Node4&#45;&gt;Node5</title>
<path fill="none" stroke="midnightblue" d="M950.513,-550.382C938.623,-532.791 910.271,-490.846 894.348,-467.289"/>
<polygon fill="midnightblue" stroke="midnightblue" points="897.05,-465.037 888.551,-458.712 891.251,-468.957 897.05,-465.037"/>
</g>
<!-- Node32 -->
<g id="node32" class="node"><title>Node32</title>
<g id="a_node32"><a xlink:href="$HAL__Empty__Class_8h.html" xlink:title="HAL_Empty_Class.h">
<polygon fill="white" stroke="black" points="959.87,-495.5 959.87,-513.5 1068.13,-513.5 1068.13,-495.5 959.87,-495.5"/>
<text text-anchor="middle" x="1014" y="-501.5" font-family="Helvetica,sans-Serif" font-size="10.00">HAL_Empty_Class.h</text>
</a>
</g>
</g>
<!-- Node4&#45;&gt;Node32 -->
<g id="edge71" class="edge"><title>Node4&#45;&gt;Node32</title>
<path fill="none" stroke="midnightblue" d="M965.062,-550.219C973.796,-542.238 987.206,-529.984 997.781,-520.321"/>
<polygon fill="midnightblue" stroke="midnightblue" points="1000.17,-522.879 1005.19,-513.55 995.448,-517.712 1000.17,-522.879"/>
</g>
<!-- Node6 -->
<g id="node6" class="node"><title>Node6</title>
<polygon fill="white" stroke="#bfbfbf" points="802.879,-110.5 802.879,-128.5 851.121,-128.5 851.121,-110.5 802.879,-110.5"/>
<text text-anchor="middle" x="827" y="-116.5" font-family="Helvetica,sans-Serif" font-size="10.00">stdint.h</text>
</g>
<!-- Node5&#45;&gt;Node6 -->
<g id="edge5" class="edge"><title>Node5&#45;&gt;Node6</title>
<path fill="none" stroke="midnightblue" d="M885.533,-440.465C890.915,-422.659 903,-378.447 903,-340.5 903,-340.5 903,-340.5 903,-283.5 903,-224.897 862.149,-164.609 840.347,-136.607"/>
<polygon fill="midnightblue" stroke="midnightblue" points="842.995,-134.314 834.014,-128.693 837.529,-138.687 842.995,-134.314"/>
</g>
<!-- Node7 -->
<g id="node7" class="node"><title>Node7</title>
<polygon fill="white" stroke="#bfbfbf" points="688.707,-110.5 688.707,-128.5 745.293,-128.5 745.293,-110.5 688.707,-110.5"/>
<text text-anchor="middle" x="717" y="-116.5" font-family="Helvetica,sans-Serif" font-size="10.00">stdbool.h</text>
</g>
<!-- Node5&#45;&gt;Node7 -->
<g id="edge6" class="edge"><title>Node5&#45;&gt;Node7</title>
<path fill="none" stroke="midnightblue" d="M831.049,-443.927C769.441,-435.324 675,-410.688 675,-340.5 675,-340.5 675,-340.5 675,-283.5 675,-254.898 699.557,-174.733 711.116,-138.583"/>
<polygon fill="midnightblue" stroke="midnightblue" points="714.506,-139.475 714.244,-128.883 707.844,-137.326 714.506,-139.475"/>
</g>
<!-- Node8 -->
<g id="node8" class="node"><title>Node8</title>
<g id="a_node8"><a xlink:href="$AP__HAL__Namespace_8h.html" xlink:title="AP_HAL_Namespace.h">
<polygon fill="white" stroke="black" points="880.192,-55.5 880.192,-73.5 1001.81,-73.5 1001.81,-55.5 880.192,-55.5"/>
<text text-anchor="middle" x="941" y="-61.5" font-family="Helvetica,sans-Serif" font-size="10.00">AP_HAL_Namespace.h</text>
</a>
</g>
</g>
<!-- Node5&#45;&gt;Node8 -->
<g id="edge7" class="edge"><title>Node5&#45;&gt;Node8</title>
<path fill="none" stroke="midnightblue" d="M935.218,-441.016C938.187,-440.655 941.13,-440.313 944,-440 1044.61,-429.011 1312.32,-457.859 1398,-404 1425.65,-386.617 1435,-373.164 1435,-340.5 1435,-340.5 1435,-340.5 1435,-173.5 1435,-88.0464 1149.32,-70.1046 1012.46,-66.4123"/>
<polygon fill="midnightblue" stroke="midnightblue" points="1012.15,-62.9037 1002.07,-66.1518 1011.98,-69.9015 1012.15,-62.9037"/>
</g>
<!-- Node10 -->
<g id="node10" class="node"><title>Node10</title>
<g id="a_node10"><a xlink:href="$AP__HAL__Boards_8h.html" xlink:title="AP_HAL_Boards.h">
<polygon fill="white" stroke="black" points="345.03,-165.5 345.03,-183.5 444.97,-183.5 444.97,-165.5 345.03,-165.5"/>
<text text-anchor="middle" x="395" y="-171.5" font-family="Helvetica,sans-Serif" font-size="10.00">AP_HAL_Boards.h</text>
</a>
</g>
</g>
<!-- Node5&#45;&gt;Node10 -->
<g id="edge10" class="edge"><title>Node5&#45;&gt;Node10</title>
<path fill="none" stroke="midnightblue" d="M830.751,-443.304C733.392,-432.166 534,-401.864 534,-340.5 534,-340.5 534,-340.5 534,-283.5 534,-232.15 474.117,-201.681 432.961,-186.804"/>
<polygon fill="midnightblue" stroke="midnightblue" points="434.059,-183.48 423.464,-183.524 431.774,-190.097 434.059,-183.48"/>
</g>
<!-- Node11 -->
<g id="node11" class="node"><title>Node11</title>
<g id="a_node11"><a xlink:href="$AP__HAL__Macros_8h.html" xlink:title="AP_HAL_Macros.h">
<polygon fill="white" stroke="black" points="1267.48,-385.5 1267.48,-403.5 1368.52,-403.5 1368.52,-385.5 1267.48,-385.5"/>
<text text-anchor="middle" x="1318" y="-391.5" font-family="Helvetica,sans-Serif" font-size="10.00">AP_HAL_Macros.h</text>
</a>
</g>
</g>
<!-- Node5&#45;&gt;Node11 -->
<g id="edge11" class="edge"><title>Node5&#45;&gt;Node11</title>
<path fill="none" stroke="midnightblue" d="M935.233,-441.143C938.198,-440.75 941.136,-440.366 944,-440 1081.14,-422.458 1115.78,-420.964 1253,-404 1254.3,-403.839 1255.62,-403.675 1256.95,-403.509"/>
<polygon fill="midnightblue" stroke="midnightblue" points="1257.78,-406.931 1267.27,-402.204 1256.91,-399.987 1257.78,-406.931"/>
</g>
<!-- Node12 -->
<g id="node12" class="node"><title>Node12</title>
<g id="a_node12"><a xlink:href="$AP__HAL__Main_8h.html" xlink:title="AP_HAL_Main.h">
<polygon fill="white" stroke="black" points="1045.03,-385.5 1045.03,-403.5 1134.97,-403.5 1134.97,-385.5 1045.03,-385.5"/>
<text text-anchor="middle" x="1090" y="-391.5" font-family="Helvetica,sans-Serif" font-size="10.00">AP_HAL_Main.h</text>
</a>
</g>
</g>
<!-- Node5&#45;&gt;Node12 -->
<g id="edge12" class="edge"><title>Node5&#45;&gt;Node12</title>
<path fill="none" stroke="midnightblue" d="M914.439,-440.45C950.334,-431.26 1009.19,-416.192 1048.74,-406.064"/>
<polygon fill="midnightblue" stroke="midnightblue" points="1049.79,-409.409 1058.61,-403.538 1048.05,-402.628 1049.79,-409.409"/>
</g>
<!-- Node13 -->
<g id="node13" class="node"><title>Node13</title>
<g id="a_node13"><a xlink:href="$HAL_8h.html" xlink:title="HAL.h">
<polygon fill="white" stroke="black" points="1088.1,-330.5 1088.1,-348.5 1131.9,-348.5 1131.9,-330.5 1088.1,-330.5"/>
<text text-anchor="middle" x="1110" y="-336.5" font-family="Helvetica,sans-Serif" font-size="10.00">HAL.h</text>
</a>
</g>
</g>
<!-- Node5&#45;&gt;Node13 -->
<g id="edge70" class="edge"><title>Node5&#45;&gt;Node13</title>
<path fill="none" stroke="midnightblue" d="M934.972,-440.496C1010.13,-428.802 1140.63,-407.996 1144,-404 1156.52,-389.163 1141.35,-368.968 1127.47,-355.37"/>
<polygon fill="midnightblue" stroke="midnightblue" points="1129.81,-352.763 1120.08,-348.571 1125.07,-357.916 1129.81,-352.763"/>
</g>
<!-- Node14 -->
<g id="node14" class="node"><title>Node14</title>
<g id="a_node14"><a xlink:href="$AnalogIn_8h.html" xlink:title="AnalogIn.h">
<polygon fill="white" stroke="black" points="988.091,-220.5 988.091,-238.5 1051.91,-238.5 1051.91,-220.5 988.091,-220.5"/>
<text text-anchor="middle" x="1020" y="-226.5" font-family="Helvetica,sans-Serif" font-size="10.00">AnalogIn.h</text>
</a>
</g>
</g>
<!-- Node5&#45;&gt;Node14 -->
<g id="edge52" class="edge"><title>Node5&#45;&gt;Node14</title>
<path fill="none" stroke="midnightblue" d="M903.259,-440.394C919.286,-433.051 941.193,-420.803 955,-404 994.092,-356.425 1011.07,-282.986 1017.14,-248.966"/>
<polygon fill="midnightblue" stroke="midnightblue" points="1020.66,-249.122 1018.85,-238.683 1013.76,-247.972 1020.66,-249.122"/>
</g>
<!-- Node16 -->
<g id="node16" class="node"><title>Node16</title>
<g id="a_node16"><a xlink:href="$GPIO_8h.html" xlink:title="GPIO.h">
<polygon fill="white" stroke="black" points="1071.33,-220.5 1071.33,-238.5 1120.67,-238.5 1120.67,-220.5 1071.33,-220.5"/>
<text text-anchor="middle" x="1096" y="-226.5" font-family="Helvetica,sans-Serif" font-size="10.00">GPIO.h</text>
</a>
</g>
</g>
<!-- Node5&#45;&gt;Node16 -->
<g id="edge54" class="edge"><title>Node5&#45;&gt;Node16</title>
<path fill="none" stroke="midnightblue" d="M908.333,-440.452C928.285,-433.21 955.978,-421.071 976,-404 1030.05,-357.917 1071.08,-282.083 1087.79,-248.022"/>
<polygon fill="midnightblue" stroke="midnightblue" points="1091.01,-249.401 1092.19,-238.872 1084.7,-246.371 1091.01,-249.401"/>
</g>
<!-- Node17 -->
<g id="node17" class="node"><title>Node17</title>
<g id="a_node17"><a xlink:href="$RCInput_8h.html" xlink:title="RCInput.h">
<polygon fill="white" stroke="black" points="1167.49,-275.5 1167.49,-293.5 1228.51,-293.5 1228.51,-275.5 1167.49,-275.5"/>
<text text-anchor="middle" x="1198" y="-281.5" font-family="Helvetica,sans-Serif" font-size="10.00">RCInput.h</text>
</a>
</g>
</g>
<!-- Node5&#45;&gt;Node17 -->
<g id="edge55" class="edge"><title>Node5&#45;&gt;Node17</title>
<path fill="none" stroke="midnightblue" d="M934.947,-440.888C1014.22,-429.174 1156.74,-407.689 1161,-404 1190.38,-378.567 1196.73,-330.171 1197.92,-303.779"/>
<polygon fill="midnightblue" stroke="midnightblue" points="1201.42,-303.735 1198.16,-293.653 1194.42,-303.566 1201.42,-303.735"/>
</g>
<!-- Node18 -->
<g id="node18" class="node"><title>Node18</title>
<g id="a_node18"><a xlink:href="$RCOutput_8h.html" xlink:title="RCOutput.h">
<polygon fill="white" stroke="black" points="1246.6,-275.5 1246.6,-293.5 1315.4,-293.5 1315.4,-275.5 1246.6,-275.5"/>
<text text-anchor="middle" x="1281" y="-281.5" font-family="Helvetica,sans-Serif" font-size="10.00">RCOutput.h</text>
</a>
</g>
</g>
<!-- Node5&#45;&gt;Node18 -->
<g id="edge56" class="edge"><title>Node5&#45;&gt;Node18</title>
<path fill="none" stroke="midnightblue" d="M935.026,-441.021C1020.2,-428.745 1180.31,-405.518 1183,-404 1225.89,-379.811 1257.85,-328.968 1272.36,-302.432"/>
<polygon fill="midnightblue" stroke="midnightblue" points="1275.47,-304.034 1277.06,-293.559 1269.29,-300.76 1275.47,-304.034"/>
</g>
<!-- Node19 -->
<g id="node19" class="node"><title>Node19</title>
<g id="a_node19"><a xlink:href="$SPIDriver_8h.html" xlink:title="SPIDriver.h">
<polygon fill="white" stroke="black" points="1333.71,-275.5 1333.71,-293.5 1400.29,-293.5 1400.29,-275.5 1333.71,-275.5"/>
<text text-anchor="middle" x="1367" y="-281.5" font-family="Helvetica,sans-Serif" font-size="10.00">SPIDriver.h</text>
</a>
</g>
</g>
<!-- Node5&#45;&gt;Node19 -->
<g id="edge51" class="edge"><title>Node5&#45;&gt;Node19</title>
<path fill="none" stroke="midnightblue" d="M935.219,-441.029C938.188,-440.665 941.131,-440.319 944,-440 992.092,-434.659 1345.23,-439.602 1378,-404 1403.33,-376.477 1387.33,-328.612 1375.79,-302.945"/>
<polygon fill="midnightblue" stroke="midnightblue" points="1378.85,-301.236 1371.39,-293.712 1372.53,-304.245 1378.85,-301.236"/>
</g>
<!-- Node20 -->
<g id="node20" class="node"><title>Node20</title>
<g id="a_node20"><a xlink:href="$Storage_8h.html" xlink:title="Storage.h">
<polygon fill="white" stroke="black" points="720.318,-275.5 720.318,-293.5 779.682,-293.5 779.682,-275.5 720.318,-275.5"/>
<text text-anchor="middle" x="750" y="-281.5" font-family="Helvetica,sans-Serif" font-size="10.00">Storage.h</text>
</a>
</g>
</g>
<!-- Node5&#45;&gt;Node20 -->
<g id="edge53" class="edge"><title>Node5&#45;&gt;Node20</title>
<path fill="none" stroke="midnightblue" d="M876.222,-440.193C855.23,-414.466 791.035,-335.79 763.154,-301.622"/>
<polygon fill="midnightblue" stroke="midnightblue" points="765.641,-299.132 756.607,-293.597 760.217,-303.558 765.641,-299.132"/>
</g>
<!-- Node21 -->
<g id="node21" class="node"><title>Node21</title>
<g id="a_node21"><a xlink:href="$UARTDriver_8h.html" xlink:title="UARTDriver.h">
<polygon fill="white" stroke="black" points="797.248,-275.5 797.248,-293.5 874.752,-293.5 874.752,-275.5 797.248,-275.5"/>
<text text-anchor="middle" x="836" y="-281.5" font-family="Helvetica,sans-Serif" font-size="10.00">UARTDriver.h</text>
</a>
</g>
</g>
<!-- Node5&#45;&gt;Node21 -->
<g id="edge47" class="edge"><title>Node5&#45;&gt;Node21</title>
<path fill="none" stroke="midnightblue" d="M880.605,-440.193C873.313,-414.903 851.269,-338.453 841.163,-303.405"/>
<polygon fill="midnightblue" stroke="midnightblue" points="844.468,-302.236 838.335,-293.597 837.742,-304.175 844.468,-302.236"/>
</g>
<!-- Node24 -->
<g id="node24" class="node"><title>Node24</title>
<g id="a_node24"><a xlink:href="$BetterStream_8h.html" xlink:title="utility/BetterStream.h">
<polygon fill="white" stroke="black" points="366.594,-220.5 366.594,-238.5 475.406,-238.5 475.406,-220.5 366.594,-220.5"/>
<text text-anchor="middle" x="421" y="-226.5" font-family="Helvetica,sans-Serif" font-size="10.00">utility/BetterStream.h</text>
</a>
</g>
</g>
<!-- Node5&#45;&gt;Node24 -->
<g id="edge69" class="edge"><title>Node5&#45;&gt;Node24</title>
<path fill="none" stroke="midnightblue" d="M830.989,-447.764C743.084,-445.609 569.82,-437.151 520,-404 463.482,-366.393 435.513,-284.855 425.478,-248.558"/>
<polygon fill="midnightblue" stroke="midnightblue" points="428.853,-247.628 422.928,-238.844 422.082,-249.405 428.853,-247.628"/>
</g>
<!-- Node26 -->
<g id="node26" class="node"><title>Node26</title>
<g id="a_node26"><a xlink:href="$Stream_8h.html" xlink:title="Stream.h">
<polygon fill="white" stroke="black" points="232.714,-165.5 232.714,-183.5 289.286,-183.5 289.286,-165.5 232.714,-165.5"/>
<text text-anchor="middle" x="261" y="-171.5" font-family="Helvetica,sans-Serif" font-size="10.00">Stream.h</text>
</a>
</g>
</g>
<!-- Node5&#45;&gt;Node26 -->
<g id="edge68" class="edge"><title>Node5&#45;&gt;Node26</title>
<path fill="none" stroke="midnightblue" d="M831.071,-444.706C684.3,-433.293 277,-396.571 277,-340.5 277,-340.5 277,-340.5 277,-283.5 277,-251.527 270.053,-214.798 265.314,-193.463"/>
<polygon fill="midnightblue" stroke="midnightblue" points="268.689,-192.523 263.026,-183.568 261.869,-194.1 268.689,-192.523"/>
</g>
<!-- Node27 -->
<g id="node27" class="node"><title>Node27</title>
<g id="a_node27"><a xlink:href="$Print_8h.html" xlink:title="Print.h">
<polygon fill="white" stroke="black" points="27.5493,-110.5 27.5493,-128.5 72.4507,-128.5 72.4507,-110.5 27.5493,-110.5"/>
<text text-anchor="middle" x="50" y="-116.5" font-family="Helvetica,sans-Serif" font-size="10.00">Print.h</text>
</a>
</g>
</g>
<!-- Node5&#45;&gt;Node27 -->
<g id="edge67" class="edge"><title>Node5&#45;&gt;Node27</title>
<path fill="none" stroke="midnightblue" d="M830.95,-447.684C691.096,-445.09 309.558,-435.272 188,-404 123.785,-387.48 53,-406.806 53,-340.5 53,-340.5 53,-340.5 53,-228.5 53,-197.005 51.7094,-160.365 50.8213,-138.877"/>
<polygon fill="midnightblue" stroke="midnightblue" points="54.3069,-138.467 50.38,-128.627 47.3134,-138.768 54.3069,-138.467"/>
</g>
<!-- Node28 -->
<g id="node28" class="node"><title>Node28</title>
<g id="a_node28"><a xlink:href="$I2CDriver_8h.html" xlink:title="I2CDriver.h">
<polygon fill="white" stroke="black" points="968.99,-165.5 968.99,-183.5 1035.01,-183.5 1035.01,-165.5 968.99,-165.5"/>
<text text-anchor="middle" x="1002" y="-171.5" font-family="Helvetica,sans-Serif" font-size="10.00">I2CDriver.h</text>
</a>
</g>
</g>
<!-- Node5&#45;&gt;Node28 -->
<g id="edge48" class="edge"><title>Node5&#45;&gt;Node28</title>
<path fill="none" stroke="midnightblue" d="M891.065,-440.357C907.001,-423.361 941,-382.214 941,-340.5 941,-340.5 941,-340.5 941,-283.5 941,-246.569 968.377,-210.65 986.449,-190.961"/>
<polygon fill="midnightblue" stroke="midnightblue" points="989.141,-193.21 993.518,-183.561 984.08,-188.375 989.141,-193.21"/>
</g>
<!-- Node29 -->
<g id="node29" class="node"><title>Node29</title>
<g id="a_node29"><a xlink:href="$Scheduler_8h.html" xlink:title="Scheduler.h">
<polygon fill="white" stroke="black" points="577.589,-220.5 577.589,-238.5 646.411,-238.5 646.411,-220.5 577.589,-220.5"/>
<text text-anchor="middle" x="612" y="-226.5" font-family="Helvetica,sans-Serif" font-size="10.00">Scheduler.h</text>
</a>
</g>
</g>
<!-- Node5&#45;&gt;Node29 -->
<g id="edge57" class="edge"><title>Node5&#45;&gt;Node29</title>
<path fill="none" stroke="midnightblue" d="M830.928,-444.29C773.268,-438.583 685.234,-426.427 661,-404 616.419,-362.744 611.27,-284.335 611.388,-248.809"/>
<polygon fill="midnightblue" stroke="midnightblue" points="614.893,-248.584 611.581,-238.521 607.894,-248.453 614.893,-248.584"/>
</g>
<!-- Node30 -->
<g id="node30" class="node"><title>Node30</title>
<g id="a_node30"><a xlink:href="$Semaphores_8h.html" xlink:title="Semaphores.h">
<polygon fill="white" stroke="black" points="110.48,-330.5 110.48,-348.5 191.52,-348.5 191.52,-330.5 110.48,-330.5"/>
<text text-anchor="middle" x="151" y="-336.5" font-family="Helvetica,sans-Serif" font-size="10.00">Semaphores.h</text>
</a>
</g>
</g>
<!-- Node5&#45;&gt;Node30 -->
<g id="edge62" class="edge"><title>Node5&#45;&gt;Node30</title>
<path fill="none" stroke="midnightblue" d="M830.994,-447.019C684.347,-442.563 274.553,-428.083 219,-404 195.462,-393.796 174.956,-371.811 162.78,-356.591"/>
<polygon fill="midnightblue" stroke="midnightblue" points="165.477,-354.356 156.614,-348.552 159.923,-358.617 165.477,-354.356"/>
</g>
<!-- Node31 -->
<g id="node31" class="node"><title>Node31</title>
<g id="a_node31"><a xlink:href="$Util_8h.html" xlink:title="Util.h">
<polygon fill="white" stroke="black" points="169.608,-220.5 169.608,-238.5 208.392,-238.5 208.392,-220.5 169.608,-220.5"/>
<text text-anchor="middle" x="189" y="-226.5" font-family="Helvetica,sans-Serif" font-size="10.00">Util.h</text>
</a>
</g>
</g>
<!-- Node5&#45;&gt;Node31 -->
<g id="edge64" class="edge"><title>Node5&#45;&gt;Node31</title>
<path fill="none" stroke="midnightblue" d="M830.856,-447.834C689.886,-445.609 308.711,-436.609 263,-404 211.041,-366.933 195.305,-285.738 190.754,-249.094"/>
<polygon fill="midnightblue" stroke="midnightblue" points="194.203,-248.436 189.638,-238.875 187.245,-249.196 194.203,-248.436"/>
</g>
<!-- Node8&#45;&gt;Node2 -->
<g id="edge8" class="edge"><title>Node8&#45;&gt;Node2</title>
<path fill="none" stroke="midnightblue" d="M880.109,-59.878C707.6,-49.6165 219.389,-20.5759 84.7576,-12.5675"/>
<polygon fill="midnightblue" stroke="midnightblue" points="84.8011,-9.064 74.6108,-11.9639 84.3853,-16.0516 84.8011,-9.064"/>
</g>
<!-- Node9 -->
<g id="node9" class="node"><title>Node9</title>
<g id="a_node9"><a xlink:href="$functor_8h.html" xlink:title="utility/functor.h">
<polygon fill="white" stroke="black" points="901.037,-0.5 901.037,-18.5 980.963,-18.5 980.963,-0.5 901.037,-0.5"/>
<text text-anchor="middle" x="941" y="-6.5" font-family="Helvetica,sans-Serif" font-size="10.00">utility/functor.h</text>
</a>
</g>
</g>
<!-- Node8&#45;&gt;Node9 -->
<g id="edge9" class="edge"><title>Node8&#45;&gt;Node9</title>
<path fill="none" stroke="midnightblue" d="M941,-55.2188C941,-48.1769 941,-37.8083 941,-28.8277"/>
<polygon fill="midnightblue" stroke="midnightblue" points="944.5,-28.5495 941,-18.5496 937.5,-28.5496 944.5,-28.5495"/>
</g>
<!-- Node12&#45;&gt;Node13 -->
<g id="edge13" class="edge"><title>Node12&#45;&gt;Node13</title>
<path fill="none" stroke="midnightblue" d="M1093.12,-385.219C1095.87,-377.942 1099.96,-367.113 1103.42,-357.934"/>
<polygon fill="midnightblue" stroke="midnightblue" points="1106.71,-359.141 1106.96,-348.55 1100.16,-356.67 1106.71,-359.141"/>
</g>
<!-- Node13&#45;&gt;Node8 -->
<g id="edge14" class="edge"><title>Node13&#45;&gt;Node8</title>
<path fill="none" stroke="midnightblue" d="M1113.58,-330.482C1127.47,-297.977 1174.21,-174.68 1115,-110 1100.62,-94.2975 1052.08,-82.6854 1009.9,-75.2677"/>
<polygon fill="midnightblue" stroke="midnightblue" points="1010.35,-71.7934 999.905,-73.5646 1009.18,-78.694 1010.35,-71.7934"/>
</g>
<!-- Node13&#45;&gt;Node14 -->
<g id="edge15" class="edge"><title>Node13&#45;&gt;Node14</title>
<path fill="none" stroke="midnightblue" d="M1103.24,-330.382C1088.45,-312.635 1053,-270.098 1033.47,-246.666"/>
<polygon fill="midnightblue" stroke="midnightblue" points="1035.93,-244.153 1026.84,-238.712 1030.56,-248.635 1035.93,-244.153"/>
</g>
<!-- Node13&#45;&gt;Node16 -->
<g id="edge18" class="edge"><title>Node13&#45;&gt;Node16</title>
<path fill="none" stroke="midnightblue" d="M1108.95,-330.382C1106.72,-313.182 1101.47,-272.698 1098.38,-248.887"/>
<polygon fill="midnightblue" stroke="midnightblue" points="1101.82,-248.179 1097.06,-238.712 1094.88,-249.079 1101.82,-248.179"/>
</g>
<!-- Node13&#45;&gt;Node17 -->
<g id="edge21" class="edge"><title>Node13&#45;&gt;Node17</title>
<path fill="none" stroke="midnightblue" d="M1123.37,-330.45C1137.19,-322.123 1159.03,-308.97 1175.52,-299.039"/>
<polygon fill="midnightblue" stroke="midnightblue" points="1177.75,-301.783 1184.51,-293.625 1174.14,-295.786 1177.75,-301.783"/>
</g>
<!-- Node13&#45;&gt;Node18 -->
<g id="edge23" class="edge"><title>Node13&#45;&gt;Node18</title>
<path fill="none" stroke="midnightblue" d="M1132.01,-331.68C1160.74,-322.774 1211.4,-307.073 1245.57,-296.481"/>
<polygon fill="midnightblue" stroke="midnightblue" points="1246.66,-299.809 1255.17,-293.505 1244.58,-293.122 1246.66,-299.809"/>
</g>
<!-- Node13&#45;&gt;Node19 -->
<g id="edge25" class="edge"><title>Node13&#45;&gt;Node19</title>
<path fill="none" stroke="midnightblue" d="M1131.91,-333.981C1174.31,-325.238 1268.26,-305.863 1323.7,-294.43"/>
<polygon fill="midnightblue" stroke="midnightblue" points="1324.49,-297.84 1333.58,-292.392 1323.08,-290.984 1324.49,-297.84"/>
</g>
<!-- Node13&#45;&gt;Node20 -->
<g id="edge27" class="edge"><title>Node13&#45;&gt;Node20</title>
<path fill="none" stroke="midnightblue" d="M1088.04,-336.1C1037.24,-330.415 907.536,-315.129 789.729,-294.195"/>
<polygon fill="midnightblue" stroke="midnightblue" points="790.285,-290.739 779.823,-292.416 789.047,-297.628 790.285,-290.739"/>
</g>
<!-- Node13&#45;&gt;Node21 -->
<g id="edge30" class="edge"><title>Node13&#45;&gt;Node21</title>
<path fill="none" stroke="midnightblue" d="M1088.04,-334.252C1044.22,-325.777 945,-306.584 884.947,-294.968"/>
<polygon fill="midnightblue" stroke="midnightblue" points="885.419,-291.494 874.936,-293.031 884.089,-298.367 885.419,-291.494"/>
</g>
<!-- Node14&#45;&gt;Node8 -->
<g id="edge17" class="edge"><title>Node14&#45;&gt;Node8</title>
<path fill="none" stroke="midnightblue" d="M1037.25,-220.487C1050.83,-213.128 1068.8,-200.811 1077,-184 1091.42,-154.442 1096.3,-136.628 1077,-110 1061.81,-89.0475 1036.46,-77.7785 1011.74,-71.7816"/>
<polygon fill="midnightblue" stroke="midnightblue" points="1012.47,-68.358 1001.95,-69.6618 1010.99,-75.1993 1012.47,-68.358"/>
</g>
<!-- Node15 -->
<g id="node15" class="node"><title>Node15</title>
<polygon fill="white" stroke="#bfbfbf" points="440.599,-55.5 440.599,-73.5 499.401,-73.5 499.401,-55.5 440.599,-55.5"/>
<text text-anchor="middle" x="470" y="-61.5" font-family="Helvetica,sans-Serif" font-size="10.00">inttypes.h</text>
</g>
<!-- Node14&#45;&gt;Node15 -->
<g id="edge16" class="edge"><title>Node14&#45;&gt;Node15</title>
<path fill="none" stroke="midnightblue" d="M1027.7,-220.384C1038.89,-207.587 1056.95,-182.391 1044,-165 980.005,-79.0787 628.821,-67.2244 509.608,-65.6909"/>
<polygon fill="midnightblue" stroke="midnightblue" points="509.501,-62.1896 499.463,-65.5785 509.423,-69.1892 509.501,-62.1896"/>
</g>
<!-- Node16&#45;&gt;Node6 -->
<g id="edge19" class="edge"><title>Node16&#45;&gt;Node6</title>
<path fill="none" stroke="midnightblue" d="M1071.09,-221.404C1043.55,-213.318 998.054,-199.236 960,-184 921.073,-168.415 877.483,-146.762 851.152,-133.196"/>
<polygon fill="midnightblue" stroke="midnightblue" points="852.76,-130.088 842.272,-128.591 849.537,-136.302 852.76,-130.088"/>
</g>
<!-- Node16&#45;&gt;Node8 -->
<g id="edge20" class="edge"><title>Node16&#45;&gt;Node8</title>
<path fill="none" stroke="midnightblue" d="M1099.02,-220.276C1106.11,-199.41 1121.38,-143.686 1096,-110 1084.44,-94.6556 1040.73,-82.9744 1002.66,-75.4385"/>
<polygon fill="midnightblue" stroke="midnightblue" points="1003.1,-71.9586 992.62,-73.5179 1001.78,-78.834 1003.1,-71.9586"/>
</g>
<!-- Node17&#45;&gt;Node8 -->
<g id="edge22" class="edge"><title>Node17&#45;&gt;Node8</title>
<path fill="none" stroke="midnightblue" d="M1200.8,-275.332C1209.59,-248.019 1233.61,-158.835 1191,-110 1168.03,-83.6727 1077.65,-72.8874 1012.15,-68.491"/>
<polygon fill="midnightblue" stroke="midnightblue" points="1012.06,-64.9788 1001.86,-67.8389 1011.62,-71.9648 1012.06,-64.9788"/>
</g>
<!-- Node18&#45;&gt;Node8 -->
<g id="edge24" class="edge"><title>Node18&#45;&gt;Node8</title>
<path fill="none" stroke="midnightblue" d="M1280.47,-275.331C1278.17,-247.233 1266.55,-153.892 1212,-110 1181.95,-85.8218 1081.64,-74.4304 1011.88,-69.3207"/>
<polygon fill="midnightblue" stroke="midnightblue" points="1012.04,-65.8236 1001.82,-68.6116 1011.55,-72.8063 1012.04,-65.8236"/>
</g>
<!-- Node19&#45;&gt;Node8 -->
<g id="edge26" class="edge"><title>Node19&#45;&gt;Node8</title>
<path fill="none" stroke="midnightblue" d="M1363.49,-275.171C1350.95,-246.549 1305.32,-151.703 1235,-110 1198.37,-88.2761 1086.84,-76.07 1012.17,-70.1369"/>
<polygon fill="midnightblue" stroke="midnightblue" points="1012.12,-66.6234 1001.88,-69.341 1011.58,-73.6025 1012.12,-66.6234"/>
</g>
<!-- Node20&#45;&gt;Node6 -->
<g id="edge28" class="edge"><title>Node20&#45;&gt;Node6</title>
<path fill="none" stroke="midnightblue" d="M753.924,-275.193C765.922,-249.794 802.298,-172.791 818.756,-137.952"/>
<polygon fill="midnightblue" stroke="midnightblue" points="822.068,-139.134 823.175,-128.597 815.739,-136.144 822.068,-139.134"/>
</g>
<!-- Node20&#45;&gt;Node8 -->
<g id="edge29" class="edge"><title>Node20&#45;&gt;Node8</title>
<path fill="none" stroke="midnightblue" d="M740.082,-275.34C723.451,-262.022 688.466,-235.543 655,-220 599.952,-194.433 508.398,-221.721 530,-165 541.652,-134.405 550.002,-125.195 579,-110 628.077,-84.2831 779.228,-72.9309 869.959,-68.3219"/>
<polygon fill="midnightblue" stroke="midnightblue" points="870.355,-71.8067 880.17,-67.8186 870.01,-64.8152 870.355,-71.8067"/>
</g>
<!-- Node21&#45;&gt;Node6 -->
<g id="edge31" class="edge"><title>Node21&#45;&gt;Node6</title>
<path fill="none" stroke="midnightblue" d="M835.541,-275.193C834.151,-250.013 829.96,-174.114 828.014,-138.862"/>
<polygon fill="midnightblue" stroke="midnightblue" points="831.493,-138.389 827.447,-128.597 824.504,-138.775 831.493,-138.389"/>
</g>
<!-- Node21&#45;&gt;Node8 -->
<g id="edge36" class="edge"><title>Node21&#45;&gt;Node8</title>
<path fill="none" stroke="midnightblue" d="M839.862,-275.483C855.07,-243.908 911.046,-127.691 932.528,-83.0889"/>
<polygon fill="midnightblue" stroke="midnightblue" points="935.805,-84.3513 936.991,-73.8231 929.498,-81.3137 935.805,-84.3513"/>
</g>
<!-- Node22 -->
<g id="node22" class="node"><title>Node22</title>
<g id="a_node22"><a xlink:href="$AP__Common_8h.html" xlink:title="Common definitions and utility routines for the ArduPilot libraries. ">
<polygon fill="white" stroke="black" points="538.973,-165.5 538.973,-183.5 685.027,-183.5 685.027,-165.5 538.973,-165.5"/>
<text text-anchor="middle" x="612" y="-171.5" font-family="Helvetica,sans-Serif" font-size="10.00">AP_Common/AP_Common.h</text>
</a>
</g>
</g>
<!-- Node21&#45;&gt;Node22 -->
<g id="edge32" class="edge"><title>Node21&#45;&gt;Node22</title>
<path fill="none" stroke="midnightblue" d="M823.601,-275.402C803.736,-262.63 763.314,-237.468 727,-220 700.448,-207.228 669.206,-195.326 645.992,-187.051"/>
<polygon fill="midnightblue" stroke="midnightblue" points="646.849,-183.643 636.255,-183.625 644.526,-190.246 646.849,-183.643"/>
</g>
<!-- Node21&#45;&gt;Node24 -->
<g id="edge37" class="edge"><title>Node21&#45;&gt;Node24</title>
<path fill="none" stroke="midnightblue" d="M797.046,-276.274C794.326,-275.825 791.624,-275.396 789,-275 683.097,-259.035 559.364,-245.021 485.74,-237.168"/>
<polygon fill="midnightblue" stroke="midnightblue" points="486.005,-233.677 475.691,-236.102 485.266,-240.638 486.005,-233.677"/>
</g>
<!-- Node22&#45;&gt;Node6 -->
<g id="edge33" class="edge"><title>Node22&#45;&gt;Node6</title>
<path fill="none" stroke="midnightblue" d="M644.654,-165.45C684.723,-155.573 752.333,-138.906 793.005,-128.88"/>
<polygon fill="midnightblue" stroke="midnightblue" points="793.86,-132.274 802.732,-126.482 792.185,-125.478 793.86,-132.274"/>
</g>
<!-- Node22&#45;&gt;Node7 -->
<g id="edge35" class="edge"><title>Node22&#45;&gt;Node7</title>
<path fill="none" stroke="midnightblue" d="M627.947,-165.45C644.907,-156.89 671.971,-143.229 691.816,-133.212"/>
<polygon fill="midnightblue" stroke="midnightblue" points="693.553,-136.256 700.903,-128.625 690.398,-130.007 693.553,-136.256"/>
</g>
<!-- Node23 -->
<g id="node23" class="node"><title>Node23</title>
<polygon fill="white" stroke="#bfbfbf" points="588.158,-110.5 588.158,-128.5 635.842,-128.5 635.842,-110.5 588.158,-110.5"/>
<text text-anchor="middle" x="612" y="-116.5" font-family="Helvetica,sans-Serif" font-size="10.00">stdlib.h</text>
</g>
<!-- Node22&#45;&gt;Node23 -->
<g id="edge34" class="edge"><title>Node22&#45;&gt;Node23</title>
<path fill="none" stroke="midnightblue" d="M612,-165.219C612,-158.177 612,-147.808 612,-138.828"/>
<polygon fill="midnightblue" stroke="midnightblue" points="615.5,-138.55 612,-128.55 608.5,-138.55 615.5,-138.55"/>
</g>
<!-- Node24&#45;&gt;Node8 -->
<g id="edge40" class="edge"><title>Node24&#45;&gt;Node8</title>
<path fill="none" stroke="midnightblue" d="M392.37,-220.451C361.278,-210.202 318.264,-190.696 336,-165 395.676,-78.5395 723.006,-66.2551 869.764,-65.1622"/>
<polygon fill="midnightblue" stroke="midnightblue" points="870.034,-68.6608 880.013,-65.102 869.992,-61.6609 870.034,-68.6608"/>
</g>
<!-- Node24&#45;&gt;Node22 -->
<g id="edge39" class="edge"><title>Node24&#45;&gt;Node22</title>
<path fill="none" stroke="midnightblue" d="M450.009,-220.45C482.918,-211.318 536.741,-196.383 573.231,-186.258"/>
<polygon fill="midnightblue" stroke="midnightblue" points="574.332,-189.585 583.032,-183.538 572.46,-182.84 574.332,-189.585"/>
</g>
<!-- Node25 -->
<g id="node25" class="node"><title>Node25</title>
<polygon fill="white" stroke="#bfbfbf" points="162.934,-165.5 162.934,-183.5 215.066,-183.5 215.066,-165.5 162.934,-165.5"/>
<text text-anchor="middle" x="189" y="-171.5" font-family="Helvetica,sans-Serif" font-size="10.00">stdarg.h</text>
</g>
<!-- Node24&#45;&gt;Node25 -->
<g id="edge38" class="edge"><title>Node24&#45;&gt;Node25</title>
<path fill="none" stroke="midnightblue" d="M384.651,-220.473C347.098,-212.139 286.533,-198.586 225.208,-184.256"/>
<polygon fill="midnightblue" stroke="midnightblue" points="225.897,-180.823 215.362,-181.95 224.301,-187.639 225.897,-180.823"/>
</g>
<!-- Node24&#45;&gt;Node26 -->
<g id="edge41" class="edge"><title>Node24&#45;&gt;Node26</title>
<path fill="none" stroke="midnightblue" d="M396.699,-220.45C369.602,-211.475 325.58,-196.892 295.057,-186.781"/>
<polygon fill="midnightblue" stroke="midnightblue" points="295.86,-183.36 285.267,-183.538 293.659,-190.005 295.86,-183.36"/>
</g>
<!-- Node26&#45;&gt;Node8 -->
<g id="edge42" class="edge"><title>Node26&#45;&gt;Node8</title>
<path fill="none" stroke="midnightblue" d="M263.772,-165.089C268.946,-150.897 281.535,-122.52 303,-110 350.962,-82.0246 713.489,-70.5986 869.721,-66.9396"/>
<polygon fill="midnightblue" stroke="midnightblue" points="870.24,-70.4286 880.157,-66.6995 870.079,-63.4305 870.24,-70.4286"/>
</g>
<!-- Node26&#45;&gt;Node27 -->
<g id="edge43" class="edge"><title>Node26&#45;&gt;Node27</title>
<path fill="none" stroke="midnightblue" d="M232.544,-166.352C193.449,-156.532 123.318,-138.916 82.2999,-128.613"/>
<polygon fill="midnightblue" stroke="midnightblue" points="83.0868,-125.202 72.5354,-126.161 81.3814,-131.991 83.0868,-125.202"/>
</g>
<!-- Node27&#45;&gt;Node2 -->
<g id="edge46" class="edge"><title>Node27&#45;&gt;Node2</title>
<path fill="none" stroke="midnightblue" d="M50,-110.382C50,-93.1822 50,-52.698 50,-28.8866"/>
<polygon fill="midnightblue" stroke="midnightblue" points="53.5001,-28.7117 50,-18.7118 46.5001,-28.7118 53.5001,-28.7117"/>
</g>
<!-- Node27&#45;&gt;Node8 -->
<g id="edge44" class="edge"><title>Node27&#45;&gt;Node8</title>
<path fill="none" stroke="midnightblue" d="M72.7351,-112.48C77.1106,-111.507 81.6771,-110.618 86,-110 236.582,-88.4829 692.903,-72.9271 869.832,-67.5543"/>
<polygon fill="midnightblue" stroke="midnightblue" points="870.178,-71.0456 880.068,-67.2454 869.967,-64.0488 870.178,-71.0456"/>
</g>
<!-- Node27&#45;&gt;Node15 -->
<g id="edge45" class="edge"><title>Node27&#45;&gt;Node15</title>
<path fill="none" stroke="midnightblue" d="M72.7703,-112.701C77.1426,-111.708 81.6988,-110.754 86,-110 210.809,-88.1105 360.394,-74.3036 430.319,-68.5637"/>
<polygon fill="midnightblue" stroke="midnightblue" points="430.759,-72.0396 440.444,-67.7435 430.194,-65.0624 430.759,-72.0396"/>
</g>
<!-- Node28&#45;&gt;Node6 -->
<g id="edge49" class="edge"><title>Node28&#45;&gt;Node6</title>
<path fill="none" stroke="midnightblue" d="M975.421,-165.45C944.833,-156.187 894.526,-140.951 861.083,-130.822"/>
<polygon fill="midnightblue" stroke="midnightblue" points="861.871,-127.404 851.286,-127.855 859.842,-134.103 861.871,-127.404"/>
</g>
<!-- Node28&#45;&gt;Node8 -->
<g id="edge50" class="edge"><title>Node28&#45;&gt;Node8</title>
<path fill="none" stroke="midnightblue" d="M997.415,-165.382C987.524,-147.869 963.998,-106.218 950.661,-82.6045"/>
<polygon fill="midnightblue" stroke="midnightblue" points="953.604,-80.6976 945.638,-73.7118 947.509,-84.1402 953.604,-80.6976"/>
</g>
<!-- Node29&#45;&gt;Node6 -->
<g id="edge58" class="edge"><title>Node29&#45;&gt;Node6</title>
<path fill="none" stroke="midnightblue" d="M628.16,-220.382C665.372,-201.69 757.326,-155.499 801.932,-133.092"/>
<polygon fill="midnightblue" stroke="midnightblue" points="803.581,-136.181 810.946,-128.564 800.439,-129.926 803.581,-136.181"/>
</g>
<!-- Node29&#45;&gt;Node8 -->
<g id="edge61" class="edge"><title>Node29&#45;&gt;Node8</title>
<path fill="none" stroke="midnightblue" d="M577.43,-225.377C550.548,-220.925 514.911,-210.136 497,-184 478.408,-156.87 474.934,-134.388 497,-110 521.494,-82.9278 750.658,-71.5964 869.793,-67.5032"/>
<polygon fill="midnightblue" stroke="midnightblue" points="870.045,-70.9968 879.922,-67.1636 869.81,-64.0008 870.045,-70.9968"/>
</g>
<!-- Node29&#45;&gt;Node10 -->
<g id="edge60" class="edge"><title>Node29&#45;&gt;Node10</title>
<path fill="none" stroke="midnightblue" d="M579.042,-220.45C541.253,-211.221 479.194,-196.063 437.724,-185.935"/>
<polygon fill="midnightblue" stroke="midnightblue" points="438.456,-182.511 427.912,-183.538 436.796,-189.311 438.456,-182.511"/>
</g>
<!-- Node29&#45;&gt;Node22 -->
<g id="edge59" class="edge"><title>Node29&#45;&gt;Node22</title>
<path fill="none" stroke="midnightblue" d="M612,-220.219C612,-213.177 612,-202.808 612,-193.828"/>
<polygon fill="midnightblue" stroke="midnightblue" points="615.5,-193.55 612,-183.55 608.5,-193.55 615.5,-193.55"/>
</g>
<!-- Node30&#45;&gt;Node8 -->
<g id="edge63" class="edge"><title>Node30&#45;&gt;Node8</title>
<path fill="none" stroke="midnightblue" d="M148.847,-330.146C140.085,-294.031 111.242,-151.286 191,-110 250.272,-79.3184 694.172,-69.2522 869.79,-66.4491"/>
<polygon fill="midnightblue" stroke="midnightblue" points="870.017,-69.9461 879.961,-66.2902 869.907,-62.947 870.017,-69.9461"/>
</g>
<!-- Node31&#45;&gt;Node8 -->
<g id="edge66" class="edge"><title>Node31&#45;&gt;Node8</title>
<path fill="none" stroke="midnightblue" d="M178.772,-220.455C164.436,-208.177 141.452,-184.168 154,-165 187.466,-113.877 220.64,-124.489 280,-110 390.141,-83.1169 722.645,-71.2484 869.714,-67.212"/>
<polygon fill="midnightblue" stroke="midnightblue" points="870.075,-70.7036 879.977,-66.9348 869.886,-63.7062 870.075,-70.7036"/>
</g>
<!-- Node31&#45;&gt;Node25 -->
<g id="edge65" class="edge"><title>Node31&#45;&gt;Node25</title>
<path fill="none" stroke="midnightblue" d="M189,-220.219C189,-213.177 189,-202.808 189,-193.828"/>
<polygon fill="midnightblue" stroke="midnightblue" points="192.5,-193.55 189,-183.55 185.5,-193.55 192.5,-193.55"/>
</g>
<!-- Node32&#45;&gt;Node5 -->
<g id="edge72" class="edge"><title>Node32&#45;&gt;Node5</title>
<path fill="none" stroke="midnightblue" d="M994.104,-495.45C972.367,-486.656 937.328,-472.48 912.415,-462.401"/>
<polygon fill="midnightblue" stroke="midnightblue" points="913.666,-459.131 903.083,-458.625 911.041,-465.62 913.666,-459.131"/>
</g>
<!-- Node33 -->
<g id="node33" class="node"><title>Node33</title>
<g id="a_node33"><a xlink:href="$AP__HAL__Empty__Namespace_8h.html" xlink:title="AP_HAL_Empty_Namespace.h">
<polygon fill="white" stroke="black" points="953.242,-440.5 953.242,-458.5 1108.76,-458.5 1108.76,-440.5 953.242,-440.5"/>
<text text-anchor="middle" x="1031" y="-446.5" font-family="Helvetica,sans-Serif" font-size="10.00">AP_HAL_Empty_Namespace.h</text>
</a>
</g>
</g>
<!-- Node32&#45;&gt;Node33 -->
<g id="edge73" class="edge"><title>Node32&#45;&gt;Node33</title>
<path fill="none" stroke="midnightblue" d="M1016.66,-495.219C1018.97,-488.02 1022.39,-477.346 1025.31,-468.231"/>
<polygon fill="midnightblue" stroke="midnightblue" points="1028.7,-469.141 1028.42,-458.55 1022.03,-467.003 1028.7,-469.141"/>
</g>
<!-- Node34 -->
<g id="node34" class="node"><title>Node34</title>
<g id="a_node34"><a xlink:href="$PrivateMember_8h.html" xlink:title="PrivateMember.h">
<polygon fill="white" stroke="black" points="1127.2,-440.5 1127.2,-458.5 1218.8,-458.5 1218.8,-440.5 1127.2,-440.5"/>
<text text-anchor="middle" x="1173" y="-446.5" font-family="Helvetica,sans-Serif" font-size="10.00">PrivateMember.h</text>
</a>
</g>
</g>
<!-- Node32&#45;&gt;Node34 -->
<g id="edge74" class="edge"><title>Node32&#45;&gt;Node34</title>
<path fill="none" stroke="midnightblue" d="M1038.15,-495.45C1065.08,-486.475 1108.82,-471.892 1139.16,-461.781"/>
<polygon fill="midnightblue" stroke="midnightblue" points="1140.51,-465.021 1148.89,-458.538 1138.29,-458.38 1140.51,-465.021"/>
</g>
<!-- Node34&#45;&gt;Node4 -->
<g id="edge75" class="edge"><title>Node34&#45;&gt;Node4</title>
<path fill="none" stroke="midnightblue" d="M1162.56,-458.593C1145.43,-471.581 1109.99,-497.31 1077,-514 1049.79,-527.766 1017.28,-539.482 992.807,-547.432"/>
<polygon fill="midnightblue" stroke="midnightblue" points="991.65,-544.127 983.186,-550.499 993.777,-550.797 991.65,-544.127"/>
</g>
</g>
</svg>
