<?xml version="1.0" encoding="UTF-8" standalone="no"?>
<!DOCTYPE svg PUBLIC "-//W3C//DTD SVG 1.1//EN"
 "http://www.w3.org/Graphics/SVG/1.1/DTD/svg11.dtd">
<!-- Generated by graphviz version 2.38.0 (20140413.2041)
 -->
<!-- Title: test_conversions Pages: 1 -->
<svg width="972pt" height="338pt"
 viewBox="0.00 0.00 972.23 337.57" xmlns="http://www.w3.org/2000/svg" xmlns:xlink="http://www.w3.org/1999/xlink">
<g id="graph0" class="graph" transform="scale(1 1) rotate(0) translate(4 333.566)">
<title>test_conversions</title>
<polygon fill="white" stroke="none" points="-4,4 -4,-333.566 968.226,-333.566 968.226,4 -4,4"/>
<!-- Node1 -->
<g id="node1" class="node"><title>Node1</title>
<polygon fill="#bfbfbf" stroke="black" points="0,-223.669 0,-241.669 91.0391,-241.669 91.0391,-223.669 0,-223.669"/>
<text text-anchor="middle" x="45.5195" y="-229.669" font-family="Helvetica,sans-Serif" font-size="10.00">test_conversions</text>
</g>
<!-- Node2 -->
<g id="node2" class="node"><title>Node2</title>
<g id="a_node2"><a xlink:href="$classAP__HAL_1_1Print.html#ad337ce3f7977411b7d34d47a51e5737e" xlink:title="AP_HAL::Print::println">
<polygon fill="white" stroke="black" points="127.039,-297.669 127.039,-315.669 240.305,-315.669 240.305,-297.669 127.039,-297.669"/>
<text text-anchor="middle" x="183.672" y="-303.669" font-family="Helvetica,sans-Serif" font-size="10.00">AP_HAL::Print::println</text>
</a>
</g>
</g>
<!-- Node1&#45;&gt;Node2 -->
<g id="edge1" class="edge"><title>Node1&#45;&gt;Node2</title>
<path fill="none" stroke="midnightblue" d="M63.2145,-241.743C86.5897,-254.447 129.288,-277.654 156.799,-292.607"/>
<polygon fill="midnightblue" stroke="midnightblue" points="155.383,-295.821 165.84,-297.521 158.726,-289.67 155.383,-295.821"/>
</g>
<!-- Node6 -->
<g id="node6" class="node"><title>Node6</title>
<g id="a_node6"><a xlink:href="$eulers_8cpp.html#ada3aa00f3fc83688f3bb0c2c847b7e50" xlink:title="test_conversion">
<polygon fill="white" stroke="black" points="140.652,-149.669 140.652,-167.669 226.691,-167.669 226.691,-149.669 140.652,-149.669"/>
<text text-anchor="middle" x="183.672" y="-155.669" font-family="Helvetica,sans-Serif" font-size="10.00">test_conversion</text>
</a>
</g>
</g>
<!-- Node1&#45;&gt;Node6 -->
<g id="edge6" class="edge"><title>Node1&#45;&gt;Node6</title>
<path fill="none" stroke="midnightblue" d="M63.2145,-223.595C86.5897,-210.89 129.288,-187.683 156.799,-172.731"/>
<polygon fill="midnightblue" stroke="midnightblue" points="158.726,-175.667 165.84,-167.817 155.383,-169.517 158.726,-175.667"/>
</g>
<!-- Node3 -->
<g id="node3" class="node"><title>Node3</title>
<g id="a_node3"><a xlink:href="$classAP__HAL_1_1Print.html#acfe80773011eb17dfb52c2fba517a093" xlink:title="AP_HAL::Print::print">
<polygon fill="white" stroke="black" points="446.435,-297.669 446.435,-315.669 551.917,-315.669 551.917,-297.669 446.435,-297.669"/>
<text text-anchor="middle" x="499.176" y="-303.669" font-family="Helvetica,sans-Serif" font-size="10.00">AP_HAL::Print::print</text>
</a>
</g>
</g>
<!-- Node2&#45;&gt;Node3 -->
<g id="edge2" class="edge"><title>Node2&#45;&gt;Node3</title>
<path fill="none" stroke="midnightblue" d="M219.655,-315.675C236.63,-319.594 257.395,-323.729 276.305,-325.669 328.843,-331.058 342.542,-330.477 395.137,-325.669 412.688,-324.064 431.714,-320.953 448.584,-317.704"/>
<polygon fill="midnightblue" stroke="midnightblue" points="449.652,-321.061 458.777,-315.677 448.286,-314.195 449.652,-321.061"/>
</g>
<!-- Node5 -->
<g id="node5" class="node"><title>Node5</title>
<g id="a_node5"><a xlink:href="$classAP__HAL_1_1Print.html#a169b128f9e22f0c15883768f580541a2" xlink:title="AP_HAL::Print::println">
<polygon fill="white" stroke="black" points="279.088,-297.669 279.088,-315.669 392.354,-315.669 392.354,-297.669 279.088,-297.669"/>
<text text-anchor="middle" x="335.721" y="-303.669" font-family="Helvetica,sans-Serif" font-size="10.00">AP_HAL::Print::println</text>
</a>
</g>
</g>
<!-- Node2&#45;&gt;Node5 -->
<g id="edge4" class="edge"><title>Node2&#45;&gt;Node5</title>
<path fill="none" stroke="midnightblue" d="M240.545,-306.669C249.784,-306.669 259.439,-306.669 268.896,-306.669"/>
<polygon fill="midnightblue" stroke="midnightblue" points="269.051,-310.169 279.051,-306.669 269.051,-303.169 269.051,-310.169"/>
</g>
<!-- Node4 -->
<g id="node4" class="node"><title>Node4</title>
<g id="a_node4"><a xlink:href="$classAP__HAL_1_1Print.html#acc65391952a43334f8f5c9bef341f501" xlink:title="AP_HAL::Print::write">
<polygon fill="white" stroke="black" points="857.083,-172.669 857.083,-190.669 964.226,-190.669 964.226,-172.669 857.083,-172.669"/>
<text text-anchor="middle" x="910.654" y="-178.669" font-family="Helvetica,sans-Serif" font-size="10.00">AP_HAL::Print::write</text>
</a>
</g>
</g>
<!-- Node3&#45;&gt;Node4 -->
<g id="edge3" class="edge"><title>Node3&#45;&gt;Node4</title>
<path fill="none" stroke="midnightblue" d="M529.954,-297.578C602.566,-275.413 788.741,-218.58 870.339,-193.671"/>
<polygon fill="midnightblue" stroke="midnightblue" points="871.445,-196.992 879.987,-190.725 869.401,-190.297 871.445,-196.992"/>
</g>
<!-- Node5&#45;&gt;Node3 -->
<g id="edge5" class="edge"><title>Node5&#45;&gt;Node3</title>
<path fill="none" stroke="midnightblue" d="M392.737,-306.669C406.735,-306.669 421.83,-306.669 436.103,-306.669"/>
<polygon fill="midnightblue" stroke="midnightblue" points="436.323,-310.169 446.323,-306.669 436.322,-303.169 436.323,-310.169"/>
</g>
<!-- Node7 -->
<g id="node7" class="node"><title>Node7</title>
<g id="a_node7"><a xlink:href="$classQuaternion.html#aff2d2d3d1c5937523df8357deae4eeab" xlink:title="Quaternion::from_euler">
<polygon fill="white" stroke="black" points="276.305,-186.669 276.305,-204.669 395.137,-204.669 395.137,-186.669 276.305,-186.669"/>
<text text-anchor="middle" x="335.721" y="-192.669" font-family="Helvetica,sans-Serif" font-size="10.00">Quaternion::from_euler</text>
</a>
</g>
</g>
<!-- Node6&#45;&gt;Node7 -->
<g id="edge7" class="edge"><title>Node6&#45;&gt;Node7</title>
<path fill="none" stroke="midnightblue" d="M221.378,-167.72C241.526,-172.688 266.714,-178.899 288.225,-184.204"/>
<polygon fill="midnightblue" stroke="midnightblue" points="287.587,-187.651 298.134,-186.647 289.263,-180.855 287.587,-187.651"/>
</g>
<!-- Node8 -->
<g id="node8" class="node"><title>Node8</title>
<g id="a_node8"><a xlink:href="$classQuaternion.html#ab3049efa36b211699ca03ea53970f0fd" xlink:title="Quaternion::to_euler">
<polygon fill="white" stroke="black" points="282.135,-149.669 282.135,-167.669 389.307,-167.669 389.307,-149.669 282.135,-149.669"/>
<text text-anchor="middle" x="335.721" y="-155.669" font-family="Helvetica,sans-Serif" font-size="10.00">Quaternion::to_euler</text>
</a>
</g>
</g>
<!-- Node6&#45;&gt;Node8 -->
<g id="edge8" class="edge"><title>Node6&#45;&gt;Node8</title>
<path fill="none" stroke="midnightblue" d="M226.868,-158.669C240.743,-158.669 256.483,-158.669 271.566,-158.669"/>
<polygon fill="midnightblue" stroke="midnightblue" points="271.873,-162.169 281.873,-158.669 271.873,-155.169 271.873,-162.169"/>
</g>
<!-- Node13 -->
<g id="node13" class="node"><title>Node13</title>
<g id="a_node13"><a xlink:href="$eulers_8cpp.html#a6bfa6320a080694c8cdf18de74004189" xlink:title="check_result">
<polygon fill="white" stroke="black" points="299.652,-73.6689 299.652,-91.6689 371.79,-91.6689 371.79,-73.6689 299.652,-73.6689"/>
<text text-anchor="middle" x="335.721" y="-79.6689" font-family="Helvetica,sans-Serif" font-size="10.00">check_result</text>
</a>
</g>
</g>
<!-- Node6&#45;&gt;Node13 -->
<g id="edge13" class="edge"><title>Node6&#45;&gt;Node13</title>
<path fill="none" stroke="midnightblue" d="M199.281,-149.614C217.111,-138.744 248.345,-120.278 276.305,-106.669 284.312,-102.772 293.118,-98.9314 301.41,-95.5045"/>
<polygon fill="midnightblue" stroke="midnightblue" points="302.873,-98.6883 310.83,-91.6928 300.247,-92.1994 302.873,-98.6883"/>
</g>
<!-- Node14 -->
<g id="node14" class="node"><title>Node14</title>
<g id="a_node14"><a xlink:href="$classAP__HAL_1_1UARTDriver.html#a65c7824b8877f7a2f79365c8ffae8f56" xlink:title="AP_HAL::UARTDriver\l::printf">
<polygon fill="white" stroke="black" points="442.365,-24.6689 442.365,-52.6689 555.987,-52.6689 555.987,-24.6689 442.365,-24.6689"/>
<text text-anchor="start" x="450.365" y="-40.6689" font-family="Helvetica,sans-Serif" font-size="10.00">AP_HAL::UARTDriver</text>
<text text-anchor="middle" x="499.176" y="-30.6689" font-family="Helvetica,sans-Serif" font-size="10.00">::printf</text>
</a>
</g>
</g>
<!-- Node6&#45;&gt;Node14 -->
<g id="edge28" class="edge"><title>Node6&#45;&gt;Node14</title>
<path fill="none" stroke="midnightblue" d="M187.244,-149.417C195.2,-122.816 222.2,-46.1469 276.305,-16.6689 332.79,14.1062 409.434,-4.34377 456.263,-21.079"/>
<polygon fill="midnightblue" stroke="midnightblue" points="455.193,-24.4147 465.786,-24.6058 457.624,-17.8504 455.193,-24.4147"/>
</g>
<!-- Node22 -->
<g id="node22" class="node"><title>Node22</title>
<g id="a_node22"><a xlink:href="$classQuaternion.html#afb7132c9c69a984a40be950a17effeaa" xlink:title="&#45;*&#45; tab&#45;width: 4; Mode: C++; c&#45;basic&#45;offset: 4; indent&#45;tabs&#45;mode: nil &#45;*&#45; ">
<polygon fill="white" stroke="black" points="283.526,-26.6689 283.526,-54.6689 387.915,-54.6689 387.915,-26.6689 283.526,-26.6689"/>
<text text-anchor="start" x="291.526" y="-42.6689" font-family="Helvetica,sans-Serif" font-size="10.00">Quaternion::rotation</text>
<text text-anchor="middle" x="335.721" y="-32.6689" font-family="Helvetica,sans-Serif" font-size="10.00">_matrix</text>
</a>
</g>
</g>
<!-- Node6&#45;&gt;Node22 -->
<g id="edge23" class="edge"><title>Node6&#45;&gt;Node22</title>
<path fill="none" stroke="midnightblue" d="M191.26,-149.573C205.089,-131.056 238.966,-88.6295 276.305,-63.6689 278.563,-62.1593 280.935,-60.7256 283.378,-59.3674"/>
<polygon fill="midnightblue" stroke="midnightblue" points="285.108,-62.4148 292.452,-54.7788 281.949,-56.168 285.108,-62.4148"/>
</g>
<!-- Node23 -->
<g id="node23" class="node"><title>Node23</title>
<g id="a_node23"><a xlink:href="$classMatrix3.html#a893c6a712d52e47dbb7ed2d7a548046e" xlink:title="Matrix3::to_euler">
<polygon fill="white" stroke="black" points="453.937,-108.669 453.937,-126.669 544.415,-126.669 544.415,-108.669 453.937,-108.669"/>
<text text-anchor="middle" x="499.176" y="-114.669" font-family="Helvetica,sans-Serif" font-size="10.00">Matrix3::to_euler</text>
</a>
</g>
</g>
<!-- Node6&#45;&gt;Node23 -->
<g id="edge24" class="edge"><title>Node6&#45;&gt;Node23</title>
<path fill="none" stroke="midnightblue" d="M223.747,-149.618C239.941,-146.115 258.959,-142.32 276.305,-139.669 333.103,-130.989 398.629,-124.979 443.665,-121.46"/>
<polygon fill="midnightblue" stroke="midnightblue" points="444.099,-124.937 453.803,-120.683 443.564,-117.957 444.099,-124.937"/>
</g>
<!-- Node24 -->
<g id="node24" class="node"><title>Node24</title>
<g id="a_node24"><a xlink:href="$classMatrix3.html#a62587bd216436f09f06b9e1330f84bc0" xlink:title="&#45;*&#45; tab&#45;width: 4; Mode: C++; c&#45;basic&#45;offset: 4; indent&#45;tabs&#45;mode: nil &#45;*&#45; ">
<polygon fill="white" stroke="black" points="284.652,-260.669 284.652,-278.669 386.79,-278.669 386.79,-260.669 284.652,-260.669"/>
<text text-anchor="middle" x="335.721" y="-266.669" font-family="Helvetica,sans-Serif" font-size="10.00">Matrix3::from_euler</text>
</a>
</g>
</g>
<!-- Node6&#45;&gt;Node24 -->
<g id="edge26" class="edge"><title>Node6&#45;&gt;Node24</title>
<path fill="none" stroke="midnightblue" d="M191.421,-167.931C205.288,-186.323 238.85,-227.657 276.305,-250.669 280.087,-252.993 284.184,-255.063 288.393,-256.901"/>
<polygon fill="midnightblue" stroke="midnightblue" points="287.12,-260.162 297.707,-260.562 289.68,-253.647 287.12,-260.162"/>
</g>
<!-- Node25 -->
<g id="node25" class="node"><title>Node25</title>
<g id="a_node25"><a xlink:href="$classMatrix3.html#a2c69227a793818d8a8f47e99ffa99885" xlink:title="Matrix3::is_nan">
<polygon fill="white" stroke="black" points="293.817,-223.669 293.817,-241.669 377.625,-241.669 377.625,-223.669 293.817,-223.669"/>
<text text-anchor="middle" x="335.721" y="-229.669" font-family="Helvetica,sans-Serif" font-size="10.00">Matrix3::is_nan</text>
</a>
</g>
</g>
<!-- Node6&#45;&gt;Node25 -->
<g id="edge27" class="edge"><title>Node6&#45;&gt;Node25</title>
<path fill="none" stroke="midnightblue" d="M197.811,-167.863C215.152,-179.685 246.926,-200.283 276.305,-213.669 281.46,-216.018 286.992,-218.21 292.521,-220.21"/>
<polygon fill="midnightblue" stroke="midnightblue" points="291.795,-223.661 302.39,-223.593 294.065,-217.039 291.795,-223.661"/>
</g>
<!-- Node9 -->
<g id="node9" class="node"><title>Node9</title>
<g id="a_node9"><a xlink:href="$classQuaternion.html#a9ae6c42349ddc744022a4a1cf7868eb0" xlink:title="Quaternion::get_euler_roll">
<polygon fill="white" stroke="black" points="433.361,-192.669 433.361,-210.669 564.991,-210.669 564.991,-192.669 433.361,-192.669"/>
<text text-anchor="middle" x="499.176" y="-198.669" font-family="Helvetica,sans-Serif" font-size="10.00">Quaternion::get_euler_roll</text>
</a>
</g>
</g>
<!-- Node8&#45;&gt;Node9 -->
<g id="edge9" class="edge"><title>Node8&#45;&gt;Node9</title>
<path fill="none" stroke="midnightblue" d="M370.567,-167.683C395.001,-174.191 428.204,-183.033 454.616,-190.068"/>
<polygon fill="midnightblue" stroke="midnightblue" points="453.81,-193.475 464.374,-192.667 455.612,-186.711 453.81,-193.475"/>
</g>
<!-- Node10 -->
<g id="node10" class="node"><title>Node10</title>
<g id="a_node10"><a xlink:href="$classQuaternion.html#a0bfe50c332309932cd833b83f6524e5f" xlink:title="Quaternion::get_euler\l_pitch">
<polygon fill="white" stroke="black" points="442.809,-145.669 442.809,-173.669 555.542,-173.669 555.542,-145.669 442.809,-145.669"/>
<text text-anchor="start" x="450.809" y="-161.669" font-family="Helvetica,sans-Serif" font-size="10.00">Quaternion::get_euler</text>
<text text-anchor="middle" x="499.176" y="-151.669" font-family="Helvetica,sans-Serif" font-size="10.00">_pitch</text>
</a>
</g>
</g>
<!-- Node8&#45;&gt;Node10 -->
<g id="edge10" class="edge"><title>Node8&#45;&gt;Node10</title>
<path fill="none" stroke="midnightblue" d="M389.587,-158.996C403.278,-159.081 418.187,-159.173 432.449,-159.262"/>
<polygon fill="midnightblue" stroke="midnightblue" points="432.672,-162.763 442.693,-159.325 432.715,-155.763 432.672,-162.763"/>
</g>
<!-- Node12 -->
<g id="node12" class="node"><title>Node12</title>
<g id="a_node12"><a xlink:href="$classQuaternion.html#a35c2a1030832728574363ed8655da625" xlink:title="Quaternion::get_euler_yaw">
<polygon fill="white" stroke="black" points="431.137,-229.669 431.137,-247.669 567.215,-247.669 567.215,-229.669 431.137,-229.669"/>
<text text-anchor="middle" x="499.176" y="-235.669" font-family="Helvetica,sans-Serif" font-size="10.00">Quaternion::get_euler_yaw</text>
</a>
</g>
</g>
<!-- Node8&#45;&gt;Node12 -->
<g id="edge12" class="edge"><title>Node8&#45;&gt;Node12</title>
<path fill="none" stroke="midnightblue" d="M377.075,-167.741C383.404,-170.095 389.656,-173.028 395.137,-176.669 415.898,-190.46 410.22,-206.115 431.137,-219.669 434.734,-222 438.621,-224.05 442.647,-225.852"/>
<polygon fill="midnightblue" stroke="midnightblue" points="441.637,-229.216 452.224,-229.621 444.201,-222.702 441.637,-229.216"/>
</g>
<!-- Node11 -->
<g id="node11" class="node"><title>Node11</title>
<g id="a_node11"><a xlink:href="$AP__Math_8cpp.html#a2706fd969ad73bc8ef977d964c04f4a3" xlink:title="safe_asin">
<polygon fill="white" stroke="black" points="630.622,-129.669 630.622,-147.669 689.43,-147.669 689.43,-129.669 630.622,-129.669"/>
<text text-anchor="middle" x="660.026" y="-135.669" font-family="Helvetica,sans-Serif" font-size="10.00">safe_asin</text>
</a>
</g>
</g>
<!-- Node10&#45;&gt;Node11 -->
<g id="edge11" class="edge"><title>Node10&#45;&gt;Node11</title>
<path fill="none" stroke="midnightblue" d="M555.734,-152.324C577.12,-149.497 601.052,-146.333 620.49,-143.763"/>
<polygon fill="midnightblue" stroke="midnightblue" points="621.04,-147.221 630.495,-142.441 620.122,-140.282 621.04,-147.221"/>
</g>
<!-- Node13&#45;&gt;Node14 -->
<g id="edge14" class="edge"><title>Node13&#45;&gt;Node14</title>
<path fill="none" stroke="midnightblue" d="M369.783,-73.6586C389.071,-68.4024 414.014,-61.6048 436.778,-55.401"/>
<polygon fill="midnightblue" stroke="midnightblue" points="437.988,-58.6991 446.716,-52.6928 436.147,-51.9454 437.988,-58.6991"/>
</g>
<!-- Node21 -->
<g id="node21" class="node"><title>Node21</title>
<g id="a_node21"><a xlink:href="$eulers_8cpp.html#aa94c06a1eb86dc7dd817303e608203b6" xlink:title="rad_diff">
<polygon fill="white" stroke="black" points="474.586,-71.6689 474.586,-89.6689 523.765,-89.6689 523.765,-71.6689 474.586,-71.6689"/>
<text text-anchor="middle" x="499.176" y="-77.6689" font-family="Helvetica,sans-Serif" font-size="10.00">rad_diff</text>
</a>
</g>
</g>
<!-- Node13&#45;&gt;Node21 -->
<g id="edge22" class="edge"><title>Node13&#45;&gt;Node21</title>
<path fill="none" stroke="midnightblue" d="M372.153,-82.23C399.523,-81.8909 437.165,-81.4246 464.17,-81.0901"/>
<polygon fill="midnightblue" stroke="midnightblue" points="464.357,-84.5882 474.313,-80.9645 464.271,-77.5887 464.357,-84.5882"/>
</g>
<!-- Node15 -->
<g id="node15" class="node"><title>Node15</title>
<g id="a_node15"><a xlink:href="$classAP__HAL_1_1UARTDriver.html#aa8abfb6d6641299472c29ac1edde559f" xlink:title="AP_HAL::UARTDriver\l::vprintf">
<polygon fill="white" stroke="black" points="603.215,-39.6689 603.215,-67.6689 716.837,-67.6689 716.837,-39.6689 603.215,-39.6689"/>
<text text-anchor="start" x="611.215" y="-55.6689" font-family="Helvetica,sans-Serif" font-size="10.00">AP_HAL::UARTDriver</text>
<text text-anchor="middle" x="660.026" y="-45.6689" font-family="Helvetica,sans-Serif" font-size="10.00">::vprintf</text>
</a>
</g>
</g>
<!-- Node14&#45;&gt;Node15 -->
<g id="edge15" class="edge"><title>Node14&#45;&gt;Node15</title>
<path fill="none" stroke="midnightblue" d="M556.18,-43.9573C568.044,-45.0776 580.673,-46.2701 592.872,-47.422"/>
<polygon fill="midnightblue" stroke="midnightblue" points="592.707,-50.9219 602.992,-48.3776 593.365,-43.9529 592.707,-50.9219"/>
</g>
<!-- Node16 -->
<g id="node16" class="node"><title>Node16</title>
<g id="a_node16"><a xlink:href="$print__vprintf_8cpp.html#a473b9349f4b086b552a21eb8fe057016" xlink:title="print_vprintf">
<polygon fill="white" stroke="black" points="752.837,-65.6689 752.837,-83.6689 821.083,-83.6689 821.083,-65.6689 752.837,-65.6689"/>
<text text-anchor="middle" x="786.96" y="-71.6689" font-family="Helvetica,sans-Serif" font-size="10.00">print_vprintf</text>
</a>
</g>
</g>
<!-- Node15&#45;&gt;Node16 -->
<g id="edge16" class="edge"><title>Node15&#45;&gt;Node16</title>
<path fill="none" stroke="midnightblue" d="M716.915,-63.0633C725.599,-64.5229 734.454,-66.0113 742.799,-67.4141"/>
<polygon fill="midnightblue" stroke="midnightblue" points="742.238,-70.8687 752.68,-69.0749 743.398,-63.9656 742.238,-70.8687"/>
</g>
<!-- Node16&#45;&gt;Node4 -->
<g id="edge17" class="edge"><title>Node16&#45;&gt;Node4</title>
<path fill="none" stroke="midnightblue" d="M795.367,-84.0506C807.341,-98.8582 832.135,-128.078 857.083,-148.669 865.349,-155.491 875.126,-161.993 883.994,-167.394"/>
<polygon fill="midnightblue" stroke="midnightblue" points="882.412,-170.524 892.803,-172.591 885.969,-164.495 882.412,-170.524"/>
</g>
<!-- Node17 -->
<g id="node17" class="node"><title>Node17</title>
<g id="a_node17"><a xlink:href="$ftoa__engine_8cpp.html#a1c28234da8f20b43c85890d4bb452947" xlink:title="ftoa_engine">
<polygon fill="white" stroke="black" points="876.519,-84.6689 876.519,-102.669 944.79,-102.669 944.79,-84.6689 876.519,-84.6689"/>
<text text-anchor="middle" x="910.654" y="-90.6689" font-family="Helvetica,sans-Serif" font-size="10.00">ftoa_engine</text>
</a>
</g>
</g>
<!-- Node16&#45;&gt;Node17 -->
<g id="edge18" class="edge"><title>Node16&#45;&gt;Node17</title>
<path fill="none" stroke="midnightblue" d="M821.213,-79.8607C835.165,-82.039 851.572,-84.6006 866.442,-86.9221"/>
<polygon fill="midnightblue" stroke="midnightblue" points="866.021,-90.3987 876.441,-88.4833 867.101,-83.4825 866.021,-90.3987"/>
</g>
<!-- Node18 -->
<g id="node18" class="node"><title>Node18</title>
<g id="a_node18"><a xlink:href="$AP__Progmem_8h.html#a1514e0408e036062b4af844baaf567da" xlink:title="pgm_read_byte">
<polygon fill="white" stroke="black" points="867.908,-47.6689 867.908,-65.6689 953.4,-65.6689 953.4,-47.6689 867.908,-47.6689"/>
<text text-anchor="middle" x="910.654" y="-53.6689" font-family="Helvetica,sans-Serif" font-size="10.00">pgm_read_byte</text>
</a>
</g>
</g>
<!-- Node16&#45;&gt;Node18 -->
<g id="edge19" class="edge"><title>Node16&#45;&gt;Node18</title>
<path fill="none" stroke="midnightblue" d="M821.213,-69.7503C832.429,-68.0913 845.232,-66.1977 857.547,-64.3761"/>
<polygon fill="midnightblue" stroke="midnightblue" points="858.351,-67.7954 867.731,-62.8698 857.327,-60.8707 858.351,-67.7954"/>
</g>
<!-- Node19 -->
<g id="node19" class="node"><title>Node19</title>
<g id="a_node19"><a xlink:href="$utoa__invert_8cpp.html#a34926f552460b47c414ec4d83b32815c" xlink:title="ulltoa_invert">
<polygon fill="white" stroke="black" points="875.694,-10.6689 875.694,-28.6689 945.615,-28.6689 945.615,-10.6689 875.694,-10.6689"/>
<text text-anchor="middle" x="910.654" y="-16.6689" font-family="Helvetica,sans-Serif" font-size="10.00">ulltoa_invert</text>
</a>
</g>
</g>
<!-- Node16&#45;&gt;Node19 -->
<g id="edge20" class="edge"><title>Node16&#45;&gt;Node19</title>
<path fill="none" stroke="midnightblue" d="M803.252,-65.5576C817.028,-57.5754 837.989,-45.9831 857.083,-37.6689 861.494,-35.748 866.182,-33.8924 870.872,-32.1495"/>
<polygon fill="midnightblue" stroke="midnightblue" points="872.169,-35.4028 880.411,-28.7455 869.816,-28.81 872.169,-35.4028"/>
</g>
<!-- Node20 -->
<g id="node20" class="node"><title>Node20</title>
<g id="a_node20"><a xlink:href="$utoa__invert_8cpp.html#a5d99bba8e697c1e11da489d88fca8559" xlink:title="ultoa_invert">
<polygon fill="white" stroke="black" points="876.805,-121.669 876.805,-139.669 944.504,-139.669 944.504,-121.669 876.805,-121.669"/>
<text text-anchor="middle" x="910.654" y="-127.669" font-family="Helvetica,sans-Serif" font-size="10.00">ultoa_invert</text>
</a>
</g>
</g>
<!-- Node16&#45;&gt;Node20 -->
<g id="edge21" class="edge"><title>Node16&#45;&gt;Node20</title>
<path fill="none" stroke="midnightblue" d="M803.286,-83.7018C817.085,-91.6326 838.06,-103.193 857.083,-111.669 862.125,-113.915 867.521,-116.101 872.866,-118.143"/>
<polygon fill="midnightblue" stroke="midnightblue" points="871.749,-121.461 882.342,-121.644 874.175,-114.895 871.749,-121.461"/>
</g>
<!-- Node23&#45;&gt;Node11 -->
<g id="edge25" class="edge"><title>Node23&#45;&gt;Node11</title>
<path fill="none" stroke="midnightblue" d="M544.424,-123.519C568.307,-126.676 597.508,-130.536 620.456,-133.57"/>
<polygon fill="midnightblue" stroke="midnightblue" points="620.145,-137.059 630.518,-134.9 621.063,-130.12 620.145,-137.059"/>
</g>
</g>
</svg>
