<?xml version="1.0" encoding="UTF-8" standalone="no"?>
<!DOCTYPE svg PUBLIC "-//W3C//DTD SVG 1.1//EN"
 "http://www.w3.org/Graphics/SVG/1.1/DTD/svg11.dtd">
<!-- Generated by graphviz version 2.38.0 (20140413.2041)
 -->
<!-- Title: rand_num Pages: 1 -->
<svg width="278pt" height="27pt"
 viewBox="0.00 0.00 277.53 27.00" xmlns="http://www.w3.org/2000/svg" xmlns:xlink="http://www.w3.org/1999/xlink">
<g id="graph0" class="graph" transform="scale(1 1) rotate(0) translate(4 23)">
<title>rand_num</title>
<polygon fill="white" stroke="none" points="-4,4 -4,-23 273.526,-23 273.526,4 -4,4"/>
<!-- Node1 -->
<g id="node1" class="node"><title>Node1</title>
<polygon fill="#bfbfbf" stroke="black" points="0,-0.5 0,-18.5 61.0293,-18.5 61.0293,-0.5 0,-0.5"/>
<text text-anchor="middle" x="30.5146" y="-6.5" font-family="Helvetica,sans-Serif" font-size="10.00">rand_num</text>
</g>
<!-- Node2 -->
<g id="node2" class="node"><title>Node2</title>
<g id="a_node2"><a xlink:href="$eulers_8cpp.html#a399d6b75c71672b952b356e8ad32ff9f" xlink:title="test_matrix_rotate">
<polygon fill="white" stroke="black" points="97.0293,-0.5 97.0293,-18.5 193.063,-18.5 193.063,-0.5 97.0293,-0.5"/>
<text text-anchor="middle" x="145.046" y="-6.5" font-family="Helvetica,sans-Serif" font-size="10.00">test_matrix_rotate</text>
</a>
</g>
</g>
<!-- Node1&#45;&gt;Node2 -->
<g id="edge1" class="edge"><title>Node1&#45;&gt;Node2</title>
<path fill="none" stroke="midnightblue" d="M71.2272,-9.5C79.507,-9.5 88.3118,-9.5 96.8323,-9.5"/>
<polygon fill="midnightblue" stroke="midnightblue" points="71.0811,-6.0001 61.081,-9.5 71.081,-13.0001 71.0811,-6.0001"/>
</g>
<!-- Node3 -->
<g id="node3" class="node"><title>Node3</title>
<g id="a_node3"><a xlink:href="$eulers_8cpp.html#a7dfd9b79bc5a37d7df40207afbc5431f" xlink:title="setup">
<polygon fill="white" stroke="black" points="229.063,-0.5 229.063,-18.5 269.526,-18.5 269.526,-0.5 229.063,-0.5"/>
<text text-anchor="middle" x="249.295" y="-6.5" font-family="Helvetica,sans-Serif" font-size="10.00">setup</text>
</a>
</g>
</g>
<!-- Node2&#45;&gt;Node3 -->
<g id="edge2" class="edge"><title>Node2&#45;&gt;Node3</title>
<path fill="none" stroke="midnightblue" d="M203.297,-9.5C212.484,-9.5 221.403,-9.5 228.845,-9.5"/>
<polygon fill="midnightblue" stroke="midnightblue" points="203.28,-6.0001 193.28,-9.5 203.28,-13.0001 203.28,-6.0001"/>
</g>
</g>
</svg>
