<?xml version="1.0" encoding="UTF-8" standalone="no"?>
<!DOCTYPE svg PUBLIC "-//W3C//DTD SVG 1.1//EN"
 "http://www.w3.org/Graphics/SVG/1.1/DTD/svg11.dtd">
<!-- Generated by graphviz version 2.38.0 (20140413.2041)
 -->
<!-- Title: test_euler Pages: 1 -->
<svg width="753pt" height="177pt"
 viewBox="0.00 0.00 752.69 177.00" xmlns="http://www.w3.org/2000/svg" xmlns:xlink="http://www.w3.org/1999/xlink">
<g id="graph0" class="graph" transform="scale(1 1) rotate(0) translate(4 173)">
<title>test_euler</title>
<polygon fill="white" stroke="none" points="-4,4 -4,-173 748.687,-173 748.687,4 -4,4"/>
<!-- Node1 -->
<g id="node1" class="node"><title>Node1</title>
<polygon fill="#bfbfbf" stroke="black" points="0,-113.5 0,-131.5 59.916,-131.5 59.916,-113.5 0,-113.5"/>
<text text-anchor="middle" x="29.958" y="-119.5" font-family="Helvetica,sans-Serif" font-size="10.00">test_euler</text>
</g>
<!-- Node2 -->
<g id="node2" class="node"><title>Node2</title>
<g id="a_node2"><a xlink:href="$classMatrix3.html#a62587bd216436f09f06b9e1330f84bc0" xlink:title="&#45;*&#45; tab&#45;width: 4; Mode: C++; c&#45;basic&#45;offset: 4; indent&#45;tabs&#45;mode: nil &#45;*&#45; ">
<polygon fill="white" stroke="black" points="95.916,-150.5 95.916,-168.5 198.054,-168.5 198.054,-150.5 95.916,-150.5"/>
<text text-anchor="middle" x="146.985" y="-156.5" font-family="Helvetica,sans-Serif" font-size="10.00">Matrix3::from_euler</text>
</a>
</g>
</g>
<!-- Node1&#45;&gt;Node2 -->
<g id="edge1" class="edge"><title>Node1&#45;&gt;Node2</title>
<path fill="none" stroke="midnightblue" d="M59.0967,-131.551C73.858,-136.299 92.1481,-142.183 108.134,-147.325"/>
<polygon fill="midnightblue" stroke="midnightblue" points="107.147,-150.684 117.738,-150.414 109.29,-144.02 107.147,-150.684"/>
</g>
<!-- Node3 -->
<g id="node3" class="node"><title>Node3</title>
<g id="a_node3"><a xlink:href="$classMatrix3.html#a893c6a712d52e47dbb7ed2d7a548046e" xlink:title="Matrix3::to_euler">
<polygon fill="white" stroke="black" points="101.746,-113.5 101.746,-131.5 192.224,-131.5 192.224,-113.5 101.746,-113.5"/>
<text text-anchor="middle" x="146.985" y="-119.5" font-family="Helvetica,sans-Serif" font-size="10.00">Matrix3::to_euler</text>
</a>
</g>
</g>
<!-- Node1&#45;&gt;Node3 -->
<g id="edge2" class="edge"><title>Node1&#45;&gt;Node3</title>
<path fill="none" stroke="midnightblue" d="M59.9841,-122.5C69.5669,-122.5 80.5613,-122.5 91.4154,-122.5"/>
<polygon fill="midnightblue" stroke="midnightblue" points="91.7284,-126 101.728,-122.5 91.7284,-119 91.7284,-126"/>
</g>
<!-- Node5 -->
<g id="node5" class="node"><title>Node5</title>
<g id="a_node5"><a xlink:href="$eulers_8cpp.html#a6bfa6320a080694c8cdf18de74004189" xlink:title="check_result">
<polygon fill="white" stroke="black" points="110.916,-74.5 110.916,-92.5 183.054,-92.5 183.054,-74.5 110.916,-74.5"/>
<text text-anchor="middle" x="146.985" y="-80.5" font-family="Helvetica,sans-Serif" font-size="10.00">check_result</text>
</a>
</g>
</g>
<!-- Node1&#45;&gt;Node5 -->
<g id="edge4" class="edge"><title>Node1&#45;&gt;Node5</title>
<path fill="none" stroke="midnightblue" d="M57.6366,-113.455C73.0598,-108.225 92.6831,-101.572 109.517,-95.8646"/>
<polygon fill="midnightblue" stroke="midnightblue" points="110.706,-99.1572 119.052,-92.6315 108.458,-92.5278 110.706,-99.1572"/>
</g>
<!-- Node4 -->
<g id="node4" class="node"><title>Node4</title>
<g id="a_node4"><a xlink:href="$AP__Math_8cpp.html#a2706fd969ad73bc8ef977d964c04f4a3" xlink:title="safe_asin">
<polygon fill="white" stroke="black" points="261.461,-116.5 261.461,-134.5 320.269,-134.5 320.269,-116.5 261.461,-116.5"/>
<text text-anchor="middle" x="290.865" y="-122.5" font-family="Helvetica,sans-Serif" font-size="10.00">safe_asin</text>
</a>
</g>
</g>
<!-- Node3&#45;&gt;Node4 -->
<g id="edge3" class="edge"><title>Node3&#45;&gt;Node4</title>
<path fill="none" stroke="midnightblue" d="M192.487,-123.441C211.237,-123.837 232.862,-124.295 250.964,-124.677"/>
<polygon fill="midnightblue" stroke="midnightblue" points="251.095,-128.181 261.167,-124.893 251.243,-121.182 251.095,-128.181"/>
</g>
<!-- Node6 -->
<g id="node6" class="node"><title>Node6</title>
<g id="a_node6"><a xlink:href="$classAP__HAL_1_1UARTDriver.html#a65c7824b8877f7a2f79365c8ffae8f56" xlink:title="AP_HAL::UARTDriver\l::printf">
<polygon fill="white" stroke="black" points="234.054,-69.5 234.054,-97.5 347.676,-97.5 347.676,-69.5 234.054,-69.5"/>
<text text-anchor="start" x="242.054" y="-85.5" font-family="Helvetica,sans-Serif" font-size="10.00">AP_HAL::UARTDriver</text>
<text text-anchor="middle" x="290.865" y="-75.5" font-family="Helvetica,sans-Serif" font-size="10.00">::printf</text>
</a>
</g>
</g>
<!-- Node5&#45;&gt;Node6 -->
<g id="edge5" class="edge"><title>Node5&#45;&gt;Node6</title>
<path fill="none" stroke="midnightblue" d="M183.056,-83.5C195.404,-83.5 209.72,-83.5 223.78,-83.5"/>
<polygon fill="midnightblue" stroke="midnightblue" points="223.941,-87.0001 233.941,-83.5 223.941,-80.0001 223.941,-87.0001"/>
</g>
<!-- Node14 -->
<g id="node14" class="node"><title>Node14</title>
<g id="a_node14"><a xlink:href="$eulers_8cpp.html#aa94c06a1eb86dc7dd817303e608203b6" xlink:title="rad_diff">
<polygon fill="white" stroke="black" points="266.275,-32.5 266.275,-50.5 315.454,-50.5 315.454,-32.5 266.275,-32.5"/>
<text text-anchor="middle" x="290.865" y="-38.5" font-family="Helvetica,sans-Serif" font-size="10.00">rad_diff</text>
</a>
</g>
</g>
<!-- Node5&#45;&gt;Node14 -->
<g id="edge13" class="edge"><title>Node5&#45;&gt;Node14</title>
<path fill="none" stroke="midnightblue" d="M178.422,-74.4899C201.363,-67.6988 232.803,-58.3918 256.441,-51.3944"/>
<polygon fill="midnightblue" stroke="midnightblue" points="257.451,-54.7455 266.046,-48.5509 255.464,-48.0335 257.451,-54.7455"/>
</g>
<!-- Node7 -->
<g id="node7" class="node"><title>Node7</title>
<g id="a_node7"><a xlink:href="$classAP__HAL_1_1UARTDriver.html#aa8abfb6d6641299472c29ac1edde559f" xlink:title="AP_HAL::UARTDriver\l::vprintf">
<polygon fill="white" stroke="black" points="383.676,-69.5 383.676,-97.5 497.298,-97.5 497.298,-69.5 383.676,-69.5"/>
<text text-anchor="start" x="391.676" y="-85.5" font-family="Helvetica,sans-Serif" font-size="10.00">AP_HAL::UARTDriver</text>
<text text-anchor="middle" x="440.487" y="-75.5" font-family="Helvetica,sans-Serif" font-size="10.00">::vprintf</text>
</a>
</g>
</g>
<!-- Node6&#45;&gt;Node7 -->
<g id="edge6" class="edge"><title>Node6&#45;&gt;Node7</title>
<path fill="none" stroke="midnightblue" d="M348.095,-83.5C356.321,-83.5 364.856,-83.5 373.259,-83.5"/>
<polygon fill="midnightblue" stroke="midnightblue" points="373.412,-87.0001 383.412,-83.5 373.412,-80.0001 373.412,-87.0001"/>
</g>
<!-- Node8 -->
<g id="node8" class="node"><title>Node8</title>
<g id="a_node8"><a xlink:href="$print__vprintf_8cpp.html#a473b9349f4b086b552a21eb8fe057016" xlink:title="print_vprintf">
<polygon fill="white" stroke="black" points="533.298,-74.5 533.298,-92.5 601.544,-92.5 601.544,-74.5 533.298,-74.5"/>
<text text-anchor="middle" x="567.421" y="-80.5" font-family="Helvetica,sans-Serif" font-size="10.00">print_vprintf</text>
</a>
</g>
</g>
<!-- Node7&#45;&gt;Node8 -->
<g id="edge7" class="edge"><title>Node7&#45;&gt;Node8</title>
<path fill="none" stroke="midnightblue" d="M497.376,-83.5C505.965,-83.5 514.72,-83.5 522.985,-83.5"/>
<polygon fill="midnightblue" stroke="midnightblue" points="523.141,-87.0001 533.141,-83.5 523.141,-80.0001 523.141,-87.0001"/>
</g>
<!-- Node9 -->
<g id="node9" class="node"><title>Node9</title>
<g id="a_node9"><a xlink:href="$classAP__HAL_1_1Print.html#acc65391952a43334f8f5c9bef341f501" xlink:title="AP_HAL::Print::write">
<polygon fill="white" stroke="black" points="637.544,-148.5 637.544,-166.5 744.687,-166.5 744.687,-148.5 637.544,-148.5"/>
<text text-anchor="middle" x="691.115" y="-154.5" font-family="Helvetica,sans-Serif" font-size="10.00">AP_HAL::Print::write</text>
</a>
</g>
</g>
<!-- Node8&#45;&gt;Node9 -->
<g id="edge8" class="edge"><title>Node8&#45;&gt;Node9</title>
<path fill="none" stroke="midnightblue" d="M577.485,-92.6327C590.007,-104.806 613.76,-126.34 637.544,-139.5 641.006,-141.416 644.708,-143.18 648.485,-144.791"/>
<polygon fill="midnightblue" stroke="midnightblue" points="647.343,-148.103 657.931,-148.483 649.891,-141.583 647.343,-148.103"/>
</g>
<!-- Node10 -->
<g id="node10" class="node"><title>Node10</title>
<g id="a_node10"><a xlink:href="$ftoa__engine_8cpp.html#a1c28234da8f20b43c85890d4bb452947" xlink:title="ftoa_engine">
<polygon fill="white" stroke="black" points="656.98,-111.5 656.98,-129.5 725.25,-129.5 725.25,-111.5 656.98,-111.5"/>
<text text-anchor="middle" x="691.115" y="-117.5" font-family="Helvetica,sans-Serif" font-size="10.00">ftoa_engine</text>
</a>
</g>
</g>
<!-- Node8&#45;&gt;Node10 -->
<g id="edge9" class="edge"><title>Node8&#45;&gt;Node10</title>
<path fill="none" stroke="midnightblue" d="M598.191,-92.5512C613.955,-97.3442 633.523,-103.294 650.549,-108.47"/>
<polygon fill="midnightblue" stroke="midnightblue" points="649.645,-111.854 660.231,-111.414 651.682,-105.156 649.645,-111.854"/>
</g>
<!-- Node11 -->
<g id="node11" class="node"><title>Node11</title>
<g id="a_node11"><a xlink:href="$AP__Progmem_8h.html#a1514e0408e036062b4af844baaf567da" xlink:title="pgm_read_byte">
<polygon fill="white" stroke="black" points="648.369,-74.5 648.369,-92.5 733.861,-92.5 733.861,-74.5 648.369,-74.5"/>
<text text-anchor="middle" x="691.115" y="-80.5" font-family="Helvetica,sans-Serif" font-size="10.00">pgm_read_byte</text>
</a>
</g>
</g>
<!-- Node8&#45;&gt;Node11 -->
<g id="edge10" class="edge"><title>Node8&#45;&gt;Node11</title>
<path fill="none" stroke="midnightblue" d="M601.674,-83.5C612.89,-83.5 625.693,-83.5 638.008,-83.5"/>
<polygon fill="midnightblue" stroke="midnightblue" points="638.192,-87.0001 648.192,-83.5 638.192,-80.0001 638.192,-87.0001"/>
</g>
<!-- Node12 -->
<g id="node12" class="node"><title>Node12</title>
<g id="a_node12"><a xlink:href="$utoa__invert_8cpp.html#a34926f552460b47c414ec4d83b32815c" xlink:title="ulltoa_invert">
<polygon fill="white" stroke="black" points="656.155,-37.5 656.155,-55.5 726.076,-55.5 726.076,-37.5 656.155,-37.5"/>
<text text-anchor="middle" x="691.115" y="-43.5" font-family="Helvetica,sans-Serif" font-size="10.00">ulltoa_invert</text>
</a>
</g>
</g>
<!-- Node8&#45;&gt;Node12 -->
<g id="edge11" class="edge"><title>Node8&#45;&gt;Node12</title>
<path fill="none" stroke="midnightblue" d="M598.191,-74.4488C613.955,-69.6558 633.523,-63.7062 650.549,-58.5298"/>
<polygon fill="midnightblue" stroke="midnightblue" points="651.682,-61.8437 660.231,-55.586 649.645,-55.1464 651.682,-61.8437"/>
</g>
<!-- Node13 -->
<g id="node13" class="node"><title>Node13</title>
<g id="a_node13"><a xlink:href="$utoa__invert_8cpp.html#a5d99bba8e697c1e11da489d88fca8559" xlink:title="ultoa_invert">
<polygon fill="white" stroke="black" points="657.266,-0.5 657.266,-18.5 724.965,-18.5 724.965,-0.5 657.266,-0.5"/>
<text text-anchor="middle" x="691.115" y="-6.5" font-family="Helvetica,sans-Serif" font-size="10.00">ultoa_invert</text>
</a>
</g>
</g>
<!-- Node8&#45;&gt;Node13 -->
<g id="edge12" class="edge"><title>Node8&#45;&gt;Node13</title>
<path fill="none" stroke="midnightblue" d="M577.983,-74.1918C590.687,-62.2457 614.248,-41.514 637.544,-28.5 641.56,-26.2563 645.892,-24.192 650.284,-22.3176"/>
<polygon fill="midnightblue" stroke="midnightblue" points="651.883,-25.4496 659.898,-18.5217 649.312,-18.9387 651.883,-25.4496"/>
</g>
</g>
</svg>
