<?xml version="1.0" encoding="UTF-8" standalone="no"?>
<!DOCTYPE svg PUBLIC "-//W3C//DTD SVG 1.1//EN"
 "http://www.w3.org/Graphics/SVG/1.1/DTD/svg11.dtd">
<!-- Generated by graphviz version 2.38.0 (20140413.2041)
 -->
<!-- Title: check_result Pages: 1 -->
<svg width="432pt" height="140pt"
 viewBox="0.00 0.00 432.38 140.00" xmlns="http://www.w3.org/2000/svg" xmlns:xlink="http://www.w3.org/1999/xlink">
<g id="graph0" class="graph" transform="scale(1 1) rotate(0) translate(4 136)">
<title>check_result</title>
<polygon fill="white" stroke="none" points="-4,4 -4,-136 428.378,-136 428.378,4 -4,4"/>
<!-- Node1 -->
<g id="node1" class="node"><title>Node1</title>
<polygon fill="#bfbfbf" stroke="black" points="0,-37.5 0,-55.5 72.1377,-55.5 72.1377,-37.5 0,-37.5"/>
<text text-anchor="middle" x="36.0688" y="-43.5" font-family="Helvetica,sans-Serif" font-size="10.00">check_result</text>
</g>
<!-- Node2 -->
<g id="node2" class="node"><title>Node2</title>
<g id="a_node2"><a xlink:href="$eulers_8cpp.html#ada3aa00f3fc83688f3bb0c2c847b7e50" xlink:title="test_conversion">
<polygon fill="white" stroke="black" points="108.138,-75.5 108.138,-93.5 194.177,-93.5 194.177,-75.5 108.138,-75.5"/>
<text text-anchor="middle" x="151.157" y="-81.5" font-family="Helvetica,sans-Serif" font-size="10.00">test_conversion</text>
</a>
</g>
</g>
<!-- Node1&#45;&gt;Node2 -->
<g id="edge1" class="edge"><title>Node1&#45;&gt;Node2</title>
<path fill="none" stroke="midnightblue" d="M73.5334,-58.7528C89.6651,-64.1734 108.303,-70.436 123.157,-75.4275"/>
<polygon fill="midnightblue" stroke="midnightblue" points="74.4632,-55.373 63.8692,-55.5055 72.2335,-62.0084 74.4632,-55.373"/>
</g>
<!-- Node5 -->
<g id="node5" class="node"><title>Node5</title>
<g id="a_node5"><a xlink:href="$eulers_8cpp.html#ab0e4b7cf8126ff5efa48d6f91eaad6ea" xlink:title="test_euler">
<polygon fill="white" stroke="black" points="121.199,-37.5 121.199,-55.5 181.115,-55.5 181.115,-37.5 121.199,-37.5"/>
<text text-anchor="middle" x="151.157" y="-43.5" font-family="Helvetica,sans-Serif" font-size="10.00">test_euler</text>
</a>
</g>
</g>
<!-- Node1&#45;&gt;Node5 -->
<g id="edge5" class="edge"><title>Node1&#45;&gt;Node5</title>
<path fill="none" stroke="midnightblue" d="M82.4484,-46.5C95.4785,-46.5 109.332,-46.5 121.092,-46.5"/>
<polygon fill="midnightblue" stroke="midnightblue" points="82.2308,-43.0001 72.2308,-46.5 82.2308,-50.0001 82.2308,-43.0001"/>
</g>
<!-- Node7 -->
<g id="node7" class="node"><title>Node7</title>
<g id="a_node7"><a xlink:href="$eulers_8cpp.html#a288b88e3267221134f72a170d9895cef" xlink:title="test_quaternion">
<polygon fill="white" stroke="black" points="108.687,-0.5 108.687,-18.5 193.627,-18.5 193.627,-0.5 108.687,-0.5"/>
<text text-anchor="middle" x="151.157" y="-6.5" font-family="Helvetica,sans-Serif" font-size="10.00">test_quaternion</text>
</a>
</g>
</g>
<!-- Node1&#45;&gt;Node7 -->
<g id="edge8" class="edge"><title>Node1&#45;&gt;Node7</title>
<path fill="none" stroke="midnightblue" d="M74.6116,-34.2168C90.2112,-29.113 107.994,-23.2949 122.386,-18.586"/>
<polygon fill="midnightblue" stroke="midnightblue" points="73.1492,-31.0127 64.7334,-37.4488 75.326,-37.6656 73.1492,-31.0127"/>
</g>
<!-- Node3 -->
<g id="node3" class="node"><title>Node3</title>
<g id="a_node3"><a xlink:href="$eulers_8cpp.html#ac5851b63c32809e725e1fadbec137224" xlink:title="test_conversions">
<polygon fill="white" stroke="black" points="243.526,-113.5 243.526,-131.5 334.565,-131.5 334.565,-113.5 243.526,-113.5"/>
<text text-anchor="middle" x="289.046" y="-119.5" font-family="Helvetica,sans-Serif" font-size="10.00">test_conversions</text>
</a>
</g>
</g>
<!-- Node2&#45;&gt;Node3 -->
<g id="edge2" class="edge"><title>Node2&#45;&gt;Node3</title>
<path fill="none" stroke="midnightblue" d="M194.064,-96.2187C213.874,-101.758 237.163,-108.271 255.602,-113.427"/>
<polygon fill="midnightblue" stroke="midnightblue" points="194.934,-92.8279 184.361,-93.5055 193.049,-99.5693 194.934,-92.8279"/>
</g>
<!-- Node4 -->
<g id="node4" class="node"><title>Node4</title>
<g id="a_node4"><a xlink:href="$eulers_8cpp.html#a7dfd9b79bc5a37d7df40207afbc5431f" xlink:title="setup">
<polygon fill="white" stroke="black" points="383.915,-56.5 383.915,-74.5 424.378,-74.5 424.378,-56.5 383.915,-56.5"/>
<text text-anchor="middle" x="404.146" y="-62.5" font-family="Helvetica,sans-Serif" font-size="10.00">setup</text>
</a>
</g>
</g>
<!-- Node2&#45;&gt;Node4 -->
<g id="edge4" class="edge"><title>Node2&#45;&gt;Node4</title>
<path fill="none" stroke="midnightblue" d="M204.508,-80.537C260.316,-76.3123 345.773,-69.8432 383.772,-66.9667"/>
<polygon fill="midnightblue" stroke="midnightblue" points="204.158,-77.0534 194.45,-81.2984 204.686,-84.0335 204.158,-77.0534"/>
</g>
<!-- Node3&#45;&gt;Node4 -->
<g id="edge3" class="edge"><title>Node3&#45;&gt;Node4</title>
<path fill="none" stroke="midnightblue" d="M323.318,-109.672C331.467,-106.265 340.092,-102.433 347.915,-98.5 362.286,-91.275 377.965,-81.7367 388.934,-74.7736"/>
<polygon fill="midnightblue" stroke="midnightblue" points="321.983,-106.437 314.047,-113.456 324.628,-112.918 321.983,-106.437"/>
</g>
<!-- Node6 -->
<g id="node6" class="node"><title>Node6</title>
<g id="a_node6"><a xlink:href="$eulers_8cpp.html#aceb2646dd2a8910fd27813e20e13c6a4" xlink:title="test_matrix_eulers">
<polygon fill="white" stroke="black" points="240.196,-37.5 240.196,-55.5 337.896,-55.5 337.896,-37.5 240.196,-37.5"/>
<text text-anchor="middle" x="289.046" y="-43.5" font-family="Helvetica,sans-Serif" font-size="10.00">test_matrix_eulers</text>
</a>
</g>
</g>
<!-- Node5&#45;&gt;Node6 -->
<g id="edge6" class="edge"><title>Node5&#45;&gt;Node6</title>
<path fill="none" stroke="midnightblue" d="M191.386,-46.5C206.551,-46.5 224.056,-46.5 239.967,-46.5"/>
<polygon fill="midnightblue" stroke="midnightblue" points="191.309,-43.0001 181.309,-46.5 191.309,-50.0001 191.309,-43.0001"/>
</g>
<!-- Node6&#45;&gt;Node4 -->
<g id="edge7" class="edge"><title>Node6&#45;&gt;Node4</title>
<path fill="none" stroke="midnightblue" d="M347.916,-56.2217C360.905,-58.4037 373.8,-60.5701 383.86,-62.2601"/>
<polygon fill="midnightblue" stroke="midnightblue" points="348.452,-52.7629 338.011,-54.5577 347.293,-59.6661 348.452,-52.7629"/>
</g>
<!-- Node8 -->
<g id="node8" class="node"><title>Node8</title>
<g id="a_node8"><a xlink:href="$eulers_8cpp.html#a1e4ca41feae51e8f6dc923cde8d1ad39" xlink:title="test_quaternion_eulers">
<polygon fill="white" stroke="black" points="230.177,-0.5 230.177,-18.5 347.915,-18.5 347.915,-0.5 230.177,-0.5"/>
<text text-anchor="middle" x="289.046" y="-6.5" font-family="Helvetica,sans-Serif" font-size="10.00">test_quaternion_eulers</text>
</a>
</g>
</g>
<!-- Node7&#45;&gt;Node8 -->
<g id="edge9" class="edge"><title>Node7&#45;&gt;Node8</title>
<path fill="none" stroke="midnightblue" d="M203.805,-9.5C212.295,-9.5 221.145,-9.5 229.782,-9.5"/>
<polygon fill="midnightblue" stroke="midnightblue" points="203.667,-6.0001 193.667,-9.5 203.667,-13.0001 203.667,-6.0001"/>
</g>
<!-- Node8&#45;&gt;Node4 -->
<g id="edge10" class="edge"><title>Node8&#45;&gt;Node4</title>
<path fill="none" stroke="midnightblue" d="M334.461,-21.7973C339.081,-23.5237 343.644,-25.4259 347.915,-27.5 364.248,-35.4319 381.185,-47.8077 391.924,-56.2659"/>
<polygon fill="midnightblue" stroke="midnightblue" points="335.569,-18.477 324.974,-18.5017 333.272,-25.0894 335.569,-18.477"/>
</g>
</g>
</svg>
