<?xml version="1.0" encoding="UTF-8" standalone="no"?>
<!DOCTYPE svg PUBLIC "-//W3C//DTD SVG 1.1//EN"
 "http://www.w3.org/Graphics/SVG/1.1/DTD/svg11.dtd">
<!-- Generated by graphviz version 2.38.0 (20140413.2041)
 -->
<!-- Title: test_quaternion Pages: 1 -->
<svg width="828pt" height="320pt"
 viewBox="0.00 0.00 827.98 320.00" xmlns="http://www.w3.org/2000/svg" xmlns:xlink="http://www.w3.org/1999/xlink">
<g id="graph0" class="graph" transform="scale(1 1) rotate(0) translate(4 316)">
<title>test_quaternion</title>
<polygon fill="white" stroke="none" points="-4,4 -4,-316 823.979,-316 823.979,4 -4,4"/>
<!-- Node1 -->
<g id="node1" class="node"><title>Node1</title>
<polygon fill="#bfbfbf" stroke="black" points="0,-144.5 0,-162.5 84.9404,-162.5 84.9404,-144.5 0,-144.5"/>
<text text-anchor="middle" x="42.4702" y="-150.5" font-family="Helvetica,sans-Serif" font-size="10.00">test_quaternion</text>
</g>
<!-- Node2 -->
<g id="node2" class="node"><title>Node2</title>
<g id="a_node2"><a xlink:href="$classQuaternion.html#aff2d2d3d1c5937523df8357deae4eeab" xlink:title="Quaternion::from_euler">
<polygon fill="white" stroke="black" points="126.5,-257.5 126.5,-275.5 245.332,-275.5 245.332,-257.5 126.5,-257.5"/>
<text text-anchor="middle" x="185.916" y="-263.5" font-family="Helvetica,sans-Serif" font-size="10.00">Quaternion::from_euler</text>
</a>
</g>
</g>
<!-- Node1&#45;&gt;Node2 -->
<g id="edge1" class="edge"><title>Node1&#45;&gt;Node2</title>
<path fill="none" stroke="midnightblue" d="M48.3318,-162.648C58.9048,-181.645 85.8826,-225.507 120.94,-248.5 123.826,-250.392 126.91,-252.088 130.108,-253.608"/>
<polygon fill="midnightblue" stroke="midnightblue" points="128.769,-256.842 139.347,-257.44 131.45,-250.376 128.769,-256.842"/>
</g>
<!-- Node3 -->
<g id="node3" class="node"><title>Node3</title>
<g id="a_node3"><a xlink:href="$classQuaternion.html#ab3049efa36b211699ca03ea53970f0fd" xlink:title="Quaternion::to_euler">
<polygon fill="white" stroke="black" points="132.33,-220.5 132.33,-238.5 239.501,-238.5 239.501,-220.5 132.33,-220.5"/>
<text text-anchor="middle" x="185.916" y="-226.5" font-family="Helvetica,sans-Serif" font-size="10.00">Quaternion::to_euler</text>
</a>
</g>
</g>
<!-- Node1&#45;&gt;Node3 -->
<g id="edge2" class="edge"><title>Node1&#45;&gt;Node3</title>
<path fill="none" stroke="midnightblue" d="M55.0164,-162.506C69.7094,-173.664 96.1636,-192.757 120.94,-205.5 129.142,-209.718 138.262,-213.587 146.986,-216.931"/>
<polygon fill="midnightblue" stroke="midnightblue" points="146.005,-220.299 156.598,-220.473 148.425,-213.731 146.005,-220.299"/>
</g>
<!-- Node8 -->
<g id="node8" class="node"><title>Node8</title>
<g id="a_node8"><a xlink:href="$eulers_8cpp.html#a6bfa6320a080694c8cdf18de74004189" xlink:title="check_result">
<polygon fill="white" stroke="black" points="149.847,-107.5 149.847,-125.5 221.984,-125.5 221.984,-107.5 149.847,-107.5"/>
<text text-anchor="middle" x="185.916" y="-113.5" font-family="Helvetica,sans-Serif" font-size="10.00">check_result</text>
</a>
</g>
</g>
<!-- Node1&#45;&gt;Node8 -->
<g id="edge7" class="edge"><title>Node1&#45;&gt;Node8</title>
<path fill="none" stroke="midnightblue" d="M78.0716,-144.449C96.8225,-139.544 120.204,-133.428 140.309,-128.168"/>
<polygon fill="midnightblue" stroke="midnightblue" points="141.392,-131.503 150.181,-125.586 139.621,-124.731 141.392,-131.503"/>
</g>
<!-- Node18 -->
<g id="node18" class="node"><title>Node18</title>
<g id="a_node18"><a xlink:href="$classMatrix3.html#a62587bd216436f09f06b9e1330f84bc0" xlink:title="&#45;*&#45; tab&#45;width: 4; Mode: C++; c&#45;basic&#45;offset: 4; indent&#45;tabs&#45;mode: nil &#45;*&#45; ">
<polygon fill="white" stroke="black" points="134.847,-144.5 134.847,-162.5 236.984,-162.5 236.984,-144.5 134.847,-144.5"/>
<text text-anchor="middle" x="185.916" y="-150.5" font-family="Helvetica,sans-Serif" font-size="10.00">Matrix3::from_euler</text>
</a>
</g>
</g>
<!-- Node1&#45;&gt;Node18 -->
<g id="edge17" class="edge"><title>Node1&#45;&gt;Node18</title>
<path fill="none" stroke="midnightblue" d="M85.1434,-153.5C97.5465,-153.5 111.392,-153.5 124.727,-153.5"/>
<polygon fill="midnightblue" stroke="midnightblue" points="124.792,-157 134.792,-153.5 124.792,-150 124.792,-157"/>
</g>
<!-- Node19 -->
<g id="node19" class="node"><title>Node19</title>
<g id="a_node19"><a xlink:href="$classMatrix3.html#a893c6a712d52e47dbb7ed2d7a548046e" xlink:title="Matrix3::to_euler">
<polygon fill="white" stroke="black" points="309.691,-172.5 309.691,-190.5 400.168,-190.5 400.168,-172.5 309.691,-172.5"/>
<text text-anchor="middle" x="354.93" y="-178.5" font-family="Helvetica,sans-Serif" font-size="10.00">Matrix3::to_euler</text>
</a>
</g>
</g>
<!-- Node1&#45;&gt;Node19 -->
<g id="edge18" class="edge"><title>Node1&#45;&gt;Node19</title>
<path fill="none" stroke="midnightblue" d="M74.1046,-162.525C88.2344,-166.296 105.307,-170.304 120.94,-172.5 181.627,-181.025 252.019,-182.614 299.413,-182.49"/>
<polygon fill="midnightblue" stroke="midnightblue" points="299.48,-185.99 309.461,-182.437 299.443,-178.99 299.48,-185.99"/>
</g>
<!-- Node20 -->
<g id="node20" class="node"><title>Node20</title>
<g id="a_node20"><a xlink:href="$classQuaternion.html#a5ee01ee833114be6181887d0dcfb33b1" xlink:title="Quaternion::from_rotation\l_matrix">
<polygon fill="white" stroke="black" points="120.94,-60.5 120.94,-88.5 250.891,-88.5 250.891,-60.5 120.94,-60.5"/>
<text text-anchor="start" x="128.94" y="-76.5" font-family="Helvetica,sans-Serif" font-size="10.00">Quaternion::from_rotation</text>
<text text-anchor="middle" x="185.916" y="-66.5" font-family="Helvetica,sans-Serif" font-size="10.00">_matrix</text>
</a>
</g>
</g>
<!-- Node1&#45;&gt;Node20 -->
<g id="edge20" class="edge"><title>Node1&#45;&gt;Node20</title>
<path fill="none" stroke="midnightblue" d="M54.4213,-144.329C68.9122,-132.531 95.5919,-111.96 120.94,-98.5 124.878,-96.4094 129.037,-94.4154 133.269,-92.5348"/>
<polygon fill="midnightblue" stroke="midnightblue" points="134.737,-95.7146 142.592,-88.6051 132.018,-89.2643 134.737,-95.7146"/>
</g>
<!-- Node21 -->
<g id="node21" class="node"><title>Node21</title>
<g id="a_node21"><a xlink:href="$classQuaternion.html#afb7132c9c69a984a40be950a17effeaa" xlink:title="&#45;*&#45; tab&#45;width: 4; Mode: C++; c&#45;basic&#45;offset: 4; indent&#45;tabs&#45;mode: nil &#45;*&#45; ">
<polygon fill="white" stroke="black" points="133.721,-13.5 133.721,-41.5 238.11,-41.5 238.11,-13.5 133.721,-13.5"/>
<text text-anchor="start" x="141.721" y="-29.5" font-family="Helvetica,sans-Serif" font-size="10.00">Quaternion::rotation</text>
<text text-anchor="middle" x="185.916" y="-19.5" font-family="Helvetica,sans-Serif" font-size="10.00">_matrix</text>
</a>
</g>
</g>
<!-- Node1&#45;&gt;Node21 -->
<g id="edge21" class="edge"><title>Node1&#45;&gt;Node21</title>
<path fill="none" stroke="midnightblue" d="M48.1601,-144.215C58.5958,-124.432 85.6267,-77.7963 120.94,-51.5 123.429,-49.6468 126.077,-47.9218 128.826,-46.3181"/>
<polygon fill="midnightblue" stroke="midnightblue" points="130.626,-49.3267 137.876,-41.6007 127.39,-43.1193 130.626,-49.3267"/>
</g>
<!-- Node4 -->
<g id="node4" class="node"><title>Node4</title>
<g id="a_node4"><a xlink:href="$classQuaternion.html#a9ae6c42349ddc744022a4a1cf7868eb0" xlink:title="Quaternion::get_euler_roll">
<polygon fill="white" stroke="black" points="289.115,-293.5 289.115,-311.5 420.745,-311.5 420.745,-293.5 289.115,-293.5"/>
<text text-anchor="middle" x="354.93" y="-299.5" font-family="Helvetica,sans-Serif" font-size="10.00">Quaternion::get_euler_roll</text>
</a>
</g>
</g>
<!-- Node3&#45;&gt;Node4 -->
<g id="edge3" class="edge"><title>Node3&#45;&gt;Node4</title>
<path fill="none" stroke="midnightblue" d="M228.457,-238.556C236.208,-241.144 244.022,-244.41 250.891,-248.5 270.333,-260.076 267.298,-273.181 286.891,-284.5 290.372,-286.511 294.084,-288.303 297.908,-289.9"/>
<polygon fill="midnightblue" stroke="midnightblue" points="296.982,-293.29 307.575,-293.48 299.413,-286.725 296.982,-293.29"/>
</g>
<!-- Node5 -->
<g id="node5" class="node"><title>Node5</title>
<g id="a_node5"><a xlink:href="$classQuaternion.html#a0bfe50c332309932cd833b83f6524e5f" xlink:title="Quaternion::get_euler\l_pitch">
<polygon fill="white" stroke="black" points="298.563,-246.5 298.563,-274.5 411.296,-274.5 411.296,-246.5 298.563,-246.5"/>
<text text-anchor="start" x="306.563" y="-262.5" font-family="Helvetica,sans-Serif" font-size="10.00">Quaternion::get_euler</text>
<text text-anchor="middle" x="354.93" y="-252.5" font-family="Helvetica,sans-Serif" font-size="10.00">_pitch</text>
</a>
</g>
</g>
<!-- Node3&#45;&gt;Node5 -->
<g id="edge4" class="edge"><title>Node3&#45;&gt;Node5</title>
<path fill="none" stroke="midnightblue" d="M235.672,-238.55C252.091,-241.597 270.692,-245.05 288.199,-248.3"/>
<polygon fill="midnightblue" stroke="midnightblue" points="287.885,-251.801 298.356,-250.185 289.163,-244.919 287.885,-251.801"/>
</g>
<!-- Node7 -->
<g id="node7" class="node"><title>Node7</title>
<g id="a_node7"><a xlink:href="$classQuaternion.html#a35c2a1030832728574363ed8655da625" xlink:title="Quaternion::get_euler_yaw">
<polygon fill="white" stroke="black" points="286.891,-209.5 286.891,-227.5 422.969,-227.5 422.969,-209.5 286.891,-209.5"/>
<text text-anchor="middle" x="354.93" y="-215.5" font-family="Helvetica,sans-Serif" font-size="10.00">Quaternion::get_euler_yaw</text>
</a>
</g>
</g>
<!-- Node3&#45;&gt;Node7 -->
<g id="edge6" class="edge"><title>Node3&#45;&gt;Node7</title>
<path fill="none" stroke="midnightblue" d="M239.76,-226.02C251.407,-225.252 263.978,-224.424 276.374,-223.608"/>
<polygon fill="midnightblue" stroke="midnightblue" points="276.972,-227.076 286.721,-222.927 276.512,-220.091 276.972,-227.076"/>
</g>
<!-- Node6 -->
<g id="node6" class="node"><title>Node6</title>
<g id="a_node6"><a xlink:href="$AP__Math_8cpp.html#a2706fd969ad73bc8ef977d964c04f4a3" xlink:title="safe_asin">
<polygon fill="white" stroke="black" points="486.376,-211.5 486.376,-229.5 545.184,-229.5 545.184,-211.5 486.376,-211.5"/>
<text text-anchor="middle" x="515.78" y="-217.5" font-family="Helvetica,sans-Serif" font-size="10.00">safe_asin</text>
</a>
</g>
</g>
<!-- Node5&#45;&gt;Node6 -->
<g id="edge5" class="edge"><title>Node5&#45;&gt;Node6</title>
<path fill="none" stroke="midnightblue" d="M411.488,-246.51C432.973,-241.1 457.026,-235.043 476.513,-230.136"/>
<polygon fill="midnightblue" stroke="midnightblue" points="477.406,-233.52 486.249,-227.684 475.697,-226.732 477.406,-233.52"/>
</g>
<!-- Node9 -->
<g id="node9" class="node"><title>Node9</title>
<g id="a_node9"><a xlink:href="$classAP__HAL_1_1UARTDriver.html#a65c7824b8877f7a2f79365c8ffae8f56" xlink:title="AP_HAL::UARTDriver\l::printf">
<polygon fill="white" stroke="black" points="298.119,-69.5 298.119,-97.5 411.741,-97.5 411.741,-69.5 298.119,-69.5"/>
<text text-anchor="start" x="306.119" y="-85.5" font-family="Helvetica,sans-Serif" font-size="10.00">AP_HAL::UARTDriver</text>
<text text-anchor="middle" x="354.93" y="-75.5" font-family="Helvetica,sans-Serif" font-size="10.00">::printf</text>
</a>
</g>
</g>
<!-- Node8&#45;&gt;Node9 -->
<g id="edge8" class="edge"><title>Node8&#45;&gt;Node9</title>
<path fill="none" stroke="midnightblue" d="M222.335,-109.502C241.436,-105.727 265.628,-100.947 288.046,-96.5179"/>
<polygon fill="midnightblue" stroke="midnightblue" points="288.727,-99.951 297.859,-94.5789 287.37,-93.0838 288.727,-99.951"/>
</g>
<!-- Node17 -->
<g id="node17" class="node"><title>Node17</title>
<g id="a_node17"><a xlink:href="$eulers_8cpp.html#aa94c06a1eb86dc7dd817303e608203b6" xlink:title="rad_diff">
<polygon fill="white" stroke="black" points="330.34,-116.5 330.34,-134.5 379.519,-134.5 379.519,-116.5 330.34,-116.5"/>
<text text-anchor="middle" x="354.93" y="-122.5" font-family="Helvetica,sans-Serif" font-size="10.00">rad_diff</text>
</a>
</g>
</g>
<!-- Node8&#45;&gt;Node17 -->
<g id="edge16" class="edge"><title>Node8&#45;&gt;Node17</title>
<path fill="none" stroke="midnightblue" d="M222.335,-118.409C251.033,-119.955 291.225,-122.121 319.621,-123.651"/>
<polygon fill="midnightblue" stroke="midnightblue" points="319.705,-127.161 329.878,-124.204 320.081,-120.171 319.705,-127.161"/>
</g>
<!-- Node10 -->
<g id="node10" class="node"><title>Node10</title>
<g id="a_node10"><a xlink:href="$classAP__HAL_1_1UARTDriver.html#aa8abfb6d6641299472c29ac1edde559f" xlink:title="AP_HAL::UARTDriver\l::vprintf">
<polygon fill="white" stroke="black" points="458.969,-69.5 458.969,-97.5 572.591,-97.5 572.591,-69.5 458.969,-69.5"/>
<text text-anchor="start" x="466.969" y="-85.5" font-family="Helvetica,sans-Serif" font-size="10.00">AP_HAL::UARTDriver</text>
<text text-anchor="middle" x="515.78" y="-75.5" font-family="Helvetica,sans-Serif" font-size="10.00">::vprintf</text>
</a>
</g>
</g>
<!-- Node9&#45;&gt;Node10 -->
<g id="edge9" class="edge"><title>Node9&#45;&gt;Node10</title>
<path fill="none" stroke="midnightblue" d="M411.934,-83.5C423.798,-83.5 436.427,-83.5 448.626,-83.5"/>
<polygon fill="midnightblue" stroke="midnightblue" points="448.746,-87.0001 458.746,-83.5 448.745,-80.0001 448.746,-87.0001"/>
</g>
<!-- Node11 -->
<g id="node11" class="node"><title>Node11</title>
<g id="a_node11"><a xlink:href="$print__vprintf_8cpp.html#a473b9349f4b086b552a21eb8fe057016" xlink:title="print_vprintf">
<polygon fill="white" stroke="black" points="608.591,-74.5 608.591,-92.5 676.837,-92.5 676.837,-74.5 608.591,-74.5"/>
<text text-anchor="middle" x="642.714" y="-80.5" font-family="Helvetica,sans-Serif" font-size="10.00">print_vprintf</text>
</a>
</g>
</g>
<!-- Node10&#45;&gt;Node11 -->
<g id="edge10" class="edge"><title>Node10&#45;&gt;Node11</title>
<path fill="none" stroke="midnightblue" d="M572.669,-83.5C581.258,-83.5 590.013,-83.5 598.278,-83.5"/>
<polygon fill="midnightblue" stroke="midnightblue" points="598.434,-87.0001 608.434,-83.5 598.434,-80.0001 598.434,-87.0001"/>
</g>
<!-- Node12 -->
<g id="node12" class="node"><title>Node12</title>
<g id="a_node12"><a xlink:href="$classAP__HAL_1_1Print.html#acc65391952a43334f8f5c9bef341f501" xlink:title="AP_HAL::Print::write">
<polygon fill="white" stroke="black" points="712.837,-148.5 712.837,-166.5 819.979,-166.5 819.979,-148.5 712.837,-148.5"/>
<text text-anchor="middle" x="766.408" y="-154.5" font-family="Helvetica,sans-Serif" font-size="10.00">AP_HAL::Print::write</text>
</a>
</g>
</g>
<!-- Node11&#45;&gt;Node12 -->
<g id="edge11" class="edge"><title>Node11&#45;&gt;Node12</title>
<path fill="none" stroke="midnightblue" d="M652.778,-92.6327C665.3,-104.806 689.053,-126.34 712.837,-139.5 716.299,-141.416 720.001,-143.18 723.778,-144.791"/>
<polygon fill="midnightblue" stroke="midnightblue" points="722.636,-148.103 733.224,-148.483 725.184,-141.583 722.636,-148.103"/>
</g>
<!-- Node13 -->
<g id="node13" class="node"><title>Node13</title>
<g id="a_node13"><a xlink:href="$ftoa__engine_8cpp.html#a1c28234da8f20b43c85890d4bb452947" xlink:title="ftoa_engine">
<polygon fill="white" stroke="black" points="732.273,-111.5 732.273,-129.5 800.543,-129.5 800.543,-111.5 732.273,-111.5"/>
<text text-anchor="middle" x="766.408" y="-117.5" font-family="Helvetica,sans-Serif" font-size="10.00">ftoa_engine</text>
</a>
</g>
</g>
<!-- Node11&#45;&gt;Node13 -->
<g id="edge12" class="edge"><title>Node11&#45;&gt;Node13</title>
<path fill="none" stroke="midnightblue" d="M673.484,-92.5512C689.248,-97.3442 708.816,-103.294 725.842,-108.47"/>
<polygon fill="midnightblue" stroke="midnightblue" points="724.938,-111.854 735.524,-111.414 726.975,-105.156 724.938,-111.854"/>
</g>
<!-- Node14 -->
<g id="node14" class="node"><title>Node14</title>
<g id="a_node14"><a xlink:href="$AP__Progmem_8h.html#a1514e0408e036062b4af844baaf567da" xlink:title="pgm_read_byte">
<polygon fill="white" stroke="black" points="723.662,-74.5 723.662,-92.5 809.154,-92.5 809.154,-74.5 723.662,-74.5"/>
<text text-anchor="middle" x="766.408" y="-80.5" font-family="Helvetica,sans-Serif" font-size="10.00">pgm_read_byte</text>
</a>
</g>
</g>
<!-- Node11&#45;&gt;Node14 -->
<g id="edge13" class="edge"><title>Node11&#45;&gt;Node14</title>
<path fill="none" stroke="midnightblue" d="M676.967,-83.5C688.183,-83.5 700.986,-83.5 713.301,-83.5"/>
<polygon fill="midnightblue" stroke="midnightblue" points="713.485,-87.0001 723.485,-83.5 713.485,-80.0001 713.485,-87.0001"/>
</g>
<!-- Node15 -->
<g id="node15" class="node"><title>Node15</title>
<g id="a_node15"><a xlink:href="$utoa__invert_8cpp.html#a34926f552460b47c414ec4d83b32815c" xlink:title="ulltoa_invert">
<polygon fill="white" stroke="black" points="731.448,-37.5 731.448,-55.5 801.369,-55.5 801.369,-37.5 731.448,-37.5"/>
<text text-anchor="middle" x="766.408" y="-43.5" font-family="Helvetica,sans-Serif" font-size="10.00">ulltoa_invert</text>
</a>
</g>
</g>
<!-- Node11&#45;&gt;Node15 -->
<g id="edge14" class="edge"><title>Node11&#45;&gt;Node15</title>
<path fill="none" stroke="midnightblue" d="M673.484,-74.4488C689.248,-69.6558 708.816,-63.7062 725.842,-58.5298"/>
<polygon fill="midnightblue" stroke="midnightblue" points="726.975,-61.8437 735.524,-55.586 724.938,-55.1464 726.975,-61.8437"/>
</g>
<!-- Node16 -->
<g id="node16" class="node"><title>Node16</title>
<g id="a_node16"><a xlink:href="$utoa__invert_8cpp.html#a5d99bba8e697c1e11da489d88fca8559" xlink:title="ultoa_invert">
<polygon fill="white" stroke="black" points="732.559,-0.5 732.559,-18.5 800.258,-18.5 800.258,-0.5 732.559,-0.5"/>
<text text-anchor="middle" x="766.408" y="-6.5" font-family="Helvetica,sans-Serif" font-size="10.00">ultoa_invert</text>
</a>
</g>
</g>
<!-- Node11&#45;&gt;Node16 -->
<g id="edge15" class="edge"><title>Node11&#45;&gt;Node16</title>
<path fill="none" stroke="midnightblue" d="M653.276,-74.1918C665.98,-62.2457 689.541,-41.514 712.837,-28.5 716.853,-26.2563 721.185,-24.192 725.577,-22.3176"/>
<polygon fill="midnightblue" stroke="midnightblue" points="727.176,-25.4496 735.191,-18.5217 724.605,-18.9387 727.176,-25.4496"/>
</g>
<!-- Node19&#45;&gt;Node6 -->
<g id="edge19" class="edge"><title>Node19&#45;&gt;Node6</title>
<path fill="none" stroke="midnightblue" d="M392.772,-190.545C417.825,-196.696 450.901,-204.817 476.295,-211.051"/>
<polygon fill="midnightblue" stroke="midnightblue" points="475.766,-214.525 486.312,-213.511 477.435,-207.727 475.766,-214.525"/>
</g>
</g>
</svg>
