<?xml version="1.0" encoding="UTF-8" standalone="no"?>
<!DOCTYPE svg PUBLIC "-//W3C//DTD SVG 1.1//EN"
 "http://www.w3.org/Graphics/SVG/1.1/DTD/svg11.dtd">
<!-- Generated by graphviz version 2.38.0 (20140413.2041)
 -->
<!-- Title: test_matrix_eulers Pages: 1 -->
<svg width="951pt" height="195pt"
 viewBox="0.00 0.00 950.86 195.35" xmlns="http://www.w3.org/2000/svg" xmlns:xlink="http://www.w3.org/1999/xlink">
<g id="graph0" class="graph" transform="scale(1 1) rotate(0) translate(4 191.35)">
<title>test_matrix_eulers</title>
<polygon fill="white" stroke="none" points="-4,4 -4,-191.35 946.863,-191.35 946.863,4 -4,4"/>
<!-- Node1 -->
<g id="node1" class="node"><title>Node1</title>
<polygon fill="#bfbfbf" stroke="black" points="0,-136.5 0,-154.5 97.6992,-154.5 97.6992,-136.5 0,-136.5"/>
<text text-anchor="middle" x="48.8496" y="-142.5" font-family="Helvetica,sans-Serif" font-size="10.00">test_matrix_eulers</text>
</g>
<!-- Node2 -->
<g id="node2" class="node"><title>Node2</title>
<g id="a_node2"><a xlink:href="$classAP__HAL_1_1Print.html#ad337ce3f7977411b7d34d47a51e5737e" xlink:title="AP_HAL::Print::println">
<polygon fill="white" stroke="black" points="133.699,-155.5 133.699,-173.5 246.965,-173.5 246.965,-155.5 133.699,-155.5"/>
<text text-anchor="middle" x="190.332" y="-161.5" font-family="Helvetica,sans-Serif" font-size="10.00">AP_HAL::Print::println</text>
</a>
</g>
</g>
<!-- Node1&#45;&gt;Node2 -->
<g id="edge1" class="edge"><title>Node1&#45;&gt;Node2</title>
<path fill="none" stroke="midnightblue" d="M97.8515,-152.039C106.121,-153.165 114.843,-154.353 123.486,-155.531"/>
<polygon fill="midnightblue" stroke="midnightblue" points="123.182,-159.021 133.563,-156.903 124.127,-152.085 123.182,-159.021"/>
</g>
<!-- Node6 -->
<g id="node6" class="node"><title>Node6</title>
<g id="a_node6"><a xlink:href="$eulers_8cpp.html#ab0e4b7cf8126ff5efa48d6f91eaad6ea" xlink:title="test_euler">
<polygon fill="white" stroke="black" points="160.374,-99.5 160.374,-117.5 220.29,-117.5 220.29,-99.5 160.374,-99.5"/>
<text text-anchor="middle" x="190.332" y="-105.5" font-family="Helvetica,sans-Serif" font-size="10.00">test_euler</text>
</a>
</g>
</g>
<!-- Node1&#45;&gt;Node6 -->
<g id="edge6" class="edge"><title>Node1&#45;&gt;Node6</title>
<path fill="none" stroke="midnightblue" d="M83.9708,-136.449C104.071,-131.117 129.566,-124.354 150.443,-118.816"/>
<polygon fill="midnightblue" stroke="midnightblue" points="151.508,-122.155 160.276,-116.208 149.713,-115.389 151.508,-122.155"/>
</g>
<!-- Node3 -->
<g id="node3" class="node"><title>Node3</title>
<g id="a_node3"><a xlink:href="$classAP__HAL_1_1Print.html#acfe80773011eb17dfb52c2fba517a093" xlink:title="AP_HAL::Print::print">
<polygon fill="white" stroke="black" points="436.3,-155.5 436.3,-173.5 541.783,-173.5 541.783,-155.5 436.3,-155.5"/>
<text text-anchor="middle" x="489.042" y="-161.5" font-family="Helvetica,sans-Serif" font-size="10.00">AP_HAL::Print::print</text>
</a>
</g>
</g>
<!-- Node2&#45;&gt;Node3 -->
<g id="edge2" class="edge"><title>Node2&#45;&gt;Node3</title>
<path fill="none" stroke="midnightblue" d="M226.315,-173.506C243.29,-177.425 264.055,-181.56 282.965,-183.5 333.042,-188.637 346.152,-188.627 396.23,-183.5 411.623,-181.924 428.244,-178.898 443.059,-175.717"/>
<polygon fill="midnightblue" stroke="midnightblue" points="443.989,-179.096 452.989,-173.506 442.467,-172.263 443.989,-179.096"/>
</g>
<!-- Node5 -->
<g id="node5" class="node"><title>Node5</title>
<g id="a_node5"><a xlink:href="$classAP__HAL_1_1Print.html#a169b128f9e22f0c15883768f580541a2" xlink:title="AP_HAL::Print::println">
<polygon fill="white" stroke="black" points="282.965,-155.5 282.965,-173.5 396.23,-173.5 396.23,-155.5 282.965,-155.5"/>
<text text-anchor="middle" x="339.598" y="-161.5" font-family="Helvetica,sans-Serif" font-size="10.00">AP_HAL::Print::println</text>
</a>
</g>
</g>
<!-- Node2&#45;&gt;Node5 -->
<g id="edge4" class="edge"><title>Node2&#45;&gt;Node5</title>
<path fill="none" stroke="midnightblue" d="M247.007,-164.5C255.437,-164.5 264.202,-164.5 272.821,-164.5"/>
<polygon fill="midnightblue" stroke="midnightblue" points="272.844,-168 282.844,-164.5 272.844,-161 272.844,-168"/>
</g>
<!-- Node4 -->
<g id="node4" class="node"><title>Node4</title>
<g id="a_node4"><a xlink:href="$classAP__HAL_1_1Print.html#acc65391952a43334f8f5c9bef341f501" xlink:title="AP_HAL::Print::write">
<polygon fill="white" stroke="black" points="835.721,-149.5 835.721,-167.5 942.863,-167.5 942.863,-149.5 835.721,-149.5"/>
<text text-anchor="middle" x="889.292" y="-155.5" font-family="Helvetica,sans-Serif" font-size="10.00">AP_HAL::Print::write</text>
</a>
</g>
</g>
<!-- Node3&#45;&gt;Node4 -->
<g id="edge3" class="edge"><title>Node3&#45;&gt;Node4</title>
<path fill="none" stroke="midnightblue" d="M542.106,-163.716C614.949,-162.618 747.115,-160.627 825.376,-159.448"/>
<polygon fill="midnightblue" stroke="midnightblue" points="825.635,-162.944 835.581,-159.294 825.529,-155.945 825.635,-162.944"/>
</g>
<!-- Node5&#45;&gt;Node3 -->
<g id="edge5" class="edge"><title>Node5&#45;&gt;Node3</title>
<path fill="none" stroke="midnightblue" d="M396.34,-164.5C406.024,-164.5 416.149,-164.5 425.989,-164.5"/>
<polygon fill="midnightblue" stroke="midnightblue" points="426.11,-168 436.11,-164.5 426.11,-161 426.11,-168"/>
</g>
<!-- Node7 -->
<g id="node7" class="node"><title>Node7</title>
<g id="a_node7"><a xlink:href="$classMatrix3.html#a62587bd216436f09f06b9e1330f84bc0" xlink:title="&#45;*&#45; tab&#45;width: 4; Mode: C++; c&#45;basic&#45;offset: 4; indent&#45;tabs&#45;mode: nil &#45;*&#45; ">
<polygon fill="white" stroke="black" points="288.529,-118.5 288.529,-136.5 390.667,-136.5 390.667,-118.5 288.529,-118.5"/>
<text text-anchor="middle" x="339.598" y="-124.5" font-family="Helvetica,sans-Serif" font-size="10.00">Matrix3::from_euler</text>
</a>
</g>
</g>
<!-- Node6&#45;&gt;Node7 -->
<g id="edge7" class="edge"><title>Node6&#45;&gt;Node7</title>
<path fill="none" stroke="midnightblue" d="M220.427,-112.254C236.992,-114.391 258.373,-117.15 278.386,-119.732"/>
<polygon fill="midnightblue" stroke="midnightblue" points="278.016,-123.213 288.382,-121.021 278.912,-116.27 278.016,-123.213"/>
</g>
<!-- Node8 -->
<g id="node8" class="node"><title>Node8</title>
<g id="a_node8"><a xlink:href="$classMatrix3.html#a893c6a712d52e47dbb7ed2d7a548046e" xlink:title="Matrix3::to_euler">
<polygon fill="white" stroke="black" points="294.359,-81.5 294.359,-99.5 384.836,-99.5 384.836,-81.5 294.359,-81.5"/>
<text text-anchor="middle" x="339.598" y="-87.5" font-family="Helvetica,sans-Serif" font-size="10.00">Matrix3::to_euler</text>
</a>
</g>
</g>
<!-- Node6&#45;&gt;Node8 -->
<g id="edge8" class="edge"><title>Node6&#45;&gt;Node8</title>
<path fill="none" stroke="midnightblue" d="M220.427,-104.944C238.59,-102.724 262.545,-99.7958 284.136,-97.1568"/>
<polygon fill="midnightblue" stroke="midnightblue" points="284.682,-100.616 294.184,-95.9286 283.833,-93.6678 284.682,-100.616"/>
</g>
<!-- Node10 -->
<g id="node10" class="node"><title>Node10</title>
<g id="a_node10"><a xlink:href="$eulers_8cpp.html#a6bfa6320a080694c8cdf18de74004189" xlink:title="check_result">
<polygon fill="white" stroke="black" points="303.529,-44.5 303.529,-62.5 375.667,-62.5 375.667,-44.5 303.529,-44.5"/>
<text text-anchor="middle" x="339.598" y="-50.5" font-family="Helvetica,sans-Serif" font-size="10.00">check_result</text>
</a>
</g>
</g>
<!-- Node6&#45;&gt;Node10 -->
<g id="edge10" class="edge"><title>Node6&#45;&gt;Node10</title>
<path fill="none" stroke="midnightblue" d="M212.643,-99.3955C231.11,-91.6268 258.615,-80.3428 282.965,-71.5 288.272,-69.5725 293.9,-67.6329 299.458,-65.7773"/>
<polygon fill="midnightblue" stroke="midnightblue" points="300.892,-68.9906 309.303,-62.5489 298.71,-62.3391 300.892,-68.9906"/>
</g>
<!-- Node9 -->
<g id="node9" class="node"><title>Node9</title>
<g id="a_node9"><a xlink:href="$AP__Math_8cpp.html#a2706fd969ad73bc8ef977d964c04f4a3" xlink:title="safe_asin">
<polygon fill="white" stroke="black" points="459.638,-102.5 459.638,-120.5 518.445,-120.5 518.445,-102.5 459.638,-102.5"/>
<text text-anchor="middle" x="489.042" y="-108.5" font-family="Helvetica,sans-Serif" font-size="10.00">safe_asin</text>
</a>
</g>
</g>
<!-- Node8&#45;&gt;Node9 -->
<g id="edge9" class="edge"><title>Node8&#45;&gt;Node9</title>
<path fill="none" stroke="midnightblue" d="M385.236,-96.8577C405.64,-99.7638 429.585,-103.174 449.229,-105.972"/>
<polygon fill="midnightblue" stroke="midnightblue" points="448.965,-109.47 459.359,-107.415 449.952,-102.54 448.965,-109.47"/>
</g>
<!-- Node11 -->
<g id="node11" class="node"><title>Node11</title>
<g id="a_node11"><a xlink:href="$classAP__HAL_1_1UARTDriver.html#a65c7824b8877f7a2f79365c8ffae8f56" xlink:title="AP_HAL::UARTDriver\l::printf">
<polygon fill="white" stroke="black" points="432.23,-55.5 432.23,-83.5 545.853,-83.5 545.853,-55.5 432.23,-55.5"/>
<text text-anchor="start" x="440.23" y="-71.5" font-family="Helvetica,sans-Serif" font-size="10.00">AP_HAL::UARTDriver</text>
<text text-anchor="middle" x="489.042" y="-61.5" font-family="Helvetica,sans-Serif" font-size="10.00">::printf</text>
</a>
</g>
</g>
<!-- Node10&#45;&gt;Node11 -->
<g id="edge11" class="edge"><title>Node10&#45;&gt;Node11</title>
<path fill="none" stroke="midnightblue" d="M375.914,-57.3324C389.682,-58.8264 405.929,-60.5895 421.718,-62.3029"/>
<polygon fill="midnightblue" stroke="midnightblue" points="421.679,-65.819 431.998,-63.4184 422.434,-58.8599 421.679,-65.819"/>
</g>
<!-- Node18 -->
<g id="node18" class="node"><title>Node18</title>
<g id="a_node18"><a xlink:href="$eulers_8cpp.html#aa94c06a1eb86dc7dd817303e608203b6" xlink:title="rad_diff">
<polygon fill="white" stroke="black" points="464.452,-18.5 464.452,-36.5 513.631,-36.5 513.631,-18.5 464.452,-18.5"/>
<text text-anchor="middle" x="489.042" y="-24.5" font-family="Helvetica,sans-Serif" font-size="10.00">rad_diff</text>
</a>
</g>
</g>
<!-- Node10&#45;&gt;Node18 -->
<g id="edge19" class="edge"><title>Node10&#45;&gt;Node18</title>
<path fill="none" stroke="midnightblue" d="M375.914,-47.2724C399.556,-43.1034 430.508,-37.6453 453.902,-33.5201"/>
<polygon fill="midnightblue" stroke="midnightblue" points="454.825,-36.9115 464.065,-31.728 453.609,-30.0178 454.825,-36.9115"/>
</g>
<!-- Node12 -->
<g id="node12" class="node"><title>Node12</title>
<g id="a_node12"><a xlink:href="$classAP__HAL_1_1UARTDriver.html#aa8abfb6d6641299472c29ac1edde559f" xlink:title="AP_HAL::UARTDriver\l::vprintf">
<polygon fill="white" stroke="black" points="581.853,-65.5 581.853,-93.5 695.475,-93.5 695.475,-65.5 581.853,-65.5"/>
<text text-anchor="start" x="589.853" y="-81.5" font-family="Helvetica,sans-Serif" font-size="10.00">AP_HAL::UARTDriver</text>
<text text-anchor="middle" x="638.664" y="-71.5" font-family="Helvetica,sans-Serif" font-size="10.00">::vprintf</text>
</a>
</g>
</g>
<!-- Node11&#45;&gt;Node12 -->
<g id="edge12" class="edge"><title>Node11&#45;&gt;Node12</title>
<path fill="none" stroke="midnightblue" d="M546.272,-73.3091C554.498,-73.8663 563.033,-74.4445 571.435,-75.0137"/>
<polygon fill="midnightblue" stroke="midnightblue" points="571.376,-78.5175 581.589,-75.7015 571.849,-71.5335 571.376,-78.5175"/>
</g>
<!-- Node13 -->
<g id="node13" class="node"><title>Node13</title>
<g id="a_node13"><a xlink:href="$print__vprintf_8cpp.html#a473b9349f4b086b552a21eb8fe057016" xlink:title="print_vprintf">
<polygon fill="white" stroke="black" points="731.475,-73.5 731.475,-91.5 799.721,-91.5 799.721,-73.5 731.475,-73.5"/>
<text text-anchor="middle" x="765.598" y="-79.5" font-family="Helvetica,sans-Serif" font-size="10.00">print_vprintf</text>
</a>
</g>
</g>
<!-- Node12&#45;&gt;Node13 -->
<g id="edge13" class="edge"><title>Node12&#45;&gt;Node13</title>
<path fill="none" stroke="midnightblue" d="M695.553,-80.8421C704.141,-81.0483 712.897,-81.2585 721.162,-81.457"/>
<polygon fill="midnightblue" stroke="midnightblue" points="721.236,-84.9597 731.318,-81.7009 721.405,-77.9617 721.236,-84.9597"/>
</g>
<!-- Node13&#45;&gt;Node4 -->
<g id="edge14" class="edge"><title>Node13&#45;&gt;Node4</title>
<path fill="none" stroke="midnightblue" d="M775.727,-91.516C788.325,-103.557 812.161,-124.941 835.721,-138.5 840.208,-141.082 845.091,-143.453 850.014,-145.588"/>
<polygon fill="midnightblue" stroke="midnightblue" points="848.853,-148.894 859.436,-149.4 851.478,-142.405 848.853,-148.894"/>
</g>
<!-- Node14 -->
<g id="node14" class="node"><title>Node14</title>
<g id="a_node14"><a xlink:href="$ftoa__engine_8cpp.html#a1c28234da8f20b43c85890d4bb452947" xlink:title="ftoa_engine">
<polygon fill="white" stroke="black" points="855.157,-111.5 855.157,-129.5 923.427,-129.5 923.427,-111.5 855.157,-111.5"/>
<text text-anchor="middle" x="889.292" y="-117.5" font-family="Helvetica,sans-Serif" font-size="10.00">ftoa_engine</text>
</a>
</g>
</g>
<!-- Node13&#45;&gt;Node14 -->
<g id="edge15" class="edge"><title>Node13&#45;&gt;Node14</title>
<path fill="none" stroke="midnightblue" d="M795.438,-91.5055C811.536,-96.5325 831.814,-102.864 849.31,-108.328"/>
<polygon fill="midnightblue" stroke="midnightblue" points="848.649,-111.788 859.237,-111.427 850.735,-105.106 848.649,-111.788"/>
</g>
<!-- Node15 -->
<g id="node15" class="node"><title>Node15</title>
<g id="a_node15"><a xlink:href="$AP__Progmem_8h.html#a1514e0408e036062b4af844baaf567da" xlink:title="pgm_read_byte">
<polygon fill="white" stroke="black" points="846.546,-74.5 846.546,-92.5 932.038,-92.5 932.038,-74.5 846.546,-74.5"/>
<text text-anchor="middle" x="889.292" y="-80.5" font-family="Helvetica,sans-Serif" font-size="10.00">pgm_read_byte</text>
</a>
</g>
</g>
<!-- Node13&#45;&gt;Node15 -->
<g id="edge16" class="edge"><title>Node13&#45;&gt;Node15</title>
<path fill="none" stroke="midnightblue" d="M799.851,-82.7733C811.067,-82.8654 823.87,-82.9706 836.185,-83.0718"/>
<polygon fill="midnightblue" stroke="midnightblue" points="836.341,-86.5731 846.369,-83.1555 836.398,-79.5734 836.341,-86.5731"/>
</g>
<!-- Node16 -->
<g id="node16" class="node"><title>Node16</title>
<g id="a_node16"><a xlink:href="$utoa__invert_8cpp.html#a34926f552460b47c414ec4d83b32815c" xlink:title="ulltoa_invert">
<polygon fill="white" stroke="black" points="854.332,-37.5 854.332,-55.5 924.252,-55.5 924.252,-37.5 854.332,-37.5"/>
<text text-anchor="middle" x="889.292" y="-43.5" font-family="Helvetica,sans-Serif" font-size="10.00">ulltoa_invert</text>
</a>
</g>
</g>
<!-- Node13&#45;&gt;Node16 -->
<g id="edge17" class="edge"><title>Node13&#45;&gt;Node16</title>
<path fill="none" stroke="midnightblue" d="M797.306,-73.4157C812.583,-68.8963 831.252,-63.3738 847.694,-58.5099"/>
<polygon fill="midnightblue" stroke="midnightblue" points="848.997,-61.7744 857.593,-55.5814 847.011,-55.062 848.997,-61.7744"/>
</g>
<!-- Node17 -->
<g id="node17" class="node"><title>Node17</title>
<g id="a_node17"><a xlink:href="$utoa__invert_8cpp.html#a5d99bba8e697c1e11da489d88fca8559" xlink:title="ultoa_invert">
<polygon fill="white" stroke="black" points="855.442,-0.5 855.442,-18.5 923.142,-18.5 923.142,-0.5 855.442,-0.5"/>
<text text-anchor="middle" x="889.292" y="-6.5" font-family="Helvetica,sans-Serif" font-size="10.00">ultoa_invert</text>
</a>
</g>
</g>
<!-- Node13&#45;&gt;Node17 -->
<g id="edge18" class="edge"><title>Node13&#45;&gt;Node17</title>
<path fill="none" stroke="midnightblue" d="M776.126,-73.1309C788.794,-61.1191 812.316,-40.3164 835.721,-27.5 839.191,-25.5996 842.899,-23.846 846.679,-22.2411"/>
<polygon fill="midnightblue" stroke="midnightblue" points="848.084,-25.4504 856.131,-18.5588 845.542,-18.9279 848.084,-25.4504"/>
</g>
</g>
</svg>
