<?xml version="1.0" encoding="UTF-8" standalone="no"?>
<!DOCTYPE svg PUBLIC "-//W3C//DTD SVG 1.1//EN"
 "http://www.w3.org/Graphics/SVG/1.1/DTD/svg11.dtd">
<!-- Generated by graphviz version 2.38.0 (20140413.2041)
 -->
<!-- Title: test_quaternion_eulers Pages: 1 -->
<svg width="1010pt" height="349pt"
 viewBox="0.00 0.00 1010.04 348.76" xmlns="http://www.w3.org/2000/svg" xmlns:xlink="http://www.w3.org/1999/xlink">
<g id="graph0" class="graph" transform="scale(1 1) rotate(0) translate(4 344.762)">
<title>test_quaternion_eulers</title>
<polygon fill="white" stroke="none" points="-4,4 -4,-344.762 1006.04,-344.762 1006.04,4 -4,4"/>
<!-- Node1 -->
<g id="node1" class="node"><title>Node1</title>
<polygon fill="#bfbfbf" stroke="black" points="0,-242.5 0,-260.5 117.738,-260.5 117.738,-242.5 0,-242.5"/>
<text text-anchor="middle" x="58.8691" y="-248.5" font-family="Helvetica,sans-Serif" font-size="10.00">test_quaternion_eulers</text>
</g>
<!-- Node2 -->
<g id="node2" class="node"><title>Node2</title>
<g id="a_node2"><a xlink:href="$classAP__HAL_1_1Print.html#ad337ce3f7977411b7d34d47a51e5737e" xlink:title="AP_HAL::Print::println">
<polygon fill="white" stroke="black" points="153.738,-308.5 153.738,-326.5 267.004,-326.5 267.004,-308.5 153.738,-308.5"/>
<text text-anchor="middle" x="210.371" y="-314.5" font-family="Helvetica,sans-Serif" font-size="10.00">AP_HAL::Print::println</text>
</a>
</g>
</g>
<!-- Node1&#45;&gt;Node2 -->
<g id="edge1" class="edge"><title>Node1&#45;&gt;Node2</title>
<path fill="none" stroke="midnightblue" d="M80.3433,-260.539C105.921,-271.83 149.895,-291.243 179.299,-304.224"/>
<polygon fill="midnightblue" stroke="midnightblue" points="178.103,-307.522 188.664,-308.359 180.93,-301.118 178.103,-307.522"/>
</g>
<!-- Node6 -->
<g id="node6" class="node"><title>Node6</title>
<g id="a_node6"><a xlink:href="$eulers_8cpp.html#a288b88e3267221134f72a170d9895cef" xlink:title="test_quaternion">
<polygon fill="white" stroke="black" points="167.901,-158.5 167.901,-176.5 252.841,-176.5 252.841,-158.5 167.901,-158.5"/>
<text text-anchor="middle" x="210.371" y="-164.5" font-family="Helvetica,sans-Serif" font-size="10.00">test_quaternion</text>
</a>
</g>
</g>
<!-- Node1&#45;&gt;Node6 -->
<g id="edge6" class="edge"><title>Node1&#45;&gt;Node6</title>
<path fill="none" stroke="midnightblue" d="M76.1531,-242.351C102.215,-227.707 153.486,-198.9 184.264,-181.607"/>
<polygon fill="midnightblue" stroke="midnightblue" points="186.104,-184.588 193.107,-176.638 182.675,-178.485 186.104,-184.588"/>
</g>
<!-- Node3 -->
<g id="node3" class="node"><title>Node3</title>
<g id="a_node3"><a xlink:href="$classAP__HAL_1_1Print.html#acfe80773011eb17dfb52c2fba517a093" xlink:title="AP_HAL::Print::print">
<polygon fill="white" stroke="black" points="484.252,-308.5 484.252,-326.5 589.734,-326.5 589.734,-308.5 484.252,-308.5"/>
<text text-anchor="middle" x="536.993" y="-314.5" font-family="Helvetica,sans-Serif" font-size="10.00">AP_HAL::Print::print</text>
</a>
</g>
</g>
<!-- Node2&#45;&gt;Node3 -->
<g id="edge2" class="edge"><title>Node2&#45;&gt;Node3</title>
<path fill="none" stroke="midnightblue" d="M246.354,-326.506C263.329,-330.425 284.094,-334.56 303.004,-336.5 360.458,-342.394 375.438,-341.759 432.954,-336.5 450.506,-334.895 469.531,-331.784 486.401,-328.536"/>
<polygon fill="midnightblue" stroke="midnightblue" points="487.469,-331.892 496.594,-326.508 486.103,-325.026 487.469,-331.892"/>
</g>
<!-- Node5 -->
<g id="node5" class="node"><title>Node5</title>
<g id="a_node5"><a xlink:href="$classAP__HAL_1_1Print.html#a169b128f9e22f0c15883768f580541a2" xlink:title="AP_HAL::Print::println">
<polygon fill="white" stroke="black" points="311.346,-308.5 311.346,-326.5 424.612,-326.5 424.612,-308.5 311.346,-308.5"/>
<text text-anchor="middle" x="367.979" y="-314.5" font-family="Helvetica,sans-Serif" font-size="10.00">AP_HAL::Print::println</text>
</a>
</g>
</g>
<!-- Node2&#45;&gt;Node5 -->
<g id="edge4" class="edge"><title>Node2&#45;&gt;Node5</title>
<path fill="none" stroke="midnightblue" d="M267.11,-317.5C278.06,-317.5 289.645,-317.5 300.896,-317.5"/>
<polygon fill="midnightblue" stroke="midnightblue" points="301.107,-321 311.107,-317.5 301.107,-314 301.107,-321"/>
</g>
<!-- Node4 -->
<g id="node4" class="node"><title>Node4</title>
<g id="a_node4"><a xlink:href="$classAP__HAL_1_1Print.html#acc65391952a43334f8f5c9bef341f501" xlink:title="AP_HAL::Print::write">
<polygon fill="white" stroke="black" points="894.9,-162.5 894.9,-180.5 1002.04,-180.5 1002.04,-162.5 894.9,-162.5"/>
<text text-anchor="middle" x="948.472" y="-168.5" font-family="Helvetica,sans-Serif" font-size="10.00">AP_HAL::Print::write</text>
</a>
</g>
</g>
<!-- Node3&#45;&gt;Node4 -->
<g id="edge3" class="edge"><title>Node3&#45;&gt;Node4</title>
<path fill="none" stroke="midnightblue" d="M563.299,-308.477C633.613,-283.407 831.477,-212.858 912.357,-184.02"/>
<polygon fill="midnightblue" stroke="midnightblue" points="913.83,-187.211 922.074,-180.556 911.479,-180.618 913.83,-187.211"/>
</g>
<!-- Node5&#45;&gt;Node3 -->
<g id="edge5" class="edge"><title>Node5&#45;&gt;Node3</title>
<path fill="none" stroke="midnightblue" d="M425.057,-317.5C440.682,-317.5 457.748,-317.5 473.707,-317.5"/>
<polygon fill="midnightblue" stroke="midnightblue" points="474.008,-321 484.008,-317.5 474.008,-314 474.008,-321"/>
</g>
<!-- Node7 -->
<g id="node7" class="node"><title>Node7</title>
<g id="a_node7"><a xlink:href="$classQuaternion.html#aff2d2d3d1c5937523df8357deae4eeab" xlink:title="Quaternion::from_euler">
<polygon fill="white" stroke="black" points="308.563,-177.5 308.563,-195.5 427.395,-195.5 427.395,-177.5 308.563,-177.5"/>
<text text-anchor="middle" x="367.979" y="-183.5" font-family="Helvetica,sans-Serif" font-size="10.00">Quaternion::from_euler</text>
</a>
</g>
</g>
<!-- Node6&#45;&gt;Node7 -->
<g id="edge7" class="edge"><title>Node6&#45;&gt;Node7</title>
<path fill="none" stroke="midnightblue" d="M253.071,-172.592C267.029,-174.296 282.978,-176.243 298.433,-178.13"/>
<polygon fill="midnightblue" stroke="midnightblue" points="298.141,-181.621 308.492,-179.359 298.989,-174.672 298.141,-181.621"/>
</g>
<!-- Node8 -->
<g id="node8" class="node"><title>Node8</title>
<g id="a_node8"><a xlink:href="$classQuaternion.html#ab3049efa36b211699ca03ea53970f0fd" xlink:title="Quaternion::to_euler">
<polygon fill="white" stroke="black" points="314.393,-140.5 314.393,-158.5 421.565,-158.5 421.565,-140.5 314.393,-140.5"/>
<text text-anchor="middle" x="367.979" y="-146.5" font-family="Helvetica,sans-Serif" font-size="10.00">Quaternion::to_euler</text>
</a>
</g>
</g>
<!-- Node6&#45;&gt;Node8 -->
<g id="edge8" class="edge"><title>Node6&#45;&gt;Node8</title>
<path fill="none" stroke="midnightblue" d="M253.071,-162.676C268.8,-160.857 287.057,-158.745 304.287,-156.752"/>
<polygon fill="midnightblue" stroke="midnightblue" points="304.754,-160.221 314.285,-155.595 303.949,-153.268 304.754,-160.221"/>
</g>
<!-- Node13 -->
<g id="node13" class="node"><title>Node13</title>
<g id="a_node13"><a xlink:href="$eulers_8cpp.html#a6bfa6320a080694c8cdf18de74004189" xlink:title="check_result">
<polygon fill="white" stroke="black" points="331.91,-27.5 331.91,-45.5 404.048,-45.5 404.048,-27.5 331.91,-27.5"/>
<text text-anchor="middle" x="367.979" y="-33.5" font-family="Helvetica,sans-Serif" font-size="10.00">check_result</text>
</a>
</g>
</g>
<!-- Node6&#45;&gt;Node13 -->
<g id="edge13" class="edge"><title>Node6&#45;&gt;Node13</title>
<path fill="none" stroke="midnightblue" d="M216.193,-158.28C227.969,-136.685 260.379,-82.5395 303.004,-54.5 308.768,-50.7083 315.33,-47.7058 322.002,-45.3308"/>
<polygon fill="midnightblue" stroke="midnightblue" points="323.273,-48.6007 331.777,-42.2812 321.188,-41.9183 323.273,-48.6007"/>
</g>
<!-- Node22 -->
<g id="node22" class="node"><title>Node22</title>
<g id="a_node22"><a xlink:href="$classMatrix3.html#a62587bd216436f09f06b9e1330f84bc0" xlink:title="&#45;*&#45; tab&#45;width: 4; Mode: C++; c&#45;basic&#45;offset: 4; indent&#45;tabs&#45;mode: nil &#45;*&#45; ">
<polygon fill="white" stroke="black" points="316.91,-64.5 316.91,-82.5 419.048,-82.5 419.048,-64.5 316.91,-64.5"/>
<text text-anchor="middle" x="367.979" y="-70.5" font-family="Helvetica,sans-Serif" font-size="10.00">Matrix3::from_euler</text>
</a>
</g>
</g>
<!-- Node6&#45;&gt;Node22 -->
<g id="edge23" class="edge"><title>Node6&#45;&gt;Node22</title>
<path fill="none" stroke="midnightblue" d="M221.13,-158.473C237.178,-144.006 270.603,-115.438 303.004,-97.5 310.846,-93.1584 319.632,-89.2888 328.122,-85.9909"/>
<polygon fill="midnightblue" stroke="midnightblue" points="329.351,-89.2681 337.516,-82.5156 326.923,-82.703 329.351,-89.2681"/>
</g>
<!-- Node23 -->
<g id="node23" class="node"><title>Node23</title>
<g id="a_node23"><a xlink:href="$classMatrix3.html#a893c6a712d52e47dbb7ed2d7a548046e" xlink:title="Matrix3::to_euler">
<polygon fill="white" stroke="black" points="491.754,-98.5 491.754,-116.5 582.232,-116.5 582.232,-98.5 491.754,-98.5"/>
<text text-anchor="middle" x="536.993" y="-104.5" font-family="Helvetica,sans-Serif" font-size="10.00">Matrix3::to_euler</text>
</a>
</g>
</g>
<!-- Node6&#45;&gt;Node23 -->
<g id="edge24" class="edge"><title>Node6&#45;&gt;Node23</title>
<path fill="none" stroke="midnightblue" d="M229.459,-158.394C247.582,-149.709 276.514,-137.013 303.004,-130.5 362.943,-115.763 433.755,-110.417 481.449,-108.506"/>
<polygon fill="midnightblue" stroke="midnightblue" points="481.695,-111.999 491.561,-108.138 481.44,-105.004 481.695,-111.999"/>
</g>
<!-- Node24 -->
<g id="node24" class="node"><title>Node24</title>
<g id="a_node24"><a xlink:href="$classQuaternion.html#a5ee01ee833114be6181887d0dcfb33b1" xlink:title="Quaternion::from_rotation\l_matrix">
<polygon fill="white" stroke="black" points="303.004,-261.5 303.004,-289.5 432.954,-289.5 432.954,-261.5 303.004,-261.5"/>
<text text-anchor="start" x="311.004" y="-277.5" font-family="Helvetica,sans-Serif" font-size="10.00">Quaternion::from_rotation</text>
<text text-anchor="middle" x="367.979" y="-267.5" font-family="Helvetica,sans-Serif" font-size="10.00">_matrix</text>
</a>
</g>
</g>
<!-- Node6&#45;&gt;Node24 -->
<g id="edge26" class="edge"><title>Node6&#45;&gt;Node24</title>
<path fill="none" stroke="midnightblue" d="M219.067,-176.561C233.802,-193.413 267.688,-229.827 303.004,-251.5 306.321,-253.536 309.84,-255.444 313.452,-257.224"/>
<polygon fill="midnightblue" stroke="midnightblue" points="312.017,-260.416 322.567,-261.384 314.923,-254.048 312.017,-260.416"/>
</g>
<!-- Node25 -->
<g id="node25" class="node"><title>Node25</title>
<g id="a_node25"><a xlink:href="$classQuaternion.html#afb7132c9c69a984a40be950a17effeaa" xlink:title="&#45;*&#45; tab&#45;width: 4; Mode: C++; c&#45;basic&#45;offset: 4; indent&#45;tabs&#45;mode: nil &#45;*&#45; ">
<polygon fill="white" stroke="black" points="315.785,-214.5 315.785,-242.5 420.173,-242.5 420.173,-214.5 315.785,-214.5"/>
<text text-anchor="start" x="323.785" y="-230.5" font-family="Helvetica,sans-Serif" font-size="10.00">Quaternion::rotation</text>
<text text-anchor="middle" x="367.979" y="-220.5" font-family="Helvetica,sans-Serif" font-size="10.00">_matrix</text>
</a>
</g>
</g>
<!-- Node6&#45;&gt;Node25 -->
<g id="edge27" class="edge"><title>Node6&#45;&gt;Node25</title>
<path fill="none" stroke="midnightblue" d="M233.529,-176.627C252.05,-184.212 279.183,-195.224 303.004,-204.5 308.386,-206.596 314.035,-208.762 319.654,-210.897"/>
<polygon fill="midnightblue" stroke="midnightblue" points="318.44,-214.18 329.032,-214.442 320.915,-207.632 318.44,-214.18"/>
</g>
<!-- Node9 -->
<g id="node9" class="node"><title>Node9</title>
<g id="a_node9"><a xlink:href="$classQuaternion.html#a9ae6c42349ddc744022a4a1cf7868eb0" xlink:title="Quaternion::get_euler_roll">
<polygon fill="white" stroke="black" points="471.178,-182.5 471.178,-200.5 602.808,-200.5 602.808,-182.5 471.178,-182.5"/>
<text text-anchor="middle" x="536.993" y="-188.5" font-family="Helvetica,sans-Serif" font-size="10.00">Quaternion::get_euler_roll</text>
</a>
</g>
</g>
<!-- Node8&#45;&gt;Node9 -->
<g id="edge9" class="edge"><title>Node8&#45;&gt;Node9</title>
<path fill="none" stroke="midnightblue" d="M404.808,-158.51C429.71,-164.772 463.119,-173.174 489.989,-179.931"/>
<polygon fill="midnightblue" stroke="midnightblue" points="489.384,-183.388 499.936,-182.432 491.091,-176.599 489.384,-183.388"/>
</g>
<!-- Node10 -->
<g id="node10" class="node"><title>Node10</title>
<g id="a_node10"><a xlink:href="$classQuaternion.html#a0bfe50c332309932cd833b83f6524e5f" xlink:title="Quaternion::get_euler\l_pitch">
<polygon fill="white" stroke="black" points="480.626,-135.5 480.626,-163.5 593.36,-163.5 593.36,-135.5 480.626,-135.5"/>
<text text-anchor="start" x="488.626" y="-151.5" font-family="Helvetica,sans-Serif" font-size="10.00">Quaternion::get_euler</text>
<text text-anchor="middle" x="536.993" y="-141.5" font-family="Helvetica,sans-Serif" font-size="10.00">_pitch</text>
</a>
</g>
</g>
<!-- Node8&#45;&gt;Node10 -->
<g id="edge10" class="edge"><title>Node8&#45;&gt;Node10</title>
<path fill="none" stroke="midnightblue" d="M421.823,-149.5C437.189,-149.5 454.162,-149.5 470.219,-149.5"/>
<polygon fill="midnightblue" stroke="midnightblue" points="470.612,-153 480.612,-149.5 470.612,-146 470.612,-153"/>
</g>
<!-- Node12 -->
<g id="node12" class="node"><title>Node12</title>
<g id="a_node12"><a xlink:href="$classQuaternion.html#a35c2a1030832728574363ed8655da625" xlink:title="Quaternion::get_euler_yaw">
<polygon fill="white" stroke="black" points="468.954,-219.5 468.954,-237.5 605.032,-237.5 605.032,-219.5 468.954,-219.5"/>
<text text-anchor="middle" x="536.993" y="-225.5" font-family="Helvetica,sans-Serif" font-size="10.00">Quaternion::get_euler_yaw</text>
</a>
</g>
</g>
<!-- Node8&#45;&gt;Node12 -->
<g id="edge12" class="edge"><title>Node8&#45;&gt;Node12</title>
<path fill="none" stroke="midnightblue" d="M414.133,-158.564C420.725,-160.906 427.216,-163.837 432.954,-167.5 453.676,-180.73 448.245,-196.25 468.954,-209.5 472.565,-211.81 476.461,-213.845 480.494,-215.636"/>
<polygon fill="midnightblue" stroke="midnightblue" points="479.494,-219.004 490.082,-219.389 482.046,-212.485 479.494,-219.004"/>
</g>
<!-- Node11 -->
<g id="node11" class="node"><title>Node11</title>
<g id="a_node11"><a xlink:href="$AP__Math_8cpp.html#a2706fd969ad73bc8ef977d964c04f4a3" xlink:title="safe_asin">
<polygon fill="white" stroke="black" points="668.439,-119.5 668.439,-137.5 727.247,-137.5 727.247,-119.5 668.439,-119.5"/>
<text text-anchor="middle" x="697.843" y="-125.5" font-family="Helvetica,sans-Serif" font-size="10.00">safe_asin</text>
</a>
</g>
</g>
<!-- Node10&#45;&gt;Node11 -->
<g id="edge11" class="edge"><title>Node10&#45;&gt;Node11</title>
<path fill="none" stroke="midnightblue" d="M593.551,-142.155C614.938,-139.328 638.869,-136.164 658.308,-133.594"/>
<polygon fill="midnightblue" stroke="midnightblue" points="658.857,-137.052 668.312,-132.272 657.94,-130.113 658.857,-137.052"/>
</g>
<!-- Node14 -->
<g id="node14" class="node"><title>Node14</title>
<g id="a_node14"><a xlink:href="$classAP__HAL_1_1UARTDriver.html#a65c7824b8877f7a2f79365c8ffae8f56" xlink:title="AP_HAL::UARTDriver\l::printf">
<polygon fill="white" stroke="black" points="480.182,-14.5 480.182,-42.5 593.804,-42.5 593.804,-14.5 480.182,-14.5"/>
<text text-anchor="start" x="488.182" y="-30.5" font-family="Helvetica,sans-Serif" font-size="10.00">AP_HAL::UARTDriver</text>
<text text-anchor="middle" x="536.993" y="-20.5" font-family="Helvetica,sans-Serif" font-size="10.00">::printf</text>
</a>
</g>
</g>
<!-- Node13&#45;&gt;Node14 -->
<g id="edge14" class="edge"><title>Node13&#45;&gt;Node14</title>
<path fill="none" stroke="midnightblue" d="M404.398,-34.8034C423.414,-33.8926 447.475,-32.74 469.808,-31.6703"/>
<polygon fill="midnightblue" stroke="midnightblue" points="470.101,-35.1603 479.923,-31.1858 469.766,-28.1683 470.101,-35.1603"/>
</g>
<!-- Node21 -->
<g id="node21" class="node"><title>Node21</title>
<g id="a_node21"><a xlink:href="$eulers_8cpp.html#aa94c06a1eb86dc7dd817303e608203b6" xlink:title="rad_diff">
<polygon fill="white" stroke="black" points="512.404,-61.5 512.404,-79.5 561.583,-79.5 561.583,-61.5 512.404,-61.5"/>
<text text-anchor="middle" x="536.993" y="-67.5" font-family="Helvetica,sans-Serif" font-size="10.00">rad_diff</text>
</a>
</g>
</g>
<!-- Node13&#45;&gt;Node21 -->
<g id="edge22" class="edge"><title>Node13&#45;&gt;Node21</title>
<path fill="none" stroke="midnightblue" d="M404.398,-43.7105C433.223,-49.5785 473.643,-57.8071 502.06,-63.5919"/>
<polygon fill="midnightblue" stroke="midnightblue" points="501.445,-67.0385 511.942,-65.6037 502.841,-60.1792 501.445,-67.0385"/>
</g>
<!-- Node15 -->
<g id="node15" class="node"><title>Node15</title>
<g id="a_node15"><a xlink:href="$classAP__HAL_1_1UARTDriver.html#aa8abfb6d6641299472c29ac1edde559f" xlink:title="AP_HAL::UARTDriver\l::vprintf">
<polygon fill="white" stroke="black" points="641.032,-29.5 641.032,-57.5 754.654,-57.5 754.654,-29.5 641.032,-29.5"/>
<text text-anchor="start" x="649.032" y="-45.5" font-family="Helvetica,sans-Serif" font-size="10.00">AP_HAL::UARTDriver</text>
<text text-anchor="middle" x="697.843" y="-35.5" font-family="Helvetica,sans-Serif" font-size="10.00">::vprintf</text>
</a>
</g>
</g>
<!-- Node14&#45;&gt;Node15 -->
<g id="edge15" class="edge"><title>Node14&#45;&gt;Node15</title>
<path fill="none" stroke="midnightblue" d="M593.998,-33.7884C605.861,-34.9087 618.49,-36.1012 630.689,-37.2532"/>
<polygon fill="midnightblue" stroke="midnightblue" points="630.524,-40.7531 640.809,-38.2088 631.182,-33.7841 630.524,-40.7531"/>
</g>
<!-- Node16 -->
<g id="node16" class="node"><title>Node16</title>
<g id="a_node16"><a xlink:href="$print__vprintf_8cpp.html#a473b9349f4b086b552a21eb8fe057016" xlink:title="print_vprintf">
<polygon fill="white" stroke="black" points="790.654,-55.5 790.654,-73.5 858.9,-73.5 858.9,-55.5 790.654,-55.5"/>
<text text-anchor="middle" x="824.777" y="-61.5" font-family="Helvetica,sans-Serif" font-size="10.00">print_vprintf</text>
</a>
</g>
</g>
<!-- Node15&#45;&gt;Node16 -->
<g id="edge16" class="edge"><title>Node15&#45;&gt;Node16</title>
<path fill="none" stroke="midnightblue" d="M754.733,-52.8944C763.416,-54.354 772.271,-55.8424 780.617,-57.2452"/>
<polygon fill="midnightblue" stroke="midnightblue" points="780.055,-60.6999 790.497,-58.906 781.216,-53.7967 780.055,-60.6999"/>
</g>
<!-- Node16&#45;&gt;Node4 -->
<g id="edge17" class="edge"><title>Node16&#45;&gt;Node4</title>
<path fill="none" stroke="midnightblue" d="M833.185,-73.8817C845.158,-88.6893 869.953,-117.909 894.9,-138.5 903.166,-145.322 912.944,-151.824 921.811,-157.225"/>
<polygon fill="midnightblue" stroke="midnightblue" points="920.229,-160.355 930.621,-162.422 923.786,-154.326 920.229,-160.355"/>
</g>
<!-- Node17 -->
<g id="node17" class="node"><title>Node17</title>
<g id="a_node17"><a xlink:href="$ftoa__engine_8cpp.html#a1c28234da8f20b43c85890d4bb452947" xlink:title="ftoa_engine">
<polygon fill="white" stroke="black" points="914.336,-74.5 914.336,-92.5 982.607,-92.5 982.607,-74.5 914.336,-74.5"/>
<text text-anchor="middle" x="948.472" y="-80.5" font-family="Helvetica,sans-Serif" font-size="10.00">ftoa_engine</text>
</a>
</g>
</g>
<!-- Node16&#45;&gt;Node17 -->
<g id="edge18" class="edge"><title>Node16&#45;&gt;Node17</title>
<path fill="none" stroke="midnightblue" d="M859.031,-69.6918C872.982,-71.8701 889.39,-74.4317 904.259,-76.7533"/>
<polygon fill="midnightblue" stroke="midnightblue" points="903.838,-80.2299 914.258,-78.3144 904.918,-73.3137 903.838,-80.2299"/>
</g>
<!-- Node18 -->
<g id="node18" class="node"><title>Node18</title>
<g id="a_node18"><a xlink:href="$AP__Progmem_8h.html#a1514e0408e036062b4af844baaf567da" xlink:title="pgm_read_byte">
<polygon fill="white" stroke="black" points="905.726,-37.5 905.726,-55.5 991.218,-55.5 991.218,-37.5 905.726,-37.5"/>
<text text-anchor="middle" x="948.472" y="-43.5" font-family="Helvetica,sans-Serif" font-size="10.00">pgm_read_byte</text>
</a>
</g>
</g>
<!-- Node16&#45;&gt;Node18 -->
<g id="edge19" class="edge"><title>Node16&#45;&gt;Node18</title>
<path fill="none" stroke="midnightblue" d="M859.031,-59.5814C870.247,-57.9225 883.049,-56.0288 895.364,-54.2073"/>
<polygon fill="midnightblue" stroke="midnightblue" points="896.169,-57.6265 905.549,-52.7009 895.144,-50.7018 896.169,-57.6265"/>
</g>
<!-- Node19 -->
<g id="node19" class="node"><title>Node19</title>
<g id="a_node19"><a xlink:href="$utoa__invert_8cpp.html#a34926f552460b47c414ec4d83b32815c" xlink:title="ulltoa_invert">
<polygon fill="white" stroke="black" points="913.511,-0.5 913.511,-18.5 983.432,-18.5 983.432,-0.5 913.511,-0.5"/>
<text text-anchor="middle" x="948.472" y="-6.5" font-family="Helvetica,sans-Serif" font-size="10.00">ulltoa_invert</text>
</a>
</g>
</g>
<!-- Node16&#45;&gt;Node19 -->
<g id="edge20" class="edge"><title>Node16&#45;&gt;Node19</title>
<path fill="none" stroke="midnightblue" d="M841.069,-55.3887C854.845,-47.4065 875.806,-35.8142 894.9,-27.5 899.312,-25.5791 904,-23.7235 908.689,-21.9806"/>
<polygon fill="midnightblue" stroke="midnightblue" points="909.986,-25.234 918.228,-18.5766 907.633,-18.6411 909.986,-25.234"/>
</g>
<!-- Node20 -->
<g id="node20" class="node"><title>Node20</title>
<g id="a_node20"><a xlink:href="$utoa__invert_8cpp.html#a5d99bba8e697c1e11da489d88fca8559" xlink:title="ultoa_invert">
<polygon fill="white" stroke="black" points="914.622,-111.5 914.622,-129.5 982.321,-129.5 982.321,-111.5 914.622,-111.5"/>
<text text-anchor="middle" x="948.472" y="-117.5" font-family="Helvetica,sans-Serif" font-size="10.00">ultoa_invert</text>
</a>
</g>
</g>
<!-- Node16&#45;&gt;Node20 -->
<g id="edge21" class="edge"><title>Node16&#45;&gt;Node20</title>
<path fill="none" stroke="midnightblue" d="M841.104,-73.5329C854.903,-81.4637 875.877,-93.0245 894.9,-101.5 899.942,-103.746 905.339,-105.932 910.683,-107.974"/>
<polygon fill="midnightblue" stroke="midnightblue" points="909.566,-111.293 920.16,-111.475 911.992,-104.726 909.566,-111.293"/>
</g>
<!-- Node23&#45;&gt;Node11 -->
<g id="edge25" class="edge"><title>Node23&#45;&gt;Node11</title>
<path fill="none" stroke="midnightblue" d="M582.242,-113.35C606.125,-116.507 635.325,-120.367 658.273,-123.401"/>
<polygon fill="midnightblue" stroke="midnightblue" points="657.963,-126.89 668.335,-124.731 658.88,-119.951 657.963,-126.89"/>
</g>
</g>
</svg>
