<?xml version="1.0" encoding="UTF-8" standalone="no"?>
<!DOCTYPE svg PUBLIC "-//W3C//DTD SVG 1.1//EN"
 "http://www.w3.org/Graphics/SVG/1.1/DTD/svg11.dtd">
<!-- Generated by graphviz version 2.38.0 (20140413.2041)
 -->
<!-- Title: test_frame_transforms Pages: 1 -->
<svg width="729pt" height="252pt"
 viewBox="0.00 0.00 729.26 252.00" xmlns="http://www.w3.org/2000/svg" xmlns:xlink="http://www.w3.org/1999/xlink">
<g id="graph0" class="graph" transform="scale(1 1) rotate(0) translate(4 248)">
<title>test_frame_transforms</title>
<polygon fill="white" stroke="none" points="-4,4 -4,-248 725.256,-248 725.256,4 -4,4"/>
<!-- Node1 -->
<g id="node1" class="node"><title>Node1</title>
<polygon fill="#bfbfbf" stroke="black" points="0,-132.5 0,-150.5 116.034,-150.5 116.034,-132.5 0,-132.5"/>
<text text-anchor="middle" x="58.0171" y="-138.5" font-family="Helvetica,sans-Serif" font-size="10.00">test_frame_transforms</text>
</g>
<!-- Node2 -->
<g id="node2" class="node"><title>Node2</title>
<g id="a_node2"><a xlink:href="$classAP__HAL_1_1Print.html#ad337ce3f7977411b7d34d47a51e5737e" xlink:title="AP_HAL::Print::println">
<polygon fill="white" stroke="black" points="162.889,-225.5 162.889,-243.5 276.154,-243.5 276.154,-225.5 162.889,-225.5"/>
<text text-anchor="middle" x="219.521" y="-231.5" font-family="Helvetica,sans-Serif" font-size="10.00">AP_HAL::Print::println</text>
</a>
</g>
</g>
<!-- Node1&#45;&gt;Node2 -->
<g id="edge1" class="edge"><title>Node1&#45;&gt;Node2</title>
<path fill="none" stroke="midnightblue" d="M67.8651,-150.815C83.4115,-166.642 117.29,-198.786 152.034,-216.5 156.099,-218.573 160.43,-220.427 164.856,-222.083"/>
<polygon fill="midnightblue" stroke="midnightblue" points="164.039,-225.501 174.633,-225.396 166.286,-218.872 164.039,-225.501"/>
</g>
<!-- Node6 -->
<g id="node6" class="node"><title>Node6</title>
<g id="a_node6"><a xlink:href="$classQuaternion.html#aff2d2d3d1c5937523df8357deae4eeab" xlink:title="Quaternion::from_euler">
<polygon fill="white" stroke="black" points="160.105,-188.5 160.105,-206.5 278.938,-206.5 278.938,-188.5 160.105,-188.5"/>
<text text-anchor="middle" x="219.521" y="-194.5" font-family="Helvetica,sans-Serif" font-size="10.00">Quaternion::from_euler</text>
</a>
</g>
</g>
<!-- Node1&#45;&gt;Node6 -->
<g id="edge6" class="edge"><title>Node1&#45;&gt;Node6</title>
<path fill="none" stroke="midnightblue" d="M80.2182,-150.639C98.9259,-158.532 127.03,-169.978 152.034,-178.5 159.303,-180.977 167.091,-183.403 174.684,-185.648"/>
<polygon fill="midnightblue" stroke="midnightblue" points="173.915,-189.069 184.494,-188.485 175.86,-182.345 173.915,-189.069"/>
</g>
<!-- Node7 -->
<g id="node7" class="node"><title>Node7</title>
<g id="a_node7"><a xlink:href="$classQuaternion.html#a48e6bafb249c895ed25f29dc9170e11e" xlink:title="Quaternion::normalize">
<polygon fill="white" stroke="black" points="162.33,-151.5 162.33,-169.5 276.713,-169.5 276.713,-151.5 162.33,-151.5"/>
<text text-anchor="middle" x="219.521" y="-157.5" font-family="Helvetica,sans-Serif" font-size="10.00">Quaternion::normalize</text>
</a>
</g>
</g>
<!-- Node1&#45;&gt;Node7 -->
<g id="edge7" class="edge"><title>Node1&#45;&gt;Node7</title>
<path fill="none" stroke="midnightblue" d="M116.151,-148.306C127.884,-149.703 140.328,-151.186 152.349,-152.618"/>
<polygon fill="midnightblue" stroke="midnightblue" points="151.977,-156.098 162.321,-153.805 152.805,-149.147 151.977,-156.098"/>
</g>
<!-- Node10 -->
<g id="node10" class="node"><title>Node10</title>
<g id="a_node10"><a xlink:href="$classMatrix3.html#a62587bd216436f09f06b9e1330f84bc0" xlink:title="&#45;*&#45; tab&#45;width: 4; Mode: C++; c&#45;basic&#45;offset: 4; indent&#45;tabs&#45;mode: nil &#45;*&#45; ">
<polygon fill="white" stroke="black" points="168.453,-114.5 168.453,-132.5 270.59,-132.5 270.59,-114.5 168.453,-114.5"/>
<text text-anchor="middle" x="219.521" y="-120.5" font-family="Helvetica,sans-Serif" font-size="10.00">Matrix3::from_euler</text>
</a>
</g>
</g>
<!-- Node1&#45;&gt;Node10 -->
<g id="edge10" class="edge"><title>Node1&#45;&gt;Node10</title>
<path fill="none" stroke="midnightblue" d="M116.151,-135.052C129.757,-133.517 144.32,-131.874 158.069,-130.322"/>
<polygon fill="midnightblue" stroke="midnightblue" points="158.85,-133.756 168.394,-129.157 158.065,-126.8 158.85,-133.756"/>
</g>
<!-- Node11 -->
<g id="node11" class="node"><title>Node11</title>
<g id="a_node11"><a xlink:href="$classQuaternion.html#a20c1310cb43b19ab1fdcbde038d1e508" xlink:title="Quaternion::earth_to_body">
<polygon fill="white" stroke="black" points="152.034,-77.5 152.034,-95.5 287.009,-95.5 287.009,-77.5 152.034,-77.5"/>
<text text-anchor="middle" x="219.521" y="-83.5" font-family="Helvetica,sans-Serif" font-size="10.00">Quaternion::earth_to_body</text>
</a>
</g>
</g>
<!-- Node1&#45;&gt;Node11 -->
<g id="edge11" class="edge"><title>Node1&#45;&gt;Node11</title>
<path fill="none" stroke="midnightblue" d="M79.8214,-132.431C98.5083,-124.477 126.806,-112.902 152.034,-104.5 158.514,-102.342 165.411,-100.251 172.217,-98.3047"/>
<polygon fill="midnightblue" stroke="midnightblue" points="173.369,-101.617 182.065,-95.5654 171.493,-94.8734 173.369,-101.617"/>
</g>
<!-- Node13 -->
<g id="node13" class="node"><title>Node13</title>
<g id="a_node13"><a xlink:href="$classAP__HAL_1_1UARTDriver.html#a65c7824b8877f7a2f79365c8ffae8f56" xlink:title="AP_HAL::UARTDriver\l::printf">
<polygon fill="white" stroke="black" points="162.71,-30.5 162.71,-58.5 276.333,-58.5 276.333,-30.5 162.71,-30.5"/>
<text text-anchor="start" x="170.71" y="-46.5" font-family="Helvetica,sans-Serif" font-size="10.00">AP_HAL::UARTDriver</text>
<text text-anchor="middle" x="219.521" y="-36.5" font-family="Helvetica,sans-Serif" font-size="10.00">::printf</text>
</a>
</g>
</g>
<!-- Node1&#45;&gt;Node13 -->
<g id="edge13" class="edge"><title>Node1&#45;&gt;Node13</title>
<path fill="none" stroke="midnightblue" d="M68.2764,-132.321C84.1717,-117.004 118.216,-86.0863 152.034,-67.5 155.275,-65.7186 158.68,-64.0368 162.164,-62.456"/>
<polygon fill="midnightblue" stroke="midnightblue" points="163.664,-65.6222 171.515,-58.5083 160.941,-59.1733 163.664,-65.6222"/>
</g>
<!-- Node3 -->
<g id="node3" class="node"><title>Node3</title>
<g id="a_node3"><a xlink:href="$classAP__HAL_1_1Print.html#acfe80773011eb17dfb52c2fba517a093" xlink:title="AP_HAL::Print::print">
<polygon fill="white" stroke="black" points="472.631,-187.5 472.631,-205.5 578.113,-205.5 578.113,-187.5 472.631,-187.5"/>
<text text-anchor="middle" x="525.372" y="-193.5" font-family="Helvetica,sans-Serif" font-size="10.00">AP_HAL::Print::print</text>
</a>
</g>
</g>
<!-- Node2&#45;&gt;Node3 -->
<g id="edge2" class="edge"><title>Node2&#45;&gt;Node3</title>
<path fill="none" stroke="midnightblue" d="M276.27,-231.528C320.047,-228.729 382.449,-223.715 436.631,-215.5 450.016,-213.471 464.419,-210.631 477.608,-207.765"/>
<polygon fill="midnightblue" stroke="midnightblue" points="478.419,-211.17 487.42,-205.581 476.899,-204.337 478.419,-211.17"/>
</g>
<!-- Node5 -->
<g id="node5" class="node"><title>Node5</title>
<g id="a_node5"><a xlink:href="$classAP__HAL_1_1Print.html#a169b128f9e22f0c15883768f580541a2" xlink:title="AP_HAL::Print::println">
<polygon fill="white" stroke="black" points="323.187,-187.5 323.187,-205.5 436.453,-205.5 436.453,-187.5 323.187,-187.5"/>
<text text-anchor="middle" x="379.82" y="-193.5" font-family="Helvetica,sans-Serif" font-size="10.00">AP_HAL::Print::println</text>
</a>
</g>
</g>
<!-- Node2&#45;&gt;Node5 -->
<g id="edge4" class="edge"><title>Node2&#45;&gt;Node5</title>
<path fill="none" stroke="midnightblue" d="M258.036,-225.495C280.036,-220.213 308.035,-213.492 331.535,-207.851"/>
<polygon fill="midnightblue" stroke="midnightblue" points="332.394,-211.244 341.301,-205.507 330.76,-204.438 332.394,-211.244"/>
</g>
<!-- Node4 -->
<g id="node4" class="node"><title>Node4</title>
<g id="a_node4"><a xlink:href="$classAP__HAL_1_1Print.html#acc65391952a43334f8f5c9bef341f501" xlink:title="AP_HAL::Print::write">
<polygon fill="white" stroke="black" points="614.113,-167.5 614.113,-185.5 721.256,-185.5 721.256,-167.5 614.113,-167.5"/>
<text text-anchor="middle" x="667.685" y="-173.5" font-family="Helvetica,sans-Serif" font-size="10.00">AP_HAL::Print::write</text>
</a>
</g>
</g>
<!-- Node3&#45;&gt;Node4 -->
<g id="edge3" class="edge"><title>Node3&#45;&gt;Node4</title>
<path fill="none" stroke="midnightblue" d="M578.221,-189.11C586.637,-187.91 595.432,-186.656 604.072,-185.425"/>
<polygon fill="midnightblue" stroke="midnightblue" points="604.705,-188.87 614.112,-183.994 603.718,-181.94 604.705,-188.87"/>
</g>
<!-- Node5&#45;&gt;Node3 -->
<g id="edge5" class="edge"><title>Node5&#45;&gt;Node3</title>
<path fill="none" stroke="midnightblue" d="M436.732,-196.5C445.127,-196.5 453.827,-196.5 462.341,-196.5"/>
<polygon fill="midnightblue" stroke="midnightblue" points="462.6,-200 472.6,-196.5 462.6,-193 462.6,-200"/>
</g>
<!-- Node8 -->
<g id="node8" class="node"><title>Node8</title>
<g id="a_node8"><a xlink:href="$classQuaternion.html#a6f5e82dd828c59392a3133d6d5877f39" xlink:title="Quaternion::length">
<polygon fill="white" stroke="black" points="330.68,-150.5 330.68,-168.5 428.96,-168.5 428.96,-150.5 330.68,-150.5"/>
<text text-anchor="middle" x="379.82" y="-156.5" font-family="Helvetica,sans-Serif" font-size="10.00">Quaternion::length</text>
</a>
</g>
</g>
<!-- Node7&#45;&gt;Node8 -->
<g id="edge8" class="edge"><title>Node7&#45;&gt;Node8</title>
<path fill="none" stroke="midnightblue" d="M276.777,-160.145C290.936,-160.055 306.164,-159.959 320.426,-159.869"/>
<polygon fill="midnightblue" stroke="midnightblue" points="320.632,-163.368 330.61,-159.805 320.588,-156.368 320.632,-163.368"/>
</g>
<!-- Node9 -->
<g id="node9" class="node"><title>Node9</title>
<g id="a_node9"><a xlink:href="$AP__Math_8h.html#a00f57739f8671cb41eae08a51b7cbf7c" xlink:title="sq">
<polygon fill="white" stroke="black" points="510.872,-150.5 510.872,-168.5 539.872,-168.5 539.872,-150.5 510.872,-150.5"/>
<text text-anchor="middle" x="525.372" y="-156.5" font-family="Helvetica,sans-Serif" font-size="10.00">sq</text>
</a>
</g>
</g>
<!-- Node8&#45;&gt;Node9 -->
<g id="edge9" class="edge"><title>Node8&#45;&gt;Node9</title>
<path fill="none" stroke="midnightblue" d="M429.02,-159.5C453.099,-159.5 481.161,-159.5 500.578,-159.5"/>
<polygon fill="midnightblue" stroke="midnightblue" points="500.656,-163 510.656,-159.5 500.656,-156 500.656,-163"/>
</g>
<!-- Node12 -->
<g id="node12" class="node"><title>Node12</title>
<g id="a_node12"><a xlink:href="$classQuaternion.html#afb7132c9c69a984a40be950a17effeaa" xlink:title="&#45;*&#45; tab&#45;width: 4; Mode: C++; c&#45;basic&#45;offset: 4; indent&#45;tabs&#45;mode: nil &#45;*&#45; ">
<polygon fill="white" stroke="black" points="327.625,-77.5 327.625,-105.5 432.014,-105.5 432.014,-77.5 327.625,-77.5"/>
<text text-anchor="start" x="335.625" y="-93.5" font-family="Helvetica,sans-Serif" font-size="10.00">Quaternion::rotation</text>
<text text-anchor="middle" x="379.82" y="-83.5" font-family="Helvetica,sans-Serif" font-size="10.00">_matrix</text>
</a>
</g>
</g>
<!-- Node11&#45;&gt;Node12 -->
<g id="edge12" class="edge"><title>Node11&#45;&gt;Node12</title>
<path fill="none" stroke="midnightblue" d="M287.195,-88.606C297.229,-88.9229 307.538,-89.2485 317.453,-89.5617"/>
<polygon fill="midnightblue" stroke="midnightblue" points="317.511,-93.0651 327.616,-89.8827 317.732,-86.0686 317.511,-93.0651"/>
</g>
<!-- Node14 -->
<g id="node14" class="node"><title>Node14</title>
<g id="a_node14"><a xlink:href="$classAP__HAL_1_1UARTDriver.html#aa8abfb6d6641299472c29ac1edde559f" xlink:title="AP_HAL::UARTDriver\l::vprintf">
<polygon fill="white" stroke="black" points="323.009,-30.5 323.009,-58.5 436.631,-58.5 436.631,-30.5 323.009,-30.5"/>
<text text-anchor="start" x="331.009" y="-46.5" font-family="Helvetica,sans-Serif" font-size="10.00">AP_HAL::UARTDriver</text>
<text text-anchor="middle" x="379.82" y="-36.5" font-family="Helvetica,sans-Serif" font-size="10.00">::vprintf</text>
</a>
</g>
</g>
<!-- Node13&#45;&gt;Node14 -->
<g id="edge14" class="edge"><title>Node13&#45;&gt;Node14</title>
<path fill="none" stroke="midnightblue" d="M276.777,-44.5C288.324,-44.5 300.583,-44.5 312.448,-44.5"/>
<polygon fill="midnightblue" stroke="midnightblue" points="312.745,-48.0001 322.745,-44.5 312.745,-41.0001 312.745,-48.0001"/>
</g>
<!-- Node15 -->
<g id="node15" class="node"><title>Node15</title>
<g id="a_node15"><a xlink:href="$print__vprintf_8cpp.html#a473b9349f4b086b552a21eb8fe057016" xlink:title="print_vprintf">
<polygon fill="white" stroke="black" points="491.249,-55.5 491.249,-73.5 559.495,-73.5 559.495,-55.5 491.249,-55.5"/>
<text text-anchor="middle" x="525.372" y="-61.5" font-family="Helvetica,sans-Serif" font-size="10.00">print_vprintf</text>
</a>
</g>
</g>
<!-- Node14&#45;&gt;Node15 -->
<g id="edge15" class="edge"><title>Node14&#45;&gt;Node15</title>
<path fill="none" stroke="midnightblue" d="M436.732,-52.2898C451.412,-54.335 467.023,-56.51 480.941,-58.4491"/>
<polygon fill="midnightblue" stroke="midnightblue" points="480.823,-61.9663 491.21,-59.8798 481.789,-55.0333 480.823,-61.9663"/>
</g>
<!-- Node15&#45;&gt;Node4 -->
<g id="edge16" class="edge"><title>Node15&#45;&gt;Node4</title>
<path fill="none" stroke="midnightblue" d="M536.697,-73.643C552.889,-87.8811 585.378,-116.048 614.113,-138.5 624.169,-146.357 635.622,-154.703 645.266,-161.567"/>
<polygon fill="midnightblue" stroke="midnightblue" points="643.334,-164.487 653.522,-167.396 647.372,-158.769 643.334,-164.487"/>
</g>
<!-- Node16 -->
<g id="node16" class="node"><title>Node16</title>
<g id="a_node16"><a xlink:href="$ftoa__engine_8cpp.html#a1c28234da8f20b43c85890d4bb452947" xlink:title="ftoa_engine">
<polygon fill="white" stroke="black" points="633.549,-111.5 633.549,-129.5 701.82,-129.5 701.82,-111.5 633.549,-111.5"/>
<text text-anchor="middle" x="667.685" y="-117.5" font-family="Helvetica,sans-Serif" font-size="10.00">ftoa_engine</text>
</a>
</g>
</g>
<!-- Node15&#45;&gt;Node16 -->
<g id="edge17" class="edge"><title>Node15&#45;&gt;Node16</title>
<path fill="none" stroke="midnightblue" d="M547.166,-73.6303C564.866,-81.3148 591.02,-92.4649 614.113,-101.5 619.671,-103.675 625.593,-105.901 631.383,-108.029"/>
<polygon fill="midnightblue" stroke="midnightblue" points="630.32,-111.366 640.915,-111.49 632.71,-104.787 630.32,-111.366"/>
</g>
<!-- Node17 -->
<g id="node17" class="node"><title>Node17</title>
<g id="a_node17"><a xlink:href="$AP__Progmem_8h.html#a1514e0408e036062b4af844baaf567da" xlink:title="pgm_read_byte">
<polygon fill="white" stroke="black" points="624.938,-74.5 624.938,-92.5 710.431,-92.5 710.431,-74.5 624.938,-74.5"/>
<text text-anchor="middle" x="667.685" y="-80.5" font-family="Helvetica,sans-Serif" font-size="10.00">pgm_read_byte</text>
</a>
</g>
</g>
<!-- Node15&#45;&gt;Node17 -->
<g id="edge18" class="edge"><title>Node15&#45;&gt;Node17</title>
<path fill="none" stroke="midnightblue" d="M559.624,-69.0027C576.103,-71.2342 596.38,-73.9799 614.838,-76.4793"/>
<polygon fill="midnightblue" stroke="midnightblue" points="614.49,-79.9642 624.87,-77.8378 615.43,-73.0275 614.49,-79.9642"/>
</g>
<!-- Node18 -->
<g id="node18" class="node"><title>Node18</title>
<g id="a_node18"><a xlink:href="$utoa__invert_8cpp.html#a34926f552460b47c414ec4d83b32815c" xlink:title="ulltoa_invert">
<polygon fill="white" stroke="black" points="632.724,-37.5 632.724,-55.5 702.645,-55.5 702.645,-37.5 632.724,-37.5"/>
<text text-anchor="middle" x="667.685" y="-43.5" font-family="Helvetica,sans-Serif" font-size="10.00">ulltoa_invert</text>
</a>
</g>
</g>
<!-- Node15&#45;&gt;Node18 -->
<g id="edge19" class="edge"><title>Node15&#45;&gt;Node18</title>
<path fill="none" stroke="midnightblue" d="M559.624,-60.2343C578.481,-57.8152 602.311,-54.7582 622.698,-52.1428"/>
<polygon fill="midnightblue" stroke="midnightblue" points="623.223,-55.6042 632.696,-50.8602 622.332,-48.6611 623.223,-55.6042"/>
</g>
<!-- Node19 -->
<g id="node19" class="node"><title>Node19</title>
<g id="a_node19"><a xlink:href="$utoa__invert_8cpp.html#a5d99bba8e697c1e11da489d88fca8559" xlink:title="ultoa_invert">
<polygon fill="white" stroke="black" points="633.835,-0.5 633.835,-18.5 701.534,-18.5 701.534,-0.5 633.835,-0.5"/>
<text text-anchor="middle" x="667.685" y="-6.5" font-family="Helvetica,sans-Serif" font-size="10.00">ultoa_invert</text>
</a>
</g>
</g>
<!-- Node15&#45;&gt;Node19 -->
<g id="edge20" class="edge"><title>Node15&#45;&gt;Node19</title>
<path fill="none" stroke="midnightblue" d="M546.775,-55.4235C564.454,-47.6723 590.79,-36.3983 614.113,-27.5 619.002,-25.635 624.178,-23.7523 629.302,-21.9432"/>
<polygon fill="midnightblue" stroke="midnightblue" points="630.698,-25.1633 638.999,-18.5787 628.404,-18.5501 630.698,-25.1633"/>
</g>
</g>
</svg>
