<?xml version="1.0" encoding="UTF-8" standalone="no"?>
<!DOCTYPE svg PUBLIC "-//W3C//DTD SVG 1.1//EN"
 "http://www.w3.org/Graphics/SVG/1.1/DTD/svg11.dtd">
<!-- Generated by graphviz version 2.38.0 (20140413.2041)
 -->
<!-- Title: test_conversion Pages: 1 -->
<svg width="818pt" height="345pt"
 viewBox="0.00 0.00 817.96 345.00" xmlns="http://www.w3.org/2000/svg" xmlns:xlink="http://www.w3.org/1999/xlink">
<g id="graph0" class="graph" transform="scale(1 1) rotate(0) translate(4 341)">
<title>test_conversion</title>
<polygon fill="white" stroke="none" points="-4,4 -4,-341 813.96,-341 813.96,4 -4,4"/>
<!-- Node1 -->
<g id="node1" class="node"><title>Node1</title>
<polygon fill="#bfbfbf" stroke="black" points="0,-139.5 0,-157.5 86.0391,-157.5 86.0391,-139.5 0,-139.5"/>
<text text-anchor="middle" x="43.0195" y="-145.5" font-family="Helvetica,sans-Serif" font-size="10.00">test_conversion</text>
</g>
<!-- Node2 -->
<g id="node2" class="node"><title>Node2</title>
<g id="a_node2"><a xlink:href="$classQuaternion.html#aff2d2d3d1c5937523df8357deae4eeab" xlink:title="Quaternion::from_euler">
<polygon fill="white" stroke="black" points="122.039,-273.5 122.039,-291.5 240.871,-291.5 240.871,-273.5 122.039,-273.5"/>
<text text-anchor="middle" x="181.455" y="-279.5" font-family="Helvetica,sans-Serif" font-size="10.00">Quaternion::from_euler</text>
</a>
</g>
</g>
<!-- Node1&#45;&gt;Node2 -->
<g id="edge1" class="edge"><title>Node1&#45;&gt;Node2</title>
<path fill="none" stroke="midnightblue" d="M47.5811,-157.58C56.6029,-179.396 82.4859,-235.124 122.039,-264.5 124.355,-266.22 126.838,-267.778 129.427,-269.189"/>
<polygon fill="midnightblue" stroke="midnightblue" points="128.001,-272.386 138.544,-273.439 130.959,-266.041 128.001,-272.386"/>
</g>
<!-- Node3 -->
<g id="node3" class="node"><title>Node3</title>
<g id="a_node3"><a xlink:href="$classQuaternion.html#ab3049efa36b211699ca03ea53970f0fd" xlink:title="Quaternion::to_euler">
<polygon fill="white" stroke="black" points="127.869,-236.5 127.869,-254.5 235.041,-254.5 235.041,-236.5 127.869,-236.5"/>
<text text-anchor="middle" x="181.455" y="-242.5" font-family="Helvetica,sans-Serif" font-size="10.00">Quaternion::to_euler</text>
</a>
</g>
</g>
<!-- Node1&#45;&gt;Node3 -->
<g id="edge2" class="edge"><title>Node1&#45;&gt;Node3</title>
<path fill="none" stroke="midnightblue" d="M51.8182,-157.707C64.9779,-172.766 93.0101,-202.852 122.039,-221.5 128.508,-225.656 135.816,-229.335 143.018,-232.488"/>
<polygon fill="midnightblue" stroke="midnightblue" points="142.105,-235.897 152.685,-236.456 144.763,-229.421 142.105,-235.897"/>
</g>
<!-- Node8 -->
<g id="node8" class="node"><title>Node8</title>
<g id="a_node8"><a xlink:href="$eulers_8cpp.html#a6bfa6320a080694c8cdf18de74004189" xlink:title="check_result">
<polygon fill="white" stroke="black" points="145.386,-160.5 145.386,-178.5 217.524,-178.5 217.524,-160.5 145.386,-160.5"/>
<text text-anchor="middle" x="181.455" y="-166.5" font-family="Helvetica,sans-Serif" font-size="10.00">check_result</text>
</a>
</g>
</g>
<!-- Node1&#45;&gt;Node8 -->
<g id="edge7" class="edge"><title>Node1&#45;&gt;Node8</title>
<path fill="none" stroke="midnightblue" d="M86.068,-154.972C101.611,-157.364 119.291,-160.086 135.113,-162.521"/>
<polygon fill="midnightblue" stroke="midnightblue" points="134.786,-166.012 145.202,-164.074 135.851,-159.093 134.786,-166.012"/>
</g>
<!-- Node9 -->
<g id="node9" class="node"><title>Node9</title>
<g id="a_node9"><a xlink:href="$classAP__HAL_1_1UARTDriver.html#a65c7824b8877f7a2f79365c8ffae8f56" xlink:title="AP_HAL::UARTDriver\l::printf">
<polygon fill="white" stroke="black" points="288.099,-92.5 288.099,-120.5 401.721,-120.5 401.721,-92.5 288.099,-92.5"/>
<text text-anchor="start" x="296.099" y="-108.5" font-family="Helvetica,sans-Serif" font-size="10.00">AP_HAL::UARTDriver</text>
<text text-anchor="middle" x="344.91" y="-98.5" font-family="Helvetica,sans-Serif" font-size="10.00">::printf</text>
</a>
</g>
</g>
<!-- Node1&#45;&gt;Node9 -->
<g id="edge22" class="edge"><title>Node1&#45;&gt;Node9</title>
<path fill="none" stroke="midnightblue" d="M55.6051,-139.402C70.1485,-128.616 96.3192,-111.253 122.039,-104.5 173.023,-91.1144 232.897,-92.6103 277.588,-96.9031"/>
<polygon fill="midnightblue" stroke="midnightblue" points="277.438,-100.406 287.744,-97.9515 278.156,-93.4431 277.438,-100.406"/>
</g>
<!-- Node18 -->
<g id="node18" class="node"><title>Node18</title>
<g id="a_node18"><a xlink:href="$classQuaternion.html#afb7132c9c69a984a40be950a17effeaa" xlink:title="&#45;*&#45; tab&#45;width: 4; Mode: C++; c&#45;basic&#45;offset: 4; indent&#45;tabs&#45;mode: nil &#45;*&#45; ">
<polygon fill="white" stroke="black" points="129.261,-113.5 129.261,-141.5 233.649,-141.5 233.649,-113.5 129.261,-113.5"/>
<text text-anchor="start" x="137.261" y="-129.5" font-family="Helvetica,sans-Serif" font-size="10.00">Quaternion::rotation</text>
<text text-anchor="middle" x="181.455" y="-119.5" font-family="Helvetica,sans-Serif" font-size="10.00">_matrix</text>
</a>
</g>
</g>
<!-- Node1&#45;&gt;Node18 -->
<g id="edge17" class="edge"><title>Node1&#45;&gt;Node18</title>
<path fill="none" stroke="midnightblue" d="M86.068,-142.028C96.4986,-140.422 107.891,-138.669 119.039,-136.953"/>
<polygon fill="midnightblue" stroke="midnightblue" points="119.823,-140.374 129.174,-135.393 118.758,-133.455 119.823,-140.374"/>
</g>
<!-- Node19 -->
<g id="node19" class="node"><title>Node19</title>
<g id="a_node19"><a xlink:href="$classMatrix3.html#a893c6a712d52e47dbb7ed2d7a548046e" xlink:title="Matrix3::to_euler">
<polygon fill="white" stroke="black" points="299.671,-197.5 299.671,-215.5 390.149,-215.5 390.149,-197.5 299.671,-197.5"/>
<text text-anchor="middle" x="344.91" y="-203.5" font-family="Helvetica,sans-Serif" font-size="10.00">Matrix3::to_euler</text>
</a>
</g>
</g>
<!-- Node1&#45;&gt;Node19 -->
<g id="edge18" class="edge"><title>Node1&#45;&gt;Node19</title>
<path fill="none" stroke="midnightblue" d="M57.7036,-157.637C72.7632,-167.171 98.0298,-181.665 122.039,-188.5 177.557,-204.305 243.82,-207.795 289.39,-207.959"/>
<polygon fill="midnightblue" stroke="midnightblue" points="289.654,-211.459 299.648,-207.942 289.642,-204.459 289.654,-211.459"/>
</g>
<!-- Node20 -->
<g id="node20" class="node"><title>Node20</title>
<g id="a_node20"><a xlink:href="$classMatrix3.html#a62587bd216436f09f06b9e1330f84bc0" xlink:title="&#45;*&#45; tab&#45;width: 4; Mode: C++; c&#45;basic&#45;offset: 4; indent&#45;tabs&#45;mode: nil &#45;*&#45; ">
<polygon fill="white" stroke="black" points="130.386,-37.5 130.386,-55.5 232.524,-55.5 232.524,-37.5 130.386,-37.5"/>
<text text-anchor="middle" x="181.455" y="-43.5" font-family="Helvetica,sans-Serif" font-size="10.00">Matrix3::from_euler</text>
</a>
</g>
</g>
<!-- Node1&#45;&gt;Node20 -->
<g id="edge20" class="edge"><title>Node1&#45;&gt;Node20</title>
<path fill="none" stroke="midnightblue" d="M51.0633,-139.392C63.7432,-123.518 91.9101,-90.5662 122.039,-70.5 128.313,-66.3216 135.43,-62.6565 142.485,-59.5304"/>
<polygon fill="midnightblue" stroke="midnightblue" points="144.078,-62.6593 151.982,-55.604 141.403,-56.1903 144.078,-62.6593"/>
</g>
<!-- Node21 -->
<g id="node21" class="node"><title>Node21</title>
<g id="a_node21"><a xlink:href="$classMatrix3.html#a2c69227a793818d8a8f47e99ffa99885" xlink:title="Matrix3::is_nan">
<polygon fill="white" stroke="black" points="139.551,-0.5 139.551,-18.5 223.359,-18.5 223.359,-0.5 139.551,-0.5"/>
<text text-anchor="middle" x="181.455" y="-6.5" font-family="Helvetica,sans-Serif" font-size="10.00">Matrix3::is_nan</text>
</a>
</g>
</g>
<!-- Node1&#45;&gt;Node21 -->
<g id="edge21" class="edge"><title>Node1&#45;&gt;Node21</title>
<path fill="none" stroke="midnightblue" d="M47.3387,-139.363C55.9864,-116.848 81.4003,-58.2976 122.039,-27.5 124.538,-25.6061 127.238,-23.9097 130.06,-22.3903"/>
<polygon fill="midnightblue" stroke="midnightblue" points="131.756,-25.4631 139.389,-18.1153 128.84,-19.0995 131.756,-25.4631"/>
</g>
<!-- Node4 -->
<g id="node4" class="node"><title>Node4</title>
<g id="a_node4"><a xlink:href="$classQuaternion.html#a9ae6c42349ddc744022a4a1cf7868eb0" xlink:title="Quaternion::get_euler_roll">
<polygon fill="white" stroke="black" points="279.095,-318.5 279.095,-336.5 410.725,-336.5 410.725,-318.5 279.095,-318.5"/>
<text text-anchor="middle" x="344.91" y="-324.5" font-family="Helvetica,sans-Serif" font-size="10.00">Quaternion::get_euler_roll</text>
</a>
</g>
</g>
<!-- Node3&#45;&gt;Node4 -->
<g id="edge3" class="edge"><title>Node3&#45;&gt;Node4</title>
<path fill="none" stroke="midnightblue" d="M221.047,-254.515C227.99,-257.099 234.907,-260.374 240.871,-264.5 261.934,-279.073 255.436,-295.481 276.871,-309.5 279.783,-311.405 282.891,-313.109 286.114,-314.633"/>
<polygon fill="midnightblue" stroke="midnightblue" points="284.854,-317.899 295.433,-318.471 287.519,-311.426 284.854,-317.899"/>
</g>
<!-- Node5 -->
<g id="node5" class="node"><title>Node5</title>
<g id="a_node5"><a xlink:href="$classQuaternion.html#a0bfe50c332309932cd833b83f6524e5f" xlink:title="Quaternion::get_euler\l_pitch">
<polygon fill="white" stroke="black" points="288.543,-271.5 288.543,-299.5 401.277,-299.5 401.277,-271.5 288.543,-271.5"/>
<text text-anchor="start" x="296.543" y="-287.5" font-family="Helvetica,sans-Serif" font-size="10.00">Quaternion::get_euler</text>
<text text-anchor="middle" x="344.91" y="-277.5" font-family="Helvetica,sans-Serif" font-size="10.00">_pitch</text>
</a>
</g>
</g>
<!-- Node3&#45;&gt;Node5 -->
<g id="edge4" class="edge"><title>Node3&#45;&gt;Node5</title>
<path fill="none" stroke="midnightblue" d="M219.092,-254.577C236.682,-258.935 258.301,-264.291 278.575,-269.313"/>
<polygon fill="midnightblue" stroke="midnightblue" points="277.848,-272.739 288.396,-271.747 279.531,-265.944 277.848,-272.739"/>
</g>
<!-- Node7 -->
<g id="node7" class="node"><title>Node7</title>
<g id="a_node7"><a xlink:href="$classQuaternion.html#a35c2a1030832728574363ed8655da625" xlink:title="Quaternion::get_euler_yaw">
<polygon fill="white" stroke="black" points="276.871,-234.5 276.871,-252.5 412.949,-252.5 412.949,-234.5 276.871,-234.5"/>
<text text-anchor="middle" x="344.91" y="-240.5" font-family="Helvetica,sans-Serif" font-size="10.00">Quaternion::get_euler_yaw</text>
</a>
</g>
</g>
<!-- Node3&#45;&gt;Node7 -->
<g id="edge6" class="edge"><title>Node3&#45;&gt;Node7</title>
<path fill="none" stroke="midnightblue" d="M235.322,-244.845C245.357,-244.721 256.048,-244.588 266.659,-244.457"/>
<polygon fill="midnightblue" stroke="midnightblue" points="266.827,-247.955 276.783,-244.332 266.74,-240.956 266.827,-247.955"/>
</g>
<!-- Node6 -->
<g id="node6" class="node"><title>Node6</title>
<g id="a_node6"><a xlink:href="$AP__Math_8cpp.html#a2706fd969ad73bc8ef977d964c04f4a3" xlink:title="safe_asin">
<polygon fill="white" stroke="black" points="476.356,-236.5 476.356,-254.5 535.164,-254.5 535.164,-236.5 476.356,-236.5"/>
<text text-anchor="middle" x="505.76" y="-242.5" font-family="Helvetica,sans-Serif" font-size="10.00">safe_asin</text>
</a>
</g>
</g>
<!-- Node5&#45;&gt;Node6 -->
<g id="edge5" class="edge"><title>Node5&#45;&gt;Node6</title>
<path fill="none" stroke="midnightblue" d="M401.468,-271.51C422.953,-266.1 447.007,-260.043 466.493,-255.136"/>
<polygon fill="midnightblue" stroke="midnightblue" points="467.387,-258.52 476.229,-252.684 465.677,-251.732 467.387,-258.52"/>
</g>
<!-- Node8&#45;&gt;Node9 -->
<g id="edge8" class="edge"><title>Node8&#45;&gt;Node9</title>
<path fill="none" stroke="midnightblue" d="M214.203,-160.43C222.915,-157.748 232.315,-154.675 240.871,-151.5 262.32,-143.541 285.725,-133.438 304.801,-124.822"/>
<polygon fill="midnightblue" stroke="midnightblue" points="306.419,-127.931 314.068,-120.6 303.517,-121.561 306.419,-127.931"/>
</g>
<!-- Node17 -->
<g id="node17" class="node"><title>Node17</title>
<g id="a_node17"><a xlink:href="$eulers_8cpp.html#aa94c06a1eb86dc7dd817303e608203b6" xlink:title="rad_diff">
<polygon fill="white" stroke="black" points="320.321,-160.5 320.321,-178.5 369.5,-178.5 369.5,-160.5 320.321,-160.5"/>
<text text-anchor="middle" x="344.91" y="-166.5" font-family="Helvetica,sans-Serif" font-size="10.00">rad_diff</text>
</a>
</g>
</g>
<!-- Node8&#45;&gt;Node17 -->
<g id="edge16" class="edge"><title>Node8&#45;&gt;Node17</title>
<path fill="none" stroke="midnightblue" d="M217.887,-169.5C245.258,-169.5 282.9,-169.5 309.905,-169.5"/>
<polygon fill="midnightblue" stroke="midnightblue" points="310.048,-173 320.048,-169.5 310.048,-166 310.048,-173"/>
</g>
<!-- Node10 -->
<g id="node10" class="node"><title>Node10</title>
<g id="a_node10"><a xlink:href="$classAP__HAL_1_1UARTDriver.html#aa8abfb6d6641299472c29ac1edde559f" xlink:title="AP_HAL::UARTDriver\l::vprintf">
<polygon fill="white" stroke="black" points="448.949,-92.5 448.949,-120.5 562.571,-120.5 562.571,-92.5 448.949,-92.5"/>
<text text-anchor="start" x="456.949" y="-108.5" font-family="Helvetica,sans-Serif" font-size="10.00">AP_HAL::UARTDriver</text>
<text text-anchor="middle" x="505.76" y="-98.5" font-family="Helvetica,sans-Serif" font-size="10.00">::vprintf</text>
</a>
</g>
</g>
<!-- Node9&#45;&gt;Node10 -->
<g id="edge9" class="edge"><title>Node9&#45;&gt;Node10</title>
<path fill="none" stroke="midnightblue" d="M401.915,-106.5C413.778,-106.5 426.407,-106.5 438.606,-106.5"/>
<polygon fill="midnightblue" stroke="midnightblue" points="438.726,-110 448.726,-106.5 438.726,-103 438.726,-110"/>
</g>
<!-- Node11 -->
<g id="node11" class="node"><title>Node11</title>
<g id="a_node11"><a xlink:href="$print__vprintf_8cpp.html#a473b9349f4b086b552a21eb8fe057016" xlink:title="print_vprintf">
<polygon fill="white" stroke="black" points="598.571,-97.5 598.571,-115.5 666.817,-115.5 666.817,-97.5 598.571,-97.5"/>
<text text-anchor="middle" x="632.694" y="-103.5" font-family="Helvetica,sans-Serif" font-size="10.00">print_vprintf</text>
</a>
</g>
</g>
<!-- Node10&#45;&gt;Node11 -->
<g id="edge10" class="edge"><title>Node10&#45;&gt;Node11</title>
<path fill="none" stroke="midnightblue" d="M562.65,-106.5C571.238,-106.5 579.994,-106.5 588.258,-106.5"/>
<polygon fill="midnightblue" stroke="midnightblue" points="588.414,-110 598.414,-106.5 588.414,-103 588.414,-110"/>
</g>
<!-- Node12 -->
<g id="node12" class="node"><title>Node12</title>
<g id="a_node12"><a xlink:href="$classAP__HAL_1_1Print.html#acc65391952a43334f8f5c9bef341f501" xlink:title="AP_HAL::Print::write">
<polygon fill="white" stroke="black" points="702.817,-171.5 702.817,-189.5 809.96,-189.5 809.96,-171.5 702.817,-171.5"/>
<text text-anchor="middle" x="756.389" y="-177.5" font-family="Helvetica,sans-Serif" font-size="10.00">AP_HAL::Print::write</text>
</a>
</g>
</g>
<!-- Node11&#45;&gt;Node12 -->
<g id="edge11" class="edge"><title>Node11&#45;&gt;Node12</title>
<path fill="none" stroke="midnightblue" d="M642.758,-115.633C655.281,-127.806 679.033,-149.34 702.817,-162.5 706.28,-164.416 709.982,-166.18 713.758,-167.791"/>
<polygon fill="midnightblue" stroke="midnightblue" points="712.616,-171.103 723.204,-171.483 715.165,-164.583 712.616,-171.103"/>
</g>
<!-- Node13 -->
<g id="node13" class="node"><title>Node13</title>
<g id="a_node13"><a xlink:href="$ftoa__engine_8cpp.html#a1c28234da8f20b43c85890d4bb452947" xlink:title="ftoa_engine">
<polygon fill="white" stroke="black" points="722.253,-134.5 722.253,-152.5 790.524,-152.5 790.524,-134.5 722.253,-134.5"/>
<text text-anchor="middle" x="756.389" y="-140.5" font-family="Helvetica,sans-Serif" font-size="10.00">ftoa_engine</text>
</a>
</g>
</g>
<!-- Node11&#45;&gt;Node13 -->
<g id="edge12" class="edge"><title>Node11&#45;&gt;Node13</title>
<path fill="none" stroke="midnightblue" d="M663.464,-115.551C679.228,-120.344 698.797,-126.294 715.822,-131.47"/>
<polygon fill="midnightblue" stroke="midnightblue" points="714.919,-134.854 725.504,-134.414 716.955,-128.156 714.919,-134.854"/>
</g>
<!-- Node14 -->
<g id="node14" class="node"><title>Node14</title>
<g id="a_node14"><a xlink:href="$AP__Progmem_8h.html#a1514e0408e036062b4af844baaf567da" xlink:title="pgm_read_byte">
<polygon fill="white" stroke="black" points="713.643,-97.5 713.643,-115.5 799.135,-115.5 799.135,-97.5 713.643,-97.5"/>
<text text-anchor="middle" x="756.389" y="-103.5" font-family="Helvetica,sans-Serif" font-size="10.00">pgm_read_byte</text>
</a>
</g>
</g>
<!-- Node11&#45;&gt;Node14 -->
<g id="edge13" class="edge"><title>Node11&#45;&gt;Node14</title>
<path fill="none" stroke="midnightblue" d="M666.948,-106.5C678.164,-106.5 690.966,-106.5 703.281,-106.5"/>
<polygon fill="midnightblue" stroke="midnightblue" points="703.466,-110 713.466,-106.5 703.466,-103 703.466,-110"/>
</g>
<!-- Node15 -->
<g id="node15" class="node"><title>Node15</title>
<g id="a_node15"><a xlink:href="$utoa__invert_8cpp.html#a34926f552460b47c414ec4d83b32815c" xlink:title="ulltoa_invert">
<polygon fill="white" stroke="black" points="721.428,-60.5 721.428,-78.5 791.349,-78.5 791.349,-60.5 721.428,-60.5"/>
<text text-anchor="middle" x="756.389" y="-66.5" font-family="Helvetica,sans-Serif" font-size="10.00">ulltoa_invert</text>
</a>
</g>
</g>
<!-- Node11&#45;&gt;Node15 -->
<g id="edge14" class="edge"><title>Node11&#45;&gt;Node15</title>
<path fill="none" stroke="midnightblue" d="M663.464,-97.4488C679.228,-92.6558 698.797,-86.7062 715.822,-81.5298"/>
<polygon fill="midnightblue" stroke="midnightblue" points="716.955,-84.8437 725.504,-78.586 714.919,-78.1464 716.955,-84.8437"/>
</g>
<!-- Node16 -->
<g id="node16" class="node"><title>Node16</title>
<g id="a_node16"><a xlink:href="$utoa__invert_8cpp.html#a5d99bba8e697c1e11da489d88fca8559" xlink:title="ultoa_invert">
<polygon fill="white" stroke="black" points="722.539,-23.5 722.539,-41.5 790.238,-41.5 790.238,-23.5 722.539,-23.5"/>
<text text-anchor="middle" x="756.389" y="-29.5" font-family="Helvetica,sans-Serif" font-size="10.00">ultoa_invert</text>
</a>
</g>
</g>
<!-- Node11&#45;&gt;Node16 -->
<g id="edge15" class="edge"><title>Node11&#45;&gt;Node16</title>
<path fill="none" stroke="midnightblue" d="M643.257,-97.1918C655.96,-85.2457 679.522,-64.514 702.817,-51.5 706.834,-49.2563 711.165,-47.192 715.558,-45.3176"/>
<polygon fill="midnightblue" stroke="midnightblue" points="717.156,-48.4496 725.172,-41.5217 714.585,-41.9387 717.156,-48.4496"/>
</g>
<!-- Node19&#45;&gt;Node6 -->
<g id="edge19" class="edge"><title>Node19&#45;&gt;Node6</title>
<path fill="none" stroke="midnightblue" d="M382.753,-215.545C407.805,-221.696 440.882,-229.817 466.275,-236.051"/>
<polygon fill="midnightblue" stroke="midnightblue" points="465.746,-239.525 476.292,-238.511 467.415,-232.727 465.746,-239.525"/>
</g>
</g>
</svg>
