<?xml version="1.0" encoding="UTF-8" standalone="no"?>
<!DOCTYPE svg PUBLIC "-//W3C//DTD SVG 1.1//EN"
 "http://www.w3.org/Graphics/SVG/1.1/DTD/svg11.dtd">
<!-- Generated by graphviz version 2.38.0 (20140413.2041)
 -->
<!-- Title: test_matrix_rotate Pages: 1 -->
<svg width="651pt" height="217pt"
 viewBox="0.00 0.00 650.67 217.00" xmlns="http://www.w3.org/2000/svg" xmlns:xlink="http://www.w3.org/1999/xlink">
<g id="graph0" class="graph" transform="scale(1 1) rotate(0) translate(4 213)">
<title>test_matrix_rotate</title>
<polygon fill="white" stroke="none" points="-4,4 -4,-213 646.667,-213 646.667,4 -4,4"/>
<!-- Node1 -->
<g id="node1" class="node"><title>Node1</title>
<polygon fill="#bfbfbf" stroke="black" points="0,-134.5 0,-152.5 96.0342,-152.5 96.0342,-134.5 0,-134.5"/>
<text text-anchor="middle" x="48.0171" y="-140.5" font-family="Helvetica,sans-Serif" font-size="10.00">test_matrix_rotate</text>
</g>
<!-- Node2 -->
<g id="node2" class="node"><title>Node2</title>
<g id="a_node2"><a xlink:href="$classMatrix3.html#acfd79fa5d5968b42219a9b6d017ac5b5" xlink:title="Matrix3::identity">
<polygon fill="white" stroke="black" points="145.833,-190.5 145.833,-208.5 231.857,-208.5 231.857,-190.5 145.833,-190.5"/>
<text text-anchor="middle" x="188.845" y="-196.5" font-family="Helvetica,sans-Serif" font-size="10.00">Matrix3::identity</text>
</a>
</g>
</g>
<!-- Node1&#45;&gt;Node2 -->
<g id="edge1" class="edge"><title>Node1&#45;&gt;Node2</title>
<path fill="none" stroke="midnightblue" d="M67.2162,-152.58C83.861,-160.703 109.281,-172.659 132.034,-181.5 137.135,-183.482 142.554,-185.425 147.933,-187.259"/>
<polygon fill="midnightblue" stroke="midnightblue" points="146.901,-190.604 157.494,-190.425 149.102,-183.959 146.901,-190.604"/>
</g>
<!-- Node3 -->
<g id="node3" class="node"><title>Node3</title>
<g id="a_node3"><a xlink:href="$eulers_8cpp.html#a947c961d7787a2c96e3f6768e6e6c38c" xlink:title="rand_num">
<polygon fill="white" stroke="black" points="158.331,-153.5 158.331,-171.5 219.36,-171.5 219.36,-153.5 158.331,-153.5"/>
<text text-anchor="middle" x="188.845" y="-159.5" font-family="Helvetica,sans-Serif" font-size="10.00">rand_num</text>
</a>
</g>
</g>
<!-- Node1&#45;&gt;Node3 -->
<g id="edge2" class="edge"><title>Node1&#45;&gt;Node3</title>
<path fill="none" stroke="midnightblue" d="M96.4056,-149.986C113.159,-152.278 131.822,-154.833 147.896,-157.033"/>
<polygon fill="midnightblue" stroke="midnightblue" points="147.657,-160.532 158.039,-158.421 148.606,-153.597 147.657,-160.532"/>
</g>
<!-- Node4 -->
<g id="node4" class="node"><title>Node4</title>
<g id="a_node4"><a xlink:href="$classMatrix3.html#a6f044e8d64f6f10e054af962487399b9" xlink:title="Matrix3::rotate">
<polygon fill="white" stroke="black" points="148.89,-116.5 148.89,-134.5 228.801,-134.5 228.801,-116.5 148.89,-116.5"/>
<text text-anchor="middle" x="188.845" y="-122.5" font-family="Helvetica,sans-Serif" font-size="10.00">Matrix3::rotate</text>
</a>
</g>
</g>
<!-- Node1&#45;&gt;Node4 -->
<g id="edge3" class="edge"><title>Node1&#45;&gt;Node4</title>
<path fill="none" stroke="midnightblue" d="M96.4056,-137.356C109.926,-135.603 124.69,-133.688 138.334,-131.92"/>
<polygon fill="midnightblue" stroke="midnightblue" points="139.042,-135.357 148.509,-130.6 138.142,-128.415 139.042,-135.357"/>
</g>
<!-- Node5 -->
<g id="node5" class="node"><title>Node5</title>
<g id="a_node5"><a xlink:href="$classAP__HAL_1_1UARTDriver.html#a65c7824b8877f7a2f79365c8ffae8f56" xlink:title="AP_HAL::UARTDriver\l::printf">
<polygon fill="white" stroke="black" points="132.034,-69.5 132.034,-97.5 245.656,-97.5 245.656,-69.5 132.034,-69.5"/>
<text text-anchor="start" x="140.034" y="-85.5" font-family="Helvetica,sans-Serif" font-size="10.00">AP_HAL::UARTDriver</text>
<text text-anchor="middle" x="188.845" y="-75.5" font-family="Helvetica,sans-Serif" font-size="10.00">::printf</text>
</a>
</g>
</g>
<!-- Node1&#45;&gt;Node5 -->
<g id="edge4" class="edge"><title>Node1&#45;&gt;Node5</title>
<path fill="none" stroke="midnightblue" d="M69.821,-134.458C86.6075,-127.166 110.834,-116.655 132.034,-107.5 136.461,-105.588 141.087,-103.594 145.699,-101.607"/>
<polygon fill="midnightblue" stroke="midnightblue" points="147.278,-104.738 155.08,-97.5699 144.511,-98.3085 147.278,-104.738"/>
</g>
<!-- Node6 -->
<g id="node6" class="node"><title>Node6</title>
<g id="a_node6"><a xlink:href="$classAP__HAL_1_1UARTDriver.html#aa8abfb6d6641299472c29ac1edde559f" xlink:title="AP_HAL::UARTDriver\l::vprintf">
<polygon fill="white" stroke="black" points="281.656,-69.5 281.656,-97.5 395.278,-97.5 395.278,-69.5 281.656,-69.5"/>
<text text-anchor="start" x="289.656" y="-85.5" font-family="Helvetica,sans-Serif" font-size="10.00">AP_HAL::UARTDriver</text>
<text text-anchor="middle" x="338.467" y="-75.5" font-family="Helvetica,sans-Serif" font-size="10.00">::vprintf</text>
</a>
</g>
</g>
<!-- Node5&#45;&gt;Node6 -->
<g id="edge5" class="edge"><title>Node5&#45;&gt;Node6</title>
<path fill="none" stroke="midnightblue" d="M246.076,-83.5C254.302,-83.5 262.837,-83.5 271.239,-83.5"/>
<polygon fill="midnightblue" stroke="midnightblue" points="271.393,-87.0001 281.393,-83.5 271.393,-80.0001 271.393,-87.0001"/>
</g>
<!-- Node7 -->
<g id="node7" class="node"><title>Node7</title>
<g id="a_node7"><a xlink:href="$print__vprintf_8cpp.html#a473b9349f4b086b552a21eb8fe057016" xlink:title="print_vprintf">
<polygon fill="white" stroke="black" points="431.278,-74.5 431.278,-92.5 499.524,-92.5 499.524,-74.5 431.278,-74.5"/>
<text text-anchor="middle" x="465.401" y="-80.5" font-family="Helvetica,sans-Serif" font-size="10.00">print_vprintf</text>
</a>
</g>
</g>
<!-- Node6&#45;&gt;Node7 -->
<g id="edge6" class="edge"><title>Node6&#45;&gt;Node7</title>
<path fill="none" stroke="midnightblue" d="M395.357,-83.5C403.945,-83.5 412.701,-83.5 420.965,-83.5"/>
<polygon fill="midnightblue" stroke="midnightblue" points="421.121,-87.0001 431.121,-83.5 421.121,-80.0001 421.121,-87.0001"/>
</g>
<!-- Node8 -->
<g id="node8" class="node"><title>Node8</title>
<g id="a_node8"><a xlink:href="$classAP__HAL_1_1Print.html#acc65391952a43334f8f5c9bef341f501" xlink:title="AP_HAL::Print::write">
<polygon fill="white" stroke="black" points="535.524,-148.5 535.524,-166.5 642.667,-166.5 642.667,-148.5 535.524,-148.5"/>
<text text-anchor="middle" x="589.096" y="-154.5" font-family="Helvetica,sans-Serif" font-size="10.00">AP_HAL::Print::write</text>
</a>
</g>
</g>
<!-- Node7&#45;&gt;Node8 -->
<g id="edge7" class="edge"><title>Node7&#45;&gt;Node8</title>
<path fill="none" stroke="midnightblue" d="M475.465,-92.6327C487.988,-104.806 511.74,-126.34 535.524,-139.5 538.987,-141.416 542.689,-143.18 546.465,-144.791"/>
<polygon fill="midnightblue" stroke="midnightblue" points="545.323,-148.103 555.911,-148.483 547.872,-141.583 545.323,-148.103"/>
</g>
<!-- Node9 -->
<g id="node9" class="node"><title>Node9</title>
<g id="a_node9"><a xlink:href="$ftoa__engine_8cpp.html#a1c28234da8f20b43c85890d4bb452947" xlink:title="ftoa_engine">
<polygon fill="white" stroke="black" points="554.96,-111.5 554.96,-129.5 623.231,-129.5 623.231,-111.5 554.96,-111.5"/>
<text text-anchor="middle" x="589.096" y="-117.5" font-family="Helvetica,sans-Serif" font-size="10.00">ftoa_engine</text>
</a>
</g>
</g>
<!-- Node7&#45;&gt;Node9 -->
<g id="edge8" class="edge"><title>Node7&#45;&gt;Node9</title>
<path fill="none" stroke="midnightblue" d="M496.171,-92.5512C511.935,-97.3442 531.504,-103.294 548.529,-108.47"/>
<polygon fill="midnightblue" stroke="midnightblue" points="547.626,-111.854 558.211,-111.414 549.662,-105.156 547.626,-111.854"/>
</g>
<!-- Node10 -->
<g id="node10" class="node"><title>Node10</title>
<g id="a_node10"><a xlink:href="$AP__Progmem_8h.html#a1514e0408e036062b4af844baaf567da" xlink:title="pgm_read_byte">
<polygon fill="white" stroke="black" points="546.35,-74.5 546.35,-92.5 631.842,-92.5 631.842,-74.5 546.35,-74.5"/>
<text text-anchor="middle" x="589.096" y="-80.5" font-family="Helvetica,sans-Serif" font-size="10.00">pgm_read_byte</text>
</a>
</g>
</g>
<!-- Node7&#45;&gt;Node10 -->
<g id="edge9" class="edge"><title>Node7&#45;&gt;Node10</title>
<path fill="none" stroke="midnightblue" d="M499.655,-83.5C510.871,-83.5 523.674,-83.5 535.989,-83.5"/>
<polygon fill="midnightblue" stroke="midnightblue" points="536.173,-87.0001 546.173,-83.5 536.173,-80.0001 536.173,-87.0001"/>
</g>
<!-- Node11 -->
<g id="node11" class="node"><title>Node11</title>
<g id="a_node11"><a xlink:href="$utoa__invert_8cpp.html#a34926f552460b47c414ec4d83b32815c" xlink:title="ulltoa_invert">
<polygon fill="white" stroke="black" points="554.135,-37.5 554.135,-55.5 624.056,-55.5 624.056,-37.5 554.135,-37.5"/>
<text text-anchor="middle" x="589.096" y="-43.5" font-family="Helvetica,sans-Serif" font-size="10.00">ulltoa_invert</text>
</a>
</g>
</g>
<!-- Node7&#45;&gt;Node11 -->
<g id="edge10" class="edge"><title>Node7&#45;&gt;Node11</title>
<path fill="none" stroke="midnightblue" d="M496.171,-74.4488C511.935,-69.6558 531.504,-63.7062 548.529,-58.5298"/>
<polygon fill="midnightblue" stroke="midnightblue" points="549.662,-61.8437 558.211,-55.586 547.626,-55.1464 549.662,-61.8437"/>
</g>
<!-- Node12 -->
<g id="node12" class="node"><title>Node12</title>
<g id="a_node12"><a xlink:href="$utoa__invert_8cpp.html#a5d99bba8e697c1e11da489d88fca8559" xlink:title="ultoa_invert">
<polygon fill="white" stroke="black" points="555.246,-0.5 555.246,-18.5 622.945,-18.5 622.945,-0.5 555.246,-0.5"/>
<text text-anchor="middle" x="589.096" y="-6.5" font-family="Helvetica,sans-Serif" font-size="10.00">ultoa_invert</text>
</a>
</g>
</g>
<!-- Node7&#45;&gt;Node12 -->
<g id="edge11" class="edge"><title>Node7&#45;&gt;Node12</title>
<path fill="none" stroke="midnightblue" d="M475.964,-74.1918C488.667,-62.2457 512.229,-41.514 535.524,-28.5 539.541,-26.2563 543.873,-24.192 548.265,-22.3176"/>
<polygon fill="midnightblue" stroke="midnightblue" points="549.863,-25.4496 557.879,-18.5217 547.292,-18.9387 549.863,-25.4496"/>
</g>
</g>
</svg>
