<?xml version="1.0" encoding="UTF-8" standalone="no"?>
<!DOCTYPE svg PUBLIC "-//W3C//DTD SVG 1.1//EN"
 "http://www.w3.org/Graphics/SVG/1.1/DTD/svg11.dtd">
<!-- Generated by graphviz version 2.38.0 (20140413.2041)
 -->
<!-- Title: loop Pages: 1 -->
<svg width="595pt" height="190pt"
 viewBox="0.00 0.00 595.30 190.00" xmlns="http://www.w3.org/2000/svg" xmlns:xlink="http://www.w3.org/1999/xlink">
<g id="graph0" class="graph" transform="scale(1 1) rotate(0) translate(4 186)">
<title>loop</title>
<polygon fill="white" stroke="none" points="-4,4 -4,-186 591.301,-186 591.301,4 -4,4"/>
<!-- Node1 -->
<g id="node1" class="node"><title>Node1</title>
<polygon fill="#bfbfbf" stroke="black" points="0,-47.5 0,-65.5 34.9062,-65.5 34.9062,-47.5 0,-47.5"/>
<text text-anchor="middle" x="17.4531" y="-53.5" font-family="Helvetica,sans-Serif" font-size="10.00">loop</text>
</g>
<!-- Node2 -->
<g id="node2" class="node"><title>Node2</title>
<g id="a_node2"><a xlink:href="$classAP__HAL_1_1UARTDriver.html#a65c7824b8877f7a2f79365c8ffae8f56" xlink:title="AP_HAL::UARTDriver\l::printf">
<polygon fill="white" stroke="black" points="73.7871,-84.5 73.7871,-112.5 187.409,-112.5 187.409,-84.5 73.7871,-84.5"/>
<text text-anchor="start" x="81.7871" y="-100.5" font-family="Helvetica,sans-Serif" font-size="10.00">AP_HAL::UARTDriver</text>
<text text-anchor="middle" x="130.598" y="-90.5" font-family="Helvetica,sans-Serif" font-size="10.00">::printf</text>
</a>
</g>
</g>
<!-- Node1&#45;&gt;Node2 -->
<g id="edge1" class="edge"><title>Node1&#45;&gt;Node2</title>
<path fill="none" stroke="midnightblue" d="M35.3337,-62.8789C47.9232,-67.6363 65.7722,-74.3812 82.5574,-80.724"/>
<polygon fill="midnightblue" stroke="midnightblue" points="81.678,-84.1332 92.2696,-84.3941 84.1524,-77.5851 81.678,-84.1332"/>
</g>
<!-- Node10 -->
<g id="node10" class="node"><title>Node10</title>
<g id="a_node10"><a xlink:href="$classLowPassFilter2p.html#a98a931a77f5b12f13ecb84fd57a4b7d4" xlink:title="LowPassFilter2p::apply">
<polygon fill="white" stroke="black" points="70.9062,-47.5 70.9062,-65.5 190.29,-65.5 190.29,-47.5 70.9062,-47.5"/>
<text text-anchor="middle" x="130.598" y="-53.5" font-family="Helvetica,sans-Serif" font-size="10.00">LowPassFilter2p::apply</text>
</a>
</g>
</g>
<!-- Node1&#45;&gt;Node10 -->
<g id="edge9" class="edge"><title>Node1&#45;&gt;Node10</title>
<path fill="none" stroke="midnightblue" d="M35.3337,-56.5C42.3799,-56.5 51.0738,-56.5 60.3065,-56.5"/>
<polygon fill="midnightblue" stroke="midnightblue" points="60.4841,-60.0001 70.4841,-56.5 60.4841,-53.0001 60.4841,-60.0001"/>
</g>
<!-- Node11 -->
<g id="node11" class="node"><title>Node11</title>
<g id="a_node11"><a xlink:href="$classAP__HAL_1_1Scheduler.html#ab3175e2e6223ccfe82f957e41cc12b26" xlink:title="AP_HAL::Scheduler::\ldelay">
<polygon fill="white" stroke="black" points="75.3496,-0.5 75.3496,-28.5 185.847,-28.5 185.847,-0.5 75.3496,-0.5"/>
<text text-anchor="start" x="83.3496" y="-16.5" font-family="Helvetica,sans-Serif" font-size="10.00">AP_HAL::Scheduler::</text>
<text text-anchor="middle" x="130.598" y="-6.5" font-family="Helvetica,sans-Serif" font-size="10.00">delay</text>
</a>
</g>
</g>
<!-- Node1&#45;&gt;Node11 -->
<g id="edge10" class="edge"><title>Node1&#45;&gt;Node11</title>
<path fill="none" stroke="midnightblue" d="M35.3337,-50.1211C47.9232,-45.3637 65.7722,-38.6188 82.5574,-32.276"/>
<polygon fill="midnightblue" stroke="midnightblue" points="84.1524,-35.4149 92.2696,-28.6059 81.678,-28.8668 84.1524,-35.4149"/>
</g>
<!-- Node3 -->
<g id="node3" class="node"><title>Node3</title>
<g id="a_node3"><a xlink:href="$classAP__HAL_1_1UARTDriver.html#aa8abfb6d6641299472c29ac1edde559f" xlink:title="AP_HAL::UARTDriver\l::vprintf">
<polygon fill="white" stroke="black" points="226.29,-84.5 226.29,-112.5 339.912,-112.5 339.912,-84.5 226.29,-84.5"/>
<text text-anchor="start" x="234.29" y="-100.5" font-family="Helvetica,sans-Serif" font-size="10.00">AP_HAL::UARTDriver</text>
<text text-anchor="middle" x="283.101" y="-90.5" font-family="Helvetica,sans-Serif" font-size="10.00">::vprintf</text>
</a>
</g>
</g>
<!-- Node2&#45;&gt;Node3 -->
<g id="edge2" class="edge"><title>Node2&#45;&gt;Node3</title>
<path fill="none" stroke="midnightblue" d="M187.64,-98.5C196.908,-98.5 206.592,-98.5 216.077,-98.5"/>
<polygon fill="midnightblue" stroke="midnightblue" points="216.263,-102 226.263,-98.5 216.263,-95.0001 216.263,-102"/>
</g>
<!-- Node4 -->
<g id="node4" class="node"><title>Node4</title>
<g id="a_node4"><a xlink:href="$print__vprintf_8cpp.html#a473b9349f4b086b552a21eb8fe057016" xlink:title="print_vprintf">
<polygon fill="white" stroke="black" points="375.912,-89.5 375.912,-107.5 444.158,-107.5 444.158,-89.5 375.912,-89.5"/>
<text text-anchor="middle" x="410.035" y="-95.5" font-family="Helvetica,sans-Serif" font-size="10.00">print_vprintf</text>
</a>
</g>
</g>
<!-- Node3&#45;&gt;Node4 -->
<g id="edge3" class="edge"><title>Node3&#45;&gt;Node4</title>
<path fill="none" stroke="midnightblue" d="M339.991,-98.5C348.579,-98.5 357.335,-98.5 365.599,-98.5"/>
<polygon fill="midnightblue" stroke="midnightblue" points="365.755,-102 375.755,-98.5 365.755,-95.0001 365.755,-102"/>
</g>
<!-- Node5 -->
<g id="node5" class="node"><title>Node5</title>
<g id="a_node5"><a xlink:href="$classAP__HAL_1_1Print.html#acc65391952a43334f8f5c9bef341f501" xlink:title="AP_HAL::Print::write">
<polygon fill="white" stroke="black" points="480.158,-163.5 480.158,-181.5 587.301,-181.5 587.301,-163.5 480.158,-163.5"/>
<text text-anchor="middle" x="533.729" y="-169.5" font-family="Helvetica,sans-Serif" font-size="10.00">AP_HAL::Print::write</text>
</a>
</g>
</g>
<!-- Node4&#45;&gt;Node5 -->
<g id="edge4" class="edge"><title>Node4&#45;&gt;Node5</title>
<path fill="none" stroke="midnightblue" d="M420.099,-107.633C432.622,-119.806 456.374,-141.34 480.158,-154.5 483.62,-156.416 487.323,-158.18 491.099,-159.791"/>
<polygon fill="midnightblue" stroke="midnightblue" points="489.957,-163.103 500.545,-163.483 492.505,-156.583 489.957,-163.103"/>
</g>
<!-- Node6 -->
<g id="node6" class="node"><title>Node6</title>
<g id="a_node6"><a xlink:href="$ftoa__engine_8cpp.html#a1c28234da8f20b43c85890d4bb452947" xlink:title="ftoa_engine">
<polygon fill="white" stroke="black" points="499.594,-126.5 499.594,-144.5 567.865,-144.5 567.865,-126.5 499.594,-126.5"/>
<text text-anchor="middle" x="533.729" y="-132.5" font-family="Helvetica,sans-Serif" font-size="10.00">ftoa_engine</text>
</a>
</g>
</g>
<!-- Node4&#45;&gt;Node6 -->
<g id="edge5" class="edge"><title>Node4&#45;&gt;Node6</title>
<path fill="none" stroke="midnightblue" d="M440.805,-107.551C456.569,-112.344 476.138,-118.294 493.163,-123.47"/>
<polygon fill="midnightblue" stroke="midnightblue" points="492.26,-126.854 502.845,-126.414 494.296,-120.156 492.26,-126.854"/>
</g>
<!-- Node7 -->
<g id="node7" class="node"><title>Node7</title>
<g id="a_node7"><a xlink:href="$AP__Progmem_8h.html#a1514e0408e036062b4af844baaf567da" xlink:title="pgm_read_byte">
<polygon fill="white" stroke="black" points="490.983,-89.5 490.983,-107.5 576.476,-107.5 576.476,-89.5 490.983,-89.5"/>
<text text-anchor="middle" x="533.729" y="-95.5" font-family="Helvetica,sans-Serif" font-size="10.00">pgm_read_byte</text>
</a>
</g>
</g>
<!-- Node4&#45;&gt;Node7 -->
<g id="edge6" class="edge"><title>Node4&#45;&gt;Node7</title>
<path fill="none" stroke="midnightblue" d="M444.289,-98.5C455.505,-98.5 468.307,-98.5 480.622,-98.5"/>
<polygon fill="midnightblue" stroke="midnightblue" points="480.807,-102 490.807,-98.5 480.807,-95.0001 480.807,-102"/>
</g>
<!-- Node8 -->
<g id="node8" class="node"><title>Node8</title>
<g id="a_node8"><a xlink:href="$utoa__invert_8cpp.html#a34926f552460b47c414ec4d83b32815c" xlink:title="ulltoa_invert">
<polygon fill="white" stroke="black" points="498.769,-52.5 498.769,-70.5 568.69,-70.5 568.69,-52.5 498.769,-52.5"/>
<text text-anchor="middle" x="533.729" y="-58.5" font-family="Helvetica,sans-Serif" font-size="10.00">ulltoa_invert</text>
</a>
</g>
</g>
<!-- Node4&#45;&gt;Node8 -->
<g id="edge7" class="edge"><title>Node4&#45;&gt;Node8</title>
<path fill="none" stroke="midnightblue" d="M440.805,-89.4488C456.569,-84.6558 476.138,-78.7062 493.163,-73.5298"/>
<polygon fill="midnightblue" stroke="midnightblue" points="494.296,-76.8437 502.845,-70.586 492.26,-70.1464 494.296,-76.8437"/>
</g>
<!-- Node9 -->
<g id="node9" class="node"><title>Node9</title>
<g id="a_node9"><a xlink:href="$utoa__invert_8cpp.html#a5d99bba8e697c1e11da489d88fca8559" xlink:title="ultoa_invert">
<polygon fill="white" stroke="black" points="499.88,-15.5 499.88,-33.5 567.579,-33.5 567.579,-15.5 499.88,-15.5"/>
<text text-anchor="middle" x="533.729" y="-21.5" font-family="Helvetica,sans-Serif" font-size="10.00">ultoa_invert</text>
</a>
</g>
</g>
<!-- Node4&#45;&gt;Node9 -->
<g id="edge8" class="edge"><title>Node4&#45;&gt;Node9</title>
<path fill="none" stroke="midnightblue" d="M420.597,-89.1918C433.301,-77.2457 456.862,-56.514 480.158,-43.5 484.175,-41.2563 488.506,-39.192 492.899,-37.3176"/>
<polygon fill="midnightblue" stroke="midnightblue" points="494.497,-40.4496 502.513,-33.5217 491.926,-33.9387 494.497,-40.4496"/>
</g>
</g>
</svg>
