<?xml version="1.0" encoding="UTF-8" standalone="no"?>
<!DOCTYPE svg PUBLIC "-//W3C//DTD SVG 1.1//EN"
 "http://www.w3.org/Graphics/SVG/1.1/DTD/svg11.dtd">
<!-- Generated by graphviz version 2.38.0 (20140413.2041)
 -->
<!-- Title: test_passed_waypoint Pages: 1 -->
<svg width="838pt" height="252pt"
 viewBox="0.00 0.00 838.22 252.00" xmlns="http://www.w3.org/2000/svg" xmlns:xlink="http://www.w3.org/1999/xlink">
<g id="graph0" class="graph" transform="scale(1 1) rotate(0) translate(4 248)">
<title>test_passed_waypoint</title>
<polygon fill="white" stroke="none" points="-4,4 -4,-248 834.224,-248 834.224,4 -4,4"/>
<!-- Node1 -->
<g id="node1" class="node"><title>Node1</title>
<polygon fill="#bfbfbf" stroke="black" points="0,-134.5 0,-152.5 114.955,-152.5 114.955,-134.5 0,-134.5"/>
<text text-anchor="middle" x="57.4775" y="-140.5" font-family="Helvetica,sans-Serif" font-size="10.00">test_passed_waypoint</text>
</g>
<!-- Node2 -->
<g id="node2" class="node"><title>Node2</title>
<g id="a_node2"><a xlink:href="$classAP__HAL_1_1Print.html#ad337ce3f7977411b7d34d47a51e5737e" xlink:title="AP_HAL::Print::println">
<polygon fill="white" stroke="black" points="152.083,-116.5 152.083,-134.5 265.349,-134.5 265.349,-116.5 152.083,-116.5"/>
<text text-anchor="middle" x="208.716" y="-122.5" font-family="Helvetica,sans-Serif" font-size="10.00">AP_HAL::Print::println</text>
</a>
</g>
</g>
<!-- Node1&#45;&gt;Node2 -->
<g id="edge1" class="edge"><title>Node1&#45;&gt;Node2</title>
<path fill="none" stroke="midnightblue" d="M115.324,-136.644C124.062,-135.59 133.145,-134.494 142.055,-133.419"/>
<polygon fill="midnightblue" stroke="midnightblue" points="142.505,-136.891 152.014,-132.218 141.667,-129.941 142.505,-136.891"/>
</g>
<!-- Node6 -->
<g id="node6" class="node"><title>Node6</title>
<g id="a_node6"><a xlink:href="$examples_2location_2location_8cpp.html#a117c49dcd63a2274afc6c2e413e9fa9e" xlink:title="location_from_point">
<polygon fill="white" stroke="black" points="157.078,-153.5 157.078,-171.5 260.354,-171.5 260.354,-153.5 157.078,-153.5"/>
<text text-anchor="middle" x="208.716" y="-159.5" font-family="Helvetica,sans-Serif" font-size="10.00">location_from_point</text>
</a>
</g>
</g>
<!-- Node1&#45;&gt;Node6 -->
<g id="edge6" class="edge"><title>Node1&#45;&gt;Node6</title>
<path fill="none" stroke="midnightblue" d="M115.324,-150.737C125.579,-152.043 136.31,-153.409 146.679,-154.729"/>
<polygon fill="midnightblue" stroke="midnightblue" points="146.534,-158.239 156.896,-156.03 147.418,-151.295 146.534,-158.239"/>
</g>
<!-- Node7 -->
<g id="node7" class="node"><title>Node7</title>
<g id="a_node7"><a xlink:href="$location_8cpp.html#ab6cd880d070717b4c3cc7a7278768e72" xlink:title="location_passed_point">
<polygon fill="white" stroke="black" points="150.955,-191.5 150.955,-209.5 266.477,-209.5 266.477,-191.5 150.955,-191.5"/>
<text text-anchor="middle" x="208.716" y="-197.5" font-family="Helvetica,sans-Serif" font-size="10.00">location_passed_point</text>
</a>
</g>
</g>
<!-- Node1&#45;&gt;Node7 -->
<g id="edge7" class="edge"><title>Node1&#45;&gt;Node7</title>
<path fill="none" stroke="midnightblue" d="M79.2554,-152.504C97.8957,-160.47 126.067,-172.233 150.955,-181.5 157.026,-183.761 163.507,-186.047 169.837,-188.213"/>
<polygon fill="midnightblue" stroke="midnightblue" points="168.987,-191.619 179.581,-191.495 171.222,-184.986 168.987,-191.619"/>
</g>
<!-- Node13 -->
<g id="node13" class="node"><title>Node13</title>
<g id="a_node13"><a xlink:href="$classAP__HAL_1_1UARTDriver.html#a65c7824b8877f7a2f79365c8ffae8f56" xlink:title="AP_HAL::UARTDriver\l::printf">
<polygon fill="white" stroke="black" points="151.905,-69.5 151.905,-97.5 265.527,-97.5 265.527,-69.5 151.905,-69.5"/>
<text text-anchor="start" x="159.905" y="-85.5" font-family="Helvetica,sans-Serif" font-size="10.00">AP_HAL::UARTDriver</text>
<text text-anchor="middle" x="208.716" y="-75.5" font-family="Helvetica,sans-Serif" font-size="10.00">::printf</text>
</a>
</g>
</g>
<!-- Node1&#45;&gt;Node13 -->
<g id="edge13" class="edge"><title>Node1&#45;&gt;Node13</title>
<path fill="none" stroke="midnightblue" d="M81.1436,-134.387C102.953,-125.619 136.517,-112.125 163.603,-101.235"/>
<polygon fill="midnightblue" stroke="midnightblue" points="164.911,-104.482 172.884,-97.504 162.3,-97.9869 164.911,-104.482"/>
</g>
<!-- Node3 -->
<g id="node3" class="node"><title>Node3</title>
<g id="a_node3"><a xlink:href="$classAP__HAL_1_1Print.html#acfe80773011eb17dfb52c2fba517a093" xlink:title="AP_HAL::Print::print">
<polygon fill="white" stroke="black" points="464.56,-148.5 464.56,-166.5 570.042,-166.5 570.042,-148.5 464.56,-148.5"/>
<text text-anchor="middle" x="517.301" y="-154.5" font-family="Helvetica,sans-Serif" font-size="10.00">AP_HAL::Print::print</text>
</a>
</g>
</g>
<!-- Node2&#45;&gt;Node3 -->
<g id="edge2" class="edge"><title>Node2&#45;&gt;Node3</title>
<path fill="none" stroke="midnightblue" d="M250.174,-134.502C266.363,-137.802 285.231,-141.271 302.477,-143.5 353.263,-150.063 411.254,-153.616 454.019,-155.498"/>
<polygon fill="midnightblue" stroke="midnightblue" points="454.136,-159.006 464.274,-155.931 454.431,-152.013 454.136,-159.006"/>
</g>
<!-- Node5 -->
<g id="node5" class="node"><title>Node5</title>
<g id="a_node5"><a xlink:href="$classAP__HAL_1_1Print.html#a169b128f9e22f0c15883768f580541a2" xlink:title="AP_HAL::Print::println">
<polygon fill="white" stroke="black" points="308.885,-116.5 308.885,-134.5 422.151,-134.5 422.151,-116.5 308.885,-116.5"/>
<text text-anchor="middle" x="365.518" y="-122.5" font-family="Helvetica,sans-Serif" font-size="10.00">AP_HAL::Print::println</text>
</a>
</g>
</g>
<!-- Node2&#45;&gt;Node5 -->
<g id="edge4" class="edge"><title>Node2&#45;&gt;Node5</title>
<path fill="none" stroke="midnightblue" d="M265.603,-125.5C276.345,-125.5 287.687,-125.5 298.708,-125.5"/>
<polygon fill="midnightblue" stroke="midnightblue" points="298.713,-129 308.713,-125.5 298.713,-122 298.713,-129"/>
</g>
<!-- Node4 -->
<g id="node4" class="node"><title>Node4</title>
<g id="a_node4"><a xlink:href="$classAP__HAL_1_1Print.html#acc65391952a43334f8f5c9bef341f501" xlink:title="AP_HAL::Print::write">
<polygon fill="white" stroke="black" points="606.042,-148.5 606.042,-166.5 713.185,-166.5 713.185,-148.5 606.042,-148.5"/>
<text text-anchor="middle" x="659.613" y="-154.5" font-family="Helvetica,sans-Serif" font-size="10.00">AP_HAL::Print::write</text>
</a>
</g>
</g>
<!-- Node3&#45;&gt;Node4 -->
<g id="edge3" class="edge"><title>Node3&#45;&gt;Node4</title>
<path fill="none" stroke="midnightblue" d="M570.149,-157.5C578.566,-157.5 587.36,-157.5 596,-157.5"/>
<polygon fill="midnightblue" stroke="midnightblue" points="596.04,-161 606.04,-157.5 596.04,-154 596.04,-161"/>
</g>
<!-- Node5&#45;&gt;Node3 -->
<g id="edge5" class="edge"><title>Node5&#45;&gt;Node3</title>
<path fill="none" stroke="midnightblue" d="M409.039,-134.584C426.109,-138.231 445.957,-142.472 463.905,-146.306"/>
<polygon fill="midnightblue" stroke="midnightblue" points="463.422,-149.782 473.933,-148.448 464.885,-142.936 463.422,-149.782"/>
</g>
<!-- Node8 -->
<g id="node8" class="node"><title>Node8</title>
<g id="a_node8"><a xlink:href="$location_8cpp.html#ab0ccbafe7e2809759eea8d45d23e4ba0" xlink:title="location_path_proportion">
<polygon fill="white" stroke="black" points="302.477,-192.5 302.477,-210.5 428.56,-210.5 428.56,-192.5 302.477,-192.5"/>
<text text-anchor="middle" x="365.518" y="-198.5" font-family="Helvetica,sans-Serif" font-size="10.00">location_path_proportion</text>
</a>
</g>
</g>
<!-- Node7&#45;&gt;Node8 -->
<g id="edge8" class="edge"><title>Node7&#45;&gt;Node8</title>
<path fill="none" stroke="midnightblue" d="M266.479,-200.867C274.852,-200.921 283.573,-200.977 292.208,-201.033"/>
<polygon fill="midnightblue" stroke="midnightblue" points="292.258,-204.533 302.281,-201.098 292.304,-197.533 292.258,-204.533"/>
</g>
<!-- Node9 -->
<g id="node9" class="node"><title>Node9</title>
<g id="a_node9"><a xlink:href="$location_8cpp.html#a527b26472ed6f2e0c141e109a0722a0a" xlink:title="location_diff">
<polygon fill="white" stroke="black" points="482.704,-225.5 482.704,-243.5 551.897,-243.5 551.897,-225.5 482.704,-225.5"/>
<text text-anchor="middle" x="517.301" y="-231.5" font-family="Helvetica,sans-Serif" font-size="10.00">location_diff</text>
</a>
</g>
</g>
<!-- Node8&#45;&gt;Node9 -->
<g id="edge9" class="edge"><title>Node8&#45;&gt;Node9</title>
<path fill="none" stroke="midnightblue" d="M407.447,-210.517C427.602,-214.958 451.92,-220.316 472.454,-224.84"/>
<polygon fill="midnightblue" stroke="midnightblue" points="471.981,-228.319 482.5,-227.053 473.487,-221.483 471.981,-228.319"/>
</g>
<!-- Node12 -->
<g id="node12" class="node"><title>Node12</title>
<g id="a_node12"><a xlink:href="$AP__Math_8h.html#a00f57739f8671cb41eae08a51b7cbf7c" xlink:title="sq">
<polygon fill="white" stroke="black" points="502.801,-188.5 502.801,-206.5 531.801,-206.5 531.801,-188.5 502.801,-188.5"/>
<text text-anchor="middle" x="517.301" y="-194.5" font-family="Helvetica,sans-Serif" font-size="10.00">sq</text>
</a>
</g>
</g>
<!-- Node8&#45;&gt;Node12 -->
<g id="edge12" class="edge"><title>Node8&#45;&gt;Node12</title>
<path fill="none" stroke="midnightblue" d="M428.738,-199.838C451.156,-199.24 475.133,-198.599 492.319,-198.14"/>
<polygon fill="midnightblue" stroke="midnightblue" points="492.644,-201.633 502.547,-197.867 492.457,-194.636 492.644,-201.633"/>
</g>
<!-- Node10 -->
<g id="node10" class="node"><title>Node10</title>
<g id="a_node10"><a xlink:href="$location_8cpp.html#ad2368c582f3e0c135e2a74772f4db61a" xlink:title="longitude_scale">
<polygon fill="white" stroke="black" points="616.865,-225.5 616.865,-243.5 702.362,-243.5 702.362,-225.5 616.865,-225.5"/>
<text text-anchor="middle" x="659.613" y="-231.5" font-family="Helvetica,sans-Serif" font-size="10.00">longitude_scale</text>
</a>
</g>
</g>
<!-- Node9&#45;&gt;Node10 -->
<g id="edge10" class="edge"><title>Node9&#45;&gt;Node10</title>
<path fill="none" stroke="midnightblue" d="M551.909,-234.5C568.251,-234.5 588.263,-234.5 606.523,-234.5"/>
<polygon fill="midnightblue" stroke="midnightblue" points="606.741,-238 616.741,-234.5 606.741,-231 606.741,-238"/>
</g>
<!-- Node11 -->
<g id="node11" class="node"><title>Node11</title>
<g id="a_node11"><a xlink:href="$AP__Math_8h.html#a27149a7dfbb14319088e8332705c0046" xlink:title="constrain_float">
<polygon fill="white" stroke="black" points="749.185,-225.5 749.185,-243.5 830.224,-243.5 830.224,-225.5 749.185,-225.5"/>
<text text-anchor="middle" x="789.704" y="-231.5" font-family="Helvetica,sans-Serif" font-size="10.00">constrain_float</text>
</a>
</g>
</g>
<!-- Node10&#45;&gt;Node11 -->
<g id="edge11" class="edge"><title>Node10&#45;&gt;Node11</title>
<path fill="none" stroke="midnightblue" d="M702.555,-234.5C714.067,-234.5 726.665,-234.5 738.587,-234.5"/>
<polygon fill="midnightblue" stroke="midnightblue" points="738.845,-238 748.845,-234.5 738.845,-231 738.845,-238"/>
</g>
<!-- Node14 -->
<g id="node14" class="node"><title>Node14</title>
<g id="a_node14"><a xlink:href="$classAP__HAL_1_1UARTDriver.html#aa8abfb6d6641299472c29ac1edde559f" xlink:title="AP_HAL::UARTDriver\l::vprintf">
<polygon fill="white" stroke="black" points="308.707,-69.5 308.707,-97.5 422.329,-97.5 422.329,-69.5 308.707,-69.5"/>
<text text-anchor="start" x="316.707" y="-85.5" font-family="Helvetica,sans-Serif" font-size="10.00">AP_HAL::UARTDriver</text>
<text text-anchor="middle" x="365.518" y="-75.5" font-family="Helvetica,sans-Serif" font-size="10.00">::vprintf</text>
</a>
</g>
</g>
<!-- Node13&#45;&gt;Node14 -->
<g id="edge14" class="edge"><title>Node13&#45;&gt;Node14</title>
<path fill="none" stroke="midnightblue" d="M265.603,-83.5C276.169,-83.5 287.317,-83.5 298.168,-83.5"/>
<polygon fill="midnightblue" stroke="midnightblue" points="298.453,-87.0001 308.453,-83.5 298.453,-80.0001 298.453,-87.0001"/>
</g>
<!-- Node15 -->
<g id="node15" class="node"><title>Node15</title>
<g id="a_node15"><a xlink:href="$print__vprintf_8cpp.html#a473b9349f4b086b552a21eb8fe057016" xlink:title="print_vprintf">
<polygon fill="white" stroke="black" points="483.178,-74.5 483.178,-92.5 551.424,-92.5 551.424,-74.5 483.178,-74.5"/>
<text text-anchor="middle" x="517.301" y="-80.5" font-family="Helvetica,sans-Serif" font-size="10.00">print_vprintf</text>
</a>
</g>
</g>
<!-- Node14&#45;&gt;Node15 -->
<g id="edge15" class="edge"><title>Node14&#45;&gt;Node15</title>
<path fill="none" stroke="midnightblue" d="M422.718,-83.5C439.175,-83.5 456.918,-83.5 472.484,-83.5"/>
<polygon fill="midnightblue" stroke="midnightblue" points="472.87,-87.0001 482.87,-83.5 472.87,-80.0001 472.87,-87.0001"/>
</g>
<!-- Node15&#45;&gt;Node4 -->
<g id="edge16" class="edge"><title>Node15&#45;&gt;Node4</title>
<path fill="none" stroke="midnightblue" d="M530.885,-92.5967C547.492,-104.314 577.92,-124.799 606.042,-138.5 610.667,-140.753 615.631,-142.888 620.596,-144.857"/>
<polygon fill="midnightblue" stroke="midnightblue" points="619.462,-148.17 630.054,-148.427 621.933,-141.621 619.462,-148.17"/>
</g>
<!-- Node16 -->
<g id="node16" class="node"><title>Node16</title>
<g id="a_node16"><a xlink:href="$ftoa__engine_8cpp.html#a1c28234da8f20b43c85890d4bb452947" xlink:title="ftoa_engine">
<polygon fill="white" stroke="black" points="625.478,-37.5 625.478,-55.5 693.749,-55.5 693.749,-37.5 625.478,-37.5"/>
<text text-anchor="middle" x="659.613" y="-43.5" font-family="Helvetica,sans-Serif" font-size="10.00">ftoa_engine</text>
</a>
</g>
</g>
<!-- Node15&#45;&gt;Node16 -->
<g id="edge17" class="edge"><title>Node15&#45;&gt;Node16</title>
<path fill="none" stroke="midnightblue" d="M551.553,-74.7315C570.635,-69.6996 594.81,-63.3248 615.357,-57.9067"/>
<polygon fill="midnightblue" stroke="midnightblue" points="616.337,-61.268 625.114,-55.3338 614.552,-54.4993 616.337,-61.268"/>
</g>
<!-- Node17 -->
<g id="node17" class="node"><title>Node17</title>
<g id="a_node17"><a xlink:href="$AP__Progmem_8h.html#a1514e0408e036062b4af844baaf567da" xlink:title="pgm_read_byte">
<polygon fill="white" stroke="black" points="616.867,-0.5 616.867,-18.5 702.359,-18.5 702.359,-0.5 616.867,-0.5"/>
<text text-anchor="middle" x="659.613" y="-6.5" font-family="Helvetica,sans-Serif" font-size="10.00">pgm_read_byte</text>
</a>
</g>
</g>
<!-- Node15&#45;&gt;Node17 -->
<g id="edge18" class="edge"><title>Node15&#45;&gt;Node17</title>
<path fill="none" stroke="midnightblue" d="M530.538,-74.3513C547.012,-62.3549 577.552,-41.2262 606.042,-27.5 610.062,-25.5634 614.345,-23.739 618.665,-22.0496"/>
<polygon fill="midnightblue" stroke="midnightblue" points="619.921,-25.3169 628.094,-18.5753 617.501,-18.7486 619.921,-25.3169"/>
</g>
<!-- Node18 -->
<g id="node18" class="node"><title>Node18</title>
<g id="a_node18"><a xlink:href="$utoa__invert_8cpp.html#a34926f552460b47c414ec4d83b32815c" xlink:title="ulltoa_invert">
<polygon fill="white" stroke="black" points="624.653,-111.5 624.653,-129.5 694.574,-129.5 694.574,-111.5 624.653,-111.5"/>
<text text-anchor="middle" x="659.613" y="-117.5" font-family="Helvetica,sans-Serif" font-size="10.00">ulltoa_invert</text>
</a>
</g>
</g>
<!-- Node15&#45;&gt;Node18 -->
<g id="edge19" class="edge"><title>Node15&#45;&gt;Node18</title>
<path fill="none" stroke="midnightblue" d="M551.553,-92.2685C570.496,-97.2637 594.457,-103.582 614.906,-108.975"/>
<polygon fill="midnightblue" stroke="midnightblue" points="614.063,-112.372 624.625,-111.537 615.848,-105.603 614.063,-112.372"/>
</g>
<!-- Node19 -->
<g id="node19" class="node"><title>Node19</title>
<g id="a_node19"><a xlink:href="$utoa__invert_8cpp.html#a5d99bba8e697c1e11da489d88fca8559" xlink:title="ultoa_invert">
<polygon fill="white" stroke="black" points="625.764,-74.5 625.764,-92.5 693.463,-92.5 693.463,-74.5 625.764,-74.5"/>
<text text-anchor="middle" x="659.613" y="-80.5" font-family="Helvetica,sans-Serif" font-size="10.00">ultoa_invert</text>
</a>
</g>
</g>
<!-- Node15&#45;&gt;Node19 -->
<g id="edge20" class="edge"><title>Node15&#45;&gt;Node19</title>
<path fill="none" stroke="midnightblue" d="M551.553,-83.5C570.687,-83.5 594.941,-83.5 615.524,-83.5"/>
<polygon fill="midnightblue" stroke="midnightblue" points="615.6,-87.0001 625.6,-83.5 615.6,-80.0001 615.6,-87.0001"/>
</g>
</g>
</svg>
