<?xml version="1.0" encoding="UTF-8" standalone="no"?>
<!DOCTYPE svg PUBLIC "-//W3C//DTD SVG 1.1//EN"
 "http://www.w3.org/Graphics/SVG/1.1/DTD/svg11.dtd">
<!-- Generated by graphviz version 2.38.0 (20140413.2041)
 -->
<!-- Title: test_wgs_conversion_functions Pages: 1 -->
<svg width="664pt" height="180pt"
 viewBox="0.00 0.00 664.02 180.00" xmlns="http://www.w3.org/2000/svg" xmlns:xlink="http://www.w3.org/1999/xlink">
<g id="graph0" class="graph" transform="scale(1 1) rotate(0) translate(4 176)">
<title>test_wgs_conversion_functions</title>
<polygon fill="white" stroke="none" points="-4,4 -4,-176 660.017,-176 660.017,4 -4,4"/>
<!-- Node1 -->
<g id="node1" class="node"><title>Node1</title>
<polygon fill="#bfbfbf" stroke="black" points="0,-32.5 0,-60.5 109.384,-60.5 109.384,-32.5 0,-32.5"/>
<text text-anchor="start" x="8" y="-48.5" font-family="Helvetica,sans-Serif" font-size="10.00">test_wgs_conversion</text>
<text text-anchor="middle" x="54.6919" y="-38.5" font-family="Helvetica,sans-Serif" font-size="10.00">_functions</text>
</g>
<!-- Node2 -->
<g id="node2" class="node"><title>Node2</title>
<g id="a_node2"><a xlink:href="$classAP__HAL_1_1UARTDriver.html#a65c7824b8877f7a2f79365c8ffae8f56" xlink:title="AP_HAL::UARTDriver\l::printf">
<polygon fill="white" stroke="black" points="145.384,-74.5 145.384,-102.5 259.006,-102.5 259.006,-74.5 145.384,-74.5"/>
<text text-anchor="start" x="153.384" y="-90.5" font-family="Helvetica,sans-Serif" font-size="10.00">AP_HAL::UARTDriver</text>
<text text-anchor="middle" x="202.195" y="-80.5" font-family="Helvetica,sans-Serif" font-size="10.00">::printf</text>
</a>
</g>
</g>
<!-- Node1&#45;&gt;Node2 -->
<g id="edge1" class="edge"><title>Node1&#45;&gt;Node2</title>
<path fill="none" stroke="midnightblue" d="M104.547,-60.6022C116.664,-64.0998 129.776,-67.8845 142.316,-71.5044"/>
<polygon fill="midnightblue" stroke="midnightblue" points="141.643,-74.9528 152.221,-74.3635 143.584,-68.2274 141.643,-74.9528"/>
</g>
<!-- Node10 -->
<g id="node10" class="node"><title>Node10</title>
<g id="a_node10"><a xlink:href="$location_8cpp.html#a5b6072b7df92379eadfe4cf9cf7e60c7" xlink:title="wgsllh2ecef">
<polygon fill="white" stroke="black" points="168.069,-37.5 168.069,-55.5 236.32,-55.5 236.32,-37.5 168.069,-37.5"/>
<text text-anchor="middle" x="202.195" y="-43.5" font-family="Helvetica,sans-Serif" font-size="10.00">wgsllh2ecef</text>
</a>
</g>
</g>
<!-- Node1&#45;&gt;Node10 -->
<g id="edge9" class="edge"><title>Node1&#45;&gt;Node10</title>
<path fill="none" stroke="midnightblue" d="M109.458,-46.5C125.376,-46.5 142.597,-46.5 157.773,-46.5"/>
<polygon fill="midnightblue" stroke="midnightblue" points="157.912,-50.0001 167.912,-46.5 157.912,-43.0001 157.912,-50.0001"/>
</g>
<!-- Node11 -->
<g id="node11" class="node"><title>Node11</title>
<g id="a_node11"><a xlink:href="$location_8cpp.html#ae2228950bd3572416f45c4cd13450b71" xlink:title="wgsecef2llh">
<polygon fill="white" stroke="black" points="168.069,-0.5 168.069,-18.5 236.32,-18.5 236.32,-0.5 168.069,-0.5"/>
<text text-anchor="middle" x="202.195" y="-6.5" font-family="Helvetica,sans-Serif" font-size="10.00">wgsecef2llh</text>
</a>
</g>
</g>
<!-- Node1&#45;&gt;Node11 -->
<g id="edge10" class="edge"><title>Node1&#45;&gt;Node11</title>
<path fill="none" stroke="midnightblue" d="M109.458,-32.8277C125.529,-28.7411 142.928,-24.3166 158.21,-20.4305"/>
<polygon fill="midnightblue" stroke="midnightblue" points="159.083,-23.8201 167.912,-17.9635 157.358,-17.036 159.083,-23.8201"/>
</g>
<!-- Node3 -->
<g id="node3" class="node"><title>Node3</title>
<g id="a_node3"><a xlink:href="$classAP__HAL_1_1UARTDriver.html#aa8abfb6d6641299472c29ac1edde559f" xlink:title="AP_HAL::UARTDriver\l::vprintf">
<polygon fill="white" stroke="black" points="295.006,-74.5 295.006,-102.5 408.628,-102.5 408.628,-74.5 295.006,-74.5"/>
<text text-anchor="start" x="303.006" y="-90.5" font-family="Helvetica,sans-Serif" font-size="10.00">AP_HAL::UARTDriver</text>
<text text-anchor="middle" x="351.817" y="-80.5" font-family="Helvetica,sans-Serif" font-size="10.00">::vprintf</text>
</a>
</g>
</g>
<!-- Node2&#45;&gt;Node3 -->
<g id="edge2" class="edge"><title>Node2&#45;&gt;Node3</title>
<path fill="none" stroke="midnightblue" d="M259.426,-88.5C267.651,-88.5 276.186,-88.5 284.589,-88.5"/>
<polygon fill="midnightblue" stroke="midnightblue" points="284.743,-92.0001 294.743,-88.5 284.743,-85.0001 284.743,-92.0001"/>
</g>
<!-- Node4 -->
<g id="node4" class="node"><title>Node4</title>
<g id="a_node4"><a xlink:href="$print__vprintf_8cpp.html#a473b9349f4b086b552a21eb8fe057016" xlink:title="print_vprintf">
<polygon fill="white" stroke="black" points="444.628,-79.5 444.628,-97.5 512.874,-97.5 512.874,-79.5 444.628,-79.5"/>
<text text-anchor="middle" x="478.751" y="-85.5" font-family="Helvetica,sans-Serif" font-size="10.00">print_vprintf</text>
</a>
</g>
</g>
<!-- Node3&#45;&gt;Node4 -->
<g id="edge3" class="edge"><title>Node3&#45;&gt;Node4</title>
<path fill="none" stroke="midnightblue" d="M408.706,-88.5C417.295,-88.5 426.05,-88.5 434.315,-88.5"/>
<polygon fill="midnightblue" stroke="midnightblue" points="434.471,-92.0001 444.471,-88.5 434.471,-85.0001 434.471,-92.0001"/>
</g>
<!-- Node5 -->
<g id="node5" class="node"><title>Node5</title>
<g id="a_node5"><a xlink:href="$classAP__HAL_1_1Print.html#acc65391952a43334f8f5c9bef341f501" xlink:title="AP_HAL::Print::write">
<polygon fill="white" stroke="black" points="548.874,-153.5 548.874,-171.5 656.017,-171.5 656.017,-153.5 548.874,-153.5"/>
<text text-anchor="middle" x="602.445" y="-159.5" font-family="Helvetica,sans-Serif" font-size="10.00">AP_HAL::Print::write</text>
</a>
</g>
</g>
<!-- Node4&#45;&gt;Node5 -->
<g id="edge4" class="edge"><title>Node4&#45;&gt;Node5</title>
<path fill="none" stroke="midnightblue" d="M488.815,-97.6327C501.337,-109.806 525.09,-131.34 548.874,-144.5 552.336,-146.416 556.038,-148.18 559.815,-149.791"/>
<polygon fill="midnightblue" stroke="midnightblue" points="558.673,-153.103 569.261,-153.483 561.221,-146.583 558.673,-153.103"/>
</g>
<!-- Node6 -->
<g id="node6" class="node"><title>Node6</title>
<g id="a_node6"><a xlink:href="$ftoa__engine_8cpp.html#a1c28234da8f20b43c85890d4bb452947" xlink:title="ftoa_engine">
<polygon fill="white" stroke="black" points="568.31,-116.5 568.31,-134.5 636.581,-134.5 636.581,-116.5 568.31,-116.5"/>
<text text-anchor="middle" x="602.445" y="-122.5" font-family="Helvetica,sans-Serif" font-size="10.00">ftoa_engine</text>
</a>
</g>
</g>
<!-- Node4&#45;&gt;Node6 -->
<g id="edge5" class="edge"><title>Node4&#45;&gt;Node6</title>
<path fill="none" stroke="midnightblue" d="M509.521,-97.5512C525.285,-102.344 544.853,-108.294 561.879,-113.47"/>
<polygon fill="midnightblue" stroke="midnightblue" points="560.975,-116.854 571.561,-116.414 563.012,-110.156 560.975,-116.854"/>
</g>
<!-- Node7 -->
<g id="node7" class="node"><title>Node7</title>
<g id="a_node7"><a xlink:href="$AP__Progmem_8h.html#a1514e0408e036062b4af844baaf567da" xlink:title="pgm_read_byte">
<polygon fill="white" stroke="black" points="559.699,-79.5 559.699,-97.5 645.191,-97.5 645.191,-79.5 559.699,-79.5"/>
<text text-anchor="middle" x="602.445" y="-85.5" font-family="Helvetica,sans-Serif" font-size="10.00">pgm_read_byte</text>
</a>
</g>
</g>
<!-- Node4&#45;&gt;Node7 -->
<g id="edge6" class="edge"><title>Node4&#45;&gt;Node7</title>
<path fill="none" stroke="midnightblue" d="M513.004,-88.5C524.22,-88.5 537.023,-88.5 549.338,-88.5"/>
<polygon fill="midnightblue" stroke="midnightblue" points="549.522,-92.0001 559.522,-88.5 549.522,-85.0001 549.522,-92.0001"/>
</g>
<!-- Node8 -->
<g id="node8" class="node"><title>Node8</title>
<g id="a_node8"><a xlink:href="$utoa__invert_8cpp.html#a34926f552460b47c414ec4d83b32815c" xlink:title="ulltoa_invert">
<polygon fill="white" stroke="black" points="567.485,-42.5 567.485,-60.5 637.406,-60.5 637.406,-42.5 567.485,-42.5"/>
<text text-anchor="middle" x="602.445" y="-48.5" font-family="Helvetica,sans-Serif" font-size="10.00">ulltoa_invert</text>
</a>
</g>
</g>
<!-- Node4&#45;&gt;Node8 -->
<g id="edge7" class="edge"><title>Node4&#45;&gt;Node8</title>
<path fill="none" stroke="midnightblue" d="M509.521,-79.4488C525.285,-74.6558 544.853,-68.7062 561.879,-63.5298"/>
<polygon fill="midnightblue" stroke="midnightblue" points="563.012,-66.8437 571.561,-60.586 560.975,-60.1464 563.012,-66.8437"/>
</g>
<!-- Node9 -->
<g id="node9" class="node"><title>Node9</title>
<g id="a_node9"><a xlink:href="$utoa__invert_8cpp.html#a5d99bba8e697c1e11da489d88fca8559" xlink:title="ultoa_invert">
<polygon fill="white" stroke="black" points="568.596,-5.5 568.596,-23.5 636.295,-23.5 636.295,-5.5 568.596,-5.5"/>
<text text-anchor="middle" x="602.445" y="-11.5" font-family="Helvetica,sans-Serif" font-size="10.00">ultoa_invert</text>
</a>
</g>
</g>
<!-- Node4&#45;&gt;Node9 -->
<g id="edge8" class="edge"><title>Node4&#45;&gt;Node9</title>
<path fill="none" stroke="midnightblue" d="M488.815,-79.3673C501.337,-67.194 525.09,-45.6603 548.874,-32.5 552.336,-30.5843 556.038,-28.8204 559.815,-27.2089"/>
<polygon fill="midnightblue" stroke="midnightblue" points="561.221,-30.4172 569.261,-23.517 558.673,-23.8974 561.221,-30.4172"/>
</g>
<!-- Node12 -->
<g id="node12" class="node"><title>Node12</title>
<g id="a_node12"><a xlink:href="$AP__Math_8h.html#a108b79eeb35c5d58f324458ec9e1e9f2" xlink:title="is_zero">
<polygon fill="white" stroke="black" points="327.699,-0.5 327.699,-18.5 375.935,-18.5 375.935,-0.5 327.699,-0.5"/>
<text text-anchor="middle" x="351.817" y="-6.5" font-family="Helvetica,sans-Serif" font-size="10.00">is_zero</text>
</a>
</g>
</g>
<!-- Node11&#45;&gt;Node12 -->
<g id="edge11" class="edge"><title>Node11&#45;&gt;Node12</title>
<path fill="none" stroke="midnightblue" d="M236.324,-9.5C260.464,-9.5 293.047,-9.5 317.281,-9.5"/>
<polygon fill="midnightblue" stroke="midnightblue" points="317.437,-13.0001 327.437,-9.5 317.437,-6.0001 317.437,-13.0001"/>
</g>
</g>
</svg>
