<?xml version="1.0" encoding="UTF-8" standalone="no"?>
<!DOCTYPE svg PUBLIC "-//W3C//DTD SVG 1.1//EN"
 "http://www.w3.org/Graphics/SVG/1.1/DTD/svg11.dtd">
<!-- Generated by graphviz version 2.38.0 (20140413.2041)
 -->
<!-- Title: setup Pages: 1 -->
<svg width="602pt" height="190pt"
 viewBox="0.00 0.00 601.98 190.00" xmlns="http://www.w3.org/2000/svg" xmlns:xlink="http://www.w3.org/1999/xlink">
<g id="graph0" class="graph" transform="scale(1 1) rotate(0) translate(4 186)">
<title>setup</title>
<polygon fill="white" stroke="none" points="-4,4 -4,-186 597.98,-186 597.98,4 -4,4"/>
<!-- Node1 -->
<g id="node1" class="node"><title>Node1</title>
<polygon fill="#bfbfbf" stroke="black" points="0,-47.5 0,-65.5 40.4629,-65.5 40.4629,-47.5 0,-47.5"/>
<text text-anchor="middle" x="20.2314" y="-53.5" font-family="Helvetica,sans-Serif" font-size="10.00">setup</text>
</g>
<!-- Node2 -->
<g id="node2" class="node"><title>Node2</title>
<g id="a_node2"><a xlink:href="$classAP__HAL_1_1UARTDriver.html#a65c7824b8877f7a2f79365c8ffae8f56" xlink:title="AP_HAL::UARTDriver\l::printf">
<polygon fill="white" stroke="black" points="79.9053,-84.5 79.9053,-112.5 193.527,-112.5 193.527,-84.5 79.9053,-84.5"/>
<text text-anchor="start" x="87.9053" y="-100.5" font-family="Helvetica,sans-Serif" font-size="10.00">AP_HAL::UARTDriver</text>
<text text-anchor="middle" x="136.716" y="-90.5" font-family="Helvetica,sans-Serif" font-size="10.00">::printf</text>
</a>
</g>
</g>
<!-- Node1&#45;&gt;Node2 -->
<g id="edge1" class="edge"><title>Node1&#45;&gt;Node2</title>
<path fill="none" stroke="midnightblue" d="M40.6522,-63.6247C53.5578,-68.3593 71.1058,-74.7969 87.613,-80.8528"/>
<polygon fill="midnightblue" stroke="midnightblue" points="86.5752,-84.2001 97.1689,-84.3585 88.9862,-77.6284 86.5752,-84.2001"/>
</g>
<!-- Node10 -->
<g id="node10" class="node"><title>Node10</title>
<g id="a_node10"><a xlink:href="$classAP__HAL_1_1Storage.html#ab6482299a2d726448cd95e17cf0eae84" xlink:title="AP_HAL::Storage::init">
<polygon fill="white" stroke="black" points="80.0786,-47.5 80.0786,-65.5 193.354,-65.5 193.354,-47.5 80.0786,-47.5"/>
<text text-anchor="middle" x="136.716" y="-53.5" font-family="Helvetica,sans-Serif" font-size="10.00">AP_HAL::Storage::init</text>
</a>
</g>
</g>
<!-- Node1&#45;&gt;Node10 -->
<g id="edge9" class="edge"><title>Node1&#45;&gt;Node10</title>
<path fill="none" stroke="midnightblue" d="M40.6522,-56.5C48.8708,-56.5 58.9722,-56.5 69.4885,-56.5"/>
<polygon fill="midnightblue" stroke="midnightblue" points="69.6504,-60.0001 79.6503,-56.5 69.6503,-53.0001 69.6504,-60.0001"/>
</g>
<!-- Node11 -->
<g id="node11" class="node"><title>Node11</title>
<g id="a_node11"><a xlink:href="$classAP__HAL_1_1Storage.html#a1c3b1e80b0bec7d4bacd3ecbefb3b3f3" xlink:title="AP_HAL::Storage::read\l_block">
<polygon fill="white" stroke="black" points="76.4629,-0.5 76.4629,-28.5 196.97,-28.5 196.97,-0.5 76.4629,-0.5"/>
<text text-anchor="start" x="84.4629" y="-16.5" font-family="Helvetica,sans-Serif" font-size="10.00">AP_HAL::Storage::read</text>
<text text-anchor="middle" x="136.716" y="-6.5" font-family="Helvetica,sans-Serif" font-size="10.00">_block</text>
</a>
</g>
</g>
<!-- Node1&#45;&gt;Node11 -->
<g id="edge10" class="edge"><title>Node1&#45;&gt;Node11</title>
<path fill="none" stroke="midnightblue" d="M40.6522,-49.3753C53.5578,-44.6407 71.1058,-38.2031 87.613,-32.1472"/>
<polygon fill="midnightblue" stroke="midnightblue" points="88.9862,-35.3716 97.1689,-28.6415 86.5752,-28.7999 88.9862,-35.3716"/>
</g>
<!-- Node3 -->
<g id="node3" class="node"><title>Node3</title>
<g id="a_node3"><a xlink:href="$classAP__HAL_1_1UARTDriver.html#aa8abfb6d6641299472c29ac1edde559f" xlink:title="AP_HAL::UARTDriver\l::vprintf">
<polygon fill="white" stroke="black" points="232.97,-84.5 232.97,-112.5 346.592,-112.5 346.592,-84.5 232.97,-84.5"/>
<text text-anchor="start" x="240.97" y="-100.5" font-family="Helvetica,sans-Serif" font-size="10.00">AP_HAL::UARTDriver</text>
<text text-anchor="middle" x="289.781" y="-90.5" font-family="Helvetica,sans-Serif" font-size="10.00">::vprintf</text>
</a>
</g>
</g>
<!-- Node2&#45;&gt;Node3 -->
<g id="edge2" class="edge"><title>Node2&#45;&gt;Node3</title>
<path fill="none" stroke="midnightblue" d="M193.538,-98.5C203.082,-98.5 213.077,-98.5 222.855,-98.5"/>
<polygon fill="midnightblue" stroke="midnightblue" points="222.937,-102 232.937,-98.5 222.936,-95.0001 222.937,-102"/>
</g>
<!-- Node4 -->
<g id="node4" class="node"><title>Node4</title>
<g id="a_node4"><a xlink:href="$print__vprintf_8cpp.html#a473b9349f4b086b552a21eb8fe057016" xlink:title="print_vprintf">
<polygon fill="white" stroke="black" points="382.592,-89.5 382.592,-107.5 450.838,-107.5 450.838,-89.5 382.592,-89.5"/>
<text text-anchor="middle" x="416.715" y="-95.5" font-family="Helvetica,sans-Serif" font-size="10.00">print_vprintf</text>
</a>
</g>
</g>
<!-- Node3&#45;&gt;Node4 -->
<g id="edge3" class="edge"><title>Node3&#45;&gt;Node4</title>
<path fill="none" stroke="midnightblue" d="M346.67,-98.5C355.258,-98.5 364.014,-98.5 372.279,-98.5"/>
<polygon fill="midnightblue" stroke="midnightblue" points="372.435,-102 382.435,-98.5 372.435,-95.0001 372.435,-102"/>
</g>
<!-- Node5 -->
<g id="node5" class="node"><title>Node5</title>
<g id="a_node5"><a xlink:href="$classAP__HAL_1_1Print.html#acc65391952a43334f8f5c9bef341f501" xlink:title="AP_HAL::Print::write">
<polygon fill="white" stroke="black" points="486.838,-163.5 486.838,-181.5 593.98,-181.5 593.98,-163.5 486.838,-163.5"/>
<text text-anchor="middle" x="540.409" y="-169.5" font-family="Helvetica,sans-Serif" font-size="10.00">AP_HAL::Print::write</text>
</a>
</g>
</g>
<!-- Node4&#45;&gt;Node5 -->
<g id="edge4" class="edge"><title>Node4&#45;&gt;Node5</title>
<path fill="none" stroke="midnightblue" d="M426.779,-107.633C439.301,-119.806 463.054,-141.34 486.838,-154.5 490.3,-156.416 494.002,-158.18 497.779,-159.791"/>
<polygon fill="midnightblue" stroke="midnightblue" points="496.637,-163.103 507.225,-163.483 499.185,-156.583 496.637,-163.103"/>
</g>
<!-- Node6 -->
<g id="node6" class="node"><title>Node6</title>
<g id="a_node6"><a xlink:href="$ftoa__engine_8cpp.html#a1c28234da8f20b43c85890d4bb452947" xlink:title="ftoa_engine">
<polygon fill="white" stroke="black" points="506.274,-126.5 506.274,-144.5 574.544,-144.5 574.544,-126.5 506.274,-126.5"/>
<text text-anchor="middle" x="540.409" y="-132.5" font-family="Helvetica,sans-Serif" font-size="10.00">ftoa_engine</text>
</a>
</g>
</g>
<!-- Node4&#45;&gt;Node6 -->
<g id="edge5" class="edge"><title>Node4&#45;&gt;Node6</title>
<path fill="none" stroke="midnightblue" d="M447.485,-107.551C463.249,-112.344 482.817,-118.294 499.843,-123.47"/>
<polygon fill="midnightblue" stroke="midnightblue" points="498.939,-126.854 509.525,-126.414 500.976,-120.156 498.939,-126.854"/>
</g>
<!-- Node7 -->
<g id="node7" class="node"><title>Node7</title>
<g id="a_node7"><a xlink:href="$AP__Progmem_8h.html#a1514e0408e036062b4af844baaf567da" xlink:title="pgm_read_byte">
<polygon fill="white" stroke="black" points="497.663,-89.5 497.663,-107.5 583.155,-107.5 583.155,-89.5 497.663,-89.5"/>
<text text-anchor="middle" x="540.409" y="-95.5" font-family="Helvetica,sans-Serif" font-size="10.00">pgm_read_byte</text>
</a>
</g>
</g>
<!-- Node4&#45;&gt;Node7 -->
<g id="edge6" class="edge"><title>Node4&#45;&gt;Node7</title>
<path fill="none" stroke="midnightblue" d="M450.968,-98.5C462.184,-98.5 474.987,-98.5 487.302,-98.5"/>
<polygon fill="midnightblue" stroke="midnightblue" points="487.486,-102 497.486,-98.5 487.486,-95.0001 487.486,-102"/>
</g>
<!-- Node8 -->
<g id="node8" class="node"><title>Node8</title>
<g id="a_node8"><a xlink:href="$utoa__invert_8cpp.html#a34926f552460b47c414ec4d83b32815c" xlink:title="ulltoa_invert">
<polygon fill="white" stroke="black" points="505.449,-52.5 505.449,-70.5 575.37,-70.5 575.37,-52.5 505.449,-52.5"/>
<text text-anchor="middle" x="540.409" y="-58.5" font-family="Helvetica,sans-Serif" font-size="10.00">ulltoa_invert</text>
</a>
</g>
</g>
<!-- Node4&#45;&gt;Node8 -->
<g id="edge7" class="edge"><title>Node4&#45;&gt;Node8</title>
<path fill="none" stroke="midnightblue" d="M447.485,-89.4488C463.249,-84.6558 482.817,-78.7062 499.843,-73.5298"/>
<polygon fill="midnightblue" stroke="midnightblue" points="500.976,-76.8437 509.525,-70.586 498.939,-70.1464 500.976,-76.8437"/>
</g>
<!-- Node9 -->
<g id="node9" class="node"><title>Node9</title>
<g id="a_node9"><a xlink:href="$utoa__invert_8cpp.html#a5d99bba8e697c1e11da489d88fca8559" xlink:title="ultoa_invert">
<polygon fill="white" stroke="black" points="506.56,-15.5 506.56,-33.5 574.259,-33.5 574.259,-15.5 506.56,-15.5"/>
<text text-anchor="middle" x="540.409" y="-21.5" font-family="Helvetica,sans-Serif" font-size="10.00">ultoa_invert</text>
</a>
</g>
</g>
<!-- Node4&#45;&gt;Node9 -->
<g id="edge8" class="edge"><title>Node4&#45;&gt;Node9</title>
<path fill="none" stroke="midnightblue" d="M427.277,-89.1918C439.981,-77.2457 463.542,-56.514 486.838,-43.5 490.854,-41.2563 495.186,-39.192 499.578,-37.3176"/>
<polygon fill="midnightblue" stroke="midnightblue" points="501.176,-40.4496 509.192,-33.5217 498.606,-33.9387 501.176,-40.4496"/>
</g>
</g>
</svg>
