<?xml version="1.0" encoding="UTF-8" standalone="no"?>
<!DOCTYPE svg PUBLIC "-//W3C//DTD SVG 1.1//EN"
 "http://www.w3.org/Graphics/SVG/1.1/DTD/svg11.dtd">
<!-- Generated by graphviz version 2.38.0 (20140413.2041)
 -->
<!-- Title: setup Pages: 1 -->
<svg width="674pt" height="64pt"
 viewBox="0.00 0.00 674.44 64.00" xmlns="http://www.w3.org/2000/svg" xmlns:xlink="http://www.w3.org/1999/xlink">
<g id="graph0" class="graph" transform="scale(1 1) rotate(0) translate(4 60)">
<title>setup</title>
<polygon fill="white" stroke="none" points="-4,4 -4,-60 670.437,-60 670.437,4 -4,4"/>
<!-- Node1 -->
<g id="node1" class="node"><title>Node1</title>
<polygon fill="#bfbfbf" stroke="black" points="0,-18.5 0,-36.5 40.4629,-36.5 40.4629,-18.5 0,-18.5"/>
<text text-anchor="middle" x="20.2314" y="-24.5" font-family="Helvetica,sans-Serif" font-size="10.00">setup</text>
</g>
<!-- Node2 -->
<g id="node2" class="node"><title>Node2</title>
<g id="a_node2"><a xlink:href="$classAP__HAL_1_1Print.html#ad337ce3f7977411b7d34d47a51e5737e" xlink:title="AP_HAL::Print::println">
<polygon fill="white" stroke="black" points="97.8716,-37.5 97.8716,-55.5 211.137,-55.5 211.137,-37.5 97.8716,-37.5"/>
<text text-anchor="middle" x="154.504" y="-43.5" font-family="Helvetica,sans-Serif" font-size="10.00">AP_HAL::Print::println</text>
</a>
</g>
</g>
<!-- Node1&#45;&gt;Node2 -->
<g id="edge1" class="edge"><title>Node1&#45;&gt;Node2</title>
<path fill="none" stroke="midnightblue" d="M40.4651,-30.2628C53.0433,-32.0695 70.2847,-34.5461 87.513,-37.0208"/>
<polygon fill="midnightblue" stroke="midnightblue" points="87.2239,-40.5152 97.6199,-38.4726 88.2192,-33.5863 87.2239,-40.5152"/>
</g>
<!-- Node6 -->
<g id="node6" class="node"><title>Node6</title>
<g id="a_node6"><a xlink:href="$classAP__HAL_1_1RCOutput.html#a25196bb820266d4afcae14d0acdb7e1c" xlink:title="AP_HAL::RCOutput::enable_ch">
<polygon fill="white" stroke="black" points="76.4629,-0.5 76.4629,-18.5 232.546,-18.5 232.546,-0.5 76.4629,-0.5"/>
<text text-anchor="middle" x="154.504" y="-6.5" font-family="Helvetica,sans-Serif" font-size="10.00">AP_HAL::RCOutput::enable_ch</text>
</a>
</g>
</g>
<!-- Node1&#45;&gt;Node6 -->
<g id="edge6" class="edge"><title>Node1&#45;&gt;Node6</title>
<path fill="none" stroke="midnightblue" d="M40.4651,-24.8826C50.5551,-23.5096 63.6458,-21.7282 77.3234,-19.8669"/>
<polygon fill="midnightblue" stroke="midnightblue" points="77.9153,-23.3187 87.352,-18.5022 76.9714,-16.3826 77.9153,-23.3187"/>
</g>
<!-- Node3 -->
<g id="node3" class="node"><title>Node3</title>
<g id="a_node3"><a xlink:href="$classAP__HAL_1_1Print.html#acfe80773011eb17dfb52c2fba517a093" xlink:title="AP_HAL::Print::print">
<polygon fill="white" stroke="black" points="417.812,-37.5 417.812,-55.5 523.294,-55.5 523.294,-37.5 417.812,-37.5"/>
<text text-anchor="middle" x="470.553" y="-43.5" font-family="Helvetica,sans-Serif" font-size="10.00">AP_HAL::Print::print</text>
</a>
</g>
</g>
<!-- Node2&#45;&gt;Node3 -->
<g id="edge2" class="edge"><title>Node2&#45;&gt;Node3</title>
<path fill="none" stroke="midnightblue" d="M211.288,-46.5C266.295,-46.5 350.196,-46.5 407.332,-46.5"/>
<polygon fill="midnightblue" stroke="midnightblue" points="407.676,-50.0001 417.676,-46.5 407.676,-43.0001 407.676,-50.0001"/>
</g>
<!-- Node5 -->
<g id="node5" class="node"><title>Node5</title>
<g id="a_node5"><a xlink:href="$classAP__HAL_1_1Print.html#a169b128f9e22f0c15883768f580541a2" xlink:title="AP_HAL::Print::println">
<polygon fill="white" stroke="black" points="268.546,-18.5 268.546,-36.5 381.812,-36.5 381.812,-18.5 268.546,-18.5"/>
<text text-anchor="middle" x="325.179" y="-24.5" font-family="Helvetica,sans-Serif" font-size="10.00">AP_HAL::Print::println</text>
</a>
</g>
</g>
<!-- Node2&#45;&gt;Node5 -->
<g id="edge4" class="edge"><title>Node2&#45;&gt;Node5</title>
<path fill="none" stroke="midnightblue" d="M211.202,-40.226C226.316,-38.5236 242.822,-36.6643 258.433,-34.9058"/>
<polygon fill="midnightblue" stroke="midnightblue" points="258.994,-38.3648 268.539,-33.7674 258.21,-31.4088 258.994,-38.3648"/>
</g>
<!-- Node4 -->
<g id="node4" class="node"><title>Node4</title>
<g id="a_node4"><a xlink:href="$classAP__HAL_1_1Print.html#acc65391952a43334f8f5c9bef341f501" xlink:title="AP_HAL::Print::write">
<polygon fill="white" stroke="black" points="559.294,-37.5 559.294,-55.5 666.437,-55.5 666.437,-37.5 559.294,-37.5"/>
<text text-anchor="middle" x="612.865" y="-43.5" font-family="Helvetica,sans-Serif" font-size="10.00">AP_HAL::Print::write</text>
</a>
</g>
</g>
<!-- Node3&#45;&gt;Node4 -->
<g id="edge3" class="edge"><title>Node3&#45;&gt;Node4</title>
<path fill="none" stroke="midnightblue" d="M523.401,-46.5C531.818,-46.5 540.612,-46.5 549.252,-46.5"/>
<polygon fill="midnightblue" stroke="midnightblue" points="549.292,-50.0001 559.292,-46.5 549.292,-43.0001 549.292,-50.0001"/>
</g>
<!-- Node5&#45;&gt;Node3 -->
<g id="edge5" class="edge"><title>Node5&#45;&gt;Node3</title>
<path fill="none" stroke="midnightblue" d="M382.021,-34.9003C390.294,-35.9966 398.864,-37.1323 407.258,-38.2447"/>
<polygon fill="midnightblue" stroke="midnightblue" points="407.006,-41.7418 417.38,-39.586 407.926,-34.8025 407.006,-41.7418"/>
</g>
</g>
</svg>
