<?xml version="1.0" encoding="UTF-8" standalone="no"?>
<!DOCTYPE svg PUBLIC "-//W3C//DTD SVG 1.1//EN"
 "http://www.w3.org/Graphics/SVG/1.1/DTD/svg11.dtd">
<!-- Generated by graphviz version 2.38.0 (20140413.2041)
 -->
<!-- Title: test_offset Pages: 1 -->
<svg width="750pt" height="264pt"
 viewBox="0.00 0.00 749.60 264.00" xmlns="http://www.w3.org/2000/svg" xmlns:xlink="http://www.w3.org/1999/xlink">
<g id="graph0" class="graph" transform="scale(1 1) rotate(0) translate(4 260)">
<title>test_offset</title>
<polygon fill="white" stroke="none" points="-4,4 -4,-260 745.596,-260 745.596,4 -4,4"/>
<!-- Node1 -->
<g id="node1" class="node"><title>Node1</title>
<polygon fill="#bfbfbf" stroke="black" points="0,-153.5 0,-171.5 61.9619,-171.5 61.9619,-153.5 0,-153.5"/>
<text text-anchor="middle" x="30.981" y="-159.5" font-family="Helvetica,sans-Serif" font-size="10.00">test_offset</text>
</g>
<!-- Node2 -->
<g id="node2" class="node"><title>Node2</title>
<g id="a_node2"><a xlink:href="$examples_2location_2location_8cpp.html#af4c4a815e04b2917f9e189120d8b2ad1" xlink:title="test_one_offset">
<polygon fill="white" stroke="black" points="97.9619,-153.5 97.9619,-171.5 182.17,-171.5 182.17,-153.5 97.9619,-153.5"/>
<text text-anchor="middle" x="140.066" y="-159.5" font-family="Helvetica,sans-Serif" font-size="10.00">test_one_offset</text>
</a>
</g>
</g>
<!-- Node1&#45;&gt;Node2 -->
<g id="edge1" class="edge"><title>Node1&#45;&gt;Node2</title>
<path fill="none" stroke="midnightblue" d="M62.0951,-162.5C70.0095,-162.5 78.7746,-162.5 87.4711,-162.5"/>
<polygon fill="midnightblue" stroke="midnightblue" points="87.5935,-166 97.5934,-162.5 87.5934,-159 87.5935,-166"/>
</g>
<!-- Node3 -->
<g id="node3" class="node"><title>Node3</title>
<g id="a_node3"><a xlink:href="$classAP__HAL_1_1Scheduler.html#add46d722bfb08a16f220e63591654e46" xlink:title="AP_HAL::Scheduler::\lmicros">
<polygon fill="white" stroke="black" points="219.732,-227.5 219.732,-255.5 330.229,-255.5 330.229,-227.5 219.732,-227.5"/>
<text text-anchor="start" x="227.732" y="-243.5" font-family="Helvetica,sans-Serif" font-size="10.00">AP_HAL::Scheduler::</text>
<text text-anchor="middle" x="274.981" y="-233.5" font-family="Helvetica,sans-Serif" font-size="10.00">micros</text>
</a>
</g>
</g>
<!-- Node2&#45;&gt;Node3 -->
<g id="edge2" class="edge"><title>Node2&#45;&gt;Node3</title>
<path fill="none" stroke="midnightblue" d="M151.748,-171.53C166.145,-183.395 192.895,-204.378 218.17,-218.5 221.052,-220.11 224.069,-221.672 227.146,-223.174"/>
<polygon fill="midnightblue" stroke="midnightblue" points="225.928,-226.467 236.474,-227.484 228.865,-220.113 225.928,-226.467"/>
</g>
<!-- Node4 -->
<g id="node4" class="node"><title>Node4</title>
<g id="a_node4"><a xlink:href="$location_8cpp.html#a717b438a67f0b41665feec9009ba1bd4" xlink:title="location_offset">
<polygon fill="white" stroke="black" points="234.825,-190.5 234.825,-208.5 315.137,-208.5 315.137,-190.5 234.825,-190.5"/>
<text text-anchor="middle" x="274.981" y="-196.5" font-family="Helvetica,sans-Serif" font-size="10.00">location_offset</text>
</a>
</g>
</g>
<!-- Node2&#45;&gt;Node4 -->
<g id="edge3" class="edge"><title>Node2&#45;&gt;Node4</title>
<path fill="none" stroke="midnightblue" d="M173.581,-171.551C191.04,-176.411 212.771,-182.461 231.547,-187.687"/>
<polygon fill="midnightblue" stroke="midnightblue" points="230.769,-191.104 241.341,-190.414 232.646,-184.36 230.769,-191.104"/>
</g>
<!-- Node8 -->
<g id="node8" class="node"><title>Node8</title>
<g id="a_node8"><a xlink:href="$classAP__HAL_1_1UARTDriver.html#a65c7824b8877f7a2f79365c8ffae8f56" xlink:title="AP_HAL::UARTDriver\l::printf">
<polygon fill="white" stroke="black" points="218.17,-69.5 218.17,-97.5 331.792,-97.5 331.792,-69.5 218.17,-69.5"/>
<text text-anchor="start" x="226.17" y="-85.5" font-family="Helvetica,sans-Serif" font-size="10.00">AP_HAL::UARTDriver</text>
<text text-anchor="middle" x="274.981" y="-75.5" font-family="Helvetica,sans-Serif" font-size="10.00">::printf</text>
</a>
</g>
</g>
<!-- Node2&#45;&gt;Node8 -->
<g id="edge7" class="edge"><title>Node2&#45;&gt;Node8</title>
<path fill="none" stroke="midnightblue" d="M152.309,-153.306C166.886,-141.668 193.384,-121.458 218.17,-107.5 221.588,-105.575 225.19,-103.704 228.851,-101.91"/>
<polygon fill="midnightblue" stroke="midnightblue" points="230.43,-105.035 238.003,-97.6257 227.462,-98.6957 230.43,-105.035"/>
</g>
<!-- Node16 -->
<g id="node16" class="node"><title>Node16</title>
<g id="a_node16"><a xlink:href="$location_8cpp.html#aa825a788804b8dd4cf1e3cfb42960a8b" xlink:title="get_distance">
<polygon fill="white" stroke="black" points="238.626,-116.5 238.626,-134.5 311.335,-134.5 311.335,-116.5 238.626,-116.5"/>
<text text-anchor="middle" x="274.981" y="-122.5" font-family="Helvetica,sans-Serif" font-size="10.00">get_distance</text>
</a>
</g>
</g>
<!-- Node2&#45;&gt;Node16 -->
<g id="edge15" class="edge"><title>Node2&#45;&gt;Node16</title>
<path fill="none" stroke="midnightblue" d="M173.581,-153.449C191.04,-148.589 212.771,-142.539 231.547,-137.313"/>
<polygon fill="midnightblue" stroke="midnightblue" points="232.646,-140.64 241.341,-134.586 230.769,-133.896 232.646,-140.64"/>
</g>
<!-- Node19 -->
<g id="node19" class="node"><title>Node19</title>
<g id="a_node19"><a xlink:href="$location_8cpp.html#a224e7b94333df3a15a18499026474ac9" xlink:title="get_bearing_cd">
<polygon fill="white" stroke="black" points="232.508,-153.5 232.508,-171.5 317.454,-171.5 317.454,-153.5 232.508,-153.5"/>
<text text-anchor="middle" x="274.981" y="-159.5" font-family="Helvetica,sans-Serif" font-size="10.00">get_bearing_cd</text>
</a>
</g>
</g>
<!-- Node2&#45;&gt;Node19 -->
<g id="edge19" class="edge"><title>Node2&#45;&gt;Node19</title>
<path fill="none" stroke="midnightblue" d="M182.392,-162.5C194.9,-162.5 208.8,-162.5 221.914,-162.5"/>
<polygon fill="midnightblue" stroke="midnightblue" points="222.222,-166 232.222,-162.5 222.222,-159 222.222,-166"/>
</g>
<!-- Node5 -->
<g id="node5" class="node"><title>Node5</title>
<g id="a_node5"><a xlink:href="$AP__Math_8h.html#a108b79eeb35c5d58f324458ec9e1e9f2" xlink:title="is_zero">
<polygon fill="white" stroke="black" points="400.485,-190.5 400.485,-208.5 448.721,-208.5 448.721,-190.5 400.485,-190.5"/>
<text text-anchor="middle" x="424.603" y="-196.5" font-family="Helvetica,sans-Serif" font-size="10.00">is_zero</text>
</a>
</g>
</g>
<!-- Node4&#45;&gt;Node5 -->
<g id="edge4" class="edge"><title>Node4&#45;&gt;Node5</title>
<path fill="none" stroke="midnightblue" d="M315.153,-199.5C338.603,-199.5 368.084,-199.5 390.387,-199.5"/>
<polygon fill="midnightblue" stroke="midnightblue" points="390.391,-203 400.391,-199.5 390.391,-196 390.391,-203"/>
</g>
<!-- Node6 -->
<g id="node6" class="node"><title>Node6</title>
<g id="a_node6"><a xlink:href="$location_8cpp.html#ad2368c582f3e0c135e2a74772f4db61a" xlink:title="longitude_scale">
<polygon fill="white" stroke="black" points="381.854,-153.5 381.854,-171.5 467.352,-171.5 467.352,-153.5 381.854,-153.5"/>
<text text-anchor="middle" x="424.603" y="-159.5" font-family="Helvetica,sans-Serif" font-size="10.00">longitude_scale</text>
</a>
</g>
</g>
<!-- Node4&#45;&gt;Node6 -->
<g id="edge5" class="edge"><title>Node4&#45;&gt;Node6</title>
<path fill="none" stroke="midnightblue" d="M312.093,-190.449C331.915,-185.481 356.696,-179.27 377.859,-173.965"/>
<polygon fill="midnightblue" stroke="midnightblue" points="378.759,-177.348 387.608,-171.522 377.057,-170.558 378.759,-177.348"/>
</g>
<!-- Node7 -->
<g id="node7" class="node"><title>Node7</title>
<g id="a_node7"><a xlink:href="$AP__Math_8h.html#a27149a7dfbb14319088e8332705c0046" xlink:title="constrain_float">
<polygon fill="white" stroke="black" points="517.414,-153.5 517.414,-171.5 598.453,-171.5 598.453,-153.5 517.414,-153.5"/>
<text text-anchor="middle" x="557.934" y="-159.5" font-family="Helvetica,sans-Serif" font-size="10.00">constrain_float</text>
</a>
</g>
</g>
<!-- Node6&#45;&gt;Node7 -->
<g id="edge6" class="edge"><title>Node6&#45;&gt;Node7</title>
<path fill="none" stroke="midnightblue" d="M467.518,-162.5C480.075,-162.5 493.972,-162.5 506.992,-162.5"/>
<polygon fill="midnightblue" stroke="midnightblue" points="507.204,-166 517.204,-162.5 507.204,-159 507.204,-166"/>
</g>
<!-- Node9 -->
<g id="node9" class="node"><title>Node9</title>
<g id="a_node9"><a xlink:href="$classAP__HAL_1_1UARTDriver.html#aa8abfb6d6641299472c29ac1edde559f" xlink:title="AP_HAL::UARTDriver\l::vprintf">
<polygon fill="white" stroke="black" points="367.792,-69.5 367.792,-97.5 481.414,-97.5 481.414,-69.5 367.792,-69.5"/>
<text text-anchor="start" x="375.792" y="-85.5" font-family="Helvetica,sans-Serif" font-size="10.00">AP_HAL::UARTDriver</text>
<text text-anchor="middle" x="424.603" y="-75.5" font-family="Helvetica,sans-Serif" font-size="10.00">::vprintf</text>
</a>
</g>
</g>
<!-- Node8&#45;&gt;Node9 -->
<g id="edge8" class="edge"><title>Node8&#45;&gt;Node9</title>
<path fill="none" stroke="midnightblue" d="M332.212,-83.5C340.437,-83.5 348.972,-83.5 357.375,-83.5"/>
<polygon fill="midnightblue" stroke="midnightblue" points="357.529,-87.0001 367.529,-83.5 357.529,-80.0001 357.529,-87.0001"/>
</g>
<!-- Node10 -->
<g id="node10" class="node"><title>Node10</title>
<g id="a_node10"><a xlink:href="$print__vprintf_8cpp.html#a473b9349f4b086b552a21eb8fe057016" xlink:title="print_vprintf">
<polygon fill="white" stroke="black" points="523.811,-74.5 523.811,-92.5 592.057,-92.5 592.057,-74.5 523.811,-74.5"/>
<text text-anchor="middle" x="557.934" y="-80.5" font-family="Helvetica,sans-Serif" font-size="10.00">print_vprintf</text>
</a>
</g>
</g>
<!-- Node9&#45;&gt;Node10 -->
<g id="edge9" class="edge"><title>Node9&#45;&gt;Node10</title>
<path fill="none" stroke="midnightblue" d="M481.68,-83.5C492.236,-83.5 503.129,-83.5 513.237,-83.5"/>
<polygon fill="midnightblue" stroke="midnightblue" points="513.44,-87.0001 523.44,-83.5 513.44,-80.0001 513.44,-87.0001"/>
</g>
<!-- Node11 -->
<g id="node11" class="node"><title>Node11</title>
<g id="a_node11"><a xlink:href="$classAP__HAL_1_1Print.html#acc65391952a43334f8f5c9bef341f501" xlink:title="AP_HAL::Print::write">
<polygon fill="white" stroke="black" points="634.453,-148.5 634.453,-166.5 741.596,-166.5 741.596,-148.5 634.453,-148.5"/>
<text text-anchor="middle" x="688.024" y="-154.5" font-family="Helvetica,sans-Serif" font-size="10.00">AP_HAL::Print::write</text>
</a>
</g>
</g>
<!-- Node10&#45;&gt;Node11 -->
<g id="edge10" class="edge"><title>Node10&#45;&gt;Node11</title>
<path fill="none" stroke="midnightblue" d="M575.515,-92.6679C582.753,-96.8969 591.222,-102.158 598.453,-107.5 615.672,-120.219 615.964,-128.71 634.453,-139.5 637.684,-141.386 641.143,-143.113 644.686,-144.687"/>
<polygon fill="midnightblue" stroke="midnightblue" points="643.58,-148.015 654.164,-148.498 646.191,-141.52 643.58,-148.015"/>
</g>
<!-- Node12 -->
<g id="node12" class="node"><title>Node12</title>
<g id="a_node12"><a xlink:href="$ftoa__engine_8cpp.html#a1c28234da8f20b43c85890d4bb452947" xlink:title="ftoa_engine">
<polygon fill="white" stroke="black" points="653.889,-111.5 653.889,-129.5 722.16,-129.5 722.16,-111.5 653.889,-111.5"/>
<text text-anchor="middle" x="688.024" y="-117.5" font-family="Helvetica,sans-Serif" font-size="10.00">ftoa_engine</text>
</a>
</g>
</g>
<!-- Node10&#45;&gt;Node12 -->
<g id="edge11" class="edge"><title>Node10&#45;&gt;Node12</title>
<path fill="none" stroke="midnightblue" d="M590.268,-92.5512C607.016,-97.389 627.843,-103.405 645.88,-108.615"/>
<polygon fill="midnightblue" stroke="midnightblue" points="644.991,-112.001 655.569,-111.414 646.934,-105.276 644.991,-112.001"/>
</g>
<!-- Node13 -->
<g id="node13" class="node"><title>Node13</title>
<g id="a_node13"><a xlink:href="$AP__Progmem_8h.html#a1514e0408e036062b4af844baaf567da" xlink:title="pgm_read_byte">
<polygon fill="white" stroke="black" points="645.278,-74.5 645.278,-92.5 730.771,-92.5 730.771,-74.5 645.278,-74.5"/>
<text text-anchor="middle" x="688.024" y="-80.5" font-family="Helvetica,sans-Serif" font-size="10.00">pgm_read_byte</text>
</a>
</g>
</g>
<!-- Node10&#45;&gt;Node13 -->
<g id="edge12" class="edge"><title>Node10&#45;&gt;Node13</title>
<path fill="none" stroke="midnightblue" d="M592.254,-83.5C605.257,-83.5 620.475,-83.5 634.864,-83.5"/>
<polygon fill="midnightblue" stroke="midnightblue" points="635.151,-87.0001 645.151,-83.5 635.151,-80.0001 635.151,-87.0001"/>
</g>
<!-- Node14 -->
<g id="node14" class="node"><title>Node14</title>
<g id="a_node14"><a xlink:href="$utoa__invert_8cpp.html#a34926f552460b47c414ec4d83b32815c" xlink:title="ulltoa_invert">
<polygon fill="white" stroke="black" points="653.064,-37.5 653.064,-55.5 722.985,-55.5 722.985,-37.5 653.064,-37.5"/>
<text text-anchor="middle" x="688.024" y="-43.5" font-family="Helvetica,sans-Serif" font-size="10.00">ulltoa_invert</text>
</a>
</g>
</g>
<!-- Node10&#45;&gt;Node14 -->
<g id="edge13" class="edge"><title>Node10&#45;&gt;Node14</title>
<path fill="none" stroke="midnightblue" d="M590.268,-74.4488C607.016,-69.611 627.843,-63.5949 645.88,-58.3849"/>
<polygon fill="midnightblue" stroke="midnightblue" points="646.934,-61.7237 655.569,-55.586 644.991,-54.9987 646.934,-61.7237"/>
</g>
<!-- Node15 -->
<g id="node15" class="node"><title>Node15</title>
<g id="a_node15"><a xlink:href="$utoa__invert_8cpp.html#a5d99bba8e697c1e11da489d88fca8559" xlink:title="ultoa_invert">
<polygon fill="white" stroke="black" points="654.175,-0.5 654.175,-18.5 721.874,-18.5 721.874,-0.5 654.175,-0.5"/>
<text text-anchor="middle" x="688.024" y="-6.5" font-family="Helvetica,sans-Serif" font-size="10.00">ultoa_invert</text>
</a>
</g>
</g>
<!-- Node10&#45;&gt;Node15 -->
<g id="edge14" class="edge"><title>Node10&#45;&gt;Node15</title>
<path fill="none" stroke="midnightblue" d="M569.543,-74.2599C583.597,-62.3877 609.527,-41.7355 634.453,-28.5 638.728,-26.23 643.333,-24.1234 647.976,-22.2026"/>
<polygon fill="midnightblue" stroke="midnightblue" points="649.407,-25.4018 657.47,-18.5281 646.88,-18.8738 649.407,-25.4018"/>
</g>
<!-- Node16&#45;&gt;Node6 -->
<g id="edge16" class="edge"><title>Node16&#45;&gt;Node6</title>
<path fill="none" stroke="midnightblue" d="M311.34,-134.362C331.222,-139.346 356.268,-145.623 377.656,-150.984"/>
<polygon fill="midnightblue" stroke="midnightblue" points="376.956,-154.417 387.507,-153.453 378.658,-147.627 376.956,-154.417"/>
</g>
<!-- Node17 -->
<g id="node17" class="node"><title>Node17</title>
<g id="a_node17"><a xlink:href="$AP__Math_8h.html#a4a065531591469723bec18f9034a91c3" xlink:title="pythagorous2">
<polygon fill="white" stroke="black" points="386.303,-116.5 386.303,-134.5 462.903,-134.5 462.903,-116.5 386.303,-116.5"/>
<text text-anchor="middle" x="424.603" y="-122.5" font-family="Helvetica,sans-Serif" font-size="10.00">pythagorous2</text>
</a>
</g>
</g>
<!-- Node16&#45;&gt;Node17 -->
<g id="edge17" class="edge"><title>Node16&#45;&gt;Node17</title>
<path fill="none" stroke="midnightblue" d="M311.34,-125.5C330.765,-125.5 355.121,-125.5 376.177,-125.5"/>
<polygon fill="midnightblue" stroke="midnightblue" points="376.212,-129 386.212,-125.5 376.212,-122 376.212,-129"/>
</g>
<!-- Node18 -->
<g id="node18" class="node"><title>Node18</title>
<g id="a_node18"><a xlink:href="$AP__Math_8h.html#a00f57739f8671cb41eae08a51b7cbf7c" xlink:title="sq">
<polygon fill="white" stroke="black" points="543.434,-116.5 543.434,-134.5 572.434,-134.5 572.434,-116.5 543.434,-116.5"/>
<text text-anchor="middle" x="557.934" y="-122.5" font-family="Helvetica,sans-Serif" font-size="10.00">sq</text>
</a>
</g>
</g>
<!-- Node17&#45;&gt;Node18 -->
<g id="edge18" class="edge"><title>Node17&#45;&gt;Node18</title>
<path fill="none" stroke="midnightblue" d="M463.237,-125.5C485.772,-125.5 513.729,-125.5 533.212,-125.5"/>
<polygon fill="midnightblue" stroke="midnightblue" points="533.338,-129 543.338,-125.5 533.338,-122 533.338,-129"/>
</g>
<!-- Node19&#45;&gt;Node6 -->
<g id="edge20" class="edge"><title>Node19&#45;&gt;Node6</title>
<path fill="none" stroke="midnightblue" d="M317.495,-162.5C334.247,-162.5 353.765,-162.5 371.46,-162.5"/>
<polygon fill="midnightblue" stroke="midnightblue" points="371.633,-166 381.633,-162.5 371.633,-159 371.633,-166"/>
</g>
</g>
</svg>
