<?xml version="1.0" encoding="UTF-8" standalone="no"?>
<!DOCTYPE svg PUBLIC "-//W3C//DTD SVG 1.1//EN"
 "http://www.w3.org/Graphics/SVG/1.1/DTD/svg11.dtd">
<!-- Generated by graphviz version 2.38.0 (20140413.2041)
 -->
<!-- Title: setup Pages: 1 -->
<svg width="595pt" height="200pt"
 viewBox="0.00 0.00 595.10 200.00" xmlns="http://www.w3.org/2000/svg" xmlns:xlink="http://www.w3.org/1999/xlink">
<g id="graph0" class="graph" transform="scale(1 1) rotate(0) translate(4 196)">
<title>setup</title>
<polygon fill="white" stroke="none" points="-4,4 -4,-196 591.096,-196 591.096,4 -4,4"/>
<!-- Node1 -->
<g id="node1" class="node"><title>Node1</title>
<polygon fill="#bfbfbf" stroke="black" points="0,-52.5 0,-70.5 40.4629,-70.5 40.4629,-52.5 0,-52.5"/>
<text text-anchor="middle" x="20.2314" y="-58.5" font-family="Helvetica,sans-Serif" font-size="10.00">setup</text>
</g>
<!-- Node2 -->
<g id="node2" class="node"><title>Node2</title>
<g id="a_node2"><a xlink:href="$classAP__HAL_1_1UARTDriver.html#a65c7824b8877f7a2f79365c8ffae8f56" xlink:title="AP_HAL::UARTDriver\l::printf">
<polygon fill="white" stroke="black" points="76.4629,-94.5 76.4629,-122.5 190.085,-122.5 190.085,-94.5 76.4629,-94.5"/>
<text text-anchor="start" x="84.4629" y="-110.5" font-family="Helvetica,sans-Serif" font-size="10.00">AP_HAL::UARTDriver</text>
<text text-anchor="middle" x="133.274" y="-100.5" font-family="Helvetica,sans-Serif" font-size="10.00">::printf</text>
</a>
</g>
</g>
<!-- Node1&#45;&gt;Node2 -->
<g id="edge1" class="edge"><title>Node1&#45;&gt;Node2</title>
<path fill="none" stroke="midnightblue" d="M40.6188,-70.0317C51.1927,-74.6579 64.5242,-80.4466 76.4629,-85.5 80.3715,-87.1544 84.4403,-88.861 88.5208,-90.5619"/>
<polygon fill="midnightblue" stroke="midnightblue" points="87.4152,-93.8925 97.993,-94.4929 90.0984,-87.4271 87.4152,-93.8925"/>
</g>
<!-- Node10 -->
<g id="node10" class="node"><title>Node10</title>
<g id="a_node10"><a xlink:href="$classLowPassFilter.html#a1cc5016de137b01080fa0a6fa7fe53cd" xlink:title="LowPassFilter::set\l_cutoff_frequency">
<polygon fill="white" stroke="black" points="84.4268,-47.5 84.4268,-75.5 182.121,-75.5 182.121,-47.5 84.4268,-47.5"/>
<text text-anchor="start" x="92.4268" y="-63.5" font-family="Helvetica,sans-Serif" font-size="10.00">LowPassFilter::set</text>
<text text-anchor="middle" x="133.274" y="-53.5" font-family="Helvetica,sans-Serif" font-size="10.00">_cutoff_frequency</text>
</a>
</g>
</g>
<!-- Node1&#45;&gt;Node10 -->
<g id="edge9" class="edge"><title>Node1&#45;&gt;Node10</title>
<path fill="none" stroke="midnightblue" d="M40.5736,-61.5C49.9913,-61.5 61.8689,-61.5 73.9247,-61.5"/>
<polygon fill="midnightblue" stroke="midnightblue" points="74.0435,-65.0001 84.0434,-61.5 74.0434,-58.0001 74.0435,-65.0001"/>
</g>
<!-- Node11 -->
<g id="node11" class="node"><title>Node11</title>
<g id="a_node11"><a xlink:href="$classAP__HAL_1_1Scheduler.html#ab3175e2e6223ccfe82f957e41cc12b26" xlink:title="AP_HAL::Scheduler::\ldelay">
<polygon fill="white" stroke="black" points="78.0254,-0.5 78.0254,-28.5 188.522,-28.5 188.522,-0.5 78.0254,-0.5"/>
<text text-anchor="start" x="86.0254" y="-16.5" font-family="Helvetica,sans-Serif" font-size="10.00">AP_HAL::Scheduler::</text>
<text text-anchor="middle" x="133.274" y="-6.5" font-family="Helvetica,sans-Serif" font-size="10.00">delay</text>
</a>
</g>
</g>
<!-- Node1&#45;&gt;Node11 -->
<g id="edge10" class="edge"><title>Node1&#45;&gt;Node11</title>
<path fill="none" stroke="midnightblue" d="M40.5736,-53.3132C53.9749,-47.641 72.3572,-39.8605 89.1462,-32.7543"/>
<polygon fill="midnightblue" stroke="midnightblue" points="90.9527,-35.7903 98.7975,-28.6693 88.2242,-29.344 90.9527,-35.7903"/>
</g>
<!-- Node3 -->
<g id="node3" class="node"><title>Node3</title>
<g id="a_node3"><a xlink:href="$classAP__HAL_1_1UARTDriver.html#aa8abfb6d6641299472c29ac1edde559f" xlink:title="AP_HAL::UARTDriver\l::vprintf">
<polygon fill="white" stroke="black" points="226.085,-94.5 226.085,-122.5 339.707,-122.5 339.707,-94.5 226.085,-94.5"/>
<text text-anchor="start" x="234.085" y="-110.5" font-family="Helvetica,sans-Serif" font-size="10.00">AP_HAL::UARTDriver</text>
<text text-anchor="middle" x="282.896" y="-100.5" font-family="Helvetica,sans-Serif" font-size="10.00">::vprintf</text>
</a>
</g>
</g>
<!-- Node2&#45;&gt;Node3 -->
<g id="edge2" class="edge"><title>Node2&#45;&gt;Node3</title>
<path fill="none" stroke="midnightblue" d="M190.505,-108.5C198.73,-108.5 207.265,-108.5 215.668,-108.5"/>
<polygon fill="midnightblue" stroke="midnightblue" points="215.822,-112 225.822,-108.5 215.822,-105 215.822,-112"/>
</g>
<!-- Node4 -->
<g id="node4" class="node"><title>Node4</title>
<g id="a_node4"><a xlink:href="$print__vprintf_8cpp.html#a473b9349f4b086b552a21eb8fe057016" xlink:title="print_vprintf">
<polygon fill="white" stroke="black" points="375.707,-99.5 375.707,-117.5 443.953,-117.5 443.953,-99.5 375.707,-99.5"/>
<text text-anchor="middle" x="409.83" y="-105.5" font-family="Helvetica,sans-Serif" font-size="10.00">print_vprintf</text>
</a>
</g>
</g>
<!-- Node3&#45;&gt;Node4 -->
<g id="edge3" class="edge"><title>Node3&#45;&gt;Node4</title>
<path fill="none" stroke="midnightblue" d="M339.786,-108.5C348.374,-108.5 357.13,-108.5 365.394,-108.5"/>
<polygon fill="midnightblue" stroke="midnightblue" points="365.55,-112 375.55,-108.5 365.55,-105 365.55,-112"/>
</g>
<!-- Node5 -->
<g id="node5" class="node"><title>Node5</title>
<g id="a_node5"><a xlink:href="$classAP__HAL_1_1Print.html#acc65391952a43334f8f5c9bef341f501" xlink:title="AP_HAL::Print::write">
<polygon fill="white" stroke="black" points="479.953,-173.5 479.953,-191.5 587.096,-191.5 587.096,-173.5 479.953,-173.5"/>
<text text-anchor="middle" x="533.524" y="-179.5" font-family="Helvetica,sans-Serif" font-size="10.00">AP_HAL::Print::write</text>
</a>
</g>
</g>
<!-- Node4&#45;&gt;Node5 -->
<g id="edge4" class="edge"><title>Node4&#45;&gt;Node5</title>
<path fill="none" stroke="midnightblue" d="M419.894,-117.633C432.417,-129.806 456.169,-151.34 479.953,-164.5 483.415,-166.416 487.118,-168.18 490.894,-169.791"/>
<polygon fill="midnightblue" stroke="midnightblue" points="489.752,-173.103 500.34,-173.483 492.3,-166.583 489.752,-173.103"/>
</g>
<!-- Node6 -->
<g id="node6" class="node"><title>Node6</title>
<g id="a_node6"><a xlink:href="$ftoa__engine_8cpp.html#a1c28234da8f20b43c85890d4bb452947" xlink:title="ftoa_engine">
<polygon fill="white" stroke="black" points="499.389,-136.5 499.389,-154.5 567.66,-154.5 567.66,-136.5 499.389,-136.5"/>
<text text-anchor="middle" x="533.524" y="-142.5" font-family="Helvetica,sans-Serif" font-size="10.00">ftoa_engine</text>
</a>
</g>
</g>
<!-- Node4&#45;&gt;Node6 -->
<g id="edge5" class="edge"><title>Node4&#45;&gt;Node6</title>
<path fill="none" stroke="midnightblue" d="M440.6,-117.551C456.364,-122.344 475.933,-128.294 492.958,-133.47"/>
<polygon fill="midnightblue" stroke="midnightblue" points="492.054,-136.854 502.64,-136.414 494.091,-130.156 492.054,-136.854"/>
</g>
<!-- Node7 -->
<g id="node7" class="node"><title>Node7</title>
<g id="a_node7"><a xlink:href="$AP__Progmem_8h.html#a1514e0408e036062b4af844baaf567da" xlink:title="pgm_read_byte">
<polygon fill="white" stroke="black" points="490.778,-99.5 490.778,-117.5 576.271,-117.5 576.271,-99.5 490.778,-99.5"/>
<text text-anchor="middle" x="533.524" y="-105.5" font-family="Helvetica,sans-Serif" font-size="10.00">pgm_read_byte</text>
</a>
</g>
</g>
<!-- Node4&#45;&gt;Node7 -->
<g id="edge6" class="edge"><title>Node4&#45;&gt;Node7</title>
<path fill="none" stroke="midnightblue" d="M444.084,-108.5C455.299,-108.5 468.102,-108.5 480.417,-108.5"/>
<polygon fill="midnightblue" stroke="midnightblue" points="480.602,-112 490.602,-108.5 480.602,-105 480.602,-112"/>
</g>
<!-- Node8 -->
<g id="node8" class="node"><title>Node8</title>
<g id="a_node8"><a xlink:href="$utoa__invert_8cpp.html#a34926f552460b47c414ec4d83b32815c" xlink:title="ulltoa_invert">
<polygon fill="white" stroke="black" points="498.564,-62.5 498.564,-80.5 568.485,-80.5 568.485,-62.5 498.564,-62.5"/>
<text text-anchor="middle" x="533.524" y="-68.5" font-family="Helvetica,sans-Serif" font-size="10.00">ulltoa_invert</text>
</a>
</g>
</g>
<!-- Node4&#45;&gt;Node8 -->
<g id="edge7" class="edge"><title>Node4&#45;&gt;Node8</title>
<path fill="none" stroke="midnightblue" d="M440.6,-99.4488C456.364,-94.6558 475.933,-88.7062 492.958,-83.5298"/>
<polygon fill="midnightblue" stroke="midnightblue" points="494.091,-86.8437 502.64,-80.586 492.054,-80.1464 494.091,-86.8437"/>
</g>
<!-- Node9 -->
<g id="node9" class="node"><title>Node9</title>
<g id="a_node9"><a xlink:href="$utoa__invert_8cpp.html#a5d99bba8e697c1e11da489d88fca8559" xlink:title="ultoa_invert">
<polygon fill="white" stroke="black" points="499.675,-25.5 499.675,-43.5 567.374,-43.5 567.374,-25.5 499.675,-25.5"/>
<text text-anchor="middle" x="533.524" y="-31.5" font-family="Helvetica,sans-Serif" font-size="10.00">ultoa_invert</text>
</a>
</g>
</g>
<!-- Node4&#45;&gt;Node9 -->
<g id="edge8" class="edge"><title>Node4&#45;&gt;Node9</title>
<path fill="none" stroke="midnightblue" d="M420.392,-99.1918C433.096,-87.2457 456.657,-66.514 479.953,-53.5 483.97,-51.2563 488.301,-49.192 492.694,-47.3176"/>
<polygon fill="midnightblue" stroke="midnightblue" points="494.292,-50.4496 502.308,-43.5217 491.721,-43.9387 494.292,-50.4496"/>
</g>
</g>
</svg>
