<?xml version="1.0" encoding="UTF-8" standalone="no"?>
<!DOCTYPE svg PUBLIC "-//W3C//DTD SVG 1.1//EN"
 "http://www.w3.org/Graphics/SVG/1.1/DTD/svg11.dtd">
<!-- Generated by graphviz version 2.38.0 (20140413.2041)
 -->
<!-- Title: setup Pages: 1 -->
<svg width="927pt" height="495pt"
 viewBox="0.00 0.00 927.28 495.00" xmlns="http://www.w3.org/2000/svg" xmlns:xlink="http://www.w3.org/1999/xlink">
<g id="graph0" class="graph" transform="scale(1 1) rotate(0) translate(4 491)">
<title>setup</title>
<polygon fill="white" stroke="none" points="-4,4 -4,-491 923.284,-491 923.284,4 -4,4"/>
<!-- Node1 -->
<g id="node1" class="node"><title>Node1</title>
<polygon fill="#bfbfbf" stroke="black" points="0,-216.5 0,-234.5 40.4629,-234.5 40.4629,-216.5 0,-216.5"/>
<text text-anchor="middle" x="20.2314" y="-222.5" font-family="Helvetica,sans-Serif" font-size="10.00">setup</text>
</g>
<!-- Node2 -->
<g id="node2" class="node"><title>Node2</title>
<g id="a_node2"><a xlink:href="$examples_2location_2location_8cpp.html#aff2387ea872bdd079c8de9005c934319" xlink:title="test_passed_waypoint">
<polygon fill="white" stroke="black" points="76.4629,-348.5 76.4629,-366.5 191.418,-366.5 191.418,-348.5 76.4629,-348.5"/>
<text text-anchor="middle" x="133.94" y="-354.5" font-family="Helvetica,sans-Serif" font-size="10.00">test_passed_waypoint</text>
</a>
</g>
</g>
<!-- Node1&#45;&gt;Node2 -->
<g id="edge1" class="edge"><title>Node1&#45;&gt;Node2</title>
<path fill="none" stroke="midnightblue" d="M24.9536,-234.664C32.5573,-252.563 51.302,-292.755 76.4629,-319.5 85.1685,-328.754 96.5227,-336.937 106.765,-343.317"/>
<polygon fill="midnightblue" stroke="midnightblue" points="105.002,-346.34 115.386,-348.441 108.578,-340.323 105.002,-346.34"/>
</g>
<!-- Node14 -->
<g id="node14" class="node"><title>Node14</title>
<g id="a_node14"><a xlink:href="$classAP__HAL_1_1UARTDriver.html#a65c7824b8877f7a2f79365c8ffae8f56" xlink:title="AP_HAL::UARTDriver\l::printf">
<polygon fill="white" stroke="black" points="385.17,-185.5 385.17,-213.5 498.792,-213.5 498.792,-185.5 385.17,-185.5"/>
<text text-anchor="start" x="393.17" y="-201.5" font-family="Helvetica,sans-Serif" font-size="10.00">AP_HAL::UARTDriver</text>
<text text-anchor="middle" x="441.981" y="-191.5" font-family="Helvetica,sans-Serif" font-size="10.00">::printf</text>
</a>
</g>
</g>
<!-- Node1&#45;&gt;Node14 -->
<g id="edge48" class="edge"><title>Node1&#45;&gt;Node14</title>
<path fill="none" stroke="midnightblue" d="M40.635,-224.298C99.3427,-220.662 277.024,-209.656 374.769,-203.601"/>
<polygon fill="midnightblue" stroke="midnightblue" points="375.072,-207.089 384.837,-202.978 374.64,-200.103 375.072,-207.089"/>
</g>
<!-- Node21 -->
<g id="node21" class="node"><title>Node21</title>
<g id="a_node21"><a xlink:href="$examples_2location_2location_8cpp.html#ac7efc0072d2ac5bca8b847032980a1dd" xlink:title="test_offset">
<polygon fill="white" stroke="black" points="102.959,-292.5 102.959,-310.5 164.921,-310.5 164.921,-292.5 102.959,-292.5"/>
<text text-anchor="middle" x="133.94" y="-298.5" font-family="Helvetica,sans-Serif" font-size="10.00">test_offset</text>
</a>
</g>
</g>
<!-- Node1&#45;&gt;Node21 -->
<g id="edge22" class="edge"><title>Node1&#45;&gt;Node21</title>
<path fill="none" stroke="midnightblue" d="M34.4846,-234.517C53.4645,-247.429 88.6028,-271.335 111.362,-286.819"/>
<polygon fill="midnightblue" stroke="midnightblue" points="109.468,-289.764 119.705,-292.495 113.405,-283.976 109.468,-289.764"/>
</g>
<!-- Node29 -->
<g id="node29" class="node"><title>Node29</title>
<g id="a_node29"><a xlink:href="$examples_2location_2location_8cpp.html#a2cdcbcb30d47a7c6a9fde641d87a0b0f" xlink:title="test_accuracy">
<polygon fill="white" stroke="black" points="246.332,-235.5 246.332,-253.5 324.026,-253.5 324.026,-235.5 246.332,-235.5"/>
<text text-anchor="middle" x="285.179" y="-241.5" font-family="Helvetica,sans-Serif" font-size="10.00">test_accuracy</text>
</a>
</g>
</g>
<!-- Node1&#45;&gt;Node29 -->
<g id="edge35" class="edge"><title>Node1&#45;&gt;Node29</title>
<path fill="none" stroke="midnightblue" d="M40.5666,-226.897C81.4045,-229.848 177.493,-236.791 236.05,-241.022"/>
<polygon fill="midnightblue" stroke="midnightblue" points="235.945,-244.524 246.171,-241.754 236.449,-237.542 235.945,-244.524"/>
</g>
<!-- Node30 -->
<g id="node30" class="node"><title>Node30</title>
<g id="a_node30"><a xlink:href="$examples_2location_2location_8cpp.html#a18b394b760075c6e3788a2387b9c70a6" xlink:title="test_wrap_cd">
<polygon fill="white" stroke="black" points="96.2017,-74.5 96.2017,-92.5 171.679,-92.5 171.679,-74.5 96.2017,-74.5"/>
<text text-anchor="middle" x="133.94" y="-80.5" font-family="Helvetica,sans-Serif" font-size="10.00">test_wrap_cd</text>
</a>
</g>
</g>
<!-- Node1&#45;&gt;Node30 -->
<g id="edge38" class="edge"><title>Node1&#45;&gt;Node30</title>
<path fill="none" stroke="midnightblue" d="M25.5747,-216.283C33.9642,-199.004 53.6008,-161.008 76.4629,-133.5 87.1349,-120.659 101.186,-108.206 112.603,-98.9404"/>
<polygon fill="midnightblue" stroke="midnightblue" points="115.047,-101.47 120.72,-92.5222 110.705,-95.9788 115.047,-101.47"/>
</g>
<!-- Node34 -->
<g id="node34" class="node"><title>Node34</title>
<g id="a_node34"><a xlink:href="$examples_2location_2location_8cpp.html#a630a3e10ff505da8c4e7dbcfdbd1ff76" xlink:title="test_wgs_conversion\l_functions">
<polygon fill="white" stroke="black" points="230.487,-111.5 230.487,-139.5 339.871,-139.5 339.871,-111.5 230.487,-111.5"/>
<text text-anchor="start" x="238.487" y="-127.5" font-family="Helvetica,sans-Serif" font-size="10.00">test_wgs_conversion</text>
<text text-anchor="middle" x="285.179" y="-117.5" font-family="Helvetica,sans-Serif" font-size="10.00">_functions</text>
</a>
</g>
</g>
<!-- Node1&#45;&gt;Node34 -->
<g id="edge43" class="edge"><title>Node1&#45;&gt;Node34</title>
<path fill="none" stroke="midnightblue" d="M34.3869,-216.478C45.297,-209.285 61.404,-199.321 76.4629,-192.5 123.276,-171.297 178.788,-153.755 220.643,-141.946"/>
<polygon fill="midnightblue" stroke="midnightblue" points="221.741,-145.273 230.434,-139.217 219.862,-138.53 221.741,-145.273"/>
</g>
<!-- Node3 -->
<g id="node3" class="node"><title>Node3</title>
<g id="a_node3"><a xlink:href="$classAP__HAL_1_1Print.html#ad337ce3f7977411b7d34d47a51e5737e" xlink:title="AP_HAL::Print::println">
<polygon fill="white" stroke="black" points="228.546,-430.5 228.546,-448.5 341.812,-448.5 341.812,-430.5 228.546,-430.5"/>
<text text-anchor="middle" x="285.179" y="-436.5" font-family="Helvetica,sans-Serif" font-size="10.00">AP_HAL::Print::println</text>
</a>
</g>
</g>
<!-- Node2&#45;&gt;Node3 -->
<g id="edge2" class="edge"><title>Node2&#45;&gt;Node3</title>
<path fill="none" stroke="midnightblue" d="M149.436,-366.689C167.443,-377.972 199.238,-397.459 227.418,-412.5 236.185,-417.179 245.896,-421.946 254.772,-426.145"/>
<polygon fill="midnightblue" stroke="midnightblue" points="253.448,-429.39 263.99,-430.449 256.409,-423.047 253.448,-429.39"/>
</g>
<!-- Node7 -->
<g id="node7" class="node"><title>Node7</title>
<g id="a_node7"><a xlink:href="$examples_2location_2location_8cpp.html#a117c49dcd63a2274afc6c2e413e9fa9e" xlink:title="location_from_point">
<polygon fill="white" stroke="black" points="233.541,-385.5 233.541,-403.5 336.816,-403.5 336.816,-385.5 233.541,-385.5"/>
<text text-anchor="middle" x="285.179" y="-391.5" font-family="Helvetica,sans-Serif" font-size="10.00">location_from_point</text>
</a>
</g>
</g>
<!-- Node2&#45;&gt;Node7 -->
<g id="edge7" class="edge"><title>Node2&#45;&gt;Node7</title>
<path fill="none" stroke="midnightblue" d="M171.448,-366.551C191.487,-371.519 216.539,-377.73 237.934,-383.035"/>
<polygon fill="midnightblue" stroke="midnightblue" points="237.241,-386.469 247.789,-385.478 238.926,-379.675 237.241,-386.469"/>
</g>
<!-- Node8 -->
<g id="node8" class="node"><title>Node8</title>
<g id="a_node8"><a xlink:href="$location_8cpp.html#ab6cd880d070717b4c3cc7a7278768e72" xlink:title="location_passed_point">
<polygon fill="white" stroke="black" points="227.418,-348.5 227.418,-366.5 342.939,-366.5 342.939,-348.5 227.418,-348.5"/>
<text text-anchor="middle" x="285.179" y="-354.5" font-family="Helvetica,sans-Serif" font-size="10.00">location_passed_point</text>
</a>
</g>
</g>
<!-- Node2&#45;&gt;Node8 -->
<g id="edge8" class="edge"><title>Node2&#45;&gt;Node8</title>
<path fill="none" stroke="midnightblue" d="M191.787,-357.5C199.985,-357.5 208.488,-357.5 216.866,-357.5"/>
<polygon fill="midnightblue" stroke="midnightblue" points="216.996,-361 226.996,-357.5 216.996,-354 216.996,-361"/>
</g>
<!-- Node2&#45;&gt;Node14 -->
<g id="edge14" class="edge"><title>Node2&#45;&gt;Node14</title>
<path fill="none" stroke="midnightblue" d="M147.91,-348.386C165.354,-336.429 197.631,-315.343 227.418,-301.5 276.56,-278.662 297.665,-292.278 342.939,-262.5 362.922,-249.357 359.152,-235.936 378.939,-222.5 381.179,-220.98 383.531,-219.544 385.958,-218.191"/>
<polygon fill="midnightblue" stroke="midnightblue" points="387.632,-221.266 394.993,-213.646 384.487,-215.013 387.632,-221.266"/>
</g>
<!-- Node4 -->
<g id="node4" class="node"><title>Node4</title>
<g id="a_node4"><a xlink:href="$classAP__HAL_1_1Print.html#acfe80773011eb17dfb52c2fba517a093" xlink:title="AP_HAL::Print::print">
<polygon fill="white" stroke="black" points="545.092,-458.5 545.092,-476.5 650.575,-476.5 650.575,-458.5 545.092,-458.5"/>
<text text-anchor="middle" x="597.833" y="-464.5" font-family="Helvetica,sans-Serif" font-size="10.00">AP_HAL::Print::print</text>
</a>
</g>
</g>
<!-- Node3&#45;&gt;Node4 -->
<g id="edge3" class="edge"><title>Node3&#45;&gt;Node4</title>
<path fill="none" stroke="midnightblue" d="M341.962,-444.171C386.196,-447.917 449.579,-453.376 505.022,-458.5 514.61,-459.386 524.757,-460.352 534.673,-461.312"/>
<polygon fill="midnightblue" stroke="midnightblue" points="534.598,-464.821 544.89,-462.307 535.276,-457.854 534.598,-464.821"/>
</g>
<!-- Node6 -->
<g id="node6" class="node"><title>Node6</title>
<g id="a_node6"><a xlink:href="$classAP__HAL_1_1Print.html#a169b128f9e22f0c15883768f580541a2" xlink:title="AP_HAL::Print::println">
<polygon fill="white" stroke="black" points="385.348,-468.5 385.348,-486.5 498.614,-486.5 498.614,-468.5 385.348,-468.5"/>
<text text-anchor="middle" x="441.981" y="-474.5" font-family="Helvetica,sans-Serif" font-size="10.00">AP_HAL::Print::println</text>
</a>
</g>
</g>
<!-- Node3&#45;&gt;Node6 -->
<g id="edge5" class="edge"><title>Node3&#45;&gt;Node6</title>
<path fill="none" stroke="midnightblue" d="M322.865,-448.505C344.283,-453.763 371.515,-460.448 394.433,-466.074"/>
<polygon fill="midnightblue" stroke="midnightblue" points="393.744,-469.508 404.29,-468.493 395.413,-462.71 393.744,-469.508"/>
</g>
<!-- Node5 -->
<g id="node5" class="node"><title>Node5</title>
<g id="a_node5"><a xlink:href="$classAP__HAL_1_1Print.html#acc65391952a43334f8f5c9bef341f501" xlink:title="AP_HAL::Print::write">
<polygon fill="white" stroke="black" points="812.142,-262.5 812.142,-280.5 919.284,-280.5 919.284,-262.5 812.142,-262.5"/>
<text text-anchor="middle" x="865.713" y="-268.5" font-family="Helvetica,sans-Serif" font-size="10.00">AP_HAL::Print::write</text>
</a>
</g>
</g>
<!-- Node4&#45;&gt;Node5 -->
<g id="edge4" class="edge"><title>Node4&#45;&gt;Node5</title>
<path fill="none" stroke="midnightblue" d="M650.936,-466.239C690.317,-462.51 743.072,-451.144 776.142,-418.5 816.982,-378.185 774.281,-337.626 812.142,-294.5 815.219,-290.994 818.93,-288.001 822.94,-285.451"/>
<polygon fill="midnightblue" stroke="midnightblue" points="824.912,-288.365 832.064,-280.548 821.598,-282.199 824.912,-288.365"/>
</g>
<!-- Node6&#45;&gt;Node4 -->
<g id="edge6" class="edge"><title>Node6&#45;&gt;Node4</title>
<path fill="none" stroke="midnightblue" d="M498.96,-473.861C510.59,-473.106 522.91,-472.305 534.744,-471.536"/>
<polygon fill="midnightblue" stroke="midnightblue" points="535.236,-475.011 544.988,-470.87 534.782,-468.026 535.236,-475.011"/>
</g>
<!-- Node9 -->
<g id="node9" class="node"><title>Node9</title>
<g id="a_node9"><a xlink:href="$location_8cpp.html#ab0ccbafe7e2809759eea8d45d23e4ba0" xlink:title="location_path_proportion">
<polygon fill="white" stroke="black" points="378.939,-392.5 378.939,-410.5 505.022,-410.5 505.022,-392.5 378.939,-392.5"/>
<text text-anchor="middle" x="441.981" y="-398.5" font-family="Helvetica,sans-Serif" font-size="10.00">location_path_proportion</text>
</a>
</g>
</g>
<!-- Node8&#45;&gt;Node9 -->
<g id="edge9" class="edge"><title>Node8&#45;&gt;Node9</title>
<path fill="none" stroke="midnightblue" d="M317.879,-366.51C341.384,-373.191 373.649,-382.362 399.251,-389.639"/>
<polygon fill="midnightblue" stroke="midnightblue" points="398.482,-393.059 409.058,-392.426 400.396,-386.326 398.482,-393.059"/>
</g>
<!-- Node10 -->
<g id="node10" class="node"><title>Node10</title>
<g id="a_node10"><a xlink:href="$location_8cpp.html#a527b26472ed6f2e0c141e109a0722a0a" xlink:title="location_diff">
<polygon fill="white" stroke="black" points="563.237,-345.5 563.237,-363.5 632.43,-363.5 632.43,-345.5 563.237,-345.5"/>
<text text-anchor="middle" x="597.833" y="-351.5" font-family="Helvetica,sans-Serif" font-size="10.00">location_diff</text>
</a>
</g>
</g>
<!-- Node9&#45;&gt;Node10 -->
<g id="edge10" class="edge"><title>Node9&#45;&gt;Node10</title>
<path fill="none" stroke="midnightblue" d="M472.645,-392.438C496.803,-385.058 531.113,-374.577 557.551,-366.5"/>
<polygon fill="midnightblue" stroke="midnightblue" points="558.719,-369.803 567.26,-363.534 556.674,-363.109 558.719,-369.803"/>
</g>
<!-- Node13 -->
<g id="node13" class="node"><title>Node13</title>
<g id="a_node13"><a xlink:href="$AP__Math_8h.html#a00f57739f8671cb41eae08a51b7cbf7c" xlink:title="sq">
<polygon fill="white" stroke="black" points="718.893,-391.5 718.893,-409.5 747.893,-409.5 747.893,-391.5 718.893,-391.5"/>
<text text-anchor="middle" x="733.393" y="-397.5" font-family="Helvetica,sans-Serif" font-size="10.00">sq</text>
</a>
</g>
</g>
<!-- Node9&#45;&gt;Node13 -->
<g id="edge13" class="edge"><title>Node9&#45;&gt;Node13</title>
<path fill="none" stroke="midnightblue" d="M505.172,-407.342C517.063,-408.241 529.419,-409.027 541.022,-409.5 591.479,-411.555 604.23,-412.408 654.645,-409.5 672.765,-408.455 693.144,-406.05 708.49,-403.989"/>
<polygon fill="midnightblue" stroke="midnightblue" points="709.248,-407.417 718.671,-402.573 708.284,-400.484 709.248,-407.417"/>
</g>
<!-- Node11 -->
<g id="node11" class="node"><title>Node11</title>
<g id="a_node11"><a xlink:href="$location_8cpp.html#ad2368c582f3e0c135e2a74772f4db61a" xlink:title="longitude_scale">
<polygon fill="white" stroke="black" points="690.645,-304.5 690.645,-322.5 776.142,-322.5 776.142,-304.5 690.645,-304.5"/>
<text text-anchor="middle" x="733.393" y="-310.5" font-family="Helvetica,sans-Serif" font-size="10.00">longitude_scale</text>
</a>
</g>
</g>
<!-- Node10&#45;&gt;Node11 -->
<g id="edge11" class="edge"><title>Node10&#45;&gt;Node11</title>
<path fill="none" stroke="midnightblue" d="M628.475,-345.401C647.495,-339.562 672.41,-331.914 693.076,-325.57"/>
<polygon fill="midnightblue" stroke="midnightblue" points="694.302,-328.854 702.835,-322.574 692.248,-322.163 694.302,-328.854"/>
</g>
<!-- Node12 -->
<g id="node12" class="node"><title>Node12</title>
<g id="a_node12"><a xlink:href="$AP__Math_8h.html#a27149a7dfbb14319088e8332705c0046" xlink:title="constrain_float">
<polygon fill="white" stroke="black" points="825.193,-304.5 825.193,-322.5 906.232,-322.5 906.232,-304.5 825.193,-304.5"/>
<text text-anchor="middle" x="865.713" y="-310.5" font-family="Helvetica,sans-Serif" font-size="10.00">constrain_float</text>
</a>
</g>
</g>
<!-- Node11&#45;&gt;Node12 -->
<g id="edge12" class="edge"><title>Node11&#45;&gt;Node12</title>
<path fill="none" stroke="midnightblue" d="M776.344,-313.5C788.674,-313.5 802.279,-313.5 815.042,-313.5"/>
<polygon fill="midnightblue" stroke="midnightblue" points="815.057,-317 825.057,-313.5 815.057,-310 815.057,-317"/>
</g>
<!-- Node15 -->
<g id="node15" class="node"><title>Node15</title>
<g id="a_node15"><a xlink:href="$classAP__HAL_1_1UARTDriver.html#aa8abfb6d6641299472c29ac1edde559f" xlink:title="AP_HAL::UARTDriver\l::vprintf">
<polygon fill="white" stroke="black" points="541.022,-147.5 541.022,-175.5 654.645,-175.5 654.645,-147.5 541.022,-147.5"/>
<text text-anchor="start" x="549.022" y="-163.5" font-family="Helvetica,sans-Serif" font-size="10.00">AP_HAL::UARTDriver</text>
<text text-anchor="middle" x="597.833" y="-153.5" font-family="Helvetica,sans-Serif" font-size="10.00">::vprintf</text>
</a>
</g>
</g>
<!-- Node14&#45;&gt;Node15 -->
<g id="edge15" class="edge"><title>Node14&#45;&gt;Node15</title>
<path fill="none" stroke="midnightblue" d="M498.96,-185.674C509.42,-183.09 520.438,-180.369 531.159,-177.721"/>
<polygon fill="midnightblue" stroke="midnightblue" points="532.027,-181.112 540.896,-175.316 530.348,-174.316 532.027,-181.112"/>
</g>
<!-- Node16 -->
<g id="node16" class="node"><title>Node16</title>
<g id="a_node16"><a xlink:href="$print__vprintf_8cpp.html#a473b9349f4b086b552a21eb8fe057016" xlink:title="print_vprintf">
<polygon fill="white" stroke="black" points="699.27,-158.5 699.27,-176.5 767.516,-176.5 767.516,-158.5 699.27,-158.5"/>
<text text-anchor="middle" x="733.393" y="-164.5" font-family="Helvetica,sans-Serif" font-size="10.00">print_vprintf</text>
</a>
</g>
</g>
<!-- Node15&#45;&gt;Node16 -->
<g id="edge16" class="edge"><title>Node15&#45;&gt;Node16</title>
<path fill="none" stroke="midnightblue" d="M654.701,-164.01C666.185,-164.526 678.112,-165.061 689.072,-165.554"/>
<polygon fill="midnightblue" stroke="midnightblue" points="689.092,-169.058 699.239,-166.011 689.406,-162.065 689.092,-169.058"/>
</g>
<!-- Node16&#45;&gt;Node5 -->
<g id="edge17" class="edge"><title>Node16&#45;&gt;Node5</title>
<path fill="none" stroke="midnightblue" d="M742.856,-176.911C756.502,-191.759 784.632,-221.034 812.142,-241.5 819.86,-247.242 828.781,-252.714 837.058,-257.374"/>
<polygon fill="midnightblue" stroke="midnightblue" points="835.574,-260.552 846.03,-262.263 838.923,-254.405 835.574,-260.552"/>
</g>
<!-- Node17 -->
<g id="node17" class="node"><title>Node17</title>
<g id="a_node17"><a xlink:href="$ftoa__engine_8cpp.html#a1c28234da8f20b43c85890d4bb452947" xlink:title="ftoa_engine">
<polygon fill="white" stroke="black" points="831.578,-177.5 831.578,-195.5 899.848,-195.5 899.848,-177.5 831.578,-177.5"/>
<text text-anchor="middle" x="865.713" y="-183.5" font-family="Helvetica,sans-Serif" font-size="10.00">ftoa_engine</text>
</a>
</g>
</g>
<!-- Node16&#45;&gt;Node17 -->
<g id="edge18" class="edge"><title>Node16&#45;&gt;Node17</title>
<path fill="none" stroke="midnightblue" d="M767.615,-172.344C784.006,-174.733 803.977,-177.645 821.537,-180.205"/>
<polygon fill="midnightblue" stroke="midnightblue" points="821.151,-183.686 831.551,-181.665 822.161,-176.759 821.151,-183.686"/>
</g>
<!-- Node18 -->
<g id="node18" class="node"><title>Node18</title>
<g id="a_node18"><a xlink:href="$AP__Progmem_8h.html#a1514e0408e036062b4af844baaf567da" xlink:title="pgm_read_byte">
<polygon fill="white" stroke="black" points="822.967,-140.5 822.967,-158.5 908.459,-158.5 908.459,-140.5 822.967,-140.5"/>
<text text-anchor="middle" x="865.713" y="-146.5" font-family="Helvetica,sans-Serif" font-size="10.00">pgm_read_byte</text>
</a>
</g>
</g>
<!-- Node16&#45;&gt;Node18 -->
<g id="edge19" class="edge"><title>Node16&#45;&gt;Node18</title>
<path fill="none" stroke="midnightblue" d="M767.615,-162.911C781.218,-161.032 797.287,-158.813 812.397,-156.726"/>
<polygon fill="midnightblue" stroke="midnightblue" points="813.235,-160.144 822.662,-155.308 812.277,-153.209 813.235,-160.144"/>
</g>
<!-- Node19 -->
<g id="node19" class="node"><title>Node19</title>
<g id="a_node19"><a xlink:href="$utoa__invert_8cpp.html#a34926f552460b47c414ec4d83b32815c" xlink:title="ulltoa_invert">
<polygon fill="white" stroke="black" points="830.752,-103.5 830.752,-121.5 900.673,-121.5 900.673,-103.5 830.752,-103.5"/>
<text text-anchor="middle" x="865.713" y="-109.5" font-family="Helvetica,sans-Serif" font-size="10.00">ulltoa_invert</text>
</a>
</g>
</g>
<!-- Node16&#45;&gt;Node19 -->
<g id="edge20" class="edge"><title>Node16&#45;&gt;Node19</title>
<path fill="none" stroke="midnightblue" d="M752.044,-158.388C767.636,-150.512 791.1,-139.076 812.142,-130.5 816.878,-128.57 821.907,-126.667 826.905,-124.863"/>
<polygon fill="midnightblue" stroke="midnightblue" points="828.114,-128.148 836.391,-121.535 825.796,-121.543 828.114,-128.148"/>
</g>
<!-- Node20 -->
<g id="node20" class="node"><title>Node20</title>
<g id="a_node20"><a xlink:href="$utoa__invert_8cpp.html#a5d99bba8e697c1e11da489d88fca8559" xlink:title="ultoa_invert">
<polygon fill="white" stroke="black" points="831.863,-214.5 831.863,-232.5 899.562,-232.5 899.562,-214.5 831.863,-214.5"/>
<text text-anchor="middle" x="865.713" y="-220.5" font-family="Helvetica,sans-Serif" font-size="10.00">ultoa_invert</text>
</a>
</g>
</g>
<!-- Node16&#45;&gt;Node20 -->
<g id="edge21" class="edge"><title>Node16&#45;&gt;Node20</title>
<path fill="none" stroke="midnightblue" d="M752.081,-176.524C767.696,-184.344 791.174,-195.746 812.142,-204.5 817.347,-206.673 822.899,-208.839 828.371,-210.889"/>
<polygon fill="midnightblue" stroke="midnightblue" points="827.451,-214.279 838.044,-214.43 829.857,-207.705 827.451,-214.279"/>
</g>
<!-- Node22 -->
<g id="node22" class="node"><title>Node22</title>
<g id="a_node22"><a xlink:href="$examples_2location_2location_8cpp.html#af4c4a815e04b2917f9e189120d8b2ad1" xlink:title="test_one_offset">
<polygon fill="white" stroke="black" points="243.075,-311.5 243.075,-329.5 327.283,-329.5 327.283,-311.5 243.075,-311.5"/>
<text text-anchor="middle" x="285.179" y="-317.5" font-family="Helvetica,sans-Serif" font-size="10.00">test_one_offset</text>
</a>
</g>
</g>
<!-- Node21&#45;&gt;Node22 -->
<g id="edge23" class="edge"><title>Node21&#45;&gt;Node22</title>
<path fill="none" stroke="midnightblue" d="M165.141,-305.345C184.566,-307.818 210.306,-311.095 232.879,-313.969"/>
<polygon fill="midnightblue" stroke="midnightblue" points="232.632,-317.466 242.994,-315.257 233.516,-310.522 232.632,-317.466"/>
</g>
<!-- Node22&#45;&gt;Node14 -->
<g id="edge28" class="edge"><title>Node22&#45;&gt;Node14</title>
<path fill="none" stroke="midnightblue" d="M318.604,-311.43C327.267,-307.84 336.109,-302.98 342.939,-296.5 369.474,-271.329 351.845,-247.067 378.939,-222.5 380.256,-221.306 381.64,-220.173 383.078,-219.097"/>
<polygon fill="midnightblue" stroke="midnightblue" points="385.258,-221.859 391.821,-213.541 381.504,-215.95 385.258,-221.859"/>
</g>
<!-- Node23 -->
<g id="node23" class="node"><title>Node23</title>
<g id="a_node23"><a xlink:href="$classAP__HAL_1_1Scheduler.html#add46d722bfb08a16f220e63591654e46" xlink:title="AP_HAL::Scheduler::\lmicros">
<polygon fill="white" stroke="black" points="386.732,-306.5 386.732,-334.5 497.229,-334.5 497.229,-306.5 386.732,-306.5"/>
<text text-anchor="start" x="394.732" y="-322.5" font-family="Helvetica,sans-Serif" font-size="10.00">AP_HAL::Scheduler::</text>
<text text-anchor="middle" x="441.981" y="-312.5" font-family="Helvetica,sans-Serif" font-size="10.00">micros</text>
</a>
</g>
</g>
<!-- Node22&#45;&gt;Node23 -->
<g id="edge24" class="edge"><title>Node22&#45;&gt;Node23</title>
<path fill="none" stroke="midnightblue" d="M327.663,-320.5C342.644,-320.5 359.933,-320.5 376.421,-320.5"/>
<polygon fill="midnightblue" stroke="midnightblue" points="376.557,-324 386.557,-320.5 376.557,-317 376.557,-324"/>
</g>
<!-- Node24 -->
<g id="node24" class="node"><title>Node24</title>
<g id="a_node24"><a xlink:href="$location_8cpp.html#a717b438a67f0b41665feec9009ba1bd4" xlink:title="location_offset">
<polygon fill="white" stroke="black" points="401.825,-232.5 401.825,-250.5 482.137,-250.5 482.137,-232.5 401.825,-232.5"/>
<text text-anchor="middle" x="441.981" y="-238.5" font-family="Helvetica,sans-Serif" font-size="10.00">location_offset</text>
</a>
</g>
</g>
<!-- Node22&#45;&gt;Node24 -->
<g id="edge25" class="edge"><title>Node22&#45;&gt;Node24</title>
<path fill="none" stroke="midnightblue" d="M313.594,-311.465C323.301,-307.62 334.018,-302.598 342.939,-296.5 361.881,-283.553 359.269,-271.311 378.939,-259.5 383.05,-257.032 387.518,-254.886 392.109,-253.024"/>
<polygon fill="midnightblue" stroke="midnightblue" points="393.413,-256.274 401.631,-249.587 391.037,-249.69 393.413,-256.274"/>
</g>
<!-- Node26 -->
<g id="node26" class="node"><title>Node26</title>
<g id="a_node26"><a xlink:href="$location_8cpp.html#aa825a788804b8dd4cf1e3cfb42960a8b" xlink:title="get_distance">
<polygon fill="white" stroke="black" points="405.626,-269.5 405.626,-287.5 478.335,-287.5 478.335,-269.5 405.626,-269.5"/>
<text text-anchor="middle" x="441.981" y="-275.5" font-family="Helvetica,sans-Serif" font-size="10.00">get_distance</text>
</a>
</g>
</g>
<!-- Node22&#45;&gt;Node26 -->
<g id="edge29" class="edge"><title>Node22&#45;&gt;Node26</title>
<path fill="none" stroke="midnightblue" d="M319.388,-311.49C342.266,-305.283 372.89,-296.974 397.681,-290.248"/>
<polygon fill="midnightblue" stroke="midnightblue" points="398.826,-293.564 407.56,-287.568 396.993,-286.808 398.826,-293.564"/>
</g>
<!-- Node28 -->
<g id="node28" class="node"><title>Node28</title>
<g id="a_node28"><a xlink:href="$location_8cpp.html#a224e7b94333df3a15a18499026474ac9" xlink:title="get_bearing_cd">
<polygon fill="white" stroke="black" points="555.361,-308.5 555.361,-326.5 640.306,-326.5 640.306,-308.5 555.361,-308.5"/>
<text text-anchor="middle" x="597.833" y="-314.5" font-family="Helvetica,sans-Serif" font-size="10.00">get_bearing_cd</text>
</a>
</g>
</g>
<!-- Node22&#45;&gt;Node28 -->
<g id="edge33" class="edge"><title>Node22&#45;&gt;Node28</title>
<path fill="none" stroke="midnightblue" d="M315.084,-329.592C333.217,-334.813 357.2,-340.845 378.939,-343.5 434.563,-350.293 449.518,-351.208 505.022,-343.5 515.457,-342.051 538.186,-335.624 558.417,-329.523"/>
<polygon fill="midnightblue" stroke="midnightblue" points="559.537,-332.841 568.083,-326.578 557.497,-326.145 559.537,-332.841"/>
</g>
<!-- Node24&#45;&gt;Node11 -->
<g id="edge27" class="edge"><title>Node24&#45;&gt;Node11</title>
<path fill="none" stroke="midnightblue" d="M482.52,-246.884C525.441,-253.253 595.742,-265.219 654.645,-282.5 671.072,-287.319 688.846,-294.268 703.247,-300.366"/>
<polygon fill="midnightblue" stroke="midnightblue" points="702.053,-303.663 712.621,-304.415 704.829,-297.237 702.053,-303.663"/>
</g>
<!-- Node25 -->
<g id="node25" class="node"><title>Node25</title>
<g id="a_node25"><a xlink:href="$AP__Math_8h.html#a108b79eeb35c5d58f324458ec9e1e9f2" xlink:title="is_zero">
<polygon fill="white" stroke="black" points="573.715,-194.5 573.715,-212.5 621.952,-212.5 621.952,-194.5 573.715,-194.5"/>
<text text-anchor="middle" x="597.833" y="-200.5" font-family="Helvetica,sans-Serif" font-size="10.00">is_zero</text>
</a>
</g>
</g>
<!-- Node24&#45;&gt;Node25 -->
<g id="edge26" class="edge"><title>Node24&#45;&gt;Node25</title>
<path fill="none" stroke="midnightblue" d="M479.442,-232.495C504.945,-226.196 538.742,-217.848 563.522,-211.728"/>
<polygon fill="midnightblue" stroke="midnightblue" points="564.671,-215.049 573.54,-209.253 562.992,-208.253 564.671,-215.049"/>
</g>
<!-- Node26&#45;&gt;Node11 -->
<g id="edge30" class="edge"><title>Node26&#45;&gt;Node11</title>
<path fill="none" stroke="midnightblue" d="M478.683,-280.819C520.86,-283.802 593.079,-289.673 654.645,-298.5 663.056,-299.706 671.938,-301.204 680.573,-302.783"/>
<polygon fill="midnightblue" stroke="midnightblue" points="680.079,-306.251 690.554,-304.661 681.374,-299.372 680.079,-306.251"/>
</g>
<!-- Node27 -->
<g id="node27" class="node"><title>Node27</title>
<g id="a_node27"><a xlink:href="$AP__Math_8h.html#a4a065531591469723bec18f9034a91c3" xlink:title="pythagorous2">
<polygon fill="white" stroke="black" points="559.533,-382.5 559.533,-400.5 636.134,-400.5 636.134,-382.5 559.533,-382.5"/>
<text text-anchor="middle" x="597.833" y="-388.5" font-family="Helvetica,sans-Serif" font-size="10.00">pythagorous2</text>
</a>
</g>
</g>
<!-- Node26&#45;&gt;Node27 -->
<g id="edge31" class="edge"><title>Node26&#45;&gt;Node27</title>
<path fill="none" stroke="midnightblue" d="M478.361,-283.314C487.829,-285.975 497.508,-290.101 505.022,-296.5 533.479,-320.732 513.128,-347.623 541.022,-372.5 543.823,-374.997 546.965,-377.169 550.295,-379.057"/>
<polygon fill="midnightblue" stroke="midnightblue" points="548.905,-382.272 559.438,-383.421 551.921,-375.955 548.905,-382.272"/>
</g>
<!-- Node27&#45;&gt;Node13 -->
<g id="edge32" class="edge"><title>Node27&#45;&gt;Node13</title>
<path fill="none" stroke="midnightblue" d="M636.393,-394.031C659.568,-395.593 688.593,-397.548 708.626,-398.898"/>
<polygon fill="midnightblue" stroke="midnightblue" points="708.525,-402.399 718.737,-399.58 708.995,-395.415 708.525,-402.399"/>
</g>
<!-- Node28&#45;&gt;Node11 -->
<g id="edge34" class="edge"><title>Node28&#45;&gt;Node11</title>
<path fill="none" stroke="midnightblue" d="M640.36,-316.256C652.928,-315.88 666.896,-315.462 680.074,-315.067"/>
<polygon fill="midnightblue" stroke="midnightblue" points="680.541,-318.555 690.432,-314.757 680.331,-311.558 680.541,-318.555"/>
</g>
<!-- Node29&#45;&gt;Node14 -->
<g id="edge36" class="edge"><title>Node29&#45;&gt;Node14</title>
<path fill="none" stroke="midnightblue" d="M317.505,-235.394C336.283,-229.935 360.749,-222.823 382.945,-216.371"/>
<polygon fill="midnightblue" stroke="midnightblue" points="383.999,-219.709 392.624,-213.557 382.045,-212.988 383.999,-219.709"/>
</g>
<!-- Node29&#45;&gt;Node26 -->
<g id="edge37" class="edge"><title>Node29&#45;&gt;Node26</title>
<path fill="none" stroke="midnightblue" d="M324.048,-252.817C345.724,-257.578 373.054,-263.581 395.841,-268.586"/>
<polygon fill="midnightblue" stroke="midnightblue" points="395.107,-272.008 405.625,-270.735 396.609,-265.171 395.107,-272.008"/>
</g>
<!-- Node30&#45;&gt;Node14 -->
<g id="edge40" class="edge"><title>Node30&#45;&gt;Node14</title>
<path fill="none" stroke="midnightblue" d="M144.959,-92.511C161.127,-106.573 194.5,-133.66 227.418,-148.5 274.65,-169.793 331.926,-182.852 375.268,-190.418"/>
<polygon fill="midnightblue" stroke="midnightblue" points="374.688,-193.869 385.132,-192.087 375.856,-186.967 374.688,-193.869"/>
</g>
<!-- Node31 -->
<g id="node31" class="node"><title>Node31</title>
<g id="a_node31"><a xlink:href="$location_8cpp.html#a35821002985a8e3e526c8ccad9bb9934" xlink:title="wrap_180_cd">
<polygon fill="white" stroke="black" points="247.157,-37.5 247.157,-55.5 323.201,-55.5 323.201,-37.5 247.157,-37.5"/>
<text text-anchor="middle" x="285.179" y="-43.5" font-family="Helvetica,sans-Serif" font-size="10.00">wrap_180_cd</text>
</a>
</g>
</g>
<!-- Node30&#45;&gt;Node31 -->
<g id="edge39" class="edge"><title>Node30&#45;&gt;Node31</title>
<path fill="none" stroke="midnightblue" d="M171.448,-74.4488C191.487,-69.4806 216.539,-63.2696 237.934,-57.9652"/>
<polygon fill="midnightblue" stroke="midnightblue" points="238.926,-61.3255 247.789,-55.5218 237.241,-54.5311 238.926,-61.3255"/>
</g>
<!-- Node32 -->
<g id="node32" class="node"><title>Node32</title>
<g id="a_node32"><a xlink:href="$location_8cpp.html#aec935e3ce7fb13099565b27693547d09" xlink:title="wrap_360_cd">
<polygon fill="white" stroke="black" points="247.157,-0.5 247.157,-18.5 323.201,-18.5 323.201,-0.5 247.157,-0.5"/>
<text text-anchor="middle" x="285.179" y="-6.5" font-family="Helvetica,sans-Serif" font-size="10.00">wrap_360_cd</text>
</a>
</g>
</g>
<!-- Node30&#45;&gt;Node32 -->
<g id="edge41" class="edge"><title>Node30&#45;&gt;Node32</title>
<path fill="none" stroke="midnightblue" d="M147.872,-74.3034C165.273,-62.2541 197.504,-41.0669 227.418,-27.5 231.834,-25.4971 236.538,-23.6239 241.275,-21.9001"/>
<polygon fill="midnightblue" stroke="midnightblue" points="242.64,-25.1319 250.965,-18.5778 240.37,-18.5103 242.64,-25.1319"/>
</g>
<!-- Node33 -->
<g id="node33" class="node"><title>Node33</title>
<g id="a_node33"><a xlink:href="$location_8cpp.html#ada62278a4b460237f914e1c6a5355e55" xlink:title="wrap_PI">
<polygon fill="white" stroke="black" points="258.836,-74.5 258.836,-92.5 311.521,-92.5 311.521,-74.5 258.836,-74.5"/>
<text text-anchor="middle" x="285.179" y="-80.5" font-family="Helvetica,sans-Serif" font-size="10.00">wrap_PI</text>
</a>
</g>
</g>
<!-- Node30&#45;&gt;Node33 -->
<g id="edge42" class="edge"><title>Node30&#45;&gt;Node33</title>
<path fill="none" stroke="midnightblue" d="M171.831,-83.5C195.185,-83.5 225.229,-83.5 248.372,-83.5"/>
<polygon fill="midnightblue" stroke="midnightblue" points="248.471,-87.0001 258.471,-83.5 248.471,-80.0001 248.471,-87.0001"/>
</g>
<!-- Node34&#45;&gt;Node14 -->
<g id="edge44" class="edge"><title>Node34&#45;&gt;Node14</title>
<path fill="none" stroke="midnightblue" d="M314.345,-139.501C323.52,-144.165 333.715,-149.458 342.939,-154.5 359.193,-163.384 362.249,-167.467 378.939,-175.5 383.265,-177.582 387.821,-179.62 392.419,-181.574"/>
<polygon fill="midnightblue" stroke="midnightblue" points="391.275,-184.889 401.855,-185.455 393.937,-178.414 391.275,-184.889"/>
</g>
<!-- Node35 -->
<g id="node35" class="node"><title>Node35</title>
<g id="a_node35"><a xlink:href="$location_8cpp.html#a5b6072b7df92379eadfe4cf9cf7e60c7" xlink:title="wgsllh2ecef">
<polygon fill="white" stroke="black" points="407.855,-111.5 407.855,-129.5 476.106,-129.5 476.106,-111.5 407.855,-111.5"/>
<text text-anchor="middle" x="441.981" y="-117.5" font-family="Helvetica,sans-Serif" font-size="10.00">wgsllh2ecef</text>
</a>
</g>
</g>
<!-- Node34&#45;&gt;Node35 -->
<g id="edge45" class="edge"><title>Node34&#45;&gt;Node35</title>
<path fill="none" stroke="midnightblue" d="M339.887,-123.765C358.72,-123.157 379.625,-122.482 397.514,-121.904"/>
<polygon fill="midnightblue" stroke="midnightblue" points="397.779,-125.397 407.661,-121.576 397.553,-118.401 397.779,-125.397"/>
</g>
<!-- Node36 -->
<g id="node36" class="node"><title>Node36</title>
<g id="a_node36"><a xlink:href="$location_8cpp.html#ae2228950bd3572416f45c4cd13450b71" xlink:title="wgsecef2llh">
<polygon fill="white" stroke="black" points="407.855,-148.5 407.855,-166.5 476.106,-166.5 476.106,-148.5 407.855,-148.5"/>
<text text-anchor="middle" x="441.981" y="-154.5" font-family="Helvetica,sans-Serif" font-size="10.00">wgsecef2llh</text>
</a>
</g>
</g>
<!-- Node34&#45;&gt;Node36 -->
<g id="edge46" class="edge"><title>Node34&#45;&gt;Node36</title>
<path fill="none" stroke="midnightblue" d="M339.887,-136.602C358.808,-140.514 379.821,-144.857 397.765,-148.567"/>
<polygon fill="midnightblue" stroke="midnightblue" points="397.159,-152.015 407.661,-150.612 398.576,-145.16 397.159,-152.015"/>
</g>
<!-- Node36&#45;&gt;Node25 -->
<g id="edge47" class="edge"><title>Node36&#45;&gt;Node25</title>
<path fill="none" stroke="midnightblue" d="M474.567,-166.574C484.339,-169.405 495.133,-172.557 505.022,-175.5 524.516,-181.3 546.29,-187.934 563.74,-193.288"/>
<polygon fill="midnightblue" stroke="midnightblue" points="562.877,-196.684 573.464,-196.277 564.933,-189.993 562.877,-196.684"/>
</g>
</g>
</svg>
