<?xml version="1.0" encoding="UTF-8" standalone="no"?>
<!DOCTYPE svg PUBLIC "-//W3C//DTD SVG 1.1//EN"
 "http://www.w3.org/Graphics/SVG/1.1/DTD/svg11.dtd">
<!-- Generated by graphviz version 2.38.0 (20140413.2041)
 -->
<!-- Title: setup Pages: 1 -->
<svg width="632pt" height="215pt"
 viewBox="0.00 0.00 632.33 215.00" xmlns="http://www.w3.org/2000/svg" xmlns:xlink="http://www.w3.org/1999/xlink">
<g id="graph0" class="graph" transform="scale(1 1) rotate(0) translate(4 211)">
<title>setup</title>
<polygon fill="white" stroke="none" points="-4,4 -4,-211 628.332,-211 628.332,4 -4,4"/>
<!-- Node1 -->
<g id="node1" class="node"><title>Node1</title>
<polygon fill="#bfbfbf" stroke="black" points="0,-114.5 0,-132.5 40.4629,-132.5 40.4629,-114.5 0,-114.5"/>
<text text-anchor="middle" x="20.2314" y="-120.5" font-family="Helvetica,sans-Serif" font-size="10.00">setup</text>
</g>
<!-- Node2 -->
<g id="node2" class="node"><title>Node2</title>
<g id="a_node2"><a xlink:href="$classAP__HAL_1_1Print.html#ad337ce3f7977411b7d34d47a51e5737e" xlink:title="AP_HAL::Print::println">
<polygon fill="white" stroke="black" points="76.6411,-188.5 76.6411,-206.5 189.907,-206.5 189.907,-188.5 76.6411,-188.5"/>
<text text-anchor="middle" x="133.274" y="-194.5" font-family="Helvetica,sans-Serif" font-size="10.00">AP_HAL::Print::println</text>
</a>
</g>
</g>
<!-- Node1&#45;&gt;Node2 -->
<g id="edge1" class="edge"><title>Node1&#45;&gt;Node2</title>
<path fill="none" stroke="midnightblue" d="M28.0468,-132.795C37.5687,-145.153 56.0009,-166.894 76.4629,-179.5 79.4574,-181.345 82.6601,-183.02 85.9603,-184.536"/>
<polygon fill="midnightblue" stroke="midnightblue" points="84.8459,-187.862 95.4269,-188.404 87.4933,-181.382 84.8459,-187.862"/>
</g>
<!-- Node6 -->
<g id="node6" class="node"><title>Node6</title>
<g id="a_node6"><a xlink:href="$polygon_8cpp.html#a44581f526f8df1f0bc8e3eb4f530e960" xlink:title="Polygon_complete">
<polygon fill="white" stroke="black" points="84.1362,-151.5 84.1362,-169.5 182.412,-169.5 182.412,-151.5 84.1362,-151.5"/>
<text text-anchor="middle" x="133.274" y="-157.5" font-family="Helvetica,sans-Serif" font-size="10.00">Polygon_complete</text>
</a>
</g>
</g>
<!-- Node1&#45;&gt;Node6 -->
<g id="edge6" class="edge"><title>Node1&#45;&gt;Node6</title>
<path fill="none" stroke="midnightblue" d="M40.6265,-130.275C51.2026,-133.943 64.5338,-138.525 76.4629,-142.5 82.1555,-144.397 88.1851,-146.374 94.0949,-148.295"/>
<polygon fill="midnightblue" stroke="midnightblue" points="93.2549,-151.702 103.847,-151.449 95.409,-145.041 93.2549,-151.702"/>
</g>
<!-- Node7 -->
<g id="node7" class="node"><title>Node7</title>
<g id="a_node7"><a xlink:href="$polygon_8cpp.html#a53235dca2c01737b9221be463ae1f3d3" xlink:title="&#45;*&#45; tab&#45;width: 4; Mode: C++; c&#45;basic&#45;offset: 4; indent&#45;tabs&#45;mode: nil &#45;*&#45; ">
<polygon fill="white" stroke="black" points="88.3013,-114.5 88.3013,-132.5 178.247,-132.5 178.247,-114.5 88.3013,-114.5"/>
<text text-anchor="middle" x="133.274" y="-120.5" font-family="Helvetica,sans-Serif" font-size="10.00">Polygon_outside</text>
</a>
</g>
</g>
<!-- Node1&#45;&gt;Node7 -->
<g id="edge7" class="edge"><title>Node1&#45;&gt;Node7</title>
<path fill="none" stroke="midnightblue" d="M40.5736,-123.5C51.0709,-123.5 64.6245,-123.5 78.0745,-123.5"/>
<polygon fill="midnightblue" stroke="midnightblue" points="78.2874,-127 88.2873,-123.5 78.2873,-120 78.2874,-127"/>
</g>
<!-- Node8 -->
<g id="node8" class="node"><title>Node8</title>
<g id="a_node8"><a xlink:href="$classAP__HAL_1_1UARTDriver.html#a65c7824b8877f7a2f79365c8ffae8f56" xlink:title="AP_HAL::UARTDriver\l::printf">
<polygon fill="white" stroke="black" points="76.4629,-67.5 76.4629,-95.5 190.085,-95.5 190.085,-67.5 76.4629,-67.5"/>
<text text-anchor="start" x="84.4629" y="-83.5" font-family="Helvetica,sans-Serif" font-size="10.00">AP_HAL::UARTDriver</text>
<text text-anchor="middle" x="133.274" y="-73.5" font-family="Helvetica,sans-Serif" font-size="10.00">::printf</text>
</a>
</g>
</g>
<!-- Node1&#45;&gt;Node8 -->
<g id="edge8" class="edge"><title>Node1&#45;&gt;Node8</title>
<path fill="none" stroke="midnightblue" d="M40.5736,-116.184C53.0263,-111.474 69.7799,-105.137 85.5595,-99.169"/>
<polygon fill="midnightblue" stroke="midnightblue" points="87.0965,-102.33 95.2116,-95.5182 84.62,-95.7824 87.0965,-102.33"/>
</g>
<!-- Node15 -->
<g id="node15" class="node"><title>Node15</title>
<g id="a_node15"><a xlink:href="$classAP__HAL_1_1Scheduler.html#add46d722bfb08a16f220e63591654e46" xlink:title="AP_HAL::Scheduler::\lmicros">
<polygon fill="white" stroke="black" points="78.0254,-20.5 78.0254,-48.5 188.522,-48.5 188.522,-20.5 78.0254,-20.5"/>
<text text-anchor="start" x="86.0254" y="-36.5" font-family="Helvetica,sans-Serif" font-size="10.00">AP_HAL::Scheduler::</text>
<text text-anchor="middle" x="133.274" y="-26.5" font-family="Helvetica,sans-Serif" font-size="10.00">micros</text>
</a>
</g>
</g>
<!-- Node1&#45;&gt;Node15 -->
<g id="edge16" class="edge"><title>Node1&#45;&gt;Node15</title>
<path fill="none" stroke="midnightblue" d="M26.9103,-114.173C35.8669,-100.151 54.5295,-73.5742 76.4629,-57.5 78.3173,-56.141 80.2637,-54.846 82.2727,-53.614"/>
<polygon fill="midnightblue" stroke="midnightblue" points="84.3062,-56.4906 91.3912,-48.6132 80.9402,-50.3531 84.3062,-56.4906"/>
</g>
<!-- Node3 -->
<g id="node3" class="node"><title>Node3</title>
<g id="a_node3"><a xlink:href="$classAP__HAL_1_1Print.html#acfe80773011eb17dfb52c2fba517a093" xlink:title="AP_HAL::Print::print">
<polygon fill="white" stroke="black" points="375.707,-150.5 375.707,-168.5 481.189,-168.5 481.189,-150.5 375.707,-150.5"/>
<text text-anchor="middle" x="428.448" y="-156.5" font-family="Helvetica,sans-Serif" font-size="10.00">AP_HAL::Print::print</text>
</a>
</g>
</g>
<!-- Node2&#45;&gt;Node3 -->
<g id="edge2" class="edge"><title>Node2&#45;&gt;Node3</title>
<path fill="none" stroke="midnightblue" d="M190.3,-194.156C231.729,-191.238 289.438,-186.238 339.707,-178.5 353.087,-176.44 367.489,-173.591 380.678,-170.725"/>
<polygon fill="midnightblue" stroke="midnightblue" points="381.489,-174.13 390.491,-168.543 379.969,-167.297 381.489,-174.13"/>
</g>
<!-- Node5 -->
<g id="node5" class="node"><title>Node5</title>
<g id="a_node5"><a xlink:href="$classAP__HAL_1_1Print.html#a169b128f9e22f0c15883768f580541a2" xlink:title="AP_HAL::Print::println">
<polygon fill="white" stroke="black" points="226.263,-150.5 226.263,-168.5 339.529,-168.5 339.529,-150.5 226.263,-150.5"/>
<text text-anchor="middle" x="282.896" y="-156.5" font-family="Helvetica,sans-Serif" font-size="10.00">AP_HAL::Print::println</text>
</a>
</g>
</g>
<!-- Node2&#45;&gt;Node5 -->
<g id="edge4" class="edge"><title>Node2&#45;&gt;Node5</title>
<path fill="none" stroke="midnightblue" d="M169.258,-188.495C189.591,-183.261 215.419,-176.612 237.212,-171.002"/>
<polygon fill="midnightblue" stroke="midnightblue" points="238.095,-174.389 246.907,-168.507 236.35,-167.61 238.095,-174.389"/>
</g>
<!-- Node4 -->
<g id="node4" class="node"><title>Node4</title>
<g id="a_node4"><a xlink:href="$classAP__HAL_1_1Print.html#acc65391952a43334f8f5c9bef341f501" xlink:title="AP_HAL::Print::write">
<polygon fill="white" stroke="black" points="517.189,-150.5 517.189,-168.5 624.332,-168.5 624.332,-150.5 517.189,-150.5"/>
<text text-anchor="middle" x="570.761" y="-156.5" font-family="Helvetica,sans-Serif" font-size="10.00">AP_HAL::Print::write</text>
</a>
</g>
</g>
<!-- Node3&#45;&gt;Node4 -->
<g id="edge3" class="edge"><title>Node3&#45;&gt;Node4</title>
<path fill="none" stroke="midnightblue" d="M481.297,-159.5C489.713,-159.5 498.508,-159.5 507.148,-159.5"/>
<polygon fill="midnightblue" stroke="midnightblue" points="507.188,-163 517.188,-159.5 507.188,-156 507.188,-163"/>
</g>
<!-- Node5&#45;&gt;Node3 -->
<g id="edge5" class="edge"><title>Node5&#45;&gt;Node3</title>
<path fill="none" stroke="midnightblue" d="M339.808,-159.5C348.203,-159.5 356.903,-159.5 365.417,-159.5"/>
<polygon fill="midnightblue" stroke="midnightblue" points="365.677,-163 375.676,-159.5 365.676,-156 365.677,-163"/>
</g>
<!-- Node9 -->
<g id="node9" class="node"><title>Node9</title>
<g id="a_node9"><a xlink:href="$classAP__HAL_1_1UARTDriver.html#aa8abfb6d6641299472c29ac1edde559f" xlink:title="AP_HAL::UARTDriver\l::vprintf">
<polygon fill="white" stroke="black" points="226.085,-67.5 226.085,-95.5 339.707,-95.5 339.707,-67.5 226.085,-67.5"/>
<text text-anchor="start" x="234.085" y="-83.5" font-family="Helvetica,sans-Serif" font-size="10.00">AP_HAL::UARTDriver</text>
<text text-anchor="middle" x="282.896" y="-73.5" font-family="Helvetica,sans-Serif" font-size="10.00">::vprintf</text>
</a>
</g>
</g>
<!-- Node8&#45;&gt;Node9 -->
<g id="edge9" class="edge"><title>Node8&#45;&gt;Node9</title>
<path fill="none" stroke="midnightblue" d="M190.505,-81.5C198.73,-81.5 207.265,-81.5 215.668,-81.5"/>
<polygon fill="midnightblue" stroke="midnightblue" points="215.822,-85.0001 225.822,-81.5 215.822,-78.0001 215.822,-85.0001"/>
</g>
<!-- Node10 -->
<g id="node10" class="node"><title>Node10</title>
<g id="a_node10"><a xlink:href="$print__vprintf_8cpp.html#a473b9349f4b086b552a21eb8fe057016" xlink:title="print_vprintf">
<polygon fill="white" stroke="black" points="394.325,-73.5 394.325,-91.5 462.571,-91.5 462.571,-73.5 394.325,-73.5"/>
<text text-anchor="middle" x="428.448" y="-79.5" font-family="Helvetica,sans-Serif" font-size="10.00">print_vprintf</text>
</a>
</g>
</g>
<!-- Node9&#45;&gt;Node10 -->
<g id="edge10" class="edge"><title>Node9&#45;&gt;Node10</title>
<path fill="none" stroke="midnightblue" d="M339.808,-81.8895C354.488,-81.9917 370.099,-82.1005 384.017,-82.1975"/>
<polygon fill="midnightblue" stroke="midnightblue" points="384.262,-85.6991 394.286,-82.269 384.311,-78.6993 384.262,-85.6991"/>
</g>
<!-- Node10&#45;&gt;Node4 -->
<g id="edge11" class="edge"><title>Node10&#45;&gt;Node4</title>
<path fill="none" stroke="midnightblue" d="M441.729,-91.6858C458.251,-103.757 488.845,-125.108 517.189,-139.5 522.196,-142.042 527.606,-144.451 532.985,-146.659"/>
<polygon fill="midnightblue" stroke="midnightblue" points="531.953,-150.013 542.541,-150.4 534.505,-143.495 531.953,-150.013"/>
</g>
<!-- Node11 -->
<g id="node11" class="node"><title>Node11</title>
<g id="a_node11"><a xlink:href="$ftoa__engine_8cpp.html#a1c28234da8f20b43c85890d4bb452947" xlink:title="ftoa_engine">
<polygon fill="white" stroke="black" points="536.625,-111.5 536.625,-129.5 604.896,-129.5 604.896,-111.5 536.625,-111.5"/>
<text text-anchor="middle" x="570.761" y="-117.5" font-family="Helvetica,sans-Serif" font-size="10.00">ftoa_engine</text>
</a>
</g>
</g>
<!-- Node10&#45;&gt;Node11 -->
<g id="edge12" class="edge"><title>Node10&#45;&gt;Node11</title>
<path fill="none" stroke="midnightblue" d="M462.7,-91.5055C481.783,-96.6734 505.957,-103.22 526.504,-108.785"/>
<polygon fill="midnightblue" stroke="midnightblue" points="525.694,-112.192 536.261,-111.427 527.524,-105.435 525.694,-112.192"/>
</g>
<!-- Node12 -->
<g id="node12" class="node"><title>Node12</title>
<g id="a_node12"><a xlink:href="$AP__Progmem_8h.html#a1514e0408e036062b4af844baaf567da" xlink:title="pgm_read_byte">
<polygon fill="white" stroke="black" points="528.015,-74.5 528.015,-92.5 613.507,-92.5 613.507,-74.5 528.015,-74.5"/>
<text text-anchor="middle" x="570.761" y="-80.5" font-family="Helvetica,sans-Serif" font-size="10.00">pgm_read_byte</text>
</a>
</g>
</g>
<!-- Node10&#45;&gt;Node12 -->
<g id="edge13" class="edge"><title>Node10&#45;&gt;Node12</title>
<path fill="none" stroke="midnightblue" d="M462.7,-82.737C479.179,-82.8544 499.456,-82.9989 517.914,-83.1305"/>
<polygon fill="midnightblue" stroke="midnightblue" points="517.921,-86.6305 527.946,-83.202 517.971,-79.6307 517.921,-86.6305"/>
</g>
<!-- Node13 -->
<g id="node13" class="node"><title>Node13</title>
<g id="a_node13"><a xlink:href="$utoa__invert_8cpp.html#a34926f552460b47c414ec4d83b32815c" xlink:title="ulltoa_invert">
<polygon fill="white" stroke="black" points="535.8,-37.5 535.8,-55.5 605.721,-55.5 605.721,-37.5 535.8,-37.5"/>
<text text-anchor="middle" x="570.761" y="-43.5" font-family="Helvetica,sans-Serif" font-size="10.00">ulltoa_invert</text>
</a>
</g>
</g>
<!-- Node10&#45;&gt;Node13 -->
<g id="edge14" class="edge"><title>Node10&#45;&gt;Node13</title>
<path fill="none" stroke="midnightblue" d="M462.7,-73.9685C481.643,-69.1083 505.605,-62.9606 526.054,-57.714"/>
<polygon fill="midnightblue" stroke="midnightblue" points="526.956,-61.0958 535.773,-55.2203 525.217,-54.3154 526.956,-61.0958"/>
</g>
<!-- Node14 -->
<g id="node14" class="node"><title>Node14</title>
<g id="a_node14"><a xlink:href="$utoa__invert_8cpp.html#a5d99bba8e697c1e11da489d88fca8559" xlink:title="ultoa_invert">
<polygon fill="white" stroke="black" points="536.911,-0.5 536.911,-18.5 604.61,-18.5 604.61,-0.5 536.911,-0.5"/>
<text text-anchor="middle" x="570.761" y="-6.5" font-family="Helvetica,sans-Serif" font-size="10.00">ultoa_invert</text>
</a>
</g>
</g>
<!-- Node10&#45;&gt;Node14 -->
<g id="edge15" class="edge"><title>Node10&#45;&gt;Node14</title>
<path fill="none" stroke="midnightblue" d="M441.997,-73.3299C458.566,-61.5333 488.953,-40.9629 517.189,-27.5 521.267,-25.5558 525.612,-23.7205 529.99,-22.0195"/>
<polygon fill="midnightblue" stroke="midnightblue" points="531.352,-25.248 539.536,-18.5197 528.943,-18.6758 531.352,-25.248"/>
</g>
</g>
</svg>
