<?xml version="1.0" encoding="UTF-8" standalone="no"?>
<!DOCTYPE svg PUBLIC "-//W3C//DTD SVG 1.1//EN"
 "http://www.w3.org/Graphics/SVG/1.1/DTD/svg11.dtd">
<!-- Generated by graphviz version 2.38.0 (20140413.2041)
 -->
<!-- Title: test_one_offset Pages: 1 -->
<svg width="652pt" height="264pt"
 viewBox="0.00 0.00 651.63 264.00" xmlns="http://www.w3.org/2000/svg" xmlns:xlink="http://www.w3.org/1999/xlink">
<g id="graph0" class="graph" transform="scale(1 1) rotate(0) translate(4 260)">
<title>test_one_offset</title>
<polygon fill="white" stroke="none" points="-4,4 -4,-260 647.634,-260 647.634,4 -4,4"/>
<!-- Node1 -->
<g id="node1" class="node"><title>Node1</title>
<polygon fill="#bfbfbf" stroke="black" points="0,-153.5 0,-171.5 84.208,-171.5 84.208,-153.5 0,-153.5"/>
<text text-anchor="middle" x="42.104" y="-159.5" font-family="Helvetica,sans-Serif" font-size="10.00">test_one_offset</text>
</g>
<!-- Node2 -->
<g id="node2" class="node"><title>Node2</title>
<g id="a_node2"><a xlink:href="$classAP__HAL_1_1Scheduler.html#add46d722bfb08a16f220e63591654e46" xlink:title="AP_HAL::Scheduler::\lmicros">
<polygon fill="white" stroke="black" points="121.771,-227.5 121.771,-255.5 232.268,-255.5 232.268,-227.5 121.771,-227.5"/>
<text text-anchor="start" x="129.771" y="-243.5" font-family="Helvetica,sans-Serif" font-size="10.00">AP_HAL::Scheduler::</text>
<text text-anchor="middle" x="177.019" y="-233.5" font-family="Helvetica,sans-Serif" font-size="10.00">micros</text>
</a>
</g>
</g>
<!-- Node1&#45;&gt;Node2 -->
<g id="edge1" class="edge"><title>Node1&#45;&gt;Node2</title>
<path fill="none" stroke="midnightblue" d="M53.7856,-171.53C68.1832,-183.395 94.9334,-204.378 120.208,-218.5 123.09,-220.11 126.108,-221.672 129.184,-223.174"/>
<polygon fill="midnightblue" stroke="midnightblue" points="127.966,-226.467 138.512,-227.484 130.903,-220.113 127.966,-226.467"/>
</g>
<!-- Node3 -->
<g id="node3" class="node"><title>Node3</title>
<g id="a_node3"><a xlink:href="$location_8cpp.html#a717b438a67f0b41665feec9009ba1bd4" xlink:title="location_offset">
<polygon fill="white" stroke="black" points="136.863,-190.5 136.863,-208.5 217.175,-208.5 217.175,-190.5 136.863,-190.5"/>
<text text-anchor="middle" x="177.019" y="-196.5" font-family="Helvetica,sans-Serif" font-size="10.00">location_offset</text>
</a>
</g>
</g>
<!-- Node1&#45;&gt;Node3 -->
<g id="edge2" class="edge"><title>Node1&#45;&gt;Node3</title>
<path fill="none" stroke="midnightblue" d="M75.6187,-171.551C93.0778,-176.411 114.809,-182.461 133.585,-187.687"/>
<polygon fill="midnightblue" stroke="midnightblue" points="132.807,-191.104 143.379,-190.414 134.684,-184.36 132.807,-191.104"/>
</g>
<!-- Node7 -->
<g id="node7" class="node"><title>Node7</title>
<g id="a_node7"><a xlink:href="$classAP__HAL_1_1UARTDriver.html#a65c7824b8877f7a2f79365c8ffae8f56" xlink:title="AP_HAL::UARTDriver\l::printf">
<polygon fill="white" stroke="black" points="120.208,-69.5 120.208,-97.5 233.83,-97.5 233.83,-69.5 120.208,-69.5"/>
<text text-anchor="start" x="128.208" y="-85.5" font-family="Helvetica,sans-Serif" font-size="10.00">AP_HAL::UARTDriver</text>
<text text-anchor="middle" x="177.019" y="-75.5" font-family="Helvetica,sans-Serif" font-size="10.00">::printf</text>
</a>
</g>
</g>
<!-- Node1&#45;&gt;Node7 -->
<g id="edge6" class="edge"><title>Node1&#45;&gt;Node7</title>
<path fill="none" stroke="midnightblue" d="M54.347,-153.306C68.9238,-141.668 95.4218,-121.458 120.208,-107.5 123.626,-105.575 127.228,-103.704 130.889,-101.91"/>
<polygon fill="midnightblue" stroke="midnightblue" points="132.468,-105.035 140.041,-97.6257 129.5,-98.6957 132.468,-105.035"/>
</g>
<!-- Node15 -->
<g id="node15" class="node"><title>Node15</title>
<g id="a_node15"><a xlink:href="$location_8cpp.html#aa825a788804b8dd4cf1e3cfb42960a8b" xlink:title="get_distance">
<polygon fill="white" stroke="black" points="140.665,-116.5 140.665,-134.5 213.374,-134.5 213.374,-116.5 140.665,-116.5"/>
<text text-anchor="middle" x="177.019" y="-122.5" font-family="Helvetica,sans-Serif" font-size="10.00">get_distance</text>
</a>
</g>
</g>
<!-- Node1&#45;&gt;Node15 -->
<g id="edge14" class="edge"><title>Node1&#45;&gt;Node15</title>
<path fill="none" stroke="midnightblue" d="M75.6187,-153.449C93.0778,-148.589 114.809,-142.539 133.585,-137.313"/>
<polygon fill="midnightblue" stroke="midnightblue" points="134.684,-140.64 143.379,-134.586 132.807,-133.896 134.684,-140.64"/>
</g>
<!-- Node18 -->
<g id="node18" class="node"><title>Node18</title>
<g id="a_node18"><a xlink:href="$location_8cpp.html#a224e7b94333df3a15a18499026474ac9" xlink:title="get_bearing_cd">
<polygon fill="white" stroke="black" points="134.546,-153.5 134.546,-171.5 219.492,-171.5 219.492,-153.5 134.546,-153.5"/>
<text text-anchor="middle" x="177.019" y="-159.5" font-family="Helvetica,sans-Serif" font-size="10.00">get_bearing_cd</text>
</a>
</g>
</g>
<!-- Node1&#45;&gt;Node18 -->
<g id="edge18" class="edge"><title>Node1&#45;&gt;Node18</title>
<path fill="none" stroke="midnightblue" d="M84.4306,-162.5C96.9379,-162.5 110.838,-162.5 123.953,-162.5"/>
<polygon fill="midnightblue" stroke="midnightblue" points="124.26,-166 134.26,-162.5 124.26,-159 124.26,-166"/>
</g>
<!-- Node4 -->
<g id="node4" class="node"><title>Node4</title>
<g id="a_node4"><a xlink:href="$AP__Math_8h.html#a108b79eeb35c5d58f324458ec9e1e9f2" xlink:title="is_zero">
<polygon fill="white" stroke="black" points="302.523,-190.5 302.523,-208.5 350.759,-208.5 350.759,-190.5 302.523,-190.5"/>
<text text-anchor="middle" x="326.641" y="-196.5" font-family="Helvetica,sans-Serif" font-size="10.00">is_zero</text>
</a>
</g>
</g>
<!-- Node3&#45;&gt;Node4 -->
<g id="edge3" class="edge"><title>Node3&#45;&gt;Node4</title>
<path fill="none" stroke="midnightblue" d="M217.191,-199.5C240.641,-199.5 270.122,-199.5 292.425,-199.5"/>
<polygon fill="midnightblue" stroke="midnightblue" points="292.429,-203 302.429,-199.5 292.429,-196 292.429,-203"/>
</g>
<!-- Node5 -->
<g id="node5" class="node"><title>Node5</title>
<g id="a_node5"><a xlink:href="$location_8cpp.html#ad2368c582f3e0c135e2a74772f4db61a" xlink:title="longitude_scale">
<polygon fill="white" stroke="black" points="283.893,-153.5 283.893,-171.5 369.39,-171.5 369.39,-153.5 283.893,-153.5"/>
<text text-anchor="middle" x="326.641" y="-159.5" font-family="Helvetica,sans-Serif" font-size="10.00">longitude_scale</text>
</a>
</g>
</g>
<!-- Node3&#45;&gt;Node5 -->
<g id="edge4" class="edge"><title>Node3&#45;&gt;Node5</title>
<path fill="none" stroke="midnightblue" d="M214.131,-190.449C233.954,-185.481 258.734,-179.27 279.897,-173.965"/>
<polygon fill="midnightblue" stroke="midnightblue" points="280.797,-177.348 289.646,-171.522 279.095,-170.558 280.797,-177.348"/>
</g>
<!-- Node6 -->
<g id="node6" class="node"><title>Node6</title>
<g id="a_node6"><a xlink:href="$AP__Math_8h.html#a27149a7dfbb14319088e8332705c0046" xlink:title="constrain_float">
<polygon fill="white" stroke="black" points="419.452,-153.5 419.452,-171.5 500.491,-171.5 500.491,-153.5 419.452,-153.5"/>
<text text-anchor="middle" x="459.972" y="-159.5" font-family="Helvetica,sans-Serif" font-size="10.00">constrain_float</text>
</a>
</g>
</g>
<!-- Node5&#45;&gt;Node6 -->
<g id="edge5" class="edge"><title>Node5&#45;&gt;Node6</title>
<path fill="none" stroke="midnightblue" d="M369.556,-162.5C382.113,-162.5 396.01,-162.5 409.031,-162.5"/>
<polygon fill="midnightblue" stroke="midnightblue" points="409.242,-166 419.242,-162.5 409.242,-159 409.242,-166"/>
</g>
<!-- Node8 -->
<g id="node8" class="node"><title>Node8</title>
<g id="a_node8"><a xlink:href="$classAP__HAL_1_1UARTDriver.html#aa8abfb6d6641299472c29ac1edde559f" xlink:title="AP_HAL::UARTDriver\l::vprintf">
<polygon fill="white" stroke="black" points="269.83,-69.5 269.83,-97.5 383.452,-97.5 383.452,-69.5 269.83,-69.5"/>
<text text-anchor="start" x="277.83" y="-85.5" font-family="Helvetica,sans-Serif" font-size="10.00">AP_HAL::UARTDriver</text>
<text text-anchor="middle" x="326.641" y="-75.5" font-family="Helvetica,sans-Serif" font-size="10.00">::vprintf</text>
</a>
</g>
</g>
<!-- Node7&#45;&gt;Node8 -->
<g id="edge7" class="edge"><title>Node7&#45;&gt;Node8</title>
<path fill="none" stroke="midnightblue" d="M234.25,-83.5C242.475,-83.5 251.01,-83.5 259.413,-83.5"/>
<polygon fill="midnightblue" stroke="midnightblue" points="259.567,-87.0001 269.567,-83.5 259.567,-80.0001 259.567,-87.0001"/>
</g>
<!-- Node9 -->
<g id="node9" class="node"><title>Node9</title>
<g id="a_node9"><a xlink:href="$print__vprintf_8cpp.html#a473b9349f4b086b552a21eb8fe057016" xlink:title="print_vprintf">
<polygon fill="white" stroke="black" points="425.849,-74.5 425.849,-92.5 494.095,-92.5 494.095,-74.5 425.849,-74.5"/>
<text text-anchor="middle" x="459.972" y="-80.5" font-family="Helvetica,sans-Serif" font-size="10.00">print_vprintf</text>
</a>
</g>
</g>
<!-- Node8&#45;&gt;Node9 -->
<g id="edge8" class="edge"><title>Node8&#45;&gt;Node9</title>
<path fill="none" stroke="midnightblue" d="M383.718,-83.5C394.274,-83.5 405.167,-83.5 415.276,-83.5"/>
<polygon fill="midnightblue" stroke="midnightblue" points="415.478,-87.0001 425.478,-83.5 415.478,-80.0001 415.478,-87.0001"/>
</g>
<!-- Node10 -->
<g id="node10" class="node"><title>Node10</title>
<g id="a_node10"><a xlink:href="$classAP__HAL_1_1Print.html#acc65391952a43334f8f5c9bef341f501" xlink:title="AP_HAL::Print::write">
<polygon fill="white" stroke="black" points="536.491,-148.5 536.491,-166.5 643.634,-166.5 643.634,-148.5 536.491,-148.5"/>
<text text-anchor="middle" x="590.062" y="-154.5" font-family="Helvetica,sans-Serif" font-size="10.00">AP_HAL::Print::write</text>
</a>
</g>
</g>
<!-- Node9&#45;&gt;Node10 -->
<g id="edge9" class="edge"><title>Node9&#45;&gt;Node10</title>
<path fill="none" stroke="midnightblue" d="M477.553,-92.6679C484.792,-96.8969 493.26,-102.158 500.491,-107.5 517.71,-120.219 518.002,-128.71 536.491,-139.5 539.722,-141.386 543.181,-143.113 546.724,-144.687"/>
<polygon fill="midnightblue" stroke="midnightblue" points="545.618,-148.015 556.202,-148.498 548.23,-141.52 545.618,-148.015"/>
</g>
<!-- Node11 -->
<g id="node11" class="node"><title>Node11</title>
<g id="a_node11"><a xlink:href="$ftoa__engine_8cpp.html#a1c28234da8f20b43c85890d4bb452947" xlink:title="ftoa_engine">
<polygon fill="white" stroke="black" points="555.927,-111.5 555.927,-129.5 624.198,-129.5 624.198,-111.5 555.927,-111.5"/>
<text text-anchor="middle" x="590.062" y="-117.5" font-family="Helvetica,sans-Serif" font-size="10.00">ftoa_engine</text>
</a>
</g>
</g>
<!-- Node9&#45;&gt;Node11 -->
<g id="edge10" class="edge"><title>Node9&#45;&gt;Node11</title>
<path fill="none" stroke="midnightblue" d="M492.306,-92.5512C509.054,-97.389 529.881,-103.405 547.918,-108.615"/>
<polygon fill="midnightblue" stroke="midnightblue" points="547.029,-112.001 557.608,-111.414 548.972,-105.276 547.029,-112.001"/>
</g>
<!-- Node12 -->
<g id="node12" class="node"><title>Node12</title>
<g id="a_node12"><a xlink:href="$AP__Progmem_8h.html#a1514e0408e036062b4af844baaf567da" xlink:title="pgm_read_byte">
<polygon fill="white" stroke="black" points="547.316,-74.5 547.316,-92.5 632.809,-92.5 632.809,-74.5 547.316,-74.5"/>
<text text-anchor="middle" x="590.062" y="-80.5" font-family="Helvetica,sans-Serif" font-size="10.00">pgm_read_byte</text>
</a>
</g>
</g>
<!-- Node9&#45;&gt;Node12 -->
<g id="edge11" class="edge"><title>Node9&#45;&gt;Node12</title>
<path fill="none" stroke="midnightblue" d="M494.292,-83.5C507.295,-83.5 522.513,-83.5 536.902,-83.5"/>
<polygon fill="midnightblue" stroke="midnightblue" points="537.189,-87.0001 547.189,-83.5 537.189,-80.0001 537.189,-87.0001"/>
</g>
<!-- Node13 -->
<g id="node13" class="node"><title>Node13</title>
<g id="a_node13"><a xlink:href="$utoa__invert_8cpp.html#a34926f552460b47c414ec4d83b32815c" xlink:title="ulltoa_invert">
<polygon fill="white" stroke="black" points="555.102,-37.5 555.102,-55.5 625.023,-55.5 625.023,-37.5 555.102,-37.5"/>
<text text-anchor="middle" x="590.062" y="-43.5" font-family="Helvetica,sans-Serif" font-size="10.00">ulltoa_invert</text>
</a>
</g>
</g>
<!-- Node9&#45;&gt;Node13 -->
<g id="edge12" class="edge"><title>Node9&#45;&gt;Node13</title>
<path fill="none" stroke="midnightblue" d="M492.306,-74.4488C509.054,-69.611 529.881,-63.5949 547.918,-58.3849"/>
<polygon fill="midnightblue" stroke="midnightblue" points="548.972,-61.7237 557.608,-55.586 547.029,-54.9987 548.972,-61.7237"/>
</g>
<!-- Node14 -->
<g id="node14" class="node"><title>Node14</title>
<g id="a_node14"><a xlink:href="$utoa__invert_8cpp.html#a5d99bba8e697c1e11da489d88fca8559" xlink:title="ultoa_invert">
<polygon fill="white" stroke="black" points="556.213,-0.5 556.213,-18.5 623.912,-18.5 623.912,-0.5 556.213,-0.5"/>
<text text-anchor="middle" x="590.062" y="-6.5" font-family="Helvetica,sans-Serif" font-size="10.00">ultoa_invert</text>
</a>
</g>
</g>
<!-- Node9&#45;&gt;Node14 -->
<g id="edge13" class="edge"><title>Node9&#45;&gt;Node14</title>
<path fill="none" stroke="midnightblue" d="M471.581,-74.2599C485.635,-62.3877 511.565,-41.7355 536.491,-28.5 540.766,-26.23 545.371,-24.1234 550.014,-22.2026"/>
<polygon fill="midnightblue" stroke="midnightblue" points="551.445,-25.4018 559.508,-18.5281 548.918,-18.8738 551.445,-25.4018"/>
</g>
<!-- Node15&#45;&gt;Node5 -->
<g id="edge15" class="edge"><title>Node15&#45;&gt;Node5</title>
<path fill="none" stroke="midnightblue" d="M213.378,-134.362C233.26,-139.346 258.306,-145.623 279.694,-150.984"/>
<polygon fill="midnightblue" stroke="midnightblue" points="278.994,-154.417 289.545,-153.453 280.696,-147.627 278.994,-154.417"/>
</g>
<!-- Node16 -->
<g id="node16" class="node"><title>Node16</title>
<g id="a_node16"><a xlink:href="$AP__Math_8h.html#a4a065531591469723bec18f9034a91c3" xlink:title="pythagorous2">
<polygon fill="white" stroke="black" points="288.341,-116.5 288.341,-134.5 364.941,-134.5 364.941,-116.5 288.341,-116.5"/>
<text text-anchor="middle" x="326.641" y="-122.5" font-family="Helvetica,sans-Serif" font-size="10.00">pythagorous2</text>
</a>
</g>
</g>
<!-- Node15&#45;&gt;Node16 -->
<g id="edge16" class="edge"><title>Node15&#45;&gt;Node16</title>
<path fill="none" stroke="midnightblue" d="M213.378,-125.5C232.804,-125.5 257.159,-125.5 278.215,-125.5"/>
<polygon fill="midnightblue" stroke="midnightblue" points="278.25,-129 288.25,-125.5 278.25,-122 278.25,-129"/>
</g>
<!-- Node17 -->
<g id="node17" class="node"><title>Node17</title>
<g id="a_node17"><a xlink:href="$AP__Math_8h.html#a00f57739f8671cb41eae08a51b7cbf7c" xlink:title="sq">
<polygon fill="white" stroke="black" points="445.472,-116.5 445.472,-134.5 474.472,-134.5 474.472,-116.5 445.472,-116.5"/>
<text text-anchor="middle" x="459.972" y="-122.5" font-family="Helvetica,sans-Serif" font-size="10.00">sq</text>
</a>
</g>
</g>
<!-- Node16&#45;&gt;Node17 -->
<g id="edge17" class="edge"><title>Node16&#45;&gt;Node17</title>
<path fill="none" stroke="midnightblue" d="M365.275,-125.5C387.81,-125.5 415.767,-125.5 435.25,-125.5"/>
<polygon fill="midnightblue" stroke="midnightblue" points="435.376,-129 445.376,-125.5 435.376,-122 435.376,-129"/>
</g>
<!-- Node18&#45;&gt;Node5 -->
<g id="edge19" class="edge"><title>Node18&#45;&gt;Node5</title>
<path fill="none" stroke="midnightblue" d="M219.533,-162.5C236.286,-162.5 255.803,-162.5 273.498,-162.5"/>
<polygon fill="midnightblue" stroke="midnightblue" points="273.671,-166 283.671,-162.5 273.671,-159 273.671,-166"/>
</g>
</g>
</svg>
