<?xml version="1.0" encoding="UTF-8" standalone="no"?>
<!DOCTYPE svg PUBLIC "-//W3C//DTD SVG 1.1//EN"
 "http://www.w3.org/Graphics/SVG/1.1/DTD/svg11.dtd">
<!-- Generated by graphviz version 2.38.0 (20140413.2041)
 -->
<!-- Title: location_from_point Pages: 1 -->
<svg width="339pt" height="27pt"
 viewBox="0.00 0.00 338.69 27.00" xmlns="http://www.w3.org/2000/svg" xmlns:xlink="http://www.w3.org/1999/xlink">
<g id="graph0" class="graph" transform="scale(1 1) rotate(0) translate(4 23)">
<title>location_from_point</title>
<polygon fill="white" stroke="none" points="-4,4 -4,-23 334.693,-23 334.693,4 -4,4"/>
<!-- Node1 -->
<g id="node1" class="node"><title>Node1</title>
<polygon fill="#bfbfbf" stroke="black" points="0,-0.5 0,-18.5 103.275,-18.5 103.275,-0.5 0,-0.5"/>
<text text-anchor="middle" x="51.6377" y="-6.5" font-family="Helvetica,sans-Serif" font-size="10.00">location_from_point</text>
</g>
<!-- Node2 -->
<g id="node2" class="node"><title>Node2</title>
<g id="a_node2"><a xlink:href="$examples_2location_2location_8cpp.html#aff2387ea872bdd079c8de9005c934319" xlink:title="test_passed_waypoint">
<polygon fill="white" stroke="black" points="139.275,-0.5 139.275,-18.5 254.23,-18.5 254.23,-0.5 139.275,-0.5"/>
<text text-anchor="middle" x="196.753" y="-6.5" font-family="Helvetica,sans-Serif" font-size="10.00">test_passed_waypoint</text>
</a>
</g>
</g>
<!-- Node1&#45;&gt;Node2 -->
<g id="edge1" class="edge"><title>Node1&#45;&gt;Node2</title>
<path fill="none" stroke="midnightblue" d="M113.696,-9.5C122.165,-9.5 130.834,-9.5 139.216,-9.5"/>
<polygon fill="midnightblue" stroke="midnightblue" points="113.498,-6.0001 103.498,-9.5 113.498,-13.0001 113.498,-6.0001"/>
</g>
<!-- Node3 -->
<g id="node3" class="node"><title>Node3</title>
<g id="a_node3"><a xlink:href="$examples_2location_2location_8cpp.html#a7dfd9b79bc5a37d7df40207afbc5431f" xlink:title="setup">
<polygon fill="white" stroke="black" points="290.23,-0.5 290.23,-18.5 330.693,-18.5 330.693,-0.5 290.23,-0.5"/>
<text text-anchor="middle" x="310.462" y="-6.5" font-family="Helvetica,sans-Serif" font-size="10.00">setup</text>
</a>
</g>
</g>
<!-- Node2&#45;&gt;Node3 -->
<g id="edge2" class="edge"><title>Node2&#45;&gt;Node3</title>
<path fill="none" stroke="midnightblue" d="M264.464,-9.5C273.763,-9.5 282.643,-9.5 290.022,-9.5"/>
<polygon fill="midnightblue" stroke="midnightblue" points="264.262,-6.0001 254.262,-9.5 264.262,-13.0001 264.262,-6.0001"/>
</g>
</g>
</svg>
