<?xml version="1.0" encoding="UTF-8" standalone="no"?>
<!DOCTYPE svg PUBLIC "-//W3C//DTD SVG 1.1//EN"
 "http://www.w3.org/Graphics/SVG/1.1/DTD/svg11.dtd">
<!-- Generated by graphviz version 2.38.0 (20140413.2041)
 -->
<!-- Title: FLASH_GetStatus Pages: 1 -->
<svg width="463pt" height="64pt"
 viewBox="0.00 0.00 463.14 64.00" xmlns="http://www.w3.org/2000/svg" xmlns:xlink="http://www.w3.org/1999/xlink">
<g id="graph0" class="graph" transform="scale(1 1) rotate(0) translate(4 60)">
<title>FLASH_GetStatus</title>
<polygon fill="white" stroke="none" points="-4,4 -4,-60 459.142,-60 459.142,4 -4,4"/>
<!-- Node1 -->
<g id="node1" class="node"><title>Node1</title>
<polygon fill="#bfbfbf" stroke="black" points="0,-18.5 0,-36.5 98.2607,-36.5 98.2607,-18.5 0,-18.5"/>
<text text-anchor="middle" x="49.1304" y="-24.5" font-family="Helvetica,sans-Serif" font-size="10.00">FLASH_GetStatus</text>
</g>
<!-- Node2 -->
<g id="node2" class="node"><title>Node2</title>
<g id="a_node2"><a xlink:href="$flash__stm32F1_8h.html#a32f1f24182bcef29414d7b59c1669595" xlink:title="Waits for a Flash operation to complete or a TIMEOUT to occur. ">
<polygon fill="white" stroke="black" points="134.261,-18.5 134.261,-36.5 285.505,-36.5 285.505,-18.5 134.261,-18.5"/>
<text text-anchor="middle" x="209.883" y="-24.5" font-family="Helvetica,sans-Serif" font-size="10.00">FLASH_WaitForLastOperation</text>
</a>
</g>
</g>
<!-- Node1&#45;&gt;Node2 -->
<g id="edge1" class="edge"><title>Node1&#45;&gt;Node2</title>
<path fill="none" stroke="midnightblue" d="M108.841,-27.5C117.065,-27.5 125.607,-27.5 134.079,-27.5"/>
<polygon fill="midnightblue" stroke="midnightblue" points="108.624,-24.0001 98.6239,-27.5 108.624,-31.0001 108.624,-24.0001"/>
</g>
<!-- Node3 -->
<g id="node3" class="node"><title>Node3</title>
<g id="a_node3"><a xlink:href="$flash__stm32F1_8h.html#ab10d4a1c191d1d7f5b3a3b70927e6e69" xlink:title="Erases a specified FLASH page. ">
<polygon fill="white" stroke="black" points="336.688,-37.5 336.688,-55.5 439.958,-55.5 439.958,-37.5 336.688,-37.5"/>
<text text-anchor="middle" x="388.323" y="-43.5" font-family="Helvetica,sans-Serif" font-size="10.00">FLASH_ErasePage</text>
</a>
</g>
</g>
<!-- Node2&#45;&gt;Node3 -->
<g id="edge2" class="edge"><title>Node2&#45;&gt;Node3</title>
<path fill="none" stroke="midnightblue" d="M295.84,-36.6486C309.807,-38.1526 323.882,-39.6684 336.665,-41.0448"/>
<polygon fill="midnightblue" stroke="midnightblue" points="296.027,-33.1486 285.709,-35.5577 295.277,-40.1083 296.027,-33.1486"/>
</g>
<!-- Node4 -->
<g id="node4" class="node"><title>Node4</title>
<g id="a_node4"><a xlink:href="$flash__stm32F1_8h.html#a67623617a6efb2676988073df8b08b23" xlink:title="Programs a half word at a specified address. ">
<polygon fill="white" stroke="black" points="321.505,-0.5 321.505,-18.5 455.142,-18.5 455.142,-0.5 321.505,-0.5"/>
<text text-anchor="middle" x="388.323" y="-6.5" font-family="Helvetica,sans-Serif" font-size="10.00">FLASH_ProgramHalfWord</text>
</a>
</g>
</g>
<!-- Node2&#45;&gt;Node4 -->
<g id="edge3" class="edge"><title>Node2&#45;&gt;Node4</title>
<path fill="none" stroke="midnightblue" d="M295.753,-18.8417C304.342,-17.9655 312.974,-17.0849 321.321,-16.2333"/>
<polygon fill="midnightblue" stroke="midnightblue" points="295.303,-15.3695 285.709,-19.8664 296.013,-22.3333 295.303,-15.3695"/>
</g>
</g>
</svg>
