<?xml version="1.0" encoding="UTF-8" standalone="no"?>
<!DOCTYPE svg PUBLIC "-//W3C//DTD SVG 1.1//EN"
 "http://www.w3.org/Graphics/SVG/1.1/DTD/svg11.dtd">
<!-- Generated by graphviz version 2.38.0 (20140413.2041)
 -->
<!-- Title: FLASH_ErasePage Pages: 1 -->
<svg width="578pt" height="64pt"
 viewBox="0.00 0.00 577.59 64.00" xmlns="http://www.w3.org/2000/svg" xmlns:xlink="http://www.w3.org/1999/xlink">
<g id="graph0" class="graph" transform="scale(1 1) rotate(0) translate(4 60)">
<title>FLASH_ErasePage</title>
<polygon fill="white" stroke="none" points="-4,4 -4,-60 573.593,-60 573.593,4 -4,4"/>
<!-- Node1 -->
<g id="node1" class="node"><title>Node1</title>
<polygon fill="#bfbfbf" stroke="black" points="0,-18.5 0,-36.5 103.271,-36.5 103.271,-18.5 0,-18.5"/>
<text text-anchor="middle" x="51.6353" y="-24.5" font-family="Helvetica,sans-Serif" font-size="10.00">FLASH_ErasePage</text>
</g>
<!-- Node2 -->
<g id="node2" class="node"><title>Node2</title>
<g id="a_node2"><a xlink:href="$flash__stm32F2_8h.html#ae687b99f868242c3478fe2f070861abc" xlink:title="Erases a specified FLASH Sector. ">
<polygon fill="white" stroke="black" points="139.271,-18.5 139.271,-36.5 248.088,-36.5 248.088,-18.5 139.271,-18.5"/>
<text text-anchor="middle" x="193.679" y="-24.5" font-family="Helvetica,sans-Serif" font-size="10.00">FLASH_EraseSector</text>
</a>
</g>
</g>
<!-- Node1&#45;&gt;Node2 -->
<g id="edge1" class="edge"><title>Node1&#45;&gt;Node2</title>
<path fill="none" stroke="midnightblue" d="M103.59,-27.5C111.819,-27.5 120.428,-27.5 128.914,-27.5"/>
<polygon fill="midnightblue" stroke="midnightblue" points="129.17,-31.0001 139.17,-27.5 129.169,-24.0001 129.17,-31.0001"/>
</g>
<!-- Node3 -->
<g id="node3" class="node"><title>Node3</title>
<g id="a_node3"><a xlink:href="$flash__stm32F2_8h.html#a32f1f24182bcef29414d7b59c1669595" xlink:title="Waits for a Flash operation to complete or a TIMEOUT to occur. ">
<polygon fill="white" stroke="black" points="284.088,-18.5 284.088,-36.5 435.332,-36.5 435.332,-18.5 284.088,-18.5"/>
<text text-anchor="middle" x="359.71" y="-24.5" font-family="Helvetica,sans-Serif" font-size="10.00">FLASH_WaitForLastOperation</text>
</a>
</g>
</g>
<!-- Node2&#45;&gt;Node3 -->
<g id="edge2" class="edge"><title>Node2&#45;&gt;Node3</title>
<path fill="none" stroke="midnightblue" d="M248.389,-27.5C256.582,-27.5 265.205,-27.5 273.869,-27.5"/>
<polygon fill="midnightblue" stroke="midnightblue" points="274.037,-31.0001 284.037,-27.5 274.037,-24.0001 274.037,-31.0001"/>
</g>
<!-- Node4 -->
<g id="node4" class="node"><title>Node4</title>
<g id="a_node4"><a xlink:href="$flash__stm32F2_8h.html#ac265b8d1e7ea11e44ceee28797c3debb" xlink:title="Returns the FLASH Status. ">
<polygon fill="white" stroke="black" points="471.332,-37.5 471.332,-55.5 569.593,-55.5 569.593,-37.5 471.332,-37.5"/>
<text text-anchor="middle" x="520.462" y="-43.5" font-family="Helvetica,sans-Serif" font-size="10.00">FLASH_GetStatus</text>
</a>
</g>
</g>
<!-- Node3&#45;&gt;Node4 -->
<g id="edge3" class="edge"><title>Node3&#45;&gt;Node4</title>
<path fill="none" stroke="midnightblue" d="M435.438,-36.4436C444.014,-37.4701 452.662,-38.5052 460.982,-39.5008"/>
<polygon fill="midnightblue" stroke="midnightblue" points="460.593,-42.9793 470.938,-40.6925 461.425,-36.0289 460.593,-42.9793"/>
</g>
<!-- Node5 -->
<g id="node5" class="node"><title>Node5</title>
<g id="a_node5"><a xlink:href="$flash__stm32F2_8h.html#a6cb8040e5f4a9a8ac17286fd20c740ae" xlink:title="Inserts a time delay. ">
<polygon fill="white" stroke="black" points="500.509,-0.5 500.509,-18.5 540.416,-18.5 540.416,-0.5 500.509,-0.5"/>
<text text-anchor="middle" x="520.462" y="-6.5" font-family="Helvetica,sans-Serif" font-size="10.00">delay</text>
</a>
</g>
</g>
<!-- Node3&#45;&gt;Node5 -->
<g id="edge4" class="edge"><title>Node3&#45;&gt;Node5</title>
<path fill="none" stroke="midnightblue" d="M435.438,-19.0271C454.91,-16.8193 474.756,-14.569 490.268,-12.8102"/>
<polygon fill="midnightblue" stroke="midnightblue" points="490.714,-16.2821 500.256,-11.6777 489.926,-9.32665 490.714,-16.2821"/>
</g>
</g>
</svg>
