<?xml version="1.0" encoding="UTF-8" standalone="no"?>
<!DOCTYPE svg PUBLIC "-//W3C//DTD SVG 1.1//EN"
 "http://www.w3.org/Graphics/SVG/1.1/DTD/svg11.dtd">
<!-- Generated by graphviz version 2.38.0 (20140413.2041)
 -->
<!-- Title: FLASH_GetStatus Pages: 1 -->
<svg width="1985pt" height="227pt"
 viewBox="0.00 0.00 1984.81 227.00" xmlns="http://www.w3.org/2000/svg" xmlns:xlink="http://www.w3.org/1999/xlink">
<g id="graph0" class="graph" transform="scale(1 1) rotate(0) translate(4 223)">
<title>FLASH_GetStatus</title>
<polygon fill="white" stroke="none" points="-4,4 -4,-223 1980.81,-223 1980.81,4 -4,4"/>
<!-- Node1 -->
<g id="node1" class="node"><title>Node1</title>
<polygon fill="#bfbfbf" stroke="black" points="0,-116.5 0,-134.5 98.2607,-134.5 98.2607,-116.5 0,-116.5"/>
<text text-anchor="middle" x="49.1304" y="-122.5" font-family="Helvetica,sans-Serif" font-size="10.00">FLASH_GetStatus</text>
</g>
<!-- Node2 -->
<g id="node2" class="node"><title>Node2</title>
<g id="a_node2"><a xlink:href="$flash__stm32F2_8h.html#a32f1f24182bcef29414d7b59c1669595" xlink:title="Waits for a Flash operation to complete or a TIMEOUT to occur. ">
<polygon fill="white" stroke="black" points="134.261,-116.5 134.261,-134.5 285.505,-134.5 285.505,-116.5 134.261,-116.5"/>
<text text-anchor="middle" x="209.883" y="-122.5" font-family="Helvetica,sans-Serif" font-size="10.00">FLASH_WaitForLastOperation</text>
</a>
</g>
</g>
<!-- Node1&#45;&gt;Node2 -->
<g id="edge1" class="edge"><title>Node1&#45;&gt;Node2</title>
<path fill="none" stroke="midnightblue" d="M108.841,-125.5C117.065,-125.5 125.607,-125.5 134.079,-125.5"/>
<polygon fill="midnightblue" stroke="midnightblue" points="108.624,-122 98.6239,-125.5 108.624,-129 108.624,-122"/>
</g>
<!-- Node3 -->
<g id="node3" class="node"><title>Node3</title>
<g id="a_node3"><a xlink:href="$flash__stm32F2_8h.html#ae687b99f868242c3478fe2f070861abc" xlink:title="Erases a specified FLASH Sector. ">
<polygon fill="white" stroke="black" points="321.505,-140.5 321.505,-158.5 430.322,-158.5 430.322,-140.5 321.505,-140.5"/>
<text text-anchor="middle" x="375.914" y="-146.5" font-family="Helvetica,sans-Serif" font-size="10.00">FLASH_EraseSector</text>
</a>
</g>
</g>
<!-- Node2&#45;&gt;Node3 -->
<g id="edge2" class="edge"><title>Node2&#45;&gt;Node3</title>
<path fill="none" stroke="midnightblue" d="M282.35,-135.957C295.447,-137.873 308.909,-139.843 321.37,-141.666"/>
<polygon fill="midnightblue" stroke="midnightblue" points="282.83,-132.49 272.428,-134.505 281.816,-139.416 282.83,-132.49"/>
</g>
<!-- Node19 -->
<g id="node19" class="node"><title>Node19</title>
<g id="a_node19"><a xlink:href="$flash__stm32F2_8h.html#a67623617a6efb2676988073df8b08b23" xlink:title="Programs a half word (16&#45;bit) at a specified address. ">
<polygon fill="white" stroke="black" points="466.322,-74.5 466.322,-92.5 599.959,-92.5 599.959,-74.5 466.322,-74.5"/>
<text text-anchor="middle" x="533.141" y="-80.5" font-family="Helvetica,sans-Serif" font-size="10.00">FLASH_ProgramHalfWord</text>
</a>
</g>
</g>
<!-- Node2&#45;&gt;Node19 -->
<g id="edge21" class="edge"><title>Node2&#45;&gt;Node19</title>
<path fill="none" stroke="midnightblue" d="M290.042,-115.151C344.144,-108.078 415.016,-98.8125 466.082,-92.1362"/>
<polygon fill="midnightblue" stroke="midnightblue" points="289.263,-111.723 279.801,-116.49 290.17,-118.664 289.263,-111.723"/>
</g>
<!-- Node4 -->
<g id="node4" class="node"><title>Node4</title>
<g id="a_node4"><a xlink:href="$flash__stm32F2_8h.html#ab10d4a1c191d1d7f5b3a3b70927e6e69" xlink:title="Erases a specified FLASH page. ">
<polygon fill="white" stroke="black" points="481.505,-145.5 481.505,-163.5 584.776,-163.5 584.776,-145.5 481.505,-145.5"/>
<text text-anchor="middle" x="533.141" y="-151.5" font-family="Helvetica,sans-Serif" font-size="10.00">FLASH_ErasePage</text>
</a>
</g>
</g>
<!-- Node3&#45;&gt;Node4 -->
<g id="edge3" class="edge"><title>Node3&#45;&gt;Node4</title>
<path fill="none" stroke="midnightblue" d="M440.608,-151.552C454.231,-151.99 468.447,-152.448 481.5,-152.869"/>
<polygon fill="midnightblue" stroke="midnightblue" points="440.441,-148.045 430.334,-151.221 440.216,-155.041 440.441,-148.045"/>
</g>
<!-- Node5 -->
<g id="node5" class="node"><title>Node5</title>
<g id="a_node5"><a xlink:href="$classEEPROMClass.html#ad3725e57079ea532ce74bb4e76b211dd" xlink:title="Erase page with increment erase counter (page + 2) ">
<polygon fill="white" stroke="black" points="635.959,-157.5 635.959,-175.5 794.239,-175.5 794.239,-157.5 635.959,-157.5"/>
<text text-anchor="middle" x="715.099" y="-163.5" font-family="Helvetica,sans-Serif" font-size="10.00">EEPROMClass::EE_ErasePage</text>
</a>
</g>
</g>
<!-- Node4&#45;&gt;Node5 -->
<g id="edge4" class="edge"><title>Node4&#45;&gt;Node5</title>
<path fill="none" stroke="midnightblue" d="M595.395,-158.585C608.338,-159.448 622.167,-160.37 635.645,-161.269"/>
<polygon fill="midnightblue" stroke="midnightblue" points="595.439,-155.08 585.228,-157.907 594.973,-162.064 595.439,-155.08"/>
</g>
<!-- Node6 -->
<g id="node6" class="node"><title>Node6</title>
<g id="a_node6"><a xlink:href="$classEEPROMClass.html#a42fc5632d6e320e5c08b8acc86a144d6" xlink:title="Check page for blank and erase it. ">
<polygon fill="white" stroke="black" points="830.239,-100.5 830.239,-118.5 1016.86,-118.5 1016.86,-100.5 830.239,-100.5"/>
<text text-anchor="middle" x="923.552" y="-106.5" font-family="Helvetica,sans-Serif" font-size="10.00">EEPROMClass::EE_CheckErasePage</text>
</a>
</g>
</g>
<!-- Node5&#45;&gt;Node6 -->
<g id="edge5" class="edge"><title>Node5&#45;&gt;Node6</title>
<path fill="none" stroke="midnightblue" d="M758.777,-154.717C797.633,-143.989 854.194,-128.373 889.651,-118.584"/>
<polygon fill="midnightblue" stroke="midnightblue" points="757.52,-151.433 748.812,-157.468 759.383,-158.181 757.52,-151.433"/>
</g>
<!-- Node7 -->
<g id="node7" class="node"><title>Node7</title>
<g id="a_node7"><a xlink:href="$classEEPROMClass.html#a3d12060444d8cc649f0264ce23f7bbaf" xlink:title="Transfers last updated variables data from the full Page to an empty one. ">
<polygon fill="white" stroke="black" points="1052.86,-24.5 1052.86,-42.5 1221.89,-42.5 1221.89,-24.5 1052.86,-24.5"/>
<text text-anchor="middle" x="1137.38" y="-30.5" font-family="Helvetica,sans-Serif" font-size="10.00">EEPROMClass::EE_PageTransfer</text>
</a>
</g>
</g>
<!-- Node6&#45;&gt;Node7 -->
<g id="edge6" class="edge"><title>Node6&#45;&gt;Node7</title>
<path fill="none" stroke="midnightblue" d="M951.009,-95.9229C976.542,-83.2619 1016.56,-64.5662 1052.86,-52.5 1064.43,-48.6545 1077.16,-45.3231 1089.12,-42.5711"/>
<polygon fill="midnightblue" stroke="midnightblue" points="949.342,-92.8433 941.971,-100.453 952.479,-99.1011 949.342,-92.8433"/>
</g>
<!-- Node12 -->
<g id="node12" class="node"><title>Node12</title>
<g id="a_node12"><a xlink:href="$classEEPROMClass.html#a9e3825e66fd8112ed3768f726537c8c6" xlink:title="EEPROMClass::init">
<polygon fill="white" stroke="black" points="1285.13,-80.5 1285.13,-98.5 1387.81,-98.5 1387.81,-80.5 1285.13,-80.5"/>
<text text-anchor="middle" x="1336.47" y="-86.5" font-family="Helvetica,sans-Serif" font-size="10.00">EEPROMClass::init</text>
</a>
</g>
</g>
<!-- Node6&#45;&gt;Node12 -->
<g id="edge18" class="edge"><title>Node6&#45;&gt;Node12</title>
<path fill="none" stroke="midnightblue" d="M1027.14,-104.507C1109.26,-100.51 1220.92,-95.0753 1284.88,-91.9622"/>
<polygon fill="midnightblue" stroke="midnightblue" points="1026.84,-101.017 1017.03,-104.999 1027.18,-108.009 1026.84,-101.017"/>
</g>
<!-- Node18 -->
<g id="node18" class="node"><title>Node18</title>
<g id="a_node18"><a xlink:href="$classEEPROMClass.html#ac7d841bc2db8825c19444dff0a7409c5" xlink:title="Erases PAGE0 and PAGE1 and writes EEPROM_VALID_PAGE / 0 header to PAGE0. ">
<polygon fill="white" stroke="black" points="1078.25,-62.5 1078.25,-80.5 1196.5,-80.5 1196.5,-62.5 1078.25,-62.5"/>
<text text-anchor="middle" x="1137.38" y="-68.5" font-family="Helvetica,sans-Serif" font-size="10.00">EEPROMClass::format</text>
</a>
</g>
</g>
<!-- Node6&#45;&gt;Node18 -->
<g id="edge19" class="edge"><title>Node6&#45;&gt;Node18</title>
<path fill="none" stroke="midnightblue" d="M984.888,-98.676C1016.91,-92.9307 1055.81,-85.953 1086.17,-80.5066"/>
<polygon fill="midnightblue" stroke="midnightblue" points="983.976,-95.2837 974.751,-100.495 985.212,-102.174 983.976,-95.2837"/>
</g>
<!-- Node8 -->
<g id="node8" class="node"><title>Node8</title>
<g id="a_node8"><a xlink:href="$classEEPROMClass.html#a1ec32c6c58e3845274ab08e8944d2f46" xlink:title="Verify if active page is full and Writes variable in EEPROM. ">
<polygon fill="white" stroke="black" points="1257.89,-0.5 1257.89,-28.5 1415.06,-28.5 1415.06,-0.5 1257.89,-0.5"/>
<text text-anchor="start" x="1265.89" y="-16.5" font-family="Helvetica,sans-Serif" font-size="10.00">EEPROMClass::EE_VerifyPage</text>
<text text-anchor="middle" x="1336.47" y="-6.5" font-family="Helvetica,sans-Serif" font-size="10.00">FullWriteVariable</text>
</a>
</g>
</g>
<!-- Node7&#45;&gt;Node8 -->
<g id="edge7" class="edge"><title>Node7&#45;&gt;Node8</title>
<path fill="none" stroke="midnightblue" d="M1232.02,-24.4727C1240.62,-23.6436 1249.27,-22.8097 1257.71,-21.9963"/>
<polygon fill="midnightblue" stroke="midnightblue" points="1231.58,-20.9988 1221.96,-25.4423 1232.25,-27.9665 1231.58,-20.9988"/>
</g>
<!-- Node7&#45;&gt;Node12 -->
<g id="edge11" class="edge"><title>Node7&#45;&gt;Node12</title>
<path fill="none" stroke="midnightblue" d="M1191.46,-44.8119C1201.6,-47.1892 1212.1,-49.8 1221.89,-52.5 1252.47,-60.9426 1287.07,-72.5098 1309.96,-80.4511"/>
<polygon fill="midnightblue" stroke="midnightblue" points="1192.01,-41.3464 1181.48,-42.5178 1190.44,-48.1686 1192.01,-41.3464"/>
</g>
<!-- Node9 -->
<g id="node9" class="node"><title>Node9</title>
<g id="a_node9"><a xlink:href="$classEEPROMClass.html#a94dfba95e7cbc16dd5cbfeb344a749c1" xlink:title="Writes/upadtes variable data in EEPROM. ">
<polygon fill="white" stroke="black" points="1460.99,-5.5 1460.99,-23.5 1572,-23.5 1572,-5.5 1460.99,-5.5"/>
<text text-anchor="middle" x="1516.5" y="-11.5" font-family="Helvetica,sans-Serif" font-size="10.00">EEPROMClass::write</text>
</a>
</g>
</g>
<!-- Node8&#45;&gt;Node9 -->
<g id="edge8" class="edge"><title>Node8&#45;&gt;Node9</title>
<path fill="none" stroke="midnightblue" d="M1425.41,-14.5C1437.48,-14.5 1449.58,-14.5 1460.82,-14.5"/>
<polygon fill="midnightblue" stroke="midnightblue" points="1425.3,-11.0001 1415.3,-14.5 1425.3,-18.0001 1425.3,-11.0001"/>
</g>
<!-- Node10 -->
<g id="node10" class="node"><title>Node10</title>
<g id="a_node10"><a xlink:href="$classAP__HAL__FLYMAPLE__NS_1_1FLYMAPLEStorage.html#a0aa3116d7a310753eea45c784330aa37" xlink:title="AP_HAL_FLYMAPLE_NS\l::FLYMAPLEStorage::write_byte">
<polygon fill="white" stroke="black" points="1617.93,-0.5 1617.93,-28.5 1777.15,-28.5 1777.15,-0.5 1617.93,-0.5"/>
<text text-anchor="start" x="1625.93" y="-16.5" font-family="Helvetica,sans-Serif" font-size="10.00">AP_HAL_FLYMAPLE_NS</text>
<text text-anchor="middle" x="1697.54" y="-6.5" font-family="Helvetica,sans-Serif" font-size="10.00">::FLYMAPLEStorage::write_byte</text>
</a>
</g>
</g>
<!-- Node9&#45;&gt;Node10 -->
<g id="edge9" class="edge"><title>Node9&#45;&gt;Node10</title>
<path fill="none" stroke="midnightblue" d="M1582.52,-14.5C1593.98,-14.5 1606.01,-14.5 1617.8,-14.5"/>
<polygon fill="midnightblue" stroke="midnightblue" points="1582.19,-11.0001 1572.19,-14.5 1582.19,-18.0001 1582.19,-11.0001"/>
</g>
<!-- Node11 -->
<g id="node11" class="node"><title>Node11</title>
<g id="a_node11"><a xlink:href="$classAP__HAL__FLYMAPLE__NS_1_1FLYMAPLEStorage.html#a3cebced9065ea52b7c7684aed8f3435b" xlink:title="AP_HAL_FLYMAPLE_NS\l::FLYMAPLEStorage::write_block">
<polygon fill="white" stroke="black" points="1813.15,-0.5 1813.15,-28.5 1976.81,-28.5 1976.81,-0.5 1813.15,-0.5"/>
<text text-anchor="start" x="1821.15" y="-16.5" font-family="Helvetica,sans-Serif" font-size="10.00">AP_HAL_FLYMAPLE_NS</text>
<text text-anchor="middle" x="1894.98" y="-6.5" font-family="Helvetica,sans-Serif" font-size="10.00">::FLYMAPLEStorage::write_block</text>
</a>
</g>
</g>
<!-- Node10&#45;&gt;Node11 -->
<g id="edge10" class="edge"><title>Node10&#45;&gt;Node11</title>
<path fill="none" stroke="midnightblue" d="M1787.2,-14.5C1795.77,-14.5 1804.45,-14.5 1812.94,-14.5"/>
<polygon fill="midnightblue" stroke="midnightblue" points="1787.19,-11.0001 1777.19,-14.5 1787.19,-18.0001 1787.19,-11.0001"/>
</g>
<!-- Node12&#45;&gt;Node9 -->
<g id="edge16" class="edge"><title>Node12&#45;&gt;Node9</title>
<path fill="none" stroke="midnightblue" d="M1362.11,-75.3971C1384.7,-62.8866 1419.36,-44.7474 1451.06,-32.5 1459.73,-29.1506 1469.27,-26.1368 1478.29,-23.5759"/>
<polygon fill="midnightblue" stroke="midnightblue" points="1360.22,-72.4409 1353.21,-80.3805 1363.64,-78.5486 1360.22,-72.4409"/>
</g>
<!-- Node13 -->
<g id="node13" class="node"><title>Node13</title>
<g id="a_node13"><a xlink:href="$classAP__HAL__FLYMAPLE__NS_1_1FLYMAPLEStorage.html#a25a3355ea68af27fd28ec211b93ec2ca" xlink:title="AP_HAL_FLYMAPLE_NS\l::FLYMAPLEStorage::init">
<polygon fill="white" stroke="black" points="1451.06,-116.5 1451.06,-144.5 1581.93,-144.5 1581.93,-116.5 1451.06,-116.5"/>
<text text-anchor="start" x="1459.06" y="-132.5" font-family="Helvetica,sans-Serif" font-size="10.00">AP_HAL_FLYMAPLE_NS</text>
<text text-anchor="middle" x="1516.5" y="-122.5" font-family="Helvetica,sans-Serif" font-size="10.00">::FLYMAPLEStorage::init</text>
</a>
</g>
</g>
<!-- Node12&#45;&gt;Node13 -->
<g id="edge12" class="edge"><title>Node12&#45;&gt;Node13</title>
<path fill="none" stroke="midnightblue" d="M1386.92,-100.889C1407.83,-105.703 1432.39,-111.36 1454.41,-116.431"/>
<polygon fill="midnightblue" stroke="midnightblue" points="1387.51,-97.4329 1376.98,-98.5992 1385.94,-104.254 1387.51,-97.4329"/>
</g>
<!-- Node14 -->
<g id="node14" class="node"><title>Node14</title>
<g id="a_node14"><a xlink:href="$classEEPROMClass.html#aa2aa9b1e1f3f7ec3924aacc22e7de722" xlink:title="EEPROMClass::init">
<polygon fill="white" stroke="black" points="1465.15,-79.5 1465.15,-97.5 1567.84,-97.5 1567.84,-79.5 1465.15,-79.5"/>
<text text-anchor="middle" x="1516.5" y="-85.5" font-family="Helvetica,sans-Serif" font-size="10.00">EEPROMClass::init</text>
</a>
</g>
</g>
<!-- Node12&#45;&gt;Node14 -->
<g id="edge13" class="edge"><title>Node12&#45;&gt;Node14</title>
<path fill="none" stroke="midnightblue" d="M1398.16,-89.1591C1419.97,-89.0366 1444.31,-88.8999 1465.14,-88.7829"/>
<polygon fill="midnightblue" stroke="midnightblue" points="1397.99,-85.6599 1388.01,-89.2161 1398.03,-92.6598 1397.99,-85.6599"/>
</g>
<!-- Node15 -->
<g id="node15" class="node"><title>Node15</title>
<g id="a_node15"><a xlink:href="$classEEPROMClass.html#a7b4057d24e48bfad9b294d5acd9e7b56" xlink:title="Returns the erase counter for current page. ">
<polygon fill="white" stroke="black" points="1456.54,-42.5 1456.54,-60.5 1576.45,-60.5 1576.45,-42.5 1456.54,-42.5"/>
<text text-anchor="middle" x="1516.5" y="-48.5" font-family="Helvetica,sans-Serif" font-size="10.00">EEPROMClass::erases</text>
</a>
</g>
</g>
<!-- Node12&#45;&gt;Node15 -->
<g id="edge14" class="edge"><title>Node12&#45;&gt;Node15</title>
<path fill="none" stroke="midnightblue" d="M1389.58,-78.3764C1416.23,-72.6895 1448.23,-65.8587 1473.3,-60.5066"/>
<polygon fill="midnightblue" stroke="midnightblue" points="1388.71,-74.984 1379.66,-80.4945 1390.17,-81.8298 1388.71,-74.984"/>
</g>
<!-- Node16 -->
<g id="node16" class="node"><title>Node16</title>
<g id="a_node16"><a xlink:href="$classEEPROMClass.html#a039849dd231854ce6b71bb558684d54e" xlink:title="Returns the last stored variable data, if found, which correspond to the passed virtual address...">
<polygon fill="white" stroke="black" points="1461.54,-200.5 1461.54,-218.5 1571.45,-218.5 1571.45,-200.5 1461.54,-200.5"/>
<text text-anchor="middle" x="1516.5" y="-206.5" font-family="Helvetica,sans-Serif" font-size="10.00">EEPROMClass::read</text>
</a>
</g>
</g>
<!-- Node12&#45;&gt;Node16 -->
<g id="edge15" class="edge"><title>Node12&#45;&gt;Node16</title>
<path fill="none" stroke="midnightblue" d="M1351.76,-106.147C1371.79,-128.469 1410.35,-167.9 1451.06,-190.5 1458.4,-194.576 1466.71,-197.862 1474.86,-200.48"/>
<polygon fill="midnightblue" stroke="midnightblue" points="1354.27,-103.692 1345.03,-98.501 1349.01,-108.319 1354.27,-103.692"/>
</g>
<!-- Node17 -->
<g id="node17" class="node"><title>Node17</title>
<g id="a_node17"><a xlink:href="$classEEPROMClass.html#a11daf35eb9821e9c9761533f555bb1ed" xlink:title="Return number of variable. ">
<polygon fill="white" stroke="black" points="1459.31,-163.5 1459.31,-181.5 1573.68,-181.5 1573.68,-163.5 1459.31,-163.5"/>
<text text-anchor="middle" x="1516.5" y="-169.5" font-family="Helvetica,sans-Serif" font-size="10.00">EEPROMClass::count</text>
</a>
</g>
</g>
<!-- Node12&#45;&gt;Node17 -->
<g id="edge17" class="edge"><title>Node12&#45;&gt;Node17</title>
<path fill="none" stroke="midnightblue" d="M1359.72,-104.045C1382.08,-118.171 1417.89,-139.48 1451.06,-153.5 1460.08,-157.314 1470.12,-160.671 1479.54,-163.46"/>
<polygon fill="midnightblue" stroke="midnightblue" points="1361.6,-101.091 1351.29,-98.6536 1357.83,-106.989 1361.6,-101.091"/>
</g>
<!-- Node18&#45;&gt;Node12 -->
<g id="edge20" class="edge"><title>Node18&#45;&gt;Node12</title>
<path fill="none" stroke="midnightblue" d="M1206.77,-77.7458C1232.46,-80.0925 1261.19,-82.7157 1284.97,-84.8876"/>
<polygon fill="midnightblue" stroke="midnightblue" points="1206.99,-74.2516 1196.71,-76.8275 1206.35,-81.2226 1206.99,-74.2516"/>
</g>
<!-- Node19&#45;&gt;Node5 -->
<g id="edge22" class="edge"><title>Node19&#45;&gt;Node5</title>
<path fill="none" stroke="midnightblue" d="M555.878,-98.0499C575.991,-111.031 607.057,-129.884 635.959,-142.5 649.486,-148.405 664.918,-153.473 678.475,-157.409"/>
<polygon fill="midnightblue" stroke="midnightblue" points="557.74,-95.0857 547.455,-92.5422 553.909,-100.944 557.74,-95.0857"/>
</g>
<!-- Node19&#45;&gt;Node7 -->
<g id="edge23" class="edge"><title>Node19&#45;&gt;Node7</title>
<path fill="none" stroke="midnightblue" d="M610.331,-77.1743C723.52,-67.7769 935.316,-50.1928 1052.69,-40.448"/>
<polygon fill="midnightblue" stroke="midnightblue" points="609.701,-73.7146 600.025,-78.03 610.28,-80.6906 609.701,-73.7146"/>
</g>
<!-- Node19&#45;&gt;Node8 -->
<g id="edge24" class="edge"><title>Node19&#45;&gt;Node8</title>
<path fill="none" stroke="midnightblue" d="M577.75,-71.9665C595.679,-67.553 616.715,-62.7935 635.959,-59.5 819.656,-28.0608 866.766,-24.5145 1052.86,-14.5 1122.07,-10.776 1200.94,-11.1615 1257.74,-12.2553"/>
<polygon fill="midnightblue" stroke="midnightblue" points="576.715,-68.6173 567.865,-74.4412 578.416,-75.4077 576.715,-68.6173"/>
</g>
<!-- Node19&#45;&gt;Node12 -->
<g id="edge25" class="edge"><title>Node19&#45;&gt;Node12</title>
<path fill="none" stroke="midnightblue" d="M590.235,-94.359C649.581,-105.253 746.091,-121.282 830.239,-127.5 1003.94,-140.336 1049.37,-137.496 1221.89,-113.5 1247.94,-109.876 1276.95,-103.711 1299.13,-98.5359"/>
<polygon fill="midnightblue" stroke="midnightblue" points="590.788,-90.902 580.318,-92.5227 589.514,-97.785 590.788,-90.902"/>
</g>
<!-- Node19&#45;&gt;Node18 -->
<g id="edge26" class="edge"><title>Node19&#45;&gt;Node18</title>
<path fill="none" stroke="midnightblue" d="M610.389,-81.9807C732.325,-79.551 968.591,-74.8432 1078.07,-72.6617"/>
<polygon fill="midnightblue" stroke="midnightblue" points="609.953,-78.4886 600.025,-82.1872 610.092,-85.4872 609.953,-78.4886"/>
</g>
</g>
</svg>
