<?xml version="1.0" encoding="UTF-8" standalone="no"?>
<!DOCTYPE svg PUBLIC "-//W3C//DTD SVG 1.1//EN"
 "http://www.w3.org/Graphics/SVG/1.1/DTD/svg11.dtd">
<!-- Generated by graphviz version 2.38.0 (20140413.2041)
 -->
<!-- Title: FLASH_EraseSector Pages: 1 -->
<svg width="438pt" height="64pt"
 viewBox="0.00 0.00 438.32 64.00" xmlns="http://www.w3.org/2000/svg" xmlns:xlink="http://www.w3.org/1999/xlink">
<g id="graph0" class="graph" transform="scale(1 1) rotate(0) translate(4 60)">
<title>FLASH_EraseSector</title>
<polygon fill="white" stroke="none" points="-4,4 -4,-60 434.322,-60 434.322,4 -4,4"/>
<!-- Node1 -->
<g id="node1" class="node"><title>Node1</title>
<polygon fill="#bfbfbf" stroke="black" points="0,-18.5 0,-36.5 108.817,-36.5 108.817,-18.5 0,-18.5"/>
<text text-anchor="middle" x="54.4087" y="-24.5" font-family="Helvetica,sans-Serif" font-size="10.00">FLASH_EraseSector</text>
</g>
<!-- Node2 -->
<g id="node2" class="node"><title>Node2</title>
<g id="a_node2"><a xlink:href="$flash__stm32F2_8h.html#a32f1f24182bcef29414d7b59c1669595" xlink:title="Waits for a Flash operation to complete or a TIMEOUT to occur. ">
<polygon fill="white" stroke="black" points="144.817,-18.5 144.817,-36.5 296.062,-36.5 296.062,-18.5 144.817,-18.5"/>
<text text-anchor="middle" x="220.439" y="-24.5" font-family="Helvetica,sans-Serif" font-size="10.00">FLASH_WaitForLastOperation</text>
</a>
</g>
</g>
<!-- Node1&#45;&gt;Node2 -->
<g id="edge1" class="edge"><title>Node1&#45;&gt;Node2</title>
<path fill="none" stroke="midnightblue" d="M109.118,-27.5C117.312,-27.5 125.934,-27.5 134.599,-27.5"/>
<polygon fill="midnightblue" stroke="midnightblue" points="134.766,-31.0001 144.766,-27.5 134.766,-24.0001 134.766,-31.0001"/>
</g>
<!-- Node3 -->
<g id="node3" class="node"><title>Node3</title>
<g id="a_node3"><a xlink:href="$flash__stm32F2_8h.html#ac265b8d1e7ea11e44ceee28797c3debb" xlink:title="Returns the FLASH Status. ">
<polygon fill="white" stroke="black" points="332.062,-37.5 332.062,-55.5 430.322,-55.5 430.322,-37.5 332.062,-37.5"/>
<text text-anchor="middle" x="381.192" y="-43.5" font-family="Helvetica,sans-Serif" font-size="10.00">FLASH_GetStatus</text>
</a>
</g>
</g>
<!-- Node2&#45;&gt;Node3 -->
<g id="edge2" class="edge"><title>Node2&#45;&gt;Node3</title>
<path fill="none" stroke="midnightblue" d="M296.167,-36.4436C304.743,-37.4701 313.392,-38.5052 321.711,-39.5008"/>
<polygon fill="midnightblue" stroke="midnightblue" points="321.323,-42.9793 331.668,-40.6925 322.155,-36.0289 321.323,-42.9793"/>
</g>
<!-- Node4 -->
<g id="node4" class="node"><title>Node4</title>
<g id="a_node4"><a xlink:href="$flash__stm32F2_8h.html#a6cb8040e5f4a9a8ac17286fd20c740ae" xlink:title="Inserts a time delay. ">
<polygon fill="white" stroke="black" points="361.239,-0.5 361.239,-18.5 401.145,-18.5 401.145,-0.5 361.239,-0.5"/>
<text text-anchor="middle" x="381.192" y="-6.5" font-family="Helvetica,sans-Serif" font-size="10.00">delay</text>
</a>
</g>
</g>
<!-- Node2&#45;&gt;Node4 -->
<g id="edge3" class="edge"><title>Node2&#45;&gt;Node4</title>
<path fill="none" stroke="midnightblue" d="M296.167,-19.0271C315.639,-16.8193 335.485,-14.569 350.997,-12.8102"/>
<polygon fill="midnightblue" stroke="midnightblue" points="351.444,-16.2821 360.986,-11.6777 350.655,-9.32665 351.444,-16.2821"/>
</g>
</g>
</svg>
