<?xml version="1.0" encoding="UTF-8" standalone="no"?>
<!DOCTYPE svg PUBLIC "-//W3C//DTD SVG 1.1//EN"
 "http://www.w3.org/Graphics/SVG/1.1/DTD/svg11.dtd">
<!-- Generated by graphviz version 2.38.0 (20140413.2041)
 -->
<!-- Title: FLASH_ErasePage Pages: 1 -->
<svg width="1488pt" height="227pt"
 viewBox="0.00 0.00 1488.12 227.00" xmlns="http://www.w3.org/2000/svg" xmlns:xlink="http://www.w3.org/1999/xlink">
<g id="graph0" class="graph" transform="scale(1 1) rotate(0) translate(4 223)">
<title>FLASH_ErasePage</title>
<polygon fill="white" stroke="none" points="-4,4 -4,-223 1484.12,-223 1484.12,4 -4,4"/>
<!-- Node1 -->
<g id="node1" class="node"><title>Node1</title>
<polygon fill="#bfbfbf" stroke="black" points="0,-122.5 0,-140.5 103.271,-140.5 103.271,-122.5 0,-122.5"/>
<text text-anchor="middle" x="51.6353" y="-128.5" font-family="Helvetica,sans-Serif" font-size="10.00">FLASH_ErasePage</text>
</g>
<!-- Node2 -->
<g id="node2" class="node"><title>Node2</title>
<g id="a_node2"><a xlink:href="$classEEPROMClass.html#ad3725e57079ea532ce74bb4e76b211dd" xlink:title="Erase page with increment erase counter (page + 2) ">
<polygon fill="white" stroke="black" points="139.271,-122.5 139.271,-140.5 297.551,-140.5 297.551,-122.5 139.271,-122.5"/>
<text text-anchor="middle" x="218.411" y="-128.5" font-family="Helvetica,sans-Serif" font-size="10.00">EEPROMClass::EE_ErasePage</text>
</a>
</g>
</g>
<!-- Node1&#45;&gt;Node2 -->
<g id="edge1" class="edge"><title>Node1&#45;&gt;Node2</title>
<path fill="none" stroke="midnightblue" d="M113.469,-131.5C121.86,-131.5 130.572,-131.5 139.223,-131.5"/>
<polygon fill="midnightblue" stroke="midnightblue" points="113.418,-128 103.418,-131.5 113.418,-135 113.418,-128"/>
</g>
<!-- Node3 -->
<g id="node3" class="node"><title>Node3</title>
<g id="a_node3"><a xlink:href="$classEEPROMClass.html#a42fc5632d6e320e5c08b8acc86a144d6" xlink:title="Check page for blank and erase it. ">
<polygon fill="white" stroke="black" points="333.551,-122.5 333.551,-140.5 520.176,-140.5 520.176,-122.5 333.551,-122.5"/>
<text text-anchor="middle" x="426.863" y="-128.5" font-family="Helvetica,sans-Serif" font-size="10.00">EEPROMClass::EE_CheckErasePage</text>
</a>
</g>
</g>
<!-- Node2&#45;&gt;Node3 -->
<g id="edge2" class="edge"><title>Node2&#45;&gt;Node3</title>
<path fill="none" stroke="midnightblue" d="M307.943,-131.5C316.361,-131.5 324.912,-131.5 333.366,-131.5"/>
<polygon fill="midnightblue" stroke="midnightblue" points="307.756,-128 297.756,-131.5 307.756,-135 307.756,-128"/>
</g>
<!-- Node4 -->
<g id="node4" class="node"><title>Node4</title>
<g id="a_node4"><a xlink:href="$classEEPROMClass.html#a3d12060444d8cc649f0264ce23f7bbaf" xlink:title="Transfers last updated variables data from the full Page to an empty one. ">
<polygon fill="white" stroke="black" points="556.176,-160.5 556.176,-178.5 725.198,-178.5 725.198,-160.5 556.176,-160.5"/>
<text text-anchor="middle" x="640.687" y="-166.5" font-family="Helvetica,sans-Serif" font-size="10.00">EEPROMClass::EE_PageTransfer</text>
</a>
</g>
</g>
<!-- Node3&#45;&gt;Node4 -->
<g id="edge3" class="edge"><title>Node3&#45;&gt;Node4</title>
<path fill="none" stroke="midnightblue" d="M488.2,-142.324C520.226,-148.069 559.122,-155.047 589.481,-160.493"/>
<polygon fill="midnightblue" stroke="midnightblue" points="488.523,-138.826 478.063,-140.505 487.287,-145.716 488.523,-138.826"/>
</g>
<!-- Node9 -->
<g id="node9" class="node"><title>Node9</title>
<g id="a_node9"><a xlink:href="$classEEPROMClass.html#a9e3825e66fd8112ed3768f726537c8c6" xlink:title="EEPROMClass::init">
<polygon fill="white" stroke="black" points="788.442,-111.5 788.442,-129.5 891.126,-129.5 891.126,-111.5 788.442,-111.5"/>
<text text-anchor="middle" x="839.784" y="-117.5" font-family="Helvetica,sans-Serif" font-size="10.00">EEPROMClass::init</text>
</a>
</g>
</g>
<!-- Node3&#45;&gt;Node9 -->
<g id="edge15" class="edge"><title>Node3&#45;&gt;Node9</title>
<path fill="none" stroke="midnightblue" d="M530.453,-128.754C612.57,-126.556 724.235,-123.566 788.195,-121.854"/>
<polygon fill="midnightblue" stroke="midnightblue" points="530.241,-125.258 520.338,-129.025 530.428,-132.256 530.241,-125.258"/>
</g>
<!-- Node15 -->
<g id="node15" class="node"><title>Node15</title>
<g id="a_node15"><a xlink:href="$classEEPROMClass.html#ac7d841bc2db8825c19444dff0a7409c5" xlink:title="Erases PAGE0 and PAGE1 and writes EEPROM_VALID_PAGE / 0 header to PAGE0. ">
<polygon fill="white" stroke="black" points="581.566,-84.5 581.566,-102.5 699.808,-102.5 699.808,-84.5 581.566,-84.5"/>
<text text-anchor="middle" x="640.687" y="-90.5" font-family="Helvetica,sans-Serif" font-size="10.00">EEPROMClass::format</text>
</a>
</g>
</g>
<!-- Node3&#45;&gt;Node15 -->
<g id="edge16" class="edge"><title>Node3&#45;&gt;Node15</title>
<path fill="none" stroke="midnightblue" d="M488.2,-120.676C520.226,-114.931 559.122,-107.953 589.481,-102.507"/>
<polygon fill="midnightblue" stroke="midnightblue" points="487.287,-117.284 478.063,-122.495 488.523,-124.174 487.287,-117.284"/>
</g>
<!-- Node5 -->
<g id="node5" class="node"><title>Node5</title>
<g id="a_node5"><a xlink:href="$classEEPROMClass.html#a1ec32c6c58e3845274ab08e8944d2f46" xlink:title="Verify if active page is full and Writes variable in EEPROM. ">
<polygon fill="white" stroke="black" points="761.198,-165.5 761.198,-193.5 918.37,-193.5 918.37,-165.5 761.198,-165.5"/>
<text text-anchor="start" x="769.198" y="-181.5" font-family="Helvetica,sans-Serif" font-size="10.00">EEPROMClass::EE_VerifyPage</text>
<text text-anchor="middle" x="839.784" y="-171.5" font-family="Helvetica,sans-Serif" font-size="10.00">FullWriteVariable</text>
</a>
</g>
</g>
<!-- Node4&#45;&gt;Node5 -->
<g id="edge4" class="edge"><title>Node4&#45;&gt;Node5</title>
<path fill="none" stroke="midnightblue" d="M735.332,-174.251C743.933,-174.688 752.583,-175.126 761.021,-175.555"/>
<polygon fill="midnightblue" stroke="midnightblue" points="735.438,-170.752 725.274,-173.741 735.084,-177.743 735.438,-170.752"/>
</g>
<!-- Node4&#45;&gt;Node9 -->
<g id="edge8" class="edge"><title>Node4&#45;&gt;Node9</title>
<path fill="none" stroke="midnightblue" d="M688.248,-157.925C723.138,-149.251 770.209,-137.548 802.37,-129.553"/>
<polygon fill="midnightblue" stroke="midnightblue" points="687.158,-154.589 678.298,-160.398 688.847,-161.382 687.158,-154.589"/>
</g>
<!-- Node6 -->
<g id="node6" class="node"><title>Node6</title>
<g id="a_node6"><a xlink:href="$classEEPROMClass.html#a94dfba95e7cbc16dd5cbfeb344a749c1" xlink:title="Writes/upadtes variable data in EEPROM. ">
<polygon fill="white" stroke="black" points="964.299,-195.5 964.299,-213.5 1075.31,-213.5 1075.31,-195.5 964.299,-195.5"/>
<text text-anchor="middle" x="1019.81" y="-201.5" font-family="Helvetica,sans-Serif" font-size="10.00">EEPROMClass::write</text>
</a>
</g>
</g>
<!-- Node5&#45;&gt;Node6 -->
<g id="edge5" class="edge"><title>Node5&#45;&gt;Node6</title>
<path fill="none" stroke="midnightblue" d="M928.723,-191.849C940.795,-193.545 952.893,-195.244 964.129,-196.822"/>
<polygon fill="midnightblue" stroke="midnightblue" points="928.998,-188.354 918.608,-190.429 928.025,-195.286 928.998,-188.354"/>
</g>
<!-- Node7 -->
<g id="node7" class="node"><title>Node7</title>
<g id="a_node7"><a xlink:href="$classAP__HAL__FLYMAPLE__NS_1_1FLYMAPLEStorage.html#a0aa3116d7a310753eea45c784330aa37" xlink:title="AP_HAL_FLYMAPLE_NS\l::FLYMAPLEStorage::write_byte">
<polygon fill="white" stroke="black" points="1121.24,-190.5 1121.24,-218.5 1280.46,-218.5 1280.46,-190.5 1121.24,-190.5"/>
<text text-anchor="start" x="1129.24" y="-206.5" font-family="Helvetica,sans-Serif" font-size="10.00">AP_HAL_FLYMAPLE_NS</text>
<text text-anchor="middle" x="1200.85" y="-196.5" font-family="Helvetica,sans-Serif" font-size="10.00">::FLYMAPLEStorage::write_byte</text>
</a>
</g>
</g>
<!-- Node6&#45;&gt;Node7 -->
<g id="edge6" class="edge"><title>Node6&#45;&gt;Node7</title>
<path fill="none" stroke="midnightblue" d="M1085.83,-204.5C1097.29,-204.5 1109.33,-204.5 1121.11,-204.5"/>
<polygon fill="midnightblue" stroke="midnightblue" points="1085.5,-201 1075.5,-204.5 1085.5,-208 1085.5,-201"/>
</g>
<!-- Node8 -->
<g id="node8" class="node"><title>Node8</title>
<g id="a_node8"><a xlink:href="$classAP__HAL__FLYMAPLE__NS_1_1FLYMAPLEStorage.html#a3cebced9065ea52b7c7684aed8f3435b" xlink:title="AP_HAL_FLYMAPLE_NS\l::FLYMAPLEStorage::write_block">
<polygon fill="white" stroke="black" points="1316.46,-190.5 1316.46,-218.5 1480.12,-218.5 1480.12,-190.5 1316.46,-190.5"/>
<text text-anchor="start" x="1324.46" y="-206.5" font-family="Helvetica,sans-Serif" font-size="10.00">AP_HAL_FLYMAPLE_NS</text>
<text text-anchor="middle" x="1398.29" y="-196.5" font-family="Helvetica,sans-Serif" font-size="10.00">::FLYMAPLEStorage::write_block</text>
</a>
</g>
</g>
<!-- Node7&#45;&gt;Node8 -->
<g id="edge7" class="edge"><title>Node7&#45;&gt;Node8</title>
<path fill="none" stroke="midnightblue" d="M1290.51,-204.5C1299.09,-204.5 1307.76,-204.5 1316.25,-204.5"/>
<polygon fill="midnightblue" stroke="midnightblue" points="1290.5,-201 1280.5,-204.5 1290.5,-208 1290.5,-201"/>
</g>
<!-- Node9&#45;&gt;Node6 -->
<g id="edge13" class="edge"><title>Node9&#45;&gt;Node6</title>
<path fill="none" stroke="midnightblue" d="M874.694,-133.435C888.662,-139.358 904.733,-146.964 918.37,-155.5 936.024,-166.55 936.001,-175.685 954.37,-185.5 961.879,-189.512 970.346,-192.782 978.612,-195.405"/>
<polygon fill="midnightblue" stroke="midnightblue" points="875.995,-130.186 865.416,-129.613 873.329,-136.658 875.995,-130.186"/>
</g>
<!-- Node10 -->
<g id="node10" class="node"><title>Node10</title>
<g id="a_node10"><a xlink:href="$classAP__HAL__FLYMAPLE__NS_1_1FLYMAPLEStorage.html#a25a3355ea68af27fd28ec211b93ec2ca" xlink:title="AP_HAL_FLYMAPLE_NS\l::FLYMAPLEStorage::init">
<polygon fill="white" stroke="black" points="954.37,-148.5 954.37,-176.5 1085.24,-176.5 1085.24,-148.5 954.37,-148.5"/>
<text text-anchor="start" x="962.37" y="-164.5" font-family="Helvetica,sans-Serif" font-size="10.00">AP_HAL_FLYMAPLE_NS</text>
<text text-anchor="middle" x="1019.81" y="-154.5" font-family="Helvetica,sans-Serif" font-size="10.00">::FLYMAPLEStorage::init</text>
</a>
</g>
</g>
<!-- Node9&#45;&gt;Node10 -->
<g id="edge9" class="edge"><title>Node9&#45;&gt;Node10</title>
<path fill="none" stroke="midnightblue" d="M888.937,-131.861C910.62,-136.976 936.434,-143.066 959.314,-148.464"/>
<polygon fill="midnightblue" stroke="midnightblue" points="889.511,-128.4 878.974,-129.51 887.904,-135.213 889.511,-128.4"/>
</g>
<!-- Node11 -->
<g id="node11" class="node"><title>Node11</title>
<g id="a_node11"><a xlink:href="$classEEPROMClass.html#aa2aa9b1e1f3f7ec3924aacc22e7de722" xlink:title="EEPROMClass::init">
<polygon fill="white" stroke="black" points="968.464,-111.5 968.464,-129.5 1071.15,-129.5 1071.15,-111.5 968.464,-111.5"/>
<text text-anchor="middle" x="1019.81" y="-117.5" font-family="Helvetica,sans-Serif" font-size="10.00">EEPROMClass::init</text>
</a>
</g>
</g>
<!-- Node9&#45;&gt;Node11 -->
<g id="edge10" class="edge"><title>Node9&#45;&gt;Node11</title>
<path fill="none" stroke="midnightblue" d="M901.469,-120.5C923.277,-120.5 947.617,-120.5 968.451,-120.5"/>
<polygon fill="midnightblue" stroke="midnightblue" points="901.322,-117 891.322,-120.5 901.322,-124 901.322,-117"/>
</g>
<!-- Node12 -->
<g id="node12" class="node"><title>Node12</title>
<g id="a_node12"><a xlink:href="$classEEPROMClass.html#a7b4057d24e48bfad9b294d5acd9e7b56" xlink:title="Returns the erase counter for current page. ">
<polygon fill="white" stroke="black" points="959.849,-74.5 959.849,-92.5 1079.76,-92.5 1079.76,-74.5 959.849,-74.5"/>
<text text-anchor="middle" x="1019.81" y="-80.5" font-family="Helvetica,sans-Serif" font-size="10.00">EEPROMClass::erases</text>
</a>
</g>
</g>
<!-- Node9&#45;&gt;Node12 -->
<g id="edge11" class="edge"><title>Node9&#45;&gt;Node12</title>
<path fill="none" stroke="midnightblue" d="M894.373,-109.362C920.283,-103.977 950.978,-97.5974 975.399,-92.5218"/>
<polygon fill="midnightblue" stroke="midnightblue" points="893.412,-105.987 884.333,-111.449 894.836,-112.841 893.412,-105.987"/>
</g>
<!-- Node13 -->
<g id="node13" class="node"><title>Node13</title>
<g id="a_node13"><a xlink:href="$classEEPROMClass.html#a039849dd231854ce6b71bb558684d54e" xlink:title="Returns the last stored variable data, if found, which correspond to the passed virtual address...">
<polygon fill="white" stroke="black" points="964.849,-37.5 964.849,-55.5 1074.76,-55.5 1074.76,-37.5 964.849,-37.5"/>
<text text-anchor="middle" x="1019.81" y="-43.5" font-family="Helvetica,sans-Serif" font-size="10.00">EEPROMClass::read</text>
</a>
</g>
</g>
<!-- Node9&#45;&gt;Node13 -->
<g id="edge12" class="edge"><title>Node9&#45;&gt;Node13</title>
<path fill="none" stroke="midnightblue" d="M865.836,-106.464C888.458,-94.1995 922.924,-76.5242 954.37,-64.5 963.158,-61.1397 972.836,-58.1039 981.96,-55.5235"/>
<polygon fill="midnightblue" stroke="midnightblue" points="863.996,-103.481 856.909,-111.356 867.36,-109.619 863.996,-103.481"/>
</g>
<!-- Node14 -->
<g id="node14" class="node"><title>Node14</title>
<g id="a_node14"><a xlink:href="$classEEPROMClass.html#a11daf35eb9821e9c9761533f555bb1ed" xlink:title="Return number of variable. ">
<polygon fill="white" stroke="black" points="962.625,-0.5 962.625,-18.5 1076.99,-18.5 1076.99,-0.5 962.625,-0.5"/>
<text text-anchor="middle" x="1019.81" y="-6.5" font-family="Helvetica,sans-Serif" font-size="10.00">EEPROMClass::count</text>
</a>
</g>
</g>
<!-- Node9&#45;&gt;Node14 -->
<g id="edge14" class="edge"><title>Node9&#45;&gt;Node14</title>
<path fill="none" stroke="midnightblue" d="M856.512,-103.934C877.114,-83.1673 915.239,-47.8345 954.37,-27.5 961.276,-23.9116 968.98,-20.9686 976.593,-18.5789"/>
<polygon fill="midnightblue" stroke="midnightblue" points="853.744,-101.759 849.273,-111.365 858.758,-106.644 853.744,-101.759"/>
</g>
<!-- Node15&#45;&gt;Node9 -->
<g id="edge17" class="edge"><title>Node15&#45;&gt;Node9</title>
<path fill="none" stroke="midnightblue" d="M710.077,-102.869C735.774,-106.389 764.497,-110.324 788.279,-113.581"/>
<polygon fill="midnightblue" stroke="midnightblue" points="710.405,-99.381 700.023,-101.491 709.455,-106.316 710.405,-99.381"/>
</g>
</g>
</svg>
