<?xml version="1.0" encoding="UTF-8" standalone="no"?>
<!DOCTYPE svg PUBLIC "-//W3C//DTD SVG 1.1//EN"
 "http://www.w3.org/Graphics/SVG/1.1/DTD/svg11.dtd">
<!-- Generated by graphviz version 2.38.0 (20140413.2041)
 -->
<!-- Title: FLASH_ProgramHalfWord Pages: 1 -->
<svg width="1518pt" height="228pt"
 viewBox="0.00 0.00 1518.49 228.31" xmlns="http://www.w3.org/2000/svg" xmlns:xlink="http://www.w3.org/1999/xlink">
<g id="graph0" class="graph" transform="scale(1 1) rotate(0) translate(4 224.308)">
<title>FLASH_ProgramHalfWord</title>
<polygon fill="white" stroke="none" points="-4,4 -4,-224.308 1514.49,-224.308 1514.49,4 -4,4"/>
<!-- Node1 -->
<g id="node1" class="node"><title>Node1</title>
<polygon fill="#bfbfbf" stroke="black" points="0,-136.5 0,-154.5 133.637,-154.5 133.637,-136.5 0,-136.5"/>
<text text-anchor="middle" x="66.8184" y="-142.5" font-family="Helvetica,sans-Serif" font-size="10.00">FLASH_ProgramHalfWord</text>
</g>
<!-- Node2 -->
<g id="node2" class="node"><title>Node2</title>
<g id="a_node2"><a xlink:href="$classEEPROMClass.html#ad3725e57079ea532ce74bb4e76b211dd" xlink:title="Erase page with increment erase counter (page + 2) ">
<polygon fill="white" stroke="black" points="169.637,-136.5 169.637,-154.5 327.917,-154.5 327.917,-136.5 169.637,-136.5"/>
<text text-anchor="middle" x="248.777" y="-142.5" font-family="Helvetica,sans-Serif" font-size="10.00">EEPROMClass::EE_ErasePage</text>
</a>
</g>
</g>
<!-- Node1&#45;&gt;Node2 -->
<g id="edge1" class="edge"><title>Node1&#45;&gt;Node2</title>
<path fill="none" stroke="midnightblue" d="M144.021,-145.5C152.48,-145.5 161.106,-145.5 169.589,-145.5"/>
<polygon fill="midnightblue" stroke="midnightblue" points="143.806,-142 133.806,-145.5 143.806,-149 143.806,-142"/>
</g>
<!-- Node4 -->
<g id="node4" class="node"><title>Node4</title>
<g id="a_node4"><a xlink:href="$classEEPROMClass.html#a3d12060444d8cc649f0264ce23f7bbaf" xlink:title="Transfers last updated variables data from the full Page to an empty one. ">
<polygon fill="white" stroke="black" points="586.542,-174.5 586.542,-192.5 755.564,-192.5 755.564,-174.5 586.542,-174.5"/>
<text text-anchor="middle" x="671.053" y="-180.5" font-family="Helvetica,sans-Serif" font-size="10.00">EEPROMClass::EE_PageTransfer</text>
</a>
</g>
</g>
<!-- Node1&#45;&gt;Node4 -->
<g id="edge18" class="edge"><title>Node1&#45;&gt;Node4</title>
<path fill="none" stroke="midnightblue" d="M121.21,-156.337C136.763,-159.113 153.825,-161.794 169.637,-163.5 315.514,-179.237 486.512,-182.917 586.127,-183.598"/>
<polygon fill="midnightblue" stroke="midnightblue" points="121.703,-152.869 111.235,-154.507 120.44,-159.754 121.703,-152.869"/>
</g>
<!-- Node5 -->
<g id="node5" class="node"><title>Node5</title>
<g id="a_node5"><a xlink:href="$classEEPROMClass.html#a1ec32c6c58e3845274ab08e8944d2f46" xlink:title="Verify if active page is full and Writes variable in EEPROM. ">
<polygon fill="white" stroke="black" points="791.564,-190.5 791.564,-218.5 948.736,-218.5 948.736,-190.5 791.564,-190.5"/>
<text text-anchor="start" x="799.564" y="-206.5" font-family="Helvetica,sans-Serif" font-size="10.00">EEPROMClass::EE_VerifyPage</text>
<text text-anchor="middle" x="870.15" y="-196.5" font-family="Helvetica,sans-Serif" font-size="10.00">FullWriteVariable</text>
</a>
</g>
</g>
<!-- Node1&#45;&gt;Node5 -->
<g id="edge19" class="edge"><title>Node1&#45;&gt;Node5</title>
<path fill="none" stroke="midnightblue" d="M95.5948,-158.829C115.672,-167.79 143.71,-178.942 169.637,-184.5 391.187,-231.995 661.188,-220.903 791.461,-211.38"/>
<polygon fill="midnightblue" stroke="midnightblue" points="96.973,-155.611 86.4227,-154.641 94.0652,-161.978 96.973,-155.611"/>
</g>
<!-- Node9 -->
<g id="node9" class="node"><title>Node9</title>
<g id="a_node9"><a xlink:href="$classEEPROMClass.html#a9e3825e66fd8112ed3768f726537c8c6" xlink:title="EEPROMClass::init">
<polygon fill="white" stroke="black" points="818.808,-107.5 818.808,-125.5 921.493,-125.5 921.493,-107.5 818.808,-107.5"/>
<text text-anchor="middle" x="870.15" y="-113.5" font-family="Helvetica,sans-Serif" font-size="10.00">EEPROMClass::init</text>
</a>
</g>
</g>
<!-- Node1&#45;&gt;Node9 -->
<g id="edge21" class="edge"><title>Node1&#45;&gt;Node9</title>
<path fill="none" stroke="midnightblue" d="M98.2609,-132.539C118.182,-124.686 144.993,-115.288 169.637,-110.5 425.449,-60.7959 496.869,-57.0848 755.564,-88.5 785.001,-92.0747 817.806,-100.679 840.563,-107.414"/>
<polygon fill="midnightblue" stroke="midnightblue" points="96.7617,-129.369 88.7977,-136.357 99.3809,-135.861 96.7617,-129.369"/>
</g>
<!-- Node15 -->
<g id="node15" class="node"><title>Node15</title>
<g id="a_node15"><a xlink:href="$classEEPROMClass.html#ac7d841bc2db8825c19444dff0a7409c5" xlink:title="Erases PAGE0 and PAGE1 and writes EEPROM_VALID_PAGE / 0 header to PAGE0. ">
<polygon fill="white" stroke="black" points="611.933,-98.5 611.933,-116.5 730.174,-116.5 730.174,-98.5 611.933,-98.5"/>
<text text-anchor="middle" x="671.053" y="-104.5" font-family="Helvetica,sans-Serif" font-size="10.00">EEPROMClass::format</text>
</a>
</g>
</g>
<!-- Node1&#45;&gt;Node15 -->
<g id="edge20" class="edge"><title>Node1&#45;&gt;Node15</title>
<path fill="none" stroke="midnightblue" d="M118.573,-134.516C134.811,-131.409 152.914,-128.368 169.637,-126.5 328.835,-108.721 518.094,-106.692 611.677,-106.951"/>
<polygon fill="midnightblue" stroke="midnightblue" points="117.87,-131.087 108.732,-136.449 119.219,-137.955 117.87,-131.087"/>
</g>
<!-- Node3 -->
<g id="node3" class="node"><title>Node3</title>
<g id="a_node3"><a xlink:href="$classEEPROMClass.html#a42fc5632d6e320e5c08b8acc86a144d6" xlink:title="Check page for blank and erase it. ">
<polygon fill="white" stroke="black" points="363.917,-136.5 363.917,-154.5 550.542,-154.5 550.542,-136.5 363.917,-136.5"/>
<text text-anchor="middle" x="457.229" y="-142.5" font-family="Helvetica,sans-Serif" font-size="10.00">EEPROMClass::EE_CheckErasePage</text>
</a>
</g>
</g>
<!-- Node2&#45;&gt;Node3 -->
<g id="edge2" class="edge"><title>Node2&#45;&gt;Node3</title>
<path fill="none" stroke="midnightblue" d="M338.309,-145.5C346.727,-145.5 355.278,-145.5 363.732,-145.5"/>
<polygon fill="midnightblue" stroke="midnightblue" points="338.122,-142 328.122,-145.5 338.122,-149 338.122,-142"/>
</g>
<!-- Node3&#45;&gt;Node4 -->
<g id="edge3" class="edge"><title>Node3&#45;&gt;Node4</title>
<path fill="none" stroke="midnightblue" d="M518.566,-156.324C550.592,-162.069 589.488,-169.047 619.848,-174.493"/>
<polygon fill="midnightblue" stroke="midnightblue" points="518.89,-152.826 508.429,-154.505 517.654,-159.716 518.89,-152.826"/>
</g>
<!-- Node3&#45;&gt;Node9 -->
<g id="edge15" class="edge"><title>Node3&#45;&gt;Node9</title>
<path fill="none" stroke="midnightblue" d="M560.814,-138.902C618.123,-135.14 690.825,-130.242 755.564,-125.5 776.181,-123.99 798.893,-122.213 818.554,-120.639"/>
<polygon fill="midnightblue" stroke="midnightblue" points="560.413,-135.421 550.663,-139.567 560.87,-142.406 560.413,-135.421"/>
</g>
<!-- Node3&#45;&gt;Node15 -->
<g id="edge16" class="edge"><title>Node3&#45;&gt;Node15</title>
<path fill="none" stroke="midnightblue" d="M518.566,-134.676C550.592,-128.931 589.488,-121.953 619.848,-116.507"/>
<polygon fill="midnightblue" stroke="midnightblue" points="517.654,-131.284 508.429,-136.495 518.89,-138.174 517.654,-131.284"/>
</g>
<!-- Node4&#45;&gt;Node5 -->
<g id="edge4" class="edge"><title>Node4&#45;&gt;Node5</title>
<path fill="none" stroke="midnightblue" d="M765.698,-193.478C774.299,-194.394 782.95,-195.316 791.387,-196.215"/>
<polygon fill="midnightblue" stroke="midnightblue" points="765.955,-189.985 755.64,-192.406 765.213,-196.946 765.955,-189.985"/>
</g>
<!-- Node4&#45;&gt;Node9 -->
<g id="edge8" class="edge"><title>Node4&#45;&gt;Node9</title>
<path fill="none" stroke="midnightblue" d="M715.966,-171.612C728.797,-167.941 742.8,-163.742 755.564,-159.5 787.579,-148.86 823.945,-134.723 846.717,-125.617"/>
<polygon fill="midnightblue" stroke="midnightblue" points="714.645,-168.347 705.973,-174.433 716.547,-175.084 714.645,-168.347"/>
</g>
<!-- Node6 -->
<g id="node6" class="node"><title>Node6</title>
<g id="a_node6"><a xlink:href="$classEEPROMClass.html#a94dfba95e7cbc16dd5cbfeb344a749c1" xlink:title="Writes/upadtes variable data in EEPROM. ">
<polygon fill="white" stroke="black" points="994.666,-195.5 994.666,-213.5 1105.68,-213.5 1105.68,-195.5 994.666,-195.5"/>
<text text-anchor="middle" x="1050.17" y="-201.5" font-family="Helvetica,sans-Serif" font-size="10.00">EEPROMClass::write</text>
</a>
</g>
</g>
<!-- Node5&#45;&gt;Node6 -->
<g id="edge5" class="edge"><title>Node5&#45;&gt;Node6</title>
<path fill="none" stroke="midnightblue" d="M959.089,-204.5C971.161,-204.5 983.259,-204.5 994.495,-204.5"/>
<polygon fill="midnightblue" stroke="midnightblue" points="958.975,-201 948.975,-204.5 958.975,-208 958.975,-201"/>
</g>
<!-- Node7 -->
<g id="node7" class="node"><title>Node7</title>
<g id="a_node7"><a xlink:href="$classAP__HAL__FLYMAPLE__NS_1_1FLYMAPLEStorage.html#a0aa3116d7a310753eea45c784330aa37" xlink:title="AP_HAL_FLYMAPLE_NS\l::FLYMAPLEStorage::write_byte">
<polygon fill="white" stroke="black" points="1151.61,-190.5 1151.61,-218.5 1310.83,-218.5 1310.83,-190.5 1151.61,-190.5"/>
<text text-anchor="start" x="1159.61" y="-206.5" font-family="Helvetica,sans-Serif" font-size="10.00">AP_HAL_FLYMAPLE_NS</text>
<text text-anchor="middle" x="1231.22" y="-196.5" font-family="Helvetica,sans-Serif" font-size="10.00">::FLYMAPLEStorage::write_byte</text>
</a>
</g>
</g>
<!-- Node6&#45;&gt;Node7 -->
<g id="edge6" class="edge"><title>Node6&#45;&gt;Node7</title>
<path fill="none" stroke="midnightblue" d="M1116.2,-204.5C1127.66,-204.5 1139.69,-204.5 1151.47,-204.5"/>
<polygon fill="midnightblue" stroke="midnightblue" points="1115.87,-201 1105.87,-204.5 1115.87,-208 1115.87,-201"/>
</g>
<!-- Node8 -->
<g id="node8" class="node"><title>Node8</title>
<g id="a_node8"><a xlink:href="$classAP__HAL__FLYMAPLE__NS_1_1FLYMAPLEStorage.html#a3cebced9065ea52b7c7684aed8f3435b" xlink:title="AP_HAL_FLYMAPLE_NS\l::FLYMAPLEStorage::write_block">
<polygon fill="white" stroke="black" points="1346.83,-190.5 1346.83,-218.5 1510.49,-218.5 1510.49,-190.5 1346.83,-190.5"/>
<text text-anchor="start" x="1354.83" y="-206.5" font-family="Helvetica,sans-Serif" font-size="10.00">AP_HAL_FLYMAPLE_NS</text>
<text text-anchor="middle" x="1428.66" y="-196.5" font-family="Helvetica,sans-Serif" font-size="10.00">::FLYMAPLEStorage::write_block</text>
</a>
</g>
</g>
<!-- Node7&#45;&gt;Node8 -->
<g id="edge7" class="edge"><title>Node7&#45;&gt;Node8</title>
<path fill="none" stroke="midnightblue" d="M1320.88,-204.5C1329.45,-204.5 1338.12,-204.5 1346.62,-204.5"/>
<polygon fill="midnightblue" stroke="midnightblue" points="1320.87,-201 1310.87,-204.5 1320.87,-208 1320.87,-201"/>
</g>
<!-- Node9&#45;&gt;Node6 -->
<g id="edge13" class="edge"><title>Node9&#45;&gt;Node6</title>
<path fill="none" stroke="midnightblue" d="M892.135,-131.543C914.272,-146.85 950.61,-170.411 984.736,-185.5 993.483,-189.368 1003.24,-192.707 1012.46,-195.459"/>
<polygon fill="midnightblue" stroke="midnightblue" points="894.035,-128.601 883.837,-125.73 890.019,-134.334 894.035,-128.601"/>
</g>
<!-- Node10 -->
<g id="node10" class="node"><title>Node10</title>
<g id="a_node10"><a xlink:href="$classAP__HAL__FLYMAPLE__NS_1_1FLYMAPLEStorage.html#a25a3355ea68af27fd28ec211b93ec2ca" xlink:title="AP_HAL_FLYMAPLE_NS\l::FLYMAPLEStorage::init">
<polygon fill="white" stroke="black" points="984.736,-111.5 984.736,-139.5 1115.61,-139.5 1115.61,-111.5 984.736,-111.5"/>
<text text-anchor="start" x="992.736" y="-127.5" font-family="Helvetica,sans-Serif" font-size="10.00">AP_HAL_FLYMAPLE_NS</text>
<text text-anchor="middle" x="1050.17" y="-117.5" font-family="Helvetica,sans-Serif" font-size="10.00">::FLYMAPLEStorage::init</text>
</a>
</g>
</g>
<!-- Node9&#45;&gt;Node10 -->
<g id="edge9" class="edge"><title>Node9&#45;&gt;Node10</title>
<path fill="none" stroke="midnightblue" d="M932.005,-119.577C948.929,-120.432 967.367,-121.364 984.501,-122.231"/>
<polygon fill="midnightblue" stroke="midnightblue" points="931.852,-116.064 921.688,-119.055 931.499,-123.056 931.852,-116.064"/>
</g>
<!-- Node11 -->
<g id="node11" class="node"><title>Node11</title>
<g id="a_node11"><a xlink:href="$classEEPROMClass.html#aa2aa9b1e1f3f7ec3924aacc22e7de722" xlink:title="EEPROMClass::init">
<polygon fill="white" stroke="black" points="998.831,-74.5 998.831,-92.5 1101.52,-92.5 1101.52,-74.5 998.831,-74.5"/>
<text text-anchor="middle" x="1050.17" y="-80.5" font-family="Helvetica,sans-Serif" font-size="10.00">EEPROMClass::init</text>
</a>
</g>
</g>
<!-- Node9&#45;&gt;Node11 -->
<g id="edge10" class="edge"><title>Node9&#45;&gt;Node11</title>
<path fill="none" stroke="midnightblue" d="M929.758,-105.636C952.703,-101.383 978.712,-96.5612 1000.59,-92.5065"/>
<polygon fill="midnightblue" stroke="midnightblue" points="928.99,-102.219 919.796,-107.483 930.266,-109.101 928.99,-102.219"/>
</g>
<!-- Node12 -->
<g id="node12" class="node"><title>Node12</title>
<g id="a_node12"><a xlink:href="$classEEPROMClass.html#a7b4057d24e48bfad9b294d5acd9e7b56" xlink:title="Returns the erase counter for current page. ">
<polygon fill="white" stroke="black" points="990.215,-37.5 990.215,-55.5 1110.13,-55.5 1110.13,-37.5 990.215,-37.5"/>
<text text-anchor="middle" x="1050.17" y="-43.5" font-family="Helvetica,sans-Serif" font-size="10.00">EEPROMClass::erases</text>
</a>
</g>
</g>
<!-- Node9&#45;&gt;Node12 -->
<g id="edge11" class="edge"><title>Node9&#45;&gt;Node12</title>
<path fill="none" stroke="midnightblue" d="M897.903,-102.804C920.609,-91.5329 954.263,-75.6536 984.736,-64.5 993.79,-61.1865 1003.75,-58.1294 1013.07,-55.5109"/>
<polygon fill="midnightblue" stroke="midnightblue" points="896.255,-99.7146 888.883,-107.325 899.391,-105.973 896.255,-99.7146"/>
</g>
<!-- Node13 -->
<g id="node13" class="node"><title>Node13</title>
<g id="a_node13"><a xlink:href="$classEEPROMClass.html#a039849dd231854ce6b71bb558684d54e" xlink:title="Returns the last stored variable data, if found, which correspond to the passed virtual address...">
<polygon fill="white" stroke="black" points="995.215,-0.5 995.215,-18.5 1105.13,-18.5 1105.13,-0.5 995.215,-0.5"/>
<text text-anchor="middle" x="1050.17" y="-6.5" font-family="Helvetica,sans-Serif" font-size="10.00">EEPROMClass::read</text>
</a>
</g>
</g>
<!-- Node9&#45;&gt;Node13 -->
<g id="edge12" class="edge"><title>Node9&#45;&gt;Node13</title>
<path fill="none" stroke="midnightblue" d="M887.663,-100.071C908.556,-80.1595 946.454,-46.8746 984.736,-27.5 991.784,-23.9334 999.633,-20.9916 1007.36,-18.5942"/>
<polygon fill="midnightblue" stroke="midnightblue" points="885.023,-97.7555 880.28,-107.23 889.896,-102.781 885.023,-97.7555"/>
</g>
<!-- Node14 -->
<g id="node14" class="node"><title>Node14</title>
<g id="a_node14"><a xlink:href="$classEEPROMClass.html#a11daf35eb9821e9c9761533f555bb1ed" xlink:title="Return number of variable. ">
<polygon fill="white" stroke="black" points="992.991,-158.5 992.991,-176.5 1107.35,-176.5 1107.35,-158.5 992.991,-158.5"/>
<text text-anchor="middle" x="1050.17" y="-164.5" font-family="Helvetica,sans-Serif" font-size="10.00">EEPROMClass::count</text>
</a>
</g>
</g>
<!-- Node9&#45;&gt;Node14 -->
<g id="edge14" class="edge"><title>Node9&#45;&gt;Node14</title>
<path fill="none" stroke="midnightblue" d="M912.518,-128.351C944.529,-137.521 988.195,-150.031 1017.47,-158.418"/>
<polygon fill="midnightblue" stroke="midnightblue" points="913.145,-124.89 902.567,-125.5 911.217,-131.619 913.145,-124.89"/>
</g>
<!-- Node15&#45;&gt;Node9 -->
<g id="edge17" class="edge"><title>Node15&#45;&gt;Node9</title>
<path fill="none" stroke="midnightblue" d="M740.443,-110.623C766.14,-111.796 794.864,-113.108 818.645,-114.194"/>
<polygon fill="midnightblue" stroke="midnightblue" points="740.538,-107.124 730.389,-110.164 740.219,-114.116 740.538,-107.124"/>
</g>
</g>
</svg>
