<?xml version="1.0" encoding="UTF-8" standalone="no"?>
<!DOCTYPE svg PUBLIC "-//W3C//DTD SVG 1.1//EN"
 "http://www.w3.org/Graphics/SVG/1.1/DTD/svg11.dtd">
<!-- Generated by graphviz version 2.38.0 (20140413.2041)
 -->
<!-- Title: FLASH_WaitForLastOperation Pages: 1 -->
<svg width="1851pt" height="227pt"
 viewBox="0.00 0.00 1850.55 227.00" xmlns="http://www.w3.org/2000/svg" xmlns:xlink="http://www.w3.org/1999/xlink">
<g id="graph0" class="graph" transform="scale(1 1) rotate(0) translate(4 223)">
<title>FLASH_WaitForLastOperation</title>
<polygon fill="white" stroke="none" points="-4,4 -4,-223 1846.55,-223 1846.55,4 -4,4"/>
<!-- Node1 -->
<g id="node1" class="node"><title>Node1</title>
<polygon fill="#bfbfbf" stroke="black" points="0,-116.5 0,-134.5 151.244,-134.5 151.244,-116.5 0,-116.5"/>
<text text-anchor="middle" x="75.6221" y="-122.5" font-family="Helvetica,sans-Serif" font-size="10.00">FLASH_WaitForLastOperation</text>
</g>
<!-- Node2 -->
<g id="node2" class="node"><title>Node2</title>
<g id="a_node2"><a xlink:href="$flash__stm32F2_8h.html#ae687b99f868242c3478fe2f070861abc" xlink:title="Erases a specified FLASH Sector. ">
<polygon fill="white" stroke="black" points="187.244,-140.5 187.244,-158.5 296.062,-158.5 296.062,-140.5 187.244,-140.5"/>
<text text-anchor="middle" x="241.653" y="-146.5" font-family="Helvetica,sans-Serif" font-size="10.00">FLASH_EraseSector</text>
</a>
</g>
</g>
<!-- Node1&#45;&gt;Node2 -->
<g id="edge1" class="edge"><title>Node1&#45;&gt;Node2</title>
<path fill="none" stroke="midnightblue" d="M148.089,-135.957C161.186,-137.873 174.648,-139.843 187.109,-141.666"/>
<polygon fill="midnightblue" stroke="midnightblue" points="148.569,-132.49 138.168,-134.505 147.556,-139.416 148.569,-132.49"/>
</g>
<!-- Node18 -->
<g id="node18" class="node"><title>Node18</title>
<g id="a_node18"><a xlink:href="$flash__stm32F2_8h.html#a67623617a6efb2676988073df8b08b23" xlink:title="Programs a half word (16&#45;bit) at a specified address. ">
<polygon fill="white" stroke="black" points="332.062,-74.5 332.062,-92.5 465.698,-92.5 465.698,-74.5 332.062,-74.5"/>
<text text-anchor="middle" x="398.88" y="-80.5" font-family="Helvetica,sans-Serif" font-size="10.00">FLASH_ProgramHalfWord</text>
</a>
</g>
</g>
<!-- Node1&#45;&gt;Node18 -->
<g id="edge20" class="edge"><title>Node1&#45;&gt;Node18</title>
<path fill="none" stroke="midnightblue" d="M155.782,-115.151C209.883,-108.078 280.755,-98.8125 331.822,-92.1362"/>
<polygon fill="midnightblue" stroke="midnightblue" points="155.002,-111.723 145.54,-116.49 155.909,-118.664 155.002,-111.723"/>
</g>
<!-- Node3 -->
<g id="node3" class="node"><title>Node3</title>
<g id="a_node3"><a xlink:href="$flash__stm32F2_8h.html#ab10d4a1c191d1d7f5b3a3b70927e6e69" xlink:title="Erases a specified FLASH page. ">
<polygon fill="white" stroke="black" points="347.245,-145.5 347.245,-163.5 450.515,-163.5 450.515,-145.5 347.245,-145.5"/>
<text text-anchor="middle" x="398.88" y="-151.5" font-family="Helvetica,sans-Serif" font-size="10.00">FLASH_ErasePage</text>
</a>
</g>
</g>
<!-- Node2&#45;&gt;Node3 -->
<g id="edge2" class="edge"><title>Node2&#45;&gt;Node3</title>
<path fill="none" stroke="midnightblue" d="M306.347,-151.552C319.971,-151.99 334.186,-152.448 347.239,-152.869"/>
<polygon fill="midnightblue" stroke="midnightblue" points="306.181,-148.045 296.073,-151.221 305.955,-155.041 306.181,-148.045"/>
</g>
<!-- Node4 -->
<g id="node4" class="node"><title>Node4</title>
<g id="a_node4"><a xlink:href="$classEEPROMClass.html#ad3725e57079ea532ce74bb4e76b211dd" xlink:title="Erase page with increment erase counter (page + 2) ">
<polygon fill="white" stroke="black" points="501.698,-157.5 501.698,-175.5 659.979,-175.5 659.979,-157.5 501.698,-157.5"/>
<text text-anchor="middle" x="580.838" y="-163.5" font-family="Helvetica,sans-Serif" font-size="10.00">EEPROMClass::EE_ErasePage</text>
</a>
</g>
</g>
<!-- Node3&#45;&gt;Node4 -->
<g id="edge3" class="edge"><title>Node3&#45;&gt;Node4</title>
<path fill="none" stroke="midnightblue" d="M461.134,-158.585C474.077,-159.448 487.906,-160.37 501.384,-161.269"/>
<polygon fill="midnightblue" stroke="midnightblue" points="461.178,-155.08 450.967,-157.907 460.712,-162.064 461.178,-155.08"/>
</g>
<!-- Node5 -->
<g id="node5" class="node"><title>Node5</title>
<g id="a_node5"><a xlink:href="$classEEPROMClass.html#a42fc5632d6e320e5c08b8acc86a144d6" xlink:title="Check page for blank and erase it. ">
<polygon fill="white" stroke="black" points="695.979,-100.5 695.979,-118.5 882.604,-118.5 882.604,-100.5 695.979,-100.5"/>
<text text-anchor="middle" x="789.291" y="-106.5" font-family="Helvetica,sans-Serif" font-size="10.00">EEPROMClass::EE_CheckErasePage</text>
</a>
</g>
</g>
<!-- Node4&#45;&gt;Node5 -->
<g id="edge4" class="edge"><title>Node4&#45;&gt;Node5</title>
<path fill="none" stroke="midnightblue" d="M624.516,-154.717C663.373,-143.989 719.933,-128.373 755.39,-118.584"/>
<polygon fill="midnightblue" stroke="midnightblue" points="623.259,-151.433 614.551,-157.468 625.122,-158.181 623.259,-151.433"/>
</g>
<!-- Node6 -->
<g id="node6" class="node"><title>Node6</title>
<g id="a_node6"><a xlink:href="$classEEPROMClass.html#a3d12060444d8cc649f0264ce23f7bbaf" xlink:title="Transfers last updated variables data from the full Page to an empty one. ">
<polygon fill="white" stroke="black" points="918.604,-24.5 918.604,-42.5 1087.63,-42.5 1087.63,-24.5 918.604,-24.5"/>
<text text-anchor="middle" x="1003.11" y="-30.5" font-family="Helvetica,sans-Serif" font-size="10.00">EEPROMClass::EE_PageTransfer</text>
</a>
</g>
</g>
<!-- Node5&#45;&gt;Node6 -->
<g id="edge5" class="edge"><title>Node5&#45;&gt;Node6</title>
<path fill="none" stroke="midnightblue" d="M816.749,-95.9229C842.281,-83.2619 882.299,-64.5662 918.604,-52.5 930.174,-48.6545 942.9,-45.3231 954.855,-42.5711"/>
<polygon fill="midnightblue" stroke="midnightblue" points="815.082,-92.8433 807.71,-100.453 818.218,-99.1011 815.082,-92.8433"/>
</g>
<!-- Node11 -->
<g id="node11" class="node"><title>Node11</title>
<g id="a_node11"><a xlink:href="$classEEPROMClass.html#a9e3825e66fd8112ed3768f726537c8c6" xlink:title="EEPROMClass::init">
<polygon fill="white" stroke="black" points="1150.87,-80.5 1150.87,-98.5 1253.55,-98.5 1253.55,-80.5 1150.87,-80.5"/>
<text text-anchor="middle" x="1202.21" y="-86.5" font-family="Helvetica,sans-Serif" font-size="10.00">EEPROMClass::init</text>
</a>
</g>
</g>
<!-- Node5&#45;&gt;Node11 -->
<g id="edge17" class="edge"><title>Node5&#45;&gt;Node11</title>
<path fill="none" stroke="midnightblue" d="M892.881,-104.507C974.998,-100.51 1086.66,-95.0753 1150.62,-91.9622"/>
<polygon fill="midnightblue" stroke="midnightblue" points="892.584,-101.017 882.766,-104.999 892.924,-108.009 892.584,-101.017"/>
</g>
<!-- Node17 -->
<g id="node17" class="node"><title>Node17</title>
<g id="a_node17"><a xlink:href="$classEEPROMClass.html#ac7d841bc2db8825c19444dff0a7409c5" xlink:title="Erases PAGE0 and PAGE1 and writes EEPROM_VALID_PAGE / 0 header to PAGE0. ">
<polygon fill="white" stroke="black" points="943.994,-62.5 943.994,-80.5 1062.24,-80.5 1062.24,-62.5 943.994,-62.5"/>
<text text-anchor="middle" x="1003.11" y="-68.5" font-family="Helvetica,sans-Serif" font-size="10.00">EEPROMClass::format</text>
</a>
</g>
</g>
<!-- Node5&#45;&gt;Node17 -->
<g id="edge18" class="edge"><title>Node5&#45;&gt;Node17</title>
<path fill="none" stroke="midnightblue" d="M850.627,-98.676C882.653,-92.9307 921.549,-85.953 951.909,-80.5066"/>
<polygon fill="midnightblue" stroke="midnightblue" points="849.715,-95.2837 840.49,-100.495 850.951,-102.174 849.715,-95.2837"/>
</g>
<!-- Node7 -->
<g id="node7" class="node"><title>Node7</title>
<g id="a_node7"><a xlink:href="$classEEPROMClass.html#a1ec32c6c58e3845274ab08e8944d2f46" xlink:title="Verify if active page is full and Writes variable in EEPROM. ">
<polygon fill="white" stroke="black" points="1123.63,-0.5 1123.63,-28.5 1280.8,-28.5 1280.8,-0.5 1123.63,-0.5"/>
<text text-anchor="start" x="1131.63" y="-16.5" font-family="Helvetica,sans-Serif" font-size="10.00">EEPROMClass::EE_VerifyPage</text>
<text text-anchor="middle" x="1202.21" y="-6.5" font-family="Helvetica,sans-Serif" font-size="10.00">FullWriteVariable</text>
</a>
</g>
</g>
<!-- Node6&#45;&gt;Node7 -->
<g id="edge6" class="edge"><title>Node6&#45;&gt;Node7</title>
<path fill="none" stroke="midnightblue" d="M1097.76,-24.4727C1106.36,-23.6436 1115.01,-22.8097 1123.45,-21.9963"/>
<polygon fill="midnightblue" stroke="midnightblue" points="1097.32,-20.9988 1087.7,-25.4423 1097.99,-27.9665 1097.32,-20.9988"/>
</g>
<!-- Node6&#45;&gt;Node11 -->
<g id="edge10" class="edge"><title>Node6&#45;&gt;Node11</title>
<path fill="none" stroke="midnightblue" d="M1057.2,-44.8119C1067.34,-47.1892 1077.84,-49.8 1087.63,-52.5 1118.21,-60.9426 1152.81,-72.5098 1175.7,-80.4511"/>
<polygon fill="midnightblue" stroke="midnightblue" points="1057.75,-41.3464 1047.22,-42.5178 1056.18,-48.1686 1057.75,-41.3464"/>
</g>
<!-- Node8 -->
<g id="node8" class="node"><title>Node8</title>
<g id="a_node8"><a xlink:href="$classEEPROMClass.html#a94dfba95e7cbc16dd5cbfeb344a749c1" xlink:title="Writes/upadtes variable data in EEPROM. ">
<polygon fill="white" stroke="black" points="1326.73,-5.5 1326.73,-23.5 1437.74,-23.5 1437.74,-5.5 1326.73,-5.5"/>
<text text-anchor="middle" x="1382.23" y="-11.5" font-family="Helvetica,sans-Serif" font-size="10.00">EEPROMClass::write</text>
</a>
</g>
</g>
<!-- Node7&#45;&gt;Node8 -->
<g id="edge7" class="edge"><title>Node7&#45;&gt;Node8</title>
<path fill="none" stroke="midnightblue" d="M1291.15,-14.5C1303.22,-14.5 1315.32,-14.5 1326.56,-14.5"/>
<polygon fill="midnightblue" stroke="midnightblue" points="1291.04,-11.0001 1281.04,-14.5 1291.04,-18.0001 1291.04,-11.0001"/>
</g>
<!-- Node9 -->
<g id="node9" class="node"><title>Node9</title>
<g id="a_node9"><a xlink:href="$classAP__HAL__FLYMAPLE__NS_1_1FLYMAPLEStorage.html#a0aa3116d7a310753eea45c784330aa37" xlink:title="AP_HAL_FLYMAPLE_NS\l::FLYMAPLEStorage::write_byte">
<polygon fill="white" stroke="black" points="1483.67,-0.5 1483.67,-28.5 1642.89,-28.5 1642.89,-0.5 1483.67,-0.5"/>
<text text-anchor="start" x="1491.67" y="-16.5" font-family="Helvetica,sans-Serif" font-size="10.00">AP_HAL_FLYMAPLE_NS</text>
<text text-anchor="middle" x="1563.28" y="-6.5" font-family="Helvetica,sans-Serif" font-size="10.00">::FLYMAPLEStorage::write_byte</text>
</a>
</g>
</g>
<!-- Node8&#45;&gt;Node9 -->
<g id="edge8" class="edge"><title>Node8&#45;&gt;Node9</title>
<path fill="none" stroke="midnightblue" d="M1448.26,-14.5C1459.72,-14.5 1471.75,-14.5 1483.54,-14.5"/>
<polygon fill="midnightblue" stroke="midnightblue" points="1447.93,-11.0001 1437.93,-14.5 1447.93,-18.0001 1447.93,-11.0001"/>
</g>
<!-- Node10 -->
<g id="node10" class="node"><title>Node10</title>
<g id="a_node10"><a xlink:href="$classAP__HAL__FLYMAPLE__NS_1_1FLYMAPLEStorage.html#a3cebced9065ea52b7c7684aed8f3435b" xlink:title="AP_HAL_FLYMAPLE_NS\l::FLYMAPLEStorage::write_block">
<polygon fill="white" stroke="black" points="1678.89,-0.5 1678.89,-28.5 1842.55,-28.5 1842.55,-0.5 1678.89,-0.5"/>
<text text-anchor="start" x="1686.89" y="-16.5" font-family="Helvetica,sans-Serif" font-size="10.00">AP_HAL_FLYMAPLE_NS</text>
<text text-anchor="middle" x="1760.72" y="-6.5" font-family="Helvetica,sans-Serif" font-size="10.00">::FLYMAPLEStorage::write_block</text>
</a>
</g>
</g>
<!-- Node9&#45;&gt;Node10 -->
<g id="edge9" class="edge"><title>Node9&#45;&gt;Node10</title>
<path fill="none" stroke="midnightblue" d="M1652.94,-14.5C1661.51,-14.5 1670.18,-14.5 1678.68,-14.5"/>
<polygon fill="midnightblue" stroke="midnightblue" points="1652.93,-11.0001 1642.93,-14.5 1652.93,-18.0001 1652.93,-11.0001"/>
</g>
<!-- Node11&#45;&gt;Node8 -->
<g id="edge15" class="edge"><title>Node11&#45;&gt;Node8</title>
<path fill="none" stroke="midnightblue" d="M1227.84,-75.3971C1250.44,-62.8866 1285.1,-44.7474 1316.8,-32.5 1325.47,-29.1506 1335.01,-26.1368 1344.03,-23.5759"/>
<polygon fill="midnightblue" stroke="midnightblue" points="1225.96,-72.4409 1218.94,-80.3805 1229.38,-78.5486 1225.96,-72.4409"/>
</g>
<!-- Node12 -->
<g id="node12" class="node"><title>Node12</title>
<g id="a_node12"><a xlink:href="$classAP__HAL__FLYMAPLE__NS_1_1FLYMAPLEStorage.html#a25a3355ea68af27fd28ec211b93ec2ca" xlink:title="AP_HAL_FLYMAPLE_NS\l::FLYMAPLEStorage::init">
<polygon fill="white" stroke="black" points="1316.8,-116.5 1316.8,-144.5 1447.67,-144.5 1447.67,-116.5 1316.8,-116.5"/>
<text text-anchor="start" x="1324.8" y="-132.5" font-family="Helvetica,sans-Serif" font-size="10.00">AP_HAL_FLYMAPLE_NS</text>
<text text-anchor="middle" x="1382.23" y="-122.5" font-family="Helvetica,sans-Serif" font-size="10.00">::FLYMAPLEStorage::init</text>
</a>
</g>
</g>
<!-- Node11&#45;&gt;Node12 -->
<g id="edge11" class="edge"><title>Node11&#45;&gt;Node12</title>
<path fill="none" stroke="midnightblue" d="M1252.66,-100.889C1273.57,-105.703 1298.13,-111.36 1320.15,-116.431"/>
<polygon fill="midnightblue" stroke="midnightblue" points="1253.25,-97.4329 1242.72,-98.5992 1251.68,-104.254 1253.25,-97.4329"/>
</g>
<!-- Node13 -->
<g id="node13" class="node"><title>Node13</title>
<g id="a_node13"><a xlink:href="$classEEPROMClass.html#aa2aa9b1e1f3f7ec3924aacc22e7de722" xlink:title="EEPROMClass::init">
<polygon fill="white" stroke="black" points="1330.89,-79.5 1330.89,-97.5 1433.58,-97.5 1433.58,-79.5 1330.89,-79.5"/>
<text text-anchor="middle" x="1382.23" y="-85.5" font-family="Helvetica,sans-Serif" font-size="10.00">EEPROMClass::init</text>
</a>
</g>
</g>
<!-- Node11&#45;&gt;Node13 -->
<g id="edge12" class="edge"><title>Node11&#45;&gt;Node13</title>
<path fill="none" stroke="midnightblue" d="M1263.9,-89.1591C1285.7,-89.0366 1310.04,-88.8999 1330.88,-88.7829"/>
<polygon fill="midnightblue" stroke="midnightblue" points="1263.73,-85.6599 1253.75,-89.2161 1263.77,-92.6598 1263.73,-85.6599"/>
</g>
<!-- Node14 -->
<g id="node14" class="node"><title>Node14</title>
<g id="a_node14"><a xlink:href="$classEEPROMClass.html#a7b4057d24e48bfad9b294d5acd9e7b56" xlink:title="Returns the erase counter for current page. ">
<polygon fill="white" stroke="black" points="1322.28,-42.5 1322.28,-60.5 1442.19,-60.5 1442.19,-42.5 1322.28,-42.5"/>
<text text-anchor="middle" x="1382.23" y="-48.5" font-family="Helvetica,sans-Serif" font-size="10.00">EEPROMClass::erases</text>
</a>
</g>
</g>
<!-- Node11&#45;&gt;Node14 -->
<g id="edge13" class="edge"><title>Node11&#45;&gt;Node14</title>
<path fill="none" stroke="midnightblue" d="M1255.32,-78.3764C1281.97,-72.6895 1313.97,-65.8587 1339.04,-60.5066"/>
<polygon fill="midnightblue" stroke="midnightblue" points="1254.45,-74.984 1245.4,-80.4945 1255.91,-81.8298 1254.45,-74.984"/>
</g>
<!-- Node15 -->
<g id="node15" class="node"><title>Node15</title>
<g id="a_node15"><a xlink:href="$classEEPROMClass.html#a039849dd231854ce6b71bb558684d54e" xlink:title="Returns the last stored variable data, if found, which correspond to the passed virtual address...">
<polygon fill="white" stroke="black" points="1327.28,-200.5 1327.28,-218.5 1437.19,-218.5 1437.19,-200.5 1327.28,-200.5"/>
<text text-anchor="middle" x="1382.23" y="-206.5" font-family="Helvetica,sans-Serif" font-size="10.00">EEPROMClass::read</text>
</a>
</g>
</g>
<!-- Node11&#45;&gt;Node15 -->
<g id="edge14" class="edge"><title>Node11&#45;&gt;Node15</title>
<path fill="none" stroke="midnightblue" d="M1217.5,-106.147C1237.53,-128.469 1276.09,-167.9 1316.8,-190.5 1324.14,-194.576 1332.45,-197.862 1340.6,-200.48"/>
<polygon fill="midnightblue" stroke="midnightblue" points="1220.01,-103.692 1210.77,-98.501 1214.75,-108.319 1220.01,-103.692"/>
</g>
<!-- Node16 -->
<g id="node16" class="node"><title>Node16</title>
<g id="a_node16"><a xlink:href="$classEEPROMClass.html#a11daf35eb9821e9c9761533f555bb1ed" xlink:title="Return number of variable. ">
<polygon fill="white" stroke="black" points="1325.05,-163.5 1325.05,-181.5 1439.42,-181.5 1439.42,-163.5 1325.05,-163.5"/>
<text text-anchor="middle" x="1382.23" y="-169.5" font-family="Helvetica,sans-Serif" font-size="10.00">EEPROMClass::count</text>
</a>
</g>
</g>
<!-- Node11&#45;&gt;Node16 -->
<g id="edge16" class="edge"><title>Node11&#45;&gt;Node16</title>
<path fill="none" stroke="midnightblue" d="M1225.46,-104.045C1247.82,-118.171 1283.63,-139.48 1316.8,-153.5 1325.82,-157.314 1335.86,-160.671 1345.28,-163.46"/>
<polygon fill="midnightblue" stroke="midnightblue" points="1227.34,-101.091 1217.03,-98.6536 1223.57,-106.989 1227.34,-101.091"/>
</g>
<!-- Node17&#45;&gt;Node11 -->
<g id="edge19" class="edge"><title>Node17&#45;&gt;Node11</title>
<path fill="none" stroke="midnightblue" d="M1072.5,-77.7458C1098.2,-80.0925 1126.93,-82.7157 1150.71,-84.8876"/>
<polygon fill="midnightblue" stroke="midnightblue" points="1072.73,-74.2516 1062.45,-76.8275 1072.09,-81.2226 1072.73,-74.2516"/>
</g>
<!-- Node18&#45;&gt;Node4 -->
<g id="edge21" class="edge"><title>Node18&#45;&gt;Node4</title>
<path fill="none" stroke="midnightblue" d="M421.618,-98.0499C441.73,-111.031 472.796,-129.884 501.698,-142.5 515.225,-148.405 530.657,-153.473 544.215,-157.409"/>
<polygon fill="midnightblue" stroke="midnightblue" points="423.48,-95.0857 413.195,-92.5422 419.649,-100.944 423.48,-95.0857"/>
</g>
<!-- Node18&#45;&gt;Node6 -->
<g id="edge22" class="edge"><title>Node18&#45;&gt;Node6</title>
<path fill="none" stroke="midnightblue" d="M476.07,-77.1743C589.259,-67.7769 801.056,-50.1928 918.428,-40.448"/>
<polygon fill="midnightblue" stroke="midnightblue" points="475.44,-73.7146 465.764,-78.03 476.019,-80.6906 475.44,-73.7146"/>
</g>
<!-- Node18&#45;&gt;Node7 -->
<g id="edge23" class="edge"><title>Node18&#45;&gt;Node7</title>
<path fill="none" stroke="midnightblue" d="M443.489,-71.9665C461.419,-67.553 482.455,-62.7935 501.698,-59.5 685.395,-28.0608 732.505,-24.5145 918.604,-14.5 987.806,-10.776 1066.68,-11.1615 1123.48,-12.2553"/>
<polygon fill="midnightblue" stroke="midnightblue" points="442.455,-68.6173 433.604,-74.4412 444.155,-75.4077 442.455,-68.6173"/>
</g>
<!-- Node18&#45;&gt;Node11 -->
<g id="edge25" class="edge"><title>Node18&#45;&gt;Node11</title>
<path fill="none" stroke="midnightblue" d="M455.974,-94.359C515.32,-105.253 611.83,-121.282 695.979,-127.5 869.682,-140.336 915.11,-137.496 1087.63,-113.5 1113.68,-109.876 1142.69,-103.711 1164.87,-98.5359"/>
<polygon fill="midnightblue" stroke="midnightblue" points="456.527,-90.902 446.057,-92.5227 455.253,-97.785 456.527,-90.902"/>
</g>
<!-- Node18&#45;&gt;Node17 -->
<g id="edge24" class="edge"><title>Node18&#45;&gt;Node17</title>
<path fill="none" stroke="midnightblue" d="M476.128,-81.9807C598.064,-79.551 834.33,-74.8432 943.812,-72.6617"/>
<polygon fill="midnightblue" stroke="midnightblue" points="475.692,-78.4886 465.764,-82.1872 475.832,-85.4872 475.692,-78.4886"/>
</g>
</g>
</svg>
