<?xml version="1.0" encoding="UTF-8" standalone="no"?>
<!DOCTYPE svg PUBLIC "-//W3C//DTD SVG 1.1//EN"
 "http://www.w3.org/Graphics/SVG/1.1/DTD/svg11.dtd">
<!-- Generated by graphviz version 2.38.0 (20140413.2041)
 -->
<!-- Title: libraries/AP_HAL_FLYMAPLE/utility/flash_stm32F1.h Pages: 1 -->
<svg width="443pt" height="92pt"
 viewBox="0.00 0.00 442.66 92.00" xmlns="http://www.w3.org/2000/svg" xmlns:xlink="http://www.w3.org/1999/xlink">
<g id="graph0" class="graph" transform="scale(1 1) rotate(0) translate(4 88)">
<title>libraries/AP_HAL_FLYMAPLE/utility/flash_stm32F1.h</title>
<polygon fill="white" stroke="none" points="-4,4 -4,-88 438.665,-88 438.665,4 -4,4"/>
<!-- Node1 -->
<g id="node1" class="node"><title>Node1</title>
<polygon fill="#bfbfbf" stroke="black" points="181.933,-55.5 181.933,-83.5 331.141,-83.5 331.141,-55.5 181.933,-55.5"/>
<text text-anchor="start" x="189.933" y="-71.5" font-family="Helvetica,sans-Serif" font-size="10.00">libraries/AP_HAL_FLYMAPLE</text>
<text text-anchor="middle" x="256.537" y="-61.5" font-family="Helvetica,sans-Serif" font-size="10.00">/utility/flash_stm32F1.h</text>
</g>
<!-- Node2 -->
<g id="node2" class="node"><title>Node2</title>
<g id="a_node2"><a xlink:href="$AP__HAL__Boards_8h.html" xlink:title="AP_HAL/AP_HAL_Boards.h">
<polygon fill="white" stroke="black" points="0,-0.5 0,-18.5 141.073,-18.5 141.073,-0.5 0,-0.5"/>
<text text-anchor="middle" x="70.5366" y="-6.5" font-family="Helvetica,sans-Serif" font-size="10.00">AP_HAL/AP_HAL_Boards.h</text>
</a>
</g>
</g>
<!-- Node1&#45;&gt;Node2 -->
<g id="edge1" class="edge"><title>Node1&#45;&gt;Node2</title>
<path fill="none" stroke="midnightblue" d="M214.795,-55.4837C182.173,-45.3113 137.315,-31.3232 106.321,-21.6587"/>
<polygon fill="midnightblue" stroke="midnightblue" points="106.969,-18.1943 96.38,-18.5587 104.885,-24.877 106.969,-18.1943"/>
</g>
<!-- Node3 -->
<g id="node3" class="node"><title>Node3</title>
<polygon fill="white" stroke="#bfbfbf" points="158.746,-0.5 158.746,-18.5 220.327,-18.5 220.327,-0.5 158.746,-0.5"/>
<text text-anchor="middle" x="189.537" y="-6.5" font-family="Helvetica,sans-Serif" font-size="10.00">libmaple.h</text>
</g>
<!-- Node1&#45;&gt;Node3 -->
<g id="edge2" class="edge"><title>Node1&#45;&gt;Node3</title>
<path fill="none" stroke="midnightblue" d="M241.333,-55.3389C231.097,-46.4777 217.573,-34.7705 206.911,-25.5407"/>
<polygon fill="midnightblue" stroke="midnightblue" points="208.943,-22.6703 199.092,-18.7715 204.361,-27.9627 208.943,-22.6703"/>
</g>
<!-- Node4 -->
<g id="node4" class="node"><title>Node4</title>
<polygon fill="white" stroke="#bfbfbf" points="237.975,-0.5 237.975,-18.5 275.098,-18.5 275.098,-0.5 237.975,-0.5"/>
<text text-anchor="middle" x="256.537" y="-6.5" font-family="Helvetica,sans-Serif" font-size="10.00">util.h</text>
</g>
<!-- Node1&#45;&gt;Node4 -->
<g id="edge3" class="edge"><title>Node1&#45;&gt;Node4</title>
<path fill="none" stroke="midnightblue" d="M256.537,-55.3389C256.537,-47.5305 256.537,-37.5122 256.537,-28.9265"/>
<polygon fill="midnightblue" stroke="midnightblue" points="260.037,-28.7714 256.537,-18.7715 253.037,-28.7715 260.037,-28.7714"/>
</g>
<!-- Node5 -->
<g id="node5" class="node"><title>Node5</title>
<polygon fill="white" stroke="#bfbfbf" points="292.805,-0.5 292.805,-18.5 338.268,-18.5 338.268,-0.5 292.805,-0.5"/>
<text text-anchor="middle" x="315.537" y="-6.5" font-family="Helvetica,sans-Serif" font-size="10.00">flash.h</text>
</g>
<!-- Node1&#45;&gt;Node5 -->
<g id="edge4" class="edge"><title>Node1&#45;&gt;Node5</title>
<path fill="none" stroke="midnightblue" d="M269.925,-55.3389C278.849,-46.5654 290.612,-35.002 299.957,-25.8156"/>
<polygon fill="midnightblue" stroke="midnightblue" points="302.445,-28.2778 307.123,-18.7715 297.538,-23.2859 302.445,-28.2778"/>
</g>
<!-- Node6 -->
<g id="node6" class="node"><title>Node6</title>
<g id="a_node6"><a xlink:href="$flash__stm32_8h.html" xlink:title="flash_stm32.h">
<polygon fill="white" stroke="black" points="356.409,-0.5 356.409,-18.5 434.665,-18.5 434.665,-0.5 356.409,-0.5"/>
<text text-anchor="middle" x="395.537" y="-6.5" font-family="Helvetica,sans-Serif" font-size="10.00">flash_stm32.h</text>
</a>
</g>
</g>
<!-- Node1&#45;&gt;Node6 -->
<g id="edge5" class="edge"><title>Node1&#45;&gt;Node6</title>
<path fill="none" stroke="midnightblue" d="M287.731,-55.4837C311.404,-45.6059 343.699,-32.1302 366.756,-22.509"/>
<polygon fill="midnightblue" stroke="midnightblue" points="368.14,-25.7244 376.021,-18.6434 365.444,-19.2643 368.14,-25.7244"/>
</g>
</g>
</svg>
