<?xml version="1.0" encoding="UTF-8" standalone="no"?>
<!DOCTYPE svg PUBLIC "-//W3C//DTD SVG 1.1//EN"
 "http://www.w3.org/Graphics/SVG/1.1/DTD/svg11.dtd">
<!-- Generated by graphviz version 2.38.0 (20140413.2041)
 -->
<!-- Title: FLASH_WaitForLastOperation Pages: 1 -->
<svg width="294pt" height="64pt"
 viewBox="0.00 0.00 293.50 64.00" xmlns="http://www.w3.org/2000/svg" xmlns:xlink="http://www.w3.org/1999/xlink">
<g id="graph0" class="graph" transform="scale(1 1) rotate(0) translate(4 60)">
<title>FLASH_WaitForLastOperation</title>
<polygon fill="white" stroke="none" points="-4,4 -4,-60 289.505,-60 289.505,4 -4,4"/>
<!-- Node1 -->
<g id="node1" class="node"><title>Node1</title>
<polygon fill="#bfbfbf" stroke="black" points="0,-18.5 0,-36.5 151.244,-36.5 151.244,-18.5 0,-18.5"/>
<text text-anchor="middle" x="75.6221" y="-24.5" font-family="Helvetica,sans-Serif" font-size="10.00">FLASH_WaitForLastOperation</text>
</g>
<!-- Node2 -->
<g id="node2" class="node"><title>Node2</title>
<g id="a_node2"><a xlink:href="$flash__stm32F2_8h.html#ac265b8d1e7ea11e44ceee28797c3debb" xlink:title="Returns the FLASH Status. ">
<polygon fill="white" stroke="black" points="187.244,-37.5 187.244,-55.5 285.505,-55.5 285.505,-37.5 187.244,-37.5"/>
<text text-anchor="middle" x="236.375" y="-43.5" font-family="Helvetica,sans-Serif" font-size="10.00">FLASH_GetStatus</text>
</a>
</g>
</g>
<!-- Node1&#45;&gt;Node2 -->
<g id="edge1" class="edge"><title>Node1&#45;&gt;Node2</title>
<path fill="none" stroke="midnightblue" d="M151.35,-36.4436C159.926,-37.4701 168.575,-38.5052 176.894,-39.5008"/>
<polygon fill="midnightblue" stroke="midnightblue" points="176.505,-42.9793 186.851,-40.6925 177.337,-36.0289 176.505,-42.9793"/>
</g>
<!-- Node3 -->
<g id="node3" class="node"><title>Node3</title>
<g id="a_node3"><a xlink:href="$flash__stm32F2_8h.html#a6cb8040e5f4a9a8ac17286fd20c740ae" xlink:title="Inserts a time delay. ">
<polygon fill="white" stroke="black" points="216.421,-0.5 216.421,-18.5 256.328,-18.5 256.328,-0.5 216.421,-0.5"/>
<text text-anchor="middle" x="236.375" y="-6.5" font-family="Helvetica,sans-Serif" font-size="10.00">delay</text>
</a>
</g>
</g>
<!-- Node1&#45;&gt;Node3 -->
<g id="edge2" class="edge"><title>Node1&#45;&gt;Node3</title>
<path fill="none" stroke="midnightblue" d="M151.35,-19.0271C170.822,-16.8193 190.668,-14.569 206.18,-12.8102"/>
<polygon fill="midnightblue" stroke="midnightblue" points="206.626,-16.2821 216.168,-11.6777 205.838,-9.32665 206.626,-16.2821"/>
</g>
</g>
</svg>
