<?xml version="1.0" encoding="UTF-8" standalone="no"?>
<!DOCTYPE svg PUBLIC "-//W3C//DTD SVG 1.1//EN"
 "http://www.w3.org/Graphics/SVG/1.1/DTD/svg11.dtd">
<!-- Generated by graphviz version 2.38.0 (20140413.2041)
 -->
<!-- Title: FLASH_ErasePage Pages: 1 -->
<svg width="620pt" height="119pt"
 viewBox="0.00 0.00 620.02 119.00" xmlns="http://www.w3.org/2000/svg" xmlns:xlink="http://www.w3.org/1999/xlink">
<g id="graph0" class="graph" transform="scale(1 1) rotate(0) translate(4 115)">
<title>FLASH_ErasePage</title>
<polygon fill="white" stroke="none" points="-4,4 -4,-115 616.02,-115 616.02,4 -4,4"/>
<!-- Node1 -->
<g id="node1" class="node"><title>Node1</title>
<polygon fill="#bfbfbf" stroke="black" points="0,-36.5 0,-54.5 103.271,-54.5 103.271,-36.5 0,-36.5"/>
<text text-anchor="middle" x="51.6353" y="-42.5" font-family="Helvetica,sans-Serif" font-size="10.00">FLASH_ErasePage</text>
</g>
<!-- Node2 -->
<g id="node2" class="node"><title>Node2</title>
<g id="a_node2"><a xlink:href="$flash__stm32F1_8h.html#a32f1f24182bcef29414d7b59c1669595" xlink:title="Waits for a Flash operation to complete or a TIMEOUT to occur. ">
<polygon fill="white" stroke="black" points="139.271,-55.5 139.271,-73.5 290.515,-73.5 290.515,-55.5 139.271,-55.5"/>
<text text-anchor="middle" x="214.893" y="-61.5" font-family="Helvetica,sans-Serif" font-size="10.00">FLASH_WaitForLastOperation</text>
</a>
</g>
</g>
<!-- Node1&#45;&gt;Node2 -->
<g id="edge1" class="edge"><title>Node1&#45;&gt;Node2</title>
<path fill="none" stroke="midnightblue" d="M103.658,-51.5117C111.749,-52.465 120.302,-53.4728 128.922,-54.4884"/>
<polygon fill="midnightblue" stroke="midnightblue" points="128.706,-57.9871 139.047,-55.6814 129.525,-51.0352 128.706,-57.9871"/>
</g>
<!-- Node5 -->
<g id="node5" class="node"><title>Node5</title>
<g id="a_node5"><a xlink:href="$flash__stm32F2_8h.html#ae687b99f868242c3478fe2f070861abc" xlink:title="Erases a specified FLASH Sector. ">
<polygon fill="white" stroke="black" points="160.484,-18.5 160.484,-36.5 269.301,-36.5 269.301,-18.5 160.484,-18.5"/>
<text text-anchor="middle" x="214.893" y="-24.5" font-family="Helvetica,sans-Serif" font-size="10.00">FLASH_EraseSector</text>
</a>
</g>
</g>
<!-- Node1&#45;&gt;Node5 -->
<g id="edge4" class="edge"><title>Node1&#45;&gt;Node5</title>
<path fill="none" stroke="midnightblue" d="M103.658,-39.8047C118.494,-38.1487 134.882,-36.3194 150.385,-34.5888"/>
<polygon fill="midnightblue" stroke="midnightblue" points="150.87,-38.0566 160.42,-33.4687 150.094,-31.0998 150.87,-38.0566"/>
</g>
<!-- Node3 -->
<g id="node3" class="node"><title>Node3</title>
<g id="a_node3"><a xlink:href="$flash__stm32F1_8h.html#ac265b8d1e7ea11e44ceee28797c3debb" xlink:title="Returns the FLASH Status. ">
<polygon fill="white" stroke="black" points="353.006,-92.5 353.006,-110.5 451.267,-110.5 451.267,-92.5 353.006,-92.5"/>
<text text-anchor="middle" x="402.137" y="-98.5" font-family="Helvetica,sans-Serif" font-size="10.00">FLASH_GetStatus</text>
</a>
</g>
</g>
<!-- Node2&#45;&gt;Node3 -->
<g id="edge2" class="edge"><title>Node2&#45;&gt;Node3</title>
<path fill="none" stroke="midnightblue" d="M261.208,-73.5512C286.757,-78.6543 318.871,-85.0686 345.888,-90.4647"/>
<polygon fill="midnightblue" stroke="midnightblue" points="345.476,-93.9516 355.968,-92.4782 346.847,-87.0872 345.476,-93.9516"/>
</g>
<!-- Node4 -->
<g id="node4" class="node"><title>Node4</title>
<g id="a_node4"><a xlink:href="$flash__stm32F1_8h.html#a6cb8040e5f4a9a8ac17286fd20c740ae" xlink:title="Inserts a time delay. ">
<polygon fill="white" stroke="black" points="382.184,-55.5 382.184,-73.5 422.09,-73.5 422.09,-55.5 382.184,-55.5"/>
<text text-anchor="middle" x="402.137" y="-61.5" font-family="Helvetica,sans-Serif" font-size="10.00">delay</text>
</a>
</g>
</g>
<!-- Node2&#45;&gt;Node4 -->
<g id="edge3" class="edge"><title>Node2&#45;&gt;Node4</title>
<path fill="none" stroke="midnightblue" d="M290.705,-64.5C319.224,-64.5 350.084,-64.5 371.912,-64.5"/>
<polygon fill="midnightblue" stroke="midnightblue" points="372.148,-68.0001 382.148,-64.5 372.148,-61.0001 372.148,-68.0001"/>
</g>
<!-- Node6 -->
<g id="node6" class="node"><title>Node6</title>
<g id="a_node6"><a xlink:href="$flash__stm32F2_8h.html#a32f1f24182bcef29414d7b59c1669595" xlink:title="Waits for a Flash operation to complete or a TIMEOUT to occur. ">
<polygon fill="white" stroke="black" points="326.515,-18.5 326.515,-36.5 477.759,-36.5 477.759,-18.5 326.515,-18.5"/>
<text text-anchor="middle" x="402.137" y="-24.5" font-family="Helvetica,sans-Serif" font-size="10.00">FLASH_WaitForLastOperation</text>
</a>
</g>
</g>
<!-- Node5&#45;&gt;Node6 -->
<g id="edge5" class="edge"><title>Node5&#45;&gt;Node6</title>
<path fill="none" stroke="midnightblue" d="M269.473,-27.5C284.023,-27.5 300.148,-27.5 315.979,-27.5"/>
<polygon fill="midnightblue" stroke="midnightblue" points="316.321,-31.0001 326.321,-27.5 316.321,-24.0001 316.321,-31.0001"/>
</g>
<!-- Node7 -->
<g id="node7" class="node"><title>Node7</title>
<g id="a_node7"><a xlink:href="$flash__stm32F2_8h.html#ac265b8d1e7ea11e44ceee28797c3debb" xlink:title="Returns the FLASH Status. ">
<polygon fill="white" stroke="black" points="513.759,-37.5 513.759,-55.5 612.02,-55.5 612.02,-37.5 513.759,-37.5"/>
<text text-anchor="middle" x="562.889" y="-43.5" font-family="Helvetica,sans-Serif" font-size="10.00">FLASH_GetStatus</text>
</a>
</g>
</g>
<!-- Node6&#45;&gt;Node7 -->
<g id="edge6" class="edge"><title>Node6&#45;&gt;Node7</title>
<path fill="none" stroke="midnightblue" d="M477.864,-36.4436C486.44,-37.4701 495.089,-38.5052 503.408,-39.5008"/>
<polygon fill="midnightblue" stroke="midnightblue" points="503.02,-42.9793 513.365,-40.6925 503.852,-36.0289 503.02,-42.9793"/>
</g>
<!-- Node8 -->
<g id="node8" class="node"><title>Node8</title>
<g id="a_node8"><a xlink:href="$flash__stm32F2_8h.html#a6cb8040e5f4a9a8ac17286fd20c740ae" xlink:title="Inserts a time delay. ">
<polygon fill="white" stroke="black" points="542.936,-0.5 542.936,-18.5 582.842,-18.5 582.842,-0.5 542.936,-0.5"/>
<text text-anchor="middle" x="562.889" y="-6.5" font-family="Helvetica,sans-Serif" font-size="10.00">delay</text>
</a>
</g>
</g>
<!-- Node6&#45;&gt;Node8 -->
<g id="edge7" class="edge"><title>Node6&#45;&gt;Node8</title>
<path fill="none" stroke="midnightblue" d="M477.864,-19.0271C497.336,-16.8193 517.182,-14.569 532.694,-12.8102"/>
<polygon fill="midnightblue" stroke="midnightblue" points="533.141,-16.2821 542.683,-11.6777 532.352,-9.32665 533.141,-16.2821"/>
</g>
</g>
</svg>
