<?xml version="1.0" encoding="UTF-8" standalone="no"?>
<!DOCTYPE svg PUBLIC "-//W3C//DTD SVG 1.1//EN"
 "http://www.w3.org/Graphics/SVG/1.1/DTD/svg11.dtd">
<!-- Generated by graphviz version 2.38.0 (20140413.2041)
 -->
<!-- Title: libraries/AP_HAL_FLYMAPLE/FlymapleWirish.h Pages: 1 -->
<svg width="1827pt" height="102pt"
 viewBox="0.00 0.00 1827.21 102.00" xmlns="http://www.w3.org/2000/svg" xmlns:xlink="http://www.w3.org/1999/xlink">
<g id="graph0" class="graph" transform="scale(1 1) rotate(0) translate(4 98)">
<title>libraries/AP_HAL_FLYMAPLE/FlymapleWirish.h</title>
<polygon fill="white" stroke="none" points="-4,4 -4,-98 1823.21,-98 1823.21,4 -4,4"/>
<!-- Node1 -->
<g id="node1" class="node"><title>Node1</title>
<polygon fill="#bfbfbf" stroke="black" points="835,-65.5 835,-93.5 984.208,-93.5 984.208,-65.5 835,-65.5"/>
<text text-anchor="start" x="843" y="-81.5" font-family="Helvetica,sans-Serif" font-size="10.00">libraries/AP_HAL_FLYMAPLE</text>
<text text-anchor="middle" x="909.604" y="-71.5" font-family="Helvetica,sans-Serif" font-size="10.00">/FlymapleWirish.h</text>
</g>
<!-- Node2 -->
<g id="node2" class="node"><title>Node2</title>
<g id="a_node2"><a xlink:href="$FLYMAPLE_2AnalogIn_8cpp.html" xlink:title="libraries/AP_HAL_FLYMAPLE\l/AnalogIn.cpp">
<polygon fill="white" stroke="black" points="0,-0.5 0,-28.5 149.208,-28.5 149.208,-0.5 0,-0.5"/>
<text text-anchor="start" x="8" y="-16.5" font-family="Helvetica,sans-Serif" font-size="10.00">libraries/AP_HAL_FLYMAPLE</text>
<text text-anchor="middle" x="74.604" y="-6.5" font-family="Helvetica,sans-Serif" font-size="10.00">/AnalogIn.cpp</text>
</a>
</g>
</g>
<!-- Node1&#45;&gt;Node2 -->
<g id="edge1" class="edge"><title>Node1&#45;&gt;Node2</title>
<path fill="none" stroke="midnightblue" d="M824.748,-75.5571C685.214,-70.1256 398.726,-56.4816 157.604,-29 154.848,-28.6859 152.044,-28.344 149.214,-27.9803"/>
<polygon fill="midnightblue" stroke="midnightblue" points="824.817,-79.0623 834.945,-75.9496 825.087,-72.0675 824.817,-79.0623"/>
</g>
<!-- Node3 -->
<g id="node3" class="node"><title>Node3</title>
<g id="a_node3"><a xlink:href="$AnalogSource_8cpp.html" xlink:title="libraries/AP_HAL_FLYMAPLE\l/AnalogSource.cpp">
<polygon fill="white" stroke="black" points="167,-0.5 167,-28.5 316.208,-28.5 316.208,-0.5 167,-0.5"/>
<text text-anchor="start" x="175" y="-16.5" font-family="Helvetica,sans-Serif" font-size="10.00">libraries/AP_HAL_FLYMAPLE</text>
<text text-anchor="middle" x="241.604" y="-6.5" font-family="Helvetica,sans-Serif" font-size="10.00">/AnalogSource.cpp</text>
</a>
</g>
</g>
<!-- Node1&#45;&gt;Node3 -->
<g id="edge2" class="edge"><title>Node1&#45;&gt;Node3</title>
<path fill="none" stroke="midnightblue" d="M824.549,-73.3594C710.504,-65.9971 501.844,-50.8799 324.604,-29 321.851,-28.6602 319.05,-28.2964 316.222,-27.9141"/>
<polygon fill="midnightblue" stroke="midnightblue" points="824.41,-76.8575 834.613,-74.0048 824.858,-69.8719 824.41,-76.8575"/>
</g>
<!-- Node4 -->
<g id="node4" class="node"><title>Node4</title>
<g id="a_node4"><a xlink:href="$AP__HAL__FLYMAPLE_2GPIO_8cpp.html" xlink:title="libraries/AP_HAL_FLYMAPLE\l/GPIO.cpp">
<polygon fill="white" stroke="black" points="334,-0.5 334,-28.5 483.208,-28.5 483.208,-0.5 334,-0.5"/>
<text text-anchor="start" x="342" y="-16.5" font-family="Helvetica,sans-Serif" font-size="10.00">libraries/AP_HAL_FLYMAPLE</text>
<text text-anchor="middle" x="408.604" y="-6.5" font-family="Helvetica,sans-Serif" font-size="10.00">/GPIO.cpp</text>
</a>
</g>
</g>
<!-- Node1&#45;&gt;Node4 -->
<g id="edge3" class="edge"><title>Node1&#45;&gt;Node4</title>
<path fill="none" stroke="midnightblue" d="M824.66,-69.5329C740.105,-60.3499 606.691,-45.1662 491.604,-29 488.857,-28.6142 486.061,-28.2112 483.238,-27.7959"/>
<polygon fill="midnightblue" stroke="midnightblue" points="824.406,-73.0258 834.725,-70.6227 825.159,-66.0665 824.406,-73.0258"/>
</g>
<!-- Node5 -->
<g id="node5" class="node"><title>Node5</title>
<g id="a_node5"><a xlink:href="$AP__HAL__FLYMAPLE_2I2CDriver_8cpp.html" xlink:title="libraries/AP_HAL_FLYMAPLE\l/I2CDriver.cpp">
<polygon fill="white" stroke="black" points="501,-0.5 501,-28.5 650.208,-28.5 650.208,-0.5 501,-0.5"/>
<text text-anchor="start" x="509" y="-16.5" font-family="Helvetica,sans-Serif" font-size="10.00">libraries/AP_HAL_FLYMAPLE</text>
<text text-anchor="middle" x="575.604" y="-6.5" font-family="Helvetica,sans-Serif" font-size="10.00">/I2CDriver.cpp</text>
</a>
</g>
</g>
<!-- Node1&#45;&gt;Node5 -->
<g id="edge4" class="edge"><title>Node1&#45;&gt;Node5</title>
<path fill="none" stroke="midnightblue" d="M830.439,-63.5676C773.97,-52.9164 698.773,-38.7325 644.72,-28.5369"/>
<polygon fill="midnightblue" stroke="midnightblue" points="829.924,-67.0321 840.399,-65.4464 831.221,-60.1534 829.924,-67.0321"/>
</g>
<!-- Node6 -->
<g id="node6" class="node"><title>Node6</title>
<g id="a_node6"><a xlink:href="$FLYMAPLE_2RCInput_8cpp.html" xlink:title="libraries/AP_HAL_FLYMAPLE\l/RCInput.cpp">
<polygon fill="white" stroke="black" points="668,-0.5 668,-28.5 817.208,-28.5 817.208,-0.5 668,-0.5"/>
<text text-anchor="start" x="676" y="-16.5" font-family="Helvetica,sans-Serif" font-size="10.00">libraries/AP_HAL_FLYMAPLE</text>
<text text-anchor="middle" x="742.604" y="-6.5" font-family="Helvetica,sans-Serif" font-size="10.00">/RCInput.cpp</text>
</a>
</g>
</g>
<!-- Node1&#45;&gt;Node6 -->
<g id="edge5" class="edge"><title>Node1&#45;&gt;Node6</title>
<path fill="none" stroke="midnightblue" d="M865.565,-61.8864C837.923,-51.4588 802.79,-38.2048 777.162,-28.5369"/>
<polygon fill="midnightblue" stroke="midnightblue" points="864.41,-65.1914 875.001,-65.4464 866.881,-58.6419 864.41,-65.1914"/>
</g>
<!-- Node7 -->
<g id="node7" class="node"><title>Node7</title>
<g id="a_node7"><a xlink:href="$FLYMAPLE_2RCOutput_8cpp.html" xlink:title="libraries/AP_HAL_FLYMAPLE\l/RCOutput.cpp">
<polygon fill="white" stroke="black" points="835,-0.5 835,-28.5 984.208,-28.5 984.208,-0.5 835,-0.5"/>
<text text-anchor="start" x="843" y="-16.5" font-family="Helvetica,sans-Serif" font-size="10.00">libraries/AP_HAL_FLYMAPLE</text>
<text text-anchor="middle" x="909.604" y="-6.5" font-family="Helvetica,sans-Serif" font-size="10.00">/RCOutput.cpp</text>
</a>
</g>
</g>
<!-- Node1&#45;&gt;Node7 -->
<g id="edge6" class="edge"><title>Node1&#45;&gt;Node7</title>
<path fill="none" stroke="midnightblue" d="M909.604,-55.1641C909.604,-46.1693 909.604,-36.2205 909.604,-28.5369"/>
<polygon fill="midnightblue" stroke="midnightblue" points="906.104,-55.4463 909.604,-65.4464 913.104,-55.4464 906.104,-55.4463"/>
</g>
<!-- Node8 -->
<g id="node8" class="node"><title>Node8</title>
<g id="a_node8"><a xlink:href="$AP__HAL__FLYMAPLE_2Scheduler_8cpp.html" xlink:title="libraries/AP_HAL_FLYMAPLE\l/Scheduler.cpp">
<polygon fill="white" stroke="black" points="1002,-0.5 1002,-28.5 1151.21,-28.5 1151.21,-0.5 1002,-0.5"/>
<text text-anchor="start" x="1010" y="-16.5" font-family="Helvetica,sans-Serif" font-size="10.00">libraries/AP_HAL_FLYMAPLE</text>
<text text-anchor="middle" x="1076.6" y="-6.5" font-family="Helvetica,sans-Serif" font-size="10.00">/Scheduler.cpp</text>
</a>
</g>
</g>
<!-- Node1&#45;&gt;Node8 -->
<g id="edge7" class="edge"><title>Node1&#45;&gt;Node8</title>
<path fill="none" stroke="midnightblue" d="M953.643,-61.8864C981.285,-51.4588 1016.42,-38.2048 1042.05,-28.5369"/>
<polygon fill="midnightblue" stroke="midnightblue" points="952.327,-58.6419 944.207,-65.4464 954.798,-65.1914 952.327,-58.6419"/>
</g>
<!-- Node9 -->
<g id="node9" class="node"><title>Node9</title>
<g id="a_node9"><a xlink:href="$AP__HAL__FLYMAPLE_2Semaphores_8cpp.html" xlink:title="libraries/AP_HAL_FLYMAPLE\l/Semaphores.cpp">
<polygon fill="white" stroke="black" points="1169,-0.5 1169,-28.5 1318.21,-28.5 1318.21,-0.5 1169,-0.5"/>
<text text-anchor="start" x="1177" y="-16.5" font-family="Helvetica,sans-Serif" font-size="10.00">libraries/AP_HAL_FLYMAPLE</text>
<text text-anchor="middle" x="1243.6" y="-6.5" font-family="Helvetica,sans-Serif" font-size="10.00">/Semaphores.cpp</text>
</a>
</g>
</g>
<!-- Node1&#45;&gt;Node9 -->
<g id="edge8" class="edge"><title>Node1&#45;&gt;Node9</title>
<path fill="none" stroke="midnightblue" d="M988.769,-63.5676C1045.24,-52.9164 1120.43,-38.7325 1174.49,-28.5369"/>
<polygon fill="midnightblue" stroke="midnightblue" points="987.987,-60.1534 978.809,-65.4464 989.285,-67.0321 987.987,-60.1534"/>
</g>
<!-- Node10 -->
<g id="node10" class="node"><title>Node10</title>
<g id="a_node10"><a xlink:href="$AP__HAL__FLYMAPLE_2SPIDriver_8cpp.html" xlink:title="libraries/AP_HAL_FLYMAPLE\l/SPIDriver.cpp">
<polygon fill="white" stroke="black" points="1336,-0.5 1336,-28.5 1485.21,-28.5 1485.21,-0.5 1336,-0.5"/>
<text text-anchor="start" x="1344" y="-16.5" font-family="Helvetica,sans-Serif" font-size="10.00">libraries/AP_HAL_FLYMAPLE</text>
<text text-anchor="middle" x="1410.6" y="-6.5" font-family="Helvetica,sans-Serif" font-size="10.00">/SPIDriver.cpp</text>
</a>
</g>
</g>
<!-- Node1&#45;&gt;Node10 -->
<g id="edge9" class="edge"><title>Node1&#45;&gt;Node10</title>
<path fill="none" stroke="midnightblue" d="M994.548,-69.5329C1079.1,-60.3499 1212.52,-45.1662 1327.6,-29 1330.35,-28.6142 1333.15,-28.2112 1335.97,-27.7959"/>
<polygon fill="midnightblue" stroke="midnightblue" points="994.049,-66.0665 984.483,-70.6227 994.802,-73.0258 994.049,-66.0665"/>
</g>
<!-- Node11 -->
<g id="node11" class="node"><title>Node11</title>
<g id="a_node11"><a xlink:href="$FLYMAPLE_2Storage_8cpp.html" xlink:title="libraries/AP_HAL_FLYMAPLE\l/Storage.cpp">
<polygon fill="white" stroke="black" points="1503,-0.5 1503,-28.5 1652.21,-28.5 1652.21,-0.5 1503,-0.5"/>
<text text-anchor="start" x="1511" y="-16.5" font-family="Helvetica,sans-Serif" font-size="10.00">libraries/AP_HAL_FLYMAPLE</text>
<text text-anchor="middle" x="1577.6" y="-6.5" font-family="Helvetica,sans-Serif" font-size="10.00">/Storage.cpp</text>
</a>
</g>
</g>
<!-- Node1&#45;&gt;Node11 -->
<g id="edge10" class="edge"><title>Node1&#45;&gt;Node11</title>
<path fill="none" stroke="midnightblue" d="M994.659,-73.3594C1108.7,-65.9971 1317.36,-50.8799 1494.6,-29 1497.36,-28.6602 1500.16,-28.2964 1502.99,-27.9141"/>
<polygon fill="midnightblue" stroke="midnightblue" points="994.35,-69.8719 984.595,-74.0048 994.798,-76.8575 994.35,-69.8719"/>
</g>
<!-- Node12 -->
<g id="node12" class="node"><title>Node12</title>
<g id="a_node12"><a xlink:href="$FLYMAPLE_2UARTDriver_8cpp.html" xlink:title="libraries/AP_HAL_FLYMAPLE\l/UARTDriver.cpp">
<polygon fill="white" stroke="black" points="1670,-0.5 1670,-28.5 1819.21,-28.5 1819.21,-0.5 1670,-0.5"/>
<text text-anchor="start" x="1678" y="-16.5" font-family="Helvetica,sans-Serif" font-size="10.00">libraries/AP_HAL_FLYMAPLE</text>
<text text-anchor="middle" x="1744.6" y="-6.5" font-family="Helvetica,sans-Serif" font-size="10.00">/UARTDriver.cpp</text>
</a>
</g>
</g>
<!-- Node1&#45;&gt;Node12 -->
<g id="edge11" class="edge"><title>Node1&#45;&gt;Node12</title>
<path fill="none" stroke="midnightblue" d="M994.46,-75.5571C1133.99,-70.1256 1420.48,-56.4816 1661.6,-29 1664.36,-28.6859 1667.16,-28.344 1669.99,-27.9803"/>
<polygon fill="midnightblue" stroke="midnightblue" points="994.121,-72.0675 984.263,-75.9496 994.391,-79.0623 994.121,-72.0675"/>
</g>
</g>
</svg>
