<?xml version="1.0" encoding="UTF-8" standalone="no"?>
<!DOCTYPE svg PUBLIC "-//W3C//DTD SVG 1.1//EN"
 "http://www.w3.org/Graphics/SVG/1.1/DTD/svg11.dtd">
<!-- Generated by graphviz version 2.38.0 (20140413.2041)
 -->
<!-- Title: loop Pages: 1 -->
<svg width="599pt" height="175pt"
 viewBox="0.00 0.00 598.65 175.00" xmlns="http://www.w3.org/2000/svg" xmlns:xlink="http://www.w3.org/1999/xlink">
<g id="graph0" class="graph" transform="scale(1 1) rotate(0) translate(4 171)">
<title>loop</title>
<polygon fill="white" stroke="none" points="-4,4 -4,-171 594.65,-171 594.65,4 -4,4"/>
<!-- Node1 -->
<g id="node1" class="node"><title>Node1</title>
<polygon fill="#bfbfbf" stroke="black" points="0,-74.5 0,-92.5 34.9062,-92.5 34.9062,-74.5 0,-74.5"/>
<text text-anchor="middle" x="17.4531" y="-80.5" font-family="Helvetica,sans-Serif" font-size="10.00">loop</text>
</g>
<!-- Node2 -->
<g id="node2" class="node"><title>Node2</title>
<g id="a_node2"><a xlink:href="$classAP__HAL_1_1AnalogSource.html#a97f02eb815fd2f568df7b927d6f6b559" xlink:title="AP_HAL::AnalogSource\l::voltage_average">
<polygon fill="white" stroke="black" points="70.9062,-116.5 70.9062,-144.5 193.64,-144.5 193.64,-116.5 70.9062,-116.5"/>
<text text-anchor="start" x="78.9062" y="-132.5" font-family="Helvetica,sans-Serif" font-size="10.00">AP_HAL::AnalogSource</text>
<text text-anchor="middle" x="132.273" y="-122.5" font-family="Helvetica,sans-Serif" font-size="10.00">::voltage_average</text>
</a>
</g>
</g>
<!-- Node1&#45;&gt;Node2 -->
<g id="edge1" class="edge"><title>Node1&#45;&gt;Node2</title>
<path fill="none" stroke="midnightblue" d="M35.338,-91.5643C45.5592,-96.361 58.8979,-102.471 70.9062,-107.5 75.0329,-109.228 79.3392,-110.976 83.669,-112.696"/>
<polygon fill="midnightblue" stroke="midnightblue" points="82.5369,-116.011 93.1247,-116.397 85.0883,-109.493 82.5369,-116.011"/>
</g>
<!-- Node3 -->
<g id="node3" class="node"><title>Node3</title>
<g id="a_node3"><a xlink:href="$classAP__HAL_1_1UARTDriver.html#a65c7824b8877f7a2f79365c8ffae8f56" xlink:title="AP_HAL::UARTDriver\l::printf">
<polygon fill="white" stroke="black" points="75.4619,-69.5 75.4619,-97.5 189.084,-97.5 189.084,-69.5 75.4619,-69.5"/>
<text text-anchor="start" x="83.4619" y="-85.5" font-family="Helvetica,sans-Serif" font-size="10.00">AP_HAL::UARTDriver</text>
<text text-anchor="middle" x="132.273" y="-75.5" font-family="Helvetica,sans-Serif" font-size="10.00">::printf</text>
</a>
</g>
</g>
<!-- Node1&#45;&gt;Node3 -->
<g id="edge2" class="edge"><title>Node1&#45;&gt;Node3</title>
<path fill="none" stroke="midnightblue" d="M35.1001,-83.5C43.3595,-83.5 53.9329,-83.5 65.0302,-83.5"/>
<polygon fill="midnightblue" stroke="midnightblue" points="65.3175,-87.0001 75.3175,-83.5 65.3175,-80.0001 65.3175,-87.0001"/>
</g>
<!-- Node11 -->
<g id="node11" class="node"><title>Node11</title>
<g id="a_node11"><a xlink:href="$classAP__HAL_1_1Scheduler.html#ab3175e2e6223ccfe82f957e41cc12b26" xlink:title="AP_HAL::Scheduler::\ldelay">
<polygon fill="white" stroke="black" points="77.0244,-22.5 77.0244,-50.5 187.521,-50.5 187.521,-22.5 77.0244,-22.5"/>
<text text-anchor="start" x="85.0244" y="-38.5" font-family="Helvetica,sans-Serif" font-size="10.00">AP_HAL::Scheduler::</text>
<text text-anchor="middle" x="132.273" y="-28.5" font-family="Helvetica,sans-Serif" font-size="10.00">delay</text>
</a>
</g>
</g>
<!-- Node1&#45;&gt;Node11 -->
<g id="edge10" class="edge"><title>Node1&#45;&gt;Node11</title>
<path fill="none" stroke="midnightblue" d="M34.9267,-76.1009C45.2286,-71.5176 58.7958,-65.5607 70.9062,-60.5 75.7256,-58.4861 80.7769,-56.4154 85.8185,-54.3743"/>
<polygon fill="midnightblue" stroke="midnightblue" points="87.4646,-57.485 95.4383,-50.5086 84.8544,-50.9898 87.4646,-57.485"/>
</g>
<!-- Node4 -->
<g id="node4" class="node"><title>Node4</title>
<g id="a_node4"><a xlink:href="$classAP__HAL_1_1UARTDriver.html#aa8abfb6d6641299472c29ac1edde559f" xlink:title="AP_HAL::UARTDriver\l::vprintf">
<polygon fill="white" stroke="black" points="229.64,-69.5 229.64,-97.5 343.262,-97.5 343.262,-69.5 229.64,-69.5"/>
<text text-anchor="start" x="237.64" y="-85.5" font-family="Helvetica,sans-Serif" font-size="10.00">AP_HAL::UARTDriver</text>
<text text-anchor="middle" x="286.451" y="-75.5" font-family="Helvetica,sans-Serif" font-size="10.00">::vprintf</text>
</a>
</g>
</g>
<!-- Node3&#45;&gt;Node4 -->
<g id="edge3" class="edge"><title>Node3&#45;&gt;Node4</title>
<path fill="none" stroke="midnightblue" d="M189.506,-83.5C199.183,-83.5 209.321,-83.5 219.232,-83.5"/>
<polygon fill="midnightblue" stroke="midnightblue" points="219.449,-87.0001 229.449,-83.5 219.449,-80.0001 219.449,-87.0001"/>
</g>
<!-- Node5 -->
<g id="node5" class="node"><title>Node5</title>
<g id="a_node5"><a xlink:href="$print__vprintf_8cpp.html#a473b9349f4b086b552a21eb8fe057016" xlink:title="print_vprintf">
<polygon fill="white" stroke="black" points="379.262,-74.5 379.262,-92.5 447.508,-92.5 447.508,-74.5 379.262,-74.5"/>
<text text-anchor="middle" x="413.385" y="-80.5" font-family="Helvetica,sans-Serif" font-size="10.00">print_vprintf</text>
</a>
</g>
</g>
<!-- Node4&#45;&gt;Node5 -->
<g id="edge4" class="edge"><title>Node4&#45;&gt;Node5</title>
<path fill="none" stroke="midnightblue" d="M343.34,-83.5C351.928,-83.5 360.684,-83.5 368.949,-83.5"/>
<polygon fill="midnightblue" stroke="midnightblue" points="369.105,-87.0001 379.105,-83.5 369.105,-80.0001 369.105,-87.0001"/>
</g>
<!-- Node6 -->
<g id="node6" class="node"><title>Node6</title>
<g id="a_node6"><a xlink:href="$classAP__HAL_1_1Print.html#acc65391952a43334f8f5c9bef341f501" xlink:title="AP_HAL::Print::write">
<polygon fill="white" stroke="black" points="483.508,-148.5 483.508,-166.5 590.65,-166.5 590.65,-148.5 483.508,-148.5"/>
<text text-anchor="middle" x="537.079" y="-154.5" font-family="Helvetica,sans-Serif" font-size="10.00">AP_HAL::Print::write</text>
</a>
</g>
</g>
<!-- Node5&#45;&gt;Node6 -->
<g id="edge5" class="edge"><title>Node5&#45;&gt;Node6</title>
<path fill="none" stroke="midnightblue" d="M423.449,-92.6327C435.971,-104.806 459.724,-126.34 483.508,-139.5 486.97,-141.416 490.672,-143.18 494.449,-144.791"/>
<polygon fill="midnightblue" stroke="midnightblue" points="493.307,-148.103 503.895,-148.483 495.855,-141.583 493.307,-148.103"/>
</g>
<!-- Node7 -->
<g id="node7" class="node"><title>Node7</title>
<g id="a_node7"><a xlink:href="$ftoa__engine_8cpp.html#a1c28234da8f20b43c85890d4bb452947" xlink:title="ftoa_engine">
<polygon fill="white" stroke="black" points="502.944,-111.5 502.944,-129.5 571.214,-129.5 571.214,-111.5 502.944,-111.5"/>
<text text-anchor="middle" x="537.079" y="-117.5" font-family="Helvetica,sans-Serif" font-size="10.00">ftoa_engine</text>
</a>
</g>
</g>
<!-- Node5&#45;&gt;Node7 -->
<g id="edge6" class="edge"><title>Node5&#45;&gt;Node7</title>
<path fill="none" stroke="midnightblue" d="M444.155,-92.5512C459.919,-97.3442 479.487,-103.294 496.512,-108.47"/>
<polygon fill="midnightblue" stroke="midnightblue" points="495.609,-111.854 506.195,-111.414 497.645,-105.156 495.609,-111.854"/>
</g>
<!-- Node8 -->
<g id="node8" class="node"><title>Node8</title>
<g id="a_node8"><a xlink:href="$AP__Progmem_8h.html#a1514e0408e036062b4af844baaf567da" xlink:title="pgm_read_byte">
<polygon fill="white" stroke="black" points="494.333,-74.5 494.333,-92.5 579.825,-92.5 579.825,-74.5 494.333,-74.5"/>
<text text-anchor="middle" x="537.079" y="-80.5" font-family="Helvetica,sans-Serif" font-size="10.00">pgm_read_byte</text>
</a>
</g>
</g>
<!-- Node5&#45;&gt;Node8 -->
<g id="edge7" class="edge"><title>Node5&#45;&gt;Node8</title>
<path fill="none" stroke="midnightblue" d="M447.638,-83.5C458.854,-83.5 471.657,-83.5 483.972,-83.5"/>
<polygon fill="midnightblue" stroke="midnightblue" points="484.156,-87.0001 494.156,-83.5 484.156,-80.0001 484.156,-87.0001"/>
</g>
<!-- Node9 -->
<g id="node9" class="node"><title>Node9</title>
<g id="a_node9"><a xlink:href="$utoa__invert_8cpp.html#a34926f552460b47c414ec4d83b32815c" xlink:title="ulltoa_invert">
<polygon fill="white" stroke="black" points="502.119,-37.5 502.119,-55.5 572.04,-55.5 572.04,-37.5 502.119,-37.5"/>
<text text-anchor="middle" x="537.079" y="-43.5" font-family="Helvetica,sans-Serif" font-size="10.00">ulltoa_invert</text>
</a>
</g>
</g>
<!-- Node5&#45;&gt;Node9 -->
<g id="edge8" class="edge"><title>Node5&#45;&gt;Node9</title>
<path fill="none" stroke="midnightblue" d="M444.155,-74.4488C459.919,-69.6558 479.487,-63.7062 496.512,-58.5298"/>
<polygon fill="midnightblue" stroke="midnightblue" points="497.645,-61.8437 506.195,-55.586 495.609,-55.1464 497.645,-61.8437"/>
</g>
<!-- Node10 -->
<g id="node10" class="node"><title>Node10</title>
<g id="a_node10"><a xlink:href="$utoa__invert_8cpp.html#a5d99bba8e697c1e11da489d88fca8559" xlink:title="ultoa_invert">
<polygon fill="white" stroke="black" points="503.229,-0.5 503.229,-18.5 570.929,-18.5 570.929,-0.5 503.229,-0.5"/>
<text text-anchor="middle" x="537.079" y="-6.5" font-family="Helvetica,sans-Serif" font-size="10.00">ultoa_invert</text>
</a>
</g>
</g>
<!-- Node5&#45;&gt;Node10 -->
<g id="edge9" class="edge"><title>Node5&#45;&gt;Node10</title>
<path fill="none" stroke="midnightblue" d="M423.947,-74.1918C436.651,-62.2457 460.212,-41.514 483.508,-28.5 487.524,-26.2563 491.856,-24.192 496.248,-22.3176"/>
<polygon fill="midnightblue" stroke="midnightblue" points="497.846,-25.4496 505.862,-18.5217 495.276,-18.9387 497.846,-25.4496"/>
</g>
</g>
</svg>
