<?xml version="1.0" encoding="UTF-8" standalone="no"?>
<!DOCTYPE svg PUBLIC "-//W3C//DTD SVG 1.1//EN"
 "http://www.w3.org/Graphics/SVG/1.1/DTD/svg11.dtd">
<!-- Generated by graphviz version 2.38.0 (20140413.2041)
 -->
<!-- Title: libraries/AP_HAL_FLYMAPLE/Storage.cpp Pages: 1 -->
<svg width="1555pt" height="697pt"
 viewBox="0.00 0.00 1555.41 697.00" xmlns="http://www.w3.org/2000/svg" xmlns:xlink="http://www.w3.org/1999/xlink">
<g id="graph0" class="graph" transform="scale(1 1) rotate(0) translate(4 693)">
<title>libraries/AP_HAL_FLYMAPLE/Storage.cpp</title>
<polygon fill="white" stroke="none" points="-4,4 -4,-693 1551.41,-693 1551.41,4 -4,4"/>
<!-- Node1 -->
<g id="node1" class="node"><title>Node1</title>
<polygon fill="#bfbfbf" stroke="black" points="1241.19,-660.5 1241.19,-688.5 1390.4,-688.5 1390.4,-660.5 1241.19,-660.5"/>
<text text-anchor="start" x="1249.19" y="-676.5" font-family="Helvetica,sans-Serif" font-size="10.00">libraries/AP_HAL_FLYMAPLE</text>
<text text-anchor="middle" x="1315.79" y="-666.5" font-family="Helvetica,sans-Serif" font-size="10.00">/Storage.cpp</text>
</g>
<!-- Node2 -->
<g id="node2" class="node"><title>Node2</title>
<g id="a_node2"><a xlink:href="$AP__HAL_8h.html" xlink:title="AP_HAL/AP_HAL.h">
<polygon fill="white" stroke="black" points="697.877,-440.5 697.877,-458.5 801.705,-458.5 801.705,-440.5 697.877,-440.5"/>
<text text-anchor="middle" x="749.791" y="-446.5" font-family="Helvetica,sans-Serif" font-size="10.00">AP_HAL/AP_HAL.h</text>
</a>
</g>
</g>
<!-- Node1&#45;&gt;Node2 -->
<g id="edge1" class="edge"><title>Node1&#45;&gt;Node2</title>
<path fill="none" stroke="midnightblue" d="M1240.83,-664.868C1120.84,-649.85 892.46,-615.966 826.791,-569 790.484,-543.033 766.892,-494.125 756.28,-467.997"/>
<polygon fill="midnightblue" stroke="midnightblue" points="759.519,-466.668 752.634,-458.615 752.994,-469.204 759.519,-466.668"/>
</g>
<!-- Node6 -->
<g id="node6" class="node"><title>Node6</title>
<polygon fill="white" stroke="#bfbfbf" points="1241.39,-0.5 1241.39,-18.5 1290.19,-18.5 1290.19,-0.5 1241.39,-0.5"/>
<text text-anchor="middle" x="1265.79" y="-6.5" font-family="Helvetica,sans-Serif" font-size="10.00">string.h</text>
</g>
<!-- Node1&#45;&gt;Node6 -->
<g id="edge68" class="edge"><title>Node1&#45;&gt;Node6</title>
<path fill="none" stroke="midnightblue" d="M1315.79,-660.279C1315.79,-639.181 1315.79,-596.597 1315.79,-560.5 1315.79,-560.5 1315.79,-560.5 1315.79,-118.5 1315.79,-83.202 1293.52,-46.9194 1278.71,-26.6855"/>
<polygon fill="midnightblue" stroke="midnightblue" points="1281.38,-24.4128 1272.53,-18.5793 1275.81,-28.6549 1281.38,-24.4128"/>
</g>
<!-- Node30 -->
<g id="node30" class="node"><title>Node30</title>
<g id="a_node30"><a xlink:href="$FLYMAPLE_2Storage_8h.html" xlink:title="Storage.h">
<polygon fill="white" stroke="black" points="1054.11,-605.5 1054.11,-623.5 1113.47,-623.5 1113.47,-605.5 1054.11,-605.5"/>
<text text-anchor="middle" x="1083.79" y="-611.5" font-family="Helvetica,sans-Serif" font-size="10.00">Storage.h</text>
</a>
</g>
</g>
<!-- Node1&#45;&gt;Node30 -->
<g id="edge69" class="edge"><title>Node1&#45;&gt;Node30</title>
<path fill="none" stroke="midnightblue" d="M1263.73,-660.484C1221.29,-649.876 1162.26,-635.118 1123.56,-625.441"/>
<polygon fill="midnightblue" stroke="midnightblue" points="1124.24,-622.005 1113.69,-622.975 1122.54,-628.796 1124.24,-622.005"/>
</g>
<!-- Node34 -->
<g id="node34" class="node"><title>Node34</title>
<g id="a_node34"><a xlink:href="$FlymapleWirish_8h.html" xlink:title="FlymapleWirish.h">
<polygon fill="white" stroke="black" points="1343.45,-605.5 1343.45,-623.5 1436.13,-623.5 1436.13,-605.5 1343.45,-605.5"/>
<text text-anchor="middle" x="1389.79" y="-611.5" font-family="Helvetica,sans-Serif" font-size="10.00">FlymapleWirish.h</text>
</a>
</g>
</g>
<!-- Node1&#45;&gt;Node34 -->
<g id="edge75" class="edge"><title>Node1&#45;&gt;Node34</title>
<path fill="none" stroke="midnightblue" d="M1332.58,-660.339C1344.11,-651.302 1359.42,-639.306 1371.3,-629.995"/>
<polygon fill="midnightblue" stroke="midnightblue" points="1373.53,-632.695 1379.24,-623.771 1369.21,-627.186 1373.53,-632.695"/>
</g>
<!-- Node36 -->
<g id="node36" class="node"><title>Node36</title>
<g id="a_node36"><a xlink:href="$EEPROM_8h.html" xlink:title="utility/EEPROM.h">
<polygon fill="white" stroke="black" points="1454.17,-605.5 1454.17,-623.5 1547.41,-623.5 1547.41,-605.5 1454.17,-605.5"/>
<text text-anchor="middle" x="1500.79" y="-611.5" font-family="Helvetica,sans-Serif" font-size="10.00">utility/EEPROM.h</text>
</a>
</g>
</g>
<!-- Node1&#45;&gt;Node36 -->
<g id="edge77" class="edge"><title>Node1&#45;&gt;Node36</title>
<path fill="none" stroke="midnightblue" d="M1357.31,-660.484C1389.76,-650.311 1434.37,-636.323 1465.2,-626.659"/>
<polygon fill="midnightblue" stroke="midnightblue" points="1466.59,-629.89 1475.09,-623.559 1464.5,-623.211 1466.59,-629.89"/>
</g>
<!-- Node3 -->
<g id="node3" class="node"><title>Node3</title>
<polygon fill="white" stroke="#bfbfbf" points="382.67,-110.5 382.67,-128.5 430.912,-128.5 430.912,-110.5 382.67,-110.5"/>
<text text-anchor="middle" x="406.791" y="-116.5" font-family="Helvetica,sans-Serif" font-size="10.00">stdint.h</text>
</g>
<!-- Node2&#45;&gt;Node3 -->
<g id="edge2" class="edge"><title>Node2&#45;&gt;Node3</title>
<path fill="none" stroke="midnightblue" d="M697.561,-446.424C582.396,-440.425 316.791,-418.17 316.791,-340.5 316.791,-340.5 316.791,-340.5 316.791,-228.5 316.791,-186.398 357.655,-151.998 384.312,-134.037"/>
<polygon fill="midnightblue" stroke="midnightblue" points="386.236,-136.961 392.729,-128.588 382.432,-131.085 386.236,-136.961"/>
</g>
<!-- Node4 -->
<g id="node4" class="node"><title>Node4</title>
<polygon fill="white" stroke="#bfbfbf" points="270.498,-110.5 270.498,-128.5 327.084,-128.5 327.084,-110.5 270.498,-110.5"/>
<text text-anchor="middle" x="298.791" y="-116.5" font-family="Helvetica,sans-Serif" font-size="10.00">stdbool.h</text>
</g>
<!-- Node2&#45;&gt;Node4 -->
<g id="edge3" class="edge"><title>Node2&#45;&gt;Node4</title>
<path fill="none" stroke="midnightblue" d="M697.592,-448.963C560.664,-449.557 193.998,-446.967 81.7911,-404 39.0721,-387.642 0.791065,-386.244 0.791065,-340.5 0.791065,-340.5 0.791065,-340.5 0.791065,-228.5 0.791065,-199.042 -2.3732,-184.405 19.7911,-165 54.9091,-134.254 192.012,-124.628 260.053,-121.713"/>
<polygon fill="midnightblue" stroke="midnightblue" points="260.502,-125.198 270.354,-121.301 260.222,-118.204 260.502,-125.198"/>
</g>
<!-- Node5 -->
<g id="node5" class="node"><title>Node5</title>
<g id="a_node5"><a xlink:href="$AP__HAL__Namespace_8h.html" xlink:title="AP_HAL_Namespace.h">
<polygon fill="white" stroke="black" points="799.983,-55.5 799.983,-73.5 921.599,-73.5 921.599,-55.5 799.983,-55.5"/>
<text text-anchor="middle" x="860.791" y="-61.5" font-family="Helvetica,sans-Serif" font-size="10.00">AP_HAL_Namespace.h</text>
</a>
</g>
</g>
<!-- Node2&#45;&gt;Node5 -->
<g id="edge4" class="edge"><title>Node2&#45;&gt;Node5</title>
<path fill="none" stroke="midnightblue" d="M802.024,-441.142C804.989,-440.749 807.927,-440.366 810.791,-440 907.866,-427.602 1239.79,-438.364 1239.79,-340.5 1239.79,-340.5 1239.79,-340.5 1239.79,-228.5 1239.79,-166.408 1221.29,-137.851 1165.79,-110 1125.97,-90.015 1008.9,-77.2006 931.93,-70.6843"/>
<polygon fill="midnightblue" stroke="midnightblue" points="932.071,-67.1841 921.816,-69.8446 931.492,-74.1601 932.071,-67.1841"/>
</g>
<!-- Node8 -->
<g id="node8" class="node"><title>Node8</title>
<g id="a_node8"><a xlink:href="$AP__HAL__Boards_8h.html" xlink:title="AP_HAL_Boards.h">
<polygon fill="white" stroke="black" points="28.8209,-165.5 28.8209,-183.5 128.761,-183.5 128.761,-165.5 28.8209,-165.5"/>
<text text-anchor="middle" x="78.7911" y="-171.5" font-family="Helvetica,sans-Serif" font-size="10.00">AP_HAL_Boards.h</text>
</a>
</g>
</g>
<!-- Node2&#45;&gt;Node8 -->
<g id="edge7" class="edge"><title>Node2&#45;&gt;Node8</title>
<path fill="none" stroke="midnightblue" d="M697.777,-448.211C552.232,-446.949 148.421,-440.189 101.791,-404 78.3079,-385.775 80.7911,-370.225 80.7911,-340.5 80.7911,-340.5 80.7911,-340.5 80.7911,-283.5 80.7911,-252.012 79.9307,-215.369 79.3386,-193.879"/>
<polygon fill="midnightblue" stroke="midnightblue" points="82.8299,-193.523 79.0444,-183.628 75.8328,-193.724 82.8299,-193.523"/>
</g>
<!-- Node9 -->
<g id="node9" class="node"><title>Node9</title>
<g id="a_node9"><a xlink:href="$AP__HAL__Macros_8h.html" xlink:title="AP_HAL_Macros.h">
<polygon fill="white" stroke="black" points="111.272,-385.5 111.272,-403.5 212.311,-403.5 212.311,-385.5 111.272,-385.5"/>
<text text-anchor="middle" x="161.791" y="-391.5" font-family="Helvetica,sans-Serif" font-size="10.00">AP_HAL_Macros.h</text>
</a>
</g>
</g>
<!-- Node2&#45;&gt;Node9 -->
<g id="edge8" class="edge"><title>Node2&#45;&gt;Node9</title>
<path fill="none" stroke="midnightblue" d="M697.754,-444.854C603.642,-438.087 398.933,-422.569 226.791,-404 225.486,-403.859 224.167,-403.714 222.838,-403.565"/>
<polygon fill="midnightblue" stroke="midnightblue" points="222.846,-400.042 212.507,-402.357 222.033,-406.995 222.846,-400.042"/>
</g>
<!-- Node10 -->
<g id="node10" class="node"><title>Node10</title>
<g id="a_node10"><a xlink:href="$AP__HAL__Main_8h.html" xlink:title="AP_HAL_Main.h">
<polygon fill="white" stroke="black" points="704.826,-385.5 704.826,-403.5 794.756,-403.5 794.756,-385.5 704.826,-385.5"/>
<text text-anchor="middle" x="749.791" y="-391.5" font-family="Helvetica,sans-Serif" font-size="10.00">AP_HAL_Main.h</text>
</a>
</g>
</g>
<!-- Node2&#45;&gt;Node10 -->
<g id="edge9" class="edge"><title>Node2&#45;&gt;Node10</title>
<path fill="none" stroke="midnightblue" d="M749.791,-440.219C749.791,-433.177 749.791,-422.808 749.791,-413.828"/>
<polygon fill="midnightblue" stroke="midnightblue" points="753.291,-413.55 749.791,-403.55 746.291,-413.55 753.291,-413.55"/>
</g>
<!-- Node11 -->
<g id="node11" class="node"><title>Node11</title>
<g id="a_node11"><a xlink:href="$HAL_8h.html" xlink:title="HAL.h">
<polygon fill="white" stroke="black" points="679.895,-330.5 679.895,-348.5 723.688,-348.5 723.688,-330.5 679.895,-330.5"/>
<text text-anchor="middle" x="701.791" y="-336.5" font-family="Helvetica,sans-Serif" font-size="10.00">HAL.h</text>
</a>
</g>
</g>
<!-- Node2&#45;&gt;Node11 -->
<g id="edge67" class="edge"><title>Node2&#45;&gt;Node11</title>
<path fill="none" stroke="midnightblue" d="M733.682,-440.407C720.769,-432.926 703.565,-420.481 695.791,-404 689.074,-389.76 691.669,-371.749 695.305,-358.549"/>
<polygon fill="midnightblue" stroke="midnightblue" points="698.716,-359.372 698.422,-348.781 692.047,-357.244 698.716,-359.372"/>
</g>
<!-- Node12 -->
<g id="node12" class="node"><title>Node12</title>
<g id="a_node12"><a xlink:href="$AnalogIn_8h.html" xlink:title="AnalogIn.h">
<polygon fill="white" stroke="black" points="888.882,-220.5 888.882,-238.5 952.7,-238.5 952.7,-220.5 888.882,-220.5"/>
<text text-anchor="middle" x="920.791" y="-226.5" font-family="Helvetica,sans-Serif" font-size="10.00">AnalogIn.h</text>
</a>
</g>
</g>
<!-- Node2&#45;&gt;Node12 -->
<g id="edge49" class="edge"><title>Node2&#45;&gt;Node12</title>
<path fill="none" stroke="midnightblue" d="M774.07,-440.358C793.557,-432.994 820.857,-420.736 840.791,-404 887.088,-365.13 902.097,-351.488 920.791,-294 925.59,-279.242 925.111,-261.515 923.708,-248.545"/>
<polygon fill="midnightblue" stroke="midnightblue" points="927.167,-248.002 922.346,-238.567 920.231,-248.949 927.167,-248.002"/>
</g>
<!-- Node14 -->
<g id="node14" class="node"><title>Node14</title>
<g id="a_node14"><a xlink:href="$GPIO_8h.html" xlink:title="GPIO.h">
<polygon fill="white" stroke="black" points="353.119,-220.5 353.119,-238.5 402.463,-238.5 402.463,-220.5 353.119,-220.5"/>
<text text-anchor="middle" x="377.791" y="-226.5" font-family="Helvetica,sans-Serif" font-size="10.00">GPIO.h</text>
</a>
</g>
</g>
<!-- Node2&#45;&gt;Node14 -->
<g id="edge51" class="edge"><title>Node2&#45;&gt;Node14</title>
<path fill="none" stroke="midnightblue" d="M710.989,-440.464C641.943,-424.297 496.931,-381.644 410.791,-294 398.147,-281.135 389.23,-262.438 383.88,-248.662"/>
<polygon fill="midnightblue" stroke="midnightblue" points="387.036,-247.094 380.351,-238.874 380.451,-249.469 387.036,-247.094"/>
</g>
<!-- Node15 -->
<g id="node15" class="node"><title>Node15</title>
<g id="a_node15"><a xlink:href="$RCInput_8h.html" xlink:title="RCInput.h">
<polygon fill="white" stroke="black" points="830.279,-275.5 830.279,-293.5 891.303,-293.5 891.303,-275.5 830.279,-275.5"/>
<text text-anchor="middle" x="860.791" y="-281.5" font-family="Helvetica,sans-Serif" font-size="10.00">RCInput.h</text>
</a>
</g>
</g>
<!-- Node2&#45;&gt;Node15 -->
<g id="edge52" class="edge"><title>Node2&#45;&gt;Node15</title>
<path fill="none" stroke="midnightblue" d="M769.916,-440.446C785.805,-433.132 807.451,-420.899 820.791,-404 844.6,-373.838 854.607,-328.748 858.516,-303.783"/>
<polygon fill="midnightblue" stroke="midnightblue" points="862.024,-303.964 859.945,-293.575 855.092,-302.993 862.024,-303.964"/>
</g>
<!-- Node16 -->
<g id="node16" class="node"><title>Node16</title>
<g id="a_node16"><a xlink:href="$RCOutput_8h.html" xlink:title="RCOutput.h">
<polygon fill="white" stroke="black" points="743.39,-275.5 743.39,-293.5 812.192,-293.5 812.192,-275.5 743.39,-275.5"/>
<text text-anchor="middle" x="777.791" y="-281.5" font-family="Helvetica,sans-Serif" font-size="10.00">RCOutput.h</text>
</a>
</g>
</g>
<!-- Node2&#45;&gt;Node16 -->
<g id="edge53" class="edge"><title>Node2&#45;&gt;Node16</title>
<path fill="none" stroke="midnightblue" d="M765.9,-440.407C778.814,-432.926 796.017,-420.481 803.791,-404 819.752,-370.164 801.047,-326.233 788.098,-302.506"/>
<polygon fill="midnightblue" stroke="midnightblue" points="791.034,-300.59 783.018,-293.662 784.964,-304.077 791.034,-300.59"/>
</g>
<!-- Node17 -->
<g id="node17" class="node"><title>Node17</title>
<g id="a_node17"><a xlink:href="$SPIDriver_8h.html" xlink:title="SPIDriver.h">
<polygon fill="white" stroke="black" points="621.503,-275.5 621.503,-293.5 688.079,-293.5 688.079,-275.5 621.503,-275.5"/>
<text text-anchor="middle" x="654.791" y="-281.5" font-family="Helvetica,sans-Serif" font-size="10.00">SPIDriver.h</text>
</a>
</g>
</g>
<!-- Node2&#45;&gt;Node17 -->
<g id="edge48" class="edge"><title>Node2&#45;&gt;Node17</title>
<path fill="none" stroke="midnightblue" d="M732.956,-440.377C718.951,-432.801 699.481,-420.236 687.791,-404 665.708,-373.329 658.386,-328.433 655.971,-303.637"/>
<polygon fill="midnightblue" stroke="midnightblue" points="659.446,-303.191 655.153,-293.505 652.469,-303.754 659.446,-303.191"/>
</g>
<!-- Node18 -->
<g id="node18" class="node"><title>Node18</title>
<g id="a_node18"><a xlink:href="$Storage_8h.html" xlink:title="Storage.h">
<polygon fill="white" stroke="black" points="449.109,-275.5 449.109,-293.5 508.473,-293.5 508.473,-275.5 449.109,-275.5"/>
<text text-anchor="middle" x="478.791" y="-281.5" font-family="Helvetica,sans-Serif" font-size="10.00">Storage.h</text>
</a>
</g>
</g>
<!-- Node2&#45;&gt;Node18 -->
<g id="edge50" class="edge"><title>Node2&#45;&gt;Node18</title>
<path fill="none" stroke="midnightblue" d="M728.324,-440.448C707.472,-432.304 675.185,-418.829 648.791,-404 590.554,-371.281 527.368,-323.688 497.046,-300.008"/>
<polygon fill="midnightblue" stroke="midnightblue" points="499.088,-297.161 489.064,-293.732 494.762,-302.664 499.088,-297.161"/>
</g>
<!-- Node19 -->
<g id="node19" class="node"><title>Node19</title>
<g id="a_node19"><a xlink:href="$UARTDriver_8h.html" xlink:title="UARTDriver.h">
<polygon fill="white" stroke="black" points="526.039,-275.5 526.039,-293.5 603.543,-293.5 603.543,-275.5 526.039,-275.5"/>
<text text-anchor="middle" x="564.791" y="-281.5" font-family="Helvetica,sans-Serif" font-size="10.00">UARTDriver.h</text>
</a>
</g>
</g>
<!-- Node2&#45;&gt;Node19 -->
<g id="edge44" class="edge"><title>Node2&#45;&gt;Node19</title>
<path fill="none" stroke="midnightblue" d="M732.869,-440.441C716.831,-432.389 692.481,-419.065 673.791,-404 634.424,-372.268 596.268,-326.214 577.268,-301.922"/>
<polygon fill="midnightblue" stroke="midnightblue" points="579.842,-299.529 570.961,-293.752 574.301,-303.807 579.842,-299.529"/>
</g>
<!-- Node22 -->
<g id="node22" class="node"><title>Node22</title>
<g id="a_node22"><a xlink:href="$BetterStream_8h.html" xlink:title="utility/BetterStream.h">
<polygon fill="white" stroke="black" points="1008.38,-220.5 1008.38,-238.5 1117.2,-238.5 1117.2,-220.5 1008.38,-220.5"/>
<text text-anchor="middle" x="1062.79" y="-226.5" font-family="Helvetica,sans-Serif" font-size="10.00">utility/BetterStream.h</text>
</a>
</g>
</g>
<!-- Node2&#45;&gt;Node22 -->
<g id="edge66" class="edge"><title>Node2&#45;&gt;Node22</title>
<path fill="none" stroke="midnightblue" d="M801.009,-440.452C855.419,-431.468 937.545,-416.546 966.791,-404 1006.11,-387.134 1023.34,-385.416 1045.79,-349 1065,-317.845 1065.83,-273.475 1064.47,-248.816"/>
<polygon fill="midnightblue" stroke="midnightblue" points="1067.95,-248.43 1063.73,-238.715 1060.97,-248.945 1067.95,-248.43"/>
</g>
<!-- Node24 -->
<g id="node24" class="node"><title>Node24</title>
<g id="a_node24"><a xlink:href="$Stream_8h.html" xlink:title="Stream.h">
<polygon fill="white" stroke="black" points="1155.51,-165.5 1155.51,-183.5 1212.08,-183.5 1212.08,-165.5 1155.51,-165.5"/>
<text text-anchor="middle" x="1183.79" y="-171.5" font-family="Helvetica,sans-Serif" font-size="10.00">Stream.h</text>
</a>
</g>
</g>
<!-- Node2&#45;&gt;Node24 -->
<g id="edge65" class="edge"><title>Node2&#45;&gt;Node24</title>
<path fill="none" stroke="midnightblue" d="M802.012,-440.84C877.381,-429.695 1010.04,-409.716 1031.79,-404 1109.8,-383.5 1201.79,-421.154 1201.79,-340.5 1201.79,-340.5 1201.79,-340.5 1201.79,-283.5 1201.79,-251.436 1193.98,-214.736 1188.64,-193.431"/>
<polygon fill="midnightblue" stroke="midnightblue" points="1191.98,-192.347 1186.07,-183.552 1185.21,-194.112 1191.98,-192.347"/>
</g>
<!-- Node25 -->
<g id="node25" class="node"><title>Node25</title>
<g id="a_node25"><a xlink:href="$Print_8h.html" xlink:title="Print.h">
<polygon fill="white" stroke="black" points="1243.34,-110.5 1243.34,-128.5 1288.24,-128.5 1288.24,-110.5 1243.34,-110.5"/>
<text text-anchor="middle" x="1265.79" y="-116.5" font-family="Helvetica,sans-Serif" font-size="10.00">Print.h</text>
</a>
</g>
</g>
<!-- Node2&#45;&gt;Node25 -->
<g id="edge64" class="edge"><title>Node2&#45;&gt;Node25</title>
<path fill="none" stroke="midnightblue" d="M802.01,-441.023C804.979,-440.66 807.921,-440.316 810.791,-440 859.878,-434.59 1214.34,-433.7 1253.79,-404 1277.9,-385.855 1277.79,-370.671 1277.79,-340.5 1277.79,-340.5 1277.79,-340.5 1277.79,-228.5 1277.79,-196.677 1272.58,-159.901 1269.03,-138.516"/>
<polygon fill="midnightblue" stroke="midnightblue" points="1272.46,-137.852 1267.31,-128.595 1265.57,-139.045 1272.46,-137.852"/>
</g>
<!-- Node26 -->
<g id="node26" class="node"><title>Node26</title>
<g id="a_node26"><a xlink:href="$I2CDriver_8h.html" xlink:title="I2CDriver.h">
<polygon fill="white" stroke="black" points="222.781,-165.5 222.781,-183.5 288.801,-183.5 288.801,-165.5 222.781,-165.5"/>
<text text-anchor="middle" x="255.791" y="-171.5" font-family="Helvetica,sans-Serif" font-size="10.00">I2CDriver.h</text>
</a>
</g>
</g>
<!-- Node2&#45;&gt;Node26 -->
<g id="edge45" class="edge"><title>Node2&#45;&gt;Node26</title>
<path fill="none" stroke="midnightblue" d="M697.757,-446.376C586.606,-441.405 333.576,-427.614 302.791,-404 278.852,-385.637 278.791,-370.671 278.791,-340.5 278.791,-340.5 278.791,-340.5 278.791,-283.5 278.791,-251.014 268.713,-214.212 261.899,-193.044"/>
<polygon fill="midnightblue" stroke="midnightblue" points="265.199,-191.875 258.704,-183.504 258.561,-194.098 265.199,-191.875"/>
</g>
<!-- Node27 -->
<g id="node27" class="node"><title>Node27</title>
<g id="a_node27"><a xlink:href="$Scheduler_8h.html" xlink:title="Scheduler.h">
<polygon fill="white" stroke="black" points="160.38,-220.5 160.38,-238.5 229.202,-238.5 229.202,-220.5 160.38,-220.5"/>
<text text-anchor="middle" x="194.791" y="-226.5" font-family="Helvetica,sans-Serif" font-size="10.00">Scheduler.h</text>
</a>
</g>
</g>
<!-- Node2&#45;&gt;Node27 -->
<g id="edge54" class="edge"><title>Node2&#45;&gt;Node27</title>
<path fill="none" stroke="midnightblue" d="M697.854,-446.764C579.822,-442.392 298.971,-429.417 264.791,-404 213.99,-366.224 199.968,-285.399 196.169,-248.973"/>
<polygon fill="midnightblue" stroke="midnightblue" points="199.637,-248.466 195.261,-238.818 192.665,-249.09 199.637,-248.466"/>
</g>
<!-- Node28 -->
<g id="node28" class="node"><title>Node28</title>
<g id="a_node28"><a xlink:href="$Semaphores_8h.html" xlink:title="Semaphores.h">
<polygon fill="white" stroke="black" points="955.272,-330.5 955.272,-348.5 1036.31,-348.5 1036.31,-330.5 955.272,-330.5"/>
<text text-anchor="middle" x="995.791" y="-336.5" font-family="Helvetica,sans-Serif" font-size="10.00">Semaphores.h</text>
</a>
</g>
</g>
<!-- Node2&#45;&gt;Node28 -->
<g id="edge59" class="edge"><title>Node2&#45;&gt;Node28</title>
<path fill="none" stroke="midnightblue" d="M799.934,-440.436C848.261,-432.024 917.397,-418.117 940.791,-404 960.049,-392.379 976.064,-371.715 985.755,-357.12"/>
<polygon fill="midnightblue" stroke="midnightblue" points="988.782,-358.882 991.18,-348.562 982.87,-355.134 988.782,-358.882"/>
</g>
<!-- Node29 -->
<g id="node29" class="node"><title>Node29</title>
<g id="a_node29"><a xlink:href="$Util_8h.html" xlink:title="Util.h">
<polygon fill="white" stroke="black" points="1135.4,-220.5 1135.4,-238.5 1174.18,-238.5 1174.18,-220.5 1135.4,-220.5"/>
<text text-anchor="middle" x="1154.79" y="-226.5" font-family="Helvetica,sans-Serif" font-size="10.00">Util.h</text>
</a>
</g>
</g>
<!-- Node2&#45;&gt;Node29 -->
<g id="edge61" class="edge"><title>Node2&#45;&gt;Node29</title>
<path fill="none" stroke="midnightblue" d="M801.833,-440.897C870.556,-430.62 984.995,-412.594 1002.79,-404 1074.32,-369.459 1126.26,-284.286 1146.02,-247.677"/>
<polygon fill="midnightblue" stroke="midnightblue" points="1149.17,-249.202 1150.73,-238.722 1142.98,-245.943 1149.17,-249.202"/>
</g>
<!-- Node5&#45;&gt;Node6 -->
<g id="edge5" class="edge"><title>Node5&#45;&gt;Node6</title>
<path fill="none" stroke="midnightblue" d="M921.862,-55.508C1007.86,-44.2537 1161.84,-24.1039 1230.76,-15.0844"/>
<polygon fill="midnightblue" stroke="midnightblue" points="1231.61,-18.5035 1241.07,-13.7354 1230.7,-11.5627 1231.61,-18.5035"/>
</g>
<!-- Node7 -->
<g id="node7" class="node"><title>Node7</title>
<g id="a_node7"><a xlink:href="$functor_8h.html" xlink:title="utility/functor.h">
<polygon fill="white" stroke="black" points="820.828,-0.5 820.828,-18.5 900.754,-18.5 900.754,-0.5 820.828,-0.5"/>
<text text-anchor="middle" x="860.791" y="-6.5" font-family="Helvetica,sans-Serif" font-size="10.00">utility/functor.h</text>
</a>
</g>
</g>
<!-- Node5&#45;&gt;Node7 -->
<g id="edge6" class="edge"><title>Node5&#45;&gt;Node7</title>
<path fill="none" stroke="midnightblue" d="M860.791,-55.2188C860.791,-48.1769 860.791,-37.8083 860.791,-28.8277"/>
<polygon fill="midnightblue" stroke="midnightblue" points="864.291,-28.5495 860.791,-18.5496 857.291,-28.5496 864.291,-28.5495"/>
</g>
<!-- Node10&#45;&gt;Node11 -->
<g id="edge10" class="edge"><title>Node10&#45;&gt;Node11</title>
<path fill="none" stroke="midnightblue" d="M742.291,-385.219C735.276,-377.473 724.615,-365.701 715.992,-356.18"/>
<polygon fill="midnightblue" stroke="midnightblue" points="718.388,-353.612 709.081,-348.55 713.2,-358.311 718.388,-353.612"/>
</g>
<!-- Node11&#45;&gt;Node5 -->
<g id="edge11" class="edge"><title>Node11&#45;&gt;Node5</title>
<path fill="none" stroke="midnightblue" d="M705.901,-330.193C711.99,-317.98 723.867,-294.513 734.791,-275 775.537,-202.219 827.978,-117.72 850.146,-82.3847"/>
<polygon fill="midnightblue" stroke="midnightblue" points="853.201,-84.1014 855.561,-73.7728 847.275,-80.3754 853.201,-84.1014"/>
</g>
<!-- Node11&#45;&gt;Node12 -->
<g id="edge12" class="edge"><title>Node11&#45;&gt;Node12</title>
<path fill="none" stroke="midnightblue" d="M723.832,-336.333C770.051,-331.362 874.976,-317.706 900.791,-294 913.286,-282.526 918.027,-263.337 919.799,-249.051"/>
<polygon fill="midnightblue" stroke="midnightblue" points="923.303,-249.149 920.675,-238.885 916.329,-248.548 923.303,-249.149"/>
</g>
<!-- Node11&#45;&gt;Node14 -->
<g id="edge15" class="edge"><title>Node11&#45;&gt;Node14</title>
<path fill="none" stroke="midnightblue" d="M679.643,-339.218C632.616,-339.82 520.498,-336.304 439.791,-294 418.545,-282.863 400.21,-261.787 389.103,-246.979"/>
<polygon fill="midnightblue" stroke="midnightblue" points="391.84,-244.79 383.16,-238.714 386.157,-248.877 391.84,-244.79"/>
</g>
<!-- Node11&#45;&gt;Node15 -->
<g id="edge18" class="edge"><title>Node11&#45;&gt;Node15</title>
<path fill="none" stroke="midnightblue" d="M723.899,-331.131C750.617,-322.225 795.853,-307.146 826.965,-296.775"/>
<polygon fill="midnightblue" stroke="midnightblue" points="828.149,-300.07 836.529,-293.587 825.935,-293.429 828.149,-300.07"/>
</g>
<!-- Node11&#45;&gt;Node16 -->
<g id="edge20" class="edge"><title>Node11&#45;&gt;Node16</title>
<path fill="none" stroke="midnightblue" d="M713.334,-330.45C725.052,-322.279 743.433,-309.46 757.573,-299.6"/>
<polygon fill="midnightblue" stroke="midnightblue" points="759.939,-302.216 766.14,-293.625 755.935,-296.475 759.939,-302.216"/>
</g>
<!-- Node11&#45;&gt;Node17 -->
<g id="edge22" class="edge"><title>Node11&#45;&gt;Node17</title>
<path fill="none" stroke="midnightblue" d="M694.447,-330.219C687.578,-322.473 677.139,-310.701 668.696,-301.18"/>
<polygon fill="midnightblue" stroke="midnightblue" points="671.183,-298.709 661.929,-293.55 665.946,-303.354 671.183,-298.709"/>
</g>
<!-- Node11&#45;&gt;Node18 -->
<g id="edge24" class="edge"><title>Node11&#45;&gt;Node18</title>
<path fill="none" stroke="midnightblue" d="M679.594,-333.224C642.029,-324.296 565.438,-306.093 518.462,-294.929"/>
<polygon fill="midnightblue" stroke="midnightblue" points="519.166,-291.498 508.627,-292.591 517.547,-298.309 519.166,-291.498"/>
</g>
<!-- Node11&#45;&gt;Node19 -->
<g id="edge27" class="edge"><title>Node11&#45;&gt;Node19</title>
<path fill="none" stroke="midnightblue" d="M680.984,-330.45C658.151,-321.617 621.283,-307.355 595.208,-297.267"/>
<polygon fill="midnightblue" stroke="midnightblue" points="596.383,-293.969 585.794,-293.625 593.858,-300.498 596.383,-293.969"/>
</g>
<!-- Node12&#45;&gt;Node5 -->
<g id="edge14" class="edge"><title>Node12&#45;&gt;Node5</title>
<path fill="none" stroke="midnightblue" d="M917.733,-220.193C908.424,-194.903 880.283,-118.453 867.382,-83.4046"/>
<polygon fill="midnightblue" stroke="midnightblue" points="870.511,-81.7725 863.772,-73.5971 863.942,-84.1906 870.511,-81.7725"/>
</g>
<!-- Node13 -->
<g id="node13" class="node"><title>Node13</title>
<polygon fill="white" stroke="#bfbfbf" points="1085.39,-55.5 1085.39,-73.5 1144.19,-73.5 1144.19,-55.5 1085.39,-55.5"/>
<text text-anchor="middle" x="1114.79" y="-61.5" font-family="Helvetica,sans-Serif" font-size="10.00">inttypes.h</text>
</g>
<!-- Node12&#45;&gt;Node13 -->
<g id="edge13" class="edge"><title>Node12&#45;&gt;Node13</title>
<path fill="none" stroke="midnightblue" d="M930.412,-220.417C961.182,-194.563 1057.51,-113.631 1097.31,-80.1864"/>
<polygon fill="midnightblue" stroke="midnightblue" points="1099.71,-82.7446 1105.11,-73.632 1095.2,-77.3852 1099.71,-82.7446"/>
</g>
<!-- Node14&#45;&gt;Node3 -->
<g id="edge16" class="edge"><title>Node14&#45;&gt;Node3</title>
<path fill="none" stroke="midnightblue" d="M379.971,-220.382C384.61,-203.104 395.559,-162.329 401.941,-138.563"/>
<polygon fill="midnightblue" stroke="midnightblue" points="405.373,-139.277 404.586,-128.712 398.612,-137.462 405.373,-139.277"/>
</g>
<!-- Node14&#45;&gt;Node5 -->
<g id="edge17" class="edge"><title>Node14&#45;&gt;Node5</title>
<path fill="none" stroke="midnightblue" d="M374.121,-220.289C365.214,-198.965 345.203,-141.319 373.791,-110 401.237,-79.9316 660.939,-69.9395 789.458,-66.8191"/>
<polygon fill="midnightblue" stroke="midnightblue" points="789.689,-70.3147 799.604,-66.5804 789.524,-63.3166 789.689,-70.3147"/>
</g>
<!-- Node15&#45;&gt;Node5 -->
<g id="edge19" class="edge"><title>Node15&#45;&gt;Node5</title>
<path fill="none" stroke="midnightblue" d="M860.791,-275.483C860.791,-244.107 860.791,-129.159 860.791,-83.9443"/>
<polygon fill="midnightblue" stroke="midnightblue" points="864.291,-83.823 860.791,-73.8231 857.291,-83.8231 864.291,-83.823"/>
</g>
<!-- Node16&#45;&gt;Node5 -->
<g id="edge21" class="edge"><title>Node16&#45;&gt;Node5</title>
<path fill="none" stroke="midnightblue" d="M781.904,-275.406C786.325,-266.569 793.438,-251.947 798.791,-239 821.969,-182.942 844.831,-114.728 855.125,-83.1301"/>
<polygon fill="midnightblue" stroke="midnightblue" points="858.473,-84.1524 858.222,-73.5605 851.813,-81.9969 858.473,-84.1524"/>
</g>
<!-- Node17&#45;&gt;Node5 -->
<g id="edge23" class="edge"><title>Node17&#45;&gt;Node5</title>
<path fill="none" stroke="midnightblue" d="M673.32,-275.436C688.51,-267.974 709.587,-255.538 722.791,-239 760.96,-191.194 729.818,-155.425 770.791,-110 784.483,-94.8199 804.519,-84.209 822.213,-77.1666"/>
<polygon fill="midnightblue" stroke="midnightblue" points="823.597,-80.3859 831.746,-73.615 821.154,-73.8263 823.597,-80.3859"/>
</g>
<!-- Node18&#45;&gt;Node3 -->
<g id="edge25" class="edge"><title>Node18&#45;&gt;Node3</title>
<path fill="none" stroke="midnightblue" d="M475.122,-275.193C463.903,-249.794 429.889,-172.791 414.5,-137.952"/>
<polygon fill="midnightblue" stroke="midnightblue" points="417.61,-136.33 410.368,-128.597 411.207,-139.159 417.61,-136.33"/>
</g>
<!-- Node18&#45;&gt;Node5 -->
<g id="edge26" class="edge"><title>Node18&#45;&gt;Node5</title>
<path fill="none" stroke="midnightblue" d="M489.928,-275.386C534.638,-242.854 699.917,-122.993 725.791,-110 755.124,-95.2699 790.419,-83.8336 817.562,-76.2449"/>
<polygon fill="midnightblue" stroke="midnightblue" points="818.809,-79.5327 827.537,-73.5259 816.968,-72.7791 818.809,-79.5327"/>
</g>
<!-- Node19&#45;&gt;Node3 -->
<g id="edge28" class="edge"><title>Node19&#45;&gt;Node3</title>
<path fill="none" stroke="midnightblue" d="M573.265,-275.492C593.797,-255.133 642.471,-200.5 613.791,-165 602.995,-151.636 497.573,-134.059 441.489,-125.549"/>
<polygon fill="midnightblue" stroke="midnightblue" points="441.707,-122.043 431.299,-124.02 440.669,-128.965 441.707,-122.043"/>
</g>
<!-- Node19&#45;&gt;Node5 -->
<g id="edge33" class="edge"><title>Node19&#45;&gt;Node5</title>
<path fill="none" stroke="midnightblue" d="M576.449,-275.399C588.609,-266.792 608.055,-252.579 623.791,-239 685.654,-185.616 686.783,-155.298 754.791,-110 776.301,-95.6728 803.172,-84.4539 824.477,-76.8646"/>
<polygon fill="midnightblue" stroke="midnightblue" points="825.823,-80.1025 834.136,-73.534 823.542,-73.4848 825.823,-80.1025"/>
</g>
<!-- Node20 -->
<g id="node20" class="node"><title>Node20</title>
<g id="a_node20"><a xlink:href="$AP__Common_8h.html" xlink:title="Common definitions and utility routines for the ArduPilot libraries. ">
<polygon fill="white" stroke="black" points="458.764,-165.5 458.764,-183.5 604.818,-183.5 604.818,-165.5 458.764,-165.5"/>
<text text-anchor="middle" x="531.791" y="-171.5" font-family="Helvetica,sans-Serif" font-size="10.00">AP_Common/AP_Common.h</text>
</a>
</g>
</g>
<!-- Node19&#45;&gt;Node20 -->
<g id="edge29" class="edge"><title>Node19&#45;&gt;Node20</title>
<path fill="none" stroke="midnightblue" d="M562.311,-275.382C557.031,-258.104 544.572,-217.329 537.31,-193.563"/>
<polygon fill="midnightblue" stroke="midnightblue" points="540.57,-192.252 534.3,-183.712 533.875,-194.298 540.57,-192.252"/>
</g>
<!-- Node19&#45;&gt;Node22 -->
<g id="edge34" class="edge"><title>Node19&#45;&gt;Node22</title>
<path fill="none" stroke="midnightblue" d="M603.784,-276.337C606.828,-275.857 609.857,-275.404 612.791,-275 685.422,-264.993 891.617,-245.9 997.814,-236.306"/>
<polygon fill="midnightblue" stroke="midnightblue" points="998.436,-239.764 1008.08,-235.38 997.807,-232.792 998.436,-239.764"/>
</g>
<!-- Node20&#45;&gt;Node3 -->
<g id="edge30" class="edge"><title>Node20&#45;&gt;Node3</title>
<path fill="none" stroke="midnightblue" d="M512.806,-165.45C492.157,-156.695 458.927,-142.606 435.175,-132.535"/>
<polygon fill="midnightblue" stroke="midnightblue" points="436.527,-129.307 425.955,-128.625 433.795,-135.751 436.527,-129.307"/>
</g>
<!-- Node20&#45;&gt;Node4 -->
<g id="edge32" class="edge"><title>Node20&#45;&gt;Node4</title>
<path fill="none" stroke="midnightblue" d="M496.403,-165.45C453.413,-155.671 381.166,-139.238 336.958,-129.182"/>
<polygon fill="midnightblue" stroke="midnightblue" points="337.692,-125.759 327.165,-126.954 336.139,-132.585 337.692,-125.759"/>
</g>
<!-- Node21 -->
<g id="node21" class="node"><title>Node21</title>
<polygon fill="white" stroke="#bfbfbf" points="507.949,-110.5 507.949,-128.5 555.633,-128.5 555.633,-110.5 507.949,-110.5"/>
<text text-anchor="middle" x="531.791" y="-116.5" font-family="Helvetica,sans-Serif" font-size="10.00">stdlib.h</text>
</g>
<!-- Node20&#45;&gt;Node21 -->
<g id="edge31" class="edge"><title>Node20&#45;&gt;Node21</title>
<path fill="none" stroke="midnightblue" d="M531.791,-165.219C531.791,-158.177 531.791,-147.808 531.791,-138.828"/>
<polygon fill="midnightblue" stroke="midnightblue" points="535.291,-138.55 531.791,-128.55 528.291,-138.55 535.291,-138.55"/>
</g>
<!-- Node22&#45;&gt;Node5 -->
<g id="edge37" class="edge"><title>Node22&#45;&gt;Node5</title>
<path fill="none" stroke="midnightblue" d="M1057.34,-220.26C1043.16,-199.359 1003.06,-143.557 957.791,-110 938.692,-95.8413 914.368,-84.696 894.856,-77.1006"/>
<polygon fill="midnightblue" stroke="midnightblue" points="896.019,-73.7987 885.427,-73.5574 893.557,-80.3513 896.019,-73.7987"/>
</g>
<!-- Node22&#45;&gt;Node20 -->
<g id="edge36" class="edge"><title>Node22&#45;&gt;Node20</title>
<path fill="none" stroke="midnightblue" d="M1007.96,-223.028C914.689,-213.718 724.591,-194.744 614.896,-183.795"/>
<polygon fill="midnightblue" stroke="midnightblue" points="615.161,-180.304 604.863,-182.793 614.465,-187.269 615.161,-180.304"/>
</g>
<!-- Node23 -->
<g id="node23" class="node"><title>Node23</title>
<polygon fill="white" stroke="#bfbfbf" points="1047.72,-165.5 1047.72,-183.5 1099.86,-183.5 1099.86,-165.5 1047.72,-165.5"/>
<text text-anchor="middle" x="1073.79" y="-171.5" font-family="Helvetica,sans-Serif" font-size="10.00">stdarg.h</text>
</g>
<!-- Node22&#45;&gt;Node23 -->
<g id="edge35" class="edge"><title>Node22&#45;&gt;Node23</title>
<path fill="none" stroke="midnightblue" d="M1064.51,-220.219C1065.99,-213.099 1068.17,-202.577 1070.05,-193.529"/>
<polygon fill="midnightblue" stroke="midnightblue" points="1073.52,-194.052 1072.12,-183.55 1066.66,-192.63 1073.52,-194.052"/>
</g>
<!-- Node22&#45;&gt;Node24 -->
<g id="edge38" class="edge"><title>Node22&#45;&gt;Node24</title>
<path fill="none" stroke="midnightblue" d="M1081.17,-220.45C1101.07,-211.734 1133.04,-197.731 1156.01,-187.669"/>
<polygon fill="midnightblue" stroke="midnightblue" points="1157.49,-190.843 1165.24,-183.625 1154.68,-184.432 1157.49,-190.843"/>
</g>
<!-- Node24&#45;&gt;Node5 -->
<g id="edge39" class="edge"><title>Node24&#45;&gt;Node5</title>
<path fill="none" stroke="midnightblue" d="M1180.9,-165.285C1175.54,-151.389 1162.69,-123.446 1141.79,-110 1107.99,-88.2518 1003.6,-76.1708 932.032,-70.2551"/>
<polygon fill="midnightblue" stroke="midnightblue" points="931.972,-66.7391 921.723,-69.4267 931.411,-73.7166 931.972,-66.7391"/>
</g>
<!-- Node24&#45;&gt;Node25 -->
<g id="edge40" class="edge"><title>Node24&#45;&gt;Node25</title>
<path fill="none" stroke="midnightblue" d="M1196.25,-165.45C1209.01,-157.201 1229.1,-144.216 1244.41,-134.319"/>
<polygon fill="midnightblue" stroke="midnightblue" points="1246.72,-136.993 1253.22,-128.625 1242.92,-131.114 1246.72,-136.993"/>
</g>
<!-- Node25&#45;&gt;Node5 -->
<g id="edge41" class="edge"><title>Node25&#45;&gt;Node5</title>
<path fill="none" stroke="midnightblue" d="M1243.02,-112.717C1238.65,-111.722 1234.09,-110.764 1229.79,-110 1126.94,-91.716 1006.61,-78.7614 932.037,-71.7075"/>
<polygon fill="midnightblue" stroke="midnightblue" points="932.107,-68.1988 921.825,-70.7513 931.455,-75.1683 932.107,-68.1988"/>
</g>
<!-- Node25&#45;&gt;Node6 -->
<g id="edge43" class="edge"><title>Node25&#45;&gt;Node6</title>
<path fill="none" stroke="midnightblue" d="M1265.79,-110.382C1265.79,-93.1822 1265.79,-52.698 1265.79,-28.8866"/>
<polygon fill="midnightblue" stroke="midnightblue" points="1269.29,-28.7117 1265.79,-18.7118 1262.29,-28.7118 1269.29,-28.7117"/>
</g>
<!-- Node25&#45;&gt;Node13 -->
<g id="edge42" class="edge"><title>Node25&#45;&gt;Node13</title>
<path fill="none" stroke="midnightblue" d="M1243.18,-110.565C1217.87,-101.679 1176.6,-87.1961 1147.71,-77.0535"/>
<polygon fill="midnightblue" stroke="midnightblue" points="1148.64,-73.6727 1138.05,-73.6633 1146.33,-80.2777 1148.64,-73.6727"/>
</g>
<!-- Node26&#45;&gt;Node3 -->
<g id="edge46" class="edge"><title>Node26&#45;&gt;Node3</title>
<path fill="none" stroke="midnightblue" d="M278.725,-165.45C304.113,-156.539 345.243,-142.103 374.023,-132.001"/>
<polygon fill="midnightblue" stroke="midnightblue" points="375.365,-135.24 383.642,-128.625 373.047,-128.635 375.365,-135.24"/>
</g>
<!-- Node26&#45;&gt;Node5 -->
<g id="edge47" class="edge"><title>Node26&#45;&gt;Node5</title>
<path fill="none" stroke="midnightblue" d="M253.592,-165.087C250.58,-151.406 247.082,-124.417 261.791,-110 298.782,-73.7431 639.163,-66.9605 789.723,-65.7408"/>
<polygon fill="midnightblue" stroke="midnightblue" points="789.821,-69.2402 799.794,-65.6652 789.768,-62.2404 789.821,-69.2402"/>
</g>
<!-- Node27&#45;&gt;Node3 -->
<g id="edge55" class="edge"><title>Node27&#45;&gt;Node3</title>
<path fill="none" stroke="midnightblue" d="M194.774,-220.137C195.223,-206.528 198.179,-179.642 213.791,-165 236.457,-143.743 323.319,-130.32 372.433,-124.265"/>
<polygon fill="midnightblue" stroke="midnightblue" points="373.08,-127.713 382.594,-123.051 372.25,-120.762 373.08,-127.713"/>
</g>
<!-- Node27&#45;&gt;Node5 -->
<g id="edge58" class="edge"><title>Node27&#45;&gt;Node5</title>
<path fill="none" stroke="midnightblue" d="M193.636,-220.291C192.239,-207.798 190.955,-183.514 198.791,-165 211.667,-134.577 219.084,-124.452 248.791,-110 296.374,-86.8513 638.736,-72.83 789.652,-67.7119"/>
<polygon fill="midnightblue" stroke="midnightblue" points="789.869,-71.2067 799.746,-67.3732 789.634,-64.2107 789.869,-71.2067"/>
</g>
<!-- Node27&#45;&gt;Node8 -->
<g id="edge57" class="edge"><title>Node27&#45;&gt;Node8</title>
<path fill="none" stroke="midnightblue" d="M177.173,-220.45C158.181,-211.773 127.72,-197.856 105.721,-187.804"/>
<polygon fill="midnightblue" stroke="midnightblue" points="107.125,-184.598 96.5748,-183.625 104.216,-190.965 107.125,-184.598"/>
</g>
<!-- Node27&#45;&gt;Node20 -->
<g id="edge56" class="edge"><title>Node27&#45;&gt;Node20</title>
<path fill="none" stroke="midnightblue" d="M229.272,-223.077C286.033,-214.15 399.892,-196.244 470.593,-185.125"/>
<polygon fill="midnightblue" stroke="midnightblue" points="471.364,-188.546 480.699,-183.535 470.276,-181.631 471.364,-188.546"/>
</g>
<!-- Node28&#45;&gt;Node5 -->
<g id="edge60" class="edge"><title>Node28&#45;&gt;Node5</title>
<path fill="none" stroke="midnightblue" d="M994.266,-330.482C990.395,-310.989 979.239,-259.791 961.791,-220 938.803,-167.575 927.102,-157.253 894.791,-110 888.182,-100.334 880.266,-89.9136 873.736,-81.5881"/>
<polygon fill="midnightblue" stroke="midnightblue" points="876.281,-79.1653 867.321,-73.511 870.8,-83.5187 876.281,-79.1653"/>
</g>
<!-- Node29&#45;&gt;Node5 -->
<g id="edge63" class="edge"><title>Node29&#45;&gt;Node5</title>
<path fill="none" stroke="midnightblue" d="M1150.78,-220.414C1143.86,-207.204 1128.52,-180.876 1108.79,-165 1049.04,-116.904 963.016,-89.429 909.585,-76.0015"/>
<polygon fill="midnightblue" stroke="midnightblue" points="910.222,-72.554 899.676,-73.5786 908.559,-79.3537 910.222,-72.554"/>
</g>
<!-- Node29&#45;&gt;Node23 -->
<g id="edge62" class="edge"><title>Node29&#45;&gt;Node23</title>
<path fill="none" stroke="midnightblue" d="M1142.49,-220.45C1129.88,-212.201 1110.04,-199.216 1094.91,-189.319"/>
<polygon fill="midnightblue" stroke="midnightblue" points="1096.49,-186.172 1086.21,-183.625 1092.66,-192.029 1096.49,-186.172"/>
</g>
<!-- Node31 -->
<g id="node31" class="node"><title>Node31</title>
<g id="a_node31"><a xlink:href="$AP__HAL__FLYMAPLE_8h.html" xlink:title="AP_HAL_FLYMAPLE.h">
<polygon fill="white" stroke="black" points="835.911,-550.5 835.911,-568.5 955.671,-568.5 955.671,-550.5 835.911,-550.5"/>
<text text-anchor="middle" x="895.791" y="-556.5" font-family="Helvetica,sans-Serif" font-size="10.00">AP_HAL_FLYMAPLE.h</text>
</a>
</g>
</g>
<!-- Node30&#45;&gt;Node31 -->
<g id="edge70" class="edge"><title>Node30&#45;&gt;Node31</title>
<path fill="none" stroke="midnightblue" d="M1055.24,-605.45C1022.85,-596.318 969.868,-581.383 933.951,-571.258"/>
<polygon fill="midnightblue" stroke="midnightblue" points="934.879,-567.883 924.304,-568.538 932.979,-574.62 934.879,-567.883"/>
</g>
<!-- Node31&#45;&gt;Node2 -->
<g id="edge71" class="edge"><title>Node31&#45;&gt;Node2</title>
<path fill="none" stroke="midnightblue" d="M880.303,-550.462C864.741,-542.125 840.328,-528.323 820.791,-514 800.5,-499.125 779.25,-479.502 765.348,-466.029"/>
<polygon fill="midnightblue" stroke="midnightblue" points="767.663,-463.397 758.074,-458.889 762.759,-468.392 767.663,-463.397"/>
</g>
<!-- Node32 -->
<g id="node32" class="node"><title>Node32</title>
<g id="a_node32"><a xlink:href="$HAL__FLYMAPLE__Class_8h.html" xlink:title="HAL_FLYMAPLE_Class.h">
<polygon fill="white" stroke="black" points="830.079,-495.5 830.079,-513.5 961.503,-513.5 961.503,-495.5 830.079,-495.5"/>
<text text-anchor="middle" x="895.791" y="-501.5" font-family="Helvetica,sans-Serif" font-size="10.00">HAL_FLYMAPLE_Class.h</text>
</a>
</g>
</g>
<!-- Node31&#45;&gt;Node32 -->
<g id="edge72" class="edge"><title>Node31&#45;&gt;Node32</title>
<path fill="none" stroke="midnightblue" d="M895.791,-550.219C895.791,-543.177 895.791,-532.808 895.791,-523.828"/>
<polygon fill="midnightblue" stroke="midnightblue" points="899.291,-523.55 895.791,-513.55 892.291,-523.55 899.291,-523.55"/>
</g>
<!-- Node32&#45;&gt;Node2 -->
<g id="edge73" class="edge"><title>Node32&#45;&gt;Node2</title>
<path fill="none" stroke="midnightblue" d="M873.617,-495.45C849.177,-486.578 809.648,-472.229 781.839,-462.134"/>
<polygon fill="midnightblue" stroke="midnightblue" points="782.768,-458.748 772.174,-458.625 780.38,-465.328 782.768,-458.748"/>
</g>
<!-- Node33 -->
<g id="node33" class="node"><title>Node33</title>
<g id="a_node33"><a xlink:href="$AP__HAL__FLYMAPLE__Namespace_8h.html" xlink:title="AP_HAL_FLYMAPLE_Namespace.h">
<polygon fill="white" stroke="black" points="819.451,-440.5 819.451,-458.5 998.131,-458.5 998.131,-440.5 819.451,-440.5"/>
<text text-anchor="middle" x="908.791" y="-446.5" font-family="Helvetica,sans-Serif" font-size="10.00">AP_HAL_FLYMAPLE_Namespace.h</text>
</a>
</g>
</g>
<!-- Node32&#45;&gt;Node33 -->
<g id="edge74" class="edge"><title>Node32&#45;&gt;Node33</title>
<path fill="none" stroke="midnightblue" d="M897.822,-495.219C899.569,-488.099 902.149,-477.577 904.369,-468.529"/>
<polygon fill="midnightblue" stroke="midnightblue" points="907.834,-469.095 906.817,-458.55 901.035,-467.428 907.834,-469.095"/>
</g>
<!-- Node35 -->
<g id="node35" class="node"><title>Node35</title>
<polygon fill="white" stroke="#bfbfbf" points="1379.84,-550.5 1379.84,-568.5 1429.74,-568.5 1429.74,-550.5 1379.84,-550.5"/>
<text text-anchor="middle" x="1404.79" y="-556.5" font-family="Helvetica,sans-Serif" font-size="10.00">wirish.h</text>
</g>
<!-- Node34&#45;&gt;Node35 -->
<g id="edge76" class="edge"><title>Node34&#45;&gt;Node35</title>
<path fill="none" stroke="midnightblue" d="M1392.13,-605.219C1394.17,-598.02 1397.19,-587.346 1399.77,-578.231"/>
<polygon fill="midnightblue" stroke="midnightblue" points="1403.16,-579.125 1402.51,-568.55 1396.42,-577.218 1403.16,-579.125"/>
</g>
<!-- Node36&#45;&gt;Node35 -->
<g id="edge78" class="edge"><title>Node36&#45;&gt;Node35</title>
<path fill="none" stroke="midnightblue" d="M1486.21,-605.45C1470.85,-596.968 1446.41,-583.477 1428.31,-573.486"/>
<polygon fill="midnightblue" stroke="midnightblue" points="1429.95,-570.394 1419.51,-568.625 1426.57,-576.523 1429.95,-570.394"/>
</g>
<!-- Node37 -->
<g id="node37" class="node"><title>Node37</title>
<g id="a_node37"><a xlink:href="$flash__stm32_8h.html" xlink:title="flash_stm32.h">
<polygon fill="white" stroke="black" points="1461.66,-550.5 1461.66,-568.5 1539.92,-568.5 1539.92,-550.5 1461.66,-550.5"/>
<text text-anchor="middle" x="1500.79" y="-556.5" font-family="Helvetica,sans-Serif" font-size="10.00">flash_stm32.h</text>
</a>
</g>
</g>
<!-- Node36&#45;&gt;Node37 -->
<g id="edge79" class="edge"><title>Node36&#45;&gt;Node37</title>
<path fill="none" stroke="midnightblue" d="M1500.79,-605.219C1500.79,-598.177 1500.79,-587.808 1500.79,-578.828"/>
<polygon fill="midnightblue" stroke="midnightblue" points="1504.29,-578.55 1500.79,-568.55 1497.29,-578.55 1504.29,-578.55"/>
</g>
</g>
</svg>
