<?xml version="1.0" encoding="UTF-8" standalone="no"?>
<!DOCTYPE svg PUBLIC "-//W3C//DTD SVG 1.1//EN"
 "http://www.w3.org/Graphics/SVG/1.1/DTD/svg11.dtd">
<!-- Generated by graphviz version 2.38.0 (20140413.2041)
 -->
<!-- Title: loop Pages: 1 -->
<svg width="746pt" height="199pt"
 viewBox="0.00 0.00 745.67 199.00" xmlns="http://www.w3.org/2000/svg" xmlns:xlink="http://www.w3.org/1999/xlink">
<g id="graph0" class="graph" transform="scale(1 1) rotate(0) translate(4 195)">
<title>loop</title>
<polygon fill="white" stroke="none" points="-4,4 -4,-195 741.67,-195 741.67,4 -4,4"/>
<!-- Node1 -->
<g id="node1" class="node"><title>Node1</title>
<polygon fill="#bfbfbf" stroke="black" points="0,-116.5 0,-134.5 34.9062,-134.5 34.9062,-116.5 0,-116.5"/>
<text text-anchor="middle" x="17.4531" y="-122.5" font-family="Helvetica,sans-Serif" font-size="10.00">loop</text>
</g>
<!-- Node2 -->
<g id="node2" class="node"><title>Node2</title>
<g id="a_node2"><a xlink:href="$classAP__HAL_1_1GPIO.html#a2b0664bdab1876e3b0bbcd9064eec88e" xlink:title="AP_HAL::GPIO::write">
<polygon fill="white" stroke="black" points="70.9062,-172.5 70.9062,-190.5 182.492,-190.5 182.492,-172.5 70.9062,-172.5"/>
<text text-anchor="middle" x="126.699" y="-178.5" font-family="Helvetica,sans-Serif" font-size="10.00">AP_HAL::GPIO::write</text>
</a>
</g>
</g>
<!-- Node1&#45;&gt;Node2 -->
<g id="edge1" class="edge"><title>Node1&#45;&gt;Node2</title>
<path fill="none" stroke="midnightblue" d="M29.0598,-134.713C39.2231,-143.156 55.2835,-155.521 70.9062,-163.5 74.7184,-165.447 78.7853,-167.245 82.9156,-168.891"/>
<polygon fill="midnightblue" stroke="midnightblue" points="81.9845,-172.278 92.5779,-172.451 84.4044,-165.709 81.9845,-172.278"/>
</g>
<!-- Node3 -->
<g id="node3" class="node"><title>Node3</title>
<g id="a_node3"><a xlink:href="$FLYMAPLE_2examples_2RCInput_2RCInput_8cpp.html#a3386c13c098492e383d289443c48e1c0" xlink:title="multiread">
<polygon fill="white" stroke="black" points="98.1353,-135.5 98.1353,-153.5 155.263,-153.5 155.263,-135.5 98.1353,-135.5"/>
<text text-anchor="middle" x="126.699" y="-141.5" font-family="Helvetica,sans-Serif" font-size="10.00">multiread</text>
</a>
</g>
</g>
<!-- Node1&#45;&gt;Node3 -->
<g id="edge2" class="edge"><title>Node1&#45;&gt;Node3</title>
<path fill="none" stroke="midnightblue" d="M35.2103,-128.469C49.2618,-130.958 69.8591,-134.607 87.8541,-137.795"/>
<polygon fill="midnightblue" stroke="midnightblue" points="87.3443,-141.259 97.8015,-139.558 88.5655,-134.367 87.3443,-141.259"/>
</g>
<!-- Node14 -->
<g id="node14" class="node"><title>Node14</title>
<g id="a_node14"><a xlink:href="$FLYMAPLE_2examples_2RCInput_2RCInput_8cpp.html#aeb998f1761a28e512e2dcbc829983e06" xlink:title="individualread">
<polygon fill="white" stroke="black" points="87.8447,-98.5 87.8447,-116.5 165.554,-116.5 165.554,-98.5 87.8447,-98.5"/>
<text text-anchor="middle" x="126.699" y="-104.5" font-family="Helvetica,sans-Serif" font-size="10.00">individualread</text>
</a>
</g>
</g>
<!-- Node1&#45;&gt;Node14 -->
<g id="edge13" class="edge"><title>Node1&#45;&gt;Node14</title>
<path fill="none" stroke="midnightblue" d="M35.2103,-122.688C46.712,-120.757 62.5994,-118.091 77.8555,-115.53"/>
<polygon fill="midnightblue" stroke="midnightblue" points="78.4546,-118.978 87.7373,-113.871 77.2959,-112.075 78.4546,-118.978"/>
</g>
<!-- Node15 -->
<g id="node15" class="node"><title>Node15</title>
<g id="a_node15"><a xlink:href="$classAP__HAL_1_1Scheduler.html#ab3175e2e6223ccfe82f957e41cc12b26" xlink:title="AP_HAL::Scheduler::\ldelay">
<polygon fill="white" stroke="black" points="71.4507,-51.5 71.4507,-79.5 181.948,-79.5 181.948,-51.5 71.4507,-51.5"/>
<text text-anchor="start" x="79.4507" y="-67.5" font-family="Helvetica,sans-Serif" font-size="10.00">AP_HAL::Scheduler::</text>
<text text-anchor="middle" x="126.699" y="-57.5" font-family="Helvetica,sans-Serif" font-size="10.00">delay</text>
</a>
</g>
</g>
<!-- Node1&#45;&gt;Node15 -->
<g id="edge17" class="edge"><title>Node1&#45;&gt;Node15</title>
<path fill="none" stroke="midnightblue" d="M30.536,-116.234C40.905,-108.523 56.4243,-97.5468 70.9062,-89.5 74.3814,-87.5691 78.0425,-85.6789 81.7561,-83.8606"/>
<polygon fill="midnightblue" stroke="midnightblue" points="83.4585,-86.9278 91.0197,-79.5063 80.4807,-80.5928 83.4585,-86.9278"/>
</g>
<!-- Node4 -->
<g id="node4" class="node"><title>Node4</title>
<g id="a_node4"><a xlink:href="$classAP__HAL_1_1RCInput.html#a0b019ac5120129c29cdb239576694a85" xlink:title="AP_HAL::RCInput::new\l_input">
<polygon fill="white" stroke="black" points="219.327,-153.5 219.327,-181.5 339.824,-181.5 339.824,-153.5 219.327,-153.5"/>
<text text-anchor="start" x="227.327" y="-169.5" font-family="Helvetica,sans-Serif" font-size="10.00">AP_HAL::RCInput::new</text>
<text text-anchor="middle" x="279.576" y="-159.5" font-family="Helvetica,sans-Serif" font-size="10.00">_input</text>
</a>
</g>
</g>
<!-- Node3&#45;&gt;Node4 -->
<g id="edge3" class="edge"><title>Node3&#45;&gt;Node4</title>
<path fill="none" stroke="midnightblue" d="M155.372,-148.719C170.586,-151.038 190.201,-154.028 209.289,-156.938"/>
<polygon fill="midnightblue" stroke="midnightblue" points="208.782,-160.401 219.196,-158.448 209.837,-153.481 208.782,-160.401"/>
</g>
<!-- Node5 -->
<g id="node5" class="node"><title>Node5</title>
<g id="a_node5"><a xlink:href="$classAP__HAL_1_1RCInput.html#a078fd7e6d2e6a899009ec674a8e03498" xlink:title="AP_HAL::RCInput::read">
<polygon fill="white" stroke="black" points="218.492,-116.5 218.492,-134.5 340.659,-134.5 340.659,-116.5 218.492,-116.5"/>
<text text-anchor="middle" x="279.576" y="-122.5" font-family="Helvetica,sans-Serif" font-size="10.00">AP_HAL::RCInput::read</text>
</a>
</g>
</g>
<!-- Node3&#45;&gt;Node5 -->
<g id="edge4" class="edge"><title>Node3&#45;&gt;Node5</title>
<path fill="none" stroke="midnightblue" d="M155.372,-141.015C170.299,-139.135 189.465,-136.722 208.211,-134.361"/>
<polygon fill="midnightblue" stroke="midnightblue" points="208.766,-137.819 218.251,-133.097 207.892,-130.874 208.766,-137.819"/>
</g>
<!-- Node6 -->
<g id="node6" class="node"><title>Node6</title>
<g id="a_node6"><a xlink:href="$classAP__HAL_1_1UARTDriver.html#a65c7824b8877f7a2f79365c8ffae8f56" xlink:title="AP_HAL::UARTDriver\l::printf">
<polygon fill="white" stroke="black" points="222.765,-69.5 222.765,-97.5 336.387,-97.5 336.387,-69.5 222.765,-69.5"/>
<text text-anchor="start" x="230.765" y="-85.5" font-family="Helvetica,sans-Serif" font-size="10.00">AP_HAL::UARTDriver</text>
<text text-anchor="middle" x="279.576" y="-75.5" font-family="Helvetica,sans-Serif" font-size="10.00">::printf</text>
</a>
</g>
</g>
<!-- Node3&#45;&gt;Node6 -->
<g id="edge5" class="edge"><title>Node3&#45;&gt;Node6</title>
<path fill="none" stroke="midnightblue" d="M155.347,-136.417C164.14,-133.582 173.829,-130.178 182.492,-126.5 199.145,-119.43 202.069,-115.088 218.492,-107.5 222.851,-105.486 227.43,-103.475 232.034,-101.523"/>
<polygon fill="midnightblue" stroke="midnightblue" points="233.559,-104.679 241.455,-97.6154 230.877,-98.2135 233.559,-104.679"/>
</g>
<!-- Node7 -->
<g id="node7" class="node"><title>Node7</title>
<g id="a_node7"><a xlink:href="$classAP__HAL_1_1UARTDriver.html#aa8abfb6d6641299472c29ac1edde559f" xlink:title="AP_HAL::UARTDriver\l::vprintf">
<polygon fill="white" stroke="black" points="376.659,-69.5 376.659,-97.5 490.281,-97.5 490.281,-69.5 376.659,-69.5"/>
<text text-anchor="start" x="384.659" y="-85.5" font-family="Helvetica,sans-Serif" font-size="10.00">AP_HAL::UARTDriver</text>
<text text-anchor="middle" x="433.47" y="-75.5" font-family="Helvetica,sans-Serif" font-size="10.00">::vprintf</text>
</a>
</g>
</g>
<!-- Node6&#45;&gt;Node7 -->
<g id="edge6" class="edge"><title>Node6&#45;&gt;Node7</title>
<path fill="none" stroke="midnightblue" d="M336.704,-83.5C346.363,-83.5 356.482,-83.5 366.375,-83.5"/>
<polygon fill="midnightblue" stroke="midnightblue" points="366.573,-87.0001 376.573,-83.5 366.573,-80.0001 366.573,-87.0001"/>
</g>
<!-- Node8 -->
<g id="node8" class="node"><title>Node8</title>
<g id="a_node8"><a xlink:href="$print__vprintf_8cpp.html#a473b9349f4b086b552a21eb8fe057016" xlink:title="print_vprintf">
<polygon fill="white" stroke="black" points="526.281,-74.5 526.281,-92.5 594.527,-92.5 594.527,-74.5 526.281,-74.5"/>
<text text-anchor="middle" x="560.404" y="-80.5" font-family="Helvetica,sans-Serif" font-size="10.00">print_vprintf</text>
</a>
</g>
</g>
<!-- Node7&#45;&gt;Node8 -->
<g id="edge7" class="edge"><title>Node7&#45;&gt;Node8</title>
<path fill="none" stroke="midnightblue" d="M490.36,-83.5C498.948,-83.5 507.704,-83.5 515.968,-83.5"/>
<polygon fill="midnightblue" stroke="midnightblue" points="516.124,-87.0001 526.124,-83.5 516.124,-80.0001 516.124,-87.0001"/>
</g>
<!-- Node9 -->
<g id="node9" class="node"><title>Node9</title>
<g id="a_node9"><a xlink:href="$classAP__HAL_1_1Print.html#acc65391952a43334f8f5c9bef341f501" xlink:title="AP_HAL::Print::write">
<polygon fill="white" stroke="black" points="630.527,-148.5 630.527,-166.5 737.67,-166.5 737.67,-148.5 630.527,-148.5"/>
<text text-anchor="middle" x="684.099" y="-154.5" font-family="Helvetica,sans-Serif" font-size="10.00">AP_HAL::Print::write</text>
</a>
</g>
</g>
<!-- Node8&#45;&gt;Node9 -->
<g id="edge8" class="edge"><title>Node8&#45;&gt;Node9</title>
<path fill="none" stroke="midnightblue" d="M570.468,-92.6327C582.991,-104.806 606.743,-126.34 630.527,-139.5 633.99,-141.416 637.692,-143.18 641.468,-144.791"/>
<polygon fill="midnightblue" stroke="midnightblue" points="640.326,-148.103 650.914,-148.483 642.875,-141.583 640.326,-148.103"/>
</g>
<!-- Node10 -->
<g id="node10" class="node"><title>Node10</title>
<g id="a_node10"><a xlink:href="$ftoa__engine_8cpp.html#a1c28234da8f20b43c85890d4bb452947" xlink:title="ftoa_engine">
<polygon fill="white" stroke="black" points="649.963,-111.5 649.963,-129.5 718.234,-129.5 718.234,-111.5 649.963,-111.5"/>
<text text-anchor="middle" x="684.099" y="-117.5" font-family="Helvetica,sans-Serif" font-size="10.00">ftoa_engine</text>
</a>
</g>
</g>
<!-- Node8&#45;&gt;Node10 -->
<g id="edge9" class="edge"><title>Node8&#45;&gt;Node10</title>
<path fill="none" stroke="midnightblue" d="M591.174,-92.5512C606.938,-97.3442 626.507,-103.294 643.532,-108.47"/>
<polygon fill="midnightblue" stroke="midnightblue" points="642.629,-111.854 653.214,-111.414 644.665,-105.156 642.629,-111.854"/>
</g>
<!-- Node11 -->
<g id="node11" class="node"><title>Node11</title>
<g id="a_node11"><a xlink:href="$AP__Progmem_8h.html#a1514e0408e036062b4af844baaf567da" xlink:title="pgm_read_byte">
<polygon fill="white" stroke="black" points="641.353,-74.5 641.353,-92.5 726.845,-92.5 726.845,-74.5 641.353,-74.5"/>
<text text-anchor="middle" x="684.099" y="-80.5" font-family="Helvetica,sans-Serif" font-size="10.00">pgm_read_byte</text>
</a>
</g>
</g>
<!-- Node8&#45;&gt;Node11 -->
<g id="edge10" class="edge"><title>Node8&#45;&gt;Node11</title>
<path fill="none" stroke="midnightblue" d="M594.658,-83.5C605.874,-83.5 618.676,-83.5 630.991,-83.5"/>
<polygon fill="midnightblue" stroke="midnightblue" points="631.176,-87.0001 641.176,-83.5 631.176,-80.0001 631.176,-87.0001"/>
</g>
<!-- Node12 -->
<g id="node12" class="node"><title>Node12</title>
<g id="a_node12"><a xlink:href="$utoa__invert_8cpp.html#a34926f552460b47c414ec4d83b32815c" xlink:title="ulltoa_invert">
<polygon fill="white" stroke="black" points="649.138,-37.5 649.138,-55.5 719.059,-55.5 719.059,-37.5 649.138,-37.5"/>
<text text-anchor="middle" x="684.099" y="-43.5" font-family="Helvetica,sans-Serif" font-size="10.00">ulltoa_invert</text>
</a>
</g>
</g>
<!-- Node8&#45;&gt;Node12 -->
<g id="edge11" class="edge"><title>Node8&#45;&gt;Node12</title>
<path fill="none" stroke="midnightblue" d="M591.174,-74.4488C606.938,-69.6558 626.507,-63.7062 643.532,-58.5298"/>
<polygon fill="midnightblue" stroke="midnightblue" points="644.665,-61.8437 653.214,-55.586 642.629,-55.1464 644.665,-61.8437"/>
</g>
<!-- Node13 -->
<g id="node13" class="node"><title>Node13</title>
<g id="a_node13"><a xlink:href="$utoa__invert_8cpp.html#a5d99bba8e697c1e11da489d88fca8559" xlink:title="ultoa_invert">
<polygon fill="white" stroke="black" points="650.249,-0.5 650.249,-18.5 717.948,-18.5 717.948,-0.5 650.249,-0.5"/>
<text text-anchor="middle" x="684.099" y="-6.5" font-family="Helvetica,sans-Serif" font-size="10.00">ultoa_invert</text>
</a>
</g>
</g>
<!-- Node8&#45;&gt;Node13 -->
<g id="edge12" class="edge"><title>Node8&#45;&gt;Node13</title>
<path fill="none" stroke="midnightblue" d="M570.967,-74.1918C583.67,-62.2457 607.232,-41.514 630.527,-28.5 634.544,-26.2563 638.875,-24.192 643.268,-22.3176"/>
<polygon fill="midnightblue" stroke="midnightblue" points="644.866,-25.4496 652.882,-18.5217 642.295,-18.9387 644.866,-25.4496"/>
</g>
<!-- Node14&#45;&gt;Node4 -->
<g id="edge14" class="edge"><title>Node14&#45;&gt;Node4</title>
<path fill="none" stroke="midnightblue" d="M156.121,-116.571C164.684,-119.514 174.049,-122.943 182.492,-126.5 198.978,-133.445 202.119,-137.294 218.492,-144.5 222.402,-146.221 226.486,-147.941 230.603,-149.622"/>
<polygon fill="midnightblue" stroke="midnightblue" points="229.62,-152.999 240.205,-153.457 232.216,-146.498 229.62,-152.999"/>
</g>
<!-- Node14&#45;&gt;Node5 -->
<g id="edge15" class="edge"><title>Node14&#45;&gt;Node5</title>
<path fill="none" stroke="midnightblue" d="M165.772,-112.042C178.752,-113.591 193.706,-115.375 208.393,-117.127"/>
<polygon fill="midnightblue" stroke="midnightblue" points="208.147,-120.622 218.491,-118.332 208.977,-113.672 208.147,-120.622"/>
</g>
<!-- Node14&#45;&gt;Node6 -->
<g id="edge16" class="edge"><title>Node14&#45;&gt;Node6</title>
<path fill="none" stroke="midnightblue" d="M165.772,-101.444C180.013,-99.1784 196.632,-96.5348 212.667,-93.9841"/>
<polygon fill="midnightblue" stroke="midnightblue" points="213.223,-97.4398 222.549,-92.4122 212.123,-90.5267 213.223,-97.4398"/>
</g>
</g>
</svg>
