<?xml version="1.0" encoding="UTF-8" standalone="no"?>
<!DOCTYPE svg PUBLIC "-//W3C//DTD SVG 1.1//EN"
 "http://www.w3.org/Graphics/SVG/1.1/DTD/svg11.dtd">
<!-- Generated by graphviz version 2.38.0 (20140413.2041)
 -->
<!-- Title: libraries/AP_HAL_FLYMAPLE/Semaphores.h Pages: 1 -->
<svg width="432pt" height="232pt"
 viewBox="0.00 0.00 432.22 232.00" xmlns="http://www.w3.org/2000/svg" xmlns:xlink="http://www.w3.org/1999/xlink">
<g id="graph0" class="graph" transform="scale(1 1) rotate(0) translate(4 228)">
<title>libraries/AP_HAL_FLYMAPLE/Semaphores.h</title>
<polygon fill="white" stroke="none" points="-4,4 -4,-228 428.215,-228 428.215,4 -4,4"/>
<!-- Node1 -->
<g id="node1" class="node"><title>Node1</title>
<polygon fill="#bfbfbf" stroke="black" points="108.007,-195.5 108.007,-223.5 257.215,-223.5 257.215,-195.5 108.007,-195.5"/>
<text text-anchor="start" x="116.007" y="-211.5" font-family="Helvetica,sans-Serif" font-size="10.00">libraries/AP_HAL_FLYMAPLE</text>
<text text-anchor="middle" x="182.611" y="-201.5" font-family="Helvetica,sans-Serif" font-size="10.00">/Semaphores.h</text>
</g>
<!-- Node2 -->
<g id="node2" class="node"><title>Node2</title>
<g id="a_node2"><a xlink:href="$FLYMAPLE_2SPIDriver_8h.html" xlink:title="libraries/AP_HAL_FLYMAPLE\l/SPIDriver.h">
<polygon fill="white" stroke="black" points="108.007,-130.5 108.007,-158.5 257.215,-158.5 257.215,-130.5 108.007,-130.5"/>
<text text-anchor="start" x="116.007" y="-146.5" font-family="Helvetica,sans-Serif" font-size="10.00">libraries/AP_HAL_FLYMAPLE</text>
<text text-anchor="middle" x="182.611" y="-136.5" font-family="Helvetica,sans-Serif" font-size="10.00">/SPIDriver.h</text>
</a>
</g>
</g>
<!-- Node1&#45;&gt;Node2 -->
<g id="edge1" class="edge"><title>Node1&#45;&gt;Node2</title>
<path fill="none" stroke="midnightblue" d="M182.611,-185.164C182.611,-176.169 182.611,-166.221 182.611,-158.537"/>
<polygon fill="midnightblue" stroke="midnightblue" points="179.111,-185.446 182.611,-195.446 186.111,-185.446 179.111,-185.446"/>
</g>
<!-- Node3 -->
<g id="node3" class="node"><title>Node3</title>
<g id="a_node3"><a xlink:href="$AP__HAL__FLYMAPLE__Private_8h.html" xlink:title="libraries/AP_HAL_FLYMAPLE\l/AP_HAL_FLYMAPLE_Private.h">
<polygon fill="white" stroke="black" points="0,-65.5 0,-93.5 159.223,-93.5 159.223,-65.5 0,-65.5"/>
<text text-anchor="start" x="8" y="-81.5" font-family="Helvetica,sans-Serif" font-size="10.00">libraries/AP_HAL_FLYMAPLE</text>
<text text-anchor="middle" x="79.6113" y="-71.5" font-family="Helvetica,sans-Serif" font-size="10.00">/AP_HAL_FLYMAPLE_Private.h</text>
</a>
</g>
</g>
<!-- Node1&#45;&gt;Node3 -->
<g id="edge5" class="edge"><title>Node1&#45;&gt;Node3</title>
<path fill="none" stroke="midnightblue" d="M138.368,-190.955C123.775,-183.169 108.712,-172.626 98.6113,-159 84.1658,-139.512 80.5674,-110.514 79.7525,-93.7589"/>
<polygon fill="midnightblue" stroke="midnightblue" points="136.836,-194.102 147.345,-195.449 139.97,-187.843 136.836,-194.102"/>
</g>
<!-- Node6 -->
<g id="node6" class="node"><title>Node6</title>
<g id="a_node6"><a xlink:href="$AP__HAL__FLYMAPLE_2Semaphores_8cpp.html" xlink:title="libraries/AP_HAL_FLYMAPLE\l/Semaphores.cpp">
<polygon fill="white" stroke="black" points="275.007,-130.5 275.007,-158.5 424.215,-158.5 424.215,-130.5 275.007,-130.5"/>
<text text-anchor="start" x="283.007" y="-146.5" font-family="Helvetica,sans-Serif" font-size="10.00">libraries/AP_HAL_FLYMAPLE</text>
<text text-anchor="middle" x="349.611" y="-136.5" font-family="Helvetica,sans-Serif" font-size="10.00">/Semaphores.cpp</text>
</a>
</g>
</g>
<!-- Node1&#45;&gt;Node6 -->
<g id="edge6" class="edge"><title>Node1&#45;&gt;Node6</title>
<path fill="none" stroke="midnightblue" d="M226.651,-191.886C254.292,-181.459 289.426,-168.205 315.053,-158.537"/>
<polygon fill="midnightblue" stroke="midnightblue" points="225.335,-188.642 217.214,-195.446 227.806,-195.191 225.335,-188.642"/>
</g>
<!-- Node2&#45;&gt;Node3 -->
<g id="edge2" class="edge"><title>Node2&#45;&gt;Node3</title>
<path fill="none" stroke="midnightblue" d="M152.503,-125.084C135.96,-114.965 115.835,-102.656 100.926,-93.5369"/>
<polygon fill="midnightblue" stroke="midnightblue" points="150.913,-128.214 161.27,-130.446 154.565,-122.243 150.913,-128.214"/>
</g>
<!-- Node5 -->
<g id="node5" class="node"><title>Node5</title>
<g id="a_node5"><a xlink:href="$AP__HAL__FLYMAPLE_2SPIDriver_8cpp.html" xlink:title="libraries/AP_HAL_FLYMAPLE\l/SPIDriver.cpp">
<polygon fill="white" stroke="black" points="177.007,-65.5 177.007,-93.5 326.215,-93.5 326.215,-65.5 177.007,-65.5"/>
<text text-anchor="start" x="185.007" y="-81.5" font-family="Helvetica,sans-Serif" font-size="10.00">libraries/AP_HAL_FLYMAPLE</text>
<text text-anchor="middle" x="251.611" y="-71.5" font-family="Helvetica,sans-Serif" font-size="10.00">/SPIDriver.cpp</text>
</a>
</g>
</g>
<!-- Node2&#45;&gt;Node5 -->
<g id="edge4" class="edge"><title>Node2&#45;&gt;Node5</title>
<path fill="none" stroke="midnightblue" d="M204.335,-123.665C215.104,-113.833 227.808,-102.234 237.333,-93.5369"/>
<polygon fill="midnightblue" stroke="midnightblue" points="201.933,-121.119 196.908,-130.446 206.653,-126.288 201.933,-121.119"/>
</g>
<!-- Node4 -->
<g id="node4" class="node"><title>Node4</title>
<g id="a_node4"><a xlink:href="$HAL__FLYMAPLE__Class_8cpp.html" xlink:title="libraries/AP_HAL_FLYMAPLE\l/HAL_FLYMAPLE_Class.cpp">
<polygon fill="white" stroke="black" points="5.00732,-0.5 5.00732,-28.5 154.215,-28.5 154.215,-0.5 5.00732,-0.5"/>
<text text-anchor="start" x="13.0073" y="-16.5" font-family="Helvetica,sans-Serif" font-size="10.00">libraries/AP_HAL_FLYMAPLE</text>
<text text-anchor="middle" x="79.6113" y="-6.5" font-family="Helvetica,sans-Serif" font-size="10.00">/HAL_FLYMAPLE_Class.cpp</text>
</a>
</g>
</g>
<!-- Node3&#45;&gt;Node4 -->
<g id="edge3" class="edge"><title>Node3&#45;&gt;Node4</title>
<path fill="none" stroke="midnightblue" d="M79.6113,-55.1641C79.6113,-46.1693 79.6113,-36.2205 79.6113,-28.5369"/>
<polygon fill="midnightblue" stroke="midnightblue" points="76.1114,-55.4463 79.6113,-65.4464 83.1114,-55.4464 76.1114,-55.4463"/>
</g>
</g>
</svg>
