<?xml version="1.0" encoding="UTF-8" standalone="no"?>
<!DOCTYPE svg PUBLIC "-//W3C//DTD SVG 1.1//EN"
 "http://www.w3.org/Graphics/SVG/1.1/DTD/svg11.dtd">
<!-- Generated by graphviz version 2.38.0 (20140413.2041)
 -->
<!-- Title: test_write Pages: 1 -->
<svg width="621pt" height="175pt"
 viewBox="0.00 0.00 621.41 175.00" xmlns="http://www.w3.org/2000/svg" xmlns:xlink="http://www.w3.org/1999/xlink">
<g id="graph0" class="graph" transform="scale(1 1) rotate(0) translate(4 171)">
<title>test_write</title>
<polygon fill="white" stroke="none" points="-4,4 -4,-171 617.409,-171 617.409,4 -4,4"/>
<!-- Node1 -->
<g id="node1" class="node"><title>Node1</title>
<polygon fill="#bfbfbf" stroke="black" points="0,-50.5 0,-68.5 58.793,-68.5 58.793,-50.5 0,-50.5"/>
<text text-anchor="middle" x="29.3965" y="-56.5" font-family="Helvetica,sans-Serif" font-size="10.00">test_write</text>
</g>
<!-- Node2 -->
<g id="node2" class="node"><title>Node2</title>
<g id="a_node2"><a xlink:href="$classAP__HAL_1_1UARTDriver.html#a65c7824b8877f7a2f79365c8ffae8f56" xlink:title="AP_HAL::UARTDriver\l::printf">
<polygon fill="white" stroke="black" points="98.7847,-69.5 98.7847,-97.5 212.407,-97.5 212.407,-69.5 98.7847,-69.5"/>
<text text-anchor="start" x="106.785" y="-85.5" font-family="Helvetica,sans-Serif" font-size="10.00">AP_HAL::UARTDriver</text>
<text text-anchor="middle" x="155.596" y="-75.5" font-family="Helvetica,sans-Serif" font-size="10.00">::printf</text>
</a>
</g>
</g>
<!-- Node1&#45;&gt;Node2 -->
<g id="edge1" class="edge"><title>Node1&#45;&gt;Node2</title>
<path fill="none" stroke="midnightblue" d="M58.8903,-65.0061C67.7909,-66.726 78.0096,-68.7007 88.382,-70.705"/>
<polygon fill="midnightblue" stroke="midnightblue" points="87.8534,-74.1675 98.3358,-72.6285 89.1815,-67.2947 87.8534,-74.1675"/>
</g>
<!-- Node10 -->
<g id="node10" class="node"><title>Node10</title>
<g id="a_node10"><a xlink:href="$classAP__HAL_1_1Storage.html#a9de79ab93ea4374bd3d1583e28620d2e" xlink:title="AP_HAL::Storage::write\l_block">
<polygon fill="white" stroke="black" points="94.793,-22.5 94.793,-50.5 216.398,-50.5 216.398,-22.5 94.793,-22.5"/>
<text text-anchor="start" x="102.793" y="-38.5" font-family="Helvetica,sans-Serif" font-size="10.00">AP_HAL::Storage::write</text>
<text text-anchor="middle" x="155.596" y="-28.5" font-family="Helvetica,sans-Serif" font-size="10.00">_block</text>
</a>
</g>
</g>
<!-- Node1&#45;&gt;Node10 -->
<g id="edge9" class="edge"><title>Node1&#45;&gt;Node10</title>
<path fill="none" stroke="midnightblue" d="M58.8903,-54.2233C66.7268,-52.7721 75.5849,-51.1317 84.6702,-49.4493"/>
<polygon fill="midnightblue" stroke="midnightblue" points="85.3847,-52.8765 94.5802,-47.6141 84.11,-45.9936 85.3847,-52.8765"/>
</g>
<!-- Node3 -->
<g id="node3" class="node"><title>Node3</title>
<g id="a_node3"><a xlink:href="$classAP__HAL_1_1UARTDriver.html#aa8abfb6d6641299472c29ac1edde559f" xlink:title="AP_HAL::UARTDriver\l::vprintf">
<polygon fill="white" stroke="black" points="252.398,-69.5 252.398,-97.5 366.021,-97.5 366.021,-69.5 252.398,-69.5"/>
<text text-anchor="start" x="260.398" y="-85.5" font-family="Helvetica,sans-Serif" font-size="10.00">AP_HAL::UARTDriver</text>
<text text-anchor="middle" x="309.209" y="-75.5" font-family="Helvetica,sans-Serif" font-size="10.00">::vprintf</text>
</a>
</g>
</g>
<!-- Node2&#45;&gt;Node3 -->
<g id="edge2" class="edge"><title>Node2&#45;&gt;Node3</title>
<path fill="none" stroke="midnightblue" d="M212.62,-83.5C222.199,-83.5 232.231,-83.5 242.044,-83.5"/>
<polygon fill="midnightblue" stroke="midnightblue" points="242.162,-87.0001 252.162,-83.5 242.162,-80.0001 242.162,-87.0001"/>
</g>
<!-- Node4 -->
<g id="node4" class="node"><title>Node4</title>
<g id="a_node4"><a xlink:href="$print__vprintf_8cpp.html#a473b9349f4b086b552a21eb8fe057016" xlink:title="print_vprintf">
<polygon fill="white" stroke="black" points="402.021,-74.5 402.021,-92.5 470.267,-92.5 470.267,-74.5 402.021,-74.5"/>
<text text-anchor="middle" x="436.144" y="-80.5" font-family="Helvetica,sans-Serif" font-size="10.00">print_vprintf</text>
</a>
</g>
</g>
<!-- Node3&#45;&gt;Node4 -->
<g id="edge3" class="edge"><title>Node3&#45;&gt;Node4</title>
<path fill="none" stroke="midnightblue" d="M366.099,-83.5C374.687,-83.5 383.443,-83.5 391.708,-83.5"/>
<polygon fill="midnightblue" stroke="midnightblue" points="391.864,-87.0001 401.864,-83.5 391.863,-80.0001 391.864,-87.0001"/>
</g>
<!-- Node5 -->
<g id="node5" class="node"><title>Node5</title>
<g id="a_node5"><a xlink:href="$classAP__HAL_1_1Print.html#acc65391952a43334f8f5c9bef341f501" xlink:title="AP_HAL::Print::write">
<polygon fill="white" stroke="black" points="506.267,-148.5 506.267,-166.5 613.409,-166.5 613.409,-148.5 506.267,-148.5"/>
<text text-anchor="middle" x="559.838" y="-154.5" font-family="Helvetica,sans-Serif" font-size="10.00">AP_HAL::Print::write</text>
</a>
</g>
</g>
<!-- Node4&#45;&gt;Node5 -->
<g id="edge4" class="edge"><title>Node4&#45;&gt;Node5</title>
<path fill="none" stroke="midnightblue" d="M446.207,-92.6327C458.73,-104.806 482.482,-126.34 506.267,-139.5 509.729,-141.416 513.431,-143.18 517.208,-144.791"/>
<polygon fill="midnightblue" stroke="midnightblue" points="516.066,-148.103 526.654,-148.483 518.614,-141.583 516.066,-148.103"/>
</g>
<!-- Node6 -->
<g id="node6" class="node"><title>Node6</title>
<g id="a_node6"><a xlink:href="$ftoa__engine_8cpp.html#a1c28234da8f20b43c85890d4bb452947" xlink:title="ftoa_engine">
<polygon fill="white" stroke="black" points="525.703,-111.5 525.703,-129.5 593.973,-129.5 593.973,-111.5 525.703,-111.5"/>
<text text-anchor="middle" x="559.838" y="-117.5" font-family="Helvetica,sans-Serif" font-size="10.00">ftoa_engine</text>
</a>
</g>
</g>
<!-- Node4&#45;&gt;Node6 -->
<g id="edge5" class="edge"><title>Node4&#45;&gt;Node6</title>
<path fill="none" stroke="midnightblue" d="M466.913,-92.5512C482.678,-97.3442 502.246,-103.294 519.271,-108.47"/>
<polygon fill="midnightblue" stroke="midnightblue" points="518.368,-111.854 528.954,-111.414 520.404,-105.156 518.368,-111.854"/>
</g>
<!-- Node7 -->
<g id="node7" class="node"><title>Node7</title>
<g id="a_node7"><a xlink:href="$AP__Progmem_8h.html#a1514e0408e036062b4af844baaf567da" xlink:title="pgm_read_byte">
<polygon fill="white" stroke="black" points="517.092,-74.5 517.092,-92.5 602.584,-92.5 602.584,-74.5 517.092,-74.5"/>
<text text-anchor="middle" x="559.838" y="-80.5" font-family="Helvetica,sans-Serif" font-size="10.00">pgm_read_byte</text>
</a>
</g>
</g>
<!-- Node4&#45;&gt;Node7 -->
<g id="edge6" class="edge"><title>Node4&#45;&gt;Node7</title>
<path fill="none" stroke="midnightblue" d="M470.397,-83.5C481.613,-83.5 494.416,-83.5 506.731,-83.5"/>
<polygon fill="midnightblue" stroke="midnightblue" points="506.915,-87.0001 516.915,-83.5 506.915,-80.0001 506.915,-87.0001"/>
</g>
<!-- Node8 -->
<g id="node8" class="node"><title>Node8</title>
<g id="a_node8"><a xlink:href="$utoa__invert_8cpp.html#a34926f552460b47c414ec4d83b32815c" xlink:title="ulltoa_invert">
<polygon fill="white" stroke="black" points="524.877,-37.5 524.877,-55.5 594.798,-55.5 594.798,-37.5 524.877,-37.5"/>
<text text-anchor="middle" x="559.838" y="-43.5" font-family="Helvetica,sans-Serif" font-size="10.00">ulltoa_invert</text>
</a>
</g>
</g>
<!-- Node4&#45;&gt;Node8 -->
<g id="edge7" class="edge"><title>Node4&#45;&gt;Node8</title>
<path fill="none" stroke="midnightblue" d="M466.913,-74.4488C482.678,-69.6558 502.246,-63.7062 519.271,-58.5298"/>
<polygon fill="midnightblue" stroke="midnightblue" points="520.404,-61.8437 528.954,-55.586 518.368,-55.1464 520.404,-61.8437"/>
</g>
<!-- Node9 -->
<g id="node9" class="node"><title>Node9</title>
<g id="a_node9"><a xlink:href="$utoa__invert_8cpp.html#a5d99bba8e697c1e11da489d88fca8559" xlink:title="ultoa_invert">
<polygon fill="white" stroke="black" points="525.988,-0.5 525.988,-18.5 593.688,-18.5 593.688,-0.5 525.988,-0.5"/>
<text text-anchor="middle" x="559.838" y="-6.5" font-family="Helvetica,sans-Serif" font-size="10.00">ultoa_invert</text>
</a>
</g>
</g>
<!-- Node4&#45;&gt;Node9 -->
<g id="edge8" class="edge"><title>Node4&#45;&gt;Node9</title>
<path fill="none" stroke="midnightblue" d="M446.706,-74.1918C459.41,-62.2457 482.971,-41.514 506.267,-28.5 510.283,-26.2563 514.615,-24.192 519.007,-22.3176"/>
<polygon fill="midnightblue" stroke="midnightblue" points="520.605,-25.4496 528.621,-18.5217 518.034,-18.9387 520.605,-25.4496"/>
</g>
</g>
</svg>
