<?xml version="1.0" encoding="UTF-8" standalone="no"?>
<!DOCTYPE svg PUBLIC "-//W3C//DTD SVG 1.1//EN"
 "http://www.w3.org/Graphics/SVG/1.1/DTD/svg11.dtd">
<!-- Generated by graphviz version 2.38.0 (20140413.2041)
 -->
<!-- Title: loop Pages: 1 -->
<svg width="197pt" height="64pt"
 viewBox="0.00 0.00 196.62 64.00" xmlns="http://www.w3.org/2000/svg" xmlns:xlink="http://www.w3.org/1999/xlink">
<g id="graph0" class="graph" transform="scale(1 1) rotate(0) translate(4 60)">
<title>loop</title>
<polygon fill="white" stroke="none" points="-4,4 -4,-60 192.62,-60 192.62,4 -4,4"/>
<!-- Node1 -->
<g id="node1" class="node"><title>Node1</title>
<polygon fill="#bfbfbf" stroke="black" points="0,-18.5 0,-36.5 34.9062,-36.5 34.9062,-18.5 0,-18.5"/>
<text text-anchor="middle" x="17.4531" y="-24.5" font-family="Helvetica,sans-Serif" font-size="10.00">loop</text>
</g>
<!-- Node2 -->
<g id="node2" class="node"><title>Node2</title>
<g id="a_node2"><a xlink:href="$classAP__HAL_1_1Stream.html#ae42ff362cc2a7e527c22f92a3740c2ac" xlink:title="AP_HAL::Stream::read">
<polygon fill="white" stroke="black" points="70.9062,-37.5 70.9062,-55.5 188.62,-55.5 188.62,-37.5 70.9062,-37.5"/>
<text text-anchor="middle" x="129.763" y="-43.5" font-family="Helvetica,sans-Serif" font-size="10.00">AP_HAL::Stream::read</text>
</a>
</g>
</g>
<!-- Node1&#45;&gt;Node2 -->
<g id="edge1" class="edge"><title>Node1&#45;&gt;Node2</title>
<path fill="none" stroke="midnightblue" d="M35.2068,-30.3857C43.7842,-31.8631 54.8214,-33.7641 66.2882,-35.7392"/>
<polygon fill="midnightblue" stroke="midnightblue" points="65.9757,-39.2368 76.4247,-37.4851 67.164,-32.3384 65.9757,-39.2368"/>
</g>
<!-- Node3 -->
<g id="node3" class="node"><title>Node3</title>
<g id="a_node3"><a xlink:href="$classAP__HAL_1_1Print.html#acc65391952a43334f8f5c9bef341f501" xlink:title="AP_HAL::Print::write">
<polygon fill="white" stroke="black" points="76.1919,-0.5 76.1919,-18.5 183.334,-18.5 183.334,-0.5 76.1919,-0.5"/>
<text text-anchor="middle" x="129.763" y="-6.5" font-family="Helvetica,sans-Serif" font-size="10.00">AP_HAL::Print::write</text>
</a>
</g>
</g>
<!-- Node1&#45;&gt;Node3 -->
<g id="edge2" class="edge"><title>Node1&#45;&gt;Node3</title>
<path fill="none" stroke="midnightblue" d="M35.2068,-24.7662C43.691,-23.3818 54.5817,-21.6047 65.9145,-19.7554"/>
<polygon fill="midnightblue" stroke="midnightblue" points="66.6321,-23.1847 75.9379,-18.1198 65.5048,-16.2761 66.6321,-23.1847"/>
</g>
</g>
</svg>
