<?xml version="1.0" encoding="UTF-8" standalone="no"?>
<!DOCTYPE svg PUBLIC "-//W3C//DTD SVG 1.1//EN"
 "http://www.w3.org/Graphics/SVG/1.1/DTD/svg11.dtd">
<!-- Generated by graphviz version 2.38.0 (20140413.2041)
 -->
<!-- Title: setup Pages: 1 -->
<svg width="632pt" height="265pt"
 viewBox="0.00 0.00 632.33 265.00" xmlns="http://www.w3.org/2000/svg" xmlns:xlink="http://www.w3.org/1999/xlink">
<g id="graph0" class="graph" transform="scale(1 1) rotate(0) translate(4 261)">
<title>setup</title>
<polygon fill="white" stroke="none" points="-4,4 -4,-261 628.332,-261 628.332,4 -4,4"/>
<!-- Node1 -->
<g id="node1" class="node"><title>Node1</title>
<polygon fill="#bfbfbf" stroke="black" points="0,-171.5 0,-189.5 40.4629,-189.5 40.4629,-171.5 0,-171.5"/>
<text text-anchor="middle" x="20.2314" y="-177.5" font-family="Helvetica,sans-Serif" font-size="10.00">setup</text>
</g>
<!-- Node2 -->
<g id="node2" class="node"><title>Node2</title>
<g id="a_node2"><a xlink:href="$classAP__HAL_1_1UARTDriver.html#a2a83124757f6f8f6eb4d25b11c9cb97e" xlink:title="AP_HAL::UARTDriver\l::begin">
<polygon fill="white" stroke="black" points="76.4629,-228.5 76.4629,-256.5 190.085,-256.5 190.085,-228.5 76.4629,-228.5"/>
<text text-anchor="start" x="84.4629" y="-244.5" font-family="Helvetica,sans-Serif" font-size="10.00">AP_HAL::UARTDriver</text>
<text text-anchor="middle" x="133.274" y="-234.5" font-family="Helvetica,sans-Serif" font-size="10.00">::begin</text>
</a>
</g>
</g>
<!-- Node1&#45;&gt;Node2 -->
<g id="edge1" class="edge"><title>Node1&#45;&gt;Node2</title>
<path fill="none" stroke="midnightblue" d="M36.0941,-189.706C47.1329,-196.464 62.6114,-205.772 76.4629,-213.5 82.4853,-216.86 88.933,-220.327 95.2297,-223.644"/>
<polygon fill="midnightblue" stroke="midnightblue" points="93.795,-226.843 104.28,-228.366 97.0332,-220.637 93.795,-226.843"/>
</g>
<!-- Node3 -->
<g id="node3" class="node"><title>Node3</title>
<g id="a_node3"><a xlink:href="$classAP__HAL_1_1Print.html#acfe80773011eb17dfb52c2fba517a093" xlink:title="AP_HAL::Print::print">
<polygon fill="white" stroke="black" points="375.707,-149.5 375.707,-167.5 481.189,-167.5 481.189,-149.5 375.707,-149.5"/>
<text text-anchor="middle" x="428.448" y="-155.5" font-family="Helvetica,sans-Serif" font-size="10.00">AP_HAL::Print::print</text>
</a>
</g>
</g>
<!-- Node1&#45;&gt;Node3 -->
<g id="edge2" class="edge"><title>Node1&#45;&gt;Node3</title>
<path fill="none" stroke="midnightblue" d="M40.6984,-181.365C90.589,-183.316 227.029,-186.971 339.707,-174.5 351.134,-173.235 363.314,-171.358 374.848,-169.33"/>
<polygon fill="midnightblue" stroke="midnightblue" points="375.572,-172.756 384.783,-167.521 374.317,-165.87 375.572,-172.756"/>
</g>
<!-- Node5 -->
<g id="node5" class="node"><title>Node5</title>
<g id="a_node5"><a xlink:href="$classAP__HAL_1_1Print.html#ad337ce3f7977411b7d34d47a51e5737e" xlink:title="AP_HAL::Print::println">
<polygon fill="white" stroke="black" points="76.6411,-152.5 76.6411,-170.5 189.907,-170.5 189.907,-152.5 76.6411,-152.5"/>
<text text-anchor="middle" x="133.274" y="-158.5" font-family="Helvetica,sans-Serif" font-size="10.00">AP_HAL::Print::println</text>
</a>
</g>
</g>
<!-- Node1&#45;&gt;Node5 -->
<g id="edge4" class="edge"><title>Node1&#45;&gt;Node5</title>
<path fill="none" stroke="midnightblue" d="M40.5736,-177.19C48.767,-175.789 58.8223,-174.068 69.237,-172.286"/>
<polygon fill="midnightblue" stroke="midnightblue" points="70.0169,-175.703 79.2833,-170.567 68.8362,-168.804 70.0169,-175.703"/>
</g>
<!-- Node7 -->
<g id="node7" class="node"><title>Node7</title>
<g id="a_node7"><a xlink:href="$classAP__HAL_1_1UARTDriver.html#a65c7824b8877f7a2f79365c8ffae8f56" xlink:title="AP_HAL::UARTDriver\l::printf">
<polygon fill="white" stroke="black" points="76.4629,-86.5 76.4629,-114.5 190.085,-114.5 190.085,-86.5 76.4629,-86.5"/>
<text text-anchor="start" x="84.4629" y="-102.5" font-family="Helvetica,sans-Serif" font-size="10.00">AP_HAL::UARTDriver</text>
<text text-anchor="middle" x="133.274" y="-92.5" font-family="Helvetica,sans-Serif" font-size="10.00">::printf</text>
</a>
</g>
</g>
<!-- Node1&#45;&gt;Node7 -->
<g id="edge8" class="edge"><title>Node1&#45;&gt;Node7</title>
<path fill="none" stroke="midnightblue" d="M33.9694,-171.323C51.0432,-159.022 81.8131,-136.854 104.394,-120.586"/>
<polygon fill="midnightblue" stroke="midnightblue" points="106.534,-123.358 112.602,-114.673 102.442,-117.679 106.534,-123.358"/>
</g>
<!-- Node4 -->
<g id="node4" class="node"><title>Node4</title>
<g id="a_node4"><a xlink:href="$classAP__HAL_1_1Print.html#acc65391952a43334f8f5c9bef341f501" xlink:title="AP_HAL::Print::write">
<polygon fill="white" stroke="black" points="517.189,-149.5 517.189,-167.5 624.332,-167.5 624.332,-149.5 517.189,-149.5"/>
<text text-anchor="middle" x="570.761" y="-155.5" font-family="Helvetica,sans-Serif" font-size="10.00">AP_HAL::Print::write</text>
</a>
</g>
</g>
<!-- Node3&#45;&gt;Node4 -->
<g id="edge3" class="edge"><title>Node3&#45;&gt;Node4</title>
<path fill="none" stroke="midnightblue" d="M481.297,-158.5C489.713,-158.5 498.508,-158.5 507.148,-158.5"/>
<polygon fill="midnightblue" stroke="midnightblue" points="507.188,-162 517.188,-158.5 507.188,-155 507.188,-162"/>
</g>
<!-- Node5&#45;&gt;Node3 -->
<g id="edge5" class="edge"><title>Node5&#45;&gt;Node3</title>
<path fill="none" stroke="midnightblue" d="M190.108,-160.929C240.105,-160.417 313.323,-159.668 365.192,-159.137"/>
<polygon fill="midnightblue" stroke="midnightblue" points="365.305,-162.636 375.268,-159.034 365.233,-155.637 365.305,-162.636"/>
</g>
<!-- Node6 -->
<g id="node6" class="node"><title>Node6</title>
<g id="a_node6"><a xlink:href="$classAP__HAL_1_1Print.html#a169b128f9e22f0c15883768f580541a2" xlink:title="AP_HAL::Print::println">
<polygon fill="white" stroke="black" points="226.263,-114.5 226.263,-132.5 339.529,-132.5 339.529,-114.5 226.263,-114.5"/>
<text text-anchor="middle" x="282.896" y="-120.5" font-family="Helvetica,sans-Serif" font-size="10.00">AP_HAL::Print::println</text>
</a>
</g>
</g>
<!-- Node5&#45;&gt;Node6 -->
<g id="edge6" class="edge"><title>Node5&#45;&gt;Node6</title>
<path fill="none" stroke="midnightblue" d="M169.258,-152.495C189.591,-147.261 215.419,-140.612 237.212,-135.002"/>
<polygon fill="midnightblue" stroke="midnightblue" points="238.095,-138.389 246.907,-132.507 236.35,-131.61 238.095,-138.389"/>
</g>
<!-- Node6&#45;&gt;Node3 -->
<g id="edge7" class="edge"><title>Node6&#45;&gt;Node3</title>
<path fill="none" stroke="midnightblue" d="M320.864,-132.513C338.974,-136.929 360.985,-142.295 380.292,-147.003"/>
<polygon fill="midnightblue" stroke="midnightblue" points="379.562,-150.427 390.106,-149.396 381.22,-143.626 379.562,-150.427"/>
</g>
<!-- Node8 -->
<g id="node8" class="node"><title>Node8</title>
<g id="a_node8"><a xlink:href="$classAP__HAL_1_1UARTDriver.html#aa8abfb6d6641299472c29ac1edde559f" xlink:title="AP_HAL::UARTDriver\l::vprintf">
<polygon fill="white" stroke="black" points="226.085,-67.5 226.085,-95.5 339.707,-95.5 339.707,-67.5 226.085,-67.5"/>
<text text-anchor="start" x="234.085" y="-83.5" font-family="Helvetica,sans-Serif" font-size="10.00">AP_HAL::UARTDriver</text>
<text text-anchor="middle" x="282.896" y="-73.5" font-family="Helvetica,sans-Serif" font-size="10.00">::vprintf</text>
</a>
</g>
</g>
<!-- Node7&#45;&gt;Node8 -->
<g id="edge9" class="edge"><title>Node7&#45;&gt;Node8</title>
<path fill="none" stroke="midnightblue" d="M190.505,-93.2627C198.73,-92.204 207.265,-91.1055 215.668,-90.024"/>
<polygon fill="midnightblue" stroke="midnightblue" points="216.35,-93.4652 225.822,-88.7172 215.457,-86.5224 216.35,-93.4652"/>
</g>
<!-- Node9 -->
<g id="node9" class="node"><title>Node9</title>
<g id="a_node9"><a xlink:href="$print__vprintf_8cpp.html#a473b9349f4b086b552a21eb8fe057016" xlink:title="print_vprintf">
<polygon fill="white" stroke="black" points="394.325,-73.5 394.325,-91.5 462.571,-91.5 462.571,-73.5 394.325,-73.5"/>
<text text-anchor="middle" x="428.448" y="-79.5" font-family="Helvetica,sans-Serif" font-size="10.00">print_vprintf</text>
</a>
</g>
</g>
<!-- Node8&#45;&gt;Node9 -->
<g id="edge10" class="edge"><title>Node8&#45;&gt;Node9</title>
<path fill="none" stroke="midnightblue" d="M339.808,-81.8895C354.488,-81.9917 370.099,-82.1005 384.017,-82.1975"/>
<polygon fill="midnightblue" stroke="midnightblue" points="384.262,-85.6991 394.286,-82.269 384.311,-78.6993 384.262,-85.6991"/>
</g>
<!-- Node9&#45;&gt;Node4 -->
<g id="edge11" class="edge"><title>Node9&#45;&gt;Node4</title>
<path fill="none" stroke="midnightblue" d="M441.756,-91.5053C458.308,-103.343 488.934,-124.296 517.189,-138.5 522.261,-141.049 527.739,-143.472 533.179,-145.694"/>
<polygon fill="midnightblue" stroke="midnightblue" points="532.243,-149.086 542.831,-149.461 534.788,-142.565 532.243,-149.086"/>
</g>
<!-- Node10 -->
<g id="node10" class="node"><title>Node10</title>
<g id="a_node10"><a xlink:href="$ftoa__engine_8cpp.html#a1c28234da8f20b43c85890d4bb452947" xlink:title="ftoa_engine">
<polygon fill="white" stroke="black" points="536.625,-111.5 536.625,-129.5 604.896,-129.5 604.896,-111.5 536.625,-111.5"/>
<text text-anchor="middle" x="570.761" y="-117.5" font-family="Helvetica,sans-Serif" font-size="10.00">ftoa_engine</text>
</a>
</g>
</g>
<!-- Node9&#45;&gt;Node10 -->
<g id="edge12" class="edge"><title>Node9&#45;&gt;Node10</title>
<path fill="none" stroke="midnightblue" d="M462.7,-91.5055C481.783,-96.6734 505.957,-103.22 526.504,-108.785"/>
<polygon fill="midnightblue" stroke="midnightblue" points="525.694,-112.192 536.261,-111.427 527.524,-105.435 525.694,-112.192"/>
</g>
<!-- Node11 -->
<g id="node11" class="node"><title>Node11</title>
<g id="a_node11"><a xlink:href="$AP__Progmem_8h.html#a1514e0408e036062b4af844baaf567da" xlink:title="pgm_read_byte">
<polygon fill="white" stroke="black" points="528.015,-74.5 528.015,-92.5 613.507,-92.5 613.507,-74.5 528.015,-74.5"/>
<text text-anchor="middle" x="570.761" y="-80.5" font-family="Helvetica,sans-Serif" font-size="10.00">pgm_read_byte</text>
</a>
</g>
</g>
<!-- Node9&#45;&gt;Node11 -->
<g id="edge13" class="edge"><title>Node9&#45;&gt;Node11</title>
<path fill="none" stroke="midnightblue" d="M462.7,-82.737C479.179,-82.8544 499.456,-82.9989 517.914,-83.1305"/>
<polygon fill="midnightblue" stroke="midnightblue" points="517.921,-86.6305 527.946,-83.202 517.971,-79.6307 517.921,-86.6305"/>
</g>
<!-- Node12 -->
<g id="node12" class="node"><title>Node12</title>
<g id="a_node12"><a xlink:href="$utoa__invert_8cpp.html#a34926f552460b47c414ec4d83b32815c" xlink:title="ulltoa_invert">
<polygon fill="white" stroke="black" points="535.8,-37.5 535.8,-55.5 605.721,-55.5 605.721,-37.5 535.8,-37.5"/>
<text text-anchor="middle" x="570.761" y="-43.5" font-family="Helvetica,sans-Serif" font-size="10.00">ulltoa_invert</text>
</a>
</g>
</g>
<!-- Node9&#45;&gt;Node12 -->
<g id="edge14" class="edge"><title>Node9&#45;&gt;Node12</title>
<path fill="none" stroke="midnightblue" d="M462.7,-73.9685C481.643,-69.1083 505.605,-62.9606 526.054,-57.714"/>
<polygon fill="midnightblue" stroke="midnightblue" points="526.956,-61.0958 535.773,-55.2203 525.217,-54.3154 526.956,-61.0958"/>
</g>
<!-- Node13 -->
<g id="node13" class="node"><title>Node13</title>
<g id="a_node13"><a xlink:href="$utoa__invert_8cpp.html#a5d99bba8e697c1e11da489d88fca8559" xlink:title="ultoa_invert">
<polygon fill="white" stroke="black" points="536.911,-0.5 536.911,-18.5 604.61,-18.5 604.61,-0.5 536.911,-0.5"/>
<text text-anchor="middle" x="570.761" y="-6.5" font-family="Helvetica,sans-Serif" font-size="10.00">ultoa_invert</text>
</a>
</g>
</g>
<!-- Node9&#45;&gt;Node13 -->
<g id="edge15" class="edge"><title>Node9&#45;&gt;Node13</title>
<path fill="none" stroke="midnightblue" d="M441.997,-73.3299C458.566,-61.5333 488.953,-40.9629 517.189,-27.5 521.267,-25.5558 525.612,-23.7205 529.99,-22.0195"/>
<polygon fill="midnightblue" stroke="midnightblue" points="531.352,-25.248 539.536,-18.5197 528.943,-18.6758 531.352,-25.248"/>
</g>
</g>
</svg>
