<?xml version="1.0" encoding="UTF-8" standalone="no"?>
<!DOCTYPE svg PUBLIC "-//W3C//DTD SVG 1.1//EN"
 "http://www.w3.org/Graphics/SVG/1.1/DTD/svg11.dtd">
<!-- Generated by graphviz version 2.38.0 (20140413.2041)
 -->
<!-- Title: setup Pages: 1 -->
<svg width="750pt" height="206pt"
 viewBox="0.00 0.00 749.58 206.00" xmlns="http://www.w3.org/2000/svg" xmlns:xlink="http://www.w3.org/1999/xlink">
<g id="graph0" class="graph" transform="scale(1 1) rotate(0) translate(4 202)">
<title>setup</title>
<polygon fill="white" stroke="none" points="-4,4 -4,-202 745.576,-202 745.576,4 -4,4"/>
<!-- Node1 -->
<g id="node1" class="node"><title>Node1</title>
<polygon fill="#bfbfbf" stroke="black" points="0,-94.5 0,-112.5 40.4629,-112.5 40.4629,-94.5 0,-94.5"/>
<text text-anchor="middle" x="20.2314" y="-100.5" font-family="Helvetica,sans-Serif" font-size="10.00">setup</text>
</g>
<!-- Node2 -->
<g id="node2" class="node"><title>Node2</title>
<g id="a_node2"><a xlink:href="$classAP__HAL_1_1Scheduler.html#ab3175e2e6223ccfe82f957e41cc12b26" xlink:title="AP_HAL::Scheduler::\ldelay">
<polygon fill="white" stroke="black" points="76.4629,-169.5 76.4629,-197.5 186.96,-197.5 186.96,-169.5 76.4629,-169.5"/>
<text text-anchor="start" x="84.4629" y="-185.5" font-family="Helvetica,sans-Serif" font-size="10.00">AP_HAL::Scheduler::</text>
<text text-anchor="middle" x="131.711" y="-175.5" font-family="Helvetica,sans-Serif" font-size="10.00">delay</text>
</a>
</g>
</g>
<!-- Node1&#45;&gt;Node2 -->
<g id="edge1" class="edge"><title>Node1&#45;&gt;Node2</title>
<path fill="none" stroke="midnightblue" d="M28.1818,-112.702C37.8567,-124.987 56.4618,-146.785 76.4629,-160.5 78.5668,-161.943 80.7756,-163.323 83.0488,-164.638"/>
<polygon fill="midnightblue" stroke="midnightblue" points="81.5737,-167.817 92.051,-169.391 84.8418,-161.627 81.5737,-167.817"/>
</g>
<!-- Node3 -->
<g id="node3" class="node"><title>Node3</title>
<g id="a_node3"><a xlink:href="$classAP__HAL_1_1UARTDriver.html#a65c7824b8877f7a2f79365c8ffae8f56" xlink:title="AP_HAL::UARTDriver\l::printf">
<polygon fill="white" stroke="black" points="226.952,-94.5 226.952,-122.5 340.574,-122.5 340.574,-94.5 226.952,-94.5"/>
<text text-anchor="start" x="234.952" y="-110.5" font-family="Helvetica,sans-Serif" font-size="10.00">AP_HAL::UARTDriver</text>
<text text-anchor="middle" x="283.763" y="-100.5" font-family="Helvetica,sans-Serif" font-size="10.00">::printf</text>
</a>
</g>
</g>
<!-- Node1&#45;&gt;Node3 -->
<g id="edge2" class="edge"><title>Node1&#45;&gt;Node3</title>
<path fill="none" stroke="midnightblue" d="M40.8888,-103.876C77.702,-104.58 158.56,-106.125 216.66,-107.236"/>
<polygon fill="midnightblue" stroke="midnightblue" points="216.799,-110.739 226.865,-107.431 216.933,-103.741 216.799,-110.739"/>
</g>
<!-- Node11 -->
<g id="node11" class="node"><title>Node11</title>
<g id="a_node11"><a xlink:href="$FLYMAPLE_2examples_2Storage_2Storage_8cpp.html#a8de269f8ce270f47a470b83995bafee0" xlink:title="test_readback">
<polygon fill="white" stroke="black" points="92.3027,-56.5 92.3027,-74.5 171.12,-74.5 171.12,-56.5 92.3027,-56.5"/>
<text text-anchor="middle" x="131.711" y="-62.5" font-family="Helvetica,sans-Serif" font-size="10.00">test_readback</text>
</a>
</g>
</g>
<!-- Node1&#45;&gt;Node11 -->
<g id="edge10" class="edge"><title>Node1&#45;&gt;Node11</title>
<path fill="none" stroke="midnightblue" d="M40.5523,-96.7938C55.5726,-91.5803 76.8281,-84.2027 94.9286,-77.9201"/>
<polygon fill="midnightblue" stroke="midnightblue" points="96.3008,-81.1487 104.6,-74.5631 94.0054,-74.5357 96.3008,-81.1487"/>
</g>
<!-- Node13 -->
<g id="node13" class="node"><title>Node13</title>
<g id="a_node13"><a xlink:href="$FLYMAPLE_2examples_2Storage_2Storage_8cpp.html#a3ddda918f1a30c3374704d5a1e9e7b8c" xlink:title="test_erase">
<polygon fill="white" stroke="black" points="100.364,-132.5 100.364,-150.5 163.059,-150.5 163.059,-132.5 100.364,-132.5"/>
<text text-anchor="middle" x="131.711" y="-138.5" font-family="Helvetica,sans-Serif" font-size="10.00">test_erase</text>
</a>
</g>
</g>
<!-- Node1&#45;&gt;Node13 -->
<g id="edge13" class="edge"><title>Node1&#45;&gt;Node13</title>
<path fill="none" stroke="midnightblue" d="M40.5523,-110.206C55.5726,-115.42 76.8281,-122.797 94.9286,-129.08"/>
<polygon fill="midnightblue" stroke="midnightblue" points="94.0054,-132.464 104.6,-132.437 96.3008,-125.851 94.0054,-132.464"/>
</g>
<!-- Node14 -->
<g id="node14" class="node"><title>Node14</title>
<g id="a_node14"><a xlink:href="$FLYMAPLE_2examples_2Storage_2Storage_8cpp.html#a29da9175b91a9b8fbadf2499e84c11e3" xlink:title="test_write">
<polygon fill="white" stroke="black" points="102.315,-19.5 102.315,-37.5 161.108,-37.5 161.108,-19.5 102.315,-19.5"/>
<text text-anchor="middle" x="131.711" y="-25.5" font-family="Helvetica,sans-Serif" font-size="10.00">test_write</text>
</a>
</g>
</g>
<!-- Node1&#45;&gt;Node14 -->
<g id="edge15" class="edge"><title>Node1&#45;&gt;Node14</title>
<path fill="none" stroke="midnightblue" d="M27.7043,-94.4828C37.1034,-82.0062 55.6919,-59.5445 76.4629,-46.5 81.4694,-43.3558 87.0839,-40.7002 92.7521,-38.476"/>
<polygon fill="midnightblue" stroke="midnightblue" points="93.9765,-41.7555 102.244,-35.1301 91.6494,-35.1537 93.9765,-41.7555"/>
</g>
<!-- Node4 -->
<g id="node4" class="node"><title>Node4</title>
<g id="a_node4"><a xlink:href="$classAP__HAL_1_1UARTDriver.html#aa8abfb6d6641299472c29ac1edde559f" xlink:title="AP_HAL::UARTDriver\l::vprintf">
<polygon fill="white" stroke="black" points="380.565,-94.5 380.565,-122.5 494.188,-122.5 494.188,-94.5 380.565,-94.5"/>
<text text-anchor="start" x="388.565" y="-110.5" font-family="Helvetica,sans-Serif" font-size="10.00">AP_HAL::UARTDriver</text>
<text text-anchor="middle" x="437.376" y="-100.5" font-family="Helvetica,sans-Serif" font-size="10.00">::vprintf</text>
</a>
</g>
</g>
<!-- Node3&#45;&gt;Node4 -->
<g id="edge3" class="edge"><title>Node3&#45;&gt;Node4</title>
<path fill="none" stroke="midnightblue" d="M340.787,-108.5C350.366,-108.5 360.398,-108.5 370.211,-108.5"/>
<polygon fill="midnightblue" stroke="midnightblue" points="370.329,-112 380.329,-108.5 370.329,-105 370.329,-112"/>
</g>
<!-- Node5 -->
<g id="node5" class="node"><title>Node5</title>
<g id="a_node5"><a xlink:href="$print__vprintf_8cpp.html#a473b9349f4b086b552a21eb8fe057016" xlink:title="print_vprintf">
<polygon fill="white" stroke="black" points="530.188,-99.5 530.188,-117.5 598.434,-117.5 598.434,-99.5 530.188,-99.5"/>
<text text-anchor="middle" x="564.311" y="-105.5" font-family="Helvetica,sans-Serif" font-size="10.00">print_vprintf</text>
</a>
</g>
</g>
<!-- Node4&#45;&gt;Node5 -->
<g id="edge4" class="edge"><title>Node4&#45;&gt;Node5</title>
<path fill="none" stroke="midnightblue" d="M494.266,-108.5C502.854,-108.5 511.61,-108.5 519.875,-108.5"/>
<polygon fill="midnightblue" stroke="midnightblue" points="520.031,-112 530.03,-108.5 520.03,-105 520.031,-112"/>
</g>
<!-- Node6 -->
<g id="node6" class="node"><title>Node6</title>
<g id="a_node6"><a xlink:href="$classAP__HAL_1_1Print.html#acc65391952a43334f8f5c9bef341f501" xlink:title="AP_HAL::Print::write">
<polygon fill="white" stroke="black" points="634.434,-173.5 634.434,-191.5 741.576,-191.5 741.576,-173.5 634.434,-173.5"/>
<text text-anchor="middle" x="688.005" y="-179.5" font-family="Helvetica,sans-Serif" font-size="10.00">AP_HAL::Print::write</text>
</a>
</g>
</g>
<!-- Node5&#45;&gt;Node6 -->
<g id="edge5" class="edge"><title>Node5&#45;&gt;Node6</title>
<path fill="none" stroke="midnightblue" d="M574.374,-117.633C586.897,-129.806 610.649,-151.34 634.434,-164.5 637.896,-166.416 641.598,-168.18 645.375,-169.791"/>
<polygon fill="midnightblue" stroke="midnightblue" points="644.233,-173.103 654.821,-173.483 646.781,-166.583 644.233,-173.103"/>
</g>
<!-- Node7 -->
<g id="node7" class="node"><title>Node7</title>
<g id="a_node7"><a xlink:href="$ftoa__engine_8cpp.html#a1c28234da8f20b43c85890d4bb452947" xlink:title="ftoa_engine">
<polygon fill="white" stroke="black" points="653.87,-136.5 653.87,-154.5 722.14,-154.5 722.14,-136.5 653.87,-136.5"/>
<text text-anchor="middle" x="688.005" y="-142.5" font-family="Helvetica,sans-Serif" font-size="10.00">ftoa_engine</text>
</a>
</g>
</g>
<!-- Node5&#45;&gt;Node7 -->
<g id="edge6" class="edge"><title>Node5&#45;&gt;Node7</title>
<path fill="none" stroke="midnightblue" d="M595.08,-117.551C610.845,-122.344 630.413,-128.294 647.438,-133.47"/>
<polygon fill="midnightblue" stroke="midnightblue" points="646.535,-136.854 657.121,-136.414 648.571,-130.156 646.535,-136.854"/>
</g>
<!-- Node8 -->
<g id="node8" class="node"><title>Node8</title>
<g id="a_node8"><a xlink:href="$AP__Progmem_8h.html#a1514e0408e036062b4af844baaf567da" xlink:title="pgm_read_byte">
<polygon fill="white" stroke="black" points="645.259,-99.5 645.259,-117.5 730.751,-117.5 730.751,-99.5 645.259,-99.5"/>
<text text-anchor="middle" x="688.005" y="-105.5" font-family="Helvetica,sans-Serif" font-size="10.00">pgm_read_byte</text>
</a>
</g>
</g>
<!-- Node5&#45;&gt;Node8 -->
<g id="edge7" class="edge"><title>Node5&#45;&gt;Node8</title>
<path fill="none" stroke="midnightblue" d="M598.564,-108.5C609.78,-108.5 622.583,-108.5 634.898,-108.5"/>
<polygon fill="midnightblue" stroke="midnightblue" points="635.082,-112 645.082,-108.5 635.082,-105 635.082,-112"/>
</g>
<!-- Node9 -->
<g id="node9" class="node"><title>Node9</title>
<g id="a_node9"><a xlink:href="$utoa__invert_8cpp.html#a34926f552460b47c414ec4d83b32815c" xlink:title="ulltoa_invert">
<polygon fill="white" stroke="black" points="653.044,-62.5 653.044,-80.5 722.965,-80.5 722.965,-62.5 653.044,-62.5"/>
<text text-anchor="middle" x="688.005" y="-68.5" font-family="Helvetica,sans-Serif" font-size="10.00">ulltoa_invert</text>
</a>
</g>
</g>
<!-- Node5&#45;&gt;Node9 -->
<g id="edge8" class="edge"><title>Node5&#45;&gt;Node9</title>
<path fill="none" stroke="midnightblue" d="M595.08,-99.4488C610.845,-94.6558 630.413,-88.7062 647.438,-83.5298"/>
<polygon fill="midnightblue" stroke="midnightblue" points="648.571,-86.8437 657.121,-80.586 646.535,-80.1464 648.571,-86.8437"/>
</g>
<!-- Node10 -->
<g id="node10" class="node"><title>Node10</title>
<g id="a_node10"><a xlink:href="$utoa__invert_8cpp.html#a5d99bba8e697c1e11da489d88fca8559" xlink:title="ultoa_invert">
<polygon fill="white" stroke="black" points="654.155,-25.5 654.155,-43.5 721.854,-43.5 721.854,-25.5 654.155,-25.5"/>
<text text-anchor="middle" x="688.005" y="-31.5" font-family="Helvetica,sans-Serif" font-size="10.00">ultoa_invert</text>
</a>
</g>
</g>
<!-- Node5&#45;&gt;Node10 -->
<g id="edge9" class="edge"><title>Node5&#45;&gt;Node10</title>
<path fill="none" stroke="midnightblue" d="M574.374,-99.3673C586.897,-87.194 610.649,-65.6603 634.434,-52.5 637.896,-50.5843 641.598,-48.8204 645.375,-47.2089"/>
<polygon fill="midnightblue" stroke="midnightblue" points="646.781,-50.4172 654.821,-43.517 644.233,-43.8974 646.781,-50.4172"/>
</g>
<!-- Node11&#45;&gt;Node3 -->
<g id="edge11" class="edge"><title>Node11&#45;&gt;Node3</title>
<path fill="none" stroke="midnightblue" d="M164.167,-74.5142C181.449,-79.4665 203.45,-85.7714 223.797,-91.6024"/>
<polygon fill="midnightblue" stroke="midnightblue" points="223.048,-95.0285 233.625,-94.4188 224.977,-88.2993 223.048,-95.0285"/>
</g>
<!-- Node12 -->
<g id="node12" class="node"><title>Node12</title>
<g id="a_node12"><a xlink:href="$classAP__HAL_1_1Storage.html#a1c3b1e80b0bec7d4bacd3ecbefb3b3f3" xlink:title="AP_HAL::Storage::read\l_block">
<polygon fill="white" stroke="black" points="223.509,-47.5 223.509,-75.5 344.016,-75.5 344.016,-47.5 223.509,-47.5"/>
<text text-anchor="start" x="231.509" y="-63.5" font-family="Helvetica,sans-Serif" font-size="10.00">AP_HAL::Storage::read</text>
<text text-anchor="middle" x="283.763" y="-53.5" font-family="Helvetica,sans-Serif" font-size="10.00">_block</text>
</a>
</g>
</g>
<!-- Node11&#45;&gt;Node12 -->
<g id="edge12" class="edge"><title>Node11&#45;&gt;Node12</title>
<path fill="none" stroke="midnightblue" d="M171.353,-64.4699C184.071,-64.1309 198.628,-63.7428 212.932,-63.3615"/>
<polygon fill="midnightblue" stroke="midnightblue" points="213.37,-66.8512 223.273,-63.0858 213.184,-59.8537 213.37,-66.8512"/>
</g>
<!-- Node13&#45;&gt;Node3 -->
<g id="edge14" class="edge"><title>Node13&#45;&gt;Node3</title>
<path fill="none" stroke="midnightblue" d="M163.077,-134.822C178.611,-131.406 198.161,-127.106 216.932,-122.978"/>
<polygon fill="midnightblue" stroke="midnightblue" points="217.934,-126.341 226.949,-120.775 216.431,-119.504 217.934,-126.341"/>
</g>
<!-- Node14&#45;&gt;Node3 -->
<g id="edge16" class="edge"><title>Node14&#45;&gt;Node3</title>
<path fill="none" stroke="midnightblue" d="M161.212,-35.0767C169.884,-37.8185 179.173,-41.5481 186.96,-46.5 206.591,-58.9836 203.72,-71.421 222.96,-84.5 225.822,-86.4458 228.866,-88.2718 232.006,-89.9785"/>
<polygon fill="midnightblue" stroke="midnightblue" points="230.525,-93.1511 241.037,-94.4732 233.644,-86.8842 230.525,-93.1511"/>
</g>
<!-- Node15 -->
<g id="node15" class="node"><title>Node15</title>
<g id="a_node15"><a xlink:href="$classAP__HAL_1_1Storage.html#a9de79ab93ea4374bd3d1583e28620d2e" xlink:title="AP_HAL::Storage::write\l_block">
<polygon fill="white" stroke="black" points="222.96,-0.5 222.96,-28.5 344.565,-28.5 344.565,-0.5 222.96,-0.5"/>
<text text-anchor="start" x="230.96" y="-16.5" font-family="Helvetica,sans-Serif" font-size="10.00">AP_HAL::Storage::write</text>
<text text-anchor="middle" x="283.763" y="-6.5" font-family="Helvetica,sans-Serif" font-size="10.00">_block</text>
</a>
</g>
</g>
<!-- Node14&#45;&gt;Node15 -->
<g id="edge17" class="edge"><title>Node14&#45;&gt;Node15</title>
<path fill="none" stroke="midnightblue" d="M161.288,-25.8338C175.996,-24.4615 194.63,-22.7229 212.859,-21.0221"/>
<polygon fill="midnightblue" stroke="midnightblue" points="213.285,-24.4976 222.917,-20.0837 212.635,-17.5279 213.285,-24.4976"/>
</g>
</g>
</svg>
