<?xml version="1.0" encoding="UTF-8" standalone="no"?>
<!DOCTYPE svg PUBLIC "-//W3C//DTD SVG 1.1//EN"
 "http://www.w3.org/Graphics/SVG/1.1/DTD/svg11.dtd">
<!-- Generated by graphviz version 2.38.0 (20140413.2041)
 -->
<!-- Title: setup Pages: 1 -->
<svg width="213pt" height="64pt"
 viewBox="0.00 0.00 213.29 64.00" xmlns="http://www.w3.org/2000/svg" xmlns:xlink="http://www.w3.org/1999/xlink">
<g id="graph0" class="graph" transform="scale(1 1) rotate(0) translate(4 60)">
<title>setup</title>
<polygon fill="white" stroke="none" points="-4,4 -4,-60 209.295,-60 209.295,4 -4,4"/>
<!-- Node1 -->
<g id="node1" class="node"><title>Node1</title>
<polygon fill="#bfbfbf" stroke="black" points="0,-18.5 0,-36.5 40.4629,-36.5 40.4629,-18.5 0,-18.5"/>
<text text-anchor="middle" x="20.2314" y="-24.5" font-family="Helvetica,sans-Serif" font-size="10.00">setup</text>
</g>
<!-- Node2 -->
<g id="node2" class="node"><title>Node2</title>
<g id="a_node2"><a xlink:href="$classAP__HAL_1_1GPIO.html#a3dfc60214bd1aa4936d51ca72c045b95" xlink:title="AP_HAL::GPIO::pinMode">
<polygon fill="white" stroke="black" points="76.4629,-37.5 76.4629,-55.5 205.295,-55.5 205.295,-37.5 76.4629,-37.5"/>
<text text-anchor="middle" x="140.879" y="-43.5" font-family="Helvetica,sans-Serif" font-size="10.00">AP_HAL::GPIO::pinMode</text>
</a>
</g>
</g>
<!-- Node1&#45;&gt;Node2 -->
<g id="edge1" class="edge"><title>Node1&#45;&gt;Node2</title>
<path fill="none" stroke="midnightblue" d="M40.5583,-30.595C49.7923,-32.0737 61.4464,-33.94 73.4946,-35.8693"/>
<polygon fill="midnightblue" stroke="midnightblue" points="73.2356,-39.3724 83.6633,-37.4977 74.3426,-32.4604 73.2356,-39.3724"/>
</g>
<!-- Node3 -->
<g id="node3" class="node"><title>Node3</title>
<g id="a_node3"><a xlink:href="$classAP__HAL_1_1GPIO.html#a2b0664bdab1876e3b0bbcd9064eec88e" xlink:title="AP_HAL::GPIO::write">
<polygon fill="white" stroke="black" points="85.0859,-0.5 85.0859,-18.5 196.672,-18.5 196.672,-0.5 85.0859,-0.5"/>
<text text-anchor="middle" x="140.879" y="-6.5" font-family="Helvetica,sans-Serif" font-size="10.00">AP_HAL::GPIO::write</text>
</a>
</g>
</g>
<!-- Node1&#45;&gt;Node3 -->
<g id="edge2" class="edge"><title>Node1&#45;&gt;Node3</title>
<path fill="none" stroke="midnightblue" d="M40.5583,-24.5679C50.1437,-23.1137 62.3369,-21.2639 74.8717,-19.3622"/>
<polygon fill="midnightblue" stroke="midnightblue" points="75.5924,-22.793 84.9543,-17.8326 74.5424,-15.8722 75.5924,-22.793"/>
</g>
</g>
</svg>
