<?xml version="1.0" encoding="UTF-8" standalone="no"?>
<!DOCTYPE svg PUBLIC "-//W3C//DTD SVG 1.1//EN"
 "http://www.w3.org/Graphics/SVG/1.1/DTD/svg11.dtd">
<!-- Generated by graphviz version 2.38.0 (20140413.2041)
 -->
<!-- Title: test_erase Pages: 1 -->
<svg width="617pt" height="175pt"
 viewBox="0.00 0.00 617.33 175.00" xmlns="http://www.w3.org/2000/svg" xmlns:xlink="http://www.w3.org/1999/xlink">
<g id="graph0" class="graph" transform="scale(1 1) rotate(0) translate(4 171)">
<title>test_erase</title>
<polygon fill="white" stroke="none" points="-4,4 -4,-171 613.327,-171 613.327,4 -4,4"/>
<!-- Node1 -->
<g id="node1" class="node"><title>Node1</title>
<polygon fill="#bfbfbf" stroke="black" points="0,-74.5 0,-92.5 62.6943,-92.5 62.6943,-74.5 0,-74.5"/>
<text text-anchor="middle" x="31.3472" y="-80.5" font-family="Helvetica,sans-Serif" font-size="10.00">test_erase</text>
</g>
<!-- Node2 -->
<g id="node2" class="node"><title>Node2</title>
<g id="a_node2"><a xlink:href="$classAP__HAL_1_1UARTDriver.html#a65c7824b8877f7a2f79365c8ffae8f56" xlink:title="AP_HAL::UARTDriver\l::printf">
<polygon fill="white" stroke="black" points="98.6943,-69.5 98.6943,-97.5 212.316,-97.5 212.316,-69.5 98.6943,-69.5"/>
<text text-anchor="start" x="106.694" y="-85.5" font-family="Helvetica,sans-Serif" font-size="10.00">AP_HAL::UARTDriver</text>
<text text-anchor="middle" x="155.505" y="-75.5" font-family="Helvetica,sans-Serif" font-size="10.00">::printf</text>
</a>
</g>
</g>
<!-- Node1&#45;&gt;Node2 -->
<g id="edge1" class="edge"><title>Node1&#45;&gt;Node2</title>
<path fill="none" stroke="midnightblue" d="M62.8577,-83.5C70.6622,-83.5 79.3638,-83.5 88.2125,-83.5"/>
<polygon fill="midnightblue" stroke="midnightblue" points="88.2254,-87.0001 98.2254,-83.5 88.2253,-80.0001 88.2254,-87.0001"/>
</g>
<!-- Node3 -->
<g id="node3" class="node"><title>Node3</title>
<g id="a_node3"><a xlink:href="$classAP__HAL_1_1UARTDriver.html#aa8abfb6d6641299472c29ac1edde559f" xlink:title="AP_HAL::UARTDriver\l::vprintf">
<polygon fill="white" stroke="black" points="248.316,-69.5 248.316,-97.5 361.938,-97.5 361.938,-69.5 248.316,-69.5"/>
<text text-anchor="start" x="256.316" y="-85.5" font-family="Helvetica,sans-Serif" font-size="10.00">AP_HAL::UARTDriver</text>
<text text-anchor="middle" x="305.127" y="-75.5" font-family="Helvetica,sans-Serif" font-size="10.00">::vprintf</text>
</a>
</g>
</g>
<!-- Node2&#45;&gt;Node3 -->
<g id="edge2" class="edge"><title>Node2&#45;&gt;Node3</title>
<path fill="none" stroke="midnightblue" d="M212.736,-83.5C220.962,-83.5 229.497,-83.5 237.899,-83.5"/>
<polygon fill="midnightblue" stroke="midnightblue" points="238.053,-87.0001 248.053,-83.5 238.053,-80.0001 238.053,-87.0001"/>
</g>
<!-- Node4 -->
<g id="node4" class="node"><title>Node4</title>
<g id="a_node4"><a xlink:href="$print__vprintf_8cpp.html#a473b9349f4b086b552a21eb8fe057016" xlink:title="print_vprintf">
<polygon fill="white" stroke="black" points="397.938,-74.5 397.938,-92.5 466.185,-92.5 466.185,-74.5 397.938,-74.5"/>
<text text-anchor="middle" x="432.062" y="-80.5" font-family="Helvetica,sans-Serif" font-size="10.00">print_vprintf</text>
</a>
</g>
</g>
<!-- Node3&#45;&gt;Node4 -->
<g id="edge3" class="edge"><title>Node3&#45;&gt;Node4</title>
<path fill="none" stroke="midnightblue" d="M362.017,-83.5C370.605,-83.5 379.361,-83.5 387.626,-83.5"/>
<polygon fill="midnightblue" stroke="midnightblue" points="387.782,-87.0001 397.781,-83.5 387.781,-80.0001 387.782,-87.0001"/>
</g>
<!-- Node5 -->
<g id="node5" class="node"><title>Node5</title>
<g id="a_node5"><a xlink:href="$classAP__HAL_1_1Print.html#acc65391952a43334f8f5c9bef341f501" xlink:title="AP_HAL::Print::write">
<polygon fill="white" stroke="black" points="502.185,-148.5 502.185,-166.5 609.327,-166.5 609.327,-148.5 502.185,-148.5"/>
<text text-anchor="middle" x="555.756" y="-154.5" font-family="Helvetica,sans-Serif" font-size="10.00">AP_HAL::Print::write</text>
</a>
</g>
</g>
<!-- Node4&#45;&gt;Node5 -->
<g id="edge4" class="edge"><title>Node4&#45;&gt;Node5</title>
<path fill="none" stroke="midnightblue" d="M442.125,-92.6327C454.648,-104.806 478.4,-126.34 502.185,-139.5 505.647,-141.416 509.349,-143.18 513.126,-144.791"/>
<polygon fill="midnightblue" stroke="midnightblue" points="511.984,-148.103 522.572,-148.483 514.532,-141.583 511.984,-148.103"/>
</g>
<!-- Node6 -->
<g id="node6" class="node"><title>Node6</title>
<g id="a_node6"><a xlink:href="$ftoa__engine_8cpp.html#a1c28234da8f20b43c85890d4bb452947" xlink:title="ftoa_engine">
<polygon fill="white" stroke="black" points="521.621,-111.5 521.621,-129.5 589.891,-129.5 589.891,-111.5 521.621,-111.5"/>
<text text-anchor="middle" x="555.756" y="-117.5" font-family="Helvetica,sans-Serif" font-size="10.00">ftoa_engine</text>
</a>
</g>
</g>
<!-- Node4&#45;&gt;Node6 -->
<g id="edge5" class="edge"><title>Node4&#45;&gt;Node6</title>
<path fill="none" stroke="midnightblue" d="M462.831,-92.5512C478.596,-97.3442 498.164,-103.294 515.189,-108.47"/>
<polygon fill="midnightblue" stroke="midnightblue" points="514.286,-111.854 524.872,-111.414 516.322,-105.156 514.286,-111.854"/>
</g>
<!-- Node7 -->
<g id="node7" class="node"><title>Node7</title>
<g id="a_node7"><a xlink:href="$AP__Progmem_8h.html#a1514e0408e036062b4af844baaf567da" xlink:title="pgm_read_byte">
<polygon fill="white" stroke="black" points="513.01,-74.5 513.01,-92.5 598.502,-92.5 598.502,-74.5 513.01,-74.5"/>
<text text-anchor="middle" x="555.756" y="-80.5" font-family="Helvetica,sans-Serif" font-size="10.00">pgm_read_byte</text>
</a>
</g>
</g>
<!-- Node4&#45;&gt;Node7 -->
<g id="edge6" class="edge"><title>Node4&#45;&gt;Node7</title>
<path fill="none" stroke="midnightblue" d="M466.315,-83.5C477.531,-83.5 490.334,-83.5 502.649,-83.5"/>
<polygon fill="midnightblue" stroke="midnightblue" points="502.833,-87.0001 512.833,-83.5 502.833,-80.0001 502.833,-87.0001"/>
</g>
<!-- Node8 -->
<g id="node8" class="node"><title>Node8</title>
<g id="a_node8"><a xlink:href="$utoa__invert_8cpp.html#a34926f552460b47c414ec4d83b32815c" xlink:title="ulltoa_invert">
<polygon fill="white" stroke="black" points="520.795,-37.5 520.795,-55.5 590.716,-55.5 590.716,-37.5 520.795,-37.5"/>
<text text-anchor="middle" x="555.756" y="-43.5" font-family="Helvetica,sans-Serif" font-size="10.00">ulltoa_invert</text>
</a>
</g>
</g>
<!-- Node4&#45;&gt;Node8 -->
<g id="edge7" class="edge"><title>Node4&#45;&gt;Node8</title>
<path fill="none" stroke="midnightblue" d="M462.831,-74.4488C478.596,-69.6558 498.164,-63.7062 515.189,-58.5298"/>
<polygon fill="midnightblue" stroke="midnightblue" points="516.322,-61.8437 524.872,-55.586 514.286,-55.1464 516.322,-61.8437"/>
</g>
<!-- Node9 -->
<g id="node9" class="node"><title>Node9</title>
<g id="a_node9"><a xlink:href="$utoa__invert_8cpp.html#a5d99bba8e697c1e11da489d88fca8559" xlink:title="ultoa_invert">
<polygon fill="white" stroke="black" points="521.906,-0.5 521.906,-18.5 589.605,-18.5 589.605,-0.5 521.906,-0.5"/>
<text text-anchor="middle" x="555.756" y="-6.5" font-family="Helvetica,sans-Serif" font-size="10.00">ultoa_invert</text>
</a>
</g>
</g>
<!-- Node4&#45;&gt;Node9 -->
<g id="edge8" class="edge"><title>Node4&#45;&gt;Node9</title>
<path fill="none" stroke="midnightblue" d="M442.624,-74.1918C455.328,-62.2457 478.889,-41.514 502.185,-28.5 506.201,-26.2563 510.533,-24.192 514.925,-22.3176"/>
<polygon fill="midnightblue" stroke="midnightblue" points="516.523,-25.4496 524.539,-18.5217 513.952,-18.9387 516.523,-25.4496"/>
</g>
</g>
</svg>
