<?xml version="1.0" encoding="UTF-8" standalone="no"?>
<!DOCTYPE svg PUBLIC "-//W3C//DTD SVG 1.1//EN"
 "http://www.w3.org/Graphics/SVG/1.1/DTD/svg11.dtd">
<!-- Generated by graphviz version 2.38.0 (20140413.2041)
 -->
<!-- Title: libraries/AP_HAL/utility/ftoa_engine.h Pages: 1 -->
<svg width="1355pt" height="532pt"
 viewBox="0.00 0.00 1355.40 532.00" xmlns="http://www.w3.org/2000/svg" xmlns:xlink="http://www.w3.org/1999/xlink">
<g id="graph0" class="graph" transform="scale(1 1) rotate(0) translate(4 528)">
<title>libraries/AP_HAL/utility/ftoa_engine.h</title>
<polygon fill="white" stroke="none" points="-4,4 -4,-528 1351.4,-528 1351.4,4 -4,4"/>
<!-- Node1 -->
<g id="node1" class="node"><title>Node1</title>
<polygon fill="#bfbfbf" stroke="black" points="914.549,-495.5 914.549,-523.5 1032.25,-523.5 1032.25,-495.5 914.549,-495.5"/>
<text text-anchor="start" x="922.549" y="-511.5" font-family="Helvetica,sans-Serif" font-size="10.00">libraries/AP_HAL/utility</text>
<text text-anchor="middle" x="973.401" y="-501.5" font-family="Helvetica,sans-Serif" font-size="10.00">/ftoa_engine.h</text>
</g>
<!-- Node2 -->
<g id="node2" class="node"><title>Node2</title>
<g id="a_node2"><a xlink:href="$AP__HAL_8h.html" xlink:title="AP_HAL/AP_HAL.h">
<polygon fill="white" stroke="black" points="719.488,-440.5 719.488,-458.5 823.315,-458.5 823.315,-440.5 719.488,-440.5"/>
<text text-anchor="middle" x="771.401" y="-446.5" font-family="Helvetica,sans-Serif" font-size="10.00">AP_HAL/AP_HAL.h</text>
</a>
</g>
</g>
<!-- Node1&#45;&gt;Node2 -->
<g id="edge1" class="edge"><title>Node1&#45;&gt;Node2</title>
<path fill="none" stroke="midnightblue" d="M928.069,-495.484C892.333,-485.223 843.075,-471.08 809.39,-461.408"/>
<polygon fill="midnightblue" stroke="midnightblue" points="810.045,-457.954 799.468,-458.559 808.114,-464.683 810.045,-457.954"/>
</g>
<!-- Node3 -->
<g id="node3" class="node"><title>Node3</title>
<polygon fill="white" stroke="#bfbfbf" points="798.281,-110.5 798.281,-128.5 846.522,-128.5 846.522,-110.5 798.281,-110.5"/>
<text text-anchor="middle" x="822.401" y="-116.5" font-family="Helvetica,sans-Serif" font-size="10.00">stdint.h</text>
</g>
<!-- Node1&#45;&gt;Node3 -->
<g id="edge68" class="edge"><title>Node1&#45;&gt;Node3</title>
<path fill="none" stroke="midnightblue" d="M1032.38,-497.86C1086.2,-484.352 1157.4,-455.199 1157.4,-395.5 1157.4,-395.5 1157.4,-395.5 1157.4,-338.5 1157.4,-248.824 1130.66,-212.183 1054.4,-165 992.471,-126.683 904.833,-120.112 856.947,-119.682"/>
<polygon fill="midnightblue" stroke="midnightblue" points="856.794,-116.182 846.793,-119.679 856.792,-123.182 856.794,-116.182"/>
</g>
<!-- Node2&#45;&gt;Node3 -->
<g id="edge2" class="edge"><title>Node2&#45;&gt;Node3</title>
<path fill="none" stroke="midnightblue" d="M780.161,-440.494C797.472,-423.751 834.401,-383.046 834.401,-340.5 834.401,-340.5 834.401,-340.5 834.401,-283.5 834.401,-230.895 828.108,-168.998 824.636,-138.855"/>
<polygon fill="midnightblue" stroke="midnightblue" points="828.077,-138.144 823.424,-128.625 821.126,-138.968 828.077,-138.144"/>
</g>
<!-- Node4 -->
<g id="node4" class="node"><title>Node4</title>
<polygon fill="white" stroke="#bfbfbf" points="262.108,-110.5 262.108,-128.5 318.694,-128.5 318.694,-110.5 262.108,-110.5"/>
<text text-anchor="middle" x="290.401" y="-116.5" font-family="Helvetica,sans-Serif" font-size="10.00">stdbool.h</text>
</g>
<!-- Node2&#45;&gt;Node4 -->
<g id="edge3" class="edge"><title>Node2&#45;&gt;Node4</title>
<path fill="none" stroke="midnightblue" d="M719.156,-448.311C589.874,-446.44 265.401,-432.572 265.401,-340.5 265.401,-340.5 265.401,-340.5 265.401,-228.5 265.401,-196.05 276.246,-159.495 283.65,-138.32"/>
<polygon fill="midnightblue" stroke="midnightblue" points="287.002,-139.345 287.133,-128.751 280.424,-136.951 287.002,-139.345"/>
</g>
<!-- Node5 -->
<g id="node5" class="node"><title>Node5</title>
<g id="a_node5"><a xlink:href="$AP__HAL__Namespace_8h.html" xlink:title="AP_HAL_Namespace.h">
<polygon fill="white" stroke="black" points="520.594,-55.5 520.594,-73.5 642.209,-73.5 642.209,-55.5 520.594,-55.5"/>
<text text-anchor="middle" x="581.401" y="-61.5" font-family="Helvetica,sans-Serif" font-size="10.00">AP_HAL_Namespace.h</text>
</a>
</g>
</g>
<!-- Node2&#45;&gt;Node5 -->
<g id="edge4" class="edge"><title>Node2&#45;&gt;Node5</title>
<path fill="none" stroke="midnightblue" d="M823.533,-444.203C965.321,-431.82 1347.4,-393.533 1347.4,-340.5 1347.4,-340.5 1347.4,-340.5 1347.4,-173.5 1347.4,-128.452 1310.39,-126.326 1268.4,-110 1157.74,-66.9676 805.035,-63.9266 652.649,-64.7219"/>
<polygon fill="midnightblue" stroke="midnightblue" points="652.447,-61.2229 642.468,-64.7823 652.489,-68.2228 652.447,-61.2229"/>
</g>
<!-- Node8 -->
<g id="node8" class="node"><title>Node8</title>
<g id="a_node8"><a xlink:href="$AP__HAL__Boards_8h.html" xlink:title="AP_HAL_Boards.h">
<polygon fill="white" stroke="black" points="945.431,-165.5 945.431,-183.5 1045.37,-183.5 1045.37,-165.5 945.431,-165.5"/>
<text text-anchor="middle" x="995.401" y="-171.5" font-family="Helvetica,sans-Serif" font-size="10.00">AP_HAL_Boards.h</text>
</a>
</g>
</g>
<!-- Node2&#45;&gt;Node8 -->
<g id="edge7" class="edge"><title>Node2&#45;&gt;Node8</title>
<path fill="none" stroke="midnightblue" d="M800.932,-440.371C821.751,-433.443 849.23,-421.746 868.401,-404 903.082,-371.898 965.38,-240.816 987.414,-193.033"/>
<polygon fill="midnightblue" stroke="midnightblue" points="990.707,-194.249 991.693,-183.7 984.344,-191.331 990.707,-194.249"/>
</g>
<!-- Node9 -->
<g id="node9" class="node"><title>Node9</title>
<g id="a_node9"><a xlink:href="$AP__HAL__Macros_8h.html" xlink:title="AP_HAL_Macros.h">
<polygon fill="white" stroke="black" points="59.8818,-385.5 59.8818,-403.5 160.921,-403.5 160.921,-385.5 59.8818,-385.5"/>
<text text-anchor="middle" x="110.401" y="-391.5" font-family="Helvetica,sans-Serif" font-size="10.00">AP_HAL_Macros.h</text>
</a>
</g>
</g>
<!-- Node2&#45;&gt;Node9 -->
<g id="edge8" class="edge"><title>Node2&#45;&gt;Node9</title>
<path fill="none" stroke="midnightblue" d="M719.097,-445.574C615.281,-439.549 375.902,-424.579 175.401,-404 174.096,-403.866 172.776,-403.727 171.446,-403.583"/>
<polygon fill="midnightblue" stroke="midnightblue" points="171.443,-400.06 161.112,-402.408 170.652,-407.016 171.443,-400.06"/>
</g>
<!-- Node10 -->
<g id="node10" class="node"><title>Node10</title>
<g id="a_node10"><a xlink:href="$AP__HAL__Main_8h.html" xlink:title="AP_HAL_Main.h">
<polygon fill="white" stroke="black" points="596.436,-385.5 596.436,-403.5 686.367,-403.5 686.367,-385.5 596.436,-385.5"/>
<text text-anchor="middle" x="641.401" y="-391.5" font-family="Helvetica,sans-Serif" font-size="10.00">AP_HAL_Main.h</text>
</a>
</g>
</g>
<!-- Node2&#45;&gt;Node10 -->
<g id="edge9" class="edge"><title>Node2&#45;&gt;Node10</title>
<path fill="none" stroke="midnightblue" d="M751.657,-440.45C730.086,-431.656 695.315,-417.48 670.591,-407.401"/>
<polygon fill="midnightblue" stroke="midnightblue" points="671.913,-404.16 661.331,-403.625 669.27,-410.642 671.913,-404.16"/>
</g>
<!-- Node11 -->
<g id="node11" class="node"><title>Node11</title>
<g id="a_node11"><a xlink:href="$HAL_8h.html" xlink:title="HAL.h">
<polygon fill="white" stroke="black" points="628.505,-330.5 628.505,-348.5 672.298,-348.5 672.298,-330.5 628.505,-330.5"/>
<text text-anchor="middle" x="650.401" y="-336.5" font-family="Helvetica,sans-Serif" font-size="10.00">HAL.h</text>
</a>
</g>
</g>
<!-- Node2&#45;&gt;Node11 -->
<g id="edge67" class="edge"><title>Node2&#45;&gt;Node11</title>
<path fill="none" stroke="midnightblue" d="M762.307,-440.382C742.073,-422.322 693.078,-378.591 667.145,-355.445"/>
<polygon fill="midnightblue" stroke="midnightblue" points="669.393,-352.76 659.602,-348.712 664.731,-357.982 669.393,-352.76"/>
</g>
<!-- Node12 -->
<g id="node12" class="node"><title>Node12</title>
<g id="a_node12"><a xlink:href="$AnalogIn_8h.html" xlink:title="AnalogIn.h">
<polygon fill="white" stroke="black" points="109.493,-220.5 109.493,-238.5 173.31,-238.5 173.31,-220.5 109.493,-220.5"/>
<text text-anchor="middle" x="141.401" y="-226.5" font-family="Helvetica,sans-Serif" font-size="10.00">AnalogIn.h</text>
</a>
</g>
</g>
<!-- Node2&#45;&gt;Node12 -->
<g id="edge49" class="edge"><title>Node2&#45;&gt;Node12</title>
<path fill="none" stroke="midnightblue" d="M719.064,-447.404C588.086,-444.23 253.739,-433.319 213.401,-404 161.985,-366.629 147.125,-285.592 142.961,-249.042"/>
<polygon fill="midnightblue" stroke="midnightblue" points="146.42,-248.457 141.952,-238.85 139.454,-249.147 146.42,-248.457"/>
</g>
<!-- Node14 -->
<g id="node14" class="node"><title>Node14</title>
<g id="a_node14"><a xlink:href="$GPIO_8h.html" xlink:title="GPIO.h">
<polygon fill="white" stroke="black" points="756.729,-220.5 756.729,-238.5 806.074,-238.5 806.074,-220.5 756.729,-220.5"/>
<text text-anchor="middle" x="781.401" y="-226.5" font-family="Helvetica,sans-Serif" font-size="10.00">GPIO.h</text>
</a>
</g>
</g>
<!-- Node2&#45;&gt;Node14 -->
<g id="edge51" class="edge"><title>Node2&#45;&gt;Node14</title>
<path fill="none" stroke="midnightblue" d="M771.769,-440.483C773.208,-409.107 778.481,-294.159 780.555,-248.944"/>
<polygon fill="midnightblue" stroke="midnightblue" points="784.058,-248.973 781.02,-238.823 777.065,-248.652 784.058,-248.973"/>
</g>
<!-- Node15 -->
<g id="node15" class="node"><title>Node15</title>
<g id="a_node15"><a xlink:href="$RCInput_8h.html" xlink:title="RCInput.h">
<polygon fill="white" stroke="black" points="504.889,-275.5 504.889,-293.5 565.914,-293.5 565.914,-275.5 504.889,-275.5"/>
<text text-anchor="middle" x="535.401" y="-281.5" font-family="Helvetica,sans-Serif" font-size="10.00">RCInput.h</text>
</a>
</g>
</g>
<!-- Node2&#45;&gt;Node15 -->
<g id="edge52" class="edge"><title>Node2&#45;&gt;Node15</title>
<path fill="none" stroke="midnightblue" d="M719.466,-448.01C679.234,-445.022 624.311,-434.918 587.401,-404 556.346,-377.986 543.241,-329.828 538.206,-303.627"/>
<polygon fill="midnightblue" stroke="midnightblue" points="541.622,-302.838 536.469,-293.58 534.724,-304.03 541.622,-302.838"/>
</g>
<!-- Node16 -->
<g id="node16" class="node"><title>Node16</title>
<g id="a_node16"><a xlink:href="$RCOutput_8h.html" xlink:title="RCOutput.h">
<polygon fill="white" stroke="black" points="976,-275.5 976,-293.5 1044.8,-293.5 1044.8,-275.5 976,-275.5"/>
<text text-anchor="middle" x="1010.4" y="-281.5" font-family="Helvetica,sans-Serif" font-size="10.00">RCOutput.h</text>
</a>
</g>
</g>
<!-- Node2&#45;&gt;Node16 -->
<g id="edge53" class="edge"><title>Node2&#45;&gt;Node16</title>
<path fill="none" stroke="midnightblue" d="M823.563,-441.82C872.699,-434.578 941.764,-421.646 962.401,-404 992.821,-377.989 1004.2,-329.83 1008.27,-303.627"/>
<polygon fill="midnightblue" stroke="midnightblue" points="1011.76,-303.961 1009.64,-293.58 1004.82,-303.018 1011.76,-303.961"/>
</g>
<!-- Node17 -->
<g id="node17" class="node"><title>Node17</title>
<g id="a_node17"><a xlink:href="$SPIDriver_8h.html" xlink:title="SPIDriver.h">
<polygon fill="white" stroke="black" points="1063.11,-275.5 1063.11,-293.5 1129.69,-293.5 1129.69,-275.5 1063.11,-275.5"/>
<text text-anchor="middle" x="1096.4" y="-281.5" font-family="Helvetica,sans-Serif" font-size="10.00">SPIDriver.h</text>
</a>
</g>
</g>
<!-- Node2&#45;&gt;Node17 -->
<g id="edge48" class="edge"><title>Node2&#45;&gt;Node17</title>
<path fill="none" stroke="midnightblue" d="M823.758,-446.415C869.092,-442.63 935.105,-432.236 985.401,-404 1030.72,-378.56 1068.33,-328.305 1085.83,-302.17"/>
<polygon fill="midnightblue" stroke="midnightblue" points="1088.81,-304.009 1091.35,-293.723 1082.95,-300.182 1088.81,-304.009"/>
</g>
<!-- Node18 -->
<g id="node18" class="node"><title>Node18</title>
<g id="a_node18"><a xlink:href="$Storage_8h.html" xlink:title="Storage.h">
<polygon fill="white" stroke="black" points="628.719,-275.5 628.719,-293.5 688.083,-293.5 688.083,-275.5 628.719,-275.5"/>
<text text-anchor="middle" x="658.401" y="-281.5" font-family="Helvetica,sans-Serif" font-size="10.00">Storage.h</text>
</a>
</g>
</g>
<!-- Node2&#45;&gt;Node18 -->
<g id="edge50" class="edge"><title>Node2&#45;&gt;Node18</title>
<path fill="none" stroke="midnightblue" d="M765.642,-440.193C747.883,-414.575 693.729,-336.459 669.882,-302.06"/>
<polygon fill="midnightblue" stroke="midnightblue" points="672.589,-299.821 664.015,-293.597 666.836,-303.81 672.589,-299.821"/>
</g>
<!-- Node19 -->
<g id="node19" class="node"><title>Node19</title>
<g id="a_node19"><a xlink:href="$UARTDriver_8h.html" xlink:title="UARTDriver.h">
<polygon fill="white" stroke="black" points="409.649,-275.5 409.649,-293.5 487.153,-293.5 487.153,-275.5 409.649,-275.5"/>
<text text-anchor="middle" x="448.401" y="-281.5" font-family="Helvetica,sans-Serif" font-size="10.00">UARTDriver.h</text>
</a>
</g>
</g>
<!-- Node2&#45;&gt;Node19 -->
<g id="edge44" class="edge"><title>Node2&#45;&gt;Node19</title>
<path fill="none" stroke="midnightblue" d="M719.133,-445.224C676.153,-440.683 614.826,-429.849 567.401,-404 520.205,-378.276 479.27,-328.146 460.055,-302.103"/>
<polygon fill="midnightblue" stroke="midnightblue" points="462.675,-299.752 453.987,-293.688 456.997,-303.846 462.675,-299.752"/>
</g>
<!-- Node22 -->
<g id="node22" class="node"><title>Node22</title>
<g id="a_node22"><a xlink:href="$BetterStream_8h.html" xlink:title="utility/BetterStream.h">
<polygon fill="white" stroke="black" points="292.995,-220.5 292.995,-238.5 401.808,-238.5 401.808,-220.5 292.995,-220.5"/>
<text text-anchor="middle" x="347.401" y="-226.5" font-family="Helvetica,sans-Serif" font-size="10.00">utility/BetterStream.h</text>
</a>
</g>
</g>
<!-- Node2&#45;&gt;Node22 -->
<g id="edge66" class="edge"><title>Node2&#45;&gt;Node22</title>
<path fill="none" stroke="midnightblue" d="M719.221,-445.932C670.066,-441.855 595.372,-431.304 536.401,-404 455.886,-366.721 386.238,-282.407 359.295,-246.828"/>
<polygon fill="midnightblue" stroke="midnightblue" points="361.895,-244.459 353.117,-238.526 356.279,-248.638 361.895,-244.459"/>
</g>
<!-- Node24 -->
<g id="node24" class="node"><title>Node24</title>
<g id="a_node24"><a xlink:href="$Stream_8h.html" xlink:title="Stream.h">
<polygon fill="white" stroke="black" points="143.116,-165.5 143.116,-183.5 199.687,-183.5 199.687,-165.5 143.116,-165.5"/>
<text text-anchor="middle" x="171.401" y="-171.5" font-family="Helvetica,sans-Serif" font-size="10.00">Stream.h</text>
</a>
</g>
</g>
<!-- Node2&#45;&gt;Node24 -->
<g id="edge65" class="edge"><title>Node2&#45;&gt;Node24</title>
<path fill="none" stroke="midnightblue" d="M719.402,-447.161C595.071,-443.523 288.17,-431.802 251.401,-404 227.336,-385.804 227.401,-370.671 227.401,-340.5 227.401,-340.5 227.401,-340.5 227.401,-283.5 227.401,-247.44 202.493,-211.441 185.9,-191.461"/>
<polygon fill="midnightblue" stroke="midnightblue" points="188.375,-188.972 179.188,-183.695 183.079,-193.549 188.375,-188.972"/>
</g>
<!-- Node25 -->
<g id="node25" class="node"><title>Node25</title>
<g id="a_node25"><a xlink:href="$Print_8h.html" xlink:title="Print.h">
<polygon fill="white" stroke="black" points="42.9507,-110.5 42.9507,-128.5 87.8521,-128.5 87.8521,-110.5 42.9507,-110.5"/>
<text text-anchor="middle" x="65.4014" y="-116.5" font-family="Helvetica,sans-Serif" font-size="10.00">Print.h</text>
</a>
</g>
</g>
<!-- Node2&#45;&gt;Node25 -->
<g id="edge64" class="edge"><title>Node2&#45;&gt;Node25</title>
<path fill="none" stroke="midnightblue" d="M719.44,-448.67C562.754,-448.722 102.465,-445.32 50.4014,-404 27.3268,-385.687 31.4014,-369.958 31.4014,-340.5 31.4014,-340.5 31.4014,-340.5 31.4014,-228.5 31.4014,-195.204 46.286,-158.688 56.3584,-137.79"/>
<polygon fill="midnightblue" stroke="midnightblue" points="59.6001,-139.133 60.9565,-128.626 53.3435,-135.994 59.6001,-139.133"/>
</g>
<!-- Node26 -->
<g id="node26" class="node"><title>Node26</title>
<g id="a_node26"><a xlink:href="$I2CDriver_8h.html" xlink:title="I2CDriver.h">
<polygon fill="white" stroke="black" points="1215.39,-165.5 1215.39,-183.5 1281.41,-183.5 1281.41,-165.5 1215.39,-165.5"/>
<text text-anchor="middle" x="1248.4" y="-171.5" font-family="Helvetica,sans-Serif" font-size="10.00">I2CDriver.h</text>
</a>
</g>
</g>
<!-- Node2&#45;&gt;Node26 -->
<g id="edge45" class="edge"><title>Node2&#45;&gt;Node26</title>
<path fill="none" stroke="midnightblue" d="M823.703,-446.788C874.258,-443.345 951.873,-433.25 1012.4,-404 1118.6,-352.679 1207.24,-235.138 1237.38,-191.874"/>
<polygon fill="midnightblue" stroke="midnightblue" points="1240.28,-193.832 1243.05,-183.606 1234.51,-189.872 1240.28,-193.832"/>
</g>
<!-- Node27 -->
<g id="node27" class="node"><title>Node27</title>
<g id="a_node27"><a xlink:href="$Scheduler_8h.html" xlink:title="Scheduler.h">
<polygon fill="white" stroke="black" points="861.99,-220.5 861.99,-238.5 930.812,-238.5 930.812,-220.5 861.99,-220.5"/>
<text text-anchor="middle" x="896.401" y="-226.5" font-family="Helvetica,sans-Serif" font-size="10.00">Scheduler.h</text>
</a>
</g>
</g>
<!-- Node2&#45;&gt;Node27 -->
<g id="edge54" class="edge"><title>Node2&#45;&gt;Node27</title>
<path fill="none" stroke="midnightblue" d="M794.909,-440.499C812.136,-433.469 834.799,-421.587 848.401,-404 885.004,-356.676 893.706,-283.112 895.767,-249.013"/>
<polygon fill="midnightblue" stroke="midnightblue" points="899.278,-248.86 896.253,-238.706 892.285,-248.529 899.278,-248.86"/>
</g>
<!-- Node28 -->
<g id="node28" class="node"><title>Node28</title>
<g id="a_node28"><a xlink:href="$Semaphores_8h.html" xlink:title="Semaphores.h">
<polygon fill="white" stroke="black" points="1215.88,-330.5 1215.88,-348.5 1296.92,-348.5 1296.92,-330.5 1215.88,-330.5"/>
<text text-anchor="middle" x="1256.4" y="-336.5" font-family="Helvetica,sans-Serif" font-size="10.00">Semaphores.h</text>
</a>
</g>
</g>
<!-- Node2&#45;&gt;Node28 -->
<g id="edge59" class="edge"><title>Node2&#45;&gt;Node28</title>
<path fill="none" stroke="midnightblue" d="M823.492,-445.196C888.136,-440.22 1001.34,-428.628 1095.4,-404 1144.71,-391.089 1199.37,-367.405 1230.63,-352.896"/>
<polygon fill="midnightblue" stroke="midnightblue" points="1232.36,-355.951 1239.92,-348.532 1229.38,-349.615 1232.36,-355.951"/>
</g>
<!-- Node29 -->
<g id="node29" class="node"><title>Node29</title>
<g id="a_node29"><a xlink:href="$Util_8h.html" xlink:title="Util.h">
<polygon fill="white" stroke="black" points="986.01,-220.5 986.01,-238.5 1024.79,-238.5 1024.79,-220.5 986.01,-220.5"/>
<text text-anchor="middle" x="1005.4" y="-226.5" font-family="Helvetica,sans-Serif" font-size="10.00">Util.h</text>
</a>
</g>
</g>
<!-- Node2&#45;&gt;Node29 -->
<g id="edge61" class="edge"><title>Node2&#45;&gt;Node29</title>
<path fill="none" stroke="midnightblue" d="M823.595,-445.426C856.412,-440.85 897.488,-429.891 924.401,-404 967.954,-362.101 937.674,-327.618 967.401,-275 973.398,-264.386 982.122,-253.945 989.7,-245.846"/>
<polygon fill="midnightblue" stroke="midnightblue" points="992.279,-248.214 996.751,-238.61 987.266,-243.329 992.279,-248.214"/>
</g>
<!-- Node6 -->
<g id="node6" class="node"><title>Node6</title>
<polygon fill="white" stroke="#bfbfbf" points="379.005,-0.5 379.005,-18.5 427.798,-18.5 427.798,-0.5 379.005,-0.5"/>
<text text-anchor="middle" x="403.401" y="-6.5" font-family="Helvetica,sans-Serif" font-size="10.00">string.h</text>
</g>
<!-- Node5&#45;&gt;Node6 -->
<g id="edge5" class="edge"><title>Node5&#45;&gt;Node6</title>
<path fill="none" stroke="midnightblue" d="M554.367,-55.4504C523.166,-46.1603 471.795,-30.8643 437.78,-20.7362"/>
<polygon fill="midnightblue" stroke="midnightblue" points="438.405,-17.2706 427.822,-17.7713 436.407,-23.9795 438.405,-17.2706"/>
</g>
<!-- Node7 -->
<g id="node7" class="node"><title>Node7</title>
<g id="a_node7"><a xlink:href="$functor_8h.html" xlink:title="utility/functor.h">
<polygon fill="white" stroke="black" points="541.438,-0.5 541.438,-18.5 621.364,-18.5 621.364,-0.5 541.438,-0.5"/>
<text text-anchor="middle" x="581.401" y="-6.5" font-family="Helvetica,sans-Serif" font-size="10.00">utility/functor.h</text>
</a>
</g>
</g>
<!-- Node5&#45;&gt;Node7 -->
<g id="edge6" class="edge"><title>Node5&#45;&gt;Node7</title>
<path fill="none" stroke="midnightblue" d="M581.401,-55.2188C581.401,-48.1769 581.401,-37.8083 581.401,-28.8277"/>
<polygon fill="midnightblue" stroke="midnightblue" points="584.901,-28.5495 581.401,-18.5496 577.901,-28.5496 584.901,-28.5495"/>
</g>
<!-- Node10&#45;&gt;Node11 -->
<g id="edge10" class="edge"><title>Node10&#45;&gt;Node11</title>
<path fill="none" stroke="midnightblue" d="M642.808,-385.219C644.017,-378.099 645.803,-367.577 647.34,-358.529"/>
<polygon fill="midnightblue" stroke="midnightblue" points="650.811,-358.994 649.034,-348.55 643.91,-357.822 650.811,-358.994"/>
</g>
<!-- Node11&#45;&gt;Node5 -->
<g id="edge11" class="edge"><title>Node11&#45;&gt;Node5</title>
<path fill="none" stroke="midnightblue" d="M643.236,-330.2C636.209,-321.658 625.666,-307.701 619.401,-294 588.109,-225.562 588.16,-203.949 581.401,-129 580.037,-113.869 580.142,-96.6262 580.529,-83.9309"/>
<polygon fill="midnightblue" stroke="midnightblue" points="584.034,-83.8711 580.93,-73.7411 577.039,-83.5957 584.034,-83.8711"/>
</g>
<!-- Node11&#45;&gt;Node12 -->
<g id="edge12" class="edge"><title>Node11&#45;&gt;Node12</title>
<path fill="none" stroke="midnightblue" d="M628.237,-335.046C584.502,-328.122 484.078,-311.686 400.401,-294 322.428,-277.52 232.209,-254.491 181.469,-241.172"/>
<polygon fill="midnightblue" stroke="midnightblue" points="182.123,-237.725 171.561,-238.563 180.34,-244.494 182.123,-237.725"/>
</g>
<!-- Node11&#45;&gt;Node14 -->
<g id="edge15" class="edge"><title>Node11&#45;&gt;Node14</title>
<path fill="none" stroke="midnightblue" d="M660.248,-330.382C682.249,-312.244 735.658,-268.212 763.637,-245.145"/>
<polygon fill="midnightblue" stroke="midnightblue" points="765.951,-247.774 771.441,-238.712 761.498,-242.372 765.951,-247.774"/>
</g>
<!-- Node11&#45;&gt;Node15 -->
<g id="edge18" class="edge"><title>Node11&#45;&gt;Node15</title>
<path fill="none" stroke="midnightblue" d="M632.935,-330.45C614.191,-321.812 584.179,-307.98 562.393,-297.94"/>
<polygon fill="midnightblue" stroke="midnightblue" points="563.579,-294.632 553.032,-293.625 560.649,-300.99 563.579,-294.632"/>
</g>
<!-- Node11&#45;&gt;Node16 -->
<g id="edge20" class="edge"><title>Node11&#45;&gt;Node16</title>
<path fill="none" stroke="midnightblue" d="M672.379,-335.264C730.307,-326.736 888.041,-303.514 965.821,-292.063"/>
<polygon fill="midnightblue" stroke="midnightblue" points="966.415,-295.514 975.798,-290.594 965.395,-288.588 966.415,-295.514"/>
</g>
<!-- Node11&#45;&gt;Node17 -->
<g id="edge22" class="edge"><title>Node11&#45;&gt;Node17</title>
<path fill="none" stroke="midnightblue" d="M672.33,-336.74C731.786,-331.829 901.198,-316.911 1052.7,-293.977"/>
<polygon fill="midnightblue" stroke="midnightblue" points="1053.29,-297.426 1062.65,-292.454 1052.23,-290.507 1053.29,-297.426"/>
</g>
<!-- Node11&#45;&gt;Node18 -->
<g id="edge24" class="edge"><title>Node11&#45;&gt;Node18</title>
<path fill="none" stroke="midnightblue" d="M651.651,-330.219C652.726,-323.099 654.314,-312.577 655.68,-303.529"/>
<polygon fill="midnightblue" stroke="midnightblue" points="659.155,-303.96 657.186,-293.55 652.233,-302.915 659.155,-303.96"/>
</g>
<!-- Node11&#45;&gt;Node19 -->
<g id="edge27" class="edge"><title>Node11&#45;&gt;Node19</title>
<path fill="none" stroke="midnightblue" d="M628.399,-332.727C594.959,-323.953 530.801,-307.12 488.809,-296.102"/>
<polygon fill="midnightblue" stroke="midnightblue" points="489.465,-292.656 478.904,-293.503 487.689,-299.427 489.465,-292.656"/>
</g>
<!-- Node12&#45;&gt;Node5 -->
<g id="edge14" class="edge"><title>Node12&#45;&gt;Node5</title>
<path fill="none" stroke="midnightblue" d="M138.027,-220.316C133.425,-207.856 126.593,-183.614 134.401,-165 147.896,-132.831 158.911,-125.012 190.401,-110 245.348,-83.8054 413.246,-72.5165 510.229,-68.0741"/>
<polygon fill="midnightblue" stroke="midnightblue" points="510.416,-71.5693 520.251,-67.6279 510.105,-64.5763 510.416,-71.5693"/>
</g>
<!-- Node13 -->
<g id="node13" class="node"><title>Node13</title>
<polygon fill="white" stroke="#bfbfbf" points="0,-55.5 0,-73.5 58.8027,-73.5 58.8027,-55.5 0,-55.5"/>
<text text-anchor="middle" x="29.4014" y="-61.5" font-family="Helvetica,sans-Serif" font-size="10.00">inttypes.h</text>
</g>
<!-- Node12&#45;&gt;Node13 -->
<g id="edge13" class="edge"><title>Node12&#45;&gt;Node13</title>
<path fill="none" stroke="midnightblue" d="M127.537,-220.492C103.642,-205.829 55.2612,-172.168 34.4014,-129 27.6285,-114.984 26.7922,-97.1826 27.4117,-83.9963"/>
<polygon fill="midnightblue" stroke="midnightblue" points="30.9181,-84.0527 28.2181,-73.8076 23.9399,-83.5003 30.9181,-84.0527"/>
</g>
<!-- Node14&#45;&gt;Node3 -->
<g id="edge16" class="edge"><title>Node14&#45;&gt;Node3</title>
<path fill="none" stroke="midnightblue" d="M784.483,-220.382C791.072,-203.026 806.662,-161.96 815.666,-138.241"/>
<polygon fill="midnightblue" stroke="midnightblue" points="819.007,-139.303 819.284,-128.712 812.463,-136.819 819.007,-139.303"/>
</g>
<!-- Node14&#45;&gt;Node5 -->
<g id="edge17" class="edge"><title>Node14&#45;&gt;Node5</title>
<path fill="none" stroke="midnightblue" d="M771.483,-220.417C739.694,-194.509 640.041,-113.291 599.164,-79.9767"/>
<polygon fill="midnightblue" stroke="midnightblue" points="601.342,-77.2365 591.379,-73.632 596.92,-82.6627 601.342,-77.2365"/>
</g>
<!-- Node15&#45;&gt;Node5 -->
<g id="edge19" class="edge"><title>Node15&#45;&gt;Node5</title>
<path fill="none" stroke="midnightblue" d="M532.678,-275.395C524.536,-249.7 502.553,-168.313 529.401,-110 535.225,-97.3517 546.613,-86.9584 557.251,-79.406"/>
<polygon fill="midnightblue" stroke="midnightblue" points="559.436,-82.1587 565.872,-73.7431 555.593,-76.308 559.436,-82.1587"/>
</g>
<!-- Node16&#45;&gt;Node5 -->
<g id="edge21" class="edge"><title>Node16&#45;&gt;Node5</title>
<path fill="none" stroke="midnightblue" d="M1020.24,-275.376C1042.39,-256.068 1092.55,-205.978 1070.4,-165 1049.18,-125.744 1028.4,-125.074 986.401,-110 926.761,-88.5955 752.238,-75.3553 652.842,-69.3355"/>
<polygon fill="midnightblue" stroke="midnightblue" points="652.771,-65.8252 642.58,-68.7235 652.354,-72.8127 652.771,-65.8252"/>
</g>
<!-- Node17&#45;&gt;Node5 -->
<g id="edge23" class="edge"><title>Node17&#45;&gt;Node5</title>
<path fill="none" stroke="midnightblue" d="M1097.73,-275.495C1100.65,-255.597 1105.95,-202.781 1087.4,-165 1071.31,-132.233 1059.78,-124.775 1026.4,-110 961.232,-81.1554 760.694,-70.7963 652.446,-67.2437"/>
<polygon fill="midnightblue" stroke="midnightblue" points="652.372,-63.7397 642.266,-66.9208 652.15,-70.7362 652.372,-63.7397"/>
</g>
<!-- Node18&#45;&gt;Node3 -->
<g id="edge25" class="edge"><title>Node18&#45;&gt;Node3</title>
<path fill="none" stroke="midnightblue" d="M666.76,-275.193C692.865,-249.247 773.154,-169.448 807.049,-135.759"/>
<polygon fill="midnightblue" stroke="midnightblue" points="809.629,-138.129 814.255,-128.597 804.695,-133.164 809.629,-138.129"/>
</g>
<!-- Node18&#45;&gt;Node5 -->
<g id="edge26" class="edge"><title>Node18&#45;&gt;Node5</title>
<path fill="none" stroke="midnightblue" d="M652.327,-275.498C640.31,-259.228 613.528,-220.714 600.401,-184 588.22,-149.929 583.822,-107.552 582.253,-83.8171"/>
<polygon fill="midnightblue" stroke="midnightblue" points="585.73,-83.3018 581.676,-73.5131 578.741,-83.6931 585.73,-83.3018"/>
</g>
<!-- Node19&#45;&gt;Node3 -->
<g id="edge28" class="edge"><title>Node19&#45;&gt;Node3</title>
<path fill="none" stroke="midnightblue" d="M466.948,-275.417C527.762,-248.912 721.39,-164.524 794.285,-132.754"/>
<polygon fill="midnightblue" stroke="midnightblue" points="795.974,-135.836 803.743,-128.632 793.177,-129.419 795.974,-135.836"/>
</g>
<!-- Node19&#45;&gt;Node5 -->
<g id="edge33" class="edge"><title>Node19&#45;&gt;Node5</title>
<path fill="none" stroke="midnightblue" d="M450.022,-275.436C455.625,-249.177 476.241,-164.664 519.401,-110 529.51,-97.1973 544.236,-86.4165 556.799,-78.674"/>
<polygon fill="midnightblue" stroke="midnightblue" points="558.615,-81.6669 565.469,-73.5877 555.072,-75.6293 558.615,-81.6669"/>
</g>
<!-- Node20 -->
<g id="node20" class="node"><title>Node20</title>
<g id="a_node20"><a xlink:href="$AP__Common_8h.html" xlink:title="Common definitions and utility routines for the ArduPilot libraries. ">
<polygon fill="white" stroke="black" points="293.375,-165.5 293.375,-183.5 439.428,-183.5 439.428,-165.5 293.375,-165.5"/>
<text text-anchor="middle" x="366.401" y="-171.5" font-family="Helvetica,sans-Serif" font-size="10.00">AP_Common/AP_Common.h</text>
</a>
</g>
</g>
<!-- Node19&#45;&gt;Node20 -->
<g id="edge29" class="edge"><title>Node19&#45;&gt;Node20</title>
<path fill="none" stroke="midnightblue" d="M444.303,-275.282C437.891,-262.778 424.728,-238.479 410.401,-220 402.247,-209.482 391.821,-198.84 383.165,-190.602"/>
<polygon fill="midnightblue" stroke="midnightblue" points="385.537,-188.028 375.83,-183.784 380.772,-193.156 385.537,-188.028"/>
</g>
<!-- Node19&#45;&gt;Node22 -->
<g id="edge34" class="edge"><title>Node19&#45;&gt;Node22</title>
<path fill="none" stroke="midnightblue" d="M433.062,-275.45C416.822,-266.929 390.952,-253.353 371.887,-243.349"/>
<polygon fill="midnightblue" stroke="midnightblue" points="373.367,-240.173 362.885,-238.625 370.114,-246.371 373.367,-240.173"/>
</g>
<!-- Node20&#45;&gt;Node3 -->
<g id="edge30" class="edge"><title>Node20&#45;&gt;Node3</title>
<path fill="none" stroke="midnightblue" d="M435.658,-165.45C534.683,-153.941 713.02,-133.213 787.86,-124.515"/>
<polygon fill="midnightblue" stroke="midnightblue" points="788.6,-127.952 798.129,-123.321 787.792,-120.999 788.6,-127.952"/>
</g>
<!-- Node20&#45;&gt;Node4 -->
<g id="edge32" class="edge"><title>Node20&#45;&gt;Node4</title>
<path fill="none" stroke="midnightblue" d="M354.859,-165.45C343.141,-157.279 324.76,-144.46 310.62,-134.6"/>
<polygon fill="midnightblue" stroke="midnightblue" points="312.257,-131.475 302.053,-128.625 308.253,-137.216 312.257,-131.475"/>
</g>
<!-- Node21 -->
<g id="node21" class="node"><title>Node21</title>
<polygon fill="white" stroke="#bfbfbf" points="342.559,-110.5 342.559,-128.5 390.244,-128.5 390.244,-110.5 342.559,-110.5"/>
<text text-anchor="middle" x="366.401" y="-116.5" font-family="Helvetica,sans-Serif" font-size="10.00">stdlib.h</text>
</g>
<!-- Node20&#45;&gt;Node21 -->
<g id="edge31" class="edge"><title>Node20&#45;&gt;Node21</title>
<path fill="none" stroke="midnightblue" d="M366.401,-165.219C366.401,-158.177 366.401,-147.808 366.401,-138.828"/>
<polygon fill="midnightblue" stroke="midnightblue" points="369.901,-138.55 366.401,-128.55 362.901,-138.55 369.901,-138.55"/>
</g>
<!-- Node22&#45;&gt;Node5 -->
<g id="edge37" class="edge"><title>Node22&#45;&gt;Node5</title>
<path fill="none" stroke="midnightblue" d="M332.218,-220.384C297.596,-200.885 218.419,-150.049 253.401,-110 286.051,-72.6215 423.963,-65.4246 510.229,-64.6974"/>
<polygon fill="midnightblue" stroke="midnightblue" points="510.502,-68.196 520.482,-64.6392 510.463,-61.1961 510.502,-68.196"/>
</g>
<!-- Node22&#45;&gt;Node20 -->
<g id="edge36" class="edge"><title>Node22&#45;&gt;Node20</title>
<path fill="none" stroke="midnightblue" d="M350.37,-220.219C352.951,-213.02 356.777,-202.346 360.045,-193.231"/>
<polygon fill="midnightblue" stroke="midnightblue" points="363.436,-194.144 363.516,-183.55 356.846,-191.782 363.436,-194.144"/>
</g>
<!-- Node23 -->
<g id="node23" class="node"><title>Node23</title>
<polygon fill="white" stroke="#bfbfbf" points="609.335,-165.5 609.335,-183.5 661.468,-183.5 661.468,-165.5 609.335,-165.5"/>
<text text-anchor="middle" x="635.401" y="-171.5" font-family="Helvetica,sans-Serif" font-size="10.00">stdarg.h</text>
</g>
<!-- Node22&#45;&gt;Node23 -->
<g id="edge35" class="edge"><title>Node22&#45;&gt;Node23</title>
<path fill="none" stroke="midnightblue" d="M391.142,-220.45C447.939,-209.998 546.045,-191.944 598.992,-182.2"/>
<polygon fill="midnightblue" stroke="midnightblue" points="599.752,-185.619 608.954,-180.367 598.485,-178.735 599.752,-185.619"/>
</g>
<!-- Node22&#45;&gt;Node24 -->
<g id="edge38" class="edge"><title>Node22&#45;&gt;Node24</title>
<path fill="none" stroke="midnightblue" d="M320.671,-220.45C290.605,-211.396 241.596,-196.638 207.991,-186.519"/>
<polygon fill="midnightblue" stroke="midnightblue" points="208.679,-183.07 198.095,-183.538 206.661,-189.773 208.679,-183.07"/>
</g>
<!-- Node24&#45;&gt;Node5 -->
<g id="edge39" class="edge"><title>Node24&#45;&gt;Node5</title>
<path fill="none" stroke="midnightblue" d="M174.242,-165.204C179.52,-151.184 192.261,-123.06 213.401,-110 261.621,-80.2111 417.711,-70.3478 510.397,-67.0929"/>
<polygon fill="midnightblue" stroke="midnightblue" points="510.666,-70.586 520.544,-66.7541 510.433,-63.5899 510.666,-70.586"/>
</g>
<!-- Node24&#45;&gt;Node25 -->
<g id="edge40" class="edge"><title>Node24&#45;&gt;Node25</title>
<path fill="none" stroke="midnightblue" d="M155.302,-165.45C138.181,-156.89 110.86,-143.229 90.8251,-133.212"/>
<polygon fill="midnightblue" stroke="midnightblue" points="92.1615,-129.967 81.652,-128.625 89.031,-136.228 92.1615,-129.967"/>
</g>
<!-- Node25&#45;&gt;Node5 -->
<g id="edge41" class="edge"><title>Node25&#45;&gt;Node5</title>
<path fill="none" stroke="midnightblue" d="M88.1581,-112.621C92.5316,-111.635 97.0918,-110.705 101.401,-110 245.493,-86.428 416.114,-74.3172 510.187,-68.9936"/>
<polygon fill="midnightblue" stroke="midnightblue" points="510.648,-72.4735 520.438,-68.4233 510.259,-65.4843 510.648,-72.4735"/>
</g>
<!-- Node25&#45;&gt;Node6 -->
<g id="edge43" class="edge"><title>Node25&#45;&gt;Node6</title>
<path fill="none" stroke="midnightblue" d="M88.1033,-111.246C146.108,-92.7121 300.031,-43.5296 369.06,-21.4729"/>
<polygon fill="midnightblue" stroke="midnightblue" points="370.535,-24.676 378.996,-18.2983 368.405,-18.0081 370.535,-24.676"/>
</g>
<!-- Node25&#45;&gt;Node13 -->
<g id="edge42" class="edge"><title>Node25&#45;&gt;Node13</title>
<path fill="none" stroke="midnightblue" d="M59.7764,-110.219C54.6743,-102.707 47.0013,-91.411 40.6439,-82.0515"/>
<polygon fill="midnightblue" stroke="midnightblue" points="43.3831,-79.8551 34.869,-73.5496 37.5926,-83.7883 43.3831,-79.8551"/>
</g>
<!-- Node26&#45;&gt;Node3 -->
<g id="edge46" class="edge"><title>Node26&#45;&gt;Node3</title>
<path fill="none" stroke="midnightblue" d="M1215.33,-169.385C1136.28,-159.551 937.025,-134.761 856.727,-124.771"/>
<polygon fill="midnightblue" stroke="midnightblue" points="857.008,-121.279 846.652,-123.517 856.143,-128.225 857.008,-121.279"/>
</g>
<!-- Node26&#45;&gt;Node5 -->
<g id="edge47" class="edge"><title>Node26&#45;&gt;Node5</title>
<path fill="none" stroke="midnightblue" d="M1245,-165.068C1238.75,-150.845 1224,-122.422 1201.4,-110 1154.31,-84.1138 805.199,-71.571 652.528,-67.2781"/>
<polygon fill="midnightblue" stroke="midnightblue" points="652.414,-63.7737 642.321,-66.9952 652.22,-70.771 652.414,-63.7737"/>
</g>
<!-- Node27&#45;&gt;Node3 -->
<g id="edge55" class="edge"><title>Node27&#45;&gt;Node3</title>
<path fill="none" stroke="midnightblue" d="M891.262,-220.168C883.656,-207.923 868.85,-184.419 855.401,-165 848.806,-155.477 841.113,-145.065 834.814,-136.708"/>
<polygon fill="midnightblue" stroke="midnightblue" points="837.48,-134.432 828.644,-128.586 831.906,-138.667 837.48,-134.432"/>
</g>
<!-- Node27&#45;&gt;Node5 -->
<g id="edge58" class="edge"><title>Node27&#45;&gt;Node5</title>
<path fill="none" stroke="midnightblue" d="M896.31,-220.266C895.583,-198.373 890.341,-138.459 855.401,-110 825.084,-85.3063 723.112,-74.0381 652.505,-69.0971"/>
<polygon fill="midnightblue" stroke="midnightblue" points="652.54,-65.5916 642.327,-68.4131 652.07,-72.5758 652.54,-65.5916"/>
</g>
<!-- Node27&#45;&gt;Node8 -->
<g id="edge57" class="edge"><title>Node27&#45;&gt;Node8</title>
<path fill="none" stroke="midnightblue" d="M911.437,-220.45C927.356,-211.929 952.713,-198.353 971.401,-188.349"/>
<polygon fill="midnightblue" stroke="midnightblue" points="973.06,-191.431 980.224,-183.625 969.756,-185.259 973.06,-191.431"/>
</g>
<!-- Node27&#45;&gt;Node20 -->
<g id="edge56" class="edge"><title>Node27&#45;&gt;Node20</title>
<path fill="none" stroke="midnightblue" d="M861.719,-224.816C847.383,-223.305 830.593,-221.55 815.401,-220 687.839,-206.986 539.831,-192.42 449.679,-183.609"/>
<polygon fill="midnightblue" stroke="midnightblue" points="449.811,-180.105 439.519,-182.616 449.131,-187.072 449.811,-180.105"/>
</g>
<!-- Node28&#45;&gt;Node5 -->
<g id="edge60" class="edge"><title>Node28&#45;&gt;Node5</title>
<path fill="none" stroke="midnightblue" d="M1263.55,-330.491C1278.02,-313.421 1309.4,-271.646 1309.4,-230.5 1309.4,-230.5 1309.4,-230.5 1309.4,-173.5 1309.4,-127.053 1269.85,-126.404 1226.4,-110 1123.08,-70.9951 797.506,-65.6609 652.399,-65.2804"/>
<polygon fill="midnightblue" stroke="midnightblue" points="652.275,-61.7802 642.268,-65.2611 652.262,-68.7802 652.275,-61.7802"/>
</g>
<!-- Node29&#45;&gt;Node5 -->
<g id="edge63" class="edge"><title>Node29&#45;&gt;Node5</title>
<path fill="none" stroke="midnightblue" d="M1019.72,-220.37C1039,-208.377 1069.26,-185.183 1054.4,-165 1007.44,-101.231 772.6,-77.4067 652.456,-69.2899"/>
<polygon fill="midnightblue" stroke="midnightblue" points="652.458,-65.7826 642.25,-68.6196 651.999,-72.7676 652.458,-65.7826"/>
</g>
<!-- Node29&#45;&gt;Node23 -->
<g id="edge62" class="edge"><title>Node29&#45;&gt;Node23</title>
<path fill="none" stroke="midnightblue" d="M985.77,-225.688C926.554,-217.206 749.05,-191.779 671.886,-180.726"/>
<polygon fill="midnightblue" stroke="midnightblue" points="672.082,-177.219 661.687,-179.265 671.09,-184.148 672.082,-177.219"/>
</g>
</g>
</svg>
