<?xml version="1.0" encoding="UTF-8" standalone="no"?>
<!DOCTYPE svg PUBLIC "-//W3C//DTD SVG 1.1//EN"
 "http://www.w3.org/Graphics/SVG/1.1/DTD/svg11.dtd">
<!-- Generated by graphviz version 2.38.0 (20140413.2041)
 -->
<!-- Title: libraries/GCS_MAVLink/GCS.h Pages: 1 -->
<svg width="2976pt" height="177pt"
 viewBox="0.00 0.00 2976.44 177.00" xmlns="http://www.w3.org/2000/svg" xmlns:xlink="http://www.w3.org/1999/xlink">
<g id="graph0" class="graph" transform="scale(1 1) rotate(0) translate(4 173)">
<title>libraries/GCS_MAVLink/GCS.h</title>
<polygon fill="white" stroke="none" points="-4,4 -4,-173 2972.44,-173 2972.44,4 -4,4"/>
<!-- Node1 -->
<g id="node1" class="node"><title>Node1</title>
<polygon fill="#bfbfbf" stroke="black" points="1428.15,-140.5 1428.15,-168.5 1548.44,-168.5 1548.44,-140.5 1428.15,-140.5"/>
<text text-anchor="start" x="1436.15" y="-156.5" font-family="Helvetica,sans-Serif" font-size="10.00">libraries/GCS_MAVLink</text>
<text text-anchor="middle" x="1488.3" y="-146.5" font-family="Helvetica,sans-Serif" font-size="10.00">/GCS.h</text>
</g>
<!-- Node2 -->
<g id="node2" class="node"><title>Node2</title>
<g id="a_node2"><a xlink:href="$AP__AHRS__NavEKF_8cpp.html" xlink:title="libraries/AP_AHRS/AP\l_AHRS_NavEKF.cpp">
<polygon fill="white" stroke="black" points="0,-70.5 0,-98.5 116.591,-98.5 116.591,-70.5 0,-70.5"/>
<text text-anchor="start" x="8" y="-86.5" font-family="Helvetica,sans-Serif" font-size="10.00">libraries/AP_AHRS/AP</text>
<text text-anchor="middle" x="58.2954" y="-76.5" font-family="Helvetica,sans-Serif" font-size="10.00">_AHRS_NavEKF.cpp</text>
</a>
</g>
</g>
<!-- Node1&#45;&gt;Node2 -->
<g id="edge1" class="edge"><title>Node1&#45;&gt;Node2</title>
<path fill="none" stroke="midnightblue" d="M1417.87,-153.107C1175.69,-151.419 378.215,-142.964 125.295,-104 116.947,-102.714 108.154,-100.748 99.7851,-98.57"/>
<polygon fill="midnightblue" stroke="midnightblue" points="1417.93,-156.608 1427.96,-153.176 1417.98,-149.608 1417.93,-156.608"/>
</g>
<!-- Node3 -->
<g id="node3" class="node"><title>Node3</title>
<g id="a_node3"><a xlink:href="$AP__Arming_8cpp.html" xlink:title="libraries/AP_Arming\l/AP_Arming.cpp">
<polygon fill="white" stroke="black" points="134.113,-70.5 134.113,-98.5 238.478,-98.5 238.478,-70.5 134.113,-70.5"/>
<text text-anchor="start" x="142.113" y="-86.5" font-family="Helvetica,sans-Serif" font-size="10.00">libraries/AP_Arming</text>
<text text-anchor="middle" x="186.295" y="-76.5" font-family="Helvetica,sans-Serif" font-size="10.00">/AP_Arming.cpp</text>
</a>
</g>
</g>
<!-- Node1&#45;&gt;Node3 -->
<g id="edge2" class="edge"><title>Node1&#45;&gt;Node3</title>
<path fill="none" stroke="midnightblue" d="M1417.69,-153.042C1189.71,-151.193 474.886,-142.403 247.295,-104 239.657,-102.711 231.635,-100.744 224.01,-98.5656"/>
<polygon fill="midnightblue" stroke="midnightblue" points="1417.82,-156.543 1427.85,-153.123 1417.88,-149.543 1417.82,-156.543"/>
</g>
<!-- Node4 -->
<g id="node4" class="node"><title>Node4</title>
<g id="a_node4"><a xlink:href="$AP__Camera_8h.html" xlink:title="Photo or video camera manager, with EEPROM&#45;backed storage of constants. ">
<polygon fill="white" stroke="black" points="256.167,-70.5 256.167,-98.5 364.423,-98.5 364.423,-70.5 256.167,-70.5"/>
<text text-anchor="start" x="264.167" y="-86.5" font-family="Helvetica,sans-Serif" font-size="10.00">libraries/AP_Camera</text>
<text text-anchor="middle" x="310.295" y="-76.5" font-family="Helvetica,sans-Serif" font-size="10.00">/AP_Camera.h</text>
</a>
</g>
</g>
<!-- Node1&#45;&gt;Node4 -->
<g id="edge3" class="edge"><title>Node1&#45;&gt;Node4</title>
<path fill="none" stroke="midnightblue" d="M1417.74,-152.591C1205.56,-149.505 575.573,-137.681 373.295,-104 365.424,-102.689 357.147,-100.712 349.275,-98.5312"/>
<polygon fill="midnightblue" stroke="midnightblue" points="1417.77,-156.091 1427.82,-152.735 1417.87,-149.092 1417.77,-156.091"/>
</g>
<!-- Node6 -->
<g id="node6" class="node"><title>Node6</title>
<g id="a_node6"><a xlink:href="$AP__Compass__Calibration_8cpp.html" xlink:title="libraries/AP_Compass\l/AP_Compass_Calibration.cpp">
<polygon fill="white" stroke="black" points="382.205,-70.5 382.205,-98.5 534.386,-98.5 534.386,-70.5 382.205,-70.5"/>
<text text-anchor="start" x="390.205" y="-86.5" font-family="Helvetica,sans-Serif" font-size="10.00">libraries/AP_Compass</text>
<text text-anchor="middle" x="458.295" y="-76.5" font-family="Helvetica,sans-Serif" font-size="10.00">/AP_Compass_Calibration.cpp</text>
</a>
</g>
</g>
<!-- Node1&#45;&gt;Node6 -->
<g id="edge5" class="edge"><title>Node1&#45;&gt;Node6</title>
<path fill="none" stroke="midnightblue" d="M1417.98,-153.697C1260.57,-153.292 868.132,-147.565 543.295,-104 533.117,-102.635 522.348,-100.69 512.022,-98.5689"/>
<polygon fill="midnightblue" stroke="midnightblue" points="1418,-157.197 1428,-153.717 1418.01,-150.197 1418,-157.197"/>
</g>
<!-- Node7 -->
<g id="node7" class="node"><title>Node7</title>
<g id="a_node7"><a xlink:href="$AP__InertialSensor__UserInteract__MAVLink_8cpp.html" xlink:title="libraries/AP_InertialSensor\l/AP_InertialSensor_UserInteract\l_MAVLink.cpp">
<polygon fill="white" stroke="black" points="552.594,-65.5 552.594,-103.5 711.997,-103.5 711.997,-65.5 552.594,-65.5"/>
<text text-anchor="start" x="560.594" y="-91.5" font-family="Helvetica,sans-Serif" font-size="10.00">libraries/AP_InertialSensor</text>
<text text-anchor="start" x="560.594" y="-81.5" font-family="Helvetica,sans-Serif" font-size="10.00">/AP_InertialSensor_UserInteract</text>
<text text-anchor="middle" x="632.295" y="-71.5" font-family="Helvetica,sans-Serif" font-size="10.00">_MAVLink.cpp</text>
</a>
</g>
</g>
<!-- Node1&#45;&gt;Node7 -->
<g id="edge6" class="edge"><title>Node1&#45;&gt;Node7</title>
<path fill="none" stroke="midnightblue" d="M1417.6,-152.252C1281.98,-149.127 976.137,-138.536 721.295,-104 718.324,-103.597 715.304,-103.153 712.257,-102.674"/>
<polygon fill="midnightblue" stroke="midnightblue" points="1417.77,-155.757 1427.85,-152.482 1417.93,-148.759 1417.77,-155.757"/>
</g>
<!-- Node8 -->
<g id="node8" class="node"><title>Node8</title>
<g id="a_node8"><a xlink:href="$AP__MotorsHeli_8cpp.html" xlink:title="libraries/AP_Motors\l/AP_MotorsHeli.cpp">
<polygon fill="white" stroke="black" points="730.111,-70.5 730.111,-98.5 834.48,-98.5 834.48,-70.5 730.111,-70.5"/>
<text text-anchor="start" x="738.111" y="-86.5" font-family="Helvetica,sans-Serif" font-size="10.00">libraries/AP_Motors</text>
<text text-anchor="middle" x="782.295" y="-76.5" font-family="Helvetica,sans-Serif" font-size="10.00">/AP_MotorsHeli.cpp</text>
</a>
</g>
</g>
<!-- Node1&#45;&gt;Node8 -->
<g id="edge7" class="edge"><title>Node1&#45;&gt;Node8</title>
<path fill="none" stroke="midnightblue" d="M1417.6,-153.088C1298.21,-151.278 1049.49,-142.701 843.295,-104 835.899,-102.612 828.128,-100.656 820.704,-98.5316"/>
<polygon fill="midnightblue" stroke="midnightblue" points="1417.65,-156.589 1427.7,-153.23 1417.75,-149.59 1417.65,-156.589"/>
</g>
<!-- Node9 -->
<g id="node9" class="node"><title>Node9</title>
<g id="a_node9"><a xlink:href="$AP__Mount__SToRM32_8h.html" xlink:title="libraries/AP_Mount\l/AP_Mount_SToRM32.h">
<polygon fill="white" stroke="black" points="852.655,-70.5 852.655,-98.5 975.936,-98.5 975.936,-70.5 852.655,-70.5"/>
<text text-anchor="start" x="860.655" y="-86.5" font-family="Helvetica,sans-Serif" font-size="10.00">libraries/AP_Mount</text>
<text text-anchor="middle" x="914.295" y="-76.5" font-family="Helvetica,sans-Serif" font-size="10.00">/AP_Mount_SToRM32.h</text>
</a>
</g>
</g>
<!-- Node1&#45;&gt;Node9 -->
<g id="edge8" class="edge"><title>Node1&#45;&gt;Node9</title>
<path fill="none" stroke="midnightblue" d="M1417.82,-150.057C1320.09,-144.492 1138.19,-131.268 985.295,-104 977.019,-102.524 968.291,-100.579 959.894,-98.5058"/>
<polygon fill="midnightblue" stroke="midnightblue" points="1417.69,-153.556 1427.87,-150.62 1418.08,-146.566 1417.69,-153.556"/>
</g>
<!-- Node12 -->
<g id="node12" class="node"><title>Node12</title>
<g id="a_node12"><a xlink:href="$AP__NavEKF_8cpp.html" xlink:title="libraries/AP_NavEKF\l/AP_NavEKF.cpp">
<polygon fill="white" stroke="black" points="994.335,-70.5 994.335,-98.5 1104.26,-98.5 1104.26,-70.5 994.335,-70.5"/>
<text text-anchor="start" x="1002.33" y="-86.5" font-family="Helvetica,sans-Serif" font-size="10.00">libraries/AP_NavEKF</text>
<text text-anchor="middle" x="1049.3" y="-76.5" font-family="Helvetica,sans-Serif" font-size="10.00">/AP_NavEKF.cpp</text>
</a>
</g>
</g>
<!-- Node1&#45;&gt;Node12 -->
<g id="edge11" class="edge"><title>Node1&#45;&gt;Node12</title>
<path fill="none" stroke="midnightblue" d="M1417.71,-147.373C1341.93,-140.055 1218.27,-125.971 1113.3,-104 1106.05,-102.484 1098.43,-100.569 1091.07,-98.5505"/>
<polygon fill="midnightblue" stroke="midnightblue" points="1417.79,-150.896 1428.08,-148.361 1418.45,-143.928 1417.79,-150.896"/>
</g>
<!-- Node13 -->
<g id="node13" class="node"><title>Node13</title>
<g id="a_node13"><a xlink:href="$AP__NavEKF2_8cpp.html" xlink:title="libraries/AP_NavEKF2\l/AP_NavEKF2.cpp">
<polygon fill="white" stroke="black" points="1122.55,-70.5 1122.55,-98.5 1238.04,-98.5 1238.04,-70.5 1122.55,-70.5"/>
<text text-anchor="start" x="1130.55" y="-86.5" font-family="Helvetica,sans-Serif" font-size="10.00">libraries/AP_NavEKF2</text>
<text text-anchor="middle" x="1180.3" y="-76.5" font-family="Helvetica,sans-Serif" font-size="10.00">/AP_NavEKF2.cpp</text>
</a>
</g>
</g>
<!-- Node1&#45;&gt;Node13 -->
<g id="edge12" class="edge"><title>Node1&#45;&gt;Node13</title>
<path fill="none" stroke="midnightblue" d="M1418.11,-140.369C1369.88,-131.032 1304.48,-117.752 1247.3,-104 1240.37,-102.335 1233.08,-100.455 1225.96,-98.5477"/>
<polygon fill="midnightblue" stroke="midnightblue" points="1417.65,-143.845 1428.13,-142.3 1418.97,-136.971 1417.65,-143.845"/>
</g>
<!-- Node14 -->
<g id="node14" class="node"><title>Node14</title>
<g id="a_node14"><a xlink:href="$AP__Param_8cpp.html" xlink:title="The AP variable store. ">
<polygon fill="white" stroke="black" points="1256.22,-70.5 1256.22,-98.5 1358.37,-98.5 1358.37,-70.5 1256.22,-70.5"/>
<text text-anchor="start" x="1264.22" y="-86.5" font-family="Helvetica,sans-Serif" font-size="10.00">libraries/AP_Param</text>
<text text-anchor="middle" x="1307.3" y="-76.5" font-family="Helvetica,sans-Serif" font-size="10.00">/AP_Param.cpp</text>
</a>
</g>
</g>
<!-- Node1&#45;&gt;Node14 -->
<g id="edge13" class="edge"><title>Node1&#45;&gt;Node14</title>
<path fill="none" stroke="midnightblue" d="M1444.01,-136.861C1412.62,-125.07 1371.1,-109.472 1342.09,-98.5708"/>
<polygon fill="midnightblue" stroke="midnightblue" points="1442.8,-140.148 1453.4,-140.389 1445.27,-133.596 1442.8,-140.148"/>
</g>
<!-- Node15 -->
<g id="node15" class="node"><title>Node15</title>
<g id="a_node15"><a xlink:href="$AP__Terrain_8cpp.html" xlink:title="libraries/AP_Terrain\l/AP_Terrain.cpp">
<polygon fill="white" stroke="black" points="1376.67,-70.5 1376.67,-98.5 1479.92,-98.5 1479.92,-70.5 1376.67,-70.5"/>
<text text-anchor="start" x="1384.67" y="-86.5" font-family="Helvetica,sans-Serif" font-size="10.00">libraries/AP_Terrain</text>
<text text-anchor="middle" x="1428.3" y="-76.5" font-family="Helvetica,sans-Serif" font-size="10.00">/AP_Terrain.cpp</text>
</a>
</g>
</g>
<!-- Node1&#45;&gt;Node15 -->
<g id="edge14" class="edge"><title>Node1&#45;&gt;Node15</title>
<path fill="none" stroke="midnightblue" d="M1470,-132.766C1460.18,-121.633 1448.37,-108.25 1439.83,-98.5708"/>
<polygon fill="midnightblue" stroke="midnightblue" points="1467.49,-135.206 1476.73,-140.389 1472.73,-130.575 1467.49,-135.206"/>
</g>
<!-- Node16 -->
<g id="node16" class="node"><title>Node16</title>
<g id="a_node16"><a xlink:href="$TerrainGCS_8cpp.html" xlink:title="libraries/AP_Terrain\l/TerrainGCS.cpp">
<polygon fill="white" stroke="black" points="1497.67,-70.5 1497.67,-98.5 1600.92,-98.5 1600.92,-70.5 1497.67,-70.5"/>
<text text-anchor="start" x="1505.67" y="-86.5" font-family="Helvetica,sans-Serif" font-size="10.00">libraries/AP_Terrain</text>
<text text-anchor="middle" x="1549.3" y="-76.5" font-family="Helvetica,sans-Serif" font-size="10.00">/TerrainGCS.cpp</text>
</a>
</g>
</g>
<!-- Node1&#45;&gt;Node16 -->
<g id="edge15" class="edge"><title>Node1&#45;&gt;Node16</title>
<path fill="none" stroke="midnightblue" d="M1506.9,-132.766C1516.88,-121.633 1528.89,-108.25 1537.57,-98.5708"/>
<polygon fill="midnightblue" stroke="midnightblue" points="1504.13,-130.608 1500.06,-140.389 1509.34,-135.282 1504.13,-130.608"/>
</g>
<!-- Node17 -->
<g id="node17" class="node"><title>Node17</title>
<g id="a_node17"><a xlink:href="$TerrainIO_8cpp.html" xlink:title="libraries/AP_Terrain\l/TerrainIO.cpp">
<polygon fill="white" stroke="black" points="1618.67,-70.5 1618.67,-98.5 1721.92,-98.5 1721.92,-70.5 1618.67,-70.5"/>
<text text-anchor="start" x="1626.67" y="-86.5" font-family="Helvetica,sans-Serif" font-size="10.00">libraries/AP_Terrain</text>
<text text-anchor="middle" x="1670.3" y="-76.5" font-family="Helvetica,sans-Serif" font-size="10.00">/TerrainIO.cpp</text>
</a>
</g>
</g>
<!-- Node1&#45;&gt;Node17 -->
<g id="edge16" class="edge"><title>Node1&#45;&gt;Node17</title>
<path fill="none" stroke="midnightblue" d="M1532.83,-136.861C1564.39,-125.07 1606.14,-109.472 1635.31,-98.5708"/>
<polygon fill="midnightblue" stroke="midnightblue" points="1531.53,-133.61 1523.39,-140.389 1533.98,-140.168 1531.53,-133.61"/>
</g>
<!-- Node18 -->
<g id="node18" class="node"><title>Node18</title>
<g id="a_node18"><a xlink:href="$TerrainMission_8cpp.html" xlink:title="libraries/AP_Terrain\l/TerrainMission.cpp">
<polygon fill="white" stroke="black" points="1739.67,-70.5 1739.67,-98.5 1842.92,-98.5 1842.92,-70.5 1739.67,-70.5"/>
<text text-anchor="start" x="1747.67" y="-86.5" font-family="Helvetica,sans-Serif" font-size="10.00">libraries/AP_Terrain</text>
<text text-anchor="middle" x="1791.3" y="-76.5" font-family="Helvetica,sans-Serif" font-size="10.00">/TerrainMission.cpp</text>
</a>
</g>
</g>
<!-- Node1&#45;&gt;Node18 -->
<g id="edge17" class="edge"><title>Node1&#45;&gt;Node18</title>
<path fill="none" stroke="midnightblue" d="M1558.71,-141.048C1607.45,-131.969 1673.66,-118.719 1731.3,-104 1737.63,-102.382 1744.29,-100.506 1750.78,-98.5819"/>
<polygon fill="midnightblue" stroke="midnightblue" points="1557.78,-137.661 1548.59,-142.921 1559.06,-144.544 1557.78,-137.661"/>
</g>
<!-- Node19 -->
<g id="node19" class="node"><title>Node19</title>
<g id="a_node19"><a xlink:href="$TerrainUtil_8cpp.html" xlink:title="libraries/AP_Terrain\l/TerrainUtil.cpp">
<polygon fill="white" stroke="black" points="1860.67,-70.5 1860.67,-98.5 1963.92,-98.5 1963.92,-70.5 1860.67,-70.5"/>
<text text-anchor="start" x="1868.67" y="-86.5" font-family="Helvetica,sans-Serif" font-size="10.00">libraries/AP_Terrain</text>
<text text-anchor="middle" x="1912.3" y="-76.5" font-family="Helvetica,sans-Serif" font-size="10.00">/TerrainUtil.cpp</text>
</a>
</g>
</g>
<!-- Node1&#45;&gt;Node19 -->
<g id="edge18" class="edge"><title>Node1&#45;&gt;Node19</title>
<path fill="none" stroke="midnightblue" d="M1558.83,-147.366C1632.61,-140.147 1751.48,-126.241 1852.3,-104 1859.11,-102.497 1866.26,-100.589 1873.17,-98.5733"/>
<polygon fill="midnightblue" stroke="midnightblue" points="1558.35,-143.897 1548.73,-148.341 1559.02,-150.865 1558.35,-143.897"/>
</g>
<!-- Node20 -->
<g id="node20" class="node"><title>Node20</title>
<g id="a_node20"><a xlink:href="$APM__OBC_8cpp.html" xlink:title="libraries/APM_OBC/APM\l_OBC.cpp">
<polygon fill="white" stroke="black" points="1981.73,-70.5 1981.73,-98.5 2108.86,-98.5 2108.86,-70.5 1981.73,-70.5"/>
<text text-anchor="start" x="1989.73" y="-86.5" font-family="Helvetica,sans-Serif" font-size="10.00">libraries/APM_OBC/APM</text>
<text text-anchor="middle" x="2045.3" y="-76.5" font-family="Helvetica,sans-Serif" font-size="10.00">_OBC.cpp</text>
</a>
</g>
</g>
<!-- Node1&#45;&gt;Node20 -->
<g id="edge19" class="edge"><title>Node1&#45;&gt;Node20</title>
<path fill="none" stroke="midnightblue" d="M1558.85,-149.622C1653.67,-143.655 1827.18,-130.076 1973.3,-104 1981.55,-102.526 1990.26,-100.608 1998.65,-98.5664"/>
<polygon fill="midnightblue" stroke="midnightblue" points="1558.57,-146.132 1548.81,-150.244 1559.01,-153.119 1558.57,-146.132"/>
</g>
<!-- Node21 -->
<g id="node21" class="node"><title>Node21</title>
<g id="a_node21"><a xlink:href="$routing_8cpp.html" xlink:title="libraries/GCS_MAVLink\l/examples/routing/routing.cpp">
<polygon fill="white" stroke="black" points="2126.7,-70.5 2126.7,-98.5 2273.89,-98.5 2273.89,-70.5 2126.7,-70.5"/>
<text text-anchor="start" x="2134.7" y="-86.5" font-family="Helvetica,sans-Serif" font-size="10.00">libraries/GCS_MAVLink</text>
<text text-anchor="middle" x="2200.3" y="-76.5" font-family="Helvetica,sans-Serif" font-size="10.00">/examples/routing/routing.cpp</text>
</a>
</g>
</g>
<!-- Node1&#45;&gt;Node21 -->
<g id="edge20" class="edge"><title>Node1&#45;&gt;Node21</title>
<path fill="none" stroke="midnightblue" d="M1558.8,-151.26C1675.67,-146.81 1916.65,-134.508 2118.3,-104 2127.82,-102.559 2137.88,-100.632 2147.57,-98.5641"/>
<polygon fill="midnightblue" stroke="midnightblue" points="1558.42,-147.772 1548.56,-151.642 1558.68,-154.767 1558.42,-147.772"/>
</g>
<!-- Node22 -->
<g id="node22" class="node"><title>Node22</title>
<g id="a_node22"><a xlink:href="$GCS__Common_8cpp.html" xlink:title="libraries/GCS_MAVLink\l/GCS_Common.cpp">
<polygon fill="white" stroke="black" points="2292.15,-70.5 2292.15,-98.5 2412.44,-98.5 2412.44,-70.5 2292.15,-70.5"/>
<text text-anchor="start" x="2300.15" y="-86.5" font-family="Helvetica,sans-Serif" font-size="10.00">libraries/GCS_MAVLink</text>
<text text-anchor="middle" x="2352.3" y="-76.5" font-family="Helvetica,sans-Serif" font-size="10.00">/GCS_Common.cpp</text>
</a>
</g>
</g>
<!-- Node1&#45;&gt;Node22 -->
<g id="edge21" class="edge"><title>Node1&#45;&gt;Node22</title>
<path fill="none" stroke="midnightblue" d="M1558.71,-153.814C1698.03,-153.404 2018.34,-147.321 2283.3,-104 2291.62,-102.639 2300.39,-100.696 2308.78,-98.5758"/>
<polygon fill="midnightblue" stroke="midnightblue" points="1558.58,-150.315 1548.59,-153.835 1558.6,-157.315 1558.58,-150.315"/>
</g>
<!-- Node23 -->
<g id="node23" class="node"><title>Node23</title>
<g id="a_node23"><a xlink:href="$GCS__Logs_8cpp.html" xlink:title="libraries/GCS_MAVLink\l/GCS_Logs.cpp">
<polygon fill="white" stroke="black" points="2430.15,-70.5 2430.15,-98.5 2550.44,-98.5 2550.44,-70.5 2430.15,-70.5"/>
<text text-anchor="start" x="2438.15" y="-86.5" font-family="Helvetica,sans-Serif" font-size="10.00">libraries/GCS_MAVLink</text>
<text text-anchor="middle" x="2490.3" y="-76.5" font-family="Helvetica,sans-Serif" font-size="10.00">/GCS_Logs.cpp</text>
</a>
</g>
</g>
<!-- Node1&#45;&gt;Node23 -->
<g id="edge22" class="edge"><title>Node1&#45;&gt;Node23</title>
<path fill="none" stroke="midnightblue" d="M1558.69,-151.671C1746.28,-146.492 2255.24,-130.369 2421.3,-104 2429.75,-102.658 2438.66,-100.695 2447.16,-98.5442"/>
<polygon fill="midnightblue" stroke="midnightblue" points="1558.56,-148.173 1548.66,-151.946 1558.75,-155.17 1558.56,-148.173"/>
</g>
<!-- Node24 -->
<g id="node24" class="node"><title>Node24</title>
<g id="a_node24"><a xlink:href="$GCS__MAVLink_8cpp.html" xlink:title="libraries/GCS_MAVLink\l/GCS_MAVLink.cpp">
<polygon fill="white" stroke="black" points="2568.15,-70.5 2568.15,-98.5 2688.44,-98.5 2688.44,-70.5 2568.15,-70.5"/>
<text text-anchor="start" x="2576.15" y="-86.5" font-family="Helvetica,sans-Serif" font-size="10.00">libraries/GCS_MAVLink</text>
<text text-anchor="middle" x="2628.3" y="-76.5" font-family="Helvetica,sans-Serif" font-size="10.00">/GCS_MAVLink.cpp</text>
</a>
</g>
</g>
<!-- Node1&#45;&gt;Node24 -->
<g id="edge23" class="edge"><title>Node1&#45;&gt;Node24</title>
<path fill="none" stroke="midnightblue" d="M1558.85,-152.225C1765.26,-148.181 2365.53,-134.092 2559.3,-104 2567.75,-102.687 2576.66,-100.737 2585.17,-98.5904"/>
<polygon fill="midnightblue" stroke="midnightblue" points="1558.67,-148.728 1548.74,-152.421 1558.8,-155.727 1558.67,-148.728"/>
</g>
<!-- Node25 -->
<g id="node25" class="node"><title>Node25</title>
<g id="a_node25"><a xlink:href="$GCS__serial__control_8cpp.html" xlink:title="libraries/GCS_MAVLink\l/GCS_serial_control.cpp">
<polygon fill="white" stroke="black" points="2706.1,-70.5 2706.1,-98.5 2830.49,-98.5 2830.49,-70.5 2706.1,-70.5"/>
<text text-anchor="start" x="2714.1" y="-86.5" font-family="Helvetica,sans-Serif" font-size="10.00">libraries/GCS_MAVLink</text>
<text text-anchor="middle" x="2768.3" y="-76.5" font-family="Helvetica,sans-Serif" font-size="10.00">/GCS_serial_control.cpp</text>
</a>
</g>
</g>
<!-- Node1&#45;&gt;Node25 -->
<g id="edge24" class="edge"><title>Node1&#45;&gt;Node25</title>
<path fill="none" stroke="midnightblue" d="M1558.9,-152.592C1782.84,-149.4 2475.51,-137.046 2697.3,-104 2706.11,-102.686 2715.42,-100.707 2724.28,-98.5258"/>
<polygon fill="midnightblue" stroke="midnightblue" points="1558.54,-149.097 1548.59,-152.737 1558.64,-156.096 1558.54,-149.097"/>
</g>
<!-- Node26 -->
<g id="node26" class="node"><title>Node26</title>
<g id="a_node26"><a xlink:href="$MAVLink__routing_8cpp.html" xlink:title="libraries/GCS_MAVLink\l/MAVLink_routing.cpp">
<polygon fill="white" stroke="black" points="2848.15,-70.5 2848.15,-98.5 2968.44,-98.5 2968.44,-70.5 2848.15,-70.5"/>
<text text-anchor="start" x="2856.15" y="-86.5" font-family="Helvetica,sans-Serif" font-size="10.00">libraries/GCS_MAVLink</text>
<text text-anchor="middle" x="2908.3" y="-76.5" font-family="Helvetica,sans-Serif" font-size="10.00">/MAVLink_routing.cpp</text>
</a>
</g>
</g>
<!-- Node1&#45;&gt;Node26 -->
<g id="edge25" class="edge"><title>Node1&#45;&gt;Node26</title>
<path fill="none" stroke="midnightblue" d="M1558.51,-153.014C1799.01,-151.023 2588.61,-141.706 2839.3,-104 2847.88,-102.709 2856.93,-100.74 2865.55,-98.5619"/>
<polygon fill="midnightblue" stroke="midnightblue" points="1558.46,-149.514 1548.48,-153.095 1558.51,-156.514 1558.46,-149.514"/>
</g>
<!-- Node5 -->
<g id="node5" class="node"><title>Node5</title>
<g id="a_node5"><a xlink:href="$AP__Camera_8cpp.html" xlink:title="libraries/AP_Camera\l/AP_Camera.cpp">
<polygon fill="white" stroke="black" points="256.167,-0.5 256.167,-28.5 364.423,-28.5 364.423,-0.5 256.167,-0.5"/>
<text text-anchor="start" x="264.167" y="-16.5" font-family="Helvetica,sans-Serif" font-size="10.00">libraries/AP_Camera</text>
<text text-anchor="middle" x="310.295" y="-6.5" font-family="Helvetica,sans-Serif" font-size="10.00">/AP_Camera.cpp</text>
</a>
</g>
</g>
<!-- Node4&#45;&gt;Node5 -->
<g id="edge4" class="edge"><title>Node4&#45;&gt;Node5</title>
<path fill="none" stroke="midnightblue" d="M310.295,-60.1336C310.295,-49.5764 310.295,-37.4982 310.295,-28.5708"/>
<polygon fill="midnightblue" stroke="midnightblue" points="306.796,-60.3889 310.295,-70.3889 313.796,-60.389 306.796,-60.3889"/>
</g>
<!-- Node10 -->
<g id="node10" class="node"><title>Node10</title>
<g id="a_node10"><a xlink:href="$AP__Mount_8cpp.html" xlink:title="libraries/AP_Mount\l/AP_Mount.cpp">
<polygon fill="white" stroke="black" points="796.054,-0.5 796.054,-28.5 896.537,-28.5 896.537,-0.5 796.054,-0.5"/>
<text text-anchor="start" x="804.054" y="-16.5" font-family="Helvetica,sans-Serif" font-size="10.00">libraries/AP_Mount</text>
<text text-anchor="middle" x="846.295" y="-6.5" font-family="Helvetica,sans-Serif" font-size="10.00">/AP_Mount.cpp</text>
</a>
</g>
</g>
<!-- Node9&#45;&gt;Node10 -->
<g id="edge9" class="edge"><title>Node9&#45;&gt;Node10</title>
<path fill="none" stroke="midnightblue" d="M893.885,-63.0891C882.689,-51.8931 869.139,-38.344 859.366,-28.5708"/>
<polygon fill="midnightblue" stroke="midnightblue" points="891.638,-65.7927 901.184,-70.3889 896.588,-60.8429 891.638,-65.7927"/>
</g>
<!-- Node11 -->
<g id="node11" class="node"><title>Node11</title>
<g id="a_node11"><a xlink:href="$AP__Mount__SToRM32_8cpp.html" xlink:title="libraries/AP_Mount\l/AP_Mount_SToRM32.cpp">
<polygon fill="white" stroke="black" points="914.375,-0.5 914.375,-28.5 1048.22,-28.5 1048.22,-0.5 914.375,-0.5"/>
<text text-anchor="start" x="922.375" y="-16.5" font-family="Helvetica,sans-Serif" font-size="10.00">libraries/AP_Mount</text>
<text text-anchor="middle" x="981.295" y="-6.5" font-family="Helvetica,sans-Serif" font-size="10.00">/AP_Mount_SToRM32.cpp</text>
</a>
</g>
</g>
<!-- Node9&#45;&gt;Node11 -->
<g id="edge10" class="edge"><title>Node9&#45;&gt;Node11</title>
<path fill="none" stroke="midnightblue" d="M934.406,-63.0891C945.437,-51.8931 958.787,-38.344 968.417,-28.5708"/>
<polygon fill="midnightblue" stroke="midnightblue" points="931.739,-60.8092 927.214,-70.3889 936.725,-65.7221 931.739,-60.8092"/>
</g>
</g>
</svg>
