<?xml version="1.0" encoding="UTF-8" standalone="no"?>
<!DOCTYPE svg PUBLIC "-//W3C//DTD SVG 1.1//EN"
 "http://www.w3.org/Graphics/SVG/1.1/DTD/svg11.dtd">
<!-- Generated by graphviz version 2.38.0 (20140413.2041)
 -->
<!-- Title: setup Pages: 1 -->
<svg width="659pt" height="190pt"
 viewBox="0.00 0.00 659.01 190.00" xmlns="http://www.w3.org/2000/svg" xmlns:xlink="http://www.w3.org/1999/xlink">
<g id="graph0" class="graph" transform="scale(1 1) rotate(0) translate(4 186)">
<title>setup</title>
<polygon fill="white" stroke="none" points="-4,4 -4,-186 655.012,-186 655.012,4 -4,4"/>
<!-- Node1 -->
<g id="node1" class="node"><title>Node1</title>
<polygon fill="#bfbfbf" stroke="black" points="0,-116.5 0,-134.5 40.4629,-134.5 40.4629,-116.5 0,-116.5"/>
<text text-anchor="middle" x="20.2314" y="-122.5" font-family="Helvetica,sans-Serif" font-size="10.00">setup</text>
</g>
<!-- Node2 -->
<g id="node2" class="node"><title>Node2</title>
<g id="a_node2"><a xlink:href="$classAP__HAL_1_1UARTDriver.html#a2a83124757f6f8f6eb4d25b11c9cb97e" xlink:title="AP_HAL::UARTDriver\l::begin">
<polygon fill="white" stroke="black" points="76.4629,-153.5 76.4629,-181.5 190.085,-181.5 190.085,-153.5 76.4629,-153.5"/>
<text text-anchor="start" x="84.4629" y="-169.5" font-family="Helvetica,sans-Serif" font-size="10.00">AP_HAL::UARTDriver</text>
<text text-anchor="middle" x="133.274" y="-159.5" font-family="Helvetica,sans-Serif" font-size="10.00">::begin</text>
</a>
</g>
</g>
<!-- Node1&#45;&gt;Node2 -->
<g id="edge1" class="edge"><title>Node1&#45;&gt;Node2</title>
<path fill="none" stroke="midnightblue" d="M40.5736,-132.816C53.0263,-137.526 69.7799,-143.863 85.5595,-149.831"/>
<polygon fill="midnightblue" stroke="midnightblue" points="84.62,-153.218 95.2116,-153.482 87.0965,-146.67 84.62,-153.218"/>
</g>
<!-- Node3 -->
<g id="node3" class="node"><title>Node3</title>
<g id="a_node3"><a xlink:href="$simplegcs_8cpp.html#ab0b28a573b02c581205a6ca0d9dbcb37" xlink:title="try_send_statustext">
<polygon fill="white" stroke="black" points="81.917,-116.5 81.917,-134.5 184.631,-134.5 184.631,-116.5 81.917,-116.5"/>
<text text-anchor="middle" x="133.274" y="-122.5" font-family="Helvetica,sans-Serif" font-size="10.00">try_send_statustext</text>
</a>
</g>
</g>
<!-- Node1&#45;&gt;Node3 -->
<g id="edge2" class="edge"><title>Node1&#45;&gt;Node3</title>
<path fill="none" stroke="midnightblue" d="M40.5736,-125.5C49.3272,-125.5 60.206,-125.5 71.3778,-125.5"/>
<polygon fill="midnightblue" stroke="midnightblue" points="71.6675,-129 81.6674,-125.5 71.6674,-122 71.6675,-129"/>
</g>
<!-- Node6 -->
<g id="node6" class="node"><title>Node6</title>
<g id="a_node6"><a xlink:href="$classAP__HAL_1_1UARTDriver.html#a65c7824b8877f7a2f79365c8ffae8f56" xlink:title="AP_HAL::UARTDriver\l::printf">
<polygon fill="white" stroke="black" points="76.4629,-69.5 76.4629,-97.5 190.085,-97.5 190.085,-69.5 76.4629,-69.5"/>
<text text-anchor="start" x="84.4629" y="-85.5" font-family="Helvetica,sans-Serif" font-size="10.00">AP_HAL::UARTDriver</text>
<text text-anchor="middle" x="133.274" y="-75.5" font-family="Helvetica,sans-Serif" font-size="10.00">::printf</text>
</a>
</g>
</g>
<!-- Node1&#45;&gt;Node6 -->
<g id="edge5" class="edge"><title>Node1&#45;&gt;Node6</title>
<path fill="none" stroke="midnightblue" d="M40.5736,-118.184C53.0263,-113.474 69.7799,-107.137 85.5595,-101.169"/>
<polygon fill="midnightblue" stroke="midnightblue" points="87.0965,-104.33 95.2116,-97.5182 84.62,-97.7824 87.0965,-104.33"/>
</g>
<!-- Node4 -->
<g id="node4" class="node"><title>Node4</title>
<g id="a_node4"><a xlink:href="$GCS__MAVLink_8cpp.html#a2a0fd455fd37f642e9eb67373a14b7d9" xlink:title="comm_get_txspace">
<polygon fill="white" stroke="black" points="231.542,-116.5 231.542,-134.5 334.25,-134.5 334.25,-116.5 231.542,-116.5"/>
<text text-anchor="middle" x="282.896" y="-122.5" font-family="Helvetica,sans-Serif" font-size="10.00">comm_get_txspace</text>
</a>
</g>
</g>
<!-- Node3&#45;&gt;Node4 -->
<g id="edge3" class="edge"><title>Node3&#45;&gt;Node4</title>
<path fill="none" stroke="midnightblue" d="M184.664,-125.5C196.475,-125.5 209.179,-125.5 221.381,-125.5"/>
<polygon fill="midnightblue" stroke="midnightblue" points="221.482,-129 231.482,-125.5 221.482,-122 221.482,-129"/>
</g>
<!-- Node5 -->
<g id="node5" class="node"><title>Node5</title>
<g id="a_node5"><a xlink:href="$classAP__HAL_1_1Stream.html#a7028834212873394e906bcaf7f4a06b3" xlink:title="AP_HAL::Stream::txspace">
<polygon fill="white" stroke="black" points="375.707,-116.5 375.707,-134.5 507.869,-134.5 507.869,-116.5 375.707,-116.5"/>
<text text-anchor="middle" x="441.788" y="-122.5" font-family="Helvetica,sans-Serif" font-size="10.00">AP_HAL::Stream::txspace</text>
</a>
</g>
</g>
<!-- Node4&#45;&gt;Node5 -->
<g id="edge4" class="edge"><title>Node4&#45;&gt;Node5</title>
<path fill="none" stroke="midnightblue" d="M334.401,-125.5C344.312,-125.5 354.908,-125.5 365.429,-125.5"/>
<polygon fill="midnightblue" stroke="midnightblue" points="365.469,-129 375.469,-125.5 365.469,-122 365.469,-129"/>
</g>
<!-- Node7 -->
<g id="node7" class="node"><title>Node7</title>
<g id="a_node7"><a xlink:href="$classAP__HAL_1_1UARTDriver.html#aa8abfb6d6641299472c29ac1edde559f" xlink:title="AP_HAL::UARTDriver\l::vprintf">
<polygon fill="white" stroke="black" points="226.085,-69.5 226.085,-97.5 339.707,-97.5 339.707,-69.5 226.085,-69.5"/>
<text text-anchor="start" x="234.085" y="-85.5" font-family="Helvetica,sans-Serif" font-size="10.00">AP_HAL::UARTDriver</text>
<text text-anchor="middle" x="282.896" y="-75.5" font-family="Helvetica,sans-Serif" font-size="10.00">::vprintf</text>
</a>
</g>
</g>
<!-- Node6&#45;&gt;Node7 -->
<g id="edge6" class="edge"><title>Node6&#45;&gt;Node7</title>
<path fill="none" stroke="midnightblue" d="M190.505,-83.5C198.73,-83.5 207.265,-83.5 215.668,-83.5"/>
<polygon fill="midnightblue" stroke="midnightblue" points="215.822,-87.0001 225.822,-83.5 215.822,-80.0001 215.822,-87.0001"/>
</g>
<!-- Node8 -->
<g id="node8" class="node"><title>Node8</title>
<g id="a_node8"><a xlink:href="$print__vprintf_8cpp.html#a473b9349f4b086b552a21eb8fe057016" xlink:title="print_vprintf">
<polygon fill="white" stroke="black" points="407.665,-74.5 407.665,-92.5 475.911,-92.5 475.911,-74.5 407.665,-74.5"/>
<text text-anchor="middle" x="441.788" y="-80.5" font-family="Helvetica,sans-Serif" font-size="10.00">print_vprintf</text>
</a>
</g>
</g>
<!-- Node7&#45;&gt;Node8 -->
<g id="edge7" class="edge"><title>Node7&#45;&gt;Node8</title>
<path fill="none" stroke="midnightblue" d="M340.094,-83.5C358.911,-83.5 379.589,-83.5 397.285,-83.5"/>
<polygon fill="midnightblue" stroke="midnightblue" points="397.323,-87.0001 407.323,-83.5 397.323,-80.0001 397.323,-87.0001"/>
</g>
<!-- Node9 -->
<g id="node9" class="node"><title>Node9</title>
<g id="a_node9"><a xlink:href="$classAP__HAL_1_1Print.html#acc65391952a43334f8f5c9bef341f501" xlink:title="AP_HAL::Print::write">
<polygon fill="white" stroke="black" points="543.869,-148.5 543.869,-166.5 651.012,-166.5 651.012,-148.5 543.869,-148.5"/>
<text text-anchor="middle" x="597.44" y="-154.5" font-family="Helvetica,sans-Serif" font-size="10.00">AP_HAL::Print::write</text>
</a>
</g>
</g>
<!-- Node8&#45;&gt;Node9 -->
<g id="edge8" class="edge"><title>Node8&#45;&gt;Node9</title>
<path fill="none" stroke="midnightblue" d="M474.66,-92.5924C485.593,-96.3928 497.643,-101.371 507.869,-107.5 526.231,-118.506 525.38,-128.71 543.869,-139.5 547.1,-141.386 550.559,-143.113 554.102,-144.687"/>
<polygon fill="midnightblue" stroke="midnightblue" points="552.996,-148.015 563.58,-148.498 555.607,-141.52 552.996,-148.015"/>
</g>
<!-- Node10 -->
<g id="node10" class="node"><title>Node10</title>
<g id="a_node10"><a xlink:href="$ftoa__engine_8cpp.html#a1c28234da8f20b43c85890d4bb452947" xlink:title="ftoa_engine">
<polygon fill="white" stroke="black" points="563.305,-111.5 563.305,-129.5 631.576,-129.5 631.576,-111.5 563.305,-111.5"/>
<text text-anchor="middle" x="597.44" y="-117.5" font-family="Helvetica,sans-Serif" font-size="10.00">ftoa_engine</text>
</a>
</g>
</g>
<!-- Node8&#45;&gt;Node10 -->
<g id="edge9" class="edge"><title>Node8&#45;&gt;Node10</title>
<path fill="none" stroke="midnightblue" d="M476.128,-91.5284C498.78,-96.9831 528.952,-104.249 553.414,-110.139"/>
<polygon fill="midnightblue" stroke="midnightblue" points="552.624,-113.549 563.165,-112.487 554.263,-106.743 552.624,-113.549"/>
</g>
<!-- Node11 -->
<g id="node11" class="node"><title>Node11</title>
<g id="a_node11"><a xlink:href="$AP__Progmem_8h.html#a1514e0408e036062b4af844baaf567da" xlink:title="pgm_read_byte">
<polygon fill="white" stroke="black" points="554.694,-74.5 554.694,-92.5 640.187,-92.5 640.187,-74.5 554.694,-74.5"/>
<text text-anchor="middle" x="597.44" y="-80.5" font-family="Helvetica,sans-Serif" font-size="10.00">pgm_read_byte</text>
</a>
</g>
</g>
<!-- Node8&#45;&gt;Node11 -->
<g id="edge10" class="edge"><title>Node8&#45;&gt;Node11</title>
<path fill="none" stroke="midnightblue" d="M476.128,-83.5C496.105,-83.5 521.931,-83.5 544.531,-83.5"/>
<polygon fill="midnightblue" stroke="midnightblue" points="544.656,-87.0001 554.656,-83.5 544.656,-80.0001 544.656,-87.0001"/>
</g>
<!-- Node12 -->
<g id="node12" class="node"><title>Node12</title>
<g id="a_node12"><a xlink:href="$utoa__invert_8cpp.html#a34926f552460b47c414ec4d83b32815c" xlink:title="ulltoa_invert">
<polygon fill="white" stroke="black" points="562.48,-37.5 562.48,-55.5 632.401,-55.5 632.401,-37.5 562.48,-37.5"/>
<text text-anchor="middle" x="597.44" y="-43.5" font-family="Helvetica,sans-Serif" font-size="10.00">ulltoa_invert</text>
</a>
</g>
</g>
<!-- Node8&#45;&gt;Node12 -->
<g id="edge11" class="edge"><title>Node8&#45;&gt;Node12</title>
<path fill="none" stroke="midnightblue" d="M476.128,-75.4716C498.448,-70.097 528.068,-62.9642 552.334,-57.1211"/>
<polygon fill="midnightblue" stroke="midnightblue" points="553.466,-60.4486 562.368,-54.7047 551.827,-53.6431 553.466,-60.4486"/>
</g>
<!-- Node13 -->
<g id="node13" class="node"><title>Node13</title>
<g id="a_node13"><a xlink:href="$utoa__invert_8cpp.html#a5d99bba8e697c1e11da489d88fca8559" xlink:title="ultoa_invert">
<polygon fill="white" stroke="black" points="563.591,-0.5 563.591,-18.5 631.29,-18.5 631.29,-0.5 563.591,-0.5"/>
<text text-anchor="middle" x="597.44" y="-6.5" font-family="Helvetica,sans-Serif" font-size="10.00">ultoa_invert</text>
</a>
</g>
</g>
<!-- Node8&#45;&gt;Node13 -->
<g id="edge12" class="edge"><title>Node8&#45;&gt;Node13</title>
<path fill="none" stroke="midnightblue" d="M457.834,-74.3743C477.267,-62.8084 512.347,-42.6741 543.869,-28.5 548.848,-26.2613 554.177,-24.0891 559.462,-22.0622"/>
<polygon fill="midnightblue" stroke="midnightblue" points="560.68,-25.3434 568.842,-18.5879 558.249,-18.7792 560.68,-25.3434"/>
</g>
</g>
</svg>
