<?xml version="1.0" encoding="UTF-8" standalone="no"?>
<!DOCTYPE svg PUBLIC "-//W3C//DTD SVG 1.1//EN"
 "http://www.w3.org/Graphics/SVG/1.1/DTD/svg11.dtd">
<!-- Generated by graphviz version 2.38.0 (20140413.2041)
 -->
<!-- Title: libraries/AP_HAL/utility/getopt_cpp.h Pages: 1 -->
<svg width="402pt" height="102pt"
 viewBox="0.00 0.00 402.26 102.00" xmlns="http://www.w3.org/2000/svg" xmlns:xlink="http://www.w3.org/1999/xlink">
<g id="graph0" class="graph" transform="scale(1 1) rotate(0) translate(4 98)">
<title>libraries/AP_HAL/utility/getopt_cpp.h</title>
<polygon fill="white" stroke="none" points="-4,4 -4,-98 398.263,-98 398.263,4 -4,4"/>
<!-- Node1 -->
<g id="node1" class="node"><title>Node1</title>
<polygon fill="#bfbfbf" stroke="black" points="138,-65.5 138,-93.5 255.704,-93.5 255.704,-65.5 138,-65.5"/>
<text text-anchor="start" x="146" y="-81.5" font-family="Helvetica,sans-Serif" font-size="10.00">libraries/AP_HAL/utility</text>
<text text-anchor="middle" x="196.852" y="-71.5" font-family="Helvetica,sans-Serif" font-size="10.00">/getopt_cpp.h</text>
</g>
<!-- Node2 -->
<g id="node2" class="node"><title>Node2</title>
<g id="a_node2"><a xlink:href="$getopt__cpp_8cpp.html" xlink:title="libraries/AP_HAL/utility\l/getopt_cpp.cpp">
<polygon fill="white" stroke="black" points="0,-0.5 0,-28.5 117.704,-28.5 117.704,-0.5 0,-0.5"/>
<text text-anchor="start" x="8" y="-16.5" font-family="Helvetica,sans-Serif" font-size="10.00">libraries/AP_HAL/utility</text>
<text text-anchor="middle" x="58.8521" y="-6.5" font-family="Helvetica,sans-Serif" font-size="10.00">/getopt_cpp.cpp</text>
</a>
</g>
</g>
<!-- Node1&#45;&gt;Node2 -->
<g id="edge1" class="edge"><title>Node1&#45;&gt;Node2</title>
<path fill="none" stroke="midnightblue" d="M158.955,-61.1994C136.355,-50.8817 108.124,-37.9937 87.4091,-28.5369"/>
<polygon fill="midnightblue" stroke="midnightblue" points="157.708,-64.4773 168.258,-65.4464 160.615,-58.1095 157.708,-64.4773"/>
</g>
<!-- Node3 -->
<g id="node3" class="node"><title>Node3</title>
<g id="a_node3"><a xlink:href="$HAL__Linux__Class_8cpp.html" xlink:title="libraries/AP_HAL_Linux\l/HAL_Linux_Class.cpp">
<polygon fill="white" stroke="black" points="136.047,-0.5 136.047,-28.5 257.657,-28.5 257.657,-0.5 136.047,-0.5"/>
<text text-anchor="start" x="144.047" y="-16.5" font-family="Helvetica,sans-Serif" font-size="10.00">libraries/AP_HAL_Linux</text>
<text text-anchor="middle" x="196.852" y="-6.5" font-family="Helvetica,sans-Serif" font-size="10.00">/HAL_Linux_Class.cpp</text>
</a>
</g>
</g>
<!-- Node1&#45;&gt;Node3 -->
<g id="edge2" class="edge"><title>Node1&#45;&gt;Node3</title>
<path fill="none" stroke="midnightblue" d="M196.852,-55.1641C196.852,-46.1693 196.852,-36.2205 196.852,-28.5369"/>
<polygon fill="midnightblue" stroke="midnightblue" points="193.352,-55.4463 196.852,-65.4464 200.352,-55.4464 193.352,-55.4463"/>
</g>
<!-- Node4 -->
<g id="node4" class="node"><title>Node4</title>
<g id="a_node4"><a xlink:href="$SITL__cmdline_8cpp.html" xlink:title="libraries/AP_HAL_SITL\l/SITL_cmdline.cpp">
<polygon fill="white" stroke="black" points="275.441,-0.5 275.441,-28.5 394.263,-28.5 394.263,-0.5 275.441,-0.5"/>
<text text-anchor="start" x="283.441" y="-16.5" font-family="Helvetica,sans-Serif" font-size="10.00">libraries/AP_HAL_SITL</text>
<text text-anchor="middle" x="334.852" y="-6.5" font-family="Helvetica,sans-Serif" font-size="10.00">/SITL_cmdline.cpp</text>
</a>
</g>
</g>
<!-- Node1&#45;&gt;Node4 -->
<g id="edge3" class="edge"><title>Node1&#45;&gt;Node4</title>
<path fill="none" stroke="midnightblue" d="M234.749,-61.1994C257.349,-50.8817 285.58,-37.9937 306.295,-28.5369"/>
<polygon fill="midnightblue" stroke="midnightblue" points="233.089,-58.1095 225.446,-65.4464 235.996,-64.4773 233.089,-58.1095"/>
</g>
</g>
</svg>
