<?xml version="1.0" encoding="UTF-8" standalone="no"?>
<!DOCTYPE svg PUBLIC "-//W3C//DTD SVG 1.1//EN"
 "http://www.w3.org/Graphics/SVG/1.1/DTD/svg11.dtd">
<!-- Generated by graphviz version 2.38.0 (20140413.2041)
 -->
<!-- Title: libraries/AP_HAL_Linux/examples/GPIOTest/GPIOTest.cpp Pages: 1 -->
<svg width="1391pt" height="652pt"
 viewBox="0.00 0.00 1390.73 652.00" xmlns="http://www.w3.org/2000/svg" xmlns:xlink="http://www.w3.org/1999/xlink">
<g id="graph0" class="graph" transform="scale(1 1) rotate(0) translate(4 648)">
<title>libraries/AP_HAL_Linux/examples/GPIOTest/GPIOTest.cpp</title>
<polygon fill="white" stroke="none" points="-4,4 -4,-648 1386.73,-648 1386.73,4 -4,4"/>
<!-- Node1 -->
<g id="node1" class="node"><title>Node1</title>
<polygon fill="#bfbfbf" stroke="black" points="56.3696,-615.5 56.3696,-643.5 229.093,-643.5 229.093,-615.5 56.3696,-615.5"/>
<text text-anchor="start" x="64.3696" y="-631.5" font-family="Helvetica,sans-Serif" font-size="10.00">libraries/AP_HAL_Linux</text>
<text text-anchor="middle" x="142.731" y="-621.5" font-family="Helvetica,sans-Serif" font-size="10.00">/examples/GPIOTest/GPIOTest.cpp</text>
</g>
<!-- Node2 -->
<g id="node2" class="node"><title>Node2</title>
<polygon fill="white" stroke="#bfbfbf" points="0,-555.5 0,-573.5 45.4629,-573.5 45.4629,-555.5 0,-555.5"/>
<text text-anchor="middle" x="22.7314" y="-561.5" font-family="Helvetica,sans-Serif" font-size="10.00">stdio.h</text>
</g>
<!-- Node1&#45;&gt;Node2 -->
<g id="edge1" class="edge"><title>Node1&#45;&gt;Node2</title>
<path fill="none" stroke="midnightblue" d="M117.867,-615.446C97.1249,-604.557 67.7323,-589.125 47.1227,-578.305"/>
<polygon fill="midnightblue" stroke="midnightblue" points="48.5419,-575.097 38.061,-573.548 45.288,-581.295 48.5419,-575.097"/>
</g>
<!-- Node3 -->
<g id="node3" class="node"><title>Node3</title>
<polygon fill="white" stroke="#bfbfbf" points="63.2192,-555.5 63.2192,-573.5 114.244,-573.5 114.244,-555.5 63.2192,-555.5"/>
<text text-anchor="middle" x="88.7314" y="-561.5" font-family="Helvetica,sans-Serif" font-size="10.00">unistd.h</text>
</g>
<!-- Node1&#45;&gt;Node3 -->
<g id="edge2" class="edge"><title>Node1&#45;&gt;Node3</title>
<path fill="none" stroke="midnightblue" d="M131.543,-615.446C123.06,-605.55 111.362,-591.902 102.338,-581.374"/>
<polygon fill="midnightblue" stroke="midnightblue" points="104.951,-579.045 95.7858,-573.73 99.6363,-583.6 104.951,-579.045"/>
</g>
<!-- Node4 -->
<g id="node4" class="node"><title>Node4</title>
<g id="a_node4"><a xlink:href="$AP__Common_8h.html" xlink:title="Common definitions and utility routines for the ArduPilot libraries. ">
<polygon fill="white" stroke="black" points="254.705,-165.5 254.705,-183.5 400.758,-183.5 400.758,-165.5 254.705,-165.5"/>
<text text-anchor="middle" x="327.731" y="-171.5" font-family="Helvetica,sans-Serif" font-size="10.00">AP_Common/AP_Common.h</text>
</a>
</g>
</g>
<!-- Node1&#45;&gt;Node4 -->
<g id="edge3" class="edge"><title>Node1&#45;&gt;Node4</title>
<path fill="none" stroke="midnightblue" d="M142.731,-615.213C142.731,-592.657 142.731,-545.432 142.731,-505.5 142.731,-505.5 142.731,-505.5 142.731,-338.5 142.731,-269.559 210.416,-285.038 261.731,-239 279.57,-222.996 299.281,-203.826 312.476,-190.766"/>
<polygon fill="midnightblue" stroke="midnightblue" points="315.153,-193.039 319.775,-183.506 310.217,-188.076 315.153,-193.039"/>
</g>
<!-- Node8 -->
<g id="node8" class="node"><title>Node8</title>
<g id="a_node8"><a xlink:href="$AP__HAL__Linux_8h.html" xlink:title="AP_HAL_Linux/AP_HAL\l_Linux.h">
<polygon fill="white" stroke="black" points="464.254,-550.5 464.254,-578.5 589.209,-578.5 589.209,-550.5 464.254,-550.5"/>
<text text-anchor="start" x="472.254" y="-566.5" font-family="Helvetica,sans-Serif" font-size="10.00">AP_HAL_Linux/AP_HAL</text>
<text text-anchor="middle" x="526.731" y="-556.5" font-family="Helvetica,sans-Serif" font-size="10.00">_Linux.h</text>
</a>
</g>
</g>
<!-- Node1&#45;&gt;Node8 -->
<g id="edge7" class="edge"><title>Node1&#45;&gt;Node8</title>
<path fill="none" stroke="midnightblue" d="M222.296,-615.446C290.52,-604.253 387.986,-588.263 454.119,-577.413"/>
<polygon fill="midnightblue" stroke="midnightblue" points="454.747,-580.857 464.048,-575.784 453.614,-573.949 454.747,-580.857"/>
</g>
<!-- Node35 -->
<g id="node35" class="node"><title>Node35</title>
<g id="a_node35"><a xlink:href="$AP__Menu_8h.html" xlink:title="AP_Menu/AP_Menu.h">
<polygon fill="white" stroke="black" points="634.256,-495.5 634.256,-513.5 749.207,-513.5 749.207,-495.5 634.256,-495.5"/>
<text text-anchor="middle" x="691.731" y="-501.5" font-family="Helvetica,sans-Serif" font-size="10.00">AP_Menu/AP_Menu.h</text>
</a>
</g>
</g>
<!-- Node1&#45;&gt;Node35 -->
<g id="edge75" class="edge"><title>Node1&#45;&gt;Node35</title>
<path fill="none" stroke="midnightblue" d="M229.283,-624.732C342.186,-618.849 532.952,-605.325 597.731,-579 629.728,-565.997 659.917,-538.758 677.082,-521.339"/>
<polygon fill="midnightblue" stroke="midnightblue" points="680.025,-523.326 684.413,-513.683 674.969,-518.485 680.025,-523.326"/>
</g>
<!-- Node5 -->
<g id="node5" class="node"><title>Node5</title>
<polygon fill="white" stroke="#bfbfbf" points="480.611,-110.5 480.611,-128.5 528.852,-128.5 528.852,-110.5 480.611,-110.5"/>
<text text-anchor="middle" x="504.731" y="-116.5" font-family="Helvetica,sans-Serif" font-size="10.00">stdint.h</text>
</g>
<!-- Node4&#45;&gt;Node5 -->
<g id="edge4" class="edge"><title>Node4&#45;&gt;Node5</title>
<path fill="none" stroke="midnightblue" d="M354.614,-165.45C385.64,-156.16 436.722,-140.864 470.546,-130.736"/>
<polygon fill="midnightblue" stroke="midnightblue" points="471.872,-133.993 480.448,-127.771 469.864,-127.287 471.872,-133.993"/>
</g>
<!-- Node6 -->
<g id="node6" class="node"><title>Node6</title>
<polygon fill="white" stroke="#bfbfbf" points="303.889,-110.5 303.889,-128.5 351.574,-128.5 351.574,-110.5 303.889,-110.5"/>
<text text-anchor="middle" x="327.731" y="-116.5" font-family="Helvetica,sans-Serif" font-size="10.00">stdlib.h</text>
</g>
<!-- Node4&#45;&gt;Node6 -->
<g id="edge5" class="edge"><title>Node4&#45;&gt;Node6</title>
<path fill="none" stroke="midnightblue" d="M327.731,-165.219C327.731,-158.177 327.731,-147.808 327.731,-138.828"/>
<polygon fill="midnightblue" stroke="midnightblue" points="331.232,-138.55 327.731,-128.55 324.232,-138.55 331.232,-138.55"/>
</g>
<!-- Node7 -->
<g id="node7" class="node"><title>Node7</title>
<polygon fill="white" stroke="#bfbfbf" points="203.438,-110.5 203.438,-128.5 260.024,-128.5 260.024,-110.5 203.438,-110.5"/>
<text text-anchor="middle" x="231.731" y="-116.5" font-family="Helvetica,sans-Serif" font-size="10.00">stdbool.h</text>
</g>
<!-- Node4&#45;&gt;Node7 -->
<g id="edge6" class="edge"><title>Node4&#45;&gt;Node7</title>
<path fill="none" stroke="midnightblue" d="M313.151,-165.45C297.786,-156.968 273.35,-143.477 255.253,-133.486"/>
<polygon fill="midnightblue" stroke="midnightblue" points="256.895,-130.394 246.449,-128.625 253.512,-136.523 256.895,-130.394"/>
</g>
<!-- Node9 -->
<g id="node9" class="node"><title>Node9</title>
<g id="a_node9"><a xlink:href="$AP__HAL_8h.html" xlink:title="AP_HAL/AP_HAL.h">
<polygon fill="white" stroke="black" points="629.818,-440.5 629.818,-458.5 733.645,-458.5 733.645,-440.5 629.818,-440.5"/>
<text text-anchor="middle" x="681.731" y="-446.5" font-family="Helvetica,sans-Serif" font-size="10.00">AP_HAL/AP_HAL.h</text>
</a>
</g>
</g>
<!-- Node8&#45;&gt;Node9 -->
<g id="edge8" class="edge"><title>Node8&#45;&gt;Node9</title>
<path fill="none" stroke="midnightblue" d="M544.815,-550.316C574.198,-528.895 632.057,-486.714 662.291,-464.673"/>
<polygon fill="midnightblue" stroke="midnightblue" points="664.706,-467.243 670.725,-458.524 660.582,-461.587 664.706,-467.243"/>
</g>
<!-- Node33 -->
<g id="node33" class="node"><title>Node33</title>
<g id="a_node33"><a xlink:href="$HAL__Linux__Class_8h.html" xlink:title="HAL_Linux_Class.h">
<polygon fill="white" stroke="black" points="474.818,-495.5 474.818,-513.5 578.645,-513.5 578.645,-495.5 474.818,-495.5"/>
<text text-anchor="middle" x="526.731" y="-501.5" font-family="Helvetica,sans-Serif" font-size="10.00">HAL_Linux_Class.h</text>
</a>
</g>
</g>
<!-- Node8&#45;&gt;Node33 -->
<g id="edge72" class="edge"><title>Node8&#45;&gt;Node33</title>
<path fill="none" stroke="midnightblue" d="M526.731,-550.339C526.731,-542.531 526.731,-532.512 526.731,-523.927"/>
<polygon fill="midnightblue" stroke="midnightblue" points="530.232,-523.771 526.731,-513.771 523.232,-523.772 530.232,-523.771"/>
</g>
<!-- Node9&#45;&gt;Node5 -->
<g id="edge9" class="edge"><title>Node9&#45;&gt;Node5</title>
<path fill="none" stroke="midnightblue" d="M649.407,-440.455C586.283,-423.794 452.731,-383.468 452.731,-340.5 452.731,-340.5 452.731,-340.5 452.731,-283.5 452.731,-227.967 480.465,-166.611 495.425,-137.555"/>
<polygon fill="midnightblue" stroke="midnightblue" points="498.533,-139.163 500.117,-128.688 492.346,-135.89 498.533,-139.163"/>
</g>
<!-- Node9&#45;&gt;Node7 -->
<g id="edge10" class="edge"><title>Node9&#45;&gt;Node7</title>
<path fill="none" stroke="midnightblue" d="M629.52,-441.3C550.938,-430.312 410.361,-409.998 400.731,-404 349.968,-372.383 269.865,-238.719 245.731,-184 239.319,-169.46 235.725,-151.711 233.79,-138.678"/>
<polygon fill="midnightblue" stroke="midnightblue" points="237.245,-138.104 232.486,-128.638 230.303,-139.005 237.245,-138.104"/>
</g>
<!-- Node10 -->
<g id="node10" class="node"><title>Node10</title>
<g id="a_node10"><a xlink:href="$AP__HAL__Namespace_8h.html" xlink:title="AP_HAL_Namespace.h">
<polygon fill="white" stroke="black" points="831.924,-55.5 831.924,-73.5 953.539,-73.5 953.539,-55.5 831.924,-55.5"/>
<text text-anchor="middle" x="892.731" y="-61.5" font-family="Helvetica,sans-Serif" font-size="10.00">AP_HAL_Namespace.h</text>
</a>
</g>
</g>
<!-- Node9&#45;&gt;Node10 -->
<g id="edge11" class="edge"><title>Node9&#45;&gt;Node10</title>
<path fill="none" stroke="midnightblue" d="M629.555,-442.833C590.102,-437.025 535.449,-425.651 491.731,-404 451.981,-384.314 414.731,-384.858 414.731,-340.5 414.731,-340.5 414.731,-340.5 414.731,-283.5 414.731,-202.334 408.586,-160.995 471.731,-110 498.312,-88.534 708.391,-74.7742 821.377,-68.8509"/>
<polygon fill="midnightblue" stroke="midnightblue" points="821.861,-72.3307 831.667,-68.3191 821.499,-65.34 821.861,-72.3307"/>
</g>
<!-- Node13 -->
<g id="node13" class="node"><title>Node13</title>
<g id="a_node13"><a xlink:href="$AP__HAL__Boards_8h.html" xlink:title="AP_HAL_Boards.h">
<polygon fill="white" stroke="black" points="22.7612,-165.5 22.7612,-183.5 122.702,-183.5 122.702,-165.5 22.7612,-165.5"/>
<text text-anchor="middle" x="72.7314" y="-171.5" font-family="Helvetica,sans-Serif" font-size="10.00">AP_HAL_Boards.h</text>
</a>
</g>
</g>
<!-- Node9&#45;&gt;Node13 -->
<g id="edge14" class="edge"><title>Node9&#45;&gt;Node13</title>
<path fill="none" stroke="midnightblue" d="M629.763,-442.019C623.687,-441.312 617.574,-440.624 611.731,-440 524.968,-430.74 295.395,-449.155 220.731,-404 137.962,-353.943 92.9434,-237.886 78.2151,-193.347"/>
<polygon fill="midnightblue" stroke="midnightblue" points="81.4942,-192.109 75.1186,-183.648 74.8258,-194.238 81.4942,-192.109"/>
</g>
<!-- Node14 -->
<g id="node14" class="node"><title>Node14</title>
<g id="a_node14"><a xlink:href="$AP__HAL__Macros_8h.html" xlink:title="AP_HAL_Macros.h">
<polygon fill="white" stroke="black" points="247.212,-385.5 247.212,-403.5 348.251,-403.5 348.251,-385.5 247.212,-385.5"/>
<text text-anchor="middle" x="297.731" y="-391.5" font-family="Helvetica,sans-Serif" font-size="10.00">AP_HAL_Macros.h</text>
</a>
</g>
</g>
<!-- Node9&#45;&gt;Node14 -->
<g id="edge15" class="edge"><title>Node9&#45;&gt;Node14</title>
<path fill="none" stroke="midnightblue" d="M629.544,-441.297C558.939,-431.552 433.242,-414.203 358.478,-403.884"/>
<polygon fill="midnightblue" stroke="midnightblue" points="358.662,-400.377 348.277,-402.476 357.705,-407.311 358.662,-400.377"/>
</g>
<!-- Node15 -->
<g id="node15" class="node"><title>Node15</title>
<g id="a_node15"><a xlink:href="$AP__HAL__Main_8h.html" xlink:title="AP_HAL_Main.h">
<polygon fill="white" stroke="black" points="728.766,-385.5 728.766,-403.5 818.697,-403.5 818.697,-385.5 728.766,-385.5"/>
<text text-anchor="middle" x="773.731" y="-391.5" font-family="Helvetica,sans-Serif" font-size="10.00">AP_HAL_Main.h</text>
</a>
</g>
</g>
<!-- Node9&#45;&gt;Node15 -->
<g id="edge16" class="edge"><title>Node9&#45;&gt;Node15</title>
<path fill="none" stroke="midnightblue" d="M695.704,-440.45C710.294,-432.045 733.418,-418.724 750.711,-408.762"/>
<polygon fill="midnightblue" stroke="midnightblue" points="752.709,-411.65 759.627,-403.625 749.215,-405.584 752.709,-411.65"/>
</g>
<!-- Node16 -->
<g id="node16" class="node"><title>Node16</title>
<g id="a_node16"><a xlink:href="$HAL_8h.html" xlink:title="HAL.h">
<polygon fill="white" stroke="black" points="801.835,-330.5 801.835,-348.5 845.628,-348.5 845.628,-330.5 801.835,-330.5"/>
<text text-anchor="middle" x="823.731" y="-336.5" font-family="Helvetica,sans-Serif" font-size="10.00">HAL.h</text>
</a>
</g>
</g>
<!-- Node9&#45;&gt;Node16 -->
<g id="edge71" class="edge"><title>Node9&#45;&gt;Node16</title>
<path fill="none" stroke="midnightblue" d="M733.758,-447.423C766.418,-443.709 806.283,-432.96 827.731,-404 837.277,-391.112 834.708,-372.418 830.696,-358.649"/>
<polygon fill="midnightblue" stroke="midnightblue" points="833.904,-357.21 827.373,-348.868 827.276,-359.462 833.904,-357.21"/>
</g>
<!-- Node17 -->
<g id="node17" class="node"><title>Node17</title>
<g id="a_node17"><a xlink:href="$AnalogIn_8h.html" xlink:title="AnalogIn.h">
<polygon fill="white" stroke="black" points="1178.82,-220.5 1178.82,-238.5 1242.64,-238.5 1242.64,-220.5 1178.82,-220.5"/>
<text text-anchor="middle" x="1210.73" y="-226.5" font-family="Helvetica,sans-Serif" font-size="10.00">AnalogIn.h</text>
</a>
</g>
</g>
<!-- Node9&#45;&gt;Node17 -->
<g id="edge53" class="edge"><title>Node9&#45;&gt;Node17</title>
<path fill="none" stroke="midnightblue" d="M733.806,-448.975C837.529,-449.025 1065.56,-444.379 1130.73,-404 1179.79,-373.605 1179.08,-347.891 1199.73,-294 1205.37,-279.293 1208.13,-261.56 1209.48,-248.576"/>
<polygon fill="midnightblue" stroke="midnightblue" points="1212.97,-248.846 1210.33,-238.584 1205.99,-248.249 1212.97,-248.846"/>
</g>
<!-- Node19 -->
<g id="node19" class="node"><title>Node19</title>
<g id="a_node19"><a xlink:href="$GPIO_8h.html" xlink:title="GPIO.h">
<polygon fill="white" stroke="black" points="686.059,-220.5 686.059,-238.5 735.404,-238.5 735.404,-220.5 686.059,-220.5"/>
<text text-anchor="middle" x="710.731" y="-226.5" font-family="Helvetica,sans-Serif" font-size="10.00">GPIO.h</text>
</a>
</g>
</g>
<!-- Node9&#45;&gt;Node19 -->
<g id="edge55" class="edge"><title>Node9&#45;&gt;Node19</title>
<path fill="none" stroke="midnightblue" d="M676.248,-440.358C659.61,-414.554 612.69,-332.881 643.731,-275 651.399,-260.702 665.908,-250.216 679.469,-243.027"/>
<polygon fill="midnightblue" stroke="midnightblue" points="681.155,-246.099 688.609,-238.571 678.087,-239.807 681.155,-246.099"/>
</g>
<!-- Node20 -->
<g id="node20" class="node"><title>Node20</title>
<g id="a_node20"><a xlink:href="$RCInput_8h.html" xlink:title="RCInput.h">
<polygon fill="white" stroke="black" points="891.219,-275.5 891.219,-293.5 952.244,-293.5 952.244,-275.5 891.219,-275.5"/>
<text text-anchor="middle" x="921.731" y="-281.5" font-family="Helvetica,sans-Serif" font-size="10.00">RCInput.h</text>
</a>
</g>
</g>
<!-- Node9&#45;&gt;Node20 -->
<g id="edge56" class="edge"><title>Node9&#45;&gt;Node20</title>
<path fill="none" stroke="midnightblue" d="M733.984,-443.895C768.196,-438.691 812.39,-427.608 844.731,-404 880.785,-377.683 904.483,-328.922 915.179,-302.909"/>
<polygon fill="midnightblue" stroke="midnightblue" points="918.448,-304.158 918.857,-293.571 911.935,-301.593 918.448,-304.158"/>
</g>
<!-- Node21 -->
<g id="node21" class="node"><title>Node21</title>
<g id="a_node21"><a xlink:href="$RCOutput_8h.html" xlink:title="RCOutput.h">
<polygon fill="white" stroke="black" points="1122.33,-275.5 1122.33,-293.5 1191.13,-293.5 1191.13,-275.5 1122.33,-275.5"/>
<text text-anchor="middle" x="1156.73" y="-281.5" font-family="Helvetica,sans-Serif" font-size="10.00">RCOutput.h</text>
</a>
</g>
</g>
<!-- Node9&#45;&gt;Node21 -->
<g id="edge57" class="edge"><title>Node9&#45;&gt;Node21</title>
<path fill="none" stroke="midnightblue" d="M733.826,-446.056C841.145,-440.596 1079.32,-426.121 1108.73,-404 1140.87,-379.825 1151.56,-330.51 1155.06,-303.752"/>
<polygon fill="midnightblue" stroke="midnightblue" points="1158.58,-303.832 1156.19,-293.509 1151.62,-303.065 1158.58,-303.832"/>
</g>
<!-- Node22 -->
<g id="node22" class="node"><title>Node22</title>
<g id="a_node22"><a xlink:href="$SPIDriver_8h.html" xlink:title="SPIDriver.h">
<polygon fill="white" stroke="black" points="768.443,-275.5 768.443,-293.5 835.02,-293.5 835.02,-275.5 768.443,-275.5"/>
<text text-anchor="middle" x="801.731" y="-281.5" font-family="Helvetica,sans-Serif" font-size="10.00">SPIDriver.h</text>
</a>
</g>
</g>
<!-- Node9&#45;&gt;Node22 -->
<g id="edge52" class="edge"><title>Node9&#45;&gt;Node22</title>
<path fill="none" stroke="midnightblue" d="M686.043,-440.44C692.734,-428.142 706.255,-404.108 719.731,-385 741.647,-353.928 770.581,-320.283 787.571,-301.16"/>
<polygon fill="midnightblue" stroke="midnightblue" points="790.206,-303.465 794.268,-293.68 784.99,-298.796 790.206,-303.465"/>
</g>
<!-- Node23 -->
<g id="node23" class="node"><title>Node23</title>
<g id="a_node23"><a xlink:href="$Storage_8h.html" xlink:title="Storage.h">
<polygon fill="white" stroke="black" points="653.049,-275.5 653.049,-293.5 712.414,-293.5 712.414,-275.5 653.049,-275.5"/>
<text text-anchor="middle" x="682.731" y="-281.5" font-family="Helvetica,sans-Serif" font-size="10.00">Storage.h</text>
</a>
</g>
</g>
<!-- Node9&#45;&gt;Node23 -->
<g id="edge54" class="edge"><title>Node9&#45;&gt;Node23</title>
<path fill="none" stroke="midnightblue" d="M681.782,-440.193C681.937,-415.013 682.403,-339.114 682.619,-303.862"/>
<polygon fill="midnightblue" stroke="midnightblue" points="686.12,-303.618 682.682,-293.597 679.12,-303.575 686.12,-303.618"/>
</g>
<!-- Node24 -->
<g id="node24" class="node"><title>Node24</title>
<g id="a_node24"><a xlink:href="$UARTDriver_8h.html" xlink:title="UARTDriver.h">
<polygon fill="white" stroke="black" points="480.979,-275.5 480.979,-293.5 558.483,-293.5 558.483,-275.5 480.979,-275.5"/>
<text text-anchor="middle" x="519.731" y="-281.5" font-family="Helvetica,sans-Serif" font-size="10.00">UARTDriver.h</text>
</a>
</g>
</g>
<!-- Node9&#45;&gt;Node24 -->
<g id="edge48" class="edge"><title>Node9&#45;&gt;Node24</title>
<path fill="none" stroke="midnightblue" d="M643.433,-440.498C620.495,-434.006 592.122,-422.761 572.731,-404 543.668,-375.879 529.308,-328.957 523.318,-303.409"/>
<polygon fill="midnightblue" stroke="midnightblue" points="526.731,-302.631 521.189,-293.601 519.89,-304.116 526.731,-302.631"/>
</g>
<!-- Node25 -->
<g id="node25" class="node"><title>Node25</title>
<g id="a_node25"><a xlink:href="$BetterStream_8h.html" xlink:title="utility/BetterStream.h">
<polygon fill="white" stroke="black" points="920.325,-220.5 920.325,-238.5 1029.14,-238.5 1029.14,-220.5 920.325,-220.5"/>
<text text-anchor="middle" x="974.731" y="-226.5" font-family="Helvetica,sans-Serif" font-size="10.00">utility/BetterStream.h</text>
</a>
</g>
</g>
<!-- Node9&#45;&gt;Node25 -->
<g id="edge70" class="edge"><title>Node9&#45;&gt;Node25</title>
<path fill="none" stroke="midnightblue" d="M733.875,-444.903C773.369,-440.18 827.653,-429.258 868.731,-404 923.267,-370.467 933.776,-351.594 961.731,-294 968.648,-279.75 971.889,-261.972 973.405,-248.854"/>
<polygon fill="midnightblue" stroke="midnightblue" points="976.905,-249.012 974.342,-238.732 969.935,-248.366 976.905,-249.012"/>
</g>
<!-- Node27 -->
<g id="node27" class="node"><title>Node27</title>
<g id="a_node27"><a xlink:href="$Stream_8h.html" xlink:title="Stream.h">
<polygon fill="white" stroke="black" points="1220.45,-165.5 1220.45,-183.5 1277.02,-183.5 1277.02,-165.5 1220.45,-165.5"/>
<text text-anchor="middle" x="1248.73" y="-171.5" font-family="Helvetica,sans-Serif" font-size="10.00">Stream.h</text>
</a>
</g>
</g>
<!-- Node9&#45;&gt;Node27 -->
<g id="edge69" class="edge"><title>Node9&#45;&gt;Node27</title>
<path fill="none" stroke="midnightblue" d="M733.78,-446.332C840.137,-441.46 1078.91,-428.142 1156.73,-404 1212.12,-386.816 1270.73,-398.497 1270.73,-340.5 1270.73,-340.5 1270.73,-340.5 1270.73,-283.5 1270.73,-251.074 1261.09,-214.253 1254.57,-193.064"/>
<polygon fill="midnightblue" stroke="midnightblue" points="1257.9,-191.972 1251.52,-183.515 1251.23,-194.106 1257.9,-191.972"/>
</g>
<!-- Node28 -->
<g id="node28" class="node"><title>Node28</title>
<g id="a_node28"><a xlink:href="$Print_8h.html" xlink:title="Print.h">
<polygon fill="white" stroke="black" points="1254.28,-110.5 1254.28,-128.5 1299.18,-128.5 1299.18,-110.5 1254.28,-110.5"/>
<text text-anchor="middle" x="1276.73" y="-116.5" font-family="Helvetica,sans-Serif" font-size="10.00">Print.h</text>
</a>
</g>
</g>
<!-- Node9&#45;&gt;Node28 -->
<g id="edge68" class="edge"><title>Node9&#45;&gt;Node28</title>
<path fill="none" stroke="midnightblue" d="M733.753,-447.371C849.363,-444.342 1124.32,-434.107 1211.73,-404 1260.45,-387.22 1308.73,-392.027 1308.73,-340.5 1308.73,-340.5 1308.73,-340.5 1308.73,-283.5 1308.73,-229.799 1291.8,-167.979 1282.57,-138.264"/>
<polygon fill="midnightblue" stroke="midnightblue" points="1285.84,-136.992 1279.46,-128.531 1279.17,-139.122 1285.84,-136.992"/>
</g>
<!-- Node29 -->
<g id="node29" class="node"><title>Node29</title>
<g id="a_node29"><a xlink:href="$I2CDriver_8h.html" xlink:title="I2CDriver.h">
<polygon fill="white" stroke="black" points="646.722,-165.5 646.722,-183.5 712.741,-183.5 712.741,-165.5 646.722,-165.5"/>
<text text-anchor="middle" x="679.731" y="-171.5" font-family="Helvetica,sans-Serif" font-size="10.00">I2CDriver.h</text>
</a>
</g>
</g>
<!-- Node9&#45;&gt;Node29 -->
<g id="edge49" class="edge"><title>Node9&#45;&gt;Node29</title>
<path fill="none" stroke="midnightblue" d="M672.535,-440.195C663.86,-431.863 651.115,-418.252 643.731,-404 632.128,-381.603 632.867,-374.028 629.731,-349 627.411,-330.479 630.465,-283.955 632.731,-275 640.515,-244.246 657.976,-211.525 669.285,-192.328"/>
<polygon fill="midnightblue" stroke="midnightblue" points="672.38,-193.974 674.554,-183.604 666.388,-190.354 672.38,-193.974"/>
</g>
<!-- Node30 -->
<g id="node30" class="node"><title>Node30</title>
<g id="a_node30"><a xlink:href="$Scheduler_8h.html" xlink:title="Scheduler.h">
<polygon fill="white" stroke="black" points="184.32,-220.5 184.32,-238.5 253.143,-238.5 253.143,-220.5 184.32,-220.5"/>
<text text-anchor="middle" x="218.731" y="-226.5" font-family="Helvetica,sans-Serif" font-size="10.00">Scheduler.h</text>
</a>
</g>
</g>
<!-- Node9&#45;&gt;Node30 -->
<g id="edge58" class="edge"><title>Node9&#45;&gt;Node30</title>
<path fill="none" stroke="midnightblue" d="M629.761,-442.043C623.685,-441.332 617.573,-440.636 611.731,-440 570.229,-435.483 267.444,-433.326 237.731,-404 195.697,-362.513 206.655,-283.628 214.279,-248.339"/>
<polygon fill="midnightblue" stroke="midnightblue" points="217.707,-249.05 216.566,-238.516 210.89,-247.462 217.707,-249.05"/>
</g>
<!-- Node31 -->
<g id="node31" class="node"><title>Node31</title>
<g id="a_node31"><a xlink:href="$Semaphores_8h.html" xlink:title="Semaphores.h">
<polygon fill="white" stroke="black" points="985.212,-330.5 985.212,-348.5 1066.25,-348.5 1066.25,-330.5 985.212,-330.5"/>
<text text-anchor="middle" x="1025.73" y="-336.5" font-family="Helvetica,sans-Serif" font-size="10.00">Semaphores.h</text>
</a>
</g>
</g>
<!-- Node9&#45;&gt;Node31 -->
<g id="edge63" class="edge"><title>Node9&#45;&gt;Node31</title>
<path fill="none" stroke="midnightblue" d="M733.647,-444.809C805.516,-438.977 930.966,-425.977 970.731,-404 990.417,-393.12 1006.34,-372.304 1015.9,-357.472"/>
<polygon fill="midnightblue" stroke="midnightblue" points="1019,-359.11 1021.23,-348.753 1013.03,-355.458 1019,-359.11"/>
</g>
<!-- Node32 -->
<g id="node32" class="node"><title>Node32</title>
<g id="a_node32"><a xlink:href="$Util_8h.html" xlink:title="Util.h">
<polygon fill="white" stroke="black" points="1084.34,-220.5 1084.34,-238.5 1123.12,-238.5 1123.12,-220.5 1084.34,-220.5"/>
<text text-anchor="middle" x="1103.73" y="-226.5" font-family="Helvetica,sans-Serif" font-size="10.00">Util.h</text>
</a>
</g>
</g>
<!-- Node9&#45;&gt;Node32 -->
<g id="edge65" class="edge"><title>Node9&#45;&gt;Node32</title>
<path fill="none" stroke="midnightblue" d="M733.86,-448.337C797.698,-446.529 908.133,-438.131 995.731,-404 1035.94,-388.335 1051.36,-384.605 1075.73,-349 1096.76,-318.28 1102.11,-273.747 1103.4,-248.943"/>
<polygon fill="midnightblue" stroke="midnightblue" points="1106.9,-248.892 1103.75,-238.777 1099.9,-248.649 1106.9,-248.892"/>
</g>
<!-- Node11 -->
<g id="node11" class="node"><title>Node11</title>
<polygon fill="white" stroke="#bfbfbf" points="1027.33,-0.5 1027.33,-18.5 1076.13,-18.5 1076.13,-0.5 1027.33,-0.5"/>
<text text-anchor="middle" x="1051.73" y="-6.5" font-family="Helvetica,sans-Serif" font-size="10.00">string.h</text>
</g>
<!-- Node10&#45;&gt;Node11 -->
<g id="edge12" class="edge"><title>Node10&#45;&gt;Node11</title>
<path fill="none" stroke="midnightblue" d="M916.88,-55.4504C943.808,-46.4745 987.555,-31.8922 1017.89,-21.7813"/>
<polygon fill="midnightblue" stroke="midnightblue" points="1019.24,-25.021 1027.62,-18.5383 1017.02,-18.3803 1019.24,-25.021"/>
</g>
<!-- Node12 -->
<g id="node12" class="node"><title>Node12</title>
<g id="a_node12"><a xlink:href="$functor_8h.html" xlink:title="utility/functor.h">
<polygon fill="white" stroke="black" points="852.769,-0.5 852.769,-18.5 932.694,-18.5 932.694,-0.5 852.769,-0.5"/>
<text text-anchor="middle" x="892.731" y="-6.5" font-family="Helvetica,sans-Serif" font-size="10.00">utility/functor.h</text>
</a>
</g>
</g>
<!-- Node10&#45;&gt;Node12 -->
<g id="edge13" class="edge"><title>Node10&#45;&gt;Node12</title>
<path fill="none" stroke="midnightblue" d="M892.731,-55.2188C892.731,-48.1769 892.731,-37.8083 892.731,-28.8277"/>
<polygon fill="midnightblue" stroke="midnightblue" points="896.232,-28.5495 892.731,-18.5496 889.232,-28.5496 896.232,-28.5495"/>
</g>
<!-- Node15&#45;&gt;Node16 -->
<g id="edge17" class="edge"><title>Node15&#45;&gt;Node16</title>
<path fill="none" stroke="midnightblue" d="M781.544,-385.219C788.925,-377.394 800.181,-365.463 809.211,-355.892"/>
<polygon fill="midnightblue" stroke="midnightblue" points="811.821,-358.225 816.138,-348.55 806.729,-353.422 811.821,-358.225"/>
</g>
<!-- Node16&#45;&gt;Node10 -->
<g id="edge18" class="edge"><title>Node16&#45;&gt;Node10</title>
<path fill="none" stroke="midnightblue" d="M828.112,-330.181C832.583,-321.395 839.457,-307.039 843.731,-294 868.703,-217.834 884.315,-123.14 890.141,-83.8775"/>
<polygon fill="midnightblue" stroke="midnightblue" points="893.667,-83.9521 891.634,-73.5539 886.739,-82.9498 893.667,-83.9521"/>
</g>
<!-- Node16&#45;&gt;Node17 -->
<g id="edge19" class="edge"><title>Node16&#45;&gt;Node17</title>
<path fill="none" stroke="midnightblue" d="M845.647,-332.384C908.823,-314.754 1091.9,-263.662 1172.21,-241.251"/>
<polygon fill="midnightblue" stroke="midnightblue" points="1173.24,-244.597 1181.93,-238.538 1171.36,-237.854 1173.24,-244.597"/>
</g>
<!-- Node16&#45;&gt;Node19 -->
<g id="edge22" class="edge"><title>Node16&#45;&gt;Node19</title>
<path fill="none" stroke="midnightblue" d="M809.585,-330.409C795.97,-322.236 775.222,-308.74 759.731,-294 744.795,-279.787 730.745,-260.774 721.553,-247.267"/>
<polygon fill="midnightblue" stroke="midnightblue" points="724.218,-244.952 715.774,-238.552 718.384,-248.821 724.218,-244.952"/>
</g>
<!-- Node16&#45;&gt;Node20 -->
<g id="edge25" class="edge"><title>Node16&#45;&gt;Node20</title>
<path fill="none" stroke="midnightblue" d="M838.616,-330.45C854.301,-321.968 879.246,-308.477 897.72,-298.486"/>
<polygon fill="midnightblue" stroke="midnightblue" points="899.576,-301.461 906.707,-293.625 896.246,-295.304 899.576,-301.461"/>
</g>
<!-- Node16&#45;&gt;Node21 -->
<g id="edge27" class="edge"><title>Node16&#45;&gt;Node21</title>
<path fill="none" stroke="midnightblue" d="M845.838,-334.981C899.904,-326.376 1039.66,-304.134 1111.94,-292.628"/>
<polygon fill="midnightblue" stroke="midnightblue" points="1112.78,-296.04 1122.1,-291.012 1111.68,-289.127 1112.78,-296.04"/>
</g>
<!-- Node16&#45;&gt;Node22 -->
<g id="edge29" class="edge"><title>Node16&#45;&gt;Node22</title>
<path fill="none" stroke="midnightblue" d="M820.294,-330.219C817.273,-322.942 812.778,-312.113 808.968,-302.934"/>
<polygon fill="midnightblue" stroke="midnightblue" points="812.139,-301.444 805.073,-293.55 805.674,-304.127 812.139,-301.444"/>
</g>
<!-- Node16&#45;&gt;Node23 -->
<g id="edge31" class="edge"><title>Node16&#45;&gt;Node23</title>
<path fill="none" stroke="midnightblue" d="M802.317,-330.45C778.817,-321.617 740.873,-307.355 714.036,-297.267"/>
<polygon fill="midnightblue" stroke="midnightblue" points="714.94,-293.868 704.348,-293.625 712.477,-300.42 714.94,-293.868"/>
</g>
<!-- Node16&#45;&gt;Node24 -->
<g id="edge34" class="edge"><title>Node16&#45;&gt;Node24</title>
<path fill="none" stroke="midnightblue" d="M801.378,-334.603C752.534,-326.087 635.326,-305.653 568.522,-294.006"/>
<polygon fill="midnightblue" stroke="midnightblue" points="569.102,-290.555 558.649,-292.285 567.899,-297.451 569.102,-290.555"/>
</g>
<!-- Node17&#45;&gt;Node10 -->
<g id="edge21" class="edge"><title>Node17&#45;&gt;Node10</title>
<path fill="none" stroke="midnightblue" d="M1210.22,-220.3C1208.39,-198.492 1200.21,-138.772 1164.73,-110 1134.67,-85.6197 1033.96,-74.2817 963.91,-69.2386"/>
<polygon fill="midnightblue" stroke="midnightblue" points="964.028,-65.7385 953.81,-68.5395 963.544,-72.7218 964.028,-65.7385"/>
</g>
<!-- Node18 -->
<g id="node18" class="node"><title>Node18</title>
<polygon fill="white" stroke="#bfbfbf" points="1315.33,-55.5 1315.33,-73.5 1374.13,-73.5 1374.13,-55.5 1315.33,-55.5"/>
<text text-anchor="middle" x="1344.73" y="-61.5" font-family="Helvetica,sans-Serif" font-size="10.00">inttypes.h</text>
</g>
<!-- Node17&#45;&gt;Node18 -->
<g id="edge20" class="edge"><title>Node17&#45;&gt;Node18</title>
<path fill="none" stroke="midnightblue" d="M1230.71,-220.488C1247.18,-213.056 1270.27,-200.638 1285.73,-184 1313.66,-153.933 1331.34,-108.153 1339.47,-83.211"/>
<polygon fill="midnightblue" stroke="midnightblue" points="1342.82,-84.2141 1342.46,-73.6256 1336.14,-82.1315 1342.82,-84.2141"/>
</g>
<!-- Node19&#45;&gt;Node5 -->
<g id="edge23" class="edge"><title>Node19&#45;&gt;Node5</title>
<path fill="none" stroke="midnightblue" d="M695.248,-220.382C659.669,-201.729 571.858,-155.692 529.019,-133.234"/>
<polygon fill="midnightblue" stroke="midnightblue" points="530.595,-130.108 520.114,-128.564 527.345,-136.308 530.595,-130.108"/>
</g>
<!-- Node19&#45;&gt;Node10 -->
<g id="edge24" class="edge"><title>Node19&#45;&gt;Node10</title>
<path fill="none" stroke="midnightblue" d="M713.516,-220.292C721.849,-196.149 747.1,-126.064 764.731,-110 783.221,-93.155 808.428,-82.6264 831.585,-76.0732"/>
<polygon fill="midnightblue" stroke="midnightblue" points="832.579,-79.431 841.359,-73.5012 830.797,-72.6614 832.579,-79.431"/>
</g>
<!-- Node20&#45;&gt;Node10 -->
<g id="edge26" class="edge"><title>Node20&#45;&gt;Node10</title>
<path fill="none" stroke="midnightblue" d="M919.612,-275.352C917.369,-266.47 913.865,-251.81 911.731,-239 902.375,-182.831 896.517,-115.634 894.063,-83.8667"/>
<polygon fill="midnightblue" stroke="midnightblue" points="897.55,-83.5626 893.312,-73.8521 890.569,-84.0856 897.55,-83.5626"/>
</g>
<!-- Node21&#45;&gt;Node10 -->
<g id="edge28" class="edge"><title>Node21&#45;&gt;Node10</title>
<path fill="none" stroke="midnightblue" d="M1155.17,-275.347C1149.16,-246.482 1124.57,-148.788 1060.73,-110 1031.41,-92.1877 995,-81.4197 963.576,-74.9523"/>
<polygon fill="midnightblue" stroke="midnightblue" points="964.05,-71.4787 953.564,-73.0002 962.71,-78.3493 964.05,-71.4787"/>
</g>
<!-- Node22&#45;&gt;Node10 -->
<g id="edge30" class="edge"><title>Node22&#45;&gt;Node10</title>
<path fill="none" stroke="midnightblue" d="M801.791,-275.227C802.336,-249.035 806.807,-166.334 840.731,-110 848.106,-97.7534 860.035,-87.189 870.608,-79.4307"/>
<polygon fill="midnightblue" stroke="midnightblue" points="872.807,-82.1653 879.04,-73.5983 868.825,-76.4081 872.807,-82.1653"/>
</g>
<!-- Node23&#45;&gt;Node5 -->
<g id="edge32" class="edge"><title>Node23&#45;&gt;Node5</title>
<path fill="none" stroke="midnightblue" d="M673.66,-275.193C645.326,-249.247 558.183,-169.448 521.395,-135.759"/>
<polygon fill="midnightblue" stroke="midnightblue" points="523.312,-132.769 513.574,-128.597 518.585,-137.932 523.312,-132.769"/>
</g>
<!-- Node23&#45;&gt;Node10 -->
<g id="edge33" class="edge"><title>Node23&#45;&gt;Node10</title>
<path fill="none" stroke="midnightblue" d="M696.966,-275.465C710.361,-267.429 730.442,-254.117 744.731,-239 791.398,-189.629 779.346,-158.682 826.731,-110 838.754,-97.6484 854.728,-86.7693 867.95,-78.8598"/>
<polygon fill="midnightblue" stroke="midnightblue" points="870.078,-81.6727 876.995,-73.6467 866.583,-75.6079 870.078,-81.6727"/>
</g>
<!-- Node24&#45;&gt;Node4 -->
<g id="edge36" class="edge"><title>Node24&#45;&gt;Node4</title>
<path fill="none" stroke="midnightblue" d="M505.3,-275.382C472.278,-256.808 390.983,-211.079 350.874,-188.518"/>
<polygon fill="midnightblue" stroke="midnightblue" points="352.5,-185.417 342.068,-183.564 349.068,-191.518 352.5,-185.417"/>
</g>
<!-- Node24&#45;&gt;Node5 -->
<g id="edge35" class="edge"><title>Node24&#45;&gt;Node5</title>
<path fill="none" stroke="midnightblue" d="M518.967,-275.193C516.65,-250.013 509.665,-174.114 506.421,-138.862"/>
<polygon fill="midnightblue" stroke="midnightblue" points="509.878,-138.234 505.477,-128.597 502.908,-138.876 509.878,-138.234"/>
</g>
<!-- Node24&#45;&gt;Node10 -->
<g id="edge37" class="edge"><title>Node24&#45;&gt;Node10</title>
<path fill="none" stroke="midnightblue" d="M525.589,-275.218C546.223,-246.754 618.878,-152.357 703.731,-110 740.398,-91.6969 784.862,-80.7421 821.449,-74.284"/>
<polygon fill="midnightblue" stroke="midnightblue" points="822.269,-77.6953 831.547,-72.5794 821.104,-70.7929 822.269,-77.6953"/>
</g>
<!-- Node24&#45;&gt;Node25 -->
<g id="edge38" class="edge"><title>Node24&#45;&gt;Node25</title>
<path fill="none" stroke="midnightblue" d="M558.524,-278.981C636.696,-269.876 813.866,-249.238 909.914,-238.05"/>
<polygon fill="midnightblue" stroke="midnightblue" points="910.553,-241.499 920.081,-236.866 909.743,-234.546 910.553,-241.499"/>
</g>
<!-- Node25&#45;&gt;Node4 -->
<g id="edge40" class="edge"><title>Node25&#45;&gt;Node4</title>
<path fill="none" stroke="midnightblue" d="M920.126,-224.027C806.852,-214.748 545.689,-193.354 411.167,-182.335"/>
<polygon fill="midnightblue" stroke="midnightblue" points="411.169,-178.823 400.916,-181.495 410.597,-185.8 411.169,-178.823"/>
</g>
<!-- Node25&#45;&gt;Node10 -->
<g id="edge41" class="edge"><title>Node25&#45;&gt;Node10</title>
<path fill="none" stroke="midnightblue" d="M970.552,-220.193C957.775,-194.794 919.037,-117.791 901.511,-82.9517"/>
<polygon fill="midnightblue" stroke="midnightblue" points="904.426,-80.9575 896.805,-73.5971 898.172,-84.1033 904.426,-80.9575"/>
</g>
<!-- Node26 -->
<g id="node26" class="node"><title>Node26</title>
<polygon fill="white" stroke="#bfbfbf" points="1032.67,-165.5 1032.67,-183.5 1084.8,-183.5 1084.8,-165.5 1032.67,-165.5"/>
<text text-anchor="middle" x="1058.73" y="-171.5" font-family="Helvetica,sans-Serif" font-size="10.00">stdarg.h</text>
</g>
<!-- Node25&#45;&gt;Node26 -->
<g id="edge39" class="edge"><title>Node25&#45;&gt;Node26</title>
<path fill="none" stroke="midnightblue" d="M987.489,-220.45C1000.69,-212.123 1021.53,-198.97 1037.27,-189.039"/>
<polygon fill="midnightblue" stroke="midnightblue" points="1039.26,-191.922 1045.85,-183.625 1035.53,-186.001 1039.26,-191.922"/>
</g>
<!-- Node25&#45;&gt;Node27 -->
<g id="edge42" class="edge"><title>Node25&#45;&gt;Node27</title>
<path fill="none" stroke="midnightblue" d="M1016.35,-220.45C1069.01,-210.264 1159,-192.857 1210.17,-182.959"/>
<polygon fill="midnightblue" stroke="midnightblue" points="1211.01,-186.361 1220.17,-181.025 1209.69,-179.488 1211.01,-186.361"/>
</g>
<!-- Node27&#45;&gt;Node10 -->
<g id="edge43" class="edge"><title>Node27&#45;&gt;Node10</title>
<path fill="none" stroke="midnightblue" d="M1245.36,-165.239C1239.18,-151.274 1224.64,-123.229 1202.73,-110 1163.7,-86.4317 1042.75,-74.6445 963.975,-69.3177"/>
<polygon fill="midnightblue" stroke="midnightblue" points="963.839,-65.8013 953.631,-68.6388 963.38,-72.7863 963.839,-65.8013"/>
</g>
<!-- Node27&#45;&gt;Node28 -->
<g id="edge44" class="edge"><title>Node27&#45;&gt;Node28</title>
<path fill="none" stroke="midnightblue" d="M1253.11,-165.219C1256.99,-157.864 1262.79,-146.88 1267.68,-137.639"/>
<polygon fill="midnightblue" stroke="midnightblue" points="1270.9,-139.026 1272.48,-128.55 1264.71,-135.757 1270.9,-139.026"/>
</g>
<!-- Node28&#45;&gt;Node10 -->
<g id="edge45" class="edge"><title>Node28&#45;&gt;Node10</title>
<path fill="none" stroke="midnightblue" d="M1253.95,-112.742C1249.58,-111.745 1245.03,-110.78 1240.73,-110 1145.48,-92.7145 1034.37,-79.74 963.803,-72.3861"/>
<polygon fill="midnightblue" stroke="midnightblue" points="963.999,-68.8878 953.693,-71.342 963.28,-75.8508 963.999,-68.8878"/>
</g>
<!-- Node28&#45;&gt;Node11 -->
<g id="edge47" class="edge"><title>Node28&#45;&gt;Node11</title>
<path fill="none" stroke="midnightblue" d="M1259.82,-110.382C1220.8,-91.6509 1124.24,-45.3051 1077.67,-22.9517"/>
<polygon fill="midnightblue" stroke="midnightblue" points="1079.06,-19.7365 1068.53,-18.5644 1076.03,-26.0471 1079.06,-19.7365"/>
</g>
<!-- Node28&#45;&gt;Node18 -->
<g id="edge46" class="edge"><title>Node28&#45;&gt;Node18</title>
<path fill="none" stroke="midnightblue" d="M1287.06,-110.45C1297.44,-102.357 1313.68,-89.7042 1326.28,-79.8822"/>
<polygon fill="midnightblue" stroke="midnightblue" points="1328.57,-82.5333 1334.31,-73.6253 1324.27,-77.0122 1328.57,-82.5333"/>
</g>
<!-- Node29&#45;&gt;Node5 -->
<g id="edge50" class="edge"><title>Node29&#45;&gt;Node5</title>
<path fill="none" stroke="midnightblue" d="M653.153,-165.45C622.564,-156.187 572.257,-140.951 538.814,-130.822"/>
<polygon fill="midnightblue" stroke="midnightblue" points="539.602,-127.404 529.017,-127.855 537.573,-134.103 539.602,-127.404"/>
</g>
<!-- Node29&#45;&gt;Node10 -->
<g id="edge51" class="edge"><title>Node29&#45;&gt;Node10</title>
<path fill="none" stroke="midnightblue" d="M683.622,-165.074C690.388,-151.373 705.644,-124.358 726.731,-110 754.772,-90.908 790.649,-79.997 821.87,-73.766"/>
<polygon fill="midnightblue" stroke="midnightblue" points="822.641,-77.1825 831.827,-71.903 821.354,-70.3019 822.641,-77.1825"/>
</g>
<!-- Node30&#45;&gt;Node4 -->
<g id="edge60" class="edge"><title>Node30&#45;&gt;Node4</title>
<path fill="none" stroke="midnightblue" d="M235.286,-220.45C252.972,-211.851 281.242,-198.105 301.869,-188.075"/>
<polygon fill="midnightblue" stroke="midnightblue" points="303.558,-191.146 311.021,-183.625 300.497,-184.851 303.558,-191.146"/>
</g>
<!-- Node30&#45;&gt;Node5 -->
<g id="edge59" class="edge"><title>Node30&#45;&gt;Node5</title>
<path fill="none" stroke="midnightblue" d="M219.696,-220.397C221.788,-206.671 228.071,-178.976 245.731,-165 279.974,-137.901 407.824,-126.447 470.143,-122.393"/>
<polygon fill="midnightblue" stroke="midnightblue" points="470.507,-125.877 480.27,-121.762 470.072,-118.891 470.507,-125.877"/>
</g>
<!-- Node30&#45;&gt;Node10 -->
<g id="edge62" class="edge"><title>Node30&#45;&gt;Node10</title>
<path fill="none" stroke="midnightblue" d="M206.371,-220.307C195.722,-212.436 181.091,-199.476 174.731,-184 164.631,-159.42 193.173,-111.167 194.731,-110 244.055,-73.0579 654.055,-66.7221 821.708,-65.6821"/>
<polygon fill="midnightblue" stroke="midnightblue" points="821.935,-69.1809 831.914,-65.6235 821.894,-62.181 821.935,-69.1809"/>
</g>
<!-- Node30&#45;&gt;Node13 -->
<g id="edge61" class="edge"><title>Node30&#45;&gt;Node13</title>
<path fill="none" stroke="midnightblue" d="M196.557,-220.45C172.117,-211.578 132.588,-197.229 104.78,-187.134"/>
<polygon fill="midnightblue" stroke="midnightblue" points="105.709,-183.748 95.1144,-183.625 103.32,-190.328 105.709,-183.748"/>
</g>
<!-- Node31&#45;&gt;Node10 -->
<g id="edge64" class="edge"><title>Node31&#45;&gt;Node10</title>
<path fill="none" stroke="midnightblue" d="M1029.05,-330.385C1036.58,-310.674 1053.18,-259.031 1037.73,-220 1012.51,-156.261 947.174,-103.451 913.49,-79.4327"/>
<polygon fill="midnightblue" stroke="midnightblue" points="915.473,-76.5485 905.27,-73.6962 911.467,-82.2891 915.473,-76.5485"/>
</g>
<!-- Node32&#45;&gt;Node10 -->
<g id="edge67" class="edge"><title>Node32&#45;&gt;Node10</title>
<path fill="none" stroke="midnightblue" d="M1104.34,-220.418C1104.91,-207.669 1104.41,-182.537 1093.73,-165 1062.62,-113.931 996.501,-88.326 948.571,-76.0126"/>
<polygon fill="midnightblue" stroke="midnightblue" points="949.184,-72.5594 938.639,-73.5824 947.52,-79.3588 949.184,-72.5594"/>
</g>
<!-- Node32&#45;&gt;Node26 -->
<g id="edge66" class="edge"><title>Node32&#45;&gt;Node26</title>
<path fill="none" stroke="midnightblue" d="M1096.7,-220.219C1090.12,-212.473 1080.13,-200.701 1072.04,-191.18"/>
<polygon fill="midnightblue" stroke="midnightblue" points="1074.71,-188.907 1065.57,-183.55 1069.37,-193.438 1074.71,-188.907"/>
</g>
<!-- Node33&#45;&gt;Node9 -->
<g id="edge73" class="edge"><title>Node33&#45;&gt;Node9</title>
<path fill="none" stroke="midnightblue" d="M550.273,-495.45C576.523,-486.475 619.169,-471.892 648.739,-461.781"/>
<polygon fill="midnightblue" stroke="midnightblue" points="649.893,-465.086 658.223,-458.538 647.629,-458.462 649.893,-465.086"/>
</g>
<!-- Node34 -->
<g id="node34" class="node"><title>Node34</title>
<g id="a_node34"><a xlink:href="$AP__HAL__Linux__Namespace_8h.html" xlink:title="AP_HAL_Linux_Namespace.h">
<polygon fill="white" stroke="black" points="451.19,-440.5 451.19,-458.5 602.273,-458.5 602.273,-440.5 451.19,-440.5"/>
<text text-anchor="middle" x="526.731" y="-446.5" font-family="Helvetica,sans-Serif" font-size="10.00">AP_HAL_Linux_Namespace.h</text>
</a>
</g>
</g>
<!-- Node33&#45;&gt;Node34 -->
<g id="edge74" class="edge"><title>Node33&#45;&gt;Node34</title>
<path fill="none" stroke="midnightblue" d="M526.731,-495.219C526.731,-488.177 526.731,-477.808 526.731,-468.828"/>
<polygon fill="midnightblue" stroke="midnightblue" points="530.232,-468.55 526.731,-458.55 523.232,-468.55 530.232,-468.55"/>
</g>
<!-- Node35&#45;&gt;Node9 -->
<g id="edge77" class="edge"><title>Node35&#45;&gt;Node9</title>
<path fill="none" stroke="midnightblue" d="M690.169,-495.219C688.826,-488.099 686.84,-477.577 685.133,-468.529"/>
<polygon fill="midnightblue" stroke="midnightblue" points="688.544,-467.727 683.25,-458.55 681.665,-469.025 688.544,-467.727"/>
</g>
<!-- Node35&#45;&gt;Node18 -->
<g id="edge76" class="edge"><title>Node35&#45;&gt;Node18</title>
<path fill="none" stroke="midnightblue" d="M749.457,-500.533C915.532,-491.235 1382.73,-459.398 1382.73,-395.5 1382.73,-395.5 1382.73,-395.5 1382.73,-173.5 1382.73,-139.678 1365.94,-103.104 1354.68,-82.3784"/>
<polygon fill="midnightblue" stroke="midnightblue" points="1357.67,-80.542 1349.7,-73.5586 1351.57,-83.9865 1357.67,-80.542"/>
</g>
</g>
</svg>
