<?xml version="1.0" encoding="UTF-8" standalone="no"?>
<!DOCTYPE svg PUBLIC "-//W3C//DTD SVG 1.1//EN"
 "http://www.w3.org/Graphics/SVG/1.1/DTD/svg11.dtd">
<!-- Generated by graphviz version 2.38.0 (20140413.2041)
 -->
<!-- Title: libraries/AP_HAL_Linux/GPIO_Sysfs.h Pages: 1 -->
<svg width="270pt" height="167pt"
 viewBox="0.00 0.00 269.61 167.00" xmlns="http://www.w3.org/2000/svg" xmlns:xlink="http://www.w3.org/1999/xlink">
<g id="graph0" class="graph" transform="scale(1 1) rotate(0) translate(4 163)">
<title>libraries/AP_HAL_Linux/GPIO_Sysfs.h</title>
<polygon fill="white" stroke="none" points="-4,4 -4,-163 265.61,-163 265.61,4 -4,4"/>
<!-- Node1 -->
<g id="node1" class="node"><title>Node1</title>
<polygon fill="#bfbfbf" stroke="black" points="70,-130.5 70,-158.5 191.61,-158.5 191.61,-130.5 70,-130.5"/>
<text text-anchor="start" x="78" y="-146.5" font-family="Helvetica,sans-Serif" font-size="10.00">libraries/AP_HAL_Linux</text>
<text text-anchor="middle" x="130.805" y="-136.5" font-family="Helvetica,sans-Serif" font-size="10.00">/GPIO_Sysfs.h</text>
</g>
<!-- Node2 -->
<g id="node2" class="node"><title>Node2</title>
<g id="a_node2"><a xlink:href="$GPIO__Minnow_8h.html" xlink:title="libraries/AP_HAL_Linux\l/GPIO_Minnow.h">
<polygon fill="white" stroke="black" points="0,-65.5 0,-93.5 121.61,-93.5 121.61,-65.5 0,-65.5"/>
<text text-anchor="start" x="8" y="-81.5" font-family="Helvetica,sans-Serif" font-size="10.00">libraries/AP_HAL_Linux</text>
<text text-anchor="middle" x="60.8052" y="-71.5" font-family="Helvetica,sans-Serif" font-size="10.00">/GPIO_Minnow.h</text>
</a>
</g>
</g>
<!-- Node1&#45;&gt;Node2 -->
<g id="edge1" class="edge"><title>Node1&#45;&gt;Node2</title>
<path fill="none" stroke="midnightblue" d="M108.767,-123.665C97.8414,-113.833 84.9538,-102.234 75.2906,-93.5369"/>
<polygon fill="midnightblue" stroke="midnightblue" points="106.527,-126.358 116.301,-130.446 111.21,-121.155 106.527,-126.358"/>
</g>
<!-- Node4 -->
<g id="node4" class="node"><title>Node4</title>
<g id="a_node4"><a xlink:href="$GPIO__Sysfs_8cpp.html" xlink:title="libraries/AP_HAL_Linux\l/GPIO_Sysfs.cpp">
<polygon fill="white" stroke="black" points="140,-65.5 140,-93.5 261.61,-93.5 261.61,-65.5 140,-65.5"/>
<text text-anchor="start" x="148" y="-81.5" font-family="Helvetica,sans-Serif" font-size="10.00">libraries/AP_HAL_Linux</text>
<text text-anchor="middle" x="200.805" y="-71.5" font-family="Helvetica,sans-Serif" font-size="10.00">/GPIO_Sysfs.cpp</text>
</a>
</g>
</g>
<!-- Node1&#45;&gt;Node4 -->
<g id="edge3" class="edge"><title>Node1&#45;&gt;Node4</title>
<path fill="none" stroke="midnightblue" d="M152.844,-123.665C163.769,-113.833 176.657,-102.234 186.32,-93.5369"/>
<polygon fill="midnightblue" stroke="midnightblue" points="150.401,-121.155 145.309,-130.446 155.084,-126.358 150.401,-121.155"/>
</g>
<!-- Node3 -->
<g id="node3" class="node"><title>Node3</title>
<g id="a_node3"><a xlink:href="$GPIO__Minnow_8cpp.html" xlink:title="libraries/AP_HAL_Linux\l/GPIO_Minnow.cpp">
<polygon fill="white" stroke="black" points="0,-0.5 0,-28.5 121.61,-28.5 121.61,-0.5 0,-0.5"/>
<text text-anchor="start" x="8" y="-16.5" font-family="Helvetica,sans-Serif" font-size="10.00">libraries/AP_HAL_Linux</text>
<text text-anchor="middle" x="60.8052" y="-6.5" font-family="Helvetica,sans-Serif" font-size="10.00">/GPIO_Minnow.cpp</text>
</a>
</g>
</g>
<!-- Node2&#45;&gt;Node3 -->
<g id="edge2" class="edge"><title>Node2&#45;&gt;Node3</title>
<path fill="none" stroke="midnightblue" d="M60.8052,-55.1641C60.8052,-46.1693 60.8052,-36.2205 60.8052,-28.5369"/>
<polygon fill="midnightblue" stroke="midnightblue" points="57.3053,-55.4463 60.8052,-65.4464 64.3053,-55.4464 57.3053,-55.4463"/>
</g>
</g>
</svg>
