<?xml version="1.0" encoding="UTF-8" standalone="no"?>
<!DOCTYPE svg PUBLIC "-//W3C//DTD SVG 1.1//EN"
 "http://www.w3.org/Graphics/SVG/1.1/DTD/svg11.dtd">
<!-- Generated by graphviz version 2.38.0 (20140413.2041)
 -->
<!-- Title: libraries/AP_HAL_Linux/GPIO_RPI.h Pages: 1 -->
<svg width="1420pt" height="642pt"
 viewBox="0.00 0.00 1420.40 642.00" xmlns="http://www.w3.org/2000/svg" xmlns:xlink="http://www.w3.org/1999/xlink">
<g id="graph0" class="graph" transform="scale(1 1) rotate(0) translate(4 638)">
<title>libraries/AP_HAL_Linux/GPIO_RPI.h</title>
<polygon fill="white" stroke="none" points="-4,4 -4,-638 1416.4,-638 1416.4,4 -4,4"/>
<!-- Node1 -->
<g id="node1" class="node"><title>Node1</title>
<polygon fill="#bfbfbf" stroke="black" points="945.596,-605.5 945.596,-633.5 1067.21,-633.5 1067.21,-605.5 945.596,-605.5"/>
<text text-anchor="start" x="953.596" y="-621.5" font-family="Helvetica,sans-Serif" font-size="10.00">libraries/AP_HAL_Linux</text>
<text text-anchor="middle" x="1006.4" y="-611.5" font-family="Helvetica,sans-Serif" font-size="10.00">/GPIO_RPI.h</text>
</g>
<!-- Node2 -->
<g id="node2" class="node"><title>Node2</title>
<polygon fill="white" stroke="#bfbfbf" points="846.281,-110.5 846.281,-128.5 894.522,-128.5 894.522,-110.5 846.281,-110.5"/>
<text text-anchor="middle" x="870.401" y="-116.5" font-family="Helvetica,sans-Serif" font-size="10.00">stdint.h</text>
</g>
<!-- Node1&#45;&gt;Node2 -->
<g id="edge1" class="edge"><title>Node1&#45;&gt;Node2</title>
<path fill="none" stroke="midnightblue" d="M1067.21,-618.392C1146.29,-614.68 1274.4,-594.875 1274.4,-505.5 1274.4,-505.5 1274.4,-505.5 1274.4,-393.5 1274.4,-291.289 1320.53,-237.414 1248.4,-165 1224.34,-140.848 993.449,-126.718 904.812,-122.146"/>
<polygon fill="midnightblue" stroke="midnightblue" points="904.896,-118.646 894.731,-121.636 904.542,-125.637 904.896,-118.646"/>
</g>
<!-- Node3 -->
<g id="node3" class="node"><title>Node3</title>
<g id="a_node3"><a xlink:href="$AP__HAL__Linux_8h.html" xlink:title="AP_HAL_Linux.h">
<polygon fill="white" stroke="black" points="692.32,-550.5 692.32,-568.5 784.482,-568.5 784.482,-550.5 692.32,-550.5"/>
<text text-anchor="middle" x="738.401" y="-556.5" font-family="Helvetica,sans-Serif" font-size="10.00">AP_HAL_Linux.h</text>
</a>
</g>
</g>
<!-- Node1&#45;&gt;Node3 -->
<g id="edge2" class="edge"><title>Node1&#45;&gt;Node3</title>
<path fill="none" stroke="midnightblue" d="M946.257,-605.484C897.721,-594.98 830.385,-580.407 785.659,-570.727"/>
<polygon fill="midnightblue" stroke="midnightblue" points="786.152,-567.253 775.638,-568.559 784.671,-574.095 786.152,-567.253"/>
</g>
<!-- Node4 -->
<g id="node4" class="node"><title>Node4</title>
<g id="a_node4"><a xlink:href="$AP__HAL_8h.html" xlink:title="AP_HAL/AP_HAL.h">
<polygon fill="white" stroke="black" points="558.488,-440.5 558.488,-458.5 662.315,-458.5 662.315,-440.5 558.488,-440.5"/>
<text text-anchor="middle" x="610.401" y="-446.5" font-family="Helvetica,sans-Serif" font-size="10.00">AP_HAL/AP_HAL.h</text>
</a>
</g>
</g>
<!-- Node3&#45;&gt;Node4 -->
<g id="edge3" class="edge"><title>Node3&#45;&gt;Node4</title>
<path fill="none" stroke="midnightblue" d="M726.368,-550.404C713.813,-541.8 693.72,-527.59 677.401,-514 658.841,-498.543 638.911,-479.276 625.659,-466.043"/>
<polygon fill="midnightblue" stroke="midnightblue" points="627.87,-463.303 618.341,-458.671 622.902,-468.234 627.87,-463.303"/>
</g>
<!-- Node31 -->
<g id="node31" class="node"><title>Node31</title>
<g id="a_node31"><a xlink:href="$HAL__Linux__Class_8h.html" xlink:title="HAL_Linux_Class.h">
<polygon fill="white" stroke="black" points="686.488,-495.5 686.488,-513.5 790.315,-513.5 790.315,-495.5 686.488,-495.5"/>
<text text-anchor="middle" x="738.401" y="-501.5" font-family="Helvetica,sans-Serif" font-size="10.00">HAL_Linux_Class.h</text>
</a>
</g>
</g>
<!-- Node3&#45;&gt;Node31 -->
<g id="edge70" class="edge"><title>Node3&#45;&gt;Node31</title>
<path fill="none" stroke="midnightblue" d="M738.401,-550.219C738.401,-543.177 738.401,-532.808 738.401,-523.828"/>
<polygon fill="midnightblue" stroke="midnightblue" points="741.901,-523.55 738.401,-513.55 734.901,-523.55 741.901,-523.55"/>
</g>
<!-- Node4&#45;&gt;Node2 -->
<g id="edge4" class="edge"><title>Node4&#45;&gt;Node2</title>
<path fill="none" stroke="midnightblue" d="M656.786,-440.445C736.121,-425.34 889.401,-389.778 889.401,-340.5 889.401,-340.5 889.401,-340.5 889.401,-228.5 889.401,-196.386 881.152,-159.702 875.525,-138.414"/>
<polygon fill="midnightblue" stroke="midnightblue" points="878.836,-137.256 872.808,-128.544 872.087,-139.114 878.836,-137.256"/>
</g>
<!-- Node5 -->
<g id="node5" class="node"><title>Node5</title>
<polygon fill="white" stroke="#bfbfbf" points="677.108,-110.5 677.108,-128.5 733.694,-128.5 733.694,-110.5 677.108,-110.5"/>
<text text-anchor="middle" x="705.401" y="-116.5" font-family="Helvetica,sans-Serif" font-size="10.00">stdbool.h</text>
</g>
<!-- Node4&#45;&gt;Node5 -->
<g id="edge5" class="edge"><title>Node4&#45;&gt;Node5</title>
<path fill="none" stroke="midnightblue" d="M609.995,-440.248C608.063,-400.507 600.073,-230.341 604.401,-220 620.4,-181.781 659.027,-150.803 683.607,-134.069"/>
<polygon fill="midnightblue" stroke="midnightblue" points="685.538,-136.988 691.959,-128.561 681.684,-131.144 685.538,-136.988"/>
</g>
<!-- Node6 -->
<g id="node6" class="node"><title>Node6</title>
<g id="a_node6"><a xlink:href="$AP__HAL__Namespace_8h.html" xlink:title="AP_HAL_Namespace.h">
<polygon fill="white" stroke="black" points="352.594,-55.5 352.594,-73.5 474.209,-73.5 474.209,-55.5 352.594,-55.5"/>
<text text-anchor="middle" x="413.401" y="-61.5" font-family="Helvetica,sans-Serif" font-size="10.00">AP_HAL_Namespace.h</text>
</a>
</g>
</g>
<!-- Node4&#45;&gt;Node6 -->
<g id="edge6" class="edge"><title>Node4&#45;&gt;Node6</title>
<path fill="none" stroke="midnightblue" d="M662.407,-440.898C665.108,-440.576 667.786,-440.274 670.401,-440 903.447,-415.55 965.466,-443.712 1196.4,-404 1295.02,-387.042 1412.4,-440.562 1412.4,-340.5 1412.4,-340.5 1412.4,-340.5 1412.4,-173.5 1412.4,-80.0797 712.952,-67.382 484.581,-65.7259"/>
<polygon fill="midnightblue" stroke="midnightblue" points="484.413,-62.2248 474.389,-65.6571 484.366,-69.2246 484.413,-62.2248"/>
</g>
<!-- Node9 -->
<g id="node9" class="node"><title>Node9</title>
<g id="a_node9"><a xlink:href="$AP__HAL__Boards_8h.html" xlink:title="AP_HAL_Boards.h">
<polygon fill="white" stroke="black" points="1139.43,-165.5 1139.43,-183.5 1239.37,-183.5 1239.37,-165.5 1139.43,-165.5"/>
<text text-anchor="middle" x="1189.4" y="-171.5" font-family="Helvetica,sans-Serif" font-size="10.00">AP_HAL_Boards.h</text>
</a>
</g>
</g>
<!-- Node4&#45;&gt;Node9 -->
<g id="edge9" class="edge"><title>Node4&#45;&gt;Node9</title>
<path fill="none" stroke="midnightblue" d="M662.43,-441.088C665.125,-440.717 667.795,-440.352 670.401,-440 765.24,-427.186 1089.4,-436.2 1089.4,-340.5 1089.4,-340.5 1089.4,-340.5 1089.4,-283.5 1089.4,-254.042 1089.89,-242.914 1108.4,-220 1120.26,-205.324 1138.31,-194.741 1154.37,-187.588"/>
<polygon fill="midnightblue" stroke="midnightblue" points="1156.15,-190.641 1164.04,-183.571 1153.46,-184.176 1156.15,-190.641"/>
</g>
<!-- Node10 -->
<g id="node10" class="node"><title>Node10</title>
<g id="a_node10"><a xlink:href="$AP__HAL__Macros_8h.html" xlink:title="AP_HAL_Macros.h">
<polygon fill="white" stroke="black" points="201.882,-385.5 201.882,-403.5 302.921,-403.5 302.921,-385.5 201.882,-385.5"/>
<text text-anchor="middle" x="252.401" y="-391.5" font-family="Helvetica,sans-Serif" font-size="10.00">AP_HAL_Macros.h</text>
</a>
</g>
</g>
<!-- Node4&#45;&gt;Node10 -->
<g id="edge10" class="edge"><title>Node4&#45;&gt;Node10</title>
<path fill="none" stroke="midnightblue" d="M558.345,-440.793C493.324,-431.167 382.261,-414.725 313.342,-404.522"/>
<polygon fill="midnightblue" stroke="midnightblue" points="313.478,-401.004 303.073,-403.002 312.453,-407.929 313.478,-401.004"/>
</g>
<!-- Node11 -->
<g id="node11" class="node"><title>Node11</title>
<g id="a_node11"><a xlink:href="$AP__HAL__Main_8h.html" xlink:title="AP_HAL_Main.h">
<polygon fill="white" stroke="black" points="435.436,-385.5 435.436,-403.5 525.367,-403.5 525.367,-385.5 435.436,-385.5"/>
<text text-anchor="middle" x="480.401" y="-391.5" font-family="Helvetica,sans-Serif" font-size="10.00">AP_HAL_Main.h</text>
</a>
</g>
</g>
<!-- Node4&#45;&gt;Node11 -->
<g id="edge11" class="edge"><title>Node4&#45;&gt;Node11</title>
<path fill="none" stroke="midnightblue" d="M590.657,-440.45C569.086,-431.656 534.315,-417.48 509.591,-407.401"/>
<polygon fill="midnightblue" stroke="midnightblue" points="510.913,-404.16 500.331,-403.625 508.27,-410.642 510.913,-404.16"/>
</g>
<!-- Node12 -->
<g id="node12" class="node"><title>Node12</title>
<g id="a_node12"><a xlink:href="$HAL_8h.html" xlink:title="HAL.h">
<polygon fill="white" stroke="black" points="407.505,-330.5 407.505,-348.5 451.298,-348.5 451.298,-330.5 407.505,-330.5"/>
<text text-anchor="middle" x="429.401" y="-336.5" font-family="Helvetica,sans-Serif" font-size="10.00">HAL.h</text>
</a>
</g>
</g>
<!-- Node4&#45;&gt;Node12 -->
<g id="edge69" class="edge"><title>Node4&#45;&gt;Node12</title>
<path fill="none" stroke="midnightblue" d="M558.129,-443.018C509.626,-436.726 442.56,-424.532 426.401,-404 416.384,-391.271 418.839,-372.266 422.757,-358.365"/>
<polygon fill="midnightblue" stroke="midnightblue" points="426.193,-359.122 426.004,-348.528 419.546,-356.928 426.193,-359.122"/>
</g>
<!-- Node13 -->
<g id="node13" class="node"><title>Node13</title>
<g id="a_node13"><a xlink:href="$AnalogIn_8h.html" xlink:title="AnalogIn.h">
<polygon fill="white" stroke="black" points="245.493,-220.5 245.493,-238.5 309.31,-238.5 309.31,-220.5 245.493,-220.5"/>
<text text-anchor="middle" x="277.401" y="-226.5" font-family="Helvetica,sans-Serif" font-size="10.00">AnalogIn.h</text>
</a>
</g>
</g>
<!-- Node4&#45;&gt;Node13 -->
<g id="edge51" class="edge"><title>Node4&#45;&gt;Node13</title>
<path fill="none" stroke="midnightblue" d="M558.272,-447.366C512.007,-444.233 444.086,-434.263 393.401,-404 338.679,-371.327 333.563,-349.024 301.401,-294 292.945,-279.533 286.479,-261.547 282.4,-248.414"/>
<polygon fill="midnightblue" stroke="midnightblue" points="285.725,-247.314 279.545,-238.708 279.01,-249.289 285.725,-247.314"/>
</g>
<!-- Node15 -->
<g id="node15" class="node"><title>Node15</title>
<g id="a_node15"><a xlink:href="$GPIO_8h.html" xlink:title="GPIO.h">
<polygon fill="white" stroke="black" points="921.729,-220.5 921.729,-238.5 971.074,-238.5 971.074,-220.5 921.729,-220.5"/>
<text text-anchor="middle" x="946.401" y="-226.5" font-family="Helvetica,sans-Serif" font-size="10.00">GPIO.h</text>
</a>
</g>
</g>
<!-- Node4&#45;&gt;Node15 -->
<g id="edge53" class="edge"><title>Node4&#45;&gt;Node15</title>
<path fill="none" stroke="midnightblue" d="M662.635,-440.937C746.278,-428.776 901.183,-406.023 903.401,-404 947.903,-363.424 949.645,-284.664 947.883,-248.928"/>
<polygon fill="midnightblue" stroke="midnightblue" points="951.351,-248.327 947.208,-238.576 944.366,-248.783 951.351,-248.327"/>
</g>
<!-- Node16 -->
<g id="node16" class="node"><title>Node16</title>
<g id="a_node16"><a xlink:href="$RCInput_8h.html" xlink:title="RCInput.h">
<polygon fill="white" stroke="black" points="68.8892,-275.5 68.8892,-293.5 129.914,-293.5 129.914,-275.5 68.8892,-275.5"/>
<text text-anchor="middle" x="99.4014" y="-281.5" font-family="Helvetica,sans-Serif" font-size="10.00">RCInput.h</text>
</a>
</g>
</g>
<!-- Node4&#45;&gt;Node16 -->
<g id="edge54" class="edge"><title>Node4&#45;&gt;Node16</title>
<path fill="none" stroke="midnightblue" d="M558.111,-447.253C438.579,-443.912 153.182,-432.96 121.401,-404 93.5131,-378.587 93.9969,-330.183 96.7205,-303.784"/>
<polygon fill="midnightblue" stroke="midnightblue" points="100.219,-304.014 97.9921,-293.656 93.2736,-303.142 100.219,-304.014"/>
</g>
<!-- Node17 -->
<g id="node17" class="node"><title>Node17</title>
<g id="a_node17"><a xlink:href="$RCOutput_8h.html" xlink:title="RCOutput.h">
<polygon fill="white" stroke="black" points="186,-275.5 186,-293.5 254.803,-293.5 254.803,-275.5 186,-275.5"/>
<text text-anchor="middle" x="220.401" y="-281.5" font-family="Helvetica,sans-Serif" font-size="10.00">RCOutput.h</text>
</a>
</g>
</g>
<!-- Node4&#45;&gt;Node17 -->
<g id="edge55" class="edge"><title>Node4&#45;&gt;Node17</title>
<path fill="none" stroke="midnightblue" d="M558.264,-446.773C451.605,-442.701 216.464,-430.76 192.401,-404 166.583,-375.287 191.864,-327.218 208.468,-302.033"/>
<polygon fill="midnightblue" stroke="midnightblue" points="211.493,-303.811 214.282,-293.59 205.728,-299.841 211.493,-303.811"/>
</g>
<!-- Node18 -->
<g id="node18" class="node"><title>Node18</title>
<g id="a_node18"><a xlink:href="$SPIDriver_8h.html" xlink:title="SPIDriver.h">
<polygon fill="white" stroke="black" points="310.113,-275.5 310.113,-293.5 376.689,-293.5 376.689,-275.5 310.113,-275.5"/>
<text text-anchor="middle" x="343.401" y="-281.5" font-family="Helvetica,sans-Serif" font-size="10.00">SPIDriver.h</text>
</a>
</g>
</g>
<!-- Node4&#45;&gt;Node18 -->
<g id="edge50" class="edge"><title>Node4&#45;&gt;Node18</title>
<path fill="none" stroke="midnightblue" d="M558.142,-447.334C516.309,-444.018 457.963,-433.802 416.401,-404 380.834,-378.497 359.053,-329.762 349.355,-303.436"/>
<polygon fill="midnightblue" stroke="midnightblue" points="352.54,-301.941 345.933,-293.659 345.933,-304.254 352.54,-301.941"/>
</g>
<!-- Node19 -->
<g id="node19" class="node"><title>Node19</title>
<g id="a_node19"><a xlink:href="$Storage_8h.html" xlink:title="Storage.h">
<polygon fill="white" stroke="black" points="473.719,-275.5 473.719,-293.5 533.083,-293.5 533.083,-275.5 473.719,-275.5"/>
<text text-anchor="middle" x="503.401" y="-281.5" font-family="Helvetica,sans-Serif" font-size="10.00">Storage.h</text>
</a>
</g>
</g>
<!-- Node4&#45;&gt;Node19 -->
<g id="edge52" class="edge"><title>Node4&#45;&gt;Node19</title>
<path fill="none" stroke="midnightblue" d="M604.12,-440.44C597.329,-431.632 586.284,-417.035 577.401,-404 553.26,-368.573 527.179,-325.578 513.345,-302.352"/>
<polygon fill="midnightblue" stroke="midnightblue" points="516.319,-300.505 508.207,-293.689 510.298,-304.076 516.319,-300.505"/>
</g>
<!-- Node20 -->
<g id="node20" class="node"><title>Node20</title>
<g id="a_node20"><a xlink:href="$UARTDriver_8h.html" xlink:title="UARTDriver.h">
<polygon fill="white" stroke="black" points="703.649,-275.5 703.649,-293.5 781.153,-293.5 781.153,-275.5 703.649,-275.5"/>
<text text-anchor="middle" x="742.401" y="-281.5" font-family="Helvetica,sans-Serif" font-size="10.00">UARTDriver.h</text>
</a>
</g>
</g>
<!-- Node4&#45;&gt;Node20 -->
<g id="edge46" class="edge"><title>Node4&#45;&gt;Node20</title>
<path fill="none" stroke="midnightblue" d="M628.626,-440.496C644.215,-432.917 666.44,-420.282 681.401,-404 709.359,-373.575 727.994,-327.936 736.709,-303.113"/>
<polygon fill="midnightblue" stroke="midnightblue" points="740.046,-304.171 739.924,-293.577 733.413,-301.934 740.046,-304.171"/>
</g>
<!-- Node23 -->
<g id="node23" class="node"><title>Node23</title>
<g id="a_node23"><a xlink:href="$BetterStream_8h.html" xlink:title="utility/BetterStream.h">
<polygon fill="white" stroke="black" points="612.995,-220.5 612.995,-238.5 721.808,-238.5 721.808,-220.5 612.995,-220.5"/>
<text text-anchor="middle" x="667.401" y="-226.5" font-family="Helvetica,sans-Serif" font-size="10.00">utility/BetterStream.h</text>
</a>
</g>
</g>
<!-- Node4&#45;&gt;Node23 -->
<g id="edge68" class="edge"><title>Node4&#45;&gt;Node23</title>
<path fill="none" stroke="midnightblue" d="M618.388,-440.43C626.146,-432.068 637.582,-418.247 643.401,-404 665.111,-350.848 667.852,-281.72 667.796,-249.096"/>
<polygon fill="midnightblue" stroke="midnightblue" points="671.293,-248.785 667.678,-238.825 664.293,-248.865 671.293,-248.785"/>
</g>
<!-- Node25 -->
<g id="node25" class="node"><title>Node25</title>
<g id="a_node25"><a xlink:href="$Stream_8h.html" xlink:title="Stream.h">
<polygon fill="white" stroke="black" points="133.116,-165.5 133.116,-183.5 189.687,-183.5 189.687,-165.5 133.116,-165.5"/>
<text text-anchor="middle" x="161.401" y="-171.5" font-family="Helvetica,sans-Serif" font-size="10.00">Stream.h</text>
</a>
</g>
</g>
<!-- Node4&#45;&gt;Node25 -->
<g id="edge67" class="edge"><title>Node4&#45;&gt;Node25</title>
<path fill="none" stroke="midnightblue" d="M558.473,-446.801C449.629,-442.725 205.443,-430.681 179.401,-404 123.015,-346.228 144.693,-236.522 156.12,-193.475"/>
<polygon fill="midnightblue" stroke="midnightblue" points="159.554,-194.189 158.874,-183.616 152.812,-192.306 159.554,-194.189"/>
</g>
<!-- Node26 -->
<g id="node26" class="node"><title>Node26</title>
<g id="a_node26"><a xlink:href="$Print_8h.html" xlink:title="Print.h">
<polygon fill="white" stroke="black" points="32.9507,-110.5 32.9507,-128.5 77.8521,-128.5 77.8521,-110.5 32.9507,-110.5"/>
<text text-anchor="middle" x="55.4014" y="-116.5" font-family="Helvetica,sans-Serif" font-size="10.00">Print.h</text>
</a>
</g>
</g>
<!-- Node4&#45;&gt;Node26 -->
<g id="edge66" class="edge"><title>Node4&#45;&gt;Node26</title>
<path fill="none" stroke="midnightblue" d="M558.153,-448.359C445.6,-447.342 183.99,-440.945 104.401,-404 68.0566,-387.129 40.4014,-380.57 40.4014,-340.5 40.4014,-340.5 40.4014,-340.5 40.4014,-228.5 40.4014,-196.568 46.914,-159.826 51.3567,-138.477"/>
<polygon fill="midnightblue" stroke="midnightblue" points="54.8051,-139.09 53.5016,-128.576 47.9638,-137.608 54.8051,-139.09"/>
</g>
<!-- Node27 -->
<g id="node27" class="node"><title>Node27</title>
<g id="a_node27"><a xlink:href="$I2CDriver_8h.html" xlink:title="I2CDriver.h">
<polygon fill="white" stroke="black" points="441.392,-165.5 441.392,-183.5 507.411,-183.5 507.411,-165.5 441.392,-165.5"/>
<text text-anchor="middle" x="474.401" y="-171.5" font-family="Helvetica,sans-Serif" font-size="10.00">I2CDriver.h</text>
</a>
</g>
</g>
<!-- Node4&#45;&gt;Node27 -->
<g id="edge47" class="edge"><title>Node4&#45;&gt;Node27</title>
<path fill="none" stroke="midnightblue" d="M607.907,-440.259C600.059,-414.826 574.469,-335.629 542.401,-275 525.933,-243.865 501.72,-210.653 487.068,-191.558"/>
<polygon fill="midnightblue" stroke="midnightblue" points="489.794,-189.362 480.895,-183.613 484.266,-193.657 489.794,-189.362"/>
</g>
<!-- Node28 -->
<g id="node28" class="node"><title>Node28</title>
<g id="a_node28"><a xlink:href="$Scheduler_8h.html" xlink:title="Scheduler.h">
<polygon fill="white" stroke="black" points="992.99,-220.5 992.99,-238.5 1061.81,-238.5 1061.81,-220.5 992.99,-220.5"/>
<text text-anchor="middle" x="1027.4" y="-226.5" font-family="Helvetica,sans-Serif" font-size="10.00">Scheduler.h</text>
</a>
</g>
</g>
<!-- Node4&#45;&gt;Node28 -->
<g id="edge56" class="edge"><title>Node4&#45;&gt;Node28</title>
<path fill="none" stroke="midnightblue" d="M662.435,-441.127C665.129,-440.746 667.797,-440.368 670.401,-440 783.731,-423.973 830.281,-467.659 925.401,-404 982.244,-365.958 1011.8,-284.65 1022.56,-248.486"/>
<polygon fill="midnightblue" stroke="midnightblue" points="1025.94,-249.385 1025.3,-238.809 1019.21,-247.474 1025.94,-249.385"/>
</g>
<!-- Node29 -->
<g id="node29" class="node"><title>Node29</title>
<g id="a_node29"><a xlink:href="$Semaphores_8h.html" xlink:title="Semaphores.h">
<polygon fill="white" stroke="black" points="1302.88,-330.5 1302.88,-348.5 1383.92,-348.5 1383.92,-330.5 1302.88,-330.5"/>
<text text-anchor="middle" x="1343.4" y="-336.5" font-family="Helvetica,sans-Serif" font-size="10.00">Semaphores.h</text>
</a>
</g>
</g>
<!-- Node4&#45;&gt;Node29 -->
<g id="edge61" class="edge"><title>Node4&#45;&gt;Node29</title>
<path fill="none" stroke="midnightblue" d="M662.409,-440.921C665.11,-440.593 667.787,-440.284 670.401,-440 881.323,-417.108 938.207,-444.829 1146.4,-404 1207.58,-392.002 1276.32,-367.101 1314.27,-352.297"/>
<polygon fill="midnightblue" stroke="midnightblue" points="1315.66,-355.511 1323.68,-348.586 1313.09,-348.999 1315.66,-355.511"/>
</g>
<!-- Node30 -->
<g id="node30" class="node"><title>Node30</title>
<g id="a_node30"><a xlink:href="$Util_8h.html" xlink:title="Util.h">
<polygon fill="white" stroke="black" points="1117.01,-220.5 1117.01,-238.5 1155.79,-238.5 1155.79,-220.5 1117.01,-220.5"/>
<text text-anchor="middle" x="1136.4" y="-226.5" font-family="Helvetica,sans-Serif" font-size="10.00">Util.h</text>
</a>
</g>
</g>
<!-- Node4&#45;&gt;Node30 -->
<g id="edge63" class="edge"><title>Node4&#45;&gt;Node30</title>
<path fill="none" stroke="midnightblue" d="M662.412,-440.944C665.112,-440.611 667.788,-440.294 670.401,-440 718.377,-434.612 1067.52,-436.299 1103.4,-404 1147.82,-364.018 1143.73,-284.346 1139.25,-248.596"/>
<polygon fill="midnightblue" stroke="midnightblue" points="1142.71,-248.05 1137.84,-238.639 1135.78,-249.03 1142.71,-248.05"/>
</g>
<!-- Node7 -->
<g id="node7" class="node"><title>Node7</title>
<polygon fill="white" stroke="#bfbfbf" points="251.005,-0.5 251.005,-18.5 299.798,-18.5 299.798,-0.5 251.005,-0.5"/>
<text text-anchor="middle" x="275.401" y="-6.5" font-family="Helvetica,sans-Serif" font-size="10.00">string.h</text>
</g>
<!-- Node6&#45;&gt;Node7 -->
<g id="edge7" class="edge"><title>Node6&#45;&gt;Node7</title>
<path fill="none" stroke="midnightblue" d="M392.442,-55.4504C369.443,-46.6173 332.306,-32.3546 306.04,-22.267"/>
<polygon fill="midnightblue" stroke="midnightblue" points="307.148,-18.9433 296.558,-18.6253 304.638,-25.478 307.148,-18.9433"/>
</g>
<!-- Node8 -->
<g id="node8" class="node"><title>Node8</title>
<g id="a_node8"><a xlink:href="$functor_8h.html" xlink:title="utility/functor.h">
<polygon fill="white" stroke="black" points="373.438,-0.5 373.438,-18.5 453.364,-18.5 453.364,-0.5 373.438,-0.5"/>
<text text-anchor="middle" x="413.401" y="-6.5" font-family="Helvetica,sans-Serif" font-size="10.00">utility/functor.h</text>
</a>
</g>
</g>
<!-- Node6&#45;&gt;Node8 -->
<g id="edge8" class="edge"><title>Node6&#45;&gt;Node8</title>
<path fill="none" stroke="midnightblue" d="M413.401,-55.2188C413.401,-48.1769 413.401,-37.8083 413.401,-28.8277"/>
<polygon fill="midnightblue" stroke="midnightblue" points="416.901,-28.5495 413.401,-18.5496 409.901,-28.5496 416.901,-28.5495"/>
</g>
<!-- Node11&#45;&gt;Node12 -->
<g id="edge12" class="edge"><title>Node11&#45;&gt;Node12</title>
<path fill="none" stroke="midnightblue" d="M472.433,-385.219C464.904,-377.394 453.422,-365.463 444.213,-355.892"/>
<polygon fill="midnightblue" stroke="midnightblue" points="446.603,-353.328 437.147,-348.55 441.559,-358.182 446.603,-353.328"/>
</g>
<!-- Node12&#45;&gt;Node6 -->
<g id="edge13" class="edge"><title>Node12&#45;&gt;Node6</title>
<path fill="none" stroke="midnightblue" d="M428.477,-330.132C425.409,-301.878 415.577,-207.392 412.401,-129 411.786,-113.818 412.123,-96.5793 412.566,-83.8984"/>
<polygon fill="midnightblue" stroke="midnightblue" points="416.07,-83.8569 412.977,-73.7236 409.076,-83.574 416.07,-83.8569"/>
</g>
<!-- Node12&#45;&gt;Node13 -->
<g id="edge14" class="edge"><title>Node12&#45;&gt;Node13</title>
<path fill="none" stroke="midnightblue" d="M425.69,-330.362C419.255,-317.077 404.833,-290.644 385.401,-275 366.174,-259.52 340.814,-248.7 319.501,-241.609"/>
<polygon fill="midnightblue" stroke="midnightblue" points="320.309,-238.194 309.719,-238.516 318.199,-244.868 320.309,-238.194"/>
</g>
<!-- Node12&#45;&gt;Node15 -->
<g id="edge17" class="edge"><title>Node12&#45;&gt;Node15</title>
<path fill="none" stroke="midnightblue" d="M451.342,-337.804C508.232,-335.57 664.816,-326.685 790.401,-294 838.407,-281.506 891.292,-257.687 921.51,-243.038"/>
<polygon fill="midnightblue" stroke="midnightblue" points="923.055,-246.179 930.489,-238.63 919.97,-239.895 923.055,-246.179"/>
</g>
<!-- Node12&#45;&gt;Node16 -->
<g id="edge20" class="edge"><title>Node12&#45;&gt;Node16</title>
<path fill="none" stroke="midnightblue" d="M407.494,-334.981C353.135,-326.251 211.372,-303.483 140.699,-292.133"/>
<polygon fill="midnightblue" stroke="midnightblue" points="140.827,-288.608 130.399,-290.478 139.717,-295.52 140.827,-288.608"/>
</g>
<!-- Node12&#45;&gt;Node17 -->
<g id="edge22" class="edge"><title>Node12&#45;&gt;Node17</title>
<path fill="none" stroke="midnightblue" d="M407.43,-332.928C373.01,-324.2 305.795,-307.155 262.018,-296.054"/>
<polygon fill="midnightblue" stroke="midnightblue" points="262.795,-292.64 252.242,-293.574 261.074,-299.425 262.795,-292.64"/>
</g>
<!-- Node12&#45;&gt;Node18 -->
<g id="edge24" class="edge"><title>Node12&#45;&gt;Node18</title>
<path fill="none" stroke="midnightblue" d="M416.34,-330.45C402.828,-322.123 381.485,-308.97 365.371,-299.039"/>
<polygon fill="midnightblue" stroke="midnightblue" points="366.935,-295.892 356.586,-293.625 363.263,-301.851 366.935,-295.892"/>
</g>
<!-- Node12&#45;&gt;Node19 -->
<g id="edge26" class="edge"><title>Node12&#45;&gt;Node19</title>
<path fill="none" stroke="midnightblue" d="M440.64,-330.45C452.05,-322.279 469.947,-309.46 483.715,-299.6"/>
<polygon fill="midnightblue" stroke="midnightblue" points="485.965,-302.294 492.057,-293.625 481.889,-296.603 485.965,-302.294"/>
</g>
<!-- Node12&#45;&gt;Node20 -->
<g id="edge29" class="edge"><title>Node12&#45;&gt;Node20</title>
<path fill="none" stroke="midnightblue" d="M451.411,-334.773C501.376,-326.313 624.376,-305.485 693.398,-293.798"/>
<polygon fill="midnightblue" stroke="midnightblue" points="694.309,-297.193 703.584,-292.073 693.14,-290.292 694.309,-297.193"/>
</g>
<!-- Node13&#45;&gt;Node6 -->
<g id="edge16" class="edge"><title>Node13&#45;&gt;Node6</title>
<path fill="none" stroke="midnightblue" d="M278.515,-220.239C281.737,-199.288 292.865,-143.38 323.401,-110 337.299,-94.8081 357.534,-84.1614 375.298,-77.0999"/>
<polygon fill="midnightblue" stroke="midnightblue" points="376.707,-80.3099 384.857,-73.5396 374.264,-73.7501 376.707,-80.3099"/>
</g>
<!-- Node14 -->
<g id="node14" class="node"><title>Node14</title>
<polygon fill="white" stroke="#bfbfbf" points="0,-55.5 0,-73.5 58.8027,-73.5 58.8027,-55.5 0,-55.5"/>
<text text-anchor="middle" x="29.4014" y="-61.5" font-family="Helvetica,sans-Serif" font-size="10.00">inttypes.h</text>
</g>
<!-- Node13&#45;&gt;Node14 -->
<g id="edge15" class="edge"><title>Node13&#45;&gt;Node14</title>
<path fill="none" stroke="midnightblue" d="M245.177,-227.492C187.916,-223.703 70.1635,-206.396 24.4014,-129 16.2298,-115.18 18.9353,-96.6108 22.8086,-83.1249"/>
<polygon fill="midnightblue" stroke="midnightblue" points="26.1459,-84.1806 25.9798,-73.5871 19.5034,-81.972 26.1459,-84.1806"/>
</g>
<!-- Node15&#45;&gt;Node2 -->
<g id="edge18" class="edge"><title>Node15&#45;&gt;Node2</title>
<path fill="none" stroke="midnightblue" d="M940.947,-220.203C932.889,-208.002 917.261,-184.551 903.401,-165 896.702,-155.55 889.002,-145.142 882.726,-136.77"/>
<polygon fill="midnightblue" stroke="midnightblue" points="885.403,-134.505 876.59,-128.625 879.812,-138.718 885.403,-134.505"/>
</g>
<!-- Node15&#45;&gt;Node6 -->
<g id="edge19" class="edge"><title>Node15&#45;&gt;Node6</title>
<path fill="none" stroke="midnightblue" d="M968.451,-220.393C994.194,-209.605 1031.45,-189.067 1016.4,-165 986.783,-117.644 957.207,-124.994 903.401,-110 826.523,-88.5767 600.809,-74.7191 484.497,-68.7965"/>
<polygon fill="midnightblue" stroke="midnightblue" points="484.435,-65.289 474.271,-68.2819 484.083,-72.2802 484.435,-65.289"/>
</g>
<!-- Node16&#45;&gt;Node6 -->
<g id="edge21" class="edge"><title>Node16&#45;&gt;Node6</title>
<path fill="none" stroke="midnightblue" d="M99.5054,-275.463C100.087,-255.494 103.628,-202.526 124.401,-165 141.451,-134.201 150.152,-126.21 181.401,-110 231.259,-84.137 294.168,-73.2102 341.896,-68.6407"/>
<polygon fill="midnightblue" stroke="midnightblue" points="342.493,-72.1016 352.145,-67.7341 341.876,-65.1288 342.493,-72.1016"/>
</g>
<!-- Node17&#45;&gt;Node6 -->
<g id="edge23" class="edge"><title>Node17&#45;&gt;Node6</title>
<path fill="none" stroke="midnightblue" d="M221.587,-275.413C223.582,-263.081 228.215,-239.003 236.401,-220 259.329,-166.78 262.046,-147.291 306.401,-110 324.88,-94.4641 349.545,-83.7154 370.536,-76.6795"/>
<polygon fill="midnightblue" stroke="midnightblue" points="371.723,-79.975 380.194,-73.6118 369.604,-73.3035 371.723,-79.975"/>
</g>
<!-- Node18&#45;&gt;Node6 -->
<g id="edge25" class="edge"><title>Node18&#45;&gt;Node6</title>
<path fill="none" stroke="midnightblue" d="M342.218,-275.294C338.873,-249.298 331.434,-167.119 361.401,-110 367.957,-97.5051 379.619,-87.027 390.241,-79.3831"/>
<polygon fill="midnightblue" stroke="midnightblue" points="392.432,-82.1275 398.783,-73.6469 388.53,-76.3163 392.432,-82.1275"/>
</g>
<!-- Node19&#45;&gt;Node2 -->
<g id="edge27" class="edge"><title>Node19&#45;&gt;Node2</title>
<path fill="none" stroke="midnightblue" d="M511.895,-275.408C535,-253.869 601.737,-194.757 668.401,-165 698.097,-151.745 786.883,-134.971 836.284,-126.293"/>
<polygon fill="midnightblue" stroke="midnightblue" points="836.941,-129.731 846.193,-124.568 835.741,-122.835 836.941,-129.731"/>
</g>
<!-- Node19&#45;&gt;Node6 -->
<g id="edge28" class="edge"><title>Node19&#45;&gt;Node6</title>
<path fill="none" stroke="midnightblue" d="M495.208,-275.021C480.073,-258.816 447.869,-221.695 432.401,-184 418.603,-150.372 414.787,-107.547 413.757,-83.6754"/>
<polygon fill="midnightblue" stroke="midnightblue" points="417.253,-83.4888 413.443,-73.6027 410.256,-83.7069 417.253,-83.4888"/>
</g>
<!-- Node20&#45;&gt;Node2 -->
<g id="edge30" class="edge"><title>Node20&#45;&gt;Node2</title>
<path fill="none" stroke="midnightblue" d="M750.693,-275.462C767.302,-259.128 805.376,-220.505 832.401,-184 843.488,-169.024 854.209,-150.636 861.421,-137.509"/>
<polygon fill="midnightblue" stroke="midnightblue" points="864.537,-139.103 866.199,-128.639 858.375,-135.783 864.537,-139.103"/>
</g>
<!-- Node20&#45;&gt;Node6 -->
<g id="edge35" class="edge"><title>Node20&#45;&gt;Node6</title>
<path fill="none" stroke="midnightblue" d="M743.033,-275.171C743.583,-262.083 742.814,-236.495 730.401,-220 722.244,-209.161 524.647,-115.838 512.401,-110 488.683,-98.6922 461.43,-86.5002 441.531,-77.7422"/>
<polygon fill="midnightblue" stroke="midnightblue" points="442.691,-74.4292 432.127,-73.6181 439.88,-80.8398 442.691,-74.4292"/>
</g>
<!-- Node21 -->
<g id="node21" class="node"><title>Node21</title>
<g id="a_node21"><a xlink:href="$AP__Common_8h.html" xlink:title="Common definitions and utility routines for the ArduPilot libraries. ">
<polygon fill="white" stroke="black" points="677.375,-165.5 677.375,-183.5 823.428,-183.5 823.428,-165.5 677.375,-165.5"/>
<text text-anchor="middle" x="750.401" y="-171.5" font-family="Helvetica,sans-Serif" font-size="10.00">AP_Common/AP_Common.h</text>
</a>
</g>
</g>
<!-- Node20&#45;&gt;Node21 -->
<g id="edge31" class="edge"><title>Node20&#45;&gt;Node21</title>
<path fill="none" stroke="midnightblue" d="M747.592,-275.369C752.769,-266.737 760.375,-252.504 763.401,-239 766.862,-223.559 762.598,-205.921 758.051,-193.159"/>
<polygon fill="midnightblue" stroke="midnightblue" points="761.26,-191.754 754.329,-183.741 754.75,-194.327 761.26,-191.754"/>
</g>
<!-- Node20&#45;&gt;Node23 -->
<g id="edge36" class="edge"><title>Node20&#45;&gt;Node23</title>
<path fill="none" stroke="midnightblue" d="M731.01,-275.45C719.447,-267.279 701.308,-254.46 687.354,-244.6"/>
<polygon fill="midnightblue" stroke="midnightblue" points="689.086,-241.538 678.899,-238.625 685.046,-247.255 689.086,-241.538"/>
</g>
<!-- Node21&#45;&gt;Node2 -->
<g id="edge32" class="edge"><title>Node21&#45;&gt;Node2</title>
<path fill="none" stroke="midnightblue" d="M768.627,-165.45C788.362,-156.734 820.068,-142.731 842.849,-132.669"/>
<polygon fill="midnightblue" stroke="midnightblue" points="844.271,-135.867 852.004,-128.625 841.443,-129.464 844.271,-135.867"/>
</g>
<!-- Node21&#45;&gt;Node5 -->
<g id="edge34" class="edge"><title>Node21&#45;&gt;Node5</title>
<path fill="none" stroke="midnightblue" d="M743.37,-165.219C736.793,-157.473 726.799,-145.701 718.715,-136.18"/>
<polygon fill="midnightblue" stroke="midnightblue" points="721.376,-133.907 712.236,-128.55 716.04,-138.438 721.376,-133.907"/>
</g>
<!-- Node22 -->
<g id="node22" class="node"><title>Node22</title>
<polygon fill="white" stroke="#bfbfbf" points="751.559,-110.5 751.559,-128.5 799.244,-128.5 799.244,-110.5 751.559,-110.5"/>
<text text-anchor="middle" x="775.401" y="-116.5" font-family="Helvetica,sans-Serif" font-size="10.00">stdlib.h</text>
</g>
<!-- Node21&#45;&gt;Node22 -->
<g id="edge33" class="edge"><title>Node21&#45;&gt;Node22</title>
<path fill="none" stroke="midnightblue" d="M754.308,-165.219C757.777,-157.864 762.958,-146.88 767.317,-137.639"/>
<polygon fill="midnightblue" stroke="midnightblue" points="770.504,-139.087 771.604,-128.55 764.173,-136.101 770.504,-139.087"/>
</g>
<!-- Node23&#45;&gt;Node6 -->
<g id="edge39" class="edge"><title>Node23&#45;&gt;Node6</title>
<path fill="none" stroke="midnightblue" d="M654.805,-220.417C614.095,-194.292 485.749,-111.928 434.673,-79.1504"/>
<polygon fill="midnightblue" stroke="midnightblue" points="436.38,-76.0873 426.073,-73.632 432.599,-81.9785 436.38,-76.0873"/>
</g>
<!-- Node23&#45;&gt;Node21 -->
<g id="edge38" class="edge"><title>Node23&#45;&gt;Node21</title>
<path fill="none" stroke="midnightblue" d="M680.007,-220.45C693.048,-212.123 713.646,-198.97 729.198,-189.039"/>
<polygon fill="midnightblue" stroke="midnightblue" points="731.132,-191.957 737.677,-183.625 727.365,-186.057 731.132,-191.957"/>
</g>
<!-- Node24 -->
<g id="node24" class="node"><title>Node24</title>
<polygon fill="white" stroke="#bfbfbf" points="955.335,-165.5 955.335,-183.5 1007.47,-183.5 1007.47,-165.5 955.335,-165.5"/>
<text text-anchor="middle" x="981.401" y="-171.5" font-family="Helvetica,sans-Serif" font-size="10.00">stdarg.h</text>
</g>
<!-- Node23&#45;&gt;Node24 -->
<g id="edge37" class="edge"><title>Node23&#45;&gt;Node24</title>
<path fill="none" stroke="midnightblue" d="M715.091,-220.45C778.242,-209.791 888.235,-191.226 945.078,-181.631"/>
<polygon fill="midnightblue" stroke="midnightblue" points="945.772,-185.063 955.05,-179.948 944.607,-178.161 945.772,-185.063"/>
</g>
<!-- Node23&#45;&gt;Node25 -->
<g id="edge40" class="edge"><title>Node23&#45;&gt;Node25</title>
<path fill="none" stroke="midnightblue" d="M612.77,-222.778C509.755,-211.988 289.155,-188.881 199.985,-179.541"/>
<polygon fill="midnightblue" stroke="midnightblue" points="200.089,-176.033 189.778,-178.472 199.359,-182.995 200.089,-176.033"/>
</g>
<!-- Node25&#45;&gt;Node6 -->
<g id="edge41" class="edge"><title>Node25&#45;&gt;Node6</title>
<path fill="none" stroke="midnightblue" d="M164.369,-165.399C169.838,-151.674 182.859,-123.982 203.401,-110 244.188,-82.2385 298.95,-71.2894 342.326,-67.1882"/>
<polygon fill="midnightblue" stroke="midnightblue" points="342.855,-70.6562 352.525,-66.3288 342.267,-63.6809 342.855,-70.6562"/>
</g>
<!-- Node25&#45;&gt;Node26 -->
<g id="edge42" class="edge"><title>Node25&#45;&gt;Node26</title>
<path fill="none" stroke="midnightblue" d="M145.302,-165.45C128.181,-156.89 100.86,-143.229 80.8251,-133.212"/>
<polygon fill="midnightblue" stroke="midnightblue" points="82.1615,-129.967 71.652,-128.625 79.031,-136.228 82.1615,-129.967"/>
</g>
<!-- Node26&#45;&gt;Node6 -->
<g id="edge43" class="edge"><title>Node26&#45;&gt;Node6</title>
<path fill="none" stroke="midnightblue" d="M78.1855,-112.777C82.5565,-111.777 87.1087,-110.802 91.4014,-110 177.234,-93.9731 276.936,-81.064 342.388,-73.3583"/>
<polygon fill="midnightblue" stroke="midnightblue" points="343.065,-76.8032 352.592,-72.1666 342.253,-69.8504 343.065,-76.8032"/>
</g>
<!-- Node26&#45;&gt;Node7 -->
<g id="edge45" class="edge"><title>Node26&#45;&gt;Node7</title>
<path fill="none" stroke="midnightblue" d="M71.9371,-110.382C110.014,-91.6901 204.107,-45.4989 249.75,-23.0923"/>
<polygon fill="midnightblue" stroke="midnightblue" points="251.54,-26.1131 258.974,-18.5644 248.455,-19.8294 251.54,-26.1131"/>
</g>
<!-- Node26&#45;&gt;Node14 -->
<g id="edge44" class="edge"><title>Node26&#45;&gt;Node14</title>
<path fill="none" stroke="midnightblue" d="M51.3389,-110.219C47.7308,-102.864 42.3425,-91.8801 37.8092,-82.639"/>
<polygon fill="midnightblue" stroke="midnightblue" points="40.8968,-80.986 33.3502,-73.5496 34.6122,-84.069 40.8968,-80.986"/>
</g>
<!-- Node27&#45;&gt;Node2 -->
<g id="edge48" class="edge"><title>Node27&#45;&gt;Node2</title>
<path fill="none" stroke="midnightblue" d="M507.591,-169.12C567.626,-161.189 698.256,-143.888 808.401,-129 817.378,-127.787 827.084,-126.462 836.092,-125.227"/>
<polygon fill="midnightblue" stroke="midnightblue" points="836.829,-128.659 846.26,-123.831 835.877,-121.724 836.829,-128.659"/>
</g>
<!-- Node27&#45;&gt;Node6 -->
<g id="edge49" class="edge"><title>Node27&#45;&gt;Node6</title>
<path fill="none" stroke="midnightblue" d="M469.816,-165.382C459.925,-147.869 436.4,-106.218 423.062,-82.6045"/>
<polygon fill="midnightblue" stroke="midnightblue" points="426.005,-80.6976 418.039,-73.7118 419.91,-84.1402 426.005,-80.6976"/>
</g>
<!-- Node28&#45;&gt;Node2 -->
<g id="edge57" class="edge"><title>Node28&#45;&gt;Node2</title>
<path fill="none" stroke="midnightblue" d="M1028.47,-220.352C1029.74,-207.053 1030.17,-180.601 1016.4,-165 988.392,-133.273 938.504,-123.813 904.939,-121.185"/>
<polygon fill="midnightblue" stroke="midnightblue" points="904.859,-117.674 894.663,-120.553 904.429,-124.661 904.859,-117.674"/>
</g>
<!-- Node28&#45;&gt;Node6 -->
<g id="edge60" class="edge"><title>Node28&#45;&gt;Node6</title>
<path fill="none" stroke="midnightblue" d="M1030.72,-220.136C1035.2,-207.441 1041.61,-182.896 1032.4,-165 1013.16,-127.605 994.892,-124.464 955.401,-110 870.896,-79.049 611.678,-69.5178 484.824,-66.6684"/>
<polygon fill="midnightblue" stroke="midnightblue" points="484.52,-63.1611 474.447,-66.4436 484.368,-70.1594 484.52,-63.1611"/>
</g>
<!-- Node28&#45;&gt;Node9 -->
<g id="edge59" class="edge"><title>Node28&#45;&gt;Node9</title>
<path fill="none" stroke="midnightblue" d="M1052.01,-220.45C1079.56,-211.436 1124.4,-196.765 1155.32,-186.65"/>
<polygon fill="midnightblue" stroke="midnightblue" points="1156.42,-189.974 1164.83,-183.538 1154.24,-183.321 1156.42,-189.974"/>
</g>
<!-- Node28&#45;&gt;Node21 -->
<g id="edge58" class="edge"><title>Node28&#45;&gt;Node21</title>
<path fill="none" stroke="midnightblue" d="M992.879,-221.895C945.093,-212.752 858.391,-196.162 802.651,-185.497"/>
<polygon fill="midnightblue" stroke="midnightblue" points="803.1,-182.02 792.62,-183.578 801.784,-188.895 803.1,-182.02"/>
</g>
<!-- Node29&#45;&gt;Node6 -->
<g id="edge62" class="edge"><title>Node29&#45;&gt;Node6</title>
<path fill="none" stroke="midnightblue" d="M1343.4,-330.371C1343.4,-312.376 1343.4,-267.812 1343.4,-230.5 1343.4,-230.5 1343.4,-230.5 1343.4,-173.5 1343.4,-87.098 701.85,-69.7184 484.449,-66.3095"/>
<polygon fill="midnightblue" stroke="midnightblue" points="484.473,-62.8095 474.421,-66.1575 484.367,-69.8087 484.473,-62.8095"/>
</g>
<!-- Node30&#45;&gt;Node6 -->
<g id="edge65" class="edge"><title>Node30&#45;&gt;Node6</title>
<path fill="none" stroke="midnightblue" d="M1155.91,-225.396C1194.83,-218.396 1276.06,-199.262 1248.4,-165 1200.62,-105.819 677.3,-77.0542 484.326,-68.4029"/>
<polygon fill="midnightblue" stroke="midnightblue" points="484.434,-64.9044 474.289,-67.9578 484.124,-71.8975 484.434,-64.9044"/>
</g>
<!-- Node30&#45;&gt;Node24 -->
<g id="edge64" class="edge"><title>Node30&#45;&gt;Node24</title>
<path fill="none" stroke="midnightblue" d="M1116.77,-221.788C1091.04,-212.99 1045.55,-197.434 1014.46,-186.805"/>
<polygon fill="midnightblue" stroke="midnightblue" points="1015.51,-183.465 1004.92,-183.541 1013.25,-190.089 1015.51,-183.465"/>
</g>
<!-- Node31&#45;&gt;Node4 -->
<g id="edge71" class="edge"><title>Node31&#45;&gt;Node4</title>
<path fill="none" stroke="midnightblue" d="M718.961,-495.45C697.816,-486.695 663.788,-472.606 639.466,-462.535"/>
<polygon fill="midnightblue" stroke="midnightblue" points="640.603,-459.217 630.025,-458.625 637.925,-465.685 640.603,-459.217"/>
</g>
<!-- Node32 -->
<g id="node32" class="node"><title>Node32</title>
<g id="a_node32"><a xlink:href="$AP__HAL__Linux__Namespace_8h.html" xlink:title="AP_HAL_Linux_Namespace.h">
<polygon fill="white" stroke="black" points="679.86,-440.5 679.86,-458.5 830.943,-458.5 830.943,-440.5 679.86,-440.5"/>
<text text-anchor="middle" x="755.401" y="-446.5" font-family="Helvetica,sans-Serif" font-size="10.00">AP_HAL_Linux_Namespace.h</text>
</a>
</g>
</g>
<!-- Node31&#45;&gt;Node32 -->
<g id="edge72" class="edge"><title>Node31&#45;&gt;Node32</title>
<path fill="none" stroke="midnightblue" d="M741.058,-495.219C743.367,-488.02 746.79,-477.346 749.714,-468.231"/>
<polygon fill="midnightblue" stroke="midnightblue" points="753.098,-469.141 752.819,-458.55 746.432,-467.003 753.098,-469.141"/>
</g>
</g>
</svg>
