<?xml version="1.0" encoding="UTF-8" standalone="no"?>
<!DOCTYPE svg PUBLIC "-//W3C//DTD SVG 1.1//EN"
 "http://www.w3.org/Graphics/SVG/1.1/DTD/svg11.dtd">
<!-- Generated by graphviz version 2.38.0 (20140413.2041)
 -->
<!-- Title: test_gpio_input Pages: 1 -->
<svg width="244pt" height="84pt"
 viewBox="0.00 0.00 244.44 84.00" xmlns="http://www.w3.org/2000/svg" xmlns:xlink="http://www.w3.org/1999/xlink">
<g id="graph0" class="graph" transform="scale(1 1) rotate(0) translate(4 80)">
<title>test_gpio_input</title>
<polygon fill="white" stroke="none" points="-4,4 -4,-80 240.438,-80 240.438,4 -4,4"/>
<!-- Node1 -->
<g id="node1" class="node"><title>Node1</title>
<polygon fill="#bfbfbf" stroke="black" points="0,-28.5 0,-46.5 83.832,-46.5 83.832,-28.5 0,-28.5"/>
<text text-anchor="middle" x="41.916" y="-34.5" font-family="Helvetica,sans-Serif" font-size="10.00">test_gpio_input</text>
</g>
<!-- Node2 -->
<g id="node2" class="node"><title>Node2</title>
<g id="a_node2"><a xlink:href="$classMenuCommands.html#ab97bad97421a00be4e3cbeac2025ad26" xlink:title="MenuCommands::gpio\l_input">
<polygon fill="white" stroke="black" points="119.832,-47.5 119.832,-75.5 236.438,-75.5 236.438,-47.5 119.832,-47.5"/>
<text text-anchor="start" x="127.832" y="-63.5" font-family="Helvetica,sans-Serif" font-size="10.00">MenuCommands::gpio</text>
<text text-anchor="middle" x="178.135" y="-53.5" font-family="Helvetica,sans-Serif" font-size="10.00">_input</text>
</a>
</g>
</g>
<!-- Node1&#45;&gt;Node2 -->
<g id="edge1" class="edge"><title>Node1&#45;&gt;Node2</title>
<path fill="none" stroke="midnightblue" d="M93.9289,-46.6217C102.314,-48.1212 111.056,-49.6843 119.587,-51.2098"/>
<polygon fill="midnightblue" stroke="midnightblue" points="94.3753,-43.1461 83.9154,-44.8312 93.1431,-50.0368 94.3753,-43.1461"/>
</g>
<!-- Node3 -->
<g id="node3" class="node"><title>Node3</title>
<g id="a_node3"><a xlink:href="$classMenuCommands.html#af2f117fe69798ce05ef750b9ab49ef41" xlink:title="MenuCommands::gpio\l_input_channel">
<polygon fill="white" stroke="black" points="119.832,-0.5 119.832,-28.5 236.438,-28.5 236.438,-0.5 119.832,-0.5"/>
<text text-anchor="start" x="127.832" y="-16.5" font-family="Helvetica,sans-Serif" font-size="10.00">MenuCommands::gpio</text>
<text text-anchor="middle" x="178.135" y="-6.5" font-family="Helvetica,sans-Serif" font-size="10.00">_input_channel</text>
</a>
</g>
</g>
<!-- Node1&#45;&gt;Node3 -->
<g id="edge2" class="edge"><title>Node1&#45;&gt;Node3</title>
<path fill="none" stroke="midnightblue" d="M93.9289,-28.7583C102.314,-27.3214 111.056,-25.8234 119.587,-24.3615"/>
<polygon fill="midnightblue" stroke="midnightblue" points="93.1805,-25.3355 83.9154,-30.4743 94.3629,-32.2349 93.1805,-25.3355"/>
</g>
</g>
</svg>
