<?xml version="1.0" encoding="UTF-8" standalone="no"?>
<!DOCTYPE svg PUBLIC "-//W3C//DTD SVG 1.1//EN"
 "http://www.w3.org/Graphics/SVG/1.1/DTD/svg11.dtd">
<!-- Generated by graphviz version 2.38.0 (20140413.2041)
 -->
<!-- Title: libraries/AP_HAL_Linux/GPIO_BBB.cpp Pages: 1 -->
<svg width="1902pt" height="752pt"
 viewBox="0.00 0.00 1902.12 752.00" xmlns="http://www.w3.org/2000/svg" xmlns:xlink="http://www.w3.org/1999/xlink">
<g id="graph0" class="graph" transform="scale(1 1) rotate(0) translate(4 748)">
<title>libraries/AP_HAL_Linux/GPIO_BBB.cpp</title>
<polygon fill="white" stroke="none" points="-4,4 -4,-748 1898.12,-748 1898.12,4 -4,4"/>
<!-- Node1 -->
<g id="node1" class="node"><title>Node1</title>
<polygon fill="#bfbfbf" stroke="black" points="1458.19,-715.5 1458.19,-743.5 1579.81,-743.5 1579.81,-715.5 1458.19,-715.5"/>
<text text-anchor="start" x="1466.19" y="-731.5" font-family="Helvetica,sans-Serif" font-size="10.00">libraries/AP_HAL_Linux</text>
<text text-anchor="middle" x="1519" y="-721.5" font-family="Helvetica,sans-Serif" font-size="10.00">/GPIO_BBB.cpp</text>
</g>
<!-- Node2 -->
<g id="node2" class="node"><title>Node2</title>
<g id="a_node2"><a xlink:href="$AP__HAL_8h.html" xlink:title="AP_HAL/AP_HAL.h">
<polygon fill="white" stroke="black" points="634.086,-440.5 634.086,-458.5 737.914,-458.5 737.914,-440.5 634.086,-440.5"/>
<text text-anchor="middle" x="686" y="-446.5" font-family="Helvetica,sans-Serif" font-size="10.00">AP_HAL/AP_HAL.h</text>
</a>
</g>
</g>
<!-- Node1&#45;&gt;Node2 -->
<g id="edge1" class="edge"><title>Node1&#45;&gt;Node2</title>
<path fill="none" stroke="midnightblue" d="M1458.04,-726.601C1266.59,-719.837 690,-693.03 690,-615.5 690,-615.5 690,-615.5 690,-558.5 690,-526.996 688.279,-490.358 687.095,-468.873"/>
<polygon fill="midnightblue" stroke="midnightblue" points="690.574,-468.408 686.507,-458.625 683.586,-468.809 690.574,-468.408"/>
</g>
<!-- Node6 -->
<g id="node6" class="node"><title>Node6</title>
<polygon fill="white" stroke="#bfbfbf" points="1264.6,-0.5 1264.6,-18.5 1313.4,-18.5 1313.4,-0.5 1264.6,-0.5"/>
<text text-anchor="middle" x="1289" y="-6.5" font-family="Helvetica,sans-Serif" font-size="10.00">string.h</text>
</g>
<!-- Node1&#45;&gt;Node6 -->
<g id="edge78" class="edge"><title>Node1&#45;&gt;Node6</title>
<path fill="none" stroke="midnightblue" d="M1476.3,-715.395C1457.27,-707.59 1436.04,-695.847 1422,-679 1403.14,-656.371 1403,-644.958 1403,-615.5 1403,-615.5 1403,-615.5 1403,-118.5 1403,-89.0415 1403.24,-77.3069 1384,-55 1368.33,-36.831 1343.63,-25.5772 1323.34,-18.9329"/>
<polygon fill="midnightblue" stroke="midnightblue" points="1324.09,-15.5018 1313.5,-15.9489 1322.06,-22.2005 1324.09,-15.5018"/>
</g>
<!-- Node21 -->
<g id="node21" class="node"><title>Node21</title>
<polygon fill="white" stroke="#bfbfbf" points="351.158,-110.5 351.158,-128.5 398.842,-128.5 398.842,-110.5 351.158,-110.5"/>
<text text-anchor="middle" x="375" y="-116.5" font-family="Helvetica,sans-Serif" font-size="10.00">stdlib.h</text>
</g>
<!-- Node1&#45;&gt;Node21 -->
<g id="edge77" class="edge"><title>Node1&#45;&gt;Node21</title>
<path fill="none" stroke="midnightblue" d="M1458.04,-727.213C1174.7,-720.837 0,-689.916 0,-615.5 0,-615.5 0,-615.5 0,-338.5 0,-181.513 248.669,-135.642 341.014,-124.02"/>
<polygon fill="midnightblue" stroke="midnightblue" points="341.46,-127.491 350.972,-122.824 340.626,-120.541 341.46,-127.491"/>
</g>
<!-- Node30 -->
<g id="node30" class="node"><title>Node30</title>
<g id="a_node30"><a xlink:href="$Linux_2GPIO_8h.html" xlink:title="GPIO.h">
<polygon fill="white" stroke="black" points="868.328,-660.5 868.328,-678.5 917.672,-678.5 917.672,-660.5 868.328,-660.5"/>
<text text-anchor="middle" x="893" y="-666.5" font-family="Helvetica,sans-Serif" font-size="10.00">GPIO.h</text>
</a>
</g>
</g>
<!-- Node1&#45;&gt;Node30 -->
<g id="edge68" class="edge"><title>Node1&#45;&gt;Node30</title>
<path fill="none" stroke="midnightblue" d="M1458.12,-722.86C1328.74,-710.872 1029.91,-683.185 927.881,-673.732"/>
<polygon fill="midnightblue" stroke="midnightblue" points="928.084,-670.236 917.804,-672.798 927.438,-677.206 928.084,-670.236"/>
</g>
<!-- Node35 -->
<g id="node35" class="node"><title>Node35</title>
<polygon fill="white" stroke="#bfbfbf" points="1431.27,-660.5 1431.27,-678.5 1476.73,-678.5 1476.73,-660.5 1431.27,-660.5"/>
<text text-anchor="middle" x="1454" y="-666.5" font-family="Helvetica,sans-Serif" font-size="10.00">stdio.h</text>
</g>
<!-- Node1&#45;&gt;Node35 -->
<g id="edge76" class="edge"><title>Node1&#45;&gt;Node35</title>
<path fill="none" stroke="midnightblue" d="M1504.25,-715.339C1494.32,-706.478 1481.2,-694.77 1470.86,-685.541"/>
<polygon fill="midnightblue" stroke="midnightblue" points="1473.06,-682.818 1463.27,-678.771 1468.4,-688.041 1473.06,-682.818"/>
</g>
<!-- Node36 -->
<g id="node36" class="node"><title>Node36</title>
<polygon fill="white" stroke="#bfbfbf" points="1495.16,-660.5 1495.16,-678.5 1542.84,-678.5 1542.84,-660.5 1495.16,-660.5"/>
<text text-anchor="middle" x="1519" y="-666.5" font-family="Helvetica,sans-Serif" font-size="10.00">errno.h</text>
</g>
<!-- Node1&#45;&gt;Node36 -->
<g id="edge79" class="edge"><title>Node1&#45;&gt;Node36</title>
<path fill="none" stroke="midnightblue" d="M1519,-715.339C1519,-707.531 1519,-697.512 1519,-688.927"/>
<polygon fill="midnightblue" stroke="midnightblue" points="1522.5,-688.771 1519,-678.771 1515.5,-688.772 1522.5,-688.771"/>
</g>
<!-- Node37 -->
<g id="node37" class="node"><title>Node37</title>
<polygon fill="white" stroke="#bfbfbf" points="1560.49,-660.5 1560.49,-678.5 1611.51,-678.5 1611.51,-660.5 1560.49,-660.5"/>
<text text-anchor="middle" x="1586" y="-666.5" font-family="Helvetica,sans-Serif" font-size="10.00">unistd.h</text>
</g>
<!-- Node1&#45;&gt;Node37 -->
<g id="edge80" class="edge"><title>Node1&#45;&gt;Node37</title>
<path fill="none" stroke="midnightblue" d="M1534.2,-715.339C1544.44,-706.478 1557.96,-694.77 1568.63,-685.541"/>
<polygon fill="midnightblue" stroke="midnightblue" points="1571.18,-687.963 1576.45,-678.771 1566.59,-682.67 1571.18,-687.963"/>
</g>
<!-- Node38 -->
<g id="node38" class="node"><title>Node38</title>
<polygon fill="white" stroke="#bfbfbf" points="1629.66,-660.5 1629.66,-678.5 1672.34,-678.5 1672.34,-660.5 1629.66,-660.5"/>
<text text-anchor="middle" x="1651" y="-666.5" font-family="Helvetica,sans-Serif" font-size="10.00">fcntl.h</text>
</g>
<!-- Node1&#45;&gt;Node38 -->
<g id="edge81" class="edge"><title>Node1&#45;&gt;Node38</title>
<path fill="none" stroke="midnightblue" d="M1548.62,-715.484C1570.9,-705.694 1601.23,-692.371 1623.08,-682.768"/>
<polygon fill="midnightblue" stroke="midnightblue" points="1624.72,-685.871 1632.47,-678.643 1621.9,-679.462 1624.72,-685.871"/>
</g>
<!-- Node39 -->
<g id="node39" class="node"><title>Node39</title>
<polygon fill="white" stroke="#bfbfbf" points="1690.05,-660.5 1690.05,-678.5 1729.95,-678.5 1729.95,-660.5 1690.05,-660.5"/>
<text text-anchor="middle" x="1710" y="-666.5" font-family="Helvetica,sans-Serif" font-size="10.00">poll.h</text>
</g>
<!-- Node1&#45;&gt;Node39 -->
<g id="edge82" class="edge"><title>Node1&#45;&gt;Node39</title>
<path fill="none" stroke="midnightblue" d="M1561.86,-715.484C1597.79,-704.574 1648.17,-689.275 1679.94,-679.628"/>
<polygon fill="midnightblue" stroke="midnightblue" points="1681.01,-682.962 1689.56,-676.707 1678.97,-676.264 1681.01,-682.962"/>
</g>
<!-- Node40 -->
<g id="node40" class="node"><title>Node40</title>
<polygon fill="white" stroke="#bfbfbf" points="1748.05,-660.5 1748.05,-678.5 1817.95,-678.5 1817.95,-660.5 1748.05,-660.5"/>
<text text-anchor="middle" x="1783" y="-666.5" font-family="Helvetica,sans-Serif" font-size="10.00">sys/mman.h</text>
</g>
<!-- Node1&#45;&gt;Node40 -->
<g id="edge83" class="edge"><title>Node1&#45;&gt;Node40</title>
<path fill="none" stroke="midnightblue" d="M1578.25,-715.484C1626.62,-704.856 1693.96,-690.062 1738,-680.387"/>
<polygon fill="midnightblue" stroke="midnightblue" points="1738.83,-683.788 1747.85,-678.223 1737.33,-676.951 1738.83,-683.788"/>
</g>
<!-- Node41 -->
<g id="node41" class="node"><title>Node41</title>
<polygon fill="white" stroke="#bfbfbf" points="1835.88,-660.5 1835.88,-678.5 1894.12,-678.5 1894.12,-660.5 1835.88,-660.5"/>
<text text-anchor="middle" x="1865" y="-666.5" font-family="Helvetica,sans-Serif" font-size="10.00">sys/stat.h</text>
</g>
<!-- Node1&#45;&gt;Node41 -->
<g id="edge84" class="edge"><title>Node1&#45;&gt;Node41</title>
<path fill="none" stroke="midnightblue" d="M1579.97,-719.817C1640.05,-711.007 1734.69,-696.459 1825.65,-679.167"/>
<polygon fill="midnightblue" stroke="midnightblue" points="1826.42,-682.585 1835.58,-677.266 1825.1,-675.71 1826.42,-682.585"/>
</g>
<!-- Node3 -->
<g id="node3" class="node"><title>Node3</title>
<polygon fill="white" stroke="#bfbfbf" points="482.879,-110.5 482.879,-128.5 531.121,-128.5 531.121,-110.5 482.879,-110.5"/>
<text text-anchor="middle" x="507" y="-116.5" font-family="Helvetica,sans-Serif" font-size="10.00">stdint.h</text>
</g>
<!-- Node2&#45;&gt;Node3 -->
<g id="edge2" class="edge"><title>Node2&#45;&gt;Node3</title>
<path fill="none" stroke="midnightblue" d="M717.146,-440.455C778.695,-423.64 910,-382.81 910,-340.5 910,-340.5 910,-340.5 910,-283.5 910,-230.564 935.199,-202.663 898,-165 873.12,-139.81 632.164,-126.237 541.375,-121.984"/>
<polygon fill="midnightblue" stroke="midnightblue" points="541.47,-118.485 531.32,-121.523 541.149,-125.477 541.47,-118.485"/>
</g>
<!-- Node4 -->
<g id="node4" class="node"><title>Node4</title>
<polygon fill="white" stroke="#bfbfbf" points="809.707,-110.5 809.707,-128.5 866.293,-128.5 866.293,-110.5 809.707,-110.5"/>
<text text-anchor="middle" x="838" y="-116.5" font-family="Helvetica,sans-Serif" font-size="10.00">stdbool.h</text>
</g>
<!-- Node2&#45;&gt;Node4 -->
<g id="edge3" class="edge"><title>Node2&#45;&gt;Node4</title>
<path fill="none" stroke="midnightblue" d="M738.086,-441.118C814.856,-430.136 951.746,-410.131 974,-404 1046.57,-384.009 1131,-415.769 1131,-340.5 1131,-340.5 1131,-340.5 1131,-283.5 1131,-226.508 1128.19,-198.388 1082,-165 1049.82,-141.738 937.37,-128.897 877.007,-123.535"/>
<polygon fill="midnightblue" stroke="midnightblue" points="876.99,-120.021 866.726,-122.65 876.389,-126.995 876.99,-120.021"/>
</g>
<!-- Node5 -->
<g id="node5" class="node"><title>Node5</title>
<g id="a_node5"><a xlink:href="$AP__HAL__Namespace_8h.html" xlink:title="AP_HAL_Namespace.h">
<polygon fill="white" stroke="black" points="498.192,-55.5 498.192,-73.5 619.808,-73.5 619.808,-55.5 498.192,-55.5"/>
<text text-anchor="middle" x="559" y="-61.5" font-family="Helvetica,sans-Serif" font-size="10.00">AP_HAL_Namespace.h</text>
</a>
</g>
</g>
<!-- Node2&#45;&gt;Node5 -->
<g id="edge4" class="edge"><title>Node2&#45;&gt;Node5</title>
<path fill="none" stroke="midnightblue" d="M738.009,-440.927C740.709,-440.598 743.385,-440.287 746,-440 848.585,-428.757 1112.94,-441.728 1209,-404 1251.25,-387.404 1289,-385.895 1289,-340.5 1289,-340.5 1289,-340.5 1289,-228.5 1289,-166.408 1271.53,-135.69 1215,-110 1162.82,-86.2861 788.752,-72.3915 629.975,-67.5048"/>
<polygon fill="midnightblue" stroke="midnightblue" points="629.936,-64.002 619.834,-67.1959 629.722,-70.9988 629.936,-64.002"/>
</g>
<!-- Node8 -->
<g id="node8" class="node"><title>Node8</title>
<g id="a_node8"><a xlink:href="$AP__HAL__Boards_8h.html" xlink:title="AP_HAL_Boards.h">
<polygon fill="white" stroke="black" points="587.03,-165.5 587.03,-183.5 686.97,-183.5 686.97,-165.5 587.03,-165.5"/>
<text text-anchor="middle" x="637" y="-171.5" font-family="Helvetica,sans-Serif" font-size="10.00">AP_HAL_Boards.h</text>
</a>
</g>
</g>
<!-- Node2&#45;&gt;Node8 -->
<g id="edge7" class="edge"><title>Node2&#45;&gt;Node8</title>
<path fill="none" stroke="midnightblue" d="M686,-440.371C686,-422.376 686,-377.812 686,-340.5 686,-340.5 686,-340.5 686,-283.5 686,-248.326 664.179,-212.002 649.661,-191.727"/>
<polygon fill="midnightblue" stroke="midnightblue" points="652.389,-189.531 643.608,-183.602 646.776,-193.712 652.389,-189.531"/>
</g>
<!-- Node9 -->
<g id="node9" class="node"><title>Node9</title>
<g id="a_node9"><a xlink:href="$AP__HAL__Macros_8h.html" xlink:title="AP_HAL_Macros.h">
<polygon fill="white" stroke="black" points="328.48,-385.5 328.48,-403.5 429.52,-403.5 429.52,-385.5 328.48,-385.5"/>
<text text-anchor="middle" x="379" y="-391.5" font-family="Helvetica,sans-Serif" font-size="10.00">AP_HAL_Macros.h</text>
</a>
</g>
</g>
<!-- Node2&#45;&gt;Node9 -->
<g id="edge8" class="edge"><title>Node2&#45;&gt;Node9</title>
<path fill="none" stroke="midnightblue" d="M639.373,-440.45C584.781,-431.026 494.385,-415.42 435.763,-405.299"/>
<polygon fill="midnightblue" stroke="midnightblue" points="436.011,-401.791 425.562,-403.538 434.82,-408.689 436.011,-401.791"/>
</g>
<!-- Node10 -->
<g id="node10" class="node"><title>Node10</title>
<g id="a_node10"><a xlink:href="$AP__HAL__Main_8h.html" xlink:title="AP_HAL_Main.h">
<polygon fill="white" stroke="black" points="221.035,-385.5 221.035,-403.5 310.965,-403.5 310.965,-385.5 221.035,-385.5"/>
<text text-anchor="middle" x="266" y="-391.5" font-family="Helvetica,sans-Serif" font-size="10.00">AP_HAL_Main.h</text>
</a>
</g>
</g>
<!-- Node2&#45;&gt;Node10 -->
<g id="edge9" class="edge"><title>Node2&#45;&gt;Node10</title>
<path fill="none" stroke="midnightblue" d="M633.954,-442.826C564.766,-435.141 438.429,-420.62 321.304,-404.285"/>
<polygon fill="midnightblue" stroke="midnightblue" points="321.477,-400.775 311.088,-402.852 320.505,-407.707 321.477,-400.775"/>
</g>
<!-- Node11 -->
<g id="node11" class="node"><title>Node11</title>
<g id="a_node11"><a xlink:href="$HAL_8h.html" xlink:title="HAL.h">
<polygon fill="white" stroke="black" points="296.104,-330.5 296.104,-348.5 339.896,-348.5 339.896,-330.5 296.104,-330.5"/>
<text text-anchor="middle" x="318" y="-336.5" font-family="Helvetica,sans-Serif" font-size="10.00">HAL.h</text>
</a>
</g>
</g>
<!-- Node2&#45;&gt;Node11 -->
<g id="edge67" class="edge"><title>Node2&#45;&gt;Node11</title>
<path fill="none" stroke="midnightblue" d="M635.787,-440.458C594.03,-433.081 533.347,-420.755 482,-404 462.137,-397.518 458.37,-392.832 439,-385 408.908,-372.833 374.08,-360.17 349.538,-351.478"/>
<polygon fill="midnightblue" stroke="midnightblue" points="350.614,-348.147 340.019,-348.123 348.287,-354.749 350.614,-348.147"/>
</g>
<!-- Node12 -->
<g id="node12" class="node"><title>Node12</title>
<g id="a_node12"><a xlink:href="$AnalogIn_8h.html" xlink:title="AnalogIn.h">
<polygon fill="white" stroke="black" points="1159.09,-220.5 1159.09,-238.5 1222.91,-238.5 1222.91,-220.5 1159.09,-220.5"/>
<text text-anchor="middle" x="1191" y="-226.5" font-family="Helvetica,sans-Serif" font-size="10.00">AnalogIn.h</text>
</a>
</g>
</g>
<!-- Node2&#45;&gt;Node12 -->
<g id="edge49" class="edge"><title>Node2&#45;&gt;Node12</title>
<path fill="none" stroke="midnightblue" d="M738.013,-440.967C740.713,-440.627 743.387,-440.303 746,-440 834.435,-429.753 1076.95,-461.408 1145,-404 1191.42,-364.835 1193.82,-284.736 1192.32,-248.736"/>
<polygon fill="midnightblue" stroke="midnightblue" points="1195.81,-248.489 1191.75,-238.705 1188.83,-248.888 1195.81,-248.489"/>
</g>
<!-- Node14 -->
<g id="node14" class="node"><title>Node14</title>
<g id="a_node14"><a xlink:href="$GPIO_8h.html" xlink:title="GPIO.h">
<polygon fill="white" stroke="black" points="532.328,-220.5 532.328,-238.5 581.672,-238.5 581.672,-220.5 532.328,-220.5"/>
<text text-anchor="middle" x="557" y="-226.5" font-family="Helvetica,sans-Serif" font-size="10.00">GPIO.h</text>
</a>
</g>
</g>
<!-- Node2&#45;&gt;Node14 -->
<g id="edge51" class="edge"><title>Node2&#45;&gt;Node14</title>
<path fill="none" stroke="midnightblue" d="M683.501,-440.436C673.436,-408.098 635.881,-288.885 625,-275 614.394,-261.466 598.474,-250.732 584.704,-243.2"/>
<polygon fill="midnightblue" stroke="midnightblue" points="586.098,-239.981 575.606,-238.502 582.886,-246.201 586.098,-239.981"/>
</g>
<!-- Node15 -->
<g id="node15" class="node"><title>Node15</title>
<g id="a_node15"><a xlink:href="$RCInput_8h.html" xlink:title="RCInput.h">
<polygon fill="white" stroke="black" points="28.4878,-275.5 28.4878,-293.5 89.5122,-293.5 89.5122,-275.5 28.4878,-275.5"/>
<text text-anchor="middle" x="59" y="-281.5" font-family="Helvetica,sans-Serif" font-size="10.00">RCInput.h</text>
</a>
</g>
</g>
<!-- Node2&#45;&gt;Node15 -->
<g id="edge52" class="edge"><title>Node2&#45;&gt;Node15</title>
<path fill="none" stroke="midnightblue" d="M633.738,-448.462C520.477,-447.657 256.134,-441.667 176,-404 127.53,-381.217 87.9426,-329.355 69.7633,-302.429"/>
<polygon fill="midnightblue" stroke="midnightblue" points="72.4713,-300.177 64.0575,-293.738 66.6195,-304.018 72.4713,-300.177"/>
</g>
<!-- Node16 -->
<g id="node16" class="node"><title>Node16</title>
<g id="a_node16"><a xlink:href="$RCOutput_8h.html" xlink:title="RCOutput.h">
<polygon fill="white" stroke="black" points="107.599,-275.5 107.599,-293.5 176.401,-293.5 176.401,-275.5 107.599,-275.5"/>
<text text-anchor="middle" x="142" y="-281.5" font-family="Helvetica,sans-Serif" font-size="10.00">RCOutput.h</text>
</a>
</g>
</g>
<!-- Node2&#45;&gt;Node16 -->
<g id="edge53" class="edge"><title>Node2&#45;&gt;Node16</title>
<path fill="none" stroke="midnightblue" d="M633.841,-446.647C515.291,-442.025 233.123,-428.555 198,-404 164.059,-380.271 150.074,-330.388 144.824,-303.532"/>
<polygon fill="midnightblue" stroke="midnightblue" points="148.253,-302.82 143.077,-293.576 141.358,-304.03 148.253,-302.82"/>
</g>
<!-- Node17 -->
<g id="node17" class="node"><title>Node17</title>
<g id="a_node17"><a xlink:href="$SPIDriver_8h.html" xlink:title="SPIDriver.h">
<polygon fill="white" stroke="black" points="194.712,-275.5 194.712,-293.5 261.288,-293.5 261.288,-275.5 194.712,-275.5"/>
<text text-anchor="middle" x="228" y="-281.5" font-family="Helvetica,sans-Serif" font-size="10.00">SPIDriver.h</text>
</a>
</g>
</g>
<!-- Node2&#45;&gt;Node17 -->
<g id="edge48" class="edge"><title>Node2&#45;&gt;Node17</title>
<path fill="none" stroke="midnightblue" d="M634.074,-447.484C516.91,-444.653 239.997,-434.749 212,-404 186.583,-376.085 205.352,-328.03 218.356,-302.536"/>
<polygon fill="midnightblue" stroke="midnightblue" points="221.466,-304.143 223.112,-293.677 215.298,-300.832 221.466,-304.143"/>
</g>
<!-- Node18 -->
<g id="node18" class="node"><title>Node18</title>
<g id="a_node18"><a xlink:href="$Storage_8h.html" xlink:title="Storage.h">
<polygon fill="white" stroke="black" points="317.318,-275.5 317.318,-293.5 376.682,-293.5 376.682,-275.5 317.318,-275.5"/>
<text text-anchor="middle" x="347" y="-281.5" font-family="Helvetica,sans-Serif" font-size="10.00">Storage.h</text>
</a>
</g>
</g>
<!-- Node2&#45;&gt;Node18 -->
<g id="edge50" class="edge"><title>Node2&#45;&gt;Node18</title>
<path fill="none" stroke="midnightblue" d="M647.782,-440.452C616.391,-433.108 571.203,-420.829 534,-404 468.061,-374.172 397.954,-324.113 365.484,-299.722"/>
<polygon fill="midnightblue" stroke="midnightblue" points="367.441,-296.814 357.358,-293.561 363.212,-302.392 367.441,-296.814"/>
</g>
<!-- Node19 -->
<g id="node19" class="node"><title>Node19</title>
<g id="a_node19"><a xlink:href="$UARTDriver_8h.html" xlink:title="UARTDriver.h">
<polygon fill="white" stroke="black" points="538.248,-275.5 538.248,-293.5 615.752,-293.5 615.752,-275.5 538.248,-275.5"/>
<text text-anchor="middle" x="577" y="-281.5" font-family="Helvetica,sans-Serif" font-size="10.00">UARTDriver.h</text>
</a>
</g>
</g>
<!-- Node2&#45;&gt;Node19 -->
<g id="edge44" class="edge"><title>Node2&#45;&gt;Node19</title>
<path fill="none" stroke="midnightblue" d="M674.005,-440.471C662.571,-432.344 645.446,-418.881 634,-404 609.377,-371.988 591.566,-327.631 582.91,-303.278"/>
<polygon fill="midnightblue" stroke="midnightblue" points="586.148,-301.93 579.585,-293.612 579.528,-304.207 586.148,-301.93"/>
</g>
<!-- Node22 -->
<g id="node22" class="node"><title>Node22</title>
<g id="a_node22"><a xlink:href="$BetterStream_8h.html" xlink:title="utility/BetterStream.h">
<polygon fill="white" stroke="black" points="937.594,-220.5 937.594,-238.5 1046.41,-238.5 1046.41,-220.5 937.594,-220.5"/>
<text text-anchor="middle" x="992" y="-226.5" font-family="Helvetica,sans-Serif" font-size="10.00">utility/BetterStream.h</text>
</a>
</g>
</g>
<!-- Node2&#45;&gt;Node22 -->
<g id="edge66" class="edge"><title>Node2&#45;&gt;Node22</title>
<path fill="none" stroke="midnightblue" d="M735.675,-440.471C803.28,-429.362 916.752,-409.995 924,-404 972.38,-363.985 986.486,-284.935 990.481,-249.027"/>
<polygon fill="midnightblue" stroke="midnightblue" points="994.008,-248.911 991.482,-238.622 987.04,-248.24 994.008,-248.911"/>
</g>
<!-- Node24 -->
<g id="node24" class="node"><title>Node24</title>
<g id="a_node24"><a xlink:href="$Stream_8h.html" xlink:title="Stream.h">
<polygon fill="white" stroke="black" points="1204.71,-165.5 1204.71,-183.5 1261.29,-183.5 1261.29,-165.5 1204.71,-165.5"/>
<text text-anchor="middle" x="1233" y="-171.5" font-family="Helvetica,sans-Serif" font-size="10.00">Stream.h</text>
</a>
</g>
</g>
<!-- Node2&#45;&gt;Node24 -->
<g id="edge65" class="edge"><title>Node2&#45;&gt;Node24</title>
<path fill="none" stroke="midnightblue" d="M738.011,-440.951C740.711,-440.616 743.387,-440.296 746,-440 839.519,-429.395 1080.22,-437.954 1168,-404 1211.32,-387.244 1251,-386.947 1251,-340.5 1251,-340.5 1251,-340.5 1251,-283.5 1251,-251.436 1243.18,-214.736 1237.85,-193.431"/>
<polygon fill="midnightblue" stroke="midnightblue" points="1241.19,-192.347 1235.28,-183.552 1234.41,-194.112 1241.19,-192.347"/>
</g>
<!-- Node25 -->
<g id="node25" class="node"><title>Node25</title>
<g id="a_node25"><a xlink:href="$Print_8h.html" xlink:title="Print.h">
<polygon fill="white" stroke="black" points="1292.55,-110.5 1292.55,-128.5 1337.45,-128.5 1337.45,-110.5 1292.55,-110.5"/>
<text text-anchor="middle" x="1315" y="-116.5" font-family="Helvetica,sans-Serif" font-size="10.00">Print.h</text>
</a>
</g>
</g>
<!-- Node2&#45;&gt;Node25 -->
<g id="edge64" class="edge"><title>Node2&#45;&gt;Node25</title>
<path fill="none" stroke="midnightblue" d="M738.004,-440.886C740.706,-440.567 743.384,-440.269 746,-440 807.692,-433.646 1253.14,-440.887 1303,-404 1327.25,-386.055 1327,-370.671 1327,-340.5 1327,-340.5 1327,-340.5 1327,-228.5 1327,-196.677 1321.79,-159.901 1318.24,-138.516"/>
<polygon fill="midnightblue" stroke="midnightblue" points="1321.67,-137.852 1316.52,-128.595 1314.78,-139.045 1321.67,-137.852"/>
</g>
<!-- Node26 -->
<g id="node26" class="node"><title>Node26</title>
<g id="a_node26"><a xlink:href="$I2CDriver_8h.html" xlink:title="I2CDriver.h">
<polygon fill="white" stroke="black" points="312.99,-165.5 312.99,-183.5 379.01,-183.5 379.01,-165.5 312.99,-165.5"/>
<text text-anchor="middle" x="346" y="-171.5" font-family="Helvetica,sans-Serif" font-size="10.00">I2CDriver.h</text>
</a>
</g>
</g>
<!-- Node2&#45;&gt;Node26 -->
<g id="edge45" class="edge"><title>Node2&#45;&gt;Node26</title>
<path fill="none" stroke="midnightblue" d="M670.882,-440.423C656.301,-432.259 634.002,-418.77 617,-404 584.174,-375.483 584.832,-359.622 553,-330 490.393,-271.739 406.187,-214.539 367.308,-189.153"/>
<polygon fill="midnightblue" stroke="midnightblue" points="369.16,-186.183 358.866,-183.677 365.35,-192.055 369.16,-186.183"/>
</g>
<!-- Node27 -->
<g id="node27" class="node"><title>Node27</title>
<g id="a_node27"><a xlink:href="$Scheduler_8h.html" xlink:title="Scheduler.h">
<polygon fill="white" stroke="black" points="713.589,-220.5 713.589,-238.5 782.411,-238.5 782.411,-220.5 713.589,-220.5"/>
<text text-anchor="middle" x="748" y="-226.5" font-family="Helvetica,sans-Serif" font-size="10.00">Scheduler.h</text>
</a>
</g>
</g>
<!-- Node2&#45;&gt;Node27 -->
<g id="edge54" class="edge"><title>Node2&#45;&gt;Node27</title>
<path fill="none" stroke="midnightblue" d="M688.666,-440.324C691.549,-431.418 696.236,-416.738 700,-404 716.645,-347.677 734.718,-280.552 743.153,-248.834"/>
<polygon fill="midnightblue" stroke="midnightblue" points="746.624,-249.399 745.804,-238.836 739.858,-247.605 746.624,-249.399"/>
</g>
<!-- Node28 -->
<g id="node28" class="node"><title>Node28</title>
<g id="a_node28"><a xlink:href="$Semaphores_8h.html" xlink:title="Semaphores.h">
<polygon fill="white" stroke="black" points="462.48,-330.5 462.48,-348.5 543.52,-348.5 543.52,-330.5 462.48,-330.5"/>
<text text-anchor="middle" x="503" y="-336.5" font-family="Helvetica,sans-Serif" font-size="10.00">Semaphores.h</text>
</a>
</g>
</g>
<!-- Node2&#45;&gt;Node28 -->
<g id="edge59" class="edge"><title>Node2&#45;&gt;Node28</title>
<path fill="none" stroke="midnightblue" d="M646.613,-440.465C619.969,-433.727 584.873,-422.219 558,-404 539.581,-391.512 523.58,-371.353 513.658,-357.103"/>
<polygon fill="midnightblue" stroke="midnightblue" points="516.524,-355.093 508.051,-348.732 510.708,-358.989 516.524,-355.093"/>
</g>
<!-- Node29 -->
<g id="node29" class="node"><title>Node29</title>
<g id="a_node29"><a xlink:href="$Util_8h.html" xlink:title="Util.h">
<polygon fill="white" stroke="black" points="1064.61,-220.5 1064.61,-238.5 1103.39,-238.5 1103.39,-220.5 1064.61,-220.5"/>
<text text-anchor="middle" x="1084" y="-226.5" font-family="Helvetica,sans-Serif" font-size="10.00">Util.h</text>
</a>
</g>
</g>
<!-- Node2&#45;&gt;Node29 -->
<g id="edge61" class="edge"><title>Node2&#45;&gt;Node29</title>
<path fill="none" stroke="midnightblue" d="M738.081,-440.6C811.638,-429.3 938.069,-409.301 947,-404 1011.88,-365.489 1057.91,-283.807 1075.77,-247.971"/>
<polygon fill="midnightblue" stroke="midnightblue" points="1079.01,-249.309 1080.23,-238.785 1072.72,-246.253 1079.01,-249.309"/>
</g>
<!-- Node5&#45;&gt;Node6 -->
<g id="edge5" class="edge"><title>Node5&#45;&gt;Node6</title>
<path fill="none" stroke="midnightblue" d="M619.984,-59.0724C767.358,-48.3726 1139.19,-21.3765 1254.41,-13.0111"/>
<polygon fill="midnightblue" stroke="midnightblue" points="1254.72,-16.4982 1264.44,-12.2831 1254.21,-9.51653 1254.72,-16.4982"/>
</g>
<!-- Node7 -->
<g id="node7" class="node"><title>Node7</title>
<g id="a_node7"><a xlink:href="$functor_8h.html" xlink:title="utility/functor.h">
<polygon fill="white" stroke="black" points="519.037,-0.5 519.037,-18.5 598.963,-18.5 598.963,-0.5 519.037,-0.5"/>
<text text-anchor="middle" x="559" y="-6.5" font-family="Helvetica,sans-Serif" font-size="10.00">utility/functor.h</text>
</a>
</g>
</g>
<!-- Node5&#45;&gt;Node7 -->
<g id="edge6" class="edge"><title>Node5&#45;&gt;Node7</title>
<path fill="none" stroke="midnightblue" d="M559,-55.2188C559,-48.1769 559,-37.8083 559,-28.8277"/>
<polygon fill="midnightblue" stroke="midnightblue" points="562.5,-28.5495 559,-18.5496 555.5,-28.5496 562.5,-28.5495"/>
</g>
<!-- Node10&#45;&gt;Node11 -->
<g id="edge10" class="edge"><title>Node10&#45;&gt;Node11</title>
<path fill="none" stroke="midnightblue" d="M274.125,-385.219C281.802,-377.394 293.508,-365.463 302.898,-355.892"/>
<polygon fill="midnightblue" stroke="midnightblue" points="305.597,-358.139 310.102,-348.55 300.601,-353.236 305.597,-358.139"/>
</g>
<!-- Node11&#45;&gt;Node5 -->
<g id="edge11" class="edge"><title>Node11&#45;&gt;Node5</title>
<path fill="none" stroke="midnightblue" d="M311.218,-330.271C285.447,-297.982 197.966,-178.371 257,-110 286.169,-76.2174 407.693,-67.6255 487.413,-65.7001"/>
<polygon fill="midnightblue" stroke="midnightblue" points="487.961,-69.1894 497.885,-65.4794 487.814,-62.191 487.961,-69.1894"/>
</g>
<!-- Node11&#45;&gt;Node12 -->
<g id="edge12" class="edge"><title>Node11&#45;&gt;Node12</title>
<path fill="none" stroke="midnightblue" d="M340.017,-335.776C455.694,-321.466 993.743,-254.903 1148.97,-235.699"/>
<polygon fill="midnightblue" stroke="midnightblue" points="1149.56,-239.153 1159.06,-234.452 1148.7,-232.206 1149.56,-239.153"/>
</g>
<!-- Node11&#45;&gt;Node14 -->
<g id="edge15" class="edge"><title>Node11&#45;&gt;Node14</title>
<path fill="none" stroke="midnightblue" d="M335.964,-330.382C377.503,-311.612 480.407,-265.111 529.755,-242.812"/>
<polygon fill="midnightblue" stroke="midnightblue" points="531.482,-245.872 539.154,-238.564 528.6,-239.493 531.482,-245.872"/>
</g>
<!-- Node11&#45;&gt;Node15 -->
<g id="edge18" class="edge"><title>Node11&#45;&gt;Node15</title>
<path fill="none" stroke="midnightblue" d="M295.916,-334.08C258.019,-326.482 177.913,-310.356 99.6035,-294.11"/>
<polygon fill="midnightblue" stroke="midnightblue" points="100.072,-290.632 89.569,-292.025 98.648,-297.486 100.072,-290.632"/>
</g>
<!-- Node11&#45;&gt;Node16 -->
<g id="edge20" class="edge"><title>Node11&#45;&gt;Node16</title>
<path fill="none" stroke="midnightblue" d="M296.065,-331.895C266.711,-323.055 214.245,-307.255 178.789,-296.578"/>
<polygon fill="midnightblue" stroke="midnightblue" points="179.409,-293.11 168.825,-293.578 177.391,-299.813 179.409,-293.11"/>
</g>
<!-- Node11&#45;&gt;Node17 -->
<g id="edge22" class="edge"><title>Node11&#45;&gt;Node17</title>
<path fill="none" stroke="midnightblue" d="M304.331,-330.45C290.058,-322.045 267.437,-308.724 250.52,-298.762"/>
<polygon fill="midnightblue" stroke="midnightblue" points="252.191,-295.684 241.798,-293.625 248.639,-301.716 252.191,-295.684"/>
</g>
<!-- Node11&#45;&gt;Node18 -->
<g id="edge24" class="edge"><title>Node11&#45;&gt;Node18</title>
<path fill="none" stroke="midnightblue" d="M322.531,-330.219C326.598,-322.786 332.694,-311.646 337.783,-302.345"/>
<polygon fill="midnightblue" stroke="midnightblue" points="340.866,-304.002 342.596,-293.55 334.725,-300.642 340.866,-304.002"/>
</g>
<!-- Node11&#45;&gt;Node19 -->
<g id="edge27" class="edge"><title>Node11&#45;&gt;Node19</title>
<path fill="none" stroke="midnightblue" d="M340.082,-333.981C381.426,-325.521 471.417,-307.106 527.819,-295.564"/>
<polygon fill="midnightblue" stroke="midnightblue" points="528.845,-298.927 537.94,-293.493 527.442,-292.069 528.845,-298.927"/>
</g>
<!-- Node12&#45;&gt;Node5 -->
<g id="edge14" class="edge"><title>Node12&#45;&gt;Node5</title>
<path fill="none" stroke="midnightblue" d="M1188.17,-220.258C1183.15,-206.823 1171.46,-180.18 1153,-165 1097.19,-119.098 1070.47,-125.969 1000,-110 871.681,-80.924 718.048,-70.8367 630.155,-67.3435"/>
<polygon fill="midnightblue" stroke="midnightblue" points="630.155,-63.8411 620.029,-66.9588 629.889,-70.8361 630.155,-63.8411"/>
</g>
<!-- Node13 -->
<g id="node13" class="node"><title>Node13</title>
<polygon fill="white" stroke="#bfbfbf" points="1316.6,-55.5 1316.6,-73.5 1375.4,-73.5 1375.4,-55.5 1316.6,-55.5"/>
<text text-anchor="middle" x="1346" y="-61.5" font-family="Helvetica,sans-Serif" font-size="10.00">inttypes.h</text>
</g>
<!-- Node12&#45;&gt;Node13 -->
<g id="edge13" class="edge"><title>Node12&#45;&gt;Node13</title>
<path fill="none" stroke="midnightblue" d="M1218.5,-220.429C1255.65,-207.835 1320.18,-179.549 1346,-129 1353.13,-115.04 1352.34,-96.9981 1350.23,-83.7152"/>
<polygon fill="midnightblue" stroke="midnightblue" points="1353.65,-83.0056 1348.29,-73.871 1346.79,-84.359 1353.65,-83.0056"/>
</g>
<!-- Node14&#45;&gt;Node3 -->
<g id="edge16" class="edge"><title>Node14&#45;&gt;Node3</title>
<path fill="none" stroke="midnightblue" d="M553.242,-220.382C545.17,-202.948 526.023,-161.59 515.066,-137.922"/>
<polygon fill="midnightblue" stroke="midnightblue" points="518.179,-136.316 510.802,-128.712 511.827,-139.257 518.179,-136.316"/>
</g>
<!-- Node14&#45;&gt;Node5 -->
<g id="edge17" class="edge"><title>Node14&#45;&gt;Node5</title>
<path fill="none" stroke="midnightblue" d="M557.102,-220.193C557.411,-195.013 558.342,-119.114 558.775,-83.8621"/>
<polygon fill="midnightblue" stroke="midnightblue" points="562.278,-83.6393 558.901,-73.5971 555.278,-83.5534 562.278,-83.6393"/>
</g>
<!-- Node15&#45;&gt;Node5 -->
<g id="edge19" class="edge"><title>Node15&#45;&gt;Node5</title>
<path fill="none" stroke="midnightblue" d="M60.9587,-275.127C68.1708,-246.365 96.159,-151.114 159,-110 211.572,-75.6043 387.655,-67.5731 487.791,-65.8391"/>
<polygon fill="midnightblue" stroke="midnightblue" points="487.887,-69.3381 497.831,-65.6819 487.777,-62.339 487.887,-69.3381"/>
</g>
<!-- Node16&#45;&gt;Node5 -->
<g id="edge21" class="edge"><title>Node16&#45;&gt;Node5</title>
<path fill="none" stroke="midnightblue" d="M140.772,-275.402C137.054,-247.538 128.986,-154.866 178,-110 200.373,-89.5201 383.86,-75.6523 487.816,-69.3577"/>
<polygon fill="midnightblue" stroke="midnightblue" points="488.154,-72.8438 497.927,-68.7541 487.737,-65.8562 488.154,-72.8438"/>
</g>
<!-- Node17&#45;&gt;Node5 -->
<g id="edge23" class="edge"><title>Node17&#45;&gt;Node5</title>
<path fill="none" stroke="midnightblue" d="M219.29,-275.273C211.22,-266.999 199.767,-253.43 195,-239 177.017,-184.56 156.999,-152.93 195,-110 214.047,-88.4825 387.284,-75.1817 487.745,-69.2106"/>
<polygon fill="midnightblue" stroke="midnightblue" points="488.05,-72.6988 497.829,-68.6213 487.641,-65.7108 488.05,-72.6988"/>
</g>
<!-- Node18&#45;&gt;Node3 -->
<g id="edge25" class="edge"><title>Node18&#45;&gt;Node3</title>
<path fill="none" stroke="midnightblue" d="M355.154,-275.193C380.623,-249.247 458.953,-169.448 492.022,-135.759"/>
<polygon fill="midnightblue" stroke="midnightblue" points="494.545,-138.185 499.052,-128.597 489.549,-133.282 494.545,-138.185"/>
</g>
<!-- Node18&#45;&gt;Node5 -->
<g id="edge26" class="edge"><title>Node18&#45;&gt;Node5</title>
<path fill="none" stroke="midnightblue" d="M337.836,-275.336C309.078,-248.771 225.195,-163.426 271,-110 298.418,-78.0197 412.027,-68.8155 488.094,-66.2882"/>
<polygon fill="midnightblue" stroke="midnightblue" points="488.211,-69.7863 498.102,-65.9867 488.001,-62.7895 488.211,-69.7863"/>
</g>
<!-- Node19&#45;&gt;Node3 -->
<g id="edge28" class="edge"><title>Node19&#45;&gt;Node3</title>
<path fill="none" stroke="midnightblue" d="M561.951,-275.423C549.333,-267.797 531.98,-255.134 523,-239 505.22,-207.055 504.331,-162.982 505.507,-138.586"/>
<polygon fill="midnightblue" stroke="midnightblue" points="509,-138.809 506.163,-128.601 502.015,-138.35 509,-138.809"/>
</g>
<!-- Node19&#45;&gt;Node5 -->
<g id="edge33" class="edge"><title>Node19&#45;&gt;Node5</title>
<path fill="none" stroke="midnightblue" d="M558.885,-275.411C544.062,-267.933 523.562,-255.489 511,-239 479.742,-197.97 482.332,-179.903 474,-129 472.636,-120.666 469.628,-117.224 474,-110 483.445,-94.3948 500.363,-83.9976 516.632,-77.2083"/>
<polygon fill="midnightblue" stroke="midnightblue" points="517.973,-80.4429 526.075,-73.6156 515.484,-73.9004 517.973,-80.4429"/>
</g>
<!-- Node20 -->
<g id="node20" class="node"><title>Node20</title>
<g id="a_node20"><a xlink:href="$AP__Common_8h.html" xlink:title="Common definitions and utility routines for the ArduPilot libraries. ">
<polygon fill="white" stroke="black" points="742.973,-165.5 742.973,-183.5 889.027,-183.5 889.027,-165.5 742.973,-165.5"/>
<text text-anchor="middle" x="816" y="-171.5" font-family="Helvetica,sans-Serif" font-size="10.00">AP_Common/AP_Common.h</text>
</a>
</g>
</g>
<!-- Node19&#45;&gt;Node20 -->
<g id="edge29" class="edge"><title>Node19&#45;&gt;Node20</title>
<path fill="none" stroke="midnightblue" d="M615.932,-279.834C670.225,-273.997 764.959,-260.951 791,-239 804.438,-227.672 810.697,-208.151 813.585,-193.735"/>
<polygon fill="midnightblue" stroke="midnightblue" points="817.095,-193.955 815.25,-183.522 810.186,-192.828 817.095,-193.955"/>
</g>
<!-- Node19&#45;&gt;Node22 -->
<g id="edge34" class="edge"><title>Node19&#45;&gt;Node22</title>
<path fill="none" stroke="midnightblue" d="M616.042,-278.514C687.564,-269.38 840.251,-249.88 927.439,-238.745"/>
<polygon fill="midnightblue" stroke="midnightblue" points="928.003,-242.202 937.479,-237.463 927.116,-235.258 928.003,-242.202"/>
</g>
<!-- Node20&#45;&gt;Node3 -->
<g id="edge30" class="edge"><title>Node20&#45;&gt;Node3</title>
<path fill="none" stroke="midnightblue" d="M769.07,-165.45C706.419,-154.705 596.919,-135.923 541.39,-126.399"/>
<polygon fill="midnightblue" stroke="midnightblue" points="541.801,-122.918 531.354,-124.677 540.618,-129.817 541.801,-122.918"/>
</g>
<!-- Node20&#45;&gt;Node4 -->
<g id="edge32" class="edge"><title>Node20&#45;&gt;Node4</title>
<path fill="none" stroke="midnightblue" d="M819.438,-165.219C822.458,-157.942 826.953,-147.113 830.763,-137.934"/>
<polygon fill="midnightblue" stroke="midnightblue" points="834.057,-139.127 834.659,-128.55 827.592,-136.444 834.057,-139.127"/>
</g>
<!-- Node20&#45;&gt;Node21 -->
<g id="edge31" class="edge"><title>Node20&#45;&gt;Node21</title>
<path fill="none" stroke="midnightblue" d="M749.022,-165.45C653.483,-153.969 481.61,-133.313 408.928,-124.577"/>
<polygon fill="midnightblue" stroke="midnightblue" points="409.291,-121.096 398.945,-123.378 408.456,-128.046 409.291,-121.096"/>
</g>
<!-- Node22&#45;&gt;Node5 -->
<g id="edge37" class="edge"><title>Node22&#45;&gt;Node5</title>
<path fill="none" stroke="midnightblue" d="M990.58,-220.395C988.028,-207.613 981.704,-182.438 969,-165 945.496,-132.738 934.845,-125.353 898,-110 851.008,-90.4191 714.798,-77.1 630.023,-70.4421"/>
<polygon fill="midnightblue" stroke="midnightblue" points="630.19,-66.9446 619.95,-69.6632 629.65,-73.9238 630.19,-66.9446"/>
</g>
<!-- Node22&#45;&gt;Node20 -->
<g id="edge36" class="edge"><title>Node22&#45;&gt;Node20</title>
<path fill="none" stroke="midnightblue" d="M965.269,-220.45C935.203,-211.396 886.195,-196.638 852.59,-186.519"/>
<polygon fill="midnightblue" stroke="midnightblue" points="853.278,-183.07 842.693,-183.538 851.259,-189.773 853.278,-183.07"/>
</g>
<!-- Node23 -->
<g id="node23" class="node"><title>Node23</title>
<polygon fill="white" stroke="#bfbfbf" points="1020.93,-165.5 1020.93,-183.5 1073.07,-183.5 1073.07,-165.5 1020.93,-165.5"/>
<text text-anchor="middle" x="1047" y="-171.5" font-family="Helvetica,sans-Serif" font-size="10.00">stdarg.h</text>
</g>
<!-- Node22&#45;&gt;Node23 -->
<g id="edge35" class="edge"><title>Node22&#45;&gt;Node23</title>
<path fill="none" stroke="midnightblue" d="M1000.59,-220.219C1008.79,-212.316 1021.34,-200.224 1031.32,-190.606"/>
<polygon fill="midnightblue" stroke="midnightblue" points="1033.87,-193.009 1038.65,-183.55 1029.02,-187.968 1033.87,-193.009"/>
</g>
<!-- Node22&#45;&gt;Node24 -->
<g id="edge38" class="edge"><title>Node22&#45;&gt;Node24</title>
<path fill="none" stroke="midnightblue" d="M1028.6,-220.45C1073.41,-210.597 1148.94,-193.987 1194.56,-183.953"/>
<polygon fill="midnightblue" stroke="midnightblue" points="1195.36,-187.362 1204.37,-181.795 1193.86,-180.525 1195.36,-187.362"/>
</g>
<!-- Node24&#45;&gt;Node5 -->
<g id="edge39" class="edge"><title>Node24&#45;&gt;Node5</title>
<path fill="none" stroke="midnightblue" d="M1230.23,-165.091C1225.05,-150.901 1212.46,-122.527 1191,-110 1143.55,-82.3047 785.251,-70.7345 630.178,-66.9886"/>
<polygon fill="midnightblue" stroke="midnightblue" points="629.897,-63.481 619.817,-66.7427 629.731,-70.479 629.897,-63.481"/>
</g>
<!-- Node24&#45;&gt;Node25 -->
<g id="edge40" class="edge"><title>Node24&#45;&gt;Node25</title>
<path fill="none" stroke="midnightblue" d="M1245.45,-165.45C1258.22,-157.201 1278.31,-144.216 1293.62,-134.319"/>
<polygon fill="midnightblue" stroke="midnightblue" points="1295.93,-136.993 1302.43,-128.625 1292.13,-131.114 1295.93,-136.993"/>
</g>
<!-- Node25&#45;&gt;Node5 -->
<g id="edge41" class="edge"><title>Node25&#45;&gt;Node5</title>
<path fill="none" stroke="midnightblue" d="M1292.26,-112.514C1287.88,-111.538 1283.32,-110.639 1279,-110 1043.18,-75.1315 759.992,-67.5134 630.248,-65.8992"/>
<polygon fill="midnightblue" stroke="midnightblue" points="630.089,-62.3972 620.049,-65.7809 630.007,-69.3967 630.089,-62.3972"/>
</g>
<!-- Node25&#45;&gt;Node6 -->
<g id="edge43" class="edge"><title>Node25&#45;&gt;Node6</title>
<path fill="none" stroke="midnightblue" d="M1313.05,-110.382C1308.89,-93.104 1299.07,-52.3294 1293.35,-28.5629"/>
<polygon fill="midnightblue" stroke="midnightblue" points="1296.72,-27.6148 1290.98,-18.7118 1289.91,-29.2532 1296.72,-27.6148"/>
</g>
<!-- Node25&#45;&gt;Node13 -->
<g id="edge42" class="edge"><title>Node25&#45;&gt;Node13</title>
<path fill="none" stroke="midnightblue" d="M1319.84,-110.219C1324.19,-102.786 1330.71,-91.646 1336.15,-82.3446"/>
<polygon fill="midnightblue" stroke="midnightblue" points="1339.26,-83.9486 1341.29,-73.5496 1333.22,-80.4143 1339.26,-83.9486"/>
</g>
<!-- Node26&#45;&gt;Node3 -->
<g id="edge46" class="edge"><title>Node26&#45;&gt;Node3</title>
<path fill="none" stroke="midnightblue" d="M370.452,-165.45C397.798,-156.449 442.273,-141.808 472.997,-131.693"/>
<polygon fill="midnightblue" stroke="midnightblue" points="474.441,-134.903 482.845,-128.452 472.252,-128.254 474.441,-134.903"/>
</g>
<!-- Node26&#45;&gt;Node5 -->
<g id="edge47" class="edge"><title>Node26&#45;&gt;Node5</title>
<path fill="none" stroke="midnightblue" d="M342.353,-165.424C337.009,-152.228 329.013,-125.921 342,-110 360.251,-87.6269 431.746,-76.1899 487.747,-70.5571"/>
<polygon fill="midnightblue" stroke="midnightblue" points="488.388,-74.0118 498.007,-69.5716 487.718,-67.0439 488.388,-74.0118"/>
</g>
<!-- Node27&#45;&gt;Node3 -->
<g id="edge55" class="edge"><title>Node27&#45;&gt;Node3</title>
<path fill="none" stroke="midnightblue" d="M743.753,-220.441C736.117,-206.781 718.726,-179.183 696,-165 647.828,-134.937 581.221,-125.17 541.295,-122.006"/>
<polygon fill="midnightblue" stroke="midnightblue" points="541.483,-118.51 531.263,-121.306 540.995,-125.493 541.483,-118.51"/>
</g>
<!-- Node27&#45;&gt;Node5 -->
<g id="edge58" class="edge"><title>Node27&#45;&gt;Node5</title>
<path fill="none" stroke="midnightblue" d="M782.519,-229.197C817.946,-227.821 871.516,-219.482 898,-184 914.253,-162.225 892.072,-123.176 875,-110 837.83,-81.3118 711.349,-71.1048 630.121,-67.4824"/>
<polygon fill="midnightblue" stroke="midnightblue" points="630.096,-63.9783 619.957,-67.0528 629.8,-70.972 630.096,-63.9783"/>
</g>
<!-- Node27&#45;&gt;Node8 -->
<g id="edge57" class="edge"><title>Node27&#45;&gt;Node8</title>
<path fill="none" stroke="midnightblue" d="M731.141,-220.45C713.049,-211.812 684.081,-197.98 663.053,-187.94"/>
<polygon fill="midnightblue" stroke="midnightblue" points="664.549,-184.776 654.017,-183.625 661.533,-191.093 664.549,-184.776"/>
</g>
<!-- Node27&#45;&gt;Node20 -->
<g id="edge56" class="edge"><title>Node27&#45;&gt;Node20</title>
<path fill="none" stroke="midnightblue" d="M758.328,-220.45C768.712,-212.357 784.946,-199.704 797.547,-189.882"/>
<polygon fill="midnightblue" stroke="midnightblue" points="799.839,-192.533 805.575,-183.625 795.536,-187.012 799.839,-192.533"/>
</g>
<!-- Node28&#45;&gt;Node5 -->
<g id="edge60" class="edge"><title>Node28&#45;&gt;Node5</title>
<path fill="none" stroke="midnightblue" d="M488.49,-330.451C473.628,-321.998 450.065,-308.009 431,-294 366.165,-246.36 285.232,-243.236 304,-165 310.399,-138.327 310.11,-126.529 332,-110 356.187,-91.7367 430.765,-79.54 487.904,-72.605"/>
<polygon fill="midnightblue" stroke="midnightblue" points="488.472,-76.0623 497.993,-71.4126 487.651,-69.1106 488.472,-76.0623"/>
</g>
<!-- Node29&#45;&gt;Node5 -->
<g id="edge63" class="edge"><title>Node29&#45;&gt;Node5</title>
<path fill="none" stroke="midnightblue" d="M1086.44,-220.158C1089.73,-207.052 1093.9,-181.441 1082,-165 1040.12,-107.14 1000.47,-126.574 931,-110 828.124,-85.4583 705.857,-74.1398 630.336,-69.1477"/>
<polygon fill="midnightblue" stroke="midnightblue" points="630.2,-65.6319 619.996,-68.4845 629.752,-72.6175 630.2,-65.6319"/>
</g>
<!-- Node29&#45;&gt;Node23 -->
<g id="edge62" class="edge"><title>Node29&#45;&gt;Node23</title>
<path fill="none" stroke="midnightblue" d="M1078.22,-220.219C1072.92,-212.629 1064.92,-201.175 1058.35,-191.76"/>
<polygon fill="midnightblue" stroke="midnightblue" points="1061.21,-189.746 1052.62,-183.55 1055.47,-193.753 1061.21,-189.746"/>
</g>
<!-- Node31 -->
<g id="node31" class="node"><title>Node31</title>
<g id="a_node31"><a xlink:href="$AP__HAL__Linux_8h.html" xlink:title="AP_HAL_Linux.h">
<polygon fill="white" stroke="black" points="781.919,-550.5 781.919,-568.5 874.081,-568.5 874.081,-550.5 781.919,-550.5"/>
<text text-anchor="middle" x="828" y="-556.5" font-family="Helvetica,sans-Serif" font-size="10.00">AP_HAL_Linux.h</text>
</a>
</g>
</g>
<!-- Node30&#45;&gt;Node31 -->
<g id="edge69" class="edge"><title>Node30&#45;&gt;Node31</title>
<path fill="none" stroke="midnightblue" d="M891.883,-660.135C889.894,-647.44 884.882,-622.894 874,-605 867.105,-593.661 856.63,-583.216 847.418,-575.299"/>
<polygon fill="midnightblue" stroke="midnightblue" points="849.408,-572.405 839.451,-568.786 844.978,-577.825 849.408,-572.405"/>
</g>
<!-- Node34 -->
<g id="node34" class="node"><title>Node34</title>
<g id="a_node34"><a xlink:href="$GPIO__BBB_8h.html" xlink:title="GPIO_BBB.h">
<polygon fill="white" stroke="black" points="790.542,-605.5 790.542,-623.5 865.458,-623.5 865.458,-605.5 790.542,-605.5"/>
<text text-anchor="middle" x="828" y="-611.5" font-family="Helvetica,sans-Serif" font-size="10.00">GPIO_BBB.h</text>
</a>
</g>
</g>
<!-- Node30&#45;&gt;Node34 -->
<g id="edge74" class="edge"><title>Node30&#45;&gt;Node34</title>
<path fill="none" stroke="midnightblue" d="M883.128,-660.45C873.297,-652.434 857.982,-639.947 845.987,-630.166"/>
<polygon fill="midnightblue" stroke="midnightblue" points="847.927,-627.232 837.965,-623.625 843.503,-632.657 847.927,-627.232"/>
</g>
<!-- Node31&#45;&gt;Node2 -->
<g id="edge70" class="edge"><title>Node31&#45;&gt;Node2</title>
<path fill="none" stroke="midnightblue" d="M816.671,-550.414C804.358,-541.584 784.146,-526.969 767,-514 745.236,-497.538 720.612,-478.119 704.287,-465.129"/>
<polygon fill="midnightblue" stroke="midnightblue" points="706.142,-462.132 696.141,-458.633 701.778,-467.605 706.142,-462.132"/>
</g>
<!-- Node32 -->
<g id="node32" class="node"><title>Node32</title>
<g id="a_node32"><a xlink:href="$HAL__Linux__Class_8h.html" xlink:title="HAL_Linux_Class.h">
<polygon fill="white" stroke="black" points="776.086,-495.5 776.086,-513.5 879.914,-513.5 879.914,-495.5 776.086,-495.5"/>
<text text-anchor="middle" x="828" y="-501.5" font-family="Helvetica,sans-Serif" font-size="10.00">HAL_Linux_Class.h</text>
</a>
</g>
</g>
<!-- Node31&#45;&gt;Node32 -->
<g id="edge71" class="edge"><title>Node31&#45;&gt;Node32</title>
<path fill="none" stroke="midnightblue" d="M828,-550.219C828,-543.177 828,-532.808 828,-523.828"/>
<polygon fill="midnightblue" stroke="midnightblue" points="831.5,-523.55 828,-513.55 824.5,-523.55 831.5,-523.55"/>
</g>
<!-- Node32&#45;&gt;Node2 -->
<g id="edge72" class="edge"><title>Node32&#45;&gt;Node2</title>
<path fill="none" stroke="midnightblue" d="M806.433,-495.45C782.663,-486.578 744.217,-472.229 717.17,-462.134"/>
<polygon fill="midnightblue" stroke="midnightblue" points="718.362,-458.843 707.77,-458.625 715.915,-465.401 718.362,-458.843"/>
</g>
<!-- Node33 -->
<g id="node33" class="node"><title>Node33</title>
<g id="a_node33"><a xlink:href="$AP__HAL__Linux__Namespace_8h.html" xlink:title="AP_HAL_Linux_Namespace.h">
<polygon fill="white" stroke="black" points="755.458,-440.5 755.458,-458.5 906.542,-458.5 906.542,-440.5 755.458,-440.5"/>
<text text-anchor="middle" x="831" y="-446.5" font-family="Helvetica,sans-Serif" font-size="10.00">AP_HAL_Linux_Namespace.h</text>
</a>
</g>
</g>
<!-- Node32&#45;&gt;Node33 -->
<g id="edge73" class="edge"><title>Node32&#45;&gt;Node33</title>
<path fill="none" stroke="midnightblue" d="M828.469,-495.219C828.867,-488.177 829.454,-477.808 829.963,-468.828"/>
<polygon fill="midnightblue" stroke="midnightblue" points="833.474,-468.731 830.544,-458.55 826.485,-468.336 833.474,-468.731"/>
</g>
<!-- Node34&#45;&gt;Node31 -->
<g id="edge75" class="edge"><title>Node34&#45;&gt;Node31</title>
<path fill="none" stroke="midnightblue" d="M828,-605.219C828,-598.177 828,-587.808 828,-578.828"/>
<polygon fill="midnightblue" stroke="midnightblue" points="831.5,-578.55 828,-568.55 824.5,-578.55 831.5,-578.55"/>
</g>
</g>
</svg>
