<?xml version="1.0" encoding="UTF-8" standalone="no"?>
<!DOCTYPE svg PUBLIC "-//W3C//DTD SVG 1.1//EN"
 "http://www.w3.org/Graphics/SVG/1.1/DTD/svg11.dtd">
<!-- Generated by graphviz version 2.38.0 (20140413.2041)
 -->
<!-- Title: setup Pages: 1 -->
<svg width="198pt" height="74pt"
 viewBox="0.00 0.00 198.08 74.00" xmlns="http://www.w3.org/2000/svg" xmlns:xlink="http://www.w3.org/1999/xlink">
<g id="graph0" class="graph" transform="scale(1 1) rotate(0) translate(4 70)">
<title>setup</title>
<polygon fill="white" stroke="none" points="-4,4 -4,-70 194.085,-70 194.085,4 -4,4"/>
<!-- Node1 -->
<g id="node1" class="node"><title>Node1</title>
<polygon fill="#bfbfbf" stroke="black" points="0,-26.5 0,-44.5 40.4629,-44.5 40.4629,-26.5 0,-26.5"/>
<text text-anchor="middle" x="20.2314" y="-32.5" font-family="Helvetica,sans-Serif" font-size="10.00">setup</text>
</g>
<!-- Node2 -->
<g id="node2" class="node"><title>Node2</title>
<g id="a_node2"><a xlink:href="$classMenu.html#a5c89b865956883acd418609f9414eca7" xlink:title="Menu::set_port">
<polygon fill="white" stroke="black" points="91.9219,-47.5 91.9219,-65.5 174.626,-65.5 174.626,-47.5 91.9219,-47.5"/>
<text text-anchor="middle" x="133.274" y="-53.5" font-family="Helvetica,sans-Serif" font-size="10.00">Menu::set_port</text>
</a>
</g>
</g>
<!-- Node1&#45;&gt;Node2 -->
<g id="edge1" class="edge"><title>Node1&#45;&gt;Node2</title>
<path fill="none" stroke="midnightblue" d="M40.5736,-39.1579C51.9836,-41.3157 67.0043,-44.1564 81.5781,-46.9126"/>
<polygon fill="midnightblue" stroke="midnightblue" points="81.0703,-50.3785 91.5465,-48.7978 82.3711,-43.5004 81.0703,-50.3785"/>
</g>
<!-- Node3 -->
<g id="node3" class="node"><title>Node3</title>
<g id="a_node3"><a xlink:href="$classAP__HAL_1_1UARTDriver.html#acc37de01cc945aa1b798937d41fb65db" xlink:title="AP_HAL::UARTDriver\l::set_blocking_writes">
<polygon fill="white" stroke="black" points="76.4629,-0.5 76.4629,-28.5 190.085,-28.5 190.085,-0.5 76.4629,-0.5"/>
<text text-anchor="start" x="84.4629" y="-16.5" font-family="Helvetica,sans-Serif" font-size="10.00">AP_HAL::UARTDriver</text>
<text text-anchor="middle" x="133.274" y="-6.5" font-family="Helvetica,sans-Serif" font-size="10.00">::set_blocking_writes</text>
</a>
</g>
</g>
<!-- Node1&#45;&gt;Node3 -->
<g id="edge2" class="edge"><title>Node1&#45;&gt;Node3</title>
<path fill="none" stroke="midnightblue" d="M40.5736,-31.8421C48.0446,-30.4292 57.0637,-28.7235 66.4918,-26.9405"/>
<polygon fill="midnightblue" stroke="midnightblue" points="67.2418,-30.3608 76.4172,-25.0634 65.941,-23.4827 67.2418,-30.3608"/>
</g>
</g>
</svg>
