<?xml version="1.0" encoding="UTF-8" standalone="no"?>
<!DOCTYPE svg PUBLIC "-//W3C//DTD SVG 1.1//EN"
 "http://www.w3.org/Graphics/SVG/1.1/DTD/svg11.dtd">
<!-- Generated by graphviz version 2.38.0 (20140413.2041)
 -->
<!-- Title: test_gpio_input Pages: 1 -->
<svg width="654pt" height="279pt"
 viewBox="0.00 0.00 653.67 279.00" xmlns="http://www.w3.org/2000/svg" xmlns:xlink="http://www.w3.org/1999/xlink">
<g id="graph0" class="graph" transform="scale(1 1) rotate(0) translate(4 275)">
<title>test_gpio_input</title>
<polygon fill="white" stroke="none" points="-4,4 -4,-275 649.675,-275 649.675,4 -4,4"/>
<!-- Node1 -->
<g id="node1" class="node"><title>Node1</title>
<polygon fill="#bfbfbf" stroke="black" points="0,-131.5 0,-149.5 83.832,-149.5 83.832,-131.5 0,-131.5"/>
<text text-anchor="middle" x="41.916" y="-137.5" font-family="Helvetica,sans-Serif" font-size="10.00">test_gpio_input</text>
</g>
<!-- Node2 -->
<g id="node2" class="node"><title>Node2</title>
<g id="a_node2"><a xlink:href="$GPIOTest_8cpp.html#a1b0f4354337c3e6a8081e95d64182bfa" xlink:title="parse_gpio_pin_number">
<polygon fill="white" stroke="black" points="122.32,-252.5 122.32,-270.5 246.176,-270.5 246.176,-252.5 122.32,-252.5"/>
<text text-anchor="middle" x="184.248" y="-258.5" font-family="Helvetica,sans-Serif" font-size="10.00">parse_gpio_pin_number</text>
</a>
</g>
</g>
<!-- Node1&#45;&gt;Node2 -->
<g id="edge1" class="edge"><title>Node1&#45;&gt;Node2</title>
<path fill="none" stroke="midnightblue" d="M47.217,-149.799C57.0648,-170.045 83.2517,-218.314 119.832,-243.5 122.519,-245.35 125.393,-247.011 128.38,-248.502"/>
<polygon fill="midnightblue" stroke="midnightblue" points="127.036,-251.734 137.604,-252.486 129.811,-245.308 127.036,-251.734"/>
</g>
<!-- Node3 -->
<g id="node3" class="node"><title>Node3</title>
<g id="a_node3"><a xlink:href="$classAP__HAL_1_1GPIO.html#a4e8955091af056240f447b68b76725bb" xlink:title="AP_HAL::GPIO::channel">
<polygon fill="white" stroke="black" points="121.497,-215.5 121.497,-233.5 246.999,-233.5 246.999,-215.5 121.497,-215.5"/>
<text text-anchor="middle" x="184.248" y="-221.5" font-family="Helvetica,sans-Serif" font-size="10.00">AP_HAL::GPIO::channel</text>
</a>
</g>
</g>
<!-- Node1&#45;&gt;Node3 -->
<g id="edge2" class="edge"><title>Node1&#45;&gt;Node3</title>
<path fill="none" stroke="midnightblue" d="M50.9776,-149.59C64.0531,-163.787 91.3093,-191.181 119.832,-206.5 123.737,-208.597 127.913,-210.472 132.187,-212.144"/>
<polygon fill="midnightblue" stroke="midnightblue" points="131.041,-215.451 141.636,-215.486 133.375,-208.852 131.041,-215.451"/>
</g>
<!-- Node4 -->
<g id="node4" class="node"><title>Node4</title>
<g id="a_node4"><a xlink:href="$classAP__HAL_1_1DigitalSource.html#af16b96dab1499f30659a1fd892df6c2d" xlink:title="AP_HAL::DigitalSource\l::mode">
<polygon fill="white" stroke="black" points="124.556,-168.5 124.556,-196.5 243.94,-196.5 243.94,-168.5 124.556,-168.5"/>
<text text-anchor="start" x="132.556" y="-184.5" font-family="Helvetica,sans-Serif" font-size="10.00">AP_HAL::DigitalSource</text>
<text text-anchor="middle" x="184.248" y="-174.5" font-family="Helvetica,sans-Serif" font-size="10.00">::mode</text>
</a>
</g>
</g>
<!-- Node1&#45;&gt;Node4 -->
<g id="edge3" class="edge"><title>Node1&#45;&gt;Node4</title>
<path fill="none" stroke="midnightblue" d="M73.0208,-149.51C88.6538,-154.189 108.277,-160.062 126.617,-165.551"/>
<polygon fill="midnightblue" stroke="midnightblue" points="125.767,-168.95 136.351,-168.464 127.775,-162.244 125.767,-168.95"/>
</g>
<!-- Node5 -->
<g id="node5" class="node"><title>Node5</title>
<g id="a_node5"><a xlink:href="$classAP__HAL_1_1GPIO.html#a3dfc60214bd1aa4936d51ca72c045b95" xlink:title="AP_HAL::GPIO::pinMode">
<polygon fill="white" stroke="black" points="119.832,-131.5 119.832,-149.5 248.664,-149.5 248.664,-131.5 119.832,-131.5"/>
<text text-anchor="middle" x="184.248" y="-137.5" font-family="Helvetica,sans-Serif" font-size="10.00">AP_HAL::GPIO::pinMode</text>
</a>
</g>
</g>
<!-- Node1&#45;&gt;Node5 -->
<g id="edge4" class="edge"><title>Node1&#45;&gt;Node5</title>
<path fill="none" stroke="midnightblue" d="M83.8831,-140.5C92.0534,-140.5 100.867,-140.5 109.751,-140.5"/>
<polygon fill="midnightblue" stroke="midnightblue" points="109.782,-144 119.782,-140.5 109.782,-137 109.782,-144"/>
</g>
<!-- Node6 -->
<g id="node6" class="node"><title>Node6</title>
<g id="a_node6"><a xlink:href="$classAP__HAL_1_1UARTDriver.html#a65c7824b8877f7a2f79365c8ffae8f56" xlink:title="AP_HAL::UARTDriver\l::printf">
<polygon fill="white" stroke="black" points="127.437,-84.5 127.437,-112.5 241.059,-112.5 241.059,-84.5 127.437,-84.5"/>
<text text-anchor="start" x="135.437" y="-100.5" font-family="Helvetica,sans-Serif" font-size="10.00">AP_HAL::UARTDriver</text>
<text text-anchor="middle" x="184.248" y="-90.5" font-family="Helvetica,sans-Serif" font-size="10.00">::printf</text>
</a>
</g>
</g>
<!-- Node1&#45;&gt;Node6 -->
<g id="edge5" class="edge"><title>Node1&#45;&gt;Node6</title>
<path fill="none" stroke="midnightblue" d="M73.0208,-131.49C88.6538,-126.811 108.277,-120.938 126.617,-115.449"/>
<polygon fill="midnightblue" stroke="midnightblue" points="127.775,-118.756 136.351,-112.536 125.767,-112.05 127.775,-118.756"/>
</g>
<!-- Node14 -->
<g id="node14" class="node"><title>Node14</title>
<g id="a_node14"><a xlink:href="$classAP__HAL_1_1DigitalSource.html#a6d155c0e1088e7b045b075c34bc2a13e" xlink:title="AP_HAL::DigitalSource\l::read">
<polygon fill="white" stroke="black" points="124.556,-37.5 124.556,-65.5 243.94,-65.5 243.94,-37.5 124.556,-37.5"/>
<text text-anchor="start" x="132.556" y="-53.5" font-family="Helvetica,sans-Serif" font-size="10.00">AP_HAL::DigitalSource</text>
<text text-anchor="middle" x="184.248" y="-43.5" font-family="Helvetica,sans-Serif" font-size="10.00">::read</text>
</a>
</g>
</g>
<!-- Node1&#45;&gt;Node14 -->
<g id="edge13" class="edge"><title>Node1&#45;&gt;Node14</title>
<path fill="none" stroke="midnightblue" d="M51.6061,-131.39C65.1003,-117.68 92.4057,-91.6327 119.832,-75.5 123.272,-73.4763 126.914,-71.5677 130.643,-69.7792"/>
<polygon fill="midnightblue" stroke="midnightblue" points="132.327,-72.8602 140.027,-65.5835 129.47,-66.4698 132.327,-72.8602"/>
</g>
<!-- Node15 -->
<g id="node15" class="node"><title>Node15</title>
<g id="a_node15"><a xlink:href="$classAP__HAL_1_1GPIO.html#a453e2829832c783a5337849218390efc" xlink:title="AP_HAL::GPIO::read">
<polygon fill="white" stroke="black" points="129.004,-0.5 129.004,-18.5 239.492,-18.5 239.492,-0.5 129.004,-0.5"/>
<text text-anchor="middle" x="184.248" y="-6.5" font-family="Helvetica,sans-Serif" font-size="10.00">AP_HAL::GPIO::read</text>
</a>
</g>
</g>
<!-- Node1&#45;&gt;Node15 -->
<g id="edge14" class="edge"><title>Node1&#45;&gt;Node15</title>
<path fill="none" stroke="midnightblue" d="M46.6002,-131.4C55.7007,-110.077 81.3327,-56.5739 119.832,-28.5 122.841,-26.3055 126.105,-24.3622 129.51,-22.6416"/>
<polygon fill="midnightblue" stroke="midnightblue" points="131.019,-25.8019 138.778,-18.5876 128.214,-19.3886 131.019,-25.8019"/>
</g>
<!-- Node7 -->
<g id="node7" class="node"><title>Node7</title>
<g id="a_node7"><a xlink:href="$classAP__HAL_1_1UARTDriver.html#aa8abfb6d6641299472c29ac1edde559f" xlink:title="AP_HAL::UARTDriver\l::vprintf">
<polygon fill="white" stroke="black" points="284.664,-84.5 284.664,-112.5 398.286,-112.5 398.286,-84.5 284.664,-84.5"/>
<text text-anchor="start" x="292.664" y="-100.5" font-family="Helvetica,sans-Serif" font-size="10.00">AP_HAL::UARTDriver</text>
<text text-anchor="middle" x="341.475" y="-90.5" font-family="Helvetica,sans-Serif" font-size="10.00">::vprintf</text>
</a>
</g>
</g>
<!-- Node6&#45;&gt;Node7 -->
<g id="edge6" class="edge"><title>Node6&#45;&gt;Node7</title>
<path fill="none" stroke="midnightblue" d="M241.289,-98.5C252.06,-98.5 263.433,-98.5 274.484,-98.5"/>
<polygon fill="midnightblue" stroke="midnightblue" points="274.517,-102 284.517,-98.5 274.517,-95.0001 274.517,-102"/>
</g>
<!-- Node8 -->
<g id="node8" class="node"><title>Node8</title>
<g id="a_node8"><a xlink:href="$print__vprintf_8cpp.html#a473b9349f4b086b552a21eb8fe057016" xlink:title="print_vprintf">
<polygon fill="white" stroke="black" points="434.286,-89.5 434.286,-107.5 502.532,-107.5 502.532,-89.5 434.286,-89.5"/>
<text text-anchor="middle" x="468.409" y="-95.5" font-family="Helvetica,sans-Serif" font-size="10.00">print_vprintf</text>
</a>
</g>
</g>
<!-- Node7&#45;&gt;Node8 -->
<g id="edge7" class="edge"><title>Node7&#45;&gt;Node8</title>
<path fill="none" stroke="midnightblue" d="M398.365,-98.5C406.953,-98.5 415.709,-98.5 423.973,-98.5"/>
<polygon fill="midnightblue" stroke="midnightblue" points="424.129,-102 434.129,-98.5 424.129,-95.0001 424.129,-102"/>
</g>
<!-- Node9 -->
<g id="node9" class="node"><title>Node9</title>
<g id="a_node9"><a xlink:href="$classAP__HAL_1_1Print.html#acc65391952a43334f8f5c9bef341f501" xlink:title="AP_HAL::Print::write">
<polygon fill="white" stroke="black" points="538.532,-163.5 538.532,-181.5 645.675,-181.5 645.675,-163.5 538.532,-163.5"/>
<text text-anchor="middle" x="592.104" y="-169.5" font-family="Helvetica,sans-Serif" font-size="10.00">AP_HAL::Print::write</text>
</a>
</g>
</g>
<!-- Node8&#45;&gt;Node9 -->
<g id="edge8" class="edge"><title>Node8&#45;&gt;Node9</title>
<path fill="none" stroke="midnightblue" d="M478.473,-107.633C490.996,-119.806 514.748,-141.34 538.532,-154.5 541.994,-156.416 545.697,-158.18 549.473,-159.791"/>
<polygon fill="midnightblue" stroke="midnightblue" points="548.331,-163.103 558.919,-163.483 550.879,-156.583 548.331,-163.103"/>
</g>
<!-- Node10 -->
<g id="node10" class="node"><title>Node10</title>
<g id="a_node10"><a xlink:href="$ftoa__engine_8cpp.html#a1c28234da8f20b43c85890d4bb452947" xlink:title="ftoa_engine">
<polygon fill="white" stroke="black" points="557.968,-126.5 557.968,-144.5 626.239,-144.5 626.239,-126.5 557.968,-126.5"/>
<text text-anchor="middle" x="592.104" y="-132.5" font-family="Helvetica,sans-Serif" font-size="10.00">ftoa_engine</text>
</a>
</g>
</g>
<!-- Node8&#45;&gt;Node10 -->
<g id="edge9" class="edge"><title>Node8&#45;&gt;Node10</title>
<path fill="none" stroke="midnightblue" d="M499.179,-107.551C514.943,-112.344 534.512,-118.294 551.537,-123.47"/>
<polygon fill="midnightblue" stroke="midnightblue" points="550.634,-126.854 561.219,-126.414 552.67,-120.156 550.634,-126.854"/>
</g>
<!-- Node11 -->
<g id="node11" class="node"><title>Node11</title>
<g id="a_node11"><a xlink:href="$AP__Progmem_8h.html#a1514e0408e036062b4af844baaf567da" xlink:title="pgm_read_byte">
<polygon fill="white" stroke="black" points="549.357,-89.5 549.357,-107.5 634.85,-107.5 634.85,-89.5 549.357,-89.5"/>
<text text-anchor="middle" x="592.104" y="-95.5" font-family="Helvetica,sans-Serif" font-size="10.00">pgm_read_byte</text>
</a>
</g>
</g>
<!-- Node8&#45;&gt;Node11 -->
<g id="edge10" class="edge"><title>Node8&#45;&gt;Node11</title>
<path fill="none" stroke="midnightblue" d="M502.663,-98.5C513.879,-98.5 526.681,-98.5 538.996,-98.5"/>
<polygon fill="midnightblue" stroke="midnightblue" points="539.181,-102 549.181,-98.5 539.181,-95.0001 539.181,-102"/>
</g>
<!-- Node12 -->
<g id="node12" class="node"><title>Node12</title>
<g id="a_node12"><a xlink:href="$utoa__invert_8cpp.html#a34926f552460b47c414ec4d83b32815c" xlink:title="ulltoa_invert">
<polygon fill="white" stroke="black" points="557.143,-52.5 557.143,-70.5 627.064,-70.5 627.064,-52.5 557.143,-52.5"/>
<text text-anchor="middle" x="592.104" y="-58.5" font-family="Helvetica,sans-Serif" font-size="10.00">ulltoa_invert</text>
</a>
</g>
</g>
<!-- Node8&#45;&gt;Node12 -->
<g id="edge11" class="edge"><title>Node8&#45;&gt;Node12</title>
<path fill="none" stroke="midnightblue" d="M499.179,-89.4488C514.943,-84.6558 534.512,-78.7062 551.537,-73.5298"/>
<polygon fill="midnightblue" stroke="midnightblue" points="552.67,-76.8437 561.219,-70.586 550.634,-70.1464 552.67,-76.8437"/>
</g>
<!-- Node13 -->
<g id="node13" class="node"><title>Node13</title>
<g id="a_node13"><a xlink:href="$utoa__invert_8cpp.html#a5d99bba8e697c1e11da489d88fca8559" xlink:title="ultoa_invert">
<polygon fill="white" stroke="black" points="558.254,-15.5 558.254,-33.5 625.953,-33.5 625.953,-15.5 558.254,-15.5"/>
<text text-anchor="middle" x="592.104" y="-21.5" font-family="Helvetica,sans-Serif" font-size="10.00">ultoa_invert</text>
</a>
</g>
</g>
<!-- Node8&#45;&gt;Node13 -->
<g id="edge12" class="edge"><title>Node8&#45;&gt;Node13</title>
<path fill="none" stroke="midnightblue" d="M478.971,-89.1918C491.675,-77.2457 515.236,-56.514 538.532,-43.5 542.549,-41.2563 546.88,-39.192 551.273,-37.3176"/>
<polygon fill="midnightblue" stroke="midnightblue" points="552.871,-40.4496 560.887,-33.5217 550.3,-33.9387 552.871,-40.4496"/>
</g>
</g>
</svg>
