<?xml version="1.0" encoding="UTF-8" standalone="no"?>
<!DOCTYPE svg PUBLIC "-//W3C//DTD SVG 1.1//EN"
 "http://www.w3.org/Graphics/SVG/1.1/DTD/svg11.dtd">
<!-- Generated by graphviz version 2.38.0 (20140413.2041)
 -->
<!-- Title: loop Pages: 1 -->
<svg width="216pt" height="101pt"
 viewBox="0.00 0.00 216.08 101.00" xmlns="http://www.w3.org/2000/svg" xmlns:xlink="http://www.w3.org/1999/xlink">
<g id="graph0" class="graph" transform="scale(1 1) rotate(0) translate(4 97)">
<title>loop</title>
<polygon fill="white" stroke="none" points="-4,4 -4,-97 212.078,-97 212.078,4 -4,4"/>
<!-- Node1 -->
<g id="node1" class="node"><title>Node1</title>
<polygon fill="#bfbfbf" stroke="black" points="0,-37.5 0,-55.5 34.9062,-55.5 34.9062,-37.5 0,-37.5"/>
<text text-anchor="middle" x="17.4531" y="-43.5" font-family="Helvetica,sans-Serif" font-size="10.00">loop</text>
</g>
<!-- Node2 -->
<g id="node2" class="node"><title>Node2</title>
<g id="a_node2"><a xlink:href="$classAP__HAL_1_1Stream.html#ae687e48f5689af94d66fb88822923e12" xlink:title="AP_HAL::Stream::available">
<polygon fill="white" stroke="black" points="70.9062,-74.5 70.9062,-92.5 208.078,-92.5 208.078,-74.5 70.9062,-74.5"/>
<text text-anchor="middle" x="139.492" y="-80.5" font-family="Helvetica,sans-Serif" font-size="10.00">AP_HAL::Stream::available</text>
</a>
</g>
</g>
<!-- Node1&#45;&gt;Node2 -->
<g id="edge1" class="edge"><title>Node1&#45;&gt;Node2</title>
<path fill="none" stroke="midnightblue" d="M35.3338,-53.0391C45.5536,-56.8914 58.8921,-61.7321 70.9062,-65.5 77.8363,-67.6734 85.2174,-69.8138 92.4606,-71.818"/>
<polygon fill="midnightblue" stroke="midnightblue" points="91.6295,-75.2189 102.197,-74.4568 93.4607,-68.4627 91.6295,-75.2189"/>
</g>
<!-- Node3 -->
<g id="node3" class="node"><title>Node3</title>
<g id="a_node3"><a xlink:href="$classAP__HAL_1_1Print.html#acc65391952a43334f8f5c9bef341f501" xlink:title="AP_HAL::Print::write">
<polygon fill="white" stroke="black" points="85.9209,-37.5 85.9209,-55.5 193.063,-55.5 193.063,-37.5 85.9209,-37.5"/>
<text text-anchor="middle" x="139.492" y="-43.5" font-family="Helvetica,sans-Serif" font-size="10.00">AP_HAL::Print::write</text>
</a>
</g>
</g>
<!-- Node1&#45;&gt;Node3 -->
<g id="edge2" class="edge"><title>Node1&#45;&gt;Node3</title>
<path fill="none" stroke="midnightblue" d="M35.144,-46.5C45.8741,-46.5 60.5603,-46.5 75.4931,-46.5"/>
<polygon fill="midnightblue" stroke="midnightblue" points="75.825,-50.0001 85.8249,-46.5 75.8249,-43.0001 75.825,-50.0001"/>
</g>
<!-- Node4 -->
<g id="node4" class="node"><title>Node4</title>
<g id="a_node4"><a xlink:href="$classAP__HAL_1_1Stream.html#ae42ff362cc2a7e527c22f92a3740c2ac" xlink:title="AP_HAL::Stream::read">
<polygon fill="white" stroke="black" points="80.6353,-0.5 80.6353,-18.5 198.349,-18.5 198.349,-0.5 80.6353,-0.5"/>
<text text-anchor="middle" x="139.492" y="-6.5" font-family="Helvetica,sans-Serif" font-size="10.00">AP_HAL::Stream::read</text>
</a>
</g>
</g>
<!-- Node1&#45;&gt;Node4 -->
<g id="edge3" class="edge"><title>Node1&#45;&gt;Node4</title>
<path fill="none" stroke="midnightblue" d="M34.9113,-40.5849C45.2074,-36.9511 58.774,-32.2837 70.9062,-28.5 78.7649,-26.0491 87.1812,-23.569 95.3139,-21.2456"/>
<polygon fill="midnightblue" stroke="midnightblue" points="96.3632,-24.5863 105.037,-18.5018 94.462,-17.8494 96.3632,-24.5863"/>
</g>
</g>
</svg>
