<?xml version="1.0" encoding="UTF-8" standalone="no"?>
<!DOCTYPE svg PUBLIC "-//W3C//DTD SVG 1.1//EN"
 "http://www.w3.org/Graphics/SVG/1.1/DTD/svg11.dtd">
<!-- Generated by graphviz version 2.38.0 (20140413.2041)
 -->
<!-- Title: libraries/AP_HAL_Empty/HAL_Empty_Class.h Pages: 1 -->
<svg width="2288pt" height="427pt"
 viewBox="0.00 0.00 2288.04 427.00" xmlns="http://www.w3.org/2000/svg" xmlns:xlink="http://www.w3.org/1999/xlink">
<g id="graph0" class="graph" transform="scale(1 1) rotate(0) translate(4 423)">
<title>libraries/AP_HAL_Empty/HAL_Empty_Class.h</title>
<polygon fill="white" stroke="none" points="-4,4 -4,-423 2284.04,-423 2284.04,4 -4,4"/>
<!-- Node1 -->
<g id="node1" class="node"><title>Node1</title>
<polygon fill="#bfbfbf" stroke="black" points="1088,-390.5 1088,-418.5 1214.04,-418.5 1214.04,-390.5 1088,-390.5"/>
<text text-anchor="start" x="1096" y="-406.5" font-family="Helvetica,sans-Serif" font-size="10.00">libraries/AP_HAL_Empty</text>
<text text-anchor="middle" x="1151.02" y="-396.5" font-family="Helvetica,sans-Serif" font-size="10.00">/HAL_Empty_Class.h</text>
</g>
<!-- Node2 -->
<g id="node2" class="node"><title>Node2</title>
<g id="a_node2"><a xlink:href="$AP__HAL__Empty_8h.html" xlink:title="libraries/AP_HAL_Empty\l/AP_HAL_Empty.h">
<polygon fill="white" stroke="black" points="1088,-325.5 1088,-353.5 1214.04,-353.5 1214.04,-325.5 1088,-325.5"/>
<text text-anchor="start" x="1096" y="-341.5" font-family="Helvetica,sans-Serif" font-size="10.00">libraries/AP_HAL_Empty</text>
<text text-anchor="middle" x="1151.02" y="-331.5" font-family="Helvetica,sans-Serif" font-size="10.00">/AP_HAL_Empty.h</text>
</a>
</g>
</g>
<!-- Node1&#45;&gt;Node2 -->
<g id="edge1" class="edge"><title>Node1&#45;&gt;Node2</title>
<path fill="none" stroke="midnightblue" d="M1151.02,-380.164C1151.02,-371.169 1151.02,-361.221 1151.02,-353.537"/>
<polygon fill="midnightblue" stroke="midnightblue" points="1147.52,-380.446 1151.02,-390.446 1154.52,-380.446 1147.52,-380.446"/>
</g>
<!-- Node6 -->
<g id="node6" class="node"><title>Node6</title>
<g id="a_node6"><a xlink:href="$HAL__Empty__Class_8cpp.html" xlink:title="libraries/AP_HAL_Empty\l/HAL_Empty_Class.cpp">
<polygon fill="white" stroke="black" points="2154,-65.5 2154,-93.5 2280.04,-93.5 2280.04,-65.5 2154,-65.5"/>
<text text-anchor="start" x="2162" y="-81.5" font-family="Helvetica,sans-Serif" font-size="10.00">libraries/AP_HAL_Empty</text>
<text text-anchor="middle" x="2217.02" y="-71.5" font-family="Helvetica,sans-Serif" font-size="10.00">/HAL_Empty_Class.cpp</text>
</a>
</g>
</g>
<!-- Node1&#45;&gt;Node6 -->
<g id="edge50" class="edge"><title>Node1&#45;&gt;Node6</title>
<path fill="none" stroke="midnightblue" d="M1224.29,-402.178C1461.01,-396.948 2190.02,-372.933 2190.02,-275.5 2190.02,-275.5 2190.02,-275.5 2190.02,-208.5 2190.02,-165.803 2204.58,-116.786 2212.32,-93.7582"/>
<polygon fill="midnightblue" stroke="midnightblue" points="1223.99,-398.684 1214.06,-402.399 1224.14,-405.682 1223.99,-398.684"/>
</g>
<!-- Node3 -->
<g id="node3" class="node"><title>Node3</title>
<g id="a_node3"><a xlink:href="$Empty_2AnalogIn_8h.html" xlink:title="libraries/AP_HAL_Empty\l/AnalogIn.h">
<polygon fill="white" stroke="black" points="1805,-260.5 1805,-288.5 1931.04,-288.5 1931.04,-260.5 1805,-260.5"/>
<text text-anchor="start" x="1813" y="-276.5" font-family="Helvetica,sans-Serif" font-size="10.00">libraries/AP_HAL_Empty</text>
<text text-anchor="middle" x="1868.02" y="-266.5" font-family="Helvetica,sans-Serif" font-size="10.00">/AnalogIn.h</text>
</a>
</g>
</g>
<!-- Node2&#45;&gt;Node3 -->
<g id="edge2" class="edge"><title>Node2&#45;&gt;Node3</title>
<path fill="none" stroke="midnightblue" d="M1224.69,-333.02C1337.16,-324.505 1558.43,-307.179 1746.02,-289 1765.11,-287.15 1785.86,-284.932 1804.74,-282.834"/>
<polygon fill="midnightblue" stroke="midnightblue" points="1224.18,-329.548 1214.47,-333.791 1224.71,-336.528 1224.18,-329.548"/>
</g>
<!-- Node7 -->
<g id="node7" class="node"><title>Node7</title>
<g id="a_node7"><a xlink:href="$HAL__Linux__Class_8cpp.html" xlink:title="libraries/AP_HAL_Linux\l/HAL_Linux_Class.cpp">
<polygon fill="white" stroke="black" points="1834.22,-65.5 1834.22,-93.5 1955.83,-93.5 1955.83,-65.5 1834.22,-65.5"/>
<text text-anchor="start" x="1842.22" y="-81.5" font-family="Helvetica,sans-Serif" font-size="10.00">libraries/AP_HAL_Linux</text>
<text text-anchor="middle" x="1895.02" y="-71.5" font-family="Helvetica,sans-Serif" font-size="10.00">/HAL_Linux_Class.cpp</text>
</a>
</g>
</g>
<!-- Node2&#45;&gt;Node7 -->
<g id="edge45" class="edge"><title>Node2&#45;&gt;Node7</title>
<path fill="none" stroke="midnightblue" d="M1224.34,-337.207C1415.14,-333.413 1917.02,-320.528 1985.02,-289 2030.43,-267.948 2069.36,-239.787 2047.02,-195 2021.96,-144.738 1963.15,-110.738 1926.47,-93.5667"/>
<polygon fill="midnightblue" stroke="midnightblue" points="1224.06,-333.712 1214.13,-337.408 1224.2,-340.711 1224.06,-333.712"/>
</g>
<!-- Node8 -->
<g id="node8" class="node"><title>Node8</title>
<g id="a_node8"><a xlink:href="$PX4_2I2CDriver_8h.html" xlink:title="libraries/AP_HAL_PX4\l/I2CDriver.h">
<polygon fill="white" stroke="black" points="939.719,-65.5 939.719,-93.5 1056.32,-93.5 1056.32,-65.5 939.719,-65.5"/>
<text text-anchor="start" x="947.719" y="-81.5" font-family="Helvetica,sans-Serif" font-size="10.00">libraries/AP_HAL_PX4</text>
<text text-anchor="middle" x="998.022" y="-71.5" font-family="Helvetica,sans-Serif" font-size="10.00">/I2CDriver.h</text>
</a>
</g>
</g>
<!-- Node2&#45;&gt;Node8 -->
<g id="edge46" class="edge"><title>Node2&#45;&gt;Node8</title>
<path fill="none" stroke="midnightblue" d="M1077.86,-337.047C871.675,-332.604 299.023,-317.722 271.022,-289 218.825,-235.458 259.093,-163.344 326.022,-130 380.208,-103.005 786.135,-87.3015 939.543,-82.2792"/>
<polygon fill="midnightblue" stroke="midnightblue" points="1077.91,-340.549 1087.98,-337.263 1078.06,-333.551 1077.91,-340.549"/>
</g>
<!-- Node9 -->
<g id="node9" class="node"><title>Node9</title>
<g id="a_node9"><a xlink:href="$HAL__PX4__Class_8cpp.html" xlink:title="libraries/AP_HAL_PX4\l/HAL_PX4_Class.cpp">
<polygon fill="white" stroke="black" points="1162.72,-0.5 1162.72,-28.5 1279.32,-28.5 1279.32,-0.5 1162.72,-0.5"/>
<text text-anchor="start" x="1170.72" y="-16.5" font-family="Helvetica,sans-Serif" font-size="10.00">libraries/AP_HAL_PX4</text>
<text text-anchor="middle" x="1221.02" y="-6.5" font-family="Helvetica,sans-Serif" font-size="10.00">/HAL_PX4_Class.cpp</text>
</a>
</g>
</g>
<!-- Node2&#45;&gt;Node9 -->
<g id="edge47" class="edge"><title>Node2&#45;&gt;Node9</title>
<path fill="none" stroke="midnightblue" d="M1224.57,-336.769C1421.03,-331.8 1948.2,-316.085 2022.02,-289 2076.39,-269.051 2126.02,-268.411 2126.02,-210.5 2126.02,-210.5 2126.02,-210.5 2126.02,-143.5 2126.02,-63.892 2041.95,-85.4693 1965.02,-65 1835.93,-30.6534 1431.46,-19.5149 1279.5,-16.4871"/>
<polygon fill="midnightblue" stroke="midnightblue" points="1224.25,-333.276 1214.34,-337.025 1224.43,-340.273 1224.25,-333.276"/>
</g>
<!-- Node11 -->
<g id="node11" class="node"><title>Node11</title>
<g id="a_node11"><a xlink:href="$HAL__SITL__Class_8cpp.html" xlink:title="libraries/AP_HAL_SITL\l/HAL_SITL_Class.cpp">
<polygon fill="white" stroke="black" points="1074.61,-65.5 1074.61,-93.5 1193.43,-93.5 1193.43,-65.5 1074.61,-65.5"/>
<text text-anchor="start" x="1082.61" y="-81.5" font-family="Helvetica,sans-Serif" font-size="10.00">libraries/AP_HAL_SITL</text>
<text text-anchor="middle" x="1134.02" y="-71.5" font-family="Helvetica,sans-Serif" font-size="10.00">/HAL_SITL_Class.cpp</text>
</a>
</g>
</g>
<!-- Node2&#45;&gt;Node11 -->
<g id="edge48" class="edge"><title>Node2&#45;&gt;Node11</title>
<path fill="none" stroke="midnightblue" d="M1077.62,-336.785C874.169,-331.704 316.085,-315.414 287.022,-289 265.392,-269.341 279.251,-253.144 277.022,-224 276.039,-211.149 268.507,-204.676 277.022,-195 393.652,-62.4668 890.743,-122.187 1065.02,-94 1068.15,-93.4933 1071.36,-92.9503 1074.6,-92.3835"/>
<polygon fill="midnightblue" stroke="midnightblue" points="1077.82,-340.291 1087.9,-337.04 1077.99,-333.293 1077.82,-340.291"/>
</g>
<!-- Node12 -->
<g id="node12" class="node"><title>Node12</title>
<g id="a_node12"><a xlink:href="$HAL__VRBRAIN__Class_8cpp.html" xlink:title="libraries/AP_HAL_VRBRAIN\l/HAL_VRBRAIN_Class.cpp">
<polygon fill="white" stroke="black" points="1531.94,-65.5 1531.94,-93.5 1674.1,-93.5 1674.1,-65.5 1531.94,-65.5"/>
<text text-anchor="start" x="1539.94" y="-81.5" font-family="Helvetica,sans-Serif" font-size="10.00">libraries/AP_HAL_VRBRAIN</text>
<text text-anchor="middle" x="1603.02" y="-71.5" font-family="Helvetica,sans-Serif" font-size="10.00">/HAL_VRBRAIN_Class.cpp</text>
</a>
</g>
</g>
<!-- Node2&#45;&gt;Node12 -->
<g id="edge49" class="edge"><title>Node2&#45;&gt;Node12</title>
<path fill="none" stroke="midnightblue" d="M1224.41,-339.018C1394.18,-339.397 1809.48,-335.39 1940.02,-289 1986.85,-272.357 2008.28,-268.194 2031.02,-224 2036.92,-212.54 2038.45,-205.536 2031.02,-195 1990.09,-136.92 1785.33,-103.036 1674.52,-88.6741"/>
<polygon fill="midnightblue" stroke="midnightblue" points="1224.32,-335.518 1214.31,-338.99 1224.3,-342.518 1224.32,-335.518"/>
</g>
<!-- Node13 -->
<g id="node13" class="node"><title>Node13</title>
<g id="a_node13"><a xlink:href="$PrivateMember_8h.html" xlink:title="libraries/AP_HAL_Empty\l/PrivateMember.h">
<polygon fill="white" stroke="black" points="0,-260.5 0,-288.5 126.044,-288.5 126.044,-260.5 0,-260.5"/>
<text text-anchor="start" x="8" y="-276.5" font-family="Helvetica,sans-Serif" font-size="10.00">libraries/AP_HAL_Empty</text>
<text text-anchor="middle" x="63.022" y="-266.5" font-family="Helvetica,sans-Serif" font-size="10.00">/PrivateMember.h</text>
</a>
</g>
</g>
<!-- Node2&#45;&gt;Node13 -->
<g id="edge13" class="edge"><title>Node2&#45;&gt;Node13</title>
<path fill="none" stroke="midnightblue" d="M1077.66,-338.036C910.674,-336.297 489.633,-328.052 140.022,-289 135.571,-288.503 130.988,-287.909 126.381,-287.253"/>
<polygon fill="midnightblue" stroke="midnightblue" points="1077.77,-341.537 1087.81,-338.137 1077.84,-334.538 1077.77,-341.537"/>
</g>
<!-- Node15 -->
<g id="node15" class="node"><title>Node15</title>
<g id="a_node15"><a xlink:href="$Empty_2UARTDriver_8h.html" xlink:title="libraries/AP_HAL_Empty\l/UARTDriver.h">
<polygon fill="white" stroke="black" points="524,-260.5 524,-288.5 650.044,-288.5 650.044,-260.5 524,-260.5"/>
<text text-anchor="start" x="532" y="-276.5" font-family="Helvetica,sans-Serif" font-size="10.00">libraries/AP_HAL_Empty</text>
<text text-anchor="middle" x="587.022" y="-266.5" font-family="Helvetica,sans-Serif" font-size="10.00">/UARTDriver.h</text>
</a>
</g>
</g>
<!-- Node2&#45;&gt;Node15 -->
<g id="edge17" class="edge"><title>Node2&#45;&gt;Node15</title>
<path fill="none" stroke="midnightblue" d="M1077.69,-333.081C981.342,-325.514 807.008,-310.279 659.022,-289 656.127,-288.584 653.17,-288.133 650.188,-287.658"/>
<polygon fill="midnightblue" stroke="midnightblue" points="1077.66,-336.59 1087.9,-333.878 1078.21,-329.611 1077.66,-336.59"/>
</g>
<!-- Node17 -->
<g id="node17" class="node"><title>Node17</title>
<g id="a_node17"><a xlink:href="$Empty_2I2CDriver_8h.html" xlink:title="libraries/AP_HAL_Empty\l/I2CDriver.h">
<polygon fill="white" stroke="black" points="872,-260.5 872,-288.5 998.044,-288.5 998.044,-260.5 872,-260.5"/>
<text text-anchor="start" x="880" y="-276.5" font-family="Helvetica,sans-Serif" font-size="10.00">libraries/AP_HAL_Empty</text>
<text text-anchor="middle" x="935.022" y="-266.5" font-family="Helvetica,sans-Serif" font-size="10.00">/I2CDriver.h</text>
</a>
</g>
</g>
<!-- Node2&#45;&gt;Node17 -->
<g id="edge20" class="edge"><title>Node2&#45;&gt;Node17</title>
<path fill="none" stroke="midnightblue" d="M1096.39,-322.565C1060.3,-312.039 1013.59,-298.416 979.72,-288.537"/>
<polygon fill="midnightblue" stroke="midnightblue" points="1095.69,-326.006 1106.27,-325.446 1097.65,-319.286 1095.69,-326.006"/>
</g>
<!-- Node19 -->
<g id="node19" class="node"><title>Node19</title>
<g id="a_node19"><a xlink:href="$Empty_2SPIDriver_8h.html" xlink:title="libraries/AP_HAL_Empty\l/SPIDriver.h">
<polygon fill="white" stroke="black" points="1714,-195.5 1714,-223.5 1840.04,-223.5 1840.04,-195.5 1714,-195.5"/>
<text text-anchor="start" x="1722" y="-211.5" font-family="Helvetica,sans-Serif" font-size="10.00">libraries/AP_HAL_Empty</text>
<text text-anchor="middle" x="1777.02" y="-201.5" font-family="Helvetica,sans-Serif" font-size="10.00">/SPIDriver.h</text>
</a>
</g>
</g>
<!-- Node2&#45;&gt;Node19 -->
<g id="edge23" class="edge"><title>Node2&#45;&gt;Node19</title>
<path fill="none" stroke="midnightblue" d="M1224.5,-337.451C1352,-334.694 1608.42,-324.744 1690.02,-289 1723.38,-274.39 1752.62,-241.832 1767.2,-223.568"/>
<polygon fill="midnightblue" stroke="midnightblue" points="1224.35,-333.953 1214.43,-337.66 1224.5,-340.952 1224.35,-333.953"/>
</g>
<!-- Node21 -->
<g id="node21" class="node"><title>Node21</title>
<g id="a_node21"><a xlink:href="$Empty_2Semaphores_8h.html" xlink:title="libraries/AP_HAL_Empty\l/Semaphores.h">
<polygon fill="white" stroke="black" points="1555,-260.5 1555,-288.5 1681.04,-288.5 1681.04,-260.5 1555,-260.5"/>
<text text-anchor="start" x="1563" y="-276.5" font-family="Helvetica,sans-Serif" font-size="10.00">libraries/AP_HAL_Empty</text>
<text text-anchor="middle" x="1618.02" y="-266.5" font-family="Helvetica,sans-Serif" font-size="10.00">/Semaphores.h</text>
</a>
</g>
</g>
<!-- Node2&#45;&gt;Node21 -->
<g id="edge26" class="edge"><title>Node2&#45;&gt;Node21</title>
<path fill="none" stroke="midnightblue" d="M1224.44,-328.595C1315.36,-316.33 1468.71,-295.643 1554.69,-284.043"/>
<polygon fill="midnightblue" stroke="midnightblue" points="1223.93,-325.132 1214.49,-329.938 1224.87,-332.07 1223.93,-325.132"/>
</g>
<!-- Node23 -->
<g id="node23" class="node"><title>Node23</title>
<g id="a_node23"><a xlink:href="$Empty_2Storage_8h.html" xlink:title="libraries/AP_HAL_Empty\l/Storage.h">
<polygon fill="white" stroke="black" points="296,-260.5 296,-288.5 422.044,-288.5 422.044,-260.5 296,-260.5"/>
<text text-anchor="start" x="304" y="-276.5" font-family="Helvetica,sans-Serif" font-size="10.00">libraries/AP_HAL_Empty</text>
<text text-anchor="middle" x="359.022" y="-266.5" font-family="Helvetica,sans-Serif" font-size="10.00">/Storage.h</text>
</a>
</g>
</g>
<!-- Node2&#45;&gt;Node23 -->
<g id="edge30" class="edge"><title>Node2&#45;&gt;Node23</title>
<path fill="none" stroke="midnightblue" d="M1077.79,-333.007C959.436,-324.083 718.802,-305.747 515.022,-289 484.542,-286.495 450.725,-283.585 422.389,-281.109"/>
<polygon fill="midnightblue" stroke="midnightblue" points="1077.58,-336.501 1087.82,-333.763 1078.11,-329.521 1077.58,-336.501"/>
</g>
<!-- Node25 -->
<g id="node25" class="node"><title>Node25</title>
<g id="a_node25"><a xlink:href="$Empty_2GPIO_8h.html" xlink:title="libraries/AP_HAL_Empty\l/GPIO.h">
<polygon fill="white" stroke="black" points="668,-260.5 668,-288.5 794.044,-288.5 794.044,-260.5 668,-260.5"/>
<text text-anchor="start" x="676" y="-276.5" font-family="Helvetica,sans-Serif" font-size="10.00">libraries/AP_HAL_Empty</text>
<text text-anchor="middle" x="731.022" y="-266.5" font-family="Helvetica,sans-Serif" font-size="10.00">/GPIO.h</text>
</a>
</g>
</g>
<!-- Node2&#45;&gt;Node25 -->
<g id="edge33" class="edge"><title>Node2&#45;&gt;Node25</title>
<path fill="none" stroke="midnightblue" d="M1077.66,-327.496C997.418,-315.459 870.143,-296.368 794.183,-284.974"/>
<polygon fill="midnightblue" stroke="midnightblue" points="1077.28,-330.978 1087.69,-329 1078.32,-324.055 1077.28,-330.978"/>
</g>
<!-- Node27 -->
<g id="node27" class="node"><title>Node27</title>
<g id="a_node27"><a xlink:href="$Empty_2RCInput_8h.html" xlink:title="libraries/AP_HAL_Empty\l/RCInput.h">
<polygon fill="white" stroke="black" points="1016,-260.5 1016,-288.5 1142.04,-288.5 1142.04,-260.5 1016,-260.5"/>
<text text-anchor="start" x="1024" y="-276.5" font-family="Helvetica,sans-Serif" font-size="10.00">libraries/AP_HAL_Empty</text>
<text text-anchor="middle" x="1079.02" y="-266.5" font-family="Helvetica,sans-Serif" font-size="10.00">/RCInput.h</text>
</a>
</g>
</g>
<!-- Node2&#45;&gt;Node27 -->
<g id="edge36" class="edge"><title>Node2&#45;&gt;Node27</title>
<path fill="none" stroke="midnightblue" d="M1128.35,-318.665C1117.12,-308.833 1103.86,-297.234 1093.92,-288.537"/>
<polygon fill="midnightblue" stroke="midnightblue" points="1126.27,-321.495 1136.1,-325.446 1130.88,-316.227 1126.27,-321.495"/>
</g>
<!-- Node29 -->
<g id="node29" class="node"><title>Node29</title>
<g id="a_node29"><a xlink:href="$Empty_2RCOutput_8h.html" xlink:title="libraries/AP_HAL_Empty\l/RCOutput.h">
<polygon fill="white" stroke="black" points="1160,-260.5 1160,-288.5 1286.04,-288.5 1286.04,-260.5 1160,-260.5"/>
<text text-anchor="start" x="1168" y="-276.5" font-family="Helvetica,sans-Serif" font-size="10.00">libraries/AP_HAL_Empty</text>
<text text-anchor="middle" x="1223.02" y="-266.5" font-family="Helvetica,sans-Serif" font-size="10.00">/RCOutput.h</text>
</a>
</g>
</g>
<!-- Node2&#45;&gt;Node29 -->
<g id="edge39" class="edge"><title>Node2&#45;&gt;Node29</title>
<path fill="none" stroke="midnightblue" d="M1173.69,-318.665C1184.93,-308.833 1198.18,-297.234 1208.12,-288.537"/>
<polygon fill="midnightblue" stroke="midnightblue" points="1171.16,-316.227 1165.94,-325.446 1175.77,-321.495 1171.16,-316.227"/>
</g>
<!-- Node31 -->
<g id="node31" class="node"><title>Node31</title>
<g id="a_node31"><a xlink:href="$Empty_2Scheduler_8h.html" xlink:title="libraries/AP_HAL_Empty\l/Scheduler.h">
<polygon fill="white" stroke="black" points="1304,-260.5 1304,-288.5 1430.04,-288.5 1430.04,-260.5 1304,-260.5"/>
<text text-anchor="start" x="1312" y="-276.5" font-family="Helvetica,sans-Serif" font-size="10.00">libraries/AP_HAL_Empty</text>
<text text-anchor="middle" x="1367.02" y="-266.5" font-family="Helvetica,sans-Serif" font-size="10.00">/Scheduler.h</text>
</a>
</g>
</g>
<!-- Node2&#45;&gt;Node31 -->
<g id="edge42" class="edge"><title>Node2&#45;&gt;Node31</title>
<path fill="none" stroke="midnightblue" d="M1205.66,-322.565C1241.74,-312.039 1288.45,-298.416 1322.32,-288.537"/>
<polygon fill="midnightblue" stroke="midnightblue" points="1204.4,-319.286 1195.78,-325.446 1206.36,-326.006 1204.4,-319.286"/>
</g>
<!-- Node4 -->
<g id="node4" class="node"><title>Node4</title>
<g id="a_node4"><a xlink:href="$Empty_2AnalogIn_8cpp.html" xlink:title="libraries/AP_HAL_Empty\l/AnalogIn.cpp">
<polygon fill="white" stroke="black" points="1896,-195.5 1896,-223.5 2022.04,-223.5 2022.04,-195.5 1896,-195.5"/>
<text text-anchor="start" x="1904" y="-211.5" font-family="Helvetica,sans-Serif" font-size="10.00">libraries/AP_HAL_Empty</text>
<text text-anchor="middle" x="1959.02" y="-201.5" font-family="Helvetica,sans-Serif" font-size="10.00">/AnalogIn.cpp</text>
</a>
</g>
</g>
<!-- Node3&#45;&gt;Node4 -->
<g id="edge3" class="edge"><title>Node3&#45;&gt;Node4</title>
<path fill="none" stroke="midnightblue" d="M1895.44,-254.52C1909.9,-244.511 1927.26,-232.487 1940.19,-223.537"/>
<polygon fill="midnightblue" stroke="midnightblue" points="1893.11,-251.877 1886.88,-260.446 1897.09,-257.632 1893.11,-251.877"/>
</g>
<!-- Node5 -->
<g id="node5" class="node"><title>Node5</title>
<g id="a_node5"><a xlink:href="$AP__HAL__Empty__Private_8h.html" xlink:title="libraries/AP_HAL_Empty\l/AP_HAL_Empty_Private.h">
<polygon fill="white" stroke="black" points="1109.99,-130.5 1109.99,-158.5 1246.05,-158.5 1246.05,-130.5 1109.99,-130.5"/>
<text text-anchor="start" x="1117.99" y="-146.5" font-family="Helvetica,sans-Serif" font-size="10.00">libraries/AP_HAL_Empty</text>
<text text-anchor="middle" x="1178.02" y="-136.5" font-family="Helvetica,sans-Serif" font-size="10.00">/AP_HAL_Empty_Private.h</text>
</a>
</g>
</g>
<!-- Node3&#45;&gt;Node5 -->
<g id="edge4" class="edge"><title>Node3&#45;&gt;Node5</title>
<path fill="none" stroke="midnightblue" d="M1869.17,-250.022C1868.65,-232.101 1864.7,-208.295 1849.02,-195 1803.79,-156.629 1407.89,-147.986 1246.28,-146.052"/>
<polygon fill="midnightblue" stroke="midnightblue" points="1865.67,-250.257 1869.12,-260.274 1872.67,-250.291 1865.67,-250.257"/>
</g>
<!-- Node5&#45;&gt;Node6 -->
<g id="edge5" class="edge"><title>Node5&#45;&gt;Node6</title>
<path fill="none" stroke="midnightblue" d="M1256.24,-138.757C1454.41,-126.741 1973.29,-95.2785 2153.93,-84.3255"/>
<polygon fill="midnightblue" stroke="midnightblue" points="1255.96,-135.267 1246.19,-139.366 1256.39,-142.255 1255.96,-135.267"/>
</g>
<!-- Node5&#45;&gt;Node7 -->
<g id="edge6" class="edge"><title>Node5&#45;&gt;Node7</title>
<path fill="none" stroke="midnightblue" d="M1256.2,-136.631C1400.11,-123.986 1704.09,-97.2762 1834.03,-85.859"/>
<polygon fill="midnightblue" stroke="midnightblue" points="1255.78,-133.154 1246.12,-137.516 1256.39,-140.128 1255.78,-133.154"/>
</g>
<!-- Node5&#45;&gt;Node8 -->
<g id="edge7" class="edge"><title>Node5&#45;&gt;Node8</title>
<path fill="none" stroke="midnightblue" d="M1130.94,-127.023C1101.09,-116.575 1063.01,-103.247 1035.27,-93.5369"/>
<polygon fill="midnightblue" stroke="midnightblue" points="1130.13,-130.446 1140.73,-130.446 1132.44,-123.839 1130.13,-130.446"/>
</g>
<!-- Node5&#45;&gt;Node9 -->
<g id="edge10" class="edge"><title>Node5&#45;&gt;Node9</title>
<path fill="none" stroke="midnightblue" d="M1190.05,-121.283C1194.25,-112.902 1198.73,-103.175 1202.02,-94 1210.07,-71.5629 1215.81,-44.3082 1218.76,-28.5286"/>
<polygon fill="midnightblue" stroke="midnightblue" points="1186.82,-119.899 1185.34,-130.388 1193.04,-123.116 1186.82,-119.899"/>
</g>
<!-- Node5&#45;&gt;Node11 -->
<g id="edge11" class="edge"><title>Node5&#45;&gt;Node11</title>
<path fill="none" stroke="midnightblue" d="M1163.16,-122.221C1156.52,-112.713 1148.91,-101.812 1143.13,-93.5369"/>
<polygon fill="midnightblue" stroke="midnightblue" points="1160.31,-124.252 1168.91,-130.446 1166.05,-120.244 1160.31,-124.252"/>
</g>
<!-- Node5&#45;&gt;Node12 -->
<g id="edge12" class="edge"><title>Node5&#45;&gt;Node12</title>
<path fill="none" stroke="midnightblue" d="M1256.66,-131.843C1335.44,-120.165 1455.63,-102.348 1531.72,-91.07"/>
<polygon fill="midnightblue" stroke="midnightblue" points="1255.68,-128.449 1246.31,-133.378 1256.71,-135.374 1255.68,-128.449"/>
</g>
<!-- Node8&#45;&gt;Node9 -->
<g id="edge8" class="edge"><title>Node8&#45;&gt;Node9</title>
<path fill="none" stroke="midnightblue" d="M1053.95,-62.7001C1091.27,-52.1558 1139.76,-38.4581 1174.88,-28.5369"/>
<polygon fill="midnightblue" stroke="midnightblue" points="1052.9,-59.3594 1044.23,-65.4464 1054.8,-66.0958 1052.9,-59.3594"/>
</g>
<!-- Node10 -->
<g id="node10" class="node"><title>Node10</title>
<g id="a_node10"><a xlink:href="$AP__HAL__PX4_2I2CDriver_8cpp.html" xlink:title="libraries/AP_HAL_PX4\l/I2CDriver.cpp">
<polygon fill="white" stroke="black" points="939.719,-0.5 939.719,-28.5 1056.32,-28.5 1056.32,-0.5 939.719,-0.5"/>
<text text-anchor="start" x="947.719" y="-16.5" font-family="Helvetica,sans-Serif" font-size="10.00">libraries/AP_HAL_PX4</text>
<text text-anchor="middle" x="998.022" y="-6.5" font-family="Helvetica,sans-Serif" font-size="10.00">/I2CDriver.cpp</text>
</a>
</g>
</g>
<!-- Node8&#45;&gt;Node10 -->
<g id="edge9" class="edge"><title>Node8&#45;&gt;Node10</title>
<path fill="none" stroke="midnightblue" d="M998.022,-55.1641C998.022,-46.1693 998.022,-36.2205 998.022,-28.5369"/>
<polygon fill="midnightblue" stroke="midnightblue" points="994.522,-55.4463 998.022,-65.4464 1001.52,-55.4464 994.522,-55.4463"/>
</g>
<!-- Node13&#45;&gt;Node1 -->
<g id="edge14" class="edge"><title>Node13&#45;&gt;Node1</title>
<path fill="none" stroke="midnightblue" d="M136.673,-288.51C137.797,-288.677 138.914,-288.84 140.022,-289 497.342,-340.509 928.494,-382.751 1087.85,-397.693"/>
<polygon fill="midnightblue" stroke="midnightblue" points="136.839,-284.994 126.422,-286.93 135.772,-291.913 136.839,-284.994"/>
</g>
<!-- Node13&#45;&gt;Node5 -->
<g id="edge15" class="edge"><title>Node13&#45;&gt;Node5</title>
<path fill="none" stroke="midnightblue" d="M99.868,-256.153C141.747,-237.352 212.657,-208.264 277.022,-195 436.019,-162.234 928.097,-150.078 1109.74,-146.637"/>
<polygon fill="midnightblue" stroke="midnightblue" points="98.2866,-253.027 90.6268,-260.347 101.179,-259.402 98.2866,-253.027"/>
</g>
<!-- Node14 -->
<g id="node14" class="node"><title>Node14</title>
<g id="a_node14"><a xlink:href="$PrivateMember_8cpp.html" xlink:title="libraries/AP_HAL_Empty\l/PrivateMember.cpp">
<polygon fill="white" stroke="black" points="0,-195.5 0,-223.5 126.044,-223.5 126.044,-195.5 0,-195.5"/>
<text text-anchor="start" x="8" y="-211.5" font-family="Helvetica,sans-Serif" font-size="10.00">libraries/AP_HAL_Empty</text>
<text text-anchor="middle" x="63.022" y="-201.5" font-family="Helvetica,sans-Serif" font-size="10.00">/PrivateMember.cpp</text>
</a>
</g>
</g>
<!-- Node13&#45;&gt;Node14 -->
<g id="edge16" class="edge"><title>Node13&#45;&gt;Node14</title>
<path fill="none" stroke="midnightblue" d="M63.022,-250.164C63.022,-241.169 63.022,-231.221 63.022,-223.537"/>
<polygon fill="midnightblue" stroke="midnightblue" points="59.5221,-250.446 63.022,-260.446 66.5221,-250.446 59.5221,-250.446"/>
</g>
<!-- Node15&#45;&gt;Node5 -->
<g id="edge18" class="edge"><title>Node15&#45;&gt;Node5</title>
<path fill="none" stroke="midnightblue" d="M595.967,-251.046C604.58,-232.632 619.489,-207.619 641.022,-195 718.769,-149.438 983.23,-144.408 1109.64,-144.716"/>
<polygon fill="midnightblue" stroke="midnightblue" points="592.752,-249.661 591.931,-260.224 599.16,-252.479 592.752,-249.661"/>
</g>
<!-- Node16 -->
<g id="node16" class="node"><title>Node16</title>
<g id="a_node16"><a xlink:href="$Empty_2UARTDriver_8cpp.html" xlink:title="libraries/AP_HAL_Empty\l/UARTDriver.cpp">
<polygon fill="white" stroke="black" points="440,-195.5 440,-223.5 566.044,-223.5 566.044,-195.5 440,-195.5"/>
<text text-anchor="start" x="448" y="-211.5" font-family="Helvetica,sans-Serif" font-size="10.00">libraries/AP_HAL_Empty</text>
<text text-anchor="middle" x="503.022" y="-201.5" font-family="Helvetica,sans-Serif" font-size="10.00">/UARTDriver.cpp</text>
</a>
</g>
</g>
<!-- Node15&#45;&gt;Node16 -->
<g id="edge19" class="edge"><title>Node15&#45;&gt;Node16</title>
<path fill="none" stroke="midnightblue" d="M561.337,-254.236C548.067,-244.284 532.225,-232.403 520.405,-223.537"/>
<polygon fill="midnightblue" stroke="midnightblue" points="559.517,-257.246 569.617,-260.446 563.717,-251.646 559.517,-257.246"/>
</g>
<!-- Node17&#45;&gt;Node5 -->
<g id="edge21" class="edge"><title>Node17&#45;&gt;Node5</title>
<path fill="none" stroke="midnightblue" d="M949.74,-251.745C962.816,-234.018 983.468,-209.609 1007.02,-195 1038.15,-175.696 1077.1,-163.657 1109.96,-156.294"/>
<polygon fill="midnightblue" stroke="midnightblue" points="946.581,-250.147 943.618,-260.319 952.277,-254.215 946.581,-250.147"/>
</g>
<!-- Node18 -->
<g id="node18" class="node"><title>Node18</title>
<g id="a_node18"><a xlink:href="$AP__HAL__Empty_2I2CDriver_8cpp.html" xlink:title="libraries/AP_HAL_Empty\l/I2CDriver.cpp">
<polygon fill="white" stroke="black" points="804,-195.5 804,-223.5 930.044,-223.5 930.044,-195.5 804,-195.5"/>
<text text-anchor="start" x="812" y="-211.5" font-family="Helvetica,sans-Serif" font-size="10.00">libraries/AP_HAL_Empty</text>
<text text-anchor="middle" x="867.022" y="-201.5" font-family="Helvetica,sans-Serif" font-size="10.00">/I2CDriver.cpp</text>
</a>
</g>
</g>
<!-- Node17&#45;&gt;Node18 -->
<g id="edge22" class="edge"><title>Node17&#45;&gt;Node18</title>
<path fill="none" stroke="midnightblue" d="M913.304,-253.379C902.757,-243.608 890.39,-232.149 881.094,-223.537"/>
<polygon fill="midnightblue" stroke="midnightblue" points="911.218,-256.218 920.932,-260.446 915.975,-251.083 911.218,-256.218"/>
</g>
<!-- Node19&#45;&gt;Node5 -->
<g id="edge24" class="edge"><title>Node19&#45;&gt;Node5</title>
<path fill="none" stroke="midnightblue" d="M1703.37,-195.462C1702.25,-195.304 1701.13,-195.15 1700.02,-195 1537.86,-173.131 1346.07,-157.568 1246.21,-150.238"/>
<polygon fill="midnightblue" stroke="midnightblue" points="1703.23,-198.978 1713.63,-196.978 1704.25,-192.053 1703.23,-198.978"/>
</g>
<!-- Node20 -->
<g id="node20" class="node"><title>Node20</title>
<g id="a_node20"><a xlink:href="$AP__HAL__Empty_2SPIDriver_8cpp.html" xlink:title="libraries/AP_HAL_Empty\l/SPIDriver.cpp">
<polygon fill="white" stroke="black" points="1714,-130.5 1714,-158.5 1840.04,-158.5 1840.04,-130.5 1714,-130.5"/>
<text text-anchor="start" x="1722" y="-146.5" font-family="Helvetica,sans-Serif" font-size="10.00">libraries/AP_HAL_Empty</text>
<text text-anchor="middle" x="1777.02" y="-136.5" font-family="Helvetica,sans-Serif" font-size="10.00">/SPIDriver.cpp</text>
</a>
</g>
</g>
<!-- Node19&#45;&gt;Node20 -->
<g id="edge25" class="edge"><title>Node19&#45;&gt;Node20</title>
<path fill="none" stroke="midnightblue" d="M1777.02,-185.164C1777.02,-176.169 1777.02,-166.221 1777.02,-158.537"/>
<polygon fill="midnightblue" stroke="midnightblue" points="1773.52,-185.446 1777.02,-195.446 1780.52,-185.446 1773.52,-185.446"/>
</g>
<!-- Node21&#45;&gt;Node5 -->
<g id="edge28" class="edge"><title>Node21&#45;&gt;Node5</title>
<path fill="none" stroke="midnightblue" d="M1644.13,-253.855C1663.27,-237.129 1683.31,-213.017 1667.02,-195 1639.34,-164.377 1374.13,-151.767 1246.28,-147.435"/>
<polygon fill="midnightblue" stroke="midnightblue" points="1641.82,-251.226 1636.37,-260.312 1646.3,-256.608 1641.82,-251.226"/>
</g>
<!-- Node21&#45;&gt;Node19 -->
<g id="edge27" class="edge"><title>Node21&#45;&gt;Node19</title>
<path fill="none" stroke="midnightblue" d="M1660.3,-256.75C1686.56,-246.343 1719.83,-233.163 1744.12,-223.537"/>
<polygon fill="midnightblue" stroke="midnightblue" points="1658.97,-253.509 1650.97,-260.446 1661.55,-260.017 1658.97,-253.509"/>
</g>
<!-- Node22 -->
<g id="node22" class="node"><title>Node22</title>
<g id="a_node22"><a xlink:href="$AP__HAL__Empty_2Semaphores_8cpp.html" xlink:title="libraries/AP_HAL_Empty\l/Semaphores.cpp">
<polygon fill="white" stroke="black" points="1532,-195.5 1532,-223.5 1658.04,-223.5 1658.04,-195.5 1532,-195.5"/>
<text text-anchor="start" x="1540" y="-211.5" font-family="Helvetica,sans-Serif" font-size="10.00">libraries/AP_HAL_Empty</text>
<text text-anchor="middle" x="1595.02" y="-201.5" font-family="Helvetica,sans-Serif" font-size="10.00">/Semaphores.cpp</text>
</a>
</g>
</g>
<!-- Node21&#45;&gt;Node22 -->
<g id="edge29" class="edge"><title>Node21&#45;&gt;Node22</title>
<path fill="none" stroke="midnightblue" d="M1609.83,-251.051C1606.46,-241.828 1602.68,-231.474 1599.78,-223.537"/>
<polygon fill="midnightblue" stroke="midnightblue" points="1606.54,-252.253 1613.26,-260.446 1613.11,-249.852 1606.54,-252.253"/>
</g>
<!-- Node23&#45;&gt;Node5 -->
<g id="edge31" class="edge"><title>Node23&#45;&gt;Node5</title>
<path fill="none" stroke="midnightblue" d="M323.615,-255.36C296.819,-239.355 267.669,-215.458 287.022,-195 315.203,-165.21 906.364,-150.835 1109.89,-146.755"/>
<polygon fill="midnightblue" stroke="midnightblue" points="322.121,-258.538 332.538,-260.469 325.599,-252.463 322.121,-258.538"/>
</g>
<!-- Node24 -->
<g id="node24" class="node"><title>Node24</title>
<g id="a_node24"><a xlink:href="$Empty_2Storage_8cpp.html" xlink:title="libraries/AP_HAL_Empty\l/Storage.cpp">
<polygon fill="white" stroke="black" points="296,-195.5 296,-223.5 422.044,-223.5 422.044,-195.5 296,-195.5"/>
<text text-anchor="start" x="304" y="-211.5" font-family="Helvetica,sans-Serif" font-size="10.00">libraries/AP_HAL_Empty</text>
<text text-anchor="middle" x="359.022" y="-201.5" font-family="Helvetica,sans-Serif" font-size="10.00">/Storage.cpp</text>
</a>
</g>
</g>
<!-- Node23&#45;&gt;Node24 -->
<g id="edge32" class="edge"><title>Node23&#45;&gt;Node24</title>
<path fill="none" stroke="midnightblue" d="M359.022,-250.164C359.022,-241.169 359.022,-231.221 359.022,-223.537"/>
<polygon fill="midnightblue" stroke="midnightblue" points="355.522,-250.446 359.022,-260.446 362.522,-250.446 355.522,-250.446"/>
</g>
<!-- Node25&#45;&gt;Node5 -->
<g id="edge34" class="edge"><title>Node25&#45;&gt;Node5</title>
<path fill="none" stroke="midnightblue" d="M692.164,-255.926C662.961,-240.381 631.136,-216.841 651.022,-195 681.337,-161.704 974.15,-150.377 1109.74,-146.896"/>
<polygon fill="midnightblue" stroke="midnightblue" points="690.585,-259.049 701.083,-260.482 693.77,-252.816 690.585,-259.049"/>
</g>
<!-- Node26 -->
<g id="node26" class="node"><title>Node26</title>
<g id="a_node26"><a xlink:href="$AP__HAL__Empty_2GPIO_8cpp.html" xlink:title="libraries/AP_HAL_Empty\l/GPIO.cpp">
<polygon fill="white" stroke="black" points="660,-195.5 660,-223.5 786.044,-223.5 786.044,-195.5 660,-195.5"/>
<text text-anchor="start" x="668" y="-211.5" font-family="Helvetica,sans-Serif" font-size="10.00">libraries/AP_HAL_Empty</text>
<text text-anchor="middle" x="723.022" y="-201.5" font-family="Helvetica,sans-Serif" font-size="10.00">/GPIO.cpp</text>
</a>
</g>
</g>
<!-- Node25&#45;&gt;Node26 -->
<g id="edge35" class="edge"><title>Node25&#45;&gt;Node26</title>
<path fill="none" stroke="midnightblue" d="M728.096,-250.46C726.944,-241.388 725.664,-231.305 724.677,-223.537"/>
<polygon fill="midnightblue" stroke="midnightblue" points="724.632,-250.967 729.364,-260.446 731.577,-250.085 724.632,-250.967"/>
</g>
<!-- Node27&#45;&gt;Node5 -->
<g id="edge37" class="edge"><title>Node27&#45;&gt;Node5</title>
<path fill="none" stroke="midnightblue" d="M1046.63,-254.843C1023.65,-239.176 999.421,-216.042 1015.02,-195 1036.78,-165.66 1075.48,-153.108 1109.71,-147.975"/>
<polygon fill="midnightblue" stroke="midnightblue" points="1045,-257.956 1055.3,-260.462 1048.81,-252.084 1045,-257.956"/>
</g>
<!-- Node28 -->
<g id="node28" class="node"><title>Node28</title>
<g id="a_node28"><a xlink:href="$Empty_2RCInput_8cpp.html" xlink:title="libraries/AP_HAL_Empty\l/RCInput.cpp">
<polygon fill="white" stroke="black" points="1024,-195.5 1024,-223.5 1150.04,-223.5 1150.04,-195.5 1024,-195.5"/>
<text text-anchor="start" x="1032" y="-211.5" font-family="Helvetica,sans-Serif" font-size="10.00">libraries/AP_HAL_Empty</text>
<text text-anchor="middle" x="1087.02" y="-201.5" font-family="Helvetica,sans-Serif" font-size="10.00">/RCInput.cpp</text>
</a>
</g>
</g>
<!-- Node27&#45;&gt;Node28 -->
<g id="edge38" class="edge"><title>Node27&#45;&gt;Node28</title>
<path fill="none" stroke="midnightblue" d="M1081.95,-250.46C1083.1,-241.388 1084.38,-231.305 1085.37,-223.537"/>
<polygon fill="midnightblue" stroke="midnightblue" points="1078.47,-250.085 1080.68,-260.446 1085.41,-250.967 1078.47,-250.085"/>
</g>
<!-- Node29&#45;&gt;Node5 -->
<g id="edge40" class="edge"><title>Node29&#45;&gt;Node5</title>
<path fill="none" stroke="midnightblue" d="M1210.06,-251.658C1205.46,-243.229 1200.56,-233.371 1197.02,-224 1188.61,-201.695 1182.99,-174.397 1180.17,-158.573"/>
<polygon fill="midnightblue" stroke="midnightblue" points="1207.07,-253.481 1215.04,-260.467 1213.17,-250.039 1207.07,-253.481"/>
</g>
<!-- Node30 -->
<g id="node30" class="node"><title>Node30</title>
<g id="a_node30"><a xlink:href="$Empty_2RCOutput_8cpp.html" xlink:title="libraries/AP_HAL_Empty\l/RCOutput.cpp">
<polygon fill="white" stroke="black" points="1206,-195.5 1206,-223.5 1332.04,-223.5 1332.04,-195.5 1206,-195.5"/>
<text text-anchor="start" x="1214" y="-211.5" font-family="Helvetica,sans-Serif" font-size="10.00">libraries/AP_HAL_Empty</text>
<text text-anchor="middle" x="1269.02" y="-201.5" font-family="Helvetica,sans-Serif" font-size="10.00">/RCOutput.cpp</text>
</a>
</g>
</g>
<!-- Node29&#45;&gt;Node30 -->
<g id="edge41" class="edge"><title>Node29&#45;&gt;Node30</title>
<path fill="none" stroke="midnightblue" d="M1238.56,-252.221C1245.5,-242.713 1253.46,-231.812 1259.5,-223.537"/>
<polygon fill="midnightblue" stroke="midnightblue" points="1235.62,-250.306 1232.55,-260.446 1241.28,-254.434 1235.62,-250.306"/>
</g>
<!-- Node31&#45;&gt;Node5 -->
<g id="edge43" class="edge"><title>Node31&#45;&gt;Node5</title>
<path fill="none" stroke="midnightblue" d="M1365.04,-250.491C1362.35,-233.029 1356,-209.61 1341.02,-195 1315.83,-170.427 1278.83,-158.004 1246.46,-151.744"/>
<polygon fill="midnightblue" stroke="midnightblue" points="1361.58,-250.974 1366.29,-260.462 1368.52,-250.105 1361.58,-250.974"/>
</g>
<!-- Node32 -->
<g id="node32" class="node"><title>Node32</title>
<g id="a_node32"><a xlink:href="$AP__HAL__Empty_2Scheduler_8cpp.html" xlink:title="libraries/AP_HAL_Empty\l/Scheduler.cpp">
<polygon fill="white" stroke="black" points="1388,-195.5 1388,-223.5 1514.04,-223.5 1514.04,-195.5 1388,-195.5"/>
<text text-anchor="start" x="1396" y="-211.5" font-family="Helvetica,sans-Serif" font-size="10.00">libraries/AP_HAL_Empty</text>
<text text-anchor="middle" x="1451.02" y="-201.5" font-family="Helvetica,sans-Serif" font-size="10.00">/Scheduler.cpp</text>
</a>
</g>
</g>
<!-- Node31&#45;&gt;Node32 -->
<g id="edge44" class="edge"><title>Node31&#45;&gt;Node32</title>
<path fill="none" stroke="midnightblue" d="M1392.71,-254.236C1405.98,-244.284 1421.82,-232.403 1433.64,-223.537"/>
<polygon fill="midnightblue" stroke="midnightblue" points="1390.33,-251.646 1384.43,-260.446 1394.53,-257.246 1390.33,-251.646"/>
</g>
</g>
</svg>
