<?xml version="1.0" encoding="UTF-8" standalone="no"?>
<!DOCTYPE svg PUBLIC "-//W3C//DTD SVG 1.1//EN"
 "http://www.w3.org/Graphics/SVG/1.1/DTD/svg11.dtd">
<!-- Generated by graphviz version 2.38.0 (20140413.2041)
 -->
<!-- Title: hal_px4_set_priority Pages: 1 -->
<svg width="540pt" height="140pt"
 viewBox="0.00 0.00 539.64 140.00" xmlns="http://www.w3.org/2000/svg" xmlns:xlink="http://www.w3.org/1999/xlink">
<g id="graph0" class="graph" transform="scale(1 1) rotate(0) translate(4 136)">
<title>hal_px4_set_priority</title>
<polygon fill="white" stroke="none" points="-4,4 -4,-136 535.639,-136 535.639,4 -4,4"/>
<!-- Node1 -->
<g id="node1" class="node"><title>Node1</title>
<polygon fill="#bfbfbf" stroke="black" points="0,-56.5 0,-74.5 105.497,-74.5 105.497,-56.5 0,-56.5"/>
<text text-anchor="middle" x="52.7485" y="-62.5" font-family="Helvetica,sans-Serif" font-size="10.00">hal_px4_set_priority</text>
</g>
<!-- Node2 -->
<g id="node2" class="node"><title>Node2</title>
<g id="a_node2"><a xlink:href="$HAL__PX4__Class_8cpp.html#a40474356ac2f5b07b6f59d651681b740" xlink:title="loop_overtime">
<polygon fill="white" stroke="black" points="152.608,-113.5 152.608,-131.5 231.42,-131.5 231.42,-113.5 152.608,-113.5"/>
<text text-anchor="middle" x="192.014" y="-119.5" font-family="Helvetica,sans-Serif" font-size="10.00">loop_overtime</text>
</a>
</g>
</g>
<!-- Node1&#45;&gt;Node2 -->
<g id="edge1" class="edge"><title>Node1&#45;&gt;Node2</title>
<path fill="none" stroke="midnightblue" d="M84.7734,-78.3832C110.39,-89.0207 146.12,-103.857 168.911,-113.322"/>
<polygon fill="midnightblue" stroke="midnightblue" points="86.0764,-75.1345 75.4987,-74.5318 83.3918,-81.5993 86.0764,-75.1345"/>
</g>
<!-- Node3 -->
<g id="node3" class="node"><title>Node3</title>
<g id="a_node3"><a xlink:href="$HAL__PX4__Class_8cpp.html#a9bd6e6ad19a651d2c83ab3edb8d51924" xlink:title="main_loop">
<polygon fill="white" stroke="black" points="316.051,-85.5 316.051,-103.5 378.193,-103.5 378.193,-85.5 316.051,-85.5"/>
<text text-anchor="middle" x="347.122" y="-91.5" font-family="Helvetica,sans-Serif" font-size="10.00">main_loop</text>
</a>
</g>
</g>
<!-- Node1&#45;&gt;Node3 -->
<g id="edge4" class="edge"><title>Node1&#45;&gt;Node3</title>
<path fill="none" stroke="midnightblue" d="M115.645,-71.6394C177.057,-77.7308 268.614,-86.8121 315.714,-91.4839"/>
<polygon fill="midnightblue" stroke="midnightblue" points="115.979,-68.1554 105.682,-70.6512 115.288,-75.1212 115.979,-68.1554"/>
</g>
<!-- Node5 -->
<g id="node5" class="node"><title>Node5</title>
<g id="a_node5"><a xlink:href="$AP__HAL__PX4_2Scheduler_8cpp.html#a89d08a7ad0653f3222b479fe73d3399a" xlink:title="sem_post_boost">
<polygon fill="white" stroke="black" points="147.325,-37.5 147.325,-55.5 236.704,-55.5 236.704,-37.5 147.325,-37.5"/>
<text text-anchor="middle" x="192.014" y="-43.5" font-family="Helvetica,sans-Serif" font-size="10.00">sem_post_boost</text>
</a>
</g>
</g>
<!-- Node1&#45;&gt;Node5 -->
<g id="edge5" class="edge"><title>Node1&#45;&gt;Node5</title>
<path fill="none" stroke="midnightblue" d="M115.704,-56.9242C126.302,-55.4573 137.114,-53.9608 147.116,-52.5762"/>
<polygon fill="midnightblue" stroke="midnightblue" points="115.068,-53.4788 105.643,-58.3169 116.028,-60.4127 115.068,-53.4788"/>
</g>
<!-- Node7 -->
<g id="node7" class="node"><title>Node7</title>
<g id="a_node7"><a xlink:href="$AP__HAL__PX4_2Scheduler_8cpp.html#a0b35fd667b5bbd34d3588f2c4105c8d9" xlink:title="set_normal_priority">
<polygon fill="white" stroke="black" points="141.497,-0.5 141.497,-18.5 242.531,-18.5 242.531,-0.5 141.497,-0.5"/>
<text text-anchor="middle" x="192.014" y="-6.5" font-family="Helvetica,sans-Serif" font-size="10.00">set_normal_priority</text>
</a>
</g>
</g>
<!-- Node1&#45;&gt;Node7 -->
<g id="edge7" class="edge"><title>Node1&#45;&gt;Node7</title>
<path fill="none" stroke="midnightblue" d="M83.189,-52.2258C100.137,-44.7165 121.897,-35.2981 141.497,-27.5 149.146,-24.4566 157.537,-21.3284 165.203,-18.5511"/>
<polygon fill="midnightblue" stroke="midnightblue" points="81.5295,-49.1334 73.8191,-56.3998 84.378,-55.5277 81.5295,-49.1334"/>
</g>
<!-- Node2&#45;&gt;Node3 -->
<g id="edge2" class="edge"><title>Node2&#45;&gt;Node3</title>
<path fill="none" stroke="midnightblue" d="M241.749,-113.587C266.012,-109.15 294.589,-103.924 315.701,-100.063"/>
<polygon fill="midnightblue" stroke="midnightblue" points="240.857,-110.192 231.65,-115.434 242.116,-117.078 240.857,-110.192"/>
</g>
<!-- Node4 -->
<g id="node4" class="node"><title>Node4</title>
<g id="a_node4"><a xlink:href="$classHAL__PX4.html#a05883e9a7a7b3b208a1d0173cf2cd557" xlink:title="HAL_PX4::run">
<polygon fill="white" stroke="black" points="451.713,-85.5 451.713,-103.5 531.639,-103.5 531.639,-85.5 451.713,-85.5"/>
<text text-anchor="middle" x="491.676" y="-91.5" font-family="Helvetica,sans-Serif" font-size="10.00">HAL_PX4::run</text>
</a>
</g>
</g>
<!-- Node3&#45;&gt;Node4 -->
<g id="edge3" class="edge"><title>Node3&#45;&gt;Node4</title>
<path fill="none" stroke="midnightblue" d="M388.575,-94.5C408.32,-94.5 431.973,-94.5 451.54,-94.5"/>
<polygon fill="midnightblue" stroke="midnightblue" points="388.354,-91.0001 378.354,-94.5 388.354,-98.0001 388.354,-91.0001"/>
</g>
<!-- Node6 -->
<g id="node6" class="node"><title>Node6</title>
<g id="a_node6"><a xlink:href="$classPX4_1_1PX4Scheduler.html#a9c3c85945b3b9f6e5867efd79c9920fc" xlink:title="PX4::PX4Scheduler::\ldelay_microseconds_boost">
<polygon fill="white" stroke="black" points="278.531,-22.5 278.531,-50.5 415.713,-50.5 415.713,-22.5 278.531,-22.5"/>
<text text-anchor="start" x="286.531" y="-38.5" font-family="Helvetica,sans-Serif" font-size="10.00">PX4::PX4Scheduler::</text>
<text text-anchor="middle" x="347.122" y="-28.5" font-family="Helvetica,sans-Serif" font-size="10.00">delay_microseconds_boost</text>
</a>
</g>
</g>
<!-- Node5&#45;&gt;Node6 -->
<g id="edge6" class="edge"><title>Node5&#45;&gt;Node6</title>
<path fill="none" stroke="midnightblue" d="M247.138,-42.965C257.202,-42.3077 267.833,-41.6133 278.248,-40.9331"/>
<polygon fill="midnightblue" stroke="midnightblue" points="246.639,-39.49 236.889,-43.6344 247.096,-46.4751 246.639,-39.49"/>
</g>
<!-- Node7&#45;&gt;Node6 -->
<g id="edge8" class="edge"><title>Node7&#45;&gt;Node6</title>
<path fill="none" stroke="midnightblue" d="M252.765,-20.0368C261.135,-21.5128 269.787,-23.0385 278.293,-24.5386"/>
<polygon fill="midnightblue" stroke="midnightblue" points="253.18,-16.5561 242.724,-18.2661 251.964,-23.4497 253.18,-16.5561"/>
</g>
</g>
</svg>
