<?xml version="1.0" encoding="UTF-8" standalone="no"?>
<!DOCTYPE svg PUBLIC "-//W3C//DTD SVG 1.1//EN"
 "http://www.w3.org/Graphics/SVG/1.1/DTD/svg11.dtd">
<!-- Generated by graphviz version 2.38.0 (20140413.2041)
 -->
<!-- Title: libraries/AP_HAL_PX4/HAL_PX4_Class.h Pages: 1 -->
<svg width="1376pt" height="587pt"
 viewBox="0.00 0.00 1375.92 587.00" xmlns="http://www.w3.org/2000/svg" xmlns:xlink="http://www.w3.org/1999/xlink">
<g id="graph0" class="graph" transform="scale(1 1) rotate(0) translate(4 583)">
<title>libraries/AP_HAL_PX4/HAL_PX4_Class.h</title>
<polygon fill="white" stroke="none" points="-4,4 -4,-583 1371.92,-583 1371.92,4 -4,4"/>
<!-- Node1 -->
<g id="node1" class="node"><title>Node1</title>
<polygon fill="#bfbfbf" stroke="black" points="652.099,-550.5 652.099,-578.5 768.704,-578.5 768.704,-550.5 652.099,-550.5"/>
<text text-anchor="start" x="660.099" y="-566.5" font-family="Helvetica,sans-Serif" font-size="10.00">libraries/AP_HAL_PX4</text>
<text text-anchor="middle" x="710.401" y="-556.5" font-family="Helvetica,sans-Serif" font-size="10.00">/HAL_PX4_Class.h</text>
</g>
<!-- Node2 -->
<g id="node2" class="node"><title>Node2</title>
<g id="a_node2"><a xlink:href="$AP__HAL_8h.html" xlink:title="AP_HAL/AP_HAL.h">
<polygon fill="white" stroke="black" points="572.488,-440.5 572.488,-458.5 676.315,-458.5 676.315,-440.5 572.488,-440.5"/>
<text text-anchor="middle" x="624.401" y="-446.5" font-family="Helvetica,sans-Serif" font-size="10.00">AP_HAL/AP_HAL.h</text>
</a>
</g>
</g>
<!-- Node1&#45;&gt;Node2 -->
<g id="edge1" class="edge"><title>Node1&#45;&gt;Node2</title>
<path fill="none" stroke="midnightblue" d="M700.198,-550.094C684.4,-529.335 654.059,-489.469 636.945,-466.982"/>
<polygon fill="midnightblue" stroke="midnightblue" points="639.538,-464.61 630.697,-458.772 633.968,-468.849 639.538,-464.61"/>
</g>
<!-- Node30 -->
<g id="node30" class="node"><title>Node30</title>
<g id="a_node30"><a xlink:href="$AP__HAL__PX4_8h.html" xlink:title="AP_HAL_PX4.h">
<polygon fill="white" stroke="black" points="544.823,-495.5 544.823,-513.5 631.98,-513.5 631.98,-495.5 544.823,-495.5"/>
<text text-anchor="middle" x="588.401" y="-501.5" font-family="Helvetica,sans-Serif" font-size="10.00">AP_HAL_PX4.h</text>
</a>
</g>
</g>
<!-- Node1&#45;&gt;Node30 -->
<g id="edge68" class="edge"><title>Node1&#45;&gt;Node30</title>
<path fill="none" stroke="midnightblue" d="M677.282,-550.484C655.704,-540.87 628.326,-527.85 609.597,-518.29"/>
<polygon fill="midnightblue" stroke="midnightblue" points="611.154,-515.155 600.668,-513.643 607.923,-521.365 611.154,-515.155"/>
</g>
<!-- Node31 -->
<g id="node31" class="node"><title>Node31</title>
<g id="a_node31"><a xlink:href="$AP__HAL__PX4__Namespace_8h.html" xlink:title="AP_HAL_PX4_Namespace.h">
<polygon fill="white" stroke="black" points="688.362,-495.5 688.362,-513.5 834.44,-513.5 834.44,-495.5 688.362,-495.5"/>
<text text-anchor="middle" x="761.401" y="-501.5" font-family="Helvetica,sans-Serif" font-size="10.00">AP_HAL_PX4_Namespace.h</text>
</a>
</g>
</g>
<!-- Node1&#45;&gt;Node31 -->
<g id="edge71" class="edge"><title>Node1&#45;&gt;Node31</title>
<path fill="none" stroke="midnightblue" d="M721.974,-550.339C729.534,-541.741 739.451,-530.463 747.447,-521.37"/>
<polygon fill="midnightblue" stroke="midnightblue" points="750.153,-523.592 754.128,-513.771 744.896,-518.97 750.153,-523.592"/>
</g>
<!-- Node32 -->
<g id="node32" class="node"><title>Node32</title>
<polygon fill="white" stroke="#bfbfbf" points="852.149,-495.5 852.149,-513.5 954.653,-513.5 954.653,-495.5 852.149,-495.5"/>
<text text-anchor="middle" x="903.401" y="-501.5" font-family="Helvetica,sans-Serif" font-size="10.00">systemlib/visibility.h</text>
</g>
<!-- Node1&#45;&gt;Node32 -->
<g id="edge72" class="edge"><title>Node1&#45;&gt;Node32</title>
<path fill="none" stroke="midnightblue" d="M753.714,-550.484C787.711,-540.267 834.515,-526.202 866.688,-516.533"/>
<polygon fill="midnightblue" stroke="midnightblue" points="868.016,-519.789 876.585,-513.559 866.001,-513.085 868.016,-519.789"/>
</g>
<!-- Node33 -->
<g id="node33" class="node"><title>Node33</title>
<polygon fill="white" stroke="#bfbfbf" points="972.205,-495.5 972.205,-513.5 1096.6,-513.5 1096.6,-495.5 972.205,-495.5"/>
<text text-anchor="middle" x="1034.4" y="-501.5" font-family="Helvetica,sans-Serif" font-size="10.00">systemlib/perf_counter.h</text>
</g>
<!-- Node1&#45;&gt;Node33 -->
<g id="edge73" class="edge"><title>Node1&#45;&gt;Node33</title>
<path fill="none" stroke="midnightblue" d="M769.075,-552.997C828.942,-542.28 921.119,-525.779 979.559,-515.317"/>
<polygon fill="midnightblue" stroke="midnightblue" points="980.48,-518.708 989.707,-513.501 979.246,-511.818 980.48,-518.708"/>
</g>
<!-- Node3 -->
<g id="node3" class="node"><title>Node3</title>
<polygon fill="white" stroke="#bfbfbf" points="766.281,-110.5 766.281,-128.5 814.522,-128.5 814.522,-110.5 766.281,-110.5"/>
<text text-anchor="middle" x="790.401" y="-116.5" font-family="Helvetica,sans-Serif" font-size="10.00">stdint.h</text>
</g>
<!-- Node2&#45;&gt;Node3 -->
<g id="edge2" class="edge"><title>Node2&#45;&gt;Node3</title>
<path fill="none" stroke="midnightblue" d="M644.238,-440.374C659.902,-433.018 681.241,-420.765 694.401,-404 728.547,-360.502 772.272,-193.372 786.046,-138.251"/>
<polygon fill="midnightblue" stroke="midnightblue" points="789.447,-139.078 788.454,-128.53 782.652,-137.395 789.447,-139.078"/>
</g>
<!-- Node4 -->
<g id="node4" class="node"><title>Node4</title>
<polygon fill="white" stroke="#bfbfbf" points="426.108,-110.5 426.108,-128.5 482.694,-128.5 482.694,-110.5 426.108,-110.5"/>
<text text-anchor="middle" x="454.401" y="-116.5" font-family="Helvetica,sans-Serif" font-size="10.00">stdbool.h</text>
</g>
<!-- Node2&#45;&gt;Node4 -->
<g id="edge3" class="edge"><title>Node2&#45;&gt;Node4</title>
<path fill="none" stroke="midnightblue" d="M603.125,-440.48C586.616,-433.253 564.275,-421.122 550.401,-404 482.853,-320.639 461.817,-187.326 456.206,-138.865"/>
<polygon fill="midnightblue" stroke="midnightblue" points="459.66,-138.255 455.115,-128.685 452.7,-139 459.66,-138.255"/>
</g>
<!-- Node5 -->
<g id="node5" class="node"><title>Node5</title>
<g id="a_node5"><a xlink:href="$AP__HAL__Namespace_8h.html" xlink:title="AP_HAL_Namespace.h">
<polygon fill="white" stroke="black" points="449.594,-55.5 449.594,-73.5 571.209,-73.5 571.209,-55.5 449.594,-55.5"/>
<text text-anchor="middle" x="510.401" y="-61.5" font-family="Helvetica,sans-Serif" font-size="10.00">AP_HAL_Namespace.h</text>
</a>
</g>
</g>
<!-- Node2&#45;&gt;Node5 -->
<g id="edge4" class="edge"><title>Node2&#45;&gt;Node5</title>
<path fill="none" stroke="midnightblue" d="M676.686,-446.847C790.794,-442.783 1058.85,-430.638 1145.4,-404 1200.46,-387.053 1258.4,-398.109 1258.4,-340.5 1258.4,-340.5 1258.4,-340.5 1258.4,-173.5 1258.4,-125.27 1215.77,-126.366 1170.4,-110 1063.78,-71.5401 729.202,-65.9331 581.584,-65.3817"/>
<polygon fill="midnightblue" stroke="midnightblue" points="581.295,-61.8809 571.284,-65.3504 581.273,-68.8809 581.295,-61.8809"/>
</g>
<!-- Node8 -->
<g id="node8" class="node"><title>Node8</title>
<g id="a_node8"><a xlink:href="$AP__HAL__Boards_8h.html" xlink:title="AP_HAL_Boards.h">
<polygon fill="white" stroke="black" points="970.431,-165.5 970.431,-183.5 1070.37,-183.5 1070.37,-165.5 970.431,-165.5"/>
<text text-anchor="middle" x="1020.4" y="-171.5" font-family="Helvetica,sans-Serif" font-size="10.00">AP_HAL_Boards.h</text>
</a>
</g>
</g>
<!-- Node2&#45;&gt;Node8 -->
<g id="edge7" class="edge"><title>Node2&#45;&gt;Node8</title>
<path fill="none" stroke="midnightblue" d="M676.436,-446.813C794.086,-441.586 1070.4,-420.766 1070.4,-340.5 1070.4,-340.5 1070.4,-340.5 1070.4,-283.5 1070.4,-248.202 1048.14,-211.919 1033.32,-191.685"/>
<polygon fill="midnightblue" stroke="midnightblue" points="1035.99,-189.413 1027.14,-183.579 1030.42,-193.655 1035.99,-189.413"/>
</g>
<!-- Node9 -->
<g id="node9" class="node"><title>Node9</title>
<g id="a_node9"><a xlink:href="$AP__HAL__Macros_8h.html" xlink:title="AP_HAL_Macros.h">
<polygon fill="white" stroke="black" points="229.882,-385.5 229.882,-403.5 330.921,-403.5 330.921,-385.5 229.882,-385.5"/>
<text text-anchor="middle" x="280.401" y="-391.5" font-family="Helvetica,sans-Serif" font-size="10.00">AP_HAL_Macros.h</text>
</a>
</g>
</g>
<!-- Node2&#45;&gt;Node9 -->
<g id="edge8" class="edge"><title>Node2&#45;&gt;Node9</title>
<path fill="none" stroke="midnightblue" d="M572.155,-440.45C510.158,-430.898 406.95,-414.997 341.364,-404.892"/>
<polygon fill="midnightblue" stroke="midnightblue" points="341.589,-401.386 331.173,-403.322 340.523,-408.304 341.589,-401.386"/>
</g>
<!-- Node10 -->
<g id="node10" class="node"><title>Node10</title>
<g id="a_node10"><a xlink:href="$AP__HAL__Main_8h.html" xlink:title="AP_HAL_Main.h">
<polygon fill="white" stroke="black" points="579.436,-385.5 579.436,-403.5 669.367,-403.5 669.367,-385.5 579.436,-385.5"/>
<text text-anchor="middle" x="624.401" y="-391.5" font-family="Helvetica,sans-Serif" font-size="10.00">AP_HAL_Main.h</text>
</a>
</g>
</g>
<!-- Node2&#45;&gt;Node10 -->
<g id="edge9" class="edge"><title>Node2&#45;&gt;Node10</title>
<path fill="none" stroke="midnightblue" d="M624.401,-440.219C624.401,-433.177 624.401,-422.808 624.401,-413.828"/>
<polygon fill="midnightblue" stroke="midnightblue" points="627.901,-413.55 624.401,-403.55 620.901,-413.55 627.901,-413.55"/>
</g>
<!-- Node11 -->
<g id="node11" class="node"><title>Node11</title>
<g id="a_node11"><a xlink:href="$HAL_8h.html" xlink:title="HAL.h">
<polygon fill="white" stroke="black" points="569.505,-330.5 569.505,-348.5 613.298,-348.5 613.298,-330.5 569.505,-330.5"/>
<text text-anchor="middle" x="591.401" y="-336.5" font-family="Helvetica,sans-Serif" font-size="10.00">HAL.h</text>
</a>
</g>
</g>
<!-- Node2&#45;&gt;Node11 -->
<g id="edge67" class="edge"><title>Node2&#45;&gt;Node11</title>
<path fill="none" stroke="midnightblue" d="M608.292,-440.407C595.379,-432.926 578.176,-420.481 570.401,-404 563.146,-388.62 571.065,-370.055 579.171,-356.983"/>
<polygon fill="midnightblue" stroke="midnightblue" points="582.169,-358.798 584.892,-348.559 576.378,-354.865 582.169,-358.798"/>
</g>
<!-- Node12 -->
<g id="node12" class="node"><title>Node12</title>
<g id="a_node12"><a xlink:href="$AnalogIn_8h.html" xlink:title="AnalogIn.h">
<polygon fill="white" stroke="black" points="71.4927,-220.5 71.4927,-238.5 135.31,-238.5 135.31,-220.5 71.4927,-220.5"/>
<text text-anchor="middle" x="103.401" y="-226.5" font-family="Helvetica,sans-Serif" font-size="10.00">AnalogIn.h</text>
</a>
</g>
</g>
<!-- Node2&#45;&gt;Node12 -->
<g id="edge49" class="edge"><title>Node2&#45;&gt;Node12</title>
<path fill="none" stroke="midnightblue" d="M572.446,-446.944C455.874,-442.988 181.167,-430.893 149.401,-404 103.046,-364.755 100.612,-284.698 102.09,-248.722"/>
<polygon fill="midnightblue" stroke="midnightblue" points="105.587,-248.88 102.657,-238.698 98.5979,-248.485 105.587,-248.88"/>
</g>
<!-- Node14 -->
<g id="node14" class="node"><title>Node14</title>
<g id="a_node14"><a xlink:href="$GPIO_8h.html" xlink:title="GPIO.h">
<polygon fill="white" stroke="black" points="502.729,-220.5 502.729,-238.5 552.074,-238.5 552.074,-220.5 502.729,-220.5"/>
<text text-anchor="middle" x="527.401" y="-226.5" font-family="Helvetica,sans-Serif" font-size="10.00">GPIO.h</text>
</a>
</g>
</g>
<!-- Node2&#45;&gt;Node14 -->
<g id="edge51" class="edge"><title>Node2&#45;&gt;Node14</title>
<path fill="none" stroke="midnightblue" d="M607.745,-440.496C593.964,-432.995 574.992,-420.472 564.401,-404 532.517,-354.407 527.628,-281.968 527.19,-248.58"/>
<polygon fill="midnightblue" stroke="midnightblue" points="530.69,-248.499 527.184,-238.501 523.69,-248.503 530.69,-248.499"/>
</g>
<!-- Node15 -->
<g id="node15" class="node"><title>Node15</title>
<g id="a_node15"><a xlink:href="$RCInput_8h.html" xlink:title="RCInput.h">
<polygon fill="white" stroke="black" points="347.889,-275.5 347.889,-293.5 408.914,-293.5 408.914,-275.5 347.889,-275.5"/>
<text text-anchor="middle" x="378.401" y="-281.5" font-family="Helvetica,sans-Serif" font-size="10.00">RCInput.h</text>
</a>
</g>
</g>
<!-- Node2&#45;&gt;Node15 -->
<g id="edge52" class="edge"><title>Node2&#45;&gt;Node15</title>
<path fill="none" stroke="midnightblue" d="M572.341,-442.628C520.437,-435.803 445.369,-422.992 423.401,-404 393.383,-378.048 383.327,-329.864 380.004,-303.643"/>
<polygon fill="midnightblue" stroke="midnightblue" points="383.472,-303.159 378.929,-293.588 376.512,-303.903 383.472,-303.159"/>
</g>
<!-- Node16 -->
<g id="node16" class="node"><title>Node16</title>
<g id="a_node16"><a xlink:href="$RCOutput_8h.html" xlink:title="RCOutput.h">
<polygon fill="white" stroke="black" points="764,-275.5 764,-293.5 832.803,-293.5 832.803,-275.5 764,-275.5"/>
<text text-anchor="middle" x="798.401" y="-281.5" font-family="Helvetica,sans-Serif" font-size="10.00">RCOutput.h</text>
</a>
</g>
</g>
<!-- Node2&#45;&gt;Node16 -->
<g id="edge53" class="edge"><title>Node2&#45;&gt;Node16</title>
<path fill="none" stroke="midnightblue" d="M676.259,-440.452C701.331,-434.214 730.275,-423.234 750.401,-404 779.197,-376.481 791.208,-329.317 795.817,-303.57"/>
<polygon fill="midnightblue" stroke="midnightblue" points="799.275,-304.109 797.407,-293.68 792.364,-302.998 799.275,-304.109"/>
</g>
<!-- Node17 -->
<g id="node17" class="node"><title>Node17</title>
<g id="a_node17"><a xlink:href="$SPIDriver_8h.html" xlink:title="SPIDriver.h">
<polygon fill="white" stroke="black" points="1136.11,-275.5 1136.11,-293.5 1202.69,-293.5 1202.69,-275.5 1136.11,-275.5"/>
<text text-anchor="middle" x="1169.4" y="-281.5" font-family="Helvetica,sans-Serif" font-size="10.00">SPIDriver.h</text>
</a>
</g>
</g>
<!-- Node2&#45;&gt;Node17 -->
<g id="edge48" class="edge"><title>Node2&#45;&gt;Node17</title>
<path fill="none" stroke="midnightblue" d="M676.392,-446.91C796.799,-442.799 1087.23,-430.252 1122.4,-404 1154.54,-380.015 1164.73,-330.621 1167.94,-303.8"/>
<polygon fill="midnightblue" stroke="midnightblue" points="1171.45,-303.828 1168.95,-293.532 1164.49,-303.139 1171.45,-303.828"/>
</g>
<!-- Node18 -->
<g id="node18" class="node"><title>Node18</title>
<g id="a_node18"><a xlink:href="$Storage_8h.html" xlink:title="Storage.h">
<polygon fill="white" stroke="black" points="850.719,-275.5 850.719,-293.5 910.083,-293.5 910.083,-275.5 850.719,-275.5"/>
<text text-anchor="middle" x="880.401" y="-281.5" font-family="Helvetica,sans-Serif" font-size="10.00">Storage.h</text>
</a>
</g>
</g>
<!-- Node2&#45;&gt;Node18 -->
<g id="edge50" class="edge"><title>Node2&#45;&gt;Node18</title>
<path fill="none" stroke="midnightblue" d="M674.526,-440.427C704.6,-433.941 742.657,-422.727 772.401,-404 815.429,-376.91 852.039,-328.148 869.484,-302.433"/>
<polygon fill="midnightblue" stroke="midnightblue" points="872.598,-304.069 875.204,-293.799 866.763,-300.202 872.598,-304.069"/>
</g>
<!-- Node19 -->
<g id="node19" class="node"><title>Node19</title>
<g id="a_node19"><a xlink:href="$UARTDriver_8h.html" xlink:title="UARTDriver.h">
<polygon fill="white" stroke="black" points="579.649,-275.5 579.649,-293.5 657.153,-293.5 657.153,-275.5 579.649,-275.5"/>
<text text-anchor="middle" x="618.401" y="-281.5" font-family="Helvetica,sans-Serif" font-size="10.00">UARTDriver.h</text>
</a>
</g>
</g>
<!-- Node2&#45;&gt;Node19 -->
<g id="edge44" class="edge"><title>Node2&#45;&gt;Node19</title>
<path fill="none" stroke="midnightblue" d="M640.51,-440.407C653.424,-432.926 670.627,-420.481 678.401,-404 682.004,-396.363 680.664,-393.136 678.401,-385 669.388,-352.6 646.668,-320.201 631.916,-301.543"/>
<polygon fill="midnightblue" stroke="midnightblue" points="634.436,-299.094 625.409,-293.547 629.006,-303.513 634.436,-299.094"/>
</g>
<!-- Node22 -->
<g id="node22" class="node"><title>Node22</title>
<g id="a_node22"><a xlink:href="$BetterStream_8h.html" xlink:title="utility/BetterStream.h">
<polygon fill="white" stroke="black" points="247.995,-220.5 247.995,-238.5 356.808,-238.5 356.808,-220.5 247.995,-220.5"/>
<text text-anchor="middle" x="302.401" y="-226.5" font-family="Helvetica,sans-Serif" font-size="10.00">utility/BetterStream.h</text>
</a>
</g>
</g>
<!-- Node2&#45;&gt;Node22 -->
<g id="edge66" class="edge"><title>Node2&#45;&gt;Node22</title>
<path fill="none" stroke="midnightblue" d="M572.25,-442.849C515.99,-435.911 430.899,-422.716 404.401,-404 348.776,-364.709 318.727,-284.676 307.552,-248.714"/>
<polygon fill="midnightblue" stroke="midnightblue" points="310.779,-247.286 304.579,-238.695 304.068,-249.277 310.779,-247.286"/>
</g>
<!-- Node24 -->
<g id="node24" class="node"><title>Node24</title>
<g id="a_node24"><a xlink:href="$Stream_8h.html" xlink:title="Stream.h">
<polygon fill="white" stroke="black" points="130.116,-165.5 130.116,-183.5 186.687,-183.5 186.687,-165.5 130.116,-165.5"/>
<text text-anchor="middle" x="158.401" y="-171.5" font-family="Helvetica,sans-Serif" font-size="10.00">Stream.h</text>
</a>
</g>
</g>
<!-- Node2&#45;&gt;Node24 -->
<g id="edge65" class="edge"><title>Node2&#45;&gt;Node24</title>
<path fill="none" stroke="midnightblue" d="M572.167,-448.56C473.402,-447.779 263.762,-441.59 203.401,-404 175.088,-386.368 163.401,-373.855 163.401,-340.5 163.401,-340.5 163.401,-340.5 163.401,-283.5 163.401,-251.984 161.25,-215.35 159.77,-193.869"/>
<polygon fill="midnightblue" stroke="midnightblue" points="163.242,-193.347 159.035,-183.623 156.26,-193.848 163.242,-193.347"/>
</g>
<!-- Node25 -->
<g id="node25" class="node"><title>Node25</title>
<g id="a_node25"><a xlink:href="$Print_8h.html" xlink:title="Print.h">
<polygon fill="white" stroke="black" points="31.9507,-110.5 31.9507,-128.5 76.8521,-128.5 76.8521,-110.5 31.9507,-110.5"/>
<text text-anchor="middle" x="54.4014" y="-116.5" font-family="Helvetica,sans-Serif" font-size="10.00">Print.h</text>
</a>
</g>
</g>
<!-- Node2&#45;&gt;Node25 -->
<g id="edge64" class="edge"><title>Node2&#45;&gt;Node25</title>
<path fill="none" stroke="midnightblue" d="M572.404,-447.362C462.337,-444.384 209.362,-434.357 129.401,-404 84.9823,-387.136 43.4014,-388.012 43.4014,-340.5 43.4014,-340.5 43.4014,-340.5 43.4014,-228.5 43.4014,-196.708 48.1773,-159.922 51.4353,-138.526"/>
<polygon fill="midnightblue" stroke="midnightblue" points="54.8999,-139.025 53.0082,-128.6 47.9861,-137.929 54.8999,-139.025"/>
</g>
<!-- Node26 -->
<g id="node26" class="node"><title>Node26</title>
<g id="a_node26"><a xlink:href="$I2CDriver_8h.html" xlink:title="I2CDriver.h">
<polygon fill="white" stroke="black" points="1126.39,-165.5 1126.39,-183.5 1192.41,-183.5 1192.41,-165.5 1126.39,-165.5"/>
<text text-anchor="middle" x="1159.4" y="-171.5" font-family="Helvetica,sans-Serif" font-size="10.00">I2CDriver.h</text>
</a>
</g>
</g>
<!-- Node2&#45;&gt;Node26 -->
<g id="edge45" class="edge"><title>Node2&#45;&gt;Node26</title>
<path fill="none" stroke="midnightblue" d="M676.658,-447.801C801.809,-444.716 1108.4,-428.209 1108.4,-340.5 1108.4,-340.5 1108.4,-340.5 1108.4,-283.5 1108.4,-248.076 1131.11,-211.836 1146.22,-191.644"/>
<polygon fill="midnightblue" stroke="midnightblue" points="1149.14,-193.596 1152.52,-183.556 1143.62,-189.295 1149.14,-193.596"/>
</g>
<!-- Node27 -->
<g id="node27" class="node"><title>Node27</title>
<g id="a_node27"><a xlink:href="$Scheduler_8h.html" xlink:title="Scheduler.h">
<polygon fill="white" stroke="black" points="919.99,-220.5 919.99,-238.5 988.812,-238.5 988.812,-220.5 919.99,-220.5"/>
<text text-anchor="middle" x="954.401" y="-226.5" font-family="Helvetica,sans-Serif" font-size="10.00">Scheduler.h</text>
</a>
</g>
</g>
<!-- Node2&#45;&gt;Node27 -->
<g id="edge54" class="edge"><title>Node2&#45;&gt;Node27</title>
<path fill="none" stroke="midnightblue" d="M676.628,-442.094C712.768,-436.057 761.067,-424.718 799.401,-404 863.051,-369.601 874.683,-350.876 919.401,-294 930.575,-279.789 940.226,-261.539 946.547,-248.254"/>
<polygon fill="midnightblue" stroke="midnightblue" points="949.88,-249.384 950.868,-238.836 943.517,-246.465 949.88,-249.384"/>
</g>
<!-- Node28 -->
<g id="node28" class="node"><title>Node28</title>
<g id="a_node28"><a xlink:href="$Semaphores_8h.html" xlink:title="Semaphores.h">
<polygon fill="white" stroke="black" points="1286.88,-330.5 1286.88,-348.5 1367.92,-348.5 1367.92,-330.5 1286.88,-330.5"/>
<text text-anchor="middle" x="1327.4" y="-336.5" font-family="Helvetica,sans-Serif" font-size="10.00">Semaphores.h</text>
</a>
</g>
</g>
<!-- Node2&#45;&gt;Node28 -->
<g id="edge59" class="edge"><title>Node2&#45;&gt;Node28</title>
<path fill="none" stroke="midnightblue" d="M676.317,-447.218C820.661,-443.334 1219.65,-430.32 1272.4,-404 1292.74,-393.852 1308.7,-372.523 1318.08,-357.389"/>
<polygon fill="midnightblue" stroke="midnightblue" points="1321.24,-358.918 1323.26,-348.519 1315.19,-355.384 1321.24,-358.918"/>
</g>
<!-- Node29 -->
<g id="node29" class="node"><title>Node29</title>
<g id="a_node29"><a xlink:href="$Util_8h.html" xlink:title="Util.h">
<polygon fill="white" stroke="black" points="191.01,-220.5 191.01,-238.5 229.793,-238.5 229.793,-220.5 191.01,-220.5"/>
<text text-anchor="middle" x="210.401" y="-226.5" font-family="Helvetica,sans-Serif" font-size="10.00">Util.h</text>
</a>
</g>
</g>
<!-- Node2&#45;&gt;Node29 -->
<g id="edge61" class="edge"><title>Node2&#45;&gt;Node29</title>
<path fill="none" stroke="midnightblue" d="M572.15,-446.445C468.377,-441.84 244.205,-429.078 220.401,-404 180.104,-361.546 195.141,-283.796 204.787,-248.628"/>
<polygon fill="midnightblue" stroke="midnightblue" points="208.212,-249.385 207.652,-238.805 201.492,-247.425 208.212,-249.385"/>
</g>
<!-- Node6 -->
<g id="node6" class="node"><title>Node6</title>
<polygon fill="white" stroke="#bfbfbf" points="323.005,-0.5 323.005,-18.5 371.798,-18.5 371.798,-0.5 323.005,-0.5"/>
<text text-anchor="middle" x="347.401" y="-6.5" font-family="Helvetica,sans-Serif" font-size="10.00">string.h</text>
</g>
<!-- Node5&#45;&gt;Node6 -->
<g id="edge5" class="edge"><title>Node5&#45;&gt;Node6</title>
<path fill="none" stroke="midnightblue" d="M485.645,-55.4504C457.84,-46.4094 412.54,-31.6802 381.422,-21.5618"/>
<polygon fill="midnightblue" stroke="midnightblue" points="382.449,-18.2154 371.856,-18.4517 380.284,-24.8724 382.449,-18.2154"/>
</g>
<!-- Node7 -->
<g id="node7" class="node"><title>Node7</title>
<g id="a_node7"><a xlink:href="$functor_8h.html" xlink:title="utility/functor.h">
<polygon fill="white" stroke="black" points="470.438,-0.5 470.438,-18.5 550.364,-18.5 550.364,-0.5 470.438,-0.5"/>
<text text-anchor="middle" x="510.401" y="-6.5" font-family="Helvetica,sans-Serif" font-size="10.00">utility/functor.h</text>
</a>
</g>
</g>
<!-- Node5&#45;&gt;Node7 -->
<g id="edge6" class="edge"><title>Node5&#45;&gt;Node7</title>
<path fill="none" stroke="midnightblue" d="M510.401,-55.2188C510.401,-48.1769 510.401,-37.8083 510.401,-28.8277"/>
<polygon fill="midnightblue" stroke="midnightblue" points="513.901,-28.5495 510.401,-18.5496 506.901,-28.5496 513.901,-28.5495"/>
</g>
<!-- Node10&#45;&gt;Node11 -->
<g id="edge10" class="edge"><title>Node10&#45;&gt;Node11</title>
<path fill="none" stroke="midnightblue" d="M619.245,-385.219C614.568,-377.707 607.535,-366.411 601.707,-357.052"/>
<polygon fill="midnightblue" stroke="midnightblue" points="604.67,-355.189 596.413,-348.55 598.728,-358.889 604.67,-355.189"/>
</g>
<!-- Node11&#45;&gt;Node5 -->
<g id="edge11" class="edge"><title>Node11&#45;&gt;Node5</title>
<path fill="none" stroke="midnightblue" d="M579.915,-330.184C546.048,-304.803 447.102,-224.238 417.401,-129 414.887,-120.938 412.9,-117.144 417.401,-110 427.545,-93.9005 445.303,-83.4982 462.601,-76.8378"/>
<polygon fill="midnightblue" stroke="midnightblue" points="463.829,-80.1161 472.113,-73.51 461.518,-73.5088 463.829,-80.1161"/>
</g>
<!-- Node11&#45;&gt;Node12 -->
<g id="edge12" class="edge"><title>Node11&#45;&gt;Node12</title>
<path fill="none" stroke="midnightblue" d="M569.273,-335.292C525.126,-328.742 423.072,-312.846 338.401,-294 267.451,-278.208 185.762,-254.973 139.79,-241.425"/>
<polygon fill="midnightblue" stroke="midnightblue" points="140.574,-238.007 129.992,-238.524 138.587,-244.719 140.574,-238.007"/>
</g>
<!-- Node11&#45;&gt;Node14 -->
<g id="edge15" class="edge"><title>Node11&#45;&gt;Node14</title>
<path fill="none" stroke="midnightblue" d="M586.591,-330.382C576.213,-312.869 551.531,-271.218 537.537,-247.605"/>
<polygon fill="midnightblue" stroke="midnightblue" points="540.377,-245.53 532.268,-238.712 534.355,-249.099 540.377,-245.53"/>
</g>
<!-- Node11&#45;&gt;Node15 -->
<g id="edge18" class="edge"><title>Node11&#45;&gt;Node15</title>
<path fill="none" stroke="midnightblue" d="M569.409,-333.028C534.008,-324.219 463.838,-306.759 419.114,-295.63"/>
<polygon fill="midnightblue" stroke="midnightblue" points="419.704,-292.171 409.155,-293.152 418.014,-298.963 419.704,-292.171"/>
</g>
<!-- Node11&#45;&gt;Node16 -->
<g id="edge20" class="edge"><title>Node11&#45;&gt;Node16</title>
<path fill="none" stroke="midnightblue" d="M613.554,-332.828C647.735,-324.076 713.893,-307.137 757.087,-296.078"/>
<polygon fill="midnightblue" stroke="midnightblue" points="758.185,-299.41 767.005,-293.539 756.449,-292.629 758.185,-299.41"/>
</g>
<!-- Node11&#45;&gt;Node17 -->
<g id="edge22" class="edge"><title>Node11&#45;&gt;Node17</title>
<path fill="none" stroke="midnightblue" d="M613.354,-336.487C698.739,-328.658 1009.7,-300.144 1125.53,-289.523"/>
<polygon fill="midnightblue" stroke="midnightblue" points="1126.16,-292.98 1135.79,-288.582 1125.52,-286.009 1126.16,-292.98"/>
</g>
<!-- Node11&#45;&gt;Node18 -->
<g id="edge24" class="edge"><title>Node11&#45;&gt;Node18</title>
<path fill="none" stroke="midnightblue" d="M613.527,-334.855C655.658,-327.853 750.521,-311.786 840.771,-294.059"/>
<polygon fill="midnightblue" stroke="midnightblue" points="841.483,-297.486 850.615,-292.115 840.127,-290.619 841.483,-297.486"/>
</g>
<!-- Node11&#45;&gt;Node19 -->
<g id="edge27" class="edge"><title>Node11&#45;&gt;Node19</title>
<path fill="none" stroke="midnightblue" d="M595.62,-330.219C599.367,-322.864 604.962,-311.88 609.67,-302.639"/>
<polygon fill="midnightblue" stroke="midnightblue" points="612.88,-304.049 614.301,-293.55 606.643,-300.871 612.88,-304.049"/>
</g>
<!-- Node12&#45;&gt;Node5 -->
<g id="edge14" class="edge"><title>Node12&#45;&gt;Node5</title>
<path fill="none" stroke="midnightblue" d="M104.377,-220.146C106.153,-207.465 110.763,-182.937 121.401,-165 139.197,-134.995 146.059,-125.319 177.401,-110 222.172,-88.1178 355.534,-75.6215 439.277,-69.7304"/>
<polygon fill="midnightblue" stroke="midnightblue" points="439.751,-73.2062 449.487,-69.0275 439.27,-66.2227 439.751,-73.2062"/>
</g>
<!-- Node13 -->
<g id="node13" class="node"><title>Node13</title>
<polygon fill="white" stroke="#bfbfbf" points="0,-55.5 0,-73.5 58.8027,-73.5 58.8027,-55.5 0,-55.5"/>
<text text-anchor="middle" x="29.4014" y="-61.5" font-family="Helvetica,sans-Serif" font-size="10.00">inttypes.h</text>
</g>
<!-- Node12&#45;&gt;Node13 -->
<g id="edge13" class="edge"><title>Node12&#45;&gt;Node13</title>
<path fill="none" stroke="midnightblue" d="M93.5519,-220.48C75.4693,-205.039 37.5373,-169.141 23.4014,-129 18.2238,-114.297 20.5543,-96.5644 23.7014,-83.5789"/>
<polygon fill="midnightblue" stroke="midnightblue" points="27.1739,-84.159 26.5091,-73.5851 20.4348,-82.2657 27.1739,-84.159"/>
</g>
<!-- Node14&#45;&gt;Node3 -->
<g id="edge16" class="edge"><title>Node14&#45;&gt;Node3</title>
<path fill="none" stroke="midnightblue" d="M552.187,-224.581C585.745,-218.69 647.002,-205.851 695.401,-184 724.458,-170.882 754.471,-149.21 772.789,-134.893"/>
<polygon fill="midnightblue" stroke="midnightblue" points="775.143,-137.493 780.786,-128.526 770.783,-132.016 775.143,-137.493"/>
</g>
<!-- Node14&#45;&gt;Node5 -->
<g id="edge17" class="edge"><title>Node14&#45;&gt;Node5</title>
<path fill="none" stroke="midnightblue" d="M519.998,-220.387C512.881,-211.99 502.603,-198.143 498.401,-184 488.132,-149.434 497.422,-106.974 504.389,-83.414"/>
<polygon fill="midnightblue" stroke="midnightblue" points="507.767,-84.3384 507.437,-73.7487 501.091,-82.2328 507.767,-84.3384"/>
</g>
<!-- Node15&#45;&gt;Node5 -->
<g id="edge19" class="edge"><title>Node15&#45;&gt;Node5</title>
<path fill="none" stroke="midnightblue" d="M377.518,-275.342C374.367,-244.664 364.88,-136.61 384.401,-110 397.61,-91.9946 418.7,-81.238 439.877,-74.8247"/>
<polygon fill="midnightblue" stroke="midnightblue" points="440.86,-78.1844 449.584,-72.1732 439.016,-71.4317 440.86,-78.1844"/>
</g>
<!-- Node16&#45;&gt;Node5 -->
<g id="edge21" class="edge"><title>Node16&#45;&gt;Node5</title>
<path fill="none" stroke="midnightblue" d="M803.42,-275.377C819.505,-248.204 866.288,-159.415 823.401,-110 792.708,-74.6343 663.875,-66.6436 581.365,-65.247"/>
<polygon fill="midnightblue" stroke="midnightblue" points="581.342,-61.7464 571.293,-65.1051 581.243,-68.7457 581.342,-61.7464"/>
</g>
<!-- Node17&#45;&gt;Node5 -->
<g id="edge23" class="edge"><title>Node17&#45;&gt;Node5</title>
<path fill="none" stroke="midnightblue" d="M1175.27,-275.421C1188.75,-255.791 1219.45,-204.313 1201.4,-165 1185.75,-130.916 1172.08,-124.272 1137.4,-110 1038.58,-69.3341 723.992,-64.845 581.614,-64.9805"/>
<polygon fill="midnightblue" stroke="midnightblue" points="581.249,-61.4811 571.255,-64.9989 581.261,-68.481 581.249,-61.4811"/>
</g>
<!-- Node18&#45;&gt;Node3 -->
<g id="edge25" class="edge"><title>Node18&#45;&gt;Node3</title>
<path fill="none" stroke="midnightblue" d="M875.815,-275.193C861.73,-249.684 818.906,-172.126 799.79,-137.504"/>
<polygon fill="midnightblue" stroke="midnightblue" points="802.77,-135.66 794.872,-128.597 796.642,-139.043 802.77,-135.66"/>
</g>
<!-- Node18&#45;&gt;Node5 -->
<g id="edge26" class="edge"><title>Node18&#45;&gt;Node5</title>
<path fill="none" stroke="midnightblue" d="M910.302,-278.697C976.247,-266.773 1124.84,-231.842 1079.4,-165 1024.3,-83.9364 721.569,-68.6562 581.521,-65.962"/>
<polygon fill="midnightblue" stroke="midnightblue" points="581.379,-62.459 571.319,-65.7825 581.256,-69.4579 581.379,-62.459"/>
</g>
<!-- Node19&#45;&gt;Node3 -->
<g id="edge28" class="edge"><title>Node19&#45;&gt;Node3</title>
<path fill="none" stroke="midnightblue" d="M627.466,-275.356C646.164,-258.512 690.284,-218.532 726.401,-184 743.265,-167.876 762.189,-149 775.056,-136.044"/>
<polygon fill="midnightblue" stroke="midnightblue" points="777.662,-138.386 782.213,-128.819 772.689,-133.46 777.662,-138.386"/>
</g>
<!-- Node19&#45;&gt;Node5 -->
<g id="edge33" class="edge"><title>Node19&#45;&gt;Node5</title>
<path fill="none" stroke="midnightblue" d="M610.943,-275.217C590.34,-252.304 533.992,-189.406 531.401,-184 515.648,-151.131 511.613,-108.03 510.641,-83.9063"/>
<polygon fill="midnightblue" stroke="midnightblue" points="514.135,-83.6203 510.372,-73.7162 507.137,-83.8052 514.135,-83.6203"/>
</g>
<!-- Node20 -->
<g id="node20" class="node"><title>Node20</title>
<g id="a_node20"><a xlink:href="$AP__Common_8h.html" xlink:title="Common definitions and utility routines for the ArduPilot libraries. ">
<polygon fill="white" stroke="black" points="540.375,-165.5 540.375,-183.5 686.428,-183.5 686.428,-165.5 540.375,-165.5"/>
<text text-anchor="middle" x="613.401" y="-171.5" font-family="Helvetica,sans-Serif" font-size="10.00">AP_Common/AP_Common.h</text>
</a>
</g>
</g>
<!-- Node19&#45;&gt;Node20 -->
<g id="edge29" class="edge"><title>Node19&#45;&gt;Node20</title>
<path fill="none" stroke="midnightblue" d="M618.026,-275.382C617.229,-258.182 615.355,-217.698 614.253,-193.887"/>
<polygon fill="midnightblue" stroke="midnightblue" points="617.74,-193.539 613.782,-183.712 610.748,-193.863 617.74,-193.539"/>
</g>
<!-- Node19&#45;&gt;Node22 -->
<g id="edge34" class="edge"><title>Node19&#45;&gt;Node22</title>
<path fill="none" stroke="midnightblue" d="M579.337,-276.948C524.32,-267.72 423.636,-250.834 360.017,-240.163"/>
<polygon fill="midnightblue" stroke="midnightblue" points="360.578,-236.709 350.137,-238.506 359.42,-243.612 360.578,-236.709"/>
</g>
<!-- Node20&#45;&gt;Node3 -->
<g id="edge30" class="edge"><title>Node20&#45;&gt;Node3</title>
<path fill="none" stroke="midnightblue" d="M640.284,-165.45C671.309,-156.16 722.392,-140.864 756.216,-130.736"/>
<polygon fill="midnightblue" stroke="midnightblue" points="757.542,-133.993 766.118,-127.771 755.534,-127.287 757.542,-133.993"/>
</g>
<!-- Node20&#45;&gt;Node4 -->
<g id="edge32" class="edge"><title>Node20&#45;&gt;Node4</title>
<path fill="none" stroke="midnightblue" d="M589.253,-165.45C562.325,-156.475 518.578,-141.892 488.245,-131.781"/>
<polygon fill="midnightblue" stroke="midnightblue" points="489.11,-128.38 478.516,-128.538 486.896,-135.021 489.11,-128.38"/>
</g>
<!-- Node21 -->
<g id="node21" class="node"><title>Node21</title>
<polygon fill="white" stroke="#bfbfbf" points="589.559,-110.5 589.559,-128.5 637.244,-128.5 637.244,-110.5 589.559,-110.5"/>
<text text-anchor="middle" x="613.401" y="-116.5" font-family="Helvetica,sans-Serif" font-size="10.00">stdlib.h</text>
</g>
<!-- Node20&#45;&gt;Node21 -->
<g id="edge31" class="edge"><title>Node20&#45;&gt;Node21</title>
<path fill="none" stroke="midnightblue" d="M613.401,-165.219C613.401,-158.177 613.401,-147.808 613.401,-138.828"/>
<polygon fill="midnightblue" stroke="midnightblue" points="616.901,-138.55 613.401,-128.55 609.901,-138.55 616.901,-138.55"/>
</g>
<!-- Node22&#45;&gt;Node5 -->
<g id="edge37" class="edge"><title>Node22&#45;&gt;Node5</title>
<path fill="none" stroke="midnightblue" d="M302.961,-220.193C304.871,-198.64 313.021,-140.487 346.401,-110 371.562,-87.0211 407.402,-75.7188 439.164,-70.2343"/>
<polygon fill="midnightblue" stroke="midnightblue" points="439.973,-73.6505 449.314,-68.6506 438.894,-66.7342 439.973,-73.6505"/>
</g>
<!-- Node22&#45;&gt;Node20 -->
<g id="edge36" class="edge"><title>Node22&#45;&gt;Node20</title>
<path fill="none" stroke="midnightblue" d="M349.636,-220.45C405.053,-211.006 496.892,-195.355 556.268,-185.237"/>
<polygon fill="midnightblue" stroke="midnightblue" points="556.963,-188.669 566.233,-183.538 555.787,-181.768 556.963,-188.669"/>
</g>
<!-- Node23 -->
<g id="node23" class="node"><title>Node23</title>
<polygon fill="white" stroke="#bfbfbf" points="242.335,-165.5 242.335,-183.5 294.468,-183.5 294.468,-165.5 242.335,-165.5"/>
<text text-anchor="middle" x="268.401" y="-171.5" font-family="Helvetica,sans-Serif" font-size="10.00">stdarg.h</text>
</g>
<!-- Node22&#45;&gt;Node23 -->
<g id="edge35" class="edge"><title>Node22&#45;&gt;Node23</title>
<path fill="none" stroke="midnightblue" d="M297.089,-220.219C292.27,-212.707 285.024,-201.411 279.019,-192.052"/>
<polygon fill="midnightblue" stroke="midnightblue" points="281.911,-190.077 273.565,-183.55 276.019,-193.856 281.911,-190.077"/>
</g>
<!-- Node22&#45;&gt;Node24 -->
<g id="edge38" class="edge"><title>Node22&#45;&gt;Node24</title>
<path fill="none" stroke="midnightblue" d="M280.531,-220.45C256.426,-211.578 217.438,-197.229 190.011,-187.134"/>
<polygon fill="midnightblue" stroke="midnightblue" points="191.071,-183.795 180.478,-183.625 188.653,-190.364 191.071,-183.795"/>
</g>
<!-- Node24&#45;&gt;Node5 -->
<g id="edge39" class="edge"><title>Node24&#45;&gt;Node5</title>
<path fill="none" stroke="midnightblue" d="M161.273,-165.253C166.598,-151.308 179.408,-123.294 200.401,-110 238.923,-85.6065 360.03,-74.0754 438.975,-69.0233"/>
<polygon fill="midnightblue" stroke="midnightblue" points="439.578,-72.4928 449.343,-68.3815 439.145,-65.5062 439.578,-72.4928"/>
</g>
<!-- Node24&#45;&gt;Node25 -->
<g id="edge40" class="edge"><title>Node24&#45;&gt;Node25</title>
<path fill="none" stroke="midnightblue" d="M142.606,-165.45C125.808,-156.89 99.0018,-143.229 79.3454,-133.212"/>
<polygon fill="midnightblue" stroke="midnightblue" points="80.8443,-130.047 70.3454,-128.625 77.6659,-136.284 80.8443,-130.047"/>
</g>
<!-- Node25&#45;&gt;Node5 -->
<g id="edge41" class="edge"><title>Node25&#45;&gt;Node5</title>
<path fill="none" stroke="midnightblue" d="M77.1657,-112.667C81.5386,-111.677 86.0965,-110.733 90.4014,-110 212.18,-89.2573 355.573,-76.5434 439.39,-70.2744"/>
<polygon fill="midnightblue" stroke="midnightblue" points="439.846,-73.7504 449.561,-69.5235 439.331,-66.7694 439.846,-73.7504"/>
</g>
<!-- Node25&#45;&gt;Node6 -->
<g id="edge43" class="edge"><title>Node25&#45;&gt;Node6</title>
<path fill="none" stroke="midnightblue" d="M76.424,-110.382C127.88,-91.4158 256.145,-44.1372 315.873,-22.1213"/>
<polygon fill="midnightblue" stroke="midnightblue" points="317.35,-25.307 325.523,-18.5644 314.929,-18.739 317.35,-25.307"/>
</g>
<!-- Node25&#45;&gt;Node13 -->
<g id="edge42" class="edge"><title>Node25&#45;&gt;Node13</title>
<path fill="none" stroke="midnightblue" d="M50.4951,-110.219C47.0258,-102.864 41.8448,-91.8801 37.4858,-82.639"/>
<polygon fill="midnightblue" stroke="midnightblue" points="40.6301,-81.1007 33.1983,-73.5496 34.2991,-84.0871 40.6301,-81.1007"/>
</g>
<!-- Node26&#45;&gt;Node3 -->
<g id="edge46" class="edge"><title>Node26&#45;&gt;Node3</title>
<path fill="none" stroke="midnightblue" d="M1126.33,-168.75C1056.67,-158.745 895.45,-135.588 824.716,-125.429"/>
<polygon fill="midnightblue" stroke="midnightblue" points="824.958,-121.928 814.562,-123.97 823.963,-128.857 824.958,-121.928"/>
</g>
<!-- Node26&#45;&gt;Node5 -->
<g id="edge47" class="edge"><title>Node26&#45;&gt;Node5</title>
<path fill="none" stroke="midnightblue" d="M1155.99,-165.074C1149.75,-150.858 1134.98,-122.446 1112.4,-110 1066.94,-84.9459 731.288,-72.0184 581.834,-67.4535"/>
<polygon fill="midnightblue" stroke="midnightblue" points="581.503,-63.942 571.402,-67.1392 581.292,-70.9388 581.503,-63.942"/>
</g>
<!-- Node27&#45;&gt;Node3 -->
<g id="edge55" class="edge"><title>Node27&#45;&gt;Node3</title>
<path fill="none" stroke="midnightblue" d="M942.075,-220.382C914.175,-202.009 845.932,-157.069 811.298,-134.261"/>
<polygon fill="midnightblue" stroke="midnightblue" points="813.148,-131.289 802.871,-128.712 809.298,-137.135 813.148,-131.289"/>
</g>
<!-- Node27&#45;&gt;Node5 -->
<g id="edge58" class="edge"><title>Node27&#45;&gt;Node5</title>
<path fill="none" stroke="midnightblue" d="M954.715,-220.26C955.055,-198.353 952.664,-138.408 918.401,-110 893.036,-88.9688 691.313,-75.0971 581.333,-69.0188"/>
<polygon fill="midnightblue" stroke="midnightblue" points="581.485,-65.5219 571.309,-68.4723 581.104,-72.5116 581.485,-65.5219"/>
</g>
<!-- Node27&#45;&gt;Node8 -->
<g id="edge57" class="edge"><title>Node27&#45;&gt;Node8</title>
<path fill="none" stroke="midnightblue" d="M964.425,-220.45C974.408,-212.434 989.958,-199.947 1002.14,-190.166"/>
<polygon fill="midnightblue" stroke="midnightblue" points="1004.68,-192.616 1010.28,-183.625 1000.29,-187.158 1004.68,-192.616"/>
</g>
<!-- Node27&#45;&gt;Node20 -->
<g id="edge56" class="edge"><title>Node27&#45;&gt;Node20</title>
<path fill="none" stroke="midnightblue" d="M919.828,-223.126C862.456,-214.209 746.816,-196.236 675.158,-185.098"/>
<polygon fill="midnightblue" stroke="midnightblue" points="675.335,-181.584 664.916,-183.507 674.26,-188.501 675.335,-181.584"/>
</g>
<!-- Node28&#45;&gt;Node5 -->
<g id="edge60" class="edge"><title>Node28&#45;&gt;Node5</title>
<path fill="none" stroke="midnightblue" d="M1325.5,-330.424C1321.47,-312.536 1312.4,-268.171 1312.4,-230.5 1312.4,-230.5 1312.4,-230.5 1312.4,-173.5 1312.4,-140.145 1301.12,-126.963 1272.4,-110 1213.85,-75.4172 759.295,-67.683 581.425,-65.9758"/>
<polygon fill="midnightblue" stroke="midnightblue" points="581.416,-62.4756 571.384,-65.883 581.351,-69.4753 581.416,-62.4756"/>
</g>
<!-- Node29&#45;&gt;Node5 -->
<g id="edge63" class="edge"><title>Node29&#45;&gt;Node5</title>
<path fill="none" stroke="midnightblue" d="M211.56,-220.191C213.753,-207.129 219.595,-181.578 233.401,-165 284.308,-103.876 375.731,-80.2976 439.571,-71.2043"/>
<polygon fill="midnightblue" stroke="midnightblue" points="440.122,-74.6618 449.57,-69.8657 439.194,-67.7237 440.122,-74.6618"/>
</g>
<!-- Node29&#45;&gt;Node23 -->
<g id="edge62" class="edge"><title>Node29&#45;&gt;Node23</title>
<path fill="none" stroke="midnightblue" d="M219.464,-220.219C228.198,-212.238 241.607,-199.984 252.182,-190.321"/>
<polygon fill="midnightblue" stroke="midnightblue" points="254.571,-192.879 259.592,-183.55 249.849,-187.712 254.571,-192.879"/>
</g>
<!-- Node30&#45;&gt;Node1 -->
<g id="edge70" class="edge"><title>Node30&#45;&gt;Node1</title>
<path fill="none" stroke="midnightblue" d="M610.394,-513.643C629.814,-521.974 658.058,-535.18 679.659,-545.908"/>
<polygon fill="midnightblue" stroke="midnightblue" points="678.256,-549.12 688.763,-550.484 681.4,-542.865 678.256,-549.12"/>
</g>
<!-- Node30&#45;&gt;Node2 -->
<g id="edge69" class="edge"><title>Node30&#45;&gt;Node2</title>
<path fill="none" stroke="midnightblue" d="M594.026,-495.219C599.128,-487.707 606.801,-476.411 613.159,-467.052"/>
<polygon fill="midnightblue" stroke="midnightblue" points="616.21,-468.788 618.934,-458.55 610.42,-464.855 616.21,-468.788"/>
</g>
</g>
</svg>
