<?xml version="1.0" encoding="UTF-8" standalone="no"?>
<!DOCTYPE svg PUBLIC "-//W3C//DTD SVG 1.1//EN"
 "http://www.w3.org/Graphics/SVG/1.1/DTD/svg11.dtd">
<!-- Generated by graphviz version 2.38.0 (20140413.2041)
 -->
<!-- Title: libraries/AP_HAL_PX4/HAL_PX4_Class.h Pages: 1 -->
<svg width="1212pt" height="232pt"
 viewBox="0.00 0.00 1212.49 232.00" xmlns="http://www.w3.org/2000/svg" xmlns:xlink="http://www.w3.org/1999/xlink">
<g id="graph0" class="graph" transform="scale(1 1) rotate(0) translate(4 228)">
<title>libraries/AP_HAL_PX4/HAL_PX4_Class.h</title>
<polygon fill="white" stroke="none" points="-4,4 -4,-228 1208.49,-228 1208.49,4 -4,4"/>
<!-- Node1 -->
<g id="node1" class="node"><title>Node1</title>
<polygon fill="#bfbfbf" stroke="black" points="583,-195.5 583,-223.5 699.605,-223.5 699.605,-195.5 583,-195.5"/>
<text text-anchor="start" x="591" y="-211.5" font-family="Helvetica,sans-Serif" font-size="10.00">libraries/AP_HAL_PX4</text>
<text text-anchor="middle" x="641.303" y="-201.5" font-family="Helvetica,sans-Serif" font-size="10.00">/HAL_PX4_Class.h</text>
</g>
<!-- Node2 -->
<g id="node2" class="node"><title>Node2</title>
<g id="a_node2"><a xlink:href="$AP__HAL__PX4_8h.html" xlink:title="libraries/AP_HAL_PX4\l/AP_HAL_PX4.h">
<polygon fill="white" stroke="black" points="583,-130.5 583,-158.5 699.605,-158.5 699.605,-130.5 583,-130.5"/>
<text text-anchor="start" x="591" y="-146.5" font-family="Helvetica,sans-Serif" font-size="10.00">libraries/AP_HAL_PX4</text>
<text text-anchor="middle" x="641.303" y="-136.5" font-family="Helvetica,sans-Serif" font-size="10.00">/AP_HAL_PX4.h</text>
</a>
</g>
</g>
<!-- Node1&#45;&gt;Node2 -->
<g id="edge1" class="edge"><title>Node1&#45;&gt;Node2</title>
<path fill="none" stroke="midnightblue" d="M634.774,-185.46C634.289,-176.388 634.602,-166.305 635.712,-158.537"/>
<polygon fill="midnightblue" stroke="midnightblue" points="631.292,-185.817 635.71,-195.446 638.261,-185.163 631.292,-185.817"/>
</g>
<!-- Node5 -->
<g id="node5" class="node"><title>Node5</title>
<g id="a_node5"><a xlink:href="$HAL__PX4__Class_8cpp.html" xlink:title="libraries/AP_HAL_PX4\l/HAL_PX4_Class.cpp">
<polygon fill="white" stroke="black" points="675,-0.5 675,-28.5 791.605,-28.5 791.605,-0.5 675,-0.5"/>
<text text-anchor="start" x="683" y="-16.5" font-family="Helvetica,sans-Serif" font-size="10.00">libraries/AP_HAL_PX4</text>
<text text-anchor="middle" x="733.303" y="-6.5" font-family="Helvetica,sans-Serif" font-size="10.00">/HAL_PX4_Class.cpp</text>
</a>
</g>
</g>
<!-- Node1&#45;&gt;Node5 -->
<g id="edge30" class="edge"><title>Node1&#45;&gt;Node5</title>
<path fill="none" stroke="midnightblue" d="M710.09,-199.985C818.548,-184.989 1021.41,-150.042 1064.3,-94 1171.38,45.9215 1418.05,-132.336 801.303,-29 798.216,-28.4829 795.056,-27.9316 791.867,-27.3583"/>
<polygon fill="midnightblue" stroke="midnightblue" points="709.333,-196.556 699.897,-201.374 710.278,-203.492 709.333,-196.556"/>
</g>
<!-- Node2&#45;&gt;Node1 -->
<g id="edge6" class="edge"><title>Node2&#45;&gt;Node1</title>
<path fill="none" stroke="midnightblue" d="M647.83,-168.52C648.317,-177.591 648.005,-187.675 646.895,-195.446"/>
<polygon fill="midnightblue" stroke="midnightblue" points="651.313,-168.166 646.893,-158.537 644.343,-168.82 651.313,-168.166"/>
</g>
<!-- Node3 -->
<g id="node3" class="node"><title>Node3</title>
<g id="a_node3"><a xlink:href="$PX4_2AnalogIn_8h.html" xlink:title="libraries/AP_HAL_PX4\l/AnalogIn.h">
<polygon fill="white" stroke="black" points="325,-65.5 325,-93.5 441.605,-93.5 441.605,-65.5 325,-65.5"/>
<text text-anchor="start" x="333" y="-81.5" font-family="Helvetica,sans-Serif" font-size="10.00">libraries/AP_HAL_PX4</text>
<text text-anchor="middle" x="383.303" y="-71.5" font-family="Helvetica,sans-Serif" font-size="10.00">/AnalogIn.h</text>
</a>
</g>
</g>
<!-- Node2&#45;&gt;Node3 -->
<g id="edge2" class="edge"><title>Node2&#45;&gt;Node3</title>
<path fill="none" stroke="midnightblue" d="M577.972,-128.036C534.612,-117.448 477.754,-103.564 436.692,-93.5369"/>
<polygon fill="midnightblue" stroke="midnightblue" points="577.3,-131.474 587.845,-130.446 578.961,-124.674 577.3,-131.474"/>
</g>
<!-- Node2&#45;&gt;Node5 -->
<g id="edge12" class="edge"><title>Node2&#45;&gt;Node5</title>
<path fill="none" stroke="midnightblue" d="M642.505,-120.368C644.359,-103.699 648.965,-81.3535 660.303,-65 671.295,-49.144 689.151,-36.905 704.451,-28.5635"/>
<polygon fill="midnightblue" stroke="midnightblue" points="639.013,-120.118 641.641,-130.382 645.988,-120.72 639.013,-120.118"/>
</g>
<!-- Node6 -->
<g id="node6" class="node"><title>Node6</title>
<g id="a_node6"><a xlink:href="$AP__HAL__PX4_2Scheduler_8cpp.html" xlink:title="libraries/AP_HAL_PX4\l/Scheduler.cpp">
<polygon fill="white" stroke="black" points="405,-0.5 405,-28.5 521.605,-28.5 521.605,-0.5 405,-0.5"/>
<text text-anchor="start" x="413" y="-16.5" font-family="Helvetica,sans-Serif" font-size="10.00">libraries/AP_HAL_PX4</text>
<text text-anchor="middle" x="463.303" y="-6.5" font-family="Helvetica,sans-Serif" font-size="10.00">/Scheduler.cpp</text>
</a>
</g>
</g>
<!-- Node2&#45;&gt;Node6 -->
<g id="edge29" class="edge"><title>Node2&#45;&gt;Node6</title>
<path fill="none" stroke="midnightblue" d="M573.106,-135.544C543.611,-128.861 510.776,-116.576 488.303,-94 470.644,-76.2605 465.446,-46.0912 463.924,-28.7756"/>
<polygon fill="midnightblue" stroke="midnightblue" points="572.456,-138.984 582.961,-137.602 573.888,-132.131 572.456,-138.984"/>
</g>
<!-- Node7 -->
<g id="node7" class="node"><title>Node7</title>
<g id="a_node7"><a xlink:href="$PX4_2GPIO_8h.html" xlink:title="libraries/AP_HAL_PX4\l/GPIO.h">
<polygon fill="white" stroke="black" points="190,-65.5 190,-93.5 306.605,-93.5 306.605,-65.5 190,-65.5"/>
<text text-anchor="start" x="198" y="-81.5" font-family="Helvetica,sans-Serif" font-size="10.00">libraries/AP_HAL_PX4</text>
<text text-anchor="middle" x="248.303" y="-71.5" font-family="Helvetica,sans-Serif" font-size="10.00">/GPIO.h</text>
</a>
</g>
</g>
<!-- Node2&#45;&gt;Node7 -->
<g id="edge7" class="edge"><title>Node2&#45;&gt;Node7</title>
<path fill="none" stroke="midnightblue" d="M572.502,-133.935C506.619,-124.559 404.484,-109.461 316.303,-94 313.22,-93.4596 310.063,-92.8897 306.877,-92.3019"/>
<polygon fill="midnightblue" stroke="midnightblue" points="572.365,-137.45 582.757,-135.389 573.348,-130.519 572.365,-137.45"/>
</g>
<!-- Node10 -->
<g id="node10" class="node"><title>Node10</title>
<g id="a_node10"><a xlink:href="$PX4_2UARTDriver_8h.html" xlink:title="libraries/AP_HAL_PX4\l/UARTDriver.h">
<polygon fill="white" stroke="black" points="497,-65.5 497,-93.5 613.605,-93.5 613.605,-65.5 497,-65.5"/>
<text text-anchor="start" x="505" y="-81.5" font-family="Helvetica,sans-Serif" font-size="10.00">libraries/AP_HAL_PX4</text>
<text text-anchor="middle" x="555.303" y="-71.5" font-family="Helvetica,sans-Serif" font-size="10.00">/UARTDriver.h</text>
</a>
</g>
</g>
<!-- Node2&#45;&gt;Node10 -->
<g id="edge13" class="edge"><title>Node2&#45;&gt;Node10</title>
<path fill="none" stroke="midnightblue" d="M615.393,-124.52C601.73,-114.511 585.317,-102.487 573.099,-93.5369"/>
<polygon fill="midnightblue" stroke="midnightblue" points="613.348,-127.36 623.483,-130.446 617.485,-121.713 613.348,-127.36"/>
</g>
<!-- Node12 -->
<g id="node12" class="node"><title>Node12</title>
<g id="a_node12"><a xlink:href="$PX4_2RCInput_8h.html" xlink:title="libraries/AP_HAL_PX4\l/RCInput.h">
<polygon fill="white" stroke="black" points="669,-65.5 669,-93.5 785.605,-93.5 785.605,-65.5 669,-65.5"/>
<text text-anchor="start" x="677" y="-81.5" font-family="Helvetica,sans-Serif" font-size="10.00">libraries/AP_HAL_PX4</text>
<text text-anchor="middle" x="727.303" y="-71.5" font-family="Helvetica,sans-Serif" font-size="10.00">/RCInput.h</text>
</a>
</g>
</g>
<!-- Node2&#45;&gt;Node12 -->
<g id="edge18" class="edge"><title>Node2&#45;&gt;Node12</title>
<path fill="none" stroke="midnightblue" d="M667.212,-124.52C680.875,-114.511 697.289,-102.487 709.506,-93.5369"/>
<polygon fill="midnightblue" stroke="midnightblue" points="665.121,-121.713 659.122,-130.446 669.257,-127.36 665.121,-121.713"/>
</g>
<!-- Node14 -->
<g id="node14" class="node"><title>Node14</title>
<g id="a_node14"><a xlink:href="$PX4_2RCOutput_8h.html" xlink:title="libraries/AP_HAL_PX4\l/RCOutput.h">
<polygon fill="white" stroke="black" points="804,-65.5 804,-93.5 920.605,-93.5 920.605,-65.5 804,-65.5"/>
<text text-anchor="start" x="812" y="-81.5" font-family="Helvetica,sans-Serif" font-size="10.00">libraries/AP_HAL_PX4</text>
<text text-anchor="middle" x="862.303" y="-71.5" font-family="Helvetica,sans-Serif" font-size="10.00">/RCOutput.h</text>
</a>
</g>
</g>
<!-- Node2&#45;&gt;Node14 -->
<g id="edge22" class="edge"><title>Node2&#45;&gt;Node14</title>
<path fill="none" stroke="midnightblue" d="M696.728,-127.7C733.717,-117.156 781.767,-103.458 816.57,-93.5369"/>
<polygon fill="midnightblue" stroke="midnightblue" points="695.751,-124.339 687.094,-130.446 697.67,-131.071 695.751,-124.339"/>
</g>
<!-- Node16 -->
<g id="node16" class="node"><title>Node16</title>
<g id="a_node16"><a xlink:href="$PX4_2I2CDriver_8h.html" xlink:title="libraries/AP_HAL_PX4\l/I2CDriver.h">
<polygon fill="white" stroke="black" points="939,-65.5 939,-93.5 1055.61,-93.5 1055.61,-65.5 939,-65.5"/>
<text text-anchor="start" x="947" y="-81.5" font-family="Helvetica,sans-Serif" font-size="10.00">libraries/AP_HAL_PX4</text>
<text text-anchor="middle" x="997.303" y="-71.5" font-family="Helvetica,sans-Serif" font-size="10.00">/I2CDriver.h</text>
</a>
</g>
</g>
<!-- Node2&#45;&gt;Node16 -->
<g id="edge26" class="edge"><title>Node2&#45;&gt;Node16</title>
<path fill="none" stroke="midnightblue" d="M710.063,-132.194C768.466,-122.468 854.478,-107.855 929.303,-94 932.38,-93.4302 935.533,-92.8369 938.716,-92.2308"/>
<polygon fill="midnightblue" stroke="midnightblue" points="709.141,-128.799 699.85,-133.891 710.289,-135.704 709.141,-128.799"/>
</g>
<!-- Node4 -->
<g id="node4" class="node"><title>Node4</title>
<g id="a_node4"><a xlink:href="$PX4_2AnalogIn_8cpp.html" xlink:title="libraries/AP_HAL_PX4\l/AnalogIn.cpp">
<polygon fill="white" stroke="black" points="135,-0.5 135,-28.5 251.605,-28.5 251.605,-0.5 135,-0.5"/>
<text text-anchor="start" x="143" y="-16.5" font-family="Helvetica,sans-Serif" font-size="10.00">libraries/AP_HAL_PX4</text>
<text text-anchor="middle" x="193.303" y="-6.5" font-family="Helvetica,sans-Serif" font-size="10.00">/AnalogIn.cpp</text>
</a>
</g>
</g>
<!-- Node3&#45;&gt;Node4 -->
<g id="edge3" class="edge"><title>Node3&#45;&gt;Node4</title>
<path fill="none" stroke="midnightblue" d="M334.43,-62.2947C302.799,-51.8066 262.159,-38.3314 232.62,-28.5369"/>
<polygon fill="midnightblue" stroke="midnightblue" points="333.341,-65.6211 343.935,-65.4464 335.544,-58.9769 333.341,-65.6211"/>
</g>
<!-- Node3&#45;&gt;Node5 -->
<g id="edge4" class="edge"><title>Node3&#45;&gt;Node5</title>
<path fill="none" stroke="midnightblue" d="M451.702,-66.9313C508.858,-57.1593 592.477,-42.619 665.303,-29 668.379,-28.4248 671.531,-27.8271 674.713,-27.2176"/>
<polygon fill="midnightblue" stroke="midnightblue" points="450.969,-63.5057 441.701,-68.6387 452.147,-70.4059 450.969,-63.5057"/>
</g>
<!-- Node3&#45;&gt;Node6 -->
<g id="edge5" class="edge"><title>Node3&#45;&gt;Node6</title>
<path fill="none" stroke="midnightblue" d="M407.765,-59.2361C420.402,-49.2841 435.49,-37.4026 446.748,-28.5369"/>
<polygon fill="midnightblue" stroke="midnightblue" points="405.57,-56.5097 399.879,-65.4464 409.901,-62.0092 405.57,-56.5097"/>
</g>
<!-- Node7&#45;&gt;Node4 -->
<g id="edge8" class="edge"><title>Node7&#45;&gt;Node4</title>
<path fill="none" stroke="midnightblue" d="M230.233,-57.8018C221.815,-48.1594 212.056,-36.9805 204.684,-28.5369"/>
<polygon fill="midnightblue" stroke="midnightblue" points="227.693,-60.215 236.907,-65.4464 232.967,-55.6114 227.693,-60.215"/>
</g>
<!-- Node7&#45;&gt;Node5 -->
<g id="edge10" class="edge"><title>Node7&#45;&gt;Node5</title>
<path fill="none" stroke="midnightblue" d="M316.763,-65.0399C472.213,-42.2054 514.268,-51.7317 665.303,-29 668.397,-28.5343 671.565,-28.0239 674.758,-27.4827"/>
<polygon fill="midnightblue" stroke="midnightblue" points="316.222,-61.5817 306.847,-66.5173 317.254,-68.5052 316.222,-61.5817"/>
</g>
<!-- Node8 -->
<g id="node8" class="node"><title>Node8</title>
<g id="a_node8"><a xlink:href="$AP__HAL__PX4_2GPIO_8cpp.html" xlink:title="libraries/AP_HAL_PX4\l/GPIO.cpp">
<polygon fill="white" stroke="black" points="0,-0.5 0,-28.5 116.605,-28.5 116.605,-0.5 0,-0.5"/>
<text text-anchor="start" x="8" y="-16.5" font-family="Helvetica,sans-Serif" font-size="10.00">libraries/AP_HAL_PX4</text>
<text text-anchor="middle" x="58.3027" y="-6.5" font-family="Helvetica,sans-Serif" font-size="10.00">/GPIO.cpp</text>
</a>
</g>
</g>
<!-- Node7&#45;&gt;Node8 -->
<g id="edge9" class="edge"><title>Node7&#45;&gt;Node8</title>
<path fill="none" stroke="midnightblue" d="M199.43,-62.2947C167.799,-51.8066 127.159,-38.3314 97.6204,-28.5369"/>
<polygon fill="midnightblue" stroke="midnightblue" points="198.341,-65.6211 208.935,-65.4464 200.544,-58.9769 198.341,-65.6211"/>
</g>
<!-- Node9 -->
<g id="node9" class="node"><title>Node9</title>
<g id="a_node9"><a xlink:href="$PX4_2UARTDriver_8cpp.html" xlink:title="libraries/AP_HAL_PX4\l/UARTDriver.cpp">
<polygon fill="white" stroke="black" points="270,-0.5 270,-28.5 386.605,-28.5 386.605,-0.5 270,-0.5"/>
<text text-anchor="start" x="278" y="-16.5" font-family="Helvetica,sans-Serif" font-size="10.00">libraries/AP_HAL_PX4</text>
<text text-anchor="middle" x="328.303" y="-6.5" font-family="Helvetica,sans-Serif" font-size="10.00">/UARTDriver.cpp</text>
</a>
</g>
</g>
<!-- Node7&#45;&gt;Node9 -->
<g id="edge11" class="edge"><title>Node7&#45;&gt;Node9</title>
<path fill="none" stroke="midnightblue" d="M272.765,-59.2361C285.402,-49.2841 300.49,-37.4026 311.748,-28.5369"/>
<polygon fill="midnightblue" stroke="midnightblue" points="270.57,-56.5097 264.879,-65.4464 274.901,-62.0092 270.57,-56.5097"/>
</g>
<!-- Node10&#45;&gt;Node5 -->
<g id="edge14" class="edge"><title>Node10&#45;&gt;Node5</title>
<path fill="none" stroke="midnightblue" d="M601.857,-62.0228C631.378,-51.5746 669.033,-38.247 696.468,-28.5369"/>
<polygon fill="midnightblue" stroke="midnightblue" points="600.444,-58.8103 592.184,-65.4464 602.779,-65.4092 600.444,-58.8103"/>
</g>
<!-- Node10&#45;&gt;Node6 -->
<g id="edge15" class="edge"><title>Node10&#45;&gt;Node6</title>
<path fill="none" stroke="midnightblue" d="M527.586,-59.52C512.969,-49.5107 495.411,-37.4871 482.341,-28.5369"/>
<polygon fill="midnightblue" stroke="midnightblue" points="526.012,-62.6841 536.24,-65.4464 529.967,-56.9085 526.012,-62.6841"/>
</g>
<!-- Node10&#45;&gt;Node9 -->
<g id="edge16" class="edge"><title>Node10&#45;&gt;Node9</title>
<path fill="none" stroke="midnightblue" d="M498.373,-62.7001C460.38,-52.1558 411.025,-38.4581 375.277,-28.5369"/>
<polygon fill="midnightblue" stroke="midnightblue" points="497.696,-66.1446 508.268,-65.4464 499.568,-59.3995 497.696,-66.1446"/>
</g>
<!-- Node11 -->
<g id="node11" class="node"><title>Node11</title>
<g id="a_node11"><a xlink:href="$PX4_2Util_8cpp.html" xlink:title="libraries/AP_HAL_PX4\l/Util.cpp">
<polygon fill="white" stroke="black" points="540,-0.5 540,-28.5 656.605,-28.5 656.605,-0.5 540,-0.5"/>
<text text-anchor="start" x="548" y="-16.5" font-family="Helvetica,sans-Serif" font-size="10.00">libraries/AP_HAL_PX4</text>
<text text-anchor="middle" x="598.303" y="-6.5" font-family="Helvetica,sans-Serif" font-size="10.00">/Util.cpp</text>
</a>
</g>
</g>
<!-- Node10&#45;&gt;Node11 -->
<g id="edge17" class="edge"><title>Node10&#45;&gt;Node11</title>
<path fill="none" stroke="midnightblue" d="M570.025,-56.93C576.468,-47.4911 583.814,-36.7272 589.405,-28.5369"/>
<polygon fill="midnightblue" stroke="midnightblue" points="566.959,-55.2137 564.212,-65.4464 572.741,-59.16 566.959,-55.2137"/>
</g>
<!-- Node12&#45;&gt;Node5 -->
<g id="edge19" class="edge"><title>Node12&#45;&gt;Node5</title>
<path fill="none" stroke="midnightblue" d="M729.497,-55.4603C730.361,-46.3882 731.321,-36.305 732.061,-28.5369"/>
<polygon fill="midnightblue" stroke="midnightblue" points="726.01,-55.1595 728.546,-65.4464 732.978,-55.8233 726.01,-55.1595"/>
</g>
<!-- Node12&#45;&gt;Node6 -->
<g id="edge21" class="edge"><title>Node12&#45;&gt;Node6</title>
<path fill="none" stroke="midnightblue" d="M662.779,-63.1023C618.376,-52.5061 560.039,-38.5847 517.934,-28.5369"/>
<polygon fill="midnightblue" stroke="midnightblue" points="662.062,-66.5295 672.602,-65.4464 663.687,-59.7207 662.062,-66.5295"/>
</g>
<!-- Node13 -->
<g id="node13" class="node"><title>Node13</title>
<g id="a_node13"><a xlink:href="$PX4_2RCInput_8cpp.html" xlink:title="libraries/AP_HAL_PX4\l/RCInput.cpp">
<polygon fill="white" stroke="black" points="810,-0.5 810,-28.5 926.605,-28.5 926.605,-0.5 810,-0.5"/>
<text text-anchor="start" x="818" y="-16.5" font-family="Helvetica,sans-Serif" font-size="10.00">libraries/AP_HAL_PX4</text>
<text text-anchor="middle" x="868.303" y="-6.5" font-family="Helvetica,sans-Serif" font-size="10.00">/RCInput.cpp</text>
</a>
</g>
</g>
<!-- Node12&#45;&gt;Node13 -->
<g id="edge20" class="edge"><title>Node12&#45;&gt;Node13</title>
<path fill="none" stroke="midnightblue" d="M765.714,-61.3374C788.857,-50.9968 817.865,-38.0359 839.125,-28.5369"/>
<polygon fill="midnightblue" stroke="midnightblue" points="764.22,-58.1714 756.518,-65.4464 767.076,-64.5624 764.22,-58.1714"/>
</g>
<!-- Node14&#45;&gt;Node5 -->
<g id="edge23" class="edge"><title>Node14&#45;&gt;Node5</title>
<path fill="none" stroke="midnightblue" d="M826.31,-60.9224C805.28,-50.6518 779.188,-37.9093 759.997,-28.5369"/>
<polygon fill="midnightblue" stroke="midnightblue" points="825.052,-64.2029 835.574,-65.4464 828.124,-57.913 825.052,-64.2029"/>
</g>
<!-- Node14&#45;&gt;Node6 -->
<g id="edge25" class="edge"><title>Node14&#45;&gt;Node6</title>
<path fill="none" stroke="midnightblue" d="M793.63,-64.9609C676.225,-45.6511 644.478,-47.9626 531.303,-29 528.216,-28.4829 525.056,-27.9316 521.867,-27.3583"/>
<polygon fill="midnightblue" stroke="midnightblue" points="793.3,-68.454 803.738,-66.6417 794.448,-61.5488 793.3,-68.454"/>
</g>
<!-- Node15 -->
<g id="node15" class="node"><title>Node15</title>
<g id="a_node15"><a xlink:href="$PX4_2RCOutput_8cpp.html" xlink:title="libraries/AP_HAL_PX4\l/RCOutput.cpp">
<polygon fill="white" stroke="black" points="945,-0.5 945,-28.5 1061.61,-28.5 1061.61,-0.5 945,-0.5"/>
<text text-anchor="start" x="953" y="-16.5" font-family="Helvetica,sans-Serif" font-size="10.00">libraries/AP_HAL_PX4</text>
<text text-anchor="middle" x="1003.3" y="-6.5" font-family="Helvetica,sans-Serif" font-size="10.00">/RCOutput.cpp</text>
</a>
</g>
</g>
<!-- Node14&#45;&gt;Node15 -->
<g id="edge24" class="edge"><title>Node14&#45;&gt;Node15</title>
<path fill="none" stroke="midnightblue" d="M900.714,-61.3374C923.857,-50.9968 952.865,-38.0359 974.125,-28.5369"/>
<polygon fill="midnightblue" stroke="midnightblue" points="899.22,-58.1714 891.518,-65.4464 902.076,-64.5624 899.22,-58.1714"/>
</g>
<!-- Node16&#45;&gt;Node5 -->
<g id="edge27" class="edge"><title>Node16&#45;&gt;Node5</title>
<path fill="none" stroke="midnightblue" d="M932.779,-63.1023C888.376,-52.5061 830.039,-38.5847 787.934,-28.5369"/>
<polygon fill="midnightblue" stroke="midnightblue" points="932.062,-66.5295 942.602,-65.4464 933.687,-59.7207 932.062,-66.5295"/>
</g>
<!-- Node17 -->
<g id="node17" class="node"><title>Node17</title>
<g id="a_node17"><a xlink:href="$AP__HAL__PX4_2I2CDriver_8cpp.html" xlink:title="libraries/AP_HAL_PX4\l/I2CDriver.cpp">
<polygon fill="white" stroke="black" points="1080,-0.5 1080,-28.5 1196.61,-28.5 1196.61,-0.5 1080,-0.5"/>
<text text-anchor="start" x="1088" y="-16.5" font-family="Helvetica,sans-Serif" font-size="10.00">libraries/AP_HAL_PX4</text>
<text text-anchor="middle" x="1138.3" y="-6.5" font-family="Helvetica,sans-Serif" font-size="10.00">/I2CDriver.cpp</text>
</a>
</g>
</g>
<!-- Node16&#45;&gt;Node17 -->
<g id="edge28" class="edge"><title>Node16&#45;&gt;Node17</title>
<path fill="none" stroke="midnightblue" d="M1035.71,-61.3374C1058.86,-50.9968 1087.87,-38.0359 1109.12,-28.5369"/>
<polygon fill="midnightblue" stroke="midnightblue" points="1034.22,-58.1714 1026.52,-65.4464 1037.08,-64.5624 1034.22,-58.1714"/>
</g>
</g>
</svg>
