<?xml version="1.0" encoding="UTF-8" standalone="no"?>
<!DOCTYPE svg PUBLIC "-//W3C//DTD SVG 1.1//EN"
 "http://www.w3.org/Graphics/SVG/1.1/DTD/svg11.dtd">
<!-- Generated by graphviz version 2.38.0 (20140413.2041)
 -->
<!-- Title: libraries/AP_HAL_FLYMAPLE/HAL_FLYMAPLE_Class.h Pages: 1 -->
<svg width="4379pt" height="372pt"
 viewBox="0.00 0.00 4378.60 372.00" xmlns="http://www.w3.org/2000/svg" xmlns:xlink="http://www.w3.org/1999/xlink">
<g id="graph0" class="graph" transform="scale(1 1) rotate(0) translate(4 368)">
<title>libraries/AP_HAL_FLYMAPLE/HAL_FLYMAPLE_Class.h</title>
<polygon fill="white" stroke="none" points="-4,4 -4,-368 4374.6,-368 4374.6,4 -4,4"/>
<!-- Node1 -->
<g id="node1" class="node"><title>Node1</title>
<polygon fill="#bfbfbf" stroke="black" points="3240,-335.5 3240,-363.5 3389.21,-363.5 3389.21,-335.5 3240,-335.5"/>
<text text-anchor="start" x="3248" y="-351.5" font-family="Helvetica,sans-Serif" font-size="10.00">libraries/AP_HAL_FLYMAPLE</text>
<text text-anchor="middle" x="3314.6" y="-341.5" font-family="Helvetica,sans-Serif" font-size="10.00">/HAL_FLYMAPLE_Class.h</text>
</g>
<!-- Node2 -->
<g id="node2" class="node"><title>Node2</title>
<g id="a_node2"><a xlink:href="$AP__HAL__FLYMAPLE_8h.html" xlink:title="libraries/AP_HAL_FLYMAPLE\l/AP_HAL_FLYMAPLE.h">
<polygon fill="white" stroke="black" points="2098,-270.5 2098,-298.5 2247.21,-298.5 2247.21,-270.5 2098,-270.5"/>
<text text-anchor="start" x="2106" y="-286.5" font-family="Helvetica,sans-Serif" font-size="10.00">libraries/AP_HAL_FLYMAPLE</text>
<text text-anchor="middle" x="2172.6" y="-276.5" font-family="Helvetica,sans-Serif" font-size="10.00">/AP_HAL_FLYMAPLE.h</text>
</a>
</g>
</g>
<!-- Node1&#45;&gt;Node2 -->
<g id="edge1" class="edge"><title>Node1&#45;&gt;Node2</title>
<path fill="none" stroke="midnightblue" d="M3229.38,-343.798C3014.09,-331.922 2451.04,-300.86 2247.44,-289.628"/>
<polygon fill="midnightblue" stroke="midnightblue" points="3229.5,-347.31 3239.67,-344.366 3229.88,-340.321 3229.5,-347.31"/>
</g>
<!-- Node7 -->
<g id="node7" class="node"><title>Node7</title>
<g id="a_node7"><a xlink:href="$HAL__FLYMAPLE__Class_8cpp.html" xlink:title="libraries/AP_HAL_FLYMAPLE\l/HAL_FLYMAPLE_Class.cpp">
<polygon fill="white" stroke="black" points="2630,-0.5 2630,-28.5 2779.21,-28.5 2779.21,-0.5 2630,-0.5"/>
<text text-anchor="start" x="2638" y="-16.5" font-family="Helvetica,sans-Serif" font-size="10.00">libraries/AP_HAL_FLYMAPLE</text>
<text text-anchor="middle" x="2704.6" y="-6.5" font-family="Helvetica,sans-Serif" font-size="10.00">/HAL_FLYMAPLE_Class.cpp</text>
</a>
</g>
</g>
<!-- Node1&#45;&gt;Node7 -->
<g id="edge51" class="edge"><title>Node1&#45;&gt;Node7</title>
<path fill="none" stroke="midnightblue" d="M3399.43,-346.692C3650.2,-340.233 4370.6,-313.177 4370.6,-215.5 4370.6,-215.5 4370.6,-215.5 4370.6,-143.5 4370.6,-62.5472 3103.6,-25.4426 2779.43,-17.2739"/>
<polygon fill="midnightblue" stroke="midnightblue" points="3399.19,-343.197 3389.28,-346.949 3399.37,-350.195 3399.19,-343.197"/>
</g>
<!-- Node3 -->
<g id="node3" class="node"><title>Node3</title>
<g id="a_node3"><a xlink:href="$FLYMAPLE_2AnalogIn_8h.html" xlink:title="libraries/AP_HAL_FLYMAPLE\l/AnalogIn.h">
<polygon fill="white" stroke="black" points="1479,-200.5 1479,-228.5 1628.21,-228.5 1628.21,-200.5 1479,-200.5"/>
<text text-anchor="start" x="1487" y="-216.5" font-family="Helvetica,sans-Serif" font-size="10.00">libraries/AP_HAL_FLYMAPLE</text>
<text text-anchor="middle" x="1553.6" y="-206.5" font-family="Helvetica,sans-Serif" font-size="10.00">/AnalogIn.h</text>
</a>
</g>
</g>
<!-- Node2&#45;&gt;Node3 -->
<g id="edge2" class="edge"><title>Node2&#45;&gt;Node3</title>
<path fill="none" stroke="midnightblue" d="M2087.82,-278.925C1981.99,-272.464 1795.64,-258.616 1637.6,-234 1628.01,-232.506 1617.88,-230.578 1608.09,-228.533"/>
<polygon fill="midnightblue" stroke="midnightblue" points="2087.62,-282.419 2097.81,-279.527 2088.04,-275.431 2087.62,-282.419"/>
</g>
<!-- Node8 -->
<g id="node8" class="node"><title>Node8</title>
<g id="a_node8"><a xlink:href="$FLYMAPLE_2UARTDriver_8h.html" xlink:title="libraries/AP_HAL_FLYMAPLE\l/UARTDriver.h">
<polygon fill="white" stroke="black" points="4193,-200.5 4193,-228.5 4342.21,-228.5 4342.21,-200.5 4193,-200.5"/>
<text text-anchor="start" x="4201" y="-216.5" font-family="Helvetica,sans-Serif" font-size="10.00">libraries/AP_HAL_FLYMAPLE</text>
<text text-anchor="middle" x="4267.6" y="-206.5" font-family="Helvetica,sans-Serif" font-size="10.00">/UARTDriver.h</text>
</a>
</g>
</g>
<!-- Node2&#45;&gt;Node8 -->
<g id="edge7" class="edge"><title>Node2&#45;&gt;Node8</title>
<path fill="none" stroke="midnightblue" d="M2257.43,-283.612C2589.67,-283.711 3802.83,-280.79 4184.6,-234 4195.01,-232.725 4206.03,-230.734 4216.52,-228.523"/>
<polygon fill="midnightblue" stroke="midnightblue" points="2257.4,-280.112 2247.39,-283.608 2257.39,-287.112 2257.4,-280.112"/>
</g>
<!-- Node10 -->
<g id="node10" class="node"><title>Node10</title>
<g id="a_node10"><a xlink:href="$FLYMAPLE_2I2CDriver_8h.html" xlink:title="libraries/AP_HAL_FLYMAPLE\l/I2CDriver.h">
<polygon fill="white" stroke="black" points="463,-200.5 463,-228.5 612.208,-228.5 612.208,-200.5 463,-200.5"/>
<text text-anchor="start" x="471" y="-216.5" font-family="Helvetica,sans-Serif" font-size="10.00">libraries/AP_HAL_FLYMAPLE</text>
<text text-anchor="middle" x="537.604" y="-206.5" font-family="Helvetica,sans-Serif" font-size="10.00">/I2CDriver.h</text>
</a>
</g>
</g>
<!-- Node2&#45;&gt;Node10 -->
<g id="edge10" class="edge"><title>Node2&#45;&gt;Node10</title>
<path fill="none" stroke="midnightblue" d="M2087.88,-282.783C1863.15,-280.415 1233.32,-270.749 710.604,-234 678.363,-231.733 642.851,-228.13 612.434,-224.702"/>
<polygon fill="midnightblue" stroke="midnightblue" points="2087.92,-286.283 2097.95,-282.887 2087.99,-279.284 2087.92,-286.283"/>
</g>
<!-- Node12 -->
<g id="node12" class="node"><title>Node12</title>
<g id="a_node12"><a xlink:href="$FLYMAPLE_2SPIDriver_8h.html" xlink:title="libraries/AP_HAL_FLYMAPLE\l/SPIDriver.h">
<polygon fill="white" stroke="black" points="1440,-130.5 1440,-158.5 1589.21,-158.5 1589.21,-130.5 1440,-130.5"/>
<text text-anchor="start" x="1448" y="-146.5" font-family="Helvetica,sans-Serif" font-size="10.00">libraries/AP_HAL_FLYMAPLE</text>
<text text-anchor="middle" x="1514.6" y="-136.5" font-family="Helvetica,sans-Serif" font-size="10.00">/SPIDriver.h</text>
</a>
</g>
</g>
<!-- Node2&#45;&gt;Node12 -->
<g id="edge13" class="edge"><title>Node2&#45;&gt;Node12</title>
<path fill="none" stroke="midnightblue" d="M2087.8,-283.852C1909.96,-283.701 1510.96,-278.365 1469.6,-234 1448.57,-211.43 1478.95,-177.154 1499.13,-158.577"/>
<polygon fill="midnightblue" stroke="midnightblue" points="2087.9,-287.352 2097.9,-283.855 2087.91,-280.352 2087.9,-287.352"/>
</g>
<!-- Node14 -->
<g id="node14" class="node"><title>Node14</title>
<g id="a_node14"><a xlink:href="$FLYMAPLE_2Semaphores_8h.html" xlink:title="libraries/AP_HAL_FLYMAPLE\l/Semaphores.h">
<polygon fill="white" stroke="black" points="1273,-200.5 1273,-228.5 1422.21,-228.5 1422.21,-200.5 1273,-200.5"/>
<text text-anchor="start" x="1281" y="-216.5" font-family="Helvetica,sans-Serif" font-size="10.00">libraries/AP_HAL_FLYMAPLE</text>
<text text-anchor="middle" x="1347.6" y="-206.5" font-family="Helvetica,sans-Serif" font-size="10.00">/Semaphores.h</text>
</a>
</g>
</g>
<!-- Node2&#45;&gt;Node14 -->
<g id="edge16" class="edge"><title>Node2&#45;&gt;Node14</title>
<path fill="none" stroke="midnightblue" d="M2087.78,-281.589C1950.42,-277.644 1671.02,-266.091 1436.6,-234 1426.13,-232.566 1415.04,-230.615 1404.38,-228.517"/>
<polygon fill="midnightblue" stroke="midnightblue" points="2087.73,-285.089 2097.82,-281.871 2087.93,-278.091 2087.73,-285.089"/>
</g>
<!-- Node15 -->
<g id="node15" class="node"><title>Node15</title>
<g id="a_node15"><a xlink:href="$AP__HAL__FLYMAPLE_2Semaphores_8cpp.html" xlink:title="libraries/AP_HAL_FLYMAPLE\l/Semaphores.cpp">
<polygon fill="white" stroke="black" points="1234,-130.5 1234,-158.5 1383.21,-158.5 1383.21,-130.5 1234,-130.5"/>
<text text-anchor="start" x="1242" y="-146.5" font-family="Helvetica,sans-Serif" font-size="10.00">libraries/AP_HAL_FLYMAPLE</text>
<text text-anchor="middle" x="1308.6" y="-136.5" font-family="Helvetica,sans-Serif" font-size="10.00">/Semaphores.cpp</text>
</a>
</g>
</g>
<!-- Node2&#45;&gt;Node15 -->
<g id="edge50" class="edge"><title>Node2&#45;&gt;Node15</title>
<path fill="none" stroke="midnightblue" d="M2087.64,-282C1867.13,-277.693 1291.69,-263.652 1263.6,-234 1242.39,-211.598 1272.84,-177.255 1293.08,-158.623"/>
<polygon fill="midnightblue" stroke="midnightblue" points="2087.8,-285.503 2097.87,-282.197 2087.94,-278.505 2087.8,-285.503"/>
</g>
<!-- Node16 -->
<g id="node16" class="node"><title>Node16</title>
<g id="a_node16"><a xlink:href="$FLYMAPLE_2Storage_8h.html" xlink:title="libraries/AP_HAL_FLYMAPLE\l/Storage.h">
<polygon fill="white" stroke="black" points="103,-200.5 103,-228.5 252.208,-228.5 252.208,-200.5 103,-200.5"/>
<text text-anchor="start" x="111" y="-216.5" font-family="Helvetica,sans-Serif" font-size="10.00">libraries/AP_HAL_FLYMAPLE</text>
<text text-anchor="middle" x="177.604" y="-206.5" font-family="Helvetica,sans-Serif" font-size="10.00">/Storage.h</text>
</a>
</g>
</g>
<!-- Node2&#45;&gt;Node16 -->
<g id="edge20" class="edge"><title>Node2&#45;&gt;Node16</title>
<path fill="none" stroke="midnightblue" d="M2087.89,-282.875C1769.35,-280.278 643.466,-268.79 286.604,-234 273.231,-232.696 259.022,-230.722 245.434,-228.542"/>
<polygon fill="midnightblue" stroke="midnightblue" points="2087.95,-286.376 2097.98,-282.957 2088.01,-279.376 2087.95,-286.376"/>
</g>
<!-- Node18 -->
<g id="node18" class="node"><title>Node18</title>
<g id="a_node18"><a xlink:href="$FLYMAPLE_2GPIO_8h.html" xlink:title="libraries/AP_HAL_FLYMAPLE\l/GPIO.h">
<polygon fill="white" stroke="black" points="296,-200.5 296,-228.5 445.208,-228.5 445.208,-200.5 296,-200.5"/>
<text text-anchor="start" x="304" y="-216.5" font-family="Helvetica,sans-Serif" font-size="10.00">libraries/AP_HAL_FLYMAPLE</text>
<text text-anchor="middle" x="370.604" y="-206.5" font-family="Helvetica,sans-Serif" font-size="10.00">/GPIO.h</text>
</a>
</g>
</g>
<!-- Node2&#45;&gt;Node18 -->
<g id="edge23" class="edge"><title>Node2&#45;&gt;Node18</title>
<path fill="none" stroke="midnightblue" d="M2087.15,-283.193C1786.01,-281.774 774.947,-274.067 453.604,-234 443.349,-232.721 432.497,-230.759 422.14,-228.582"/>
<polygon fill="midnightblue" stroke="midnightblue" points="2087.55,-286.695 2097.56,-283.241 2087.58,-279.695 2087.55,-286.695"/>
</g>
<!-- Node20 -->
<g id="node20" class="node"><title>Node20</title>
<g id="a_node20"><a xlink:href="$FLYMAPLE_2RCInput_8h.html" xlink:title="libraries/AP_HAL_FLYMAPLE\l/RCInput.h">
<polygon fill="white" stroke="black" points="720,-200.5 720,-228.5 869.208,-228.5 869.208,-200.5 720,-200.5"/>
<text text-anchor="start" x="728" y="-216.5" font-family="Helvetica,sans-Serif" font-size="10.00">libraries/AP_HAL_FLYMAPLE</text>
<text text-anchor="middle" x="794.604" y="-206.5" font-family="Helvetica,sans-Serif" font-size="10.00">/RCInput.h</text>
</a>
</g>
</g>
<!-- Node2&#45;&gt;Node20 -->
<g id="edge26" class="edge"><title>Node2&#45;&gt;Node20</title>
<path fill="none" stroke="midnightblue" d="M2087.86,-281.908C1840.73,-277 1123.59,-260.79 890.604,-234 878.885,-232.652 866.453,-230.673 854.56,-228.504"/>
<polygon fill="midnightblue" stroke="midnightblue" points="2087.8,-285.408 2097.87,-282.106 2087.94,-278.409 2087.8,-285.408"/>
</g>
<!-- Node22 -->
<g id="node22" class="node"><title>Node22</title>
<g id="a_node22"><a xlink:href="$FLYMAPLE_2RCOutput_8h.html" xlink:title="libraries/AP_HAL_FLYMAPLE\l/RCOutput.h">
<polygon fill="white" stroke="black" points="900,-200.5 900,-228.5 1049.21,-228.5 1049.21,-200.5 900,-200.5"/>
<text text-anchor="start" x="908" y="-216.5" font-family="Helvetica,sans-Serif" font-size="10.00">libraries/AP_HAL_FLYMAPLE</text>
<text text-anchor="middle" x="974.604" y="-206.5" font-family="Helvetica,sans-Serif" font-size="10.00">/RCOutput.h</text>
</a>
</g>
</g>
<!-- Node2&#45;&gt;Node22 -->
<g id="edge29" class="edge"><title>Node2&#45;&gt;Node22</title>
<path fill="none" stroke="midnightblue" d="M2087.76,-281.656C1863.12,-276.467 1256.48,-260.372 1057.6,-234 1047.51,-232.661 1036.82,-230.7 1026.6,-228.549"/>
<polygon fill="midnightblue" stroke="midnightblue" points="2087.77,-285.157 2097.85,-281.888 2087.93,-278.159 2087.77,-285.157"/>
</g>
<!-- Node24 -->
<g id="node24" class="node"><title>Node24</title>
<g id="a_node24"><a xlink:href="$FLYMAPLE_2Scheduler_8h.html" xlink:title="libraries/AP_HAL_FLYMAPLE\l/Scheduler.h">
<polygon fill="white" stroke="black" points="1067,-200.5 1067,-228.5 1216.21,-228.5 1216.21,-200.5 1067,-200.5"/>
<text text-anchor="start" x="1075" y="-216.5" font-family="Helvetica,sans-Serif" font-size="10.00">libraries/AP_HAL_FLYMAPLE</text>
<text text-anchor="middle" x="1141.6" y="-206.5" font-family="Helvetica,sans-Serif" font-size="10.00">/Scheduler.h</text>
</a>
</g>
</g>
<!-- Node2&#45;&gt;Node24 -->
<g id="edge32" class="edge"><title>Node2&#45;&gt;Node24</title>
<path fill="none" stroke="midnightblue" d="M2087.64,-283.362C1922.05,-282.139 1544.79,-274.668 1230.6,-234 1219.96,-232.622 1208.69,-230.671 1197.88,-228.549"/>
<polygon fill="midnightblue" stroke="midnightblue" points="2087.74,-286.863 2097.76,-283.431 2087.79,-279.863 2087.74,-286.863"/>
</g>
<!-- Node26 -->
<g id="node26" class="node"><title>Node26</title>
<g id="a_node26"><a xlink:href="$FLYMAPLE_2examples_2AnalogIn_2AnalogIn_8cpp.html" xlink:title="libraries/AP_HAL_FLYMAPLE\l/examples/AnalogIn/AnalogIn.cpp">
<polygon fill="white" stroke="black" points="1646.11,-200.5 1646.11,-228.5 1811.1,-228.5 1811.1,-200.5 1646.11,-200.5"/>
<text text-anchor="start" x="1654.11" y="-216.5" font-family="Helvetica,sans-Serif" font-size="10.00">libraries/AP_HAL_FLYMAPLE</text>
<text text-anchor="middle" x="1728.6" y="-206.5" font-family="Helvetica,sans-Serif" font-size="10.00">/examples/AnalogIn/AnalogIn.cpp</text>
</a>
</g>
</g>
<!-- Node2&#45;&gt;Node26 -->
<g id="edge36" class="edge"><title>Node2&#45;&gt;Node26</title>
<path fill="none" stroke="midnightblue" d="M2087.61,-272.97C2016.18,-263.78 1911.49,-249.514 1820.6,-234 1810.97,-232.355 1800.8,-230.465 1790.87,-228.535"/>
<polygon fill="midnightblue" stroke="midnightblue" points="2087.54,-276.489 2097.9,-274.288 2088.43,-269.546 2087.54,-276.489"/>
</g>
<!-- Node27 -->
<g id="node27" class="node"><title>Node27</title>
<g id="a_node27"><a xlink:href="$AP__Baro__BMP085__test_8cpp.html" xlink:title="libraries/AP_HAL_FLYMAPLE\l/examples/AP_Baro_BMP085\l_test/AP_Baro_BMP085_test.cpp">
<polygon fill="white" stroke="black" points="1829.11,-195.5 1829.11,-233.5 1994.09,-233.5 1994.09,-195.5 1829.11,-195.5"/>
<text text-anchor="start" x="1837.11" y="-221.5" font-family="Helvetica,sans-Serif" font-size="10.00">libraries/AP_HAL_FLYMAPLE</text>
<text text-anchor="start" x="1837.11" y="-211.5" font-family="Helvetica,sans-Serif" font-size="10.00">/examples/AP_Baro_BMP085</text>
<text text-anchor="middle" x="1911.6" y="-201.5" font-family="Helvetica,sans-Serif" font-size="10.00">_test/AP_Baro_BMP085_test.cpp</text>
</a>
</g>
</g>
<!-- Node2&#45;&gt;Node27 -->
<g id="edge37" class="edge"><title>Node2&#45;&gt;Node27</title>
<path fill="none" stroke="midnightblue" d="M2112.9,-267.944C2073.68,-257.727 2022.24,-244.324 1981.17,-233.625"/>
<polygon fill="midnightblue" stroke="midnightblue" points="2112.03,-271.335 2122.59,-270.469 2113.79,-264.561 2112.03,-271.335"/>
</g>
<!-- Node28 -->
<g id="node28" class="node"><title>Node28</title>
<g id="a_node28"><a xlink:href="$Blink_8cpp.html" xlink:title="libraries/AP_HAL_FLYMAPLE\l/examples/Blink/Blink.cpp">
<polygon fill="white" stroke="black" points="2012,-200.5 2012,-228.5 2161.21,-228.5 2161.21,-200.5 2012,-200.5"/>
<text text-anchor="start" x="2020" y="-216.5" font-family="Helvetica,sans-Serif" font-size="10.00">libraries/AP_HAL_FLYMAPLE</text>
<text text-anchor="middle" x="2086.6" y="-206.5" font-family="Helvetica,sans-Serif" font-size="10.00">/examples/Blink/Blink.cpp</text>
</a>
</g>
</g>
<!-- Node2&#45;&gt;Node28 -->
<g id="edge38" class="edge"><title>Node2&#45;&gt;Node28</title>
<path fill="none" stroke="midnightblue" d="M2148.01,-264.052C2133.62,-252.678 2115.85,-238.626 2103.13,-228.571"/>
<polygon fill="midnightblue" stroke="midnightblue" points="2146.01,-266.932 2156.02,-270.389 2150.35,-261.441 2146.01,-266.932"/>
</g>
<!-- Node29 -->
<g id="node29" class="node"><title>Node29</title>
<g id="a_node29"><a xlink:href="$AP__HAL__FLYMAPLE_2examples_2Console_2Console_8cpp.html" xlink:title="libraries/AP_HAL_FLYMAPLE\l/examples/Console/Console.cpp">
<polygon fill="white" stroke="black" points="2178.9,-200.5 2178.9,-228.5 2338.31,-228.5 2338.31,-200.5 2178.9,-200.5"/>
<text text-anchor="start" x="2186.9" y="-216.5" font-family="Helvetica,sans-Serif" font-size="10.00">libraries/AP_HAL_FLYMAPLE</text>
<text text-anchor="middle" x="2258.6" y="-206.5" font-family="Helvetica,sans-Serif" font-size="10.00">/examples/Console/Console.cpp</text>
</a>
</g>
</g>
<!-- Node2&#45;&gt;Node29 -->
<g id="edge39" class="edge"><title>Node2&#45;&gt;Node29</title>
<path fill="none" stroke="midnightblue" d="M2197.2,-264.052C2211.58,-252.678 2229.36,-238.626 2242.07,-228.571"/>
<polygon fill="midnightblue" stroke="midnightblue" points="2194.86,-261.441 2189.19,-270.389 2199.2,-266.932 2194.86,-261.441"/>
</g>
<!-- Node30 -->
<g id="node30" class="node"><title>Node30</title>
<g id="a_node30"><a xlink:href="$empty__example_8cpp.html" xlink:title="libraries/AP_HAL_FLYMAPLE\l/examples/empty_example\l/empty_example.cpp">
<polygon fill="white" stroke="black" points="2356,-195.5 2356,-233.5 2505.21,-233.5 2505.21,-195.5 2356,-195.5"/>
<text text-anchor="start" x="2364" y="-221.5" font-family="Helvetica,sans-Serif" font-size="10.00">libraries/AP_HAL_FLYMAPLE</text>
<text text-anchor="start" x="2364" y="-211.5" font-family="Helvetica,sans-Serif" font-size="10.00">/examples/empty_example</text>
<text text-anchor="middle" x="2430.6" y="-201.5" font-family="Helvetica,sans-Serif" font-size="10.00">/empty_example.cpp</text>
</a>
</g>
</g>
<!-- Node2&#45;&gt;Node30 -->
<g id="edge40" class="edge"><title>Node2&#45;&gt;Node30</title>
<path fill="none" stroke="midnightblue" d="M2232.12,-267.814C2270.82,-257.614 2321.41,-244.279 2361.83,-233.625"/>
<polygon fill="midnightblue" stroke="midnightblue" points="2230.82,-264.536 2222.04,-270.469 2232.61,-271.305 2230.82,-264.536"/>
</g>
<!-- Node31 -->
<g id="node31" class="node"><title>Node31</title>
<g id="a_node31"><a xlink:href="$I2CDriver__HMC5883L_8cpp.html" xlink:title="libraries/AP_HAL_FLYMAPLE\l/examples/I2CDriver_HMC5883L\l/I2CDriver_HMC5883L.cpp">
<polygon fill="white" stroke="black" points="2523.24,-195.5 2523.24,-233.5 2685.97,-233.5 2685.97,-195.5 2523.24,-195.5"/>
<text text-anchor="start" x="2531.24" y="-221.5" font-family="Helvetica,sans-Serif" font-size="10.00">libraries/AP_HAL_FLYMAPLE</text>
<text text-anchor="start" x="2531.24" y="-211.5" font-family="Helvetica,sans-Serif" font-size="10.00">/examples/I2CDriver_HMC5883L</text>
<text text-anchor="middle" x="2604.6" y="-201.5" font-family="Helvetica,sans-Serif" font-size="10.00">/I2CDriver_HMC5883L.cpp</text>
</a>
</g>
</g>
<!-- Node2&#45;&gt;Node31 -->
<g id="edge41" class="edge"><title>Node2&#45;&gt;Node31</title>
<path fill="none" stroke="midnightblue" d="M2257.53,-272.626C2326.86,-263.407 2427.3,-249.277 2514.6,-234 2517.43,-233.505 2520.31,-232.988 2523.21,-232.455"/>
<polygon fill="midnightblue" stroke="midnightblue" points="2256.98,-269.167 2247.53,-273.95 2257.9,-276.107 2256.98,-269.167"/>
</g>
<!-- Node32 -->
<g id="node32" class="node"><title>Node32</title>
<g id="a_node32"><a xlink:href="$FLYMAPLE_2examples_2RCInput_2RCInput_8cpp.html" xlink:title="libraries/AP_HAL_FLYMAPLE\l/examples/RCInput/RCInput.cpp">
<polygon fill="white" stroke="black" points="2703.9,-200.5 2703.9,-228.5 2863.31,-228.5 2863.31,-200.5 2703.9,-200.5"/>
<text text-anchor="start" x="2711.9" y="-216.5" font-family="Helvetica,sans-Serif" font-size="10.00">libraries/AP_HAL_FLYMAPLE</text>
<text text-anchor="middle" x="2783.6" y="-206.5" font-family="Helvetica,sans-Serif" font-size="10.00">/examples/RCInput/RCInput.cpp</text>
</a>
</g>
</g>
<!-- Node2&#45;&gt;Node32 -->
<g id="edge42" class="edge"><title>Node2&#45;&gt;Node32</title>
<path fill="none" stroke="midnightblue" d="M2257.35,-278.351C2360.91,-271.395 2541.29,-257.132 2694.6,-234 2704.59,-232.493 2715.15,-230.584 2725.36,-228.567"/>
<polygon fill="midnightblue" stroke="midnightblue" points="2257.01,-274.866 2247.26,-279.022 2257.47,-281.851 2257.01,-274.866"/>
</g>
<!-- Node33 -->
<g id="node33" class="node"><title>Node33</title>
<g id="a_node33"><a xlink:href="$RCPassthroughTest_8cpp.html" xlink:title="libraries/AP_HAL_FLYMAPLE\l/examples/RCPassthroughTest\l/RCPassthroughTest.cpp">
<polygon fill="white" stroke="black" points="2880.96,-195.5 2880.96,-233.5 3034.25,-233.5 3034.25,-195.5 2880.96,-195.5"/>
<text text-anchor="start" x="2888.96" y="-221.5" font-family="Helvetica,sans-Serif" font-size="10.00">libraries/AP_HAL_FLYMAPLE</text>
<text text-anchor="start" x="2888.96" y="-211.5" font-family="Helvetica,sans-Serif" font-size="10.00">/examples/RCPassthroughTest</text>
<text text-anchor="middle" x="2957.6" y="-201.5" font-family="Helvetica,sans-Serif" font-size="10.00">/RCPassthroughTest.cpp</text>
</a>
</g>
</g>
<!-- Node2&#45;&gt;Node33 -->
<g id="edge43" class="edge"><title>Node2&#45;&gt;Node33</title>
<path fill="none" stroke="midnightblue" d="M2257.37,-281.432C2389.44,-277.329 2652.08,-265.628 2872.6,-234 2875.29,-233.614 2878.03,-233.191 2880.78,-232.738"/>
<polygon fill="midnightblue" stroke="midnightblue" points="2257.2,-277.936 2247.31,-281.738 2257.41,-284.932 2257.2,-277.936"/>
</g>
<!-- Node34 -->
<g id="node34" class="node"><title>Node34</title>
<g id="a_node34"><a xlink:href="$AP__HAL__FLYMAPLE_2examples_2Scheduler_2Scheduler_8cpp.html" xlink:title="libraries/AP_HAL_FLYMAPLE\l/examples/Scheduler/Scheduler.cpp">
<polygon fill="white" stroke="black" points="3051.83,-200.5 3051.83,-228.5 3227.38,-228.5 3227.38,-200.5 3051.83,-200.5"/>
<text text-anchor="start" x="3059.83" y="-216.5" font-family="Helvetica,sans-Serif" font-size="10.00">libraries/AP_HAL_FLYMAPLE</text>
<text text-anchor="middle" x="3139.6" y="-206.5" font-family="Helvetica,sans-Serif" font-size="10.00">/examples/Scheduler/Scheduler.cpp</text>
</a>
</g>
</g>
<!-- Node2&#45;&gt;Node34 -->
<g id="edge44" class="edge"><title>Node2&#45;&gt;Node34</title>
<path fill="none" stroke="midnightblue" d="M2257.49,-282.435C2413.65,-279.642 2756.81,-269.622 3043.6,-234 3054.97,-232.588 3067.02,-230.634 3078.6,-228.523"/>
<polygon fill="midnightblue" stroke="midnightblue" points="2257.41,-278.936 2247.47,-282.609 2257.53,-285.935 2257.41,-278.936"/>
</g>
<!-- Node35 -->
<g id="node35" class="node"><title>Node35</title>
<g id="a_node35"><a xlink:href="$Semaphore_8cpp.html" xlink:title="libraries/AP_HAL_FLYMAPLE\l/examples/Semaphore/Semaphore.cpp">
<polygon fill="white" stroke="black" points="3244.89,-200.5 3244.89,-228.5 3434.32,-228.5 3434.32,-200.5 3244.89,-200.5"/>
<text text-anchor="start" x="3252.89" y="-216.5" font-family="Helvetica,sans-Serif" font-size="10.00">libraries/AP_HAL_FLYMAPLE</text>
<text text-anchor="middle" x="3339.6" y="-206.5" font-family="Helvetica,sans-Serif" font-size="10.00">/examples/Semaphore/Semaphore.cpp</text>
</a>
</g>
</g>
<!-- Node2&#45;&gt;Node35 -->
<g id="edge45" class="edge"><title>Node2&#45;&gt;Node35</title>
<path fill="none" stroke="midnightblue" d="M2257.6,-283.324C2438.36,-282.119 2874.05,-274.814 3236.6,-234 3248.88,-232.618 3261.9,-230.665 3274.41,-228.541"/>
<polygon fill="midnightblue" stroke="midnightblue" points="2257.34,-279.825 2247.37,-283.387 2257.39,-286.825 2257.34,-279.825"/>
</g>
<!-- Node36 -->
<g id="node36" class="node"><title>Node36</title>
<g id="a_node36"><a xlink:href="$AP__HAL__FLYMAPLE_2examples_2SPIDriver_2SPIDriver_8cpp.html" xlink:title="libraries/AP_HAL_FLYMAPLE\l/examples/SPIDriver/SPIDriver.cpp">
<polygon fill="white" stroke="black" points="3452.08,-200.5 3452.08,-228.5 3623.13,-228.5 3623.13,-200.5 3452.08,-200.5"/>
<text text-anchor="start" x="3460.08" y="-216.5" font-family="Helvetica,sans-Serif" font-size="10.00">libraries/AP_HAL_FLYMAPLE</text>
<text text-anchor="middle" x="3537.6" y="-206.5" font-family="Helvetica,sans-Serif" font-size="10.00">/examples/SPIDriver/SPIDriver.cpp</text>
</a>
</g>
</g>
<!-- Node2&#45;&gt;Node36 -->
<g id="edge46" class="edge"><title>Node2&#45;&gt;Node36</title>
<path fill="none" stroke="midnightblue" d="M2257.85,-281.909C2504.02,-277.04 3213.06,-261.01 3443.6,-234 3455.09,-232.655 3467.26,-230.677 3478.91,-228.508"/>
<polygon fill="midnightblue" stroke="midnightblue" points="2257.46,-278.416 2247.53,-282.112 2257.6,-285.415 2257.46,-278.416"/>
</g>
<!-- Node37 -->
<g id="node37" class="node"><title>Node37</title>
<g id="a_node37"><a xlink:href="$FLYMAPLE_2examples_2Storage_2Storage_8cpp.html" xlink:title="libraries/AP_HAL_FLYMAPLE\l/examples/Storage/Storage.cpp">
<polygon fill="white" stroke="black" points="3641.56,-200.5 3641.56,-228.5 3797.65,-228.5 3797.65,-200.5 3641.56,-200.5"/>
<text text-anchor="start" x="3649.56" y="-216.5" font-family="Helvetica,sans-Serif" font-size="10.00">libraries/AP_HAL_FLYMAPLE</text>
<text text-anchor="middle" x="3719.6" y="-206.5" font-family="Helvetica,sans-Serif" font-size="10.00">/examples/Storage/Storage.cpp</text>
</a>
</g>
</g>
<!-- Node2&#45;&gt;Node37 -->
<g id="edge47" class="edge"><title>Node2&#45;&gt;Node37</title>
<path fill="none" stroke="midnightblue" d="M2257.72,-282.578C2527.87,-279.343 3363.86,-266.87 3632.6,-234 3643.33,-232.688 3654.7,-230.71 3665.55,-228.529"/>
<polygon fill="midnightblue" stroke="midnightblue" points="2257.54,-279.08 2247.59,-282.698 2257.63,-286.079 2257.54,-279.08"/>
</g>
<!-- Node38 -->
<g id="node38" class="node"><title>Node38</title>
<g id="a_node38"><a xlink:href="$FLYMAPLE_2examples_2UARTDriver_2UARTDriver_8cpp.html" xlink:title="libraries/AP_HAL_FLYMAPLE\l/examples/UARTDriver/UARTDriver.cpp">
<polygon fill="white" stroke="black" points="3815.15,-200.5 3815.15,-228.5 4008.06,-228.5 4008.06,-200.5 3815.15,-200.5"/>
<text text-anchor="start" x="3823.15" y="-216.5" font-family="Helvetica,sans-Serif" font-size="10.00">libraries/AP_HAL_FLYMAPLE</text>
<text text-anchor="middle" x="3911.6" y="-206.5" font-family="Helvetica,sans-Serif" font-size="10.00">/examples/UARTDriver/UARTDriver.cpp</text>
</a>
</g>
</g>
<!-- Node2&#45;&gt;Node38 -->
<g id="edge48" class="edge"><title>Node2&#45;&gt;Node38</title>
<path fill="none" stroke="midnightblue" d="M2257.73,-282.543C2548.59,-279.018 3501.78,-265.306 3806.6,-234 3819.49,-232.676 3833.18,-230.693 3846.27,-228.51"/>
<polygon fill="midnightblue" stroke="midnightblue" points="2257.62,-279.044 2247.66,-282.664 2257.7,-286.043 2257.62,-279.044"/>
</g>
<!-- Node39 -->
<g id="node39" class="node"><title>Node39</title>
<g id="a_node39"><a xlink:href="$UtilityStringTest_8cpp.html" xlink:title="libraries/AP_HAL_FLYMAPLE\l/examples/UtilityStringTest\l/UtilityStringTest.cpp">
<polygon fill="white" stroke="black" points="4026,-195.5 4026,-233.5 4175.21,-233.5 4175.21,-195.5 4026,-195.5"/>
<text text-anchor="start" x="4034" y="-221.5" font-family="Helvetica,sans-Serif" font-size="10.00">libraries/AP_HAL_FLYMAPLE</text>
<text text-anchor="start" x="4034" y="-211.5" font-family="Helvetica,sans-Serif" font-size="10.00">/examples/UtilityStringTest</text>
<text text-anchor="middle" x="4100.6" y="-201.5" font-family="Helvetica,sans-Serif" font-size="10.00">/UtilityStringTest.cpp</text>
</a>
</g>
</g>
<!-- Node2&#45;&gt;Node39 -->
<g id="edge49" class="edge"><title>Node2&#45;&gt;Node39</title>
<path fill="none" stroke="midnightblue" d="M2257.82,-283.36C2572.59,-282.509 3669.49,-276.492 4016.6,-234 4019.57,-233.637 4022.58,-233.218 4025.62,-232.754"/>
<polygon fill="midnightblue" stroke="midnightblue" points="2257.39,-279.861 2247.4,-283.387 2257.4,-286.861 2257.39,-279.861"/>
</g>
<!-- Node4 -->
<g id="node4" class="node"><title>Node4</title>
<g id="a_node4"><a xlink:href="$FLYMAPLE_2AnalogIn_8cpp.html" xlink:title="libraries/AP_HAL_FLYMAPLE\l/AnalogIn.cpp">
<polygon fill="white" stroke="black" points="1607,-130.5 1607,-158.5 1756.21,-158.5 1756.21,-130.5 1607,-130.5"/>
<text text-anchor="start" x="1615" y="-146.5" font-family="Helvetica,sans-Serif" font-size="10.00">libraries/AP_HAL_FLYMAPLE</text>
<text text-anchor="middle" x="1681.6" y="-136.5" font-family="Helvetica,sans-Serif" font-size="10.00">/AnalogIn.cpp</text>
</a>
</g>
</g>
<!-- Node3&#45;&gt;Node4 -->
<g id="edge3" class="edge"><title>Node3&#45;&gt;Node4</title>
<path fill="none" stroke="midnightblue" d="M1587.24,-195.628C1609.13,-184 1637.19,-169.096 1657,-158.571"/>
<polygon fill="midnightblue" stroke="midnightblue" points="1585.47,-192.606 1578.28,-200.389 1588.76,-198.788 1585.47,-192.606"/>
</g>
<!-- Node5 -->
<g id="node5" class="node"><title>Node5</title>
<g id="a_node5"><a xlink:href="$AnalogSource_8cpp.html" xlink:title="libraries/AP_HAL_FLYMAPLE\l/AnalogSource.cpp">
<polygon fill="white" stroke="black" points="1774,-130.5 1774,-158.5 1923.21,-158.5 1923.21,-130.5 1774,-130.5"/>
<text text-anchor="start" x="1782" y="-146.5" font-family="Helvetica,sans-Serif" font-size="10.00">libraries/AP_HAL_FLYMAPLE</text>
<text text-anchor="middle" x="1848.6" y="-136.5" font-family="Helvetica,sans-Serif" font-size="10.00">/AnalogSource.cpp</text>
</a>
</g>
</g>
<!-- Node3&#45;&gt;Node5 -->
<g id="edge4" class="edge"><title>Node3&#45;&gt;Node5</title>
<path fill="none" stroke="midnightblue" d="M1619.89,-198.219C1671.68,-186.282 1742.88,-169.87 1792.01,-158.544"/>
<polygon fill="midnightblue" stroke="midnightblue" points="1619.09,-194.813 1610.13,-200.469 1620.66,-201.634 1619.09,-194.813"/>
</g>
<!-- Node6 -->
<g id="node6" class="node"><title>Node6</title>
<g id="a_node6"><a xlink:href="$AP__HAL__FLYMAPLE__Private_8h.html" xlink:title="libraries/AP_HAL_FLYMAPLE\l/AP_HAL_FLYMAPLE_Private.h">
<polygon fill="white" stroke="black" points="958.993,-65.5 958.993,-93.5 1118.22,-93.5 1118.22,-65.5 958.993,-65.5"/>
<text text-anchor="start" x="966.993" y="-81.5" font-family="Helvetica,sans-Serif" font-size="10.00">libraries/AP_HAL_FLYMAPLE</text>
<text text-anchor="middle" x="1038.6" y="-71.5" font-family="Helvetica,sans-Serif" font-size="10.00">/AP_HAL_FLYMAPLE_Private.h</text>
</a>
</g>
</g>
<!-- Node3&#45;&gt;Node6 -->
<g id="edge5" class="edge"><title>Node3&#45;&gt;Node6</title>
<path fill="none" stroke="midnightblue" d="M1619.65,-198.335C1625.7,-197.132 1631.76,-195.998 1637.6,-195 1769.95,-172.405 2024.88,-227.522 1932.6,-130 1918.69,-115.295 1335.12,-91.7329 1118.47,-83.4752"/>
<polygon fill="midnightblue" stroke="midnightblue" points="1618.58,-194.98 1609.49,-200.414 1619.99,-201.838 1618.58,-194.98"/>
</g>
<!-- Node6&#45;&gt;Node7 -->
<g id="edge6" class="edge"><title>Node6&#45;&gt;Node7</title>
<path fill="none" stroke="midnightblue" d="M1128.62,-75.096C1423.64,-63.9398 2357.97,-28.6079 2629.76,-18.3302"/>
<polygon fill="midnightblue" stroke="midnightblue" points="1128.26,-71.6071 1118.4,-75.4826 1128.52,-78.6021 1128.26,-71.6071"/>
</g>
<!-- Node8&#45;&gt;Node6 -->
<g id="edge8" class="edge"><title>Node8&#45;&gt;Node6</title>
<path fill="none" stroke="midnightblue" d="M4269.45,-190.071C4269.54,-170.69 4266.08,-144.131 4248.6,-130 4218.17,-105.39 1469.74,-94.9237 1430.6,-94 1322.53,-91.4491 1197.75,-86.8705 1118.55,-83.76"/>
<polygon fill="midnightblue" stroke="midnightblue" points="4265.94,-190.12 4269.08,-200.24 4272.94,-190.374 4265.94,-190.12"/>
</g>
<!-- Node9 -->
<g id="node9" class="node"><title>Node9</title>
<g id="a_node9"><a xlink:href="$FLYMAPLE_2UARTDriver_8cpp.html" xlink:title="libraries/AP_HAL_FLYMAPLE\l/UARTDriver.cpp">
<polygon fill="white" stroke="black" points="4090,-130.5 4090,-158.5 4239.21,-158.5 4239.21,-130.5 4090,-130.5"/>
<text text-anchor="start" x="4098" y="-146.5" font-family="Helvetica,sans-Serif" font-size="10.00">libraries/AP_HAL_FLYMAPLE</text>
<text text-anchor="middle" x="4164.6" y="-136.5" font-family="Helvetica,sans-Serif" font-size="10.00">/UARTDriver.cpp</text>
</a>
</g>
</g>
<!-- Node8&#45;&gt;Node9 -->
<g id="edge9" class="edge"><title>Node8&#45;&gt;Node9</title>
<path fill="none" stroke="midnightblue" d="M4239.11,-194.687C4221.72,-183.205 4199.92,-168.814 4184.4,-158.571"/>
<polygon fill="midnightblue" stroke="midnightblue" points="4237.47,-197.8 4247.74,-200.389 4241.33,-191.958 4237.47,-197.8"/>
</g>
<!-- Node10&#45;&gt;Node6 -->
<g id="edge11" class="edge"><title>Node10&#45;&gt;Node6</title>
<path fill="none" stroke="midnightblue" d="M492.791,-196.354C457.35,-180.349 417.394,-155.211 440.604,-130 475.001,-92.6377 803.965,-83.4739 958.784,-81.2281"/>
<polygon fill="midnightblue" stroke="midnightblue" points="491.569,-199.639 502.135,-200.419 494.362,-193.22 491.569,-199.639"/>
</g>
<!-- Node11 -->
<g id="node11" class="node"><title>Node11</title>
<g id="a_node11"><a xlink:href="$AP__HAL__FLYMAPLE_2I2CDriver_8cpp.html" xlink:title="libraries/AP_HAL_FLYMAPLE\l/I2CDriver.cpp">
<polygon fill="white" stroke="black" points="450,-130.5 450,-158.5 599.208,-158.5 599.208,-130.5 450,-130.5"/>
<text text-anchor="start" x="458" y="-146.5" font-family="Helvetica,sans-Serif" font-size="10.00">libraries/AP_HAL_FLYMAPLE</text>
<text text-anchor="middle" x="524.604" y="-136.5" font-family="Helvetica,sans-Serif" font-size="10.00">/I2CDriver.cpp</text>
</a>
</g>
</g>
<!-- Node10&#45;&gt;Node11 -->
<g id="edge12" class="edge"><title>Node10&#45;&gt;Node11</title>
<path fill="none" stroke="midnightblue" d="M533.201,-190.466C531.167,-179.831 528.828,-167.592 527.103,-158.571"/>
<polygon fill="midnightblue" stroke="midnightblue" points="529.782,-191.224 535.097,-200.389 536.657,-189.91 529.782,-191.224"/>
</g>
<!-- Node12&#45;&gt;Node6 -->
<g id="edge14" class="edge"><title>Node12&#45;&gt;Node6</title>
<path fill="none" stroke="midnightblue" d="M1429.55,-130.555C1428.23,-130.368 1426.91,-130.183 1425.6,-130 1319.45,-115.162 1196.65,-99.753 1118.35,-90.1494"/>
<polygon fill="midnightblue" stroke="midnightblue" points="1429.45,-134.076 1439.84,-132.03 1430.44,-127.146 1429.45,-134.076"/>
</g>
<!-- Node13 -->
<g id="node13" class="node"><title>Node13</title>
<g id="a_node13"><a xlink:href="$AP__HAL__FLYMAPLE_2SPIDriver_8cpp.html" xlink:title="libraries/AP_HAL_FLYMAPLE\l/SPIDriver.cpp">
<polygon fill="white" stroke="black" points="1440,-65.5 1440,-93.5 1589.21,-93.5 1589.21,-65.5 1440,-65.5"/>
<text text-anchor="start" x="1448" y="-81.5" font-family="Helvetica,sans-Serif" font-size="10.00">libraries/AP_HAL_FLYMAPLE</text>
<text text-anchor="middle" x="1514.6" y="-71.5" font-family="Helvetica,sans-Serif" font-size="10.00">/SPIDriver.cpp</text>
</a>
</g>
</g>
<!-- Node12&#45;&gt;Node13 -->
<g id="edge15" class="edge"><title>Node12&#45;&gt;Node13</title>
<path fill="none" stroke="midnightblue" d="M1514.6,-120.164C1514.6,-111.169 1514.6,-101.221 1514.6,-93.5369"/>
<polygon fill="midnightblue" stroke="midnightblue" points="1511.1,-120.446 1514.6,-130.446 1518.1,-120.446 1511.1,-120.446"/>
</g>
<!-- Node14&#45;&gt;Node6 -->
<g id="edge18" class="edge"><title>Node14&#45;&gt;Node6</title>
<path fill="none" stroke="midnightblue" d="M1371.58,-193.102C1389.81,-175.165 1409.15,-149.025 1392.6,-130 1357.78,-89.9687 1211.53,-81.3307 1118.25,-80.0077"/>
<polygon fill="midnightblue" stroke="midnightblue" points="1368.86,-190.855 1363.95,-200.242 1373.64,-195.967 1368.86,-190.855"/>
</g>
<!-- Node14&#45;&gt;Node12 -->
<g id="edge17" class="edge"><title>Node14&#45;&gt;Node12</title>
<path fill="none" stroke="midnightblue" d="M1389.22,-196.555C1418.08,-184.802 1455.96,-169.378 1482.5,-158.571"/>
<polygon fill="midnightblue" stroke="midnightblue" points="1387.74,-193.376 1379.8,-200.389 1390.38,-199.859 1387.74,-193.376"/>
</g>
<!-- Node14&#45;&gt;Node15 -->
<g id="edge19" class="edge"><title>Node14&#45;&gt;Node15</title>
<path fill="none" stroke="midnightblue" d="M1334.96,-191.459C1328.73,-180.599 1321.44,-167.874 1316.1,-158.571"/>
<polygon fill="midnightblue" stroke="midnightblue" points="1332.07,-193.456 1340.08,-200.389 1338.15,-189.973 1332.07,-193.456"/>
</g>
<!-- Node16&#45;&gt;Node6 -->
<g id="edge21" class="edge"><title>Node16&#45;&gt;Node6</title>
<path fill="none" stroke="midnightblue" d="M175.927,-190.271C175.935,-171.015 179.456,-144.528 196.604,-130 253.898,-81.4582 759.968,-78.9259 958.848,-79.8365"/>
<polygon fill="midnightblue" stroke="midnightblue" points="172.431,-190.477 176.235,-200.366 179.428,-190.263 172.431,-190.477"/>
</g>
<!-- Node17 -->
<g id="node17" class="node"><title>Node17</title>
<g id="a_node17"><a xlink:href="$FLYMAPLE_2Storage_8cpp.html" xlink:title="libraries/AP_HAL_FLYMAPLE\l/Storage.cpp">
<polygon fill="white" stroke="black" points="0,-130.5 0,-158.5 149.208,-158.5 149.208,-130.5 0,-130.5"/>
<text text-anchor="start" x="8" y="-146.5" font-family="Helvetica,sans-Serif" font-size="10.00">libraries/AP_HAL_FLYMAPLE</text>
<text text-anchor="middle" x="74.604" y="-136.5" font-family="Helvetica,sans-Serif" font-size="10.00">/Storage.cpp</text>
</a>
</g>
</g>
<!-- Node16&#45;&gt;Node17 -->
<g id="edge22" class="edge"><title>Node16&#45;&gt;Node17</title>
<path fill="none" stroke="midnightblue" d="M149.108,-194.687C131.715,-183.205 109.918,-168.814 94.4025,-158.571"/>
<polygon fill="midnightblue" stroke="midnightblue" points="147.471,-197.8 157.745,-200.389 151.328,-191.958 147.471,-197.8"/>
</g>
<!-- Node18&#45;&gt;Node6 -->
<g id="edge24" class="edge"><title>Node18&#45;&gt;Node6</title>
<path fill="none" stroke="midnightblue" d="M380.034,-191.061C389.637,-171.297 406.542,-143.601 430.604,-130 475.52,-104.611 804.372,-89.1918 958.851,-83.2761"/>
<polygon fill="midnightblue" stroke="midnightblue" points="376.787,-189.745 375.793,-200.293 383.148,-192.667 376.787,-189.745"/>
</g>
<!-- Node19 -->
<g id="node19" class="node"><title>Node19</title>
<g id="a_node19"><a xlink:href="$AP__HAL__FLYMAPLE_2GPIO_8cpp.html" xlink:title="libraries/AP_HAL_FLYMAPLE\l/GPIO.cpp">
<polygon fill="white" stroke="black" points="206,-130.5 206,-158.5 355.208,-158.5 355.208,-130.5 206,-130.5"/>
<text text-anchor="start" x="214" y="-146.5" font-family="Helvetica,sans-Serif" font-size="10.00">libraries/AP_HAL_FLYMAPLE</text>
<text text-anchor="middle" x="280.604" y="-136.5" font-family="Helvetica,sans-Serif" font-size="10.00">/GPIO.cpp</text>
</a>
</g>
</g>
<!-- Node18&#45;&gt;Node19 -->
<g id="edge25" class="edge"><title>Node18&#45;&gt;Node19</title>
<path fill="none" stroke="midnightblue" d="M344.864,-194.052C329.81,-182.678 311.212,-168.626 297.904,-158.571"/>
<polygon fill="midnightblue" stroke="midnightblue" points="343.162,-197.153 353.251,-200.389 347.382,-191.568 343.162,-197.153"/>
</g>
<!-- Node20&#45;&gt;Node6 -->
<g id="edge27" class="edge"><title>Node20&#45;&gt;Node6</title>
<path fill="none" stroke="midnightblue" d="M793.542,-190.351C793.994,-171.552 797.817,-145.674 813.604,-130 834.04,-109.71 902.677,-96.5844 958.823,-88.9828"/>
<polygon fill="midnightblue" stroke="midnightblue" points="790.043,-190.491 793.601,-200.471 797.043,-190.45 790.043,-190.491"/>
</g>
<!-- Node21 -->
<g id="node21" class="node"><title>Node21</title>
<g id="a_node21"><a xlink:href="$FLYMAPLE_2RCInput_8cpp.html" xlink:title="libraries/AP_HAL_FLYMAPLE\l/RCInput.cpp">
<polygon fill="white" stroke="black" points="617,-130.5 617,-158.5 766.208,-158.5 766.208,-130.5 617,-130.5"/>
<text text-anchor="start" x="625" y="-146.5" font-family="Helvetica,sans-Serif" font-size="10.00">libraries/AP_HAL_FLYMAPLE</text>
<text text-anchor="middle" x="691.604" y="-136.5" font-family="Helvetica,sans-Serif" font-size="10.00">/RCInput.cpp</text>
</a>
</g>
</g>
<!-- Node20&#45;&gt;Node21 -->
<g id="edge28" class="edge"><title>Node20&#45;&gt;Node21</title>
<path fill="none" stroke="midnightblue" d="M766.108,-194.687C748.715,-183.205 726.918,-168.814 711.402,-158.571"/>
<polygon fill="midnightblue" stroke="midnightblue" points="764.471,-197.8 774.745,-200.389 768.328,-191.958 764.471,-197.8"/>
</g>
<!-- Node22&#45;&gt;Node6 -->
<g id="edge30" class="edge"><title>Node22&#45;&gt;Node6</title>
<path fill="none" stroke="midnightblue" d="M985.482,-190.893C998.924,-162.959 1021.35,-116.353 1032.26,-93.6852"/>
<polygon fill="midnightblue" stroke="midnightblue" points="982.157,-189.733 980.975,-200.261 988.465,-192.768 982.157,-189.733"/>
</g>
<!-- Node23 -->
<g id="node23" class="node"><title>Node23</title>
<g id="a_node23"><a xlink:href="$FLYMAPLE_2RCOutput_8cpp.html" xlink:title="libraries/AP_HAL_FLYMAPLE\l/RCOutput.cpp">
<polygon fill="white" stroke="black" points="823,-130.5 823,-158.5 972.208,-158.5 972.208,-130.5 823,-130.5"/>
<text text-anchor="start" x="831" y="-146.5" font-family="Helvetica,sans-Serif" font-size="10.00">libraries/AP_HAL_FLYMAPLE</text>
<text text-anchor="middle" x="897.604" y="-136.5" font-family="Helvetica,sans-Serif" font-size="10.00">/RCOutput.cpp</text>
</a>
</g>
</g>
<!-- Node22&#45;&gt;Node23 -->
<g id="edge31" class="edge"><title>Node22&#45;&gt;Node23</title>
<path fill="none" stroke="midnightblue" d="M952.22,-193.732C939.406,-182.416 923.684,-168.532 912.405,-158.571"/>
<polygon fill="midnightblue" stroke="midnightblue" points="949.945,-196.393 959.758,-200.389 954.579,-191.146 949.945,-196.393"/>
</g>
<!-- Node24&#45;&gt;Node6 -->
<g id="edge33" class="edge"><title>Node24&#45;&gt;Node6</title>
<path fill="none" stroke="midnightblue" d="M1101.38,-195.646C1085.57,-186.75 1068.61,-174.534 1057.6,-159 1043.58,-139.206 1039.83,-110.315 1038.88,-93.6623"/>
<polygon fill="midnightblue" stroke="midnightblue" points="1100.02,-198.891 1110.5,-200.499 1103.31,-192.711 1100.02,-198.891"/>
</g>
<!-- Node24&#45;&gt;Node15 -->
<g id="edge35" class="edge"><title>Node24&#45;&gt;Node15</title>
<path fill="none" stroke="midnightblue" d="M1183.22,-196.555C1212.08,-184.802 1249.96,-169.378 1276.5,-158.571"/>
<polygon fill="midnightblue" stroke="midnightblue" points="1181.74,-193.376 1173.8,-200.389 1184.38,-199.859 1181.74,-193.376"/>
</g>
<!-- Node25 -->
<g id="node25" class="node"><title>Node25</title>
<g id="a_node25"><a xlink:href="$AP__HAL__FLYMAPLE_2Scheduler_8cpp.html" xlink:title="libraries/AP_HAL_FLYMAPLE\l/Scheduler.cpp">
<polygon fill="white" stroke="black" points="1067,-130.5 1067,-158.5 1216.21,-158.5 1216.21,-130.5 1067,-130.5"/>
<text text-anchor="start" x="1075" y="-146.5" font-family="Helvetica,sans-Serif" font-size="10.00">libraries/AP_HAL_FLYMAPLE</text>
<text text-anchor="middle" x="1141.6" y="-136.5" font-family="Helvetica,sans-Serif" font-size="10.00">/Scheduler.cpp</text>
</a>
</g>
</g>
<!-- Node24&#45;&gt;Node25 -->
<g id="edge34" class="edge"><title>Node24&#45;&gt;Node25</title>
<path fill="none" stroke="midnightblue" d="M1141.6,-190.134C1141.6,-179.576 1141.6,-167.498 1141.6,-158.571"/>
<polygon fill="midnightblue" stroke="midnightblue" points="1138.1,-190.389 1141.6,-200.389 1145.1,-190.389 1138.1,-190.389"/>
</g>
</g>
</svg>
