<?xml version="1.0" encoding="UTF-8" standalone="no"?>
<!DOCTYPE svg PUBLIC "-//W3C//DTD SVG 1.1//EN"
 "http://www.w3.org/Graphics/SVG/1.1/DTD/svg11.dtd">
<!-- Generated by graphviz version 2.38.0 (20140413.2041)
 -->
<!-- Title: loop_overtime Pages: 1 -->
<svg width="326pt" height="27pt"
 viewBox="0.00 0.00 326.43 27.00" xmlns="http://www.w3.org/2000/svg" xmlns:xlink="http://www.w3.org/1999/xlink">
<g id="graph0" class="graph" transform="scale(1 1) rotate(0) translate(4 23)">
<title>loop_overtime</title>
<polygon fill="white" stroke="none" points="-4,4 -4,-23 322.433,-23 322.433,4 -4,4"/>
<!-- Node1 -->
<g id="node1" class="node"><title>Node1</title>
<polygon fill="#bfbfbf" stroke="black" points="0,-0.5 0,-18.5 78.8125,-18.5 78.8125,-0.5 0,-0.5"/>
<text text-anchor="middle" x="39.4062" y="-6.5" font-family="Helvetica,sans-Serif" font-size="10.00">loop_overtime</text>
</g>
<!-- Node2 -->
<g id="node2" class="node"><title>Node2</title>
<g id="a_node2"><a xlink:href="$HAL__VRBRAIN__Class_8cpp.html#a9bd6e6ad19a651d2c83ab3edb8d51924" xlink:title="main_loop">
<polygon fill="white" stroke="black" points="114.812,-0.5 114.812,-18.5 176.955,-18.5 176.955,-0.5 114.812,-0.5"/>
<text text-anchor="middle" x="145.884" y="-6.5" font-family="Helvetica,sans-Serif" font-size="10.00">main_loop</text>
</a>
</g>
</g>
<!-- Node1&#45;&gt;Node2 -->
<g id="edge1" class="edge"><title>Node1&#45;&gt;Node2</title>
<path fill="none" stroke="midnightblue" d="M89.0967,-9.5C97.7874,-9.5 106.61,-9.5 114.596,-9.5"/>
<polygon fill="midnightblue" stroke="midnightblue" points="89.013,-6.0001 79.013,-9.5 89.013,-13.0001 89.013,-6.0001"/>
</g>
<!-- Node3 -->
<g id="node3" class="node"><title>Node3</title>
<g id="a_node3"><a xlink:href="$classHAL__VRBRAIN.html#a064bee28bd90473b00c8ee405cdac765" xlink:title="HAL_VRBRAIN::run">
<polygon fill="white" stroke="black" points="212.955,-0.5 212.955,-18.5 318.433,-18.5 318.433,-0.5 212.955,-0.5"/>
<text text-anchor="middle" x="265.694" y="-6.5" font-family="Helvetica,sans-Serif" font-size="10.00">HAL_VRBRAIN::run</text>
</a>
</g>
</g>
<!-- Node2&#45;&gt;Node3 -->
<g id="edge2" class="edge"><title>Node2&#45;&gt;Node3</title>
<path fill="none" stroke="midnightblue" d="M187.479,-9.5C195.548,-9.5 204.126,-9.5 212.52,-9.5"/>
<polygon fill="midnightblue" stroke="midnightblue" points="187.223,-6.0001 177.223,-9.5 187.223,-13.0001 187.223,-6.0001"/>
</g>
</g>
</svg>
