<?xml version="1.0" encoding="UTF-8" standalone="no"?>
<!DOCTYPE svg PUBLIC "-//W3C//DTD SVG 1.1//EN"
 "http://www.w3.org/Graphics/SVG/1.1/DTD/svg11.dtd">
<!-- Generated by graphviz version 2.38.0 (20140413.2041)
 -->
<!-- Title: libraries/AP_HAL_Linux/Heat.h Pages: 1 -->
<svg width="420pt" height="232pt"
 viewBox="0.00 0.00 419.62 232.00" xmlns="http://www.w3.org/2000/svg" xmlns:xlink="http://www.w3.org/1999/xlink">
<g id="graph0" class="graph" transform="scale(1 1) rotate(0) translate(4 228)">
<title>libraries/AP_HAL_Linux/Heat.h</title>
<polygon fill="white" stroke="none" points="-4,4 -4,-228 415.618,-228 415.618,4 -4,4"/>
<!-- Node1 -->
<g id="node1" class="node"><title>Node1</title>
<polygon fill="#bfbfbf" stroke="black" points="77.0073,-195.5 77.0073,-223.5 198.618,-223.5 198.618,-195.5 77.0073,-195.5"/>
<text text-anchor="start" x="85.0073" y="-211.5" font-family="Helvetica,sans-Serif" font-size="10.00">libraries/AP_HAL_Linux</text>
<text text-anchor="middle" x="137.812" y="-201.5" font-family="Helvetica,sans-Serif" font-size="10.00">/Heat.h</text>
</g>
<!-- Node2 -->
<g id="node2" class="node"><title>Node2</title>
<g id="a_node2"><a xlink:href="$AP__HAL__Linux__Private_8h.html" xlink:title="libraries/AP_HAL_Linux\l/AP_HAL_Linux_Private.h">
<polygon fill="white" stroke="black" points="0,-65.5 0,-93.5 131.625,-93.5 131.625,-65.5 0,-65.5"/>
<text text-anchor="start" x="8" y="-81.5" font-family="Helvetica,sans-Serif" font-size="10.00">libraries/AP_HAL_Linux</text>
<text text-anchor="middle" x="65.8125" y="-71.5" font-family="Helvetica,sans-Serif" font-size="10.00">/AP_HAL_Linux_Private.h</text>
</a>
</g>
</g>
<!-- Node1&#45;&gt;Node2 -->
<g id="edge1" class="edge"><title>Node1&#45;&gt;Node2</title>
<path fill="none" stroke="midnightblue" d="M125.331,-186.311C110.332,-159.646 85.6471,-115.761 73.314,-93.836"/>
<polygon fill="midnightblue" stroke="midnightblue" points="122.425,-188.284 130.378,-195.284 128.526,-184.852 122.425,-188.284"/>
</g>
<!-- Node4 -->
<g id="node4" class="node"><title>Node4</title>
<g id="a_node4"><a xlink:href="$Heat__Pwm_8h.html" xlink:title="libraries/AP_HAL_Linux\l/Heat_Pwm.h">
<polygon fill="white" stroke="black" points="136.007,-130.5 136.007,-158.5 257.618,-158.5 257.618,-130.5 136.007,-130.5"/>
<text text-anchor="start" x="144.007" y="-146.5" font-family="Helvetica,sans-Serif" font-size="10.00">libraries/AP_HAL_Linux</text>
<text text-anchor="middle" x="196.812" y="-136.5" font-family="Helvetica,sans-Serif" font-size="10.00">/Heat_Pwm.h</text>
</a>
</g>
</g>
<!-- Node1&#45;&gt;Node4 -->
<g id="edge3" class="edge"><title>Node1&#45;&gt;Node4</title>
<path fill="none" stroke="midnightblue" d="M156.926,-188.091C166.017,-178.383 176.617,-167.065 184.603,-158.537"/>
<polygon fill="midnightblue" stroke="midnightblue" points="154.318,-185.755 150.037,-195.446 159.428,-190.54 154.318,-185.755"/>
</g>
<!-- Node3 -->
<g id="node3" class="node"><title>Node3</title>
<g id="a_node3"><a xlink:href="$HAL__Linux__Class_8cpp.html" xlink:title="libraries/AP_HAL_Linux\l/HAL_Linux_Class.cpp">
<polygon fill="white" stroke="black" points="5.00732,-0.5 5.00732,-28.5 126.618,-28.5 126.618,-0.5 5.00732,-0.5"/>
<text text-anchor="start" x="13.0073" y="-16.5" font-family="Helvetica,sans-Serif" font-size="10.00">libraries/AP_HAL_Linux</text>
<text text-anchor="middle" x="65.8125" y="-6.5" font-family="Helvetica,sans-Serif" font-size="10.00">/HAL_Linux_Class.cpp</text>
</a>
</g>
</g>
<!-- Node2&#45;&gt;Node3 -->
<g id="edge2" class="edge"><title>Node2&#45;&gt;Node3</title>
<path fill="none" stroke="midnightblue" d="M65.8125,-55.1641C65.8125,-46.1693 65.8125,-36.2205 65.8125,-28.5369"/>
<polygon fill="midnightblue" stroke="midnightblue" points="62.3126,-55.4463 65.8125,-65.4464 69.3126,-55.4464 62.3126,-55.4463"/>
</g>
<!-- Node4&#45;&gt;Node2 -->
<g id="edge4" class="edge"><title>Node4&#45;&gt;Node2</title>
<path fill="none" stroke="midnightblue" d="M160.551,-126.061C139.145,-115.767 112.497,-102.951 92.921,-93.5369"/>
<polygon fill="midnightblue" stroke="midnightblue" points="159.14,-129.266 169.669,-130.446 162.174,-122.958 159.14,-129.266"/>
</g>
<!-- Node5 -->
<g id="node5" class="node"><title>Node5</title>
<g id="a_node5"><a xlink:href="$Heat__Pwm_8cpp.html" xlink:title="libraries/AP_HAL_Linux\l/Heat_Pwm.cpp">
<polygon fill="white" stroke="black" points="150.007,-65.5 150.007,-93.5 271.618,-93.5 271.618,-65.5 150.007,-65.5"/>
<text text-anchor="start" x="158.007" y="-81.5" font-family="Helvetica,sans-Serif" font-size="10.00">libraries/AP_HAL_Linux</text>
<text text-anchor="middle" x="210.812" y="-71.5" font-family="Helvetica,sans-Serif" font-size="10.00">/Heat_Pwm.cpp</text>
</a>
</g>
</g>
<!-- Node4&#45;&gt;Node5 -->
<g id="edge5" class="edge"><title>Node4&#45;&gt;Node5</title>
<path fill="none" stroke="midnightblue" d="M201.932,-120.46C203.948,-111.388 206.189,-101.305 207.915,-93.5369"/>
<polygon fill="midnightblue" stroke="midnightblue" points="198.466,-119.925 199.713,-130.446 205.299,-121.444 198.466,-119.925"/>
</g>
<!-- Node6 -->
<g id="node6" class="node"><title>Node6</title>
<g id="a_node6"><a xlink:href="$Linux_2Util_8cpp.html" xlink:title="libraries/AP_HAL_Linux\l/Util.cpp">
<polygon fill="white" stroke="black" points="290.007,-65.5 290.007,-93.5 411.618,-93.5 411.618,-65.5 290.007,-65.5"/>
<text text-anchor="start" x="298.007" y="-81.5" font-family="Helvetica,sans-Serif" font-size="10.00">libraries/AP_HAL_Linux</text>
<text text-anchor="middle" x="350.812" y="-71.5" font-family="Helvetica,sans-Serif" font-size="10.00">/Util.cpp</text>
</a>
</g>
</g>
<!-- Node4&#45;&gt;Node6 -->
<g id="edge6" class="edge"><title>Node4&#45;&gt;Node6</title>
<path fill="none" stroke="midnightblue" d="M238.093,-126.613C263.479,-116.228 295.518,-103.12 318.944,-93.5369"/>
<polygon fill="midnightblue" stroke="midnightblue" points="236.652,-123.421 228.721,-130.446 239.302,-129.899 236.652,-123.421"/>
</g>
</g>
</svg>
