<?xml version="1.0" encoding="UTF-8" standalone="no"?>
<!DOCTYPE svg PUBLIC "-//W3C//DTD SVG 1.1//EN"
 "http://www.w3.org/Graphics/SVG/1.1/DTD/svg11.dtd">
<!-- Generated by graphviz version 2.38.0 (20140413.2041)
 -->
<!-- Title: run_test Pages: 1 -->
<svg width="984pt" height="391pt"
 viewBox="0.00 0.00 984.47 391.00" xmlns="http://www.w3.org/2000/svg" xmlns:xlink="http://www.w3.org/1999/xlink">
<g id="graph0" class="graph" transform="scale(1 1) rotate(0) translate(4 387)">
<title>run_test</title>
<polygon fill="white" stroke="none" points="-4,4 -4,-387 980.472,-387 980.472,4 -4,4"/>
<!-- Node1 -->
<g id="node1" class="node"><title>Node1</title>
<polygon fill="#bfbfbf" stroke="black" points="0,-153.5 0,-171.5 52.1328,-171.5 52.1328,-153.5 0,-153.5"/>
<text text-anchor="middle" x="26.0664" y="-159.5" font-family="Helvetica,sans-Serif" font-size="10.00">run_test</text>
</g>
<!-- Node2 -->
<g id="node2" class="node"><title>Node2</title>
<g id="a_node2"><a xlink:href="$classAP__HAL_1_1Stream.html#ae687e48f5689af94d66fb88822923e12" xlink:title="AP_HAL::Stream::available">
<polygon fill="white" stroke="black" points="88.1328,-293.5 88.1328,-311.5 225.305,-311.5 225.305,-293.5 88.1328,-293.5"/>
<text text-anchor="middle" x="156.719" y="-299.5" font-family="Helvetica,sans-Serif" font-size="10.00">AP_HAL::Stream::available</text>
</a>
</g>
</g>
<!-- Node1&#45;&gt;Node2 -->
<g id="edge1" class="edge"><title>Node1&#45;&gt;Node2</title>
<path fill="none" stroke="midnightblue" d="M28.9642,-171.779C34.1349,-194.633 50.6679,-253.986 88.1328,-284.5 89.9687,-285.995 91.9171,-287.367 93.9502,-288.626"/>
<polygon fill="midnightblue" stroke="midnightblue" points="92.8273,-291.984 103.32,-293.451 96.0319,-285.761 92.8273,-291.984"/>
</g>
<!-- Node3 -->
<g id="node3" class="node"><title>Node3</title>
<g id="a_node3"><a xlink:href="$classAP__HAL_1_1Stream.html#ae42ff362cc2a7e527c22f92a3740c2ac" xlink:title="AP_HAL::Stream::read">
<polygon fill="white" stroke="black" points="97.8618,-256.5 97.8618,-274.5 215.576,-274.5 215.576,-256.5 97.8618,-256.5"/>
<text text-anchor="middle" x="156.719" y="-262.5" font-family="Helvetica,sans-Serif" font-size="10.00">AP_HAL::Stream::read</text>
</a>
</g>
</g>
<!-- Node1&#45;&gt;Node3 -->
<g id="edge2" class="edge"><title>Node1&#45;&gt;Node3</title>
<path fill="none" stroke="midnightblue" d="M31.8318,-171.692C40.7419,-188.02 61.4605,-222.176 88.1328,-241.5 94.3025,-245.97 101.384,-249.674 108.589,-252.723"/>
<polygon fill="midnightblue" stroke="midnightblue" points="107.826,-256.179 118.416,-256.486 110.329,-249.642 107.826,-256.179"/>
</g>
<!-- Node4 -->
<g id="node4" class="node"><title>Node4</title>
<g id="a_node4"><a xlink:href="$classAP__InertialSensor.html#a2ab4e9e49af5ae38f38d3818fde2b675" xlink:title="AP_InertialSensor::\lupdate">
<polygon fill="white" stroke="black" points="105.64,-170.5 105.64,-198.5 207.797,-198.5 207.797,-170.5 105.64,-170.5"/>
<text text-anchor="start" x="113.64" y="-186.5" font-family="Helvetica,sans-Serif" font-size="10.00">AP_InertialSensor::</text>
<text text-anchor="middle" x="156.719" y="-176.5" font-family="Helvetica,sans-Serif" font-size="10.00">update</text>
</a>
</g>
</g>
<!-- Node1&#45;&gt;Node4 -->
<g id="edge3" class="edge"><title>Node1&#45;&gt;Node4</title>
<path fill="none" stroke="midnightblue" d="M52.1773,-166.794C64.5943,-168.917 80.1638,-171.58 95.429,-174.19"/>
<polygon fill="midnightblue" stroke="midnightblue" points="94.9334,-177.656 105.38,-175.892 96.1133,-170.756 94.9334,-177.656"/>
</g>
<!-- Node5 -->
<g id="node5" class="node"><title>Node5</title>
<g id="a_node5"><a xlink:href="$classAP__InertialSensor.html#aa4faf114689e827390b5da7bc6fd5f20" xlink:title="AP_InertialSensor::\lwait_for_sample">
<polygon fill="white" stroke="black" points="280.765,-254.5 280.765,-282.5 382.922,-282.5 382.922,-254.5 280.765,-254.5"/>
<text text-anchor="start" x="288.765" y="-270.5" font-family="Helvetica,sans-Serif" font-size="10.00">AP_InertialSensor::</text>
<text text-anchor="middle" x="331.844" y="-260.5" font-family="Helvetica,sans-Serif" font-size="10.00">wait_for_sample</text>
</a>
</g>
</g>
<!-- Node1&#45;&gt;Node5 -->
<g id="edge21" class="edge"><title>Node1&#45;&gt;Node5</title>
<path fill="none" stroke="midnightblue" d="M36.6146,-171.674C47.9895,-182.105 67.9958,-198.922 88.1328,-208.5 120.112,-223.71 209.925,-243.906 270.857,-256.553"/>
<polygon fill="midnightblue" stroke="midnightblue" points="270.249,-260.001 280.75,-258.593 271.663,-253.145 270.249,-260.001"/>
</g>
<!-- Node11 -->
<g id="node11" class="node"><title>Node11</title>
<g id="a_node11"><a xlink:href="$classAP__HAL_1_1UARTDriver.html#a65c7824b8877f7a2f79365c8ffae8f56" xlink:title="AP_HAL::UARTDriver\l::printf">
<polygon fill="white" stroke="black" points="452.111,-127.5 452.111,-155.5 565.733,-155.5 565.733,-127.5 452.111,-127.5"/>
<text text-anchor="start" x="460.111" y="-143.5" font-family="Helvetica,sans-Serif" font-size="10.00">AP_HAL::UARTDriver</text>
<text text-anchor="middle" x="508.922" y="-133.5" font-family="Helvetica,sans-Serif" font-size="10.00">::printf</text>
</a>
</g>
</g>
<!-- Node1&#45;&gt;Node11 -->
<g id="edge27" class="edge"><title>Node1&#45;&gt;Node11</title>
<path fill="none" stroke="midnightblue" d="M52.2423,-161.401C124.409,-158.249 333.732,-149.107 441.733,-144.391"/>
<polygon fill="midnightblue" stroke="midnightblue" points="442.022,-147.881 451.86,-143.948 441.717,-140.888 442.022,-147.881"/>
</g>
<!-- Node21 -->
<g id="node21" class="node"><title>Node21</title>
<g id="a_node21"><a xlink:href="$classAP__InertialSensor.html#a0f63a4a0e6fc84d6ab9519bc4b254055" xlink:title="AP_InertialSensor::\lget_accel">
<polygon fill="white" stroke="black" points="105.64,-84.5 105.64,-112.5 207.797,-112.5 207.797,-84.5 105.64,-84.5"/>
<text text-anchor="start" x="113.64" y="-100.5" font-family="Helvetica,sans-Serif" font-size="10.00">AP_InertialSensor::</text>
<text text-anchor="middle" x="156.719" y="-90.5" font-family="Helvetica,sans-Serif" font-size="10.00">get_accel</text>
</a>
</g>
</g>
<!-- Node1&#45;&gt;Node21 -->
<g id="edge22" class="edge"><title>Node1&#45;&gt;Node21</title>
<path fill="none" stroke="midnightblue" d="M41.8615,-153.38C54.0691,-146.012 71.9508,-135.576 88.1328,-127.5 95.524,-123.811 103.496,-120.135 111.283,-116.7"/>
<polygon fill="midnightblue" stroke="midnightblue" points="112.854,-119.834 120.638,-112.646 110.071,-113.411 112.854,-119.834"/>
</g>
<!-- Node22 -->
<g id="node22" class="node"><title>Node22</title>
<g id="a_node22"><a xlink:href="$classAP__InertialSensor.html#a6df2d8ad956d4f375bdee541102f16af" xlink:title="AP_InertialSensor::\lget_gyro">
<polygon fill="white" stroke="black" points="105.64,-37.5 105.64,-65.5 207.797,-65.5 207.797,-37.5 105.64,-37.5"/>
<text text-anchor="start" x="113.64" y="-53.5" font-family="Helvetica,sans-Serif" font-size="10.00">AP_InertialSensor::</text>
<text text-anchor="middle" x="156.719" y="-43.5" font-family="Helvetica,sans-Serif" font-size="10.00">get_gyro</text>
</a>
</g>
</g>
<!-- Node1&#45;&gt;Node22 -->
<g id="edge23" class="edge"><title>Node1&#45;&gt;Node22</title>
<path fill="none" stroke="midnightblue" d="M31.0083,-153.337C39.1112,-135.557 59.3279,-96.2201 88.1328,-74.5 90.7553,-72.5225 93.5592,-70.7079 96.4786,-69.0438"/>
<polygon fill="midnightblue" stroke="midnightblue" points="98.1621,-72.1148 105.518,-64.49 95.0127,-65.8632 98.1621,-72.1148"/>
</g>
<!-- Node23 -->
<g id="node23" class="node"><title>Node23</title>
<g id="a_node23"><a xlink:href="$classVector3.html#ac1fd5514e368a1e1c2d13f71eda18345" xlink:title="Vector3::length">
<polygon fill="white" stroke="black" points="115.359,-0.5 115.359,-18.5 198.078,-18.5 198.078,-0.5 115.359,-0.5"/>
<text text-anchor="middle" x="156.719" y="-6.5" font-family="Helvetica,sans-Serif" font-size="10.00">Vector3::length</text>
</a>
</g>
</g>
<!-- Node1&#45;&gt;Node23 -->
<g id="edge24" class="edge"><title>Node1&#45;&gt;Node23</title>
<path fill="none" stroke="midnightblue" d="M28.4574,-153.34C32.6568,-128.947 47.5142,-61.9312 88.1328,-27.5 93.1173,-23.2748 98.9926,-20.0306 105.164,-17.5416"/>
<polygon fill="midnightblue" stroke="midnightblue" points="106.662,-20.7303 115.02,-14.2196 104.426,-14.097 106.662,-20.7303"/>
</g>
<!-- Node4&#45;&gt;Node5 -->
<g id="edge4" class="edge"><title>Node4&#45;&gt;Node5</title>
<path fill="none" stroke="midnightblue" d="M196.343,-198.546C206.11,-202.771 216.36,-207.817 225.305,-213.5 243.374,-224.98 242.759,-234.807 261.305,-245.5 264.523,-247.356 267.913,-249.088 271.393,-250.7"/>
<polygon fill="midnightblue" stroke="midnightblue" points="270.188,-253.991 280.76,-254.69 272.931,-247.551 270.188,-253.991"/>
</g>
<!-- Node19 -->
<g id="node19" class="node"><title>Node19</title>
<g id="a_node19"><a xlink:href="$classAP__InertialSensor__Backend.html#a7016ddeb343d823f9fe518fd414ba848" xlink:title="AP_InertialSensor_Backend\l::update">
<polygon fill="white" stroke="black" points="261.305,-207.5 261.305,-235.5 402.383,-235.5 402.383,-207.5 261.305,-207.5"/>
<text text-anchor="start" x="269.305" y="-223.5" font-family="Helvetica,sans-Serif" font-size="10.00">AP_InertialSensor_Backend</text>
<text text-anchor="middle" x="331.844" y="-213.5" font-family="Helvetica,sans-Serif" font-size="10.00">::update</text>
</a>
</g>
</g>
<!-- Node4&#45;&gt;Node19 -->
<g id="edge19" class="edge"><title>Node4&#45;&gt;Node19</title>
<path fill="none" stroke="midnightblue" d="M208.259,-195.301C222.971,-198.446 239.372,-201.951 255.271,-205.349"/>
<polygon fill="midnightblue" stroke="midnightblue" points="254.575,-208.779 265.086,-207.446 256.038,-201.934 254.575,-208.779"/>
</g>
<!-- Node20 -->
<g id="node20" class="node"><title>Node20</title>
<g id="a_node20"><a xlink:href="$classVector3.html#adf1769d5ee5df2f8585df2f540fa5efe" xlink:title="Vector3::zero">
<polygon fill="white" stroke="black" points="294.381,-170.5 294.381,-188.5 369.307,-188.5 369.307,-170.5 294.381,-170.5"/>
<text text-anchor="middle" x="331.844" y="-176.5" font-family="Helvetica,sans-Serif" font-size="10.00">Vector3::zero</text>
</a>
</g>
</g>
<!-- Node4&#45;&gt;Node20 -->
<g id="edge20" class="edge"><title>Node4&#45;&gt;Node20</title>
<path fill="none" stroke="midnightblue" d="M208.259,-183.04C232.254,-182.347 260.744,-181.525 284.217,-180.847"/>
<polygon fill="midnightblue" stroke="midnightblue" points="284.382,-184.343 294.277,-180.556 284.18,-177.346 284.382,-184.343"/>
</g>
<!-- Node6 -->
<g id="node6" class="node"><title>Node6</title>
<g id="a_node6"><a xlink:href="$classAP__HAL_1_1Scheduler.html#add46d722bfb08a16f220e63591654e46" xlink:title="AP_HAL::Scheduler::\lmicros">
<polygon fill="white" stroke="black" points="453.673,-354.5 453.673,-382.5 564.17,-382.5 564.17,-354.5 453.673,-354.5"/>
<text text-anchor="start" x="461.673" y="-370.5" font-family="Helvetica,sans-Serif" font-size="10.00">AP_HAL::Scheduler::</text>
<text text-anchor="middle" x="508.922" y="-360.5" font-family="Helvetica,sans-Serif" font-size="10.00">micros</text>
</a>
</g>
</g>
<!-- Node5&#45;&gt;Node6 -->
<g id="edge5" class="edge"><title>Node5&#45;&gt;Node6</title>
<path fill="none" stroke="midnightblue" d="M348.963,-282.762C368.803,-299.7 404.091,-327.871 438.383,-345.5 441.908,-347.312 445.606,-349.024 449.382,-350.634"/>
<polygon fill="midnightblue" stroke="midnightblue" points="448.29,-353.966 458.875,-354.421 450.884,-347.464 448.29,-353.966"/>
</g>
<!-- Node7 -->
<g id="node7" class="node"><title>Node7</title>
<g id="a_node7"><a xlink:href="$classAP__HAL_1_1Scheduler.html#aa0beaea3a0ce331569f7617c10a06f53" xlink:title="AP_HAL::Scheduler::\ldelay_microseconds_boost">
<polygon fill="white" stroke="black" points="440.331,-307.5 440.331,-335.5 577.513,-335.5 577.513,-307.5 440.331,-307.5"/>
<text text-anchor="start" x="448.331" y="-323.5" font-family="Helvetica,sans-Serif" font-size="10.00">AP_HAL::Scheduler::</text>
<text text-anchor="middle" x="508.922" y="-313.5" font-family="Helvetica,sans-Serif" font-size="10.00">delay_microseconds_boost</text>
</a>
</g>
</g>
<!-- Node5&#45;&gt;Node7 -->
<g id="edge6" class="edge"><title>Node5&#45;&gt;Node7</title>
<path fill="none" stroke="midnightblue" d="M379.302,-282.564C401.551,-289.299 428.379,-297.42 451.763,-304.499"/>
<polygon fill="midnightblue" stroke="midnightblue" points="450.966,-307.915 461.551,-307.462 452.994,-301.215 450.966,-307.915"/>
</g>
<!-- Node8 -->
<g id="node8" class="node"><title>Node8</title>
<g id="a_node8"><a xlink:href="$classAP__HAL_1_1Scheduler.html#a78c4f1b1f192ac1c99544b6cc8f099b0" xlink:title="AP_HAL::Scheduler::\ldelay_microseconds">
<polygon fill="white" stroke="black" points="617.023,-285.5 617.023,-313.5 727.521,-313.5 727.521,-285.5 617.023,-285.5"/>
<text text-anchor="start" x="625.023" y="-301.5" font-family="Helvetica,sans-Serif" font-size="10.00">AP_HAL::Scheduler::</text>
<text text-anchor="middle" x="672.272" y="-291.5" font-family="Helvetica,sans-Serif" font-size="10.00">delay_microseconds</text>
</a>
</g>
</g>
<!-- Node5&#45;&gt;Node8 -->
<g id="edge10" class="edge"><title>Node5&#45;&gt;Node8</title>
<path fill="none" stroke="midnightblue" d="M383.144,-273.108C442.57,-278.551 541.561,-287.618 606.626,-293.578"/>
<polygon fill="midnightblue" stroke="midnightblue" points="606.488,-297.08 616.766,-294.507 607.126,-290.11 606.488,-297.08"/>
</g>
<!-- Node9 -->
<g id="node9" class="node"><title>Node9</title>
<g id="a_node9"><a xlink:href="$classAP__InertialSensor__Backend.html#a1e40c452864d32dba89bb000c4381e52" xlink:title="AP_InertialSensor_Backend\l::gyro_sample_available">
<polygon fill="white" stroke="black" points="438.383,-221.5 438.383,-249.5 579.461,-249.5 579.461,-221.5 438.383,-221.5"/>
<text text-anchor="start" x="446.383" y="-237.5" font-family="Helvetica,sans-Serif" font-size="10.00">AP_InertialSensor_Backend</text>
<text text-anchor="middle" x="508.922" y="-227.5" font-family="Helvetica,sans-Serif" font-size="10.00">::gyro_sample_available</text>
</a>
</g>
</g>
<!-- Node5&#45;&gt;Node9 -->
<g id="edge8" class="edge"><title>Node5&#45;&gt;Node9</title>
<path fill="none" stroke="midnightblue" d="M383.014,-259.044C397.105,-256.388 412.787,-253.432 428.147,-250.537"/>
<polygon fill="midnightblue" stroke="midnightblue" points="428.996,-253.938 438.174,-248.647 427.699,-247.059 428.996,-253.938"/>
</g>
<!-- Node10 -->
<g id="node10" class="node"><title>Node10</title>
<g id="a_node10"><a xlink:href="$classAP__InertialSensor__Backend.html#a0136c556865dd4a0f123ce8444f042de" xlink:title="AP_InertialSensor_Backend\l::accel_sample_available">
<polygon fill="white" stroke="black" points="438.383,-174.5 438.383,-202.5 579.461,-202.5 579.461,-174.5 438.383,-174.5"/>
<text text-anchor="start" x="446.383" y="-190.5" font-family="Helvetica,sans-Serif" font-size="10.00">AP_InertialSensor_Backend</text>
<text text-anchor="middle" x="508.922" y="-180.5" font-family="Helvetica,sans-Serif" font-size="10.00">::accel_sample_available</text>
</a>
</g>
</g>
<!-- Node5&#45;&gt;Node10 -->
<g id="edge9" class="edge"><title>Node5&#45;&gt;Node10</title>
<path fill="none" stroke="midnightblue" d="M382.977,-254.775C389.701,-252.12 396.351,-249.04 402.383,-245.5 421.103,-234.515 419.734,-223.606 438.383,-212.5 441.963,-210.368 445.76,-208.39 449.66,-206.56"/>
<polygon fill="midnightblue" stroke="midnightblue" points="451.11,-209.746 458.895,-202.56 448.328,-203.323 451.11,-209.746"/>
</g>
<!-- Node5&#45;&gt;Node11 -->
<g id="edge11" class="edge"><title>Node5&#45;&gt;Node11</title>
<path fill="none" stroke="midnightblue" d="M383.126,-257.55C390.131,-254.473 396.822,-250.537 402.383,-245.5 431.581,-219.053 409.184,-190.947 438.383,-164.5 439.903,-163.123 441.507,-161.829 443.179,-160.612"/>
<polygon fill="midnightblue" stroke="midnightblue" points="445.357,-163.38 452.026,-155.148 441.679,-157.425 445.357,-163.38"/>
</g>
<!-- Node7&#45;&gt;Node8 -->
<g id="edge7" class="edge"><title>Node7&#45;&gt;Node8</title>
<path fill="none" stroke="midnightblue" d="M577.881,-312.234C587.368,-310.94 597.096,-309.614 606.522,-308.329"/>
<polygon fill="midnightblue" stroke="midnightblue" points="607.17,-311.773 616.606,-306.954 606.225,-304.837 607.17,-311.773"/>
</g>
<!-- Node12 -->
<g id="node12" class="node"><title>Node12</title>
<g id="a_node12"><a xlink:href="$classAP__HAL_1_1UARTDriver.html#aa8abfb6d6641299472c29ac1edde559f" xlink:title="AP_HAL::UARTDriver\l::vprintf">
<polygon fill="white" stroke="black" points="615.461,-127.5 615.461,-155.5 729.083,-155.5 729.083,-127.5 615.461,-127.5"/>
<text text-anchor="start" x="623.461" y="-143.5" font-family="Helvetica,sans-Serif" font-size="10.00">AP_HAL::UARTDriver</text>
<text text-anchor="middle" x="672.272" y="-133.5" font-family="Helvetica,sans-Serif" font-size="10.00">::vprintf</text>
</a>
</g>
</g>
<!-- Node11&#45;&gt;Node12 -->
<g id="edge12" class="edge"><title>Node11&#45;&gt;Node12</title>
<path fill="none" stroke="midnightblue" d="M565.901,-141.5C578.542,-141.5 592.077,-141.5 605.092,-141.5"/>
<polygon fill="midnightblue" stroke="midnightblue" points="605.391,-145 615.391,-141.5 605.391,-138 605.391,-145"/>
</g>
<!-- Node13 -->
<g id="node13" class="node"><title>Node13</title>
<g id="a_node13"><a xlink:href="$print__vprintf_8cpp.html#a473b9349f4b086b552a21eb8fe057016" xlink:title="print_vprintf">
<polygon fill="white" stroke="black" points="765.083,-132.5 765.083,-150.5 833.329,-150.5 833.329,-132.5 765.083,-132.5"/>
<text text-anchor="middle" x="799.206" y="-138.5" font-family="Helvetica,sans-Serif" font-size="10.00">print_vprintf</text>
</a>
</g>
</g>
<!-- Node12&#45;&gt;Node13 -->
<g id="edge13" class="edge"><title>Node12&#45;&gt;Node13</title>
<path fill="none" stroke="midnightblue" d="M729.162,-141.5C737.75,-141.5 746.506,-141.5 754.77,-141.5"/>
<polygon fill="midnightblue" stroke="midnightblue" points="754.926,-145 764.926,-141.5 754.926,-138 754.926,-145"/>
</g>
<!-- Node14 -->
<g id="node14" class="node"><title>Node14</title>
<g id="a_node14"><a xlink:href="$classAP__HAL_1_1Print.html#acc65391952a43334f8f5c9bef341f501" xlink:title="AP_HAL::Print::write">
<polygon fill="white" stroke="black" points="869.329,-206.5 869.329,-224.5 976.472,-224.5 976.472,-206.5 869.329,-206.5"/>
<text text-anchor="middle" x="922.9" y="-212.5" font-family="Helvetica,sans-Serif" font-size="10.00">AP_HAL::Print::write</text>
</a>
</g>
</g>
<!-- Node13&#45;&gt;Node14 -->
<g id="edge14" class="edge"><title>Node13&#45;&gt;Node14</title>
<path fill="none" stroke="midnightblue" d="M809.27,-150.633C821.793,-162.806 845.545,-184.34 869.329,-197.5 872.791,-199.416 876.494,-201.18 880.27,-202.791"/>
<polygon fill="midnightblue" stroke="midnightblue" points="879.128,-206.103 889.716,-206.483 881.676,-199.583 879.128,-206.103"/>
</g>
<!-- Node15 -->
<g id="node15" class="node"><title>Node15</title>
<g id="a_node15"><a xlink:href="$ftoa__engine_8cpp.html#a1c28234da8f20b43c85890d4bb452947" xlink:title="ftoa_engine">
<polygon fill="white" stroke="black" points="888.765,-169.5 888.765,-187.5 957.036,-187.5 957.036,-169.5 888.765,-169.5"/>
<text text-anchor="middle" x="922.9" y="-175.5" font-family="Helvetica,sans-Serif" font-size="10.00">ftoa_engine</text>
</a>
</g>
</g>
<!-- Node13&#45;&gt;Node15 -->
<g id="edge15" class="edge"><title>Node13&#45;&gt;Node15</title>
<path fill="none" stroke="midnightblue" d="M829.976,-150.551C845.74,-155.344 865.308,-161.294 882.334,-166.47"/>
<polygon fill="midnightblue" stroke="midnightblue" points="881.43,-169.854 892.016,-169.414 883.467,-163.156 881.43,-169.854"/>
</g>
<!-- Node16 -->
<g id="node16" class="node"><title>Node16</title>
<g id="a_node16"><a xlink:href="$AP__Progmem_8h.html#a1514e0408e036062b4af844baaf567da" xlink:title="pgm_read_byte">
<polygon fill="white" stroke="black" points="880.154,-132.5 880.154,-150.5 965.646,-150.5 965.646,-132.5 880.154,-132.5"/>
<text text-anchor="middle" x="922.9" y="-138.5" font-family="Helvetica,sans-Serif" font-size="10.00">pgm_read_byte</text>
</a>
</g>
</g>
<!-- Node13&#45;&gt;Node16 -->
<g id="edge16" class="edge"><title>Node13&#45;&gt;Node16</title>
<path fill="none" stroke="midnightblue" d="M833.46,-141.5C844.675,-141.5 857.478,-141.5 869.793,-141.5"/>
<polygon fill="midnightblue" stroke="midnightblue" points="869.978,-145 879.978,-141.5 869.977,-138 869.978,-145"/>
</g>
<!-- Node17 -->
<g id="node17" class="node"><title>Node17</title>
<g id="a_node17"><a xlink:href="$utoa__invert_8cpp.html#a34926f552460b47c414ec4d83b32815c" xlink:title="ulltoa_invert">
<polygon fill="white" stroke="black" points="887.94,-95.5 887.94,-113.5 957.861,-113.5 957.861,-95.5 887.94,-95.5"/>
<text text-anchor="middle" x="922.9" y="-101.5" font-family="Helvetica,sans-Serif" font-size="10.00">ulltoa_invert</text>
</a>
</g>
</g>
<!-- Node13&#45;&gt;Node17 -->
<g id="edge17" class="edge"><title>Node13&#45;&gt;Node17</title>
<path fill="none" stroke="midnightblue" d="M829.976,-132.449C845.74,-127.656 865.308,-121.706 882.334,-116.53"/>
<polygon fill="midnightblue" stroke="midnightblue" points="883.467,-119.844 892.016,-113.586 881.43,-113.146 883.467,-119.844"/>
</g>
<!-- Node18 -->
<g id="node18" class="node"><title>Node18</title>
<g id="a_node18"><a xlink:href="$utoa__invert_8cpp.html#a5d99bba8e697c1e11da489d88fca8559" xlink:title="ultoa_invert">
<polygon fill="white" stroke="black" points="889.051,-58.5 889.051,-76.5 956.75,-76.5 956.75,-58.5 889.051,-58.5"/>
<text text-anchor="middle" x="922.9" y="-64.5" font-family="Helvetica,sans-Serif" font-size="10.00">ultoa_invert</text>
</a>
</g>
</g>
<!-- Node13&#45;&gt;Node18 -->
<g id="edge18" class="edge"><title>Node13&#45;&gt;Node18</title>
<path fill="none" stroke="midnightblue" d="M809.27,-132.367C821.793,-120.194 845.545,-98.6603 869.329,-85.5 872.791,-83.5843 876.494,-81.8204 880.27,-80.2089"/>
<polygon fill="midnightblue" stroke="midnightblue" points="881.676,-83.4172 889.716,-76.517 879.128,-76.8974 881.676,-83.4172"/>
</g>
<!-- Node24 -->
<g id="node24" class="node"><title>Node24</title>
<g id="a_node24"><a xlink:href="$AP__Math_8h.html#a6b05ff3296c2ed55b1cd74262a7330f6" xlink:title="pythagorous3">
<polygon fill="white" stroke="black" points="293.543,-0.5 293.543,-18.5 370.144,-18.5 370.144,-0.5 293.543,-0.5"/>
<text text-anchor="middle" x="331.844" y="-6.5" font-family="Helvetica,sans-Serif" font-size="10.00">pythagorous3</text>
</a>
</g>
</g>
<!-- Node23&#45;&gt;Node24 -->
<g id="edge25" class="edge"><title>Node23&#45;&gt;Node24</title>
<path fill="none" stroke="midnightblue" d="M198.309,-9.5C223.719,-9.5 256.575,-9.5 283.216,-9.5"/>
<polygon fill="midnightblue" stroke="midnightblue" points="283.465,-13.0001 293.465,-9.5 283.465,-6.0001 283.465,-13.0001"/>
</g>
<!-- Node25 -->
<g id="node25" class="node"><title>Node25</title>
<g id="a_node25"><a xlink:href="$AP__Math_8h.html#a00f57739f8671cb41eae08a51b7cbf7c" xlink:title="sq">
<polygon fill="white" stroke="black" points="494.422,-0.5 494.422,-18.5 523.422,-18.5 523.422,-0.5 494.422,-0.5"/>
<text text-anchor="middle" x="508.922" y="-6.5" font-family="Helvetica,sans-Serif" font-size="10.00">sq</text>
</a>
</g>
</g>
<!-- Node24&#45;&gt;Node25 -->
<g id="edge26" class="edge"><title>Node24&#45;&gt;Node25</title>
<path fill="none" stroke="midnightblue" d="M370.402,-9.5C404.793,-9.5 454.66,-9.5 483.942,-9.5"/>
<polygon fill="midnightblue" stroke="midnightblue" points="484.082,-13.0001 494.082,-9.5 484.082,-6.0001 484.082,-13.0001"/>
</g>
</g>
</svg>
