<?xml version="1.0" encoding="UTF-8" standalone="no"?>
<!DOCTYPE svg PUBLIC "-//W3C//DTD SVG 1.1//EN"
 "http://www.w3.org/Graphics/SVG/1.1/DTD/svg11.dtd">
<!-- Generated by graphviz version 2.38.0 (20140413.2041)
 -->
<!-- Title: libraries/AP_HAL_Linux/Util.h Pages: 1 -->
<svg width="1331pt" height="587pt"
 viewBox="0.00 0.00 1331.40 587.00" xmlns="http://www.w3.org/2000/svg" xmlns:xlink="http://www.w3.org/1999/xlink">
<g id="graph0" class="graph" transform="scale(1 1) rotate(0) translate(4 583)">
<title>libraries/AP_HAL_Linux/Util.h</title>
<polygon fill="white" stroke="none" points="-4,4 -4,-583 1327.4,-583 1327.4,4 -4,4"/>
<!-- Node1 -->
<g id="node1" class="node"><title>Node1</title>
<polygon fill="#bfbfbf" stroke="black" points="665.596,-550.5 665.596,-578.5 787.207,-578.5 787.207,-550.5 665.596,-550.5"/>
<text text-anchor="start" x="673.596" y="-566.5" font-family="Helvetica,sans-Serif" font-size="10.00">libraries/AP_HAL_Linux</text>
<text text-anchor="middle" x="726.401" y="-556.5" font-family="Helvetica,sans-Serif" font-size="10.00">/Util.h</text>
</g>
<!-- Node2 -->
<g id="node2" class="node"><title>Node2</title>
<g id="a_node2"><a xlink:href="$AP__Common_8h.html" xlink:title="Common definitions and utility routines for the ArduPilot libraries. ">
<polygon fill="white" stroke="black" points="657.375,-165.5 657.375,-183.5 803.428,-183.5 803.428,-165.5 657.375,-165.5"/>
<text text-anchor="middle" x="730.401" y="-171.5" font-family="Helvetica,sans-Serif" font-size="10.00">AP_Common/AP_Common.h</text>
</a>
</g>
</g>
<!-- Node1&#45;&gt;Node2 -->
<g id="edge1" class="edge"><title>Node1&#45;&gt;Node2</title>
<path fill="none" stroke="midnightblue" d="M787.263,-558.866C854.2,-550.06 952.401,-524.526 952.401,-450.5 952.401,-450.5 952.401,-450.5 952.401,-393.5 952.401,-286.813 820.263,-214.987 759.877,-187.734"/>
<polygon fill="midnightblue" stroke="midnightblue" points="761.056,-184.429 750.494,-183.598 758.233,-190.834 761.056,-184.429"/>
</g>
<!-- Node6 -->
<g id="node6" class="node"><title>Node6</title>
<g id="a_node6"><a xlink:href="$AP__HAL_8h.html" xlink:title="AP_HAL/AP_HAL.h">
<polygon fill="white" stroke="black" points="559.488,-440.5 559.488,-458.5 663.315,-458.5 663.315,-440.5 559.488,-440.5"/>
<text text-anchor="middle" x="611.401" y="-446.5" font-family="Helvetica,sans-Serif" font-size="10.00">AP_HAL/AP_HAL.h</text>
</a>
</g>
</g>
<!-- Node1&#45;&gt;Node6 -->
<g id="edge5" class="edge"><title>Node1&#45;&gt;Node6</title>
<path fill="none" stroke="midnightblue" d="M684.622,-550.499C665.669,-542.673 644.413,-530.883 630.401,-514 619.837,-501.271 615.146,-482.815 613.064,-469.078"/>
<polygon fill="midnightblue" stroke="midnightblue" points="616.507,-468.396 611.856,-458.877 609.556,-469.219 616.507,-468.396"/>
</g>
<!-- Node30 -->
<g id="node30" class="node"><title>Node30</title>
<g id="a_node30"><a xlink:href="$AP__HAL__Linux__Namespace_8h.html" xlink:title="AP_HAL_Linux_Namespace.h">
<polygon fill="white" stroke="black" points="684.86,-440.5 684.86,-458.5 835.943,-458.5 835.943,-440.5 684.86,-440.5"/>
<text text-anchor="middle" x="760.401" y="-446.5" font-family="Helvetica,sans-Serif" font-size="10.00">AP_HAL_Linux_Namespace.h</text>
</a>
</g>
</g>
<!-- Node1&#45;&gt;Node30 -->
<g id="edge69" class="edge"><title>Node1&#45;&gt;Node30</title>
<path fill="none" stroke="midnightblue" d="M732.45,-550.273C736.778,-540.427 742.506,-526.572 746.401,-514 751.053,-498.988 754.786,-481.524 757.223,-468.715"/>
<polygon fill="midnightblue" stroke="midnightblue" points="760.674,-469.3 759.023,-458.835 753.788,-468.046 760.674,-469.3"/>
</g>
<!-- Node31 -->
<g id="node31" class="node"><title>Node31</title>
<g id="a_node31"><a xlink:href="$ToneAlarmDriver_8h.html" xlink:title="ToneAlarmDriver.h">
<polygon fill="white" stroke="black" points="639.273,-495.5 639.273,-513.5 737.529,-513.5 737.529,-495.5 639.273,-495.5"/>
<text text-anchor="middle" x="688.401" y="-501.5" font-family="Helvetica,sans-Serif" font-size="10.00">ToneAlarmDriver.h</text>
</a>
</g>
</g>
<!-- Node1&#45;&gt;Node31 -->
<g id="edge70" class="edge"><title>Node1&#45;&gt;Node31</title>
<path fill="none" stroke="midnightblue" d="M717.779,-550.339C712.318,-542.004 705.207,-531.151 699.35,-522.211"/>
<polygon fill="midnightblue" stroke="midnightblue" points="702.229,-520.218 693.821,-513.771 696.373,-524.054 702.229,-520.218"/>
</g>
<!-- Node3 -->
<g id="node3" class="node"><title>Node3</title>
<polygon fill="white" stroke="#bfbfbf" points="807.281,-110.5 807.281,-128.5 855.522,-128.5 855.522,-110.5 807.281,-110.5"/>
<text text-anchor="middle" x="831.401" y="-116.5" font-family="Helvetica,sans-Serif" font-size="10.00">stdint.h</text>
</g>
<!-- Node2&#45;&gt;Node3 -->
<g id="edge2" class="edge"><title>Node2&#45;&gt;Node3</title>
<path fill="none" stroke="midnightblue" d="M745.741,-165.45C761.981,-156.929 787.851,-143.353 806.916,-133.349"/>
<polygon fill="midnightblue" stroke="midnightblue" points="808.689,-136.371 815.917,-128.625 805.436,-130.173 808.689,-136.371"/>
</g>
<!-- Node4 -->
<g id="node4" class="node"><title>Node4</title>
<polygon fill="white" stroke="#bfbfbf" points="706.559,-110.5 706.559,-128.5 754.244,-128.5 754.244,-110.5 706.559,-110.5"/>
<text text-anchor="middle" x="730.401" y="-116.5" font-family="Helvetica,sans-Serif" font-size="10.00">stdlib.h</text>
</g>
<!-- Node2&#45;&gt;Node4 -->
<g id="edge3" class="edge"><title>Node2&#45;&gt;Node4</title>
<path fill="none" stroke="midnightblue" d="M730.401,-165.219C730.401,-158.177 730.401,-147.808 730.401,-138.828"/>
<polygon fill="midnightblue" stroke="midnightblue" points="733.901,-138.55 730.401,-128.55 726.901,-138.55 733.901,-138.55"/>
</g>
<!-- Node5 -->
<g id="node5" class="node"><title>Node5</title>
<polygon fill="white" stroke="#bfbfbf" points="626.108,-110.5 626.108,-128.5 682.694,-128.5 682.694,-110.5 626.108,-110.5"/>
<text text-anchor="middle" x="654.401" y="-116.5" font-family="Helvetica,sans-Serif" font-size="10.00">stdbool.h</text>
</g>
<!-- Node2&#45;&gt;Node5 -->
<g id="edge4" class="edge"><title>Node2&#45;&gt;Node5</title>
<path fill="none" stroke="midnightblue" d="M718.859,-165.45C707.141,-157.279 688.76,-144.46 674.62,-134.6"/>
<polygon fill="midnightblue" stroke="midnightblue" points="676.257,-131.475 666.053,-128.625 672.253,-137.216 676.257,-131.475"/>
</g>
<!-- Node6&#45;&gt;Node3 -->
<g id="edge6" class="edge"><title>Node6&#45;&gt;Node3</title>
<path fill="none" stroke="midnightblue" d="M663.423,-441.156C741.749,-430.023 883.304,-409.577 906.401,-404 992.54,-383.201 1095.4,-429.114 1095.4,-340.5 1095.4,-340.5 1095.4,-340.5 1095.4,-228.5 1095.4,-130.527 937.724,-119.482 866.084,-119.52"/>
<polygon fill="midnightblue" stroke="midnightblue" points="865.736,-116.023 855.765,-119.603 865.793,-123.022 865.736,-116.023"/>
</g>
<!-- Node6&#45;&gt;Node5 -->
<g id="edge7" class="edge"><title>Node6&#45;&gt;Node5</title>
<path fill="none" stroke="midnightblue" d="M610.16,-440.484C605.82,-410.819 592.527,-304.614 610.401,-220 616.884,-189.313 633.469,-156.572 644.324,-137.353"/>
<polygon fill="midnightblue" stroke="midnightblue" points="647.401,-139.023 649.394,-128.618 641.347,-135.51 647.401,-139.023"/>
</g>
<!-- Node7 -->
<g id="node7" class="node"><title>Node7</title>
<g id="a_node7"><a xlink:href="$AP__HAL__Namespace_8h.html" xlink:title="AP_HAL_Namespace.h">
<polygon fill="white" stroke="black" points="355.594,-55.5 355.594,-73.5 477.209,-73.5 477.209,-55.5 355.594,-55.5"/>
<text text-anchor="middle" x="416.401" y="-61.5" font-family="Helvetica,sans-Serif" font-size="10.00">AP_HAL_Namespace.h</text>
</a>
</g>
</g>
<!-- Node6&#45;&gt;Node7 -->
<g id="edge8" class="edge"><title>Node6&#45;&gt;Node7</title>
<path fill="none" stroke="midnightblue" d="M663.413,-441.319C667.466,-440.843 671.498,-440.396 675.401,-440 901.911,-417.002 965.929,-460.808 1186.4,-404 1251.39,-387.255 1323.4,-407.611 1323.4,-340.5 1323.4,-340.5 1323.4,-340.5 1323.4,-173.5 1323.4,-103.554 1247.4,-126.408 1179.4,-110 1049.48,-78.6472 651.549,-69.0824 487.868,-66.4297"/>
<polygon fill="midnightblue" stroke="midnightblue" points="487.485,-62.9233 477.431,-66.2649 487.374,-69.9225 487.485,-62.9233"/>
</g>
<!-- Node10 -->
<g id="node10" class="node"><title>Node10</title>
<g id="a_node10"><a xlink:href="$AP__HAL__Boards_8h.html" xlink:title="AP_HAL_Boards.h">
<polygon fill="white" stroke="black" points="929.431,-165.5 929.431,-183.5 1029.37,-183.5 1029.37,-165.5 929.431,-165.5"/>
<text text-anchor="middle" x="979.401" y="-171.5" font-family="Helvetica,sans-Serif" font-size="10.00">AP_HAL_Boards.h</text>
</a>
</g>
</g>
<!-- Node6&#45;&gt;Node10 -->
<g id="edge11" class="edge"><title>Node6&#45;&gt;Node10</title>
<path fill="none" stroke="midnightblue" d="M632.597,-440.425C652.407,-432.456 682.443,-419.272 706.401,-404 761.582,-368.826 912.257,-235.507 962.697,-190.468"/>
<polygon fill="midnightblue" stroke="midnightblue" points="965.286,-192.849 970.407,-183.574 960.62,-187.631 965.286,-192.849"/>
</g>
<!-- Node11 -->
<g id="node11" class="node"><title>Node11</title>
<g id="a_node11"><a xlink:href="$AP__HAL__Macros_8h.html" xlink:title="AP_HAL_Macros.h">
<polygon fill="white" stroke="black" points="202.882,-385.5 202.882,-403.5 303.921,-403.5 303.921,-385.5 202.882,-385.5"/>
<text text-anchor="middle" x="253.401" y="-391.5" font-family="Helvetica,sans-Serif" font-size="10.00">AP_HAL_Macros.h</text>
</a>
</g>
</g>
<!-- Node6&#45;&gt;Node11 -->
<g id="edge12" class="edge"><title>Node6&#45;&gt;Node11</title>
<path fill="none" stroke="midnightblue" d="M559.345,-440.793C494.324,-431.167 383.261,-414.725 314.342,-404.522"/>
<polygon fill="midnightblue" stroke="midnightblue" points="314.478,-401.004 304.073,-403.002 313.453,-407.929 314.478,-401.004"/>
</g>
<!-- Node12 -->
<g id="node12" class="node"><title>Node12</title>
<g id="a_node12"><a xlink:href="$AP__HAL__Main_8h.html" xlink:title="AP_HAL_Main.h">
<polygon fill="white" stroke="black" points="436.436,-385.5 436.436,-403.5 526.367,-403.5 526.367,-385.5 436.436,-385.5"/>
<text text-anchor="middle" x="481.401" y="-391.5" font-family="Helvetica,sans-Serif" font-size="10.00">AP_HAL_Main.h</text>
</a>
</g>
</g>
<!-- Node6&#45;&gt;Node12 -->
<g id="edge13" class="edge"><title>Node6&#45;&gt;Node12</title>
<path fill="none" stroke="midnightblue" d="M591.657,-440.45C570.086,-431.656 535.315,-417.48 510.591,-407.401"/>
<polygon fill="midnightblue" stroke="midnightblue" points="511.913,-404.16 501.331,-403.625 509.27,-410.642 511.913,-404.16"/>
</g>
<!-- Node13 -->
<g id="node13" class="node"><title>Node13</title>
<g id="a_node13"><a xlink:href="$HAL_8h.html" xlink:title="HAL.h">
<polygon fill="white" stroke="black" points="408.505,-330.5 408.505,-348.5 452.298,-348.5 452.298,-330.5 408.505,-330.5"/>
<text text-anchor="middle" x="430.401" y="-336.5" font-family="Helvetica,sans-Serif" font-size="10.00">HAL.h</text>
</a>
</g>
</g>
<!-- Node6&#45;&gt;Node13 -->
<g id="edge68" class="edge"><title>Node6&#45;&gt;Node13</title>
<path fill="none" stroke="midnightblue" d="M559.129,-443.018C510.626,-436.726 443.56,-424.532 427.401,-404 417.384,-391.271 419.839,-372.266 423.757,-358.365"/>
<polygon fill="midnightblue" stroke="midnightblue" points="427.193,-359.122 427.004,-348.528 420.546,-356.928 427.193,-359.122"/>
</g>
<!-- Node14 -->
<g id="node14" class="node"><title>Node14</title>
<g id="a_node14"><a xlink:href="$AnalogIn_8h.html" xlink:title="AnalogIn.h">
<polygon fill="white" stroke="black" points="247.493,-220.5 247.493,-238.5 311.31,-238.5 311.31,-220.5 247.493,-220.5"/>
<text text-anchor="middle" x="279.401" y="-226.5" font-family="Helvetica,sans-Serif" font-size="10.00">AnalogIn.h</text>
</a>
</g>
</g>
<!-- Node6&#45;&gt;Node14 -->
<g id="edge50" class="edge"><title>Node6&#45;&gt;Node14</title>
<path fill="none" stroke="midnightblue" d="M559.072,-447.354C512.622,-444.213 444.405,-434.238 393.401,-404 338.332,-371.351 331.689,-349.854 300.401,-294 292.413,-279.74 286.861,-261.963 283.48,-248.848"/>
<polygon fill="midnightblue" stroke="midnightblue" points="286.79,-247.641 281.062,-238.728 279.982,-249.268 286.79,-247.641"/>
</g>
<!-- Node16 -->
<g id="node16" class="node"><title>Node16</title>
<g id="a_node16"><a xlink:href="$GPIO_8h.html" xlink:title="GPIO.h">
<polygon fill="white" stroke="black" points="1123.73,-220.5 1123.73,-238.5 1173.07,-238.5 1173.07,-220.5 1123.73,-220.5"/>
<text text-anchor="middle" x="1148.4" y="-226.5" font-family="Helvetica,sans-Serif" font-size="10.00">GPIO.h</text>
</a>
</g>
</g>
<!-- Node6&#45;&gt;Node16 -->
<g id="edge52" class="edge"><title>Node6&#45;&gt;Node16</title>
<path fill="none" stroke="midnightblue" d="M663.419,-441.373C667.471,-440.885 671.501,-440.421 675.401,-440 723.51,-434.813 1072.9,-435.769 1109.4,-404 1154.79,-364.494 1153.67,-284.573 1150.55,-248.678"/>
<polygon fill="midnightblue" stroke="midnightblue" points="1154.03,-248.267 1149.53,-238.677 1147.07,-248.982 1154.03,-248.267"/>
</g>
<!-- Node17 -->
<g id="node17" class="node"><title>Node17</title>
<g id="a_node17"><a xlink:href="$RCInput_8h.html" xlink:title="RCInput.h">
<polygon fill="white" stroke="black" points="67.8892,-275.5 67.8892,-293.5 128.914,-293.5 128.914,-275.5 67.8892,-275.5"/>
<text text-anchor="middle" x="98.4014" y="-281.5" font-family="Helvetica,sans-Serif" font-size="10.00">RCInput.h</text>
</a>
</g>
</g>
<!-- Node6&#45;&gt;Node17 -->
<g id="edge53" class="edge"><title>Node6&#45;&gt;Node17</title>
<path fill="none" stroke="midnightblue" d="M559.142,-447.218C439.678,-443.802 154.416,-432.7 122.401,-404 94.2186,-378.735 93.8305,-330.271 96.0643,-303.823"/>
<polygon fill="midnightblue" stroke="midnightblue" points="99.5663,-303.989 97.1467,-293.675 92.6058,-303.247 99.5663,-303.989"/>
</g>
<!-- Node18 -->
<g id="node18" class="node"><title>Node18</title>
<g id="a_node18"><a xlink:href="$RCOutput_8h.html" xlink:title="RCOutput.h">
<polygon fill="white" stroke="black" points="185,-275.5 185,-293.5 253.803,-293.5 253.803,-275.5 185,-275.5"/>
<text text-anchor="middle" x="219.401" y="-281.5" font-family="Helvetica,sans-Serif" font-size="10.00">RCOutput.h</text>
</a>
</g>
</g>
<!-- Node6&#45;&gt;Node18 -->
<g id="edge54" class="edge"><title>Node6&#45;&gt;Node18</title>
<path fill="none" stroke="midnightblue" d="M559.264,-446.773C452.605,-442.701 217.464,-430.76 193.401,-404 167.677,-375.392 191.9,-327.278 207.89,-302.059"/>
<polygon fill="midnightblue" stroke="midnightblue" points="210.887,-303.872 213.493,-293.603 205.052,-300.006 210.887,-303.872"/>
</g>
<!-- Node19 -->
<g id="node19" class="node"><title>Node19</title>
<g id="a_node19"><a xlink:href="$SPIDriver_8h.html" xlink:title="SPIDriver.h">
<polygon fill="white" stroke="black" points="309.113,-275.5 309.113,-293.5 375.689,-293.5 375.689,-275.5 309.113,-275.5"/>
<text text-anchor="middle" x="342.401" y="-281.5" font-family="Helvetica,sans-Serif" font-size="10.00">SPIDriver.h</text>
</a>
</g>
</g>
<!-- Node6&#45;&gt;Node19 -->
<g id="edge49" class="edge"><title>Node6&#45;&gt;Node19</title>
<path fill="none" stroke="midnightblue" d="M559.238,-447.199C517.461,-443.805 459.143,-433.549 417.401,-404 381.247,-378.407 358.601,-329.341 348.524,-303.091"/>
<polygon fill="midnightblue" stroke="midnightblue" points="351.796,-301.849 345.072,-293.662 345.223,-304.256 351.796,-301.849"/>
</g>
<!-- Node20 -->
<g id="node20" class="node"><title>Node20</title>
<g id="a_node20"><a xlink:href="$Storage_8h.html" xlink:title="Storage.h">
<polygon fill="white" stroke="black" points="507.719,-275.5 507.719,-293.5 567.083,-293.5 567.083,-275.5 507.719,-275.5"/>
<text text-anchor="middle" x="537.401" y="-281.5" font-family="Helvetica,sans-Serif" font-size="10.00">Storage.h</text>
</a>
</g>
</g>
<!-- Node6&#45;&gt;Node20 -->
<g id="edge51" class="edge"><title>Node6&#45;&gt;Node20</title>
<path fill="none" stroke="midnightblue" d="M607.63,-440.193C596.099,-414.794 561.141,-337.791 545.324,-302.952"/>
<polygon fill="midnightblue" stroke="midnightblue" points="548.398,-301.256 541.077,-293.597 542.024,-304.15 548.398,-301.256"/>
</g>
<!-- Node21 -->
<g id="node21" class="node"><title>Node21</title>
<g id="a_node21"><a xlink:href="$UARTDriver_8h.html" xlink:title="UARTDriver.h">
<polygon fill="white" stroke="black" points="707.649,-275.5 707.649,-293.5 785.153,-293.5 785.153,-275.5 707.649,-275.5"/>
<text text-anchor="middle" x="746.401" y="-281.5" font-family="Helvetica,sans-Serif" font-size="10.00">UARTDriver.h</text>
</a>
</g>
</g>
<!-- Node6&#45;&gt;Node21 -->
<g id="edge45" class="edge"><title>Node6&#45;&gt;Node21</title>
<path fill="none" stroke="midnightblue" d="M630.437,-440.438C646.435,-432.901 669.08,-420.358 684.401,-404 712.746,-373.739 731.715,-328.035 740.596,-303.158"/>
<polygon fill="midnightblue" stroke="midnightblue" points="743.941,-304.194 743.874,-293.599 737.319,-301.923 743.941,-304.194"/>
</g>
<!-- Node22 -->
<g id="node22" class="node"><title>Node22</title>
<g id="a_node22"><a xlink:href="$BetterStream_8h.html" xlink:title="utility/BetterStream.h">
<polygon fill="white" stroke="black" points="618.995,-220.5 618.995,-238.5 727.808,-238.5 727.808,-220.5 618.995,-220.5"/>
<text text-anchor="middle" x="673.401" y="-226.5" font-family="Helvetica,sans-Serif" font-size="10.00">utility/BetterStream.h</text>
</a>
</g>
</g>
<!-- Node6&#45;&gt;Node22 -->
<g id="edge67" class="edge"><title>Node6&#45;&gt;Node22</title>
<path fill="none" stroke="midnightblue" d="M619.303,-440.395C626.996,-432.005 638.382,-418.163 644.401,-404 666.954,-350.931 672.015,-281.764 673.118,-249.113"/>
<polygon fill="midnightblue" stroke="midnightblue" points="676.623,-248.916 673.37,-238.834 669.626,-248.745 676.623,-248.916"/>
</g>
<!-- Node24 -->
<g id="node24" class="node"><title>Node24</title>
<g id="a_node24"><a xlink:href="$Stream_8h.html" xlink:title="Stream.h">
<polygon fill="white" stroke="black" points="135.116,-165.5 135.116,-183.5 191.687,-183.5 191.687,-165.5 135.116,-165.5"/>
<text text-anchor="middle" x="163.401" y="-171.5" font-family="Helvetica,sans-Serif" font-size="10.00">Stream.h</text>
</a>
</g>
</g>
<!-- Node6&#45;&gt;Node24 -->
<g id="edge66" class="edge"><title>Node6&#45;&gt;Node24</title>
<path fill="none" stroke="midnightblue" d="M559.464,-446.81C450.602,-442.751 206.384,-430.738 180.401,-404 124.159,-346.125 146.381,-236.479 158.027,-193.462"/>
<polygon fill="midnightblue" stroke="midnightblue" points="161.46,-194.186 160.832,-183.61 154.727,-192.269 161.46,-194.186"/>
</g>
<!-- Node25 -->
<g id="node25" class="node"><title>Node25</title>
<g id="a_node25"><a xlink:href="$Print_8h.html" xlink:title="Print.h">
<polygon fill="white" stroke="black" points="34.9507,-110.5 34.9507,-128.5 79.8521,-128.5 79.8521,-110.5 34.9507,-110.5"/>
<text text-anchor="middle" x="57.4014" y="-116.5" font-family="Helvetica,sans-Serif" font-size="10.00">Print.h</text>
</a>
</g>
</g>
<!-- Node6&#45;&gt;Node25 -->
<g id="edge65" class="edge"><title>Node6&#45;&gt;Node25</title>
<path fill="none" stroke="midnightblue" d="M559.195,-448.268C446.726,-447.069 185.272,-440.332 105.401,-404 68.3492,-387.146 39.4014,-381.206 39.4014,-340.5 39.4014,-340.5 39.4014,-340.5 39.4014,-228.5 39.4014,-196.436 47.2165,-159.736 52.5477,-138.431"/>
<polygon fill="midnightblue" stroke="midnightblue" points="55.9872,-139.112 55.1217,-128.552 49.2133,-137.347 55.9872,-139.112"/>
</g>
<!-- Node26 -->
<g id="node26" class="node"><title>Node26</title>
<g id="a_node26"><a xlink:href="$I2CDriver_8h.html" xlink:title="I2CDriver.h">
<polygon fill="white" stroke="black" points="383.392,-165.5 383.392,-183.5 449.411,-183.5 449.411,-165.5 383.392,-165.5"/>
<text text-anchor="middle" x="416.401" y="-171.5" font-family="Helvetica,sans-Serif" font-size="10.00">I2CDriver.h</text>
</a>
</g>
</g>
<!-- Node6&#45;&gt;Node26 -->
<g id="edge46" class="edge"><title>Node6&#45;&gt;Node26</title>
<path fill="none" stroke="midnightblue" d="M605.2,-440.182C588.026,-417.114 538.474,-350.321 498.401,-294 472.651,-257.809 443.178,-214.822 427.531,-191.872"/>
<polygon fill="midnightblue" stroke="midnightblue" points="430.418,-189.893 421.897,-183.597 424.632,-193.833 430.418,-189.893"/>
</g>
<!-- Node27 -->
<g id="node27" class="node"><title>Node27</title>
<g id="a_node27"><a xlink:href="$Scheduler_8h.html" xlink:title="Scheduler.h">
<polygon fill="white" stroke="black" points="941.99,-220.5 941.99,-238.5 1010.81,-238.5 1010.81,-220.5 941.99,-220.5"/>
<text text-anchor="middle" x="976.401" y="-226.5" font-family="Helvetica,sans-Serif" font-size="10.00">Scheduler.h</text>
</a>
</g>
</g>
<!-- Node6&#45;&gt;Node27 -->
<g id="edge55" class="edge"><title>Node6&#45;&gt;Node27</title>
<path fill="none" stroke="midnightblue" d="M663.583,-441.101C729.681,-431.387 836.901,-414.355 852.401,-404 884.998,-382.223 878.591,-362.574 900.401,-330 916.932,-305.312 920.286,-298.55 938.401,-275 945.927,-265.216 954.869,-254.696 962.188,-246.341"/>
<polygon fill="midnightblue" stroke="midnightblue" points="964.842,-248.623 968.852,-238.817 959.602,-243.982 964.842,-248.623"/>
</g>
<!-- Node28 -->
<g id="node28" class="node"><title>Node28</title>
<g id="a_node28"><a xlink:href="$Semaphores_8h.html" xlink:title="Semaphores.h">
<polygon fill="white" stroke="black" points="1196.88,-330.5 1196.88,-348.5 1277.92,-348.5 1277.92,-330.5 1196.88,-330.5"/>
<text text-anchor="middle" x="1237.4" y="-336.5" font-family="Helvetica,sans-Serif" font-size="10.00">Semaphores.h</text>
</a>
</g>
</g>
<!-- Node6&#45;&gt;Node28 -->
<g id="edge60" class="edge"><title>Node6&#45;&gt;Node28</title>
<path fill="none" stroke="midnightblue" d="M663.416,-441.339C667.468,-440.858 671.499,-440.405 675.401,-440 781.796,-428.954 1055.55,-442.371 1155.4,-404 1182.35,-393.646 1207.7,-371.358 1222.89,-356.143"/>
<polygon fill="midnightblue" stroke="midnightblue" points="1225.8,-358.165 1230.23,-348.539 1220.77,-353.304 1225.8,-358.165"/>
</g>
<!-- Node29 -->
<g id="node29" class="node"><title>Node29</title>
<g id="a_node29"><a xlink:href="$Util_8h.html" xlink:title="Util.h">
<polygon fill="white" stroke="black" points="1029.01,-220.5 1029.01,-238.5 1067.79,-238.5 1067.79,-220.5 1029.01,-220.5"/>
<text text-anchor="middle" x="1048.4" y="-226.5" font-family="Helvetica,sans-Serif" font-size="10.00">Util.h</text>
</a>
</g>
</g>
<!-- Node6&#45;&gt;Node29 -->
<g id="edge62" class="edge"><title>Node6&#45;&gt;Node29</title>
<path fill="none" stroke="midnightblue" d="M663.47,-441.549C735.481,-431.668 858.757,-413.688 877.401,-404 951.497,-365.5 1013.01,-283.186 1037.28,-247.54"/>
<polygon fill="midnightblue" stroke="midnightblue" points="1040.48,-249.059 1043.12,-238.799 1034.65,-245.172 1040.48,-249.059"/>
</g>
<!-- Node8 -->
<g id="node8" class="node"><title>Node8</title>
<polygon fill="white" stroke="#bfbfbf" points="254.005,-0.5 254.005,-18.5 302.798,-18.5 302.798,-0.5 254.005,-0.5"/>
<text text-anchor="middle" x="278.401" y="-6.5" font-family="Helvetica,sans-Serif" font-size="10.00">string.h</text>
</g>
<!-- Node7&#45;&gt;Node8 -->
<g id="edge9" class="edge"><title>Node7&#45;&gt;Node8</title>
<path fill="none" stroke="midnightblue" d="M395.442,-55.4504C372.443,-46.6173 335.306,-32.3546 309.04,-22.267"/>
<polygon fill="midnightblue" stroke="midnightblue" points="310.148,-18.9433 299.558,-18.6253 307.638,-25.478 310.148,-18.9433"/>
</g>
<!-- Node9 -->
<g id="node9" class="node"><title>Node9</title>
<g id="a_node9"><a xlink:href="$functor_8h.html" xlink:title="utility/functor.h">
<polygon fill="white" stroke="black" points="376.438,-0.5 376.438,-18.5 456.364,-18.5 456.364,-0.5 376.438,-0.5"/>
<text text-anchor="middle" x="416.401" y="-6.5" font-family="Helvetica,sans-Serif" font-size="10.00">utility/functor.h</text>
</a>
</g>
</g>
<!-- Node7&#45;&gt;Node9 -->
<g id="edge10" class="edge"><title>Node7&#45;&gt;Node9</title>
<path fill="none" stroke="midnightblue" d="M416.401,-55.2188C416.401,-48.1769 416.401,-37.8083 416.401,-28.8277"/>
<polygon fill="midnightblue" stroke="midnightblue" points="419.901,-28.5495 416.401,-18.5496 412.901,-28.5496 419.901,-28.5495"/>
</g>
<!-- Node12&#45;&gt;Node13 -->
<g id="edge14" class="edge"><title>Node12&#45;&gt;Node13</title>
<path fill="none" stroke="midnightblue" d="M473.433,-385.219C465.904,-377.394 454.422,-365.463 445.213,-355.892"/>
<polygon fill="midnightblue" stroke="midnightblue" points="447.603,-353.328 438.147,-348.55 442.559,-358.182 447.603,-353.328"/>
</g>
<!-- Node13&#45;&gt;Node7 -->
<g id="edge15" class="edge"><title>Node13&#45;&gt;Node7</title>
<path fill="none" stroke="midnightblue" d="M427.616,-330.258C423.501,-318.126 415.514,-294.76 408.401,-275 391.069,-226.854 364.25,-215.154 374.401,-165 380.578,-134.483 396.413,-101.692 406.778,-82.416"/>
<polygon fill="midnightblue" stroke="midnightblue" points="409.848,-84.0975 411.619,-73.6518 403.72,-80.7127 409.848,-84.0975"/>
</g>
<!-- Node13&#45;&gt;Node14 -->
<g id="edge16" class="edge"><title>Node13&#45;&gt;Node14</title>
<path fill="none" stroke="midnightblue" d="M426.408,-330.39C419.518,-317.146 404.211,-290.77 384.401,-275 365.28,-259.777 340.183,-248.888 319.321,-241.693"/>
<polygon fill="midnightblue" stroke="midnightblue" points="320.361,-238.35 309.768,-238.549 318.173,-245 320.361,-238.35"/>
</g>
<!-- Node13&#45;&gt;Node16 -->
<g id="edge19" class="edge"><title>Node13&#45;&gt;Node16</title>
<path fill="none" stroke="midnightblue" d="M452.619,-336.221C509.565,-330.285 665.345,-313.448 794.401,-294 911.959,-276.285 1050.47,-249.795 1113.74,-237.382"/>
<polygon fill="midnightblue" stroke="midnightblue" points="1114.45,-240.809 1123.59,-235.444 1113.1,-233.941 1114.45,-240.809"/>
</g>
<!-- Node13&#45;&gt;Node17 -->
<g id="edge22" class="edge"><title>Node13&#45;&gt;Node17</title>
<path fill="none" stroke="midnightblue" d="M408.361,-334.981C353.422,-326.211 209.743,-303.274 138.978,-291.978"/>
<polygon fill="midnightblue" stroke="midnightblue" points="139.512,-288.519 129.085,-290.398 138.408,-295.431 139.512,-288.519"/>
</g>
<!-- Node13&#45;&gt;Node18 -->
<g id="edge24" class="edge"><title>Node13&#45;&gt;Node18</title>
<path fill="none" stroke="midnightblue" d="M408.219,-332.928C373.47,-324.2 305.612,-307.155 261.416,-296.054"/>
<polygon fill="midnightblue" stroke="midnightblue" points="262.098,-292.616 251.546,-293.574 260.392,-299.405 262.098,-292.616"/>
</g>
<!-- Node13&#45;&gt;Node19 -->
<g id="edge26" class="edge"><title>Node13&#45;&gt;Node19</title>
<path fill="none" stroke="midnightblue" d="M417.036,-330.45C403.21,-322.123 381.371,-308.97 364.882,-299.039"/>
<polygon fill="midnightblue" stroke="midnightblue" points="366.265,-295.786 355.892,-293.625 362.653,-301.783 366.265,-295.786"/>
</g>
<!-- Node13&#45;&gt;Node20 -->
<g id="edge28" class="edge"><title>Node13&#45;&gt;Node20</title>
<path fill="none" stroke="midnightblue" d="M446.652,-330.45C464.014,-321.851 491.765,-308.105 512.013,-298.075"/>
<polygon fill="midnightblue" stroke="midnightblue" points="513.59,-301.2 520.997,-293.625 510.483,-294.928 513.59,-301.2"/>
</g>
<!-- Node13&#45;&gt;Node21 -->
<g id="edge31" class="edge"><title>Node13&#45;&gt;Node21</title>
<path fill="none" stroke="midnightblue" d="M452.371,-334.815C502.798,-326.358 627.848,-305.384 697.531,-293.697"/>
<polygon fill="midnightblue" stroke="midnightblue" points="698.112,-297.148 707.395,-292.042 696.954,-290.245 698.112,-297.148"/>
</g>
<!-- Node14&#45;&gt;Node7 -->
<g id="edge18" class="edge"><title>Node14&#45;&gt;Node7</title>
<path fill="none" stroke="midnightblue" d="M278.611,-220.497C277.009,-199.675 275.62,-143.135 303.401,-110 317.255,-93.4769 338.072,-83.0537 358.08,-76.4935"/>
<polygon fill="midnightblue" stroke="midnightblue" points="359.232,-79.8021 367.802,-73.5736 357.218,-73.0979 359.232,-79.8021"/>
</g>
<!-- Node15 -->
<g id="node15" class="node"><title>Node15</title>
<polygon fill="white" stroke="#bfbfbf" points="0,-55.5 0,-73.5 58.8027,-73.5 58.8027,-55.5 0,-55.5"/>
<text text-anchor="middle" x="29.4014" y="-61.5" font-family="Helvetica,sans-Serif" font-size="10.00">inttypes.h</text>
</g>
<!-- Node14&#45;&gt;Node15 -->
<g id="edge17" class="edge"><title>Node14&#45;&gt;Node15</title>
<path fill="none" stroke="midnightblue" d="M247.177,-227.492C189.916,-223.703 72.1635,-206.396 26.4014,-129 18.3267,-115.343 20.2661,-97.0018 23.5195,-83.5426"/>
<polygon fill="midnightblue" stroke="midnightblue" points="26.9797,-84.1726 26.3702,-73.5953 20.2506,-82.244 26.9797,-84.1726"/>
</g>
<!-- Node16&#45;&gt;Node3 -->
<g id="edge20" class="edge"><title>Node16&#45;&gt;Node3</title>
<path fill="none" stroke="midnightblue" d="M1145.89,-220.301C1141.18,-206.428 1129.62,-178.519 1109.4,-165 1070.05,-138.685 931.069,-126.715 865.773,-122.448"/>
<polygon fill="midnightblue" stroke="midnightblue" points="865.783,-118.941 855.583,-121.805 865.343,-125.928 865.783,-118.941"/>
</g>
<!-- Node16&#45;&gt;Node7 -->
<g id="edge21" class="edge"><title>Node16&#45;&gt;Node7</title>
<path fill="none" stroke="midnightblue" d="M1143.6,-220.475C1129.64,-198.027 1086.58,-134.632 1031.4,-110 935.918,-67.3725 628.012,-63.8903 487.501,-64.6323"/>
<polygon fill="midnightblue" stroke="midnightblue" points="487.251,-61.1337 477.273,-64.6954 487.294,-68.1336 487.251,-61.1337"/>
</g>
<!-- Node17&#45;&gt;Node7 -->
<g id="edge23" class="edge"><title>Node17&#45;&gt;Node7</title>
<path fill="none" stroke="midnightblue" d="M98.7565,-275.457C99.952,-255.473 105.062,-202.475 126.401,-165 143.821,-134.408 152.145,-126.198 183.401,-110 233.752,-83.9065 297.353,-73.0089 345.379,-68.5093"/>
<polygon fill="midnightblue" stroke="midnightblue" points="345.72,-71.993 355.381,-67.6431 345.116,-65.0191 345.72,-71.993"/>
</g>
<!-- Node18&#45;&gt;Node7 -->
<g id="edge25" class="edge"><title>Node18&#45;&gt;Node7</title>
<path fill="none" stroke="midnightblue" d="M220.181,-275.188C223.238,-247.419 236.905,-156.962 288.401,-110 306.806,-93.2156 331.881,-82.7029 354.961,-76.1452"/>
<polygon fill="midnightblue" stroke="midnightblue" points="355.931,-79.5091 364.705,-73.5702 354.143,-72.7414 355.931,-79.5091"/>
</g>
<!-- Node19&#45;&gt;Node7 -->
<g id="edge27" class="edge"><title>Node19&#45;&gt;Node7</title>
<path fill="none" stroke="midnightblue" d="M339.639,-275.178C331.428,-248.84 309.653,-165.754 341.401,-110 349.883,-95.1062 365.528,-84.6829 380.344,-77.6888"/>
<polygon fill="midnightblue" stroke="midnightblue" points="382.082,-80.7509 389.877,-73.5753 379.309,-74.3238 382.082,-80.7509"/>
</g>
<!-- Node20&#45;&gt;Node3 -->
<g id="edge29" class="edge"><title>Node20&#45;&gt;Node3</title>
<path fill="none" stroke="midnightblue" d="M542.506,-275.37C556.535,-253.738 598.006,-194.413 648.401,-165 673.421,-150.398 751.481,-134.69 797.168,-126.403"/>
<polygon fill="midnightblue" stroke="midnightblue" points="797.988,-129.812 807.215,-124.606 796.755,-122.921 797.988,-129.812"/>
</g>
<!-- Node20&#45;&gt;Node7 -->
<g id="edge30" class="edge"><title>Node20&#45;&gt;Node7</title>
<path fill="none" stroke="midnightblue" d="M532.951,-275.483C515.389,-243.841 450.648,-127.2 426.008,-82.8075"/>
<polygon fill="midnightblue" stroke="midnightblue" points="428.934,-80.868 421.021,-73.8231 422.814,-84.2651 428.934,-80.868"/>
</g>
<!-- Node21&#45;&gt;Node2 -->
<g id="edge33" class="edge"><title>Node21&#45;&gt;Node2</title>
<path fill="none" stroke="midnightblue" d="M753.244,-275.256C762.443,-263.122 776.833,-239.754 769.401,-220 765.169,-208.75 756.66,-198.489 748.666,-190.662"/>
<polygon fill="midnightblue" stroke="midnightblue" points="750.772,-187.846 741.022,-183.7 746.058,-193.021 750.772,-187.846"/>
</g>
<!-- Node21&#45;&gt;Node3 -->
<g id="edge32" class="edge"><title>Node21&#45;&gt;Node3</title>
<path fill="none" stroke="midnightblue" d="M754.895,-275.19C763.329,-266.64 776.284,-252.676 785.401,-239 806.959,-206.662 820.626,-162.737 827.056,-138.471"/>
<polygon fill="midnightblue" stroke="midnightblue" points="830.508,-139.098 829.57,-128.545 823.722,-137.38 830.508,-139.098"/>
</g>
<!-- Node21&#45;&gt;Node7 -->
<g id="edge34" class="edge"><title>Node21&#45;&gt;Node7</title>
<path fill="none" stroke="midnightblue" d="M747.497,-275.078C748.734,-261.863 749.142,-236.104 736.401,-220 710.182,-186.86 686.429,-202.428 648.401,-184 588.226,-154.838 577.183,-139.962 517.401,-110 493.7,-98.1211 466.116,-86.0839 445.769,-77.5293"/>
<polygon fill="midnightblue" stroke="midnightblue" points="446.987,-74.2453 436.411,-73.6256 444.292,-80.7058 446.987,-74.2453"/>
</g>
<!-- Node21&#45;&gt;Node22 -->
<g id="edge35" class="edge"><title>Node21&#45;&gt;Node22</title>
<path fill="none" stroke="midnightblue" d="M735.314,-275.45C724.059,-267.279 706.403,-254.46 692.822,-244.6"/>
<polygon fill="midnightblue" stroke="midnightblue" points="694.741,-241.668 684.593,-238.625 690.629,-247.333 694.741,-241.668"/>
</g>
<!-- Node22&#45;&gt;Node2 -->
<g id="edge37" class="edge"><title>Node22&#45;&gt;Node2</title>
<path fill="none" stroke="midnightblue" d="M682.308,-220.219C690.807,-212.316 703.811,-200.224 714.156,-190.606"/>
<polygon fill="midnightblue" stroke="midnightblue" points="716.804,-192.922 721.744,-183.55 712.038,-187.796 716.804,-192.922"/>
</g>
<!-- Node22&#45;&gt;Node7 -->
<g id="edge38" class="edge"><title>Node22&#45;&gt;Node7</title>
<path fill="none" stroke="midnightblue" d="M651.541,-220.386C631.482,-212.481 601.338,-199.42 577.401,-184 535.012,-156.692 532.352,-139.422 491.401,-110 475.263,-98.4051 455.959,-87.0024 440.977,-78.6426"/>
<polygon fill="midnightblue" stroke="midnightblue" points="442.282,-75.3661 431.832,-73.617 438.91,-81.5007 442.282,-75.3661"/>
</g>
<!-- Node23 -->
<g id="node23" class="node"><title>Node23</title>
<polygon fill="white" stroke="#bfbfbf" points="859.335,-165.5 859.335,-183.5 911.468,-183.5 911.468,-165.5 859.335,-165.5"/>
<text text-anchor="middle" x="885.401" y="-171.5" font-family="Helvetica,sans-Serif" font-size="10.00">stdarg.h</text>
</g>
<!-- Node22&#45;&gt;Node23 -->
<g id="edge36" class="edge"><title>Node22&#45;&gt;Node23</title>
<path fill="none" stroke="midnightblue" d="M705.6,-220.45C744.28,-210.78 808.989,-194.603 849.32,-184.52"/>
<polygon fill="midnightblue" stroke="midnightblue" points="850.412,-187.855 859.265,-182.034 848.715,-181.064 850.412,-187.855"/>
</g>
<!-- Node22&#45;&gt;Node24 -->
<g id="edge39" class="edge"><title>Node22&#45;&gt;Node24</title>
<path fill="none" stroke="midnightblue" d="M618.822,-222.828C515.008,-212.039 291.468,-188.809 201.784,-179.489"/>
<polygon fill="midnightblue" stroke="midnightblue" points="202.085,-176.001 191.776,-178.449 201.361,-182.964 202.085,-176.001"/>
</g>
<!-- Node24&#45;&gt;Node7 -->
<g id="edge40" class="edge"><title>Node24&#45;&gt;Node7</title>
<path fill="none" stroke="midnightblue" d="M166.368,-165.397C171.834,-151.669 184.853,-123.972 205.401,-110 246.473,-82.0729 301.642,-71.1401 345.267,-67.0878"/>
<polygon fill="midnightblue" stroke="midnightblue" points="345.562,-70.5754 355.239,-66.2613 344.984,-63.5993 345.562,-70.5754"/>
</g>
<!-- Node24&#45;&gt;Node25 -->
<g id="edge41" class="edge"><title>Node24&#45;&gt;Node25</title>
<path fill="none" stroke="midnightblue" d="M147.302,-165.45C130.181,-156.89 102.86,-143.229 82.8251,-133.212"/>
<polygon fill="midnightblue" stroke="midnightblue" points="84.1615,-129.967 73.652,-128.625 81.031,-136.228 84.1615,-129.967"/>
</g>
<!-- Node25&#45;&gt;Node7 -->
<g id="edge42" class="edge"><title>Node25&#45;&gt;Node7</title>
<path fill="none" stroke="midnightblue" d="M80.1852,-112.776C84.5562,-111.776 89.1085,-110.801 93.4014,-110 179.499,-93.9423 279.51,-81.0396 345.167,-73.3439"/>
<polygon fill="midnightblue" stroke="midnightblue" points="345.873,-76.7854 355.402,-72.1538 345.065,-69.8323 345.873,-76.7854"/>
</g>
<!-- Node25&#45;&gt;Node8 -->
<g id="edge44" class="edge"><title>Node25&#45;&gt;Node8</title>
<path fill="none" stroke="midnightblue" d="M74.0123,-110.382C112.262,-91.6901 206.783,-45.4989 252.634,-23.0923"/>
<polygon fill="midnightblue" stroke="midnightblue" points="254.451,-26.0997 261.899,-18.5644 251.378,-19.8105 254.451,-26.0997"/>
</g>
<!-- Node25&#45;&gt;Node15 -->
<g id="edge43" class="edge"><title>Node25&#45;&gt;Node15</title>
<path fill="none" stroke="midnightblue" d="M53.0264,-110.219C49.1408,-102.864 43.338,-91.8801 38.4559,-82.639"/>
<polygon fill="midnightblue" stroke="midnightblue" points="41.4199,-80.7566 33.654,-73.5496 35.2305,-84.0264 41.4199,-80.7566"/>
</g>
<!-- Node26&#45;&gt;Node3 -->
<g id="edge47" class="edge"><title>Node26&#45;&gt;Node3</title>
<path fill="none" stroke="midnightblue" d="M449.661,-169.252C526.999,-159.376 718.3,-134.944 796.87,-124.91"/>
<polygon fill="midnightblue" stroke="midnightblue" points="797.709,-128.331 807.185,-123.593 796.822,-121.388 797.709,-128.331"/>
</g>
<!-- Node26&#45;&gt;Node7 -->
<g id="edge48" class="edge"><title>Node26&#45;&gt;Node7</title>
<path fill="none" stroke="midnightblue" d="M416.401,-165.382C416.401,-148.182 416.401,-107.698 416.401,-83.8866"/>
<polygon fill="midnightblue" stroke="midnightblue" points="419.901,-83.7117 416.401,-73.7118 412.901,-83.7118 419.901,-83.7117"/>
</g>
<!-- Node27&#45;&gt;Node2 -->
<g id="edge57" class="edge"><title>Node27&#45;&gt;Node2</title>
<path fill="none" stroke="midnightblue" d="M941.937,-221.075C899.1,-211.846 825.784,-196.05 777.708,-185.692"/>
<polygon fill="midnightblue" stroke="midnightblue" points="778.366,-182.254 767.853,-183.569 776.891,-189.097 778.366,-182.254"/>
</g>
<!-- Node27&#45;&gt;Node3 -->
<g id="edge56" class="edge"><title>Node27&#45;&gt;Node3</title>
<path fill="none" stroke="midnightblue" d="M994.961,-220.349C1018.93,-208.7 1055.64,-186.334 1038.4,-165 1017.07,-138.596 918.78,-127.129 865.675,-122.789"/>
<polygon fill="midnightblue" stroke="midnightblue" points="865.934,-119.298 855.693,-122.014 865.392,-126.277 865.934,-119.298"/>
</g>
<!-- Node27&#45;&gt;Node7 -->
<g id="edge59" class="edge"><title>Node27&#45;&gt;Node7</title>
<path fill="none" stroke="midnightblue" d="M1001.7,-220.474C1031.19,-209.771 1073.71,-189.323 1055.4,-165 988.245,-75.7762 639.609,-65.1367 487.502,-64.8273"/>
<polygon fill="midnightblue" stroke="midnightblue" points="487.336,-61.3273 477.334,-64.8215 487.332,-68.3273 487.336,-61.3273"/>
</g>
<!-- Node27&#45;&gt;Node10 -->
<g id="edge58" class="edge"><title>Node27&#45;&gt;Node10</title>
<path fill="none" stroke="midnightblue" d="M976.87,-220.219C977.269,-213.177 977.856,-202.808 978.364,-193.828"/>
<polygon fill="midnightblue" stroke="midnightblue" points="981.875,-193.731 978.946,-183.55 974.886,-193.336 981.875,-193.731"/>
</g>
<!-- Node28&#45;&gt;Node7 -->
<g id="edge61" class="edge"><title>Node28&#45;&gt;Node7</title>
<path fill="none" stroke="midnightblue" d="M1243.87,-330.376C1256.98,-313.087 1285.4,-270.921 1285.4,-230.5 1285.4,-230.5 1285.4,-230.5 1285.4,-173.5 1285.4,-93.328 695.399,-71.9504 487.695,-66.9086"/>
<polygon fill="midnightblue" stroke="midnightblue" points="487.588,-63.4052 477.508,-66.667 487.422,-70.4032 487.588,-63.4052"/>
</g>
<!-- Node29&#45;&gt;Node7 -->
<g id="edge64" class="edge"><title>Node29&#45;&gt;Node7</title>
<path fill="none" stroke="midnightblue" d="M1055.75,-220.416C1066.01,-208.087 1082.33,-184.013 1072.4,-165 1052.6,-127.078 1033.7,-124.371 993.401,-110 902.093,-77.4365 620.582,-68.6802 487.5,-66.3424"/>
<polygon fill="midnightblue" stroke="midnightblue" points="487.465,-62.8414 477.407,-66.1725 487.347,-69.8404 487.465,-62.8414"/>
</g>
<!-- Node29&#45;&gt;Node23 -->
<g id="edge63" class="edge"><title>Node29&#45;&gt;Node23</title>
<path fill="none" stroke="midnightblue" d="M1028.74,-222.107C1001.81,-213.349 953.012,-197.484 919.917,-186.723"/>
<polygon fill="midnightblue" stroke="midnightblue" points="920.784,-183.324 910.191,-183.561 918.619,-189.981 920.784,-183.324"/>
</g>
<!-- Node31&#45;&gt;Node6 -->
<g id="edge71" class="edge"><title>Node31&#45;&gt;Node6</title>
<path fill="none" stroke="midnightblue" d="M676.707,-495.45C664.722,-487.201 645.856,-474.216 631.478,-464.319"/>
<polygon fill="midnightblue" stroke="midnightblue" points="633.428,-461.412 623.206,-458.625 629.459,-467.178 633.428,-461.412"/>
</g>
<!-- Node31&#45;&gt;Node30 -->
<g id="edge72" class="edge"><title>Node31&#45;&gt;Node30</title>
<path fill="none" stroke="midnightblue" d="M699.337,-495.45C710.438,-487.279 727.851,-474.46 741.247,-464.6"/>
<polygon fill="midnightblue" stroke="midnightblue" points="743.385,-467.372 749.363,-458.625 739.235,-461.735 743.385,-467.372"/>
</g>
</g>
</svg>
