<?xml version="1.0" encoding="UTF-8" standalone="no"?>
<!DOCTYPE svg PUBLIC "-//W3C//DTD SVG 1.1//EN"
 "http://www.w3.org/Graphics/SVG/1.1/DTD/svg11.dtd">
<!-- Generated by graphviz version 2.38.0 (20140413.2041)
 -->
<!-- Title: libraries/AP_HAL_Linux/UARTDriver.h Pages: 1 -->
<svg width="570pt" height="232pt"
 viewBox="0.00 0.00 569.61 232.00" xmlns="http://www.w3.org/2000/svg" xmlns:xlink="http://www.w3.org/1999/xlink">
<g id="graph0" class="graph" transform="scale(1 1) rotate(0) translate(4 228)">
<title>libraries/AP_HAL_Linux/UARTDriver.h</title>
<polygon fill="white" stroke="none" points="-4,4 -4,-228 565.61,-228 565.61,4 -4,4"/>
<!-- Node1 -->
<g id="node1" class="node"><title>Node1</title>
<polygon fill="#bfbfbf" stroke="black" points="262,-195.5 262,-223.5 383.61,-223.5 383.61,-195.5 262,-195.5"/>
<text text-anchor="start" x="270" y="-211.5" font-family="Helvetica,sans-Serif" font-size="10.00">libraries/AP_HAL_Linux</text>
<text text-anchor="middle" x="322.805" y="-201.5" font-family="Helvetica,sans-Serif" font-size="10.00">/UARTDriver.h</text>
</g>
<!-- Node2 -->
<g id="node2" class="node"><title>Node2</title>
<g id="a_node2"><a xlink:href="$AP__HAL__Linux__Private_8h.html" xlink:title="libraries/AP_HAL_Linux\l/AP_HAL_Linux_Private.h">
<polygon fill="white" stroke="black" points="139.993,-65.5 139.993,-93.5 271.618,-93.5 271.618,-65.5 139.993,-65.5"/>
<text text-anchor="start" x="147.993" y="-81.5" font-family="Helvetica,sans-Serif" font-size="10.00">libraries/AP_HAL_Linux</text>
<text text-anchor="middle" x="205.805" y="-71.5" font-family="Helvetica,sans-Serif" font-size="10.00">/AP_HAL_Linux_Private.h</text>
</a>
</g>
</g>
<!-- Node1&#45;&gt;Node2 -->
<g id="edge1" class="edge"><title>Node1&#45;&gt;Node2</title>
<path fill="none" stroke="midnightblue" d="M290.934,-190.022C278.127,-181.615 263.82,-170.886 252.805,-159 234.126,-138.844 219.229,-110.081 211.533,-93.5483"/>
<polygon fill="midnightblue" stroke="midnightblue" points="289.182,-193.055 299.501,-195.456 292.932,-187.144 289.182,-193.055"/>
</g>
<!-- Node4 -->
<g id="node4" class="node"><title>Node4</title>
<g id="a_node4"><a xlink:href="$SPIUARTDriver_8h.html" xlink:title="libraries/AP_HAL_Linux\l/SPIUARTDriver.h">
<polygon fill="white" stroke="black" points="262,-130.5 262,-158.5 383.61,-158.5 383.61,-130.5 262,-130.5"/>
<text text-anchor="start" x="270" y="-146.5" font-family="Helvetica,sans-Serif" font-size="10.00">libraries/AP_HAL_Linux</text>
<text text-anchor="middle" x="322.805" y="-136.5" font-family="Helvetica,sans-Serif" font-size="10.00">/SPIUARTDriver.h</text>
</a>
</g>
</g>
<!-- Node1&#45;&gt;Node4 -->
<g id="edge3" class="edge"><title>Node1&#45;&gt;Node4</title>
<path fill="none" stroke="midnightblue" d="M322.805,-185.164C322.805,-176.169 322.805,-166.221 322.805,-158.537"/>
<polygon fill="midnightblue" stroke="midnightblue" points="319.305,-185.446 322.805,-195.446 326.305,-185.446 319.305,-185.446"/>
</g>
<!-- Node5 -->
<g id="node5" class="node"><title>Node5</title>
<g id="a_node5"><a xlink:href="$AP__HAL__Linux_2Scheduler_8cpp.html" xlink:title="libraries/AP_HAL_Linux\l/Scheduler.cpp">
<polygon fill="white" stroke="black" points="290,-65.5 290,-93.5 411.61,-93.5 411.61,-65.5 290,-65.5"/>
<text text-anchor="start" x="298" y="-81.5" font-family="Helvetica,sans-Serif" font-size="10.00">libraries/AP_HAL_Linux</text>
<text text-anchor="middle" x="350.805" y="-71.5" font-family="Helvetica,sans-Serif" font-size="10.00">/Scheduler.cpp</text>
</a>
</g>
</g>
<!-- Node1&#45;&gt;Node5 -->
<g id="edge11" class="edge"><title>Node1&#45;&gt;Node5</title>
<path fill="none" stroke="midnightblue" d="M361.862,-190.243C374.034,-182.449 386.033,-172.083 392.805,-159 404.742,-135.939 382.924,-109.339 366.513,-93.7756"/>
<polygon fill="midnightblue" stroke="midnightblue" points="359.862,-187.359 353.04,-195.466 363.428,-193.383 359.862,-187.359"/>
</g>
<!-- Node7 -->
<g id="node7" class="node"><title>Node7</title>
<g id="a_node7"><a xlink:href="$RPIOUARTDriver_8h.html" xlink:title="libraries/AP_HAL_Linux\l/RPIOUARTDriver.h">
<polygon fill="white" stroke="black" points="84,-130.5 84,-158.5 205.61,-158.5 205.61,-130.5 84,-130.5"/>
<text text-anchor="start" x="92" y="-146.5" font-family="Helvetica,sans-Serif" font-size="10.00">libraries/AP_HAL_Linux</text>
<text text-anchor="middle" x="144.805" y="-136.5" font-family="Helvetica,sans-Serif" font-size="10.00">/RPIOUARTDriver.h</text>
</a>
</g>
</g>
<!-- Node1&#45;&gt;Node7 -->
<g id="edge7" class="edge"><title>Node1&#45;&gt;Node7</title>
<path fill="none" stroke="midnightblue" d="M276.251,-192.023C246.73,-181.575 209.074,-168.247 181.64,-158.537"/>
<polygon fill="midnightblue" stroke="midnightblue" points="275.329,-195.409 285.923,-195.446 277.664,-188.81 275.329,-195.409"/>
</g>
<!-- Node9 -->
<g id="node9" class="node"><title>Node9</title>
<g id="a_node9"><a xlink:href="$Linux_2UARTDriver_8cpp.html" xlink:title="libraries/AP_HAL_Linux\l/UARTDriver.cpp">
<polygon fill="white" stroke="black" points="440,-130.5 440,-158.5 561.61,-158.5 561.61,-130.5 440,-130.5"/>
<text text-anchor="start" x="448" y="-146.5" font-family="Helvetica,sans-Serif" font-size="10.00">libraries/AP_HAL_Linux</text>
<text text-anchor="middle" x="500.805" y="-136.5" font-family="Helvetica,sans-Serif" font-size="10.00">/UARTDriver.cpp</text>
</a>
</g>
</g>
<!-- Node1&#45;&gt;Node9 -->
<g id="edge12" class="edge"><title>Node1&#45;&gt;Node9</title>
<path fill="none" stroke="midnightblue" d="M369.36,-192.023C398.88,-181.575 436.536,-168.247 463.971,-158.537"/>
<polygon fill="midnightblue" stroke="midnightblue" points="367.946,-188.81 359.687,-195.446 370.282,-195.409 367.946,-188.81"/>
</g>
<!-- Node3 -->
<g id="node3" class="node"><title>Node3</title>
<g id="a_node3"><a xlink:href="$HAL__Linux__Class_8cpp.html" xlink:title="libraries/AP_HAL_Linux\l/HAL_Linux_Class.cpp">
<polygon fill="white" stroke="black" points="145,-0.5 145,-28.5 266.61,-28.5 266.61,-0.5 145,-0.5"/>
<text text-anchor="start" x="153" y="-16.5" font-family="Helvetica,sans-Serif" font-size="10.00">libraries/AP_HAL_Linux</text>
<text text-anchor="middle" x="205.805" y="-6.5" font-family="Helvetica,sans-Serif" font-size="10.00">/HAL_Linux_Class.cpp</text>
</a>
</g>
</g>
<!-- Node2&#45;&gt;Node3 -->
<g id="edge2" class="edge"><title>Node2&#45;&gt;Node3</title>
<path fill="none" stroke="midnightblue" d="M205.805,-55.1641C205.805,-46.1693 205.805,-36.2205 205.805,-28.5369"/>
<polygon fill="midnightblue" stroke="midnightblue" points="202.305,-55.4463 205.805,-65.4464 209.305,-55.4464 202.305,-55.4463"/>
</g>
<!-- Node4&#45;&gt;Node2 -->
<g id="edge4" class="edge"><title>Node4&#45;&gt;Node2</title>
<path fill="none" stroke="midnightblue" d="M289.644,-125.644C270.661,-115.422 247.266,-102.825 230.017,-93.5369"/>
<polygon fill="midnightblue" stroke="midnightblue" points="288.099,-128.787 298.563,-130.446 291.417,-122.624 288.099,-128.787"/>
</g>
<!-- Node4&#45;&gt;Node5 -->
<g id="edge5" class="edge"><title>Node4&#45;&gt;Node5</title>
<path fill="none" stroke="midnightblue" d="M332.783,-121.051C336.882,-111.828 341.483,-101.474 345.011,-93.5369"/>
<polygon fill="midnightblue" stroke="midnightblue" points="329.47,-119.887 328.607,-130.446 335.867,-122.73 329.47,-119.887"/>
</g>
<!-- Node6 -->
<g id="node6" class="node"><title>Node6</title>
<g id="a_node6"><a xlink:href="$SPIUARTDriver_8cpp.html" xlink:title="libraries/AP_HAL_Linux\l/SPIUARTDriver.cpp">
<polygon fill="white" stroke="black" points="430,-65.5 430,-93.5 551.61,-93.5 551.61,-65.5 430,-65.5"/>
<text text-anchor="start" x="438" y="-81.5" font-family="Helvetica,sans-Serif" font-size="10.00">libraries/AP_HAL_Linux</text>
<text text-anchor="middle" x="490.805" y="-71.5" font-family="Helvetica,sans-Serif" font-size="10.00">/SPIUARTDriver.cpp</text>
</a>
</g>
</g>
<!-- Node4&#45;&gt;Node6 -->
<g id="edge6" class="edge"><title>Node4&#45;&gt;Node6</title>
<path fill="none" stroke="midnightblue" d="M367.108,-126.886C394.915,-116.459 430.259,-103.205 456.04,-93.5369"/>
<polygon fill="midnightblue" stroke="midnightblue" points="365.749,-123.658 357.615,-130.446 368.207,-130.212 365.749,-123.658"/>
</g>
<!-- Node7&#45;&gt;Node2 -->
<g id="edge8" class="edge"><title>Node7&#45;&gt;Node2</title>
<path fill="none" stroke="midnightblue" d="M164.567,-123.091C173.966,-113.383 184.925,-102.065 193.182,-93.5369"/>
<polygon fill="midnightblue" stroke="midnightblue" points="161.886,-120.827 157.444,-130.446 166.915,-125.697 161.886,-120.827"/>
</g>
<!-- Node7&#45;&gt;Node5 -->
<g id="edge10" class="edge"><title>Node7&#45;&gt;Node5</title>
<path fill="none" stroke="midnightblue" d="M197.351,-127.43C231.708,-116.923 276.012,-103.374 308.177,-93.5369"/>
<polygon fill="midnightblue" stroke="midnightblue" points="196.028,-124.175 187.489,-130.446 198.075,-130.869 196.028,-124.175"/>
</g>
<!-- Node8 -->
<g id="node8" class="node"><title>Node8</title>
<g id="a_node8"><a xlink:href="$RPIOUARTDriver_8cpp.html" xlink:title="libraries/AP_HAL_Linux\l/RPIOUARTDriver.cpp">
<polygon fill="white" stroke="black" points="0,-65.5 0,-93.5 121.61,-93.5 121.61,-65.5 0,-65.5"/>
<text text-anchor="start" x="8" y="-81.5" font-family="Helvetica,sans-Serif" font-size="10.00">libraries/AP_HAL_Linux</text>
<text text-anchor="middle" x="60.8052" y="-71.5" font-family="Helvetica,sans-Serif" font-size="10.00">/RPIOUARTDriver.cpp</text>
</a>
</g>
</g>
<!-- Node7&#45;&gt;Node8 -->
<g id="edge9" class="edge"><title>Node7&#45;&gt;Node8</title>
<path fill="none" stroke="midnightblue" d="M119.12,-124.236C105.851,-114.284 90.0087,-102.403 78.1877,-93.5369"/>
<polygon fill="midnightblue" stroke="midnightblue" points="117.3,-127.246 127.4,-130.446 121.5,-121.646 117.3,-127.246"/>
</g>
</g>
</svg>
