<?xml version="1.0" encoding="UTF-8" standalone="no"?>
<!DOCTYPE svg PUBLIC "-//W3C//DTD SVG 1.1//EN"
 "http://www.w3.org/Graphics/SVG/1.1/DTD/svg11.dtd">
<!-- Generated by graphviz version 2.38.0 (20140413.2041)
 -->
<!-- Title: libraries/AP_HAL_Linux/Storage.h Pages: 1 -->
<svg width="560pt" height="167pt"
 viewBox="0.00 0.00 559.62 167.00" xmlns="http://www.w3.org/2000/svg" xmlns:xlink="http://www.w3.org/1999/xlink">
<g id="graph0" class="graph" transform="scale(1 1) rotate(0) translate(4 163)">
<title>libraries/AP_HAL_Linux/Storage.h</title>
<polygon fill="white" stroke="none" points="-4,4 -4,-163 555.618,-163 555.618,4 -4,4"/>
<!-- Node1 -->
<g id="node1" class="node"><title>Node1</title>
<polygon fill="#bfbfbf" stroke="black" points="220.007,-130.5 220.007,-158.5 341.618,-158.5 341.618,-130.5 220.007,-130.5"/>
<text text-anchor="start" x="228.007" y="-146.5" font-family="Helvetica,sans-Serif" font-size="10.00">libraries/AP_HAL_Linux</text>
<text text-anchor="middle" x="280.812" y="-136.5" font-family="Helvetica,sans-Serif" font-size="10.00">/Storage.h</text>
</g>
<!-- Node2 -->
<g id="node2" class="node"><title>Node2</title>
<g id="a_node2"><a xlink:href="$AP__HAL__Linux__Private_8h.html" xlink:title="libraries/AP_HAL_Linux\l/AP_HAL_Linux_Private.h">
<polygon fill="white" stroke="black" points="0,-65.5 0,-93.5 131.625,-93.5 131.625,-65.5 0,-65.5"/>
<text text-anchor="start" x="8" y="-81.5" font-family="Helvetica,sans-Serif" font-size="10.00">libraries/AP_HAL_Linux</text>
<text text-anchor="middle" x="65.8125" y="-71.5" font-family="Helvetica,sans-Serif" font-size="10.00">/AP_HAL_Linux_Private.h</text>
</a>
</g>
</g>
<!-- Node1&#45;&gt;Node2 -->
<g id="edge1" class="edge"><title>Node1&#45;&gt;Node2</title>
<path fill="none" stroke="midnightblue" d="M226.432,-127.565C190.51,-117.039 144.017,-103.416 110.304,-93.5369"/>
<polygon fill="midnightblue" stroke="midnightblue" points="225.684,-130.993 236.264,-130.446 227.652,-124.276 225.684,-130.993"/>
</g>
<!-- Node4 -->
<g id="node4" class="node"><title>Node4</title>
<g id="a_node4"><a xlink:href="$AP__HAL__Linux_2Scheduler_8cpp.html" xlink:title="libraries/AP_HAL_Linux\l/Scheduler.cpp">
<polygon fill="white" stroke="black" points="150.007,-65.5 150.007,-93.5 271.618,-93.5 271.618,-65.5 150.007,-65.5"/>
<text text-anchor="start" x="158.007" y="-81.5" font-family="Helvetica,sans-Serif" font-size="10.00">libraries/AP_HAL_Linux</text>
<text text-anchor="middle" x="210.812" y="-71.5" font-family="Helvetica,sans-Serif" font-size="10.00">/Scheduler.cpp</text>
</a>
</g>
</g>
<!-- Node1&#45;&gt;Node4 -->
<g id="edge3" class="edge"><title>Node1&#45;&gt;Node4</title>
<path fill="none" stroke="midnightblue" d="M258.774,-123.665C247.849,-113.833 234.961,-102.234 225.298,-93.5369"/>
<polygon fill="midnightblue" stroke="midnightblue" points="256.534,-126.358 266.308,-130.446 261.217,-121.155 256.534,-126.358"/>
</g>
<!-- Node5 -->
<g id="node5" class="node"><title>Node5</title>
<g id="a_node5"><a xlink:href="$Linux_2Storage_8cpp.html" xlink:title="libraries/AP_HAL_Linux\l/Storage.cpp">
<polygon fill="white" stroke="black" points="290.007,-65.5 290.007,-93.5 411.618,-93.5 411.618,-65.5 290.007,-65.5"/>
<text text-anchor="start" x="298.007" y="-81.5" font-family="Helvetica,sans-Serif" font-size="10.00">libraries/AP_HAL_Linux</text>
<text text-anchor="middle" x="350.812" y="-71.5" font-family="Helvetica,sans-Serif" font-size="10.00">/Storage.cpp</text>
</a>
</g>
</g>
<!-- Node1&#45;&gt;Node5 -->
<g id="edge4" class="edge"><title>Node1&#45;&gt;Node5</title>
<path fill="none" stroke="midnightblue" d="M302.851,-123.665C313.776,-113.833 326.664,-102.234 336.327,-93.5369"/>
<polygon fill="midnightblue" stroke="midnightblue" points="300.408,-121.155 295.317,-130.446 305.091,-126.358 300.408,-121.155"/>
</g>
<!-- Node6 -->
<g id="node6" class="node"><title>Node6</title>
<g id="a_node6"><a xlink:href="$Storage__FRAM_8cpp.html" xlink:title="libraries/AP_HAL_Linux\l/Storage_FRAM.cpp">
<polygon fill="white" stroke="black" points="430.007,-65.5 430.007,-93.5 551.618,-93.5 551.618,-65.5 430.007,-65.5"/>
<text text-anchor="start" x="438.007" y="-81.5" font-family="Helvetica,sans-Serif" font-size="10.00">libraries/AP_HAL_Linux</text>
<text text-anchor="middle" x="490.812" y="-71.5" font-family="Helvetica,sans-Serif" font-size="10.00">/Storage_FRAM.cpp</text>
</a>
</g>
</g>
<!-- Node1&#45;&gt;Node6 -->
<g id="edge5" class="edge"><title>Node1&#45;&gt;Node6</title>
<path fill="none" stroke="midnightblue" d="M333.928,-127.565C369.015,-117.039 414.426,-103.416 447.356,-93.5369"/>
<polygon fill="midnightblue" stroke="midnightblue" points="332.897,-124.22 324.325,-130.446 334.909,-130.925 332.897,-124.22"/>
</g>
<!-- Node3 -->
<g id="node3" class="node"><title>Node3</title>
<g id="a_node3"><a xlink:href="$HAL__Linux__Class_8cpp.html" xlink:title="libraries/AP_HAL_Linux\l/HAL_Linux_Class.cpp">
<polygon fill="white" stroke="black" points="5.00732,-0.5 5.00732,-28.5 126.618,-28.5 126.618,-0.5 5.00732,-0.5"/>
<text text-anchor="start" x="13.0073" y="-16.5" font-family="Helvetica,sans-Serif" font-size="10.00">libraries/AP_HAL_Linux</text>
<text text-anchor="middle" x="65.8125" y="-6.5" font-family="Helvetica,sans-Serif" font-size="10.00">/HAL_Linux_Class.cpp</text>
</a>
</g>
</g>
<!-- Node2&#45;&gt;Node3 -->
<g id="edge2" class="edge"><title>Node2&#45;&gt;Node3</title>
<path fill="none" stroke="midnightblue" d="M65.8125,-55.1641C65.8125,-46.1693 65.8125,-36.2205 65.8125,-28.5369"/>
<polygon fill="midnightblue" stroke="midnightblue" points="62.3126,-55.4463 65.8125,-65.4464 69.3126,-55.4464 62.3126,-55.4463"/>
</g>
</g>
</svg>
