<?xml version="1.0" encoding="UTF-8" standalone="no"?>
<!DOCTYPE svg PUBLIC "-//W3C//DTD SVG 1.1//EN"
 "http://www.w3.org/Graphics/SVG/1.1/DTD/svg11.dtd">
<!-- Generated by graphviz version 2.38.0 (20140413.2041)
 -->
<!-- Title: libraries/AP_HAL_Linux/Util.h Pages: 1 -->
<svg width="1159pt" height="297pt"
 viewBox="0.00 0.00 1159.28 297.00" xmlns="http://www.w3.org/2000/svg" xmlns:xlink="http://www.w3.org/1999/xlink">
<g id="graph0" class="graph" transform="scale(1 1) rotate(0) translate(4 293)">
<title>libraries/AP_HAL_Linux/Util.h</title>
<polygon fill="white" stroke="none" points="-4,4 -4,-293 1155.28,-293 1155.28,4 -4,4"/>
<!-- Node1 -->
<g id="node1" class="node"><title>Node1</title>
<polygon fill="#bfbfbf" stroke="black" points="547,-260.5 547,-288.5 668.61,-288.5 668.61,-260.5 547,-260.5"/>
<text text-anchor="start" x="555" y="-276.5" font-family="Helvetica,sans-Serif" font-size="10.00">libraries/AP_HAL_Linux</text>
<text text-anchor="middle" x="607.805" y="-266.5" font-family="Helvetica,sans-Serif" font-size="10.00">/Util.h</text>
</g>
<!-- Node2 -->
<g id="node2" class="node"><title>Node2</title>
<g id="a_node2"><a xlink:href="$PWM__Sysfs_8h.html" xlink:title="libraries/AP_HAL_Linux\l/PWM_Sysfs.h">
<polygon fill="white" stroke="black" points="140,-195.5 140,-223.5 261.61,-223.5 261.61,-195.5 140,-195.5"/>
<text text-anchor="start" x="148" y="-211.5" font-family="Helvetica,sans-Serif" font-size="10.00">libraries/AP_HAL_Linux</text>
<text text-anchor="middle" x="200.805" y="-201.5" font-family="Helvetica,sans-Serif" font-size="10.00">/PWM_Sysfs.h</text>
</a>
</g>
</g>
<!-- Node1&#45;&gt;Node2 -->
<g id="edge1" class="edge"><title>Node1&#45;&gt;Node2</title>
<path fill="none" stroke="midnightblue" d="M536.766,-263.539C469.477,-253.955 365.642,-238.779 275.805,-224 271.236,-223.248 266.514,-222.45 261.767,-221.631"/>
<polygon fill="midnightblue" stroke="midnightblue" points="536.44,-267.028 546.833,-264.97 537.425,-260.098 536.44,-267.028"/>
</g>
<!-- Node4 -->
<g id="node4" class="node"><title>Node4</title>
<g id="a_node4"><a xlink:href="$AP__HAL__Linux__Private_8h.html" xlink:title="libraries/AP_HAL_Linux\l/AP_HAL_Linux_Private.h">
<polygon fill="white" stroke="black" points="223.993,-65.5 223.993,-93.5 355.618,-93.5 355.618,-65.5 223.993,-65.5"/>
<text text-anchor="start" x="231.993" y="-81.5" font-family="Helvetica,sans-Serif" font-size="10.00">libraries/AP_HAL_Linux</text>
<text text-anchor="middle" x="289.805" y="-71.5" font-family="Helvetica,sans-Serif" font-size="10.00">/AP_HAL_Linux_Private.h</text>
</a>
</g>
</g>
<!-- Node1&#45;&gt;Node4 -->
<g id="edge7" class="edge"><title>Node1&#45;&gt;Node4</title>
<path fill="none" stroke="midnightblue" d="M536.902,-269.535C464.18,-264.012 357.61,-251.404 327.805,-224 290.052,-189.288 288.031,-121.83 289.003,-93.5117"/>
<polygon fill="midnightblue" stroke="midnightblue" points="536.698,-273.029 546.927,-270.268 537.209,-266.048 536.698,-273.029"/>
</g>
<!-- Node8 -->
<g id="node8" class="node"><title>Node8</title>
<g id="a_node8"><a xlink:href="$Util__RPI_8h.html" xlink:title="libraries/AP_HAL_Linux\l/Util_RPI.h">
<polygon fill="white" stroke="black" points="337,-195.5 337,-223.5 458.61,-223.5 458.61,-195.5 337,-195.5"/>
<text text-anchor="start" x="345" y="-211.5" font-family="Helvetica,sans-Serif" font-size="10.00">libraries/AP_HAL_Linux</text>
<text text-anchor="middle" x="397.805" y="-201.5" font-family="Helvetica,sans-Serif" font-size="10.00">/Util_RPI.h</text>
</a>
</g>
</g>
<!-- Node1&#45;&gt;Node8 -->
<g id="edge8" class="edge"><title>Node1&#45;&gt;Node8</title>
<path fill="none" stroke="midnightblue" d="M554.689,-257.565C519.603,-247.039 474.191,-233.416 441.262,-223.537"/>
<polygon fill="midnightblue" stroke="midnightblue" points="553.709,-260.925 564.293,-260.446 555.721,-254.22 553.709,-260.925"/>
</g>
<!-- Node12 -->
<g id="node12" class="node"><title>Node12</title>
<g id="a_node12"><a xlink:href="$AP__HAL__Linux_2I2CDriver_8cpp.html" xlink:title="libraries/AP_HAL_Linux\l/I2CDriver.cpp">
<polygon fill="white" stroke="black" points="477,-195.5 477,-223.5 598.61,-223.5 598.61,-195.5 477,-195.5"/>
<text text-anchor="start" x="485" y="-211.5" font-family="Helvetica,sans-Serif" font-size="10.00">libraries/AP_HAL_Linux</text>
<text text-anchor="middle" x="537.805" y="-201.5" font-family="Helvetica,sans-Serif" font-size="10.00">/I2CDriver.cpp</text>
</a>
</g>
</g>
<!-- Node1&#45;&gt;Node12 -->
<g id="edge13" class="edge"><title>Node1&#45;&gt;Node12</title>
<path fill="none" stroke="midnightblue" d="M585.767,-253.665C574.841,-243.833 561.954,-232.234 552.291,-223.537"/>
<polygon fill="midnightblue" stroke="midnightblue" points="583.527,-256.358 593.301,-260.446 588.21,-251.155 583.527,-256.358"/>
</g>
<!-- Node13 -->
<g id="node13" class="node"><title>Node13</title>
<g id="a_node13"><a xlink:href="$Perf_8cpp.html" xlink:title="libraries/AP_HAL_Linux\l/Perf.cpp">
<polygon fill="white" stroke="black" points="617,-195.5 617,-223.5 738.61,-223.5 738.61,-195.5 617,-195.5"/>
<text text-anchor="start" x="625" y="-211.5" font-family="Helvetica,sans-Serif" font-size="10.00">libraries/AP_HAL_Linux</text>
<text text-anchor="middle" x="677.805" y="-201.5" font-family="Helvetica,sans-Serif" font-size="10.00">/Perf.cpp</text>
</a>
</g>
</g>
<!-- Node1&#45;&gt;Node13 -->
<g id="edge14" class="edge"><title>Node1&#45;&gt;Node13</title>
<path fill="none" stroke="midnightblue" d="M629.844,-253.665C640.769,-243.833 653.657,-232.234 663.32,-223.537"/>
<polygon fill="midnightblue" stroke="midnightblue" points="627.401,-251.155 622.309,-260.446 632.084,-256.358 627.401,-251.155"/>
</g>
<!-- Node14 -->
<g id="node14" class="node"><title>Node14</title>
<g id="a_node14"><a xlink:href="$AP__HAL__Linux_2Scheduler_8cpp.html" xlink:title="libraries/AP_HAL_Linux\l/Scheduler.cpp">
<polygon fill="white" stroke="black" points="757,-195.5 757,-223.5 878.61,-223.5 878.61,-195.5 757,-195.5"/>
<text text-anchor="start" x="765" y="-211.5" font-family="Helvetica,sans-Serif" font-size="10.00">libraries/AP_HAL_Linux</text>
<text text-anchor="middle" x="817.805" y="-201.5" font-family="Helvetica,sans-Serif" font-size="10.00">/Scheduler.cpp</text>
</a>
</g>
</g>
<!-- Node1&#45;&gt;Node14 -->
<g id="edge15" class="edge"><title>Node1&#45;&gt;Node14</title>
<path fill="none" stroke="midnightblue" d="M660.921,-257.565C696.008,-247.039 741.419,-233.416 774.349,-223.537"/>
<polygon fill="midnightblue" stroke="midnightblue" points="659.89,-254.22 651.317,-260.446 661.901,-260.925 659.89,-254.22"/>
</g>
<!-- Node15 -->
<g id="node15" class="node"><title>Node15</title>
<g id="a_node15"><a xlink:href="$Linux_2Util_8cpp.html" xlink:title="libraries/AP_HAL_Linux\l/Util.cpp">
<polygon fill="white" stroke="black" points="897,-195.5 897,-223.5 1018.61,-223.5 1018.61,-195.5 897,-195.5"/>
<text text-anchor="start" x="905" y="-211.5" font-family="Helvetica,sans-Serif" font-size="10.00">libraries/AP_HAL_Linux</text>
<text text-anchor="middle" x="957.805" y="-201.5" font-family="Helvetica,sans-Serif" font-size="10.00">/Util.cpp</text>
</a>
</g>
</g>
<!-- Node1&#45;&gt;Node15 -->
<g id="edge16" class="edge"><title>Node1&#45;&gt;Node15</title>
<path fill="none" stroke="midnightblue" d="M678.682,-261.283C735.32,-251.445 816.711,-237.139 887.805,-224 890.726,-223.46 893.715,-222.903 896.732,-222.336"/>
<polygon fill="midnightblue" stroke="midnightblue" points="678.01,-257.848 668.756,-263.006 679.207,-264.744 678.01,-257.848"/>
</g>
<!-- Node16 -->
<g id="node16" class="node"><title>Node16</title>
<g id="a_node16"><a xlink:href="$ToneAlarm__Linux_8cpp.html" xlink:title="libraries/AP_Notify\l/ToneAlarm_Linux.cpp">
<polygon fill="white" stroke="black" points="1036.33,-195.5 1036.33,-223.5 1151.28,-223.5 1151.28,-195.5 1036.33,-195.5"/>
<text text-anchor="start" x="1044.33" y="-211.5" font-family="Helvetica,sans-Serif" font-size="10.00">libraries/AP_Notify</text>
<text text-anchor="middle" x="1093.81" y="-201.5" font-family="Helvetica,sans-Serif" font-size="10.00">/ToneAlarm_Linux.cpp</text>
</a>
</g>
</g>
<!-- Node1&#45;&gt;Node16 -->
<g id="edge17" class="edge"><title>Node1&#45;&gt;Node16</title>
<path fill="none" stroke="midnightblue" d="M679.053,-266.954C762.805,-258.832 905.855,-243.623 1027.81,-224 1030.58,-223.554 1033.41,-223.073 1036.26,-222.568"/>
<polygon fill="midnightblue" stroke="midnightblue" points="678.507,-263.49 668.889,-267.933 679.178,-270.458 678.507,-263.49"/>
</g>
<!-- Node3 -->
<g id="node3" class="node"><title>Node3</title>
<g id="a_node3"><a xlink:href="$RCOutput__Sysfs_8h.html" xlink:title="libraries/AP_HAL_Linux\l/RCOutput_Sysfs.h">
<polygon fill="white" stroke="black" points="0,-130.5 0,-158.5 121.61,-158.5 121.61,-130.5 0,-130.5"/>
<text text-anchor="start" x="8" y="-146.5" font-family="Helvetica,sans-Serif" font-size="10.00">libraries/AP_HAL_Linux</text>
<text text-anchor="middle" x="60.8052" y="-136.5" font-family="Helvetica,sans-Serif" font-size="10.00">/RCOutput_Sysfs.h</text>
</a>
</g>
</g>
<!-- Node2&#45;&gt;Node3 -->
<g id="edge2" class="edge"><title>Node2&#45;&gt;Node3</title>
<path fill="none" stroke="midnightblue" d="M162.666,-191.337C139.687,-180.997 110.885,-168.036 89.7761,-158.537"/>
<polygon fill="midnightblue" stroke="midnightblue" points="161.242,-194.534 171.797,-195.446 164.114,-188.151 161.242,-194.534"/>
</g>
<!-- Node7 -->
<g id="node7" class="node"><title>Node7</title>
<g id="a_node7"><a xlink:href="$PWM__Sysfs_8cpp.html" xlink:title="libraries/AP_HAL_Linux\l/PWM_Sysfs.cpp">
<polygon fill="white" stroke="black" points="140,-130.5 140,-158.5 261.61,-158.5 261.61,-130.5 140,-130.5"/>
<text text-anchor="start" x="148" y="-146.5" font-family="Helvetica,sans-Serif" font-size="10.00">libraries/AP_HAL_Linux</text>
<text text-anchor="middle" x="200.805" y="-136.5" font-family="Helvetica,sans-Serif" font-size="10.00">/PWM_Sysfs.cpp</text>
</a>
</g>
</g>
<!-- Node2&#45;&gt;Node7 -->
<g id="edge6" class="edge"><title>Node2&#45;&gt;Node7</title>
<path fill="none" stroke="midnightblue" d="M200.805,-185.164C200.805,-176.169 200.805,-166.221 200.805,-158.537"/>
<polygon fill="midnightblue" stroke="midnightblue" points="197.305,-185.446 200.805,-195.446 204.305,-185.446 197.305,-185.446"/>
</g>
<!-- Node3&#45;&gt;Node4 -->
<g id="edge3" class="edge"><title>Node3&#45;&gt;Node4</title>
<path fill="none" stroke="midnightblue" d="M118.237,-127.7C156.564,-117.156 206.354,-103.458 242.417,-93.5369"/>
<polygon fill="midnightblue" stroke="midnightblue" points="116.967,-124.419 108.254,-130.446 118.824,-131.168 116.967,-124.419"/>
</g>
<!-- Node6 -->
<g id="node6" class="node"><title>Node6</title>
<g id="a_node6"><a xlink:href="$RCOutput__Sysfs_8cpp.html" xlink:title="libraries/AP_HAL_Linux\l/RCOutput_Sysfs.cpp">
<polygon fill="white" stroke="black" points="0,-65.5 0,-93.5 121.61,-93.5 121.61,-65.5 0,-65.5"/>
<text text-anchor="start" x="8" y="-81.5" font-family="Helvetica,sans-Serif" font-size="10.00">libraries/AP_HAL_Linux</text>
<text text-anchor="middle" x="60.8052" y="-71.5" font-family="Helvetica,sans-Serif" font-size="10.00">/RCOutput_Sysfs.cpp</text>
</a>
</g>
</g>
<!-- Node3&#45;&gt;Node6 -->
<g id="edge5" class="edge"><title>Node3&#45;&gt;Node6</title>
<path fill="none" stroke="midnightblue" d="M60.8052,-120.164C60.8052,-111.169 60.8052,-101.221 60.8052,-93.5369"/>
<polygon fill="midnightblue" stroke="midnightblue" points="57.3053,-120.446 60.8052,-130.446 64.3053,-120.446 57.3053,-120.446"/>
</g>
<!-- Node5 -->
<g id="node5" class="node"><title>Node5</title>
<g id="a_node5"><a xlink:href="$HAL__Linux__Class_8cpp.html" xlink:title="libraries/AP_HAL_Linux\l/HAL_Linux_Class.cpp">
<polygon fill="white" stroke="black" points="229,-0.5 229,-28.5 350.61,-28.5 350.61,-0.5 229,-0.5"/>
<text text-anchor="start" x="237" y="-16.5" font-family="Helvetica,sans-Serif" font-size="10.00">libraries/AP_HAL_Linux</text>
<text text-anchor="middle" x="289.805" y="-6.5" font-family="Helvetica,sans-Serif" font-size="10.00">/HAL_Linux_Class.cpp</text>
</a>
</g>
</g>
<!-- Node4&#45;&gt;Node5 -->
<g id="edge4" class="edge"><title>Node4&#45;&gt;Node5</title>
<path fill="none" stroke="midnightblue" d="M289.805,-55.1641C289.805,-46.1693 289.805,-36.2205 289.805,-28.5369"/>
<polygon fill="midnightblue" stroke="midnightblue" points="286.305,-55.4463 289.805,-65.4464 293.305,-55.4464 286.305,-55.4463"/>
</g>
<!-- Node8&#45;&gt;Node4 -->
<g id="edge9" class="edge"><title>Node8&#45;&gt;Node4</title>
<path fill="none" stroke="midnightblue" d="M375.478,-188.422C366.241,-179.717 355.645,-169.198 346.805,-159 327.941,-137.238 308.846,-109.523 298.245,-93.5181"/>
<polygon fill="midnightblue" stroke="midnightblue" points="373.138,-191.026 382.85,-195.261 377.899,-185.894 373.138,-191.026"/>
</g>
<!-- Node9 -->
<g id="node9" class="node"><title>Node9</title>
<g id="a_node9"><a xlink:href="$GPIO__RPI_8cpp.html" xlink:title="libraries/AP_HAL_Linux\l/GPIO_RPI.cpp">
<polygon fill="white" stroke="black" points="356,-130.5 356,-158.5 477.61,-158.5 477.61,-130.5 356,-130.5"/>
<text text-anchor="start" x="364" y="-146.5" font-family="Helvetica,sans-Serif" font-size="10.00">libraries/AP_HAL_Linux</text>
<text text-anchor="middle" x="416.805" y="-136.5" font-family="Helvetica,sans-Serif" font-size="10.00">/GPIO_RPI.cpp</text>
</a>
</g>
</g>
<!-- Node8&#45;&gt;Node9 -->
<g id="edge10" class="edge"><title>Node8&#45;&gt;Node9</title>
<path fill="none" stroke="midnightblue" d="M404.665,-185.756C407.423,-176.608 410.505,-166.389 412.873,-158.537"/>
<polygon fill="midnightblue" stroke="midnightblue" points="401.279,-184.862 401.742,-195.446 407.98,-186.883 401.279,-184.862"/>
</g>
<!-- Node10 -->
<g id="node10" class="node"><title>Node10</title>
<g id="a_node10"><a xlink:href="$RCInput__RPI_8cpp.html" xlink:title="libraries/AP_HAL_Linux\l/RCInput_RPI.cpp">
<polygon fill="white" stroke="black" points="496,-130.5 496,-158.5 617.61,-158.5 617.61,-130.5 496,-130.5"/>
<text text-anchor="start" x="504" y="-146.5" font-family="Helvetica,sans-Serif" font-size="10.00">libraries/AP_HAL_Linux</text>
<text text-anchor="middle" x="556.805" y="-136.5" font-family="Helvetica,sans-Serif" font-size="10.00">/RCInput_RPI.cpp</text>
</a>
</g>
</g>
<!-- Node8&#45;&gt;Node10 -->
<g id="edge11" class="edge"><title>Node8&#45;&gt;Node10</title>
<path fill="none" stroke="midnightblue" d="M440.08,-191.75C466.344,-181.343 499.609,-168.163 523.902,-158.537"/>
<polygon fill="midnightblue" stroke="midnightblue" points="438.758,-188.509 430.75,-195.446 441.336,-195.017 438.758,-188.509"/>
</g>
<!-- Node11 -->
<g id="node11" class="node"><title>Node11</title>
<g id="a_node11"><a xlink:href="$Util__RPI_8cpp.html" xlink:title="libraries/AP_HAL_Linux\l/Util_RPI.cpp">
<polygon fill="white" stroke="black" points="636,-130.5 636,-158.5 757.61,-158.5 757.61,-130.5 636,-130.5"/>
<text text-anchor="start" x="644" y="-146.5" font-family="Helvetica,sans-Serif" font-size="10.00">libraries/AP_HAL_Linux</text>
<text text-anchor="middle" x="696.805" y="-136.5" font-family="Helvetica,sans-Serif" font-size="10.00">/Util_RPI.cpp</text>
</a>
</g>
</g>
<!-- Node8&#45;&gt;Node11 -->
<g id="edge12" class="edge"><title>Node8&#45;&gt;Node11</title>
<path fill="none" stroke="midnightblue" d="M468.605,-193.582C519.456,-182.868 587.298,-168.573 635.767,-158.361"/>
<polygon fill="midnightblue" stroke="midnightblue" points="467.736,-190.188 458.673,-195.675 469.179,-197.038 467.736,-190.188"/>
</g>
</g>
</svg>
