<?xml version="1.0" encoding="UTF-8" standalone="no"?>
<!DOCTYPE svg PUBLIC "-//W3C//DTD SVG 1.1//EN"
 "http://www.w3.org/Graphics/SVG/1.1/DTD/svg11.dtd">
<!-- Generated by graphviz version 2.38.0 (20140413.2041)
 -->
<!-- Title: libraries/AP_HAL_Linux/Semaphores.h Pages: 1 -->
<svg width="504pt" height="232pt"
 viewBox="0.00 0.00 503.61 232.00" xmlns="http://www.w3.org/2000/svg" xmlns:xlink="http://www.w3.org/1999/xlink">
<g id="graph0" class="graph" transform="scale(1 1) rotate(0) translate(4 228)">
<title>libraries/AP_HAL_Linux/Semaphores.h</title>
<polygon fill="white" stroke="none" points="-4,4 -4,-228 499.61,-228 499.61,4 -4,4"/>
<!-- Node1 -->
<g id="node1" class="node"><title>Node1</title>
<polygon fill="#bfbfbf" stroke="black" points="189,-195.5 189,-223.5 310.61,-223.5 310.61,-195.5 189,-195.5"/>
<text text-anchor="start" x="197" y="-211.5" font-family="Helvetica,sans-Serif" font-size="10.00">libraries/AP_HAL_Linux</text>
<text text-anchor="middle" x="249.805" y="-201.5" font-family="Helvetica,sans-Serif" font-size="10.00">/Semaphores.h</text>
</g>
<!-- Node2 -->
<g id="node2" class="node"><title>Node2</title>
<g id="a_node2"><a xlink:href="$Linux_2SPIDriver_8h.html" xlink:title="libraries/AP_HAL_Linux\l/SPIDriver.h">
<polygon fill="white" stroke="black" points="56,-130.5 56,-158.5 177.61,-158.5 177.61,-130.5 56,-130.5"/>
<text text-anchor="start" x="64" y="-146.5" font-family="Helvetica,sans-Serif" font-size="10.00">libraries/AP_HAL_Linux</text>
<text text-anchor="middle" x="116.805" y="-136.5" font-family="Helvetica,sans-Serif" font-size="10.00">/SPIDriver.h</text>
</a>
</g>
</g>
<!-- Node1&#45;&gt;Node2 -->
<g id="edge1" class="edge"><title>Node1&#45;&gt;Node2</title>
<path fill="none" stroke="midnightblue" d="M212.99,-191.061C191.257,-180.767 164.203,-167.951 144.328,-158.537"/>
<polygon fill="midnightblue" stroke="midnightblue" points="211.712,-194.329 222.247,-195.446 214.708,-188.002 211.712,-194.329"/>
</g>
<!-- Node3 -->
<g id="node3" class="node"><title>Node3</title>
<g id="a_node3"><a xlink:href="$AP__HAL__Linux__Private_8h.html" xlink:title="libraries/AP_HAL_Linux\l/AP_HAL_Linux_Private.h">
<polygon fill="white" stroke="black" points="139.993,-65.5 139.993,-93.5 271.618,-93.5 271.618,-65.5 139.993,-65.5"/>
<text text-anchor="start" x="147.993" y="-81.5" font-family="Helvetica,sans-Serif" font-size="10.00">libraries/AP_HAL_Linux</text>
<text text-anchor="middle" x="205.805" y="-71.5" font-family="Helvetica,sans-Serif" font-size="10.00">/AP_HAL_Linux_Private.h</text>
</a>
</g>
</g>
<!-- Node1&#45;&gt;Node3 -->
<g id="edge5" class="edge"><title>Node1&#45;&gt;Node3</title>
<path fill="none" stroke="midnightblue" d="M237.381,-186.606C232.961,-178.17 228.235,-168.322 224.805,-159 216.574,-136.629 210.896,-109.353 208.01,-93.551"/>
<polygon fill="midnightblue" stroke="midnightblue" points="234.318,-188.299 242.156,-195.427 240.474,-184.967 234.318,-188.299"/>
</g>
<!-- Node6 -->
<g id="node6" class="node"><title>Node6</title>
<g id="a_node6"><a xlink:href="$Linux_2Scheduler_8h.html" xlink:title="libraries/AP_HAL_Linux\l/Scheduler.h">
<polygon fill="white" stroke="black" points="234,-130.5 234,-158.5 355.61,-158.5 355.61,-130.5 234,-130.5"/>
<text text-anchor="start" x="242" y="-146.5" font-family="Helvetica,sans-Serif" font-size="10.00">libraries/AP_HAL_Linux</text>
<text text-anchor="middle" x="294.805" y="-136.5" font-family="Helvetica,sans-Serif" font-size="10.00">/Scheduler.h</text>
</a>
</g>
</g>
<!-- Node1&#45;&gt;Node6 -->
<g id="edge6" class="edge"><title>Node1&#45;&gt;Node6</title>
<path fill="none" stroke="midnightblue" d="M265.004,-187.221C271.796,-177.713 279.583,-166.812 285.493,-158.537"/>
<polygon fill="midnightblue" stroke="midnightblue" points="262.094,-185.275 259.129,-195.446 267.79,-189.343 262.094,-185.275"/>
</g>
<!-- Node8 -->
<g id="node8" class="node"><title>Node8</title>
<g id="a_node8"><a xlink:href="$AP__HAL__Linux_2Semaphores_8cpp.html" xlink:title="libraries/AP_HAL_Linux\l/Semaphores.cpp">
<polygon fill="white" stroke="black" points="374,-130.5 374,-158.5 495.61,-158.5 495.61,-130.5 374,-130.5"/>
<text text-anchor="start" x="382" y="-146.5" font-family="Helvetica,sans-Serif" font-size="10.00">libraries/AP_HAL_Linux</text>
<text text-anchor="middle" x="434.805" y="-136.5" font-family="Helvetica,sans-Serif" font-size="10.00">/Semaphores.cpp</text>
</a>
</g>
</g>
<!-- Node1&#45;&gt;Node8 -->
<g id="edge9" class="edge"><title>Node1&#45;&gt;Node8</title>
<path fill="none" stroke="midnightblue" d="M297.791,-192.159C328.531,-181.691 367.884,-168.289 396.522,-158.537"/>
<polygon fill="midnightblue" stroke="midnightblue" points="296.475,-188.91 288.137,-195.446 298.732,-195.536 296.475,-188.91"/>
</g>
<!-- Node2&#45;&gt;Node3 -->
<g id="edge2" class="edge"><title>Node2&#45;&gt;Node3</title>
<path fill="none" stroke="midnightblue" d="M143.618,-124.52C157.758,-114.511 174.744,-102.487 187.388,-93.5369"/>
<polygon fill="midnightblue" stroke="midnightblue" points="141.386,-121.812 135.246,-130.446 145.43,-127.525 141.386,-121.812"/>
</g>
<!-- Node5 -->
<g id="node5" class="node"><title>Node5</title>
<g id="a_node5"><a xlink:href="$AP__HAL__Linux_2SPIDriver_8cpp.html" xlink:title="libraries/AP_HAL_Linux\l/SPIDriver.cpp">
<polygon fill="white" stroke="black" points="0,-65.5 0,-93.5 121.61,-93.5 121.61,-65.5 0,-65.5"/>
<text text-anchor="start" x="8" y="-81.5" font-family="Helvetica,sans-Serif" font-size="10.00">libraries/AP_HAL_Linux</text>
<text text-anchor="middle" x="60.8052" y="-71.5" font-family="Helvetica,sans-Serif" font-size="10.00">/SPIDriver.cpp</text>
</a>
</g>
</g>
<!-- Node2&#45;&gt;Node5 -->
<g id="edge4" class="edge"><title>Node2&#45;&gt;Node5</title>
<path fill="none" stroke="midnightblue" d="M98.4068,-122.802C89.8357,-113.159 79.8989,-101.98 72.3935,-93.5369"/>
<polygon fill="midnightblue" stroke="midnightblue" points="95.9423,-125.298 105.202,-130.446 101.174,-120.647 95.9423,-125.298"/>
</g>
<!-- Node4 -->
<g id="node4" class="node"><title>Node4</title>
<g id="a_node4"><a xlink:href="$HAL__Linux__Class_8cpp.html" xlink:title="libraries/AP_HAL_Linux\l/HAL_Linux_Class.cpp">
<polygon fill="white" stroke="black" points="145,-0.5 145,-28.5 266.61,-28.5 266.61,-0.5 145,-0.5"/>
<text text-anchor="start" x="153" y="-16.5" font-family="Helvetica,sans-Serif" font-size="10.00">libraries/AP_HAL_Linux</text>
<text text-anchor="middle" x="205.805" y="-6.5" font-family="Helvetica,sans-Serif" font-size="10.00">/HAL_Linux_Class.cpp</text>
</a>
</g>
</g>
<!-- Node3&#45;&gt;Node4 -->
<g id="edge3" class="edge"><title>Node3&#45;&gt;Node4</title>
<path fill="none" stroke="midnightblue" d="M205.805,-55.1641C205.805,-46.1693 205.805,-36.2205 205.805,-28.5369"/>
<polygon fill="midnightblue" stroke="midnightblue" points="202.305,-55.4463 205.805,-65.4464 209.305,-55.4464 202.305,-55.4463"/>
</g>
<!-- Node6&#45;&gt;Node3 -->
<g id="edge7" class="edge"><title>Node6&#45;&gt;Node3</title>
<path fill="none" stroke="midnightblue" d="M267.992,-124.52C253.852,-114.511 236.866,-102.487 224.222,-93.5369"/>
<polygon fill="midnightblue" stroke="midnightblue" points="266.18,-127.525 276.364,-130.446 270.224,-121.812 266.18,-127.525"/>
</g>
<!-- Node7 -->
<g id="node7" class="node"><title>Node7</title>
<g id="a_node7"><a xlink:href="$AP__HAL__Linux_2Scheduler_8cpp.html" xlink:title="libraries/AP_HAL_Linux\l/Scheduler.cpp">
<polygon fill="white" stroke="black" points="290,-65.5 290,-93.5 411.61,-93.5 411.61,-65.5 290,-65.5"/>
<text text-anchor="start" x="298" y="-81.5" font-family="Helvetica,sans-Serif" font-size="10.00">libraries/AP_HAL_Linux</text>
<text text-anchor="middle" x="350.805" y="-71.5" font-family="Helvetica,sans-Serif" font-size="10.00">/Scheduler.cpp</text>
</a>
</g>
</g>
<!-- Node6&#45;&gt;Node7 -->
<g id="edge8" class="edge"><title>Node6&#45;&gt;Node7</title>
<path fill="none" stroke="midnightblue" d="M313.204,-122.802C321.775,-113.159 331.711,-101.98 339.217,-93.5369"/>
<polygon fill="midnightblue" stroke="midnightblue" points="310.436,-120.647 306.408,-130.446 315.668,-125.298 310.436,-120.647"/>
</g>
</g>
</svg>
