<?xml version="1.0" encoding="UTF-8" standalone="no"?>
<!DOCTYPE svg PUBLIC "-//W3C//DTD SVG 1.1//EN"
 "http://www.w3.org/Graphics/SVG/1.1/DTD/svg11.dtd">
<!-- Generated by graphviz version 2.38.0 (20140413.2041)
 -->
<!-- Title: libraries/AP_HAL_Linux/AnalogIn.h Pages: 1 -->
<svg width="280pt" height="167pt"
 viewBox="0.00 0.00 279.62 167.00" xmlns="http://www.w3.org/2000/svg" xmlns:xlink="http://www.w3.org/1999/xlink">
<g id="graph0" class="graph" transform="scale(1 1) rotate(0) translate(4 163)">
<title>libraries/AP_HAL_Linux/AnalogIn.h</title>
<polygon fill="white" stroke="none" points="-4,4 -4,-163 275.618,-163 275.618,4 -4,4"/>
<!-- Node1 -->
<g id="node1" class="node"><title>Node1</title>
<polygon fill="#bfbfbf" stroke="black" points="72,-130.5 72,-158.5 193.61,-158.5 193.61,-130.5 72,-130.5"/>
<text text-anchor="start" x="80" y="-146.5" font-family="Helvetica,sans-Serif" font-size="10.00">libraries/AP_HAL_Linux</text>
<text text-anchor="middle" x="132.805" y="-136.5" font-family="Helvetica,sans-Serif" font-size="10.00">/AnalogIn.h</text>
</g>
<!-- Node2 -->
<g id="node2" class="node"><title>Node2</title>
<g id="a_node2"><a xlink:href="$Linux_2AnalogIn_8cpp.html" xlink:title="libraries/AP_HAL_Linux\l/AnalogIn.cpp">
<polygon fill="white" stroke="black" points="0,-65.5 0,-93.5 121.61,-93.5 121.61,-65.5 0,-65.5"/>
<text text-anchor="start" x="8" y="-81.5" font-family="Helvetica,sans-Serif" font-size="10.00">libraries/AP_HAL_Linux</text>
<text text-anchor="middle" x="60.8052" y="-71.5" font-family="Helvetica,sans-Serif" font-size="10.00">/AnalogIn.cpp</text>
</a>
</g>
</g>
<!-- Node1&#45;&gt;Node2 -->
<g id="edge1" class="edge"><title>Node1&#45;&gt;Node2</title>
<path fill="none" stroke="midnightblue" d="M110.137,-123.665C98.8995,-113.833 85.6438,-102.234 75.7045,-93.5369"/>
<polygon fill="midnightblue" stroke="midnightblue" points="108.056,-126.495 117.887,-130.446 112.666,-121.227 108.056,-126.495"/>
</g>
<!-- Node3 -->
<g id="node3" class="node"><title>Node3</title>
<g id="a_node3"><a xlink:href="$AP__HAL__Linux__Private_8h.html" xlink:title="libraries/AP_HAL_Linux\l/AP_HAL_Linux_Private.h">
<polygon fill="white" stroke="black" points="139.993,-65.5 139.993,-93.5 271.618,-93.5 271.618,-65.5 139.993,-65.5"/>
<text text-anchor="start" x="147.993" y="-81.5" font-family="Helvetica,sans-Serif" font-size="10.00">libraries/AP_HAL_Linux</text>
<text text-anchor="middle" x="205.805" y="-71.5" font-family="Helvetica,sans-Serif" font-size="10.00">/AP_HAL_Linux_Private.h</text>
</a>
</g>
</g>
<!-- Node1&#45;&gt;Node3 -->
<g id="edge2" class="edge"><title>Node1&#45;&gt;Node3</title>
<path fill="none" stroke="midnightblue" d="M155.788,-123.665C167.182,-113.833 180.622,-102.234 190.699,-93.5369"/>
<polygon fill="midnightblue" stroke="midnightblue" points="153.215,-121.263 147.931,-130.446 157.788,-126.563 153.215,-121.263"/>
</g>
<!-- Node4 -->
<g id="node4" class="node"><title>Node4</title>
<g id="a_node4"><a xlink:href="$HAL__Linux__Class_8cpp.html" xlink:title="libraries/AP_HAL_Linux\l/HAL_Linux_Class.cpp">
<polygon fill="white" stroke="black" points="145,-0.5 145,-28.5 266.61,-28.5 266.61,-0.5 145,-0.5"/>
<text text-anchor="start" x="153" y="-16.5" font-family="Helvetica,sans-Serif" font-size="10.00">libraries/AP_HAL_Linux</text>
<text text-anchor="middle" x="205.805" y="-6.5" font-family="Helvetica,sans-Serif" font-size="10.00">/HAL_Linux_Class.cpp</text>
</a>
</g>
</g>
<!-- Node3&#45;&gt;Node4 -->
<g id="edge3" class="edge"><title>Node3&#45;&gt;Node4</title>
<path fill="none" stroke="midnightblue" d="M205.805,-55.1641C205.805,-46.1693 205.805,-36.2205 205.805,-28.5369"/>
<polygon fill="midnightblue" stroke="midnightblue" points="202.305,-55.4463 205.805,-65.4464 209.305,-55.4464 202.305,-55.4463"/>
</g>
</g>
</svg>
