<?xml version="1.0" encoding="UTF-8" standalone="no"?>
<!DOCTYPE svg PUBLIC "-//W3C//DTD SVG 1.1//EN"
 "http://www.w3.org/Graphics/SVG/1.1/DTD/svg11.dtd">
<!-- Generated by graphviz version 2.38.0 (20140413.2041)
 -->
<!-- Title: libraries/AP_HAL_Linux/UARTDriver.h Pages: 1 -->
<svg width="1414pt" height="642pt"
 viewBox="0.00 0.00 1414.00 642.00" xmlns="http://www.w3.org/2000/svg" xmlns:xlink="http://www.w3.org/1999/xlink">
<g id="graph0" class="graph" transform="scale(1 1) rotate(0) translate(4 638)">
<title>libraries/AP_HAL_Linux/UARTDriver.h</title>
<polygon fill="white" stroke="none" points="-4,4 -4,-638 1410,-638 1410,4 -4,4"/>
<!-- Node1 -->
<g id="node1" class="node"><title>Node1</title>
<polygon fill="#bfbfbf" stroke="black" points="968.195,-605.5 968.195,-633.5 1089.81,-633.5 1089.81,-605.5 968.195,-605.5"/>
<text text-anchor="start" x="976.195" y="-621.5" font-family="Helvetica,sans-Serif" font-size="10.00">libraries/AP_HAL_Linux</text>
<text text-anchor="middle" x="1029" y="-611.5" font-family="Helvetica,sans-Serif" font-size="10.00">/UARTDriver.h</text>
</g>
<!-- Node2 -->
<g id="node2" class="node"><title>Node2</title>
<g id="a_node2"><a xlink:href="$AP__HAL__Linux_8h.html" xlink:title="AP_HAL_Linux.h">
<polygon fill="white" stroke="black" points="658.919,-550.5 658.919,-568.5 751.081,-568.5 751.081,-550.5 658.919,-550.5"/>
<text text-anchor="middle" x="705" y="-556.5" font-family="Helvetica,sans-Serif" font-size="10.00">AP_HAL_Linux.h</text>
</a>
</g>
</g>
<!-- Node1&#45;&gt;Node2 -->
<g id="edge1" class="edge"><title>Node1&#45;&gt;Node2</title>
<path fill="none" stroke="midnightblue" d="M968.058,-607.591C908.225,-596.88 817.77,-580.687 760.053,-570.355"/>
<polygon fill="midnightblue" stroke="midnightblue" points="760.484,-566.877 750.024,-568.56 759.251,-573.767 760.484,-566.877"/>
</g>
<!-- Node33 -->
<g id="node33" class="node"><title>Node33</title>
<g id="a_node33"><a xlink:href="$SerialDevice_8h.html" xlink:title="SerialDevice.h">
<polygon fill="white" stroke="black" points="1259.76,-165.5 1259.76,-183.5 1340.24,-183.5 1340.24,-165.5 1259.76,-165.5"/>
<text text-anchor="middle" x="1300" y="-171.5" font-family="Helvetica,sans-Serif" font-size="10.00">SerialDevice.h</text>
</a>
</g>
</g>
<!-- Node1&#45;&gt;Node33 -->
<g id="edge72" class="edge"><title>Node1&#45;&gt;Node33</title>
<path fill="none" stroke="midnightblue" d="M1089.99,-612.92C1196.69,-601.458 1406,-570.668 1406,-505.5 1406,-505.5 1406,-505.5 1406,-283.5 1406,-238.501 1358.55,-205.37 1327.14,-188.37"/>
<polygon fill="midnightblue" stroke="midnightblue" points="1328.47,-185.116 1317.98,-183.617 1325.25,-191.329 1328.47,-185.116"/>
</g>
<!-- Node3 -->
<g id="node3" class="node"><title>Node3</title>
<g id="a_node3"><a xlink:href="$AP__HAL_8h.html" xlink:title="AP_HAL/AP_HAL.h">
<polygon fill="white" stroke="black" points="613.086,-440.5 613.086,-458.5 716.914,-458.5 716.914,-440.5 613.086,-440.5"/>
<text text-anchor="middle" x="665" y="-446.5" font-family="Helvetica,sans-Serif" font-size="10.00">AP_HAL/AP_HAL.h</text>
</a>
</g>
</g>
<!-- Node2&#45;&gt;Node3 -->
<g id="edge2" class="edge"><title>Node2&#45;&gt;Node3</title>
<path fill="none" stroke="midnightblue" d="M702.93,-550.147C699.793,-537.878 693.41,-514.342 686,-495 682.476,-485.801 677.866,-475.86 673.863,-467.713"/>
<polygon fill="midnightblue" stroke="midnightblue" points="676.869,-465.899 669.245,-458.542 670.617,-469.047 676.869,-465.899"/>
</g>
<!-- Node31 -->
<g id="node31" class="node"><title>Node31</title>
<g id="a_node31"><a xlink:href="$HAL__Linux__Class_8h.html" xlink:title="HAL_Linux_Class.h">
<polygon fill="white" stroke="black" points="573.086,-495.5 573.086,-513.5 676.914,-513.5 676.914,-495.5 573.086,-495.5"/>
<text text-anchor="middle" x="625" y="-501.5" font-family="Helvetica,sans-Serif" font-size="10.00">HAL_Linux_Class.h</text>
</a>
</g>
</g>
<!-- Node2&#45;&gt;Node31 -->
<g id="edge69" class="edge"><title>Node2&#45;&gt;Node31</title>
<path fill="none" stroke="midnightblue" d="M692.85,-550.45C680.398,-542.201 660.797,-529.216 645.858,-519.319"/>
<polygon fill="midnightblue" stroke="midnightblue" points="647.534,-516.231 637.265,-513.625 643.668,-522.066 647.534,-516.231"/>
</g>
<!-- Node4 -->
<g id="node4" class="node"><title>Node4</title>
<polygon fill="white" stroke="#bfbfbf" points="642.879,-110.5 642.879,-128.5 691.121,-128.5 691.121,-110.5 642.879,-110.5"/>
<text text-anchor="middle" x="667" y="-116.5" font-family="Helvetica,sans-Serif" font-size="10.00">stdint.h</text>
</g>
<!-- Node3&#45;&gt;Node4 -->
<g id="edge3" class="edge"><title>Node3&#45;&gt;Node4</title>
<path fill="none" stroke="midnightblue" d="M613.076,-441.021C534.055,-429.544 391.599,-408.447 381,-404 300.539,-370.238 187.976,-349.744 233,-275 234.686,-272.201 333.987,-221.267 337,-220 410.985,-188.896 432.14,-188.105 509,-165 551.603,-152.193 600.999,-138.458 633.062,-129.689"/>
<polygon fill="midnightblue" stroke="midnightblue" points="634.106,-133.033 642.833,-127.024 632.264,-126.279 634.106,-133.033"/>
</g>
<!-- Node5 -->
<g id="node5" class="node"><title>Node5</title>
<polygon fill="white" stroke="#bfbfbf" points="922.707,-110.5 922.707,-128.5 979.293,-128.5 979.293,-110.5 922.707,-110.5"/>
<text text-anchor="middle" x="951" y="-116.5" font-family="Helvetica,sans-Serif" font-size="10.00">stdbool.h</text>
</g>
<!-- Node3&#45;&gt;Node5 -->
<g id="edge4" class="edge"><title>Node3&#45;&gt;Node5</title>
<path fill="none" stroke="midnightblue" d="M717.087,-447.837C827.312,-445.786 1080.48,-437.466 1159,-404 1198.56,-387.141 1232,-383.502 1232,-340.5 1232,-340.5 1232,-340.5 1232,-228.5 1232,-199.042 1235.07,-184.516 1213,-165 1196.48,-150.39 1058.51,-132.783 989.703,-124.804"/>
<polygon fill="midnightblue" stroke="midnightblue" points="990.013,-121.316 979.679,-123.653 989.214,-128.271 990.013,-121.316"/>
</g>
<!-- Node6 -->
<g id="node6" class="node"><title>Node6</title>
<g id="a_node6"><a xlink:href="$AP__HAL__Namespace_8h.html" xlink:title="AP_HAL_Namespace.h">
<polygon fill="white" stroke="black" points="327.192,-55.5 327.192,-73.5 448.808,-73.5 448.808,-55.5 327.192,-55.5"/>
<text text-anchor="middle" x="388" y="-61.5" font-family="Helvetica,sans-Serif" font-size="10.00">AP_HAL_Namespace.h</text>
</a>
</g>
</g>
<!-- Node3&#45;&gt;Node6 -->
<g id="edge5" class="edge"><title>Node3&#45;&gt;Node6</title>
<path fill="none" stroke="midnightblue" d="M612.995,-440.892C610.293,-440.572 607.616,-440.272 605,-440 485.379,-427.557 174.807,-453.056 65,-404 28.126,-387.527 0,-380.886 0,-340.5 0,-340.5 0,-340.5 0,-173.5 0,-126.7 40.8273,-128.066 84,-110 159.393,-78.4505 253.438,-68.7259 316.8,-66.0028"/>
<polygon fill="midnightblue" stroke="midnightblue" points="317.229,-69.4891 327.088,-65.6106 316.962,-62.4942 317.229,-69.4891"/>
</g>
<!-- Node9 -->
<g id="node9" class="node"><title>Node9</title>
<g id="a_node9"><a xlink:href="$AP__HAL__Boards_8h.html" xlink:title="AP_HAL_Boards.h">
<polygon fill="white" stroke="black" points="1104.03,-165.5 1104.03,-183.5 1203.97,-183.5 1203.97,-165.5 1104.03,-165.5"/>
<text text-anchor="middle" x="1154" y="-171.5" font-family="Helvetica,sans-Serif" font-size="10.00">AP_HAL_Boards.h</text>
</a>
</g>
</g>
<!-- Node3&#45;&gt;Node9 -->
<g id="edge8" class="edge"><title>Node3&#45;&gt;Node9</title>
<path fill="none" stroke="midnightblue" d="M717.003,-446.837C832.964,-442.674 1105.06,-430.2 1137,-404 1159.78,-385.316 1156,-369.958 1156,-340.5 1156,-340.5 1156,-340.5 1156,-283.5 1156,-252.012 1155.14,-215.369 1154.55,-193.879"/>
<polygon fill="midnightblue" stroke="midnightblue" points="1158.04,-193.523 1154.25,-183.628 1151.04,-193.724 1158.04,-193.523"/>
</g>
<!-- Node10 -->
<g id="node10" class="node"><title>Node10</title>
<g id="a_node10"><a xlink:href="$AP__HAL__Macros_8h.html" xlink:title="AP_HAL_Macros.h">
<polygon fill="white" stroke="black" points="1026.48,-385.5 1026.48,-403.5 1127.52,-403.5 1127.52,-385.5 1026.48,-385.5"/>
<text text-anchor="middle" x="1077" y="-391.5" font-family="Helvetica,sans-Serif" font-size="10.00">AP_HAL_Macros.h</text>
</a>
</g>
</g>
<!-- Node3&#45;&gt;Node10 -->
<g id="edge9" class="edge"><title>Node3&#45;&gt;Node10</title>
<path fill="none" stroke="midnightblue" d="M717.032,-441.868C784.906,-433.208 907.344,-417.553 1012,-404 1013.3,-403.831 1014.62,-403.661 1015.94,-403.489"/>
<polygon fill="midnightblue" stroke="midnightblue" points="1016.79,-406.908 1026.26,-402.148 1015.89,-399.966 1016.79,-406.908"/>
</g>
<!-- Node11 -->
<g id="node11" class="node"><title>Node11</title>
<g id="a_node11"><a xlink:href="$AP__HAL__Main_8h.html" xlink:title="AP_HAL_Main.h">
<polygon fill="white" stroke="black" points="528.035,-385.5 528.035,-403.5 617.965,-403.5 617.965,-385.5 528.035,-385.5"/>
<text text-anchor="middle" x="573" y="-391.5" font-family="Helvetica,sans-Serif" font-size="10.00">AP_HAL_Main.h</text>
</a>
</g>
</g>
<!-- Node3&#45;&gt;Node11 -->
<g id="edge10" class="edge"><title>Node3&#45;&gt;Node11</title>
<path fill="none" stroke="midnightblue" d="M651.027,-440.45C636.437,-432.045 613.314,-418.724 596.021,-408.762"/>
<polygon fill="midnightblue" stroke="midnightblue" points="597.516,-405.584 587.104,-403.625 594.022,-411.65 597.516,-405.584"/>
</g>
<!-- Node12 -->
<g id="node12" class="node"><title>Node12</title>
<g id="a_node12"><a xlink:href="$HAL_8h.html" xlink:title="HAL.h">
<polygon fill="white" stroke="black" points="507.104,-330.5 507.104,-348.5 550.896,-348.5 550.896,-330.5 507.104,-330.5"/>
<text text-anchor="middle" x="529" y="-336.5" font-family="Helvetica,sans-Serif" font-size="10.00">HAL.h</text>
</a>
</g>
</g>
<!-- Node3&#45;&gt;Node12 -->
<g id="edge68" class="edge"><title>Node3&#45;&gt;Node12</title>
<path fill="none" stroke="midnightblue" d="M618.225,-440.447C580.209,-432.837 530.986,-420.184 519,-404 509.261,-390.85 513.959,-371.933 519.75,-358.168"/>
<polygon fill="midnightblue" stroke="midnightblue" points="523.057,-359.364 524.172,-348.827 516.73,-356.369 523.057,-359.364"/>
</g>
<!-- Node13 -->
<g id="node13" class="node"><title>Node13</title>
<g id="a_node13"><a xlink:href="$AnalogIn_8h.html" xlink:title="AnalogIn.h">
<polygon fill="white" stroke="black" points="226.091,-220.5 226.091,-238.5 289.909,-238.5 289.909,-220.5 226.091,-220.5"/>
<text text-anchor="middle" x="258" y="-226.5" font-family="Helvetica,sans-Serif" font-size="10.00">AnalogIn.h</text>
</a>
</g>
</g>
<!-- Node3&#45;&gt;Node13 -->
<g id="edge50" class="edge"><title>Node3&#45;&gt;Node13</title>
<path fill="none" stroke="midnightblue" d="M612.987,-440.963C610.288,-440.624 607.613,-440.301 605,-440 560.119,-434.83 230.498,-437.329 200,-404 161.296,-361.703 174.641,-326.42 200,-275 206.621,-261.576 219.451,-251.076 231.364,-243.655"/>
<polygon fill="midnightblue" stroke="midnightblue" points="233.256,-246.604 240.178,-238.583 229.765,-240.537 233.256,-246.604"/>
</g>
<!-- Node15 -->
<g id="node15" class="node"><title>Node15</title>
<g id="a_node15"><a xlink:href="$GPIO_8h.html" xlink:title="GPIO.h">
<polygon fill="white" stroke="black" points="596.328,-220.5 596.328,-238.5 645.672,-238.5 645.672,-220.5 596.328,-220.5"/>
<text text-anchor="middle" x="621" y="-226.5" font-family="Helvetica,sans-Serif" font-size="10.00">GPIO.h</text>
</a>
</g>
</g>
<!-- Node3&#45;&gt;Node15 -->
<g id="edge52" class="edge"><title>Node3&#45;&gt;Node15</title>
<path fill="none" stroke="midnightblue" d="M671.601,-440.233C691.652,-414.055 748.368,-331.396 713,-275 700.443,-254.978 676.046,-243.744 655.529,-237.574"/>
<polygon fill="midnightblue" stroke="midnightblue" points="656.406,-234.185 645.838,-234.935 654.567,-240.939 656.406,-234.185"/>
</g>
<!-- Node16 -->
<g id="node16" class="node"><title>Node16</title>
<g id="a_node16"><a xlink:href="$RCInput_8h.html" xlink:title="RCInput.h">
<polygon fill="white" stroke="black" points="242.488,-275.5 242.488,-293.5 303.512,-293.5 303.512,-275.5 242.488,-275.5"/>
<text text-anchor="middle" x="273" y="-281.5" font-family="Helvetica,sans-Serif" font-size="10.00">RCInput.h</text>
</a>
</g>
</g>
<!-- Node3&#45;&gt;Node16 -->
<g id="edge53" class="edge"><title>Node3&#45;&gt;Node16</title>
<path fill="none" stroke="midnightblue" d="M612.96,-440.65C545.278,-430.218 433.577,-412.155 416,-404 361.369,-378.653 310.332,-327.209 286.727,-301.244"/>
<polygon fill="midnightblue" stroke="midnightblue" points="289.328,-298.903 280.057,-293.775 284.107,-303.565 289.328,-298.903"/>
</g>
<!-- Node17 -->
<g id="node17" class="node"><title>Node17</title>
<g id="a_node17"><a xlink:href="$RCOutput_8h.html" xlink:title="RCOutput.h">
<polygon fill="white" stroke="black" points="321.599,-275.5 321.599,-293.5 390.401,-293.5 390.401,-275.5 321.599,-275.5"/>
<text text-anchor="middle" x="356" y="-281.5" font-family="Helvetica,sans-Serif" font-size="10.00">RCOutput.h</text>
</a>
</g>
</g>
<!-- Node3&#45;&gt;Node17 -->
<g id="edge54" class="edge"><title>Node3&#45;&gt;Node17</title>
<path fill="none" stroke="midnightblue" d="M614.94,-440.493C553.721,-430.396 456.417,-413.24 442,-404 402.891,-378.933 375.794,-329.27 363.489,-302.9"/>
<polygon fill="midnightblue" stroke="midnightblue" points="366.666,-301.431 359.377,-293.741 360.28,-304.298 366.666,-301.431"/>
</g>
<!-- Node18 -->
<g id="node18" class="node"><title>Node18</title>
<g id="a_node18"><a xlink:href="$SPIDriver_8h.html" xlink:title="SPIDriver.h">
<polygon fill="white" stroke="black" points="637.712,-275.5 637.712,-293.5 704.288,-293.5 704.288,-275.5 637.712,-275.5"/>
<text text-anchor="middle" x="671" y="-281.5" font-family="Helvetica,sans-Serif" font-size="10.00">SPIDriver.h</text>
</a>
</g>
</g>
<!-- Node3&#45;&gt;Node18 -->
<g id="edge49" class="edge"><title>Node3&#45;&gt;Node18</title>
<path fill="none" stroke="midnightblue" d="M665.306,-440.193C666.233,-415.013 669.026,-339.114 670.324,-303.862"/>
<polygon fill="midnightblue" stroke="midnightblue" points="673.832,-303.719 670.702,-293.597 666.836,-303.462 673.832,-303.719"/>
</g>
<!-- Node19 -->
<g id="node19" class="node"><title>Node19</title>
<g id="a_node19"><a xlink:href="$Storage_8h.html" xlink:title="Storage.h">
<polygon fill="white" stroke="black" points="522.318,-275.5 522.318,-293.5 581.682,-293.5 581.682,-275.5 522.318,-275.5"/>
<text text-anchor="middle" x="552" y="-281.5" font-family="Helvetica,sans-Serif" font-size="10.00">Storage.h</text>
</a>
</g>
</g>
<!-- Node3&#45;&gt;Node19 -->
<g id="edge51" class="edge"><title>Node3&#45;&gt;Node19</title>
<path fill="none" stroke="midnightblue" d="M660.356,-440.105C653.455,-427.783 639.916,-404.183 627,-385 606.558,-354.639 580.374,-320.945 564.969,-301.587"/>
<polygon fill="midnightblue" stroke="midnightblue" points="567.508,-299.159 558.526,-293.539 562.043,-303.533 567.508,-299.159"/>
</g>
<!-- Node20 -->
<g id="node20" class="node"><title>Node20</title>
<g id="a_node20"><a xlink:href="$UARTDriver_8h.html" xlink:title="UARTDriver.h">
<polygon fill="white" stroke="black" points="760.248,-275.5 760.248,-293.5 837.752,-293.5 837.752,-275.5 760.248,-275.5"/>
<text text-anchor="middle" x="799" y="-281.5" font-family="Helvetica,sans-Serif" font-size="10.00">UARTDriver.h</text>
</a>
</g>
</g>
<!-- Node3&#45;&gt;Node20 -->
<g id="edge45" class="edge"><title>Node3&#45;&gt;Node20</title>
<path fill="none" stroke="midnightblue" d="M688.221,-440.455C706.013,-433.279 730.127,-421.228 746,-404 773.148,-374.535 788.149,-328.849 794.783,-303.679"/>
<polygon fill="midnightblue" stroke="midnightblue" points="798.25,-304.238 797.255,-293.69 791.455,-302.556 798.25,-304.238"/>
</g>
<!-- Node23 -->
<g id="node23" class="node"><title>Node23</title>
<g id="a_node23"><a xlink:href="$BetterStream_8h.html" xlink:title="utility/BetterStream.h">
<polygon fill="white" stroke="black" points="789.594,-220.5 789.594,-238.5 898.406,-238.5 898.406,-220.5 789.594,-220.5"/>
<text text-anchor="middle" x="844" y="-226.5" font-family="Helvetica,sans-Serif" font-size="10.00">utility/BetterStream.h</text>
</a>
</g>
</g>
<!-- Node3&#45;&gt;Node23 -->
<g id="edge67" class="edge"><title>Node3&#45;&gt;Node23</title>
<path fill="none" stroke="midnightblue" d="M694.032,-440.404C715.747,-433.324 745.309,-421.422 767,-404 814.131,-366.145 828.306,-351.488 847,-294 851.804,-279.226 850.418,-261.5 848.197,-248.535"/>
<polygon fill="midnightblue" stroke="midnightblue" points="851.591,-247.661 846.164,-238.562 844.732,-249.059 851.591,-247.661"/>
</g>
<!-- Node25 -->
<g id="node25" class="node"><title>Node25</title>
<g id="a_node25"><a xlink:href="$Stream_8h.html" xlink:title="Stream.h">
<polygon fill="white" stroke="black" points="1029.71,-165.5 1029.71,-183.5 1086.29,-183.5 1086.29,-165.5 1029.71,-165.5"/>
<text text-anchor="middle" x="1058" y="-171.5" font-family="Helvetica,sans-Serif" font-size="10.00">Stream.h</text>
</a>
</g>
</g>
<!-- Node3&#45;&gt;Node25 -->
<g id="edge66" class="edge"><title>Node3&#45;&gt;Node25</title>
<path fill="none" stroke="midnightblue" d="M713.649,-440.439C745.35,-433.797 786.83,-422.408 820,-404 923.12,-346.772 1014.32,-233.793 1046.07,-191.758"/>
<polygon fill="midnightblue" stroke="midnightblue" points="1048.9,-193.809 1052.08,-183.701 1043.29,-189.624 1048.9,-193.809"/>
</g>
<!-- Node26 -->
<g id="node26" class="node"><title>Node26</title>
<g id="a_node26"><a xlink:href="$Print_8h.html" xlink:title="Print.h">
<polygon fill="white" stroke="black" points="1100.55,-110.5 1100.55,-128.5 1145.45,-128.5 1145.45,-110.5 1100.55,-110.5"/>
<text text-anchor="middle" x="1123" y="-116.5" font-family="Helvetica,sans-Serif" font-size="10.00">Print.h</text>
</a>
</g>
</g>
<!-- Node3&#45;&gt;Node26 -->
<g id="edge65" class="edge"><title>Node3&#45;&gt;Node26</title>
<path fill="none" stroke="midnightblue" d="M716.954,-448.763C812.824,-448.233 1023.51,-442.325 1196,-404 1275.55,-386.325 1368,-421.988 1368,-340.5 1368,-340.5 1368,-340.5 1368,-228.5 1368,-199.042 1370.81,-184.803 1349,-165 1321.05,-139.619 1211.37,-127.469 1155.74,-122.841"/>
<polygon fill="midnightblue" stroke="midnightblue" points="1155.94,-119.346 1145.69,-122.038 1155.38,-126.324 1155.94,-119.346"/>
</g>
<!-- Node27 -->
<g id="node27" class="node"><title>Node27</title>
<g id="a_node27"><a xlink:href="$I2CDriver_8h.html" xlink:title="I2CDriver.h">
<polygon fill="white" stroke="black" points="27.9902,-165.5 27.9902,-183.5 94.0098,-183.5 94.0098,-165.5 27.9902,-165.5"/>
<text text-anchor="middle" x="61" y="-171.5" font-family="Helvetica,sans-Serif" font-size="10.00">I2CDriver.h</text>
</a>
</g>
</g>
<!-- Node3&#45;&gt;Node27 -->
<g id="edge46" class="edge"><title>Node3&#45;&gt;Node27</title>
<path fill="none" stroke="midnightblue" d="M612.992,-440.924C610.291,-440.595 607.615,-440.285 605,-440 396.733,-417.295 333.329,-471.498 135,-404 86.2203,-387.399 38,-392.027 38,-340.5 38,-340.5 38,-340.5 38,-283.5 38,-251.014 48.0783,-214.212 54.8921,-193.044"/>
<polygon fill="midnightblue" stroke="midnightblue" points="58.2299,-194.098 58.087,-183.504 51.5923,-191.875 58.2299,-194.098"/>
</g>
<!-- Node28 -->
<g id="node28" class="node"><title>Node28</title>
<g id="a_node28"><a xlink:href="$Scheduler_8h.html" xlink:title="Scheduler.h">
<polygon fill="white" stroke="black" points="916.589,-220.5 916.589,-238.5 985.411,-238.5 985.411,-220.5 916.589,-220.5"/>
<text text-anchor="middle" x="951" y="-226.5" font-family="Helvetica,sans-Serif" font-size="10.00">Scheduler.h</text>
</a>
</g>
</g>
<!-- Node3&#45;&gt;Node28 -->
<g id="edge55" class="edge"><title>Node3&#45;&gt;Node28</title>
<path fill="none" stroke="midnightblue" d="M703.38,-440.472C730.06,-433.668 765.608,-422.078 793,-404 859.823,-359.899 917.162,-281.262 940.198,-247.102"/>
<polygon fill="midnightblue" stroke="midnightblue" points="943.153,-248.98 945.765,-238.713 937.32,-245.11 943.153,-248.98"/>
</g>
<!-- Node29 -->
<g id="node29" class="node"><title>Node29</title>
<g id="a_node29"><a xlink:href="$Semaphores_8h.html" xlink:title="Semaphores.h">
<polygon fill="white" stroke="black" points="66.4805,-330.5 66.4805,-348.5 147.52,-348.5 147.52,-330.5 66.4805,-330.5"/>
<text text-anchor="middle" x="107" y="-336.5" font-family="Helvetica,sans-Serif" font-size="10.00">Semaphores.h</text>
</a>
</g>
</g>
<!-- Node3&#45;&gt;Node29 -->
<g id="edge60" class="edge"><title>Node3&#45;&gt;Node29</title>
<path fill="none" stroke="midnightblue" d="M612.99,-440.938C610.29,-440.606 607.614,-440.291 605,-440 506.838,-429.068 250.102,-448.647 162,-404 141.937,-393.833 126.087,-372.871 116.655,-357.81"/>
<polygon fill="midnightblue" stroke="midnightblue" points="119.509,-355.76 111.403,-348.937 113.485,-359.326 119.509,-355.76"/>
</g>
<!-- Node30 -->
<g id="node30" class="node"><title>Node30</title>
<g id="a_node30"><a xlink:href="$Util_8h.html" xlink:title="Util.h">
<polygon fill="white" stroke="black" points="345.608,-220.5 345.608,-238.5 384.392,-238.5 384.392,-220.5 345.608,-220.5"/>
<text text-anchor="middle" x="365" y="-226.5" font-family="Helvetica,sans-Serif" font-size="10.00">Util.h</text>
</a>
</g>
</g>
<!-- Node3&#45;&gt;Node30 -->
<g id="edge62" class="edge"><title>Node3&#45;&gt;Node30</title>
<path fill="none" stroke="midnightblue" d="M612.93,-441.485C581.212,-435.364 540.971,-424.163 510,-404 493.066,-392.975 409.578,-287.456 377.544,-246.572"/>
<polygon fill="midnightblue" stroke="midnightblue" points="380.289,-244.399 371.371,-238.679 374.775,-248.712 380.289,-244.399"/>
</g>
<!-- Node7 -->
<g id="node7" class="node"><title>Node7</title>
<polygon fill="white" stroke="#bfbfbf" points="700.604,-0.5 700.604,-18.5 749.396,-18.5 749.396,-0.5 700.604,-0.5"/>
<text text-anchor="middle" x="725" y="-6.5" font-family="Helvetica,sans-Serif" font-size="10.00">string.h</text>
</g>
<!-- Node6&#45;&gt;Node7 -->
<g id="edge6" class="edge"><title>Node6&#45;&gt;Node7</title>
<path fill="none" stroke="midnightblue" d="M439.183,-55.4504C508.663,-44.5233 630.977,-25.2871 690.507,-15.9247"/>
<polygon fill="midnightblue" stroke="midnightblue" points="691.192,-19.3602 700.526,-14.349 690.104,-12.4452 691.192,-19.3602"/>
</g>
<!-- Node8 -->
<g id="node8" class="node"><title>Node8</title>
<g id="a_node8"><a xlink:href="$functor_8h.html" xlink:title="utility/functor.h">
<polygon fill="white" stroke="black" points="348.037,-0.5 348.037,-18.5 427.963,-18.5 427.963,-0.5 348.037,-0.5"/>
<text text-anchor="middle" x="388" y="-6.5" font-family="Helvetica,sans-Serif" font-size="10.00">utility/functor.h</text>
</a>
</g>
</g>
<!-- Node6&#45;&gt;Node8 -->
<g id="edge7" class="edge"><title>Node6&#45;&gt;Node8</title>
<path fill="none" stroke="midnightblue" d="M388,-55.2188C388,-48.1769 388,-37.8083 388,-28.8277"/>
<polygon fill="midnightblue" stroke="midnightblue" points="391.5,-28.5495 388,-18.5496 384.5,-28.5496 391.5,-28.5495"/>
</g>
<!-- Node11&#45;&gt;Node12 -->
<g id="edge11" class="edge"><title>Node11&#45;&gt;Node12</title>
<path fill="none" stroke="midnightblue" d="M566.125,-385.219C559.759,-377.551 550.119,-365.939 542.257,-356.469"/>
<polygon fill="midnightblue" stroke="midnightblue" points="544.763,-354.008 535.683,-348.55 539.377,-358.479 544.763,-354.008"/>
</g>
<!-- Node12&#45;&gt;Node6 -->
<g id="edge12" class="edge"><title>Node12&#45;&gt;Node6</title>
<path fill="none" stroke="midnightblue" d="M519.238,-330.281C494.614,-308.953 429.748,-248.952 399,-184 383.578,-151.422 384.066,-108.215 385.943,-83.9949"/>
<polygon fill="midnightblue" stroke="midnightblue" points="389.453,-84.0451 386.912,-73.7597 382.485,-83.3853 389.453,-84.0451"/>
</g>
<!-- Node12&#45;&gt;Node13 -->
<g id="edge13" class="edge"><title>Node12&#45;&gt;Node13</title>
<path fill="none" stroke="midnightblue" d="M514.12,-330.325C490.3,-317.448 441.92,-292.145 399,-275 365.415,-261.584 326.091,-249.457 297.516,-241.263"/>
<polygon fill="midnightblue" stroke="midnightblue" points="298.46,-237.893 287.885,-238.533 296.551,-244.628 298.46,-237.893"/>
</g>
<!-- Node12&#45;&gt;Node15 -->
<g id="edge16" class="edge"><title>Node12&#45;&gt;Node15</title>
<path fill="none" stroke="midnightblue" d="M544.463,-330.401C558.154,-322.594 577.936,-309.674 591,-294 602.334,-280.402 610.461,-261.803 615.374,-248.25"/>
<polygon fill="midnightblue" stroke="midnightblue" points="618.731,-249.248 618.624,-238.654 612.101,-247.002 618.731,-249.248"/>
</g>
<!-- Node12&#45;&gt;Node16 -->
<g id="edge19" class="edge"><title>Node12&#45;&gt;Node16</title>
<path fill="none" stroke="midnightblue" d="M506.913,-333.997C469.411,-326.341 390.643,-310.216 313.462,-294.086"/>
<polygon fill="midnightblue" stroke="midnightblue" points="314.076,-290.638 303.571,-292.017 312.642,-297.49 314.076,-290.638"/>
</g>
<!-- Node12&#45;&gt;Node17 -->
<g id="edge21" class="edge"><title>Node12&#45;&gt;Node17</title>
<path fill="none" stroke="midnightblue" d="M507.089,-331.788C478.126,-322.914 426.716,-307.164 392.003,-296.53"/>
<polygon fill="midnightblue" stroke="midnightblue" points="392.835,-293.124 382.249,-293.541 390.785,-299.817 392.835,-293.124"/>
</g>
<!-- Node12&#45;&gt;Node18 -->
<g id="edge23" class="edge"><title>Node12&#45;&gt;Node18</title>
<path fill="none" stroke="midnightblue" d="M550.567,-330.45C574.337,-321.578 612.783,-307.229 639.83,-297.134"/>
<polygon fill="midnightblue" stroke="midnightblue" points="641.085,-300.401 649.23,-293.625 638.638,-293.843 641.085,-300.401"/>
</g>
<!-- Node12&#45;&gt;Node19 -->
<g id="edge25" class="edge"><title>Node12&#45;&gt;Node19</title>
<path fill="none" stroke="midnightblue" d="M532.594,-330.219C535.752,-322.942 540.451,-312.113 544.434,-302.934"/>
<polygon fill="midnightblue" stroke="midnightblue" points="547.737,-304.116 548.507,-293.55 541.315,-301.33 547.737,-304.116"/>
</g>
<!-- Node12&#45;&gt;Node20 -->
<g id="edge28" class="edge"><title>Node12&#45;&gt;Node20</title>
<path fill="none" stroke="midnightblue" d="M551.095,-334.163C594.313,-325.679 690.956,-306.709 749.998,-295.119"/>
<polygon fill="midnightblue" stroke="midnightblue" points="750.712,-298.546 759.85,-293.185 749.363,-291.677 750.712,-298.546"/>
</g>
<!-- Node13&#45;&gt;Node6 -->
<g id="edge15" class="edge"><title>Node13&#45;&gt;Node6</title>
<path fill="none" stroke="midnightblue" d="M261.262,-220.263C269.643,-199.836 293.566,-145.908 326,-110 337.149,-97.6574 352.271,-86.7194 364.79,-78.7762"/>
<polygon fill="midnightblue" stroke="midnightblue" points="366.644,-81.7453 373.352,-73.5443 362.994,-75.7723 366.644,-81.7453"/>
</g>
<!-- Node14 -->
<g id="node14" class="node"><title>Node14</title>
<polygon fill="white" stroke="#bfbfbf" points="751.599,-55.5 751.599,-73.5 810.401,-73.5 810.401,-55.5 751.599,-55.5"/>
<text text-anchor="middle" x="781" y="-61.5" font-family="Helvetica,sans-Serif" font-size="10.00">inttypes.h</text>
</g>
<!-- Node13&#45;&gt;Node14 -->
<g id="edge14" class="edge"><title>Node13&#45;&gt;Node14</title>
<path fill="none" stroke="midnightblue" d="M281.579,-220.471C317.729,-208.213 389.064,-184.231 450,-165 556.243,-131.47 682.483,-94.2392 743.831,-76.3123"/>
<polygon fill="midnightblue" stroke="midnightblue" points="744.84,-79.6638 753.459,-73.5018 742.879,-72.9443 744.84,-79.6638"/>
</g>
<!-- Node15&#45;&gt;Node4 -->
<g id="edge17" class="edge"><title>Node15&#45;&gt;Node4</title>
<path fill="none" stroke="midnightblue" d="M624.457,-220.382C631.883,-202.948 649.499,-161.59 659.58,-137.922"/>
<polygon fill="midnightblue" stroke="midnightblue" points="662.804,-139.284 663.502,-128.712 656.364,-136.54 662.804,-139.284"/>
</g>
<!-- Node15&#45;&gt;Node6 -->
<g id="edge18" class="edge"><title>Node15&#45;&gt;Node6</title>
<path fill="none" stroke="midnightblue" d="M619.069,-220.476C615.543,-207.354 606.92,-181.151 591,-165 545.148,-118.484 473.127,-90.3981 428.335,-76.4374"/>
<polygon fill="midnightblue" stroke="midnightblue" points="429.247,-73.0569 418.662,-73.5104 427.22,-79.7569 429.247,-73.0569"/>
</g>
<!-- Node16&#45;&gt;Node6 -->
<g id="edge20" class="edge"><title>Node16&#45;&gt;Node6</title>
<path fill="none" stroke="midnightblue" d="M253.388,-275.445C238.756,-268.264 219.832,-256.21 211,-239 199.956,-217.478 224.266,-174.563 230,-165 247.144,-136.41 253.65,-129.06 281,-110 301.947,-95.4028 328.42,-84.3426 349.793,-76.8997"/>
<polygon fill="midnightblue" stroke="midnightblue" points="351.154,-80.1349 359.521,-73.636 348.927,-73.4984 351.154,-80.1349"/>
</g>
<!-- Node17&#45;&gt;Node6 -->
<g id="edge22" class="edge"><title>Node17&#45;&gt;Node6</title>
<path fill="none" stroke="midnightblue" d="M324.352,-275.468C285.377,-265.261 223.498,-247.903 217,-239 212.022,-232.179 214.161,-227.953 217,-220 238.236,-160.509 258.432,-150.389 307,-110 322.881,-96.793 343.273,-85.6157 359.623,-77.7666"/>
<polygon fill="midnightblue" stroke="midnightblue" points="361.125,-80.9283 368.718,-73.5395 358.175,-74.5804 361.125,-80.9283"/>
</g>
<!-- Node18&#45;&gt;Node6 -->
<g id="edge24" class="edge"><title>Node18&#45;&gt;Node6</title>
<path fill="none" stroke="midnightblue" d="M653.345,-275.472C635.916,-267.245 608.79,-253.62 587,-239 511.91,-188.619 434.373,-112.852 402.754,-80.7448"/>
<polygon fill="midnightblue" stroke="midnightblue" points="405.228,-78.2683 395.734,-73.5647 400.223,-83.1619 405.228,-78.2683"/>
</g>
<!-- Node19&#45;&gt;Node4 -->
<g id="edge26" class="edge"><title>Node19&#45;&gt;Node4</title>
<path fill="none" stroke="midnightblue" d="M545.71,-275.436C530.541,-254.946 495.054,-200.032 521,-165 546.512,-130.553 598.079,-121.872 632.586,-120.148"/>
<polygon fill="midnightblue" stroke="midnightblue" points="632.82,-123.642 642.7,-119.815 632.59,-116.646 632.82,-123.642"/>
</g>
<!-- Node19&#45;&gt;Node6 -->
<g id="edge27" class="edge"><title>Node19&#45;&gt;Node6</title>
<path fill="none" stroke="midnightblue" d="M532.605,-275.458C501.789,-261.618 442.064,-230.253 412,-184 391.854,-153.006 388.068,-108.576 387.667,-83.8633"/>
<polygon fill="midnightblue" stroke="midnightblue" points="391.167,-83.7419 387.68,-73.7375 384.167,-83.7331 391.167,-83.7419"/>
</g>
<!-- Node20&#45;&gt;Node4 -->
<g id="edge29" class="edge"><title>Node20&#45;&gt;Node4</title>
<path fill="none" stroke="midnightblue" d="M770.648,-275.494C751.195,-268.676 726.085,-257.061 710,-239 684.123,-209.946 673.45,-164.1 669.343,-138.794"/>
<polygon fill="midnightblue" stroke="midnightblue" points="672.785,-138.141 667.887,-128.746 665.857,-139.145 672.785,-138.141"/>
</g>
<!-- Node20&#45;&gt;Node6 -->
<g id="edge34" class="edge"><title>Node20&#45;&gt;Node6</title>
<path fill="none" stroke="midnightblue" d="M794.174,-275.318C788.928,-266.406 780.315,-251.721 773,-239 740.16,-181.892 754.417,-147.129 700,-110 661.99,-84.0655 539.243,-73.0004 459.515,-68.461"/>
<polygon fill="midnightblue" stroke="midnightblue" points="459.224,-64.9399 449.048,-67.8883 458.842,-71.9295 459.224,-64.9399"/>
</g>
<!-- Node21 -->
<g id="node21" class="node"><title>Node21</title>
<g id="a_node21"><a xlink:href="$AP__Common_8h.html" xlink:title="Common definitions and utility routines for the ArduPilot libraries. ">
<polygon fill="white" stroke="black" points="827.973,-165.5 827.973,-183.5 974.027,-183.5 974.027,-165.5 827.973,-165.5"/>
<text text-anchor="middle" x="901" y="-171.5" font-family="Helvetica,sans-Serif" font-size="10.00">AP_Common/AP_Common.h</text>
</a>
</g>
</g>
<!-- Node20&#45;&gt;Node21 -->
<g id="edge30" class="edge"><title>Node20&#45;&gt;Node21</title>
<path fill="none" stroke="midnightblue" d="M792.672,-275.364C783.526,-262.54 768.959,-237.307 781,-220 792.507,-203.46 810.918,-193.054 829.899,-186.512"/>
<polygon fill="midnightblue" stroke="midnightblue" points="831.027,-189.827 839.538,-183.516 828.949,-183.142 831.027,-189.827"/>
</g>
<!-- Node20&#45;&gt;Node23 -->
<g id="edge35" class="edge"><title>Node20&#45;&gt;Node23</title>
<path fill="none" stroke="midnightblue" d="M806.031,-275.219C812.608,-267.473 822.603,-255.701 830.687,-246.18"/>
<polygon fill="midnightblue" stroke="midnightblue" points="833.361,-248.438 837.165,-238.55 828.025,-243.907 833.361,-248.438"/>
</g>
<!-- Node21&#45;&gt;Node4 -->
<g id="edge31" class="edge"><title>Node21&#45;&gt;Node4</title>
<path fill="none" stroke="midnightblue" d="M865.46,-165.45C820.956,-155.37 745.233,-138.219 701.311,-128.271"/>
<polygon fill="midnightblue" stroke="midnightblue" points="701.92,-124.821 691.394,-126.025 700.373,-131.648 701.92,-124.821"/>
</g>
<!-- Node21&#45;&gt;Node5 -->
<g id="edge33" class="edge"><title>Node21&#45;&gt;Node5</title>
<path fill="none" stroke="midnightblue" d="M908.812,-165.219C916.194,-157.394 927.45,-145.463 936.479,-135.892"/>
<polygon fill="midnightblue" stroke="midnightblue" points="939.09,-138.225 943.406,-128.55 933.998,-133.422 939.09,-138.225"/>
</g>
<!-- Node22 -->
<g id="node22" class="node"><title>Node22</title>
<polygon fill="white" stroke="#bfbfbf" points="1035.16,-110.5 1035.16,-128.5 1082.84,-128.5 1082.84,-110.5 1035.16,-110.5"/>
<text text-anchor="middle" x="1059" y="-116.5" font-family="Helvetica,sans-Serif" font-size="10.00">stdlib.h</text>
</g>
<!-- Node21&#45;&gt;Node22 -->
<g id="edge32" class="edge"><title>Node21&#45;&gt;Node22</title>
<path fill="none" stroke="midnightblue" d="M924.997,-165.45C951.755,-156.475 995.227,-141.892 1025.37,-131.781"/>
<polygon fill="midnightblue" stroke="midnightblue" points="1026.67,-135.037 1035.04,-128.538 1024.44,-128.4 1026.67,-135.037"/>
</g>
<!-- Node23&#45;&gt;Node6 -->
<g id="edge38" class="edge"><title>Node23&#45;&gt;Node6</title>
<path fill="none" stroke="midnightblue" d="M839.578,-220.381C827.036,-198.242 788.826,-136.703 738,-110 690.991,-85.3026 547.109,-73.6467 459.139,-68.6958"/>
<polygon fill="midnightblue" stroke="midnightblue" points="459.138,-65.1906 448.962,-68.1389 458.755,-72.1802 459.138,-65.1906"/>
</g>
<!-- Node23&#45;&gt;Node21 -->
<g id="edge37" class="edge"><title>Node23&#45;&gt;Node21</title>
<path fill="none" stroke="midnightblue" d="M852.906,-220.219C861.405,-212.316 874.41,-200.224 884.754,-190.606"/>
<polygon fill="midnightblue" stroke="midnightblue" points="887.403,-192.922 892.343,-183.55 882.636,-187.796 887.403,-192.922"/>
</g>
<!-- Node24 -->
<g id="node24" class="node"><title>Node24</title>
<polygon fill="white" stroke="#bfbfbf" points="529.934,-165.5 529.934,-183.5 582.066,-183.5 582.066,-165.5 529.934,-165.5"/>
<text text-anchor="middle" x="556" y="-171.5" font-family="Helvetica,sans-Serif" font-size="10.00">stdarg.h</text>
</g>
<!-- Node23&#45;&gt;Node24 -->
<g id="edge36" class="edge"><title>Node23&#45;&gt;Node24</title>
<path fill="none" stroke="midnightblue" d="M800.259,-220.45C743.463,-209.998 645.357,-191.944 592.409,-182.2"/>
<polygon fill="midnightblue" stroke="midnightblue" points="592.916,-178.735 582.448,-180.367 591.649,-185.619 592.916,-178.735"/>
</g>
<!-- Node23&#45;&gt;Node25 -->
<g id="edge39" class="edge"><title>Node23&#45;&gt;Node25</title>
<path fill="none" stroke="midnightblue" d="M876.502,-220.45C914.983,-210.92 978.985,-195.069 1019.8,-184.961"/>
<polygon fill="midnightblue" stroke="midnightblue" points="1020.78,-188.324 1029.65,-182.522 1019.1,-181.529 1020.78,-188.324"/>
</g>
<!-- Node25&#45;&gt;Node6 -->
<g id="edge40" class="edge"><title>Node25&#45;&gt;Node6</title>
<path fill="none" stroke="midnightblue" d="M1052.15,-165.466C1041.33,-151.318 1016.65,-122.295 988,-110 940.516,-89.6219 607.964,-74.1596 459.402,-68.1888"/>
<polygon fill="midnightblue" stroke="midnightblue" points="459.161,-64.6765 449.03,-67.7754 458.883,-71.671 459.161,-64.6765"/>
</g>
<!-- Node25&#45;&gt;Node26 -->
<g id="edge41" class="edge"><title>Node25&#45;&gt;Node26</title>
<path fill="none" stroke="midnightblue" d="M1067.87,-165.45C1077.7,-157.434 1093.02,-144.947 1105.01,-135.166"/>
<polygon fill="midnightblue" stroke="midnightblue" points="1107.5,-137.657 1113.03,-128.625 1103.07,-132.232 1107.5,-137.657"/>
</g>
<!-- Node26&#45;&gt;Node6 -->
<g id="edge42" class="edge"><title>Node26&#45;&gt;Node6</title>
<path fill="none" stroke="midnightblue" d="M1100.43,-111.738C1097.61,-111.063 1094.75,-110.459 1092,-110 971.778,-89.9354 612.891,-74.1694 459.167,-68.1479"/>
<polygon fill="midnightblue" stroke="midnightblue" points="459.03,-64.64 448.901,-67.7483 458.758,-71.6347 459.03,-64.64"/>
</g>
<!-- Node26&#45;&gt;Node7 -->
<g id="edge44" class="edge"><title>Node26&#45;&gt;Node7</title>
<path fill="none" stroke="midnightblue" d="M1100.32,-112.272C1097.52,-111.506 1094.69,-110.734 1092,-110 969.576,-76.6206 824.091,-37.2716 759.195,-19.7359"/>
<polygon fill="midnightblue" stroke="midnightblue" points="760.054,-16.3426 749.488,-17.113 758.229,-23.1003 760.054,-16.3426"/>
</g>
<!-- Node26&#45;&gt;Node14 -->
<g id="edge43" class="edge"><title>Node26&#45;&gt;Node14</title>
<path fill="none" stroke="midnightblue" d="M1100.39,-111.949C1097.58,-111.238 1094.73,-110.568 1092,-110 995.527,-89.9544 880.34,-76.0401 820.892,-69.586"/>
<polygon fill="midnightblue" stroke="midnightblue" points="821.119,-66.0904 810.803,-68.5044 820.373,-73.0505 821.119,-66.0904"/>
</g>
<!-- Node27&#45;&gt;Node4 -->
<g id="edge47" class="edge"><title>Node27&#45;&gt;Node4</title>
<path fill="none" stroke="midnightblue" d="M94.0115,-170.613C199.079,-161.424 525.09,-132.911 632.379,-123.528"/>
<polygon fill="midnightblue" stroke="midnightblue" points="632.984,-126.988 642.641,-122.63 632.374,-120.015 632.984,-126.988"/>
</g>
<!-- Node27&#45;&gt;Node6 -->
<g id="edge48" class="edge"><title>Node27&#45;&gt;Node6</title>
<path fill="none" stroke="midnightblue" d="M64.5213,-165.272C70.9431,-151.355 85.9586,-123.381 108,-110 142.187,-89.2452 245.801,-76.9085 316.922,-70.6659"/>
<polygon fill="midnightblue" stroke="midnightblue" points="317.502,-74.1291 327.167,-69.7888 316.905,-67.1546 317.502,-74.1291"/>
</g>
<!-- Node28&#45;&gt;Node4 -->
<g id="edge56" class="edge"><title>Node28&#45;&gt;Node4</title>
<path fill="none" stroke="midnightblue" d="M925.507,-220.496C898.782,-211.967 855.66,-197.818 819,-184 775.001,-167.416 724.821,-145.942 694.549,-132.699"/>
<polygon fill="midnightblue" stroke="midnightblue" points="695.647,-129.359 685.084,-128.543 692.833,-135.768 695.647,-129.359"/>
</g>
<!-- Node28&#45;&gt;Node6 -->
<g id="edge59" class="edge"><title>Node28&#45;&gt;Node6</title>
<path fill="none" stroke="midnightblue" d="M960.935,-220.095C974.803,-207.346 996.798,-182.732 983,-165 951.032,-123.919 609.876,-86.6364 459.037,-72.0284"/>
<polygon fill="midnightblue" stroke="midnightblue" points="459.236,-68.5315 448.947,-71.0576 458.566,-75.4993 459.236,-68.5315"/>
</g>
<!-- Node28&#45;&gt;Node9 -->
<g id="edge58" class="edge"><title>Node28&#45;&gt;Node9</title>
<path fill="none" stroke="midnightblue" d="M981.831,-220.45C1016.96,-211.279 1074.5,-196.256 1113.29,-186.128"/>
<polygon fill="midnightblue" stroke="midnightblue" points="1114.42,-189.451 1123.21,-183.538 1112.65,-182.678 1114.42,-189.451"/>
</g>
<!-- Node28&#45;&gt;Node21 -->
<g id="edge57" class="edge"><title>Node28&#45;&gt;Node21</title>
<path fill="none" stroke="midnightblue" d="M943.188,-220.219C935.806,-212.394 924.55,-200.463 915.521,-190.892"/>
<polygon fill="midnightblue" stroke="midnightblue" points="918.002,-188.422 908.594,-183.55 912.91,-193.225 918.002,-188.422"/>
</g>
<!-- Node29&#45;&gt;Node6 -->
<g id="edge61" class="edge"><title>Node29&#45;&gt;Node6</title>
<path fill="none" stroke="midnightblue" d="M108.9,-330.424C112.936,-312.536 122,-268.171 122,-230.5 122,-230.5 122,-230.5 122,-173.5 122,-127.827 258.33,-92.197 335.792,-75.6386"/>
<polygon fill="midnightblue" stroke="midnightblue" points="336.785,-79.0063 345.852,-73.5244 335.345,-72.1559 336.785,-79.0063"/>
</g>
<!-- Node30&#45;&gt;Node6 -->
<g id="edge64" class="edge"><title>Node30&#45;&gt;Node6</title>
<path fill="none" stroke="midnightblue" d="M357.597,-220.387C350.479,-211.99 340.202,-198.143 336,-184 326.634,-152.473 322.245,-139.875 336,-110 341.823,-97.3517 353.212,-86.9584 363.85,-79.406"/>
<polygon fill="midnightblue" stroke="midnightblue" points="366.035,-82.1587 372.471,-73.7431 362.191,-76.308 366.035,-82.1587"/>
</g>
<!-- Node30&#45;&gt;Node24 -->
<g id="edge63" class="edge"><title>Node30&#45;&gt;Node24</title>
<path fill="none" stroke="midnightblue" d="M384.721,-223.028C416.617,-214.177 479.987,-196.593 520.063,-185.472"/>
<polygon fill="midnightblue" stroke="midnightblue" points="521.016,-188.84 529.716,-182.793 519.145,-182.095 521.016,-188.84"/>
</g>
<!-- Node31&#45;&gt;Node3 -->
<g id="edge70" class="edge"><title>Node31&#45;&gt;Node3</title>
<path fill="none" stroke="midnightblue" d="M631.25,-495.219C636.978,-487.629 645.622,-476.175 652.729,-466.76"/>
<polygon fill="midnightblue" stroke="midnightblue" points="655.694,-468.64 658.925,-458.55 650.107,-464.423 655.694,-468.64"/>
</g>
<!-- Node32 -->
<g id="node32" class="node"><title>Node32</title>
<g id="a_node32"><a xlink:href="$AP__HAL__Linux__Namespace_8h.html" xlink:title="AP_HAL_Linux_Namespace.h">
<polygon fill="white" stroke="black" points="444.458,-440.5 444.458,-458.5 595.542,-458.5 595.542,-440.5 444.458,-440.5"/>
<text text-anchor="middle" x="520" y="-446.5" font-family="Helvetica,sans-Serif" font-size="10.00">AP_HAL_Linux_Namespace.h</text>
</a>
</g>
</g>
<!-- Node31&#45;&gt;Node32 -->
<g id="edge71" class="edge"><title>Node31&#45;&gt;Node32</title>
<path fill="none" stroke="midnightblue" d="M609.053,-495.45C592.093,-486.89 565.029,-473.229 545.184,-463.212"/>
<polygon fill="midnightblue" stroke="midnightblue" points="546.602,-460.007 536.097,-458.625 543.447,-466.256 546.602,-460.007"/>
</g>
<!-- Node33&#45;&gt;Node4 -->
<g id="edge73" class="edge"><title>Node33&#45;&gt;Node4</title>
<path fill="none" stroke="midnightblue" d="M1259.73,-169.43C1245.03,-167.979 1228.27,-166.368 1213,-165 1019.54,-147.667 787.253,-129.668 701.219,-123.097"/>
<polygon fill="midnightblue" stroke="midnightblue" points="701.468,-119.606 691.23,-122.335 700.935,-126.585 701.468,-119.606"/>
</g>
<!-- Node33&#45;&gt;Node22 -->
<g id="edge74" class="edge"><title>Node33&#45;&gt;Node22</title>
<path fill="none" stroke="midnightblue" d="M1260.02,-165.457C1220.1,-157.315 1156.79,-144.093 1092.95,-129.15"/>
<polygon fill="midnightblue" stroke="midnightblue" points="1093.66,-125.72 1083.12,-126.836 1092.05,-132.534 1093.66,-125.72"/>
</g>
</g>
</svg>
