<?xml version="1.0" encoding="UTF-8" standalone="no"?>
<!DOCTYPE svg PUBLIC "-//W3C//DTD SVG 1.1//EN"
 "http://www.w3.org/Graphics/SVG/1.1/DTD/svg11.dtd">
<!-- Generated by graphviz version 2.38.0 (20140413.2041)
 -->
<!-- Title: location_offset Pages: 1 -->
<svg width="613pt" height="474pt"
 viewBox="0.00 0.00 612.64 474.00" xmlns="http://www.w3.org/2000/svg" xmlns:xlink="http://www.w3.org/1999/xlink">
<g id="graph0" class="graph" transform="scale(1 1) rotate(0) translate(4 470)">
<title>location_offset</title>
<polygon fill="white" stroke="none" points="-4,4 -4,-470 608.642,-470 608.642,4 -4,4"/>
<!-- Node1 -->
<g id="node1" class="node"><title>Node1</title>
<polygon fill="#bfbfbf" stroke="black" points="0,-120.5 0,-138.5 80.3115,-138.5 80.3115,-120.5 0,-120.5"/>
<text text-anchor="middle" x="40.1558" y="-126.5" font-family="Helvetica,sans-Serif" font-size="10.00">location_offset</text>
</g>
<!-- Node2 -->
<g id="node2" class="node"><title>Node2</title>
<g id="a_node2"><a xlink:href="$classAP__AHRS__DCM.html#ac8f908b8d8551b3201a104d03a5c31b7" xlink:title="AP_AHRS_DCM::get_position">
<polygon fill="white" stroke="black" points="273.922,-167.5 273.922,-185.5 424.429,-185.5 424.429,-167.5 273.922,-167.5"/>
<text text-anchor="middle" x="349.175" y="-173.5" font-family="Helvetica,sans-Serif" font-size="10.00">AP_AHRS_DCM::get_position</text>
</a>
</g>
</g>
<!-- Node1&#45;&gt;Node2 -->
<g id="edge1" class="edge"><title>Node1&#45;&gt;Node2</title>
<path fill="none" stroke="midnightblue" d="M85.2941,-140.932C95.4386,-143.319 106.213,-145.665 116.312,-147.5 168.599,-157.001 228.088,-164.372 273.717,-169.306"/>
<polygon fill="midnightblue" stroke="midnightblue" points="85.9498,-137.49 75.4079,-138.548 84.3089,-144.295 85.9498,-137.49"/>
</g>
<!-- Node5 -->
<g id="node5" class="node"><title>Node5</title>
<g id="a_node5"><a xlink:href="$classNavEKF2__core.html#a4f494dec9c2f8273a769e664b9f50e86" xlink:title="NavEKF2_core::getLLH">
<polygon fill="white" stroke="black" points="116.312,-81.5 116.312,-99.5 237.922,-99.5 237.922,-81.5 116.312,-81.5"/>
<text text-anchor="middle" x="177.117" y="-87.5" font-family="Helvetica,sans-Serif" font-size="10.00">NavEKF2_core::getLLH</text>
</a>
</g>
</g>
<!-- Node1&#45;&gt;Node5 -->
<g id="edge4" class="edge"><title>Node1&#45;&gt;Node5</title>
<path fill="none" stroke="midnightblue" d="M82.2435,-117.627C102.255,-111.844 125.943,-104.999 144.517,-99.6315"/>
<polygon fill="midnightblue" stroke="midnightblue" points="81.093,-114.316 72.4577,-120.455 83.0363,-121.041 81.093,-114.316"/>
</g>
<!-- Node9 -->
<g id="node9" class="node"><title>Node9</title>
<g id="a_node9"><a xlink:href="$classNavEKF__core.html#aad766a224fb0ee2f400a70c716abe57b" xlink:title="NavEKF_core::getLLH">
<polygon fill="white" stroke="black" points="119.092,-120.5 119.092,-138.5 235.141,-138.5 235.141,-120.5 119.092,-120.5"/>
<text text-anchor="middle" x="177.117" y="-126.5" font-family="Helvetica,sans-Serif" font-size="10.00">NavEKF_core::getLLH</text>
</a>
</g>
</g>
<!-- Node1&#45;&gt;Node9 -->
<g id="edge9" class="edge"><title>Node1&#45;&gt;Node9</title>
<path fill="none" stroke="midnightblue" d="M90.6663,-129.5C99.8372,-129.5 109.486,-129.5 118.864,-129.5"/>
<polygon fill="midnightblue" stroke="midnightblue" points="90.5549,-126 80.5549,-129.5 90.5548,-133 90.5549,-126"/>
</g>
<!-- Node11 -->
<g id="node11" class="node"><title>Node11</title>
<g id="a_node11"><a xlink:href="$location_8cpp.html#ab0e06d28afb9d14043e1938af277396c" xlink:title="location_update">
<polygon fill="white" stroke="black" points="133.809,-196.5 133.809,-214.5 220.424,-214.5 220.424,-196.5 133.809,-196.5"/>
<text text-anchor="middle" x="177.117" y="-202.5" font-family="Helvetica,sans-Serif" font-size="10.00">location_update</text>
</a>
</g>
</g>
<!-- Node1&#45;&gt;Node11 -->
<g id="edge14" class="edge"><title>Node1&#45;&gt;Node11</title>
<path fill="none" stroke="midnightblue" d="M60.9101,-144.994C75.6306,-156.078 96.5234,-170.857 116.312,-181.5 126.953,-187.223 139.26,-192.389 149.933,-196.449"/>
<polygon fill="midnightblue" stroke="midnightblue" points="62.676,-141.938 52.6073,-138.641 58.4221,-147.497 62.676,-141.938"/>
</g>
<!-- Node20 -->
<g id="node20" class="node"><title>Node20</title>
<g id="a_node20"><a xlink:href="$examples_2location_2location_8cpp.html#af4c4a815e04b2917f9e189120d8b2ad1" xlink:title="test_one_offset">
<polygon fill="white" stroke="black" points="135.013,-34.5 135.013,-52.5 219.221,-52.5 219.221,-34.5 135.013,-34.5"/>
<text text-anchor="middle" x="177.117" y="-40.5" font-family="Helvetica,sans-Serif" font-size="10.00">test_one_offset</text>
</a>
</g>
</g>
<!-- Node1&#45;&gt;Node20 -->
<g id="edge24" class="edge"><title>Node1&#45;&gt;Node20</title>
<path fill="none" stroke="midnightblue" d="M59.1403,-113.801C73.8787,-101.395 95.6084,-84.1241 116.312,-71.5 128.155,-64.278 142.164,-57.6278 153.645,-52.6222"/>
<polygon fill="midnightblue" stroke="midnightblue" points="56.6613,-111.316 51.3311,-120.472 61.2079,-116.638 56.6613,-111.316"/>
</g>
<!-- Node3 -->
<g id="node3" class="node"><title>Node3</title>
<g id="a_node3"><a xlink:href="$classAP__AHRS__NavEKF.html#ab2bc37cda9f3338c1738cc21a533ab24" xlink:title="AP_AHRS_NavEKF::get\l_position">
<polygon fill="white" stroke="black" points="470.067,-121.5 470.067,-149.5 595.003,-149.5 595.003,-121.5 470.067,-121.5"/>
<text text-anchor="start" x="478.067" y="-137.5" font-family="Helvetica,sans-Serif" font-size="10.00">AP_AHRS_NavEKF::get</text>
<text text-anchor="middle" x="532.535" y="-127.5" font-family="Helvetica,sans-Serif" font-size="10.00">_position</text>
</a>
</g>
</g>
<!-- Node2&#45;&gt;Node3 -->
<g id="edge2" class="edge"><title>Node2&#45;&gt;Node3</title>
<path fill="none" stroke="midnightblue" d="M400.354,-165.156C421.917,-160.281 447.324,-154.538 470.008,-149.409"/>
<polygon fill="midnightblue" stroke="midnightblue" points="399.407,-161.782 390.425,-167.401 400.951,-168.609 399.407,-161.782"/>
</g>
<!-- Node4 -->
<g id="node4" class="node"><title>Node4</title>
<g id="a_node4"><a xlink:href="$classAP__AHRS__NavEKF.html#a044e8a655c79b6b957047387b6fc0bbb" xlink:title="AP_AHRS_NavEKF::get\l_secondary_position">
<polygon fill="white" stroke="black" points="470.067,-168.5 470.067,-196.5 595.003,-196.5 595.003,-168.5 470.067,-168.5"/>
<text text-anchor="start" x="478.067" y="-184.5" font-family="Helvetica,sans-Serif" font-size="10.00">AP_AHRS_NavEKF::get</text>
<text text-anchor="middle" x="532.535" y="-174.5" font-family="Helvetica,sans-Serif" font-size="10.00">_secondary_position</text>
</a>
</g>
</g>
<!-- Node2&#45;&gt;Node4 -->
<g id="edge3" class="edge"><title>Node2&#45;&gt;Node4</title>
<path fill="none" stroke="midnightblue" d="M434.78,-179.299C446.581,-179.689 458.52,-180.084 469.793,-180.457"/>
<polygon fill="midnightblue" stroke="midnightblue" points="434.575,-175.79 424.465,-178.958 434.343,-182.787 434.575,-175.79"/>
</g>
<!-- Node6 -->
<g id="node6" class="node"><title>Node6</title>
<g id="a_node6"><a xlink:href="$classNavEKF2.html#a6d98fc3527f044a364e0387fb79609f5" xlink:title="NavEKF2::getLLH">
<polygon fill="white" stroke="black" points="300.877,-80.5 300.877,-98.5 397.473,-98.5 397.473,-80.5 300.877,-80.5"/>
<text text-anchor="middle" x="349.175" y="-86.5" font-family="Helvetica,sans-Serif" font-size="10.00">NavEKF2::getLLH</text>
</a>
</g>
</g>
<!-- Node5&#45;&gt;Node6 -->
<g id="edge5" class="edge"><title>Node5&#45;&gt;Node6</title>
<path fill="none" stroke="midnightblue" d="M248.342,-90.0871C265.995,-89.9832 284.527,-89.8743 300.767,-89.7788"/>
<polygon fill="midnightblue" stroke="midnightblue" points="248.052,-86.5886 238.073,-90.1474 248.093,-93.5885 248.052,-86.5886"/>
</g>
<!-- Node6&#45;&gt;Node3 -->
<g id="edge6" class="edge"><title>Node6&#45;&gt;Node3</title>
<path fill="none" stroke="midnightblue" d="M395.731,-101.055C420.131,-107.244 450.381,-114.916 476.134,-121.448"/>
<polygon fill="midnightblue" stroke="midnightblue" points="396.56,-97.6542 386.006,-98.5881 394.839,-104.439 396.56,-97.6542"/>
</g>
<!-- Node7 -->
<g id="node7" class="node"><title>Node7</title>
<g id="a_node7"><a xlink:href="$classAP__AHRS__NavEKF.html#a150ada6f732ef9a5ad2327047079511c" xlink:title="AP_AHRS_NavEKF::get\l_location">
<polygon fill="white" stroke="black" points="470.067,-74.5 470.067,-102.5 595.003,-102.5 595.003,-74.5 470.067,-74.5"/>
<text text-anchor="start" x="478.067" y="-90.5" font-family="Helvetica,sans-Serif" font-size="10.00">AP_AHRS_NavEKF::get</text>
<text text-anchor="middle" x="532.535" y="-80.5" font-family="Helvetica,sans-Serif" font-size="10.00">_location</text>
</a>
</g>
</g>
<!-- Node6&#45;&gt;Node7 -->
<g id="edge7" class="edge"><title>Node6&#45;&gt;Node7</title>
<path fill="none" stroke="midnightblue" d="M407.908,-89.1817C427.654,-89.0728 449.813,-88.9506 469.858,-88.8401"/>
<polygon fill="midnightblue" stroke="midnightblue" points="407.806,-85.6821 397.825,-89.2373 407.845,-92.682 407.806,-85.6821"/>
</g>
<!-- Node8 -->
<g id="node8" class="node"><title>Node8</title>
<g id="a_node8"><a xlink:href="$classGCS__MAVLINK.html#a558ba3447048b78cb9dde460053e2741" xlink:title="GCS_MAVLINK::send_ahrs2">
<polygon fill="white" stroke="black" points="460.429,-37.5 460.429,-55.5 604.642,-55.5 604.642,-37.5 460.429,-37.5"/>
<text text-anchor="middle" x="532.535" y="-43.5" font-family="Helvetica,sans-Serif" font-size="10.00">GCS_MAVLINK::send_ahrs2</text>
</a>
</g>
</g>
<!-- Node6&#45;&gt;Node8 -->
<g id="edge8" class="edge"><title>Node6&#45;&gt;Node8</title>
<path fill="none" stroke="midnightblue" d="M397.987,-78.1641C427.85,-71.0836 465.769,-62.0929 493.566,-55.5023"/>
<polygon fill="midnightblue" stroke="midnightblue" points="397.117,-74.7731 388.194,-80.4858 398.732,-81.5843 397.117,-74.7731"/>
</g>
<!-- Node10 -->
<g id="node10" class="node"><title>Node10</title>
<g id="a_node10"><a xlink:href="$classNavEKF.html#adc74369bdb7425b717f68eec54aa123f" xlink:title="NavEKF::getLLH">
<polygon fill="white" stroke="black" points="303.658,-125.5 303.658,-143.5 394.692,-143.5 394.692,-125.5 303.658,-125.5"/>
<text text-anchor="middle" x="349.175" y="-131.5" font-family="Helvetica,sans-Serif" font-size="10.00">NavEKF::getLLH</text>
</a>
</g>
</g>
<!-- Node9&#45;&gt;Node10 -->
<g id="edge10" class="edge"><title>Node9&#45;&gt;Node10</title>
<path fill="none" stroke="midnightblue" d="M245.31,-131.476C264.885,-132.051 285.781,-132.666 303.591,-133.189"/>
<polygon fill="midnightblue" stroke="midnightblue" points="245.315,-127.974 235.217,-131.179 245.11,-134.971 245.315,-127.974"/>
</g>
<!-- Node10&#45;&gt;Node3 -->
<g id="edge11" class="edge"><title>Node10&#45;&gt;Node3</title>
<path fill="none" stroke="midnightblue" d="M405.081,-134.803C425.495,-134.915 448.79,-135.044 469.777,-135.159"/>
<polygon fill="midnightblue" stroke="midnightblue" points="405.025,-131.302 395.006,-134.747 404.986,-138.302 405.025,-131.302"/>
</g>
<!-- Node10&#45;&gt;Node4 -->
<g id="edge12" class="edge"><title>Node10&#45;&gt;Node4</title>
<path fill="none" stroke="midnightblue" d="M394.008,-146.101C419.382,-152.817 451.503,-161.318 478.32,-168.416"/>
<polygon fill="midnightblue" stroke="midnightblue" points="394.85,-142.704 384.288,-143.528 393.059,-149.471 394.85,-142.704"/>
</g>
<!-- Node10&#45;&gt;Node7 -->
<g id="edge13" class="edge"><title>Node10&#45;&gt;Node7</title>
<path fill="none" stroke="midnightblue" d="M395.731,-122.945C420.131,-116.756 450.381,-109.084 476.134,-102.552"/>
<polygon fill="midnightblue" stroke="midnightblue" points="394.839,-119.561 386.006,-125.412 396.56,-126.346 394.839,-119.561"/>
</g>
<!-- Node11&#45;&gt;Node2 -->
<g id="edge15" class="edge"><title>Node11&#45;&gt;Node2</title>
<path fill="none" stroke="midnightblue" d="M230.713,-196.531C251.241,-193.03 274.735,-189.024 295.291,-185.518"/>
<polygon fill="midnightblue" stroke="midnightblue" points="229.86,-193.126 220.591,-198.257 231.037,-200.026 229.86,-193.126"/>
</g>
<!-- Node12 -->
<g id="node12" class="node"><title>Node12</title>
<g id="a_node12"><a xlink:href="$classSITL_1_1Aircraft.html#a4a72b2c0617cf55b24b062daaae685b9" xlink:title="SITL::Aircraft::update\l_position">
<polygon fill="white" stroke="black" points="293.932,-310.5 293.932,-338.5 404.419,-338.5 404.419,-310.5 293.932,-310.5"/>
<text text-anchor="start" x="301.932" y="-326.5" font-family="Helvetica,sans-Serif" font-size="10.00">SITL::Aircraft::update</text>
<text text-anchor="middle" x="349.175" y="-316.5" font-family="Helvetica,sans-Serif" font-size="10.00">_position</text>
</a>
</g>
</g>
<!-- Node11&#45;&gt;Node12 -->
<g id="edge16" class="edge"><title>Node11&#45;&gt;Node12</title>
<path fill="none" stroke="midnightblue" d="M199.692,-220.597C232.864,-243.81 295.927,-287.939 328.144,-310.483"/>
<polygon fill="midnightblue" stroke="midnightblue" points="201.378,-217.506 191.179,-214.64 197.365,-223.241 201.378,-217.506"/>
</g>
<!-- Node13 -->
<g id="node13" class="node"><title>Node13</title>
<g id="a_node13"><a xlink:href="$classSITL_1_1Balloon.html#a34f5716a3c9ba0805d89dc36656ae90c" xlink:title="SITL::Balloon::update">
<polygon fill="white" stroke="black" points="476.447,-447.5 476.447,-465.5 588.624,-465.5 588.624,-447.5 476.447,-447.5"/>
<text text-anchor="middle" x="532.535" y="-453.5" font-family="Helvetica,sans-Serif" font-size="10.00">SITL::Balloon::update</text>
</a>
</g>
</g>
<!-- Node12&#45;&gt;Node13 -->
<g id="edge17" class="edge"><title>Node12&#45;&gt;Node13</title>
<path fill="none" stroke="midnightblue" d="M365.802,-347.012C385.051,-373.013 420.186,-415.19 460.429,-438.5 466.82,-442.202 473.965,-445.151 481.194,-447.497"/>
<polygon fill="midnightblue" stroke="midnightblue" points="368.601,-344.909 359.899,-338.865 362.933,-349.017 368.601,-344.909"/>
</g>
<!-- Node14 -->
<g id="node14" class="node"><title>Node14</title>
<g id="a_node14"><a xlink:href="$classSITL_1_1CRRCSim.html#ada236d396837feb2c5efe885ea504f87" xlink:title="SITL::CRRCSim::update">
<polygon fill="white" stroke="black" points="470.072,-410.5 470.072,-428.5 594.998,-428.5 594.998,-410.5 470.072,-410.5"/>
<text text-anchor="middle" x="532.535" y="-416.5" font-family="Helvetica,sans-Serif" font-size="10.00">SITL::CRRCSim::update</text>
</a>
</g>
</g>
<!-- Node12&#45;&gt;Node14 -->
<g id="edge18" class="edge"><title>Node12&#45;&gt;Node14</title>
<path fill="none" stroke="midnightblue" d="M374.065,-345.047C395.404,-362.416 428.187,-386.76 460.429,-401.5 468.304,-405.1 477.013,-408.058 485.556,-410.46"/>
<polygon fill="midnightblue" stroke="midnightblue" points="376.136,-342.217 366.2,-338.538 371.672,-347.61 376.136,-342.217"/>
</g>
<!-- Node15 -->
<g id="node15" class="node"><title>Node15</title>
<g id="a_node15"><a xlink:href="$classSITL_1_1Gazebo.html#a120a541070549b98ba4740c91abf97a7" xlink:title="SITL::Gazebo::update">
<polygon fill="white" stroke="black" points="475.614,-373.5 475.614,-391.5 589.456,-391.5 589.456,-373.5 475.614,-373.5"/>
<text text-anchor="middle" x="532.535" y="-379.5" font-family="Helvetica,sans-Serif" font-size="10.00">SITL::Gazebo::update</text>
</a>
</g>
</g>
<!-- Node12&#45;&gt;Node15 -->
<g id="edge19" class="edge"><title>Node12&#45;&gt;Node15</title>
<path fill="none" stroke="midnightblue" d="M395.501,-342.102C415.285,-349.484 438.85,-357.873 460.429,-364.5 470.898,-367.715 482.357,-370.802 492.961,-373.483"/>
<polygon fill="midnightblue" stroke="midnightblue" points="396.709,-338.818 386.117,-338.572 394.244,-345.369 396.709,-338.818"/>
</g>
<!-- Node16 -->
<g id="node16" class="node"><title>Node16</title>
<g id="a_node16"><a xlink:href="$classSITL_1_1Helicopter.html#a0e8602ead0fe804552ab7ade9a1b171e" xlink:title="SITL::Helicopter::update">
<polygon fill="white" stroke="black" points="470.617,-336.5 470.617,-354.5 594.454,-354.5 594.454,-336.5 470.617,-336.5"/>
<text text-anchor="middle" x="532.535" y="-342.5" font-family="Helvetica,sans-Serif" font-size="10.00">SITL::Helicopter::update</text>
</a>
</g>
</g>
<!-- Node12&#45;&gt;Node16 -->
<g id="edge20" class="edge"><title>Node12&#45;&gt;Node16</title>
<path fill="none" stroke="midnightblue" d="M414.523,-331.951C432.73,-334.059 452.487,-336.347 470.492,-338.432"/>
<polygon fill="midnightblue" stroke="midnightblue" points="414.925,-328.474 404.589,-330.801 414.12,-335.428 414.925,-328.474"/>
</g>
<!-- Node17 -->
<g id="node17" class="node"><title>Node17</title>
<g id="a_node17"><a xlink:href="$classSITL_1_1MultiCopter.html#a1c12d5064cc2851e9861353e694805bc" xlink:title="SITL::MultiCopter::\lupdate">
<polygon fill="white" stroke="black" points="482.855,-289.5 482.855,-317.5 582.215,-317.5 582.215,-289.5 482.855,-289.5"/>
<text text-anchor="start" x="490.855" y="-305.5" font-family="Helvetica,sans-Serif" font-size="10.00">SITL::MultiCopter::</text>
<text text-anchor="middle" x="532.535" y="-295.5" font-family="Helvetica,sans-Serif" font-size="10.00">update</text>
</a>
</g>
</g>
<!-- Node12&#45;&gt;Node17 -->
<g id="edge21" class="edge"><title>Node12&#45;&gt;Node17</title>
<path fill="none" stroke="midnightblue" d="M414.691,-317.03C437.082,-314.437 461.801,-311.575 482.714,-309.153"/>
<polygon fill="midnightblue" stroke="midnightblue" points="414.12,-313.572 404.589,-318.199 414.925,-320.526 414.12,-313.572"/>
</g>
<!-- Node18 -->
<g id="node18" class="node"><title>Node18</title>
<g id="a_node18"><a xlink:href="$classSITL_1_1SimRover.html#a0692a116e9c7cff78adb0b08b0d571b2" xlink:title="SITL::SimRover::update">
<polygon fill="white" stroke="black" points="471.178,-252.5 471.178,-270.5 593.892,-270.5 593.892,-252.5 471.178,-252.5"/>
<text text-anchor="middle" x="532.535" y="-258.5" font-family="Helvetica,sans-Serif" font-size="10.00">SITL::SimRover::update</text>
</a>
</g>
</g>
<!-- Node12&#45;&gt;Node18 -->
<g id="edge22" class="edge"><title>Node12&#45;&gt;Node18</title>
<path fill="none" stroke="midnightblue" d="M391.937,-306.476C412.373,-298.006 437.464,-288.121 460.429,-280.5 471.344,-276.878 483.372,-273.454 494.383,-270.537"/>
<polygon fill="midnightblue" stroke="midnightblue" points="390.48,-303.291 382.605,-310.379 393.181,-309.749 390.48,-303.291"/>
</g>
<!-- Node19 -->
<g id="node19" class="node"><title>Node19</title>
<g id="a_node19"><a xlink:href="$classSITL_1_1Tracker.html#aa2d26c0841ead98b60a9291eb4d74b71" xlink:title="SITL::Tracker::update">
<polygon fill="white" stroke="black" points="476.364,-215.5 476.364,-233.5 588.707,-233.5 588.707,-215.5 476.364,-215.5"/>
<text text-anchor="middle" x="532.535" y="-221.5" font-family="Helvetica,sans-Serif" font-size="10.00">SITL::Tracker::update</text>
</a>
</g>
</g>
<!-- Node12&#45;&gt;Node19 -->
<g id="edge23" class="edge"><title>Node12&#45;&gt;Node19</title>
<path fill="none" stroke="midnightblue" d="M373.192,-303.567C394.42,-285.289 427.534,-259.283 460.429,-243.5 468.839,-239.465 478.234,-236.186 487.37,-233.56"/>
<polygon fill="midnightblue" stroke="midnightblue" points="370.612,-301.174 365.396,-310.395 375.224,-306.439 370.612,-301.174"/>
</g>
<!-- Node21 -->
<g id="node21" class="node"><title>Node21</title>
<g id="a_node21"><a xlink:href="$examples_2location_2location_8cpp.html#ac7efc0072d2ac5bca8b847032980a1dd" xlink:title="test_offset">
<polygon fill="white" stroke="black" points="318.194,-22.5 318.194,-40.5 380.156,-40.5 380.156,-22.5 318.194,-22.5"/>
<text text-anchor="middle" x="349.175" y="-28.5" font-family="Helvetica,sans-Serif" font-size="10.00">test_offset</text>
</a>
</g>
</g>
<!-- Node20&#45;&gt;Node21 -->
<g id="edge25" class="edge"><title>Node20&#45;&gt;Node21</title>
<path fill="none" stroke="midnightblue" d="M229.622,-39.8656C258.526,-37.826 293.583,-35.3522 318.048,-33.6259"/>
<polygon fill="midnightblue" stroke="midnightblue" points="229.012,-36.3998 219.283,-40.5951 229.505,-43.3825 229.012,-36.3998"/>
</g>
<!-- Node22 -->
<g id="node22" class="node"><title>Node22</title>
<g id="a_node22"><a xlink:href="$examples_2location_2location_8cpp.html#a7dfd9b79bc5a37d7df40207afbc5431f" xlink:title="setup">
<polygon fill="white" stroke="black" points="512.304,-0.5 512.304,-18.5 552.767,-18.5 552.767,-0.5 512.304,-0.5"/>
<text text-anchor="middle" x="532.535" y="-6.5" font-family="Helvetica,sans-Serif" font-size="10.00">setup</text>
</a>
</g>
</g>
<!-- Node21&#45;&gt;Node22 -->
<g id="edge26" class="edge"><title>Node21&#45;&gt;Node22</title>
<path fill="none" stroke="midnightblue" d="M390.724,-26.5812C428.591,-21.9877 483.466,-15.3311 512.253,-11.8391"/>
<polygon fill="midnightblue" stroke="midnightblue" points="390.037,-23.1388 380.531,-27.8177 390.88,-30.0879 390.037,-23.1388"/>
</g>
</g>
</svg>
