<?xml version="1.0" encoding="UTF-8" standalone="no"?>
<!DOCTYPE svg PUBLIC "-//W3C//DTD SVG 1.1//EN"
 "http://www.w3.org/Graphics/SVG/1.1/DTD/svg11.dtd">
<!-- Generated by graphviz version 2.38.0 (20140413.2041)
 -->
<!-- Title: get_distance_cm Pages: 1 -->
<svg width="447pt" height="64pt"
 viewBox="0.00 0.00 446.85 64.00" xmlns="http://www.w3.org/2000/svg" xmlns:xlink="http://www.w3.org/1999/xlink">
<g id="graph0" class="graph" transform="scale(1 1) rotate(0) translate(4 60)">
<title>get_distance_cm</title>
<polygon fill="white" stroke="none" points="-4,4 -4,-60 442.846,-60 442.846,4 -4,4"/>
<!-- Node1 -->
<g id="node1" class="node"><title>Node1</title>
<polygon fill="#bfbfbf" stroke="black" points="0,-18.5 0,-36.5 91.6006,-36.5 91.6006,-18.5 0,-18.5"/>
<text text-anchor="middle" x="45.8003" y="-24.5" font-family="Helvetica,sans-Serif" font-size="10.00">get_distance_cm</text>
</g>
<!-- Node2 -->
<g id="node2" class="node"><title>Node2</title>
<g id="a_node2"><a xlink:href="$location_8cpp.html#aa825a788804b8dd4cf1e3cfb42960a8b" xlink:title="get_distance">
<polygon fill="white" stroke="black" points="127.601,-18.5 127.601,-36.5 200.31,-36.5 200.31,-18.5 127.601,-18.5"/>
<text text-anchor="middle" x="163.955" y="-24.5" font-family="Helvetica,sans-Serif" font-size="10.00">get_distance</text>
</a>
</g>
</g>
<!-- Node1&#45;&gt;Node2 -->
<g id="edge1" class="edge"><title>Node1&#45;&gt;Node2</title>
<path fill="none" stroke="midnightblue" d="M91.7088,-27.5C100.151,-27.5 108.984,-27.5 117.444,-27.5"/>
<polygon fill="midnightblue" stroke="midnightblue" points="117.527,-31.0001 127.527,-27.5 117.527,-24.0001 117.527,-31.0001"/>
</g>
<!-- Node3 -->
<g id="node3" class="node"><title>Node3</title>
<g id="a_node3"><a xlink:href="$location_8cpp.html#ad2368c582f3e0c135e2a74772f4db61a" xlink:title="longitude_scale">
<polygon fill="white" stroke="black" points="236.31,-37.5 236.31,-55.5 321.807,-55.5 321.807,-37.5 236.31,-37.5"/>
<text text-anchor="middle" x="279.058" y="-43.5" font-family="Helvetica,sans-Serif" font-size="10.00">longitude_scale</text>
</a>
</g>
</g>
<!-- Node2&#45;&gt;Node3 -->
<g id="edge2" class="edge"><title>Node2&#45;&gt;Node3</title>
<path fill="none" stroke="midnightblue" d="M200.431,-33.4596C208.533,-34.8206 217.309,-36.2948 225.945,-37.7457"/>
<polygon fill="midnightblue" stroke="midnightblue" points="225.53,-41.2248 235.972,-39.43 226.69,-34.3216 225.53,-41.2248"/>
</g>
<!-- Node5 -->
<g id="node5" class="node"><title>Node5</title>
<g id="a_node5"><a xlink:href="$AP__Math_8h.html#a4a065531591469723bec18f9034a91c3" xlink:title="pythagorous2">
<polygon fill="white" stroke="black" points="240.758,-0.5 240.758,-18.5 317.358,-18.5 317.358,-0.5 240.758,-0.5"/>
<text text-anchor="middle" x="279.058" y="-6.5" font-family="Helvetica,sans-Serif" font-size="10.00">pythagorous2</text>
</a>
</g>
</g>
<!-- Node2&#45;&gt;Node5 -->
<g id="edge4" class="edge"><title>Node2&#45;&gt;Node5</title>
<path fill="none" stroke="midnightblue" d="M200.431,-21.8541C210.052,-20.323 220.622,-18.6408 230.781,-17.024"/>
<polygon fill="midnightblue" stroke="midnightblue" points="231.428,-20.4652 240.753,-15.4369 230.328,-13.5522 231.428,-20.4652"/>
</g>
<!-- Node4 -->
<g id="node4" class="node"><title>Node4</title>
<g id="a_node4"><a xlink:href="$AP__Math_8h.html#a27149a7dfbb14319088e8332705c0046" xlink:title="constrain_float">
<polygon fill="white" stroke="black" points="357.807,-37.5 357.807,-55.5 438.846,-55.5 438.846,-37.5 357.807,-37.5"/>
<text text-anchor="middle" x="398.326" y="-43.5" font-family="Helvetica,sans-Serif" font-size="10.00">constrain_float</text>
</a>
</g>
</g>
<!-- Node3&#45;&gt;Node4 -->
<g id="edge3" class="edge"><title>Node3&#45;&gt;Node4</title>
<path fill="none" stroke="midnightblue" d="M322.063,-46.5C330.287,-46.5 338.986,-46.5 347.437,-46.5"/>
<polygon fill="midnightblue" stroke="midnightblue" points="347.573,-50.0001 357.573,-46.5 347.573,-43.0001 347.573,-50.0001"/>
</g>
<!-- Node6 -->
<g id="node6" class="node"><title>Node6</title>
<g id="a_node6"><a xlink:href="$AP__Math_8h.html#a00f57739f8671cb41eae08a51b7cbf7c" xlink:title="sq">
<polygon fill="white" stroke="black" points="383.826,-0.5 383.826,-18.5 412.826,-18.5 412.826,-0.5 383.826,-0.5"/>
<text text-anchor="middle" x="398.326" y="-6.5" font-family="Helvetica,sans-Serif" font-size="10.00">sq</text>
</a>
</g>
</g>
<!-- Node5&#45;&gt;Node6 -->
<g id="edge5" class="edge"><title>Node5&#45;&gt;Node6</title>
<path fill="none" stroke="midnightblue" d="M317.485,-9.5C335.893,-9.5 357.524,-9.5 373.625,-9.5"/>
<polygon fill="midnightblue" stroke="midnightblue" points="373.78,-13.0001 383.78,-9.5 373.78,-6.0001 373.78,-13.0001"/>
</g>
</g>
</svg>
