<?xml version="1.0" encoding="UTF-8" standalone="no"?>
<!DOCTYPE svg PUBLIC "-//W3C//DTD SVG 1.1//EN"
 "http://www.w3.org/Graphics/SVG/1.1/DTD/svg11.dtd">
<!-- Generated by graphviz version 2.38.0 (20140413.2041)
 -->
<!-- Title: wrap_360_cd_float Pages: 1 -->
<svg width="266pt" height="141pt"
 viewBox="0.00 0.00 266.12 141.00" xmlns="http://www.w3.org/2000/svg" xmlns:xlink="http://www.w3.org/1999/xlink">
<g id="graph0" class="graph" transform="scale(1 1) rotate(0) translate(4 137)">
<title>wrap_360_cd_float</title>
<polygon fill="white" stroke="none" points="-4,4 -4,-137 262.122,-137 262.122,4 -4,4"/>
<!-- Node1 -->
<g id="node1" class="node"><title>Node1</title>
<polygon fill="#bfbfbf" stroke="black" points="0,-52.5 0,-70.5 100.507,-70.5 100.507,-52.5 0,-52.5"/>
<text text-anchor="middle" x="50.2534" y="-58.5" font-family="Helvetica,sans-Serif" font-size="10.00">wrap_360_cd_float</text>
</g>
<!-- Node2 -->
<g id="node2" class="node"><title>Node2</title>
<g id="a_node2"><a xlink:href="$classAC__AttitudeControl__Heli.html#adcf61fba6788547660fa2237e46a459e" xlink:title="AC_AttitudeControl\l_Heli::passthrough_bf\l_roll_pitch_rate_yaw">
<polygon fill="white" stroke="black" points="140.672,-94.5 140.672,-132.5 253.957,-132.5 253.957,-94.5 140.672,-94.5"/>
<text text-anchor="start" x="148.672" y="-120.5" font-family="Helvetica,sans-Serif" font-size="10.00">AC_AttitudeControl</text>
<text text-anchor="start" x="148.672" y="-110.5" font-family="Helvetica,sans-Serif" font-size="10.00">_Heli::passthrough_bf</text>
<text text-anchor="middle" x="197.314" y="-100.5" font-family="Helvetica,sans-Serif" font-size="10.00">_roll_pitch_rate_yaw</text>
</a>
</g>
</g>
<!-- Node1&#45;&gt;Node2 -->
<g id="edge1" class="edge"><title>Node1&#45;&gt;Node2</title>
<path fill="none" stroke="midnightblue" d="M86.0838,-73.9856C103.157,-80.1058 124.09,-87.6096 143.11,-94.4278"/>
<polygon fill="midnightblue" stroke="midnightblue" points="87.1157,-70.6375 76.5211,-70.5577 84.7535,-77.2269 87.1157,-70.6375"/>
</g>
<!-- Node3 -->
<g id="node3" class="node"><title>Node3</title>
<g id="a_node3"><a xlink:href="$classAC__AttitudeControl.html#a716b26f41dfc5cf956b360affd045946" xlink:title="AC_AttitudeControl\l::rate_bf_roll_pitch_yaw">
<polygon fill="white" stroke="black" points="136.507,-47.5 136.507,-75.5 258.122,-75.5 258.122,-47.5 136.507,-47.5"/>
<text text-anchor="start" x="144.507" y="-63.5" font-family="Helvetica,sans-Serif" font-size="10.00">AC_AttitudeControl</text>
<text text-anchor="middle" x="197.314" y="-53.5" font-family="Helvetica,sans-Serif" font-size="10.00">::rate_bf_roll_pitch_yaw</text>
</a>
</g>
</g>
<!-- Node1&#45;&gt;Node3 -->
<g id="edge2" class="edge"><title>Node1&#45;&gt;Node3</title>
<path fill="none" stroke="midnightblue" d="M110.917,-61.5C119.361,-61.5 128.045,-61.5 136.491,-61.5"/>
<polygon fill="midnightblue" stroke="midnightblue" points="110.77,-58.0001 100.769,-61.5 110.769,-65.0001 110.77,-58.0001"/>
</g>
<!-- Node4 -->
<g id="node4" class="node"><title>Node4</title>
<g id="a_node4"><a xlink:href="$classAC__AttitudeControl.html#a5e78759a1808b5fd6c200fa2aa2bcc6e" xlink:title="AC_AttitudeControl\l::shift_ef_yaw_target">
<polygon fill="white" stroke="black" points="143.177,-0.5 143.177,-28.5 251.452,-28.5 251.452,-0.5 143.177,-0.5"/>
<text text-anchor="start" x="151.177" y="-16.5" font-family="Helvetica,sans-Serif" font-size="10.00">AC_AttitudeControl</text>
<text text-anchor="middle" x="197.314" y="-6.5" font-family="Helvetica,sans-Serif" font-size="10.00">::shift_ef_yaw_target</text>
</a>
</g>
</g>
<!-- Node1&#45;&gt;Node4 -->
<g id="edge3" class="edge"><title>Node1&#45;&gt;Node4</title>
<path fill="none" stroke="midnightblue" d="M88.7558,-49.3492C108.406,-42.9826 132.569,-35.1536 153.012,-28.5299"/>
<polygon fill="midnightblue" stroke="midnightblue" points="87.657,-46.026 79.2226,-52.4379 89.8146,-52.6852 87.657,-46.026"/>
</g>
</g>
</svg>
