<?xml version="1.0" encoding="UTF-8" standalone="no"?>
<!DOCTYPE svg PUBLIC "-//W3C//DTD SVG 1.1//EN"
 "http://www.w3.org/Graphics/SVG/1.1/DTD/svg11.dtd">
<!-- Generated by graphviz version 2.38.0 (20140413.2041)
 -->
<!-- Title: location_update Pages: 1 -->
<svg width="449pt" height="82pt"
 viewBox="0.00 0.00 449.46 82.00" xmlns="http://www.w3.org/2000/svg" xmlns:xlink="http://www.w3.org/1999/xlink">
<g id="graph0" class="graph" transform="scale(1 1) rotate(0) translate(4 78)">
<title>location_update</title>
<polygon fill="white" stroke="none" points="-4,4 -4,-78 445.463,-78 445.463,4 -4,4"/>
<!-- Node1 -->
<g id="node1" class="node"><title>Node1</title>
<polygon fill="#bfbfbf" stroke="black" points="0,-36.5 0,-54.5 86.6152,-54.5 86.6152,-36.5 0,-36.5"/>
<text text-anchor="middle" x="43.3076" y="-42.5" font-family="Helvetica,sans-Serif" font-size="10.00">location_update</text>
</g>
<!-- Node2 -->
<g id="node2" class="node"><title>Node2</title>
<g id="a_node2"><a xlink:href="$AP__Math_8h.html#a75b14352ec1c95a8276af9a0813cfdc3" xlink:title="radians">
<polygon fill="white" stroke="black" points="138.372,-55.5 138.372,-73.5 187.17,-73.5 187.17,-55.5 138.372,-55.5"/>
<text text-anchor="middle" x="162.771" y="-61.5" font-family="Helvetica,sans-Serif" font-size="10.00">radians</text>
</a>
</g>
</g>
<!-- Node1&#45;&gt;Node2 -->
<g id="edge1" class="edge"><title>Node1&#45;&gt;Node2</title>
<path fill="none" stroke="midnightblue" d="M86.7146,-52.3594C100.404,-54.5737 115.378,-56.9959 128.326,-59.0902"/>
<polygon fill="midnightblue" stroke="midnightblue" points="127.782,-62.5476 138.212,-60.6893 128.9,-55.6374 127.782,-62.5476"/>
</g>
<!-- Node3 -->
<g id="node3" class="node"><title>Node3</title>
<g id="a_node3"><a xlink:href="$location_8cpp.html#a717b438a67f0b41665feec9009ba1bd4" xlink:title="location_offset">
<polygon fill="white" stroke="black" points="122.615,-18.5 122.615,-36.5 202.927,-36.5 202.927,-18.5 122.615,-18.5"/>
<text text-anchor="middle" x="162.771" y="-24.5" font-family="Helvetica,sans-Serif" font-size="10.00">location_offset</text>
</a>
</g>
</g>
<!-- Node1&#45;&gt;Node3 -->
<g id="edge2" class="edge"><title>Node1&#45;&gt;Node3</title>
<path fill="none" stroke="midnightblue" d="M86.7146,-39.0016C95.122,-37.7132 104.014,-36.3506 112.624,-35.0313"/>
<polygon fill="midnightblue" stroke="midnightblue" points="113.201,-38.4838 122.555,-33.5094 112.141,-31.5646 113.201,-38.4838"/>
</g>
<!-- Node4 -->
<g id="node4" class="node"><title>Node4</title>
<g id="a_node4"><a xlink:href="$AP__Math_8h.html#a108b79eeb35c5d58f324458ec9e1e9f2" xlink:title="is_zero">
<polygon fill="white" stroke="black" points="257.557,-37.5 257.557,-55.5 305.793,-55.5 305.793,-37.5 257.557,-37.5"/>
<text text-anchor="middle" x="281.675" y="-43.5" font-family="Helvetica,sans-Serif" font-size="10.00">is_zero</text>
</a>
</g>
</g>
<!-- Node3&#45;&gt;Node4 -->
<g id="edge3" class="edge"><title>Node3&#45;&gt;Node4</title>
<path fill="none" stroke="midnightblue" d="M203.024,-33.8796C217.401,-36.2163 233.522,-38.8363 247.333,-41.0811"/>
<polygon fill="midnightblue" stroke="midnightblue" points="246.946,-44.5639 257.378,-42.7135 248.069,-37.6546 246.946,-44.5639"/>
</g>
<!-- Node5 -->
<g id="node5" class="node"><title>Node5</title>
<g id="a_node5"><a xlink:href="$location_8cpp.html#ad2368c582f3e0c135e2a74772f4db61a" xlink:title="longitude_scale">
<polygon fill="white" stroke="black" points="238.927,-0.5 238.927,-18.5 324.424,-18.5 324.424,-0.5 238.927,-0.5"/>
<text text-anchor="middle" x="281.675" y="-6.5" font-family="Helvetica,sans-Serif" font-size="10.00">longitude_scale</text>
</a>
</g>
</g>
<!-- Node3&#45;&gt;Node5 -->
<g id="edge4" class="edge"><title>Node3&#45;&gt;Node5</title>
<path fill="none" stroke="midnightblue" d="M203.024,-21.4562C211.319,-20.1789 220.195,-18.8122 228.873,-17.4761"/>
<polygon fill="midnightblue" stroke="midnightblue" points="229.572,-20.9098 238.923,-15.9287 228.507,-13.9914 229.572,-20.9098"/>
</g>
<!-- Node6 -->
<g id="node6" class="node"><title>Node6</title>
<g id="a_node6"><a xlink:href="$AP__Math_8h.html#a27149a7dfbb14319088e8332705c0046" xlink:title="constrain_float">
<polygon fill="white" stroke="black" points="360.424,-0.5 360.424,-18.5 441.463,-18.5 441.463,-0.5 360.424,-0.5"/>
<text text-anchor="middle" x="400.943" y="-6.5" font-family="Helvetica,sans-Serif" font-size="10.00">constrain_float</text>
</a>
</g>
</g>
<!-- Node5&#45;&gt;Node6 -->
<g id="edge5" class="edge"><title>Node5&#45;&gt;Node6</title>
<path fill="none" stroke="midnightblue" d="M324.681,-9.5C332.904,-9.5 341.603,-9.5 350.054,-9.5"/>
<polygon fill="midnightblue" stroke="midnightblue" points="350.191,-13.0001 360.191,-9.5 350.191,-6.0001 350.191,-13.0001"/>
</g>
</g>
</svg>
