<?xml version="1.0" encoding="UTF-8" standalone="no"?>
<!DOCTYPE svg PUBLIC "-//W3C//DTD SVG 1.1//EN"
 "http://www.w3.org/Graphics/SVG/1.1/DTD/svg11.dtd">
<!-- Generated by graphviz version 2.38.0 (20140413.2041)
 -->
<!-- Title: location_path_proportion Pages: 1 -->
<svg width="478pt" height="64pt"
 viewBox="0.00 0.00 477.81 64.00" xmlns="http://www.w3.org/2000/svg" xmlns:xlink="http://www.w3.org/1999/xlink">
<g id="graph0" class="graph" transform="scale(1 1) rotate(0) translate(4 60)">
<title>location_path_proportion</title>
<polygon fill="white" stroke="none" points="-4,4 -4,-60 473.812,-60 473.812,4 -4,4"/>
<!-- Node1 -->
<g id="node1" class="node"><title>Node1</title>
<polygon fill="#bfbfbf" stroke="black" points="0,-18.5 0,-36.5 126.083,-36.5 126.083,-18.5 0,-18.5"/>
<text text-anchor="middle" x="63.0415" y="-24.5" font-family="Helvetica,sans-Serif" font-size="10.00">location_path_proportion</text>
</g>
<!-- Node2 -->
<g id="node2" class="node"><title>Node2</title>
<g id="a_node2"><a xlink:href="$location_8cpp.html#a527b26472ed6f2e0c141e109a0722a0a" xlink:title="location_diff">
<polygon fill="white" stroke="black" points="162.083,-37.5 162.083,-55.5 231.276,-55.5 231.276,-37.5 162.083,-37.5"/>
<text text-anchor="middle" x="196.68" y="-43.5" font-family="Helvetica,sans-Serif" font-size="10.00">location_diff</text>
</a>
</g>
</g>
<!-- Node1&#45;&gt;Node2 -->
<g id="edge1" class="edge"><title>Node1&#45;&gt;Node2</title>
<path fill="none" stroke="midnightblue" d="M126.391,-36.4992C134.989,-37.7401 143.665,-38.9925 151.832,-40.1713"/>
<polygon fill="midnightblue" stroke="midnightblue" points="151.462,-43.6541 161.86,-41.6186 152.462,-36.7259 151.462,-43.6541"/>
</g>
<!-- Node5 -->
<g id="node5" class="node"><title>Node5</title>
<g id="a_node5"><a xlink:href="$AP__Math_8h.html#a00f57739f8671cb41eae08a51b7cbf7c" xlink:title="sq">
<polygon fill="white" stroke="black" points="182.18,-0.5 182.18,-18.5 211.18,-18.5 211.18,-0.5 182.18,-0.5"/>
<text text-anchor="middle" x="196.68" y="-6.5" font-family="Helvetica,sans-Serif" font-size="10.00">sq</text>
</a>
</g>
</g>
<!-- Node1&#45;&gt;Node5 -->
<g id="edge4" class="edge"><title>Node1&#45;&gt;Node5</title>
<path fill="none" stroke="midnightblue" d="M126.391,-18.9744C142.53,-16.7676 158.948,-14.5226 171.749,-12.7722"/>
<polygon fill="midnightblue" stroke="midnightblue" points="172.536,-16.1973 181.969,-11.3747 171.587,-9.26185 172.536,-16.1973"/>
</g>
<!-- Node3 -->
<g id="node3" class="node"><title>Node3</title>
<g id="a_node3"><a xlink:href="$location_8cpp.html#ad2368c582f3e0c135e2a74772f4db61a" xlink:title="longitude_scale">
<polygon fill="white" stroke="black" points="267.276,-37.5 267.276,-55.5 352.773,-55.5 352.773,-37.5 267.276,-37.5"/>
<text text-anchor="middle" x="310.025" y="-43.5" font-family="Helvetica,sans-Serif" font-size="10.00">longitude_scale</text>
</a>
</g>
</g>
<!-- Node2&#45;&gt;Node3 -->
<g id="edge2" class="edge"><title>Node2&#45;&gt;Node3</title>
<path fill="none" stroke="midnightblue" d="M231.389,-46.5C239.486,-46.5 248.321,-46.5 257.035,-46.5"/>
<polygon fill="midnightblue" stroke="midnightblue" points="257.158,-50.0001 267.158,-46.5 257.158,-43.0001 257.158,-50.0001"/>
</g>
<!-- Node4 -->
<g id="node4" class="node"><title>Node4</title>
<g id="a_node4"><a xlink:href="$AP__Math_8h.html#a27149a7dfbb14319088e8332705c0046" xlink:title="constrain_float">
<polygon fill="white" stroke="black" points="388.773,-37.5 388.773,-55.5 469.812,-55.5 469.812,-37.5 388.773,-37.5"/>
<text text-anchor="middle" x="429.293" y="-43.5" font-family="Helvetica,sans-Serif" font-size="10.00">constrain_float</text>
</a>
</g>
</g>
<!-- Node3&#45;&gt;Node4 -->
<g id="edge3" class="edge"><title>Node3&#45;&gt;Node4</title>
<path fill="none" stroke="midnightblue" d="M353.03,-46.5C361.253,-46.5 369.952,-46.5 378.403,-46.5"/>
<polygon fill="midnightblue" stroke="midnightblue" points="378.54,-50.0001 388.54,-46.5 378.54,-43.0001 378.54,-50.0001"/>
</g>
</g>
</svg>
