<?xml version="1.0" encoding="UTF-8" standalone="no"?>
<!DOCTYPE svg PUBLIC "-//W3C//DTD SVG 1.1//EN"
 "http://www.w3.org/Graphics/SVG/1.1/DTD/svg11.dtd">
<!-- Generated by graphviz version 2.38.0 (20140413.2041)
 -->
<!-- Title: print_latlon Pages: 1 -->
<svg width="394pt" height="74pt"
 viewBox="0.00 0.00 394.27 74.00" xmlns="http://www.w3.org/2000/svg" xmlns:xlink="http://www.w3.org/1999/xlink">
<g id="graph0" class="graph" transform="scale(1 1) rotate(0) translate(4 70)">
<title>print_latlon</title>
<polygon fill="white" stroke="none" points="-4,4 -4,-70 390.27,-70 390.27,4 -4,4"/>
<!-- Node1 -->
<g id="node1" class="node"><title>Node1</title>
<polygon fill="#bfbfbf" stroke="black" points="0,-21.5 0,-39.5 64.9209,-39.5 64.9209,-21.5 0,-21.5"/>
<text text-anchor="middle" x="32.4604" y="-27.5" font-family="Helvetica,sans-Serif" font-size="10.00">print_latlon</text>
</g>
<!-- Node2 -->
<g id="node2" class="node"><title>Node2</title>
<g id="a_node2"><a xlink:href="$classDataFlash__Backend.html#a880e666874fef9aa9dc6f19b820569ad" xlink:title="DataFlash_Backend::\l_print_log_entry">
<polygon fill="white" stroke="black" points="100.921,-37.5 100.921,-65.5 212.531,-65.5 212.531,-37.5 100.921,-37.5"/>
<text text-anchor="start" x="108.921" y="-53.5" font-family="Helvetica,sans-Serif" font-size="10.00">DataFlash_Backend::</text>
<text text-anchor="middle" x="156.726" y="-43.5" font-family="Helvetica,sans-Serif" font-size="10.00">_print_log_entry</text>
</a>
</g>
</g>
<!-- Node1&#45;&gt;Node2 -->
<g id="edge1" class="edge"><title>Node1&#45;&gt;Node2</title>
<path fill="none" stroke="midnightblue" d="M75.0378,-37.6412C83.2685,-39.0549 92.0278,-40.5594 100.626,-42.0362"/>
<polygon fill="midnightblue" stroke="midnightblue" points="75.3951,-34.1514 64.9469,-35.908 74.2101,-41.0504 75.3951,-34.1514"/>
</g>
<!-- Node4 -->
<g id="node4" class="node"><title>Node4</title>
<g id="a_node4"><a xlink:href="$GPS__AUTO__test_8cpp.html#afe461d27b9c48d5921c00d521181f12f" xlink:title="loop">
<polygon fill="white" stroke="black" points="139.273,-0.5 139.273,-18.5 174.179,-18.5 174.179,-0.5 139.273,-0.5"/>
<text text-anchor="middle" x="156.726" y="-6.5" font-family="Helvetica,sans-Serif" font-size="10.00">loop</text>
</a>
</g>
</g>
<!-- Node1&#45;&gt;Node4 -->
<g id="edge3" class="edge"><title>Node1&#45;&gt;Node4</title>
<path fill="none" stroke="midnightblue" d="M75.0254,-23.3609C96.941,-19.5968 122.607,-15.1884 139.008,-12.3715"/>
<polygon fill="midnightblue" stroke="midnightblue" points="74.2101,-19.9496 64.9469,-25.092 75.3951,-26.8486 74.2101,-19.9496"/>
</g>
<!-- Node3 -->
<g id="node3" class="node"><title>Node3</title>
<g id="a_node3"><a xlink:href="$classDataFlash__Block.html#a1e5463499b5f2030d233e75ba86a55b8" xlink:title="DataFlash_Block::LogRead\lProcess">
<polygon fill="white" stroke="black" points="248.531,-37.5 248.531,-65.5 386.27,-65.5 386.27,-37.5 248.531,-37.5"/>
<text text-anchor="start" x="256.531" y="-53.5" font-family="Helvetica,sans-Serif" font-size="10.00">DataFlash_Block::LogRead</text>
<text text-anchor="middle" x="317.4" y="-43.5" font-family="Helvetica,sans-Serif" font-size="10.00">Process</text>
</a>
</g>
</g>
<!-- Node2&#45;&gt;Node3 -->
<g id="edge2" class="edge"><title>Node2&#45;&gt;Node3</title>
<path fill="none" stroke="midnightblue" d="M222.874,-51.5C231.262,-51.5 239.869,-51.5 248.303,-51.5"/>
<polygon fill="midnightblue" stroke="midnightblue" points="222.777,-48.0001 212.777,-51.5 222.777,-55.0001 222.777,-48.0001"/>
</g>
</g>
</svg>
