<?xml version="1.0" encoding="UTF-8" standalone="no"?>
<!DOCTYPE svg PUBLIC "-//W3C//DTD SVG 1.1//EN"
 "http://www.w3.org/Graphics/SVG/1.1/DTD/svg11.dtd">
<!-- Generated by graphviz version 2.38.0 (20140413.2041)
 -->
<!-- Title: wrap_180_cd_float Pages: 1 -->
<svg width="273pt" height="255pt"
 viewBox="0.00 0.00 273.36 255.00" xmlns="http://www.w3.org/2000/svg" xmlns:xlink="http://www.w3.org/1999/xlink">
<g id="graph0" class="graph" transform="scale(1 1) rotate(0) translate(4 251)">
<title>wrap_180_cd_float</title>
<polygon fill="white" stroke="none" points="-4,4 -4,-251 269.358,-251 269.358,4 -4,4"/>
<!-- Node1 -->
<g id="node1" class="node"><title>Node1</title>
<polygon fill="#bfbfbf" stroke="black" points="0,-109.5 0,-127.5 100.507,-127.5 100.507,-109.5 0,-109.5"/>
<text text-anchor="middle" x="50.2534" y="-115.5" font-family="Helvetica,sans-Serif" font-size="10.00">wrap_180_cd_float</text>
</g>
<!-- Node2 -->
<g id="node2" class="node"><title>Node2</title>
<g id="a_node2"><a xlink:href="$classAC__AttitudeControl.html#a7f3ea9078e44d94c66da20f5e1f12612" xlink:title="AC_AttitudeControl\l::angle_ef_roll_pitch\l_rate_ef_yaw">
<polygon fill="white" stroke="black" points="148.179,-208.5 148.179,-246.5 253.686,-246.5 253.686,-208.5 148.179,-208.5"/>
<text text-anchor="start" x="156.179" y="-234.5" font-family="Helvetica,sans-Serif" font-size="10.00">AC_AttitudeControl</text>
<text text-anchor="start" x="156.179" y="-224.5" font-family="Helvetica,sans-Serif" font-size="10.00">::angle_ef_roll_pitch</text>
<text text-anchor="middle" x="200.933" y="-214.5" font-family="Helvetica,sans-Serif" font-size="10.00">_rate_ef_yaw</text>
</a>
</g>
</g>
<!-- Node1&#45;&gt;Node2 -->
<g id="edge1" class="edge"><title>Node1&#45;&gt;Node2</title>
<path fill="none" stroke="midnightblue" d="M65.7853,-135.405C81.73,-153.158 108.766,-181.015 136.507,-199.5 141.315,-202.704 146.55,-205.69 151.882,-208.429"/>
<polygon fill="midnightblue" stroke="midnightblue" points="68.1322,-132.774 58.8944,-127.586 62.8808,-137.403 68.1322,-132.774"/>
</g>
<!-- Node3 -->
<g id="node3" class="node"><title>Node3</title>
<g id="a_node3"><a xlink:href="$classAC__AttitudeControl.html#afbe614d708bc9de386fda48ee3c65069" xlink:title="AC_AttitudeControl\l::angle_ef_roll_pitch\l_rate_ef_yaw_smooth">
<polygon fill="white" stroke="black" points="143.736,-151.5 143.736,-189.5 258.129,-189.5 258.129,-151.5 143.736,-151.5"/>
<text text-anchor="start" x="151.736" y="-177.5" font-family="Helvetica,sans-Serif" font-size="10.00">AC_AttitudeControl</text>
<text text-anchor="start" x="151.736" y="-167.5" font-family="Helvetica,sans-Serif" font-size="10.00">::angle_ef_roll_pitch</text>
<text text-anchor="middle" x="200.933" y="-157.5" font-family="Helvetica,sans-Serif" font-size="10.00">_rate_ef_yaw_smooth</text>
</a>
</g>
</g>
<!-- Node1&#45;&gt;Node3 -->
<g id="edge2" class="edge"><title>Node1&#45;&gt;Node3</title>
<path fill="none" stroke="midnightblue" d="M86.9525,-130.986C104.451,-137.106 125.906,-144.61 145.401,-151.428"/>
<polygon fill="midnightblue" stroke="midnightblue" points="87.7462,-127.555 77.1514,-127.558 85.4352,-134.163 87.7462,-127.555"/>
</g>
<!-- Node4 -->
<g id="node4" class="node"><title>Node4</title>
<g id="a_node4"><a xlink:href="$classAC__AttitudeControl.html#a436fd54f740d502a04b86f5b8a25bb42" xlink:title="AC_AttitudeControl\l::angle_ef_roll_pitch_yaw">
<polygon fill="white" stroke="black" points="136.507,-104.5 136.507,-132.5 265.358,-132.5 265.358,-104.5 136.507,-104.5"/>
<text text-anchor="start" x="144.507" y="-120.5" font-family="Helvetica,sans-Serif" font-size="10.00">AC_AttitudeControl</text>
<text text-anchor="middle" x="200.933" y="-110.5" font-family="Helvetica,sans-Serif" font-size="10.00">::angle_ef_roll_pitch_yaw</text>
</a>
</g>
</g>
<!-- Node1&#45;&gt;Node4 -->
<g id="edge3" class="edge"><title>Node1&#45;&gt;Node4</title>
<path fill="none" stroke="midnightblue" d="M110.841,-118.5C119.236,-118.5 127.893,-118.5 136.359,-118.5"/>
<polygon fill="midnightblue" stroke="midnightblue" points="110.761,-115 100.761,-118.5 110.761,-122 110.761,-115"/>
</g>
<!-- Node5 -->
<g id="node5" class="node"><title>Node5</title>
<g id="a_node5"><a xlink:href="$classAC__AttitudeControl__Heli.html#adcf61fba6788547660fa2237e46a459e" xlink:title="AC_AttitudeControl\l_Heli::passthrough_bf\l_roll_pitch_rate_yaw">
<polygon fill="white" stroke="black" points="144.29,-47.5 144.29,-85.5 257.575,-85.5 257.575,-47.5 144.29,-47.5"/>
<text text-anchor="start" x="152.29" y="-73.5" font-family="Helvetica,sans-Serif" font-size="10.00">AC_AttitudeControl</text>
<text text-anchor="start" x="152.29" y="-63.5" font-family="Helvetica,sans-Serif" font-size="10.00">_Heli::passthrough_bf</text>
<text text-anchor="middle" x="200.933" y="-53.5" font-family="Helvetica,sans-Serif" font-size="10.00">_roll_pitch_rate_yaw</text>
</a>
</g>
</g>
<!-- Node1&#45;&gt;Node5 -->
<g id="edge4" class="edge"><title>Node1&#45;&gt;Node5</title>
<path fill="none" stroke="midnightblue" d="M86.9525,-106.014C104.451,-99.8942 125.906,-92.3904 145.401,-85.5722"/>
<polygon fill="midnightblue" stroke="midnightblue" points="85.4352,-102.837 77.1514,-109.442 87.7462,-109.445 85.4352,-102.837"/>
</g>
<!-- Node6 -->
<g id="node6" class="node"><title>Node6</title>
<g id="a_node6"><a xlink:href="$classAC__AttitudeControl.html#a716b26f41dfc5cf956b360affd045946" xlink:title="AC_AttitudeControl\l::rate_bf_roll_pitch_yaw">
<polygon fill="white" stroke="black" points="140.125,-0.5 140.125,-28.5 261.74,-28.5 261.74,-0.5 140.125,-0.5"/>
<text text-anchor="start" x="148.125" y="-16.5" font-family="Helvetica,sans-Serif" font-size="10.00">AC_AttitudeControl</text>
<text text-anchor="middle" x="200.933" y="-6.5" font-family="Helvetica,sans-Serif" font-size="10.00">::rate_bf_roll_pitch_yaw</text>
</a>
</g>
</g>
<!-- Node1&#45;&gt;Node6 -->
<g id="edge5" class="edge"><title>Node1&#45;&gt;Node6</title>
<path fill="none" stroke="midnightblue" d="M65.6364,-101.521C81.4558,-83.7495 108.387,-56.039 136.507,-38.5 142.501,-34.7616 149.169,-31.4572 155.866,-28.5887"/>
<polygon fill="midnightblue" stroke="midnightblue" points="62.7375,-99.5206 58.8066,-109.359 68.015,-104.119 62.7375,-99.5206"/>
</g>
</g>
</svg>
