<?xml version="1.0" encoding="UTF-8" standalone="no"?>
<!DOCTYPE svg PUBLIC "-//W3C//DTD SVG 1.1//EN"
 "http://www.w3.org/Graphics/SVG/1.1/DTD/svg11.dtd">
<!-- Generated by graphviz version 2.38.0 (20140413.2041)
 -->
<!-- Title: inverse Pages: 1 -->
<svg width="501pt" height="84pt"
 viewBox="0.00 0.00 500.67 84.00" xmlns="http://www.w3.org/2000/svg" xmlns:xlink="http://www.w3.org/1999/xlink">
<g id="graph0" class="graph" transform="scale(1 1) rotate(0) translate(4 80)">
<title>inverse</title>
<polygon fill="white" stroke="none" points="-4,4 -4,-80 496.674,-80 496.674,4 -4,4"/>
<!-- Node1 -->
<g id="node1" class="node"><title>Node1</title>
<polygon fill="#bfbfbf" stroke="black" points="0,-28.5 0,-46.5 48.2363,-46.5 48.2363,-28.5 0,-28.5"/>
<text text-anchor="middle" x="24.1182" y="-34.5" font-family="Helvetica,sans-Serif" font-size="10.00">inverse</text>
</g>
<!-- Node2 -->
<g id="node2" class="node"><title>Node2</title>
<g id="a_node2"><a xlink:href="$classCompassCalibrator.html#a953981bdee4a0a574acca1fc1bd83f52" xlink:title="CompassCalibrator::\lrun_ellipsoid_fit">
<polygon fill="white" stroke="black" points="84.2363,-47.5 84.2363,-75.5 191.379,-75.5 191.379,-47.5 84.2363,-47.5"/>
<text text-anchor="start" x="92.2363" y="-63.5" font-family="Helvetica,sans-Serif" font-size="10.00">CompassCalibrator::</text>
<text text-anchor="middle" x="137.808" y="-53.5" font-family="Helvetica,sans-Serif" font-size="10.00">run_ellipsoid_fit</text>
</a>
</g>
</g>
<!-- Node1&#45;&gt;Node2 -->
<g id="edge1" class="edge"><title>Node1&#45;&gt;Node2</title>
<path fill="none" stroke="midnightblue" d="M58.1523,-44.5984C66.3497,-46.3599 75.3389,-48.2915 84.2181,-50.1995"/>
<polygon fill="midnightblue" stroke="midnightblue" points="58.7725,-41.1519 48.2603,-42.4728 57.3018,-47.9956 58.7725,-41.1519"/>
</g>
<!-- Node5 -->
<g id="node5" class="node"><title>Node5</title>
<g id="a_node5"><a xlink:href="$classCompassCalibrator.html#a8d4e699b811efbb835be447336d5b6b8" xlink:title="CompassCalibrator::\lrun_sphere_fit">
<polygon fill="white" stroke="black" points="84.2363,-0.5 84.2363,-28.5 191.379,-28.5 191.379,-0.5 84.2363,-0.5"/>
<text text-anchor="start" x="92.2363" y="-16.5" font-family="Helvetica,sans-Serif" font-size="10.00">CompassCalibrator::</text>
<text text-anchor="middle" x="137.808" y="-6.5" font-family="Helvetica,sans-Serif" font-size="10.00">run_sphere_fit</text>
</a>
</g>
</g>
<!-- Node1&#45;&gt;Node5 -->
<g id="edge4" class="edge"><title>Node1&#45;&gt;Node5</title>
<path fill="none" stroke="midnightblue" d="M58.1523,-30.6973C66.3497,-29.0093 75.3389,-27.1581 84.2181,-25.3297"/>
<polygon fill="midnightblue" stroke="midnightblue" points="57.3488,-27.2893 48.2603,-32.7344 58.7607,-34.1454 57.3488,-27.2893"/>
</g>
<!-- Node3 -->
<g id="node3" class="node"><title>Node3</title>
<g id="a_node3"><a xlink:href="$classCompassCalibrator.html#ae23f7e66b83d2a09ff012d853a54ad6f" xlink:title="CompassCalibrator::\lupdate">
<polygon fill="white" stroke="black" points="227.379,-23.5 227.379,-51.5 334.521,-51.5 334.521,-23.5 227.379,-23.5"/>
<text text-anchor="start" x="235.379" y="-39.5" font-family="Helvetica,sans-Serif" font-size="10.00">CompassCalibrator::</text>
<text text-anchor="middle" x="280.95" y="-29.5" font-family="Helvetica,sans-Serif" font-size="10.00">update</text>
</a>
</g>
</g>
<!-- Node2&#45;&gt;Node3 -->
<g id="edge2" class="edge"><title>Node2&#45;&gt;Node3</title>
<path fill="none" stroke="midnightblue" d="M201.664,-50.8119C210.18,-49.3637 218.849,-47.8897 227.165,-46.4756"/>
<polygon fill="midnightblue" stroke="midnightblue" points="201.037,-47.3681 191.765,-52.495 202.211,-54.269 201.037,-47.3681"/>
</g>
<!-- Node4 -->
<g id="node4" class="node"><title>Node4</title>
<g id="a_node4"><a xlink:href="$classCompass.html#ab8b1d18b185660a957d2faf417e9b1dd" xlink:title="Compass::compass_cal\l_update">
<polygon fill="white" stroke="black" points="370.521,-23.5 370.521,-51.5 492.674,-51.5 492.674,-23.5 370.521,-23.5"/>
<text text-anchor="start" x="378.521" y="-39.5" font-family="Helvetica,sans-Serif" font-size="10.00">Compass::compass_cal</text>
<text text-anchor="middle" x="431.598" y="-29.5" font-family="Helvetica,sans-Serif" font-size="10.00">_update</text>
</a>
</g>
</g>
<!-- Node3&#45;&gt;Node4 -->
<g id="edge3" class="edge"><title>Node3&#45;&gt;Node4</title>
<path fill="none" stroke="midnightblue" d="M344.922,-37.5C353.344,-37.5 361.967,-37.5 370.341,-37.5"/>
<polygon fill="midnightblue" stroke="midnightblue" points="344.776,-34.0001 334.776,-37.5 344.776,-41.0001 344.776,-34.0001"/>
</g>
<!-- Node5&#45;&gt;Node3 -->
<g id="edge5" class="edge"><title>Node5&#45;&gt;Node3</title>
<path fill="none" stroke="midnightblue" d="M201.664,-24.7427C210.18,-26.1306 218.849,-27.5432 227.165,-28.8983"/>
<polygon fill="midnightblue" stroke="midnightblue" points="202.198,-21.2838 191.765,-23.1298 201.072,-28.1927 202.198,-21.2838"/>
</g>
</g>
</svg>
