<?xml version="1.0" encoding="UTF-8" standalone="no"?>
<!DOCTYPE svg PUBLIC "-//W3C//DTD SVG 1.1//EN"
 "http://www.w3.org/Graphics/SVG/1.1/DTD/svg11.dtd">
<!-- Generated by graphviz version 2.38.0 (20140413.2041)
 -->
<!-- Title: inverse3x3 Pages: 1 -->
<svg width="601pt" height="84pt"
 viewBox="0.00 0.00 601.03 84.00" xmlns="http://www.w3.org/2000/svg" xmlns:xlink="http://www.w3.org/1999/xlink">
<g id="graph0" class="graph" transform="scale(1 1) rotate(0) translate(4 80)">
<title>inverse3x3</title>
<polygon fill="white" stroke="none" points="-4,4 -4,-80 597.033,-80 597.033,4 -4,4"/>
<!-- Node1 -->
<g id="node1" class="node"><title>Node1</title>
<polygon fill="#bfbfbf" stroke="black" points="0,-28.5 0,-46.5 64.3594,-46.5 64.3594,-28.5 0,-28.5"/>
<text text-anchor="middle" x="32.1797" y="-34.5" font-family="Helvetica,sans-Serif" font-size="10.00">inverse3x3</text>
</g>
<!-- Node2 -->
<g id="node2" class="node"><title>Node2</title>
<g id="a_node2"><a xlink:href="$matrix__alg_8cpp.html#adfb798dabbcb4c7a82b3a08978bd8738" xlink:title="inverse">
<polygon fill="white" stroke="black" points="100.359,-28.5 100.359,-46.5 148.596,-46.5 148.596,-28.5 100.359,-28.5"/>
<text text-anchor="middle" x="124.478" y="-34.5" font-family="Helvetica,sans-Serif" font-size="10.00">inverse</text>
</a>
</g>
</g>
<!-- Node1&#45;&gt;Node2 -->
<g id="edge1" class="edge"><title>Node1&#45;&gt;Node2</title>
<path fill="none" stroke="midnightblue" d="M74.6392,-37.5C83.4108,-37.5 92.3694,-37.5 100.179,-37.5"/>
<polygon fill="midnightblue" stroke="midnightblue" points="74.5081,-34.0001 64.5081,-37.5 74.508,-41.0001 74.5081,-34.0001"/>
</g>
<!-- Node3 -->
<g id="node3" class="node"><title>Node3</title>
<g id="a_node3"><a xlink:href="$classCompassCalibrator.html#a953981bdee4a0a574acca1fc1bd83f52" xlink:title="CompassCalibrator::\lrun_ellipsoid_fit">
<polygon fill="white" stroke="black" points="184.596,-47.5 184.596,-75.5 291.738,-75.5 291.738,-47.5 184.596,-47.5"/>
<text text-anchor="start" x="192.596" y="-63.5" font-family="Helvetica,sans-Serif" font-size="10.00">CompassCalibrator::</text>
<text text-anchor="middle" x="238.167" y="-53.5" font-family="Helvetica,sans-Serif" font-size="10.00">run_ellipsoid_fit</text>
</a>
</g>
</g>
<!-- Node2&#45;&gt;Node3 -->
<g id="edge2" class="edge"><title>Node2&#45;&gt;Node3</title>
<path fill="none" stroke="midnightblue" d="M158.512,-44.5984C166.709,-46.3599 175.698,-48.2915 184.577,-50.1995"/>
<polygon fill="midnightblue" stroke="midnightblue" points="159.132,-41.1519 148.62,-42.4728 157.661,-47.9956 159.132,-41.1519"/>
</g>
<!-- Node6 -->
<g id="node6" class="node"><title>Node6</title>
<g id="a_node6"><a xlink:href="$classCompassCalibrator.html#a8d4e699b811efbb835be447336d5b6b8" xlink:title="CompassCalibrator::\lrun_sphere_fit">
<polygon fill="white" stroke="black" points="184.596,-0.5 184.596,-28.5 291.738,-28.5 291.738,-0.5 184.596,-0.5"/>
<text text-anchor="start" x="192.596" y="-16.5" font-family="Helvetica,sans-Serif" font-size="10.00">CompassCalibrator::</text>
<text text-anchor="middle" x="238.167" y="-6.5" font-family="Helvetica,sans-Serif" font-size="10.00">run_sphere_fit</text>
</a>
</g>
</g>
<!-- Node2&#45;&gt;Node6 -->
<g id="edge5" class="edge"><title>Node2&#45;&gt;Node6</title>
<path fill="none" stroke="midnightblue" d="M158.512,-30.6973C166.709,-29.0093 175.698,-27.1581 184.577,-25.3297"/>
<polygon fill="midnightblue" stroke="midnightblue" points="157.708,-27.2893 148.62,-32.7344 159.12,-34.1454 157.708,-27.2893"/>
</g>
<!-- Node4 -->
<g id="node4" class="node"><title>Node4</title>
<g id="a_node4"><a xlink:href="$classCompassCalibrator.html#ae23f7e66b83d2a09ff012d853a54ad6f" xlink:title="CompassCalibrator::\lupdate">
<polygon fill="white" stroke="black" points="327.738,-23.5 327.738,-51.5 434.881,-51.5 434.881,-23.5 327.738,-23.5"/>
<text text-anchor="start" x="335.738" y="-39.5" font-family="Helvetica,sans-Serif" font-size="10.00">CompassCalibrator::</text>
<text text-anchor="middle" x="381.31" y="-29.5" font-family="Helvetica,sans-Serif" font-size="10.00">update</text>
</a>
</g>
</g>
<!-- Node3&#45;&gt;Node4 -->
<g id="edge3" class="edge"><title>Node3&#45;&gt;Node4</title>
<path fill="none" stroke="midnightblue" d="M302.023,-50.8119C310.54,-49.3637 319.208,-47.8897 327.524,-46.4756"/>
<polygon fill="midnightblue" stroke="midnightblue" points="301.397,-47.3681 292.125,-52.495 302.57,-54.269 301.397,-47.3681"/>
</g>
<!-- Node5 -->
<g id="node5" class="node"><title>Node5</title>
<g id="a_node5"><a xlink:href="$classCompass.html#ab8b1d18b185660a957d2faf417e9b1dd" xlink:title="Compass::compass_cal\l_update">
<polygon fill="white" stroke="black" points="470.881,-23.5 470.881,-51.5 593.033,-51.5 593.033,-23.5 470.881,-23.5"/>
<text text-anchor="start" x="478.881" y="-39.5" font-family="Helvetica,sans-Serif" font-size="10.00">Compass::compass_cal</text>
<text text-anchor="middle" x="531.957" y="-29.5" font-family="Helvetica,sans-Serif" font-size="10.00">_update</text>
</a>
</g>
</g>
<!-- Node4&#45;&gt;Node5 -->
<g id="edge4" class="edge"><title>Node4&#45;&gt;Node5</title>
<path fill="none" stroke="midnightblue" d="M445.281,-37.5C453.704,-37.5 462.326,-37.5 470.701,-37.5"/>
<polygon fill="midnightblue" stroke="midnightblue" points="445.136,-34.0001 435.136,-37.5 445.136,-41.0001 445.136,-34.0001"/>
</g>
<!-- Node6&#45;&gt;Node4 -->
<g id="edge6" class="edge"><title>Node6&#45;&gt;Node4</title>
<path fill="none" stroke="midnightblue" d="M302.023,-24.7427C310.54,-26.1306 319.208,-27.5432 327.524,-28.8983"/>
<polygon fill="midnightblue" stroke="midnightblue" points="302.558,-21.2838 292.125,-23.1298 301.432,-28.1927 302.558,-21.2838"/>
</g>
</g>
</svg>
