<?xml version="1.0" encoding="UTF-8" standalone="no"?>
<!DOCTYPE svg PUBLIC "-//W3C//DTD SVG 1.1//EN"
 "http://www.w3.org/Graphics/SVG/1.1/DTD/svg11.dtd">
<!-- Generated by graphviz version 2.38.0 (20140413.2041)
 -->
<!-- Title: mavlink_msg_autopilot_version_request_pack_chan Pages: 1 -->
<svg width="649pt" height="84pt"
 viewBox="0.00 0.00 648.63 84.00" xmlns="http://www.w3.org/2000/svg" xmlns:xlink="http://www.w3.org/1999/xlink">
<g id="graph0" class="graph" transform="scale(1 1) rotate(0) translate(4 80)">
<title>mavlink_msg_autopilot_version_request_pack_chan</title>
<polygon fill="white" stroke="none" points="-4,4 -4,-80 644.628,-80 644.628,4 -4,4"/>
<!-- Node1 -->
<g id="node1" class="node"><title>Node1</title>
<polygon fill="#bfbfbf" stroke="black" points="0,-23.5 0,-51.5 146.645,-51.5 146.645,-23.5 0,-23.5"/>
<text text-anchor="start" x="8" y="-39.5" font-family="Helvetica,sans-Serif" font-size="10.00">mavlink_msg_autopilot</text>
<text text-anchor="middle" x="73.3223" y="-29.5" font-family="Helvetica,sans-Serif" font-size="10.00">_version_request_pack_chan</text>
</g>
<!-- Node2 -->
<g id="node2" class="node"><title>Node2</title>
<g id="a_node2"><a xlink:href="$mavlink__msg__autopilot__version__request_8h.html#ab5a68d0fe2bc5f2e33f3b62217b65fa6" xlink:title="Encode a autopilot_version_request struct on a channel. ">
<polygon fill="white" stroke="black" points="182.645,-47.5 182.645,-75.5 340.974,-75.5 340.974,-47.5 182.645,-47.5"/>
<text text-anchor="start" x="190.645" y="-63.5" font-family="Helvetica,sans-Serif" font-size="10.00">mavlink_msg_autopilot</text>
<text text-anchor="middle" x="261.809" y="-53.5" font-family="Helvetica,sans-Serif" font-size="10.00">_version_request_encode_chan</text>
</a>
</g>
</g>
<!-- Node1&#45;&gt;Node2 -->
<g id="edge1" class="edge"><title>Node1&#45;&gt;Node2</title>
<path fill="none" stroke="midnightblue" d="M156.717,-48.1039C165.324,-49.2114 174.055,-50.3351 182.612,-51.4364"/>
<polygon fill="midnightblue" stroke="midnightblue" points="157.055,-44.6185 146.69,-46.8134 156.161,-51.5613 157.055,-44.6185"/>
</g>
<!-- Node3 -->
<g id="node3" class="node"><title>Node3</title>
<g id="a_node3"><a xlink:href="$ardupilotmega_2testsuite_8h.html#a55ec9127e252ac854c27be5498a5f911" xlink:title="mavlink_test_autopilot\l_version_request">
<polygon fill="white" stroke="black" points="204.336,-0.5 204.336,-28.5 319.282,-28.5 319.282,-0.5 204.336,-0.5"/>
<text text-anchor="start" x="212.336" y="-16.5" font-family="Helvetica,sans-Serif" font-size="10.00">mavlink_test_autopilot</text>
<text text-anchor="middle" x="261.809" y="-6.5" font-family="Helvetica,sans-Serif" font-size="10.00">_version_request</text>
</a>
</g>
</g>
<!-- Node1&#45;&gt;Node3 -->
<g id="edge2" class="edge"><title>Node1&#45;&gt;Node3</title>
<path fill="none" stroke="midnightblue" d="M157.054,-27.2964C172.947,-25.3364 189.251,-23.3254 204.09,-21.4953"/>
<polygon fill="midnightblue" stroke="midnightblue" points="156.186,-23.8769 146.69,-28.5747 157.043,-30.8242 156.186,-23.8769"/>
</g>
<!-- Node4 -->
<g id="node4" class="node"><title>Node4</title>
<g id="a_node4"><a xlink:href="$ardupilotmega_2testsuite_8h.html#ab264d471ac2f46584f2bb580704b5e9d" xlink:title="mavlink_test_ardupilotmega">
<polygon fill="white" stroke="black" points="376.974,-5.5 376.974,-23.5 517.485,-23.5 517.485,-5.5 376.974,-5.5"/>
<text text-anchor="middle" x="447.229" y="-11.5" font-family="Helvetica,sans-Serif" font-size="10.00">mavlink_test_ardupilotmega</text>
</a>
</g>
</g>
<!-- Node3&#45;&gt;Node4 -->
<g id="edge3" class="edge"><title>Node3&#45;&gt;Node4</title>
<path fill="none" stroke="midnightblue" d="M329.345,-14.5C344.832,-14.5 361.357,-14.5 376.959,-14.5"/>
<polygon fill="midnightblue" stroke="midnightblue" points="329.338,-11.0001 319.338,-14.5 329.338,-18.0001 329.338,-11.0001"/>
</g>
<!-- Node5 -->
<g id="node5" class="node"><title>Node5</title>
<g id="a_node5"><a xlink:href="$ardupilotmega_2testsuite_8h.html#a4cc77b6c343679298da5d3c2b4e48759" xlink:title="mavlink_test_all">
<polygon fill="white" stroke="black" points="553.485,-5.5 553.485,-23.5 640.628,-23.5 640.628,-5.5 553.485,-5.5"/>
<text text-anchor="middle" x="597.057" y="-11.5" font-family="Helvetica,sans-Serif" font-size="10.00">mavlink_test_all</text>
</a>
</g>
</g>
<!-- Node4&#45;&gt;Node5 -->
<g id="edge4" class="edge"><title>Node4&#45;&gt;Node5</title>
<path fill="none" stroke="midnightblue" d="M528.058,-14.5C536.766,-14.5 545.364,-14.5 553.364,-14.5"/>
<polygon fill="midnightblue" stroke="midnightblue" points="527.814,-11.0001 517.814,-14.5 527.814,-18.0001 527.814,-11.0001"/>
</g>
</g>
</svg>
