<?xml version="1.0" encoding="UTF-8" standalone="no"?>
<!DOCTYPE svg PUBLIC "-//W3C//DTD SVG 1.1//EN"
 "http://www.w3.org/Graphics/SVG/1.1/DTD/svg11.dtd">
<!-- Generated by graphviz version 2.38.0 (20140413.2041)
 -->
<!-- Title: mavlink_msg_ap_adc_pack_chan Pages: 1 -->
<svg width="592pt" height="150pt"
 viewBox="0.00 0.00 591.70 150.00" xmlns="http://www.w3.org/2000/svg" xmlns:xlink="http://www.w3.org/1999/xlink">
<g id="graph0" class="graph" transform="scale(1 1) rotate(0) translate(4 146)">
<title>mavlink_msg_ap_adc_pack_chan</title>
<polygon fill="white" stroke="none" points="-4,4 -4,-146 587.704,-146 587.704,4 -4,4"/>
<!-- Node1 -->
<g id="node1" class="node"><title>Node1</title>
<polygon fill="#bfbfbf" stroke="black" points="0,-52.5 0,-80.5 112.719,-80.5 112.719,-52.5 0,-52.5"/>
<text text-anchor="start" x="8" y="-68.5" font-family="Helvetica,sans-Serif" font-size="10.00">mavlink_msg_ap_adc</text>
<text text-anchor="middle" x="56.3594" y="-58.5" font-family="Helvetica,sans-Serif" font-size="10.00">_pack_chan</text>
</g>
<!-- Node2 -->
<g id="node2" class="node"><title>Node2</title>
<g id="a_node2"><a xlink:href="$mavlink__helpers_8h.html#aa66131138fc02101dcc73b4b556ab422" xlink:title="Finalize a MAVLink message with channel assignment. ">
<polygon fill="white" stroke="black" points="148.719,-57.5 148.719,-75.5 308.688,-75.5 308.688,-57.5 148.719,-57.5"/>
<text text-anchor="middle" x="228.704" y="-63.5" font-family="Helvetica,sans-Serif" font-size="10.00">mavlink_finalize_message_chan</text>
</a>
</g>
</g>
<!-- Node1&#45;&gt;Node2 -->
<g id="edge1" class="edge"><title>Node1&#45;&gt;Node2</title>
<path fill="none" stroke="midnightblue" d="M113.136,-66.5C121.296,-66.5 129.866,-66.5 138.491,-66.5"/>
<polygon fill="midnightblue" stroke="midnightblue" points="138.621,-70.0001 148.621,-66.5 138.621,-63.0001 138.621,-70.0001"/>
</g>
<!-- Node3 -->
<g id="node3" class="node"><title>Node3</title>
<g id="a_node3"><a xlink:href="$mavlink__helpers_8h.html#ac006d308067f48514ca5c0cf0b046c28" xlink:title="mavlink_get_channel\l_status">
<polygon fill="white" stroke="black" points="348.207,-113.5 348.207,-141.5 458.157,-141.5 458.157,-113.5 348.207,-113.5"/>
<text text-anchor="start" x="356.207" y="-129.5" font-family="Helvetica,sans-Serif" font-size="10.00">mavlink_get_channel</text>
<text text-anchor="middle" x="403.182" y="-119.5" font-family="Helvetica,sans-Serif" font-size="10.00">_status</text>
</a>
</g>
</g>
<!-- Node2&#45;&gt;Node3 -->
<g id="edge2" class="edge"><title>Node2&#45;&gt;Node3</title>
<path fill="none" stroke="midnightblue" d="M255.153,-75.5008C280.8,-84.571 321.039,-98.8026 352.943,-110.086"/>
<polygon fill="midnightblue" stroke="midnightblue" points="351.956,-113.449 362.551,-113.484 354.29,-106.85 351.956,-113.449"/>
</g>
<!-- Node4 -->
<g id="node4" class="node"><title>Node4</title>
<g id="a_node4"><a xlink:href="$checksum_8h.html#ab4264eb7b9e22aabb5cc3191bce35f4c" xlink:title="Calculates the X.25 checksum on a byte buffer. ">
<polygon fill="white" stroke="black" points="366.002,-76.5 366.002,-94.5 440.361,-94.5 440.361,-76.5 366.002,-76.5"/>
<text text-anchor="middle" x="403.182" y="-82.5" font-family="Helvetica,sans-Serif" font-size="10.00">crc_calculate</text>
</a>
</g>
</g>
<!-- Node2&#45;&gt;Node4 -->
<g id="edge3" class="edge"><title>Node2&#45;&gt;Node4</title>
<path fill="none" stroke="midnightblue" d="M308.875,-75.2215C324.838,-76.9799 341.126,-78.7741 355.531,-80.361"/>
<polygon fill="midnightblue" stroke="midnightblue" points="355.333,-83.8603 365.656,-81.4764 356.1,-76.9024 355.333,-83.8603"/>
</g>
<!-- Node6 -->
<g id="node6" class="node"><title>Node6</title>
<g id="a_node6"><a xlink:href="$checksum_8h.html#ade2bbc31cd3b5b6d839556f56de61957" xlink:title="Accumulate the X.25 CRC by adding one char at a time. ">
<polygon fill="white" stroke="black" points="497.675,-38.5 497.675,-56.5 583.704,-56.5 583.704,-38.5 497.675,-38.5"/>
<text text-anchor="middle" x="540.689" y="-44.5" font-family="Helvetica,sans-Serif" font-size="10.00">crc_accumulate</text>
</a>
</g>
</g>
<!-- Node2&#45;&gt;Node6 -->
<g id="edge8" class="edge"><title>Node2&#45;&gt;Node6</title>
<path fill="none" stroke="midnightblue" d="M308.728,-61.6563C364.829,-58.2177 438.571,-53.6978 487.47,-50.7007"/>
<polygon fill="midnightblue" stroke="midnightblue" points="487.744,-54.1905 497.512,-50.0852 487.316,-47.2036 487.744,-54.1905"/>
</g>
<!-- Node7 -->
<g id="node7" class="node"><title>Node7</title>
<g id="a_node7"><a xlink:href="$checksum_8h.html#abcbaa800e8fcbcdf9bb48168657fbefd" xlink:title="Accumulate the X.25 CRC by adding an array of bytes. ">
<polygon fill="white" stroke="black" points="344.688,-0.5 344.688,-18.5 461.675,-18.5 461.675,-0.5 344.688,-0.5"/>
<text text-anchor="middle" x="403.182" y="-6.5" font-family="Helvetica,sans-Serif" font-size="10.00">crc_accumulate_buffer</text>
</a>
</g>
</g>
<!-- Node2&#45;&gt;Node7 -->
<g id="edge6" class="edge"><title>Node2&#45;&gt;Node7</title>
<path fill="none" stroke="midnightblue" d="M257.033,-57.4682C286.216,-47.8241 332.637,-32.483 365.102,-21.754"/>
<polygon fill="midnightblue" stroke="midnightblue" points="366.298,-25.0449 374.695,-18.5838 364.102,-18.3985 366.298,-25.0449"/>
</g>
<!-- Node5 -->
<g id="node5" class="node"><title>Node5</title>
<g id="a_node5"><a xlink:href="$checksum_8h.html#aee738f6e20d31b027afdd966c79befae" xlink:title="Initiliaze the buffer for the X.25 CRC. ">
<polygon fill="white" stroke="black" points="516.852,-76.5 516.852,-94.5 564.527,-94.5 564.527,-76.5 516.852,-76.5"/>
<text text-anchor="middle" x="540.689" y="-82.5" font-family="Helvetica,sans-Serif" font-size="10.00">crc_init</text>
</a>
</g>
</g>
<!-- Node4&#45;&gt;Node5 -->
<g id="edge4" class="edge"><title>Node4&#45;&gt;Node5</title>
<path fill="none" stroke="midnightblue" d="M440.495,-85.5C460.963,-85.5 486.349,-85.5 506.316,-85.5"/>
<polygon fill="midnightblue" stroke="midnightblue" points="506.496,-89.0001 516.496,-85.5 506.496,-82.0001 506.496,-89.0001"/>
</g>
<!-- Node4&#45;&gt;Node6 -->
<g id="edge5" class="edge"><title>Node4&#45;&gt;Node6</title>
<path fill="none" stroke="midnightblue" d="M436.295,-76.4945C454.64,-71.3501 477.859,-64.839 497.643,-59.2909"/>
<polygon fill="midnightblue" stroke="midnightblue" points="498.653,-62.6427 507.337,-56.5725 496.763,-55.9027 498.653,-62.6427"/>
</g>
<!-- Node7&#45;&gt;Node6 -->
<g id="edge7" class="edge"><title>Node7&#45;&gt;Node6</title>
<path fill="none" stroke="midnightblue" d="M436.295,-18.5055C454.64,-23.6499 477.859,-30.161 497.643,-35.7091"/>
<polygon fill="midnightblue" stroke="midnightblue" points="496.763,-39.0973 507.337,-38.4275 498.653,-32.3573 496.763,-39.0973"/>
</g>
</g>
</svg>
