<?xml version="1.0" encoding="UTF-8" standalone="no"?>
<!DOCTYPE svg PUBLIC "-//W3C//DTD SVG 1.1//EN"
 "http://www.w3.org/Graphics/SVG/1.1/DTD/svg11.dtd">
<!-- Generated by graphviz version 2.38.0 (20140413.2041)
 -->
<!-- Title: mavlink_msg_ap_adc_encode_chan Pages: 1 -->
<svg width="740pt" height="150pt"
 viewBox="0.00 0.00 740.42 150.00" xmlns="http://www.w3.org/2000/svg" xmlns:xlink="http://www.w3.org/1999/xlink">
<g id="graph0" class="graph" transform="scale(1 1) rotate(0) translate(4 146)">
<title>mavlink_msg_ap_adc_encode_chan</title>
<polygon fill="white" stroke="none" points="-4,4 -4,-146 736.423,-146 736.423,4 -4,4"/>
<!-- Node1 -->
<g id="node1" class="node"><title>Node1</title>
<polygon fill="#bfbfbf" stroke="black" points="0,-52.5 0,-80.5 112.719,-80.5 112.719,-52.5 0,-52.5"/>
<text text-anchor="start" x="8" y="-68.5" font-family="Helvetica,sans-Serif" font-size="10.00">mavlink_msg_ap_adc</text>
<text text-anchor="middle" x="56.3594" y="-58.5" font-family="Helvetica,sans-Serif" font-size="10.00">_encode_chan</text>
</g>
<!-- Node2 -->
<g id="node2" class="node"><title>Node2</title>
<g id="a_node2"><a xlink:href="$mavlink__msg__ap__adc_8h.html#a19903d3346e15994576af6403013464b" xlink:title="Pack a ap_adc message on a channel. ">
<polygon fill="white" stroke="black" points="148.719,-52.5 148.719,-80.5 261.438,-80.5 261.438,-52.5 148.719,-52.5"/>
<text text-anchor="start" x="156.719" y="-68.5" font-family="Helvetica,sans-Serif" font-size="10.00">mavlink_msg_ap_adc</text>
<text text-anchor="middle" x="205.078" y="-58.5" font-family="Helvetica,sans-Serif" font-size="10.00">_pack_chan</text>
</a>
</g>
</g>
<!-- Node1&#45;&gt;Node2 -->
<g id="edge1" class="edge"><title>Node1&#45;&gt;Node2</title>
<path fill="none" stroke="midnightblue" d="M112.827,-66.5C121.135,-66.5 129.769,-66.5 138.266,-66.5"/>
<polygon fill="midnightblue" stroke="midnightblue" points="138.532,-70.0001 148.532,-66.5 138.532,-63.0001 138.532,-70.0001"/>
</g>
<!-- Node3 -->
<g id="node3" class="node"><title>Node3</title>
<g id="a_node3"><a xlink:href="$mavlink__helpers_8h.html#aa66131138fc02101dcc73b4b556ab422" xlink:title="Finalize a MAVLink message with channel assignment. ">
<polygon fill="white" stroke="black" points="297.438,-57.5 297.438,-75.5 457.407,-75.5 457.407,-57.5 297.438,-57.5"/>
<text text-anchor="middle" x="377.422" y="-63.5" font-family="Helvetica,sans-Serif" font-size="10.00">mavlink_finalize_message_chan</text>
</a>
</g>
</g>
<!-- Node2&#45;&gt;Node3 -->
<g id="edge2" class="edge"><title>Node2&#45;&gt;Node3</title>
<path fill="none" stroke="midnightblue" d="M261.855,-66.5C270.015,-66.5 278.585,-66.5 287.21,-66.5"/>
<polygon fill="midnightblue" stroke="midnightblue" points="287.34,-70.0001 297.34,-66.5 287.34,-63.0001 287.34,-70.0001"/>
</g>
<!-- Node4 -->
<g id="node4" class="node"><title>Node4</title>
<g id="a_node4"><a xlink:href="$mavlink__helpers_8h.html#ac006d308067f48514ca5c0cf0b046c28" xlink:title="mavlink_get_channel\l_status">
<polygon fill="white" stroke="black" points="496.925,-113.5 496.925,-141.5 606.875,-141.5 606.875,-113.5 496.925,-113.5"/>
<text text-anchor="start" x="504.925" y="-129.5" font-family="Helvetica,sans-Serif" font-size="10.00">mavlink_get_channel</text>
<text text-anchor="middle" x="551.9" y="-119.5" font-family="Helvetica,sans-Serif" font-size="10.00">_status</text>
</a>
</g>
</g>
<!-- Node3&#45;&gt;Node4 -->
<g id="edge3" class="edge"><title>Node3&#45;&gt;Node4</title>
<path fill="none" stroke="midnightblue" d="M403.872,-75.5008C429.518,-84.571 469.758,-98.8026 501.662,-110.086"/>
<polygon fill="midnightblue" stroke="midnightblue" points="500.675,-113.449 511.27,-113.484 503.009,-106.85 500.675,-113.449"/>
</g>
<!-- Node5 -->
<g id="node5" class="node"><title>Node5</title>
<g id="a_node5"><a xlink:href="$checksum_8h.html#ab4264eb7b9e22aabb5cc3191bce35f4c" xlink:title="Calculates the X.25 checksum on a byte buffer. ">
<polygon fill="white" stroke="black" points="514.721,-76.5 514.721,-94.5 589.08,-94.5 589.08,-76.5 514.721,-76.5"/>
<text text-anchor="middle" x="551.9" y="-82.5" font-family="Helvetica,sans-Serif" font-size="10.00">crc_calculate</text>
</a>
</g>
</g>
<!-- Node3&#45;&gt;Node5 -->
<g id="edge4" class="edge"><title>Node3&#45;&gt;Node5</title>
<path fill="none" stroke="midnightblue" d="M457.594,-75.2215C473.557,-76.9799 489.844,-78.7741 504.25,-80.361"/>
<polygon fill="midnightblue" stroke="midnightblue" points="504.052,-83.8603 514.375,-81.4764 504.818,-76.9024 504.052,-83.8603"/>
</g>
<!-- Node7 -->
<g id="node7" class="node"><title>Node7</title>
<g id="a_node7"><a xlink:href="$checksum_8h.html#ade2bbc31cd3b5b6d839556f56de61957" xlink:title="Accumulate the X.25 CRC by adding one char at a time. ">
<polygon fill="white" stroke="black" points="646.394,-38.5 646.394,-56.5 732.423,-56.5 732.423,-38.5 646.394,-38.5"/>
<text text-anchor="middle" x="689.408" y="-44.5" font-family="Helvetica,sans-Serif" font-size="10.00">crc_accumulate</text>
</a>
</g>
</g>
<!-- Node3&#45;&gt;Node7 -->
<g id="edge9" class="edge"><title>Node3&#45;&gt;Node7</title>
<path fill="none" stroke="midnightblue" d="M457.447,-61.6563C513.548,-58.2177 587.29,-53.6978 636.188,-50.7007"/>
<polygon fill="midnightblue" stroke="midnightblue" points="636.463,-54.1905 646.23,-50.0852 636.035,-47.2036 636.463,-54.1905"/>
</g>
<!-- Node8 -->
<g id="node8" class="node"><title>Node8</title>
<g id="a_node8"><a xlink:href="$checksum_8h.html#abcbaa800e8fcbcdf9bb48168657fbefd" xlink:title="Accumulate the X.25 CRC by adding an array of bytes. ">
<polygon fill="white" stroke="black" points="493.407,-0.5 493.407,-18.5 610.394,-18.5 610.394,-0.5 493.407,-0.5"/>
<text text-anchor="middle" x="551.9" y="-6.5" font-family="Helvetica,sans-Serif" font-size="10.00">crc_accumulate_buffer</text>
</a>
</g>
</g>
<!-- Node3&#45;&gt;Node8 -->
<g id="edge7" class="edge"><title>Node3&#45;&gt;Node8</title>
<path fill="none" stroke="midnightblue" d="M405.752,-57.4682C434.934,-47.8241 481.355,-32.483 513.821,-21.754"/>
<polygon fill="midnightblue" stroke="midnightblue" points="515.017,-25.0449 523.414,-18.5838 512.82,-18.3985 515.017,-25.0449"/>
</g>
<!-- Node6 -->
<g id="node6" class="node"><title>Node6</title>
<g id="a_node6"><a xlink:href="$checksum_8h.html#aee738f6e20d31b027afdd966c79befae" xlink:title="Initiliaze the buffer for the X.25 CRC. ">
<polygon fill="white" stroke="black" points="665.571,-76.5 665.571,-94.5 713.246,-94.5 713.246,-76.5 665.571,-76.5"/>
<text text-anchor="middle" x="689.408" y="-82.5" font-family="Helvetica,sans-Serif" font-size="10.00">crc_init</text>
</a>
</g>
</g>
<!-- Node5&#45;&gt;Node6 -->
<g id="edge5" class="edge"><title>Node5&#45;&gt;Node6</title>
<path fill="none" stroke="midnightblue" d="M589.214,-85.5C609.682,-85.5 635.068,-85.5 655.034,-85.5"/>
<polygon fill="midnightblue" stroke="midnightblue" points="655.215,-89.0001 665.215,-85.5 655.215,-82.0001 655.215,-89.0001"/>
</g>
<!-- Node5&#45;&gt;Node7 -->
<g id="edge6" class="edge"><title>Node5&#45;&gt;Node7</title>
<path fill="none" stroke="midnightblue" d="M585.014,-76.4945C603.359,-71.3501 626.577,-64.839 646.362,-59.2909"/>
<polygon fill="midnightblue" stroke="midnightblue" points="647.372,-62.6427 656.056,-56.5725 645.482,-55.9027 647.372,-62.6427"/>
</g>
<!-- Node8&#45;&gt;Node7 -->
<g id="edge8" class="edge"><title>Node8&#45;&gt;Node7</title>
<path fill="none" stroke="midnightblue" d="M585.014,-18.5055C603.359,-23.6499 626.577,-30.161 646.362,-35.7091"/>
<polygon fill="midnightblue" stroke="midnightblue" points="645.482,-39.0973 656.056,-38.4275 647.372,-32.3573 645.482,-39.0973"/>
</g>
</g>
</svg>
