<?xml version="1.0" encoding="UTF-8" standalone="no"?>
<!DOCTYPE svg PUBLIC "-//W3C//DTD SVG 1.1//EN"
 "http://www.w3.org/Graphics/SVG/1.1/DTD/svg11.dtd">
<!-- Generated by graphviz version 2.38.0 (20140413.2041)
 -->
<!-- Title: mavlink_msg_airspeed_autocal_encode_chan Pages: 1 -->
<svg width="753pt" height="150pt"
 viewBox="0.00 0.00 752.68 150.00" xmlns="http://www.w3.org/2000/svg" xmlns:xlink="http://www.w3.org/1999/xlink">
<g id="graph0" class="graph" transform="scale(1 1) rotate(0) translate(4 146)">
<title>mavlink_msg_airspeed_autocal_encode_chan</title>
<polygon fill="white" stroke="none" points="-4,4 -4,-146 748.679,-146 748.679,4 -4,4"/>
<!-- Node1 -->
<g id="node1" class="node"><title>Node1</title>
<polygon fill="#bfbfbf" stroke="black" points="0,-52.5 0,-80.5 119.423,-80.5 119.423,-52.5 0,-52.5"/>
<text text-anchor="start" x="8" y="-68.5" font-family="Helvetica,sans-Serif" font-size="10.00">mavlink_msg_airspeed</text>
<text text-anchor="middle" x="59.7114" y="-58.5" font-family="Helvetica,sans-Serif" font-size="10.00">_autocal_encode_chan</text>
</g>
<!-- Node2 -->
<g id="node2" class="node"><title>Node2</title>
<g id="a_node2"><a xlink:href="$mavlink__msg__airspeed__autocal_8h.html#a6be15ed5ec8b24b8f43ae1cb382535c3" xlink:title="Pack a airspeed_autocal message on a channel. ">
<polygon fill="white" stroke="black" points="155.423,-52.5 155.423,-80.5 273.693,-80.5 273.693,-52.5 155.423,-52.5"/>
<text text-anchor="start" x="163.423" y="-68.5" font-family="Helvetica,sans-Serif" font-size="10.00">mavlink_msg_airspeed</text>
<text text-anchor="middle" x="214.558" y="-58.5" font-family="Helvetica,sans-Serif" font-size="10.00">_autocal_pack_chan</text>
</a>
</g>
</g>
<!-- Node1&#45;&gt;Node2 -->
<g id="edge1" class="edge"><title>Node1&#45;&gt;Node2</title>
<path fill="none" stroke="midnightblue" d="M119.806,-66.5C128.107,-66.5 136.697,-66.5 145.154,-66.5"/>
<polygon fill="midnightblue" stroke="midnightblue" points="145.376,-70.0001 155.376,-66.5 145.376,-63.0001 145.376,-70.0001"/>
</g>
<!-- Node3 -->
<g id="node3" class="node"><title>Node3</title>
<g id="a_node3"><a xlink:href="$mavlink__helpers_8h.html#aa66131138fc02101dcc73b4b556ab422" xlink:title="Finalize a MAVLink message with channel assignment. ">
<polygon fill="white" stroke="black" points="309.693,-57.5 309.693,-75.5 469.663,-75.5 469.663,-57.5 309.693,-57.5"/>
<text text-anchor="middle" x="389.678" y="-63.5" font-family="Helvetica,sans-Serif" font-size="10.00">mavlink_finalize_message_chan</text>
</a>
</g>
</g>
<!-- Node2&#45;&gt;Node3 -->
<g id="edge2" class="edge"><title>Node2&#45;&gt;Node3</title>
<path fill="none" stroke="midnightblue" d="M274.169,-66.5C282.347,-66.5 290.899,-66.5 299.485,-66.5"/>
<polygon fill="midnightblue" stroke="midnightblue" points="299.559,-70.0001 309.559,-66.5 299.559,-63.0001 299.559,-70.0001"/>
</g>
<!-- Node4 -->
<g id="node4" class="node"><title>Node4</title>
<g id="a_node4"><a xlink:href="$mavlink__helpers_8h.html#ac006d308067f48514ca5c0cf0b046c28" xlink:title="mavlink_get_channel\l_status">
<polygon fill="white" stroke="black" points="509.181,-113.5 509.181,-141.5 619.131,-141.5 619.131,-113.5 509.181,-113.5"/>
<text text-anchor="start" x="517.181" y="-129.5" font-family="Helvetica,sans-Serif" font-size="10.00">mavlink_get_channel</text>
<text text-anchor="middle" x="564.156" y="-119.5" font-family="Helvetica,sans-Serif" font-size="10.00">_status</text>
</a>
</g>
</g>
<!-- Node3&#45;&gt;Node4 -->
<g id="edge3" class="edge"><title>Node3&#45;&gt;Node4</title>
<path fill="none" stroke="midnightblue" d="M416.128,-75.5008C441.774,-84.571 482.014,-98.8026 513.917,-110.086"/>
<polygon fill="midnightblue" stroke="midnightblue" points="512.931,-113.449 523.525,-113.484 515.265,-106.85 512.931,-113.449"/>
</g>
<!-- Node5 -->
<g id="node5" class="node"><title>Node5</title>
<g id="a_node5"><a xlink:href="$checksum_8h.html#ab4264eb7b9e22aabb5cc3191bce35f4c" xlink:title="Calculates the X.25 checksum on a byte buffer. ">
<polygon fill="white" stroke="black" points="526.977,-76.5 526.977,-94.5 601.336,-94.5 601.336,-76.5 526.977,-76.5"/>
<text text-anchor="middle" x="564.156" y="-82.5" font-family="Helvetica,sans-Serif" font-size="10.00">crc_calculate</text>
</a>
</g>
</g>
<!-- Node3&#45;&gt;Node5 -->
<g id="edge4" class="edge"><title>Node3&#45;&gt;Node5</title>
<path fill="none" stroke="midnightblue" d="M469.85,-75.2215C485.813,-76.9799 502.1,-78.7741 516.506,-80.361"/>
<polygon fill="midnightblue" stroke="midnightblue" points="516.308,-83.8603 526.631,-81.4764 517.074,-76.9024 516.308,-83.8603"/>
</g>
<!-- Node7 -->
<g id="node7" class="node"><title>Node7</title>
<g id="a_node7"><a xlink:href="$checksum_8h.html#ade2bbc31cd3b5b6d839556f56de61957" xlink:title="Accumulate the X.25 CRC by adding one char at a time. ">
<polygon fill="white" stroke="black" points="658.649,-38.5 658.649,-56.5 744.679,-56.5 744.679,-38.5 658.649,-38.5"/>
<text text-anchor="middle" x="701.664" y="-44.5" font-family="Helvetica,sans-Serif" font-size="10.00">crc_accumulate</text>
</a>
</g>
</g>
<!-- Node3&#45;&gt;Node7 -->
<g id="edge9" class="edge"><title>Node3&#45;&gt;Node7</title>
<path fill="none" stroke="midnightblue" d="M469.703,-61.6563C525.804,-58.2177 599.546,-53.6978 648.444,-50.7007"/>
<polygon fill="midnightblue" stroke="midnightblue" points="648.719,-54.1905 658.486,-50.0852 648.291,-47.2036 648.719,-54.1905"/>
</g>
<!-- Node8 -->
<g id="node8" class="node"><title>Node8</title>
<g id="a_node8"><a xlink:href="$checksum_8h.html#abcbaa800e8fcbcdf9bb48168657fbefd" xlink:title="Accumulate the X.25 CRC by adding an array of bytes. ">
<polygon fill="white" stroke="black" points="505.663,-0.5 505.663,-18.5 622.649,-18.5 622.649,-0.5 505.663,-0.5"/>
<text text-anchor="middle" x="564.156" y="-6.5" font-family="Helvetica,sans-Serif" font-size="10.00">crc_accumulate_buffer</text>
</a>
</g>
</g>
<!-- Node3&#45;&gt;Node8 -->
<g id="edge7" class="edge"><title>Node3&#45;&gt;Node8</title>
<path fill="none" stroke="midnightblue" d="M418.008,-57.4682C447.19,-47.8241 493.611,-32.483 526.077,-21.754"/>
<polygon fill="midnightblue" stroke="midnightblue" points="527.273,-25.0449 535.669,-18.5838 525.076,-18.3985 527.273,-25.0449"/>
</g>
<!-- Node6 -->
<g id="node6" class="node"><title>Node6</title>
<g id="a_node6"><a xlink:href="$checksum_8h.html#aee738f6e20d31b027afdd966c79befae" xlink:title="Initiliaze the buffer for the X.25 CRC. ">
<polygon fill="white" stroke="black" points="677.827,-76.5 677.827,-94.5 725.501,-94.5 725.501,-76.5 677.827,-76.5"/>
<text text-anchor="middle" x="701.664" y="-82.5" font-family="Helvetica,sans-Serif" font-size="10.00">crc_init</text>
</a>
</g>
</g>
<!-- Node5&#45;&gt;Node6 -->
<g id="edge5" class="edge"><title>Node5&#45;&gt;Node6</title>
<path fill="none" stroke="midnightblue" d="M601.47,-85.5C621.937,-85.5 647.324,-85.5 667.29,-85.5"/>
<polygon fill="midnightblue" stroke="midnightblue" points="667.471,-89.0001 677.471,-85.5 667.47,-82.0001 667.471,-89.0001"/>
</g>
<!-- Node5&#45;&gt;Node7 -->
<g id="edge6" class="edge"><title>Node5&#45;&gt;Node7</title>
<path fill="none" stroke="midnightblue" d="M597.27,-76.4945C615.615,-71.3501 638.833,-64.839 658.618,-59.2909"/>
<polygon fill="midnightblue" stroke="midnightblue" points="659.628,-62.6427 668.312,-56.5725 657.738,-55.9027 659.628,-62.6427"/>
</g>
<!-- Node8&#45;&gt;Node7 -->
<g id="edge8" class="edge"><title>Node8&#45;&gt;Node7</title>
<path fill="none" stroke="midnightblue" d="M597.27,-18.5055C615.615,-23.6499 638.833,-30.161 658.618,-35.7091"/>
<polygon fill="midnightblue" stroke="midnightblue" points="657.738,-39.0973 668.312,-38.4275 659.628,-32.3573 657.738,-39.0973"/>
</g>
</g>
</svg>
