<?xml version="1.0" encoding="UTF-8" standalone="no"?>
<!DOCTYPE svg PUBLIC "-//W3C//DTD SVG 1.1//EN"
 "http://www.w3.org/Graphics/SVG/1.1/DTD/svg11.dtd">
<!-- Generated by graphviz version 2.38.0 (20140413.2041)
 -->
<!-- Title: mavlink_msg_airspeed_autocal_pack_chan Pages: 1 -->
<svg width="597pt" height="150pt"
 viewBox="0.00 0.00 597.26 150.00" xmlns="http://www.w3.org/2000/svg" xmlns:xlink="http://www.w3.org/1999/xlink">
<g id="graph0" class="graph" transform="scale(1 1) rotate(0) translate(4 146)">
<title>mavlink_msg_airspeed_autocal_pack_chan</title>
<polygon fill="white" stroke="none" points="-4,4 -4,-146 593.256,-146 593.256,4 -4,4"/>
<!-- Node1 -->
<g id="node1" class="node"><title>Node1</title>
<polygon fill="#bfbfbf" stroke="black" points="0,-52.5 0,-80.5 118.271,-80.5 118.271,-52.5 0,-52.5"/>
<text text-anchor="start" x="8" y="-68.5" font-family="Helvetica,sans-Serif" font-size="10.00">mavlink_msg_airspeed</text>
<text text-anchor="middle" x="59.1353" y="-58.5" font-family="Helvetica,sans-Serif" font-size="10.00">_autocal_pack_chan</text>
</g>
<!-- Node2 -->
<g id="node2" class="node"><title>Node2</title>
<g id="a_node2"><a xlink:href="$mavlink__helpers_8h.html#aa66131138fc02101dcc73b4b556ab422" xlink:title="Finalize a MAVLink message with channel assignment. ">
<polygon fill="white" stroke="black" points="154.271,-57.5 154.271,-75.5 314.24,-75.5 314.24,-57.5 154.271,-57.5"/>
<text text-anchor="middle" x="234.255" y="-63.5" font-family="Helvetica,sans-Serif" font-size="10.00">mavlink_finalize_message_chan</text>
</a>
</g>
</g>
<!-- Node1&#45;&gt;Node2 -->
<g id="edge1" class="edge"><title>Node1&#45;&gt;Node2</title>
<path fill="none" stroke="midnightblue" d="M118.746,-66.5C126.924,-66.5 135.476,-66.5 144.062,-66.5"/>
<polygon fill="midnightblue" stroke="midnightblue" points="144.136,-70.0001 154.136,-66.5 144.136,-63.0001 144.136,-70.0001"/>
</g>
<!-- Node3 -->
<g id="node3" class="node"><title>Node3</title>
<g id="a_node3"><a xlink:href="$mavlink__helpers_8h.html#ac006d308067f48514ca5c0cf0b046c28" xlink:title="mavlink_get_channel\l_status">
<polygon fill="white" stroke="black" points="353.758,-113.5 353.758,-141.5 463.708,-141.5 463.708,-113.5 353.758,-113.5"/>
<text text-anchor="start" x="361.758" y="-129.5" font-family="Helvetica,sans-Serif" font-size="10.00">mavlink_get_channel</text>
<text text-anchor="middle" x="408.733" y="-119.5" font-family="Helvetica,sans-Serif" font-size="10.00">_status</text>
</a>
</g>
</g>
<!-- Node2&#45;&gt;Node3 -->
<g id="edge2" class="edge"><title>Node2&#45;&gt;Node3</title>
<path fill="none" stroke="midnightblue" d="M260.705,-75.5008C286.351,-84.571 326.591,-98.8026 358.495,-110.086"/>
<polygon fill="midnightblue" stroke="midnightblue" points="357.508,-113.449 368.103,-113.484 359.842,-106.85 357.508,-113.449"/>
</g>
<!-- Node4 -->
<g id="node4" class="node"><title>Node4</title>
<g id="a_node4"><a xlink:href="$checksum_8h.html#ab4264eb7b9e22aabb5cc3191bce35f4c" xlink:title="Calculates the X.25 checksum on a byte buffer. ">
<polygon fill="white" stroke="black" points="371.554,-76.5 371.554,-94.5 445.913,-94.5 445.913,-76.5 371.554,-76.5"/>
<text text-anchor="middle" x="408.733" y="-82.5" font-family="Helvetica,sans-Serif" font-size="10.00">crc_calculate</text>
</a>
</g>
</g>
<!-- Node2&#45;&gt;Node4 -->
<g id="edge3" class="edge"><title>Node2&#45;&gt;Node4</title>
<path fill="none" stroke="midnightblue" d="M314.427,-75.2215C330.39,-76.9799 346.677,-78.7741 361.083,-80.361"/>
<polygon fill="midnightblue" stroke="midnightblue" points="360.885,-83.8603 371.208,-81.4764 361.651,-76.9024 360.885,-83.8603"/>
</g>
<!-- Node6 -->
<g id="node6" class="node"><title>Node6</title>
<g id="a_node6"><a xlink:href="$checksum_8h.html#ade2bbc31cd3b5b6d839556f56de61957" xlink:title="Accumulate the X.25 CRC by adding one char at a time. ">
<polygon fill="white" stroke="black" points="503.227,-38.5 503.227,-56.5 589.256,-56.5 589.256,-38.5 503.227,-38.5"/>
<text text-anchor="middle" x="546.241" y="-44.5" font-family="Helvetica,sans-Serif" font-size="10.00">crc_accumulate</text>
</a>
</g>
</g>
<!-- Node2&#45;&gt;Node6 -->
<g id="edge8" class="edge"><title>Node2&#45;&gt;Node6</title>
<path fill="none" stroke="midnightblue" d="M314.28,-61.6563C370.381,-58.2177 444.123,-53.6978 493.021,-50.7007"/>
<polygon fill="midnightblue" stroke="midnightblue" points="493.296,-54.1905 503.063,-50.0852 492.868,-47.2036 493.296,-54.1905"/>
</g>
<!-- Node7 -->
<g id="node7" class="node"><title>Node7</title>
<g id="a_node7"><a xlink:href="$checksum_8h.html#abcbaa800e8fcbcdf9bb48168657fbefd" xlink:title="Accumulate the X.25 CRC by adding an array of bytes. ">
<polygon fill="white" stroke="black" points="350.24,-0.5 350.24,-18.5 467.227,-18.5 467.227,-0.5 350.24,-0.5"/>
<text text-anchor="middle" x="408.733" y="-6.5" font-family="Helvetica,sans-Serif" font-size="10.00">crc_accumulate_buffer</text>
</a>
</g>
</g>
<!-- Node2&#45;&gt;Node7 -->
<g id="edge6" class="edge"><title>Node2&#45;&gt;Node7</title>
<path fill="none" stroke="midnightblue" d="M262.585,-57.4682C291.767,-47.8241 338.188,-32.483 370.654,-21.754"/>
<polygon fill="midnightblue" stroke="midnightblue" points="371.85,-25.0449 380.247,-18.5838 369.653,-18.3985 371.85,-25.0449"/>
</g>
<!-- Node5 -->
<g id="node5" class="node"><title>Node5</title>
<g id="a_node5"><a xlink:href="$checksum_8h.html#aee738f6e20d31b027afdd966c79befae" xlink:title="Initiliaze the buffer for the X.25 CRC. ">
<polygon fill="white" stroke="black" points="522.404,-76.5 522.404,-94.5 570.079,-94.5 570.079,-76.5 522.404,-76.5"/>
<text text-anchor="middle" x="546.241" y="-82.5" font-family="Helvetica,sans-Serif" font-size="10.00">crc_init</text>
</a>
</g>
</g>
<!-- Node4&#45;&gt;Node5 -->
<g id="edge4" class="edge"><title>Node4&#45;&gt;Node5</title>
<path fill="none" stroke="midnightblue" d="M446.047,-85.5C466.515,-85.5 491.901,-85.5 511.867,-85.5"/>
<polygon fill="midnightblue" stroke="midnightblue" points="512.048,-89.0001 522.048,-85.5 512.048,-82.0001 512.048,-89.0001"/>
</g>
<!-- Node4&#45;&gt;Node6 -->
<g id="edge5" class="edge"><title>Node4&#45;&gt;Node6</title>
<path fill="none" stroke="midnightblue" d="M441.847,-76.4945C460.192,-71.3501 483.41,-64.839 503.195,-59.2909"/>
<polygon fill="midnightblue" stroke="midnightblue" points="504.205,-62.6427 512.889,-56.5725 502.315,-55.9027 504.205,-62.6427"/>
</g>
<!-- Node7&#45;&gt;Node6 -->
<g id="edge7" class="edge"><title>Node7&#45;&gt;Node6</title>
<path fill="none" stroke="midnightblue" d="M441.847,-18.5055C460.192,-23.6499 483.41,-30.161 503.195,-35.7091"/>
<polygon fill="midnightblue" stroke="midnightblue" points="502.315,-39.0973 512.889,-38.4275 504.205,-32.3573 502.315,-39.0973"/>
</g>
</g>
</svg>
