<?xml version="1.0" encoding="UTF-8" standalone="no"?>
<!DOCTYPE svg PUBLIC "-//W3C//DTD SVG 1.1//EN"
 "http://www.w3.org/Graphics/SVG/1.1/DTD/svg11.dtd">
<!-- Generated by graphviz version 2.38.0 (20140413.2041)
 -->
<!-- Title: mavlink_msg_autopilot_version_request_encode_chan Pages: 1 -->
<svg width="820pt" height="150pt"
 viewBox="0.00 0.00 819.96 150.00" xmlns="http://www.w3.org/2000/svg" xmlns:xlink="http://www.w3.org/1999/xlink">
<g id="graph0" class="graph" transform="scale(1 1) rotate(0) translate(4 146)">
<title>mavlink_msg_autopilot_version_request_encode_chan</title>
<polygon fill="white" stroke="none" points="-4,4 -4,-146 815.959,-146 815.959,4 -4,4"/>
<!-- Node1 -->
<g id="node1" class="node"><title>Node1</title>
<polygon fill="#bfbfbf" stroke="black" points="0,-52.5 0,-80.5 158.329,-80.5 158.329,-52.5 0,-52.5"/>
<text text-anchor="start" x="8" y="-68.5" font-family="Helvetica,sans-Serif" font-size="10.00">mavlink_msg_autopilot</text>
<text text-anchor="middle" x="79.1646" y="-58.5" font-family="Helvetica,sans-Serif" font-size="10.00">_version_request_encode_chan</text>
</g>
<!-- Node2 -->
<g id="node2" class="node"><title>Node2</title>
<g id="a_node2"><a xlink:href="$mavlink__msg__autopilot__version__request_8h.html#a63288b0425f6102847ffa4e92ff265d2" xlink:title="Pack a autopilot_version_request message on a channel. ">
<polygon fill="white" stroke="black" points="194.329,-52.5 194.329,-80.5 340.974,-80.5 340.974,-52.5 194.329,-52.5"/>
<text text-anchor="start" x="202.329" y="-68.5" font-family="Helvetica,sans-Serif" font-size="10.00">mavlink_msg_autopilot</text>
<text text-anchor="middle" x="267.651" y="-58.5" font-family="Helvetica,sans-Serif" font-size="10.00">_version_request_pack_chan</text>
</a>
</g>
</g>
<!-- Node1&#45;&gt;Node2 -->
<g id="edge1" class="edge"><title>Node1&#45;&gt;Node2</title>
<path fill="none" stroke="midnightblue" d="M158.441,-66.5C166.874,-66.5 175.474,-66.5 183.957,-66.5"/>
<polygon fill="midnightblue" stroke="midnightblue" points="184.226,-70.0001 194.226,-66.5 184.226,-63.0001 184.226,-70.0001"/>
</g>
<!-- Node3 -->
<g id="node3" class="node"><title>Node3</title>
<g id="a_node3"><a xlink:href="$mavlink__helpers_8h.html#aa66131138fc02101dcc73b4b556ab422" xlink:title="Finalize a MAVLink message with channel assignment. ">
<polygon fill="white" stroke="black" points="376.974,-57.5 376.974,-75.5 536.943,-75.5 536.943,-57.5 376.974,-57.5"/>
<text text-anchor="middle" x="456.958" y="-63.5" font-family="Helvetica,sans-Serif" font-size="10.00">mavlink_finalize_message_chan</text>
</a>
</g>
</g>
<!-- Node2&#45;&gt;Node3 -->
<g id="edge2" class="edge"><title>Node2&#45;&gt;Node3</title>
<path fill="none" stroke="midnightblue" d="M341.069,-66.5C349.504,-66.5 358.182,-66.5 366.809,-66.5"/>
<polygon fill="midnightblue" stroke="midnightblue" points="366.895,-70.0001 376.895,-66.5 366.895,-63.0001 366.895,-70.0001"/>
</g>
<!-- Node4 -->
<g id="node4" class="node"><title>Node4</title>
<g id="a_node4"><a xlink:href="$mavlink__helpers_8h.html#ac006d308067f48514ca5c0cf0b046c28" xlink:title="mavlink_get_channel\l_status">
<polygon fill="white" stroke="black" points="576.461,-113.5 576.461,-141.5 686.412,-141.5 686.412,-113.5 576.461,-113.5"/>
<text text-anchor="start" x="584.461" y="-129.5" font-family="Helvetica,sans-Serif" font-size="10.00">mavlink_get_channel</text>
<text text-anchor="middle" x="631.437" y="-119.5" font-family="Helvetica,sans-Serif" font-size="10.00">_status</text>
</a>
</g>
</g>
<!-- Node3&#45;&gt;Node4 -->
<g id="edge3" class="edge"><title>Node3&#45;&gt;Node4</title>
<path fill="none" stroke="midnightblue" d="M483.408,-75.5008C509.054,-84.571 549.294,-98.8026 581.198,-110.086"/>
<polygon fill="midnightblue" stroke="midnightblue" points="580.211,-113.449 590.806,-113.484 582.545,-106.85 580.211,-113.449"/>
</g>
<!-- Node5 -->
<g id="node5" class="node"><title>Node5</title>
<g id="a_node5"><a xlink:href="$checksum_8h.html#ab4264eb7b9e22aabb5cc3191bce35f4c" xlink:title="Calculates the X.25 checksum on a byte buffer. ">
<polygon fill="white" stroke="black" points="594.257,-76.5 594.257,-94.5 668.616,-94.5 668.616,-76.5 594.257,-76.5"/>
<text text-anchor="middle" x="631.437" y="-82.5" font-family="Helvetica,sans-Serif" font-size="10.00">crc_calculate</text>
</a>
</g>
</g>
<!-- Node3&#45;&gt;Node5 -->
<g id="edge4" class="edge"><title>Node3&#45;&gt;Node5</title>
<path fill="none" stroke="midnightblue" d="M537.13,-75.2215C553.093,-76.9799 569.38,-78.7741 583.786,-80.361"/>
<polygon fill="midnightblue" stroke="midnightblue" points="583.588,-83.8603 593.911,-81.4764 584.354,-76.9024 583.588,-83.8603"/>
</g>
<!-- Node7 -->
<g id="node7" class="node"><title>Node7</title>
<g id="a_node7"><a xlink:href="$checksum_8h.html#ade2bbc31cd3b5b6d839556f56de61957" xlink:title="Accumulate the X.25 CRC by adding one char at a time. ">
<polygon fill="white" stroke="black" points="725.93,-38.5 725.93,-56.5 811.959,-56.5 811.959,-38.5 725.93,-38.5"/>
<text text-anchor="middle" x="768.944" y="-44.5" font-family="Helvetica,sans-Serif" font-size="10.00">crc_accumulate</text>
</a>
</g>
</g>
<!-- Node3&#45;&gt;Node7 -->
<g id="edge9" class="edge"><title>Node3&#45;&gt;Node7</title>
<path fill="none" stroke="midnightblue" d="M536.983,-61.6563C593.084,-58.2177 666.826,-53.6978 715.724,-50.7007"/>
<polygon fill="midnightblue" stroke="midnightblue" points="715.999,-54.1905 725.766,-50.0852 715.571,-47.2036 715.999,-54.1905"/>
</g>
<!-- Node8 -->
<g id="node8" class="node"><title>Node8</title>
<g id="a_node8"><a xlink:href="$checksum_8h.html#abcbaa800e8fcbcdf9bb48168657fbefd" xlink:title="Accumulate the X.25 CRC by adding an array of bytes. ">
<polygon fill="white" stroke="black" points="572.943,-0.5 572.943,-18.5 689.93,-18.5 689.93,-0.5 572.943,-0.5"/>
<text text-anchor="middle" x="631.437" y="-6.5" font-family="Helvetica,sans-Serif" font-size="10.00">crc_accumulate_buffer</text>
</a>
</g>
</g>
<!-- Node3&#45;&gt;Node8 -->
<g id="edge7" class="edge"><title>Node3&#45;&gt;Node8</title>
<path fill="none" stroke="midnightblue" d="M485.288,-57.4682C514.47,-47.8241 560.892,-32.483 593.357,-21.754"/>
<polygon fill="midnightblue" stroke="midnightblue" points="594.553,-25.0449 602.95,-18.5838 592.356,-18.3985 594.553,-25.0449"/>
</g>
<!-- Node6 -->
<g id="node6" class="node"><title>Node6</title>
<g id="a_node6"><a xlink:href="$checksum_8h.html#aee738f6e20d31b027afdd966c79befae" xlink:title="Initiliaze the buffer for the X.25 CRC. ">
<polygon fill="white" stroke="black" points="745.107,-76.5 745.107,-94.5 792.782,-94.5 792.782,-76.5 745.107,-76.5"/>
<text text-anchor="middle" x="768.944" y="-82.5" font-family="Helvetica,sans-Serif" font-size="10.00">crc_init</text>
</a>
</g>
</g>
<!-- Node5&#45;&gt;Node6 -->
<g id="edge5" class="edge"><title>Node5&#45;&gt;Node6</title>
<path fill="none" stroke="midnightblue" d="M668.75,-85.5C689.218,-85.5 714.604,-85.5 734.571,-85.5"/>
<polygon fill="midnightblue" stroke="midnightblue" points="734.751,-89.0001 744.751,-85.5 734.751,-82.0001 734.751,-89.0001"/>
</g>
<!-- Node5&#45;&gt;Node7 -->
<g id="edge6" class="edge"><title>Node5&#45;&gt;Node7</title>
<path fill="none" stroke="midnightblue" d="M664.55,-76.4945C682.895,-71.3501 706.113,-64.839 725.898,-59.2909"/>
<polygon fill="midnightblue" stroke="midnightblue" points="726.908,-62.6427 735.592,-56.5725 725.018,-55.9027 726.908,-62.6427"/>
</g>
<!-- Node8&#45;&gt;Node7 -->
<g id="edge8" class="edge"><title>Node8&#45;&gt;Node7</title>
<path fill="none" stroke="midnightblue" d="M664.55,-18.5055C682.895,-23.6499 706.113,-30.161 725.898,-35.7091"/>
<polygon fill="midnightblue" stroke="midnightblue" points="725.018,-39.0973 735.592,-38.4275 726.908,-32.3573 725.018,-39.0973"/>
</g>
</g>
</svg>
