<?xml version="1.0" encoding="UTF-8" standalone="no"?>
<!DOCTYPE svg PUBLIC "-//W3C//DTD SVG 1.1//EN"
 "http://www.w3.org/Graphics/SVG/1.1/DTD/svg11.dtd">
<!-- Generated by graphviz version 2.38.0 (20140413.2041)
 -->
<!-- Title: mavlink_msg_autopilot_version_request_get_target_system Pages: 1 -->
<svg width="743pt" height="47pt"
 viewBox="0.00 0.00 743.40 47.00" xmlns="http://www.w3.org/2000/svg" xmlns:xlink="http://www.w3.org/1999/xlink">
<g id="graph0" class="graph" transform="scale(1 1) rotate(0) translate(4 43)">
<title>mavlink_msg_autopilot_version_request_get_target_system</title>
<polygon fill="white" stroke="none" points="-4,4 -4,-43 739.401,-43 739.401,4 -4,4"/>
<!-- Node1 -->
<g id="node1" class="node"><title>Node1</title>
<polygon fill="#bfbfbf" stroke="black" points="0,-0.5 0,-38.5 117.719,-38.5 117.719,-0.5 0,-0.5"/>
<text text-anchor="start" x="8" y="-26.5" font-family="Helvetica,sans-Serif" font-size="10.00">mavlink_msg_autopilot</text>
<text text-anchor="start" x="8" y="-16.5" font-family="Helvetica,sans-Serif" font-size="10.00">_version_request_get</text>
<text text-anchor="middle" x="58.8594" y="-6.5" font-family="Helvetica,sans-Serif" font-size="10.00">_target_system</text>
</g>
<!-- Node2 -->
<g id="node2" class="node"><title>Node2</title>
<g id="a_node2"><a xlink:href="$mavlink__msg__autopilot__version__request_8h.html#a0cc79cd9b34c048cdf52bbd873fa7abf" xlink:title="Decode a autopilot_version_request message into a struct. ">
<polygon fill="white" stroke="black" points="153.719,-5.5 153.719,-33.5 284.802,-33.5 284.802,-5.5 153.719,-5.5"/>
<text text-anchor="start" x="161.719" y="-21.5" font-family="Helvetica,sans-Serif" font-size="10.00">mavlink_msg_autopilot</text>
<text text-anchor="middle" x="219.26" y="-11.5" font-family="Helvetica,sans-Serif" font-size="10.00">_version_request_decode</text>
</a>
</g>
</g>
<!-- Node1&#45;&gt;Node2 -->
<g id="edge1" class="edge"><title>Node1&#45;&gt;Node2</title>
<path fill="none" stroke="midnightblue" d="M128.109,-19.5C136.534,-19.5 145.128,-19.5 153.499,-19.5"/>
<polygon fill="midnightblue" stroke="midnightblue" points="127.943,-16.0001 117.943,-19.5 127.943,-23.0001 127.943,-16.0001"/>
</g>
<!-- Node3 -->
<g id="node3" class="node"><title>Node3</title>
<g id="a_node3"><a xlink:href="$ardupilotmega_2testsuite_8h.html#a55ec9127e252ac854c27be5498a5f911" xlink:title="mavlink_test_autopilot\l_version_request">
<polygon fill="white" stroke="black" points="320.802,-5.5 320.802,-33.5 435.747,-33.5 435.747,-5.5 320.802,-5.5"/>
<text text-anchor="start" x="328.802" y="-21.5" font-family="Helvetica,sans-Serif" font-size="10.00">mavlink_test_autopilot</text>
<text text-anchor="middle" x="378.274" y="-11.5" font-family="Helvetica,sans-Serif" font-size="10.00">_version_request</text>
</a>
</g>
</g>
<!-- Node2&#45;&gt;Node3 -->
<g id="edge2" class="edge"><title>Node2&#45;&gt;Node3</title>
<path fill="none" stroke="midnightblue" d="M295.086,-19.5C303.696,-19.5 312.366,-19.5 320.679,-19.5"/>
<polygon fill="midnightblue" stroke="midnightblue" points="295.03,-16.0001 285.03,-19.5 295.03,-23.0001 295.03,-16.0001"/>
</g>
<!-- Node4 -->
<g id="node4" class="node"><title>Node4</title>
<g id="a_node4"><a xlink:href="$ardupilotmega_2testsuite_8h.html#ab264d471ac2f46584f2bb580704b5e9d" xlink:title="mavlink_test_ardupilotmega">
<polygon fill="white" stroke="black" points="471.747,-10.5 471.747,-28.5 612.259,-28.5 612.259,-10.5 471.747,-10.5"/>
<text text-anchor="middle" x="542.003" y="-16.5" font-family="Helvetica,sans-Serif" font-size="10.00">mavlink_test_ardupilotmega</text>
</a>
</g>
</g>
<!-- Node3&#45;&gt;Node4 -->
<g id="edge3" class="edge"><title>Node3&#45;&gt;Node4</title>
<path fill="none" stroke="midnightblue" d="M446.029,-19.5C454.49,-19.5 463.164,-19.5 471.664,-19.5"/>
<polygon fill="midnightblue" stroke="midnightblue" points="445.839,-16.0001 435.839,-19.5 445.839,-23.0001 445.839,-16.0001"/>
</g>
<!-- Node5 -->
<g id="node5" class="node"><title>Node5</title>
<g id="a_node5"><a xlink:href="$ardupilotmega_2testsuite_8h.html#a4cc77b6c343679298da5d3c2b4e48759" xlink:title="mavlink_test_all">
<polygon fill="white" stroke="black" points="648.259,-10.5 648.259,-28.5 735.401,-28.5 735.401,-10.5 648.259,-10.5"/>
<text text-anchor="middle" x="691.83" y="-16.5" font-family="Helvetica,sans-Serif" font-size="10.00">mavlink_test_all</text>
</a>
</g>
</g>
<!-- Node4&#45;&gt;Node5 -->
<g id="edge4" class="edge"><title>Node4&#45;&gt;Node5</title>
<path fill="none" stroke="midnightblue" d="M622.832,-19.5C631.54,-19.5 640.137,-19.5 648.137,-19.5"/>
<polygon fill="midnightblue" stroke="midnightblue" points="622.588,-16.0001 612.588,-19.5 622.588,-23.0001 622.588,-16.0001"/>
</g>
</g>
</svg>
