<?xml version="1.0" encoding="UTF-8" standalone="no"?>
<!DOCTYPE svg PUBLIC "-//W3C//DTD SVG 1.1//EN"
 "http://www.w3.org/Graphics/SVG/1.1/DTD/svg11.dtd">
<!-- Generated by graphviz version 2.38.0 (20140413.2041)
 -->
<!-- Title: mavlink_msg_ahrs3_get_v2 Pages: 1 -->
<svg width="766pt" height="27pt"
 viewBox="0.00 0.00 765.61 27.00" xmlns="http://www.w3.org/2000/svg" xmlns:xlink="http://www.w3.org/1999/xlink">
<g id="graph0" class="graph" transform="scale(1 1) rotate(0) translate(4 23)">
<title>mavlink_msg_ahrs3_get_v2</title>
<polygon fill="white" stroke="none" points="-4,4 -4,-23 761.613,-23 761.613,4 -4,4"/>
<!-- Node1 -->
<g id="node1" class="node"><title>Node1</title>
<polygon fill="#bfbfbf" stroke="black" points="0,-0.5 0,-18.5 140.512,-18.5 140.512,-0.5 0,-0.5"/>
<text text-anchor="middle" x="70.2559" y="-6.5" font-family="Helvetica,sans-Serif" font-size="10.00">mavlink_msg_ahrs3_get_v2</text>
</g>
<!-- Node2 -->
<g id="node2" class="node"><title>Node2</title>
<g id="a_node2"><a xlink:href="$mavlink__msg__ahrs3_8h.html#a3a61dbce143aed774f8660aebbd539d0" xlink:title="Decode a ahrs3 message into a struct. ">
<polygon fill="white" stroke="black" points="176.512,-0.5 176.512,-18.5 319.807,-18.5 319.807,-0.5 176.512,-0.5"/>
<text text-anchor="middle" x="248.159" y="-6.5" font-family="Helvetica,sans-Serif" font-size="10.00">mavlink_msg_ahrs3_decode</text>
</a>
</g>
</g>
<!-- Node1&#45;&gt;Node2 -->
<g id="edge1" class="edge"><title>Node1&#45;&gt;Node2</title>
<path fill="none" stroke="midnightblue" d="M150.595,-9.5C159.233,-9.5 167.984,-9.5 176.509,-9.5"/>
<polygon fill="midnightblue" stroke="midnightblue" points="150.525,-6.0001 140.525,-9.5 150.525,-13.0001 150.525,-6.0001"/>
</g>
<!-- Node3 -->
<g id="node3" class="node"><title>Node3</title>
<g id="a_node3"><a xlink:href="$ardupilotmega_2testsuite_8h.html#ac90b4e636c4827b41f51ed6409dcf060" xlink:title="mavlink_test_ahrs3">
<polygon fill="white" stroke="black" points="355.807,-0.5 355.807,-18.5 457.959,-18.5 457.959,-0.5 355.807,-0.5"/>
<text text-anchor="middle" x="406.883" y="-6.5" font-family="Helvetica,sans-Serif" font-size="10.00">mavlink_test_ahrs3</text>
</a>
</g>
</g>
<!-- Node2&#45;&gt;Node3 -->
<g id="edge2" class="edge"><title>Node2&#45;&gt;Node3</title>
<path fill="none" stroke="midnightblue" d="M330.327,-9.5C338.972,-9.5 347.57,-9.5 355.702,-9.5"/>
<polygon fill="midnightblue" stroke="midnightblue" points="330.184,-6.0001 320.184,-9.5 330.184,-13.0001 330.184,-6.0001"/>
</g>
<!-- Node4 -->
<g id="node4" class="node"><title>Node4</title>
<g id="a_node4"><a xlink:href="$ardupilotmega_2testsuite_8h.html#ab264d471ac2f46584f2bb580704b5e9d" xlink:title="mavlink_test_ardupilotmega">
<polygon fill="white" stroke="black" points="493.959,-0.5 493.959,-18.5 634.471,-18.5 634.471,-0.5 493.959,-0.5"/>
<text text-anchor="middle" x="564.215" y="-6.5" font-family="Helvetica,sans-Serif" font-size="10.00">mavlink_test_ardupilotmega</text>
</a>
</g>
</g>
<!-- Node3&#45;&gt;Node4 -->
<g id="edge3" class="edge"><title>Node3&#45;&gt;Node4</title>
<path fill="none" stroke="midnightblue" d="M468.342,-9.5C476.7,-9.5 485.337,-9.5 493.84,-9.5"/>
<polygon fill="midnightblue" stroke="midnightblue" points="468.315,-6.0001 458.315,-9.5 468.315,-13.0001 468.315,-6.0001"/>
</g>
<!-- Node5 -->
<g id="node5" class="node"><title>Node5</title>
<g id="a_node5"><a xlink:href="$ardupilotmega_2testsuite_8h.html#a4cc77b6c343679298da5d3c2b4e48759" xlink:title="mavlink_test_all">
<polygon fill="white" stroke="black" points="670.471,-0.5 670.471,-18.5 757.613,-18.5 757.613,-0.5 670.471,-0.5"/>
<text text-anchor="middle" x="714.042" y="-6.5" font-family="Helvetica,sans-Serif" font-size="10.00">mavlink_test_all</text>
</a>
</g>
</g>
<!-- Node4&#45;&gt;Node5 -->
<g id="edge4" class="edge"><title>Node4&#45;&gt;Node5</title>
<path fill="none" stroke="midnightblue" d="M645.044,-9.5C653.752,-9.5 662.349,-9.5 670.349,-9.5"/>
<polygon fill="midnightblue" stroke="midnightblue" points="644.8,-6.0001 634.8,-9.5 644.8,-13.0001 644.8,-6.0001"/>
</g>
</g>
</svg>
