<?xml version="1.0" encoding="UTF-8" standalone="no"?>
<!DOCTYPE svg PUBLIC "-//W3C//DTD SVG 1.1//EN"
 "http://www.w3.org/Graphics/SVG/1.1/DTD/svg11.dtd">
<!-- Generated by graphviz version 2.38.0 (20140413.2041)
 -->
<!-- Title: mavlink_msg_autopilot_version_request_pack Pages: 1 -->
<svg width="767pt" height="150pt"
 viewBox="0.00 0.00 767.11 150.00" xmlns="http://www.w3.org/2000/svg" xmlns:xlink="http://www.w3.org/1999/xlink">
<g id="graph0" class="graph" transform="scale(1 1) rotate(0) translate(4 146)">
<title>mavlink_msg_autopilot_version_request_pack</title>
<polygon fill="white" stroke="none" points="-4,4 -4,-146 763.107,-146 763.107,4 -4,4"/>
<!-- Node1 -->
<g id="node1" class="node"><title>Node1</title>
<polygon fill="#bfbfbf" stroke="black" points="0,-52.5 0,-80.5 119.398,-80.5 119.398,-52.5 0,-52.5"/>
<text text-anchor="start" x="8" y="-68.5" font-family="Helvetica,sans-Serif" font-size="10.00">mavlink_msg_autopilot</text>
<text text-anchor="middle" x="59.6992" y="-58.5" font-family="Helvetica,sans-Serif" font-size="10.00">_version_request_pack</text>
</g>
<!-- Node2 -->
<g id="node2" class="node"><title>Node2</title>
<g id="a_node2"><a xlink:href="$mavlink__helpers_8h.html#af3bea083c5ec83f5b6570b2bd4a817d0" xlink:title="Finalize a MAVLink message with MAVLINK_COMM_0 as default channel. ">
<polygon fill="white" stroke="black" points="155.398,-57.5 155.398,-75.5 288.122,-75.5 288.122,-57.5 155.398,-57.5"/>
<text text-anchor="middle" x="221.76" y="-63.5" font-family="Helvetica,sans-Serif" font-size="10.00">mavlink_finalize_message</text>
</a>
</g>
</g>
<!-- Node1&#45;&gt;Node2 -->
<g id="edge1" class="edge"><title>Node1&#45;&gt;Node2</title>
<path fill="none" stroke="midnightblue" d="M119.845,-66.5C128.166,-66.5 136.811,-66.5 145.384,-66.5"/>
<polygon fill="midnightblue" stroke="midnightblue" points="145.392,-70.0001 155.392,-66.5 145.392,-63.0001 145.392,-70.0001"/>
</g>
<!-- Node3 -->
<g id="node3" class="node"><title>Node3</title>
<g id="a_node3"><a xlink:href="$mavlink__helpers_8h.html#aa66131138fc02101dcc73b4b556ab422" xlink:title="Finalize a MAVLink message with channel assignment. ">
<polygon fill="white" stroke="black" points="324.122,-57.5 324.122,-75.5 484.092,-75.5 484.092,-57.5 324.122,-57.5"/>
<text text-anchor="middle" x="404.107" y="-63.5" font-family="Helvetica,sans-Serif" font-size="10.00">mavlink_finalize_message_chan</text>
</a>
</g>
</g>
<!-- Node2&#45;&gt;Node3 -->
<g id="edge2" class="edge"><title>Node2&#45;&gt;Node3</title>
<path fill="none" stroke="midnightblue" d="M288.125,-66.5C296.457,-66.5 305.095,-66.5 313.724,-66.5"/>
<polygon fill="midnightblue" stroke="midnightblue" points="313.831,-70.0001 323.83,-66.5 313.83,-63.0001 313.831,-70.0001"/>
</g>
<!-- Node4 -->
<g id="node4" class="node"><title>Node4</title>
<g id="a_node4"><a xlink:href="$mavlink__helpers_8h.html#ac006d308067f48514ca5c0cf0b046c28" xlink:title="mavlink_get_channel\l_status">
<polygon fill="white" stroke="black" points="523.61,-113.5 523.61,-141.5 633.56,-141.5 633.56,-113.5 523.61,-113.5"/>
<text text-anchor="start" x="531.61" y="-129.5" font-family="Helvetica,sans-Serif" font-size="10.00">mavlink_get_channel</text>
<text text-anchor="middle" x="578.585" y="-119.5" font-family="Helvetica,sans-Serif" font-size="10.00">_status</text>
</a>
</g>
</g>
<!-- Node3&#45;&gt;Node4 -->
<g id="edge3" class="edge"><title>Node3&#45;&gt;Node4</title>
<path fill="none" stroke="midnightblue" d="M430.557,-75.5008C456.203,-84.571 496.443,-98.8026 528.346,-110.086"/>
<polygon fill="midnightblue" stroke="midnightblue" points="527.359,-113.449 537.954,-113.484 529.693,-106.85 527.359,-113.449"/>
</g>
<!-- Node5 -->
<g id="node5" class="node"><title>Node5</title>
<g id="a_node5"><a xlink:href="$checksum_8h.html#ab4264eb7b9e22aabb5cc3191bce35f4c" xlink:title="Calculates the X.25 checksum on a byte buffer. ">
<polygon fill="white" stroke="black" points="541.405,-76.5 541.405,-94.5 615.765,-94.5 615.765,-76.5 541.405,-76.5"/>
<text text-anchor="middle" x="578.585" y="-82.5" font-family="Helvetica,sans-Serif" font-size="10.00">crc_calculate</text>
</a>
</g>
</g>
<!-- Node3&#45;&gt;Node5 -->
<g id="edge4" class="edge"><title>Node3&#45;&gt;Node5</title>
<path fill="none" stroke="midnightblue" d="M484.279,-75.2215C500.241,-76.9799 516.529,-78.7741 530.934,-80.361"/>
<polygon fill="midnightblue" stroke="midnightblue" points="530.736,-83.8603 541.06,-81.4764 531.503,-76.9024 530.736,-83.8603"/>
</g>
<!-- Node7 -->
<g id="node7" class="node"><title>Node7</title>
<g id="a_node7"><a xlink:href="$checksum_8h.html#ade2bbc31cd3b5b6d839556f56de61957" xlink:title="Accumulate the X.25 CRC by adding one char at a time. ">
<polygon fill="white" stroke="black" points="673.078,-38.5 673.078,-56.5 759.107,-56.5 759.107,-38.5 673.078,-38.5"/>
<text text-anchor="middle" x="716.093" y="-44.5" font-family="Helvetica,sans-Serif" font-size="10.00">crc_accumulate</text>
</a>
</g>
</g>
<!-- Node3&#45;&gt;Node7 -->
<g id="edge9" class="edge"><title>Node3&#45;&gt;Node7</title>
<path fill="none" stroke="midnightblue" d="M484.132,-61.6563C540.232,-58.2177 613.975,-53.6978 662.873,-50.7007"/>
<polygon fill="midnightblue" stroke="midnightblue" points="663.148,-54.1905 672.915,-50.0852 662.719,-47.2036 663.148,-54.1905"/>
</g>
<!-- Node8 -->
<g id="node8" class="node"><title>Node8</title>
<g id="a_node8"><a xlink:href="$checksum_8h.html#abcbaa800e8fcbcdf9bb48168657fbefd" xlink:title="Accumulate the X.25 CRC by adding an array of bytes. ">
<polygon fill="white" stroke="black" points="520.092,-0.5 520.092,-18.5 637.078,-18.5 637.078,-0.5 520.092,-0.5"/>
<text text-anchor="middle" x="578.585" y="-6.5" font-family="Helvetica,sans-Serif" font-size="10.00">crc_accumulate_buffer</text>
</a>
</g>
</g>
<!-- Node3&#45;&gt;Node8 -->
<g id="edge7" class="edge"><title>Node3&#45;&gt;Node8</title>
<path fill="none" stroke="midnightblue" d="M432.437,-57.4682C461.619,-47.8241 508.04,-32.483 540.505,-21.754"/>
<polygon fill="midnightblue" stroke="midnightblue" points="541.701,-25.0449 550.098,-18.5838 539.505,-18.3985 541.701,-25.0449"/>
</g>
<!-- Node6 -->
<g id="node6" class="node"><title>Node6</title>
<g id="a_node6"><a xlink:href="$checksum_8h.html#aee738f6e20d31b027afdd966c79befae" xlink:title="Initiliaze the buffer for the X.25 CRC. ">
<polygon fill="white" stroke="black" points="692.255,-76.5 692.255,-94.5 739.93,-94.5 739.93,-76.5 692.255,-76.5"/>
<text text-anchor="middle" x="716.093" y="-82.5" font-family="Helvetica,sans-Serif" font-size="10.00">crc_init</text>
</a>
</g>
</g>
<!-- Node5&#45;&gt;Node6 -->
<g id="edge5" class="edge"><title>Node5&#45;&gt;Node6</title>
<path fill="none" stroke="midnightblue" d="M615.899,-85.5C636.366,-85.5 661.752,-85.5 681.719,-85.5"/>
<polygon fill="midnightblue" stroke="midnightblue" points="681.899,-89.0001 691.899,-85.5 681.899,-82.0001 681.899,-89.0001"/>
</g>
<!-- Node5&#45;&gt;Node7 -->
<g id="edge6" class="edge"><title>Node5&#45;&gt;Node7</title>
<path fill="none" stroke="midnightblue" d="M611.698,-76.4945C630.044,-71.3501 653.262,-64.839 673.046,-59.2909"/>
<polygon fill="midnightblue" stroke="midnightblue" points="674.057,-62.6427 682.74,-56.5725 672.167,-55.9027 674.057,-62.6427"/>
</g>
<!-- Node8&#45;&gt;Node7 -->
<g id="edge8" class="edge"><title>Node8&#45;&gt;Node7</title>
<path fill="none" stroke="midnightblue" d="M611.698,-18.5055C630.044,-23.6499 653.262,-30.161 673.046,-35.7091"/>
<polygon fill="midnightblue" stroke="midnightblue" points="672.167,-39.0973 682.74,-38.4275 674.057,-32.3573 672.167,-39.0973"/>
</g>
</g>
</svg>
