<?xml version="1.0" encoding="UTF-8" standalone="no"?>
<!DOCTYPE svg PUBLIC "-//W3C//DTD SVG 1.1//EN"
 "http://www.w3.org/Graphics/SVG/1.1/DTD/svg11.dtd">
<!-- Generated by graphviz version 2.38.0 (20140413.2041)
 -->
<!-- Title: mavlink_msg_autopilot_version_request_decode Pages: 1 -->
<svg width="293pt" height="104pt"
 viewBox="0.00 0.00 292.80 104.00" xmlns="http://www.w3.org/2000/svg" xmlns:xlink="http://www.w3.org/1999/xlink">
<g id="graph0" class="graph" transform="scale(1 1) rotate(0) translate(4 100)">
<title>mavlink_msg_autopilot_version_request_decode</title>
<polygon fill="white" stroke="none" points="-4,4 -4,-100 288.802,-100 288.802,4 -4,4"/>
<!-- Node1 -->
<g id="node1" class="node"><title>Node1</title>
<polygon fill="#bfbfbf" stroke="black" points="0,-33.5 0,-61.5 131.083,-61.5 131.083,-33.5 0,-33.5"/>
<text text-anchor="start" x="8" y="-49.5" font-family="Helvetica,sans-Serif" font-size="10.00">mavlink_msg_autopilot</text>
<text text-anchor="middle" x="65.5415" y="-39.5" font-family="Helvetica,sans-Serif" font-size="10.00">_version_request_decode</text>
</g>
<!-- Node2 -->
<g id="node2" class="node"><title>Node2</title>
<g id="a_node2"><a xlink:href="$mavlink__msg__autopilot__version__request_8h.html#a32b4692c53366b42f0213e646144cace" xlink:title="Send a autopilot_version_request message. ">
<polygon fill="white" stroke="black" points="167.083,-57.5 167.083,-95.5 284.802,-95.5 284.802,-57.5 167.083,-57.5"/>
<text text-anchor="start" x="175.083" y="-83.5" font-family="Helvetica,sans-Serif" font-size="10.00">mavlink_msg_autopilot</text>
<text text-anchor="start" x="175.083" y="-73.5" font-family="Helvetica,sans-Serif" font-size="10.00">_version_request_get</text>
<text text-anchor="middle" x="225.942" y="-63.5" font-family="Helvetica,sans-Serif" font-size="10.00">_target_system</text>
</a>
</g>
</g>
<!-- Node1&#45;&gt;Node2 -->
<g id="edge1" class="edge"><title>Node1&#45;&gt;Node2</title>
<path fill="none" stroke="midnightblue" d="M131.426,-59.3791C139.901,-60.9306 148.601,-62.5235 157.122,-64.0835"/>
<polygon fill="midnightblue" stroke="midnightblue" points="156.552,-67.5372 167.019,-65.8954 157.813,-60.6516 156.552,-67.5372"/>
</g>
<!-- Node3 -->
<g id="node3" class="node"><title>Node3</title>
<g id="a_node3"><a xlink:href="$mavlink__msg__autopilot__version__request_8h.html#abbfeba1194724c12537bce133dc76b59" xlink:title="Get field target_component from autopilot_version_request message. ">
<polygon fill="white" stroke="black" points="167.083,-0.5 167.083,-38.5 284.802,-38.5 284.802,-0.5 167.083,-0.5"/>
<text text-anchor="start" x="175.083" y="-26.5" font-family="Helvetica,sans-Serif" font-size="10.00">mavlink_msg_autopilot</text>
<text text-anchor="start" x="175.083" y="-16.5" font-family="Helvetica,sans-Serif" font-size="10.00">_version_request_get</text>
<text text-anchor="middle" x="225.942" y="-6.5" font-family="Helvetica,sans-Serif" font-size="10.00">_target_component</text>
</a>
</g>
</g>
<!-- Node1&#45;&gt;Node3 -->
<g id="edge2" class="edge"><title>Node1&#45;&gt;Node3</title>
<path fill="none" stroke="midnightblue" d="M131.426,-36.0305C139.901,-34.5325 148.601,-32.9946 157.122,-31.4883"/>
<polygon fill="midnightblue" stroke="midnightblue" points="157.781,-34.9263 167.019,-29.739 156.562,-28.0332 157.781,-34.9263"/>
</g>
</g>
</svg>
