<?xml version="1.0" encoding="UTF-8" standalone="no"?>
<!DOCTYPE svg PUBLIC "-//W3C//DTD SVG 1.1//EN"
 "http://www.w3.org/Graphics/SVG/1.1/DTD/svg11.dtd">
<!-- Generated by graphviz version 2.38.0 (20140413.2041)
 -->
<!-- Title: mavlink_msg_airspeed_autocal_get_diff_pressure Pages: 1 -->
<svg width="750pt" height="37pt"
 viewBox="0.00 0.00 749.89 37.00" xmlns="http://www.w3.org/2000/svg" xmlns:xlink="http://www.w3.org/1999/xlink">
<g id="graph0" class="graph" transform="scale(1 1) rotate(0) translate(4 33)">
<title>mavlink_msg_airspeed_autocal_get_diff_pressure</title>
<polygon fill="white" stroke="none" points="-4,4 -4,-33 745.886,-33 745.886,4 -4,4"/>
<!-- Node1 -->
<g id="node1" class="node"><title>Node1</title>
<polygon fill="#bfbfbf" stroke="black" points="0,-0.5 0,-28.5 136.464,-28.5 136.464,-0.5 0,-0.5"/>
<text text-anchor="start" x="8" y="-16.5" font-family="Helvetica,sans-Serif" font-size="10.00">mavlink_msg_airspeed</text>
<text text-anchor="middle" x="68.2319" y="-6.5" font-family="Helvetica,sans-Serif" font-size="10.00">_autocal_get_diff_pressure</text>
</g>
<!-- Node2 -->
<g id="node2" class="node"><title>Node2</title>
<g id="a_node2"><a xlink:href="$mavlink__msg__airspeed__autocal_8h.html#af99b15e0a4d22c4839612e0a3a309670" xlink:title="Decode a airspeed_autocal message into a struct. ">
<polygon fill="white" stroke="black" points="172.464,-0.5 172.464,-28.5 290.734,-28.5 290.734,-0.5 172.464,-0.5"/>
<text text-anchor="start" x="180.464" y="-16.5" font-family="Helvetica,sans-Serif" font-size="10.00">mavlink_msg_airspeed</text>
<text text-anchor="middle" x="231.599" y="-6.5" font-family="Helvetica,sans-Serif" font-size="10.00">_autocal_decode</text>
</a>
</g>
</g>
<!-- Node1&#45;&gt;Node2 -->
<g id="edge1" class="edge"><title>Node1&#45;&gt;Node2</title>
<path fill="none" stroke="midnightblue" d="M146.783,-14.5C155.385,-14.5 164.034,-14.5 172.338,-14.5"/>
<polygon fill="midnightblue" stroke="midnightblue" points="146.731,-11.0001 136.731,-14.5 146.731,-18.0001 146.731,-11.0001"/>
</g>
<!-- Node3 -->
<g id="node3" class="node"><title>Node3</title>
<g id="a_node3"><a xlink:href="$ardupilotmega_2testsuite_8h.html#a56839dfbdb9818fef8ff1529de3eeffe" xlink:title="mavlink_test_airspeed\l_autocal">
<polygon fill="white" stroke="black" points="326.734,-0.5 326.734,-28.5 442.231,-28.5 442.231,-0.5 326.734,-0.5"/>
<text text-anchor="start" x="334.734" y="-16.5" font-family="Helvetica,sans-Serif" font-size="10.00">mavlink_test_airspeed</text>
<text text-anchor="middle" x="384.483" y="-6.5" font-family="Helvetica,sans-Serif" font-size="10.00">_autocal</text>
</a>
</g>
</g>
<!-- Node2&#45;&gt;Node3 -->
<g id="edge2" class="edge"><title>Node2&#45;&gt;Node3</title>
<path fill="none" stroke="midnightblue" d="M301.117,-14.5C309.535,-14.5 318.07,-14.5 326.296,-14.5"/>
<polygon fill="midnightblue" stroke="midnightblue" points="300.935,-11.0001 290.935,-14.5 300.935,-18.0001 300.935,-11.0001"/>
</g>
<!-- Node4 -->
<g id="node4" class="node"><title>Node4</title>
<g id="a_node4"><a xlink:href="$ardupilotmega_2testsuite_8h.html#ab264d471ac2f46584f2bb580704b5e9d" xlink:title="mavlink_test_ardupilotmega">
<polygon fill="white" stroke="black" points="478.231,-5.5 478.231,-23.5 618.743,-23.5 618.743,-5.5 478.231,-5.5"/>
<text text-anchor="middle" x="548.487" y="-11.5" font-family="Helvetica,sans-Serif" font-size="10.00">mavlink_test_ardupilotmega</text>
</a>
</g>
</g>
<!-- Node3&#45;&gt;Node4 -->
<g id="edge3" class="edge"><title>Node3&#45;&gt;Node4</title>
<path fill="none" stroke="midnightblue" d="M452.704,-14.5C461.092,-14.5 469.682,-14.5 478.102,-14.5"/>
<polygon fill="midnightblue" stroke="midnightblue" points="452.6,-11.0001 442.6,-14.5 452.6,-18.0001 452.6,-11.0001"/>
</g>
<!-- Node5 -->
<g id="node5" class="node"><title>Node5</title>
<g id="a_node5"><a xlink:href="$ardupilotmega_2testsuite_8h.html#a4cc77b6c343679298da5d3c2b4e48759" xlink:title="mavlink_test_all">
<polygon fill="white" stroke="black" points="654.743,-5.5 654.743,-23.5 741.886,-23.5 741.886,-5.5 654.743,-5.5"/>
<text text-anchor="middle" x="698.314" y="-11.5" font-family="Helvetica,sans-Serif" font-size="10.00">mavlink_test_all</text>
</a>
</g>
</g>
<!-- Node4&#45;&gt;Node5 -->
<g id="edge4" class="edge"><title>Node4&#45;&gt;Node5</title>
<path fill="none" stroke="midnightblue" d="M629.316,-14.5C638.024,-14.5 646.622,-14.5 654.622,-14.5"/>
<polygon fill="midnightblue" stroke="midnightblue" points="629.072,-11.0001 619.072,-14.5 629.072,-18.0001 629.072,-11.0001"/>
</g>
</g>
</svg>
