<?xml version="1.0" encoding="UTF-8" standalone="no"?>
<!DOCTYPE svg PUBLIC "-//W3C//DTD SVG 1.1//EN"
 "http://www.w3.org/Graphics/SVG/1.1/DTD/svg11.dtd">
<!-- Generated by graphviz version 2.38.0 (20140413.2041)
 -->
<!-- Title: mavlink_msg_ahrs2_pack Pages: 1 -->
<svg width="779pt" height="150pt"
 viewBox="0.00 0.00 779.32 150.00" xmlns="http://www.w3.org/2000/svg" xmlns:xlink="http://www.w3.org/1999/xlink">
<g id="graph0" class="graph" transform="scale(1 1) rotate(0) translate(4 146)">
<title>mavlink_msg_ahrs2_pack</title>
<polygon fill="white" stroke="none" points="-4,4 -4,-146 775.319,-146 775.319,4 -4,4"/>
<!-- Node1 -->
<g id="node1" class="node"><title>Node1</title>
<polygon fill="#bfbfbf" stroke="black" points="0,-57.5 0,-75.5 131.61,-75.5 131.61,-57.5 0,-57.5"/>
<text text-anchor="middle" x="65.8052" y="-63.5" font-family="Helvetica,sans-Serif" font-size="10.00">mavlink_msg_ahrs2_pack</text>
</g>
<!-- Node2 -->
<g id="node2" class="node"><title>Node2</title>
<g id="a_node2"><a xlink:href="$mavlink__helpers_8h.html#af3bea083c5ec83f5b6570b2bd4a817d0" xlink:title="Finalize a MAVLink message with MAVLINK_COMM_0 as default channel. ">
<polygon fill="white" stroke="black" points="167.61,-57.5 167.61,-75.5 300.334,-75.5 300.334,-57.5 167.61,-57.5"/>
<text text-anchor="middle" x="233.972" y="-63.5" font-family="Helvetica,sans-Serif" font-size="10.00">mavlink_finalize_message</text>
</a>
</g>
</g>
<!-- Node1&#45;&gt;Node2 -->
<g id="edge1" class="edge"><title>Node1&#45;&gt;Node2</title>
<path fill="none" stroke="midnightblue" d="M132.002,-66.5C140.276,-66.5 148.798,-66.5 157.22,-66.5"/>
<polygon fill="midnightblue" stroke="midnightblue" points="157.418,-70.0001 167.418,-66.5 157.418,-63.0001 157.418,-70.0001"/>
</g>
<!-- Node3 -->
<g id="node3" class="node"><title>Node3</title>
<g id="a_node3"><a xlink:href="$mavlink__helpers_8h.html#aa66131138fc02101dcc73b4b556ab422" xlink:title="Finalize a MAVLink message with channel assignment. ">
<polygon fill="white" stroke="black" points="336.334,-57.5 336.334,-75.5 496.304,-75.5 496.304,-57.5 336.334,-57.5"/>
<text text-anchor="middle" x="416.319" y="-63.5" font-family="Helvetica,sans-Serif" font-size="10.00">mavlink_finalize_message_chan</text>
</a>
</g>
</g>
<!-- Node2&#45;&gt;Node3 -->
<g id="edge2" class="edge"><title>Node2&#45;&gt;Node3</title>
<path fill="none" stroke="midnightblue" d="M300.336,-66.5C308.669,-66.5 317.307,-66.5 325.936,-66.5"/>
<polygon fill="midnightblue" stroke="midnightblue" points="326.042,-70.0001 336.042,-66.5 326.042,-63.0001 326.042,-70.0001"/>
</g>
<!-- Node4 -->
<g id="node4" class="node"><title>Node4</title>
<g id="a_node4"><a xlink:href="$mavlink__helpers_8h.html#ac006d308067f48514ca5c0cf0b046c28" xlink:title="mavlink_get_channel\l_status">
<polygon fill="white" stroke="black" points="535.822,-113.5 535.822,-141.5 645.772,-141.5 645.772,-113.5 535.822,-113.5"/>
<text text-anchor="start" x="543.822" y="-129.5" font-family="Helvetica,sans-Serif" font-size="10.00">mavlink_get_channel</text>
<text text-anchor="middle" x="590.797" y="-119.5" font-family="Helvetica,sans-Serif" font-size="10.00">_status</text>
</a>
</g>
</g>
<!-- Node3&#45;&gt;Node4 -->
<g id="edge3" class="edge"><title>Node3&#45;&gt;Node4</title>
<path fill="none" stroke="midnightblue" d="M442.769,-75.5008C468.415,-84.571 508.655,-98.8026 540.558,-110.086"/>
<polygon fill="midnightblue" stroke="midnightblue" points="539.571,-113.449 550.166,-113.484 541.905,-106.85 539.571,-113.449"/>
</g>
<!-- Node5 -->
<g id="node5" class="node"><title>Node5</title>
<g id="a_node5"><a xlink:href="$checksum_8h.html#ab4264eb7b9e22aabb5cc3191bce35f4c" xlink:title="Calculates the X.25 checksum on a byte buffer. ">
<polygon fill="white" stroke="black" points="553.617,-76.5 553.617,-94.5 627.977,-94.5 627.977,-76.5 553.617,-76.5"/>
<text text-anchor="middle" x="590.797" y="-82.5" font-family="Helvetica,sans-Serif" font-size="10.00">crc_calculate</text>
</a>
</g>
</g>
<!-- Node3&#45;&gt;Node5 -->
<g id="edge4" class="edge"><title>Node3&#45;&gt;Node5</title>
<path fill="none" stroke="midnightblue" d="M496.491,-75.2215C512.453,-76.9799 528.741,-78.7741 543.146,-80.361"/>
<polygon fill="midnightblue" stroke="midnightblue" points="542.948,-83.8603 553.271,-81.4764 543.715,-76.9024 542.948,-83.8603"/>
</g>
<!-- Node7 -->
<g id="node7" class="node"><title>Node7</title>
<g id="a_node7"><a xlink:href="$checksum_8h.html#ade2bbc31cd3b5b6d839556f56de61957" xlink:title="Accumulate the X.25 CRC by adding one char at a time. ">
<polygon fill="white" stroke="black" points="685.29,-38.5 685.29,-56.5 771.319,-56.5 771.319,-38.5 685.29,-38.5"/>
<text text-anchor="middle" x="728.305" y="-44.5" font-family="Helvetica,sans-Serif" font-size="10.00">crc_accumulate</text>
</a>
</g>
</g>
<!-- Node3&#45;&gt;Node7 -->
<g id="edge9" class="edge"><title>Node3&#45;&gt;Node7</title>
<path fill="none" stroke="midnightblue" d="M496.343,-61.6563C552.444,-58.2177 626.187,-53.6978 675.085,-50.7007"/>
<polygon fill="midnightblue" stroke="midnightblue" points="675.36,-54.1905 685.127,-50.0852 674.931,-47.2036 675.36,-54.1905"/>
</g>
<!-- Node8 -->
<g id="node8" class="node"><title>Node8</title>
<g id="a_node8"><a xlink:href="$checksum_8h.html#abcbaa800e8fcbcdf9bb48168657fbefd" xlink:title="Accumulate the X.25 CRC by adding an array of bytes. ">
<polygon fill="white" stroke="black" points="532.304,-0.5 532.304,-18.5 649.29,-18.5 649.29,-0.5 532.304,-0.5"/>
<text text-anchor="middle" x="590.797" y="-6.5" font-family="Helvetica,sans-Serif" font-size="10.00">crc_accumulate_buffer</text>
</a>
</g>
</g>
<!-- Node3&#45;&gt;Node8 -->
<g id="edge7" class="edge"><title>Node3&#45;&gt;Node8</title>
<path fill="none" stroke="midnightblue" d="M444.649,-57.4682C473.831,-47.8241 520.252,-32.483 552.717,-21.754"/>
<polygon fill="midnightblue" stroke="midnightblue" points="553.913,-25.0449 562.31,-18.5838 551.717,-18.3985 553.913,-25.0449"/>
</g>
<!-- Node6 -->
<g id="node6" class="node"><title>Node6</title>
<g id="a_node6"><a xlink:href="$checksum_8h.html#aee738f6e20d31b027afdd966c79befae" xlink:title="Initiliaze the buffer for the X.25 CRC. ">
<polygon fill="white" stroke="black" points="704.467,-76.5 704.467,-94.5 752.142,-94.5 752.142,-76.5 704.467,-76.5"/>
<text text-anchor="middle" x="728.305" y="-82.5" font-family="Helvetica,sans-Serif" font-size="10.00">crc_init</text>
</a>
</g>
</g>
<!-- Node5&#45;&gt;Node6 -->
<g id="edge5" class="edge"><title>Node5&#45;&gt;Node6</title>
<path fill="none" stroke="midnightblue" d="M628.11,-85.5C648.578,-85.5 673.964,-85.5 693.931,-85.5"/>
<polygon fill="midnightblue" stroke="midnightblue" points="694.111,-89.0001 704.111,-85.5 694.111,-82.0001 694.111,-89.0001"/>
</g>
<!-- Node5&#45;&gt;Node7 -->
<g id="edge6" class="edge"><title>Node5&#45;&gt;Node7</title>
<path fill="none" stroke="midnightblue" d="M623.91,-76.4945C642.255,-71.3501 665.474,-64.839 685.258,-59.2909"/>
<polygon fill="midnightblue" stroke="midnightblue" points="686.269,-62.6427 694.952,-56.5725 684.378,-55.9027 686.269,-62.6427"/>
</g>
<!-- Node8&#45;&gt;Node7 -->
<g id="edge8" class="edge"><title>Node8&#45;&gt;Node7</title>
<path fill="none" stroke="midnightblue" d="M623.91,-18.5055C642.255,-23.6499 665.474,-30.161 685.258,-35.7091"/>
<polygon fill="midnightblue" stroke="midnightblue" points="684.378,-39.0973 694.952,-38.4275 686.269,-32.3573 684.378,-39.0973"/>
</g>
</g>
</svg>
