<?xml version="1.0" encoding="UTF-8" standalone="no"?>
<!DOCTYPE svg PUBLIC "-//W3C//DTD SVG 1.1//EN"
 "http://www.w3.org/Graphics/SVG/1.1/DTD/svg11.dtd">
<!-- Generated by graphviz version 2.38.0 (20140413.2041)
 -->
<!-- Title: mavlink_msg_autopilot_version_request_encode Pages: 1 -->
<svg width="590pt" height="37pt"
 viewBox="0.00 0.00 589.68 37.00" xmlns="http://www.w3.org/2000/svg" xmlns:xlink="http://www.w3.org/1999/xlink">
<g id="graph0" class="graph" transform="scale(1 1) rotate(0) translate(4 33)">
<title>mavlink_msg_autopilot_version_request_encode</title>
<polygon fill="white" stroke="none" points="-4,4 -4,-33 585.683,-33 585.683,4 -4,4"/>
<!-- Node1 -->
<g id="node1" class="node"><title>Node1</title>
<polygon fill="#bfbfbf" stroke="black" points="0,-0.5 0,-28.5 131.083,-28.5 131.083,-0.5 0,-0.5"/>
<text text-anchor="start" x="8" y="-16.5" font-family="Helvetica,sans-Serif" font-size="10.00">mavlink_msg_autopilot</text>
<text text-anchor="middle" x="65.5415" y="-6.5" font-family="Helvetica,sans-Serif" font-size="10.00">_version_request_encode</text>
</g>
<!-- Node2 -->
<g id="node2" class="node"><title>Node2</title>
<g id="a_node2"><a xlink:href="$ardupilotmega_2testsuite_8h.html#a55ec9127e252ac854c27be5498a5f911" xlink:title="mavlink_test_autopilot\l_version_request">
<polygon fill="white" stroke="black" points="167.083,-0.5 167.083,-28.5 282.028,-28.5 282.028,-0.5 167.083,-0.5"/>
<text text-anchor="start" x="175.083" y="-16.5" font-family="Helvetica,sans-Serif" font-size="10.00">mavlink_test_autopilot</text>
<text text-anchor="middle" x="224.556" y="-6.5" font-family="Helvetica,sans-Serif" font-size="10.00">_version_request</text>
</a>
</g>
</g>
<!-- Node1&#45;&gt;Node2 -->
<g id="edge1" class="edge"><title>Node1&#45;&gt;Node2</title>
<path fill="none" stroke="midnightblue" d="M141.367,-14.5C149.978,-14.5 158.647,-14.5 166.96,-14.5"/>
<polygon fill="midnightblue" stroke="midnightblue" points="141.312,-11.0001 131.312,-14.5 141.312,-18.0001 141.312,-11.0001"/>
</g>
<!-- Node3 -->
<g id="node3" class="node"><title>Node3</title>
<g id="a_node3"><a xlink:href="$ardupilotmega_2testsuite_8h.html#ab264d471ac2f46584f2bb580704b5e9d" xlink:title="mavlink_test_ardupilotmega">
<polygon fill="white" stroke="black" points="318.028,-5.5 318.028,-23.5 458.54,-23.5 458.54,-5.5 318.028,-5.5"/>
<text text-anchor="middle" x="388.284" y="-11.5" font-family="Helvetica,sans-Serif" font-size="10.00">mavlink_test_ardupilotmega</text>
</a>
</g>
</g>
<!-- Node2&#45;&gt;Node3 -->
<g id="edge2" class="edge"><title>Node2&#45;&gt;Node3</title>
<path fill="none" stroke="midnightblue" d="M292.31,-14.5C300.771,-14.5 309.445,-14.5 317.945,-14.5"/>
<polygon fill="midnightblue" stroke="midnightblue" points="292.12,-11.0001 282.12,-14.5 292.12,-18.0001 292.12,-11.0001"/>
</g>
<!-- Node4 -->
<g id="node4" class="node"><title>Node4</title>
<g id="a_node4"><a xlink:href="$ardupilotmega_2testsuite_8h.html#a4cc77b6c343679298da5d3c2b4e48759" xlink:title="mavlink_test_all">
<polygon fill="white" stroke="black" points="494.54,-5.5 494.54,-23.5 581.683,-23.5 581.683,-5.5 494.54,-5.5"/>
<text text-anchor="middle" x="538.111" y="-11.5" font-family="Helvetica,sans-Serif" font-size="10.00">mavlink_test_all</text>
</a>
</g>
</g>
<!-- Node3&#45;&gt;Node4 -->
<g id="edge3" class="edge"><title>Node3&#45;&gt;Node4</title>
<path fill="none" stroke="midnightblue" d="M469.113,-14.5C477.821,-14.5 486.419,-14.5 494.419,-14.5"/>
<polygon fill="midnightblue" stroke="midnightblue" points="468.869,-11.0001 458.869,-14.5 468.869,-18.0001 468.869,-11.0001"/>
</g>
</g>
</svg>
