<?xml version="1.0" encoding="UTF-8" standalone="no"?>
<!DOCTYPE svg PUBLIC "-//W3C//DTD SVG 1.1//EN"
 "http://www.w3.org/Graphics/SVG/1.1/DTD/svg11.dtd">
<!-- Generated by graphviz version 2.38.0 (20140413.2041)
 -->
<!-- Title: mavlink_msg_airspeed_autocal_encode Pages: 1 -->
<svg width="920pt" height="150pt"
 viewBox="0.00 0.00 920.25 150.00" xmlns="http://www.w3.org/2000/svg" xmlns:xlink="http://www.w3.org/1999/xlink">
<g id="graph0" class="graph" transform="scale(1 1) rotate(0) translate(4 146)">
<title>mavlink_msg_airspeed_autocal_encode</title>
<polygon fill="white" stroke="none" points="-4,4 -4,-146 916.25,-146 916.25,4 -4,4"/>
<!-- Node1 -->
<g id="node1" class="node"><title>Node1</title>
<polygon fill="#bfbfbf" stroke="black" points="0,-52.5 0,-80.5 118.271,-80.5 118.271,-52.5 0,-52.5"/>
<text text-anchor="start" x="8" y="-68.5" font-family="Helvetica,sans-Serif" font-size="10.00">mavlink_msg_airspeed</text>
<text text-anchor="middle" x="59.1353" y="-58.5" font-family="Helvetica,sans-Serif" font-size="10.00">_autocal_encode</text>
</g>
<!-- Node2 -->
<g id="node2" class="node"><title>Node2</title>
<g id="a_node2"><a xlink:href="$mavlink__msg__airspeed__autocal_8h.html#a256266936155b47c7ac692c52d5419d9" xlink:title="Pack a airspeed_autocal message. ">
<polygon fill="white" stroke="black" points="154.271,-52.5 154.271,-80.5 272.541,-80.5 272.541,-52.5 154.271,-52.5"/>
<text text-anchor="start" x="162.271" y="-68.5" font-family="Helvetica,sans-Serif" font-size="10.00">mavlink_msg_airspeed</text>
<text text-anchor="middle" x="213.406" y="-58.5" font-family="Helvetica,sans-Serif" font-size="10.00">_autocal_pack</text>
</a>
</g>
</g>
<!-- Node1&#45;&gt;Node2 -->
<g id="edge1" class="edge"><title>Node1&#45;&gt;Node2</title>
<path fill="none" stroke="midnightblue" d="M118.572,-66.5C126.86,-66.5 135.444,-66.5 143.901,-66.5"/>
<polygon fill="midnightblue" stroke="midnightblue" points="144.126,-70.0001 154.126,-66.5 144.126,-63.0001 144.126,-70.0001"/>
</g>
<!-- Node3 -->
<g id="node3" class="node"><title>Node3</title>
<g id="a_node3"><a xlink:href="$mavlink__helpers_8h.html#af3bea083c5ec83f5b6570b2bd4a817d0" xlink:title="Finalize a MAVLink message with MAVLINK_COMM_0 as default channel. ">
<polygon fill="white" stroke="black" points="308.541,-57.5 308.541,-75.5 441.265,-75.5 441.265,-57.5 308.541,-57.5"/>
<text text-anchor="middle" x="374.903" y="-63.5" font-family="Helvetica,sans-Serif" font-size="10.00">mavlink_finalize_message</text>
</a>
</g>
</g>
<!-- Node2&#45;&gt;Node3 -->
<g id="edge2" class="edge"><title>Node2&#45;&gt;Node3</title>
<path fill="none" stroke="midnightblue" d="M272.891,-66.5C281.198,-66.5 289.837,-66.5 298.411,-66.5"/>
<polygon fill="midnightblue" stroke="midnightblue" points="298.422,-70.0001 308.422,-66.5 298.422,-63.0001 298.422,-70.0001"/>
</g>
<!-- Node4 -->
<g id="node4" class="node"><title>Node4</title>
<g id="a_node4"><a xlink:href="$mavlink__helpers_8h.html#aa66131138fc02101dcc73b4b556ab422" xlink:title="Finalize a MAVLink message with channel assignment. ">
<polygon fill="white" stroke="black" points="477.265,-57.5 477.265,-75.5 637.234,-75.5 637.234,-57.5 477.265,-57.5"/>
<text text-anchor="middle" x="557.25" y="-63.5" font-family="Helvetica,sans-Serif" font-size="10.00">mavlink_finalize_message_chan</text>
</a>
</g>
</g>
<!-- Node3&#45;&gt;Node4 -->
<g id="edge3" class="edge"><title>Node3&#45;&gt;Node4</title>
<path fill="none" stroke="midnightblue" d="M441.267,-66.5C449.599,-66.5 458.238,-66.5 466.867,-66.5"/>
<polygon fill="midnightblue" stroke="midnightblue" points="466.973,-70.0001 476.973,-66.5 466.973,-63.0001 466.973,-70.0001"/>
</g>
<!-- Node5 -->
<g id="node5" class="node"><title>Node5</title>
<g id="a_node5"><a xlink:href="$mavlink__helpers_8h.html#ac006d308067f48514ca5c0cf0b046c28" xlink:title="mavlink_get_channel\l_status">
<polygon fill="white" stroke="black" points="676.752,-113.5 676.752,-141.5 786.703,-141.5 786.703,-113.5 676.752,-113.5"/>
<text text-anchor="start" x="684.752" y="-129.5" font-family="Helvetica,sans-Serif" font-size="10.00">mavlink_get_channel</text>
<text text-anchor="middle" x="731.728" y="-119.5" font-family="Helvetica,sans-Serif" font-size="10.00">_status</text>
</a>
</g>
</g>
<!-- Node4&#45;&gt;Node5 -->
<g id="edge4" class="edge"><title>Node4&#45;&gt;Node5</title>
<path fill="none" stroke="midnightblue" d="M583.699,-75.5008C609.345,-84.571 649.585,-98.8026 681.489,-110.086"/>
<polygon fill="midnightblue" stroke="midnightblue" points="680.502,-113.449 691.097,-113.484 682.836,-106.85 680.502,-113.449"/>
</g>
<!-- Node6 -->
<g id="node6" class="node"><title>Node6</title>
<g id="a_node6"><a xlink:href="$checksum_8h.html#ab4264eb7b9e22aabb5cc3191bce35f4c" xlink:title="Calculates the X.25 checksum on a byte buffer. ">
<polygon fill="white" stroke="black" points="694.548,-76.5 694.548,-94.5 768.907,-94.5 768.907,-76.5 694.548,-76.5"/>
<text text-anchor="middle" x="731.728" y="-82.5" font-family="Helvetica,sans-Serif" font-size="10.00">crc_calculate</text>
</a>
</g>
</g>
<!-- Node4&#45;&gt;Node6 -->
<g id="edge5" class="edge"><title>Node4&#45;&gt;Node6</title>
<path fill="none" stroke="midnightblue" d="M637.421,-75.2215C653.384,-76.9799 669.671,-78.7741 684.077,-80.361"/>
<polygon fill="midnightblue" stroke="midnightblue" points="683.879,-83.8603 694.202,-81.4764 684.646,-76.9024 683.879,-83.8603"/>
</g>
<!-- Node8 -->
<g id="node8" class="node"><title>Node8</title>
<g id="a_node8"><a xlink:href="$checksum_8h.html#ade2bbc31cd3b5b6d839556f56de61957" xlink:title="Accumulate the X.25 CRC by adding one char at a time. ">
<polygon fill="white" stroke="black" points="826.221,-38.5 826.221,-56.5 912.25,-56.5 912.25,-38.5 826.221,-38.5"/>
<text text-anchor="middle" x="869.235" y="-44.5" font-family="Helvetica,sans-Serif" font-size="10.00">crc_accumulate</text>
</a>
</g>
</g>
<!-- Node4&#45;&gt;Node8 -->
<g id="edge10" class="edge"><title>Node4&#45;&gt;Node8</title>
<path fill="none" stroke="midnightblue" d="M637.274,-61.6563C693.375,-58.2177 767.117,-53.6978 816.015,-50.7007"/>
<polygon fill="midnightblue" stroke="midnightblue" points="816.29,-54.1905 826.057,-50.0852 815.862,-47.2036 816.29,-54.1905"/>
</g>
<!-- Node9 -->
<g id="node9" class="node"><title>Node9</title>
<g id="a_node9"><a xlink:href="$checksum_8h.html#abcbaa800e8fcbcdf9bb48168657fbefd" xlink:title="Accumulate the X.25 CRC by adding an array of bytes. ">
<polygon fill="white" stroke="black" points="673.234,-0.5 673.234,-18.5 790.221,-18.5 790.221,-0.5 673.234,-0.5"/>
<text text-anchor="middle" x="731.728" y="-6.5" font-family="Helvetica,sans-Serif" font-size="10.00">crc_accumulate_buffer</text>
</a>
</g>
</g>
<!-- Node4&#45;&gt;Node9 -->
<g id="edge8" class="edge"><title>Node4&#45;&gt;Node9</title>
<path fill="none" stroke="midnightblue" d="M585.579,-57.4682C614.761,-47.8241 661.183,-32.483 693.648,-21.754"/>
<polygon fill="midnightblue" stroke="midnightblue" points="694.844,-25.0449 703.241,-18.5838 692.648,-18.3985 694.844,-25.0449"/>
</g>
<!-- Node7 -->
<g id="node7" class="node"><title>Node7</title>
<g id="a_node7"><a xlink:href="$checksum_8h.html#aee738f6e20d31b027afdd966c79befae" xlink:title="Initiliaze the buffer for the X.25 CRC. ">
<polygon fill="white" stroke="black" points="845.398,-76.5 845.398,-94.5 893.073,-94.5 893.073,-76.5 845.398,-76.5"/>
<text text-anchor="middle" x="869.235" y="-82.5" font-family="Helvetica,sans-Serif" font-size="10.00">crc_init</text>
</a>
</g>
</g>
<!-- Node6&#45;&gt;Node7 -->
<g id="edge6" class="edge"><title>Node6&#45;&gt;Node7</title>
<path fill="none" stroke="midnightblue" d="M769.041,-85.5C789.509,-85.5 814.895,-85.5 834.862,-85.5"/>
<polygon fill="midnightblue" stroke="midnightblue" points="835.042,-89.0001 845.042,-85.5 835.042,-82.0001 835.042,-89.0001"/>
</g>
<!-- Node6&#45;&gt;Node8 -->
<g id="edge7" class="edge"><title>Node6&#45;&gt;Node8</title>
<path fill="none" stroke="midnightblue" d="M764.841,-76.4945C783.186,-71.3501 806.404,-64.839 826.189,-59.2909"/>
<polygon fill="midnightblue" stroke="midnightblue" points="827.199,-62.6427 835.883,-56.5725 825.309,-55.9027 827.199,-62.6427"/>
</g>
<!-- Node9&#45;&gt;Node8 -->
<g id="edge9" class="edge"><title>Node9&#45;&gt;Node8</title>
<path fill="none" stroke="midnightblue" d="M764.841,-18.5055C783.186,-23.6499 806.404,-30.161 826.189,-35.7091"/>
<polygon fill="midnightblue" stroke="midnightblue" points="825.309,-39.0973 835.883,-38.4275 827.199,-32.3573 825.309,-39.0973"/>
</g>
</g>
</svg>
