<?xml version="1.0" encoding="UTF-8" standalone="no"?>
<!DOCTYPE svg PUBLIC "-//W3C//DTD SVG 1.1//EN"
 "http://www.w3.org/Graphics/SVG/1.1/DTD/svg11.dtd">
<!-- Generated by graphviz version 2.38.0 (20140413.2041)
 -->
<!-- Title: mavlink_msg_ahrs2_pack Pages: 1 -->
<svg width="757pt" height="46pt"
 viewBox="0.00 0.00 756.71 46.00" xmlns="http://www.w3.org/2000/svg" xmlns:xlink="http://www.w3.org/1999/xlink">
<g id="graph0" class="graph" transform="scale(1 1) rotate(0) translate(4 42)">
<title>mavlink_msg_ahrs2_pack</title>
<polygon fill="white" stroke="none" points="-4,4 -4,-42 752.712,-42 752.712,4 -4,4"/>
<!-- Node1 -->
<g id="node1" class="node"><title>Node1</title>
<polygon fill="#bfbfbf" stroke="black" points="0,-0.5 0,-18.5 131.61,-18.5 131.61,-0.5 0,-0.5"/>
<text text-anchor="middle" x="65.8052" y="-6.5" font-family="Helvetica,sans-Serif" font-size="10.00">mavlink_msg_ahrs2_pack</text>
</g>
<!-- Node2 -->
<g id="node2" class="node"><title>Node2</title>
<g id="a_node2"><a xlink:href="$mavlink__msg__ahrs2_8h.html#aa92fa31335a7d9fb21e1d544a49b9379" xlink:title="Encode a ahrs2 struct. ">
<polygon fill="white" stroke="black" points="167.61,-19.5 167.61,-37.5 310.905,-37.5 310.905,-19.5 167.61,-19.5"/>
<text text-anchor="middle" x="239.258" y="-25.5" font-family="Helvetica,sans-Serif" font-size="10.00">mavlink_msg_ahrs2_encode</text>
</a>
</g>
</g>
<!-- Node1&#45;&gt;Node2 -->
<g id="edge1" class="edge"><title>Node1&#45;&gt;Node2</title>
<path fill="none" stroke="midnightblue" d="M141.575,-17.7858C150.128,-18.7336 158.828,-19.6978 167.328,-20.6398"/>
<polygon fill="midnightblue" stroke="midnightblue" points="141.949,-14.3059 131.624,-16.6831 141.178,-21.2633 141.949,-14.3059"/>
</g>
<!-- Node3 -->
<g id="node3" class="node"><title>Node3</title>
<g id="a_node3"><a xlink:href="$ardupilotmega_2testsuite_8h.html#a9ecd1acaa442cd5c423461cfc9d648a2" xlink:title="mavlink_test_ahrs2">
<polygon fill="white" stroke="black" points="346.905,-0.5 346.905,-18.5 449.058,-18.5 449.058,-0.5 346.905,-0.5"/>
<text text-anchor="middle" x="397.981" y="-6.5" font-family="Helvetica,sans-Serif" font-size="10.00">mavlink_test_ahrs2</text>
</a>
</g>
</g>
<!-- Node1&#45;&gt;Node3 -->
<g id="edge5" class="edge"><title>Node1&#45;&gt;Node3</title>
<path fill="none" stroke="midnightblue" d="M141.879,-9.5C204.615,-9.5 292.333,-9.5 346.846,-9.5"/>
<polygon fill="midnightblue" stroke="midnightblue" points="141.643,-6.0001 131.643,-9.5 141.643,-13.0001 141.643,-6.0001"/>
</g>
<!-- Node2&#45;&gt;Node3 -->
<g id="edge2" class="edge"><title>Node2&#45;&gt;Node3</title>
<path fill="none" stroke="midnightblue" d="M321.426,-18.6598C330.07,-17.6118 338.669,-16.5694 346.8,-15.5836"/>
<polygon fill="midnightblue" stroke="midnightblue" points="320.789,-15.2113 311.283,-19.8895 321.631,-22.1604 320.789,-15.2113"/>
</g>
<!-- Node4 -->
<g id="node4" class="node"><title>Node4</title>
<g id="a_node4"><a xlink:href="$ardupilotmega_2testsuite_8h.html#ab264d471ac2f46584f2bb580704b5e9d" xlink:title="mavlink_test_ardupilotmega">
<polygon fill="white" stroke="black" points="485.058,-0.5 485.058,-18.5 625.569,-18.5 625.569,-0.5 485.058,-0.5"/>
<text text-anchor="middle" x="555.313" y="-6.5" font-family="Helvetica,sans-Serif" font-size="10.00">mavlink_test_ardupilotmega</text>
</a>
</g>
</g>
<!-- Node3&#45;&gt;Node4 -->
<g id="edge3" class="edge"><title>Node3&#45;&gt;Node4</title>
<path fill="none" stroke="midnightblue" d="M459.441,-9.5C467.798,-9.5 476.435,-9.5 484.938,-9.5"/>
<polygon fill="midnightblue" stroke="midnightblue" points="459.413,-6.0001 449.413,-9.5 459.413,-13.0001 459.413,-6.0001"/>
</g>
<!-- Node5 -->
<g id="node5" class="node"><title>Node5</title>
<g id="a_node5"><a xlink:href="$ardupilotmega_2testsuite_8h.html#a4cc77b6c343679298da5d3c2b4e48759" xlink:title="mavlink_test_all">
<polygon fill="white" stroke="black" points="661.569,-0.5 661.569,-18.5 748.712,-18.5 748.712,-0.5 661.569,-0.5"/>
<text text-anchor="middle" x="705.141" y="-6.5" font-family="Helvetica,sans-Serif" font-size="10.00">mavlink_test_all</text>
</a>
</g>
</g>
<!-- Node4&#45;&gt;Node5 -->
<g id="edge4" class="edge"><title>Node4&#45;&gt;Node5</title>
<path fill="none" stroke="midnightblue" d="M636.142,-9.5C644.85,-9.5 653.448,-9.5 661.448,-9.5"/>
<polygon fill="midnightblue" stroke="midnightblue" points="635.898,-6.0001 625.898,-9.5 635.898,-13.0001 635.898,-6.0001"/>
</g>
</g>
</svg>
