<?xml version="1.0" encoding="UTF-8" standalone="no"?>
<!DOCTYPE svg PUBLIC "-//W3C//DTD SVG 1.1//EN"
 "http://www.w3.org/Graphics/SVG/1.1/DTD/svg11.dtd">
<!-- Generated by graphviz version 2.38.0 (20140413.2041)
 -->
<!-- Title: mavlink_msg_ap_adc_encode Pages: 1 -->
<svg width="566pt" height="37pt"
 viewBox="0.00 0.00 566.32 37.00" xmlns="http://www.w3.org/2000/svg" xmlns:xlink="http://www.w3.org/1999/xlink">
<g id="graph0" class="graph" transform="scale(1 1) rotate(0) translate(4 33)">
<title>mavlink_msg_ap_adc_encode</title>
<polygon fill="white" stroke="none" points="-4,4 -4,-33 562.318,-33 562.318,4 -4,4"/>
<!-- Node1 -->
<g id="node1" class="node"><title>Node1</title>
<polygon fill="#bfbfbf" stroke="black" points="0,-0.5 0,-28.5 112.719,-28.5 112.719,-0.5 0,-0.5"/>
<text text-anchor="start" x="8" y="-16.5" font-family="Helvetica,sans-Serif" font-size="10.00">mavlink_msg_ap_adc</text>
<text text-anchor="middle" x="56.3594" y="-6.5" font-family="Helvetica,sans-Serif" font-size="10.00">_encode</text>
</g>
<!-- Node2 -->
<g id="node2" class="node"><title>Node2</title>
<g id="a_node2"><a xlink:href="$ardupilotmega_2testsuite_8h.html#ab896a946dd2f4a454e6d2377ad23d2eb" xlink:title="mavlink_test_ap_adc">
<polygon fill="white" stroke="black" points="148.719,-5.5 148.719,-23.5 258.664,-23.5 258.664,-5.5 148.719,-5.5"/>
<text text-anchor="middle" x="203.691" y="-11.5" font-family="Helvetica,sans-Serif" font-size="10.00">mavlink_test_ap_adc</text>
</a>
</g>
</g>
<!-- Node1&#45;&gt;Node2 -->
<g id="edge1" class="edge"><title>Node1&#45;&gt;Node2</title>
<path fill="none" stroke="midnightblue" d="M123.249,-14.5C131.617,-14.5 140.105,-14.5 148.265,-14.5"/>
<polygon fill="midnightblue" stroke="midnightblue" points="123.133,-11.0001 113.133,-14.5 123.133,-18.0001 123.133,-11.0001"/>
</g>
<!-- Node3 -->
<g id="node3" class="node"><title>Node3</title>
<g id="a_node3"><a xlink:href="$ardupilotmega_2testsuite_8h.html#ab264d471ac2f46584f2bb580704b5e9d" xlink:title="mavlink_test_ardupilotmega">
<polygon fill="white" stroke="black" points="294.664,-5.5 294.664,-23.5 435.176,-23.5 435.176,-5.5 294.664,-5.5"/>
<text text-anchor="middle" x="364.92" y="-11.5" font-family="Helvetica,sans-Serif" font-size="10.00">mavlink_test_ardupilotmega</text>
</a>
</g>
</g>
<!-- Node2&#45;&gt;Node3 -->
<g id="edge2" class="edge"><title>Node2&#45;&gt;Node3</title>
<path fill="none" stroke="midnightblue" d="M269.134,-14.5C277.523,-14.5 286.145,-14.5 294.609,-14.5"/>
<polygon fill="midnightblue" stroke="midnightblue" points="269.044,-11.0001 259.043,-14.5 269.043,-18.0001 269.044,-11.0001"/>
</g>
<!-- Node4 -->
<g id="node4" class="node"><title>Node4</title>
<g id="a_node4"><a xlink:href="$ardupilotmega_2testsuite_8h.html#a4cc77b6c343679298da5d3c2b4e48759" xlink:title="mavlink_test_all">
<polygon fill="white" stroke="black" points="471.176,-5.5 471.176,-23.5 558.318,-23.5 558.318,-5.5 471.176,-5.5"/>
<text text-anchor="middle" x="514.747" y="-11.5" font-family="Helvetica,sans-Serif" font-size="10.00">mavlink_test_all</text>
</a>
</g>
</g>
<!-- Node3&#45;&gt;Node4 -->
<g id="edge3" class="edge"><title>Node3&#45;&gt;Node4</title>
<path fill="none" stroke="midnightblue" d="M445.749,-14.5C454.457,-14.5 463.054,-14.5 471.054,-14.5"/>
<polygon fill="midnightblue" stroke="midnightblue" points="445.505,-11.0001 435.505,-14.5 445.505,-18.0001 445.505,-11.0001"/>
</g>
</g>
</svg>
