<?xml version="1.0" encoding="UTF-8" standalone="no"?>
<!DOCTYPE svg PUBLIC "-//W3C//DTD SVG 1.1//EN"
 "http://www.w3.org/Graphics/SVG/1.1/DTD/svg11.dtd">
<!-- Generated by graphviz version 2.38.0 (20140413.2041)
 -->
<!-- Title: mavlink_msg_ap_adc_decode Pages: 1 -->
<svg width="269pt" height="272pt"
 viewBox="0.00 0.00 269.44 272.00" xmlns="http://www.w3.org/2000/svg" xmlns:xlink="http://www.w3.org/1999/xlink">
<g id="graph0" class="graph" transform="scale(1 1) rotate(0) translate(4 268)">
<title>mavlink_msg_ap_adc_decode</title>
<polygon fill="white" stroke="none" points="-4,4 -4,-268 265.438,-268 265.438,4 -4,4"/>
<!-- Node1 -->
<g id="node1" class="node"><title>Node1</title>
<polygon fill="#bfbfbf" stroke="black" points="0,-117.5 0,-145.5 112.719,-145.5 112.719,-117.5 0,-117.5"/>
<text text-anchor="start" x="8" y="-133.5" font-family="Helvetica,sans-Serif" font-size="10.00">mavlink_msg_ap_adc</text>
<text text-anchor="middle" x="56.3594" y="-123.5" font-family="Helvetica,sans-Serif" font-size="10.00">_decode</text>
</g>
<!-- Node2 -->
<g id="node2" class="node"><title>Node2</title>
<g id="a_node2"><a xlink:href="$mavlink__msg__ap__adc_8h.html#af065bff13555f6d845e59d134164bb41" xlink:title="Send a ap_adc message. ">
<polygon fill="white" stroke="black" points="148.719,-235.5 148.719,-263.5 261.438,-263.5 261.438,-235.5 148.719,-235.5"/>
<text text-anchor="start" x="156.719" y="-251.5" font-family="Helvetica,sans-Serif" font-size="10.00">mavlink_msg_ap_adc</text>
<text text-anchor="middle" x="205.078" y="-241.5" font-family="Helvetica,sans-Serif" font-size="10.00">_get_adc1</text>
</a>
</g>
</g>
<!-- Node1&#45;&gt;Node2 -->
<g id="edge1" class="edge"><title>Node1&#45;&gt;Node2</title>
<path fill="none" stroke="midnightblue" d="M67.7422,-145.504C83.3593,-165.738 114.71,-203.266 148.719,-226.5 150.862,-227.964 153.113,-229.361 155.43,-230.69"/>
<polygon fill="midnightblue" stroke="midnightblue" points="154.125,-233.957 164.61,-235.479 157.362,-227.751 154.125,-233.957"/>
</g>
<!-- Node3 -->
<g id="node3" class="node"><title>Node3</title>
<g id="a_node3"><a xlink:href="$mavlink__msg__ap__adc_8h.html#ab5af4e78feacfc0a3246a8abcd7bd226" xlink:title="Get field adc2 from ap_adc message. ">
<polygon fill="white" stroke="black" points="148.719,-188.5 148.719,-216.5 261.438,-216.5 261.438,-188.5 148.719,-188.5"/>
<text text-anchor="start" x="156.719" y="-204.5" font-family="Helvetica,sans-Serif" font-size="10.00">mavlink_msg_ap_adc</text>
<text text-anchor="middle" x="205.078" y="-194.5" font-family="Helvetica,sans-Serif" font-size="10.00">_get_adc2</text>
</a>
</g>
</g>
<!-- Node1&#45;&gt;Node3 -->
<g id="edge2" class="edge"><title>Node1&#45;&gt;Node3</title>
<path fill="none" stroke="midnightblue" d="M82.647,-145.571C100.817,-155.487 126.011,-168.844 148.719,-179.5 152.274,-181.168 155.984,-182.845 159.726,-184.49"/>
<polygon fill="midnightblue" stroke="midnightblue" points="158.454,-187.753 169.022,-188.495 161.223,-181.324 158.454,-187.753"/>
</g>
<!-- Node4 -->
<g id="node4" class="node"><title>Node4</title>
<g id="a_node4"><a xlink:href="$mavlink__msg__ap__adc_8h.html#ae77a34078842a8da65bb0cc85dca178e" xlink:title="Get field adc3 from ap_adc message. ">
<polygon fill="white" stroke="black" points="148.719,-141.5 148.719,-169.5 261.438,-169.5 261.438,-141.5 148.719,-141.5"/>
<text text-anchor="start" x="156.719" y="-157.5" font-family="Helvetica,sans-Serif" font-size="10.00">mavlink_msg_ap_adc</text>
<text text-anchor="middle" x="205.078" y="-147.5" font-family="Helvetica,sans-Serif" font-size="10.00">_get_adc3</text>
</a>
</g>
</g>
<!-- Node1&#45;&gt;Node4 -->
<g id="edge3" class="edge"><title>Node1&#45;&gt;Node4</title>
<path fill="none" stroke="midnightblue" d="M112.827,-140.573C121.226,-141.947 129.958,-143.376 138.546,-144.78"/>
<polygon fill="midnightblue" stroke="midnightblue" points="138.098,-148.253 148.532,-146.414 139.228,-141.345 138.098,-148.253"/>
</g>
<!-- Node5 -->
<g id="node5" class="node"><title>Node5</title>
<g id="a_node5"><a xlink:href="$mavlink__msg__ap__adc_8h.html#a15f74acf1e6cba25a29d01ba9905b690" xlink:title="Get field adc4 from ap_adc message. ">
<polygon fill="white" stroke="black" points="148.719,-94.5 148.719,-122.5 261.438,-122.5 261.438,-94.5 148.719,-94.5"/>
<text text-anchor="start" x="156.719" y="-110.5" font-family="Helvetica,sans-Serif" font-size="10.00">mavlink_msg_ap_adc</text>
<text text-anchor="middle" x="205.078" y="-100.5" font-family="Helvetica,sans-Serif" font-size="10.00">_get_adc4</text>
</a>
</g>
</g>
<!-- Node1&#45;&gt;Node5 -->
<g id="edge4" class="edge"><title>Node1&#45;&gt;Node5</title>
<path fill="none" stroke="midnightblue" d="M112.827,-122.805C121.226,-121.488 129.958,-120.119 138.546,-118.773"/>
<polygon fill="midnightblue" stroke="midnightblue" points="139.194,-122.214 148.532,-117.208 138.11,-115.299 139.194,-122.214"/>
</g>
<!-- Node6 -->
<g id="node6" class="node"><title>Node6</title>
<g id="a_node6"><a xlink:href="$mavlink__msg__ap__adc_8h.html#a02428aef403031f86d62f865e30452dd" xlink:title="Get field adc5 from ap_adc message. ">
<polygon fill="white" stroke="black" points="148.719,-47.5 148.719,-75.5 261.438,-75.5 261.438,-47.5 148.719,-47.5"/>
<text text-anchor="start" x="156.719" y="-63.5" font-family="Helvetica,sans-Serif" font-size="10.00">mavlink_msg_ap_adc</text>
<text text-anchor="middle" x="205.078" y="-53.5" font-family="Helvetica,sans-Serif" font-size="10.00">_get_adc5</text>
</a>
</g>
</g>
<!-- Node1&#45;&gt;Node6 -->
<g id="edge5" class="edge"><title>Node1&#45;&gt;Node6</title>
<path fill="none" stroke="midnightblue" d="M84.3435,-117.402C102.428,-108.08 126.845,-95.7379 148.719,-85.5 152.832,-83.5746 157.141,-81.6129 161.46,-79.6825"/>
<polygon fill="midnightblue" stroke="midnightblue" points="163.126,-82.773 170.86,-75.5325 160.299,-76.3692 163.126,-82.773"/>
</g>
<!-- Node7 -->
<g id="node7" class="node"><title>Node7</title>
<g id="a_node7"><a xlink:href="$mavlink__msg__ap__adc_8h.html#ad2eb556331529aa4ff56826c3a81e11d" xlink:title="Get field adc6 from ap_adc message. ">
<polygon fill="white" stroke="black" points="148.719,-0.5 148.719,-28.5 261.438,-28.5 261.438,-0.5 148.719,-0.5"/>
<text text-anchor="start" x="156.719" y="-16.5" font-family="Helvetica,sans-Serif" font-size="10.00">mavlink_msg_ap_adc</text>
<text text-anchor="middle" x="205.078" y="-6.5" font-family="Helvetica,sans-Serif" font-size="10.00">_get_adc6</text>
</a>
</g>
</g>
<!-- Node1&#45;&gt;Node7 -->
<g id="edge6" class="edge"><title>Node1&#45;&gt;Node7</title>
<path fill="none" stroke="midnightblue" d="M68.3854,-117.211C84.3117,-97.3578 115.507,-61.3038 148.719,-38.5 151.396,-36.6619 154.236,-34.917 157.161,-33.2698"/>
<polygon fill="midnightblue" stroke="midnightblue" points="158.848,-36.338 166.112,-28.6252 155.623,-30.1247 158.848,-36.338"/>
</g>
</g>
</svg>
