<?xml version="1.0" encoding="UTF-8" standalone="no"?>
<!DOCTYPE svg PUBLIC "-//W3C//DTD SVG 1.1//EN"
 "http://www.w3.org/Graphics/SVG/1.1/DTD/svg11.dtd">
<!-- Generated by graphviz version 2.38.0 (20140413.2041)
 -->
<!-- Title: mavlink_msg_ahrs_pack_chan Pages: 1 -->
<svg width="632pt" height="150pt"
 viewBox="0.00 0.00 632.28 150.00" xmlns="http://www.w3.org/2000/svg" xmlns:xlink="http://www.w3.org/1999/xlink">
<g id="graph0" class="graph" transform="scale(1 1) rotate(0) translate(4 146)">
<title>mavlink_msg_ahrs_pack_chan</title>
<polygon fill="white" stroke="none" points="-4,4 -4,-146 628.28,-146 628.28,4 -4,4"/>
<!-- Node1 -->
<g id="node1" class="node"><title>Node1</title>
<polygon fill="#bfbfbf" stroke="black" points="0,-57.5 0,-75.5 153.295,-75.5 153.295,-57.5 0,-57.5"/>
<text text-anchor="middle" x="76.6475" y="-63.5" font-family="Helvetica,sans-Serif" font-size="10.00">mavlink_msg_ahrs_pack_chan</text>
</g>
<!-- Node2 -->
<g id="node2" class="node"><title>Node2</title>
<g id="a_node2"><a xlink:href="$mavlink__helpers_8h.html#aa66131138fc02101dcc73b4b556ab422" xlink:title="Finalize a MAVLink message with channel assignment. ">
<polygon fill="white" stroke="black" points="189.295,-57.5 189.295,-75.5 349.265,-75.5 349.265,-57.5 189.295,-57.5"/>
<text text-anchor="middle" x="269.28" y="-63.5" font-family="Helvetica,sans-Serif" font-size="10.00">mavlink_finalize_message_chan</text>
</a>
</g>
</g>
<!-- Node1&#45;&gt;Node2 -->
<g id="edge1" class="edge"><title>Node1&#45;&gt;Node2</title>
<path fill="none" stroke="midnightblue" d="M153.538,-66.5C161.971,-66.5 170.616,-66.5 179.193,-66.5"/>
<polygon fill="midnightblue" stroke="midnightblue" points="179.214,-70.0001 189.214,-66.5 179.214,-63.0001 179.214,-70.0001"/>
</g>
<!-- Node3 -->
<g id="node3" class="node"><title>Node3</title>
<g id="a_node3"><a xlink:href="$mavlink__helpers_8h.html#ac006d308067f48514ca5c0cf0b046c28" xlink:title="mavlink_get_channel\l_status">
<polygon fill="white" stroke="black" points="388.783,-113.5 388.783,-141.5 498.733,-141.5 498.733,-113.5 388.783,-113.5"/>
<text text-anchor="start" x="396.783" y="-129.5" font-family="Helvetica,sans-Serif" font-size="10.00">mavlink_get_channel</text>
<text text-anchor="middle" x="443.758" y="-119.5" font-family="Helvetica,sans-Serif" font-size="10.00">_status</text>
</a>
</g>
</g>
<!-- Node2&#45;&gt;Node3 -->
<g id="edge2" class="edge"><title>Node2&#45;&gt;Node3</title>
<path fill="none" stroke="midnightblue" d="M295.73,-75.5008C321.376,-84.571 361.616,-98.8026 393.519,-110.086"/>
<polygon fill="midnightblue" stroke="midnightblue" points="392.532,-113.449 403.127,-113.484 394.866,-106.85 392.532,-113.449"/>
</g>
<!-- Node4 -->
<g id="node4" class="node"><title>Node4</title>
<g id="a_node4"><a xlink:href="$checksum_8h.html#ab4264eb7b9e22aabb5cc3191bce35f4c" xlink:title="Calculates the X.25 checksum on a byte buffer. ">
<polygon fill="white" stroke="black" points="406.578,-76.5 406.578,-94.5 480.938,-94.5 480.938,-76.5 406.578,-76.5"/>
<text text-anchor="middle" x="443.758" y="-82.5" font-family="Helvetica,sans-Serif" font-size="10.00">crc_calculate</text>
</a>
</g>
</g>
<!-- Node2&#45;&gt;Node4 -->
<g id="edge3" class="edge"><title>Node2&#45;&gt;Node4</title>
<path fill="none" stroke="midnightblue" d="M349.452,-75.2215C365.414,-76.9799 381.702,-78.7741 396.107,-80.361"/>
<polygon fill="midnightblue" stroke="midnightblue" points="395.909,-83.8603 406.232,-81.4764 396.676,-76.9024 395.909,-83.8603"/>
</g>
<!-- Node6 -->
<g id="node6" class="node"><title>Node6</title>
<g id="a_node6"><a xlink:href="$checksum_8h.html#ade2bbc31cd3b5b6d839556f56de61957" xlink:title="Accumulate the X.25 CRC by adding one char at a time. ">
<polygon fill="white" stroke="black" points="538.251,-38.5 538.251,-56.5 624.28,-56.5 624.28,-38.5 538.251,-38.5"/>
<text text-anchor="middle" x="581.266" y="-44.5" font-family="Helvetica,sans-Serif" font-size="10.00">crc_accumulate</text>
</a>
</g>
</g>
<!-- Node2&#45;&gt;Node6 -->
<g id="edge8" class="edge"><title>Node2&#45;&gt;Node6</title>
<path fill="none" stroke="midnightblue" d="M349.304,-61.6563C405.405,-58.2177 479.148,-53.6978 528.046,-50.7007"/>
<polygon fill="midnightblue" stroke="midnightblue" points="528.321,-54.1905 538.088,-50.0852 527.892,-47.2036 528.321,-54.1905"/>
</g>
<!-- Node7 -->
<g id="node7" class="node"><title>Node7</title>
<g id="a_node7"><a xlink:href="$checksum_8h.html#abcbaa800e8fcbcdf9bb48168657fbefd" xlink:title="Accumulate the X.25 CRC by adding an array of bytes. ">
<polygon fill="white" stroke="black" points="385.265,-0.5 385.265,-18.5 502.251,-18.5 502.251,-0.5 385.265,-0.5"/>
<text text-anchor="middle" x="443.758" y="-6.5" font-family="Helvetica,sans-Serif" font-size="10.00">crc_accumulate_buffer</text>
</a>
</g>
</g>
<!-- Node2&#45;&gt;Node7 -->
<g id="edge6" class="edge"><title>Node2&#45;&gt;Node7</title>
<path fill="none" stroke="midnightblue" d="M297.609,-57.4682C326.792,-47.8241 373.213,-32.483 405.678,-21.754"/>
<polygon fill="midnightblue" stroke="midnightblue" points="406.874,-25.0449 415.271,-18.5838 404.678,-18.3985 406.874,-25.0449"/>
</g>
<!-- Node5 -->
<g id="node5" class="node"><title>Node5</title>
<g id="a_node5"><a xlink:href="$checksum_8h.html#aee738f6e20d31b027afdd966c79befae" xlink:title="Initiliaze the buffer for the X.25 CRC. ">
<polygon fill="white" stroke="black" points="557.428,-76.5 557.428,-94.5 605.103,-94.5 605.103,-76.5 557.428,-76.5"/>
<text text-anchor="middle" x="581.266" y="-82.5" font-family="Helvetica,sans-Serif" font-size="10.00">crc_init</text>
</a>
</g>
</g>
<!-- Node4&#45;&gt;Node5 -->
<g id="edge4" class="edge"><title>Node4&#45;&gt;Node5</title>
<path fill="none" stroke="midnightblue" d="M481.071,-85.5C501.539,-85.5 526.925,-85.5 546.892,-85.5"/>
<polygon fill="midnightblue" stroke="midnightblue" points="547.072,-89.0001 557.072,-85.5 547.072,-82.0001 547.072,-89.0001"/>
</g>
<!-- Node4&#45;&gt;Node6 -->
<g id="edge5" class="edge"><title>Node4&#45;&gt;Node6</title>
<path fill="none" stroke="midnightblue" d="M476.871,-76.4945C495.216,-71.3501 518.435,-64.839 538.219,-59.2909"/>
<polygon fill="midnightblue" stroke="midnightblue" points="539.23,-62.6427 547.913,-56.5725 537.339,-55.9027 539.23,-62.6427"/>
</g>
<!-- Node7&#45;&gt;Node6 -->
<g id="edge7" class="edge"><title>Node7&#45;&gt;Node6</title>
<path fill="none" stroke="midnightblue" d="M476.871,-18.5055C495.216,-23.6499 518.435,-30.161 538.219,-35.7091"/>
<polygon fill="midnightblue" stroke="midnightblue" points="537.339,-39.0973 547.913,-38.4275 539.23,-32.3573 537.339,-39.0973"/>
</g>
</g>
</svg>
