<?xml version="1.0" encoding="UTF-8" standalone="no"?>
<!DOCTYPE svg PUBLIC "-//W3C//DTD SVG 1.1//EN"
 "http://www.w3.org/Graphics/SVG/1.1/DTD/svg11.dtd">
<!-- Generated by graphviz version 2.38.0 (20140413.2041)
 -->
<!-- Title: mavlink_msg_ap_adc_encode Pages: 1 -->
<svg width="936pt" height="150pt"
 viewBox="0.00 0.00 935.83 150.00" xmlns="http://www.w3.org/2000/svg" xmlns:xlink="http://www.w3.org/1999/xlink">
<g id="graph0" class="graph" transform="scale(1 1) rotate(0) translate(4 146)">
<title>mavlink_msg_ap_adc_encode</title>
<polygon fill="white" stroke="none" points="-4,4 -4,-146 931.831,-146 931.831,4 -4,4"/>
<!-- Node1 -->
<g id="node1" class="node"><title>Node1</title>
<polygon fill="#bfbfbf" stroke="black" points="0,-52.5 0,-80.5 112.719,-80.5 112.719,-52.5 0,-52.5"/>
<text text-anchor="start" x="8" y="-68.5" font-family="Helvetica,sans-Serif" font-size="10.00">mavlink_msg_ap_adc</text>
<text text-anchor="middle" x="56.3594" y="-58.5" font-family="Helvetica,sans-Serif" font-size="10.00">_encode</text>
</g>
<!-- Node2 -->
<g id="node2" class="node"><title>Node2</title>
<g id="a_node2"><a xlink:href="$mavlink__msg__ap__adc_8h.html#a9ca5ef0598775a5f3cd917a6bde4278f" xlink:title="Pack a ap_adc message. ">
<polygon fill="white" stroke="black" points="148.719,-57.5 148.719,-75.5 288.122,-75.5 288.122,-57.5 148.719,-57.5"/>
<text text-anchor="middle" x="218.42" y="-63.5" font-family="Helvetica,sans-Serif" font-size="10.00">mavlink_msg_ap_adc_pack</text>
</a>
</g>
</g>
<!-- Node1&#45;&gt;Node2 -->
<g id="edge1" class="edge"><title>Node1&#45;&gt;Node2</title>
<path fill="none" stroke="midnightblue" d="M112.892,-66.5C121.134,-66.5 129.759,-66.5 138.37,-66.5"/>
<polygon fill="midnightblue" stroke="midnightblue" points="138.447,-70.0001 148.447,-66.5 138.447,-63.0001 138.447,-70.0001"/>
</g>
<!-- Node3 -->
<g id="node3" class="node"><title>Node3</title>
<g id="a_node3"><a xlink:href="$mavlink__helpers_8h.html#af3bea083c5ec83f5b6570b2bd4a817d0" xlink:title="Finalize a MAVLink message with MAVLINK_COMM_0 as default channel. ">
<polygon fill="white" stroke="black" points="324.122,-57.5 324.122,-75.5 456.846,-75.5 456.846,-57.5 324.122,-57.5"/>
<text text-anchor="middle" x="390.484" y="-63.5" font-family="Helvetica,sans-Serif" font-size="10.00">mavlink_finalize_message</text>
</a>
</g>
</g>
<!-- Node2&#45;&gt;Node3 -->
<g id="edge2" class="edge"><title>Node2&#45;&gt;Node3</title>
<path fill="none" stroke="midnightblue" d="M288.592,-66.5C296.895,-66.5 305.407,-66.5 313.796,-66.5"/>
<polygon fill="midnightblue" stroke="midnightblue" points="313.946,-70.0001 323.946,-66.5 313.946,-63.0001 313.946,-70.0001"/>
</g>
<!-- Node4 -->
<g id="node4" class="node"><title>Node4</title>
<g id="a_node4"><a xlink:href="$mavlink__helpers_8h.html#aa66131138fc02101dcc73b4b556ab422" xlink:title="Finalize a MAVLink message with channel assignment. ">
<polygon fill="white" stroke="black" points="492.846,-57.5 492.846,-75.5 652.815,-75.5 652.815,-57.5 492.846,-57.5"/>
<text text-anchor="middle" x="572.831" y="-63.5" font-family="Helvetica,sans-Serif" font-size="10.00">mavlink_finalize_message_chan</text>
</a>
</g>
</g>
<!-- Node3&#45;&gt;Node4 -->
<g id="edge3" class="edge"><title>Node3&#45;&gt;Node4</title>
<path fill="none" stroke="midnightblue" d="M456.848,-66.5C465.18,-66.5 473.819,-66.5 482.448,-66.5"/>
<polygon fill="midnightblue" stroke="midnightblue" points="482.554,-70.0001 492.554,-66.5 482.554,-63.0001 482.554,-70.0001"/>
</g>
<!-- Node5 -->
<g id="node5" class="node"><title>Node5</title>
<g id="a_node5"><a xlink:href="$mavlink__helpers_8h.html#ac006d308067f48514ca5c0cf0b046c28" xlink:title="mavlink_get_channel\l_status">
<polygon fill="white" stroke="black" points="692.333,-113.5 692.333,-141.5 802.284,-141.5 802.284,-113.5 692.333,-113.5"/>
<text text-anchor="start" x="700.333" y="-129.5" font-family="Helvetica,sans-Serif" font-size="10.00">mavlink_get_channel</text>
<text text-anchor="middle" x="747.309" y="-119.5" font-family="Helvetica,sans-Serif" font-size="10.00">_status</text>
</a>
</g>
</g>
<!-- Node4&#45;&gt;Node5 -->
<g id="edge4" class="edge"><title>Node4&#45;&gt;Node5</title>
<path fill="none" stroke="midnightblue" d="M599.28,-75.5008C624.927,-84.571 665.166,-98.8026 697.07,-110.086"/>
<polygon fill="midnightblue" stroke="midnightblue" points="696.083,-113.449 706.678,-113.484 698.417,-106.85 696.083,-113.449"/>
</g>
<!-- Node6 -->
<g id="node6" class="node"><title>Node6</title>
<g id="a_node6"><a xlink:href="$checksum_8h.html#ab4264eb7b9e22aabb5cc3191bce35f4c" xlink:title="Calculates the X.25 checksum on a byte buffer. ">
<polygon fill="white" stroke="black" points="710.129,-76.5 710.129,-94.5 784.488,-94.5 784.488,-76.5 710.129,-76.5"/>
<text text-anchor="middle" x="747.309" y="-82.5" font-family="Helvetica,sans-Serif" font-size="10.00">crc_calculate</text>
</a>
</g>
</g>
<!-- Node4&#45;&gt;Node6 -->
<g id="edge5" class="edge"><title>Node4&#45;&gt;Node6</title>
<path fill="none" stroke="midnightblue" d="M653.002,-75.2215C668.965,-76.9799 685.253,-78.7741 699.658,-80.361"/>
<polygon fill="midnightblue" stroke="midnightblue" points="699.46,-83.8603 709.783,-81.4764 700.227,-76.9024 699.46,-83.8603"/>
</g>
<!-- Node8 -->
<g id="node8" class="node"><title>Node8</title>
<g id="a_node8"><a xlink:href="$checksum_8h.html#ade2bbc31cd3b5b6d839556f56de61957" xlink:title="Accumulate the X.25 CRC by adding one char at a time. ">
<polygon fill="white" stroke="black" points="841.802,-38.5 841.802,-56.5 927.831,-56.5 927.831,-38.5 841.802,-38.5"/>
<text text-anchor="middle" x="884.816" y="-44.5" font-family="Helvetica,sans-Serif" font-size="10.00">crc_accumulate</text>
</a>
</g>
</g>
<!-- Node4&#45;&gt;Node8 -->
<g id="edge10" class="edge"><title>Node4&#45;&gt;Node8</title>
<path fill="none" stroke="midnightblue" d="M652.855,-61.6563C708.956,-58.2177 782.698,-53.6978 831.597,-50.7007"/>
<polygon fill="midnightblue" stroke="midnightblue" points="831.871,-54.1905 841.638,-50.0852 831.443,-47.2036 831.871,-54.1905"/>
</g>
<!-- Node9 -->
<g id="node9" class="node"><title>Node9</title>
<g id="a_node9"><a xlink:href="$checksum_8h.html#abcbaa800e8fcbcdf9bb48168657fbefd" xlink:title="Accumulate the X.25 CRC by adding an array of bytes. ">
<polygon fill="white" stroke="black" points="688.815,-0.5 688.815,-18.5 805.802,-18.5 805.802,-0.5 688.815,-0.5"/>
<text text-anchor="middle" x="747.309" y="-6.5" font-family="Helvetica,sans-Serif" font-size="10.00">crc_accumulate_buffer</text>
</a>
</g>
</g>
<!-- Node4&#45;&gt;Node9 -->
<g id="edge8" class="edge"><title>Node4&#45;&gt;Node9</title>
<path fill="none" stroke="midnightblue" d="M601.16,-57.4682C630.342,-47.8241 676.764,-32.483 709.229,-21.754"/>
<polygon fill="midnightblue" stroke="midnightblue" points="710.425,-25.0449 718.822,-18.5838 708.229,-18.3985 710.425,-25.0449"/>
</g>
<!-- Node7 -->
<g id="node7" class="node"><title>Node7</title>
<g id="a_node7"><a xlink:href="$checksum_8h.html#aee738f6e20d31b027afdd966c79befae" xlink:title="Initiliaze the buffer for the X.25 CRC. ">
<polygon fill="white" stroke="black" points="860.979,-76.5 860.979,-94.5 908.654,-94.5 908.654,-76.5 860.979,-76.5"/>
<text text-anchor="middle" x="884.816" y="-82.5" font-family="Helvetica,sans-Serif" font-size="10.00">crc_init</text>
</a>
</g>
</g>
<!-- Node6&#45;&gt;Node7 -->
<g id="edge6" class="edge"><title>Node6&#45;&gt;Node7</title>
<path fill="none" stroke="midnightblue" d="M784.622,-85.5C805.09,-85.5 830.476,-85.5 850.443,-85.5"/>
<polygon fill="midnightblue" stroke="midnightblue" points="850.623,-89.0001 860.623,-85.5 850.623,-82.0001 850.623,-89.0001"/>
</g>
<!-- Node6&#45;&gt;Node8 -->
<g id="edge7" class="edge"><title>Node6&#45;&gt;Node8</title>
<path fill="none" stroke="midnightblue" d="M780.422,-76.4945C798.767,-71.3501 821.986,-64.839 841.77,-59.2909"/>
<polygon fill="midnightblue" stroke="midnightblue" points="842.78,-62.6427 851.464,-56.5725 840.89,-55.9027 842.78,-62.6427"/>
</g>
<!-- Node9&#45;&gt;Node8 -->
<g id="edge9" class="edge"><title>Node9&#45;&gt;Node8</title>
<path fill="none" stroke="midnightblue" d="M780.422,-18.5055C798.767,-23.6499 821.986,-30.161 841.77,-35.7091"/>
<polygon fill="midnightblue" stroke="midnightblue" points="840.89,-39.0973 851.464,-38.4275 842.78,-32.3573 840.89,-39.0973"/>
</g>
</g>
</svg>
