<?xml version="1.0" encoding="UTF-8" standalone="no"?>
<!DOCTYPE svg PUBLIC "-//W3C//DTD SVG 1.1//EN"
 "http://www.w3.org/Graphics/SVG/1.1/DTD/svg11.dtd">
<!-- Generated by graphviz version 2.38.0 (20140413.2041)
 -->
<!-- Title: mavlink_msg_ahrs_decode Pages: 1 -->
<svg width="301pt" height="319pt"
 viewBox="0.00 0.00 300.56 319.00" xmlns="http://www.w3.org/2000/svg" xmlns:xlink="http://www.w3.org/1999/xlink">
<g id="graph0" class="graph" transform="scale(1 1) rotate(0) translate(4 315)">
<title>mavlink_msg_ahrs_decode</title>
<polygon fill="white" stroke="none" points="-4,4 -4,-315 296.561,-315 296.561,4 -4,4"/>
<!-- Node1 -->
<g id="node1" class="node"><title>Node1</title>
<polygon fill="#bfbfbf" stroke="black" points="0,-146.5 0,-164.5 137.733,-164.5 137.733,-146.5 0,-146.5"/>
<text text-anchor="middle" x="68.8667" y="-152.5" font-family="Helvetica,sans-Serif" font-size="10.00">mavlink_msg_ahrs_decode</text>
</g>
<!-- Node2 -->
<g id="node2" class="node"><title>Node2</title>
<g id="a_node2"><a xlink:href="$mavlink__msg__ahrs_8h.html#ab0bbe33f2a82cd05bbc25d04322cce60" xlink:title="Send a ahrs message. ">
<polygon fill="white" stroke="black" points="173.733,-282.5 173.733,-310.5 292.561,-310.5 292.561,-282.5 173.733,-282.5"/>
<text text-anchor="start" x="181.733" y="-298.5" font-family="Helvetica,sans-Serif" font-size="10.00">mavlink_msg_ahrs_get</text>
<text text-anchor="middle" x="233.147" y="-288.5" font-family="Helvetica,sans-Serif" font-size="10.00">_omegaIx</text>
</a>
</g>
</g>
<!-- Node1&#45;&gt;Node2 -->
<g id="edge1" class="edge"><title>Node1&#45;&gt;Node2</title>
<path fill="none" stroke="midnightblue" d="M75.7585,-164.808C90.0282,-186.668 128.612,-241.825 173.733,-273.5 175.841,-274.979 178.057,-276.382 180.343,-277.708"/>
<polygon fill="midnightblue" stroke="midnightblue" points="178.948,-280.928 189.432,-282.455 182.188,-274.723 178.948,-280.928"/>
</g>
<!-- Node3 -->
<g id="node3" class="node"><title>Node3</title>
<g id="a_node3"><a xlink:href="$mavlink__msg__ahrs_8h.html#a0989a73a7c9cb78f6ac5ac44fa2cd9fc" xlink:title="Get field omegaIy from ahrs message. ">
<polygon fill="white" stroke="black" points="173.733,-235.5 173.733,-263.5 292.561,-263.5 292.561,-235.5 173.733,-235.5"/>
<text text-anchor="start" x="181.733" y="-251.5" font-family="Helvetica,sans-Serif" font-size="10.00">mavlink_msg_ahrs_get</text>
<text text-anchor="middle" x="233.147" y="-241.5" font-family="Helvetica,sans-Serif" font-size="10.00">_omegaIy</text>
</a>
</g>
</g>
<!-- Node1&#45;&gt;Node3 -->
<g id="edge2" class="edge"><title>Node1&#45;&gt;Node3</title>
<path fill="none" stroke="midnightblue" d="M81.4662,-164.723C100.1,-179.234 138.222,-207.679 173.733,-226.5 176.956,-228.208 180.335,-229.863 183.774,-231.449"/>
<polygon fill="midnightblue" stroke="midnightblue" points="182.387,-234.662 192.95,-235.476 185.2,-228.252 182.387,-234.662"/>
</g>
<!-- Node4 -->
<g id="node4" class="node"><title>Node4</title>
<g id="a_node4"><a xlink:href="$mavlink__msg__ahrs_8h.html#a6cd869314b46228d06e4d42581417808" xlink:title="Get field omegaIz from ahrs message. ">
<polygon fill="white" stroke="black" points="173.733,-188.5 173.733,-216.5 292.561,-216.5 292.561,-188.5 173.733,-188.5"/>
<text text-anchor="start" x="181.733" y="-204.5" font-family="Helvetica,sans-Serif" font-size="10.00">mavlink_msg_ahrs_get</text>
<text text-anchor="middle" x="233.147" y="-194.5" font-family="Helvetica,sans-Serif" font-size="10.00">_omegaIz</text>
</a>
</g>
</g>
<!-- Node1&#45;&gt;Node4 -->
<g id="edge3" class="edge"><title>Node1&#45;&gt;Node4</title>
<path fill="none" stroke="midnightblue" d="M101.156,-164.562C121.809,-170.544 149.496,-178.563 174.096,-185.687"/>
<polygon fill="midnightblue" stroke="midnightblue" points="173.126,-189.05 183.705,-188.47 175.073,-182.326 173.126,-189.05"/>
</g>
<!-- Node5 -->
<g id="node5" class="node"><title>Node5</title>
<g id="a_node5"><a xlink:href="$mavlink__msg__ahrs_8h.html#a24f6625d33a88b29cf057f1f41bd5c66" xlink:title="Get field accel_weight from ahrs message. ">
<polygon fill="white" stroke="black" points="173.733,-141.5 173.733,-169.5 292.561,-169.5 292.561,-141.5 173.733,-141.5"/>
<text text-anchor="start" x="181.733" y="-157.5" font-family="Helvetica,sans-Serif" font-size="10.00">mavlink_msg_ahrs_get</text>
<text text-anchor="middle" x="233.147" y="-147.5" font-family="Helvetica,sans-Serif" font-size="10.00">_accel_weight</text>
</a>
</g>
</g>
<!-- Node1&#45;&gt;Node5 -->
<g id="edge4" class="edge"><title>Node1&#45;&gt;Node5</title>
<path fill="none" stroke="midnightblue" d="M137.748,-155.5C146.207,-155.5 154.864,-155.5 163.338,-155.5"/>
<polygon fill="midnightblue" stroke="midnightblue" points="163.557,-159 173.556,-155.5 163.556,-152 163.557,-159"/>
</g>
<!-- Node6 -->
<g id="node6" class="node"><title>Node6</title>
<g id="a_node6"><a xlink:href="$mavlink__msg__ahrs_8h.html#a2c925557044d3b2eea4bad5f8f1359ca" xlink:title="Get field renorm_val from ahrs message. ">
<polygon fill="white" stroke="black" points="173.733,-94.5 173.733,-122.5 292.561,-122.5 292.561,-94.5 173.733,-94.5"/>
<text text-anchor="start" x="181.733" y="-110.5" font-family="Helvetica,sans-Serif" font-size="10.00">mavlink_msg_ahrs_get</text>
<text text-anchor="middle" x="233.147" y="-100.5" font-family="Helvetica,sans-Serif" font-size="10.00">_renorm_val</text>
</a>
</g>
</g>
<!-- Node1&#45;&gt;Node6 -->
<g id="edge5" class="edge"><title>Node1&#45;&gt;Node6</title>
<path fill="none" stroke="midnightblue" d="M101.156,-146.438C121.809,-140.456 149.496,-132.437 174.096,-125.313"/>
<polygon fill="midnightblue" stroke="midnightblue" points="175.073,-128.674 183.705,-122.53 173.126,-121.95 175.073,-128.674"/>
</g>
<!-- Node7 -->
<g id="node7" class="node"><title>Node7</title>
<g id="a_node7"><a xlink:href="$mavlink__msg__ahrs_8h.html#a75dad9e0cfeff1c9cc41fb2a4aac752f" xlink:title="Get field error_rp from ahrs message. ">
<polygon fill="white" stroke="black" points="173.733,-47.5 173.733,-75.5 292.561,-75.5 292.561,-47.5 173.733,-47.5"/>
<text text-anchor="start" x="181.733" y="-63.5" font-family="Helvetica,sans-Serif" font-size="10.00">mavlink_msg_ahrs_get</text>
<text text-anchor="middle" x="233.147" y="-53.5" font-family="Helvetica,sans-Serif" font-size="10.00">_error_rp</text>
</a>
</g>
</g>
<!-- Node1&#45;&gt;Node7 -->
<g id="edge6" class="edge"><title>Node1&#45;&gt;Node7</title>
<path fill="none" stroke="midnightblue" d="M81.522,-146.484C100.233,-132.283 138.457,-104.381 173.733,-85.5 177.431,-83.5211 181.327,-81.5977 185.281,-79.7575"/>
<polygon fill="midnightblue" stroke="midnightblue" points="186.835,-82.8967 194.543,-75.6275 183.985,-76.5035 186.835,-82.8967"/>
</g>
<!-- Node8 -->
<g id="node8" class="node"><title>Node8</title>
<g id="a_node8"><a xlink:href="$mavlink__msg__ahrs_8h.html#a89b63d9ce225fc0d31c3495188d1133f" xlink:title="Get field error_yaw from ahrs message. ">
<polygon fill="white" stroke="black" points="173.733,-0.5 173.733,-28.5 292.561,-28.5 292.561,-0.5 173.733,-0.5"/>
<text text-anchor="start" x="181.733" y="-16.5" font-family="Helvetica,sans-Serif" font-size="10.00">mavlink_msg_ahrs_get</text>
<text text-anchor="middle" x="233.147" y="-6.5" font-family="Helvetica,sans-Serif" font-size="10.00">_error_yaw</text>
</a>
</g>
</g>
<!-- Node1&#45;&gt;Node8 -->
<g id="edge7" class="edge"><title>Node1&#45;&gt;Node8</title>
<path fill="none" stroke="midnightblue" d="M75.8094,-146.318C90.1891,-124.745 128.993,-70.2595 173.733,-38.5 176.371,-36.6278 179.176,-34.8684 182.075,-33.2207"/>
<polygon fill="midnightblue" stroke="midnightblue" points="183.71,-36.3159 190.982,-28.6113 180.492,-30.0991 183.71,-36.3159"/>
</g>
</g>
</svg>
