<?xml version="1.0" encoding="UTF-8" standalone="no"?>
<!DOCTYPE svg PUBLIC "-//W3C//DTD SVG 1.1//EN"
 "http://www.w3.org/Graphics/SVG/1.1/DTD/svg11.dtd">
<!-- Generated by graphviz version 2.38.0 (20140413.2041)
 -->
<!-- Title: libraries/AP_HAL_PX4/NSHShellStream.cpp Pages: 1 -->
<svg width="1761pt" height="587pt"
 viewBox="0.00 0.00 1760.56 587.00" xmlns="http://www.w3.org/2000/svg" xmlns:xlink="http://www.w3.org/1999/xlink">
<g id="graph0" class="graph" transform="scale(1 1) rotate(0) translate(4 583)">
<title>libraries/AP_HAL_PX4/NSHShellStream.cpp</title>
<polygon fill="white" stroke="none" points="-4,4 -4,-583 1756.56,-583 1756.56,4 -4,4"/>
<!-- Node1 -->
<g id="node1" class="node"><title>Node1</title>
<polygon fill="#bfbfbf" stroke="black" points="1310.06,-550.5 1310.06,-578.5 1426.67,-578.5 1426.67,-550.5 1310.06,-550.5"/>
<text text-anchor="start" x="1318.06" y="-566.5" font-family="Helvetica,sans-Serif" font-size="10.00">libraries/AP_HAL_PX4</text>
<text text-anchor="middle" x="1368.37" y="-556.5" font-family="Helvetica,sans-Serif" font-size="10.00">/NSHShellStream.cpp</text>
</g>
<!-- Node2 -->
<g id="node2" class="node"><title>Node2</title>
<g id="a_node2"><a xlink:href="$AP__HAL_8h.html" xlink:title="AP_HAL/AP_HAL.h">
<polygon fill="white" stroke="black" points="857.454,-440.5 857.454,-458.5 961.281,-458.5 961.281,-440.5 857.454,-440.5"/>
<text text-anchor="middle" x="909.367" y="-446.5" font-family="Helvetica,sans-Serif" font-size="10.00">AP_HAL/AP_HAL.h</text>
</a>
</g>
</g>
<!-- Node1&#45;&gt;Node2 -->
<g id="edge1" class="edge"><title>Node1&#45;&gt;Node2</title>
<path fill="none" stroke="midnightblue" d="M1309.76,-551.961C1262.93,-542.497 1195.71,-528.362 1137.37,-514 1069.44,-497.28 991.032,-474.717 946.118,-461.475"/>
<polygon fill="midnightblue" stroke="midnightblue" points="946.835,-458.037 936.253,-458.558 944.85,-464.75 946.835,-458.037"/>
</g>
<!-- Node21 -->
<g id="node21" class="node"><title>Node21</title>
<polygon fill="white" stroke="#bfbfbf" points="127.525,-110.5 127.525,-128.5 175.209,-128.5 175.209,-110.5 127.525,-110.5"/>
<text text-anchor="middle" x="151.367" y="-116.5" font-family="Helvetica,sans-Serif" font-size="10.00">stdlib.h</text>
</g>
<!-- Node1&#45;&gt;Node21 -->
<g id="edge71" class="edge"><title>Node1&#45;&gt;Node21</title>
<path fill="none" stroke="midnightblue" d="M1310.02,-561.786C1048.91,-553.738 0.367181,-517.264 0.367181,-450.5 0.367181,-450.5 0.367181,-450.5 0.367181,-228.5 0.367181,-199.042 -1.10154,-186.186 19.3672,-165 45.2213,-138.24 87.6787,-127.572 117.443,-123.319"/>
<polygon fill="midnightblue" stroke="midnightblue" points="117.909,-126.788 127.393,-122.067 117.035,-119.843 117.909,-126.788"/>
</g>
<!-- Node23 -->
<g id="node23" class="node"><title>Node23</title>
<polygon fill="white" stroke="#bfbfbf" points="1205.3,-165.5 1205.3,-183.5 1257.43,-183.5 1257.43,-165.5 1205.3,-165.5"/>
<text text-anchor="middle" x="1231.37" y="-171.5" font-family="Helvetica,sans-Serif" font-size="10.00">stdarg.h</text>
</g>
<!-- Node1&#45;&gt;Node23 -->
<g id="edge69" class="edge"><title>Node1&#45;&gt;Node23</title>
<path fill="none" stroke="midnightblue" d="M1311.8,-550.443C1290.12,-542.942 1266.7,-531.423 1250.37,-514 1206.79,-467.51 1223.33,-257.51 1229.47,-193.849"/>
<polygon fill="midnightblue" stroke="midnightblue" points="1232.97,-194.035 1230.48,-183.737 1226.01,-193.341 1232.97,-194.035"/>
</g>
<!-- Node30 -->
<g id="node30" class="node"><title>Node30</title>
<polygon fill="white" stroke="#bfbfbf" points="1345.64,-495.5 1345.64,-513.5 1391.1,-513.5 1391.1,-495.5 1345.64,-495.5"/>
<text text-anchor="middle" x="1368.37" y="-501.5" font-family="Helvetica,sans-Serif" font-size="10.00">stdio.h</text>
</g>
<!-- Node1&#45;&gt;Node30 -->
<g id="edge68" class="edge"><title>Node1&#45;&gt;Node30</title>
<path fill="none" stroke="midnightblue" d="M1368.37,-550.339C1368.37,-542.531 1368.37,-532.512 1368.37,-523.927"/>
<polygon fill="midnightblue" stroke="midnightblue" points="1371.87,-523.771 1368.37,-513.771 1364.87,-523.772 1371.87,-523.771"/>
</g>
<!-- Node31 -->
<g id="node31" class="node"><title>Node31</title>
<polygon fill="white" stroke="#bfbfbf" points="1408.85,-495.5 1408.85,-513.5 1459.88,-513.5 1459.88,-495.5 1408.85,-495.5"/>
<text text-anchor="middle" x="1434.37" y="-501.5" font-family="Helvetica,sans-Serif" font-size="10.00">unistd.h</text>
</g>
<!-- Node1&#45;&gt;Node31 -->
<g id="edge70" class="edge"><title>Node1&#45;&gt;Node31</title>
<path fill="none" stroke="midnightblue" d="M1383.34,-550.339C1393.43,-541.478 1406.75,-529.77 1417.25,-520.541"/>
<polygon fill="midnightblue" stroke="midnightblue" points="1419.75,-523.002 1424.95,-513.771 1415.13,-517.744 1419.75,-523.002"/>
</g>
<!-- Node32 -->
<g id="node32" class="node"><title>Node32</title>
<polygon fill="white" stroke="#bfbfbf" points="1477.52,-495.5 1477.52,-513.5 1525.21,-513.5 1525.21,-495.5 1477.52,-495.5"/>
<text text-anchor="middle" x="1501.37" y="-501.5" font-family="Helvetica,sans-Serif" font-size="10.00">errno.h</text>
</g>
<!-- Node1&#45;&gt;Node32 -->
<g id="edge72" class="edge"><title>Node1&#45;&gt;Node32</title>
<path fill="none" stroke="midnightblue" d="M1398.21,-550.484C1420.66,-540.694 1451.22,-527.371 1473.24,-517.768"/>
<polygon fill="midnightblue" stroke="midnightblue" points="1474.93,-520.849 1482.69,-513.643 1472.13,-514.433 1474.93,-520.849"/>
</g>
<!-- Node33 -->
<g id="node33" class="node"><title>Node33</title>
<polygon fill="white" stroke="#bfbfbf" points="1542.9,-495.5 1542.9,-513.5 1607.83,-513.5 1607.83,-495.5 1542.9,-495.5"/>
<text text-anchor="middle" x="1575.37" y="-501.5" font-family="Helvetica,sans-Serif" font-size="10.00">apps/nsh.h</text>
</g>
<!-- Node1&#45;&gt;Node33 -->
<g id="edge73" class="edge"><title>Node1&#45;&gt;Node33</title>
<path fill="none" stroke="midnightblue" d="M1414.82,-550.484C1451.6,-540.179 1502.35,-525.958 1536.88,-516.283"/>
<polygon fill="midnightblue" stroke="midnightblue" points="1537.92,-519.627 1546.61,-513.559 1536.03,-512.887 1537.92,-519.627"/>
</g>
<!-- Node34 -->
<g id="node34" class="node"><title>Node34</title>
<polygon fill="white" stroke="#bfbfbf" points="1626.03,-495.5 1626.03,-513.5 1668.71,-513.5 1668.71,-495.5 1626.03,-495.5"/>
<text text-anchor="middle" x="1647.37" y="-501.5" font-family="Helvetica,sans-Serif" font-size="10.00">fcntl.h</text>
</g>
<!-- Node1&#45;&gt;Node34 -->
<g id="edge74" class="edge"><title>Node1&#45;&gt;Node34</title>
<path fill="none" stroke="midnightblue" d="M1426.75,-553.052C1474.9,-544.161 1545.19,-530.554 1615.78,-513.996"/>
<polygon fill="midnightblue" stroke="midnightblue" points="1616.81,-517.348 1625.74,-511.64 1615.2,-510.536 1616.81,-517.348"/>
</g>
<!-- Node35 -->
<g id="node35" class="node"><title>Node35</title>
<polygon fill="white" stroke="#bfbfbf" points="1686.42,-495.5 1686.42,-513.5 1746.32,-513.5 1746.32,-495.5 1686.42,-495.5"/>
<text text-anchor="middle" x="1716.37" y="-501.5" font-family="Helvetica,sans-Serif" font-size="10.00">sys/ioctl.h</text>
</g>
<!-- Node1&#45;&gt;Node35 -->
<g id="edge75" class="edge"><title>Node1&#45;&gt;Node35</title>
<path fill="none" stroke="midnightblue" d="M1426.91,-555.115C1487.05,-546.277 1583.6,-531.47 1676.34,-514.109"/>
<polygon fill="midnightblue" stroke="midnightblue" points="1676.99,-517.548 1686.17,-512.256 1675.69,-510.669 1676.99,-517.548"/>
</g>
<!-- Node36 -->
<g id="node36" class="node"><title>Node36</title>
<g id="a_node36"><a xlink:href="$PX4_2Scheduler_8h.html" xlink:title="Scheduler.h">
<polygon fill="white" stroke="black" points="1258.96,-495.5 1258.96,-513.5 1327.78,-513.5 1327.78,-495.5 1258.96,-495.5"/>
<text text-anchor="middle" x="1293.37" y="-501.5" font-family="Helvetica,sans-Serif" font-size="10.00">Scheduler.h</text>
</a>
</g>
</g>
<!-- Node1&#45;&gt;Node36 -->
<g id="edge76" class="edge"><title>Node1&#45;&gt;Node36</title>
<path fill="none" stroke="midnightblue" d="M1351.35,-550.339C1339.66,-541.302 1324.15,-529.306 1312.11,-519.995"/>
<polygon fill="midnightblue" stroke="midnightblue" points="1314.11,-517.12 1304.06,-513.771 1309.83,-522.658 1314.11,-517.12"/>
</g>
<!-- Node42 -->
<g id="node42" class="node"><title>Node42</title>
<g id="a_node42"><a xlink:href="$PX4_2Util_8h.html" xlink:title="Util.h">
<polygon fill="white" stroke="black" points="1145.98,-495.5 1145.98,-513.5 1184.76,-513.5 1184.76,-495.5 1145.98,-495.5"/>
<text text-anchor="middle" x="1165.37" y="-501.5" font-family="Helvetica,sans-Serif" font-size="10.00">Util.h</text>
</a>
</g>
</g>
<!-- Node1&#45;&gt;Node42 -->
<g id="edge83" class="edge"><title>Node1&#45;&gt;Node42</title>
<path fill="none" stroke="midnightblue" d="M1322.81,-550.484C1283.61,-539.285 1228.23,-523.461 1194.67,-513.873"/>
<polygon fill="midnightblue" stroke="midnightblue" points="1195.58,-510.491 1185,-511.109 1193.65,-517.222 1195.58,-510.491"/>
</g>
<!-- Node3 -->
<g id="node3" class="node"><title>Node3</title>
<polygon fill="white" stroke="#bfbfbf" points="494.247,-110.5 494.247,-128.5 542.488,-128.5 542.488,-110.5 494.247,-110.5"/>
<text text-anchor="middle" x="518.367" y="-116.5" font-family="Helvetica,sans-Serif" font-size="10.00">stdint.h</text>
</g>
<!-- Node2&#45;&gt;Node3 -->
<g id="edge2" class="edge"><title>Node2&#45;&gt;Node3</title>
<path fill="none" stroke="midnightblue" d="M857.279,-449.188C794.487,-448.192 686.984,-440.567 603.367,-404 532.139,-372.851 500.856,-364.158 467.367,-294 453.892,-265.77 492.294,-176.368 509.977,-138.128"/>
<polygon fill="midnightblue" stroke="midnightblue" points="513.278,-139.332 514.355,-128.792 506.941,-136.36 513.278,-139.332"/>
</g>
<!-- Node4 -->
<g id="node4" class="node"><title>Node4</title>
<polygon fill="white" stroke="#bfbfbf" points="310.074,-110.5 310.074,-128.5 366.66,-128.5 366.66,-110.5 310.074,-110.5"/>
<text text-anchor="middle" x="338.367" y="-116.5" font-family="Helvetica,sans-Serif" font-size="10.00">stdbool.h</text>
</g>
<!-- Node2&#45;&gt;Node4 -->
<g id="edge3" class="edge"><title>Node2&#45;&gt;Node4</title>
<path fill="none" stroke="midnightblue" d="M857.274,-444.77C709.517,-433.498 298.367,-397.053 298.367,-340.5 298.367,-340.5 298.367,-340.5 298.367,-283.5 298.367,-230.831 278.211,-214.061 297.367,-165 301.884,-153.432 310.972,-143.058 319.447,-135.243"/>
<polygon fill="midnightblue" stroke="midnightblue" points="321.905,-137.746 327.215,-128.578 317.346,-132.433 321.905,-137.746"/>
</g>
<!-- Node5 -->
<g id="node5" class="node"><title>Node5</title>
<g id="a_node5"><a xlink:href="$AP__HAL__Namespace_8h.html" xlink:title="AP_HAL_Namespace.h">
<polygon fill="white" stroke="black" points="855.56,-55.5 855.56,-73.5 977.175,-73.5 977.175,-55.5 855.56,-55.5"/>
<text text-anchor="middle" x="916.367" y="-61.5" font-family="Helvetica,sans-Serif" font-size="10.00">AP_HAL_Namespace.h</text>
</a>
</g>
</g>
<!-- Node2&#45;&gt;Node5 -->
<g id="edge4" class="edge"><title>Node2&#45;&gt;Node5</title>
<path fill="none" stroke="midnightblue" d="M961.66,-446.113C1074.83,-439.519 1332.37,-416.199 1332.37,-340.5 1332.37,-340.5 1332.37,-340.5 1332.37,-283.5 1332.37,-190.742 1301.56,-146.686 1216.37,-110 1142.5,-78.1914 1049.98,-68.4985 987.359,-65.8542"/>
<polygon fill="midnightblue" stroke="midnightblue" points="987.311,-62.3501 977.188,-65.4755 987.05,-69.3452 987.311,-62.3501"/>
</g>
<!-- Node8 -->
<g id="node8" class="node"><title>Node8</title>
<g id="a_node8"><a xlink:href="$AP__HAL__Boards_8h.html" xlink:title="AP_HAL_Boards.h">
<polygon fill="white" stroke="black" points="112.397,-165.5 112.397,-183.5 212.337,-183.5 212.337,-165.5 112.397,-165.5"/>
<text text-anchor="middle" x="162.367" y="-171.5" font-family="Helvetica,sans-Serif" font-size="10.00">AP_HAL_Boards.h</text>
</a>
</g>
</g>
<!-- Node2&#45;&gt;Node8 -->
<g id="edge7" class="edge"><title>Node2&#45;&gt;Node8</title>
<path fill="none" stroke="midnightblue" d="M857.231,-448.252C724.009,-447.087 373.908,-440.533 264.367,-404 215.133,-387.58 166.367,-392.4 166.367,-340.5 166.367,-340.5 166.367,-340.5 166.367,-283.5 166.367,-251.996 164.646,-215.358 163.462,-193.873"/>
<polygon fill="midnightblue" stroke="midnightblue" points="166.941,-193.408 162.874,-183.625 159.953,-193.809 166.941,-193.408"/>
</g>
<!-- Node9 -->
<g id="node9" class="node"><title>Node9</title>
<g id="a_node9"><a xlink:href="$AP__HAL__Macros_8h.html" xlink:title="AP_HAL_Macros.h">
<polygon fill="white" stroke="black" points="1032.85,-385.5 1032.85,-403.5 1133.89,-403.5 1133.89,-385.5 1032.85,-385.5"/>
<text text-anchor="middle" x="1083.37" y="-391.5" font-family="Helvetica,sans-Serif" font-size="10.00">AP_HAL_Macros.h</text>
</a>
</g>
</g>
<!-- Node2&#45;&gt;Node9 -->
<g id="edge8" class="edge"><title>Node2&#45;&gt;Node9</title>
<path fill="none" stroke="midnightblue" d="M935.794,-440.45C965.518,-431.396 1013.97,-416.638 1047.19,-406.519"/>
<polygon fill="midnightblue" stroke="midnightblue" points="1048.43,-409.8 1056.98,-403.538 1046.39,-403.104 1048.43,-409.8"/>
</g>
<!-- Node10 -->
<g id="node10" class="node"><title>Node10</title>
<g id="a_node10"><a xlink:href="$AP__HAL__Main_8h.html" xlink:title="AP_HAL_Main.h">
<polygon fill="white" stroke="black" points="772.402,-385.5 772.402,-403.5 862.333,-403.5 862.333,-385.5 772.402,-385.5"/>
<text text-anchor="middle" x="817.367" y="-391.5" font-family="Helvetica,sans-Serif" font-size="10.00">AP_HAL_Main.h</text>
</a>
</g>
</g>
<!-- Node2&#45;&gt;Node10 -->
<g id="edge9" class="edge"><title>Node2&#45;&gt;Node10</title>
<path fill="none" stroke="midnightblue" d="M895.394,-440.45C880.804,-432.045 857.681,-418.724 840.388,-408.762"/>
<polygon fill="midnightblue" stroke="midnightblue" points="841.884,-405.584 831.471,-403.625 838.389,-411.65 841.884,-405.584"/>
</g>
<!-- Node11 -->
<g id="node11" class="node"><title>Node11</title>
<g id="a_node11"><a xlink:href="$HAL_8h.html" xlink:title="HAL.h">
<polygon fill="white" stroke="black" points="768.471,-330.5 768.471,-348.5 812.264,-348.5 812.264,-330.5 768.471,-330.5"/>
<text text-anchor="middle" x="790.367" y="-336.5" font-family="Helvetica,sans-Serif" font-size="10.00">HAL.h</text>
</a>
</g>
</g>
<!-- Node2&#45;&gt;Node11 -->
<g id="edge67" class="edge"><title>Node2&#45;&gt;Node11</title>
<path fill="none" stroke="midnightblue" d="M857.34,-447.423C824.68,-443.709 784.816,-432.96 763.367,-404 752.503,-389.331 764.138,-369.628 775.337,-356.08"/>
<polygon fill="midnightblue" stroke="midnightblue" points="778.014,-358.337 782.048,-348.54 772.785,-353.682 778.014,-358.337"/>
</g>
<!-- Node12 -->
<g id="node12" class="node"><title>Node12</title>
<g id="a_node12"><a xlink:href="$AnalogIn_8h.html" xlink:title="AnalogIn.h">
<polygon fill="white" stroke="black" points="1108.46,-220.5 1108.46,-238.5 1172.28,-238.5 1172.28,-220.5 1108.46,-220.5"/>
<text text-anchor="middle" x="1140.37" y="-226.5" font-family="Helvetica,sans-Serif" font-size="10.00">AnalogIn.h</text>
</a>
</g>
</g>
<!-- Node2&#45;&gt;Node12 -->
<g id="edge49" class="edge"><title>Node2&#45;&gt;Node12</title>
<path fill="none" stroke="midnightblue" d="M961.36,-446.102C1023.14,-442.035 1120.72,-431.356 1143.37,-404 1180.63,-358.977 1159.69,-282.552 1147.37,-248.176"/>
<polygon fill="midnightblue" stroke="midnightblue" points="1150.55,-246.709 1143.75,-238.586 1144,-249.178 1150.55,-246.709"/>
</g>
<!-- Node14 -->
<g id="node14" class="node"><title>Node14</title>
<g id="a_node14"><a xlink:href="$GPIO_8h.html" xlink:title="GPIO.h">
<polygon fill="white" stroke="black" points="686.695,-220.5 686.695,-238.5 736.04,-238.5 736.04,-220.5 686.695,-220.5"/>
<text text-anchor="middle" x="711.367" y="-226.5" font-family="Helvetica,sans-Serif" font-size="10.00">GPIO.h</text>
</a>
</g>
</g>
<!-- Node2&#45;&gt;Node14 -->
<g id="edge51" class="edge"><title>Node2&#45;&gt;Node14</title>
<path fill="none" stroke="midnightblue" d="M857.404,-447.634C820.846,-444.242 773.285,-433.789 743.367,-404 701.44,-362.255 704.566,-284.726 708.627,-249.182"/>
<polygon fill="midnightblue" stroke="midnightblue" points="712.151,-249.219 709.976,-238.85 705.21,-248.313 712.151,-249.219"/>
</g>
<!-- Node15 -->
<g id="node15" class="node"><title>Node15</title>
<g id="a_node15"><a xlink:href="$RCInput_8h.html" xlink:title="RCInput.h">
<polygon fill="white" stroke="black" points="1010.85,-275.5 1010.85,-293.5 1071.88,-293.5 1071.88,-275.5 1010.85,-275.5"/>
<text text-anchor="middle" x="1041.37" y="-281.5" font-family="Helvetica,sans-Serif" font-size="10.00">RCInput.h</text>
</a>
</g>
</g>
<!-- Node2&#45;&gt;Node15 -->
<g id="edge52" class="edge"><title>Node2&#45;&gt;Node15</title>
<path fill="none" stroke="midnightblue" d="M919.514,-440.341C938.873,-424.388 981.621,-387.267 1009.37,-349 1019.77,-334.647 1028.57,-316.415 1034.3,-303.172"/>
<polygon fill="midnightblue" stroke="midnightblue" points="1037.59,-304.368 1038.2,-293.791 1031.13,-301.68 1037.59,-304.368"/>
</g>
<!-- Node16 -->
<g id="node16" class="node"><title>Node16</title>
<g id="a_node16"><a xlink:href="$RCOutput_8h.html" xlink:title="RCOutput.h">
<polygon fill="white" stroke="black" points="571.966,-275.5 571.966,-293.5 640.769,-293.5 640.769,-275.5 571.966,-275.5"/>
<text text-anchor="middle" x="606.367" y="-281.5" font-family="Helvetica,sans-Serif" font-size="10.00">RCOutput.h</text>
</a>
</g>
</g>
<!-- Node2&#45;&gt;Node16 -->
<g id="edge53" class="edge"><title>Node2&#45;&gt;Node16</title>
<path fill="none" stroke="midnightblue" d="M857.283,-445.31C791.964,-440.328 684.828,-428.6 654.367,-404 623.229,-378.853 612.142,-330.341 608.308,-303.854"/>
<polygon fill="midnightblue" stroke="midnightblue" points="611.751,-303.18 607.041,-293.689 604.805,-304.046 611.751,-303.18"/>
</g>
<!-- Node17 -->
<g id="node17" class="node"><title>Node17</title>
<g id="a_node17"><a xlink:href="$SPIDriver_8h.html" xlink:title="SPIDriver.h">
<polygon fill="white" stroke="black" points="888.079,-275.5 888.079,-293.5 954.655,-293.5 954.655,-275.5 888.079,-275.5"/>
<text text-anchor="middle" x="921.367" y="-281.5" font-family="Helvetica,sans-Serif" font-size="10.00">SPIDriver.h</text>
</a>
</g>
</g>
<!-- Node2&#45;&gt;Node17 -->
<g id="edge48" class="edge"><title>Node2&#45;&gt;Node17</title>
<path fill="none" stroke="midnightblue" d="M908.639,-440.406C907.065,-421.161 903.91,-371.197 909.367,-330 910.552,-321.056 913.021,-311.359 915.413,-303.306"/>
<polygon fill="midnightblue" stroke="midnightblue" points="918.814,-304.161 918.499,-293.57 912.141,-302.045 918.814,-304.161"/>
</g>
<!-- Node18 -->
<g id="node18" class="node"><title>Node18</title>
<g id="a_node18"><a xlink:href="$Storage_8h.html" xlink:title="Storage.h">
<polygon fill="white" stroke="black" points="734.685,-275.5 734.685,-293.5 794.049,-293.5 794.049,-275.5 734.685,-275.5"/>
<text text-anchor="middle" x="764.367" y="-281.5" font-family="Helvetica,sans-Serif" font-size="10.00">Storage.h</text>
</a>
</g>
</g>
<!-- Node2&#45;&gt;Node18 -->
<g id="edge50" class="edge"><title>Node2&#45;&gt;Node18</title>
<path fill="none" stroke="midnightblue" d="M858.076,-440.436C818.289,-433.01 767.87,-420.627 755.367,-404 733.125,-374.421 746.471,-328.114 756.453,-303.044"/>
<polygon fill="midnightblue" stroke="midnightblue" points="759.729,-304.283 760.411,-293.71 753.285,-301.55 759.729,-304.283"/>
</g>
<!-- Node19 -->
<g id="node19" class="node"><title>Node19</title>
<g id="a_node19"><a xlink:href="$UARTDriver_8h.html" xlink:title="UARTDriver.h">
<polygon fill="white" stroke="black" points="476.615,-275.5 476.615,-293.5 554.119,-293.5 554.119,-275.5 476.615,-275.5"/>
<text text-anchor="middle" x="515.367" y="-281.5" font-family="Helvetica,sans-Serif" font-size="10.00">UARTDriver.h</text>
</a>
</g>
</g>
<!-- Node2&#45;&gt;Node19 -->
<g id="edge44" class="edge"><title>Node2&#45;&gt;Node19</title>
<path fill="none" stroke="midnightblue" d="M857.276,-443.904C788.7,-437.202 672.384,-423.401 634.367,-404 586.258,-379.449 545.462,-328.378 526.587,-302.025"/>
<polygon fill="midnightblue" stroke="midnightblue" points="529.248,-299.722 520.652,-293.528 523.509,-303.731 529.248,-299.722"/>
</g>
<!-- Node22 -->
<g id="node22" class="node"><title>Node22</title>
<g id="a_node22"><a xlink:href="$BetterStream_8h.html" xlink:title="utility/BetterStream.h">
<polygon fill="white" stroke="black" points="981.961,-220.5 981.961,-238.5 1090.77,-238.5 1090.77,-220.5 981.961,-220.5"/>
<text text-anchor="middle" x="1036.37" y="-226.5" font-family="Helvetica,sans-Serif" font-size="10.00">utility/BetterStream.h</text>
</a>
</g>
</g>
<!-- Node2&#45;&gt;Node22 -->
<g id="edge66" class="edge"><title>Node2&#45;&gt;Node22</title>
<path fill="none" stroke="midnightblue" d="M926.103,-440.479C963.525,-421.413 1052.92,-369.282 1081.37,-294 1088.5,-275.124 1072,-256.661 1057.01,-244.553"/>
<polygon fill="midnightblue" stroke="midnightblue" points="1059.09,-241.738 1048.99,-238.518 1054.88,-247.33 1059.09,-241.738"/>
</g>
<!-- Node24 -->
<g id="node24" class="node"><title>Node24</title>
<g id="a_node24"><a xlink:href="$Stream_8h.html" xlink:title="Stream.h">
<polygon fill="white" stroke="black" points="1076.08,-165.5 1076.08,-183.5 1132.65,-183.5 1132.65,-165.5 1076.08,-165.5"/>
<text text-anchor="middle" x="1104.37" y="-171.5" font-family="Helvetica,sans-Serif" font-size="10.00">Stream.h</text>
</a>
</g>
</g>
<!-- Node2&#45;&gt;Node24 -->
<g id="edge65" class="edge"><title>Node2&#45;&gt;Node24</title>
<path fill="none" stroke="midnightblue" d="M961.294,-444.554C1025.85,-438.781 1131.45,-426.227 1163.37,-404 1190.17,-385.333 1200.37,-373.164 1200.37,-340.5 1200.37,-340.5 1200.37,-340.5 1200.37,-283.5 1200.37,-254.042 1199.63,-243.113 1181.37,-220 1169.95,-205.554 1152.46,-194.91 1137.04,-187.661"/>
<polygon fill="midnightblue" stroke="midnightblue" points="1138.33,-184.408 1127.77,-183.583 1135.51,-190.815 1138.33,-184.408"/>
</g>
<!-- Node25 -->
<g id="node25" class="node"><title>Node25</title>
<g id="a_node25"><a xlink:href="$Print_8h.html" xlink:title="Print.h">
<polygon fill="white" stroke="black" points="1271.92,-110.5 1271.92,-128.5 1316.82,-128.5 1316.82,-110.5 1271.92,-110.5"/>
<text text-anchor="middle" x="1294.37" y="-116.5" font-family="Helvetica,sans-Serif" font-size="10.00">Print.h</text>
</a>
</g>
</g>
<!-- Node2&#45;&gt;Node25 -->
<g id="edge64" class="edge"><title>Node2&#45;&gt;Node25</title>
<path fill="none" stroke="midnightblue" d="M961.475,-446.245C1070.77,-441.081 1316.4,-427.038 1346.37,-404 1370.29,-385.61 1370.37,-370.671 1370.37,-340.5 1370.37,-340.5 1370.37,-340.5 1370.37,-228.5 1370.37,-189.06 1336.05,-153.858 1313.54,-135.008"/>
<polygon fill="midnightblue" stroke="midnightblue" points="1315.57,-132.15 1305.58,-128.609 1311.18,-137.604 1315.57,-132.15"/>
</g>
<!-- Node26 -->
<g id="node26" class="node"><title>Node26</title>
<g id="a_node26"><a xlink:href="$I2CDriver_8h.html" xlink:title="I2CDriver.h">
<polygon fill="white" stroke="black" points="28.3574,-165.5 28.3574,-183.5 94.3769,-183.5 94.3769,-165.5 28.3574,-165.5"/>
<text text-anchor="middle" x="61.3672" y="-171.5" font-family="Helvetica,sans-Serif" font-size="10.00">I2CDriver.h</text>
</a>
</g>
</g>
<!-- Node2&#45;&gt;Node26 -->
<g id="edge45" class="edge"><title>Node2&#45;&gt;Node26</title>
<path fill="none" stroke="midnightblue" d="M857.29,-448.702C714.038,-448.714 316.58,-444.948 193.367,-404 144.469,-387.75 96.3672,-392.027 96.3672,-340.5 96.3672,-340.5 96.3672,-340.5 96.3672,-283.5 96.3672,-250.115 81.0448,-213.628 70.6762,-192.759"/>
<polygon fill="midnightblue" stroke="midnightblue" points="73.6464,-190.883 65.9428,-183.609 67.4291,-194.1 73.6464,-190.883"/>
</g>
<!-- Node27 -->
<g id="node27" class="node"><title>Node27</title>
<g id="a_node27"><a xlink:href="$Scheduler_8h.html" xlink:title="Scheduler.h">
<polygon fill="white" stroke="black" points="201.956,-220.5 201.956,-238.5 270.778,-238.5 270.778,-220.5 201.956,-220.5"/>
<text text-anchor="middle" x="236.367" y="-226.5" font-family="Helvetica,sans-Serif" font-size="10.00">Scheduler.h</text>
</a>
</g>
</g>
<!-- Node2&#45;&gt;Node27 -->
<g id="edge54" class="edge"><title>Node2&#45;&gt;Node27</title>
<path fill="none" stroke="midnightblue" d="M857.332,-448.182C715.233,-446.847 328.243,-439.917 284.367,-404 237.232,-365.415 234.046,-285.013 235.21,-248.835"/>
<polygon fill="midnightblue" stroke="midnightblue" points="238.711,-248.907 235.691,-238.752 231.719,-248.574 238.711,-248.907"/>
</g>
<!-- Node28 -->
<g id="node28" class="node"><title>Node28</title>
<g id="a_node28"><a xlink:href="$Semaphores_8h.html" xlink:title="Semaphores.h">
<polygon fill="white" stroke="black" points="918.848,-330.5 918.848,-348.5 999.887,-348.5 999.887,-330.5 918.848,-330.5"/>
<text text-anchor="middle" x="959.367" y="-336.5" font-family="Helvetica,sans-Serif" font-size="10.00">Semaphores.h</text>
</a>
</g>
</g>
<!-- Node2&#45;&gt;Node28 -->
<g id="edge59" class="edge"><title>Node2&#45;&gt;Node28</title>
<path fill="none" stroke="midnightblue" d="M913.125,-440.382C921.197,-422.948 940.344,-381.59 951.302,-357.922"/>
<polygon fill="midnightblue" stroke="midnightblue" points="954.54,-359.257 955.565,-348.712 948.188,-356.316 954.54,-359.257"/>
</g>
<!-- Node29 -->
<g id="node29" class="node"><title>Node29</title>
<g id="a_node29"><a xlink:href="$Util_8h.html" xlink:title="Util.h">
<polygon fill="white" stroke="black" points="1265.98,-220.5 1265.98,-238.5 1304.76,-238.5 1304.76,-220.5 1265.98,-220.5"/>
<text text-anchor="middle" x="1285.37" y="-226.5" font-family="Helvetica,sans-Serif" font-size="10.00">Util.h</text>
</a>
</g>
</g>
<!-- Node2&#45;&gt;Node29 -->
<g id="edge61" class="edge"><title>Node2&#45;&gt;Node29</title>
<path fill="none" stroke="midnightblue" d="M961.472,-447.014C1038.03,-443.833 1176.01,-433.995 1214.37,-404 1264.34,-364.926 1279.37,-284.78 1283.7,-248.751"/>
<polygon fill="midnightblue" stroke="midnightblue" points="1287.19,-249.025 1284.76,-238.712 1280.23,-248.289 1287.19,-249.025"/>
</g>
<!-- Node6 -->
<g id="node6" class="node"><title>Node6</title>
<polygon fill="white" stroke="#bfbfbf" points="1047.97,-0.5 1047.97,-18.5 1096.76,-18.5 1096.76,-0.5 1047.97,-0.5"/>
<text text-anchor="middle" x="1072.37" y="-6.5" font-family="Helvetica,sans-Serif" font-size="10.00">string.h</text>
</g>
<!-- Node5&#45;&gt;Node6 -->
<g id="edge5" class="edge"><title>Node5&#45;&gt;Node6</title>
<path fill="none" stroke="midnightblue" d="M940.06,-55.4504C966.48,-46.4745 1009.4,-31.8922 1039.16,-21.7813"/>
<polygon fill="midnightblue" stroke="midnightblue" points="1040.36,-25.0692 1048.71,-18.5383 1038.11,-18.4413 1040.36,-25.0692"/>
</g>
<!-- Node7 -->
<g id="node7" class="node"><title>Node7</title>
<g id="a_node7"><a xlink:href="$functor_8h.html" xlink:title="utility/functor.h">
<polygon fill="white" stroke="black" points="876.404,-0.5 876.404,-18.5 956.33,-18.5 956.33,-0.5 876.404,-0.5"/>
<text text-anchor="middle" x="916.367" y="-6.5" font-family="Helvetica,sans-Serif" font-size="10.00">utility/functor.h</text>
</a>
</g>
</g>
<!-- Node5&#45;&gt;Node7 -->
<g id="edge6" class="edge"><title>Node5&#45;&gt;Node7</title>
<path fill="none" stroke="midnightblue" d="M916.367,-55.2188C916.367,-48.1769 916.367,-37.8083 916.367,-28.8277"/>
<polygon fill="midnightblue" stroke="midnightblue" points="919.867,-28.5495 916.367,-18.5496 912.867,-28.5496 919.867,-28.5495"/>
</g>
<!-- Node10&#45;&gt;Node11 -->
<g id="edge10" class="edge"><title>Node10&#45;&gt;Node11</title>
<path fill="none" stroke="midnightblue" d="M813.148,-385.219C809.402,-377.864 803.806,-366.88 799.098,-357.639"/>
<polygon fill="midnightblue" stroke="midnightblue" points="802.126,-355.871 794.468,-348.55 795.889,-359.049 802.126,-355.871"/>
</g>
<!-- Node11&#45;&gt;Node5 -->
<g id="edge11" class="edge"><title>Node11&#45;&gt;Node5</title>
<path fill="none" stroke="midnightblue" d="M794.138,-330.33C811.492,-292.731 883.862,-135.927 908.281,-83.0208"/>
<polygon fill="midnightblue" stroke="midnightblue" points="911.598,-84.1848 912.611,-73.6385 905.242,-81.2514 911.598,-84.1848"/>
</g>
<!-- Node11&#45;&gt;Node12 -->
<g id="edge12" class="edge"><title>Node11&#45;&gt;Node12</title>
<path fill="none" stroke="midnightblue" d="M798.886,-330.318C813.842,-316.47 846.375,-288.598 879.367,-275 968.017,-238.461 999.889,-255.843 1098.12,-239.1"/>
<polygon fill="midnightblue" stroke="midnightblue" points="1098.93,-242.511 1108.16,-237.31 1097.7,-235.619 1098.93,-242.511"/>
</g>
<!-- Node11&#45;&gt;Node14 -->
<g id="edge15" class="edge"><title>Node11&#45;&gt;Node14</title>
<path fill="none" stroke="midnightblue" d="M771.469,-330.38C756.646,-323.028 736.691,-310.776 725.367,-294 716.288,-280.549 712.991,-262.182 711.845,-248.661"/>
<polygon fill="midnightblue" stroke="midnightblue" points="715.339,-248.456 711.309,-238.658 708.349,-248.831 715.339,-248.456"/>
</g>
<!-- Node11&#45;&gt;Node15 -->
<g id="edge18" class="edge"><title>Node11&#45;&gt;Node15</title>
<path fill="none" stroke="midnightblue" d="M812.642,-333.797C854.91,-324.872 947.3,-305.363 1000.83,-294.061"/>
<polygon fill="midnightblue" stroke="midnightblue" points="1001.61,-297.473 1010.67,-291.983 1000.16,-290.624 1001.61,-297.473"/>
</g>
<!-- Node11&#45;&gt;Node16 -->
<g id="edge20" class="edge"><title>Node11&#45;&gt;Node16</title>
<path fill="none" stroke="midnightblue" d="M768.172,-332.107C737.506,-323.274 681.737,-307.21 644.367,-296.446"/>
<polygon fill="midnightblue" stroke="midnightblue" points="644.929,-292.965 634.351,-293.561 642.992,-299.692 644.929,-292.965"/>
</g>
<!-- Node11&#45;&gt;Node17 -->
<g id="edge22" class="edge"><title>Node11&#45;&gt;Node17</title>
<path fill="none" stroke="midnightblue" d="M810.263,-330.45C832,-321.656 867.039,-307.48 891.953,-297.401"/>
<polygon fill="midnightblue" stroke="midnightblue" points="893.326,-300.62 901.284,-293.625 890.701,-294.131 893.326,-300.62"/>
</g>
<!-- Node11&#45;&gt;Node18 -->
<g id="edge24" class="edge"><title>Node11&#45;&gt;Node18</title>
<path fill="none" stroke="midnightblue" d="M786.305,-330.219C782.697,-322.864 777.308,-311.88 772.775,-302.639"/>
<polygon fill="midnightblue" stroke="midnightblue" points="775.863,-300.986 768.316,-293.55 769.578,-304.069 775.863,-300.986"/>
</g>
<!-- Node11&#45;&gt;Node19 -->
<g id="edge27" class="edge"><title>Node11&#45;&gt;Node19</title>
<path fill="none" stroke="midnightblue" d="M768.328,-334.252C724.351,-325.777 624.765,-306.584 564.493,-294.968"/>
<polygon fill="midnightblue" stroke="midnightblue" points="564.927,-291.487 554.445,-293.031 563.602,-298.361 564.927,-291.487"/>
</g>
<!-- Node12&#45;&gt;Node5 -->
<g id="edge14" class="edge"><title>Node12&#45;&gt;Node5</title>
<path fill="none" stroke="midnightblue" d="M1124.94,-220.353C1109.73,-212.036 1086.11,-198.344 1067.37,-184 1029.42,-154.957 1027.31,-139.043 989.367,-110 973.994,-98.2337 955.336,-86.9057 940.732,-78.6237"/>
<polygon fill="midnightblue" stroke="midnightblue" points="942.234,-75.4545 931.795,-73.6471 938.829,-81.5702 942.234,-75.4545"/>
</g>
<!-- Node13 -->
<g id="node13" class="node"><title>Node13</title>
<polygon fill="white" stroke="#bfbfbf" points="1289.97,-55.5 1289.97,-73.5 1348.77,-73.5 1348.77,-55.5 1289.97,-55.5"/>
<text text-anchor="middle" x="1319.37" y="-61.5" font-family="Helvetica,sans-Serif" font-size="10.00">inttypes.h</text>
</g>
<!-- Node12&#45;&gt;Node13 -->
<g id="edge13" class="edge"><title>Node12&#45;&gt;Node13</title>
<path fill="none" stroke="midnightblue" d="M1145.44,-220.111C1154.14,-206.465 1173.2,-179.525 1196.37,-165 1246.8,-133.376 1289.38,-176.41 1325.37,-129 1335.18,-116.068 1331.79,-97.1186 1327.09,-83.2872"/>
<polygon fill="midnightblue" stroke="midnightblue" points="1330.33,-81.9489 1323.45,-73.8923 1323.8,-84.4812 1330.33,-81.9489"/>
</g>
<!-- Node14&#45;&gt;Node3 -->
<g id="edge16" class="edge"><title>Node14&#45;&gt;Node3</title>
<path fill="none" stroke="midnightblue" d="M696.861,-220.382C663.667,-201.808 581.948,-156.079 541.631,-133.518"/>
<polygon fill="midnightblue" stroke="midnightblue" points="543.214,-130.393 532.779,-128.564 539.796,-136.502 543.214,-130.393"/>
</g>
<!-- Node14&#45;&gt;Node5 -->
<g id="edge17" class="edge"><title>Node14&#45;&gt;Node5</title>
<path fill="none" stroke="midnightblue" d="M714.479,-220.272C722.967,-198.907 748.582,-141.17 788.367,-110 809.528,-93.4216 837.297,-82.7773 861.561,-76.0725"/>
<polygon fill="midnightblue" stroke="midnightblue" points="862.568,-79.4269 871.364,-73.5203 860.805,-72.6528 862.568,-79.4269"/>
</g>
<!-- Node15&#45;&gt;Node5 -->
<g id="edge19" class="edge"><title>Node15&#45;&gt;Node5</title>
<path fill="none" stroke="midnightblue" d="M1022.37,-275.418C1007.1,-268.018 986.163,-255.68 973.367,-239 970.899,-235.782 935.948,-126.825 922.028,-83.2493"/>
<polygon fill="midnightblue" stroke="midnightblue" points="925.35,-82.1457 918.975,-73.6836 918.681,-84.2743 925.35,-82.1457"/>
</g>
<!-- Node16&#45;&gt;Node5 -->
<g id="edge21" class="edge"><title>Node16&#45;&gt;Node5</title>
<path fill="none" stroke="midnightblue" d="M611.561,-275.152C629.346,-247.269 690.839,-156.496 765.367,-110 792.332,-93.1777 825.957,-82.4561 854.628,-75.764"/>
<polygon fill="midnightblue" stroke="midnightblue" points="855.54,-79.1467 864.543,-73.5616 854.022,-72.3133 855.54,-79.1467"/>
</g>
<!-- Node17&#45;&gt;Node5 -->
<g id="edge23" class="edge"><title>Node17&#45;&gt;Node5</title>
<path fill="none" stroke="midnightblue" d="M916.666,-275.3C911.979,-266.611 905.094,-252.333 902.367,-239 890.878,-182.83 893.663,-166.669 902.367,-110 903.769,-100.872 906.7,-91.0461 909.519,-82.9557"/>
<polygon fill="midnightblue" stroke="midnightblue" points="912.822,-84.1171 913.024,-73.5242 906.26,-81.679 912.822,-84.1171"/>
</g>
<!-- Node18&#45;&gt;Node3 -->
<g id="edge25" class="edge"><title>Node18&#45;&gt;Node3</title>
<path fill="none" stroke="midnightblue" d="M764.009,-275.496C763.021,-262.402 759.309,-236.24 745.367,-220 694.734,-161.02 602.523,-135.733 552.628,-125.957"/>
<polygon fill="midnightblue" stroke="midnightblue" points="553.125,-122.489 542.653,-124.099 551.844,-129.371 553.125,-122.489"/>
</g>
<!-- Node18&#45;&gt;Node5 -->
<g id="edge26" class="edge"><title>Node18&#45;&gt;Node5</title>
<path fill="none" stroke="midnightblue" d="M765.151,-275.151C768.107,-248.016 780.851,-161.127 826.367,-110 839.96,-94.7312 859.988,-84.1128 877.702,-77.0884"/>
<polygon fill="midnightblue" stroke="midnightblue" points="879.089,-80.3069 887.249,-73.5491 876.656,-73.7434 879.089,-80.3069"/>
</g>
<!-- Node19&#45;&gt;Node3 -->
<g id="edge28" class="edge"><title>Node19&#45;&gt;Node3</title>
<path fill="none" stroke="midnightblue" d="M518.168,-275.446C524.471,-256.287 538.741,-206.496 532.367,-165 530.965,-155.872 528.034,-146.046 525.215,-137.956"/>
<polygon fill="midnightblue" stroke="midnightblue" points="528.474,-136.679 521.711,-128.524 521.913,-139.117 528.474,-136.679"/>
</g>
<!-- Node19&#45;&gt;Node5 -->
<g id="edge33" class="edge"><title>Node19&#45;&gt;Node5</title>
<path fill="none" stroke="midnightblue" d="M522.888,-275.494C549.244,-247.929 640.962,-156.119 735.367,-110 770.298,-92.9352 812.307,-82.0867 847.057,-75.3782"/>
<polygon fill="midnightblue" stroke="midnightblue" points="847.928,-78.7764 857.122,-73.5106 846.651,-71.8938 847.928,-78.7764"/>
</g>
<!-- Node20 -->
<g id="node20" class="node"><title>Node20</title>
<g id="a_node20"><a xlink:href="$AP__Common_8h.html" xlink:title="Common definitions and utility routines for the ArduPilot libraries. ">
<polygon fill="white" stroke="black" points="306.34,-165.5 306.34,-183.5 452.394,-183.5 452.394,-165.5 306.34,-165.5"/>
<text text-anchor="middle" x="379.367" y="-171.5" font-family="Helvetica,sans-Serif" font-size="10.00">AP_Common/AP_Common.h</text>
</a>
</g>
</g>
<!-- Node19&#45;&gt;Node20 -->
<g id="edge29" class="edge"><title>Node19&#45;&gt;Node20</title>
<path fill="none" stroke="midnightblue" d="M505.145,-275.382C482.304,-257.244 426.857,-213.212 397.81,-190.145"/>
<polygon fill="midnightblue" stroke="midnightblue" points="399.716,-187.19 389.708,-183.712 395.362,-192.672 399.716,-187.19"/>
</g>
<!-- Node19&#45;&gt;Node22 -->
<g id="edge34" class="edge"><title>Node19&#45;&gt;Node22</title>
<path fill="none" stroke="midnightblue" d="M554.358,-276.321C557.402,-275.845 560.432,-275.397 563.367,-275 708.77,-255.319 880.496,-241.502 971.749,-234.903"/>
<polygon fill="midnightblue" stroke="midnightblue" points="972.211,-238.379 981.935,-234.173 971.71,-231.397 972.211,-238.379"/>
</g>
<!-- Node20&#45;&gt;Node3 -->
<g id="edge30" class="edge"><title>Node20&#45;&gt;Node3</title>
<path fill="none" stroke="midnightblue" d="M400.478,-165.45C423.644,-156.617 461.05,-142.355 487.506,-132.267"/>
<polygon fill="midnightblue" stroke="midnightblue" points="488.961,-135.458 497.057,-128.625 486.467,-128.918 488.961,-135.458"/>
</g>
<!-- Node20&#45;&gt;Node4 -->
<g id="edge32" class="edge"><title>Node20&#45;&gt;Node4</title>
<path fill="none" stroke="midnightblue" d="M372.961,-165.219C367.029,-157.551 358.046,-145.939 350.721,-136.469"/>
<polygon fill="midnightblue" stroke="midnightblue" points="353.481,-134.318 344.594,-128.55 347.945,-138.601 353.481,-134.318"/>
</g>
<!-- Node20&#45;&gt;Node21 -->
<g id="edge31" class="edge"><title>Node20&#45;&gt;Node21</title>
<path fill="none" stroke="midnightblue" d="M344.739,-165.45C301.582,-155.418 228.296,-138.383 185.412,-128.414"/>
<polygon fill="midnightblue" stroke="midnightblue" points="185.992,-124.955 175.459,-126.1 184.407,-131.774 185.992,-124.955"/>
</g>
<!-- Node22&#45;&gt;Node5 -->
<g id="edge37" class="edge"><title>Node22&#45;&gt;Node5</title>
<path fill="none" stroke="midnightblue" d="M1032.91,-220.43C1024.09,-200.385 999.241,-147.258 968.367,-110 959.009,-98.7064 946.586,-87.9578 936.229,-79.8543"/>
<polygon fill="midnightblue" stroke="midnightblue" points="938.212,-76.9657 928.128,-73.7157 933.984,-82.5448 938.212,-76.9657"/>
</g>
<!-- Node22&#45;&gt;Node20 -->
<g id="edge36" class="edge"><title>Node22&#45;&gt;Node20</title>
<path fill="none" stroke="midnightblue" d="M981.763,-224.095C866.783,-214.82 599.106,-193.226 462.616,-182.216"/>
<polygon fill="midnightblue" stroke="midnightblue" points="462.868,-178.725 452.619,-181.409 462.306,-185.702 462.868,-178.725"/>
</g>
<!-- Node22&#45;&gt;Node23 -->
<g id="edge35" class="edge"><title>Node22&#45;&gt;Node23</title>
<path fill="none" stroke="midnightblue" d="M1065.98,-220.45C1100.65,-211.027 1158.06,-195.425 1195.29,-185.304"/>
<polygon fill="midnightblue" stroke="midnightblue" points="1196.49,-188.605 1205.23,-182.605 1194.66,-181.85 1196.49,-188.605"/>
</g>
<!-- Node22&#45;&gt;Node24 -->
<g id="edge38" class="edge"><title>Node22&#45;&gt;Node24</title>
<path fill="none" stroke="midnightblue" d="M1046.69,-220.45C1057.08,-212.357 1073.31,-199.704 1085.91,-189.882"/>
<polygon fill="midnightblue" stroke="midnightblue" points="1088.21,-192.533 1093.94,-183.625 1083.9,-187.012 1088.21,-192.533"/>
</g>
<!-- Node24&#45;&gt;Node5 -->
<g id="edge39" class="edge"><title>Node24&#45;&gt;Node5</title>
<path fill="none" stroke="midnightblue" d="M1100.4,-165.176C1093.54,-151.624 1078.13,-124.816 1057.37,-110 1033.74,-93.1457 1003.48,-82.499 977.059,-75.8642"/>
<polygon fill="midnightblue" stroke="midnightblue" points="977.679,-72.4141 967.141,-73.5132 976.064,-79.2254 977.679,-72.4141"/>
</g>
<!-- Node24&#45;&gt;Node25 -->
<g id="edge40" class="edge"><title>Node24&#45;&gt;Node25</title>
<path fill="none" stroke="midnightblue" d="M1132.81,-165.565C1167.3,-155.946 1225.3,-139.767 1261.61,-129.636"/>
<polygon fill="midnightblue" stroke="midnightblue" points="1263,-132.883 1271.69,-126.825 1261.12,-126.141 1263,-132.883"/>
</g>
<!-- Node25&#45;&gt;Node5 -->
<g id="edge41" class="edge"><title>Node25&#45;&gt;Node5</title>
<path fill="none" stroke="midnightblue" d="M1271.59,-112.75C1267.22,-111.752 1262.66,-110.784 1258.37,-110 1165.17,-92.9813 1056.54,-80.0012 987.148,-72.5684"/>
<polygon fill="midnightblue" stroke="midnightblue" points="987.515,-69.0878 977.202,-71.5122 986.776,-76.0486 987.515,-69.0878"/>
</g>
<!-- Node25&#45;&gt;Node6 -->
<g id="edge43" class="edge"><title>Node25&#45;&gt;Node6</title>
<path fill="none" stroke="midnightblue" d="M1277.68,-110.382C1239.18,-91.6509 1143.91,-45.3051 1097.96,-22.9517"/>
<polygon fill="midnightblue" stroke="midnightblue" points="1099.47,-19.7918 1088.94,-18.5644 1096.41,-26.0865 1099.47,-19.7918"/>
</g>
<!-- Node25&#45;&gt;Node13 -->
<g id="edge42" class="edge"><title>Node25&#45;&gt;Node13</title>
<path fill="none" stroke="midnightblue" d="M1298.27,-110.219C1301.74,-102.864 1306.92,-91.8801 1311.28,-82.639"/>
<polygon fill="midnightblue" stroke="midnightblue" points="1314.47,-84.0871 1315.57,-73.5496 1308.14,-81.1007 1314.47,-84.0871"/>
</g>
<!-- Node26&#45;&gt;Node3 -->
<g id="edge46" class="edge"><title>Node26&#45;&gt;Node3</title>
<path fill="none" stroke="midnightblue" d="M94.7877,-166.445C97.6834,-165.922 100.573,-165.432 103.367,-165 243.685,-143.326 412.326,-128.761 483.73,-123.12"/>
<polygon fill="midnightblue" stroke="midnightblue" points="484.244,-126.59 493.941,-122.322 483.698,-119.612 484.244,-126.59"/>
</g>
<!-- Node26&#45;&gt;Node5 -->
<g id="edge47" class="edge"><title>Node26&#45;&gt;Node5</title>
<path fill="none" stroke="midnightblue" d="M65.7196,-165.443C73.8849,-151.259 92.9916,-122.18 118.367,-110 182.9,-79.0262 661.874,-69.0729 845.24,-66.3771"/>
<polygon fill="midnightblue" stroke="midnightblue" points="845.369,-69.8757 855.318,-66.2319 845.268,-62.8764 845.369,-69.8757"/>
</g>
<!-- Node27&#45;&gt;Node3 -->
<g id="edge55" class="edge"><title>Node27&#45;&gt;Node3</title>
<path fill="none" stroke="midnightblue" d="M271.102,-228.318C317.423,-226.647 400.627,-218.558 461.367,-184 481.225,-172.702 497.843,-151.972 507.918,-137.274"/>
<polygon fill="midnightblue" stroke="midnightblue" points="511.017,-138.93 513.562,-128.646 505.159,-135.098 511.017,-138.93"/>
</g>
<!-- Node27&#45;&gt;Node5 -->
<g id="edge58" class="edge"><title>Node27&#45;&gt;Node5</title>
<path fill="none" stroke="midnightblue" d="M237.845,-220.471C242.465,-198.015 258.941,-134.598 301.367,-110 347.424,-83.2968 693.26,-71.2234 845.167,-67.1674"/>
<polygon fill="midnightblue" stroke="midnightblue" points="845.421,-70.662 855.325,-66.9004 845.237,-63.6644 845.421,-70.662"/>
</g>
<!-- Node27&#45;&gt;Node8 -->
<g id="edge57" class="edge"><title>Node27&#45;&gt;Node8</title>
<path fill="none" stroke="midnightblue" d="M225.128,-220.45C213.719,-212.279 195.821,-199.46 182.053,-189.6"/>
<polygon fill="midnightblue" stroke="midnightblue" points="183.88,-186.603 173.712,-183.625 179.804,-192.294 183.88,-186.603"/>
</g>
<!-- Node27&#45;&gt;Node20 -->
<g id="edge56" class="edge"><title>Node27&#45;&gt;Node20</title>
<path fill="none" stroke="midnightblue" d="M258.086,-220.45C282.024,-211.578 320.74,-197.229 347.977,-187.134"/>
<polygon fill="midnightblue" stroke="midnightblue" points="349.284,-190.383 357.444,-183.625 346.851,-183.819 349.284,-190.383"/>
</g>
<!-- Node28&#45;&gt;Node5 -->
<g id="edge60" class="edge"><title>Node28&#45;&gt;Node5</title>
<path fill="none" stroke="midnightblue" d="M960.799,-330.258C962.699,-318.126 965.573,-294.76 963.367,-275 955.988,-208.885 944.862,-193.927 930.367,-129 926.943,-113.661 923.103,-96.2258 920.311,-83.5106"/>
<polygon fill="midnightblue" stroke="midnightblue" points="923.726,-82.7414 918.166,-73.723 916.888,-84.2406 923.726,-82.7414"/>
</g>
<!-- Node29&#45;&gt;Node5 -->
<g id="edge63" class="edge"><title>Node29&#45;&gt;Node5</title>
<path fill="none" stroke="midnightblue" d="M1285.28,-220.245C1284.68,-206.791 1281.51,-180.121 1266.37,-165 1192.02,-90.7878 1066.59,-71.004 987.804,-66.252"/>
<polygon fill="midnightblue" stroke="midnightblue" points="987.656,-62.7392 977.483,-65.6993 987.282,-69.7292 987.656,-62.7392"/>
</g>
<!-- Node29&#45;&gt;Node23 -->
<g id="edge62" class="edge"><title>Node29&#45;&gt;Node23</title>
<path fill="none" stroke="midnightblue" d="M1276.93,-220.219C1268.88,-212.316 1256.56,-200.224 1246.76,-190.606"/>
<polygon fill="midnightblue" stroke="midnightblue" points="1249.16,-188.056 1239.57,-183.55 1244.25,-193.052 1249.16,-188.056"/>
</g>
<!-- Node36&#45;&gt;Node2 -->
<g id="edge77" class="edge"><title>Node36&#45;&gt;Node2</title>
<path fill="none" stroke="midnightblue" d="M1258.95,-498.75C1194.16,-489.808 1053.26,-470.36 971.5,-459.076"/>
<polygon fill="midnightblue" stroke="midnightblue" points="971.729,-455.574 961.345,-457.674 970.772,-462.508 971.729,-455.574"/>
</g>
<!-- Node37 -->
<g id="node37" class="node"><title>Node37</title>
<g id="a_node37"><a xlink:href="$AP__HAL__PX4__Namespace_8h.html" xlink:title="AP_HAL_PX4_Namespace.h">
<polygon fill="white" stroke="black" points="1240.33,-440.5 1240.33,-458.5 1386.41,-458.5 1386.41,-440.5 1240.33,-440.5"/>
<text text-anchor="middle" x="1313.37" y="-446.5" font-family="Helvetica,sans-Serif" font-size="10.00">AP_HAL_PX4_Namespace.h</text>
</a>
</g>
</g>
<!-- Node36&#45;&gt;Node37 -->
<g id="edge78" class="edge"><title>Node36&#45;&gt;Node37</title>
<path fill="none" stroke="midnightblue" d="M1296.49,-495.219C1299.24,-487.942 1303.32,-477.113 1306.79,-467.934"/>
<polygon fill="midnightblue" stroke="midnightblue" points="1310.07,-469.141 1310.33,-458.55 1303.52,-466.67 1310.07,-469.141"/>
</g>
<!-- Node38 -->
<g id="node38" class="node"><title>Node38</title>
<polygon fill="white" stroke="#bfbfbf" points="1404.86,-440.5 1404.86,-458.5 1465.87,-458.5 1465.87,-440.5 1404.86,-440.5"/>
<text text-anchor="middle" x="1435.37" y="-446.5" font-family="Helvetica,sans-Serif" font-size="10.00">sys/time.h</text>
</g>
<!-- Node36&#45;&gt;Node38 -->
<g id="edge79" class="edge"><title>Node36&#45;&gt;Node38</title>
<path fill="none" stroke="midnightblue" d="M1314.93,-495.45C1338.7,-486.578 1377.15,-472.229 1404.2,-462.134"/>
<polygon fill="midnightblue" stroke="midnightblue" points="1405.45,-465.401 1413.6,-458.625 1403,-458.843 1405.45,-465.401"/>
</g>
<!-- Node39 -->
<g id="node39" class="node"><title>Node39</title>
<polygon fill="white" stroke="#bfbfbf" points="1484.13,-440.5 1484.13,-458.5 1534.6,-458.5 1534.6,-440.5 1484.13,-440.5"/>
<text text-anchor="middle" x="1509.37" y="-446.5" font-family="Helvetica,sans-Serif" font-size="10.00">signal.h</text>
</g>
<!-- Node36&#45;&gt;Node39 -->
<g id="edge80" class="edge"><title>Node36&#45;&gt;Node39</title>
<path fill="none" stroke="midnightblue" d="M1326.59,-495.431C1361.09,-487.041 1416.89,-473.435 1474.17,-459.287"/>
<polygon fill="midnightblue" stroke="midnightblue" points="1475.25,-462.625 1484.12,-456.827 1473.57,-455.829 1475.25,-462.625"/>
</g>
<!-- Node40 -->
<g id="node40" class="node"><title>Node40</title>
<polygon fill="white" stroke="#bfbfbf" points="1552.24,-440.5 1552.24,-458.5 1610.5,-458.5 1610.5,-440.5 1552.24,-440.5"/>
<text text-anchor="middle" x="1581.37" y="-446.5" font-family="Helvetica,sans-Serif" font-size="10.00">pthread.h</text>
</g>
<!-- Node36&#45;&gt;Node40 -->
<g id="edge81" class="edge"><title>Node36&#45;&gt;Node40</title>
<path fill="none" stroke="midnightblue" d="M1328.09,-496.566C1330.89,-496.028 1333.67,-495.5 1336.37,-495 1425.04,-478.528 1450.08,-477.267 1541.93,-459.21"/>
<polygon fill="midnightblue" stroke="midnightblue" points="1542.81,-462.605 1551.94,-457.229 1541.45,-455.738 1542.81,-462.605"/>
</g>
<!-- Node41 -->
<g id="node41" class="node"><title>Node41</title>
<polygon fill="white" stroke="#bfbfbf" points="1628.17,-440.5 1628.17,-458.5 1752.56,-458.5 1752.56,-440.5 1628.17,-440.5"/>
<text text-anchor="middle" x="1690.37" y="-446.5" font-family="Helvetica,sans-Serif" font-size="10.00">systemlib/perf_counter.h</text>
</g>
<!-- Node36&#45;&gt;Node41 -->
<g id="edge82" class="edge"><title>Node36&#45;&gt;Node41</title>
<path fill="none" stroke="midnightblue" d="M1328.06,-496.425C1330.87,-495.919 1333.66,-495.437 1336.37,-495 1363.43,-490.629 1522.38,-471.019 1617.85,-459.34"/>
<polygon fill="midnightblue" stroke="midnightblue" points="1618.52,-462.784 1628.02,-458.096 1617.67,-455.835 1618.52,-462.784"/>
</g>
<!-- Node42&#45;&gt;Node2 -->
<g id="edge84" class="edge"><title>Node42&#45;&gt;Node2</title>
<path fill="none" stroke="midnightblue" d="M1145.7,-499.429C1105.94,-491.197 1014.95,-472.359 958.18,-460.606"/>
<polygon fill="midnightblue" stroke="midnightblue" points="958.846,-457.169 948.344,-458.569 957.427,-464.024 958.846,-457.169"/>
</g>
<!-- Node42&#45;&gt;Node37 -->
<g id="edge85" class="edge"><title>Node42&#45;&gt;Node37</title>
<path fill="none" stroke="midnightblue" d="M1185.02,-496.462C1209.5,-487.696 1251.66,-472.599 1280.95,-462.11"/>
<polygon fill="midnightblue" stroke="midnightblue" points="1282.49,-465.277 1290.72,-458.61 1280.13,-458.686 1282.49,-465.277"/>
</g>
</g>
</svg>
