<?xml version="1.0" encoding="UTF-8" standalone="no"?>
<!DOCTYPE svg PUBLIC "-//W3C//DTD SVG 1.1//EN"
 "http://www.w3.org/Graphics/SVG/1.1/DTD/svg11.dtd">
<!-- Generated by graphviz version 2.38.0 (20140413.2041)
 -->
<!-- Title: Polygon_complete Pages: 1 -->
<svg width="399pt" height="74pt"
 viewBox="0.00 0.00 399.27 74.00" xmlns="http://www.w3.org/2000/svg" xmlns:xlink="http://www.w3.org/1999/xlink">
<g id="graph0" class="graph" transform="scale(1 1) rotate(0) translate(4 70)">
<title>Polygon_complete</title>
<polygon fill="white" stroke="none" points="-4,4 -4,-70 395.27,-70 395.27,4 -4,4"/>
<!-- Node1 -->
<g id="node1" class="node"><title>Node1</title>
<polygon fill="#bfbfbf" stroke="black" points="0,-21.5 0,-39.5 98.2754,-39.5 98.2754,-21.5 0,-21.5"/>
<text text-anchor="middle" x="49.1377" y="-27.5" font-family="Helvetica,sans-Serif" font-size="10.00">Polygon_complete</text>
</g>
<!-- Node2 -->
<g id="node2" class="node"><title>Node2</title>
<g id="a_node2"><a xlink:href="$classAP__Limit__Geofence.html#af512ccd37cd0a072ad04d3f89275f2c6" xlink:title="AP_Limit_Geofence::\lboundary_correct">
<polygon fill="white" stroke="black" points="134.275,-37.5 134.275,-65.5 244.772,-65.5 244.772,-37.5 134.275,-37.5"/>
<text text-anchor="start" x="142.275" y="-53.5" font-family="Helvetica,sans-Serif" font-size="10.00">AP_Limit_Geofence::</text>
<text text-anchor="middle" x="189.524" y="-43.5" font-family="Helvetica,sans-Serif" font-size="10.00">boundary_correct</text>
</a>
</g>
</g>
<!-- Node1&#45;&gt;Node2 -->
<g id="edge1" class="edge"><title>Node1&#45;&gt;Node2</title>
<path fill="none" stroke="midnightblue" d="M108.441,-39.3475C116.993,-40.6452 125.773,-41.9775 134.24,-43.2624"/>
<polygon fill="midnightblue" stroke="midnightblue" points="108.95,-35.8848 98.5385,-37.8448 107.9,-42.8056 108.95,-35.8848"/>
</g>
<!-- Node4 -->
<g id="node4" class="node"><title>Node4</title>
<g id="a_node4"><a xlink:href="$examples_2polygon_2polygon_8cpp.html#a7dfd9b79bc5a37d7df40207afbc5431f" xlink:title="setup">
<polygon fill="white" stroke="black" points="169.292,-0.5 169.292,-18.5 209.755,-18.5 209.755,-0.5 169.292,-0.5"/>
<text text-anchor="middle" x="189.524" y="-6.5" font-family="Helvetica,sans-Serif" font-size="10.00">setup</text>
</a>
</g>
</g>
<!-- Node1&#45;&gt;Node4 -->
<g id="edge3" class="edge"><title>Node1&#45;&gt;Node4</title>
<path fill="none" stroke="midnightblue" d="M108.69,-21.6148C130.355,-18.3271 153.446,-14.8231 169.191,-12.4338"/>
<polygon fill="midnightblue" stroke="midnightblue" points="107.9,-18.1944 98.5385,-23.1552 108.95,-25.1152 107.9,-18.1944"/>
</g>
<!-- Node3 -->
<g id="node3" class="node"><title>Node3</title>
<g id="a_node3"><a xlink:href="$classAP__Limit__Geofence.html#afb1a696f2769594a81383413f8931016" xlink:title="AP_Limit_Geofence::\ltriggered">
<polygon fill="white" stroke="black" points="280.772,-37.5 280.772,-65.5 391.27,-65.5 391.27,-37.5 280.772,-37.5"/>
<text text-anchor="start" x="288.772" y="-53.5" font-family="Helvetica,sans-Serif" font-size="10.00">AP_Limit_Geofence::</text>
<text text-anchor="middle" x="336.021" y="-43.5" font-family="Helvetica,sans-Serif" font-size="10.00">triggered</text>
</a>
</g>
</g>
<!-- Node2&#45;&gt;Node3 -->
<g id="edge2" class="edge"><title>Node2&#45;&gt;Node3</title>
<path fill="none" stroke="midnightblue" d="M255.261,-51.5C263.628,-51.5 272.132,-51.5 280.316,-51.5"/>
<polygon fill="midnightblue" stroke="midnightblue" points="255.152,-48.0001 245.152,-51.5 255.152,-55.0001 255.152,-48.0001"/>
</g>
</g>
</svg>
