<?xml version="1.0" encoding="UTF-8" standalone="no"?>
<!DOCTYPE svg PUBLIC "-//W3C//DTD SVG 1.1//EN"
 "http://www.w3.org/Graphics/SVG/1.1/DTD/svg11.dtd">
<!-- Generated by graphviz version 2.38.0 (20140413.2041)
 -->
<!-- Title: Polygon_outside Pages: 1 -->
<svg width="391pt" height="113pt"
 viewBox="0.00 0.00 390.94 113.00" xmlns="http://www.w3.org/2000/svg" xmlns:xlink="http://www.w3.org/1999/xlink">
<g id="graph0" class="graph" transform="scale(1 1) rotate(0) translate(4 109)">
<title>Polygon_outside</title>
<polygon fill="white" stroke="none" points="-4,4 -4,-109 386.939,-109 386.939,4 -4,4"/>
<!-- Node1 -->
<g id="node1" class="node"><title>Node1</title>
<polygon fill="#bfbfbf" stroke="black" points="0,-38.5 0,-56.5 89.9453,-56.5 89.9453,-38.5 0,-38.5"/>
<text text-anchor="middle" x="44.9727" y="-44.5" font-family="Helvetica,sans-Serif" font-size="10.00">Polygon_outside</text>
</g>
<!-- Node2 -->
<g id="node2" class="node"><title>Node2</title>
<g id="a_node2"><a xlink:href="$classAP__Limit__Geofence.html#af512ccd37cd0a072ad04d3f89275f2c6" xlink:title="AP_Limit_Geofence::\lboundary_correct">
<polygon fill="white" stroke="black" points="125.945,-76.5 125.945,-104.5 236.442,-104.5 236.442,-76.5 125.945,-76.5"/>
<text text-anchor="start" x="133.945" y="-92.5" font-family="Helvetica,sans-Serif" font-size="10.00">AP_Limit_Geofence::</text>
<text text-anchor="middle" x="181.194" y="-82.5" font-family="Helvetica,sans-Serif" font-size="10.00">boundary_correct</text>
</a>
</g>
</g>
<!-- Node1&#45;&gt;Node2 -->
<g id="edge1" class="edge"><title>Node1&#45;&gt;Node2</title>
<path fill="none" stroke="midnightblue" d="M83.8458,-59.6333C100.15,-64.8565 119.315,-70.9964 136.24,-76.4188"/>
<polygon fill="midnightblue" stroke="midnightblue" points="84.7009,-56.2321 74.1098,-56.5142 82.5652,-62.8983 84.7009,-56.2321"/>
</g>
<!-- Node3 -->
<g id="node3" class="node"><title>Node3</title>
<g id="a_node3"><a xlink:href="$classAP__Limit__Geofence.html#afb1a696f2769594a81383413f8931016" xlink:title="AP_Limit_Geofence::\ltriggered">
<polygon fill="white" stroke="black" points="272.442,-54.5 272.442,-82.5 382.939,-82.5 382.939,-54.5 272.442,-54.5"/>
<text text-anchor="start" x="280.442" y="-70.5" font-family="Helvetica,sans-Serif" font-size="10.00">AP_Limit_Geofence::</text>
<text text-anchor="middle" x="327.691" y="-60.5" font-family="Helvetica,sans-Serif" font-size="10.00">triggered</text>
</a>
</g>
</g>
<!-- Node1&#45;&gt;Node3 -->
<g id="edge4" class="edge"><title>Node1&#45;&gt;Node3</title>
<path fill="none" stroke="midnightblue" d="M100.359,-51.5685C149.966,-55.2795 222.877,-60.7339 272.441,-64.4417"/>
<polygon fill="midnightblue" stroke="midnightblue" points="100.377,-48.0602 90.1437,-50.8044 99.8547,-55.0407 100.377,-48.0602"/>
</g>
<!-- Node4 -->
<g id="node4" class="node"><title>Node4</title>
<g id="a_node4"><a xlink:href="$examples_2polygon_2polygon_8cpp.html#a7dfd9b79bc5a37d7df40207afbc5431f" xlink:title="setup">
<polygon fill="white" stroke="black" points="160.962,-0.5 160.962,-18.5 201.425,-18.5 201.425,-0.5 160.962,-0.5"/>
<text text-anchor="middle" x="181.194" y="-6.5" font-family="Helvetica,sans-Serif" font-size="10.00">setup</text>
</a>
</g>
</g>
<!-- Node1&#45;&gt;Node4 -->
<g id="edge3" class="edge"><title>Node1&#45;&gt;Node4</title>
<path fill="none" stroke="midnightblue" d="M87.5155,-35.7386C111.896,-28.8361 141.57,-20.435 160.663,-15.0293"/>
<polygon fill="midnightblue" stroke="midnightblue" points="86.4496,-32.4027 77.7812,-38.4945 88.3565,-39.138 86.4496,-32.4027"/>
</g>
<!-- Node2&#45;&gt;Node3 -->
<g id="edge2" class="edge"><title>Node2&#45;&gt;Node3</title>
<path fill="none" stroke="midnightblue" d="M246.931,-80.6437C255.298,-79.3697 263.802,-78.075 271.986,-76.829"/>
<polygon fill="midnightblue" stroke="midnightblue" points="246.181,-77.2174 236.822,-82.1827 247.235,-84.1376 246.181,-77.2174"/>
</g>
</g>
</svg>
