<?xml version="1.0" encoding="UTF-8" standalone="no"?>
<!DOCTYPE svg PUBLIC "-//W3C//DTD SVG 1.1//EN"
 "http://www.w3.org/Graphics/SVG/1.1/DTD/svg11.dtd">
<!-- Generated by graphviz version 2.38.0 (20140413.2041)
 -->
<!-- Title: print_vprintf Pages: 1 -->
<svg width="219pt" height="175pt"
 viewBox="0.00 0.00 219.39 175.00" xmlns="http://www.w3.org/2000/svg" xmlns:xlink="http://www.w3.org/1999/xlink">
<g id="graph0" class="graph" transform="scale(1 1) rotate(0) translate(4 171)">
<title>print_vprintf</title>
<polygon fill="white" stroke="none" points="-4,4 -4,-171 215.389,-171 215.389,4 -4,4"/>
<!-- Node1 -->
<g id="node1" class="node"><title>Node1</title>
<polygon fill="#bfbfbf" stroke="black" points="0,-74.5 0,-92.5 68.2461,-92.5 68.2461,-74.5 0,-74.5"/>
<text text-anchor="middle" x="34.123" y="-80.5" font-family="Helvetica,sans-Serif" font-size="10.00">print_vprintf</text>
</g>
<!-- Node2 -->
<g id="node2" class="node"><title>Node2</title>
<g id="a_node2"><a xlink:href="$classAP__HAL_1_1Print.html#acc65391952a43334f8f5c9bef341f501" xlink:title="AP_HAL::Print::write">
<polygon fill="white" stroke="black" points="104.246,-148.5 104.246,-166.5 211.389,-166.5 211.389,-148.5 104.246,-148.5"/>
<text text-anchor="middle" x="157.817" y="-154.5" font-family="Helvetica,sans-Serif" font-size="10.00">AP_HAL::Print::write</text>
</a>
</g>
</g>
<!-- Node1&#45;&gt;Node2 -->
<g id="edge1" class="edge"><title>Node1&#45;&gt;Node2</title>
<path fill="none" stroke="midnightblue" d="M44.187,-92.6327C56.7095,-104.806 80.4619,-126.34 104.246,-139.5 107.708,-141.416 111.411,-143.18 115.187,-144.791"/>
<polygon fill="midnightblue" stroke="midnightblue" points="114.045,-148.103 124.633,-148.483 116.593,-141.583 114.045,-148.103"/>
</g>
<!-- Node3 -->
<g id="node3" class="node"><title>Node3</title>
<g id="a_node3"><a xlink:href="$ftoa__engine_8cpp.html#a1c28234da8f20b43c85890d4bb452947" xlink:title="ftoa_engine">
<polygon fill="white" stroke="black" points="123.682,-111.5 123.682,-129.5 191.953,-129.5 191.953,-111.5 123.682,-111.5"/>
<text text-anchor="middle" x="157.817" y="-117.5" font-family="Helvetica,sans-Serif" font-size="10.00">ftoa_engine</text>
</a>
</g>
</g>
<!-- Node1&#45;&gt;Node3 -->
<g id="edge2" class="edge"><title>Node1&#45;&gt;Node3</title>
<path fill="none" stroke="midnightblue" d="M64.8928,-92.5512C80.657,-97.3442 100.225,-103.294 117.251,-108.47"/>
<polygon fill="midnightblue" stroke="midnightblue" points="116.347,-111.854 126.933,-111.414 118.384,-105.156 116.347,-111.854"/>
</g>
<!-- Node4 -->
<g id="node4" class="node"><title>Node4</title>
<g id="a_node4"><a xlink:href="$AP__Progmem_8h.html#a1514e0408e036062b4af844baaf567da" xlink:title="pgm_read_byte">
<polygon fill="white" stroke="black" points="115.071,-74.5 115.071,-92.5 200.563,-92.5 200.563,-74.5 115.071,-74.5"/>
<text text-anchor="middle" x="157.817" y="-80.5" font-family="Helvetica,sans-Serif" font-size="10.00">pgm_read_byte</text>
</a>
</g>
</g>
<!-- Node1&#45;&gt;Node4 -->
<g id="edge3" class="edge"><title>Node1&#45;&gt;Node4</title>
<path fill="none" stroke="midnightblue" d="M68.3766,-83.5C79.5924,-83.5 92.3952,-83.5 104.71,-83.5"/>
<polygon fill="midnightblue" stroke="midnightblue" points="104.895,-87.0001 114.895,-83.5 104.894,-80.0001 104.895,-87.0001"/>
</g>
<!-- Node5 -->
<g id="node5" class="node"><title>Node5</title>
<g id="a_node5"><a xlink:href="$utoa__invert_8cpp.html#a34926f552460b47c414ec4d83b32815c" xlink:title="ulltoa_invert">
<polygon fill="white" stroke="black" points="122.857,-37.5 122.857,-55.5 192.778,-55.5 192.778,-37.5 122.857,-37.5"/>
<text text-anchor="middle" x="157.817" y="-43.5" font-family="Helvetica,sans-Serif" font-size="10.00">ulltoa_invert</text>
</a>
</g>
</g>
<!-- Node1&#45;&gt;Node5 -->
<g id="edge4" class="edge"><title>Node1&#45;&gt;Node5</title>
<path fill="none" stroke="midnightblue" d="M64.8928,-74.4488C80.657,-69.6558 100.225,-63.7062 117.251,-58.5298"/>
<polygon fill="midnightblue" stroke="midnightblue" points="118.384,-61.8437 126.933,-55.586 116.347,-55.1464 118.384,-61.8437"/>
</g>
<!-- Node6 -->
<g id="node6" class="node"><title>Node6</title>
<g id="a_node6"><a xlink:href="$utoa__invert_8cpp.html#a5d99bba8e697c1e11da489d88fca8559" xlink:title="ultoa_invert">
<polygon fill="white" stroke="black" points="123.968,-0.5 123.968,-18.5 191.667,-18.5 191.667,-0.5 123.968,-0.5"/>
<text text-anchor="middle" x="157.817" y="-6.5" font-family="Helvetica,sans-Serif" font-size="10.00">ultoa_invert</text>
</a>
</g>
</g>
<!-- Node1&#45;&gt;Node6 -->
<g id="edge5" class="edge"><title>Node1&#45;&gt;Node6</title>
<path fill="none" stroke="midnightblue" d="M44.6854,-74.1918C57.3891,-62.2457 80.9503,-41.514 104.246,-28.5 108.263,-26.2563 112.594,-24.192 116.987,-22.3176"/>
<polygon fill="midnightblue" stroke="midnightblue" points="118.585,-25.4496 126.601,-18.5217 116.014,-18.9387 118.585,-25.4496"/>
</g>
</g>
</svg>
