<?xml version="1.0" encoding="UTF-8" standalone="no"?>
<!DOCTYPE svg PUBLIC "-//W3C//DTD SVG 1.1//EN"
 "http://www.w3.org/Graphics/SVG/1.1/DTD/svg11.dtd">
<!-- Generated by graphviz version 2.38.0 (20140413.2041)
 -->
<!-- Title: loop Pages: 1 -->
<svg width="770pt" height="175pt"
 viewBox="0.00 0.00 770.50 175.00" xmlns="http://www.w3.org/2000/svg" xmlns:xlink="http://www.w3.org/1999/xlink">
<g id="graph0" class="graph" transform="scale(1 1) rotate(0) translate(4 171)">
<title>loop</title>
<polygon fill="white" stroke="none" points="-4,4 -4,-171 766.499,-171 766.499,4 -4,4"/>
<!-- Node1 -->
<g id="node1" class="node"><title>Node1</title>
<polygon fill="#bfbfbf" stroke="black" points="0,-35.5 0,-53.5 34.9062,-53.5 34.9062,-35.5 0,-35.5"/>
<text text-anchor="middle" x="17.4531" y="-41.5" font-family="Helvetica,sans-Serif" font-size="10.00">loop</text>
</g>
<!-- Node2 -->
<g id="node2" class="node"><title>Node2</title>
<g id="a_node2"><a xlink:href="$Printf_8cpp.html#a9960aa1a2c609afd87baf4ba2eab0fc8" xlink:title="test_printf">
<polygon fill="white" stroke="black" points="96.1992,-56.5 96.1992,-74.5 156.11,-74.5 156.11,-56.5 96.1992,-56.5"/>
<text text-anchor="middle" x="126.155" y="-62.5" font-family="Helvetica,sans-Serif" font-size="10.00">test_printf</text>
</a>
</g>
</g>
<!-- Node1&#45;&gt;Node2 -->
<g id="edge1" class="edge"><title>Node1&#45;&gt;Node2</title>
<path fill="none" stroke="midnightblue" d="M35.1253,-47.7812C48.7464,-50.462 68.5499,-54.3596 86.1175,-57.8171"/>
<polygon fill="midnightblue" stroke="midnightblue" points="85.6513,-61.2924 96.139,-59.7894 87.0031,-54.4241 85.6513,-61.2924"/>
</g>
<!-- Node14 -->
<g id="node14" class="node"><title>Node14</title>
<g id="a_node14"><a xlink:href="$classAP__HAL_1_1Scheduler.html#ab3175e2e6223ccfe82f957e41cc12b26" xlink:title="AP_HAL::Scheduler::\ldelay">
<polygon fill="white" stroke="black" points="70.9062,-9.5 70.9062,-37.5 181.403,-37.5 181.403,-9.5 70.9062,-9.5"/>
<text text-anchor="start" x="78.9062" y="-25.5" font-family="Helvetica,sans-Serif" font-size="10.00">AP_HAL::Scheduler::</text>
<text text-anchor="middle" x="126.155" y="-15.5" font-family="Helvetica,sans-Serif" font-size="10.00">delay</text>
</a>
</g>
</g>
<!-- Node1&#45;&gt;Node14 -->
<g id="edge14" class="edge"><title>Node1&#45;&gt;Node14</title>
<path fill="none" stroke="midnightblue" d="M35.1253,-41.2188C42.3466,-39.7975 51.3055,-38.0343 60.7478,-36.176"/>
<polygon fill="midnightblue" stroke="midnightblue" points="61.574,-39.5806 70.7099,-34.2153 60.2222,-32.7123 61.574,-39.5806"/>
</g>
<!-- Node3 -->
<g id="node3" class="node"><title>Node3</title>
<g id="a_node3"><a xlink:href="$classAP__HAL_1_1UARTDriver.html#a65c7824b8877f7a2f79365c8ffae8f56" xlink:title="AP_HAL::UARTDriver\l::printf">
<polygon fill="white" stroke="black" points="217.403,-72.5 217.403,-100.5 331.025,-100.5 331.025,-72.5 217.403,-72.5"/>
<text text-anchor="start" x="225.403" y="-88.5" font-family="Helvetica,sans-Serif" font-size="10.00">AP_HAL::UARTDriver</text>
<text text-anchor="middle" x="274.214" y="-78.5" font-family="Helvetica,sans-Serif" font-size="10.00">::printf</text>
</a>
</g>
</g>
<!-- Node2&#45;&gt;Node3 -->
<g id="edge2" class="edge"><title>Node2&#45;&gt;Node3</title>
<path fill="none" stroke="midnightblue" d="M156.361,-69.6992C170.906,-71.7904 189.131,-74.4107 206.83,-76.9555"/>
<polygon fill="midnightblue" stroke="midnightblue" points="206.763,-80.4817 217.159,-78.4406 207.759,-73.553 206.763,-80.4817"/>
</g>
<!-- Node11 -->
<g id="node11" class="node"><title>Node11</title>
<g id="a_node11"><a xlink:href="$classAP__HAL_1_1Util.html#adead79890b223f40eaf092fda231c2f2" xlink:title="AP_HAL::Util::snprintf">
<polygon fill="white" stroke="black" points="217.862,-35.5 217.862,-53.5 330.566,-53.5 330.566,-35.5 217.862,-35.5"/>
<text text-anchor="middle" x="274.214" y="-41.5" font-family="Helvetica,sans-Serif" font-size="10.00">AP_HAL::Util::snprintf</text>
</a>
</g>
</g>
<!-- Node2&#45;&gt;Node11 -->
<g id="edge10" class="edge"><title>Node2&#45;&gt;Node11</title>
<path fill="none" stroke="midnightblue" d="M156.361,-61.3008C171.182,-59.1699 189.825,-56.4895 207.839,-53.8995"/>
<polygon fill="midnightblue" stroke="midnightblue" points="208.354,-57.3615 217.754,-52.4739 207.358,-50.4328 208.354,-57.3615"/>
</g>
<!-- Node4 -->
<g id="node4" class="node"><title>Node4</title>
<g id="a_node4"><a xlink:href="$classAP__HAL_1_1UARTDriver.html#aa8abfb6d6641299472c29ac1edde559f" xlink:title="AP_HAL::UARTDriver\l::vprintf">
<polygon fill="white" stroke="black" points="369.066,-72.5 369.066,-100.5 482.688,-100.5 482.688,-72.5 369.066,-72.5"/>
<text text-anchor="start" x="377.066" y="-88.5" font-family="Helvetica,sans-Serif" font-size="10.00">AP_HAL::UARTDriver</text>
<text text-anchor="middle" x="425.877" y="-78.5" font-family="Helvetica,sans-Serif" font-size="10.00">::vprintf</text>
</a>
</g>
</g>
<!-- Node3&#45;&gt;Node4 -->
<g id="edge3" class="edge"><title>Node3&#45;&gt;Node4</title>
<path fill="none" stroke="midnightblue" d="M331.369,-86.5C340.288,-86.5 349.586,-86.5 358.709,-86.5"/>
<polygon fill="midnightblue" stroke="midnightblue" points="358.906,-90.0001 368.906,-86.5 358.906,-83.0001 358.906,-90.0001"/>
</g>
<!-- Node5 -->
<g id="node5" class="node"><title>Node5</title>
<g id="a_node5"><a xlink:href="$print__vprintf_8cpp.html#a473b9349f4b086b552a21eb8fe057016" xlink:title="print_vprintf">
<polygon fill="white" stroke="black" points="535.92,-74.5 535.92,-92.5 604.166,-92.5 604.166,-74.5 535.92,-74.5"/>
<text text-anchor="middle" x="570.043" y="-80.5" font-family="Helvetica,sans-Serif" font-size="10.00">print_vprintf</text>
</a>
</g>
</g>
<!-- Node4&#45;&gt;Node5 -->
<g id="edge4" class="edge"><title>Node4&#45;&gt;Node5</title>
<path fill="none" stroke="midnightblue" d="M483.065,-85.3143C497.151,-85.0171 512.053,-84.7026 525.424,-84.4205"/>
<polygon fill="midnightblue" stroke="midnightblue" points="525.849,-87.9124 535.773,-84.2021 525.702,-80.9139 525.849,-87.9124"/>
</g>
<!-- Node6 -->
<g id="node6" class="node"><title>Node6</title>
<g id="a_node6"><a xlink:href="$classAP__HAL_1_1Print.html#acc65391952a43334f8f5c9bef341f501" xlink:title="AP_HAL::Print::write">
<polygon fill="white" stroke="black" points="655.356,-148.5 655.356,-166.5 762.499,-166.5 762.499,-148.5 655.356,-148.5"/>
<text text-anchor="middle" x="708.928" y="-154.5" font-family="Helvetica,sans-Serif" font-size="10.00">AP_HAL::Print::write</text>
</a>
</g>
</g>
<!-- Node5&#45;&gt;Node6 -->
<g id="edge5" class="edge"><title>Node5&#45;&gt;Node6</title>
<path fill="none" stroke="midnightblue" d="M582.74,-92.6868C598.503,-104.725 627.775,-125.901 655.356,-139.5 659.201,-141.396 663.296,-143.176 667.437,-144.823"/>
<polygon fill="midnightblue" stroke="midnightblue" points="666.496,-148.208 677.089,-148.418 668.939,-141.648 666.496,-148.208"/>
</g>
<!-- Node7 -->
<g id="node7" class="node"><title>Node7</title>
<g id="a_node7"><a xlink:href="$ftoa__engine_8cpp.html#a1c28234da8f20b43c85890d4bb452947" xlink:title="ftoa_engine">
<polygon fill="white" stroke="black" points="674.792,-111.5 674.792,-129.5 743.063,-129.5 743.063,-111.5 674.792,-111.5"/>
<text text-anchor="middle" x="708.928" y="-117.5" font-family="Helvetica,sans-Serif" font-size="10.00">ftoa_engine</text>
</a>
</g>
</g>
<!-- Node5&#45;&gt;Node7 -->
<g id="edge6" class="edge"><title>Node5&#45;&gt;Node7</title>
<path fill="none" stroke="midnightblue" d="M604.179,-92.4567C622.371,-97.3741 645.146,-103.53 664.72,-108.821"/>
<polygon fill="midnightblue" stroke="midnightblue" points="664.056,-112.267 674.622,-111.498 665.882,-105.509 664.056,-112.267"/>
</g>
<!-- Node8 -->
<g id="node8" class="node"><title>Node8</title>
<g id="a_node8"><a xlink:href="$AP__Progmem_8h.html#a1514e0408e036062b4af844baaf567da" xlink:title="pgm_read_byte">
<polygon fill="white" stroke="black" points="666.182,-74.5 666.182,-92.5 751.674,-92.5 751.674,-74.5 666.182,-74.5"/>
<text text-anchor="middle" x="708.928" y="-80.5" font-family="Helvetica,sans-Serif" font-size="10.00">pgm_read_byte</text>
</a>
</g>
</g>
<!-- Node5&#45;&gt;Node8 -->
<g id="edge7" class="edge"><title>Node5&#45;&gt;Node8</title>
<path fill="none" stroke="midnightblue" d="M604.179,-83.5C619.722,-83.5 638.612,-83.5 655.991,-83.5"/>
<polygon fill="midnightblue" stroke="midnightblue" points="656.012,-87.0001 666.012,-83.5 656.012,-80.0001 656.012,-87.0001"/>
</g>
<!-- Node9 -->
<g id="node9" class="node"><title>Node9</title>
<g id="a_node9"><a xlink:href="$utoa__invert_8cpp.html#a34926f552460b47c414ec4d83b32815c" xlink:title="ulltoa_invert">
<polygon fill="white" stroke="black" points="673.967,-37.5 673.967,-55.5 743.888,-55.5 743.888,-37.5 673.967,-37.5"/>
<text text-anchor="middle" x="708.928" y="-43.5" font-family="Helvetica,sans-Serif" font-size="10.00">ulltoa_invert</text>
</a>
</g>
</g>
<!-- Node5&#45;&gt;Node9 -->
<g id="edge8" class="edge"><title>Node5&#45;&gt;Node9</title>
<path fill="none" stroke="midnightblue" d="M604.179,-74.5433C622.371,-69.6259 645.146,-63.4698 664.72,-58.1791"/>
<polygon fill="midnightblue" stroke="midnightblue" points="665.882,-61.4906 674.622,-55.5024 664.056,-54.7331 665.882,-61.4906"/>
</g>
<!-- Node10 -->
<g id="node10" class="node"><title>Node10</title>
<g id="a_node10"><a xlink:href="$utoa__invert_8cpp.html#a5d99bba8e697c1e11da489d88fca8559" xlink:title="ultoa_invert">
<polygon fill="white" stroke="black" points="675.078,-0.5 675.078,-18.5 742.777,-18.5 742.777,-0.5 675.078,-0.5"/>
<text text-anchor="middle" x="708.928" y="-6.5" font-family="Helvetica,sans-Serif" font-size="10.00">ultoa_invert</text>
</a>
</g>
</g>
<!-- Node5&#45;&gt;Node10 -->
<g id="edge9" class="edge"><title>Node5&#45;&gt;Node10</title>
<path fill="none" stroke="midnightblue" d="M598.074,-74.492C605.282,-71.5168 612.865,-67.8367 619.356,-63.5 638.172,-50.9309 636.157,-39.4741 655.356,-27.5 658.531,-25.5202 661.95,-23.7271 665.467,-22.1097"/>
<polygon fill="midnightblue" stroke="midnightblue" points="666.985,-25.2699 674.903,-18.2307 664.324,-18.7955 666.985,-25.2699"/>
</g>
<!-- Node12 -->
<g id="node12" class="node"><title>Node12</title>
<g id="a_node12"><a xlink:href="$classAP__HAL_1_1Util.html#ac57ef0a9815cd597ad5cab5d6c31c6c8" xlink:title="AP_HAL::Util::vsnprintf">
<polygon fill="white" stroke="black" points="367.025,-35.5 367.025,-53.5 484.729,-53.5 484.729,-35.5 367.025,-35.5"/>
<text text-anchor="middle" x="425.877" y="-41.5" font-family="Helvetica,sans-Serif" font-size="10.00">AP_HAL::Util::vsnprintf</text>
</a>
</g>
</g>
<!-- Node11&#45;&gt;Node12 -->
<g id="edge11" class="edge"><title>Node11&#45;&gt;Node12</title>
<path fill="none" stroke="midnightblue" d="M330.943,-44.5C339.366,-44.5 348.134,-44.5 356.782,-44.5"/>
<polygon fill="midnightblue" stroke="midnightblue" points="356.85,-48.0001 366.85,-44.5 356.85,-41.0001 356.85,-48.0001"/>
</g>
<!-- Node12&#45;&gt;Node5 -->
<g id="edge12" class="edge"><title>Node12&#45;&gt;Node5</title>
<path fill="none" stroke="midnightblue" d="M459.85,-53.5454C479.536,-58.9457 504.758,-65.8648 526.001,-71.6923"/>
<polygon fill="midnightblue" stroke="midnightblue" points="525.187,-75.0982 535.756,-74.3685 527.039,-68.3476 525.187,-75.0982"/>
</g>
<!-- Node13 -->
<g id="node13" class="node"><title>Node13</title>
<g id="a_node13"><a xlink:href="$classBufferPrinter.html#a0b98d7f59a6591097d2011d68359b8a0" xlink:title="BufferPrinter::write">
<polygon fill="white" stroke="black" points="520.729,-35.5 520.729,-53.5 619.356,-53.5 619.356,-35.5 520.729,-35.5"/>
<text text-anchor="middle" x="570.043" y="-41.5" font-family="Helvetica,sans-Serif" font-size="10.00">BufferPrinter::write</text>
</a>
</g>
</g>
<!-- Node12&#45;&gt;Node13 -->
<g id="edge13" class="edge"><title>Node12&#45;&gt;Node13</title>
<path fill="none" stroke="midnightblue" d="M485.112,-44.5C493.507,-44.5 502.15,-44.5 510.55,-44.5"/>
<polygon fill="midnightblue" stroke="midnightblue" points="510.644,-48.0001 520.644,-44.5 510.644,-41.0001 510.644,-48.0001"/>
</g>
</g>
</svg>
