<?xml version="1.0" encoding="UTF-8" standalone="no"?>
<!DOCTYPE svg PUBLIC "-//W3C//DTD SVG 1.1//EN"
 "http://www.w3.org/Graphics/SVG/1.1/DTD/svg11.dtd">
<!-- Generated by graphviz version 2.38.0 (20140413.2041)
 -->
<!-- Title: libraries/AP_HAL/utility/print_vprintf.h Pages: 1 -->
<svg width="457pt" height="102pt"
 viewBox="0.00 0.00 457.35 102.00" xmlns="http://www.w3.org/2000/svg" xmlns:xlink="http://www.w3.org/1999/xlink">
<g id="graph0" class="graph" transform="scale(1 1) rotate(0) translate(4 98)">
<title>libraries/AP_HAL/utility/print_vprintf.h</title>
<polygon fill="white" stroke="none" points="-4,4 -4,-98 453.345,-98 453.345,4 -4,4"/>
<!-- Node1 -->
<g id="node1" class="node"><title>Node1</title>
<polygon fill="#bfbfbf" stroke="black" points="190.641,-65.5 190.641,-93.5 308.345,-93.5 308.345,-65.5 190.641,-65.5"/>
<text text-anchor="start" x="198.641" y="-81.5" font-family="Helvetica,sans-Serif" font-size="10.00">libraries/AP_HAL/utility</text>
<text text-anchor="middle" x="249.493" y="-71.5" font-family="Helvetica,sans-Serif" font-size="10.00">/print_vprintf.h</text>
</g>
<!-- Node2 -->
<g id="node2" class="node"><title>Node2</title>
<g id="a_node2"><a xlink:href="$UARTDriver_8cpp.html" xlink:title="libraries/AP_HAL/UARTDriver.cpp">
<polygon fill="white" stroke="black" points="0,-5.5 0,-23.5 166.986,-23.5 166.986,-5.5 0,-5.5"/>
<text text-anchor="middle" x="83.4932" y="-11.5" font-family="Helvetica,sans-Serif" font-size="10.00">libraries/AP_HAL/UARTDriver.cpp</text>
</a>
</g>
</g>
<!-- Node1&#45;&gt;Node2 -->
<g id="edge1" class="edge"><title>Node1&#45;&gt;Node2</title>
<path fill="none" stroke="midnightblue" d="M205.357,-61.7496C172.806,-49.3956 129.953,-33.1324 104.699,-23.548"/>
<polygon fill="midnightblue" stroke="midnightblue" points="204.507,-65.1703 215.098,-65.4464 206.99,-58.6258 204.507,-65.1703"/>
</g>
<!-- Node3 -->
<g id="node3" class="node"><title>Node3</title>
<g id="a_node3"><a xlink:href="$Util_8cpp.html" xlink:title="libraries/AP_HAL/Util.cpp">
<polygon fill="white" stroke="black" points="185.36,-5.5 185.36,-23.5 313.626,-23.5 313.626,-5.5 185.36,-5.5"/>
<text text-anchor="middle" x="249.493" y="-11.5" font-family="Helvetica,sans-Serif" font-size="10.00">libraries/AP_HAL/Util.cpp</text>
</a>
</g>
</g>
<!-- Node1&#45;&gt;Node3 -->
<g id="edge2" class="edge"><title>Node1&#45;&gt;Node3</title>
<path fill="none" stroke="midnightblue" d="M249.493,-55.1286C249.493,-44.1182 249.493,-31.6856 249.493,-23.7301"/>
<polygon fill="midnightblue" stroke="midnightblue" points="245.993,-55.4463 249.493,-65.4464 252.993,-55.4464 245.993,-55.4463"/>
</g>
<!-- Node4 -->
<g id="node4" class="node"><title>Node4</title>
<g id="a_node4"><a xlink:href="$print__vprintf_8cpp.html" xlink:title="libraries/AP_HAL/utility\l/print_vprintf.cpp">
<polygon fill="white" stroke="black" points="331.641,-0.5 331.641,-28.5 449.345,-28.5 449.345,-0.5 331.641,-0.5"/>
<text text-anchor="start" x="339.641" y="-16.5" font-family="Helvetica,sans-Serif" font-size="10.00">libraries/AP_HAL/utility</text>
<text text-anchor="middle" x="390.493" y="-6.5" font-family="Helvetica,sans-Serif" font-size="10.00">/print_vprintf.cpp</text>
</a>
</g>
</g>
<!-- Node1&#45;&gt;Node4 -->
<g id="edge3" class="edge"><title>Node1&#45;&gt;Node4</title>
<path fill="none" stroke="midnightblue" d="M287.905,-61.3374C311.048,-50.9968 340.056,-38.0359 361.315,-28.5369"/>
<polygon fill="midnightblue" stroke="midnightblue" points="286.411,-58.1714 278.708,-65.4464 289.266,-64.5624 286.411,-58.1714"/>
</g>
</g>
</svg>
