<?xml version="1.0" encoding="UTF-8" standalone="no"?>
<!DOCTYPE svg PUBLIC "-//W3C//DTD SVG 1.1//EN"
 "http://www.w3.org/Graphics/SVG/1.1/DTD/svg11.dtd">
<!-- Generated by graphviz version 2.38.0 (20140413.2041)
 -->
<!-- Title: libraries/AP_HAL/utility/print_vprintf.cpp Pages: 1 -->
<svg width="1819pt" height="587pt"
 viewBox="0.00 0.00 1818.98 587.00" xmlns="http://www.w3.org/2000/svg" xmlns:xlink="http://www.w3.org/1999/xlink">
<g id="graph0" class="graph" transform="scale(1 1) rotate(0) translate(4 583)">
<title>libraries/AP_HAL/utility/print_vprintf.cpp</title>
<polygon fill="white" stroke="none" points="-4,4 -4,-583 1814.98,-583 1814.98,4 -4,4"/>
<!-- Node1 -->
<g id="node1" class="node"><title>Node1</title>
<polygon fill="#bfbfbf" stroke="black" points="1529.67,-550.5 1529.67,-578.5 1647.37,-578.5 1647.37,-550.5 1529.67,-550.5"/>
<text text-anchor="start" x="1537.67" y="-566.5" font-family="Helvetica,sans-Serif" font-size="10.00">libraries/AP_HAL/utility</text>
<text text-anchor="middle" x="1588.52" y="-556.5" font-family="Helvetica,sans-Serif" font-size="10.00">/print_vprintf.cpp</text>
</g>
<!-- Node2 -->
<g id="node2" class="node"><title>Node2</title>
<g id="a_node2"><a xlink:href="$print__vprintf_8h.html" xlink:title="print_vprintf.h">
<polygon fill="white" stroke="black" points="1465.23,-495.5 1465.23,-513.5 1541.81,-513.5 1541.81,-495.5 1465.23,-495.5"/>
<text text-anchor="middle" x="1503.52" y="-501.5" font-family="Helvetica,sans-Serif" font-size="10.00">print_vprintf.h</text>
</a>
</g>
</g>
<!-- Node1&#45;&gt;Node2 -->
<g id="edge1" class="edge"><title>Node1&#45;&gt;Node2</title>
<path fill="none" stroke="midnightblue" d="M1569.23,-550.339C1555.73,-541.127 1537.72,-528.839 1523.97,-519.456"/>
<polygon fill="midnightblue" stroke="midnightblue" points="1525.87,-516.517 1515.64,-513.771 1521.93,-522.299 1525.87,-516.517"/>
</g>
<!-- Node3 -->
<g id="node3" class="node"><title>Node3</title>
<g id="a_node3"><a xlink:href="$AP__HAL_8h.html" xlink:title="AP_HAL/AP_HAL.h">
<polygon fill="white" stroke="black" points="717.606,-440.5 717.606,-458.5 821.433,-458.5 821.433,-440.5 717.606,-440.5"/>
<text text-anchor="middle" x="769.52" y="-446.5" font-family="Helvetica,sans-Serif" font-size="10.00">AP_HAL/AP_HAL.h</text>
</a>
</g>
</g>
<!-- Node1&#45;&gt;Node3 -->
<g id="edge73" class="edge"><title>Node1&#45;&gt;Node3</title>
<path fill="none" stroke="midnightblue" d="M1529.62,-555.373C1379.75,-534.695 984.975,-480.227 831.651,-459.072"/>
<polygon fill="midnightblue" stroke="midnightblue" points="831.855,-455.568 821.47,-457.668 830.898,-462.502 831.855,-455.568"/>
</g>
<!-- Node7 -->
<g id="node7" class="node"><title>Node7</title>
<polygon fill="white" stroke="#bfbfbf" points="1325.12,-0.5 1325.12,-18.5 1373.92,-18.5 1373.92,-0.5 1325.12,-0.5"/>
<text text-anchor="middle" x="1349.52" y="-6.5" font-family="Helvetica,sans-Serif" font-size="10.00">string.h</text>
</g>
<!-- Node1&#45;&gt;Node7 -->
<g id="edge71" class="edge"><title>Node1&#45;&gt;Node7</title>
<path fill="none" stroke="midnightblue" d="M1602.3,-550.307C1621.38,-530.554 1653.52,-491.238 1653.52,-450.5 1653.52,-450.5 1653.52,-450.5 1653.52,-118.5 1653.52,-61.8821 1463.92,-27.3327 1384.19,-15.307"/>
<polygon fill="midnightblue" stroke="midnightblue" points="1384.54,-11.8217 1374.14,-13.8234 1383.52,-18.7466 1384.54,-11.8217"/>
</g>
<!-- Node24 -->
<g id="node24" class="node"><title>Node24</title>
<polygon fill="white" stroke="#bfbfbf" points="1573.45,-165.5 1573.45,-183.5 1625.59,-183.5 1625.59,-165.5 1573.45,-165.5"/>
<text text-anchor="middle" x="1599.52" y="-171.5" font-family="Helvetica,sans-Serif" font-size="10.00">stdarg.h</text>
</g>
<!-- Node1&#45;&gt;Node24 -->
<g id="edge70" class="edge"><title>Node1&#45;&gt;Node24</title>
<path fill="none" stroke="midnightblue" d="M1592.18,-550.399C1597.7,-529.466 1607.52,-487.104 1607.52,-450.5 1607.52,-450.5 1607.52,-450.5 1607.52,-283.5 1607.52,-251.785 1604.05,-214.974 1601.68,-193.553"/>
<polygon fill="midnightblue" stroke="midnightblue" points="1605.15,-193.148 1600.53,-183.614 1598.2,-193.948 1605.15,-193.148"/>
</g>
<!-- Node31 -->
<g id="node31" class="node"><title>Node31</title>
<polygon fill="white" stroke="#bfbfbf" points="1681.23,-495.5 1681.23,-513.5 1727.81,-513.5 1727.81,-495.5 1681.23,-495.5"/>
<text text-anchor="middle" x="1704.52" y="-501.5" font-family="Helvetica,sans-Serif" font-size="10.00">math.h</text>
</g>
<!-- Node1&#45;&gt;Node31 -->
<g id="edge72" class="edge"><title>Node1&#45;&gt;Node31</title>
<path fill="none" stroke="midnightblue" d="M1614.55,-550.484C1633.87,-540.826 1660.06,-527.73 1679.2,-518.159"/>
<polygon fill="midnightblue" stroke="midnightblue" points="1680.85,-521.246 1688.23,-513.643 1677.72,-514.985 1680.85,-521.246"/>
</g>
<!-- Node32 -->
<g id="node32" class="node"><title>Node32</title>
<g id="a_node32"><a xlink:href="$AP__Progmem_8h.html" xlink:title="AP_Progmem/AP_Progmem.h">
<polygon fill="white" stroke="black" points="1365.71,-165.5 1365.71,-183.5 1517.32,-183.5 1517.32,-165.5 1365.71,-165.5"/>
<text text-anchor="middle" x="1441.52" y="-171.5" font-family="Helvetica,sans-Serif" font-size="10.00">AP_Progmem/AP_Progmem.h</text>
</a>
</g>
</g>
<!-- Node1&#45;&gt;Node32 -->
<g id="edge74" class="edge"><title>Node1&#45;&gt;Node32</title>
<path fill="none" stroke="midnightblue" d="M1583.46,-550.144C1561.37,-491.827 1473.34,-259.484 1448.23,-193.223"/>
<polygon fill="midnightblue" stroke="midnightblue" points="1451.46,-191.871 1444.65,-183.759 1444.92,-194.351 1451.46,-191.871"/>
</g>
<!-- Node33 -->
<g id="node33" class="node"><title>Node33</title>
<g id="a_node33"><a xlink:href="$ftoa__engine_8h.html" xlink:title="ftoa_engine.h">
<polygon fill="white" stroke="black" points="731.214,-495.5 731.214,-513.5 807.825,-513.5 807.825,-495.5 731.214,-495.5"/>
<text text-anchor="middle" x="769.52" y="-501.5" font-family="Helvetica,sans-Serif" font-size="10.00">ftoa_engine.h</text>
</a>
</g>
</g>
<!-- Node1&#45;&gt;Node33 -->
<g id="edge77" class="edge"><title>Node1&#45;&gt;Node33</title>
<path fill="none" stroke="midnightblue" d="M1529.62,-559.329C1375.22,-548.394 960.879,-519.052 818.42,-508.963"/>
<polygon fill="midnightblue" stroke="midnightblue" points="818.466,-505.458 808.244,-508.242 817.971,-512.44 818.466,-505.458"/>
</g>
<!-- Node34 -->
<g id="node34" class="node"><title>Node34</title>
<g id="a_node34"><a xlink:href="$xtoa__fast_8h.html" xlink:title="xtoa_fast.h">
<polygon fill="white" stroke="black" points="1746.06,-495.5 1746.06,-513.5 1810.98,-513.5 1810.98,-495.5 1746.06,-495.5"/>
<text text-anchor="middle" x="1778.52" y="-501.5" font-family="Helvetica,sans-Serif" font-size="10.00">xtoa_fast.h</text>
</a>
</g>
</g>
<!-- Node1&#45;&gt;Node34 -->
<g id="edge80" class="edge"><title>Node1&#45;&gt;Node34</title>
<path fill="none" stroke="midnightblue" d="M1631.16,-550.484C1664.63,-540.267 1710.7,-526.202 1742.38,-516.533"/>
<polygon fill="midnightblue" stroke="midnightblue" points="1743.58,-519.826 1752.12,-513.559 1741.53,-513.131 1743.58,-519.826"/>
</g>
<!-- Node2&#45;&gt;Node3 -->
<g id="edge2" class="edge"><title>Node2&#45;&gt;Node3</title>
<path fill="none" stroke="midnightblue" d="M1465.09,-500.725C1345.47,-492.088 979,-465.626 831.741,-454.993"/>
<polygon fill="midnightblue" stroke="midnightblue" points="831.749,-451.484 821.523,-454.255 831.245,-458.466 831.749,-451.484"/>
</g>
<!-- Node2&#45;&gt;Node24 -->
<g id="edge69" class="edge"><title>Node2&#45;&gt;Node24</title>
<path fill="none" stroke="midnightblue" d="M1505.89,-495.392C1518.37,-452.764 1576.47,-254.242 1594.3,-193.323"/>
<polygon fill="midnightblue" stroke="midnightblue" points="1597.69,-194.199 1597.14,-183.618 1590.98,-192.232 1597.69,-194.199"/>
</g>
<!-- Node4 -->
<g id="node4" class="node"><title>Node4</title>
<polygon fill="white" stroke="#bfbfbf" points="581.399,-110.5 581.399,-128.5 629.64,-128.5 629.64,-110.5 581.399,-110.5"/>
<text text-anchor="middle" x="605.52" y="-116.5" font-family="Helvetica,sans-Serif" font-size="10.00">stdint.h</text>
</g>
<!-- Node3&#45;&gt;Node4 -->
<g id="edge3" class="edge"><title>Node3&#45;&gt;Node4</title>
<path fill="none" stroke="midnightblue" d="M761.315,-440.375C731.452,-410.068 628.973,-299.414 603.52,-184 600.246,-169.156 601.076,-151.892 602.541,-139.115"/>
<polygon fill="midnightblue" stroke="midnightblue" points="606.059,-139.226 603.965,-128.841 599.125,-138.265 606.059,-139.226"/>
</g>
<!-- Node5 -->
<g id="node5" class="node"><title>Node5</title>
<polygon fill="white" stroke="#bfbfbf" points="507.227,-110.5 507.227,-128.5 563.812,-128.5 563.812,-110.5 507.227,-110.5"/>
<text text-anchor="middle" x="535.52" y="-116.5" font-family="Helvetica,sans-Serif" font-size="10.00">stdbool.h</text>
</g>
<!-- Node3&#45;&gt;Node5 -->
<g id="edge4" class="edge"><title>Node3&#45;&gt;Node5</title>
<path fill="none" stroke="midnightblue" d="M717.413,-446.851C636.614,-443.407 485.786,-433.168 441.52,-404 387.742,-368.566 350.355,-334.281 375.52,-275 403.617,-208.809 475.499,-157.164 512.599,-133.926"/>
<polygon fill="midnightblue" stroke="midnightblue" points="514.533,-136.846 521.234,-128.639 510.878,-130.876 514.533,-136.846"/>
</g>
<!-- Node6 -->
<g id="node6" class="node"><title>Node6</title>
<g id="a_node6"><a xlink:href="$AP__HAL__Namespace_8h.html" xlink:title="AP_HAL_Namespace.h">
<polygon fill="white" stroke="black" points="810.712,-55.5 810.712,-73.5 932.327,-73.5 932.327,-55.5 810.712,-55.5"/>
<text text-anchor="middle" x="871.52" y="-61.5" font-family="Helvetica,sans-Serif" font-size="10.00">AP_HAL_Namespace.h</text>
</a>
</g>
</g>
<!-- Node3&#45;&gt;Node6 -->
<g id="edge5" class="edge"><title>Node3&#45;&gt;Node6</title>
<path fill="none" stroke="midnightblue" d="M717.348,-446.802C630.992,-443.208 462.768,-432.657 411.52,-404 296.473,-339.669 277.577,-201.434 372.52,-110 402.674,-80.9595 669.727,-70.4302 800.282,-66.9943"/>
<polygon fill="midnightblue" stroke="midnightblue" points="800.674,-70.4855 810.581,-66.7306 800.495,-63.4878 800.674,-70.4855"/>
</g>
<!-- Node9 -->
<g id="node9" class="node"><title>Node9</title>
<g id="a_node9"><a xlink:href="$AP__HAL__Boards_8h.html" xlink:title="AP_HAL_Boards.h">
<polygon fill="white" stroke="black" points="899.549,-165.5 899.549,-183.5 999.49,-183.5 999.49,-165.5 899.549,-165.5"/>
<text text-anchor="middle" x="949.52" y="-171.5" font-family="Helvetica,sans-Serif" font-size="10.00">AP_HAL_Boards.h</text>
</a>
</g>
</g>
<!-- Node3&#45;&gt;Node9 -->
<g id="edge8" class="edge"><title>Node3&#45;&gt;Node9</title>
<path fill="none" stroke="midnightblue" d="M821.644,-443.676C850.784,-438.363 885.717,-427.242 908.52,-404 929.15,-382.972 927.52,-369.958 927.52,-340.5 927.52,-340.5 927.52,-340.5 927.52,-283.5 927.52,-251.074 937.16,-214.253 943.677,-193.064"/>
<polygon fill="midnightblue" stroke="midnightblue" points="947.019,-194.106 946.733,-183.515 940.352,-191.972 947.019,-194.106"/>
</g>
<!-- Node10 -->
<g id="node10" class="node"><title>Node10</title>
<g id="a_node10"><a xlink:href="$AP__HAL__Macros_8h.html" xlink:title="AP_HAL_Macros.h">
<polygon fill="white" stroke="black" points="798,-385.5 798,-403.5 899.039,-403.5 899.039,-385.5 798,-385.5"/>
<text text-anchor="middle" x="848.52" y="-391.5" font-family="Helvetica,sans-Serif" font-size="10.00">AP_HAL_Macros.h</text>
</a>
</g>
</g>
<!-- Node3&#45;&gt;Node10 -->
<g id="edge9" class="edge"><title>Node3&#45;&gt;Node10</title>
<path fill="none" stroke="midnightblue" d="M781.518,-440.45C793.814,-432.201 813.17,-419.216 827.922,-409.319"/>
<polygon fill="midnightblue" stroke="midnightblue" points="830.054,-412.103 836.408,-403.625 826.154,-406.29 830.054,-412.103"/>
</g>
<!-- Node11 -->
<g id="node11" class="node"><title>Node11</title>
<g id="a_node11"><a xlink:href="$AP__HAL__Main_8h.html" xlink:title="AP_HAL_Main.h">
<polygon fill="white" stroke="black" points="479.554,-385.5 479.554,-403.5 569.485,-403.5 569.485,-385.5 479.554,-385.5"/>
<text text-anchor="middle" x="524.52" y="-391.5" font-family="Helvetica,sans-Serif" font-size="10.00">AP_HAL_Main.h</text>
</a>
</g>
</g>
<!-- Node3&#45;&gt;Node11 -->
<g id="edge10" class="edge"><title>Node3&#45;&gt;Node11</title>
<path fill="none" stroke="midnightblue" d="M732.309,-440.45C689.284,-431.143 618.39,-415.807 571.574,-405.679"/>
<polygon fill="midnightblue" stroke="midnightblue" points="572.192,-402.232 561.678,-403.538 570.712,-409.074 572.192,-402.232"/>
</g>
<!-- Node12 -->
<g id="node12" class="node"><title>Node12</title>
<g id="a_node12"><a xlink:href="$HAL_8h.html" xlink:title="HAL.h">
<polygon fill="white" stroke="black" points="469.623,-330.5 469.623,-348.5 513.416,-348.5 513.416,-330.5 469.623,-330.5"/>
<text text-anchor="middle" x="491.52" y="-336.5" font-family="Helvetica,sans-Serif" font-size="10.00">HAL.h</text>
</a>
</g>
</g>
<!-- Node3&#45;&gt;Node12 -->
<g id="edge68" class="edge"><title>Node3&#45;&gt;Node12</title>
<path fill="none" stroke="midnightblue" d="M717.464,-448.571C640.432,-447.442 501.791,-440.27 470.52,-404 459.075,-390.726 468.426,-371.031 478.029,-357.1"/>
<polygon fill="midnightblue" stroke="midnightblue" points="480.973,-359.008 484.16,-348.904 475.367,-354.815 480.973,-359.008"/>
</g>
<!-- Node13 -->
<g id="node13" class="node"><title>Node13</title>
<g id="a_node13"><a xlink:href="$AnalogIn_8h.html" xlink:title="AnalogIn.h">
<polygon fill="white" stroke="black" points="1169.61,-220.5 1169.61,-238.5 1233.43,-238.5 1233.43,-220.5 1169.61,-220.5"/>
<text text-anchor="middle" x="1201.52" y="-226.5" font-family="Helvetica,sans-Serif" font-size="10.00">AnalogIn.h</text>
</a>
</g>
</g>
<!-- Node3&#45;&gt;Node13 -->
<g id="edge50" class="edge"><title>Node3&#45;&gt;Node13</title>
<path fill="none" stroke="midnightblue" d="M821.655,-448.51C875.727,-446.519 961.327,-437.632 1026.52,-404 1101.91,-365.108 1165.5,-282.379 1190.34,-247.051"/>
<polygon fill="midnightblue" stroke="midnightblue" points="1193.25,-248.998 1196.05,-238.781 1187.49,-245.02 1193.25,-248.998"/>
</g>
<!-- Node15 -->
<g id="node15" class="node"><title>Node15</title>
<g id="a_node15"><a xlink:href="$GPIO_8h.html" xlink:title="GPIO.h">
<polygon fill="white" stroke="black" points="477.847,-220.5 477.847,-238.5 527.192,-238.5 527.192,-220.5 477.847,-220.5"/>
<text text-anchor="middle" x="502.52" y="-226.5" font-family="Helvetica,sans-Serif" font-size="10.00">GPIO.h</text>
</a>
</g>
</g>
<!-- Node3&#45;&gt;Node15 -->
<g id="edge52" class="edge"><title>Node3&#45;&gt;Node15</title>
<path fill="none" stroke="midnightblue" d="M717.374,-441.653C687.121,-435.641 649.578,-424.494 621.52,-404 564.049,-362.023 525.126,-283.438 509.809,-248.287"/>
<polygon fill="midnightblue" stroke="midnightblue" points="512.94,-246.706 505.819,-238.861 506.494,-249.434 512.94,-246.706"/>
</g>
<!-- Node16 -->
<g id="node16" class="node"><title>Node16</title>
<g id="a_node16"><a xlink:href="$RCInput_8h.html" xlink:title="RCInput.h">
<polygon fill="white" stroke="black" points="994.007,-275.5 994.007,-293.5 1055.03,-293.5 1055.03,-275.5 994.007,-275.5"/>
<text text-anchor="middle" x="1024.52" y="-281.5" font-family="Helvetica,sans-Serif" font-size="10.00">RCInput.h</text>
</a>
</g>
</g>
<!-- Node3&#45;&gt;Node16 -->
<g id="edge53" class="edge"><title>Node3&#45;&gt;Node16</title>
<path fill="none" stroke="midnightblue" d="M821.903,-443.152C876.168,-436.63 956.241,-423.942 979.52,-404 1009.65,-378.184 1019.66,-329.945 1022.95,-303.679"/>
<polygon fill="midnightblue" stroke="midnightblue" points="1026.44,-303.916 1024.01,-293.605 1019.48,-303.184 1026.44,-303.916"/>
</g>
<!-- Node17 -->
<g id="node17" class="node"><title>Node17</title>
<g id="a_node17"><a xlink:href="$RCOutput_8h.html" xlink:title="RCOutput.h">
<polygon fill="white" stroke="black" points="137.118,-275.5 137.118,-293.5 205.921,-293.5 205.921,-275.5 137.118,-275.5"/>
<text text-anchor="middle" x="171.52" y="-281.5" font-family="Helvetica,sans-Serif" font-size="10.00">RCOutput.h</text>
</a>
</g>
</g>
<!-- Node3&#45;&gt;Node17 -->
<g id="edge54" class="edge"><title>Node3&#45;&gt;Node17</title>
<path fill="none" stroke="midnightblue" d="M717.306,-448.289C608.17,-447.113 359.789,-440.389 284.52,-404 237.108,-381.079 199.142,-329.279 181.778,-302.398"/>
<polygon fill="midnightblue" stroke="midnightblue" points="184.613,-300.332 176.333,-293.721 178.684,-304.052 184.613,-300.332"/>
</g>
<!-- Node18 -->
<g id="node18" class="node"><title>Node18</title>
<g id="a_node18"><a xlink:href="$SPIDriver_8h.html" xlink:title="SPIDriver.h">
<polygon fill="white" stroke="black" points="224.231,-275.5 224.231,-293.5 290.808,-293.5 290.808,-275.5 224.231,-275.5"/>
<text text-anchor="middle" x="257.52" y="-281.5" font-family="Helvetica,sans-Serif" font-size="10.00">SPIDriver.h</text>
</a>
</g>
</g>
<!-- Node3&#45;&gt;Node18 -->
<g id="edge49" class="edge"><title>Node3&#45;&gt;Node18</title>
<path fill="none" stroke="midnightblue" d="M717.585,-446.557C603.181,-441.85 336.98,-428.386 304.52,-404 272.459,-379.914 262.237,-330.562 259.001,-303.774"/>
<polygon fill="midnightblue" stroke="midnightblue" points="262.453,-303.121 257.975,-293.52 255.488,-303.818 262.453,-303.121"/>
</g>
<!-- Node19 -->
<g id="node19" class="node"><title>Node19</title>
<g id="a_node19"><a xlink:href="$Storage_8h.html" xlink:title="Storage.h">
<polygon fill="white" stroke="black" points="384.837,-275.5 384.837,-293.5 444.202,-293.5 444.202,-275.5 384.837,-275.5"/>
<text text-anchor="middle" x="414.52" y="-281.5" font-family="Helvetica,sans-Serif" font-size="10.00">Storage.h</text>
</a>
</g>
</g>
<!-- Node3&#45;&gt;Node19 -->
<g id="edge51" class="edge"><title>Node3&#45;&gt;Node19</title>
<path fill="none" stroke="midnightblue" d="M717.5,-447.157C640.267,-444.158 500.213,-434.551 461.52,-404 430.198,-379.27 419.682,-330.587 416.202,-303.963"/>
<polygon fill="midnightblue" stroke="midnightblue" points="419.65,-303.298 415.074,-293.742 412.692,-304.065 419.65,-303.298"/>
</g>
<!-- Node20 -->
<g id="node20" class="node"><title>Node20</title>
<g id="a_node20"><a xlink:href="$UARTDriver_8h.html" xlink:title="UARTDriver.h">
<polygon fill="white" stroke="black" points="663.768,-275.5 663.768,-293.5 741.271,-293.5 741.271,-275.5 663.768,-275.5"/>
<text text-anchor="middle" x="702.52" y="-281.5" font-family="Helvetica,sans-Serif" font-size="10.00">UARTDriver.h</text>
</a>
</g>
</g>
<!-- Node3&#45;&gt;Node20 -->
<g id="edge45" class="edge"><title>Node3&#45;&gt;Node20</title>
<path fill="none" stroke="midnightblue" d="M766.105,-440.193C755.665,-414.794 724.013,-337.791 709.693,-302.952"/>
<polygon fill="midnightblue" stroke="midnightblue" points="712.887,-301.516 705.848,-293.597 706.412,-304.177 712.887,-301.516"/>
</g>
<!-- Node23 -->
<g id="node23" class="node"><title>Node23</title>
<g id="a_node23"><a xlink:href="$BetterStream_8h.html" xlink:title="utility/BetterStream.h">
<polygon fill="white" stroke="black" points="1043.11,-220.5 1043.11,-238.5 1151.93,-238.5 1151.93,-220.5 1043.11,-220.5"/>
<text text-anchor="middle" x="1097.52" y="-226.5" font-family="Helvetica,sans-Serif" font-size="10.00">utility/BetterStream.h</text>
</a>
</g>
</g>
<!-- Node3&#45;&gt;Node23 -->
<g id="edge67" class="edge"><title>Node3&#45;&gt;Node23</title>
<path fill="none" stroke="midnightblue" d="M821.656,-443.581C880.971,-437.119 973.275,-424.168 1001.52,-404 1056.12,-365.01 1083.23,-284.819 1093.06,-248.766"/>
<polygon fill="midnightblue" stroke="midnightblue" points="1096.54,-249.277 1095.65,-238.719 1089.76,-247.525 1096.54,-249.277"/>
</g>
<!-- Node25 -->
<g id="node25" class="node"><title>Node25</title>
<g id="a_node25"><a xlink:href="$Stream_8h.html" xlink:title="Stream.h">
<polygon fill="white" stroke="black" points="1215.23,-165.5 1215.23,-183.5 1271.81,-183.5 1271.81,-165.5 1215.23,-165.5"/>
<text text-anchor="middle" x="1243.52" y="-171.5" font-family="Helvetica,sans-Serif" font-size="10.00">Stream.h</text>
</a>
</g>
</g>
<!-- Node3&#45;&gt;Node25 -->
<g id="edge66" class="edge"><title>Node3&#45;&gt;Node25</title>
<path fill="none" stroke="midnightblue" d="M821.706,-447.993C948.329,-445.356 1261.52,-429.809 1261.52,-340.5 1261.52,-340.5 1261.52,-340.5 1261.52,-283.5 1261.52,-251.436 1253.7,-214.736 1248.37,-193.431"/>
<polygon fill="midnightblue" stroke="midnightblue" points="1251.71,-192.347 1245.8,-183.552 1244.93,-194.112 1251.71,-192.347"/>
</g>
<!-- Node26 -->
<g id="node26" class="node"><title>Node26</title>
<g id="a_node26"><a xlink:href="$Print_8h.html" xlink:title="Print.h">
<polygon fill="white" stroke="black" points="1258.07,-110.5 1258.07,-128.5 1302.97,-128.5 1302.97,-110.5 1258.07,-110.5"/>
<text text-anchor="middle" x="1280.52" y="-116.5" font-family="Helvetica,sans-Serif" font-size="10.00">Print.h</text>
</a>
</g>
</g>
<!-- Node3&#45;&gt;Node26 -->
<g id="edge65" class="edge"><title>Node3&#45;&gt;Node26</title>
<path fill="none" stroke="midnightblue" d="M821.788,-448.821C955.499,-448.241 1299.52,-437.339 1299.52,-340.5 1299.52,-340.5 1299.52,-340.5 1299.52,-228.5 1299.52,-196.386 1291.27,-159.702 1285.64,-138.414"/>
<polygon fill="midnightblue" stroke="midnightblue" points="1288.95,-137.256 1282.93,-128.544 1282.21,-139.114 1288.95,-137.256"/>
</g>
<!-- Node27 -->
<g id="node27" class="node"><title>Node27</title>
<g id="a_node27"><a xlink:href="$I2CDriver_8h.html" xlink:title="I2CDriver.h">
<polygon fill="white" stroke="black" points="1017.51,-165.5 1017.51,-183.5 1083.53,-183.5 1083.53,-165.5 1017.51,-165.5"/>
<text text-anchor="middle" x="1050.52" y="-171.5" font-family="Helvetica,sans-Serif" font-size="10.00">I2CDriver.h</text>
</a>
</g>
</g>
<!-- Node3&#45;&gt;Node27 -->
<g id="edge46" class="edge"><title>Node3&#45;&gt;Node27</title>
<path fill="none" stroke="midnightblue" d="M821.66,-444.245C855.394,-439.189 898.619,-428.139 929.52,-404 955.086,-384.028 965.52,-372.942 965.52,-340.5 965.52,-340.5 965.52,-340.5 965.52,-283.5 965.52,-242.306 1004.18,-207.555 1029.35,-189.292"/>
<polygon fill="midnightblue" stroke="midnightblue" points="1031.41,-192.126 1037.61,-183.536 1027.4,-186.383 1031.41,-192.126"/>
</g>
<!-- Node28 -->
<g id="node28" class="node"><title>Node28</title>
<g id="a_node28"><a xlink:href="$Scheduler_8h.html" xlink:title="Scheduler.h">
<polygon fill="white" stroke="black" points="831.108,-220.5 831.108,-238.5 899.931,-238.5 899.931,-220.5 831.108,-220.5"/>
<text text-anchor="middle" x="865.52" y="-226.5" font-family="Helvetica,sans-Serif" font-size="10.00">Scheduler.h</text>
</a>
</g>
</g>
<!-- Node3&#45;&gt;Node28 -->
<g id="edge55" class="edge"><title>Node3&#45;&gt;Node28</title>
<path fill="none" stroke="midnightblue" d="M771.535,-440.126C774.604,-427.83 780.903,-404.262 788.52,-385 808.934,-333.371 840.124,-275.56 855.804,-247.549"/>
<polygon fill="midnightblue" stroke="midnightblue" points="858.963,-249.073 860.831,-238.644 852.867,-245.632 858.963,-249.073"/>
</g>
<!-- Node29 -->
<g id="node29" class="node"><title>Node29</title>
<g id="a_node29"><a xlink:href="$Semaphores_8h.html" xlink:title="Semaphores.h">
<polygon fill="white" stroke="black" points="0,-330.5 0,-348.5 81.0391,-348.5 81.0391,-330.5 0,-330.5"/>
<text text-anchor="middle" x="40.5195" y="-336.5" font-family="Helvetica,sans-Serif" font-size="10.00">Semaphores.h</text>
</a>
</g>
</g>
<!-- Node3&#45;&gt;Node29 -->
<g id="edge60" class="edge"><title>Node3&#45;&gt;Node29</title>
<path fill="none" stroke="midnightblue" d="M717.41,-446.603C594.888,-441.8 291.418,-427.82 192.52,-404 145.307,-392.629 93.8517,-368.405 64.554,-353.381"/>
<polygon fill="midnightblue" stroke="midnightblue" points="65.9921,-350.184 55.5058,-348.671 62.7597,-356.393 65.9921,-350.184"/>
</g>
<!-- Node30 -->
<g id="node30" class="node"><title>Node30</title>
<g id="a_node30"><a xlink:href="$Util_8h.html" xlink:title="Util.h">
<polygon fill="white" stroke="black" points="1503.13,-220.5 1503.13,-238.5 1541.91,-238.5 1541.91,-220.5 1503.13,-220.5"/>
<text text-anchor="middle" x="1522.52" y="-226.5" font-family="Helvetica,sans-Serif" font-size="10.00">Util.h</text>
</a>
</g>
</g>
<!-- Node3&#45;&gt;Node30 -->
<g id="edge62" class="edge"><title>Node3&#45;&gt;Node30</title>
<path fill="none" stroke="midnightblue" d="M821.849,-448.2C940.269,-446.886 1225.34,-439.963 1313.52,-404 1400.87,-368.375 1479.33,-282.481 1509.45,-246.636"/>
<polygon fill="midnightblue" stroke="midnightblue" points="1512.37,-248.6 1516.04,-238.663 1506.97,-244.139 1512.37,-248.6"/>
</g>
<!-- Node6&#45;&gt;Node7 -->
<g id="edge6" class="edge"><title>Node6&#45;&gt;Node7</title>
<path fill="none" stroke="midnightblue" d="M932.544,-56.7337C1034.07,-45.4765 1234.45,-23.2587 1314.89,-14.3391"/>
<polygon fill="midnightblue" stroke="midnightblue" points="1315.43,-17.8011 1324.99,-13.2203 1314.66,-10.8438 1315.43,-17.8011"/>
</g>
<!-- Node8 -->
<g id="node8" class="node"><title>Node8</title>
<g id="a_node8"><a xlink:href="$functor_8h.html" xlink:title="utility/functor.h">
<polygon fill="white" stroke="black" points="831.557,-0.5 831.557,-18.5 911.482,-18.5 911.482,-0.5 831.557,-0.5"/>
<text text-anchor="middle" x="871.52" y="-6.5" font-family="Helvetica,sans-Serif" font-size="10.00">utility/functor.h</text>
</a>
</g>
</g>
<!-- Node6&#45;&gt;Node8 -->
<g id="edge7" class="edge"><title>Node6&#45;&gt;Node8</title>
<path fill="none" stroke="midnightblue" d="M871.52,-55.2188C871.52,-48.1769 871.52,-37.8083 871.52,-28.8277"/>
<polygon fill="midnightblue" stroke="midnightblue" points="875.02,-28.5495 871.52,-18.5496 868.02,-28.5496 875.02,-28.5495"/>
</g>
<!-- Node11&#45;&gt;Node12 -->
<g id="edge11" class="edge"><title>Node11&#45;&gt;Node12</title>
<path fill="none" stroke="midnightblue" d="M519.363,-385.219C514.686,-377.707 507.653,-366.411 501.825,-357.052"/>
<polygon fill="midnightblue" stroke="midnightblue" points="504.788,-355.189 496.532,-348.55 498.846,-358.889 504.788,-355.189"/>
</g>
<!-- Node12&#45;&gt;Node6 -->
<g id="edge12" class="edge"><title>Node12&#45;&gt;Node6</title>
<path fill="none" stroke="midnightblue" d="M487.633,-330.28C472.525,-296.994 421.576,-171.086 484.52,-110 506.712,-88.4624 694.753,-74.9845 800.32,-69.0441"/>
<polygon fill="midnightblue" stroke="midnightblue" points="800.791,-72.5234 810.582,-68.4757 800.404,-65.5341 800.791,-72.5234"/>
</g>
<!-- Node12&#45;&gt;Node13 -->
<g id="edge13" class="edge"><title>Node12&#45;&gt;Node13</title>
<path fill="none" stroke="midnightblue" d="M513.486,-337.836C605.153,-334.907 957.368,-322.019 1064.52,-294 1107.21,-282.836 1152.99,-258.899 1179.34,-243.814"/>
<polygon fill="midnightblue" stroke="midnightblue" points="1181.25,-246.753 1188.13,-238.696 1177.73,-240.704 1181.25,-246.753"/>
</g>
<!-- Node12&#45;&gt;Node15 -->
<g id="edge16" class="edge"><title>Node12&#45;&gt;Node15</title>
<path fill="none" stroke="midnightblue" d="M492.346,-330.382C494.098,-313.182 498.222,-272.698 500.647,-248.887"/>
<polygon fill="midnightblue" stroke="midnightblue" points="504.152,-249.015 501.683,-238.712 497.188,-248.306 504.152,-249.015"/>
</g>
<!-- Node12&#45;&gt;Node16 -->
<g id="edge19" class="edge"><title>Node12&#45;&gt;Node16</title>
<path fill="none" stroke="midnightblue" d="M513.743,-336.29C595.16,-328.194 877.884,-300.081 983.925,-289.537"/>
<polygon fill="midnightblue" stroke="midnightblue" points="984.312,-293.015 993.917,-288.543 983.62,-286.05 984.312,-293.015"/>
</g>
<!-- Node12&#45;&gt;Node17 -->
<g id="edge21" class="edge"><title>Node12&#45;&gt;Node17</title>
<path fill="none" stroke="midnightblue" d="M469.299,-335.156C423.87,-328.27 316.863,-311.788 216.128,-294.058"/>
<polygon fill="midnightblue" stroke="midnightblue" points="216.545,-290.577 206.088,-292.283 215.326,-297.47 216.545,-290.577"/>
</g>
<!-- Node12&#45;&gt;Node18 -->
<g id="edge23" class="edge"><title>Node12&#45;&gt;Node18</title>
<path fill="none" stroke="midnightblue" d="M469.505,-333.514C430.975,-324.787 350.667,-306.597 300.708,-295.282"/>
<polygon fill="midnightblue" stroke="midnightblue" points="301.364,-291.842 290.838,-293.047 299.818,-298.669 301.364,-291.842"/>
</g>
<!-- Node12&#45;&gt;Node19 -->
<g id="edge25" class="edge"><title>Node12&#45;&gt;Node19</title>
<path fill="none" stroke="midnightblue" d="M479.825,-330.45C467.84,-322.201 448.975,-309.216 434.596,-299.319"/>
<polygon fill="midnightblue" stroke="midnightblue" points="436.546,-296.412 426.324,-293.625 432.577,-302.178 436.546,-296.412"/>
</g>
<!-- Node12&#45;&gt;Node20 -->
<g id="edge28" class="edge"><title>Node12&#45;&gt;Node20</title>
<path fill="none" stroke="midnightblue" d="M513.701,-332.928C548.451,-324.2 616.309,-307.155 660.504,-296.054"/>
<polygon fill="midnightblue" stroke="midnightblue" points="661.529,-299.405 670.375,-293.574 659.823,-292.616 661.529,-299.405"/>
</g>
<!-- Node13&#45;&gt;Node6 -->
<g id="edge15" class="edge"><title>Node13&#45;&gt;Node6</title>
<path fill="none" stroke="midnightblue" d="M1200.29,-220.251C1196.54,-198.321 1183.15,-138.324 1145.52,-110 1114.32,-86.5218 1012.85,-74.937 942.561,-69.5956"/>
<polygon fill="midnightblue" stroke="midnightblue" points="942.658,-66.0934 932.429,-68.8521 942.146,-73.0746 942.658,-66.0934"/>
</g>
<!-- Node14 -->
<g id="node14" class="node"><title>Node14</title>
<polygon fill="white" stroke="#bfbfbf" points="1308.12,-55.5 1308.12,-73.5 1366.92,-73.5 1366.92,-55.5 1308.12,-55.5"/>
<text text-anchor="middle" x="1337.52" y="-61.5" font-family="Helvetica,sans-Serif" font-size="10.00">inttypes.h</text>
</g>
<!-- Node13&#45;&gt;Node14 -->
<g id="edge14" class="edge"><title>Node13&#45;&gt;Node14</title>
<path fill="none" stroke="midnightblue" d="M1222.69,-220.367C1239.89,-212.937 1263.93,-200.583 1280.52,-184 1309.35,-155.177 1325.69,-108.905 1332.94,-83.5523"/>
<polygon fill="midnightblue" stroke="midnightblue" points="1336.35,-84.3621 1335.57,-73.7956 1329.59,-82.5391 1336.35,-84.3621"/>
</g>
<!-- Node15&#45;&gt;Node4 -->
<g id="edge17" class="edge"><title>Node15&#45;&gt;Node4</title>
<path fill="none" stroke="midnightblue" d="M506.16,-220.363C512.176,-207.538 525.172,-182.304 541.52,-165 553.186,-152.651 568.8,-141.713 581.685,-133.771"/>
<polygon fill="midnightblue" stroke="midnightblue" points="583.679,-136.657 590.489,-128.541 580.104,-130.639 583.679,-136.657"/>
</g>
<!-- Node15&#45;&gt;Node6 -->
<g id="edge18" class="edge"><title>Node15&#45;&gt;Node6</title>
<path fill="none" stroke="midnightblue" d="M498.9,-220.334C490.113,-199.118 470.367,-141.711 498.52,-110 518.187,-87.8464 697.84,-74.7229 800.467,-68.9713"/>
<polygon fill="midnightblue" stroke="midnightblue" points="800.662,-72.4659 810.454,-68.4211 800.277,-65.4765 800.662,-72.4659"/>
</g>
<!-- Node16&#45;&gt;Node6 -->
<g id="edge20" class="edge"><title>Node16&#45;&gt;Node6</title>
<path fill="none" stroke="midnightblue" d="M1023.75,-275.317C1022.97,-262.429 1023.17,-237.112 1034.52,-220 1054.16,-190.397 1111.56,-194.991 1092.52,-165 1059.15,-112.439 990.525,-87.3975 938.548,-75.6224"/>
<polygon fill="midnightblue" stroke="midnightblue" points="939.232,-72.1896 928.719,-73.5073 937.759,-79.0329 939.232,-72.1896"/>
</g>
<!-- Node17&#45;&gt;Node6 -->
<g id="edge22" class="edge"><title>Node17&#45;&gt;Node6</title>
<path fill="none" stroke="midnightblue" d="M170.942,-275.232C169.461,-246.81 168.839,-152.538 221.52,-110 265.733,-74.2986 641.087,-67.2264 800.438,-65.8356"/>
<polygon fill="midnightblue" stroke="midnightblue" points="800.645,-69.3342 810.616,-65.752 800.588,-62.3344 800.645,-69.3342"/>
</g>
<!-- Node18&#45;&gt;Node6 -->
<g id="edge24" class="edge"><title>Node18&#45;&gt;Node6</title>
<path fill="none" stroke="midnightblue" d="M252.724,-275.244C237.387,-247.649 193.066,-157.683 237.52,-110 275.252,-69.526 643.123,-65.1583 800.588,-65.1635"/>
<polygon fill="midnightblue" stroke="midnightblue" points="800.647,-68.6635 810.65,-65.1699 800.652,-61.6635 800.647,-68.6635"/>
</g>
<!-- Node19&#45;&gt;Node4 -->
<g id="edge26" class="edge"><title>Node19&#45;&gt;Node4</title>
<path fill="none" stroke="midnightblue" d="M420.379,-275.353C435.583,-254.669 478.342,-199.337 524.52,-165 541.418,-152.435 562.278,-141.057 578.598,-132.952"/>
<polygon fill="midnightblue" stroke="midnightblue" points="580.149,-136.09 587.617,-128.574 577.093,-129.792 580.149,-136.09"/>
</g>
<!-- Node19&#45;&gt;Node6 -->
<g id="edge27" class="edge"><title>Node19&#45;&gt;Node6</title>
<path fill="none" stroke="midnightblue" d="M408.124,-275.207C401.977,-266.67 393.109,-252.716 389.52,-239 375.006,-183.534 350.887,-152.363 389.52,-110 416.638,-80.2628 673.062,-70.1124 800.432,-66.8867"/>
<polygon fill="midnightblue" stroke="midnightblue" points="800.578,-70.3842 810.489,-66.6396 800.406,-63.3863 800.578,-70.3842"/>
</g>
<!-- Node20&#45;&gt;Node4 -->
<g id="edge29" class="edge"><title>Node20&#45;&gt;Node4</title>
<path fill="none" stroke="midnightblue" d="M691.588,-275.361C671.883,-259.992 630.764,-224.576 612.52,-184 606.117,-169.761 604.639,-151.981 604.606,-138.861"/>
<polygon fill="midnightblue" stroke="midnightblue" points="608.108,-138.82 604.861,-128.735 601.11,-138.644 608.108,-138.82"/>
</g>
<!-- Node20&#45;&gt;Node6 -->
<g id="edge34" class="edge"><title>Node20&#45;&gt;Node6</title>
<path fill="none" stroke="midnightblue" d="M708.735,-275.483C733.419,-243.641 824.832,-125.724 858.748,-81.9751"/>
<polygon fill="midnightblue" stroke="midnightblue" points="861.707,-83.8708 865.067,-73.8231 856.174,-79.582 861.707,-83.8708"/>
</g>
<!-- Node21 -->
<g id="node21" class="node"><title>Node21</title>
<g id="a_node21"><a xlink:href="$AP__Common_8h.html" xlink:title="Common definitions and utility routines for the ArduPilot libraries. ">
<polygon fill="white" stroke="black" points="621.493,-165.5 621.493,-183.5 767.546,-183.5 767.546,-165.5 621.493,-165.5"/>
<text text-anchor="middle" x="694.52" y="-171.5" font-family="Helvetica,sans-Serif" font-size="10.00">AP_Common/AP_Common.h</text>
</a>
</g>
</g>
<!-- Node20&#45;&gt;Node21 -->
<g id="edge30" class="edge"><title>Node20&#45;&gt;Node21</title>
<path fill="none" stroke="midnightblue" d="M701.918,-275.382C700.644,-258.182 697.645,-217.698 695.881,-193.887"/>
<polygon fill="midnightblue" stroke="midnightblue" points="699.357,-193.426 695.128,-183.712 692.376,-193.943 699.357,-193.426"/>
</g>
<!-- Node20&#45;&gt;Node23 -->
<g id="edge35" class="edge"><title>Node20&#45;&gt;Node23</title>
<path fill="none" stroke="midnightblue" d="M741.475,-278.273C809.391,-269.16 950.112,-250.279 1032.85,-239.177"/>
<polygon fill="midnightblue" stroke="midnightblue" points="1033.45,-242.628 1042.89,-237.829 1032.52,-235.69 1033.45,-242.628"/>
</g>
<!-- Node21&#45;&gt;Node4 -->
<g id="edge31" class="edge"><title>Node21&#45;&gt;Node4</title>
<path fill="none" stroke="midnightblue" d="M681.002,-165.45C666.888,-157.045 644.519,-143.724 627.789,-133.762"/>
<polygon fill="midnightblue" stroke="midnightblue" points="629.547,-130.735 619.164,-128.625 625.965,-136.749 629.547,-130.735"/>
</g>
<!-- Node21&#45;&gt;Node5 -->
<g id="edge33" class="edge"><title>Node21&#45;&gt;Node5</title>
<path fill="none" stroke="midnightblue" d="M670.371,-165.45C643.443,-156.475 599.696,-141.892 569.363,-131.781"/>
<polygon fill="midnightblue" stroke="midnightblue" points="570.228,-128.38 559.634,-128.538 568.014,-135.021 570.228,-128.38"/>
</g>
<!-- Node22 -->
<g id="node22" class="node"><title>Node22</title>
<polygon fill="white" stroke="#bfbfbf" points="670.677,-110.5 670.677,-128.5 718.362,-128.5 718.362,-110.5 670.677,-110.5"/>
<text text-anchor="middle" x="694.52" y="-116.5" font-family="Helvetica,sans-Serif" font-size="10.00">stdlib.h</text>
</g>
<!-- Node21&#45;&gt;Node22 -->
<g id="edge32" class="edge"><title>Node21&#45;&gt;Node22</title>
<path fill="none" stroke="midnightblue" d="M694.52,-165.219C694.52,-158.177 694.52,-147.808 694.52,-138.828"/>
<polygon fill="midnightblue" stroke="midnightblue" points="698.02,-138.55 694.52,-128.55 691.02,-138.55 698.02,-138.55"/>
</g>
<!-- Node23&#45;&gt;Node6 -->
<g id="edge38" class="edge"><title>Node23&#45;&gt;Node6</title>
<path fill="none" stroke="midnightblue" d="M1104.67,-220.34C1111.55,-211.907 1121.47,-198.032 1125.52,-184 1134.63,-152.399 1146.67,-135.183 1125.52,-110 1102.51,-82.6115 1009.26,-72.0764 942.423,-68.0263"/>
<polygon fill="midnightblue" stroke="midnightblue" points="942.535,-64.527 932.352,-67.4524 942.136,-71.5157 942.535,-64.527"/>
</g>
<!-- Node23&#45;&gt;Node21 -->
<g id="edge37" class="edge"><title>Node23&#45;&gt;Node21</title>
<path fill="none" stroke="midnightblue" d="M1042.75,-221.297C970.972,-211.857 844.939,-195.282 765.795,-184.874"/>
<polygon fill="midnightblue" stroke="midnightblue" points="765.799,-181.344 755.428,-183.51 764.886,-188.284 765.799,-181.344"/>
</g>
<!-- Node23&#45;&gt;Node24 -->
<g id="edge36" class="edge"><title>Node23&#45;&gt;Node24</title>
<path fill="none" stroke="midnightblue" d="M1152.14,-221.008C1154.97,-220.658 1157.78,-220.32 1160.52,-220 1322.87,-201.069 1364,-201.453 1526.52,-184 1538.37,-182.727 1551.29,-181.252 1562.92,-179.891"/>
<polygon fill="midnightblue" stroke="midnightblue" points="1563.66,-183.329 1573.18,-178.682 1562.84,-176.377 1563.66,-183.329"/>
</g>
<!-- Node23&#45;&gt;Node25 -->
<g id="edge39" class="edge"><title>Node23&#45;&gt;Node25</title>
<path fill="none" stroke="midnightblue" d="M1119.69,-220.45C1144.13,-211.578 1183.66,-197.229 1211.47,-187.134"/>
<polygon fill="midnightblue" stroke="midnightblue" points="1212.93,-190.328 1221.14,-183.625 1210.54,-183.748 1212.93,-190.328"/>
</g>
<!-- Node25&#45;&gt;Node6 -->
<g id="edge40" class="edge"><title>Node25&#45;&gt;Node6</title>
<path fill="none" stroke="midnightblue" d="M1240.66,-165.234C1235.35,-151.261 1222.57,-123.204 1201.52,-110 1159.68,-83.7542 1026.67,-72.7195 942.841,-68.2829"/>
<polygon fill="midnightblue" stroke="midnightblue" points="942.784,-64.7755 932.618,-67.7616 942.427,-71.7664 942.784,-64.7755"/>
</g>
<!-- Node25&#45;&gt;Node26 -->
<g id="edge41" class="edge"><title>Node25&#45;&gt;Node26</title>
<path fill="none" stroke="midnightblue" d="M1249.3,-165.219C1254.6,-157.629 1262.6,-146.175 1269.17,-136.76"/>
<polygon fill="midnightblue" stroke="midnightblue" points="1272.05,-138.753 1274.9,-128.55 1266.31,-134.746 1272.05,-138.753"/>
</g>
<!-- Node26&#45;&gt;Node6 -->
<g id="edge42" class="edge"><title>Node26&#45;&gt;Node6</title>
<path fill="none" stroke="midnightblue" d="M1257.69,-113.001C1252.71,-111.912 1247.45,-110.845 1242.52,-110 1138.86,-92.2358 1017.7,-79.1242 942.778,-71.8969"/>
<polygon fill="midnightblue" stroke="midnightblue" points="942.808,-68.3838 932.52,-70.9162 942.142,-75.3521 942.808,-68.3838"/>
</g>
<!-- Node26&#45;&gt;Node7 -->
<g id="edge44" class="edge"><title>Node26&#45;&gt;Node7</title>
<path fill="none" stroke="midnightblue" d="M1281.48,-110.494C1283.31,-97.8496 1288.14,-72.8585 1299.52,-55 1307.13,-43.0546 1318.82,-32.3972 1328.99,-24.5089"/>
<polygon fill="midnightblue" stroke="midnightblue" points="1331.08,-27.3186 1337.05,-18.5664 1326.92,-21.6849 1331.08,-27.3186"/>
</g>
<!-- Node26&#45;&gt;Node14 -->
<g id="edge43" class="edge"><title>Node26&#45;&gt;Node14</title>
<path fill="none" stroke="midnightblue" d="M1289.43,-110.219C1297.92,-102.316 1310.93,-90.2241 1321.27,-80.6057"/>
<polygon fill="midnightblue" stroke="midnightblue" points="1323.92,-82.9222 1328.86,-73.5496 1319.16,-77.7958 1323.92,-82.9222"/>
</g>
<!-- Node27&#45;&gt;Node4 -->
<g id="edge47" class="edge"><title>Node27&#45;&gt;Node4</title>
<path fill="none" stroke="midnightblue" d="M1017.1,-166.435C1014.2,-165.914 1011.31,-165.427 1008.52,-165 855.246,-141.595 815.321,-148.639 661.52,-129 654.507,-128.105 647.017,-127.042 639.87,-125.976"/>
<polygon fill="midnightblue" stroke="midnightblue" points="640.154,-122.479 629.741,-124.432 639.1,-129.399 640.154,-122.479"/>
</g>
<!-- Node27&#45;&gt;Node6 -->
<g id="edge48" class="edge"><title>Node27&#45;&gt;Node6</title>
<path fill="none" stroke="midnightblue" d="M1037.07,-165.382C1006.48,-146.931 931.495,-101.686 893.847,-78.9713"/>
<polygon fill="midnightblue" stroke="midnightblue" points="895.5,-75.8811 885.13,-73.7118 891.884,-81.8746 895.5,-75.8811"/>
</g>
<!-- Node28&#45;&gt;Node4 -->
<g id="edge56" class="edge"><title>Node28&#45;&gt;Node4</title>
<path fill="none" stroke="midnightblue" d="M856.37,-220.206C840.994,-206.695 808.504,-179.947 776.52,-165 731.688,-144.05 675.459,-131.833 639.996,-125.662"/>
<polygon fill="midnightblue" stroke="midnightblue" points="640.133,-122.136 629.693,-123.938 638.978,-129.04 640.133,-122.136"/>
</g>
<!-- Node28&#45;&gt;Node6 -->
<g id="edge59" class="edge"><title>Node28&#45;&gt;Node6</title>
<path fill="none" stroke="midnightblue" d="M865.825,-220.193C866.752,-195.013 869.546,-119.114 870.844,-83.8621"/>
<polygon fill="midnightblue" stroke="midnightblue" points="874.351,-83.7191 871.221,-73.5971 867.356,-83.4616 874.351,-83.7191"/>
</g>
<!-- Node28&#45;&gt;Node9 -->
<g id="edge58" class="edge"><title>Node28&#45;&gt;Node9</title>
<path fill="none" stroke="midnightblue" d="M878.277,-220.45C891.475,-212.123 912.321,-198.97 928.061,-189.039"/>
<polygon fill="midnightblue" stroke="midnightblue" points="930.052,-191.922 936.642,-183.625 926.317,-186.001 930.052,-191.922"/>
</g>
<!-- Node28&#45;&gt;Node21 -->
<g id="edge57" class="edge"><title>Node28&#45;&gt;Node21</title>
<path fill="none" stroke="midnightblue" d="M839.548,-220.45C810.336,-211.396 762.72,-196.638 730.07,-186.519"/>
<polygon fill="midnightblue" stroke="midnightblue" points="731.042,-183.156 720.454,-183.538 728.97,-189.842 731.042,-183.156"/>
</g>
<!-- Node29&#45;&gt;Node6 -->
<g id="edge61" class="edge"><title>Node29&#45;&gt;Node6</title>
<path fill="none" stroke="midnightblue" d="M44.5722,-330.329C52.9752,-312.608 71.5195,-269.124 71.5195,-230.5 71.5195,-230.5 71.5195,-230.5 71.5195,-173.5 71.5195,-109.198 139.384,-126.552 201.52,-110 312.833,-80.3468 651.587,-69.9569 800.273,-66.7605"/>
<polygon fill="midnightblue" stroke="midnightblue" points="800.72,-70.252 810.644,-66.5427 800.573,-63.2536 800.72,-70.252"/>
</g>
<!-- Node30&#45;&gt;Node6 -->
<g id="edge64" class="edge"><title>Node30&#45;&gt;Node6</title>
<path fill="none" stroke="midnightblue" d="M1526.08,-220.493C1531.3,-207.396 1539.12,-181.229 1526.52,-165 1466.03,-87.0917 1408.64,-127.233 1311.52,-110 1182.44,-87.0961 1029.82,-74.9491 942.475,-69.3985"/>
<polygon fill="midnightblue" stroke="midnightblue" points="942.611,-65.9003 932.412,-68.77 942.175,-72.8867 942.611,-65.9003"/>
</g>
<!-- Node30&#45;&gt;Node24 -->
<g id="edge63" class="edge"><title>Node30&#45;&gt;Node24</title>
<path fill="none" stroke="midnightblue" d="M1534.21,-220.45C1546.2,-212.201 1565.06,-199.216 1579.44,-189.319"/>
<polygon fill="midnightblue" stroke="midnightblue" points="1581.46,-192.178 1587.71,-183.625 1577.49,-186.412 1581.46,-192.178"/>
</g>
<!-- Node32&#45;&gt;Node4 -->
<g id="edge76" class="edge"><title>Node32&#45;&gt;Node4</title>
<path fill="none" stroke="midnightblue" d="M1365.45,-169.353C1176.05,-159.003 696.11,-132.604 661.52,-129 654.488,-128.267 646.99,-127.276 639.841,-126.229"/>
<polygon fill="midnightblue" stroke="midnightblue" points="640.127,-122.732 629.713,-124.678 639.068,-129.651 640.127,-122.732"/>
</g>
<!-- Node32&#45;&gt;Node7 -->
<g id="edge75" class="edge"><title>Node32&#45;&gt;Node7</title>
<path fill="none" stroke="midnightblue" d="M1437.1,-165.422C1426.56,-146.211 1399.09,-96.3167 1375.52,-55 1370.29,-45.839 1364.37,-35.6798 1359.49,-27.3838"/>
<polygon fill="midnightblue" stroke="midnightblue" points="1362.45,-25.512 1354.36,-18.6724 1356.42,-29.0651 1362.45,-25.512"/>
</g>
<!-- Node33&#45;&gt;Node3 -->
<g id="edge78" class="edge"><title>Node33&#45;&gt;Node3</title>
<path fill="none" stroke="midnightblue" d="M769.52,-495.219C769.52,-488.177 769.52,-477.808 769.52,-468.828"/>
<polygon fill="midnightblue" stroke="midnightblue" points="773.02,-468.55 769.52,-458.55 766.02,-468.55 773.02,-468.55"/>
</g>
<!-- Node33&#45;&gt;Node4 -->
<g id="edge79" class="edge"><title>Node33&#45;&gt;Node4</title>
<path fill="none" stroke="midnightblue" d="M731.182,-501.309C590.322,-492.758 109.52,-458.924 109.52,-395.5 109.52,-395.5 109.52,-395.5 109.52,-338.5 109.52,-309.042 107.925,-296.063 128.52,-275 160.805,-241.979 467.341,-157.537 571.26,-129.616"/>
<polygon fill="midnightblue" stroke="midnightblue" points="572.478,-132.913 581.231,-126.944 570.666,-126.152 572.478,-132.913"/>
</g>
</g>
</svg>
