<?xml version="1.0" encoding="UTF-8" standalone="no"?>
<!DOCTYPE svg PUBLIC "-//W3C//DTD SVG 1.1//EN"
 "http://www.w3.org/Graphics/SVG/1.1/DTD/svg11.dtd">
<!-- Generated by graphviz version 2.38.0 (20140413.2041)
 -->
<!-- Title: test_printf Pages: 1 -->
<svg width="649pt" height="175pt"
 viewBox="0.00 0.00 649.01 175.00" xmlns="http://www.w3.org/2000/svg" xmlns:xlink="http://www.w3.org/1999/xlink">
<g id="graph0" class="graph" transform="scale(1 1) rotate(0) translate(4 171)">
<title>test_printf</title>
<polygon fill="white" stroke="none" points="-4,4 -4,-171 645.007,-171 645.007,4 -4,4"/>
<!-- Node1 -->
<g id="node1" class="node"><title>Node1</title>
<polygon fill="#bfbfbf" stroke="black" points="0,-56.5 0,-74.5 59.9111,-74.5 59.9111,-56.5 0,-56.5"/>
<text text-anchor="middle" x="29.9556" y="-62.5" font-family="Helvetica,sans-Serif" font-size="10.00">test_printf</text>
</g>
<!-- Node2 -->
<g id="node2" class="node"><title>Node2</title>
<g id="a_node2"><a xlink:href="$classAP__HAL_1_1UARTDriver.html#a65c7824b8877f7a2f79365c8ffae8f56" xlink:title="AP_HAL::UARTDriver\l::printf">
<polygon fill="white" stroke="black" points="95.9111,-72.5 95.9111,-100.5 209.533,-100.5 209.533,-72.5 95.9111,-72.5"/>
<text text-anchor="start" x="103.911" y="-88.5" font-family="Helvetica,sans-Serif" font-size="10.00">AP_HAL::UARTDriver</text>
<text text-anchor="middle" x="152.722" y="-78.5" font-family="Helvetica,sans-Serif" font-size="10.00">::printf</text>
</a>
</g>
</g>
<!-- Node1&#45;&gt;Node2 -->
<g id="edge1" class="edge"><title>Node1&#45;&gt;Node2</title>
<path fill="none" stroke="midnightblue" d="M60.1898,-70.5835C68.0005,-71.9417 76.7689,-73.4664 85.7032,-75.02"/>
<polygon fill="midnightblue" stroke="midnightblue" points="85.3668,-78.514 95.8186,-76.779 86.5661,-71.6175 85.3668,-78.514"/>
</g>
<!-- Node10 -->
<g id="node10" class="node"><title>Node10</title>
<g id="a_node10"><a xlink:href="$classAP__HAL_1_1Util.html#adead79890b223f40eaf092fda231c2f2" xlink:title="AP_HAL::Util::snprintf">
<polygon fill="white" stroke="black" points="96.3701,-35.5 96.3701,-53.5 209.074,-53.5 209.074,-35.5 96.3701,-35.5"/>
<text text-anchor="middle" x="152.722" y="-41.5" font-family="Helvetica,sans-Serif" font-size="10.00">AP_HAL::Util::snprintf</text>
</a>
</g>
</g>
<!-- Node1&#45;&gt;Node10 -->
<g id="edge9" class="edge"><title>Node1&#45;&gt;Node10</title>
<path fill="none" stroke="midnightblue" d="M60.1898,-60.4165C69.1829,-58.8527 79.4454,-57.0681 89.7691,-55.273"/>
<polygon fill="midnightblue" stroke="midnightblue" points="90.3939,-58.7169 99.6465,-53.5554 89.1947,-51.8204 90.3939,-58.7169"/>
</g>
<!-- Node3 -->
<g id="node3" class="node"><title>Node3</title>
<g id="a_node3"><a xlink:href="$classAP__HAL_1_1UARTDriver.html#aa8abfb6d6641299472c29ac1edde559f" xlink:title="AP_HAL::UARTDriver\l::vprintf">
<polygon fill="white" stroke="black" points="247.574,-72.5 247.574,-100.5 361.196,-100.5 361.196,-72.5 247.574,-72.5"/>
<text text-anchor="start" x="255.574" y="-88.5" font-family="Helvetica,sans-Serif" font-size="10.00">AP_HAL::UARTDriver</text>
<text text-anchor="middle" x="304.385" y="-78.5" font-family="Helvetica,sans-Serif" font-size="10.00">::vprintf</text>
</a>
</g>
</g>
<!-- Node2&#45;&gt;Node3 -->
<g id="edge2" class="edge"><title>Node2&#45;&gt;Node3</title>
<path fill="none" stroke="midnightblue" d="M209.877,-86.5C218.796,-86.5 228.093,-86.5 237.217,-86.5"/>
<polygon fill="midnightblue" stroke="midnightblue" points="237.414,-90.0001 247.413,-86.5 237.413,-83.0001 237.414,-90.0001"/>
</g>
<!-- Node4 -->
<g id="node4" class="node"><title>Node4</title>
<g id="a_node4"><a xlink:href="$print__vprintf_8cpp.html#a473b9349f4b086b552a21eb8fe057016" xlink:title="print_vprintf">
<polygon fill="white" stroke="black" points="414.428,-74.5 414.428,-92.5 482.674,-92.5 482.674,-74.5 414.428,-74.5"/>
<text text-anchor="middle" x="448.551" y="-80.5" font-family="Helvetica,sans-Serif" font-size="10.00">print_vprintf</text>
</a>
</g>
</g>
<!-- Node3&#45;&gt;Node4 -->
<g id="edge3" class="edge"><title>Node3&#45;&gt;Node4</title>
<path fill="none" stroke="midnightblue" d="M361.573,-85.3143C375.658,-85.0171 390.561,-84.7026 403.931,-84.4205"/>
<polygon fill="midnightblue" stroke="midnightblue" points="404.357,-87.9124 414.281,-84.2021 404.209,-80.9139 404.357,-87.9124"/>
</g>
<!-- Node5 -->
<g id="node5" class="node"><title>Node5</title>
<g id="a_node5"><a xlink:href="$classAP__HAL_1_1Print.html#acc65391952a43334f8f5c9bef341f501" xlink:title="AP_HAL::Print::write">
<polygon fill="white" stroke="black" points="533.864,-148.5 533.864,-166.5 641.007,-166.5 641.007,-148.5 533.864,-148.5"/>
<text text-anchor="middle" x="587.436" y="-154.5" font-family="Helvetica,sans-Serif" font-size="10.00">AP_HAL::Print::write</text>
</a>
</g>
</g>
<!-- Node4&#45;&gt;Node5 -->
<g id="edge4" class="edge"><title>Node4&#45;&gt;Node5</title>
<path fill="none" stroke="midnightblue" d="M461.248,-92.6868C477.011,-104.725 506.283,-125.901 533.864,-139.5 537.709,-141.396 541.803,-143.176 545.944,-144.823"/>
<polygon fill="midnightblue" stroke="midnightblue" points="545.004,-148.208 555.596,-148.418 547.447,-141.648 545.004,-148.208"/>
</g>
<!-- Node6 -->
<g id="node6" class="node"><title>Node6</title>
<g id="a_node6"><a xlink:href="$ftoa__engine_8cpp.html#a1c28234da8f20b43c85890d4bb452947" xlink:title="ftoa_engine">
<polygon fill="white" stroke="black" points="553.3,-111.5 553.3,-129.5 621.571,-129.5 621.571,-111.5 553.3,-111.5"/>
<text text-anchor="middle" x="587.436" y="-117.5" font-family="Helvetica,sans-Serif" font-size="10.00">ftoa_engine</text>
</a>
</g>
</g>
<!-- Node4&#45;&gt;Node6 -->
<g id="edge5" class="edge"><title>Node4&#45;&gt;Node6</title>
<path fill="none" stroke="midnightblue" d="M482.687,-92.4567C500.879,-97.3741 523.654,-103.53 543.228,-108.821"/>
<polygon fill="midnightblue" stroke="midnightblue" points="542.563,-112.267 553.13,-111.498 544.39,-105.509 542.563,-112.267"/>
</g>
<!-- Node7 -->
<g id="node7" class="node"><title>Node7</title>
<g id="a_node7"><a xlink:href="$AP__Progmem_8h.html#a1514e0408e036062b4af844baaf567da" xlink:title="pgm_read_byte">
<polygon fill="white" stroke="black" points="544.689,-74.5 544.689,-92.5 630.182,-92.5 630.182,-74.5 544.689,-74.5"/>
<text text-anchor="middle" x="587.436" y="-80.5" font-family="Helvetica,sans-Serif" font-size="10.00">pgm_read_byte</text>
</a>
</g>
</g>
<!-- Node4&#45;&gt;Node7 -->
<g id="edge6" class="edge"><title>Node4&#45;&gt;Node7</title>
<path fill="none" stroke="midnightblue" d="M482.687,-83.5C498.23,-83.5 517.119,-83.5 534.498,-83.5"/>
<polygon fill="midnightblue" stroke="midnightblue" points="534.52,-87.0001 544.52,-83.5 534.52,-80.0001 534.52,-87.0001"/>
</g>
<!-- Node8 -->
<g id="node8" class="node"><title>Node8</title>
<g id="a_node8"><a xlink:href="$utoa__invert_8cpp.html#a34926f552460b47c414ec4d83b32815c" xlink:title="ulltoa_invert">
<polygon fill="white" stroke="black" points="552.475,-37.5 552.475,-55.5 622.396,-55.5 622.396,-37.5 552.475,-37.5"/>
<text text-anchor="middle" x="587.436" y="-43.5" font-family="Helvetica,sans-Serif" font-size="10.00">ulltoa_invert</text>
</a>
</g>
</g>
<!-- Node4&#45;&gt;Node8 -->
<g id="edge7" class="edge"><title>Node4&#45;&gt;Node8</title>
<path fill="none" stroke="midnightblue" d="M482.687,-74.5433C500.879,-69.6259 523.654,-63.4698 543.228,-58.1791"/>
<polygon fill="midnightblue" stroke="midnightblue" points="544.39,-61.4906 553.13,-55.5024 542.563,-54.7331 544.39,-61.4906"/>
</g>
<!-- Node9 -->
<g id="node9" class="node"><title>Node9</title>
<g id="a_node9"><a xlink:href="$utoa__invert_8cpp.html#a5d99bba8e697c1e11da489d88fca8559" xlink:title="ultoa_invert">
<polygon fill="white" stroke="black" points="553.586,-0.5 553.586,-18.5 621.285,-18.5 621.285,-0.5 553.586,-0.5"/>
<text text-anchor="middle" x="587.436" y="-6.5" font-family="Helvetica,sans-Serif" font-size="10.00">ultoa_invert</text>
</a>
</g>
</g>
<!-- Node4&#45;&gt;Node9 -->
<g id="edge8" class="edge"><title>Node4&#45;&gt;Node9</title>
<path fill="none" stroke="midnightblue" d="M476.582,-74.492C483.79,-71.5168 491.372,-67.8367 497.864,-63.5 516.68,-50.9309 514.665,-39.4741 533.864,-27.5 537.039,-25.5202 540.458,-23.7271 543.975,-22.1097"/>
<polygon fill="midnightblue" stroke="midnightblue" points="545.493,-25.2699 553.411,-18.2307 542.831,-18.7955 545.493,-25.2699"/>
</g>
<!-- Node11 -->
<g id="node11" class="node"><title>Node11</title>
<g id="a_node11"><a xlink:href="$classAP__HAL_1_1Util.html#ac57ef0a9815cd597ad5cab5d6c31c6c8" xlink:title="AP_HAL::Util::vsnprintf">
<polygon fill="white" stroke="black" points="245.533,-35.5 245.533,-53.5 363.237,-53.5 363.237,-35.5 245.533,-35.5"/>
<text text-anchor="middle" x="304.385" y="-41.5" font-family="Helvetica,sans-Serif" font-size="10.00">AP_HAL::Util::vsnprintf</text>
</a>
</g>
</g>
<!-- Node10&#45;&gt;Node11 -->
<g id="edge10" class="edge"><title>Node10&#45;&gt;Node11</title>
<path fill="none" stroke="midnightblue" d="M209.451,-44.5C217.874,-44.5 226.642,-44.5 235.29,-44.5"/>
<polygon fill="midnightblue" stroke="midnightblue" points="235.358,-48.0001 245.358,-44.5 235.358,-41.0001 235.358,-48.0001"/>
</g>
<!-- Node11&#45;&gt;Node4 -->
<g id="edge11" class="edge"><title>Node11&#45;&gt;Node4</title>
<path fill="none" stroke="midnightblue" d="M338.358,-53.5454C358.044,-58.9457 383.266,-65.8648 404.509,-71.6923"/>
<polygon fill="midnightblue" stroke="midnightblue" points="403.694,-75.0982 414.264,-74.3685 405.546,-68.3476 403.694,-75.0982"/>
</g>
<!-- Node12 -->
<g id="node12" class="node"><title>Node12</title>
<g id="a_node12"><a xlink:href="$classBufferPrinter.html#a0b98d7f59a6591097d2011d68359b8a0" xlink:title="BufferPrinter::write">
<polygon fill="white" stroke="black" points="399.237,-35.5 399.237,-53.5 497.864,-53.5 497.864,-35.5 399.237,-35.5"/>
<text text-anchor="middle" x="448.551" y="-41.5" font-family="Helvetica,sans-Serif" font-size="10.00">BufferPrinter::write</text>
</a>
</g>
</g>
<!-- Node11&#45;&gt;Node12 -->
<g id="edge12" class="edge"><title>Node11&#45;&gt;Node12</title>
<path fill="none" stroke="midnightblue" d="M363.62,-44.5C372.015,-44.5 380.658,-44.5 389.058,-44.5"/>
<polygon fill="midnightblue" stroke="midnightblue" points="389.152,-48.0001 399.152,-44.5 389.152,-41.0001 389.152,-48.0001"/>
</g>
</g>
</svg>
