<?xml version="1.0" encoding="UTF-8" standalone="no"?>
<!DOCTYPE svg PUBLIC "-//W3C//DTD SVG 1.1//EN"
 "http://www.w3.org/Graphics/SVG/1.1/DTD/svg11.dtd">
<!-- Generated by graphviz version 2.38.0 (20140413.2041)
 -->
<!-- Title: libraries/AP_HAL_PX4/RCOutput.cpp Pages: 1 -->
<svg width="1473pt" height="717pt"
 viewBox="0.00 0.00 1472.52 717.00" xmlns="http://www.w3.org/2000/svg" xmlns:xlink="http://www.w3.org/1999/xlink">
<g id="graph0" class="graph" transform="scale(1 1) rotate(0) translate(4 713)">
<title>libraries/AP_HAL_PX4/RCOutput.cpp</title>
<polygon fill="white" stroke="none" points="-4,4 -4,-713 1468.52,-713 1468.52,4 -4,4"/>
<!-- Node1 -->
<g id="node1" class="node"><title>Node1</title>
<polygon fill="#bfbfbf" stroke="black" points="931.099,-680.5 931.099,-708.5 1047.7,-708.5 1047.7,-680.5 931.099,-680.5"/>
<text text-anchor="start" x="939.099" y="-696.5" font-family="Helvetica,sans-Serif" font-size="10.00">libraries/AP_HAL_PX4</text>
<text text-anchor="middle" x="989.401" y="-686.5" font-family="Helvetica,sans-Serif" font-size="10.00">/RCOutput.cpp</text>
</g>
<!-- Node2 -->
<g id="node2" class="node"><title>Node2</title>
<g id="a_node2"><a xlink:href="$AP__HAL_8h.html" xlink:title="AP_HAL/AP_HAL.h">
<polygon fill="white" stroke="black" points="572.488,-440.5 572.488,-458.5 676.315,-458.5 676.315,-440.5 572.488,-440.5"/>
<text text-anchor="middle" x="624.401" y="-446.5" font-family="Helvetica,sans-Serif" font-size="10.00">AP_HAL/AP_HAL.h</text>
</a>
</g>
</g>
<!-- Node1&#45;&gt;Node2 -->
<g id="edge1" class="edge"><title>Node1&#45;&gt;Node2</title>
<path fill="none" stroke="midnightblue" d="M930.902,-689.349C873.85,-683.847 785.398,-671.41 713.401,-644 661.754,-624.337 634.397,-627.221 607.401,-579 587.498,-543.449 604.251,-493.909 615.766,-467.95"/>
<polygon fill="midnightblue" stroke="midnightblue" points="619.045,-469.202 620.118,-458.662 612.706,-466.232 619.045,-469.202"/>
</g>
<!-- Node30 -->
<g id="node30" class="node"><title>Node30</title>
<g id="a_node30"><a xlink:href="$PX4_2RCOutput_8h.html" xlink:title="RCOutput.h">
<polygon fill="white" stroke="black" points="722,-620.5 722,-638.5 790.803,-638.5 790.803,-620.5 722,-620.5"/>
<text text-anchor="middle" x="756.401" y="-626.5" font-family="Helvetica,sans-Serif" font-size="10.00">RCOutput.h</text>
</a>
</g>
</g>
<!-- Node1&#45;&gt;Node30 -->
<g id="edge68" class="edge"><title>Node1&#45;&gt;Node30</title>
<path fill="none" stroke="midnightblue" d="M936.384,-680.433C898.17,-670.834 845.435,-657.214 799.401,-644 796.652,-643.211 793.81,-642.371 790.959,-641.513"/>
<polygon fill="midnightblue" stroke="midnightblue" points="791.937,-638.152 781.35,-638.562 789.882,-644.843 791.937,-638.152"/>
</g>
<!-- Node38 -->
<g id="node38" class="node"><title>Node38</title>
<polygon fill="white" stroke="#bfbfbf" points="808.392,-620.5 808.392,-638.5 874.411,-638.5 874.411,-620.5 808.392,-620.5"/>
<text text-anchor="middle" x="841.401" y="-626.5" font-family="Helvetica,sans-Serif" font-size="10.00">sys/types.h</text>
</g>
<!-- Node1&#45;&gt;Node38 -->
<g id="edge80" class="edge"><title>Node1&#45;&gt;Node38</title>
<path fill="none" stroke="midnightblue" d="M958.736,-680.446C932.575,-669.31 895.257,-653.425 869.776,-642.578"/>
<polygon fill="midnightblue" stroke="midnightblue" points="870.88,-639.244 860.308,-638.548 868.138,-645.685 870.88,-639.244"/>
</g>
<!-- Node39 -->
<g id="node39" class="node"><title>Node39</title>
<polygon fill="white" stroke="#bfbfbf" points="892.283,-620.5 892.283,-638.5 950.52,-638.5 950.52,-620.5 892.283,-620.5"/>
<text text-anchor="middle" x="921.401" y="-626.5" font-family="Helvetica,sans-Serif" font-size="10.00">sys/stat.h</text>
</g>
<!-- Node1&#45;&gt;Node39 -->
<g id="edge81" class="edge"><title>Node1&#45;&gt;Node39</title>
<path fill="none" stroke="midnightblue" d="M975.312,-680.446C964.418,-670.354 949.314,-656.36 937.864,-645.752"/>
<polygon fill="midnightblue" stroke="midnightblue" points="939.999,-642.959 930.285,-638.73 935.242,-648.094 939.999,-642.959"/>
</g>
<!-- Node40 -->
<g id="node40" class="node"><title>Node40</title>
<polygon fill="white" stroke="#bfbfbf" points="968.062,-620.5 968.062,-638.5 1010.74,-638.5 1010.74,-620.5 968.062,-620.5"/>
<text text-anchor="middle" x="989.401" y="-626.5" font-family="Helvetica,sans-Serif" font-size="10.00">fcntl.h</text>
</g>
<!-- Node1&#45;&gt;Node40 -->
<g id="edge82" class="edge"><title>Node1&#45;&gt;Node40</title>
<path fill="none" stroke="midnightblue" d="M989.401,-680.446C989.401,-671.334 989.401,-659.041 989.401,-648.931"/>
<polygon fill="midnightblue" stroke="midnightblue" points="992.901,-648.73 989.401,-638.73 985.901,-648.73 992.901,-648.73"/>
</g>
<!-- Node41 -->
<g id="node41" class="node"><title>Node41</title>
<polygon fill="white" stroke="#bfbfbf" points="1028.89,-620.5 1028.89,-638.5 1079.91,-638.5 1079.91,-620.5 1028.89,-620.5"/>
<text text-anchor="middle" x="1054.4" y="-626.5" font-family="Helvetica,sans-Serif" font-size="10.00">unistd.h</text>
</g>
<!-- Node1&#45;&gt;Node41 -->
<g id="edge83" class="edge"><title>Node1&#45;&gt;Node41</title>
<path fill="none" stroke="midnightblue" d="M1002.87,-680.446C1013.28,-670.354 1027.72,-656.36 1038.67,-645.752"/>
<polygon fill="midnightblue" stroke="midnightblue" points="1041.17,-648.203 1045.91,-638.73 1036.29,-643.177 1041.17,-648.203"/>
</g>
<!-- Node42 -->
<g id="node42" class="node"><title>Node42</title>
<polygon fill="white" stroke="#bfbfbf" points="1097.87,-620.5 1097.87,-638.5 1228.93,-638.5 1228.93,-620.5 1097.87,-620.5"/>
<text text-anchor="middle" x="1163.4" y="-626.5" font-family="Helvetica,sans-Serif" font-size="10.00">drivers/drv_pwm_output.h</text>
</g>
<!-- Node1&#45;&gt;Node42 -->
<g id="edge84" class="edge"><title>Node1&#45;&gt;Node42</title>
<path fill="none" stroke="midnightblue" d="M1025.45,-680.446C1056.76,-669.113 1101.64,-652.861 1131.62,-642.007"/>
<polygon fill="midnightblue" stroke="midnightblue" points="1132.96,-645.243 1141.17,-638.548 1130.58,-638.662 1132.96,-645.243"/>
</g>
<!-- Node43 -->
<g id="node43" class="node"><title>Node43</title>
<polygon fill="white" stroke="#bfbfbf" points="1246.88,-615.5 1246.88,-643.5 1357.92,-643.5 1357.92,-615.5 1246.88,-615.5"/>
<text text-anchor="start" x="1254.88" y="-631.5" font-family="Helvetica,sans-Serif" font-size="10.00">uORB/topics/actuator</text>
<text text-anchor="middle" x="1302.4" y="-621.5" font-family="Helvetica,sans-Serif" font-size="10.00">_direct.h</text>
</g>
<!-- Node1&#45;&gt;Node43 -->
<g id="edge85" class="edge"><title>Node1&#45;&gt;Node43</title>
<path fill="none" stroke="midnightblue" d="M1047.8,-682.09C1096.02,-672.624 1166.52,-658.678 1236.67,-644.344"/>
<polygon fill="midnightblue" stroke="midnightblue" points="1237.47,-647.753 1246.56,-642.319 1236.06,-640.895 1237.47,-647.753"/>
</g>
<!-- Node44 -->
<g id="node44" class="node"><title>Node44</title>
<polygon fill="white" stroke="#bfbfbf" points="1376.28,-620.5 1376.28,-638.5 1464.52,-638.5 1464.52,-620.5 1376.28,-620.5"/>
<text text-anchor="middle" x="1420.4" y="-626.5" font-family="Helvetica,sans-Serif" font-size="10.00">drivers/drv_hrt.h</text>
</g>
<!-- Node1&#45;&gt;Node44 -->
<g id="edge86" class="edge"><title>Node1&#45;&gt;Node44</title>
<path fill="none" stroke="midnightblue" d="M1048.03,-688.012C1122.63,-680.527 1255.28,-665.541 1367.4,-644 1371.93,-643.13 1376.65,-642.104 1381.32,-641.013"/>
<polygon fill="midnightblue" stroke="midnightblue" points="1382.5,-644.328 1391.38,-638.555 1380.84,-637.528 1382.5,-644.328"/>
</g>
<!-- Node3 -->
<g id="node3" class="node"><title>Node3</title>
<polygon fill="white" stroke="#bfbfbf" points="766.281,-110.5 766.281,-128.5 814.522,-128.5 814.522,-110.5 766.281,-110.5"/>
<text text-anchor="middle" x="790.401" y="-116.5" font-family="Helvetica,sans-Serif" font-size="10.00">stdint.h</text>
</g>
<!-- Node2&#45;&gt;Node3 -->
<g id="edge2" class="edge"><title>Node2&#45;&gt;Node3</title>
<path fill="none" stroke="midnightblue" d="M644.238,-440.374C659.902,-433.018 681.241,-420.765 694.401,-404 760.503,-319.792 782.386,-187.519 788.411,-139.074"/>
<polygon fill="midnightblue" stroke="midnightblue" points="791.918,-139.211 789.594,-128.874 784.965,-138.404 791.918,-139.211"/>
</g>
<!-- Node4 -->
<g id="node4" class="node"><title>Node4</title>
<polygon fill="white" stroke="#bfbfbf" points="426.108,-110.5 426.108,-128.5 482.694,-128.5 482.694,-110.5 426.108,-110.5"/>
<text text-anchor="middle" x="454.401" y="-116.5" font-family="Helvetica,sans-Serif" font-size="10.00">stdbool.h</text>
</g>
<!-- Node2&#45;&gt;Node4 -->
<g id="edge3" class="edge"><title>Node2&#45;&gt;Node4</title>
<path fill="none" stroke="midnightblue" d="M603.125,-440.48C586.616,-433.253 564.275,-421.122 550.401,-404 482.853,-320.639 461.817,-187.326 456.206,-138.865"/>
<polygon fill="midnightblue" stroke="midnightblue" points="459.66,-138.255 455.115,-128.685 452.7,-139 459.66,-138.255"/>
</g>
<!-- Node5 -->
<g id="node5" class="node"><title>Node5</title>
<g id="a_node5"><a xlink:href="$AP__HAL__Namespace_8h.html" xlink:title="AP_HAL_Namespace.h">
<polygon fill="white" stroke="black" points="449.594,-55.5 449.594,-73.5 571.209,-73.5 571.209,-55.5 449.594,-55.5"/>
<text text-anchor="middle" x="510.401" y="-61.5" font-family="Helvetica,sans-Serif" font-size="10.00">AP_HAL_Namespace.h</text>
</a>
</g>
</g>
<!-- Node2&#45;&gt;Node5 -->
<g id="edge4" class="edge"><title>Node2&#45;&gt;Node5</title>
<path fill="none" stroke="midnightblue" d="M676.619,-441.009C679.588,-440.65 682.531,-440.311 685.401,-440 891.924,-417.655 953.345,-466.646 1151.4,-404 1204.13,-387.323 1258.4,-395.799 1258.4,-340.5 1258.4,-340.5 1258.4,-340.5 1258.4,-173.5 1258.4,-125.27 1215.77,-126.366 1170.4,-110 1063.78,-71.5401 729.202,-65.9331 581.584,-65.3817"/>
<polygon fill="midnightblue" stroke="midnightblue" points="581.295,-61.8809 571.284,-65.3504 581.273,-68.8809 581.295,-61.8809"/>
</g>
<!-- Node8 -->
<g id="node8" class="node"><title>Node8</title>
<g id="a_node8"><a xlink:href="$AP__HAL__Boards_8h.html" xlink:title="AP_HAL_Boards.h">
<polygon fill="white" stroke="black" points="970.431,-165.5 970.431,-183.5 1070.37,-183.5 1070.37,-165.5 970.431,-165.5"/>
<text text-anchor="middle" x="1020.4" y="-171.5" font-family="Helvetica,sans-Serif" font-size="10.00">AP_HAL_Boards.h</text>
</a>
</g>
</g>
<!-- Node2&#45;&gt;Node8 -->
<g id="edge7" class="edge"><title>Node2&#45;&gt;Node8</title>
<path fill="none" stroke="midnightblue" d="M667.741,-440.439C780.873,-419.105 1076.4,-361.376 1076.4,-340.5 1076.4,-340.5 1076.4,-340.5 1076.4,-283.5 1076.4,-247.44 1051.49,-211.441 1034.9,-191.461"/>
<polygon fill="midnightblue" stroke="midnightblue" points="1037.38,-188.972 1028.19,-183.695 1032.08,-193.549 1037.38,-188.972"/>
</g>
<!-- Node9 -->
<g id="node9" class="node"><title>Node9</title>
<g id="a_node9"><a xlink:href="$AP__HAL__Macros_8h.html" xlink:title="AP_HAL_Macros.h">
<polygon fill="white" stroke="black" points="230.882,-385.5 230.882,-403.5 331.921,-403.5 331.921,-385.5 230.882,-385.5"/>
<text text-anchor="middle" x="281.401" y="-391.5" font-family="Helvetica,sans-Serif" font-size="10.00">AP_HAL_Macros.h</text>
</a>
</g>
</g>
<!-- Node2&#45;&gt;Node9 -->
<g id="edge8" class="edge"><title>Node2&#45;&gt;Node9</title>
<path fill="none" stroke="midnightblue" d="M572.307,-440.45C510.49,-430.898 407.582,-414.997 342.187,-404.892"/>
<polygon fill="midnightblue" stroke="midnightblue" points="342.442,-401.391 332.025,-403.322 341.373,-408.308 342.442,-401.391"/>
</g>
<!-- Node10 -->
<g id="node10" class="node"><title>Node10</title>
<g id="a_node10"><a xlink:href="$AP__HAL__Main_8h.html" xlink:title="AP_HAL_Main.h">
<polygon fill="white" stroke="black" points="579.436,-385.5 579.436,-403.5 669.367,-403.5 669.367,-385.5 579.436,-385.5"/>
<text text-anchor="middle" x="624.401" y="-391.5" font-family="Helvetica,sans-Serif" font-size="10.00">AP_HAL_Main.h</text>
</a>
</g>
</g>
<!-- Node2&#45;&gt;Node10 -->
<g id="edge9" class="edge"><title>Node2&#45;&gt;Node10</title>
<path fill="none" stroke="midnightblue" d="M624.401,-440.219C624.401,-433.177 624.401,-422.808 624.401,-413.828"/>
<polygon fill="midnightblue" stroke="midnightblue" points="627.901,-413.55 624.401,-403.55 620.901,-413.55 627.901,-413.55"/>
</g>
<!-- Node11 -->
<g id="node11" class="node"><title>Node11</title>
<g id="a_node11"><a xlink:href="$HAL_8h.html" xlink:title="HAL.h">
<polygon fill="white" stroke="black" points="568.505,-330.5 568.505,-348.5 612.298,-348.5 612.298,-330.5 568.505,-330.5"/>
<text text-anchor="middle" x="590.401" y="-336.5" font-family="Helvetica,sans-Serif" font-size="10.00">HAL.h</text>
</a>
</g>
</g>
<!-- Node2&#45;&gt;Node11 -->
<g id="edge67" class="edge"><title>Node2&#45;&gt;Node11</title>
<path fill="none" stroke="midnightblue" d="M608.292,-440.407C595.379,-432.926 578.176,-420.481 570.401,-404 563.18,-388.691 570.766,-370.115 578.582,-357.022"/>
<polygon fill="midnightblue" stroke="midnightblue" points="581.558,-358.865 584.104,-348.581 575.7,-355.033 581.558,-358.865"/>
</g>
<!-- Node12 -->
<g id="node12" class="node"><title>Node12</title>
<g id="a_node12"><a xlink:href="$AnalogIn_8h.html" xlink:title="AnalogIn.h">
<polygon fill="white" stroke="black" points="71.4927,-220.5 71.4927,-238.5 135.31,-238.5 135.31,-220.5 71.4927,-220.5"/>
<text text-anchor="middle" x="103.401" y="-226.5" font-family="Helvetica,sans-Serif" font-size="10.00">AnalogIn.h</text>
</a>
</g>
</g>
<!-- Node2&#45;&gt;Node12 -->
<g id="edge49" class="edge"><title>Node2&#45;&gt;Node12</title>
<path fill="none" stroke="midnightblue" d="M572.446,-446.944C455.874,-442.988 181.167,-430.893 149.401,-404 103.046,-364.755 100.612,-284.698 102.09,-248.722"/>
<polygon fill="midnightblue" stroke="midnightblue" points="105.587,-248.88 102.657,-238.698 98.5979,-248.485 105.587,-248.88"/>
</g>
<!-- Node14 -->
<g id="node14" class="node"><title>Node14</title>
<g id="a_node14"><a xlink:href="$GPIO_8h.html" xlink:title="GPIO.h">
<polygon fill="white" stroke="black" points="502.729,-220.5 502.729,-238.5 552.074,-238.5 552.074,-220.5 502.729,-220.5"/>
<text text-anchor="middle" x="527.401" y="-226.5" font-family="Helvetica,sans-Serif" font-size="10.00">GPIO.h</text>
</a>
</g>
</g>
<!-- Node2&#45;&gt;Node14 -->
<g id="edge51" class="edge"><title>Node2&#45;&gt;Node14</title>
<path fill="none" stroke="midnightblue" d="M607.745,-440.496C593.964,-432.995 574.992,-420.472 564.401,-404 532.517,-354.407 527.628,-281.968 527.19,-248.58"/>
<polygon fill="midnightblue" stroke="midnightblue" points="530.69,-248.499 527.184,-238.501 523.69,-248.503 530.69,-248.499"/>
</g>
<!-- Node15 -->
<g id="node15" class="node"><title>Node15</title>
<g id="a_node15"><a xlink:href="$RCInput_8h.html" xlink:title="RCInput.h">
<polygon fill="white" stroke="black" points="347.889,-275.5 347.889,-293.5 408.914,-293.5 408.914,-275.5 347.889,-275.5"/>
<text text-anchor="middle" x="378.401" y="-281.5" font-family="Helvetica,sans-Serif" font-size="10.00">RCInput.h</text>
</a>
</g>
</g>
<!-- Node2&#45;&gt;Node15 -->
<g id="edge52" class="edge"><title>Node2&#45;&gt;Node15</title>
<path fill="none" stroke="midnightblue" d="M572.341,-442.628C520.437,-435.803 445.369,-422.992 423.401,-404 393.383,-378.048 383.327,-329.864 380.004,-303.643"/>
<polygon fill="midnightblue" stroke="midnightblue" points="383.472,-303.159 378.929,-293.588 376.512,-303.903 383.472,-303.159"/>
</g>
<!-- Node16 -->
<g id="node16" class="node"><title>Node16</title>
<g id="a_node16"><a xlink:href="$RCOutput_8h.html" xlink:title="RCOutput.h">
<polygon fill="white" stroke="black" points="768,-275.5 768,-293.5 836.803,-293.5 836.803,-275.5 768,-275.5"/>
<text text-anchor="middle" x="802.401" y="-281.5" font-family="Helvetica,sans-Serif" font-size="10.00">RCOutput.h</text>
</a>
</g>
</g>
<!-- Node2&#45;&gt;Node16 -->
<g id="edge53" class="edge"><title>Node2&#45;&gt;Node16</title>
<path fill="none" stroke="midnightblue" d="M676.594,-441.13C702.748,-435.049 733.264,-424.005 754.401,-404 783.331,-376.621 795.288,-329.401 799.852,-303.608"/>
<polygon fill="midnightblue" stroke="midnightblue" points="803.314,-304.123 801.424,-293.699 796.401,-303.027 803.314,-304.123"/>
</g>
<!-- Node17 -->
<g id="node17" class="node"><title>Node17</title>
<g id="a_node17"><a xlink:href="$SPIDriver_8h.html" xlink:title="SPIDriver.h">
<polygon fill="white" stroke="black" points="1142.11,-275.5 1142.11,-293.5 1208.69,-293.5 1208.69,-275.5 1142.11,-275.5"/>
<text text-anchor="middle" x="1175.4" y="-281.5" font-family="Helvetica,sans-Serif" font-size="10.00">SPIDriver.h</text>
</a>
</g>
</g>
<!-- Node2&#45;&gt;Node17 -->
<g id="edge48" class="edge"><title>Node2&#45;&gt;Node17</title>
<path fill="none" stroke="midnightblue" d="M676.62,-441.023C679.589,-440.66 682.532,-440.316 685.401,-440 783.576,-429.18 1049.01,-462.758 1128.4,-404 1160.63,-380.144 1170.78,-330.697 1173.96,-303.833"/>
<polygon fill="midnightblue" stroke="midnightblue" points="1177.48,-303.84 1174.97,-293.547 1170.51,-303.161 1177.48,-303.84"/>
</g>
<!-- Node18 -->
<g id="node18" class="node"><title>Node18</title>
<g id="a_node18"><a xlink:href="$Storage_8h.html" xlink:title="Storage.h">
<polygon fill="white" stroke="black" points="854.719,-275.5 854.719,-293.5 914.083,-293.5 914.083,-275.5 854.719,-275.5"/>
<text text-anchor="middle" x="884.401" y="-281.5" font-family="Helvetica,sans-Serif" font-size="10.00">Storage.h</text>
</a>
</g>
</g>
<!-- Node2&#45;&gt;Node18 -->
<g id="edge50" class="edge"><title>Node2&#45;&gt;Node18</title>
<path fill="none" stroke="midnightblue" d="M676.586,-440.532C707.36,-434.114 746.083,-422.935 776.401,-404 819.736,-376.936 856.45,-327.763 873.76,-302.098"/>
<polygon fill="midnightblue" stroke="midnightblue" points="876.84,-303.784 879.417,-293.508 870.994,-299.934 876.84,-303.784"/>
</g>
<!-- Node19 -->
<g id="node19" class="node"><title>Node19</title>
<g id="a_node19"><a xlink:href="$UARTDriver_8h.html" xlink:title="UARTDriver.h">
<polygon fill="white" stroke="black" points="579.649,-275.5 579.649,-293.5 657.153,-293.5 657.153,-275.5 579.649,-275.5"/>
<text text-anchor="middle" x="618.401" y="-281.5" font-family="Helvetica,sans-Serif" font-size="10.00">UARTDriver.h</text>
</a>
</g>
</g>
<!-- Node2&#45;&gt;Node19 -->
<g id="edge44" class="edge"><title>Node2&#45;&gt;Node19</title>
<path fill="none" stroke="midnightblue" d="M640.51,-440.407C653.424,-432.926 670.627,-420.481 678.401,-404 682.004,-396.363 680.664,-393.136 678.401,-385 669.388,-352.6 646.668,-320.201 631.916,-301.543"/>
<polygon fill="midnightblue" stroke="midnightblue" points="634.436,-299.094 625.409,-293.547 629.006,-303.513 634.436,-299.094"/>
</g>
<!-- Node22 -->
<g id="node22" class="node"><title>Node22</title>
<g id="a_node22"><a xlink:href="$BetterStream_8h.html" xlink:title="utility/BetterStream.h">
<polygon fill="white" stroke="black" points="247.995,-220.5 247.995,-238.5 356.808,-238.5 356.808,-220.5 247.995,-220.5"/>
<text text-anchor="middle" x="302.401" y="-226.5" font-family="Helvetica,sans-Serif" font-size="10.00">utility/BetterStream.h</text>
</a>
</g>
</g>
<!-- Node2&#45;&gt;Node22 -->
<g id="edge66" class="edge"><title>Node2&#45;&gt;Node22</title>
<path fill="none" stroke="midnightblue" d="M572.25,-442.849C515.99,-435.911 430.899,-422.716 404.401,-404 348.776,-364.709 318.727,-284.676 307.552,-248.714"/>
<polygon fill="midnightblue" stroke="midnightblue" points="310.779,-247.286 304.579,-238.695 304.068,-249.277 310.779,-247.286"/>
</g>
<!-- Node24 -->
<g id="node24" class="node"><title>Node24</title>
<g id="a_node24"><a xlink:href="$Stream_8h.html" xlink:title="Stream.h">
<polygon fill="white" stroke="black" points="130.116,-165.5 130.116,-183.5 186.687,-183.5 186.687,-165.5 130.116,-165.5"/>
<text text-anchor="middle" x="158.401" y="-171.5" font-family="Helvetica,sans-Serif" font-size="10.00">Stream.h</text>
</a>
</g>
</g>
<!-- Node2&#45;&gt;Node24 -->
<g id="edge65" class="edge"><title>Node2&#45;&gt;Node24</title>
<path fill="none" stroke="midnightblue" d="M572.328,-448.485C473.861,-447.574 264.825,-441.172 204.401,-404 175.788,-386.398 163.401,-374.094 163.401,-340.5 163.401,-340.5 163.401,-340.5 163.401,-283.5 163.401,-251.984 161.25,-215.35 159.77,-193.869"/>
<polygon fill="midnightblue" stroke="midnightblue" points="163.242,-193.347 159.035,-183.623 156.26,-193.848 163.242,-193.347"/>
</g>
<!-- Node25 -->
<g id="node25" class="node"><title>Node25</title>
<g id="a_node25"><a xlink:href="$Print_8h.html" xlink:title="Print.h">
<polygon fill="white" stroke="black" points="31.9507,-110.5 31.9507,-128.5 76.8521,-128.5 76.8521,-110.5 31.9507,-110.5"/>
<text text-anchor="middle" x="54.4014" y="-116.5" font-family="Helvetica,sans-Serif" font-size="10.00">Print.h</text>
</a>
</g>
</g>
<!-- Node2&#45;&gt;Node25 -->
<g id="edge64" class="edge"><title>Node2&#45;&gt;Node25</title>
<path fill="none" stroke="midnightblue" d="M572.404,-447.362C462.337,-444.384 209.362,-434.357 129.401,-404 84.9823,-387.136 43.4014,-388.012 43.4014,-340.5 43.4014,-340.5 43.4014,-340.5 43.4014,-228.5 43.4014,-196.708 48.1773,-159.922 51.4353,-138.526"/>
<polygon fill="midnightblue" stroke="midnightblue" points="54.8999,-139.025 53.0082,-128.6 47.9861,-137.929 54.8999,-139.025"/>
</g>
<!-- Node26 -->
<g id="node26" class="node"><title>Node26</title>
<g id="a_node26"><a xlink:href="$I2CDriver_8h.html" xlink:title="I2CDriver.h">
<polygon fill="white" stroke="black" points="1126.39,-165.5 1126.39,-183.5 1192.41,-183.5 1192.41,-165.5 1126.39,-165.5"/>
<text text-anchor="middle" x="1159.4" y="-171.5" font-family="Helvetica,sans-Serif" font-size="10.00">I2CDriver.h</text>
</a>
</g>
</g>
<!-- Node2&#45;&gt;Node26 -->
<g id="edge45" class="edge"><title>Node2&#45;&gt;Node26</title>
<path fill="none" stroke="midnightblue" d="M676.564,-440.844C753.051,-429.552 889.025,-409.204 911.401,-404 1003.48,-382.587 1114.4,-435.033 1114.4,-340.5 1114.4,-340.5 1114.4,-340.5 1114.4,-283.5 1114.4,-248.955 1134.26,-212.645 1147.59,-192.161"/>
<polygon fill="midnightblue" stroke="midnightblue" points="1150.62,-193.931 1153.33,-183.689 1144.83,-190.005 1150.62,-193.931"/>
</g>
<!-- Node27 -->
<g id="node27" class="node"><title>Node27</title>
<g id="a_node27"><a xlink:href="$Scheduler_8h.html" xlink:title="Scheduler.h">
<polygon fill="white" stroke="black" points="919.99,-220.5 919.99,-238.5 988.812,-238.5 988.812,-220.5 919.99,-220.5"/>
<text text-anchor="middle" x="954.401" y="-226.5" font-family="Helvetica,sans-Serif" font-size="10.00">Scheduler.h</text>
</a>
</g>
</g>
<!-- Node2&#45;&gt;Node27 -->
<g id="edge54" class="edge"><title>Node2&#45;&gt;Node27</title>
<path fill="none" stroke="midnightblue" d="M666.943,-440.448C712.084,-431.462 780.056,-416.536 803.401,-404 867.143,-369.771 880.107,-351.967 923.401,-294 933.944,-279.885 942.414,-261.623 947.819,-248.309"/>
<polygon fill="midnightblue" stroke="midnightblue" points="951.128,-249.455 951.477,-238.866 944.601,-246.926 951.128,-249.455"/>
</g>
<!-- Node28 -->
<g id="node28" class="node"><title>Node28</title>
<g id="a_node28"><a xlink:href="$Semaphores_8h.html" xlink:title="Semaphores.h">
<polygon fill="white" stroke="black" points="1286.88,-330.5 1286.88,-348.5 1367.92,-348.5 1367.92,-330.5 1286.88,-330.5"/>
<text text-anchor="middle" x="1327.4" y="-336.5" font-family="Helvetica,sans-Serif" font-size="10.00">Semaphores.h</text>
</a>
</g>
</g>
<!-- Node2&#45;&gt;Node28 -->
<g id="edge59" class="edge"><title>Node2&#45;&gt;Node28</title>
<path fill="none" stroke="midnightblue" d="M676.613,-440.955C679.584,-440.609 682.529,-440.288 685.401,-440 815.44,-426.972 1155.25,-461.917 1272.4,-404 1292.78,-393.926 1308.73,-372.581 1318.09,-357.424"/>
<polygon fill="midnightblue" stroke="midnightblue" points="1321.26,-358.939 1323.27,-348.537 1315.21,-355.413 1321.26,-358.939"/>
</g>
<!-- Node29 -->
<g id="node29" class="node"><title>Node29</title>
<g id="a_node29"><a xlink:href="$Util_8h.html" xlink:title="Util.h">
<polygon fill="white" stroke="black" points="191.01,-220.5 191.01,-238.5 229.793,-238.5 229.793,-220.5 191.01,-220.5"/>
<text text-anchor="middle" x="210.401" y="-226.5" font-family="Helvetica,sans-Serif" font-size="10.00">Util.h</text>
</a>
</g>
</g>
<!-- Node2&#45;&gt;Node29 -->
<g id="edge61" class="edge"><title>Node2&#45;&gt;Node29</title>
<path fill="none" stroke="midnightblue" d="M572.29,-446.424C468.795,-441.781 245.215,-428.951 221.401,-404 180.974,-361.641 195.503,-283.842 204.911,-248.645"/>
<polygon fill="midnightblue" stroke="midnightblue" points="208.339,-249.389 207.71,-238.813 201.606,-247.473 208.339,-249.389"/>
</g>
<!-- Node6 -->
<g id="node6" class="node"><title>Node6</title>
<polygon fill="white" stroke="#bfbfbf" points="323.005,-0.5 323.005,-18.5 371.798,-18.5 371.798,-0.5 323.005,-0.5"/>
<text text-anchor="middle" x="347.401" y="-6.5" font-family="Helvetica,sans-Serif" font-size="10.00">string.h</text>
</g>
<!-- Node5&#45;&gt;Node6 -->
<g id="edge5" class="edge"><title>Node5&#45;&gt;Node6</title>
<path fill="none" stroke="midnightblue" d="M485.645,-55.4504C457.84,-46.4094 412.54,-31.6802 381.422,-21.5618"/>
<polygon fill="midnightblue" stroke="midnightblue" points="382.449,-18.2154 371.856,-18.4517 380.284,-24.8724 382.449,-18.2154"/>
</g>
<!-- Node7 -->
<g id="node7" class="node"><title>Node7</title>
<g id="a_node7"><a xlink:href="$functor_8h.html" xlink:title="utility/functor.h">
<polygon fill="white" stroke="black" points="470.438,-0.5 470.438,-18.5 550.364,-18.5 550.364,-0.5 470.438,-0.5"/>
<text text-anchor="middle" x="510.401" y="-6.5" font-family="Helvetica,sans-Serif" font-size="10.00">utility/functor.h</text>
</a>
</g>
</g>
<!-- Node5&#45;&gt;Node7 -->
<g id="edge6" class="edge"><title>Node5&#45;&gt;Node7</title>
<path fill="none" stroke="midnightblue" d="M510.401,-55.2188C510.401,-48.1769 510.401,-37.8083 510.401,-28.8277"/>
<polygon fill="midnightblue" stroke="midnightblue" points="513.901,-28.5495 510.401,-18.5496 506.901,-28.5496 513.901,-28.5495"/>
</g>
<!-- Node10&#45;&gt;Node11 -->
<g id="edge10" class="edge"><title>Node10&#45;&gt;Node11</title>
<path fill="none" stroke="midnightblue" d="M619.089,-385.219C614.27,-377.707 607.024,-366.411 601.019,-357.052"/>
<polygon fill="midnightblue" stroke="midnightblue" points="603.911,-355.077 595.565,-348.55 598.019,-358.856 603.911,-355.077"/>
</g>
<!-- Node11&#45;&gt;Node5 -->
<g id="edge11" class="edge"><title>Node11&#45;&gt;Node5</title>
<path fill="none" stroke="midnightblue" d="M578.991,-330.163C545.344,-304.725 447.032,-224.015 417.401,-129 414.887,-120.938 412.9,-117.144 417.401,-110 427.545,-93.9005 445.303,-83.4982 462.601,-76.8378"/>
<polygon fill="midnightblue" stroke="midnightblue" points="463.829,-80.1161 472.113,-73.51 461.518,-73.5088 463.829,-80.1161"/>
</g>
<!-- Node11&#45;&gt;Node12 -->
<g id="edge12" class="edge"><title>Node11&#45;&gt;Node12</title>
<path fill="none" stroke="midnightblue" d="M568.361,-335.285C524.389,-328.721 422.741,-312.802 338.401,-294 267.456,-278.184 185.766,-254.957 139.792,-241.417"/>
<polygon fill="midnightblue" stroke="midnightblue" points="140.576,-237.999 129.994,-238.518 138.59,-244.711 140.576,-237.999"/>
</g>
<!-- Node11&#45;&gt;Node14 -->
<g id="edge15" class="edge"><title>Node11&#45;&gt;Node14</title>
<path fill="none" stroke="midnightblue" d="M585.666,-330.382C575.45,-312.869 551.154,-271.218 537.379,-247.605"/>
<polygon fill="midnightblue" stroke="midnightblue" points="540.254,-245.586 532.192,-238.712 534.207,-249.113 540.254,-245.586"/>
</g>
<!-- Node11&#45;&gt;Node15 -->
<g id="edge18" class="edge"><title>Node11&#45;&gt;Node15</title>
<path fill="none" stroke="midnightblue" d="M568.114,-332.928C532.806,-324.101 463.475,-306.768 419.12,-295.68"/>
<polygon fill="midnightblue" stroke="midnightblue" points="419.787,-292.239 409.237,-293.209 418.089,-299.03 419.787,-292.239"/>
</g>
<!-- Node11&#45;&gt;Node16 -->
<g id="edge20" class="edge"><title>Node11&#45;&gt;Node16</title>
<path fill="none" stroke="midnightblue" d="M612.688,-332.928C647.602,-324.2 715.782,-307.155 760.187,-296.054"/>
<polygon fill="midnightblue" stroke="midnightblue" points="761.252,-299.395 770.104,-293.574 759.554,-292.604 761.252,-299.395"/>
</g>
<!-- Node11&#45;&gt;Node17 -->
<g id="edge22" class="edge"><title>Node11&#45;&gt;Node17</title>
<path fill="none" stroke="midnightblue" d="M612.62,-336.487C699.227,-328.641 1015.14,-300.019 1131.76,-289.454"/>
<polygon fill="midnightblue" stroke="midnightblue" points="1132.12,-292.936 1141.76,-288.547 1131.49,-285.964 1132.12,-292.936"/>
</g>
<!-- Node11&#45;&gt;Node18 -->
<g id="edge24" class="edge"><title>Node11&#45;&gt;Node18</title>
<path fill="none" stroke="midnightblue" d="M612.63,-334.942C655.433,-328.023 752.483,-312.003 844.574,-294.091"/>
<polygon fill="midnightblue" stroke="midnightblue" points="845.476,-297.481 854.617,-292.126 844.131,-290.611 845.476,-297.481"/>
</g>
<!-- Node11&#45;&gt;Node19 -->
<g id="edge27" class="edge"><title>Node11&#45;&gt;Node19</title>
<path fill="none" stroke="midnightblue" d="M594.776,-330.219C598.662,-322.864 604.465,-311.88 609.347,-302.639"/>
<polygon fill="midnightblue" stroke="midnightblue" points="612.572,-304.026 614.149,-293.55 606.383,-300.757 612.572,-304.026"/>
</g>
<!-- Node12&#45;&gt;Node5 -->
<g id="edge14" class="edge"><title>Node12&#45;&gt;Node5</title>
<path fill="none" stroke="midnightblue" d="M104.377,-220.146C106.153,-207.465 110.763,-182.937 121.401,-165 139.197,-134.995 146.059,-125.319 177.401,-110 222.172,-88.1178 355.534,-75.6215 439.277,-69.7304"/>
<polygon fill="midnightblue" stroke="midnightblue" points="439.751,-73.2062 449.487,-69.0275 439.27,-66.2227 439.751,-73.2062"/>
</g>
<!-- Node13 -->
<g id="node13" class="node"><title>Node13</title>
<polygon fill="white" stroke="#bfbfbf" points="0,-55.5 0,-73.5 58.8027,-73.5 58.8027,-55.5 0,-55.5"/>
<text text-anchor="middle" x="29.4014" y="-61.5" font-family="Helvetica,sans-Serif" font-size="10.00">inttypes.h</text>
</g>
<!-- Node12&#45;&gt;Node13 -->
<g id="edge13" class="edge"><title>Node12&#45;&gt;Node13</title>
<path fill="none" stroke="midnightblue" d="M93.5519,-220.48C75.4693,-205.039 37.5373,-169.141 23.4014,-129 18.2238,-114.297 20.5543,-96.5644 23.7014,-83.5789"/>
<polygon fill="midnightblue" stroke="midnightblue" points="27.1739,-84.159 26.5091,-73.5851 20.4348,-82.2657 27.1739,-84.159"/>
</g>
<!-- Node14&#45;&gt;Node3 -->
<g id="edge16" class="edge"><title>Node14&#45;&gt;Node3</title>
<path fill="none" stroke="midnightblue" d="M552.187,-224.581C585.745,-218.69 647.002,-205.851 695.401,-184 724.458,-170.882 754.471,-149.21 772.789,-134.893"/>
<polygon fill="midnightblue" stroke="midnightblue" points="775.143,-137.493 780.786,-128.526 770.783,-132.016 775.143,-137.493"/>
</g>
<!-- Node14&#45;&gt;Node5 -->
<g id="edge17" class="edge"><title>Node14&#45;&gt;Node5</title>
<path fill="none" stroke="midnightblue" d="M519.998,-220.387C512.881,-211.99 502.603,-198.143 498.401,-184 488.132,-149.434 497.422,-106.974 504.389,-83.414"/>
<polygon fill="midnightblue" stroke="midnightblue" points="507.767,-84.3384 507.437,-73.7487 501.091,-82.2328 507.767,-84.3384"/>
</g>
<!-- Node15&#45;&gt;Node5 -->
<g id="edge19" class="edge"><title>Node15&#45;&gt;Node5</title>
<path fill="none" stroke="midnightblue" d="M377.518,-275.342C374.367,-244.664 364.88,-136.61 384.401,-110 397.61,-91.9946 418.7,-81.238 439.877,-74.8247"/>
<polygon fill="midnightblue" stroke="midnightblue" points="440.86,-78.1844 449.584,-72.1732 439.016,-71.4317 440.86,-78.1844"/>
</g>
<!-- Node16&#45;&gt;Node5 -->
<g id="edge21" class="edge"><title>Node16&#45;&gt;Node5</title>
<path fill="none" stroke="midnightblue" d="M807.135,-275.366C822.285,-248.157 866.159,-159.267 823.401,-110 792.708,-74.6343 663.875,-66.6436 581.365,-65.247"/>
<polygon fill="midnightblue" stroke="midnightblue" points="581.342,-61.7464 571.293,-65.1051 581.243,-68.7457 581.342,-61.7464"/>
</g>
<!-- Node17&#45;&gt;Node5 -->
<g id="edge23" class="edge"><title>Node17&#45;&gt;Node5</title>
<path fill="none" stroke="midnightblue" d="M1180.58,-275.362C1192.44,-255.602 1219.24,-203.856 1201.4,-165 1185.75,-130.916 1172.08,-124.272 1137.4,-110 1038.58,-69.3341 723.992,-64.845 581.614,-64.9805"/>
<polygon fill="midnightblue" stroke="midnightblue" points="581.249,-61.4811 571.255,-64.9989 581.261,-68.481 581.249,-61.4811"/>
</g>
<!-- Node18&#45;&gt;Node3 -->
<g id="edge25" class="edge"><title>Node18&#45;&gt;Node3</title>
<path fill="none" stroke="midnightblue" d="M879.611,-275.193C864.9,-249.684 820.173,-172.126 800.207,-137.504"/>
<polygon fill="midnightblue" stroke="midnightblue" points="803.099,-135.511 795.071,-128.597 797.035,-139.008 803.099,-135.511"/>
</g>
<!-- Node18&#45;&gt;Node5 -->
<g id="edge26" class="edge"><title>Node18&#45;&gt;Node5</title>
<path fill="none" stroke="midnightblue" d="M914.219,-278.468C979.148,-266.171 1124.05,-230.689 1079.4,-165 1024.3,-83.9364 721.569,-68.6562 581.521,-65.962"/>
<polygon fill="midnightblue" stroke="midnightblue" points="581.379,-62.459 571.319,-65.7825 581.256,-69.4579 581.379,-62.459"/>
</g>
<!-- Node19&#45;&gt;Node3 -->
<g id="edge28" class="edge"><title>Node19&#45;&gt;Node3</title>
<path fill="none" stroke="midnightblue" d="M627.466,-275.356C646.164,-258.512 690.284,-218.532 726.401,-184 743.265,-167.876 762.189,-149 775.056,-136.044"/>
<polygon fill="midnightblue" stroke="midnightblue" points="777.662,-138.386 782.213,-128.819 772.689,-133.46 777.662,-138.386"/>
</g>
<!-- Node19&#45;&gt;Node5 -->
<g id="edge33" class="edge"><title>Node19&#45;&gt;Node5</title>
<path fill="none" stroke="midnightblue" d="M610.943,-275.217C590.34,-252.304 533.992,-189.406 531.401,-184 515.648,-151.131 511.613,-108.03 510.641,-83.9063"/>
<polygon fill="midnightblue" stroke="midnightblue" points="514.135,-83.6203 510.372,-73.7162 507.137,-83.8052 514.135,-83.6203"/>
</g>
<!-- Node20 -->
<g id="node20" class="node"><title>Node20</title>
<g id="a_node20"><a xlink:href="$AP__Common_8h.html" xlink:title="Common definitions and utility routines for the ArduPilot libraries. ">
<polygon fill="white" stroke="black" points="540.375,-165.5 540.375,-183.5 686.428,-183.5 686.428,-165.5 540.375,-165.5"/>
<text text-anchor="middle" x="613.401" y="-171.5" font-family="Helvetica,sans-Serif" font-size="10.00">AP_Common/AP_Common.h</text>
</a>
</g>
</g>
<!-- Node19&#45;&gt;Node20 -->
<g id="edge29" class="edge"><title>Node19&#45;&gt;Node20</title>
<path fill="none" stroke="midnightblue" d="M618.026,-275.382C617.229,-258.182 615.355,-217.698 614.253,-193.887"/>
<polygon fill="midnightblue" stroke="midnightblue" points="617.74,-193.539 613.782,-183.712 610.748,-193.863 617.74,-193.539"/>
</g>
<!-- Node19&#45;&gt;Node22 -->
<g id="edge34" class="edge"><title>Node19&#45;&gt;Node22</title>
<path fill="none" stroke="midnightblue" d="M579.337,-276.948C524.32,-267.72 423.636,-250.834 360.017,-240.163"/>
<polygon fill="midnightblue" stroke="midnightblue" points="360.578,-236.709 350.137,-238.506 359.42,-243.612 360.578,-236.709"/>
</g>
<!-- Node20&#45;&gt;Node3 -->
<g id="edge30" class="edge"><title>Node20&#45;&gt;Node3</title>
<path fill="none" stroke="midnightblue" d="M640.284,-165.45C671.309,-156.16 722.392,-140.864 756.216,-130.736"/>
<polygon fill="midnightblue" stroke="midnightblue" points="757.542,-133.993 766.118,-127.771 755.534,-127.287 757.542,-133.993"/>
</g>
<!-- Node20&#45;&gt;Node4 -->
<g id="edge32" class="edge"><title>Node20&#45;&gt;Node4</title>
<path fill="none" stroke="midnightblue" d="M589.253,-165.45C562.325,-156.475 518.578,-141.892 488.245,-131.781"/>
<polygon fill="midnightblue" stroke="midnightblue" points="489.11,-128.38 478.516,-128.538 486.896,-135.021 489.11,-128.38"/>
</g>
<!-- Node21 -->
<g id="node21" class="node"><title>Node21</title>
<polygon fill="white" stroke="#bfbfbf" points="589.559,-110.5 589.559,-128.5 637.244,-128.5 637.244,-110.5 589.559,-110.5"/>
<text text-anchor="middle" x="613.401" y="-116.5" font-family="Helvetica,sans-Serif" font-size="10.00">stdlib.h</text>
</g>
<!-- Node20&#45;&gt;Node21 -->
<g id="edge31" class="edge"><title>Node20&#45;&gt;Node21</title>
<path fill="none" stroke="midnightblue" d="M613.401,-165.219C613.401,-158.177 613.401,-147.808 613.401,-138.828"/>
<polygon fill="midnightblue" stroke="midnightblue" points="616.901,-138.55 613.401,-128.55 609.901,-138.55 616.901,-138.55"/>
</g>
<!-- Node22&#45;&gt;Node5 -->
<g id="edge37" class="edge"><title>Node22&#45;&gt;Node5</title>
<path fill="none" stroke="midnightblue" d="M302.961,-220.193C304.871,-198.64 313.021,-140.487 346.401,-110 371.562,-87.0211 407.402,-75.7188 439.164,-70.2343"/>
<polygon fill="midnightblue" stroke="midnightblue" points="439.973,-73.6505 449.314,-68.6506 438.894,-66.7342 439.973,-73.6505"/>
</g>
<!-- Node22&#45;&gt;Node20 -->
<g id="edge36" class="edge"><title>Node22&#45;&gt;Node20</title>
<path fill="none" stroke="midnightblue" d="M349.636,-220.45C405.053,-211.006 496.892,-195.355 556.268,-185.237"/>
<polygon fill="midnightblue" stroke="midnightblue" points="556.963,-188.669 566.233,-183.538 555.787,-181.768 556.963,-188.669"/>
</g>
<!-- Node23 -->
<g id="node23" class="node"><title>Node23</title>
<polygon fill="white" stroke="#bfbfbf" points="242.335,-165.5 242.335,-183.5 294.468,-183.5 294.468,-165.5 242.335,-165.5"/>
<text text-anchor="middle" x="268.401" y="-171.5" font-family="Helvetica,sans-Serif" font-size="10.00">stdarg.h</text>
</g>
<!-- Node22&#45;&gt;Node23 -->
<g id="edge35" class="edge"><title>Node22&#45;&gt;Node23</title>
<path fill="none" stroke="midnightblue" d="M297.089,-220.219C292.27,-212.707 285.024,-201.411 279.019,-192.052"/>
<polygon fill="midnightblue" stroke="midnightblue" points="281.911,-190.077 273.565,-183.55 276.019,-193.856 281.911,-190.077"/>
</g>
<!-- Node22&#45;&gt;Node24 -->
<g id="edge38" class="edge"><title>Node22&#45;&gt;Node24</title>
<path fill="none" stroke="midnightblue" d="M280.531,-220.45C256.426,-211.578 217.438,-197.229 190.011,-187.134"/>
<polygon fill="midnightblue" stroke="midnightblue" points="191.071,-183.795 180.478,-183.625 188.653,-190.364 191.071,-183.795"/>
</g>
<!-- Node24&#45;&gt;Node5 -->
<g id="edge39" class="edge"><title>Node24&#45;&gt;Node5</title>
<path fill="none" stroke="midnightblue" d="M161.273,-165.253C166.598,-151.308 179.408,-123.294 200.401,-110 238.923,-85.6065 360.03,-74.0754 438.975,-69.0233"/>
<polygon fill="midnightblue" stroke="midnightblue" points="439.578,-72.4928 449.343,-68.3815 439.145,-65.5062 439.578,-72.4928"/>
</g>
<!-- Node24&#45;&gt;Node25 -->
<g id="edge40" class="edge"><title>Node24&#45;&gt;Node25</title>
<path fill="none" stroke="midnightblue" d="M142.606,-165.45C125.808,-156.89 99.0018,-143.229 79.3454,-133.212"/>
<polygon fill="midnightblue" stroke="midnightblue" points="80.8443,-130.047 70.3454,-128.625 77.6659,-136.284 80.8443,-130.047"/>
</g>
<!-- Node25&#45;&gt;Node5 -->
<g id="edge41" class="edge"><title>Node25&#45;&gt;Node5</title>
<path fill="none" stroke="midnightblue" d="M77.1657,-112.667C81.5386,-111.677 86.0965,-110.733 90.4014,-110 212.18,-89.2573 355.573,-76.5434 439.39,-70.2744"/>
<polygon fill="midnightblue" stroke="midnightblue" points="439.846,-73.7504 449.561,-69.5235 439.331,-66.7694 439.846,-73.7504"/>
</g>
<!-- Node25&#45;&gt;Node6 -->
<g id="edge43" class="edge"><title>Node25&#45;&gt;Node6</title>
<path fill="none" stroke="midnightblue" d="M76.424,-110.382C127.88,-91.4158 256.145,-44.1372 315.873,-22.1213"/>
<polygon fill="midnightblue" stroke="midnightblue" points="317.35,-25.307 325.523,-18.5644 314.929,-18.739 317.35,-25.307"/>
</g>
<!-- Node25&#45;&gt;Node13 -->
<g id="edge42" class="edge"><title>Node25&#45;&gt;Node13</title>
<path fill="none" stroke="midnightblue" d="M50.4951,-110.219C47.0258,-102.864 41.8448,-91.8801 37.4858,-82.639"/>
<polygon fill="midnightblue" stroke="midnightblue" points="40.6301,-81.1007 33.1983,-73.5496 34.2991,-84.0871 40.6301,-81.1007"/>
</g>
<!-- Node26&#45;&gt;Node3 -->
<g id="edge46" class="edge"><title>Node26&#45;&gt;Node3</title>
<path fill="none" stroke="midnightblue" d="M1126.33,-168.75C1056.67,-158.745 895.45,-135.588 824.716,-125.429"/>
<polygon fill="midnightblue" stroke="midnightblue" points="824.958,-121.928 814.562,-123.97 823.963,-128.857 824.958,-121.928"/>
</g>
<!-- Node26&#45;&gt;Node5 -->
<g id="edge47" class="edge"><title>Node26&#45;&gt;Node5</title>
<path fill="none" stroke="midnightblue" d="M1155.99,-165.074C1149.75,-150.858 1134.98,-122.446 1112.4,-110 1066.94,-84.9459 731.288,-72.0184 581.834,-67.4535"/>
<polygon fill="midnightblue" stroke="midnightblue" points="581.503,-63.942 571.402,-67.1392 581.292,-70.9388 581.503,-63.942"/>
</g>
<!-- Node27&#45;&gt;Node3 -->
<g id="edge55" class="edge"><title>Node27&#45;&gt;Node3</title>
<path fill="none" stroke="midnightblue" d="M942.075,-220.382C914.175,-202.009 845.932,-157.069 811.298,-134.261"/>
<polygon fill="midnightblue" stroke="midnightblue" points="813.148,-131.289 802.871,-128.712 809.298,-137.135 813.148,-131.289"/>
</g>
<!-- Node27&#45;&gt;Node5 -->
<g id="edge58" class="edge"><title>Node27&#45;&gt;Node5</title>
<path fill="none" stroke="midnightblue" d="M954.715,-220.26C955.055,-198.353 952.664,-138.408 918.401,-110 893.036,-88.9688 691.313,-75.0971 581.333,-69.0188"/>
<polygon fill="midnightblue" stroke="midnightblue" points="581.485,-65.5219 571.309,-68.4723 581.104,-72.5116 581.485,-65.5219"/>
</g>
<!-- Node27&#45;&gt;Node8 -->
<g id="edge57" class="edge"><title>Node27&#45;&gt;Node8</title>
<path fill="none" stroke="midnightblue" d="M964.425,-220.45C974.408,-212.434 989.958,-199.947 1002.14,-190.166"/>
<polygon fill="midnightblue" stroke="midnightblue" points="1004.68,-192.616 1010.28,-183.625 1000.29,-187.158 1004.68,-192.616"/>
</g>
<!-- Node27&#45;&gt;Node20 -->
<g id="edge56" class="edge"><title>Node27&#45;&gt;Node20</title>
<path fill="none" stroke="midnightblue" d="M919.828,-223.126C862.456,-214.209 746.816,-196.236 675.158,-185.098"/>
<polygon fill="midnightblue" stroke="midnightblue" points="675.335,-181.584 664.916,-183.507 674.26,-188.501 675.335,-181.584"/>
</g>
<!-- Node28&#45;&gt;Node5 -->
<g id="edge60" class="edge"><title>Node28&#45;&gt;Node5</title>
<path fill="none" stroke="midnightblue" d="M1325.37,-330.432C1321.07,-312.558 1311.4,-268.22 1311.4,-230.5 1311.4,-230.5 1311.4,-230.5 1311.4,-173.5 1311.4,-140.38 1300.82,-127.005 1272.4,-110 1214.05,-75.0853 759.373,-67.5515 581.448,-65.9367"/>
<polygon fill="midnightblue" stroke="midnightblue" points="581.434,-62.4365 571.404,-65.8492 581.373,-69.4362 581.434,-62.4365"/>
</g>
<!-- Node29&#45;&gt;Node5 -->
<g id="edge63" class="edge"><title>Node29&#45;&gt;Node5</title>
<path fill="none" stroke="midnightblue" d="M211.56,-220.191C213.753,-207.129 219.595,-181.578 233.401,-165 284.308,-103.876 375.731,-80.2976 439.571,-71.2043"/>
<polygon fill="midnightblue" stroke="midnightblue" points="440.122,-74.6618 449.57,-69.8657 439.194,-67.7237 440.122,-74.6618"/>
</g>
<!-- Node29&#45;&gt;Node23 -->
<g id="edge62" class="edge"><title>Node29&#45;&gt;Node23</title>
<path fill="none" stroke="midnightblue" d="M219.464,-220.219C228.198,-212.238 241.607,-199.984 252.182,-190.321"/>
<polygon fill="midnightblue" stroke="midnightblue" points="254.571,-192.879 259.592,-183.55 249.849,-187.712 254.571,-192.879"/>
</g>
<!-- Node31 -->
<g id="node31" class="node"><title>Node31</title>
<g id="a_node31"><a xlink:href="$AP__HAL__PX4_8h.html" xlink:title="AP_HAL_PX4.h">
<polygon fill="white" stroke="black" points="784.823,-555.5 784.823,-573.5 871.98,-573.5 871.98,-555.5 784.823,-555.5"/>
<text text-anchor="middle" x="828.401" y="-561.5" font-family="Helvetica,sans-Serif" font-size="10.00">AP_HAL_PX4.h</text>
</a>
</g>
</g>
<!-- Node30&#45;&gt;Node31 -->
<g id="edge69" class="edge"><title>Node30&#45;&gt;Node31</title>
<path fill="none" stroke="midnightblue" d="M765.814,-620.264C777.413,-610.115 797.331,-592.687 811.583,-580.216"/>
<polygon fill="midnightblue" stroke="midnightblue" points="813.993,-582.758 819.214,-573.539 809.383,-577.49 813.993,-582.758"/>
</g>
<!-- Node35 -->
<g id="node35" class="node"><title>Node35</title>
<polygon fill="white" stroke="#bfbfbf" points="694.205,-440.5 694.205,-458.5 818.598,-458.5 818.598,-440.5 694.205,-440.5"/>
<text text-anchor="middle" x="756.401" y="-446.5" font-family="Helvetica,sans-Serif" font-size="10.00">systemlib/perf_counter.h</text>
</g>
<!-- Node30&#45;&gt;Node35 -->
<g id="edge77" class="edge"><title>Node30&#45;&gt;Node35</title>
<path fill="none" stroke="midnightblue" d="M756.401,-620.389C756.401,-593.516 756.401,-506.94 756.401,-468.815"/>
<polygon fill="midnightblue" stroke="midnightblue" points="759.901,-468.658 756.401,-458.658 752.901,-468.659 759.901,-468.658"/>
</g>
<!-- Node36 -->
<g id="node36" class="node"><title>Node36</title>
<polygon fill="white" stroke="#bfbfbf" points="889.879,-550.5 889.879,-578.5 1000.92,-578.5 1000.92,-550.5 889.879,-550.5"/>
<text text-anchor="start" x="897.879" y="-566.5" font-family="Helvetica,sans-Serif" font-size="10.00">uORB/topics/actuator</text>
<text text-anchor="middle" x="945.401" y="-556.5" font-family="Helvetica,sans-Serif" font-size="10.00">_outputs.h</text>
</g>
<!-- Node30&#45;&gt;Node36 -->
<g id="edge78" class="edge"><title>Node30&#45;&gt;Node36</title>
<path fill="none" stroke="midnightblue" d="M780.723,-620.393C809.918,-610.661 859.586,-594.105 896.758,-581.714"/>
<polygon fill="midnightblue" stroke="midnightblue" points="898.021,-584.983 906.401,-578.5 895.807,-578.342 898.021,-584.983"/>
</g>
<!-- Node37 -->
<g id="node37" class="node"><title>Node37</title>
<polygon fill="white" stroke="#bfbfbf" points="616.879,-550.5 616.879,-578.5 727.923,-578.5 727.923,-550.5 616.879,-550.5"/>
<text text-anchor="start" x="624.879" y="-566.5" font-family="Helvetica,sans-Serif" font-size="10.00">uORB/topics/actuator</text>
<text text-anchor="middle" x="672.401" y="-556.5" font-family="Helvetica,sans-Serif" font-size="10.00">_armed.h</text>
</g>
<!-- Node30&#45;&gt;Node37 -->
<g id="edge79" class="edge"><title>Node30&#45;&gt;Node37</title>
<path fill="none" stroke="midnightblue" d="M745.42,-620.264C733.488,-611.315 714.009,-596.706 698.17,-584.826"/>
<polygon fill="midnightblue" stroke="midnightblue" points="699.916,-581.761 689.816,-578.561 695.716,-587.361 699.916,-581.761"/>
</g>
<!-- Node31&#45;&gt;Node2 -->
<g id="edge70" class="edge"><title>Node31&#45;&gt;Node2</title>
<path fill="none" stroke="midnightblue" d="M813.73,-555.373C778.737,-535.99 690.14,-486.914 647.727,-463.421"/>
<polygon fill="midnightblue" stroke="midnightblue" points="649.383,-460.337 638.94,-458.553 645.991,-466.46 649.383,-460.337"/>
</g>
<!-- Node32 -->
<g id="node32" class="node"><title>Node32</title>
<g id="a_node32"><a xlink:href="$HAL__PX4__Class_8h.html" xlink:title="HAL_PX4_Class.h">
<polygon fill="white" stroke="black" points="783.99,-495.5 783.99,-513.5 882.812,-513.5 882.812,-495.5 783.99,-495.5"/>
<text text-anchor="middle" x="833.401" y="-501.5" font-family="Helvetica,sans-Serif" font-size="10.00">HAL_PX4_Class.h</text>
</a>
</g>
</g>
<!-- Node31&#45;&gt;Node32 -->
<g id="edge71" class="edge"><title>Node31&#45;&gt;Node32</title>
<path fill="none" stroke="midnightblue" d="M824.252,-555.435C823.085,-547.304 823.697,-534.469 825.492,-523.848"/>
<polygon fill="midnightblue" stroke="midnightblue" points="828.956,-524.399 827.765,-513.872 822.131,-522.844 828.956,-524.399"/>
</g>
<!-- Node32&#45;&gt;Node2 -->
<g id="edge72" class="edge"><title>Node32&#45;&gt;Node2</title>
<path fill="none" stroke="midnightblue" d="M801.659,-495.45C765.34,-486.24 705.744,-471.128 665.804,-460.999"/>
<polygon fill="midnightblue" stroke="midnightblue" points="666.653,-457.604 656.1,-458.538 664.932,-464.389 666.653,-457.604"/>
</g>
<!-- Node32&#45;&gt;Node31 -->
<g id="edge73" class="edge"><title>Node32&#45;&gt;Node31</title>
<path fill="none" stroke="midnightblue" d="M837.594,-513.872C838.716,-522.12 838.067,-534.984 836.243,-545.549"/>
<polygon fill="midnightblue" stroke="midnightblue" points="832.8,-544.902 833.942,-555.435 839.618,-546.489 832.8,-544.902"/>
</g>
<!-- Node33 -->
<g id="node33" class="node"><title>Node33</title>
<g id="a_node33"><a xlink:href="$AP__HAL__PX4__Namespace_8h.html" xlink:title="AP_HAL_PX4_Namespace.h">
<polygon fill="white" stroke="black" points="836.362,-440.5 836.362,-458.5 982.44,-458.5 982.44,-440.5 836.362,-440.5"/>
<text text-anchor="middle" x="909.401" y="-446.5" font-family="Helvetica,sans-Serif" font-size="10.00">AP_HAL_PX4_Namespace.h</text>
</a>
</g>
</g>
<!-- Node32&#45;&gt;Node33 -->
<g id="edge74" class="edge"><title>Node32&#45;&gt;Node33</title>
<path fill="none" stroke="midnightblue" d="M844.944,-495.45C856.662,-487.279 875.043,-474.46 889.183,-464.6"/>
<polygon fill="midnightblue" stroke="midnightblue" points="891.55,-467.216 897.75,-458.625 887.545,-461.475 891.55,-467.216"/>
</g>
<!-- Node34 -->
<g id="node34" class="node"><title>Node34</title>
<polygon fill="white" stroke="#bfbfbf" points="1000.15,-440.5 1000.15,-458.5 1102.65,-458.5 1102.65,-440.5 1000.15,-440.5"/>
<text text-anchor="middle" x="1051.4" y="-446.5" font-family="Helvetica,sans-Serif" font-size="10.00">systemlib/visibility.h</text>
</g>
<!-- Node32&#45;&gt;Node34 -->
<g id="edge75" class="edge"><title>Node32&#45;&gt;Node34</title>
<path fill="none" stroke="midnightblue" d="M866.511,-495.45C904.474,-486.221 966.819,-471.063 1008.48,-460.935"/>
<polygon fill="midnightblue" stroke="midnightblue" points="1009.45,-464.302 1018.34,-458.538 1007.79,-457.5 1009.45,-464.302"/>
</g>
<!-- Node32&#45;&gt;Node35 -->
<g id="edge76" class="edge"><title>Node32&#45;&gt;Node35</title>
<path fill="none" stroke="midnightblue" d="M821.707,-495.45C809.722,-487.201 790.856,-474.216 776.478,-464.319"/>
<polygon fill="midnightblue" stroke="midnightblue" points="778.428,-461.412 768.206,-458.625 774.459,-467.178 778.428,-461.412"/>
</g>
</g>
</svg>
