<?xml version="1.0" encoding="UTF-8" standalone="no"?>
<!DOCTYPE svg PUBLIC "-//W3C//DTD SVG 1.1//EN"
 "http://www.w3.org/Graphics/SVG/1.1/DTD/svg11.dtd">
<!-- Generated by graphviz version 2.38.0 (20140413.2041)
 -->
<!-- Title: libraries/AP_HAL_PX4/Scheduler.h Pages: 1 -->
<svg width="395pt" height="102pt"
 viewBox="0.00 0.00 394.61 102.00" xmlns="http://www.w3.org/2000/svg" xmlns:xlink="http://www.w3.org/1999/xlink">
<g id="graph0" class="graph" transform="scale(1 1) rotate(0) translate(4 98)">
<title>libraries/AP_HAL_PX4/Scheduler.h</title>
<polygon fill="white" stroke="none" points="-4,4 -4,-98 390.605,-98 390.605,4 -4,4"/>
<!-- Node1 -->
<g id="node1" class="node"><title>Node1</title>
<polygon fill="#bfbfbf" stroke="black" points="135,-65.5 135,-93.5 251.605,-93.5 251.605,-65.5 135,-65.5"/>
<text text-anchor="start" x="143" y="-81.5" font-family="Helvetica,sans-Serif" font-size="10.00">libraries/AP_HAL_PX4</text>
<text text-anchor="middle" x="193.303" y="-71.5" font-family="Helvetica,sans-Serif" font-size="10.00">/Scheduler.h</text>
</g>
<!-- Node2 -->
<g id="node2" class="node"><title>Node2</title>
<g id="a_node2"><a xlink:href="$HAL__PX4__Class_8cpp.html" xlink:title="libraries/AP_HAL_PX4\l/HAL_PX4_Class.cpp">
<polygon fill="white" stroke="black" points="0,-0.5 0,-28.5 116.605,-28.5 116.605,-0.5 0,-0.5"/>
<text text-anchor="start" x="8" y="-16.5" font-family="Helvetica,sans-Serif" font-size="10.00">libraries/AP_HAL_PX4</text>
<text text-anchor="middle" x="58.3027" y="-6.5" font-family="Helvetica,sans-Serif" font-size="10.00">/HAL_PX4_Class.cpp</text>
</a>
</g>
</g>
<!-- Node1&#45;&gt;Node2 -->
<g id="edge1" class="edge"><title>Node1&#45;&gt;Node2</title>
<path fill="none" stroke="midnightblue" d="M156.23,-61.1994C134.121,-50.8817 106.503,-37.9937 86.239,-28.5369"/>
<polygon fill="midnightblue" stroke="midnightblue" points="154.789,-64.3891 165.331,-65.4464 157.749,-58.0458 154.789,-64.3891"/>
</g>
<!-- Node3 -->
<g id="node3" class="node"><title>Node3</title>
<g id="a_node3"><a xlink:href="$NSHShellStream_8cpp.html" xlink:title="libraries/AP_HAL_PX4\l/NSHShellStream.cpp">
<polygon fill="white" stroke="black" points="135,-0.5 135,-28.5 251.605,-28.5 251.605,-0.5 135,-0.5"/>
<text text-anchor="start" x="143" y="-16.5" font-family="Helvetica,sans-Serif" font-size="10.00">libraries/AP_HAL_PX4</text>
<text text-anchor="middle" x="193.303" y="-6.5" font-family="Helvetica,sans-Serif" font-size="10.00">/NSHShellStream.cpp</text>
</a>
</g>
</g>
<!-- Node1&#45;&gt;Node3 -->
<g id="edge2" class="edge"><title>Node1&#45;&gt;Node3</title>
<path fill="none" stroke="midnightblue" d="M193.303,-55.1641C193.303,-46.1693 193.303,-36.2205 193.303,-28.5369"/>
<polygon fill="midnightblue" stroke="midnightblue" points="189.803,-55.4463 193.303,-65.4464 196.803,-55.4464 189.803,-55.4463"/>
</g>
<!-- Node4 -->
<g id="node4" class="node"><title>Node4</title>
<g id="a_node4"><a xlink:href="$AP__HAL__PX4_2Scheduler_8cpp.html" xlink:title="libraries/AP_HAL_PX4\l/Scheduler.cpp">
<polygon fill="white" stroke="black" points="270,-0.5 270,-28.5 386.605,-28.5 386.605,-0.5 270,-0.5"/>
<text text-anchor="start" x="278" y="-16.5" font-family="Helvetica,sans-Serif" font-size="10.00">libraries/AP_HAL_PX4</text>
<text text-anchor="middle" x="328.303" y="-6.5" font-family="Helvetica,sans-Serif" font-size="10.00">/Scheduler.cpp</text>
</a>
</g>
</g>
<!-- Node1&#45;&gt;Node4 -->
<g id="edge3" class="edge"><title>Node1&#45;&gt;Node4</title>
<path fill="none" stroke="midnightblue" d="M230.376,-61.1994C252.485,-50.8817 280.102,-37.9937 300.366,-28.5369"/>
<polygon fill="midnightblue" stroke="midnightblue" points="228.857,-58.0458 221.275,-65.4464 231.817,-64.3891 228.857,-58.0458"/>
</g>
</g>
</svg>
