<?xml version="1.0" encoding="UTF-8" standalone="no"?>
<!DOCTYPE svg PUBLIC "-//W3C//DTD SVG 1.1//EN"
 "http://www.w3.org/Graphics/SVG/1.1/DTD/svg11.dtd">
<!-- Generated by graphviz version 2.38.0 (20140413.2041)
 -->
<!-- Title: libraries/AP_HAL_PX4/I2CDriver.h Pages: 1 -->
<svg width="260pt" height="102pt"
 viewBox="0.00 0.00 259.61 102.00" xmlns="http://www.w3.org/2000/svg" xmlns:xlink="http://www.w3.org/1999/xlink">
<g id="graph0" class="graph" transform="scale(1 1) rotate(0) translate(4 98)">
<title>libraries/AP_HAL_PX4/I2CDriver.h</title>
<polygon fill="white" stroke="none" points="-4,4 -4,-98 255.605,-98 255.605,4 -4,4"/>
<!-- Node1 -->
<g id="node1" class="node"><title>Node1</title>
<polygon fill="#bfbfbf" stroke="black" points="67,-65.5 67,-93.5 183.605,-93.5 183.605,-65.5 67,-65.5"/>
<text text-anchor="start" x="75" y="-81.5" font-family="Helvetica,sans-Serif" font-size="10.00">libraries/AP_HAL_PX4</text>
<text text-anchor="middle" x="125.303" y="-71.5" font-family="Helvetica,sans-Serif" font-size="10.00">/I2CDriver.h</text>
</g>
<!-- Node2 -->
<g id="node2" class="node"><title>Node2</title>
<g id="a_node2"><a xlink:href="$HAL__PX4__Class_8cpp.html" xlink:title="libraries/AP_HAL_PX4\l/HAL_PX4_Class.cpp">
<polygon fill="white" stroke="black" points="0,-0.5 0,-28.5 116.605,-28.5 116.605,-0.5 0,-0.5"/>
<text text-anchor="start" x="8" y="-16.5" font-family="Helvetica,sans-Serif" font-size="10.00">libraries/AP_HAL_PX4</text>
<text text-anchor="middle" x="58.3027" y="-6.5" font-family="Helvetica,sans-Serif" font-size="10.00">/HAL_PX4_Class.cpp</text>
</a>
</g>
</g>
<!-- Node1&#45;&gt;Node2 -->
<g id="edge1" class="edge"><title>Node1&#45;&gt;Node2</title>
<path fill="none" stroke="midnightblue" d="M103.904,-58.3785C93.5124,-48.6076 81.3266,-37.1493 72.1674,-28.5369"/>
<polygon fill="midnightblue" stroke="midnightblue" points="101.737,-61.1459 111.42,-65.4464 106.533,-56.0462 101.737,-61.1459"/>
</g>
<!-- Node3 -->
<g id="node3" class="node"><title>Node3</title>
<g id="a_node3"><a xlink:href="$AP__HAL__PX4_2I2CDriver_8cpp.html" xlink:title="libraries/AP_HAL_PX4\l/I2CDriver.cpp">
<polygon fill="white" stroke="black" points="135,-0.5 135,-28.5 251.605,-28.5 251.605,-0.5 135,-0.5"/>
<text text-anchor="start" x="143" y="-16.5" font-family="Helvetica,sans-Serif" font-size="10.00">libraries/AP_HAL_PX4</text>
<text text-anchor="middle" x="193.303" y="-6.5" font-family="Helvetica,sans-Serif" font-size="10.00">/I2CDriver.cpp</text>
</a>
</g>
</g>
<!-- Node1&#45;&gt;Node3 -->
<g id="edge2" class="edge"><title>Node1&#45;&gt;Node3</title>
<path fill="none" stroke="midnightblue" d="M147.021,-58.3785C157.568,-48.6076 169.935,-37.1493 179.231,-28.5369"/>
<polygon fill="midnightblue" stroke="midnightblue" points="144.349,-56.0826 139.392,-65.4464 149.107,-61.2176 144.349,-56.0826"/>
</g>
</g>
</svg>
