<?xml version="1.0" encoding="UTF-8" standalone="no"?>
<!DOCTYPE svg PUBLIC "-//W3C//DTD SVG 1.1//EN"
 "http://www.w3.org/Graphics/SVG/1.1/DTD/svg11.dtd">
<!-- Generated by graphviz version 2.38.0 (20140413.2041)
 -->
<!-- Title: crc_packet Pages: 1 -->
<svg width="552pt" height="225pt"
 viewBox="0.00 0.00 552.42 225.00" xmlns="http://www.w3.org/2000/svg" xmlns:xlink="http://www.w3.org/1999/xlink">
<g id="graph0" class="graph" transform="scale(1 1) rotate(0) translate(4 221)">
<title>crc_packet</title>
<polygon fill="white" stroke="none" points="-4,4 -4,-221 548.417,-221 548.417,4 -4,4"/>
<!-- Node1 -->
<g id="node1" class="node"><title>Node1</title>
<polygon fill="#bfbfbf" stroke="black" points="0,-99.5 0,-117.5 64.3545,-117.5 64.3545,-99.5 0,-99.5"/>
<text text-anchor="middle" x="32.1772" y="-105.5" font-family="Helvetica,sans-Serif" font-size="10.00">crc_packet</text>
</g>
<!-- Node2 -->
<g id="node2" class="node"><title>Node2</title>
<g id="a_node2"><a xlink:href="$classLinux_1_1RCInput__Raspilot.html#ad63473e0a55eeab5d41367c7d4f11e73" xlink:title="Linux::RCInput_Raspilot\l::_poll_data">
<polygon fill="white" stroke="black" points="104.244,-188.5 104.244,-216.5 228.081,-216.5 228.081,-188.5 104.244,-188.5"/>
<text text-anchor="start" x="112.244" y="-204.5" font-family="Helvetica,sans-Serif" font-size="10.00">Linux::RCInput_Raspilot</text>
<text text-anchor="middle" x="166.162" y="-194.5" font-family="Helvetica,sans-Serif" font-size="10.00">::_poll_data</text>
</a>
</g>
</g>
<!-- Node1&#45;&gt;Node2 -->
<g id="edge1" class="edge"><title>Node1&#45;&gt;Node2</title>
<path fill="none" stroke="midnightblue" d="M45.8869,-126.085C58.2092,-142.006 78.242,-165.106 100.354,-179.5 105.557,-182.887 111.321,-185.847 117.202,-188.414"/>
<polygon fill="midnightblue" stroke="midnightblue" points="48.3668,-123.558 39.5652,-117.66 42.7678,-127.759 48.3668,-123.558"/>
</g>
<!-- Node4 -->
<g id="node4" class="node"><title>Node4</title>
<g id="a_node4"><a xlink:href="$classLinux_1_1RPIOUARTDriver.html#ab5553bf130bd1b133d8c03fd67b769be" xlink:title="Linux::RPIOUARTDriver\l::_timer_tick">
<polygon fill="white" stroke="black" points="104.351,-141.5 104.351,-169.5 227.973,-169.5 227.973,-141.5 104.351,-141.5"/>
<text text-anchor="start" x="112.351" y="-157.5" font-family="Helvetica,sans-Serif" font-size="10.00">Linux::RPIOUARTDriver</text>
<text text-anchor="middle" x="166.162" y="-147.5" font-family="Helvetica,sans-Serif" font-size="10.00">::_timer_tick</text>
</a>
</g>
</g>
<!-- Node1&#45;&gt;Node4 -->
<g id="edge3" class="edge"><title>Node1&#45;&gt;Node4</title>
<path fill="none" stroke="midnightblue" d="M68.53,-121.089C86.1797,-127.374 107.588,-134.998 125.763,-141.47"/>
<polygon fill="midnightblue" stroke="midnightblue" points="69.2199,-117.62 58.6253,-117.562 66.8716,-124.214 69.2199,-117.62"/>
</g>
<!-- Node7 -->
<g id="node7" class="node"><title>Node7</title>
<g id="a_node7"><a xlink:href="$classLinux_1_1RCOutput__Raspilot.html#a6b8d007844c635c3107cce48005000cf" xlink:title="Linux::RCOutput_Raspilot\l::_update">
<polygon fill="white" stroke="black" points="100.354,-94.5 100.354,-122.5 231.97,-122.5 231.97,-94.5 100.354,-94.5"/>
<text text-anchor="start" x="108.354" y="-110.5" font-family="Helvetica,sans-Serif" font-size="10.00">Linux::RCOutput_Raspilot</text>
<text text-anchor="middle" x="166.162" y="-100.5" font-family="Helvetica,sans-Serif" font-size="10.00">::_update</text>
</a>
</g>
</g>
<!-- Node1&#45;&gt;Node7 -->
<g id="edge6" class="edge"><title>Node1&#45;&gt;Node7</title>
<path fill="none" stroke="midnightblue" d="M74.7091,-108.5C82.7966,-108.5 91.4551,-108.5 100.093,-108.5"/>
<polygon fill="midnightblue" stroke="midnightblue" points="74.4559,-105 64.4558,-108.5 74.4558,-112 74.4559,-105"/>
</g>
<!-- Node9 -->
<g id="node9" class="node"><title>Node9</title>
<g id="a_node9"><a xlink:href="$classRaspilotAnalogIn.html#a3b58cf0638e2f49fc753fc1a217e1690" xlink:title="RaspilotAnalogIn::\l_update">
<polygon fill="white" stroke="black" points="117.581,-47.5 117.581,-75.5 214.743,-75.5 214.743,-47.5 117.581,-47.5"/>
<text text-anchor="start" x="125.581" y="-63.5" font-family="Helvetica,sans-Serif" font-size="10.00">RaspilotAnalogIn::</text>
<text text-anchor="middle" x="166.162" y="-53.5" font-family="Helvetica,sans-Serif" font-size="10.00">_update</text>
</a>
</g>
</g>
<!-- Node1&#45;&gt;Node9 -->
<g id="edge8" class="edge"><title>Node1&#45;&gt;Node9</title>
<path fill="none" stroke="midnightblue" d="M67.9763,-96.0519C78.3884,-92.3316 89.8331,-88.2464 100.354,-84.5 108.452,-81.6165 117.122,-78.5356 125.4,-75.5965"/>
<polygon fill="midnightblue" stroke="midnightblue" points="66.6125,-92.8224 58.3739,-99.484 68.9685,-99.414 66.6125,-92.8224"/>
</g>
<!-- Node11 -->
<g id="node11" class="node"><title>Node11</title>
<g id="a_node11"><a xlink:href="$classLinux_1_1RCOutput__Raspilot.html#a1ffdd2f8dc5fc5fa5bf9b765040223dd" xlink:title="Linux::RCOutput_Raspilot\l::set_freq">
<polygon fill="white" stroke="black" points="100.354,-0.5 100.354,-28.5 231.97,-28.5 231.97,-0.5 100.354,-0.5"/>
<text text-anchor="start" x="108.354" y="-16.5" font-family="Helvetica,sans-Serif" font-size="10.00">Linux::RCOutput_Raspilot</text>
<text text-anchor="middle" x="166.162" y="-6.5" font-family="Helvetica,sans-Serif" font-size="10.00">::set_freq</text>
</a>
</g>
</g>
<!-- Node1&#45;&gt;Node11 -->
<g id="edge10" class="edge"><title>Node1&#45;&gt;Node11</title>
<path fill="none" stroke="midnightblue" d="M45.8869,-90.9154C58.2092,-74.9944 78.242,-51.8941 100.354,-37.5 105.557,-34.1131 111.321,-31.1532 117.202,-28.5865"/>
<polygon fill="midnightblue" stroke="midnightblue" points="42.7678,-89.2406 39.5652,-99.3398 48.3668,-93.4421 42.7678,-89.2406"/>
</g>
<!-- Node3 -->
<g id="node3" class="node"><title>Node3</title>
<g id="a_node3"><a xlink:href="$classLinux_1_1RCInput__Raspilot.html#a1e9a62050fa0edee355f45f8c41b0e77" xlink:title="Linux::RCInput_Raspilot\l::init">
<polygon fill="white" stroke="black" points="271.859,-188.5 271.859,-216.5 395.696,-216.5 395.696,-188.5 271.859,-188.5"/>
<text text-anchor="start" x="279.859" y="-204.5" font-family="Helvetica,sans-Serif" font-size="10.00">Linux::RCInput_Raspilot</text>
<text text-anchor="middle" x="333.777" y="-194.5" font-family="Helvetica,sans-Serif" font-size="10.00">::init</text>
</a>
</g>
</g>
<!-- Node2&#45;&gt;Node3 -->
<g id="edge2" class="edge"><title>Node2&#45;&gt;Node3</title>
<path fill="none" stroke="midnightblue" d="M238.464,-202.5C249.578,-202.5 260.974,-202.5 271.83,-202.5"/>
<polygon fill="midnightblue" stroke="midnightblue" points="238.361,-199 228.361,-202.5 238.361,-206 238.361,-199"/>
</g>
<!-- Node5 -->
<g id="node5" class="node"><title>Node5</title>
<g id="a_node5"><a xlink:href="$classLinux_1_1Scheduler.html#a599c62f8da5b055f5c3aca38b39de583" xlink:title="Linux::Scheduler::\l_uart_thread">
<polygon fill="white" stroke="black" points="285.753,-141.5 285.753,-169.5 381.802,-169.5 381.802,-141.5 285.753,-141.5"/>
<text text-anchor="start" x="293.753" y="-157.5" font-family="Helvetica,sans-Serif" font-size="10.00">Linux::Scheduler::</text>
<text text-anchor="middle" x="333.777" y="-147.5" font-family="Helvetica,sans-Serif" font-size="10.00">_uart_thread</text>
</a>
</g>
</g>
<!-- Node4&#45;&gt;Node5 -->
<g id="edge4" class="edge"><title>Node4&#45;&gt;Node5</title>
<path fill="none" stroke="midnightblue" d="M238.674,-155.5C254.531,-155.5 270.95,-155.5 285.548,-155.5"/>
<polygon fill="midnightblue" stroke="midnightblue" points="238.361,-152 228.361,-155.5 238.361,-159 238.361,-152"/>
</g>
<!-- Node6 -->
<g id="node6" class="node"><title>Node6</title>
<g id="a_node6"><a xlink:href="$classLinux_1_1Scheduler.html#a58e61fba523c82d8c0f7f26f4e1b0ff8" xlink:title="Linux::Scheduler::init">
<polygon fill="white" stroke="black" points="435.585,-146.5 435.585,-164.5 544.417,-164.5 544.417,-146.5 435.585,-146.5"/>
<text text-anchor="middle" x="490.001" y="-152.5" font-family="Helvetica,sans-Serif" font-size="10.00">Linux::Scheduler::init</text>
</a>
</g>
</g>
<!-- Node5&#45;&gt;Node6 -->
<g id="edge5" class="edge"><title>Node5&#45;&gt;Node6</title>
<path fill="none" stroke="midnightblue" d="M392.032,-155.5C406.24,-155.5 421.413,-155.5 435.436,-155.5"/>
<polygon fill="midnightblue" stroke="midnightblue" points="391.888,-152 381.888,-155.5 391.887,-159 391.888,-152"/>
</g>
<!-- Node8 -->
<g id="node8" class="node"><title>Node8</title>
<g id="a_node8"><a xlink:href="$classLinux_1_1RCOutput__Raspilot.html#af70c36ed90c4c1d26ad6aa9dd6b77c15" xlink:title="Linux::RCOutput_Raspilot\l::init">
<polygon fill="white" stroke="black" points="267.97,-94.5 267.97,-122.5 399.585,-122.5 399.585,-94.5 267.97,-94.5"/>
<text text-anchor="start" x="275.97" y="-110.5" font-family="Helvetica,sans-Serif" font-size="10.00">Linux::RCOutput_Raspilot</text>
<text text-anchor="middle" x="333.777" y="-100.5" font-family="Helvetica,sans-Serif" font-size="10.00">::init</text>
</a>
</g>
</g>
<!-- Node7&#45;&gt;Node8 -->
<g id="edge7" class="edge"><title>Node7&#45;&gt;Node8</title>
<path fill="none" stroke="midnightblue" d="M242.381,-108.5C250.837,-108.5 259.4,-108.5 267.713,-108.5"/>
<polygon fill="midnightblue" stroke="midnightblue" points="242.142,-105 232.142,-108.5 242.142,-112 242.142,-105"/>
</g>
<!-- Node10 -->
<g id="node10" class="node"><title>Node10</title>
<g id="a_node10"><a xlink:href="$classRaspilotAnalogIn.html#a23676f07a43b6862908a2aabb6b3c908" xlink:title="RaspilotAnalogIn::init">
<polygon fill="white" stroke="black" points="278.805,-52.5 278.805,-70.5 388.75,-70.5 388.75,-52.5 278.805,-52.5"/>
<text text-anchor="middle" x="333.777" y="-58.5" font-family="Helvetica,sans-Serif" font-size="10.00">RaspilotAnalogIn::init</text>
</a>
</g>
</g>
<!-- Node9&#45;&gt;Node10 -->
<g id="edge9" class="edge"><title>Node9&#45;&gt;Node10</title>
<path fill="none" stroke="midnightblue" d="M225.084,-61.5C242.461,-61.5 261.45,-61.5 278.577,-61.5"/>
<polygon fill="midnightblue" stroke="midnightblue" points="225.065,-58.0001 215.065,-61.5 225.065,-65.0001 225.065,-58.0001"/>
</g>
</g>
</svg>
