<?xml version="1.0" encoding="UTF-8" standalone="no"?>
<!DOCTYPE svg PUBLIC "-//W3C//DTD SVG 1.1//EN"
 "http://www.w3.org/Graphics/SVG/1.1/DTD/svg11.dtd">
<!-- Generated by graphviz version 2.38.0 (20140413.2041)
 -->
<!-- Title: libraries/AP_HAL_Linux/RCInput_UART.h Pages: 1 -->
<svg width="1331pt" height="752pt"
 viewBox="0.00 0.00 1331.40 752.00" xmlns="http://www.w3.org/2000/svg" xmlns:xlink="http://www.w3.org/1999/xlink">
<g id="graph0" class="graph" transform="scale(1 1) rotate(0) translate(4 748)">
<title>libraries/AP_HAL_Linux/RCInput_UART.h</title>
<polygon fill="white" stroke="none" points="-4,4 -4,-748 1327.4,-748 1327.4,4 -4,4"/>
<!-- Node1 -->
<g id="node1" class="node"><title>Node1</title>
<polygon fill="#bfbfbf" stroke="black" points="739.596,-715.5 739.596,-743.5 861.207,-743.5 861.207,-715.5 739.596,-715.5"/>
<text text-anchor="start" x="747.596" y="-731.5" font-family="Helvetica,sans-Serif" font-size="10.00">libraries/AP_HAL_Linux</text>
<text text-anchor="middle" x="800.401" y="-721.5" font-family="Helvetica,sans-Serif" font-size="10.00">/RCInput_UART.h</text>
</g>
<!-- Node2 -->
<g id="node2" class="node"><title>Node2</title>
<g id="a_node2"><a xlink:href="$AP__Common_8h.html" xlink:title="Common definitions and utility routines for the ArduPilot libraries. ">
<polygon fill="white" stroke="black" points="657.375,-165.5 657.375,-183.5 803.428,-183.5 803.428,-165.5 657.375,-165.5"/>
<text text-anchor="middle" x="730.401" y="-171.5" font-family="Helvetica,sans-Serif" font-size="10.00">AP_Common/AP_Common.h</text>
</a>
</g>
</g>
<!-- Node1&#45;&gt;Node2 -->
<g id="edge1" class="edge"><title>Node1&#45;&gt;Node2</title>
<path fill="none" stroke="midnightblue" d="M847.247,-715.383C891.908,-699.678 952.401,-668.605 952.401,-615.5 952.401,-615.5 952.401,-615.5 952.401,-393.5 952.401,-286.813 820.263,-214.987 759.877,-187.734"/>
<polygon fill="midnightblue" stroke="midnightblue" points="761.056,-184.429 750.494,-183.598 758.233,-190.834 761.056,-184.429"/>
</g>
<!-- Node6 -->
<g id="node6" class="node"><title>Node6</title>
<g id="a_node6"><a xlink:href="$AP__HAL__Linux_8h.html" xlink:title="AP_HAL_Linux.h">
<polygon fill="white" stroke="black" points="679.32,-550.5 679.32,-568.5 771.482,-568.5 771.482,-550.5 679.32,-550.5"/>
<text text-anchor="middle" x="725.401" y="-556.5" font-family="Helvetica,sans-Serif" font-size="10.00">AP_HAL_Linux.h</text>
</a>
</g>
</g>
<!-- Node1&#45;&gt;Node6 -->
<g id="edge5" class="edge"><title>Node1&#45;&gt;Node6</title>
<path fill="none" stroke="midnightblue" d="M771.838,-715.41C740.099,-699.094 690.542,-667.906 669.401,-624 659.768,-603.992 681.007,-585.485 700.036,-573.674"/>
<polygon fill="midnightblue" stroke="midnightblue" points="701.895,-576.642 708.779,-568.588 698.375,-570.591 701.895,-576.642"/>
</g>
<!-- Node33 -->
<g id="node33" class="node"><title>Node33</title>
<g id="a_node33"><a xlink:href="$Linux_2RCInput_8h.html" xlink:title="RCInput.h">
<polygon fill="white" stroke="black" points="769.889,-660.5 769.889,-678.5 830.914,-678.5 830.914,-660.5 769.889,-660.5"/>
<text text-anchor="middle" x="800.401" y="-666.5" font-family="Helvetica,sans-Serif" font-size="10.00">RCInput.h</text>
</a>
</g>
</g>
<!-- Node1&#45;&gt;Node33 -->
<g id="edge73" class="edge"><title>Node1&#45;&gt;Node33</title>
<path fill="none" stroke="midnightblue" d="M800.401,-715.339C800.401,-707.531 800.401,-697.512 800.401,-688.927"/>
<polygon fill="midnightblue" stroke="midnightblue" points="803.901,-688.771 800.401,-678.771 796.901,-688.772 803.901,-688.771"/>
</g>
<!-- Node3 -->
<g id="node3" class="node"><title>Node3</title>
<polygon fill="white" stroke="#bfbfbf" points="807.281,-110.5 807.281,-128.5 855.522,-128.5 855.522,-110.5 807.281,-110.5"/>
<text text-anchor="middle" x="831.401" y="-116.5" font-family="Helvetica,sans-Serif" font-size="10.00">stdint.h</text>
</g>
<!-- Node2&#45;&gt;Node3 -->
<g id="edge2" class="edge"><title>Node2&#45;&gt;Node3</title>
<path fill="none" stroke="midnightblue" d="M745.741,-165.45C761.981,-156.929 787.851,-143.353 806.916,-133.349"/>
<polygon fill="midnightblue" stroke="midnightblue" points="808.689,-136.371 815.917,-128.625 805.436,-130.173 808.689,-136.371"/>
</g>
<!-- Node4 -->
<g id="node4" class="node"><title>Node4</title>
<polygon fill="white" stroke="#bfbfbf" points="706.559,-110.5 706.559,-128.5 754.244,-128.5 754.244,-110.5 706.559,-110.5"/>
<text text-anchor="middle" x="730.401" y="-116.5" font-family="Helvetica,sans-Serif" font-size="10.00">stdlib.h</text>
</g>
<!-- Node2&#45;&gt;Node4 -->
<g id="edge3" class="edge"><title>Node2&#45;&gt;Node4</title>
<path fill="none" stroke="midnightblue" d="M730.401,-165.219C730.401,-158.177 730.401,-147.808 730.401,-138.828"/>
<polygon fill="midnightblue" stroke="midnightblue" points="733.901,-138.55 730.401,-128.55 726.901,-138.55 733.901,-138.55"/>
</g>
<!-- Node5 -->
<g id="node5" class="node"><title>Node5</title>
<polygon fill="white" stroke="#bfbfbf" points="626.108,-110.5 626.108,-128.5 682.694,-128.5 682.694,-110.5 626.108,-110.5"/>
<text text-anchor="middle" x="654.401" y="-116.5" font-family="Helvetica,sans-Serif" font-size="10.00">stdbool.h</text>
</g>
<!-- Node2&#45;&gt;Node5 -->
<g id="edge4" class="edge"><title>Node2&#45;&gt;Node5</title>
<path fill="none" stroke="midnightblue" d="M718.859,-165.45C707.141,-157.279 688.76,-144.46 674.62,-134.6"/>
<polygon fill="midnightblue" stroke="midnightblue" points="676.257,-131.475 666.053,-128.625 672.253,-137.216 676.257,-131.475"/>
</g>
<!-- Node7 -->
<g id="node7" class="node"><title>Node7</title>
<g id="a_node7"><a xlink:href="$AP__HAL_8h.html" xlink:title="AP_HAL/AP_HAL.h">
<polygon fill="white" stroke="black" points="548.488,-440.5 548.488,-458.5 652.315,-458.5 652.315,-440.5 548.488,-440.5"/>
<text text-anchor="middle" x="600.401" y="-446.5" font-family="Helvetica,sans-Serif" font-size="10.00">AP_HAL/AP_HAL.h</text>
</a>
</g>
</g>
<!-- Node6&#45;&gt;Node7 -->
<g id="edge6" class="edge"><title>Node6&#45;&gt;Node7</title>
<path fill="none" stroke="midnightblue" d="M713.305,-550.479C700.698,-541.937 680.563,-527.776 664.401,-514 646.448,-498.697 627.45,-479.403 614.862,-466.121"/>
<polygon fill="midnightblue" stroke="midnightblue" points="617.312,-463.617 607.918,-458.718 612.206,-468.406 617.312,-463.617"/>
</g>
<!-- Node31 -->
<g id="node31" class="node"><title>Node31</title>
<g id="a_node31"><a xlink:href="$HAL__Linux__Class_8h.html" xlink:title="HAL_Linux_Class.h">
<polygon fill="white" stroke="black" points="673.488,-495.5 673.488,-513.5 777.315,-513.5 777.315,-495.5 673.488,-495.5"/>
<text text-anchor="middle" x="725.401" y="-501.5" font-family="Helvetica,sans-Serif" font-size="10.00">HAL_Linux_Class.h</text>
</a>
</g>
</g>
<!-- Node6&#45;&gt;Node31 -->
<g id="edge70" class="edge"><title>Node6&#45;&gt;Node31</title>
<path fill="none" stroke="midnightblue" d="M725.401,-550.219C725.401,-543.177 725.401,-532.808 725.401,-523.828"/>
<polygon fill="midnightblue" stroke="midnightblue" points="728.901,-523.55 725.401,-513.55 721.901,-523.55 728.901,-523.55"/>
</g>
<!-- Node7&#45;&gt;Node3 -->
<g id="edge7" class="edge"><title>Node7&#45;&gt;Node3</title>
<path fill="none" stroke="midnightblue" d="M652.404,-441.059C738.114,-428.777 900.266,-405.464 906.401,-404 992.595,-383.43 1095.4,-429.114 1095.4,-340.5 1095.4,-340.5 1095.4,-340.5 1095.4,-228.5 1095.4,-130.527 937.724,-119.482 866.084,-119.52"/>
<polygon fill="midnightblue" stroke="midnightblue" points="865.736,-116.023 855.765,-119.603 865.793,-123.022 865.736,-116.023"/>
</g>
<!-- Node7&#45;&gt;Node5 -->
<g id="edge8" class="edge"><title>Node7&#45;&gt;Node5</title>
<path fill="none" stroke="midnightblue" d="M599.692,-440.462C597.29,-410.72 590.663,-304.283 610.401,-220 617.553,-189.462 633.94,-156.677 644.572,-137.408"/>
<polygon fill="midnightblue" stroke="midnightblue" points="647.65,-139.075 649.528,-128.648 641.558,-135.628 647.65,-139.075"/>
</g>
<!-- Node8 -->
<g id="node8" class="node"><title>Node8</title>
<g id="a_node8"><a xlink:href="$AP__HAL__Namespace_8h.html" xlink:title="AP_HAL_Namespace.h">
<polygon fill="white" stroke="black" points="355.594,-55.5 355.594,-73.5 477.209,-73.5 477.209,-55.5 355.594,-55.5"/>
<text text-anchor="middle" x="416.401" y="-61.5" font-family="Helvetica,sans-Serif" font-size="10.00">AP_HAL_Namespace.h</text>
</a>
</g>
</g>
<!-- Node7&#45;&gt;Node8 -->
<g id="edge9" class="edge"><title>Node7&#45;&gt;Node8</title>
<path fill="none" stroke="midnightblue" d="M652.407,-440.899C655.109,-440.577 657.786,-440.275 660.401,-440 892.119,-415.644 957.494,-461.028 1183.4,-404 1249.65,-387.277 1323.4,-408.823 1323.4,-340.5 1323.4,-340.5 1323.4,-340.5 1323.4,-173.5 1323.4,-103.554 1247.4,-126.408 1179.4,-110 1049.48,-78.6472 651.549,-69.0824 487.868,-66.4297"/>
<polygon fill="midnightblue" stroke="midnightblue" points="487.485,-62.9233 477.431,-66.2649 487.374,-69.9225 487.485,-62.9233"/>
</g>
<!-- Node11 -->
<g id="node11" class="node"><title>Node11</title>
<g id="a_node11"><a xlink:href="$AP__HAL__Boards_8h.html" xlink:title="AP_HAL_Boards.h">
<polygon fill="white" stroke="black" points="929.431,-165.5 929.431,-183.5 1029.37,-183.5 1029.37,-165.5 929.431,-165.5"/>
<text text-anchor="middle" x="979.401" y="-171.5" font-family="Helvetica,sans-Serif" font-size="10.00">AP_HAL_Boards.h</text>
</a>
</g>
</g>
<!-- Node7&#45;&gt;Node11 -->
<g id="edge12" class="edge"><title>Node7&#45;&gt;Node11</title>
<path fill="none" stroke="midnightblue" d="M625.655,-440.454C648.019,-432.766 681.102,-419.995 707.401,-404 763.191,-370.07 912.783,-235.936 962.831,-190.58"/>
<polygon fill="midnightblue" stroke="midnightblue" points="965.429,-192.949 970.48,-183.636 960.724,-187.766 965.429,-192.949"/>
</g>
<!-- Node12 -->
<g id="node12" class="node"><title>Node12</title>
<g id="a_node12"><a xlink:href="$AP__HAL__Macros_8h.html" xlink:title="AP_HAL_Macros.h">
<polygon fill="white" stroke="black" points="202.882,-385.5 202.882,-403.5 303.921,-403.5 303.921,-385.5 202.882,-385.5"/>
<text text-anchor="middle" x="253.401" y="-391.5" font-family="Helvetica,sans-Serif" font-size="10.00">AP_HAL_Macros.h</text>
</a>
</g>
</g>
<!-- Node7&#45;&gt;Node12 -->
<g id="edge13" class="edge"><title>Node7&#45;&gt;Node12</title>
<path fill="none" stroke="midnightblue" d="M548.452,-440.565C485.69,-430.979 380.283,-414.88 313.912,-404.742"/>
<polygon fill="midnightblue" stroke="midnightblue" points="314.424,-401.28 304.01,-403.23 313.367,-408.2 314.424,-401.28"/>
</g>
<!-- Node13 -->
<g id="node13" class="node"><title>Node13</title>
<g id="a_node13"><a xlink:href="$AP__HAL__Main_8h.html" xlink:title="AP_HAL_Main.h">
<polygon fill="white" stroke="black" points="436.436,-385.5 436.436,-403.5 526.367,-403.5 526.367,-385.5 436.436,-385.5"/>
<text text-anchor="middle" x="481.401" y="-391.5" font-family="Helvetica,sans-Serif" font-size="10.00">AP_HAL_Main.h</text>
</a>
</g>
</g>
<!-- Node7&#45;&gt;Node13 -->
<g id="edge14" class="edge"><title>Node7&#45;&gt;Node13</title>
<path fill="none" stroke="midnightblue" d="M582.328,-440.45C562.844,-431.773 531.596,-417.856 509.028,-407.804"/>
<polygon fill="midnightblue" stroke="midnightblue" points="510.204,-404.497 499.645,-403.625 507.356,-410.891 510.204,-404.497"/>
</g>
<!-- Node14 -->
<g id="node14" class="node"><title>Node14</title>
<g id="a_node14"><a xlink:href="$HAL_8h.html" xlink:title="HAL.h">
<polygon fill="white" stroke="black" points="402.505,-330.5 402.505,-348.5 446.298,-348.5 446.298,-330.5 402.505,-330.5"/>
<text text-anchor="middle" x="424.401" y="-336.5" font-family="Helvetica,sans-Serif" font-size="10.00">HAL.h</text>
</a>
</g>
</g>
<!-- Node7&#45;&gt;Node14 -->
<g id="edge69" class="edge"><title>Node7&#45;&gt;Node14</title>
<path fill="none" stroke="midnightblue" d="M548.385,-441.957C503.182,-435.102 442.621,-422.702 427.401,-404 417.177,-391.437 417.69,-372.408 419.989,-358.456"/>
<polygon fill="midnightblue" stroke="midnightblue" points="423.434,-359.079 422.045,-348.576 416.581,-357.653 423.434,-359.079"/>
</g>
<!-- Node15 -->
<g id="node15" class="node"><title>Node15</title>
<g id="a_node15"><a xlink:href="$AnalogIn_8h.html" xlink:title="AnalogIn.h">
<polygon fill="white" stroke="black" points="247.493,-220.5 247.493,-238.5 311.31,-238.5 311.31,-220.5 247.493,-220.5"/>
<text text-anchor="middle" x="279.401" y="-226.5" font-family="Helvetica,sans-Serif" font-size="10.00">AnalogIn.h</text>
</a>
</g>
</g>
<!-- Node7&#45;&gt;Node15 -->
<g id="edge51" class="edge"><title>Node7&#45;&gt;Node15</title>
<path fill="none" stroke="midnightblue" d="M548.081,-446.556C504.045,-442.837 440.841,-432.459 393.401,-404 338.502,-371.066 331.689,-349.854 300.401,-294 292.413,-279.74 286.861,-261.963 283.48,-248.848"/>
<polygon fill="midnightblue" stroke="midnightblue" points="286.79,-247.641 281.062,-238.728 279.982,-249.268 286.79,-247.641"/>
</g>
<!-- Node17 -->
<g id="node17" class="node"><title>Node17</title>
<g id="a_node17"><a xlink:href="$GPIO_8h.html" xlink:title="GPIO.h">
<polygon fill="white" stroke="black" points="1123.73,-220.5 1123.73,-238.5 1173.07,-238.5 1173.07,-220.5 1123.73,-220.5"/>
<text text-anchor="middle" x="1148.4" y="-226.5" font-family="Helvetica,sans-Serif" font-size="10.00">GPIO.h</text>
</a>
</g>
</g>
<!-- Node7&#45;&gt;Node17 -->
<g id="edge53" class="edge"><title>Node7&#45;&gt;Node17</title>
<path fill="none" stroke="midnightblue" d="M652.411,-440.935C655.111,-440.604 657.787,-440.29 660.401,-440 710.146,-434.487 1071.6,-436.807 1109.4,-404 1154.84,-364.556 1153.7,-284.603 1150.56,-248.688"/>
<polygon fill="midnightblue" stroke="midnightblue" points="1154.04,-248.271 1149.53,-238.682 1147.07,-248.988 1154.04,-248.271"/>
</g>
<!-- Node18 -->
<g id="node18" class="node"><title>Node18</title>
<g id="a_node18"><a xlink:href="$RCInput_8h.html" xlink:title="RCInput.h">
<polygon fill="white" stroke="black" points="67.8892,-275.5 67.8892,-293.5 128.914,-293.5 128.914,-275.5 67.8892,-275.5"/>
<text text-anchor="middle" x="98.4014" y="-281.5" font-family="Helvetica,sans-Serif" font-size="10.00">RCInput.h</text>
</a>
</g>
</g>
<!-- Node7&#45;&gt;Node18 -->
<g id="edge54" class="edge"><title>Node7&#45;&gt;Node18</title>
<path fill="none" stroke="midnightblue" d="M548.443,-447.11C431.15,-443.488 153.596,-432.023 122.401,-404 94.2448,-378.706 93.846,-330.253 96.0712,-303.815"/>
<polygon fill="midnightblue" stroke="midnightblue" points="99.5728,-303.985 97.15,-293.671 92.6121,-303.245 99.5728,-303.985"/>
</g>
<!-- Node19 -->
<g id="node19" class="node"><title>Node19</title>
<g id="a_node19"><a xlink:href="$RCOutput_8h.html" xlink:title="RCOutput.h">
<polygon fill="white" stroke="black" points="185,-275.5 185,-293.5 253.803,-293.5 253.803,-275.5 185,-275.5"/>
<text text-anchor="middle" x="219.401" y="-281.5" font-family="Helvetica,sans-Serif" font-size="10.00">RCOutput.h</text>
</a>
</g>
</g>
<!-- Node7&#45;&gt;Node19 -->
<g id="edge55" class="edge"><title>Node7&#45;&gt;Node19</title>
<path fill="none" stroke="midnightblue" d="M548.441,-446.619C444.032,-442.303 216.712,-429.998 193.401,-404 167.718,-375.355 191.924,-327.257 207.9,-302.05"/>
<polygon fill="midnightblue" stroke="midnightblue" points="210.894,-303.868 213.499,-293.599 205.058,-300.002 210.894,-303.868"/>
</g>
<!-- Node20 -->
<g id="node20" class="node"><title>Node20</title>
<g id="a_node20"><a xlink:href="$SPIDriver_8h.html" xlink:title="SPIDriver.h">
<polygon fill="white" stroke="black" points="309.113,-275.5 309.113,-293.5 375.689,-293.5 375.689,-275.5 309.113,-275.5"/>
<text text-anchor="middle" x="342.401" y="-281.5" font-family="Helvetica,sans-Serif" font-size="10.00">SPIDriver.h</text>
</a>
</g>
</g>
<!-- Node7&#45;&gt;Node20 -->
<g id="edge50" class="edge"><title>Node7&#45;&gt;Node20</title>
<path fill="none" stroke="midnightblue" d="M548.42,-446.381C508.947,-442.454 455.05,-431.88 416.401,-404 380.773,-378.298 358.517,-329.646 348.546,-303.385"/>
<polygon fill="midnightblue" stroke="midnightblue" points="351.712,-301.849 345.021,-293.634 345.129,-304.228 351.712,-301.849"/>
</g>
<!-- Node21 -->
<g id="node21" class="node"><title>Node21</title>
<g id="a_node21"><a xlink:href="$Storage_8h.html" xlink:title="Storage.h">
<polygon fill="white" stroke="black" points="507.719,-275.5 507.719,-293.5 567.083,-293.5 567.083,-275.5 507.719,-275.5"/>
<text text-anchor="middle" x="537.401" y="-281.5" font-family="Helvetica,sans-Serif" font-size="10.00">Storage.h</text>
</a>
</g>
</g>
<!-- Node7&#45;&gt;Node21 -->
<g id="edge52" class="edge"><title>Node7&#45;&gt;Node21</title>
<path fill="none" stroke="midnightblue" d="M597.191,-440.193C587.374,-414.794 557.612,-337.791 544.147,-302.952"/>
<polygon fill="midnightblue" stroke="midnightblue" points="547.401,-301.663 540.531,-293.597 540.871,-304.186 547.401,-301.663"/>
</g>
<!-- Node22 -->
<g id="node22" class="node"><title>Node22</title>
<g id="a_node22"><a xlink:href="$UARTDriver_8h.html" xlink:title="UARTDriver.h">
<polygon fill="white" stroke="black" points="709.649,-275.5 709.649,-293.5 787.153,-293.5 787.153,-275.5 709.649,-275.5"/>
<text text-anchor="middle" x="748.401" y="-281.5" font-family="Helvetica,sans-Serif" font-size="10.00">UARTDriver.h</text>
</a>
</g>
</g>
<!-- Node7&#45;&gt;Node22 -->
<g id="edge46" class="edge"><title>Node7&#45;&gt;Node22</title>
<path fill="none" stroke="midnightblue" d="M624.441,-440.407C642.93,-433.205 668.151,-421.142 685.401,-404 714.915,-374.673 733.909,-328.6 742.698,-303.414"/>
<polygon fill="midnightblue" stroke="midnightblue" points="746.085,-304.32 745.931,-293.727 739.445,-302.105 746.085,-304.32"/>
</g>
<!-- Node23 -->
<g id="node23" class="node"><title>Node23</title>
<g id="a_node23"><a xlink:href="$BetterStream_8h.html" xlink:title="utility/BetterStream.h">
<polygon fill="white" stroke="black" points="618.995,-220.5 618.995,-238.5 727.808,-238.5 727.808,-220.5 618.995,-220.5"/>
<text text-anchor="middle" x="673.401" y="-226.5" font-family="Helvetica,sans-Serif" font-size="10.00">utility/BetterStream.h</text>
</a>
</g>
</g>
<!-- Node7&#45;&gt;Node23 -->
<g id="edge68" class="edge"><title>Node7&#45;&gt;Node23</title>
<path fill="none" stroke="midnightblue" d="M611.765,-440.342C622.034,-432.314 636.685,-419.09 644.401,-404 670.777,-352.418 673.987,-282.011 673.881,-249.003"/>
<polygon fill="midnightblue" stroke="midnightblue" points="677.375,-248.586 673.728,-238.639 670.376,-248.689 677.375,-248.586"/>
</g>
<!-- Node25 -->
<g id="node25" class="node"><title>Node25</title>
<g id="a_node25"><a xlink:href="$Stream_8h.html" xlink:title="Stream.h">
<polygon fill="white" stroke="black" points="135.116,-165.5 135.116,-183.5 191.687,-183.5 191.687,-165.5 135.116,-165.5"/>
<text text-anchor="middle" x="163.401" y="-171.5" font-family="Helvetica,sans-Serif" font-size="10.00">Stream.h</text>
</a>
</g>
</g>
<!-- Node7&#45;&gt;Node25 -->
<g id="edge67" class="edge"><title>Node7&#45;&gt;Node25</title>
<path fill="none" stroke="midnightblue" d="M548.17,-446.647C441.298,-442.336 205.566,-429.965 180.401,-404 124.237,-346.049 146.413,-236.448 158.037,-193.452"/>
<polygon fill="midnightblue" stroke="midnightblue" points="161.468,-194.181 160.837,-183.605 154.735,-192.267 161.468,-194.181"/>
</g>
<!-- Node26 -->
<g id="node26" class="node"><title>Node26</title>
<g id="a_node26"><a xlink:href="$Print_8h.html" xlink:title="Print.h">
<polygon fill="white" stroke="black" points="34.9507,-110.5 34.9507,-128.5 79.8521,-128.5 79.8521,-110.5 34.9507,-110.5"/>
<text text-anchor="middle" x="57.4014" y="-116.5" font-family="Helvetica,sans-Serif" font-size="10.00">Print.h</text>
</a>
</g>
</g>
<!-- Node7&#45;&gt;Node26 -->
<g id="edge66" class="edge"><title>Node7&#45;&gt;Node26</title>
<path fill="none" stroke="midnightblue" d="M548.077,-448.146C437.371,-446.699 183.22,-439.489 105.401,-404 68.3655,-387.11 39.4014,-381.206 39.4014,-340.5 39.4014,-340.5 39.4014,-340.5 39.4014,-228.5 39.4014,-196.436 47.2165,-159.736 52.5477,-138.431"/>
<polygon fill="midnightblue" stroke="midnightblue" points="55.9872,-139.112 55.1217,-128.552 49.2133,-137.347 55.9872,-139.112"/>
</g>
<!-- Node27 -->
<g id="node27" class="node"><title>Node27</title>
<g id="a_node27"><a xlink:href="$I2CDriver_8h.html" xlink:title="I2CDriver.h">
<polygon fill="white" stroke="black" points="383.392,-165.5 383.392,-183.5 449.411,-183.5 449.411,-165.5 383.392,-165.5"/>
<text text-anchor="middle" x="416.401" y="-171.5" font-family="Helvetica,sans-Serif" font-size="10.00">I2CDriver.h</text>
</a>
</g>
</g>
<!-- Node7&#45;&gt;Node27 -->
<g id="edge47" class="edge"><title>Node7&#45;&gt;Node27</title>
<path fill="none" stroke="midnightblue" d="M594.895,-440.33C569.394,-402.495 462.542,-243.958 427.549,-192.039"/>
<polygon fill="midnightblue" stroke="midnightblue" points="430.378,-189.975 421.887,-183.638 424.573,-193.887 430.378,-189.975"/>
</g>
<!-- Node28 -->
<g id="node28" class="node"><title>Node28</title>
<g id="a_node28"><a xlink:href="$Scheduler_8h.html" xlink:title="Scheduler.h">
<polygon fill="white" stroke="black" points="941.99,-220.5 941.99,-238.5 1010.81,-238.5 1010.81,-220.5 941.99,-220.5"/>
<text text-anchor="middle" x="976.401" y="-226.5" font-family="Helvetica,sans-Serif" font-size="10.00">Scheduler.h</text>
</a>
</g>
</g>
<!-- Node7&#45;&gt;Node28 -->
<g id="edge56" class="edge"><title>Node7&#45;&gt;Node28</title>
<path fill="none" stroke="midnightblue" d="M651.938,-440.475C723.205,-429.223 844.08,-409.513 852.401,-404 885.083,-382.35 878.591,-362.574 900.401,-330 916.932,-305.312 920.286,-298.55 938.401,-275 945.927,-265.216 954.869,-254.696 962.188,-246.341"/>
<polygon fill="midnightblue" stroke="midnightblue" points="964.842,-248.623 968.852,-238.817 959.602,-243.982 964.842,-248.623"/>
</g>
<!-- Node29 -->
<g id="node29" class="node"><title>Node29</title>
<g id="a_node29"><a xlink:href="$Semaphores_8h.html" xlink:title="Semaphores.h">
<polygon fill="white" stroke="black" points="1187.88,-330.5 1187.88,-348.5 1268.92,-348.5 1268.92,-330.5 1187.88,-330.5"/>
<text text-anchor="middle" x="1228.4" y="-336.5" font-family="Helvetica,sans-Serif" font-size="10.00">Semaphores.h</text>
</a>
</g>
</g>
<!-- Node7&#45;&gt;Node29 -->
<g id="edge61" class="edge"><title>Node7&#45;&gt;Node29</title>
<path fill="none" stroke="midnightblue" d="M652.408,-440.912C655.11,-440.587 657.786,-440.28 660.401,-440 769.844,-428.274 1052.64,-445.945 1154.4,-404 1179.26,-393.754 1201.76,-371.779 1215.25,-356.573"/>
<polygon fill="midnightblue" stroke="midnightblue" points="1218.28,-358.419 1222.11,-348.542 1212.96,-353.874 1218.28,-358.419"/>
</g>
<!-- Node30 -->
<g id="node30" class="node"><title>Node30</title>
<g id="a_node30"><a xlink:href="$Util_8h.html" xlink:title="Util.h">
<polygon fill="white" stroke="black" points="1029.01,-220.5 1029.01,-238.5 1067.79,-238.5 1067.79,-220.5 1029.01,-220.5"/>
<text text-anchor="middle" x="1048.4" y="-226.5" font-family="Helvetica,sans-Serif" font-size="10.00">Util.h</text>
</a>
</g>
</g>
<!-- Node7&#45;&gt;Node30 -->
<g id="edge63" class="edge"><title>Node7&#45;&gt;Node30</title>
<path fill="none" stroke="midnightblue" d="M652.395,-441C729.831,-429.707 867.485,-409.112 877.401,-404 951.621,-365.74 1013.07,-283.295 1037.3,-247.578"/>
<polygon fill="midnightblue" stroke="midnightblue" points="1040.5,-249.083 1043.13,-238.818 1034.68,-245.206 1040.5,-249.083"/>
</g>
<!-- Node9 -->
<g id="node9" class="node"><title>Node9</title>
<polygon fill="white" stroke="#bfbfbf" points="254.005,-0.5 254.005,-18.5 302.798,-18.5 302.798,-0.5 254.005,-0.5"/>
<text text-anchor="middle" x="278.401" y="-6.5" font-family="Helvetica,sans-Serif" font-size="10.00">string.h</text>
</g>
<!-- Node8&#45;&gt;Node9 -->
<g id="edge10" class="edge"><title>Node8&#45;&gt;Node9</title>
<path fill="none" stroke="midnightblue" d="M395.442,-55.4504C372.443,-46.6173 335.306,-32.3546 309.04,-22.267"/>
<polygon fill="midnightblue" stroke="midnightblue" points="310.148,-18.9433 299.558,-18.6253 307.638,-25.478 310.148,-18.9433"/>
</g>
<!-- Node10 -->
<g id="node10" class="node"><title>Node10</title>
<g id="a_node10"><a xlink:href="$functor_8h.html" xlink:title="utility/functor.h">
<polygon fill="white" stroke="black" points="376.438,-0.5 376.438,-18.5 456.364,-18.5 456.364,-0.5 376.438,-0.5"/>
<text text-anchor="middle" x="416.401" y="-6.5" font-family="Helvetica,sans-Serif" font-size="10.00">utility/functor.h</text>
</a>
</g>
</g>
<!-- Node8&#45;&gt;Node10 -->
<g id="edge11" class="edge"><title>Node8&#45;&gt;Node10</title>
<path fill="none" stroke="midnightblue" d="M416.401,-55.2188C416.401,-48.1769 416.401,-37.8083 416.401,-28.8277"/>
<polygon fill="midnightblue" stroke="midnightblue" points="419.901,-28.5495 416.401,-18.5496 412.901,-28.5496 419.901,-28.5495"/>
</g>
<!-- Node13&#45;&gt;Node14 -->
<g id="edge15" class="edge"><title>Node13&#45;&gt;Node14</title>
<path fill="none" stroke="midnightblue" d="M472.495,-385.219C463.996,-377.316 450.991,-365.224 440.647,-355.606"/>
<polygon fill="midnightblue" stroke="midnightblue" points="442.765,-352.796 433.058,-348.55 437.999,-357.922 442.765,-352.796"/>
</g>
<!-- Node14&#45;&gt;Node8 -->
<g id="edge16" class="edge"><title>Node14&#45;&gt;Node8</title>
<path fill="none" stroke="midnightblue" d="M422.426,-330.215C419.466,-318.029 413.565,-294.596 407.401,-275 392.087,-226.31 364.275,-215.027 374.401,-165 380.578,-134.483 396.413,-101.692 406.778,-82.416"/>
<polygon fill="midnightblue" stroke="midnightblue" points="409.848,-84.0975 411.619,-73.6518 403.72,-80.7127 409.848,-84.0975"/>
</g>
<!-- Node14&#45;&gt;Node15 -->
<g id="edge17" class="edge"><title>Node14&#45;&gt;Node15</title>
<path fill="none" stroke="midnightblue" d="M421.206,-330.375C415.613,-317.107 402.862,-290.7 384.401,-275 366.173,-259.498 341.754,-248.715 321.051,-241.65"/>
<polygon fill="midnightblue" stroke="midnightblue" points="322.126,-238.319 311.534,-238.569 319.97,-244.979 322.126,-238.319"/>
</g>
<!-- Node14&#45;&gt;Node17 -->
<g id="edge20" class="edge"><title>Node14&#45;&gt;Node17</title>
<path fill="none" stroke="midnightblue" d="M446.686,-336.301C504.539,-330.491 664.213,-313.812 796.401,-294 913.038,-276.519 1050.36,-250.025 1113.47,-237.513"/>
<polygon fill="midnightblue" stroke="midnightblue" points="1114.18,-240.941 1123.3,-235.557 1112.81,-234.075 1114.18,-240.941"/>
</g>
<!-- Node14&#45;&gt;Node18 -->
<g id="edge23" class="edge"><title>Node14&#45;&gt;Node18</title>
<path fill="none" stroke="midnightblue" d="M402.25,-334.899C348.271,-326.123 209.267,-303.524 139.553,-292.19"/>
<polygon fill="midnightblue" stroke="midnightblue" points="139.817,-288.687 129.385,-290.537 138.694,-295.597 139.817,-288.687"/>
</g>
<!-- Node14&#45;&gt;Node19 -->
<g id="edge25" class="edge"><title>Node14&#45;&gt;Node19</title>
<path fill="none" stroke="midnightblue" d="M402.463,-332.828C368.612,-324.076 303.093,-307.137 260.316,-296.078"/>
<polygon fill="midnightblue" stroke="midnightblue" points="261.052,-292.653 250.495,-293.539 259.3,-299.43 261.052,-292.653"/>
</g>
<!-- Node14&#45;&gt;Node20 -->
<g id="edge27" class="edge"><title>Node14&#45;&gt;Node20</title>
<path fill="none" stroke="midnightblue" d="M411.947,-330.45C399.184,-322.201 379.094,-309.216 363.781,-299.319"/>
<polygon fill="midnightblue" stroke="midnightblue" points="365.271,-296.114 354.973,-293.625 361.471,-301.993 365.271,-296.114"/>
</g>
<!-- Node14&#45;&gt;Node21 -->
<g id="edge29" class="edge"><title>Node14&#45;&gt;Node21</title>
<path fill="none" stroke="midnightblue" d="M441.564,-330.45C459.982,-321.812 489.472,-307.98 510.879,-297.94"/>
<polygon fill="midnightblue" stroke="midnightblue" points="512.51,-301.041 520.078,-293.625 509.538,-294.703 512.51,-301.041"/>
</g>
<!-- Node14&#45;&gt;Node22 -->
<g id="edge32" class="edge"><title>Node14&#45;&gt;Node22</title>
<path fill="none" stroke="midnightblue" d="M446.416,-334.899C498.07,-326.449 628.063,-305.185 699.499,-293.499"/>
<polygon fill="midnightblue" stroke="midnightblue" points="700.294,-296.916 709.598,-291.848 699.164,-290.008 700.294,-296.916"/>
</g>
<!-- Node15&#45;&gt;Node8 -->
<g id="edge19" class="edge"><title>Node15&#45;&gt;Node8</title>
<path fill="none" stroke="midnightblue" d="M278.611,-220.497C277.009,-199.675 275.62,-143.135 303.401,-110 317.255,-93.4769 338.072,-83.0537 358.08,-76.4935"/>
<polygon fill="midnightblue" stroke="midnightblue" points="359.232,-79.8021 367.802,-73.5736 357.218,-73.0979 359.232,-79.8021"/>
</g>
<!-- Node16 -->
<g id="node16" class="node"><title>Node16</title>
<polygon fill="white" stroke="#bfbfbf" points="0,-55.5 0,-73.5 58.8027,-73.5 58.8027,-55.5 0,-55.5"/>
<text text-anchor="middle" x="29.4014" y="-61.5" font-family="Helvetica,sans-Serif" font-size="10.00">inttypes.h</text>
</g>
<!-- Node15&#45;&gt;Node16 -->
<g id="edge18" class="edge"><title>Node15&#45;&gt;Node16</title>
<path fill="none" stroke="midnightblue" d="M247.177,-227.492C189.916,-223.703 72.1635,-206.396 26.4014,-129 18.3267,-115.343 20.2661,-97.0018 23.5195,-83.5426"/>
<polygon fill="midnightblue" stroke="midnightblue" points="26.9797,-84.1726 26.3702,-73.5953 20.2506,-82.244 26.9797,-84.1726"/>
</g>
<!-- Node17&#45;&gt;Node3 -->
<g id="edge21" class="edge"><title>Node17&#45;&gt;Node3</title>
<path fill="none" stroke="midnightblue" d="M1145.89,-220.301C1141.18,-206.428 1129.62,-178.519 1109.4,-165 1070.05,-138.685 931.069,-126.715 865.773,-122.448"/>
<polygon fill="midnightblue" stroke="midnightblue" points="865.783,-118.941 855.583,-121.805 865.343,-125.928 865.783,-118.941"/>
</g>
<!-- Node17&#45;&gt;Node8 -->
<g id="edge22" class="edge"><title>Node17&#45;&gt;Node8</title>
<path fill="none" stroke="midnightblue" d="M1143.6,-220.475C1129.64,-198.027 1086.58,-134.632 1031.4,-110 935.918,-67.3725 628.012,-63.8903 487.501,-64.6323"/>
<polygon fill="midnightblue" stroke="midnightblue" points="487.251,-61.1337 477.273,-64.6954 487.294,-68.1336 487.251,-61.1337"/>
</g>
<!-- Node18&#45;&gt;Node8 -->
<g id="edge24" class="edge"><title>Node18&#45;&gt;Node8</title>
<path fill="none" stroke="midnightblue" d="M98.7565,-275.457C99.952,-255.473 105.062,-202.475 126.401,-165 143.821,-134.408 152.145,-126.198 183.401,-110 233.752,-83.9065 297.353,-73.0089 345.379,-68.5093"/>
<polygon fill="midnightblue" stroke="midnightblue" points="345.72,-71.993 355.381,-67.6431 345.116,-65.0191 345.72,-71.993"/>
</g>
<!-- Node19&#45;&gt;Node8 -->
<g id="edge26" class="edge"><title>Node19&#45;&gt;Node8</title>
<path fill="none" stroke="midnightblue" d="M220.181,-275.188C223.238,-247.419 236.905,-156.962 288.401,-110 306.806,-93.2156 331.881,-82.7029 354.961,-76.1452"/>
<polygon fill="midnightblue" stroke="midnightblue" points="355.931,-79.5091 364.705,-73.5702 354.143,-72.7414 355.931,-79.5091"/>
</g>
<!-- Node20&#45;&gt;Node8 -->
<g id="edge28" class="edge"><title>Node20&#45;&gt;Node8</title>
<path fill="none" stroke="midnightblue" d="M339.639,-275.178C331.428,-248.84 309.653,-165.754 341.401,-110 349.883,-95.1062 365.528,-84.6829 380.344,-77.6888"/>
<polygon fill="midnightblue" stroke="midnightblue" points="382.082,-80.7509 389.877,-73.5753 379.309,-74.3238 382.082,-80.7509"/>
</g>
<!-- Node21&#45;&gt;Node3 -->
<g id="edge30" class="edge"><title>Node21&#45;&gt;Node3</title>
<path fill="none" stroke="midnightblue" d="M542.506,-275.37C556.535,-253.738 598.006,-194.413 648.401,-165 673.421,-150.398 751.481,-134.69 797.168,-126.403"/>
<polygon fill="midnightblue" stroke="midnightblue" points="797.988,-129.812 807.215,-124.606 796.755,-122.921 797.988,-129.812"/>
</g>
<!-- Node21&#45;&gt;Node8 -->
<g id="edge31" class="edge"><title>Node21&#45;&gt;Node8</title>
<path fill="none" stroke="midnightblue" d="M532.951,-275.483C515.389,-243.841 450.648,-127.2 426.008,-82.8075"/>
<polygon fill="midnightblue" stroke="midnightblue" points="428.934,-80.868 421.021,-73.8231 422.814,-84.2651 428.934,-80.868"/>
</g>
<!-- Node22&#45;&gt;Node2 -->
<g id="edge34" class="edge"><title>Node22&#45;&gt;Node2</title>
<path fill="none" stroke="midnightblue" d="M754.801,-275.206C763.389,-263.009 776.76,-239.562 769.401,-220 765.169,-208.75 756.66,-198.489 748.666,-190.662"/>
<polygon fill="midnightblue" stroke="midnightblue" points="750.772,-187.846 741.022,-183.7 746.058,-193.021 750.772,-187.846"/>
</g>
<!-- Node22&#45;&gt;Node3 -->
<g id="edge33" class="edge"><title>Node22&#45;&gt;Node3</title>
<path fill="none" stroke="midnightblue" d="M756.123,-275.432C764.084,-266.851 776.55,-252.659 785.401,-239 800.21,-216.148 802.464,-209.353 812.401,-184 818.247,-169.085 823.354,-151.612 826.797,-138.775"/>
<polygon fill="midnightblue" stroke="midnightblue" points="830.244,-139.427 829.37,-128.868 823.468,-137.666 830.244,-139.427"/>
</g>
<!-- Node22&#45;&gt;Node8 -->
<g id="edge35" class="edge"><title>Node22&#45;&gt;Node8</title>
<path fill="none" stroke="midnightblue" d="M749.16,-275.479C749.953,-262.362 749.598,-236.166 736.401,-220 709.679,-187.265 686.429,-202.428 648.401,-184 588.226,-154.838 577.183,-139.962 517.401,-110 493.7,-98.1211 466.116,-86.0839 445.769,-77.5293"/>
<polygon fill="midnightblue" stroke="midnightblue" points="446.987,-74.2453 436.411,-73.6256 444.292,-80.7058 446.987,-74.2453"/>
</g>
<!-- Node22&#45;&gt;Node23 -->
<g id="edge36" class="edge"><title>Node22&#45;&gt;Node23</title>
<path fill="none" stroke="midnightblue" d="M737.01,-275.45C725.447,-267.279 707.308,-254.46 693.354,-244.6"/>
<polygon fill="midnightblue" stroke="midnightblue" points="695.086,-241.538 684.899,-238.625 691.046,-247.255 695.086,-241.538"/>
</g>
<!-- Node23&#45;&gt;Node2 -->
<g id="edge38" class="edge"><title>Node23&#45;&gt;Node2</title>
<path fill="none" stroke="midnightblue" d="M682.308,-220.219C690.807,-212.316 703.811,-200.224 714.156,-190.606"/>
<polygon fill="midnightblue" stroke="midnightblue" points="716.804,-192.922 721.744,-183.55 712.038,-187.796 716.804,-192.922"/>
</g>
<!-- Node23&#45;&gt;Node8 -->
<g id="edge39" class="edge"><title>Node23&#45;&gt;Node8</title>
<path fill="none" stroke="midnightblue" d="M651.541,-220.386C631.482,-212.481 601.338,-199.42 577.401,-184 535.012,-156.692 532.352,-139.422 491.401,-110 475.263,-98.4051 455.959,-87.0024 440.977,-78.6426"/>
<polygon fill="midnightblue" stroke="midnightblue" points="442.282,-75.3661 431.832,-73.617 438.91,-81.5007 442.282,-75.3661"/>
</g>
<!-- Node24 -->
<g id="node24" class="node"><title>Node24</title>
<polygon fill="white" stroke="#bfbfbf" points="859.335,-165.5 859.335,-183.5 911.468,-183.5 911.468,-165.5 859.335,-165.5"/>
<text text-anchor="middle" x="885.401" y="-171.5" font-family="Helvetica,sans-Serif" font-size="10.00">stdarg.h</text>
</g>
<!-- Node23&#45;&gt;Node24 -->
<g id="edge37" class="edge"><title>Node23&#45;&gt;Node24</title>
<path fill="none" stroke="midnightblue" d="M705.6,-220.45C744.28,-210.78 808.989,-194.603 849.32,-184.52"/>
<polygon fill="midnightblue" stroke="midnightblue" points="850.412,-187.855 859.265,-182.034 848.715,-181.064 850.412,-187.855"/>
</g>
<!-- Node23&#45;&gt;Node25 -->
<g id="edge40" class="edge"><title>Node23&#45;&gt;Node25</title>
<path fill="none" stroke="midnightblue" d="M618.822,-222.828C515.008,-212.039 291.468,-188.809 201.784,-179.489"/>
<polygon fill="midnightblue" stroke="midnightblue" points="202.085,-176.001 191.776,-178.449 201.361,-182.964 202.085,-176.001"/>
</g>
<!-- Node25&#45;&gt;Node8 -->
<g id="edge41" class="edge"><title>Node25&#45;&gt;Node8</title>
<path fill="none" stroke="midnightblue" d="M166.368,-165.397C171.834,-151.669 184.853,-123.972 205.401,-110 246.473,-82.0729 301.642,-71.1401 345.267,-67.0878"/>
<polygon fill="midnightblue" stroke="midnightblue" points="345.562,-70.5754 355.239,-66.2613 344.984,-63.5993 345.562,-70.5754"/>
</g>
<!-- Node25&#45;&gt;Node26 -->
<g id="edge42" class="edge"><title>Node25&#45;&gt;Node26</title>
<path fill="none" stroke="midnightblue" d="M147.302,-165.45C130.181,-156.89 102.86,-143.229 82.8251,-133.212"/>
<polygon fill="midnightblue" stroke="midnightblue" points="84.1615,-129.967 73.652,-128.625 81.031,-136.228 84.1615,-129.967"/>
</g>
<!-- Node26&#45;&gt;Node8 -->
<g id="edge43" class="edge"><title>Node26&#45;&gt;Node8</title>
<path fill="none" stroke="midnightblue" d="M80.1852,-112.776C84.5562,-111.776 89.1085,-110.801 93.4014,-110 179.499,-93.9423 279.51,-81.0396 345.167,-73.3439"/>
<polygon fill="midnightblue" stroke="midnightblue" points="345.873,-76.7854 355.402,-72.1538 345.065,-69.8323 345.873,-76.7854"/>
</g>
<!-- Node26&#45;&gt;Node9 -->
<g id="edge45" class="edge"><title>Node26&#45;&gt;Node9</title>
<path fill="none" stroke="midnightblue" d="M74.0123,-110.382C112.262,-91.6901 206.783,-45.4989 252.634,-23.0923"/>
<polygon fill="midnightblue" stroke="midnightblue" points="254.451,-26.0997 261.899,-18.5644 251.378,-19.8105 254.451,-26.0997"/>
</g>
<!-- Node26&#45;&gt;Node16 -->
<g id="edge44" class="edge"><title>Node26&#45;&gt;Node16</title>
<path fill="none" stroke="midnightblue" d="M53.0264,-110.219C49.1408,-102.864 43.338,-91.8801 38.4559,-82.639"/>
<polygon fill="midnightblue" stroke="midnightblue" points="41.4199,-80.7566 33.654,-73.5496 35.2305,-84.0264 41.4199,-80.7566"/>
</g>
<!-- Node27&#45;&gt;Node3 -->
<g id="edge48" class="edge"><title>Node27&#45;&gt;Node3</title>
<path fill="none" stroke="midnightblue" d="M449.661,-169.252C526.999,-159.376 718.3,-134.944 796.87,-124.91"/>
<polygon fill="midnightblue" stroke="midnightblue" points="797.709,-128.331 807.185,-123.593 796.822,-121.388 797.709,-128.331"/>
</g>
<!-- Node27&#45;&gt;Node8 -->
<g id="edge49" class="edge"><title>Node27&#45;&gt;Node8</title>
<path fill="none" stroke="midnightblue" d="M416.401,-165.382C416.401,-148.182 416.401,-107.698 416.401,-83.8866"/>
<polygon fill="midnightblue" stroke="midnightblue" points="419.901,-83.7117 416.401,-73.7118 412.901,-83.7118 419.901,-83.7117"/>
</g>
<!-- Node28&#45;&gt;Node2 -->
<g id="edge58" class="edge"><title>Node28&#45;&gt;Node2</title>
<path fill="none" stroke="midnightblue" d="M941.937,-221.075C899.1,-211.846 825.784,-196.05 777.708,-185.692"/>
<polygon fill="midnightblue" stroke="midnightblue" points="778.366,-182.254 767.853,-183.569 776.891,-189.097 778.366,-182.254"/>
</g>
<!-- Node28&#45;&gt;Node3 -->
<g id="edge57" class="edge"><title>Node28&#45;&gt;Node3</title>
<path fill="none" stroke="midnightblue" d="M994.961,-220.349C1018.93,-208.7 1055.64,-186.334 1038.4,-165 1017.07,-138.596 918.78,-127.129 865.675,-122.789"/>
<polygon fill="midnightblue" stroke="midnightblue" points="865.934,-119.298 855.693,-122.014 865.392,-126.277 865.934,-119.298"/>
</g>
<!-- Node28&#45;&gt;Node8 -->
<g id="edge60" class="edge"><title>Node28&#45;&gt;Node8</title>
<path fill="none" stroke="midnightblue" d="M1001.7,-220.474C1031.19,-209.771 1073.71,-189.323 1055.4,-165 988.245,-75.7762 639.609,-65.1367 487.502,-64.8273"/>
<polygon fill="midnightblue" stroke="midnightblue" points="487.336,-61.3273 477.334,-64.8215 487.332,-68.3273 487.336,-61.3273"/>
</g>
<!-- Node28&#45;&gt;Node11 -->
<g id="edge59" class="edge"><title>Node28&#45;&gt;Node11</title>
<path fill="none" stroke="midnightblue" d="M976.87,-220.219C977.269,-213.177 977.856,-202.808 978.364,-193.828"/>
<polygon fill="midnightblue" stroke="midnightblue" points="981.875,-193.731 978.946,-183.55 974.886,-193.336 981.875,-193.731"/>
</g>
<!-- Node29&#45;&gt;Node8 -->
<g id="edge62" class="edge"><title>Node29&#45;&gt;Node8</title>
<path fill="none" stroke="midnightblue" d="M1236.33,-330.331C1251.99,-313.286 1285.4,-272.054 1285.4,-230.5 1285.4,-230.5 1285.4,-230.5 1285.4,-173.5 1285.4,-93.328 695.399,-71.9504 487.695,-66.9086"/>
<polygon fill="midnightblue" stroke="midnightblue" points="487.588,-63.4052 477.508,-66.667 487.422,-70.4032 487.588,-63.4052"/>
</g>
<!-- Node30&#45;&gt;Node8 -->
<g id="edge65" class="edge"><title>Node30&#45;&gt;Node8</title>
<path fill="none" stroke="midnightblue" d="M1055.75,-220.416C1066.01,-208.087 1082.33,-184.013 1072.4,-165 1052.6,-127.078 1033.7,-124.371 993.401,-110 902.093,-77.4365 620.582,-68.6802 487.5,-66.3424"/>
<polygon fill="midnightblue" stroke="midnightblue" points="487.465,-62.8414 477.407,-66.1725 487.347,-69.8404 487.465,-62.8414"/>
</g>
<!-- Node30&#45;&gt;Node24 -->
<g id="edge64" class="edge"><title>Node30&#45;&gt;Node24</title>
<path fill="none" stroke="midnightblue" d="M1028.74,-222.107C1001.81,-213.349 953.012,-197.484 919.917,-186.723"/>
<polygon fill="midnightblue" stroke="midnightblue" points="920.784,-183.324 910.191,-183.561 918.619,-189.981 920.784,-183.324"/>
</g>
<!-- Node31&#45;&gt;Node7 -->
<g id="edge71" class="edge"><title>Node31&#45;&gt;Node7</title>
<path fill="none" stroke="midnightblue" d="M706.417,-495.45C685.767,-486.695 652.537,-472.606 628.785,-462.535"/>
<polygon fill="midnightblue" stroke="midnightblue" points="630.138,-459.307 619.565,-458.625 627.405,-465.751 630.138,-459.307"/>
</g>
<!-- Node32 -->
<g id="node32" class="node"><title>Node32</title>
<g id="a_node32"><a xlink:href="$AP__HAL__Linux__Namespace_8h.html" xlink:title="AP_HAL_Linux_Namespace.h">
<polygon fill="white" stroke="black" points="669.86,-440.5 669.86,-458.5 820.943,-458.5 820.943,-440.5 669.86,-440.5"/>
<text text-anchor="middle" x="745.401" y="-446.5" font-family="Helvetica,sans-Serif" font-size="10.00">AP_HAL_Linux_Namespace.h</text>
</a>
</g>
</g>
<!-- Node31&#45;&gt;Node32 -->
<g id="edge72" class="edge"><title>Node31&#45;&gt;Node32</title>
<path fill="none" stroke="midnightblue" d="M728.526,-495.219C731.272,-487.942 735.359,-477.113 738.822,-467.934"/>
<polygon fill="midnightblue" stroke="midnightblue" points="742.108,-469.141 742.364,-458.55 735.559,-466.67 742.108,-469.141"/>
</g>
<!-- Node33&#45;&gt;Node6 -->
<g id="edge74" class="edge"><title>Node33&#45;&gt;Node6</title>
<path fill="none" stroke="midnightblue" d="M799.554,-660.418C797.893,-647.667 793.27,-622.534 781.401,-605 772.943,-592.504 759.897,-581.844 748.524,-574.093"/>
<polygon fill="midnightblue" stroke="midnightblue" points="750.183,-570.999 739.882,-568.521 746.39,-576.882 750.183,-570.999"/>
</g>
<!-- Node34 -->
<g id="node34" class="node"><title>Node34</title>
<g id="a_node34"><a xlink:href="$RCInput__PRU_8h.html" xlink:title="RCInput_PRU.h">
<polygon fill="white" stroke="black" points="828.552,-605.5 828.552,-623.5 916.251,-623.5 916.251,-605.5 828.552,-605.5"/>
<text text-anchor="middle" x="872.401" y="-611.5" font-family="Helvetica,sans-Serif" font-size="10.00">RCInput_PRU.h</text>
</a>
</g>
</g>
<!-- Node33&#45;&gt;Node34 -->
<g id="edge75" class="edge"><title>Node33&#45;&gt;Node34</title>
<path fill="none" stroke="midnightblue" d="M811.337,-660.45C822.438,-652.279 839.851,-639.46 853.247,-629.6"/>
<polygon fill="midnightblue" stroke="midnightblue" points="855.385,-632.372 861.363,-623.625 851.235,-626.735 855.385,-632.372"/>
</g>
<!-- Node35 -->
<g id="node35" class="node"><title>Node35</title>
<g id="a_node35"><a xlink:href="$RCInput__ZYNQ_8h.html" xlink:title="RCInput_ZYNQ.h">
<polygon fill="white" stroke="black" points="678.219,-605.5 678.219,-623.5 772.583,-623.5 772.583,-605.5 678.219,-605.5"/>
<text text-anchor="middle" x="725.401" y="-611.5" font-family="Helvetica,sans-Serif" font-size="10.00">RCInput_ZYNQ.h</text>
</a>
</g>
</g>
<!-- Node33&#45;&gt;Node35 -->
<g id="edge77" class="edge"><title>Node33&#45;&gt;Node35</title>
<path fill="none" stroke="midnightblue" d="M789.01,-660.45C777.447,-652.279 759.308,-639.46 745.354,-629.6"/>
<polygon fill="midnightblue" stroke="midnightblue" points="747.086,-626.538 736.899,-623.625 743.046,-632.255 747.086,-626.538"/>
</g>
<!-- Node34&#45;&gt;Node6 -->
<g id="edge76" class="edge"><title>Node34&#45;&gt;Node6</title>
<path fill="none" stroke="midnightblue" d="M850.075,-605.45C825.468,-596.578 785.668,-582.229 757.669,-572.134"/>
<polygon fill="midnightblue" stroke="midnightblue" points="758.532,-568.725 747.938,-568.625 756.158,-575.31 758.532,-568.725"/>
</g>
<!-- Node35&#45;&gt;Node6 -->
<g id="edge78" class="edge"><title>Node35&#45;&gt;Node6</title>
<path fill="none" stroke="midnightblue" d="M725.401,-605.219C725.401,-598.177 725.401,-587.808 725.401,-578.828"/>
<polygon fill="midnightblue" stroke="midnightblue" points="728.901,-578.55 725.401,-568.55 721.901,-578.55 728.901,-578.55"/>
</g>
</g>
</svg>
