<?xml version="1.0" encoding="UTF-8" standalone="no"?>
<!DOCTYPE svg PUBLIC "-//W3C//DTD SVG 1.1//EN"
 "http://www.w3.org/Graphics/SVG/1.1/DTD/svg11.dtd">
<!-- Generated by graphviz version 2.38.0 (20140413.2041)
 -->
<!-- Title: libraries/AP_HAL_Linux/RCOutput_AioPRU.cpp Pages: 1 -->
<svg width="1866pt" height="717pt"
 viewBox="0.00 0.00 1866.47 717.00" xmlns="http://www.w3.org/2000/svg" xmlns:xlink="http://www.w3.org/1999/xlink">
<g id="graph0" class="graph" transform="scale(1 1) rotate(0) translate(4 713)">
<title>libraries/AP_HAL_Linux/RCOutput_AioPRU.cpp</title>
<polygon fill="white" stroke="none" points="-4,4 -4,-713 1862.47,-713 1862.47,4 -4,4"/>
<!-- Node1 -->
<g id="node1" class="node"><title>Node1</title>
<polygon fill="#bfbfbf" stroke="black" points="1385.36,-680.5 1385.36,-708.5 1508.64,-708.5 1508.64,-680.5 1385.36,-680.5"/>
<text text-anchor="start" x="1393.36" y="-696.5" font-family="Helvetica,sans-Serif" font-size="10.00">libraries/AP_HAL_Linux</text>
<text text-anchor="middle" x="1447" y="-686.5" font-family="Helvetica,sans-Serif" font-size="10.00">/RCOutput_AioPRU.cpp</text>
</g>
<!-- Node2 -->
<g id="node2" class="node"><title>Node2</title>
<g id="a_node2"><a xlink:href="$AP__HAL_8h.html" xlink:title="AP_HAL/AP_HAL.h">
<polygon fill="white" stroke="black" points="625.086,-440.5 625.086,-458.5 728.914,-458.5 728.914,-440.5 625.086,-440.5"/>
<text text-anchor="middle" x="677" y="-446.5" font-family="Helvetica,sans-Serif" font-size="10.00">AP_HAL/AP_HAL.h</text>
</a>
</g>
</g>
<!-- Node1&#45;&gt;Node2 -->
<g id="edge1" class="edge"><title>Node1&#45;&gt;Node2</title>
<path fill="none" stroke="midnightblue" d="M1385.01,-690.574C1297.82,-685.576 1134.35,-672.972 998,-644 890.759,-621.214 851.848,-633.233 763,-569 725.703,-542.036 698.145,-493.939 685.207,-468.089"/>
<polygon fill="midnightblue" stroke="midnightblue" points="688.211,-466.261 680.704,-458.784 681.91,-469.31 688.211,-466.261"/>
</g>
<!-- Node3 -->
<g id="node3" class="node"><title>Node3</title>
<polygon fill="white" stroke="#bfbfbf" points="570.879,-110.5 570.879,-128.5 619.121,-128.5 619.121,-110.5 570.879,-110.5"/>
<text text-anchor="middle" x="595" y="-116.5" font-family="Helvetica,sans-Serif" font-size="10.00">stdint.h</text>
</g>
<!-- Node1&#45;&gt;Node3 -->
<g id="edge78" class="edge"><title>Node1&#45;&gt;Node3</title>
<path fill="none" stroke="midnightblue" d="M1384.98,-694.083C1117.49,-695.795 76,-693.894 76,-560.5 76,-560.5 76,-560.5 76,-283.5 76,-181.612 444.677,-135.684 560.568,-123.763"/>
<polygon fill="midnightblue" stroke="midnightblue" points="561.065,-127.231 570.664,-122.746 560.363,-120.266 561.065,-127.231"/>
</g>
<!-- Node21 -->
<g id="node21" class="node"><title>Node21</title>
<polygon fill="white" stroke="#bfbfbf" points="1307.16,-110.5 1307.16,-128.5 1354.84,-128.5 1354.84,-110.5 1307.16,-110.5"/>
<text text-anchor="middle" x="1331" y="-116.5" font-family="Helvetica,sans-Serif" font-size="10.00">stdlib.h</text>
</g>
<!-- Node1&#45;&gt;Node21 -->
<g id="edge76" class="edge"><title>Node1&#45;&gt;Node21</title>
<path fill="none" stroke="midnightblue" d="M1423.64,-680.353C1410.36,-671.695 1394.52,-659.167 1385,-644 1364.77,-611.762 1366,-598.56 1366,-560.5 1366,-560.5 1366,-560.5 1366,-228.5 1366,-195.115 1350.68,-158.628 1340.31,-137.759"/>
<polygon fill="midnightblue" stroke="midnightblue" points="1343.28,-135.883 1335.58,-128.609 1337.06,-139.1 1343.28,-135.883"/>
</g>
<!-- Node30 -->
<g id="node30" class="node"><title>Node30</title>
<g id="a_node30"><a xlink:href="$RCOutput__AioPRU_8h.html" xlink:title="RCOutput_AioPRU.h">
<polygon fill="white" stroke="black" points="1007.03,-615.5 1007.03,-633.5 1116.97,-633.5 1116.97,-615.5 1007.03,-615.5"/>
<text text-anchor="middle" x="1062" y="-621.5" font-family="Helvetica,sans-Serif" font-size="10.00">RCOutput_AioPRU.h</text>
</a>
</g>
</g>
<!-- Node1&#45;&gt;Node30 -->
<g id="edge68" class="edge"><title>Node1&#45;&gt;Node30</title>
<path fill="none" stroke="midnightblue" d="M1385.14,-682.575C1311.2,-669.514 1188.55,-647.851 1117.52,-635.307"/>
<polygon fill="midnightblue" stroke="midnightblue" points="1117.89,-631.817 1107.43,-633.524 1116.67,-638.71 1117.89,-631.817"/>
</g>
<!-- Node34 -->
<g id="node34" class="node"><title>Node34</title>
<polygon fill="white" stroke="#bfbfbf" points="1393.66,-615.5 1393.66,-633.5 1436.34,-633.5 1436.34,-615.5 1393.66,-615.5"/>
<text text-anchor="middle" x="1415" y="-621.5" font-family="Helvetica,sans-Serif" font-size="10.00">fcntl.h</text>
</g>
<!-- Node1&#45;&gt;Node34 -->
<g id="edge74" class="edge"><title>Node1&#45;&gt;Node34</title>
<path fill="none" stroke="midnightblue" d="M1440.83,-680.389C1435.83,-669.762 1428.74,-654.691 1423.25,-643.029"/>
<polygon fill="midnightblue" stroke="midnightblue" points="1426.36,-641.413 1418.93,-633.855 1420.02,-644.394 1426.36,-641.413"/>
</g>
<!-- Node35 -->
<g id="node35" class="node"><title>Node35</title>
<polygon fill="white" stroke="#bfbfbf" points="1454.49,-615.5 1454.49,-633.5 1505.51,-633.5 1505.51,-615.5 1454.49,-615.5"/>
<text text-anchor="middle" x="1480" y="-621.5" font-family="Helvetica,sans-Serif" font-size="10.00">unistd.h</text>
</g>
<!-- Node1&#45;&gt;Node35 -->
<g id="edge75" class="edge"><title>Node1&#45;&gt;Node35</title>
<path fill="none" stroke="midnightblue" d="M1453.36,-680.389C1458.52,-669.762 1465.83,-654.691 1471.49,-643.029"/>
<polygon fill="midnightblue" stroke="midnightblue" points="1474.73,-644.38 1475.95,-633.855 1468.43,-641.324 1474.73,-644.38"/>
</g>
<!-- Node36 -->
<g id="node36" class="node"><title>Node36</title>
<polygon fill="white" stroke="#bfbfbf" points="1523.27,-615.5 1523.27,-633.5 1568.73,-633.5 1568.73,-615.5 1523.27,-615.5"/>
<text text-anchor="middle" x="1546" y="-621.5" font-family="Helvetica,sans-Serif" font-size="10.00">stdio.h</text>
</g>
<!-- Node1&#45;&gt;Node36 -->
<g id="edge77" class="edge"><title>Node1&#45;&gt;Node36</title>
<path fill="none" stroke="midnightblue" d="M1466.09,-680.389C1483.22,-668.623 1508.28,-651.409 1525.76,-639.406"/>
<polygon fill="midnightblue" stroke="midnightblue" points="1527.86,-642.207 1534.12,-633.66 1523.9,-636.437 1527.86,-642.207"/>
</g>
<!-- Node37 -->
<g id="node37" class="node"><title>Node37</title>
<polygon fill="white" stroke="#bfbfbf" points="1587.05,-615.5 1587.05,-633.5 1656.95,-633.5 1656.95,-615.5 1587.05,-615.5"/>
<text text-anchor="middle" x="1622" y="-621.5" font-family="Helvetica,sans-Serif" font-size="10.00">sys/mman.h</text>
</g>
<!-- Node1&#45;&gt;Node37 -->
<g id="edge79" class="edge"><title>Node1&#45;&gt;Node37</title>
<path fill="none" stroke="midnightblue" d="M1482.72,-680.406C1509.14,-670.625 1545.93,-656.794 1578,-644 1583.07,-641.979 1588.43,-639.774 1593.62,-637.614"/>
<polygon fill="midnightblue" stroke="midnightblue" points="1595.36,-640.678 1603.22,-633.575 1592.65,-634.225 1595.36,-640.678"/>
</g>
<!-- Node38 -->
<g id="node38" class="node"><title>Node38</title>
<polygon fill="white" stroke="#bfbfbf" points="1674.77,-615.5 1674.77,-633.5 1725.23,-633.5 1725.23,-615.5 1674.77,-615.5"/>
<text text-anchor="middle" x="1700" y="-621.5" font-family="Helvetica,sans-Serif" font-size="10.00">signal.h</text>
</g>
<!-- Node1&#45;&gt;Node38 -->
<g id="edge80" class="edge"><title>Node1&#45;&gt;Node38</title>
<path fill="none" stroke="midnightblue" d="M1508.74,-684.238C1553.36,-676.426 1614.57,-663.377 1666,-644 1670.1,-642.454 1674.32,-640.494 1678.33,-638.432"/>
<polygon fill="midnightblue" stroke="midnightblue" points="1680.08,-641.465 1687.16,-633.581 1676.71,-635.331 1680.08,-641.465"/>
</g>
<!-- Node39 -->
<g id="node39" class="node"><title>Node39</title>
<polygon fill="white" stroke="#bfbfbf" points="1743.53,-605.5 1743.53,-643.5 1858.47,-643.5 1858.47,-605.5 1743.53,-605.5"/>
<text text-anchor="start" x="1751.53" y="-631.5" font-family="Helvetica,sans-Serif" font-size="10.00">../../Tools/Linux_HAL</text>
<text text-anchor="start" x="1751.53" y="-621.5" font-family="Helvetica,sans-Serif" font-size="10.00">_Essentials/pru/aiopru</text>
<text text-anchor="middle" x="1801" y="-611.5" font-family="Helvetica,sans-Serif" font-size="10.00">/RcAioPRU_bin.h</text>
</g>
<!-- Node1&#45;&gt;Node39 -->
<g id="edge81" class="edge"><title>Node1&#45;&gt;Node39</title>
<path fill="none" stroke="midnightblue" d="M1508.65,-684.667C1564.78,-676.217 1650.1,-662.355 1733.46,-644.008"/>
<polygon fill="midnightblue" stroke="midnightblue" points="1734.35,-647.396 1743.35,-641.808 1732.83,-640.563 1734.35,-647.396"/>
</g>
<!-- Node2&#45;&gt;Node3 -->
<g id="edge2" class="edge"><title>Node2&#45;&gt;Node3</title>
<path fill="none" stroke="midnightblue" d="M677.087,-440.376C677.185,-410.335 675.544,-302.986 649,-220 639.011,-188.772 619.111,-155.993 606.458,-136.944"/>
<polygon fill="midnightblue" stroke="midnightblue" points="609.262,-134.843 600.748,-128.538 603.472,-138.777 609.262,-134.843"/>
</g>
<!-- Node4 -->
<g id="node4" class="node"><title>Node4</title>
<polygon fill="white" stroke="#bfbfbf" points="1197.71,-110.5 1197.71,-128.5 1254.29,-128.5 1254.29,-110.5 1197.71,-110.5"/>
<text text-anchor="middle" x="1226" y="-116.5" font-family="Helvetica,sans-Serif" font-size="10.00">stdbool.h</text>
</g>
<!-- Node2&#45;&gt;Node4 -->
<g id="edge3" class="edge"><title>Node2&#45;&gt;Node4</title>
<path fill="none" stroke="midnightblue" d="M729.008,-440.917C731.709,-440.591 734.385,-440.282 737,-440 951.018,-416.89 1014.54,-468.223 1220,-404 1273.15,-387.387 1328,-396.182 1328,-340.5 1328,-340.5 1328,-340.5 1328,-228.5 1328,-184.092 1281.86,-150.563 1251.64,-133.369"/>
<polygon fill="midnightblue" stroke="midnightblue" points="1253.3,-130.286 1242.84,-128.563 1249.94,-136.429 1253.3,-130.286"/>
</g>
<!-- Node5 -->
<g id="node5" class="node"><title>Node5</title>
<g id="a_node5"><a xlink:href="$AP__HAL__Namespace_8h.html" xlink:title="AP_HAL_Namespace.h">
<polygon fill="white" stroke="black" points="301.192,-55.5 301.192,-73.5 422.808,-73.5 422.808,-55.5 301.192,-55.5"/>
<text text-anchor="middle" x="362" y="-61.5" font-family="Helvetica,sans-Serif" font-size="10.00">AP_HAL_Namespace.h</text>
</a>
</g>
</g>
<!-- Node2&#45;&gt;Node5 -->
<g id="edge4" class="edge"><title>Node2&#45;&gt;Node5</title>
<path fill="none" stroke="midnightblue" d="M625.001,-445.682C466.473,-436.403 0,-403.73 0,-340.5 0,-340.5 0,-340.5 0,-173.5 0,-113.38 185.662,-83.9796 291.061,-72.1331"/>
<polygon fill="midnightblue" stroke="midnightblue" points="291.443,-75.6122 301.001,-71.041 290.679,-68.6541 291.443,-75.6122"/>
</g>
<!-- Node8 -->
<g id="node8" class="node"><title>Node8</title>
<g id="a_node8"><a xlink:href="$AP__HAL__Boards_8h.html" xlink:title="AP_HAL_Boards.h">
<polygon fill="white" stroke="black" points="1162.03,-165.5 1162.03,-183.5 1261.97,-183.5 1261.97,-165.5 1162.03,-165.5"/>
<text text-anchor="middle" x="1212" y="-171.5" font-family="Helvetica,sans-Serif" font-size="10.00">AP_HAL_Boards.h</text>
</a>
</g>
</g>
<!-- Node2&#45;&gt;Node8 -->
<g id="edge7" class="edge"><title>Node2&#45;&gt;Node8</title>
<path fill="none" stroke="midnightblue" d="M729.01,-440.937C731.71,-440.606 734.386,-440.291 737,-440 835.604,-429.037 1090.43,-442.173 1182,-404 1222,-387.325 1256,-383.838 1256,-340.5 1256,-340.5 1256,-340.5 1256,-283.5 1256,-249.068 1236.58,-212.721 1223.55,-192.199"/>
<polygon fill="midnightblue" stroke="midnightblue" points="1226.37,-190.122 1217.93,-183.71 1220.53,-193.982 1226.37,-190.122"/>
</g>
<!-- Node9 -->
<g id="node9" class="node"><title>Node9</title>
<g id="a_node9"><a xlink:href="$AP__HAL__Macros_8h.html" xlink:title="AP_HAL_Macros.h">
<polygon fill="white" stroke="black" points="1050.48,-385.5 1050.48,-403.5 1151.52,-403.5 1151.52,-385.5 1050.48,-385.5"/>
<text text-anchor="middle" x="1101" y="-391.5" font-family="Helvetica,sans-Serif" font-size="10.00">AP_HAL_Macros.h</text>
</a>
</g>
</g>
<!-- Node2&#45;&gt;Node9 -->
<g id="edge8" class="edge"><title>Node2&#45;&gt;Node9</title>
<path fill="none" stroke="midnightblue" d="M729.025,-441.062C731.721,-440.698 734.392,-440.342 737,-440 869.714,-422.612 903.194,-420.678 1036,-404 1037.3,-403.836 1038.62,-403.67 1039.95,-403.502"/>
<polygon fill="midnightblue" stroke="midnightblue" points="1040.79,-406.923 1050.26,-402.185 1039.9,-399.98 1040.79,-406.923"/>
</g>
<!-- Node10 -->
<g id="node10" class="node"><title>Node10</title>
<g id="a_node10"><a xlink:href="$AP__HAL__Main_8h.html" xlink:title="AP_HAL_Main.h">
<polygon fill="white" stroke="black" points="483.035,-385.5 483.035,-403.5 572.965,-403.5 572.965,-385.5 483.035,-385.5"/>
<text text-anchor="middle" x="528" y="-391.5" font-family="Helvetica,sans-Serif" font-size="10.00">AP_HAL_Main.h</text>
</a>
</g>
</g>
<!-- Node2&#45;&gt;Node10 -->
<g id="edge9" class="edge"><title>Node2&#45;&gt;Node10</title>
<path fill="none" stroke="midnightblue" d="M654.37,-440.45C629.319,-431.539 588.733,-417.103 560.334,-407.001"/>
<polygon fill="midnightblue" stroke="midnightblue" points="561.438,-403.679 550.843,-403.625 559.092,-410.274 561.438,-403.679"/>
</g>
<!-- Node11 -->
<g id="node11" class="node"><title>Node11</title>
<g id="a_node11"><a xlink:href="$HAL_8h.html" xlink:title="HAL.h">
<polygon fill="white" stroke="black" points="481.104,-330.5 481.104,-348.5 524.896,-348.5 524.896,-330.5 481.104,-330.5"/>
<text text-anchor="middle" x="503" y="-336.5" font-family="Helvetica,sans-Serif" font-size="10.00">HAL.h</text>
</a>
</g>
</g>
<!-- Node2&#45;&gt;Node11 -->
<g id="edge67" class="edge"><title>Node2&#45;&gt;Node11</title>
<path fill="none" stroke="midnightblue" d="M624.868,-444.371C571.118,-438.903 492.602,-427.122 474,-404 462.424,-389.611 474.902,-369.855 486.902,-356.218"/>
<polygon fill="midnightblue" stroke="midnightblue" points="489.76,-358.289 494.091,-348.62 484.676,-353.478 489.76,-358.289"/>
</g>
<!-- Node12 -->
<g id="node12" class="node"><title>Node12</title>
<g id="a_node12"><a xlink:href="$AnalogIn_8h.html" xlink:title="AnalogIn.h">
<polygon fill="white" stroke="black" points="576.091,-220.5 576.091,-238.5 639.909,-238.5 639.909,-220.5 576.091,-220.5"/>
<text text-anchor="middle" x="608" y="-226.5" font-family="Helvetica,sans-Serif" font-size="10.00">AnalogIn.h</text>
</a>
</g>
</g>
<!-- Node2&#45;&gt;Node12 -->
<g id="edge49" class="edge"><title>Node2&#45;&gt;Node12</title>
<path fill="none" stroke="midnightblue" d="M674.462,-440.483C664.49,-408.974 627.839,-293.181 613.657,-248.372"/>
<polygon fill="midnightblue" stroke="midnightblue" points="616.989,-247.301 610.634,-238.823 610.315,-249.413 616.989,-247.301"/>
</g>
<!-- Node14 -->
<g id="node14" class="node"><title>Node14</title>
<g id="a_node14"><a xlink:href="$GPIO_8h.html" xlink:title="GPIO.h">
<polygon fill="white" stroke="black" points="508.328,-220.5 508.328,-238.5 557.672,-238.5 557.672,-220.5 508.328,-220.5"/>
<text text-anchor="middle" x="533" y="-226.5" font-family="Helvetica,sans-Serif" font-size="10.00">GPIO.h</text>
</a>
</g>
</g>
<!-- Node2&#45;&gt;Node14 -->
<g id="edge51" class="edge"><title>Node2&#45;&gt;Node14</title>
<path fill="none" stroke="midnightblue" d="M671.704,-440.483C650.715,-408.708 573.106,-291.217 544.065,-247.251"/>
<polygon fill="midnightblue" stroke="midnightblue" points="546.93,-245.238 538.498,-238.823 541.089,-249.096 546.93,-245.238"/>
</g>
<!-- Node15 -->
<g id="node15" class="node"><title>Node15</title>
<g id="a_node15"><a xlink:href="$RCInput_8h.html" xlink:title="RCInput.h">
<polygon fill="white" stroke="black" points="243.488,-275.5 243.488,-293.5 304.512,-293.5 304.512,-275.5 243.488,-275.5"/>
<text text-anchor="middle" x="274" y="-281.5" font-family="Helvetica,sans-Serif" font-size="10.00">RCInput.h</text>
</a>
</g>
</g>
<!-- Node2&#45;&gt;Node15 -->
<g id="edge52" class="edge"><title>Node2&#45;&gt;Node15</title>
<path fill="none" stroke="midnightblue" d="M624.791,-448.45C537.125,-447.336 365.362,-440.412 319,-404 287.793,-379.49 278.222,-330.717 275.291,-304.021"/>
<polygon fill="midnightblue" stroke="midnightblue" points="278.751,-303.42 274.377,-293.77 271.779,-304.041 278.751,-303.42"/>
</g>
<!-- Node16 -->
<g id="node16" class="node"><title>Node16</title>
<g id="a_node16"><a xlink:href="$RCOutput_8h.html" xlink:title="RCOutput.h">
<polygon fill="white" stroke="black" points="838.599,-275.5 838.599,-293.5 907.401,-293.5 907.401,-275.5 838.599,-275.5"/>
<text text-anchor="middle" x="873" y="-281.5" font-family="Helvetica,sans-Serif" font-size="10.00">RCOutput.h</text>
</a>
</g>
</g>
<!-- Node2&#45;&gt;Node16 -->
<g id="edge53" class="edge"><title>Node2&#45;&gt;Node16</title>
<path fill="none" stroke="midnightblue" d="M717.493,-440.441C755.625,-432.14 809.184,-418.412 825,-404 854.44,-377.172 866.192,-329.73 870.588,-303.756"/>
<polygon fill="midnightblue" stroke="midnightblue" points="874.064,-304.18 872.09,-293.771 867.141,-303.139 874.064,-304.18"/>
</g>
<!-- Node17 -->
<g id="node17" class="node"><title>Node17</title>
<g id="a_node17"><a xlink:href="$SPIDriver_8h.html" xlink:title="SPIDriver.h">
<polygon fill="white" stroke="black" points="158.712,-275.5 158.712,-293.5 225.288,-293.5 225.288,-275.5 158.712,-275.5"/>
<text text-anchor="middle" x="192" y="-281.5" font-family="Helvetica,sans-Serif" font-size="10.00">SPIDriver.h</text>
</a>
</g>
</g>
<!-- Node2&#45;&gt;Node17 -->
<g id="edge48" class="edge"><title>Node2&#45;&gt;Node17</title>
<path fill="none" stroke="midnightblue" d="M624.992,-446.868C535.024,-443.311 354.627,-432.732 299,-404 253.577,-380.539 218.066,-329.375 201.761,-302.603"/>
<polygon fill="midnightblue" stroke="midnightblue" points="204.57,-300.477 196.472,-293.645 198.542,-304.036 204.57,-300.477"/>
</g>
<!-- Node18 -->
<g id="node18" class="node"><title>Node18</title>
<g id="a_node18"><a xlink:href="$Storage_8h.html" xlink:title="Storage.h">
<polygon fill="white" stroke="black" points="399.318,-275.5 399.318,-293.5 458.682,-293.5 458.682,-275.5 399.318,-275.5"/>
<text text-anchor="middle" x="429" y="-281.5" font-family="Helvetica,sans-Serif" font-size="10.00">Storage.h</text>
</a>
</g>
</g>
<!-- Node2&#45;&gt;Node18 -->
<g id="edge50" class="edge"><title>Node2&#45;&gt;Node18</title>
<path fill="none" stroke="midnightblue" d="M624.632,-443.506C569.899,-437.26 488.85,-424.781 466,-404 437.249,-377.853 430.644,-329.749 429.251,-303.592"/>
<polygon fill="midnightblue" stroke="midnightblue" points="432.748,-303.442 428.92,-293.563 425.752,-303.673 432.748,-303.442"/>
</g>
<!-- Node19 -->
<g id="node19" class="node"><title>Node19</title>
<g id="a_node19"><a xlink:href="$UARTDriver_8h.html" xlink:title="UARTDriver.h">
<polygon fill="white" stroke="black" points="705.248,-275.5 705.248,-293.5 782.752,-293.5 782.752,-275.5 705.248,-275.5"/>
<text text-anchor="middle" x="744" y="-281.5" font-family="Helvetica,sans-Serif" font-size="10.00">UARTDriver.h</text>
</a>
</g>
</g>
<!-- Node2&#45;&gt;Node19 -->
<g id="edge44" class="edge"><title>Node2&#45;&gt;Node19</title>
<path fill="none" stroke="midnightblue" d="M680.415,-440.193C690.855,-414.794 722.506,-337.791 736.827,-302.952"/>
<polygon fill="midnightblue" stroke="midnightblue" points="740.107,-304.177 740.672,-293.597 733.633,-301.516 740.107,-304.177"/>
</g>
<!-- Node22 -->
<g id="node22" class="node"><title>Node22</title>
<g id="a_node22"><a xlink:href="$BetterStream_8h.html" xlink:title="utility/BetterStream.h">
<polygon fill="white" stroke="black" points="771.594,-220.5 771.594,-238.5 880.406,-238.5 880.406,-220.5 771.594,-220.5"/>
<text text-anchor="middle" x="826" y="-226.5" font-family="Helvetica,sans-Serif" font-size="10.00">utility/BetterStream.h</text>
</a>
</g>
</g>
<!-- Node2&#45;&gt;Node22 -->
<g id="edge66" class="edge"><title>Node2&#45;&gt;Node22</title>
<path fill="none" stroke="midnightblue" d="M684.011,-440.451C691.599,-431.654 703.96,-417.065 714,-404 750.519,-356.479 760.46,-344.962 792,-294 801.347,-278.897 810.788,-261.007 817.342,-248.07"/>
<polygon fill="midnightblue" stroke="midnightblue" points="820.582,-249.416 821.922,-238.906 814.32,-246.287 820.582,-249.416"/>
</g>
<!-- Node24 -->
<g id="node24" class="node"><title>Node24</title>
<g id="a_node24"><a xlink:href="$Stream_8h.html" xlink:title="Stream.h">
<polygon fill="white" stroke="black" points="885.714,-165.5 885.714,-183.5 942.286,-183.5 942.286,-165.5 885.714,-165.5"/>
<text text-anchor="middle" x="914" y="-171.5" font-family="Helvetica,sans-Serif" font-size="10.00">Stream.h</text>
</a>
</g>
</g>
<!-- Node2&#45;&gt;Node24 -->
<g id="edge65" class="edge"><title>Node2&#45;&gt;Node24</title>
<path fill="none" stroke="midnightblue" d="M729.078,-441.151C816.667,-427.314 984,-393.893 984,-340.5 984,-340.5 984,-340.5 984,-283.5 984,-245.035 952.346,-209.465 931.61,-190.29"/>
<polygon fill="midnightblue" stroke="midnightblue" points="933.829,-187.579 924.029,-183.552 929.179,-192.811 933.829,-187.579"/>
</g>
<!-- Node25 -->
<g id="node25" class="node"><title>Node25</title>
<g id="a_node25"><a xlink:href="$Print_8h.html" xlink:title="Print.h">
<polygon fill="white" stroke="black" points="1065.55,-110.5 1065.55,-128.5 1110.45,-128.5 1110.45,-110.5 1065.55,-110.5"/>
<text text-anchor="middle" x="1088" y="-116.5" font-family="Helvetica,sans-Serif" font-size="10.00">Print.h</text>
</a>
</g>
</g>
<!-- Node2&#45;&gt;Node25 -->
<g id="edge64" class="edge"><title>Node2&#45;&gt;Node25</title>
<path fill="none" stroke="midnightblue" d="M729.017,-440.689C798.8,-430.031 916.181,-411.413 935,-404 1101.08,-338.579 1186.12,-341.025 1271,-184 1275.02,-176.571 1276.22,-171.639 1271,-165 1252.64,-141.638 1168.11,-129.018 1120.62,-123.663"/>
<polygon fill="midnightblue" stroke="midnightblue" points="1120.84,-120.167 1110.52,-122.571 1120.09,-127.126 1120.84,-120.167"/>
</g>
<!-- Node26 -->
<g id="node26" class="node"><title>Node26</title>
<g id="a_node26"><a xlink:href="$I2CDriver_8h.html" xlink:title="I2CDriver.h">
<polygon fill="white" stroke="black" points="389.99,-165.5 389.99,-183.5 456.01,-183.5 456.01,-165.5 389.99,-165.5"/>
<text text-anchor="middle" x="423" y="-171.5" font-family="Helvetica,sans-Serif" font-size="10.00">I2CDriver.h</text>
</a>
</g>
</g>
<!-- Node2&#45;&gt;Node26 -->
<g id="edge45" class="edge"><title>Node2&#45;&gt;Node26</title>
<path fill="none" stroke="midnightblue" d="M624.754,-443.072C528.521,-431.615 333,-400.906 333,-340.5 333,-340.5 333,-340.5 333,-283.5 333,-254.042 334.153,-243.437 352,-220 362.628,-206.044 378.997,-195.362 393.34,-187.966"/>
<polygon fill="midnightblue" stroke="midnightblue" points="394.92,-191.09 402.393,-183.579 391.867,-184.791 394.92,-191.09"/>
</g>
<!-- Node27 -->
<g id="node27" class="node"><title>Node27</title>
<g id="a_node27"><a xlink:href="$Scheduler_8h.html" xlink:title="Scheduler.h">
<polygon fill="white" stroke="black" points="1099.59,-220.5 1099.59,-238.5 1168.41,-238.5 1168.41,-220.5 1099.59,-220.5"/>
<text text-anchor="middle" x="1134" y="-226.5" font-family="Helvetica,sans-Serif" font-size="10.00">Scheduler.h</text>
</a>
</g>
</g>
<!-- Node2&#45;&gt;Node27 -->
<g id="edge54" class="edge"><title>Node2&#45;&gt;Node27</title>
<path fill="none" stroke="midnightblue" d="M729.011,-440.95C731.711,-440.615 734.387,-440.296 737,-440 783.981,-434.682 1129.01,-438.818 1161,-404 1201.36,-360.071 1164.24,-281.925 1144.51,-247.54"/>
<polygon fill="midnightblue" stroke="midnightblue" points="1147.38,-245.522 1139.27,-238.711 1141.36,-249.097 1147.38,-245.522"/>
</g>
<!-- Node28 -->
<g id="node28" class="node"><title>Node28</title>
<g id="a_node28"><a xlink:href="$Semaphores_8h.html" xlink:title="Semaphores.h">
<polygon fill="white" stroke="black" points="125.48,-330.5 125.48,-348.5 206.52,-348.5 206.52,-330.5 125.48,-330.5"/>
<text text-anchor="middle" x="166" y="-336.5" font-family="Helvetica,sans-Serif" font-size="10.00">Semaphores.h</text>
</a>
</g>
</g>
<!-- Node2&#45;&gt;Node28 -->
<g id="edge59" class="edge"><title>Node2&#45;&gt;Node28</title>
<path fill="none" stroke="midnightblue" d="M625.027,-448.021C521.416,-446.321 293.158,-438.633 224,-404 203.411,-393.689 186.58,-372.757 176.451,-357.742"/>
<polygon fill="midnightblue" stroke="midnightblue" points="179.13,-355.435 170.79,-348.9 173.235,-359.209 179.13,-355.435"/>
</g>
<!-- Node29 -->
<g id="node29" class="node"><title>Node29</title>
<g id="a_node29"><a xlink:href="$Util_8h.html" xlink:title="Util.h">
<polygon fill="white" stroke="black" points="360.608,-220.5 360.608,-238.5 399.392,-238.5 399.392,-220.5 360.608,-220.5"/>
<text text-anchor="middle" x="380" y="-226.5" font-family="Helvetica,sans-Serif" font-size="10.00">Util.h</text>
</a>
</g>
</g>
<!-- Node2&#45;&gt;Node29 -->
<g id="edge61" class="edge"><title>Node2&#45;&gt;Node29</title>
<path fill="none" stroke="midnightblue" d="M624.891,-443.616C566.205,-437.223 475.435,-424.373 448,-404 397.375,-366.406 384.42,-285.486 381.12,-249.004"/>
<polygon fill="midnightblue" stroke="midnightblue" points="384.595,-248.541 380.353,-238.832 377.615,-249.067 384.595,-248.541"/>
</g>
<!-- Node6 -->
<g id="node6" class="node"><title>Node6</title>
<polygon fill="white" stroke="#bfbfbf" points="719.604,-0.5 719.604,-18.5 768.396,-18.5 768.396,-0.5 719.604,-0.5"/>
<text text-anchor="middle" x="744" y="-6.5" font-family="Helvetica,sans-Serif" font-size="10.00">string.h</text>
</g>
<!-- Node5&#45;&gt;Node6 -->
<g id="edge5" class="edge"><title>Node5&#45;&gt;Node6</title>
<path fill="none" stroke="midnightblue" d="M420.018,-55.4504C500.486,-44.286 643.471,-24.4478 709.195,-15.3289"/>
<polygon fill="midnightblue" stroke="midnightblue" points="710.005,-18.7501 719.429,-13.909 709.043,-11.8166 710.005,-18.7501"/>
</g>
<!-- Node7 -->
<g id="node7" class="node"><title>Node7</title>
<g id="a_node7"><a xlink:href="$functor_8h.html" xlink:title="utility/functor.h">
<polygon fill="white" stroke="black" points="322.037,-0.5 322.037,-18.5 401.963,-18.5 401.963,-0.5 322.037,-0.5"/>
<text text-anchor="middle" x="362" y="-6.5" font-family="Helvetica,sans-Serif" font-size="10.00">utility/functor.h</text>
</a>
</g>
</g>
<!-- Node5&#45;&gt;Node7 -->
<g id="edge6" class="edge"><title>Node5&#45;&gt;Node7</title>
<path fill="none" stroke="midnightblue" d="M362,-55.2188C362,-48.1769 362,-37.8083 362,-28.8277"/>
<polygon fill="midnightblue" stroke="midnightblue" points="365.5,-28.5495 362,-18.5496 358.5,-28.5496 365.5,-28.5495"/>
</g>
<!-- Node10&#45;&gt;Node11 -->
<g id="edge10" class="edge"><title>Node10&#45;&gt;Node11</title>
<path fill="none" stroke="midnightblue" d="M524.094,-385.219C520.624,-377.864 515.443,-366.88 511.084,-357.639"/>
<polygon fill="midnightblue" stroke="midnightblue" points="514.229,-356.101 506.797,-348.55 507.898,-359.087 514.229,-356.101"/>
</g>
<!-- Node11&#45;&gt;Node5 -->
<g id="edge11" class="edge"><title>Node11&#45;&gt;Node5</title>
<path fill="none" stroke="midnightblue" d="M499.467,-330.164C493.877,-317.507 482.16,-293.01 468,-275 445.641,-246.562 437.799,-240.509 408,-220 378.529,-199.716 355.359,-214.087 336,-184 318.197,-156.332 324.882,-141.612 334,-110 336.941,-99.8046 342.984,-89.6924 348.707,-81.6902"/>
<polygon fill="midnightblue" stroke="midnightblue" points="351.553,-83.7296 354.848,-73.6601 345.993,-79.4771 351.553,-83.7296"/>
</g>
<!-- Node11&#45;&gt;Node12 -->
<g id="edge12" class="edge"><title>Node11&#45;&gt;Node12</title>
<path fill="none" stroke="midnightblue" d="M510.892,-330.382C528.299,-312.479 570.232,-269.347 592.881,-246.051"/>
<polygon fill="midnightblue" stroke="midnightblue" points="595.555,-248.322 600.016,-238.712 590.536,-243.442 595.555,-248.322"/>
</g>
<!-- Node11&#45;&gt;Node14 -->
<g id="edge15" class="edge"><title>Node11&#45;&gt;Node14</title>
<path fill="none" stroke="midnightblue" d="M505.255,-330.382C510.054,-313.104 521.381,-272.329 527.983,-248.563"/>
<polygon fill="midnightblue" stroke="midnightblue" points="531.415,-249.284 530.719,-238.712 524.67,-247.41 531.415,-249.284"/>
</g>
<!-- Node11&#45;&gt;Node15 -->
<g id="edge18" class="edge"><title>Node11&#45;&gt;Node15</title>
<path fill="none" stroke="midnightblue" d="M481.043,-333.418C442.686,-324.541 362.947,-306.086 314.388,-294.848"/>
<polygon fill="midnightblue" stroke="midnightblue" points="315.058,-291.41 304.526,-292.565 313.479,-298.23 315.058,-291.41"/>
</g>
<!-- Node11&#45;&gt;Node16 -->
<g id="edge20" class="edge"><title>Node11&#45;&gt;Node16</title>
<path fill="none" stroke="midnightblue" d="M525.037,-335.343C584.37,-326.844 748.376,-303.352 828.197,-291.918"/>
<polygon fill="midnightblue" stroke="midnightblue" points="829.02,-295.336 838.422,-290.453 828.027,-288.406 829.02,-295.336"/>
</g>
<!-- Node11&#45;&gt;Node17 -->
<g id="edge22" class="edge"><title>Node11&#45;&gt;Node17</title>
<path fill="none" stroke="midnightblue" d="M480.986,-335.131C436.54,-328.272 332.686,-311.951 235.443,-294.214"/>
<polygon fill="midnightblue" stroke="midnightblue" points="235.917,-290.743 225.45,-292.382 234.655,-297.628 235.917,-290.743"/>
</g>
<!-- Node11&#45;&gt;Node18 -->
<g id="edge24" class="edge"><title>Node11&#45;&gt;Node18</title>
<path fill="none" stroke="midnightblue" d="M491.761,-330.45C480.352,-322.279 462.454,-309.46 448.686,-299.6"/>
<polygon fill="midnightblue" stroke="midnightblue" points="450.513,-296.603 440.345,-293.625 446.437,-302.294 450.513,-296.603"/>
</g>
<!-- Node11&#45;&gt;Node19 -->
<g id="edge27" class="edge"><title>Node11&#45;&gt;Node19</title>
<path fill="none" stroke="midnightblue" d="M525.241,-333.609C564.241,-325.032 645.73,-307.111 697.495,-295.727"/>
<polygon fill="midnightblue" stroke="midnightblue" points="698.415,-299.109 707.43,-293.542 696.912,-292.272 698.415,-299.109"/>
</g>
<!-- Node12&#45;&gt;Node5 -->
<g id="edge14" class="edge"><title>Node12&#45;&gt;Node5</title>
<path fill="none" stroke="midnightblue" d="M575.779,-221.778C572.812,-221.172 569.851,-220.571 567,-220 484.441,-203.453 439.573,-244.49 381,-184 354.991,-157.14 356.109,-109.711 359.104,-83.7471"/>
<polygon fill="midnightblue" stroke="midnightblue" points="362.581,-84.15 360.474,-73.7667 355.646,-83.1974 362.581,-84.15"/>
</g>
<!-- Node13 -->
<g id="node13" class="node"><title>Node13</title>
<polygon fill="white" stroke="#bfbfbf" points="871.599,-55.5 871.599,-73.5 930.401,-73.5 930.401,-55.5 871.599,-55.5"/>
<text text-anchor="middle" x="901" y="-61.5" font-family="Helvetica,sans-Serif" font-size="10.00">inttypes.h</text>
</g>
<!-- Node12&#45;&gt;Node13 -->
<g id="edge13" class="edge"><title>Node12&#45;&gt;Node13</title>
<path fill="none" stroke="midnightblue" d="M622.53,-220.417C669.783,-194.129 819.391,-110.9 877.552,-78.5442"/>
<polygon fill="midnightblue" stroke="midnightblue" points="879.345,-81.5521 886.382,-73.632 875.942,-75.435 879.345,-81.5521"/>
</g>
<!-- Node14&#45;&gt;Node3 -->
<g id="edge16" class="edge"><title>Node14&#45;&gt;Node3</title>
<path fill="none" stroke="midnightblue" d="M532.173,-220.09C531.316,-207.336 531.244,-182.714 541,-165 548.029,-152.238 560.325,-141.666 571.409,-134.034"/>
<polygon fill="midnightblue" stroke="midnightblue" points="573.402,-136.914 579.915,-128.557 569.613,-131.028 573.402,-136.914"/>
</g>
<!-- Node14&#45;&gt;Node5 -->
<g id="edge17" class="edge"><title>Node14&#45;&gt;Node5</title>
<path fill="none" stroke="midnightblue" d="M508.132,-226.254C462.368,-221.551 367.679,-208.974 348,-184 324.899,-154.683 341.25,-107.934 352.963,-82.8132"/>
<polygon fill="midnightblue" stroke="midnightblue" points="356.142,-84.2806 357.425,-73.7637 349.864,-81.185 356.142,-84.2806"/>
</g>
<!-- Node15&#45;&gt;Node5 -->
<g id="edge19" class="edge"><title>Node15&#45;&gt;Node5</title>
<path fill="none" stroke="midnightblue" d="M265.742,-275.485C239.834,-249.374 164.296,-165.264 206,-110 217.602,-94.6256 261.339,-82.9768 299.56,-75.4614"/>
<polygon fill="midnightblue" stroke="midnightblue" points="300.476,-78.8501 309.647,-73.5459 299.17,-71.9729 300.476,-78.8501"/>
</g>
<!-- Node16&#45;&gt;Node5 -->
<g id="edge21" class="edge"><title>Node16&#45;&gt;Node5</title>
<path fill="none" stroke="midnightblue" d="M878.201,-275.451C885.44,-263.167 896.83,-239.152 889,-220 863.072,-156.582 842.687,-139.813 781,-110 721.322,-81.1584 536.179,-70.851 433.101,-67.2901"/>
<polygon fill="midnightblue" stroke="midnightblue" points="433.195,-63.7913 423.084,-66.9563 432.962,-70.7875 433.195,-63.7913"/>
</g>
<!-- Node17&#45;&gt;Node5 -->
<g id="edge23" class="edge"><title>Node17&#45;&gt;Node5</title>
<path fill="none" stroke="midnightblue" d="M188.991,-275.494C179.482,-248.69 152.999,-160.932 193,-110 205.595,-93.9632 251.556,-82.4988 292.372,-75.2264"/>
<polygon fill="midnightblue" stroke="midnightblue" points="293.079,-78.6562 302.341,-73.5128 291.893,-71.7574 293.079,-78.6562"/>
</g>
<!-- Node18&#45;&gt;Node3 -->
<g id="edge25" class="edge"><title>Node18&#45;&gt;Node3</title>
<path fill="none" stroke="midnightblue" d="M434.826,-275.409C449.523,-255.315 489.878,-202.086 531,-165 543.858,-153.404 559.85,-142.283 572.631,-134.06"/>
<polygon fill="midnightblue" stroke="midnightblue" points="574.68,-136.906 581.28,-128.618 570.952,-130.981 574.68,-136.906"/>
</g>
<!-- Node18&#45;&gt;Node5 -->
<g id="edge26" class="edge"><title>Node18&#45;&gt;Node5</title>
<path fill="none" stroke="midnightblue" d="M399.234,-279.359C351.66,-270.96 259.802,-247.032 220,-184 202.44,-156.191 200.529,-136.506 220,-110 236.478,-87.5681 264.236,-76.1355 290.862,-70.4171"/>
<polygon fill="midnightblue" stroke="midnightblue" points="291.814,-73.7989 300.985,-68.4942 290.508,-66.9219 291.814,-73.7989"/>
</g>
<!-- Node19&#45;&gt;Node3 -->
<g id="edge28" class="edge"><title>Node19&#45;&gt;Node3</title>
<path fill="none" stroke="midnightblue" d="M741.624,-275.254C735.23,-254.336 715.812,-198.501 682,-165 667.052,-150.19 646.167,-139.285 628.606,-131.977"/>
<polygon fill="midnightblue" stroke="midnightblue" points="629.837,-128.701 619.25,-128.286 627.268,-135.212 629.837,-128.701"/>
</g>
<!-- Node19&#45;&gt;Node5 -->
<g id="edge33" class="edge"><title>Node19&#45;&gt;Node5</title>
<path fill="none" stroke="midnightblue" d="M742.768,-275.117C740.823,-262.81 736.571,-239.229 730,-220 708.44,-156.91 689.51,-135.724 628,-110 565.171,-83.7246 487.871,-72.9416 432.824,-68.5285"/>
<polygon fill="midnightblue" stroke="midnightblue" points="433.047,-65.0355 422.813,-67.7764 432.523,-72.0159 433.047,-65.0355"/>
</g>
<!-- Node20 -->
<g id="node20" class="node"><title>Node20</title>
<g id="a_node20"><a xlink:href="$AP__Common_8h.html" xlink:title="Common definitions and utility routines for the ArduPilot libraries. ">
<polygon fill="white" stroke="black" points="959.973,-165.5 959.973,-183.5 1106.03,-183.5 1106.03,-165.5 959.973,-165.5"/>
<text text-anchor="middle" x="1033" y="-171.5" font-family="Helvetica,sans-Serif" font-size="10.00">AP_Common/AP_Common.h</text>
</a>
</g>
</g>
<!-- Node19&#45;&gt;Node20 -->
<g id="edge29" class="edge"><title>Node19&#45;&gt;Node20</title>
<path fill="none" stroke="midnightblue" d="M773.778,-275.469C803.332,-267.241 849.765,-253.614 889,-239 931.143,-223.303 978.621,-201.541 1007.15,-188.002"/>
<polygon fill="midnightblue" stroke="midnightblue" points="1008.9,-191.047 1016.42,-183.579 1005.88,-184.73 1008.9,-191.047"/>
</g>
<!-- Node19&#45;&gt;Node22 -->
<g id="edge34" class="edge"><title>Node19&#45;&gt;Node22</title>
<path fill="none" stroke="midnightblue" d="M756.454,-275.45C769.217,-267.201 789.308,-254.216 804.62,-244.319"/>
<polygon fill="midnightblue" stroke="midnightblue" points="806.93,-246.993 813.429,-238.625 803.13,-241.114 806.93,-246.993"/>
</g>
<!-- Node20&#45;&gt;Node3 -->
<g id="edge30" class="edge"><title>Node20&#45;&gt;Node3</title>
<path fill="none" stroke="midnightblue" d="M966.477,-165.45C871.817,-153.996 701.705,-133.412 629.219,-124.641"/>
<polygon fill="midnightblue" stroke="midnightblue" points="629.602,-121.162 619.254,-123.435 628.761,-128.111 629.602,-121.162"/>
</g>
<!-- Node20&#45;&gt;Node4 -->
<g id="edge32" class="edge"><title>Node20&#45;&gt;Node4</title>
<path fill="none" stroke="midnightblue" d="M1062.31,-165.45C1095.86,-156.239 1150.9,-141.123 1187.78,-130.995"/>
<polygon fill="midnightblue" stroke="midnightblue" points="1188.96,-134.303 1197.67,-128.279 1187.1,-127.553 1188.96,-134.303"/>
</g>
<!-- Node20&#45;&gt;Node21 -->
<g id="edge31" class="edge"><title>Node20&#45;&gt;Node21</title>
<path fill="none" stroke="midnightblue" d="M1078.26,-165.45C1138.4,-154.754 1243.31,-136.096 1297.09,-126.531"/>
<polygon fill="midnightblue" stroke="midnightblue" points="1297.9,-129.941 1307.14,-124.744 1296.68,-123.049 1297.9,-129.941"/>
</g>
<!-- Node22&#45;&gt;Node5 -->
<g id="edge37" class="edge"><title>Node22&#45;&gt;Node5</title>
<path fill="none" stroke="midnightblue" d="M822.527,-220.424C811.859,-196.009 779.019,-123.797 758,-110 706.121,-75.946 532.478,-67.7671 433.21,-65.9215"/>
<polygon fill="midnightblue" stroke="midnightblue" points="433.017,-62.4178 422.959,-65.7485 432.899,-69.4168 433.017,-62.4178"/>
</g>
<!-- Node22&#45;&gt;Node20 -->
<g id="edge36" class="edge"><title>Node22&#45;&gt;Node20</title>
<path fill="none" stroke="midnightblue" d="M857.439,-220.45C893.334,-211.26 952.186,-196.192 991.742,-186.064"/>
<polygon fill="midnightblue" stroke="midnightblue" points="992.786,-189.409 1001.61,-183.538 991.049,-182.628 992.786,-189.409"/>
</g>
<!-- Node23 -->
<g id="node23" class="node"><title>Node23</title>
<polygon fill="white" stroke="#bfbfbf" points="549.934,-165.5 549.934,-183.5 602.066,-183.5 602.066,-165.5 549.934,-165.5"/>
<text text-anchor="middle" x="576" y="-171.5" font-family="Helvetica,sans-Serif" font-size="10.00">stdarg.h</text>
</g>
<!-- Node22&#45;&gt;Node23 -->
<g id="edge35" class="edge"><title>Node22&#45;&gt;Node23</title>
<path fill="none" stroke="midnightblue" d="M788.03,-220.45C740.409,-210.355 659.331,-193.166 612.44,-183.225"/>
<polygon fill="midnightblue" stroke="midnightblue" points="612.925,-179.75 602.416,-181.1 611.473,-186.598 612.925,-179.75"/>
</g>
<!-- Node22&#45;&gt;Node24 -->
<g id="edge38" class="edge"><title>Node22&#45;&gt;Node24</title>
<path fill="none" stroke="midnightblue" d="M839.365,-220.45C853.192,-212.123 875.03,-198.97 891.519,-189.039"/>
<polygon fill="midnightblue" stroke="midnightblue" points="893.748,-191.783 900.509,-183.625 890.137,-185.786 893.748,-191.783"/>
</g>
<!-- Node24&#45;&gt;Node5 -->
<g id="edge39" class="edge"><title>Node24&#45;&gt;Node5</title>
<path fill="none" stroke="midnightblue" d="M906.612,-165.073C893.575,-150.855 864.928,-122.441 834,-110 763.098,-81.4783 546.691,-70.9197 433.187,-67.2717"/>
<polygon fill="midnightblue" stroke="midnightblue" points="432.97,-63.7633 422.866,-66.9499 432.752,-70.7599 432.97,-63.7633"/>
</g>
<!-- Node24&#45;&gt;Node25 -->
<g id="edge40" class="edge"><title>Node24&#45;&gt;Node25</title>
<path fill="none" stroke="midnightblue" d="M940.427,-165.45C971.357,-156.029 1022.57,-140.431 1055.79,-130.31"/>
<polygon fill="midnightblue" stroke="midnightblue" points="1056.94,-133.62 1065.49,-127.358 1054.9,-126.924 1056.94,-133.62"/>
</g>
<!-- Node25&#45;&gt;Node5 -->
<g id="edge41" class="edge"><title>Node25&#45;&gt;Node5</title>
<path fill="none" stroke="midnightblue" d="M1065.26,-112.523C1060.88,-111.546 1056.32,-110.645 1052,-110 827.681,-76.5255 558.629,-68.2228 433.061,-66.1699"/>
<polygon fill="midnightblue" stroke="midnightblue" points="432.869,-62.6666 422.816,-66.0112 432.76,-69.6658 432.869,-62.6666"/>
</g>
<!-- Node25&#45;&gt;Node6 -->
<g id="edge43" class="edge"><title>Node25&#45;&gt;Node6</title>
<path fill="none" stroke="midnightblue" d="M1071.83,-110.472C1044.86,-97.345 988.751,-71.135 939,-55 883.967,-37.1518 817.971,-23.6867 778.592,-16.4595"/>
<polygon fill="midnightblue" stroke="midnightblue" points="779.163,-13.006 768.7,-14.6727 777.919,-19.8945 779.163,-13.006"/>
</g>
<!-- Node25&#45;&gt;Node13 -->
<g id="edge42" class="edge"><title>Node25&#45;&gt;Node13</title>
<path fill="none" stroke="midnightblue" d="M1065.44,-112.107C1034.14,-103.236 977.114,-87.0723 939.134,-76.308"/>
<polygon fill="midnightblue" stroke="midnightblue" points="940.016,-72.9201 929.44,-73.5606 938.107,-79.6548 940.016,-72.9201"/>
</g>
<!-- Node26&#45;&gt;Node3 -->
<g id="edge46" class="edge"><title>Node26&#45;&gt;Node3</title>
<path fill="none" stroke="midnightblue" d="M449.123,-165.45C479.102,-156.213 528.352,-141.037 561.222,-130.908"/>
<polygon fill="midnightblue" stroke="midnightblue" points="562.332,-134.229 570.858,-127.939 560.27,-127.539 562.332,-134.229"/>
</g>
<!-- Node26&#45;&gt;Node5 -->
<g id="edge47" class="edge"><title>Node26&#45;&gt;Node5</title>
<path fill="none" stroke="midnightblue" d="M418.415,-165.382C408.524,-147.869 384.998,-106.218 371.661,-82.6045"/>
<polygon fill="midnightblue" stroke="midnightblue" points="374.604,-80.6976 366.638,-73.7118 368.509,-84.1402 374.604,-80.6976"/>
</g>
<!-- Node27&#45;&gt;Node3 -->
<g id="edge55" class="edge"><title>Node27&#45;&gt;Node3</title>
<path fill="none" stroke="midnightblue" d="M1099.4,-223.072C1049.95,-215.188 956.273,-199.778 877,-184 787.253,-166.137 682.285,-141.505 629.312,-128.809"/>
<polygon fill="midnightblue" stroke="midnightblue" points="629.972,-125.368 619.431,-126.435 628.336,-132.174 629.972,-125.368"/>
</g>
<!-- Node27&#45;&gt;Node5 -->
<g id="edge58" class="edge"><title>Node27&#45;&gt;Node5</title>
<path fill="none" stroke="midnightblue" d="M1134.03,-220.118C1133.61,-206.482 1130.69,-179.556 1115,-165 1073.14,-126.166 920.442,-118.65 864,-110 711.351,-86.607 530.562,-74.3176 433,-68.941"/>
<polygon fill="midnightblue" stroke="midnightblue" points="433.134,-65.4432 422.959,-68.3959 432.755,-72.4329 433.134,-65.4432"/>
</g>
<!-- Node27&#45;&gt;Node8 -->
<g id="edge57" class="edge"><title>Node27&#45;&gt;Node8</title>
<path fill="none" stroke="midnightblue" d="M1145.85,-220.45C1157.99,-212.201 1177.1,-199.216 1191.66,-189.319"/>
<polygon fill="midnightblue" stroke="midnightblue" points="1193.74,-192.14 1200.04,-183.625 1189.8,-186.351 1193.74,-192.14"/>
</g>
<!-- Node27&#45;&gt;Node20 -->
<g id="edge56" class="edge"><title>Node27&#45;&gt;Node20</title>
<path fill="none" stroke="midnightblue" d="M1118.66,-220.45C1102.42,-211.929 1076.55,-198.353 1057.49,-188.349"/>
<polygon fill="midnightblue" stroke="midnightblue" points="1058.97,-185.173 1048.48,-183.625 1055.71,-191.371 1058.97,-185.173"/>
</g>
<!-- Node28&#45;&gt;Node5 -->
<g id="edge60" class="edge"><title>Node28&#45;&gt;Node5</title>
<path fill="none" stroke="midnightblue" d="M162.036,-330.206C158.084,-321.442 152.284,-307.102 150,-294 135.783,-212.443 121.677,-169.731 179,-110 194.628,-93.7155 246.623,-82.053 291.214,-74.7634"/>
<polygon fill="midnightblue" stroke="midnightblue" points="291.856,-78.2054 301.186,-73.1844 290.762,-71.2916 291.856,-78.2054"/>
</g>
<!-- Node29&#45;&gt;Node5 -->
<g id="edge63" class="edge"><title>Node29&#45;&gt;Node5</title>
<path fill="none" stroke="midnightblue" d="M360.586,-229.223C328.145,-229.239 263.571,-223.927 234,-184 214.426,-157.57 214.941,-136.804 234,-110 247.361,-91.21 269.249,-80.2848 291.179,-73.9565"/>
<polygon fill="midnightblue" stroke="midnightblue" points="292.089,-77.3365 300.89,-71.4385 290.331,-70.5606 292.089,-77.3365"/>
</g>
<!-- Node29&#45;&gt;Node23 -->
<g id="edge62" class="edge"><title>Node29&#45;&gt;Node23</title>
<path fill="none" stroke="midnightblue" d="M399.51,-223.224C432.249,-214.371 498.718,-196.398 540.088,-185.211"/>
<polygon fill="midnightblue" stroke="midnightblue" points="541.037,-188.58 549.776,-182.591 539.209,-181.823 541.037,-188.58"/>
</g>
<!-- Node31 -->
<g id="node31" class="node"><title>Node31</title>
<g id="a_node31"><a xlink:href="$AP__HAL__Linux_8h.html" xlink:title="AP_HAL_Linux.h">
<polygon fill="white" stroke="black" points="771.919,-550.5 771.919,-568.5 864.081,-568.5 864.081,-550.5 771.919,-550.5"/>
<text text-anchor="middle" x="818" y="-556.5" font-family="Helvetica,sans-Serif" font-size="10.00">AP_HAL_Linux.h</text>
</a>
</g>
</g>
<!-- Node30&#45;&gt;Node31 -->
<g id="edge69" class="edge"><title>Node30&#45;&gt;Node31</title>
<path fill="none" stroke="midnightblue" d="M1030.6,-615.393C986.861,-604.099 907.526,-583.615 859.116,-571.116"/>
<polygon fill="midnightblue" stroke="midnightblue" points="859.836,-567.687 849.279,-568.576 858.086,-574.465 859.836,-567.687"/>
</g>
<!-- Node31&#45;&gt;Node2 -->
<g id="edge70" class="edge"><title>Node31&#45;&gt;Node2</title>
<path fill="none" stroke="midnightblue" d="M806.656,-550.434C794.33,-541.621 774.107,-527.021 757,-514 735.57,-497.689 711.411,-478.382 695.303,-465.375"/>
<polygon fill="midnightblue" stroke="midnightblue" points="697.225,-462.428 687.251,-458.855 692.82,-467.868 697.225,-462.428"/>
</g>
<!-- Node32 -->
<g id="node32" class="node"><title>Node32</title>
<g id="a_node32"><a xlink:href="$HAL__Linux__Class_8h.html" xlink:title="HAL_Linux_Class.h">
<polygon fill="white" stroke="black" points="766.086,-495.5 766.086,-513.5 869.914,-513.5 869.914,-495.5 766.086,-495.5"/>
<text text-anchor="middle" x="818" y="-501.5" font-family="Helvetica,sans-Serif" font-size="10.00">HAL_Linux_Class.h</text>
</a>
</g>
</g>
<!-- Node31&#45;&gt;Node32 -->
<g id="edge71" class="edge"><title>Node31&#45;&gt;Node32</title>
<path fill="none" stroke="midnightblue" d="M818,-550.219C818,-543.177 818,-532.808 818,-523.828"/>
<polygon fill="midnightblue" stroke="midnightblue" points="821.5,-523.55 818,-513.55 814.5,-523.55 821.5,-523.55"/>
</g>
<!-- Node32&#45;&gt;Node2 -->
<g id="edge72" class="edge"><title>Node32&#45;&gt;Node2</title>
<path fill="none" stroke="midnightblue" d="M796.585,-495.45C773.086,-486.617 735.142,-472.355 708.305,-462.267"/>
<polygon fill="midnightblue" stroke="midnightblue" points="709.208,-458.868 698.616,-458.625 706.745,-465.42 709.208,-458.868"/>
</g>
<!-- Node33 -->
<g id="node33" class="node"><title>Node33</title>
<g id="a_node33"><a xlink:href="$AP__HAL__Linux__Namespace_8h.html" xlink:title="AP_HAL_Linux_Namespace.h">
<polygon fill="white" stroke="black" points="746.458,-440.5 746.458,-458.5 897.542,-458.5 897.542,-440.5 746.458,-440.5"/>
<text text-anchor="middle" x="822" y="-446.5" font-family="Helvetica,sans-Serif" font-size="10.00">AP_HAL_Linux_Namespace.h</text>
</a>
</g>
</g>
<!-- Node32&#45;&gt;Node33 -->
<g id="edge73" class="edge"><title>Node32&#45;&gt;Node33</title>
<path fill="none" stroke="midnightblue" d="M818.625,-495.219C819.162,-488.099 819.956,-477.577 820.639,-468.529"/>
<polygon fill="midnightblue" stroke="midnightblue" points="824.13,-468.785 821.392,-458.55 817.15,-468.258 824.13,-468.785"/>
</g>
</g>
</svg>
