<?xml version="1.0" encoding="UTF-8" standalone="no"?>
<!DOCTYPE svg PUBLIC "-//W3C//DTD SVG 1.1//EN"
 "http://www.w3.org/Graphics/SVG/1.1/DTD/svg11.dtd">
<!-- Generated by graphviz version 2.38.0 (20140413.2041)
 -->
<!-- Title: libraries/AP_HAL/RCOutput.h Pages: 1 -->
<svg width="163pt" height="137pt"
 viewBox="0.00 0.00 162.82 137.00" xmlns="http://www.w3.org/2000/svg" xmlns:xlink="http://www.w3.org/1999/xlink">
<g id="graph0" class="graph" transform="scale(1 1) rotate(0) translate(4 133)">
<title>libraries/AP_HAL/RCOutput.h</title>
<polygon fill="white" stroke="none" points="-4,4 -4,-133 158.825,-133 158.825,4 -4,4"/>
<!-- Node1 -->
<g id="node1" class="node"><title>Node1</title>
<polygon fill="#bfbfbf" stroke="black" points="0,-110.5 0,-128.5 147.724,-128.5 147.724,-110.5 0,-110.5"/>
<text text-anchor="middle" x="73.8618" y="-116.5" font-family="Helvetica,sans-Serif" font-size="10.00">libraries/AP_HAL/RCOutput.h</text>
</g>
<!-- Node2 -->
<g id="node2" class="node"><title>Node2</title>
<g id="a_node2"><a xlink:href="$AP__HAL__Namespace_8h.html" xlink:title="AP_HAL_Namespace.h">
<polygon fill="white" stroke="black" points="13.0542,-55.5 13.0542,-73.5 134.669,-73.5 134.669,-55.5 13.0542,-55.5"/>
<text text-anchor="middle" x="73.8618" y="-61.5" font-family="Helvetica,sans-Serif" font-size="10.00">AP_HAL_Namespace.h</text>
</a>
</g>
</g>
<!-- Node1&#45;&gt;Node2 -->
<g id="edge1" class="edge"><title>Node1&#45;&gt;Node2</title>
<path fill="none" stroke="midnightblue" d="M73.8618,-110.219C73.8618,-103.177 73.8618,-92.8083 73.8618,-83.8277"/>
<polygon fill="midnightblue" stroke="midnightblue" points="77.3619,-83.5495 73.8618,-73.5496 70.3619,-83.5496 77.3619,-83.5495"/>
</g>
<!-- Node3 -->
<g id="node3" class="node"><title>Node3</title>
<polygon fill="white" stroke="#bfbfbf" points="8.46533,-0.5 8.46533,-18.5 57.2583,-18.5 57.2583,-0.5 8.46533,-0.5"/>
<text text-anchor="middle" x="32.8618" y="-6.5" font-family="Helvetica,sans-Serif" font-size="10.00">string.h</text>
</g>
<!-- Node2&#45;&gt;Node3 -->
<g id="edge2" class="edge"><title>Node2&#45;&gt;Node3</title>
<path fill="none" stroke="midnightblue" d="M67.4556,-55.2188C61.5238,-47.5509 52.5408,-35.9387 45.2153,-26.4691"/>
<polygon fill="midnightblue" stroke="midnightblue" points="47.9759,-24.3176 39.0888,-18.5496 42.4392,-28.6007 47.9759,-24.3176"/>
</g>
<!-- Node4 -->
<g id="node4" class="node"><title>Node4</title>
<g id="a_node4"><a xlink:href="$functor_8h.html" xlink:title="utility/functor.h">
<polygon fill="white" stroke="black" points="74.8989,-0.5 74.8989,-18.5 154.825,-18.5 154.825,-0.5 74.8989,-0.5"/>
<text text-anchor="middle" x="114.862" y="-6.5" font-family="Helvetica,sans-Serif" font-size="10.00">utility/functor.h</text>
</a>
</g>
</g>
<!-- Node2&#45;&gt;Node4 -->
<g id="edge3" class="edge"><title>Node2&#45;&gt;Node4</title>
<path fill="none" stroke="midnightblue" d="M80.2681,-55.2188C86.1998,-47.5509 95.1828,-35.9387 102.508,-26.4691"/>
<polygon fill="midnightblue" stroke="midnightblue" points="105.284,-28.6007 108.635,-18.5496 99.7477,-24.3176 105.284,-28.6007"/>
</g>
</g>
</svg>
