<?xml version="1.0" encoding="UTF-8" standalone="no"?>
<!DOCTYPE svg PUBLIC "-//W3C//DTD SVG 1.1//EN"
 "http://www.w3.org/Graphics/SVG/1.1/DTD/svg11.dtd">
<!-- Generated by graphviz version 2.38.0 (20140413.2041)
 -->
<!-- Title: libraries/AP_HAL_Linux/RCOutput_Raspilot.cpp Pages: 1 -->
<svg width="1415pt" height="752pt"
 viewBox="0.00 0.00 1415.00 752.00" xmlns="http://www.w3.org/2000/svg" xmlns:xlink="http://www.w3.org/1999/xlink">
<g id="graph0" class="graph" transform="scale(1 1) rotate(0) translate(4 748)">
<title>libraries/AP_HAL_Linux/RCOutput_Raspilot.cpp</title>
<polygon fill="white" stroke="none" points="-4,4 -4,-748 1411,-748 1411,4 -4,4"/>
<!-- Node1 -->
<g id="node1" class="node"><title>Node1</title>
<polygon fill="#bfbfbf" stroke="black" points="756.084,-715.5 756.084,-743.5 879.916,-743.5 879.916,-715.5 756.084,-715.5"/>
<text text-anchor="start" x="764.084" y="-731.5" font-family="Helvetica,sans-Serif" font-size="10.00">libraries/AP_HAL_Linux</text>
<text text-anchor="middle" x="818" y="-721.5" font-family="Helvetica,sans-Serif" font-size="10.00">/RCOutput_Raspilot.cpp</text>
</g>
<!-- Node2 -->
<g id="node2" class="node"><title>Node2</title>
<g id="a_node2"><a xlink:href="$AP__HAL_8h.html" xlink:title="AP_HAL/AP_HAL.h">
<polygon fill="white" stroke="black" points="605.086,-440.5 605.086,-458.5 708.914,-458.5 708.914,-440.5 605.086,-440.5"/>
<text text-anchor="middle" x="657" y="-446.5" font-family="Helvetica,sans-Serif" font-size="10.00">AP_HAL/AP_HAL.h</text>
</a>
</g>
</g>
<!-- Node1&#45;&gt;Node2 -->
<g id="edge1" class="edge"><title>Node1&#45;&gt;Node2</title>
<path fill="none" stroke="midnightblue" d="M755.963,-727.463C679.34,-722.511 559,-701.107 559,-615.5 559,-615.5 559,-615.5 559,-558.5 559,-515.092 602.954,-481.387 631.989,-463.857"/>
<polygon fill="midnightblue" stroke="midnightblue" points="633.919,-466.783 640.817,-458.742 630.41,-460.727 633.919,-466.783"/>
</g>
<!-- Node3 -->
<g id="node3" class="node"><title>Node3</title>
<polygon fill="white" stroke="#bfbfbf" points="542.879,-110.5 542.879,-128.5 591.121,-128.5 591.121,-110.5 542.879,-110.5"/>
<text text-anchor="middle" x="567" y="-116.5" font-family="Helvetica,sans-Serif" font-size="10.00">stdint.h</text>
</g>
<!-- Node1&#45;&gt;Node3 -->
<g id="edge85" class="edge"><title>Node1&#45;&gt;Node3</title>
<path fill="none" stroke="midnightblue" d="M756.063,-724.705C588.189,-713.596 137,-677.932 137,-615.5 137,-615.5 137,-615.5 137,-338.5 137,-309.042 134.501,-295.139 156,-275 208.247,-226.059 243.864,-257.58 313,-239 392.964,-217.51 418.25,-223.541 491,-184 514.708,-171.114 537.91,-150.163 552.317,-135.878"/>
<polygon fill="midnightblue" stroke="midnightblue" points="554.841,-138.303 559.363,-128.721 549.853,-133.392 554.841,-138.303"/>
</g>
<!-- Node21 -->
<g id="node21" class="node"><title>Node21</title>
<polygon fill="white" stroke="#bfbfbf" points="287.158,-110.5 287.158,-128.5 334.842,-128.5 334.842,-110.5 287.158,-110.5"/>
<text text-anchor="middle" x="311" y="-116.5" font-family="Helvetica,sans-Serif" font-size="10.00">stdlib.h</text>
</g>
<!-- Node1&#45;&gt;Node21 -->
<g id="edge83" class="edge"><title>Node1&#45;&gt;Node21</title>
<path fill="none" stroke="midnightblue" d="M755.846,-726.443C564.953,-719.308 0,-691.751 0,-615.5 0,-615.5 0,-615.5 0,-228.5 0,-190.575 23.8344,-183.393 57,-165 127.909,-125.674 225.621,-119.72 276.717,-119.601"/>
<polygon fill="midnightblue" stroke="midnightblue" points="276.868,-123.101 286.886,-119.654 276.905,-116.102 276.868,-123.101"/>
</g>
<!-- Node30 -->
<g id="node30" class="node"><title>Node30</title>
<g id="a_node30"><a xlink:href="$Linux_2GPIO_8h.html" xlink:title="GPIO.h">
<polygon fill="white" stroke="black" points="599.328,-660.5 599.328,-678.5 648.672,-678.5 648.672,-660.5 599.328,-660.5"/>
<text text-anchor="middle" x="624" y="-666.5" font-family="Helvetica,sans-Serif" font-size="10.00">GPIO.h</text>
</a>
</g>
</g>
<!-- Node1&#45;&gt;Node30 -->
<g id="edge68" class="edge"><title>Node1&#45;&gt;Node30</title>
<path fill="none" stroke="midnightblue" d="M774.463,-715.484C739.483,-705.026 691.015,-690.536 658.639,-680.856"/>
<polygon fill="midnightblue" stroke="midnightblue" points="659.313,-677.405 648.73,-677.893 657.308,-684.111 659.313,-677.405"/>
</g>
<!-- Node35 -->
<g id="node35" class="node"><title>Node35</title>
<g id="a_node35"><a xlink:href="$RCOutput__Raspilot_8h.html" xlink:title="RCOutput_Raspilot.h">
<polygon fill="white" stroke="black" points="716.754,-605.5 716.754,-623.5 827.246,-623.5 827.246,-605.5 716.754,-605.5"/>
<text text-anchor="middle" x="772" y="-611.5" font-family="Helvetica,sans-Serif" font-size="10.00">RCOutput_Raspilot.h</text>
</a>
</g>
</g>
<!-- Node1&#45;&gt;Node35 -->
<g id="edge76" class="edge"><title>Node1&#45;&gt;Node35</title>
<path fill="none" stroke="midnightblue" d="M756.007,-718.33C733.216,-711.262 709.662,-699.286 696,-679 681.288,-657.153 711.396,-638.715 737.953,-627.428"/>
<polygon fill="midnightblue" stroke="midnightblue" points="739.51,-630.575 747.486,-623.601 736.902,-624.079 739.51,-630.575"/>
</g>
<!-- Node36 -->
<g id="node36" class="node"><title>Node36</title>
<polygon fill="white" stroke="#bfbfbf" points="704.99,-660.5 704.99,-678.5 771.01,-678.5 771.01,-660.5 704.99,-660.5"/>
<text text-anchor="middle" x="738" y="-666.5" font-family="Helvetica,sans-Serif" font-size="10.00">sys/types.h</text>
</g>
<!-- Node1&#45;&gt;Node36 -->
<g id="edge78" class="edge"><title>Node1&#45;&gt;Node36</title>
<path fill="none" stroke="midnightblue" d="M799.847,-715.339C787.261,-706.215 770.514,-694.072 757.621,-684.725"/>
<polygon fill="midnightblue" stroke="midnightblue" points="759.559,-681.808 749.409,-678.771 755.451,-687.475 759.559,-681.808"/>
</g>
<!-- Node37 -->
<g id="node37" class="node"><title>Node37</title>
<polygon fill="white" stroke="#bfbfbf" points="788.882,-660.5 788.882,-678.5 847.118,-678.5 847.118,-660.5 788.882,-660.5"/>
<text text-anchor="middle" x="818" y="-666.5" font-family="Helvetica,sans-Serif" font-size="10.00">sys/stat.h</text>
</g>
<!-- Node1&#45;&gt;Node37 -->
<g id="edge79" class="edge"><title>Node1&#45;&gt;Node37</title>
<path fill="none" stroke="midnightblue" d="M818,-715.339C818,-707.531 818,-697.512 818,-688.927"/>
<polygon fill="midnightblue" stroke="midnightblue" points="821.5,-688.771 818,-678.771 814.5,-688.772 821.5,-688.771"/>
</g>
<!-- Node38 -->
<g id="node38" class="node"><title>Node38</title>
<polygon fill="white" stroke="#bfbfbf" points="864.66,-660.5 864.66,-678.5 907.34,-678.5 907.34,-660.5 864.66,-660.5"/>
<text text-anchor="middle" x="886" y="-666.5" font-family="Helvetica,sans-Serif" font-size="10.00">fcntl.h</text>
</g>
<!-- Node1&#45;&gt;Node38 -->
<g id="edge80" class="edge"><title>Node1&#45;&gt;Node38</title>
<path fill="none" stroke="midnightblue" d="M833.43,-715.339C843.922,-706.39 857.817,-694.538 868.687,-685.267"/>
<polygon fill="midnightblue" stroke="midnightblue" points="870.965,-687.924 876.302,-678.771 866.423,-682.598 870.965,-687.924"/>
</g>
<!-- Node39 -->
<g id="node39" class="node"><title>Node39</title>
<polygon fill="white" stroke="#bfbfbf" points="925.488,-660.5 925.488,-678.5 976.512,-678.5 976.512,-660.5 925.488,-660.5"/>
<text text-anchor="middle" x="951" y="-666.5" font-family="Helvetica,sans-Serif" font-size="10.00">unistd.h</text>
</g>
<!-- Node1&#45;&gt;Node39 -->
<g id="edge81" class="edge"><title>Node1&#45;&gt;Node39</title>
<path fill="none" stroke="midnightblue" d="M847.848,-715.484C870.296,-705.694 900.849,-692.371 922.869,-682.768"/>
<polygon fill="midnightblue" stroke="midnightblue" points="924.559,-685.849 932.326,-678.643 921.761,-679.433 924.559,-685.849"/>
</g>
<!-- Node40 -->
<g id="node40" class="node"><title>Node40</title>
<polygon fill="white" stroke="#bfbfbf" points="994.323,-660.5 994.323,-678.5 1043.68,-678.5 1043.68,-660.5 994.323,-660.5"/>
<text text-anchor="middle" x="1019" y="-666.5" font-family="Helvetica,sans-Serif" font-size="10.00">dirent.h</text>
</g>
<!-- Node1&#45;&gt;Node40 -->
<g id="edge82" class="edge"><title>Node1&#45;&gt;Node40</title>
<path fill="none" stroke="midnightblue" d="M863.108,-715.484C899.821,-704.89 950.876,-690.158 984.413,-680.48"/>
<polygon fill="midnightblue" stroke="midnightblue" points="985.585,-683.785 994.223,-677.65 983.644,-677.059 985.585,-683.785"/>
</g>
<!-- Node41 -->
<g id="node41" class="node"><title>Node41</title>
<polygon fill="white" stroke="#bfbfbf" points="1061.27,-660.5 1061.27,-678.5 1106.73,-678.5 1106.73,-660.5 1061.27,-660.5"/>
<text text-anchor="middle" x="1084" y="-666.5" font-family="Helvetica,sans-Serif" font-size="10.00">stdio.h</text>
</g>
<!-- Node1&#45;&gt;Node41 -->
<g id="edge84" class="edge"><title>Node1&#45;&gt;Node41</title>
<path fill="none" stroke="midnightblue" d="M880.077,-716.481C925.266,-707.489 988.145,-694.478 1051.29,-679.318"/>
<polygon fill="midnightblue" stroke="midnightblue" points="1052.12,-682.719 1061.02,-676.967 1050.47,-675.915 1052.12,-682.719"/>
</g>
<!-- Node42 -->
<g id="node42" class="node"><title>Node42</title>
<polygon fill="white" stroke="#bfbfbf" points="1124.71,-660.5 1124.71,-678.5 1171.29,-678.5 1171.29,-660.5 1124.71,-660.5"/>
<text text-anchor="middle" x="1148" y="-666.5" font-family="Helvetica,sans-Serif" font-size="10.00">math.h</text>
</g>
<!-- Node1&#45;&gt;Node42 -->
<g id="edge86" class="edge"><title>Node1&#45;&gt;Node42</title>
<path fill="none" stroke="midnightblue" d="M879.963,-719.961C938.22,-711.537 1028.03,-697.533 1114.64,-679.126"/>
<polygon fill="midnightblue" stroke="midnightblue" points="1115.6,-682.501 1124.64,-676.978 1114.13,-675.657 1115.6,-682.501"/>
</g>
<!-- Node43 -->
<g id="node43" class="node"><title>Node43</title>
<g id="a_node43"><a xlink:href="$px4io__protocol_8h.html" xlink:title="px4io_protocol.h">
<polygon fill="white" stroke="black" points="1298.31,-605.5 1298.31,-623.5 1387.69,-623.5 1387.69,-605.5 1298.31,-605.5"/>
<text text-anchor="middle" x="1343" y="-611.5" font-family="Helvetica,sans-Serif" font-size="10.00">px4io_protocol.h</text>
</a>
</g>
</g>
<!-- Node1&#45;&gt;Node43 -->
<g id="edge87" class="edge"><title>Node1&#45;&gt;Node43</title>
<path fill="none" stroke="midnightblue" d="M880.026,-724.481C952.812,-718.744 1076.69,-705.785 1180,-679 1229.87,-666.07 1285.22,-642.392 1316.89,-627.889"/>
<polygon fill="midnightblue" stroke="midnightblue" points="1318.7,-630.907 1326.31,-623.528 1315.76,-624.556 1318.7,-630.907"/>
</g>
<!-- Node2&#45;&gt;Node3 -->
<g id="edge2" class="edge"><title>Node2&#45;&gt;Node3</title>
<path fill="none" stroke="midnightblue" d="M648.01,-440.221C625.447,-418.752 566.751,-358.449 546,-294 528.365,-239.23 548.381,-170.395 559.944,-138.39"/>
<polygon fill="midnightblue" stroke="midnightblue" points="563.348,-139.28 563.605,-128.688 556.799,-136.808 563.348,-139.28"/>
</g>
<!-- Node4 -->
<g id="node4" class="node"><title>Node4</title>
<polygon fill="white" stroke="#bfbfbf" points="366.707,-110.5 366.707,-128.5 423.293,-128.5 423.293,-110.5 366.707,-110.5"/>
<text text-anchor="middle" x="395" y="-116.5" font-family="Helvetica,sans-Serif" font-size="10.00">stdbool.h</text>
</g>
<!-- Node2&#45;&gt;Node4 -->
<g id="edge3" class="edge"><title>Node2&#45;&gt;Node4</title>
<path fill="none" stroke="midnightblue" d="M644.812,-440.366C632.085,-431.732 611.69,-417.496 595,-404 528.7,-350.386 519.221,-328.712 453,-275 399.351,-231.485 358.448,-245.504 327,-184 315.884,-162.259 341.608,-144.052 364.54,-132.786"/>
<polygon fill="midnightblue" stroke="midnightblue" points="366.142,-135.902 373.755,-128.534 363.209,-129.546 366.142,-135.902"/>
</g>
<!-- Node5 -->
<g id="node5" class="node"><title>Node5</title>
<g id="a_node5"><a xlink:href="$AP__HAL__Namespace_8h.html" xlink:title="AP_HAL_Namespace.h">
<polygon fill="white" stroke="black" points="875.192,-55.5 875.192,-73.5 996.808,-73.5 996.808,-55.5 875.192,-55.5"/>
<text text-anchor="middle" x="936" y="-61.5" font-family="Helvetica,sans-Serif" font-size="10.00">AP_HAL_Namespace.h</text>
</a>
</g>
</g>
<!-- Node2&#45;&gt;Node5 -->
<g id="edge4" class="edge"><title>Node2&#45;&gt;Node5</title>
<path fill="none" stroke="midnightblue" d="M709.034,-441.125C711.728,-440.744 714.396,-440.368 717,-440 824.003,-424.897 1193,-448.564 1193,-340.5 1193,-340.5 1193,-340.5 1193,-283.5 1193,-187.675 1146.13,-160.988 1065,-110 1039.94,-94.2531 1008.62,-83.2782 983.12,-76.1677"/>
<polygon fill="midnightblue" stroke="midnightblue" points="983.865,-72.7438 973.3,-73.5382 982.054,-79.5056 983.865,-72.7438"/>
</g>
<!-- Node8 -->
<g id="node8" class="node"><title>Node8</title>
<g id="a_node8"><a xlink:href="$AP__HAL__Boards_8h.html" xlink:title="AP_HAL_Boards.h">
<polygon fill="white" stroke="black" points="66.0298,-165.5 66.0298,-183.5 165.97,-183.5 165.97,-165.5 66.0298,-165.5"/>
<text text-anchor="middle" x="116" y="-171.5" font-family="Helvetica,sans-Serif" font-size="10.00">AP_HAL_Boards.h</text>
</a>
</g>
</g>
<!-- Node2&#45;&gt;Node8 -->
<g id="edge7" class="edge"><title>Node2&#45;&gt;Node8</title>
<path fill="none" stroke="midnightblue" d="M604.921,-449.315C512.029,-449.685 322.895,-445.183 274,-404 228.286,-365.496 268.88,-324.913 236,-275 222.246,-254.122 165.839,-211.552 135.51,-189.476"/>
<polygon fill="midnightblue" stroke="midnightblue" points="137.511,-186.604 127.358,-183.579 133.408,-192.276 137.511,-186.604"/>
</g>
<!-- Node9 -->
<g id="node9" class="node"><title>Node9</title>
<g id="a_node9"><a xlink:href="$AP__HAL__Macros_8h.html" xlink:title="AP_HAL_Macros.h">
<polygon fill="white" stroke="black" points="283.48,-385.5 283.48,-403.5 384.52,-403.5 384.52,-385.5 283.48,-385.5"/>
<text text-anchor="middle" x="334" y="-391.5" font-family="Helvetica,sans-Serif" font-size="10.00">AP_HAL_Macros.h</text>
</a>
</g>
</g>
<!-- Node2&#45;&gt;Node9 -->
<g id="edge8" class="edge"><title>Node2&#45;&gt;Node9</title>
<path fill="none" stroke="midnightblue" d="M607.943,-440.45C550.268,-430.987 454.611,-415.291 392.956,-405.174"/>
<polygon fill="midnightblue" stroke="midnightblue" points="393.423,-401.704 382.988,-403.538 392.289,-408.611 393.423,-401.704"/>
</g>
<!-- Node10 -->
<g id="node10" class="node"><title>Node10</title>
<g id="a_node10"><a xlink:href="$AP__HAL__Main_8h.html" xlink:title="AP_HAL_Main.h">
<polygon fill="white" stroke="black" points="669.035,-385.5 669.035,-403.5 758.965,-403.5 758.965,-385.5 669.035,-385.5"/>
<text text-anchor="middle" x="714" y="-391.5" font-family="Helvetica,sans-Serif" font-size="10.00">AP_HAL_Main.h</text>
</a>
</g>
</g>
<!-- Node2&#45;&gt;Node10 -->
<g id="edge9" class="edge"><title>Node2&#45;&gt;Node10</title>
<path fill="none" stroke="midnightblue" d="M665.906,-440.219C674.405,-432.316 687.41,-420.224 697.754,-410.606"/>
<polygon fill="midnightblue" stroke="midnightblue" points="700.403,-412.922 705.343,-403.55 695.636,-407.796 700.403,-412.922"/>
</g>
<!-- Node11 -->
<g id="node11" class="node"><title>Node11</title>
<g id="a_node11"><a xlink:href="$HAL_8h.html" xlink:title="HAL.h">
<polygon fill="white" stroke="black" points="670.104,-330.5 670.104,-348.5 713.896,-348.5 713.896,-330.5 670.104,-330.5"/>
<text text-anchor="middle" x="692" y="-336.5" font-family="Helvetica,sans-Serif" font-size="10.00">HAL.h</text>
</a>
</g>
</g>
<!-- Node2&#45;&gt;Node11 -->
<g id="edge67" class="edge"><title>Node2&#45;&gt;Node11</title>
<path fill="none" stroke="midnightblue" d="M655.95,-440.405C654.662,-428.061 653.39,-403.968 660,-385 663.679,-374.442 670.723,-364.201 677.266,-356.21"/>
<polygon fill="midnightblue" stroke="midnightblue" points="680.046,-358.349 683.989,-348.515 674.774,-353.744 680.046,-358.349"/>
</g>
<!-- Node12 -->
<g id="node12" class="node"><title>Node12</title>
<g id="a_node12"><a xlink:href="$AnalogIn_8h.html" xlink:title="AnalogIn.h">
<polygon fill="white" stroke="black" points="1101.09,-220.5 1101.09,-238.5 1164.91,-238.5 1164.91,-220.5 1101.09,-220.5"/>
<text text-anchor="middle" x="1133" y="-226.5" font-family="Helvetica,sans-Serif" font-size="10.00">AnalogIn.h</text>
</a>
</g>
</g>
<!-- Node2&#45;&gt;Node12 -->
<g id="edge49" class="edge"><title>Node2&#45;&gt;Node12</title>
<path fill="none" stroke="midnightblue" d="M708.967,-441.118C788.047,-429.776 930.584,-408.86 941,-404 1021.73,-366.334 1092.58,-282.931 1120.43,-247.238"/>
<polygon fill="midnightblue" stroke="midnightblue" points="1123.53,-248.943 1126.84,-238.879 1117.98,-244.683 1123.53,-248.943"/>
</g>
<!-- Node14 -->
<g id="node14" class="node"><title>Node14</title>
<g id="a_node14"><a xlink:href="$GPIO_8h.html" xlink:title="GPIO.h">
<polygon fill="white" stroke="black" points="736.328,-220.5 736.328,-238.5 785.672,-238.5 785.672,-220.5 736.328,-220.5"/>
<text text-anchor="middle" x="761" y="-226.5" font-family="Helvetica,sans-Serif" font-size="10.00">GPIO.h</text>
</a>
</g>
</g>
<!-- Node2&#45;&gt;Node14 -->
<g id="edge51" class="edge"><title>Node2&#45;&gt;Node14</title>
<path fill="none" stroke="midnightblue" d="M709.04,-440.79C731.07,-434.669 754.68,-423.69 768,-404 800.617,-355.784 780.045,-281.59 767.967,-248.042"/>
<polygon fill="midnightblue" stroke="midnightblue" points="771.232,-246.78 764.422,-238.663 764.684,-249.254 771.232,-246.78"/>
</g>
<!-- Node15 -->
<g id="node15" class="node"><title>Node15</title>
<g id="a_node15"><a xlink:href="$RCInput_8h.html" xlink:title="RCInput.h">
<polygon fill="white" stroke="black" points="165.488,-275.5 165.488,-293.5 226.512,-293.5 226.512,-275.5 165.488,-275.5"/>
<text text-anchor="middle" x="196" y="-281.5" font-family="Helvetica,sans-Serif" font-size="10.00">RCInput.h</text>
</a>
</g>
</g>
<!-- Node2&#45;&gt;Node15 -->
<g id="edge52" class="edge"><title>Node2&#45;&gt;Node15</title>
<path fill="none" stroke="midnightblue" d="M605.009,-445.96C499.814,-440.388 269.285,-425.826 241,-404 209.585,-379.758 200.099,-330.876 197.236,-304.091"/>
<polygon fill="midnightblue" stroke="midnightblue" points="200.696,-303.467 196.351,-293.804 193.722,-304.067 200.696,-303.467"/>
</g>
<!-- Node16 -->
<g id="node16" class="node"><title>Node16</title>
<g id="a_node16"><a xlink:href="$RCOutput_8h.html" xlink:title="RCOutput.h">
<polygon fill="white" stroke="black" points="354.599,-275.5 354.599,-293.5 423.401,-293.5 423.401,-275.5 354.599,-275.5"/>
<text text-anchor="middle" x="389" y="-281.5" font-family="Helvetica,sans-Serif" font-size="10.00">RCOutput.h</text>
</a>
</g>
</g>
<!-- Node2&#45;&gt;Node16 -->
<g id="edge53" class="edge"><title>Node2&#45;&gt;Node16</title>
<path fill="none" stroke="midnightblue" d="M605.051,-443.667C548.288,-437.424 462.075,-424.812 437,-404 406.202,-378.438 394.976,-330.095 391.03,-303.745"/>
<polygon fill="midnightblue" stroke="midnightblue" points="394.476,-303.103 389.717,-293.637 387.534,-304.005 394.476,-303.103"/>
</g>
<!-- Node17 -->
<g id="node17" class="node"><title>Node17</title>
<g id="a_node17"><a xlink:href="$SPIDriver_8h.html" xlink:title="SPIDriver.h">
<polygon fill="white" stroke="black" points="879.712,-275.5 879.712,-293.5 946.288,-293.5 946.288,-275.5 879.712,-275.5"/>
<text text-anchor="middle" x="913" y="-281.5" font-family="Helvetica,sans-Serif" font-size="10.00">SPIDriver.h</text>
</a>
</g>
</g>
<!-- Node2&#45;&gt;Node17 -->
<g id="edge48" class="edge"><title>Node2&#45;&gt;Node17</title>
<path fill="none" stroke="midnightblue" d="M706.562,-440.468C764.442,-430.7 853.868,-414.25 866,-404 896.485,-378.245 907.343,-329.981 911.098,-303.694"/>
<polygon fill="midnightblue" stroke="midnightblue" points="914.591,-303.965 912.34,-293.613 907.644,-303.11 914.591,-303.965"/>
</g>
<!-- Node18 -->
<g id="node18" class="node"><title>Node18</title>
<g id="a_node18"><a xlink:href="$Storage_8h.html" xlink:title="Storage.h">
<polygon fill="white" stroke="black" points="555.318,-275.5 555.318,-293.5 614.682,-293.5 614.682,-275.5 555.318,-275.5"/>
<text text-anchor="middle" x="585" y="-281.5" font-family="Helvetica,sans-Serif" font-size="10.00">Storage.h</text>
</a>
</g>
</g>
<!-- Node2&#45;&gt;Node18 -->
<g id="edge50" class="edge"><title>Node2&#45;&gt;Node18</title>
<path fill="none" stroke="midnightblue" d="M653.331,-440.193C642.111,-414.794 608.098,-337.791 592.709,-302.952"/>
<polygon fill="midnightblue" stroke="midnightblue" points="595.819,-301.33 588.577,-293.597 589.416,-304.159 595.819,-301.33"/>
</g>
<!-- Node19 -->
<g id="node19" class="node"><title>Node19</title>
<g id="a_node19"><a xlink:href="$UARTDriver_8h.html" xlink:title="UARTDriver.h">
<polygon fill="white" stroke="black" points="632.248,-275.5 632.248,-293.5 709.752,-293.5 709.752,-275.5 632.248,-275.5"/>
<text text-anchor="middle" x="671" y="-281.5" font-family="Helvetica,sans-Serif" font-size="10.00">UARTDriver.h</text>
</a>
</g>
</g>
<!-- Node2&#45;&gt;Node19 -->
<g id="edge44" class="edge"><title>Node2&#45;&gt;Node19</title>
<path fill="none" stroke="midnightblue" d="M655.803,-440.321C654.564,-431.412 652.713,-416.73 652,-404 649.988,-368.066 659.341,-326.674 665.639,-303.549"/>
<polygon fill="midnightblue" stroke="midnightblue" points="669.051,-304.345 668.422,-293.769 662.318,-302.429 669.051,-304.345"/>
</g>
<!-- Node22 -->
<g id="node22" class="node"><title>Node22</title>
<g id="a_node22"><a xlink:href="$BetterStream_8h.html" xlink:title="utility/BetterStream.h">
<polygon fill="white" stroke="black" points="917.594,-220.5 917.594,-238.5 1026.41,-238.5 1026.41,-220.5 917.594,-220.5"/>
<text text-anchor="middle" x="972" y="-226.5" font-family="Helvetica,sans-Serif" font-size="10.00">utility/BetterStream.h</text>
</a>
</g>
</g>
<!-- Node2&#45;&gt;Node22 -->
<g id="edge66" class="edge"><title>Node2&#45;&gt;Node22</title>
<path fill="none" stroke="midnightblue" d="M708.935,-440.831C772.746,-431.056 874.398,-414.205 889,-404 942.345,-366.72 962.573,-285.636 969.189,-249.058"/>
<polygon fill="midnightblue" stroke="midnightblue" points="972.698,-249.296 970.884,-238.858 965.792,-248.149 972.698,-249.296"/>
</g>
<!-- Node24 -->
<g id="node24" class="node"><title>Node24</title>
<g id="a_node24"><a xlink:href="$Stream_8h.html" xlink:title="Stream.h">
<polygon fill="white" stroke="black" points="1185.71,-165.5 1185.71,-183.5 1242.29,-183.5 1242.29,-165.5 1185.71,-165.5"/>
<text text-anchor="middle" x="1214" y="-171.5" font-family="Helvetica,sans-Serif" font-size="10.00">Stream.h</text>
</a>
</g>
</g>
<!-- Node2&#45;&gt;Node24 -->
<g id="edge65" class="edge"><title>Node2&#45;&gt;Node24</title>
<path fill="none" stroke="midnightblue" d="M709.007,-440.914C711.708,-440.588 714.385,-440.281 717,-440 771.279,-434.168 1163.26,-436.662 1207,-404 1231.17,-385.949 1231,-370.671 1231,-340.5 1231,-340.5 1231,-340.5 1231,-283.5 1231,-251.482 1223.62,-214.768 1218.58,-193.448"/>
<polygon fill="midnightblue" stroke="midnightblue" points="1221.94,-192.436 1216.15,-183.561 1215.14,-194.107 1221.94,-192.436"/>
</g>
<!-- Node25 -->
<g id="node25" class="node"><title>Node25</title>
<g id="a_node25"><a xlink:href="$Print_8h.html" xlink:title="Print.h">
<polygon fill="white" stroke="black" points="1261.55,-110.5 1261.55,-128.5 1306.45,-128.5 1306.45,-110.5 1261.55,-110.5"/>
<text text-anchor="middle" x="1284" y="-116.5" font-family="Helvetica,sans-Serif" font-size="10.00">Print.h</text>
</a>
</g>
</g>
<!-- Node2&#45;&gt;Node25 -->
<g id="edge64" class="edge"><title>Node2&#45;&gt;Node25</title>
<path fill="none" stroke="midnightblue" d="M709.004,-440.887C711.706,-440.568 714.384,-440.27 717,-440 839.719,-427.339 1153.89,-442.798 1271,-404 1320.27,-387.678 1369,-392.4 1369,-340.5 1369,-340.5 1369,-340.5 1369,-228.5 1369,-187.306 1330.34,-152.555 1305.17,-134.292"/>
<polygon fill="midnightblue" stroke="midnightblue" points="1307.11,-131.383 1296.91,-128.536 1303.11,-137.126 1307.11,-131.383"/>
</g>
<!-- Node26 -->
<g id="node26" class="node"><title>Node26</title>
<g id="a_node26"><a xlink:href="$I2CDriver_8h.html" xlink:title="I2CDriver.h">
<polygon fill="white" stroke="black" points="841.99,-165.5 841.99,-183.5 908.01,-183.5 908.01,-165.5 841.99,-165.5"/>
<text text-anchor="middle" x="875" y="-171.5" font-family="Helvetica,sans-Serif" font-size="10.00">I2CDriver.h</text>
</a>
</g>
</g>
<!-- Node2&#45;&gt;Node26 -->
<g id="edge45" class="edge"><title>Node2&#45;&gt;Node26</title>
<path fill="none" stroke="midnightblue" d="M694.217,-440.449C721.31,-433.506 758.153,-421.757 787,-404 821.393,-382.83 852,-380.886 852,-340.5 852,-340.5 852,-340.5 852,-283.5 852,-251.014 862.078,-214.212 868.892,-193.044"/>
<polygon fill="midnightblue" stroke="midnightblue" points="872.23,-194.098 872.087,-183.504 865.592,-191.875 872.23,-194.098"/>
</g>
<!-- Node27 -->
<g id="node27" class="node"><title>Node27</title>
<g id="a_node27"><a xlink:href="$Scheduler_8h.html" xlink:title="Scheduler.h">
<polygon fill="white" stroke="black" points="235.589,-220.5 235.589,-238.5 304.411,-238.5 304.411,-220.5 235.589,-220.5"/>
<text text-anchor="middle" x="270" y="-226.5" font-family="Helvetica,sans-Serif" font-size="10.00">Scheduler.h</text>
</a>
</g>
</g>
<!-- Node2&#45;&gt;Node27 -->
<g id="edge54" class="edge"><title>Node2&#45;&gt;Node27</title>
<path fill="none" stroke="midnightblue" d="M604.822,-441.444C557.978,-434.118 493.78,-421.301 475,-404 430.552,-363.053 475.865,-316.572 432,-275 423.316,-266.77 359.206,-250.807 314.292,-240.407"/>
<polygon fill="midnightblue" stroke="midnightblue" points="314.993,-236.976 304.463,-238.148 313.426,-243.799 314.993,-236.976"/>
</g>
<!-- Node28 -->
<g id="node28" class="node"><title>Node28</title>
<g id="a_node28"><a xlink:href="$Semaphores_8h.html" xlink:title="Semaphores.h">
<polygon fill="white" stroke="black" points="1259.48,-330.5 1259.48,-348.5 1340.52,-348.5 1340.52,-330.5 1259.48,-330.5"/>
<text text-anchor="middle" x="1300" y="-336.5" font-family="Helvetica,sans-Serif" font-size="10.00">Semaphores.h</text>
</a>
</g>
</g>
<!-- Node2&#45;&gt;Node28 -->
<g id="edge59" class="edge"><title>Node2&#45;&gt;Node28</title>
<path fill="none" stroke="midnightblue" d="M709.005,-440.897C711.707,-440.576 714.384,-440.274 717,-440 833.965,-427.744 1139.75,-456.478 1245,-404 1265.34,-393.857 1281.3,-372.527 1290.67,-357.392"/>
<polygon fill="midnightblue" stroke="midnightblue" points="1293.84,-358.919 1295.86,-348.52 1287.79,-355.386 1293.84,-358.919"/>
</g>
<!-- Node29 -->
<g id="node29" class="node"><title>Node29</title>
<g id="a_node29"><a xlink:href="$Util_8h.html" xlink:title="Util.h">
<polygon fill="white" stroke="black" points="1044.61,-220.5 1044.61,-238.5 1083.39,-238.5 1083.39,-220.5 1044.61,-220.5"/>
<text text-anchor="middle" x="1064" y="-226.5" font-family="Helvetica,sans-Serif" font-size="10.00">Util.h</text>
</a>
</g>
</g>
<!-- Node2&#45;&gt;Node29 -->
<g id="edge61" class="edge"><title>Node2&#45;&gt;Node29</title>
<path fill="none" stroke="midnightblue" d="M708.555,-440.484C780.991,-429.089 905.107,-409.029 914,-404 982.139,-365.466 1034.08,-283.796 1054.52,-247.968"/>
<polygon fill="midnightblue" stroke="midnightblue" points="1057.83,-249.222 1059.64,-238.783 1051.72,-245.815 1057.83,-249.222"/>
</g>
<!-- Node6 -->
<g id="node6" class="node"><title>Node6</title>
<polygon fill="white" stroke="#bfbfbf" points="1059.6,-0.5 1059.6,-18.5 1108.4,-18.5 1108.4,-0.5 1059.6,-0.5"/>
<text text-anchor="middle" x="1084" y="-6.5" font-family="Helvetica,sans-Serif" font-size="10.00">string.h</text>
</g>
<!-- Node5&#45;&gt;Node6 -->
<g id="edge5" class="edge"><title>Node5&#45;&gt;Node6</title>
<path fill="none" stroke="midnightblue" d="M958.478,-55.4504C983.361,-46.5395 1023.68,-32.1029 1051.88,-22.0014"/>
<polygon fill="midnightblue" stroke="midnightblue" points="1053.08,-25.2919 1061.31,-18.6253 1050.72,-18.7017 1053.08,-25.2919"/>
</g>
<!-- Node7 -->
<g id="node7" class="node"><title>Node7</title>
<g id="a_node7"><a xlink:href="$functor_8h.html" xlink:title="utility/functor.h">
<polygon fill="white" stroke="black" points="896.037,-0.5 896.037,-18.5 975.963,-18.5 975.963,-0.5 896.037,-0.5"/>
<text text-anchor="middle" x="936" y="-6.5" font-family="Helvetica,sans-Serif" font-size="10.00">utility/functor.h</text>
</a>
</g>
</g>
<!-- Node5&#45;&gt;Node7 -->
<g id="edge6" class="edge"><title>Node5&#45;&gt;Node7</title>
<path fill="none" stroke="midnightblue" d="M936,-55.2188C936,-48.1769 936,-37.8083 936,-28.8277"/>
<polygon fill="midnightblue" stroke="midnightblue" points="939.5,-28.5495 936,-18.5496 932.5,-28.5496 939.5,-28.5495"/>
</g>
<!-- Node10&#45;&gt;Node11 -->
<g id="edge10" class="edge"><title>Node10&#45;&gt;Node11</title>
<path fill="none" stroke="midnightblue" d="M710.562,-385.219C707.542,-377.942 703.047,-367.113 699.237,-357.934"/>
<polygon fill="midnightblue" stroke="midnightblue" points="702.408,-356.444 695.341,-348.55 695.943,-359.127 702.408,-356.444"/>
</g>
<!-- Node11&#45;&gt;Node5 -->
<g id="edge11" class="edge"><title>Node11&#45;&gt;Node5</title>
<path fill="none" stroke="midnightblue" d="M714.093,-330.607C749.25,-316.464 814,-283.256 814,-230.5 814,-230.5 814,-230.5 814,-173.5 814,-125.407 867.809,-93.5589 903.956,-77.5903"/>
<polygon fill="midnightblue" stroke="midnightblue" points="905.773,-80.6223 913.623,-73.5072 903.049,-74.1739 905.773,-80.6223"/>
</g>
<!-- Node11&#45;&gt;Node12 -->
<g id="edge12" class="edge"><title>Node11&#45;&gt;Node12</title>
<path fill="none" stroke="midnightblue" d="M714.096,-336.087C759.665,-330.823 867.173,-316.907 955,-294 1008.89,-279.944 1069.57,-256.61 1104.35,-242.482"/>
<polygon fill="midnightblue" stroke="midnightblue" points="1105.93,-245.615 1113.86,-238.585 1103.28,-239.138 1105.93,-245.615"/>
</g>
<!-- Node11&#45;&gt;Node14 -->
<g id="edge15" class="edge"><title>Node11&#45;&gt;Node14</title>
<path fill="none" stroke="midnightblue" d="M697.186,-330.382C708.425,-312.791 735.224,-270.846 750.273,-247.289"/>
<polygon fill="midnightblue" stroke="midnightblue" points="753.319,-249.023 755.754,-238.712 747.42,-245.254 753.319,-249.023"/>
</g>
<!-- Node11&#45;&gt;Node15 -->
<g id="edge18" class="edge"><title>Node11&#45;&gt;Node15</title>
<path fill="none" stroke="midnightblue" d="M670.048,-336.154C593.453,-327.97 337.268,-300.595 236.863,-289.866"/>
<polygon fill="midnightblue" stroke="midnightblue" points="237.118,-286.374 226.803,-288.791 236.375,-293.334 237.118,-286.374"/>
</g>
<!-- Node11&#45;&gt;Node16 -->
<g id="edge20" class="edge"><title>Node11&#45;&gt;Node16</title>
<path fill="none" stroke="midnightblue" d="M669.72,-334.603C620.034,-325.912 499.373,-304.806 433.581,-293.298"/>
<polygon fill="midnightblue" stroke="midnightblue" points="433.966,-289.812 423.512,-291.537 432.76,-296.708 433.966,-289.812"/>
</g>
<!-- Node11&#45;&gt;Node17 -->
<g id="edge22" class="edge"><title>Node11&#45;&gt;Node17</title>
<path fill="none" stroke="midnightblue" d="M713.998,-333.224C750.209,-324.54 823.012,-307.081 869.804,-295.859"/>
<polygon fill="midnightblue" stroke="midnightblue" points="870.752,-299.231 879.66,-293.496 869.119,-292.424 870.752,-299.231"/>
</g>
<!-- Node11&#45;&gt;Node18 -->
<g id="edge24" class="edge"><title>Node11&#45;&gt;Node18</title>
<path fill="none" stroke="midnightblue" d="M675.749,-330.45C658.387,-321.851 630.636,-308.105 610.388,-298.075"/>
<polygon fill="midnightblue" stroke="midnightblue" points="611.918,-294.928 601.404,-293.625 608.811,-301.2 611.918,-294.928"/>
</g>
<!-- Node11&#45;&gt;Node19 -->
<g id="edge27" class="edge"><title>Node11&#45;&gt;Node19</title>
<path fill="none" stroke="midnightblue" d="M688.719,-330.219C685.836,-322.942 681.545,-312.113 677.908,-302.934"/>
<polygon fill="midnightblue" stroke="midnightblue" points="681.127,-301.557 674.189,-293.55 674.619,-304.136 681.127,-301.557"/>
</g>
<!-- Node12&#45;&gt;Node5 -->
<g id="edge14" class="edge"><title>Node12&#45;&gt;Node5</title>
<path fill="none" stroke="midnightblue" d="M1128.71,-220.448C1117.18,-199.511 1083.53,-142.715 1041,-110 1021.49,-94.9927 996.171,-84.0671 975.282,-76.7979"/>
<polygon fill="midnightblue" stroke="midnightblue" points="976.326,-73.4564 965.732,-73.6176 974.114,-80.0978 976.326,-73.4564"/>
</g>
<!-- Node13 -->
<g id="node13" class="node"><title>Node13</title>
<polygon fill="white" stroke="#bfbfbf" points="1304.6,-55.5 1304.6,-73.5 1363.4,-73.5 1363.4,-55.5 1304.6,-55.5"/>
<text text-anchor="middle" x="1334" y="-61.5" font-family="Helvetica,sans-Serif" font-size="10.00">inttypes.h</text>
</g>
<!-- Node12&#45;&gt;Node13 -->
<g id="edge13" class="edge"><title>Node12&#45;&gt;Node13</title>
<path fill="none" stroke="midnightblue" d="M1165.1,-220.997C1207.41,-209.254 1280.49,-182.159 1315,-129 1324.01,-115.126 1328.89,-96.8108 1331.44,-83.417"/>
<polygon fill="midnightblue" stroke="midnightblue" points="1334.9,-83.9658 1333.07,-73.5291 1327.99,-82.8252 1334.9,-83.9658"/>
</g>
<!-- Node14&#45;&gt;Node3 -->
<g id="edge16" class="edge"><title>Node14&#45;&gt;Node3</title>
<path fill="none" stroke="midnightblue" d="M746.418,-220.382C713.053,-201.808 630.91,-156.079 590.384,-133.518"/>
<polygon fill="midnightblue" stroke="midnightblue" points="591.926,-130.37 581.486,-128.564 588.521,-136.487 591.926,-130.37"/>
</g>
<!-- Node14&#45;&gt;Node5 -->
<g id="edge17" class="edge"><title>Node14&#45;&gt;Node5</title>
<path fill="none" stroke="midnightblue" d="M761.268,-220.312C762.412,-199.044 768.424,-141.521 800,-110 817.461,-92.5692 841.842,-81.9655 865.146,-75.5151"/>
<polygon fill="midnightblue" stroke="midnightblue" points="866.216,-78.8545 875.044,-72.9972 864.49,-72.0706 866.216,-78.8545"/>
</g>
<!-- Node15&#45;&gt;Node5 -->
<g id="edge19" class="edge"><title>Node15&#45;&gt;Node5</title>
<path fill="none" stroke="midnightblue" d="M170.957,-275.389C121.664,-258.1 19.9312,-215.087 57,-165 106.763,-97.7604 154.701,-124.981 237,-110 463.616,-68.7484 737.578,-64.18 864.745,-64.5937"/>
<polygon fill="midnightblue" stroke="midnightblue" points="865.102,-68.0953 875.117,-64.6397 865.133,-61.0953 865.102,-68.0953"/>
</g>
<!-- Node16&#45;&gt;Node5 -->
<g id="edge21" class="edge"><title>Node16&#45;&gt;Node5</title>
<path fill="none" stroke="midnightblue" d="M354.52,-278.939C311.695,-272.486 242.384,-259.18 227,-239 199.543,-202.984 144.413,-202.079 262,-110 308.584,-73.521 700.612,-66.9019 864.467,-65.7341"/>
<polygon fill="midnightblue" stroke="midnightblue" points="864.947,-69.2311 874.924,-65.6648 864.901,-62.2313 864.947,-69.2311"/>
</g>
<!-- Node17&#45;&gt;Node5 -->
<g id="edge23" class="edge"><title>Node17&#45;&gt;Node5</title>
<path fill="none" stroke="midnightblue" d="M912.042,-275.313C911.051,-266.397 909.57,-251.708 909,-239 908.622,-230.564 908.079,-228.394 909,-220 910.788,-203.708 913.923,-200.099 917,-184 923.758,-148.635 930.05,-107.02 933.426,-83.706"/>
<polygon fill="midnightblue" stroke="midnightblue" points="936.923,-83.9702 934.875,-73.5752 929.994,-82.9787 936.923,-83.9702"/>
</g>
<!-- Node18&#45;&gt;Node3 -->
<g id="edge25" class="edge"><title>Node18&#45;&gt;Node3</title>
<path fill="none" stroke="midnightblue" d="M584.083,-275.193C581.302,-250.013 572.921,-174.114 569.028,-138.862"/>
<polygon fill="midnightblue" stroke="midnightblue" points="572.471,-138.153 567.894,-128.597 565.513,-138.921 572.471,-138.153"/>
</g>
<!-- Node18&#45;&gt;Node5 -->
<g id="edge26" class="edge"><title>Node18&#45;&gt;Node5</title>
<path fill="none" stroke="midnightblue" d="M590.497,-275.436C609.864,-247.682 678.079,-155.327 758,-110 790.658,-91.4782 830.976,-80.5787 864.978,-74.2089"/>
<polygon fill="midnightblue" stroke="midnightblue" points="865.617,-77.6502 874.849,-72.452 864.39,-70.7585 865.617,-77.6502"/>
</g>
<!-- Node19&#45;&gt;Node3 -->
<g id="edge28" class="edge"><title>Node19&#45;&gt;Node3</title>
<path fill="none" stroke="midnightblue" d="M665.7,-275.193C649.355,-249.575 599.514,-171.459 577.566,-137.06"/>
<polygon fill="midnightblue" stroke="midnightblue" points="580.496,-135.145 572.166,-128.597 574.595,-138.91 580.496,-135.145"/>
</g>
<!-- Node19&#45;&gt;Node5 -->
<g id="edge33" class="edge"><title>Node19&#45;&gt;Node5</title>
<path fill="none" stroke="midnightblue" d="M673.89,-275.115C683.977,-247.112 720.402,-156.004 782,-110 805.93,-92.1282 836.861,-81.4201 864.717,-75.0104"/>
<polygon fill="midnightblue" stroke="midnightblue" points="865.781,-78.3617 874.822,-72.838 864.31,-71.518 865.781,-78.3617"/>
</g>
<!-- Node20 -->
<g id="node20" class="node"><title>Node20</title>
<g id="a_node20"><a xlink:href="$AP__Common_8h.html" xlink:title="Common definitions and utility routines for the ArduPilot libraries. ">
<polygon fill="white" stroke="black" points="335.973,-165.5 335.973,-183.5 482.027,-183.5 482.027,-165.5 335.973,-165.5"/>
<text text-anchor="middle" x="409" y="-171.5" font-family="Helvetica,sans-Serif" font-size="10.00">AP_Common/AP_Common.h</text>
</a>
</g>
</g>
<!-- Node19&#45;&gt;Node20 -->
<g id="edge29" class="edge"><title>Node19&#45;&gt;Node20</title>
<path fill="none" stroke="midnightblue" d="M651.307,-275.382C605.486,-256.494 491.548,-209.527 437.858,-187.396"/>
<polygon fill="midnightblue" stroke="midnightblue" points="439.143,-184.14 428.564,-183.564 436.475,-190.611 439.143,-184.14"/>
</g>
<!-- Node19&#45;&gt;Node22 -->
<g id="edge34" class="edge"><title>Node19&#45;&gt;Node22</title>
<path fill="none" stroke="midnightblue" d="M710.042,-276.626C762.596,-267.372 856.403,-250.854 916.34,-240.301"/>
<polygon fill="midnightblue" stroke="midnightblue" points="917.146,-243.713 926.388,-238.531 915.932,-236.819 917.146,-243.713"/>
</g>
<!-- Node20&#45;&gt;Node3 -->
<g id="edge30" class="edge"><title>Node20&#45;&gt;Node3</title>
<path fill="none" stroke="midnightblue" d="M432.997,-165.45C459.755,-156.475 503.227,-141.892 533.369,-131.781"/>
<polygon fill="midnightblue" stroke="midnightblue" points="534.669,-135.037 543.037,-128.538 532.443,-128.4 534.669,-135.037"/>
</g>
<!-- Node20&#45;&gt;Node4 -->
<g id="edge32" class="edge"><title>Node20&#45;&gt;Node4</title>
<path fill="none" stroke="midnightblue" d="M406.812,-165.219C404.911,-158.02 402.091,-147.346 399.684,-138.231"/>
<polygon fill="midnightblue" stroke="midnightblue" points="403.064,-137.324 397.126,-128.55 396.296,-139.112 403.064,-137.324"/>
</g>
<!-- Node20&#45;&gt;Node21 -->
<g id="edge31" class="edge"><title>Node20&#45;&gt;Node21</title>
<path fill="none" stroke="midnightblue" d="M394.116,-165.45C378.43,-156.968 353.486,-143.477 335.012,-133.486"/>
<polygon fill="midnightblue" stroke="midnightblue" points="336.485,-130.304 326.024,-128.625 333.155,-136.461 336.485,-130.304"/>
</g>
<!-- Node22&#45;&gt;Node5 -->
<g id="edge37" class="edge"><title>Node22&#45;&gt;Node5</title>
<path fill="none" stroke="midnightblue" d="M970.84,-220.381C968.009,-201.083 960.219,-151.014 950,-110 947.767,-101.039 944.746,-91.2313 942.081,-83.1097"/>
<polygon fill="midnightblue" stroke="midnightblue" points="945.392,-81.9747 938.881,-73.6172 938.759,-84.2113 945.392,-81.9747"/>
</g>
<!-- Node22&#45;&gt;Node20 -->
<g id="edge36" class="edge"><title>Node22&#45;&gt;Node20</title>
<path fill="none" stroke="midnightblue" d="M917.506,-223.37C818.694,-214.068 609.388,-194.364 492.462,-183.357"/>
<polygon fill="midnightblue" stroke="midnightblue" points="492.763,-179.87 482.479,-182.417 492.107,-186.839 492.763,-179.87"/>
</g>
<!-- Node23 -->
<g id="node23" class="node"><title>Node23</title>
<polygon fill="white" stroke="#bfbfbf" points="1001.93,-165.5 1001.93,-183.5 1054.07,-183.5 1054.07,-165.5 1001.93,-165.5"/>
<text text-anchor="middle" x="1028" y="-171.5" font-family="Helvetica,sans-Serif" font-size="10.00">stdarg.h</text>
</g>
<!-- Node22&#45;&gt;Node23 -->
<g id="edge35" class="edge"><title>Node22&#45;&gt;Node23</title>
<path fill="none" stroke="midnightblue" d="M980.75,-220.219C989.1,-212.316 1001.88,-200.224 1012.04,-190.606"/>
<polygon fill="midnightblue" stroke="midnightblue" points="1014.64,-192.965 1019.49,-183.55 1009.83,-187.881 1014.64,-192.965"/>
</g>
<!-- Node22&#45;&gt;Node24 -->
<g id="edge38" class="edge"><title>Node22&#45;&gt;Node24</title>
<path fill="none" stroke="midnightblue" d="M1008.75,-220.45C1053.87,-210.57 1130,-193.896 1175.78,-183.871"/>
<polygon fill="midnightblue" stroke="midnightblue" points="1176.6,-187.275 1185.62,-181.716 1175.1,-180.437 1176.6,-187.275"/>
</g>
<!-- Node24&#45;&gt;Node5 -->
<g id="edge39" class="edge"><title>Node24&#45;&gt;Node5</title>
<path fill="none" stroke="midnightblue" d="M1211.07,-165.35C1205.65,-151.551 1192.7,-123.751 1172,-110 1145.45,-92.3607 1066.42,-79.9175 1007.08,-72.756"/>
<polygon fill="midnightblue" stroke="midnightblue" points="1007.33,-69.2617 996.991,-71.5662 1006.51,-76.2136 1007.33,-69.2617"/>
</g>
<!-- Node24&#45;&gt;Node25 -->
<g id="edge40" class="edge"><title>Node24&#45;&gt;Node25</title>
<path fill="none" stroke="midnightblue" d="M1224.63,-165.45C1235.32,-157.357 1252.03,-144.704 1265,-134.882"/>
<polygon fill="midnightblue" stroke="midnightblue" points="1267.41,-137.452 1273.27,-128.625 1263.18,-131.871 1267.41,-137.452"/>
</g>
<!-- Node25&#45;&gt;Node5 -->
<g id="edge41" class="edge"><title>Node25&#45;&gt;Node5</title>
<path fill="none" stroke="midnightblue" d="M1261.21,-112.792C1256.84,-111.791 1252.29,-110.811 1248,-110 1165.88,-94.4814 1070.68,-81.6392 1007.25,-73.8043"/>
<polygon fill="midnightblue" stroke="midnightblue" points="1007.31,-70.2856 996.955,-72.5428 1006.45,-77.2336 1007.31,-70.2856"/>
</g>
<!-- Node25&#45;&gt;Node6 -->
<g id="edge43" class="edge"><title>Node25&#45;&gt;Node6</title>
<path fill="none" stroke="midnightblue" d="M1268.97,-110.382C1234.5,-91.7685 1149.53,-45.8858 1107.84,-23.3754"/>
<polygon fill="midnightblue" stroke="midnightblue" points="1109.4,-20.2363 1098.93,-18.5644 1106.07,-26.3956 1109.4,-20.2363"/>
</g>
<!-- Node25&#45;&gt;Node13 -->
<g id="edge42" class="edge"><title>Node25&#45;&gt;Node13</title>
<path fill="none" stroke="midnightblue" d="M1291.81,-110.219C1299.19,-102.394 1310.45,-90.4631 1319.48,-80.8921"/>
<polygon fill="midnightblue" stroke="midnightblue" points="1322.09,-83.2253 1326.41,-73.5496 1317,-78.4217 1322.09,-83.2253"/>
</g>
<!-- Node26&#45;&gt;Node3 -->
<g id="edge46" class="edge"><title>Node26&#45;&gt;Node3</title>
<path fill="none" stroke="midnightblue" d="M841.746,-167.778C782.903,-157.652 661.031,-136.681 601.389,-126.418"/>
<polygon fill="midnightblue" stroke="midnightblue" points="601.794,-122.936 591.346,-124.689 600.607,-129.835 601.794,-122.936"/>
</g>
<!-- Node26&#45;&gt;Node5 -->
<g id="edge47" class="edge"><title>Node26&#45;&gt;Node5</title>
<path fill="none" stroke="midnightblue" d="M879.585,-165.382C889.476,-147.869 913.002,-106.218 926.339,-82.6045"/>
<polygon fill="midnightblue" stroke="midnightblue" points="929.491,-84.1402 931.362,-73.7118 923.396,-80.6976 929.491,-84.1402"/>
</g>
<!-- Node27&#45;&gt;Node3 -->
<g id="edge55" class="edge"><title>Node27&#45;&gt;Node3</title>
<path fill="none" stroke="midnightblue" d="M274.787,-220.324C283.356,-206.486 302.711,-178.628 327,-165 393.107,-127.909 484.006,-120.925 532.776,-120.084"/>
<polygon fill="midnightblue" stroke="midnightblue" points="532.838,-123.583 542.805,-119.988 532.772,-116.584 532.838,-123.583"/>
</g>
<!-- Node27&#45;&gt;Node5 -->
<g id="edge58" class="edge"><title>Node27&#45;&gt;Node5</title>
<path fill="none" stroke="midnightblue" d="M267.45,-220.455C261.216,-199.033 247.82,-140.183 278,-110 318.772,-69.2229 702.839,-65.0661 864.66,-65.1461"/>
<polygon fill="midnightblue" stroke="midnightblue" points="864.988,-68.6463 874.992,-65.1571 864.996,-61.6463 864.988,-68.6463"/>
</g>
<!-- Node27&#45;&gt;Node8 -->
<g id="edge57" class="edge"><title>Node27&#45;&gt;Node8</title>
<path fill="none" stroke="midnightblue" d="M246.611,-220.45C220.643,-211.514 178.527,-197.019 149.163,-186.913"/>
<polygon fill="midnightblue" stroke="midnightblue" points="149.951,-183.483 139.357,-183.538 147.673,-190.102 149.951,-183.483"/>
</g>
<!-- Node27&#45;&gt;Node20 -->
<g id="edge56" class="edge"><title>Node27&#45;&gt;Node20</title>
<path fill="none" stroke="midnightblue" d="M291.111,-220.45C314.277,-211.617 351.683,-197.355 378.139,-187.267"/>
<polygon fill="midnightblue" stroke="midnightblue" points="379.593,-190.458 387.69,-183.625 377.099,-183.918 379.593,-190.458"/>
</g>
<!-- Node28&#45;&gt;Node5 -->
<g id="edge60" class="edge"><title>Node28&#45;&gt;Node5</title>
<path fill="none" stroke="midnightblue" d="M1299.56,-330.315C1297.17,-294.902 1282.33,-154.664 1196,-110 1137.06,-79.5052 1061.54,-69.2753 1007.09,-66.1393"/>
<polygon fill="midnightblue" stroke="midnightblue" points="1007,-62.6303 996.837,-65.6178 1006.65,-69.6213 1007,-62.6303"/>
</g>
<!-- Node29&#45;&gt;Node5 -->
<g id="edge63" class="edge"><title>Node29&#45;&gt;Node5</title>
<path fill="none" stroke="midnightblue" d="M1066.04,-220.155C1068.67,-207.485 1071.93,-182.972 1063,-165 1042.2,-123.123 994.525,-93.552 963.869,-78.0444"/>
<polygon fill="midnightblue" stroke="midnightblue" points="965.091,-74.7464 954.569,-73.5059 962.021,-81.0372 965.091,-74.7464"/>
</g>
<!-- Node29&#45;&gt;Node23 -->
<g id="edge62" class="edge"><title>Node29&#45;&gt;Node23</title>
<path fill="none" stroke="midnightblue" d="M1058.38,-220.219C1053.27,-212.707 1045.6,-201.411 1039.24,-192.052"/>
<polygon fill="midnightblue" stroke="midnightblue" points="1041.98,-189.855 1033.47,-183.55 1036.19,-193.788 1041.98,-189.855"/>
</g>
<!-- Node31 -->
<g id="node31" class="node"><title>Node31</title>
<g id="a_node31"><a xlink:href="$AP__HAL__Linux_8h.html" xlink:title="AP_HAL_Linux.h">
<polygon fill="white" stroke="black" points="642.919,-550.5 642.919,-568.5 735.081,-568.5 735.081,-550.5 642.919,-550.5"/>
<text text-anchor="middle" x="689" y="-556.5" font-family="Helvetica,sans-Serif" font-size="10.00">AP_HAL_Linux.h</text>
</a>
</g>
</g>
<!-- Node30&#45;&gt;Node31 -->
<g id="edge69" class="edge"><title>Node30&#45;&gt;Node31</title>
<path fill="none" stroke="midnightblue" d="M635.451,-660.214C645.882,-652.095 660.994,-638.81 670,-624 678.416,-610.16 683.322,-592.341 686.032,-579.103"/>
<polygon fill="midnightblue" stroke="midnightblue" points="689.548,-579.328 687.883,-568.865 682.66,-578.083 689.548,-579.328"/>
</g>
<!-- Node34 -->
<g id="node34" class="node"><title>Node34</title>
<g id="a_node34"><a xlink:href="$GPIO__BBB_8h.html" xlink:title="GPIO_BBB.h">
<polygon fill="white" stroke="black" points="586.542,-605.5 586.542,-623.5 661.458,-623.5 661.458,-605.5 586.542,-605.5"/>
<text text-anchor="middle" x="624" y="-611.5" font-family="Helvetica,sans-Serif" font-size="10.00">GPIO_BBB.h</text>
</a>
</g>
</g>
<!-- Node30&#45;&gt;Node34 -->
<g id="edge74" class="edge"><title>Node30&#45;&gt;Node34</title>
<path fill="none" stroke="midnightblue" d="M624,-660.219C624,-653.177 624,-642.808 624,-633.828"/>
<polygon fill="midnightblue" stroke="midnightblue" points="627.5,-633.55 624,-623.55 620.5,-633.55 627.5,-633.55"/>
</g>
<!-- Node31&#45;&gt;Node2 -->
<g id="edge70" class="edge"><title>Node31&#45;&gt;Node2</title>
<path fill="none" stroke="midnightblue" d="M686.595,-550.382C681.475,-533.104 669.394,-492.329 662.352,-468.563"/>
<polygon fill="midnightblue" stroke="midnightblue" points="665.63,-467.305 659.433,-458.712 658.918,-469.294 665.63,-467.305"/>
</g>
<!-- Node32 -->
<g id="node32" class="node"><title>Node32</title>
<g id="a_node32"><a xlink:href="$HAL__Linux__Class_8h.html" xlink:title="HAL_Linux_Class.h">
<polygon fill="white" stroke="black" points="685.086,-495.5 685.086,-513.5 788.914,-513.5 788.914,-495.5 685.086,-495.5"/>
<text text-anchor="middle" x="737" y="-501.5" font-family="Helvetica,sans-Serif" font-size="10.00">HAL_Linux_Class.h</text>
</a>
</g>
</g>
<!-- Node31&#45;&gt;Node32 -->
<g id="edge71" class="edge"><title>Node31&#45;&gt;Node32</title>
<path fill="none" stroke="midnightblue" d="M696.5,-550.219C703.515,-542.473 714.176,-530.701 722.799,-521.18"/>
<polygon fill="midnightblue" stroke="midnightblue" points="725.591,-523.311 729.71,-513.55 720.403,-518.612 725.591,-523.311"/>
</g>
<!-- Node32&#45;&gt;Node2 -->
<g id="edge72" class="edge"><title>Node32&#45;&gt;Node2</title>
<path fill="none" stroke="midnightblue" d="M724.85,-495.45C712.398,-487.201 692.797,-474.216 677.858,-464.319"/>
<polygon fill="midnightblue" stroke="midnightblue" points="679.534,-461.231 669.265,-458.625 675.668,-467.066 679.534,-461.231"/>
</g>
<!-- Node33 -->
<g id="node33" class="node"><title>Node33</title>
<g id="a_node33"><a xlink:href="$AP__HAL__Linux__Namespace_8h.html" xlink:title="AP_HAL_Linux_Namespace.h">
<polygon fill="white" stroke="black" points="726.458,-440.5 726.458,-458.5 877.542,-458.5 877.542,-440.5 726.458,-440.5"/>
<text text-anchor="middle" x="802" y="-446.5" font-family="Helvetica,sans-Serif" font-size="10.00">AP_HAL_Linux_Namespace.h</text>
</a>
</g>
</g>
<!-- Node32&#45;&gt;Node33 -->
<g id="edge73" class="edge"><title>Node32&#45;&gt;Node33</title>
<path fill="none" stroke="midnightblue" d="M746.872,-495.45C756.703,-487.434 772.018,-474.947 784.013,-465.166"/>
<polygon fill="midnightblue" stroke="midnightblue" points="786.497,-467.657 792.035,-458.625 782.073,-462.232 786.497,-467.657"/>
</g>
<!-- Node34&#45;&gt;Node31 -->
<g id="edge75" class="edge"><title>Node34&#45;&gt;Node31</title>
<path fill="none" stroke="midnightblue" d="M633.872,-605.45C643.703,-597.434 659.018,-584.947 671.013,-575.166"/>
<polygon fill="midnightblue" stroke="midnightblue" points="673.497,-577.657 679.035,-568.625 669.073,-572.232 673.497,-577.657"/>
</g>
<!-- Node35&#45;&gt;Node31 -->
<g id="edge77" class="edge"><title>Node35&#45;&gt;Node31</title>
<path fill="none" stroke="midnightblue" d="M759.394,-605.45C746.353,-597.123 725.756,-583.97 710.203,-574.039"/>
<polygon fill="midnightblue" stroke="midnightblue" points="712.036,-571.057 701.725,-568.625 708.269,-576.957 712.036,-571.057"/>
</g>
<!-- Node43&#45;&gt;Node13 -->
<g id="edge88" class="edge"><title>Node43&#45;&gt;Node13</title>
<path fill="none" stroke="midnightblue" d="M1352.17,-605.265C1369.87,-588.417 1407,-548 1407,-505.5 1407,-505.5 1407,-505.5 1407,-173.5 1407,-134.569 1374.04,-99.1922 1352.41,-80.1721"/>
<polygon fill="midnightblue" stroke="midnightblue" points="1354.67,-77.4953 1344.77,-73.7101 1350.15,-82.8401 1354.67,-77.4953"/>
</g>
</g>
</svg>
