<?xml version="1.0" encoding="UTF-8" standalone="no"?>
<!DOCTYPE svg PUBLIC "-//W3C//DTD SVG 1.1//EN"
 "http://www.w3.org/Graphics/SVG/1.1/DTD/svg11.dtd">
<!-- Generated by graphviz version 2.38.0 (20140413.2041)
 -->
<!-- Title: libraries/AP_HAL_Linux/RCOutput_PCA9685.cpp Pages: 1 -->
<svg width="1727pt" height="752pt"
 viewBox="0.00 0.00 1727.29 752.00" xmlns="http://www.w3.org/2000/svg" xmlns:xlink="http://www.w3.org/1999/xlink">
<g id="graph0" class="graph" transform="scale(1 1) rotate(0) translate(4 748)">
<title>libraries/AP_HAL_Linux/RCOutput_PCA9685.cpp</title>
<polygon fill="white" stroke="none" points="-4,4 -4,-748 1723.29,-748 1723.29,4 -4,4"/>
<!-- Node1 -->
<g id="node1" class="node"><title>Node1</title>
<polygon fill="#bfbfbf" stroke="black" points="1260.74,-715.5 1260.74,-743.5 1391.26,-743.5 1391.26,-715.5 1260.74,-715.5"/>
<text text-anchor="start" x="1268.74" y="-731.5" font-family="Helvetica,sans-Serif" font-size="10.00">libraries/AP_HAL_Linux</text>
<text text-anchor="middle" x="1326" y="-721.5" font-family="Helvetica,sans-Serif" font-size="10.00">/RCOutput_PCA9685.cpp</text>
</g>
<!-- Node2 -->
<g id="node2" class="node"><title>Node2</title>
<g id="a_node2"><a xlink:href="$AP__HAL_8h.html" xlink:title="AP_HAL/AP_HAL.h">
<polygon fill="white" stroke="black" points="630.086,-440.5 630.086,-458.5 733.914,-458.5 733.914,-440.5 630.086,-440.5"/>
<text text-anchor="middle" x="682" y="-446.5" font-family="Helvetica,sans-Serif" font-size="10.00">AP_HAL/AP_HAL.h</text>
</a>
</g>
</g>
<!-- Node1&#45;&gt;Node2 -->
<g id="edge1" class="edge"><title>Node1&#45;&gt;Node2</title>
<path fill="none" stroke="midnightblue" d="M1260.53,-723.71C1097.97,-710.942 689,-673.097 689,-615.5 689,-615.5 689,-615.5 689,-558.5 689,-526.952 685.989,-490.327 683.916,-468.857"/>
<polygon fill="midnightblue" stroke="midnightblue" points="687.37,-468.217 682.887,-458.617 680.405,-468.917 687.37,-468.217"/>
</g>
<!-- Node3 -->
<g id="node3" class="node"><title>Node3</title>
<polygon fill="white" stroke="#bfbfbf" points="569.879,-110.5 569.879,-128.5 618.121,-128.5 618.121,-110.5 569.879,-110.5"/>
<text text-anchor="middle" x="594" y="-116.5" font-family="Helvetica,sans-Serif" font-size="10.00">stdint.h</text>
</g>
<!-- Node1&#45;&gt;Node3 -->
<g id="edge85" class="edge"><title>Node1&#45;&gt;Node3</title>
<path fill="none" stroke="midnightblue" d="M1260.55,-726.048C1003.36,-715.99 76,-675.558 76,-615.5 76,-615.5 76,-615.5 76,-283.5 76,-181.791 443.967,-135.74 559.634,-123.776"/>
<polygon fill="midnightblue" stroke="midnightblue" points="560.115,-127.246 569.711,-122.755 559.409,-120.281 560.115,-127.246"/>
</g>
<!-- Node21 -->
<g id="node21" class="node"><title>Node21</title>
<polygon fill="white" stroke="#bfbfbf" points="1306.16,-110.5 1306.16,-128.5 1353.84,-128.5 1353.84,-110.5 1306.16,-110.5"/>
<text text-anchor="middle" x="1330" y="-116.5" font-family="Helvetica,sans-Serif" font-size="10.00">stdlib.h</text>
</g>
<!-- Node1&#45;&gt;Node21 -->
<g id="edge83" class="edge"><title>Node1&#45;&gt;Node21</title>
<path fill="none" stroke="midnightblue" d="M1287.76,-715.352C1271.21,-707.537 1253.48,-695.798 1244,-679 1239.85,-671.646 1242.48,-668.306 1244,-660 1271.34,-510.639 1365,-492.342 1365,-340.5 1365,-340.5 1365,-340.5 1365,-228.5 1365,-195.115 1349.68,-158.628 1339.31,-137.759"/>
<polygon fill="midnightblue" stroke="midnightblue" points="1342.28,-135.883 1334.58,-128.609 1336.06,-139.1 1342.28,-135.883"/>
</g>
<!-- Node30 -->
<g id="node30" class="node"><title>Node30</title>
<g id="a_node30"><a xlink:href="$Linux_2GPIO_8h.html" xlink:title="GPIO.h">
<polygon fill="white" stroke="black" points="877.328,-660.5 877.328,-678.5 926.672,-678.5 926.672,-660.5 877.328,-660.5"/>
<text text-anchor="middle" x="902" y="-666.5" font-family="Helvetica,sans-Serif" font-size="10.00">GPIO.h</text>
</a>
</g>
</g>
<!-- Node1&#45;&gt;Node30 -->
<g id="edge68" class="edge"><title>Node1&#45;&gt;Node30</title>
<path fill="none" stroke="midnightblue" d="M1260.68,-719.565C1169.65,-707.112 1007.84,-684.978 936.93,-675.278"/>
<polygon fill="midnightblue" stroke="midnightblue" points="937.132,-671.773 926.75,-673.886 936.184,-678.709 937.132,-671.773"/>
</g>
<!-- Node35 -->
<g id="node35" class="node"><title>Node35</title>
<g id="a_node35"><a xlink:href="$RCOutput__PCA9685_8h.html" xlink:title="RCOutput_PCA9685.h">
<polygon fill="white" stroke="black" points="1092.41,-605.5 1092.41,-623.5 1209.59,-623.5 1209.59,-605.5 1092.41,-605.5"/>
<text text-anchor="middle" x="1151" y="-611.5" font-family="Helvetica,sans-Serif" font-size="10.00">RCOutput_PCA9685.h</text>
</a>
</g>
</g>
<!-- Node1&#45;&gt;Node35 -->
<g id="edge76" class="edge"><title>Node1&#45;&gt;Node35</title>
<path fill="none" stroke="midnightblue" d="M1284.79,-715.409C1261.88,-707.025 1233.54,-694.754 1211,-679 1192.03,-665.741 1174.36,-645.73 1163.18,-631.726"/>
<polygon fill="midnightblue" stroke="midnightblue" points="1165.71,-629.28 1156.82,-623.521 1160.18,-633.569 1165.71,-629.28"/>
</g>
<!-- Node36 -->
<g id="node36" class="node"><title>Node36</title>
<polygon fill="white" stroke="#bfbfbf" points="1252.99,-660.5 1252.99,-678.5 1319.01,-678.5 1319.01,-660.5 1252.99,-660.5"/>
<text text-anchor="middle" x="1286" y="-666.5" font-family="Helvetica,sans-Serif" font-size="10.00">sys/types.h</text>
</g>
<!-- Node1&#45;&gt;Node36 -->
<g id="edge78" class="edge"><title>Node1&#45;&gt;Node36</title>
<path fill="none" stroke="midnightblue" d="M1316.92,-715.339C1311.18,-707.004 1303.69,-696.151 1297.52,-687.211"/>
<polygon fill="midnightblue" stroke="midnightblue" points="1300.26,-685.017 1291.7,-678.771 1294.5,-688.991 1300.26,-685.017"/>
</g>
<!-- Node37 -->
<g id="node37" class="node"><title>Node37</title>
<polygon fill="white" stroke="#bfbfbf" points="1336.88,-660.5 1336.88,-678.5 1395.12,-678.5 1395.12,-660.5 1336.88,-660.5"/>
<text text-anchor="middle" x="1366" y="-666.5" font-family="Helvetica,sans-Serif" font-size="10.00">sys/stat.h</text>
</g>
<!-- Node1&#45;&gt;Node37 -->
<g id="edge79" class="edge"><title>Node1&#45;&gt;Node37</title>
<path fill="none" stroke="midnightblue" d="M1335.08,-715.339C1340.82,-707.004 1348.31,-696.151 1354.48,-687.211"/>
<polygon fill="midnightblue" stroke="midnightblue" points="1357.5,-688.991 1360.3,-678.771 1351.74,-685.017 1357.5,-688.991"/>
</g>
<!-- Node38 -->
<g id="node38" class="node"><title>Node38</title>
<polygon fill="white" stroke="#bfbfbf" points="1412.66,-660.5 1412.66,-678.5 1455.34,-678.5 1455.34,-660.5 1412.66,-660.5"/>
<text text-anchor="middle" x="1434" y="-666.5" font-family="Helvetica,sans-Serif" font-size="10.00">fcntl.h</text>
</g>
<!-- Node1&#45;&gt;Node38 -->
<g id="edge80" class="edge"><title>Node1&#45;&gt;Node38</title>
<path fill="none" stroke="midnightblue" d="M1350.24,-715.484C1367.97,-705.959 1391.94,-693.088 1409.69,-683.554"/>
<polygon fill="midnightblue" stroke="midnightblue" points="1411.68,-686.458 1418.84,-678.643 1408.37,-680.291 1411.68,-686.458"/>
</g>
<!-- Node39 -->
<g id="node39" class="node"><title>Node39</title>
<polygon fill="white" stroke="#bfbfbf" points="1473.49,-660.5 1473.49,-678.5 1524.51,-678.5 1524.51,-660.5 1473.49,-660.5"/>
<text text-anchor="middle" x="1499" y="-666.5" font-family="Helvetica,sans-Serif" font-size="10.00">unistd.h</text>
</g>
<!-- Node1&#45;&gt;Node39 -->
<g id="edge81" class="edge"><title>Node1&#45;&gt;Node39</title>
<path fill="none" stroke="midnightblue" d="M1364.82,-715.484C1395.03,-705.356 1436.53,-691.445 1465.34,-681.785"/>
<polygon fill="midnightblue" stroke="midnightblue" points="1466.59,-685.056 1474.96,-678.559 1464.37,-678.419 1466.59,-685.056"/>
</g>
<!-- Node40 -->
<g id="node40" class="node"><title>Node40</title>
<polygon fill="white" stroke="#bfbfbf" points="1542.32,-660.5 1542.32,-678.5 1591.68,-678.5 1591.68,-660.5 1542.32,-660.5"/>
<text text-anchor="middle" x="1567" y="-666.5" font-family="Helvetica,sans-Serif" font-size="10.00">dirent.h</text>
</g>
<!-- Node1&#45;&gt;Node40 -->
<g id="edge82" class="edge"><title>Node1&#45;&gt;Node40</title>
<path fill="none" stroke="midnightblue" d="M1382.13,-715.439C1421.73,-706.154 1476.29,-693.228 1532.4,-679.368"/>
<polygon fill="midnightblue" stroke="midnightblue" points="1533.28,-682.755 1542.15,-676.954 1531.6,-675.96 1533.28,-682.755"/>
</g>
<!-- Node41 -->
<g id="node41" class="node"><title>Node41</title>
<polygon fill="white" stroke="#bfbfbf" points="1609.27,-660.5 1609.27,-678.5 1654.73,-678.5 1654.73,-660.5 1609.27,-660.5"/>
<text text-anchor="middle" x="1632" y="-666.5" font-family="Helvetica,sans-Serif" font-size="10.00">stdio.h</text>
</g>
<!-- Node1&#45;&gt;Node41 -->
<g id="edge84" class="edge"><title>Node1&#45;&gt;Node41</title>
<path fill="none" stroke="midnightblue" d="M1391.34,-718.43C1444.98,-709.777 1523.07,-696.298 1599.27,-679.25"/>
<polygon fill="midnightblue" stroke="midnightblue" points="1600.05,-682.662 1609.03,-677.043 1598.51,-675.834 1600.05,-682.662"/>
</g>
<!-- Node42 -->
<g id="node42" class="node"><title>Node42</title>
<polygon fill="white" stroke="#bfbfbf" points="1672.71,-660.5 1672.71,-678.5 1719.29,-678.5 1719.29,-660.5 1672.71,-660.5"/>
<text text-anchor="middle" x="1696" y="-666.5" font-family="Helvetica,sans-Serif" font-size="10.00">math.h</text>
</g>
<!-- Node1&#45;&gt;Node42 -->
<g id="edge86" class="edge"><title>Node1&#45;&gt;Node42</title>
<path fill="none" stroke="midnightblue" d="M1391.5,-721.158C1457.67,-713.233 1562.98,-699.234 1662.71,-679.066"/>
<polygon fill="midnightblue" stroke="midnightblue" points="1663.56,-682.465 1672.65,-677.031 1662.16,-675.607 1663.56,-682.465"/>
</g>
<!-- Node2&#45;&gt;Node3 -->
<g id="edge2" class="edge"><title>Node2&#45;&gt;Node3</title>
<path fill="none" stroke="midnightblue" d="M681.807,-440.372C680.881,-410.317 675.709,-302.926 648,-220 637.61,-188.903 617.831,-156.084 605.312,-136.991"/>
<polygon fill="midnightblue" stroke="midnightblue" points="608.141,-134.926 599.668,-128.564 602.324,-138.821 608.141,-134.926"/>
</g>
<!-- Node4 -->
<g id="node4" class="node"><title>Node4</title>
<polygon fill="white" stroke="#bfbfbf" points="1196.71,-110.5 1196.71,-128.5 1253.29,-128.5 1253.29,-110.5 1196.71,-110.5"/>
<text text-anchor="middle" x="1225" y="-116.5" font-family="Helvetica,sans-Serif" font-size="10.00">stdbool.h</text>
</g>
<!-- Node2&#45;&gt;Node4 -->
<g id="edge3" class="edge"><title>Node2&#45;&gt;Node4</title>
<path fill="none" stroke="midnightblue" d="M734.067,-441.129C737.426,-440.725 740.759,-440.345 744,-440 954.529,-417.611 1016.96,-467.291 1219,-404 1272.14,-387.354 1327,-396.182 1327,-340.5 1327,-340.5 1327,-340.5 1327,-228.5 1327,-184.092 1280.86,-150.563 1250.64,-133.369"/>
<polygon fill="midnightblue" stroke="midnightblue" points="1252.3,-130.286 1241.84,-128.563 1248.94,-136.429 1252.3,-130.286"/>
</g>
<!-- Node5 -->
<g id="node5" class="node"><title>Node5</title>
<g id="a_node5"><a xlink:href="$AP__HAL__Namespace_8h.html" xlink:title="AP_HAL_Namespace.h">
<polygon fill="white" stroke="black" points="300.192,-55.5 300.192,-73.5 421.808,-73.5 421.808,-55.5 300.192,-55.5"/>
<text text-anchor="middle" x="361" y="-61.5" font-family="Helvetica,sans-Serif" font-size="10.00">AP_HAL_Namespace.h</text>
</a>
</g>
</g>
<!-- Node2&#45;&gt;Node5 -->
<g id="edge4" class="edge"><title>Node2&#45;&gt;Node5</title>
<path fill="none" stroke="midnightblue" d="M629.899,-445.737C470.471,-436.596 0,-404.223 0,-340.5 0,-340.5 0,-340.5 0,-173.5 0,-113.593 184.776,-84.1256 289.938,-72.206"/>
<polygon fill="midnightblue" stroke="midnightblue" points="290.615,-75.6525 300.169,-71.0731 289.845,-68.695 290.615,-75.6525"/>
</g>
<!-- Node8 -->
<g id="node8" class="node"><title>Node8</title>
<g id="a_node8"><a xlink:href="$AP__HAL__Boards_8h.html" xlink:title="AP_HAL_Boards.h">
<polygon fill="white" stroke="black" points="1161.03,-165.5 1161.03,-183.5 1260.97,-183.5 1260.97,-165.5 1161.03,-165.5"/>
<text text-anchor="middle" x="1211" y="-171.5" font-family="Helvetica,sans-Serif" font-size="10.00">AP_HAL_Boards.h</text>
</a>
</g>
</g>
<!-- Node2&#45;&gt;Node8 -->
<g id="edge7" class="edge"><title>Node2&#45;&gt;Node8</title>
<path fill="none" stroke="midnightblue" d="M734.07,-441.154C737.428,-440.744 740.76,-440.355 744,-440 840.859,-429.379 1091.09,-441.558 1181,-404 1220.99,-387.296 1255,-383.838 1255,-340.5 1255,-340.5 1255,-340.5 1255,-283.5 1255,-249.068 1235.58,-212.721 1222.55,-192.199"/>
<polygon fill="midnightblue" stroke="midnightblue" points="1225.37,-190.122 1216.93,-183.71 1219.53,-193.982 1225.37,-190.122"/>
</g>
<!-- Node9 -->
<g id="node9" class="node"><title>Node9</title>
<g id="a_node9"><a xlink:href="$AP__HAL__Macros_8h.html" xlink:title="AP_HAL_Macros.h">
<polygon fill="white" stroke="black" points="1049.48,-385.5 1049.48,-403.5 1150.52,-403.5 1150.52,-385.5 1049.48,-385.5"/>
<text text-anchor="middle" x="1100" y="-391.5" font-family="Helvetica,sans-Serif" font-size="10.00">AP_HAL_Macros.h</text>
</a>
</g>
</g>
<!-- Node2&#45;&gt;Node9 -->
<g id="edge8" class="edge"><title>Node2&#45;&gt;Node9</title>
<path fill="none" stroke="midnightblue" d="M734.089,-441.308C737.442,-440.861 740.768,-440.421 744,-440 873.225,-423.149 905.723,-420.449 1035,-404 1036.3,-403.834 1037.62,-403.666 1038.95,-403.497"/>
<polygon fill="midnightblue" stroke="midnightblue" points="1039.79,-406.917 1049.26,-402.17 1038.9,-399.974 1039.79,-406.917"/>
</g>
<!-- Node10 -->
<g id="node10" class="node"><title>Node10</title>
<g id="a_node10"><a xlink:href="$AP__HAL__Main_8h.html" xlink:title="AP_HAL_Main.h">
<polygon fill="white" stroke="black" points="487.035,-385.5 487.035,-403.5 576.965,-403.5 576.965,-385.5 487.035,-385.5"/>
<text text-anchor="middle" x="532" y="-391.5" font-family="Helvetica,sans-Serif" font-size="10.00">AP_HAL_Main.h</text>
</a>
</g>
</g>
<!-- Node2&#45;&gt;Node10 -->
<g id="edge9" class="edge"><title>Node2&#45;&gt;Node10</title>
<path fill="none" stroke="midnightblue" d="M659.218,-440.45C633.998,-431.539 593.14,-417.103 564.551,-407.001"/>
<polygon fill="midnightblue" stroke="midnightblue" points="565.591,-403.657 554.996,-403.625 563.259,-410.257 565.591,-403.657"/>
</g>
<!-- Node11 -->
<g id="node11" class="node"><title>Node11</title>
<g id="a_node11"><a xlink:href="$HAL_8h.html" xlink:title="HAL.h">
<polygon fill="white" stroke="black" points="488.104,-330.5 488.104,-348.5 531.896,-348.5 531.896,-330.5 488.104,-330.5"/>
<text text-anchor="middle" x="510" y="-336.5" font-family="Helvetica,sans-Serif" font-size="10.00">HAL.h</text>
</a>
</g>
</g>
<!-- Node2&#45;&gt;Node11 -->
<g id="edge67" class="edge"><title>Node2&#45;&gt;Node11</title>
<path fill="none" stroke="midnightblue" d="M629.614,-444.409C575.602,-438.974 496.701,-427.221 478,-404 466.09,-389.212 480.043,-369.271 493.081,-355.707"/>
<polygon fill="midnightblue" stroke="midnightblue" points="495.718,-358.025 500.449,-348.545 490.839,-353.006 495.718,-358.025"/>
</g>
<!-- Node12 -->
<g id="node12" class="node"><title>Node12</title>
<g id="a_node12"><a xlink:href="$AnalogIn_8h.html" xlink:title="AnalogIn.h">
<polygon fill="white" stroke="black" points="575.091,-220.5 575.091,-238.5 638.909,-238.5 638.909,-220.5 575.091,-220.5"/>
<text text-anchor="middle" x="607" y="-226.5" font-family="Helvetica,sans-Serif" font-size="10.00">AnalogIn.h</text>
</a>
</g>
</g>
<!-- Node2&#45;&gt;Node12 -->
<g id="edge49" class="edge"><title>Node2&#45;&gt;Node12</title>
<path fill="none" stroke="midnightblue" d="M679.242,-440.483C668.402,-408.974 628.565,-293.181 613.149,-248.372"/>
<polygon fill="midnightblue" stroke="midnightblue" points="616.426,-247.14 609.863,-238.823 609.807,-249.418 616.426,-247.14"/>
</g>
<!-- Node14 -->
<g id="node14" class="node"><title>Node14</title>
<g id="a_node14"><a xlink:href="$GPIO_8h.html" xlink:title="GPIO.h">
<polygon fill="white" stroke="black" points="507.328,-220.5 507.328,-238.5 556.672,-238.5 556.672,-220.5 507.328,-220.5"/>
<text text-anchor="middle" x="532" y="-226.5" font-family="Helvetica,sans-Serif" font-size="10.00">GPIO.h</text>
</a>
</g>
</g>
<!-- Node2&#45;&gt;Node14 -->
<g id="edge51" class="edge"><title>Node2&#45;&gt;Node14</title>
<path fill="none" stroke="midnightblue" d="M676.484,-440.483C654.62,-408.708 573.777,-291.217 543.526,-247.251"/>
<polygon fill="midnightblue" stroke="midnightblue" points="546.279,-245.077 537.727,-238.823 540.512,-249.045 546.279,-245.077"/>
</g>
<!-- Node15 -->
<g id="node15" class="node"><title>Node15</title>
<g id="a_node15"><a xlink:href="$RCInput_8h.html" xlink:title="RCInput.h">
<polygon fill="white" stroke="black" points="247.488,-275.5 247.488,-293.5 308.512,-293.5 308.512,-275.5 247.488,-275.5"/>
<text text-anchor="middle" x="278" y="-281.5" font-family="Helvetica,sans-Serif" font-size="10.00">RCInput.h</text>
</a>
</g>
</g>
<!-- Node2&#45;&gt;Node15 -->
<g id="edge52" class="edge"><title>Node2&#45;&gt;Node15</title>
<path fill="none" stroke="midnightblue" d="M629.996,-448.474C542.194,-447.403 369.557,-440.553 323,-404 291.789,-379.496 282.22,-330.72 279.29,-304.022"/>
<polygon fill="midnightblue" stroke="midnightblue" points="282.75,-303.42 278.377,-293.77 275.778,-304.042 282.75,-303.42"/>
</g>
<!-- Node16 -->
<g id="node16" class="node"><title>Node16</title>
<g id="a_node16"><a xlink:href="$RCOutput_8h.html" xlink:title="RCOutput.h">
<polygon fill="white" stroke="black" points="842.599,-275.5 842.599,-293.5 911.401,-293.5 911.401,-275.5 842.599,-275.5"/>
<text text-anchor="middle" x="877" y="-281.5" font-family="Helvetica,sans-Serif" font-size="10.00">RCOutput.h</text>
</a>
</g>
</g>
<!-- Node2&#45;&gt;Node16 -->
<g id="edge53" class="edge"><title>Node2&#45;&gt;Node16</title>
<path fill="none" stroke="midnightblue" d="M721.866,-440.488C759.763,-432.17 813.246,-418.383 829,-404 858.415,-377.144 870.177,-329.714 874.581,-303.748"/>
<polygon fill="midnightblue" stroke="midnightblue" points="878.056,-304.177 876.087,-293.767 871.134,-303.134 878.056,-304.177"/>
</g>
<!-- Node17 -->
<g id="node17" class="node"><title>Node17</title>
<g id="a_node17"><a xlink:href="$SPIDriver_8h.html" xlink:title="SPIDriver.h">
<polygon fill="white" stroke="black" points="162.712,-275.5 162.712,-293.5 229.288,-293.5 229.288,-275.5 162.712,-275.5"/>
<text text-anchor="middle" x="196" y="-281.5" font-family="Helvetica,sans-Serif" font-size="10.00">SPIDriver.h</text>
</a>
</g>
</g>
<!-- Node2&#45;&gt;Node17 -->
<g id="edge48" class="edge"><title>Node2&#45;&gt;Node17</title>
<path fill="none" stroke="midnightblue" d="M629.855,-446.881C539.65,-443.345 358.777,-432.798 303,-404 257.574,-380.546 222.064,-329.378 205.76,-302.604"/>
<polygon fill="midnightblue" stroke="midnightblue" points="208.569,-300.478 200.471,-293.646 202.541,-304.037 208.569,-300.478"/>
</g>
<!-- Node18 -->
<g id="node18" class="node"><title>Node18</title>
<g id="a_node18"><a xlink:href="$Storage_8h.html" xlink:title="Storage.h">
<polygon fill="white" stroke="black" points="403.318,-275.5 403.318,-293.5 462.682,-293.5 462.682,-275.5 403.318,-275.5"/>
<text text-anchor="middle" x="433" y="-281.5" font-family="Helvetica,sans-Serif" font-size="10.00">Storage.h</text>
</a>
</g>
</g>
<!-- Node2&#45;&gt;Node18 -->
<g id="edge50" class="edge"><title>Node2&#45;&gt;Node18</title>
<path fill="none" stroke="midnightblue" d="M629.885,-443.594C574.889,-437.395 493.033,-424.927 470,-404 441.236,-377.866 434.636,-329.757 433.248,-303.595"/>
<polygon fill="midnightblue" stroke="midnightblue" points="436.745,-303.445 432.919,-293.565 429.748,-303.674 436.745,-303.445"/>
</g>
<!-- Node19 -->
<g id="node19" class="node"><title>Node19</title>
<g id="a_node19"><a xlink:href="$UARTDriver_8h.html" xlink:title="UARTDriver.h">
<polygon fill="white" stroke="black" points="709.248,-275.5 709.248,-293.5 786.752,-293.5 786.752,-275.5 709.248,-275.5"/>
<text text-anchor="middle" x="748" y="-281.5" font-family="Helvetica,sans-Serif" font-size="10.00">UARTDriver.h</text>
</a>
</g>
</g>
<!-- Node2&#45;&gt;Node19 -->
<g id="edge44" class="edge"><title>Node2&#45;&gt;Node19</title>
<path fill="none" stroke="midnightblue" d="M685.364,-440.193C695.648,-414.794 726.827,-337.791 740.934,-302.952"/>
<polygon fill="midnightblue" stroke="midnightblue" points="744.212,-304.18 744.721,-293.597 737.724,-301.553 744.212,-304.18"/>
</g>
<!-- Node22 -->
<g id="node22" class="node"><title>Node22</title>
<g id="a_node22"><a xlink:href="$BetterStream_8h.html" xlink:title="utility/BetterStream.h">
<polygon fill="white" stroke="black" points="770.594,-220.5 770.594,-238.5 879.406,-238.5 879.406,-220.5 770.594,-220.5"/>
<text text-anchor="middle" x="825" y="-226.5" font-family="Helvetica,sans-Serif" font-size="10.00">utility/BetterStream.h</text>
</a>
</g>
</g>
<!-- Node2&#45;&gt;Node22 -->
<g id="edge66" class="edge"><title>Node2&#45;&gt;Node22</title>
<path fill="none" stroke="midnightblue" d="M688.793,-440.422C696.151,-431.598 708.157,-416.989 718,-404 754.199,-356.234 766.085,-345.933 796,-294 804.601,-279.068 812.594,-261.134 818.001,-248.139"/>
<polygon fill="midnightblue" stroke="midnightblue" points="821.372,-249.141 821.891,-238.559 814.886,-246.507 821.372,-249.141"/>
</g>
<!-- Node24 -->
<g id="node24" class="node"><title>Node24</title>
<g id="a_node24"><a xlink:href="$Stream_8h.html" xlink:title="Stream.h">
<polygon fill="white" stroke="black" points="884.714,-165.5 884.714,-183.5 941.286,-183.5 941.286,-165.5 884.714,-165.5"/>
<text text-anchor="middle" x="913" y="-171.5" font-family="Helvetica,sans-Serif" font-size="10.00">Stream.h</text>
</a>
</g>
</g>
<!-- Node2&#45;&gt;Node24 -->
<g id="edge65" class="edge"><title>Node2&#45;&gt;Node24</title>
<path fill="none" stroke="midnightblue" d="M734.087,-440.791C820.237,-426.56 983,-392.757 983,-340.5 983,-340.5 983,-340.5 983,-283.5 983,-245.035 951.346,-209.465 930.61,-190.29"/>
<polygon fill="midnightblue" stroke="midnightblue" points="932.829,-187.579 923.029,-183.552 928.179,-192.811 932.829,-187.579"/>
</g>
<!-- Node25 -->
<g id="node25" class="node"><title>Node25</title>
<g id="a_node25"><a xlink:href="$Print_8h.html" xlink:title="Print.h">
<polygon fill="white" stroke="black" points="1064.55,-110.5 1064.55,-128.5 1109.45,-128.5 1109.45,-110.5 1064.55,-110.5"/>
<text text-anchor="middle" x="1087" y="-116.5" font-family="Helvetica,sans-Serif" font-size="10.00">Print.h</text>
</a>
</g>
</g>
<!-- Node2&#45;&gt;Node25 -->
<g id="edge64" class="edge"><title>Node2&#45;&gt;Node25</title>
<path fill="none" stroke="midnightblue" d="M733.053,-440.488C800.496,-429.732 912.902,-411.15 931,-404 1098.05,-338.004 1184.27,-341.834 1270,-184 1274.03,-176.58 1275.22,-171.639 1270,-165 1251.64,-141.638 1167.11,-129.018 1119.62,-123.663"/>
<polygon fill="midnightblue" stroke="midnightblue" points="1119.84,-120.167 1109.52,-122.571 1119.09,-127.126 1119.84,-120.167"/>
</g>
<!-- Node26 -->
<g id="node26" class="node"><title>Node26</title>
<g id="a_node26"><a xlink:href="$I2CDriver_8h.html" xlink:title="I2CDriver.h">
<polygon fill="white" stroke="black" points="388.99,-165.5 388.99,-183.5 455.01,-183.5 455.01,-165.5 388.99,-165.5"/>
<text text-anchor="middle" x="422" y="-171.5" font-family="Helvetica,sans-Serif" font-size="10.00">I2CDriver.h</text>
</a>
</g>
</g>
<!-- Node2&#45;&gt;Node26 -->
<g id="edge45" class="edge"><title>Node2&#45;&gt;Node26</title>
<path fill="none" stroke="midnightblue" d="M629.976,-443.145C533.598,-431.773 337,-401.144 337,-340.5 337,-340.5 337,-340.5 337,-283.5 337,-254.042 338.546,-243.731 356,-220 365.913,-206.522 381.21,-195.84 394.582,-188.324"/>
<polygon fill="midnightblue" stroke="midnightblue" points="396.244,-191.404 403.442,-183.63 392.967,-185.218 396.244,-191.404"/>
</g>
<!-- Node27 -->
<g id="node27" class="node"><title>Node27</title>
<g id="a_node27"><a xlink:href="$Scheduler_8h.html" xlink:title="Scheduler.h">
<polygon fill="white" stroke="black" points="1098.59,-220.5 1098.59,-238.5 1167.41,-238.5 1167.41,-220.5 1098.59,-220.5"/>
<text text-anchor="middle" x="1133" y="-226.5" font-family="Helvetica,sans-Serif" font-size="10.00">Scheduler.h</text>
</a>
</g>
</g>
<!-- Node2&#45;&gt;Node27 -->
<g id="edge54" class="edge"><title>Node2&#45;&gt;Node27</title>
<path fill="none" stroke="midnightblue" d="M734.072,-441.169C737.429,-440.756 740.761,-440.362 744,-440 790.108,-434.848 1128.64,-438.191 1160,-404 1200.32,-360.039 1163.22,-281.91 1143.51,-247.535"/>
<polygon fill="midnightblue" stroke="midnightblue" points="1146.38,-245.52 1138.26,-238.709 1140.36,-249.094 1146.38,-245.52"/>
</g>
<!-- Node28 -->
<g id="node28" class="node"><title>Node28</title>
<g id="a_node28"><a xlink:href="$Semaphores_8h.html" xlink:title="Semaphores.h">
<polygon fill="white" stroke="black" points="125.48,-330.5 125.48,-348.5 206.52,-348.5 206.52,-330.5 125.48,-330.5"/>
<text text-anchor="middle" x="166" y="-336.5" font-family="Helvetica,sans-Serif" font-size="10.00">Semaphores.h</text>
</a>
</g>
</g>
<!-- Node2&#45;&gt;Node28 -->
<g id="edge59" class="edge"><title>Node2&#45;&gt;Node28</title>
<path fill="none" stroke="midnightblue" d="M630.007,-447.84C526.341,-445.808 297.881,-437.543 228,-404 206.374,-393.62 188.121,-372.379 177.137,-357.327"/>
<polygon fill="midnightblue" stroke="midnightblue" points="179.86,-355.113 171.272,-348.908 174.116,-359.114 179.86,-355.113"/>
</g>
<!-- Node29 -->
<g id="node29" class="node"><title>Node29</title>
<g id="a_node29"><a xlink:href="$Util_8h.html" xlink:title="Util.h">
<polygon fill="white" stroke="black" points="364.608,-220.5 364.608,-238.5 403.392,-238.5 403.392,-220.5 364.608,-220.5"/>
<text text-anchor="middle" x="384" y="-226.5" font-family="Helvetica,sans-Serif" font-size="10.00">Util.h</text>
</a>
</g>
</g>
<!-- Node2&#45;&gt;Node29 -->
<g id="edge61" class="edge"><title>Node2&#45;&gt;Node29</title>
<path fill="none" stroke="midnightblue" d="M629.927,-443.67C570.995,-437.312 479.6,-424.478 452,-404 401.36,-366.427 388.413,-285.496 385.118,-249.008"/>
<polygon fill="midnightblue" stroke="midnightblue" points="388.593,-248.543 384.351,-238.834 381.612,-249.069 388.593,-248.543"/>
</g>
<!-- Node6 -->
<g id="node6" class="node"><title>Node6</title>
<polygon fill="white" stroke="#bfbfbf" points="718.604,-0.5 718.604,-18.5 767.396,-18.5 767.396,-0.5 718.604,-0.5"/>
<text text-anchor="middle" x="743" y="-6.5" font-family="Helvetica,sans-Serif" font-size="10.00">string.h</text>
</g>
<!-- Node5&#45;&gt;Node6 -->
<g id="edge5" class="edge"><title>Node5&#45;&gt;Node6</title>
<path fill="none" stroke="midnightblue" d="M419.018,-55.4504C499.486,-44.286 642.471,-24.4478 708.195,-15.3289"/>
<polygon fill="midnightblue" stroke="midnightblue" points="709.005,-18.7501 718.429,-13.909 708.043,-11.8166 709.005,-18.7501"/>
</g>
<!-- Node7 -->
<g id="node7" class="node"><title>Node7</title>
<g id="a_node7"><a xlink:href="$functor_8h.html" xlink:title="utility/functor.h">
<polygon fill="white" stroke="black" points="321.037,-0.5 321.037,-18.5 400.963,-18.5 400.963,-0.5 321.037,-0.5"/>
<text text-anchor="middle" x="361" y="-6.5" font-family="Helvetica,sans-Serif" font-size="10.00">utility/functor.h</text>
</a>
</g>
</g>
<!-- Node5&#45;&gt;Node7 -->
<g id="edge6" class="edge"><title>Node5&#45;&gt;Node7</title>
<path fill="none" stroke="midnightblue" d="M361,-55.2188C361,-48.1769 361,-37.8083 361,-28.8277"/>
<polygon fill="midnightblue" stroke="midnightblue" points="364.5,-28.5495 361,-18.5496 357.5,-28.5496 364.5,-28.5495"/>
</g>
<!-- Node10&#45;&gt;Node11 -->
<g id="edge10" class="edge"><title>Node10&#45;&gt;Node11</title>
<path fill="none" stroke="midnightblue" d="M528.562,-385.219C525.542,-377.942 521.047,-367.113 517.237,-357.934"/>
<polygon fill="midnightblue" stroke="midnightblue" points="520.408,-356.444 513.341,-348.55 513.943,-359.127 520.408,-356.444"/>
</g>
<!-- Node11&#45;&gt;Node5 -->
<g id="edge11" class="edge"><title>Node11&#45;&gt;Node5</title>
<path fill="none" stroke="midnightblue" d="M506.014,-330.192C499.749,-317.572 486.776,-293.122 472,-275 449.139,-246.964 442.067,-240.116 412,-220 380.601,-198.993 355.858,-215.498 335,-184 316.835,-156.568 323.882,-141.612 333,-110 335.941,-99.8046 341.984,-89.6924 347.707,-81.6902"/>
<polygon fill="midnightblue" stroke="midnightblue" points="350.553,-83.7296 353.848,-73.6601 344.993,-79.4771 350.553,-83.7296"/>
</g>
<!-- Node11&#45;&gt;Node12 -->
<g id="edge12" class="edge"><title>Node11&#45;&gt;Node12</title>
<path fill="none" stroke="midnightblue" d="M517.291,-330.382C533.301,-312.557 571.772,-269.723 592.758,-246.357"/>
<polygon fill="midnightblue" stroke="midnightblue" points="595.547,-248.49 599.625,-238.712 590.339,-243.813 595.547,-248.49"/>
</g>
<!-- Node11&#45;&gt;Node14 -->
<g id="edge15" class="edge"><title>Node11&#45;&gt;Node14</title>
<path fill="none" stroke="midnightblue" d="M511.654,-330.382C515.173,-313.104 523.479,-272.329 528.321,-248.563"/>
<polygon fill="midnightblue" stroke="midnightblue" points="531.761,-249.209 530.327,-238.712 524.902,-247.812 531.761,-249.209"/>
</g>
<!-- Node11&#45;&gt;Node15 -->
<g id="edge18" class="edge"><title>Node11&#45;&gt;Node15</title>
<path fill="none" stroke="midnightblue" d="M487.755,-333.418C448.79,-324.517 367.672,-305.985 318.516,-294.756"/>
<polygon fill="midnightblue" stroke="midnightblue" points="319.067,-291.292 308.539,-292.477 317.508,-298.116 319.067,-291.292"/>
</g>
<!-- Node11&#45;&gt;Node16 -->
<g id="edge20" class="edge"><title>Node11&#45;&gt;Node16</title>
<path fill="none" stroke="midnightblue" d="M532.131,-335.304C591.16,-326.779 753.228,-303.374 832.356,-291.947"/>
<polygon fill="midnightblue" stroke="midnightblue" points="833.098,-295.376 842.495,-290.483 832.098,-288.448 833.098,-295.376"/>
</g>
<!-- Node11&#45;&gt;Node17 -->
<g id="edge22" class="edge"><title>Node11&#45;&gt;Node17</title>
<path fill="none" stroke="midnightblue" d="M488.093,-335.201C443.35,-328.404 338.031,-312.093 239.567,-294.232"/>
<polygon fill="midnightblue" stroke="midnightblue" points="239.915,-290.738 229.449,-292.387 238.658,-297.625 239.915,-290.738"/>
</g>
<!-- Node11&#45;&gt;Node18 -->
<g id="edge24" class="edge"><title>Node11&#45;&gt;Node18</title>
<path fill="none" stroke="midnightblue" d="M498.305,-330.45C486.32,-322.201 467.455,-309.216 453.076,-299.319"/>
<polygon fill="midnightblue" stroke="midnightblue" points="455.026,-296.412 444.805,-293.625 451.058,-302.178 455.026,-296.412"/>
</g>
<!-- Node11&#45;&gt;Node19 -->
<g id="edge27" class="edge"><title>Node11&#45;&gt;Node19</title>
<path fill="none" stroke="midnightblue" d="M531.964,-333.609C570.478,-325.032 650.954,-307.111 702.074,-295.727"/>
<polygon fill="midnightblue" stroke="midnightblue" points="702.885,-299.132 711.885,-293.542 701.364,-292.3 702.885,-299.132"/>
</g>
<!-- Node12&#45;&gt;Node5 -->
<g id="edge14" class="edge"><title>Node12&#45;&gt;Node5</title>
<path fill="none" stroke="midnightblue" d="M574.779,-221.778C571.812,-221.172 568.851,-220.571 566,-220 483.441,-203.453 438.573,-244.49 380,-184 353.991,-157.14 355.109,-109.711 358.104,-83.7471"/>
<polygon fill="midnightblue" stroke="midnightblue" points="361.581,-84.15 359.474,-73.7667 354.646,-83.1974 361.581,-84.15"/>
</g>
<!-- Node13 -->
<g id="node13" class="node"><title>Node13</title>
<polygon fill="white" stroke="#bfbfbf" points="870.599,-55.5 870.599,-73.5 929.401,-73.5 929.401,-55.5 870.599,-55.5"/>
<text text-anchor="middle" x="900" y="-61.5" font-family="Helvetica,sans-Serif" font-size="10.00">inttypes.h</text>
</g>
<!-- Node12&#45;&gt;Node13 -->
<g id="edge13" class="edge"><title>Node12&#45;&gt;Node13</title>
<path fill="none" stroke="midnightblue" d="M621.53,-220.417C668.783,-194.129 818.391,-110.9 876.552,-78.5442"/>
<polygon fill="midnightblue" stroke="midnightblue" points="878.345,-81.5521 885.382,-73.632 874.942,-75.435 878.345,-81.5521"/>
</g>
<!-- Node14&#45;&gt;Node3 -->
<g id="edge16" class="edge"><title>Node14&#45;&gt;Node3</title>
<path fill="none" stroke="midnightblue" d="M531.173,-220.09C530.316,-207.336 530.244,-182.714 540,-165 547.029,-152.238 559.325,-141.666 570.409,-134.034"/>
<polygon fill="midnightblue" stroke="midnightblue" points="572.402,-136.914 578.915,-128.557 568.613,-131.028 572.402,-136.914"/>
</g>
<!-- Node14&#45;&gt;Node5 -->
<g id="edge17" class="edge"><title>Node14&#45;&gt;Node5</title>
<path fill="none" stroke="midnightblue" d="M507.132,-226.254C461.368,-221.551 366.679,-208.974 347,-184 323.899,-154.683 340.25,-107.934 351.963,-82.8132"/>
<polygon fill="midnightblue" stroke="midnightblue" points="355.142,-84.2806 356.425,-73.7637 348.864,-81.185 355.142,-84.2806"/>
</g>
<!-- Node15&#45;&gt;Node5 -->
<g id="edge19" class="edge"><title>Node15&#45;&gt;Node5</title>
<path fill="none" stroke="midnightblue" d="M268.964,-275.162C241.451,-248.775 163.071,-165.561 205,-110 216.602,-94.6256 260.339,-82.9768 298.56,-75.4614"/>
<polygon fill="midnightblue" stroke="midnightblue" points="299.476,-78.8501 308.647,-73.5459 298.17,-71.9729 299.476,-78.8501"/>
</g>
<!-- Node16&#45;&gt;Node5 -->
<g id="edge21" class="edge"><title>Node16&#45;&gt;Node5</title>
<path fill="none" stroke="midnightblue" d="M881.158,-275.375C886.895,-262.992 895.706,-238.849 888,-220 862.072,-156.582 841.687,-139.813 780,-110 720.322,-81.1584 535.179,-70.851 432.101,-67.2901"/>
<polygon fill="midnightblue" stroke="midnightblue" points="432.195,-63.7913 422.084,-66.9563 431.962,-70.7875 432.195,-63.7913"/>
</g>
<!-- Node17&#45;&gt;Node5 -->
<g id="edge23" class="edge"><title>Node17&#45;&gt;Node5</title>
<path fill="none" stroke="midnightblue" d="M192.534,-275.146C181.88,-247.997 152.638,-161.068 192,-110 204.406,-93.9049 250.101,-82.4695 290.851,-75.2241"/>
<polygon fill="midnightblue" stroke="midnightblue" points="291.544,-78.6565 300.809,-73.5172 290.361,-71.7572 291.544,-78.6565"/>
</g>
<!-- Node18&#45;&gt;Node3 -->
<g id="edge25" class="edge"><title>Node18&#45;&gt;Node3</title>
<path fill="none" stroke="midnightblue" d="M438.451,-275.376C452.225,-255.206 490.176,-201.819 530,-165 542.714,-153.246 558.706,-142.125 571.523,-133.941"/>
<polygon fill="midnightblue" stroke="midnightblue" points="573.566,-136.792 580.203,-128.534 569.864,-130.851 573.566,-136.792"/>
</g>
<!-- Node18&#45;&gt;Node5 -->
<g id="edge26" class="edge"><title>Node18&#45;&gt;Node5</title>
<path fill="none" stroke="midnightblue" d="M402.942,-279.662C354.381,-271.663 259.983,-248.251 219,-184 201.313,-156.272 199.529,-136.506 219,-110 235.478,-87.5681 263.236,-76.1355 289.862,-70.4171"/>
<polygon fill="midnightblue" stroke="midnightblue" points="290.814,-73.7989 299.985,-68.4942 289.508,-66.9219 290.814,-73.7989"/>
</g>
<!-- Node19&#45;&gt;Node3 -->
<g id="edge28" class="edge"><title>Node19&#45;&gt;Node3</title>
<path fill="none" stroke="midnightblue" d="M744.185,-275.402C732.842,-251.569 698.995,-182.258 681,-165 665.917,-150.534 645.204,-139.686 627.773,-132.324"/>
<polygon fill="midnightblue" stroke="midnightblue" points="629.067,-129.072 618.483,-128.591 626.457,-135.567 629.067,-129.072"/>
</g>
<!-- Node19&#45;&gt;Node5 -->
<g id="edge33" class="edge"><title>Node19&#45;&gt;Node5</title>
<path fill="none" stroke="midnightblue" d="M745.931,-275.147C742.797,-262.876 736.416,-239.34 729,-220 719.319,-194.754 720.273,-185.802 703,-165 676.364,-132.922 665.467,-126.087 627,-110 564.171,-83.7246 486.871,-72.9416 431.824,-68.5285"/>
<polygon fill="midnightblue" stroke="midnightblue" points="432.047,-65.0355 421.813,-67.7764 431.523,-72.0159 432.047,-65.0355"/>
</g>
<!-- Node20 -->
<g id="node20" class="node"><title>Node20</title>
<g id="a_node20"><a xlink:href="$AP__Common_8h.html" xlink:title="Common definitions and utility routines for the ArduPilot libraries. ">
<polygon fill="white" stroke="black" points="958.973,-165.5 958.973,-183.5 1105.03,-183.5 1105.03,-165.5 958.973,-165.5"/>
<text text-anchor="middle" x="1032" y="-171.5" font-family="Helvetica,sans-Serif" font-size="10.00">AP_Common/AP_Common.h</text>
</a>
</g>
</g>
<!-- Node19&#45;&gt;Node20 -->
<g id="edge29" class="edge"><title>Node19&#45;&gt;Node20</title>
<path fill="none" stroke="midnightblue" d="M776.462,-275.431C804.968,-267.122 849.951,-253.389 888,-239 930.064,-223.093 977.565,-201.391 1006.12,-187.922"/>
<polygon fill="midnightblue" stroke="midnightblue" points="1007.86,-190.972 1015.39,-183.524 1004.86,-184.647 1007.86,-190.972"/>
</g>
<!-- Node19&#45;&gt;Node22 -->
<g id="edge34" class="edge"><title>Node19&#45;&gt;Node22</title>
<path fill="none" stroke="midnightblue" d="M759.695,-275.45C771.68,-267.201 790.545,-254.216 804.924,-244.319"/>
<polygon fill="midnightblue" stroke="midnightblue" points="806.942,-247.178 813.195,-238.625 802.974,-241.412 806.942,-247.178"/>
</g>
<!-- Node20&#45;&gt;Node3 -->
<g id="edge30" class="edge"><title>Node20&#45;&gt;Node3</title>
<path fill="none" stroke="midnightblue" d="M965.477,-165.45C870.817,-153.996 700.705,-133.412 628.219,-124.641"/>
<polygon fill="midnightblue" stroke="midnightblue" points="628.602,-121.162 618.254,-123.435 627.761,-128.111 628.602,-121.162"/>
</g>
<!-- Node20&#45;&gt;Node4 -->
<g id="edge32" class="edge"><title>Node20&#45;&gt;Node4</title>
<path fill="none" stroke="midnightblue" d="M1061.31,-165.45C1094.86,-156.239 1149.9,-141.123 1186.78,-130.995"/>
<polygon fill="midnightblue" stroke="midnightblue" points="1187.96,-134.303 1196.67,-128.279 1186.1,-127.553 1187.96,-134.303"/>
</g>
<!-- Node20&#45;&gt;Node21 -->
<g id="edge31" class="edge"><title>Node20&#45;&gt;Node21</title>
<path fill="none" stroke="midnightblue" d="M1077.26,-165.45C1137.4,-154.754 1242.31,-136.096 1296.09,-126.531"/>
<polygon fill="midnightblue" stroke="midnightblue" points="1296.9,-129.941 1306.14,-124.744 1295.68,-123.049 1296.9,-129.941"/>
</g>
<!-- Node22&#45;&gt;Node5 -->
<g id="edge37" class="edge"><title>Node22&#45;&gt;Node5</title>
<path fill="none" stroke="midnightblue" d="M821.527,-220.424C810.859,-196.009 778.019,-123.797 757,-110 705.121,-75.946 531.478,-67.7671 432.21,-65.9215"/>
<polygon fill="midnightblue" stroke="midnightblue" points="432.017,-62.4178 421.959,-65.7485 431.899,-69.4168 432.017,-62.4178"/>
</g>
<!-- Node22&#45;&gt;Node20 -->
<g id="edge36" class="edge"><title>Node22&#45;&gt;Node20</title>
<path fill="none" stroke="midnightblue" d="M856.439,-220.45C892.334,-211.26 951.186,-196.192 990.742,-186.064"/>
<polygon fill="midnightblue" stroke="midnightblue" points="991.786,-189.409 1000.61,-183.538 990.049,-182.628 991.786,-189.409"/>
</g>
<!-- Node23 -->
<g id="node23" class="node"><title>Node23</title>
<polygon fill="white" stroke="#bfbfbf" points="548.934,-165.5 548.934,-183.5 601.066,-183.5 601.066,-165.5 548.934,-165.5"/>
<text text-anchor="middle" x="575" y="-171.5" font-family="Helvetica,sans-Serif" font-size="10.00">stdarg.h</text>
</g>
<!-- Node22&#45;&gt;Node23 -->
<g id="edge35" class="edge"><title>Node22&#45;&gt;Node23</title>
<path fill="none" stroke="midnightblue" d="M787.03,-220.45C739.409,-210.355 658.331,-193.166 611.44,-183.225"/>
<polygon fill="midnightblue" stroke="midnightblue" points="611.925,-179.75 601.416,-181.1 610.473,-186.598 611.925,-179.75"/>
</g>
<!-- Node22&#45;&gt;Node24 -->
<g id="edge38" class="edge"><title>Node22&#45;&gt;Node24</title>
<path fill="none" stroke="midnightblue" d="M838.365,-220.45C852.192,-212.123 874.03,-198.97 890.519,-189.039"/>
<polygon fill="midnightblue" stroke="midnightblue" points="892.748,-191.783 899.509,-183.625 889.137,-185.786 892.748,-191.783"/>
</g>
<!-- Node24&#45;&gt;Node5 -->
<g id="edge39" class="edge"><title>Node24&#45;&gt;Node5</title>
<path fill="none" stroke="midnightblue" d="M905.612,-165.073C892.575,-150.855 863.928,-122.441 833,-110 762.098,-81.4783 545.691,-70.9197 432.187,-67.2717"/>
<polygon fill="midnightblue" stroke="midnightblue" points="431.97,-63.7633 421.866,-66.9499 431.752,-70.7599 431.97,-63.7633"/>
</g>
<!-- Node24&#45;&gt;Node25 -->
<g id="edge40" class="edge"><title>Node24&#45;&gt;Node25</title>
<path fill="none" stroke="midnightblue" d="M939.427,-165.45C970.357,-156.029 1021.57,-140.431 1054.79,-130.31"/>
<polygon fill="midnightblue" stroke="midnightblue" points="1055.94,-133.62 1064.49,-127.358 1053.9,-126.924 1055.94,-133.62"/>
</g>
<!-- Node25&#45;&gt;Node5 -->
<g id="edge41" class="edge"><title>Node25&#45;&gt;Node5</title>
<path fill="none" stroke="midnightblue" d="M1064.26,-112.523C1059.88,-111.546 1055.32,-110.645 1051,-110 826.681,-76.5255 557.629,-68.2228 432.061,-66.1699"/>
<polygon fill="midnightblue" stroke="midnightblue" points="431.869,-62.6666 421.816,-66.0112 431.76,-69.6658 431.869,-62.6666"/>
</g>
<!-- Node25&#45;&gt;Node6 -->
<g id="edge43" class="edge"><title>Node25&#45;&gt;Node6</title>
<path fill="none" stroke="midnightblue" d="M1070.83,-110.472C1043.86,-97.345 987.751,-71.135 938,-55 882.967,-37.1518 816.971,-23.6867 777.592,-16.4595"/>
<polygon fill="midnightblue" stroke="midnightblue" points="778.163,-13.006 767.7,-14.6727 776.919,-19.8945 778.163,-13.006"/>
</g>
<!-- Node25&#45;&gt;Node13 -->
<g id="edge42" class="edge"><title>Node25&#45;&gt;Node13</title>
<path fill="none" stroke="midnightblue" d="M1064.44,-112.107C1033.14,-103.236 976.114,-87.0723 938.134,-76.308"/>
<polygon fill="midnightblue" stroke="midnightblue" points="939.016,-72.9201 928.44,-73.5606 937.107,-79.6548 939.016,-72.9201"/>
</g>
<!-- Node26&#45;&gt;Node3 -->
<g id="edge46" class="edge"><title>Node26&#45;&gt;Node3</title>
<path fill="none" stroke="midnightblue" d="M448.123,-165.45C478.102,-156.213 527.352,-141.037 560.222,-130.908"/>
<polygon fill="midnightblue" stroke="midnightblue" points="561.332,-134.229 569.858,-127.939 559.27,-127.539 561.332,-134.229"/>
</g>
<!-- Node26&#45;&gt;Node5 -->
<g id="edge47" class="edge"><title>Node26&#45;&gt;Node5</title>
<path fill="none" stroke="midnightblue" d="M417.415,-165.382C407.524,-147.869 383.998,-106.218 370.661,-82.6045"/>
<polygon fill="midnightblue" stroke="midnightblue" points="373.604,-80.6976 365.638,-73.7118 367.509,-84.1402 373.604,-80.6976"/>
</g>
<!-- Node27&#45;&gt;Node3 -->
<g id="edge55" class="edge"><title>Node27&#45;&gt;Node3</title>
<path fill="none" stroke="midnightblue" d="M1098.4,-223.072C1048.95,-215.188 955.273,-199.778 876,-184 786.253,-166.137 681.285,-141.505 628.312,-128.809"/>
<polygon fill="midnightblue" stroke="midnightblue" points="628.972,-125.368 618.431,-126.435 627.336,-132.174 628.972,-125.368"/>
</g>
<!-- Node27&#45;&gt;Node5 -->
<g id="edge58" class="edge"><title>Node27&#45;&gt;Node5</title>
<path fill="none" stroke="midnightblue" d="M1133.03,-220.118C1132.61,-206.482 1129.69,-179.556 1114,-165 1072.14,-126.166 919.442,-118.65 863,-110 710.351,-86.607 529.562,-74.3176 432,-68.941"/>
<polygon fill="midnightblue" stroke="midnightblue" points="432.134,-65.4432 421.959,-68.3959 431.755,-72.4329 432.134,-65.4432"/>
</g>
<!-- Node27&#45;&gt;Node8 -->
<g id="edge57" class="edge"><title>Node27&#45;&gt;Node8</title>
<path fill="none" stroke="midnightblue" d="M1144.85,-220.45C1156.99,-212.201 1176.1,-199.216 1190.66,-189.319"/>
<polygon fill="midnightblue" stroke="midnightblue" points="1192.74,-192.14 1199.04,-183.625 1188.8,-186.351 1192.74,-192.14"/>
</g>
<!-- Node27&#45;&gt;Node20 -->
<g id="edge56" class="edge"><title>Node27&#45;&gt;Node20</title>
<path fill="none" stroke="midnightblue" d="M1117.66,-220.45C1101.42,-211.929 1075.55,-198.353 1056.49,-188.349"/>
<polygon fill="midnightblue" stroke="midnightblue" points="1057.97,-185.173 1047.48,-183.625 1054.71,-191.371 1057.97,-185.173"/>
</g>
<!-- Node28&#45;&gt;Node5 -->
<g id="edge60" class="edge"><title>Node28&#45;&gt;Node5</title>
<path fill="none" stroke="midnightblue" d="M163.266,-330.466C152.743,-297.901 118.336,-174.402 178,-110 193.339,-93.443 245.356,-81.8019 290.03,-74.5899"/>
<polygon fill="midnightblue" stroke="midnightblue" points="290.681,-78.0307 300.022,-73.0294 289.601,-71.1146 290.681,-78.0307"/>
</g>
<!-- Node29&#45;&gt;Node5 -->
<g id="edge63" class="edge"><title>Node29&#45;&gt;Node5</title>
<path fill="none" stroke="midnightblue" d="M364.477,-229.455C331.139,-229.883 263.853,-225.257 233,-184 213.303,-157.661 213.941,-136.804 233,-110 246.361,-91.21 268.249,-80.2848 290.179,-73.9565"/>
<polygon fill="midnightblue" stroke="midnightblue" points="291.089,-77.3365 299.89,-71.4385 289.331,-70.5606 291.089,-77.3365"/>
</g>
<!-- Node29&#45;&gt;Node23 -->
<g id="edge62" class="edge"><title>Node29&#45;&gt;Node23</title>
<path fill="none" stroke="midnightblue" d="M403.721,-223.028C435.617,-214.177 498.987,-196.593 539.063,-185.472"/>
<polygon fill="midnightblue" stroke="midnightblue" points="540.016,-188.84 548.716,-182.793 538.145,-182.095 540.016,-188.84"/>
</g>
<!-- Node31 -->
<g id="node31" class="node"><title>Node31</title>
<g id="a_node31"><a xlink:href="$AP__HAL__Linux_8h.html" xlink:title="AP_HAL_Linux.h">
<polygon fill="white" stroke="black" points="790.919,-550.5 790.919,-568.5 883.081,-568.5 883.081,-550.5 790.919,-550.5"/>
<text text-anchor="middle" x="837" y="-556.5" font-family="Helvetica,sans-Serif" font-size="10.00">AP_HAL_Linux.h</text>
</a>
</g>
</g>
<!-- Node30&#45;&gt;Node31 -->
<g id="edge69" class="edge"><title>Node30&#45;&gt;Node31</title>
<path fill="none" stroke="midnightblue" d="M890.549,-660.214C880.118,-652.095 865.006,-638.81 856,-624 847.584,-610.16 842.678,-592.341 839.968,-579.103"/>
<polygon fill="midnightblue" stroke="midnightblue" points="843.34,-578.083 838.117,-568.865 836.452,-579.328 843.34,-578.083"/>
</g>
<!-- Node34 -->
<g id="node34" class="node"><title>Node34</title>
<g id="a_node34"><a xlink:href="$GPIO__BBB_8h.html" xlink:title="GPIO_BBB.h">
<polygon fill="white" stroke="black" points="864.542,-605.5 864.542,-623.5 939.458,-623.5 939.458,-605.5 864.542,-605.5"/>
<text text-anchor="middle" x="902" y="-611.5" font-family="Helvetica,sans-Serif" font-size="10.00">GPIO_BBB.h</text>
</a>
</g>
</g>
<!-- Node30&#45;&gt;Node34 -->
<g id="edge74" class="edge"><title>Node30&#45;&gt;Node34</title>
<path fill="none" stroke="midnightblue" d="M902,-660.219C902,-653.177 902,-642.808 902,-633.828"/>
<polygon fill="midnightblue" stroke="midnightblue" points="905.5,-633.55 902,-623.55 898.5,-633.55 905.5,-633.55"/>
</g>
<!-- Node31&#45;&gt;Node2 -->
<g id="edge70" class="edge"><title>Node31&#45;&gt;Node2</title>
<path fill="none" stroke="midnightblue" d="M823.867,-550.376C809.864,-541.634 787.118,-527.204 768,-514 744.332,-497.654 717.801,-477.826 700.548,-464.723"/>
<polygon fill="midnightblue" stroke="midnightblue" points="702.511,-461.818 692.436,-458.538 698.266,-467.385 702.511,-461.818"/>
</g>
<!-- Node32 -->
<g id="node32" class="node"><title>Node32</title>
<g id="a_node32"><a xlink:href="$HAL__Linux__Class_8h.html" xlink:title="HAL_Linux_Class.h">
<polygon fill="white" stroke="black" points="777.086,-495.5 777.086,-513.5 880.914,-513.5 880.914,-495.5 777.086,-495.5"/>
<text text-anchor="middle" x="829" y="-501.5" font-family="Helvetica,sans-Serif" font-size="10.00">HAL_Linux_Class.h</text>
</a>
</g>
</g>
<!-- Node31&#45;&gt;Node32 -->
<g id="edge71" class="edge"><title>Node31&#45;&gt;Node32</title>
<path fill="none" stroke="midnightblue" d="M835.75,-550.219C834.675,-543.099 833.087,-532.577 831.721,-523.529"/>
<polygon fill="midnightblue" stroke="midnightblue" points="835.168,-522.915 830.215,-513.55 828.247,-523.96 835.168,-522.915"/>
</g>
<!-- Node32&#45;&gt;Node2 -->
<g id="edge72" class="edge"><title>Node32&#45;&gt;Node2</title>
<path fill="none" stroke="midnightblue" d="M806.674,-495.45C782.066,-486.578 742.267,-472.229 714.268,-462.134"/>
<polygon fill="midnightblue" stroke="midnightblue" points="715.131,-458.725 704.536,-458.625 712.756,-465.31 715.131,-458.725"/>
</g>
<!-- Node33 -->
<g id="node33" class="node"><title>Node33</title>
<g id="a_node33"><a xlink:href="$AP__HAL__Linux__Namespace_8h.html" xlink:title="AP_HAL_Linux_Namespace.h">
<polygon fill="white" stroke="black" points="753.458,-440.5 753.458,-458.5 904.542,-458.5 904.542,-440.5 753.458,-440.5"/>
<text text-anchor="middle" x="829" y="-446.5" font-family="Helvetica,sans-Serif" font-size="10.00">AP_HAL_Linux_Namespace.h</text>
</a>
</g>
</g>
<!-- Node32&#45;&gt;Node33 -->
<g id="edge73" class="edge"><title>Node32&#45;&gt;Node33</title>
<path fill="none" stroke="midnightblue" d="M829,-495.219C829,-488.177 829,-477.808 829,-468.828"/>
<polygon fill="midnightblue" stroke="midnightblue" points="832.5,-468.55 829,-458.55 825.5,-468.55 832.5,-468.55"/>
</g>
<!-- Node34&#45;&gt;Node31 -->
<g id="edge75" class="edge"><title>Node34&#45;&gt;Node31</title>
<path fill="none" stroke="midnightblue" d="M892.128,-605.45C882.297,-597.434 866.982,-584.947 854.987,-575.166"/>
<polygon fill="midnightblue" stroke="midnightblue" points="856.927,-572.232 846.965,-568.625 852.503,-577.657 856.927,-572.232"/>
</g>
<!-- Node35&#45;&gt;Node31 -->
<g id="edge77" class="edge"><title>Node35&#45;&gt;Node31</title>
<path fill="none" stroke="midnightblue" d="M1103.31,-605.45C1046.87,-595.924 953.018,-580.083 893.129,-569.974"/>
<polygon fill="midnightblue" stroke="midnightblue" points="893.532,-566.493 883.089,-568.279 892.367,-573.395 893.532,-566.493"/>
</g>
</g>
</svg>
