<?xml version="1.0" encoding="UTF-8" standalone="no"?>
<!DOCTYPE svg PUBLIC "-//W3C//DTD SVG 1.1//EN"
 "http://www.w3.org/Graphics/SVG/1.1/DTD/svg11.dtd">
<!-- Generated by graphviz version 2.38.0 (20140413.2041)
 -->
<!-- Title: libraries/AP_HAL_Linux/RCOutput_Sysfs.h Pages: 1 -->
<svg width="1330pt" height="697pt"
 viewBox="0.00 0.00 1330.37 697.00" xmlns="http://www.w3.org/2000/svg" xmlns:xlink="http://www.w3.org/1999/xlink">
<g id="graph0" class="graph" transform="scale(1 1) rotate(0) translate(4 693)">
<title>libraries/AP_HAL_Linux/RCOutput_Sysfs.h</title>
<polygon fill="white" stroke="none" points="-4,4 -4,-693 1326.37,-693 1326.37,4 -4,4"/>
<!-- Node1 -->
<g id="node1" class="node"><title>Node1</title>
<polygon fill="#bfbfbf" stroke="black" points="578.165,-660.5 578.165,-688.5 699.775,-688.5 699.775,-660.5 578.165,-660.5"/>
<text text-anchor="start" x="586.165" y="-676.5" font-family="Helvetica,sans-Serif" font-size="10.00">libraries/AP_HAL_Linux</text>
<text text-anchor="middle" x="638.97" y="-666.5" font-family="Helvetica,sans-Serif" font-size="10.00">/RCOutput_Sysfs.h</text>
</g>
<!-- Node2 -->
<g id="node2" class="node"><title>Node2</title>
<g id="a_node2"><a xlink:href="$AP__HAL__Linux_8h.html" xlink:title="AP_HAL_Linux.h">
<polygon fill="white" stroke="black" points="593.889,-550.5 593.889,-568.5 686.051,-568.5 686.051,-550.5 593.889,-550.5"/>
<text text-anchor="middle" x="639.97" y="-556.5" font-family="Helvetica,sans-Serif" font-size="10.00">AP_HAL_Linux.h</text>
</a>
</g>
</g>
<!-- Node1&#45;&gt;Node2 -->
<g id="edge1" class="edge"><title>Node1&#45;&gt;Node2</title>
<path fill="none" stroke="midnightblue" d="M644.763,-660.46C650.162,-646.747 656.964,-624.494 653.97,-605 652.568,-595.872 649.637,-586.046 646.818,-577.956"/>
<polygon fill="midnightblue" stroke="midnightblue" points="650.077,-576.679 643.314,-568.524 643.516,-579.117 650.077,-576.679"/>
</g>
<!-- Node33 -->
<g id="node33" class="node"><title>Node33</title>
<g id="a_node33"><a xlink:href="$PWM__Sysfs_8h.html" xlink:title="PWM_Sysfs.h">
<polygon fill="white" stroke="black" points="566.576,-605.5 566.576,-623.5 645.364,-623.5 645.364,-605.5 566.576,-605.5"/>
<text text-anchor="middle" x="605.97" y="-611.5" font-family="Helvetica,sans-Serif" font-size="10.00">PWM_Sysfs.h</text>
</a>
</g>
</g>
<!-- Node1&#45;&gt;Node33 -->
<g id="edge72" class="edge"><title>Node1&#45;&gt;Node33</title>
<path fill="none" stroke="midnightblue" d="M631.482,-660.339C626.79,-652.092 620.695,-641.38 615.639,-632.494"/>
<polygon fill="midnightblue" stroke="midnightblue" points="618.664,-630.732 610.676,-623.771 612.58,-634.194 618.664,-630.732"/>
</g>
<!-- Node3 -->
<g id="node3" class="node"><title>Node3</title>
<g id="a_node3"><a xlink:href="$AP__HAL_8h.html" xlink:title="AP_HAL/AP_HAL.h">
<polygon fill="white" stroke="black" points="646.057,-440.5 646.057,-458.5 749.884,-458.5 749.884,-440.5 646.057,-440.5"/>
<text text-anchor="middle" x="697.97" y="-446.5" font-family="Helvetica,sans-Serif" font-size="10.00">AP_HAL/AP_HAL.h</text>
</a>
</g>
</g>
<!-- Node2&#45;&gt;Node3 -->
<g id="edge2" class="edge"><title>Node2&#45;&gt;Node3</title>
<path fill="none" stroke="midnightblue" d="M654.965,-550.473C667.493,-542.88 684.611,-530.237 692.97,-514 700.096,-500.16 700.897,-482.341 700.174,-469.103"/>
<polygon fill="midnightblue" stroke="midnightblue" points="703.636,-468.517 699.268,-458.865 696.664,-469.134 703.636,-468.517"/>
</g>
<!-- Node31 -->
<g id="node31" class="node"><title>Node31</title>
<g id="a_node31"><a xlink:href="$HAL__Linux__Class_8h.html" xlink:title="HAL_Linux_Class.h">
<polygon fill="white" stroke="black" points="547.057,-495.5 547.057,-513.5 650.884,-513.5 650.884,-495.5 547.057,-495.5"/>
<text text-anchor="middle" x="598.97" y="-501.5" font-family="Helvetica,sans-Serif" font-size="10.00">HAL_Linux_Class.h</text>
</a>
</g>
</g>
<!-- Node2&#45;&gt;Node31 -->
<g id="edge69" class="edge"><title>Node2&#45;&gt;Node31</title>
<path fill="none" stroke="midnightblue" d="M633.564,-550.219C627.632,-542.551 618.649,-530.939 611.324,-521.469"/>
<polygon fill="midnightblue" stroke="midnightblue" points="614.084,-519.318 605.197,-513.55 608.548,-523.601 614.084,-519.318"/>
</g>
<!-- Node4 -->
<g id="node4" class="node"><title>Node4</title>
<polygon fill="white" stroke="#bfbfbf" points="419.85,-110.5 419.85,-128.5 468.091,-128.5 468.091,-110.5 419.85,-110.5"/>
<text text-anchor="middle" x="443.97" y="-116.5" font-family="Helvetica,sans-Serif" font-size="10.00">stdint.h</text>
</g>
<!-- Node3&#45;&gt;Node4 -->
<g id="edge3" class="edge"><title>Node3&#45;&gt;Node4</title>
<path fill="none" stroke="midnightblue" d="M645.819,-443.494C586.772,-436.967 495.116,-423.97 466.97,-404 420.84,-371.27 417.701,-348.61 402.97,-294 387.623,-237.104 417.783,-168.87 434.249,-137.634"/>
<polygon fill="midnightblue" stroke="midnightblue" points="437.322,-139.308 439.038,-128.853 431.177,-135.956 437.322,-139.308"/>
</g>
<!-- Node5 -->
<g id="node5" class="node"><title>Node5</title>
<polygon fill="white" stroke="#bfbfbf" points="190.677,-110.5 190.677,-128.5 247.263,-128.5 247.263,-110.5 190.677,-110.5"/>
<text text-anchor="middle" x="218.97" y="-116.5" font-family="Helvetica,sans-Serif" font-size="10.00">stdbool.h</text>
</g>
<!-- Node3&#45;&gt;Node5 -->
<g id="edge4" class="edge"><title>Node3&#45;&gt;Node5</title>
<path fill="none" stroke="midnightblue" d="M645.953,-443.273C581.466,-436.147 475.8,-422.164 440.97,-404 318.919,-340.349 279.334,-309.583 222.97,-184 216.603,-169.814 216.029,-152.029 216.802,-138.893"/>
<polygon fill="midnightblue" stroke="midnightblue" points="220.304,-139.026 217.716,-128.753 213.332,-138.398 220.304,-139.026"/>
</g>
<!-- Node6 -->
<g id="node6" class="node"><title>Node6</title>
<g id="a_node6"><a xlink:href="$AP__HAL__Namespace_8h.html" xlink:title="AP_HAL_Namespace.h">
<polygon fill="white" stroke="black" points="809.163,-55.5 809.163,-73.5 930.778,-73.5 930.778,-55.5 809.163,-55.5"/>
<text text-anchor="middle" x="869.97" y="-61.5" font-family="Helvetica,sans-Serif" font-size="10.00">AP_HAL_Namespace.h</text>
</a>
</g>
</g>
<!-- Node3&#45;&gt;Node6 -->
<g id="edge5" class="edge"><title>Node3&#45;&gt;Node6</title>
<path fill="none" stroke="midnightblue" d="M729.743,-440.451C749.561,-433.834 774.052,-422.469 788.97,-404 813.93,-373.1 831.97,-270.222 831.97,-230.5 831.97,-230.5 831.97,-230.5 831.97,-173.5 831.97,-139.678 848.758,-103.104 860.017,-82.3784"/>
<polygon fill="midnightblue" stroke="midnightblue" points="863.129,-83.9865 865.002,-73.5586 857.035,-80.542 863.129,-83.9865"/>
</g>
<!-- Node9 -->
<g id="node9" class="node"><title>Node9</title>
<g id="a_node9"><a xlink:href="$AP__HAL__Boards_8h.html" xlink:title="AP_HAL_Boards.h">
<polygon fill="white" stroke="black" points="0,-165.5 0,-183.5 99.9404,-183.5 99.9404,-165.5 0,-165.5"/>
<text text-anchor="middle" x="49.9702" y="-171.5" font-family="Helvetica,sans-Serif" font-size="10.00">AP_HAL_Boards.h</text>
</a>
</g>
</g>
<!-- Node3&#45;&gt;Node9 -->
<g id="edge8" class="edge"><title>Node3&#45;&gt;Node9</title>
<path fill="none" stroke="midnightblue" d="M646.046,-445.146C521.383,-436.928 214.043,-415.609 194.97,-404 112.835,-354.005 69.3543,-237.911 55.2169,-193.354"/>
<polygon fill="midnightblue" stroke="midnightblue" points="58.521,-192.19 52.2492,-183.651 51.8271,-194.238 58.521,-192.19"/>
</g>
<!-- Node10 -->
<g id="node10" class="node"><title>Node10</title>
<g id="a_node10"><a xlink:href="$AP__HAL__Macros_8h.html" xlink:title="AP_HAL_Macros.h">
<polygon fill="white" stroke="black" points="1126.45,-385.5 1126.45,-403.5 1227.49,-403.5 1227.49,-385.5 1126.45,-385.5"/>
<text text-anchor="middle" x="1176.97" y="-391.5" font-family="Helvetica,sans-Serif" font-size="10.00">AP_HAL_Macros.h</text>
</a>
</g>
</g>
<!-- Node3&#45;&gt;Node10 -->
<g id="edge9" class="edge"><title>Node3&#45;&gt;Node10</title>
<path fill="none" stroke="midnightblue" d="M749.971,-443.297C828.464,-435.357 981.866,-419.497 1111.97,-404 1113.27,-403.845 1114.59,-403.686 1115.92,-403.525"/>
<polygon fill="midnightblue" stroke="midnightblue" points="1116.75,-406.949 1126.24,-402.248 1115.89,-400.002 1116.75,-406.949"/>
</g>
<!-- Node11 -->
<g id="node11" class="node"><title>Node11</title>
<g id="a_node11"><a xlink:href="$AP__HAL__Main_8h.html" xlink:title="AP_HAL_Main.h">
<polygon fill="white" stroke="black" points="690.005,-385.5 690.005,-403.5 779.936,-403.5 779.936,-385.5 690.005,-385.5"/>
<text text-anchor="middle" x="734.97" y="-391.5" font-family="Helvetica,sans-Serif" font-size="10.00">AP_HAL_Main.h</text>
</a>
</g>
</g>
<!-- Node3&#45;&gt;Node11 -->
<g id="edge10" class="edge"><title>Node3&#45;&gt;Node11</title>
<path fill="none" stroke="midnightblue" d="M703.751,-440.219C709.05,-432.629 717.046,-421.175 723.619,-411.76"/>
<polygon fill="midnightblue" stroke="midnightblue" points="726.496,-413.753 729.351,-403.55 720.757,-409.746 726.496,-413.753"/>
</g>
<!-- Node12 -->
<g id="node12" class="node"><title>Node12</title>
<g id="a_node12"><a xlink:href="$HAL_8h.html" xlink:title="HAL.h">
<polygon fill="white" stroke="black" points="712.074,-330.5 712.074,-348.5 755.867,-348.5 755.867,-330.5 712.074,-330.5"/>
<text text-anchor="middle" x="733.97" y="-336.5" font-family="Helvetica,sans-Serif" font-size="10.00">HAL.h</text>
</a>
</g>
</g>
<!-- Node3&#45;&gt;Node12 -->
<g id="edge68" class="edge"><title>Node3&#45;&gt;Node12</title>
<path fill="none" stroke="midnightblue" d="M692.33,-440.369C684.489,-427.979 672.195,-403.826 680.97,-385 687.018,-372.025 698.917,-361.488 709.911,-353.931"/>
<polygon fill="midnightblue" stroke="midnightblue" points="711.852,-356.844 718.404,-348.519 708.09,-350.941 711.852,-356.844"/>
</g>
<!-- Node13 -->
<g id="node13" class="node"><title>Node13</title>
<g id="a_node13"><a xlink:href="$AnalogIn_8h.html" xlink:title="AnalogIn.h">
<polygon fill="white" stroke="black" points="1156.06,-220.5 1156.06,-238.5 1219.88,-238.5 1219.88,-220.5 1156.06,-220.5"/>
<text text-anchor="middle" x="1187.97" y="-226.5" font-family="Helvetica,sans-Serif" font-size="10.00">AnalogIn.h</text>
</a>
</g>
</g>
<!-- Node3&#45;&gt;Node13 -->
<g id="edge50" class="edge"><title>Node3&#45;&gt;Node13</title>
<path fill="none" stroke="midnightblue" d="M750.182,-446.417C837.595,-442.226 1009.27,-430.781 1062.97,-404 1123.73,-373.7 1134.72,-352.62 1168.97,-294 1177.14,-280.014 1182.07,-262.21 1184.85,-249.015"/>
<polygon fill="midnightblue" stroke="midnightblue" points="1188.36,-249.292 1186.77,-238.817 1181.48,-247.997 1188.36,-249.292"/>
</g>
<!-- Node15 -->
<g id="node15" class="node"><title>Node15</title>
<g id="a_node15"><a xlink:href="$GPIO_8h.html" xlink:title="GPIO.h">
<polygon fill="white" stroke="black" points="537.298,-220.5 537.298,-238.5 586.643,-238.5 586.643,-220.5 537.298,-220.5"/>
<text text-anchor="middle" x="561.97" y="-226.5" font-family="Helvetica,sans-Serif" font-size="10.00">GPIO.h</text>
</a>
</g>
</g>
<!-- Node3&#45;&gt;Node15 -->
<g id="edge52" class="edge"><title>Node3&#45;&gt;Node15</title>
<path fill="none" stroke="midnightblue" d="M689.32,-440.401C666.905,-418.89 606.628,-357.61 576.97,-294 570.232,-279.548 566.369,-261.79 564.256,-248.731"/>
<polygon fill="midnightblue" stroke="midnightblue" points="567.698,-248.072 562.822,-238.666 560.768,-249.06 567.698,-248.072"/>
</g>
<!-- Node16 -->
<g id="node16" class="node"><title>Node16</title>
<g id="a_node16"><a xlink:href="$RCInput_8h.html" xlink:title="RCInput.h">
<polygon fill="white" stroke="black" points="974.458,-275.5 974.458,-293.5 1035.48,-293.5 1035.48,-275.5 974.458,-275.5"/>
<text text-anchor="middle" x="1004.97" y="-281.5" font-family="Helvetica,sans-Serif" font-size="10.00">RCInput.h</text>
</a>
</g>
</g>
<!-- Node3&#45;&gt;Node16 -->
<g id="edge53" class="edge"><title>Node3&#45;&gt;Node16</title>
<path fill="none" stroke="midnightblue" d="M750.12,-445.693C817.168,-441.083 928.696,-429.71 959.97,-404 990.623,-378.801 1000.42,-330.31 1003.53,-303.84"/>
<polygon fill="midnightblue" stroke="midnightblue" points="1007.04,-303.975 1004.52,-293.683 1000.07,-303.296 1007.04,-303.975"/>
</g>
<!-- Node17 -->
<g id="node17" class="node"><title>Node17</title>
<g id="a_node17"><a xlink:href="$RCOutput_8h.html" xlink:title="RCOutput.h">
<polygon fill="white" stroke="black" points="1091.57,-275.5 1091.57,-293.5 1160.37,-293.5 1160.37,-275.5 1091.57,-275.5"/>
<text text-anchor="middle" x="1125.97" y="-281.5" font-family="Helvetica,sans-Serif" font-size="10.00">RCOutput.h</text>
</a>
</g>
</g>
<!-- Node3&#45;&gt;Node17 -->
<g id="edge54" class="edge"><title>Node3&#45;&gt;Node17</title>
<path fill="none" stroke="midnightblue" d="M749.952,-446.506C832.353,-442.548 988.497,-431.566 1035.97,-404 1076.99,-380.18 1105.47,-329.563 1118.29,-302.847"/>
<polygon fill="midnightblue" stroke="midnightblue" points="1121.55,-304.136 1122.57,-293.59 1115.2,-301.203 1121.55,-304.136"/>
</g>
<!-- Node18 -->
<g id="node18" class="node"><title>Node18</title>
<g id="a_node18"><a xlink:href="$SPIDriver_8h.html" xlink:title="SPIDriver.h">
<polygon fill="white" stroke="black" points="699.682,-275.5 699.682,-293.5 766.258,-293.5 766.258,-275.5 699.682,-275.5"/>
<text text-anchor="middle" x="732.97" y="-281.5" font-family="Helvetica,sans-Serif" font-size="10.00">SPIDriver.h</text>
</a>
</g>
</g>
<!-- Node3&#45;&gt;Node18 -->
<g id="edge49" class="edge"><title>Node3&#45;&gt;Node18</title>
<path fill="none" stroke="midnightblue" d="M691.533,-440.478C682.809,-428.62 668.874,-405.592 673.97,-385 682.014,-352.499 704.604,-320.13 719.382,-301.506"/>
<polygon fill="midnightblue" stroke="midnightblue" points="722.287,-303.482 725.912,-293.527 716.87,-299.049 722.287,-303.482"/>
</g>
<!-- Node19 -->
<g id="node19" class="node"><title>Node19</title>
<g id="a_node19"><a xlink:href="$Storage_8h.html" xlink:title="Storage.h">
<polygon fill="white" stroke="black" points="412.288,-275.5 412.288,-293.5 471.652,-293.5 471.652,-275.5 412.288,-275.5"/>
<text text-anchor="middle" x="441.97" y="-281.5" font-family="Helvetica,sans-Serif" font-size="10.00">Storage.h</text>
</a>
</g>
</g>
<!-- Node3&#45;&gt;Node19 -->
<g id="edge51" class="edge"><title>Node3&#45;&gt;Node19</title>
<path fill="none" stroke="midnightblue" d="M645.562,-443.305C590.752,-436.882 509.477,-424.249 485.97,-404 455.989,-378.174 446.414,-329.939 443.372,-303.676"/>
<polygon fill="midnightblue" stroke="midnightblue" points="446.845,-303.224 442.406,-293.604 439.877,-303.892 446.845,-303.224"/>
</g>
<!-- Node20 -->
<g id="node20" class="node"><title>Node20</title>
<g id="a_node20"><a xlink:href="$UARTDriver_8h.html" xlink:title="UARTDriver.h">
<polygon fill="white" stroke="black" points="604.218,-275.5 604.218,-293.5 681.722,-293.5 681.722,-275.5 604.218,-275.5"/>
<text text-anchor="middle" x="642.97" y="-281.5" font-family="Helvetica,sans-Serif" font-size="10.00">UARTDriver.h</text>
</a>
</g>
</g>
<!-- Node3&#45;&gt;Node20 -->
<g id="edge45" class="edge"><title>Node3&#45;&gt;Node20</title>
<path fill="none" stroke="midnightblue" d="M691.447,-440.48C684.823,-431.938 674.743,-417.778 668.97,-404 654.771,-370.111 647.85,-327.38 644.882,-303.596"/>
<polygon fill="midnightblue" stroke="midnightblue" points="648.348,-303.098 643.727,-293.564 641.393,-303.898 648.348,-303.098"/>
</g>
<!-- Node23 -->
<g id="node23" class="node"><title>Node23</title>
<g id="a_node23"><a xlink:href="$BetterStream_8h.html" xlink:title="utility/BetterStream.h">
<polygon fill="white" stroke="black" points="897.564,-220.5 897.564,-238.5 1006.38,-238.5 1006.38,-220.5 897.564,-220.5"/>
<text text-anchor="middle" x="951.97" y="-226.5" font-family="Helvetica,sans-Serif" font-size="10.00">utility/BetterStream.h</text>
</a>
</g>
</g>
<!-- Node3&#45;&gt;Node23 -->
<g id="edge67" class="edge"><title>Node3&#45;&gt;Node23</title>
<path fill="none" stroke="midnightblue" d="M750.156,-442.1C804.637,-432.343 887.524,-408.142 926.97,-349 947.516,-318.195 951.625,-273.694 952.189,-248.919"/>
<polygon fill="midnightblue" stroke="midnightblue" points="955.689,-248.783 952.241,-238.765 948.689,-248.747 955.689,-248.783"/>
</g>
<!-- Node25 -->
<g id="node25" class="node"><title>Node25</title>
<g id="a_node25"><a xlink:href="$Stream_8h.html" xlink:title="Stream.h">
<polygon fill="white" stroke="black" points="1201.68,-165.5 1201.68,-183.5 1258.26,-183.5 1258.26,-165.5 1201.68,-165.5"/>
<text text-anchor="middle" x="1229.97" y="-171.5" font-family="Helvetica,sans-Serif" font-size="10.00">Stream.h</text>
</a>
</g>
</g>
<!-- Node3&#45;&gt;Node25 -->
<g id="edge66" class="edge"><title>Node3&#45;&gt;Node25</title>
<path fill="none" stroke="midnightblue" d="M750.107,-447.492C878.017,-444.559 1199.68,-434.23 1236.97,-404 1259.85,-385.449 1255.97,-369.958 1255.97,-340.5 1255.97,-340.5 1255.97,-340.5 1255.97,-283.5 1255.97,-250.983 1244.69,-214.449 1236.99,-193.296"/>
<polygon fill="midnightblue" stroke="midnightblue" points="1240.19,-191.849 1233.37,-183.739 1233.64,-194.33 1240.19,-191.849"/>
</g>
<!-- Node26 -->
<g id="node26" class="node"><title>Node26</title>
<g id="a_node26"><a xlink:href="$Print_8h.html" xlink:title="Print.h">
<polygon fill="white" stroke="black" points="1231.52,-110.5 1231.52,-128.5 1276.42,-128.5 1276.42,-110.5 1231.52,-110.5"/>
<text text-anchor="middle" x="1253.97" y="-116.5" font-family="Helvetica,sans-Serif" font-size="10.00">Print.h</text>
</a>
</g>
</g>
<!-- Node3&#45;&gt;Node26 -->
<g id="edge65" class="edge"><title>Node3&#45;&gt;Node26</title>
<path fill="none" stroke="midnightblue" d="M749.926,-447.166C880.833,-443.413 1216.8,-431.217 1258.97,-404 1286.05,-386.526 1293.97,-372.725 1293.97,-340.5 1293.97,-340.5 1293.97,-340.5 1293.97,-228.5 1293.97,-194.478 1276.3,-157.97 1264.45,-137.311"/>
<polygon fill="midnightblue" stroke="midnightblue" points="1267.33,-135.314 1259.2,-128.523 1261.32,-138.903 1267.33,-135.314"/>
</g>
<!-- Node27 -->
<g id="node27" class="node"><title>Node27</title>
<g id="a_node27"><a xlink:href="$I2CDriver_8h.html" xlink:title="I2CDriver.h">
<polygon fill="white" stroke="black" points="585.96,-165.5 585.96,-183.5 651.98,-183.5 651.98,-165.5 585.96,-165.5"/>
<text text-anchor="middle" x="618.97" y="-171.5" font-family="Helvetica,sans-Serif" font-size="10.00">I2CDriver.h</text>
</a>
</g>
</g>
<!-- Node3&#45;&gt;Node27 -->
<g id="edge46" class="edge"><title>Node3&#45;&gt;Node27</title>
<path fill="none" stroke="midnightblue" d="M684.522,-440.495C671.342,-432.286 651.086,-418.674 635.97,-404 573.084,-342.95 551.366,-323.466 527.97,-239 525.716,-230.862 523.499,-227.164 527.97,-220 538.577,-203.006 557.761,-192.325 575.789,-185.704"/>
<polygon fill="midnightblue" stroke="midnightblue" points="577.242,-188.909 585.624,-182.428 575.03,-182.267 577.242,-188.909"/>
</g>
<!-- Node28 -->
<g id="node28" class="node"><title>Node28</title>
<g id="a_node28"><a xlink:href="$Scheduler_8h.html" xlink:title="Scheduler.h">
<polygon fill="white" stroke="black" points="119.559,-220.5 119.559,-238.5 188.381,-238.5 188.381,-220.5 119.559,-220.5"/>
<text text-anchor="middle" x="153.97" y="-226.5" font-family="Helvetica,sans-Serif" font-size="10.00">Scheduler.h</text>
</a>
</g>
</g>
<!-- Node3&#45;&gt;Node28 -->
<g id="edge55" class="edge"><title>Node3&#45;&gt;Node28</title>
<path fill="none" stroke="midnightblue" d="M645.818,-445.19C524.585,-437.294 232.777,-417.039 215.97,-404 166.712,-365.784 156.521,-285.189 154.462,-248.898"/>
<polygon fill="midnightblue" stroke="midnightblue" points="157.954,-248.627 154.04,-238.782 150.96,-248.919 157.954,-248.627"/>
</g>
<!-- Node29 -->
<g id="node29" class="node"><title>Node29</title>
<g id="a_node29"><a xlink:href="$Semaphores_8h.html" xlink:title="Semaphores.h">
<polygon fill="white" stroke="black" points="836.451,-330.5 836.451,-348.5 917.49,-348.5 917.49,-330.5 836.451,-330.5"/>
<text text-anchor="middle" x="876.97" y="-336.5" font-family="Helvetica,sans-Serif" font-size="10.00">Semaphores.h</text>
</a>
</g>
</g>
<!-- Node3&#45;&gt;Node29 -->
<g id="edge60" class="edge"><title>Node3&#45;&gt;Node29</title>
<path fill="none" stroke="midnightblue" d="M735.285,-440.446C761.195,-433.63 795.651,-422.036 821.97,-404 840.327,-391.421 856.339,-371.279 866.281,-357.058"/>
<polygon fill="midnightblue" stroke="midnightblue" points="869.222,-358.958 871.902,-348.707 863.415,-355.049 869.222,-358.958"/>
</g>
<!-- Node30 -->
<g id="node30" class="node"><title>Node30</title>
<g id="a_node30"><a xlink:href="$Util_8h.html" xlink:title="Util.h">
<polygon fill="white" stroke="black" points="1061.58,-220.5 1061.58,-238.5 1100.36,-238.5 1100.36,-220.5 1061.58,-220.5"/>
<text text-anchor="middle" x="1080.97" y="-226.5" font-family="Helvetica,sans-Serif" font-size="10.00">Util.h</text>
</a>
</g>
</g>
<!-- Node3&#45;&gt;Node30 -->
<g id="edge62" class="edge"><title>Node3&#45;&gt;Node30</title>
<path fill="none" stroke="midnightblue" d="M750.111,-445.751C821.815,-441.076 946.176,-429.485 982.97,-404 1038.4,-365.608 1066.23,-285.105 1076.36,-248.868"/>
<polygon fill="midnightblue" stroke="midnightblue" points="1079.86,-249.331 1079.04,-238.768 1073.09,-247.536 1079.86,-249.331"/>
</g>
<!-- Node7 -->
<g id="node7" class="node"><title>Node7</title>
<polygon fill="white" stroke="#bfbfbf" points="1009.57,-0.5 1009.57,-18.5 1058.37,-18.5 1058.37,-0.5 1009.57,-0.5"/>
<text text-anchor="middle" x="1033.97" y="-6.5" font-family="Helvetica,sans-Serif" font-size="10.00">string.h</text>
</g>
<!-- Node6&#45;&gt;Node7 -->
<g id="edge6" class="edge"><title>Node6&#45;&gt;Node7</title>
<path fill="none" stroke="midnightblue" d="M894.878,-55.4504C922.854,-46.4094 968.432,-31.6802 999.741,-21.5618"/>
<polygon fill="midnightblue" stroke="midnightblue" points="1000.93,-24.8572 1009.37,-18.4517 998.773,-18.1964 1000.93,-24.8572"/>
</g>
<!-- Node8 -->
<g id="node8" class="node"><title>Node8</title>
<g id="a_node8"><a xlink:href="$functor_8h.html" xlink:title="utility/functor.h">
<polygon fill="white" stroke="black" points="830.007,-0.5 830.007,-18.5 909.933,-18.5 909.933,-0.5 830.007,-0.5"/>
<text text-anchor="middle" x="869.97" y="-6.5" font-family="Helvetica,sans-Serif" font-size="10.00">utility/functor.h</text>
</a>
</g>
</g>
<!-- Node6&#45;&gt;Node8 -->
<g id="edge7" class="edge"><title>Node6&#45;&gt;Node8</title>
<path fill="none" stroke="midnightblue" d="M869.97,-55.2188C869.97,-48.1769 869.97,-37.8083 869.97,-28.8277"/>
<polygon fill="midnightblue" stroke="midnightblue" points="873.47,-28.5495 869.97,-18.5496 866.47,-28.5496 873.47,-28.5495"/>
</g>
<!-- Node11&#45;&gt;Node12 -->
<g id="edge11" class="edge"><title>Node11&#45;&gt;Node12</title>
<path fill="none" stroke="midnightblue" d="M734.814,-385.219C734.681,-378.177 734.485,-367.808 734.316,-358.828"/>
<polygon fill="midnightblue" stroke="midnightblue" points="737.81,-358.482 734.122,-348.55 730.811,-358.614 737.81,-358.482"/>
</g>
<!-- Node12&#45;&gt;Node6 -->
<g id="edge12" class="edge"><title>Node12&#45;&gt;Node6</title>
<path fill="none" stroke="midnightblue" d="M743.785,-330.27C753.065,-321.994 766.758,-308.424 774.97,-294 789.546,-268.4 793.97,-259.958 793.97,-230.5 793.97,-230.5 793.97,-230.5 793.97,-173.5 793.97,-143.329 800.633,-134.692 817.97,-110 826.292,-98.1482 838.476,-87.4953 848.958,-79.586"/>
<polygon fill="midnightblue" stroke="midnightblue" points="851.172,-82.3052 857.241,-73.6213 847.081,-76.6247 851.172,-82.3052"/>
</g>
<!-- Node12&#45;&gt;Node13 -->
<g id="edge13" class="edge"><title>Node12&#45;&gt;Node13</title>
<path fill="none" stroke="midnightblue" d="M756.134,-331.839C797.128,-319.647 887.669,-293.313 964.97,-275 1027.7,-260.14 1101.12,-246.133 1146.09,-237.936"/>
<polygon fill="midnightblue" stroke="midnightblue" points="1146.84,-241.356 1156.06,-236.128 1145.59,-234.468 1146.84,-241.356"/>
</g>
<!-- Node12&#45;&gt;Node15 -->
<g id="edge16" class="edge"><title>Node12&#45;&gt;Node15</title>
<path fill="none" stroke="midnightblue" d="M711.971,-336.633C682.276,-333.062 629.156,-322.834 594.97,-294 580.894,-282.127 572.055,-262.716 567.108,-248.476"/>
<polygon fill="midnightblue" stroke="midnightblue" points="570.404,-247.291 564.061,-238.805 563.728,-249.395 570.404,-247.291"/>
</g>
<!-- Node12&#45;&gt;Node16 -->
<g id="edge19" class="edge"><title>Node12&#45;&gt;Node16</title>
<path fill="none" stroke="midnightblue" d="M756.147,-334.163C801.701,-325.254 906.393,-304.779 964.409,-293.433"/>
<polygon fill="midnightblue" stroke="midnightblue" points="965.19,-296.846 974.332,-291.492 963.846,-289.977 965.19,-296.846"/>
</g>
<!-- Node12&#45;&gt;Node17 -->
<g id="edge21" class="edge"><title>Node12&#45;&gt;Node17</title>
<path fill="none" stroke="midnightblue" d="M755.886,-335.537C818.185,-327.114 997.221,-302.907 1081.32,-291.537"/>
<polygon fill="midnightblue" stroke="midnightblue" points="1081.89,-294.991 1091.33,-290.183 1080.95,-288.054 1081.89,-294.991"/>
</g>
<!-- Node12&#45;&gt;Node18 -->
<g id="edge23" class="edge"><title>Node12&#45;&gt;Node18</title>
<path fill="none" stroke="midnightblue" d="M733.814,-330.219C733.681,-323.177 733.485,-312.808 733.316,-303.828"/>
<polygon fill="midnightblue" stroke="midnightblue" points="736.81,-303.482 733.122,-293.55 729.811,-303.614 736.81,-303.482"/>
</g>
<!-- Node12&#45;&gt;Node19 -->
<g id="edge25" class="edge"><title>Node12&#45;&gt;Node19</title>
<path fill="none" stroke="midnightblue" d="M712.023,-334.516C663.024,-325.623 544.137,-304.044 481.727,-292.716"/>
<polygon fill="midnightblue" stroke="midnightblue" points="482.316,-289.266 471.851,-290.924 481.065,-296.153 482.316,-289.266"/>
</g>
<!-- Node12&#45;&gt;Node20 -->
<g id="edge28" class="edge"><title>Node12&#45;&gt;Node20</title>
<path fill="none" stroke="midnightblue" d="M720.149,-330.45C705.718,-322.045 682.846,-308.724 665.741,-298.762"/>
<polygon fill="midnightblue" stroke="midnightblue" points="667.324,-295.634 656.921,-293.625 663.801,-301.683 667.324,-295.634"/>
</g>
<!-- Node13&#45;&gt;Node6 -->
<g id="edge15" class="edge"><title>Node13&#45;&gt;Node6</title>
<path fill="none" stroke="midnightblue" d="M1187.46,-220.3C1185.63,-198.492 1177.45,-138.772 1141.97,-110 1111.9,-85.6197 1011.2,-74.2817 941.149,-69.2386"/>
<polygon fill="midnightblue" stroke="midnightblue" points="941.267,-65.7385 931.049,-68.5395 940.783,-72.7218 941.267,-65.7385"/>
</g>
<!-- Node14 -->
<g id="node14" class="node"><title>Node14</title>
<polygon fill="white" stroke="#bfbfbf" points="1263.57,-55.5 1263.57,-73.5 1322.37,-73.5 1322.37,-55.5 1263.57,-55.5"/>
<text text-anchor="middle" x="1292.97" y="-61.5" font-family="Helvetica,sans-Serif" font-size="10.00">inttypes.h</text>
</g>
<!-- Node13&#45;&gt;Node14 -->
<g id="edge14" class="edge"><title>Node13&#45;&gt;Node14</title>
<path fill="none" stroke="midnightblue" d="M1211.85,-220.463C1229.39,-213.414 1252.59,-201.525 1266.97,-184 1290.72,-155.052 1294.02,-109.164 1293.82,-83.8233"/>
<polygon fill="midnightblue" stroke="midnightblue" points="1297.32,-83.6606 1293.55,-73.7607 1290.32,-83.8532 1297.32,-83.6606"/>
</g>
<!-- Node15&#45;&gt;Node4 -->
<g id="edge17" class="edge"><title>Node15&#45;&gt;Node4</title>
<path fill="none" stroke="midnightblue" d="M550.904,-220.36C539.361,-211.721 520.902,-197.482 505.97,-184 488.897,-168.584 470.65,-149.552 458.406,-136.365"/>
<polygon fill="midnightblue" stroke="midnightblue" points="460.646,-133.629 451.299,-128.639 455.494,-138.369 460.646,-133.629"/>
</g>
<!-- Node15&#45;&gt;Node6 -->
<g id="edge18" class="edge"><title>Node15&#45;&gt;Node6</title>
<path fill="none" stroke="midnightblue" d="M586.751,-222.059C608.373,-215.426 639.552,-203.3 660.97,-184 689.229,-158.537 673.761,-133.116 703.97,-110 731.125,-89.2213 767.232,-78.1284 798.836,-72.2134"/>
<polygon fill="midnightblue" stroke="midnightblue" points="799.664,-75.6222 808.922,-70.4692 798.471,-68.7246 799.664,-75.6222"/>
</g>
<!-- Node16&#45;&gt;Node6 -->
<g id="edge20" class="edge"><title>Node16&#45;&gt;Node6</title>
<path fill="none" stroke="midnightblue" d="M1008.86,-275.385C1014.23,-263.016 1022.43,-238.891 1014.97,-220 989.781,-156.247 924.433,-103.443 890.737,-79.4295"/>
<polygon fill="midnightblue" stroke="midnightblue" points="892.718,-76.5438 882.513,-73.6942 888.714,-82.2854 892.718,-76.5438"/>
</g>
<!-- Node17&#45;&gt;Node6 -->
<g id="edge22" class="edge"><title>Node17&#45;&gt;Node6</title>
<path fill="none" stroke="midnightblue" d="M1124.88,-275.287C1120.53,-246.218 1101.49,-147.921 1038.97,-110 1009.48,-92.1102 972.846,-81.3336 941.235,-74.8805"/>
<polygon fill="midnightblue" stroke="midnightblue" points="941.646,-71.3953 931.164,-72.9337 940.318,-78.268 941.646,-71.3953"/>
</g>
<!-- Node18&#45;&gt;Node6 -->
<g id="edge24" class="edge"><title>Node18&#45;&gt;Node6</title>
<path fill="none" stroke="midnightblue" d="M732.926,-275.188C733.211,-248.168 737.559,-161.588 779.97,-110 792.672,-94.5493 812.07,-84.0089 829.609,-77.0812"/>
<polygon fill="midnightblue" stroke="midnightblue" points="830.925,-80.3266 839.107,-73.5959 828.513,-73.7551 830.925,-80.3266"/>
</g>
<!-- Node19&#45;&gt;Node4 -->
<g id="edge26" class="edge"><title>Node19&#45;&gt;Node4</title>
<path fill="none" stroke="midnightblue" d="M442.072,-275.193C442.381,-250.013 443.312,-174.114 443.745,-138.862"/>
<polygon fill="midnightblue" stroke="midnightblue" points="447.248,-138.639 443.871,-128.597 440.248,-138.553 447.248,-138.639"/>
</g>
<!-- Node19&#45;&gt;Node6 -->
<g id="edge27" class="edge"><title>Node19&#45;&gt;Node6</title>
<path fill="none" stroke="midnightblue" d="M447.942,-275.158C457.219,-262.491 476.006,-237.983 494.97,-220 554.182,-163.852 567.382,-143.093 641.97,-110 691.77,-87.9051 752.5,-76.7374 798.757,-71.117"/>
<polygon fill="midnightblue" stroke="midnightblue" points="799.165,-74.5933 808.696,-69.9673 798.36,-67.6397 799.165,-74.5933"/>
</g>
<!-- Node20&#45;&gt;Node4 -->
<g id="edge29" class="edge"><title>Node20&#45;&gt;Node4</title>
<path fill="none" stroke="midnightblue" d="M641.995,-275.166C640.079,-262.07 634.736,-236.473 620.97,-220 599.85,-194.726 515.253,-153.333 471.102,-132.82"/>
<polygon fill="midnightblue" stroke="midnightblue" points="472.37,-129.551 461.824,-128.54 469.438,-135.907 472.37,-129.551"/>
</g>
<!-- Node20&#45;&gt;Node6 -->
<g id="edge34" class="edge"><title>Node20&#45;&gt;Node6</title>
<path fill="none" stroke="midnightblue" d="M646.561,-275.393C658.954,-248.271 702.559,-159.624 763.97,-110 783,-94.6225 808.111,-83.7682 829.115,-76.6314"/>
<polygon fill="midnightblue" stroke="midnightblue" points="830.307,-79.9244 838.745,-73.5171 828.153,-73.2641 830.307,-79.9244"/>
</g>
<!-- Node21 -->
<g id="node21" class="node"><title>Node21</title>
<g id="a_node21"><a xlink:href="$AP__Common_8h.html" xlink:title="Common definitions and utility routines for the ArduPilot libraries. ">
<polygon fill="white" stroke="black" points="231.943,-165.5 231.943,-183.5 377.997,-183.5 377.997,-165.5 231.943,-165.5"/>
<text text-anchor="middle" x="304.97" y="-171.5" font-family="Helvetica,sans-Serif" font-size="10.00">AP_Common/AP_Common.h</text>
</a>
</g>
</g>
<!-- Node20&#45;&gt;Node21 -->
<g id="edge30" class="edge"><title>Node20&#45;&gt;Node21</title>
<path fill="none" stroke="midnightblue" d="M639.457,-275.258C633.048,-261.32 618.051,-233.316 595.97,-220 561.904,-199.455 461.657,-187.441 388.318,-181.18"/>
<polygon fill="midnightblue" stroke="midnightblue" points="388.414,-177.676 378.158,-180.335 387.833,-184.652 388.414,-177.676"/>
</g>
<!-- Node20&#45;&gt;Node23 -->
<g id="edge35" class="edge"><title>Node20&#45;&gt;Node23</title>
<path fill="none" stroke="midnightblue" d="M681.739,-276.613C684.862,-276.065 687.969,-275.522 690.97,-275 760.958,-262.837 841.56,-249.142 894.456,-240.198"/>
<polygon fill="midnightblue" stroke="midnightblue" points="895.051,-243.647 904.328,-238.529 893.885,-236.745 895.051,-243.647"/>
</g>
<!-- Node21&#45;&gt;Node4 -->
<g id="edge31" class="edge"><title>Node21&#45;&gt;Node4</title>
<path fill="none" stroke="midnightblue" d="M326.081,-165.45C349.248,-156.617 386.653,-142.355 413.11,-132.267"/>
<polygon fill="midnightblue" stroke="midnightblue" points="414.564,-135.458 422.66,-128.625 412.07,-128.918 414.564,-135.458"/>
</g>
<!-- Node21&#45;&gt;Node5 -->
<g id="edge33" class="edge"><title>Node21&#45;&gt;Node5</title>
<path fill="none" stroke="midnightblue" d="M291.909,-165.45C278.396,-157.123 257.054,-143.97 240.94,-134.039"/>
<polygon fill="midnightblue" stroke="midnightblue" points="242.504,-130.892 232.155,-128.625 238.832,-136.851 242.504,-130.892"/>
</g>
<!-- Node22 -->
<g id="node22" class="node"><title>Node22</title>
<polygon fill="white" stroke="#bfbfbf" points="281.128,-110.5 281.128,-128.5 328.812,-128.5 328.812,-110.5 281.128,-110.5"/>
<text text-anchor="middle" x="304.97" y="-116.5" font-family="Helvetica,sans-Serif" font-size="10.00">stdlib.h</text>
</g>
<!-- Node21&#45;&gt;Node22 -->
<g id="edge32" class="edge"><title>Node21&#45;&gt;Node22</title>
<path fill="none" stroke="midnightblue" d="M304.97,-165.219C304.97,-158.177 304.97,-147.808 304.97,-138.828"/>
<polygon fill="midnightblue" stroke="midnightblue" points="308.47,-138.55 304.97,-128.55 301.47,-138.55 308.47,-138.55"/>
</g>
<!-- Node23&#45;&gt;Node6 -->
<g id="edge38" class="edge"><title>Node23&#45;&gt;Node6</title>
<path fill="none" stroke="midnightblue" d="M947.791,-220.193C935.014,-194.794 896.276,-117.791 878.75,-82.9517"/>
<polygon fill="midnightblue" stroke="midnightblue" points="881.664,-80.9575 874.044,-73.5971 875.411,-84.1033 881.664,-80.9575"/>
</g>
<!-- Node23&#45;&gt;Node21 -->
<g id="edge37" class="edge"><title>Node23&#45;&gt;Node21</title>
<path fill="none" stroke="midnightblue" d="M897.365,-224.027C784.09,-214.748 522.928,-193.354 388.406,-182.335"/>
<polygon fill="midnightblue" stroke="midnightblue" points="388.408,-178.823 378.155,-181.495 387.836,-185.8 388.408,-178.823"/>
</g>
<!-- Node24 -->
<g id="node24" class="node"><title>Node24</title>
<polygon fill="white" stroke="#bfbfbf" points="1009.9,-165.5 1009.9,-183.5 1062.04,-183.5 1062.04,-165.5 1009.9,-165.5"/>
<text text-anchor="middle" x="1035.97" y="-171.5" font-family="Helvetica,sans-Serif" font-size="10.00">stdarg.h</text>
</g>
<!-- Node23&#45;&gt;Node24 -->
<g id="edge36" class="edge"><title>Node23&#45;&gt;Node24</title>
<path fill="none" stroke="midnightblue" d="M964.728,-220.45C977.926,-212.123 998.772,-198.97 1014.51,-189.039"/>
<polygon fill="midnightblue" stroke="midnightblue" points="1016.5,-191.922 1023.09,-183.625 1012.77,-186.001 1016.5,-191.922"/>
</g>
<!-- Node23&#45;&gt;Node25 -->
<g id="edge39" class="edge"><title>Node23&#45;&gt;Node25</title>
<path fill="none" stroke="midnightblue" d="M994.192,-220.45C1047.77,-210.237 1139.42,-192.764 1191.26,-182.88"/>
<polygon fill="midnightblue" stroke="midnightblue" points="1192.21,-186.261 1201.38,-180.95 1190.9,-179.385 1192.21,-186.261"/>
</g>
<!-- Node25&#45;&gt;Node6 -->
<g id="edge40" class="edge"><title>Node25&#45;&gt;Node6</title>
<path fill="none" stroke="midnightblue" d="M1226.1,-165.229C1219.08,-151.248 1202.82,-123.18 1179.97,-110 1140.53,-87.2513 1020.01,-75.2217 941.385,-69.6225"/>
<polygon fill="midnightblue" stroke="midnightblue" points="941.277,-66.1067 931.059,-68.9068 940.793,-73.0899 941.277,-66.1067"/>
</g>
<!-- Node25&#45;&gt;Node26 -->
<g id="edge41" class="edge"><title>Node25&#45;&gt;Node26</title>
<path fill="none" stroke="midnightblue" d="M1233.72,-165.219C1237.02,-157.942 1241.92,-147.113 1246.08,-137.934"/>
<polygon fill="midnightblue" stroke="midnightblue" points="1249.39,-139.103 1250.33,-128.55 1243.01,-136.215 1249.39,-139.103"/>
</g>
<!-- Node26&#45;&gt;Node6 -->
<g id="edge42" class="edge"><title>Node26&#45;&gt;Node6</title>
<path fill="none" stroke="midnightblue" d="M1231.19,-112.742C1226.82,-111.745 1222.27,-110.78 1217.97,-110 1122.72,-92.7145 1011.61,-79.74 941.042,-72.3861"/>
<polygon fill="midnightblue" stroke="midnightblue" points="941.238,-68.8878 930.931,-71.342 940.519,-75.8508 941.238,-68.8878"/>
</g>
<!-- Node26&#45;&gt;Node7 -->
<g id="edge44" class="edge"><title>Node26&#45;&gt;Node7</title>
<path fill="none" stroke="midnightblue" d="M1237.43,-110.382C1199.36,-91.6901 1105.26,-45.4989 1059.62,-23.0923"/>
<polygon fill="midnightblue" stroke="midnightblue" points="1060.92,-19.8294 1050.4,-18.5644 1057.83,-26.1131 1060.92,-19.8294"/>
</g>
<!-- Node26&#45;&gt;Node14 -->
<g id="edge43" class="edge"><title>Node26&#45;&gt;Node14</title>
<path fill="none" stroke="midnightblue" d="M1260.06,-110.219C1265.65,-102.629 1274.08,-91.1753 1281.01,-81.7597"/>
<polygon fill="midnightblue" stroke="midnightblue" points="1283.94,-83.6784 1287.05,-73.5496 1278.3,-79.5296 1283.94,-83.6784"/>
</g>
<!-- Node27&#45;&gt;Node4 -->
<g id="edge47" class="edge"><title>Node27&#45;&gt;Node4</title>
<path fill="none" stroke="midnightblue" d="M592.391,-165.45C561.803,-156.187 511.496,-140.951 478.053,-130.822"/>
<polygon fill="midnightblue" stroke="midnightblue" points="478.841,-127.404 468.256,-127.855 476.812,-134.103 478.841,-127.404"/>
</g>
<!-- Node27&#45;&gt;Node6 -->
<g id="edge48" class="edge"><title>Node27&#45;&gt;Node6</title>
<path fill="none" stroke="midnightblue" d="M622.574,-165.404C629.121,-151.686 644.32,-124.006 665.97,-110 705.476,-84.4436 757.363,-73.3629 798.922,-68.6486"/>
<polygon fill="midnightblue" stroke="midnightblue" points="799.391,-72.1188 808.978,-67.6078 798.671,-65.156 799.391,-72.1188"/>
</g>
<!-- Node28&#45;&gt;Node4 -->
<g id="edge56" class="edge"><title>Node28&#45;&gt;Node4</title>
<path fill="none" stroke="midnightblue" d="M160.217,-220.381C171.271,-206.629 195.701,-178.897 222.97,-165 283.824,-133.988 364.408,-124.578 409.545,-121.73"/>
<polygon fill="midnightblue" stroke="midnightblue" points="409.899,-125.215 419.689,-121.163 409.509,-118.226 409.899,-125.215"/>
</g>
<!-- Node28&#45;&gt;Node6 -->
<g id="edge59" class="edge"><title>Node28&#45;&gt;Node6</title>
<path fill="none" stroke="midnightblue" d="M152.982,-220.242C150.869,-198.291 148.549,-138.246 181.97,-110 228.281,-70.8603 632.327,-65.801 798.776,-65.3925"/>
<polygon fill="midnightblue" stroke="midnightblue" points="798.92,-68.8924 808.913,-65.3727 798.906,-61.8924 798.92,-68.8924"/>
</g>
<!-- Node28&#45;&gt;Node9 -->
<g id="edge58" class="edge"><title>Node28&#45;&gt;Node9</title>
<path fill="none" stroke="midnightblue" d="M138.175,-220.45C121.376,-211.89 94.5707,-198.229 74.9143,-188.212"/>
<polygon fill="midnightblue" stroke="midnightblue" points="76.4132,-185.047 65.9142,-183.625 73.2348,-191.284 76.4132,-185.047"/>
</g>
<!-- Node28&#45;&gt;Node21 -->
<g id="edge57" class="edge"><title>Node28&#45;&gt;Node21</title>
<path fill="none" stroke="midnightblue" d="M176.904,-220.45C202.292,-211.539 243.422,-197.103 272.202,-187.001"/>
<polygon fill="midnightblue" stroke="midnightblue" points="273.544,-190.24 281.821,-183.625 271.226,-183.635 273.544,-190.24"/>
</g>
<!-- Node29&#45;&gt;Node6 -->
<g id="edge61" class="edge"><title>Node29&#45;&gt;Node6</title>
<path fill="none" stroke="midnightblue" d="M876.084,-330.383C874.2,-312.411 869.97,-267.891 869.97,-230.5 869.97,-230.5 869.97,-230.5 869.97,-173.5 869.97,-142.018 869.97,-105.373 869.97,-83.881"/>
<polygon fill="midnightblue" stroke="midnightblue" points="873.47,-83.6288 869.97,-73.6289 866.47,-83.6289 873.47,-83.6288"/>
</g>
<!-- Node30&#45;&gt;Node6 -->
<g id="edge64" class="edge"><title>Node30&#45;&gt;Node6</title>
<path fill="none" stroke="midnightblue" d="M1081.58,-220.418C1082.15,-207.669 1081.65,-182.537 1070.97,-165 1039.86,-113.931 973.74,-88.326 925.81,-76.0126"/>
<polygon fill="midnightblue" stroke="midnightblue" points="926.423,-72.5594 915.877,-73.5824 924.759,-79.3588 926.423,-72.5594"/>
</g>
<!-- Node30&#45;&gt;Node24 -->
<g id="edge63" class="edge"><title>Node30&#45;&gt;Node24</title>
<path fill="none" stroke="midnightblue" d="M1073.94,-220.219C1067.36,-212.473 1057.37,-200.701 1049.28,-191.18"/>
<polygon fill="midnightblue" stroke="midnightblue" points="1051.95,-188.907 1042.8,-183.55 1046.61,-193.438 1051.95,-188.907"/>
</g>
<!-- Node31&#45;&gt;Node3 -->
<g id="edge70" class="edge"><title>Node31&#45;&gt;Node3</title>
<path fill="none" stroke="midnightblue" d="M614.006,-495.45C629.924,-486.929 655.282,-473.353 673.97,-463.349"/>
<polygon fill="midnightblue" stroke="midnightblue" points="675.629,-466.431 682.793,-458.625 672.325,-460.259 675.629,-466.431"/>
</g>
<!-- Node32 -->
<g id="node32" class="node"><title>Node32</title>
<g id="a_node32"><a xlink:href="$AP__HAL__Linux__Namespace_8h.html" xlink:title="AP_HAL_Linux_Namespace.h">
<polygon fill="white" stroke="black" points="404.429,-440.5 404.429,-458.5 555.512,-458.5 555.512,-440.5 404.429,-440.5"/>
<text text-anchor="middle" x="479.97" y="-446.5" font-family="Helvetica,sans-Serif" font-size="10.00">AP_HAL_Linux_Namespace.h</text>
</a>
</g>
</g>
<!-- Node31&#45;&gt;Node32 -->
<g id="edge71" class="edge"><title>Node31&#45;&gt;Node32</title>
<path fill="none" stroke="midnightblue" d="M580.897,-495.45C561.413,-486.773 530.165,-472.856 507.596,-462.804"/>
<polygon fill="midnightblue" stroke="midnightblue" points="508.773,-459.497 498.214,-458.625 505.925,-465.891 508.773,-459.497"/>
</g>
<!-- Node33&#45;&gt;Node2 -->
<g id="edge74" class="edge"><title>Node33&#45;&gt;Node2</title>
<path fill="none" stroke="midnightblue" d="M611.283,-605.219C616.101,-597.707 623.348,-586.411 629.352,-577.052"/>
<polygon fill="midnightblue" stroke="midnightblue" points="632.353,-578.856 634.806,-568.55 626.461,-575.077 632.353,-578.856"/>
</g>
<!-- Node33&#45;&gt;Node3 -->
<g id="edge73" class="edge"><title>Node33&#45;&gt;Node3</title>
<path fill="none" stroke="midnightblue" d="M636.058,-605.457C655.532,-598.76 679.966,-587.303 694.97,-569 716.245,-543.048 714.377,-528.267 709.97,-495 708.785,-486.056 706.317,-476.359 703.925,-468.306"/>
<polygon fill="midnightblue" stroke="midnightblue" points="707.196,-467.045 700.838,-458.57 700.524,-469.161 707.196,-467.045"/>
</g>
<!-- Node34 -->
<g id="node34" class="node"><title>Node34</title>
<g id="a_node34"><a xlink:href="$Linux_2Util_8h.html" xlink:title="Util.h">
<polygon fill="white" stroke="black" points="460.579,-550.5 460.579,-568.5 499.362,-568.5 499.362,-550.5 460.579,-550.5"/>
<text text-anchor="middle" x="479.97" y="-556.5" font-family="Helvetica,sans-Serif" font-size="10.00">Util.h</text>
</a>
</g>
</g>
<!-- Node33&#45;&gt;Node34 -->
<g id="edge75" class="edge"><title>Node33&#45;&gt;Node34</title>
<path fill="none" stroke="midnightblue" d="M586.834,-605.45C566.019,-596.695 532.523,-582.606 508.581,-572.535"/>
<polygon fill="midnightblue" stroke="midnightblue" points="509.862,-569.276 499.287,-568.625 507.148,-575.729 509.862,-569.276"/>
</g>
<!-- Node34&#45;&gt;Node3 -->
<g id="edge77" class="edge"><title>Node34&#45;&gt;Node3</title>
<path fill="none" stroke="midnightblue" d="M499.609,-558.414C535.069,-557.305 610.671,-550.472 659.97,-514 675.595,-502.441 686.023,-482.368 691.94,-467.881"/>
<polygon fill="midnightblue" stroke="midnightblue" points="695.216,-469.112 695.461,-458.52 688.664,-466.648 695.216,-469.112"/>
</g>
<!-- Node34&#45;&gt;Node21 -->
<g id="edge76" class="edge"><title>Node34&#45;&gt;Node21</title>
<path fill="none" stroke="midnightblue" d="M460.309,-557.52C379.599,-552.975 77.9702,-530.625 77.9702,-450.5 77.9702,-450.5 77.9702,-450.5 77.9702,-393.5 77.9702,-336.565 228.4,-227.861 284.343,-189.403"/>
<polygon fill="midnightblue" stroke="midnightblue" points="286.479,-192.183 292.766,-183.655 282.533,-186.402 286.479,-192.183"/>
</g>
<!-- Node34&#45;&gt;Node32 -->
<g id="edge78" class="edge"><title>Node34&#45;&gt;Node32</title>
<path fill="none" stroke="midnightblue" d="M462.148,-550.417C448.366,-543.087 430.279,-530.846 421.97,-514 411.948,-493.678 434.19,-475.135 453.966,-463.403"/>
<polygon fill="midnightblue" stroke="midnightblue" points="455.72,-466.433 462.754,-458.51 452.314,-460.317 455.72,-466.433"/>
</g>
<!-- Node35 -->
<g id="node35" class="node"><title>Node35</title>
<g id="a_node35"><a xlink:href="$ToneAlarmDriver_8h.html" xlink:title="ToneAlarmDriver.h">
<polygon fill="white" stroke="black" points="430.842,-495.5 430.842,-513.5 529.098,-513.5 529.098,-495.5 430.842,-495.5"/>
<text text-anchor="middle" x="479.97" y="-501.5" font-family="Helvetica,sans-Serif" font-size="10.00">ToneAlarmDriver.h</text>
</a>
</g>
</g>
<!-- Node34&#45;&gt;Node35 -->
<g id="edge79" class="edge"><title>Node34&#45;&gt;Node35</title>
<path fill="none" stroke="midnightblue" d="M479.97,-550.219C479.97,-543.177 479.97,-532.808 479.97,-523.828"/>
<polygon fill="midnightblue" stroke="midnightblue" points="483.47,-523.55 479.97,-513.55 476.47,-523.55 483.47,-523.55"/>
</g>
<!-- Node35&#45;&gt;Node3 -->
<g id="edge80" class="edge"><title>Node35&#45;&gt;Node3</title>
<path fill="none" stroke="midnightblue" d="M513.08,-495.45C551.043,-486.221 613.388,-471.063 655.049,-460.935"/>
<polygon fill="midnightblue" stroke="midnightblue" points="656.017,-464.302 664.907,-458.538 654.363,-457.5 656.017,-464.302"/>
</g>
<!-- Node35&#45;&gt;Node32 -->
<g id="edge81" class="edge"><title>Node35&#45;&gt;Node32</title>
<path fill="none" stroke="midnightblue" d="M479.97,-495.219C479.97,-488.177 479.97,-477.808 479.97,-468.828"/>
<polygon fill="midnightblue" stroke="midnightblue" points="483.47,-468.55 479.97,-458.55 476.47,-468.55 483.47,-468.55"/>
</g>
</g>
</svg>
