<?xml version="1.0" encoding="UTF-8" standalone="no"?>
<!DOCTYPE svg PUBLIC "-//W3C//DTD SVG 1.1//EN"
 "http://www.w3.org/Graphics/SVG/1.1/DTD/svg11.dtd">
<!-- Generated by graphviz version 2.38.0 (20140413.2041)
 -->
<!-- Title: libraries/AP_HAL_Linux/RCOutput_Raspilot.h Pages: 1 -->
<svg width="282pt" height="167pt"
 viewBox="0.00 0.00 281.73 167.00" xmlns="http://www.w3.org/2000/svg" xmlns:xlink="http://www.w3.org/1999/xlink">
<g id="graph0" class="graph" transform="scale(1 1) rotate(0) translate(4 163)">
<title>libraries/AP_HAL_Linux/RCOutput_Raspilot.h</title>
<polygon fill="white" stroke="none" points="-4,4 -4,-163 277.729,-163 277.729,4 -4,4"/>
<!-- Node1 -->
<g id="node1" class="node"><title>Node1</title>
<polygon fill="#bfbfbf" stroke="black" points="78.0073,-130.5 78.0073,-158.5 199.618,-158.5 199.618,-130.5 78.0073,-130.5"/>
<text text-anchor="start" x="86.0073" y="-146.5" font-family="Helvetica,sans-Serif" font-size="10.00">libraries/AP_HAL_Linux</text>
<text text-anchor="middle" x="138.812" y="-136.5" font-family="Helvetica,sans-Serif" font-size="10.00">/RCOutput_Raspilot.h</text>
</g>
<!-- Node2 -->
<g id="node2" class="node"><title>Node2</title>
<g id="a_node2"><a xlink:href="$AP__HAL__Linux__Private_8h.html" xlink:title="libraries/AP_HAL_Linux\l/AP_HAL_Linux_Private.h">
<polygon fill="white" stroke="black" points="0,-65.5 0,-93.5 131.625,-93.5 131.625,-65.5 0,-65.5"/>
<text text-anchor="start" x="8" y="-81.5" font-family="Helvetica,sans-Serif" font-size="10.00">libraries/AP_HAL_Linux</text>
<text text-anchor="middle" x="65.8125" y="-71.5" font-family="Helvetica,sans-Serif" font-size="10.00">/AP_HAL_Linux_Private.h</text>
</a>
</g>
</g>
<!-- Node1&#45;&gt;Node2 -->
<g id="edge1" class="edge"><title>Node1&#45;&gt;Node2</title>
<path fill="none" stroke="midnightblue" d="M115.83,-123.665C104.436,-113.833 90.9961,-102.234 80.9188,-93.5369"/>
<polygon fill="midnightblue" stroke="midnightblue" points="113.83,-126.563 123.687,-130.446 118.403,-121.263 113.83,-126.563"/>
</g>
<!-- Node4 -->
<g id="node4" class="node"><title>Node4</title>
<g id="a_node4"><a xlink:href="$RCOutput__Raspilot_8cpp.html" xlink:title="libraries/AP_HAL_Linux\l/RCOutput_Raspilot.cpp">
<polygon fill="white" stroke="black" points="149.896,-65.5 149.896,-93.5 273.729,-93.5 273.729,-65.5 149.896,-65.5"/>
<text text-anchor="start" x="157.896" y="-81.5" font-family="Helvetica,sans-Serif" font-size="10.00">libraries/AP_HAL_Linux</text>
<text text-anchor="middle" x="211.812" y="-71.5" font-family="Helvetica,sans-Serif" font-size="10.00">/RCOutput_Raspilot.cpp</text>
</a>
</g>
</g>
<!-- Node1&#45;&gt;Node4 -->
<g id="edge3" class="edge"><title>Node1&#45;&gt;Node4</title>
<path fill="none" stroke="midnightblue" d="M161.795,-123.665C173.189,-113.833 186.629,-102.234 196.706,-93.5369"/>
<polygon fill="midnightblue" stroke="midnightblue" points="159.222,-121.263 153.938,-130.446 163.795,-126.563 159.222,-121.263"/>
</g>
<!-- Node3 -->
<g id="node3" class="node"><title>Node3</title>
<g id="a_node3"><a xlink:href="$HAL__Linux__Class_8cpp.html" xlink:title="libraries/AP_HAL_Linux\l/HAL_Linux_Class.cpp">
<polygon fill="white" stroke="black" points="5.00732,-0.5 5.00732,-28.5 126.618,-28.5 126.618,-0.5 5.00732,-0.5"/>
<text text-anchor="start" x="13.0073" y="-16.5" font-family="Helvetica,sans-Serif" font-size="10.00">libraries/AP_HAL_Linux</text>
<text text-anchor="middle" x="65.8125" y="-6.5" font-family="Helvetica,sans-Serif" font-size="10.00">/HAL_Linux_Class.cpp</text>
</a>
</g>
</g>
<!-- Node2&#45;&gt;Node3 -->
<g id="edge2" class="edge"><title>Node2&#45;&gt;Node3</title>
<path fill="none" stroke="midnightblue" d="M65.8125,-55.1641C65.8125,-46.1693 65.8125,-36.2205 65.8125,-28.5369"/>
<polygon fill="midnightblue" stroke="midnightblue" points="62.3126,-55.4463 65.8125,-65.4464 69.3126,-55.4464 62.3126,-55.4463"/>
</g>
</g>
</svg>
