<?xml version="1.0" encoding="UTF-8" standalone="no"?>
<!DOCTYPE svg PUBLIC "-//W3C//DTD SVG 1.1//EN"
 "http://www.w3.org/Graphics/SVG/1.1/DTD/svg11.dtd">
<!-- Generated by graphviz version 2.38.0 (20140413.2041)
 -->
<!-- Title: libraries/AP_HAL_Linux/RCOutput_Bebop.h Pages: 1 -->
<svg width="440pt" height="167pt"
 viewBox="0.00 0.00 439.90 167.00" xmlns="http://www.w3.org/2000/svg" xmlns:xlink="http://www.w3.org/1999/xlink">
<g id="graph0" class="graph" transform="scale(1 1) rotate(0) translate(4 163)">
<title>libraries/AP_HAL_Linux/RCOutput_Bebop.h</title>
<polygon fill="white" stroke="none" points="-4,4 -4,-163 435.901,-163 435.901,4 -4,4"/>
<!-- Node1 -->
<g id="node1" class="node"><title>Node1</title>
<polygon fill="#bfbfbf" stroke="black" points="165.291,-130.5 165.291,-158.5 286.901,-158.5 286.901,-130.5 165.291,-130.5"/>
<text text-anchor="start" x="173.291" y="-146.5" font-family="Helvetica,sans-Serif" font-size="10.00">libraries/AP_HAL_Linux</text>
<text text-anchor="middle" x="226.096" y="-136.5" font-family="Helvetica,sans-Serif" font-size="10.00">/RCOutput_Bebop.h</text>
</g>
<!-- Node2 -->
<g id="node2" class="node"><title>Node2</title>
<g id="a_node2"><a xlink:href="$AP__BattMonitor__Bebop_8cpp.html" xlink:title="libraries/AP_BattMonitor\l/AP_BattMonitor_Bebop.cpp">
<polygon fill="white" stroke="black" points="0,-65.5 0,-93.5 142.191,-93.5 142.191,-65.5 0,-65.5"/>
<text text-anchor="start" x="8" y="-81.5" font-family="Helvetica,sans-Serif" font-size="10.00">libraries/AP_BattMonitor</text>
<text text-anchor="middle" x="71.0957" y="-71.5" font-family="Helvetica,sans-Serif" font-size="10.00">/AP_BattMonitor_Bebop.cpp</text>
</a>
</g>
</g>
<!-- Node1&#45;&gt;Node2 -->
<g id="edge1" class="edge"><title>Node1&#45;&gt;Node2</title>
<path fill="none" stroke="midnightblue" d="M184.547,-126.613C158.997,-116.228 126.749,-103.12 103.171,-93.5369"/>
<polygon fill="midnightblue" stroke="midnightblue" points="183.398,-129.923 193.98,-130.446 186.033,-123.439 183.398,-129.923"/>
</g>
<!-- Node3 -->
<g id="node3" class="node"><title>Node3</title>
<g id="a_node3"><a xlink:href="$AP__HAL__Linux__Private_8h.html" xlink:title="libraries/AP_HAL_Linux\l/AP_HAL_Linux_Private.h">
<polygon fill="white" stroke="black" points="160.283,-65.5 160.283,-93.5 291.908,-93.5 291.908,-65.5 160.283,-65.5"/>
<text text-anchor="start" x="168.283" y="-81.5" font-family="Helvetica,sans-Serif" font-size="10.00">libraries/AP_HAL_Linux</text>
<text text-anchor="middle" x="226.096" y="-71.5" font-family="Helvetica,sans-Serif" font-size="10.00">/AP_HAL_Linux_Private.h</text>
</a>
</g>
</g>
<!-- Node1&#45;&gt;Node3 -->
<g id="edge2" class="edge"><title>Node1&#45;&gt;Node3</title>
<path fill="none" stroke="midnightblue" d="M226.096,-120.164C226.096,-111.169 226.096,-101.221 226.096,-93.5369"/>
<polygon fill="midnightblue" stroke="midnightblue" points="222.596,-120.446 226.096,-130.446 229.596,-120.446 222.596,-120.446"/>
</g>
<!-- Node5 -->
<g id="node5" class="node"><title>Node5</title>
<g id="a_node5"><a xlink:href="$RCOutput__Bebop_8cpp.html" xlink:title="libraries/AP_HAL_Linux\l/RCOutput_Bebop.cpp">
<polygon fill="white" stroke="black" points="310.291,-65.5 310.291,-93.5 431.901,-93.5 431.901,-65.5 310.291,-65.5"/>
<text text-anchor="start" x="318.291" y="-81.5" font-family="Helvetica,sans-Serif" font-size="10.00">libraries/AP_HAL_Linux</text>
<text text-anchor="middle" x="371.096" y="-71.5" font-family="Helvetica,sans-Serif" font-size="10.00">/RCOutput_Bebop.cpp</text>
</a>
</g>
</g>
<!-- Node1&#45;&gt;Node5 -->
<g id="edge4" class="edge"><title>Node1&#45;&gt;Node5</title>
<path fill="none" stroke="midnightblue" d="M265.597,-126.337C289.397,-115.997 319.227,-103.036 341.09,-93.5369"/>
<polygon fill="midnightblue" stroke="midnightblue" points="263.917,-123.251 256.14,-130.446 266.706,-129.671 263.917,-123.251"/>
</g>
<!-- Node4 -->
<g id="node4" class="node"><title>Node4</title>
<g id="a_node4"><a xlink:href="$HAL__Linux__Class_8cpp.html" xlink:title="libraries/AP_HAL_Linux\l/HAL_Linux_Class.cpp">
<polygon fill="white" stroke="black" points="165.291,-0.5 165.291,-28.5 286.901,-28.5 286.901,-0.5 165.291,-0.5"/>
<text text-anchor="start" x="173.291" y="-16.5" font-family="Helvetica,sans-Serif" font-size="10.00">libraries/AP_HAL_Linux</text>
<text text-anchor="middle" x="226.096" y="-6.5" font-family="Helvetica,sans-Serif" font-size="10.00">/HAL_Linux_Class.cpp</text>
</a>
</g>
</g>
<!-- Node3&#45;&gt;Node4 -->
<g id="edge3" class="edge"><title>Node3&#45;&gt;Node4</title>
<path fill="none" stroke="midnightblue" d="M226.096,-55.1641C226.096,-46.1693 226.096,-36.2205 226.096,-28.5369"/>
<polygon fill="midnightblue" stroke="midnightblue" points="222.596,-55.4463 226.096,-65.4464 229.596,-55.4464 222.596,-55.4463"/>
</g>
</g>
</svg>
