<?xml version="1.0" encoding="UTF-8" standalone="no"?>
<!DOCTYPE svg PUBLIC "-//W3C//DTD SVG 1.1//EN"
 "http://www.w3.org/Graphics/SVG/1.1/DTD/svg11.dtd">
<!-- Generated by graphviz version 2.38.0 (20140413.2041)
 -->
<!-- Title: loop Pages: 1 -->
<svg width="753pt" height="203pt"
 viewBox="0.00 0.00 753.46 203.00" xmlns="http://www.w3.org/2000/svg" xmlns:xlink="http://www.w3.org/1999/xlink">
<g id="graph0" class="graph" transform="scale(1 1) rotate(0) translate(4 199)">
<title>loop</title>
<polygon fill="white" stroke="none" points="-4,4 -4,-199 749.458,-199 749.458,4 -4,4"/>
<!-- Node1 -->
<g id="node1" class="node"><title>Node1</title>
<polygon fill="#bfbfbf" stroke="black" points="0,-65.5 0,-83.5 34.9062,-83.5 34.9062,-65.5 0,-65.5"/>
<text text-anchor="middle" x="17.4531" y="-71.5" font-family="Helvetica,sans-Serif" font-size="10.00">loop</text>
</g>
<!-- Node2 -->
<g id="node2" class="node"><title>Node2</title>
<g id="a_node2"><a xlink:href="$RCPassthroughTest_8cpp.html#a3386c13c098492e383d289443c48e1c0" xlink:title="multiread">
<polygon fill="white" stroke="black" points="97.5908,-121.5 97.5908,-139.5 154.719,-139.5 154.719,-121.5 97.5908,-121.5"/>
<text text-anchor="middle" x="126.155" y="-127.5" font-family="Helvetica,sans-Serif" font-size="10.00">multiread</text>
</a>
</g>
</g>
<!-- Node1&#45;&gt;Node2 -->
<g id="edge1" class="edge"><title>Node1&#45;&gt;Node2</title>
<path fill="none" stroke="midnightblue" d="M29.0653,-83.7021C39.2324,-92.1377 55.2954,-104.498 70.9062,-112.5 76.2239,-115.226 82.0416,-117.665 87.8297,-119.802"/>
<polygon fill="midnightblue" stroke="midnightblue" points="86.8548,-123.168 97.4495,-123.11 89.1311,-116.548 86.8548,-123.168"/>
</g>
<!-- Node12 -->
<g id="node12" class="node"><title>Node12</title>
<g id="a_node12"><a xlink:href="$RCPassthroughTest_8cpp.html#aeb998f1761a28e512e2dcbc829983e06" xlink:title="individualread">
<polygon fill="white" stroke="black" points="87.3003,-84.5 87.3003,-102.5 165.009,-102.5 165.009,-84.5 87.3003,-84.5"/>
<text text-anchor="middle" x="126.155" y="-90.5" font-family="Helvetica,sans-Serif" font-size="10.00">individualread</text>
</a>
</g>
</g>
<!-- Node1&#45;&gt;Node12 -->
<g id="edge11" class="edge"><title>Node1&#45;&gt;Node12</title>
<path fill="none" stroke="midnightblue" d="M35.1253,-77.4688C46.3643,-79.47 61.8125,-82.2209 76.7407,-84.8791"/>
<polygon fill="midnightblue" stroke="midnightblue" points="76.4757,-88.3869 86.9344,-86.6942 77.7029,-81.4953 76.4757,-88.3869"/>
</g>
<!-- Node14 -->
<g id="node14" class="node"><title>Node14</title>
<g id="a_node14"><a xlink:href="$RCPassthroughTest_8cpp.html#a2481c363da45c620417e31f03cbf0b8d" xlink:title="individualwrite">
<polygon fill="white" stroke="black" points="86.751,-47.5 86.751,-65.5 165.559,-65.5 165.559,-47.5 86.751,-47.5"/>
<text text-anchor="middle" x="126.155" y="-53.5" font-family="Helvetica,sans-Serif" font-size="10.00">individualwrite</text>
</a>
</g>
</g>
<!-- Node1&#45;&gt;Node14 -->
<g id="edge15" class="edge"><title>Node1&#45;&gt;Node14</title>
<path fill="none" stroke="midnightblue" d="M35.1253,-71.6875C46.2691,-69.8076 61.551,-67.2296 76.3611,-64.7312"/>
<polygon fill="midnightblue" stroke="midnightblue" points="77.2037,-68.1386 86.4822,-63.0239 76.0393,-61.2362 77.2037,-68.1386"/>
</g>
<!-- Node16 -->
<g id="node16" class="node"><title>Node16</title>
<g id="a_node16"><a xlink:href="$classAP__HAL_1_1Scheduler.html#ab3175e2e6223ccfe82f957e41cc12b26" xlink:title="AP_HAL::Scheduler::\ldelay">
<polygon fill="white" stroke="black" points="70.9062,-0.5 70.9062,-28.5 181.403,-28.5 181.403,-0.5 70.9062,-0.5"/>
<text text-anchor="start" x="78.9062" y="-16.5" font-family="Helvetica,sans-Serif" font-size="10.00">AP_HAL::Scheduler::</text>
<text text-anchor="middle" x="126.155" y="-6.5" font-family="Helvetica,sans-Serif" font-size="10.00">delay</text>
</a>
</g>
</g>
<!-- Node1&#45;&gt;Node16 -->
<g id="edge17" class="edge"><title>Node1&#45;&gt;Node16</title>
<path fill="none" stroke="midnightblue" d="M30.0609,-65.2193C40.3873,-57.2347 56.1036,-45.7347 70.9062,-37.5 73.7669,-35.9086 76.76,-34.3557 79.8078,-32.8565"/>
<polygon fill="midnightblue" stroke="midnightblue" points="81.4648,-35.9454 89.0372,-28.5353 78.4966,-29.6058 81.4648,-35.9454"/>
</g>
<!-- Node3 -->
<g id="node3" class="node"><title>Node3</title>
<g id="a_node3"><a xlink:href="$classAP__HAL_1_1RCInput.html#a078fd7e6d2e6a899009ec674a8e03498" xlink:title="AP_HAL::RCInput::read">
<polygon fill="white" stroke="black" points="221.842,-144.5 221.842,-162.5 344.009,-162.5 344.009,-144.5 221.842,-144.5"/>
<text text-anchor="middle" x="282.925" y="-150.5" font-family="Helvetica,sans-Serif" font-size="10.00">AP_HAL::RCInput::read</text>
</a>
</g>
</g>
<!-- Node2&#45;&gt;Node3 -->
<g id="edge2" class="edge"><title>Node2&#45;&gt;Node3</title>
<path fill="none" stroke="midnightblue" d="M154.825,-134.612C170.742,-136.977 191.527,-140.066 211.662,-143.058"/>
<polygon fill="midnightblue" stroke="midnightblue" points="211.38,-146.555 221.786,-144.563 212.409,-139.631 211.38,-146.555"/>
</g>
<!-- Node4 -->
<g id="node4" class="node"><title>Node4</title>
<g id="a_node4"><a xlink:href="$classAP__HAL_1_1UARTDriver.html#a65c7824b8877f7a2f79365c8ffae8f56" xlink:title="AP_HAL::UARTDriver\l::printf">
<polygon fill="white" stroke="black" points="226.114,-97.5 226.114,-125.5 339.736,-125.5 339.736,-97.5 226.114,-97.5"/>
<text text-anchor="start" x="234.114" y="-113.5" font-family="Helvetica,sans-Serif" font-size="10.00">AP_HAL::UARTDriver</text>
<text text-anchor="middle" x="282.925" y="-103.5" font-family="Helvetica,sans-Serif" font-size="10.00">::printf</text>
</a>
</g>
</g>
<!-- Node2&#45;&gt;Node4 -->
<g id="edge3" class="edge"><title>Node2&#45;&gt;Node4</title>
<path fill="none" stroke="midnightblue" d="M154.825,-127.103C171.863,-125.011 194.479,-122.235 215.905,-119.605"/>
<polygon fill="midnightblue" stroke="midnightblue" points="216.47,-123.062 225.969,-118.369 215.617,-116.114 216.47,-123.062"/>
</g>
<!-- Node5 -->
<g id="node5" class="node"><title>Node5</title>
<g id="a_node5"><a xlink:href="$classAP__HAL_1_1UARTDriver.html#aa8abfb6d6641299472c29ac1edde559f" xlink:title="AP_HAL::UARTDriver\l::vprintf">
<polygon fill="white" stroke="black" points="384.447,-97.5 384.447,-125.5 498.069,-125.5 498.069,-97.5 384.447,-97.5"/>
<text text-anchor="start" x="392.447" y="-113.5" font-family="Helvetica,sans-Serif" font-size="10.00">AP_HAL::UARTDriver</text>
<text text-anchor="middle" x="441.258" y="-103.5" font-family="Helvetica,sans-Serif" font-size="10.00">::vprintf</text>
</a>
</g>
</g>
<!-- Node4&#45;&gt;Node5 -->
<g id="edge4" class="edge"><title>Node4&#45;&gt;Node5</title>
<path fill="none" stroke="midnightblue" d="M339.924,-111.5C350.992,-111.5 362.706,-111.5 374.074,-111.5"/>
<polygon fill="midnightblue" stroke="midnightblue" points="374.388,-115 384.388,-111.5 374.388,-108 374.388,-115"/>
</g>
<!-- Node6 -->
<g id="node6" class="node"><title>Node6</title>
<g id="a_node6"><a xlink:href="$print__vprintf_8cpp.html#a473b9349f4b086b552a21eb8fe057016" xlink:title="print_vprintf">
<polygon fill="white" stroke="black" points="534.069,-102.5 534.069,-120.5 602.315,-120.5 602.315,-102.5 534.069,-102.5"/>
<text text-anchor="middle" x="568.192" y="-108.5" font-family="Helvetica,sans-Serif" font-size="10.00">print_vprintf</text>
</a>
</g>
</g>
<!-- Node5&#45;&gt;Node6 -->
<g id="edge5" class="edge"><title>Node5&#45;&gt;Node6</title>
<path fill="none" stroke="midnightblue" d="M498.148,-111.5C506.736,-111.5 515.492,-111.5 523.756,-111.5"/>
<polygon fill="midnightblue" stroke="midnightblue" points="523.912,-115 533.912,-111.5 523.912,-108 523.912,-115"/>
</g>
<!-- Node7 -->
<g id="node7" class="node"><title>Node7</title>
<g id="a_node7"><a xlink:href="$classAP__HAL_1_1Print.html#acc65391952a43334f8f5c9bef341f501" xlink:title="AP_HAL::Print::write">
<polygon fill="white" stroke="black" points="638.315,-176.5 638.315,-194.5 745.458,-194.5 745.458,-176.5 638.315,-176.5"/>
<text text-anchor="middle" x="691.887" y="-182.5" font-family="Helvetica,sans-Serif" font-size="10.00">AP_HAL::Print::write</text>
</a>
</g>
</g>
<!-- Node6&#45;&gt;Node7 -->
<g id="edge6" class="edge"><title>Node6&#45;&gt;Node7</title>
<path fill="none" stroke="midnightblue" d="M578.256,-120.633C590.779,-132.806 614.531,-154.34 638.315,-167.5 641.778,-169.416 645.48,-171.18 649.256,-172.791"/>
<polygon fill="midnightblue" stroke="midnightblue" points="648.114,-176.103 658.702,-176.483 650.663,-169.583 648.114,-176.103"/>
</g>
<!-- Node8 -->
<g id="node8" class="node"><title>Node8</title>
<g id="a_node8"><a xlink:href="$ftoa__engine_8cpp.html#a1c28234da8f20b43c85890d4bb452947" xlink:title="ftoa_engine">
<polygon fill="white" stroke="black" points="657.751,-139.5 657.751,-157.5 726.022,-157.5 726.022,-139.5 657.751,-139.5"/>
<text text-anchor="middle" x="691.887" y="-145.5" font-family="Helvetica,sans-Serif" font-size="10.00">ftoa_engine</text>
</a>
</g>
</g>
<!-- Node6&#45;&gt;Node8 -->
<g id="edge7" class="edge"><title>Node6&#45;&gt;Node8</title>
<path fill="none" stroke="midnightblue" d="M598.962,-120.551C614.726,-125.344 634.295,-131.294 651.32,-136.47"/>
<polygon fill="midnightblue" stroke="midnightblue" points="650.417,-139.854 661.002,-139.414 652.453,-133.156 650.417,-139.854"/>
</g>
<!-- Node9 -->
<g id="node9" class="node"><title>Node9</title>
<g id="a_node9"><a xlink:href="$AP__Progmem_8h.html#a1514e0408e036062b4af844baaf567da" xlink:title="pgm_read_byte">
<polygon fill="white" stroke="black" points="649.141,-102.5 649.141,-120.5 734.633,-120.5 734.633,-102.5 649.141,-102.5"/>
<text text-anchor="middle" x="691.887" y="-108.5" font-family="Helvetica,sans-Serif" font-size="10.00">pgm_read_byte</text>
</a>
</g>
</g>
<!-- Node6&#45;&gt;Node9 -->
<g id="edge8" class="edge"><title>Node6&#45;&gt;Node9</title>
<path fill="none" stroke="midnightblue" d="M602.446,-111.5C613.662,-111.5 626.465,-111.5 638.78,-111.5"/>
<polygon fill="midnightblue" stroke="midnightblue" points="638.964,-115 648.964,-111.5 638.964,-108 638.964,-115"/>
</g>
<!-- Node10 -->
<g id="node10" class="node"><title>Node10</title>
<g id="a_node10"><a xlink:href="$utoa__invert_8cpp.html#a34926f552460b47c414ec4d83b32815c" xlink:title="ulltoa_invert">
<polygon fill="white" stroke="black" points="656.926,-65.5 656.926,-83.5 726.847,-83.5 726.847,-65.5 656.926,-65.5"/>
<text text-anchor="middle" x="691.887" y="-71.5" font-family="Helvetica,sans-Serif" font-size="10.00">ulltoa_invert</text>
</a>
</g>
</g>
<!-- Node6&#45;&gt;Node10 -->
<g id="edge9" class="edge"><title>Node6&#45;&gt;Node10</title>
<path fill="none" stroke="midnightblue" d="M598.962,-102.449C614.726,-97.6558 634.295,-91.7062 651.32,-86.5298"/>
<polygon fill="midnightblue" stroke="midnightblue" points="652.453,-89.8437 661.002,-83.586 650.417,-83.1464 652.453,-89.8437"/>
</g>
<!-- Node11 -->
<g id="node11" class="node"><title>Node11</title>
<g id="a_node11"><a xlink:href="$utoa__invert_8cpp.html#a5d99bba8e697c1e11da489d88fca8559" xlink:title="ultoa_invert">
<polygon fill="white" stroke="black" points="658.037,-28.5 658.037,-46.5 725.736,-46.5 725.736,-28.5 658.037,-28.5"/>
<text text-anchor="middle" x="691.887" y="-34.5" font-family="Helvetica,sans-Serif" font-size="10.00">ultoa_invert</text>
</a>
</g>
</g>
<!-- Node6&#45;&gt;Node11 -->
<g id="edge10" class="edge"><title>Node6&#45;&gt;Node11</title>
<path fill="none" stroke="midnightblue" d="M578.256,-102.367C590.779,-90.194 614.531,-68.6603 638.315,-55.5 641.778,-53.5843 645.48,-51.8204 649.256,-50.2089"/>
<polygon fill="midnightblue" stroke="midnightblue" points="650.663,-53.4172 658.702,-46.517 648.114,-46.8974 650.663,-53.4172"/>
</g>
<!-- Node12&#45;&gt;Node3 -->
<g id="edge13" class="edge"><title>Node12&#45;&gt;Node3</title>
<path fill="none" stroke="midnightblue" d="M156.94,-102.542C165.031,-105.37 173.686,-108.746 181.403,-112.5 198.477,-120.805 200.069,-127.753 217.403,-135.5 222.191,-137.64 227.294,-139.584 232.453,-141.336"/>
<polygon fill="midnightblue" stroke="midnightblue" points="231.784,-144.795 242.374,-144.467 233.891,-138.119 231.784,-144.795"/>
</g>
<!-- Node12&#45;&gt;Node4 -->
<g id="edge14" class="edge"><title>Node12&#45;&gt;Node4</title>
<path fill="none" stroke="midnightblue" d="M165.016,-97.9033C180.352,-99.6869 198.519,-101.8 215.903,-103.822"/>
<polygon fill="midnightblue" stroke="midnightblue" points="215.684,-107.32 226.021,-104.998 216.493,-100.366 215.684,-107.32"/>
</g>
<!-- Node13 -->
<g id="node13" class="node"><title>Node13</title>
<g id="a_node13"><a xlink:href="$classAP__HAL_1_1RCInput.html#a0b019ac5120129c29cdb239576694a85" xlink:title="AP_HAL::RCInput::new\l_input">
<polygon fill="white" stroke="black" points="222.677,-50.5 222.677,-78.5 343.174,-78.5 343.174,-50.5 222.677,-50.5"/>
<text text-anchor="start" x="230.677" y="-66.5" font-family="Helvetica,sans-Serif" font-size="10.00">AP_HAL::RCInput::new</text>
<text text-anchor="middle" x="282.925" y="-56.5" font-family="Helvetica,sans-Serif" font-size="10.00">_input</text>
</a>
</g>
</g>
<!-- Node12&#45;&gt;Node13 -->
<g id="edge12" class="edge"><title>Node12&#45;&gt;Node13</title>
<path fill="none" stroke="midnightblue" d="M165.016,-86.4058C179.319,-83.7257 196.085,-80.5843 212.382,-77.5306"/>
<polygon fill="midnightblue" stroke="midnightblue" points="213.258,-80.9275 222.442,-75.6456 211.969,-74.0472 213.258,-80.9275"/>
</g>
<!-- Node15 -->
<g id="node15" class="node"><title>Node15</title>
<g id="a_node15"><a xlink:href="$classAP__HAL_1_1RCOutput.html#ade509cf82dfb1f6fab3eba0c026c5d60" xlink:title="AP_HAL::RCOutput::write">
<polygon fill="white" stroke="black" points="217.403,-13.5 217.403,-31.5 348.447,-31.5 348.447,-13.5 217.403,-13.5"/>
<text text-anchor="middle" x="282.925" y="-19.5" font-family="Helvetica,sans-Serif" font-size="10.00">AP_HAL::RCOutput::write</text>
</a>
</g>
</g>
<!-- Node14&#45;&gt;Node15 -->
<g id="edge16" class="edge"><title>Node14&#45;&gt;Node15</title>
<path fill="none" stroke="midnightblue" d="M165.811,-48.0081C185.521,-43.6782 209.747,-38.3562 230.962,-33.6956"/>
<polygon fill="midnightblue" stroke="midnightblue" points="231.769,-37.1018 240.785,-31.5376 230.267,-30.2648 231.769,-37.1018"/>
</g>
</g>
</svg>
