<?xml version="1.0" encoding="UTF-8" standalone="no"?>
<!DOCTYPE svg PUBLIC "-//W3C//DTD SVG 1.1//EN"
 "http://www.w3.org/Graphics/SVG/1.1/DTD/svg11.dtd">
<!-- Generated by graphviz version 2.38.0 (20140413.2041)
 -->
<!-- Title: test_eulers Pages: 1 -->
<svg width="918pt" height="269pt"
 viewBox="0.00 0.00 918.08 269.35" xmlns="http://www.w3.org/2000/svg" xmlns:xlink="http://www.w3.org/1999/xlink">
<g id="graph0" class="graph" transform="scale(1 1) rotate(0) translate(4 265.35)">
<title>test_eulers</title>
<polygon fill="white" stroke="none" points="-4,4 -4,-265.35 914.08,-265.35 914.08,4 -4,4"/>
<!-- Node1 -->
<g id="node1" class="node"><title>Node1</title>
<polygon fill="#bfbfbf" stroke="black" points="0,-173.5 0,-191.5 64.916,-191.5 64.916,-173.5 0,-173.5"/>
<text text-anchor="middle" x="32.458" y="-179.5" font-family="Helvetica,sans-Serif" font-size="10.00">test_eulers</text>
</g>
<!-- Node2 -->
<g id="node2" class="node"><title>Node2</title>
<g id="a_node2"><a xlink:href="$classAP__HAL_1_1Print.html#ad337ce3f7977411b7d34d47a51e5737e" xlink:title="AP_HAL::Print::println">
<polygon fill="white" stroke="black" points="100.916,-229.5 100.916,-247.5 214.182,-247.5 214.182,-229.5 100.916,-229.5"/>
<text text-anchor="middle" x="157.549" y="-235.5" font-family="Helvetica,sans-Serif" font-size="10.00">AP_HAL::Print::println</text>
</a>
</g>
</g>
<!-- Node1&#45;&gt;Node2 -->
<g id="edge1" class="edge"><title>Node1&#45;&gt;Node2</title>
<path fill="none" stroke="midnightblue" d="M53.5086,-191.622C73.5369,-200.734 104.539,-214.838 127.309,-225.197"/>
<polygon fill="midnightblue" stroke="midnightblue" points="125.955,-228.427 136.507,-229.382 128.854,-222.055 125.955,-228.427"/>
</g>
<!-- Node6 -->
<g id="node6" class="node"><title>Node6</title>
<g id="a_node6"><a xlink:href="$rotations_8cpp.html#af879672d9ab28cd8ad8e4e604beda066" xlink:title="test_euler">
<polygon fill="white" stroke="black" points="127.591,-118.5 127.591,-136.5 187.507,-136.5 187.507,-118.5 127.591,-118.5"/>
<text text-anchor="middle" x="157.549" y="-124.5" font-family="Helvetica,sans-Serif" font-size="10.00">test_euler</text>
</a>
</g>
</g>
<!-- Node1&#45;&gt;Node6 -->
<g id="edge6" class="edge"><title>Node1&#45;&gt;Node6</title>
<path fill="none" stroke="midnightblue" d="M53.784,-173.418C73.7399,-164.501 104.396,-150.803 127.036,-140.687"/>
<polygon fill="midnightblue" stroke="midnightblue" points="128.49,-143.871 136.193,-136.596 125.635,-137.48 128.49,-143.871"/>
</g>
<!-- Node3 -->
<g id="node3" class="node"><title>Node3</title>
<g id="a_node3"><a xlink:href="$classAP__HAL_1_1Print.html#acfe80773011eb17dfb52c2fba517a093" xlink:title="AP_HAL::Print::print">
<polygon fill="white" stroke="black" points="403.517,-229.5 403.517,-247.5 509,-247.5 509,-229.5 403.517,-229.5"/>
<text text-anchor="middle" x="456.258" y="-235.5" font-family="Helvetica,sans-Serif" font-size="10.00">AP_HAL::Print::print</text>
</a>
</g>
</g>
<!-- Node2&#45;&gt;Node3 -->
<g id="edge2" class="edge"><title>Node2&#45;&gt;Node3</title>
<path fill="none" stroke="midnightblue" d="M193.532,-247.506C210.507,-251.425 231.272,-255.56 250.182,-257.5 300.259,-262.637 313.369,-262.627 363.447,-257.5 378.84,-255.924 395.461,-252.898 410.276,-249.717"/>
<polygon fill="midnightblue" stroke="midnightblue" points="411.206,-253.096 420.206,-247.506 409.684,-246.263 411.206,-253.096"/>
</g>
<!-- Node5 -->
<g id="node5" class="node"><title>Node5</title>
<g id="a_node5"><a xlink:href="$classAP__HAL_1_1Print.html#a169b128f9e22f0c15883768f580541a2" xlink:title="AP_HAL::Print::println">
<polygon fill="white" stroke="black" points="250.182,-229.5 250.182,-247.5 363.447,-247.5 363.447,-229.5 250.182,-229.5"/>
<text text-anchor="middle" x="306.814" y="-235.5" font-family="Helvetica,sans-Serif" font-size="10.00">AP_HAL::Print::println</text>
</a>
</g>
</g>
<!-- Node2&#45;&gt;Node5 -->
<g id="edge4" class="edge"><title>Node2&#45;&gt;Node5</title>
<path fill="none" stroke="midnightblue" d="M214.224,-238.5C222.654,-238.5 231.419,-238.5 240.038,-238.5"/>
<polygon fill="midnightblue" stroke="midnightblue" points="240.061,-242 250.061,-238.5 240.061,-235 240.061,-242"/>
</g>
<!-- Node4 -->
<g id="node4" class="node"><title>Node4</title>
<g id="a_node4"><a xlink:href="$classAP__HAL_1_1Print.html#acc65391952a43334f8f5c9bef341f501" xlink:title="AP_HAL::Print::write">
<polygon fill="white" stroke="black" points="802.938,-177.5 802.938,-195.5 910.08,-195.5 910.08,-177.5 802.938,-177.5"/>
<text text-anchor="middle" x="856.509" y="-183.5" font-family="Helvetica,sans-Serif" font-size="10.00">AP_HAL::Print::write</text>
</a>
</g>
</g>
<!-- Node3&#45;&gt;Node4 -->
<g id="edge3" class="edge"><title>Node3&#45;&gt;Node4</title>
<path fill="none" stroke="midnightblue" d="M509.323,-231.702C582.166,-222.191 714.331,-204.934 792.593,-194.715"/>
<polygon fill="midnightblue" stroke="midnightblue" points="793.335,-198.148 802.798,-193.383 792.429,-191.207 793.335,-198.148"/>
</g>
<!-- Node5&#45;&gt;Node3 -->
<g id="edge5" class="edge"><title>Node5&#45;&gt;Node3</title>
<path fill="none" stroke="midnightblue" d="M363.557,-238.5C373.241,-238.5 383.366,-238.5 393.206,-238.5"/>
<polygon fill="midnightblue" stroke="midnightblue" points="393.327,-242 403.327,-238.5 393.327,-235 393.327,-242"/>
</g>
<!-- Node7 -->
<g id="node7" class="node"><title>Node7</title>
<g id="a_node7"><a xlink:href="$classVector3.html#a53d5701ae2db9492944550927279b7b8" xlink:title="Vector3::rotate">
<polygon fill="white" stroke="black" points="266.292,-192.5 266.292,-210.5 347.336,-210.5 347.336,-192.5 266.292,-192.5"/>
<text text-anchor="middle" x="306.814" y="-198.5" font-family="Helvetica,sans-Serif" font-size="10.00">Vector3::rotate</text>
</a>
</g>
</g>
<!-- Node6&#45;&gt;Node7 -->
<g id="edge7" class="edge"><title>Node6&#45;&gt;Node7</title>
<path fill="none" stroke="midnightblue" d="M171.718,-136.628C189.092,-148.379 220.902,-168.9 250.182,-182.5 255.215,-184.838 260.62,-187.04 266.011,-189.058"/>
<polygon fill="midnightblue" stroke="midnightblue" points="265.024,-192.422 275.619,-192.482 267.374,-185.828 265.024,-192.422"/>
</g>
<!-- Node8 -->
<g id="node8" class="node"><title>Node8</title>
<g id="a_node8"><a xlink:href="$classMatrix3.html#a62587bd216436f09f06b9e1330f84bc0" xlink:title="&#45;*&#45; tab&#45;width: 4; Mode: C++; c&#45;basic&#45;offset: 4; indent&#45;tabs&#45;mode: nil &#45;*&#45; ">
<polygon fill="white" stroke="black" points="255.746,-155.5 255.746,-173.5 357.883,-173.5 357.883,-155.5 255.746,-155.5"/>
<text text-anchor="middle" x="306.814" y="-161.5" font-family="Helvetica,sans-Serif" font-size="10.00">Matrix3::from_euler</text>
</a>
</g>
</g>
<!-- Node6&#45;&gt;Node8 -->
<g id="edge8" class="edge"><title>Node6&#45;&gt;Node8</title>
<path fill="none" stroke="midnightblue" d="M187.644,-134.81C208.254,-139.988 236.321,-147.04 259.93,-152.972"/>
<polygon fill="midnightblue" stroke="midnightblue" points="259.189,-156.394 269.741,-155.437 260.895,-149.605 259.189,-156.394"/>
</g>
<!-- Node9 -->
<g id="node9" class="node"><title>Node9</title>
<g id="a_node9"><a xlink:href="$AP__Math_8h.html#a75b14352ec1c95a8276af9a0813cfdc3" xlink:title="radians">
<polygon fill="white" stroke="black" points="282.416,-118.5 282.416,-136.5 331.213,-136.5 331.213,-118.5 282.416,-118.5"/>
<text text-anchor="middle" x="306.814" y="-124.5" font-family="Helvetica,sans-Serif" font-size="10.00">radians</text>
</a>
</g>
</g>
<!-- Node6&#45;&gt;Node9 -->
<g id="edge9" class="edge"><title>Node6&#45;&gt;Node9</title>
<path fill="none" stroke="midnightblue" d="M187.644,-127.5C211.848,-127.5 246.336,-127.5 271.811,-127.5"/>
<polygon fill="midnightblue" stroke="midnightblue" points="272.121,-131 282.12,-127.5 272.12,-124 272.121,-131"/>
</g>
<!-- Node10 -->
<g id="node10" class="node"><title>Node10</title>
<g id="a_node10"><a xlink:href="$classVector3.html#ac1fd5514e368a1e1c2d13f71eda18345" xlink:title="Vector3::length">
<polygon fill="white" stroke="black" points="265.455,-81.5 265.455,-99.5 348.174,-99.5 348.174,-81.5 265.455,-81.5"/>
<text text-anchor="middle" x="306.814" y="-87.5" font-family="Helvetica,sans-Serif" font-size="10.00">Vector3::length</text>
</a>
</g>
</g>
<!-- Node6&#45;&gt;Node10 -->
<g id="edge10" class="edge"><title>Node6&#45;&gt;Node10</title>
<path fill="none" stroke="midnightblue" d="M187.644,-120.19C208.254,-115.012 236.321,-107.96 259.93,-102.028"/>
<polygon fill="midnightblue" stroke="midnightblue" points="260.895,-105.395 269.741,-99.5634 259.189,-98.6057 260.895,-105.395"/>
</g>
<!-- Node13 -->
<g id="node13" class="node"><title>Node13</title>
<g id="a_node13"><a xlink:href="$classAP__HAL_1_1UARTDriver.html#a65c7824b8877f7a2f79365c8ffae8f56" xlink:title="AP_HAL::UARTDriver\l::printf">
<polygon fill="white" stroke="black" points="399.447,-36.5 399.447,-64.5 513.069,-64.5 513.069,-36.5 399.447,-36.5"/>
<text text-anchor="start" x="407.447" y="-52.5" font-family="Helvetica,sans-Serif" font-size="10.00">AP_HAL::UARTDriver</text>
<text text-anchor="middle" x="456.258" y="-42.5" font-family="Helvetica,sans-Serif" font-size="10.00">::printf</text>
</a>
</g>
</g>
<!-- Node6&#45;&gt;Node13 -->
<g id="edge13" class="edge"><title>Node6&#45;&gt;Node13</title>
<path fill="none" stroke="midnightblue" d="M169.574,-118.46C185.999,-105.554 218.382,-82.2255 250.182,-71.5 294.888,-56.421 347.933,-51.3033 388.873,-49.8862"/>
<polygon fill="midnightblue" stroke="midnightblue" points="389.11,-53.381 399.008,-49.6019 388.914,-46.3838 389.11,-53.381"/>
</g>
<!-- Node20 -->
<g id="node20" class="node"><title>Node20</title>
<g id="a_node20"><a xlink:href="$rotations_8cpp.html#abeed49eaf8341cd6b00a5291b074afa3" xlink:title="print_vector">
<polygon fill="white" stroke="black" points="272.691,-5.5 272.691,-23.5 340.938,-23.5 340.938,-5.5 272.691,-5.5"/>
<text text-anchor="middle" x="306.814" y="-11.5" font-family="Helvetica,sans-Serif" font-size="10.00">print_vector</text>
</a>
</g>
</g>
<!-- Node6&#45;&gt;Node20 -->
<g id="edge21" class="edge"><title>Node6&#45;&gt;Node20</title>
<path fill="none" stroke="midnightblue" d="M166,-118.303C180.584,-100.789 214.593,-62.2795 250.182,-38.5 256.375,-34.3617 263.399,-30.6765 270.32,-27.5103"/>
<polygon fill="midnightblue" stroke="midnightblue" points="271.799,-30.684 279.606,-23.5207 269.036,-24.2524 271.799,-30.684"/>
</g>
<!-- Node11 -->
<g id="node11" class="node"><title>Node11</title>
<g id="a_node11"><a xlink:href="$AP__Math_8h.html#a6b05ff3296c2ed55b1cd74262a7330f6" xlink:title="pythagorous3">
<polygon fill="white" stroke="black" points="417.958,-83.5 417.958,-101.5 494.559,-101.5 494.559,-83.5 417.958,-83.5"/>
<text text-anchor="middle" x="456.258" y="-89.5" font-family="Helvetica,sans-Serif" font-size="10.00">pythagorous3</text>
</a>
</g>
</g>
<!-- Node10&#45;&gt;Node11 -->
<g id="edge11" class="edge"><title>Node10&#45;&gt;Node11</title>
<path fill="none" stroke="midnightblue" d="M348.494,-91.0518C366.847,-91.3007 388.644,-91.5964 407.743,-91.8555"/>
<polygon fill="midnightblue" stroke="midnightblue" points="407.697,-95.3551 417.744,-91.9911 407.792,-88.3557 407.697,-95.3551"/>
</g>
<!-- Node12 -->
<g id="node12" class="node"><title>Node12</title>
<g id="a_node12"><a xlink:href="$AP__Math_8h.html#a00f57739f8671cb41eae08a51b7cbf7c" xlink:title="sq">
<polygon fill="white" stroke="black" points="591.38,-83.5 591.38,-101.5 620.38,-101.5 620.38,-83.5 591.38,-83.5"/>
<text text-anchor="middle" x="605.88" y="-89.5" font-family="Helvetica,sans-Serif" font-size="10.00">sq</text>
</a>
</g>
</g>
<!-- Node11&#45;&gt;Node12 -->
<g id="edge12" class="edge"><title>Node11&#45;&gt;Node12</title>
<path fill="none" stroke="midnightblue" d="M494.892,-92.5C522.029,-92.5 557.836,-92.5 581.105,-92.5"/>
<polygon fill="midnightblue" stroke="midnightblue" points="581.133,-96.0001 591.133,-92.5 581.133,-89.0001 581.133,-96.0001"/>
</g>
<!-- Node14 -->
<g id="node14" class="node"><title>Node14</title>
<g id="a_node14"><a xlink:href="$classAP__HAL_1_1UARTDriver.html#aa8abfb6d6641299472c29ac1edde559f" xlink:title="AP_HAL::UARTDriver\l::vprintf">
<polygon fill="white" stroke="black" points="549.069,-36.5 549.069,-64.5 662.691,-64.5 662.691,-36.5 549.069,-36.5"/>
<text text-anchor="start" x="557.069" y="-52.5" font-family="Helvetica,sans-Serif" font-size="10.00">AP_HAL::UARTDriver</text>
<text text-anchor="middle" x="605.88" y="-42.5" font-family="Helvetica,sans-Serif" font-size="10.00">::vprintf</text>
</a>
</g>
</g>
<!-- Node13&#45;&gt;Node14 -->
<g id="edge14" class="edge"><title>Node13&#45;&gt;Node14</title>
<path fill="none" stroke="midnightblue" d="M513.489,-50.5C521.715,-50.5 530.25,-50.5 538.652,-50.5"/>
<polygon fill="midnightblue" stroke="midnightblue" points="538.806,-54.0001 548.806,-50.5 538.806,-47.0001 538.806,-54.0001"/>
</g>
<!-- Node15 -->
<g id="node15" class="node"><title>Node15</title>
<g id="a_node15"><a xlink:href="$print__vprintf_8cpp.html#a473b9349f4b086b552a21eb8fe057016" xlink:title="print_vprintf">
<polygon fill="white" stroke="black" points="698.691,-55.5 698.691,-73.5 766.938,-73.5 766.938,-55.5 698.691,-55.5"/>
<text text-anchor="middle" x="732.814" y="-61.5" font-family="Helvetica,sans-Serif" font-size="10.00">print_vprintf</text>
</a>
</g>
</g>
<!-- Node14&#45;&gt;Node15 -->
<g id="edge15" class="edge"><title>Node14&#45;&gt;Node15</title>
<path fill="none" stroke="midnightblue" d="M662.77,-56.7629C671.358,-57.7253 680.114,-58.7065 688.378,-59.6326"/>
<polygon fill="midnightblue" stroke="midnightblue" points="688.207,-63.1352 698.534,-60.7707 688.986,-56.1787 688.207,-63.1352"/>
</g>
<!-- Node15&#45;&gt;Node4 -->
<g id="edge16" class="edge"><title>Node15&#45;&gt;Node4</title>
<path fill="none" stroke="midnightblue" d="M742.099,-73.836C754.847,-88.0927 780.185,-116.004 802.938,-138.5 814.033,-149.47 826.971,-161.294 837.235,-170.462"/>
<polygon fill="midnightblue" stroke="midnightblue" points="835.003,-173.161 844.807,-177.178 839.648,-167.924 835.003,-173.161"/>
</g>
<!-- Node16 -->
<g id="node16" class="node"><title>Node16</title>
<g id="a_node16"><a xlink:href="$ftoa__engine_8cpp.html#a1c28234da8f20b43c85890d4bb452947" xlink:title="ftoa_engine">
<polygon fill="white" stroke="black" points="822.374,-111.5 822.374,-129.5 890.644,-129.5 890.644,-111.5 822.374,-111.5"/>
<text text-anchor="middle" x="856.509" y="-117.5" font-family="Helvetica,sans-Serif" font-size="10.00">ftoa_engine</text>
</a>
</g>
</g>
<!-- Node15&#45;&gt;Node16 -->
<g id="edge17" class="edge"><title>Node15&#45;&gt;Node16</title>
<path fill="none" stroke="midnightblue" d="M749.141,-73.5329C762.94,-81.4637 783.914,-93.0245 802.938,-101.5 807.979,-103.746 813.376,-105.932 818.72,-107.974"/>
<polygon fill="midnightblue" stroke="midnightblue" points="817.603,-111.293 828.197,-111.475 820.029,-104.726 817.603,-111.293"/>
</g>
<!-- Node17 -->
<g id="node17" class="node"><title>Node17</title>
<g id="a_node17"><a xlink:href="$AP__Progmem_8h.html#a1514e0408e036062b4af844baaf567da" xlink:title="pgm_read_byte">
<polygon fill="white" stroke="black" points="813.763,-74.5 813.763,-92.5 899.255,-92.5 899.255,-74.5 813.763,-74.5"/>
<text text-anchor="middle" x="856.509" y="-80.5" font-family="Helvetica,sans-Serif" font-size="10.00">pgm_read_byte</text>
</a>
</g>
</g>
<!-- Node15&#45;&gt;Node17 -->
<g id="edge18" class="edge"><title>Node15&#45;&gt;Node17</title>
<path fill="none" stroke="midnightblue" d="M767.068,-69.6918C778.284,-71.443 791.087,-73.4418 803.402,-75.3646"/>
<polygon fill="midnightblue" stroke="midnightblue" points="803.166,-78.8701 813.586,-76.9546 804.246,-71.9538 803.166,-78.8701"/>
</g>
<!-- Node18 -->
<g id="node18" class="node"><title>Node18</title>
<g id="a_node18"><a xlink:href="$utoa__invert_8cpp.html#a34926f552460b47c414ec4d83b32815c" xlink:title="ulltoa_invert">
<polygon fill="white" stroke="black" points="821.548,-37.5 821.548,-55.5 891.469,-55.5 891.469,-37.5 821.548,-37.5"/>
<text text-anchor="middle" x="856.509" y="-43.5" font-family="Helvetica,sans-Serif" font-size="10.00">ulltoa_invert</text>
</a>
</g>
</g>
<!-- Node15&#45;&gt;Node18 -->
<g id="edge19" class="edge"><title>Node15&#45;&gt;Node18</title>
<path fill="none" stroke="midnightblue" d="M767.068,-59.5814C780.659,-57.5712 796.58,-55.2162 811.14,-53.0627"/>
<polygon fill="midnightblue" stroke="midnightblue" points="812.068,-56.4635 821.448,-51.5379 811.044,-49.5389 812.068,-56.4635"/>
</g>
<!-- Node19 -->
<g id="node19" class="node"><title>Node19</title>
<g id="a_node19"><a xlink:href="$utoa__invert_8cpp.html#a5d99bba8e697c1e11da489d88fca8559" xlink:title="ultoa_invert">
<polygon fill="white" stroke="black" points="822.659,-0.5 822.659,-18.5 890.358,-18.5 890.358,-0.5 822.659,-0.5"/>
<text text-anchor="middle" x="856.509" y="-6.5" font-family="Helvetica,sans-Serif" font-size="10.00">ultoa_invert</text>
</a>
</g>
</g>
<!-- Node15&#45;&gt;Node19 -->
<g id="edge20" class="edge"><title>Node15&#45;&gt;Node19</title>
<path fill="none" stroke="midnightblue" d="M749.106,-55.3887C762.882,-47.4065 783.843,-35.8142 802.938,-27.5 807.349,-25.5791 812.037,-23.7235 816.726,-21.9806"/>
<polygon fill="midnightblue" stroke="midnightblue" points="818.023,-25.234 826.265,-18.5766 815.671,-18.6411 818.023,-25.234"/>
</g>
<!-- Node20&#45;&gt;Node13 -->
<g id="edge22" class="edge"><title>Node20&#45;&gt;Node13</title>
<path fill="none" stroke="midnightblue" d="M341.272,-22.669C355.619,-26.172 372.901,-30.3916 389.621,-34.474"/>
<polygon fill="midnightblue" stroke="midnightblue" points="388.83,-37.8836 399.375,-36.8555 390.49,-31.0833 388.83,-37.8836"/>
</g>
</g>
</svg>
