<?xml version="1.0" encoding="UTF-8" standalone="no"?>
<!DOCTYPE svg PUBLIC "-//W3C//DTD SVG 1.1//EN"
 "http://www.w3.org/Graphics/SVG/1.1/DTD/svg11.dtd">
<!-- Generated by graphviz version 2.38.0 (20140413.2041)
 -->
<!-- Title: have_rotation Pages: 1 -->
<svg width="224pt" height="64pt"
 viewBox="0.00 0.00 224.42 64.00" xmlns="http://www.w3.org/2000/svg" xmlns:xlink="http://www.w3.org/1999/xlink">
<g id="graph0" class="graph" transform="scale(1 1) rotate(0) translate(4 60)">
<title>have_rotation</title>
<polygon fill="white" stroke="none" points="-4,4 -4,-60 220.418,-60 220.418,4 -4,4"/>
<!-- Node1 -->
<g id="node1" class="node"><title>Node1</title>
<polygon fill="#bfbfbf" stroke="black" points="0,-18.5 0,-36.5 76.6006,-36.5 76.6006,-18.5 0,-18.5"/>
<text text-anchor="middle" x="38.3003" y="-24.5" font-family="Helvetica,sans-Serif" font-size="10.00">have_rotation</text>
</g>
<!-- Node2 -->
<g id="node2" class="node"><title>Node2</title>
<g id="a_node2"><a xlink:href="$classMatrix3.html#a18e2df03dec4abdf11fc9fb60ed7c226" xlink:title="Matrix3::transposed">
<polygon fill="white" stroke="black" points="112.601,-37.5 112.601,-55.5 216.418,-55.5 216.418,-37.5 112.601,-37.5"/>
<text text-anchor="middle" x="164.509" y="-43.5" font-family="Helvetica,sans-Serif" font-size="10.00">Matrix3::transposed</text>
</a>
</g>
</g>
<!-- Node1&#45;&gt;Node2 -->
<g id="edge1" class="edge"><title>Node1&#45;&gt;Node2</title>
<path fill="none" stroke="midnightblue" d="M76.9042,-33.2522C84.9101,-34.4768 93.563,-35.8005 102.196,-37.121"/>
<polygon fill="midnightblue" stroke="midnightblue" points="101.866,-40.6111 112.28,-38.6636 102.924,-33.6916 101.866,-40.6111"/>
</g>
<!-- Node3 -->
<g id="node3" class="node"><title>Node3</title>
<g id="a_node3"><a xlink:href="$classVector3.html#a53d5701ae2db9492944550927279b7b8" xlink:title="Vector3::rotate">
<polygon fill="white" stroke="black" points="123.987,-0.5 123.987,-18.5 205.031,-18.5 205.031,-0.5 123.987,-0.5"/>
<text text-anchor="middle" x="164.509" y="-6.5" font-family="Helvetica,sans-Serif" font-size="10.00">Vector3::rotate</text>
</a>
</g>
</g>
<!-- Node1&#45;&gt;Node3 -->
<g id="edge2" class="edge"><title>Node1&#45;&gt;Node3</title>
<path fill="none" stroke="midnightblue" d="M76.9042,-22.0506C88.507,-20.3691 101.469,-18.4907 113.758,-16.7098"/>
<polygon fill="midnightblue" stroke="midnightblue" points="114.483,-20.1413 123.878,-15.2433 113.479,-13.2137 114.483,-20.1413"/>
</g>
</g>
</svg>
