<?xml version="1.0" encoding="UTF-8" standalone="no"?>
<!DOCTYPE svg PUBLIC "-//W3C//DTD SVG 1.1//EN"
 "http://www.w3.org/Graphics/SVG/1.1/DTD/svg11.dtd">
<!-- Generated by graphviz version 2.38.0 (20140413.2041)
 -->
<!-- Title: setup Pages: 1 -->
<svg width="1046pt" height="425pt"
 viewBox="0.00 0.00 1046.24 424.76" xmlns="http://www.w3.org/2000/svg" xmlns:xlink="http://www.w3.org/1999/xlink">
<g id="graph0" class="graph" transform="scale(1 1) rotate(0) translate(4 420.763)">
<title>setup</title>
<polygon fill="white" stroke="none" points="-4,4 -4,-420.763 1042.24,-420.763 1042.24,4 -4,4"/>
<!-- Node1 -->
<g id="node1" class="node"><title>Node1</title>
<polygon fill="#bfbfbf" stroke="black" points="0,-198.263 0,-216.263 40.4629,-216.263 40.4629,-198.263 0,-198.263"/>
<text text-anchor="middle" x="20.2314" y="-204.263" font-family="Helvetica,sans-Serif" font-size="10.00">setup</text>
</g>
<!-- Node2 -->
<g id="node2" class="node"><title>Node2</title>
<g id="a_node2"><a xlink:href="$classAP__HAL_1_1Print.html#ad337ce3f7977411b7d34d47a51e5737e" xlink:title="AP_HAL::Print::println">
<polygon fill="white" stroke="black" points="229.073,-208.263 229.073,-226.263 342.339,-226.263 342.339,-208.263 229.073,-208.263"/>
<text text-anchor="middle" x="285.706" y="-214.263" font-family="Helvetica,sans-Serif" font-size="10.00">AP_HAL::Print::println</text>
</a>
</g>
</g>
<!-- Node1&#45;&gt;Node2 -->
<g id="edge1" class="edge"><title>Node1&#45;&gt;Node2</title>
<path fill="none" stroke="midnightblue" d="M40.6054,-207.999C77.6014,-209.403 159.851,-212.525 218.646,-214.756"/>
<polygon fill="midnightblue" stroke="midnightblue" points="218.843,-218.266 228.968,-215.148 219.108,-211.271 218.843,-218.266"/>
</g>
<!-- Node6 -->
<g id="node6" class="node"><title>Node6</title>
<g id="a_node6"><a xlink:href="$rotations_8cpp.html#acaec71463457149487901c616be1c74d" xlink:title="test_rotation_accuracy">
<polygon fill="white" stroke="black" points="76.4629,-274.263 76.4629,-292.263 193.073,-292.263 193.073,-274.263 76.4629,-274.263"/>
<text text-anchor="middle" x="134.768" y="-280.263" font-family="Helvetica,sans-Serif" font-size="10.00">test_rotation_accuracy</text>
</a>
</g>
</g>
<!-- Node1&#45;&gt;Node6 -->
<g id="edge6" class="edge"><title>Node1&#45;&gt;Node6</title>
<path fill="none" stroke="midnightblue" d="M34.5828,-216.28C53.7033,-229.193 89.1019,-253.099 112.03,-268.583"/>
<polygon fill="midnightblue" stroke="midnightblue" points="110.188,-271.562 120.434,-274.258 114.106,-265.761 110.188,-271.562"/>
</g>
<!-- Node18 -->
<g id="node18" class="node"><title>Node18</title>
<g id="a_node18"><a xlink:href="$rotations_8cpp.html#a03c7c1e3aa9eaccd37b442995438a8b8" xlink:title="test_eulers">
<polygon fill="white" stroke="black" points="102.31,-179.263 102.31,-197.263 167.226,-197.263 167.226,-179.263 102.31,-179.263"/>
<text text-anchor="middle" x="134.768" y="-185.263" font-family="Helvetica,sans-Serif" font-size="10.00">test_eulers</text>
</a>
</g>
</g>
<!-- Node1&#45;&gt;Node18 -->
<g id="edge20" class="edge"><title>Node1&#45;&gt;Node18</title>
<path fill="none" stroke="midnightblue" d="M40.5772,-203.997C54.6561,-201.62 74.2565,-198.311 91.8509,-195.34"/>
<polygon fill="midnightblue" stroke="midnightblue" points="92.6438,-198.756 101.922,-193.64 91.4784,-191.854 92.6438,-198.756"/>
</g>
<!-- Node26 -->
<g id="node26" class="node"><title>Node26</title>
<g id="a_node26"><a xlink:href="$rotations_8cpp.html#a1452d16c339066eafa4bf6ad001b7695" xlink:title="missing_rotations">
<polygon fill="white" stroke="black" points="87.8618,-142.263 87.8618,-160.263 181.674,-160.263 181.674,-142.263 87.8618,-142.263"/>
<text text-anchor="middle" x="134.768" y="-148.263" font-family="Helvetica,sans-Serif" font-size="10.00">missing_rotations</text>
</a>
</g>
</g>
<!-- Node1&#45;&gt;Node26 -->
<g id="edge32" class="edge"><title>Node1&#45;&gt;Node26</title>
<path fill="none" stroke="midnightblue" d="M32.4588,-198.04C43.202,-189.589 60.1412,-177.218 76.4629,-169.263 80.5816,-167.256 84.9746,-165.407 89.4263,-163.722"/>
<polygon fill="midnightblue" stroke="midnightblue" points="90.9068,-166.912 99.1822,-160.296 88.5874,-160.307 90.9068,-166.912"/>
</g>
<!-- Node3 -->
<g id="node3" class="node"><title>Node3</title>
<g id="a_node3"><a xlink:href="$classAP__HAL_1_1Print.html#acfe80773011eb17dfb52c2fba517a093" xlink:title="AP_HAL::Print::print">
<polygon fill="white" stroke="black" points="531.674,-322.263 531.674,-340.263 637.157,-340.263 637.157,-322.263 531.674,-322.263"/>
<text text-anchor="middle" x="584.416" y="-328.263" font-family="Helvetica,sans-Serif" font-size="10.00">AP_HAL::Print::print</text>
</a>
</g>
</g>
<!-- Node2&#45;&gt;Node3 -->
<g id="edge2" class="edge"><title>Node2&#45;&gt;Node3</title>
<path fill="none" stroke="midnightblue" d="M291.574,-226.406C306.491,-254.027 352.137,-335.556 378.339,-349.263 434.337,-378.558 510.818,-358.796 552.769,-343.77"/>
<polygon fill="midnightblue" stroke="midnightblue" points="554.013,-347.042 562.165,-340.275 551.572,-340.481 554.013,-347.042"/>
</g>
<!-- Node5 -->
<g id="node5" class="node"><title>Node5</title>
<g id="a_node5"><a xlink:href="$classAP__HAL_1_1Print.html#a169b128f9e22f0c15883768f580541a2" xlink:title="AP_HAL::Print::println">
<polygon fill="white" stroke="black" points="378.339,-322.263 378.339,-340.263 491.604,-340.263 491.604,-322.263 378.339,-322.263"/>
<text text-anchor="middle" x="434.972" y="-328.263" font-family="Helvetica,sans-Serif" font-size="10.00">AP_HAL::Print::println</text>
</a>
</g>
</g>
<!-- Node2&#45;&gt;Node5 -->
<g id="edge4" class="edge"><title>Node2&#45;&gt;Node5</title>
<path fill="none" stroke="midnightblue" d="M298.508,-226.4C323.713,-245.911 383.029,-291.828 414.138,-315.91"/>
<polygon fill="midnightblue" stroke="midnightblue" points="412.063,-318.73 422.113,-322.083 416.348,-313.194 412.063,-318.73"/>
</g>
<!-- Node4 -->
<g id="node4" class="node"><title>Node4</title>
<g id="a_node4"><a xlink:href="$classAP__HAL_1_1Print.html#acc65391952a43334f8f5c9bef341f501" xlink:title="AP_HAL::Print::write">
<polygon fill="white" stroke="black" points="931.095,-276.263 931.095,-294.263 1038.24,-294.263 1038.24,-276.263 931.095,-276.263"/>
<text text-anchor="middle" x="984.666" y="-282.263" font-family="Helvetica,sans-Serif" font-size="10.00">AP_HAL::Print::write</text>
</a>
</g>
</g>
<!-- Node3&#45;&gt;Node4 -->
<g id="edge3" class="edge"><title>Node3&#45;&gt;Node4</title>
<path fill="none" stroke="midnightblue" d="M637.48,-325.25C710.323,-316.836 842.489,-301.57 920.75,-292.53"/>
<polygon fill="midnightblue" stroke="midnightblue" points="921.423,-295.976 930.955,-291.352 920.619,-289.022 921.423,-295.976"/>
</g>
<!-- Node5&#45;&gt;Node3 -->
<g id="edge5" class="edge"><title>Node5&#45;&gt;Node3</title>
<path fill="none" stroke="midnightblue" d="M491.714,-331.263C501.398,-331.263 511.523,-331.263 521.363,-331.263"/>
<polygon fill="midnightblue" stroke="midnightblue" points="521.484,-334.763 531.484,-331.263 521.484,-327.763 521.484,-334.763"/>
</g>
<!-- Node6&#45;&gt;Node2 -->
<g id="edge7" class="edge"><title>Node6&#45;&gt;Node2</title>
<path fill="none" stroke="midnightblue" d="M155.749,-274.16C174.614,-265.591 203.715,-252.44 229.073,-241.263 237.237,-237.665 246.097,-233.817 254.297,-230.279"/>
<polygon fill="midnightblue" stroke="midnightblue" points="255.736,-233.471 263.538,-226.303 252.969,-227.041 255.736,-233.471"/>
</g>
<!-- Node7 -->
<g id="node7" class="node"><title>Node7</title>
<g id="a_node7"><a xlink:href="$classMatrix3.html#a62587bd216436f09f06b9e1330f84bc0" xlink:title="&#45;*&#45; tab&#45;width: 4; Mode: C++; c&#45;basic&#45;offset: 4; indent&#45;tabs&#45;mode: nil &#45;*&#45; ">
<polygon fill="white" stroke="black" points="383.903,-246.263 383.903,-264.263 486.041,-264.263 486.041,-246.263 383.903,-246.263"/>
<text text-anchor="middle" x="434.972" y="-252.263" font-family="Helvetica,sans-Serif" font-size="10.00">Matrix3::from_euler</text>
</a>
</g>
</g>
<!-- Node6&#45;&gt;Node7 -->
<g id="edge8" class="edge"><title>Node6&#45;&gt;Node7</title>
<path fill="none" stroke="midnightblue" d="M193.265,-277.865C244.991,-273.008 320.732,-265.896 373.387,-260.952"/>
<polygon fill="midnightblue" stroke="midnightblue" points="373.967,-264.413 383.596,-259.993 373.313,-257.444 373.967,-264.413"/>
</g>
<!-- Node8 -->
<g id="node8" class="node"><title>Node8</title>
<g id="a_node8"><a xlink:href="$classMatrix3.html#a6f044e8d64f6f10e054af962487399b9" xlink:title="Matrix3::rotate">
<polygon fill="white" stroke="black" points="245.75,-322.263 245.75,-340.263 325.662,-340.263 325.662,-322.263 245.75,-322.263"/>
<text text-anchor="middle" x="285.706" y="-328.263" font-family="Helvetica,sans-Serif" font-size="10.00">Matrix3::rotate</text>
</a>
</g>
</g>
<!-- Node6&#45;&gt;Node8 -->
<g id="edge9" class="edge"><title>Node6&#45;&gt;Node8</title>
<path fill="none" stroke="midnightblue" d="M163.782,-292.292C187.215,-299.844 220.866,-310.689 246.722,-319.022"/>
<polygon fill="midnightblue" stroke="midnightblue" points="245.973,-322.458 256.565,-322.194 248.12,-315.795 245.973,-322.458"/>
</g>
<!-- Node9 -->
<g id="node9" class="node"><title>Node9</title>
<g id="a_node9"><a xlink:href="$classMatrix3.html#a893c6a712d52e47dbb7ed2d7a548046e" xlink:title="Matrix3::to_euler">
<polygon fill="white" stroke="black" points="240.467,-378.263 240.467,-396.263 330.945,-396.263 330.945,-378.263 240.467,-378.263"/>
<text text-anchor="middle" x="285.706" y="-384.263" font-family="Helvetica,sans-Serif" font-size="10.00">Matrix3::to_euler</text>
</a>
</g>
</g>
<!-- Node6&#45;&gt;Node9 -->
<g id="edge10" class="edge"><title>Node6&#45;&gt;Node9</title>
<path fill="none" stroke="midnightblue" d="M148.399,-292.297C166.292,-305.071 200.073,-329.104 229.073,-349.263 240.067,-356.905 252.352,-365.311 262.576,-372.269"/>
<polygon fill="midnightblue" stroke="midnightblue" points="260.707,-375.231 270.945,-377.956 264.641,-369.441 260.707,-375.231"/>
</g>
<!-- Node11 -->
<g id="node11" class="node"><title>Node11</title>
<g id="a_node11"><a xlink:href="$classAP__HAL_1_1UARTDriver.html#a65c7824b8877f7a2f79365c8ffae8f56" xlink:title="AP_HAL::UARTDriver\l::printf">
<polygon fill="white" stroke="black" points="527.604,-130.263 527.604,-158.263 641.227,-158.263 641.227,-130.263 527.604,-130.263"/>
<text text-anchor="start" x="535.604" y="-146.263" font-family="Helvetica,sans-Serif" font-size="10.00">AP_HAL::UARTDriver</text>
<text text-anchor="middle" x="584.416" y="-136.263" font-family="Helvetica,sans-Serif" font-size="10.00">::printf</text>
</a>
</g>
</g>
<!-- Node6&#45;&gt;Node11 -->
<g id="edge12" class="edge"><title>Node6&#45;&gt;Node11</title>
<path fill="none" stroke="midnightblue" d="M193.084,-288.719C281.011,-295.932 444.017,-304.38 491.604,-273.263 522.216,-253.247 506.272,-228.972 527.604,-199.263 536.457,-186.936 548.193,-174.907 558.618,-165.259"/>
<polygon fill="midnightblue" stroke="midnightblue" points="561.172,-167.669 566.265,-158.378 556.49,-162.465 561.172,-167.669"/>
</g>
<!-- Node10 -->
<g id="node10" class="node"><title>Node10</title>
<g id="a_node10"><a xlink:href="$AP__Math_8cpp.html#a2706fd969ad73bc8ef977d964c04f4a3" xlink:title="safe_asin">
<polygon fill="white" stroke="black" points="405.568,-398.263 405.568,-416.263 464.375,-416.263 464.375,-398.263 405.568,-398.263"/>
<text text-anchor="middle" x="434.972" y="-404.263" font-family="Helvetica,sans-Serif" font-size="10.00">safe_asin</text>
</a>
</g>
</g>
<!-- Node9&#45;&gt;Node10 -->
<g id="edge11" class="edge"><title>Node9&#45;&gt;Node10</title>
<path fill="none" stroke="midnightblue" d="M331.29,-393.318C351.67,-396.086 375.585,-399.334 395.206,-401.999"/>
<polygon fill="midnightblue" stroke="midnightblue" points="394.943,-405.495 405.324,-403.373 395.886,-398.559 394.943,-405.495"/>
</g>
<!-- Node12 -->
<g id="node12" class="node"><title>Node12</title>
<g id="a_node12"><a xlink:href="$classAP__HAL_1_1UARTDriver.html#aa8abfb6d6641299472c29ac1edde559f" xlink:title="AP_HAL::UARTDriver\l::vprintf">
<polygon fill="white" stroke="black" points="677.227,-146.263 677.227,-174.263 790.849,-174.263 790.849,-146.263 677.227,-146.263"/>
<text text-anchor="start" x="685.227" y="-162.263" font-family="Helvetica,sans-Serif" font-size="10.00">AP_HAL::UARTDriver</text>
<text text-anchor="middle" x="734.038" y="-152.263" font-family="Helvetica,sans-Serif" font-size="10.00">::vprintf</text>
</a>
</g>
</g>
<!-- Node11&#45;&gt;Node12 -->
<g id="edge13" class="edge"><title>Node11&#45;&gt;Node12</title>
<path fill="none" stroke="midnightblue" d="M641.646,-150.358C649.872,-151.249 658.407,-152.174 666.809,-153.085"/>
<polygon fill="midnightblue" stroke="midnightblue" points="666.644,-156.588 676.963,-154.186 667.399,-149.628 666.644,-156.588"/>
</g>
<!-- Node13 -->
<g id="node13" class="node"><title>Node13</title>
<g id="a_node13"><a xlink:href="$print__vprintf_8cpp.html#a473b9349f4b086b552a21eb8fe057016" xlink:title="print_vprintf">
<polygon fill="white" stroke="black" points="826.849,-168.263 826.849,-186.263 895.095,-186.263 895.095,-168.263 826.849,-168.263"/>
<text text-anchor="middle" x="860.972" y="-174.263" font-family="Helvetica,sans-Serif" font-size="10.00">print_vprintf</text>
</a>
</g>
</g>
<!-- Node12&#45;&gt;Node13 -->
<g id="edge14" class="edge"><title>Node12&#45;&gt;Node13</title>
<path fill="none" stroke="midnightblue" d="M790.927,-167.868C799.515,-169.037 808.271,-170.228 816.536,-171.353"/>
<polygon fill="midnightblue" stroke="midnightblue" points="816.311,-174.854 826.692,-172.735 817.255,-167.918 816.311,-174.854"/>
</g>
<!-- Node13&#45;&gt;Node4 -->
<g id="edge15" class="edge"><title>Node13&#45;&gt;Node4</title>
<path fill="none" stroke="midnightblue" d="M869.412,-186.605C881.431,-201.358 906.287,-230.504 931.095,-251.263 939.597,-258.378 949.67,-265.221 958.712,-270.879"/>
<polygon fill="midnightblue" stroke="midnightblue" points="956.951,-273.904 967.314,-276.108 960.588,-267.923 956.951,-273.904"/>
</g>
<!-- Node14 -->
<g id="node14" class="node"><title>Node14</title>
<g id="a_node14"><a xlink:href="$ftoa__engine_8cpp.html#a1c28234da8f20b43c85890d4bb452947" xlink:title="ftoa_engine">
<polygon fill="white" stroke="black" points="950.531,-113.263 950.531,-131.263 1018.8,-131.263 1018.8,-113.263 950.531,-113.263"/>
<text text-anchor="middle" x="984.666" y="-119.263" font-family="Helvetica,sans-Serif" font-size="10.00">ftoa_engine</text>
</a>
</g>
</g>
<!-- Node13&#45;&gt;Node14 -->
<g id="edge16" class="edge"><title>Node13&#45;&gt;Node14</title>
<path fill="none" stroke="midnightblue" d="M877.264,-168.152C891.04,-160.17 912.001,-148.578 931.095,-140.263 935.506,-138.342 940.194,-136.487 944.883,-134.744"/>
<polygon fill="midnightblue" stroke="midnightblue" points="946.18,-137.997 954.422,-131.34 943.828,-131.404 946.18,-137.997"/>
</g>
<!-- Node15 -->
<g id="node15" class="node"><title>Node15</title>
<g id="a_node15"><a xlink:href="$AP__Progmem_8h.html#a1514e0408e036062b4af844baaf567da" xlink:title="pgm_read_byte">
<polygon fill="white" stroke="black" points="941.92,-224.263 941.92,-242.263 1027.41,-242.263 1027.41,-224.263 941.92,-224.263"/>
<text text-anchor="middle" x="984.666" y="-230.263" font-family="Helvetica,sans-Serif" font-size="10.00">pgm_read_byte</text>
</a>
</g>
</g>
<!-- Node13&#45;&gt;Node15 -->
<g id="edge17" class="edge"><title>Node13&#45;&gt;Node15</title>
<path fill="none" stroke="midnightblue" d="M877.298,-186.296C891.097,-194.227 912.072,-205.788 931.095,-214.263 936.137,-216.51 941.533,-218.696 946.877,-220.737"/>
<polygon fill="midnightblue" stroke="midnightblue" points="945.761,-224.056 956.354,-224.238 948.186,-217.49 945.761,-224.056"/>
</g>
<!-- Node16 -->
<g id="node16" class="node"><title>Node16</title>
<g id="a_node16"><a xlink:href="$utoa__invert_8cpp.html#a34926f552460b47c414ec4d83b32815c" xlink:title="ulltoa_invert">
<polygon fill="white" stroke="black" points="949.706,-187.263 949.706,-205.263 1019.63,-205.263 1019.63,-187.263 949.706,-187.263"/>
<text text-anchor="middle" x="984.666" y="-193.263" font-family="Helvetica,sans-Serif" font-size="10.00">ulltoa_invert</text>
</a>
</g>
</g>
<!-- Node13&#45;&gt;Node16 -->
<g id="edge18" class="edge"><title>Node13&#45;&gt;Node16</title>
<path fill="none" stroke="midnightblue" d="M895.225,-182.455C908.948,-184.598 925.047,-187.111 939.721,-189.402"/>
<polygon fill="midnightblue" stroke="midnightblue" points="939.185,-192.861 949.606,-190.945 940.265,-185.945 939.185,-192.861"/>
</g>
<!-- Node17 -->
<g id="node17" class="node"><title>Node17</title>
<g id="a_node17"><a xlink:href="$utoa__invert_8cpp.html#a5d99bba8e697c1e11da489d88fca8559" xlink:title="ultoa_invert">
<polygon fill="white" stroke="black" points="950.816,-150.263 950.816,-168.263 1018.52,-168.263 1018.52,-150.263 950.816,-150.263"/>
<text text-anchor="middle" x="984.666" y="-156.263" font-family="Helvetica,sans-Serif" font-size="10.00">ultoa_invert</text>
</a>
</g>
</g>
<!-- Node13&#45;&gt;Node17 -->
<g id="edge19" class="edge"><title>Node13&#45;&gt;Node17</title>
<path fill="none" stroke="midnightblue" d="M895.225,-172.345C909.177,-170.281 925.584,-167.854 940.453,-165.655"/>
<polygon fill="midnightblue" stroke="midnightblue" points="941.072,-169.102 950.453,-164.176 940.048,-162.177 941.072,-169.102"/>
</g>
<!-- Node18&#45;&gt;Node2 -->
<g id="edge21" class="edge"><title>Node18&#45;&gt;Node2</title>
<path fill="none" stroke="midnightblue" d="M167.354,-194.413C185.112,-197.871 207.806,-202.29 228.496,-206.318"/>
<polygon fill="midnightblue" stroke="midnightblue" points="227.977,-209.783 238.461,-208.259 229.314,-202.912 227.977,-209.783"/>
</g>
<!-- Node19 -->
<g id="node19" class="node"><title>Node19</title>
<g id="a_node19"><a xlink:href="$rotations_8cpp.html#af879672d9ab28cd8ad8e4e604beda066" xlink:title="test_euler">
<polygon fill="white" stroke="black" points="255.748,-132.263 255.748,-150.263 315.664,-150.263 315.664,-132.263 255.748,-132.263"/>
<text text-anchor="middle" x="285.706" y="-138.263" font-family="Helvetica,sans-Serif" font-size="10.00">test_euler</text>
</a>
</g>
</g>
<!-- Node18&#45;&gt;Node19 -->
<g id="edge22" class="edge"><title>Node18&#45;&gt;Node19</title>
<path fill="none" stroke="midnightblue" d="M164.485,-179.201C187.768,-171.854 220.793,-161.432 246.339,-153.371"/>
<polygon fill="midnightblue" stroke="midnightblue" points="247.594,-156.645 256.077,-150.298 245.488,-149.969 247.594,-156.645"/>
</g>
<!-- Node19&#45;&gt;Node7 -->
<g id="edge24" class="edge"><title>Node19&#45;&gt;Node7</title>
<path fill="none" stroke="midnightblue" d="M315.826,-149.451C325.116,-153.137 334.904,-158.275 342.339,-165.263 368.12,-189.494 351.631,-213.059 378.339,-236.263 380.578,-238.209 383.026,-239.957 385.606,-241.529"/>
<polygon fill="midnightblue" stroke="midnightblue" points="384.28,-244.782 394.777,-246.217 387.466,-238.549 384.28,-244.782"/>
</g>
<!-- Node19&#45;&gt;Node11 -->
<g id="edge29" class="edge"><title>Node19&#45;&gt;Node11</title>
<path fill="none" stroke="midnightblue" d="M315.837,-134.851C333.762,-131.236 357.262,-127.09 378.339,-125.263 428.491,-120.918 441.526,-120.136 491.604,-125.263 499.984,-126.121 508.728,-127.409 517.346,-128.917"/>
<polygon fill="midnightblue" stroke="midnightblue" points="516.905,-132.395 527.375,-130.777 518.181,-125.512 516.905,-132.395"/>
</g>
<!-- Node20 -->
<g id="node20" class="node"><title>Node20</title>
<g id="a_node20"><a xlink:href="$classVector3.html#a53d5701ae2db9492944550927279b7b8" xlink:title="Vector3::rotate">
<polygon fill="white" stroke="black" points="394.45,-59.2633 394.45,-77.2633 475.494,-77.2633 475.494,-59.2633 394.45,-59.2633"/>
<text text-anchor="middle" x="434.972" y="-65.2633" font-family="Helvetica,sans-Serif" font-size="10.00">Vector3::rotate</text>
</a>
</g>
</g>
<!-- Node19&#45;&gt;Node20 -->
<g id="edge23" class="edge"><title>Node19&#45;&gt;Node20</title>
<path fill="none" stroke="midnightblue" d="M302.717,-132.174C320.842,-122.009 351.363,-105.267 378.339,-92.2633 386.086,-88.529 394.559,-84.7321 402.504,-81.2934"/>
<polygon fill="midnightblue" stroke="midnightblue" points="404.026,-84.4494 411.849,-77.3049 401.278,-78.0113 404.026,-84.4494"/>
</g>
<!-- Node21 -->
<g id="node21" class="node"><title>Node21</title>
<g id="a_node21"><a xlink:href="$AP__Math_8h.html#a75b14352ec1c95a8276af9a0813cfdc3" xlink:title="radians">
<polygon fill="white" stroke="black" points="410.573,-172.263 410.573,-190.263 459.371,-190.263 459.371,-172.263 410.573,-172.263"/>
<text text-anchor="middle" x="434.972" y="-178.263" font-family="Helvetica,sans-Serif" font-size="10.00">radians</text>
</a>
</g>
</g>
<!-- Node19&#45;&gt;Node21 -->
<g id="edge25" class="edge"><title>Node19&#45;&gt;Node21</title>
<path fill="none" stroke="midnightblue" d="M315.801,-149.166C340.113,-155.77 374.802,-165.192 400.309,-172.12"/>
<polygon fill="midnightblue" stroke="midnightblue" points="399.71,-175.584 410.278,-174.828 401.545,-168.829 399.71,-175.584"/>
</g>
<!-- Node22 -->
<g id="node22" class="node"><title>Node22</title>
<g id="a_node22"><a xlink:href="$classVector3.html#ac1fd5514e368a1e1c2d13f71eda18345" xlink:title="Vector3::length">
<polygon fill="white" stroke="black" points="393.612,-209.263 393.612,-227.263 476.331,-227.263 476.331,-209.263 393.612,-209.263"/>
<text text-anchor="middle" x="434.972" y="-215.263" font-family="Helvetica,sans-Serif" font-size="10.00">Vector3::length</text>
</a>
</g>
</g>
<!-- Node19&#45;&gt;Node22 -->
<g id="edge26" class="edge"><title>Node19&#45;&gt;Node22</title>
<path fill="none" stroke="midnightblue" d="M312.87,-150.352C322.515,-154.259 333.288,-159.307 342.339,-165.263 360.723,-177.362 359.496,-187.892 378.339,-199.263 382.178,-201.58 386.339,-203.662 390.596,-205.52"/>
<polygon fill="midnightblue" stroke="midnightblue" points="389.401,-208.811 399.987,-209.237 391.977,-202.302 389.401,-208.811"/>
</g>
<!-- Node25 -->
<g id="node25" class="node"><title>Node25</title>
<g id="a_node25"><a xlink:href="$rotations_8cpp.html#abeed49eaf8341cd6b00a5291b074afa3" xlink:title="print_vector">
<polygon fill="white" stroke="black" points="400.849,-135.263 400.849,-153.263 469.095,-153.263 469.095,-135.263 400.849,-135.263"/>
<text text-anchor="middle" x="434.972" y="-141.263" font-family="Helvetica,sans-Serif" font-size="10.00">print_vector</text>
</a>
</g>
</g>
<!-- Node19&#45;&gt;Node25 -->
<g id="edge30" class="edge"><title>Node19&#45;&gt;Node25</title>
<path fill="none" stroke="midnightblue" d="M315.801,-141.856C337.122,-142.29 366.424,-142.887 390.515,-143.378"/>
<polygon fill="midnightblue" stroke="midnightblue" points="390.756,-146.884 400.825,-143.588 390.898,-139.885 390.756,-146.884"/>
</g>
<!-- Node23 -->
<g id="node23" class="node"><title>Node23</title>
<g id="a_node23"><a xlink:href="$AP__Math_8h.html#a6b05ff3296c2ed55b1cd74262a7330f6" xlink:title="pythagorous3">
<polygon fill="white" stroke="black" points="546.115,-209.263 546.115,-227.263 622.716,-227.263 622.716,-209.263 546.115,-209.263"/>
<text text-anchor="middle" x="584.416" y="-215.263" font-family="Helvetica,sans-Serif" font-size="10.00">pythagorous3</text>
</a>
</g>
</g>
<!-- Node22&#45;&gt;Node23 -->
<g id="edge27" class="edge"><title>Node22&#45;&gt;Node23</title>
<path fill="none" stroke="midnightblue" d="M476.652,-218.263C495.004,-218.263 516.801,-218.263 535.9,-218.263"/>
<polygon fill="midnightblue" stroke="midnightblue" points="535.901,-221.763 545.901,-218.263 535.901,-214.763 535.901,-221.763"/>
</g>
<!-- Node24 -->
<g id="node24" class="node"><title>Node24</title>
<g id="a_node24"><a xlink:href="$AP__Math_8h.html#a00f57739f8671cb41eae08a51b7cbf7c" xlink:title="sq">
<polygon fill="white" stroke="black" points="719.538,-209.263 719.538,-227.263 748.538,-227.263 748.538,-209.263 719.538,-209.263"/>
<text text-anchor="middle" x="734.038" y="-215.263" font-family="Helvetica,sans-Serif" font-size="10.00">sq</text>
</a>
</g>
</g>
<!-- Node23&#45;&gt;Node24 -->
<g id="edge28" class="edge"><title>Node23&#45;&gt;Node24</title>
<path fill="none" stroke="midnightblue" d="M623.049,-218.263C650.187,-218.263 685.993,-218.263 709.262,-218.263"/>
<polygon fill="midnightblue" stroke="midnightblue" points="709.291,-221.763 719.291,-218.263 709.29,-214.763 709.291,-221.763"/>
</g>
<!-- Node25&#45;&gt;Node11 -->
<g id="edge31" class="edge"><title>Node25&#45;&gt;Node11</title>
<path fill="none" stroke="midnightblue" d="M469.429,-144.263C483.642,-144.263 500.735,-144.263 517.31,-144.263"/>
<polygon fill="midnightblue" stroke="midnightblue" points="517.532,-147.763 527.532,-144.263 517.532,-140.763 517.532,-147.763"/>
</g>
<!-- Node26&#45;&gt;Node2 -->
<g id="edge33" class="edge"><title>Node26&#45;&gt;Node2</title>
<path fill="none" stroke="midnightblue" d="M170.015,-160.275C177.759,-162.789 185.83,-165.798 193.073,-169.263 210.42,-177.561 212.176,-184.084 229.073,-193.263 236.287,-197.182 244.273,-200.942 251.89,-204.276"/>
<polygon fill="midnightblue" stroke="midnightblue" points="250.683,-207.566 261.255,-208.251 253.418,-201.122 250.683,-207.566"/>
</g>
<!-- Node26&#45;&gt;Node7 -->
<g id="edge34" class="edge"><title>Node26&#45;&gt;Node7</title>
<path fill="none" stroke="midnightblue" d="M182.046,-154.084C225.844,-158.47 292.172,-169.668 342.339,-198.263 362.551,-209.784 358.762,-223.694 378.339,-236.263 381.865,-238.528 385.692,-240.554 389.632,-242.361"/>
<polygon fill="midnightblue" stroke="midnightblue" points="388.362,-245.623 398.941,-246.188 391.023,-239.149 388.362,-245.623"/>
</g>
<!-- Node26&#45;&gt;Node11 -->
<g id="edge38" class="edge"><title>Node26&#45;&gt;Node11</title>
<path fill="none" stroke="midnightblue" d="M141.48,-141.975C154.412,-121.768 188.022,-73.672 229.073,-49.2633 287.821,-14.3323 310.495,-20.5466 378.339,-12.2633 428.308,-6.16243 446.989,11.0513 491.604,-12.2633 535.171,-35.0296 562.243,-88.9327 574.899,-120.365"/>
<polygon fill="midnightblue" stroke="midnightblue" points="571.782,-122.01 578.641,-130.085 578.314,-119.495 571.782,-122.01"/>
</g>
<!-- Node27 -->
<g id="node27" class="node"><title>Node27</title>
<g id="a_node27"><a xlink:href="$rotations_8cpp.html#ad6798e5b3eec8e581f4c054837985245" xlink:title="have_rotation">
<polygon fill="white" stroke="black" points="247.406,-59.2633 247.406,-77.2633 324.006,-77.2633 324.006,-59.2633 247.406,-59.2633"/>
<text text-anchor="middle" x="285.706" y="-65.2633" font-family="Helvetica,sans-Serif" font-size="10.00">have_rotation</text>
</a>
</g>
</g>
<!-- Node26&#45;&gt;Node27 -->
<g id="edge35" class="edge"><title>Node26&#45;&gt;Node27</title>
<path fill="none" stroke="midnightblue" d="M151.991,-142.223C177.954,-127.754 229.032,-99.2894 259.694,-82.2022"/>
<polygon fill="midnightblue" stroke="midnightblue" points="261.472,-85.2179 268.504,-77.2926 258.065,-79.1033 261.472,-85.2179"/>
</g>
<!-- Node27&#45;&gt;Node20 -->
<g id="edge37" class="edge"><title>Node27&#45;&gt;Node20</title>
<path fill="none" stroke="midnightblue" d="M324.248,-68.2633C342.535,-68.2633 364.768,-68.2633 384.427,-68.2633"/>
<polygon fill="midnightblue" stroke="midnightblue" points="384.438,-71.7634 394.438,-68.2633 384.438,-64.7634 384.438,-71.7634"/>
</g>
<!-- Node28 -->
<g id="node28" class="node"><title>Node28</title>
<g id="a_node28"><a xlink:href="$classMatrix3.html#a18e2df03dec4abdf11fc9fb60ed7c226" xlink:title="Matrix3::transposed">
<polygon fill="white" stroke="black" points="383.063,-22.2633 383.063,-40.2633 486.88,-40.2633 486.88,-22.2633 383.063,-22.2633"/>
<text text-anchor="middle" x="434.972" y="-28.2633" font-family="Helvetica,sans-Serif" font-size="10.00">Matrix3::transposed</text>
</a>
</g>
</g>
<!-- Node27&#45;&gt;Node28 -->
<g id="edge36" class="edge"><title>Node27&#45;&gt;Node28</title>
<path fill="none" stroke="midnightblue" d="M322.731,-59.2121C342.505,-54.2439 367.226,-48.0329 388.338,-42.7285"/>
<polygon fill="midnightblue" stroke="midnightblue" points="389.218,-46.1164 398.063,-40.2851 387.512,-39.3274 389.218,-46.1164"/>
</g>
</g>
</svg>
