<?xml version="1.0" encoding="UTF-8" standalone="no"?>
<!DOCTYPE svg PUBLIC "-//W3C//DTD SVG 1.1//EN"
 "http://www.w3.org/Graphics/SVG/1.1/DTD/svg11.dtd">
<!-- Generated by graphviz version 2.38.0 (20140413.2041)
 -->
<!-- Title: missing_rotations Pages: 1 -->
<svg width="686pt" height="200pt"
 viewBox="0.00 0.00 685.68 200.47" xmlns="http://www.w3.org/2000/svg" xmlns:xlink="http://www.w3.org/1999/xlink">
<g id="graph0" class="graph" transform="scale(1 1) rotate(0) translate(4 196.473)">
<title>missing_rotations</title>
<polygon fill="white" stroke="none" points="-4,4 -4,-196.473 681.682,-196.473 681.682,4 -4,4"/>
<!-- Node1 -->
<g id="node1" class="node"><title>Node1</title>
<polygon fill="#bfbfbf" stroke="black" points="0,-104.5 0,-122.5 93.8125,-122.5 93.8125,-104.5 0,-104.5"/>
<text text-anchor="middle" x="46.9062" y="-110.5" font-family="Helvetica,sans-Serif" font-size="10.00">missing_rotations</text>
</g>
<!-- Node2 -->
<g id="node2" class="node"><title>Node2</title>
<g id="a_node2"><a xlink:href="$classAP__HAL_1_1Print.html#ad337ce3f7977411b7d34d47a51e5737e" xlink:title="AP_HAL::Print::println">
<polygon fill="white" stroke="black" points="129.991,-160.5 129.991,-178.5 243.256,-178.5 243.256,-160.5 129.991,-160.5"/>
<text text-anchor="middle" x="186.624" y="-166.5" font-family="Helvetica,sans-Serif" font-size="10.00">AP_HAL::Print::println</text>
</a>
</g>
</g>
<!-- Node1&#45;&gt;Node2 -->
<g id="edge1" class="edge"><title>Node1&#45;&gt;Node2</title>
<path fill="none" stroke="midnightblue" d="M66.5548,-122.544C83.0148,-130.376 107.754,-141.786 129.812,-150.5 135.484,-152.74 141.539,-154.967 147.491,-157.065"/>
<polygon fill="midnightblue" stroke="midnightblue" points="146.731,-160.505 157.325,-160.454 149.011,-153.887 146.731,-160.505"/>
</g>
<!-- Node6 -->
<g id="node6" class="node"><title>Node6</title>
<g id="a_node6"><a xlink:href="$classMatrix3.html#a62587bd216436f09f06b9e1330f84bc0" xlink:title="&#45;*&#45; tab&#45;width: 4; Mode: C++; c&#45;basic&#45;offset: 4; indent&#45;tabs&#45;mode: nil &#45;*&#45; ">
<polygon fill="white" stroke="black" points="135.555,-123.5 135.555,-141.5 237.692,-141.5 237.692,-123.5 135.555,-123.5"/>
<text text-anchor="middle" x="186.624" y="-129.5" font-family="Helvetica,sans-Serif" font-size="10.00">Matrix3::from_euler</text>
</a>
</g>
</g>
<!-- Node1&#45;&gt;Node6 -->
<g id="edge6" class="edge"><title>Node1&#45;&gt;Node6</title>
<path fill="none" stroke="midnightblue" d="M94.1472,-119.88C104.214,-121.268 115.006,-122.757 125.522,-124.208"/>
<polygon fill="midnightblue" stroke="midnightblue" points="125.101,-127.683 135.486,-125.583 126.058,-120.749 125.101,-127.683"/>
</g>
<!-- Node7 -->
<g id="node7" class="node"><title>Node7</title>
<g id="a_node7"><a xlink:href="$rotations_8cpp.html#ad6798e5b3eec8e581f4c054837985245" xlink:title="have_rotation">
<polygon fill="white" stroke="black" points="148.323,-86.5 148.323,-104.5 224.924,-104.5 224.924,-86.5 148.323,-86.5"/>
<text text-anchor="middle" x="186.624" y="-92.5" font-family="Helvetica,sans-Serif" font-size="10.00">have_rotation</text>
</a>
</g>
</g>
<!-- Node1&#45;&gt;Node7 -->
<g id="edge7" class="edge"><title>Node1&#45;&gt;Node7</title>
<path fill="none" stroke="midnightblue" d="M94.1472,-107.456C108.232,-105.615 123.737,-103.589 137.917,-101.735"/>
<polygon fill="midnightblue" stroke="midnightblue" points="138.507,-105.188 147.969,-100.422 137.6,-98.2472 138.507,-105.188"/>
</g>
<!-- Node10 -->
<g id="node10" class="node"><title>Node10</title>
<g id="a_node10"><a xlink:href="$classAP__HAL_1_1UARTDriver.html#a65c7824b8877f7a2f79365c8ffae8f56" xlink:title="AP_HAL::UARTDriver\l::printf">
<polygon fill="white" stroke="black" points="129.812,-39.5 129.812,-67.5 243.435,-67.5 243.435,-39.5 129.812,-39.5"/>
<text text-anchor="start" x="137.812" y="-55.5" font-family="Helvetica,sans-Serif" font-size="10.00">AP_HAL::UARTDriver</text>
<text text-anchor="middle" x="186.624" y="-45.5" font-family="Helvetica,sans-Serif" font-size="10.00">::printf</text>
</a>
</g>
</g>
<!-- Node1&#45;&gt;Node10 -->
<g id="edge10" class="edge"><title>Node1&#45;&gt;Node10</title>
<path fill="none" stroke="midnightblue" d="M67.3531,-104.495C83.8977,-96.8862 108.325,-85.7779 129.812,-76.5 133.655,-74.8409 137.657,-73.1396 141.675,-71.4498"/>
<polygon fill="midnightblue" stroke="midnightblue" points="143.132,-74.6344 151.013,-67.5528 140.436,-68.1745 143.132,-74.6344"/>
</g>
<!-- Node3 -->
<g id="node3" class="node"><title>Node3</title>
<g id="a_node3"><a xlink:href="$classAP__HAL_1_1Print.html#acfe80773011eb17dfb52c2fba517a093" xlink:title="AP_HAL::Print::print">
<polygon fill="white" stroke="black" points="429.057,-160.5 429.057,-178.5 534.539,-178.5 534.539,-160.5 429.057,-160.5"/>
<text text-anchor="middle" x="481.798" y="-166.5" font-family="Helvetica,sans-Serif" font-size="10.00">AP_HAL::Print::print</text>
</a>
</g>
</g>
<!-- Node2&#45;&gt;Node3 -->
<g id="edge2" class="edge"><title>Node2&#45;&gt;Node3</title>
<path fill="none" stroke="midnightblue" d="M222.676,-178.506C239.684,-182.425 260.489,-186.56 279.435,-188.5 329.671,-193.644 342.845,-193.874 393.057,-188.5 407.647,-186.938 423.373,-183.956 437.426,-180.808"/>
<polygon fill="midnightblue" stroke="midnightblue" points="438.376,-184.181 447.323,-178.505 436.79,-177.363 438.376,-184.181"/>
</g>
<!-- Node5 -->
<g id="node5" class="node"><title>Node5</title>
<g id="a_node5"><a xlink:href="$classAP__HAL_1_1Print.html#a169b128f9e22f0c15883768f580541a2" xlink:title="AP_HAL::Print::println">
<polygon fill="white" stroke="black" points="279.613,-160.5 279.613,-178.5 392.878,-178.5 392.878,-160.5 279.613,-160.5"/>
<text text-anchor="middle" x="336.246" y="-166.5" font-family="Helvetica,sans-Serif" font-size="10.00">AP_HAL::Print::println</text>
</a>
</g>
</g>
<!-- Node2&#45;&gt;Node5 -->
<g id="edge4" class="edge"><title>Node2&#45;&gt;Node5</title>
<path fill="none" stroke="midnightblue" d="M243.433,-169.5C251.884,-169.5 260.67,-169.5 269.31,-169.5"/>
<polygon fill="midnightblue" stroke="midnightblue" points="269.357,-173 279.357,-169.5 269.357,-166 269.357,-173"/>
</g>
<!-- Node4 -->
<g id="node4" class="node"><title>Node4</title>
<g id="a_node4"><a xlink:href="$classAP__HAL_1_1Print.html#acc65391952a43334f8f5c9bef341f501" xlink:title="AP_HAL::Print::write">
<polygon fill="white" stroke="black" points="570.539,-158.5 570.539,-176.5 677.682,-176.5 677.682,-158.5 570.539,-158.5"/>
<text text-anchor="middle" x="624.11" y="-164.5" font-family="Helvetica,sans-Serif" font-size="10.00">AP_HAL::Print::write</text>
</a>
</g>
</g>
<!-- Node3&#45;&gt;Node4 -->
<g id="edge3" class="edge"><title>Node3&#45;&gt;Node4</title>
<path fill="none" stroke="midnightblue" d="M534.646,-168.761C543.063,-168.641 551.857,-168.516 560.497,-168.392"/>
<polygon fill="midnightblue" stroke="midnightblue" points="560.588,-171.892 570.537,-168.249 560.488,-164.892 560.588,-171.892"/>
</g>
<!-- Node5&#45;&gt;Node3 -->
<g id="edge5" class="edge"><title>Node5&#45;&gt;Node3</title>
<path fill="none" stroke="midnightblue" d="M393.158,-169.5C401.553,-169.5 410.253,-169.5 418.767,-169.5"/>
<polygon fill="midnightblue" stroke="midnightblue" points="419.026,-173 429.026,-169.5 419.026,-166 419.026,-173"/>
</g>
<!-- Node8 -->
<g id="node8" class="node"><title>Node8</title>
<g id="a_node8"><a xlink:href="$classMatrix3.html#a18e2df03dec4abdf11fc9fb60ed7c226" xlink:title="Matrix3::transposed">
<polygon fill="white" stroke="black" points="284.337,-123.5 284.337,-141.5 388.154,-141.5 388.154,-123.5 284.337,-123.5"/>
<text text-anchor="middle" x="336.246" y="-129.5" font-family="Helvetica,sans-Serif" font-size="10.00">Matrix3::transposed</text>
</a>
</g>
</g>
<!-- Node7&#45;&gt;Node8 -->
<g id="edge8" class="edge"><title>Node7&#45;&gt;Node8</title>
<path fill="none" stroke="midnightblue" d="M223.736,-104.551C243.558,-109.519 268.338,-115.73 289.502,-121.035"/>
<polygon fill="midnightblue" stroke="midnightblue" points="288.7,-124.442 299.25,-123.478 290.401,-117.652 288.7,-124.442"/>
</g>
<!-- Node9 -->
<g id="node9" class="node"><title>Node9</title>
<g id="a_node9"><a xlink:href="$classVector3.html#a53d5701ae2db9492944550927279b7b8" xlink:title="Vector3::rotate">
<polygon fill="white" stroke="black" points="295.724,-86.5 295.724,-104.5 376.768,-104.5 376.768,-86.5 295.724,-86.5"/>
<text text-anchor="middle" x="336.246" y="-92.5" font-family="Helvetica,sans-Serif" font-size="10.00">Vector3::rotate</text>
</a>
</g>
</g>
<!-- Node7&#45;&gt;Node9 -->
<g id="edge9" class="edge"><title>Node7&#45;&gt;Node9</title>
<path fill="none" stroke="midnightblue" d="M225.257,-95.5C243.588,-95.5 265.875,-95.5 285.581,-95.5"/>
<polygon fill="midnightblue" stroke="midnightblue" points="285.616,-99.0001 295.616,-95.5 285.616,-92.0001 285.616,-99.0001"/>
</g>
<!-- Node11 -->
<g id="node11" class="node"><title>Node11</title>
<g id="a_node11"><a xlink:href="$classAP__HAL_1_1UARTDriver.html#aa8abfb6d6641299472c29ac1edde559f" xlink:title="AP_HAL::UARTDriver\l::vprintf">
<polygon fill="white" stroke="black" points="279.435,-39.5 279.435,-67.5 393.057,-67.5 393.057,-39.5 279.435,-39.5"/>
<text text-anchor="start" x="287.435" y="-55.5" font-family="Helvetica,sans-Serif" font-size="10.00">AP_HAL::UARTDriver</text>
<text text-anchor="middle" x="336.246" y="-45.5" font-family="Helvetica,sans-Serif" font-size="10.00">::vprintf</text>
</a>
</g>
</g>
<!-- Node10&#45;&gt;Node11 -->
<g id="edge11" class="edge"><title>Node10&#45;&gt;Node11</title>
<path fill="none" stroke="midnightblue" d="M243.854,-53.5C252.08,-53.5 260.615,-53.5 269.017,-53.5"/>
<polygon fill="midnightblue" stroke="midnightblue" points="269.171,-57.0001 279.171,-53.5 269.171,-50.0001 269.171,-57.0001"/>
</g>
<!-- Node12 -->
<g id="node12" class="node"><title>Node12</title>
<g id="a_node12"><a xlink:href="$print__vprintf_8cpp.html#a473b9349f4b086b552a21eb8fe057016" xlink:title="print_vprintf">
<polygon fill="white" stroke="black" points="447.675,-55.5 447.675,-73.5 515.921,-73.5 515.921,-55.5 447.675,-55.5"/>
<text text-anchor="middle" x="481.798" y="-61.5" font-family="Helvetica,sans-Serif" font-size="10.00">print_vprintf</text>
</a>
</g>
</g>
<!-- Node11&#45;&gt;Node12 -->
<g id="edge12" class="edge"><title>Node11&#45;&gt;Node12</title>
<path fill="none" stroke="midnightblue" d="M393.158,-57.7844C407.837,-58.9092 423.449,-60.1055 437.367,-61.172"/>
<polygon fill="midnightblue" stroke="midnightblue" points="437.398,-64.6845 447.636,-61.9589 437.933,-57.705 437.398,-64.6845"/>
</g>
<!-- Node12&#45;&gt;Node4 -->
<g id="edge13" class="edge"><title>Node12&#45;&gt;Node4</title>
<path fill="none" stroke="midnightblue" d="M492.546,-73.838C508.217,-88.5857 540.327,-117.725 570.539,-138.5 578.402,-143.907 587.364,-149.155 595.634,-153.667"/>
<polygon fill="midnightblue" stroke="midnightblue" points="594.107,-156.819 604.581,-158.417 597.39,-150.636 594.107,-156.819"/>
</g>
<!-- Node13 -->
<g id="node13" class="node"><title>Node13</title>
<g id="a_node13"><a xlink:href="$ftoa__engine_8cpp.html#a1c28234da8f20b43c85890d4bb452947" xlink:title="ftoa_engine">
<polygon fill="white" stroke="black" points="589.975,-111.5 589.975,-129.5 658.246,-129.5 658.246,-111.5 589.975,-111.5"/>
<text text-anchor="middle" x="624.11" y="-117.5" font-family="Helvetica,sans-Serif" font-size="10.00">ftoa_engine</text>
</a>
</g>
</g>
<!-- Node12&#45;&gt;Node13 -->
<g id="edge14" class="edge"><title>Node12&#45;&gt;Node13</title>
<path fill="none" stroke="midnightblue" d="M503.592,-73.6303C521.291,-81.3148 547.446,-92.4649 570.539,-101.5 576.097,-103.675 582.019,-105.901 587.809,-108.029"/>
<polygon fill="midnightblue" stroke="midnightblue" points="586.746,-111.366 597.34,-111.49 589.135,-104.787 586.746,-111.366"/>
</g>
<!-- Node14 -->
<g id="node14" class="node"><title>Node14</title>
<g id="a_node14"><a xlink:href="$AP__Progmem_8h.html#a1514e0408e036062b4af844baaf567da" xlink:title="pgm_read_byte">
<polygon fill="white" stroke="black" points="581.364,-74.5 581.364,-92.5 666.856,-92.5 666.856,-74.5 581.364,-74.5"/>
<text text-anchor="middle" x="624.11" y="-80.5" font-family="Helvetica,sans-Serif" font-size="10.00">pgm_read_byte</text>
</a>
</g>
</g>
<!-- Node12&#45;&gt;Node14 -->
<g id="edge15" class="edge"><title>Node12&#45;&gt;Node14</title>
<path fill="none" stroke="midnightblue" d="M516.05,-69.0027C532.529,-71.2342 552.805,-73.9799 571.264,-76.4793"/>
<polygon fill="midnightblue" stroke="midnightblue" points="570.916,-79.9642 581.295,-77.8378 571.856,-73.0275 570.916,-79.9642"/>
</g>
<!-- Node15 -->
<g id="node15" class="node"><title>Node15</title>
<g id="a_node15"><a xlink:href="$utoa__invert_8cpp.html#a34926f552460b47c414ec4d83b32815c" xlink:title="ulltoa_invert">
<polygon fill="white" stroke="black" points="589.15,-37.5 589.15,-55.5 659.071,-55.5 659.071,-37.5 589.15,-37.5"/>
<text text-anchor="middle" x="624.11" y="-43.5" font-family="Helvetica,sans-Serif" font-size="10.00">ulltoa_invert</text>
</a>
</g>
</g>
<!-- Node12&#45;&gt;Node15 -->
<g id="edge16" class="edge"><title>Node12&#45;&gt;Node15</title>
<path fill="none" stroke="midnightblue" d="M516.05,-60.2343C534.907,-57.8152 558.736,-54.7582 579.124,-52.1428"/>
<polygon fill="midnightblue" stroke="midnightblue" points="579.649,-55.6042 589.122,-50.8602 578.758,-48.6611 579.649,-55.6042"/>
</g>
<!-- Node16 -->
<g id="node16" class="node"><title>Node16</title>
<g id="a_node16"><a xlink:href="$utoa__invert_8cpp.html#a5d99bba8e697c1e11da489d88fca8559" xlink:title="ultoa_invert">
<polygon fill="white" stroke="black" points="590.261,-0.5 590.261,-18.5 657.96,-18.5 657.96,-0.5 590.261,-0.5"/>
<text text-anchor="middle" x="624.11" y="-6.5" font-family="Helvetica,sans-Serif" font-size="10.00">ultoa_invert</text>
</a>
</g>
</g>
<!-- Node12&#45;&gt;Node16 -->
<g id="edge17" class="edge"><title>Node12&#45;&gt;Node16</title>
<path fill="none" stroke="midnightblue" d="M503.2,-55.4235C520.88,-47.6723 547.216,-36.3983 570.539,-27.5 575.427,-25.635 580.604,-23.7523 585.727,-21.9432"/>
<polygon fill="midnightblue" stroke="midnightblue" points="587.124,-25.1633 595.424,-18.5787 584.83,-18.5501 587.124,-25.1633"/>
</g>
</g>
</svg>
