<?xml version="1.0" encoding="UTF-8" standalone="no"?>
<!DOCTYPE svg PUBLIC "-//W3C//DTD SVG 1.1//EN"
 "http://www.w3.org/Graphics/SVG/1.1/DTD/svg11.dtd">
<!-- Generated by graphviz version 2.38.0 (20140413.2041)
 -->
<!-- Title: test_euler Pages: 1 -->
<svg width="753pt" height="271pt"
 viewBox="0.00 0.00 752.69 271.00" xmlns="http://www.w3.org/2000/svg" xmlns:xlink="http://www.w3.org/1999/xlink">
<g id="graph0" class="graph" transform="scale(1 1) rotate(0) translate(4 267)">
<title>test_euler</title>
<polygon fill="white" stroke="none" points="-4,4 -4,-267 748.687,-267 748.687,4 -4,4"/>
<!-- Node1 -->
<g id="node1" class="node"><title>Node1</title>
<polygon fill="#bfbfbf" stroke="black" points="0,-151.5 0,-169.5 59.916,-169.5 59.916,-151.5 0,-151.5"/>
<text text-anchor="middle" x="29.958" y="-157.5" font-family="Helvetica,sans-Serif" font-size="10.00">test_euler</text>
</g>
<!-- Node2 -->
<g id="node2" class="node"><title>Node2</title>
<g id="a_node2"><a xlink:href="$classVector3.html#a53d5701ae2db9492944550927279b7b8" xlink:title="Vector3::rotate">
<polygon fill="white" stroke="black" points="106.463,-244.5 106.463,-262.5 187.507,-262.5 187.507,-244.5 106.463,-244.5"/>
<text text-anchor="middle" x="146.985" y="-250.5" font-family="Helvetica,sans-Serif" font-size="10.00">Vector3::rotate</text>
</a>
</g>
</g>
<!-- Node1&#45;&gt;Node2 -->
<g id="edge1" class="edge"><title>Node1&#45;&gt;Node2</title>
<path fill="none" stroke="midnightblue" d="M36.6195,-169.687C46.695,-185.323 69.2078,-217.186 95.916,-235.5 98.4622,-237.246 101.197,-238.843 104.028,-240.3"/>
<polygon fill="midnightblue" stroke="midnightblue" points="102.728,-243.553 113.282,-244.488 105.614,-237.176 102.728,-243.553"/>
</g>
<!-- Node3 -->
<g id="node3" class="node"><title>Node3</title>
<g id="a_node3"><a xlink:href="$classMatrix3.html#a62587bd216436f09f06b9e1330f84bc0" xlink:title="&#45;*&#45; tab&#45;width: 4; Mode: C++; c&#45;basic&#45;offset: 4; indent&#45;tabs&#45;mode: nil &#45;*&#45; ">
<polygon fill="white" stroke="black" points="95.916,-207.5 95.916,-225.5 198.054,-225.5 198.054,-207.5 95.916,-207.5"/>
<text text-anchor="middle" x="146.985" y="-213.5" font-family="Helvetica,sans-Serif" font-size="10.00">Matrix3::from_euler</text>
</a>
</g>
</g>
<!-- Node1&#45;&gt;Node3 -->
<g id="edge2" class="edge"><title>Node1&#45;&gt;Node3</title>
<path fill="none" stroke="midnightblue" d="M44.9959,-169.733C57.8837,-177.96 77.688,-189.981 95.916,-198.5 99.9799,-200.399 104.304,-202.226 108.642,-203.939"/>
<polygon fill="midnightblue" stroke="midnightblue" points="107.478,-207.24 118.07,-207.491 109.947,-200.69 107.478,-207.24"/>
</g>
<!-- Node4 -->
<g id="node4" class="node"><title>Node4</title>
<g id="a_node4"><a xlink:href="$AP__Math_8h.html#a75b14352ec1c95a8276af9a0813cfdc3" xlink:title="radians">
<polygon fill="white" stroke="black" points="122.586,-170.5 122.586,-188.5 171.384,-188.5 171.384,-170.5 122.586,-170.5"/>
<text text-anchor="middle" x="146.985" y="-176.5" font-family="Helvetica,sans-Serif" font-size="10.00">radians</text>
</a>
</g>
</g>
<!-- Node1&#45;&gt;Node4 -->
<g id="edge3" class="edge"><title>Node1&#45;&gt;Node4</title>
<path fill="none" stroke="midnightblue" d="M59.9841,-165.295C75.9676,-167.935 95.878,-171.223 112.515,-173.971"/>
<polygon fill="midnightblue" stroke="midnightblue" points="111.95,-177.425 122.386,-175.602 113.091,-170.519 111.95,-177.425"/>
</g>
<!-- Node5 -->
<g id="node5" class="node"><title>Node5</title>
<g id="a_node5"><a xlink:href="$classVector3.html#ac1fd5514e368a1e1c2d13f71eda18345" xlink:title="Vector3::length">
<polygon fill="white" stroke="black" points="105.625,-133.5 105.625,-151.5 188.344,-151.5 188.344,-133.5 105.625,-133.5"/>
<text text-anchor="middle" x="146.985" y="-139.5" font-family="Helvetica,sans-Serif" font-size="10.00">Vector3::length</text>
</a>
</g>
</g>
<!-- Node1&#45;&gt;Node5 -->
<g id="edge4" class="edge"><title>Node1&#45;&gt;Node5</title>
<path fill="none" stroke="midnightblue" d="M59.9841,-155.958C70.6952,-154.282 83.1699,-152.33 95.2411,-150.441"/>
<polygon fill="midnightblue" stroke="midnightblue" points="95.8998,-153.88 105.238,-148.876 94.8175,-146.964 95.8998,-153.88"/>
</g>
<!-- Node8 -->
<g id="node8" class="node"><title>Node8</title>
<g id="a_node8"><a xlink:href="$classAP__HAL_1_1UARTDriver.html#a65c7824b8877f7a2f79365c8ffae8f56" xlink:title="AP_HAL::UARTDriver\l::printf">
<polygon fill="white" stroke="black" points="234.054,-69.5 234.054,-97.5 347.676,-97.5 347.676,-69.5 234.054,-69.5"/>
<text text-anchor="start" x="242.054" y="-85.5" font-family="Helvetica,sans-Serif" font-size="10.00">AP_HAL::UARTDriver</text>
<text text-anchor="middle" x="290.865" y="-75.5" font-family="Helvetica,sans-Serif" font-size="10.00">::printf</text>
</a>
</g>
</g>
<!-- Node1&#45;&gt;Node8 -->
<g id="edge7" class="edge"><title>Node1&#45;&gt;Node8</title>
<path fill="none" stroke="midnightblue" d="M44.8175,-151.215C57.5851,-143.06 77.3133,-131.443 95.916,-124.5 137.206,-109.09 185.718,-98.8381 223.895,-92.4394"/>
<polygon fill="midnightblue" stroke="midnightblue" points="224.562,-95.877 233.869,-90.8154 223.437,-88.9679 224.562,-95.877"/>
</g>
<!-- Node16 -->
<g id="node16" class="node"><title>Node16</title>
<g id="a_node16"><a xlink:href="$rotations_8cpp.html#abeed49eaf8341cd6b00a5291b074afa3" xlink:title="print_vector">
<polygon fill="white" stroke="black" points="112.862,-57.5 112.862,-75.5 181.108,-75.5 181.108,-57.5 112.862,-57.5"/>
<text text-anchor="middle" x="146.985" y="-63.5" font-family="Helvetica,sans-Serif" font-size="10.00">print_vector</text>
</a>
</g>
</g>
<!-- Node1&#45;&gt;Node16 -->
<g id="edge15" class="edge"><title>Node1&#45;&gt;Node16</title>
<path fill="none" stroke="midnightblue" d="M37.6539,-151.297C48.5426,-136.839 71.3542,-108.592 95.916,-90.5 101.213,-86.5982 107.244,-83.0711 113.242,-79.9961"/>
<polygon fill="midnightblue" stroke="midnightblue" points="115.022,-83.0242 122.529,-75.5473 111.998,-76.7112 115.022,-83.0242"/>
</g>
<!-- Node6 -->
<g id="node6" class="node"><title>Node6</title>
<g id="a_node6"><a xlink:href="$AP__Math_8h.html#a6b05ff3296c2ed55b1cd74262a7330f6" xlink:title="pythagorous3">
<polygon fill="white" stroke="black" points="252.564,-133.5 252.564,-151.5 329.165,-151.5 329.165,-133.5 252.564,-133.5"/>
<text text-anchor="middle" x="290.865" y="-139.5" font-family="Helvetica,sans-Serif" font-size="10.00">pythagorous3</text>
</a>
</g>
</g>
<!-- Node5&#45;&gt;Node6 -->
<g id="edge5" class="edge"><title>Node5&#45;&gt;Node6</title>
<path fill="none" stroke="midnightblue" d="M188.642,-142.5C205.188,-142.5 224.44,-142.5 241.684,-142.5"/>
<polygon fill="midnightblue" stroke="midnightblue" points="242.12,-146 252.12,-142.5 242.12,-139 242.12,-146"/>
</g>
<!-- Node7 -->
<g id="node7" class="node"><title>Node7</title>
<g id="a_node7"><a xlink:href="$AP__Math_8h.html#a00f57739f8671cb41eae08a51b7cbf7c" xlink:title="sq">
<polygon fill="white" stroke="black" points="425.987,-133.5 425.987,-151.5 454.987,-151.5 454.987,-133.5 425.987,-133.5"/>
<text text-anchor="middle" x="440.487" y="-139.5" font-family="Helvetica,sans-Serif" font-size="10.00">sq</text>
</a>
</g>
</g>
<!-- Node6&#45;&gt;Node7 -->
<g id="edge6" class="edge"><title>Node6&#45;&gt;Node7</title>
<path fill="none" stroke="midnightblue" d="M329.498,-142.5C356.636,-142.5 392.442,-142.5 415.712,-142.5"/>
<polygon fill="midnightblue" stroke="midnightblue" points="415.74,-146 425.74,-142.5 415.74,-139 415.74,-146"/>
</g>
<!-- Node9 -->
<g id="node9" class="node"><title>Node9</title>
<g id="a_node9"><a xlink:href="$classAP__HAL_1_1UARTDriver.html#aa8abfb6d6641299472c29ac1edde559f" xlink:title="AP_HAL::UARTDriver\l::vprintf">
<polygon fill="white" stroke="black" points="383.676,-69.5 383.676,-97.5 497.298,-97.5 497.298,-69.5 383.676,-69.5"/>
<text text-anchor="start" x="391.676" y="-85.5" font-family="Helvetica,sans-Serif" font-size="10.00">AP_HAL::UARTDriver</text>
<text text-anchor="middle" x="440.487" y="-75.5" font-family="Helvetica,sans-Serif" font-size="10.00">::vprintf</text>
</a>
</g>
</g>
<!-- Node8&#45;&gt;Node9 -->
<g id="edge8" class="edge"><title>Node8&#45;&gt;Node9</title>
<path fill="none" stroke="midnightblue" d="M348.095,-83.5C356.321,-83.5 364.856,-83.5 373.259,-83.5"/>
<polygon fill="midnightblue" stroke="midnightblue" points="373.412,-87.0001 383.412,-83.5 373.412,-80.0001 373.412,-87.0001"/>
</g>
<!-- Node10 -->
<g id="node10" class="node"><title>Node10</title>
<g id="a_node10"><a xlink:href="$print__vprintf_8cpp.html#a473b9349f4b086b552a21eb8fe057016" xlink:title="print_vprintf">
<polygon fill="white" stroke="black" points="533.298,-74.5 533.298,-92.5 601.544,-92.5 601.544,-74.5 533.298,-74.5"/>
<text text-anchor="middle" x="567.421" y="-80.5" font-family="Helvetica,sans-Serif" font-size="10.00">print_vprintf</text>
</a>
</g>
</g>
<!-- Node9&#45;&gt;Node10 -->
<g id="edge9" class="edge"><title>Node9&#45;&gt;Node10</title>
<path fill="none" stroke="midnightblue" d="M497.376,-83.5C505.965,-83.5 514.72,-83.5 522.985,-83.5"/>
<polygon fill="midnightblue" stroke="midnightblue" points="523.141,-87.0001 533.141,-83.5 523.141,-80.0001 523.141,-87.0001"/>
</g>
<!-- Node11 -->
<g id="node11" class="node"><title>Node11</title>
<g id="a_node11"><a xlink:href="$classAP__HAL_1_1Print.html#acc65391952a43334f8f5c9bef341f501" xlink:title="AP_HAL::Print::write">
<polygon fill="white" stroke="black" points="637.544,-148.5 637.544,-166.5 744.687,-166.5 744.687,-148.5 637.544,-148.5"/>
<text text-anchor="middle" x="691.115" y="-154.5" font-family="Helvetica,sans-Serif" font-size="10.00">AP_HAL::Print::write</text>
</a>
</g>
</g>
<!-- Node10&#45;&gt;Node11 -->
<g id="edge10" class="edge"><title>Node10&#45;&gt;Node11</title>
<path fill="none" stroke="midnightblue" d="M577.485,-92.6327C590.007,-104.806 613.76,-126.34 637.544,-139.5 641.006,-141.416 644.708,-143.18 648.485,-144.791"/>
<polygon fill="midnightblue" stroke="midnightblue" points="647.343,-148.103 657.931,-148.483 649.891,-141.583 647.343,-148.103"/>
</g>
<!-- Node12 -->
<g id="node12" class="node"><title>Node12</title>
<g id="a_node12"><a xlink:href="$ftoa__engine_8cpp.html#a1c28234da8f20b43c85890d4bb452947" xlink:title="ftoa_engine">
<polygon fill="white" stroke="black" points="656.98,-111.5 656.98,-129.5 725.25,-129.5 725.25,-111.5 656.98,-111.5"/>
<text text-anchor="middle" x="691.115" y="-117.5" font-family="Helvetica,sans-Serif" font-size="10.00">ftoa_engine</text>
</a>
</g>
</g>
<!-- Node10&#45;&gt;Node12 -->
<g id="edge11" class="edge"><title>Node10&#45;&gt;Node12</title>
<path fill="none" stroke="midnightblue" d="M598.191,-92.5512C613.955,-97.3442 633.523,-103.294 650.549,-108.47"/>
<polygon fill="midnightblue" stroke="midnightblue" points="649.645,-111.854 660.231,-111.414 651.682,-105.156 649.645,-111.854"/>
</g>
<!-- Node13 -->
<g id="node13" class="node"><title>Node13</title>
<g id="a_node13"><a xlink:href="$AP__Progmem_8h.html#a1514e0408e036062b4af844baaf567da" xlink:title="pgm_read_byte">
<polygon fill="white" stroke="black" points="648.369,-74.5 648.369,-92.5 733.861,-92.5 733.861,-74.5 648.369,-74.5"/>
<text text-anchor="middle" x="691.115" y="-80.5" font-family="Helvetica,sans-Serif" font-size="10.00">pgm_read_byte</text>
</a>
</g>
</g>
<!-- Node10&#45;&gt;Node13 -->
<g id="edge12" class="edge"><title>Node10&#45;&gt;Node13</title>
<path fill="none" stroke="midnightblue" d="M601.674,-83.5C612.89,-83.5 625.693,-83.5 638.008,-83.5"/>
<polygon fill="midnightblue" stroke="midnightblue" points="638.192,-87.0001 648.192,-83.5 638.192,-80.0001 638.192,-87.0001"/>
</g>
<!-- Node14 -->
<g id="node14" class="node"><title>Node14</title>
<g id="a_node14"><a xlink:href="$utoa__invert_8cpp.html#a34926f552460b47c414ec4d83b32815c" xlink:title="ulltoa_invert">
<polygon fill="white" stroke="black" points="656.155,-37.5 656.155,-55.5 726.076,-55.5 726.076,-37.5 656.155,-37.5"/>
<text text-anchor="middle" x="691.115" y="-43.5" font-family="Helvetica,sans-Serif" font-size="10.00">ulltoa_invert</text>
</a>
</g>
</g>
<!-- Node10&#45;&gt;Node14 -->
<g id="edge13" class="edge"><title>Node10&#45;&gt;Node14</title>
<path fill="none" stroke="midnightblue" d="M598.191,-74.4488C613.955,-69.6558 633.523,-63.7062 650.549,-58.5298"/>
<polygon fill="midnightblue" stroke="midnightblue" points="651.682,-61.8437 660.231,-55.586 649.645,-55.1464 651.682,-61.8437"/>
</g>
<!-- Node15 -->
<g id="node15" class="node"><title>Node15</title>
<g id="a_node15"><a xlink:href="$utoa__invert_8cpp.html#a5d99bba8e697c1e11da489d88fca8559" xlink:title="ultoa_invert">
<polygon fill="white" stroke="black" points="657.266,-0.5 657.266,-18.5 724.965,-18.5 724.965,-0.5 657.266,-0.5"/>
<text text-anchor="middle" x="691.115" y="-6.5" font-family="Helvetica,sans-Serif" font-size="10.00">ultoa_invert</text>
</a>
</g>
</g>
<!-- Node10&#45;&gt;Node15 -->
<g id="edge14" class="edge"><title>Node10&#45;&gt;Node15</title>
<path fill="none" stroke="midnightblue" d="M577.485,-74.3673C590.007,-62.194 613.76,-40.6603 637.544,-27.5 641.006,-25.5843 644.708,-23.8204 648.485,-22.2089"/>
<polygon fill="midnightblue" stroke="midnightblue" points="649.891,-25.4172 657.931,-18.517 647.343,-18.8974 649.891,-25.4172"/>
</g>
<!-- Node16&#45;&gt;Node8 -->
<g id="edge16" class="edge"><title>Node16&#45;&gt;Node8</title>
<path fill="none" stroke="midnightblue" d="M181.249,-70.4857C194.027,-72.0167 209.101,-73.8229 223.886,-75.5945"/>
<polygon fill="midnightblue" stroke="midnightblue" points="223.699,-79.097 234.045,-76.8117 224.532,-72.1467 223.699,-79.097"/>
</g>
</g>
</svg>
