<?xml version="1.0" encoding="UTF-8" standalone="no"?>
<!DOCTYPE svg PUBLIC "-//W3C//DTD SVG 1.1//EN"
 "http://www.w3.org/Graphics/SVG/1.1/DTD/svg11.dtd">
<!-- Generated by graphviz version 2.38.0 (20140413.2041)
 -->
<!-- Title: have_rotation Pages: 1 -->
<svg width="291pt" height="27pt"
 viewBox="0.00 0.00 290.88 27.00" xmlns="http://www.w3.org/2000/svg" xmlns:xlink="http://www.w3.org/1999/xlink">
<g id="graph0" class="graph" transform="scale(1 1) rotate(0) translate(4 23)">
<title>have_rotation</title>
<polygon fill="white" stroke="none" points="-4,4 -4,-23 286.876,-23 286.876,4 -4,4"/>
<!-- Node1 -->
<g id="node1" class="node"><title>Node1</title>
<polygon fill="#bfbfbf" stroke="black" points="0,-0.5 0,-18.5 76.6006,-18.5 76.6006,-0.5 0,-0.5"/>
<text text-anchor="middle" x="38.3003" y="-6.5" font-family="Helvetica,sans-Serif" font-size="10.00">have_rotation</text>
</g>
<!-- Node2 -->
<g id="node2" class="node"><title>Node2</title>
<g id="a_node2"><a xlink:href="$rotations_8cpp.html#a1452d16c339066eafa4bf6ad001b7695" xlink:title="missing_rotations">
<polygon fill="white" stroke="black" points="112.601,-0.5 112.601,-18.5 206.413,-18.5 206.413,-0.5 112.601,-0.5"/>
<text text-anchor="middle" x="159.507" y="-6.5" font-family="Helvetica,sans-Serif" font-size="10.00">missing_rotations</text>
</a>
</g>
</g>
<!-- Node1&#45;&gt;Node2 -->
<g id="edge1" class="edge"><title>Node1&#45;&gt;Node2</title>
<path fill="none" stroke="midnightblue" d="M86.7852,-9.5C95.2383,-9.5 104.031,-9.5 112.444,-9.5"/>
<polygon fill="midnightblue" stroke="midnightblue" points="86.691,-6.0001 76.6909,-9.5 86.6909,-13.0001 86.691,-6.0001"/>
</g>
<!-- Node3 -->
<g id="node3" class="node"><title>Node3</title>
<g id="a_node3"><a xlink:href="$rotations_8cpp.html#a7dfd9b79bc5a37d7df40207afbc5431f" xlink:title="setup">
<polygon fill="white" stroke="black" points="242.413,-0.5 242.413,-18.5 282.876,-18.5 282.876,-0.5 242.413,-0.5"/>
<text text-anchor="middle" x="262.645" y="-6.5" font-family="Helvetica,sans-Serif" font-size="10.00">setup</text>
</a>
</g>
</g>
<!-- Node2&#45;&gt;Node3 -->
<g id="edge2" class="edge"><title>Node2&#45;&gt;Node3</title>
<path fill="none" stroke="midnightblue" d="M216.702,-9.5C225.941,-9.5 234.927,-9.5 242.405,-9.5"/>
<polygon fill="midnightblue" stroke="midnightblue" points="216.636,-6.0001 206.636,-9.5 216.636,-13.0001 216.636,-6.0001"/>
</g>
</g>
</svg>
