<?xml version="1.0" encoding="UTF-8" standalone="no"?>
<!DOCTYPE svg PUBLIC "-//W3C//DTD SVG 1.1//EN"
 "http://www.w3.org/Graphics/SVG/1.1/DTD/svg11.dtd">
<!-- Generated by graphviz version 2.38.0 (20140413.2041)
 -->
<!-- Title: test_rotation_accuracy Pages: 1 -->
<svg width="708pt" height="225pt"
 viewBox="0.00 0.00 708.48 225.00" xmlns="http://www.w3.org/2000/svg" xmlns:xlink="http://www.w3.org/1999/xlink">
<g id="graph0" class="graph" transform="scale(1 1) rotate(0) translate(4 221)">
<title>test_rotation_accuracy</title>
<polygon fill="white" stroke="none" points="-4,4 -4,-221 704.479,-221 704.479,4 -4,4"/>
<!-- Node1 -->
<g id="node1" class="node"><title>Node1</title>
<polygon fill="#bfbfbf" stroke="black" points="0,-124.5 0,-142.5 116.61,-142.5 116.61,-124.5 0,-124.5"/>
<text text-anchor="middle" x="58.3052" y="-130.5" font-family="Helvetica,sans-Serif" font-size="10.00">test_rotation_accuracy</text>
</g>
<!-- Node2 -->
<g id="node2" class="node"><title>Node2</title>
<g id="a_node2"><a xlink:href="$classAP__HAL_1_1Print.html#ad337ce3f7977411b7d34d47a51e5737e" xlink:title="AP_HAL::Print::println">
<polygon fill="white" stroke="black" points="152.789,-198.5 152.789,-216.5 266.054,-216.5 266.054,-198.5 152.789,-198.5"/>
<text text-anchor="middle" x="209.421" y="-204.5" font-family="Helvetica,sans-Serif" font-size="10.00">AP_HAL::Print::println</text>
</a>
</g>
</g>
<!-- Node1&#45;&gt;Node2 -->
<g id="edge1" class="edge"><title>Node1&#45;&gt;Node2</title>
<path fill="none" stroke="midnightblue" d="M72.376,-142.666C89.9591,-154.68 122.507,-175.83 152.61,-189.5 157.014,-191.5 161.704,-193.377 166.424,-195.108"/>
<polygon fill="midnightblue" stroke="midnightblue" points="165.476,-198.484 176.07,-198.45 167.767,-191.869 165.476,-198.484"/>
</g>
<!-- Node6 -->
<g id="node6" class="node"><title>Node6</title>
<g id="a_node6"><a xlink:href="$classMatrix3.html#a62587bd216436f09f06b9e1330f84bc0" xlink:title="&#45;*&#45; tab&#45;width: 4; Mode: C++; c&#45;basic&#45;offset: 4; indent&#45;tabs&#45;mode: nil &#45;*&#45; ">
<polygon fill="white" stroke="black" points="158.353,-161.5 158.353,-179.5 260.49,-179.5 260.49,-161.5 158.353,-161.5"/>
<text text-anchor="middle" x="209.421" y="-167.5" font-family="Helvetica,sans-Serif" font-size="10.00">Matrix3::from_euler</text>
</a>
</g>
</g>
<!-- Node1&#45;&gt;Node6 -->
<g id="edge6" class="edge"><title>Node1&#45;&gt;Node6</title>
<path fill="none" stroke="midnightblue" d="M95.7831,-142.551C115.806,-147.519 140.837,-153.73 162.215,-159.035"/>
<polygon fill="midnightblue" stroke="midnightblue" points="161.513,-162.467 172.062,-161.478 163.199,-155.673 161.513,-162.467"/>
</g>
<!-- Node7 -->
<g id="node7" class="node"><title>Node7</title>
<g id="a_node7"><a xlink:href="$classMatrix3.html#a6f044e8d64f6f10e054af962487399b9" xlink:title="Matrix3::rotate">
<polygon fill="white" stroke="black" points="169.466,-124.5 169.466,-142.5 249.377,-142.5 249.377,-124.5 169.466,-124.5"/>
<text text-anchor="middle" x="209.421" y="-130.5" font-family="Helvetica,sans-Serif" font-size="10.00">Matrix3::rotate</text>
</a>
</g>
</g>
<!-- Node1&#45;&gt;Node7 -->
<g id="edge7" class="edge"><title>Node1&#45;&gt;Node7</title>
<path fill="none" stroke="midnightblue" d="M116.957,-133.5C130.933,-133.5 145.746,-133.5 159.287,-133.5"/>
<polygon fill="midnightblue" stroke="midnightblue" points="159.36,-137 169.36,-133.5 159.36,-130 159.36,-137"/>
</g>
<!-- Node8 -->
<g id="node8" class="node"><title>Node8</title>
<g id="a_node8"><a xlink:href="$classMatrix3.html#a893c6a712d52e47dbb7ed2d7a548046e" xlink:title="Matrix3::to_euler">
<polygon fill="white" stroke="black" points="164.183,-87.5 164.183,-105.5 254.66,-105.5 254.66,-87.5 164.183,-87.5"/>
<text text-anchor="middle" x="209.421" y="-93.5" font-family="Helvetica,sans-Serif" font-size="10.00">Matrix3::to_euler</text>
</a>
</g>
</g>
<!-- Node1&#45;&gt;Node8 -->
<g id="edge8" class="edge"><title>Node1&#45;&gt;Node8</title>
<path fill="none" stroke="midnightblue" d="M95.7831,-124.449C115.806,-119.481 140.837,-113.27 162.215,-107.965"/>
<polygon fill="midnightblue" stroke="midnightblue" points="163.199,-111.327 172.062,-105.522 161.513,-104.533 163.199,-111.327"/>
</g>
<!-- Node10 -->
<g id="node10" class="node"><title>Node10</title>
<g id="a_node10"><a xlink:href="$classAP__HAL_1_1UARTDriver.html#a65c7824b8877f7a2f79365c8ffae8f56" xlink:title="AP_HAL::UARTDriver\l::printf">
<polygon fill="white" stroke="black" points="152.61,-40.5 152.61,-68.5 266.232,-68.5 266.232,-40.5 152.61,-40.5"/>
<text text-anchor="start" x="160.61" y="-56.5" font-family="Helvetica,sans-Serif" font-size="10.00">AP_HAL::UARTDriver</text>
<text text-anchor="middle" x="209.421" y="-46.5" font-family="Helvetica,sans-Serif" font-size="10.00">::printf</text>
</a>
</g>
</g>
<!-- Node1&#45;&gt;Node10 -->
<g id="edge10" class="edge"><title>Node1&#45;&gt;Node10</title>
<path fill="none" stroke="midnightblue" d="M72.8511,-124.488C90.6894,-112.828 123.239,-92.2622 152.61,-77.5 155.894,-75.8499 159.324,-74.2203 162.801,-72.6366"/>
<polygon fill="midnightblue" stroke="midnightblue" points="164.297,-75.802 172.039,-68.5691 161.477,-69.3954 164.297,-75.802"/>
</g>
<!-- Node3 -->
<g id="node3" class="node"><title>Node3</title>
<g id="a_node3"><a xlink:href="$classAP__HAL_1_1Print.html#acfe80773011eb17dfb52c2fba517a093" xlink:title="AP_HAL::Print::print">
<polygon fill="white" stroke="black" points="451.854,-160.5 451.854,-178.5 557.337,-178.5 557.337,-160.5 451.854,-160.5"/>
<text text-anchor="middle" x="504.596" y="-166.5" font-family="Helvetica,sans-Serif" font-size="10.00">AP_HAL::Print::print</text>
</a>
</g>
</g>
<!-- Node2&#45;&gt;Node3 -->
<g id="edge2" class="edge"><title>Node2&#45;&gt;Node3</title>
<path fill="none" stroke="midnightblue" d="M266.448,-204.156C307.876,-201.238 365.586,-196.238 415.854,-188.5 429.235,-186.44 443.636,-183.591 456.825,-180.725"/>
<polygon fill="midnightblue" stroke="midnightblue" points="457.636,-184.13 466.638,-178.543 456.117,-177.297 457.636,-184.13"/>
</g>
<!-- Node5 -->
<g id="node5" class="node"><title>Node5</title>
<g id="a_node5"><a xlink:href="$classAP__HAL_1_1Print.html#a169b128f9e22f0c15883768f580541a2" xlink:title="AP_HAL::Print::println">
<polygon fill="white" stroke="black" points="302.411,-160.5 302.411,-178.5 415.676,-178.5 415.676,-160.5 302.411,-160.5"/>
<text text-anchor="middle" x="359.043" y="-166.5" font-family="Helvetica,sans-Serif" font-size="10.00">AP_HAL::Print::println</text>
</a>
</g>
</g>
<!-- Node2&#45;&gt;Node5 -->
<g id="edge4" class="edge"><title>Node2&#45;&gt;Node5</title>
<path fill="none" stroke="midnightblue" d="M245.406,-198.495C265.739,-193.261 291.567,-186.612 313.36,-181.002"/>
<polygon fill="midnightblue" stroke="midnightblue" points="314.243,-184.389 323.055,-178.507 312.498,-177.61 314.243,-184.389"/>
</g>
<!-- Node4 -->
<g id="node4" class="node"><title>Node4</title>
<g id="a_node4"><a xlink:href="$classAP__HAL_1_1Print.html#acc65391952a43334f8f5c9bef341f501" xlink:title="AP_HAL::Print::write">
<polygon fill="white" stroke="black" points="593.337,-158.5 593.337,-176.5 700.479,-176.5 700.479,-158.5 593.337,-158.5"/>
<text text-anchor="middle" x="646.908" y="-164.5" font-family="Helvetica,sans-Serif" font-size="10.00">AP_HAL::Print::write</text>
</a>
</g>
</g>
<!-- Node3&#45;&gt;Node4 -->
<g id="edge3" class="edge"><title>Node3&#45;&gt;Node4</title>
<path fill="none" stroke="midnightblue" d="M557.444,-168.761C565.861,-168.641 574.655,-168.516 583.295,-168.392"/>
<polygon fill="midnightblue" stroke="midnightblue" points="583.386,-171.892 593.335,-168.249 583.286,-164.892 583.386,-171.892"/>
</g>
<!-- Node5&#45;&gt;Node3 -->
<g id="edge5" class="edge"><title>Node5&#45;&gt;Node3</title>
<path fill="none" stroke="midnightblue" d="M415.956,-169.5C424.351,-169.5 433.051,-169.5 441.565,-169.5"/>
<polygon fill="midnightblue" stroke="midnightblue" points="441.824,-173 451.824,-169.5 441.824,-166 441.824,-173"/>
</g>
<!-- Node9 -->
<g id="node9" class="node"><title>Node9</title>
<g id="a_node9"><a xlink:href="$AP__Math_8cpp.html#a2706fd969ad73bc8ef977d964c04f4a3" xlink:title="safe_asin">
<polygon fill="white" stroke="black" points="329.64,-87.5 329.64,-105.5 388.447,-105.5 388.447,-87.5 329.64,-87.5"/>
<text text-anchor="middle" x="359.043" y="-93.5" font-family="Helvetica,sans-Serif" font-size="10.00">safe_asin</text>
</a>
</g>
</g>
<!-- Node8&#45;&gt;Node9 -->
<g id="edge9" class="edge"><title>Node8&#45;&gt;Node9</title>
<path fill="none" stroke="midnightblue" d="M254.713,-96.5C275.302,-96.5 299.56,-96.5 319.396,-96.5"/>
<polygon fill="midnightblue" stroke="midnightblue" points="319.616,-100 329.616,-96.5 319.616,-93.0001 319.616,-100"/>
</g>
<!-- Node11 -->
<g id="node11" class="node"><title>Node11</title>
<g id="a_node11"><a xlink:href="$classAP__HAL_1_1UARTDriver.html#aa8abfb6d6641299472c29ac1edde559f" xlink:title="AP_HAL::UARTDriver\l::vprintf">
<polygon fill="white" stroke="black" points="302.232,-40.5 302.232,-68.5 415.854,-68.5 415.854,-40.5 302.232,-40.5"/>
<text text-anchor="start" x="310.232" y="-56.5" font-family="Helvetica,sans-Serif" font-size="10.00">AP_HAL::UARTDriver</text>
<text text-anchor="middle" x="359.043" y="-46.5" font-family="Helvetica,sans-Serif" font-size="10.00">::vprintf</text>
</a>
</g>
</g>
<!-- Node10&#45;&gt;Node11 -->
<g id="edge11" class="edge"><title>Node10&#45;&gt;Node11</title>
<path fill="none" stroke="midnightblue" d="M266.652,-54.5C274.878,-54.5 283.413,-54.5 291.815,-54.5"/>
<polygon fill="midnightblue" stroke="midnightblue" points="291.969,-58.0001 301.969,-54.5 291.969,-51.0001 291.969,-58.0001"/>
</g>
<!-- Node12 -->
<g id="node12" class="node"><title>Node12</title>
<g id="a_node12"><a xlink:href="$print__vprintf_8cpp.html#a473b9349f4b086b552a21eb8fe057016" xlink:title="print_vprintf">
<polygon fill="white" stroke="black" points="470.473,-55.5 470.473,-73.5 538.719,-73.5 538.719,-55.5 470.473,-55.5"/>
<text text-anchor="middle" x="504.596" y="-61.5" font-family="Helvetica,sans-Serif" font-size="10.00">print_vprintf</text>
</a>
</g>
</g>
<!-- Node11&#45;&gt;Node12 -->
<g id="edge12" class="edge"><title>Node11&#45;&gt;Node12</title>
<path fill="none" stroke="midnightblue" d="M415.956,-58.3949C430.635,-59.4175 446.247,-60.505 460.165,-61.4745"/>
<polygon fill="midnightblue" stroke="midnightblue" points="460.215,-64.9864 470.434,-62.1899 460.701,-58.0033 460.215,-64.9864"/>
</g>
<!-- Node12&#45;&gt;Node4 -->
<g id="edge13" class="edge"><title>Node12&#45;&gt;Node4</title>
<path fill="none" stroke="midnightblue" d="M515.344,-73.838C531.015,-88.5857 563.124,-117.725 593.337,-138.5 601.2,-143.907 610.162,-149.155 618.432,-153.667"/>
<polygon fill="midnightblue" stroke="midnightblue" points="616.905,-156.819 627.379,-158.417 620.188,-150.636 616.905,-156.819"/>
</g>
<!-- Node13 -->
<g id="node13" class="node"><title>Node13</title>
<g id="a_node13"><a xlink:href="$ftoa__engine_8cpp.html#a1c28234da8f20b43c85890d4bb452947" xlink:title="ftoa_engine">
<polygon fill="white" stroke="black" points="612.773,-111.5 612.773,-129.5 681.043,-129.5 681.043,-111.5 612.773,-111.5"/>
<text text-anchor="middle" x="646.908" y="-117.5" font-family="Helvetica,sans-Serif" font-size="10.00">ftoa_engine</text>
</a>
</g>
</g>
<!-- Node12&#45;&gt;Node13 -->
<g id="edge14" class="edge"><title>Node12&#45;&gt;Node13</title>
<path fill="none" stroke="midnightblue" d="M526.389,-73.6303C544.089,-81.3148 570.244,-92.4649 593.337,-101.5 598.895,-103.675 604.817,-105.901 610.606,-108.029"/>
<polygon fill="midnightblue" stroke="midnightblue" points="609.544,-111.366 620.138,-111.49 611.933,-104.787 609.544,-111.366"/>
</g>
<!-- Node14 -->
<g id="node14" class="node"><title>Node14</title>
<g id="a_node14"><a xlink:href="$AP__Progmem_8h.html#a1514e0408e036062b4af844baaf567da" xlink:title="pgm_read_byte">
<polygon fill="white" stroke="black" points="604.162,-74.5 604.162,-92.5 689.654,-92.5 689.654,-74.5 604.162,-74.5"/>
<text text-anchor="middle" x="646.908" y="-80.5" font-family="Helvetica,sans-Serif" font-size="10.00">pgm_read_byte</text>
</a>
</g>
</g>
<!-- Node12&#45;&gt;Node14 -->
<g id="edge15" class="edge"><title>Node12&#45;&gt;Node14</title>
<path fill="none" stroke="midnightblue" d="M538.848,-69.0027C555.327,-71.2342 575.603,-73.9799 594.061,-76.4793"/>
<polygon fill="midnightblue" stroke="midnightblue" points="593.714,-79.9642 604.093,-77.8378 594.653,-73.0275 593.714,-79.9642"/>
</g>
<!-- Node15 -->
<g id="node15" class="node"><title>Node15</title>
<g id="a_node15"><a xlink:href="$utoa__invert_8cpp.html#a34926f552460b47c414ec4d83b32815c" xlink:title="ulltoa_invert">
<polygon fill="white" stroke="black" points="611.948,-37.5 611.948,-55.5 681.869,-55.5 681.869,-37.5 611.948,-37.5"/>
<text text-anchor="middle" x="646.908" y="-43.5" font-family="Helvetica,sans-Serif" font-size="10.00">ulltoa_invert</text>
</a>
</g>
</g>
<!-- Node12&#45;&gt;Node15 -->
<g id="edge16" class="edge"><title>Node12&#45;&gt;Node15</title>
<path fill="none" stroke="midnightblue" d="M538.848,-60.2343C557.705,-57.8152 581.534,-54.7582 601.922,-52.1428"/>
<polygon fill="midnightblue" stroke="midnightblue" points="602.447,-55.6042 611.92,-50.8602 601.556,-48.6611 602.447,-55.6042"/>
</g>
<!-- Node16 -->
<g id="node16" class="node"><title>Node16</title>
<g id="a_node16"><a xlink:href="$utoa__invert_8cpp.html#a5d99bba8e697c1e11da489d88fca8559" xlink:title="ultoa_invert">
<polygon fill="white" stroke="black" points="613.059,-0.5 613.059,-18.5 680.758,-18.5 680.758,-0.5 613.059,-0.5"/>
<text text-anchor="middle" x="646.908" y="-6.5" font-family="Helvetica,sans-Serif" font-size="10.00">ultoa_invert</text>
</a>
</g>
</g>
<!-- Node12&#45;&gt;Node16 -->
<g id="edge17" class="edge"><title>Node12&#45;&gt;Node16</title>
<path fill="none" stroke="midnightblue" d="M525.998,-55.4235C543.678,-47.6723 570.014,-36.3983 593.337,-27.5 598.225,-25.635 603.402,-23.7523 608.525,-21.9432"/>
<polygon fill="midnightblue" stroke="midnightblue" points="609.922,-25.1633 618.222,-18.5787 607.627,-18.5501 609.922,-25.1633"/>
</g>
</g>
</svg>
