<?xml version="1.0" encoding="UTF-8" standalone="no"?>
<!DOCTYPE svg PUBLIC "-//W3C//DTD SVG 1.1//EN"
 "http://www.w3.org/Graphics/SVG/1.1/DTD/svg11.dtd">
<!-- Generated by graphviz version 2.38.0 (20140413.2041)
 -->
<!-- Title: setup Pages: 1 -->
<svg width="638pt" height="93pt"
 viewBox="0.00 0.00 637.55 93.00" xmlns="http://www.w3.org/2000/svg" xmlns:xlink="http://www.w3.org/1999/xlink">
<g id="graph0" class="graph" transform="scale(1 1) rotate(0) translate(4 89)">
<title>setup</title>
<polygon fill="white" stroke="none" points="-4,4 -4,-89 633.552,-89 633.552,4 -4,4"/>
<!-- Node1 -->
<g id="node1" class="node"><title>Node1</title>
<polygon fill="#bfbfbf" stroke="black" points="0,-27.5 0,-45.5 40.4629,-45.5 40.4629,-27.5 0,-27.5"/>
<text text-anchor="middle" x="20.2314" y="-33.5" font-family="Helvetica,sans-Serif" font-size="10.00">setup</text>
</g>
<!-- Node2 -->
<g id="node2" class="node"><title>Node2</title>
<g id="a_node2"><a xlink:href="$classAP__HAL_1_1Print.html#ad337ce3f7977411b7d34d47a51e5737e" xlink:title="AP_HAL::Print::println">
<polygon fill="white" stroke="black" points="76.4629,-47.5 76.4629,-65.5 189.729,-65.5 189.729,-47.5 76.4629,-47.5"/>
<text text-anchor="middle" x="133.096" y="-53.5" font-family="Helvetica,sans-Serif" font-size="10.00">AP_HAL::Print::println</text>
</a>
</g>
</g>
<!-- Node1&#45;&gt;Node2 -->
<g id="edge1" class="edge"><title>Node1&#45;&gt;Node2</title>
<path fill="none" stroke="midnightblue" d="M40.5425,-39.9837C49.4672,-41.5938 60.6046,-43.6029 72.0066,-45.6599"/>
<polygon fill="midnightblue" stroke="midnightblue" points="71.5831,-49.1399 82.0456,-47.4709 72.8259,-42.2511 71.5831,-49.1399"/>
</g>
<!-- Node6 -->
<g id="node6" class="node"><title>Node6</title>
<g id="a_node6"><a xlink:href="$classGCS__MAVLINK.html#afaf4b53bc2f64b4fb6bd1fe729b2cef3" xlink:title="GCS_MAVLINK::init">
<polygon fill="white" stroke="black" points="80.728,-8.5 80.728,-26.5 185.463,-26.5 185.463,-8.5 80.728,-8.5"/>
<text text-anchor="middle" x="133.096" y="-14.5" font-family="Helvetica,sans-Serif" font-size="10.00">GCS_MAVLINK::init</text>
</a>
</g>
</g>
<!-- Node1&#45;&gt;Node6 -->
<g id="edge6" class="edge"><title>Node1&#45;&gt;Node6</title>
<path fill="none" stroke="midnightblue" d="M40.5425,-33.1905C49.0921,-31.7252 59.6722,-29.912 70.5703,-28.0443"/>
<polygon fill="midnightblue" stroke="midnightblue" points="71.354,-31.4611 80.6191,-26.3221 70.1715,-24.5617 71.354,-31.4611"/>
</g>
<!-- Node3 -->
<g id="node3" class="node"><title>Node3</title>
<g id="a_node3"><a xlink:href="$classAP__HAL_1_1Print.html#acfe80773011eb17dfb52c2fba517a093" xlink:title="AP_HAL::Print::print">
<polygon fill="white" stroke="black" points="378.419,-66.5 378.419,-84.5 483.902,-84.5 483.902,-66.5 378.419,-66.5"/>
<text text-anchor="middle" x="431.161" y="-72.5" font-family="Helvetica,sans-Serif" font-size="10.00">AP_HAL::Print::print</text>
</a>
</g>
</g>
<!-- Node2&#45;&gt;Node3 -->
<g id="edge2" class="edge"><title>Node2&#45;&gt;Node3</title>
<path fill="none" stroke="midnightblue" d="M169.079,-65.5059C186.054,-69.4248 206.819,-73.5602 225.729,-75.5 273.411,-80.3915 327.68,-80.1219 368.315,-78.7754"/>
<polygon fill="midnightblue" stroke="midnightblue" points="368.473,-82.272 378.34,-78.4123 368.22,-75.2766 368.473,-82.272"/>
</g>
<!-- Node5 -->
<g id="node5" class="node"><title>Node5</title>
<g id="a_node5"><a xlink:href="$classAP__HAL_1_1Print.html#a169b128f9e22f0c15883768f580541a2" xlink:title="AP_HAL::Print::println">
<polygon fill="white" stroke="black" points="226.188,-47.5 226.188,-65.5 339.453,-65.5 339.453,-47.5 226.188,-47.5"/>
<text text-anchor="middle" x="282.82" y="-53.5" font-family="Helvetica,sans-Serif" font-size="10.00">AP_HAL::Print::println</text>
</a>
</g>
</g>
<!-- Node2&#45;&gt;Node5 -->
<g id="edge4" class="edge"><title>Node2&#45;&gt;Node5</title>
<path fill="none" stroke="midnightblue" d="M189.944,-56.5C198.401,-56.5 207.193,-56.5 215.839,-56.5"/>
<polygon fill="midnightblue" stroke="midnightblue" points="215.893,-60.0001 225.893,-56.5 215.893,-53.0001 215.893,-60.0001"/>
</g>
<!-- Node4 -->
<g id="node4" class="node"><title>Node4</title>
<g id="a_node4"><a xlink:href="$classAP__HAL_1_1Print.html#acc65391952a43334f8f5c9bef341f501" xlink:title="AP_HAL::Print::write">
<polygon fill="white" stroke="black" points="522.409,-66.5 522.409,-84.5 629.552,-84.5 629.552,-66.5 522.409,-66.5"/>
<text text-anchor="middle" x="575.98" y="-72.5" font-family="Helvetica,sans-Serif" font-size="10.00">AP_HAL::Print::write</text>
</a>
</g>
</g>
<!-- Node3&#45;&gt;Node4 -->
<g id="edge3" class="edge"><title>Node3&#45;&gt;Node4</title>
<path fill="none" stroke="midnightblue" d="M484.126,-75.5C493.263,-75.5 502.86,-75.5 512.254,-75.5"/>
<polygon fill="midnightblue" stroke="midnightblue" points="512.335,-79.0001 522.335,-75.5 512.335,-72.0001 512.335,-79.0001"/>
</g>
<!-- Node5&#45;&gt;Node3 -->
<g id="edge5" class="edge"><title>Node5&#45;&gt;Node3</title>
<path fill="none" stroke="midnightblue" d="M339.563,-63.7373C348.816,-64.9387 358.465,-66.1914 367.868,-67.4123"/>
<polygon fill="midnightblue" stroke="midnightblue" points="367.578,-70.9039 377.945,-68.7206 368.479,-63.9621 367.578,-70.9039"/>
</g>
<!-- Node7 -->
<g id="node7" class="node"><title>Node7</title>
<g id="a_node7"><a xlink:href="$classGCS__MAVLINK.html#af5e92e687223f8a102363b90f325e612" xlink:title="GCS_MAVLINK::reset\l_cli_timeout">
<polygon fill="white" stroke="black" points="225.729,-0.5 225.729,-28.5 339.912,-28.5 339.912,-0.5 225.729,-0.5"/>
<text text-anchor="start" x="233.729" y="-16.5" font-family="Helvetica,sans-Serif" font-size="10.00">GCS_MAVLINK::reset</text>
<text text-anchor="middle" x="282.82" y="-6.5" font-family="Helvetica,sans-Serif" font-size="10.00">_cli_timeout</text>
</a>
</g>
</g>
<!-- Node6&#45;&gt;Node7 -->
<g id="edge7" class="edge"><title>Node6&#45;&gt;Node7</title>
<path fill="none" stroke="midnightblue" d="M185.763,-16.4507C195.334,-16.2564 205.454,-16.0509 215.392,-15.849"/>
<polygon fill="midnightblue" stroke="midnightblue" points="215.726,-19.3431 225.653,-15.6407 215.584,-12.3445 215.726,-19.3431"/>
</g>
<!-- Node8 -->
<g id="node8" class="node"><title>Node8</title>
<g id="a_node8"><a xlink:href="$classAP__HAL_1_1Scheduler.html#a26b68339fc68a562d8d3a1238d0ec8c1" xlink:title="AP_HAL::Scheduler::\lmillis">
<polygon fill="white" stroke="black" points="375.912,-0.5 375.912,-28.5 486.409,-28.5 486.409,-0.5 375.912,-0.5"/>
<text text-anchor="start" x="383.912" y="-16.5" font-family="Helvetica,sans-Serif" font-size="10.00">AP_HAL::Scheduler::</text>
<text text-anchor="middle" x="431.161" y="-6.5" font-family="Helvetica,sans-Serif" font-size="10.00">millis</text>
</a>
</g>
</g>
<!-- Node7&#45;&gt;Node8 -->
<g id="edge8" class="edge"><title>Node7&#45;&gt;Node8</title>
<path fill="none" stroke="midnightblue" d="M339.981,-14.5C348.439,-14.5 357.218,-14.5 365.832,-14.5"/>
<polygon fill="midnightblue" stroke="midnightblue" points="365.838,-18.0001 375.838,-14.5 365.838,-11.0001 365.838,-18.0001"/>
</g>
</g>
</svg>
