<?xml version="1.0" encoding="UTF-8" standalone="no"?>
<!DOCTYPE svg PUBLIC "-//W3C//DTD SVG 1.1//EN"
 "http://www.w3.org/Graphics/SVG/1.1/DTD/svg11.dtd">
<!-- Generated by graphviz version 2.38.0 (20140413.2041)
 -->
<!-- Title: libraries/AP_HAL_Linux/RPIOUARTDriver.cpp Pages: 1 -->
<svg width="1572pt" height="752pt"
 viewBox="0.00 0.00 1572.00 752.00" xmlns="http://www.w3.org/2000/svg" xmlns:xlink="http://www.w3.org/1999/xlink">
<g id="graph0" class="graph" transform="scale(1 1) rotate(0) translate(4 748)">
<title>libraries/AP_HAL_Linux/RPIOUARTDriver.cpp</title>
<polygon fill="white" stroke="none" points="-4,4 -4,-748 1568,-748 1568,4 -4,4"/>
<!-- Node1 -->
<g id="node1" class="node"><title>Node1</title>
<polygon fill="#bfbfbf" stroke="black" points="848.195,-715.5 848.195,-743.5 969.805,-743.5 969.805,-715.5 848.195,-715.5"/>
<text text-anchor="start" x="856.195" y="-731.5" font-family="Helvetica,sans-Serif" font-size="10.00">libraries/AP_HAL_Linux</text>
<text text-anchor="middle" x="909" y="-721.5" font-family="Helvetica,sans-Serif" font-size="10.00">/RPIOUARTDriver.cpp</text>
</g>
<!-- Node2 -->
<g id="node2" class="node"><title>Node2</title>
<g id="a_node2"><a xlink:href="$AP__HAL_8h.html" xlink:title="AP_HAL/AP_HAL.h">
<polygon fill="white" stroke="black" points="808.086,-440.5 808.086,-458.5 911.914,-458.5 911.914,-440.5 808.086,-440.5"/>
<text text-anchor="middle" x="860" y="-446.5" font-family="Helvetica,sans-Serif" font-size="10.00">AP_HAL/AP_HAL.h</text>
</a>
</g>
</g>
<!-- Node1&#45;&gt;Node2 -->
<g id="edge1" class="edge"><title>Node1&#45;&gt;Node2</title>
<path fill="none" stroke="midnightblue" d="M899.084,-715.388C884.766,-695.113 860,-654.417 860,-615.5 860,-615.5 860,-615.5 860,-558.5 860,-527.018 860,-490.373 860,-468.881"/>
<polygon fill="midnightblue" stroke="midnightblue" points="863.5,-468.629 860,-458.629 856.5,-468.629 863.5,-468.629"/>
</g>
<!-- Node21 -->
<g id="node21" class="node"><title>Node21</title>
<polygon fill="white" stroke="#bfbfbf" points="82.1577,-110.5 82.1577,-128.5 129.842,-128.5 129.842,-110.5 82.1577,-110.5"/>
<text text-anchor="middle" x="106" y="-116.5" font-family="Helvetica,sans-Serif" font-size="10.00">stdlib.h</text>
</g>
<!-- Node1&#45;&gt;Node21 -->
<g id="edge79" class="edge"><title>Node1&#45;&gt;Node21</title>
<path fill="none" stroke="midnightblue" d="M847.946,-727.343C644.137,-722.683 0,-701.176 0,-615.5 0,-615.5 0,-615.5 0,-228.5 0,-183.501 47.451,-150.37 78.8572,-133.37"/>
<polygon fill="midnightblue" stroke="midnightblue" points="80.754,-136.329 88.0185,-128.617 77.5302,-130.116 80.754,-136.329"/>
</g>
<!-- Node30 -->
<g id="node30" class="node"><title>Node30</title>
<g id="a_node30"><a xlink:href="$RPIOUARTDriver_8h.html" xlink:title="RPIOUARTDriver.h">
<polygon fill="white" stroke="black" points="720.024,-660.5 720.024,-678.5 821.976,-678.5 821.976,-660.5 720.024,-660.5"/>
<text text-anchor="middle" x="771" y="-666.5" font-family="Helvetica,sans-Serif" font-size="10.00">RPIOUARTDriver.h</text>
</a>
</g>
</g>
<!-- Node1&#45;&gt;Node30 -->
<g id="edge68" class="edge"><title>Node1&#45;&gt;Node30</title>
<path fill="none" stroke="midnightblue" d="M878.03,-715.484C854.633,-705.65 822.751,-692.25 799.88,-682.638"/>
<polygon fill="midnightblue" stroke="midnightblue" points="800.951,-679.291 790.376,-678.643 798.238,-685.745 800.951,-679.291"/>
</g>
<!-- Node36 -->
<g id="node36" class="node"><title>Node36</title>
<polygon fill="white" stroke="#bfbfbf" points="887.938,-660.5 887.938,-678.5 930.062,-678.5 930.062,-660.5 887.938,-660.5"/>
<text text-anchor="middle" x="909" y="-666.5" font-family="Helvetica,sans-Serif" font-size="10.00">cstdio</text>
</g>
<!-- Node1&#45;&gt;Node36 -->
<g id="edge80" class="edge"><title>Node1&#45;&gt;Node36</title>
<path fill="none" stroke="midnightblue" d="M909,-715.339C909,-707.531 909,-697.512 909,-688.927"/>
<polygon fill="midnightblue" stroke="midnightblue" points="912.5,-688.771 909,-678.771 905.5,-688.772 912.5,-688.771"/>
</g>
<!-- Node37 -->
<g id="node37" class="node"><title>Node37</title>
<g id="a_node37"><a xlink:href="$RingBuffer_8h.html" xlink:title="AP_HAL/utility/RingBuffer.h">
<polygon fill="white" stroke="black" points="948.221,-660.5 948.221,-678.5 1085.78,-678.5 1085.78,-660.5 948.221,-660.5"/>
<text text-anchor="middle" x="1017" y="-666.5" font-family="Helvetica,sans-Serif" font-size="10.00">AP_HAL/utility/RingBuffer.h</text>
</a>
</g>
</g>
<!-- Node1&#45;&gt;Node37 -->
<g id="edge81" class="edge"><title>Node1&#45;&gt;Node37</title>
<path fill="none" stroke="midnightblue" d="M933.237,-715.484C950.974,-705.959 974.939,-693.088 992.692,-683.554"/>
<polygon fill="midnightblue" stroke="midnightblue" points="994.682,-686.458 1001.84,-678.643 991.37,-680.291 994.682,-686.458"/>
</g>
<!-- Node38 -->
<g id="node38" class="node"><title>Node38</title>
<g id="a_node38"><a xlink:href="$px4io__protocol_8h.html" xlink:title="px4io_protocol.h">
<polygon fill="white" stroke="black" points="1294.31,-605.5 1294.31,-623.5 1383.69,-623.5 1383.69,-605.5 1294.31,-605.5"/>
<text text-anchor="middle" x="1339" y="-611.5" font-family="Helvetica,sans-Serif" font-size="10.00">px4io_protocol.h</text>
</a>
</g>
</g>
<!-- Node1&#45;&gt;Node38 -->
<g id="edge82" class="edge"><title>Node1&#45;&gt;Node38</title>
<path fill="none" stroke="midnightblue" d="M969.872,-715.606C1006.68,-707 1054.22,-694.438 1095,-679 1112.66,-672.315 1115.19,-666.265 1133,-660 1182.74,-642.505 1241.77,-630.604 1283.86,-623.545"/>
<polygon fill="midnightblue" stroke="midnightblue" points="1284.6,-626.969 1293.91,-621.897 1283.47,-620.061 1284.6,-626.969"/>
</g>
<!-- Node39 -->
<g id="node39" class="node"><title>Node39</title>
<polygon fill="white" stroke="#bfbfbf" points="1141.88,-660.5 1141.88,-678.5 1190.12,-678.5 1190.12,-660.5 1141.88,-660.5"/>
<text text-anchor="middle" x="1166" y="-666.5" font-family="Helvetica,sans-Serif" font-size="10.00">cassert</text>
</g>
<!-- Node1&#45;&gt;Node39 -->
<g id="edge84" class="edge"><title>Node1&#45;&gt;Node39</title>
<path fill="none" stroke="midnightblue" d="M966.676,-715.484C1017.54,-704.006 1089.92,-687.669 1132.02,-678.168"/>
<polygon fill="midnightblue" stroke="midnightblue" points="1132.81,-681.579 1141.79,-675.964 1131.26,-674.751 1132.81,-681.579"/>
</g>
<!-- Node3 -->
<g id="node3" class="node"><title>Node3</title>
<polygon fill="white" stroke="#bfbfbf" points="717.879,-110.5 717.879,-128.5 766.121,-128.5 766.121,-110.5 717.879,-110.5"/>
<text text-anchor="middle" x="742" y="-116.5" font-family="Helvetica,sans-Serif" font-size="10.00">stdint.h</text>
</g>
<!-- Node2&#45;&gt;Node3 -->
<g id="edge2" class="edge"><title>Node2&#45;&gt;Node3</title>
<path fill="none" stroke="midnightblue" d="M851.867,-440.399C830.89,-418.883 775.127,-357.592 754,-294 735.889,-239.486 750.35,-222.279 746,-165 745.345,-156.378 744.502,-146.828 743.759,-138.792"/>
<polygon fill="midnightblue" stroke="midnightblue" points="747.231,-138.322 742.805,-128.696 740.262,-138.981 747.231,-138.322"/>
</g>
<!-- Node4 -->
<g id="node4" class="node"><title>Node4</title>
<polygon fill="white" stroke="#bfbfbf" points="450.707,-110.5 450.707,-128.5 507.293,-128.5 507.293,-110.5 450.707,-110.5"/>
<text text-anchor="middle" x="479" y="-116.5" font-family="Helvetica,sans-Serif" font-size="10.00">stdbool.h</text>
</g>
<!-- Node2&#45;&gt;Node4 -->
<g id="edge3" class="edge"><title>Node2&#45;&gt;Node4</title>
<path fill="none" stroke="midnightblue" d="M818.209,-440.459C708.378,-419.044 420,-360.877 420,-340.5 420,-340.5 420,-340.5 420,-283.5 420,-227.235 451.467,-166.216 468.44,-137.396"/>
<polygon fill="midnightblue" stroke="midnightblue" points="471.578,-138.972 473.764,-128.605 465.59,-135.345 471.578,-138.972"/>
</g>
<!-- Node5 -->
<g id="node5" class="node"><title>Node5</title>
<g id="a_node5"><a xlink:href="$AP__HAL__Namespace_8h.html" xlink:title="AP_HAL_Namespace.h">
<polygon fill="white" stroke="black" points="982.192,-55.5 982.192,-73.5 1103.81,-73.5 1103.81,-55.5 982.192,-55.5"/>
<text text-anchor="middle" x="1043" y="-61.5" font-family="Helvetica,sans-Serif" font-size="10.00">AP_HAL_Namespace.h</text>
</a>
</g>
</g>
<!-- Node2&#45;&gt;Node5 -->
<g id="edge4" class="edge"><title>Node2&#45;&gt;Node5</title>
<path fill="none" stroke="midnightblue" d="M912.02,-448.621C1012.1,-447.972 1227.02,-442.039 1289,-404 1317.63,-386.429 1330,-374.094 1330,-340.5 1330,-340.5 1330,-340.5 1330,-173.5 1330,-125.22 1185.93,-91.1394 1101.94,-75.3732"/>
<polygon fill="midnightblue" stroke="midnightblue" points="1102.48,-71.9134 1092.01,-73.5415 1101.21,-78.7973 1102.48,-71.9134"/>
</g>
<!-- Node8 -->
<g id="node8" class="node"><title>Node8</title>
<g id="a_node8"><a xlink:href="$AP__HAL__Boards_8h.html" xlink:title="AP_HAL_Boards.h">
<polygon fill="white" stroke="black" points="234.03,-165.5 234.03,-183.5 333.97,-183.5 333.97,-165.5 234.03,-165.5"/>
<text text-anchor="middle" x="284" y="-171.5" font-family="Helvetica,sans-Serif" font-size="10.00">AP_HAL_Boards.h</text>
</a>
</g>
</g>
<!-- Node2&#45;&gt;Node8 -->
<g id="edge7" class="edge"><title>Node2&#45;&gt;Node8</title>
<path fill="none" stroke="midnightblue" d="M807.988,-440.956C805.288,-440.62 802.613,-440.298 800,-440 616.499,-419.039 560.678,-463.995 386,-404 336.915,-387.141 288,-392.4 288,-340.5 288,-340.5 288,-340.5 288,-283.5 288,-251.996 286.279,-215.358 285.095,-193.873"/>
<polygon fill="midnightblue" stroke="midnightblue" points="288.574,-193.408 284.507,-183.625 281.586,-193.809 288.574,-193.408"/>
</g>
<!-- Node9 -->
<g id="node9" class="node"><title>Node9</title>
<g id="a_node9"><a xlink:href="$AP__HAL__Macros_8h.html" xlink:title="AP_HAL_Macros.h">
<polygon fill="white" stroke="black" points="1396.48,-385.5 1396.48,-403.5 1497.52,-403.5 1497.52,-385.5 1396.48,-385.5"/>
<text text-anchor="middle" x="1447" y="-391.5" font-family="Helvetica,sans-Serif" font-size="10.00">AP_HAL_Macros.h</text>
</a>
</g>
</g>
<!-- Node2&#45;&gt;Node9 -->
<g id="edge8" class="edge"><title>Node2&#45;&gt;Node9</title>
<path fill="none" stroke="midnightblue" d="M911.938,-444.85C1005.87,-438.076 1210.19,-422.548 1382,-404 1383.3,-403.859 1384.62,-403.714 1385.95,-403.564"/>
<polygon fill="midnightblue" stroke="midnightblue" points="1386.76,-406.994 1396.28,-402.356 1385.95,-400.042 1386.76,-406.994"/>
</g>
<!-- Node10 -->
<g id="node10" class="node"><title>Node10</title>
<g id="a_node10"><a xlink:href="$AP__HAL__Main_8h.html" xlink:title="AP_HAL_Main.h">
<polygon fill="white" stroke="black" points="851.035,-385.5 851.035,-403.5 940.965,-403.5 940.965,-385.5 851.035,-385.5"/>
<text text-anchor="middle" x="896" y="-391.5" font-family="Helvetica,sans-Serif" font-size="10.00">AP_HAL_Main.h</text>
</a>
</g>
</g>
<!-- Node2&#45;&gt;Node10 -->
<g id="edge9" class="edge"><title>Node2&#45;&gt;Node10</title>
<path fill="none" stroke="midnightblue" d="M865.625,-440.219C870.727,-432.707 878.4,-421.411 884.757,-412.052"/>
<polygon fill="midnightblue" stroke="midnightblue" points="887.809,-413.788 890.532,-403.55 882.018,-409.855 887.809,-413.788"/>
</g>
<!-- Node11 -->
<g id="node11" class="node"><title>Node11</title>
<g id="a_node11"><a xlink:href="$HAL_8h.html" xlink:title="HAL.h">
<polygon fill="white" stroke="black" points="912.104,-330.5 912.104,-348.5 955.896,-348.5 955.896,-330.5 912.104,-330.5"/>
<text text-anchor="middle" x="934" y="-336.5" font-family="Helvetica,sans-Serif" font-size="10.00">HAL.h</text>
</a>
</g>
</g>
<!-- Node2&#45;&gt;Node11 -->
<g id="edge67" class="edge"><title>Node2&#45;&gt;Node11</title>
<path fill="none" stroke="midnightblue" d="M896.171,-440.465C915.728,-434.078 938.228,-422.953 950,-404 958.882,-389.701 952.137,-370.701 944.871,-357.22"/>
<polygon fill="midnightblue" stroke="midnightblue" points="947.822,-355.335 939.704,-348.527 941.805,-358.911 947.822,-355.335"/>
</g>
<!-- Node12 -->
<g id="node12" class="node"><title>Node12</title>
<g id="a_node12"><a xlink:href="$AnalogIn_8h.html" xlink:title="AnalogIn.h">
<polygon fill="white" stroke="black" points="1238.09,-220.5 1238.09,-238.5 1301.91,-238.5 1301.91,-220.5 1238.09,-220.5"/>
<text text-anchor="middle" x="1270" y="-226.5" font-family="Helvetica,sans-Serif" font-size="10.00">AnalogIn.h</text>
</a>
</g>
</g>
<!-- Node2&#45;&gt;Node12 -->
<g id="edge49" class="edge"><title>Node2&#45;&gt;Node12</title>
<path fill="none" stroke="midnightblue" d="M912.063,-446.607C1016.68,-442.269 1244.48,-429.923 1268,-404 1307.27,-360.719 1288.17,-283.396 1276.61,-248.483"/>
<polygon fill="midnightblue" stroke="midnightblue" points="1279.81,-247.022 1273.21,-238.734 1273.2,-249.329 1279.81,-247.022"/>
</g>
<!-- Node14 -->
<g id="node14" class="node"><title>Node14</title>
<g id="a_node14"><a xlink:href="$GPIO_8h.html" xlink:title="GPIO.h">
<polygon fill="white" stroke="black" points="649.328,-220.5 649.328,-238.5 698.672,-238.5 698.672,-220.5 649.328,-220.5"/>
<text text-anchor="middle" x="674" y="-226.5" font-family="Helvetica,sans-Serif" font-size="10.00">GPIO.h</text>
</a>
</g>
</g>
<!-- Node2&#45;&gt;Node14 -->
<g id="edge51" class="edge"><title>Node2&#45;&gt;Node14</title>
<path fill="none" stroke="midnightblue" d="M820.277,-440.485C779.79,-431.776 720.281,-417.318 701,-404 651.045,-369.494 638.946,-351.682 620,-294 617.365,-285.977 616.397,-282.637 620,-275 626.134,-261.996 638.139,-251.504 649.275,-243.981"/>
<polygon fill="midnightblue" stroke="midnightblue" points="651.268,-246.863 657.891,-238.593 647.557,-240.928 651.268,-246.863"/>
</g>
<!-- Node15 -->
<g id="node15" class="node"><title>Node15</title>
<g id="a_node15"><a xlink:href="$RCInput_8h.html" xlink:title="RCInput.h">
<polygon fill="white" stroke="black" points="763.488,-275.5 763.488,-293.5 824.512,-293.5 824.512,-275.5 763.488,-275.5"/>
<text text-anchor="middle" x="794" y="-281.5" font-family="Helvetica,sans-Serif" font-size="10.00">RCInput.h</text>
</a>
</g>
</g>
<!-- Node2&#45;&gt;Node15 -->
<g id="edge52" class="edge"><title>Node2&#45;&gt;Node15</title>
<path fill="none" stroke="midnightblue" d="M855.439,-440.452C850.55,-431.654 842.719,-417.066 837,-404 821.697,-369.038 807.29,-326.722 799.659,-303.293"/>
<polygon fill="midnightblue" stroke="midnightblue" points="802.963,-302.134 796.567,-293.687 796.299,-304.279 802.963,-302.134"/>
</g>
<!-- Node16 -->
<g id="node16" class="node"><title>Node16</title>
<g id="a_node16"><a xlink:href="$RCOutput_8h.html" xlink:title="RCOutput.h">
<polygon fill="white" stroke="black" points="1034.6,-275.5 1034.6,-293.5 1103.4,-293.5 1103.4,-275.5 1034.6,-275.5"/>
<text text-anchor="middle" x="1069" y="-281.5" font-family="Helvetica,sans-Serif" font-size="10.00">RCOutput.h</text>
</a>
</g>
</g>
<!-- Node2&#45;&gt;Node16 -->
<g id="edge53" class="edge"><title>Node2&#45;&gt;Node16</title>
<path fill="none" stroke="midnightblue" d="M912.04,-445.821C946.67,-441.473 991.12,-430.622 1021,-404 1050.88,-377.375 1062.48,-329.466 1066.73,-303.466"/>
<polygon fill="midnightblue" stroke="midnightblue" points="1070.2,-303.9 1068.17,-293.503 1063.28,-302.9 1070.2,-303.9"/>
</g>
<!-- Node17 -->
<g id="node17" class="node"><title>Node17</title>
<g id="a_node17"><a xlink:href="$SPIDriver_8h.html" xlink:title="SPIDriver.h">
<polygon fill="white" stroke="black" points="1121.71,-275.5 1121.71,-293.5 1188.29,-293.5 1188.29,-275.5 1121.71,-275.5"/>
<text text-anchor="middle" x="1155" y="-281.5" font-family="Helvetica,sans-Serif" font-size="10.00">SPIDriver.h</text>
</a>
</g>
</g>
<!-- Node2&#45;&gt;Node17 -->
<g id="edge48" class="edge"><title>Node2&#45;&gt;Node17</title>
<path fill="none" stroke="midnightblue" d="M912.168,-443.976C950.741,-438.777 1003.4,-427.665 1044,-404 1088.9,-377.832 1126.7,-327.897 1144.34,-301.999"/>
<polygon fill="midnightblue" stroke="midnightblue" points="1147.28,-303.898 1149.9,-293.633 1141.45,-300.023 1147.28,-303.898"/>
</g>
<!-- Node18 -->
<g id="node18" class="node"><title>Node18</title>
<g id="a_node18"><a xlink:href="$Storage_8h.html" xlink:title="Storage.h">
<polygon fill="white" stroke="black" points="881.318,-275.5 881.318,-293.5 940.682,-293.5 940.682,-275.5 881.318,-275.5"/>
<text text-anchor="middle" x="911" y="-281.5" font-family="Helvetica,sans-Serif" font-size="10.00">Storage.h</text>
</a>
</g>
</g>
<!-- Node2&#45;&gt;Node18 -->
<g id="edge50" class="edge"><title>Node2&#45;&gt;Node18</title>
<path fill="none" stroke="midnightblue" d="M854.555,-440.238C847.243,-428.081 835.842,-404.685 842,-385 852.449,-351.595 878.494,-319.554 895.428,-301.232"/>
<polygon fill="midnightblue" stroke="midnightblue" points="898.119,-303.481 902.478,-293.824 893.049,-298.655 898.119,-303.481"/>
</g>
<!-- Node19 -->
<g id="node19" class="node"><title>Node19</title>
<g id="a_node19"><a xlink:href="$UARTDriver_8h.html" xlink:title="UARTDriver.h">
<polygon fill="white" stroke="black" points="629.248,-275.5 629.248,-293.5 706.752,-293.5 706.752,-275.5 629.248,-275.5"/>
<text text-anchor="middle" x="668" y="-281.5" font-family="Helvetica,sans-Serif" font-size="10.00">UARTDriver.h</text>
</a>
</g>
</g>
<!-- Node2&#45;&gt;Node19 -->
<g id="edge44" class="edge"><title>Node2&#45;&gt;Node19</title>
<path fill="none" stroke="midnightblue" d="M823.726,-440.443C787.894,-431.872 736.294,-417.687 721,-404 690.865,-377.03 676.936,-329.646 671.299,-303.718"/>
<polygon fill="midnightblue" stroke="midnightblue" points="674.701,-302.877 669.317,-293.752 667.836,-304.243 674.701,-302.877"/>
</g>
<!-- Node22 -->
<g id="node22" class="node"><title>Node22</title>
<g id="a_node22"><a xlink:href="$BetterStream_8h.html" xlink:title="utility/BetterStream.h">
<polygon fill="white" stroke="black" points="484.594,-220.5 484.594,-238.5 593.406,-238.5 593.406,-220.5 484.594,-220.5"/>
<text text-anchor="middle" x="539" y="-226.5" font-family="Helvetica,sans-Serif" font-size="10.00">utility/BetterStream.h</text>
</a>
</g>
</g>
<!-- Node2&#45;&gt;Node22 -->
<g id="edge66" class="edge"><title>Node2&#45;&gt;Node22</title>
<path fill="none" stroke="midnightblue" d="M809.867,-440.424C762.479,-432.109 695.4,-418.371 673,-404 610.024,-363.596 564.747,-282.929 547.125,-247.665"/>
<polygon fill="midnightblue" stroke="midnightblue" points="550.251,-246.089 542.724,-238.632 543.958,-249.155 550.251,-246.089"/>
</g>
<!-- Node24 -->
<g id="node24" class="node"><title>Node24</title>
<g id="a_node24"><a xlink:href="$Stream_8h.html" xlink:title="Stream.h">
<polygon fill="white" stroke="black" points="1169.71,-165.5 1169.71,-183.5 1226.29,-183.5 1226.29,-165.5 1169.71,-165.5"/>
<text text-anchor="middle" x="1198" y="-171.5" font-family="Helvetica,sans-Serif" font-size="10.00">Stream.h</text>
</a>
</g>
</g>
<!-- Node2&#45;&gt;Node24 -->
<g id="edge65" class="edge"><title>Node2&#45;&gt;Node24</title>
<path fill="none" stroke="midnightblue" d="M912.281,-444.872C956.52,-440.112 1020.58,-429.154 1071,-404 1137.52,-370.813 1165.96,-361.547 1197,-294 1212.06,-261.239 1206.97,-217.801 1202.26,-193.655"/>
<polygon fill="midnightblue" stroke="midnightblue" points="1205.65,-192.796 1200.13,-183.755 1198.81,-194.267 1205.65,-192.796"/>
</g>
<!-- Node25 -->
<g id="node25" class="node"><title>Node25</title>
<g id="a_node25"><a xlink:href="$Print_8h.html" xlink:title="Print.h">
<polygon fill="white" stroke="black" points="1395.55,-110.5 1395.55,-128.5 1440.45,-128.5 1440.45,-110.5 1395.55,-110.5"/>
<text text-anchor="middle" x="1418" y="-116.5" font-family="Helvetica,sans-Serif" font-size="10.00">Print.h</text>
</a>
</g>
</g>
<!-- Node2&#45;&gt;Node25 -->
<g id="edge64" class="edge"><title>Node2&#45;&gt;Node25</title>
<path fill="none" stroke="midnightblue" d="M911.986,-448.271C1057.44,-447.171 1460.97,-440.799 1507,-404 1530.01,-385.606 1526,-369.958 1526,-340.5 1526,-340.5 1526,-340.5 1526,-228.5 1526,-183.082 1477.65,-150.093 1445.65,-133.233"/>
<polygon fill="midnightblue" stroke="midnightblue" points="1446.83,-129.903 1436.32,-128.522 1443.67,-136.152 1446.83,-129.903"/>
</g>
<!-- Node26 -->
<g id="node26" class="node"><title>Node26</title>
<g id="a_node26"><a xlink:href="$I2CDriver_8h.html" xlink:title="I2CDriver.h">
<polygon fill="white" stroke="black" points="1009.99,-165.5 1009.99,-183.5 1076.01,-183.5 1076.01,-165.5 1009.99,-165.5"/>
<text text-anchor="middle" x="1043" y="-171.5" font-family="Helvetica,sans-Serif" font-size="10.00">I2CDriver.h</text>
</a>
</g>
</g>
<!-- Node2&#45;&gt;Node26 -->
<g id="edge45" class="edge"><title>Node2&#45;&gt;Node26</title>
<path fill="none" stroke="midnightblue" d="M900.089,-440.472C922.508,-434.074 949.399,-422.936 967,-404 996.513,-372.249 1028.08,-241.998 1039.01,-193.663"/>
<polygon fill="midnightblue" stroke="midnightblue" points="1042.47,-194.233 1041.23,-183.711 1035.64,-192.71 1042.47,-194.233"/>
</g>
<!-- Node27 -->
<g id="node27" class="node"><title>Node27</title>
<g id="a_node27"><a xlink:href="$Scheduler_8h.html" xlink:title="Scheduler.h">
<polygon fill="white" stroke="black" points="323.589,-220.5 323.589,-238.5 392.411,-238.5 392.411,-220.5 323.589,-220.5"/>
<text text-anchor="middle" x="358" y="-226.5" font-family="Helvetica,sans-Serif" font-size="10.00">Scheduler.h</text>
</a>
</g>
</g>
<!-- Node2&#45;&gt;Node27 -->
<g id="edge54" class="edge"><title>Node2&#45;&gt;Node27</title>
<path fill="none" stroke="midnightblue" d="M807.986,-440.97C805.287,-440.63 802.613,-440.304 800,-440 712.67,-429.831 473.471,-460.371 406,-404 359.254,-364.945 355.865,-284.788 356.909,-248.755"/>
<polygon fill="midnightblue" stroke="midnightblue" points="360.408,-248.859 357.355,-238.714 353.415,-248.549 360.408,-248.859"/>
</g>
<!-- Node28 -->
<g id="node28" class="node"><title>Node28</title>
<g id="a_node28"><a xlink:href="$Semaphores_8h.html" xlink:title="Semaphores.h">
<polygon fill="white" stroke="black" points="1358.48,-330.5 1358.48,-348.5 1439.52,-348.5 1439.52,-330.5 1358.48,-330.5"/>
<text text-anchor="middle" x="1399" y="-336.5" font-family="Helvetica,sans-Serif" font-size="10.00">Semaphores.h</text>
</a>
</g>
</g>
<!-- Node2&#45;&gt;Node28 -->
<g id="edge59" class="edge"><title>Node2&#45;&gt;Node28</title>
<path fill="none" stroke="midnightblue" d="M912.244,-448.556C1021.42,-447.895 1269.78,-442.108 1344,-404 1364.01,-393.727 1379.87,-372.786 1389.32,-357.759"/>
<polygon fill="midnightblue" stroke="midnightblue" points="1392.48,-359.294 1394.58,-348.91 1386.46,-355.716 1392.48,-359.294"/>
</g>
<!-- Node29 -->
<g id="node29" class="node"><title>Node29</title>
<g id="a_node29"><a xlink:href="$Util_8h.html" xlink:title="Util.h">
<polygon fill="white" stroke="black" points="170.608,-220.5 170.608,-238.5 209.392,-238.5 209.392,-220.5 170.608,-220.5"/>
<text text-anchor="middle" x="190" y="-226.5" font-family="Helvetica,sans-Serif" font-size="10.00">Util.h</text>
</a>
</g>
</g>
<!-- Node2&#45;&gt;Node29 -->
<g id="edge61" class="edge"><title>Node2&#45;&gt;Node29</title>
<path fill="none" stroke="midnightblue" d="M807.994,-440.898C805.293,-440.576 802.616,-440.274 800,-440 741.739,-433.888 322.543,-436.793 274,-404 219.7,-367.318 199.322,-285.246 192.742,-248.681"/>
<polygon fill="midnightblue" stroke="midnightblue" points="196.147,-247.819 191.065,-238.523 189.241,-248.959 196.147,-247.819"/>
</g>
<!-- Node6 -->
<g id="node6" class="node"><title>Node6</title>
<polygon fill="white" stroke="#bfbfbf" points="1173.6,-0.5 1173.6,-18.5 1222.4,-18.5 1222.4,-0.5 1173.6,-0.5"/>
<text text-anchor="middle" x="1198" y="-6.5" font-family="Helvetica,sans-Serif" font-size="10.00">string.h</text>
</g>
<!-- Node5&#45;&gt;Node6 -->
<g id="edge5" class="edge"><title>Node5&#45;&gt;Node6</title>
<path fill="none" stroke="midnightblue" d="M1066.54,-55.4504C1092.79,-46.4745 1135.44,-31.8922 1165.01,-21.7813"/>
<polygon fill="midnightblue" stroke="midnightblue" points="1166.16,-25.0856 1174.49,-18.5383 1163.9,-18.4621 1166.16,-25.0856"/>
</g>
<!-- Node7 -->
<g id="node7" class="node"><title>Node7</title>
<g id="a_node7"><a xlink:href="$functor_8h.html" xlink:title="utility/functor.h">
<polygon fill="white" stroke="black" points="1003.04,-0.5 1003.04,-18.5 1082.96,-18.5 1082.96,-0.5 1003.04,-0.5"/>
<text text-anchor="middle" x="1043" y="-6.5" font-family="Helvetica,sans-Serif" font-size="10.00">utility/functor.h</text>
</a>
</g>
</g>
<!-- Node5&#45;&gt;Node7 -->
<g id="edge6" class="edge"><title>Node5&#45;&gt;Node7</title>
<path fill="none" stroke="midnightblue" d="M1043,-55.2188C1043,-48.1769 1043,-37.8083 1043,-28.8277"/>
<polygon fill="midnightblue" stroke="midnightblue" points="1046.5,-28.5495 1043,-18.5496 1039.5,-28.5496 1046.5,-28.5495"/>
</g>
<!-- Node10&#45;&gt;Node11 -->
<g id="edge10" class="edge"><title>Node10&#45;&gt;Node11</title>
<path fill="none" stroke="midnightblue" d="M901.938,-385.219C907.379,-377.629 915.591,-366.175 922.342,-356.76"/>
<polygon fill="midnightblue" stroke="midnightblue" points="925.246,-358.716 928.229,-348.55 919.557,-354.637 925.246,-358.716"/>
</g>
<!-- Node11&#45;&gt;Node5 -->
<g id="edge11" class="edge"><title>Node11&#45;&gt;Node5</title>
<path fill="none" stroke="midnightblue" d="M937.117,-330.157C946.512,-305.073 975.478,-228.17 1001,-165 1012.67,-136.117 1026.88,-102.815 1035.42,-82.9957"/>
<polygon fill="midnightblue" stroke="midnightblue" points="1038.68,-84.2878 1039.43,-73.7198 1032.25,-81.5119 1038.68,-84.2878"/>
</g>
<!-- Node11&#45;&gt;Node12 -->
<g id="edge12" class="edge"><title>Node11&#45;&gt;Node12</title>
<path fill="none" stroke="midnightblue" d="M955.972,-338.716C1002.68,-338.357 1114.32,-333.102 1197,-294 1220.86,-282.714 1242.94,-261.354 1256.43,-246.542"/>
<polygon fill="midnightblue" stroke="midnightblue" points="1259.35,-248.522 1263.33,-238.703 1254.09,-243.898 1259.35,-248.522"/>
</g>
<!-- Node11&#45;&gt;Node14 -->
<g id="edge15" class="edge"><title>Node11&#45;&gt;Node14</title>
<path fill="none" stroke="midnightblue" d="M923.498,-330.34C905.903,-317.023 868.951,-290.546 834,-275 792.757,-256.656 742.12,-244.105 709.002,-237.123"/>
<polygon fill="midnightblue" stroke="midnightblue" points="709.399,-233.632 698.9,-235.052 707.993,-240.489 709.399,-233.632"/>
</g>
<!-- Node11&#45;&gt;Node15 -->
<g id="edge18" class="edge"><title>Node11&#45;&gt;Node15</title>
<path fill="none" stroke="midnightblue" d="M912.737,-330.45C889.404,-321.617 851.729,-307.355 825.083,-297.267"/>
<polygon fill="midnightblue" stroke="midnightblue" points="826.055,-293.893 815.463,-293.625 823.576,-300.439 826.055,-293.893"/>
</g>
<!-- Node11&#45;&gt;Node16 -->
<g id="edge20" class="edge"><title>Node11&#45;&gt;Node16</title>
<path fill="none" stroke="midnightblue" d="M954.504,-330.45C976.904,-321.656 1013.01,-307.48 1038.69,-297.401"/>
<polygon fill="midnightblue" stroke="midnightblue" points="1040.27,-300.538 1048.3,-293.625 1037.72,-294.022 1040.27,-300.538"/>
</g>
<!-- Node11&#45;&gt;Node17 -->
<g id="edge22" class="edge"><title>Node11&#45;&gt;Node17</title>
<path fill="none" stroke="midnightblue" d="M955.998,-333.224C992.209,-324.54 1065.01,-307.081 1111.8,-295.859"/>
<polygon fill="midnightblue" stroke="midnightblue" points="1112.75,-299.231 1121.66,-293.496 1111.12,-292.424 1112.75,-299.231"/>
</g>
<!-- Node11&#45;&gt;Node18 -->
<g id="edge24" class="edge"><title>Node11&#45;&gt;Node18</title>
<path fill="none" stroke="midnightblue" d="M930.406,-330.219C927.248,-322.942 922.549,-312.113 918.566,-302.934"/>
<polygon fill="midnightblue" stroke="midnightblue" points="921.685,-301.33 914.493,-293.55 915.263,-304.116 921.685,-301.33"/>
</g>
<!-- Node11&#45;&gt;Node19 -->
<g id="edge27" class="edge"><title>Node11&#45;&gt;Node19</title>
<path fill="none" stroke="midnightblue" d="M911.779,-334.072C869.138,-325.576 774.929,-306.805 716.912,-295.246"/>
<polygon fill="midnightblue" stroke="midnightblue" points="717.363,-291.767 706.872,-293.245 715.995,-298.632 717.363,-291.767"/>
</g>
<!-- Node12&#45;&gt;Node5 -->
<g id="edge14" class="edge"><title>Node12&#45;&gt;Node5</title>
<path fill="none" stroke="midnightblue" d="M1266.39,-220.225C1260.7,-207.646 1248.85,-183.251 1235,-165 1213.91,-137.209 1208.81,-128.124 1179,-110 1152.65,-93.9774 1119.87,-83.0301 1093.1,-76.0035"/>
<polygon fill="midnightblue" stroke="midnightblue" points="1093.71,-72.5482 1083.16,-73.5 1092,-79.3362 1093.71,-72.5482"/>
</g>
<!-- Node13 -->
<g id="node13" class="node"><title>Node13</title>
<polygon fill="white" stroke="#bfbfbf" points="1438.6,-55.5 1438.6,-73.5 1497.4,-73.5 1497.4,-55.5 1438.6,-55.5"/>
<text text-anchor="middle" x="1468" y="-61.5" font-family="Helvetica,sans-Serif" font-size="10.00">inttypes.h</text>
</g>
<!-- Node12&#45;&gt;Node13 -->
<g id="edge13" class="edge"><title>Node12&#45;&gt;Node13</title>
<path fill="none" stroke="midnightblue" d="M1297.69,-220.48C1337.1,-207.647 1409.01,-178.742 1449,-129 1459.36,-116.108 1464.08,-97.6718 1466.22,-83.9833"/>
<polygon fill="midnightblue" stroke="midnightblue" points="1469.72,-84.1827 1467.48,-73.8274 1462.78,-83.3193 1469.72,-84.1827"/>
</g>
<!-- Node14&#45;&gt;Node3 -->
<g id="edge16" class="edge"><title>Node14&#45;&gt;Node3</title>
<path fill="none" stroke="midnightblue" d="M679.111,-220.382C690.187,-202.791 716.597,-160.846 731.429,-137.289"/>
<polygon fill="midnightblue" stroke="midnightblue" points="734.463,-139.039 736.83,-128.712 728.54,-135.309 734.463,-139.039"/>
</g>
<!-- Node14&#45;&gt;Node5 -->
<g id="edge17" class="edge"><title>Node14&#45;&gt;Node5</title>
<path fill="none" stroke="midnightblue" d="M673.649,-220.312C673.203,-198.533 675.268,-138.878 709,-110 747.325,-77.1895 885.635,-68.391 971.795,-66.1422"/>
<polygon fill="midnightblue" stroke="midnightblue" points="972.119,-69.6356 982.033,-65.8993 971.953,-62.6376 972.119,-69.6356"/>
</g>
<!-- Node15&#45;&gt;Node5 -->
<g id="edge19" class="edge"><title>Node15&#45;&gt;Node5</title>
<path fill="none" stroke="midnightblue" d="M801.14,-275.421C829.812,-243.022 935.906,-123.606 954,-110 971.824,-96.597 994.304,-85.3956 1012.21,-77.5836"/>
<polygon fill="midnightblue" stroke="midnightblue" points="1013.78,-80.7187 1021.63,-73.5999 1011.06,-74.2716 1013.78,-80.7187"/>
</g>
<!-- Node16&#45;&gt;Node5 -->
<g id="edge21" class="edge"><title>Node16&#45;&gt;Node5</title>
<path fill="none" stroke="midnightblue" d="M1071.95,-275.393C1078.55,-256.12 1093.32,-206.101 1085,-165 1078.82,-134.483 1062.99,-101.692 1052.62,-82.416"/>
<polygon fill="midnightblue" stroke="midnightblue" points="1055.68,-80.7127 1047.78,-73.6518 1049.55,-84.0975 1055.68,-80.7127"/>
</g>
<!-- Node17&#45;&gt;Node5 -->
<g id="edge23" class="edge"><title>Node17&#45;&gt;Node5</title>
<path fill="none" stroke="midnightblue" d="M1152.9,-275.389C1146,-249.677 1122.33,-168.246 1085,-110 1078.05,-99.1556 1068.26,-88.6012 1059.88,-80.4947"/>
<polygon fill="midnightblue" stroke="midnightblue" points="1062.12,-77.7982 1052.42,-73.543 1057.35,-82.9202 1062.12,-77.7982"/>
</g>
<!-- Node18&#45;&gt;Node3 -->
<g id="edge25" class="edge"><title>Node18&#45;&gt;Node3</title>
<path fill="none" stroke="midnightblue" d="M904.951,-275.43C889.702,-255.383 847.91,-202.254 806,-165 792.977,-153.424 776.866,-142.236 764.066,-133.974"/>
<polygon fill="midnightblue" stroke="midnightblue" points="765.746,-130.895 755.423,-128.511 762.006,-136.813 765.746,-130.895"/>
</g>
<!-- Node18&#45;&gt;Node5 -->
<g id="edge26" class="edge"><title>Node18&#45;&gt;Node5</title>
<path fill="none" stroke="midnightblue" d="M912.866,-275.371C920.004,-244.798 946.268,-137.075 968,-110 979.35,-95.8589 996.496,-85.2096 1011.53,-77.8798"/>
<polygon fill="midnightblue" stroke="midnightblue" points="1013.38,-80.8809 1021.02,-73.5392 1010.47,-74.5148 1013.38,-80.8809"/>
</g>
<!-- Node19&#45;&gt;Node3 -->
<g id="edge28" class="edge"><title>Node19&#45;&gt;Node3</title>
<path fill="none" stroke="midnightblue" d="M677.601,-275.241C686.675,-266.944 700.048,-253.358 708,-239 726.173,-206.189 735.398,-162.769 739.41,-138.64"/>
<polygon fill="midnightblue" stroke="midnightblue" points="742.87,-139.164 740.938,-128.747 735.952,-138.095 742.87,-139.164"/>
</g>
<!-- Node19&#45;&gt;Node5 -->
<g id="edge33" class="edge"><title>Node19&#45;&gt;Node5</title>
<path fill="none" stroke="midnightblue" d="M678.533,-275.393C713.161,-249 827.206,-164.126 931,-110 956.372,-96.7691 986.6,-84.9746 1009.25,-76.8579"/>
<polygon fill="midnightblue" stroke="midnightblue" points="1010.51,-80.128 1018.77,-73.5033 1008.18,-73.5259 1010.51,-80.128"/>
</g>
<!-- Node20 -->
<g id="node20" class="node"><title>Node20</title>
<g id="a_node20"><a xlink:href="$AP__Common_8h.html" xlink:title="Common definitions and utility routines for the ArduPilot libraries. ">
<polygon fill="white" stroke="black" points="465.973,-165.5 465.973,-183.5 612.027,-183.5 612.027,-165.5 465.973,-165.5"/>
<text text-anchor="middle" x="539" y="-171.5" font-family="Helvetica,sans-Serif" font-size="10.00">AP_Common/AP_Common.h</text>
</a>
</g>
</g>
<!-- Node19&#45;&gt;Node20 -->
<g id="edge29" class="edge"><title>Node19&#45;&gt;Node20</title>
<path fill="none" stroke="midnightblue" d="M660.236,-275.27C648.256,-262.751 624.309,-238.433 602,-220 588.543,-208.881 572.455,-197.547 559.905,-189.1"/>
<polygon fill="midnightblue" stroke="midnightblue" points="561.747,-186.122 551.48,-183.504 557.873,-191.953 561.747,-186.122"/>
</g>
<!-- Node19&#45;&gt;Node22 -->
<g id="edge34" class="edge"><title>Node19&#45;&gt;Node22</title>
<path fill="none" stroke="midnightblue" d="M648.408,-275.45C627.098,-266.695 592.804,-252.606 568.292,-242.535"/>
<polygon fill="midnightblue" stroke="midnightblue" points="569.357,-239.188 558.777,-238.625 566.696,-245.663 569.357,-239.188"/>
</g>
<!-- Node20&#45;&gt;Node3 -->
<g id="edge30" class="edge"><title>Node20&#45;&gt;Node3</title>
<path fill="none" stroke="midnightblue" d="M569.831,-165.45C606.994,-155.748 669.25,-139.494 707.84,-129.418"/>
<polygon fill="midnightblue" stroke="midnightblue" points="708.793,-132.787 717.584,-126.875 707.025,-126.014 708.793,-132.787"/>
</g>
<!-- Node20&#45;&gt;Node4 -->
<g id="edge32" class="edge"><title>Node20&#45;&gt;Node4</title>
<path fill="none" stroke="midnightblue" d="M529.887,-165.45C520.901,-157.512 506.95,-145.189 495.927,-135.452"/>
<polygon fill="midnightblue" stroke="midnightblue" points="498.01,-132.623 488.198,-128.625 493.376,-137.869 498.01,-132.623"/>
</g>
<!-- Node20&#45;&gt;Node21 -->
<g id="edge31" class="edge"><title>Node20&#45;&gt;Node21</title>
<path fill="none" stroke="midnightblue" d="M473.237,-165.45C379.849,-154.02 212.176,-133.496 140.27,-124.695"/>
<polygon fill="midnightblue" stroke="midnightblue" points="140.328,-121.176 129.977,-123.435 139.477,-128.124 140.328,-121.176"/>
</g>
<!-- Node22&#45;&gt;Node5 -->
<g id="edge37" class="edge"><title>Node22&#45;&gt;Node5</title>
<path fill="none" stroke="midnightblue" d="M557.949,-220.362C575.275,-212.44 601.148,-199.369 621,-184 656.558,-156.473 649.967,-130.481 690,-110 737.739,-85.5771 883.099,-73.8131 971.702,-68.7711"/>
<polygon fill="midnightblue" stroke="midnightblue" points="972.159,-72.2513 981.95,-68.2035 971.772,-65.262 972.159,-72.2513"/>
</g>
<!-- Node22&#45;&gt;Node20 -->
<g id="edge36" class="edge"><title>Node22&#45;&gt;Node20</title>
<path fill="none" stroke="midnightblue" d="M539,-220.219C539,-213.177 539,-202.808 539,-193.828"/>
<polygon fill="midnightblue" stroke="midnightblue" points="542.5,-193.55 539,-183.55 535.5,-193.55 542.5,-193.55"/>
</g>
<!-- Node23 -->
<g id="node23" class="node"><title>Node23</title>
<polygon fill="white" stroke="#bfbfbf" points="163.934,-165.5 163.934,-183.5 216.066,-183.5 216.066,-165.5 163.934,-165.5"/>
<text text-anchor="middle" x="190" y="-171.5" font-family="Helvetica,sans-Serif" font-size="10.00">stdarg.h</text>
</g>
<!-- Node22&#45;&gt;Node23 -->
<g id="edge35" class="edge"><title>Node22&#45;&gt;Node23</title>
<path fill="none" stroke="midnightblue" d="M484.558,-222.418C423.815,-215.267 322.447,-202.248 226.209,-184.072"/>
<polygon fill="midnightblue" stroke="midnightblue" points="226.792,-180.621 216.313,-182.181 225.479,-187.496 226.792,-180.621"/>
</g>
<!-- Node22&#45;&gt;Node24 -->
<g id="edge38" class="edge"><title>Node22&#45;&gt;Node24</title>
<path fill="none" stroke="midnightblue" d="M593.51,-223.869C608.57,-222.601 624.917,-221.236 640,-220 835.189,-204.004 1068.85,-185.616 1159.46,-178.515"/>
<polygon fill="midnightblue" stroke="midnightblue" points="1159.85,-181.996 1169.54,-177.725 1159.3,-175.017 1159.85,-181.996"/>
</g>
<!-- Node24&#45;&gt;Node5 -->
<g id="edge39" class="edge"><title>Node24&#45;&gt;Node5</title>
<path fill="none" stroke="midnightblue" d="M1194.58,-165.324C1188.62,-151.983 1175.1,-125.474 1156,-110 1136.46,-94.1761 1110.61,-83.4389 1088.57,-76.4827"/>
<polygon fill="midnightblue" stroke="midnightblue" points="1089.32,-73.0565 1078.74,-73.548 1087.32,-79.7637 1089.32,-73.0565"/>
</g>
<!-- Node24&#45;&gt;Node25 -->
<g id="edge40" class="edge"><title>Node24&#45;&gt;Node25</title>
<path fill="none" stroke="midnightblue" d="M1226.31,-166.68C1267.16,-156.839 1342.44,-138.704 1385.5,-128.329"/>
<polygon fill="midnightblue" stroke="midnightblue" points="1386.56,-131.675 1395.46,-125.93 1384.92,-124.87 1386.56,-131.675"/>
</g>
<!-- Node25&#45;&gt;Node5 -->
<g id="edge41" class="edge"><title>Node25&#45;&gt;Node5</title>
<path fill="none" stroke="midnightblue" d="M1395.22,-112.754C1390.85,-111.756 1386.3,-110.787 1382,-110 1290.09,-93.1613 1183.03,-80.205 1114.2,-72.7234"/>
<polygon fill="midnightblue" stroke="midnightblue" points="1114.23,-69.2062 1103.91,-71.6147 1113.48,-76.1659 1114.23,-69.2062"/>
</g>
<!-- Node25&#45;&gt;Node6 -->
<g id="edge43" class="edge"><title>Node25&#45;&gt;Node6</title>
<path fill="none" stroke="midnightblue" d="M1401.46,-110.382C1363.39,-91.6901 1269.29,-45.4989 1223.65,-23.0923"/>
<polygon fill="midnightblue" stroke="midnightblue" points="1224.95,-19.8294 1214.43,-18.5644 1221.86,-26.1131 1224.95,-19.8294"/>
</g>
<!-- Node25&#45;&gt;Node13 -->
<g id="edge42" class="edge"><title>Node25&#45;&gt;Node13</title>
<path fill="none" stroke="midnightblue" d="M1425.81,-110.219C1433.19,-102.394 1444.45,-90.4631 1453.48,-80.8921"/>
<polygon fill="midnightblue" stroke="midnightblue" points="1456.09,-83.2253 1460.41,-73.5496 1451,-78.4217 1456.09,-83.2253"/>
</g>
<!-- Node26&#45;&gt;Node3 -->
<g id="edge46" class="edge"><title>Node26&#45;&gt;Node3</title>
<path fill="none" stroke="midnightblue" d="M1009.93,-167.676C952.563,-157.576 835.164,-136.904 776.692,-126.608"/>
<polygon fill="midnightblue" stroke="midnightblue" points="776.943,-123.099 766.487,-124.812 775.729,-129.993 776.943,-123.099"/>
</g>
<!-- Node26&#45;&gt;Node5 -->
<g id="edge47" class="edge"><title>Node26&#45;&gt;Node5</title>
<path fill="none" stroke="midnightblue" d="M1043,-165.382C1043,-148.182 1043,-107.698 1043,-83.8866"/>
<polygon fill="midnightblue" stroke="midnightblue" points="1046.5,-83.7117 1043,-73.7118 1039.5,-83.7118 1046.5,-83.7117"/>
</g>
<!-- Node27&#45;&gt;Node3 -->
<g id="edge55" class="edge"><title>Node27&#45;&gt;Node3</title>
<path fill="none" stroke="midnightblue" d="M367.647,-220.321C384.541,-206.48 421.108,-178.617 457,-165 543.036,-132.36 652.395,-123.65 707.27,-121.333"/>
<polygon fill="midnightblue" stroke="midnightblue" points="707.634,-124.822 717.496,-120.95 707.371,-117.827 707.634,-124.822"/>
</g>
<!-- Node27&#45;&gt;Node5 -->
<g id="edge58" class="edge"><title>Node27&#45;&gt;Node5</title>
<path fill="none" stroke="midnightblue" d="M360.599,-220.182C368.383,-196.965 393.987,-131.738 442,-110 534.752,-68.0052 833.856,-64.1437 971.933,-64.7057"/>
<polygon fill="midnightblue" stroke="midnightblue" points="971.974,-68.2059 981.991,-64.7557 972.009,-61.206 971.974,-68.2059"/>
</g>
<!-- Node27&#45;&gt;Node8 -->
<g id="edge57" class="edge"><title>Node27&#45;&gt;Node8</title>
<path fill="none" stroke="midnightblue" d="M346.761,-220.45C335.352,-212.279 317.454,-199.46 303.686,-189.6"/>
<polygon fill="midnightblue" stroke="midnightblue" points="305.513,-186.603 295.345,-183.625 301.437,-192.294 305.513,-186.603"/>
</g>
<!-- Node27&#45;&gt;Node20 -->
<g id="edge56" class="edge"><title>Node27&#45;&gt;Node20</title>
<path fill="none" stroke="midnightblue" d="M385.49,-220.45C416.543,-211.357 467.246,-196.511 501.817,-186.388"/>
<polygon fill="midnightblue" stroke="midnightblue" points="502.935,-189.708 511.548,-183.538 500.968,-182.99 502.935,-189.708"/>
</g>
<!-- Node28&#45;&gt;Node5 -->
<g id="edge60" class="edge"><title>Node28&#45;&gt;Node5</title>
<path fill="none" stroke="midnightblue" d="M1394.95,-330.329C1386.54,-312.608 1368,-269.124 1368,-230.5 1368,-230.5 1368,-230.5 1368,-173.5 1368,-143.329 1367.5,-128.927 1344,-110 1309.6,-82.2896 1191.68,-71.793 1114.05,-67.8455"/>
<polygon fill="midnightblue" stroke="midnightblue" points="1114.01,-64.3393 1103.85,-67.3524 1113.67,-71.3312 1114.01,-64.3393"/>
</g>
<!-- Node29&#45;&gt;Node5 -->
<g id="edge63" class="edge"><title>Node29&#45;&gt;Node5</title>
<path fill="none" stroke="midnightblue" d="M170.568,-228.548C140.432,-227.441 83.1752,-220.359 57,-184 43.2315,-164.874 55.1836,-124.022 73,-110 108.209,-82.29 754.077,-69.9121 971.929,-66.5131"/>
<polygon fill="midnightblue" stroke="midnightblue" points="972.031,-70.0121 981.975,-66.358 971.922,-63.0129 972.031,-70.0121"/>
</g>
<!-- Node29&#45;&gt;Node23 -->
<g id="edge62" class="edge"><title>Node29&#45;&gt;Node23</title>
<path fill="none" stroke="midnightblue" d="M190,-220.219C190,-213.177 190,-202.808 190,-193.828"/>
<polygon fill="midnightblue" stroke="midnightblue" points="193.5,-193.55 190,-183.55 186.5,-193.55 193.5,-193.55"/>
</g>
<!-- Node31 -->
<g id="node31" class="node"><title>Node31</title>
<g id="a_node31"><a xlink:href="$AP__HAL__Linux_8h.html" xlink:title="AP_HAL_Linux.h">
<polygon fill="white" stroke="black" points="705.919,-550.5 705.919,-568.5 798.081,-568.5 798.081,-550.5 705.919,-550.5"/>
<text text-anchor="middle" x="752" y="-556.5" font-family="Helvetica,sans-Serif" font-size="10.00">AP_HAL_Linux.h</text>
</a>
</g>
</g>
<!-- Node30&#45;&gt;Node31 -->
<g id="edge69" class="edge"><title>Node30&#45;&gt;Node31</title>
<path fill="none" stroke="midnightblue" d="M769.572,-660.382C766.532,-643.104 759.359,-602.329 755.178,-578.563"/>
<polygon fill="midnightblue" stroke="midnightblue" points="758.624,-577.954 753.445,-568.712 751.73,-579.167 758.624,-577.954"/>
</g>
<!-- Node34 -->
<g id="node34" class="node"><title>Node34</title>
<g id="a_node34"><a xlink:href="$Linux_2UARTDriver_8h.html" xlink:title="UARTDriver.h">
<polygon fill="white" stroke="black" points="665.248,-605.5 665.248,-623.5 742.752,-623.5 742.752,-605.5 665.248,-605.5"/>
<text text-anchor="middle" x="704" y="-611.5" font-family="Helvetica,sans-Serif" font-size="10.00">UARTDriver.h</text>
</a>
</g>
</g>
<!-- Node30&#45;&gt;Node34 -->
<g id="edge74" class="edge"><title>Node30&#45;&gt;Node34</title>
<path fill="none" stroke="midnightblue" d="M760.824,-660.45C750.592,-652.357 734.598,-639.704 722.181,-629.882"/>
<polygon fill="midnightblue" stroke="midnightblue" points="724.286,-627.084 714.272,-623.625 719.943,-632.574 724.286,-627.084"/>
</g>
<!-- Node31&#45;&gt;Node2 -->
<g id="edge70" class="edge"><title>Node31&#45;&gt;Node2</title>
<path fill="none" stroke="midnightblue" d="M762.096,-550.313C772.622,-541.636 789.445,-527.366 803,-514 818.749,-498.471 835.515,-479.458 846.755,-466.306"/>
<polygon fill="midnightblue" stroke="midnightblue" points="849.485,-468.498 853.278,-458.605 844.144,-463.974 849.485,-468.498"/>
</g>
<!-- Node32 -->
<g id="node32" class="node"><title>Node32</title>
<g id="a_node32"><a xlink:href="$HAL__Linux__Class_8h.html" xlink:title="HAL_Linux_Class.h">
<polygon fill="white" stroke="black" points="690.086,-495.5 690.086,-513.5 793.914,-513.5 793.914,-495.5 690.086,-495.5"/>
<text text-anchor="middle" x="742" y="-501.5" font-family="Helvetica,sans-Serif" font-size="10.00">HAL_Linux_Class.h</text>
</a>
</g>
</g>
<!-- Node31&#45;&gt;Node32 -->
<g id="edge71" class="edge"><title>Node31&#45;&gt;Node32</title>
<path fill="none" stroke="midnightblue" d="M750.438,-550.219C749.094,-543.099 747.109,-532.577 745.402,-523.529"/>
<polygon fill="midnightblue" stroke="midnightblue" points="748.812,-522.727 743.519,-513.55 741.934,-524.025 748.812,-522.727"/>
</g>
<!-- Node32&#45;&gt;Node2 -->
<g id="edge72" class="edge"><title>Node32&#45;&gt;Node2</title>
<path fill="none" stroke="midnightblue" d="M759.922,-495.45C779.241,-486.773 810.227,-472.856 832.606,-462.804"/>
<polygon fill="midnightblue" stroke="midnightblue" points="834.222,-465.915 841.91,-458.625 831.354,-459.53 834.222,-465.915"/>
</g>
<!-- Node33 -->
<g id="node33" class="node"><title>Node33</title>
<g id="a_node33"><a xlink:href="$AP__HAL__Linux__Namespace_8h.html" xlink:title="AP_HAL_Linux_Namespace.h">
<polygon fill="white" stroke="black" points="639.458,-440.5 639.458,-458.5 790.542,-458.5 790.542,-440.5 639.458,-440.5"/>
<text text-anchor="middle" x="715" y="-446.5" font-family="Helvetica,sans-Serif" font-size="10.00">AP_HAL_Linux_Namespace.h</text>
</a>
</g>
</g>
<!-- Node32&#45;&gt;Node33 -->
<g id="edge73" class="edge"><title>Node32&#45;&gt;Node33</title>
<path fill="none" stroke="midnightblue" d="M737.781,-495.219C734.034,-487.864 728.439,-476.88 723.731,-467.639"/>
<polygon fill="midnightblue" stroke="midnightblue" points="726.759,-465.871 719.101,-458.55 720.521,-469.049 726.759,-465.871"/>
</g>
<!-- Node34&#45;&gt;Node31 -->
<g id="edge75" class="edge"><title>Node34&#45;&gt;Node31</title>
<path fill="none" stroke="midnightblue" d="M711.5,-605.219C718.515,-597.473 729.176,-585.701 737.799,-576.18"/>
<polygon fill="midnightblue" stroke="midnightblue" points="740.591,-578.311 744.71,-568.55 735.403,-573.612 740.591,-578.311"/>
</g>
<!-- Node35 -->
<g id="node35" class="node"><title>Node35</title>
<g id="a_node35"><a xlink:href="$SerialDevice_8h.html" xlink:title="SerialDevice.h">
<polygon fill="white" stroke="black" points="65.7637,-165.5 65.7637,-183.5 146.236,-183.5 146.236,-165.5 65.7637,-165.5"/>
<text text-anchor="middle" x="106" y="-171.5" font-family="Helvetica,sans-Serif" font-size="10.00">SerialDevice.h</text>
</a>
</g>
</g>
<!-- Node34&#45;&gt;Node35 -->
<g id="edge76" class="edge"><title>Node34&#45;&gt;Node35</title>
<path fill="none" stroke="midnightblue" d="M665.044,-610.389C535.001,-599.491 124,-560.682 124,-505.5 124,-505.5 124,-505.5 124,-283.5 124,-251.436 116.185,-214.736 110.854,-193.431"/>
<polygon fill="midnightblue" stroke="midnightblue" points="114.188,-192.347 108.28,-183.552 107.414,-194.112 114.188,-192.347"/>
</g>
<!-- Node35&#45;&gt;Node3 -->
<g id="edge77" class="edge"><title>Node35&#45;&gt;Node3</title>
<path fill="none" stroke="midnightblue" d="M146.331,-166.188C149.26,-165.754 152.173,-165.352 155,-165 364.05,-139.005 617.005,-126.022 707.64,-121.949"/>
<polygon fill="midnightblue" stroke="midnightblue" points="708.039,-125.435 717.874,-121.496 707.729,-118.442 708.039,-125.435"/>
</g>
<!-- Node35&#45;&gt;Node21 -->
<g id="edge78" class="edge"><title>Node35&#45;&gt;Node21</title>
<path fill="none" stroke="midnightblue" d="M106,-165.219C106,-158.177 106,-147.808 106,-138.828"/>
<polygon fill="midnightblue" stroke="midnightblue" points="109.5,-138.55 106,-128.55 102.5,-138.55 109.5,-138.55"/>
</g>
<!-- Node38&#45;&gt;Node13 -->
<g id="edge83" class="edge"><title>Node38&#45;&gt;Node13</title>
<path fill="none" stroke="midnightblue" d="M1383.72,-611.483C1449.34,-605.852 1564,-584.685 1564,-505.5 1564,-505.5 1564,-505.5 1564,-173.5 1564,-130.264 1520.49,-96.2934 1492.05,-78.7093"/>
<polygon fill="midnightblue" stroke="midnightblue" points="1493.81,-75.6819 1483.42,-73.585 1490.23,-81.7006 1493.81,-75.6819"/>
</g>
</g>
</svg>
