<?xml version="1.0" encoding="UTF-8" standalone="no"?>
<!DOCTYPE svg PUBLIC "-//W3C//DTD SVG 1.1//EN"
 "http://www.w3.org/Graphics/SVG/1.1/DTD/svg11.dtd">
<!-- Generated by graphviz version 2.38.0 (20140413.2041)
 -->
<!-- Title: libraries/AP_RPM/RPM_Backend.h Pages: 1 -->
<svg width="327pt" height="167pt"
 viewBox="0.00 0.00 327.47 167.00" xmlns="http://www.w3.org/2000/svg" xmlns:xlink="http://www.w3.org/1999/xlink">
<g id="graph0" class="graph" transform="scale(1 1) rotate(0) translate(4 163)">
<title>libraries/AP_RPM/RPM_Backend.h</title>
<polygon fill="white" stroke="none" points="-4,4 -4,-163 323.47,-163 323.47,4 -4,4"/>
<!-- Node1 -->
<g id="node1" class="node"><title>Node1</title>
<polygon fill="#bfbfbf" stroke="black" points="130.559,-130.5 130.559,-158.5 250.47,-158.5 250.47,-130.5 130.559,-130.5"/>
<text text-anchor="start" x="138.559" y="-146.5" font-family="Helvetica,sans-Serif" font-size="10.00">libraries/AP_RPM/RPM</text>
<text text-anchor="middle" x="190.515" y="-136.5" font-family="Helvetica,sans-Serif" font-size="10.00">_Backend.h</text>
</g>
<!-- Node2 -->
<g id="node2" class="node"><title>Node2</title>
<g id="a_node2"><a xlink:href="$RPM__PX4__PWM_8h.html" xlink:title="libraries/AP_RPM/RPM\l_PX4_PWM.h">
<polygon fill="white" stroke="black" points="61.5591,-65.5 61.5591,-93.5 181.47,-93.5 181.47,-65.5 61.5591,-65.5"/>
<text text-anchor="start" x="69.5591" y="-81.5" font-family="Helvetica,sans-Serif" font-size="10.00">libraries/AP_RPM/RPM</text>
<text text-anchor="middle" x="121.515" y="-71.5" font-family="Helvetica,sans-Serif" font-size="10.00">_PX4_PWM.h</text>
</a>
</g>
</g>
<!-- Node1&#45;&gt;Node2 -->
<g id="edge1" class="edge"><title>Node1&#45;&gt;Node2</title>
<path fill="none" stroke="midnightblue" d="M168.791,-123.665C158.022,-113.833 145.318,-102.234 135.793,-93.5369"/>
<polygon fill="midnightblue" stroke="midnightblue" points="166.473,-126.288 176.218,-130.446 171.193,-121.119 166.473,-126.288"/>
</g>
<!-- Node5 -->
<g id="node5" class="node"><title>Node5</title>
<g id="a_node5"><a xlink:href="$RPM__Backend_8cpp.html" xlink:title="libraries/AP_RPM/RPM\l_Backend.cpp">
<polygon fill="white" stroke="black" points="199.559,-65.5 199.559,-93.5 319.47,-93.5 319.47,-65.5 199.559,-65.5"/>
<text text-anchor="start" x="207.559" y="-81.5" font-family="Helvetica,sans-Serif" font-size="10.00">libraries/AP_RPM/RPM</text>
<text text-anchor="middle" x="259.515" y="-71.5" font-family="Helvetica,sans-Serif" font-size="10.00">_Backend.cpp</text>
</a>
</g>
</g>
<!-- Node1&#45;&gt;Node5 -->
<g id="edge4" class="edge"><title>Node1&#45;&gt;Node5</title>
<path fill="none" stroke="midnightblue" d="M212.238,-123.665C223.008,-113.833 235.711,-102.234 245.236,-93.5369"/>
<polygon fill="midnightblue" stroke="midnightblue" points="209.836,-121.119 204.811,-130.446 214.556,-126.288 209.836,-121.119"/>
</g>
<!-- Node3 -->
<g id="node3" class="node"><title>Node3</title>
<g id="a_node3"><a xlink:href="$AP__RPM_8cpp.html" xlink:title="libraries/AP_RPM/AP\l_RPM.cpp">
<polygon fill="white" stroke="black" points="0,-0.5 0,-28.5 111.029,-28.5 111.029,-0.5 0,-0.5"/>
<text text-anchor="start" x="8" y="-16.5" font-family="Helvetica,sans-Serif" font-size="10.00">libraries/AP_RPM/AP</text>
<text text-anchor="middle" x="55.5146" y="-6.5" font-family="Helvetica,sans-Serif" font-size="10.00">_RPM.cpp</text>
</a>
</g>
</g>
<!-- Node2&#45;&gt;Node3 -->
<g id="edge2" class="edge"><title>Node2&#45;&gt;Node3</title>
<path fill="none" stroke="midnightblue" d="M100.435,-58.3785C90.1988,-48.6076 78.1949,-37.1493 69.1724,-28.5369"/>
<polygon fill="midnightblue" stroke="midnightblue" points="98.1891,-61.0733 107.839,-65.4464 103.022,-56.0098 98.1891,-61.0733"/>
</g>
<!-- Node4 -->
<g id="node4" class="node"><title>Node4</title>
<g id="a_node4"><a xlink:href="$RPM__PX4__PWM_8cpp.html" xlink:title="libraries/AP_RPM/RPM\l_PX4_PWM.cpp">
<polygon fill="white" stroke="black" points="128.559,-0.5 128.559,-28.5 248.47,-28.5 248.47,-0.5 128.559,-0.5"/>
<text text-anchor="start" x="136.559" y="-16.5" font-family="Helvetica,sans-Serif" font-size="10.00">libraries/AP_RPM/RPM</text>
<text text-anchor="middle" x="188.515" y="-6.5" font-family="Helvetica,sans-Serif" font-size="10.00">_PX4_PWM.cpp</text>
</a>
</g>
</g>
<!-- Node2&#45;&gt;Node4 -->
<g id="edge3" class="edge"><title>Node2&#45;&gt;Node4</title>
<path fill="none" stroke="midnightblue" d="M142.914,-58.3785C153.305,-48.6076 165.491,-37.1493 174.65,-28.5369"/>
<polygon fill="midnightblue" stroke="midnightblue" points="140.285,-56.0462 135.397,-65.4464 145.08,-61.1459 140.285,-56.0462"/>
</g>
</g>
</svg>
