<?xml version="1.0" encoding="UTF-8" standalone="no"?>
<!DOCTYPE svg PUBLIC "-//W3C//DTD SVG 1.1//EN"
 "http://www.w3.org/Graphics/SVG/1.1/DTD/svg11.dtd">
<!-- Generated by graphviz version 2.38.0 (20140413.2041)
 -->
<!-- Title: sbus_decode Pages: 1 -->
<svg width="571pt" height="178pt"
 viewBox="0.00 0.00 571.33 178.00" xmlns="http://www.w3.org/2000/svg" xmlns:xlink="http://www.w3.org/1999/xlink">
<g id="graph0" class="graph" transform="scale(1 1) rotate(0) translate(4 174)">
<title>sbus_decode</title>
<polygon fill="white" stroke="none" points="-4,4 -4,-174 567.328,-174 567.328,4 -4,4"/>
<!-- Node1 -->
<g id="node1" class="node"><title>Node1</title>
<polygon fill="#bfbfbf" stroke="black" points="0,-75.5 0,-93.5 75.4922,-93.5 75.4922,-75.5 0,-75.5"/>
<text text-anchor="middle" x="37.7461" y="-81.5" font-family="Helvetica,sans-Serif" font-size="10.00">sbus_decode</text>
</g>
<!-- Node2 -->
<g id="node2" class="node"><title>Node2</title>
<g id="a_node2"><a xlink:href="$classLinux_1_1RCInput.html#a9a8cf6cfb7abc062fd23cb7a74221b06" xlink:title="Linux::RCInput::_process\l_sbus_pulse">
<polygon fill="white" stroke="black" points="111.492,-70.5 111.492,-98.5 239.772,-98.5 239.772,-70.5 111.492,-70.5"/>
<text text-anchor="start" x="119.492" y="-86.5" font-family="Helvetica,sans-Serif" font-size="10.00">Linux::RCInput::_process</text>
<text text-anchor="middle" x="175.632" y="-76.5" font-family="Helvetica,sans-Serif" font-size="10.00">_sbus_pulse</text>
</a>
</g>
</g>
<!-- Node1&#45;&gt;Node2 -->
<g id="edge1" class="edge"><title>Node1&#45;&gt;Node2</title>
<path fill="none" stroke="midnightblue" d="M85.7205,-84.5C94.0024,-84.5 102.745,-84.5 111.386,-84.5"/>
<polygon fill="midnightblue" stroke="midnightblue" points="85.5189,-81.0001 75.5189,-84.5 85.5188,-88.0001 85.5189,-81.0001"/>
</g>
<!-- Node3 -->
<g id="node3" class="node"><title>Node3</title>
<g id="a_node3"><a xlink:href="$classLinux_1_1RCInput.html#a9b269fac087807d362506805ebd18936" xlink:title="Linux::RCInput::_process\l_rc_pulse">
<polygon fill="white" stroke="black" points="275.772,-70.5 275.772,-98.5 404.053,-98.5 404.053,-70.5 275.772,-70.5"/>
<text text-anchor="start" x="283.772" y="-86.5" font-family="Helvetica,sans-Serif" font-size="10.00">Linux::RCInput::_process</text>
<text text-anchor="middle" x="339.913" y="-76.5" font-family="Helvetica,sans-Serif" font-size="10.00">_rc_pulse</text>
</a>
</g>
</g>
<!-- Node2&#45;&gt;Node3 -->
<g id="edge2" class="edge"><title>Node2&#45;&gt;Node3</title>
<path fill="none" stroke="midnightblue" d="M249.852,-84.5C258.449,-84.5 267.166,-84.5 275.612,-84.5"/>
<polygon fill="midnightblue" stroke="midnightblue" points="249.839,-81.0001 239.839,-84.5 249.839,-88.0001 249.839,-81.0001"/>
</g>
<!-- Node4 -->
<g id="node4" class="node"><title>Node4</title>
<g id="a_node4"><a xlink:href="$classLinux_1_1RCInput__AioPRU.html#a49ed287326adab88ddd7aa613b3ac3a6" xlink:title="Linux::RCInput_AioPRU\l::_timer_tick">
<polygon fill="white" stroke="black" points="440.053,-141.5 440.053,-169.5 563.328,-169.5 563.328,-141.5 440.053,-141.5"/>
<text text-anchor="start" x="448.053" y="-157.5" font-family="Helvetica,sans-Serif" font-size="10.00">Linux::RCInput_AioPRU</text>
<text text-anchor="middle" x="501.69" y="-147.5" font-family="Helvetica,sans-Serif" font-size="10.00">::_timer_tick</text>
</a>
</g>
</g>
<!-- Node3&#45;&gt;Node4 -->
<g id="edge3" class="edge"><title>Node3&#45;&gt;Node4</title>
<path fill="none" stroke="midnightblue" d="M377.388,-103.115C395.966,-112.351 419.018,-123.44 440.053,-132.5 447.084,-135.529 454.659,-138.571 461.992,-141.407"/>
<polygon fill="midnightblue" stroke="midnightblue" points="378.896,-99.9557 368.387,-98.6112 375.764,-106.216 378.896,-99.9557"/>
</g>
<!-- Node5 -->
<g id="node5" class="node"><title>Node5</title>
<g id="a_node5"><a xlink:href="$classLinux_1_1RCInput__PRU.html#ac951bed8e21d81f9b3e76d261b581f99" xlink:title="Linux::RCInput_PRU\l::_timer_tick">
<polygon fill="white" stroke="black" points="447.279,-94.5 447.279,-122.5 556.102,-122.5 556.102,-94.5 447.279,-94.5"/>
<text text-anchor="start" x="455.279" y="-110.5" font-family="Helvetica,sans-Serif" font-size="10.00">Linux::RCInput_PRU</text>
<text text-anchor="middle" x="501.69" y="-100.5" font-family="Helvetica,sans-Serif" font-size="10.00">::_timer_tick</text>
</a>
</g>
</g>
<!-- Node3&#45;&gt;Node5 -->
<g id="edge4" class="edge"><title>Node3&#45;&gt;Node5</title>
<path fill="none" stroke="midnightblue" d="M414.218,-95.5111C425.358,-97.1844 436.669,-98.8835 447.278,-100.477"/>
<polygon fill="midnightblue" stroke="midnightblue" points="414.47,-92.0098 404.061,-93.9854 413.43,-98.9321 414.47,-92.0098"/>
</g>
<!-- Node6 -->
<g id="node6" class="node"><title>Node6</title>
<g id="a_node6"><a xlink:href="$classLinux_1_1RCInput__RPI.html#ae2e63649584270728c71d7f49a8bb866" xlink:title="Linux::RCInput_RPI\l::_timer_tick">
<polygon fill="white" stroke="black" points="449.501,-47.5 449.501,-75.5 553.88,-75.5 553.88,-47.5 449.501,-47.5"/>
<text text-anchor="start" x="457.501" y="-63.5" font-family="Helvetica,sans-Serif" font-size="10.00">Linux::RCInput_RPI</text>
<text text-anchor="middle" x="501.69" y="-53.5" font-family="Helvetica,sans-Serif" font-size="10.00">::_timer_tick</text>
</a>
</g>
</g>
<!-- Node3&#45;&gt;Node6 -->
<g id="edge5" class="edge"><title>Node3&#45;&gt;Node6</title>
<path fill="none" stroke="midnightblue" d="M414.002,-73.9788C425.921,-72.2631 438.043,-70.518 449.298,-68.898"/>
<polygon fill="midnightblue" stroke="midnightblue" points="413.46,-70.5206 404.061,-75.4098 414.458,-77.4492 413.46,-70.5206"/>
</g>
<!-- Node7 -->
<g id="node7" class="node"><title>Node7</title>
<g id="a_node7"><a xlink:href="$classLinux_1_1RCInput__ZYNQ.html#a1ec51c6ebac3bbce45e2f386ee2d55fc" xlink:title="Linux::RCInput_ZYNQ\l::_timer_tick">
<polygon fill="white" stroke="black" points="443.947,-0.5 443.947,-28.5 559.434,-28.5 559.434,-0.5 443.947,-0.5"/>
<text text-anchor="start" x="451.947" y="-16.5" font-family="Helvetica,sans-Serif" font-size="10.00">Linux::RCInput_ZYNQ</text>
<text text-anchor="middle" x="501.69" y="-6.5" font-family="Helvetica,sans-Serif" font-size="10.00">::_timer_tick</text>
</a>
</g>
</g>
<!-- Node3&#45;&gt;Node7 -->
<g id="edge6" class="edge"><title>Node3&#45;&gt;Node7</title>
<path fill="none" stroke="midnightblue" d="M379.376,-66.0261C397.649,-57.4115 419.861,-47.1716 440.053,-38.5 447.855,-35.1491 456.29,-31.7017 464.318,-28.5019"/>
<polygon fill="midnightblue" stroke="midnightblue" points="377.752,-62.9228 370.212,-70.3659 380.748,-69.2494 377.752,-62.9228"/>
</g>
</g>
</svg>
