<?xml version="1.0" encoding="UTF-8" standalone="no"?>
<!DOCTYPE svg PUBLIC "-//W3C//DTD SVG 1.1//EN"
 "http://www.w3.org/Graphics/SVG/1.1/DTD/svg11.dtd">
<!-- Generated by graphviz version 2.38.0 (20140413.2041)
 -->
<!-- Title: libraries/AP_HAL_Linux/sbus.cpp Pages: 1 -->
<svg width="194pt" height="92pt"
 viewBox="0.00 0.00 193.85 92.00" xmlns="http://www.w3.org/2000/svg" xmlns:xlink="http://www.w3.org/1999/xlink">
<g id="graph0" class="graph" transform="scale(1 1) rotate(0) translate(4 88)">
<title>libraries/AP_HAL_Linux/sbus.cpp</title>
<polygon fill="white" stroke="none" points="-4,4 -4,-88 189.852,-88 189.852,4 -4,4"/>
<!-- Node1 -->
<g id="node1" class="node"><title>Node1</title>
<polygon fill="#bfbfbf" stroke="black" points="33.3154,-55.5 33.3154,-83.5 154.926,-83.5 154.926,-55.5 33.3154,-55.5"/>
<text text-anchor="start" x="41.3154" y="-71.5" font-family="Helvetica,sans-Serif" font-size="10.00">libraries/AP_HAL_Linux</text>
<text text-anchor="middle" x="94.1206" y="-61.5" font-family="Helvetica,sans-Serif" font-size="10.00">/sbus.cpp</text>
</g>
<!-- Node2 -->
<g id="node2" class="node"><title>Node2</title>
<polygon fill="white" stroke="#bfbfbf" points="0,-0.5 0,-18.5 48.2412,-18.5 48.2412,-0.5 0,-0.5"/>
<text text-anchor="middle" x="24.1206" y="-6.5" font-family="Helvetica,sans-Serif" font-size="10.00">stdint.h</text>
</g>
<!-- Node1&#45;&gt;Node2 -->
<g id="edge1" class="edge"><title>Node1&#45;&gt;Node2</title>
<path fill="none" stroke="midnightblue" d="M78.2365,-55.3389C67.4361,-46.39 53.1324,-34.5384 41.9432,-25.2673"/>
<polygon fill="midnightblue" stroke="midnightblue" points="44.0367,-22.4566 34.1034,-18.7715 39.5706,-27.8468 44.0367,-22.4566"/>
</g>
<!-- Node3 -->
<g id="node3" class="node"><title>Node3</title>
<polygon fill="white" stroke="#bfbfbf" points="65.8276,-0.5 65.8276,-18.5 122.414,-18.5 122.414,-0.5 65.8276,-0.5"/>
<text text-anchor="middle" x="94.1206" y="-6.5" font-family="Helvetica,sans-Serif" font-size="10.00">stdbool.h</text>
</g>
<!-- Node1&#45;&gt;Node3 -->
<g id="edge2" class="edge"><title>Node1&#45;&gt;Node3</title>
<path fill="none" stroke="midnightblue" d="M94.1206,-55.3389C94.1206,-47.5305 94.1206,-37.5122 94.1206,-28.9265"/>
<polygon fill="midnightblue" stroke="midnightblue" points="97.6207,-28.7714 94.1206,-18.7715 90.6207,-28.7715 97.6207,-28.7714"/>
</g>
<!-- Node4 -->
<g id="node4" class="node"><title>Node4</title>
<g id="a_node4"><a xlink:href="$sbus_8h.html" xlink:title="sbus.h">
<polygon fill="white" stroke="black" points="140.389,-0.5 140.389,-18.5 185.852,-18.5 185.852,-0.5 140.389,-0.5"/>
<text text-anchor="middle" x="163.121" y="-6.5" font-family="Helvetica,sans-Serif" font-size="10.00">sbus.h</text>
</a>
</g>
</g>
<!-- Node1&#45;&gt;Node4 -->
<g id="edge3" class="edge"><title>Node1&#45;&gt;Node4</title>
<path fill="none" stroke="midnightblue" d="M109.778,-55.3389C120.424,-46.39 134.523,-34.5384 145.553,-25.2673"/>
<polygon fill="midnightblue" stroke="midnightblue" points="147.878,-27.8852 153.28,-18.7715 143.373,-22.5268 147.878,-27.8852"/>
</g>
</g>
</svg>
