<?xml version="1.0" encoding="UTF-8" standalone="no"?>
<!DOCTYPE svg PUBLIC "-//W3C//DTD SVG 1.1//EN"
 "http://www.w3.org/Graphics/SVG/1.1/DTD/svg11.dtd">
<!-- Generated by graphviz version 2.38.0 (20140413.2041)
 -->
<!-- Title: libraries/AP_HAL/Scheduler.h Pages: 1 -->
<svg width="475pt" height="137pt"
 viewBox="0.00 0.00 475.08 137.00" xmlns="http://www.w3.org/2000/svg" xmlns:xlink="http://www.w3.org/1999/xlink">
<g id="graph0" class="graph" transform="scale(1 1) rotate(0) translate(4 133)">
<title>libraries/AP_HAL/Scheduler.h</title>
<polygon fill="white" stroke="none" points="-4,4 -4,-133 471.083,-133 471.083,4 -4,4"/>
<!-- Node1 -->
<g id="node1" class="node"><title>Node1</title>
<polygon fill="#bfbfbf" stroke="black" points="112.249,-110.5 112.249,-128.5 259.992,-128.5 259.992,-110.5 112.249,-110.5"/>
<text text-anchor="middle" x="186.121" y="-116.5" font-family="Helvetica,sans-Serif" font-size="10.00">libraries/AP_HAL/Scheduler.h</text>
</g>
<!-- Node2 -->
<g id="node2" class="node"><title>Node2</title>
<polygon fill="white" stroke="#bfbfbf" points="0,-0.5 0,-18.5 48.2412,-18.5 48.2412,-0.5 0,-0.5"/>
<text text-anchor="middle" x="24.1206" y="-6.5" font-family="Helvetica,sans-Serif" font-size="10.00">stdint.h</text>
</g>
<!-- Node1&#45;&gt;Node2 -->
<g id="edge1" class="edge"><title>Node1&#45;&gt;Node2</title>
<path fill="none" stroke="midnightblue" d="M112.111,-113.442C83.8424,-107.709 53.7263,-96.3044 34.1206,-74 23.4139,-61.8196 21.6401,-43.0073 22.1077,-29.0166"/>
<polygon fill="midnightblue" stroke="midnightblue" points="25.6273,-28.8824 22.8808,-18.6498 18.6467,-28.3618 25.6273,-28.8824"/>
</g>
<!-- Node3 -->
<g id="node3" class="node"><title>Node3</title>
<g id="a_node3"><a xlink:href="$AP__Common_8h.html" xlink:title="Common definitions and utility routines for the ArduPilot libraries. ">
<polygon fill="white" stroke="black" points="43.0938,-55.5 43.0938,-73.5 189.147,-73.5 189.147,-55.5 43.0938,-55.5"/>
<text text-anchor="middle" x="116.121" y="-61.5" font-family="Helvetica,sans-Serif" font-size="10.00">AP_Common/AP_Common.h</text>
</a>
</g>
</g>
<!-- Node1&#45;&gt;Node3 -->
<g id="edge2" class="edge"><title>Node1&#45;&gt;Node3</title>
<path fill="none" stroke="midnightblue" d="M175.489,-110.45C164.799,-102.357 148.088,-89.7042 135.116,-79.8822"/>
<polygon fill="midnightblue" stroke="midnightblue" points="136.938,-76.8713 126.852,-73.6253 132.712,-82.4521 136.938,-76.8713"/>
</g>
<!-- Node6 -->
<g id="node6" class="node"><title>Node6</title>
<g id="a_node6"><a xlink:href="$AP__HAL__Boards_8h.html" xlink:title="AP_HAL_Boards.h">
<polygon fill="white" stroke="black" points="207.15,-55.5 207.15,-73.5 307.091,-73.5 307.091,-55.5 207.15,-55.5"/>
<text text-anchor="middle" x="257.121" y="-61.5" font-family="Helvetica,sans-Serif" font-size="10.00">AP_HAL_Boards.h</text>
</a>
</g>
</g>
<!-- Node1&#45;&gt;Node6 -->
<g id="edge6" class="edge"><title>Node1&#45;&gt;Node6</title>
<path fill="none" stroke="midnightblue" d="M196.904,-110.45C207.747,-102.357 224.696,-89.7042 237.854,-79.8822"/>
<polygon fill="midnightblue" stroke="midnightblue" points="240.316,-82.412 246.236,-73.6253 236.129,-76.8025 240.316,-82.412"/>
</g>
<!-- Node7 -->
<g id="node7" class="node"><title>Node7</title>
<g id="a_node7"><a xlink:href="$AP__HAL__Namespace_8h.html" xlink:title="AP_HAL_Namespace.h">
<polygon fill="white" stroke="black" points="325.313,-55.5 325.313,-73.5 446.928,-73.5 446.928,-55.5 325.313,-55.5"/>
<text text-anchor="middle" x="386.121" y="-61.5" font-family="Helvetica,sans-Serif" font-size="10.00">AP_HAL_Namespace.h</text>
</a>
</g>
</g>
<!-- Node1&#45;&gt;Node7 -->
<g id="edge7" class="edge"><title>Node1&#45;&gt;Node7</title>
<path fill="none" stroke="midnightblue" d="M216.496,-110.45C251.104,-101.279 307.798,-86.2555 346.014,-76.1283"/>
<polygon fill="midnightblue" stroke="midnightblue" points="347.018,-79.4832 355.787,-73.5383 345.224,-72.7167 347.018,-79.4832"/>
</g>
<!-- Node3&#45;&gt;Node2 -->
<g id="edge3" class="edge"><title>Node3&#45;&gt;Node2</title>
<path fill="none" stroke="midnightblue" d="M102.148,-55.4504C87.5578,-47.0453 64.4342,-33.7241 47.1411,-23.7618"/>
<polygon fill="midnightblue" stroke="midnightblue" points="48.6371,-20.5844 38.2249,-18.6253 45.1428,-26.6499 48.6371,-20.5844"/>
</g>
<!-- Node4 -->
<g id="node4" class="node"><title>Node4</title>
<polygon fill="white" stroke="#bfbfbf" points="83.2783,-0.5 83.2783,-18.5 130.963,-18.5 130.963,-0.5 83.2783,-0.5"/>
<text text-anchor="middle" x="107.121" y="-6.5" font-family="Helvetica,sans-Serif" font-size="10.00">stdlib.h</text>
</g>
<!-- Node3&#45;&gt;Node4 -->
<g id="edge4" class="edge"><title>Node3&#45;&gt;Node4</title>
<path fill="none" stroke="midnightblue" d="M114.714,-55.2188C113.505,-48.0986 111.719,-37.5775 110.182,-28.5289"/>
<polygon fill="midnightblue" stroke="midnightblue" points="113.612,-27.8224 108.488,-18.5496 106.711,-28.9944 113.612,-27.8224"/>
</g>
<!-- Node5 -->
<g id="node5" class="node"><title>Node5</title>
<polygon fill="white" stroke="#bfbfbf" points="148.828,-0.5 148.828,-18.5 205.414,-18.5 205.414,-0.5 148.828,-0.5"/>
<text text-anchor="middle" x="177.121" y="-6.5" font-family="Helvetica,sans-Serif" font-size="10.00">stdbool.h</text>
</g>
<!-- Node3&#45;&gt;Node5 -->
<g id="edge5" class="edge"><title>Node3&#45;&gt;Node5</title>
<path fill="none" stroke="midnightblue" d="M125.385,-55.4504C134.522,-47.5123 148.705,-35.1891 159.912,-25.4519"/>
<polygon fill="midnightblue" stroke="midnightblue" points="162.516,-27.8261 167.769,-18.6253 157.925,-22.542 162.516,-27.8261"/>
</g>
<!-- Node8 -->
<g id="node8" class="node"><title>Node8</title>
<polygon fill="white" stroke="#bfbfbf" points="320.724,-0.5 320.724,-18.5 369.517,-18.5 369.517,-0.5 320.724,-0.5"/>
<text text-anchor="middle" x="345.121" y="-6.5" font-family="Helvetica,sans-Serif" font-size="10.00">string.h</text>
</g>
<!-- Node7&#45;&gt;Node8 -->
<g id="edge8" class="edge"><title>Node7&#45;&gt;Node8</title>
<path fill="none" stroke="midnightblue" d="M379.714,-55.2188C373.783,-47.5509 364.8,-35.9387 357.474,-26.4691"/>
<polygon fill="midnightblue" stroke="midnightblue" points="360.235,-24.3176 351.348,-18.5496 354.698,-28.6007 360.235,-24.3176"/>
</g>
<!-- Node9 -->
<g id="node9" class="node"><title>Node9</title>
<g id="a_node9"><a xlink:href="$functor_8h.html" xlink:title="utility/functor.h">
<polygon fill="white" stroke="black" points="387.158,-0.5 387.158,-18.5 467.083,-18.5 467.083,-0.5 387.158,-0.5"/>
<text text-anchor="middle" x="427.121" y="-6.5" font-family="Helvetica,sans-Serif" font-size="10.00">utility/functor.h</text>
</a>
</g>
</g>
<!-- Node7&#45;&gt;Node9 -->
<g id="edge9" class="edge"><title>Node7&#45;&gt;Node9</title>
<path fill="none" stroke="midnightblue" d="M392.527,-55.2188C398.459,-47.5509 407.442,-35.9387 414.767,-26.4691"/>
<polygon fill="midnightblue" stroke="midnightblue" points="417.543,-28.6007 420.894,-18.5496 412.006,-24.3176 417.543,-28.6007"/>
</g>
</g>
</svg>
