<?xml version="1.0" encoding="UTF-8" standalone="no"?>
<!DOCTYPE svg PUBLIC "-//W3C//DTD SVG 1.1//EN"
 "http://www.w3.org/Graphics/SVG/1.1/DTD/svg11.dtd">
<!-- Generated by graphviz version 2.38.0 (20140413.2041)
 -->
<!-- Title: setup Pages: 1 -->
<svg width="799pt" height="401pt"
 viewBox="0.00 0.00 799.05 401.00" xmlns="http://www.w3.org/2000/svg" xmlns:xlink="http://www.w3.org/1999/xlink">
<g id="graph0" class="graph" transform="scale(1 1) rotate(0) translate(4 397)">
<title>setup</title>
<polygon fill="white" stroke="none" points="-4,4 -4,-397 795.049,-397 795.049,4 -4,4"/>
<!-- Node1 -->
<g id="node1" class="node"><title>Node1</title>
<polygon fill="#bfbfbf" stroke="black" points="0,-173.5 0,-191.5 40.4629,-191.5 40.4629,-173.5 0,-173.5"/>
<text text-anchor="middle" x="20.2314" y="-179.5" font-family="Helvetica,sans-Serif" font-size="10.00">setup</text>
</g>
<!-- Node2 -->
<g id="node2" class="node"><title>Node2</title>
<g id="a_node2"><a xlink:href="$classAP__HAL_1_1UARTDriver.html#a65c7824b8877f7a2f79365c8ffae8f56" xlink:title="AP_HAL::UARTDriver\l::printf">
<polygon fill="white" stroke="black" points="269.471,-295.5 269.471,-323.5 383.093,-323.5 383.093,-295.5 269.471,-295.5"/>
<text text-anchor="start" x="277.471" y="-311.5" font-family="Helvetica,sans-Serif" font-size="10.00">AP_HAL::UARTDriver</text>
<text text-anchor="middle" x="326.282" y="-301.5" font-family="Helvetica,sans-Serif" font-size="10.00">::printf</text>
</a>
</g>
</g>
<!-- Node1&#45;&gt;Node2 -->
<g id="edge1" class="edge"><title>Node1&#45;&gt;Node2</title>
<path fill="none" stroke="midnightblue" d="M22.8397,-191.743C27.1335,-213.315 41.0468,-266.933 76.4629,-290.5 130.169,-326.238 205.58,-326.829 259.275,-321.07"/>
<polygon fill="midnightblue" stroke="midnightblue" points="259.851,-324.527 269.375,-319.885 259.035,-317.574 259.851,-324.527"/>
</g>
<!-- Node10 -->
<g id="node10" class="node"><title>Node10</title>
<g id="a_node10"><a xlink:href="$Semaphore_8cpp.html#ae4dec54b1f719011f6e5319f5c715f86" xlink:title="setup_pin">
<polygon fill="white" stroke="black" points="119.81,-262.5 119.81,-280.5 179.179,-280.5 179.179,-262.5 119.81,-262.5"/>
<text text-anchor="middle" x="149.495" y="-268.5" font-family="Helvetica,sans-Serif" font-size="10.00">setup_pin</text>
</a>
</g>
</g>
<!-- Node1&#45;&gt;Node10 -->
<g id="edge9" class="edge"><title>Node1&#45;&gt;Node10</title>
<path fill="none" stroke="midnightblue" d="M25.9021,-191.967C33.9955,-207.35 52.1226,-237.648 76.4629,-253.5 86.3039,-259.909 98.2638,-264.036 109.588,-266.694"/>
<polygon fill="midnightblue" stroke="midnightblue" points="109.235,-270.193 119.73,-268.745 110.622,-263.332 109.235,-270.193"/>
</g>
<!-- Node13 -->
<g id="node13" class="node"><title>Node13</title>
<g id="a_node13"><a xlink:href="$classAP__HAL_1_1SPIDeviceManager.html#a572a9273615ae0cb5fc859417161ade1" xlink:title="AP_HAL::SPIDeviceManager\l::device">
<polygon fill="white" stroke="black" points="76.4629,-215.5 76.4629,-243.5 222.526,-243.5 222.526,-215.5 76.4629,-215.5"/>
<text text-anchor="start" x="84.4629" y="-231.5" font-family="Helvetica,sans-Serif" font-size="10.00">AP_HAL::SPIDeviceManager</text>
<text text-anchor="middle" x="149.495" y="-221.5" font-family="Helvetica,sans-Serif" font-size="10.00">::device</text>
</a>
</g>
</g>
<!-- Node1&#45;&gt;Node13 -->
<g id="edge13" class="edge"><title>Node1&#45;&gt;Node13</title>
<path fill="none" stroke="midnightblue" d="M40.5199,-190.938C51.0648,-195.448 64.4001,-200.986 76.4629,-205.5 82.377,-207.713 88.6002,-209.939 94.8096,-212.094"/>
<polygon fill="midnightblue" stroke="midnightblue" points="93.9149,-215.487 104.509,-215.412 96.1804,-208.864 93.9149,-215.487"/>
</g>
<!-- Node14 -->
<g id="node14" class="node"><title>Node14</title>
<g id="a_node14"><a xlink:href="$classAP__HAL_1_1Scheduler.html#ac08c02070405b6cc1d7241025acb5101" xlink:title="AP_HAL::Scheduler::\lpanic">
<polygon fill="white" stroke="black" points="94.2461,-168.5 94.2461,-196.5 204.743,-196.5 204.743,-168.5 94.2461,-168.5"/>
<text text-anchor="start" x="102.246" y="-184.5" font-family="Helvetica,sans-Serif" font-size="10.00">AP_HAL::Scheduler::</text>
<text text-anchor="middle" x="149.495" y="-174.5" font-family="Helvetica,sans-Serif" font-size="10.00">panic</text>
</a>
</g>
</g>
<!-- Node1&#45;&gt;Node14 -->
<g id="edge14" class="edge"><title>Node1&#45;&gt;Node14</title>
<path fill="none" stroke="midnightblue" d="M40.56,-182.5C52.2531,-182.5 67.9088,-182.5 83.6625,-182.5"/>
<polygon fill="midnightblue" stroke="midnightblue" points="83.9886,-186 93.9885,-182.5 83.9885,-179 83.9886,-186"/>
</g>
<!-- Node15 -->
<g id="node15" class="node"><title>Node15</title>
<g id="a_node15"><a xlink:href="$classAP__HAL_1_1SPIDeviceDriver.html#a1c518b753148caee4d708c2311a9e548" xlink:title="AP_HAL::SPIDeviceDriver\l::get_semaphore">
<polygon fill="white" stroke="black" points="82.8643,-121.5 82.8643,-149.5 216.125,-149.5 216.125,-121.5 82.8643,-121.5"/>
<text text-anchor="start" x="90.8643" y="-137.5" font-family="Helvetica,sans-Serif" font-size="10.00">AP_HAL::SPIDeviceDriver</text>
<text text-anchor="middle" x="149.495" y="-127.5" font-family="Helvetica,sans-Serif" font-size="10.00">::get_semaphore</text>
</a>
</g>
</g>
<!-- Node1&#45;&gt;Node15 -->
<g id="edge15" class="edge"><title>Node1&#45;&gt;Node15</title>
<path fill="none" stroke="midnightblue" d="M40.7172,-173.461C51.2049,-168.741 64.4254,-163.024 76.4629,-158.5 81.6086,-156.566 86.9983,-154.649 92.4144,-152.796"/>
<polygon fill="midnightblue" stroke="midnightblue" points="93.7732,-156.032 102.145,-149.539 91.551,-149.394 93.7732,-156.032"/>
</g>
<!-- Node16 -->
<g id="node16" class="node"><title>Node16</title>
<g id="a_node16"><a xlink:href="$classAP__HAL_1_1Scheduler.html#ac2c4230957d5dbd3c2fd104af2794b4f" xlink:title="AP_HAL::Scheduler::\lregister_timer_process">
<polygon fill="white" stroke="black" points="90.6426,-74.5 90.6426,-102.5 208.347,-102.5 208.347,-74.5 90.6426,-74.5"/>
<text text-anchor="start" x="98.6426" y="-90.5" font-family="Helvetica,sans-Serif" font-size="10.00">AP_HAL::Scheduler::</text>
<text text-anchor="middle" x="149.495" y="-80.5" font-family="Helvetica,sans-Serif" font-size="10.00">register_timer_process</text>
</a>
</g>
</g>
<!-- Node1&#45;&gt;Node16 -->
<g id="edge16" class="edge"><title>Node1&#45;&gt;Node16</title>
<path fill="none" stroke="midnightblue" d="M26.019,-173.207C34.2806,-158.072 52.6439,-128.125 76.4629,-111.5 78.7067,-109.934 81.0626,-108.47 83.4975,-107.103"/>
<polygon fill="midnightblue" stroke="midnightblue" points="85.2147,-110.158 92.6006,-102.562 82.0898,-103.894 85.2147,-110.158"/>
</g>
<!-- Node17 -->
<g id="node17" class="node"><title>Node17</title>
<g id="a_node17"><a xlink:href="$Semaphore_8cpp.html#a1cfe5a3d46f00864324a4588929b353b" xlink:title="async_blinker">
<polygon fill="white" stroke="black" points="110.923,-37.5 110.923,-55.5 188.066,-55.5 188.066,-37.5 110.923,-37.5"/>
<text text-anchor="middle" x="149.495" y="-43.5" font-family="Helvetica,sans-Serif" font-size="10.00">async_blinker</text>
</a>
</g>
</g>
<!-- Node1&#45;&gt;Node17 -->
<g id="edge17" class="edge"><title>Node1&#45;&gt;Node17</title>
<path fill="none" stroke="midnightblue" d="M22.7956,-173.175C27.0574,-150.785 41.019,-93.6906 76.4629,-64.5 83.4753,-58.7248 92.086,-54.7652 100.883,-52.0592"/>
<polygon fill="midnightblue" stroke="midnightblue" points="102.005,-55.3847 110.82,-49.5068 100.264,-48.6048 102.005,-55.3847"/>
</g>
<!-- Node3 -->
<g id="node3" class="node"><title>Node3</title>
<g id="a_node3"><a xlink:href="$classAP__HAL_1_1UARTDriver.html#aa8abfb6d6641299472c29ac1edde559f" xlink:title="AP_HAL::UARTDriver\l::vprintf">
<polygon fill="white" stroke="black" points="430.038,-295.5 430.038,-323.5 543.66,-323.5 543.66,-295.5 430.038,-295.5"/>
<text text-anchor="start" x="438.038" y="-311.5" font-family="Helvetica,sans-Serif" font-size="10.00">AP_HAL::UARTDriver</text>
<text text-anchor="middle" x="486.849" y="-301.5" font-family="Helvetica,sans-Serif" font-size="10.00">::vprintf</text>
</a>
</g>
</g>
<!-- Node2&#45;&gt;Node3 -->
<g id="edge2" class="edge"><title>Node2&#45;&gt;Node3</title>
<path fill="none" stroke="midnightblue" d="M383.187,-309.5C395.029,-309.5 407.636,-309.5 419.813,-309.5"/>
<polygon fill="midnightblue" stroke="midnightblue" points="419.915,-313 429.915,-309.5 419.915,-306 419.915,-313"/>
</g>
<!-- Node4 -->
<g id="node4" class="node"><title>Node4</title>
<g id="a_node4"><a xlink:href="$print__vprintf_8cpp.html#a473b9349f4b086b552a21eb8fe057016" xlink:title="print_vprintf">
<polygon fill="white" stroke="black" points="579.66,-300.5 579.66,-318.5 647.906,-318.5 647.906,-300.5 579.66,-300.5"/>
<text text-anchor="middle" x="613.783" y="-306.5" font-family="Helvetica,sans-Serif" font-size="10.00">print_vprintf</text>
</a>
</g>
</g>
<!-- Node3&#45;&gt;Node4 -->
<g id="edge3" class="edge"><title>Node3&#45;&gt;Node4</title>
<path fill="none" stroke="midnightblue" d="M543.739,-309.5C552.327,-309.5 561.083,-309.5 569.347,-309.5"/>
<polygon fill="midnightblue" stroke="midnightblue" points="569.503,-313 579.503,-309.5 569.503,-306 569.503,-313"/>
</g>
<!-- Node5 -->
<g id="node5" class="node"><title>Node5</title>
<g id="a_node5"><a xlink:href="$classAP__HAL_1_1Print.html#acc65391952a43334f8f5c9bef341f501" xlink:title="AP_HAL::Print::write">
<polygon fill="white" stroke="black" points="683.906,-374.5 683.906,-392.5 791.049,-392.5 791.049,-374.5 683.906,-374.5"/>
<text text-anchor="middle" x="737.478" y="-380.5" font-family="Helvetica,sans-Serif" font-size="10.00">AP_HAL::Print::write</text>
</a>
</g>
</g>
<!-- Node4&#45;&gt;Node5 -->
<g id="edge4" class="edge"><title>Node4&#45;&gt;Node5</title>
<path fill="none" stroke="midnightblue" d="M623.847,-318.633C636.37,-330.806 660.122,-352.34 683.906,-365.5 687.368,-367.416 691.071,-369.18 694.847,-370.791"/>
<polygon fill="midnightblue" stroke="midnightblue" points="693.705,-374.103 704.293,-374.483 696.253,-367.583 693.705,-374.103"/>
</g>
<!-- Node6 -->
<g id="node6" class="node"><title>Node6</title>
<g id="a_node6"><a xlink:href="$ftoa__engine_8cpp.html#a1c28234da8f20b43c85890d4bb452947" xlink:title="ftoa_engine">
<polygon fill="white" stroke="black" points="703.342,-337.5 703.342,-355.5 771.613,-355.5 771.613,-337.5 703.342,-337.5"/>
<text text-anchor="middle" x="737.478" y="-343.5" font-family="Helvetica,sans-Serif" font-size="10.00">ftoa_engine</text>
</a>
</g>
</g>
<!-- Node4&#45;&gt;Node6 -->
<g id="edge5" class="edge"><title>Node4&#45;&gt;Node6</title>
<path fill="none" stroke="midnightblue" d="M644.553,-318.551C660.317,-323.344 679.886,-329.294 696.911,-334.47"/>
<polygon fill="midnightblue" stroke="midnightblue" points="696.008,-337.854 706.593,-337.414 698.044,-331.156 696.008,-337.854"/>
</g>
<!-- Node7 -->
<g id="node7" class="node"><title>Node7</title>
<g id="a_node7"><a xlink:href="$AP__Progmem_8h.html#a1514e0408e036062b4af844baaf567da" xlink:title="pgm_read_byte">
<polygon fill="white" stroke="black" points="694.731,-300.5 694.731,-318.5 780.224,-318.5 780.224,-300.5 694.731,-300.5"/>
<text text-anchor="middle" x="737.478" y="-306.5" font-family="Helvetica,sans-Serif" font-size="10.00">pgm_read_byte</text>
</a>
</g>
</g>
<!-- Node4&#45;&gt;Node7 -->
<g id="edge6" class="edge"><title>Node4&#45;&gt;Node7</title>
<path fill="none" stroke="midnightblue" d="M648.037,-309.5C659.253,-309.5 672.055,-309.5 684.37,-309.5"/>
<polygon fill="midnightblue" stroke="midnightblue" points="684.555,-313 694.555,-309.5 684.555,-306 684.555,-313"/>
</g>
<!-- Node8 -->
<g id="node8" class="node"><title>Node8</title>
<g id="a_node8"><a xlink:href="$utoa__invert_8cpp.html#a34926f552460b47c414ec4d83b32815c" xlink:title="ulltoa_invert">
<polygon fill="white" stroke="black" points="702.517,-263.5 702.517,-281.5 772.438,-281.5 772.438,-263.5 702.517,-263.5"/>
<text text-anchor="middle" x="737.478" y="-269.5" font-family="Helvetica,sans-Serif" font-size="10.00">ulltoa_invert</text>
</a>
</g>
</g>
<!-- Node4&#45;&gt;Node8 -->
<g id="edge7" class="edge"><title>Node4&#45;&gt;Node8</title>
<path fill="none" stroke="midnightblue" d="M644.553,-300.449C660.317,-295.656 679.886,-289.706 696.911,-284.53"/>
<polygon fill="midnightblue" stroke="midnightblue" points="698.044,-287.844 706.593,-281.586 696.008,-281.146 698.044,-287.844"/>
</g>
<!-- Node9 -->
<g id="node9" class="node"><title>Node9</title>
<g id="a_node9"><a xlink:href="$utoa__invert_8cpp.html#a5d99bba8e697c1e11da489d88fca8559" xlink:title="ultoa_invert">
<polygon fill="white" stroke="black" points="703.628,-226.5 703.628,-244.5 771.327,-244.5 771.327,-226.5 703.628,-226.5"/>
<text text-anchor="middle" x="737.478" y="-232.5" font-family="Helvetica,sans-Serif" font-size="10.00">ultoa_invert</text>
</a>
</g>
</g>
<!-- Node4&#45;&gt;Node9 -->
<g id="edge8" class="edge"><title>Node4&#45;&gt;Node9</title>
<path fill="none" stroke="midnightblue" d="M624.346,-300.192C637.049,-288.246 660.61,-267.514 683.906,-254.5 687.923,-252.256 692.254,-250.192 696.647,-248.318"/>
<polygon fill="midnightblue" stroke="midnightblue" points="698.245,-251.45 706.261,-244.522 695.674,-244.939 698.245,-251.45"/>
</g>
<!-- Node10&#45;&gt;Node2 -->
<g id="edge10" class="edge"><title>Node10&#45;&gt;Node2</title>
<path fill="none" stroke="midnightblue" d="M179.357,-277.775C201.033,-282.487 231.599,-289.133 259.16,-295.124"/>
<polygon fill="midnightblue" stroke="midnightblue" points="258.64,-298.593 269.156,-297.298 260.127,-291.753 258.64,-298.593"/>
</g>
<!-- Node11 -->
<g id="node11" class="node"><title>Node11</title>
<g id="a_node11"><a xlink:href="$classAP__HAL_1_1GPIO.html#a3dfc60214bd1aa4936d51ca72c045b95" xlink:title="AP_HAL::GPIO::pinMode">
<polygon fill="white" stroke="black" points="261.866,-258.5 261.866,-276.5 390.698,-276.5 390.698,-258.5 261.866,-258.5"/>
<text text-anchor="middle" x="326.282" y="-264.5" font-family="Helvetica,sans-Serif" font-size="10.00">AP_HAL::GPIO::pinMode</text>
</a>
</g>
</g>
<!-- Node10&#45;&gt;Node11 -->
<g id="edge11" class="edge"><title>Node10&#45;&gt;Node11</title>
<path fill="none" stroke="midnightblue" d="M179.357,-270.839C199.045,-270.389 226.067,-269.771 251.511,-269.188"/>
<polygon fill="midnightblue" stroke="midnightblue" points="251.621,-272.687 261.539,-268.959 251.461,-265.689 251.621,-272.687"/>
</g>
<!-- Node12 -->
<g id="node12" class="node"><title>Node12</title>
<g id="a_node12"><a xlink:href="$classAP__HAL_1_1GPIO.html#a2b0664bdab1876e3b0bbcd9064eec88e" xlink:title="AP_HAL::GPIO::write">
<polygon fill="white" stroke="black" points="431.056,-74.5 431.056,-92.5 542.642,-92.5 542.642,-74.5 431.056,-74.5"/>
<text text-anchor="middle" x="486.849" y="-80.5" font-family="Helvetica,sans-Serif" font-size="10.00">AP_HAL::GPIO::write</text>
</a>
</g>
</g>
<!-- Node10&#45;&gt;Node12 -->
<g id="edge12" class="edge"><title>Node10&#45;&gt;Node12</title>
<path fill="none" stroke="midnightblue" d="M179.189,-266.427C192.655,-263.521 208.737,-259.283 222.526,-253.5 321.845,-211.847 424.988,-132.986 466.675,-99.3476"/>
<polygon fill="midnightblue" stroke="midnightblue" points="469.068,-101.913 474.615,-92.8856 464.649,-96.4836 469.068,-101.913"/>
</g>
<!-- Node18 -->
<g id="node18" class="node"><title>Node18</title>
<g id="a_node18"><a xlink:href="$classAP__HAL_1_1Semaphore.html#a266e91db5eecb64d8b934d09f5e972cf" xlink:title="AP_HAL::Semaphore::\ltake_nonblocking">
<polygon fill="white" stroke="black" points="267.699,-111.5 267.699,-139.5 384.866,-139.5 384.866,-111.5 267.699,-111.5"/>
<text text-anchor="start" x="275.699" y="-127.5" font-family="Helvetica,sans-Serif" font-size="10.00">AP_HAL::Semaphore::</text>
<text text-anchor="middle" x="326.282" y="-117.5" font-family="Helvetica,sans-Serif" font-size="10.00">take_nonblocking</text>
</a>
</g>
</g>
<!-- Node17&#45;&gt;Node18 -->
<g id="edge18" class="edge"><title>Node17&#45;&gt;Node18</title>
<path fill="none" stroke="midnightblue" d="M188.276,-51.8298C199.787,-54.513 212.135,-58.5229 222.526,-64.5 242.415,-75.9398 239.236,-89.078 258.526,-101.5 261.662,-103.519 264.99,-105.396 268.42,-107.137"/>
<polygon fill="midnightblue" stroke="midnightblue" points="267.136,-110.399 277.68,-111.429 270.08,-104.048 267.136,-110.399"/>
</g>
<!-- Node19 -->
<g id="node19" class="node"><title>Node19</title>
<g id="a_node19"><a xlink:href="$Semaphore_8cpp.html#ad26eab0db2acba1e252c0f9db67a2551" xlink:title="blink_a0">
<polygon fill="white" stroke="black" points="299.657,-74.5 299.657,-92.5 352.908,-92.5 352.908,-74.5 299.657,-74.5"/>
<text text-anchor="middle" x="326.282" y="-80.5" font-family="Helvetica,sans-Serif" font-size="10.00">blink_a0</text>
</a>
</g>
</g>
<!-- Node17&#45;&gt;Node19 -->
<g id="edge19" class="edge"><title>Node17&#45;&gt;Node19</title>
<path fill="none" stroke="midnightblue" d="M188.421,-54.5284C218.509,-60.8976 260.26,-69.7357 289.715,-75.9709"/>
<polygon fill="midnightblue" stroke="midnightblue" points="289.073,-79.4126 299.581,-78.0595 290.523,-72.5643 289.073,-79.4126"/>
</g>
<!-- Node20 -->
<g id="node20" class="node"><title>Node20</title>
<g id="a_node20"><a xlink:href="$classAP__HAL_1_1Semaphore.html#afcdbf03d5bea9d83037acc93bfaea7ce" xlink:title="AP_HAL::Semaphore::give">
<polygon fill="white" stroke="black" points="258.526,-37.5 258.526,-55.5 394.038,-55.5 394.038,-37.5 258.526,-37.5"/>
<text text-anchor="middle" x="326.282" y="-43.5" font-family="Helvetica,sans-Serif" font-size="10.00">AP_HAL::Semaphore::give</text>
</a>
</g>
</g>
<!-- Node17&#45;&gt;Node20 -->
<g id="edge21" class="edge"><title>Node17&#45;&gt;Node20</title>
<path fill="none" stroke="midnightblue" d="M188.421,-46.5C206.023,-46.5 227.617,-46.5 248.405,-46.5"/>
<polygon fill="midnightblue" stroke="midnightblue" points="248.525,-50.0001 258.525,-46.5 248.525,-43.0001 248.525,-50.0001"/>
</g>
<!-- Node21 -->
<g id="node21" class="node"><title>Node21</title>
<g id="a_node21"><a xlink:href="$Semaphore_8cpp.html#acfa4efd9b979fe95ceabbbd93a87e540" xlink:title="blink_a1">
<polygon fill="white" stroke="black" points="299.657,-0.5 299.657,-18.5 352.908,-18.5 352.908,-0.5 299.657,-0.5"/>
<text text-anchor="middle" x="326.282" y="-6.5" font-family="Helvetica,sans-Serif" font-size="10.00">blink_a1</text>
</a>
</g>
</g>
<!-- Node17&#45;&gt;Node21 -->
<g id="edge22" class="edge"><title>Node17&#45;&gt;Node21</title>
<path fill="none" stroke="midnightblue" d="M188.421,-38.4716C218.509,-32.1024 260.26,-23.2643 289.715,-17.0291"/>
<polygon fill="midnightblue" stroke="midnightblue" points="290.523,-20.4357 299.581,-14.9405 289.073,-13.5874 290.523,-20.4357"/>
</g>
<!-- Node19&#45;&gt;Node12 -->
<g id="edge20" class="edge"><title>Node19&#45;&gt;Node12</title>
<path fill="none" stroke="midnightblue" d="M353.112,-83.5C371.464,-83.5 396.969,-83.5 420.722,-83.5"/>
<polygon fill="midnightblue" stroke="midnightblue" points="420.768,-87.0001 430.768,-83.5 420.768,-80.0001 420.768,-87.0001"/>
</g>
<!-- Node21&#45;&gt;Node12 -->
<g id="edge23" class="edge"><title>Node21&#45;&gt;Node12</title>
<path fill="none" stroke="midnightblue" d="M353.217,-14.6812C365.823,-17.6512 381.023,-21.9121 394.038,-27.5 419.751,-38.5394 446.825,-55.8469 464.853,-68.2993"/>
<polygon fill="midnightblue" stroke="midnightblue" points="463.208,-71.4209 473.401,-74.3097 467.234,-65.6947 463.208,-71.4209"/>
</g>
</g>
</svg>
