<?xml version="1.0" encoding="UTF-8" standalone="no"?>
<!DOCTYPE svg PUBLIC "-//W3C//DTD SVG 1.1//EN"
 "http://www.w3.org/Graphics/SVG/1.1/DTD/svg11.dtd">
<!-- Generated by graphviz version 2.38.0 (20140413.2041)
 -->
<!-- Title: loop Pages: 1 -->
<svg width="363pt" height="138pt"
 viewBox="0.00 0.00 362.56 138.00" xmlns="http://www.w3.org/2000/svg" xmlns:xlink="http://www.w3.org/1999/xlink">
<g id="graph0" class="graph" transform="scale(1 1) rotate(0) translate(4 134)">
<title>loop</title>
<polygon fill="white" stroke="none" points="-4,4 -4,-134 358.561,-134 358.561,4 -4,4"/>
<!-- Node1 -->
<g id="node1" class="node"><title>Node1</title>
<polygon fill="#bfbfbf" stroke="black" points="0,-55.5 0,-73.5 34.9062,-73.5 34.9062,-55.5 0,-55.5"/>
<text text-anchor="middle" x="17.4531" y="-61.5" font-family="Helvetica,sans-Serif" font-size="10.00">loop</text>
</g>
<!-- Node2 -->
<g id="node2" class="node"><title>Node2</title>
<g id="a_node2"><a xlink:href="$classAP__HAL_1_1Semaphore.html#abd3a0affad8bb211981a979f30386589" xlink:title="AP_HAL::Semaphore::take">
<polygon fill="white" stroke="black" points="70.9062,-111.5 70.9062,-129.5 206.975,-129.5 206.975,-111.5 70.9062,-111.5"/>
<text text-anchor="middle" x="138.94" y="-117.5" font-family="Helvetica,sans-Serif" font-size="10.00">AP_HAL::Semaphore::take</text>
</a>
</g>
</g>
<!-- Node1&#45;&gt;Node2 -->
<g id="edge1" class="edge"><title>Node1&#45;&gt;Node2</title>
<path fill="none" stroke="midnightblue" d="M28.5767,-73.5828C38.6455,-82.1739 54.8667,-94.8577 70.9062,-102.5 75.4803,-104.679 80.3602,-106.628 85.322,-108.364"/>
<polygon fill="midnightblue" stroke="midnightblue" points="84.3148,-111.717 94.9061,-111.443 86.4559,-105.052 84.3148,-111.717"/>
</g>
<!-- Node3 -->
<g id="node3" class="node"><title>Node3</title>
<g id="a_node3"><a xlink:href="$Semaphore_8cpp.html#aa7111f1280e1d20089f2e1e4fd73f25e" xlink:title="blink_a2">
<polygon fill="white" stroke="black" points="112.315,-74.5 112.315,-92.5 165.566,-92.5 165.566,-74.5 112.315,-74.5"/>
<text text-anchor="middle" x="138.94" y="-80.5" font-family="Helvetica,sans-Serif" font-size="10.00">blink_a2</text>
</a>
</g>
</g>
<!-- Node1&#45;&gt;Node3 -->
<g id="edge2" class="edge"><title>Node1&#45;&gt;Node3</title>
<path fill="none" stroke="midnightblue" d="M35.0673,-67.1419C52.3389,-69.8883 79.9079,-74.2721 102.16,-77.8105"/>
<polygon fill="midnightblue" stroke="midnightblue" points="101.845,-81.3043 112.271,-79.4182 102.944,-74.3911 101.845,-81.3043"/>
</g>
<!-- Node5 -->
<g id="node5" class="node"><title>Node5</title>
<g id="a_node5"><a xlink:href="$classAP__HAL_1_1Semaphore.html#afcdbf03d5bea9d83037acc93bfaea7ce" xlink:title="AP_HAL::Semaphore::give">
<polygon fill="white" stroke="black" points="71.1846,-37.5 71.1846,-55.5 206.696,-55.5 206.696,-37.5 71.1846,-37.5"/>
<text text-anchor="middle" x="138.94" y="-43.5" font-family="Helvetica,sans-Serif" font-size="10.00">AP_HAL::Semaphore::give</text>
</a>
</g>
</g>
<!-- Node1&#45;&gt;Node5 -->
<g id="edge4" class="edge"><title>Node1&#45;&gt;Node5</title>
<path fill="none" stroke="midnightblue" d="M35.0673,-61.9972C44.0232,-60.648 55.7479,-58.8818 68.0644,-57.0264"/>
<polygon fill="midnightblue" stroke="midnightblue" points="68.6602,-60.4762 78.0272,-55.5255 67.6174,-53.5543 68.6602,-60.4762"/>
</g>
<!-- Node6 -->
<g id="node6" class="node"><title>Node6</title>
<g id="a_node6"><a xlink:href="$Semaphore_8cpp.html#a6d72fc68f0df4276eb0415cfabfe389c" xlink:title="blink_a3">
<polygon fill="white" stroke="black" points="112.315,-0.5 112.315,-18.5 165.566,-18.5 165.566,-0.5 112.315,-0.5"/>
<text text-anchor="middle" x="138.94" y="-6.5" font-family="Helvetica,sans-Serif" font-size="10.00">blink_a3</text>
</a>
</g>
</g>
<!-- Node1&#45;&gt;Node6 -->
<g id="edge5" class="edge"><title>Node1&#45;&gt;Node6</title>
<path fill="none" stroke="midnightblue" d="M29.4655,-55.3509C39.6548,-47.2866 55.5088,-35.727 70.9062,-28.5 80.6792,-23.9129 91.7855,-20.2149 102.108,-17.3435"/>
<polygon fill="midnightblue" stroke="midnightblue" points="103.294,-20.6515 112.09,-14.7454 101.531,-13.8772 103.294,-20.6515"/>
</g>
<!-- Node4 -->
<g id="node4" class="node"><title>Node4</title>
<g id="a_node4"><a xlink:href="$classAP__HAL_1_1GPIO.html#a2b0664bdab1876e3b0bbcd9064eec88e" xlink:title="AP_HAL::GPIO::write">
<polygon fill="white" stroke="black" points="242.975,-37.5 242.975,-55.5 354.561,-55.5 354.561,-37.5 242.975,-37.5"/>
<text text-anchor="middle" x="298.768" y="-43.5" font-family="Helvetica,sans-Serif" font-size="10.00">AP_HAL::GPIO::write</text>
</a>
</g>
</g>
<!-- Node3&#45;&gt;Node4 -->
<g id="edge3" class="edge"><title>Node3&#45;&gt;Node4</title>
<path fill="none" stroke="midnightblue" d="M165.649,-77.473C188.21,-72.1841 221.63,-64.3493 249.211,-57.8832"/>
<polygon fill="midnightblue" stroke="midnightblue" points="250.141,-61.2602 259.078,-55.5701 248.543,-54.445 250.141,-61.2602"/>
</g>
<!-- Node6&#45;&gt;Node4 -->
<g id="edge6" class="edge"><title>Node6&#45;&gt;Node4</title>
<path fill="none" stroke="midnightblue" d="M165.649,-15.527C188.21,-20.8159 221.63,-28.6507 249.211,-35.1168"/>
<polygon fill="midnightblue" stroke="midnightblue" points="248.543,-38.555 259.078,-37.4299 250.141,-31.7398 248.543,-38.555"/>
</g>
</g>
</svg>
