<?xml version="1.0" encoding="UTF-8" standalone="no"?>
<!DOCTYPE svg PUBLIC "-//W3C//DTD SVG 1.1//EN"
 "http://www.w3.org/Graphics/SVG/1.1/DTD/svg11.dtd">
<!-- Generated by graphviz version 2.38.0 (20140413.2041)
 -->
<!-- Title: blink_a0 Pages: 1 -->
<svg width="251pt" height="27pt"
 viewBox="0.00 0.00 250.86 27.00" xmlns="http://www.w3.org/2000/svg" xmlns:xlink="http://www.w3.org/1999/xlink">
<g id="graph0" class="graph" transform="scale(1 1) rotate(0) translate(4 23)">
<title>blink_a0</title>
<polygon fill="white" stroke="none" points="-4,4 -4,-23 246.856,-23 246.856,4 -4,4"/>
<!-- Node1 -->
<g id="node1" class="node"><title>Node1</title>
<polygon fill="#bfbfbf" stroke="black" points="0,-0.5 0,-18.5 53.251,-18.5 53.251,-0.5 0,-0.5"/>
<text text-anchor="middle" x="26.6255" y="-6.5" font-family="Helvetica,sans-Serif" font-size="10.00">blink_a0</text>
</g>
<!-- Node2 -->
<g id="node2" class="node"><title>Node2</title>
<g id="a_node2"><a xlink:href="$Semaphore_8cpp.html#a1cfe5a3d46f00864324a4588929b353b" xlink:title="async_blinker">
<polygon fill="white" stroke="black" points="89.251,-0.5 89.251,-18.5 166.394,-18.5 166.394,-0.5 89.251,-0.5"/>
<text text-anchor="middle" x="127.822" y="-6.5" font-family="Helvetica,sans-Serif" font-size="10.00">async_blinker</text>
</a>
</g>
</g>
<!-- Node1&#45;&gt;Node2 -->
<g id="edge1" class="edge"><title>Node1&#45;&gt;Node2</title>
<path fill="none" stroke="midnightblue" d="M63.597,-9.5C71.9203,-9.5 80.7987,-9.5 89.1909,-9.5"/>
<polygon fill="midnightblue" stroke="midnightblue" points="63.4294,-6.0001 53.4293,-9.5 63.4293,-13.0001 63.4294,-6.0001"/>
</g>
<!-- Node3 -->
<g id="node3" class="node"><title>Node3</title>
<g id="a_node3"><a xlink:href="$Semaphore_8cpp.html#a7dfd9b79bc5a37d7df40207afbc5431f" xlink:title="setup">
<polygon fill="white" stroke="black" points="202.394,-0.5 202.394,-18.5 242.856,-18.5 242.856,-0.5 202.394,-0.5"/>
<text text-anchor="middle" x="222.625" y="-6.5" font-family="Helvetica,sans-Serif" font-size="10.00">setup</text>
</a>
</g>
</g>
<!-- Node2&#45;&gt;Node3 -->
<g id="edge2" class="edge"><title>Node2&#45;&gt;Node3</title>
<path fill="none" stroke="midnightblue" d="M176.727,-9.5C185.76,-9.5 194.717,-9.5 202.227,-9.5"/>
<polygon fill="midnightblue" stroke="midnightblue" points="176.569,-6.0001 166.569,-9.5 176.569,-13.0001 176.569,-6.0001"/>
</g>
</g>
</svg>
