<?xml version="1.0" encoding="UTF-8" standalone="no"?>
<!DOCTYPE svg PUBLIC "-//W3C//DTD SVG 1.1//EN"
 "http://www.w3.org/Graphics/SVG/1.1/DTD/svg11.dtd">
<!-- Generated by graphviz version 2.38.0 (20140413.2041)
 -->
<!-- Title: libraries/AP_HAL/Semaphores.h Pages: 1 -->
<svg width="169pt" height="137pt"
 viewBox="0.00 0.00 168.94 137.00" xmlns="http://www.w3.org/2000/svg" xmlns:xlink="http://www.w3.org/1999/xlink">
<g id="graph0" class="graph" transform="scale(1 1) rotate(0) translate(4 133)">
<title>libraries/AP_HAL/Semaphores.h</title>
<polygon fill="white" stroke="none" points="-4,4 -4,-133 164.943,-133 164.943,4 -4,4"/>
<!-- Node1 -->
<g id="node1" class="node"><title>Node1</title>
<polygon fill="#bfbfbf" stroke="black" points="0,-110.5 0,-128.5 159.96,-128.5 159.96,-110.5 0,-110.5"/>
<text text-anchor="middle" x="79.98" y="-116.5" font-family="Helvetica,sans-Serif" font-size="10.00">libraries/AP_HAL/Semaphores.h</text>
</g>
<!-- Node2 -->
<g id="node2" class="node"><title>Node2</title>
<g id="a_node2"><a xlink:href="$AP__HAL__Namespace_8h.html" xlink:title="AP_HAL_Namespace.h">
<polygon fill="white" stroke="black" points="19.1724,-55.5 19.1724,-73.5 140.788,-73.5 140.788,-55.5 19.1724,-55.5"/>
<text text-anchor="middle" x="79.98" y="-61.5" font-family="Helvetica,sans-Serif" font-size="10.00">AP_HAL_Namespace.h</text>
</a>
</g>
</g>
<!-- Node1&#45;&gt;Node2 -->
<g id="edge1" class="edge"><title>Node1&#45;&gt;Node2</title>
<path fill="none" stroke="midnightblue" d="M79.98,-110.219C79.98,-103.177 79.98,-92.8083 79.98,-83.8277"/>
<polygon fill="midnightblue" stroke="midnightblue" points="83.4801,-83.5495 79.98,-73.5496 76.4801,-83.5496 83.4801,-83.5495"/>
</g>
<!-- Node3 -->
<g id="node3" class="node"><title>Node3</title>
<polygon fill="white" stroke="#bfbfbf" points="14.5835,-0.5 14.5835,-18.5 63.3765,-18.5 63.3765,-0.5 14.5835,-0.5"/>
<text text-anchor="middle" x="38.98" y="-6.5" font-family="Helvetica,sans-Serif" font-size="10.00">string.h</text>
</g>
<!-- Node2&#45;&gt;Node3 -->
<g id="edge2" class="edge"><title>Node2&#45;&gt;Node3</title>
<path fill="none" stroke="midnightblue" d="M73.5737,-55.2188C67.642,-47.5509 58.659,-35.9387 51.3335,-26.4691"/>
<polygon fill="midnightblue" stroke="midnightblue" points="54.0941,-24.3176 45.207,-18.5496 48.5574,-28.6007 54.0941,-24.3176"/>
</g>
<!-- Node4 -->
<g id="node4" class="node"><title>Node4</title>
<g id="a_node4"><a xlink:href="$functor_8h.html" xlink:title="utility/functor.h">
<polygon fill="white" stroke="black" points="81.0171,-0.5 81.0171,-18.5 160.943,-18.5 160.943,-0.5 81.0171,-0.5"/>
<text text-anchor="middle" x="120.98" y="-6.5" font-family="Helvetica,sans-Serif" font-size="10.00">utility/functor.h</text>
</a>
</g>
</g>
<!-- Node2&#45;&gt;Node4 -->
<g id="edge3" class="edge"><title>Node2&#45;&gt;Node4</title>
<path fill="none" stroke="midnightblue" d="M86.3862,-55.2188C92.318,-47.5509 101.301,-35.9387 108.627,-26.4691"/>
<polygon fill="midnightblue" stroke="midnightblue" points="111.403,-28.6007 114.753,-18.5496 105.866,-24.3176 111.403,-28.6007"/>
</g>
</g>
</svg>
