<?xml version="1.0" encoding="UTF-8" standalone="no"?>
<!DOCTYPE svg PUBLIC "-//W3C//DTD SVG 1.1//EN"
 "http://www.w3.org/Graphics/SVG/1.1/DTD/svg11.dtd">
<!-- Generated by graphviz version 2.38.0 (20140413.2041)
 -->
<!-- Title: async_blinker Pages: 1 -->
<svg width="404pt" height="148pt"
 viewBox="0.00 0.00 404.24 148.00" xmlns="http://www.w3.org/2000/svg" xmlns:xlink="http://www.w3.org/1999/xlink">
<g id="graph0" class="graph" transform="scale(1 1) rotate(0) translate(4 144)">
<title>async_blinker</title>
<polygon fill="white" stroke="none" points="-4,4 -4,-144 400.24,-144 400.24,4 -4,4"/>
<!-- Node1 -->
<g id="node1" class="node"><title>Node1</title>
<polygon fill="#bfbfbf" stroke="black" points="0,-55.5 0,-73.5 77.1426,-73.5 77.1426,-55.5 0,-55.5"/>
<text text-anchor="middle" x="38.5713" y="-61.5" font-family="Helvetica,sans-Serif" font-size="10.00">async_blinker</text>
</g>
<!-- Node2 -->
<g id="node2" class="node"><title>Node2</title>
<g id="a_node2"><a xlink:href="$classAP__HAL_1_1Semaphore.html#a266e91db5eecb64d8b934d09f5e972cf" xlink:title="AP_HAL::Semaphore::\ltake_nonblocking">
<polygon fill="white" stroke="black" points="122.315,-111.5 122.315,-139.5 239.482,-139.5 239.482,-111.5 122.315,-111.5"/>
<text text-anchor="start" x="130.315" y="-127.5" font-family="Helvetica,sans-Serif" font-size="10.00">AP_HAL::Semaphore::</text>
<text text-anchor="middle" x="180.898" y="-117.5" font-family="Helvetica,sans-Serif" font-size="10.00">take_nonblocking</text>
</a>
</g>
</g>
<!-- Node1&#45;&gt;Node2 -->
<g id="edge1" class="edge"><title>Node1&#45;&gt;Node2</title>
<path fill="none" stroke="midnightblue" d="M55.6091,-73.643C70.299,-81.809 92.7884,-93.7914 113.143,-102.5 117.492,-104.361 122.047,-106.184 126.647,-107.937"/>
<polygon fill="midnightblue" stroke="midnightblue" points="125.508,-111.247 136.101,-111.429 127.934,-104.681 125.508,-111.247"/>
</g>
<!-- Node3 -->
<g id="node3" class="node"><title>Node3</title>
<g id="a_node3"><a xlink:href="$Semaphore_8cpp.html#ad26eab0db2acba1e252c0f9db67a2551" xlink:title="blink_a0">
<polygon fill="white" stroke="black" points="154.273,-74.5 154.273,-92.5 207.524,-92.5 207.524,-74.5 154.273,-74.5"/>
<text text-anchor="middle" x="180.898" y="-80.5" font-family="Helvetica,sans-Serif" font-size="10.00">blink_a0</text>
</a>
</g>
</g>
<!-- Node1&#45;&gt;Node3 -->
<g id="edge2" class="edge"><title>Node1&#45;&gt;Node3</title>
<path fill="none" stroke="midnightblue" d="M77.1764,-69.5917C97.9166,-72.3998 123.534,-75.8683 143.997,-78.6391"/>
<polygon fill="midnightblue" stroke="midnightblue" points="143.796,-82.1437 154.176,-80.0172 144.736,-75.207 143.796,-82.1437"/>
</g>
<!-- Node5 -->
<g id="node5" class="node"><title>Node5</title>
<g id="a_node5"><a xlink:href="$classAP__HAL_1_1Semaphore.html#afcdbf03d5bea9d83037acc93bfaea7ce" xlink:title="AP_HAL::Semaphore::give">
<polygon fill="white" stroke="black" points="113.143,-37.5 113.143,-55.5 248.654,-55.5 248.654,-37.5 113.143,-37.5"/>
<text text-anchor="middle" x="180.898" y="-43.5" font-family="Helvetica,sans-Serif" font-size="10.00">AP_HAL::Semaphore::give</text>
</a>
</g>
</g>
<!-- Node1&#45;&gt;Node5 -->
<g id="edge4" class="edge"><title>Node1&#45;&gt;Node5</title>
<path fill="none" stroke="midnightblue" d="M77.1764,-59.6763C85.1985,-58.6473 93.9501,-57.5247 102.851,-56.383"/>
<polygon fill="midnightblue" stroke="midnightblue" points="103.459,-59.8337 112.933,-55.0898 102.569,-52.8906 103.459,-59.8337"/>
</g>
<!-- Node6 -->
<g id="node6" class="node"><title>Node6</title>
<g id="a_node6"><a xlink:href="$Semaphore_8cpp.html#acfa4efd9b979fe95ceabbbd93a87e540" xlink:title="blink_a1">
<polygon fill="white" stroke="black" points="154.273,-0.5 154.273,-18.5 207.524,-18.5 207.524,-0.5 154.273,-0.5"/>
<text text-anchor="middle" x="180.898" y="-6.5" font-family="Helvetica,sans-Serif" font-size="10.00">blink_a1</text>
</a>
</g>
</g>
<!-- Node1&#45;&gt;Node6 -->
<g id="edge5" class="edge"><title>Node1&#45;&gt;Node6</title>
<path fill="none" stroke="midnightblue" d="M55.8515,-55.4895C70.5169,-47.6274 92.8285,-36.2899 113.143,-28.5 123.1,-24.6817 134.15,-21.2327 144.349,-18.354"/>
<polygon fill="midnightblue" stroke="midnightblue" points="145.462,-21.6783 154.191,-15.6728 143.622,-14.9244 145.462,-21.6783"/>
</g>
<!-- Node4 -->
<g id="node4" class="node"><title>Node4</title>
<g id="a_node4"><a xlink:href="$classAP__HAL_1_1GPIO.html#a2b0664bdab1876e3b0bbcd9064eec88e" xlink:title="AP_HAL::GPIO::write">
<polygon fill="white" stroke="black" points="284.654,-37.5 284.654,-55.5 396.24,-55.5 396.24,-37.5 284.654,-37.5"/>
<text text-anchor="middle" x="340.447" y="-43.5" font-family="Helvetica,sans-Serif" font-size="10.00">AP_HAL::GPIO::write</text>
</a>
</g>
</g>
<!-- Node3&#45;&gt;Node4 -->
<g id="edge3" class="edge"><title>Node3&#45;&gt;Node4</title>
<path fill="none" stroke="midnightblue" d="M207.562,-77.473C230.083,-72.1841 263.443,-64.3493 290.977,-57.8832"/>
<polygon fill="midnightblue" stroke="midnightblue" points="291.891,-61.2637 300.826,-55.5701 290.291,-54.4491 291.891,-61.2637"/>
</g>
<!-- Node6&#45;&gt;Node4 -->
<g id="edge6" class="edge"><title>Node6&#45;&gt;Node4</title>
<path fill="none" stroke="midnightblue" d="M207.562,-15.527C230.083,-20.8159 263.443,-28.6507 290.977,-35.1168"/>
<polygon fill="midnightblue" stroke="midnightblue" points="290.291,-38.5509 300.826,-37.4299 291.891,-31.7363 290.291,-38.5509"/>
</g>
</g>
</svg>
