<?xml version="1.0" encoding="UTF-8" standalone="no"?>
<!DOCTYPE svg PUBLIC "-//W3C//DTD SVG 1.1//EN"
 "http://www.w3.org/Graphics/SVG/1.1/DTD/svg11.dtd">
<!-- Generated by graphviz version 2.38.0 (20140413.2041)
 -->
<!-- Title: libraries/AP_HAL_Linux/SerialDevice.h Pages: 1 -->
<svg width="130pt" height="92pt"
 viewBox="0.00 0.00 129.61 92.00" xmlns="http://www.w3.org/2000/svg" xmlns:xlink="http://www.w3.org/1999/xlink">
<g id="graph0" class="graph" transform="scale(1 1) rotate(0) translate(4 88)">
<title>libraries/AP_HAL_Linux/SerialDevice.h</title>
<polygon fill="white" stroke="none" points="-4,4 -4,-88 125.61,-88 125.61,4 -4,4"/>
<!-- Node1 -->
<g id="node1" class="node"><title>Node1</title>
<polygon fill="#bfbfbf" stroke="black" points="0,-55.5 0,-83.5 121.61,-83.5 121.61,-55.5 0,-55.5"/>
<text text-anchor="start" x="8" y="-71.5" font-family="Helvetica,sans-Serif" font-size="10.00">libraries/AP_HAL_Linux</text>
<text text-anchor="middle" x="60.8052" y="-61.5" font-family="Helvetica,sans-Serif" font-size="10.00">/SerialDevice.h</text>
</g>
<!-- Node2 -->
<g id="node2" class="node"><title>Node2</title>
<polygon fill="white" stroke="#bfbfbf" points="3.68457,-0.5 3.68457,-18.5 51.9258,-18.5 51.9258,-0.5 3.68457,-0.5"/>
<text text-anchor="middle" x="27.8052" y="-6.5" font-family="Helvetica,sans-Serif" font-size="10.00">stdint.h</text>
</g>
<!-- Node1&#45;&gt;Node2 -->
<g id="edge1" class="edge"><title>Node1&#45;&gt;Node2</title>
<path fill="none" stroke="midnightblue" d="M53.317,-55.3389C48.6247,-47.0918 42.5298,-36.3796 37.474,-27.4937"/>
<polygon fill="midnightblue" stroke="midnightblue" points="40.4987,-25.7323 32.5114,-18.7715 34.4146,-29.194 40.4987,-25.7323"/>
</g>
<!-- Node3 -->
<g id="node3" class="node"><title>Node3</title>
<polygon fill="white" stroke="#bfbfbf" points="69.9629,-0.5 69.9629,-18.5 117.647,-18.5 117.647,-0.5 69.9629,-0.5"/>
<text text-anchor="middle" x="93.8052" y="-6.5" font-family="Helvetica,sans-Serif" font-size="10.00">stdlib.h</text>
</g>
<!-- Node1&#45;&gt;Node3 -->
<g id="edge2" class="edge"><title>Node1&#45;&gt;Node3</title>
<path fill="none" stroke="midnightblue" d="M68.2934,-55.3389C72.9857,-47.0918 79.0806,-36.3796 84.1364,-27.4937"/>
<polygon fill="midnightblue" stroke="midnightblue" points="87.1958,-29.194 89.099,-18.7715 81.1116,-25.7323 87.1958,-29.194"/>
</g>
</g>
</svg>
