<?xml version="1.0" encoding="UTF-8" standalone="no"?>
<!DOCTYPE svg PUBLIC "-//W3C//DTD SVG 1.1//EN"
 "http://www.w3.org/Graphics/SVG/1.1/DTD/svg11.dtd">
<!-- Generated by graphviz version 2.38.0 (20140413.2041)
 -->
<!-- Title: libraries/AP_HAL_Linux/SerialDevice.h Pages: 1 -->
<svg width="1131pt" height="297pt"
 viewBox="0.00 0.00 1130.61 297.00" xmlns="http://www.w3.org/2000/svg" xmlns:xlink="http://www.w3.org/1999/xlink">
<g id="graph0" class="graph" transform="scale(1 1) rotate(0) translate(4 293)">
<title>libraries/AP_HAL_Linux/SerialDevice.h</title>
<polygon fill="white" stroke="none" points="-4,4 -4,-293 1126.61,-293 1126.61,4 -4,4"/>
<!-- Node1 -->
<g id="node1" class="node"><title>Node1</title>
<polygon fill="#bfbfbf" stroke="black" points="581,-260.5 581,-288.5 702.61,-288.5 702.61,-260.5 581,-260.5"/>
<text text-anchor="start" x="589" y="-276.5" font-family="Helvetica,sans-Serif" font-size="10.00">libraries/AP_HAL_Linux</text>
<text text-anchor="middle" x="641.805" y="-266.5" font-family="Helvetica,sans-Serif" font-size="10.00">/SerialDevice.h</text>
</g>
<!-- Node2 -->
<g id="node2" class="node"><title>Node2</title>
<g id="a_node2"><a xlink:href="$Linux_2UARTDriver_8h.html" xlink:title="libraries/AP_HAL_Linux\l/UARTDriver.h">
<polygon fill="white" stroke="black" points="257,-195.5 257,-223.5 378.61,-223.5 378.61,-195.5 257,-195.5"/>
<text text-anchor="start" x="265" y="-211.5" font-family="Helvetica,sans-Serif" font-size="10.00">libraries/AP_HAL_Linux</text>
<text text-anchor="middle" x="317.805" y="-201.5" font-family="Helvetica,sans-Serif" font-size="10.00">/UARTDriver.h</text>
</a>
</g>
</g>
<!-- Node1&#45;&gt;Node2 -->
<g id="edge1" class="edge"><title>Node1&#45;&gt;Node2</title>
<path fill="none" stroke="midnightblue" d="M570.771,-259.688C513.328,-248.518 433.308,-232.959 378.749,-222.35"/>
<polygon fill="midnightblue" stroke="midnightblue" points="570.379,-263.177 580.863,-261.65 571.715,-256.306 570.379,-263.177"/>
</g>
<!-- Node11 -->
<g id="node11" class="node"><title>Node11</title>
<g id="a_node11"><a xlink:href="$ConsoleDevice_8h.html" xlink:title="libraries/AP_HAL_Linux\l/ConsoleDevice.h">
<polygon fill="white" stroke="black" points="441,-195.5 441,-223.5 562.61,-223.5 562.61,-195.5 441,-195.5"/>
<text text-anchor="start" x="449" y="-211.5" font-family="Helvetica,sans-Serif" font-size="10.00">libraries/AP_HAL_Linux</text>
<text text-anchor="middle" x="501.805" y="-201.5" font-family="Helvetica,sans-Serif" font-size="10.00">/ConsoleDevice.h</text>
</a>
</g>
</g>
<!-- Node1&#45;&gt;Node11 -->
<g id="edge14" class="edge"><title>Node1&#45;&gt;Node11</title>
<path fill="none" stroke="midnightblue" d="M603.666,-256.337C580.687,-245.997 551.885,-233.036 530.776,-223.537"/>
<polygon fill="midnightblue" stroke="midnightblue" points="602.242,-259.534 612.797,-260.446 605.114,-253.151 602.242,-259.534"/>
</g>
<!-- Node13 -->
<g id="node13" class="node"><title>Node13</title>
<g id="a_node13"><a xlink:href="$TCPServerDevice_8h.html" xlink:title="libraries/AP_HAL_Linux\l/TCPServerDevice.h">
<polygon fill="white" stroke="black" points="581,-195.5 581,-223.5 702.61,-223.5 702.61,-195.5 581,-195.5"/>
<text text-anchor="start" x="589" y="-211.5" font-family="Helvetica,sans-Serif" font-size="10.00">libraries/AP_HAL_Linux</text>
<text text-anchor="middle" x="641.805" y="-201.5" font-family="Helvetica,sans-Serif" font-size="10.00">/TCPServerDevice.h</text>
</a>
</g>
</g>
<!-- Node1&#45;&gt;Node13 -->
<g id="edge17" class="edge"><title>Node1&#45;&gt;Node13</title>
<path fill="none" stroke="midnightblue" d="M641.805,-250.164C641.805,-241.169 641.805,-231.221 641.805,-223.537"/>
<polygon fill="midnightblue" stroke="midnightblue" points="638.305,-250.446 641.805,-260.446 645.305,-250.446 638.305,-250.446"/>
</g>
<!-- Node15 -->
<g id="node15" class="node"><title>Node15</title>
<g id="a_node15"><a xlink:href="$UARTDevice_8h.html" xlink:title="libraries/AP_HAL_Linux\l/UARTDevice.h">
<polygon fill="white" stroke="black" points="721,-195.5 721,-223.5 842.61,-223.5 842.61,-195.5 721,-195.5"/>
<text text-anchor="start" x="729" y="-211.5" font-family="Helvetica,sans-Serif" font-size="10.00">libraries/AP_HAL_Linux</text>
<text text-anchor="middle" x="781.805" y="-201.5" font-family="Helvetica,sans-Serif" font-size="10.00">/UARTDevice.h</text>
</a>
</g>
</g>
<!-- Node1&#45;&gt;Node15 -->
<g id="edge20" class="edge"><title>Node1&#45;&gt;Node15</title>
<path fill="none" stroke="midnightblue" d="M679.944,-256.337C702.923,-245.997 731.725,-233.036 752.834,-223.537"/>
<polygon fill="midnightblue" stroke="midnightblue" points="678.496,-253.151 670.813,-260.446 681.369,-259.534 678.496,-253.151"/>
</g>
<!-- Node17 -->
<g id="node17" class="node"><title>Node17</title>
<g id="a_node17"><a xlink:href="$UDPDevice_8h.html" xlink:title="libraries/AP_HAL_Linux\l/UDPDevice.h">
<polygon fill="white" stroke="black" points="861,-195.5 861,-223.5 982.61,-223.5 982.61,-195.5 861,-195.5"/>
<text text-anchor="start" x="869" y="-211.5" font-family="Helvetica,sans-Serif" font-size="10.00">libraries/AP_HAL_Linux</text>
<text text-anchor="middle" x="921.805" y="-201.5" font-family="Helvetica,sans-Serif" font-size="10.00">/UDPDevice.h</text>
</a>
</g>
</g>
<!-- Node1&#45;&gt;Node17 -->
<g id="edge23" class="edge"><title>Node1&#45;&gt;Node17</title>
<path fill="none" stroke="midnightblue" d="M709.646,-258.236C756.813,-247.623 819.019,-233.627 863.863,-223.537"/>
<polygon fill="midnightblue" stroke="midnightblue" points="708.809,-254.837 699.821,-260.446 710.346,-261.666 708.809,-254.837"/>
</g>
<!-- Node3 -->
<g id="node3" class="node"><title>Node3</title>
<g id="a_node3"><a xlink:href="$AP__HAL__Linux__Private_8h.html" xlink:title="libraries/AP_HAL_Linux\l/AP_HAL_Linux_Private.h">
<polygon fill="white" stroke="black" points="279.993,-65.5 279.993,-93.5 411.618,-93.5 411.618,-65.5 279.993,-65.5"/>
<text text-anchor="start" x="287.993" y="-81.5" font-family="Helvetica,sans-Serif" font-size="10.00">libraries/AP_HAL_Linux</text>
<text text-anchor="middle" x="345.805" y="-71.5" font-family="Helvetica,sans-Serif" font-size="10.00">/AP_HAL_Linux_Private.h</text>
</a>
</g>
</g>
<!-- Node2&#45;&gt;Node3 -->
<g id="edge2" class="edge"><title>Node2&#45;&gt;Node3</title>
<path fill="none" stroke="midnightblue" d="M302.068,-186.802C292.508,-170.806 283.59,-148.675 291.805,-130 298.462,-114.866 312.284,-102.338 324.276,-93.6717"/>
<polygon fill="midnightblue" stroke="midnightblue" points="299.281,-188.938 307.647,-195.439 305.161,-185.139 299.281,-188.938"/>
</g>
<!-- Node5 -->
<g id="node5" class="node"><title>Node5</title>
<g id="a_node5"><a xlink:href="$SPIUARTDriver_8h.html" xlink:title="libraries/AP_HAL_Linux\l/SPIUARTDriver.h">
<polygon fill="white" stroke="black" points="301,-130.5 301,-158.5 422.61,-158.5 422.61,-130.5 301,-130.5"/>
<text text-anchor="start" x="309" y="-146.5" font-family="Helvetica,sans-Serif" font-size="10.00">libraries/AP_HAL_Linux</text>
<text text-anchor="middle" x="361.805" y="-136.5" font-family="Helvetica,sans-Serif" font-size="10.00">/SPIUARTDriver.h</text>
</a>
</g>
</g>
<!-- Node2&#45;&gt;Node5 -->
<g id="edge4" class="edge"><title>Node2&#45;&gt;Node5</title>
<path fill="none" stroke="midnightblue" d="M332.666,-187.221C339.307,-177.713 346.921,-166.812 352.7,-158.537"/>
<polygon fill="midnightblue" stroke="midnightblue" points="329.778,-185.244 326.922,-195.446 335.517,-189.252 329.778,-185.244"/>
</g>
<!-- Node6 -->
<g id="node6" class="node"><title>Node6</title>
<g id="a_node6"><a xlink:href="$AP__HAL__Linux_2Scheduler_8cpp.html" xlink:title="libraries/AP_HAL_Linux\l/Scheduler.cpp">
<polygon fill="white" stroke="black" points="0,-65.5 0,-93.5 121.61,-93.5 121.61,-65.5 0,-65.5"/>
<text text-anchor="start" x="8" y="-81.5" font-family="Helvetica,sans-Serif" font-size="10.00">libraries/AP_HAL_Linux</text>
<text text-anchor="middle" x="60.8052" y="-71.5" font-family="Helvetica,sans-Serif" font-size="10.00">/Scheduler.cpp</text>
</a>
</g>
</g>
<!-- Node2&#45;&gt;Node6 -->
<g id="edge12" class="edge"><title>Node2&#45;&gt;Node6</title>
<path fill="none" stroke="midnightblue" d="M246.717,-204.017C204.912,-198.435 152.784,-186.098 113.805,-159 89.907,-142.386 73.7193,-111.22 66.0042,-93.5665"/>
<polygon fill="midnightblue" stroke="midnightblue" points="246.481,-207.515 256.834,-205.265 247.337,-200.567 246.481,-207.515"/>
</g>
<!-- Node8 -->
<g id="node8" class="node"><title>Node8</title>
<g id="a_node8"><a xlink:href="$RPIOUARTDriver_8h.html" xlink:title="libraries/AP_HAL_Linux\l/RPIOUARTDriver.h">
<polygon fill="white" stroke="black" points="123,-130.5 123,-158.5 244.61,-158.5 244.61,-130.5 123,-130.5"/>
<text text-anchor="start" x="131" y="-146.5" font-family="Helvetica,sans-Serif" font-size="10.00">libraries/AP_HAL_Linux</text>
<text text-anchor="middle" x="183.805" y="-136.5" font-family="Helvetica,sans-Serif" font-size="10.00">/RPIOUARTDriver.h</text>
</a>
</g>
</g>
<!-- Node2&#45;&gt;Node8 -->
<g id="edge8" class="edge"><title>Node2&#45;&gt;Node8</title>
<path fill="none" stroke="midnightblue" d="M280.713,-191.061C258.817,-180.767 231.559,-167.951 211.534,-158.537"/>
<polygon fill="midnightblue" stroke="midnightblue" points="279.501,-194.359 290.04,-195.446 282.48,-188.024 279.501,-194.359"/>
</g>
<!-- Node10 -->
<g id="node10" class="node"><title>Node10</title>
<g id="a_node10"><a xlink:href="$Linux_2UARTDriver_8cpp.html" xlink:title="libraries/AP_HAL_Linux\l/UARTDriver.cpp">
<polygon fill="white" stroke="black" points="721,-130.5 721,-158.5 842.61,-158.5 842.61,-130.5 721,-130.5"/>
<text text-anchor="start" x="729" y="-146.5" font-family="Helvetica,sans-Serif" font-size="10.00">libraries/AP_HAL_Linux</text>
<text text-anchor="middle" x="781.805" y="-136.5" font-family="Helvetica,sans-Serif" font-size="10.00">/UARTDriver.cpp</text>
</a>
</g>
</g>
<!-- Node2&#45;&gt;Node10 -->
<g id="edge13" class="edge"><title>Node2&#45;&gt;Node10</title>
<path fill="none" stroke="midnightblue" d="M389.037,-199.808C493.885,-186.975 680.754,-163.939 711.805,-159 714.739,-158.533 717.737,-158.036 720.763,-157.517"/>
<polygon fill="midnightblue" stroke="midnightblue" points="388.345,-196.367 378.844,-201.055 389.195,-203.315 388.345,-196.367"/>
</g>
<!-- Node4 -->
<g id="node4" class="node"><title>Node4</title>
<g id="a_node4"><a xlink:href="$HAL__Linux__Class_8cpp.html" xlink:title="libraries/AP_HAL_Linux\l/HAL_Linux_Class.cpp">
<polygon fill="white" stroke="black" points="285,-0.5 285,-28.5 406.61,-28.5 406.61,-0.5 285,-0.5"/>
<text text-anchor="start" x="293" y="-16.5" font-family="Helvetica,sans-Serif" font-size="10.00">libraries/AP_HAL_Linux</text>
<text text-anchor="middle" x="345.805" y="-6.5" font-family="Helvetica,sans-Serif" font-size="10.00">/HAL_Linux_Class.cpp</text>
</a>
</g>
</g>
<!-- Node3&#45;&gt;Node4 -->
<g id="edge3" class="edge"><title>Node3&#45;&gt;Node4</title>
<path fill="none" stroke="midnightblue" d="M345.805,-55.1641C345.805,-46.1693 345.805,-36.2205 345.805,-28.5369"/>
<polygon fill="midnightblue" stroke="midnightblue" points="342.305,-55.4463 345.805,-65.4464 349.305,-55.4464 342.305,-55.4463"/>
</g>
<!-- Node5&#45;&gt;Node3 -->
<g id="edge5" class="edge"><title>Node5&#45;&gt;Node3</title>
<path fill="none" stroke="midnightblue" d="M355.954,-120.46C353.65,-111.388 351.089,-101.305 349.116,-93.5369"/>
<polygon fill="midnightblue" stroke="midnightblue" points="352.636,-121.616 358.49,-130.446 359.421,-119.892 352.636,-121.616"/>
</g>
<!-- Node5&#45;&gt;Node6 -->
<g id="edge6" class="edge"><title>Node5&#45;&gt;Node6</title>
<path fill="none" stroke="midnightblue" d="M290.848,-128.648C239.404,-117.881 170.56,-103.472 121.626,-93.23"/>
<polygon fill="midnightblue" stroke="midnightblue" points="290.388,-132.128 300.893,-130.751 291.822,-125.277 290.388,-132.128"/>
</g>
<!-- Node7 -->
<g id="node7" class="node"><title>Node7</title>
<g id="a_node7"><a xlink:href="$SPIUARTDriver_8cpp.html" xlink:title="libraries/AP_HAL_Linux\l/SPIUARTDriver.cpp">
<polygon fill="white" stroke="black" points="430,-65.5 430,-93.5 551.61,-93.5 551.61,-65.5 430,-65.5"/>
<text text-anchor="start" x="438" y="-81.5" font-family="Helvetica,sans-Serif" font-size="10.00">libraries/AP_HAL_Linux</text>
<text text-anchor="middle" x="490.805" y="-71.5" font-family="Helvetica,sans-Serif" font-size="10.00">/SPIUARTDriver.cpp</text>
</a>
</g>
</g>
<!-- Node5&#45;&gt;Node7 -->
<g id="edge7" class="edge"><title>Node5&#45;&gt;Node7</title>
<path fill="none" stroke="midnightblue" d="M397.797,-125.922C418.828,-115.652 444.92,-102.909 464.111,-93.5369"/>
<polygon fill="midnightblue" stroke="midnightblue" points="395.984,-122.913 388.534,-130.446 399.056,-129.203 395.984,-122.913"/>
</g>
<!-- Node8&#45;&gt;Node3 -->
<g id="edge9" class="edge"><title>Node8&#45;&gt;Node3</title>
<path fill="none" stroke="midnightblue" d="M226.878,-126.75C253.637,-116.343 287.53,-103.163 312.282,-93.5369"/>
<polygon fill="midnightblue" stroke="midnightblue" points="225.423,-123.56 217.372,-130.446 227.96,-130.084 225.423,-123.56"/>
</g>
<!-- Node8&#45;&gt;Node6 -->
<g id="edge11" class="edge"><title>Node8&#45;&gt;Node6</title>
<path fill="none" stroke="midnightblue" d="M149.216,-125.783C129.211,-115.537 104.474,-102.867 86.2582,-93.5369"/>
<polygon fill="midnightblue" stroke="midnightblue" points="147.823,-129.003 158.319,-130.446 151.015,-122.772 147.823,-129.003"/>
</g>
<!-- Node9 -->
<g id="node9" class="node"><title>Node9</title>
<g id="a_node9"><a xlink:href="$RPIOUARTDriver_8cpp.html" xlink:title="libraries/AP_HAL_Linux\l/RPIOUARTDriver.cpp">
<polygon fill="white" stroke="black" points="140,-65.5 140,-93.5 261.61,-93.5 261.61,-65.5 140,-65.5"/>
<text text-anchor="start" x="148" y="-81.5" font-family="Helvetica,sans-Serif" font-size="10.00">libraries/AP_HAL_Linux</text>
<text text-anchor="middle" x="200.805" y="-71.5" font-family="Helvetica,sans-Serif" font-size="10.00">/RPIOUARTDriver.cpp</text>
</a>
</g>
</g>
<!-- Node8&#45;&gt;Node9 -->
<g id="edge10" class="edge"><title>Node8&#45;&gt;Node9</title>
<path fill="none" stroke="midnightblue" d="M189.943,-120.756C192.411,-111.608 195.168,-101.389 197.287,-93.5369"/>
<polygon fill="midnightblue" stroke="midnightblue" points="186.554,-119.88 187.328,-130.446 193.312,-121.704 186.554,-119.88"/>
</g>
<!-- Node11&#45;&gt;Node10 -->
<g id="edge16" class="edge"><title>Node11&#45;&gt;Node10</title>
<path fill="none" stroke="midnightblue" d="M569.646,-193.236C616.813,-182.623 679.019,-168.627 723.863,-158.537"/>
<polygon fill="midnightblue" stroke="midnightblue" points="568.809,-189.837 559.821,-195.446 570.346,-196.666 568.809,-189.837"/>
</g>
<!-- Node12 -->
<g id="node12" class="node"><title>Node12</title>
<g id="a_node12"><a xlink:href="$ConsoleDevice_8cpp.html" xlink:title="libraries/AP_HAL_Linux\l/ConsoleDevice.cpp">
<polygon fill="white" stroke="black" points="441,-130.5 441,-158.5 562.61,-158.5 562.61,-130.5 441,-130.5"/>
<text text-anchor="start" x="449" y="-146.5" font-family="Helvetica,sans-Serif" font-size="10.00">libraries/AP_HAL_Linux</text>
<text text-anchor="middle" x="501.805" y="-136.5" font-family="Helvetica,sans-Serif" font-size="10.00">/ConsoleDevice.cpp</text>
</a>
</g>
</g>
<!-- Node11&#45;&gt;Node12 -->
<g id="edge15" class="edge"><title>Node11&#45;&gt;Node12</title>
<path fill="none" stroke="midnightblue" d="M501.805,-185.164C501.805,-176.169 501.805,-166.221 501.805,-158.537"/>
<polygon fill="midnightblue" stroke="midnightblue" points="498.305,-185.446 501.805,-195.446 505.305,-185.446 498.305,-185.446"/>
</g>
<!-- Node13&#45;&gt;Node10 -->
<g id="edge19" class="edge"><title>Node13&#45;&gt;Node10</title>
<path fill="none" stroke="midnightblue" d="M679.944,-191.337C702.923,-180.997 731.725,-168.036 752.834,-158.537"/>
<polygon fill="midnightblue" stroke="midnightblue" points="678.496,-188.151 670.813,-195.446 681.369,-194.534 678.496,-188.151"/>
</g>
<!-- Node14 -->
<g id="node14" class="node"><title>Node14</title>
<g id="a_node14"><a xlink:href="$TCPServerDevice_8cpp.html" xlink:title="libraries/AP_HAL_Linux\l/TCPServerDevice.cpp">
<polygon fill="white" stroke="black" points="581,-130.5 581,-158.5 702.61,-158.5 702.61,-130.5 581,-130.5"/>
<text text-anchor="start" x="589" y="-146.5" font-family="Helvetica,sans-Serif" font-size="10.00">libraries/AP_HAL_Linux</text>
<text text-anchor="middle" x="641.805" y="-136.5" font-family="Helvetica,sans-Serif" font-size="10.00">/TCPServerDevice.cpp</text>
</a>
</g>
</g>
<!-- Node13&#45;&gt;Node14 -->
<g id="edge18" class="edge"><title>Node13&#45;&gt;Node14</title>
<path fill="none" stroke="midnightblue" d="M641.805,-185.164C641.805,-176.169 641.805,-166.221 641.805,-158.537"/>
<polygon fill="midnightblue" stroke="midnightblue" points="638.305,-185.446 641.805,-195.446 645.305,-185.446 638.305,-185.446"/>
</g>
<!-- Node15&#45;&gt;Node10 -->
<g id="edge22" class="edge"><title>Node15&#45;&gt;Node10</title>
<path fill="none" stroke="midnightblue" d="M781.805,-185.164C781.805,-176.169 781.805,-166.221 781.805,-158.537"/>
<polygon fill="midnightblue" stroke="midnightblue" points="778.305,-185.446 781.805,-195.446 785.305,-185.446 778.305,-185.446"/>
</g>
<!-- Node16 -->
<g id="node16" class="node"><title>Node16</title>
<g id="a_node16"><a xlink:href="$UARTDevice_8cpp.html" xlink:title="libraries/AP_HAL_Linux\l/UARTDevice.cpp">
<polygon fill="white" stroke="black" points="861,-130.5 861,-158.5 982.61,-158.5 982.61,-130.5 861,-130.5"/>
<text text-anchor="start" x="869" y="-146.5" font-family="Helvetica,sans-Serif" font-size="10.00">libraries/AP_HAL_Linux</text>
<text text-anchor="middle" x="921.805" y="-136.5" font-family="Helvetica,sans-Serif" font-size="10.00">/UARTDevice.cpp</text>
</a>
</g>
</g>
<!-- Node15&#45;&gt;Node16 -->
<g id="edge21" class="edge"><title>Node15&#45;&gt;Node16</title>
<path fill="none" stroke="midnightblue" d="M819.944,-191.337C842.923,-180.997 871.725,-168.036 892.834,-158.537"/>
<polygon fill="midnightblue" stroke="midnightblue" points="818.496,-188.151 810.813,-195.446 821.369,-194.534 818.496,-188.151"/>
</g>
<!-- Node17&#45;&gt;Node10 -->
<g id="edge24" class="edge"><title>Node17&#45;&gt;Node10</title>
<path fill="none" stroke="midnightblue" d="M883.666,-191.337C860.687,-180.997 831.885,-168.036 810.776,-158.537"/>
<polygon fill="midnightblue" stroke="midnightblue" points="882.242,-194.534 892.797,-195.446 885.114,-188.151 882.242,-194.534"/>
</g>
<!-- Node18 -->
<g id="node18" class="node"><title>Node18</title>
<g id="a_node18"><a xlink:href="$UDPDevice_8cpp.html" xlink:title="libraries/AP_HAL_Linux\l/UDPDevice.cpp">
<polygon fill="white" stroke="black" points="1001,-130.5 1001,-158.5 1122.61,-158.5 1122.61,-130.5 1001,-130.5"/>
<text text-anchor="start" x="1009" y="-146.5" font-family="Helvetica,sans-Serif" font-size="10.00">libraries/AP_HAL_Linux</text>
<text text-anchor="middle" x="1061.81" y="-136.5" font-family="Helvetica,sans-Serif" font-size="10.00">/UDPDevice.cpp</text>
</a>
</g>
</g>
<!-- Node17&#45;&gt;Node18 -->
<g id="edge25" class="edge"><title>Node17&#45;&gt;Node18</title>
<path fill="none" stroke="midnightblue" d="M959.944,-191.337C982.923,-180.997 1011.73,-168.036 1032.83,-158.537"/>
<polygon fill="midnightblue" stroke="midnightblue" points="958.496,-188.151 950.813,-195.446 961.369,-194.534 958.496,-188.151"/>
</g>
</g>
</svg>
