<?xml version="1.0" encoding="UTF-8" standalone="no"?>
<!DOCTYPE svg PUBLIC "-//W3C//DTD SVG 1.1//EN"
 "http://www.w3.org/Graphics/SVG/1.1/DTD/svg11.dtd">
<!-- Generated by graphviz version 2.38.0 (20140413.2041)
 -->
<!-- Title: loop Pages: 1 -->
<svg width="626pt" height="93pt"
 viewBox="0.00 0.00 626.06 93.00" xmlns="http://www.w3.org/2000/svg" xmlns:xlink="http://www.w3.org/1999/xlink">
<g id="graph0" class="graph" transform="scale(1 1) rotate(0) translate(4 89)">
<title>loop</title>
<polygon fill="white" stroke="none" points="-4,4 -4,-89 622.062,-89 622.062,4 -4,4"/>
<!-- Node1 -->
<g id="node1" class="node"><title>Node1</title>
<polygon fill="#bfbfbf" stroke="black" points="0,-40.5 0,-58.5 34.9062,-58.5 34.9062,-40.5 0,-40.5"/>
<text text-anchor="middle" x="17.4531" y="-46.5" font-family="Helvetica,sans-Serif" font-size="10.00">loop</text>
</g>
<!-- Node2 -->
<g id="node2" class="node"><title>Node2</title>
<g id="a_node2"><a xlink:href="$classAP__HAL_1_1Scheduler.html#ab3175e2e6223ccfe82f957e41cc12b26" xlink:title="AP_HAL::Scheduler::\ldelay">
<polygon fill="white" stroke="black" points="72.2905,-56.5 72.2905,-84.5 182.788,-84.5 182.788,-56.5 72.2905,-56.5"/>
<text text-anchor="start" x="80.2905" y="-72.5" font-family="Helvetica,sans-Serif" font-size="10.00">AP_HAL::Scheduler::</text>
<text text-anchor="middle" x="127.539" y="-62.5" font-family="Helvetica,sans-Serif" font-size="10.00">delay</text>
</a>
</g>
</g>
<!-- Node1&#45;&gt;Node2 -->
<g id="edge1" class="edge"><title>Node1&#45;&gt;Node2</title>
<path fill="none" stroke="midnightblue" d="M35.3416,-52.7812C42.8226,-54.2347 52.1447,-56.0459 61.9486,-57.9507"/>
<polygon fill="midnightblue" stroke="midnightblue" points="61.3788,-61.4054 71.8628,-59.877 62.7139,-54.5339 61.3788,-61.4054"/>
</g>
<!-- Node3 -->
<g id="node3" class="node"><title>Node3</title>
<g id="a_node3"><a xlink:href="$classAP__HAL_1_1Print.html#ad337ce3f7977411b7d34d47a51e5737e" xlink:title="AP_HAL::Print::println">
<polygon fill="white" stroke="black" points="70.9062,-19.5 70.9062,-37.5 184.172,-37.5 184.172,-19.5 70.9062,-19.5"/>
<text text-anchor="middle" x="127.539" y="-25.5" font-family="Helvetica,sans-Serif" font-size="10.00">AP_HAL::Print::println</text>
</a>
</g>
</g>
<!-- Node1&#45;&gt;Node3 -->
<g id="edge2" class="edge"><title>Node1&#45;&gt;Node3</title>
<path fill="none" stroke="midnightblue" d="M35.3416,-46.2188C44.8051,-44.3801 57.2148,-41.969 69.8191,-39.5201"/>
<polygon fill="midnightblue" stroke="midnightblue" points="70.7678,-42.9013 79.9167,-37.5583 69.4327,-36.0298 70.7678,-42.9013"/>
</g>
<!-- Node4 -->
<g id="node4" class="node"><title>Node4</title>
<g id="a_node4"><a xlink:href="$classAP__HAL_1_1Print.html#acfe80773011eb17dfb52c2fba517a093" xlink:title="AP_HAL::Print::print">
<polygon fill="white" stroke="black" points="369.438,-19.5 369.438,-37.5 474.92,-37.5 474.92,-19.5 369.438,-19.5"/>
<text text-anchor="middle" x="422.179" y="-25.5" font-family="Helvetica,sans-Serif" font-size="10.00">AP_HAL::Print::print</text>
</a>
</g>
</g>
<!-- Node3&#45;&gt;Node4 -->
<g id="edge3" class="edge"><title>Node3&#45;&gt;Node4</title>
<path fill="none" stroke="midnightblue" d="M184.271,-28.5C234.177,-28.5 307.261,-28.5 359.036,-28.5"/>
<polygon fill="midnightblue" stroke="midnightblue" points="359.094,-32.0001 369.094,-28.5 359.094,-25.0001 359.094,-32.0001"/>
</g>
<!-- Node6 -->
<g id="node6" class="node"><title>Node6</title>
<g id="a_node6"><a xlink:href="$classAP__HAL_1_1Print.html#a169b128f9e22f0c15883768f580541a2" xlink:title="AP_HAL::Print::println">
<polygon fill="white" stroke="black" points="220.172,-0.5 220.172,-18.5 333.438,-18.5 333.438,-0.5 220.172,-0.5"/>
<text text-anchor="middle" x="276.805" y="-6.5" font-family="Helvetica,sans-Serif" font-size="10.00">AP_HAL::Print::println</text>
</a>
</g>
</g>
<!-- Node3&#45;&gt;Node6 -->
<g id="edge5" class="edge"><title>Node3&#45;&gt;Node6</title>
<path fill="none" stroke="midnightblue" d="M184.214,-21.3169C192.644,-20.2293 201.409,-19.0985 210.028,-17.9864"/>
<polygon fill="midnightblue" stroke="midnightblue" points="210.581,-21.4441 220.051,-16.6932 209.685,-14.5017 210.581,-21.4441"/>
</g>
<!-- Node5 -->
<g id="node5" class="node"><title>Node5</title>
<g id="a_node5"><a xlink:href="$classAP__HAL_1_1Print.html#acc65391952a43334f8f5c9bef341f501" xlink:title="AP_HAL::Print::write">
<polygon fill="white" stroke="black" points="510.92,-19.5 510.92,-37.5 618.062,-37.5 618.062,-19.5 510.92,-19.5"/>
<text text-anchor="middle" x="564.491" y="-25.5" font-family="Helvetica,sans-Serif" font-size="10.00">AP_HAL::Print::write</text>
</a>
</g>
</g>
<!-- Node4&#45;&gt;Node5 -->
<g id="edge4" class="edge"><title>Node4&#45;&gt;Node5</title>
<path fill="none" stroke="midnightblue" d="M475.027,-28.5C483.444,-28.5 492.238,-28.5 500.878,-28.5"/>
<polygon fill="midnightblue" stroke="midnightblue" points="500.918,-32.0001 510.918,-28.5 500.918,-25.0001 500.918,-32.0001"/>
</g>
<!-- Node6&#45;&gt;Node4 -->
<g id="edge6" class="edge"><title>Node6&#45;&gt;Node4</title>
<path fill="none" stroke="midnightblue" d="M333.647,-16.9003C341.92,-17.9966 350.49,-19.1323 358.884,-20.2447"/>
<polygon fill="midnightblue" stroke="midnightblue" points="358.632,-23.7418 369.005,-21.586 359.552,-16.8025 358.632,-23.7418"/>
</g>
</g>
</svg>
