<?xml version="1.0" encoding="UTF-8" standalone="no"?>
<!DOCTYPE svg PUBLIC "-//W3C//DTD SVG 1.1//EN"
 "http://www.w3.org/Graphics/SVG/1.1/DTD/svg11.dtd">
<!-- Generated by graphviz version 2.38.0 (20140413.2041)
 -->
<!-- Title: try_send_statustext Pages: 1 -->
<svg width="286pt" height="64pt"
 viewBox="0.00 0.00 286.13 64.00" xmlns="http://www.w3.org/2000/svg" xmlns:xlink="http://www.w3.org/1999/xlink">
<g id="graph0" class="graph" transform="scale(1 1) rotate(0) translate(4 60)">
<title>try_send_statustext</title>
<polygon fill="white" stroke="none" points="-4,4 -4,-60 282.127,-60 282.127,4 -4,4"/>
<!-- Node1 -->
<g id="node1" class="node"><title>Node1</title>
<polygon fill="#bfbfbf" stroke="black" points="0,-18.5 0,-36.5 102.714,-36.5 102.714,-18.5 0,-18.5"/>
<text text-anchor="middle" x="51.3569" y="-24.5" font-family="Helvetica,sans-Serif" font-size="10.00">try_send_statustext</text>
</g>
<!-- Node2 -->
<g id="node2" class="node"><title>Node2</title>
<g id="a_node2"><a xlink:href="$GCS__Console_2examples_2Console_2Console_8cpp.html#a6bbdf9d637b5b4717f5c7fdd0d5b5759" xlink:title="flush_console_to_statustext">
<polygon fill="white" stroke="black" points="138.714,-37.5 138.714,-55.5 278.127,-55.5 278.127,-37.5 138.714,-37.5"/>
<text text-anchor="middle" x="208.42" y="-43.5" font-family="Helvetica,sans-Serif" font-size="10.00">flush_console_to_statustext</text>
</a>
</g>
</g>
<!-- Node1&#45;&gt;Node2 -->
<g id="edge1" class="edge"><title>Node1&#45;&gt;Node2</title>
<path fill="none" stroke="midnightblue" d="M113.124,-34.9458C121.45,-35.966 130.046,-37.0193 138.504,-38.0557"/>
<polygon fill="midnightblue" stroke="midnightblue" points="113.482,-31.4636 103.131,-33.7213 112.631,-38.4116 113.482,-31.4636"/>
</g>
<!-- Node3 -->
<g id="node3" class="node"><title>Node3</title>
<g id="a_node3"><a xlink:href="$GCS__Console_2examples_2Console_2Console_8cpp.html#a7dfd9b79bc5a37d7df40207afbc5431f" xlink:title="setup">
<polygon fill="white" stroke="black" points="188.189,-0.5 188.189,-18.5 228.652,-18.5 228.652,-0.5 188.189,-0.5"/>
<text text-anchor="middle" x="208.42" y="-6.5" font-family="Helvetica,sans-Serif" font-size="10.00">setup</text>
</a>
</g>
</g>
<!-- Node1&#45;&gt;Node3 -->
<g id="edge2" class="edge"><title>Node1&#45;&gt;Node3</title>
<path fill="none" stroke="midnightblue" d="M113.167,-20.4411C139.779,-17.3519 169.152,-13.9423 187.919,-11.7638"/>
<polygon fill="midnightblue" stroke="midnightblue" points="112.66,-16.9763 103.131,-21.6061 113.467,-23.9296 112.66,-16.9763"/>
</g>
</g>
</svg>
