<?xml version="1.0" encoding="UTF-8" standalone="no"?>
<!DOCTYPE svg PUBLIC "-//W3C//DTD SVG 1.1//EN"
 "http://www.w3.org/Graphics/SVG/1.1/DTD/svg11.dtd">
<!-- Generated by graphviz version 2.38.0 (20140413.2041)
 -->
<!-- Title: try_send_message Pages: 1 -->
<svg width="415pt" height="64pt"
 viewBox="0.00 0.00 415.36 64.00" xmlns="http://www.w3.org/2000/svg" xmlns:xlink="http://www.w3.org/1999/xlink">
<g id="graph0" class="graph" transform="scale(1 1) rotate(0) translate(4 60)">
<title>try_send_message</title>
<polygon fill="white" stroke="none" points="-4,4 -4,-60 411.363,-60 411.363,4 -4,4"/>
<!-- Node1 -->
<g id="node1" class="node"><title>Node1</title>
<polygon fill="#bfbfbf" stroke="black" points="0,-18.5 0,-36.5 100.492,-36.5 100.492,-18.5 0,-18.5"/>
<text text-anchor="middle" x="50.2461" y="-24.5" font-family="Helvetica,sans-Serif" font-size="10.00">try_send_message</text>
</g>
<!-- Node2 -->
<g id="node2" class="node"><title>Node2</title>
<g id="a_node2"><a xlink:href="$GCS__MAVLink_8cpp.html#a2a0fd455fd37f642e9eb67373a14b7d9" xlink:title="comm_get_txspace">
<polygon fill="white" stroke="black" points="136.492,-37.5 136.492,-55.5 239.201,-55.5 239.201,-37.5 136.492,-37.5"/>
<text text-anchor="middle" x="187.847" y="-43.5" font-family="Helvetica,sans-Serif" font-size="10.00">comm_get_txspace</text>
</a>
</g>
</g>
<!-- Node1&#45;&gt;Node2 -->
<g id="edge1" class="edge"><title>Node1&#45;&gt;Node2</title>
<path fill="none" stroke="midnightblue" d="M100.585,-34.4132C108.966,-35.5876 117.756,-36.8192 126.385,-38.0282"/>
<polygon fill="midnightblue" stroke="midnightblue" points="126.018,-41.5109 136.407,-39.4325 126.989,-34.5786 126.018,-41.5109"/>
</g>
<!-- Node4 -->
<g id="node4" class="node"><title>Node4</title>
<g id="a_node4"><a xlink:href="$simplegcs_8cpp.html#a63fb37ab3804b43b4d27c0cf7d205c43" xlink:title="send_heartbeat">
<polygon fill="white" stroke="black" points="145.096,-0.5 145.096,-18.5 230.598,-18.5 230.598,-0.5 145.096,-0.5"/>
<text text-anchor="middle" x="187.847" y="-6.5" font-family="Helvetica,sans-Serif" font-size="10.00">send_heartbeat</text>
</a>
</g>
</g>
<!-- Node1&#45;&gt;Node4 -->
<g id="edge3" class="edge"><title>Node1&#45;&gt;Node4</title>
<path fill="none" stroke="midnightblue" d="M100.585,-20.9507C111.716,-19.473 123.567,-17.9 134.805,-16.4081"/>
<polygon fill="midnightblue" stroke="midnightblue" points="135.464,-19.8514 144.917,-15.0659 134.543,-12.9123 135.464,-19.8514"/>
</g>
<!-- Node3 -->
<g id="node3" class="node"><title>Node3</title>
<g id="a_node3"><a xlink:href="$classAP__HAL_1_1Stream.html#a7028834212873394e906bcaf7f4a06b3" xlink:title="AP_HAL::Stream::txspace">
<polygon fill="white" stroke="black" points="275.201,-37.5 275.201,-55.5 407.363,-55.5 407.363,-37.5 275.201,-37.5"/>
<text text-anchor="middle" x="341.282" y="-43.5" font-family="Helvetica,sans-Serif" font-size="10.00">AP_HAL::Stream::txspace</text>
</a>
</g>
</g>
<!-- Node2&#45;&gt;Node3 -->
<g id="edge2" class="edge"><title>Node2&#45;&gt;Node3</title>
<path fill="none" stroke="midnightblue" d="M239.273,-46.5C247.497,-46.5 256.172,-46.5 264.842,-46.5"/>
<polygon fill="midnightblue" stroke="midnightblue" points="264.99,-50.0001 274.99,-46.5 264.99,-43.0001 264.99,-50.0001"/>
</g>
</g>
</svg>
