<?xml version="1.0" encoding="UTF-8" standalone="no"?>
<!DOCTYPE svg PUBLIC "-//W3C//DTD SVG 1.1//EN"
 "http://www.w3.org/Graphics/SVG/1.1/DTD/svg11.dtd">
<!-- Generated by graphviz version 2.38.0 (20140413.2041)
 -->
<!-- Title: libraries/GCS_Console/examples/Console/simplegcs.h Pages: 1 -->
<svg width="352pt" height="102pt"
 viewBox="0.00 0.00 352.30 102.00" xmlns="http://www.w3.org/2000/svg" xmlns:xlink="http://www.w3.org/1999/xlink">
<g id="graph0" class="graph" transform="scale(1 1) rotate(0) translate(4 98)">
<title>libraries/GCS_Console/examples/Console/simplegcs.h</title>
<polygon fill="white" stroke="none" points="-4,4 -4,-98 348.297,-98 348.297,4 -4,4"/>
<!-- Node1 -->
<g id="node1" class="node"><title>Node1</title>
<polygon fill="#bfbfbf" stroke="black" points="91.3965,-65.5 91.3965,-93.5 248.017,-93.5 248.017,-65.5 91.3965,-65.5"/>
<text text-anchor="start" x="99.3965" y="-81.5" font-family="Helvetica,sans-Serif" font-size="10.00">libraries/GCS_Console</text>
<text text-anchor="middle" x="169.707" y="-71.5" font-family="Helvetica,sans-Serif" font-size="10.00">/examples/Console/simplegcs.h</text>
</g>
<!-- Node2 -->
<g id="node2" class="node"><title>Node2</title>
<g id="a_node2"><a xlink:href="$GCS__Console_2examples_2Console_2Console_8cpp.html" xlink:title="libraries/GCS_Console\l/examples/Console/Console.cpp">
<polygon fill="white" stroke="black" points="0,-0.5 0,-28.5 159.413,-28.5 159.413,-0.5 0,-0.5"/>
<text text-anchor="start" x="8" y="-16.5" font-family="Helvetica,sans-Serif" font-size="10.00">libraries/GCS_Console</text>
<text text-anchor="middle" x="79.7065" y="-6.5" font-family="Helvetica,sans-Serif" font-size="10.00">/examples/Console/Console.cpp</text>
</a>
</g>
</g>
<!-- Node1&#45;&gt;Node2 -->
<g id="edge1" class="edge"><title>Node1&#45;&gt;Node2</title>
<path fill="none" stroke="midnightblue" d="M142.592,-59.52C128.293,-49.5107 111.117,-37.4871 98.3307,-28.5369"/>
<polygon fill="midnightblue" stroke="midnightblue" points="140.859,-62.579 151.058,-65.4464 144.873,-56.8444 140.859,-62.579"/>
</g>
<!-- Node3 -->
<g id="node3" class="node"><title>Node3</title>
<g id="a_node3"><a xlink:href="$simplegcs_8cpp.html" xlink:title="libraries/GCS_Console\l/examples/Console/simplegcs.cpp">
<polygon fill="white" stroke="black" points="177.116,-0.5 177.116,-28.5 344.297,-28.5 344.297,-0.5 177.116,-0.5"/>
<text text-anchor="start" x="185.116" y="-16.5" font-family="Helvetica,sans-Serif" font-size="10.00">libraries/GCS_Console</text>
<text text-anchor="middle" x="260.707" y="-6.5" font-family="Helvetica,sans-Serif" font-size="10.00">/examples/Console/simplegcs.cpp</text>
</a>
</g>
</g>
<!-- Node1&#45;&gt;Node3 -->
<g id="edge2" class="edge"><title>Node1&#45;&gt;Node3</title>
<path fill="none" stroke="midnightblue" d="M197.122,-59.52C211.58,-49.5107 228.947,-37.4871 241.875,-28.5369"/>
<polygon fill="midnightblue" stroke="midnightblue" points="194.791,-56.8765 188.562,-65.4464 198.776,-62.6319 194.791,-56.8765"/>
</g>
</g>
</svg>
