<?xml version="1.0" encoding="UTF-8" standalone="no"?>
<!DOCTYPE svg PUBLIC "-//W3C//DTD SVG 1.1//EN"
 "http://www.w3.org/Graphics/SVG/1.1/DTD/svg11.dtd">
<!-- Generated by graphviz version 2.38.0 (20140413.2041)
 -->
<!-- Title: swap_uint32 Pages: 1 -->
<svg width="376pt" height="37pt"
 viewBox="0.00 0.00 376.47 37.00" xmlns="http://www.w3.org/2000/svg" xmlns:xlink="http://www.w3.org/1999/xlink">
<g id="graph0" class="graph" transform="scale(1 1) rotate(0) translate(4 33)">
<title>swap_uint32</title>
<polygon fill="white" stroke="none" points="-4,4 -4,-33 372.467,-33 372.467,4 -4,4"/>
<!-- Node1 -->
<g id="node1" class="node"><title>Node1</title>
<polygon fill="#bfbfbf" stroke="black" points="0,-5.5 0,-23.5 72.1523,-23.5 72.1523,-5.5 0,-5.5"/>
<text text-anchor="middle" x="36.0762" y="-11.5" font-family="Helvetica,sans-Serif" font-size="10.00">swap_uint32</text>
</g>
<!-- Node2 -->
<g id="node2" class="node"><title>Node2</title>
<g id="a_node2"><a xlink:href="$classHALSITL_1_1SITL__State.html#a9fb09ac6e1f2c4f6749c8df363387f01" xlink:title="HALSITL::SITL_State\l::_update_gps_mtk">
<polygon fill="white" stroke="black" points="108.152,-0.5 108.152,-28.5 220.31,-28.5 220.31,-0.5 108.152,-0.5"/>
<text text-anchor="start" x="116.152" y="-16.5" font-family="Helvetica,sans-Serif" font-size="10.00">HALSITL::SITL_State</text>
<text text-anchor="middle" x="164.231" y="-6.5" font-family="Helvetica,sans-Serif" font-size="10.00">::_update_gps_mtk</text>
</a>
</g>
</g>
<!-- Node1&#45;&gt;Node2 -->
<g id="edge1" class="edge"><title>Node1&#45;&gt;Node2</title>
<path fill="none" stroke="midnightblue" d="M82.4203,-14.5C90.7004,-14.5 99.4244,-14.5 107.955,-14.5"/>
<polygon fill="midnightblue" stroke="midnightblue" points="82.2173,-11.0001 72.2173,-14.5 82.2173,-18.0001 82.2173,-11.0001"/>
</g>
<!-- Node3 -->
<g id="node3" class="node"><title>Node3</title>
<g id="a_node3"><a xlink:href="$classHALSITL_1_1SITL__State.html#a09b6857a6f87a51390d4e045cb671207" xlink:title="HALSITL::SITL_State\l::_update_gps">
<polygon fill="white" stroke="black" points="256.31,-0.5 256.31,-28.5 368.467,-28.5 368.467,-0.5 256.31,-0.5"/>
<text text-anchor="start" x="264.31" y="-16.5" font-family="Helvetica,sans-Serif" font-size="10.00">HALSITL::SITL_State</text>
<text text-anchor="middle" x="312.388" y="-6.5" font-family="Helvetica,sans-Serif" font-size="10.00">::_update_gps</text>
</a>
</g>
</g>
<!-- Node2&#45;&gt;Node3 -->
<g id="edge2" class="edge"><title>Node2&#45;&gt;Node3</title>
<path fill="none" stroke="midnightblue" d="M230.712,-14.5C239.175,-14.5 247.776,-14.5 256.054,-14.5"/>
<polygon fill="midnightblue" stroke="midnightblue" points="230.487,-11.0001 220.487,-14.5 230.487,-18.0001 230.487,-11.0001"/>
</g>
</g>
</svg>
