<?xml version="1.0" encoding="UTF-8" standalone="no"?>
<!DOCTYPE svg PUBLIC "-//W3C//DTD SVG 1.1//EN"
 "http://www.w3.org/Graphics/SVG/1.1/DTD/svg11.dtd">
<!-- Generated by graphviz version 2.38.0 (20140413.2041)
 -->
<!-- Title: libraries/AP_HAL_SITL/Storage.h Pages: 1 -->
<svg width="411pt" height="102pt"
 viewBox="0.00 0.00 410.83 102.00" xmlns="http://www.w3.org/2000/svg" xmlns:xlink="http://www.w3.org/1999/xlink">
<g id="graph0" class="graph" transform="scale(1 1) rotate(0) translate(4 98)">
<title>libraries/AP_HAL_SITL/Storage.h</title>
<polygon fill="white" stroke="none" points="-4,4 -4,-98 406.83,-98 406.83,4 -4,4"/>
<!-- Node1 -->
<g id="node1" class="node"><title>Node1</title>
<polygon fill="#bfbfbf" stroke="black" points="147.007,-65.5 147.007,-93.5 265.83,-93.5 265.83,-65.5 147.007,-65.5"/>
<text text-anchor="start" x="155.007" y="-81.5" font-family="Helvetica,sans-Serif" font-size="10.00">libraries/AP_HAL_SITL</text>
<text text-anchor="middle" x="206.418" y="-71.5" font-family="Helvetica,sans-Serif" font-size="10.00">/Storage.h</text>
</g>
<!-- Node2 -->
<g id="node2" class="node"><title>Node2</title>
<g id="a_node2"><a xlink:href="$AP__HAL__SITL__Private_8h.html" xlink:title="libraries/AP_HAL_SITL\l/AP_HAL_SITL_Private.h">
<polygon fill="white" stroke="black" points="0,-0.5 0,-28.5 128.837,-28.5 128.837,-0.5 0,-0.5"/>
<text text-anchor="start" x="8" y="-16.5" font-family="Helvetica,sans-Serif" font-size="10.00">libraries/AP_HAL_SITL</text>
<text text-anchor="middle" x="64.4185" y="-6.5" font-family="Helvetica,sans-Serif" font-size="10.00">/AP_HAL_SITL_Private.h</text>
</a>
</g>
</g>
<!-- Node1&#45;&gt;Node2 -->
<g id="edge1" class="edge"><title>Node1&#45;&gt;Node2</title>
<path fill="none" stroke="midnightblue" d="M167.734,-61.3374C144.427,-50.9968 115.214,-38.0359 93.8033,-28.5369"/>
<polygon fill="midnightblue" stroke="midnightblue" points="166.436,-64.5902 176.996,-65.4464 169.275,-58.1916 166.436,-64.5902"/>
</g>
<!-- Node3 -->
<g id="node3" class="node"><title>Node3</title>
<g id="a_node3"><a xlink:href="$HAL__SITL__Class_8cpp.html" xlink:title="libraries/AP_HAL_SITL\l/HAL_SITL_Class.cpp">
<polygon fill="white" stroke="black" points="147.007,-0.5 147.007,-28.5 265.83,-28.5 265.83,-0.5 147.007,-0.5"/>
<text text-anchor="start" x="155.007" y="-16.5" font-family="Helvetica,sans-Serif" font-size="10.00">libraries/AP_HAL_SITL</text>
<text text-anchor="middle" x="206.418" y="-6.5" font-family="Helvetica,sans-Serif" font-size="10.00">/HAL_SITL_Class.cpp</text>
</a>
</g>
</g>
<!-- Node1&#45;&gt;Node3 -->
<g id="edge2" class="edge"><title>Node1&#45;&gt;Node3</title>
<path fill="none" stroke="midnightblue" d="M206.418,-55.1641C206.418,-46.1693 206.418,-36.2205 206.418,-28.5369"/>
<polygon fill="midnightblue" stroke="midnightblue" points="202.919,-55.4463 206.418,-65.4464 209.919,-55.4464 202.919,-55.4463"/>
</g>
<!-- Node4 -->
<g id="node4" class="node"><title>Node4</title>
<g id="a_node4"><a xlink:href="$SITL_2Storage_8cpp.html" xlink:title="libraries/AP_HAL_SITL\l/Storage.cpp">
<polygon fill="white" stroke="black" points="284.007,-0.5 284.007,-28.5 402.83,-28.5 402.83,-0.5 284.007,-0.5"/>
<text text-anchor="start" x="292.007" y="-16.5" font-family="Helvetica,sans-Serif" font-size="10.00">libraries/AP_HAL_SITL</text>
<text text-anchor="middle" x="343.418" y="-6.5" font-family="Helvetica,sans-Serif" font-size="10.00">/Storage.cpp</text>
</a>
</g>
</g>
<!-- Node1&#45;&gt;Node4 -->
<g id="edge3" class="edge"><title>Node1&#45;&gt;Node4</title>
<path fill="none" stroke="midnightblue" d="M244.04,-61.1994C266.477,-50.8817 294.504,-37.9937 315.068,-28.5369"/>
<polygon fill="midnightblue" stroke="midnightblue" points="242.428,-58.0884 234.805,-65.4464 245.353,-64.4482 242.428,-58.0884"/>
</g>
</g>
</svg>
