<?xml version="1.0" encoding="UTF-8" standalone="no"?>
<!DOCTYPE svg PUBLIC "-//W3C//DTD SVG 1.1//EN"
 "http://www.w3.org/Graphics/SVG/1.1/DTD/svg11.dtd">
<!-- Generated by graphviz version 2.38.0 (20140413.2041)
 -->
<!-- Title: libraries/AP_HAL_SITL/UARTDriver.h Pages: 1 -->
<svg width="1453pt" height="587pt"
 viewBox="0.00 0.00 1453.27 587.00" xmlns="http://www.w3.org/2000/svg" xmlns:xlink="http://www.w3.org/1999/xlink">
<g id="graph0" class="graph" transform="scale(1 1) rotate(0) translate(4 583)">
<title>libraries/AP_HAL_SITL/UARTDriver.h</title>
<polygon fill="white" stroke="none" points="-4,4 -4,-583 1449.27,-583 1449.27,4 -4,4"/>
<!-- Node1 -->
<g id="node1" class="node"><title>Node1</title>
<polygon fill="#bfbfbf" stroke="black" points="764.708,-550.5 764.708,-578.5 883.53,-578.5 883.53,-550.5 764.708,-550.5"/>
<text text-anchor="start" x="772.708" y="-566.5" font-family="Helvetica,sans-Serif" font-size="10.00">libraries/AP_HAL_SITL</text>
<text text-anchor="middle" x="824.119" y="-556.5" font-family="Helvetica,sans-Serif" font-size="10.00">/UARTDriver.h</text>
</g>
<!-- Node2 -->
<g id="node2" class="node"><title>Node2</title>
<g id="a_node2"><a xlink:href="$AP__HAL_8h.html" xlink:title="AP_HAL/AP_HAL.h">
<polygon fill="white" stroke="black" points="683.206,-440.5 683.206,-458.5 787.033,-458.5 787.033,-440.5 683.206,-440.5"/>
<text text-anchor="middle" x="735.119" y="-446.5" font-family="Helvetica,sans-Serif" font-size="10.00">AP_HAL/AP_HAL.h</text>
</a>
</g>
</g>
<!-- Node1&#45;&gt;Node2 -->
<g id="edge1" class="edge"><title>Node1&#45;&gt;Node2</title>
<path fill="none" stroke="midnightblue" d="M797.457,-550.354C782.736,-541.848 765.236,-529.473 754.119,-514 744.468,-500.566 739.664,-482.197 737.308,-468.671"/>
<polygon fill="midnightblue" stroke="midnightblue" points="740.755,-468.054 735.851,-458.663 733.828,-469.063 740.755,-468.054"/>
</g>
<!-- Node3 -->
<g id="node3" class="node"><title>Node3</title>
<polygon fill="white" stroke="#bfbfbf" points="343.999,-110.5 343.999,-128.5 392.24,-128.5 392.24,-110.5 343.999,-110.5"/>
<text text-anchor="middle" x="368.119" y="-116.5" font-family="Helvetica,sans-Serif" font-size="10.00">stdint.h</text>
</g>
<!-- Node1&#45;&gt;Node3 -->
<g id="edge68" class="edge"><title>Node1&#45;&gt;Node3</title>
<path fill="none" stroke="midnightblue" d="M764.528,-561.599C575.251,-554.78 0.119308,-527.706 0.119308,-450.5 0.119308,-450.5 0.119308,-450.5 0.119308,-338.5 0.119308,-309.042 -0.357925,-297.101 19.1193,-275 63.3537,-224.808 254.955,-157.668 333.913,-131.547"/>
<polygon fill="midnightblue" stroke="midnightblue" points="335.437,-134.73 343.844,-128.282 333.251,-128.08 335.437,-134.73"/>
</g>
<!-- Node23 -->
<g id="node23" class="node"><title>Node23</title>
<polygon fill="white" stroke="#bfbfbf" points="1227.05,-165.5 1227.05,-183.5 1279.19,-183.5 1279.19,-165.5 1227.05,-165.5"/>
<text text-anchor="middle" x="1253.12" y="-171.5" font-family="Helvetica,sans-Serif" font-size="10.00">stdarg.h</text>
</g>
<!-- Node1&#45;&gt;Node23 -->
<g id="edge69" class="edge"><title>Node1&#45;&gt;Node23</title>
<path fill="none" stroke="midnightblue" d="M883.672,-560.798C1004.93,-553.668 1269.12,-529.113 1269.12,-450.5 1269.12,-450.5 1269.12,-450.5 1269.12,-338.5 1269.12,-285.785 1260.73,-223.937 1256.1,-193.829"/>
<polygon fill="midnightblue" stroke="midnightblue" points="1259.5,-192.944 1254.48,-183.613 1252.59,-194.037 1259.5,-192.944"/>
</g>
<!-- Node30 -->
<g id="node30" class="node"><title>Node30</title>
<g id="a_node30"><a xlink:href="$AP__HAL__SITL__Namespace_8h.html" xlink:title="AP_HAL_SITL_Namespace.h">
<polygon fill="white" stroke="black" points="1296.97,-495.5 1296.97,-513.5 1445.27,-513.5 1445.27,-495.5 1296.97,-495.5"/>
<text text-anchor="middle" x="1371.12" y="-501.5" font-family="Helvetica,sans-Serif" font-size="10.00">AP_HAL_SITL_Namespace.h</text>
</a>
</g>
</g>
<!-- Node1&#45;&gt;Node30 -->
<g id="edge70" class="edge"><title>Node1&#45;&gt;Node30</title>
<path fill="none" stroke="midnightblue" d="M883.699,-557.183C981.169,-546.848 1175.01,-526.294 1286.64,-514.458"/>
<polygon fill="midnightblue" stroke="midnightblue" points="1287.27,-517.911 1296.84,-513.376 1286.53,-510.95 1287.27,-517.911"/>
</g>
<!-- Node31 -->
<g id="node31" class="node"><title>Node31</title>
<g id="a_node31"><a xlink:href="$Socket_8h.html" xlink:title="AP_HAL/utility/Socket.h">
<polygon fill="white" stroke="black" points="763.317,-495.5 763.317,-513.5 884.922,-513.5 884.922,-495.5 763.317,-495.5"/>
<text text-anchor="middle" x="824.119" y="-501.5" font-family="Helvetica,sans-Serif" font-size="10.00">AP_HAL/utility/Socket.h</text>
</a>
</g>
</g>
<!-- Node1&#45;&gt;Node31 -->
<g id="edge71" class="edge"><title>Node1&#45;&gt;Node31</title>
<path fill="none" stroke="midnightblue" d="M824.119,-550.339C824.119,-542.531 824.119,-532.512 824.119,-523.927"/>
<polygon fill="midnightblue" stroke="midnightblue" points="827.619,-523.771 824.119,-513.771 820.619,-523.772 827.619,-523.771"/>
</g>
<!-- Node2&#45;&gt;Node3 -->
<g id="edge2" class="edge"><title>Node2&#45;&gt;Node3</title>
<path fill="none" stroke="midnightblue" d="M683.059,-446.924C564.605,-441.926 285.119,-421.547 285.119,-340.5 285.119,-340.5 285.119,-340.5 285.119,-283.5 285.119,-223.898 329.733,-164.076 353.543,-136.393"/>
<polygon fill="midnightblue" stroke="midnightblue" points="356.455,-138.385 360.46,-128.576 351.212,-133.746 356.455,-138.385"/>
</g>
<!-- Node4 -->
<g id="node4" class="node"><title>Node4</title>
<polygon fill="white" stroke="#bfbfbf" points="926.826,-110.5 926.826,-128.5 983.412,-128.5 983.412,-110.5 926.826,-110.5"/>
<text text-anchor="middle" x="955.119" y="-116.5" font-family="Helvetica,sans-Serif" font-size="10.00">stdbool.h</text>
</g>
<!-- Node2&#45;&gt;Node4 -->
<g id="edge3" class="edge"><title>Node2&#45;&gt;Node4</title>
<path fill="none" stroke="midnightblue" d="M746.071,-440.355C773.804,-419.199 847.55,-359.572 889.119,-294 921.997,-242.139 942.495,-171.366 950.829,-138.561"/>
<polygon fill="midnightblue" stroke="midnightblue" points="954.28,-139.18 953.269,-128.634 947.483,-137.509 954.28,-139.18"/>
</g>
<!-- Node5 -->
<g id="node5" class="node"><title>Node5</title>
<g id="a_node5"><a xlink:href="$AP__HAL__Namespace_8h.html" xlink:title="AP_HAL_Namespace.h">
<polygon fill="white" stroke="black" points="672.312,-55.5 672.312,-73.5 793.927,-73.5 793.927,-55.5 672.312,-55.5"/>
<text text-anchor="middle" x="733.119" y="-61.5" font-family="Helvetica,sans-Serif" font-size="10.00">AP_HAL_Namespace.h</text>
</a>
</g>
</g>
<!-- Node2&#45;&gt;Node5 -->
<g id="edge4" class="edge"><title>Node2&#45;&gt;Node5</title>
<path fill="none" stroke="midnightblue" d="M683.135,-449.217C569.155,-449.959 301.209,-446.931 223.119,-404 170.231,-374.924 68.7256,-219.752 94.1193,-165 110.042,-130.67 124.115,-124.381 159.119,-110 248.324,-73.3513 529.198,-66.6686 662.094,-65.5995"/>
<polygon fill="midnightblue" stroke="midnightblue" points="662.199,-69.099 672.174,-65.527 662.149,-62.0991 662.199,-69.099"/>
</g>
<!-- Node8 -->
<g id="node8" class="node"><title>Node8</title>
<g id="a_node8"><a xlink:href="$AP__HAL__Boards_8h.html" xlink:title="AP_HAL_Boards.h">
<polygon fill="white" stroke="black" points="567.149,-165.5 567.149,-183.5 667.09,-183.5 667.09,-165.5 567.149,-165.5"/>
<text text-anchor="middle" x="617.119" y="-171.5" font-family="Helvetica,sans-Serif" font-size="10.00">AP_HAL_Boards.h</text>
</a>
</g>
</g>
<!-- Node2&#45;&gt;Node8 -->
<g id="edge7" class="edge"><title>Node2&#45;&gt;Node8</title>
<path fill="none" stroke="midnightblue" d="M731.588,-440.33C715.336,-402.731 647.56,-245.927 624.692,-193.021"/>
<polygon fill="midnightblue" stroke="midnightblue" points="627.817,-191.429 620.637,-183.638 621.392,-194.206 627.817,-191.429"/>
</g>
<!-- Node9 -->
<g id="node9" class="node"><title>Node9</title>
<g id="a_node9"><a xlink:href="$AP__HAL__Macros_8h.html" xlink:title="AP_HAL_Macros.h">
<polygon fill="white" stroke="black" points="1063.6,-385.5 1063.6,-403.5 1164.64,-403.5 1164.64,-385.5 1063.6,-385.5"/>
<text text-anchor="middle" x="1114.12" y="-391.5" font-family="Helvetica,sans-Serif" font-size="10.00">AP_HAL_Macros.h</text>
</a>
</g>
</g>
<!-- Node2&#45;&gt;Node9 -->
<g id="edge8" class="edge"><title>Node2&#45;&gt;Node9</title>
<path fill="none" stroke="midnightblue" d="M787.42,-441.186C857.045,-431.45 979.931,-414.265 1053.52,-403.975"/>
<polygon fill="midnightblue" stroke="midnightblue" points="1054.14,-407.421 1063.56,-402.57 1053.18,-400.489 1054.14,-407.421"/>
</g>
<!-- Node10 -->
<g id="node10" class="node"><title>Node10</title>
<g id="a_node10"><a xlink:href="$AP__HAL__Main_8h.html" xlink:title="AP_HAL_Main.h">
<polygon fill="white" stroke="black" points="560.154,-385.5 560.154,-403.5 650.085,-403.5 650.085,-385.5 560.154,-385.5"/>
<text text-anchor="middle" x="605.119" y="-391.5" font-family="Helvetica,sans-Serif" font-size="10.00">AP_HAL_Main.h</text>
</a>
</g>
</g>
<!-- Node2&#45;&gt;Node10 -->
<g id="edge9" class="edge"><title>Node2&#45;&gt;Node10</title>
<path fill="none" stroke="midnightblue" d="M715.375,-440.45C693.804,-431.656 659.033,-417.48 634.309,-407.401"/>
<polygon fill="midnightblue" stroke="midnightblue" points="635.631,-404.16 625.049,-403.625 632.988,-410.642 635.631,-404.16"/>
</g>
<!-- Node11 -->
<g id="node11" class="node"><title>Node11</title>
<g id="a_node11"><a xlink:href="$HAL_8h.html" xlink:title="HAL.h">
<polygon fill="white" stroke="black" points="609.223,-330.5 609.223,-348.5 653.016,-348.5 653.016,-330.5 609.223,-330.5"/>
<text text-anchor="middle" x="631.119" y="-336.5" font-family="Helvetica,sans-Serif" font-size="10.00">HAL.h</text>
</a>
</g>
</g>
<!-- Node2&#45;&gt;Node11 -->
<g id="edge67" class="edge"><title>Node2&#45;&gt;Node11</title>
<path fill="none" stroke="midnightblue" d="M727.302,-440.382C710.062,-422.479 668.527,-379.347 646.094,-356.051"/>
<polygon fill="midnightblue" stroke="midnightblue" points="648.484,-353.487 639.027,-348.712 643.442,-358.343 648.484,-353.487"/>
</g>
<!-- Node12 -->
<g id="node12" class="node"><title>Node12</title>
<g id="a_node12"><a xlink:href="$AnalogIn_8h.html" xlink:title="AnalogIn.h">
<polygon fill="white" stroke="black" points="1101.21,-220.5 1101.21,-238.5 1165.03,-238.5 1165.03,-220.5 1101.21,-220.5"/>
<text text-anchor="middle" x="1133.12" y="-226.5" font-family="Helvetica,sans-Serif" font-size="10.00">AnalogIn.h</text>
</a>
</g>
</g>
<!-- Node2&#45;&gt;Node12 -->
<g id="edge49" class="edge"><title>Node2&#45;&gt;Node12</title>
<path fill="none" stroke="midnightblue" d="M787.26,-447.977C837.499,-445.416 914.203,-435.954 972.119,-404 1043.16,-364.806 1100.38,-282.868 1122.85,-247.431"/>
<polygon fill="midnightblue" stroke="midnightblue" points="1125.94,-249.085 1128.25,-238.743 1120,-245.391 1125.94,-249.085"/>
</g>
<!-- Node14 -->
<g id="node14" class="node"><title>Node14</title>
<g id="a_node14"><a xlink:href="$GPIO_8h.html" xlink:title="GPIO.h">
<polygon fill="white" stroke="black" points="313.447,-220.5 313.447,-238.5 362.792,-238.5 362.792,-220.5 313.447,-220.5"/>
<text text-anchor="middle" x="338.119" y="-226.5" font-family="Helvetica,sans-Serif" font-size="10.00">GPIO.h</text>
</a>
</g>
</g>
<!-- Node2&#45;&gt;Node14 -->
<g id="edge51" class="edge"><title>Node2&#45;&gt;Node14</title>
<path fill="none" stroke="midnightblue" d="M683.096,-445.876C637.566,-441.748 570.809,-431.155 519.119,-404 442.712,-363.86 376.082,-281.816 349.921,-246.861"/>
<polygon fill="midnightblue" stroke="midnightblue" points="352.646,-244.659 343.899,-238.681 347.009,-248.809 352.646,-244.659"/>
</g>
<!-- Node15 -->
<g id="node15" class="node"><title>Node15</title>
<g id="a_node15"><a xlink:href="$RCInput_8h.html" xlink:title="RCInput.h">
<polygon fill="white" stroke="black" points="723.607,-275.5 723.607,-293.5 784.632,-293.5 784.632,-275.5 723.607,-275.5"/>
<text text-anchor="middle" x="754.119" y="-281.5" font-family="Helvetica,sans-Serif" font-size="10.00">RCInput.h</text>
</a>
</g>
</g>
<!-- Node2&#45;&gt;Node15 -->
<g id="edge52" class="edge"><title>Node2&#45;&gt;Node15</title>
<path fill="none" stroke="midnightblue" d="M736.088,-440.193C739.023,-415.013 747.87,-339.114 751.979,-303.862"/>
<polygon fill="midnightblue" stroke="midnightblue" points="755.494,-303.935 753.175,-293.597 748.541,-303.125 755.494,-303.935"/>
</g>
<!-- Node16 -->
<g id="node16" class="node"><title>Node16</title>
<g id="a_node16"><a xlink:href="$RCOutput_8h.html" xlink:title="RCOutput.h">
<polygon fill="white" stroke="black" points="27.7179,-275.5 27.7179,-293.5 96.5207,-293.5 96.5207,-275.5 27.7179,-275.5"/>
<text text-anchor="middle" x="62.1193" y="-281.5" font-family="Helvetica,sans-Serif" font-size="10.00">RCOutput.h</text>
</a>
</g>
</g>
<!-- Node2&#45;&gt;Node16 -->
<g id="edge53" class="edge"><title>Node2&#45;&gt;Node16</title>
<path fill="none" stroke="midnightblue" d="M683.035,-447.912C541.262,-445.879 155.959,-437.317 110.119,-404 77.4412,-380.249 66.9666,-330.375 63.6414,-303.526"/>
<polygon fill="midnightblue" stroke="midnightblue" points="67.1221,-303.159 62.6101,-293.573 60.1594,-303.88 67.1221,-303.159"/>
</g>
<!-- Node17 -->
<g id="node17" class="node"><title>Node17</title>
<g id="a_node17"><a xlink:href="$SPIDriver_8h.html" xlink:title="SPIDriver.h">
<polygon fill="white" stroke="black" points="190.831,-275.5 190.831,-293.5 257.407,-293.5 257.407,-275.5 190.831,-275.5"/>
<text text-anchor="middle" x="224.119" y="-281.5" font-family="Helvetica,sans-Serif" font-size="10.00">SPIDriver.h</text>
</a>
</g>
</g>
<!-- Node2&#45;&gt;Node17 -->
<g id="edge48" class="edge"><title>Node2&#45;&gt;Node17</title>
<path fill="none" stroke="midnightblue" d="M682.868,-446.533C568.475,-441.795 303.467,-428.307 271.119,-404 239.061,-379.911 228.838,-330.56 225.601,-303.774"/>
<polygon fill="midnightblue" stroke="midnightblue" points="229.054,-303.121 224.575,-293.519 222.088,-303.818 229.054,-303.121"/>
</g>
<!-- Node18 -->
<g id="node18" class="node"><title>Node18</title>
<g id="a_node18"><a xlink:href="$Storage_8h.html" xlink:title="Storage.h">
<polygon fill="white" stroke="black" points="521.437,-275.5 521.437,-293.5 580.801,-293.5 580.801,-275.5 521.437,-275.5"/>
<text text-anchor="middle" x="551.119" y="-281.5" font-family="Helvetica,sans-Serif" font-size="10.00">Storage.h</text>
</a>
</g>
</g>
<!-- Node2&#45;&gt;Node18 -->
<g id="edge50" class="edge"><title>Node2&#45;&gt;Node18</title>
<path fill="none" stroke="midnightblue" d="M682.847,-443.018C634.344,-436.726 567.278,-424.532 551.119,-404 528.399,-375.13 537.376,-328.877 544.885,-303.539"/>
<polygon fill="midnightblue" stroke="midnightblue" points="548.29,-304.38 548.014,-293.789 541.625,-302.241 548.29,-304.38"/>
</g>
<!-- Node19 -->
<g id="node19" class="node"><title>Node19</title>
<g id="a_node19"><a xlink:href="$UARTDriver_8h.html" xlink:title="UARTDriver.h">
<polygon fill="white" stroke="black" points="802.367,-275.5 802.367,-293.5 879.871,-293.5 879.871,-275.5 802.367,-275.5"/>
<text text-anchor="middle" x="841.119" y="-281.5" font-family="Helvetica,sans-Serif" font-size="10.00">UARTDriver.h</text>
</a>
</g>
</g>
<!-- Node2&#45;&gt;Node19 -->
<g id="edge44" class="edge"><title>Node2&#45;&gt;Node19</title>
<path fill="none" stroke="midnightblue" d="M740.522,-440.193C757.181,-414.575 807.98,-336.459 830.35,-302.06"/>
<polygon fill="midnightblue" stroke="midnightblue" points="833.336,-303.889 835.854,-293.597 827.468,-300.072 833.336,-303.889"/>
</g>
<!-- Node22 -->
<g id="node22" class="node"><title>Node22</title>
<g id="a_node22"><a xlink:href="$BetterStream_8h.html" xlink:title="utility/BetterStream.h">
<polygon fill="white" stroke="black" points="974.713,-220.5 974.713,-238.5 1083.53,-238.5 1083.53,-220.5 974.713,-220.5"/>
<text text-anchor="middle" x="1029.12" y="-226.5" font-family="Helvetica,sans-Serif" font-size="10.00">utility/BetterStream.h</text>
</a>
</g>
</g>
<!-- Node2&#45;&gt;Node22 -->
<g id="edge66" class="edge"><title>Node2&#45;&gt;Node22</title>
<path fill="none" stroke="midnightblue" d="M787.094,-446.456C850.89,-440.793 956.459,-420.458 1004.12,-349 1024.67,-318.195 1028.77,-273.694 1029.34,-248.919"/>
<polygon fill="midnightblue" stroke="midnightblue" points="1032.84,-248.783 1029.39,-238.765 1025.84,-248.747 1032.84,-248.783"/>
</g>
<!-- Node24 -->
<g id="node24" class="node"><title>Node24</title>
<g id="a_node24"><a xlink:href="$Stream_8h.html" xlink:title="Stream.h">
<polygon fill="white" stroke="black" points="1114.83,-165.5 1114.83,-183.5 1171.4,-183.5 1171.4,-165.5 1114.83,-165.5"/>
<text text-anchor="middle" x="1143.12" y="-171.5" font-family="Helvetica,sans-Serif" font-size="10.00">Stream.h</text>
</a>
</g>
</g>
<!-- Node2&#45;&gt;Node24 -->
<g id="edge65" class="edge"><title>Node2&#45;&gt;Node24</title>
<path fill="none" stroke="midnightblue" d="M787.177,-446.438C897.014,-441.632 1144.81,-428.214 1174.12,-404 1196.83,-385.236 1193.12,-369.958 1193.12,-340.5 1193.12,-340.5 1193.12,-340.5 1193.12,-283.5 1193.12,-248.202 1170.85,-211.919 1156.04,-191.685"/>
<polygon fill="midnightblue" stroke="midnightblue" points="1158.71,-189.413 1149.86,-183.579 1153.14,-193.655 1158.71,-189.413"/>
</g>
<!-- Node25 -->
<g id="node25" class="node"><title>Node25</title>
<g id="a_node25"><a xlink:href="$Print_8h.html" xlink:title="Print.h">
<polygon fill="white" stroke="black" points="1190.67,-110.5 1190.67,-128.5 1235.57,-128.5 1235.57,-110.5 1190.67,-110.5"/>
<text text-anchor="middle" x="1213.12" y="-116.5" font-family="Helvetica,sans-Serif" font-size="10.00">Print.h</text>
</a>
</g>
</g>
<!-- Node2&#45;&gt;Node25 -->
<g id="edge64" class="edge"><title>Node2&#45;&gt;Node25</title>
<path fill="none" stroke="midnightblue" d="M787.138,-446.524C897.296,-441.907 1150.75,-428.867 1233.12,-404 1289.76,-386.901 1350.12,-399.665 1350.12,-340.5 1350.12,-340.5 1350.12,-340.5 1350.12,-228.5 1350.12,-175.339 1285.71,-144.305 1245.22,-130.047"/>
<polygon fill="midnightblue" stroke="midnightblue" points="1246.34,-126.73 1235.74,-126.86 1244.1,-133.365 1246.34,-126.73"/>
</g>
<!-- Node26 -->
<g id="node26" class="node"><title>Node26</title>
<g id="a_node26"><a xlink:href="$I2CDriver_8h.html" xlink:title="I2CDriver.h">
<polygon fill="white" stroke="black" points="103.11,-165.5 103.11,-183.5 169.129,-183.5 169.129,-165.5 103.11,-165.5"/>
<text text-anchor="middle" x="136.119" y="-171.5" font-family="Helvetica,sans-Serif" font-size="10.00">I2CDriver.h</text>
</a>
</g>
</g>
<!-- Node2&#45;&gt;Node26 -->
<g id="edge45" class="edge"><title>Node2&#45;&gt;Node26</title>
<path fill="none" stroke="midnightblue" d="M683.138,-446.315C565.704,-441.01 287.288,-426.231 251.119,-404 173.851,-356.507 146.678,-239.372 138.847,-193.932"/>
<polygon fill="midnightblue" stroke="midnightblue" points="142.26,-193.109 137.221,-183.789 135.348,-194.217 142.26,-193.109"/>
</g>
<!-- Node27 -->
<g id="node27" class="node"><title>Node27</title>
<g id="a_node27"><a xlink:href="$Scheduler_8h.html" xlink:title="Scheduler.h">
<polygon fill="white" stroke="black" points="456.708,-220.5 456.708,-238.5 525.53,-238.5 525.53,-220.5 456.708,-220.5"/>
<text text-anchor="middle" x="491.119" y="-226.5" font-family="Helvetica,sans-Serif" font-size="10.00">Scheduler.h</text>
</a>
</g>
</g>
<!-- Node2&#45;&gt;Node27 -->
<g id="edge54" class="edge"><title>Node2&#45;&gt;Node27</title>
<path fill="none" stroke="midnightblue" d="M682.761,-442.794C631.613,-436.175 558.56,-423.592 538.119,-404 494.6,-362.288 489.997,-284.742 490.358,-249.188"/>
<polygon fill="midnightblue" stroke="midnightblue" points="493.866,-248.939 490.622,-238.853 486.868,-248.76 493.866,-248.939"/>
</g>
<!-- Node28 -->
<g id="node28" class="node"><title>Node28</title>
<g id="a_node28"><a xlink:href="$Semaphores_8h.html" xlink:title="Semaphores.h">
<polygon fill="white" stroke="black" points="913.6,-330.5 913.6,-348.5 994.639,-348.5 994.639,-330.5 913.6,-330.5"/>
<text text-anchor="middle" x="954.119" y="-336.5" font-family="Helvetica,sans-Serif" font-size="10.00">Semaphores.h</text>
</a>
</g>
</g>
<!-- Node2&#45;&gt;Node28 -->
<g id="edge59" class="edge"><title>Node2&#45;&gt;Node28</title>
<path fill="none" stroke="midnightblue" d="M787.048,-442.404C820.985,-436.571 865.146,-425.346 899.119,-404 917.962,-392.161 933.881,-371.877 943.668,-357.421"/>
<polygon fill="midnightblue" stroke="midnightblue" points="946.683,-359.205 949.184,-348.91 940.808,-355.398 946.683,-359.205"/>
</g>
<!-- Node29 -->
<g id="node29" class="node"><title>Node29</title>
<g id="a_node29"><a xlink:href="$Util_8h.html" xlink:title="Util.h">
<polygon fill="white" stroke="black" points="1283.73,-220.5 1283.73,-238.5 1322.51,-238.5 1322.51,-220.5 1283.73,-220.5"/>
<text text-anchor="middle" x="1303.12" y="-226.5" font-family="Helvetica,sans-Serif" font-size="10.00">Util.h</text>
</a>
</g>
</g>
<!-- Node2&#45;&gt;Node29 -->
<g id="edge61" class="edge"><title>Node2&#45;&gt;Node29</title>
<path fill="none" stroke="midnightblue" d="M787.187,-446.319C902.625,-441.096 1172.6,-426.6 1207.12,-404 1263.51,-367.076 1289.8,-285.133 1299.05,-248.64"/>
<polygon fill="midnightblue" stroke="midnightblue" points="1302.55,-249.043 1301.47,-238.504 1295.74,-247.418 1302.55,-249.043"/>
</g>
<!-- Node6 -->
<g id="node6" class="node"><title>Node6</title>
<polygon fill="white" stroke="#bfbfbf" points="889.723,-0.5 889.723,-18.5 938.516,-18.5 938.516,-0.5 889.723,-0.5"/>
<text text-anchor="middle" x="914.119" y="-6.5" font-family="Helvetica,sans-Serif" font-size="10.00">string.h</text>
</g>
<!-- Node5&#45;&gt;Node6 -->
<g id="edge5" class="edge"><title>Node5&#45;&gt;Node6</title>
<path fill="none" stroke="midnightblue" d="M760.609,-55.4504C792.563,-46.0939 845.321,-30.6453 879.901,-20.5198"/>
<polygon fill="midnightblue" stroke="midnightblue" points="880.959,-23.8571 889.572,-17.6879 878.991,-17.1392 880.959,-23.8571"/>
</g>
<!-- Node7 -->
<g id="node7" class="node"><title>Node7</title>
<g id="a_node7"><a xlink:href="$functor_8h.html" xlink:title="utility/functor.h">
<polygon fill="white" stroke="black" points="693.156,-0.5 693.156,-18.5 773.082,-18.5 773.082,-0.5 693.156,-0.5"/>
<text text-anchor="middle" x="733.119" y="-6.5" font-family="Helvetica,sans-Serif" font-size="10.00">utility/functor.h</text>
</a>
</g>
</g>
<!-- Node5&#45;&gt;Node7 -->
<g id="edge6" class="edge"><title>Node5&#45;&gt;Node7</title>
<path fill="none" stroke="midnightblue" d="M733.119,-55.2188C733.119,-48.1769 733.119,-37.8083 733.119,-28.8277"/>
<polygon fill="midnightblue" stroke="midnightblue" points="736.619,-28.5495 733.119,-18.5496 729.619,-28.5496 736.619,-28.5495"/>
</g>
<!-- Node10&#45;&gt;Node11 -->
<g id="edge10" class="edge"><title>Node10&#45;&gt;Node11</title>
<path fill="none" stroke="midnightblue" d="M609.182,-385.219C612.79,-377.864 618.178,-366.88 622.712,-357.639"/>
<polygon fill="midnightblue" stroke="midnightblue" points="625.908,-359.069 627.17,-348.55 619.624,-355.986 625.908,-359.069"/>
</g>
<!-- Node11&#45;&gt;Node5 -->
<g id="edge11" class="edge"><title>Node11&#45;&gt;Node5</title>
<path fill="none" stroke="midnightblue" d="M634.172,-330.33C648.22,-292.731 706.806,-135.927 726.573,-83.0208"/>
<polygon fill="midnightblue" stroke="midnightblue" points="729.857,-84.231 730.079,-73.6385 723.3,-81.781 729.857,-84.231"/>
</g>
<!-- Node11&#45;&gt;Node12 -->
<g id="edge12" class="edge"><title>Node11&#45;&gt;Node12</title>
<path fill="none" stroke="midnightblue" d="M653.327,-335.311C698.136,-328.736 802.483,-312.71 889.119,-294 962.663,-278.117 1047.45,-254.935 1095.22,-241.417"/>
<polygon fill="midnightblue" stroke="midnightblue" points="1096.46,-244.704 1105.12,-238.604 1094.55,-237.97 1096.46,-244.704"/>
</g>
<!-- Node11&#45;&gt;Node14 -->
<g id="edge15" class="edge"><title>Node11&#45;&gt;Node14</title>
<path fill="none" stroke="midnightblue" d="M609.097,-330.382C557.641,-311.416 429.376,-264.137 369.648,-242.121"/>
<polygon fill="midnightblue" stroke="midnightblue" points="370.591,-238.739 359.998,-238.564 368.17,-245.307 370.591,-238.739"/>
</g>
<!-- Node11&#45;&gt;Node15 -->
<g id="edge18" class="edge"><title>Node11&#45;&gt;Node15</title>
<path fill="none" stroke="midnightblue" d="M649.8,-330.45C670.029,-321.734 702.527,-307.731 725.878,-297.669"/>
<polygon fill="midnightblue" stroke="midnightblue" points="727.464,-300.797 735.262,-293.625 724.694,-294.368 727.464,-300.797"/>
</g>
<!-- Node11&#45;&gt;Node16 -->
<g id="edge20" class="edge"><title>Node11&#45;&gt;Node16</title>
<path fill="none" stroke="midnightblue" d="M609.162,-336.455C524.99,-328.614 221.874,-300.38 106.83,-289.665"/>
<polygon fill="midnightblue" stroke="midnightblue" points="106.899,-286.156 96.6178,-288.713 106.25,-293.126 106.899,-286.156"/>
</g>
<!-- Node11&#45;&gt;Node17 -->
<g id="edge22" class="edge"><title>Node11&#45;&gt;Node17</title>
<path fill="none" stroke="midnightblue" d="M608.948,-335.613C544.071,-327.165 353.763,-302.382 267.505,-291.15"/>
<polygon fill="midnightblue" stroke="midnightblue" points="267.885,-287.67 257.517,-289.849 266.981,-294.611 267.885,-287.67"/>
</g>
<!-- Node11&#45;&gt;Node18 -->
<g id="edge24" class="edge"><title>Node11&#45;&gt;Node18</title>
<path fill="none" stroke="midnightblue" d="M618.969,-330.45C606.517,-322.201 586.917,-309.216 571.978,-299.319"/>
<polygon fill="midnightblue" stroke="midnightblue" points="573.653,-296.231 563.384,-293.625 569.787,-302.066 573.653,-296.231"/>
</g>
<!-- Node11&#45;&gt;Node19 -->
<g id="edge27" class="edge"><title>Node11&#45;&gt;Node19</title>
<path fill="none" stroke="midnightblue" d="M653.196,-332.928C687.78,-324.2 755.318,-307.155 799.303,-296.054"/>
<polygon fill="midnightblue" stroke="midnightblue" points="800.287,-299.415 809.127,-293.574 798.574,-292.628 800.287,-299.415"/>
</g>
<!-- Node12&#45;&gt;Node5 -->
<g id="edge14" class="edge"><title>Node12&#45;&gt;Node5</title>
<path fill="none" stroke="midnightblue" d="M1128.28,-220.433C1113.49,-196.042 1068.46,-123.892 1045.12,-110 1005.63,-86.4999 883.659,-74.681 804.432,-69.3311"/>
<polygon fill="midnightblue" stroke="midnightblue" points="804.238,-65.811 794.031,-68.6492 803.78,-72.796 804.238,-65.811"/>
</g>
<!-- Node13 -->
<g id="node13" class="node"><title>Node13</title>
<polygon fill="white" stroke="#bfbfbf" points="1208.72,-55.5 1208.72,-73.5 1267.52,-73.5 1267.52,-55.5 1208.72,-55.5"/>
<text text-anchor="middle" x="1238.12" y="-61.5" font-family="Helvetica,sans-Serif" font-size="10.00">inttypes.h</text>
</g>
<!-- Node12&#45;&gt;Node13 -->
<g id="edge13" class="edge"><title>Node12&#45;&gt;Node13</title>
<path fill="none" stroke="midnightblue" d="M1144.43,-220.272C1170.51,-201.02 1233.46,-152.867 1244.12,-129 1250.54,-114.623 1247.98,-96.6276 1244.43,-83.4682"/>
<polygon fill="midnightblue" stroke="midnightblue" points="1247.71,-82.241 1241.39,-73.7373 1241.03,-84.3259 1247.71,-82.241"/>
</g>
<!-- Node14&#45;&gt;Node3 -->
<g id="edge16" class="edge"><title>Node14&#45;&gt;Node3</title>
<path fill="none" stroke="midnightblue" d="M340.374,-220.382C345.174,-203.104 356.5,-162.329 363.102,-138.563"/>
<polygon fill="midnightblue" stroke="midnightblue" points="366.534,-139.284 365.838,-128.712 359.789,-137.41 366.534,-139.284"/>
</g>
<!-- Node14&#45;&gt;Node5 -->
<g id="edge17" class="edge"><title>Node14&#45;&gt;Node5</title>
<path fill="none" stroke="midnightblue" d="M334.586,-220.321C326.022,-199.075 306.857,-141.599 335.119,-110 356.476,-86.1219 553.371,-73.5604 661.98,-68.3974"/>
<polygon fill="midnightblue" stroke="midnightblue" points="662.38,-71.8826 672.206,-67.9207 662.054,-64.8902 662.38,-71.8826"/>
</g>
<!-- Node15&#45;&gt;Node5 -->
<g id="edge19" class="edge"><title>Node15&#45;&gt;Node5</title>
<path fill="none" stroke="midnightblue" d="M753.347,-275.483C750.325,-244.107 739.252,-129.159 734.896,-83.9443"/>
<polygon fill="midnightblue" stroke="midnightblue" points="738.364,-83.4414 733.921,-73.8231 731.396,-84.1126 738.364,-83.4414"/>
</g>
<!-- Node16&#45;&gt;Node5 -->
<g id="edge21" class="edge"><title>Node16&#45;&gt;Node5</title>
<path fill="none" stroke="midnightblue" d="M58.6451,-275.213C47.6492,-247.521 16.8642,-157.283 61.1193,-110 101.521,-66.8345 497.58,-64.0996 662.066,-64.8533"/>
<polygon fill="midnightblue" stroke="midnightblue" points="662.07,-68.3533 672.088,-64.9049 662.106,-61.3534 662.07,-68.3533"/>
</g>
<!-- Node17&#45;&gt;Node5 -->
<g id="edge23" class="edge"><title>Node17&#45;&gt;Node5</title>
<path fill="none" stroke="midnightblue" d="M225.93,-275.128C232.634,-246.366 258.945,-151.118 321.119,-110 375.436,-74.0782 558.962,-66.708 661.792,-65.4719"/>
<polygon fill="midnightblue" stroke="midnightblue" points="662.129,-68.9686 672.093,-65.3653 662.057,-61.969 662.129,-68.9686"/>
</g>
<!-- Node18&#45;&gt;Node3 -->
<g id="edge25" class="edge"><title>Node18&#45;&gt;Node3</title>
<path fill="none" stroke="midnightblue" d="M521.213,-276.853C486.075,-268.518 430.592,-253.552 415.119,-239 386.188,-211.792 374.723,-164.503 370.453,-138.654"/>
<polygon fill="midnightblue" stroke="midnightblue" points="373.91,-138.107 368.997,-128.721 366.985,-139.123 373.91,-138.107"/>
</g>
<!-- Node18&#45;&gt;Node5 -->
<g id="edge26" class="edge"><title>Node18&#45;&gt;Node5</title>
<path fill="none" stroke="midnightblue" d="M549.12,-275.237C544.654,-254.752 535.915,-200.7 558.119,-165 587.938,-117.056 649.812,-89.9989 691.409,-76.5597"/>
<polygon fill="midnightblue" stroke="midnightblue" points="692.482,-79.8917 700.996,-73.5863 690.408,-73.2059 692.482,-79.8917"/>
</g>
<!-- Node19&#45;&gt;Node3 -->
<g id="edge28" class="edge"><title>Node19&#45;&gt;Node3</title>
<path fill="none" stroke="midnightblue" d="M802.173,-276.224C799.451,-275.787 796.746,-275.374 794.119,-275 717.586,-264.114 514.411,-278.766 448.119,-239 437.847,-232.838 397.581,-168.594 378.394,-137.363"/>
<polygon fill="midnightblue" stroke="midnightblue" points="381.378,-135.534 373.173,-128.831 375.408,-139.188 381.378,-135.534"/>
</g>
<!-- Node19&#45;&gt;Node5 -->
<g id="edge33" class="edge"><title>Node19&#45;&gt;Node5</title>
<path fill="none" stroke="midnightblue" d="M848.279,-275.442C865.649,-255.684 909.117,-204.924 916.119,-184 918.799,-175.992 919.125,-172.892 916.119,-165 896.574,-113.679 835.823,-88.2328 789.63,-76.0225"/>
<polygon fill="midnightblue" stroke="midnightblue" points="790.27,-72.5746 779.719,-73.5434 788.571,-79.3654 790.27,-72.5746"/>
</g>
<!-- Node20 -->
<g id="node20" class="node"><title>Node20</title>
<g id="a_node20"><a xlink:href="$AP__Common_8h.html" xlink:title="Common definitions and utility routines for the ArduPilot libraries. ">
<polygon fill="white" stroke="black" points="761.092,-165.5 761.092,-183.5 907.146,-183.5 907.146,-165.5 761.092,-165.5"/>
<text text-anchor="middle" x="834.119" y="-171.5" font-family="Helvetica,sans-Serif" font-size="10.00">AP_Common/AP_Common.h</text>
</a>
</g>
</g>
<!-- Node19&#45;&gt;Node20 -->
<g id="edge29" class="edge"><title>Node19&#45;&gt;Node20</title>
<path fill="none" stroke="midnightblue" d="M840.593,-275.382C839.478,-258.182 836.854,-217.698 835.311,-193.887"/>
<polygon fill="midnightblue" stroke="midnightblue" points="838.791,-193.464 834.652,-183.712 831.806,-193.917 838.791,-193.464"/>
</g>
<!-- Node19&#45;&gt;Node22 -->
<g id="edge34" class="edge"><title>Node19&#45;&gt;Node22</title>
<path fill="none" stroke="midnightblue" d="M869.672,-275.45C902.065,-266.318 955.043,-251.383 990.959,-241.258"/>
<polygon fill="midnightblue" stroke="midnightblue" points="991.931,-244.62 1000.61,-238.538 990.032,-237.883 991.931,-244.62"/>
</g>
<!-- Node20&#45;&gt;Node3 -->
<g id="edge30" class="edge"><title>Node20&#45;&gt;Node3</title>
<path fill="none" stroke="midnightblue" d="M763.597,-165.479C662.02,-153.926 478.405,-133.043 402.445,-124.404"/>
<polygon fill="midnightblue" stroke="midnightblue" points="402.792,-120.921 392.461,-123.268 402.001,-127.876 402.792,-120.921"/>
</g>
<!-- Node20&#45;&gt;Node4 -->
<g id="edge32" class="edge"><title>Node20&#45;&gt;Node4</title>
<path fill="none" stroke="midnightblue" d="M852.497,-165.45C872.396,-156.734 904.366,-142.731 927.337,-132.669"/>
<polygon fill="midnightblue" stroke="midnightblue" points="928.813,-135.843 936.569,-128.625 926.005,-129.432 928.813,-135.843"/>
</g>
<!-- Node21 -->
<g id="node21" class="node"><title>Node21</title>
<polygon fill="white" stroke="#bfbfbf" points="810.277,-110.5 810.277,-128.5 857.962,-128.5 857.962,-110.5 810.277,-110.5"/>
<text text-anchor="middle" x="834.119" y="-116.5" font-family="Helvetica,sans-Serif" font-size="10.00">stdlib.h</text>
</g>
<!-- Node20&#45;&gt;Node21 -->
<g id="edge31" class="edge"><title>Node20&#45;&gt;Node21</title>
<path fill="none" stroke="midnightblue" d="M834.119,-165.219C834.119,-158.177 834.119,-147.808 834.119,-138.828"/>
<polygon fill="midnightblue" stroke="midnightblue" points="837.619,-138.55 834.119,-128.55 830.619,-138.55 837.619,-138.55"/>
</g>
<!-- Node22&#45;&gt;Node5 -->
<g id="edge37" class="edge"><title>Node22&#45;&gt;Node5</title>
<path fill="none" stroke="midnightblue" d="M1031.95,-220.332C1038.71,-199.111 1053.29,-141.693 1025.12,-110 996.672,-77.9969 881.075,-68.8108 804.14,-66.2916"/>
<polygon fill="midnightblue" stroke="midnightblue" points="804.122,-62.7896 794.022,-65.9912 803.914,-69.7866 804.122,-62.7896"/>
</g>
<!-- Node22&#45;&gt;Node20 -->
<g id="edge36" class="edge"><title>Node22&#45;&gt;Node20</title>
<path fill="none" stroke="midnightblue" d="M999.503,-220.45C965.904,-211.318 910.954,-196.383 873.7,-186.258"/>
<polygon fill="midnightblue" stroke="midnightblue" points="874.262,-182.784 863.694,-183.538 872.426,-189.539 874.262,-182.784"/>
</g>
<!-- Node22&#45;&gt;Node23 -->
<g id="edge35" class="edge"><title>Node22&#45;&gt;Node23</title>
<path fill="none" stroke="midnightblue" d="M1063.14,-220.45C1104.64,-210.632 1174.48,-194.106 1216.93,-184.062"/>
<polygon fill="midnightblue" stroke="midnightblue" points="1217.92,-187.425 1226.85,-181.716 1216.31,-180.613 1217.92,-187.425"/>
</g>
<!-- Node22&#45;&gt;Node24 -->
<g id="edge38" class="edge"><title>Node22&#45;&gt;Node24</title>
<path fill="none" stroke="midnightblue" d="M1046.43,-220.45C1065.01,-211.812 1094.77,-197.98 1116.36,-187.94"/>
<polygon fill="midnightblue" stroke="midnightblue" points="1118.05,-191.015 1125.64,-183.625 1115.1,-184.667 1118.05,-191.015"/>
</g>
<!-- Node24&#45;&gt;Node5 -->
<g id="edge39" class="edge"><title>Node24&#45;&gt;Node5</title>
<path fill="none" stroke="midnightblue" d="M1140.28,-165.204C1135,-151.184 1122.26,-123.06 1101.12,-110 1052.9,-80.2111 896.81,-70.3478 804.124,-67.0929"/>
<polygon fill="midnightblue" stroke="midnightblue" points="804.088,-63.5899 793.977,-66.7541 803.854,-70.586 804.088,-63.5899"/>
</g>
<!-- Node24&#45;&gt;Node25 -->
<g id="edge40" class="edge"><title>Node24&#45;&gt;Node25</title>
<path fill="none" stroke="midnightblue" d="M1153.75,-165.45C1164.44,-157.357 1181.15,-144.704 1194.12,-134.882"/>
<polygon fill="midnightblue" stroke="midnightblue" points="1196.53,-137.452 1202.39,-128.625 1192.3,-131.871 1196.53,-137.452"/>
</g>
<!-- Node25&#45;&gt;Node5 -->
<g id="edge41" class="edge"><title>Node25&#45;&gt;Node5</title>
<path fill="none" stroke="midnightblue" d="M1190.36,-112.647C1185.99,-111.659 1181.43,-110.721 1177.12,-110 1046.48,-88.1288 892.287,-75.6223 804.279,-69.7275"/>
<polygon fill="midnightblue" stroke="midnightblue" points="804.351,-66.2247 794.142,-69.0582 803.89,-73.2095 804.351,-66.2247"/>
</g>
<!-- Node25&#45;&gt;Node6 -->
<g id="edge43" class="edge"><title>Node25&#45;&gt;Node6</title>
<path fill="none" stroke="midnightblue" d="M1190.65,-110.382C1138.03,-91.3766 1006.7,-43.9418 945.916,-21.9852"/>
<polygon fill="midnightblue" stroke="midnightblue" points="947.04,-18.6699 936.446,-18.5644 944.662,-25.2536 947.04,-18.6699"/>
</g>
<!-- Node25&#45;&gt;Node13 -->
<g id="edge42" class="edge"><title>Node25&#45;&gt;Node13</title>
<path fill="none" stroke="midnightblue" d="M1217.03,-110.219C1220.49,-102.864 1225.68,-91.8801 1230.03,-82.639"/>
<polygon fill="midnightblue" stroke="midnightblue" points="1233.22,-84.0871 1234.32,-73.5496 1226.89,-81.1007 1233.22,-84.0871"/>
</g>
<!-- Node26&#45;&gt;Node3 -->
<g id="edge46" class="edge"><title>Node26&#45;&gt;Node3</title>
<path fill="none" stroke="midnightblue" d="M169.359,-165.906C213.089,-155.916 289.56,-138.447 333.814,-128.337"/>
<polygon fill="midnightblue" stroke="midnightblue" points="334.834,-131.694 343.803,-126.055 333.275,-124.87 334.834,-131.694"/>
</g>
<!-- Node26&#45;&gt;Node5 -->
<g id="edge47" class="edge"><title>Node26&#45;&gt;Node5</title>
<path fill="none" stroke="midnightblue" d="M139.535,-165.09C145.798,-150.899 160.58,-122.524 183.119,-110 224.018,-87.2744 522.796,-73.3187 662.045,-67.9823"/>
<polygon fill="midnightblue" stroke="midnightblue" points="662.333,-71.474 672.193,-67.5979 662.067,-64.479 662.333,-71.474"/>
</g>
<!-- Node27&#45;&gt;Node3 -->
<g id="edge55" class="edge"><title>Node27&#45;&gt;Node3</title>
<path fill="none" stroke="midnightblue" d="M485.761,-220.37C477.048,-207.554 458.791,-182.332 439.119,-165 425.062,-152.614 407.179,-141.428 392.877,-133.369"/>
<polygon fill="midnightblue" stroke="midnightblue" points="394.524,-130.281 384.073,-128.544 391.16,-136.419 394.524,-130.281"/>
</g>
<!-- Node27&#45;&gt;Node5 -->
<g id="edge58" class="edge"><title>Node27&#45;&gt;Node5</title>
<path fill="none" stroke="midnightblue" d="M490.82,-220.461C490.492,-199.052 492.735,-140.234 525.119,-110 544.826,-91.6015 609.72,-79.714 661.843,-72.8957"/>
<polygon fill="midnightblue" stroke="midnightblue" points="662.6,-76.3279 672.08,-71.5991 661.72,-69.3834 662.6,-76.3279"/>
</g>
<!-- Node27&#45;&gt;Node8 -->
<g id="edge57" class="edge"><title>Node27&#45;&gt;Node8</title>
<path fill="none" stroke="midnightblue" d="M510.256,-220.45C531.071,-211.695 564.567,-197.606 588.509,-187.535"/>
<polygon fill="midnightblue" stroke="midnightblue" points="589.942,-190.729 597.803,-183.625 587.228,-184.276 589.942,-190.729"/>
</g>
<!-- Node27&#45;&gt;Node20 -->
<g id="edge56" class="edge"><title>Node27&#45;&gt;Node20</title>
<path fill="none" stroke="midnightblue" d="M525.578,-223.175C583.14,-214.281 699.645,-196.279 771.866,-185.119"/>
<polygon fill="midnightblue" stroke="midnightblue" points="772.84,-188.51 782.188,-183.524 771.771,-181.593 772.84,-188.51"/>
</g>
<!-- Node28&#45;&gt;Node5 -->
<g id="edge60" class="edge"><title>Node28&#45;&gt;Node5</title>
<path fill="none" stroke="midnightblue" d="M953.78,-330.499C953.197,-311.041 953.134,-259.918 966.119,-220 971.849,-202.385 981.48,-201.644 987.119,-184 997.155,-152.601 1013.36,-135.205 992.119,-110 968.522,-82.0023 872.697,-71.6195 804.494,-67.7692"/>
<polygon fill="midnightblue" stroke="midnightblue" points="804.393,-64.2591 794.222,-67.2264 804.023,-71.2493 804.393,-64.2591"/>
</g>
<!-- Node29&#45;&gt;Node5 -->
<g id="edge63" class="edge"><title>Node29&#45;&gt;Node5</title>
<path fill="none" stroke="midnightblue" d="M1303.55,-220.347C1303.8,-207.04 1302.31,-180.578 1288.12,-165 1287.31,-164.117 1126.29,-110.26 1125.12,-110 1014.75,-85.4089 883.713,-74.0282 804.561,-69.0464"/>
<polygon fill="midnightblue" stroke="midnightblue" points="804.415,-65.531 794.22,-68.4134 803.987,-72.5179 804.415,-65.531"/>
</g>
<!-- Node29&#45;&gt;Node23 -->
<g id="edge62" class="edge"><title>Node29&#45;&gt;Node23</title>
<path fill="none" stroke="midnightblue" d="M1295.31,-220.219C1287.93,-212.394 1276.67,-200.463 1267.64,-190.892"/>
<polygon fill="midnightblue" stroke="midnightblue" points="1270.12,-188.422 1260.71,-183.55 1265.03,-193.225 1270.12,-188.422"/>
</g>
<!-- Node31&#45;&gt;Node2 -->
<g id="edge72" class="edge"><title>Node31&#45;&gt;Node2</title>
<path fill="none" stroke="midnightblue" d="M810.602,-495.45C796.488,-487.045 774.118,-473.724 757.389,-463.762"/>
<polygon fill="midnightblue" stroke="midnightblue" points="759.146,-460.735 748.764,-458.625 755.565,-466.749 759.146,-460.735"/>
</g>
</g>
</svg>
