<?xml version="1.0" encoding="UTF-8" standalone="no"?>
<!DOCTYPE svg PUBLIC "-//W3C//DTD SVG 1.1//EN"
 "http://www.w3.org/Graphics/SVG/1.1/DTD/svg11.dtd">
<!-- Generated by graphviz version 2.38.0 (20140413.2041)
 -->
<!-- Title: libraries/AP_HAL/SPIDriver.h Pages: 1 -->
<svg width="162pt" height="137pt"
 viewBox="0.00 0.00 161.71 137.00" xmlns="http://www.w3.org/2000/svg" xmlns:xlink="http://www.w3.org/1999/xlink">
<g id="graph0" class="graph" transform="scale(1 1) rotate(0) translate(4 133)">
<title>libraries/AP_HAL/SPIDriver.h</title>
<polygon fill="white" stroke="none" points="-4,4 -4,-133 157.711,-133 157.711,4 -4,4"/>
<!-- Node1 -->
<g id="node1" class="node"><title>Node1</title>
<polygon fill="#bfbfbf" stroke="black" points="0,-110.5 0,-128.5 145.497,-128.5 145.497,-110.5 0,-110.5"/>
<text text-anchor="middle" x="72.7485" y="-116.5" font-family="Helvetica,sans-Serif" font-size="10.00">libraries/AP_HAL/SPIDriver.h</text>
</g>
<!-- Node2 -->
<g id="node2" class="node"><title>Node2</title>
<g id="a_node2"><a xlink:href="$AP__HAL__Namespace_8h.html" xlink:title="AP_HAL_Namespace.h">
<polygon fill="white" stroke="black" points="11.9409,-55.5 11.9409,-73.5 133.556,-73.5 133.556,-55.5 11.9409,-55.5"/>
<text text-anchor="middle" x="72.7485" y="-61.5" font-family="Helvetica,sans-Serif" font-size="10.00">AP_HAL_Namespace.h</text>
</a>
</g>
</g>
<!-- Node1&#45;&gt;Node2 -->
<g id="edge1" class="edge"><title>Node1&#45;&gt;Node2</title>
<path fill="none" stroke="midnightblue" d="M72.7485,-110.219C72.7485,-103.177 72.7485,-92.8083 72.7485,-83.8277"/>
<polygon fill="midnightblue" stroke="midnightblue" points="76.2486,-83.5495 72.7485,-73.5496 69.2486,-83.5496 76.2486,-83.5495"/>
</g>
<!-- Node3 -->
<g id="node3" class="node"><title>Node3</title>
<polygon fill="white" stroke="#bfbfbf" points="7.35205,-0.5 7.35205,-18.5 56.145,-18.5 56.145,-0.5 7.35205,-0.5"/>
<text text-anchor="middle" x="31.7485" y="-6.5" font-family="Helvetica,sans-Serif" font-size="10.00">string.h</text>
</g>
<!-- Node2&#45;&gt;Node3 -->
<g id="edge2" class="edge"><title>Node2&#45;&gt;Node3</title>
<path fill="none" stroke="midnightblue" d="M66.3423,-55.2188C60.4106,-47.5509 51.4275,-35.9387 44.102,-26.4691"/>
<polygon fill="midnightblue" stroke="midnightblue" points="46.8627,-24.3176 37.9756,-18.5496 41.326,-28.6007 46.8627,-24.3176"/>
</g>
<!-- Node4 -->
<g id="node4" class="node"><title>Node4</title>
<g id="a_node4"><a xlink:href="$functor_8h.html" xlink:title="utility/functor.h">
<polygon fill="white" stroke="black" points="73.7856,-0.5 73.7856,-18.5 153.711,-18.5 153.711,-0.5 73.7856,-0.5"/>
<text text-anchor="middle" x="113.749" y="-6.5" font-family="Helvetica,sans-Serif" font-size="10.00">utility/functor.h</text>
</a>
</g>
</g>
<!-- Node2&#45;&gt;Node4 -->
<g id="edge3" class="edge"><title>Node2&#45;&gt;Node4</title>
<path fill="none" stroke="midnightblue" d="M79.1548,-55.2188C85.0865,-47.5509 94.0695,-35.9387 101.395,-26.4691"/>
<polygon fill="midnightblue" stroke="midnightblue" points="104.171,-28.6007 107.522,-18.5496 98.6344,-24.3176 104.171,-28.6007"/>
</g>
</g>
</svg>
