<?xml version="1.0" encoding="UTF-8" standalone="no"?>
<!DOCTYPE svg PUBLIC "-//W3C//DTD SVG 1.1//EN"
 "http://www.w3.org/Graphics/SVG/1.1/DTD/svg11.dtd">
<!-- Generated by graphviz version 2.38.0 (20140413.2041)
 -->
<!-- Title: libraries/AP_HAL_Linux/Storage_FRAM.cpp Pages: 1 -->
<svg width="1901pt" height="642pt"
 viewBox="0.00 0.00 1901.24 642.00" xmlns="http://www.w3.org/2000/svg" xmlns:xlink="http://www.w3.org/1999/xlink">
<g id="graph0" class="graph" transform="scale(1 1) rotate(0) translate(4 638)">
<title>libraries/AP_HAL_Linux/Storage_FRAM.cpp</title>
<polygon fill="white" stroke="none" points="-4,4 -4,-638 1897.24,-638 1897.24,4 -4,4"/>
<!-- Node1 -->
<g id="node1" class="node"><title>Node1</title>
<polygon fill="#bfbfbf" stroke="black" points="1504.71,-605.5 1504.71,-633.5 1626.32,-633.5 1626.32,-605.5 1504.71,-605.5"/>
<text text-anchor="start" x="1512.71" y="-621.5" font-family="Helvetica,sans-Serif" font-size="10.00">libraries/AP_HAL_Linux</text>
<text text-anchor="middle" x="1565.51" y="-611.5" font-family="Helvetica,sans-Serif" font-size="10.00">/Storage_FRAM.cpp</text>
</g>
<!-- Node2 -->
<g id="node2" class="node"><title>Node2</title>
<g id="a_node2"><a xlink:href="$AP__HAL_8h.html" xlink:title="AP_HAL/AP_HAL.h">
<polygon fill="white" stroke="black" points="656.599,-440.5 656.599,-458.5 760.426,-458.5 760.426,-440.5 656.599,-440.5"/>
<text text-anchor="middle" x="708.512" y="-446.5" font-family="Helvetica,sans-Serif" font-size="10.00">AP_HAL/AP_HAL.h</text>
</a>
</g>
</g>
<!-- Node1&#45;&gt;Node2 -->
<g id="edge1" class="edge"><title>Node1&#45;&gt;Node2</title>
<path fill="none" stroke="midnightblue" d="M1504.55,-618.677C1349.82,-618.455 945.236,-613.503 819.512,-569 779.525,-554.846 769.417,-545.947 741.512,-514 729.646,-500.414 720.625,-481.814 715.039,-468.257"/>
<polygon fill="midnightblue" stroke="midnightblue" points="718.192,-466.71 711.306,-458.658 711.668,-469.246 718.192,-466.71"/>
</g>
<!-- Node13 -->
<g id="node13" class="node"><title>Node13</title>
<polygon fill="white" stroke="#bfbfbf" points="1238.11,-55.5 1238.11,-73.5 1296.91,-73.5 1296.91,-55.5 1238.11,-55.5"/>
<text text-anchor="middle" x="1267.51" y="-61.5" font-family="Helvetica,sans-Serif" font-size="10.00">inttypes.h</text>
</g>
<!-- Node1&#45;&gt;Node13 -->
<g id="edge72" class="edge"><title>Node1&#45;&gt;Node13</title>
<path fill="none" stroke="midnightblue" d="M1504.37,-612.08C1473.38,-605.808 1437.36,-593.427 1413.51,-569 1392.93,-547.92 1394.51,-534.958 1394.51,-505.5 1394.51,-505.5 1394.51,-505.5 1394.51,-173.5 1394.51,-124.48 1338.93,-93.0511 1301.3,-77.3928"/>
<polygon fill="midnightblue" stroke="midnightblue" points="1302.28,-74.0167 1291.7,-73.5715 1299.7,-80.5207 1302.28,-74.0167"/>
</g>
<!-- Node30 -->
<g id="node30" class="node"><title>Node30</title>
<polygon fill="white" stroke="#bfbfbf" points="1422.73,-550.5 1422.73,-568.5 1474.3,-568.5 1474.3,-550.5 1422.73,-550.5"/>
<text text-anchor="middle" x="1448.51" y="-556.5" font-family="Helvetica,sans-Serif" font-size="10.00">assert.h</text>
</g>
<!-- Node1&#45;&gt;Node30 -->
<g id="edge68" class="edge"><title>Node1&#45;&gt;Node30</title>
<path fill="none" stroke="midnightblue" d="M1539.26,-605.484C1519.77,-595.826 1493.36,-582.73 1474.05,-573.159"/>
<polygon fill="midnightblue" stroke="midnightblue" points="1475.45,-569.949 1464.94,-568.643 1472.34,-576.221 1475.45,-569.949"/>
</g>
<!-- Node31 -->
<g id="node31" class="node"><title>Node31</title>
<polygon fill="white" stroke="#bfbfbf" points="1492.5,-550.5 1492.5,-568.5 1558.52,-568.5 1558.52,-550.5 1492.5,-550.5"/>
<text text-anchor="middle" x="1525.51" y="-556.5" font-family="Helvetica,sans-Serif" font-size="10.00">sys/types.h</text>
</g>
<!-- Node1&#45;&gt;Node31 -->
<g id="edge69" class="edge"><title>Node1&#45;&gt;Node31</title>
<path fill="none" stroke="midnightblue" d="M1556.44,-605.339C1550.69,-597.004 1543.2,-586.151 1537.04,-577.211"/>
<polygon fill="midnightblue" stroke="midnightblue" points="1539.78,-575.017 1531.22,-568.771 1534.01,-578.991 1539.78,-575.017"/>
</g>
<!-- Node32 -->
<g id="node32" class="node"><title>Node32</title>
<polygon fill="white" stroke="#bfbfbf" points="1576.39,-550.5 1576.39,-568.5 1634.63,-568.5 1634.63,-550.5 1576.39,-550.5"/>
<text text-anchor="middle" x="1605.51" y="-556.5" font-family="Helvetica,sans-Serif" font-size="10.00">sys/stat.h</text>
</g>
<!-- Node1&#45;&gt;Node32 -->
<g id="edge70" class="edge"><title>Node1&#45;&gt;Node32</title>
<path fill="none" stroke="midnightblue" d="M1574.59,-605.339C1580.34,-597.004 1587.82,-586.151 1593.99,-577.211"/>
<polygon fill="midnightblue" stroke="midnightblue" points="1597.01,-578.991 1599.81,-568.771 1591.25,-575.017 1597.01,-578.991"/>
</g>
<!-- Node33 -->
<g id="node33" class="node"><title>Node33</title>
<polygon fill="white" stroke="#bfbfbf" points="1652.17,-550.5 1652.17,-568.5 1694.85,-568.5 1694.85,-550.5 1652.17,-550.5"/>
<text text-anchor="middle" x="1673.51" y="-556.5" font-family="Helvetica,sans-Serif" font-size="10.00">fcntl.h</text>
</g>
<!-- Node1&#45;&gt;Node33 -->
<g id="edge71" class="edge"><title>Node1&#45;&gt;Node33</title>
<path fill="none" stroke="midnightblue" d="M1589.75,-605.484C1607.49,-595.959 1631.45,-583.088 1649.2,-573.554"/>
<polygon fill="midnightblue" stroke="midnightblue" points="1651.19,-576.458 1658.35,-568.643 1647.88,-570.291 1651.19,-576.458"/>
</g>
<!-- Node34 -->
<g id="node34" class="node"><title>Node34</title>
<polygon fill="white" stroke="#bfbfbf" points="1713,-550.5 1713,-568.5 1764.02,-568.5 1764.02,-550.5 1713,-550.5"/>
<text text-anchor="middle" x="1738.51" y="-556.5" font-family="Helvetica,sans-Serif" font-size="10.00">unistd.h</text>
</g>
<!-- Node1&#45;&gt;Node34 -->
<g id="edge73" class="edge"><title>Node1&#45;&gt;Node34</title>
<path fill="none" stroke="midnightblue" d="M1604.34,-605.484C1634.55,-595.356 1676.04,-581.445 1704.85,-571.785"/>
<polygon fill="midnightblue" stroke="midnightblue" points="1706.11,-575.056 1714.48,-568.559 1703.88,-568.419 1706.11,-575.056"/>
</g>
<!-- Node35 -->
<g id="node35" class="node"><title>Node35</title>
<polygon fill="white" stroke="#bfbfbf" points="1781.67,-550.5 1781.67,-568.5 1829.35,-568.5 1829.35,-550.5 1781.67,-550.5"/>
<text text-anchor="middle" x="1805.51" y="-556.5" font-family="Helvetica,sans-Serif" font-size="10.00">errno.h</text>
</g>
<!-- Node1&#45;&gt;Node35 -->
<g id="edge74" class="edge"><title>Node1&#45;&gt;Node35</title>
<path fill="none" stroke="midnightblue" d="M1622.11,-605.45C1661.62,-596.244 1715.83,-583.421 1771.4,-569.492"/>
<polygon fill="midnightblue" stroke="midnightblue" points="1772.57,-572.806 1781.42,-566.972 1770.87,-566.017 1772.57,-572.806"/>
</g>
<!-- Node36 -->
<g id="node36" class="node"><title>Node36</title>
<polygon fill="white" stroke="#bfbfbf" points="1847.78,-550.5 1847.78,-568.5 1893.24,-568.5 1893.24,-550.5 1847.78,-550.5"/>
<text text-anchor="middle" x="1870.51" y="-556.5" font-family="Helvetica,sans-Serif" font-size="10.00">stdio.h</text>
</g>
<!-- Node1&#45;&gt;Node36 -->
<g id="edge75" class="edge"><title>Node1&#45;&gt;Node36</title>
<path fill="none" stroke="midnightblue" d="M1626.51,-608.88C1679.75,-600.157 1759.26,-586.343 1837.47,-569.084"/>
<polygon fill="midnightblue" stroke="midnightblue" points="1838.49,-572.441 1847.49,-566.85 1836.97,-565.609 1838.49,-572.441"/>
</g>
<!-- Node37 -->
<g id="node37" class="node"><title>Node37</title>
<g id="a_node37"><a xlink:href="$Linux_2Storage_8h.html" xlink:title="Storage.h">
<polygon fill="white" stroke="black" points="828.83,-550.5 828.83,-568.5 888.194,-568.5 888.194,-550.5 828.83,-550.5"/>
<text text-anchor="middle" x="858.512" y="-556.5" font-family="Helvetica,sans-Serif" font-size="10.00">Storage.h</text>
</a>
</g>
</g>
<!-- Node1&#45;&gt;Node37 -->
<g id="edge76" class="edge"><title>Node1&#45;&gt;Node37</title>
<path fill="none" stroke="midnightblue" d="M1504.62,-613.505C1363.35,-601.915 1016.38,-573.451 898.476,-563.778"/>
<polygon fill="midnightblue" stroke="midnightblue" points="898.691,-560.284 888.438,-562.955 898.119,-567.261 898.691,-560.284"/>
</g>
<!-- Node3 -->
<g id="node3" class="node"><title>Node3</title>
<polygon fill="white" stroke="#bfbfbf" points="331.392,-110.5 331.392,-128.5 379.633,-128.5 379.633,-110.5 331.392,-110.5"/>
<text text-anchor="middle" x="355.512" y="-116.5" font-family="Helvetica,sans-Serif" font-size="10.00">stdint.h</text>
</g>
<!-- Node2&#45;&gt;Node3 -->
<g id="edge2" class="edge"><title>Node2&#45;&gt;Node3</title>
<path fill="none" stroke="midnightblue" d="M656.49,-445.825C576.578,-440.987 427.979,-428.885 381.512,-404 324.052,-373.227 307.556,-354.973 284.512,-294 262.321,-235.283 313.866,-166.562 340.639,-136.238"/>
<polygon fill="midnightblue" stroke="midnightblue" points="343.315,-138.498 347.452,-128.744 338.135,-133.789 343.315,-138.498"/>
</g>
<!-- Node4 -->
<g id="node4" class="node"><title>Node4</title>
<polygon fill="white" stroke="#bfbfbf" points="889.219,-110.5 889.219,-128.5 945.805,-128.5 945.805,-110.5 889.219,-110.5"/>
<text text-anchor="middle" x="917.512" y="-116.5" font-family="Helvetica,sans-Serif" font-size="10.00">stdbool.h</text>
</g>
<!-- Node2&#45;&gt;Node4 -->
<g id="edge3" class="edge"><title>Node2&#45;&gt;Node4</title>
<path fill="none" stroke="midnightblue" d="M728.195,-440.487C760.571,-425.848 821.512,-391.518 821.512,-340.5 821.512,-340.5 821.512,-340.5 821.512,-283.5 821.512,-254.042 821.001,-242.071 840.512,-220 866.874,-190.18 900.748,-217.324 922.512,-184 931.292,-170.557 928.504,-151.938 924.447,-138.337"/>
<polygon fill="midnightblue" stroke="midnightblue" points="927.691,-137.009 921.117,-128.701 921.075,-139.295 927.691,-137.009"/>
</g>
<!-- Node5 -->
<g id="node5" class="node"><title>Node5</title>
<g id="a_node5"><a xlink:href="$AP__HAL__Namespace_8h.html" xlink:title="AP_HAL_Namespace.h">
<polygon fill="white" stroke="black" points="522.705,-55.5 522.705,-73.5 644.32,-73.5 644.32,-55.5 522.705,-55.5"/>
<text text-anchor="middle" x="583.512" y="-61.5" font-family="Helvetica,sans-Serif" font-size="10.00">AP_HAL_Namespace.h</text>
</a>
</g>
</g>
<!-- Node2&#45;&gt;Node5 -->
<g id="edge4" class="edge"><title>Node2&#45;&gt;Node5</title>
<path fill="none" stroke="midnightblue" d="M656.542,-447.012C528.988,-442.968 207.899,-430.273 167.512,-404 113.451,-368.831 104.269,-217.919 100.512,-184 99.5827,-175.607 96.9592,-172.661 100.512,-165 116.435,-130.67 130.718,-124.882 165.512,-110 226.167,-84.0575 409.625,-72.5631 512.183,-68.0484"/>
<polygon fill="midnightblue" stroke="midnightblue" points="512.615,-71.5332 522.455,-67.6076 512.315,-64.5396 512.615,-71.5332"/>
</g>
<!-- Node8 -->
<g id="node8" class="node"><title>Node8</title>
<g id="a_node8"><a xlink:href="$AP__HAL__Boards_8h.html" xlink:title="AP_HAL_Boards.h">
<polygon fill="white" stroke="black" points="649.542,-165.5 649.542,-183.5 749.482,-183.5 749.482,-165.5 649.542,-165.5"/>
<text text-anchor="middle" x="699.512" y="-171.5" font-family="Helvetica,sans-Serif" font-size="10.00">AP_HAL_Boards.h</text>
</a>
</g>
</g>
<!-- Node2&#45;&gt;Node8 -->
<g id="edge7" class="edge"><title>Node2&#45;&gt;Node8</title>
<path fill="none" stroke="midnightblue" d="M713.48,-440.441C723.78,-422.939 746.512,-379.856 746.512,-340.5 746.512,-340.5 746.512,-340.5 746.512,-283.5 746.512,-248.567 725.582,-212.162 711.656,-191.806"/>
<polygon fill="midnightblue" stroke="midnightblue" points="714.5,-189.766 705.851,-183.646 708.796,-193.824 714.5,-189.766"/>
</g>
<!-- Node9 -->
<g id="node9" class="node"><title>Node9</title>
<g id="a_node9"><a xlink:href="$AP__HAL__Macros_8h.html" xlink:title="AP_HAL_Macros.h">
<polygon fill="white" stroke="black" points="1264.99,-385.5 1264.99,-403.5 1366.03,-403.5 1366.03,-385.5 1264.99,-385.5"/>
<text text-anchor="middle" x="1315.51" y="-391.5" font-family="Helvetica,sans-Serif" font-size="10.00">AP_HAL_Macros.h</text>
</a>
</g>
</g>
<!-- Node2&#45;&gt;Node9 -->
<g id="edge8" class="edge"><title>Node2&#45;&gt;Node9</title>
<path fill="none" stroke="midnightblue" d="M760.547,-442.907C770.491,-441.894 780.82,-440.881 790.512,-440 994.739,-421.427 1046.55,-425.302 1250.51,-404 1251.82,-403.864 1253.14,-403.722 1254.47,-403.577"/>
<polygon fill="midnightblue" stroke="midnightblue" points="1255.26,-407.008 1264.8,-402.39 1254.47,-400.054 1255.26,-407.008"/>
</g>
<!-- Node10 -->
<g id="node10" class="node"><title>Node10</title>
<g id="a_node10"><a xlink:href="$AP__HAL__Main_8h.html" xlink:title="AP_HAL_Main.h">
<polygon fill="white" stroke="black" points="431.547,-385.5 431.547,-403.5 521.478,-403.5 521.478,-385.5 431.547,-385.5"/>
<text text-anchor="middle" x="476.512" y="-391.5" font-family="Helvetica,sans-Serif" font-size="10.00">AP_HAL_Main.h</text>
</a>
</g>
</g>
<!-- Node2&#45;&gt;Node10 -->
<g id="edge9" class="edge"><title>Node2&#45;&gt;Node10</title>
<path fill="none" stroke="midnightblue" d="M673.276,-440.45C632.704,-431.182 565.964,-415.935 521.629,-405.807"/>
<polygon fill="midnightblue" stroke="midnightblue" points="522.227,-402.353 511.699,-403.538 520.668,-409.178 522.227,-402.353"/>
</g>
<!-- Node11 -->
<g id="node11" class="node"><title>Node11</title>
<g id="a_node11"><a xlink:href="$HAL_8h.html" xlink:title="HAL.h">
<polygon fill="white" stroke="black" points="454.616,-330.5 454.616,-348.5 498.409,-348.5 498.409,-330.5 454.616,-330.5"/>
<text text-anchor="middle" x="476.512" y="-336.5" font-family="Helvetica,sans-Serif" font-size="10.00">HAL.h</text>
</a>
</g>
</g>
<!-- Node2&#45;&gt;Node11 -->
<g id="edge67" class="edge"><title>Node2&#45;&gt;Node11</title>
<path fill="none" stroke="midnightblue" d="M676.505,-440.496C648.561,-432.918 607.304,-420.283 573.512,-404 544.397,-389.971 513.644,-368.559 494.762,-354.545"/>
<polygon fill="midnightblue" stroke="midnightblue" points="496.832,-351.722 486.738,-348.502 492.621,-357.313 496.832,-351.722"/>
</g>
<!-- Node12 -->
<g id="node12" class="node"><title>Node12</title>
<g id="a_node12"><a xlink:href="$AnalogIn_8h.html" xlink:title="AnalogIn.h">
<polygon fill="white" stroke="black" points="975.604,-220.5 975.604,-238.5 1039.42,-238.5 1039.42,-220.5 975.604,-220.5"/>
<text text-anchor="middle" x="1007.51" y="-226.5" font-family="Helvetica,sans-Serif" font-size="10.00">AnalogIn.h</text>
</a>
</g>
</g>
<!-- Node2&#45;&gt;Node12 -->
<g id="edge49" class="edge"><title>Node2&#45;&gt;Node12</title>
<path fill="none" stroke="midnightblue" d="M760.567,-440.65C790.95,-434.288 828.989,-423.125 858.512,-404 923.722,-361.759 976.3,-282.721 997.456,-247.821"/>
<polygon fill="midnightblue" stroke="midnightblue" points="1000.68,-249.239 1002.78,-238.854 994.667,-245.663 1000.68,-249.239"/>
</g>
<!-- Node14 -->
<g id="node14" class="node"><title>Node14</title>
<g id="a_node14"><a xlink:href="$GPIO_8h.html" xlink:title="GPIO.h">
<polygon fill="white" stroke="black" points="505.84,-220.5 505.84,-238.5 555.185,-238.5 555.185,-220.5 505.84,-220.5"/>
<text text-anchor="middle" x="530.512" y="-226.5" font-family="Helvetica,sans-Serif" font-size="10.00">GPIO.h</text>
</a>
</g>
</g>
<!-- Node2&#45;&gt;Node14 -->
<g id="edge51" class="edge"><title>Node2&#45;&gt;Node14</title>
<path fill="none" stroke="midnightblue" d="M701.966,-440.483C675.912,-408.574 579.282,-290.23 543.741,-246.701"/>
<polygon fill="midnightblue" stroke="midnightblue" points="546.344,-244.355 537.308,-238.823 540.922,-248.783 546.344,-244.355"/>
</g>
<!-- Node15 -->
<g id="node15" class="node"><title>Node15</title>
<g id="a_node15"><a xlink:href="$RCInput_8h.html" xlink:title="RCInput.h">
<polygon fill="white" stroke="black" points="0,-275.5 0,-293.5 61.0244,-293.5 61.0244,-275.5 0,-275.5"/>
<text text-anchor="middle" x="30.5122" y="-281.5" font-family="Helvetica,sans-Serif" font-size="10.00">RCInput.h</text>
</a>
</g>
</g>
<!-- Node2&#45;&gt;Node15 -->
<g id="edge52" class="edge"><title>Node2&#45;&gt;Node15</title>
<path fill="none" stroke="midnightblue" d="M656.497,-448.016C513.445,-446.247 121.661,-438.29 75.5122,-404 43.5073,-380.219 34.2644,-330.741 31.5954,-303.853"/>
<polygon fill="midnightblue" stroke="midnightblue" points="35.0593,-303.253 30.79,-293.557 28.0806,-303.799 35.0593,-303.253"/>
</g>
<!-- Node16 -->
<g id="node16" class="node"><title>Node16</title>
<g id="a_node16"><a xlink:href="$RCOutput_8h.html" xlink:title="RCOutput.h">
<polygon fill="white" stroke="black" points="169.111,-275.5 169.111,-293.5 237.914,-293.5 237.914,-275.5 169.111,-275.5"/>
<text text-anchor="middle" x="203.512" y="-281.5" font-family="Helvetica,sans-Serif" font-size="10.00">RCOutput.h</text>
</a>
</g>
</g>
<!-- Node2&#45;&gt;Node16 -->
<g id="edge53" class="edge"><title>Node2&#45;&gt;Node16</title>
<path fill="none" stroke="midnightblue" d="M656.212,-446.431C543.111,-441.527 283.366,-427.791 251.512,-404 219.29,-379.934 208.635,-330.574 205.159,-303.78"/>
<polygon fill="midnightblue" stroke="midnightblue" points="208.604,-303.084 204.041,-293.522 201.645,-303.842 208.604,-303.084"/>
</g>
<!-- Node17 -->
<g id="node17" class="node"><title>Node17</title>
<g id="a_node17"><a xlink:href="$SPIDriver_8h.html" xlink:title="SPIDriver.h">
<polygon fill="white" stroke="black" points="614.224,-275.5 614.224,-293.5 680.8,-293.5 680.8,-275.5 614.224,-275.5"/>
<text text-anchor="middle" x="647.512" y="-281.5" font-family="Helvetica,sans-Serif" font-size="10.00">SPIDriver.h</text>
</a>
</g>
</g>
<!-- Node2&#45;&gt;Node17 -->
<g id="edge48" class="edge"><title>Node2&#45;&gt;Node17</title>
<path fill="none" stroke="midnightblue" d="M705.403,-440.193C695.939,-414.903 667.329,-338.453 654.213,-303.405"/>
<polygon fill="midnightblue" stroke="midnightblue" points="657.325,-301.736 650.542,-293.597 650.769,-304.19 657.325,-301.736"/>
</g>
<!-- Node18 -->
<g id="node18" class="node"><title>Node18</title>
<g id="a_node18"><a xlink:href="$Storage_8h.html" xlink:title="Storage.h">
<polygon fill="white" stroke="black" points="293.83,-275.5 293.83,-293.5 353.194,-293.5 353.194,-275.5 293.83,-275.5"/>
<text text-anchor="middle" x="323.512" y="-281.5" font-family="Helvetica,sans-Serif" font-size="10.00">Storage.h</text>
</a>
</g>
</g>
<!-- Node2&#45;&gt;Node18 -->
<g id="edge50" class="edge"><title>Node2&#45;&gt;Node18</title>
<path fill="none" stroke="midnightblue" d="M656.446,-445.767C581.393,-441.007 447.325,-429.193 406.512,-404 367.439,-379.88 341.845,-329.779 330.404,-303.104"/>
<polygon fill="midnightblue" stroke="midnightblue" points="333.515,-301.466 326.483,-293.541 327.039,-304.122 333.515,-301.466"/>
</g>
<!-- Node19 -->
<g id="node19" class="node"><title>Node19</title>
<g id="a_node19"><a xlink:href="$UARTDriver_8h.html" xlink:title="UARTDriver.h">
<polygon fill="white" stroke="black" points="370.76,-275.5 370.76,-293.5 448.264,-293.5 448.264,-275.5 370.76,-275.5"/>
<text text-anchor="middle" x="409.512" y="-281.5" font-family="Helvetica,sans-Serif" font-size="10.00">UARTDriver.h</text>
</a>
</g>
</g>
<!-- Node2&#45;&gt;Node19 -->
<g id="edge44" class="edge"><title>Node2&#45;&gt;Node19</title>
<path fill="none" stroke="midnightblue" d="M656.428,-447.716C582.819,-445.435 453.806,-436.737 422.512,-404 396.85,-377.154 400.777,-329.72 405.42,-303.751"/>
<polygon fill="midnightblue" stroke="midnightblue" points="408.887,-304.263 407.435,-293.768 402.025,-302.878 408.887,-304.263"/>
</g>
<!-- Node22 -->
<g id="node22" class="node"><title>Node22</title>
<g id="a_node22"><a xlink:href="$BetterStream_8h.html" xlink:title="utility/BetterStream.h">
<polygon fill="white" stroke="black" points="849.106,-220.5 849.106,-238.5 957.918,-238.5 957.918,-220.5 849.106,-220.5"/>
<text text-anchor="middle" x="903.512" y="-226.5" font-family="Helvetica,sans-Serif" font-size="10.00">utility/BetterStream.h</text>
</a>
</g>
</g>
<!-- Node2&#45;&gt;Node22 -->
<g id="edge66" class="edge"><title>Node2&#45;&gt;Node22</title>
<path fill="none" stroke="midnightblue" d="M760.553,-440.719C785.92,-434.544 815.245,-423.54 835.512,-404 880.501,-360.625 896.313,-283.926 901.364,-248.888"/>
<polygon fill="midnightblue" stroke="midnightblue" points="904.869,-249.079 902.692,-238.71 897.928,-248.174 904.869,-249.079"/>
</g>
<!-- Node24 -->
<g id="node24" class="node"><title>Node24</title>
<g id="a_node24"><a xlink:href="$Stream_8h.html" xlink:title="Stream.h">
<polygon fill="white" stroke="black" points="1045.23,-165.5 1045.23,-183.5 1101.8,-183.5 1101.8,-165.5 1045.23,-165.5"/>
<text text-anchor="middle" x="1073.51" y="-171.5" font-family="Helvetica,sans-Serif" font-size="10.00">Stream.h</text>
</a>
</g>
</g>
<!-- Node2&#45;&gt;Node24 -->
<g id="edge65" class="edge"><title>Node2&#45;&gt;Node24</title>
<path fill="none" stroke="midnightblue" d="M760.602,-442.429C797.264,-436.523 846.547,-425.202 885.512,-404 921.58,-384.375 1039.5,-253.182 1048.51,-239 1057.55,-224.783 1064.26,-206.769 1068.44,-193.563"/>
<polygon fill="midnightblue" stroke="midnightblue" points="1071.85,-194.372 1071.35,-183.788 1065.14,-192.373 1071.85,-194.372"/>
</g>
<!-- Node25 -->
<g id="node25" class="node"><title>Node25</title>
<g id="a_node25"><a xlink:href="$Print_8h.html" xlink:title="Print.h">
<polygon fill="white" stroke="black" points="1195.06,-110.5 1195.06,-128.5 1239.96,-128.5 1239.96,-110.5 1195.06,-110.5"/>
<text text-anchor="middle" x="1217.51" y="-116.5" font-family="Helvetica,sans-Serif" font-size="10.00">Print.h</text>
</a>
</g>
</g>
<!-- Node2&#45;&gt;Node25 -->
<g id="edge64" class="edge"><title>Node2&#45;&gt;Node25</title>
<path fill="none" stroke="midnightblue" d="M760.687,-443.088C875.016,-431.229 1137.51,-404 1137.51,-404 1235.15,-360.569 1226.8,-290.581 1234.51,-184 1235.12,-175.578 1236.04,-173.304 1234.51,-165 1232.82,-155.839 1229.33,-146.124 1225.94,-138.117"/>
<polygon fill="midnightblue" stroke="midnightblue" points="1229.03,-136.438 1221.72,-128.764 1222.65,-139.318 1229.03,-136.438"/>
</g>
<!-- Node26 -->
<g id="node26" class="node"><title>Node26</title>
<g id="a_node26"><a xlink:href="$I2CDriver_8h.html" xlink:title="I2CDriver.h">
<polygon fill="white" stroke="black" points="109.502,-165.5 109.502,-183.5 175.522,-183.5 175.522,-165.5 109.502,-165.5"/>
<text text-anchor="middle" x="142.512" y="-171.5" font-family="Helvetica,sans-Serif" font-size="10.00">I2CDriver.h</text>
</a>
</g>
</g>
<!-- Node2&#45;&gt;Node26 -->
<g id="edge45" class="edge"><title>Node2&#45;&gt;Node26</title>
<path fill="none" stroke="midnightblue" d="M656.428,-447.021C549.405,-443.433 308.364,-432.379 231.512,-404 185.589,-387.042 141.512,-389.454 141.512,-340.5 141.512,-340.5 141.512,-340.5 141.512,-283.5 141.512,-252.016 141.942,-215.372 142.238,-193.88"/>
<polygon fill="midnightblue" stroke="midnightblue" points="145.742,-193.678 142.386,-183.629 138.742,-193.577 145.742,-193.678"/>
</g>
<!-- Node27 -->
<g id="node27" class="node"><title>Node27</title>
<g id="a_node27"><a xlink:href="$Scheduler_8h.html" xlink:title="Scheduler.h">
<polygon fill="white" stroke="black" points="612.101,-220.5 612.101,-238.5 680.923,-238.5 680.923,-220.5 612.101,-220.5"/>
<text text-anchor="middle" x="646.512" y="-226.5" font-family="Helvetica,sans-Serif" font-size="10.00">Scheduler.h</text>
</a>
</g>
</g>
<!-- Node2&#45;&gt;Node27 -->
<g id="edge54" class="edge"><title>Node2&#45;&gt;Node27</title>
<path fill="none" stroke="midnightblue" d="M709.404,-440.405C711.875,-414.739 716.925,-333.431 689.512,-275 684.062,-263.383 674.338,-252.92 665.514,-245.062"/>
<polygon fill="midnightblue" stroke="midnightblue" points="667.728,-242.351 657.812,-238.62 663.237,-247.721 667.728,-242.351"/>
</g>
<!-- Node28 -->
<g id="node28" class="node"><title>Node28</title>
<g id="a_node28"><a xlink:href="$Semaphores_8h.html" xlink:title="Semaphores.h">
<polygon fill="white" stroke="black" points="1088.99,-330.5 1088.99,-348.5 1170.03,-348.5 1170.03,-330.5 1088.99,-330.5"/>
<text text-anchor="middle" x="1129.51" y="-336.5" font-family="Helvetica,sans-Serif" font-size="10.00">Semaphores.h</text>
</a>
</g>
</g>
<!-- Node2&#45;&gt;Node28 -->
<g id="edge59" class="edge"><title>Node2&#45;&gt;Node28</title>
<path fill="none" stroke="midnightblue" d="M760.542,-442.662C859.941,-431.444 1067.64,-407.655 1074.51,-404 1094.37,-393.434 1110.26,-372.554 1119.76,-357.621"/>
<polygon fill="midnightblue" stroke="midnightblue" points="1122.89,-359.206 1125.06,-348.835 1116.9,-355.592 1122.89,-359.206"/>
</g>
<!-- Node29 -->
<g id="node29" class="node"><title>Node29</title>
<g id="a_node29"><a xlink:href="$Util_8h.html" xlink:title="Util.h">
<polygon fill="white" stroke="black" points="1179.12,-220.5 1179.12,-238.5 1217.9,-238.5 1217.9,-220.5 1179.12,-220.5"/>
<text text-anchor="middle" x="1198.51" y="-226.5" font-family="Helvetica,sans-Serif" font-size="10.00">Util.h</text>
</a>
</g>
</g>
<!-- Node2&#45;&gt;Node29 -->
<g id="edge61" class="edge"><title>Node2&#45;&gt;Node29</title>
<path fill="none" stroke="midnightblue" d="M760.521,-442.93C865.319,-431.661 1092.63,-406.972 1100.51,-404 1140.54,-388.905 1156.76,-385.229 1179.51,-349 1199.03,-317.927 1200.68,-273.526 1199.82,-248.84"/>
<polygon fill="midnightblue" stroke="midnightblue" points="1203.31,-248.525 1199.28,-238.726 1196.32,-248.899 1203.31,-248.525"/>
</g>
<!-- Node6 -->
<g id="node6" class="node"><title>Node6</title>
<polygon fill="white" stroke="#bfbfbf" points="779.116,-0.5 779.116,-18.5 827.909,-18.5 827.909,-0.5 779.116,-0.5"/>
<text text-anchor="middle" x="803.512" y="-6.5" font-family="Helvetica,sans-Serif" font-size="10.00">string.h</text>
</g>
<!-- Node5&#45;&gt;Node6 -->
<g id="edge5" class="edge"><title>Node5&#45;&gt;Node6</title>
<path fill="none" stroke="midnightblue" d="M616.925,-55.4504C658.037,-45.5463 727.483,-28.8162 769.064,-18.799"/>
<polygon fill="midnightblue" stroke="midnightblue" points="770.098,-22.1499 779,-16.4051 768.459,-15.3446 770.098,-22.1499"/>
</g>
<!-- Node7 -->
<g id="node7" class="node"><title>Node7</title>
<g id="a_node7"><a xlink:href="$functor_8h.html" xlink:title="utility/functor.h">
<polygon fill="white" stroke="black" points="543.549,-0.5 543.549,-18.5 623.475,-18.5 623.475,-0.5 543.549,-0.5"/>
<text text-anchor="middle" x="583.512" y="-6.5" font-family="Helvetica,sans-Serif" font-size="10.00">utility/functor.h</text>
</a>
</g>
</g>
<!-- Node5&#45;&gt;Node7 -->
<g id="edge6" class="edge"><title>Node5&#45;&gt;Node7</title>
<path fill="none" stroke="midnightblue" d="M583.512,-55.2188C583.512,-48.1769 583.512,-37.8083 583.512,-28.8277"/>
<polygon fill="midnightblue" stroke="midnightblue" points="587.012,-28.5495 583.512,-18.5496 580.012,-28.5496 587.012,-28.5495"/>
</g>
<!-- Node10&#45;&gt;Node11 -->
<g id="edge10" class="edge"><title>Node10&#45;&gt;Node11</title>
<path fill="none" stroke="midnightblue" d="M476.512,-385.219C476.512,-378.177 476.512,-367.808 476.512,-358.828"/>
<polygon fill="midnightblue" stroke="midnightblue" points="480.012,-358.55 476.512,-348.55 473.012,-358.55 480.012,-358.55"/>
</g>
<!-- Node11&#45;&gt;Node5 -->
<g id="edge11" class="edge"><title>Node11&#45;&gt;Node5</title>
<path fill="none" stroke="midnightblue" d="M476.913,-330.5C478.087,-311.046 482.387,-259.929 496.512,-220 515.523,-166.263 552.549,-109.432 571.583,-82.0968"/>
<polygon fill="midnightblue" stroke="midnightblue" points="574.595,-83.8987 577.506,-73.7116 568.878,-79.8599 574.595,-83.8987"/>
</g>
<!-- Node11&#45;&gt;Node12 -->
<g id="edge12" class="edge"><title>Node11&#45;&gt;Node12</title>
<path fill="none" stroke="midnightblue" d="M498.496,-334.069C566.266,-320.403 778.185,-277.617 965.268,-239.249"/>
<polygon fill="midnightblue" stroke="midnightblue" points="966.193,-242.632 975.286,-237.194 964.786,-235.775 966.193,-242.632"/>
</g>
<!-- Node11&#45;&gt;Node14 -->
<g id="edge15" class="edge"><title>Node11&#45;&gt;Node14</title>
<path fill="none" stroke="midnightblue" d="M480.571,-330.382C489.288,-312.948 509.967,-271.59 521.801,-247.922"/>
<polygon fill="midnightblue" stroke="midnightblue" points="525.065,-249.221 526.406,-238.712 518.804,-246.091 525.065,-249.221"/>
</g>
<!-- Node11&#45;&gt;Node15 -->
<g id="edge18" class="edge"><title>Node11&#45;&gt;Node15</title>
<path fill="none" stroke="midnightblue" d="M454.395,-335.872C383.819,-327.485 163.244,-301.273 71.3426,-290.352"/>
<polygon fill="midnightblue" stroke="midnightblue" points="71.6496,-286.864 61.3064,-289.159 70.8235,-293.815 71.6496,-286.864"/>
</g>
<!-- Node11&#45;&gt;Node16 -->
<g id="edge20" class="edge"><title>Node11&#45;&gt;Node16</title>
<path fill="none" stroke="midnightblue" d="M454.171,-334.163C409.242,-325.44 307.208,-305.631 248.105,-294.157"/>
<polygon fill="midnightblue" stroke="midnightblue" points="248.429,-290.655 237.945,-292.185 247.095,-297.527 248.429,-290.655"/>
</g>
<!-- Node11&#45;&gt;Node17 -->
<g id="edge22" class="edge"><title>Node11&#45;&gt;Node17</title>
<path fill="none" stroke="midnightblue" d="M498.517,-331.68C527.252,-322.774 577.907,-307.073 612.083,-296.481"/>
<polygon fill="midnightblue" stroke="midnightblue" points="613.169,-299.809 621.685,-293.505 611.097,-293.122 613.169,-299.809"/>
</g>
<!-- Node11&#45;&gt;Node18 -->
<g id="edge24" class="edge"><title>Node11&#45;&gt;Node18</title>
<path fill="none" stroke="midnightblue" d="M454.591,-330.906C428.831,-321.983 385.843,-307.092 356.157,-296.808"/>
<polygon fill="midnightblue" stroke="midnightblue" points="357.239,-293.479 346.644,-293.513 354.948,-300.094 357.239,-293.479"/>
</g>
<!-- Node11&#45;&gt;Node19 -->
<g id="edge27" class="edge"><title>Node11&#45;&gt;Node19</title>
<path fill="none" stroke="midnightblue" d="M466.336,-330.45C456.105,-322.357 440.11,-309.704 427.693,-299.882"/>
<polygon fill="midnightblue" stroke="midnightblue" points="429.798,-297.084 419.784,-293.625 425.455,-302.574 429.798,-297.084"/>
</g>
<!-- Node12&#45;&gt;Node5 -->
<g id="edge14" class="edge"><title>Node12&#45;&gt;Node5</title>
<path fill="none" stroke="midnightblue" d="M1007.97,-220.284C1008.69,-198.437 1007.33,-138.626 973.512,-110 949.728,-89.8654 760.838,-75.7857 654.917,-69.3872"/>
<polygon fill="midnightblue" stroke="midnightblue" points="654.811,-65.8747 644.62,-68.7736 654.394,-72.8624 654.811,-65.8747"/>
</g>
<!-- Node12&#45;&gt;Node13 -->
<g id="edge13" class="edge"><title>Node12&#45;&gt;Node13</title>
<path fill="none" stroke="midnightblue" d="M1039.53,-225.049C1091.32,-218.933 1190.5,-204.839 1218.51,-184 1250.87,-159.922 1261.97,-110.567 1265.7,-83.7767"/>
<polygon fill="midnightblue" stroke="midnightblue" points="1269.21,-83.8625 1266.91,-73.5206 1262.26,-83.0402 1269.21,-83.8625"/>
</g>
<!-- Node14&#45;&gt;Node3 -->
<g id="edge16" class="edge"><title>Node14&#45;&gt;Node3</title>
<path fill="none" stroke="midnightblue" d="M517.359,-220.382C487.461,-201.931 414.147,-156.686 377.341,-133.971"/>
<polygon fill="midnightblue" stroke="midnightblue" points="379.166,-130.985 368.818,-128.712 375.49,-136.942 379.166,-130.985"/>
</g>
<!-- Node14&#45;&gt;Node5 -->
<g id="edge17" class="edge"><title>Node14&#45;&gt;Node5</title>
<path fill="none" stroke="midnightblue" d="M533.213,-220.193C541.436,-194.903 566.294,-118.453 577.69,-83.4046"/>
<polygon fill="midnightblue" stroke="midnightblue" points="581.116,-84.1893 580.879,-73.5971 574.459,-82.0248 581.116,-84.1893"/>
</g>
<!-- Node15&#45;&gt;Node5 -->
<g id="edge19" class="edge"><title>Node15&#45;&gt;Node5</title>
<path fill="none" stroke="midnightblue" d="M29.2875,-275.341C25.588,-247.278 17.6455,-154.034 67.5122,-110 100.151,-81.179 378.821,-70.4956 512.514,-67.0029"/>
<polygon fill="midnightblue" stroke="midnightblue" points="512.753,-70.498 522.661,-66.7443 512.575,-63.5003 512.753,-70.498"/>
</g>
<!-- Node16&#45;&gt;Node5 -->
<g id="edge21" class="edge"><title>Node16&#45;&gt;Node5</title>
<path fill="none" stroke="midnightblue" d="M203.145,-275.231C202.636,-254.732 203.793,-200.651 227.512,-165 251.616,-128.771 268.077,-126.078 308.512,-110 374.65,-83.7014 455.625,-72.9332 512.523,-68.5305"/>
<polygon fill="midnightblue" stroke="midnightblue" points="512.783,-72.0209 522.503,-67.8043 512.275,-65.0394 512.783,-72.0209"/>
</g>
<!-- Node17&#45;&gt;Node5 -->
<g id="edge23" class="edge"><title>Node17&#45;&gt;Node5</title>
<path fill="none" stroke="midnightblue" d="M635.971,-275.43C625.578,-267.463 610.842,-254.282 603.512,-239 578.635,-187.138 579.645,-116.866 581.836,-83.9467"/>
<polygon fill="midnightblue" stroke="midnightblue" points="585.354,-83.8562 582.651,-73.612 578.376,-83.3058 585.354,-83.8562"/>
</g>
<!-- Node18&#45;&gt;Node3 -->
<g id="edge25" class="edge"><title>Node18&#45;&gt;Node3</title>
<path fill="none" stroke="midnightblue" d="M324.31,-275.372C326.301,-256.055 332.021,-205.948 341.512,-165 343.598,-156.003 346.603,-146.192 349.295,-138.077"/>
<polygon fill="midnightblue" stroke="midnightblue" points="352.613,-139.192 352.55,-128.597 345.992,-136.919 352.613,-139.192"/>
</g>
<!-- Node18&#45;&gt;Node5 -->
<g id="edge26" class="edge"><title>Node18&#45;&gt;Node5</title>
<path fill="none" stroke="midnightblue" d="M320.229,-275.383C309.839,-248.229 280.744,-159.493 322.512,-110 346.375,-81.724 443.439,-71.4131 512.202,-67.6544"/>
<polygon fill="midnightblue" stroke="midnightblue" points="512.746,-71.1313 522.555,-67.1258 512.389,-64.1404 512.746,-71.1313"/>
</g>
<!-- Node19&#45;&gt;Node3 -->
<g id="edge28" class="edge"><title>Node19&#45;&gt;Node3</title>
<path fill="none" stroke="midnightblue" d="M406.76,-275.193C398.382,-249.903 373.055,-173.453 361.444,-138.405"/>
<polygon fill="midnightblue" stroke="midnightblue" points="364.662,-136.989 358.195,-128.597 358.017,-139.19 364.662,-136.989"/>
</g>
<!-- Node19&#45;&gt;Node5 -->
<g id="edge33" class="edge"><title>Node19&#45;&gt;Node5</title>
<path fill="none" stroke="midnightblue" d="M409.168,-275.355C408.475,-248.112 409.957,-159.128 455.512,-110 471.049,-93.2446 493.221,-82.7977 514.757,-76.2842"/>
<polygon fill="midnightblue" stroke="midnightblue" points="515.881,-79.6049 524.582,-73.5598 514.01,-72.8595 515.881,-79.6049"/>
</g>
<!-- Node20 -->
<g id="node20" class="node"><title>Node20</title>
<g id="a_node20"><a xlink:href="$AP__Common_8h.html" xlink:title="Common definitions and utility routines for the ArduPilot libraries. ">
<polygon fill="white" stroke="black" points="767.485,-165.5 767.485,-183.5 913.539,-183.5 913.539,-165.5 767.485,-165.5"/>
<text text-anchor="middle" x="840.512" y="-171.5" font-family="Helvetica,sans-Serif" font-size="10.00">AP_Common/AP_Common.h</text>
</a>
</g>
</g>
<!-- Node19&#45;&gt;Node20 -->
<g id="edge29" class="edge"><title>Node19&#45;&gt;Node20</title>
<path fill="none" stroke="midnightblue" d="M448.65,-280.273C503.377,-275.09 605.495,-262.963 689.512,-239 735.46,-225.895 786.135,-202.641 815.542,-188.204"/>
<polygon fill="midnightblue" stroke="midnightblue" points="817.264,-191.257 824.662,-183.673 814.149,-184.988 817.264,-191.257"/>
</g>
<!-- Node19&#45;&gt;Node22 -->
<g id="edge34" class="edge"><title>Node19&#45;&gt;Node22</title>
<path fill="none" stroke="midnightblue" d="M448.276,-279.341C532.803,-270.272 734.457,-248.637 838.679,-237.456"/>
<polygon fill="midnightblue" stroke="midnightblue" points="839.189,-240.921 848.758,-236.374 838.442,-233.961 839.189,-240.921"/>
</g>
<!-- Node20&#45;&gt;Node3 -->
<g id="edge30" class="edge"><title>Node20&#45;&gt;Node3</title>
<path fill="none" stroke="midnightblue" d="M767.378,-165.508C661.227,-153.908 468.598,-132.858 390.152,-124.285"/>
<polygon fill="midnightblue" stroke="midnightblue" points="390.183,-120.768 379.862,-123.161 389.423,-127.727 390.183,-120.768"/>
</g>
<!-- Node20&#45;&gt;Node4 -->
<g id="edge32" class="edge"><title>Node20&#45;&gt;Node4</title>
<path fill="none" stroke="midnightblue" d="M852.207,-165.45C864.192,-157.201 883.057,-144.216 897.436,-134.319"/>
<polygon fill="midnightblue" stroke="midnightblue" points="899.455,-137.178 905.708,-128.625 895.486,-131.412 899.455,-137.178"/>
</g>
<!-- Node21 -->
<g id="node21" class="node"><title>Node21</title>
<polygon fill="white" stroke="#bfbfbf" points="816.67,-110.5 816.67,-128.5 864.354,-128.5 864.354,-110.5 816.67,-110.5"/>
<text text-anchor="middle" x="840.512" y="-116.5" font-family="Helvetica,sans-Serif" font-size="10.00">stdlib.h</text>
</g>
<!-- Node20&#45;&gt;Node21 -->
<g id="edge31" class="edge"><title>Node20&#45;&gt;Node21</title>
<path fill="none" stroke="midnightblue" d="M840.512,-165.219C840.512,-158.177 840.512,-147.808 840.512,-138.828"/>
<polygon fill="midnightblue" stroke="midnightblue" points="844.012,-138.55 840.512,-128.55 837.012,-138.55 844.012,-138.55"/>
</g>
<!-- Node22&#45;&gt;Node5 -->
<g id="edge37" class="edge"><title>Node22&#45;&gt;Node5</title>
<path fill="none" stroke="midnightblue" d="M919.041,-220.257C931.487,-212.685 948.058,-200.19 955.512,-184 962.254,-169.357 972.545,-129.957 954.512,-110 934.802,-88.1871 756.982,-74.953 654.852,-69.0856"/>
<polygon fill="midnightblue" stroke="midnightblue" points="654.788,-65.5765 644.607,-68.5071 654.393,-72.5654 654.788,-65.5765"/>
</g>
<!-- Node22&#45;&gt;Node20 -->
<g id="edge36" class="edge"><title>Node22&#45;&gt;Node20</title>
<path fill="none" stroke="midnightblue" d="M893.944,-220.45C884.415,-212.434 869.572,-199.947 857.946,-190.166"/>
<polygon fill="midnightblue" stroke="midnightblue" points="860.076,-187.385 850.171,-183.625 855.57,-192.741 860.076,-187.385"/>
</g>
<!-- Node23 -->
<g id="node23" class="node"><title>Node23</title>
<polygon fill="white" stroke="#bfbfbf" points="1157.45,-165.5 1157.45,-183.5 1209.58,-183.5 1209.58,-165.5 1157.45,-165.5"/>
<text text-anchor="middle" x="1183.51" y="-171.5" font-family="Helvetica,sans-Serif" font-size="10.00">stdarg.h</text>
</g>
<!-- Node22&#45;&gt;Node23 -->
<g id="edge35" class="edge"><title>Node22&#45;&gt;Node23</title>
<path fill="none" stroke="midnightblue" d="M946.038,-220.45C1001,-210.047 1095.75,-192.113 1147.39,-182.338"/>
<polygon fill="midnightblue" stroke="midnightblue" points="1148.25,-185.737 1157.42,-180.439 1146.95,-178.859 1148.25,-185.737"/>
</g>
<!-- Node22&#45;&gt;Node24 -->
<g id="edge38" class="edge"><title>Node22&#45;&gt;Node24</title>
<path fill="none" stroke="midnightblue" d="M929.332,-220.45C958.373,-211.396 1005.71,-196.638 1038.17,-186.519"/>
<polygon fill="midnightblue" stroke="midnightblue" points="1039.22,-189.856 1047.73,-183.538 1037.14,-183.173 1039.22,-189.856"/>
</g>
<!-- Node24&#45;&gt;Node5 -->
<g id="edge39" class="edge"><title>Node24&#45;&gt;Node5</title>
<path fill="none" stroke="midnightblue" d="M1070.7,-165.156C1065.47,-151.064 1052.79,-122.834 1031.51,-110 969.773,-72.763 764.348,-66.0854 654.4,-65.2603"/>
<polygon fill="midnightblue" stroke="midnightblue" points="654.411,-61.7604 644.389,-65.1994 654.368,-68.7603 654.411,-61.7604"/>
</g>
<!-- Node24&#45;&gt;Node25 -->
<g id="edge40" class="edge"><title>Node24&#45;&gt;Node25</title>
<path fill="none" stroke="midnightblue" d="M1095.38,-165.45C1119.49,-156.578 1158.48,-142.229 1185.9,-132.134"/>
<polygon fill="midnightblue" stroke="midnightblue" points="1187.26,-135.364 1195.44,-128.625 1184.84,-128.795 1187.26,-135.364"/>
</g>
<!-- Node25&#45;&gt;Node5 -->
<g id="edge41" class="edge"><title>Node25&#45;&gt;Node5</title>
<path fill="none" stroke="midnightblue" d="M1194.77,-112.558C1190.39,-111.578 1185.83,-110.666 1181.51,-110 992.689,-80.8687 767.272,-70.6354 654.766,-67.176"/>
<polygon fill="midnightblue" stroke="midnightblue" points="654.664,-63.6715 644.564,-66.8714 654.455,-70.6683 654.664,-63.6715"/>
</g>
<!-- Node25&#45;&gt;Node6 -->
<g id="edge43" class="edge"><title>Node25&#45;&gt;Node6</title>
<path fill="none" stroke="midnightblue" d="M1194.96,-112.617C1126.43,-94.7398 920.32,-40.9716 838.012,-19.4998"/>
<polygon fill="midnightblue" stroke="midnightblue" points="838.71,-16.065 828.151,-16.9274 836.943,-22.8383 838.71,-16.065"/>
</g>
<!-- Node25&#45;&gt;Node13 -->
<g id="edge42" class="edge"><title>Node25&#45;&gt;Node13</title>
<path fill="none" stroke="midnightblue" d="M1225.32,-110.219C1232.71,-102.394 1243.96,-90.4631 1252.99,-80.8921"/>
<polygon fill="midnightblue" stroke="midnightblue" points="1255.6,-83.2253 1259.92,-73.5496 1250.51,-78.4217 1255.6,-83.2253"/>
</g>
<!-- Node26&#45;&gt;Node3 -->
<g id="edge46" class="edge"><title>Node26&#45;&gt;Node3</title>
<path fill="none" stroke="midnightblue" d="M174.862,-165.45C214.367,-155.621 280.895,-139.067 321.25,-129.025"/>
<polygon fill="midnightblue" stroke="midnightblue" points="322.299,-132.371 331.158,-126.56 320.609,-125.578 322.299,-132.371"/>
</g>
<!-- Node26&#45;&gt;Node5 -->
<g id="edge47" class="edge"><title>Node26&#45;&gt;Node5</title>
<path fill="none" stroke="midnightblue" d="M145.971,-165.166C152.298,-151.089 167.174,-122.88 189.512,-110 242.86,-79.2387 414.092,-69.739 512.371,-66.8072"/>
<polygon fill="midnightblue" stroke="midnightblue" points="512.626,-70.3015 522.523,-66.5199 512.428,-63.3043 512.626,-70.3015"/>
</g>
<!-- Node27&#45;&gt;Node3 -->
<g id="edge55" class="edge"><title>Node27&#45;&gt;Node3</title>
<path fill="none" stroke="midnightblue" d="M624.64,-220.382C573.535,-201.416 446.146,-154.137 386.825,-132.121"/>
<polygon fill="midnightblue" stroke="midnightblue" points="387.834,-128.763 377.241,-128.564 385.399,-135.325 387.834,-128.763"/>
</g>
<!-- Node27&#45;&gt;Node5 -->
<g id="edge58" class="edge"><title>Node27&#45;&gt;Node5</title>
<path fill="none" stroke="midnightblue" d="M643.301,-220.193C633.485,-194.794 603.723,-117.791 590.257,-82.9517"/>
<polygon fill="midnightblue" stroke="midnightblue" points="593.512,-81.6629 586.642,-73.5971 586.982,-84.1865 593.512,-81.6629"/>
</g>
<!-- Node27&#45;&gt;Node8 -->
<g id="edge57" class="edge"><title>Node27&#45;&gt;Node8</title>
<path fill="none" stroke="midnightblue" d="M654.793,-220.219C662.618,-212.394 674.549,-200.463 684.12,-190.892"/>
<polygon fill="midnightblue" stroke="midnightblue" points="686.866,-193.096 691.463,-183.55 681.917,-188.146 686.866,-193.096"/>
</g>
<!-- Node27&#45;&gt;Node20 -->
<g id="edge56" class="edge"><title>Node27&#45;&gt;Node20</title>
<path fill="none" stroke="midnightblue" d="M675.977,-220.45C709.403,-211.318 764.072,-196.383 801.134,-186.258"/>
<polygon fill="midnightblue" stroke="midnightblue" points="802.365,-189.55 811.089,-183.538 800.52,-182.797 802.365,-189.55"/>
</g>
<!-- Node28&#45;&gt;Node5 -->
<g id="edge60" class="edge"><title>Node28&#45;&gt;Node5</title>
<path fill="none" stroke="midnightblue" d="M1129.51,-330.371C1129.51,-312.376 1129.51,-267.812 1129.51,-230.5 1129.51,-230.5 1129.51,-230.5 1129.51,-173.5 1129.51,-77.839 802.898,-65.5472 654.897,-64.888"/>
<polygon fill="midnightblue" stroke="midnightblue" points="654.566,-61.3872 644.556,-64.8596 654.546,-68.3871 654.566,-61.3872"/>
</g>
<!-- Node29&#45;&gt;Node5 -->
<g id="edge63" class="edge"><title>Node29&#45;&gt;Node5</title>
<path fill="none" stroke="midnightblue" d="M1204.94,-220.353C1213.9,-207.943 1228.02,-183.764 1218.51,-165 1209.17,-146.564 1162.88,-117.204 1143.51,-110 1055.84,-77.3992 785.183,-68.6695 654.953,-66.3413"/>
<polygon fill="midnightblue" stroke="midnightblue" points="654.747,-62.8374 644.688,-66.1659 654.627,-69.8364 654.747,-62.8374"/>
</g>
<!-- Node29&#45;&gt;Node23 -->
<g id="edge62" class="edge"><title>Node29&#45;&gt;Node23</title>
<path fill="none" stroke="midnightblue" d="M1196.17,-220.219C1194.13,-213.02 1191.11,-202.346 1188.53,-193.231"/>
<polygon fill="midnightblue" stroke="midnightblue" points="1191.88,-192.218 1185.79,-183.55 1185.15,-194.125 1191.88,-192.218"/>
</g>
<!-- Node37&#45;&gt;Node2 -->
<g id="edge77" class="edge"><title>Node37&#45;&gt;Node2</title>
<path fill="none" stroke="midnightblue" d="M835.329,-550.359C815.615,-542.772 787.146,-530.201 765.512,-514 747.614,-500.597 731.007,-480.924 720.39,-467.034"/>
<polygon fill="midnightblue" stroke="midnightblue" points="723.096,-464.808 714.325,-458.866 717.476,-468.981 723.096,-464.808"/>
</g>
<!-- Node38 -->
<g id="node38" class="node"><title>Node38</title>
<g id="a_node38"><a xlink:href="$AP__HAL__Linux__Namespace_8h.html" xlink:title="AP_HAL_Linux_Namespace.h">
<polygon fill="white" stroke="black" points="799.971,-440.5 799.971,-458.5 951.054,-458.5 951.054,-440.5 799.971,-440.5"/>
<text text-anchor="middle" x="875.512" y="-446.5" font-family="Helvetica,sans-Serif" font-size="10.00">AP_HAL_Linux_Namespace.h</text>
</a>
</g>
</g>
<!-- Node37&#45;&gt;Node38 -->
<g id="edge78" class="edge"><title>Node37&#45;&gt;Node38</title>
<path fill="none" stroke="midnightblue" d="M863.213,-550.3C867.901,-541.611 874.785,-527.333 877.512,-514 880.558,-499.108 879.745,-481.847 878.345,-469.084"/>
<polygon fill="midnightblue" stroke="midnightblue" points="881.769,-468.279 876.988,-458.824 874.83,-469.196 881.769,-468.279"/>
</g>
<!-- Node39 -->
<g id="node39" class="node"><title>Node39</title>
<g id="a_node39"><a xlink:href="$Storage__FRAM_8h.html" xlink:title="Storage_FRAM.h">
<polygon fill="white" stroke="black" points="774.884,-495.5 774.884,-513.5 868.14,-513.5 868.14,-495.5 774.884,-495.5"/>
<text text-anchor="middle" x="821.512" y="-501.5" font-family="Helvetica,sans-Serif" font-size="10.00">Storage_FRAM.h</text>
</a>
</g>
</g>
<!-- Node37&#45;&gt;Node39 -->
<g id="edge79" class="edge"><title>Node37&#45;&gt;Node39</title>
<path fill="none" stroke="midnightblue" d="M852.731,-550.219C847.433,-542.629 839.436,-531.175 832.863,-521.76"/>
<polygon fill="midnightblue" stroke="midnightblue" points="835.726,-519.746 827.132,-513.55 829.986,-523.753 835.726,-519.746"/>
</g>
<!-- Node39&#45;&gt;Node2 -->
<g id="edge80" class="edge"><title>Node39&#45;&gt;Node2</title>
<path fill="none" stroke="midnightblue" d="M804.35,-495.45C785.932,-486.812 756.442,-472.98 735.034,-462.94"/>
<polygon fill="midnightblue" stroke="midnightblue" points="736.376,-459.703 725.836,-458.625 733.403,-466.041 736.376,-459.703"/>
</g>
<!-- Node39&#45;&gt;Node38 -->
<g id="edge81" class="edge"><title>Node39&#45;&gt;Node38</title>
<path fill="none" stroke="midnightblue" d="M829.95,-495.219C838.001,-487.316 850.322,-475.224 860.122,-465.606"/>
<polygon fill="midnightblue" stroke="midnightblue" points="862.626,-468.052 867.311,-458.55 857.722,-463.056 862.626,-468.052"/>
</g>
</g>
</svg>
