<?xml version="1.0" encoding="UTF-8" standalone="no"?>
<!DOCTYPE svg PUBLIC "-//W3C//DTD SVG 1.1//EN"
 "http://www.w3.org/Graphics/SVG/1.1/DTD/svg11.dtd">
<!-- Generated by graphviz version 2.38.0 (20140413.2041)
 -->
<!-- Title: libraries/AP_HAL/Storage.h Pages: 1 -->
<svg width="216pt" height="137pt"
 viewBox="0.00 0.00 216.08 137.00" xmlns="http://www.w3.org/2000/svg" xmlns:xlink="http://www.w3.org/1999/xlink">
<g id="graph0" class="graph" transform="scale(1 1) rotate(0) translate(4 133)">
<title>libraries/AP_HAL/Storage.h</title>
<polygon fill="white" stroke="none" points="-4,4 -4,-133 212.083,-133 212.083,4 -4,4"/>
<!-- Node1 -->
<g id="node1" class="node"><title>Node1</title>
<polygon fill="#bfbfbf" stroke="black" points="5.97803,-110.5 5.97803,-128.5 144.263,-128.5 144.263,-110.5 5.97803,-110.5"/>
<text text-anchor="middle" x="75.1206" y="-116.5" font-family="Helvetica,sans-Serif" font-size="10.00">libraries/AP_HAL/Storage.h</text>
</g>
<!-- Node2 -->
<g id="node2" class="node"><title>Node2</title>
<polygon fill="white" stroke="#bfbfbf" points="0,-55.5 0,-73.5 48.2412,-73.5 48.2412,-55.5 0,-55.5"/>
<text text-anchor="middle" x="24.1206" y="-61.5" font-family="Helvetica,sans-Serif" font-size="10.00">stdint.h</text>
</g>
<!-- Node1&#45;&gt;Node2 -->
<g id="edge1" class="edge"><title>Node1&#45;&gt;Node2</title>
<path fill="none" stroke="midnightblue" d="M67.1519,-110.219C59.6228,-102.394 48.1417,-90.4631 38.9319,-80.8921"/>
<polygon fill="midnightblue" stroke="midnightblue" points="41.3223,-78.3285 31.8664,-73.5496 36.2782,-83.1821 41.3223,-78.3285"/>
</g>
<!-- Node3 -->
<g id="node3" class="node"><title>Node3</title>
<g id="a_node3"><a xlink:href="$AP__HAL__Namespace_8h.html" xlink:title="AP_HAL_Namespace.h">
<polygon fill="white" stroke="black" points="66.313,-55.5 66.313,-73.5 187.928,-73.5 187.928,-55.5 66.313,-55.5"/>
<text text-anchor="middle" x="127.121" y="-61.5" font-family="Helvetica,sans-Serif" font-size="10.00">AP_HAL_Namespace.h</text>
</a>
</g>
</g>
<!-- Node1&#45;&gt;Node3 -->
<g id="edge2" class="edge"><title>Node1&#45;&gt;Node3</title>
<path fill="none" stroke="midnightblue" d="M83.2456,-110.219C90.9223,-102.394 102.629,-90.4631 112.019,-80.8921"/>
<polygon fill="midnightblue" stroke="midnightblue" points="114.718,-83.1389 119.223,-73.5496 109.721,-78.2365 114.718,-83.1389"/>
</g>
<!-- Node4 -->
<g id="node4" class="node"><title>Node4</title>
<polygon fill="white" stroke="#bfbfbf" points="61.7241,-0.5 61.7241,-18.5 110.517,-18.5 110.517,-0.5 61.7241,-0.5"/>
<text text-anchor="middle" x="86.1206" y="-6.5" font-family="Helvetica,sans-Serif" font-size="10.00">string.h</text>
</g>
<!-- Node3&#45;&gt;Node4 -->
<g id="edge3" class="edge"><title>Node3&#45;&gt;Node4</title>
<path fill="none" stroke="midnightblue" d="M120.714,-55.2188C114.783,-47.5509 105.8,-35.9387 98.4741,-26.4691"/>
<polygon fill="midnightblue" stroke="midnightblue" points="101.235,-24.3176 92.3476,-18.5496 95.698,-28.6007 101.235,-24.3176"/>
</g>
<!-- Node5 -->
<g id="node5" class="node"><title>Node5</title>
<g id="a_node5"><a xlink:href="$functor_8h.html" xlink:title="utility/functor.h">
<polygon fill="white" stroke="black" points="128.158,-0.5 128.158,-18.5 208.083,-18.5 208.083,-0.5 128.158,-0.5"/>
<text text-anchor="middle" x="168.121" y="-6.5" font-family="Helvetica,sans-Serif" font-size="10.00">utility/functor.h</text>
</a>
</g>
</g>
<!-- Node3&#45;&gt;Node5 -->
<g id="edge4" class="edge"><title>Node3&#45;&gt;Node5</title>
<path fill="none" stroke="midnightblue" d="M133.527,-55.2188C139.459,-47.5509 148.442,-35.9387 155.767,-26.4691"/>
<polygon fill="midnightblue" stroke="midnightblue" points="158.543,-28.6007 161.894,-18.5496 153.006,-24.3176 158.543,-28.6007"/>
</g>
</g>
</svg>
