<?xml version="1.0" encoding="UTF-8" standalone="no"?>
<!DOCTYPE svg PUBLIC "-//W3C//DTD SVG 1.1//EN"
 "http://www.w3.org/Graphics/SVG/1.1/DTD/svg11.dtd">
<!-- Generated by graphviz version 2.38.0 (20140413.2041)
 -->
<!-- Title: libraries/AP_HAL/utility/Stream.h Pages: 1 -->
<svg width="285pt" height="202pt"
 viewBox="0.00 0.00 284.78 202.00" xmlns="http://www.w3.org/2000/svg" xmlns:xlink="http://www.w3.org/1999/xlink">
<g id="graph0" class="graph" transform="scale(1 1) rotate(0) translate(4 198)">
<title>libraries/AP_HAL/utility/Stream.h</title>
<polygon fill="white" stroke="none" points="-4,4 -4,-198 280.775,-198 280.775,4 -4,4"/>
<!-- Node1 -->
<g id="node1" class="node"><title>Node1</title>
<polygon fill="#bfbfbf" stroke="black" points="76.522,-165.5 76.522,-193.5 194.226,-193.5 194.226,-165.5 76.522,-165.5"/>
<text text-anchor="start" x="84.522" y="-181.5" font-family="Helvetica,sans-Serif" font-size="10.00">libraries/AP_HAL/utility</text>
<text text-anchor="middle" x="135.374" y="-171.5" font-family="Helvetica,sans-Serif" font-size="10.00">/Stream.h</text>
</g>
<!-- Node2 -->
<g id="node2" class="node"><title>Node2</title>
<g id="a_node2"><a xlink:href="$AP__HAL__Namespace_8h.html" xlink:title="AP_HAL/AP_HAL_Namespace.h">
<polygon fill="white" stroke="black" points="0,-55.5 0,-73.5 162.748,-73.5 162.748,-55.5 0,-55.5"/>
<text text-anchor="middle" x="81.374" y="-61.5" font-family="Helvetica,sans-Serif" font-size="10.00">AP_HAL/AP_HAL_Namespace.h</text>
</a>
</g>
</g>
<!-- Node1&#45;&gt;Node2 -->
<g id="edge1" class="edge"><title>Node1&#45;&gt;Node2</title>
<path fill="none" stroke="midnightblue" d="M128.967,-165.094C119.18,-144.612 100.503,-105.528 89.6844,-82.8902"/>
<polygon fill="midnightblue" stroke="midnightblue" points="92.7967,-81.2855 85.327,-73.772 86.4808,-84.3038 92.7967,-81.2855"/>
</g>
<!-- Node5 -->
<g id="node5" class="node"><title>Node5</title>
<g id="a_node5"><a xlink:href="$Print_8h.html" xlink:title="Print.h">
<polygon fill="white" stroke="black" points="152.923,-110.5 152.923,-128.5 197.825,-128.5 197.825,-110.5 152.923,-110.5"/>
<text text-anchor="middle" x="175.374" y="-116.5" font-family="Helvetica,sans-Serif" font-size="10.00">Print.h</text>
</a>
</g>
</g>
<!-- Node1&#45;&gt;Node5 -->
<g id="edge4" class="edge"><title>Node1&#45;&gt;Node5</title>
<path fill="none" stroke="midnightblue" d="M144.451,-165.339C150.199,-157.004 157.683,-146.151 163.849,-137.211"/>
<polygon fill="midnightblue" stroke="midnightblue" points="166.873,-138.991 169.67,-128.771 161.111,-135.017 166.873,-138.991"/>
</g>
<!-- Node3 -->
<g id="node3" class="node"><title>Node3</title>
<polygon fill="white" stroke="#bfbfbf" points="151.978,-0.5 151.978,-18.5 200.771,-18.5 200.771,-0.5 151.978,-0.5"/>
<text text-anchor="middle" x="176.374" y="-6.5" font-family="Helvetica,sans-Serif" font-size="10.00">string.h</text>
</g>
<!-- Node2&#45;&gt;Node3 -->
<g id="edge2" class="edge"><title>Node2&#45;&gt;Node3</title>
<path fill="none" stroke="midnightblue" d="M95.8025,-55.4504C110.868,-47.0453 134.746,-33.7241 152.603,-23.7618"/>
<polygon fill="midnightblue" stroke="midnightblue" points="154.782,-26.5539 161.81,-18.6253 151.372,-20.4409 154.782,-26.5539"/>
</g>
<!-- Node4 -->
<g id="node4" class="node"><title>Node4</title>
<g id="a_node4"><a xlink:href="$functor_8h.html" xlink:title="utility/functor.h">
<polygon fill="white" stroke="black" points="41.4111,-0.5 41.4111,-18.5 121.337,-18.5 121.337,-0.5 41.4111,-0.5"/>
<text text-anchor="middle" x="81.374" y="-6.5" font-family="Helvetica,sans-Serif" font-size="10.00">utility/functor.h</text>
</a>
</g>
</g>
<!-- Node2&#45;&gt;Node4 -->
<g id="edge3" class="edge"><title>Node2&#45;&gt;Node4</title>
<path fill="none" stroke="midnightblue" d="M81.374,-55.2188C81.374,-48.1769 81.374,-37.8083 81.374,-28.8277"/>
<polygon fill="midnightblue" stroke="midnightblue" points="84.8741,-28.5495 81.374,-18.5496 77.8741,-28.5496 84.8741,-28.5495"/>
</g>
<!-- Node5&#45;&gt;Node2 -->
<g id="edge5" class="edge"><title>Node5&#45;&gt;Node2</title>
<path fill="none" stroke="midnightblue" d="M161.097,-110.45C146.19,-102.045 122.564,-88.7241 104.895,-78.7618"/>
<polygon fill="midnightblue" stroke="midnightblue" points="106.215,-75.488 95.785,-73.6253 102.777,-81.5856 106.215,-75.488"/>
</g>
<!-- Node5&#45;&gt;Node3 -->
<g id="edge7" class="edge"><title>Node5&#45;&gt;Node3</title>
<path fill="none" stroke="midnightblue" d="M175.449,-110.382C175.608,-93.1822 175.983,-52.698 176.204,-28.8866"/>
<polygon fill="midnightblue" stroke="midnightblue" points="179.705,-28.7438 176.298,-18.7118 172.705,-28.6789 179.705,-28.7438"/>
</g>
<!-- Node6 -->
<g id="node6" class="node"><title>Node6</title>
<polygon fill="white" stroke="#bfbfbf" points="217.973,-55.5 217.973,-73.5 276.775,-73.5 276.775,-55.5 217.973,-55.5"/>
<text text-anchor="middle" x="247.374" y="-61.5" font-family="Helvetica,sans-Serif" font-size="10.00">inttypes.h</text>
</g>
<!-- Node5&#45;&gt;Node6 -->
<g id="edge6" class="edge"><title>Node5&#45;&gt;Node6</title>
<path fill="none" stroke="midnightblue" d="M186.309,-110.45C197.41,-102.279 214.824,-89.4604 228.22,-79.5996"/>
<polygon fill="midnightblue" stroke="midnightblue" points="230.357,-82.3722 236.336,-73.6253 226.208,-76.7348 230.357,-82.3722"/>
</g>
</g>
</svg>
