<?xml version="1.0" encoding="UTF-8" standalone="no"?>
<!DOCTYPE svg PUBLIC "-//W3C//DTD SVG 1.1//EN"
 "http://www.w3.org/Graphics/SVG/1.1/DTD/svg11.dtd">
<!-- Generated by graphviz version 2.38.0 (20140413.2041)
 -->
<!-- Title: libraries/AP_HAL_Linux/TCPServerDevice.h Pages: 1 -->
<svg width="270pt" height="102pt"
 viewBox="0.00 0.00 269.61 102.00" xmlns="http://www.w3.org/2000/svg" xmlns:xlink="http://www.w3.org/1999/xlink">
<g id="graph0" class="graph" transform="scale(1 1) rotate(0) translate(4 98)">
<title>libraries/AP_HAL_Linux/TCPServerDevice.h</title>
<polygon fill="white" stroke="none" points="-4,4 -4,-98 265.61,-98 265.61,4 -4,4"/>
<!-- Node1 -->
<g id="node1" class="node"><title>Node1</title>
<polygon fill="#bfbfbf" stroke="black" points="70,-65.5 70,-93.5 191.61,-93.5 191.61,-65.5 70,-65.5"/>
<text text-anchor="start" x="78" y="-81.5" font-family="Helvetica,sans-Serif" font-size="10.00">libraries/AP_HAL_Linux</text>
<text text-anchor="middle" x="130.805" y="-71.5" font-family="Helvetica,sans-Serif" font-size="10.00">/TCPServerDevice.h</text>
</g>
<!-- Node2 -->
<g id="node2" class="node"><title>Node2</title>
<g id="a_node2"><a xlink:href="$TCPServerDevice_8cpp.html" xlink:title="libraries/AP_HAL_Linux\l/TCPServerDevice.cpp">
<polygon fill="white" stroke="black" points="0,-0.5 0,-28.5 121.61,-28.5 121.61,-0.5 0,-0.5"/>
<text text-anchor="start" x="8" y="-16.5" font-family="Helvetica,sans-Serif" font-size="10.00">libraries/AP_HAL_Linux</text>
<text text-anchor="middle" x="60.8052" y="-6.5" font-family="Helvetica,sans-Serif" font-size="10.00">/TCPServerDevice.cpp</text>
</a>
</g>
</g>
<!-- Node1&#45;&gt;Node2 -->
<g id="edge1" class="edge"><title>Node1&#45;&gt;Node2</title>
<path fill="none" stroke="midnightblue" d="M108.767,-58.6654C97.8414,-48.8326 84.9538,-37.2338 75.2906,-28.5369"/>
<polygon fill="midnightblue" stroke="midnightblue" points="106.527,-61.3582 116.301,-65.4464 111.21,-56.1551 106.527,-61.3582"/>
</g>
<!-- Node3 -->
<g id="node3" class="node"><title>Node3</title>
<g id="a_node3"><a xlink:href="$Linux_2UARTDriver_8cpp.html" xlink:title="libraries/AP_HAL_Linux\l/UARTDriver.cpp">
<polygon fill="white" stroke="black" points="140,-0.5 140,-28.5 261.61,-28.5 261.61,-0.5 140,-0.5"/>
<text text-anchor="start" x="148" y="-16.5" font-family="Helvetica,sans-Serif" font-size="10.00">libraries/AP_HAL_Linux</text>
<text text-anchor="middle" x="200.805" y="-6.5" font-family="Helvetica,sans-Serif" font-size="10.00">/UARTDriver.cpp</text>
</a>
</g>
</g>
<!-- Node1&#45;&gt;Node3 -->
<g id="edge2" class="edge"><title>Node1&#45;&gt;Node3</title>
<path fill="none" stroke="midnightblue" d="M152.844,-58.6654C163.769,-48.8326 176.657,-37.2338 186.32,-28.5369"/>
<polygon fill="midnightblue" stroke="midnightblue" points="150.401,-56.1551 145.309,-65.4464 155.084,-61.3582 150.401,-56.1551"/>
</g>
</g>
</svg>
