<?xml version="1.0" encoding="UTF-8" standalone="no"?>
<!DOCTYPE svg PUBLIC "-//W3C//DTD SVG 1.1//EN"
 "http://www.w3.org/Graphics/SVG/1.1/DTD/svg11.dtd">
<!-- Generated by graphviz version 2.38.0 (20140413.2041)
 -->
<!-- Title: libraries/AP_HAL_Linux/TCPServerDevice.cpp Pages: 1 -->
<svg width="1478pt" height="642pt"
 viewBox="0.00 0.00 1478.00 642.00" xmlns="http://www.w3.org/2000/svg" xmlns:xlink="http://www.w3.org/1999/xlink">
<g id="graph0" class="graph" transform="scale(1 1) rotate(0) translate(4 638)">
<title>libraries/AP_HAL_Linux/TCPServerDevice.cpp</title>
<polygon fill="white" stroke="none" points="-4,4 -4,-638 1474,-638 1474,4 -4,4"/>
<!-- Node1 -->
<g id="node1" class="node"><title>Node1</title>
<polygon fill="#bfbfbf" stroke="black" points="1132.19,-605.5 1132.19,-633.5 1253.81,-633.5 1253.81,-605.5 1132.19,-605.5"/>
<text text-anchor="start" x="1140.19" y="-621.5" font-family="Helvetica,sans-Serif" font-size="10.00">libraries/AP_HAL_Linux</text>
<text text-anchor="middle" x="1193" y="-611.5" font-family="Helvetica,sans-Serif" font-size="10.00">/TCPServerDevice.cpp</text>
</g>
<!-- Node2 -->
<g id="node2" class="node"><title>Node2</title>
<g id="a_node2"><a xlink:href="$AP__HAL_8h.html" xlink:title="AP_HAL/AP_HAL.h">
<polygon fill="white" stroke="black" points="549.086,-440.5 549.086,-458.5 652.914,-458.5 652.914,-440.5 549.086,-440.5"/>
<text text-anchor="middle" x="601" y="-446.5" font-family="Helvetica,sans-Serif" font-size="10.00">AP_HAL/AP_HAL.h</text>
</a>
</g>
</g>
<!-- Node1&#45;&gt;Node2 -->
<g id="edge1" class="edge"><title>Node1&#45;&gt;Node2</title>
<path fill="none" stroke="midnightblue" d="M1142.11,-605.408C1104.45,-595.629 1051.94,-581.799 1006,-569 869.453,-530.958 707.961,-482.729 637.231,-461.443"/>
<polygon fill="midnightblue" stroke="midnightblue" points="638.052,-458.035 627.468,-458.502 636.034,-464.738 638.052,-458.035"/>
</g>
<!-- Node21 -->
<g id="node21" class="node"><title>Node21</title>
<polygon fill="white" stroke="#bfbfbf" points="1378.16,-110.5 1378.16,-128.5 1425.84,-128.5 1425.84,-110.5 1378.16,-110.5"/>
<text text-anchor="middle" x="1402" y="-116.5" font-family="Helvetica,sans-Serif" font-size="10.00">stdlib.h</text>
</g>
<!-- Node1&#45;&gt;Node21 -->
<g id="edge71" class="edge"><title>Node1&#45;&gt;Node21</title>
<path fill="none" stroke="midnightblue" d="M1254.13,-606.371C1335.71,-588.402 1470,-551.79 1470,-505.5 1470,-505.5 1470,-505.5 1470,-228.5 1470,-199.042 1466.7,-189.926 1451,-165 1443.61,-153.268 1432.3,-142.71 1422.41,-134.825"/>
<polygon fill="midnightblue" stroke="midnightblue" points="1424.3,-131.867 1414.22,-128.622 1420.08,-137.449 1424.3,-131.867"/>
</g>
<!-- Node30 -->
<g id="node30" class="node"><title>Node30</title>
<polygon fill="white" stroke="#bfbfbf" points="1137.27,-550.5 1137.27,-568.5 1182.73,-568.5 1182.73,-550.5 1137.27,-550.5"/>
<text text-anchor="middle" x="1160" y="-556.5" font-family="Helvetica,sans-Serif" font-size="10.00">stdio.h</text>
</g>
<!-- Node1&#45;&gt;Node30 -->
<g id="edge68" class="edge"><title>Node1&#45;&gt;Node30</title>
<path fill="none" stroke="midnightblue" d="M1185.51,-605.339C1180.82,-597.092 1174.72,-586.38 1169.67,-577.494"/>
<polygon fill="midnightblue" stroke="midnightblue" points="1172.69,-575.732 1164.71,-568.771 1166.61,-579.194 1172.69,-575.732"/>
</g>
<!-- Node31 -->
<g id="node31" class="node"><title>Node31</title>
<polygon fill="white" stroke="#bfbfbf" points="1200.49,-550.5 1200.49,-568.5 1251.51,-568.5 1251.51,-550.5 1200.49,-550.5"/>
<text text-anchor="middle" x="1226" y="-556.5" font-family="Helvetica,sans-Serif" font-size="10.00">unistd.h</text>
</g>
<!-- Node1&#45;&gt;Node31 -->
<g id="edge69" class="edge"><title>Node1&#45;&gt;Node31</title>
<path fill="none" stroke="midnightblue" d="M1200.49,-605.339C1205.18,-597.092 1211.28,-586.38 1216.33,-577.494"/>
<polygon fill="midnightblue" stroke="midnightblue" points="1219.39,-579.194 1221.29,-568.771 1213.31,-575.732 1219.39,-579.194"/>
</g>
<!-- Node32 -->
<g id="node32" class="node"><title>Node32</title>
<polygon fill="white" stroke="#bfbfbf" points="1269.16,-550.5 1269.16,-568.5 1316.84,-568.5 1316.84,-550.5 1269.16,-550.5"/>
<text text-anchor="middle" x="1293" y="-556.5" font-family="Helvetica,sans-Serif" font-size="10.00">errno.h</text>
</g>
<!-- Node1&#45;&gt;Node32 -->
<g id="edge70" class="edge"><title>Node1&#45;&gt;Node32</title>
<path fill="none" stroke="midnightblue" d="M1215.69,-605.339C1231.97,-595.895 1253.83,-583.22 1270.15,-573.755"/>
<polygon fill="midnightblue" stroke="midnightblue" points="1272.14,-576.647 1279.03,-568.602 1268.62,-570.591 1272.14,-576.647"/>
</g>
<!-- Node33 -->
<g id="node33" class="node"><title>Node33</title>
<g id="a_node33"><a xlink:href="$TCPServerDevice_8h.html" xlink:title="TCPServerDevice.h">
<polygon fill="white" stroke="black" points="1014.82,-550.5 1014.82,-568.5 1119.18,-568.5 1119.18,-550.5 1014.82,-550.5"/>
<text text-anchor="middle" x="1067" y="-556.5" font-family="Helvetica,sans-Serif" font-size="10.00">TCPServerDevice.h</text>
</a>
</g>
</g>
<!-- Node1&#45;&gt;Node33 -->
<g id="edge72" class="edge"><title>Node1&#45;&gt;Node33</title>
<path fill="none" stroke="midnightblue" d="M1164.72,-605.484C1143.55,-595.738 1114.77,-582.491 1093.93,-572.898"/>
<polygon fill="midnightblue" stroke="midnightblue" points="1095.24,-569.646 1084.69,-568.643 1092.31,-576.004 1095.24,-569.646"/>
</g>
<!-- Node3 -->
<g id="node3" class="node"><title>Node3</title>
<polygon fill="white" stroke="#bfbfbf" points="887.879,-110.5 887.879,-128.5 936.121,-128.5 936.121,-110.5 887.879,-110.5"/>
<text text-anchor="middle" x="912" y="-116.5" font-family="Helvetica,sans-Serif" font-size="10.00">stdint.h</text>
</g>
<!-- Node2&#45;&gt;Node3 -->
<g id="edge2" class="edge"><title>Node2&#45;&gt;Node3</title>
<path fill="none" stroke="midnightblue" d="M652.976,-444.899C801.978,-433.885 1220,-397.874 1220,-340.5 1220,-340.5 1220,-340.5 1220,-228.5 1220,-195.145 1207.78,-183.463 1180,-165 1142.22,-139.888 1009.89,-127.389 946.437,-122.727"/>
<polygon fill="midnightblue" stroke="midnightblue" points="946.371,-119.213 936.148,-121.995 945.875,-126.196 946.371,-119.213"/>
</g>
<!-- Node4 -->
<g id="node4" class="node"><title>Node4</title>
<polygon fill="white" stroke="#bfbfbf" points="1072.71,-110.5 1072.71,-128.5 1129.29,-128.5 1129.29,-110.5 1072.71,-110.5"/>
<text text-anchor="middle" x="1101" y="-116.5" font-family="Helvetica,sans-Serif" font-size="10.00">stdbool.h</text>
</g>
<!-- Node2&#45;&gt;Node4 -->
<g id="edge3" class="edge"><title>Node2&#45;&gt;Node4</title>
<path fill="none" stroke="midnightblue" d="M652.94,-448.735C744.245,-448.073 938.925,-441.843 1098,-404 1172.43,-386.294 1258,-417.007 1258,-340.5 1258,-340.5 1258,-340.5 1258,-228.5 1258,-171.017 1185.68,-141.813 1139.2,-128.98"/>
<polygon fill="midnightblue" stroke="midnightblue" points="1139.99,-125.569 1129.43,-126.415 1138.22,-132.339 1139.99,-125.569"/>
</g>
<!-- Node5 -->
<g id="node5" class="node"><title>Node5</title>
<g id="a_node5"><a xlink:href="$AP__HAL__Namespace_8h.html" xlink:title="AP_HAL_Namespace.h">
<polygon fill="white" stroke="black" points="343.192,-55.5 343.192,-73.5 464.808,-73.5 464.808,-55.5 343.192,-55.5"/>
<text text-anchor="middle" x="404" y="-61.5" font-family="Helvetica,sans-Serif" font-size="10.00">AP_HAL_Namespace.h</text>
</a>
</g>
</g>
<!-- Node2&#45;&gt;Node5 -->
<g id="edge4" class="edge"><title>Node2&#45;&gt;Node5</title>
<path fill="none" stroke="midnightblue" d="M652.921,-446.619C775.773,-441.829 1081.43,-427.837 1181,-404 1252.6,-386.858 1334,-414.124 1334,-340.5 1334,-340.5 1334,-340.5 1334,-173.5 1334,-87.098 692.448,-69.7184 475.047,-66.3095"/>
<polygon fill="midnightblue" stroke="midnightblue" points="475.072,-62.8095 465.02,-66.1575 474.966,-69.8087 475.072,-62.8095"/>
</g>
<!-- Node8 -->
<g id="node8" class="node"><title>Node8</title>
<g id="a_node8"><a xlink:href="$AP__HAL__Boards_8h.html" xlink:title="AP_HAL_Boards.h">
<polygon fill="white" stroke="black" points="1054.03,-165.5 1054.03,-183.5 1153.97,-183.5 1153.97,-165.5 1054.03,-165.5"/>
<text text-anchor="middle" x="1104" y="-171.5" font-family="Helvetica,sans-Serif" font-size="10.00">AP_HAL_Boards.h</text>
</a>
</g>
</g>
<!-- Node2&#45;&gt;Node8 -->
<g id="edge7" class="edge"><title>Node2&#45;&gt;Node8</title>
<path fill="none" stroke="midnightblue" d="M653.059,-444.969C759.058,-436.345 990,-409.626 990,-340.5 990,-340.5 990,-340.5 990,-283.5 990,-236.974 1040.66,-204.485 1074.44,-187.994"/>
<polygon fill="midnightblue" stroke="midnightblue" points="1076.3,-190.985 1083.88,-183.58 1073.34,-184.643 1076.3,-190.985"/>
</g>
<!-- Node9 -->
<g id="node9" class="node"><title>Node9</title>
<g id="a_node9"><a xlink:href="$AP__HAL__Macros_8h.html" xlink:title="AP_HAL_Macros.h">
<polygon fill="white" stroke="black" points="135.48,-385.5 135.48,-403.5 236.52,-403.5 236.52,-385.5 135.48,-385.5"/>
<text text-anchor="middle" x="186" y="-391.5" font-family="Helvetica,sans-Serif" font-size="10.00">AP_HAL_Macros.h</text>
</a>
</g>
</g>
<!-- Node2&#45;&gt;Node9 -->
<g id="edge8" class="edge"><title>Node2&#45;&gt;Node9</title>
<path fill="none" stroke="midnightblue" d="M548.811,-441.923C480.409,-433.29 356.705,-417.631 251,-404 249.698,-403.832 248.382,-403.662 247.055,-403.491"/>
<polygon fill="midnightblue" stroke="midnightblue" points="247.107,-399.968 236.74,-402.153 246.207,-406.91 247.107,-399.968"/>
</g>
<!-- Node10 -->
<g id="node10" class="node"><title>Node10</title>
<g id="a_node10"><a xlink:href="$AP__HAL__Main_8h.html" xlink:title="AP_HAL_Main.h">
<polygon fill="white" stroke="black" points="445.035,-385.5 445.035,-403.5 534.965,-403.5 534.965,-385.5 445.035,-385.5"/>
<text text-anchor="middle" x="490" y="-391.5" font-family="Helvetica,sans-Serif" font-size="10.00">AP_HAL_Main.h</text>
</a>
</g>
</g>
<!-- Node2&#45;&gt;Node10 -->
<g id="edge9" class="edge"><title>Node2&#45;&gt;Node10</title>
<path fill="none" stroke="midnightblue" d="M584.141,-440.45C566.049,-431.812 537.081,-417.98 516.053,-407.94"/>
<polygon fill="midnightblue" stroke="midnightblue" points="517.549,-404.776 507.017,-403.625 514.533,-411.093 517.549,-404.776"/>
</g>
<!-- Node11 -->
<g id="node11" class="node"><title>Node11</title>
<g id="a_node11"><a xlink:href="$HAL_8h.html" xlink:title="HAL.h">
<polygon fill="white" stroke="black" points="416.104,-330.5 416.104,-348.5 459.896,-348.5 459.896,-330.5 416.104,-330.5"/>
<text text-anchor="middle" x="438" y="-336.5" font-family="Helvetica,sans-Serif" font-size="10.00">HAL.h</text>
</a>
</g>
</g>
<!-- Node2&#45;&gt;Node11 -->
<g id="edge67" class="edge"><title>Node2&#45;&gt;Node11</title>
<path fill="none" stroke="midnightblue" d="M549.066,-441.436C506.043,-434.394 449.802,-422.018 436,-404 426.262,-391.287 428.213,-372.57 431.726,-358.748"/>
<polygon fill="midnightblue" stroke="midnightblue" points="435.153,-359.505 434.686,-348.92 428.451,-357.486 435.153,-359.505"/>
</g>
<!-- Node12 -->
<g id="node12" class="node"><title>Node12</title>
<g id="a_node12"><a xlink:href="$AnalogIn_8h.html" xlink:title="AnalogIn.h">
<polygon fill="white" stroke="black" points="277.091,-220.5 277.091,-238.5 340.909,-238.5 340.909,-220.5 277.091,-220.5"/>
<text text-anchor="middle" x="309" y="-226.5" font-family="Helvetica,sans-Serif" font-size="10.00">AnalogIn.h</text>
</a>
</g>
</g>
<!-- Node2&#45;&gt;Node12 -->
<g id="edge49" class="edge"><title>Node2&#45;&gt;Node12</title>
<path fill="none" stroke="midnightblue" d="M548.674,-445.725C506.506,-441.474 447.03,-430.786 402,-404 374.116,-387.413 317.392,-324.379 306,-294 300.545,-279.453 301.996,-261.705 304.408,-248.674"/>
<polygon fill="midnightblue" stroke="midnightblue" points="307.886,-249.155 306.625,-238.636 301.05,-247.645 307.886,-249.155"/>
</g>
<!-- Node14 -->
<g id="node14" class="node"><title>Node14</title>
<g id="a_node14"><a xlink:href="$GPIO_8h.html" xlink:title="GPIO.h">
<polygon fill="white" stroke="black" points="794.328,-220.5 794.328,-238.5 843.672,-238.5 843.672,-220.5 794.328,-220.5"/>
<text text-anchor="middle" x="819" y="-226.5" font-family="Helvetica,sans-Serif" font-size="10.00">GPIO.h</text>
</a>
</g>
</g>
<!-- Node2&#45;&gt;Node14 -->
<g id="edge51" class="edge"><title>Node2&#45;&gt;Node14</title>
<path fill="none" stroke="midnightblue" d="M625.882,-440.477C646.663,-433.039 676.429,-420.618 699,-404 756.465,-361.692 795.97,-283.28 811.566,-248.23"/>
<polygon fill="midnightblue" stroke="midnightblue" points="814.873,-249.401 815.631,-238.833 808.448,-246.621 814.873,-249.401"/>
</g>
<!-- Node15 -->
<g id="node15" class="node"><title>Node15</title>
<g id="a_node15"><a xlink:href="$RCInput_8h.html" xlink:title="RCInput.h">
<polygon fill="white" stroke="black" points="28.4878,-275.5 28.4878,-293.5 89.5122,-293.5 89.5122,-275.5 28.4878,-275.5"/>
<text text-anchor="middle" x="59" y="-281.5" font-family="Helvetica,sans-Serif" font-size="10.00">RCInput.h</text>
</a>
</g>
</g>
<!-- Node2&#45;&gt;Node15 -->
<g id="edge52" class="edge"><title>Node2&#45;&gt;Node15</title>
<path fill="none" stroke="midnightblue" d="M548.699,-447.23C426.049,-443.787 127.627,-432.543 93,-404 63.22,-379.453 58.5235,-330.695 58.3494,-304.011"/>
<polygon fill="midnightblue" stroke="midnightblue" points="61.8526,-303.816 58.5026,-293.765 54.8534,-303.712 61.8526,-303.816"/>
</g>
<!-- Node16 -->
<g id="node16" class="node"><title>Node16</title>
<g id="a_node16"><a xlink:href="$RCOutput_8h.html" xlink:title="RCOutput.h">
<polygon fill="white" stroke="black" points="152.599,-275.5 152.599,-293.5 221.401,-293.5 221.401,-275.5 152.599,-275.5"/>
<text text-anchor="middle" x="187" y="-281.5" font-family="Helvetica,sans-Serif" font-size="10.00">RCOutput.h</text>
</a>
</g>
</g>
<!-- Node2&#45;&gt;Node16 -->
<g id="edge53" class="edge"><title>Node2&#45;&gt;Node16</title>
<path fill="none" stroke="midnightblue" d="M549.057,-448.062C487.517,-445.927 382.89,-437.152 300,-404 260.615,-388.248 250.294,-380.604 222,-349 209.81,-335.383 200.189,-316.787 194.144,-303.239"/>
<polygon fill="midnightblue" stroke="midnightblue" points="197.205,-301.492 190.082,-293.648 190.759,-304.222 197.205,-301.492"/>
</g>
<!-- Node17 -->
<g id="node17" class="node"><title>Node17</title>
<g id="a_node17"><a xlink:href="$SPIDriver_8h.html" xlink:title="SPIDriver.h">
<polygon fill="white" stroke="black" points="314.712,-275.5 314.712,-293.5 381.288,-293.5 381.288,-275.5 314.712,-275.5"/>
<text text-anchor="middle" x="348" y="-281.5" font-family="Helvetica,sans-Serif" font-size="10.00">SPIDriver.h</text>
</a>
</g>
</g>
<!-- Node2&#45;&gt;Node17 -->
<g id="edge48" class="edge"><title>Node2&#45;&gt;Node17</title>
<path fill="none" stroke="midnightblue" d="M548.976,-445.2C511.787,-440.613 462.133,-429.732 426,-404 389.5,-378.007 365.485,-329.109 354.643,-302.991"/>
<polygon fill="midnightblue" stroke="midnightblue" points="357.862,-301.611 350.915,-293.612 351.357,-304.197 357.862,-301.611"/>
</g>
<!-- Node18 -->
<g id="node18" class="node"><title>Node18</title>
<g id="a_node18"><a xlink:href="$Storage_8h.html" xlink:title="Storage.h">
<polygon fill="white" stroke="black" points="475.318,-275.5 475.318,-293.5 534.682,-293.5 534.682,-275.5 475.318,-275.5"/>
<text text-anchor="middle" x="505" y="-281.5" font-family="Helvetica,sans-Serif" font-size="10.00">Storage.h</text>
</a>
</g>
</g>
<!-- Node2&#45;&gt;Node18 -->
<g id="edge50" class="edge"><title>Node2&#45;&gt;Node18</title>
<path fill="none" stroke="midnightblue" d="M596.107,-440.193C581.084,-414.684 535.405,-337.126 515.014,-302.504"/>
<polygon fill="midnightblue" stroke="midnightblue" points="517.86,-300.438 509.769,-293.597 511.828,-303.99 517.86,-300.438"/>
</g>
<!-- Node19 -->
<g id="node19" class="node"><title>Node19</title>
<g id="a_node19"><a xlink:href="$UARTDriver_8h.html" xlink:title="UARTDriver.h">
<polygon fill="white" stroke="black" points="667.248,-275.5 667.248,-293.5 744.752,-293.5 744.752,-275.5 667.248,-275.5"/>
<text text-anchor="middle" x="706" y="-281.5" font-family="Helvetica,sans-Serif" font-size="10.00">UARTDriver.h</text>
</a>
</g>
</g>
<!-- Node2&#45;&gt;Node19 -->
<g id="edge44" class="edge"><title>Node2&#45;&gt;Node19</title>
<path fill="none" stroke="midnightblue" d="M613.525,-440.231C625.022,-432.125 641.904,-418.848 653,-404 676.866,-372.063 693.057,-327.678 700.783,-303.299"/>
<polygon fill="midnightblue" stroke="midnightblue" points="704.165,-304.209 703.735,-293.623 697.469,-302.167 704.165,-304.209"/>
</g>
<!-- Node22 -->
<g id="node22" class="node"><title>Node22</title>
<g id="a_node22"><a xlink:href="$BetterStream_8h.html" xlink:title="utility/BetterStream.h">
<polygon fill="white" stroke="black" points="535.594,-220.5 535.594,-238.5 644.406,-238.5 644.406,-220.5 535.594,-220.5"/>
<text text-anchor="middle" x="590" y="-226.5" font-family="Helvetica,sans-Serif" font-size="10.00">utility/BetterStream.h</text>
</a>
</g>
</g>
<!-- Node2&#45;&gt;Node22 -->
<g id="edge66" class="edge"><title>Node2&#45;&gt;Node22</title>
<path fill="none" stroke="midnightblue" d="M604.343,-440.476C607.805,-431.699 612.984,-417.128 615,-404 619.993,-371.492 619.038,-362.64 615,-330 611.401,-300.903 602.094,-268.086 595.907,-248.364"/>
<polygon fill="midnightblue" stroke="midnightblue" points="599.168,-247.07 592.77,-238.626 592.505,-249.217 599.168,-247.07"/>
</g>
<!-- Node24 -->
<g id="node24" class="node"><title>Node24</title>
<g id="a_node24"><a xlink:href="$Stream_8h.html" xlink:title="Stream.h">
<polygon fill="white" stroke="black" points="88.7144,-165.5 88.7144,-183.5 145.286,-183.5 145.286,-165.5 88.7144,-165.5"/>
<text text-anchor="middle" x="117" y="-171.5" font-family="Helvetica,sans-Serif" font-size="10.00">Stream.h</text>
</a>
</g>
</g>
<!-- Node2&#45;&gt;Node24 -->
<g id="edge65" class="edge"><title>Node2&#45;&gt;Node24</title>
<path fill="none" stroke="midnightblue" d="M549.047,-447.416C431.811,-444.441 154.66,-434.252 126,-404 97.6891,-374.116 109.339,-242.707 114.787,-193.865"/>
<polygon fill="midnightblue" stroke="midnightblue" points="118.278,-194.142 115.953,-183.805 111.324,-193.335 118.278,-194.142"/>
</g>
<!-- Node25 -->
<g id="node25" class="node"><title>Node25</title>
<g id="a_node25"><a xlink:href="$Print_8h.html" xlink:title="Print.h">
<polygon fill="white" stroke="black" points="24.5493,-110.5 24.5493,-128.5 69.4507,-128.5 69.4507,-110.5 24.5493,-110.5"/>
<text text-anchor="middle" x="47" y="-116.5" font-family="Helvetica,sans-Serif" font-size="10.00">Print.h</text>
</a>
</g>
</g>
<!-- Node2&#45;&gt;Node25 -->
<g id="edge64" class="edge"><title>Node2&#45;&gt;Node25</title>
<path fill="none" stroke="midnightblue" d="M548.97,-448.142C433.391,-446.7 158.794,-439.522 74,-404 34.0279,-387.255 0,-383.838 0,-340.5 0,-340.5 0,-340.5 0,-228.5 0,-193.567 20.9303,-157.162 34.8562,-136.806"/>
<polygon fill="midnightblue" stroke="midnightblue" points="37.7165,-138.824 40.6614,-128.646 32.0126,-134.766 37.7165,-138.824"/>
</g>
<!-- Node26 -->
<g id="node26" class="node"><title>Node26</title>
<g id="a_node26"><a xlink:href="$I2CDriver_8h.html" xlink:title="I2CDriver.h">
<polygon fill="white" stroke="black" points="469.99,-165.5 469.99,-183.5 536.01,-183.5 536.01,-165.5 469.99,-165.5"/>
<text text-anchor="middle" x="503" y="-171.5" font-family="Helvetica,sans-Serif" font-size="10.00">I2CDriver.h</text>
</a>
</g>
</g>
<!-- Node2&#45;&gt;Node26 -->
<g id="edge45" class="edge"><title>Node2&#45;&gt;Node26</title>
<path fill="none" stroke="midnightblue" d="M599.027,-440.214C596.069,-428.027 590.172,-404.593 584,-385 568.37,-335.383 564.017,-323.016 544,-275 537.192,-258.668 533.911,-255.289 527,-239 520.527,-223.743 513.923,-206.087 509.286,-193.271"/>
<polygon fill="midnightblue" stroke="midnightblue" points="512.563,-192.04 505.899,-183.803 505.972,-194.398 512.563,-192.04"/>
</g>
<!-- Node27 -->
<g id="node27" class="node"><title>Node27</title>
<g id="a_node27"><a xlink:href="$Scheduler_8h.html" xlink:title="Scheduler.h">
<polygon fill="white" stroke="black" points="1069.59,-220.5 1069.59,-238.5 1138.41,-238.5 1138.41,-220.5 1069.59,-220.5"/>
<text text-anchor="middle" x="1104" y="-226.5" font-family="Helvetica,sans-Serif" font-size="10.00">Scheduler.h</text>
</a>
</g>
</g>
<!-- Node2&#45;&gt;Node27 -->
<g id="edge54" class="edge"><title>Node2&#45;&gt;Node27</title>
<path fill="none" stroke="midnightblue" d="M652.99,-448.483C748.514,-447.535 947.364,-441.022 1004,-404 1060.96,-366.763 1089.28,-285.029 1099.46,-248.619"/>
<polygon fill="midnightblue" stroke="midnightblue" points="1102.86,-249.438 1102.04,-238.874 1096.09,-247.642 1102.86,-249.438"/>
</g>
<!-- Node28 -->
<g id="node28" class="node"><title>Node28</title>
<g id="a_node28"><a xlink:href="$Semaphores_8h.html" xlink:title="Semaphores.h">
<polygon fill="white" stroke="black" points="231.48,-330.5 231.48,-348.5 312.52,-348.5 312.52,-330.5 231.48,-330.5"/>
<text text-anchor="middle" x="272" y="-336.5" font-family="Helvetica,sans-Serif" font-size="10.00">Semaphores.h</text>
</a>
</g>
</g>
<!-- Node2&#45;&gt;Node28 -->
<g id="edge59" class="edge"><title>Node2&#45;&gt;Node28</title>
<path fill="none" stroke="midnightblue" d="M548.884,-444.287C480.311,-438.025 364.139,-424.725 327,-404 307.359,-393.039 291.422,-372.24 281.855,-357.433"/>
<polygon fill="midnightblue" stroke="midnightblue" points="284.727,-355.423 276.512,-348.733 278.762,-359.086 284.727,-355.423"/>
</g>
<!-- Node29 -->
<g id="node29" class="node"><title>Node29</title>
<g id="a_node29"><a xlink:href="$Util_8h.html" xlink:title="Util.h">
<polygon fill="white" stroke="black" points="699.608,-220.5 699.608,-238.5 738.392,-238.5 738.392,-220.5 699.608,-220.5"/>
<text text-anchor="middle" x="719" y="-226.5" font-family="Helvetica,sans-Serif" font-size="10.00">Util.h</text>
</a>
</g>
</g>
<!-- Node2&#45;&gt;Node29 -->
<g id="edge61" class="edge"><title>Node2&#45;&gt;Node29</title>
<path fill="none" stroke="midnightblue" d="M618.223,-440.467C633.891,-432.617 657.084,-419.593 674,-404 718.448,-363.028 735.306,-351.488 754,-294 759.684,-276.521 747.498,-258.322 735.977,-245.912"/>
<polygon fill="midnightblue" stroke="midnightblue" points="738.252,-243.237 728.697,-238.658 733.311,-248.196 738.252,-243.237"/>
</g>
<!-- Node6 -->
<g id="node6" class="node"><title>Node6</title>
<polygon fill="white" stroke="#bfbfbf" points="158.604,-0.5 158.604,-18.5 207.396,-18.5 207.396,-0.5 158.604,-0.5"/>
<text text-anchor="middle" x="183" y="-6.5" font-family="Helvetica,sans-Serif" font-size="10.00">string.h</text>
</g>
<!-- Node5&#45;&gt;Node6 -->
<g id="edge5" class="edge"><title>Node5&#45;&gt;Node6</title>
<path fill="none" stroke="midnightblue" d="M370.435,-55.4504C329.136,-45.5463 259.375,-28.8162 217.605,-18.799"/>
<polygon fill="midnightblue" stroke="midnightblue" points="218.164,-15.3338 207.623,-16.4051 216.531,-22.1408 218.164,-15.3338"/>
</g>
<!-- Node7 -->
<g id="node7" class="node"><title>Node7</title>
<g id="a_node7"><a xlink:href="$functor_8h.html" xlink:title="utility/functor.h">
<polygon fill="white" stroke="black" points="364.037,-0.5 364.037,-18.5 443.963,-18.5 443.963,-0.5 364.037,-0.5"/>
<text text-anchor="middle" x="404" y="-6.5" font-family="Helvetica,sans-Serif" font-size="10.00">utility/functor.h</text>
</a>
</g>
</g>
<!-- Node5&#45;&gt;Node7 -->
<g id="edge6" class="edge"><title>Node5&#45;&gt;Node7</title>
<path fill="none" stroke="midnightblue" d="M404,-55.2188C404,-48.1769 404,-37.8083 404,-28.8277"/>
<polygon fill="midnightblue" stroke="midnightblue" points="407.5,-28.5495 404,-18.5496 400.5,-28.5496 407.5,-28.5495"/>
</g>
<!-- Node10&#45;&gt;Node11 -->
<g id="edge10" class="edge"><title>Node10&#45;&gt;Node11</title>
<path fill="none" stroke="midnightblue" d="M481.875,-385.219C474.198,-377.394 462.492,-365.463 453.102,-355.892"/>
<polygon fill="midnightblue" stroke="midnightblue" points="455.399,-353.236 445.898,-348.55 450.403,-358.139 455.399,-353.236"/>
</g>
<!-- Node11&#45;&gt;Node5 -->
<g id="edge11" class="edge"><title>Node11&#45;&gt;Node5</title>
<path fill="none" stroke="midnightblue" d="M436.982,-330.33C432.319,-292.888 412.934,-137.234 406.265,-83.689"/>
<polygon fill="midnightblue" stroke="midnightblue" points="409.723,-83.1292 405.014,-73.6385 402.776,-83.9944 409.723,-83.1292"/>
</g>
<!-- Node11&#45;&gt;Node12 -->
<g id="edge12" class="edge"><title>Node11&#45;&gt;Node12</title>
<path fill="none" stroke="midnightblue" d="M433.31,-330.203C425.616,-317.159 409.235,-291.632 390,-275 374.477,-261.578 354.247,-250.46 337.887,-242.694"/>
<polygon fill="midnightblue" stroke="midnightblue" points="339.317,-239.499 328.767,-238.517 336.402,-245.863 339.317,-239.499"/>
</g>
<!-- Node11&#45;&gt;Node14 -->
<g id="edge15" class="edge"><title>Node11&#45;&gt;Node14</title>
<path fill="none" stroke="midnightblue" d="M460.147,-332.017C499.788,-320.435 585.504,-295.481 658,-275 701.439,-262.728 751.575,-248.928 784.204,-239.995"/>
<polygon fill="midnightblue" stroke="midnightblue" points="785.431,-243.288 794.153,-237.274 783.584,-236.536 785.431,-243.288"/>
</g>
<!-- Node11&#45;&gt;Node15 -->
<g id="edge18" class="edge"><title>Node11&#45;&gt;Node15</title>
<path fill="none" stroke="midnightblue" d="M415.985,-335.421C354.449,-326.816 179.932,-302.411 99.9527,-291.227"/>
<polygon fill="midnightblue" stroke="midnightblue" points="100.159,-287.722 89.7705,-289.803 99.1894,-294.654 100.159,-287.722"/>
</g>
<!-- Node11&#45;&gt;Node16 -->
<g id="edge20" class="edge"><title>Node11&#45;&gt;Node16</title>
<path fill="none" stroke="midnightblue" d="M415.725,-333.797C374.472,-325.086 285.473,-306.293 231.462,-294.888"/>
<polygon fill="midnightblue" stroke="midnightblue" points="231.984,-291.422 221.477,-292.78 230.538,-298.271 231.984,-291.422"/>
</g>
<!-- Node11&#45;&gt;Node17 -->
<g id="edge22" class="edge"><title>Node11&#45;&gt;Node17</title>
<path fill="none" stroke="midnightblue" d="M424.331,-330.45C410.058,-322.045 387.437,-308.724 370.52,-298.762"/>
<polygon fill="midnightblue" stroke="midnightblue" points="372.191,-295.684 361.798,-293.625 368.639,-301.716 372.191,-295.684"/>
</g>
<!-- Node11&#45;&gt;Node18 -->
<g id="edge24" class="edge"><title>Node11&#45;&gt;Node18</title>
<path fill="none" stroke="midnightblue" d="M448.176,-330.45C458.408,-322.357 474.402,-309.704 486.819,-299.882"/>
<polygon fill="midnightblue" stroke="midnightblue" points="489.057,-302.574 494.728,-293.625 484.714,-297.084 489.057,-302.574"/>
</g>
<!-- Node11&#45;&gt;Node19 -->
<g id="edge27" class="edge"><title>Node11&#45;&gt;Node19</title>
<path fill="none" stroke="midnightblue" d="M459.932,-334.163C502.741,-325.697 598.36,-306.787 656.997,-295.191"/>
<polygon fill="midnightblue" stroke="midnightblue" points="658.009,-298.559 667.14,-293.185 656.651,-291.692 658.009,-298.559"/>
</g>
<!-- Node12&#45;&gt;Node5 -->
<g id="edge14" class="edge"><title>Node12&#45;&gt;Node5</title>
<path fill="none" stroke="midnightblue" d="M310.456,-220.362C314.371,-200.161 326.587,-146.708 352,-110 360.243,-98.0933 372.423,-87.4378 382.923,-79.5407"/>
<polygon fill="midnightblue" stroke="midnightblue" points="385.137,-82.2602 391.225,-73.5891 381.058,-76.5711 385.137,-82.2602"/>
</g>
<!-- Node13 -->
<g id="node13" class="node"><title>Node13</title>
<polygon fill="white" stroke="#bfbfbf" points="71.5986,-55.5 71.5986,-73.5 130.401,-73.5 130.401,-55.5 71.5986,-55.5"/>
<text text-anchor="middle" x="101" y="-61.5" font-family="Helvetica,sans-Serif" font-size="10.00">inttypes.h</text>
</g>
<!-- Node12&#45;&gt;Node13 -->
<g id="edge13" class="edge"><title>Node12&#45;&gt;Node13</title>
<path fill="none" stroke="midnightblue" d="M298.685,-220.417C265.625,-194.509 161.985,-113.291 119.473,-79.9767"/>
<polygon fill="midnightblue" stroke="midnightblue" points="121.407,-77.0453 111.377,-73.632 117.089,-82.5551 121.407,-77.0453"/>
</g>
<!-- Node14&#45;&gt;Node3 -->
<g id="edge16" class="edge"><title>Node14&#45;&gt;Node3</title>
<path fill="none" stroke="midnightblue" d="M821.199,-220.318C824.978,-207.432 833.705,-182.116 848,-165 858.68,-152.212 873.89,-141.432 886.803,-133.686"/>
<polygon fill="midnightblue" stroke="midnightblue" points="888.758,-136.599 895.701,-128.596 885.283,-130.523 888.758,-136.599"/>
</g>
<!-- Node14&#45;&gt;Node5 -->
<g id="edge17" class="edge"><title>Node14&#45;&gt;Node5</title>
<path fill="none" stroke="midnightblue" d="M814.237,-220.429C800.763,-198.415 759.961,-137.164 708,-110 668.642,-89.4242 551.857,-76.7876 475.028,-70.4678"/>
<polygon fill="midnightblue" stroke="midnightblue" points="475.18,-66.9689 464.932,-69.6546 474.618,-73.9463 475.18,-66.9689"/>
</g>
<!-- Node15&#45;&gt;Node5 -->
<g id="edge19" class="edge"><title>Node15&#45;&gt;Node5</title>
<path fill="none" stroke="midnightblue" d="M58.354,-275.23C57.1685,-254.728 56.6244,-200.641 80,-165 104.27,-127.996 121.968,-126.575 163,-110 217.694,-87.9067 283.829,-76.6918 332.973,-71.0524"/>
<polygon fill="midnightblue" stroke="midnightblue" points="333.633,-74.5011 343.192,-69.9317 332.87,-67.5428 333.633,-74.5011"/>
</g>
<!-- Node16&#45;&gt;Node5 -->
<g id="edge21" class="edge"><title>Node16&#45;&gt;Node5</title>
<path fill="none" stroke="midnightblue" d="M186.62,-275.208C185.83,-247.5 187.192,-157.217 235,-110 260.725,-84.5925 299.123,-73.1968 332.819,-68.2734"/>
<polygon fill="midnightblue" stroke="midnightblue" points="333.637,-71.6969 343.107,-66.9449 332.741,-64.7546 333.637,-71.6969"/>
</g>
<!-- Node17&#45;&gt;Node5 -->
<g id="edge23" class="edge"><title>Node17&#45;&gt;Node5</title>
<path fill="none" stroke="midnightblue" d="M349.736,-275.496C355.148,-250.745 372.402,-173.301 390,-110 392.474,-101.102 395.521,-91.3017 398.141,-83.1683"/>
<polygon fill="midnightblue" stroke="midnightblue" points="401.471,-84.2451 401.254,-73.6525 394.818,-82.0688 401.471,-84.2451"/>
</g>
<!-- Node18&#45;&gt;Node3 -->
<g id="edge25" class="edge"><title>Node18&#45;&gt;Node3</title>
<path fill="none" stroke="midnightblue" d="M534.998,-279.973C591.15,-273.048 709.813,-256.789 747,-239 792.488,-217.24 791.721,-193.959 833,-165 849.968,-153.096 870.381,-141.665 886.206,-133.37"/>
<polygon fill="midnightblue" stroke="midnightblue" points="888.109,-136.326 895.394,-128.634 884.902,-130.104 888.109,-136.326"/>
</g>
<!-- Node18&#45;&gt;Node5 -->
<g id="edge26" class="edge"><title>Node18&#45;&gt;Node5</title>
<path fill="none" stroke="midnightblue" d="M501.286,-275.483C486.657,-243.908 432.813,-127.691 412.149,-83.0889"/>
<polygon fill="midnightblue" stroke="midnightblue" points="415.236,-81.4252 407.856,-73.8231 408.884,-84.3679 415.236,-81.4252"/>
</g>
<!-- Node19&#45;&gt;Node3 -->
<g id="edge28" class="edge"><title>Node19&#45;&gt;Node3</title>
<path fill="none" stroke="midnightblue" d="M745.055,-281.056C777.724,-277.032 823.581,-266.49 853,-239 878.693,-214.992 864.603,-196.108 881,-165 886.168,-155.196 893.137,-145 899.158,-136.846"/>
<polygon fill="midnightblue" stroke="midnightblue" points="902.136,-138.712 905.407,-128.635 896.566,-134.473 902.136,-138.712"/>
</g>
<!-- Node19&#45;&gt;Node5 -->
<g id="edge33" class="edge"><title>Node19&#45;&gt;Node5</title>
<path fill="none" stroke="midnightblue" d="M703.252,-275.329C695.034,-251.291 670.149,-181.469 653,-165 600.055,-114.153 517.862,-88.1943 462.54,-75.7554"/>
<polygon fill="midnightblue" stroke="midnightblue" points="463.05,-72.2848 452.536,-73.5872 461.567,-79.126 463.05,-72.2848"/>
</g>
<!-- Node20 -->
<g id="node20" class="node"><title>Node20</title>
<g id="a_node20"><a xlink:href="$AP__Common_8h.html" xlink:title="Common definitions and utility routines for the ArduPilot libraries. ">
<polygon fill="white" stroke="black" points="889.973,-165.5 889.973,-183.5 1036.03,-183.5 1036.03,-165.5 889.973,-165.5"/>
<text text-anchor="middle" x="963" y="-171.5" font-family="Helvetica,sans-Serif" font-size="10.00">AP_Common/AP_Common.h</text>
</a>
</g>
</g>
<!-- Node19&#45;&gt;Node20 -->
<g id="edge29" class="edge"><title>Node19&#45;&gt;Node20</title>
<path fill="none" stroke="midnightblue" d="M744.962,-278.976C782.645,-273.447 840.561,-261.852 886,-239 910.294,-226.782 933.739,-205.68 948.247,-191.178"/>
<polygon fill="midnightblue" stroke="midnightblue" points="950.866,-193.505 955.335,-183.899 945.851,-188.621 950.866,-193.505"/>
</g>
<!-- Node19&#45;&gt;Node22 -->
<g id="edge34" class="edge"><title>Node19&#45;&gt;Node22</title>
<path fill="none" stroke="midnightblue" d="M688.382,-275.45C669.39,-266.773 638.929,-252.856 616.93,-242.804"/>
<polygon fill="midnightblue" stroke="midnightblue" points="618.334,-239.598 607.784,-238.625 615.425,-245.965 618.334,-239.598"/>
</g>
<!-- Node20&#45;&gt;Node3 -->
<g id="edge30" class="edge"><title>Node20&#45;&gt;Node3</title>
<path fill="none" stroke="midnightblue" d="M955.031,-165.219C947.502,-157.394 936.021,-145.463 926.811,-135.892"/>
<polygon fill="midnightblue" stroke="midnightblue" points="929.202,-133.328 919.746,-128.55 924.158,-138.182 929.202,-133.328"/>
</g>
<!-- Node20&#45;&gt;Node4 -->
<g id="edge32" class="edge"><title>Node20&#45;&gt;Node4</title>
<path fill="none" stroke="midnightblue" d="M983.959,-165.45C1006.96,-156.617 1044.1,-142.355 1070.36,-132.267"/>
<polygon fill="midnightblue" stroke="midnightblue" points="1071.76,-135.478 1079.84,-128.625 1069.25,-128.943 1071.76,-135.478"/>
</g>
<!-- Node20&#45;&gt;Node21 -->
<g id="edge31" class="edge"><title>Node20&#45;&gt;Node21</title>
<path fill="none" stroke="midnightblue" d="M1029.67,-165.45C1124.55,-153.996 1295.05,-133.412 1367.7,-124.641"/>
<polygon fill="midnightblue" stroke="midnightblue" points="1368.18,-128.108 1377.69,-123.435 1367.34,-121.159 1368.18,-128.108"/>
</g>
<!-- Node22&#45;&gt;Node5 -->
<g id="edge37" class="edge"><title>Node22&#45;&gt;Node5</title>
<path fill="none" stroke="midnightblue" d="M585.095,-220.16C577.435,-207.498 561.762,-182.994 545,-165 509.988,-127.415 458.632,-95.5456 428.526,-78.5931"/>
<polygon fill="midnightblue" stroke="midnightblue" points="429.991,-75.4034 419.546,-73.6249 426.602,-81.5285 429.991,-75.4034"/>
</g>
<!-- Node22&#45;&gt;Node20 -->
<g id="edge36" class="edge"><title>Node22&#45;&gt;Node20</title>
<path fill="none" stroke="midnightblue" d="M644.637,-220.737C711.465,-211.241 824.542,-195.174 896.398,-184.964"/>
<polygon fill="midnightblue" stroke="midnightblue" points="897.282,-188.373 906.69,-183.501 896.297,-181.443 897.282,-188.373"/>
</g>
<!-- Node23 -->
<g id="node23" class="node"><title>Node23</title>
<polygon fill="white" stroke="#bfbfbf" points="591.934,-165.5 591.934,-183.5 644.066,-183.5 644.066,-165.5 591.934,-165.5"/>
<text text-anchor="middle" x="618" y="-171.5" font-family="Helvetica,sans-Serif" font-size="10.00">stdarg.h</text>
</g>
<!-- Node22&#45;&gt;Node23 -->
<g id="edge35" class="edge"><title>Node22&#45;&gt;Node23</title>
<path fill="none" stroke="midnightblue" d="M594.375,-220.219C598.261,-212.864 604.063,-201.88 608.945,-192.639"/>
<polygon fill="midnightblue" stroke="midnightblue" points="612.171,-194.026 613.747,-183.55 605.981,-190.757 612.171,-194.026"/>
</g>
<!-- Node22&#45;&gt;Node24 -->
<g id="edge38" class="edge"><title>Node22&#45;&gt;Node24</title>
<path fill="none" stroke="midnightblue" d="M535.279,-222.368C438.498,-211.524 239.45,-189.221 155.594,-179.825"/>
<polygon fill="midnightblue" stroke="midnightblue" points="155.811,-176.327 145.484,-178.692 155.032,-183.283 155.811,-176.327"/>
</g>
<!-- Node24&#45;&gt;Node5 -->
<g id="edge39" class="edge"><title>Node24&#45;&gt;Node5</title>
<path fill="none" stroke="midnightblue" d="M124.555,-165.453C137.842,-151.811 166.857,-124.24 197,-110 239.68,-89.8376 291.626,-78.7058 332.804,-72.618"/>
<polygon fill="midnightblue" stroke="midnightblue" points="333.346,-76.0762 342.759,-71.2127 332.367,-69.1449 333.346,-76.0762"/>
</g>
<!-- Node24&#45;&gt;Node25 -->
<g id="edge40" class="edge"><title>Node24&#45;&gt;Node25</title>
<path fill="none" stroke="midnightblue" d="M106.369,-165.45C95.6786,-157.357 78.9678,-144.704 65.9953,-134.882"/>
<polygon fill="midnightblue" stroke="midnightblue" points="67.8169,-131.871 57.7315,-128.625 63.5914,-137.452 67.8169,-131.871"/>
</g>
<!-- Node25&#45;&gt;Node5 -->
<g id="edge41" class="edge"><title>Node25&#45;&gt;Node5</title>
<path fill="none" stroke="midnightblue" d="M69.6028,-115.144C123.032,-107.212 258.716,-87.0688 339.883,-75.0188"/>
<polygon fill="midnightblue" stroke="midnightblue" points="340.61,-78.4493 349.987,-73.5187 339.582,-71.5252 340.61,-78.4493"/>
</g>
<!-- Node25&#45;&gt;Node6 -->
<g id="edge43" class="edge"><title>Node25&#45;&gt;Node6</title>
<path fill="none" stroke="midnightblue" d="M46.7671,-110.384C46.831,-97.1289 48.8785,-70.7398 63,-55 84.8763,-30.6168 121.354,-19.5592 148.361,-14.5658"/>
<polygon fill="midnightblue" stroke="midnightblue" points="149.263,-17.9643 158.558,-12.8809 148.122,-11.058 149.263,-17.9643"/>
</g>
<!-- Node25&#45;&gt;Node13 -->
<g id="edge42" class="edge"><title>Node25&#45;&gt;Node13</title>
<path fill="none" stroke="midnightblue" d="M55.4375,-110.219C63.4892,-102.316 75.8095,-90.2241 85.6093,-80.6057"/>
<polygon fill="midnightblue" stroke="midnightblue" points="88.1133,-83.0522 92.7986,-73.5496 83.21,-78.0564 88.1133,-83.0522"/>
</g>
<!-- Node26&#45;&gt;Node3 -->
<g id="edge46" class="edge"><title>Node26&#45;&gt;Node3</title>
<path fill="none" stroke="midnightblue" d="M536.124,-169.208C612.409,-159.322 799.879,-135.029 877.49,-124.972"/>
<polygon fill="midnightblue" stroke="midnightblue" points="878.222,-128.406 887.69,-123.65 877.323,-121.464 878.222,-128.406"/>
</g>
<!-- Node26&#45;&gt;Node5 -->
<g id="edge47" class="edge"><title>Node26&#45;&gt;Node5</title>
<path fill="none" stroke="midnightblue" d="M497.754,-165.228C489.593,-152.654 473.017,-128.263 456,-110 445.875,-99.1331 433.24,-88.2688 422.96,-79.9954"/>
<polygon fill="midnightblue" stroke="midnightblue" points="425.007,-77.1519 414.986,-73.7119 420.674,-82.6502 425.007,-77.1519"/>
</g>
<!-- Node27&#45;&gt;Node3 -->
<g id="edge55" class="edge"><title>Node27&#45;&gt;Node3</title>
<path fill="none" stroke="midnightblue" d="M1121.5,-220.324C1144.56,-208.464 1180.3,-185.643 1163,-165 1135.79,-132.539 1008.93,-123.742 946.66,-121.37"/>
<polygon fill="midnightblue" stroke="midnightblue" points="946.648,-117.867 936.533,-121.019 946.406,-124.863 946.648,-117.867"/>
</g>
<!-- Node27&#45;&gt;Node5 -->
<g id="edge58" class="edge"><title>Node27&#45;&gt;Node5</title>
<path fill="none" stroke="midnightblue" d="M1131.25,-220.373C1148.55,-213.639 1169.58,-202.173 1180,-184 1198.91,-151.019 1145.74,-114.124 1138,-110 1080.49,-79.3543 647.786,-69.2853 474.974,-66.4648"/>
<polygon fill="midnightblue" stroke="midnightblue" points="475.016,-62.9651 464.961,-66.3047 474.904,-69.9642 475.016,-62.9651"/>
</g>
<!-- Node27&#45;&gt;Node8 -->
<g id="edge57" class="edge"><title>Node27&#45;&gt;Node8</title>
<path fill="none" stroke="midnightblue" d="M1104,-220.219C1104,-213.177 1104,-202.808 1104,-193.828"/>
<polygon fill="midnightblue" stroke="midnightblue" points="1107.5,-193.55 1104,-183.55 1100.5,-193.55 1107.5,-193.55"/>
</g>
<!-- Node27&#45;&gt;Node20 -->
<g id="edge56" class="edge"><title>Node27&#45;&gt;Node20</title>
<path fill="none" stroke="midnightblue" d="M1082.59,-220.45C1059.09,-211.617 1021.14,-197.355 994.305,-187.267"/>
<polygon fill="midnightblue" stroke="midnightblue" points="995.208,-183.868 984.616,-183.625 992.745,-190.42 995.208,-183.868"/>
</g>
<!-- Node28&#45;&gt;Node5 -->
<g id="edge60" class="edge"><title>Node28&#45;&gt;Node5</title>
<path fill="none" stroke="midnightblue" d="M269.087,-330.496C262.898,-312.749 249,-268.649 249,-230.5 249,-230.5 249,-230.5 249,-173.5 249,-119.569 312.95,-90.3618 358.696,-76.3678"/>
<polygon fill="midnightblue" stroke="midnightblue" points="359.818,-79.6866 368.44,-73.5293 357.86,-72.966 359.818,-79.6866"/>
</g>
<!-- Node29&#45;&gt;Node5 -->
<g id="edge63" class="edge"><title>Node29&#45;&gt;Node5</title>
<path fill="none" stroke="midnightblue" d="M719.463,-220.37C720.211,-198.736 719.005,-139.409 686,-110 655.605,-82.9167 548.1,-72.2679 474.962,-68.114"/>
<polygon fill="midnightblue" stroke="midnightblue" points="475.056,-64.614 464.881,-67.5699 474.678,-71.6039 475.056,-64.614"/>
</g>
<!-- Node29&#45;&gt;Node23 -->
<g id="edge62" class="edge"><title>Node29&#45;&gt;Node23</title>
<path fill="none" stroke="midnightblue" d="M703.66,-220.45C687.421,-211.929 661.55,-198.353 642.485,-188.349"/>
<polygon fill="midnightblue" stroke="midnightblue" points="643.965,-185.173 633.484,-183.625 640.713,-191.371 643.965,-185.173"/>
</g>
<!-- Node34 -->
<g id="node34" class="node"><title>Node34</title>
<g id="a_node34"><a xlink:href="$SerialDevice_8h.html" xlink:title="SerialDevice.h">
<polygon fill="white" stroke="black" points="1361.76,-165.5 1361.76,-183.5 1442.24,-183.5 1442.24,-165.5 1361.76,-165.5"/>
<text text-anchor="middle" x="1402" y="-171.5" font-family="Helvetica,sans-Serif" font-size="10.00">SerialDevice.h</text>
</a>
</g>
</g>
<!-- Node33&#45;&gt;Node34 -->
<g id="edge73" class="edge"><title>Node33&#45;&gt;Node34</title>
<path fill="none" stroke="midnightblue" d="M1102.16,-550.428C1185.29,-530.856 1387,-480.294 1387,-450.5 1387,-450.5 1387,-450.5 1387,-283.5 1387,-251.568 1393.51,-214.826 1397.96,-193.477"/>
<polygon fill="midnightblue" stroke="midnightblue" points="1401.4,-194.09 1400.1,-183.576 1394.56,-192.608 1401.4,-194.09"/>
</g>
<!-- Node35 -->
<g id="node35" class="node"><title>Node35</title>
<g id="a_node35"><a xlink:href="$Socket_8h.html" xlink:title="AP_HAL/utility/Socket.h">
<polygon fill="white" stroke="black" points="943.197,-495.5 943.197,-513.5 1064.8,-513.5 1064.8,-495.5 943.197,-495.5"/>
<text text-anchor="middle" x="1004" y="-501.5" font-family="Helvetica,sans-Serif" font-size="10.00">AP_HAL/utility/Socket.h</text>
</a>
</g>
</g>
<!-- Node33&#45;&gt;Node35 -->
<g id="edge76" class="edge"><title>Node33&#45;&gt;Node35</title>
<path fill="none" stroke="midnightblue" d="M1057.43,-550.45C1047.9,-542.434 1033.06,-529.947 1021.43,-520.166"/>
<polygon fill="midnightblue" stroke="midnightblue" points="1023.56,-517.385 1013.66,-513.625 1019.06,-522.741 1023.56,-517.385"/>
</g>
<!-- Node34&#45;&gt;Node3 -->
<g id="edge74" class="edge"><title>Node34&#45;&gt;Node3</title>
<path fill="none" stroke="midnightblue" d="M1361.48,-169.118C1267.07,-158.906 1033.8,-133.674 946.083,-124.186"/>
<polygon fill="midnightblue" stroke="midnightblue" points="946.444,-120.705 936.126,-123.11 945.691,-127.665 946.444,-120.705"/>
</g>
<!-- Node34&#45;&gt;Node21 -->
<g id="edge75" class="edge"><title>Node34&#45;&gt;Node21</title>
<path fill="none" stroke="midnightblue" d="M1402,-165.219C1402,-158.177 1402,-147.808 1402,-138.828"/>
<polygon fill="midnightblue" stroke="midnightblue" points="1405.5,-138.55 1402,-128.55 1398.5,-138.55 1405.5,-138.55"/>
</g>
<!-- Node35&#45;&gt;Node2 -->
<g id="edge77" class="edge"><title>Node35&#45;&gt;Node2</title>
<path fill="none" stroke="midnightblue" d="M942.793,-495.45C867.141,-485.501 739.111,-468.664 663.066,-458.662"/>
<polygon fill="midnightblue" stroke="midnightblue" points="663.517,-455.192 653.146,-457.358 662.605,-462.132 663.517,-455.192"/>
</g>
</g>
</svg>
