<?xml version="1.0" encoding="UTF-8" standalone="no"?>
<!DOCTYPE svg PUBLIC "-//W3C//DTD SVG 1.1//EN"
 "http://www.w3.org/Graphics/SVG/1.1/DTD/svg11.dtd">
<!-- Generated by graphviz version 2.38.0 (20140413.2041)
 -->
<!-- Title: libraries/AP_HAL_Linux/ToneAlarmDriver.h Pages: 1 -->
<svg width="1318pt" height="362pt"
 viewBox="0.00 0.00 1317.61 362.00" xmlns="http://www.w3.org/2000/svg" xmlns:xlink="http://www.w3.org/1999/xlink">
<g id="graph0" class="graph" transform="scale(1 1) rotate(0) translate(4 358)">
<title>libraries/AP_HAL_Linux/ToneAlarmDriver.h</title>
<polygon fill="white" stroke="none" points="-4,4 -4,-358 1313.61,-358 1313.61,4 -4,4"/>
<!-- Node1 -->
<g id="node1" class="node"><title>Node1</title>
<polygon fill="#bfbfbf" stroke="black" points="1099,-325.5 1099,-353.5 1220.61,-353.5 1220.61,-325.5 1099,-325.5"/>
<text text-anchor="start" x="1107" y="-341.5" font-family="Helvetica,sans-Serif" font-size="10.00">libraries/AP_HAL_Linux</text>
<text text-anchor="middle" x="1159.81" y="-331.5" font-family="Helvetica,sans-Serif" font-size="10.00">/ToneAlarmDriver.h</text>
</g>
<!-- Node2 -->
<g id="node2" class="node"><title>Node2</title>
<g id="a_node2"><a xlink:href="$Linux_2Util_8h.html" xlink:title="libraries/AP_HAL_Linux\l/Util.h">
<polygon fill="white" stroke="black" points="598,-260.5 598,-288.5 719.61,-288.5 719.61,-260.5 598,-260.5"/>
<text text-anchor="start" x="606" y="-276.5" font-family="Helvetica,sans-Serif" font-size="10.00">libraries/AP_HAL_Linux</text>
<text text-anchor="middle" x="658.805" y="-266.5" font-family="Helvetica,sans-Serif" font-size="10.00">/Util.h</text>
</a>
</g>
</g>
<!-- Node1&#45;&gt;Node2 -->
<g id="edge1" class="edge"><title>Node1&#45;&gt;Node2</title>
<path fill="none" stroke="midnightblue" d="M1088.68,-329.557C989.875,-317.132 812.748,-294.858 719.704,-283.158"/>
<polygon fill="midnightblue" stroke="midnightblue" points="1088.52,-333.063 1098.87,-330.838 1089.39,-326.118 1088.52,-333.063"/>
</g>
<!-- Node5 -->
<g id="node5" class="node"><title>Node5</title>
<g id="a_node5"><a xlink:href="$AP__HAL__Linux__Private_8h.html" xlink:title="libraries/AP_HAL_Linux\l/AP_HAL_Linux_Private.h">
<polygon fill="white" stroke="black" points="242.993,-65.5 242.993,-93.5 374.618,-93.5 374.618,-65.5 242.993,-65.5"/>
<text text-anchor="start" x="250.993" y="-81.5" font-family="Helvetica,sans-Serif" font-size="10.00">libraries/AP_HAL_Linux</text>
<text text-anchor="middle" x="308.805" y="-71.5" font-family="Helvetica,sans-Serif" font-size="10.00">/AP_HAL_Linux_Private.h</text>
</a>
</g>
</g>
<!-- Node1&#45;&gt;Node5 -->
<g id="edge19" class="edge"><title>Node1&#45;&gt;Node5</title>
<path fill="none" stroke="midnightblue" d="M1164.29,-315.166C1168.9,-283.475 1171.64,-227.104 1140.81,-195 1087.81,-139.822 562.513,-98.1597 374.94,-84.9379"/>
<polygon fill="midnightblue" stroke="midnightblue" points="1160.8,-314.832 1162.63,-325.266 1167.7,-315.966 1160.8,-314.832"/>
</g>
<!-- Node18 -->
<g id="node18" class="node"><title>Node18</title>
<g id="a_node18"><a xlink:href="$ToneAlarmDriver_8cpp.html" xlink:title="libraries/AP_HAL_Linux\l/ToneAlarmDriver.cpp">
<polygon fill="white" stroke="black" points="1188,-260.5 1188,-288.5 1309.61,-288.5 1309.61,-260.5 1188,-260.5"/>
<text text-anchor="start" x="1196" y="-276.5" font-family="Helvetica,sans-Serif" font-size="10.00">libraries/AP_HAL_Linux</text>
<text text-anchor="middle" x="1248.81" y="-266.5" font-family="Helvetica,sans-Serif" font-size="10.00">/ToneAlarmDriver.cpp</text>
</a>
</g>
</g>
<!-- Node1&#45;&gt;Node18 -->
<g id="edge20" class="edge"><title>Node1&#45;&gt;Node18</title>
<path fill="none" stroke="midnightblue" d="M1186.62,-319.52C1200.76,-309.511 1217.74,-297.487 1230.39,-288.537"/>
<polygon fill="midnightblue" stroke="midnightblue" points="1184.39,-316.812 1178.25,-325.446 1188.43,-322.525 1184.39,-316.812"/>
</g>
<!-- Node3 -->
<g id="node3" class="node"><title>Node3</title>
<g id="a_node3"><a xlink:href="$PWM__Sysfs_8h.html" xlink:title="libraries/AP_HAL_Linux\l/PWM_Sysfs.h">
<polygon fill="white" stroke="black" points="140,-195.5 140,-223.5 261.61,-223.5 261.61,-195.5 140,-195.5"/>
<text text-anchor="start" x="148" y="-211.5" font-family="Helvetica,sans-Serif" font-size="10.00">libraries/AP_HAL_Linux</text>
<text text-anchor="middle" x="200.805" y="-201.5" font-family="Helvetica,sans-Serif" font-size="10.00">/PWM_Sysfs.h</text>
</a>
</g>
</g>
<!-- Node2&#45;&gt;Node3 -->
<g id="edge2" class="edge"><title>Node2&#45;&gt;Node3</title>
<path fill="none" stroke="midnightblue" d="M587.914,-265.404C510.925,-256.363 384.399,-240.78 275.805,-224 271.229,-223.293 266.502,-222.527 261.751,-221.731"/>
<polygon fill="midnightblue" stroke="midnightblue" points="587.639,-268.896 597.978,-266.582 588.453,-261.943 587.639,-268.896"/>
</g>
<!-- Node2&#45;&gt;Node5 -->
<g id="edge8" class="edge"><title>Node2&#45;&gt;Node5</title>
<path fill="none" stroke="midnightblue" d="M587.856,-273.963C496.205,-272.871 344.199,-264.751 308.805,-224 276.459,-186.758 294.148,-121.282 303.824,-93.5251"/>
<polygon fill="midnightblue" stroke="midnightblue" points="587.867,-277.463 597.899,-274.057 587.933,-270.463 587.867,-277.463"/>
</g>
<!-- Node9 -->
<g id="node9" class="node"><title>Node9</title>
<g id="a_node9"><a xlink:href="$Util__RPI_8h.html" xlink:title="libraries/AP_HAL_Linux\l/Util_RPI.h">
<polygon fill="white" stroke="black" points="318,-195.5 318,-223.5 439.61,-223.5 439.61,-195.5 318,-195.5"/>
<text text-anchor="start" x="326" y="-211.5" font-family="Helvetica,sans-Serif" font-size="10.00">libraries/AP_HAL_Linux</text>
<text text-anchor="middle" x="378.805" y="-201.5" font-family="Helvetica,sans-Serif" font-size="10.00">/Util_RPI.h</text>
</a>
</g>
</g>
<!-- Node2&#45;&gt;Node9 -->
<g id="edge9" class="edge"><title>Node2&#45;&gt;Node9</title>
<path fill="none" stroke="midnightblue" d="M590.964,-258.236C543.797,-247.623 481.592,-233.627 436.747,-223.537"/>
<polygon fill="midnightblue" stroke="midnightblue" points="590.265,-261.666 600.789,-260.446 591.801,-254.837 590.265,-261.666"/>
</g>
<!-- Node13 -->
<g id="node13" class="node"><title>Node13</title>
<g id="a_node13"><a xlink:href="$AP__HAL__Linux_2I2CDriver_8cpp.html" xlink:title="libraries/AP_HAL_Linux\l/I2CDriver.cpp">
<polygon fill="white" stroke="black" points="458,-195.5 458,-223.5 579.61,-223.5 579.61,-195.5 458,-195.5"/>
<text text-anchor="start" x="466" y="-211.5" font-family="Helvetica,sans-Serif" font-size="10.00">libraries/AP_HAL_Linux</text>
<text text-anchor="middle" x="518.805" y="-201.5" font-family="Helvetica,sans-Serif" font-size="10.00">/I2CDriver.cpp</text>
</a>
</g>
</g>
<!-- Node2&#45;&gt;Node13 -->
<g id="edge14" class="edge"><title>Node2&#45;&gt;Node13</title>
<path fill="none" stroke="midnightblue" d="M620.666,-256.337C597.687,-245.997 568.885,-233.036 547.776,-223.537"/>
<polygon fill="midnightblue" stroke="midnightblue" points="619.242,-259.534 629.797,-260.446 622.114,-253.151 619.242,-259.534"/>
</g>
<!-- Node14 -->
<g id="node14" class="node"><title>Node14</title>
<g id="a_node14"><a xlink:href="$Perf_8cpp.html" xlink:title="libraries/AP_HAL_Linux\l/Perf.cpp">
<polygon fill="white" stroke="black" points="598,-195.5 598,-223.5 719.61,-223.5 719.61,-195.5 598,-195.5"/>
<text text-anchor="start" x="606" y="-211.5" font-family="Helvetica,sans-Serif" font-size="10.00">libraries/AP_HAL_Linux</text>
<text text-anchor="middle" x="658.805" y="-201.5" font-family="Helvetica,sans-Serif" font-size="10.00">/Perf.cpp</text>
</a>
</g>
</g>
<!-- Node2&#45;&gt;Node14 -->
<g id="edge15" class="edge"><title>Node2&#45;&gt;Node14</title>
<path fill="none" stroke="midnightblue" d="M658.805,-250.164C658.805,-241.169 658.805,-231.221 658.805,-223.537"/>
<polygon fill="midnightblue" stroke="midnightblue" points="655.305,-250.446 658.805,-260.446 662.305,-250.446 655.305,-250.446"/>
</g>
<!-- Node15 -->
<g id="node15" class="node"><title>Node15</title>
<g id="a_node15"><a xlink:href="$AP__HAL__Linux_2Scheduler_8cpp.html" xlink:title="libraries/AP_HAL_Linux\l/Scheduler.cpp">
<polygon fill="white" stroke="black" points="738,-195.5 738,-223.5 859.61,-223.5 859.61,-195.5 738,-195.5"/>
<text text-anchor="start" x="746" y="-211.5" font-family="Helvetica,sans-Serif" font-size="10.00">libraries/AP_HAL_Linux</text>
<text text-anchor="middle" x="798.805" y="-201.5" font-family="Helvetica,sans-Serif" font-size="10.00">/Scheduler.cpp</text>
</a>
</g>
</g>
<!-- Node2&#45;&gt;Node15 -->
<g id="edge16" class="edge"><title>Node2&#45;&gt;Node15</title>
<path fill="none" stroke="midnightblue" d="M696.944,-256.337C719.923,-245.997 748.725,-233.036 769.834,-223.537"/>
<polygon fill="midnightblue" stroke="midnightblue" points="695.496,-253.151 687.813,-260.446 698.369,-259.534 695.496,-253.151"/>
</g>
<!-- Node16 -->
<g id="node16" class="node"><title>Node16</title>
<g id="a_node16"><a xlink:href="$Linux_2Util_8cpp.html" xlink:title="libraries/AP_HAL_Linux\l/Util.cpp">
<polygon fill="white" stroke="black" points="878,-195.5 878,-223.5 999.61,-223.5 999.61,-195.5 878,-195.5"/>
<text text-anchor="start" x="886" y="-211.5" font-family="Helvetica,sans-Serif" font-size="10.00">libraries/AP_HAL_Linux</text>
<text text-anchor="middle" x="938.805" y="-201.5" font-family="Helvetica,sans-Serif" font-size="10.00">/Util.cpp</text>
</a>
</g>
</g>
<!-- Node2&#45;&gt;Node16 -->
<g id="edge17" class="edge"><title>Node2&#45;&gt;Node16</title>
<path fill="none" stroke="midnightblue" d="M726.646,-258.236C773.813,-247.623 836.019,-233.627 880.863,-223.537"/>
<polygon fill="midnightblue" stroke="midnightblue" points="725.809,-254.837 716.821,-260.446 727.346,-261.666 725.809,-254.837"/>
</g>
<!-- Node17 -->
<g id="node17" class="node"><title>Node17</title>
<g id="a_node17"><a xlink:href="$ToneAlarm__Linux_8cpp.html" xlink:title="libraries/AP_Notify\l/ToneAlarm_Linux.cpp">
<polygon fill="white" stroke="black" points="1017.33,-195.5 1017.33,-223.5 1132.28,-223.5 1132.28,-195.5 1017.33,-195.5"/>
<text text-anchor="start" x="1025.33" y="-211.5" font-family="Helvetica,sans-Serif" font-size="10.00">libraries/AP_Notify</text>
<text text-anchor="middle" x="1074.81" y="-201.5" font-family="Helvetica,sans-Serif" font-size="10.00">/ToneAlarm_Linux.cpp</text>
</a>
</g>
</g>
<!-- Node2&#45;&gt;Node17 -->
<g id="edge18" class="edge"><title>Node2&#45;&gt;Node17</title>
<path fill="none" stroke="midnightblue" d="M729.831,-264.752C800.684,-255.72 912.55,-240.635 1008.81,-224 1011.57,-223.522 1014.4,-223.015 1017.25,-222.489"/>
<polygon fill="midnightblue" stroke="midnightblue" points="729.162,-261.309 719.682,-266.04 730.043,-268.253 729.162,-261.309"/>
</g>
<!-- Node4 -->
<g id="node4" class="node"><title>Node4</title>
<g id="a_node4"><a xlink:href="$RCOutput__Sysfs_8h.html" xlink:title="libraries/AP_HAL_Linux\l/RCOutput_Sysfs.h">
<polygon fill="white" stroke="black" points="0,-130.5 0,-158.5 121.61,-158.5 121.61,-130.5 0,-130.5"/>
<text text-anchor="start" x="8" y="-146.5" font-family="Helvetica,sans-Serif" font-size="10.00">libraries/AP_HAL_Linux</text>
<text text-anchor="middle" x="60.8052" y="-136.5" font-family="Helvetica,sans-Serif" font-size="10.00">/RCOutput_Sysfs.h</text>
</a>
</g>
</g>
<!-- Node3&#45;&gt;Node4 -->
<g id="edge3" class="edge"><title>Node3&#45;&gt;Node4</title>
<path fill="none" stroke="midnightblue" d="M162.666,-191.337C139.687,-180.997 110.885,-168.036 89.7761,-158.537"/>
<polygon fill="midnightblue" stroke="midnightblue" points="161.242,-194.534 171.797,-195.446 164.114,-188.151 161.242,-194.534"/>
</g>
<!-- Node8 -->
<g id="node8" class="node"><title>Node8</title>
<g id="a_node8"><a xlink:href="$PWM__Sysfs_8cpp.html" xlink:title="libraries/AP_HAL_Linux\l/PWM_Sysfs.cpp">
<polygon fill="white" stroke="black" points="140,-130.5 140,-158.5 261.61,-158.5 261.61,-130.5 140,-130.5"/>
<text text-anchor="start" x="148" y="-146.5" font-family="Helvetica,sans-Serif" font-size="10.00">libraries/AP_HAL_Linux</text>
<text text-anchor="middle" x="200.805" y="-136.5" font-family="Helvetica,sans-Serif" font-size="10.00">/PWM_Sysfs.cpp</text>
</a>
</g>
</g>
<!-- Node3&#45;&gt;Node8 -->
<g id="edge7" class="edge"><title>Node3&#45;&gt;Node8</title>
<path fill="none" stroke="midnightblue" d="M200.805,-185.164C200.805,-176.169 200.805,-166.221 200.805,-158.537"/>
<polygon fill="midnightblue" stroke="midnightblue" points="197.305,-185.446 200.805,-195.446 204.305,-185.446 197.305,-185.446"/>
</g>
<!-- Node4&#45;&gt;Node5 -->
<g id="edge4" class="edge"><title>Node4&#45;&gt;Node5</title>
<path fill="none" stroke="midnightblue" d="M121.945,-127.969C163.591,-117.389 218.098,-103.543 257.485,-93.5369"/>
<polygon fill="midnightblue" stroke="midnightblue" points="121.021,-124.592 112.191,-130.446 122.745,-131.376 121.021,-124.592"/>
</g>
<!-- Node7 -->
<g id="node7" class="node"><title>Node7</title>
<g id="a_node7"><a xlink:href="$RCOutput__Sysfs_8cpp.html" xlink:title="libraries/AP_HAL_Linux\l/RCOutput_Sysfs.cpp">
<polygon fill="white" stroke="black" points="0,-65.5 0,-93.5 121.61,-93.5 121.61,-65.5 0,-65.5"/>
<text text-anchor="start" x="8" y="-81.5" font-family="Helvetica,sans-Serif" font-size="10.00">libraries/AP_HAL_Linux</text>
<text text-anchor="middle" x="60.8052" y="-71.5" font-family="Helvetica,sans-Serif" font-size="10.00">/RCOutput_Sysfs.cpp</text>
</a>
</g>
</g>
<!-- Node4&#45;&gt;Node7 -->
<g id="edge6" class="edge"><title>Node4&#45;&gt;Node7</title>
<path fill="none" stroke="midnightblue" d="M60.8052,-120.164C60.8052,-111.169 60.8052,-101.221 60.8052,-93.5369"/>
<polygon fill="midnightblue" stroke="midnightblue" points="57.3053,-120.446 60.8052,-130.446 64.3053,-120.446 57.3053,-120.446"/>
</g>
<!-- Node6 -->
<g id="node6" class="node"><title>Node6</title>
<g id="a_node6"><a xlink:href="$HAL__Linux__Class_8cpp.html" xlink:title="libraries/AP_HAL_Linux\l/HAL_Linux_Class.cpp">
<polygon fill="white" stroke="black" points="248,-0.5 248,-28.5 369.61,-28.5 369.61,-0.5 248,-0.5"/>
<text text-anchor="start" x="256" y="-16.5" font-family="Helvetica,sans-Serif" font-size="10.00">libraries/AP_HAL_Linux</text>
<text text-anchor="middle" x="308.805" y="-6.5" font-family="Helvetica,sans-Serif" font-size="10.00">/HAL_Linux_Class.cpp</text>
</a>
</g>
</g>
<!-- Node5&#45;&gt;Node6 -->
<g id="edge5" class="edge"><title>Node5&#45;&gt;Node6</title>
<path fill="none" stroke="midnightblue" d="M308.805,-55.1641C308.805,-46.1693 308.805,-36.2205 308.805,-28.5369"/>
<polygon fill="midnightblue" stroke="midnightblue" points="305.305,-55.4463 308.805,-65.4464 312.305,-55.4464 305.305,-55.4463"/>
</g>
<!-- Node9&#45;&gt;Node5 -->
<g id="edge10" class="edge"><title>Node9&#45;&gt;Node5</title>
<path fill="none" stroke="midnightblue" d="M363.921,-186.75C358.316,-178.238 352.037,-168.301 346.805,-159 334.186,-136.565 321.57,-109.31 314.517,-93.5293"/>
<polygon fill="midnightblue" stroke="midnightblue" points="361.19,-188.962 369.658,-195.329 367.009,-185.071 361.19,-188.962"/>
</g>
<!-- Node10 -->
<g id="node10" class="node"><title>Node10</title>
<g id="a_node10"><a xlink:href="$GPIO__RPI_8cpp.html" xlink:title="libraries/AP_HAL_Linux\l/GPIO_RPI.cpp">
<polygon fill="white" stroke="black" points="356,-130.5 356,-158.5 477.61,-158.5 477.61,-130.5 356,-130.5"/>
<text text-anchor="start" x="364" y="-146.5" font-family="Helvetica,sans-Serif" font-size="10.00">libraries/AP_HAL_Linux</text>
<text text-anchor="middle" x="416.805" y="-136.5" font-family="Helvetica,sans-Serif" font-size="10.00">/GPIO_RPI.cpp</text>
</a>
</g>
</g>
<!-- Node9&#45;&gt;Node10 -->
<g id="edge11" class="edge"><title>Node9&#45;&gt;Node10</title>
<path fill="none" stroke="midnightblue" d="M391.992,-186.638C397.643,-177.269 404.052,-166.643 408.942,-158.537"/>
<polygon fill="midnightblue" stroke="midnightblue" points="388.847,-185.076 386.679,-195.446 394.841,-188.691 388.847,-185.076"/>
</g>
<!-- Node11 -->
<g id="node11" class="node"><title>Node11</title>
<g id="a_node11"><a xlink:href="$RCInput__RPI_8cpp.html" xlink:title="libraries/AP_HAL_Linux\l/RCInput_RPI.cpp">
<polygon fill="white" stroke="black" points="496,-130.5 496,-158.5 617.61,-158.5 617.61,-130.5 496,-130.5"/>
<text text-anchor="start" x="504" y="-146.5" font-family="Helvetica,sans-Serif" font-size="10.00">libraries/AP_HAL_Linux</text>
<text text-anchor="middle" x="556.805" y="-136.5" font-family="Helvetica,sans-Serif" font-size="10.00">/RCInput_RPI.cpp</text>
</a>
</g>
</g>
<!-- Node9&#45;&gt;Node11 -->
<g id="edge12" class="edge"><title>Node9&#45;&gt;Node11</title>
<path fill="none" stroke="midnightblue" d="M425.36,-192.023C454.88,-181.575 492.536,-168.247 519.971,-158.537"/>
<polygon fill="midnightblue" stroke="midnightblue" points="423.946,-188.81 415.687,-195.446 426.282,-195.409 423.946,-188.81"/>
</g>
<!-- Node12 -->
<g id="node12" class="node"><title>Node12</title>
<g id="a_node12"><a xlink:href="$Util__RPI_8cpp.html" xlink:title="libraries/AP_HAL_Linux\l/Util_RPI.cpp">
<polygon fill="white" stroke="black" points="636,-130.5 636,-158.5 757.61,-158.5 757.61,-130.5 636,-130.5"/>
<text text-anchor="start" x="644" y="-146.5" font-family="Helvetica,sans-Serif" font-size="10.00">libraries/AP_HAL_Linux</text>
<text text-anchor="middle" x="696.805" y="-136.5" font-family="Helvetica,sans-Serif" font-size="10.00">/Util_RPI.cpp</text>
</a>
</g>
</g>
<!-- Node9&#45;&gt;Node12 -->
<g id="edge13" class="edge"><title>Node9&#45;&gt;Node12</title>
<path fill="none" stroke="midnightblue" d="M449.569,-194.481C505.453,-183.409 582.619,-168.122 635.804,-157.585"/>
<polygon fill="midnightblue" stroke="midnightblue" points="448.872,-191.051 439.743,-196.428 450.232,-197.917 448.872,-191.051"/>
</g>
</g>
</svg>
