<?xml version="1.0" encoding="UTF-8" standalone="no"?>
<!DOCTYPE svg PUBLIC "-//W3C//DTD SVG 1.1//EN"
 "http://www.w3.org/Graphics/SVG/1.1/DTD/svg11.dtd">
<!-- Generated by graphviz version 2.38.0 (20140413.2041)
 -->
<!-- Title: libraries/AP_HAL_Linux/Util_RPI.cpp Pages: 1 -->
<svg width="1741pt" height="697pt"
 viewBox="0.00 0.00 1740.62 697.00" xmlns="http://www.w3.org/2000/svg" xmlns:xlink="http://www.w3.org/1999/xlink">
<g id="graph0" class="graph" transform="scale(1 1) rotate(0) translate(4 693)">
<title>libraries/AP_HAL_Linux/Util_RPI.cpp</title>
<polygon fill="white" stroke="none" points="-4,4 -4,-693 1736.62,-693 1736.62,4 -4,4"/>
<!-- Node1 -->
<g id="node1" class="node"><title>Node1</title>
<polygon fill="#bfbfbf" stroke="black" points="1377.19,-660.5 1377.19,-688.5 1498.81,-688.5 1498.81,-660.5 1377.19,-660.5"/>
<text text-anchor="start" x="1385.19" y="-676.5" font-family="Helvetica,sans-Serif" font-size="10.00">libraries/AP_HAL_Linux</text>
<text text-anchor="middle" x="1438" y="-666.5" font-family="Helvetica,sans-Serif" font-size="10.00">/Util_RPI.cpp</text>
</g>
<!-- Node2 -->
<g id="node2" class="node"><title>Node2</title>
<g id="a_node2"><a xlink:href="$AP__HAL_8h.html" xlink:title="AP_HAL/AP_HAL.h">
<polygon fill="white" stroke="black" points="658.086,-440.5 658.086,-458.5 761.914,-458.5 761.914,-440.5 658.086,-440.5"/>
<text text-anchor="middle" x="710" y="-446.5" font-family="Helvetica,sans-Serif" font-size="10.00">AP_HAL/AP_HAL.h</text>
</a>
</g>
</g>
<!-- Node1&#45;&gt;Node2 -->
<g id="edge1" class="edge"><title>Node1&#45;&gt;Node2</title>
<path fill="none" stroke="midnightblue" d="M1376.95,-667.894C1312.16,-661.05 1207.16,-647.396 1119,-624 986.565,-588.855 955.882,-570.379 831,-514 796.068,-498.23 757.036,-477.075 732.992,-463.612"/>
<polygon fill="midnightblue" stroke="midnightblue" points="734.683,-460.548 724.253,-458.688 731.247,-466.646 734.683,-460.548"/>
</g>
<!-- Node21 -->
<g id="node21" class="node"><title>Node21</title>
<polygon fill="white" stroke="#bfbfbf" points="1005.16,-110.5 1005.16,-128.5 1052.84,-128.5 1052.84,-110.5 1005.16,-110.5"/>
<text text-anchor="middle" x="1029" y="-116.5" font-family="Helvetica,sans-Serif" font-size="10.00">stdlib.h</text>
</g>
<!-- Node1&#45;&gt;Node21 -->
<g id="edge72" class="edge"><title>Node1&#45;&gt;Node21</title>
<path fill="none" stroke="midnightblue" d="M1427.68,-660.452C1412.78,-640.261 1387,-599.673 1387,-560.5 1387,-560.5 1387,-560.5 1387,-283.5 1387,-219.705 1359.87,-199.17 1306,-165 1266.16,-139.731 1128,-127.224 1063.14,-122.633"/>
<polygon fill="midnightblue" stroke="midnightblue" points="1063.23,-119.132 1053.01,-121.939 1062.75,-126.115 1063.23,-119.132"/>
</g>
<!-- Node23 -->
<g id="node23" class="node"><title>Node23</title>
<polygon fill="white" stroke="#bfbfbf" points="1244.93,-165.5 1244.93,-183.5 1297.07,-183.5 1297.07,-165.5 1244.93,-165.5"/>
<text text-anchor="middle" x="1271" y="-171.5" font-family="Helvetica,sans-Serif" font-size="10.00">stdarg.h</text>
</g>
<!-- Node1&#45;&gt;Node23 -->
<g id="edge69" class="edge"><title>Node1&#45;&gt;Node23</title>
<path fill="none" stroke="midnightblue" d="M1415.25,-660.25C1386.86,-641.812 1342,-605.548 1342,-560.5 1342,-560.5 1342,-560.5 1342,-338.5 1342,-280.818 1304.17,-220.491 1283.73,-192.118"/>
<polygon fill="midnightblue" stroke="midnightblue" points="1286.32,-189.724 1277.55,-183.771 1280.69,-193.89 1286.32,-189.724"/>
</g>
<!-- Node30 -->
<g id="node30" class="node"><title>Node30</title>
<polygon fill="white" stroke="#bfbfbf" points="1415.27,-605.5 1415.27,-623.5 1460.73,-623.5 1460.73,-605.5 1415.27,-605.5"/>
<text text-anchor="middle" x="1438" y="-611.5" font-family="Helvetica,sans-Serif" font-size="10.00">stdio.h</text>
</g>
<!-- Node1&#45;&gt;Node30 -->
<g id="edge68" class="edge"><title>Node1&#45;&gt;Node30</title>
<path fill="none" stroke="midnightblue" d="M1438,-660.339C1438,-652.531 1438,-642.512 1438,-633.927"/>
<polygon fill="midnightblue" stroke="midnightblue" points="1441.5,-633.771 1438,-623.771 1434.5,-633.772 1441.5,-633.771"/>
</g>
<!-- Node31 -->
<g id="node31" class="node"><title>Node31</title>
<polygon fill="white" stroke="#bfbfbf" points="1478.88,-605.5 1478.88,-623.5 1537.12,-623.5 1537.12,-605.5 1478.88,-605.5"/>
<text text-anchor="middle" x="1508" y="-611.5" font-family="Helvetica,sans-Serif" font-size="10.00">sys/stat.h</text>
</g>
<!-- Node1&#45;&gt;Node31 -->
<g id="edge70" class="edge"><title>Node1&#45;&gt;Node31</title>
<path fill="none" stroke="midnightblue" d="M1453.88,-660.339C1464.68,-651.39 1478.99,-639.538 1490.18,-630.267"/>
<polygon fill="midnightblue" stroke="midnightblue" points="1492.55,-632.847 1498.02,-623.771 1488.08,-627.457 1492.55,-632.847"/>
</g>
<!-- Node32 -->
<g id="node32" class="node"><title>Node32</title>
<polygon fill="white" stroke="#bfbfbf" points="1555.49,-605.5 1555.49,-623.5 1606.51,-623.5 1606.51,-605.5 1555.49,-605.5"/>
<text text-anchor="middle" x="1581" y="-611.5" font-family="Helvetica,sans-Serif" font-size="10.00">unistd.h</text>
</g>
<!-- Node1&#45;&gt;Node32 -->
<g id="edge71" class="edge"><title>Node1&#45;&gt;Node32</title>
<path fill="none" stroke="midnightblue" d="M1470.09,-660.484C1494.45,-650.606 1527.67,-637.13 1551.39,-627.509"/>
<polygon fill="midnightblue" stroke="midnightblue" points="1552.97,-630.645 1560.92,-623.643 1550.34,-624.159 1552.97,-630.645"/>
</g>
<!-- Node33 -->
<g id="node33" class="node"><title>Node33</title>
<polygon fill="white" stroke="#bfbfbf" points="1624.16,-605.5 1624.16,-623.5 1671.84,-623.5 1671.84,-605.5 1624.16,-605.5"/>
<text text-anchor="middle" x="1648" y="-611.5" font-family="Helvetica,sans-Serif" font-size="10.00">errno.h</text>
</g>
<!-- Node1&#45;&gt;Node33 -->
<g id="edge73" class="edge"><title>Node1&#45;&gt;Node33</title>
<path fill="none" stroke="midnightblue" d="M1485.13,-660.484C1524.42,-649.631 1579.44,-634.436 1614.4,-624.781"/>
<polygon fill="midnightblue" stroke="midnightblue" points="1615.42,-628.13 1624.13,-622.094 1613.56,-621.382 1615.42,-628.13"/>
</g>
<!-- Node34 -->
<g id="node34" class="node"><title>Node34</title>
<polygon fill="white" stroke="#bfbfbf" points="1689.38,-605.5 1689.38,-623.5 1732.62,-623.5 1732.62,-605.5 1689.38,-605.5"/>
<text text-anchor="middle" x="1711" y="-611.5" font-family="Helvetica,sans-Serif" font-size="10.00">time.h</text>
</g>
<!-- Node1&#45;&gt;Node34 -->
<g id="edge74" class="edge"><title>Node1&#45;&gt;Node34</title>
<path fill="none" stroke="midnightblue" d="M1498.95,-662.4C1545.95,-653.539 1612.78,-640.292 1679.29,-624.292"/>
<polygon fill="midnightblue" stroke="midnightblue" points="1680.2,-627.672 1689.1,-621.912 1678.55,-620.869 1680.2,-627.672"/>
</g>
<!-- Node35 -->
<g id="node35" class="node"><title>Node35</title>
<g id="a_node35"><a xlink:href="$Util__RPI_8h.html" xlink:title="Util_RPI.h">
<polygon fill="white" stroke="black" points="1128.49,-605.5 1128.49,-623.5 1189.51,-623.5 1189.51,-605.5 1128.49,-605.5"/>
<text text-anchor="middle" x="1159" y="-611.5" font-family="Helvetica,sans-Serif" font-size="10.00">Util_RPI.h</text>
</a>
</g>
</g>
<!-- Node1&#45;&gt;Node35 -->
<g id="edge75" class="edge"><title>Node1&#45;&gt;Node35</title>
<path fill="none" stroke="midnightblue" d="M1377.12,-660.843C1323.31,-649.657 1246.32,-633.652 1199.66,-623.953"/>
<polygon fill="midnightblue" stroke="midnightblue" points="1200.12,-620.474 1189.62,-621.866 1198.7,-627.328 1200.12,-620.474"/>
</g>
<!-- Node3 -->
<g id="node3" class="node"><title>Node3</title>
<polygon fill="white" stroke="#bfbfbf" points="494.879,-110.5 494.879,-128.5 543.121,-128.5 543.121,-110.5 494.879,-110.5"/>
<text text-anchor="middle" x="519" y="-116.5" font-family="Helvetica,sans-Serif" font-size="10.00">stdint.h</text>
</g>
<!-- Node2&#45;&gt;Node3 -->
<g id="edge2" class="edge"><title>Node2&#45;&gt;Node3</title>
<path fill="none" stroke="midnightblue" d="M698.034,-440.302C686.573,-432.049 669.257,-418.496 657,-404 584.53,-318.293 570.078,-289.938 533,-184 527.808,-169.166 524.123,-151.686 521.841,-138.826"/>
<polygon fill="midnightblue" stroke="midnightblue" points="525.283,-138.188 520.194,-128.896 518.377,-139.333 525.283,-138.188"/>
</g>
<!-- Node4 -->
<g id="node4" class="node"><title>Node4</title>
<polygon fill="white" stroke="#bfbfbf" points="755.707,-110.5 755.707,-128.5 812.293,-128.5 812.293,-110.5 755.707,-110.5"/>
<text text-anchor="middle" x="784" y="-116.5" font-family="Helvetica,sans-Serif" font-size="10.00">stdbool.h</text>
</g>
<!-- Node2&#45;&gt;Node4 -->
<g id="edge3" class="edge"><title>Node2&#45;&gt;Node4</title>
<path fill="none" stroke="midnightblue" d="M710.37,-440.455C711.898,-410.689 718.768,-304.178 742,-220 750.245,-190.124 765.353,-157.347 775.023,-137.871"/>
<polygon fill="midnightblue" stroke="midnightblue" points="778.245,-139.255 779.639,-128.752 772,-136.094 778.245,-139.255"/>
</g>
<!-- Node5 -->
<g id="node5" class="node"><title>Node5</title>
<g id="a_node5"><a xlink:href="$AP__HAL__Namespace_8h.html" xlink:title="AP_HAL_Namespace.h">
<polygon fill="white" stroke="black" points="534.192,-55.5 534.192,-73.5 655.808,-73.5 655.808,-55.5 534.192,-55.5"/>
<text text-anchor="middle" x="595" y="-61.5" font-family="Helvetica,sans-Serif" font-size="10.00">AP_HAL_Namespace.h</text>
</a>
</g>
</g>
<!-- Node2&#45;&gt;Node5 -->
<g id="edge4" class="edge"><title>Node2&#45;&gt;Node5</title>
<path fill="none" stroke="midnightblue" d="M657.82,-448.506C562.043,-447.551 352.211,-440.968 180,-404 97.0574,-386.195 0,-425.332 0,-340.5 0,-340.5 0,-340.5 0,-173.5 0,-120.786 366.217,-84.3107 524.033,-71.0395"/>
<polygon fill="midnightblue" stroke="midnightblue" points="524.446,-74.5173 534.121,-70.1989 523.865,-67.5415 524.446,-74.5173"/>
</g>
<!-- Node8 -->
<g id="node8" class="node"><title>Node8</title>
<g id="a_node8"><a xlink:href="$AP__HAL__Boards_8h.html" xlink:title="AP_HAL_Boards.h">
<polygon fill="white" stroke="black" points="813.03,-165.5 813.03,-183.5 912.97,-183.5 912.97,-165.5 813.03,-165.5"/>
<text text-anchor="middle" x="863" y="-171.5" font-family="Helvetica,sans-Serif" font-size="10.00">AP_HAL_Boards.h</text>
</a>
</g>
</g>
<!-- Node2&#45;&gt;Node8 -->
<g id="edge7" class="edge"><title>Node2&#45;&gt;Node8</title>
<path fill="none" stroke="midnightblue" d="M762.13,-444.704C846.036,-438.059 1003.37,-423.182 1020,-404 1085.25,-328.718 942.361,-225.802 885.244,-189.146"/>
<polygon fill="midnightblue" stroke="midnightblue" points="886.877,-186.038 876.554,-183.657 883.139,-191.956 886.877,-186.038"/>
</g>
<!-- Node9 -->
<g id="node9" class="node"><title>Node9</title>
<g id="a_node9"><a xlink:href="$AP__HAL__Macros_8h.html" xlink:title="AP_HAL_Macros.h">
<polygon fill="white" stroke="black" points="909.48,-385.5 909.48,-403.5 1010.52,-403.5 1010.52,-385.5 909.48,-385.5"/>
<text text-anchor="middle" x="960" y="-391.5" font-family="Helvetica,sans-Serif" font-size="10.00">AP_HAL_Macros.h</text>
</a>
</g>
</g>
<!-- Node2&#45;&gt;Node9 -->
<g id="edge8" class="edge"><title>Node2&#45;&gt;Node9</title>
<path fill="none" stroke="midnightblue" d="M747.97,-440.45C791.966,-431.123 864.517,-415.742 912.286,-405.615"/>
<polygon fill="midnightblue" stroke="midnightblue" points="913.027,-409.036 922.083,-403.538 911.575,-402.188 913.027,-409.036"/>
</g>
<!-- Node10 -->
<g id="node10" class="node"><title>Node10</title>
<g id="a_node10"><a xlink:href="$AP__HAL__Main_8h.html" xlink:title="AP_HAL_Main.h">
<polygon fill="white" stroke="black" points="393.035,-385.5 393.035,-403.5 482.965,-403.5 482.965,-385.5 393.035,-385.5"/>
<text text-anchor="middle" x="438" y="-391.5" font-family="Helvetica,sans-Serif" font-size="10.00">AP_HAL_Main.h</text>
</a>
</g>
</g>
<!-- Node2&#45;&gt;Node10 -->
<g id="edge9" class="edge"><title>Node2&#45;&gt;Node10</title>
<path fill="none" stroke="midnightblue" d="M668.689,-440.45C620.621,-431.084 541.224,-415.614 489.262,-405.489"/>
<polygon fill="midnightblue" stroke="midnightblue" points="489.738,-402.016 479.253,-403.538 488.399,-408.886 489.738,-402.016"/>
</g>
<!-- Node11 -->
<g id="node11" class="node"><title>Node11</title>
<g id="a_node11"><a xlink:href="$HAL_8h.html" xlink:title="HAL.h">
<polygon fill="white" stroke="black" points="368.104,-330.5 368.104,-348.5 411.896,-348.5 411.896,-330.5 368.104,-330.5"/>
<text text-anchor="middle" x="390" y="-336.5" font-family="Helvetica,sans-Serif" font-size="10.00">HAL.h</text>
</a>
</g>
</g>
<!-- Node2&#45;&gt;Node11 -->
<g id="edge67" class="edge"><title>Node2&#45;&gt;Node11</title>
<path fill="none" stroke="midnightblue" d="M658.042,-449.316C575.196,-449.379 418.932,-444.024 384,-404 373.208,-391.634 376.924,-372.301 381.966,-358.214"/>
<polygon fill="midnightblue" stroke="midnightblue" points="385.324,-359.247 385.862,-348.666 378.843,-356.603 385.324,-359.247"/>
</g>
<!-- Node12 -->
<g id="node12" class="node"><title>Node12</title>
<g id="a_node12"><a xlink:href="$AnalogIn_8h.html" xlink:title="AnalogIn.h">
<polygon fill="white" stroke="black" points="585.091,-220.5 585.091,-238.5 648.909,-238.5 648.909,-220.5 585.091,-220.5"/>
<text text-anchor="middle" x="617" y="-226.5" font-family="Helvetica,sans-Serif" font-size="10.00">AnalogIn.h</text>
</a>
</g>
</g>
<!-- Node2&#45;&gt;Node12 -->
<g id="edge49" class="edge"><title>Node2&#45;&gt;Node12</title>
<path fill="none" stroke="midnightblue" d="M702.487,-440.28C683.136,-418.478 631.852,-356.556 614,-294 609.737,-279.061 611.069,-261.351 613.132,-248.435"/>
<polygon fill="midnightblue" stroke="midnightblue" points="616.59,-248.985 615.011,-238.508 609.712,-247.683 616.59,-248.985"/>
</g>
<!-- Node14 -->
<g id="node14" class="node"><title>Node14</title>
<g id="a_node14"><a xlink:href="$GPIO_8h.html" xlink:title="GPIO.h">
<polygon fill="white" stroke="black" points="321.328,-220.5 321.328,-238.5 370.672,-238.5 370.672,-220.5 321.328,-220.5"/>
<text text-anchor="middle" x="346" y="-226.5" font-family="Helvetica,sans-Serif" font-size="10.00">GPIO.h</text>
</a>
</g>
</g>
<!-- Node2&#45;&gt;Node14 -->
<g id="edge51" class="edge"><title>Node2&#45;&gt;Node14</title>
<path fill="none" stroke="midnightblue" d="M657.953,-448.419C574.335,-447.201 415.265,-440.055 374,-404 329.217,-364.872 336.395,-284.754 342.371,-248.742"/>
<polygon fill="midnightblue" stroke="midnightblue" points="345.85,-249.174 344.202,-238.708 338.964,-247.917 345.85,-249.174"/>
</g>
<!-- Node15 -->
<g id="node15" class="node"><title>Node15</title>
<g id="a_node15"><a xlink:href="$RCInput_8h.html" xlink:title="RCInput.h">
<polygon fill="white" stroke="black" points="28.4878,-275.5 28.4878,-293.5 89.5122,-293.5 89.5122,-275.5 28.4878,-275.5"/>
<text text-anchor="middle" x="59" y="-281.5" font-family="Helvetica,sans-Serif" font-size="10.00">RCInput.h</text>
</a>
</g>
</g>
<!-- Node2&#45;&gt;Node15 -->
<g id="edge52" class="edge"><title>Node2&#45;&gt;Node15</title>
<path fill="none" stroke="midnightblue" d="M657.929,-447.236C549.016,-444.03 300.731,-433.614 222,-404 160.273,-380.782 101.073,-327.508 74.1463,-301.028"/>
<polygon fill="midnightblue" stroke="midnightblue" points="76.4025,-298.334 66.8587,-293.734 71.4504,-303.282 76.4025,-298.334"/>
</g>
<!-- Node16 -->
<g id="node16" class="node"><title>Node16</title>
<g id="a_node16"><a xlink:href="$RCOutput_8h.html" xlink:title="RCOutput.h">
<polygon fill="white" stroke="black" points="107.599,-275.5 107.599,-293.5 176.401,-293.5 176.401,-275.5 107.599,-275.5"/>
<text text-anchor="middle" x="142" y="-281.5" font-family="Helvetica,sans-Serif" font-size="10.00">RCOutput.h</text>
</a>
</g>
</g>
<!-- Node2&#45;&gt;Node16 -->
<g id="edge53" class="edge"><title>Node2&#45;&gt;Node16</title>
<path fill="none" stroke="midnightblue" d="M657.86,-447.919C553.905,-446.033 324.837,-438.022 255,-404 207.657,-380.937 169.66,-329.2 152.274,-302.365"/>
<polygon fill="midnightblue" stroke="midnightblue" points="155.111,-300.303 146.822,-293.705 149.187,-304.032 155.111,-300.303"/>
</g>
<!-- Node17 -->
<g id="node17" class="node"><title>Node17</title>
<g id="a_node17"><a xlink:href="$SPIDriver_8h.html" xlink:title="SPIDriver.h">
<polygon fill="white" stroke="black" points="194.712,-275.5 194.712,-293.5 261.288,-293.5 261.288,-275.5 194.712,-275.5"/>
<text text-anchor="middle" x="228" y="-281.5" font-family="Helvetica,sans-Serif" font-size="10.00">SPIDriver.h</text>
</a>
</g>
</g>
<!-- Node2&#45;&gt;Node17 -->
<g id="edge48" class="edge"><title>Node2&#45;&gt;Node17</title>
<path fill="none" stroke="midnightblue" d="M657.747,-446.173C548.8,-440.892 304.97,-426.669 275,-404 243.018,-379.809 232.764,-330.501 229.502,-303.748"/>
<polygon fill="midnightblue" stroke="midnightblue" points="232.954,-303.104 228.465,-293.507 225.99,-303.809 232.954,-303.104"/>
</g>
<!-- Node18 -->
<g id="node18" class="node"><title>Node18</title>
<g id="a_node18"><a xlink:href="$Storage_8h.html" xlink:title="Storage.h">
<polygon fill="white" stroke="black" points="431.318,-275.5 431.318,-293.5 490.682,-293.5 490.682,-275.5 431.318,-275.5"/>
<text text-anchor="middle" x="461" y="-281.5" font-family="Helvetica,sans-Serif" font-size="10.00">Storage.h</text>
</a>
</g>
</g>
<!-- Node2&#45;&gt;Node18 -->
<g id="edge50" class="edge"><title>Node2&#45;&gt;Node18</title>
<path fill="none" stroke="midnightblue" d="M657.79,-445.458C620.509,-440.998 570.822,-430.162 535,-404 499.523,-378.09 477.204,-329.524 467.183,-303.332"/>
<polygon fill="midnightblue" stroke="midnightblue" points="470.352,-301.805 463.639,-293.608 463.775,-304.202 470.352,-301.805"/>
</g>
<!-- Node19 -->
<g id="node19" class="node"><title>Node19</title>
<g id="a_node19"><a xlink:href="$UARTDriver_8h.html" xlink:title="UARTDriver.h">
<polygon fill="white" stroke="black" points="623.248,-275.5 623.248,-293.5 700.752,-293.5 700.752,-275.5 623.248,-275.5"/>
<text text-anchor="middle" x="662" y="-281.5" font-family="Helvetica,sans-Serif" font-size="10.00">UARTDriver.h</text>
</a>
</g>
</g>
<!-- Node2&#45;&gt;Node19 -->
<g id="edge44" class="edge"><title>Node2&#45;&gt;Node19</title>
<path fill="none" stroke="midnightblue" d="M707.554,-440.193C700.107,-414.903 677.594,-338.453 667.273,-303.405"/>
<polygon fill="midnightblue" stroke="midnightblue" points="670.567,-302.201 664.384,-293.597 663.852,-304.179 670.567,-302.201"/>
</g>
<!-- Node22 -->
<g id="node22" class="node"><title>Node22</title>
<g id="a_node22"><a xlink:href="$BetterStream_8h.html" xlink:title="utility/BetterStream.h">
<polygon fill="white" stroke="black" points="1042.59,-220.5 1042.59,-238.5 1151.41,-238.5 1151.41,-220.5 1042.59,-220.5"/>
<text text-anchor="middle" x="1097" y="-226.5" font-family="Helvetica,sans-Serif" font-size="10.00">utility/BetterStream.h</text>
</a>
</g>
</g>
<!-- Node2&#45;&gt;Node22 -->
<g id="edge66" class="edge"><title>Node2&#45;&gt;Node22</title>
<path fill="none" stroke="midnightblue" d="M720.065,-440.281C730.565,-431.577 747.367,-417.286 761,-404 821.126,-345.402 823.166,-311.028 899,-275 941.01,-255.042 992.343,-243.834 1032.21,-237.659"/>
<polygon fill="midnightblue" stroke="midnightblue" points="1032.97,-241.085 1042.35,-236.159 1031.95,-234.161 1032.97,-241.085"/>
</g>
<!-- Node24 -->
<g id="node24" class="node"><title>Node24</title>
<g id="a_node24"><a xlink:href="$Stream_8h.html" xlink:title="Stream.h">
<polygon fill="white" stroke="black" points="1132.71,-165.5 1132.71,-183.5 1189.29,-183.5 1189.29,-165.5 1132.71,-165.5"/>
<text text-anchor="middle" x="1161" y="-171.5" font-family="Helvetica,sans-Serif" font-size="10.00">Stream.h</text>
</a>
</g>
</g>
<!-- Node2&#45;&gt;Node24 -->
<g id="edge65" class="edge"><title>Node2&#45;&gt;Node24</title>
<path fill="none" stroke="midnightblue" d="M724.29,-440.442C739.522,-431.754 764.256,-417.369 785,-404 833.295,-372.875 839.718,-355.91 891,-330 1003.65,-273.085 1085.63,-340.97 1160,-239 1169.43,-226.067 1168.49,-207.379 1165.9,-193.624"/>
<polygon fill="midnightblue" stroke="midnightblue" points="1169.31,-192.809 1163.64,-183.854 1162.49,-194.385 1169.31,-192.809"/>
</g>
<!-- Node25 -->
<g id="node25" class="node"><title>Node25</title>
<g id="a_node25"><a xlink:href="$Print_8h.html" xlink:title="Print.h">
<polygon fill="white" stroke="black" points="1317.55,-110.5 1317.55,-128.5 1362.45,-128.5 1362.45,-110.5 1317.55,-110.5"/>
<text text-anchor="middle" x="1340" y="-116.5" font-family="Helvetica,sans-Serif" font-size="10.00">Print.h</text>
</a>
</g>
</g>
<!-- Node2&#45;&gt;Node25 -->
<g id="edge64" class="edge"><title>Node2&#45;&gt;Node25</title>
<path fill="none" stroke="midnightblue" d="M762.192,-444.808C852.124,-438.052 1032.47,-422.664 1093,-404 1143.34,-388.477 1155.7,-380.399 1198,-349 1271.44,-294.483 1286.4,-268.669 1321,-184 1327.06,-169.17 1332.15,-151.691 1335.53,-138.829"/>
<polygon fill="midnightblue" stroke="midnightblue" points="1338.98,-139.45 1338.04,-128.897 1332.2,-137.733 1338.98,-139.45"/>
</g>
<!-- Node26 -->
<g id="node26" class="node"><title>Node26</title>
<g id="a_node26"><a xlink:href="$I2CDriver_8h.html" xlink:title="I2CDriver.h">
<polygon fill="white" stroke="black" points="234.99,-165.5 234.99,-183.5 301.01,-183.5 301.01,-165.5 234.99,-165.5"/>
<text text-anchor="middle" x="268" y="-171.5" font-family="Helvetica,sans-Serif" font-size="10.00">I2CDriver.h</text>
</a>
</g>
</g>
<!-- Node2&#45;&gt;Node26 -->
<g id="edge45" class="edge"><title>Node2&#45;&gt;Node26</title>
<path fill="none" stroke="midnightblue" d="M657.956,-445.997C572.675,-441.232 407.411,-429.021 355,-404 318.266,-386.463 289,-381.206 289,-340.5 289,-340.5 289,-340.5 289,-283.5 289,-251.279 279.882,-214.629 273.663,-193.377"/>
<polygon fill="midnightblue" stroke="midnightblue" points="276.923,-192.07 270.66,-183.525 270.227,-194.111 276.923,-192.07"/>
</g>
<!-- Node27 -->
<g id="node27" class="node"><title>Node27</title>
<g id="a_node27"><a xlink:href="$Scheduler_8h.html" xlink:title="Scheduler.h">
<polygon fill="white" stroke="black" points="750.589,-220.5 750.589,-238.5 819.411,-238.5 819.411,-220.5 750.589,-220.5"/>
<text text-anchor="middle" x="785" y="-226.5" font-family="Helvetica,sans-Serif" font-size="10.00">Scheduler.h</text>
</a>
</g>
</g>
<!-- Node2&#45;&gt;Node27 -->
<g id="edge54" class="edge"><title>Node2&#45;&gt;Node27</title>
<path fill="none" stroke="midnightblue" d="M717.689,-440.3C725.216,-431.836 736.476,-417.938 743,-404 767.807,-351.003 778.869,-281.801 782.966,-249.128"/>
<polygon fill="midnightblue" stroke="midnightblue" points="786.484,-249.18 784.173,-238.841 779.531,-248.365 786.484,-249.18"/>
</g>
<!-- Node28 -->
<g id="node28" class="node"><title>Node28</title>
<g id="a_node28"><a xlink:href="$Semaphores_8h.html" xlink:title="Semaphores.h">
<polygon fill="white" stroke="black" points="900.48,-330.5 900.48,-348.5 981.52,-348.5 981.52,-330.5 900.48,-330.5"/>
<text text-anchor="middle" x="941" y="-336.5" font-family="Helvetica,sans-Serif" font-size="10.00">Semaphores.h</text>
</a>
</g>
</g>
<!-- Node2&#45;&gt;Node28 -->
<g id="edge59" class="edge"><title>Node2&#45;&gt;Node28</title>
<path fill="none" stroke="midnightblue" d="M749.823,-440.471C780.25,-433.397 822.659,-421.471 857,-404 882.808,-390.87 908.836,-369.679 924.933,-355.429"/>
<polygon fill="midnightblue" stroke="midnightblue" points="927.318,-357.99 932.391,-348.688 922.625,-352.797 927.318,-357.99"/>
</g>
<!-- Node29 -->
<g id="node29" class="node"><title>Node29</title>
<g id="a_node29"><a xlink:href="$Util_8h.html" xlink:title="Util.h">
<polygon fill="white" stroke="black" points="1244.61,-220.5 1244.61,-238.5 1283.39,-238.5 1283.39,-220.5 1244.61,-220.5"/>
<text text-anchor="middle" x="1264" y="-226.5" font-family="Helvetica,sans-Serif" font-size="10.00">Util.h</text>
</a>
</g>
</g>
<!-- Node2&#45;&gt;Node29 -->
<g id="edge61" class="edge"><title>Node2&#45;&gt;Node29</title>
<path fill="none" stroke="midnightblue" d="M762.104,-444.447C844.42,-437.591 1000.59,-422.615 1053,-404 1140.63,-372.874 1167.73,-362.156 1231,-294 1243.27,-280.78 1252.24,-262.131 1257.7,-248.463"/>
<polygon fill="midnightblue" stroke="midnightblue" points="1261.1,-249.36 1261.33,-238.768 1254.55,-246.908 1261.1,-249.36"/>
</g>
<!-- Node6 -->
<g id="node6" class="node"><title>Node6</title>
<polygon fill="white" stroke="#bfbfbf" points="928.604,-0.5 928.604,-18.5 977.396,-18.5 977.396,-0.5 928.604,-0.5"/>
<text text-anchor="middle" x="953" y="-6.5" font-family="Helvetica,sans-Serif" font-size="10.00">string.h</text>
</g>
<!-- Node5&#45;&gt;Node6 -->
<g id="edge5" class="edge"><title>Node5&#45;&gt;Node6</title>
<path fill="none" stroke="midnightblue" d="M649.372,-55.4504C723.89,-44.4185 855.614,-24.9175 918.158,-15.6581"/>
<polygon fill="midnightblue" stroke="midnightblue" points="918.914,-19.0844 928.294,-14.1576 917.889,-12.1599 918.914,-19.0844"/>
</g>
<!-- Node7 -->
<g id="node7" class="node"><title>Node7</title>
<g id="a_node7"><a xlink:href="$functor_8h.html" xlink:title="utility/functor.h">
<polygon fill="white" stroke="black" points="555.037,-0.5 555.037,-18.5 634.963,-18.5 634.963,-0.5 555.037,-0.5"/>
<text text-anchor="middle" x="595" y="-6.5" font-family="Helvetica,sans-Serif" font-size="10.00">utility/functor.h</text>
</a>
</g>
</g>
<!-- Node5&#45;&gt;Node7 -->
<g id="edge6" class="edge"><title>Node5&#45;&gt;Node7</title>
<path fill="none" stroke="midnightblue" d="M595,-55.2188C595,-48.1769 595,-37.8083 595,-28.8277"/>
<polygon fill="midnightblue" stroke="midnightblue" points="598.5,-28.5495 595,-18.5496 591.5,-28.5496 598.5,-28.5495"/>
</g>
<!-- Node10&#45;&gt;Node11 -->
<g id="edge10" class="edge"><title>Node10&#45;&gt;Node11</title>
<path fill="none" stroke="midnightblue" d="M430.5,-385.219C423.485,-377.473 412.824,-365.701 404.201,-356.18"/>
<polygon fill="midnightblue" stroke="midnightblue" points="406.597,-353.612 397.29,-348.55 401.409,-358.311 406.597,-353.612"/>
</g>
<!-- Node11&#45;&gt;Node5 -->
<g id="edge11" class="edge"><title>Node11&#45;&gt;Node5</title>
<path fill="none" stroke="midnightblue" d="M390.478,-330.107C392.8,-297.204 405.653,-175.602 471,-110 487.732,-93.2025 511.245,-82.712 533.304,-76.175"/>
<polygon fill="midnightblue" stroke="midnightblue" points="534.256,-79.5435 542.975,-73.5251 532.406,-72.7923 534.256,-79.5435"/>
</g>
<!-- Node11&#45;&gt;Node12 -->
<g id="edge12" class="edge"><title>Node11&#45;&gt;Node12</title>
<path fill="none" stroke="midnightblue" d="M412.229,-330.353C434.674,-321.931 470.19,-308.064 500,-294 533.618,-278.139 571.177,-257.142 594.455,-243.725"/>
<polygon fill="midnightblue" stroke="midnightblue" points="596.321,-246.688 603.215,-238.643 592.809,-240.633 596.321,-246.688"/>
</g>
<!-- Node11&#45;&gt;Node14 -->
<g id="edge15" class="edge"><title>Node11&#45;&gt;Node14</title>
<path fill="none" stroke="midnightblue" d="M386.693,-330.382C379.622,-313.026 362.891,-271.96 353.228,-248.241"/>
<polygon fill="midnightblue" stroke="midnightblue" points="356.36,-246.652 349.346,-238.712 349.877,-249.293 356.36,-246.652"/>
</g>
<!-- Node11&#45;&gt;Node15 -->
<g id="edge18" class="edge"><title>Node11&#45;&gt;Node15</title>
<path fill="none" stroke="midnightblue" d="M368.025,-335.581C320.867,-329.222 206.272,-313.27 99.5124,-293.994"/>
<polygon fill="midnightblue" stroke="midnightblue" points="100.004,-290.526 89.539,-292.179 98.7508,-297.413 100.004,-290.526"/>
</g>
<!-- Node11&#45;&gt;Node16 -->
<g id="edge20" class="edge"><title>Node11&#45;&gt;Node16</title>
<path fill="none" stroke="midnightblue" d="M367.992,-333.797C327.343,-325.11 239.776,-306.396 186.368,-294.982"/>
<polygon fill="midnightblue" stroke="midnightblue" points="187,-291.538 176.489,-292.871 185.537,-298.383 187,-291.538"/>
</g>
<!-- Node11&#45;&gt;Node17 -->
<g id="edge22" class="edge"><title>Node11&#45;&gt;Node17</title>
<path fill="none" stroke="midnightblue" d="M367.814,-331.242C340.603,-322.339 294.178,-307.151 262.344,-296.736"/>
<polygon fill="midnightblue" stroke="midnightblue" points="263.156,-293.319 252.563,-293.536 260.979,-299.972 263.156,-293.319"/>
</g>
<!-- Node11&#45;&gt;Node18 -->
<g id="edge24" class="edge"><title>Node11&#45;&gt;Node18</title>
<path fill="none" stroke="midnightblue" d="M400.783,-330.45C411.626,-322.357 428.576,-309.704 441.733,-299.882"/>
<polygon fill="midnightblue" stroke="midnightblue" points="444.195,-302.412 450.115,-293.625 440.008,-296.803 444.195,-302.412"/>
</g>
<!-- Node11&#45;&gt;Node19 -->
<g id="edge27" class="edge"><title>Node11&#45;&gt;Node19</title>
<path fill="none" stroke="midnightblue" d="M412.259,-334.163C455.917,-325.656 553.692,-306.604 613.126,-295.023"/>
<polygon fill="midnightblue" stroke="midnightblue" points="613.892,-298.44 623.038,-293.092 612.553,-291.569 613.892,-298.44"/>
</g>
<!-- Node12&#45;&gt;Node5 -->
<g id="edge14" class="edge"><title>Node12&#45;&gt;Node5</title>
<path fill="none" stroke="midnightblue" d="M615.879,-220.193C612.48,-195.013 602.236,-119.114 597.478,-83.8621"/>
<polygon fill="midnightblue" stroke="midnightblue" points="600.899,-83.0391 596.093,-73.5971 593.962,-83.9754 600.899,-83.0391"/>
</g>
<!-- Node13 -->
<g id="node13" class="node"><title>Node13</title>
<polygon fill="white" stroke="#bfbfbf" points="921.599,-55.5 921.599,-73.5 980.401,-73.5 980.401,-55.5 921.599,-55.5"/>
<text text-anchor="middle" x="951" y="-61.5" font-family="Helvetica,sans-Serif" font-size="10.00">inttypes.h</text>
</g>
<!-- Node12&#45;&gt;Node13 -->
<g id="edge13" class="edge"><title>Node12&#45;&gt;Node13</title>
<path fill="none" stroke="midnightblue" d="M633.661,-220.378C668.462,-203.411 751.416,-162.964 821,-129 857.228,-111.317 899.127,-90.8475 925.347,-78.0358"/>
<polygon fill="midnightblue" stroke="midnightblue" points="927.136,-81.0573 934.584,-73.5223 924.063,-74.768 927.136,-81.0573"/>
</g>
<!-- Node14&#45;&gt;Node3 -->
<g id="edge16" class="edge"><title>Node14&#45;&gt;Node3</title>
<path fill="none" stroke="midnightblue" d="M359.003,-220.382C388.434,-202.009 460.422,-157.069 496.957,-134.261"/>
<polygon fill="midnightblue" stroke="midnightblue" points="499.217,-136.976 505.846,-128.712 495.51,-131.038 499.217,-136.976"/>
</g>
<!-- Node14&#45;&gt;Node5 -->
<g id="edge17" class="edge"><title>Node14&#45;&gt;Node5</title>
<path fill="none" stroke="midnightblue" d="M343.479,-220.344C337.483,-199.155 324.88,-141.806 353,-110 375.146,-84.9514 460.691,-73.8974 523.822,-69.089"/>
<polygon fill="midnightblue" stroke="midnightblue" points="524.42,-72.5549 534.142,-68.3427 523.916,-65.5732 524.42,-72.5549"/>
</g>
<!-- Node15&#45;&gt;Node5 -->
<g id="edge19" class="edge"><title>Node15&#45;&gt;Node5</title>
<path fill="none" stroke="midnightblue" d="M63.6651,-275.462C80.6837,-246.984 142.659,-150.437 223,-110 274.17,-84.2451 431.044,-72.8644 523.932,-68.2704"/>
<polygon fill="midnightblue" stroke="midnightblue" points="524.279,-71.7579 534.099,-67.782 523.943,-64.766 524.279,-71.7579"/>
</g>
<!-- Node16&#45;&gt;Node5 -->
<g id="edge21" class="edge"><title>Node16&#45;&gt;Node5</title>
<path fill="none" stroke="midnightblue" d="M144.364,-275.151C152.965,-246.464 185.526,-151.43 250,-110 293.985,-81.7362 436.29,-71.3484 523.797,-67.5849"/>
<polygon fill="midnightblue" stroke="midnightblue" points="524.077,-71.0765 533.925,-67.1683 523.789,-64.0824 524.077,-71.0765"/>
</g>
<!-- Node17&#45;&gt;Node5 -->
<g id="edge23" class="edge"><title>Node17&#45;&gt;Node5</title>
<path fill="none" stroke="midnightblue" d="M225.519,-275.238C219.981,-255.202 208.426,-202.892 226,-165 241.922,-130.67 256.505,-125.562 291,-110 331.425,-91.7627 447.595,-78.4423 524.055,-71.3458"/>
<polygon fill="midnightblue" stroke="midnightblue" points="524.463,-74.8232 534.103,-70.4277 523.826,-67.8522 524.463,-74.8232"/>
</g>
<!-- Node18&#45;&gt;Node3 -->
<g id="edge25" class="edge"><title>Node18&#45;&gt;Node3</title>
<path fill="none" stroke="midnightblue" d="M463.956,-275.193C472.955,-249.903 500.158,-173.453 512.629,-138.405"/>
<polygon fill="midnightblue" stroke="midnightblue" points="516.064,-139.192 516.119,-128.597 509.469,-136.845 516.064,-139.192"/>
</g>
<!-- Node18&#45;&gt;Node5 -->
<g id="edge26" class="edge"><title>Node18&#45;&gt;Node5</title>
<path fill="none" stroke="midnightblue" d="M459.561,-275.167C455.375,-248.081 445.908,-161.323 486,-110 498.863,-93.5332 518.835,-83.1216 538.186,-76.5551"/>
<polygon fill="midnightblue" stroke="midnightblue" points="539.387,-79.8472 547.904,-73.5454 537.316,-73.1605 539.387,-79.8472"/>
</g>
<!-- Node19&#45;&gt;Node3 -->
<g id="edge28" class="edge"><title>Node19&#45;&gt;Node3</title>
<path fill="none" stroke="midnightblue" d="M636.705,-275.372C617.969,-268.275 592.866,-256.365 576,-239 561.055,-223.613 537.336,-166.961 525.778,-137.919"/>
<polygon fill="midnightblue" stroke="midnightblue" points="529.028,-136.619 522.109,-128.596 522.515,-139.183 529.028,-136.619"/>
</g>
<!-- Node19&#45;&gt;Node5 -->
<g id="edge33" class="edge"><title>Node19&#45;&gt;Node5</title>
<path fill="none" stroke="midnightblue" d="M662.247,-275.175C662.437,-262.94 662.142,-239.447 658,-220 646.871,-167.746 619.077,-110.591 604.408,-82.7195"/>
<polygon fill="midnightblue" stroke="midnightblue" points="607.299,-80.7039 599.49,-73.5428 601.129,-84.0102 607.299,-80.7039"/>
</g>
<!-- Node20 -->
<g id="node20" class="node"><title>Node20</title>
<g id="a_node20"><a xlink:href="$AP__Common_8h.html" xlink:title="Common definitions and utility routines for the ArduPilot libraries. ">
<polygon fill="white" stroke="black" points="930.973,-165.5 930.973,-183.5 1077.03,-183.5 1077.03,-165.5 930.973,-165.5"/>
<text text-anchor="middle" x="1004" y="-171.5" font-family="Helvetica,sans-Serif" font-size="10.00">AP_Common/AP_Common.h</text>
</a>
</g>
</g>
<!-- Node19&#45;&gt;Node20 -->
<g id="edge29" class="edge"><title>Node19&#45;&gt;Node20</title>
<path fill="none" stroke="midnightblue" d="M695.307,-275.45C728.995,-267.103 782.451,-253.294 828,-239 879.763,-222.756 938.895,-200.68 973.75,-187.295"/>
<polygon fill="midnightblue" stroke="midnightblue" points="975.261,-190.464 983.332,-183.6 972.742,-183.933 975.261,-190.464"/>
</g>
<!-- Node19&#45;&gt;Node22 -->
<g id="edge34" class="edge"><title>Node19&#45;&gt;Node22</title>
<path fill="none" stroke="midnightblue" d="M700.986,-278.75C775.96,-269.615 940.906,-249.518 1032.5,-238.359"/>
<polygon fill="midnightblue" stroke="midnightblue" points="1032.98,-241.826 1042.48,-237.142 1032.13,-234.877 1032.98,-241.826"/>
</g>
<!-- Node20&#45;&gt;Node3 -->
<g id="edge30" class="edge"><title>Node20&#45;&gt;Node3</title>
<path fill="none" stroke="midnightblue" d="M930.865,-165.508C824.715,-153.908 632.086,-132.858 553.64,-124.285"/>
<polygon fill="midnightblue" stroke="midnightblue" points="553.671,-120.768 543.35,-123.161 552.91,-127.727 553.671,-120.768"/>
</g>
<!-- Node20&#45;&gt;Node4 -->
<g id="edge32" class="edge"><title>Node20&#45;&gt;Node4</title>
<path fill="none" stroke="midnightblue" d="M970.587,-165.45C930.721,-155.846 864.211,-139.824 822.303,-129.728"/>
<polygon fill="midnightblue" stroke="midnightblue" points="823.009,-126.297 812.467,-127.358 821.369,-133.103 823.009,-126.297"/>
</g>
<!-- Node20&#45;&gt;Node21 -->
<g id="edge31" class="edge"><title>Node20&#45;&gt;Node21</title>
<path fill="none" stroke="midnightblue" d="M1007.91,-165.219C1011.38,-157.864 1016.56,-146.88 1020.92,-137.639"/>
<polygon fill="midnightblue" stroke="midnightblue" points="1024.1,-139.087 1025.2,-128.55 1017.77,-136.101 1024.1,-139.087"/>
</g>
<!-- Node22&#45;&gt;Node5 -->
<g id="edge37" class="edge"><title>Node22&#45;&gt;Node5</title>
<path fill="none" stroke="midnightblue" d="M1097.58,-220.326C1098.65,-198.048 1098.13,-136.185 1062,-110 1030.69,-87.3076 788.832,-73.7939 666.042,-68.3289"/>
<polygon fill="midnightblue" stroke="midnightblue" points="666.12,-64.8291 655.976,-67.8871 665.813,-71.8223 666.12,-64.8291"/>
</g>
<!-- Node22&#45;&gt;Node20 -->
<g id="edge36" class="edge"><title>Node22&#45;&gt;Node20</title>
<path fill="none" stroke="midnightblue" d="M1082.88,-220.45C1068.13,-212.045 1044.75,-198.724 1027.27,-188.762"/>
<polygon fill="midnightblue" stroke="midnightblue" points="1028.68,-185.536 1018.26,-183.625 1025.21,-191.618 1028.68,-185.536"/>
</g>
<!-- Node22&#45;&gt;Node23 -->
<g id="edge35" class="edge"><title>Node22&#45;&gt;Node23</title>
<path fill="none" stroke="midnightblue" d="M1123.43,-220.45C1153.24,-211.37 1201.88,-196.553 1235.11,-186.431"/>
<polygon fill="midnightblue" stroke="midnightblue" points="1236.35,-189.714 1244.89,-183.452 1234.31,-183.017 1236.35,-189.714"/>
</g>
<!-- Node22&#45;&gt;Node24 -->
<g id="edge38" class="edge"><title>Node22&#45;&gt;Node24</title>
<path fill="none" stroke="midnightblue" d="M1106.72,-220.45C1116.4,-212.434 1131.48,-199.947 1143.29,-190.166"/>
<polygon fill="midnightblue" stroke="midnightblue" points="1145.72,-192.699 1151.19,-183.625 1141.25,-187.308 1145.72,-192.699"/>
</g>
<!-- Node24&#45;&gt;Node5 -->
<g id="edge39" class="edge"><title>Node24&#45;&gt;Node5</title>
<path fill="none" stroke="midnightblue" d="M1158.21,-165.123C1153,-150.983 1140.37,-122.681 1119,-110 1080.98,-87.4366 800.491,-73.5412 666.233,-68.1145"/>
<polygon fill="midnightblue" stroke="midnightblue" points="666.176,-64.6096 656.044,-67.7077 665.896,-71.604 666.176,-64.6096"/>
</g>
<!-- Node24&#45;&gt;Node25 -->
<g id="edge40" class="edge"><title>Node24&#45;&gt;Node25</title>
<path fill="none" stroke="midnightblue" d="M1188.19,-165.45C1220.18,-155.977 1273.27,-140.257 1307.44,-130.142"/>
<polygon fill="midnightblue" stroke="midnightblue" points="1308.79,-133.39 1317.39,-127.195 1306.81,-126.678 1308.79,-133.39"/>
</g>
<!-- Node25&#45;&gt;Node5 -->
<g id="edge41" class="edge"><title>Node25&#45;&gt;Node5</title>
<path fill="none" stroke="midnightblue" d="M1317.26,-112.517C1312.88,-111.541 1308.32,-110.641 1304,-110 1182.51,-91.9768 820.892,-75.0618 666.337,-68.4404"/>
<polygon fill="midnightblue" stroke="midnightblue" points="666.157,-64.9296 656.017,-68.0004 665.859,-71.9233 666.157,-64.9296"/>
</g>
<!-- Node25&#45;&gt;Node6 -->
<g id="edge43" class="edge"><title>Node25&#45;&gt;Node6</title>
<path fill="none" stroke="midnightblue" d="M1317.52,-112.227C1252.68,-94.131 1064.98,-41.751 987.294,-20.0704"/>
<polygon fill="midnightblue" stroke="midnightblue" points="988.089,-16.6585 977.516,-17.3417 986.207,-23.4009 988.089,-16.6585"/>
</g>
<!-- Node25&#45;&gt;Node13 -->
<g id="edge42" class="edge"><title>Node25&#45;&gt;Node13</title>
<path fill="none" stroke="midnightblue" d="M1317.22,-112.736C1312.85,-111.739 1308.3,-110.776 1304,-110 1191.14,-89.6224 1056.31,-75.3961 990.74,-69.1169"/>
<polygon fill="midnightblue" stroke="midnightblue" points="990.735,-65.6008 980.449,-68.1425 990.075,-72.5697 990.735,-65.6008"/>
</g>
<!-- Node26&#45;&gt;Node3 -->
<g id="edge46" class="edge"><title>Node26&#45;&gt;Node3</title>
<path fill="none" stroke="midnightblue" d="M301.072,-166.517C348.696,-156.461 436.165,-137.991 484.546,-127.775"/>
<polygon fill="midnightblue" stroke="midnightblue" points="485.472,-131.157 494.533,-125.666 484.026,-124.308 485.472,-131.157"/>
</g>
<!-- Node26&#45;&gt;Node5 -->
<g id="edge47" class="edge"><title>Node26&#45;&gt;Node5</title>
<path fill="none" stroke="midnightblue" d="M271.521,-165.272C277.943,-151.355 292.959,-123.381 315,-110 349.187,-89.2452 452.801,-76.9085 523.922,-70.6659"/>
<polygon fill="midnightblue" stroke="midnightblue" points="524.502,-74.1291 534.167,-69.7888 523.905,-67.1546 524.502,-74.1291"/>
</g>
<!-- Node27&#45;&gt;Node3 -->
<g id="edge55" class="edge"><title>Node27&#45;&gt;Node3</title>
<path fill="none" stroke="midnightblue" d="M765.007,-220.382C718.486,-201.494 602.808,-154.527 548.298,-132.396"/>
<polygon fill="midnightblue" stroke="midnightblue" points="549.445,-129.083 538.862,-128.564 546.811,-135.569 549.445,-129.083"/>
</g>
<!-- Node27&#45;&gt;Node5 -->
<g id="edge58" class="edge"><title>Node27&#45;&gt;Node5</title>
<path fill="none" stroke="midnightblue" d="M775.634,-220.448C753.353,-201.295 695.431,-151.516 647,-110 635.442,-100.092 622.427,-88.9546 612.31,-80.3007"/>
<polygon fill="midnightblue" stroke="midnightblue" points="614.463,-77.5365 604.588,-73.6969 609.913,-82.8563 614.463,-77.5365"/>
</g>
<!-- Node27&#45;&gt;Node8 -->
<g id="edge57" class="edge"><title>Node27&#45;&gt;Node8</title>
<path fill="none" stroke="midnightblue" d="M796.847,-220.45C808.987,-212.201 828.097,-199.216 842.663,-189.319"/>
<polygon fill="midnightblue" stroke="midnightblue" points="844.738,-192.14 851.042,-183.625 840.804,-186.351 844.738,-192.14"/>
</g>
<!-- Node27&#45;&gt;Node20 -->
<g id="edge56" class="edge"><title>Node27&#45;&gt;Node20</title>
<path fill="none" stroke="midnightblue" d="M818.261,-220.45C856.399,-211.221 919.03,-196.063 960.882,-185.935"/>
<polygon fill="midnightblue" stroke="midnightblue" points="961.889,-189.292 970.785,-183.538 960.242,-182.489 961.889,-189.292"/>
</g>
<!-- Node28&#45;&gt;Node5 -->
<g id="edge60" class="edge"><title>Node28&#45;&gt;Node5</title>
<path fill="none" stroke="midnightblue" d="M981.725,-331.347C1058.5,-316.698 1217,-280.411 1217,-230.5 1217,-230.5 1217,-230.5 1217,-173.5 1217,-130.162 1183,-126.681 1143,-110 1058.73,-74.8548 794.348,-67.3864 666.132,-65.8561"/>
<polygon fill="midnightblue" stroke="midnightblue" points="666.059,-62.3551 656.021,-65.7444 665.981,-69.3547 666.059,-62.3551"/>
</g>
<!-- Node29&#45;&gt;Node5 -->
<g id="edge63" class="edge"><title>Node29&#45;&gt;Node5</title>
<path fill="none" stroke="midnightblue" d="M1276.02,-220.449C1291.9,-208.741 1316.69,-186.104 1306,-165 1287.32,-128.128 1269.81,-124.224 1231,-110 1179.12,-90.9874 821.294,-74.5628 666.311,-68.2545"/>
<polygon fill="midnightblue" stroke="midnightblue" points="666.089,-64.7428 655.955,-67.8358 665.806,-71.737 666.089,-64.7428"/>
</g>
<!-- Node29&#45;&gt;Node23 -->
<g id="edge62" class="edge"><title>Node29&#45;&gt;Node23</title>
<path fill="none" stroke="midnightblue" d="M1265.09,-220.219C1266.03,-213.099 1267.42,-202.577 1268.62,-193.529"/>
<polygon fill="midnightblue" stroke="midnightblue" points="1272.1,-193.922 1269.94,-183.55 1265.16,-193.005 1272.1,-193.922"/>
</g>
<!-- Node36 -->
<g id="node36" class="node"><title>Node36</title>
<g id="a_node36"><a xlink:href="$Linux_2Util_8h.html" xlink:title="Util.h">
<polygon fill="white" stroke="black" points="1004.61,-550.5 1004.61,-568.5 1043.39,-568.5 1043.39,-550.5 1004.61,-550.5"/>
<text text-anchor="middle" x="1024" y="-556.5" font-family="Helvetica,sans-Serif" font-size="10.00">Util.h</text>
</a>
</g>
</g>
<!-- Node35&#45;&gt;Node36 -->
<g id="edge76" class="edge"><title>Node35&#45;&gt;Node36</title>
<path fill="none" stroke="midnightblue" d="M1138.5,-605.45C1115.84,-596.554 1079.15,-582.15 1053.42,-572.051"/>
<polygon fill="midnightblue" stroke="midnightblue" points="1054.4,-568.676 1043.82,-568.279 1051.84,-575.192 1054.4,-568.676"/>
</g>
<!-- Node36&#45;&gt;Node2 -->
<g id="edge78" class="edge"><title>Node36&#45;&gt;Node2</title>
<path fill="none" stroke="midnightblue" d="M1004.28,-552.153C977.943,-543.642 929.861,-527.98 889,-514 837.241,-496.291 777.392,-474.866 741.676,-461.979"/>
<polygon fill="midnightblue" stroke="midnightblue" points="742.863,-458.687 732.269,-458.581 740.485,-465.271 742.863,-458.687"/>
</g>
<!-- Node36&#45;&gt;Node20 -->
<g id="edge77" class="edge"><title>Node36&#45;&gt;Node20</title>
<path fill="none" stroke="midnightblue" d="M1027.21,-550.418C1033.66,-533.69 1048.02,-493.912 1053,-459 1067.41,-358.046 1027.67,-237.8 1010.99,-193.245"/>
<polygon fill="midnightblue" stroke="midnightblue" points="1014.22,-191.905 1007.37,-183.821 1007.68,-194.411 1014.22,-191.905"/>
</g>
<!-- Node37 -->
<g id="node37" class="node"><title>Node37</title>
<g id="a_node37"><a xlink:href="$AP__HAL__Linux__Namespace_8h.html" xlink:title="AP_HAL_Linux_Namespace.h">
<polygon fill="white" stroke="black" points="892.458,-440.5 892.458,-458.5 1043.54,-458.5 1043.54,-440.5 892.458,-440.5"/>
<text text-anchor="middle" x="968" y="-446.5" font-family="Helvetica,sans-Serif" font-size="10.00">AP_HAL_Linux_Namespace.h</text>
</a>
</g>
</g>
<!-- Node36&#45;&gt;Node37 -->
<g id="edge79" class="edge"><title>Node36&#45;&gt;Node37</title>
<path fill="none" stroke="midnightblue" d="M1022.64,-550.277C1020.32,-537.766 1014.9,-513.457 1005,-495 999.303,-484.374 990.817,-473.932 983.408,-465.837"/>
<polygon fill="midnightblue" stroke="midnightblue" points="985.939,-463.419 976.502,-458.603 980.876,-468.253 985.939,-463.419"/>
</g>
<!-- Node38 -->
<g id="node38" class="node"><title>Node38</title>
<g id="a_node38"><a xlink:href="$ToneAlarmDriver_8h.html" xlink:title="ToneAlarmDriver.h">
<polygon fill="white" stroke="black" points="897.872,-495.5 897.872,-513.5 996.128,-513.5 996.128,-495.5 897.872,-495.5"/>
<text text-anchor="middle" x="947" y="-501.5" font-family="Helvetica,sans-Serif" font-size="10.00">ToneAlarmDriver.h</text>
</a>
</g>
</g>
<!-- Node36&#45;&gt;Node38 -->
<g id="edge80" class="edge"><title>Node36&#45;&gt;Node38</title>
<path fill="none" stroke="midnightblue" d="M1012.31,-550.45C1000.32,-542.201 981.455,-529.216 967.076,-519.319"/>
<polygon fill="midnightblue" stroke="midnightblue" points="969.026,-516.412 958.805,-513.625 965.058,-522.178 969.026,-516.412"/>
</g>
<!-- Node38&#45;&gt;Node2 -->
<g id="edge81" class="edge"><title>Node38&#45;&gt;Node2</title>
<path fill="none" stroke="midnightblue" d="M911.005,-495.45C869.471,-486.162 801.093,-470.871 755.803,-460.743"/>
<polygon fill="midnightblue" stroke="midnightblue" points="756.468,-457.305 745.945,-458.538 754.94,-464.136 756.468,-457.305"/>
</g>
<!-- Node38&#45;&gt;Node37 -->
<g id="edge82" class="edge"><title>Node38&#45;&gt;Node37</title>
<path fill="none" stroke="midnightblue" d="M950.281,-495.219C953.164,-487.942 957.455,-477.113 961.092,-467.934"/>
<polygon fill="midnightblue" stroke="midnightblue" points="964.381,-469.136 964.811,-458.55 957.873,-466.557 964.381,-469.136"/>
</g>
</g>
</svg>
