<?xml version="1.0" encoding="UTF-8" standalone="no"?>
<!DOCTYPE svg PUBLIC "-//W3C//DTD SVG 1.1//EN"
 "http://www.w3.org/Graphics/SVG/1.1/DTD/svg11.dtd">
<!-- Generated by graphviz version 2.38.0 (20140413.2041)
 -->
<!-- Title: test_snprintf Pages: 1 -->
<svg width="659pt" height="175pt"
 viewBox="0.00 0.00 658.65 175.00" xmlns="http://www.w3.org/2000/svg" xmlns:xlink="http://www.w3.org/1999/xlink">
<g id="graph0" class="graph" transform="scale(1 1) rotate(0) translate(4 171)">
<title>test_snprintf</title>
<polygon fill="white" stroke="none" points="-4,4 -4,-171 654.65,-171 654.65,4 -4,4"/>
<!-- Node1 -->
<g id="node1" class="node"><title>Node1</title>
<polygon fill="#bfbfbf" stroke="black" points="0,-19.5 0,-37.5 70.4727,-37.5 70.4727,-19.5 0,-19.5"/>
<text text-anchor="middle" x="35.2363" y="-25.5" font-family="Helvetica,sans-Serif" font-size="10.00">test_snprintf</text>
</g>
<!-- Node2 -->
<g id="node2" class="node"><title>Node2</title>
<g id="a_node2"><a xlink:href="$classAP__HAL_1_1Util.html#adead79890b223f40eaf092fda231c2f2" xlink:title="AP_HAL::Util::snprintf">
<polygon fill="white" stroke="black" points="106.473,-38.5 106.473,-56.5 219.177,-56.5 219.177,-38.5 106.473,-38.5"/>
<text text-anchor="middle" x="162.825" y="-44.5" font-family="Helvetica,sans-Serif" font-size="10.00">AP_HAL::Util::snprintf</text>
</a>
</g>
</g>
<!-- Node1&#45;&gt;Node2 -->
<g id="edge1" class="edge"><title>Node1&#45;&gt;Node2</title>
<path fill="none" stroke="midnightblue" d="M70.5539,-33.6918C78.5745,-34.9053 87.3815,-36.2376 96.2625,-37.5812"/>
<polygon fill="midnightblue" stroke="midnightblue" points="95.8717,-41.0619 106.283,-39.0972 96.9189,-34.1406 95.8717,-41.0619"/>
</g>
<!-- Node5 -->
<g id="node5" class="node"><title>Node5</title>
<g id="a_node5"><a xlink:href="$classAP__HAL_1_1Print.html#acc65391952a43334f8f5c9bef341f501" xlink:title="AP_HAL::Print::write">
<polygon fill="white" stroke="black" points="543.508,-0.5 543.508,-18.5 650.65,-18.5 650.65,-0.5 543.508,-0.5"/>
<text text-anchor="middle" x="597.079" y="-6.5" font-family="Helvetica,sans-Serif" font-size="10.00">AP_HAL::Print::write</text>
</a>
</g>
</g>
<!-- Node1&#45;&gt;Node5 -->
<g id="edge10" class="edge"><title>Node1&#45;&gt;Node5</title>
<path fill="none" stroke="midnightblue" d="M70.8345,-27.3258C162.82,-24.204 414.472,-15.6634 532.891,-11.6445"/>
<polygon fill="midnightblue" stroke="midnightblue" points="533.365,-15.1305 543.241,-11.2932 533.128,-8.13453 533.365,-15.1305"/>
</g>
<!-- Node3 -->
<g id="node3" class="node"><title>Node3</title>
<g id="a_node3"><a xlink:href="$classAP__HAL_1_1Util.html#ac57ef0a9815cd597ad5cab5d6c31c6c8" xlink:title="AP_HAL::Util::vsnprintf">
<polygon fill="white" stroke="black" points="255.177,-38.5 255.177,-56.5 372.881,-56.5 372.881,-38.5 255.177,-38.5"/>
<text text-anchor="middle" x="314.029" y="-44.5" font-family="Helvetica,sans-Serif" font-size="10.00">AP_HAL::Util::vsnprintf</text>
</a>
</g>
</g>
<!-- Node2&#45;&gt;Node3 -->
<g id="edge2" class="edge"><title>Node2&#45;&gt;Node3</title>
<path fill="none" stroke="midnightblue" d="M219.383,-47.5C227.629,-47.5 236.208,-47.5 244.679,-47.5"/>
<polygon fill="midnightblue" stroke="midnightblue" points="244.929,-51.0001 254.929,-47.5 244.929,-44.0001 244.929,-51.0001"/>
</g>
<!-- Node4 -->
<g id="node4" class="node"><title>Node4</title>
<g id="a_node4"><a xlink:href="$print__vprintf_8cpp.html#a473b9349f4b086b552a21eb8fe057016" xlink:title="print_vprintf">
<polygon fill="white" stroke="black" points="424.071,-75.5 424.071,-93.5 492.317,-93.5 492.317,-75.5 424.071,-75.5"/>
<text text-anchor="middle" x="458.194" y="-81.5" font-family="Helvetica,sans-Serif" font-size="10.00">print_vprintf</text>
</a>
</g>
</g>
<!-- Node3&#45;&gt;Node4 -->
<g id="edge3" class="edge"><title>Node3&#45;&gt;Node4</title>
<path fill="none" stroke="midnightblue" d="M349.806,-56.5512C369.163,-61.5889 393.428,-67.9043 413.994,-73.2567"/>
<polygon fill="midnightblue" stroke="midnightblue" points="413.196,-76.6654 423.755,-75.797 414.959,-69.8911 413.196,-76.6654"/>
</g>
<!-- Node10 -->
<g id="node10" class="node"><title>Node10</title>
<g id="a_node10"><a xlink:href="$classBufferPrinter.html#a0b98d7f59a6591097d2011d68359b8a0" xlink:title="BufferPrinter::write">
<polygon fill="white" stroke="black" points="408.881,-38.5 408.881,-56.5 507.508,-56.5 507.508,-38.5 408.881,-38.5"/>
<text text-anchor="middle" x="458.194" y="-44.5" font-family="Helvetica,sans-Serif" font-size="10.00">BufferPrinter::write</text>
</a>
</g>
</g>
<!-- Node3&#45;&gt;Node10 -->
<g id="edge9" class="edge"><title>Node3&#45;&gt;Node10</title>
<path fill="none" stroke="midnightblue" d="M373.263,-47.5C381.659,-47.5 390.301,-47.5 398.702,-47.5"/>
<polygon fill="midnightblue" stroke="midnightblue" points="398.795,-51.0001 408.795,-47.5 398.795,-44.0001 398.795,-51.0001"/>
</g>
<!-- Node4&#45;&gt;Node5 -->
<g id="edge4" class="edge"><title>Node4&#45;&gt;Node5</title>
<path fill="none" stroke="midnightblue" d="M488.333,-75.4197C494.918,-72.7319 501.68,-69.4321 507.508,-65.5 526.793,-52.488 523.936,-40.0768 543.508,-27.5 546.308,-25.7007 549.308,-24.0595 552.403,-22.5664"/>
<polygon fill="midnightblue" stroke="midnightblue" points="554.05,-25.6691 561.871,-18.5216 551.3,-19.2319 554.05,-25.6691"/>
</g>
<!-- Node6 -->
<g id="node6" class="node"><title>Node6</title>
<g id="a_node6"><a xlink:href="$ftoa__engine_8cpp.html#a1c28234da8f20b43c85890d4bb452947" xlink:title="ftoa_engine">
<polygon fill="white" stroke="black" points="562.944,-148.5 562.944,-166.5 631.214,-166.5 631.214,-148.5 562.944,-148.5"/>
<text text-anchor="middle" x="597.079" y="-154.5" font-family="Helvetica,sans-Serif" font-size="10.00">ftoa_engine</text>
</a>
</g>
</g>
<!-- Node4&#45;&gt;Node6 -->
<g id="edge5" class="edge"><title>Node4&#45;&gt;Node6</title>
<path fill="none" stroke="midnightblue" d="M470.92,-93.5062C486.714,-105.311 516.021,-126.088 543.508,-139.5 547.518,-141.457 551.795,-143.294 556.111,-144.991"/>
<polygon fill="midnightblue" stroke="midnightblue" points="554.943,-148.29 565.536,-148.474 557.369,-141.724 554.943,-148.29"/>
</g>
<!-- Node7 -->
<g id="node7" class="node"><title>Node7</title>
<g id="a_node7"><a xlink:href="$AP__Progmem_8h.html#a1514e0408e036062b4af844baaf567da" xlink:title="pgm_read_byte">
<polygon fill="white" stroke="black" points="554.333,-111.5 554.333,-129.5 639.825,-129.5 639.825,-111.5 554.333,-111.5"/>
<text text-anchor="middle" x="597.079" y="-117.5" font-family="Helvetica,sans-Serif" font-size="10.00">pgm_read_byte</text>
</a>
</g>
</g>
<!-- Node4&#45;&gt;Node7 -->
<g id="edge6" class="edge"><title>Node4&#45;&gt;Node7</title>
<path fill="none" stroke="midnightblue" d="M492.33,-93.2146C510.253,-97.9282 532.624,-103.812 551.999,-108.907"/>
<polygon fill="midnightblue" stroke="midnightblue" points="551.257,-112.331 561.819,-111.49 553.038,-105.561 551.257,-112.331"/>
</g>
<!-- Node8 -->
<g id="node8" class="node"><title>Node8</title>
<g id="a_node8"><a xlink:href="$utoa__invert_8cpp.html#a34926f552460b47c414ec4d83b32815c" xlink:title="ulltoa_invert">
<polygon fill="white" stroke="black" points="562.119,-74.5 562.119,-92.5 632.04,-92.5 632.04,-74.5 562.119,-74.5"/>
<text text-anchor="middle" x="597.079" y="-80.5" font-family="Helvetica,sans-Serif" font-size="10.00">ulltoa_invert</text>
</a>
</g>
</g>
<!-- Node4&#45;&gt;Node8 -->
<g id="edge7" class="edge"><title>Node4&#45;&gt;Node8</title>
<path fill="none" stroke="midnightblue" d="M492.33,-84.2579C510.171,-84.1276 532.419,-83.9651 551.732,-83.824"/>
<polygon fill="midnightblue" stroke="midnightblue" points="551.845,-87.3233 561.819,-83.7503 551.793,-80.3235 551.845,-87.3233"/>
</g>
<!-- Node9 -->
<g id="node9" class="node"><title>Node9</title>
<g id="a_node9"><a xlink:href="$utoa__invert_8cpp.html#a5d99bba8e697c1e11da489d88fca8559" xlink:title="ultoa_invert">
<polygon fill="white" stroke="black" points="563.229,-37.5 563.229,-55.5 630.929,-55.5 630.929,-37.5 563.229,-37.5"/>
<text text-anchor="middle" x="597.079" y="-43.5" font-family="Helvetica,sans-Serif" font-size="10.00">ultoa_invert</text>
</a>
</g>
</g>
<!-- Node4&#45;&gt;Node9 -->
<g id="edge8" class="edge"><title>Node4&#45;&gt;Node9</title>
<path fill="none" stroke="midnightblue" d="M491.634,-75.4945C510.166,-70.3501 533.62,-63.839 553.606,-58.2909"/>
<polygon fill="midnightblue" stroke="midnightblue" points="554.698,-61.62 563.398,-55.5725 552.826,-54.875 554.698,-61.62"/>
</g>
</g>
</svg>
