<?xml version="1.0" encoding="UTF-8" standalone="no"?>
<!DOCTYPE svg PUBLIC "-//W3C//DTD SVG 1.1//EN"
 "http://www.w3.org/Graphics/SVG/1.1/DTD/svg11.dtd">
<!-- Generated by graphviz version 2.38.0 (20140413.2041)
 -->
<!-- Title: libraries/AP_HAL/utility/utoa_invert.cpp Pages: 1 -->
<svg width="140pt" height="92pt"
 viewBox="0.00 0.00 139.58 92.00" xmlns="http://www.w3.org/2000/svg" xmlns:xlink="http://www.w3.org/1999/xlink">
<g id="graph0" class="graph" transform="scale(1 1) rotate(0) translate(4 88)">
<title>libraries/AP_HAL/utility/utoa_invert.cpp</title>
<polygon fill="white" stroke="none" points="-4,4 -4,-88 135.581,-88 135.581,4 -4,4"/>
<!-- Node1 -->
<g id="node1" class="node"><title>Node1</title>
<polygon fill="#bfbfbf" stroke="black" points="2.26855,-55.5 2.26855,-83.5 119.973,-83.5 119.973,-55.5 2.26855,-55.5"/>
<text text-anchor="start" x="10.2686" y="-71.5" font-family="Helvetica,sans-Serif" font-size="10.00">libraries/AP_HAL/utility</text>
<text text-anchor="middle" x="61.1206" y="-61.5" font-family="Helvetica,sans-Serif" font-size="10.00">/utoa_invert.cpp</text>
</g>
<!-- Node2 -->
<g id="node2" class="node"><title>Node2</title>
<polygon fill="white" stroke="#bfbfbf" points="0,-0.5 0,-18.5 48.2412,-18.5 48.2412,-0.5 0,-0.5"/>
<text text-anchor="middle" x="24.1206" y="-6.5" font-family="Helvetica,sans-Serif" font-size="10.00">stdint.h</text>
</g>
<!-- Node1&#45;&gt;Node2 -->
<g id="edge1" class="edge"><title>Node1&#45;&gt;Node2</title>
<path fill="none" stroke="midnightblue" d="M52.7247,-55.3389C47.4077,-47.0041 40.4844,-36.1514 34.7809,-27.2107"/>
<polygon fill="midnightblue" stroke="midnightblue" points="37.7262,-25.3197 29.3972,-18.7715 31.8247,-29.0845 37.7262,-25.3197"/>
</g>
<!-- Node3 -->
<g id="node3" class="node"><title>Node3</title>
<g id="a_node3"><a xlink:href="$xtoa__fast_8h.html" xlink:title="xtoa_fast.h">
<polygon fill="white" stroke="black" points="66.6602,-0.5 66.6602,-18.5 131.581,-18.5 131.581,-0.5 66.6602,-0.5"/>
<text text-anchor="middle" x="99.1206" y="-6.5" font-family="Helvetica,sans-Serif" font-size="10.00">xtoa_fast.h</text>
</a>
</g>
</g>
<!-- Node1&#45;&gt;Node3 -->
<g id="edge2" class="edge"><title>Node1&#45;&gt;Node3</title>
<path fill="none" stroke="midnightblue" d="M69.7434,-55.3389C75.2041,-47.0041 82.3145,-36.1514 88.1722,-27.2107"/>
<polygon fill="midnightblue" stroke="midnightblue" points="91.1487,-29.0542 93.7014,-18.7715 85.2934,-25.218 91.1487,-29.0542"/>
</g>
</g>
</svg>
