<?xml version="1.0" encoding="UTF-8" standalone="no"?>
<!DOCTYPE svg PUBLIC "-//W3C//DTD SVG 1.1//EN"
 "http://www.w3.org/Graphics/SVG/1.1/DTD/svg11.dtd">
<!-- Generated by graphviz version 2.38.0 (20140413.2041)
 -->
<!-- Title: libraries/AP_Math/vector3.h Pages: 1 -->
<svg width="183pt" height="82pt"
 viewBox="0.00 0.00 182.68 82.00" xmlns="http://www.w3.org/2000/svg" xmlns:xlink="http://www.w3.org/1999/xlink">
<g id="graph0" class="graph" transform="scale(1 1) rotate(0) translate(4 78)">
<title>libraries/AP_Math/vector3.h</title>
<polygon fill="white" stroke="none" points="-4,4 -4,-78 178.682,-78 178.682,4 -4,4"/>
<!-- Node1 -->
<g id="node1" class="node"><title>Node1</title>
<polygon fill="#bfbfbf" stroke="black" points="16.8696,-55.5 16.8696,-73.5 155.702,-73.5 155.702,-55.5 16.8696,-55.5"/>
<text text-anchor="middle" x="86.2856" y="-61.5" font-family="Helvetica,sans-Serif" font-size="10.00">libraries/AP_Math/vector3.h</text>
</g>
<!-- Node2 -->
<g id="node2" class="node"><title>Node2</title>
<polygon fill="white" stroke="#bfbfbf" points="0,-0.5 0,-18.5 46.5713,-18.5 46.5713,-0.5 0,-0.5"/>
<text text-anchor="middle" x="23.2856" y="-6.5" font-family="Helvetica,sans-Serif" font-size="10.00">math.h</text>
</g>
<!-- Node1&#45;&gt;Node2 -->
<g id="edge1" class="edge"><title>Node1&#45;&gt;Node2</title>
<path fill="none" stroke="midnightblue" d="M76.7173,-55.4504C67.1889,-47.4345 52.3453,-34.9471 40.7191,-25.1663"/>
<polygon fill="midnightblue" stroke="midnightblue" points="42.8495,-22.3847 32.944,-18.6253 38.3431,-27.7413 42.8495,-22.3847"/>
</g>
<!-- Node3 -->
<g id="node3" class="node"><title>Node3</title>
<polygon fill="white" stroke="#bfbfbf" points="64.665,-0.5 64.665,-18.5 107.906,-18.5 107.906,-0.5 64.665,-0.5"/>
<text text-anchor="middle" x="86.2856" y="-6.5" font-family="Helvetica,sans-Serif" font-size="10.00">float.h</text>
</g>
<!-- Node1&#45;&gt;Node3 -->
<g id="edge2" class="edge"><title>Node1&#45;&gt;Node3</title>
<path fill="none" stroke="midnightblue" d="M86.2856,-55.2188C86.2856,-48.1769 86.2856,-37.8083 86.2856,-28.8277"/>
<polygon fill="midnightblue" stroke="midnightblue" points="89.7857,-28.5495 86.2856,-18.5496 82.7857,-28.5496 89.7857,-28.5495"/>
</g>
<!-- Node4 -->
<g id="node4" class="node"><title>Node4</title>
<polygon fill="white" stroke="#bfbfbf" points="125.889,-0.5 125.889,-18.5 174.682,-18.5 174.682,-0.5 125.889,-0.5"/>
<text text-anchor="middle" x="150.286" y="-6.5" font-family="Helvetica,sans-Serif" font-size="10.00">string.h</text>
</g>
<!-- Node1&#45;&gt;Node4 -->
<g id="edge3" class="edge"><title>Node1&#45;&gt;Node4</title>
<path fill="none" stroke="midnightblue" d="M96.0059,-55.4504C105.686,-47.4345 120.765,-34.9471 132.575,-25.1663"/>
<polygon fill="midnightblue" stroke="midnightblue" points="135.004,-27.6992 140.474,-18.6253 130.54,-22.3078 135.004,-27.6992"/>
</g>
</g>
</svg>
