<?xml version="1.0" encoding="UTF-8" standalone="no"?>
<!DOCTYPE svg PUBLIC "-//W3C//DTD SVG 1.1//EN"
 "http://www.w3.org/Graphics/SVG/1.1/DTD/svg11.dtd">
<!-- Generated by graphviz version 2.38.0 (20140413.2041)
 -->
<!-- Title: loop Pages: 1 -->
<svg width="590pt" height="215pt"
 viewBox="0.00 0.00 589.54 215.00" xmlns="http://www.w3.org/2000/svg" xmlns:xlink="http://www.w3.org/1999/xlink">
<g id="graph0" class="graph" transform="scale(1 1) rotate(0) translate(4 211)">
<title>loop</title>
<polygon fill="white" stroke="none" points="-4,4 -4,-211 585.539,-211 585.539,4 -4,4"/>
<!-- Node1 -->
<g id="node1" class="node"><title>Node1</title>
<polygon fill="#bfbfbf" stroke="black" points="0,-99.5 0,-117.5 34.9062,-117.5 34.9062,-99.5 0,-99.5"/>
<text text-anchor="middle" x="17.4531" y="-105.5" font-family="Helvetica,sans-Serif" font-size="10.00">loop</text>
</g>
<!-- Node2 -->
<g id="node2" class="node"><title>Node2</title>
<g id="a_node2"><a xlink:href="$classAP__HAL_1_1Scheduler.html#acfe178fdca7f8d9b22a939b3aac1a84f" xlink:title="AP_HAL::Scheduler::\lmicros64">
<polygon fill="white" stroke="black" points="72.4688,-178.5 72.4688,-206.5 182.966,-206.5 182.966,-178.5 72.4688,-178.5"/>
<text text-anchor="start" x="80.4688" y="-194.5" font-family="Helvetica,sans-Serif" font-size="10.00">AP_HAL::Scheduler::</text>
<text text-anchor="middle" x="127.717" y="-184.5" font-family="Helvetica,sans-Serif" font-size="10.00">micros64</text>
</a>
</g>
</g>
<!-- Node1&#45;&gt;Node2 -->
<g id="edge1" class="edge"><title>Node1&#45;&gt;Node2</title>
<path fill="none" stroke="midnightblue" d="M24.1892,-117.543C32.8752,-130.6 50.5289,-154.775 70.9062,-169.5 72.9502,-170.977 75.103,-172.38 77.3261,-173.709"/>
<polygon fill="midnightblue" stroke="midnightblue" points="75.7042,-176.81 86.1679,-178.472 79.0244,-170.648 75.7042,-176.81"/>
</g>
<!-- Node3 -->
<g id="node3" class="node"><title>Node3</title>
<g id="a_node3"><a xlink:href="$VibTest_8cpp.html#af4d87c440401144eecd669ad5d31325a" xlink:title="DataFlash">
<polygon fill="white" stroke="black" points="96.9292,-141.5 96.9292,-159.5 158.505,-159.5 158.505,-141.5 96.9292,-141.5"/>
<text text-anchor="middle" x="127.717" y="-147.5" font-family="Helvetica,sans-Serif" font-size="10.00">DataFlash</text>
</a>
</g>
</g>
<!-- Node1&#45;&gt;Node3 -->
<g id="edge2" class="edge"><title>Node1&#45;&gt;Node3</title>
<path fill="none" stroke="midnightblue" d="M35.2459,-116.793C45.4345,-121.67 58.7711,-127.786 70.9062,-132.5 76.0664,-134.505 81.5524,-136.47 86.993,-138.322"/>
<polygon fill="midnightblue" stroke="midnightblue" points="86.0637,-141.701 96.6569,-141.517 88.2613,-135.055 86.0637,-141.701"/>
</g>
<!-- Node4 -->
<g id="node4" class="node"><title>Node4</title>
<g id="a_node4"><a xlink:href="$classAP__HAL_1_1UARTDriver.html#a65c7824b8877f7a2f79365c8ffae8f56" xlink:title="AP_HAL::UARTDriver\l::printf">
<polygon fill="white" stroke="black" points="70.9062,-94.5 70.9062,-122.5 184.528,-122.5 184.528,-94.5 70.9062,-94.5"/>
<text text-anchor="start" x="78.9062" y="-110.5" font-family="Helvetica,sans-Serif" font-size="10.00">AP_HAL::UARTDriver</text>
<text text-anchor="middle" x="127.717" y="-100.5" font-family="Helvetica,sans-Serif" font-size="10.00">::printf</text>
</a>
</g>
</g>
<!-- Node1&#45;&gt;Node4 -->
<g id="edge3" class="edge"><title>Node1&#45;&gt;Node4</title>
<path fill="none" stroke="midnightblue" d="M35.3694,-108.5C42.4446,-108.5 51.1639,-108.5 60.3811,-108.5"/>
<polygon fill="midnightblue" stroke="midnightblue" points="60.524,-112 70.524,-108.5 60.5239,-105 60.524,-112"/>
</g>
<!-- Node12 -->
<g id="node12" class="node"><title>Node12</title>
<g id="a_node12"><a xlink:href="$classAP__HAL_1_1Scheduler.html#a26b68339fc68a562d8d3a1238d0ec8c1" xlink:title="AP_HAL::Scheduler::\lmillis">
<polygon fill="white" stroke="black" points="72.4688,-47.5 72.4688,-75.5 182.966,-75.5 182.966,-47.5 72.4688,-47.5"/>
<text text-anchor="start" x="80.4688" y="-63.5" font-family="Helvetica,sans-Serif" font-size="10.00">AP_HAL::Scheduler::</text>
<text text-anchor="middle" x="127.717" y="-53.5" font-family="Helvetica,sans-Serif" font-size="10.00">millis</text>
</a>
</g>
</g>
<!-- Node1&#45;&gt;Node12 -->
<g id="edge11" class="edge"><title>Node1&#45;&gt;Node12</title>
<path fill="none" stroke="midnightblue" d="M34.9768,-101.219C45.2976,-96.6796 58.8671,-90.728 70.9062,-85.5 75.3293,-83.5793 79.9526,-81.5792 84.5635,-79.5892"/>
<polygon fill="midnightblue" stroke="midnightblue" points="86.144,-82.7194 93.9426,-75.5477 83.3738,-76.2908 86.144,-82.7194"/>
</g>
<!-- Node13 -->
<g id="node13" class="node"><title>Node13</title>
<g id="a_node13"><a xlink:href="$classAP__HAL_1_1Scheduler.html#a78c4f1b1f192ac1c99544b6cc8f099b0" xlink:title="AP_HAL::Scheduler::\ldelay_microseconds">
<polygon fill="white" stroke="black" points="72.4688,-0.5 72.4688,-28.5 182.966,-28.5 182.966,-0.5 72.4688,-0.5"/>
<text text-anchor="start" x="80.4688" y="-16.5" font-family="Helvetica,sans-Serif" font-size="10.00">AP_HAL::Scheduler::</text>
<text text-anchor="middle" x="127.717" y="-6.5" font-family="Helvetica,sans-Serif" font-size="10.00">delay_microseconds</text>
</a>
</g>
</g>
<!-- Node1&#45;&gt;Node13 -->
<g id="edge12" class="edge"><title>Node1&#45;&gt;Node13</title>
<path fill="none" stroke="midnightblue" d="M23.3565,-99.1049C31.4591,-84.3845 48.9511,-55.7843 70.9062,-38.5 73.1594,-36.7262 75.5634,-35.0585 78.0609,-33.4943"/>
<polygon fill="midnightblue" stroke="midnightblue" points="79.8226,-36.5192 86.8287,-28.5715 76.3955,-30.4155 79.8226,-36.5192"/>
</g>
<!-- Node5 -->
<g id="node5" class="node"><title>Node5</title>
<g id="a_node5"><a xlink:href="$classAP__HAL_1_1UARTDriver.html#aa8abfb6d6641299472c29ac1edde559f" xlink:title="AP_HAL::UARTDriver\l::vprintf">
<polygon fill="white" stroke="black" points="220.528,-94.5 220.528,-122.5 334.15,-122.5 334.15,-94.5 220.528,-94.5"/>
<text text-anchor="start" x="228.528" y="-110.5" font-family="Helvetica,sans-Serif" font-size="10.00">AP_HAL::UARTDriver</text>
<text text-anchor="middle" x="277.339" y="-100.5" font-family="Helvetica,sans-Serif" font-size="10.00">::vprintf</text>
</a>
</g>
</g>
<!-- Node4&#45;&gt;Node5 -->
<g id="edge4" class="edge"><title>Node4&#45;&gt;Node5</title>
<path fill="none" stroke="midnightblue" d="M184.948,-108.5C193.174,-108.5 201.709,-108.5 210.111,-108.5"/>
<polygon fill="midnightblue" stroke="midnightblue" points="210.265,-112 220.265,-108.5 210.265,-105 210.265,-112"/>
</g>
<!-- Node6 -->
<g id="node6" class="node"><title>Node6</title>
<g id="a_node6"><a xlink:href="$print__vprintf_8cpp.html#a473b9349f4b086b552a21eb8fe057016" xlink:title="print_vprintf">
<polygon fill="white" stroke="black" points="370.15,-99.5 370.15,-117.5 438.396,-117.5 438.396,-99.5 370.15,-99.5"/>
<text text-anchor="middle" x="404.273" y="-105.5" font-family="Helvetica,sans-Serif" font-size="10.00">print_vprintf</text>
</a>
</g>
</g>
<!-- Node5&#45;&gt;Node6 -->
<g id="edge5" class="edge"><title>Node5&#45;&gt;Node6</title>
<path fill="none" stroke="midnightblue" d="M334.229,-108.5C342.817,-108.5 351.573,-108.5 359.837,-108.5"/>
<polygon fill="midnightblue" stroke="midnightblue" points="359.993,-112 369.993,-108.5 359.993,-105 359.993,-112"/>
</g>
<!-- Node7 -->
<g id="node7" class="node"><title>Node7</title>
<g id="a_node7"><a xlink:href="$classAP__HAL_1_1Print.html#acc65391952a43334f8f5c9bef341f501" xlink:title="AP_HAL::Print::write">
<polygon fill="white" stroke="black" points="474.396,-173.5 474.396,-191.5 581.539,-191.5 581.539,-173.5 474.396,-173.5"/>
<text text-anchor="middle" x="527.968" y="-179.5" font-family="Helvetica,sans-Serif" font-size="10.00">AP_HAL::Print::write</text>
</a>
</g>
</g>
<!-- Node6&#45;&gt;Node7 -->
<g id="edge6" class="edge"><title>Node6&#45;&gt;Node7</title>
<path fill="none" stroke="midnightblue" d="M414.337,-117.633C426.86,-129.806 450.612,-151.34 474.396,-164.5 477.859,-166.416 481.561,-168.18 485.337,-169.791"/>
<polygon fill="midnightblue" stroke="midnightblue" points="484.195,-173.103 494.783,-173.483 486.744,-166.583 484.195,-173.103"/>
</g>
<!-- Node8 -->
<g id="node8" class="node"><title>Node8</title>
<g id="a_node8"><a xlink:href="$ftoa__engine_8cpp.html#a1c28234da8f20b43c85890d4bb452947" xlink:title="ftoa_engine">
<polygon fill="white" stroke="black" points="493.833,-136.5 493.833,-154.5 562.103,-154.5 562.103,-136.5 493.833,-136.5"/>
<text text-anchor="middle" x="527.968" y="-142.5" font-family="Helvetica,sans-Serif" font-size="10.00">ftoa_engine</text>
</a>
</g>
</g>
<!-- Node6&#45;&gt;Node8 -->
<g id="edge7" class="edge"><title>Node6&#45;&gt;Node8</title>
<path fill="none" stroke="midnightblue" d="M435.043,-117.551C450.807,-122.344 470.376,-128.294 487.401,-133.47"/>
<polygon fill="midnightblue" stroke="midnightblue" points="486.498,-136.854 497.084,-136.414 488.534,-130.156 486.498,-136.854"/>
</g>
<!-- Node9 -->
<g id="node9" class="node"><title>Node9</title>
<g id="a_node9"><a xlink:href="$AP__Progmem_8h.html#a1514e0408e036062b4af844baaf567da" xlink:title="pgm_read_byte">
<polygon fill="white" stroke="black" points="485.222,-99.5 485.222,-117.5 570.714,-117.5 570.714,-99.5 485.222,-99.5"/>
<text text-anchor="middle" x="527.968" y="-105.5" font-family="Helvetica,sans-Serif" font-size="10.00">pgm_read_byte</text>
</a>
</g>
</g>
<!-- Node6&#45;&gt;Node9 -->
<g id="edge8" class="edge"><title>Node6&#45;&gt;Node9</title>
<path fill="none" stroke="midnightblue" d="M438.527,-108.5C449.743,-108.5 462.546,-108.5 474.861,-108.5"/>
<polygon fill="midnightblue" stroke="midnightblue" points="475.045,-112 485.045,-108.5 475.045,-105 475.045,-112"/>
</g>
<!-- Node10 -->
<g id="node10" class="node"><title>Node10</title>
<g id="a_node10"><a xlink:href="$utoa__invert_8cpp.html#a34926f552460b47c414ec4d83b32815c" xlink:title="ulltoa_invert">
<polygon fill="white" stroke="black" points="493.007,-62.5 493.007,-80.5 562.928,-80.5 562.928,-62.5 493.007,-62.5"/>
<text text-anchor="middle" x="527.968" y="-68.5" font-family="Helvetica,sans-Serif" font-size="10.00">ulltoa_invert</text>
</a>
</g>
</g>
<!-- Node6&#45;&gt;Node10 -->
<g id="edge9" class="edge"><title>Node6&#45;&gt;Node10</title>
<path fill="none" stroke="midnightblue" d="M435.043,-99.4488C450.807,-94.6558 470.376,-88.7062 487.401,-83.5298"/>
<polygon fill="midnightblue" stroke="midnightblue" points="488.534,-86.8437 497.084,-80.586 486.498,-80.1464 488.534,-86.8437"/>
</g>
<!-- Node11 -->
<g id="node11" class="node"><title>Node11</title>
<g id="a_node11"><a xlink:href="$utoa__invert_8cpp.html#a5d99bba8e697c1e11da489d88fca8559" xlink:title="ultoa_invert">
<polygon fill="white" stroke="black" points="494.118,-25.5 494.118,-43.5 561.817,-43.5 561.817,-25.5 494.118,-25.5"/>
<text text-anchor="middle" x="527.968" y="-31.5" font-family="Helvetica,sans-Serif" font-size="10.00">ultoa_invert</text>
</a>
</g>
</g>
<!-- Node6&#45;&gt;Node11 -->
<g id="edge10" class="edge"><title>Node6&#45;&gt;Node11</title>
<path fill="none" stroke="midnightblue" d="M414.836,-99.1918C427.54,-87.2457 451.101,-66.514 474.396,-53.5 478.413,-51.2563 482.745,-49.192 487.137,-47.3176"/>
<polygon fill="midnightblue" stroke="midnightblue" points="488.735,-50.4496 496.751,-43.5217 486.164,-43.9387 488.735,-50.4496"/>
</g>
</g>
</svg>
