<?xml version="1.0" encoding="UTF-8" standalone="no"?>
<!DOCTYPE svg PUBLIC "-//W3C//DTD SVG 1.1//EN"
 "http://www.w3.org/Graphics/SVG/1.1/DTD/svg11.dtd">
<!-- Generated by graphviz version 2.38.0 (20140413.2041)
 -->
<!-- Title: DataFlash Pages: 1 -->
<svg width="146pt" height="64pt"
 viewBox="0.00 0.00 146.04 64.00" xmlns="http://www.w3.org/2000/svg" xmlns:xlink="http://www.w3.org/1999/xlink">
<g id="graph0" class="graph" transform="scale(1 1) rotate(0) translate(4 60)">
<title>DataFlash</title>
<polygon fill="white" stroke="none" points="-4,4 -4,-60 142.039,-60 142.039,4 -4,4"/>
<!-- Node1 -->
<g id="node1" class="node"><title>Node1</title>
<polygon fill="#bfbfbf" stroke="black" points="0,-18.5 0,-36.5 61.5762,-36.5 61.5762,-18.5 0,-18.5"/>
<text text-anchor="middle" x="30.7881" y="-24.5" font-family="Helvetica,sans-Serif" font-size="10.00">DataFlash</text>
</g>
<!-- Node2 -->
<g id="node2" class="node"><title>Node2</title>
<g id="a_node2"><a xlink:href="$VibTest_8cpp.html#a0b33edabd7f1c4e4a0bf32c67269be2f" xlink:title="loop">
<polygon fill="white" stroke="black" points="100.354,-37.5 100.354,-55.5 135.261,-55.5 135.261,-37.5 100.354,-37.5"/>
<text text-anchor="middle" x="117.808" y="-43.5" font-family="Helvetica,sans-Serif" font-size="10.00">loop</text>
</a>
</g>
</g>
<!-- Node1&#45;&gt;Node2 -->
<g id="edge1" class="edge"><title>Node1&#45;&gt;Node2</title>
<path fill="none" stroke="midnightblue" d="M71.819,-36.446C81.7778,-38.6716 91.9187,-40.9379 100.045,-42.754"/>
<polygon fill="midnightblue" stroke="midnightblue" points="72.5248,-33.0175 62.0022,-34.2522 70.9981,-39.849 72.5248,-33.0175"/>
</g>
<!-- Node3 -->
<g id="node3" class="node"><title>Node3</title>
<g id="a_node3"><a xlink:href="$VibTest_8cpp.html#a7dfd9b79bc5a37d7df40207afbc5431f" xlink:title="setup">
<polygon fill="white" stroke="black" points="97.5762,-0.5 97.5762,-18.5 138.039,-18.5 138.039,-0.5 97.5762,-0.5"/>
<text text-anchor="middle" x="117.808" y="-6.5" font-family="Helvetica,sans-Serif" font-size="10.00">setup</text>
</a>
</g>
</g>
<!-- Node1&#45;&gt;Node3 -->
<g id="edge2" class="edge"><title>Node1&#45;&gt;Node3</title>
<path fill="none" stroke="midnightblue" d="M71.9398,-18.9992C80.8687,-17.1088 89.9368,-15.189 97.5619,-13.5746"/>
<polygon fill="midnightblue" stroke="midnightblue" points="71.0604,-15.6078 62.0022,-21.1032 72.5103,-22.456 71.0604,-15.6078"/>
</g>
</g>
</svg>
