<?xml version="1.0" encoding="UTF-8" standalone="no"?>
<!DOCTYPE svg PUBLIC "-//W3C//DTD SVG 1.1//EN"
 "http://www.w3.org/Graphics/SVG/1.1/DTD/svg11.dtd">
<!-- Generated by graphviz version 2.38.0 (20140413.2041)
 -->
<!-- Title: libraries/AP_HAL_VRBRAIN/RCInput.h Pages: 1 -->
<svg width="1376pt" height="642pt"
 viewBox="0.00 0.00 1375.92 642.00" xmlns="http://www.w3.org/2000/svg" xmlns:xlink="http://www.w3.org/1999/xlink">
<g id="graph0" class="graph" transform="scale(1 1) rotate(0) translate(4 638)">
<title>libraries/AP_HAL_VRBRAIN/RCInput.h</title>
<polygon fill="white" stroke="none" points="-4,4 -4,-638 1371.92,-638 1371.92,4 -4,4"/>
<!-- Node1 -->
<g id="node1" class="node"><title>Node1</title>
<polygon fill="#bfbfbf" stroke="black" points="697.323,-605.5 697.323,-633.5 839.48,-633.5 839.48,-605.5 697.323,-605.5"/>
<text text-anchor="start" x="705.323" y="-621.5" font-family="Helvetica,sans-Serif" font-size="10.00">libraries/AP_HAL_VRBRAIN</text>
<text text-anchor="middle" x="768.401" y="-611.5" font-family="Helvetica,sans-Serif" font-size="10.00">/RCInput.h</text>
</g>
<!-- Node2 -->
<g id="node2" class="node"><title>Node2</title>
<g id="a_node2"><a xlink:href="$AP__HAL__VRBRAIN_8h.html" xlink:title="AP_HAL_VRBRAIN.h">
<polygon fill="white" stroke="black" points="564.047,-550.5 564.047,-568.5 676.756,-568.5 676.756,-550.5 564.047,-550.5"/>
<text text-anchor="middle" x="620.401" y="-556.5" font-family="Helvetica,sans-Serif" font-size="10.00">AP_HAL_VRBRAIN.h</text>
</a>
</g>
</g>
<!-- Node1&#45;&gt;Node2 -->
<g id="edge1" class="edge"><title>Node1&#45;&gt;Node2</title>
<path fill="none" stroke="midnightblue" d="M735.187,-605.484C709.869,-595.562 675.288,-582.01 650.717,-572.38"/>
<polygon fill="midnightblue" stroke="midnightblue" points="651.769,-569.034 641.181,-568.643 649.215,-575.551 651.769,-569.034"/>
</g>
<!-- Node34 -->
<g id="node34" class="node"><title>Node34</title>
<polygon fill="white" stroke="#bfbfbf" points="694.205,-440.5 694.205,-458.5 818.598,-458.5 818.598,-440.5 694.205,-440.5"/>
<text text-anchor="middle" x="756.401" y="-446.5" font-family="Helvetica,sans-Serif" font-size="10.00">systemlib/perf_counter.h</text>
</g>
<!-- Node1&#45;&gt;Node34 -->
<g id="edge76" class="edge"><title>Node1&#45;&gt;Node34</title>
<path fill="none" stroke="midnightblue" d="M760.277,-605.2C754.874,-595.544 748.264,-581.954 745.401,-569 737.662,-533.978 745.477,-491.964 751.31,-468.545"/>
<polygon fill="midnightblue" stroke="midnightblue" points="754.753,-469.217 753.937,-458.654 747.987,-467.42 754.753,-469.217"/>
</g>
<!-- Node35 -->
<g id="node35" class="node"><title>Node35</title>
<polygon fill="white" stroke="#bfbfbf" points="754.325,-550.5 754.325,-568.5 866.478,-568.5 866.478,-550.5 754.325,-550.5"/>
<text text-anchor="middle" x="810.401" y="-556.5" font-family="Helvetica,sans-Serif" font-size="10.00">drivers/drv_rc_input.h</text>
</g>
<!-- Node1&#45;&gt;Node35 -->
<g id="edge75" class="edge"><title>Node1&#45;&gt;Node35</title>
<path fill="none" stroke="midnightblue" d="M777.932,-605.339C784.031,-596.916 791.992,-585.923 798.504,-576.929"/>
<polygon fill="midnightblue" stroke="midnightblue" points="801.381,-578.924 804.412,-568.771 795.712,-574.818 801.381,-578.924"/>
</g>
<!-- Node36 -->
<g id="node36" class="node"><title>Node36</title>
<polygon fill="white" stroke="#bfbfbf" points="884.273,-550.5 884.273,-568.5 942.529,-568.5 942.529,-550.5 884.273,-550.5"/>
<text text-anchor="middle" x="913.401" y="-556.5" font-family="Helvetica,sans-Serif" font-size="10.00">pthread.h</text>
</g>
<!-- Node1&#45;&gt;Node36 -->
<g id="edge77" class="edge"><title>Node1&#45;&gt;Node36</title>
<path fill="none" stroke="midnightblue" d="M800.942,-605.484C825.747,-595.562 859.627,-582.01 883.7,-572.38"/>
<polygon fill="midnightblue" stroke="midnightblue" points="885.058,-575.607 893.043,-568.643 882.458,-569.108 885.058,-575.607"/>
</g>
<!-- Node3 -->
<g id="node3" class="node"><title>Node3</title>
<g id="a_node3"><a xlink:href="$AP__HAL_8h.html" xlink:title="AP_HAL/AP_HAL.h">
<polygon fill="white" stroke="black" points="572.488,-440.5 572.488,-458.5 676.315,-458.5 676.315,-440.5 572.488,-440.5"/>
<text text-anchor="middle" x="624.401" y="-446.5" font-family="Helvetica,sans-Serif" font-size="10.00">AP_HAL/AP_HAL.h</text>
</a>
</g>
</g>
<!-- Node2&#45;&gt;Node3 -->
<g id="edge2" class="edge"><title>Node2&#45;&gt;Node3</title>
<path fill="none" stroke="midnightblue" d="M624.119,-550.178C627.825,-541.392 633.264,-527.033 635.401,-514 637.922,-498.629 634.448,-481.196 630.754,-468.49"/>
<polygon fill="midnightblue" stroke="midnightblue" points="634,-467.152 627.596,-458.712 627.339,-469.304 634,-467.152"/>
</g>
<!-- Node31 -->
<g id="node31" class="node"><title>Node31</title>
<g id="a_node31"><a xlink:href="$HAL__VRBRAIN__Class_8h.html" xlink:title="HAL_VRBRAIN_Class.h">
<polygon fill="white" stroke="black" points="502.214,-495.5 502.214,-513.5 626.588,-513.5 626.588,-495.5 502.214,-495.5"/>
<text text-anchor="middle" x="564.401" y="-501.5" font-family="Helvetica,sans-Serif" font-size="10.00">HAL_VRBRAIN_Class.h</text>
</a>
</g>
</g>
<!-- Node2&#45;&gt;Node31 -->
<g id="edge69" class="edge"><title>Node2&#45;&gt;Node31</title>
<path fill="none" stroke="midnightblue" d="M606.887,-550.45C596.956,-542.746 584.041,-530.91 574.877,-521.318"/>
<polygon fill="midnightblue" stroke="midnightblue" points="577.249,-518.72 567.96,-513.625 572.044,-523.401 577.249,-518.72"/>
</g>
<!-- Node4 -->
<g id="node4" class="node"><title>Node4</title>
<polygon fill="white" stroke="#bfbfbf" points="766.281,-110.5 766.281,-128.5 814.522,-128.5 814.522,-110.5 766.281,-110.5"/>
<text text-anchor="middle" x="790.401" y="-116.5" font-family="Helvetica,sans-Serif" font-size="10.00">stdint.h</text>
</g>
<!-- Node3&#45;&gt;Node4 -->
<g id="edge3" class="edge"><title>Node3&#45;&gt;Node4</title>
<path fill="none" stroke="midnightblue" d="M644.238,-440.374C659.902,-433.018 681.241,-420.765 694.401,-404 760.503,-319.792 782.386,-187.519 788.411,-139.074"/>
<polygon fill="midnightblue" stroke="midnightblue" points="791.918,-139.211 789.594,-128.874 784.965,-138.404 791.918,-139.211"/>
</g>
<!-- Node5 -->
<g id="node5" class="node"><title>Node5</title>
<polygon fill="white" stroke="#bfbfbf" points="426.108,-110.5 426.108,-128.5 482.694,-128.5 482.694,-110.5 426.108,-110.5"/>
<text text-anchor="middle" x="454.401" y="-116.5" font-family="Helvetica,sans-Serif" font-size="10.00">stdbool.h</text>
</g>
<!-- Node3&#45;&gt;Node5 -->
<g id="edge4" class="edge"><title>Node3&#45;&gt;Node5</title>
<path fill="none" stroke="midnightblue" d="M572.033,-441.209C516.405,-430.168 436.401,-403.361 436.401,-340.5 436.401,-340.5 436.401,-340.5 436.401,-228.5 436.401,-196.436 444.217,-159.736 449.548,-138.431"/>
<polygon fill="midnightblue" stroke="midnightblue" points="452.987,-139.112 452.122,-128.552 446.213,-137.347 452.987,-139.112"/>
</g>
<!-- Node6 -->
<g id="node6" class="node"><title>Node6</title>
<g id="a_node6"><a xlink:href="$AP__HAL__Namespace_8h.html" xlink:title="AP_HAL_Namespace.h">
<polygon fill="white" stroke="black" points="449.594,-55.5 449.594,-73.5 571.209,-73.5 571.209,-55.5 449.594,-55.5"/>
<text text-anchor="middle" x="510.401" y="-61.5" font-family="Helvetica,sans-Serif" font-size="10.00">AP_HAL_Namespace.h</text>
</a>
</g>
</g>
<!-- Node3&#45;&gt;Node6 -->
<g id="edge5" class="edge"><title>Node3&#45;&gt;Node6</title>
<path fill="none" stroke="midnightblue" d="M676.619,-441.013C679.588,-440.653 682.531,-440.312 685.401,-440 889.27,-417.839 949.192,-463.629 1145.4,-404 1200.52,-387.249 1258.4,-398.109 1258.4,-340.5 1258.4,-340.5 1258.4,-340.5 1258.4,-173.5 1258.4,-125.27 1215.77,-126.366 1170.4,-110 1063.78,-71.5401 729.202,-65.9331 581.584,-65.3817"/>
<polygon fill="midnightblue" stroke="midnightblue" points="581.295,-61.8809 571.284,-65.3504 581.273,-68.8809 581.295,-61.8809"/>
</g>
<!-- Node9 -->
<g id="node9" class="node"><title>Node9</title>
<g id="a_node9"><a xlink:href="$AP__HAL__Boards_8h.html" xlink:title="AP_HAL_Boards.h">
<polygon fill="white" stroke="black" points="970.431,-165.5 970.431,-183.5 1070.37,-183.5 1070.37,-165.5 970.431,-165.5"/>
<text text-anchor="middle" x="1020.4" y="-171.5" font-family="Helvetica,sans-Serif" font-size="10.00">AP_HAL_Boards.h</text>
</a>
</g>
</g>
<!-- Node3&#45;&gt;Node9 -->
<g id="edge8" class="edge"><title>Node3&#45;&gt;Node9</title>
<path fill="none" stroke="midnightblue" d="M666.762,-440.488C778.091,-419.144 1070.4,-361.139 1070.4,-340.5 1070.4,-340.5 1070.4,-340.5 1070.4,-283.5 1070.4,-248.202 1048.14,-211.919 1033.32,-191.685"/>
<polygon fill="midnightblue" stroke="midnightblue" points="1035.99,-189.413 1027.14,-183.579 1030.42,-193.655 1035.99,-189.413"/>
</g>
<!-- Node10 -->
<g id="node10" class="node"><title>Node10</title>
<g id="a_node10"><a xlink:href="$AP__HAL__Macros_8h.html" xlink:title="AP_HAL_Macros.h">
<polygon fill="white" stroke="black" points="229.882,-385.5 229.882,-403.5 330.921,-403.5 330.921,-385.5 229.882,-385.5"/>
<text text-anchor="middle" x="280.401" y="-391.5" font-family="Helvetica,sans-Serif" font-size="10.00">AP_HAL_Macros.h</text>
</a>
</g>
</g>
<!-- Node3&#45;&gt;Node10 -->
<g id="edge9" class="edge"><title>Node3&#45;&gt;Node10</title>
<path fill="none" stroke="midnightblue" d="M572.155,-440.45C510.158,-430.898 406.95,-414.997 341.364,-404.892"/>
<polygon fill="midnightblue" stroke="midnightblue" points="341.589,-401.386 331.173,-403.322 340.523,-408.304 341.589,-401.386"/>
</g>
<!-- Node11 -->
<g id="node11" class="node"><title>Node11</title>
<g id="a_node11"><a xlink:href="$AP__HAL__Main_8h.html" xlink:title="AP_HAL_Main.h">
<polygon fill="white" stroke="black" points="579.436,-385.5 579.436,-403.5 669.367,-403.5 669.367,-385.5 579.436,-385.5"/>
<text text-anchor="middle" x="624.401" y="-391.5" font-family="Helvetica,sans-Serif" font-size="10.00">AP_HAL_Main.h</text>
</a>
</g>
</g>
<!-- Node3&#45;&gt;Node11 -->
<g id="edge10" class="edge"><title>Node3&#45;&gt;Node11</title>
<path fill="none" stroke="midnightblue" d="M624.401,-440.219C624.401,-433.177 624.401,-422.808 624.401,-413.828"/>
<polygon fill="midnightblue" stroke="midnightblue" points="627.901,-413.55 624.401,-403.55 620.901,-413.55 627.901,-413.55"/>
</g>
<!-- Node12 -->
<g id="node12" class="node"><title>Node12</title>
<g id="a_node12"><a xlink:href="$HAL_8h.html" xlink:title="HAL.h">
<polygon fill="white" stroke="black" points="568.505,-330.5 568.505,-348.5 612.298,-348.5 612.298,-330.5 568.505,-330.5"/>
<text text-anchor="middle" x="590.401" y="-336.5" font-family="Helvetica,sans-Serif" font-size="10.00">HAL.h</text>
</a>
</g>
</g>
<!-- Node3&#45;&gt;Node12 -->
<g id="edge68" class="edge"><title>Node3&#45;&gt;Node12</title>
<path fill="none" stroke="midnightblue" d="M608.292,-440.407C595.379,-432.926 578.176,-420.481 570.401,-404 563.18,-388.691 570.766,-370.115 578.582,-357.022"/>
<polygon fill="midnightblue" stroke="midnightblue" points="581.558,-358.865 584.104,-348.581 575.7,-355.033 581.558,-358.865"/>
</g>
<!-- Node13 -->
<g id="node13" class="node"><title>Node13</title>
<g id="a_node13"><a xlink:href="$AnalogIn_8h.html" xlink:title="AnalogIn.h">
<polygon fill="white" stroke="black" points="71.4927,-220.5 71.4927,-238.5 135.31,-238.5 135.31,-220.5 71.4927,-220.5"/>
<text text-anchor="middle" x="103.401" y="-226.5" font-family="Helvetica,sans-Serif" font-size="10.00">AnalogIn.h</text>
</a>
</g>
</g>
<!-- Node3&#45;&gt;Node13 -->
<g id="edge50" class="edge"><title>Node3&#45;&gt;Node13</title>
<path fill="none" stroke="midnightblue" d="M572.18,-441.042C569.212,-440.675 566.27,-440.324 563.401,-440 517.52,-434.812 184.741,-433.717 149.401,-404 102.915,-364.91 100.549,-284.772 102.068,-248.749"/>
<polygon fill="midnightblue" stroke="midnightblue" points="105.565,-248.896 102.646,-238.711 98.5767,-248.493 105.565,-248.896"/>
</g>
<!-- Node15 -->
<g id="node15" class="node"><title>Node15</title>
<g id="a_node15"><a xlink:href="$GPIO_8h.html" xlink:title="GPIO.h">
<polygon fill="white" stroke="black" points="502.729,-220.5 502.729,-238.5 552.074,-238.5 552.074,-220.5 502.729,-220.5"/>
<text text-anchor="middle" x="527.401" y="-226.5" font-family="Helvetica,sans-Serif" font-size="10.00">GPIO.h</text>
</a>
</g>
</g>
<!-- Node3&#45;&gt;Node15 -->
<g id="edge52" class="edge"><title>Node3&#45;&gt;Node15</title>
<path fill="none" stroke="midnightblue" d="M607.745,-440.496C593.964,-432.995 574.992,-420.472 564.401,-404 532.517,-354.407 527.628,-281.968 527.19,-248.58"/>
<polygon fill="midnightblue" stroke="midnightblue" points="530.69,-248.499 527.184,-238.501 523.69,-248.503 530.69,-248.499"/>
</g>
<!-- Node16 -->
<g id="node16" class="node"><title>Node16</title>
<g id="a_node16"><a xlink:href="$RCInput_8h.html" xlink:title="RCInput.h">
<polygon fill="white" stroke="black" points="346.889,-275.5 346.889,-293.5 407.914,-293.5 407.914,-275.5 346.889,-275.5"/>
<text text-anchor="middle" x="377.401" y="-281.5" font-family="Helvetica,sans-Serif" font-size="10.00">RCInput.h</text>
</a>
</g>
</g>
<!-- Node3&#45;&gt;Node16 -->
<g id="edge53" class="edge"><title>Node3&#45;&gt;Node16</title>
<path fill="none" stroke="midnightblue" d="M576.714,-440.445C520.751,-430.615 434.054,-414.063 422.401,-404 392.37,-378.064 382.319,-329.874 379.001,-303.647"/>
<polygon fill="midnightblue" stroke="midnightblue" points="382.469,-303.162 377.927,-293.59 375.508,-303.905 382.469,-303.162"/>
</g>
<!-- Node17 -->
<g id="node17" class="node"><title>Node17</title>
<g id="a_node17"><a xlink:href="$RCOutput_8h.html" xlink:title="RCOutput.h">
<polygon fill="white" stroke="black" points="771,-275.5 771,-293.5 839.803,-293.5 839.803,-275.5 771,-275.5"/>
<text text-anchor="middle" x="805.401" y="-281.5" font-family="Helvetica,sans-Serif" font-size="10.00">RCOutput.h</text>
</a>
</g>
</g>
<!-- Node3&#45;&gt;Node17 -->
<g id="edge54" class="edge"><title>Node3&#45;&gt;Node17</title>
<path fill="none" stroke="midnightblue" d="M676.47,-441.7C703.509,-435.764 735.401,-424.677 757.401,-404 786.425,-376.722 798.344,-329.461 802.878,-303.635"/>
<polygon fill="midnightblue" stroke="midnightblue" points="806.342,-304.134 804.436,-293.712 799.427,-303.047 806.342,-304.134"/>
</g>
<!-- Node18 -->
<g id="node18" class="node"><title>Node18</title>
<g id="a_node18"><a xlink:href="$SPIDriver_8h.html" xlink:title="SPIDriver.h">
<polygon fill="white" stroke="black" points="1136.11,-275.5 1136.11,-293.5 1202.69,-293.5 1202.69,-275.5 1136.11,-275.5"/>
<text text-anchor="middle" x="1169.4" y="-281.5" font-family="Helvetica,sans-Serif" font-size="10.00">SPIDriver.h</text>
</a>
</g>
</g>
<!-- Node3&#45;&gt;Node18 -->
<g id="edge49" class="edge"><title>Node3&#45;&gt;Node18</title>
<path fill="none" stroke="midnightblue" d="M676.621,-441.027C679.589,-440.663 682.532,-440.318 685.401,-440 782.249,-429.272 1044.11,-462.011 1122.4,-404 1154.62,-380.126 1164.78,-330.686 1167.96,-303.829"/>
<polygon fill="midnightblue" stroke="midnightblue" points="1171.48,-303.838 1168.96,-293.545 1164.51,-303.158 1171.48,-303.838"/>
</g>
<!-- Node19 -->
<g id="node19" class="node"><title>Node19</title>
<g id="a_node19"><a xlink:href="$Storage_8h.html" xlink:title="Storage.h">
<polygon fill="white" stroke="black" points="857.719,-275.5 857.719,-293.5 917.083,-293.5 917.083,-275.5 857.719,-275.5"/>
<text text-anchor="middle" x="887.401" y="-281.5" font-family="Helvetica,sans-Serif" font-size="10.00">Storage.h</text>
</a>
</g>
</g>
<!-- Node3&#45;&gt;Node19 -->
<g id="edge51" class="edge"><title>Node3&#45;&gt;Node19</title>
<path fill="none" stroke="midnightblue" d="M676.531,-440.942C708.081,-434.631 748.124,-423.42 779.401,-404 822.807,-377.049 859.49,-327.827 876.777,-302.125"/>
<polygon fill="midnightblue" stroke="midnightblue" points="879.863,-303.802 882.426,-293.522 874.012,-299.96 879.863,-303.802"/>
</g>
<!-- Node20 -->
<g id="node20" class="node"><title>Node20</title>
<g id="a_node20"><a xlink:href="$UARTDriver_8h.html" xlink:title="UARTDriver.h">
<polygon fill="white" stroke="black" points="579.649,-275.5 579.649,-293.5 657.153,-293.5 657.153,-275.5 579.649,-275.5"/>
<text text-anchor="middle" x="618.401" y="-281.5" font-family="Helvetica,sans-Serif" font-size="10.00">UARTDriver.h</text>
</a>
</g>
</g>
<!-- Node3&#45;&gt;Node20 -->
<g id="edge45" class="edge"><title>Node3&#45;&gt;Node20</title>
<path fill="none" stroke="midnightblue" d="M640.51,-440.407C653.424,-432.926 670.627,-420.481 678.401,-404 682.004,-396.363 680.664,-393.136 678.401,-385 669.388,-352.6 646.668,-320.201 631.916,-301.543"/>
<polygon fill="midnightblue" stroke="midnightblue" points="634.436,-299.094 625.409,-293.547 629.006,-303.513 634.436,-299.094"/>
</g>
<!-- Node23 -->
<g id="node23" class="node"><title>Node23</title>
<g id="a_node23"><a xlink:href="$BetterStream_8h.html" xlink:title="utility/BetterStream.h">
<polygon fill="white" stroke="black" points="247.995,-220.5 247.995,-238.5 356.808,-238.5 356.808,-220.5 247.995,-220.5"/>
<text text-anchor="middle" x="302.401" y="-226.5" font-family="Helvetica,sans-Serif" font-size="10.00">utility/BetterStream.h</text>
</a>
</g>
</g>
<!-- Node3&#45;&gt;Node23 -->
<g id="edge67" class="edge"><title>Node3&#45;&gt;Node23</title>
<path fill="none" stroke="midnightblue" d="M573.605,-440.492C512.741,-430.553 417.192,-413.732 403.401,-404 347.898,-364.832 318.365,-284.735 307.429,-248.735"/>
<polygon fill="midnightblue" stroke="midnightblue" points="310.668,-247.336 304.523,-238.705 303.944,-249.284 310.668,-247.336"/>
</g>
<!-- Node25 -->
<g id="node25" class="node"><title>Node25</title>
<g id="a_node25"><a xlink:href="$Stream_8h.html" xlink:title="Stream.h">
<polygon fill="white" stroke="black" points="130.116,-165.5 130.116,-183.5 186.687,-183.5 186.687,-165.5 130.116,-165.5"/>
<text text-anchor="middle" x="158.401" y="-171.5" font-family="Helvetica,sans-Serif" font-size="10.00">Stream.h</text>
</a>
</g>
</g>
<!-- Node3&#45;&gt;Node25 -->
<g id="edge66" class="edge"><title>Node3&#45;&gt;Node25</title>
<path fill="none" stroke="midnightblue" d="M572.175,-441.087C569.208,-440.708 566.268,-440.343 563.401,-440 483.572,-430.45 271.768,-446.309 203.401,-404 175.038,-386.448 163.401,-373.855 163.401,-340.5 163.401,-340.5 163.401,-340.5 163.401,-283.5 163.401,-251.984 161.25,-215.35 159.77,-193.869"/>
<polygon fill="midnightblue" stroke="midnightblue" points="163.242,-193.347 159.035,-183.623 156.26,-193.848 163.242,-193.347"/>
</g>
<!-- Node26 -->
<g id="node26" class="node"><title>Node26</title>
<g id="a_node26"><a xlink:href="$Print_8h.html" xlink:title="Print.h">
<polygon fill="white" stroke="black" points="31.9507,-110.5 31.9507,-128.5 76.8521,-128.5 76.8521,-110.5 31.9507,-110.5"/>
<text text-anchor="middle" x="54.4014" y="-116.5" font-family="Helvetica,sans-Serif" font-size="10.00">Print.h</text>
</a>
</g>
</g>
<!-- Node3&#45;&gt;Node26 -->
<g id="edge65" class="edge"><title>Node3&#45;&gt;Node26</title>
<path fill="none" stroke="midnightblue" d="M572.182,-441.029C569.213,-440.665 566.271,-440.319 563.401,-440 467.217,-429.318 219.994,-438.036 129.401,-404 84.9244,-387.29 43.4014,-388.012 43.4014,-340.5 43.4014,-340.5 43.4014,-340.5 43.4014,-228.5 43.4014,-196.708 48.1773,-159.922 51.4353,-138.526"/>
<polygon fill="midnightblue" stroke="midnightblue" points="54.8999,-139.025 53.0082,-128.6 47.9861,-137.929 54.8999,-139.025"/>
</g>
<!-- Node27 -->
<g id="node27" class="node"><title>Node27</title>
<g id="a_node27"><a xlink:href="$I2CDriver_8h.html" xlink:title="I2CDriver.h">
<polygon fill="white" stroke="black" points="1126.39,-165.5 1126.39,-183.5 1192.41,-183.5 1192.41,-165.5 1126.39,-165.5"/>
<text text-anchor="middle" x="1159.4" y="-171.5" font-family="Helvetica,sans-Serif" font-size="10.00">I2CDriver.h</text>
</a>
</g>
</g>
<!-- Node3&#45;&gt;Node27 -->
<g id="edge46" class="edge"><title>Node3&#45;&gt;Node27</title>
<path fill="none" stroke="midnightblue" d="M676.333,-440.8C752.081,-429.503 886.299,-409.208 908.401,-404 999.177,-382.609 1108.4,-433.762 1108.4,-340.5 1108.4,-340.5 1108.4,-340.5 1108.4,-283.5 1108.4,-248.076 1131.11,-211.836 1146.22,-191.644"/>
<polygon fill="midnightblue" stroke="midnightblue" points="1149.14,-193.596 1152.52,-183.556 1143.62,-189.295 1149.14,-193.596"/>
</g>
<!-- Node28 -->
<g id="node28" class="node"><title>Node28</title>
<g id="a_node28"><a xlink:href="$Scheduler_8h.html" xlink:title="Scheduler.h">
<polygon fill="white" stroke="black" points="919.99,-220.5 919.99,-238.5 988.812,-238.5 988.812,-220.5 919.99,-220.5"/>
<text text-anchor="middle" x="954.401" y="-226.5" font-family="Helvetica,sans-Serif" font-size="10.00">Scheduler.h</text>
</a>
</g>
</g>
<!-- Node3&#45;&gt;Node28 -->
<g id="edge55" class="edge"><title>Node3&#45;&gt;Node28</title>
<path fill="none" stroke="midnightblue" d="M668.072,-440.424C713.969,-431.48 782.734,-416.65 806.401,-404 870.209,-369.894 884.241,-352.797 926.401,-294 936.384,-280.078 943.915,-262.032 948.639,-248.738"/>
<polygon fill="midnightblue" stroke="midnightblue" points="952.082,-249.477 951.938,-238.883 945.444,-247.254 952.082,-249.477"/>
</g>
<!-- Node29 -->
<g id="node29" class="node"><title>Node29</title>
<g id="a_node29"><a xlink:href="$Semaphores_8h.html" xlink:title="Semaphores.h">
<polygon fill="white" stroke="black" points="1286.88,-330.5 1286.88,-348.5 1367.92,-348.5 1367.92,-330.5 1286.88,-330.5"/>
<text text-anchor="middle" x="1327.4" y="-336.5" font-family="Helvetica,sans-Serif" font-size="10.00">Semaphores.h</text>
</a>
</g>
</g>
<!-- Node3&#45;&gt;Node29 -->
<g id="edge60" class="edge"><title>Node3&#45;&gt;Node29</title>
<path fill="none" stroke="midnightblue" d="M676.613,-440.955C679.584,-440.609 682.529,-440.288 685.401,-440 815.44,-426.972 1155.25,-461.917 1272.4,-404 1292.78,-393.926 1308.73,-372.581 1318.09,-357.424"/>
<polygon fill="midnightblue" stroke="midnightblue" points="1321.26,-358.939 1323.27,-348.537 1315.21,-355.413 1321.26,-358.939"/>
</g>
<!-- Node30 -->
<g id="node30" class="node"><title>Node30</title>
<g id="a_node30"><a xlink:href="$Util_8h.html" xlink:title="Util.h">
<polygon fill="white" stroke="black" points="191.01,-220.5 191.01,-238.5 229.793,-238.5 229.793,-220.5 191.01,-220.5"/>
<text text-anchor="middle" x="210.401" y="-226.5" font-family="Helvetica,sans-Serif" font-size="10.00">Util.h</text>
</a>
</g>
</g>
<!-- Node3&#45;&gt;Node30 -->
<g id="edge62" class="edge"><title>Node3&#45;&gt;Node30</title>
<path fill="none" stroke="midnightblue" d="M572.173,-441.104C569.207,-440.721 566.267,-440.35 563.401,-440 487.326,-430.71 273.306,-459.452 220.401,-404 179.996,-361.649 195.088,-283.846 204.768,-248.646"/>
<polygon fill="midnightblue" stroke="midnightblue" points="208.195,-249.394 207.643,-238.814 201.477,-247.429 208.195,-249.394"/>
</g>
<!-- Node7 -->
<g id="node7" class="node"><title>Node7</title>
<polygon fill="white" stroke="#bfbfbf" points="323.005,-0.5 323.005,-18.5 371.798,-18.5 371.798,-0.5 323.005,-0.5"/>
<text text-anchor="middle" x="347.401" y="-6.5" font-family="Helvetica,sans-Serif" font-size="10.00">string.h</text>
</g>
<!-- Node6&#45;&gt;Node7 -->
<g id="edge6" class="edge"><title>Node6&#45;&gt;Node7</title>
<path fill="none" stroke="midnightblue" d="M485.645,-55.4504C457.84,-46.4094 412.54,-31.6802 381.422,-21.5618"/>
<polygon fill="midnightblue" stroke="midnightblue" points="382.449,-18.2154 371.856,-18.4517 380.284,-24.8724 382.449,-18.2154"/>
</g>
<!-- Node8 -->
<g id="node8" class="node"><title>Node8</title>
<g id="a_node8"><a xlink:href="$functor_8h.html" xlink:title="utility/functor.h">
<polygon fill="white" stroke="black" points="470.438,-0.5 470.438,-18.5 550.364,-18.5 550.364,-0.5 470.438,-0.5"/>
<text text-anchor="middle" x="510.401" y="-6.5" font-family="Helvetica,sans-Serif" font-size="10.00">utility/functor.h</text>
</a>
</g>
</g>
<!-- Node6&#45;&gt;Node8 -->
<g id="edge7" class="edge"><title>Node6&#45;&gt;Node8</title>
<path fill="none" stroke="midnightblue" d="M510.401,-55.2188C510.401,-48.1769 510.401,-37.8083 510.401,-28.8277"/>
<polygon fill="midnightblue" stroke="midnightblue" points="513.901,-28.5495 510.401,-18.5496 506.901,-28.5496 513.901,-28.5495"/>
</g>
<!-- Node11&#45;&gt;Node12 -->
<g id="edge11" class="edge"><title>Node11&#45;&gt;Node12</title>
<path fill="none" stroke="midnightblue" d="M619.089,-385.219C614.27,-377.707 607.024,-366.411 601.019,-357.052"/>
<polygon fill="midnightblue" stroke="midnightblue" points="603.911,-355.077 595.565,-348.55 598.019,-358.856 603.911,-355.077"/>
</g>
<!-- Node12&#45;&gt;Node6 -->
<g id="edge12" class="edge"><title>Node12&#45;&gt;Node6</title>
<path fill="none" stroke="midnightblue" d="M578.991,-330.163C545.344,-304.725 447.032,-224.015 417.401,-129 414.887,-120.938 412.9,-117.144 417.401,-110 427.545,-93.9005 445.303,-83.4982 462.601,-76.8378"/>
<polygon fill="midnightblue" stroke="midnightblue" points="463.829,-80.1161 472.113,-73.51 461.518,-73.5088 463.829,-80.1161"/>
</g>
<!-- Node12&#45;&gt;Node13 -->
<g id="edge13" class="edge"><title>Node12&#45;&gt;Node13</title>
<path fill="none" stroke="midnightblue" d="M568.271,-335.3C524.121,-328.764 422.062,-312.892 337.401,-294 266.74,-278.232 185.404,-254.989 139.631,-241.432"/>
<polygon fill="midnightblue" stroke="midnightblue" points="140.459,-238.027 129.876,-238.53 138.463,-244.737 140.459,-238.027"/>
</g>
<!-- Node12&#45;&gt;Node15 -->
<g id="edge16" class="edge"><title>Node12&#45;&gt;Node15</title>
<path fill="none" stroke="midnightblue" d="M585.666,-330.382C575.45,-312.869 551.154,-271.218 537.379,-247.605"/>
<polygon fill="midnightblue" stroke="midnightblue" points="540.254,-245.586 532.192,-238.712 534.207,-249.113 540.254,-245.586"/>
</g>
<!-- Node12&#45;&gt;Node16 -->
<g id="edge19" class="edge"><title>Node12&#45;&gt;Node16</title>
<path fill="none" stroke="midnightblue" d="M568.409,-333.028C533.008,-324.219 462.838,-306.759 418.114,-295.63"/>
<polygon fill="midnightblue" stroke="midnightblue" points="418.704,-292.171 408.155,-293.152 417.014,-298.963 418.704,-292.171"/>
</g>
<!-- Node12&#45;&gt;Node17 -->
<g id="edge21" class="edge"><title>Node12&#45;&gt;Node17</title>
<path fill="none" stroke="midnightblue" d="M612.6,-333.028C648.01,-324.299 717.881,-307.075 763.073,-295.935"/>
<polygon fill="midnightblue" stroke="midnightblue" points="764.005,-299.309 772.877,-293.518 762.33,-292.513 764.005,-299.309"/>
</g>
<!-- Node12&#45;&gt;Node18 -->
<g id="edge23" class="edge"><title>Node12&#45;&gt;Node18</title>
<path fill="none" stroke="midnightblue" d="M612.392,-336.487C698.025,-328.648 1010.16,-300.077 1125.86,-289.486"/>
<polygon fill="midnightblue" stroke="midnightblue" points="1126.47,-292.944 1136.11,-288.547 1125.83,-285.974 1126.47,-292.944"/>
</g>
<!-- Node12&#45;&gt;Node19 -->
<g id="edge25" class="edge"><title>Node12&#45;&gt;Node19</title>
<path fill="none" stroke="midnightblue" d="M612.549,-335.015C655.72,-328.152 754.358,-312.12 847.728,-294.057"/>
<polygon fill="midnightblue" stroke="midnightblue" points="848.472,-297.478 857.619,-292.132 847.134,-290.607 848.472,-297.478"/>
</g>
<!-- Node12&#45;&gt;Node20 -->
<g id="edge28" class="edge"><title>Node12&#45;&gt;Node20</title>
<path fill="none" stroke="midnightblue" d="M594.776,-330.219C598.662,-322.864 604.465,-311.88 609.347,-302.639"/>
<polygon fill="midnightblue" stroke="midnightblue" points="612.572,-304.026 614.149,-293.55 606.383,-300.757 612.572,-304.026"/>
</g>
<!-- Node13&#45;&gt;Node6 -->
<g id="edge15" class="edge"><title>Node13&#45;&gt;Node6</title>
<path fill="none" stroke="midnightblue" d="M104.377,-220.146C106.153,-207.465 110.763,-182.937 121.401,-165 139.197,-134.995 146.059,-125.319 177.401,-110 222.172,-88.1178 355.534,-75.6215 439.277,-69.7304"/>
<polygon fill="midnightblue" stroke="midnightblue" points="439.751,-73.2062 449.487,-69.0275 439.27,-66.2227 439.751,-73.2062"/>
</g>
<!-- Node14 -->
<g id="node14" class="node"><title>Node14</title>
<polygon fill="white" stroke="#bfbfbf" points="0,-55.5 0,-73.5 58.8027,-73.5 58.8027,-55.5 0,-55.5"/>
<text text-anchor="middle" x="29.4014" y="-61.5" font-family="Helvetica,sans-Serif" font-size="10.00">inttypes.h</text>
</g>
<!-- Node13&#45;&gt;Node14 -->
<g id="edge14" class="edge"><title>Node13&#45;&gt;Node14</title>
<path fill="none" stroke="midnightblue" d="M93.5519,-220.48C75.4693,-205.039 37.5373,-169.141 23.4014,-129 18.2238,-114.297 20.5543,-96.5644 23.7014,-83.5789"/>
<polygon fill="midnightblue" stroke="midnightblue" points="27.1739,-84.159 26.5091,-73.5851 20.4348,-82.2657 27.1739,-84.159"/>
</g>
<!-- Node15&#45;&gt;Node4 -->
<g id="edge17" class="edge"><title>Node15&#45;&gt;Node4</title>
<path fill="none" stroke="midnightblue" d="M552.187,-224.581C585.745,-218.69 647.002,-205.851 695.401,-184 724.458,-170.882 754.471,-149.21 772.789,-134.893"/>
<polygon fill="midnightblue" stroke="midnightblue" points="775.143,-137.493 780.786,-128.526 770.783,-132.016 775.143,-137.493"/>
</g>
<!-- Node15&#45;&gt;Node6 -->
<g id="edge18" class="edge"><title>Node15&#45;&gt;Node6</title>
<path fill="none" stroke="midnightblue" d="M519.998,-220.387C512.881,-211.99 502.603,-198.143 498.401,-184 488.132,-149.434 497.422,-106.974 504.389,-83.414"/>
<polygon fill="midnightblue" stroke="midnightblue" points="507.767,-84.3384 507.437,-73.7487 501.091,-82.2328 507.767,-84.3384"/>
</g>
<!-- Node16&#45;&gt;Node6 -->
<g id="edge20" class="edge"><title>Node16&#45;&gt;Node6</title>
<path fill="none" stroke="midnightblue" d="M376.569,-275.339C373.612,-244.649 364.799,-136.559 384.401,-110 397.602,-92.1136 418.575,-81.3825 439.651,-74.9562"/>
<polygon fill="midnightblue" stroke="midnightblue" points="440.602,-78.3247 449.314,-72.2962 438.744,-71.5757 440.602,-78.3247"/>
</g>
<!-- Node17&#45;&gt;Node6 -->
<g id="edge22" class="edge"><title>Node17&#45;&gt;Node6</title>
<path fill="none" stroke="midnightblue" d="M809.922,-275.358C824.375,-248.127 866.077,-159.172 823.401,-110 792.708,-74.6343 663.875,-66.6436 581.365,-65.247"/>
<polygon fill="midnightblue" stroke="midnightblue" points="581.342,-61.7464 571.293,-65.1051 581.243,-68.7457 581.342,-61.7464"/>
</g>
<!-- Node18&#45;&gt;Node6 -->
<g id="edge24" class="edge"><title>Node18&#45;&gt;Node6</title>
<path fill="none" stroke="midnightblue" d="M1175.27,-275.421C1188.75,-255.791 1219.45,-204.313 1201.4,-165 1185.75,-130.916 1172.08,-124.272 1137.4,-110 1038.58,-69.3341 723.992,-64.845 581.614,-64.9805"/>
<polygon fill="midnightblue" stroke="midnightblue" points="581.249,-61.4811 571.255,-64.9989 581.261,-68.481 581.249,-61.4811"/>
</g>
<!-- Node19&#45;&gt;Node4 -->
<g id="edge26" class="edge"><title>Node19&#45;&gt;Node4</title>
<path fill="none" stroke="midnightblue" d="M882.458,-275.193C867.278,-249.684 821.123,-172.126 800.52,-137.504"/>
<polygon fill="midnightblue" stroke="midnightblue" points="803.342,-135.401 795.22,-128.597 797.326,-138.981 803.342,-135.401"/>
</g>
<!-- Node19&#45;&gt;Node6 -->
<g id="edge27" class="edge"><title>Node19&#45;&gt;Node6</title>
<path fill="none" stroke="midnightblue" d="M917.267,-278.271C981.482,-265.672 1123.44,-229.79 1079.4,-165 1024.3,-83.9364 721.569,-68.6562 581.521,-65.962"/>
<polygon fill="midnightblue" stroke="midnightblue" points="581.379,-62.459 571.319,-65.7825 581.256,-69.4579 581.379,-62.459"/>
</g>
<!-- Node20&#45;&gt;Node4 -->
<g id="edge29" class="edge"><title>Node20&#45;&gt;Node4</title>
<path fill="none" stroke="midnightblue" d="M627.466,-275.356C646.164,-258.512 690.284,-218.532 726.401,-184 743.265,-167.876 762.189,-149 775.056,-136.044"/>
<polygon fill="midnightblue" stroke="midnightblue" points="777.662,-138.386 782.213,-128.819 772.689,-133.46 777.662,-138.386"/>
</g>
<!-- Node20&#45;&gt;Node6 -->
<g id="edge34" class="edge"><title>Node20&#45;&gt;Node6</title>
<path fill="none" stroke="midnightblue" d="M610.943,-275.217C590.34,-252.304 533.992,-189.406 531.401,-184 515.648,-151.131 511.613,-108.03 510.641,-83.9063"/>
<polygon fill="midnightblue" stroke="midnightblue" points="514.135,-83.6203 510.372,-73.7162 507.137,-83.8052 514.135,-83.6203"/>
</g>
<!-- Node21 -->
<g id="node21" class="node"><title>Node21</title>
<g id="a_node21"><a xlink:href="$AP__Common_8h.html" xlink:title="Common definitions and utility routines for the ArduPilot libraries. ">
<polygon fill="white" stroke="black" points="540.375,-165.5 540.375,-183.5 686.428,-183.5 686.428,-165.5 540.375,-165.5"/>
<text text-anchor="middle" x="613.401" y="-171.5" font-family="Helvetica,sans-Serif" font-size="10.00">AP_Common/AP_Common.h</text>
</a>
</g>
</g>
<!-- Node20&#45;&gt;Node21 -->
<g id="edge30" class="edge"><title>Node20&#45;&gt;Node21</title>
<path fill="none" stroke="midnightblue" d="M618.026,-275.382C617.229,-258.182 615.355,-217.698 614.253,-193.887"/>
<polygon fill="midnightblue" stroke="midnightblue" points="617.74,-193.539 613.782,-183.712 610.748,-193.863 617.74,-193.539"/>
</g>
<!-- Node20&#45;&gt;Node23 -->
<g id="edge35" class="edge"><title>Node20&#45;&gt;Node23</title>
<path fill="none" stroke="midnightblue" d="M579.337,-276.948C524.32,-267.72 423.636,-250.834 360.017,-240.163"/>
<polygon fill="midnightblue" stroke="midnightblue" points="360.578,-236.709 350.137,-238.506 359.42,-243.612 360.578,-236.709"/>
</g>
<!-- Node21&#45;&gt;Node4 -->
<g id="edge31" class="edge"><title>Node21&#45;&gt;Node4</title>
<path fill="none" stroke="midnightblue" d="M640.284,-165.45C671.309,-156.16 722.392,-140.864 756.216,-130.736"/>
<polygon fill="midnightblue" stroke="midnightblue" points="757.542,-133.993 766.118,-127.771 755.534,-127.287 757.542,-133.993"/>
</g>
<!-- Node21&#45;&gt;Node5 -->
<g id="edge33" class="edge"><title>Node21&#45;&gt;Node5</title>
<path fill="none" stroke="midnightblue" d="M589.253,-165.45C562.325,-156.475 518.578,-141.892 488.245,-131.781"/>
<polygon fill="midnightblue" stroke="midnightblue" points="489.11,-128.38 478.516,-128.538 486.896,-135.021 489.11,-128.38"/>
</g>
<!-- Node22 -->
<g id="node22" class="node"><title>Node22</title>
<polygon fill="white" stroke="#bfbfbf" points="589.559,-110.5 589.559,-128.5 637.244,-128.5 637.244,-110.5 589.559,-110.5"/>
<text text-anchor="middle" x="613.401" y="-116.5" font-family="Helvetica,sans-Serif" font-size="10.00">stdlib.h</text>
</g>
<!-- Node21&#45;&gt;Node22 -->
<g id="edge32" class="edge"><title>Node21&#45;&gt;Node22</title>
<path fill="none" stroke="midnightblue" d="M613.401,-165.219C613.401,-158.177 613.401,-147.808 613.401,-138.828"/>
<polygon fill="midnightblue" stroke="midnightblue" points="616.901,-138.55 613.401,-128.55 609.901,-138.55 616.901,-138.55"/>
</g>
<!-- Node23&#45;&gt;Node6 -->
<g id="edge38" class="edge"><title>Node23&#45;&gt;Node6</title>
<path fill="none" stroke="midnightblue" d="M302.961,-220.193C304.871,-198.64 313.021,-140.487 346.401,-110 371.562,-87.0211 407.402,-75.7188 439.164,-70.2343"/>
<polygon fill="midnightblue" stroke="midnightblue" points="439.973,-73.6505 449.314,-68.6506 438.894,-66.7342 439.973,-73.6505"/>
</g>
<!-- Node23&#45;&gt;Node21 -->
<g id="edge37" class="edge"><title>Node23&#45;&gt;Node21</title>
<path fill="none" stroke="midnightblue" d="M349.636,-220.45C405.053,-211.006 496.892,-195.355 556.268,-185.237"/>
<polygon fill="midnightblue" stroke="midnightblue" points="556.963,-188.669 566.233,-183.538 555.787,-181.768 556.963,-188.669"/>
</g>
<!-- Node24 -->
<g id="node24" class="node"><title>Node24</title>
<polygon fill="white" stroke="#bfbfbf" points="242.335,-165.5 242.335,-183.5 294.468,-183.5 294.468,-165.5 242.335,-165.5"/>
<text text-anchor="middle" x="268.401" y="-171.5" font-family="Helvetica,sans-Serif" font-size="10.00">stdarg.h</text>
</g>
<!-- Node23&#45;&gt;Node24 -->
<g id="edge36" class="edge"><title>Node23&#45;&gt;Node24</title>
<path fill="none" stroke="midnightblue" d="M297.089,-220.219C292.27,-212.707 285.024,-201.411 279.019,-192.052"/>
<polygon fill="midnightblue" stroke="midnightblue" points="281.911,-190.077 273.565,-183.55 276.019,-193.856 281.911,-190.077"/>
</g>
<!-- Node23&#45;&gt;Node25 -->
<g id="edge39" class="edge"><title>Node23&#45;&gt;Node25</title>
<path fill="none" stroke="midnightblue" d="M280.531,-220.45C256.426,-211.578 217.438,-197.229 190.011,-187.134"/>
<polygon fill="midnightblue" stroke="midnightblue" points="191.071,-183.795 180.478,-183.625 188.653,-190.364 191.071,-183.795"/>
</g>
<!-- Node25&#45;&gt;Node6 -->
<g id="edge40" class="edge"><title>Node25&#45;&gt;Node6</title>
<path fill="none" stroke="midnightblue" d="M161.273,-165.253C166.598,-151.308 179.408,-123.294 200.401,-110 238.923,-85.6065 360.03,-74.0754 438.975,-69.0233"/>
<polygon fill="midnightblue" stroke="midnightblue" points="439.578,-72.4928 449.343,-68.3815 439.145,-65.5062 439.578,-72.4928"/>
</g>
<!-- Node25&#45;&gt;Node26 -->
<g id="edge41" class="edge"><title>Node25&#45;&gt;Node26</title>
<path fill="none" stroke="midnightblue" d="M142.606,-165.45C125.808,-156.89 99.0018,-143.229 79.3454,-133.212"/>
<polygon fill="midnightblue" stroke="midnightblue" points="80.8443,-130.047 70.3454,-128.625 77.6659,-136.284 80.8443,-130.047"/>
</g>
<!-- Node26&#45;&gt;Node6 -->
<g id="edge42" class="edge"><title>Node26&#45;&gt;Node6</title>
<path fill="none" stroke="midnightblue" d="M77.1657,-112.667C81.5386,-111.677 86.0965,-110.733 90.4014,-110 212.18,-89.2573 355.573,-76.5434 439.39,-70.2744"/>
<polygon fill="midnightblue" stroke="midnightblue" points="439.846,-73.7504 449.561,-69.5235 439.331,-66.7694 439.846,-73.7504"/>
</g>
<!-- Node26&#45;&gt;Node7 -->
<g id="edge44" class="edge"><title>Node26&#45;&gt;Node7</title>
<path fill="none" stroke="midnightblue" d="M76.424,-110.382C127.88,-91.4158 256.145,-44.1372 315.873,-22.1213"/>
<polygon fill="midnightblue" stroke="midnightblue" points="317.35,-25.307 325.523,-18.5644 314.929,-18.739 317.35,-25.307"/>
</g>
<!-- Node26&#45;&gt;Node14 -->
<g id="edge43" class="edge"><title>Node26&#45;&gt;Node14</title>
<path fill="none" stroke="midnightblue" d="M50.4951,-110.219C47.0258,-102.864 41.8448,-91.8801 37.4858,-82.639"/>
<polygon fill="midnightblue" stroke="midnightblue" points="40.6301,-81.1007 33.1983,-73.5496 34.2991,-84.0871 40.6301,-81.1007"/>
</g>
<!-- Node27&#45;&gt;Node4 -->
<g id="edge47" class="edge"><title>Node27&#45;&gt;Node4</title>
<path fill="none" stroke="midnightblue" d="M1126.33,-168.75C1056.67,-158.745 895.45,-135.588 824.716,-125.429"/>
<polygon fill="midnightblue" stroke="midnightblue" points="824.958,-121.928 814.562,-123.97 823.963,-128.857 824.958,-121.928"/>
</g>
<!-- Node27&#45;&gt;Node6 -->
<g id="edge48" class="edge"><title>Node27&#45;&gt;Node6</title>
<path fill="none" stroke="midnightblue" d="M1155.99,-165.074C1149.75,-150.858 1134.98,-122.446 1112.4,-110 1066.94,-84.9459 731.288,-72.0184 581.834,-67.4535"/>
<polygon fill="midnightblue" stroke="midnightblue" points="581.503,-63.942 571.402,-67.1392 581.292,-70.9388 581.503,-63.942"/>
</g>
<!-- Node28&#45;&gt;Node4 -->
<g id="edge56" class="edge"><title>Node28&#45;&gt;Node4</title>
<path fill="none" stroke="midnightblue" d="M942.075,-220.382C914.175,-202.009 845.932,-157.069 811.298,-134.261"/>
<polygon fill="midnightblue" stroke="midnightblue" points="813.148,-131.289 802.871,-128.712 809.298,-137.135 813.148,-131.289"/>
</g>
<!-- Node28&#45;&gt;Node6 -->
<g id="edge59" class="edge"><title>Node28&#45;&gt;Node6</title>
<path fill="none" stroke="midnightblue" d="M954.715,-220.26C955.055,-198.353 952.664,-138.408 918.401,-110 893.036,-88.9688 691.313,-75.0971 581.333,-69.0188"/>
<polygon fill="midnightblue" stroke="midnightblue" points="581.485,-65.5219 571.309,-68.4723 581.104,-72.5116 581.485,-65.5219"/>
</g>
<!-- Node28&#45;&gt;Node9 -->
<g id="edge58" class="edge"><title>Node28&#45;&gt;Node9</title>
<path fill="none" stroke="midnightblue" d="M964.425,-220.45C974.408,-212.434 989.958,-199.947 1002.14,-190.166"/>
<polygon fill="midnightblue" stroke="midnightblue" points="1004.68,-192.616 1010.28,-183.625 1000.29,-187.158 1004.68,-192.616"/>
</g>
<!-- Node28&#45;&gt;Node21 -->
<g id="edge57" class="edge"><title>Node28&#45;&gt;Node21</title>
<path fill="none" stroke="midnightblue" d="M919.828,-223.126C862.456,-214.209 746.816,-196.236 675.158,-185.098"/>
<polygon fill="midnightblue" stroke="midnightblue" points="675.335,-181.584 664.916,-183.507 674.26,-188.501 675.335,-181.584"/>
</g>
<!-- Node29&#45;&gt;Node6 -->
<g id="edge61" class="edge"><title>Node29&#45;&gt;Node6</title>
<path fill="none" stroke="midnightblue" d="M1325.37,-330.432C1321.07,-312.558 1311.4,-268.22 1311.4,-230.5 1311.4,-230.5 1311.4,-230.5 1311.4,-173.5 1311.4,-140.38 1300.82,-127.005 1272.4,-110 1214.05,-75.0853 759.373,-67.5515 581.448,-65.9367"/>
<polygon fill="midnightblue" stroke="midnightblue" points="581.434,-62.4365 571.404,-65.8492 581.373,-69.4362 581.434,-62.4365"/>
</g>
<!-- Node30&#45;&gt;Node6 -->
<g id="edge64" class="edge"><title>Node30&#45;&gt;Node6</title>
<path fill="none" stroke="midnightblue" d="M211.56,-220.191C213.753,-207.129 219.595,-181.578 233.401,-165 284.308,-103.876 375.731,-80.2976 439.571,-71.2043"/>
<polygon fill="midnightblue" stroke="midnightblue" points="440.122,-74.6618 449.57,-69.8657 439.194,-67.7237 440.122,-74.6618"/>
</g>
<!-- Node30&#45;&gt;Node24 -->
<g id="edge63" class="edge"><title>Node30&#45;&gt;Node24</title>
<path fill="none" stroke="midnightblue" d="M219.464,-220.219C228.198,-212.238 241.607,-199.984 252.182,-190.321"/>
<polygon fill="midnightblue" stroke="midnightblue" points="254.571,-192.879 259.592,-183.55 249.849,-187.712 254.571,-192.879"/>
</g>
<!-- Node31&#45;&gt;Node2 -->
<g id="edge71" class="edge"><title>Node31&#45;&gt;Node2</title>
<path fill="none" stroke="midnightblue" d="M577.916,-513.55C587.796,-521.214 600.628,-532.967 609.783,-542.533"/>
<polygon fill="midnightblue" stroke="midnightblue" points="607.417,-545.137 616.714,-550.219 612.616,-540.449 607.417,-545.137"/>
</g>
<!-- Node31&#45;&gt;Node3 -->
<g id="edge70" class="edge"><title>Node31&#45;&gt;Node3</title>
<path fill="none" stroke="midnightblue" d="M573.514,-495.45C582.501,-487.512 596.451,-475.189 607.475,-465.452"/>
<polygon fill="midnightblue" stroke="midnightblue" points="610.025,-467.869 615.203,-458.625 605.391,-462.623 610.025,-467.869"/>
</g>
<!-- Node32 -->
<g id="node32" class="node"><title>Node32</title>
<g id="a_node32"><a xlink:href="$AP__HAL__VRBRAIN__Namespace_8h.html" xlink:title="AP_HAL_VRBRAIN_Namespace.h">
<polygon fill="white" stroke="black" points="262.586,-440.5 262.586,-458.5 434.216,-458.5 434.216,-440.5 262.586,-440.5"/>
<text text-anchor="middle" x="348.401" y="-446.5" font-family="Helvetica,sans-Serif" font-size="10.00">AP_HAL_VRBRAIN_Namespace.h</text>
</a>
</g>
</g>
<!-- Node31&#45;&gt;Node32 -->
<g id="edge72" class="edge"><title>Node31&#45;&gt;Node32</title>
<path fill="none" stroke="midnightblue" d="M531.596,-495.45C493.981,-486.221 432.207,-471.063 390.929,-460.935"/>
<polygon fill="midnightblue" stroke="midnightblue" points="391.707,-457.522 381.161,-458.538 390.039,-464.321 391.707,-457.522"/>
</g>
<!-- Node33 -->
<g id="node33" class="node"><title>Node33</title>
<polygon fill="white" stroke="#bfbfbf" points="452.149,-440.5 452.149,-458.5 554.653,-458.5 554.653,-440.5 452.149,-440.5"/>
<text text-anchor="middle" x="503.401" y="-446.5" font-family="Helvetica,sans-Serif" font-size="10.00">systemlib/visibility.h</text>
</g>
<!-- Node31&#45;&gt;Node33 -->
<g id="edge73" class="edge"><title>Node31&#45;&gt;Node33</title>
<path fill="none" stroke="midnightblue" d="M555.137,-495.45C546,-487.512 531.817,-475.189 520.61,-465.452"/>
<polygon fill="midnightblue" stroke="midnightblue" points="522.597,-462.542 512.753,-458.625 518.006,-467.826 522.597,-462.542"/>
</g>
<!-- Node31&#45;&gt;Node34 -->
<g id="edge74" class="edge"><title>Node31&#45;&gt;Node34</title>
<path fill="none" stroke="midnightblue" d="M593.562,-495.45C626.644,-486.318 680.749,-471.383 717.43,-461.258"/>
<polygon fill="midnightblue" stroke="midnightblue" points="718.573,-464.573 727.281,-458.538 716.711,-457.825 718.573,-464.573"/>
</g>
</g>
</svg>
